<?xml version="1.0" encoding="utf-8" standalone="no"?>
<!DOCTYPE svg PUBLIC "-//W3C//DTD SVG 1.1//EN"
  "http://www.w3.org/Graphics/SVG/1.1/DTD/svg11.dtd">
<svg xmlns:xlink="http://www.w3.org/1999/xlink" width="584.39952pt" height="152.432797pt" viewBox="0 0 584.39952 152.432797" xmlns="http://www.w3.org/2000/svg" version="1.1">
 <metadata>
  <rdf:RDF xmlns:dc="http://purl.org/dc/elements/1.1/" xmlns:cc="http://creativecommons.org/ns#" xmlns:rdf="http://www.w3.org/1999/02/22-rdf-syntax-ns#">
   <cc:Work>
    <dc:type rdf:resource="http://purl.org/dc/dcmitype/StillImage"/>
    <dc:date>2022-06-20T09:52:43.821889</dc:date>
    <dc:format>image/svg+xml</dc:format>
    <dc:creator>
     <cc:Agent>
      <dc:title>Matplotlib v3.5.2, https://matplotlib.org/</dc:title>
     </cc:Agent>
    </dc:creator>
   </cc:Work>
  </rdf:RDF>
 </metadata>
 <defs>
  <style type="text/css">*{stroke-linejoin: round; stroke-linecap: butt}</style>
 </defs>
 <g id="figure_1">
  <g id="patch_1">
   <path d="M 0 152.432797 
L 584.39952 152.432797 
L 584.39952 0 
L 0 0 
L 0 152.432797 
z
" style="fill: none"/>
  </g>
  <g id="axes_1">
   <g id="patch_2">
    <path d="M 41.145691 99.894936 
L 564.995286 99.894936 
L 564.995286 8.013328 
L 41.145691 8.013328 
L 41.145691 99.894936 
z
" style="fill: none"/>
   </g>
   <g id="matplotlib.axis_1">
    <g id="xtick_1">
     <g id="line2d_1">
      <path d="M 41.145691 99.894936 
L 41.145691 8.013328 
" clip-path="url(#p5b20f8233a)" style="fill: none; stroke: #000000; stroke-opacity: 0.2; stroke-width: 0.5; stroke-linecap: round"/>
     </g>
     <g id="line2d_2">
      <defs>
       <path id="m5fb99da6af" d="M 0 0 
L 0 3.5 
" style="stroke: #000000; stroke-opacity: 0.2; stroke-width: 0.5"/>
      </defs>
      <g>
       <use xlink:href="#m5fb99da6af" x="41.145691" y="99.894936" style="fill-opacity: 0.2; stroke: #000000; stroke-opacity: 0.2; stroke-width: 0.5"/>
      </g>
     </g>
     <g id="text_1">
      <!-- $\mathdefault{0.00}$ -->
      <g transform="translate(28.941457 125.374465)scale(0.14 -0.14)">
       <defs>
        <path id="URWPalladioL-Roma-30" d="M 1683 4416 
C 691 4416 186 3628 186 2076 
C 186 1326 320 679 544 365 
C 768 51 1126 -128 1523 -128 
C 2490 -128 2976 704 2976 2345 
C 2976 3749 2560 4416 1683 4416 
z
M 1568 4191 
C 2189 4191 2438 3563 2438 2025 
C 2438 660 2195 96 1606 96 
C 986 96 723 743 723 2307 
C 723 3660 960 4191 1568 4191 
z
" transform="scale(0.015625)"/>
        <path id="URWPalladioL-Roma-2e" d="M 794 678 
C 602 678 429 499 429 307 
C 429 115 602 -64 787 -64 
C 992 -64 1171 108 1171 307 
C 1171 499 992 678 794 678 
z
" transform="scale(0.015625)"/>
       </defs>
       <use xlink:href="#URWPalladioL-Roma-30" transform="scale(0.996264)"/>
       <use xlink:href="#URWPalladioL-Roma-2e" transform="translate(49.8132 0)scale(0.996264)"/>
       <use xlink:href="#URWPalladioL-Roma-30" transform="translate(74.719801 0)scale(0.996264)"/>
       <use xlink:href="#URWPalladioL-Roma-30" transform="translate(124.533001 0)scale(0.996264)"/>
      </g>
     </g>
    </g>
    <g id="xtick_2">
     <g id="line2d_3">
      <path d="M 99.351201 99.894936 
L 99.351201 8.013328 
" clip-path="url(#p5b20f8233a)" style="fill: none; stroke: #000000; stroke-opacity: 0.2; stroke-width: 0.5; stroke-linecap: round"/>
     </g>
     <g id="line2d_4">
      <g>
       <use xlink:href="#m5fb99da6af" x="99.351201" y="99.894936" style="fill-opacity: 0.2; stroke: #000000; stroke-opacity: 0.2; stroke-width: 0.5"/>
      </g>
     </g>
     <g id="text_2">
      <!-- $\mathdefault{0.25}$ -->
      <g transform="translate(87.146967 125.374465)scale(0.14 -0.14)">
       <defs>
        <path id="URWPalladioL-Roma-32" d="M 102 166 
L 102 0 
C 1299 0 1299 0 1530 0 
C 1760 19 1760 19 2995 0 
C 2982 134 2982 198 2982 287 
C 2982 370 2982 434 2995 574 
C 2259 542 1965 536 781 510 
L 1946 1741 
C 2566 2398 2758 2749 2758 3228 
C 2758 3961 2259 4416 1446 4416 
C 986 4416 672 4287 358 3967 
L 250 3100 
L 435 3100 
L 518 3394 
C 621 3763 851 3923 1280 3923 
C 1830 3923 2182 3578 2182 3036 
C 2182 2558 1914 2086 1190 1320 
L 102 166 
z
" transform="scale(0.015625)"/>
        <path id="URWPalladioL-Roma-35" d="M 813 3891 
C 1638 3865 1997 3859 2765 3859 
L 2797 3891 
C 2784 4006 2784 4057 2784 4140 
C 2784 4230 2784 4281 2797 4396 
L 2765 4428 
C 2285 4403 1997 4396 1651 4396 
C 1299 4396 1018 4403 538 4428 
L 506 4396 
C 512 4006 518 3724 518 3520 
C 518 2976 499 2360 480 2076 
L 608 2038 
C 909 2341 1082 2432 1395 2432 
C 2010 2432 2394 1992 2394 1295 
C 2394 579 1984 160 1286 160 
C 941 160 621 276 531 443 
L 237 973 
L 83 882 
C 230 514 307 308 397 25 
C 576 -71 832 -128 1107 -128 
C 1536 -128 1990 57 2342 366 
C 2733 715 2938 1153 2938 1631 
C 2938 2360 2419 2873 1690 2873 
C 1382 2873 1152 2790 755 2553 
L 813 3891 
z
" transform="scale(0.015625)"/>
       </defs>
       <use xlink:href="#URWPalladioL-Roma-30" transform="scale(0.996264)"/>
       <use xlink:href="#URWPalladioL-Roma-2e" transform="translate(49.8132 0)scale(0.996264)"/>
       <use xlink:href="#URWPalladioL-Roma-32" transform="translate(74.719801 0)scale(0.996264)"/>
       <use xlink:href="#URWPalladioL-Roma-35" transform="translate(124.533001 0)scale(0.996264)"/>
      </g>
     </g>
    </g>
    <g id="xtick_3">
     <g id="line2d_5">
      <path d="M 157.556712 99.894936 
L 157.556712 8.013328 
" clip-path="url(#p5b20f8233a)" style="fill: none; stroke: #000000; stroke-opacity: 0.2; stroke-width: 0.5; stroke-linecap: round"/>
     </g>
     <g id="line2d_6">
      <g>
       <use xlink:href="#m5fb99da6af" x="157.556712" y="99.894936" style="fill-opacity: 0.2; stroke: #000000; stroke-opacity: 0.2; stroke-width: 0.5"/>
      </g>
     </g>
     <g id="text_3">
      <!-- $\mathdefault{0.50}$ -->
      <g transform="translate(145.352478 125.374465)scale(0.14 -0.14)">
       <use xlink:href="#URWPalladioL-Roma-30" transform="scale(0.996264)"/>
       <use xlink:href="#URWPalladioL-Roma-2e" transform="translate(49.8132 0)scale(0.996264)"/>
       <use xlink:href="#URWPalladioL-Roma-35" transform="translate(74.719801 0)scale(0.996264)"/>
       <use xlink:href="#URWPalladioL-Roma-30" transform="translate(124.533001 0)scale(0.996264)"/>
      </g>
     </g>
    </g>
    <g id="xtick_4">
     <g id="line2d_7">
      <path d="M 215.762222 99.894936 
L 215.762222 8.013328 
" clip-path="url(#p5b20f8233a)" style="fill: none; stroke: #000000; stroke-opacity: 0.2; stroke-width: 0.5; stroke-linecap: round"/>
     </g>
     <g id="line2d_8">
      <g>
       <use xlink:href="#m5fb99da6af" x="215.762222" y="99.894936" style="fill-opacity: 0.2; stroke: #000000; stroke-opacity: 0.2; stroke-width: 0.5"/>
      </g>
     </g>
     <g id="text_4">
      <!-- $\mathdefault{0.75}$ -->
      <g transform="translate(203.557988 125.374465)scale(0.14 -0.14)">
       <defs>
        <path id="URWPalladioL-Roma-37" d="M 358 83 
L 416 0 
C 666 0 666 0 710 0 
C 755 19 755 19 1005 0 
C 1274 700 1587 1369 2010 2141 
L 3181 4255 
L 3181 4448 
C 2490 4422 2266 4416 1747 4416 
C 1280 4416 966 4422 346 4448 
L 282 4416 
C 301 3807 301 3807 301 3743 
C 301 3672 301 3672 282 3087 
L 474 3087 
L 518 3447 
C 570 3846 614 3897 909 3897 
L 2618 3897 
C 2362 3370 2163 2996 1920 2604 
L 358 83 
z
" transform="scale(0.015625)"/>
       </defs>
       <use xlink:href="#URWPalladioL-Roma-30" transform="scale(0.996264)"/>
       <use xlink:href="#URWPalladioL-Roma-2e" transform="translate(49.8132 0)scale(0.996264)"/>
       <use xlink:href="#URWPalladioL-Roma-37" transform="translate(74.719801 0)scale(0.996264)"/>
       <use xlink:href="#URWPalladioL-Roma-35" transform="translate(124.533001 0)scale(0.996264)"/>
      </g>
     </g>
    </g>
    <g id="xtick_5">
     <g id="line2d_9">
      <path d="M 273.967733 99.894936 
L 273.967733 8.013328 
" clip-path="url(#p5b20f8233a)" style="fill: none; stroke: #000000; stroke-opacity: 0.2; stroke-width: 0.5; stroke-linecap: round"/>
     </g>
     <g id="line2d_10">
      <g>
       <use xlink:href="#m5fb99da6af" x="273.967733" y="99.894936" style="fill-opacity: 0.2; stroke: #000000; stroke-opacity: 0.2; stroke-width: 0.5"/>
      </g>
     </g>
     <g id="text_5">
      <!-- $\mathdefault{1.00}$ -->
      <g transform="translate(261.763499 125.374465)scale(0.14 -0.14)">
       <defs>
        <path id="URWPalladioL-Roma-31" d="M 429 3571 
L 493 3571 
L 1318 3942 
C 1325 3949 1331 3949 1338 3949 
C 1376 3949 1389 3891 1389 3737 
L 1389 633 
C 1389 300 1318 230 973 211 
L 614 192 
L 614 0 
C 1600 0 1600 0 1670 0 
C 1754 0 1894 0 2112 -7 
C 2189 6 2413 6 2675 0 
L 2675 192 
L 2342 211 
C 1990 229 1926 299 1926 628 
L 1926 4383 
L 1837 4416 
C 1421 4199 966 4009 384 3807 
L 429 3571 
z
" transform="scale(0.015625)"/>
       </defs>
       <use xlink:href="#URWPalladioL-Roma-31" transform="scale(0.996264)"/>
       <use xlink:href="#URWPalladioL-Roma-2e" transform="translate(49.8132 0)scale(0.996264)"/>
       <use xlink:href="#URWPalladioL-Roma-30" transform="translate(74.719801 0)scale(0.996264)"/>
       <use xlink:href="#URWPalladioL-Roma-30" transform="translate(124.533001 0)scale(0.996264)"/>
      </g>
     </g>
    </g>
    <g id="xtick_6">
     <g id="line2d_11">
      <path d="M 332.173244 99.894936 
L 332.173244 8.013328 
" clip-path="url(#p5b20f8233a)" style="fill: none; stroke: #000000; stroke-opacity: 0.2; stroke-width: 0.5; stroke-linecap: round"/>
     </g>
     <g id="line2d_12">
      <g>
       <use xlink:href="#m5fb99da6af" x="332.173244" y="99.894936" style="fill-opacity: 0.2; stroke: #000000; stroke-opacity: 0.2; stroke-width: 0.5"/>
      </g>
     </g>
     <g id="text_6">
      <!-- $\mathdefault{1.25}$ -->
      <g transform="translate(319.969009 125.374465)scale(0.14 -0.14)">
       <use xlink:href="#URWPalladioL-Roma-31" transform="scale(0.996264)"/>
       <use xlink:href="#URWPalladioL-Roma-2e" transform="translate(49.8132 0)scale(0.996264)"/>
       <use xlink:href="#URWPalladioL-Roma-32" transform="translate(74.719801 0)scale(0.996264)"/>
       <use xlink:href="#URWPalladioL-Roma-35" transform="translate(124.533001 0)scale(0.996264)"/>
      </g>
     </g>
    </g>
    <g id="xtick_7">
     <g id="line2d_13">
      <path d="M 390.378754 99.894936 
L 390.378754 8.013328 
" clip-path="url(#p5b20f8233a)" style="fill: none; stroke: #000000; stroke-opacity: 0.2; stroke-width: 0.5; stroke-linecap: round"/>
     </g>
     <g id="line2d_14">
      <g>
       <use xlink:href="#m5fb99da6af" x="390.378754" y="99.894936" style="fill-opacity: 0.2; stroke: #000000; stroke-opacity: 0.2; stroke-width: 0.5"/>
      </g>
     </g>
     <g id="text_7">
      <!-- $\mathdefault{1.50}$ -->
      <g transform="translate(378.17452 125.374465)scale(0.14 -0.14)">
       <use xlink:href="#URWPalladioL-Roma-31" transform="scale(0.996264)"/>
       <use xlink:href="#URWPalladioL-Roma-2e" transform="translate(49.8132 0)scale(0.996264)"/>
       <use xlink:href="#URWPalladioL-Roma-35" transform="translate(74.719801 0)scale(0.996264)"/>
       <use xlink:href="#URWPalladioL-Roma-30" transform="translate(124.533001 0)scale(0.996264)"/>
      </g>
     </g>
    </g>
    <g id="xtick_8">
     <g id="line2d_15">
      <path d="M 448.584265 99.894936 
L 448.584265 8.013328 
" clip-path="url(#p5b20f8233a)" style="fill: none; stroke: #000000; stroke-opacity: 0.2; stroke-width: 0.5; stroke-linecap: round"/>
     </g>
     <g id="line2d_16">
      <g>
       <use xlink:href="#m5fb99da6af" x="448.584265" y="99.894936" style="fill-opacity: 0.2; stroke: #000000; stroke-opacity: 0.2; stroke-width: 0.5"/>
      </g>
     </g>
     <g id="text_8">
      <!-- $\mathdefault{1.75}$ -->
      <g transform="translate(436.380031 125.374465)scale(0.14 -0.14)">
       <use xlink:href="#URWPalladioL-Roma-31" transform="scale(0.996264)"/>
       <use xlink:href="#URWPalladioL-Roma-2e" transform="translate(49.8132 0)scale(0.996264)"/>
       <use xlink:href="#URWPalladioL-Roma-37" transform="translate(74.719801 0)scale(0.996264)"/>
       <use xlink:href="#URWPalladioL-Roma-35" transform="translate(124.533001 0)scale(0.996264)"/>
      </g>
     </g>
    </g>
    <g id="xtick_9">
     <g id="line2d_17">
      <path d="M 506.789775 99.894936 
L 506.789775 8.013328 
" clip-path="url(#p5b20f8233a)" style="fill: none; stroke: #000000; stroke-opacity: 0.2; stroke-width: 0.5; stroke-linecap: round"/>
     </g>
     <g id="line2d_18">
      <g>
       <use xlink:href="#m5fb99da6af" x="506.789775" y="99.894936" style="fill-opacity: 0.2; stroke: #000000; stroke-opacity: 0.2; stroke-width: 0.5"/>
      </g>
     </g>
     <g id="text_9">
      <!-- $\mathdefault{2.00}$ -->
      <g transform="translate(494.585541 125.374465)scale(0.14 -0.14)">
       <use xlink:href="#URWPalladioL-Roma-32" transform="scale(0.996264)"/>
       <use xlink:href="#URWPalladioL-Roma-2e" transform="translate(49.8132 0)scale(0.996264)"/>
       <use xlink:href="#URWPalladioL-Roma-30" transform="translate(74.719801 0)scale(0.996264)"/>
       <use xlink:href="#URWPalladioL-Roma-30" transform="translate(124.533001 0)scale(0.996264)"/>
      </g>
     </g>
    </g>
    <g id="xtick_10">
     <g id="line2d_19">
      <path d="M 564.995286 99.894936 
L 564.995286 8.013328 
" clip-path="url(#p5b20f8233a)" style="fill: none; stroke: #000000; stroke-opacity: 0.2; stroke-width: 0.5; stroke-linecap: round"/>
     </g>
     <g id="line2d_20">
      <g>
       <use xlink:href="#m5fb99da6af" x="564.995286" y="99.894936" style="fill-opacity: 0.2; stroke: #000000; stroke-opacity: 0.2; stroke-width: 0.5"/>
      </g>
     </g>
     <g id="text_10">
      <!-- $\mathdefault{2.25}$ -->
      <g transform="translate(552.791052 125.374465)scale(0.14 -0.14)">
       <use xlink:href="#URWPalladioL-Roma-32" transform="scale(0.996264)"/>
       <use xlink:href="#URWPalladioL-Roma-2e" transform="translate(49.8132 0)scale(0.996264)"/>
       <use xlink:href="#URWPalladioL-Roma-32" transform="translate(74.719801 0)scale(0.996264)"/>
       <use xlink:href="#URWPalladioL-Roma-35" transform="translate(124.533001 0)scale(0.996264)"/>
      </g>
     </g>
    </g>
    <g id="text_11">
     <!-- Time $t$ [seconds] -->
     <g transform="translate(259.763324 141.861513)scale(0.12 -0.12)">
      <defs>
       <path id="URWPalladioL-Roma-54" d="M 1632 4096 
C 1651 3880 1658 3734 1658 3462 
L 1658 781 
C 1658 280 1626 230 1331 211 
L 1024 192 
L 1024 0 
C 1402 -7 1626 0 1958 0 
C 2291 19 2522 12 2899 0 
L 2899 192 
L 2592 211 
C 2298 230 2266 280 2266 781 
L 2266 3462 
C 2266 3747 2272 3887 2291 4096 
L 3283 4096 
C 3462 4096 3533 4039 3539 3887 
L 3565 3386 
L 3763 3386 
C 3763 3801 3776 4051 3808 4416 
C 3347 4409 3136 4409 2957 4403 
C 2707 4390 2522 4390 2426 4390 
L 1414 4390 
C 1350 4390 1005 4396 550 4403 
L 115 4416 
C 147 4051 160 3801 160 3385 
L 358 3385 
L 384 3891 
C 390 4038 461 4096 640 4096 
L 1632 4096 
z
" transform="scale(0.015625)"/>
       <path id="URWPalladioL-Roma-69" d="M 1203 2982 
L 1146 3008 
C 819 2873 486 2784 147 2746 
L 147 2568 
L 384 2568 
C 640 2568 666 2523 666 2103 
L 666 669 
C 666 268 646 223 429 211 
L 134 192 
L 134 0 
C 774 0 774 0 934 0 
C 1094 19 1094 19 1734 0 
L 1734 192 
L 1440 211 
C 1222 224 1203 268 1203 671 
L 1203 2982 
z
M 909 4416 
C 717 4416 550 4249 550 4057 
C 550 3871 717 3705 902 3705 
C 1088 3705 1261 3871 1261 4057 
C 1261 4236 1088 4416 909 4416 
z
" transform="scale(0.015625)"/>
       <path id="URWPalladioL-Roma-6d" d="M 115 2579 
L 352 2579 
C 608 2579 634 2534 634 2112 
L 634 672 
C 634 268 614 224 397 211 
L 102 192 
L 102 0 
C 717 0 736 0 915 0 
C 1094 19 1261 12 1677 0 
L 1677 192 
L 1408 211 
C 1190 223 1171 268 1171 670 
L 1171 2023 
C 1171 2311 1594 2624 1978 2624 
C 2323 2624 2560 2298 2560 1813 
L 2560 670 
C 2560 268 2541 223 2323 211 
L 2029 192 
L 2029 0 
C 2669 0 2669 0 2829 0 
C 2989 19 2989 19 3629 0 
L 3629 192 
L 3334 211 
C 3117 223 3098 268 3098 670 
L 3098 2023 
C 3098 2311 3520 2624 3904 2624 
C 4250 2624 4486 2298 4486 1813 
L 4486 0 
C 4877 0 4883 0 4992 0 
C 5075 19 5075 19 5562 0 
L 5562 192 
L 5261 211 
C 5043 223 5024 268 5024 670 
L 5024 1985 
C 5024 2617 4653 3014 4064 3014 
C 3840 3014 3654 2956 3539 2854 
L 3053 2419 
C 2848 2841 2586 3014 2144 3014 
C 1907 3014 1728 2956 1613 2854 
L 1171 2445 
L 1171 2988 
L 1114 3008 
C 787 2873 454 2783 115 2745 
L 115 2579 
z
" transform="scale(0.015625)"/>
       <path id="URWPalladioL-Roma-65" d="M 2797 447 
L 2714 511 
C 2304 268 2157 211 1882 211 
C 1466 211 1120 396 941 710 
C 819 921 774 1100 762 1472 
L 1696 1472 
C 2138 1472 2413 1491 2854 1561 
C 2861 1651 2867 1708 2867 1786 
C 2867 2526 2394 3008 1677 3008 
C 1440 3008 1165 2924 902 2771 
C 378 2468 166 2069 166 1401 
C 166 998 262 652 435 409 
C 691 70 1120 -128 1600 -128 
C 1837 -128 2074 -77 2336 38 
C 2509 108 2643 192 2669 230 
L 2797 447 
z
M 2298 1708 
C 1965 1696 1811 1689 1581 1689 
C 1286 1689 1120 1696 774 1728 
C 774 2030 800 2172 883 2339 
C 1018 2623 1293 2796 1600 2796 
C 1811 2796 1978 2713 2093 2539 
C 2234 2326 2278 2140 2298 1708 
z
" transform="scale(0.015625)"/>
       <path id="URWPalladioL-Ital-74" d="M 800 2489 
L 442 678 
C 435 633 429 620 410 544 
C 371 364 358 268 358 192 
C 358 32 429 -64 550 -64 
C 774 -64 998 64 1498 467 
L 1594 544 
L 1696 627 
L 1632 742 
L 1344 544 
C 1158 416 1030 352 960 352 
C 902 352 870 403 870 480 
C 870 646 960 1164 1146 2092 
L 1229 2489 
L 1914 2489 
L 1984 2809 
C 1741 2784 1523 2771 1280 2771 
C 1382 3373 1453 3686 1568 4032 
L 1498 4128 
C 1370 4051 1197 3974 998 3897 
L 838 2809 
C 557 2675 390 2604 275 2572 
L 262 2489 
L 800 2489 
z
" transform="scale(0.015625)"/>
       <path id="URWPalladioL-Roma-5b" d="M 563 -1178 
C 1018 -1166 1030 -1166 1184 -1166 
C 1338 -1166 1370 -1166 1805 -1178 
L 1843 -1140 
L 1843 -974 
L 1818 -942 
L 1574 -942 
C 1402 -942 1261 -903 1184 -839 
C 1126 -782 1107 -692 1107 -481 
C 1107 -474 1107 -340 1101 -148 
L 1101 89 
L 1101 3379 
L 1101 3615 
C 1107 3795 1107 3935 1107 3942 
C 1107 4153 1126 4249 1184 4307 
C 1261 4371 1402 4409 1574 4409 
L 1818 4409 
L 1843 4441 
L 1843 4608 
L 1805 4646 
C 1357 4633 1338 4633 1184 4633 
C 1037 4633 1005 4633 563 4646 
L 506 4563 
C 544 4403 557 4191 557 3699 
C 557 3603 557 3526 563 3462 
L 563 3379 
L 563 89 
L 563 6 
C 557 -97 557 -103 557 -212 
L 557 -282 
C 557 -718 544 -897 506 -1095 
L 563 -1178 
z
" transform="scale(0.015625)"/>
       <path id="URWPalladioL-Roma-73" d="M 262 917 
C 262 474 243 282 192 25 
C 525 -84 774 -128 1069 -128 
C 1907 -128 2502 320 2502 949 
C 2502 1148 2445 1295 2323 1423 
C 2157 1584 1946 1661 1382 1770 
C 858 1872 685 2001 685 2296 
C 685 2617 909 2796 1299 2796 
C 1728 2796 2054 2572 2054 2270 
L 2054 2123 
L 2234 2123 
C 2240 2495 2246 2649 2266 2847 
C 1926 2963 1696 3008 1434 3008 
C 691 3008 237 2655 237 2078 
C 237 1770 378 1552 672 1417 
C 845 1340 1184 1237 1619 1141 
C 1907 1077 2029 942 2029 698 
C 2029 352 1709 108 1254 108 
C 787 108 454 333 454 654 
L 454 917 
L 262 917 
z
" transform="scale(0.015625)"/>
       <path id="URWPalladioL-Roma-63" d="M 2554 1995 
C 2554 2290 2586 2553 2643 2783 
C 2387 2937 2163 3008 1901 3008 
C 1594 3008 1235 2886 851 2643 
C 403 2360 166 1911 166 1347 
C 166 480 774 -128 1632 -128 
C 1965 -128 2445 -7 2509 89 
L 2643 294 
L 2579 390 
C 2342 262 2138 204 1907 204 
C 1197 204 730 756 730 1603 
C 730 2290 1050 2675 1626 2675 
C 1907 2675 2214 2547 2330 2386 
L 2374 1995 
L 2554 1995 
z
" transform="scale(0.015625)"/>
       <path id="URWPalladioL-Roma-6f" d="M 1786 3008 
C 851 3008 205 2347 205 1391 
C 205 487 774 -128 1600 -128 
C 2586 -128 3290 557 3290 1520 
C 3290 2386 2662 3008 1786 3008 
z
M 1670 2796 
C 2259 2796 2694 2155 2694 1282 
C 2694 545 2368 83 1850 83 
C 1222 83 800 699 800 1609 
C 800 2379 1107 2796 1670 2796 
z
" transform="scale(0.015625)"/>
       <path id="URWPalladioL-Roma-6e" d="M 2624 0 
C 3014 0 3021 0 3130 0 
C 3219 19 3219 19 3661 0 
L 3661 192 
L 3398 211 
C 3181 223 3162 262 3162 670 
L 3162 1902 
C 3162 2649 2810 3014 2093 3014 
C 1856 3014 1722 2969 1587 2854 
L 1101 2432 
L 1101 2988 
L 1043 3008 
C 717 2873 384 2784 45 2746 
L 45 2568 
L 282 2568 
C 538 2568 563 2523 563 2103 
L 563 669 
C 563 268 544 223 326 211 
L 38 192 
L 38 0 
C 474 -7 646 0 832 0 
C 1018 19 1190 12 1626 0 
L 1626 192 
L 1338 211 
C 1120 223 1101 268 1101 670 
L 1101 2023 
C 1101 2311 1523 2624 1914 2624 
C 2342 2624 2624 2304 2624 1813 
L 2624 0 
z
" transform="scale(0.015625)"/>
       <path id="URWPalladioL-Roma-64" d="M 2637 2803 
C 2278 2956 2099 3008 1875 3008 
C 1702 3008 1549 2969 1389 2886 
L 826 2592 
C 461 2400 224 1934 224 1392 
C 224 881 397 460 710 204 
C 928 19 1229 -64 1645 -64 
C 1773 -64 1920 -39 1952 -13 
L 2662 581 
L 2630 0 
C 2944 -7 3046 0 3123 0 
C 3174 0 3264 0 3398 -7 
C 3443 6 3571 6 3706 0 
L 3706 192 
L 3411 211 
C 3194 224 3174 268 3174 672 
L 3174 4614 
L 3117 4665 
C 2835 4557 2624 4505 2118 4429 
L 2118 4249 
L 2477 4249 
C 2592 4249 2637 4179 2637 3987 
L 2637 2803 
z
M 2637 1424 
C 2637 1009 2624 945 2541 798 
C 2362 498 2048 300 1747 300 
C 1184 300 781 843 781 1602 
C 781 2298 1126 2707 1702 2707 
C 1946 2707 2202 2624 2426 2470 
C 2560 2381 2637 2298 2637 2247 
L 2637 1424 
z
" transform="scale(0.015625)"/>
       <path id="URWPalladioL-Roma-5d" d="M 1568 4646 
C 1114 4633 1094 4633 947 4633 
C 794 4633 762 4633 326 4646 
L 288 4608 
L 288 4441 
L 314 4409 
L 557 4409 
C 730 4409 864 4371 941 4307 
C 1005 4249 1024 4159 1024 3942 
C 1024 3923 1024 3795 1030 3615 
L 1030 3379 
L 1030 89 
L 1030 -148 
C 1024 -334 1024 -449 1024 -468 
C 1024 -686 1005 -782 941 -839 
C 864 -903 730 -942 557 -942 
L 314 -942 
L 288 -974 
L 288 -1140 
L 326 -1178 
C 774 -1166 787 -1166 947 -1166 
C 1094 -1166 1126 -1166 1568 -1178 
L 1626 -1095 
C 1587 -942 1581 -743 1574 -250 
C 1574 -161 1574 -78 1568 6 
L 1568 89 
L 1568 3379 
L 1568 3462 
C 1574 3532 1574 3615 1574 3705 
C 1574 4198 1587 4409 1626 4563 
L 1568 4646 
z
" transform="scale(0.015625)"/>
      </defs>
      <use xlink:href="#URWPalladioL-Roma-54" transform="scale(0.996264)"/>
      <use xlink:href="#URWPalladioL-Roma-69" transform="translate(55.591109 0)scale(0.996264)"/>
      <use xlink:href="#URWPalladioL-Roma-6d" transform="translate(84.581471 0)scale(0.996264)"/>
      <use xlink:href="#URWPalladioL-Roma-65" transform="translate(172.551145 0)scale(0.996264)"/>
      <use xlink:href="#URWPalladioL-Ital-74" transform="translate(246.42334 0)scale(0.996264)"/>
      <use xlink:href="#URWPalladioL-Roma-5b" transform="translate(305.749922 0)scale(0.996264)"/>
      <use xlink:href="#URWPalladioL-Roma-73" transform="translate(338.925152 0)scale(0.996264)"/>
      <use xlink:href="#URWPalladioL-Roma-65" transform="translate(381.166618 0)scale(0.996264)"/>
      <use xlink:href="#URWPalladioL-Roma-63" transform="translate(428.886913 0)scale(0.996264)"/>
      <use xlink:href="#URWPalladioL-Roma-6f" transform="translate(473.120482 0)scale(0.996264)"/>
      <use xlink:href="#URWPalladioL-Roma-6e" transform="translate(527.516062 0)scale(0.996264)"/>
      <use xlink:href="#URWPalladioL-Roma-64" transform="translate(585.498123 0)scale(0.996264)"/>
      <use xlink:href="#URWPalladioL-Roma-73" transform="translate(646.369754 0)scale(0.996264)"/>
      <use xlink:href="#URWPalladioL-Roma-5d" transform="translate(688.61122 0)scale(0.996264)"/>
     </g>
    </g>
   </g>
   <g id="matplotlib.axis_2">
    <g id="ytick_1">
     <g id="line2d_21">
      <path d="M 41.145691 95.718499 
L 564.995286 95.718499 
" clip-path="url(#p5b20f8233a)" style="fill: none; stroke: #000000; stroke-opacity: 0.2; stroke-width: 0.5; stroke-linecap: round"/>
     </g>
     <g id="line2d_22">
      <defs>
       <path id="mc4aa7f0df1" d="M 0 0 
L -3.5 0 
" style="stroke: #000000; stroke-opacity: 0.2; stroke-width: 0.5"/>
      </defs>
      <g>
       <use xlink:href="#mc4aa7f0df1" x="41.145691" y="95.718499" style="fill-opacity: 0.2; stroke: #000000; stroke-opacity: 0.2; stroke-width: 0.5"/>
      </g>
     </g>
     <g id="text_12">
      <!-- $\mathdefault{−1}$ -->
      <g transform="translate(7.2 100.708264)scale(0.14 -0.14)">
       <defs>
        <path id="CMSY10-0" d="M 4218 1472 
C 4326 1472 4442 1472 4442 1600 
C 4442 1728 4326 1728 4218 1728 
L 755 1728 
C 646 1728 531 1728 531 1600 
C 531 1472 646 1472 755 1472 
L 4218 1472 
z
" transform="scale(0.015625)"/>
       </defs>
       <use xlink:href="#CMSY10-0" transform="scale(1.038107)"/>
       <use xlink:href="#URWPalladioL-Roma-31" transform="translate(81.941696 0)scale(0.996264)"/>
      </g>
     </g>
    </g>
    <g id="ytick_2">
     <g id="line2d_23">
      <path d="M 41.145691 53.954132 
L 564.995286 53.954132 
" clip-path="url(#p5b20f8233a)" style="fill: none; stroke: #000000; stroke-opacity: 0.2; stroke-width: 0.5; stroke-linecap: round"/>
     </g>
     <g id="line2d_24">
      <g>
       <use xlink:href="#mc4aa7f0df1" x="41.145691" y="53.954132" style="fill-opacity: 0.2; stroke: #000000; stroke-opacity: 0.2; stroke-width: 0.5"/>
      </g>
     </g>
     <g id="text_13">
      <!-- $\mathdefault{0}$ -->
      <g transform="translate(18.671843 58.943897)scale(0.14 -0.14)">
       <use xlink:href="#URWPalladioL-Roma-30" transform="scale(0.996264)"/>
      </g>
     </g>
    </g>
    <g id="ytick_3">
     <g id="line2d_25">
      <path d="M 41.145691 12.189765 
L 564.995286 12.189765 
" clip-path="url(#p5b20f8233a)" style="fill: none; stroke: #000000; stroke-opacity: 0.2; stroke-width: 0.5; stroke-linecap: round"/>
     </g>
     <g id="line2d_26">
      <g>
       <use xlink:href="#mc4aa7f0df1" x="41.145691" y="12.189765" style="fill-opacity: 0.2; stroke: #000000; stroke-opacity: 0.2; stroke-width: 0.5"/>
      </g>
     </g>
     <g id="text_14">
      <!-- $\mathdefault{1}$ -->
      <g transform="translate(18.671843 17.179529)scale(0.14 -0.14)">
       <use xlink:href="#URWPalladioL-Roma-31" transform="scale(0.996264)"/>
      </g>
     </g>
    </g>
   </g>
   <g id="line2d_27">
    <path d="M 41.145691 12.189765 
L 42.076979 12.308421 
L 43.008267 12.663717 
L 43.939555 13.253634 
L 44.870843 14.074818 
L 45.802132 15.122605 
L 47.199064 17.105797 
L 48.595996 19.559814 
L 49.992928 22.4533 
L 51.855505 26.930249 
L 53.718081 32.020546 
L 56.046301 39.068815 
L 59.30581 49.762588 
L 65.359183 69.815366 
L 67.687404 76.773946 
L 69.54998 81.769696 
L 71.412556 86.13413 
L 72.809488 88.932961 
L 74.206421 91.284854 
L 75.603353 93.159758 
L 76.534641 94.132609 
L 77.465929 94.877158 
L 78.397217 95.389175 
L 79.328506 95.665749 
L 80.259794 95.70531 
L 81.191082 95.507632 
L 82.12237 95.073838 
L 83.053658 94.406395 
L 83.984947 93.509093 
L 85.381879 91.743661 
L 86.778811 89.495378 
L 88.175743 86.792971 
L 89.572676 83.670969 
L 91.435252 78.925255 
L 93.763472 72.209995 
L 96.557337 63.320658 
L 105.404574 34.29548 
L 107.732795 27.738999 
L 109.595371 23.152363 
L 110.992303 20.166049 
L 112.389236 17.611458 
L 113.786168 15.521231 
L 115.1831 13.922076 
L 116.114388 13.139147 
L 117.045677 12.588137 
L 117.976965 12.272177 
L 118.908253 12.193062 
L 119.839541 12.351242 
L 120.770829 12.745818 
L 121.702117 13.374547 
L 122.633406 14.233858 
L 123.564694 15.318868 
L 124.961626 17.355738 
L 126.358558 19.86024 
L 127.75549 22.800372 
L 129.618067 27.332522 
L 131.480643 32.46889 
L 133.808864 39.560338 
L 137.068372 50.285082 
L 142.656101 68.839449 
L 144.984322 75.887718 
L 146.846898 80.978015 
L 148.709474 85.454964 
L 150.106407 88.34845 
L 151.503339 90.802467 
L 152.900271 92.785659 
L 154.297203 94.272685 
L 155.228491 94.978738 
L 156.15978 95.45168 
L 157.091068 95.688825 
L 158.022356 95.688825 
L 158.953644 95.45168 
L 159.884932 94.978738 
L 160.81622 94.272685 
L 161.747509 93.337535 
L 163.144441 91.517223 
L 164.541373 89.216954 
L 165.938305 86.466117 
L 167.800882 82.158979 
L 169.663458 77.21169 
L 171.991678 70.299606 
L 174.785543 61.263859 
L 182.235848 36.647998 
L 184.564069 29.832173 
L 186.426645 24.984141 
L 188.289221 20.793625 
L 189.686154 18.140074 
L 191.083086 15.944132 
L 192.480018 14.233858 
L 193.411306 13.374547 
L 194.342595 12.745818 
L 195.273883 12.351242 
L 196.205171 12.193062 
L 197.136459 12.272177 
L 198.067747 12.588137 
L 198.999035 13.139147 
L 199.930324 13.922076 
L 200.861612 14.932475 
L 202.258544 16.861675 
L 203.655476 19.26482 
L 205.052408 22.111203 
L 206.914985 26.532243 
L 208.777561 31.575665 
L 211.105782 38.579643 
L 214.36529 49.240756 
L 220.418663 69.328621 
L 222.746884 76.332599 
L 224.60946 81.376021 
L 226.472036 85.797061 
L 227.868969 88.643444 
L 229.265901 91.046589 
L 230.662833 92.975789 
L 231.594121 93.986188 
L 232.525409 94.769117 
L 233.456698 95.320127 
L 234.387986 95.636087 
L 235.319274 95.715202 
L 236.250562 95.557022 
L 237.18185 95.162446 
L 238.113138 94.533717 
L 239.044427 93.674406 
L 239.975715 92.589396 
L 241.372647 90.552526 
L 242.769579 88.048024 
L 244.166512 85.107892 
L 246.029088 80.575742 
L 247.891664 75.439374 
L 250.219885 68.347926 
L 253.479393 57.623182 
L 259.067122 39.068815 
L 261.395343 32.020546 
L 263.257919 26.930249 
L 265.120495 22.4533 
L 266.517428 19.559814 
L 267.91436 17.105797 
L 269.311292 15.122605 
L 270.708224 13.635579 
L 271.639513 12.929526 
L 272.570801 12.456584 
L 273.502089 12.219439 
L 274.433377 12.219439 
L 275.364665 12.456584 
L 276.295953 12.929526 
L 277.227242 13.635579 
L 278.15853 14.570729 
L 279.555462 16.391041 
L 280.952394 18.69131 
L 282.349327 21.442146 
L 284.211903 25.749284 
L 286.074479 30.696574 
L 288.4027 37.608658 
L 291.196564 46.644405 
L 298.646869 71.260266 
L 300.97509 78.076091 
L 302.837666 82.924123 
L 304.700243 87.114639 
L 306.097175 89.76819 
L 307.494107 91.964132 
L 308.891039 93.674406 
L 309.822328 94.533717 
L 310.753616 95.162446 
L 311.684904 95.557022 
L 312.616192 95.715202 
L 313.54748 95.636087 
L 314.478768 95.320127 
L 315.410057 94.769117 
L 316.341345 93.986188 
L 317.272633 92.975789 
L 318.669565 91.046589 
L 320.066497 88.643444 
L 321.46343 85.797061 
L 323.326006 81.376021 
L 325.188582 76.332599 
L 327.516803 69.328621 
L 330.776311 58.667507 
L 336.829684 38.579643 
L 339.157905 31.575665 
L 341.020481 26.532243 
L 342.883058 22.111203 
L 344.27999 19.26482 
L 345.676922 16.861675 
L 347.073854 14.932475 
L 348.005142 13.922076 
L 348.936431 13.139147 
L 349.867719 12.588137 
L 350.799007 12.272177 
L 351.730295 12.193062 
L 352.661583 12.351242 
L 353.592871 12.745818 
L 354.52416 13.374547 
L 355.455448 14.233858 
L 356.386736 15.318868 
L 357.783668 17.355738 
L 359.1806 19.86024 
L 360.577533 22.800372 
L 362.440109 27.332522 
L 364.302685 32.46889 
L 366.630906 39.560338 
L 369.890414 50.285082 
L 375.478143 68.839449 
L 377.806364 75.887718 
L 379.66894 80.978015 
L 381.531517 85.454964 
L 382.928449 88.34845 
L 384.325381 90.802467 
L 385.722313 92.785659 
L 387.119246 94.272685 
L 388.050534 94.978738 
L 388.981822 95.45168 
L 389.91311 95.688825 
L 390.844398 95.688825 
L 391.775686 95.45168 
L 392.706975 94.978738 
L 393.638263 94.272685 
L 394.569551 93.337535 
L 395.966483 91.517223 
L 397.363415 89.216954 
L 398.760348 86.466117 
L 400.622924 82.158979 
L 402.4855 77.21169 
L 404.813721 70.299606 
L 407.607585 61.263859 
L 415.057891 36.647998 
L 417.386111 29.832173 
L 419.248687 24.984141 
L 421.111264 20.793625 
L 422.508196 18.140074 
L 423.905128 15.944132 
L 425.302061 14.233858 
L 426.233349 13.374547 
L 427.164637 12.745818 
L 428.095925 12.351242 
L 429.027213 12.193062 
L 429.958501 12.272177 
L 430.88979 12.588137 
L 431.821078 13.139147 
L 432.752366 13.922076 
L 433.683654 14.932475 
L 435.080586 16.861675 
L 436.477519 19.26482 
L 437.874451 22.111203 
L 439.737027 26.532243 
L 441.599603 31.575665 
L 443.927824 38.579643 
L 447.187332 49.240756 
L 453.240706 69.328621 
L 455.568926 76.332599 
L 457.431502 81.376021 
L 459.294079 85.797061 
L 460.691011 88.643444 
L 462.087943 91.046589 
L 463.484875 92.975789 
L 464.416164 93.986188 
L 465.347452 94.769117 
L 466.27874 95.320127 
L 467.210028 95.636087 
L 468.141316 95.715202 
L 469.072604 95.557022 
L 470.003893 95.162446 
L 470.935181 94.533717 
L 471.866469 93.674406 
L 472.797757 92.589396 
L 474.194689 90.552526 
L 475.591622 88.048024 
L 476.988554 85.107892 
L 478.85113 80.575742 
L 480.713707 75.439374 
L 483.041927 68.347926 
L 486.301436 57.623182 
L 491.889165 39.068815 
L 494.217385 32.020546 
L 496.079961 26.930249 
L 497.942538 22.4533 
L 499.33947 19.559814 
L 500.736402 17.105797 
L 502.133334 15.122605 
L 503.530267 13.635579 
L 504.461555 12.929526 
L 505.392843 12.456584 
L 506.324131 12.219439 
L 507.255419 12.219439 
L 508.186708 12.456584 
L 509.117996 12.929526 
L 510.049284 13.635579 
L 510.980572 14.570729 
L 512.377504 16.391041 
L 513.774437 18.69131 
L 515.171369 21.442146 
L 517.033945 25.749284 
L 518.896522 30.696574 
L 521.224742 37.608658 
L 524.018606 46.644405 
L 531.468912 71.260266 
L 533.797132 78.076091 
L 535.659709 82.924123 
L 537.522285 87.114639 
L 538.919217 89.76819 
L 540.316149 91.964132 
L 541.713082 93.674406 
L 542.64437 94.533717 
L 543.575658 95.162446 
L 544.506946 95.557022 
L 545.438234 95.715202 
L 546.369522 95.636087 
L 547.300811 95.320127 
L 548.232099 94.769117 
L 549.163387 93.986188 
L 550.094675 92.975789 
L 551.491607 91.046589 
L 552.88854 88.643444 
L 554.285472 85.797061 
L 556.148048 81.376021 
L 558.010625 76.332599 
L 560.338845 69.328621 
L 563.598354 58.667507 
L 565.46093 52.380025 
L 565.46093 52.380025 
" clip-path="url(#p5b20f8233a)" style="fill: none; stroke: #0271ae; stroke-width: 2; stroke-linecap: round"/>
   </g>
  </g>
 </g>
 <defs>
  <clipPath id="p5b20f8233a">
   <rect x="41.145691" y="8.013328" width="523.849595" height="91.881608"/>
  </clipPath>
 </defs>
</svg>