<?xml version="1.0" encoding="utf-8" standalone="no"?>
<!DOCTYPE svg PUBLIC "-//W3C//DTD SVG 1.1//EN"
  "http://www.w3.org/Graphics/SVG/1.1/DTD/svg11.dtd">
<svg xmlns:xlink="http://www.w3.org/1999/xlink" width="584.39952pt" height="296.39952pt" viewBox="0 0 584.39952 296.39952" xmlns="http://www.w3.org/2000/svg" version="1.1">
 <metadata>
  <rdf:RDF xmlns:dc="http://purl.org/dc/elements/1.1/" xmlns:cc="http://creativecommons.org/ns#" xmlns:rdf="http://www.w3.org/1999/02/22-rdf-syntax-ns#">
   <cc:Work>
    <dc:type rdf:resource="http://purl.org/dc/dcmitype/StillImage"/>
    <dc:date>2022-07-26T12:36:37.829153</dc:date>
    <dc:format>image/svg+xml</dc:format>
    <dc:creator>
     <cc:Agent>
      <dc:title>Matplotlib v3.5.2, https://matplotlib.org/</dc:title>
     </cc:Agent>
    </dc:creator>
   </cc:Work>
  </rdf:RDF>
 </metadata>
 <defs>
  <style type="text/css">*{stroke-linejoin: round; stroke-linecap: butt}</style>
 </defs>
 <g id="figure_1">
  <g id="patch_1">
   <path d="M 0 296.39952 
L 584.39952 296.39952 
L 584.39952 0 
L 0 0 
L 0 296.39952 
z
" style="fill: none"/>
  </g>
  <g id="axes_1">
   <g id="patch_2">
    <path d="M 41.145691 96.514398 
L 215.82998 96.514398 
L 215.82998 23.179529 
L 41.145691 23.179529 
L 41.145691 96.514398 
z
" style="fill: none"/>
   </g>
   <g id="matplotlib.axis_1"/>
   <g id="matplotlib.axis_2">
    <g id="ytick_1">
     <g id="line2d_1">
      <path d="M 41.145691 93.180995 
L 215.82998 93.180995 
" clip-path="url(#p60a3800e23)" style="fill: none; stroke: #000000; stroke-opacity: 0.2; stroke-width: 0.5; stroke-linecap: round"/>
     </g>
     <g id="line2d_2">
      <defs>
       <path id="mca0c9c8841" d="M 0 0 
L -3.5 0 
" style="stroke: #000000; stroke-opacity: 0.2; stroke-width: 0.5"/>
      </defs>
      <g>
       <use xlink:href="#mca0c9c8841" x="41.145691" y="93.180995" style="fill-opacity: 0.2; stroke: #000000; stroke-opacity: 0.2; stroke-width: 0.5"/>
      </g>
     </g>
     <g id="text_1">
      <!-- $\mathdefault{−1}$ -->
      <g transform="translate(7.2 98.170759)scale(0.14 -0.14)">
       <defs>
        <path id="CMSY10-0" d="M 4218 1472 
C 4326 1472 4442 1472 4442 1600 
C 4442 1728 4326 1728 4218 1728 
L 755 1728 
C 646 1728 531 1728 531 1600 
C 531 1472 646 1472 755 1472 
L 4218 1472 
z
" transform="scale(0.015625)"/>
        <path id="URWPalladioL-Roma-31" d="M 429 3571 
L 493 3571 
L 1318 3942 
C 1325 3949 1331 3949 1338 3949 
C 1376 3949 1389 3891 1389 3737 
L 1389 633 
C 1389 300 1318 230 973 211 
L 614 192 
L 614 0 
C 1600 0 1600 0 1670 0 
C 1754 0 1894 0 2112 -7 
C 2189 6 2413 6 2675 0 
L 2675 192 
L 2342 211 
C 1990 229 1926 299 1926 628 
L 1926 4383 
L 1837 4416 
C 1421 4199 966 4009 384 3807 
L 429 3571 
z
" transform="scale(0.015625)"/>
       </defs>
       <use xlink:href="#CMSY10-0" transform="scale(1.038107)"/>
       <use xlink:href="#URWPalladioL-Roma-31" transform="translate(81.941696 0)scale(0.996264)"/>
      </g>
     </g>
    </g>
    <g id="ytick_2">
     <g id="line2d_3">
      <path d="M 41.145691 59.846964 
L 215.82998 59.846964 
" clip-path="url(#p60a3800e23)" style="fill: none; stroke: #000000; stroke-opacity: 0.2; stroke-width: 0.5; stroke-linecap: round"/>
     </g>
     <g id="line2d_4">
      <g>
       <use xlink:href="#mca0c9c8841" x="41.145691" y="59.846964" style="fill-opacity: 0.2; stroke: #000000; stroke-opacity: 0.2; stroke-width: 0.5"/>
      </g>
     </g>
     <g id="text_2">
      <!-- $\mathdefault{0}$ -->
      <g transform="translate(18.671843 64.836728)scale(0.14 -0.14)">
       <defs>
        <path id="URWPalladioL-Roma-30" d="M 1683 4416 
C 691 4416 186 3628 186 2076 
C 186 1326 320 679 544 365 
C 768 51 1126 -128 1523 -128 
C 2490 -128 2976 704 2976 2345 
C 2976 3749 2560 4416 1683 4416 
z
M 1568 4191 
C 2189 4191 2438 3563 2438 2025 
C 2438 660 2195 96 1606 96 
C 986 96 723 743 723 2307 
C 723 3660 960 4191 1568 4191 
z
" transform="scale(0.015625)"/>
       </defs>
       <use xlink:href="#URWPalladioL-Roma-30" transform="scale(0.996264)"/>
      </g>
     </g>
    </g>
    <g id="ytick_3">
     <g id="line2d_5">
      <path d="M 41.145691 26.512932 
L 215.82998 26.512932 
" clip-path="url(#p60a3800e23)" style="fill: none; stroke: #000000; stroke-opacity: 0.2; stroke-width: 0.5; stroke-linecap: round"/>
     </g>
     <g id="line2d_6">
      <g>
       <use xlink:href="#mca0c9c8841" x="41.145691" y="26.512932" style="fill-opacity: 0.2; stroke: #000000; stroke-opacity: 0.2; stroke-width: 0.5"/>
      </g>
     </g>
     <g id="text_3">
      <!-- $\mathdefault{1}$ -->
      <g transform="translate(18.671843 31.502697)scale(0.14 -0.14)">
       <use xlink:href="#URWPalladioL-Roma-31" transform="scale(0.996264)"/>
      </g>
     </g>
    </g>
   </g>
   <g id="line2d_7">
    <path d="M 49.085886 26.512932 
L 57.026081 26.512932 
L 57.026081 59.846964 
L 64.966276 59.846964 
L 64.966276 59.846964 
L 72.906471 59.846964 
L 72.906471 59.846964 
L 80.846666 59.846964 
L 80.846666 59.846964 
L 88.786861 59.846964 
L 88.786861 59.846964 
L 96.727056 59.846964 
L 96.727056 59.846964 
L 104.667251 59.846964 
L 104.667251 59.846964 
L 112.607446 59.846964 
L 112.607446 59.846964 
L 120.547641 59.846964 
L 120.547641 59.846964 
L 128.487836 59.846964 
L 128.487836 59.846964 
L 136.428031 59.846964 
L 136.428031 59.846964 
L 144.368226 59.846964 
L 144.368226 59.846964 
L 152.308421 59.846964 
L 152.308421 59.846964 
L 160.248616 59.846964 
L 160.248616 59.846964 
L 168.188811 59.846964 
L 168.188811 59.846964 
L 176.129006 59.846964 
L 176.129006 59.846964 
L 184.069201 59.846964 
L 184.069201 59.846964 
L 192.009396 59.846964 
L 192.009396 59.846964 
L 199.949591 59.846964 
L 199.949591 59.846964 
" clip-path="url(#p60a3800e23)" style="fill: none; stroke: #0271ae; stroke-width: 2; stroke-linecap: round"/>
    <defs>
     <path id="mab5655f87b" d="M 0 3.5 
C 0.928211 3.5 1.81853 3.131218 2.474874 2.474874 
C 3.131218 1.81853 3.5 0.928211 3.5 0 
C 3.5 -0.928211 3.131218 -1.81853 2.474874 -2.474874 
C 1.81853 -3.131218 0.928211 -3.5 0 -3.5 
C -0.928211 -3.5 -1.81853 -3.131218 -2.474874 -2.474874 
C -3.131218 -1.81853 -3.5 -0.928211 -3.5 0 
C -3.5 0.928211 -3.131218 1.81853 -2.474874 2.474874 
C -1.81853 3.131218 -0.928211 3.5 0 3.5 
z
" style="stroke: #fefefa; stroke-width: 1.5"/>
    </defs>
    <g clip-path="url(#p60a3800e23)">
     <use xlink:href="#mab5655f87b" x="49.085886" y="26.512932" style="fill: #0271ae; stroke: #fefefa; stroke-width: 1.5"/>
     <use xlink:href="#mab5655f87b" x="57.026081" y="59.846964" style="fill: #0271ae; stroke: #fefefa; stroke-width: 1.5"/>
     <use xlink:href="#mab5655f87b" x="64.966276" y="59.846964" style="fill: #0271ae; stroke: #fefefa; stroke-width: 1.5"/>
     <use xlink:href="#mab5655f87b" x="72.906471" y="59.846964" style="fill: #0271ae; stroke: #fefefa; stroke-width: 1.5"/>
     <use xlink:href="#mab5655f87b" x="80.846666" y="59.846964" style="fill: #0271ae; stroke: #fefefa; stroke-width: 1.5"/>
     <use xlink:href="#mab5655f87b" x="88.786861" y="59.846964" style="fill: #0271ae; stroke: #fefefa; stroke-width: 1.5"/>
     <use xlink:href="#mab5655f87b" x="96.727056" y="59.846964" style="fill: #0271ae; stroke: #fefefa; stroke-width: 1.5"/>
     <use xlink:href="#mab5655f87b" x="104.667251" y="59.846964" style="fill: #0271ae; stroke: #fefefa; stroke-width: 1.5"/>
     <use xlink:href="#mab5655f87b" x="112.607446" y="59.846964" style="fill: #0271ae; stroke: #fefefa; stroke-width: 1.5"/>
     <use xlink:href="#mab5655f87b" x="120.547641" y="59.846964" style="fill: #0271ae; stroke: #fefefa; stroke-width: 1.5"/>
     <use xlink:href="#mab5655f87b" x="128.487836" y="59.846964" style="fill: #0271ae; stroke: #fefefa; stroke-width: 1.5"/>
     <use xlink:href="#mab5655f87b" x="136.428031" y="59.846964" style="fill: #0271ae; stroke: #fefefa; stroke-width: 1.5"/>
     <use xlink:href="#mab5655f87b" x="144.368226" y="59.846964" style="fill: #0271ae; stroke: #fefefa; stroke-width: 1.5"/>
     <use xlink:href="#mab5655f87b" x="152.308421" y="59.846964" style="fill: #0271ae; stroke: #fefefa; stroke-width: 1.5"/>
     <use xlink:href="#mab5655f87b" x="160.248616" y="59.846964" style="fill: #0271ae; stroke: #fefefa; stroke-width: 1.5"/>
     <use xlink:href="#mab5655f87b" x="168.188811" y="59.846964" style="fill: #0271ae; stroke: #fefefa; stroke-width: 1.5"/>
     <use xlink:href="#mab5655f87b" x="176.129006" y="59.846964" style="fill: #0271ae; stroke: #fefefa; stroke-width: 1.5"/>
     <use xlink:href="#mab5655f87b" x="184.069201" y="59.846964" style="fill: #0271ae; stroke: #fefefa; stroke-width: 1.5"/>
     <use xlink:href="#mab5655f87b" x="192.009396" y="59.846964" style="fill: #0271ae; stroke: #fefefa; stroke-width: 1.5"/>
     <use xlink:href="#mab5655f87b" x="199.949591" y="59.846964" style="fill: #0271ae; stroke: #fefefa; stroke-width: 1.5"/>
    </g>
   </g>
   <g id="text_4">
    <!-- Time domain -->
    <g transform="translate(87.523813 17.179529)scale(0.14 -0.14)">
     <defs>
      <path id="URWPalladioL-Roma-54" d="M 1632 4096 
C 1651 3880 1658 3734 1658 3462 
L 1658 781 
C 1658 280 1626 230 1331 211 
L 1024 192 
L 1024 0 
C 1402 -7 1626 0 1958 0 
C 2291 19 2522 12 2899 0 
L 2899 192 
L 2592 211 
C 2298 230 2266 280 2266 781 
L 2266 3462 
C 2266 3747 2272 3887 2291 4096 
L 3283 4096 
C 3462 4096 3533 4039 3539 3887 
L 3565 3386 
L 3763 3386 
C 3763 3801 3776 4051 3808 4416 
C 3347 4409 3136 4409 2957 4403 
C 2707 4390 2522 4390 2426 4390 
L 1414 4390 
C 1350 4390 1005 4396 550 4403 
L 115 4416 
C 147 4051 160 3801 160 3385 
L 358 3385 
L 384 3891 
C 390 4038 461 4096 640 4096 
L 1632 4096 
z
" transform="scale(0.015625)"/>
      <path id="URWPalladioL-Roma-69" d="M 1203 2982 
L 1146 3008 
C 819 2873 486 2784 147 2746 
L 147 2568 
L 384 2568 
C 640 2568 666 2523 666 2103 
L 666 669 
C 666 268 646 223 429 211 
L 134 192 
L 134 0 
C 774 0 774 0 934 0 
C 1094 19 1094 19 1734 0 
L 1734 192 
L 1440 211 
C 1222 224 1203 268 1203 671 
L 1203 2982 
z
M 909 4416 
C 717 4416 550 4249 550 4057 
C 550 3871 717 3705 902 3705 
C 1088 3705 1261 3871 1261 4057 
C 1261 4236 1088 4416 909 4416 
z
" transform="scale(0.015625)"/>
      <path id="URWPalladioL-Roma-6d" d="M 115 2579 
L 352 2579 
C 608 2579 634 2534 634 2112 
L 634 672 
C 634 268 614 224 397 211 
L 102 192 
L 102 0 
C 717 0 736 0 915 0 
C 1094 19 1261 12 1677 0 
L 1677 192 
L 1408 211 
C 1190 223 1171 268 1171 670 
L 1171 2023 
C 1171 2311 1594 2624 1978 2624 
C 2323 2624 2560 2298 2560 1813 
L 2560 670 
C 2560 268 2541 223 2323 211 
L 2029 192 
L 2029 0 
C 2669 0 2669 0 2829 0 
C 2989 19 2989 19 3629 0 
L 3629 192 
L 3334 211 
C 3117 223 3098 268 3098 670 
L 3098 2023 
C 3098 2311 3520 2624 3904 2624 
C 4250 2624 4486 2298 4486 1813 
L 4486 0 
C 4877 0 4883 0 4992 0 
C 5075 19 5075 19 5562 0 
L 5562 192 
L 5261 211 
C 5043 223 5024 268 5024 670 
L 5024 1985 
C 5024 2617 4653 3014 4064 3014 
C 3840 3014 3654 2956 3539 2854 
L 3053 2419 
C 2848 2841 2586 3014 2144 3014 
C 1907 3014 1728 2956 1613 2854 
L 1171 2445 
L 1171 2988 
L 1114 3008 
C 787 2873 454 2783 115 2745 
L 115 2579 
z
" transform="scale(0.015625)"/>
      <path id="URWPalladioL-Roma-65" d="M 2797 447 
L 2714 511 
C 2304 268 2157 211 1882 211 
C 1466 211 1120 396 941 710 
C 819 921 774 1100 762 1472 
L 1696 1472 
C 2138 1472 2413 1491 2854 1561 
C 2861 1651 2867 1708 2867 1786 
C 2867 2526 2394 3008 1677 3008 
C 1440 3008 1165 2924 902 2771 
C 378 2468 166 2069 166 1401 
C 166 998 262 652 435 409 
C 691 70 1120 -128 1600 -128 
C 1837 -128 2074 -77 2336 38 
C 2509 108 2643 192 2669 230 
L 2797 447 
z
M 2298 1708 
C 1965 1696 1811 1689 1581 1689 
C 1286 1689 1120 1696 774 1728 
C 774 2030 800 2172 883 2339 
C 1018 2623 1293 2796 1600 2796 
C 1811 2796 1978 2713 2093 2539 
C 2234 2326 2278 2140 2298 1708 
z
" transform="scale(0.015625)"/>
      <path id="URWPalladioL-Roma-64" d="M 2637 2803 
C 2278 2956 2099 3008 1875 3008 
C 1702 3008 1549 2969 1389 2886 
L 826 2592 
C 461 2400 224 1934 224 1392 
C 224 881 397 460 710 204 
C 928 19 1229 -64 1645 -64 
C 1773 -64 1920 -39 1952 -13 
L 2662 581 
L 2630 0 
C 2944 -7 3046 0 3123 0 
C 3174 0 3264 0 3398 -7 
C 3443 6 3571 6 3706 0 
L 3706 192 
L 3411 211 
C 3194 224 3174 268 3174 672 
L 3174 4614 
L 3117 4665 
C 2835 4557 2624 4505 2118 4429 
L 2118 4249 
L 2477 4249 
C 2592 4249 2637 4179 2637 3987 
L 2637 2803 
z
M 2637 1424 
C 2637 1009 2624 945 2541 798 
C 2362 498 2048 300 1747 300 
C 1184 300 781 843 781 1602 
C 781 2298 1126 2707 1702 2707 
C 1946 2707 2202 2624 2426 2470 
C 2560 2381 2637 2298 2637 2247 
L 2637 1424 
z
" transform="scale(0.015625)"/>
      <path id="URWPalladioL-Roma-6f" d="M 1786 3008 
C 851 3008 205 2347 205 1391 
C 205 487 774 -128 1600 -128 
C 2586 -128 3290 557 3290 1520 
C 3290 2386 2662 3008 1786 3008 
z
M 1670 2796 
C 2259 2796 2694 2155 2694 1282 
C 2694 545 2368 83 1850 83 
C 1222 83 800 699 800 1609 
C 800 2379 1107 2796 1670 2796 
z
" transform="scale(0.015625)"/>
      <path id="URWPalladioL-Roma-61" d="M 2074 544 
L 2042 0 
C 2458 0 2458 0 2541 0 
C 2573 19 2733 12 3014 0 
L 3014 192 
L 2765 204 
C 2611 211 2586 262 2586 576 
L 2586 1751 
C 2586 2688 2317 3027 1574 3027 
C 1299 3027 1043 2956 800 2809 
L 461 2604 
L 461 2187 
L 627 2142 
L 710 2341 
C 845 2642 909 2688 1203 2688 
C 1805 2688 2054 2450 2074 1866 
L 1440 1751 
C 570 1590 205 1289 205 730 
C 205 224 506 -64 1011 -64 
C 1126 -64 1235 -45 1280 -13 
L 2074 544 
z
M 2074 806 
C 1888 544 1485 300 1235 300 
C 979 300 755 537 755 812 
C 755 1049 883 1273 1075 1395 
C 1235 1491 1587 1580 2074 1651 
L 2074 806 
z
" transform="scale(0.015625)"/>
      <path id="URWPalladioL-Roma-6e" d="M 2624 0 
C 3014 0 3021 0 3130 0 
C 3219 19 3219 19 3661 0 
L 3661 192 
L 3398 211 
C 3181 223 3162 262 3162 670 
L 3162 1902 
C 3162 2649 2810 3014 2093 3014 
C 1856 3014 1722 2969 1587 2854 
L 1101 2432 
L 1101 2988 
L 1043 3008 
C 717 2873 384 2784 45 2746 
L 45 2568 
L 282 2568 
C 538 2568 563 2523 563 2103 
L 563 669 
C 563 268 544 223 326 211 
L 38 192 
L 38 0 
C 474 -7 646 0 832 0 
C 1018 19 1190 12 1626 0 
L 1626 192 
L 1338 211 
C 1120 223 1101 268 1101 670 
L 1101 2023 
C 1101 2311 1523 2624 1914 2624 
C 2342 2624 2624 2304 2624 1813 
L 2624 0 
z
" transform="scale(0.015625)"/>
     </defs>
     <use xlink:href="#URWPalladioL-Roma-54" transform="scale(0.996264)"/>
     <use xlink:href="#URWPalladioL-Roma-69" transform="translate(55.591109 0)scale(0.996264)"/>
     <use xlink:href="#URWPalladioL-Roma-6d" transform="translate(84.581471 0)scale(0.996264)"/>
     <use xlink:href="#URWPalladioL-Roma-65" transform="translate(172.551145 0)scale(0.996264)"/>
     <use xlink:href="#URWPalladioL-Roma-64" transform="translate(245.17804 0)scale(0.996264)"/>
     <use xlink:href="#URWPalladioL-Roma-6f" transform="translate(306.049671 0)scale(0.996264)"/>
     <use xlink:href="#URWPalladioL-Roma-6d" transform="translate(360.445251 0)scale(0.996264)"/>
     <use xlink:href="#URWPalladioL-Roma-61" transform="translate(448.414925 0)scale(0.996264)"/>
     <use xlink:href="#URWPalladioL-Roma-69" transform="translate(498.228126 0)scale(0.996264)"/>
     <use xlink:href="#URWPalladioL-Roma-6e" transform="translate(527.218487 0)scale(0.996264)"/>
    </g>
   </g>
  </g>
  <g id="axes_2">
   <g id="patch_3">
    <path d="M 221.83046 96.514398 
L 396.51475 96.514398 
L 396.51475 23.179529 
L 221.83046 23.179529 
L 221.83046 96.514398 
z
" style="fill: none"/>
   </g>
   <g id="patch_4">
    <path d="M 309.172605 96.514398 
L 309.172605 23.179529 
L 388.574555 23.179529 
L 388.574555 96.514398 
z
" clip-path="url(#pc42a5f5eea)" style="opacity: 0.1; stroke: #000000; stroke-width: 0.5; stroke-linejoin: miter"/>
   </g>
   <g id="matplotlib.axis_3"/>
   <g id="matplotlib.axis_4">
    <g id="ytick_4">
     <g id="line2d_8">
      <path d="M 221.83046 93.180995 
L 396.51475 93.180995 
" clip-path="url(#pc42a5f5eea)" style="fill: none; stroke: #000000; stroke-opacity: 0.2; stroke-width: 0.5; stroke-linecap: round"/>
     </g>
     <g id="line2d_9">
      <g>
       <use xlink:href="#mca0c9c8841" x="221.83046" y="93.180995" style="fill-opacity: 0.2; stroke: #000000; stroke-opacity: 0.2; stroke-width: 0.5"/>
      </g>
     </g>
    </g>
    <g id="ytick_5">
     <g id="line2d_10">
      <path d="M 221.83046 59.846964 
L 396.51475 59.846964 
" clip-path="url(#pc42a5f5eea)" style="fill: none; stroke: #000000; stroke-opacity: 0.2; stroke-width: 0.5; stroke-linecap: round"/>
     </g>
     <g id="line2d_11">
      <g>
       <use xlink:href="#mca0c9c8841" x="221.83046" y="59.846964" style="fill-opacity: 0.2; stroke: #000000; stroke-opacity: 0.2; stroke-width: 0.5"/>
      </g>
     </g>
    </g>
    <g id="ytick_6">
     <g id="line2d_12">
      <path d="M 221.83046 26.512932 
L 396.51475 26.512932 
" clip-path="url(#pc42a5f5eea)" style="fill: none; stroke: #000000; stroke-opacity: 0.2; stroke-width: 0.5; stroke-linecap: round"/>
     </g>
     <g id="line2d_13">
      <g>
       <use xlink:href="#mca0c9c8841" x="221.83046" y="26.512932" style="fill-opacity: 0.2; stroke: #000000; stroke-opacity: 0.2; stroke-width: 0.5"/>
      </g>
     </g>
    </g>
   </g>
   <g id="line2d_14">
    <defs>
     <path id="me6c21a2c98" d="M 0 3.5 
C 0.928211 3.5 1.81853 3.131218 2.474874 2.474874 
C 3.131218 1.81853 3.5 0.928211 3.5 0 
C 3.5 -0.928211 3.131218 -1.81853 2.474874 -2.474874 
C 1.81853 -3.131218 0.928211 -3.5 0 -3.5 
C -0.928211 -3.5 -1.81853 -3.131218 -2.474874 -2.474874 
C -3.131218 -1.81853 -3.5 -0.928211 -3.5 0 
C -3.5 0.928211 -3.131218 1.81853 -2.474874 2.474874 
C -1.81853 3.131218 -0.928211 3.5 0 3.5 
z
" style="stroke: #fefefa; stroke-width: 1.5"/>
    </defs>
    <g clip-path="url(#pc42a5f5eea)">
     <use xlink:href="#me6c21a2c98" x="229.770655" y="26.512932" style="fill: #dc2830; stroke: #fefefa; stroke-width: 1.5"/>
     <use xlink:href="#me6c21a2c98" x="237.71085" y="26.512932" style="fill: #dc2830; stroke: #fefefa; stroke-width: 1.5"/>
     <use xlink:href="#me6c21a2c98" x="245.651045" y="26.512932" style="fill: #dc2830; stroke: #fefefa; stroke-width: 1.5"/>
     <use xlink:href="#me6c21a2c98" x="253.59124" y="26.512932" style="fill: #dc2830; stroke: #fefefa; stroke-width: 1.5"/>
     <use xlink:href="#me6c21a2c98" x="261.531435" y="26.512932" style="fill: #dc2830; stroke: #fefefa; stroke-width: 1.5"/>
     <use xlink:href="#me6c21a2c98" x="269.47163" y="26.512932" style="fill: #dc2830; stroke: #fefefa; stroke-width: 1.5"/>
     <use xlink:href="#me6c21a2c98" x="277.411825" y="26.512932" style="fill: #dc2830; stroke: #fefefa; stroke-width: 1.5"/>
     <use xlink:href="#me6c21a2c98" x="285.35202" y="26.512932" style="fill: #dc2830; stroke: #fefefa; stroke-width: 1.5"/>
     <use xlink:href="#me6c21a2c98" x="293.292215" y="26.512932" style="fill: #dc2830; stroke: #fefefa; stroke-width: 1.5"/>
     <use xlink:href="#me6c21a2c98" x="301.23241" y="26.512932" style="fill: #dc2830; stroke: #fefefa; stroke-width: 1.5"/>
     <use xlink:href="#me6c21a2c98" x="309.172605" y="26.512932" style="fill: #dc2830; stroke: #fefefa; stroke-width: 1.5"/>
     <use xlink:href="#me6c21a2c98" x="317.1128" y="26.512932" style="fill: #dc2830; stroke: #fefefa; stroke-width: 1.5"/>
     <use xlink:href="#me6c21a2c98" x="325.052995" y="26.512932" style="fill: #dc2830; stroke: #fefefa; stroke-width: 1.5"/>
     <use xlink:href="#me6c21a2c98" x="332.99319" y="26.512932" style="fill: #dc2830; stroke: #fefefa; stroke-width: 1.5"/>
     <use xlink:href="#me6c21a2c98" x="340.933385" y="26.512932" style="fill: #dc2830; stroke: #fefefa; stroke-width: 1.5"/>
     <use xlink:href="#me6c21a2c98" x="348.87358" y="26.512932" style="fill: #dc2830; stroke: #fefefa; stroke-width: 1.5"/>
     <use xlink:href="#me6c21a2c98" x="356.813775" y="26.512932" style="fill: #dc2830; stroke: #fefefa; stroke-width: 1.5"/>
     <use xlink:href="#me6c21a2c98" x="364.75397" y="26.512932" style="fill: #dc2830; stroke: #fefefa; stroke-width: 1.5"/>
     <use xlink:href="#me6c21a2c98" x="372.694165" y="26.512932" style="fill: #dc2830; stroke: #fefefa; stroke-width: 1.5"/>
     <use xlink:href="#me6c21a2c98" x="380.63436" y="26.512932" style="fill: #dc2830; stroke: #fefefa; stroke-width: 1.5"/>
    </g>
   </g>
   <g id="line2d_15">
    <defs>
     <path id="mf74a90957e" d="M 0 3.5 
C 0.928211 3.5 1.81853 3.131218 2.474874 2.474874 
C 3.131218 1.81853 3.5 0.928211 3.5 0 
C 3.5 -0.928211 3.131218 -1.81853 2.474874 -2.474874 
C 1.81853 -3.131218 0.928211 -3.5 0 -3.5 
C -0.928211 -3.5 -1.81853 -3.131218 -2.474874 -2.474874 
C -3.131218 -1.81853 -3.5 -0.928211 -3.5 0 
C -3.5 0.928211 -3.131218 1.81853 -2.474874 2.474874 
C -1.81853 3.131218 -0.928211 3.5 0 3.5 
z
" style="stroke: #fefefa; stroke-width: 1.5"/>
    </defs>
    <g clip-path="url(#pc42a5f5eea)">
     <use xlink:href="#mf74a90957e" x="229.770655" y="59.846964" style="fill: #007d4d; stroke: #fefefa; stroke-width: 1.5"/>
     <use xlink:href="#mf74a90957e" x="237.71085" y="59.846964" style="fill: #007d4d; stroke: #fefefa; stroke-width: 1.5"/>
     <use xlink:href="#mf74a90957e" x="245.651045" y="59.846964" style="fill: #007d4d; stroke: #fefefa; stroke-width: 1.5"/>
     <use xlink:href="#mf74a90957e" x="253.59124" y="59.846964" style="fill: #007d4d; stroke: #fefefa; stroke-width: 1.5"/>
     <use xlink:href="#mf74a90957e" x="261.531435" y="59.846964" style="fill: #007d4d; stroke: #fefefa; stroke-width: 1.5"/>
     <use xlink:href="#mf74a90957e" x="269.47163" y="59.846964" style="fill: #007d4d; stroke: #fefefa; stroke-width: 1.5"/>
     <use xlink:href="#mf74a90957e" x="277.411825" y="59.846964" style="fill: #007d4d; stroke: #fefefa; stroke-width: 1.5"/>
     <use xlink:href="#mf74a90957e" x="285.35202" y="59.846964" style="fill: #007d4d; stroke: #fefefa; stroke-width: 1.5"/>
     <use xlink:href="#mf74a90957e" x="293.292215" y="59.846964" style="fill: #007d4d; stroke: #fefefa; stroke-width: 1.5"/>
     <use xlink:href="#mf74a90957e" x="301.23241" y="59.846964" style="fill: #007d4d; stroke: #fefefa; stroke-width: 1.5"/>
     <use xlink:href="#mf74a90957e" x="309.172605" y="59.846964" style="fill: #007d4d; stroke: #fefefa; stroke-width: 1.5"/>
     <use xlink:href="#mf74a90957e" x="317.1128" y="59.846964" style="fill: #007d4d; stroke: #fefefa; stroke-width: 1.5"/>
     <use xlink:href="#mf74a90957e" x="325.052995" y="59.846964" style="fill: #007d4d; stroke: #fefefa; stroke-width: 1.5"/>
     <use xlink:href="#mf74a90957e" x="332.99319" y="59.846964" style="fill: #007d4d; stroke: #fefefa; stroke-width: 1.5"/>
     <use xlink:href="#mf74a90957e" x="340.933385" y="59.846964" style="fill: #007d4d; stroke: #fefefa; stroke-width: 1.5"/>
     <use xlink:href="#mf74a90957e" x="348.87358" y="59.846964" style="fill: #007d4d; stroke: #fefefa; stroke-width: 1.5"/>
     <use xlink:href="#mf74a90957e" x="356.813775" y="59.846964" style="fill: #007d4d; stroke: #fefefa; stroke-width: 1.5"/>
     <use xlink:href="#mf74a90957e" x="364.75397" y="59.846964" style="fill: #007d4d; stroke: #fefefa; stroke-width: 1.5"/>
     <use xlink:href="#mf74a90957e" x="372.694165" y="59.846964" style="fill: #007d4d; stroke: #fefefa; stroke-width: 1.5"/>
     <use xlink:href="#mf74a90957e" x="380.63436" y="59.846964" style="fill: #007d4d; stroke: #fefefa; stroke-width: 1.5"/>
    </g>
   </g>
   <g id="text_5">
    <!-- Frequency domain -->
    <g transform="translate(251.297193 17.179529)scale(0.14 -0.14)">
     <defs>
      <path id="URWPalladioL-Roma-46" d="M 1382 2092 
C 1562 2105 1754 2112 2042 2112 
C 2515 2112 2688 2092 2803 2035 
L 2854 1875 
L 2886 1497 
L 3078 1497 
C 3059 2092 3059 2092 3059 2208 
C 3059 2310 3059 2310 3078 2946 
L 2886 2946 
L 2854 2615 
C 2848 2558 2829 2501 2803 2450 
C 2688 2399 2509 2380 2086 2380 
C 1818 2380 1600 2387 1382 2399 
L 1382 4096 
C 1574 4140 1690 4147 2067 4147 
C 2374 4147 2733 4108 2931 4058 
C 3085 4020 3104 3988 3104 3842 
L 3104 3429 
L 3328 3429 
C 3328 3810 3360 4115 3430 4396 
C 3117 4409 2925 4416 2650 4416 
L 1965 4409 
C 1651 4396 1427 4396 1267 4396 
C 1082 4396 1082 4396 141 4416 
L 141 4223 
L 448 4204 
C 742 4185 774 4135 774 3633 
L 774 782 
C 774 280 742 230 448 211 
L 141 192 
L 141 0 
C 518 -7 742 0 1075 0 
C 1408 19 1638 12 2016 0 
L 2016 192 
L 1709 211 
C 1414 230 1382 281 1382 787 
L 1382 2092 
z
" transform="scale(0.015625)"/>
      <path id="URWPalladioL-Roma-72" d="M 147 2579 
L 384 2579 
C 640 2579 666 2534 666 2112 
L 666 672 
C 666 268 646 224 429 211 
L 134 192 
L 134 0 
C 595 -7 762 0 922 0 
C 1050 19 1050 19 1837 0 
L 1837 192 
L 1504 211 
C 1216 230 1203 249 1203 669 
L 1203 1763 
C 1203 2145 1459 2463 1773 2463 
C 1965 2463 2099 2374 2202 2171 
L 2336 2171 
L 2394 2937 
C 2323 2982 2208 3008 2093 3008 
C 1901 3008 1696 2905 1562 2745 
L 1203 2324 
L 1203 2982 
L 1146 3008 
C 819 2873 486 2783 147 2745 
L 147 2579 
z
" transform="scale(0.015625)"/>
      <path id="URWPalladioL-Roma-71" d="M 2515 434 
L 2515 -1118 
C 2515 -1523 2490 -1568 2278 -1581 
L 1907 -1600 
L 1907 -1792 
C 2650 -1773 2650 -1773 2797 -1773 
C 2950 -1773 3130 -1780 3584 -1792 
L 3584 -1600 
L 3290 -1581 
C 3072 -1568 3053 -1523 3053 -1118 
L 3053 2043 
C 3053 2439 3091 2681 3200 2924 
L 3078 2995 
L 2765 2796 
C 2438 2943 2163 3008 1888 3008 
C 1702 3008 1478 2956 1382 2899 
L 845 2553 
C 435 2292 224 1870 224 1315 
C 224 479 730 -64 1523 -64 
C 1658 -64 1766 -39 1850 12 
L 2515 434 
z
M 2515 779 
C 2515 690 2362 524 2189 428 
C 2035 345 1888 300 1734 300 
C 1171 300 781 824 781 1596 
C 781 2298 1139 2707 1754 2707 
C 2067 2707 2291 2630 2515 2445 
L 2515 779 
z
" transform="scale(0.015625)"/>
      <path id="URWPalladioL-Roma-75" d="M 3219 2982 
L 3162 3008 
C 2835 2873 2502 2784 2163 2745 
L 2163 2567 
L 2400 2567 
C 2656 2567 2682 2522 2682 2101 
L 2682 1060 
C 2682 920 2592 741 2445 594 
C 2266 415 2061 326 1811 326 
C 1587 326 1408 396 1306 517 
C 1216 620 1171 817 1171 1098 
L 1171 2982 
L 1114 3008 
C 787 2873 454 2784 115 2745 
L 115 2567 
L 352 2567 
C 608 2567 634 2522 634 2101 
L 634 1028 
C 634 581 672 383 787 224 
C 928 32 1171 -64 1536 -64 
C 1824 -58 2080 32 2253 192 
L 2682 588 
C 2682 403 2675 300 2656 0 
C 3085 0 3091 0 3187 0 
C 3277 19 3277 19 3718 0 
L 3718 192 
L 3456 211 
C 3238 224 3219 262 3219 672 
L 3219 2982 
z
" transform="scale(0.015625)"/>
      <path id="URWPalladioL-Roma-63" d="M 2554 1995 
C 2554 2290 2586 2553 2643 2783 
C 2387 2937 2163 3008 1901 3008 
C 1594 3008 1235 2886 851 2643 
C 403 2360 166 1911 166 1347 
C 166 480 774 -128 1632 -128 
C 1965 -128 2445 -7 2509 89 
L 2643 294 
L 2579 390 
C 2342 262 2138 204 1907 204 
C 1197 204 730 756 730 1603 
C 730 2290 1050 2675 1626 2675 
C 1907 2675 2214 2547 2330 2386 
L 2374 1995 
L 2554 1995 
z
" transform="scale(0.015625)"/>
      <path id="URWPalladioL-Roma-79" d="M 1901 569 
C 1760 812 1690 960 1574 1273 
L 1165 2349 
C 1126 2457 1101 2553 1101 2617 
C 1101 2707 1171 2758 1318 2765 
L 1562 2777 
L 1562 2957 
C 941 2937 941 2937 819 2937 
C 698 2937 698 2937 77 2957 
L 77 2777 
L 192 2765 
C 352 2745 429 2675 525 2451 
L 1222 774 
C 1402 339 1466 185 1581 -135 
L 1434 -525 
C 1229 -1063 979 -1364 736 -1364 
C 634 -1364 518 -1312 410 -1216 
L 326 -1216 
L 173 -1696 
C 294 -1760 397 -1792 518 -1792 
C 947 -1792 1222 -1562 1466 -1005 
L 2765 1990 
C 3021 2573 3142 2745 3302 2765 
L 3482 2777 
L 3482 2957 
C 2976 2937 2976 2937 2874 2937 
C 2771 2937 2771 2937 2266 2957 
L 2266 2777 
L 2432 2765 
C 2611 2752 2701 2694 2701 2605 
C 2701 2560 2688 2502 2662 2438 
L 1901 569 
z
" transform="scale(0.015625)"/>
     </defs>
     <use xlink:href="#URWPalladioL-Roma-46" transform="scale(0.996264)"/>
     <use xlink:href="#URWPalladioL-Roma-72" transform="translate(55.391677 0)scale(0.996264)"/>
     <use xlink:href="#URWPalladioL-Roma-65" transform="translate(92.950994 0)scale(0.996264)"/>
     <use xlink:href="#URWPalladioL-Roma-71" transform="translate(140.671289 0)scale(0.996264)"/>
     <use xlink:href="#URWPalladioL-Roma-75" transform="translate(196.461922 0)scale(0.996264)"/>
     <use xlink:href="#URWPalladioL-Roma-65" transform="translate(256.535657 0)scale(0.996264)"/>
     <use xlink:href="#URWPalladioL-Roma-6e" transform="translate(304.255952 0)scale(0.996264)"/>
     <use xlink:href="#URWPalladioL-Roma-63" transform="translate(362.238012 0)scale(0.996264)"/>
     <use xlink:href="#URWPalladioL-Roma-79" transform="translate(406.471581 0)scale(0.996264)"/>
     <use xlink:href="#URWPalladioL-Roma-64" transform="translate(486.769858 0)scale(0.996264)"/>
     <use xlink:href="#URWPalladioL-Roma-6f" transform="translate(547.641489 0)scale(0.996264)"/>
     <use xlink:href="#URWPalladioL-Roma-6d" transform="translate(602.037069 0)scale(0.996264)"/>
     <use xlink:href="#URWPalladioL-Roma-61" transform="translate(690.006744 0)scale(0.996264)"/>
     <use xlink:href="#URWPalladioL-Roma-69" transform="translate(739.819944 0)scale(0.996264)"/>
     <use xlink:href="#URWPalladioL-Roma-6e" transform="translate(768.810305 0)scale(0.996264)"/>
    </g>
   </g>
   <g id="legend_1">
    <g id="patch_5">
     <path d="M 291.755901 89.514398 
L 386.71475 89.514398 
Q 389.51475 89.514398 389.51475 86.714398 
L 389.51475 46.288995 
Q 389.51475 43.488995 386.71475 43.488995 
L 291.755901 43.488995 
Q 288.955901 43.488995 288.955901 46.288995 
L 288.955901 86.714398 
Q 288.955901 89.514398 291.755901 89.514398 
z
" style="fill: #ffffff; opacity: 0.95; stroke: #cccccc; stroke-width: 0.5; stroke-linejoin: miter"/>
    </g>
    <g id="line2d_16">
     <g>
      <use xlink:href="#me6c21a2c98" x="301.555901" y="54.168524" style="fill: #dc2830; stroke: #fefefa; stroke-width: 1.5"/>
     </g>
    </g>
    <g id="text_6">
     <!-- Real -->
     <g transform="translate(319.755901 59.068524)scale(0.14 -0.14)">
      <defs>
       <path id="URWPalladioL-Roma-52" d="M 1382 4096 
C 1600 4147 1792 4172 2010 4172 
C 2675 4172 3046 3867 3046 3328 
C 3046 2744 2579 2375 1837 2375 
C 1792 2375 1734 2375 1651 2382 
L 1613 2306 
C 1683 2223 1702 2198 1779 2115 
C 1869 2014 1888 1988 1946 1912 
L 3123 344 
C 3162 293 3200 242 3238 198 
C 3283 140 3322 83 3386 0 
C 3686 0 3750 0 3821 0 
C 3878 19 3878 19 4282 0 
L 4282 192 
C 4077 211 3974 249 3891 357 
L 2438 2236 
C 2797 2325 2963 2394 3174 2541 
C 3507 2775 3686 3093 3686 3461 
C 3686 4071 3238 4416 2445 4416 
L 2342 4416 
C 1510 4396 1510 4396 1293 4396 
C 1082 4396 1082 4396 186 4416 
L 186 4223 
L 448 4204 
C 742 4185 774 4128 774 3633 
L 774 782 
C 774 280 742 230 448 211 
L 141 192 
L 141 0 
C 518 -7 742 0 1075 0 
C 1408 19 1638 12 2016 0 
L 2016 192 
L 1709 211 
C 1414 230 1382 281 1382 787 
L 1382 4096 
z
" transform="scale(0.015625)"/>
       <path id="URWPalladioL-Roma-6c" d="M 147 4249 
L 506 4249 
C 621 4249 666 4179 666 3987 
L 666 672 
C 666 268 646 224 429 211 
L 134 192 
L 134 0 
C 774 0 774 0 934 0 
C 1094 19 1094 19 1734 0 
L 1734 192 
L 1440 211 
C 1222 224 1203 268 1203 672 
L 1203 4614 
L 1146 4665 
C 864 4557 653 4505 147 4429 
L 147 4249 
z
" transform="scale(0.015625)"/>
      </defs>
      <use xlink:href="#URWPalladioL-Roma-52" transform="scale(0.996264)"/>
      <use xlink:href="#URWPalladioL-Roma-65" transform="translate(66.549694 0)scale(0.996264)"/>
      <use xlink:href="#URWPalladioL-Roma-61" transform="translate(114.269989 0)scale(0.996264)"/>
      <use xlink:href="#URWPalladioL-Roma-6c" transform="translate(164.08319 0)scale(0.996264)"/>
     </g>
    </g>
    <g id="line2d_17">
     <g>
      <use xlink:href="#mf74a90957e" x="301.555901" y="75.081225" style="fill: #007d4d; stroke: #fefefa; stroke-width: 1.5"/>
     </g>
    </g>
    <g id="text_7">
     <!-- Imaginary -->
     <g transform="translate(319.755901 79.981225)scale(0.14 -0.14)">
      <defs>
       <path id="URWPalladioL-Roma-49" d="M 1382 3633 
C 1382 4135 1414 4185 1709 4204 
L 2016 4223 
L 2016 4416 
C 1549 4396 1408 4396 1075 4396 
C 755 4396 602 4403 141 4416 
L 141 4223 
L 448 4204 
C 742 4185 774 4135 774 3633 
L 774 782 
C 774 280 742 230 448 211 
L 141 192 
L 141 0 
C 518 -7 742 0 1075 0 
C 1408 19 1638 12 2016 0 
L 2016 192 
L 1709 211 
C 1414 230 1382 281 1382 787 
L 1382 3633 
z
" transform="scale(0.015625)"/>
       <path id="URWPalladioL-Roma-67" d="M 3322 2452 
L 3482 2713 
L 3456 2790 
L 2547 2764 
C 2310 2956 2080 3033 1766 3033 
C 1485 3033 1158 2944 896 2790 
C 538 2586 352 2274 352 1885 
C 352 1413 646 1087 1120 1036 
L 614 638 
C 550 540 518 455 518 358 
C 518 179 634 76 941 -13 
L 384 -315 
C 294 -367 205 -604 205 -804 
C 205 -1388 774 -1792 1587 -1792 
C 2554 -1792 3315 -1183 3315 -399 
C 3315 64 3008 384 2560 384 
L 1536 384 
C 1203 384 1050 462 1050 638 
C 1050 723 1101 795 1267 939 
C 1306 972 1318 985 1344 1011 
C 1408 1004 1446 998 1498 998 
C 1773 998 2112 1119 2374 1305 
C 2662 1515 2803 1770 2803 2108 
C 2803 2235 2784 2318 2733 2452 
L 3322 2452 
z
M 1536 2816 
C 1971 2816 2266 2458 2266 1917 
C 2266 1502 1997 1216 1606 1216 
C 1178 1216 890 1547 890 2038 
C 890 2529 1126 2816 1536 2816 
z
M 1837 -64 
C 2560 -64 2810 -212 2810 -630 
C 2810 -1183 2304 -1594 1632 -1594 
C 1075 -1594 691 -1266 691 -791 
C 691 -502 858 -238 1114 -129 
C 1216 -77 1395 -64 1837 -64 
z
" transform="scale(0.015625)"/>
      </defs>
      <use xlink:href="#URWPalladioL-Roma-49" transform="scale(0.996264)"/>
      <use xlink:href="#URWPalladioL-Roma-6d" transform="translate(33.574079 0)scale(0.996264)"/>
      <use xlink:href="#URWPalladioL-Roma-61" transform="translate(121.543753 0)scale(0.996264)"/>
      <use xlink:href="#URWPalladioL-Roma-67" transform="translate(171.356954 0)scale(0.996264)"/>
      <use xlink:href="#URWPalladioL-Roma-69" transform="translate(226.748631 0)scale(0.996264)"/>
      <use xlink:href="#URWPalladioL-Roma-6e" transform="translate(255.738992 0)scale(0.996264)"/>
      <use xlink:href="#URWPalladioL-Roma-61" transform="translate(313.721053 0)scale(0.996264)"/>
      <use xlink:href="#URWPalladioL-Roma-72" transform="translate(363.534253 0)scale(0.996264)"/>
      <use xlink:href="#URWPalladioL-Roma-79" transform="translate(402.88615 0)scale(0.996264)"/>
     </g>
    </g>
   </g>
  </g>
  <g id="axes_3">
   <g id="patch_6">
    <path d="M 402.51523 96.514398 
L 577.19952 96.514398 
L 577.19952 23.179529 
L 402.51523 23.179529 
L 402.51523 96.514398 
z
" style="fill: none"/>
   </g>
   <g id="patch_7">
    <path d="M 489.857375 96.514398 
L 489.857375 23.179529 
L 569.259325 23.179529 
L 569.259325 96.514398 
z
" clip-path="url(#pc8e5481a7b)" style="opacity: 0.1; stroke: #000000; stroke-width: 0.5; stroke-linejoin: miter"/>
   </g>
   <g id="matplotlib.axis_5"/>
   <g id="matplotlib.axis_6">
    <g id="ytick_7">
     <g id="line2d_18">
      <path d="M 402.51523 93.180995 
L 577.19952 93.180995 
" clip-path="url(#pc8e5481a7b)" style="fill: none; stroke: #000000; stroke-opacity: 0.2; stroke-width: 0.5; stroke-linecap: round"/>
     </g>
     <g id="line2d_19">
      <g>
       <use xlink:href="#mca0c9c8841" x="402.51523" y="93.180995" style="fill-opacity: 0.2; stroke: #000000; stroke-opacity: 0.2; stroke-width: 0.5"/>
      </g>
     </g>
    </g>
    <g id="ytick_8">
     <g id="line2d_20">
      <path d="M 402.51523 59.846964 
L 577.19952 59.846964 
" clip-path="url(#pc8e5481a7b)" style="fill: none; stroke: #000000; stroke-opacity: 0.2; stroke-width: 0.5; stroke-linecap: round"/>
     </g>
     <g id="line2d_21">
      <g>
       <use xlink:href="#mca0c9c8841" x="402.51523" y="59.846964" style="fill-opacity: 0.2; stroke: #000000; stroke-opacity: 0.2; stroke-width: 0.5"/>
      </g>
     </g>
    </g>
    <g id="ytick_9">
     <g id="line2d_22">
      <path d="M 402.51523 26.512932 
L 577.19952 26.512932 
" clip-path="url(#pc8e5481a7b)" style="fill: none; stroke: #000000; stroke-opacity: 0.2; stroke-width: 0.5; stroke-linecap: round"/>
     </g>
     <g id="line2d_23">
      <g>
       <use xlink:href="#mca0c9c8841" x="402.51523" y="26.512932" style="fill-opacity: 0.2; stroke: #000000; stroke-opacity: 0.2; stroke-width: 0.5"/>
      </g>
     </g>
    </g>
   </g>
   <g id="line2d_24">
    <defs>
     <path id="m88d552b0bb" d="M 0 3.5 
C 0.928211 3.5 1.81853 3.131218 2.474874 2.474874 
C 3.131218 1.81853 3.5 0.928211 3.5 0 
C 3.5 -0.928211 3.131218 -1.81853 2.474874 -2.474874 
C 1.81853 -3.131218 0.928211 -3.5 0 -3.5 
C -0.928211 -3.5 -1.81853 -3.131218 -2.474874 -2.474874 
C -3.131218 -1.81853 -3.5 -0.928211 -3.5 0 
C -3.5 0.928211 -3.131218 1.81853 -2.474874 2.474874 
C -1.81853 3.131218 -0.928211 3.5 0 3.5 
z
" style="stroke: #fefefa; stroke-width: 1.5"/>
    </defs>
    <g clip-path="url(#pc8e5481a7b)">
     <use xlink:href="#m88d552b0bb" x="410.455425" y="26.512932" style="fill: #444f95; stroke: #fefefa; stroke-width: 1.5"/>
     <use xlink:href="#m88d552b0bb" x="418.39562" y="26.512932" style="fill: #444f95; stroke: #fefefa; stroke-width: 1.5"/>
     <use xlink:href="#m88d552b0bb" x="426.335815" y="26.512932" style="fill: #444f95; stroke: #fefefa; stroke-width: 1.5"/>
     <use xlink:href="#m88d552b0bb" x="434.27601" y="26.512932" style="fill: #444f95; stroke: #fefefa; stroke-width: 1.5"/>
     <use xlink:href="#m88d552b0bb" x="442.216205" y="26.512932" style="fill: #444f95; stroke: #fefefa; stroke-width: 1.5"/>
     <use xlink:href="#m88d552b0bb" x="450.1564" y="26.512932" style="fill: #444f95; stroke: #fefefa; stroke-width: 1.5"/>
     <use xlink:href="#m88d552b0bb" x="458.096595" y="26.512932" style="fill: #444f95; stroke: #fefefa; stroke-width: 1.5"/>
     <use xlink:href="#m88d552b0bb" x="466.03679" y="26.512932" style="fill: #444f95; stroke: #fefefa; stroke-width: 1.5"/>
     <use xlink:href="#m88d552b0bb" x="473.976985" y="26.512932" style="fill: #444f95; stroke: #fefefa; stroke-width: 1.5"/>
     <use xlink:href="#m88d552b0bb" x="481.91718" y="26.512932" style="fill: #444f95; stroke: #fefefa; stroke-width: 1.5"/>
     <use xlink:href="#m88d552b0bb" x="489.857375" y="26.512932" style="fill: #444f95; stroke: #fefefa; stroke-width: 1.5"/>
     <use xlink:href="#m88d552b0bb" x="497.79757" y="26.512932" style="fill: #444f95; stroke: #fefefa; stroke-width: 1.5"/>
     <use xlink:href="#m88d552b0bb" x="505.737765" y="26.512932" style="fill: #444f95; stroke: #fefefa; stroke-width: 1.5"/>
     <use xlink:href="#m88d552b0bb" x="513.67796" y="26.512932" style="fill: #444f95; stroke: #fefefa; stroke-width: 1.5"/>
     <use xlink:href="#m88d552b0bb" x="521.618155" y="26.512932" style="fill: #444f95; stroke: #fefefa; stroke-width: 1.5"/>
     <use xlink:href="#m88d552b0bb" x="529.55835" y="26.512932" style="fill: #444f95; stroke: #fefefa; stroke-width: 1.5"/>
     <use xlink:href="#m88d552b0bb" x="537.498545" y="26.512932" style="fill: #444f95; stroke: #fefefa; stroke-width: 1.5"/>
     <use xlink:href="#m88d552b0bb" x="545.43874" y="26.512932" style="fill: #444f95; stroke: #fefefa; stroke-width: 1.5"/>
     <use xlink:href="#m88d552b0bb" x="553.378935" y="26.512932" style="fill: #444f95; stroke: #fefefa; stroke-width: 1.5"/>
     <use xlink:href="#m88d552b0bb" x="561.31913" y="26.512932" style="fill: #444f95; stroke: #fefefa; stroke-width: 1.5"/>
    </g>
   </g>
   <g id="text_8">
    <!-- Magnitude spectrum -->
    <g transform="translate(425.064133 17.179529)scale(0.14 -0.14)">
     <defs>
      <path id="URWPalladioL-Roma-4d" d="M 4685 787 
C 4685 281 4659 236 4358 211 
L 4141 192 
L 4141 0 
C 4435 -7 4627 0 4960 0 
C 5318 19 5549 12 5926 0 
L 5926 192 
L 5619 211 
C 5325 230 5293 280 5293 782 
L 5293 3633 
C 5293 4128 5325 4185 5619 4204 
L 5888 4223 
L 5888 4416 
C 5402 4396 5402 4396 5293 4396 
C 5197 4396 5197 4396 4685 4416 
L 3008 884 
L 1318 4416 
C 806 4396 806 4396 710 4396 
C 614 4396 614 4396 102 4416 
L 102 4223 
L 384 4204 
C 678 4185 710 4128 710 3633 
L 710 782 
C 710 287 678 230 384 211 
L 102 192 
L 102 0 
C 736 0 736 0 845 0 
C 941 19 941 19 1613 0 
L 1613 192 
L 1331 211 
C 1037 230 1005 288 1005 787 
L 1005 3718 
L 2790 -64 
L 2918 -64 
C 2963 32 3002 134 3040 230 
C 3142 480 3219 659 3264 748 
L 4403 3168 
C 4493 3353 4570 3501 4685 3718 
L 4685 787 
z
" transform="scale(0.015625)"/>
      <path id="URWPalladioL-Roma-74" d="M 627 2457 
L 627 614 
C 627 140 838 -64 1331 -64 
C 1478 -64 1632 -32 1670 12 
L 1978 352 
L 1894 460 
C 1734 371 1638 339 1517 339 
C 1267 339 1165 467 1165 780 
L 1165 2457 
L 1984 2457 
L 2042 2803 
L 1165 2764 
L 1165 3008 
C 1165 3277 1184 3507 1235 3917 
L 1158 3987 
C 1005 3891 813 3808 614 3744 
C 634 3552 640 3430 640 3238 
L 640 2790 
L 141 2566 
L 141 2432 
L 627 2457 
z
" transform="scale(0.015625)"/>
      <path id="URWPalladioL-Roma-73" d="M 262 917 
C 262 474 243 282 192 25 
C 525 -84 774 -128 1069 -128 
C 1907 -128 2502 320 2502 949 
C 2502 1148 2445 1295 2323 1423 
C 2157 1584 1946 1661 1382 1770 
C 858 1872 685 2001 685 2296 
C 685 2617 909 2796 1299 2796 
C 1728 2796 2054 2572 2054 2270 
L 2054 2123 
L 2234 2123 
C 2240 2495 2246 2649 2266 2847 
C 1926 2963 1696 3008 1434 3008 
C 691 3008 237 2655 237 2078 
C 237 1770 378 1552 672 1417 
C 845 1340 1184 1237 1619 1141 
C 1907 1077 2029 942 2029 698 
C 2029 352 1709 108 1254 108 
C 787 108 454 333 454 654 
L 454 917 
L 262 917 
z
" transform="scale(0.015625)"/>
      <path id="URWPalladioL-Roma-70" d="M 64 2566 
L 301 2566 
C 557 2566 582 2521 582 2100 
L 582 -1118 
C 582 -1523 563 -1568 346 -1581 
L 51 -1600 
L 51 -1792 
C 691 -1773 691 -1773 851 -1773 
C 1011 -1773 1011 -1773 1651 -1792 
L 1651 -1600 
L 1357 -1581 
C 1139 -1568 1120 -1523 1120 -1118 
L 1120 96 
C 1312 -20 1517 -64 1805 -64 
C 1990 -64 2157 -26 2259 38 
L 2989 511 
C 3245 677 3546 1334 3546 1743 
C 3546 2451 2957 3008 2214 3008 
C 1978 3008 1747 2943 1645 2847 
L 1120 2368 
L 1120 2982 
L 1062 3008 
C 736 2873 403 2783 64 2745 
L 64 2566 
z
M 1120 1966 
C 1120 2055 1152 2126 1235 2234 
C 1421 2470 1683 2591 2003 2591 
C 2605 2591 2989 2170 2989 1507 
C 2989 792 2560 262 1984 262 
C 1632 262 1370 377 1120 639 
L 1120 1966 
z
" transform="scale(0.015625)"/>
     </defs>
     <use xlink:href="#URWPalladioL-Roma-4d" transform="scale(0.996264)"/>
     <use xlink:href="#URWPalladioL-Roma-61" transform="translate(94.246201 0)scale(0.996264)"/>
     <use xlink:href="#URWPalladioL-Roma-67" transform="translate(144.059402 0)scale(0.996264)"/>
     <use xlink:href="#URWPalladioL-Roma-6e" transform="translate(199.451079 0)scale(0.996264)"/>
     <use xlink:href="#URWPalladioL-Roma-69" transform="translate(257.43314 0)scale(0.996264)"/>
     <use xlink:href="#URWPalladioL-Roma-74" transform="translate(286.423501 0)scale(0.996264)"/>
     <use xlink:href="#URWPalladioL-Roma-75" transform="translate(318.900589 0)scale(0.996264)"/>
     <use xlink:href="#URWPalladioL-Roma-64" transform="translate(378.974324 0)scale(0.996264)"/>
     <use xlink:href="#URWPalladioL-Roma-65" transform="translate(439.845954 0)scale(0.996264)"/>
     <use xlink:href="#URWPalladioL-Roma-73" transform="translate(512.47285 0)scale(0.996264)"/>
     <use xlink:href="#URWPalladioL-Roma-70" transform="translate(554.714316 0)scale(0.996264)"/>
     <use xlink:href="#URWPalladioL-Roma-65" transform="translate(614.58871 0)scale(0.996264)"/>
     <use xlink:href="#URWPalladioL-Roma-63" transform="translate(662.309005 0)scale(0.996264)"/>
     <use xlink:href="#URWPalladioL-Roma-74" transform="translate(706.542574 0)scale(0.996264)"/>
     <use xlink:href="#URWPalladioL-Roma-72" transform="translate(739.019661 0)scale(0.996264)"/>
     <use xlink:href="#URWPalladioL-Roma-75" transform="translate(777.574984 0)scale(0.996264)"/>
     <use xlink:href="#URWPalladioL-Roma-6d" transform="translate(837.648719 0)scale(0.996264)"/>
    </g>
   </g>
  </g>
  <g id="axes_4">
   <g id="patch_8">
    <path d="M 41.145691 183.144379 
L 215.82998 183.144379 
L 215.82998 109.80951 
L 41.145691 109.80951 
L 41.145691 183.144379 
z
" style="fill: none"/>
   </g>
   <g id="matplotlib.axis_7"/>
   <g id="matplotlib.axis_8">
    <g id="ytick_10">
     <g id="line2d_25">
      <path d="M 41.145691 179.810976 
L 215.82998 179.810976 
" clip-path="url(#p84e0de3f52)" style="fill: none; stroke: #000000; stroke-opacity: 0.2; stroke-width: 0.5; stroke-linecap: round"/>
     </g>
     <g id="line2d_26">
      <g>
       <use xlink:href="#mca0c9c8841" x="41.145691" y="179.810976" style="fill-opacity: 0.2; stroke: #000000; stroke-opacity: 0.2; stroke-width: 0.5"/>
      </g>
     </g>
     <g id="text_9">
      <!-- $\mathdefault{−1}$ -->
      <g transform="translate(7.2 184.800741)scale(0.14 -0.14)">
       <use xlink:href="#CMSY10-0" transform="scale(1.038107)"/>
       <use xlink:href="#URWPalladioL-Roma-31" transform="translate(81.941696 0)scale(0.996264)"/>
      </g>
     </g>
    </g>
    <g id="ytick_11">
     <g id="line2d_27">
      <path d="M 41.145691 146.476945 
L 215.82998 146.476945 
" clip-path="url(#p84e0de3f52)" style="fill: none; stroke: #000000; stroke-opacity: 0.2; stroke-width: 0.5; stroke-linecap: round"/>
     </g>
     <g id="line2d_28">
      <g>
       <use xlink:href="#mca0c9c8841" x="41.145691" y="146.476945" style="fill-opacity: 0.2; stroke: #000000; stroke-opacity: 0.2; stroke-width: 0.5"/>
      </g>
     </g>
     <g id="text_10">
      <!-- $\mathdefault{0}$ -->
      <g transform="translate(18.671843 151.466709)scale(0.14 -0.14)">
       <use xlink:href="#URWPalladioL-Roma-30" transform="scale(0.996264)"/>
      </g>
     </g>
    </g>
    <g id="ytick_12">
     <g id="line2d_29">
      <path d="M 41.145691 113.142914 
L 215.82998 113.142914 
" clip-path="url(#p84e0de3f52)" style="fill: none; stroke: #000000; stroke-opacity: 0.2; stroke-width: 0.5; stroke-linecap: round"/>
     </g>
     <g id="line2d_30">
      <g>
       <use xlink:href="#mca0c9c8841" x="41.145691" y="113.142914" style="fill-opacity: 0.2; stroke: #000000; stroke-opacity: 0.2; stroke-width: 0.5"/>
      </g>
     </g>
     <g id="text_11">
      <!-- $\mathdefault{1}$ -->
      <g transform="translate(18.671843 118.132678)scale(0.14 -0.14)">
       <use xlink:href="#URWPalladioL-Roma-31" transform="scale(0.996264)"/>
      </g>
     </g>
    </g>
   </g>
   <g id="line2d_31">
    <path d="M 49.085886 179.810976 
L 57.026081 179.810976 
L 57.026081 146.476945 
L 64.966276 146.476945 
L 64.966276 146.476945 
L 72.906471 146.476945 
L 72.906471 146.476945 
L 80.846666 146.476945 
L 80.846666 146.476945 
L 88.786861 146.476945 
L 88.786861 146.476945 
L 96.727056 146.476945 
L 96.727056 146.476945 
L 104.667251 146.476945 
L 104.667251 146.476945 
L 112.607446 146.476945 
L 112.607446 146.476945 
L 120.547641 146.476945 
L 120.547641 146.476945 
L 128.487836 146.476945 
L 128.487836 146.476945 
L 136.428031 146.476945 
L 136.428031 146.476945 
L 144.368226 146.476945 
L 144.368226 146.476945 
L 152.308421 146.476945 
L 152.308421 146.476945 
L 160.248616 146.476945 
L 160.248616 146.476945 
L 168.188811 146.476945 
L 168.188811 146.476945 
L 176.129006 146.476945 
L 176.129006 146.476945 
L 184.069201 146.476945 
L 184.069201 146.476945 
L 192.009396 146.476945 
L 192.009396 146.476945 
L 199.949591 146.476945 
L 199.949591 146.476945 
" clip-path="url(#p84e0de3f52)" style="fill: none; stroke: #0271ae; stroke-width: 2; stroke-linecap: round"/>
    <g clip-path="url(#p84e0de3f52)">
     <use xlink:href="#mab5655f87b" x="49.085886" y="179.810976" style="fill: #0271ae; stroke: #fefefa; stroke-width: 1.5"/>
     <use xlink:href="#mab5655f87b" x="57.026081" y="146.476945" style="fill: #0271ae; stroke: #fefefa; stroke-width: 1.5"/>
     <use xlink:href="#mab5655f87b" x="64.966276" y="146.476945" style="fill: #0271ae; stroke: #fefefa; stroke-width: 1.5"/>
     <use xlink:href="#mab5655f87b" x="72.906471" y="146.476945" style="fill: #0271ae; stroke: #fefefa; stroke-width: 1.5"/>
     <use xlink:href="#mab5655f87b" x="80.846666" y="146.476945" style="fill: #0271ae; stroke: #fefefa; stroke-width: 1.5"/>
     <use xlink:href="#mab5655f87b" x="88.786861" y="146.476945" style="fill: #0271ae; stroke: #fefefa; stroke-width: 1.5"/>
     <use xlink:href="#mab5655f87b" x="96.727056" y="146.476945" style="fill: #0271ae; stroke: #fefefa; stroke-width: 1.5"/>
     <use xlink:href="#mab5655f87b" x="104.667251" y="146.476945" style="fill: #0271ae; stroke: #fefefa; stroke-width: 1.5"/>
     <use xlink:href="#mab5655f87b" x="112.607446" y="146.476945" style="fill: #0271ae; stroke: #fefefa; stroke-width: 1.5"/>
     <use xlink:href="#mab5655f87b" x="120.547641" y="146.476945" style="fill: #0271ae; stroke: #fefefa; stroke-width: 1.5"/>
     <use xlink:href="#mab5655f87b" x="128.487836" y="146.476945" style="fill: #0271ae; stroke: #fefefa; stroke-width: 1.5"/>
     <use xlink:href="#mab5655f87b" x="136.428031" y="146.476945" style="fill: #0271ae; stroke: #fefefa; stroke-width: 1.5"/>
     <use xlink:href="#mab5655f87b" x="144.368226" y="146.476945" style="fill: #0271ae; stroke: #fefefa; stroke-width: 1.5"/>
     <use xlink:href="#mab5655f87b" x="152.308421" y="146.476945" style="fill: #0271ae; stroke: #fefefa; stroke-width: 1.5"/>
     <use xlink:href="#mab5655f87b" x="160.248616" y="146.476945" style="fill: #0271ae; stroke: #fefefa; stroke-width: 1.5"/>
     <use xlink:href="#mab5655f87b" x="168.188811" y="146.476945" style="fill: #0271ae; stroke: #fefefa; stroke-width: 1.5"/>
     <use xlink:href="#mab5655f87b" x="176.129006" y="146.476945" style="fill: #0271ae; stroke: #fefefa; stroke-width: 1.5"/>
     <use xlink:href="#mab5655f87b" x="184.069201" y="146.476945" style="fill: #0271ae; stroke: #fefefa; stroke-width: 1.5"/>
     <use xlink:href="#mab5655f87b" x="192.009396" y="146.476945" style="fill: #0271ae; stroke: #fefefa; stroke-width: 1.5"/>
     <use xlink:href="#mab5655f87b" x="199.949591" y="146.476945" style="fill: #0271ae; stroke: #fefefa; stroke-width: 1.5"/>
    </g>
   </g>
  </g>
  <g id="axes_5">
   <g id="patch_9">
    <path d="M 221.83046 183.144379 
L 396.51475 183.144379 
L 396.51475 109.80951 
L 221.83046 109.80951 
L 221.83046 183.144379 
z
" style="fill: none"/>
   </g>
   <g id="patch_10">
    <path d="M 309.172605 183.144379 
L 309.172605 109.80951 
L 388.574555 109.80951 
L 388.574555 183.144379 
z
" clip-path="url(#p6d54017295)" style="opacity: 0.1; stroke: #000000; stroke-width: 0.5; stroke-linejoin: miter"/>
   </g>
   <g id="matplotlib.axis_9"/>
   <g id="matplotlib.axis_10">
    <g id="ytick_13">
     <g id="line2d_32">
      <path d="M 221.83046 179.810976 
L 396.51475 179.810976 
" clip-path="url(#p6d54017295)" style="fill: none; stroke: #000000; stroke-opacity: 0.2; stroke-width: 0.5; stroke-linecap: round"/>
     </g>
     <g id="line2d_33">
      <g>
       <use xlink:href="#mca0c9c8841" x="221.83046" y="179.810976" style="fill-opacity: 0.2; stroke: #000000; stroke-opacity: 0.2; stroke-width: 0.5"/>
      </g>
     </g>
    </g>
    <g id="ytick_14">
     <g id="line2d_34">
      <path d="M 221.83046 146.476945 
L 396.51475 146.476945 
" clip-path="url(#p6d54017295)" style="fill: none; stroke: #000000; stroke-opacity: 0.2; stroke-width: 0.5; stroke-linecap: round"/>
     </g>
     <g id="line2d_35">
      <g>
       <use xlink:href="#mca0c9c8841" x="221.83046" y="146.476945" style="fill-opacity: 0.2; stroke: #000000; stroke-opacity: 0.2; stroke-width: 0.5"/>
      </g>
     </g>
    </g>
    <g id="ytick_15">
     <g id="line2d_36">
      <path d="M 221.83046 113.142914 
L 396.51475 113.142914 
" clip-path="url(#p6d54017295)" style="fill: none; stroke: #000000; stroke-opacity: 0.2; stroke-width: 0.5; stroke-linecap: round"/>
     </g>
     <g id="line2d_37">
      <g>
       <use xlink:href="#mca0c9c8841" x="221.83046" y="113.142914" style="fill-opacity: 0.2; stroke: #000000; stroke-opacity: 0.2; stroke-width: 0.5"/>
      </g>
     </g>
    </g>
   </g>
   <g id="line2d_38">
    <g clip-path="url(#p6d54017295)">
     <use xlink:href="#me6c21a2c98" x="229.770655" y="179.810976" style="fill: #dc2830; stroke: #fefefa; stroke-width: 1.5"/>
     <use xlink:href="#me6c21a2c98" x="237.71085" y="179.810976" style="fill: #dc2830; stroke: #fefefa; stroke-width: 1.5"/>
     <use xlink:href="#me6c21a2c98" x="245.651045" y="179.810976" style="fill: #dc2830; stroke: #fefefa; stroke-width: 1.5"/>
     <use xlink:href="#me6c21a2c98" x="253.59124" y="179.810976" style="fill: #dc2830; stroke: #fefefa; stroke-width: 1.5"/>
     <use xlink:href="#me6c21a2c98" x="261.531435" y="179.810976" style="fill: #dc2830; stroke: #fefefa; stroke-width: 1.5"/>
     <use xlink:href="#me6c21a2c98" x="269.47163" y="179.810976" style="fill: #dc2830; stroke: #fefefa; stroke-width: 1.5"/>
     <use xlink:href="#me6c21a2c98" x="277.411825" y="179.810976" style="fill: #dc2830; stroke: #fefefa; stroke-width: 1.5"/>
     <use xlink:href="#me6c21a2c98" x="285.35202" y="179.810976" style="fill: #dc2830; stroke: #fefefa; stroke-width: 1.5"/>
     <use xlink:href="#me6c21a2c98" x="293.292215" y="179.810976" style="fill: #dc2830; stroke: #fefefa; stroke-width: 1.5"/>
     <use xlink:href="#me6c21a2c98" x="301.23241" y="179.810976" style="fill: #dc2830; stroke: #fefefa; stroke-width: 1.5"/>
     <use xlink:href="#me6c21a2c98" x="309.172605" y="179.810976" style="fill: #dc2830; stroke: #fefefa; stroke-width: 1.5"/>
     <use xlink:href="#me6c21a2c98" x="317.1128" y="179.810976" style="fill: #dc2830; stroke: #fefefa; stroke-width: 1.5"/>
     <use xlink:href="#me6c21a2c98" x="325.052995" y="179.810976" style="fill: #dc2830; stroke: #fefefa; stroke-width: 1.5"/>
     <use xlink:href="#me6c21a2c98" x="332.99319" y="179.810976" style="fill: #dc2830; stroke: #fefefa; stroke-width: 1.5"/>
     <use xlink:href="#me6c21a2c98" x="340.933385" y="179.810976" style="fill: #dc2830; stroke: #fefefa; stroke-width: 1.5"/>
     <use xlink:href="#me6c21a2c98" x="348.87358" y="179.810976" style="fill: #dc2830; stroke: #fefefa; stroke-width: 1.5"/>
     <use xlink:href="#me6c21a2c98" x="356.813775" y="179.810976" style="fill: #dc2830; stroke: #fefefa; stroke-width: 1.5"/>
     <use xlink:href="#me6c21a2c98" x="364.75397" y="179.810976" style="fill: #dc2830; stroke: #fefefa; stroke-width: 1.5"/>
     <use xlink:href="#me6c21a2c98" x="372.694165" y="179.810976" style="fill: #dc2830; stroke: #fefefa; stroke-width: 1.5"/>
     <use xlink:href="#me6c21a2c98" x="380.63436" y="179.810976" style="fill: #dc2830; stroke: #fefefa; stroke-width: 1.5"/>
    </g>
   </g>
   <g id="line2d_39">
    <g clip-path="url(#p6d54017295)">
     <use xlink:href="#mf74a90957e" x="229.770655" y="146.476945" style="fill: #007d4d; stroke: #fefefa; stroke-width: 1.5"/>
     <use xlink:href="#mf74a90957e" x="237.71085" y="146.476945" style="fill: #007d4d; stroke: #fefefa; stroke-width: 1.5"/>
     <use xlink:href="#mf74a90957e" x="245.651045" y="146.476945" style="fill: #007d4d; stroke: #fefefa; stroke-width: 1.5"/>
     <use xlink:href="#mf74a90957e" x="253.59124" y="146.476945" style="fill: #007d4d; stroke: #fefefa; stroke-width: 1.5"/>
     <use xlink:href="#mf74a90957e" x="261.531435" y="146.476945" style="fill: #007d4d; stroke: #fefefa; stroke-width: 1.5"/>
     <use xlink:href="#mf74a90957e" x="269.47163" y="146.476945" style="fill: #007d4d; stroke: #fefefa; stroke-width: 1.5"/>
     <use xlink:href="#mf74a90957e" x="277.411825" y="146.476945" style="fill: #007d4d; stroke: #fefefa; stroke-width: 1.5"/>
     <use xlink:href="#mf74a90957e" x="285.35202" y="146.476945" style="fill: #007d4d; stroke: #fefefa; stroke-width: 1.5"/>
     <use xlink:href="#mf74a90957e" x="293.292215" y="146.476945" style="fill: #007d4d; stroke: #fefefa; stroke-width: 1.5"/>
     <use xlink:href="#mf74a90957e" x="301.23241" y="146.476945" style="fill: #007d4d; stroke: #fefefa; stroke-width: 1.5"/>
     <use xlink:href="#mf74a90957e" x="309.172605" y="146.476945" style="fill: #007d4d; stroke: #fefefa; stroke-width: 1.5"/>
     <use xlink:href="#mf74a90957e" x="317.1128" y="146.476945" style="fill: #007d4d; stroke: #fefefa; stroke-width: 1.5"/>
     <use xlink:href="#mf74a90957e" x="325.052995" y="146.476945" style="fill: #007d4d; stroke: #fefefa; stroke-width: 1.5"/>
     <use xlink:href="#mf74a90957e" x="332.99319" y="146.476945" style="fill: #007d4d; stroke: #fefefa; stroke-width: 1.5"/>
     <use xlink:href="#mf74a90957e" x="340.933385" y="146.476945" style="fill: #007d4d; stroke: #fefefa; stroke-width: 1.5"/>
     <use xlink:href="#mf74a90957e" x="348.87358" y="146.476945" style="fill: #007d4d; stroke: #fefefa; stroke-width: 1.5"/>
     <use xlink:href="#mf74a90957e" x="356.813775" y="146.476945" style="fill: #007d4d; stroke: #fefefa; stroke-width: 1.5"/>
     <use xlink:href="#mf74a90957e" x="364.75397" y="146.476945" style="fill: #007d4d; stroke: #fefefa; stroke-width: 1.5"/>
     <use xlink:href="#mf74a90957e" x="372.694165" y="146.476945" style="fill: #007d4d; stroke: #fefefa; stroke-width: 1.5"/>
     <use xlink:href="#mf74a90957e" x="380.63436" y="146.476945" style="fill: #007d4d; stroke: #fefefa; stroke-width: 1.5"/>
    </g>
   </g>
  </g>
  <g id="axes_6">
   <g id="patch_11">
    <path d="M 402.51523 183.144379 
L 577.19952 183.144379 
L 577.19952 109.80951 
L 402.51523 109.80951 
L 402.51523 183.144379 
z
" style="fill: none"/>
   </g>
   <g id="patch_12">
    <path d="M 489.857375 183.144379 
L 489.857375 109.80951 
L 569.259325 109.80951 
L 569.259325 183.144379 
z
" clip-path="url(#pfb0b4cd87b)" style="opacity: 0.1; stroke: #000000; stroke-width: 0.5; stroke-linejoin: miter"/>
   </g>
   <g id="matplotlib.axis_11"/>
   <g id="matplotlib.axis_12">
    <g id="ytick_16">
     <g id="line2d_40">
      <path d="M 402.51523 179.810976 
L 577.19952 179.810976 
" clip-path="url(#pfb0b4cd87b)" style="fill: none; stroke: #000000; stroke-opacity: 0.2; stroke-width: 0.5; stroke-linecap: round"/>
     </g>
     <g id="line2d_41">
      <g>
       <use xlink:href="#mca0c9c8841" x="402.51523" y="179.810976" style="fill-opacity: 0.2; stroke: #000000; stroke-opacity: 0.2; stroke-width: 0.5"/>
      </g>
     </g>
    </g>
    <g id="ytick_17">
     <g id="line2d_42">
      <path d="M 402.51523 146.476945 
L 577.19952 146.476945 
" clip-path="url(#pfb0b4cd87b)" style="fill: none; stroke: #000000; stroke-opacity: 0.2; stroke-width: 0.5; stroke-linecap: round"/>
     </g>
     <g id="line2d_43">
      <g>
       <use xlink:href="#mca0c9c8841" x="402.51523" y="146.476945" style="fill-opacity: 0.2; stroke: #000000; stroke-opacity: 0.2; stroke-width: 0.5"/>
      </g>
     </g>
    </g>
    <g id="ytick_18">
     <g id="line2d_44">
      <path d="M 402.51523 113.142914 
L 577.19952 113.142914 
" clip-path="url(#pfb0b4cd87b)" style="fill: none; stroke: #000000; stroke-opacity: 0.2; stroke-width: 0.5; stroke-linecap: round"/>
     </g>
     <g id="line2d_45">
      <g>
       <use xlink:href="#mca0c9c8841" x="402.51523" y="113.142914" style="fill-opacity: 0.2; stroke: #000000; stroke-opacity: 0.2; stroke-width: 0.5"/>
      </g>
     </g>
    </g>
   </g>
   <g id="line2d_46">
    <g clip-path="url(#pfb0b4cd87b)">
     <use xlink:href="#m88d552b0bb" x="410.455425" y="113.142914" style="fill: #444f95; stroke: #fefefa; stroke-width: 1.5"/>
     <use xlink:href="#m88d552b0bb" x="418.39562" y="113.142914" style="fill: #444f95; stroke: #fefefa; stroke-width: 1.5"/>
     <use xlink:href="#m88d552b0bb" x="426.335815" y="113.142914" style="fill: #444f95; stroke: #fefefa; stroke-width: 1.5"/>
     <use xlink:href="#m88d552b0bb" x="434.27601" y="113.142914" style="fill: #444f95; stroke: #fefefa; stroke-width: 1.5"/>
     <use xlink:href="#m88d552b0bb" x="442.216205" y="113.142914" style="fill: #444f95; stroke: #fefefa; stroke-width: 1.5"/>
     <use xlink:href="#m88d552b0bb" x="450.1564" y="113.142914" style="fill: #444f95; stroke: #fefefa; stroke-width: 1.5"/>
     <use xlink:href="#m88d552b0bb" x="458.096595" y="113.142914" style="fill: #444f95; stroke: #fefefa; stroke-width: 1.5"/>
     <use xlink:href="#m88d552b0bb" x="466.03679" y="113.142914" style="fill: #444f95; stroke: #fefefa; stroke-width: 1.5"/>
     <use xlink:href="#m88d552b0bb" x="473.976985" y="113.142914" style="fill: #444f95; stroke: #fefefa; stroke-width: 1.5"/>
     <use xlink:href="#m88d552b0bb" x="481.91718" y="113.142914" style="fill: #444f95; stroke: #fefefa; stroke-width: 1.5"/>
     <use xlink:href="#m88d552b0bb" x="489.857375" y="113.142914" style="fill: #444f95; stroke: #fefefa; stroke-width: 1.5"/>
     <use xlink:href="#m88d552b0bb" x="497.79757" y="113.142914" style="fill: #444f95; stroke: #fefefa; stroke-width: 1.5"/>
     <use xlink:href="#m88d552b0bb" x="505.737765" y="113.142914" style="fill: #444f95; stroke: #fefefa; stroke-width: 1.5"/>
     <use xlink:href="#m88d552b0bb" x="513.67796" y="113.142914" style="fill: #444f95; stroke: #fefefa; stroke-width: 1.5"/>
     <use xlink:href="#m88d552b0bb" x="521.618155" y="113.142914" style="fill: #444f95; stroke: #fefefa; stroke-width: 1.5"/>
     <use xlink:href="#m88d552b0bb" x="529.55835" y="113.142914" style="fill: #444f95; stroke: #fefefa; stroke-width: 1.5"/>
     <use xlink:href="#m88d552b0bb" x="537.498545" y="113.142914" style="fill: #444f95; stroke: #fefefa; stroke-width: 1.5"/>
     <use xlink:href="#m88d552b0bb" x="545.43874" y="113.142914" style="fill: #444f95; stroke: #fefefa; stroke-width: 1.5"/>
     <use xlink:href="#m88d552b0bb" x="553.378935" y="113.142914" style="fill: #444f95; stroke: #fefefa; stroke-width: 1.5"/>
     <use xlink:href="#m88d552b0bb" x="561.31913" y="113.142914" style="fill: #444f95; stroke: #fefefa; stroke-width: 1.5"/>
    </g>
   </g>
  </g>
  <g id="axes_7">
   <g id="patch_13">
    <path d="M 41.145691 269.77436 
L 215.82998 269.77436 
L 215.82998 196.439492 
L 41.145691 196.439492 
L 41.145691 269.77436 
z
" style="fill: none"/>
   </g>
   <g id="matplotlib.axis_13">
    <g id="text_12">
     <!-- Samples $n$ -->
     <g transform="translate(101.460442 285.828236)scale(0.12 -0.12)">
      <defs>
       <path id="URWPalladioL-Roma-53" d="M 2861 3371 
C 2861 3711 2886 3929 2950 4275 
C 2438 4479 2150 4544 1798 4544 
C 845 4544 154 3942 154 3102 
C 154 2788 237 2557 422 2384 
C 640 2185 934 2083 1555 1999 
C 2048 1929 2272 1858 2438 1711 
C 2605 1576 2682 1390 2682 1147 
C 2682 570 2202 153 1536 153 
C 1024 153 525 403 493 666 
L 442 1095 
L 237 1095 
C 243 980 243 877 243 839 
C 243 544 230 403 192 115 
C 557 -45 928 -128 1299 -128 
C 2413 -128 3219 544 3219 1474 
C 3219 1775 3136 1986 2957 2153 
C 2733 2365 2464 2448 1747 2544 
C 966 2647 691 2858 691 3352 
C 691 3890 1094 4275 1658 4275 
C 1907 4275 2144 4224 2317 4127 
C 2528 4018 2598 3922 2618 3736 
L 2656 3371 
L 2861 3371 
z
" transform="scale(0.015625)"/>
       <path id="URWPalladioL-Ital-6e" d="M 154 2471 
L 198 2343 
L 403 2477 
C 640 2624 659 2637 704 2637 
C 774 2637 819 2573 819 2477 
C 819 2152 557 919 294 6 
L 339 -64 
C 499 -20 646 19 787 44 
C 909 849 1043 1264 1338 1705 
C 1683 2241 2163 2637 2451 2637 
C 2522 2637 2560 2579 2560 2484 
C 2560 2369 2541 2235 2490 2030 
L 2157 677 
C 2099 440 2074 293 2074 191 
C 2074 32 2144 -64 2266 -64 
C 2432 -64 2662 70 3290 536 
L 3226 651 
L 3059 542 
C 2874 421 2733 351 2669 351 
C 2624 351 2586 408 2586 479 
C 2586 511 2592 581 2598 606 
L 3021 2369 
C 3066 2554 3091 2733 3091 2841 
C 3091 2988 3021 3072 2893 3072 
C 2624 3072 2182 2829 1805 2477 
C 1562 2254 1382 2037 1050 1571 
L 1293 2599 
C 1318 2714 1331 2790 1331 2860 
C 1331 2995 1280 3072 1184 3072 
C 1050 3072 800 2931 333 2599 
L 154 2471 
z
" transform="scale(0.015625)"/>
      </defs>
      <use xlink:href="#URWPalladioL-Roma-53" transform="scale(0.996264)"/>
      <use xlink:href="#URWPalladioL-Roma-61" transform="translate(52.303815 0)scale(0.996264)"/>
      <use xlink:href="#URWPalladioL-Roma-6d" transform="translate(102.117015 0)scale(0.996264)"/>
      <use xlink:href="#URWPalladioL-Roma-70" transform="translate(190.08669 0)scale(0.996264)"/>
      <use xlink:href="#URWPalladioL-Roma-6c" transform="translate(249.961083 0)scale(0.996264)"/>
      <use xlink:href="#URWPalladioL-Roma-65" transform="translate(278.951445 0)scale(0.996264)"/>
      <use xlink:href="#URWPalladioL-Roma-73" transform="translate(326.67174 0)scale(0.996264)"/>
      <use xlink:href="#URWPalladioL-Ital-6e" transform="translate(395.065106 0)scale(0.996264)"/>
     </g>
    </g>
   </g>
   <g id="matplotlib.axis_14">
    <g id="ytick_19">
     <g id="line2d_47">
      <path d="M 41.145691 266.440957 
L 215.82998 266.440957 
" clip-path="url(#pf8cb57ee3d)" style="fill: none; stroke: #000000; stroke-opacity: 0.2; stroke-width: 0.5; stroke-linecap: round"/>
     </g>
     <g id="line2d_48">
      <g>
       <use xlink:href="#mca0c9c8841" x="41.145691" y="266.440957" style="fill-opacity: 0.2; stroke: #000000; stroke-opacity: 0.2; stroke-width: 0.5"/>
      </g>
     </g>
     <g id="text_13">
      <!-- $\mathdefault{−1}$ -->
      <g transform="translate(7.2 271.430722)scale(0.14 -0.14)">
       <use xlink:href="#CMSY10-0" transform="scale(1.038107)"/>
       <use xlink:href="#URWPalladioL-Roma-31" transform="translate(81.941696 0)scale(0.996264)"/>
      </g>
     </g>
    </g>
    <g id="ytick_20">
     <g id="line2d_49">
      <path d="M 41.145691 233.106926 
L 215.82998 233.106926 
" clip-path="url(#pf8cb57ee3d)" style="fill: none; stroke: #000000; stroke-opacity: 0.2; stroke-width: 0.5; stroke-linecap: round"/>
     </g>
     <g id="line2d_50">
      <g>
       <use xlink:href="#mca0c9c8841" x="41.145691" y="233.106926" style="fill-opacity: 0.2; stroke: #000000; stroke-opacity: 0.2; stroke-width: 0.5"/>
      </g>
     </g>
     <g id="text_14">
      <!-- $\mathdefault{0}$ -->
      <g transform="translate(18.671843 238.096691)scale(0.14 -0.14)">
       <use xlink:href="#URWPalladioL-Roma-30" transform="scale(0.996264)"/>
      </g>
     </g>
    </g>
    <g id="ytick_21">
     <g id="line2d_51">
      <path d="M 41.145691 199.772895 
L 215.82998 199.772895 
" clip-path="url(#pf8cb57ee3d)" style="fill: none; stroke: #000000; stroke-opacity: 0.2; stroke-width: 0.5; stroke-linecap: round"/>
     </g>
     <g id="line2d_52">
      <g>
       <use xlink:href="#mca0c9c8841" x="41.145691" y="199.772895" style="fill-opacity: 0.2; stroke: #000000; stroke-opacity: 0.2; stroke-width: 0.5"/>
      </g>
     </g>
     <g id="text_15">
      <!-- $\mathdefault{1}$ -->
      <g transform="translate(18.671843 204.762659)scale(0.14 -0.14)">
       <use xlink:href="#URWPalladioL-Roma-31" transform="scale(0.996264)"/>
      </g>
     </g>
    </g>
   </g>
   <g id="line2d_53">
    <path d="M 49.085886 233.106926 
L 57.026081 233.106926 
L 57.026081 233.106926 
L 64.966276 233.106926 
L 64.966276 199.772895 
L 72.906471 199.772895 
L 72.906471 233.106926 
L 80.846666 233.106926 
L 80.846666 233.106926 
L 88.786861 233.106926 
L 88.786861 233.106926 
L 96.727056 233.106926 
L 96.727056 233.106926 
L 104.667251 233.106926 
L 104.667251 233.106926 
L 112.607446 233.106926 
L 112.607446 233.106926 
L 120.547641 233.106926 
L 120.547641 233.106926 
L 128.487836 233.106926 
L 128.487836 233.106926 
L 136.428031 233.106926 
L 136.428031 233.106926 
L 144.368226 233.106926 
L 144.368226 233.106926 
L 152.308421 233.106926 
L 152.308421 233.106926 
L 160.248616 233.106926 
L 160.248616 233.106926 
L 168.188811 233.106926 
L 168.188811 233.106926 
L 176.129006 233.106926 
L 176.129006 233.106926 
L 184.069201 233.106926 
L 184.069201 233.106926 
L 192.009396 233.106926 
L 192.009396 233.106926 
L 199.949591 233.106926 
L 199.949591 233.106926 
" clip-path="url(#pf8cb57ee3d)" style="fill: none; stroke: #0271ae; stroke-width: 2; stroke-linecap: round"/>
    <g clip-path="url(#pf8cb57ee3d)">
     <use xlink:href="#mab5655f87b" x="49.085886" y="233.106926" style="fill: #0271ae; stroke: #fefefa; stroke-width: 1.5"/>
     <use xlink:href="#mab5655f87b" x="57.026081" y="233.106926" style="fill: #0271ae; stroke: #fefefa; stroke-width: 1.5"/>
     <use xlink:href="#mab5655f87b" x="64.966276" y="199.772895" style="fill: #0271ae; stroke: #fefefa; stroke-width: 1.5"/>
     <use xlink:href="#mab5655f87b" x="72.906471" y="233.106926" style="fill: #0271ae; stroke: #fefefa; stroke-width: 1.5"/>
     <use xlink:href="#mab5655f87b" x="80.846666" y="233.106926" style="fill: #0271ae; stroke: #fefefa; stroke-width: 1.5"/>
     <use xlink:href="#mab5655f87b" x="88.786861" y="233.106926" style="fill: #0271ae; stroke: #fefefa; stroke-width: 1.5"/>
     <use xlink:href="#mab5655f87b" x="96.727056" y="233.106926" style="fill: #0271ae; stroke: #fefefa; stroke-width: 1.5"/>
     <use xlink:href="#mab5655f87b" x="104.667251" y="233.106926" style="fill: #0271ae; stroke: #fefefa; stroke-width: 1.5"/>
     <use xlink:href="#mab5655f87b" x="112.607446" y="233.106926" style="fill: #0271ae; stroke: #fefefa; stroke-width: 1.5"/>
     <use xlink:href="#mab5655f87b" x="120.547641" y="233.106926" style="fill: #0271ae; stroke: #fefefa; stroke-width: 1.5"/>
     <use xlink:href="#mab5655f87b" x="128.487836" y="233.106926" style="fill: #0271ae; stroke: #fefefa; stroke-width: 1.5"/>
     <use xlink:href="#mab5655f87b" x="136.428031" y="233.106926" style="fill: #0271ae; stroke: #fefefa; stroke-width: 1.5"/>
     <use xlink:href="#mab5655f87b" x="144.368226" y="233.106926" style="fill: #0271ae; stroke: #fefefa; stroke-width: 1.5"/>
     <use xlink:href="#mab5655f87b" x="152.308421" y="233.106926" style="fill: #0271ae; stroke: #fefefa; stroke-width: 1.5"/>
     <use xlink:href="#mab5655f87b" x="160.248616" y="233.106926" style="fill: #0271ae; stroke: #fefefa; stroke-width: 1.5"/>
     <use xlink:href="#mab5655f87b" x="168.188811" y="233.106926" style="fill: #0271ae; stroke: #fefefa; stroke-width: 1.5"/>
     <use xlink:href="#mab5655f87b" x="176.129006" y="233.106926" style="fill: #0271ae; stroke: #fefefa; stroke-width: 1.5"/>
     <use xlink:href="#mab5655f87b" x="184.069201" y="233.106926" style="fill: #0271ae; stroke: #fefefa; stroke-width: 1.5"/>
     <use xlink:href="#mab5655f87b" x="192.009396" y="233.106926" style="fill: #0271ae; stroke: #fefefa; stroke-width: 1.5"/>
     <use xlink:href="#mab5655f87b" x="199.949591" y="233.106926" style="fill: #0271ae; stroke: #fefefa; stroke-width: 1.5"/>
    </g>
   </g>
  </g>
  <g id="axes_8">
   <g id="patch_14">
    <path d="M 221.83046 269.77436 
L 396.51475 269.77436 
L 396.51475 196.439492 
L 221.83046 196.439492 
L 221.83046 269.77436 
z
" style="fill: none"/>
   </g>
   <g id="patch_15">
    <path d="M 309.172605 269.77436 
L 309.172605 196.439492 
L 388.574555 196.439492 
L 388.574555 269.77436 
z
" clip-path="url(#p0402922638)" style="opacity: 0.1; stroke: #000000; stroke-width: 0.5; stroke-linejoin: miter"/>
   </g>
   <g id="matplotlib.axis_15">
    <g id="text_16">
     <!-- Frequencies $m$ -->
     <g transform="translate(271.427606 285.828236)scale(0.12 -0.12)">
      <defs>
       <path id="URWPalladioL-Ital-6d" d="M 4672 651 
L 4506 542 
C 4320 421 4179 351 4115 351 
C 4070 351 4032 408 4032 479 
C 4032 542 4045 600 4077 734 
L 4557 2631 
C 4582 2739 4602 2841 4602 2892 
C 4602 3001 4538 3072 4435 3072 
C 4250 3072 4006 2956 3616 2682 
C 3213 2394 2989 2171 2675 1730 
L 2867 2605 
C 2893 2733 2912 2829 2912 2873 
C 2912 2995 2848 3072 2746 3072 
C 2554 3072 2259 2931 1907 2663 
C 1626 2445 1498 2311 1082 1749 
L 1293 2599 
C 1318 2701 1331 2797 1331 2873 
C 1331 2995 1274 3072 1184 3072 
C 1050 3072 806 2937 333 2599 
L 154 2471 
L 198 2343 
L 403 2477 
C 640 2624 659 2637 704 2637 
C 774 2637 819 2573 819 2477 
C 819 2152 557 919 294 6 
L 314 -64 
L 749 32 
L 890 683 
C 1043 1392 1216 1769 1568 2152 
C 1837 2445 2125 2637 2304 2637 
C 2349 2637 2374 2586 2374 2503 
C 2374 2279 2234 1551 1971 434 
L 1869 6 
L 1901 -64 
L 2342 32 
L 2477 715 
C 2579 1232 2797 1711 3078 2024 
C 3430 2413 3750 2637 3955 2637 
C 4006 2637 4038 2579 4038 2477 
C 4038 2324 4019 2235 3878 1679 
C 3776 1277 3667 894 3603 677 
C 3546 498 3520 332 3520 191 
C 3520 32 3590 -64 3712 -64 
C 3878 -64 4109 70 4736 536 
L 4672 651 
z
" transform="scale(0.015625)"/>
      </defs>
      <use xlink:href="#URWPalladioL-Roma-46" transform="scale(0.996264)"/>
      <use xlink:href="#URWPalladioL-Roma-72" transform="translate(55.391677 0)scale(0.996264)"/>
      <use xlink:href="#URWPalladioL-Roma-65" transform="translate(92.950994 0)scale(0.996264)"/>
      <use xlink:href="#URWPalladioL-Roma-71" transform="translate(140.671289 0)scale(0.996264)"/>
      <use xlink:href="#URWPalladioL-Roma-75" transform="translate(196.461922 0)scale(0.996264)"/>
      <use xlink:href="#URWPalladioL-Roma-65" transform="translate(256.535657 0)scale(0.996264)"/>
      <use xlink:href="#URWPalladioL-Roma-6e" transform="translate(304.255952 0)scale(0.996264)"/>
      <use xlink:href="#URWPalladioL-Roma-63" transform="translate(362.238012 0)scale(0.996264)"/>
      <use xlink:href="#URWPalladioL-Roma-69" transform="translate(406.471581 0)scale(0.996264)"/>
      <use xlink:href="#URWPalladioL-Roma-65" transform="translate(435.461943 0)scale(0.996264)"/>
      <use xlink:href="#URWPalladioL-Roma-73" transform="translate(483.182238 0)scale(0.996264)"/>
      <use xlink:href="#URWPalladioL-Ital-6d" transform="translate(551.575604 0)scale(0.996264)"/>
     </g>
    </g>
   </g>
   <g id="matplotlib.axis_16">
    <g id="ytick_22">
     <g id="line2d_54">
      <path d="M 221.83046 266.440957 
L 396.51475 266.440957 
" clip-path="url(#p0402922638)" style="fill: none; stroke: #000000; stroke-opacity: 0.2; stroke-width: 0.5; stroke-linecap: round"/>
     </g>
     <g id="line2d_55">
      <g>
       <use xlink:href="#mca0c9c8841" x="221.83046" y="266.440957" style="fill-opacity: 0.2; stroke: #000000; stroke-opacity: 0.2; stroke-width: 0.5"/>
      </g>
     </g>
    </g>
    <g id="ytick_23">
     <g id="line2d_56">
      <path d="M 221.83046 233.106926 
L 396.51475 233.106926 
" clip-path="url(#p0402922638)" style="fill: none; stroke: #000000; stroke-opacity: 0.2; stroke-width: 0.5; stroke-linecap: round"/>
     </g>
     <g id="line2d_57">
      <g>
       <use xlink:href="#mca0c9c8841" x="221.83046" y="233.106926" style="fill-opacity: 0.2; stroke: #000000; stroke-opacity: 0.2; stroke-width: 0.5"/>
      </g>
     </g>
    </g>
    <g id="ytick_24">
     <g id="line2d_58">
      <path d="M 221.83046 199.772895 
L 396.51475 199.772895 
" clip-path="url(#p0402922638)" style="fill: none; stroke: #000000; stroke-opacity: 0.2; stroke-width: 0.5; stroke-linecap: round"/>
     </g>
     <g id="line2d_59">
      <g>
       <use xlink:href="#mca0c9c8841" x="221.83046" y="199.772895" style="fill-opacity: 0.2; stroke: #000000; stroke-opacity: 0.2; stroke-width: 0.5"/>
      </g>
     </g>
    </g>
   </g>
   <g id="line2d_60">
    <g clip-path="url(#p0402922638)">
     <use xlink:href="#me6c21a2c98" x="229.770655" y="199.772895" style="fill: #dc2830; stroke: #fefefa; stroke-width: 1.5"/>
     <use xlink:href="#me6c21a2c98" x="237.71085" y="206.139128" style="fill: #dc2830; stroke: #fefefa; stroke-width: 1.5"/>
     <use xlink:href="#me6c21a2c98" x="245.651045" y="222.806144" style="fill: #dc2830; stroke: #fefefa; stroke-width: 1.5"/>
     <use xlink:href="#me6c21a2c98" x="253.59124" y="243.407708" style="fill: #dc2830; stroke: #fefefa; stroke-width: 1.5"/>
     <use xlink:href="#me6c21a2c98" x="261.531435" y="260.074724" style="fill: #dc2830; stroke: #fefefa; stroke-width: 1.5"/>
     <use xlink:href="#me6c21a2c98" x="269.47163" y="266.440957" style="fill: #dc2830; stroke: #fefefa; stroke-width: 1.5"/>
     <use xlink:href="#me6c21a2c98" x="277.411825" y="260.074724" style="fill: #dc2830; stroke: #fefefa; stroke-width: 1.5"/>
     <use xlink:href="#me6c21a2c98" x="285.35202" y="243.407708" style="fill: #dc2830; stroke: #fefefa; stroke-width: 1.5"/>
     <use xlink:href="#me6c21a2c98" x="293.292215" y="222.806144" style="fill: #dc2830; stroke: #fefefa; stroke-width: 1.5"/>
     <use xlink:href="#me6c21a2c98" x="301.23241" y="206.139128" style="fill: #dc2830; stroke: #fefefa; stroke-width: 1.5"/>
     <use xlink:href="#me6c21a2c98" x="309.172605" y="199.772895" style="fill: #dc2830; stroke: #fefefa; stroke-width: 1.5"/>
     <use xlink:href="#me6c21a2c98" x="317.1128" y="206.139128" style="fill: #dc2830; stroke: #fefefa; stroke-width: 1.5"/>
     <use xlink:href="#me6c21a2c98" x="325.052995" y="222.806144" style="fill: #dc2830; stroke: #fefefa; stroke-width: 1.5"/>
     <use xlink:href="#me6c21a2c98" x="332.99319" y="243.407708" style="fill: #dc2830; stroke: #fefefa; stroke-width: 1.5"/>
     <use xlink:href="#me6c21a2c98" x="340.933385" y="260.074724" style="fill: #dc2830; stroke: #fefefa; stroke-width: 1.5"/>
     <use xlink:href="#me6c21a2c98" x="348.87358" y="266.440957" style="fill: #dc2830; stroke: #fefefa; stroke-width: 1.5"/>
     <use xlink:href="#me6c21a2c98" x="356.813775" y="260.074724" style="fill: #dc2830; stroke: #fefefa; stroke-width: 1.5"/>
     <use xlink:href="#me6c21a2c98" x="364.75397" y="243.407708" style="fill: #dc2830; stroke: #fefefa; stroke-width: 1.5"/>
     <use xlink:href="#me6c21a2c98" x="372.694165" y="222.806144" style="fill: #dc2830; stroke: #fefefa; stroke-width: 1.5"/>
     <use xlink:href="#me6c21a2c98" x="380.63436" y="206.139128" style="fill: #dc2830; stroke: #fefefa; stroke-width: 1.5"/>
    </g>
   </g>
   <g id="line2d_61">
    <g clip-path="url(#p0402922638)">
     <use xlink:href="#mf74a90957e" x="229.770655" y="233.106926" style="fill: #007d4d; stroke: #fefefa; stroke-width: 1.5"/>
     <use xlink:href="#mf74a90957e" x="237.71085" y="252.700178" style="fill: #007d4d; stroke: #fefefa; stroke-width: 1.5"/>
     <use xlink:href="#mf74a90957e" x="245.651045" y="264.809473" style="fill: #007d4d; stroke: #fefefa; stroke-width: 1.5"/>
     <use xlink:href="#mf74a90957e" x="253.59124" y="264.809473" style="fill: #007d4d; stroke: #fefefa; stroke-width: 1.5"/>
     <use xlink:href="#mf74a90957e" x="261.531435" y="252.700178" style="fill: #007d4d; stroke: #fefefa; stroke-width: 1.5"/>
     <use xlink:href="#mf74a90957e" x="269.47163" y="233.106926" style="fill: #007d4d; stroke: #fefefa; stroke-width: 1.5"/>
     <use xlink:href="#mf74a90957e" x="277.411825" y="213.513674" style="fill: #007d4d; stroke: #fefefa; stroke-width: 1.5"/>
     <use xlink:href="#mf74a90957e" x="285.35202" y="201.404378" style="fill: #007d4d; stroke: #fefefa; stroke-width: 1.5"/>
     <use xlink:href="#mf74a90957e" x="293.292215" y="201.404378" style="fill: #007d4d; stroke: #fefefa; stroke-width: 1.5"/>
     <use xlink:href="#mf74a90957e" x="301.23241" y="213.513674" style="fill: #007d4d; stroke: #fefefa; stroke-width: 1.5"/>
     <use xlink:href="#mf74a90957e" x="309.172605" y="233.106926" style="fill: #007d4d; stroke: #fefefa; stroke-width: 1.5"/>
     <use xlink:href="#mf74a90957e" x="317.1128" y="252.700178" style="fill: #007d4d; stroke: #fefefa; stroke-width: 1.5"/>
     <use xlink:href="#mf74a90957e" x="325.052995" y="264.809473" style="fill: #007d4d; stroke: #fefefa; stroke-width: 1.5"/>
     <use xlink:href="#mf74a90957e" x="332.99319" y="264.809473" style="fill: #007d4d; stroke: #fefefa; stroke-width: 1.5"/>
     <use xlink:href="#mf74a90957e" x="340.933385" y="252.700178" style="fill: #007d4d; stroke: #fefefa; stroke-width: 1.5"/>
     <use xlink:href="#mf74a90957e" x="348.87358" y="233.106926" style="fill: #007d4d; stroke: #fefefa; stroke-width: 1.5"/>
     <use xlink:href="#mf74a90957e" x="356.813775" y="213.513674" style="fill: #007d4d; stroke: #fefefa; stroke-width: 1.5"/>
     <use xlink:href="#mf74a90957e" x="364.75397" y="201.404378" style="fill: #007d4d; stroke: #fefefa; stroke-width: 1.5"/>
     <use xlink:href="#mf74a90957e" x="372.694165" y="201.404378" style="fill: #007d4d; stroke: #fefefa; stroke-width: 1.5"/>
     <use xlink:href="#mf74a90957e" x="380.63436" y="213.513674" style="fill: #007d4d; stroke: #fefefa; stroke-width: 1.5"/>
    </g>
   </g>
  </g>
  <g id="axes_9">
   <g id="patch_16">
    <path d="M 402.51523 269.77436 
L 577.19952 269.77436 
L 577.19952 196.439492 
L 402.51523 196.439492 
L 402.51523 269.77436 
z
" style="fill: none"/>
   </g>
   <g id="patch_17">
    <path d="M 489.857375 269.77436 
L 489.857375 196.439492 
L 569.259325 196.439492 
L 569.259325 269.77436 
z
" clip-path="url(#pd90cc27538)" style="opacity: 0.1; stroke: #000000; stroke-width: 0.5; stroke-linejoin: miter"/>
   </g>
   <g id="matplotlib.axis_17">
    <g id="text_17">
     <!-- Frequencies $m$ -->
     <g transform="translate(452.112376 285.828236)scale(0.12 -0.12)">
      <use xlink:href="#URWPalladioL-Roma-46" transform="scale(0.996264)"/>
      <use xlink:href="#URWPalladioL-Roma-72" transform="translate(55.391677 0)scale(0.996264)"/>
      <use xlink:href="#URWPalladioL-Roma-65" transform="translate(92.950994 0)scale(0.996264)"/>
      <use xlink:href="#URWPalladioL-Roma-71" transform="translate(140.671289 0)scale(0.996264)"/>
      <use xlink:href="#URWPalladioL-Roma-75" transform="translate(196.461922 0)scale(0.996264)"/>
      <use xlink:href="#URWPalladioL-Roma-65" transform="translate(256.535657 0)scale(0.996264)"/>
      <use xlink:href="#URWPalladioL-Roma-6e" transform="translate(304.255952 0)scale(0.996264)"/>
      <use xlink:href="#URWPalladioL-Roma-63" transform="translate(362.238012 0)scale(0.996264)"/>
      <use xlink:href="#URWPalladioL-Roma-69" transform="translate(406.471581 0)scale(0.996264)"/>
      <use xlink:href="#URWPalladioL-Roma-65" transform="translate(435.461943 0)scale(0.996264)"/>
      <use xlink:href="#URWPalladioL-Roma-73" transform="translate(483.182238 0)scale(0.996264)"/>
      <use xlink:href="#URWPalladioL-Ital-6d" transform="translate(551.575604 0)scale(0.996264)"/>
     </g>
    </g>
   </g>
   <g id="matplotlib.axis_18">
    <g id="ytick_25">
     <g id="line2d_62">
      <path d="M 402.51523 266.440957 
L 577.19952 266.440957 
" clip-path="url(#pd90cc27538)" style="fill: none; stroke: #000000; stroke-opacity: 0.2; stroke-width: 0.5; stroke-linecap: round"/>
     </g>
     <g id="line2d_63">
      <g>
       <use xlink:href="#mca0c9c8841" x="402.51523" y="266.440957" style="fill-opacity: 0.2; stroke: #000000; stroke-opacity: 0.2; stroke-width: 0.5"/>
      </g>
     </g>
    </g>
    <g id="ytick_26">
     <g id="line2d_64">
      <path d="M 402.51523 233.106926 
L 577.19952 233.106926 
" clip-path="url(#pd90cc27538)" style="fill: none; stroke: #000000; stroke-opacity: 0.2; stroke-width: 0.5; stroke-linecap: round"/>
     </g>
     <g id="line2d_65">
      <g>
       <use xlink:href="#mca0c9c8841" x="402.51523" y="233.106926" style="fill-opacity: 0.2; stroke: #000000; stroke-opacity: 0.2; stroke-width: 0.5"/>
      </g>
     </g>
    </g>
    <g id="ytick_27">
     <g id="line2d_66">
      <path d="M 402.51523 199.772895 
L 577.19952 199.772895 
" clip-path="url(#pd90cc27538)" style="fill: none; stroke: #000000; stroke-opacity: 0.2; stroke-width: 0.5; stroke-linecap: round"/>
     </g>
     <g id="line2d_67">
      <g>
       <use xlink:href="#mca0c9c8841" x="402.51523" y="199.772895" style="fill-opacity: 0.2; stroke: #000000; stroke-opacity: 0.2; stroke-width: 0.5"/>
      </g>
     </g>
    </g>
   </g>
   <g id="line2d_68">
    <g clip-path="url(#pd90cc27538)">
     <use xlink:href="#m88d552b0bb" x="410.455425" y="199.772895" style="fill: #444f95; stroke: #fefefa; stroke-width: 1.5"/>
     <use xlink:href="#m88d552b0bb" x="418.39562" y="199.772895" style="fill: #444f95; stroke: #fefefa; stroke-width: 1.5"/>
     <use xlink:href="#m88d552b0bb" x="426.335815" y="199.772895" style="fill: #444f95; stroke: #fefefa; stroke-width: 1.5"/>
     <use xlink:href="#m88d552b0bb" x="434.27601" y="199.772895" style="fill: #444f95; stroke: #fefefa; stroke-width: 1.5"/>
     <use xlink:href="#m88d552b0bb" x="442.216205" y="199.772895" style="fill: #444f95; stroke: #fefefa; stroke-width: 1.5"/>
     <use xlink:href="#m88d552b0bb" x="450.1564" y="199.772895" style="fill: #444f95; stroke: #fefefa; stroke-width: 1.5"/>
     <use xlink:href="#m88d552b0bb" x="458.096595" y="199.772895" style="fill: #444f95; stroke: #fefefa; stroke-width: 1.5"/>
     <use xlink:href="#m88d552b0bb" x="466.03679" y="199.772895" style="fill: #444f95; stroke: #fefefa; stroke-width: 1.5"/>
     <use xlink:href="#m88d552b0bb" x="473.976985" y="199.772895" style="fill: #444f95; stroke: #fefefa; stroke-width: 1.5"/>
     <use xlink:href="#m88d552b0bb" x="481.91718" y="199.772895" style="fill: #444f95; stroke: #fefefa; stroke-width: 1.5"/>
     <use xlink:href="#m88d552b0bb" x="489.857375" y="199.772895" style="fill: #444f95; stroke: #fefefa; stroke-width: 1.5"/>
     <use xlink:href="#m88d552b0bb" x="497.79757" y="199.772895" style="fill: #444f95; stroke: #fefefa; stroke-width: 1.5"/>
     <use xlink:href="#m88d552b0bb" x="505.737765" y="199.772895" style="fill: #444f95; stroke: #fefefa; stroke-width: 1.5"/>
     <use xlink:href="#m88d552b0bb" x="513.67796" y="199.772895" style="fill: #444f95; stroke: #fefefa; stroke-width: 1.5"/>
     <use xlink:href="#m88d552b0bb" x="521.618155" y="199.772895" style="fill: #444f95; stroke: #fefefa; stroke-width: 1.5"/>
     <use xlink:href="#m88d552b0bb" x="529.55835" y="199.772895" style="fill: #444f95; stroke: #fefefa; stroke-width: 1.5"/>
     <use xlink:href="#m88d552b0bb" x="537.498545" y="199.772895" style="fill: #444f95; stroke: #fefefa; stroke-width: 1.5"/>
     <use xlink:href="#m88d552b0bb" x="545.43874" y="199.772895" style="fill: #444f95; stroke: #fefefa; stroke-width: 1.5"/>
     <use xlink:href="#m88d552b0bb" x="553.378935" y="199.772895" style="fill: #444f95; stroke: #fefefa; stroke-width: 1.5"/>
     <use xlink:href="#m88d552b0bb" x="561.31913" y="199.772895" style="fill: #444f95; stroke: #fefefa; stroke-width: 1.5"/>
    </g>
   </g>
  </g>
 </g>
 <defs>
  <clipPath id="p60a3800e23">
   <rect x="41.145691" y="23.179529" width="174.68429" height="73.334869"/>
  </clipPath>
  <clipPath id="pc42a5f5eea">
   <rect x="221.83046" y="23.179529" width="174.68429" height="73.334869"/>
  </clipPath>
  <clipPath id="pc8e5481a7b">
   <rect x="402.51523" y="23.179529" width="174.68429" height="73.334869"/>
  </clipPath>
  <clipPath id="p84e0de3f52">
   <rect x="41.145691" y="109.80951" width="174.68429" height="73.334869"/>
  </clipPath>
  <clipPath id="p6d54017295">
   <rect x="221.83046" y="109.80951" width="174.68429" height="73.334869"/>
  </clipPath>
  <clipPath id="pfb0b4cd87b">
   <rect x="402.51523" y="109.80951" width="174.68429" height="73.334869"/>
  </clipPath>
  <clipPath id="pf8cb57ee3d">
   <rect x="41.145691" y="196.439492" width="174.68429" height="73.334869"/>
  </clipPath>
  <clipPath id="p0402922638">
   <rect x="221.83046" y="196.439492" width="174.68429" height="73.334869"/>
  </clipPath>
  <clipPath id="pd90cc27538">
   <rect x="402.51523" y="196.439492" width="174.68429" height="73.334869"/>
  </clipPath>
 </defs>
</svg>