<?xml version="1.0" encoding="utf-8" standalone="no"?>
<!DOCTYPE svg PUBLIC "-//W3C//DTD SVG 1.1//EN"
  "http://www.w3.org/Graphics/SVG/1.1/DTD/svg11.dtd">
<svg xmlns:xlink="http://www.w3.org/1999/xlink" width="296.39952pt" height="184.113084pt" viewBox="0 0 296.39952 184.113084" xmlns="http://www.w3.org/2000/svg" version="1.1">
 <metadata>
  <rdf:RDF xmlns:dc="http://purl.org/dc/elements/1.1/" xmlns:cc="http://creativecommons.org/ns#" xmlns:rdf="http://www.w3.org/1999/02/22-rdf-syntax-ns#">
   <cc:Work>
    <dc:type rdf:resource="http://purl.org/dc/dcmitype/StillImage"/>
    <dc:date>2022-08-25T10:03:06.421235</dc:date>
    <dc:format>image/svg+xml</dc:format>
    <dc:creator>
     <cc:Agent>
      <dc:title>Matplotlib v3.5.2, https://matplotlib.org/</dc:title>
     </cc:Agent>
    </dc:creator>
   </cc:Work>
  </rdf:RDF>
 </metadata>
 <defs>
  <style type="text/css">*{stroke-linejoin: round; stroke-linecap: butt}</style>
 </defs>
 <g id="figure_1">
  <g id="patch_1">
   <path d="M 0 184.113084 
L 296.39952 184.113084 
L 296.39952 0 
L 0 0 
L 0 184.113084 
z
" style="fill: none"/>
  </g>
  <g id="axes_1">
   <g id="patch_2">
    <path d="M 7.2 176.913084 
L 176.913084 176.913084 
L 176.913084 7.2 
L 7.2 7.2 
L 7.2 176.913084 
z
" style="fill: none"/>
   </g>
   <g id="matplotlib.axis_1"/>
   <g id="matplotlib.axis_2"/>
   <g id="legend_1">
    <g id="patch_3">
     <path d="M 186.713084 160.847518 
L 286.39952 160.847518 
Q 289.19952 160.847518 289.19952 158.047518 
L 289.19952 33.971308 
Q 289.19952 31.171308 286.39952 31.171308 
L 186.713084 31.171308 
Q 183.913084 31.171308 183.913084 33.971308 
L 183.913084 158.047518 
Q 183.913084 160.847518 186.713084 160.847518 
z
" style="fill: #ffffff; opacity: 0.95; stroke: #cccccc; stroke-width: 0.5; stroke-linejoin: miter"/>
    </g>
    <g id="patch_4">
     <path d="M 189.513084 46.750838 
L 203.513084 46.750838 
L 203.513084 36.950838 
L 189.513084 36.950838 
z
" style="fill: #0271ae"/>
    </g>
    <g id="text_1">
     <!-- $\theta=\pi$ -->
     <g style="fill: #0271ae" transform="translate(214.713084 46.750838)scale(0.14 -0.14)">
      <defs>
       <path id="PazoMath-Italic-71" d="M 2029 4544 
C 1754 4544 1472 4409 1178 4122 
C 608 3580 186 2616 186 1442 
C 186 427 390 -64 928 -64 
C 1267 -64 1664 172 1965 555 
C 2400 1110 2797 2163 2797 3127 
C 2797 4013 2554 4544 2029 4544 
z
M 1478 2112 
C 1914 2112 2093 2092 2202 2041 
C 2061 1397 1824 823 1619 491 
C 1491 294 1318 179 1126 179 
C 742 179 672 670 672 1429 
C 672 1627 685 1831 717 2035 
C 851 2092 1024 2112 1478 2112 
z
M 1869 4300 
C 2272 4300 2310 3777 2310 2986 
C 2310 2808 2298 2623 2272 2444 
C 2144 2399 1946 2380 1523 2380 
C 1088 2380 902 2399 787 2444 
C 954 3197 1248 3886 1478 4154 
C 1568 4249 1715 4300 1869 4300 
z
" transform="scale(0.015625)"/>
       <path id="CMR10-3d" d="M 4397 2111 
C 4493 2111 4614 2111 4614 2239 
C 4614 2368 4493 2368 4403 2368 
L 570 2368 
C 480 2368 358 2368 358 2239 
C 358 2111 480 2111 576 2111 
L 4397 2111 
z
M 4403 832 
C 4493 832 4614 832 4614 960 
C 4614 1088 4493 1088 4397 1088 
L 576 1088 
C 480 1088 358 1088 358 960 
C 358 832 480 832 570 832 
L 4403 832 
z
" transform="scale(0.015625)"/>
       <path id="PazoMath-Italic-70" d="M 614 2255 
L 672 2299 
C 806 2681 1062 2700 1427 2700 
C 1504 2700 1619 2694 1754 2694 
C 1216 1242 973 803 454 -7 
L 512 -64 
L 986 102 
C 1216 599 1606 1567 1958 2688 
L 3149 2624 
C 3040 2232 2669 1089 2669 685 
C 2669 19 2912 -64 3110 -64 
C 3437 -64 3622 19 4026 356 
L 3974 476 
L 3821 369 
C 3840 382 3654 236 3546 236 
C 3245 236 3155 419 3155 811 
C 3155 969 3168 1139 3206 1323 
C 3315 1847 3424 2365 3482 2624 
C 3629 2624 3776 2630 3923 2649 
C 4038 2649 4179 2713 4282 2752 
C 4352 2905 4378 2918 4499 3072 
L 4454 3136 
C 4282 3075 3994 3008 3782 3008 
C 3706 3001 3546 2995 3386 2995 
C 2701 3020 1645 3072 1363 3072 
C 883 3072 710 2860 525 2306 
L 614 2255 
z
" transform="scale(0.015625)"/>
      </defs>
      <use xlink:href="#PazoMath-Italic-71" transform="scale(0.996264)"/>
      <use xlink:href="#CMR10-3d" transform="translate(77.387455 0)scale(1.038107)"/>
      <use xlink:href="#PazoMath-Italic-70" transform="translate(188.248384 0)scale(0.996264)"/>
     </g>
    </g>
    <g id="patch_5">
     <path d="M 189.513084 67.663539 
L 203.513084 67.663539 
L 203.513084 57.863539 
L 189.513084 57.863539 
z
" style="fill: #dc2830"/>
    </g>
    <g id="text_2">
     <!-- $\theta=3\cdot\pi/4$ -->
     <g style="fill: #dc2830" transform="translate(214.713084 67.663539)scale(0.14 -0.14)">
      <defs>
       <path id="URWPalladioL-Roma-33" d="M 275 3196 
L 474 3196 
L 589 3553 
C 659 3770 1062 3987 1395 3987 
C 1811 3987 2150 3649 2150 3247 
C 2150 2769 1773 2368 1318 2368 
C 1267 2368 1197 2374 1114 2380 
L 1018 2387 
L 941 2047 
L 986 2008 
C 1229 2118 1350 2150 1523 2150 
C 2054 2150 2362 1808 2362 1222 
C 2362 565 1971 134 1376 134 
C 1082 134 819 231 627 411 
C 474 553 390 701 269 1048 
L 96 984 
C 230 591 282 359 320 38 
C 659 -77 941 -128 1178 -128 
C 1690 -128 2278 160 2630 591 
C 2848 855 2957 1139 2957 1441 
C 2957 1750 2829 2021 2598 2182 
C 2438 2297 2291 2348 1971 2406 
C 2483 2801 2675 3094 2675 3470 
C 2675 4038 2202 4416 1491 4416 
C 1056 4416 768 4294 461 3987 
L 275 3196 
z
" transform="scale(0.015625)"/>
       <path id="CMSY10-1" d="M 1229 1619 
C 1229 1804 1075 1958 890 1958 
C 704 1958 550 1804 550 1619 
C 550 1433 704 1280 890 1280 
C 1075 1280 1229 1433 1229 1619 
z
" transform="scale(0.015625)"/>
       <path id="URWPalladioL-Roma-2f" d="M 3322 4646 
L 2938 4646 
L 557 -762 
L 941 -762 
L 3322 4646 
z
" transform="scale(0.015625)"/>
       <path id="URWPalladioL-Roma-34" d="M 1792 1152 
L 1792 684 
C 1792 310 1722 223 1408 210 
L 1011 192 
L 1011 0 
C 1862 0 1862 0 2016 0 
C 2170 19 2170 19 3021 0 
L 3021 192 
L 2714 210 
C 2400 229 2330 310 2330 684 
L 2330 1152 
C 2707 1152 2842 1145 3021 1127 
L 3021 1580 
C 2720 1555 2598 1555 2502 1561 
L 2483 1561 
L 2330 1561 
L 2330 2445 
C 2330 3576 2342 4122 2374 4383 
L 2298 4416 
L 1824 4243 
L 13 1299 
L 83 1152 
L 1792 1152 
z
M 1792 1561 
L 416 1561 
L 1792 3798 
L 1792 1561 
z
" transform="scale(0.015625)"/>
      </defs>
      <use xlink:href="#PazoMath-Italic-71" transform="scale(0.996264)"/>
      <use xlink:href="#CMR10-3d" transform="translate(77.387455 0)scale(1.038107)"/>
      <use xlink:href="#URWPalladioL-Roma-33" transform="translate(187.003084 0)scale(0.996264)"/>
      <use xlink:href="#CMSY10-1" transform="translate(257.433337 0)scale(1.038107)"/>
      <use xlink:href="#PazoMath-Italic-70" transform="translate(308.087789 0)scale(0.996264)"/>
      <use xlink:href="#URWPalladioL-Roma-2f" transform="translate(380.614718 0)scale(0.996264)"/>
      <use xlink:href="#URWPalladioL-Roma-34" transform="translate(442.233622 0)scale(0.996264)"/>
     </g>
    </g>
    <g id="patch_6">
     <path d="M 189.513084 88.576241 
L 203.513084 88.576241 
L 203.513084 78.776241 
L 189.513084 78.776241 
z
" style="fill: #f2aa00"/>
    </g>
    <g id="text_3">
     <!-- $\theta=\pi/2$ -->
     <g style="fill: #f2aa00" transform="translate(214.713084 88.576241)scale(0.14 -0.14)">
      <defs>
       <path id="URWPalladioL-Roma-32" d="M 102 166 
L 102 0 
C 1299 0 1299 0 1530 0 
C 1760 19 1760 19 2995 0 
C 2982 134 2982 198 2982 287 
C 2982 370 2982 434 2995 574 
C 2259 542 1965 536 781 510 
L 1946 1741 
C 2566 2398 2758 2749 2758 3228 
C 2758 3961 2259 4416 1446 4416 
C 986 4416 672 4287 358 3967 
L 250 3100 
L 435 3100 
L 518 3394 
C 621 3763 851 3923 1280 3923 
C 1830 3923 2182 3578 2182 3036 
C 2182 2558 1914 2086 1190 1320 
L 102 166 
z
" transform="scale(0.015625)"/>
      </defs>
      <use xlink:href="#PazoMath-Italic-71" transform="scale(0.996264)"/>
      <use xlink:href="#CMR10-3d" transform="translate(77.387455 0)scale(1.038107)"/>
      <use xlink:href="#PazoMath-Italic-70" transform="translate(188.248384 0)scale(0.996264)"/>
      <use xlink:href="#URWPalladioL-Roma-2f" transform="translate(260.775312 0)scale(0.996264)"/>
      <use xlink:href="#URWPalladioL-Roma-32" transform="translate(322.394217 0)scale(0.996264)"/>
     </g>
    </g>
    <g id="patch_7">
     <path d="M 189.513084 109.488943 
L 203.513084 109.488943 
L 203.513084 99.688943 
L 189.513084 99.688943 
z
" style="fill: #343837"/>
    </g>
    <g id="text_4">
     <!-- $\theta=\pi/4$ -->
     <g style="fill: #343837" transform="translate(214.713084 109.488943)scale(0.14 -0.14)">
      <use xlink:href="#PazoMath-Italic-71" transform="scale(0.996264)"/>
      <use xlink:href="#CMR10-3d" transform="translate(77.387455 0)scale(1.038107)"/>
      <use xlink:href="#PazoMath-Italic-70" transform="translate(188.248384 0)scale(0.996264)"/>
      <use xlink:href="#URWPalladioL-Roma-2f" transform="translate(260.775312 0)scale(0.996264)"/>
      <use xlink:href="#URWPalladioL-Roma-34" transform="translate(322.394217 0)scale(0.996264)"/>
     </g>
    </g>
    <g id="patch_8">
     <path d="M 189.513084 130.401644 
L 203.513084 130.401644 
L 203.513084 120.601644 
L 189.513084 120.601644 
z
" style="fill: #6e3b87"/>
    </g>
    <g id="text_5">
     <!-- $\theta=-\pi/4$ -->
     <g style="fill: #6e3b87" transform="translate(214.713084 130.401644)scale(0.14 -0.14)">
      <defs>
       <path id="CMSY10-0" d="M 4218 1472 
C 4326 1472 4442 1472 4442 1600 
C 4442 1728 4326 1728 4218 1728 
L 755 1728 
C 646 1728 531 1728 531 1600 
C 531 1472 646 1472 755 1472 
L 4218 1472 
z
" transform="scale(0.015625)"/>
      </defs>
      <use xlink:href="#PazoMath-Italic-71" transform="scale(0.996264)"/>
      <use xlink:href="#CMR10-3d" transform="translate(77.387455 0)scale(1.038107)"/>
      <use xlink:href="#CMSY10-0" transform="translate(188.248384 0)scale(1.038107)"/>
      <use xlink:href="#PazoMath-Italic-70" transform="translate(271.43538 0)scale(0.996264)"/>
      <use xlink:href="#URWPalladioL-Roma-2f" transform="translate(343.962308 0)scale(0.996264)"/>
      <use xlink:href="#URWPalladioL-Roma-34" transform="translate(405.581213 0)scale(0.996264)"/>
     </g>
    </g>
    <g id="patch_9">
     <path d="M 189.513084 151.314346 
L 203.513084 151.314346 
L 203.513084 141.514346 
L 189.513084 141.514346 
z
" style="fill: #007d4d"/>
    </g>
    <g id="text_6">
     <!-- $\theta=\pi/6$ -->
     <g style="fill: #007d4d" transform="translate(214.713084 151.314346)scale(0.14 -0.14)">
      <defs>
       <path id="URWPalladioL-Roma-36" d="M 2662 4287 
L 2426 4396 
C 1811 4193 1549 4066 1222 3788 
C 563 3237 205 2463 205 1585 
C 205 526 717 -128 1542 -128 
C 2374 -128 2995 532 2995 1405 
C 2995 2143 2554 2624 1875 2624 
C 1555 2624 1363 2540 986 2239 
C 915 2182 909 2175 838 2124 
C 973 3275 1510 3895 2662 4237 
L 2662 4287 
z
M 1632 2239 
C 2118 2239 2445 1816 2445 1180 
C 2445 513 2118 83 1626 83 
C 1082 83 787 551 787 1411 
C 787 1636 813 1758 883 1867 
C 1024 2085 1325 2239 1632 2239 
z
" transform="scale(0.015625)"/>
      </defs>
      <use xlink:href="#PazoMath-Italic-71" transform="scale(0.996264)"/>
      <use xlink:href="#CMR10-3d" transform="translate(77.387455 0)scale(1.038107)"/>
      <use xlink:href="#PazoMath-Italic-70" transform="translate(188.248384 0)scale(0.996264)"/>
      <use xlink:href="#URWPalladioL-Roma-2f" transform="translate(260.775312 0)scale(0.996264)"/>
      <use xlink:href="#URWPalladioL-Roma-36" transform="translate(322.394217 0)scale(0.996264)"/>
     </g>
    </g>
   </g>
   <g id="patch_10">
    <path d="M 165.106956 92.056542 
C 165.106956 72.689798 157.405341 54.096455 143.710985 40.402099 
C 130.016629 26.707743 111.423286 19.006128 92.056542 19.006128 
C 72.689798 19.006128 54.096455 26.707743 40.402099 40.402099 
C 26.707743 54.096455 19.006128 72.689798 19.006128 92.056542 
L 92.056542 92.056542 
L 165.106956 92.056542 
z
" clip-path="url(#pb949914aaf)" style="fill: #0271ae"/>
   </g>
   <g id="patch_11">
    <path d="M 162.647347 92.056542 
C 162.647347 78.096671 158.50634 64.445601 150.750651 52.838392 
C 142.994962 41.231184 131.967713 32.181354 119.070473 26.839143 
C 106.173234 21.496931 91.976595 20.098684 78.284959 22.82212 
C 64.593323 25.545556 52.012425 32.270186 42.141305 42.141305 
L 92.056542 92.056542 
L 162.647347 92.056542 
z
" clip-path="url(#pb949914aaf)" style="fill: #dc2830"/>
   </g>
   <g id="patch_12">
    <path d="M 160.187737 92.056542 
C 160.187737 73.993956 153.004749 56.652689 140.232572 43.880512 
C 127.460395 31.108335 110.119128 23.925347 92.056542 23.925347 
L 92.056542 92.056542 
L 160.187737 92.056542 
z
" clip-path="url(#pb949914aaf)" style="fill: #f2aa00"/>
   </g>
   <g id="patch_13">
    <path d="M 157.728127 92.056542 
C 157.728127 83.432629 156.029404 74.892572 152.729175 66.925115 
C 149.428946 58.957657 144.591393 51.717747 138.493365 45.619719 
L 92.056542 92.056542 
L 157.728127 92.056542 
z
" clip-path="url(#pb949914aaf)" style="fill: #343837"/>
   </g>
   <g id="patch_14">
    <path d="M 136.754158 136.754158 
C 142.623795 130.884521 147.280167 123.915768 150.456792 116.246717 
C 153.633416 108.577667 155.268517 100.357462 155.268517 92.056542 
L 92.056542 92.056542 
L 136.754158 136.754158 
z
" clip-path="url(#pb949914aaf)" style="fill: #6e3b87"/>
   </g>
   <g id="patch_15">
    <path d="M 152.808907 92.056542 
C 152.808907 86.747339 152.112943 81.460969 150.73882 76.332673 
C 149.364697 71.204377 147.324235 66.278264 144.669633 61.68036 
L 92.056542 92.056542 
L 152.808907 92.056542 
z
" clip-path="url(#pb949914aaf)" style="fill: #007d4d"/>
   </g>
   <g id="patch_16">
    <path d="M 92.056542 165.844839 
C 111.625427 165.844839 130.395456 158.070039 144.232747 144.232747 
C 158.070039 130.395456 165.844839 111.625427 165.844839 92.056542 
C 165.844839 72.487657 158.070039 53.717628 144.232747 39.880337 
C 130.395456 26.043045 111.625427 18.268245 92.056542 18.268245 
C 72.487657 18.268245 53.717628 26.043045 39.880337 39.880337 
C 26.043045 53.717628 18.268245 72.487657 18.268245 92.056542 
C 18.268245 111.625427 26.043045 130.395456 39.880337 144.232747 
C 53.717628 158.070039 72.487657 165.844839 92.056542 165.844839 
L 92.056542 165.844839 
z
" clip-path="url(#pb949914aaf)" style="fill: none; stroke: #000000; stroke-width: 5; stroke-linejoin: miter"/>
   </g>
  </g>
 </g>
 <defs>
  <clipPath id="pb949914aaf">
   <rect x="7.2" y="7.2" width="169.713084" height="169.713084"/>
  </clipPath>
 </defs>
</svg>