<?xml version="1.0" encoding="utf-8" standalone="no"?>
<!DOCTYPE svg PUBLIC "-//W3C//DTD SVG 1.1//EN"
  "http://www.w3.org/Graphics/SVG/1.1/DTD/svg11.dtd">
<svg xmlns:xlink="http://www.w3.org/1999/xlink" width="440.39952pt" height="296.39952pt" viewBox="0 0 440.39952 296.39952" xmlns="http://www.w3.org/2000/svg" version="1.1">
 <metadata>
  <rdf:RDF xmlns:dc="http://purl.org/dc/elements/1.1/" xmlns:cc="http://creativecommons.org/ns#" xmlns:rdf="http://www.w3.org/1999/02/22-rdf-syntax-ns#">
   <cc:Work>
    <dc:type rdf:resource="http://purl.org/dc/dcmitype/StillImage"/>
    <dc:date>2022-06-20T09:58:00.818457</dc:date>
    <dc:format>image/svg+xml</dc:format>
    <dc:creator>
     <cc:Agent>
      <dc:title>Matplotlib v3.5.2, https://matplotlib.org/</dc:title>
     </cc:Agent>
    </dc:creator>
   </cc:Work>
  </rdf:RDF>
 </metadata>
 <defs>
  <style type="text/css">*{stroke-linejoin: round; stroke-linecap: butt}</style>
 </defs>
 <g id="figure_1">
  <g id="patch_1">
   <path d="M 0 296.39952 
L 440.39952 296.39952 
L 440.39952 0 
L 0 0 
L 0 296.39952 
z
" style="fill: none"/>
  </g>
  <g id="axes_1">
   <g id="patch_2">
    <path d="M 57.070851 122.530589 
L 424.48221 122.530589 
L 424.48221 7.2 
L 57.070851 7.2 
L 57.070851 122.530589 
z
" style="fill: none"/>
   </g>
   <g id="matplotlib.axis_1">
    <g id="xtick_1">
     <g id="line2d_1">
      <path d="M 57.070851 122.530589 
L 57.070851 7.2 
" clip-path="url(#p33fd2260e3)" style="fill: none; stroke: #000000; stroke-opacity: 0.2; stroke-width: 0.5; stroke-linecap: round"/>
     </g>
     <g id="line2d_2">
      <defs>
       <path id="mba28a77da1" d="M 0 0 
L 0 3.5 
" style="stroke: #000000; stroke-opacity: 0.2; stroke-width: 0.5"/>
      </defs>
      <g>
       <use xlink:href="#mba28a77da1" x="57.070851" y="122.530589" style="fill-opacity: 0.2; stroke: #000000; stroke-opacity: 0.2; stroke-width: 0.5"/>
      </g>
     </g>
    </g>
    <g id="xtick_2">
     <g id="line2d_3">
      <path d="M 130.553122 122.530589 
L 130.553122 7.2 
" clip-path="url(#p33fd2260e3)" style="fill: none; stroke: #000000; stroke-opacity: 0.2; stroke-width: 0.5; stroke-linecap: round"/>
     </g>
     <g id="line2d_4">
      <g>
       <use xlink:href="#mba28a77da1" x="130.553122" y="122.530589" style="fill-opacity: 0.2; stroke: #000000; stroke-opacity: 0.2; stroke-width: 0.5"/>
      </g>
     </g>
    </g>
    <g id="xtick_3">
     <g id="line2d_5">
      <path d="M 204.035394 122.530589 
L 204.035394 7.2 
" clip-path="url(#p33fd2260e3)" style="fill: none; stroke: #000000; stroke-opacity: 0.2; stroke-width: 0.5; stroke-linecap: round"/>
     </g>
     <g id="line2d_6">
      <g>
       <use xlink:href="#mba28a77da1" x="204.035394" y="122.530589" style="fill-opacity: 0.2; stroke: #000000; stroke-opacity: 0.2; stroke-width: 0.5"/>
      </g>
     </g>
    </g>
    <g id="xtick_4">
     <g id="line2d_7">
      <path d="M 277.517666 122.530589 
L 277.517666 7.2 
" clip-path="url(#p33fd2260e3)" style="fill: none; stroke: #000000; stroke-opacity: 0.2; stroke-width: 0.5; stroke-linecap: round"/>
     </g>
     <g id="line2d_8">
      <g>
       <use xlink:href="#mba28a77da1" x="277.517666" y="122.530589" style="fill-opacity: 0.2; stroke: #000000; stroke-opacity: 0.2; stroke-width: 0.5"/>
      </g>
     </g>
    </g>
    <g id="xtick_5">
     <g id="line2d_9">
      <path d="M 350.999938 122.530589 
L 350.999938 7.2 
" clip-path="url(#p33fd2260e3)" style="fill: none; stroke: #000000; stroke-opacity: 0.2; stroke-width: 0.5; stroke-linecap: round"/>
     </g>
     <g id="line2d_10">
      <g>
       <use xlink:href="#mba28a77da1" x="350.999938" y="122.530589" style="fill-opacity: 0.2; stroke: #000000; stroke-opacity: 0.2; stroke-width: 0.5"/>
      </g>
     </g>
    </g>
    <g id="xtick_6">
     <g id="line2d_11">
      <path d="M 424.48221 122.530589 
L 424.48221 7.2 
" clip-path="url(#p33fd2260e3)" style="fill: none; stroke: #000000; stroke-opacity: 0.2; stroke-width: 0.5; stroke-linecap: round"/>
     </g>
     <g id="line2d_12">
      <g>
       <use xlink:href="#mba28a77da1" x="424.48221" y="122.530589" style="fill-opacity: 0.2; stroke: #000000; stroke-opacity: 0.2; stroke-width: 0.5"/>
      </g>
     </g>
    </g>
   </g>
   <g id="matplotlib.axis_2">
    <g id="ytick_1">
     <g id="line2d_13">
      <path d="M 57.070851 94.437241 
L 424.48221 94.437241 
" clip-path="url(#p33fd2260e3)" style="fill: none; stroke: #000000; stroke-opacity: 0.2; stroke-width: 0.5; stroke-linecap: round"/>
     </g>
     <g id="line2d_14">
      <defs>
       <path id="m664293ecc3" d="M 0 0 
L -3.5 0 
" style="stroke: #000000; stroke-opacity: 0.2; stroke-width: 0.5"/>
      </defs>
      <g>
       <use xlink:href="#m664293ecc3" x="57.070851" y="94.437241" style="fill-opacity: 0.2; stroke: #000000; stroke-opacity: 0.2; stroke-width: 0.5"/>
      </g>
     </g>
     <g id="text_1">
      <!-- $\mathdefault{−1}$ -->
      <g transform="translate(23.12516 99.427005)scale(0.14 -0.14)">
       <defs>
        <path id="CMSY10-0" d="M 4218 1472 
C 4326 1472 4442 1472 4442 1600 
C 4442 1728 4326 1728 4218 1728 
L 755 1728 
C 646 1728 531 1728 531 1600 
C 531 1472 646 1472 755 1472 
L 4218 1472 
z
" transform="scale(0.015625)"/>
        <path id="URWPalladioL-Roma-31" d="M 429 3571 
L 493 3571 
L 1318 3942 
C 1325 3949 1331 3949 1338 3949 
C 1376 3949 1389 3891 1389 3737 
L 1389 633 
C 1389 300 1318 230 973 211 
L 614 192 
L 614 0 
C 1600 0 1600 0 1670 0 
C 1754 0 1894 0 2112 -7 
C 2189 6 2413 6 2675 0 
L 2675 192 
L 2342 211 
C 1990 229 1926 299 1926 628 
L 1926 4383 
L 1837 4416 
C 1421 4199 966 4009 384 3807 
L 429 3571 
z
" transform="scale(0.015625)"/>
       </defs>
       <use xlink:href="#CMSY10-0" transform="scale(1.038107)"/>
       <use xlink:href="#URWPalladioL-Roma-31" transform="translate(81.941696 0)scale(0.996264)"/>
      </g>
     </g>
    </g>
    <g id="ytick_2">
     <g id="line2d_15">
      <path d="M 57.070851 64.865295 
L 424.48221 64.865295 
" clip-path="url(#p33fd2260e3)" style="fill: none; stroke: #000000; stroke-opacity: 0.2; stroke-width: 0.5; stroke-linecap: round"/>
     </g>
     <g id="line2d_16">
      <g>
       <use xlink:href="#m664293ecc3" x="57.070851" y="64.865295" style="fill-opacity: 0.2; stroke: #000000; stroke-opacity: 0.2; stroke-width: 0.5"/>
      </g>
     </g>
     <g id="text_2">
      <!-- $\mathdefault{0}$ -->
      <g transform="translate(34.597002 69.855059)scale(0.14 -0.14)">
       <defs>
        <path id="URWPalladioL-Roma-30" d="M 1683 4416 
C 691 4416 186 3628 186 2076 
C 186 1326 320 679 544 365 
C 768 51 1126 -128 1523 -128 
C 2490 -128 2976 704 2976 2345 
C 2976 3749 2560 4416 1683 4416 
z
M 1568 4191 
C 2189 4191 2438 3563 2438 2025 
C 2438 660 2195 96 1606 96 
C 986 96 723 743 723 2307 
C 723 3660 960 4191 1568 4191 
z
" transform="scale(0.015625)"/>
       </defs>
       <use xlink:href="#URWPalladioL-Roma-30" transform="scale(0.996264)"/>
      </g>
     </g>
    </g>
    <g id="ytick_3">
     <g id="line2d_17">
      <path d="M 57.070851 35.293349 
L 424.48221 35.293349 
" clip-path="url(#p33fd2260e3)" style="fill: none; stroke: #000000; stroke-opacity: 0.2; stroke-width: 0.5; stroke-linecap: round"/>
     </g>
     <g id="line2d_18">
      <g>
       <use xlink:href="#m664293ecc3" x="57.070851" y="35.293349" style="fill-opacity: 0.2; stroke: #000000; stroke-opacity: 0.2; stroke-width: 0.5"/>
      </g>
     </g>
     <g id="text_3">
      <!-- $\mathdefault{1}$ -->
      <g transform="translate(34.597002 40.283113)scale(0.14 -0.14)">
       <use xlink:href="#URWPalladioL-Roma-31" transform="scale(0.996264)"/>
      </g>
     </g>
    </g>
    <g id="text_4">
     <!-- Input -->
     <g transform="translate(15.753876 79.504163)rotate(-90)scale(0.12 -0.12)">
      <defs>
       <path id="URWPalladioL-Roma-49" d="M 1382 3633 
C 1382 4135 1414 4185 1709 4204 
L 2016 4223 
L 2016 4416 
C 1549 4396 1408 4396 1075 4396 
C 755 4396 602 4403 141 4416 
L 141 4223 
L 448 4204 
C 742 4185 774 4135 774 3633 
L 774 782 
C 774 280 742 230 448 211 
L 141 192 
L 141 0 
C 518 -7 742 0 1075 0 
C 1408 19 1638 12 2016 0 
L 2016 192 
L 1709 211 
C 1414 230 1382 281 1382 787 
L 1382 3633 
z
" transform="scale(0.015625)"/>
       <path id="URWPalladioL-Roma-6e" d="M 2624 0 
C 3014 0 3021 0 3130 0 
C 3219 19 3219 19 3661 0 
L 3661 192 
L 3398 211 
C 3181 223 3162 262 3162 670 
L 3162 1902 
C 3162 2649 2810 3014 2093 3014 
C 1856 3014 1722 2969 1587 2854 
L 1101 2432 
L 1101 2988 
L 1043 3008 
C 717 2873 384 2784 45 2746 
L 45 2568 
L 282 2568 
C 538 2568 563 2523 563 2103 
L 563 669 
C 563 268 544 223 326 211 
L 38 192 
L 38 0 
C 474 -7 646 0 832 0 
C 1018 19 1190 12 1626 0 
L 1626 192 
L 1338 211 
C 1120 223 1101 268 1101 670 
L 1101 2023 
C 1101 2311 1523 2624 1914 2624 
C 2342 2624 2624 2304 2624 1813 
L 2624 0 
z
" transform="scale(0.015625)"/>
       <path id="URWPalladioL-Roma-70" d="M 64 2566 
L 301 2566 
C 557 2566 582 2521 582 2100 
L 582 -1118 
C 582 -1523 563 -1568 346 -1581 
L 51 -1600 
L 51 -1792 
C 691 -1773 691 -1773 851 -1773 
C 1011 -1773 1011 -1773 1651 -1792 
L 1651 -1600 
L 1357 -1581 
C 1139 -1568 1120 -1523 1120 -1118 
L 1120 96 
C 1312 -20 1517 -64 1805 -64 
C 1990 -64 2157 -26 2259 38 
L 2989 511 
C 3245 677 3546 1334 3546 1743 
C 3546 2451 2957 3008 2214 3008 
C 1978 3008 1747 2943 1645 2847 
L 1120 2368 
L 1120 2982 
L 1062 3008 
C 736 2873 403 2783 64 2745 
L 64 2566 
z
M 1120 1966 
C 1120 2055 1152 2126 1235 2234 
C 1421 2470 1683 2591 2003 2591 
C 2605 2591 2989 2170 2989 1507 
C 2989 792 2560 262 1984 262 
C 1632 262 1370 377 1120 639 
L 1120 1966 
z
" transform="scale(0.015625)"/>
       <path id="URWPalladioL-Roma-75" d="M 3219 2982 
L 3162 3008 
C 2835 2873 2502 2784 2163 2745 
L 2163 2567 
L 2400 2567 
C 2656 2567 2682 2522 2682 2101 
L 2682 1060 
C 2682 920 2592 741 2445 594 
C 2266 415 2061 326 1811 326 
C 1587 326 1408 396 1306 517 
C 1216 620 1171 817 1171 1098 
L 1171 2982 
L 1114 3008 
C 787 2873 454 2784 115 2745 
L 115 2567 
L 352 2567 
C 608 2567 634 2522 634 2101 
L 634 1028 
C 634 581 672 383 787 224 
C 928 32 1171 -64 1536 -64 
C 1824 -58 2080 32 2253 192 
L 2682 588 
C 2682 403 2675 300 2656 0 
C 3085 0 3091 0 3187 0 
C 3277 19 3277 19 3718 0 
L 3718 192 
L 3456 211 
C 3238 224 3219 262 3219 672 
L 3219 2982 
z
" transform="scale(0.015625)"/>
       <path id="URWPalladioL-Roma-74" d="M 627 2457 
L 627 614 
C 627 140 838 -64 1331 -64 
C 1478 -64 1632 -32 1670 12 
L 1978 352 
L 1894 460 
C 1734 371 1638 339 1517 339 
C 1267 339 1165 467 1165 780 
L 1165 2457 
L 1984 2457 
L 2042 2803 
L 1165 2764 
L 1165 3008 
C 1165 3277 1184 3507 1235 3917 
L 1158 3987 
C 1005 3891 813 3808 614 3744 
C 634 3552 640 3430 640 3238 
L 640 2790 
L 141 2566 
L 141 2432 
L 627 2457 
z
" transform="scale(0.015625)"/>
      </defs>
      <use xlink:href="#URWPalladioL-Roma-49" transform="scale(0.996264)"/>
      <use xlink:href="#URWPalladioL-Roma-6e" transform="translate(33.574079 0)scale(0.996264)"/>
      <use xlink:href="#URWPalladioL-Roma-70" transform="translate(91.55614 0)scale(0.996264)"/>
      <use xlink:href="#URWPalladioL-Roma-75" transform="translate(151.430533 0)scale(0.996264)"/>
      <use xlink:href="#URWPalladioL-Roma-74" transform="translate(211.504268 0)scale(0.996264)"/>
     </g>
    </g>
   </g>
   <g id="line2d_19">
    <path d="M 57.070851 35.293349 
L 64.419078 35.293349 
L 64.419078 35.293349 
L 71.767305 35.293349 
L 71.767305 35.293349 
L 79.115532 35.293349 
L 79.115532 35.293349 
L 86.463759 35.293349 
L 86.463759 35.293349 
L 93.811986 35.293349 
L 93.811986 35.293349 
L 101.160214 35.293349 
L 101.160214 35.293349 
L 108.508441 35.293349 
L 108.508441 35.293349 
L 115.856668 35.293349 
L 115.856668 35.293349 
L 123.204895 35.293349 
L 123.204895 94.437241 
L 130.553122 94.437241 
L 130.553122 94.437241 
L 137.90135 94.437241 
L 137.90135 94.437241 
L 145.249577 94.437241 
L 145.249577 94.437241 
L 152.597804 94.437241 
L 152.597804 94.437241 
L 159.946031 94.437241 
L 159.946031 94.437241 
L 167.294258 94.437241 
L 167.294258 94.437241 
L 174.642486 94.437241 
L 174.642486 94.437241 
L 181.990713 94.437241 
L 181.990713 35.293349 
L 189.33894 35.293349 
L 189.33894 35.293349 
L 196.687167 35.293349 
L 196.687167 35.293349 
L 204.035394 35.293349 
L 204.035394 35.293349 
L 211.383621 35.293349 
L 211.383621 35.293349 
L 218.731849 35.293349 
L 218.731849 35.293349 
L 226.080076 35.293349 
L 226.080076 35.293349 
L 233.428303 35.293349 
L 233.428303 35.293349 
L 240.77653 35.293349 
L 240.77653 94.437241 
L 248.124757 94.437241 
L 248.124757 94.437241 
L 255.472985 94.437241 
L 255.472985 94.437241 
L 262.821212 94.437241 
L 262.821212 94.437241 
L 270.169439 94.437241 
L 270.169439 94.437241 
L 277.517666 94.437241 
L 277.517666 94.437241 
L 284.865893 94.437241 
L 284.865893 94.437241 
L 292.214121 94.437241 
L 292.214121 94.437241 
L 299.562348 94.437241 
L 299.562348 94.437241 
L 306.910575 94.437241 
L 306.910575 35.293349 
L 314.258802 35.293349 
L 314.258802 35.293349 
L 321.607029 35.293349 
L 321.607029 35.293349 
L 328.955256 35.293349 
L 328.955256 35.293349 
L 336.303484 35.293349 
L 336.303484 35.293349 
L 343.651711 35.293349 
L 343.651711 35.293349 
L 350.999938 35.293349 
L 350.999938 35.293349 
L 358.348165 35.293349 
L 358.348165 35.293349 
L 365.696392 35.293349 
L 365.696392 94.437241 
L 373.04462 94.437241 
L 373.04462 94.437241 
L 380.392847 94.437241 
L 380.392847 94.437241 
L 387.741074 94.437241 
L 387.741074 94.437241 
L 395.089301 94.437241 
L 395.089301 94.437241 
L 402.437528 94.437241 
L 402.437528 94.437241 
L 409.785756 94.437241 
L 409.785756 94.437241 
L 417.133983 94.437241 
L 417.133983 94.437241 
" clip-path="url(#p33fd2260e3)" style="fill: none; stroke: #0271ae; stroke-width: 2; stroke-linecap: round"/>
    <defs>
     <path id="m78e4126282" d="M 0 3.5 
C 0.928211 3.5 1.81853 3.131218 2.474874 2.474874 
C 3.131218 1.81853 3.5 0.928211 3.5 0 
C 3.5 -0.928211 3.131218 -1.81853 2.474874 -2.474874 
C 1.81853 -3.131218 0.928211 -3.5 0 -3.5 
C -0.928211 -3.5 -1.81853 -3.131218 -2.474874 -2.474874 
C -3.131218 -1.81853 -3.5 -0.928211 -3.5 0 
C -3.5 0.928211 -3.131218 1.81853 -2.474874 2.474874 
C -1.81853 3.131218 -0.928211 3.5 0 3.5 
z
" style="stroke: #fefefa; stroke-width: 1.5"/>
    </defs>
    <g clip-path="url(#p33fd2260e3)">
     <use xlink:href="#m78e4126282" x="57.070851" y="35.293349" style="fill: #0271ae; stroke: #fefefa; stroke-width: 1.5"/>
     <use xlink:href="#m78e4126282" x="64.419078" y="35.293349" style="fill: #0271ae; stroke: #fefefa; stroke-width: 1.5"/>
     <use xlink:href="#m78e4126282" x="71.767305" y="35.293349" style="fill: #0271ae; stroke: #fefefa; stroke-width: 1.5"/>
     <use xlink:href="#m78e4126282" x="79.115532" y="35.293349" style="fill: #0271ae; stroke: #fefefa; stroke-width: 1.5"/>
     <use xlink:href="#m78e4126282" x="86.463759" y="35.293349" style="fill: #0271ae; stroke: #fefefa; stroke-width: 1.5"/>
     <use xlink:href="#m78e4126282" x="93.811986" y="35.293349" style="fill: #0271ae; stroke: #fefefa; stroke-width: 1.5"/>
     <use xlink:href="#m78e4126282" x="101.160214" y="35.293349" style="fill: #0271ae; stroke: #fefefa; stroke-width: 1.5"/>
     <use xlink:href="#m78e4126282" x="108.508441" y="35.293349" style="fill: #0271ae; stroke: #fefefa; stroke-width: 1.5"/>
     <use xlink:href="#m78e4126282" x="115.856668" y="35.293349" style="fill: #0271ae; stroke: #fefefa; stroke-width: 1.5"/>
     <use xlink:href="#m78e4126282" x="123.204895" y="94.437241" style="fill: #0271ae; stroke: #fefefa; stroke-width: 1.5"/>
     <use xlink:href="#m78e4126282" x="130.553122" y="94.437241" style="fill: #0271ae; stroke: #fefefa; stroke-width: 1.5"/>
     <use xlink:href="#m78e4126282" x="137.90135" y="94.437241" style="fill: #0271ae; stroke: #fefefa; stroke-width: 1.5"/>
     <use xlink:href="#m78e4126282" x="145.249577" y="94.437241" style="fill: #0271ae; stroke: #fefefa; stroke-width: 1.5"/>
     <use xlink:href="#m78e4126282" x="152.597804" y="94.437241" style="fill: #0271ae; stroke: #fefefa; stroke-width: 1.5"/>
     <use xlink:href="#m78e4126282" x="159.946031" y="94.437241" style="fill: #0271ae; stroke: #fefefa; stroke-width: 1.5"/>
     <use xlink:href="#m78e4126282" x="167.294258" y="94.437241" style="fill: #0271ae; stroke: #fefefa; stroke-width: 1.5"/>
     <use xlink:href="#m78e4126282" x="174.642486" y="94.437241" style="fill: #0271ae; stroke: #fefefa; stroke-width: 1.5"/>
     <use xlink:href="#m78e4126282" x="181.990713" y="35.293349" style="fill: #0271ae; stroke: #fefefa; stroke-width: 1.5"/>
     <use xlink:href="#m78e4126282" x="189.33894" y="35.293349" style="fill: #0271ae; stroke: #fefefa; stroke-width: 1.5"/>
     <use xlink:href="#m78e4126282" x="196.687167" y="35.293349" style="fill: #0271ae; stroke: #fefefa; stroke-width: 1.5"/>
     <use xlink:href="#m78e4126282" x="204.035394" y="35.293349" style="fill: #0271ae; stroke: #fefefa; stroke-width: 1.5"/>
     <use xlink:href="#m78e4126282" x="211.383621" y="35.293349" style="fill: #0271ae; stroke: #fefefa; stroke-width: 1.5"/>
     <use xlink:href="#m78e4126282" x="218.731849" y="35.293349" style="fill: #0271ae; stroke: #fefefa; stroke-width: 1.5"/>
     <use xlink:href="#m78e4126282" x="226.080076" y="35.293349" style="fill: #0271ae; stroke: #fefefa; stroke-width: 1.5"/>
     <use xlink:href="#m78e4126282" x="233.428303" y="35.293349" style="fill: #0271ae; stroke: #fefefa; stroke-width: 1.5"/>
     <use xlink:href="#m78e4126282" x="240.77653" y="94.437241" style="fill: #0271ae; stroke: #fefefa; stroke-width: 1.5"/>
     <use xlink:href="#m78e4126282" x="248.124757" y="94.437241" style="fill: #0271ae; stroke: #fefefa; stroke-width: 1.5"/>
     <use xlink:href="#m78e4126282" x="255.472985" y="94.437241" style="fill: #0271ae; stroke: #fefefa; stroke-width: 1.5"/>
     <use xlink:href="#m78e4126282" x="262.821212" y="94.437241" style="fill: #0271ae; stroke: #fefefa; stroke-width: 1.5"/>
     <use xlink:href="#m78e4126282" x="270.169439" y="94.437241" style="fill: #0271ae; stroke: #fefefa; stroke-width: 1.5"/>
     <use xlink:href="#m78e4126282" x="277.517666" y="94.437241" style="fill: #0271ae; stroke: #fefefa; stroke-width: 1.5"/>
     <use xlink:href="#m78e4126282" x="284.865893" y="94.437241" style="fill: #0271ae; stroke: #fefefa; stroke-width: 1.5"/>
     <use xlink:href="#m78e4126282" x="292.214121" y="94.437241" style="fill: #0271ae; stroke: #fefefa; stroke-width: 1.5"/>
     <use xlink:href="#m78e4126282" x="299.562348" y="94.437241" style="fill: #0271ae; stroke: #fefefa; stroke-width: 1.5"/>
     <use xlink:href="#m78e4126282" x="306.910575" y="35.293349" style="fill: #0271ae; stroke: #fefefa; stroke-width: 1.5"/>
     <use xlink:href="#m78e4126282" x="314.258802" y="35.293349" style="fill: #0271ae; stroke: #fefefa; stroke-width: 1.5"/>
     <use xlink:href="#m78e4126282" x="321.607029" y="35.293349" style="fill: #0271ae; stroke: #fefefa; stroke-width: 1.5"/>
     <use xlink:href="#m78e4126282" x="328.955256" y="35.293349" style="fill: #0271ae; stroke: #fefefa; stroke-width: 1.5"/>
     <use xlink:href="#m78e4126282" x="336.303484" y="35.293349" style="fill: #0271ae; stroke: #fefefa; stroke-width: 1.5"/>
     <use xlink:href="#m78e4126282" x="343.651711" y="35.293349" style="fill: #0271ae; stroke: #fefefa; stroke-width: 1.5"/>
     <use xlink:href="#m78e4126282" x="350.999938" y="35.293349" style="fill: #0271ae; stroke: #fefefa; stroke-width: 1.5"/>
     <use xlink:href="#m78e4126282" x="358.348165" y="35.293349" style="fill: #0271ae; stroke: #fefefa; stroke-width: 1.5"/>
     <use xlink:href="#m78e4126282" x="365.696392" y="94.437241" style="fill: #0271ae; stroke: #fefefa; stroke-width: 1.5"/>
     <use xlink:href="#m78e4126282" x="373.04462" y="94.437241" style="fill: #0271ae; stroke: #fefefa; stroke-width: 1.5"/>
     <use xlink:href="#m78e4126282" x="380.392847" y="94.437241" style="fill: #0271ae; stroke: #fefefa; stroke-width: 1.5"/>
     <use xlink:href="#m78e4126282" x="387.741074" y="94.437241" style="fill: #0271ae; stroke: #fefefa; stroke-width: 1.5"/>
     <use xlink:href="#m78e4126282" x="395.089301" y="94.437241" style="fill: #0271ae; stroke: #fefefa; stroke-width: 1.5"/>
     <use xlink:href="#m78e4126282" x="402.437528" y="94.437241" style="fill: #0271ae; stroke: #fefefa; stroke-width: 1.5"/>
     <use xlink:href="#m78e4126282" x="409.785756" y="94.437241" style="fill: #0271ae; stroke: #fefefa; stroke-width: 1.5"/>
     <use xlink:href="#m78e4126282" x="417.133983" y="94.437241" style="fill: #0271ae; stroke: #fefefa; stroke-width: 1.5"/>
    </g>
   </g>
   <g id="legend_1">
    <g id="patch_3">
     <path d="M 66.870851 115.530589 
L 121.653 115.530589 
Q 124.453 115.530589 124.453 112.730589 
L 124.453 92.597108 
Q 124.453 89.797108 121.653 89.797108 
L 66.870851 89.797108 
Q 64.070851 89.797108 64.070851 92.597108 
L 64.070851 112.730589 
Q 64.070851 115.530589 66.870851 115.530589 
z
" style="fill: #ffffff; opacity: 0.95; stroke: #cccccc; stroke-width: 0.5; stroke-linejoin: miter"/>
    </g>
    <g id="line2d_20">
     <path d="M 69.670851 101.097417 
L 76.670851 101.097417 
L 76.670851 101.097417 
L 83.670851 101.097417 
L 83.670851 101.097417 
" style="fill: none; stroke: #0271ae; stroke-width: 2; stroke-linecap: round"/>
     <g>
      <use xlink:href="#m78e4126282" x="76.670851" y="101.097417" style="fill: #0271ae; stroke: #fefefa; stroke-width: 1.5"/>
     </g>
    </g>
    <g id="text_5">
     <!-- $x[n]$ -->
     <g transform="translate(94.870851 105.997417)scale(0.14 -0.14)">
      <defs>
       <path id="URWPalladioL-Ital-78" d="M 134 567 
C 134 440 122 358 83 153 
C 70 76 64 57 58 12 
C 154 -39 256 -64 333 -64 
C 544 -64 794 121 992 421 
L 1478 1164 
L 1549 726 
C 1632 185 1779 -64 2010 -64 
C 2150 -64 2355 44 2560 230 
L 2874 510 
L 2816 631 
C 2586 440 2426 345 2323 345 
C 2227 345 2144 409 2080 536 
C 2022 656 1952 891 1920 1075 
L 1805 1716 
L 2029 2027 
C 2330 2439 2502 2585 2701 2585 
C 2803 2585 2880 2534 2912 2439 
L 3002 2465 
L 3098 3007 
C 3021 3052 2963 3072 2906 3072 
C 2650 3072 2394 2841 1997 2255 
L 1760 1906 
L 1722 2211 
C 1645 2841 1472 3072 1094 3072 
C 928 3072 787 3020 730 2937 
L 358 2408 
L 467 2344 
C 659 2560 787 2649 909 2649 
C 1120 2649 1261 2389 1370 1767 
L 1440 1373 
L 1184 980 
C 909 555 691 352 512 352 
C 416 352 346 377 333 409 
L 262 586 
L 134 567 
z
" transform="scale(0.015625)"/>
       <path id="CMR10-5b" d="M 1632 -1601 
L 1632 -1344 
L 1011 -1344 
L 1011 4544 
L 1632 4544 
L 1632 4800 
L 755 4800 
L 755 -1601 
L 1632 -1601 
z
" transform="scale(0.015625)"/>
       <path id="URWPalladioL-Ital-6e" d="M 154 2471 
L 198 2343 
L 403 2477 
C 640 2624 659 2637 704 2637 
C 774 2637 819 2573 819 2477 
C 819 2152 557 919 294 6 
L 339 -64 
C 499 -20 646 19 787 44 
C 909 849 1043 1264 1338 1705 
C 1683 2241 2163 2637 2451 2637 
C 2522 2637 2560 2579 2560 2484 
C 2560 2369 2541 2235 2490 2030 
L 2157 677 
C 2099 440 2074 293 2074 191 
C 2074 32 2144 -64 2266 -64 
C 2432 -64 2662 70 3290 536 
L 3226 651 
L 3059 542 
C 2874 421 2733 351 2669 351 
C 2624 351 2586 408 2586 479 
C 2586 511 2592 581 2598 606 
L 3021 2369 
C 3066 2554 3091 2733 3091 2841 
C 3091 2988 3021 3072 2893 3072 
C 2624 3072 2182 2829 1805 2477 
C 1562 2254 1382 2037 1050 1571 
L 1293 2599 
C 1318 2714 1331 2790 1331 2860 
C 1331 2995 1280 3072 1184 3072 
C 1050 3072 800 2931 333 2599 
L 154 2471 
z
" transform="scale(0.015625)"/>
       <path id="CMR10-5d" d="M 1018 4800 
L 141 4800 
L 141 4544 
L 762 4544 
L 762 -1344 
L 141 -1344 
L 141 -1601 
L 1018 -1601 
L 1018 4800 
z
" transform="scale(0.015625)"/>
      </defs>
      <use xlink:href="#URWPalladioL-Ital-78" transform="scale(0.996264)"/>
      <use xlink:href="#CMR10-5b" transform="translate(53.299136 0)scale(1.038107)"/>
      <use xlink:href="#URWPalladioL-Ital-6e" transform="translate(84.581835 0)scale(0.996264)"/>
      <use xlink:href="#CMR10-5d" transform="translate(142.464796 0)scale(1.038107)"/>
     </g>
    </g>
   </g>
  </g>
  <g id="axes_2">
   <g id="patch_4">
    <path d="M 57.070851 243.861659 
L 424.48221 243.861659 
L 424.48221 128.531069 
L 57.070851 128.531069 
L 57.070851 243.861659 
z
" style="fill: none"/>
   </g>
   <g id="patch_5">
    <path d="M 57.070851 243.861659 
L 57.070851 128.531069 
L 64.419078 128.531069 
L 64.419078 243.861659 
z
" clip-path="url(#p0ceeaf899f)" style="fill: #343837; opacity: 0.1; stroke: #343837; stroke-width: 0.5; stroke-linejoin: miter"/>
   </g>
   <g id="matplotlib.axis_3">
    <g id="xtick_7">
     <g id="line2d_21">
      <path d="M 57.070851 243.861659 
L 57.070851 128.531069 
" clip-path="url(#p0ceeaf899f)" style="fill: none; stroke: #000000; stroke-opacity: 0.2; stroke-width: 0.5; stroke-linecap: round"/>
     </g>
     <g id="line2d_22">
      <g>
       <use xlink:href="#mba28a77da1" x="57.070851" y="243.861659" style="fill-opacity: 0.2; stroke: #000000; stroke-opacity: 0.2; stroke-width: 0.5"/>
      </g>
     </g>
     <g id="text_6">
      <!-- $\mathdefault{0.0}$ -->
      <g transform="translate(48.35354 269.341188)scale(0.14 -0.14)">
       <defs>
        <path id="URWPalladioL-Roma-2e" d="M 794 678 
C 602 678 429 499 429 307 
C 429 115 602 -64 787 -64 
C 992 -64 1171 108 1171 307 
C 1171 499 992 678 794 678 
z
" transform="scale(0.015625)"/>
       </defs>
       <use xlink:href="#URWPalladioL-Roma-30" transform="scale(0.996264)"/>
       <use xlink:href="#URWPalladioL-Roma-2e" transform="translate(49.8132 0)scale(0.996264)"/>
       <use xlink:href="#URWPalladioL-Roma-30" transform="translate(74.719801 0)scale(0.996264)"/>
      </g>
     </g>
    </g>
    <g id="xtick_8">
     <g id="line2d_23">
      <path d="M 130.553122 243.861659 
L 130.553122 128.531069 
" clip-path="url(#p0ceeaf899f)" style="fill: none; stroke: #000000; stroke-opacity: 0.2; stroke-width: 0.5; stroke-linecap: round"/>
     </g>
     <g id="line2d_24">
      <g>
       <use xlink:href="#mba28a77da1" x="130.553122" y="243.861659" style="fill-opacity: 0.2; stroke: #000000; stroke-opacity: 0.2; stroke-width: 0.5"/>
      </g>
     </g>
     <g id="text_7">
      <!-- $\mathdefault{0.2}$ -->
      <g transform="translate(121.835812 269.341188)scale(0.14 -0.14)">
       <defs>
        <path id="URWPalladioL-Roma-32" d="M 102 166 
L 102 0 
C 1299 0 1299 0 1530 0 
C 1760 19 1760 19 2995 0 
C 2982 134 2982 198 2982 287 
C 2982 370 2982 434 2995 574 
C 2259 542 1965 536 781 510 
L 1946 1741 
C 2566 2398 2758 2749 2758 3228 
C 2758 3961 2259 4416 1446 4416 
C 986 4416 672 4287 358 3967 
L 250 3100 
L 435 3100 
L 518 3394 
C 621 3763 851 3923 1280 3923 
C 1830 3923 2182 3578 2182 3036 
C 2182 2558 1914 2086 1190 1320 
L 102 166 
z
" transform="scale(0.015625)"/>
       </defs>
       <use xlink:href="#URWPalladioL-Roma-30" transform="scale(0.996264)"/>
       <use xlink:href="#URWPalladioL-Roma-2e" transform="translate(49.8132 0)scale(0.996264)"/>
       <use xlink:href="#URWPalladioL-Roma-32" transform="translate(74.719801 0)scale(0.996264)"/>
      </g>
     </g>
    </g>
    <g id="xtick_9">
     <g id="line2d_25">
      <path d="M 204.035394 243.861659 
L 204.035394 128.531069 
" clip-path="url(#p0ceeaf899f)" style="fill: none; stroke: #000000; stroke-opacity: 0.2; stroke-width: 0.5; stroke-linecap: round"/>
     </g>
     <g id="line2d_26">
      <g>
       <use xlink:href="#mba28a77da1" x="204.035394" y="243.861659" style="fill-opacity: 0.2; stroke: #000000; stroke-opacity: 0.2; stroke-width: 0.5"/>
      </g>
     </g>
     <g id="text_8">
      <!-- $\mathdefault{0.4}$ -->
      <g transform="translate(195.318084 269.341188)scale(0.14 -0.14)">
       <defs>
        <path id="URWPalladioL-Roma-34" d="M 1792 1152 
L 1792 684 
C 1792 310 1722 223 1408 210 
L 1011 192 
L 1011 0 
C 1862 0 1862 0 2016 0 
C 2170 19 2170 19 3021 0 
L 3021 192 
L 2714 210 
C 2400 229 2330 310 2330 684 
L 2330 1152 
C 2707 1152 2842 1145 3021 1127 
L 3021 1580 
C 2720 1555 2598 1555 2502 1561 
L 2483 1561 
L 2330 1561 
L 2330 2445 
C 2330 3576 2342 4122 2374 4383 
L 2298 4416 
L 1824 4243 
L 13 1299 
L 83 1152 
L 1792 1152 
z
M 1792 1561 
L 416 1561 
L 1792 3798 
L 1792 1561 
z
" transform="scale(0.015625)"/>
       </defs>
       <use xlink:href="#URWPalladioL-Roma-30" transform="scale(0.996264)"/>
       <use xlink:href="#URWPalladioL-Roma-2e" transform="translate(49.8132 0)scale(0.996264)"/>
       <use xlink:href="#URWPalladioL-Roma-34" transform="translate(74.719801 0)scale(0.996264)"/>
      </g>
     </g>
    </g>
    <g id="xtick_10">
     <g id="line2d_27">
      <path d="M 277.517666 243.861659 
L 277.517666 128.531069 
" clip-path="url(#p0ceeaf899f)" style="fill: none; stroke: #000000; stroke-opacity: 0.2; stroke-width: 0.5; stroke-linecap: round"/>
     </g>
     <g id="line2d_28">
      <g>
       <use xlink:href="#mba28a77da1" x="277.517666" y="243.861659" style="fill-opacity: 0.2; stroke: #000000; stroke-opacity: 0.2; stroke-width: 0.5"/>
      </g>
     </g>
     <g id="text_9">
      <!-- $\mathdefault{0.6}$ -->
      <g transform="translate(268.800356 269.341188)scale(0.14 -0.14)">
       <defs>
        <path id="URWPalladioL-Roma-36" d="M 2662 4287 
L 2426 4396 
C 1811 4193 1549 4066 1222 3788 
C 563 3237 205 2463 205 1585 
C 205 526 717 -128 1542 -128 
C 2374 -128 2995 532 2995 1405 
C 2995 2143 2554 2624 1875 2624 
C 1555 2624 1363 2540 986 2239 
C 915 2182 909 2175 838 2124 
C 973 3275 1510 3895 2662 4237 
L 2662 4287 
z
M 1632 2239 
C 2118 2239 2445 1816 2445 1180 
C 2445 513 2118 83 1626 83 
C 1082 83 787 551 787 1411 
C 787 1636 813 1758 883 1867 
C 1024 2085 1325 2239 1632 2239 
z
" transform="scale(0.015625)"/>
       </defs>
       <use xlink:href="#URWPalladioL-Roma-30" transform="scale(0.996264)"/>
       <use xlink:href="#URWPalladioL-Roma-2e" transform="translate(49.8132 0)scale(0.996264)"/>
       <use xlink:href="#URWPalladioL-Roma-36" transform="translate(74.719801 0)scale(0.996264)"/>
      </g>
     </g>
    </g>
    <g id="xtick_11">
     <g id="line2d_29">
      <path d="M 350.999938 243.861659 
L 350.999938 128.531069 
" clip-path="url(#p0ceeaf899f)" style="fill: none; stroke: #000000; stroke-opacity: 0.2; stroke-width: 0.5; stroke-linecap: round"/>
     </g>
     <g id="line2d_30">
      <g>
       <use xlink:href="#mba28a77da1" x="350.999938" y="243.861659" style="fill-opacity: 0.2; stroke: #000000; stroke-opacity: 0.2; stroke-width: 0.5"/>
      </g>
     </g>
     <g id="text_10">
      <!-- $\mathdefault{0.8}$ -->
      <g transform="translate(342.282628 269.341188)scale(0.14 -0.14)">
       <defs>
        <path id="URWPalladioL-Roma-38" d="M 1075 2211 
C 813 2089 704 2019 563 1884 
C 320 1640 192 1352 192 1019 
C 192 358 723 -128 1446 -128 
C 2278 -128 2970 525 2970 1320 
C 2970 1833 2733 2108 2003 2442 
C 2586 2839 2790 3108 2790 3493 
C 2790 4044 2336 4416 1658 4416 
C 896 4416 339 3929 339 3256 
C 339 2820 512 2576 1075 2211 
z
M 1818 1890 
C 2221 1711 2464 1397 2464 1051 
C 2464 512 2061 89 1542 89 
C 998 89 646 474 646 1070 
C 646 1538 832 1833 1306 2121 
L 1818 1890 
z
M 1427 2711 
C 1024 2910 819 3166 819 3486 
C 819 3910 1126 4198 1581 4198 
C 2048 4198 2355 3890 2355 3422 
C 2355 3057 2195 2807 1779 2538 
L 1427 2711 
z
" transform="scale(0.015625)"/>
       </defs>
       <use xlink:href="#URWPalladioL-Roma-30" transform="scale(0.996264)"/>
       <use xlink:href="#URWPalladioL-Roma-2e" transform="translate(49.8132 0)scale(0.996264)"/>
       <use xlink:href="#URWPalladioL-Roma-38" transform="translate(74.719801 0)scale(0.996264)"/>
      </g>
     </g>
    </g>
    <g id="xtick_12">
     <g id="line2d_31">
      <path d="M 424.48221 243.861659 
L 424.48221 128.531069 
" clip-path="url(#p0ceeaf899f)" style="fill: none; stroke: #000000; stroke-opacity: 0.2; stroke-width: 0.5; stroke-linecap: round"/>
     </g>
     <g id="line2d_32">
      <g>
       <use xlink:href="#mba28a77da1" x="424.48221" y="243.861659" style="fill-opacity: 0.2; stroke: #000000; stroke-opacity: 0.2; stroke-width: 0.5"/>
      </g>
     </g>
     <g id="text_11">
      <!-- $\mathdefault{1.0}$ -->
      <g transform="translate(415.7649 269.341188)scale(0.14 -0.14)">
       <use xlink:href="#URWPalladioL-Roma-31" transform="scale(0.996264)"/>
       <use xlink:href="#URWPalladioL-Roma-2e" transform="translate(49.8132 0)scale(0.996264)"/>
       <use xlink:href="#URWPalladioL-Roma-30" transform="translate(74.719801 0)scale(0.996264)"/>
      </g>
     </g>
    </g>
    <g id="text_12">
     <!-- Time [seconds] -->
     <g transform="translate(201.103679 285.828236)scale(0.12 -0.12)">
      <defs>
       <path id="URWPalladioL-Roma-54" d="M 1632 4096 
C 1651 3880 1658 3734 1658 3462 
L 1658 781 
C 1658 280 1626 230 1331 211 
L 1024 192 
L 1024 0 
C 1402 -7 1626 0 1958 0 
C 2291 19 2522 12 2899 0 
L 2899 192 
L 2592 211 
C 2298 230 2266 280 2266 781 
L 2266 3462 
C 2266 3747 2272 3887 2291 4096 
L 3283 4096 
C 3462 4096 3533 4039 3539 3887 
L 3565 3386 
L 3763 3386 
C 3763 3801 3776 4051 3808 4416 
C 3347 4409 3136 4409 2957 4403 
C 2707 4390 2522 4390 2426 4390 
L 1414 4390 
C 1350 4390 1005 4396 550 4403 
L 115 4416 
C 147 4051 160 3801 160 3385 
L 358 3385 
L 384 3891 
C 390 4038 461 4096 640 4096 
L 1632 4096 
z
" transform="scale(0.015625)"/>
       <path id="URWPalladioL-Roma-69" d="M 1203 2982 
L 1146 3008 
C 819 2873 486 2784 147 2746 
L 147 2568 
L 384 2568 
C 640 2568 666 2523 666 2103 
L 666 669 
C 666 268 646 223 429 211 
L 134 192 
L 134 0 
C 774 0 774 0 934 0 
C 1094 19 1094 19 1734 0 
L 1734 192 
L 1440 211 
C 1222 224 1203 268 1203 671 
L 1203 2982 
z
M 909 4416 
C 717 4416 550 4249 550 4057 
C 550 3871 717 3705 902 3705 
C 1088 3705 1261 3871 1261 4057 
C 1261 4236 1088 4416 909 4416 
z
" transform="scale(0.015625)"/>
       <path id="URWPalladioL-Roma-6d" d="M 115 2579 
L 352 2579 
C 608 2579 634 2534 634 2112 
L 634 672 
C 634 268 614 224 397 211 
L 102 192 
L 102 0 
C 717 0 736 0 915 0 
C 1094 19 1261 12 1677 0 
L 1677 192 
L 1408 211 
C 1190 223 1171 268 1171 670 
L 1171 2023 
C 1171 2311 1594 2624 1978 2624 
C 2323 2624 2560 2298 2560 1813 
L 2560 670 
C 2560 268 2541 223 2323 211 
L 2029 192 
L 2029 0 
C 2669 0 2669 0 2829 0 
C 2989 19 2989 19 3629 0 
L 3629 192 
L 3334 211 
C 3117 223 3098 268 3098 670 
L 3098 2023 
C 3098 2311 3520 2624 3904 2624 
C 4250 2624 4486 2298 4486 1813 
L 4486 0 
C 4877 0 4883 0 4992 0 
C 5075 19 5075 19 5562 0 
L 5562 192 
L 5261 211 
C 5043 223 5024 268 5024 670 
L 5024 1985 
C 5024 2617 4653 3014 4064 3014 
C 3840 3014 3654 2956 3539 2854 
L 3053 2419 
C 2848 2841 2586 3014 2144 3014 
C 1907 3014 1728 2956 1613 2854 
L 1171 2445 
L 1171 2988 
L 1114 3008 
C 787 2873 454 2783 115 2745 
L 115 2579 
z
" transform="scale(0.015625)"/>
       <path id="URWPalladioL-Roma-65" d="M 2797 447 
L 2714 511 
C 2304 268 2157 211 1882 211 
C 1466 211 1120 396 941 710 
C 819 921 774 1100 762 1472 
L 1696 1472 
C 2138 1472 2413 1491 2854 1561 
C 2861 1651 2867 1708 2867 1786 
C 2867 2526 2394 3008 1677 3008 
C 1440 3008 1165 2924 902 2771 
C 378 2468 166 2069 166 1401 
C 166 998 262 652 435 409 
C 691 70 1120 -128 1600 -128 
C 1837 -128 2074 -77 2336 38 
C 2509 108 2643 192 2669 230 
L 2797 447 
z
M 2298 1708 
C 1965 1696 1811 1689 1581 1689 
C 1286 1689 1120 1696 774 1728 
C 774 2030 800 2172 883 2339 
C 1018 2623 1293 2796 1600 2796 
C 1811 2796 1978 2713 2093 2539 
C 2234 2326 2278 2140 2298 1708 
z
" transform="scale(0.015625)"/>
       <path id="URWPalladioL-Roma-5b" d="M 563 -1178 
C 1018 -1166 1030 -1166 1184 -1166 
C 1338 -1166 1370 -1166 1805 -1178 
L 1843 -1140 
L 1843 -974 
L 1818 -942 
L 1574 -942 
C 1402 -942 1261 -903 1184 -839 
C 1126 -782 1107 -692 1107 -481 
C 1107 -474 1107 -340 1101 -148 
L 1101 89 
L 1101 3379 
L 1101 3615 
C 1107 3795 1107 3935 1107 3942 
C 1107 4153 1126 4249 1184 4307 
C 1261 4371 1402 4409 1574 4409 
L 1818 4409 
L 1843 4441 
L 1843 4608 
L 1805 4646 
C 1357 4633 1338 4633 1184 4633 
C 1037 4633 1005 4633 563 4646 
L 506 4563 
C 544 4403 557 4191 557 3699 
C 557 3603 557 3526 563 3462 
L 563 3379 
L 563 89 
L 563 6 
C 557 -97 557 -103 557 -212 
L 557 -282 
C 557 -718 544 -897 506 -1095 
L 563 -1178 
z
" transform="scale(0.015625)"/>
       <path id="URWPalladioL-Roma-73" d="M 262 917 
C 262 474 243 282 192 25 
C 525 -84 774 -128 1069 -128 
C 1907 -128 2502 320 2502 949 
C 2502 1148 2445 1295 2323 1423 
C 2157 1584 1946 1661 1382 1770 
C 858 1872 685 2001 685 2296 
C 685 2617 909 2796 1299 2796 
C 1728 2796 2054 2572 2054 2270 
L 2054 2123 
L 2234 2123 
C 2240 2495 2246 2649 2266 2847 
C 1926 2963 1696 3008 1434 3008 
C 691 3008 237 2655 237 2078 
C 237 1770 378 1552 672 1417 
C 845 1340 1184 1237 1619 1141 
C 1907 1077 2029 942 2029 698 
C 2029 352 1709 108 1254 108 
C 787 108 454 333 454 654 
L 454 917 
L 262 917 
z
" transform="scale(0.015625)"/>
       <path id="URWPalladioL-Roma-63" d="M 2554 1995 
C 2554 2290 2586 2553 2643 2783 
C 2387 2937 2163 3008 1901 3008 
C 1594 3008 1235 2886 851 2643 
C 403 2360 166 1911 166 1347 
C 166 480 774 -128 1632 -128 
C 1965 -128 2445 -7 2509 89 
L 2643 294 
L 2579 390 
C 2342 262 2138 204 1907 204 
C 1197 204 730 756 730 1603 
C 730 2290 1050 2675 1626 2675 
C 1907 2675 2214 2547 2330 2386 
L 2374 1995 
L 2554 1995 
z
" transform="scale(0.015625)"/>
       <path id="URWPalladioL-Roma-6f" d="M 1786 3008 
C 851 3008 205 2347 205 1391 
C 205 487 774 -128 1600 -128 
C 2586 -128 3290 557 3290 1520 
C 3290 2386 2662 3008 1786 3008 
z
M 1670 2796 
C 2259 2796 2694 2155 2694 1282 
C 2694 545 2368 83 1850 83 
C 1222 83 800 699 800 1609 
C 800 2379 1107 2796 1670 2796 
z
" transform="scale(0.015625)"/>
       <path id="URWPalladioL-Roma-64" d="M 2637 2803 
C 2278 2956 2099 3008 1875 3008 
C 1702 3008 1549 2969 1389 2886 
L 826 2592 
C 461 2400 224 1934 224 1392 
C 224 881 397 460 710 204 
C 928 19 1229 -64 1645 -64 
C 1773 -64 1920 -39 1952 -13 
L 2662 581 
L 2630 0 
C 2944 -7 3046 0 3123 0 
C 3174 0 3264 0 3398 -7 
C 3443 6 3571 6 3706 0 
L 3706 192 
L 3411 211 
C 3194 224 3174 268 3174 672 
L 3174 4614 
L 3117 4665 
C 2835 4557 2624 4505 2118 4429 
L 2118 4249 
L 2477 4249 
C 2592 4249 2637 4179 2637 3987 
L 2637 2803 
z
M 2637 1424 
C 2637 1009 2624 945 2541 798 
C 2362 498 2048 300 1747 300 
C 1184 300 781 843 781 1602 
C 781 2298 1126 2707 1702 2707 
C 1946 2707 2202 2624 2426 2470 
C 2560 2381 2637 2298 2637 2247 
L 2637 1424 
z
" transform="scale(0.015625)"/>
       <path id="URWPalladioL-Roma-5d" d="M 1568 4646 
C 1114 4633 1094 4633 947 4633 
C 794 4633 762 4633 326 4646 
L 288 4608 
L 288 4441 
L 314 4409 
L 557 4409 
C 730 4409 864 4371 941 4307 
C 1005 4249 1024 4159 1024 3942 
C 1024 3923 1024 3795 1030 3615 
L 1030 3379 
L 1030 89 
L 1030 -148 
C 1024 -334 1024 -449 1024 -468 
C 1024 -686 1005 -782 941 -839 
C 864 -903 730 -942 557 -942 
L 314 -942 
L 288 -974 
L 288 -1140 
L 326 -1178 
C 774 -1166 787 -1166 947 -1166 
C 1094 -1166 1126 -1166 1568 -1178 
L 1626 -1095 
C 1587 -942 1581 -743 1574 -250 
C 1574 -161 1574 -78 1568 6 
L 1568 89 
L 1568 3379 
L 1568 3462 
C 1574 3532 1574 3615 1574 3705 
C 1574 4198 1587 4409 1626 4563 
L 1568 4646 
z
" transform="scale(0.015625)"/>
      </defs>
      <use xlink:href="#URWPalladioL-Roma-54" transform="scale(0.996264)"/>
      <use xlink:href="#URWPalladioL-Roma-69" transform="translate(55.591109 0)scale(0.996264)"/>
      <use xlink:href="#URWPalladioL-Roma-6d" transform="translate(84.581471 0)scale(0.996264)"/>
      <use xlink:href="#URWPalladioL-Roma-65" transform="translate(172.551145 0)scale(0.996264)"/>
      <use xlink:href="#URWPalladioL-Roma-5b" transform="translate(245.17804 0)scale(0.996264)"/>
      <use xlink:href="#URWPalladioL-Roma-73" transform="translate(278.35327 0)scale(0.996264)"/>
      <use xlink:href="#URWPalladioL-Roma-65" transform="translate(320.594736 0)scale(0.996264)"/>
      <use xlink:href="#URWPalladioL-Roma-63" transform="translate(368.315031 0)scale(0.996264)"/>
      <use xlink:href="#URWPalladioL-Roma-6f" transform="translate(412.5486 0)scale(0.996264)"/>
      <use xlink:href="#URWPalladioL-Roma-6e" transform="translate(466.94418 0)scale(0.996264)"/>
      <use xlink:href="#URWPalladioL-Roma-64" transform="translate(524.926241 0)scale(0.996264)"/>
      <use xlink:href="#URWPalladioL-Roma-73" transform="translate(585.797872 0)scale(0.996264)"/>
      <use xlink:href="#URWPalladioL-Roma-5d" transform="translate(628.039338 0)scale(0.996264)"/>
     </g>
    </g>
   </g>
   <g id="matplotlib.axis_4">
    <g id="ytick_4">
     <g id="line2d_33">
      <path d="M 57.070851 215.76831 
L 424.48221 215.76831 
" clip-path="url(#p0ceeaf899f)" style="fill: none; stroke: #000000; stroke-opacity: 0.2; stroke-width: 0.5; stroke-linecap: round"/>
     </g>
     <g id="line2d_34">
      <g>
       <use xlink:href="#m664293ecc3" x="57.070851" y="215.76831" style="fill-opacity: 0.2; stroke: #000000; stroke-opacity: 0.2; stroke-width: 0.5"/>
      </g>
     </g>
     <g id="text_13">
      <!-- $\mathdefault{−1}$ -->
      <g transform="translate(23.12516 220.758075)scale(0.14 -0.14)">
       <use xlink:href="#CMSY10-0" transform="scale(1.038107)"/>
       <use xlink:href="#URWPalladioL-Roma-31" transform="translate(81.941696 0)scale(0.996264)"/>
      </g>
     </g>
    </g>
    <g id="ytick_5">
     <g id="line2d_35">
      <path d="M 57.070851 186.196364 
L 424.48221 186.196364 
" clip-path="url(#p0ceeaf899f)" style="fill: none; stroke: #000000; stroke-opacity: 0.2; stroke-width: 0.5; stroke-linecap: round"/>
     </g>
     <g id="line2d_36">
      <g>
       <use xlink:href="#m664293ecc3" x="57.070851" y="186.196364" style="fill-opacity: 0.2; stroke: #000000; stroke-opacity: 0.2; stroke-width: 0.5"/>
      </g>
     </g>
     <g id="text_14">
      <!-- $\mathdefault{0}$ -->
      <g transform="translate(34.597002 191.186129)scale(0.14 -0.14)">
       <use xlink:href="#URWPalladioL-Roma-30" transform="scale(0.996264)"/>
      </g>
     </g>
    </g>
    <g id="ytick_6">
     <g id="line2d_37">
      <path d="M 57.070851 156.624418 
L 424.48221 156.624418 
" clip-path="url(#p0ceeaf899f)" style="fill: none; stroke: #000000; stroke-opacity: 0.2; stroke-width: 0.5; stroke-linecap: round"/>
     </g>
     <g id="line2d_38">
      <g>
       <use xlink:href="#m664293ecc3" x="57.070851" y="156.624418" style="fill-opacity: 0.2; stroke: #000000; stroke-opacity: 0.2; stroke-width: 0.5"/>
      </g>
     </g>
     <g id="text_15">
      <!-- $\mathdefault{1}$ -->
      <g transform="translate(34.597002 161.614183)scale(0.14 -0.14)">
       <use xlink:href="#URWPalladioL-Roma-31" transform="scale(0.996264)"/>
      </g>
     </g>
    </g>
    <g id="text_16">
     <!-- Output -->
     <g transform="translate(15.753876 205.593291)rotate(-90)scale(0.12 -0.12)">
      <defs>
       <path id="URWPalladioL-Roma-4f" d="M 2573 4544 
C 1114 4544 141 3595 141 2185 
C 141 839 1075 -128 2368 -128 
C 3802 -128 4890 942 4890 2352 
C 4890 3698 3994 4544 2573 4544 
z
M 2464 4275 
C 3558 4275 4205 3493 4205 2160 
C 4205 890 3616 140 2624 140 
C 1549 140 826 1051 826 2422 
C 826 3608 1414 4275 2464 4275 
z
" transform="scale(0.015625)"/>
      </defs>
      <use xlink:href="#URWPalladioL-Roma-4f" transform="scale(0.996264)"/>
      <use xlink:href="#URWPalladioL-Roma-75" transform="translate(78.306281 0)scale(0.996264)"/>
      <use xlink:href="#URWPalladioL-Roma-74" transform="translate(138.380016 0)scale(0.996264)"/>
      <use xlink:href="#URWPalladioL-Roma-70" transform="translate(170.857104 0)scale(0.996264)"/>
      <use xlink:href="#URWPalladioL-Roma-75" transform="translate(230.731498 0)scale(0.996264)"/>
      <use xlink:href="#URWPalladioL-Roma-74" transform="translate(290.805232 0)scale(0.996264)"/>
     </g>
    </g>
   </g>
   <g id="line2d_39">
    <path d="M 57.070851 171.410391 
L 64.419078 171.410391 
L 64.419078 186.196364 
L 71.767305 186.196364 
L 71.767305 186.196364 
L 79.115532 186.196364 
L 79.115532 186.196364 
L 86.463759 186.196364 
L 86.463759 186.196364 
L 93.811986 186.196364 
L 93.811986 186.196364 
L 101.160214 186.196364 
L 101.160214 186.196364 
L 108.508441 186.196364 
L 108.508441 186.196364 
L 115.856668 186.196364 
L 115.856668 186.196364 
L 123.204895 186.196364 
L 123.204895 215.76831 
L 130.553122 215.76831 
L 130.553122 186.196364 
L 137.90135 186.196364 
L 137.90135 186.196364 
L 145.249577 186.196364 
L 145.249577 186.196364 
L 152.597804 186.196364 
L 152.597804 186.196364 
L 159.946031 186.196364 
L 159.946031 186.196364 
L 167.294258 186.196364 
L 167.294258 186.196364 
L 174.642486 186.196364 
L 174.642486 186.196364 
L 181.990713 186.196364 
L 181.990713 156.624418 
L 189.33894 156.624418 
L 189.33894 186.196364 
L 196.687167 186.196364 
L 196.687167 186.196364 
L 204.035394 186.196364 
L 204.035394 186.196364 
L 211.383621 186.196364 
L 211.383621 186.196364 
L 218.731849 186.196364 
L 218.731849 186.196364 
L 226.080076 186.196364 
L 226.080076 186.196364 
L 233.428303 186.196364 
L 233.428303 186.196364 
L 240.77653 186.196364 
L 240.77653 215.76831 
L 248.124757 215.76831 
L 248.124757 186.196364 
L 255.472985 186.196364 
L 255.472985 186.196364 
L 262.821212 186.196364 
L 262.821212 186.196364 
L 270.169439 186.196364 
L 270.169439 186.196364 
L 277.517666 186.196364 
L 277.517666 186.196364 
L 284.865893 186.196364 
L 284.865893 186.196364 
L 292.214121 186.196364 
L 292.214121 186.196364 
L 299.562348 186.196364 
L 299.562348 186.196364 
L 306.910575 186.196364 
L 306.910575 156.624418 
L 314.258802 156.624418 
L 314.258802 186.196364 
L 321.607029 186.196364 
L 321.607029 186.196364 
L 328.955256 186.196364 
L 328.955256 186.196364 
L 336.303484 186.196364 
L 336.303484 186.196364 
L 343.651711 186.196364 
L 343.651711 186.196364 
L 350.999938 186.196364 
L 350.999938 186.196364 
L 358.348165 186.196364 
L 358.348165 186.196364 
L 365.696392 186.196364 
L 365.696392 215.76831 
L 373.04462 215.76831 
L 373.04462 186.196364 
L 380.392847 186.196364 
L 380.392847 186.196364 
L 387.741074 186.196364 
L 387.741074 186.196364 
L 395.089301 186.196364 
L 395.089301 186.196364 
L 402.437528 186.196364 
L 402.437528 186.196364 
L 409.785756 186.196364 
L 409.785756 186.196364 
L 417.133983 186.196364 
L 417.133983 186.196364 
" clip-path="url(#p0ceeaf899f)" style="fill: none; stroke: #6e3b87; stroke-width: 2; stroke-linecap: round"/>
    <defs>
     <path id="m3ef637695c" d="M 0 3.5 
C 0.928211 3.5 1.81853 3.131218 2.474874 2.474874 
C 3.131218 1.81853 3.5 0.928211 3.5 0 
C 3.5 -0.928211 3.131218 -1.81853 2.474874 -2.474874 
C 1.81853 -3.131218 0.928211 -3.5 0 -3.5 
C -0.928211 -3.5 -1.81853 -3.131218 -2.474874 -2.474874 
C -3.131218 -1.81853 -3.5 -0.928211 -3.5 0 
C -3.5 0.928211 -3.131218 1.81853 -2.474874 2.474874 
C -1.81853 3.131218 -0.928211 3.5 0 3.5 
z
" style="stroke: #fefefa; stroke-width: 1.5"/>
    </defs>
    <g clip-path="url(#p0ceeaf899f)">
     <use xlink:href="#m3ef637695c" x="57.070851" y="171.410391" style="fill: #6e3b87; stroke: #fefefa; stroke-width: 1.5"/>
     <use xlink:href="#m3ef637695c" x="64.419078" y="186.196364" style="fill: #6e3b87; stroke: #fefefa; stroke-width: 1.5"/>
     <use xlink:href="#m3ef637695c" x="71.767305" y="186.196364" style="fill: #6e3b87; stroke: #fefefa; stroke-width: 1.5"/>
     <use xlink:href="#m3ef637695c" x="79.115532" y="186.196364" style="fill: #6e3b87; stroke: #fefefa; stroke-width: 1.5"/>
     <use xlink:href="#m3ef637695c" x="86.463759" y="186.196364" style="fill: #6e3b87; stroke: #fefefa; stroke-width: 1.5"/>
     <use xlink:href="#m3ef637695c" x="93.811986" y="186.196364" style="fill: #6e3b87; stroke: #fefefa; stroke-width: 1.5"/>
     <use xlink:href="#m3ef637695c" x="101.160214" y="186.196364" style="fill: #6e3b87; stroke: #fefefa; stroke-width: 1.5"/>
     <use xlink:href="#m3ef637695c" x="108.508441" y="186.196364" style="fill: #6e3b87; stroke: #fefefa; stroke-width: 1.5"/>
     <use xlink:href="#m3ef637695c" x="115.856668" y="186.196364" style="fill: #6e3b87; stroke: #fefefa; stroke-width: 1.5"/>
     <use xlink:href="#m3ef637695c" x="123.204895" y="215.76831" style="fill: #6e3b87; stroke: #fefefa; stroke-width: 1.5"/>
     <use xlink:href="#m3ef637695c" x="130.553122" y="186.196364" style="fill: #6e3b87; stroke: #fefefa; stroke-width: 1.5"/>
     <use xlink:href="#m3ef637695c" x="137.90135" y="186.196364" style="fill: #6e3b87; stroke: #fefefa; stroke-width: 1.5"/>
     <use xlink:href="#m3ef637695c" x="145.249577" y="186.196364" style="fill: #6e3b87; stroke: #fefefa; stroke-width: 1.5"/>
     <use xlink:href="#m3ef637695c" x="152.597804" y="186.196364" style="fill: #6e3b87; stroke: #fefefa; stroke-width: 1.5"/>
     <use xlink:href="#m3ef637695c" x="159.946031" y="186.196364" style="fill: #6e3b87; stroke: #fefefa; stroke-width: 1.5"/>
     <use xlink:href="#m3ef637695c" x="167.294258" y="186.196364" style="fill: #6e3b87; stroke: #fefefa; stroke-width: 1.5"/>
     <use xlink:href="#m3ef637695c" x="174.642486" y="186.196364" style="fill: #6e3b87; stroke: #fefefa; stroke-width: 1.5"/>
     <use xlink:href="#m3ef637695c" x="181.990713" y="156.624418" style="fill: #6e3b87; stroke: #fefefa; stroke-width: 1.5"/>
     <use xlink:href="#m3ef637695c" x="189.33894" y="186.196364" style="fill: #6e3b87; stroke: #fefefa; stroke-width: 1.5"/>
     <use xlink:href="#m3ef637695c" x="196.687167" y="186.196364" style="fill: #6e3b87; stroke: #fefefa; stroke-width: 1.5"/>
     <use xlink:href="#m3ef637695c" x="204.035394" y="186.196364" style="fill: #6e3b87; stroke: #fefefa; stroke-width: 1.5"/>
     <use xlink:href="#m3ef637695c" x="211.383621" y="186.196364" style="fill: #6e3b87; stroke: #fefefa; stroke-width: 1.5"/>
     <use xlink:href="#m3ef637695c" x="218.731849" y="186.196364" style="fill: #6e3b87; stroke: #fefefa; stroke-width: 1.5"/>
     <use xlink:href="#m3ef637695c" x="226.080076" y="186.196364" style="fill: #6e3b87; stroke: #fefefa; stroke-width: 1.5"/>
     <use xlink:href="#m3ef637695c" x="233.428303" y="186.196364" style="fill: #6e3b87; stroke: #fefefa; stroke-width: 1.5"/>
     <use xlink:href="#m3ef637695c" x="240.77653" y="215.76831" style="fill: #6e3b87; stroke: #fefefa; stroke-width: 1.5"/>
     <use xlink:href="#m3ef637695c" x="248.124757" y="186.196364" style="fill: #6e3b87; stroke: #fefefa; stroke-width: 1.5"/>
     <use xlink:href="#m3ef637695c" x="255.472985" y="186.196364" style="fill: #6e3b87; stroke: #fefefa; stroke-width: 1.5"/>
     <use xlink:href="#m3ef637695c" x="262.821212" y="186.196364" style="fill: #6e3b87; stroke: #fefefa; stroke-width: 1.5"/>
     <use xlink:href="#m3ef637695c" x="270.169439" y="186.196364" style="fill: #6e3b87; stroke: #fefefa; stroke-width: 1.5"/>
     <use xlink:href="#m3ef637695c" x="277.517666" y="186.196364" style="fill: #6e3b87; stroke: #fefefa; stroke-width: 1.5"/>
     <use xlink:href="#m3ef637695c" x="284.865893" y="186.196364" style="fill: #6e3b87; stroke: #fefefa; stroke-width: 1.5"/>
     <use xlink:href="#m3ef637695c" x="292.214121" y="186.196364" style="fill: #6e3b87; stroke: #fefefa; stroke-width: 1.5"/>
     <use xlink:href="#m3ef637695c" x="299.562348" y="186.196364" style="fill: #6e3b87; stroke: #fefefa; stroke-width: 1.5"/>
     <use xlink:href="#m3ef637695c" x="306.910575" y="156.624418" style="fill: #6e3b87; stroke: #fefefa; stroke-width: 1.5"/>
     <use xlink:href="#m3ef637695c" x="314.258802" y="186.196364" style="fill: #6e3b87; stroke: #fefefa; stroke-width: 1.5"/>
     <use xlink:href="#m3ef637695c" x="321.607029" y="186.196364" style="fill: #6e3b87; stroke: #fefefa; stroke-width: 1.5"/>
     <use xlink:href="#m3ef637695c" x="328.955256" y="186.196364" style="fill: #6e3b87; stroke: #fefefa; stroke-width: 1.5"/>
     <use xlink:href="#m3ef637695c" x="336.303484" y="186.196364" style="fill: #6e3b87; stroke: #fefefa; stroke-width: 1.5"/>
     <use xlink:href="#m3ef637695c" x="343.651711" y="186.196364" style="fill: #6e3b87; stroke: #fefefa; stroke-width: 1.5"/>
     <use xlink:href="#m3ef637695c" x="350.999938" y="186.196364" style="fill: #6e3b87; stroke: #fefefa; stroke-width: 1.5"/>
     <use xlink:href="#m3ef637695c" x="358.348165" y="186.196364" style="fill: #6e3b87; stroke: #fefefa; stroke-width: 1.5"/>
     <use xlink:href="#m3ef637695c" x="365.696392" y="215.76831" style="fill: #6e3b87; stroke: #fefefa; stroke-width: 1.5"/>
     <use xlink:href="#m3ef637695c" x="373.04462" y="186.196364" style="fill: #6e3b87; stroke: #fefefa; stroke-width: 1.5"/>
     <use xlink:href="#m3ef637695c" x="380.392847" y="186.196364" style="fill: #6e3b87; stroke: #fefefa; stroke-width: 1.5"/>
     <use xlink:href="#m3ef637695c" x="387.741074" y="186.196364" style="fill: #6e3b87; stroke: #fefefa; stroke-width: 1.5"/>
     <use xlink:href="#m3ef637695c" x="395.089301" y="186.196364" style="fill: #6e3b87; stroke: #fefefa; stroke-width: 1.5"/>
     <use xlink:href="#m3ef637695c" x="402.437528" y="186.196364" style="fill: #6e3b87; stroke: #fefefa; stroke-width: 1.5"/>
     <use xlink:href="#m3ef637695c" x="409.785756" y="186.196364" style="fill: #6e3b87; stroke: #fefefa; stroke-width: 1.5"/>
     <use xlink:href="#m3ef637695c" x="417.133983" y="186.196364" style="fill: #6e3b87; stroke: #fefefa; stroke-width: 1.5"/>
    </g>
   </g>
   <g id="legend_2">
    <g id="patch_6">
     <path d="M 66.870851 236.861659 
L 277.781963 236.861659 
Q 280.581963 236.861659 280.581963 234.061659 
L 280.581963 210.872087 
Q 280.581963 208.072087 277.781963 208.072087 
L 66.870851 208.072087 
Q 64.070851 208.072087 64.070851 210.872087 
L 64.070851 234.061659 
Q 64.070851 236.861659 66.870851 236.861659 
z
" style="fill: #ffffff; opacity: 0.95; stroke: #cccccc; stroke-width: 0.5; stroke-linejoin: miter"/>
    </g>
    <g id="line2d_40">
     <path d="M 69.670851 221.480807 
L 76.670851 221.480807 
L 76.670851 221.480807 
L 83.670851 221.480807 
L 83.670851 221.480807 
" style="fill: none; stroke: #6e3b87; stroke-width: 2; stroke-linecap: round"/>
     <g>
      <use xlink:href="#m3ef637695c" x="76.670851" y="221.480807" style="fill: #6e3b87; stroke: #fefefa; stroke-width: 1.5"/>
     </g>
    </g>
    <g id="text_17">
     <!-- $y[n] = +\frac{1}{2}\cdot x[n] - \frac{1}{2}\cdot x[n-1]$ -->
     <g transform="translate(94.870851 226.380807)scale(0.14 -0.14)">
      <defs>
       <path id="URWPalladioL-Ital-79" d="M -45 -1132 
C -51 -1176 -51 -1214 -51 -1245 
C -51 -1517 186 -1741 474 -1741 
C 1152 -1741 1856 -955 2234 216 
L 3136 3014 
L 3066 3072 
C 2880 3001 2733 2963 2592 2950 
L 2368 2111 
C 2291 1812 2067 1348 1856 1036 
C 1632 712 1318 432 1178 432 
C 1101 432 1043 578 1050 737 
L 1056 820 
L 1152 2053 
C 1165 2250 1178 2492 1178 2670 
C 1178 2956 1133 3072 1024 3072 
C 941 3072 851 3027 544 2816 
L 19 2460 
L 90 2346 
L 410 2537 
L 435 2556 
C 499 2594 544 2613 570 2613 
C 659 2613 710 2492 710 2282 
C 710 2276 710 2238 704 2187 
L 595 642 
L 589 388 
C 589 121 704 -64 864 -64 
C 1101 -64 1638 477 2118 1195 
L 1805 108 
C 1478 -1012 1158 -1472 710 -1472 
C 486 -1472 314 -1302 314 -1081 
C 314 -1049 320 -999 326 -942 
L 262 -917 
L -45 -1132 
z
" transform="scale(0.015625)"/>
       <path id="CMR10-3d" d="M 4397 2111 
C 4493 2111 4614 2111 4614 2239 
C 4614 2368 4493 2368 4403 2368 
L 570 2368 
C 480 2368 358 2368 358 2239 
C 358 2111 480 2111 576 2111 
L 4397 2111 
z
M 4403 832 
C 4493 832 4614 832 4614 960 
C 4614 1088 4493 1088 4397 1088 
L 576 1088 
C 480 1088 358 1088 358 960 
C 358 832 480 832 570 832 
L 4403 832 
z
" transform="scale(0.015625)"/>
       <path id="CMR10-2b" d="M 2618 1472 
L 4403 1472 
C 4493 1472 4614 1472 4614 1600 
C 4614 1728 4493 1728 4403 1728 
L 2618 1728 
L 2618 3501 
C 2618 3590 2618 3712 2490 3712 
C 2362 3712 2362 3590 2362 3501 
L 2362 1728 
L 570 1728 
C 480 1728 358 1728 358 1600 
C 358 1472 480 1472 570 1472 
L 2362 1472 
L 2362 -308 
C 2362 -397 2362 -519 2490 -519 
C 2618 -519 2618 -397 2618 -308 
L 2618 1472 
z
" transform="scale(0.015625)"/>
       <path id="CMSY10-1" d="M 1229 1619 
C 1229 1804 1075 1958 890 1958 
C 704 1958 550 1804 550 1619 
C 550 1433 704 1280 890 1280 
C 1075 1280 1229 1433 1229 1619 
z
" transform="scale(0.015625)"/>
      </defs>
      <use xlink:href="#URWPalladioL-Ital-79" transform="scale(0.996264)"/>
      <use xlink:href="#CMR10-5b" transform="translate(52.303815 0)scale(1.038107)"/>
      <use xlink:href="#URWPalladioL-Ital-6e" transform="translate(83.586514 0)scale(0.996264)"/>
      <use xlink:href="#CMR10-5d" transform="translate(141.469474 0)scale(1.038107)"/>
      <use xlink:href="#CMR10-3d" transform="translate(200.426106 0)scale(1.038107)"/>
      <use xlink:href="#CMR10-2b" transform="translate(311.287035 0)scale(1.038107)"/>
      <use xlink:href="#URWPalladioL-Roma-31" transform="translate(394.424245 39.252796)scale(0.757155)"/>
      <use xlink:href="#URWPalladioL-Roma-32" transform="translate(394.424245 -34.371108)scale(0.757155)"/>
      <use xlink:href="#CMSY10-1" transform="translate(454.09457 0)scale(1.038107)"/>
      <use xlink:href="#URWPalladioL-Ital-78" transform="translate(506.442698 0)scale(0.996264)"/>
      <use xlink:href="#CMR10-5b" transform="translate(559.741834 0)scale(1.038107)"/>
      <use xlink:href="#URWPalladioL-Ital-6e" transform="translate(591.024533 0)scale(0.996264)"/>
      <use xlink:href="#CMR10-5d" transform="translate(648.907494 0)scale(1.038107)"/>
      <use xlink:href="#CMSY10-0" transform="translate(699.561945 0)scale(1.038107)"/>
      <use xlink:href="#URWPalladioL-Roma-31" transform="translate(802.070908 39.252796)scale(0.757155)"/>
      <use xlink:href="#URWPalladioL-Roma-32" transform="translate(802.070908 -34.371108)scale(0.757155)"/>
      <use xlink:href="#CMSY10-1" transform="translate(861.741233 0)scale(1.038107)"/>
      <use xlink:href="#URWPalladioL-Ital-78" transform="translate(914.089362 0)scale(0.996264)"/>
      <use xlink:href="#CMR10-5b" transform="translate(967.388498 0)scale(1.038107)"/>
      <use xlink:href="#URWPalladioL-Ital-6e" transform="translate(998.671197 0)scale(0.996264)"/>
      <use xlink:href="#CMSY10-0" transform="translate(1075.92591 0)scale(1.038107)"/>
      <use xlink:href="#URWPalladioL-Roma-31" transform="translate(1177.239359 0)scale(0.996264)"/>
      <use xlink:href="#CMR10-5d" transform="translate(1228.297859 0)scale(1.038107)"/>
      <path d="M 394.424245 22.914087 
L 432.282003 22.914087 
L 432.282003 26.899128 
L 394.424245 26.899128 
L 394.424245 22.914087 
z
"/>
      <path d="M 802.070908 22.914087 
L 839.928667 22.914087 
L 839.928667 26.899128 
L 802.070908 26.899128 
L 802.070908 22.914087 
z
"/>
     </g>
    </g>
   </g>
  </g>
 </g>
 <defs>
  <clipPath id="p33fd2260e3">
   <rect x="57.070851" y="7.2" width="367.411359" height="115.330589"/>
  </clipPath>
  <clipPath id="p0ceeaf899f">
   <rect x="57.070851" y="128.531069" width="367.411359" height="115.330589"/>
  </clipPath>
 </defs>
</svg>