<?xml version="1.0" encoding="utf-8" standalone="no"?>
<!DOCTYPE svg PUBLIC "-//W3C//DTD SVG 1.1//EN"
  "http://www.w3.org/Graphics/SVG/1.1/DTD/svg11.dtd">
<svg xmlns:xlink="http://www.w3.org/1999/xlink" width="440.39952pt" height="296.367838pt" viewBox="0 0 440.39952 296.367838" xmlns="http://www.w3.org/2000/svg" version="1.1">
 <metadata>
  <rdf:RDF xmlns:dc="http://purl.org/dc/elements/1.1/" xmlns:cc="http://creativecommons.org/ns#" xmlns:rdf="http://www.w3.org/1999/02/22-rdf-syntax-ns#">
   <cc:Work>
    <dc:type rdf:resource="http://purl.org/dc/dcmitype/StillImage"/>
    <dc:date>2023-02-15T09:43:07.363564</dc:date>
    <dc:format>image/svg+xml</dc:format>
    <dc:creator>
     <cc:Agent>
      <dc:title>Matplotlib v3.5.2, https://matplotlib.org/</dc:title>
     </cc:Agent>
    </dc:creator>
   </cc:Work>
  </rdf:RDF>
 </metadata>
 <defs>
  <style type="text/css">*{stroke-linejoin: round; stroke-linecap: butt}</style>
 </defs>
 <g id="figure_1">
  <g id="patch_1">
   <path d="M 0 296.367838 
L 440.39952 296.367838 
L 440.39952 0 
L 0 0 
L 0 296.367838 
z
" style="fill: none"/>
  </g>
  <g id="axes_1">
   <g id="patch_2">
    <path d="M 41.145691 58.258455 
L 352.405172 58.258455 
L 352.405172 8.001702 
L 41.145691 8.001702 
L 41.145691 58.258455 
z
" style="fill: none"/>
   </g>
   <g id="matplotlib.axis_1">
    <g id="xtick_1">
     <g id="line2d_1">
      <path d="M 41.145691 58.258455 
L 41.145691 8.001702 
" clip-path="url(#pdf03ae5984)" style="fill: none; stroke: #000000; stroke-opacity: 0.2; stroke-width: 0.5; stroke-linecap: round"/>
     </g>
     <g id="line2d_2">
      <defs>
       <path id="m4b9570dc92" d="M 0 0 
L 0 3.5 
" style="stroke: #000000; stroke-opacity: 0.2; stroke-width: 0.5"/>
      </defs>
      <g>
       <use xlink:href="#m4b9570dc92" x="41.145691" y="58.258455" style="fill-opacity: 0.2; stroke: #000000; stroke-opacity: 0.2; stroke-width: 0.5"/>
      </g>
     </g>
    </g>
    <g id="xtick_2">
     <g id="line2d_3">
      <path d="M 127.010375 58.258455 
L 127.010375 8.001702 
" clip-path="url(#pdf03ae5984)" style="fill: none; stroke: #000000; stroke-opacity: 0.2; stroke-width: 0.5; stroke-linecap: round"/>
     </g>
     <g id="line2d_4">
      <g>
       <use xlink:href="#m4b9570dc92" x="127.010375" y="58.258455" style="fill-opacity: 0.2; stroke: #000000; stroke-opacity: 0.2; stroke-width: 0.5"/>
      </g>
     </g>
    </g>
    <g id="xtick_3">
     <g id="line2d_5">
      <path d="M 212.87506 58.258455 
L 212.87506 8.001702 
" clip-path="url(#pdf03ae5984)" style="fill: none; stroke: #000000; stroke-opacity: 0.2; stroke-width: 0.5; stroke-linecap: round"/>
     </g>
     <g id="line2d_6">
      <g>
       <use xlink:href="#m4b9570dc92" x="212.87506" y="58.258455" style="fill-opacity: 0.2; stroke: #000000; stroke-opacity: 0.2; stroke-width: 0.5"/>
      </g>
     </g>
    </g>
    <g id="xtick_4">
     <g id="line2d_7">
      <path d="M 298.739745 58.258455 
L 298.739745 8.001702 
" clip-path="url(#pdf03ae5984)" style="fill: none; stroke: #000000; stroke-opacity: 0.2; stroke-width: 0.5; stroke-linecap: round"/>
     </g>
     <g id="line2d_8">
      <g>
       <use xlink:href="#m4b9570dc92" x="298.739745" y="58.258455" style="fill-opacity: 0.2; stroke: #000000; stroke-opacity: 0.2; stroke-width: 0.5"/>
      </g>
     </g>
    </g>
   </g>
   <g id="matplotlib.axis_2">
    <g id="ytick_1">
     <g id="line2d_9">
      <path d="M 41.145691 54.070392 
L 352.405172 54.070392 
" clip-path="url(#pdf03ae5984)" style="fill: none; stroke: #000000; stroke-opacity: 0.2; stroke-width: 0.5; stroke-linecap: round"/>
     </g>
     <g id="line2d_10">
      <defs>
       <path id="mfec46168ce" d="M 0 0 
L -3.5 0 
" style="stroke: #000000; stroke-opacity: 0.2; stroke-width: 0.5"/>
      </defs>
      <g>
       <use xlink:href="#mfec46168ce" x="41.145691" y="54.070392" style="fill-opacity: 0.2; stroke: #000000; stroke-opacity: 0.2; stroke-width: 0.5"/>
      </g>
     </g>
     <g id="text_1">
      <!-- $\mathdefault{−1}$ -->
      <g transform="translate(7.2 59.060157)scale(0.14 -0.14)">
       <defs>
        <path id="CMSY10-0" d="M 4218 1472 
C 4326 1472 4442 1472 4442 1600 
C 4442 1728 4326 1728 4218 1728 
L 755 1728 
C 646 1728 531 1728 531 1600 
C 531 1472 646 1472 755 1472 
L 4218 1472 
z
" transform="scale(0.015625)"/>
        <path id="URWPalladioL-Roma-31" d="M 429 3571 
L 493 3571 
L 1318 3942 
C 1325 3949 1331 3949 1338 3949 
C 1376 3949 1389 3891 1389 3737 
L 1389 633 
C 1389 300 1318 230 973 211 
L 614 192 
L 614 0 
C 1600 0 1600 0 1670 0 
C 1754 0 1894 0 2112 -7 
C 2189 6 2413 6 2675 0 
L 2675 192 
L 2342 211 
C 1990 229 1926 299 1926 628 
L 1926 4383 
L 1837 4416 
C 1421 4199 966 4009 384 3807 
L 429 3571 
z
" transform="scale(0.015625)"/>
       </defs>
       <use xlink:href="#CMSY10-0" transform="scale(1.038107)"/>
       <use xlink:href="#URWPalladioL-Roma-31" transform="translate(81.941696 0)scale(0.996264)"/>
      </g>
     </g>
    </g>
    <g id="ytick_2">
     <g id="line2d_11">
      <path d="M 41.145691 33.130078 
L 352.405172 33.130078 
" clip-path="url(#pdf03ae5984)" style="fill: none; stroke: #000000; stroke-opacity: 0.2; stroke-width: 0.5; stroke-linecap: round"/>
     </g>
     <g id="line2d_12">
      <g>
       <use xlink:href="#mfec46168ce" x="41.145691" y="33.130078" style="fill-opacity: 0.2; stroke: #000000; stroke-opacity: 0.2; stroke-width: 0.5"/>
      </g>
     </g>
     <g id="text_2">
      <!-- $\mathdefault{0}$ -->
      <g transform="translate(18.671843 38.119843)scale(0.14 -0.14)">
       <defs>
        <path id="URWPalladioL-Roma-30" d="M 1683 4416 
C 691 4416 186 3628 186 2076 
C 186 1326 320 679 544 365 
C 768 51 1126 -128 1523 -128 
C 2490 -128 2976 704 2976 2345 
C 2976 3749 2560 4416 1683 4416 
z
M 1568 4191 
C 2189 4191 2438 3563 2438 2025 
C 2438 660 2195 96 1606 96 
C 986 96 723 743 723 2307 
C 723 3660 960 4191 1568 4191 
z
" transform="scale(0.015625)"/>
       </defs>
       <use xlink:href="#URWPalladioL-Roma-30" transform="scale(0.996264)"/>
      </g>
     </g>
    </g>
    <g id="ytick_3">
     <g id="line2d_13">
      <path d="M 41.145691 12.189765 
L 352.405172 12.189765 
" clip-path="url(#pdf03ae5984)" style="fill: none; stroke: #000000; stroke-opacity: 0.2; stroke-width: 0.5; stroke-linecap: round"/>
     </g>
     <g id="line2d_14">
      <g>
       <use xlink:href="#mfec46168ce" x="41.145691" y="12.189765" style="fill-opacity: 0.2; stroke: #000000; stroke-opacity: 0.2; stroke-width: 0.5"/>
      </g>
     </g>
     <g id="text_3">
      <!-- $\mathdefault{1}$ -->
      <g transform="translate(18.671843 17.179529)scale(0.14 -0.14)">
       <use xlink:href="#URWPalladioL-Roma-31" transform="scale(0.996264)"/>
      </g>
     </g>
    </g>
   </g>
   <g id="line2d_15">
    <path d="M 41.145691 12.189765 
L 51.878776 12.189765 
L 51.878776 12.189765 
L 62.611862 12.189765 
L 62.611862 12.189765 
L 73.344947 12.189765 
L 73.344947 12.189765 
L 84.078033 12.189765 
L 84.078033 12.189765 
L 94.811119 12.189765 
L 94.811119 12.189765 
L 105.544204 12.189765 
L 105.544204 12.189765 
L 116.27729 12.189765 
L 116.27729 12.189765 
L 127.010375 12.189765 
L 127.010375 12.189765 
L 137.743461 12.189765 
L 137.743461 12.189765 
L 148.476546 12.189765 
L 148.476546 12.189765 
L 159.209632 12.189765 
L 159.209632 12.189765 
L 169.942718 12.189765 
L 169.942718 12.189765 
L 180.675803 12.189765 
L 180.675803 12.189765 
L 191.408889 12.189765 
L 191.408889 12.189765 
L 202.141974 12.189765 
L 202.141974 12.189765 
L 212.87506 12.189765 
L 212.87506 12.189765 
L 223.608145 12.189765 
L 223.608145 12.189765 
L 234.341231 12.189765 
L 234.341231 12.189765 
L 245.074317 12.189765 
L 245.074317 12.189765 
L 255.807402 12.189765 
L 255.807402 12.189765 
L 266.540488 12.189765 
L 266.540488 12.189765 
L 277.273573 12.189765 
L 277.273573 12.189765 
L 288.006659 12.189765 
L 288.006659 12.189765 
L 298.739745 12.189765 
L 298.739745 12.189765 
L 309.47283 12.189765 
L 309.47283 12.189765 
L 320.205916 12.189765 
L 320.205916 12.189765 
L 330.939001 12.189765 
L 330.939001 12.189765 
L 341.672087 12.189765 
L 341.672087 12.189765 
L 352.405172 12.189765 
L 352.405172 12.189765 
" clip-path="url(#pdf03ae5984)" style="fill: none; stroke: #dc2830; stroke-width: 2; stroke-linecap: round"/>
    <defs>
     <path id="m8d4f7400ee" d="M 0 3.5 
C 0.928211 3.5 1.81853 3.131218 2.474874 2.474874 
C 3.131218 1.81853 3.5 0.928211 3.5 0 
C 3.5 -0.928211 3.131218 -1.81853 2.474874 -2.474874 
C 1.81853 -3.131218 0.928211 -3.5 0 -3.5 
C -0.928211 -3.5 -1.81853 -3.131218 -2.474874 -2.474874 
C -3.131218 -1.81853 -3.5 -0.928211 -3.5 0 
C -3.5 0.928211 -3.131218 1.81853 -2.474874 2.474874 
C -1.81853 3.131218 -0.928211 3.5 0 3.5 
z
" style="stroke: #fefefa; stroke-width: 1.5"/>
    </defs>
    <g clip-path="url(#pdf03ae5984)">
     <use xlink:href="#m8d4f7400ee" x="41.145691" y="12.189765" style="fill: #dc2830; stroke: #fefefa; stroke-width: 1.5"/>
     <use xlink:href="#m8d4f7400ee" x="51.878776" y="12.189765" style="fill: #dc2830; stroke: #fefefa; stroke-width: 1.5"/>
     <use xlink:href="#m8d4f7400ee" x="62.611862" y="12.189765" style="fill: #dc2830; stroke: #fefefa; stroke-width: 1.5"/>
     <use xlink:href="#m8d4f7400ee" x="73.344947" y="12.189765" style="fill: #dc2830; stroke: #fefefa; stroke-width: 1.5"/>
     <use xlink:href="#m8d4f7400ee" x="84.078033" y="12.189765" style="fill: #dc2830; stroke: #fefefa; stroke-width: 1.5"/>
     <use xlink:href="#m8d4f7400ee" x="94.811119" y="12.189765" style="fill: #dc2830; stroke: #fefefa; stroke-width: 1.5"/>
     <use xlink:href="#m8d4f7400ee" x="105.544204" y="12.189765" style="fill: #dc2830; stroke: #fefefa; stroke-width: 1.5"/>
     <use xlink:href="#m8d4f7400ee" x="116.27729" y="12.189765" style="fill: #dc2830; stroke: #fefefa; stroke-width: 1.5"/>
     <use xlink:href="#m8d4f7400ee" x="127.010375" y="12.189765" style="fill: #dc2830; stroke: #fefefa; stroke-width: 1.5"/>
     <use xlink:href="#m8d4f7400ee" x="137.743461" y="12.189765" style="fill: #dc2830; stroke: #fefefa; stroke-width: 1.5"/>
     <use xlink:href="#m8d4f7400ee" x="148.476546" y="12.189765" style="fill: #dc2830; stroke: #fefefa; stroke-width: 1.5"/>
     <use xlink:href="#m8d4f7400ee" x="159.209632" y="12.189765" style="fill: #dc2830; stroke: #fefefa; stroke-width: 1.5"/>
     <use xlink:href="#m8d4f7400ee" x="169.942718" y="12.189765" style="fill: #dc2830; stroke: #fefefa; stroke-width: 1.5"/>
     <use xlink:href="#m8d4f7400ee" x="180.675803" y="12.189765" style="fill: #dc2830; stroke: #fefefa; stroke-width: 1.5"/>
     <use xlink:href="#m8d4f7400ee" x="191.408889" y="12.189765" style="fill: #dc2830; stroke: #fefefa; stroke-width: 1.5"/>
     <use xlink:href="#m8d4f7400ee" x="202.141974" y="12.189765" style="fill: #dc2830; stroke: #fefefa; stroke-width: 1.5"/>
     <use xlink:href="#m8d4f7400ee" x="212.87506" y="12.189765" style="fill: #dc2830; stroke: #fefefa; stroke-width: 1.5"/>
     <use xlink:href="#m8d4f7400ee" x="223.608145" y="12.189765" style="fill: #dc2830; stroke: #fefefa; stroke-width: 1.5"/>
     <use xlink:href="#m8d4f7400ee" x="234.341231" y="12.189765" style="fill: #dc2830; stroke: #fefefa; stroke-width: 1.5"/>
     <use xlink:href="#m8d4f7400ee" x="245.074317" y="12.189765" style="fill: #dc2830; stroke: #fefefa; stroke-width: 1.5"/>
     <use xlink:href="#m8d4f7400ee" x="255.807402" y="12.189765" style="fill: #dc2830; stroke: #fefefa; stroke-width: 1.5"/>
     <use xlink:href="#m8d4f7400ee" x="266.540488" y="12.189765" style="fill: #dc2830; stroke: #fefefa; stroke-width: 1.5"/>
     <use xlink:href="#m8d4f7400ee" x="277.273573" y="12.189765" style="fill: #dc2830; stroke: #fefefa; stroke-width: 1.5"/>
     <use xlink:href="#m8d4f7400ee" x="288.006659" y="12.189765" style="fill: #dc2830; stroke: #fefefa; stroke-width: 1.5"/>
     <use xlink:href="#m8d4f7400ee" x="298.739745" y="12.189765" style="fill: #dc2830; stroke: #fefefa; stroke-width: 1.5"/>
     <use xlink:href="#m8d4f7400ee" x="309.47283" y="12.189765" style="fill: #dc2830; stroke: #fefefa; stroke-width: 1.5"/>
     <use xlink:href="#m8d4f7400ee" x="320.205916" y="12.189765" style="fill: #dc2830; stroke: #fefefa; stroke-width: 1.5"/>
     <use xlink:href="#m8d4f7400ee" x="330.939001" y="12.189765" style="fill: #dc2830; stroke: #fefefa; stroke-width: 1.5"/>
     <use xlink:href="#m8d4f7400ee" x="341.672087" y="12.189765" style="fill: #dc2830; stroke: #fefefa; stroke-width: 1.5"/>
     <use xlink:href="#m8d4f7400ee" x="352.405172" y="12.189765" style="fill: #dc2830; stroke: #fefefa; stroke-width: 1.5"/>
    </g>
   </g>
   <g id="legend_1">
    <g id="patch_3">
     <path d="M 362.205172 51.258455 
L 430.39952 51.258455 
Q 433.19952 51.258455 433.19952 48.458455 
L 433.19952 28.945753 
Q 433.19952 26.145753 430.39952 26.145753 
L 362.205172 26.145753 
Q 359.405172 26.145753 359.405172 28.945753 
L 359.405172 48.458455 
Q 359.405172 51.258455 362.205172 51.258455 
z
" style="fill: #ffffff; opacity: 0.95; stroke: #cccccc; stroke-width: 0.5; stroke-linejoin: miter"/>
    </g>
    <g id="line2d_16">
     <path d="M 365.005172 36.825283 
L 372.005172 36.825283 
L 372.005172 36.825283 
L 379.005172 36.825283 
L 379.005172 36.825283 
" style="fill: none; stroke: #dc2830; stroke-width: 2; stroke-linecap: round"/>
     <g>
      <use xlink:href="#m8d4f7400ee" x="372.005172" y="36.825283" style="fill: #dc2830; stroke: #fefefa; stroke-width: 1.5"/>
     </g>
    </g>
    <g id="text_4">
     <!-- $m=0$ -->
     <g transform="translate(390.205172 41.725283)scale(0.14 -0.14)">
      <defs>
       <path id="URWPalladioL-Ital-6d" d="M 4672 651 
L 4506 542 
C 4320 421 4179 351 4115 351 
C 4070 351 4032 408 4032 479 
C 4032 542 4045 600 4077 734 
L 4557 2631 
C 4582 2739 4602 2841 4602 2892 
C 4602 3001 4538 3072 4435 3072 
C 4250 3072 4006 2956 3616 2682 
C 3213 2394 2989 2171 2675 1730 
L 2867 2605 
C 2893 2733 2912 2829 2912 2873 
C 2912 2995 2848 3072 2746 3072 
C 2554 3072 2259 2931 1907 2663 
C 1626 2445 1498 2311 1082 1749 
L 1293 2599 
C 1318 2701 1331 2797 1331 2873 
C 1331 2995 1274 3072 1184 3072 
C 1050 3072 806 2937 333 2599 
L 154 2471 
L 198 2343 
L 403 2477 
C 640 2624 659 2637 704 2637 
C 774 2637 819 2573 819 2477 
C 819 2152 557 919 294 6 
L 314 -64 
L 749 32 
L 890 683 
C 1043 1392 1216 1769 1568 2152 
C 1837 2445 2125 2637 2304 2637 
C 2349 2637 2374 2586 2374 2503 
C 2374 2279 2234 1551 1971 434 
L 1869 6 
L 1901 -64 
L 2342 32 
L 2477 715 
C 2579 1232 2797 1711 3078 2024 
C 3430 2413 3750 2637 3955 2637 
C 4006 2637 4038 2579 4038 2477 
C 4038 2324 4019 2235 3878 1679 
C 3776 1277 3667 894 3603 677 
C 3546 498 3520 332 3520 191 
C 3520 32 3590 -64 3712 -64 
C 3878 -64 4109 70 4736 536 
L 4672 651 
z
" transform="scale(0.015625)"/>
       <path id="CMR10-3d" d="M 4397 2111 
C 4493 2111 4614 2111 4614 2239 
C 4614 2368 4493 2368 4403 2368 
L 570 2368 
C 480 2368 358 2368 358 2239 
C 358 2111 480 2111 576 2111 
L 4397 2111 
z
M 4403 832 
C 4493 832 4614 832 4614 960 
C 4614 1088 4493 1088 4397 1088 
L 576 1088 
C 480 1088 358 1088 358 960 
C 358 832 480 832 570 832 
L 4403 832 
z
" transform="scale(0.015625)"/>
      </defs>
      <use xlink:href="#URWPalladioL-Ital-6d" transform="scale(0.996264)"/>
      <use xlink:href="#CMR10-3d" transform="translate(107.673966 0)scale(1.038107)"/>
      <use xlink:href="#URWPalladioL-Roma-30" transform="translate(217.289595 0)scale(0.996264)"/>
     </g>
    </g>
   </g>
  </g>
  <g id="axes_2">
   <g id="patch_4">
    <path d="M 41.145691 120.115629 
L 352.405172 120.115629 
L 352.405172 69.858876 
L 41.145691 69.858876 
L 41.145691 120.115629 
z
" style="fill: none"/>
   </g>
   <g id="matplotlib.axis_3">
    <g id="xtick_5">
     <g id="line2d_17">
      <path d="M 41.145691 120.115629 
L 41.145691 69.858876 
" clip-path="url(#p169008fad1)" style="fill: none; stroke: #000000; stroke-opacity: 0.2; stroke-width: 0.5; stroke-linecap: round"/>
     </g>
     <g id="line2d_18">
      <g>
       <use xlink:href="#m4b9570dc92" x="41.145691" y="120.115629" style="fill-opacity: 0.2; stroke: #000000; stroke-opacity: 0.2; stroke-width: 0.5"/>
      </g>
     </g>
    </g>
    <g id="xtick_6">
     <g id="line2d_19">
      <path d="M 127.010375 120.115629 
L 127.010375 69.858876 
" clip-path="url(#p169008fad1)" style="fill: none; stroke: #000000; stroke-opacity: 0.2; stroke-width: 0.5; stroke-linecap: round"/>
     </g>
     <g id="line2d_20">
      <g>
       <use xlink:href="#m4b9570dc92" x="127.010375" y="120.115629" style="fill-opacity: 0.2; stroke: #000000; stroke-opacity: 0.2; stroke-width: 0.5"/>
      </g>
     </g>
    </g>
    <g id="xtick_7">
     <g id="line2d_21">
      <path d="M 212.87506 120.115629 
L 212.87506 69.858876 
" clip-path="url(#p169008fad1)" style="fill: none; stroke: #000000; stroke-opacity: 0.2; stroke-width: 0.5; stroke-linecap: round"/>
     </g>
     <g id="line2d_22">
      <g>
       <use xlink:href="#m4b9570dc92" x="212.87506" y="120.115629" style="fill-opacity: 0.2; stroke: #000000; stroke-opacity: 0.2; stroke-width: 0.5"/>
      </g>
     </g>
    </g>
    <g id="xtick_8">
     <g id="line2d_23">
      <path d="M 298.739745 120.115629 
L 298.739745 69.858876 
" clip-path="url(#p169008fad1)" style="fill: none; stroke: #000000; stroke-opacity: 0.2; stroke-width: 0.5; stroke-linecap: round"/>
     </g>
     <g id="line2d_24">
      <g>
       <use xlink:href="#m4b9570dc92" x="298.739745" y="120.115629" style="fill-opacity: 0.2; stroke: #000000; stroke-opacity: 0.2; stroke-width: 0.5"/>
      </g>
     </g>
    </g>
   </g>
   <g id="matplotlib.axis_4">
    <g id="ytick_4">
     <g id="line2d_25">
      <path d="M 41.145691 115.927566 
L 352.405172 115.927566 
" clip-path="url(#p169008fad1)" style="fill: none; stroke: #000000; stroke-opacity: 0.2; stroke-width: 0.5; stroke-linecap: round"/>
     </g>
     <g id="line2d_26">
      <g>
       <use xlink:href="#mfec46168ce" x="41.145691" y="115.927566" style="fill-opacity: 0.2; stroke: #000000; stroke-opacity: 0.2; stroke-width: 0.5"/>
      </g>
     </g>
     <g id="text_5">
      <!-- $\mathdefault{−1}$ -->
      <g transform="translate(7.2 120.917331)scale(0.14 -0.14)">
       <use xlink:href="#CMSY10-0" transform="scale(1.038107)"/>
       <use xlink:href="#URWPalladioL-Roma-31" transform="translate(81.941696 0)scale(0.996264)"/>
      </g>
     </g>
    </g>
    <g id="ytick_5">
     <g id="line2d_27">
      <path d="M 41.145691 94.987252 
L 352.405172 94.987252 
" clip-path="url(#p169008fad1)" style="fill: none; stroke: #000000; stroke-opacity: 0.2; stroke-width: 0.5; stroke-linecap: round"/>
     </g>
     <g id="line2d_28">
      <g>
       <use xlink:href="#mfec46168ce" x="41.145691" y="94.987252" style="fill-opacity: 0.2; stroke: #000000; stroke-opacity: 0.2; stroke-width: 0.5"/>
      </g>
     </g>
     <g id="text_6">
      <!-- $\mathdefault{0}$ -->
      <g transform="translate(18.671843 99.977017)scale(0.14 -0.14)">
       <use xlink:href="#URWPalladioL-Roma-30" transform="scale(0.996264)"/>
      </g>
     </g>
    </g>
    <g id="ytick_6">
     <g id="line2d_29">
      <path d="M 41.145691 74.046938 
L 352.405172 74.046938 
" clip-path="url(#p169008fad1)" style="fill: none; stroke: #000000; stroke-opacity: 0.2; stroke-width: 0.5; stroke-linecap: round"/>
     </g>
     <g id="line2d_30">
      <g>
       <use xlink:href="#mfec46168ce" x="41.145691" y="74.046938" style="fill-opacity: 0.2; stroke: #000000; stroke-opacity: 0.2; stroke-width: 0.5"/>
      </g>
     </g>
     <g id="text_7">
      <!-- $\mathdefault{1}$ -->
      <g transform="translate(18.671843 79.036703)scale(0.14 -0.14)">
       <use xlink:href="#URWPalladioL-Roma-31" transform="scale(0.996264)"/>
      </g>
     </g>
    </g>
   </g>
   <g id="line2d_31">
    <path d="M 41.145691 74.046938 
L 51.878776 74.046938 
L 51.878776 74.504535 
L 62.611862 74.504535 
L 62.611862 75.857324 
L 73.344947 75.857324 
L 73.344947 78.046182 
L 84.078033 78.046182 
L 84.078033 80.975447 
L 94.811119 80.975447 
L 94.811119 84.517095 
L 105.544204 84.517095 
L 105.544204 88.516339 
L 116.27729 88.516339 
L 116.27729 92.798393 
L 127.010375 92.798393 
L 127.010375 97.176111 
L 137.743461 97.176111 
L 137.743461 101.458165 
L 148.476546 101.458165 
L 148.476546 105.457409 
L 159.209632 105.457409 
L 159.209632 108.999057 
L 169.942718 108.999057 
L 169.942718 111.928322 
L 180.675803 111.928322 
L 180.675803 114.117181 
L 191.408889 114.117181 
L 191.408889 115.46997 
L 202.141974 115.46997 
L 202.141974 115.927566 
L 212.87506 115.927566 
L 212.87506 115.46997 
L 223.608145 115.46997 
L 223.608145 114.117181 
L 234.341231 114.117181 
L 234.341231 111.928322 
L 245.074317 111.928322 
L 245.074317 108.999057 
L 255.807402 108.999057 
L 255.807402 105.457409 
L 266.540488 105.457409 
L 266.540488 101.458165 
L 277.273573 101.458165 
L 277.273573 97.176111 
L 288.006659 97.176111 
L 288.006659 92.798393 
L 298.739745 92.798393 
L 298.739745 88.516339 
L 309.47283 88.516339 
L 309.47283 84.517095 
L 320.205916 84.517095 
L 320.205916 80.975447 
L 330.939001 80.975447 
L 330.939001 78.046182 
L 341.672087 78.046182 
L 341.672087 75.857324 
L 352.405172 75.857324 
L 352.405172 74.504535 
" clip-path="url(#p169008fad1)" style="fill: none; stroke: #dc2830; stroke-width: 2; stroke-linecap: round"/>
    <g clip-path="url(#p169008fad1)">
     <use xlink:href="#m8d4f7400ee" x="41.145691" y="74.046938" style="fill: #dc2830; stroke: #fefefa; stroke-width: 1.5"/>
     <use xlink:href="#m8d4f7400ee" x="51.878776" y="74.504535" style="fill: #dc2830; stroke: #fefefa; stroke-width: 1.5"/>
     <use xlink:href="#m8d4f7400ee" x="62.611862" y="75.857324" style="fill: #dc2830; stroke: #fefefa; stroke-width: 1.5"/>
     <use xlink:href="#m8d4f7400ee" x="73.344947" y="78.046182" style="fill: #dc2830; stroke: #fefefa; stroke-width: 1.5"/>
     <use xlink:href="#m8d4f7400ee" x="84.078033" y="80.975447" style="fill: #dc2830; stroke: #fefefa; stroke-width: 1.5"/>
     <use xlink:href="#m8d4f7400ee" x="94.811119" y="84.517095" style="fill: #dc2830; stroke: #fefefa; stroke-width: 1.5"/>
     <use xlink:href="#m8d4f7400ee" x="105.544204" y="88.516339" style="fill: #dc2830; stroke: #fefefa; stroke-width: 1.5"/>
     <use xlink:href="#m8d4f7400ee" x="116.27729" y="92.798393" style="fill: #dc2830; stroke: #fefefa; stroke-width: 1.5"/>
     <use xlink:href="#m8d4f7400ee" x="127.010375" y="97.176111" style="fill: #dc2830; stroke: #fefefa; stroke-width: 1.5"/>
     <use xlink:href="#m8d4f7400ee" x="137.743461" y="101.458165" style="fill: #dc2830; stroke: #fefefa; stroke-width: 1.5"/>
     <use xlink:href="#m8d4f7400ee" x="148.476546" y="105.457409" style="fill: #dc2830; stroke: #fefefa; stroke-width: 1.5"/>
     <use xlink:href="#m8d4f7400ee" x="159.209632" y="108.999057" style="fill: #dc2830; stroke: #fefefa; stroke-width: 1.5"/>
     <use xlink:href="#m8d4f7400ee" x="169.942718" y="111.928322" style="fill: #dc2830; stroke: #fefefa; stroke-width: 1.5"/>
     <use xlink:href="#m8d4f7400ee" x="180.675803" y="114.117181" style="fill: #dc2830; stroke: #fefefa; stroke-width: 1.5"/>
     <use xlink:href="#m8d4f7400ee" x="191.408889" y="115.46997" style="fill: #dc2830; stroke: #fefefa; stroke-width: 1.5"/>
     <use xlink:href="#m8d4f7400ee" x="202.141974" y="115.927566" style="fill: #dc2830; stroke: #fefefa; stroke-width: 1.5"/>
     <use xlink:href="#m8d4f7400ee" x="212.87506" y="115.46997" style="fill: #dc2830; stroke: #fefefa; stroke-width: 1.5"/>
     <use xlink:href="#m8d4f7400ee" x="223.608145" y="114.117181" style="fill: #dc2830; stroke: #fefefa; stroke-width: 1.5"/>
     <use xlink:href="#m8d4f7400ee" x="234.341231" y="111.928322" style="fill: #dc2830; stroke: #fefefa; stroke-width: 1.5"/>
     <use xlink:href="#m8d4f7400ee" x="245.074317" y="108.999057" style="fill: #dc2830; stroke: #fefefa; stroke-width: 1.5"/>
     <use xlink:href="#m8d4f7400ee" x="255.807402" y="105.457409" style="fill: #dc2830; stroke: #fefefa; stroke-width: 1.5"/>
     <use xlink:href="#m8d4f7400ee" x="266.540488" y="101.458165" style="fill: #dc2830; stroke: #fefefa; stroke-width: 1.5"/>
     <use xlink:href="#m8d4f7400ee" x="277.273573" y="97.176111" style="fill: #dc2830; stroke: #fefefa; stroke-width: 1.5"/>
     <use xlink:href="#m8d4f7400ee" x="288.006659" y="92.798393" style="fill: #dc2830; stroke: #fefefa; stroke-width: 1.5"/>
     <use xlink:href="#m8d4f7400ee" x="298.739745" y="88.516339" style="fill: #dc2830; stroke: #fefefa; stroke-width: 1.5"/>
     <use xlink:href="#m8d4f7400ee" x="309.47283" y="84.517095" style="fill: #dc2830; stroke: #fefefa; stroke-width: 1.5"/>
     <use xlink:href="#m8d4f7400ee" x="320.205916" y="80.975447" style="fill: #dc2830; stroke: #fefefa; stroke-width: 1.5"/>
     <use xlink:href="#m8d4f7400ee" x="330.939001" y="78.046182" style="fill: #dc2830; stroke: #fefefa; stroke-width: 1.5"/>
     <use xlink:href="#m8d4f7400ee" x="341.672087" y="75.857324" style="fill: #dc2830; stroke: #fefefa; stroke-width: 1.5"/>
     <use xlink:href="#m8d4f7400ee" x="352.405172" y="74.504535" style="fill: #dc2830; stroke: #fefefa; stroke-width: 1.5"/>
    </g>
   </g>
   <g id="legend_2">
    <g id="patch_5">
     <path d="M 362.205172 113.115629 
L 430.39952 113.115629 
Q 433.19952 113.115629 433.19952 110.315629 
L 433.19952 90.802927 
Q 433.19952 88.002927 430.39952 88.002927 
L 362.205172 88.002927 
Q 359.405172 88.002927 359.405172 90.802927 
L 359.405172 110.315629 
Q 359.405172 113.115629 362.205172 113.115629 
z
" style="fill: #ffffff; opacity: 0.95; stroke: #cccccc; stroke-width: 0.5; stroke-linejoin: miter"/>
    </g>
    <g id="line2d_32">
     <path d="M 365.005172 98.682456 
L 372.005172 98.682456 
L 372.005172 98.682456 
L 379.005172 98.682456 
L 379.005172 98.682456 
" style="fill: none; stroke: #dc2830; stroke-width: 2; stroke-linecap: round"/>
     <g>
      <use xlink:href="#m8d4f7400ee" x="372.005172" y="98.682456" style="fill: #dc2830; stroke: #fefefa; stroke-width: 1.5"/>
     </g>
    </g>
    <g id="text_8">
     <!-- $m=1$ -->
     <g transform="translate(390.205172 103.582456)scale(0.14 -0.14)">
      <use xlink:href="#URWPalladioL-Ital-6d" transform="scale(0.996264)"/>
      <use xlink:href="#CMR10-3d" transform="translate(107.673966 0)scale(1.038107)"/>
      <use xlink:href="#URWPalladioL-Roma-31" transform="translate(217.289595 0)scale(0.996264)"/>
     </g>
    </g>
   </g>
  </g>
  <g id="axes_3">
   <g id="patch_6">
    <path d="M 41.145691 181.972802 
L 352.405172 181.972802 
L 352.405172 131.716049 
L 41.145691 131.716049 
L 41.145691 181.972802 
z
" style="fill: none"/>
   </g>
   <g id="matplotlib.axis_5">
    <g id="xtick_9">
     <g id="line2d_33">
      <path d="M 41.145691 181.972802 
L 41.145691 131.716049 
" clip-path="url(#pd6a74d554d)" style="fill: none; stroke: #000000; stroke-opacity: 0.2; stroke-width: 0.5; stroke-linecap: round"/>
     </g>
     <g id="line2d_34">
      <g>
       <use xlink:href="#m4b9570dc92" x="41.145691" y="181.972802" style="fill-opacity: 0.2; stroke: #000000; stroke-opacity: 0.2; stroke-width: 0.5"/>
      </g>
     </g>
    </g>
    <g id="xtick_10">
     <g id="line2d_35">
      <path d="M 127.010375 181.972802 
L 127.010375 131.716049 
" clip-path="url(#pd6a74d554d)" style="fill: none; stroke: #000000; stroke-opacity: 0.2; stroke-width: 0.5; stroke-linecap: round"/>
     </g>
     <g id="line2d_36">
      <g>
       <use xlink:href="#m4b9570dc92" x="127.010375" y="181.972802" style="fill-opacity: 0.2; stroke: #000000; stroke-opacity: 0.2; stroke-width: 0.5"/>
      </g>
     </g>
    </g>
    <g id="xtick_11">
     <g id="line2d_37">
      <path d="M 212.87506 181.972802 
L 212.87506 131.716049 
" clip-path="url(#pd6a74d554d)" style="fill: none; stroke: #000000; stroke-opacity: 0.2; stroke-width: 0.5; stroke-linecap: round"/>
     </g>
     <g id="line2d_38">
      <g>
       <use xlink:href="#m4b9570dc92" x="212.87506" y="181.972802" style="fill-opacity: 0.2; stroke: #000000; stroke-opacity: 0.2; stroke-width: 0.5"/>
      </g>
     </g>
    </g>
    <g id="xtick_12">
     <g id="line2d_39">
      <path d="M 298.739745 181.972802 
L 298.739745 131.716049 
" clip-path="url(#pd6a74d554d)" style="fill: none; stroke: #000000; stroke-opacity: 0.2; stroke-width: 0.5; stroke-linecap: round"/>
     </g>
     <g id="line2d_40">
      <g>
       <use xlink:href="#m4b9570dc92" x="298.739745" y="181.972802" style="fill-opacity: 0.2; stroke: #000000; stroke-opacity: 0.2; stroke-width: 0.5"/>
      </g>
     </g>
    </g>
   </g>
   <g id="matplotlib.axis_6">
    <g id="ytick_7">
     <g id="line2d_41">
      <path d="M 41.145691 177.78474 
L 352.405172 177.78474 
" clip-path="url(#pd6a74d554d)" style="fill: none; stroke: #000000; stroke-opacity: 0.2; stroke-width: 0.5; stroke-linecap: round"/>
     </g>
     <g id="line2d_42">
      <g>
       <use xlink:href="#mfec46168ce" x="41.145691" y="177.78474" style="fill-opacity: 0.2; stroke: #000000; stroke-opacity: 0.2; stroke-width: 0.5"/>
      </g>
     </g>
     <g id="text_9">
      <!-- $\mathdefault{−1}$ -->
      <g transform="translate(7.2 182.774504)scale(0.14 -0.14)">
       <use xlink:href="#CMSY10-0" transform="scale(1.038107)"/>
       <use xlink:href="#URWPalladioL-Roma-31" transform="translate(81.941696 0)scale(0.996264)"/>
      </g>
     </g>
    </g>
    <g id="ytick_8">
     <g id="line2d_43">
      <path d="M 41.145691 156.844426 
L 352.405172 156.844426 
" clip-path="url(#pd6a74d554d)" style="fill: none; stroke: #000000; stroke-opacity: 0.2; stroke-width: 0.5; stroke-linecap: round"/>
     </g>
     <g id="line2d_44">
      <g>
       <use xlink:href="#mfec46168ce" x="41.145691" y="156.844426" style="fill-opacity: 0.2; stroke: #000000; stroke-opacity: 0.2; stroke-width: 0.5"/>
      </g>
     </g>
     <g id="text_10">
      <!-- $\mathdefault{0}$ -->
      <g transform="translate(18.671843 161.834191)scale(0.14 -0.14)">
       <use xlink:href="#URWPalladioL-Roma-30" transform="scale(0.996264)"/>
      </g>
     </g>
    </g>
    <g id="ytick_9">
     <g id="line2d_45">
      <path d="M 41.145691 135.904112 
L 352.405172 135.904112 
" clip-path="url(#pd6a74d554d)" style="fill: none; stroke: #000000; stroke-opacity: 0.2; stroke-width: 0.5; stroke-linecap: round"/>
     </g>
     <g id="line2d_46">
      <g>
       <use xlink:href="#mfec46168ce" x="41.145691" y="135.904112" style="fill-opacity: 0.2; stroke: #000000; stroke-opacity: 0.2; stroke-width: 0.5"/>
      </g>
     </g>
     <g id="text_11">
      <!-- $\mathdefault{1}$ -->
      <g transform="translate(18.671843 140.893877)scale(0.14 -0.14)">
       <use xlink:href="#URWPalladioL-Roma-31" transform="scale(0.996264)"/>
      </g>
     </g>
    </g>
   </g>
   <g id="line2d_47">
    <path d="M 41.145691 135.904112 
L 51.878776 135.904112 
L 51.878776 137.714497 
L 62.611862 137.714497 
L 62.611862 142.832621 
L 73.344947 142.832621 
L 73.344947 150.373513 
L 84.078033 150.373513 
L 84.078033 159.033285 
L 94.811119 159.033285 
L 94.811119 167.314583 
L 105.544204 167.314583 
L 105.544204 173.785496 
L 116.27729 173.785496 
L 116.27729 177.327144 
L 127.010375 177.327144 
L 127.010375 177.327144 
L 137.743461 177.327144 
L 137.743461 173.785496 
L 148.476546 173.785496 
L 148.476546 167.314583 
L 159.209632 167.314583 
L 159.209632 159.033285 
L 169.942718 159.033285 
L 169.942718 150.373513 
L 180.675803 150.373513 
L 180.675803 142.832621 
L 191.408889 142.832621 
L 191.408889 137.714497 
L 202.141974 137.714497 
L 202.141974 135.904112 
L 212.87506 135.904112 
L 212.87506 137.714497 
L 223.608145 137.714497 
L 223.608145 142.832621 
L 234.341231 142.832621 
L 234.341231 150.373513 
L 245.074317 150.373513 
L 245.074317 159.033285 
L 255.807402 159.033285 
L 255.807402 167.314583 
L 266.540488 167.314583 
L 266.540488 173.785496 
L 277.273573 173.785496 
L 277.273573 177.327144 
L 288.006659 177.327144 
L 288.006659 177.327144 
L 298.739745 177.327144 
L 298.739745 173.785496 
L 309.47283 173.785496 
L 309.47283 167.314583 
L 320.205916 167.314583 
L 320.205916 159.033285 
L 330.939001 159.033285 
L 330.939001 150.373513 
L 341.672087 150.373513 
L 341.672087 142.832621 
L 352.405172 142.832621 
L 352.405172 137.714497 
" clip-path="url(#pd6a74d554d)" style="fill: none; stroke: #dc2830; stroke-width: 2; stroke-linecap: round"/>
    <g clip-path="url(#pd6a74d554d)">
     <use xlink:href="#m8d4f7400ee" x="41.145691" y="135.904112" style="fill: #dc2830; stroke: #fefefa; stroke-width: 1.5"/>
     <use xlink:href="#m8d4f7400ee" x="51.878776" y="137.714497" style="fill: #dc2830; stroke: #fefefa; stroke-width: 1.5"/>
     <use xlink:href="#m8d4f7400ee" x="62.611862" y="142.832621" style="fill: #dc2830; stroke: #fefefa; stroke-width: 1.5"/>
     <use xlink:href="#m8d4f7400ee" x="73.344947" y="150.373513" style="fill: #dc2830; stroke: #fefefa; stroke-width: 1.5"/>
     <use xlink:href="#m8d4f7400ee" x="84.078033" y="159.033285" style="fill: #dc2830; stroke: #fefefa; stroke-width: 1.5"/>
     <use xlink:href="#m8d4f7400ee" x="94.811119" y="167.314583" style="fill: #dc2830; stroke: #fefefa; stroke-width: 1.5"/>
     <use xlink:href="#m8d4f7400ee" x="105.544204" y="173.785496" style="fill: #dc2830; stroke: #fefefa; stroke-width: 1.5"/>
     <use xlink:href="#m8d4f7400ee" x="116.27729" y="177.327144" style="fill: #dc2830; stroke: #fefefa; stroke-width: 1.5"/>
     <use xlink:href="#m8d4f7400ee" x="127.010375" y="177.327144" style="fill: #dc2830; stroke: #fefefa; stroke-width: 1.5"/>
     <use xlink:href="#m8d4f7400ee" x="137.743461" y="173.785496" style="fill: #dc2830; stroke: #fefefa; stroke-width: 1.5"/>
     <use xlink:href="#m8d4f7400ee" x="148.476546" y="167.314583" style="fill: #dc2830; stroke: #fefefa; stroke-width: 1.5"/>
     <use xlink:href="#m8d4f7400ee" x="159.209632" y="159.033285" style="fill: #dc2830; stroke: #fefefa; stroke-width: 1.5"/>
     <use xlink:href="#m8d4f7400ee" x="169.942718" y="150.373513" style="fill: #dc2830; stroke: #fefefa; stroke-width: 1.5"/>
     <use xlink:href="#m8d4f7400ee" x="180.675803" y="142.832621" style="fill: #dc2830; stroke: #fefefa; stroke-width: 1.5"/>
     <use xlink:href="#m8d4f7400ee" x="191.408889" y="137.714497" style="fill: #dc2830; stroke: #fefefa; stroke-width: 1.5"/>
     <use xlink:href="#m8d4f7400ee" x="202.141974" y="135.904112" style="fill: #dc2830; stroke: #fefefa; stroke-width: 1.5"/>
     <use xlink:href="#m8d4f7400ee" x="212.87506" y="137.714497" style="fill: #dc2830; stroke: #fefefa; stroke-width: 1.5"/>
     <use xlink:href="#m8d4f7400ee" x="223.608145" y="142.832621" style="fill: #dc2830; stroke: #fefefa; stroke-width: 1.5"/>
     <use xlink:href="#m8d4f7400ee" x="234.341231" y="150.373513" style="fill: #dc2830; stroke: #fefefa; stroke-width: 1.5"/>
     <use xlink:href="#m8d4f7400ee" x="245.074317" y="159.033285" style="fill: #dc2830; stroke: #fefefa; stroke-width: 1.5"/>
     <use xlink:href="#m8d4f7400ee" x="255.807402" y="167.314583" style="fill: #dc2830; stroke: #fefefa; stroke-width: 1.5"/>
     <use xlink:href="#m8d4f7400ee" x="266.540488" y="173.785496" style="fill: #dc2830; stroke: #fefefa; stroke-width: 1.5"/>
     <use xlink:href="#m8d4f7400ee" x="277.273573" y="177.327144" style="fill: #dc2830; stroke: #fefefa; stroke-width: 1.5"/>
     <use xlink:href="#m8d4f7400ee" x="288.006659" y="177.327144" style="fill: #dc2830; stroke: #fefefa; stroke-width: 1.5"/>
     <use xlink:href="#m8d4f7400ee" x="298.739745" y="173.785496" style="fill: #dc2830; stroke: #fefefa; stroke-width: 1.5"/>
     <use xlink:href="#m8d4f7400ee" x="309.47283" y="167.314583" style="fill: #dc2830; stroke: #fefefa; stroke-width: 1.5"/>
     <use xlink:href="#m8d4f7400ee" x="320.205916" y="159.033285" style="fill: #dc2830; stroke: #fefefa; stroke-width: 1.5"/>
     <use xlink:href="#m8d4f7400ee" x="330.939001" y="150.373513" style="fill: #dc2830; stroke: #fefefa; stroke-width: 1.5"/>
     <use xlink:href="#m8d4f7400ee" x="341.672087" y="142.832621" style="fill: #dc2830; stroke: #fefefa; stroke-width: 1.5"/>
     <use xlink:href="#m8d4f7400ee" x="352.405172" y="137.714497" style="fill: #dc2830; stroke: #fefefa; stroke-width: 1.5"/>
    </g>
   </g>
   <g id="legend_3">
    <g id="patch_7">
     <path d="M 362.205172 174.972802 
L 430.39952 174.972802 
Q 433.19952 174.972802 433.19952 172.172802 
L 433.19952 152.660101 
Q 433.19952 149.860101 430.39952 149.860101 
L 362.205172 149.860101 
Q 359.405172 149.860101 359.405172 152.660101 
L 359.405172 172.172802 
Q 359.405172 174.972802 362.205172 174.972802 
z
" style="fill: #ffffff; opacity: 0.95; stroke: #cccccc; stroke-width: 0.5; stroke-linejoin: miter"/>
    </g>
    <g id="line2d_48">
     <path d="M 365.005172 160.53963 
L 372.005172 160.53963 
L 372.005172 160.53963 
L 379.005172 160.53963 
L 379.005172 160.53963 
" style="fill: none; stroke: #dc2830; stroke-width: 2; stroke-linecap: round"/>
     <g>
      <use xlink:href="#m8d4f7400ee" x="372.005172" y="160.53963" style="fill: #dc2830; stroke: #fefefa; stroke-width: 1.5"/>
     </g>
    </g>
    <g id="text_12">
     <!-- $m=2$ -->
     <g transform="translate(390.205172 165.43963)scale(0.14 -0.14)">
      <defs>
       <path id="URWPalladioL-Roma-32" d="M 102 166 
L 102 0 
C 1299 0 1299 0 1530 0 
C 1760 19 1760 19 2995 0 
C 2982 134 2982 198 2982 287 
C 2982 370 2982 434 2995 574 
C 2259 542 1965 536 781 510 
L 1946 1741 
C 2566 2398 2758 2749 2758 3228 
C 2758 3961 2259 4416 1446 4416 
C 986 4416 672 4287 358 3967 
L 250 3100 
L 435 3100 
L 518 3394 
C 621 3763 851 3923 1280 3923 
C 1830 3923 2182 3578 2182 3036 
C 2182 2558 1914 2086 1190 1320 
L 102 166 
z
" transform="scale(0.015625)"/>
      </defs>
      <use xlink:href="#URWPalladioL-Ital-6d" transform="scale(0.996264)"/>
      <use xlink:href="#CMR10-3d" transform="translate(107.673966 0)scale(1.038107)"/>
      <use xlink:href="#URWPalladioL-Roma-32" transform="translate(217.289595 0)scale(0.996264)"/>
     </g>
    </g>
   </g>
  </g>
  <g id="axes_4">
   <g id="patch_8">
    <path d="M 41.145691 243.829976 
L 352.405172 243.829976 
L 352.405172 193.573223 
L 41.145691 193.573223 
L 41.145691 243.829976 
z
" style="fill: none"/>
   </g>
   <g id="matplotlib.axis_7">
    <g id="xtick_13">
     <g id="line2d_49">
      <path d="M 41.145691 243.829976 
L 41.145691 193.573223 
" clip-path="url(#p3df09a4627)" style="fill: none; stroke: #000000; stroke-opacity: 0.2; stroke-width: 0.5; stroke-linecap: round"/>
     </g>
     <g id="line2d_50">
      <g>
       <use xlink:href="#m4b9570dc92" x="41.145691" y="243.829976" style="fill-opacity: 0.2; stroke: #000000; stroke-opacity: 0.2; stroke-width: 0.5"/>
      </g>
     </g>
     <g id="text_13">
      <!-- $\mathdefault{0.0}$ -->
      <g transform="translate(32.428381 269.309506)scale(0.14 -0.14)">
       <defs>
        <path id="URWPalladioL-Roma-2e" d="M 794 678 
C 602 678 429 499 429 307 
C 429 115 602 -64 787 -64 
C 992 -64 1171 108 1171 307 
C 1171 499 992 678 794 678 
z
" transform="scale(0.015625)"/>
       </defs>
       <use xlink:href="#URWPalladioL-Roma-30" transform="scale(0.996264)"/>
       <use xlink:href="#URWPalladioL-Roma-2e" transform="translate(49.8132 0)scale(0.996264)"/>
       <use xlink:href="#URWPalladioL-Roma-30" transform="translate(74.719801 0)scale(0.996264)"/>
      </g>
     </g>
    </g>
    <g id="xtick_14">
     <g id="line2d_51">
      <path d="M 127.010375 243.829976 
L 127.010375 193.573223 
" clip-path="url(#p3df09a4627)" style="fill: none; stroke: #000000; stroke-opacity: 0.2; stroke-width: 0.5; stroke-linecap: round"/>
     </g>
     <g id="line2d_52">
      <g>
       <use xlink:href="#m4b9570dc92" x="127.010375" y="243.829976" style="fill-opacity: 0.2; stroke: #000000; stroke-opacity: 0.2; stroke-width: 0.5"/>
      </g>
     </g>
     <g id="text_14">
      <!-- $\mathdefault{0.5}$ -->
      <g transform="translate(118.293065 269.309506)scale(0.14 -0.14)">
       <defs>
        <path id="URWPalladioL-Roma-35" d="M 813 3891 
C 1638 3865 1997 3859 2765 3859 
L 2797 3891 
C 2784 4006 2784 4057 2784 4140 
C 2784 4230 2784 4281 2797 4396 
L 2765 4428 
C 2285 4403 1997 4396 1651 4396 
C 1299 4396 1018 4403 538 4428 
L 506 4396 
C 512 4006 518 3724 518 3520 
C 518 2976 499 2360 480 2076 
L 608 2038 
C 909 2341 1082 2432 1395 2432 
C 2010 2432 2394 1992 2394 1295 
C 2394 579 1984 160 1286 160 
C 941 160 621 276 531 443 
L 237 973 
L 83 882 
C 230 514 307 308 397 25 
C 576 -71 832 -128 1107 -128 
C 1536 -128 1990 57 2342 366 
C 2733 715 2938 1153 2938 1631 
C 2938 2360 2419 2873 1690 2873 
C 1382 2873 1152 2790 755 2553 
L 813 3891 
z
" transform="scale(0.015625)"/>
       </defs>
       <use xlink:href="#URWPalladioL-Roma-30" transform="scale(0.996264)"/>
       <use xlink:href="#URWPalladioL-Roma-2e" transform="translate(49.8132 0)scale(0.996264)"/>
       <use xlink:href="#URWPalladioL-Roma-35" transform="translate(74.719801 0)scale(0.996264)"/>
      </g>
     </g>
    </g>
    <g id="xtick_15">
     <g id="line2d_53">
      <path d="M 212.87506 243.829976 
L 212.87506 193.573223 
" clip-path="url(#p3df09a4627)" style="fill: none; stroke: #000000; stroke-opacity: 0.2; stroke-width: 0.5; stroke-linecap: round"/>
     </g>
     <g id="line2d_54">
      <g>
       <use xlink:href="#m4b9570dc92" x="212.87506" y="243.829976" style="fill-opacity: 0.2; stroke: #000000; stroke-opacity: 0.2; stroke-width: 0.5"/>
      </g>
     </g>
     <g id="text_15">
      <!-- $\mathdefault{1.0}$ -->
      <g transform="translate(204.15775 269.309506)scale(0.14 -0.14)">
       <use xlink:href="#URWPalladioL-Roma-31" transform="scale(0.996264)"/>
       <use xlink:href="#URWPalladioL-Roma-2e" transform="translate(49.8132 0)scale(0.996264)"/>
       <use xlink:href="#URWPalladioL-Roma-30" transform="translate(74.719801 0)scale(0.996264)"/>
      </g>
     </g>
    </g>
    <g id="xtick_16">
     <g id="line2d_55">
      <path d="M 298.739745 243.829976 
L 298.739745 193.573223 
" clip-path="url(#p3df09a4627)" style="fill: none; stroke: #000000; stroke-opacity: 0.2; stroke-width: 0.5; stroke-linecap: round"/>
     </g>
     <g id="line2d_56">
      <g>
       <use xlink:href="#m4b9570dc92" x="298.739745" y="243.829976" style="fill-opacity: 0.2; stroke: #000000; stroke-opacity: 0.2; stroke-width: 0.5"/>
      </g>
     </g>
     <g id="text_16">
      <!-- $\mathdefault{1.5}$ -->
      <g transform="translate(290.022434 269.309506)scale(0.14 -0.14)">
       <use xlink:href="#URWPalladioL-Roma-31" transform="scale(0.996264)"/>
       <use xlink:href="#URWPalladioL-Roma-2e" transform="translate(49.8132 0)scale(0.996264)"/>
       <use xlink:href="#URWPalladioL-Roma-35" transform="translate(74.719801 0)scale(0.996264)"/>
      </g>
     </g>
    </g>
    <g id="text_17">
     <!-- Time [seconds] -->
     <g transform="translate(157.10258 285.796554)scale(0.12 -0.12)">
      <defs>
       <path id="URWPalladioL-Roma-54" d="M 1632 4096 
C 1651 3880 1658 3734 1658 3462 
L 1658 781 
C 1658 280 1626 230 1331 211 
L 1024 192 
L 1024 0 
C 1402 -7 1626 0 1958 0 
C 2291 19 2522 12 2899 0 
L 2899 192 
L 2592 211 
C 2298 230 2266 280 2266 781 
L 2266 3462 
C 2266 3747 2272 3887 2291 4096 
L 3283 4096 
C 3462 4096 3533 4039 3539 3887 
L 3565 3386 
L 3763 3386 
C 3763 3801 3776 4051 3808 4416 
C 3347 4409 3136 4409 2957 4403 
C 2707 4390 2522 4390 2426 4390 
L 1414 4390 
C 1350 4390 1005 4396 550 4403 
L 115 4416 
C 147 4051 160 3801 160 3385 
L 358 3385 
L 384 3891 
C 390 4038 461 4096 640 4096 
L 1632 4096 
z
" transform="scale(0.015625)"/>
       <path id="URWPalladioL-Roma-69" d="M 1203 2982 
L 1146 3008 
C 819 2873 486 2784 147 2746 
L 147 2568 
L 384 2568 
C 640 2568 666 2523 666 2103 
L 666 669 
C 666 268 646 223 429 211 
L 134 192 
L 134 0 
C 774 0 774 0 934 0 
C 1094 19 1094 19 1734 0 
L 1734 192 
L 1440 211 
C 1222 224 1203 268 1203 671 
L 1203 2982 
z
M 909 4416 
C 717 4416 550 4249 550 4057 
C 550 3871 717 3705 902 3705 
C 1088 3705 1261 3871 1261 4057 
C 1261 4236 1088 4416 909 4416 
z
" transform="scale(0.015625)"/>
       <path id="URWPalladioL-Roma-6d" d="M 115 2579 
L 352 2579 
C 608 2579 634 2534 634 2112 
L 634 672 
C 634 268 614 224 397 211 
L 102 192 
L 102 0 
C 717 0 736 0 915 0 
C 1094 19 1261 12 1677 0 
L 1677 192 
L 1408 211 
C 1190 223 1171 268 1171 670 
L 1171 2023 
C 1171 2311 1594 2624 1978 2624 
C 2323 2624 2560 2298 2560 1813 
L 2560 670 
C 2560 268 2541 223 2323 211 
L 2029 192 
L 2029 0 
C 2669 0 2669 0 2829 0 
C 2989 19 2989 19 3629 0 
L 3629 192 
L 3334 211 
C 3117 223 3098 268 3098 670 
L 3098 2023 
C 3098 2311 3520 2624 3904 2624 
C 4250 2624 4486 2298 4486 1813 
L 4486 0 
C 4877 0 4883 0 4992 0 
C 5075 19 5075 19 5562 0 
L 5562 192 
L 5261 211 
C 5043 223 5024 268 5024 670 
L 5024 1985 
C 5024 2617 4653 3014 4064 3014 
C 3840 3014 3654 2956 3539 2854 
L 3053 2419 
C 2848 2841 2586 3014 2144 3014 
C 1907 3014 1728 2956 1613 2854 
L 1171 2445 
L 1171 2988 
L 1114 3008 
C 787 2873 454 2783 115 2745 
L 115 2579 
z
" transform="scale(0.015625)"/>
       <path id="URWPalladioL-Roma-65" d="M 2797 447 
L 2714 511 
C 2304 268 2157 211 1882 211 
C 1466 211 1120 396 941 710 
C 819 921 774 1100 762 1472 
L 1696 1472 
C 2138 1472 2413 1491 2854 1561 
C 2861 1651 2867 1708 2867 1786 
C 2867 2526 2394 3008 1677 3008 
C 1440 3008 1165 2924 902 2771 
C 378 2468 166 2069 166 1401 
C 166 998 262 652 435 409 
C 691 70 1120 -128 1600 -128 
C 1837 -128 2074 -77 2336 38 
C 2509 108 2643 192 2669 230 
L 2797 447 
z
M 2298 1708 
C 1965 1696 1811 1689 1581 1689 
C 1286 1689 1120 1696 774 1728 
C 774 2030 800 2172 883 2339 
C 1018 2623 1293 2796 1600 2796 
C 1811 2796 1978 2713 2093 2539 
C 2234 2326 2278 2140 2298 1708 
z
" transform="scale(0.015625)"/>
       <path id="URWPalladioL-Roma-5b" d="M 563 -1178 
C 1018 -1166 1030 -1166 1184 -1166 
C 1338 -1166 1370 -1166 1805 -1178 
L 1843 -1140 
L 1843 -974 
L 1818 -942 
L 1574 -942 
C 1402 -942 1261 -903 1184 -839 
C 1126 -782 1107 -692 1107 -481 
C 1107 -474 1107 -340 1101 -148 
L 1101 89 
L 1101 3379 
L 1101 3615 
C 1107 3795 1107 3935 1107 3942 
C 1107 4153 1126 4249 1184 4307 
C 1261 4371 1402 4409 1574 4409 
L 1818 4409 
L 1843 4441 
L 1843 4608 
L 1805 4646 
C 1357 4633 1338 4633 1184 4633 
C 1037 4633 1005 4633 563 4646 
L 506 4563 
C 544 4403 557 4191 557 3699 
C 557 3603 557 3526 563 3462 
L 563 3379 
L 563 89 
L 563 6 
C 557 -97 557 -103 557 -212 
L 557 -282 
C 557 -718 544 -897 506 -1095 
L 563 -1178 
z
" transform="scale(0.015625)"/>
       <path id="URWPalladioL-Roma-73" d="M 262 917 
C 262 474 243 282 192 25 
C 525 -84 774 -128 1069 -128 
C 1907 -128 2502 320 2502 949 
C 2502 1148 2445 1295 2323 1423 
C 2157 1584 1946 1661 1382 1770 
C 858 1872 685 2001 685 2296 
C 685 2617 909 2796 1299 2796 
C 1728 2796 2054 2572 2054 2270 
L 2054 2123 
L 2234 2123 
C 2240 2495 2246 2649 2266 2847 
C 1926 2963 1696 3008 1434 3008 
C 691 3008 237 2655 237 2078 
C 237 1770 378 1552 672 1417 
C 845 1340 1184 1237 1619 1141 
C 1907 1077 2029 942 2029 698 
C 2029 352 1709 108 1254 108 
C 787 108 454 333 454 654 
L 454 917 
L 262 917 
z
" transform="scale(0.015625)"/>
       <path id="URWPalladioL-Roma-63" d="M 2554 1995 
C 2554 2290 2586 2553 2643 2783 
C 2387 2937 2163 3008 1901 3008 
C 1594 3008 1235 2886 851 2643 
C 403 2360 166 1911 166 1347 
C 166 480 774 -128 1632 -128 
C 1965 -128 2445 -7 2509 89 
L 2643 294 
L 2579 390 
C 2342 262 2138 204 1907 204 
C 1197 204 730 756 730 1603 
C 730 2290 1050 2675 1626 2675 
C 1907 2675 2214 2547 2330 2386 
L 2374 1995 
L 2554 1995 
z
" transform="scale(0.015625)"/>
       <path id="URWPalladioL-Roma-6f" d="M 1786 3008 
C 851 3008 205 2347 205 1391 
C 205 487 774 -128 1600 -128 
C 2586 -128 3290 557 3290 1520 
C 3290 2386 2662 3008 1786 3008 
z
M 1670 2796 
C 2259 2796 2694 2155 2694 1282 
C 2694 545 2368 83 1850 83 
C 1222 83 800 699 800 1609 
C 800 2379 1107 2796 1670 2796 
z
" transform="scale(0.015625)"/>
       <path id="URWPalladioL-Roma-6e" d="M 2624 0 
C 3014 0 3021 0 3130 0 
C 3219 19 3219 19 3661 0 
L 3661 192 
L 3398 211 
C 3181 223 3162 262 3162 670 
L 3162 1902 
C 3162 2649 2810 3014 2093 3014 
C 1856 3014 1722 2969 1587 2854 
L 1101 2432 
L 1101 2988 
L 1043 3008 
C 717 2873 384 2784 45 2746 
L 45 2568 
L 282 2568 
C 538 2568 563 2523 563 2103 
L 563 669 
C 563 268 544 223 326 211 
L 38 192 
L 38 0 
C 474 -7 646 0 832 0 
C 1018 19 1190 12 1626 0 
L 1626 192 
L 1338 211 
C 1120 223 1101 268 1101 670 
L 1101 2023 
C 1101 2311 1523 2624 1914 2624 
C 2342 2624 2624 2304 2624 1813 
L 2624 0 
z
" transform="scale(0.015625)"/>
       <path id="URWPalladioL-Roma-64" d="M 2637 2803 
C 2278 2956 2099 3008 1875 3008 
C 1702 3008 1549 2969 1389 2886 
L 826 2592 
C 461 2400 224 1934 224 1392 
C 224 881 397 460 710 204 
C 928 19 1229 -64 1645 -64 
C 1773 -64 1920 -39 1952 -13 
L 2662 581 
L 2630 0 
C 2944 -7 3046 0 3123 0 
C 3174 0 3264 0 3398 -7 
C 3443 6 3571 6 3706 0 
L 3706 192 
L 3411 211 
C 3194 224 3174 268 3174 672 
L 3174 4614 
L 3117 4665 
C 2835 4557 2624 4505 2118 4429 
L 2118 4249 
L 2477 4249 
C 2592 4249 2637 4179 2637 3987 
L 2637 2803 
z
M 2637 1424 
C 2637 1009 2624 945 2541 798 
C 2362 498 2048 300 1747 300 
C 1184 300 781 843 781 1602 
C 781 2298 1126 2707 1702 2707 
C 1946 2707 2202 2624 2426 2470 
C 2560 2381 2637 2298 2637 2247 
L 2637 1424 
z
" transform="scale(0.015625)"/>
       <path id="URWPalladioL-Roma-5d" d="M 1568 4646 
C 1114 4633 1094 4633 947 4633 
C 794 4633 762 4633 326 4646 
L 288 4608 
L 288 4441 
L 314 4409 
L 557 4409 
C 730 4409 864 4371 941 4307 
C 1005 4249 1024 4159 1024 3942 
C 1024 3923 1024 3795 1030 3615 
L 1030 3379 
L 1030 89 
L 1030 -148 
C 1024 -334 1024 -449 1024 -468 
C 1024 -686 1005 -782 941 -839 
C 864 -903 730 -942 557 -942 
L 314 -942 
L 288 -974 
L 288 -1140 
L 326 -1178 
C 774 -1166 787 -1166 947 -1166 
C 1094 -1166 1126 -1166 1568 -1178 
L 1626 -1095 
C 1587 -942 1581 -743 1574 -250 
C 1574 -161 1574 -78 1568 6 
L 1568 89 
L 1568 3379 
L 1568 3462 
C 1574 3532 1574 3615 1574 3705 
C 1574 4198 1587 4409 1626 4563 
L 1568 4646 
z
" transform="scale(0.015625)"/>
      </defs>
      <use xlink:href="#URWPalladioL-Roma-54" transform="scale(0.996264)"/>
      <use xlink:href="#URWPalladioL-Roma-69" transform="translate(55.591109 0)scale(0.996264)"/>
      <use xlink:href="#URWPalladioL-Roma-6d" transform="translate(84.581471 0)scale(0.996264)"/>
      <use xlink:href="#URWPalladioL-Roma-65" transform="translate(172.551145 0)scale(0.996264)"/>
      <use xlink:href="#URWPalladioL-Roma-5b" transform="translate(245.17804 0)scale(0.996264)"/>
      <use xlink:href="#URWPalladioL-Roma-73" transform="translate(278.35327 0)scale(0.996264)"/>
      <use xlink:href="#URWPalladioL-Roma-65" transform="translate(320.594736 0)scale(0.996264)"/>
      <use xlink:href="#URWPalladioL-Roma-63" transform="translate(368.315031 0)scale(0.996264)"/>
      <use xlink:href="#URWPalladioL-Roma-6f" transform="translate(412.5486 0)scale(0.996264)"/>
      <use xlink:href="#URWPalladioL-Roma-6e" transform="translate(466.94418 0)scale(0.996264)"/>
      <use xlink:href="#URWPalladioL-Roma-64" transform="translate(524.926241 0)scale(0.996264)"/>
      <use xlink:href="#URWPalladioL-Roma-73" transform="translate(585.797872 0)scale(0.996264)"/>
      <use xlink:href="#URWPalladioL-Roma-5d" transform="translate(628.039338 0)scale(0.996264)"/>
     </g>
    </g>
   </g>
   <g id="matplotlib.axis_8">
    <g id="ytick_10">
     <g id="line2d_57">
      <path d="M 41.145691 239.641914 
L 352.405172 239.641914 
" clip-path="url(#p3df09a4627)" style="fill: none; stroke: #000000; stroke-opacity: 0.2; stroke-width: 0.5; stroke-linecap: round"/>
     </g>
     <g id="line2d_58">
      <g>
       <use xlink:href="#mfec46168ce" x="41.145691" y="239.641914" style="fill-opacity: 0.2; stroke: #000000; stroke-opacity: 0.2; stroke-width: 0.5"/>
      </g>
     </g>
     <g id="text_18">
      <!-- $\mathdefault{−1}$ -->
      <g transform="translate(7.2 244.631678)scale(0.14 -0.14)">
       <use xlink:href="#CMSY10-0" transform="scale(1.038107)"/>
       <use xlink:href="#URWPalladioL-Roma-31" transform="translate(81.941696 0)scale(0.996264)"/>
      </g>
     </g>
    </g>
    <g id="ytick_11">
     <g id="line2d_59">
      <path d="M 41.145691 218.7016 
L 352.405172 218.7016 
" clip-path="url(#p3df09a4627)" style="fill: none; stroke: #000000; stroke-opacity: 0.2; stroke-width: 0.5; stroke-linecap: round"/>
     </g>
     <g id="line2d_60">
      <g>
       <use xlink:href="#mfec46168ce" x="41.145691" y="218.7016" style="fill-opacity: 0.2; stroke: #000000; stroke-opacity: 0.2; stroke-width: 0.5"/>
      </g>
     </g>
     <g id="text_19">
      <!-- $\mathdefault{0}$ -->
      <g transform="translate(18.671843 223.691364)scale(0.14 -0.14)">
       <use xlink:href="#URWPalladioL-Roma-30" transform="scale(0.996264)"/>
      </g>
     </g>
    </g>
    <g id="ytick_12">
     <g id="line2d_61">
      <path d="M 41.145691 197.761286 
L 352.405172 197.761286 
" clip-path="url(#p3df09a4627)" style="fill: none; stroke: #000000; stroke-opacity: 0.2; stroke-width: 0.5; stroke-linecap: round"/>
     </g>
     <g id="line2d_62">
      <g>
       <use xlink:href="#mfec46168ce" x="41.145691" y="197.761286" style="fill-opacity: 0.2; stroke: #000000; stroke-opacity: 0.2; stroke-width: 0.5"/>
      </g>
     </g>
     <g id="text_20">
      <!-- $\mathdefault{1}$ -->
      <g transform="translate(18.671843 202.751051)scale(0.14 -0.14)">
       <use xlink:href="#URWPalladioL-Roma-31" transform="scale(0.996264)"/>
      </g>
     </g>
    </g>
   </g>
   <g id="line2d_63">
    <path d="M 41.145691 197.761286 
L 51.878776 197.761286 
L 51.878776 201.76053 
L 62.611862 201.76053 
L 62.611862 212.230687 
L 73.344947 212.230687 
L 73.344947 225.172513 
L 84.078033 225.172513 
L 84.078033 235.642669 
L 94.811119 235.642669 
L 94.811119 239.641914 
L 105.544204 239.641914 
L 105.544204 235.642669 
L 116.27729 235.642669 
L 116.27729 225.172513 
L 127.010375 225.172513 
L 127.010375 212.230687 
L 137.743461 212.230687 
L 137.743461 201.76053 
L 148.476546 201.76053 
L 148.476546 197.761286 
L 159.209632 197.761286 
L 159.209632 201.76053 
L 169.942718 201.76053 
L 169.942718 212.230687 
L 180.675803 212.230687 
L 180.675803 225.172513 
L 191.408889 225.172513 
L 191.408889 235.642669 
L 202.141974 235.642669 
L 202.141974 239.641914 
L 212.87506 239.641914 
L 212.87506 235.642669 
L 223.608145 235.642669 
L 223.608145 225.172513 
L 234.341231 225.172513 
L 234.341231 212.230687 
L 245.074317 212.230687 
L 245.074317 201.76053 
L 255.807402 201.76053 
L 255.807402 197.761286 
L 266.540488 197.761286 
L 266.540488 201.76053 
L 277.273573 201.76053 
L 277.273573 212.230687 
L 288.006659 212.230687 
L 288.006659 225.172513 
L 298.739745 225.172513 
L 298.739745 235.642669 
L 309.47283 235.642669 
L 309.47283 239.641914 
L 320.205916 239.641914 
L 320.205916 235.642669 
L 330.939001 235.642669 
L 330.939001 225.172513 
L 341.672087 225.172513 
L 341.672087 212.230687 
L 352.405172 212.230687 
L 352.405172 201.76053 
" clip-path="url(#p3df09a4627)" style="fill: none; stroke: #dc2830; stroke-width: 2; stroke-linecap: round"/>
    <g clip-path="url(#p3df09a4627)">
     <use xlink:href="#m8d4f7400ee" x="41.145691" y="197.761286" style="fill: #dc2830; stroke: #fefefa; stroke-width: 1.5"/>
     <use xlink:href="#m8d4f7400ee" x="51.878776" y="201.76053" style="fill: #dc2830; stroke: #fefefa; stroke-width: 1.5"/>
     <use xlink:href="#m8d4f7400ee" x="62.611862" y="212.230687" style="fill: #dc2830; stroke: #fefefa; stroke-width: 1.5"/>
     <use xlink:href="#m8d4f7400ee" x="73.344947" y="225.172513" style="fill: #dc2830; stroke: #fefefa; stroke-width: 1.5"/>
     <use xlink:href="#m8d4f7400ee" x="84.078033" y="235.642669" style="fill: #dc2830; stroke: #fefefa; stroke-width: 1.5"/>
     <use xlink:href="#m8d4f7400ee" x="94.811119" y="239.641914" style="fill: #dc2830; stroke: #fefefa; stroke-width: 1.5"/>
     <use xlink:href="#m8d4f7400ee" x="105.544204" y="235.642669" style="fill: #dc2830; stroke: #fefefa; stroke-width: 1.5"/>
     <use xlink:href="#m8d4f7400ee" x="116.27729" y="225.172513" style="fill: #dc2830; stroke: #fefefa; stroke-width: 1.5"/>
     <use xlink:href="#m8d4f7400ee" x="127.010375" y="212.230687" style="fill: #dc2830; stroke: #fefefa; stroke-width: 1.5"/>
     <use xlink:href="#m8d4f7400ee" x="137.743461" y="201.76053" style="fill: #dc2830; stroke: #fefefa; stroke-width: 1.5"/>
     <use xlink:href="#m8d4f7400ee" x="148.476546" y="197.761286" style="fill: #dc2830; stroke: #fefefa; stroke-width: 1.5"/>
     <use xlink:href="#m8d4f7400ee" x="159.209632" y="201.76053" style="fill: #dc2830; stroke: #fefefa; stroke-width: 1.5"/>
     <use xlink:href="#m8d4f7400ee" x="169.942718" y="212.230687" style="fill: #dc2830; stroke: #fefefa; stroke-width: 1.5"/>
     <use xlink:href="#m8d4f7400ee" x="180.675803" y="225.172513" style="fill: #dc2830; stroke: #fefefa; stroke-width: 1.5"/>
     <use xlink:href="#m8d4f7400ee" x="191.408889" y="235.642669" style="fill: #dc2830; stroke: #fefefa; stroke-width: 1.5"/>
     <use xlink:href="#m8d4f7400ee" x="202.141974" y="239.641914" style="fill: #dc2830; stroke: #fefefa; stroke-width: 1.5"/>
     <use xlink:href="#m8d4f7400ee" x="212.87506" y="235.642669" style="fill: #dc2830; stroke: #fefefa; stroke-width: 1.5"/>
     <use xlink:href="#m8d4f7400ee" x="223.608145" y="225.172513" style="fill: #dc2830; stroke: #fefefa; stroke-width: 1.5"/>
     <use xlink:href="#m8d4f7400ee" x="234.341231" y="212.230687" style="fill: #dc2830; stroke: #fefefa; stroke-width: 1.5"/>
     <use xlink:href="#m8d4f7400ee" x="245.074317" y="201.76053" style="fill: #dc2830; stroke: #fefefa; stroke-width: 1.5"/>
     <use xlink:href="#m8d4f7400ee" x="255.807402" y="197.761286" style="fill: #dc2830; stroke: #fefefa; stroke-width: 1.5"/>
     <use xlink:href="#m8d4f7400ee" x="266.540488" y="201.76053" style="fill: #dc2830; stroke: #fefefa; stroke-width: 1.5"/>
     <use xlink:href="#m8d4f7400ee" x="277.273573" y="212.230687" style="fill: #dc2830; stroke: #fefefa; stroke-width: 1.5"/>
     <use xlink:href="#m8d4f7400ee" x="288.006659" y="225.172513" style="fill: #dc2830; stroke: #fefefa; stroke-width: 1.5"/>
     <use xlink:href="#m8d4f7400ee" x="298.739745" y="235.642669" style="fill: #dc2830; stroke: #fefefa; stroke-width: 1.5"/>
     <use xlink:href="#m8d4f7400ee" x="309.47283" y="239.641914" style="fill: #dc2830; stroke: #fefefa; stroke-width: 1.5"/>
     <use xlink:href="#m8d4f7400ee" x="320.205916" y="235.642669" style="fill: #dc2830; stroke: #fefefa; stroke-width: 1.5"/>
     <use xlink:href="#m8d4f7400ee" x="330.939001" y="225.172513" style="fill: #dc2830; stroke: #fefefa; stroke-width: 1.5"/>
     <use xlink:href="#m8d4f7400ee" x="341.672087" y="212.230687" style="fill: #dc2830; stroke: #fefefa; stroke-width: 1.5"/>
     <use xlink:href="#m8d4f7400ee" x="352.405172" y="201.76053" style="fill: #dc2830; stroke: #fefefa; stroke-width: 1.5"/>
    </g>
   </g>
   <g id="legend_4">
    <g id="patch_9">
     <path d="M 362.205172 236.829976 
L 430.39952 236.829976 
Q 433.19952 236.829976 433.19952 234.029976 
L 433.19952 214.517275 
Q 433.19952 211.717275 430.39952 211.717275 
L 362.205172 211.717275 
Q 359.405172 211.717275 359.405172 214.517275 
L 359.405172 234.029976 
Q 359.405172 236.829976 362.205172 236.829976 
z
" style="fill: #ffffff; opacity: 0.95; stroke: #cccccc; stroke-width: 0.5; stroke-linejoin: miter"/>
    </g>
    <g id="line2d_64">
     <path d="M 365.005172 222.396804 
L 372.005172 222.396804 
L 372.005172 222.396804 
L 379.005172 222.396804 
L 379.005172 222.396804 
" style="fill: none; stroke: #dc2830; stroke-width: 2; stroke-linecap: round"/>
     <g>
      <use xlink:href="#m8d4f7400ee" x="372.005172" y="222.396804" style="fill: #dc2830; stroke: #fefefa; stroke-width: 1.5"/>
     </g>
    </g>
    <g id="text_21">
     <!-- $m=3$ -->
     <g transform="translate(390.205172 227.296804)scale(0.14 -0.14)">
      <defs>
       <path id="URWPalladioL-Roma-33" d="M 275 3196 
L 474 3196 
L 589 3553 
C 659 3770 1062 3987 1395 3987 
C 1811 3987 2150 3649 2150 3247 
C 2150 2769 1773 2368 1318 2368 
C 1267 2368 1197 2374 1114 2380 
L 1018 2387 
L 941 2047 
L 986 2008 
C 1229 2118 1350 2150 1523 2150 
C 2054 2150 2362 1808 2362 1222 
C 2362 565 1971 134 1376 134 
C 1082 134 819 231 627 411 
C 474 553 390 701 269 1048 
L 96 984 
C 230 591 282 359 320 38 
C 659 -77 941 -128 1178 -128 
C 1690 -128 2278 160 2630 591 
C 2848 855 2957 1139 2957 1441 
C 2957 1750 2829 2021 2598 2182 
C 2438 2297 2291 2348 1971 2406 
C 2483 2801 2675 3094 2675 3470 
C 2675 4038 2202 4416 1491 4416 
C 1056 4416 768 4294 461 3987 
L 275 3196 
z
" transform="scale(0.015625)"/>
      </defs>
      <use xlink:href="#URWPalladioL-Ital-6d" transform="scale(0.996264)"/>
      <use xlink:href="#CMR10-3d" transform="translate(107.673966 0)scale(1.038107)"/>
      <use xlink:href="#URWPalladioL-Roma-33" transform="translate(217.289595 0)scale(0.996264)"/>
     </g>
    </g>
   </g>
  </g>
 </g>
 <defs>
  <clipPath id="pdf03ae5984">
   <rect x="41.145691" y="8.001702" width="311.259482" height="50.256753"/>
  </clipPath>
  <clipPath id="p169008fad1">
   <rect x="41.145691" y="69.858876" width="311.259482" height="50.256753"/>
  </clipPath>
  <clipPath id="pd6a74d554d">
   <rect x="41.145691" y="131.716049" width="311.259482" height="50.256753"/>
  </clipPath>
  <clipPath id="p3df09a4627">
   <rect x="41.145691" y="193.573223" width="311.259482" height="50.256753"/>
  </clipPath>
 </defs>
</svg>