<?xml version="1.0" encoding="utf-8" standalone="no"?>
<!DOCTYPE svg PUBLIC "-//W3C//DTD SVG 1.1//EN"
  "http://www.w3.org/Graphics/SVG/1.1/DTD/svg11.dtd">
<svg xmlns:xlink="http://www.w3.org/1999/xlink" width="423.82345pt" height="152.39952pt" viewBox="0 0 423.82345 152.39952" xmlns="http://www.w3.org/2000/svg" version="1.1">
 <metadata>
  <rdf:RDF xmlns:dc="http://purl.org/dc/elements/1.1/" xmlns:cc="http://creativecommons.org/ns#" xmlns:rdf="http://www.w3.org/1999/02/22-rdf-syntax-ns#">
   <cc:Work>
    <dc:type rdf:resource="http://purl.org/dc/dcmitype/StillImage"/>
    <dc:date>2022-06-20T09:52:13.316628</dc:date>
    <dc:format>image/svg+xml</dc:format>
    <dc:creator>
     <cc:Agent>
      <dc:title>Matplotlib v3.5.2, https://matplotlib.org/</dc:title>
     </cc:Agent>
    </dc:creator>
   </cc:Work>
  </rdf:RDF>
 </metadata>
 <defs>
  <style type="text/css">*{stroke-linejoin: round; stroke-linecap: butt}</style>
 </defs>
 <g id="figure_1">
  <g id="patch_1">
   <path d="M 0 152.39952 
L 423.82345 152.39952 
L 423.82345 0 
L 0 0 
L 0 152.39952 
z
" style="fill: none"/>
  </g>
  <g id="axes_1">
   <g id="patch_2">
    <path d="M 45.599008 99.861659 
L 296.644456 99.861659 
L 296.644456 7.2 
L 45.599008 7.2 
L 45.599008 99.861659 
z
" style="fill: none"/>
   </g>
   <g id="matplotlib.axis_1">
    <g id="xtick_1">
     <g id="line2d_1">
      <path d="M 55.742258 99.861659 
L 55.742258 7.2 
" clip-path="url(#p75a52d1705)" style="fill: none; stroke: #000000; stroke-opacity: 0.2; stroke-width: 0.5; stroke-linecap: round"/>
     </g>
     <g id="line2d_2">
      <defs>
       <path id="m1574b5fc76" d="M 0 0 
L 0 3.5 
" style="stroke: #000000; stroke-opacity: 0.2; stroke-width: 0.5"/>
      </defs>
      <g>
       <use xlink:href="#m1574b5fc76" x="55.742258" y="99.861659" style="fill-opacity: 0.2; stroke: #000000; stroke-opacity: 0.2; stroke-width: 0.5"/>
      </g>
     </g>
     <g id="text_1">
      <!-- 1 -->
      <g transform="translate(52.255334 125.341188)scale(0.14 -0.14)">
       <defs>
        <path id="URWPalladioL-Roma-31" d="M 429 3571 
L 493 3571 
L 1318 3942 
C 1325 3949 1331 3949 1338 3949 
C 1376 3949 1389 3891 1389 3737 
L 1389 633 
C 1389 300 1318 230 973 211 
L 614 192 
L 614 0 
C 1600 0 1600 0 1670 0 
C 1754 0 1894 0 2112 -7 
C 2189 6 2413 6 2675 0 
L 2675 192 
L 2342 211 
C 1990 229 1926 299 1926 628 
L 1926 4383 
L 1837 4416 
C 1421 4199 966 4009 384 3807 
L 429 3571 
z
" transform="scale(0.015625)"/>
       </defs>
       <use xlink:href="#URWPalladioL-Roma-31" transform="scale(0.996264)"/>
      </g>
     </g>
    </g>
    <g id="xtick_2">
     <g id="line2d_3">
      <path d="M 68.421321 99.861659 
L 68.421321 7.2 
" clip-path="url(#p75a52d1705)" style="fill: none; stroke: #000000; stroke-opacity: 0.2; stroke-width: 0.5; stroke-linecap: round"/>
     </g>
     <g id="line2d_4">
      <g>
       <use xlink:href="#m1574b5fc76" x="68.421321" y="99.861659" style="fill-opacity: 0.2; stroke: #000000; stroke-opacity: 0.2; stroke-width: 0.5"/>
      </g>
     </g>
     <g id="text_2">
      <!-- 2 -->
      <g transform="translate(64.934397 125.341188)scale(0.14 -0.14)">
       <defs>
        <path id="URWPalladioL-Roma-32" d="M 102 166 
L 102 0 
C 1299 0 1299 0 1530 0 
C 1760 19 1760 19 2995 0 
C 2982 134 2982 198 2982 287 
C 2982 370 2982 434 2995 574 
C 2259 542 1965 536 781 510 
L 1946 1741 
C 2566 2398 2758 2749 2758 3228 
C 2758 3961 2259 4416 1446 4416 
C 986 4416 672 4287 358 3967 
L 250 3100 
L 435 3100 
L 518 3394 
C 621 3763 851 3923 1280 3923 
C 1830 3923 2182 3578 2182 3036 
C 2182 2558 1914 2086 1190 1320 
L 102 166 
z
" transform="scale(0.015625)"/>
       </defs>
       <use xlink:href="#URWPalladioL-Roma-32" transform="scale(0.996264)"/>
      </g>
     </g>
    </g>
    <g id="xtick_3">
     <g id="line2d_5">
      <path d="M 77.528462 99.861659 
L 77.528462 7.2 
" clip-path="url(#p75a52d1705)" style="fill: none; stroke: #000000; stroke-opacity: 0.2; stroke-width: 0.5; stroke-linecap: round"/>
     </g>
     <g id="line2d_6">
      <g>
       <use xlink:href="#m1574b5fc76" x="77.528462" y="99.861659" style="fill-opacity: 0.2; stroke: #000000; stroke-opacity: 0.2; stroke-width: 0.5"/>
      </g>
     </g>
     <g id="text_3">
      <!-- $e$ -->
      <g transform="translate(74.815704 125.341188)scale(0.14 -0.14)">
       <defs>
        <path id="URWPalladioL-Ital-65" d="M 2099 713 
L 1946 605 
C 1606 363 1299 236 1069 236 
C 768 236 582 471 582 853 
C 582 1011 602 1183 634 1367 
L 1158 1494 
C 1267 1520 1440 1583 1600 1653 
C 2144 1888 2394 2180 2394 2574 
C 2394 2873 2176 3072 1856 3072 
C 1440 3072 730 2631 480 2225 
C 288 1907 96 1151 96 725 
C 96 230 378 -64 838 -64 
C 1203 -64 1562 115 2150 592 
L 2099 713 
z
M 723 1748 
C 832 2187 960 2460 1146 2625 
C 1261 2727 1459 2803 1613 2803 
C 1798 2803 1920 2676 1920 2472 
C 1920 2193 1696 1894 1363 1736 
C 1184 1647 954 1577 666 1513 
L 723 1748 
z
" transform="scale(0.015625)"/>
       </defs>
       <use xlink:href="#URWPalladioL-Ital-65" transform="scale(0.996264)"/>
      </g>
     </g>
    </g>
    <g id="xtick_4">
     <g id="line2d_7">
      <path d="M 93.779447 99.861659 
L 93.779447 7.2 
" clip-path="url(#p75a52d1705)" style="fill: none; stroke: #000000; stroke-opacity: 0.2; stroke-width: 0.5; stroke-linecap: round"/>
     </g>
     <g id="line2d_8">
      <g>
       <use xlink:href="#m1574b5fc76" x="93.779447" y="99.861659" style="fill-opacity: 0.2; stroke: #000000; stroke-opacity: 0.2; stroke-width: 0.5"/>
      </g>
     </g>
     <g id="text_4">
      <!-- 4 -->
      <g transform="translate(90.292523 125.341188)scale(0.14 -0.14)">
       <defs>
        <path id="URWPalladioL-Roma-34" d="M 1792 1152 
L 1792 684 
C 1792 310 1722 223 1408 210 
L 1011 192 
L 1011 0 
C 1862 0 1862 0 2016 0 
C 2170 19 2170 19 3021 0 
L 3021 192 
L 2714 210 
C 2400 229 2330 310 2330 684 
L 2330 1152 
C 2707 1152 2842 1145 3021 1127 
L 3021 1580 
C 2720 1555 2598 1555 2502 1561 
L 2483 1561 
L 2330 1561 
L 2330 2445 
C 2330 3576 2342 4122 2374 4383 
L 2298 4416 
L 1824 4243 
L 13 1299 
L 83 1152 
L 1792 1152 
z
M 1792 1561 
L 416 1561 
L 1792 3798 
L 1792 1561 
z
" transform="scale(0.015625)"/>
       </defs>
       <use xlink:href="#URWPalladioL-Roma-34" transform="scale(0.996264)"/>
      </g>
     </g>
    </g>
    <g id="xtick_5">
     <g id="line2d_9">
      <path d="M 144.4957 99.861659 
L 144.4957 7.2 
" clip-path="url(#p75a52d1705)" style="fill: none; stroke: #000000; stroke-opacity: 0.2; stroke-width: 0.5; stroke-linecap: round"/>
     </g>
     <g id="line2d_10">
      <g>
       <use xlink:href="#m1574b5fc76" x="144.4957" y="99.861659" style="fill-opacity: 0.2; stroke: #000000; stroke-opacity: 0.2; stroke-width: 0.5"/>
      </g>
     </g>
     <g id="text_5">
      <!-- 8 -->
      <g transform="translate(141.008776 125.341188)scale(0.14 -0.14)">
       <defs>
        <path id="URWPalladioL-Roma-38" d="M 1075 2211 
C 813 2089 704 2019 563 1884 
C 320 1640 192 1352 192 1019 
C 192 358 723 -128 1446 -128 
C 2278 -128 2970 525 2970 1320 
C 2970 1833 2733 2108 2003 2442 
C 2586 2839 2790 3108 2790 3493 
C 2790 4044 2336 4416 1658 4416 
C 896 4416 339 3929 339 3256 
C 339 2820 512 2576 1075 2211 
z
M 1818 1890 
C 2221 1711 2464 1397 2464 1051 
C 2464 512 2061 89 1542 89 
C 998 89 646 474 646 1070 
C 646 1538 832 1833 1306 2121 
L 1818 1890 
z
M 1427 2711 
C 1024 2910 819 3166 819 3486 
C 819 3910 1126 4198 1581 4198 
C 2048 4198 2355 3890 2355 3422 
C 2355 3057 2195 2807 1779 2538 
L 1427 2711 
z
" transform="scale(0.015625)"/>
       </defs>
       <use xlink:href="#URWPalladioL-Roma-38" transform="scale(0.996264)"/>
      </g>
     </g>
    </g>
    <g id="xtick_6">
     <g id="line2d_11">
      <path d="M 169.853826 99.861659 
L 169.853826 7.2 
" clip-path="url(#p75a52d1705)" style="fill: none; stroke: #000000; stroke-opacity: 0.2; stroke-width: 0.5; stroke-linecap: round"/>
     </g>
     <g id="line2d_12">
      <g>
       <use xlink:href="#m1574b5fc76" x="169.853826" y="99.861659" style="fill-opacity: 0.2; stroke: #000000; stroke-opacity: 0.2; stroke-width: 0.5"/>
      </g>
     </g>
     <g id="text_6">
      <!-- 10 -->
      <g transform="translate(162.879978 125.341188)scale(0.14 -0.14)">
       <defs>
        <path id="URWPalladioL-Roma-30" d="M 1683 4416 
C 691 4416 186 3628 186 2076 
C 186 1326 320 679 544 365 
C 768 51 1126 -128 1523 -128 
C 2490 -128 2976 704 2976 2345 
C 2976 3749 2560 4416 1683 4416 
z
M 1568 4191 
C 2189 4191 2438 3563 2438 2025 
C 2438 660 2195 96 1606 96 
C 986 96 723 743 723 2307 
C 723 3660 960 4191 1568 4191 
z
" transform="scale(0.015625)"/>
       </defs>
       <use xlink:href="#URWPalladioL-Roma-31" transform="scale(0.996264)"/>
       <use xlink:href="#URWPalladioL-Roma-30" transform="translate(49.8132 0)scale(0.996264)"/>
      </g>
     </g>
    </g>
    <g id="xtick_7">
     <g id="line2d_13">
      <path d="M 245.928204 99.861659 
L 245.928204 7.2 
" clip-path="url(#p75a52d1705)" style="fill: none; stroke: #000000; stroke-opacity: 0.2; stroke-width: 0.5; stroke-linecap: round"/>
     </g>
     <g id="line2d_14">
      <g>
       <use xlink:href="#m1574b5fc76" x="245.928204" y="99.861659" style="fill-opacity: 0.2; stroke: #000000; stroke-opacity: 0.2; stroke-width: 0.5"/>
      </g>
     </g>
     <g id="text_7">
      <!-- 16 -->
      <g transform="translate(238.954356 125.341188)scale(0.14 -0.14)">
       <defs>
        <path id="URWPalladioL-Roma-36" d="M 2662 4287 
L 2426 4396 
C 1811 4193 1549 4066 1222 3788 
C 563 3237 205 2463 205 1585 
C 205 526 717 -128 1542 -128 
C 2374 -128 2995 532 2995 1405 
C 2995 2143 2554 2624 1875 2624 
C 1555 2624 1363 2540 986 2239 
C 915 2182 909 2175 838 2124 
C 973 3275 1510 3895 2662 4237 
L 2662 4287 
z
M 1632 2239 
C 2118 2239 2445 1816 2445 1180 
C 2445 513 2118 83 1626 83 
C 1082 83 787 551 787 1411 
C 787 1636 813 1758 883 1867 
C 1024 2085 1325 2239 1632 2239 
z
" transform="scale(0.015625)"/>
       </defs>
       <use xlink:href="#URWPalladioL-Roma-31" transform="scale(0.996264)"/>
       <use xlink:href="#URWPalladioL-Roma-36" transform="translate(49.8132 0)scale(0.996264)"/>
      </g>
     </g>
    </g>
    <g id="xtick_8">
     <g id="line2d_15">
      <path d="M 296.644456 99.861659 
L 296.644456 7.2 
" clip-path="url(#p75a52d1705)" style="fill: none; stroke: #000000; stroke-opacity: 0.2; stroke-width: 0.5; stroke-linecap: round"/>
     </g>
     <g id="line2d_16">
      <g>
       <use xlink:href="#m1574b5fc76" x="296.644456" y="99.861659" style="fill-opacity: 0.2; stroke: #000000; stroke-opacity: 0.2; stroke-width: 0.5"/>
      </g>
     </g>
     <g id="text_8">
      <!-- 20 -->
      <g transform="translate(289.670608 125.341188)scale(0.14 -0.14)">
       <use xlink:href="#URWPalladioL-Roma-32" transform="scale(0.996264)"/>
       <use xlink:href="#URWPalladioL-Roma-30" transform="translate(49.8132 0)scale(0.996264)"/>
      </g>
     </g>
    </g>
    <g id="text_9">
     <!-- $x$ -->
     <g transform="translate(168.13294 141.828236)scale(0.12 -0.12)">
      <defs>
       <path id="URWPalladioL-Ital-78" d="M 134 567 
C 134 440 122 358 83 153 
C 70 76 64 57 58 12 
C 154 -39 256 -64 333 -64 
C 544 -64 794 121 992 421 
L 1478 1164 
L 1549 726 
C 1632 185 1779 -64 2010 -64 
C 2150 -64 2355 44 2560 230 
L 2874 510 
L 2816 631 
C 2586 440 2426 345 2323 345 
C 2227 345 2144 409 2080 536 
C 2022 656 1952 891 1920 1075 
L 1805 1716 
L 2029 2027 
C 2330 2439 2502 2585 2701 2585 
C 2803 2585 2880 2534 2912 2439 
L 3002 2465 
L 3098 3007 
C 3021 3052 2963 3072 2906 3072 
C 2650 3072 2394 2841 1997 2255 
L 1760 1906 
L 1722 2211 
C 1645 2841 1472 3072 1094 3072 
C 928 3072 787 3020 730 2937 
L 358 2408 
L 467 2344 
C 659 2560 787 2649 909 2649 
C 1120 2649 1261 2389 1370 1767 
L 1440 1373 
L 1184 980 
C 909 555 691 352 512 352 
C 416 352 346 377 333 409 
L 262 586 
L 134 567 
z
" transform="scale(0.015625)"/>
      </defs>
      <use xlink:href="#URWPalladioL-Ital-78" transform="scale(0.996264)"/>
     </g>
    </g>
   </g>
   <g id="matplotlib.axis_2">
    <g id="ytick_1">
     <g id="line2d_17">
      <path d="M 45.599008 66.209892 
L 296.644456 66.209892 
" clip-path="url(#p75a52d1705)" style="fill: none; stroke: #000000; stroke-opacity: 0.2; stroke-width: 0.5; stroke-linecap: round"/>
     </g>
     <g id="line2d_18">
      <defs>
       <path id="m2d00014a0e" d="M 0 0 
L -3.5 0 
" style="stroke: #000000; stroke-opacity: 0.2; stroke-width: 0.5"/>
      </defs>
      <g>
       <use xlink:href="#m2d00014a0e" x="45.599008" y="66.209892" style="fill-opacity: 0.2; stroke: #000000; stroke-opacity: 0.2; stroke-width: 0.5"/>
      </g>
     </g>
     <g id="text_10">
      <!-- $\mathdefault{0}$ -->
      <g transform="translate(23.12516 71.199657)scale(0.14 -0.14)">
       <use xlink:href="#URWPalladioL-Roma-30" transform="scale(0.996264)"/>
      </g>
     </g>
    </g>
    <g id="ytick_2">
     <g id="line2d_19">
      <path d="M 45.599008 53.530829 
L 296.644456 53.530829 
" clip-path="url(#p75a52d1705)" style="fill: none; stroke: #000000; stroke-opacity: 0.2; stroke-width: 0.5; stroke-linecap: round"/>
     </g>
     <g id="line2d_20">
      <g>
       <use xlink:href="#m2d00014a0e" x="45.599008" y="53.530829" style="fill-opacity: 0.2; stroke: #000000; stroke-opacity: 0.2; stroke-width: 0.5"/>
      </g>
     </g>
     <g id="text_11">
      <!-- $\mathdefault{1}$ -->
      <g transform="translate(23.12516 58.520594)scale(0.14 -0.14)">
       <use xlink:href="#URWPalladioL-Roma-31" transform="scale(0.996264)"/>
      </g>
     </g>
    </g>
    <g id="ytick_3">
     <g id="line2d_21">
      <path d="M 45.599008 40.851766 
L 296.644456 40.851766 
" clip-path="url(#p75a52d1705)" style="fill: none; stroke: #000000; stroke-opacity: 0.2; stroke-width: 0.5; stroke-linecap: round"/>
     </g>
     <g id="line2d_22">
      <g>
       <use xlink:href="#m2d00014a0e" x="45.599008" y="40.851766" style="fill-opacity: 0.2; stroke: #000000; stroke-opacity: 0.2; stroke-width: 0.5"/>
      </g>
     </g>
     <g id="text_12">
      <!-- $\mathdefault{2}$ -->
      <g transform="translate(23.12516 45.841531)scale(0.14 -0.14)">
       <use xlink:href="#URWPalladioL-Roma-32" transform="scale(0.996264)"/>
      </g>
     </g>
    </g>
    <g id="ytick_4">
     <g id="line2d_23">
      <path d="M 45.599008 28.172703 
L 296.644456 28.172703 
" clip-path="url(#p75a52d1705)" style="fill: none; stroke: #000000; stroke-opacity: 0.2; stroke-width: 0.5; stroke-linecap: round"/>
     </g>
     <g id="line2d_24">
      <g>
       <use xlink:href="#m2d00014a0e" x="45.599008" y="28.172703" style="fill-opacity: 0.2; stroke: #000000; stroke-opacity: 0.2; stroke-width: 0.5"/>
      </g>
     </g>
     <g id="text_13">
      <!-- $\mathdefault{3}$ -->
      <g transform="translate(23.12516 33.162468)scale(0.14 -0.14)">
       <defs>
        <path id="URWPalladioL-Roma-33" d="M 275 3196 
L 474 3196 
L 589 3553 
C 659 3770 1062 3987 1395 3987 
C 1811 3987 2150 3649 2150 3247 
C 2150 2769 1773 2368 1318 2368 
C 1267 2368 1197 2374 1114 2380 
L 1018 2387 
L 941 2047 
L 986 2008 
C 1229 2118 1350 2150 1523 2150 
C 2054 2150 2362 1808 2362 1222 
C 2362 565 1971 134 1376 134 
C 1082 134 819 231 627 411 
C 474 553 390 701 269 1048 
L 96 984 
C 230 591 282 359 320 38 
C 659 -77 941 -128 1178 -128 
C 1690 -128 2278 160 2630 591 
C 2848 855 2957 1139 2957 1441 
C 2957 1750 2829 2021 2598 2182 
C 2438 2297 2291 2348 1971 2406 
C 2483 2801 2675 3094 2675 3470 
C 2675 4038 2202 4416 1491 4416 
C 1056 4416 768 4294 461 3987 
L 275 3196 
z
" transform="scale(0.015625)"/>
       </defs>
       <use xlink:href="#URWPalladioL-Roma-33" transform="scale(0.996264)"/>
      </g>
     </g>
    </g>
    <g id="ytick_5">
     <g id="line2d_25">
      <path d="M 45.599008 15.49364 
L 296.644456 15.49364 
" clip-path="url(#p75a52d1705)" style="fill: none; stroke: #000000; stroke-opacity: 0.2; stroke-width: 0.5; stroke-linecap: round"/>
     </g>
     <g id="line2d_26">
      <g>
       <use xlink:href="#m2d00014a0e" x="45.599008" y="15.49364" style="fill-opacity: 0.2; stroke: #000000; stroke-opacity: 0.2; stroke-width: 0.5"/>
      </g>
     </g>
     <g id="text_14">
      <!-- $\mathdefault{4}$ -->
      <g transform="translate(23.12516 20.483405)scale(0.14 -0.14)">
       <use xlink:href="#URWPalladioL-Roma-34" transform="scale(0.996264)"/>
      </g>
     </g>
    </g>
    <g id="text_15">
     <!-- $y$ -->
     <g transform="translate(15.753876 56.519621)rotate(-90)scale(0.12 -0.12)">
      <defs>
       <path id="URWPalladioL-Ital-79" d="M -45 -1132 
C -51 -1176 -51 -1214 -51 -1245 
C -51 -1517 186 -1741 474 -1741 
C 1152 -1741 1856 -955 2234 216 
L 3136 3014 
L 3066 3072 
C 2880 3001 2733 2963 2592 2950 
L 2368 2111 
C 2291 1812 2067 1348 1856 1036 
C 1632 712 1318 432 1178 432 
C 1101 432 1043 578 1050 737 
L 1056 820 
L 1152 2053 
C 1165 2250 1178 2492 1178 2670 
C 1178 2956 1133 3072 1024 3072 
C 941 3072 851 3027 544 2816 
L 19 2460 
L 90 2346 
L 410 2537 
L 435 2556 
C 499 2594 544 2613 570 2613 
C 659 2613 710 2492 710 2282 
C 710 2276 710 2238 704 2187 
L 595 642 
L 589 388 
C 589 121 704 -64 864 -64 
C 1101 -64 1638 477 2118 1195 
L 1805 108 
C 1478 -1012 1158 -1472 710 -1472 
C 486 -1472 314 -1302 314 -1081 
C 314 -1049 320 -999 326 -942 
L 262 -917 
L -45 -1132 
z
" transform="scale(0.015625)"/>
      </defs>
      <use xlink:href="#URWPalladioL-Ital-79" transform="scale(0.996264)"/>
     </g>
    </g>
   </g>
   <g id="line2d_27">
    <path d="M 45.599008 95.649765 
L 48.13482 82.970702 
L 50.670633 75.553926 
L 53.206446 70.291639 
L 55.742258 66.209892 
L 58.278071 62.874863 
L 60.813884 60.055135 
L 63.349696 57.612576 
L 65.885509 55.458086 
L 68.421321 53.530829 
L 70.957134 51.787413 
L 73.492947 50.195799 
L 76.028759 48.731657 
L 78.564572 47.376072 
L 81.100384 46.114053 
L 83.636197 44.933513 
L 86.17201 43.824566 
L 88.707822 42.779023 
L 91.243635 41.790024 
L 93.779447 40.851766 
L 96.31526 39.959296 
L 98.851073 39.10835 
L 101.386885 38.295238 
L 103.922698 37.516736 
L 106.45851 36.77002 
L 108.994323 36.052594 
L 111.530136 35.362247 
L 114.065948 34.697009 
L 116.601761 34.055118 
L 119.137573 33.43499 
L 121.673386 32.835198 
L 124.209199 32.25445 
L 126.745011 31.691574 
L 129.280824 31.145503 
L 131.816637 30.615262 
L 134.352449 30.09996 
L 136.888262 29.598777 
L 139.424074 29.110961 
L 141.959887 28.635817 
L 144.4957 28.172703 
L 147.031512 27.721025 
L 149.567325 27.280232 
L 152.103137 26.849812 
L 154.63895 26.429287 
L 157.174763 26.018213 
L 159.710575 25.616175 
L 162.246388 25.222783 
L 164.7822 24.837673 
L 167.318013 24.460505 
L 169.853826 24.090957 
L 172.389638 23.728727 
L 174.925451 23.37353 
L 177.461263 23.0251 
L 179.997076 22.683184 
L 182.532889 22.347541 
L 185.068701 22.017946 
L 187.604514 21.694185 
L 190.140326 21.376055 
L 192.676139 21.063363 
L 195.211952 20.755927 
L 197.747764 20.453572 
L 200.283577 20.156135 
L 202.819389 19.863456 
L 205.355202 19.575387 
L 207.891015 19.291784 
L 210.426827 19.012511 
L 212.96264 18.737438 
L 215.498453 18.46644 
L 218.034265 18.199398 
L 220.570078 17.936199 
L 223.10589 17.676734 
L 225.641703 17.420897 
L 228.177516 17.168589 
L 230.713328 16.919714 
L 233.249141 16.67418 
L 235.784953 16.431898 
L 238.320766 16.192783 
L 240.856579 15.956754 
L 243.392391 15.723732 
L 245.928204 15.49364 
L 248.464016 15.266407 
L 250.999829 15.041962 
L 253.535642 14.820238 
L 256.071454 14.601169 
L 258.607267 14.384693 
L 261.143079 14.170749 
L 263.678892 13.959278 
L 266.214705 13.750224 
L 268.750517 13.543533 
L 271.28633 13.33915 
L 273.822142 13.137027 
L 276.357955 12.937112 
L 278.893768 12.739358 
L 281.42958 12.54372 
L 283.965393 12.350152 
L 286.501206 12.15861 
L 289.037018 11.969054 
L 291.572831 11.781442 
L 294.108643 11.595735 
L 296.644456 11.411894 
" clip-path="url(#p75a52d1705)" style="fill: none; stroke: #0271ae; stroke-width: 2; stroke-linecap: round"/>
   </g>
   <g id="line2d_28">
    <path d="M 45.599008 86.616057 
L 48.13482 77.8276 
L 50.670633 72.686683 
L 53.206446 69.039143 
L 55.742258 66.209892 
L 58.278071 63.898226 
L 60.813884 61.94374 
L 63.349696 60.250687 
L 65.885509 58.757308 
L 68.421321 57.421436 
L 70.957134 56.212992 
L 73.492947 55.109769 
L 76.028759 54.094902 
L 78.564572 53.155283 
L 81.100384 52.280518 
L 83.636197 51.46223 
L 86.17201 50.693566 
L 88.707822 49.968851 
L 91.243635 49.28333 
L 93.779447 48.632979 
L 96.31526 48.014365 
L 98.851073 47.424535 
L 101.386885 46.860928 
L 103.922698 46.321312 
L 106.45851 45.803728 
L 108.994323 45.306446 
L 111.530136 44.827934 
L 114.065948 44.366826 
L 116.601761 43.921901 
L 119.137573 43.492061 
L 121.673386 43.076317 
L 124.209199 42.673773 
L 126.745011 42.283617 
L 129.280824 41.90511 
L 131.816637 41.537575 
L 134.352449 41.180395 
L 136.888262 40.833001 
L 139.424074 40.494873 
L 141.959887 40.165528 
L 144.4957 39.844522 
L 147.031512 39.531443 
L 149.567325 39.225908 
L 152.103137 38.927564 
L 154.63895 38.636078 
L 157.174763 38.351143 
L 159.710575 38.072471 
L 162.246388 37.799793 
L 164.7822 37.532855 
L 167.318013 37.271422 
L 169.853826 37.015271 
L 172.389638 36.764192 
L 174.925451 36.517989 
L 177.461263 36.276476 
L 179.997076 36.039477 
L 182.532889 35.806827 
L 185.068701 35.578369 
L 187.604514 35.353955 
L 190.140326 35.133444 
L 192.676139 34.916703 
L 195.211952 34.703604 
L 197.747764 34.494028 
L 200.283577 34.28786 
L 202.819389 34.084991 
L 205.355202 33.885316 
L 207.891015 33.688738 
L 210.426827 33.49516 
L 212.96264 33.304494 
L 215.498453 33.116653 
L 218.034265 32.931554 
L 220.570078 32.749118 
L 223.10589 32.56927 
L 225.641703 32.391938 
L 228.177516 32.217051 
L 230.713328 32.044544 
L 233.249141 31.874353 
L 235.784953 31.706416 
L 238.320766 31.540674 
L 240.856579 31.377071 
L 243.392391 31.215552 
L 245.928204 31.056065 
L 248.464016 30.898559 
L 250.999829 30.742986 
L 253.535642 30.589298 
L 256.071454 30.437452 
L 258.607267 30.287402 
L 261.143079 30.139107 
L 263.678892 29.992527 
L 266.214705 29.847621 
L 268.750517 29.704354 
L 271.28633 29.562687 
L 273.822142 29.422585 
L 276.357955 29.284015 
L 278.893768 29.146942 
L 281.42958 29.011336 
L 283.965393 28.877165 
L 286.501206 28.744399 
L 289.037018 28.613008 
L 291.572831 28.482965 
L 294.108643 28.354243 
L 296.644456 28.226814 
" clip-path="url(#p75a52d1705)" style="fill: none; stroke: #dc2830; stroke-width: 2; stroke-linecap: round"/>
   </g>
   <g id="line2d_29">
    <path d="M 45.599008 75.072177 
L 48.13482 71.255399 
L 50.670633 69.022727 
L 53.206446 67.43862 
L 55.742258 66.209892 
L 58.278071 65.205948 
L 60.813884 64.357126 
L 63.349696 63.621842 
L 65.885509 62.973276 
L 68.421321 62.393114 
L 70.957134 61.868294 
L 73.492947 61.38917 
L 76.028759 60.948419 
L 78.564572 60.540347 
L 81.100384 60.160442 
L 83.636197 59.805064 
L 86.17201 59.471238 
L 88.707822 59.156498 
L 91.243635 58.85878 
L 93.779447 58.576336 
L 96.31526 58.307675 
L 98.851073 58.051515 
L 101.386885 57.806744 
L 103.922698 57.572392 
L 106.45851 57.347608 
L 108.994323 57.131641 
L 111.530136 56.923826 
L 114.065948 56.723569 
L 116.601761 56.530341 
L 119.137573 56.343664 
L 121.673386 56.163108 
L 124.209199 55.988286 
L 126.745011 55.818843 
L 129.280824 55.654459 
L 131.816637 55.494841 
L 134.352449 55.33972 
L 136.888262 55.188849 
L 139.424074 55.042001 
L 141.959887 54.898969 
L 144.4957 54.759557 
L 147.031512 54.623589 
L 149.567325 54.490897 
L 152.103137 54.361328 
L 154.63895 54.234737 
L 157.174763 54.110991 
L 159.710575 53.989966 
L 162.246388 53.871543 
L 164.7822 53.755613 
L 167.318013 53.642074 
L 169.853826 53.530829 
L 172.389638 53.421787 
L 174.925451 53.314862 
L 177.461263 53.209975 
L 179.997076 53.107047 
L 182.532889 53.006009 
L 185.068701 52.906791 
L 187.604514 52.809329 
L 190.140326 52.713562 
L 192.676139 52.619433 
L 195.211952 52.526885 
L 197.747764 52.435868 
L 200.283577 52.34633 
L 202.819389 52.258225 
L 205.355202 52.171507 
L 207.891015 52.086134 
L 210.426827 52.002065 
L 212.96264 51.91926 
L 215.498453 51.837681 
L 218.034265 51.757294 
L 220.570078 51.678063 
L 223.10589 51.599956 
L 225.641703 51.522941 
L 228.177516 51.446989 
L 230.713328 51.37207 
L 233.249141 51.298157 
L 235.784953 51.225223 
L 238.320766 51.153242 
L 240.856579 51.08219 
L 243.392391 51.012044 
L 245.928204 50.942779 
L 248.464016 50.874375 
L 250.999829 50.806811 
L 253.535642 50.740065 
L 256.071454 50.674119 
L 258.607267 50.608953 
L 261.143079 50.544549 
L 263.678892 50.48089 
L 266.214705 50.417959 
L 268.750517 50.355738 
L 271.28633 50.294213 
L 273.822142 50.233368 
L 276.357955 50.173187 
L 278.893768 50.113658 
L 281.42958 50.054765 
L 283.965393 49.996495 
L 286.501206 49.938835 
L 289.037018 49.881773 
L 291.572831 49.825296 
L 294.108643 49.769393 
L 296.644456 49.714051 
" clip-path="url(#p75a52d1705)" style="fill: none; stroke: #f2aa00; stroke-width: 2; stroke-linecap: round"/>
   </g>
   <g id="legend_1">
    <g id="patch_3">
     <path d="M 306.444456 84.804744 
L 413.82345 84.804744 
Q 416.62345 84.804744 416.62345 82.004744 
L 416.62345 17 
Q 416.62345 14.2 413.82345 14.2 
L 306.444456 14.2 
Q 303.644456 14.2 303.644456 17 
L 303.644456 82.004744 
Q 303.644456 84.804744 306.444456 84.804744 
z
" style="fill: #ffffff; opacity: 0.95; stroke: #cccccc; stroke-width: 0.5; stroke-linejoin: miter"/>
    </g>
    <g id="line2d_30">
     <path d="M 309.244456 25.800119 
L 316.244456 25.800119 
L 323.244456 25.800119 
" style="fill: none; stroke: #0271ae; stroke-width: 2; stroke-linecap: round"/>
    </g>
    <g id="text_16">
     <!-- $y = \log_2(x)$ -->
     <g style="fill: #0271ae" transform="translate(334.444456 30.700119)scale(0.14 -0.14)">
      <defs>
       <path id="CMR10-3d" d="M 4397 2111 
C 4493 2111 4614 2111 4614 2239 
C 4614 2368 4493 2368 4403 2368 
L 570 2368 
C 480 2368 358 2368 358 2239 
C 358 2111 480 2111 576 2111 
L 4397 2111 
z
M 4403 832 
C 4493 832 4614 832 4614 960 
C 4614 1088 4493 1088 4397 1088 
L 576 1088 
C 480 1088 358 1088 358 960 
C 358 832 480 832 570 832 
L 4403 832 
z
" transform="scale(0.015625)"/>
       <path id="URWPalladioL-Roma-6c" d="M 147 4249 
L 506 4249 
C 621 4249 666 4179 666 3987 
L 666 672 
C 666 268 646 224 429 211 
L 134 192 
L 134 0 
C 774 0 774 0 934 0 
C 1094 19 1094 19 1734 0 
L 1734 192 
L 1440 211 
C 1222 224 1203 268 1203 672 
L 1203 4614 
L 1146 4665 
C 864 4557 653 4505 147 4429 
L 147 4249 
z
" transform="scale(0.015625)"/>
       <path id="URWPalladioL-Roma-6f" d="M 1786 3008 
C 851 3008 205 2347 205 1391 
C 205 487 774 -128 1600 -128 
C 2586 -128 3290 557 3290 1520 
C 3290 2386 2662 3008 1786 3008 
z
M 1670 2796 
C 2259 2796 2694 2155 2694 1282 
C 2694 545 2368 83 1850 83 
C 1222 83 800 699 800 1609 
C 800 2379 1107 2796 1670 2796 
z
" transform="scale(0.015625)"/>
       <path id="URWPalladioL-Roma-67" d="M 3322 2452 
L 3482 2713 
L 3456 2790 
L 2547 2764 
C 2310 2956 2080 3033 1766 3033 
C 1485 3033 1158 2944 896 2790 
C 538 2586 352 2274 352 1885 
C 352 1413 646 1087 1120 1036 
L 614 638 
C 550 540 518 455 518 358 
C 518 179 634 76 941 -13 
L 384 -315 
C 294 -367 205 -604 205 -804 
C 205 -1388 774 -1792 1587 -1792 
C 2554 -1792 3315 -1183 3315 -399 
C 3315 64 3008 384 2560 384 
L 1536 384 
C 1203 384 1050 462 1050 638 
C 1050 723 1101 795 1267 939 
C 1306 972 1318 985 1344 1011 
C 1408 1004 1446 998 1498 998 
C 1773 998 2112 1119 2374 1305 
C 2662 1515 2803 1770 2803 2108 
C 2803 2235 2784 2318 2733 2452 
L 3322 2452 
z
M 1536 2816 
C 1971 2816 2266 2458 2266 1917 
C 2266 1502 1997 1216 1606 1216 
C 1178 1216 890 1547 890 2038 
C 890 2529 1126 2816 1536 2816 
z
M 1837 -64 
C 2560 -64 2810 -212 2810 -630 
C 2810 -1183 2304 -1594 1632 -1594 
C 1075 -1594 691 -1266 691 -791 
C 691 -502 858 -238 1114 -129 
C 1216 -77 1395 -64 1837 -64 
z
" transform="scale(0.015625)"/>
       <path id="CMR10-28" d="M 2118 -1536 
C 2118 -1517 2118 -1504 2010 -1396 
C 1210 -589 1005 620 1005 1600 
C 1005 2713 1248 3827 2035 4627 
C 2118 4704 2118 4716 2118 4736 
C 2118 4780 2093 4800 2054 4800 
C 1990 4800 1414 4365 1037 3552 
C 710 2848 634 2137 634 1600 
C 634 1100 704 326 1056 -397 
C 1440 -1184 1990 -1600 2054 -1600 
C 2093 -1600 2118 -1581 2118 -1536 
z
" transform="scale(0.015625)"/>
       <path id="CMR10-29" d="M 1850 1600 
C 1850 2099 1779 2873 1427 3597 
C 1043 4384 493 4800 429 4800 
C 390 4800 365 4774 365 4736 
C 365 4716 365 4704 486 4589 
C 1114 3955 1478 2937 1478 1600 
C 1478 505 1242 -621 448 -1428 
C 365 -1504 365 -1517 365 -1536 
C 365 -1575 390 -1600 429 -1600 
C 493 -1600 1069 -1165 1446 -352 
C 1773 352 1850 1062 1850 1600 
z
" transform="scale(0.015625)"/>
      </defs>
      <use xlink:href="#URWPalladioL-Ital-79" transform="scale(0.996264)"/>
      <use xlink:href="#CMR10-3d" transform="translate(79.977748 0)scale(1.038107)"/>
      <use xlink:href="#URWPalladioL-Roma-6c" transform="translate(189.593377 0)scale(0.996264)"/>
      <use xlink:href="#URWPalladioL-Roma-6f" transform="translate(218.583738 0)scale(0.996264)"/>
      <use xlink:href="#URWPalladioL-Roma-67" transform="translate(272.979318 0)scale(0.996264)"/>
      <use xlink:href="#URWPalladioL-Roma-32" transform="translate(328.370995 -31.879901)scale(0.757155)"/>
      <use xlink:href="#CMR10-28" transform="translate(367.972186 0)scale(1.038107)"/>
      <use xlink:href="#URWPalladioL-Ital-78" transform="translate(412.405567 0)scale(0.996264)"/>
      <use xlink:href="#CMR10-29" transform="translate(465.704703 0)scale(1.038107)"/>
     </g>
    </g>
    <g id="line2d_31">
     <path d="M 309.244456 47.939376 
L 316.244456 47.939376 
L 323.244456 47.939376 
" style="fill: none; stroke: #dc2830; stroke-width: 2; stroke-linecap: round"/>
    </g>
    <g id="text_17">
     <!-- $y = \ln(x)$ -->
     <g style="fill: #dc2830" transform="translate(334.444456 52.839376)scale(0.14 -0.14)">
      <defs>
       <path id="URWPalladioL-Roma-6e" d="M 2624 0 
C 3014 0 3021 0 3130 0 
C 3219 19 3219 19 3661 0 
L 3661 192 
L 3398 211 
C 3181 223 3162 262 3162 670 
L 3162 1902 
C 3162 2649 2810 3014 2093 3014 
C 1856 3014 1722 2969 1587 2854 
L 1101 2432 
L 1101 2988 
L 1043 3008 
C 717 2873 384 2784 45 2746 
L 45 2568 
L 282 2568 
C 538 2568 563 2523 563 2103 
L 563 669 
C 563 268 544 223 326 211 
L 38 192 
L 38 0 
C 474 -7 646 0 832 0 
C 1018 19 1190 12 1626 0 
L 1626 192 
L 1338 211 
C 1120 223 1101 268 1101 670 
L 1101 2023 
C 1101 2311 1523 2624 1914 2624 
C 2342 2624 2624 2304 2624 1813 
L 2624 0 
z
" transform="scale(0.015625)"/>
      </defs>
      <use xlink:href="#URWPalladioL-Ital-79" transform="scale(0.996264)"/>
      <use xlink:href="#CMR10-3d" transform="translate(79.977748 0)scale(1.038107)"/>
      <use xlink:href="#URWPalladioL-Roma-6c" transform="translate(189.593377 0)scale(0.996264)"/>
      <use xlink:href="#URWPalladioL-Roma-6e" transform="translate(218.583738 0)scale(0.996264)"/>
      <use xlink:href="#CMR10-28" transform="translate(277.811098 0)scale(1.038107)"/>
      <use xlink:href="#URWPalladioL-Ital-78" transform="translate(322.244479 0)scale(0.996264)"/>
      <use xlink:href="#CMR10-29" transform="translate(375.543616 0)scale(1.038107)"/>
     </g>
    </g>
    <g id="line2d_32">
     <path d="M 309.244456 69.772667 
L 316.244456 69.772667 
L 323.244456 69.772667 
" style="fill: none; stroke: #f2aa00; stroke-width: 2; stroke-linecap: round"/>
    </g>
    <g id="text_18">
     <!-- $y = \log_{10}(x)$ -->
     <g style="fill: #f2aa00" transform="translate(334.444456 74.672667)scale(0.14 -0.14)">
      <use xlink:href="#URWPalladioL-Ital-79" transform="scale(0.996264)"/>
      <use xlink:href="#CMR10-3d" transform="translate(79.977748 0)scale(1.038107)"/>
      <use xlink:href="#URWPalladioL-Roma-6c" transform="translate(189.593377 0)scale(0.996264)"/>
      <use xlink:href="#URWPalladioL-Roma-6f" transform="translate(218.583738 0)scale(0.996264)"/>
      <use xlink:href="#URWPalladioL-Roma-67" transform="translate(272.979318 0)scale(0.996264)"/>
      <use xlink:href="#URWPalladioL-Roma-31" transform="translate(328.370995 -31.879901)scale(0.757155)"/>
      <use xlink:href="#URWPalladioL-Roma-30" transform="translate(366.228754 -31.879901)scale(0.757155)"/>
      <use xlink:href="#CMR10-28" transform="translate(405.829944 0)scale(1.038107)"/>
      <use xlink:href="#URWPalladioL-Ital-78" transform="translate(450.263325 0)scale(0.996264)"/>
      <use xlink:href="#CMR10-29" transform="translate(503.562462 0)scale(1.038107)"/>
     </g>
    </g>
   </g>
  </g>
 </g>
 <defs>
  <clipPath id="p75a52d1705">
   <rect x="45.599008" y="7.2" width="251.045448" height="92.661659"/>
  </clipPath>
 </defs>
</svg>