<?xml version="1.0" encoding="utf-8" standalone="no"?>
<!DOCTYPE svg PUBLIC "-//W3C//DTD SVG 1.1//EN"
  "http://www.w3.org/Graphics/SVG/1.1/DTD/svg11.dtd">
<svg xmlns:xlink="http://www.w3.org/1999/xlink" width="584.39952pt" height="224.39952pt" viewBox="0 0 584.39952 224.39952" xmlns="http://www.w3.org/2000/svg" version="1.1">
 <metadata>
  <rdf:RDF xmlns:dc="http://purl.org/dc/elements/1.1/" xmlns:cc="http://creativecommons.org/ns#" xmlns:rdf="http://www.w3.org/1999/02/22-rdf-syntax-ns#">
   <cc:Work>
    <dc:type rdf:resource="http://purl.org/dc/dcmitype/StillImage"/>
    <dc:date>2023-04-20T15:10:48.149112</dc:date>
    <dc:format>image/svg+xml</dc:format>
    <dc:creator>
     <cc:Agent>
      <dc:title>Matplotlib v3.5.2, https://matplotlib.org/</dc:title>
     </cc:Agent>
    </dc:creator>
   </cc:Work>
  </rdf:RDF>
 </metadata>
 <defs>
  <style type="text/css">*{stroke-linejoin: round; stroke-linecap: butt}</style>
 </defs>
 <g id="figure_1">
  <g id="patch_1">
   <path d="M 0 224.39952 
L 584.39952 224.39952 
L 584.39952 -0 
L 0 -0 
L 0 224.39952 
z
" style="fill: none"/>
  </g>
  <g id="axes_1">
   <g id="patch_2">
    <path d="M 64.044699 171.861659 
L 577.19952 171.861659 
L 577.19952 7.2 
L 64.044699 7.2 
L 64.044699 171.861659 
z
" style="fill: none"/>
   </g>
   <g id="patch_3">
    <path d="M 64.044699 171.861659 
L 64.044699 7.2 
L 343.312629 7.2 
L 343.312629 171.861659 
z
" clip-path="url(#pca5eb409e1)" style="fill: #0271ae; opacity: 0.75; stroke: #0271ae; stroke-width: 0.5; stroke-linejoin: miter"/>
   </g>
   <g id="patch_4">
    <path d="M 343.312629 171.861659 
L 343.312629 7.2 
L 357.276025 7.2 
L 357.276025 171.861659 
z
" clip-path="url(#pca5eb409e1)" style="fill: #6e3b87; opacity: 0.75; stroke: #6e3b87; stroke-width: 0.5; stroke-linejoin: miter"/>
   </g>
   <g id="patch_5">
    <path d="M 357.276025 171.861659 
L 357.276025 7.2 
L 577.19952 7.2 
L 577.19952 171.861659 
z
" clip-path="url(#pca5eb409e1)" style="fill: #dc2830; opacity: 0.75; stroke: #dc2830; stroke-width: 0.5; stroke-linejoin: miter"/>
   </g>
   <g id="line2d_1">
    <path d="M 64.044699 11.870015 
L 577.19952 11.870015 
" clip-path="url(#pca5eb409e1)" style="fill: none; stroke-dasharray: 7.4,3.2; stroke-dashoffset: 0; stroke: #ffffff; stroke-opacity: 0.8; stroke-width: 2; stroke-linejoin: bevel"/>
   </g>
   <g id="line2d_2">
    <path d="M 64.044699 61.556935 
L 577.19952 61.556935 
" clip-path="url(#pca5eb409e1)" style="fill: none; stroke-dasharray: 7.4,3.2; stroke-dashoffset: 0; stroke: #ffffff; stroke-opacity: 0.8; stroke-width: 2; stroke-linejoin: bevel"/>
   </g>
   <g id="line2d_3">
    <path d="M 64.044699 22.128238 
L 577.19952 22.128238 
" clip-path="url(#pca5eb409e1)" style="fill: none; stroke-dasharray: 7.4,3.2; stroke-dashoffset: 0; stroke: #ffffff; stroke-opacity: 0.8; stroke-width: 2; stroke-linejoin: bevel"/>
   </g>
   <g id="matplotlib.axis_1">
    <g id="xtick_1">
     <g id="line2d_4">
      <path d="M 64.044699 171.861659 
L 64.044699 7.2 
" clip-path="url(#pca5eb409e1)" style="fill: none; stroke: #000000; stroke-opacity: 0.2; stroke-width: 0.5; stroke-linecap: round"/>
     </g>
     <g id="line2d_5">
      <defs>
       <path id="mf66e0a7aa4" d="M 0 0 
L 0 3.5 
" style="stroke: #000000; stroke-opacity: 0.2; stroke-width: 0.5"/>
      </defs>
      <g>
       <use xlink:href="#mf66e0a7aa4" x="64.044699" y="171.861659" style="fill-opacity: 0.2; stroke: #000000; stroke-opacity: 0.2; stroke-width: 0.5"/>
      </g>
     </g>
     <g id="text_1">
      <!-- $\mathdefault{0}$ -->
      <g transform="translate(60.557775 197.341188)scale(0.14 -0.14)">
       <defs>
        <path id="URWPalladioL-Roma-30" d="M 1683 4416 
C 691 4416 186 3628 186 2076 
C 186 1326 320 679 544 365 
C 768 51 1126 -128 1523 -128 
C 2490 -128 2976 704 2976 2345 
C 2976 3749 2560 4416 1683 4416 
z
M 1568 4191 
C 2189 4191 2438 3563 2438 2025 
C 2438 660 2195 96 1606 96 
C 986 96 723 743 723 2307 
C 723 3660 960 4191 1568 4191 
z
" transform="scale(0.015625)"/>
       </defs>
       <use xlink:href="#URWPalladioL-Roma-30" transform="scale(0.996264)"/>
      </g>
     </g>
    </g>
    <g id="xtick_2">
     <g id="line2d_6">
      <path d="M 157.134009 171.861659 
L 157.134009 7.2 
" clip-path="url(#pca5eb409e1)" style="fill: none; stroke: #000000; stroke-opacity: 0.2; stroke-width: 0.5; stroke-linecap: round"/>
     </g>
     <g id="line2d_7">
      <g>
       <use xlink:href="#mf66e0a7aa4" x="157.134009" y="171.861659" style="fill-opacity: 0.2; stroke: #000000; stroke-opacity: 0.2; stroke-width: 0.5"/>
      </g>
     </g>
     <g id="text_2">
      <!-- $\mathdefault{2000}$ -->
      <g transform="translate(143.186312 197.341188)scale(0.14 -0.14)">
       <defs>
        <path id="URWPalladioL-Roma-32" d="M 102 166 
L 102 0 
C 1299 0 1299 0 1530 0 
C 1760 19 1760 19 2995 0 
C 2982 134 2982 198 2982 287 
C 2982 370 2982 434 2995 574 
C 2259 542 1965 536 781 510 
L 1946 1741 
C 2566 2398 2758 2749 2758 3228 
C 2758 3961 2259 4416 1446 4416 
C 986 4416 672 4287 358 3967 
L 250 3100 
L 435 3100 
L 518 3394 
C 621 3763 851 3923 1280 3923 
C 1830 3923 2182 3578 2182 3036 
C 2182 2558 1914 2086 1190 1320 
L 102 166 
z
" transform="scale(0.015625)"/>
       </defs>
       <use xlink:href="#URWPalladioL-Roma-32" transform="scale(0.996264)"/>
       <use xlink:href="#URWPalladioL-Roma-30" transform="translate(49.8132 0)scale(0.996264)"/>
       <use xlink:href="#URWPalladioL-Roma-30" transform="translate(99.626401 0)scale(0.996264)"/>
       <use xlink:href="#URWPalladioL-Roma-30" transform="translate(149.439601 0)scale(0.996264)"/>
      </g>
     </g>
    </g>
    <g id="xtick_3">
     <g id="line2d_8">
      <path d="M 250.223319 171.861659 
L 250.223319 7.2 
" clip-path="url(#pca5eb409e1)" style="fill: none; stroke: #000000; stroke-opacity: 0.2; stroke-width: 0.5; stroke-linecap: round"/>
     </g>
     <g id="line2d_9">
      <g>
       <use xlink:href="#mf66e0a7aa4" x="250.223319" y="171.861659" style="fill-opacity: 0.2; stroke: #000000; stroke-opacity: 0.2; stroke-width: 0.5"/>
      </g>
     </g>
     <g id="text_3">
      <!-- $\mathdefault{4000}$ -->
      <g transform="translate(236.275622 197.341188)scale(0.14 -0.14)">
       <defs>
        <path id="URWPalladioL-Roma-34" d="M 1792 1152 
L 1792 684 
C 1792 310 1722 223 1408 210 
L 1011 192 
L 1011 0 
C 1862 0 1862 0 2016 0 
C 2170 19 2170 19 3021 0 
L 3021 192 
L 2714 210 
C 2400 229 2330 310 2330 684 
L 2330 1152 
C 2707 1152 2842 1145 3021 1127 
L 3021 1580 
C 2720 1555 2598 1555 2502 1561 
L 2483 1561 
L 2330 1561 
L 2330 2445 
C 2330 3576 2342 4122 2374 4383 
L 2298 4416 
L 1824 4243 
L 13 1299 
L 83 1152 
L 1792 1152 
z
M 1792 1561 
L 416 1561 
L 1792 3798 
L 1792 1561 
z
" transform="scale(0.015625)"/>
       </defs>
       <use xlink:href="#URWPalladioL-Roma-34" transform="scale(0.996264)"/>
       <use xlink:href="#URWPalladioL-Roma-30" transform="translate(49.8132 0)scale(0.996264)"/>
       <use xlink:href="#URWPalladioL-Roma-30" transform="translate(99.626401 0)scale(0.996264)"/>
       <use xlink:href="#URWPalladioL-Roma-30" transform="translate(149.439601 0)scale(0.996264)"/>
      </g>
     </g>
    </g>
    <g id="xtick_4">
     <g id="line2d_10">
      <path d="M 343.312629 171.861659 
L 343.312629 7.2 
" clip-path="url(#pca5eb409e1)" style="fill: none; stroke: #000000; stroke-opacity: 0.2; stroke-width: 0.5; stroke-linecap: round"/>
     </g>
     <g id="line2d_11">
      <g>
       <use xlink:href="#mf66e0a7aa4" x="343.312629" y="171.861659" style="fill-opacity: 0.2; stroke: #000000; stroke-opacity: 0.2; stroke-width: 0.5"/>
      </g>
     </g>
     <g id="text_4">
      <!-- $\mathdefault{6000}$ -->
      <g transform="translate(329.364932 197.341188)scale(0.14 -0.14)">
       <defs>
        <path id="URWPalladioL-Roma-36" d="M 2662 4287 
L 2426 4396 
C 1811 4193 1549 4066 1222 3788 
C 563 3237 205 2463 205 1585 
C 205 526 717 -128 1542 -128 
C 2374 -128 2995 532 2995 1405 
C 2995 2143 2554 2624 1875 2624 
C 1555 2624 1363 2540 986 2239 
C 915 2182 909 2175 838 2124 
C 973 3275 1510 3895 2662 4237 
L 2662 4287 
z
M 1632 2239 
C 2118 2239 2445 1816 2445 1180 
C 2445 513 2118 83 1626 83 
C 1082 83 787 551 787 1411 
C 787 1636 813 1758 883 1867 
C 1024 2085 1325 2239 1632 2239 
z
" transform="scale(0.015625)"/>
       </defs>
       <use xlink:href="#URWPalladioL-Roma-36" transform="scale(0.996264)"/>
       <use xlink:href="#URWPalladioL-Roma-30" transform="translate(49.8132 0)scale(0.996264)"/>
       <use xlink:href="#URWPalladioL-Roma-30" transform="translate(99.626401 0)scale(0.996264)"/>
       <use xlink:href="#URWPalladioL-Roma-30" transform="translate(149.439601 0)scale(0.996264)"/>
      </g>
     </g>
    </g>
    <g id="xtick_5">
     <g id="line2d_12">
      <path d="M 436.401939 171.861659 
L 436.401939 7.2 
" clip-path="url(#pca5eb409e1)" style="fill: none; stroke: #000000; stroke-opacity: 0.2; stroke-width: 0.5; stroke-linecap: round"/>
     </g>
     <g id="line2d_13">
      <g>
       <use xlink:href="#mf66e0a7aa4" x="436.401939" y="171.861659" style="fill-opacity: 0.2; stroke: #000000; stroke-opacity: 0.2; stroke-width: 0.5"/>
      </g>
     </g>
     <g id="text_5">
      <!-- $\mathdefault{8000}$ -->
      <g transform="translate(422.454242 197.341188)scale(0.14 -0.14)">
       <defs>
        <path id="URWPalladioL-Roma-38" d="M 1075 2211 
C 813 2089 704 2019 563 1884 
C 320 1640 192 1352 192 1019 
C 192 358 723 -128 1446 -128 
C 2278 -128 2970 525 2970 1320 
C 2970 1833 2733 2108 2003 2442 
C 2586 2839 2790 3108 2790 3493 
C 2790 4044 2336 4416 1658 4416 
C 896 4416 339 3929 339 3256 
C 339 2820 512 2576 1075 2211 
z
M 1818 1890 
C 2221 1711 2464 1397 2464 1051 
C 2464 512 2061 89 1542 89 
C 998 89 646 474 646 1070 
C 646 1538 832 1833 1306 2121 
L 1818 1890 
z
M 1427 2711 
C 1024 2910 819 3166 819 3486 
C 819 3910 1126 4198 1581 4198 
C 2048 4198 2355 3890 2355 3422 
C 2355 3057 2195 2807 1779 2538 
L 1427 2711 
z
" transform="scale(0.015625)"/>
       </defs>
       <use xlink:href="#URWPalladioL-Roma-38" transform="scale(0.996264)"/>
       <use xlink:href="#URWPalladioL-Roma-30" transform="translate(49.8132 0)scale(0.996264)"/>
       <use xlink:href="#URWPalladioL-Roma-30" transform="translate(99.626401 0)scale(0.996264)"/>
       <use xlink:href="#URWPalladioL-Roma-30" transform="translate(149.439601 0)scale(0.996264)"/>
      </g>
     </g>
    </g>
    <g id="xtick_6">
     <g id="line2d_14">
      <path d="M 529.491249 171.861659 
L 529.491249 7.2 
" clip-path="url(#pca5eb409e1)" style="fill: none; stroke: #000000; stroke-opacity: 0.2; stroke-width: 0.5; stroke-linecap: round"/>
     </g>
     <g id="line2d_15">
      <g>
       <use xlink:href="#mf66e0a7aa4" x="529.491249" y="171.861659" style="fill-opacity: 0.2; stroke: #000000; stroke-opacity: 0.2; stroke-width: 0.5"/>
      </g>
     </g>
     <g id="text_6">
      <!-- $\mathdefault{10000}$ -->
      <g transform="translate(512.056628 197.341188)scale(0.14 -0.14)">
       <defs>
        <path id="URWPalladioL-Roma-31" d="M 429 3571 
L 493 3571 
L 1318 3942 
C 1325 3949 1331 3949 1338 3949 
C 1376 3949 1389 3891 1389 3737 
L 1389 633 
C 1389 300 1318 230 973 211 
L 614 192 
L 614 0 
C 1600 0 1600 0 1670 0 
C 1754 0 1894 0 2112 -7 
C 2189 6 2413 6 2675 0 
L 2675 192 
L 2342 211 
C 1990 229 1926 299 1926 628 
L 1926 4383 
L 1837 4416 
C 1421 4199 966 4009 384 3807 
L 429 3571 
z
" transform="scale(0.015625)"/>
       </defs>
       <use xlink:href="#URWPalladioL-Roma-31" transform="scale(0.996264)"/>
       <use xlink:href="#URWPalladioL-Roma-30" transform="translate(49.8132 0)scale(0.996264)"/>
       <use xlink:href="#URWPalladioL-Roma-30" transform="translate(99.626401 0)scale(0.996264)"/>
       <use xlink:href="#URWPalladioL-Roma-30" transform="translate(149.439601 0)scale(0.996264)"/>
       <use xlink:href="#URWPalladioL-Roma-30" transform="translate(199.252802 0)scale(0.996264)"/>
      </g>
     </g>
    </g>
    <g id="text_7">
     <!-- Frequency [Hz] -->
     <g transform="translate(279.472815 213.828236)scale(0.12 -0.12)">
      <defs>
       <path id="URWPalladioL-Roma-46" d="M 1382 2092 
C 1562 2105 1754 2112 2042 2112 
C 2515 2112 2688 2092 2803 2035 
L 2854 1875 
L 2886 1497 
L 3078 1497 
C 3059 2092 3059 2092 3059 2208 
C 3059 2310 3059 2310 3078 2946 
L 2886 2946 
L 2854 2615 
C 2848 2558 2829 2501 2803 2450 
C 2688 2399 2509 2380 2086 2380 
C 1818 2380 1600 2387 1382 2399 
L 1382 4096 
C 1574 4140 1690 4147 2067 4147 
C 2374 4147 2733 4108 2931 4058 
C 3085 4020 3104 3988 3104 3842 
L 3104 3429 
L 3328 3429 
C 3328 3810 3360 4115 3430 4396 
C 3117 4409 2925 4416 2650 4416 
L 1965 4409 
C 1651 4396 1427 4396 1267 4396 
C 1082 4396 1082 4396 141 4416 
L 141 4223 
L 448 4204 
C 742 4185 774 4135 774 3633 
L 774 782 
C 774 280 742 230 448 211 
L 141 192 
L 141 0 
C 518 -7 742 0 1075 0 
C 1408 19 1638 12 2016 0 
L 2016 192 
L 1709 211 
C 1414 230 1382 281 1382 787 
L 1382 2092 
z
" transform="scale(0.015625)"/>
       <path id="URWPalladioL-Roma-72" d="M 147 2579 
L 384 2579 
C 640 2579 666 2534 666 2112 
L 666 672 
C 666 268 646 224 429 211 
L 134 192 
L 134 0 
C 595 -7 762 0 922 0 
C 1050 19 1050 19 1837 0 
L 1837 192 
L 1504 211 
C 1216 230 1203 249 1203 669 
L 1203 1763 
C 1203 2145 1459 2463 1773 2463 
C 1965 2463 2099 2374 2202 2171 
L 2336 2171 
L 2394 2937 
C 2323 2982 2208 3008 2093 3008 
C 1901 3008 1696 2905 1562 2745 
L 1203 2324 
L 1203 2982 
L 1146 3008 
C 819 2873 486 2783 147 2745 
L 147 2579 
z
" transform="scale(0.015625)"/>
       <path id="URWPalladioL-Roma-65" d="M 2797 447 
L 2714 511 
C 2304 268 2157 211 1882 211 
C 1466 211 1120 396 941 710 
C 819 921 774 1100 762 1472 
L 1696 1472 
C 2138 1472 2413 1491 2854 1561 
C 2861 1651 2867 1708 2867 1786 
C 2867 2526 2394 3008 1677 3008 
C 1440 3008 1165 2924 902 2771 
C 378 2468 166 2069 166 1401 
C 166 998 262 652 435 409 
C 691 70 1120 -128 1600 -128 
C 1837 -128 2074 -77 2336 38 
C 2509 108 2643 192 2669 230 
L 2797 447 
z
M 2298 1708 
C 1965 1696 1811 1689 1581 1689 
C 1286 1689 1120 1696 774 1728 
C 774 2030 800 2172 883 2339 
C 1018 2623 1293 2796 1600 2796 
C 1811 2796 1978 2713 2093 2539 
C 2234 2326 2278 2140 2298 1708 
z
" transform="scale(0.015625)"/>
       <path id="URWPalladioL-Roma-71" d="M 2515 434 
L 2515 -1118 
C 2515 -1523 2490 -1568 2278 -1581 
L 1907 -1600 
L 1907 -1792 
C 2650 -1773 2650 -1773 2797 -1773 
C 2950 -1773 3130 -1780 3584 -1792 
L 3584 -1600 
L 3290 -1581 
C 3072 -1568 3053 -1523 3053 -1118 
L 3053 2043 
C 3053 2439 3091 2681 3200 2924 
L 3078 2995 
L 2765 2796 
C 2438 2943 2163 3008 1888 3008 
C 1702 3008 1478 2956 1382 2899 
L 845 2553 
C 435 2292 224 1870 224 1315 
C 224 479 730 -64 1523 -64 
C 1658 -64 1766 -39 1850 12 
L 2515 434 
z
M 2515 779 
C 2515 690 2362 524 2189 428 
C 2035 345 1888 300 1734 300 
C 1171 300 781 824 781 1596 
C 781 2298 1139 2707 1754 2707 
C 2067 2707 2291 2630 2515 2445 
L 2515 779 
z
" transform="scale(0.015625)"/>
       <path id="URWPalladioL-Roma-75" d="M 3219 2982 
L 3162 3008 
C 2835 2873 2502 2784 2163 2745 
L 2163 2567 
L 2400 2567 
C 2656 2567 2682 2522 2682 2101 
L 2682 1060 
C 2682 920 2592 741 2445 594 
C 2266 415 2061 326 1811 326 
C 1587 326 1408 396 1306 517 
C 1216 620 1171 817 1171 1098 
L 1171 2982 
L 1114 3008 
C 787 2873 454 2784 115 2745 
L 115 2567 
L 352 2567 
C 608 2567 634 2522 634 2101 
L 634 1028 
C 634 581 672 383 787 224 
C 928 32 1171 -64 1536 -64 
C 1824 -58 2080 32 2253 192 
L 2682 588 
C 2682 403 2675 300 2656 0 
C 3085 0 3091 0 3187 0 
C 3277 19 3277 19 3718 0 
L 3718 192 
L 3456 211 
C 3238 224 3219 262 3219 672 
L 3219 2982 
z
" transform="scale(0.015625)"/>
       <path id="URWPalladioL-Roma-6e" d="M 2624 0 
C 3014 0 3021 0 3130 0 
C 3219 19 3219 19 3661 0 
L 3661 192 
L 3398 211 
C 3181 223 3162 262 3162 670 
L 3162 1902 
C 3162 2649 2810 3014 2093 3014 
C 1856 3014 1722 2969 1587 2854 
L 1101 2432 
L 1101 2988 
L 1043 3008 
C 717 2873 384 2784 45 2746 
L 45 2568 
L 282 2568 
C 538 2568 563 2523 563 2103 
L 563 669 
C 563 268 544 223 326 211 
L 38 192 
L 38 0 
C 474 -7 646 0 832 0 
C 1018 19 1190 12 1626 0 
L 1626 192 
L 1338 211 
C 1120 223 1101 268 1101 670 
L 1101 2023 
C 1101 2311 1523 2624 1914 2624 
C 2342 2624 2624 2304 2624 1813 
L 2624 0 
z
" transform="scale(0.015625)"/>
       <path id="URWPalladioL-Roma-63" d="M 2554 1995 
C 2554 2290 2586 2553 2643 2783 
C 2387 2937 2163 3008 1901 3008 
C 1594 3008 1235 2886 851 2643 
C 403 2360 166 1911 166 1347 
C 166 480 774 -128 1632 -128 
C 1965 -128 2445 -7 2509 89 
L 2643 294 
L 2579 390 
C 2342 262 2138 204 1907 204 
C 1197 204 730 756 730 1603 
C 730 2290 1050 2675 1626 2675 
C 1907 2675 2214 2547 2330 2386 
L 2374 1995 
L 2554 1995 
z
" transform="scale(0.015625)"/>
       <path id="URWPalladioL-Roma-79" d="M 1901 569 
C 1760 812 1690 960 1574 1273 
L 1165 2349 
C 1126 2457 1101 2553 1101 2617 
C 1101 2707 1171 2758 1318 2765 
L 1562 2777 
L 1562 2957 
C 941 2937 941 2937 819 2937 
C 698 2937 698 2937 77 2957 
L 77 2777 
L 192 2765 
C 352 2745 429 2675 525 2451 
L 1222 774 
C 1402 339 1466 185 1581 -135 
L 1434 -525 
C 1229 -1063 979 -1364 736 -1364 
C 634 -1364 518 -1312 410 -1216 
L 326 -1216 
L 173 -1696 
C 294 -1760 397 -1792 518 -1792 
C 947 -1792 1222 -1562 1466 -1005 
L 2765 1990 
C 3021 2573 3142 2745 3302 2765 
L 3482 2777 
L 3482 2957 
C 2976 2937 2976 2937 2874 2937 
C 2771 2937 2771 2937 2266 2957 
L 2266 2777 
L 2432 2765 
C 2611 2752 2701 2694 2701 2605 
C 2701 2560 2688 2502 2662 2438 
L 1901 569 
z
" transform="scale(0.015625)"/>
       <path id="URWPalladioL-Roma-5b" d="M 563 -1178 
C 1018 -1166 1030 -1166 1184 -1166 
C 1338 -1166 1370 -1166 1805 -1178 
L 1843 -1140 
L 1843 -974 
L 1818 -942 
L 1574 -942 
C 1402 -942 1261 -903 1184 -839 
C 1126 -782 1107 -692 1107 -481 
C 1107 -474 1107 -340 1101 -148 
L 1101 89 
L 1101 3379 
L 1101 3615 
C 1107 3795 1107 3935 1107 3942 
C 1107 4153 1126 4249 1184 4307 
C 1261 4371 1402 4409 1574 4409 
L 1818 4409 
L 1843 4441 
L 1843 4608 
L 1805 4646 
C 1357 4633 1338 4633 1184 4633 
C 1037 4633 1005 4633 563 4646 
L 506 4563 
C 544 4403 557 4191 557 3699 
C 557 3603 557 3526 563 3462 
L 563 3379 
L 563 89 
L 563 6 
C 557 -97 557 -103 557 -212 
L 557 -282 
C 557 -718 544 -897 506 -1095 
L 563 -1178 
z
" transform="scale(0.015625)"/>
       <path id="URWPalladioL-Roma-48" d="M 3942 787 
C 3942 281 3910 230 3616 211 
L 3309 192 
L 3309 0 
C 3686 -7 3910 0 4243 0 
C 4576 19 4806 12 5184 0 
L 5184 192 
L 4877 211 
C 4582 230 4550 281 4550 783 
L 4550 3635 
C 4550 4135 4582 4186 4877 4205 
L 5184 4223 
L 5184 4416 
C 4717 4396 4576 4396 4243 4396 
C 3923 4396 3770 4403 3309 4416 
L 3309 4223 
L 3616 4205 
C 3910 4186 3942 4135 3942 3635 
L 3942 2508 
C 3808 2502 3674 2496 3411 2496 
L 1914 2496 
C 1651 2496 1510 2502 1382 2508 
L 1382 3635 
C 1382 4135 1414 4186 1709 4205 
L 2016 4223 
L 2016 4416 
C 1549 4396 1408 4396 1075 4396 
C 755 4396 602 4403 141 4416 
L 141 4223 
L 448 4205 
C 742 4186 774 4135 774 3635 
L 774 783 
C 774 281 742 230 448 211 
L 141 192 
L 141 0 
C 518 -7 742 0 1075 0 
C 1408 19 1638 12 2016 0 
L 2016 192 
L 1709 211 
C 1414 230 1382 281 1382 783 
L 1382 2201 
C 1555 2214 1658 2214 1914 2214 
L 3411 2214 
C 3667 2214 3770 2214 3942 2201 
L 3942 787 
z
" transform="scale(0.015625)"/>
       <path id="URWPalladioL-Roma-7a" d="M 2912 2771 
L 2912 2963 
C 2464 2950 2272 2944 2029 2944 
L 442 2963 
C 429 2637 422 2560 384 2121 
L 576 2121 
L 653 2554 
C 678 2688 794 2719 1267 2719 
L 2182 2719 
C 2048 2509 1939 2363 1766 2146 
L 678 796 
C 525 611 435 503 102 128 
L 141 0 
C 806 0 845 0 1120 0 
L 2886 0 
C 2886 147 2899 300 2944 608 
L 2982 908 
L 2790 908 
L 2675 403 
C 2650 268 2381 224 1766 224 
L 902 224 
L 2912 2771 
z
" transform="scale(0.015625)"/>
       <path id="URWPalladioL-Roma-5d" d="M 1568 4646 
C 1114 4633 1094 4633 947 4633 
C 794 4633 762 4633 326 4646 
L 288 4608 
L 288 4441 
L 314 4409 
L 557 4409 
C 730 4409 864 4371 941 4307 
C 1005 4249 1024 4159 1024 3942 
C 1024 3923 1024 3795 1030 3615 
L 1030 3379 
L 1030 89 
L 1030 -148 
C 1024 -334 1024 -449 1024 -468 
C 1024 -686 1005 -782 941 -839 
C 864 -903 730 -942 557 -942 
L 314 -942 
L 288 -974 
L 288 -1140 
L 326 -1178 
C 774 -1166 787 -1166 947 -1166 
C 1094 -1166 1126 -1166 1568 -1178 
L 1626 -1095 
C 1587 -942 1581 -743 1574 -250 
C 1574 -161 1574 -78 1568 6 
L 1568 89 
L 1568 3379 
L 1568 3462 
C 1574 3532 1574 3615 1574 3705 
C 1574 4198 1587 4409 1626 4563 
L 1568 4646 
z
" transform="scale(0.015625)"/>
      </defs>
      <use xlink:href="#URWPalladioL-Roma-46" transform="scale(0.996264)"/>
      <use xlink:href="#URWPalladioL-Roma-72" transform="translate(55.391677 0)scale(0.996264)"/>
      <use xlink:href="#URWPalladioL-Roma-65" transform="translate(92.950994 0)scale(0.996264)"/>
      <use xlink:href="#URWPalladioL-Roma-71" transform="translate(140.671289 0)scale(0.996264)"/>
      <use xlink:href="#URWPalladioL-Roma-75" transform="translate(196.461922 0)scale(0.996264)"/>
      <use xlink:href="#URWPalladioL-Roma-65" transform="translate(256.535657 0)scale(0.996264)"/>
      <use xlink:href="#URWPalladioL-Roma-6e" transform="translate(304.255952 0)scale(0.996264)"/>
      <use xlink:href="#URWPalladioL-Roma-63" transform="translate(362.238012 0)scale(0.996264)"/>
      <use xlink:href="#URWPalladioL-Roma-79" transform="translate(406.471581 0)scale(0.996264)"/>
      <use xlink:href="#URWPalladioL-Roma-5b" transform="translate(486.769858 0)scale(0.996264)"/>
      <use xlink:href="#URWPalladioL-Roma-48" transform="translate(519.945088 0)scale(0.996264)"/>
      <use xlink:href="#URWPalladioL-Roma-7a" transform="translate(602.833749 0)scale(0.996264)"/>
      <use xlink:href="#URWPalladioL-Roma-5d" transform="translate(652.64695 0)scale(0.996264)"/>
     </g>
    </g>
   </g>
   <g id="matplotlib.axis_2">
    <g id="ytick_1">
     <g id="line2d_16">
      <path d="M 64.044699 140.793421 
L 577.19952 140.793421 
" clip-path="url(#pca5eb409e1)" style="fill: none; stroke: #000000; stroke-opacity: 0.2; stroke-width: 0.5; stroke-linecap: round"/>
     </g>
     <g id="line2d_17">
      <defs>
       <path id="m81e95f2ba4" d="M 0 0 
L -3.5 0 
" style="stroke: #000000; stroke-opacity: 0.2; stroke-width: 0.5"/>
      </defs>
      <g>
       <use xlink:href="#m81e95f2ba4" x="64.044699" y="140.793421" style="fill-opacity: 0.2; stroke: #000000; stroke-opacity: 0.2; stroke-width: 0.5"/>
      </g>
     </g>
     <g id="text_8">
      <!-- $\mathdefault{−40}$ -->
      <g transform="translate(23.12516 145.783186)scale(0.14 -0.14)">
       <defs>
        <path id="CMSY10-0" d="M 4218 1472 
C 4326 1472 4442 1472 4442 1600 
C 4442 1728 4326 1728 4218 1728 
L 755 1728 
C 646 1728 531 1728 531 1600 
C 531 1472 646 1472 755 1472 
L 4218 1472 
z
" transform="scale(0.015625)"/>
       </defs>
       <use xlink:href="#CMSY10-0" transform="scale(1.038107)"/>
       <use xlink:href="#URWPalladioL-Roma-34" transform="translate(81.941696 0)scale(0.996264)"/>
       <use xlink:href="#URWPalladioL-Roma-30" transform="translate(131.754897 0)scale(0.996264)"/>
      </g>
     </g>
    </g>
    <g id="ytick_2">
     <g id="line2d_18">
      <path d="M 64.044699 78.656946 
L 577.19952 78.656946 
" clip-path="url(#pca5eb409e1)" style="fill: none; stroke: #000000; stroke-opacity: 0.2; stroke-width: 0.5; stroke-linecap: round"/>
     </g>
     <g id="line2d_19">
      <g>
       <use xlink:href="#m81e95f2ba4" x="64.044699" y="78.656946" style="fill-opacity: 0.2; stroke: #000000; stroke-opacity: 0.2; stroke-width: 0.5"/>
      </g>
     </g>
     <g id="text_9">
      <!-- $\mathdefault{−20}$ -->
      <g transform="translate(23.12516 83.646711)scale(0.14 -0.14)">
       <use xlink:href="#CMSY10-0" transform="scale(1.038107)"/>
       <use xlink:href="#URWPalladioL-Roma-32" transform="translate(81.941696 0)scale(0.996264)"/>
       <use xlink:href="#URWPalladioL-Roma-30" transform="translate(131.754897 0)scale(0.996264)"/>
      </g>
     </g>
    </g>
    <g id="ytick_3">
     <g id="line2d_20">
      <path d="M 64.044699 16.520471 
L 577.19952 16.520471 
" clip-path="url(#pca5eb409e1)" style="fill: none; stroke: #000000; stroke-opacity: 0.2; stroke-width: 0.5; stroke-linecap: round"/>
     </g>
     <g id="line2d_21">
      <g>
       <use xlink:href="#m81e95f2ba4" x="64.044699" y="16.520471" style="fill-opacity: 0.2; stroke: #000000; stroke-opacity: 0.2; stroke-width: 0.5"/>
      </g>
     </g>
     <g id="text_10">
      <!-- $\mathdefault{0}$ -->
      <g transform="translate(41.570851 21.510236)scale(0.14 -0.14)">
       <use xlink:href="#URWPalladioL-Roma-30" transform="scale(0.996264)"/>
      </g>
     </g>
    </g>
    <g id="text_11">
     <!-- Response [dB] -->
     <g transform="translate(15.753876 127.434345)rotate(-90)scale(0.12 -0.12)">
      <defs>
       <path id="URWPalladioL-Roma-52" d="M 1382 4096 
C 1600 4147 1792 4172 2010 4172 
C 2675 4172 3046 3867 3046 3328 
C 3046 2744 2579 2375 1837 2375 
C 1792 2375 1734 2375 1651 2382 
L 1613 2306 
C 1683 2223 1702 2198 1779 2115 
C 1869 2014 1888 1988 1946 1912 
L 3123 344 
C 3162 293 3200 242 3238 198 
C 3283 140 3322 83 3386 0 
C 3686 0 3750 0 3821 0 
C 3878 19 3878 19 4282 0 
L 4282 192 
C 4077 211 3974 249 3891 357 
L 2438 2236 
C 2797 2325 2963 2394 3174 2541 
C 3507 2775 3686 3093 3686 3461 
C 3686 4071 3238 4416 2445 4416 
L 2342 4416 
C 1510 4396 1510 4396 1293 4396 
C 1082 4396 1082 4396 186 4416 
L 186 4223 
L 448 4204 
C 742 4185 774 4128 774 3633 
L 774 782 
C 774 280 742 230 448 211 
L 141 192 
L 141 0 
C 518 -7 742 0 1075 0 
C 1408 19 1638 12 2016 0 
L 2016 192 
L 1709 211 
C 1414 230 1382 281 1382 787 
L 1382 4096 
z
" transform="scale(0.015625)"/>
       <path id="URWPalladioL-Roma-73" d="M 262 917 
C 262 474 243 282 192 25 
C 525 -84 774 -128 1069 -128 
C 1907 -128 2502 320 2502 949 
C 2502 1148 2445 1295 2323 1423 
C 2157 1584 1946 1661 1382 1770 
C 858 1872 685 2001 685 2296 
C 685 2617 909 2796 1299 2796 
C 1728 2796 2054 2572 2054 2270 
L 2054 2123 
L 2234 2123 
C 2240 2495 2246 2649 2266 2847 
C 1926 2963 1696 3008 1434 3008 
C 691 3008 237 2655 237 2078 
C 237 1770 378 1552 672 1417 
C 845 1340 1184 1237 1619 1141 
C 1907 1077 2029 942 2029 698 
C 2029 352 1709 108 1254 108 
C 787 108 454 333 454 654 
L 454 917 
L 262 917 
z
" transform="scale(0.015625)"/>
       <path id="URWPalladioL-Roma-70" d="M 64 2566 
L 301 2566 
C 557 2566 582 2521 582 2100 
L 582 -1118 
C 582 -1523 563 -1568 346 -1581 
L 51 -1600 
L 51 -1792 
C 691 -1773 691 -1773 851 -1773 
C 1011 -1773 1011 -1773 1651 -1792 
L 1651 -1600 
L 1357 -1581 
C 1139 -1568 1120 -1523 1120 -1118 
L 1120 96 
C 1312 -20 1517 -64 1805 -64 
C 1990 -64 2157 -26 2259 38 
L 2989 511 
C 3245 677 3546 1334 3546 1743 
C 3546 2451 2957 3008 2214 3008 
C 1978 3008 1747 2943 1645 2847 
L 1120 2368 
L 1120 2982 
L 1062 3008 
C 736 2873 403 2783 64 2745 
L 64 2566 
z
M 1120 1966 
C 1120 2055 1152 2126 1235 2234 
C 1421 2470 1683 2591 2003 2591 
C 2605 2591 2989 2170 2989 1507 
C 2989 792 2560 262 1984 262 
C 1632 262 1370 377 1120 639 
L 1120 1966 
z
" transform="scale(0.015625)"/>
       <path id="URWPalladioL-Roma-6f" d="M 1786 3008 
C 851 3008 205 2347 205 1391 
C 205 487 774 -128 1600 -128 
C 2586 -128 3290 557 3290 1520 
C 3290 2386 2662 3008 1786 3008 
z
M 1670 2796 
C 2259 2796 2694 2155 2694 1282 
C 2694 545 2368 83 1850 83 
C 1222 83 800 699 800 1609 
C 800 2379 1107 2796 1670 2796 
z
" transform="scale(0.015625)"/>
       <path id="URWPalladioL-Roma-64" d="M 2637 2803 
C 2278 2956 2099 3008 1875 3008 
C 1702 3008 1549 2969 1389 2886 
L 826 2592 
C 461 2400 224 1934 224 1392 
C 224 881 397 460 710 204 
C 928 19 1229 -64 1645 -64 
C 1773 -64 1920 -39 1952 -13 
L 2662 581 
L 2630 0 
C 2944 -7 3046 0 3123 0 
C 3174 0 3264 0 3398 -7 
C 3443 6 3571 6 3706 0 
L 3706 192 
L 3411 211 
C 3194 224 3174 268 3174 672 
L 3174 4614 
L 3117 4665 
C 2835 4557 2624 4505 2118 4429 
L 2118 4249 
L 2477 4249 
C 2592 4249 2637 4179 2637 3987 
L 2637 2803 
z
M 2637 1424 
C 2637 1009 2624 945 2541 798 
C 2362 498 2048 300 1747 300 
C 1184 300 781 843 781 1602 
C 781 2298 1126 2707 1702 2707 
C 1946 2707 2202 2624 2426 2470 
C 2560 2381 2637 2298 2637 2247 
L 2637 1424 
z
" transform="scale(0.015625)"/>
       <path id="URWPalladioL-Roma-42" d="M 2163 4416 
C 1274 4396 1274 4396 1178 4396 
C 1056 4396 1056 4396 166 4416 
L 166 4223 
L 397 4205 
C 698 4179 723 4135 723 3633 
L 723 623 
C 723 388 672 248 582 210 
L 416 147 
L 416 0 
C 858 -7 992 0 1114 0 
C 1184 0 1254 0 1331 -7 
C 1843 0 1843 0 1907 0 
C 2374 0 2797 115 3085 325 
C 3462 592 3686 1024 3686 1468 
C 3686 1792 3558 2052 3315 2223 
C 3072 2401 2854 2458 2362 2496 
C 2675 2560 2822 2617 3002 2738 
C 3309 2947 3469 3220 3469 3550 
C 3469 4109 3066 4416 2323 4416 
L 2163 4416 
z
M 1331 2319 
C 1581 2335 1638 2335 1760 2335 
C 2624 2335 3027 2024 3027 1343 
C 3027 669 2586 268 1824 268 
C 1638 268 1491 281 1331 319 
L 1331 2319 
z
M 1331 4110 
C 1498 4147 1645 4159 1850 4159 
C 2534 4159 2835 3932 2835 3407 
C 2835 2857 2451 2560 1722 2560 
C 1613 2560 1530 2560 1331 2572 
L 1331 4110 
z
" transform="scale(0.015625)"/>
      </defs>
      <use xlink:href="#URWPalladioL-Roma-52" transform="scale(0.996264)"/>
      <use xlink:href="#URWPalladioL-Roma-65" transform="translate(66.549694 0)scale(0.996264)"/>
      <use xlink:href="#URWPalladioL-Roma-73" transform="translate(114.269989 0)scale(0.996264)"/>
      <use xlink:href="#URWPalladioL-Roma-70" transform="translate(156.511455 0)scale(0.996264)"/>
      <use xlink:href="#URWPalladioL-Roma-6f" transform="translate(216.385849 0)scale(0.996264)"/>
      <use xlink:href="#URWPalladioL-Roma-6e" transform="translate(270.781429 0)scale(0.996264)"/>
      <use xlink:href="#URWPalladioL-Roma-73" transform="translate(328.76349 0)scale(0.996264)"/>
      <use xlink:href="#URWPalladioL-Roma-65" transform="translate(371.004956 0)scale(0.996264)"/>
      <use xlink:href="#URWPalladioL-Roma-5b" transform="translate(443.631852 0)scale(0.996264)"/>
      <use xlink:href="#URWPalladioL-Roma-64" transform="translate(476.807081 0)scale(0.996264)"/>
      <use xlink:href="#URWPalladioL-Roma-42" transform="translate(537.678712 0)scale(0.996264)"/>
      <use xlink:href="#URWPalladioL-Roma-5d" transform="translate(598.550343 0)scale(0.996264)"/>
     </g>
    </g>
   </g>
   <g id="patch_6">
    <path d="M 389.857284 60.013303 
L 387.530051 56.906479 
L 389.85726 56.906479 
L 389.85726 11.870015 
L 389.857307 11.870015 
L 389.857307 56.906479 
L 392.184516 56.906479 
z
" clip-path="url(#pca5eb409e1)" style="fill: #ffffff; stroke: #ffffff; stroke-width: 3; stroke-linejoin: miter"/>
   </g>
   <g id="patch_7">
    <path d="M 389.857284 13.413647 
L 392.184516 16.520471 
L 389.857307 16.520471 
L 389.857307 61.556935 
L 389.85726 61.556935 
L 389.85726 16.520471 
L 387.530051 16.520471 
z
" clip-path="url(#pca5eb409e1)" style="fill: #ffffff; stroke: #ffffff; stroke-width: 3; stroke-linejoin: miter"/>
   </g>
   <g id="patch_8">
    <path d="M 197.627858 20.972959 
L 195.766072 18.642841 
L 197.627835 18.642841 
L 197.627835 13.035074 
L 197.627882 13.035074 
L 197.627882 18.642841 
L 199.489645 18.642841 
z
" clip-path="url(#pca5eb409e1)" style="fill: #f2aa00; stroke: #f2aa00; stroke-width: 3; stroke-linejoin: miter"/>
   </g>
   <g id="patch_9">
    <path d="M 197.627858 13.025295 
L 199.489645 15.355412 
L 197.627882 15.355412 
L 197.627882 20.963179 
L 197.627835 20.963179 
L 197.627835 15.355412 
L 195.766072 15.355412 
z
" clip-path="url(#pca5eb409e1)" style="fill: #f2aa00; stroke: #f2aa00; stroke-width: 3; stroke-linejoin: miter"/>
   </g>
   <g id="line2d_22">
    <path d="M 64.044699 11.875982 
L 66.04921 11.952414 
L 68.053721 12.180257 
L 70.058232 12.555094 
L 72.062743 13.069363 
L 76.071765 14.468473 
L 80.080787 16.241961 
L 88.098831 20.013364 
L 90.103342 20.787582 
L 92.107853 21.415082 
L 94.112364 21.861856 
L 96.116875 22.102351 
L 98.121386 22.122334 
L 100.125897 21.920603 
L 102.130408 21.509139 
L 104.134919 20.911646 
L 108.143941 19.295182 
L 118.166496 14.613201 
L 122.175518 13.1733 
L 124.180029 12.634649 
L 126.18454 12.233657 
L 128.189051 11.978474 
L 130.193562 11.874063 
L 132.198073 11.9224 
L 134.202584 12.122557 
L 136.207095 12.470664 
L 138.211606 12.959748 
L 140.216117 13.579477 
L 144.225139 15.150585 
L 150.238672 17.995883 
L 154.247695 19.848086 
L 156.252206 20.644411 
L 158.256717 21.301002 
L 160.261228 21.78269 
L 162.265739 22.06215 
L 164.27025 22.122902 
L 166.274761 21.961283 
L 168.279272 21.586891 
L 170.283783 21.021421 
L 172.288294 20.29615 
L 176.297316 18.519527 
L 184.31536 14.753946 
L 188.324382 13.274042 
L 190.328893 12.711244 
L 192.333404 12.284313 
L 194.337915 12.002048 
L 196.342426 11.870015 
L 198.346937 11.890768 
L 200.351448 12.063945 
L 202.355959 12.386256 
L 204.36047 12.851341 
L 206.364981 13.449521 
L 210.374003 14.987766 
L 214.383025 16.84343 
L 220.396558 19.697252 
L 222.401069 20.515879 
L 224.40558 21.200801 
L 226.410091 21.715537 
L 228.414602 22.030915 
L 230.419113 22.128238 
L 232.423624 22.00151 
L 234.428135 21.658187 
L 236.432646 21.118267 
L 238.437157 20.411951 
L 242.446179 18.652362 
L 250.464224 14.854976 
L 254.473246 13.342887 
L 256.477757 12.763553 
L 258.482268 12.320958 
L 260.486779 12.024662 
L 262.49129 11.880911 
L 264.495801 11.892857 
L 266.500312 12.060655 
L 268.504823 12.381434 
L 270.509334 12.849134 
L 272.513845 13.454212 
L 276.522867 15.018479 
L 280.531889 16.911917 
L 286.545422 19.814847 
L 288.549933 20.636641 
L 290.554444 21.312501 
L 292.558955 21.802924 
L 294.563466 22.076687 
L 296.567977 22.114521 
L 298.572488 21.911648 
L 300.576999 21.478541 
L 302.58151 20.839713 
L 304.586021 20.03087 
L 308.595043 18.079099 
L 314.608576 15.003392 
L 318.617598 13.321924 
L 320.622109 12.6865 
L 322.62662 12.220769 
L 324.631131 11.945742 
L 326.635642 11.880522 
L 328.640153 12.043138 
L 330.644664 12.451391 
L 332.649175 13.123728 
L 334.653686 14.080191 
L 336.658197 15.343527 
L 338.662708 16.94056 
L 340.66722 18.904001 
L 342.671731 21.275008 
L 344.676242 24.106969 
L 346.680753 27.471455 
L 348.685264 31.468107 
L 350.689775 36.24224 
L 352.694286 42.018923 
L 354.698797 49.176609 
L 356.703308 58.433166 
L 358.707819 71.446151 
L 360.71233 93.925363 
L 362.716841 144.022326 
L 364.721352 90.311724 
L 366.725863 75.885218 
L 368.730374 68.432051 
L 370.734885 64.257212 
L 372.739396 62.163851 
L 374.743907 61.658501 
L 376.748418 62.549636 
L 378.752929 64.834092 
L 380.75744 68.69315 
L 382.761951 74.593067 
L 384.766462 83.642546 
L 386.770973 99.124439 
L 388.775484 143.78409 
L 390.779995 111.903086 
L 392.784506 90.021915 
L 394.789017 78.864245 
L 396.793528 71.837884 
L 398.798039 67.160012 
L 400.80255 64.099762 
L 402.807061 62.30364 
L 404.811572 61.596039 
L 406.816083 61.907136 
L 408.820594 63.249086 
L 410.825105 65.72049 
L 412.829616 69.542709 
L 414.834127 75.160899 
L 416.838638 83.536734 
L 418.843149 97.268214 
L 420.84766 129.517596 
L 422.852171 121.486974 
L 424.856682 94.748437 
L 426.861193 82.198591 
L 428.865704 74.381717 
L 430.870215 69.105071 
L 432.874726 65.513538 
L 434.879237 63.198404 
L 436.883749 61.949618 
L 438.88826 61.666833 
L 440.892771 62.325514 
L 442.897282 63.969585 
L 444.901793 66.72532 
L 446.906304 70.846783 
L 448.910815 76.834235 
L 450.915326 85.782654 
L 452.919837 100.799591 
L 454.924348 141.373862 
L 456.928859 116.131311 
L 458.93337 93.081082 
L 460.937881 81.426732 
L 462.942392 74.001431 
L 464.946903 68.930426 
L 466.951414 65.451102 
L 468.955925 63.190953 
L 470.960436 61.956125 
L 472.964947 61.653302 
L 474.969458 62.25943 
L 476.973969 63.815018 
L 478.97848 66.436384 
L 480.982991 70.355526 
L 482.987502 76.021958 
L 484.992013 84.391756 
L 486.996524 98.022456 
L 489.001035 129.621756 
L 491.005546 123.16168 
L 493.010057 95.927497 
L 495.014568 83.202204 
L 497.019079 75.242814 
L 499.02359 69.819645 
L 501.028101 66.065337 
L 503.032612 63.563728 
L 505.037123 62.097488 
L 507.041634 61.556935 
L 509.046145 61.903867 
L 511.050656 63.160493 
L 513.055167 65.415866 
L 515.059678 68.85416 
L 517.064189 73.826749 
L 519.0687 81.043967 
L 521.073211 92.210127 
L 523.077722 113.435267 
L 525.082233 152.567644 
L 527.086744 103.343305 
L 529.091255 87.395561 
L 531.095767 78.055402 
L 533.100278 71.818024 
L 535.104789 67.491435 
L 537.1093 64.536676 
L 539.113811 62.677412 
L 541.118322 61.769248 
L 543.122833 61.748461 
L 545.127344 62.612923 
L 547.131855 64.421529 
L 549.136366 67.311745 
L 551.140877 71.547731 
L 553.145388 77.642416 
L 555.149899 86.71635 
L 557.15441 101.971637 
L 559.158921 144.349669 
L 561.163432 115.966891 
L 563.167943 93.383696 
L 565.172454 81.824309 
L 567.176965 74.409433 
L 569.181476 69.308411 
L 571.185987 65.771051 
L 573.190498 63.428503 
L 575.195009 62.086677 
L 577.19952 61.649182 
L 577.19952 61.649182 
" clip-path="url(#pca5eb409e1)" style="fill: none; stroke: #343837; stroke-width: 3; stroke-linecap: round"/>
   </g>
   <g id="text_12">
    <!-- Stop-band attenuation -->
    <g style="fill: #ffffff" transform="translate(399.166215 38.872888)scale(0.1 -0.1)">
     <defs>
      <path id="URWPalladioL-Roma-53" d="M 2861 3371 
C 2861 3711 2886 3929 2950 4275 
C 2438 4479 2150 4544 1798 4544 
C 845 4544 154 3942 154 3102 
C 154 2788 237 2557 422 2384 
C 640 2185 934 2083 1555 1999 
C 2048 1929 2272 1858 2438 1711 
C 2605 1576 2682 1390 2682 1147 
C 2682 570 2202 153 1536 153 
C 1024 153 525 403 493 666 
L 442 1095 
L 237 1095 
C 243 980 243 877 243 839 
C 243 544 230 403 192 115 
C 557 -45 928 -128 1299 -128 
C 2413 -128 3219 544 3219 1474 
C 3219 1775 3136 1986 2957 2153 
C 2733 2365 2464 2448 1747 2544 
C 966 2647 691 2858 691 3352 
C 691 3890 1094 4275 1658 4275 
C 1907 4275 2144 4224 2317 4127 
C 2528 4018 2598 3922 2618 3736 
L 2656 3371 
L 2861 3371 
z
" transform="scale(0.015625)"/>
      <path id="URWPalladioL-Roma-74" d="M 627 2457 
L 627 614 
C 627 140 838 -64 1331 -64 
C 1478 -64 1632 -32 1670 12 
L 1978 352 
L 1894 460 
C 1734 371 1638 339 1517 339 
C 1267 339 1165 467 1165 780 
L 1165 2457 
L 1984 2457 
L 2042 2803 
L 1165 2764 
L 1165 3008 
C 1165 3277 1184 3507 1235 3917 
L 1158 3987 
C 1005 3891 813 3808 614 3744 
C 634 3552 640 3430 640 3238 
L 640 2790 
L 141 2566 
L 141 2432 
L 627 2457 
z
" transform="scale(0.015625)"/>
      <path id="URWPalladioL-Roma-2d" d="M 1805 1395 
L 1997 1823 
L 1965 1856 
L 282 1856 
L 109 1427 
L 141 1395 
L 1805 1395 
z
" transform="scale(0.015625)"/>
      <path id="URWPalladioL-Roma-62" d="M 960 4601 
L 902 4652 
C 621 4544 410 4492 -96 4416 
L -96 4236 
L 262 4236 
C 378 4236 422 4166 422 3974 
L 422 990 
C 422 594 416 421 371 -26 
L 474 -64 
L 730 166 
C 986 0 1216 -64 1555 -64 
C 1805 -64 1971 -20 2106 76 
L 2746 536 
C 3027 741 3251 1270 3251 1736 
C 3251 2477 2771 3008 2093 3008 
C 1792 3008 1478 2892 1312 2726 
L 960 2368 
L 960 4601 
z
M 960 1979 
C 960 2068 1024 2183 1126 2298 
C 1306 2483 1555 2591 1818 2591 
C 2355 2591 2694 2158 2694 1475 
C 2694 760 2310 262 1766 262 
C 1434 262 960 466 960 607 
L 960 1979 
z
" transform="scale(0.015625)"/>
      <path id="URWPalladioL-Roma-61" d="M 2074 544 
L 2042 0 
C 2458 0 2458 0 2541 0 
C 2573 19 2733 12 3014 0 
L 3014 192 
L 2765 204 
C 2611 211 2586 262 2586 576 
L 2586 1751 
C 2586 2688 2317 3027 1574 3027 
C 1299 3027 1043 2956 800 2809 
L 461 2604 
L 461 2187 
L 627 2142 
L 710 2341 
C 845 2642 909 2688 1203 2688 
C 1805 2688 2054 2450 2074 1866 
L 1440 1751 
C 570 1590 205 1289 205 730 
C 205 224 506 -64 1011 -64 
C 1126 -64 1235 -45 1280 -13 
L 2074 544 
z
M 2074 806 
C 1888 544 1485 300 1235 300 
C 979 300 755 537 755 812 
C 755 1049 883 1273 1075 1395 
C 1235 1491 1587 1580 2074 1651 
L 2074 806 
z
" transform="scale(0.015625)"/>
      <path id="URWPalladioL-Roma-69" d="M 1203 2982 
L 1146 3008 
C 819 2873 486 2784 147 2746 
L 147 2568 
L 384 2568 
C 640 2568 666 2523 666 2103 
L 666 669 
C 666 268 646 223 429 211 
L 134 192 
L 134 0 
C 774 0 774 0 934 0 
C 1094 19 1094 19 1734 0 
L 1734 192 
L 1440 211 
C 1222 224 1203 268 1203 671 
L 1203 2982 
z
M 909 4416 
C 717 4416 550 4249 550 4057 
C 550 3871 717 3705 902 3705 
C 1088 3705 1261 3871 1261 4057 
C 1261 4236 1088 4416 909 4416 
z
" transform="scale(0.015625)"/>
     </defs>
     <use xlink:href="#URWPalladioL-Roma-53" transform="scale(0.996264)"/>
     <use xlink:href="#URWPalladioL-Roma-74" transform="translate(52.303815 0)scale(0.996264)"/>
     <use xlink:href="#URWPalladioL-Roma-6f" transform="translate(84.780903 0)scale(0.996264)"/>
     <use xlink:href="#URWPalladioL-Roma-70" transform="translate(139.176483 0)scale(0.996264)"/>
     <use xlink:href="#URWPalladioL-Roma-2d" transform="translate(199.050877 0)scale(0.996264)"/>
     <use xlink:href="#URWPalladioL-Roma-62" transform="translate(232.226106 0)scale(0.996264)"/>
     <use xlink:href="#URWPalladioL-Roma-61" transform="translate(287.318506 0)scale(0.996264)"/>
     <use xlink:href="#URWPalladioL-Roma-6e" transform="translate(337.131706 0)scale(0.996264)"/>
     <use xlink:href="#URWPalladioL-Roma-64" transform="translate(395.113767 0)scale(0.996264)"/>
     <use xlink:href="#URWPalladioL-Roma-61" transform="translate(480.891998 0)scale(0.996264)"/>
     <use xlink:href="#URWPalladioL-Roma-74" transform="translate(530.705199 0)scale(0.996264)"/>
     <use xlink:href="#URWPalladioL-Roma-74" transform="translate(563.182286 0)scale(0.996264)"/>
     <use xlink:href="#URWPalladioL-Roma-65" transform="translate(595.659374 0)scale(0.996264)"/>
     <use xlink:href="#URWPalladioL-Roma-6e" transform="translate(643.379669 0)scale(0.996264)"/>
     <use xlink:href="#URWPalladioL-Roma-75" transform="translate(701.36173 0)scale(0.996264)"/>
     <use xlink:href="#URWPalladioL-Roma-61" transform="translate(761.435465 0)scale(0.996264)"/>
     <use xlink:href="#URWPalladioL-Roma-74" transform="translate(811.248665 0)scale(0.996264)"/>
     <use xlink:href="#URWPalladioL-Roma-69" transform="translate(843.725753 0)scale(0.996264)"/>
     <use xlink:href="#URWPalladioL-Roma-6f" transform="translate(872.716115 0)scale(0.996264)"/>
     <use xlink:href="#URWPalladioL-Roma-6e" transform="translate(927.111695 0)scale(0.996264)"/>
    </g>
   </g>
   <g id="text_13">
    <!-- Pass-band ripple -->
    <g style="fill: #ffffff" transform="translate(160.572283 34.864242)scale(0.1 -0.1)">
     <defs>
      <path id="URWPalladioL-Roma-50" d="M 1382 4097 
C 1606 4147 1792 4172 2010 4172 
C 2701 4172 3072 3859 3072 3263 
C 3072 2699 2682 2304 2125 2304 
C 1990 2304 1894 2316 1728 2366 
L 1792 2137 
C 1946 2105 2035 2099 2163 2099 
C 3040 2099 3712 2686 3712 3439 
C 3712 4041 3213 4416 2400 4416 
C 2368 4416 2304 4416 2221 4409 
C 1984 4403 1498 4396 1312 4396 
C 1171 4396 1171 4396 147 4416 
L 147 4223 
L 435 4204 
C 723 4185 774 4103 774 3633 
L 774 782 
C 774 280 742 230 448 211 
L 141 192 
L 141 0 
C 518 -7 742 0 1075 0 
C 1408 19 1638 12 2016 0 
L 2016 192 
L 1709 211 
C 1414 230 1382 281 1382 787 
L 1382 4097 
z
" transform="scale(0.015625)"/>
      <path id="URWPalladioL-Roma-6c" d="M 147 4249 
L 506 4249 
C 621 4249 666 4179 666 3987 
L 666 672 
C 666 268 646 224 429 211 
L 134 192 
L 134 0 
C 774 0 774 0 934 0 
C 1094 19 1094 19 1734 0 
L 1734 192 
L 1440 211 
C 1222 224 1203 268 1203 672 
L 1203 4614 
L 1146 4665 
C 864 4557 653 4505 147 4429 
L 147 4249 
z
" transform="scale(0.015625)"/>
     </defs>
     <use xlink:href="#URWPalladioL-Roma-50" transform="scale(0.996264)"/>
     <use xlink:href="#URWPalladioL-Roma-61" transform="translate(60.173595 0)scale(0.996264)"/>
     <use xlink:href="#URWPalladioL-Roma-73" transform="translate(109.986796 0)scale(0.996264)"/>
     <use xlink:href="#URWPalladioL-Roma-73" transform="translate(152.228262 0)scale(0.996264)"/>
     <use xlink:href="#URWPalladioL-Roma-2d" transform="translate(194.469728 0)scale(0.996264)"/>
     <use xlink:href="#URWPalladioL-Roma-62" transform="translate(227.644958 0)scale(0.996264)"/>
     <use xlink:href="#URWPalladioL-Roma-61" transform="translate(282.737358 0)scale(0.996264)"/>
     <use xlink:href="#URWPalladioL-Roma-6e" transform="translate(332.550558 0)scale(0.996264)"/>
     <use xlink:href="#URWPalladioL-Roma-64" transform="translate(390.532619 0)scale(0.996264)"/>
     <use xlink:href="#URWPalladioL-Roma-72" transform="translate(476.31085 0)scale(0.996264)"/>
     <use xlink:href="#URWPalladioL-Roma-69" transform="translate(515.662746 0)scale(0.996264)"/>
     <use xlink:href="#URWPalladioL-Roma-70" transform="translate(544.653107 0)scale(0.996264)"/>
     <use xlink:href="#URWPalladioL-Roma-70" transform="translate(604.527501 0)scale(0.996264)"/>
     <use xlink:href="#URWPalladioL-Roma-6c" transform="translate(664.401895 0)scale(0.996264)"/>
     <use xlink:href="#URWPalladioL-Roma-65" transform="translate(693.392256 0)scale(0.996264)"/>
    </g>
   </g>
   <g id="legend_1">
    <g id="patch_10">
     <path d="M 103.133666 164.861659 
L 538.110552 164.861659 
Q 540.910552 164.861659 540.910552 162.061659 
L 540.910552 141.928177 
Q 540.910552 139.128177 538.110552 139.128177 
L 103.133666 139.128177 
Q 100.333666 139.128177 100.333666 141.928177 
L 100.333666 162.061659 
Q 100.333666 164.861659 103.133666 164.861659 
z
" style="fill: #ffffff; opacity: 0.95; stroke: #cccccc; stroke-width: 0.5; stroke-linejoin: miter"/>
    </g>
    <g id="line2d_23">
     <path d="M 105.933666 150.428486 
L 112.933666 150.428486 
L 119.933666 150.428486 
" style="fill: none; stroke: #343837; stroke-width: 3; stroke-linecap: round"/>
    </g>
    <g id="text_14">
     <!-- $|H|$ -->
     <g style="fill: #343837" transform="translate(131.133666 155.328486)scale(0.14 -0.14)">
      <defs>
       <path id="CMSY10-6a" d="M 1018 4569 
C 1018 4684 1018 4800 890 4800 
C 762 4800 762 4684 762 4569 
L 762 -1370 
C 762 -1485 762 -1600 890 -1600 
C 1018 -1600 1018 -1485 1018 -1370 
L 1018 4569 
z
" transform="scale(0.015625)"/>
       <path id="URWPalladioL-Ital-48" d="M 1414 2444 
L 1683 3909 
C 1728 4159 1773 4197 2010 4217 
L 2278 4236 
L 2298 4416 
L 2144 4416 
L 1568 4396 
C 1466 4396 1350 4396 1075 4403 
L 666 4416 
L 646 4236 
L 947 4223 
C 1101 4217 1171 4165 1171 4050 
C 1171 3960 1146 3761 1114 3562 
L 640 806 
C 531 228 525 222 269 197 
L 6 178 
L -19 0 
L 250 6 
C 557 -7 704 0 826 0 
L 1446 0 
L 1613 0 
L 1632 178 
L 1318 197 
C 1146 209 1088 253 1088 385 
C 1088 442 1094 486 1114 605 
L 1382 2157 
L 1773 2163 
C 2170 2169 2438 2176 2560 2176 
C 2682 2176 2944 2169 3347 2163 
L 3738 2157 
L 3482 806 
C 3424 498 3379 322 3347 285 
C 3322 234 3251 209 3110 197 
L 2790 178 
L 2765 0 
L 3123 6 
C 3405 -7 3597 0 3667 0 
C 3770 0 3968 -7 4243 -13 
L 4512 0 
L 4531 178 
L 4160 197 
C 3994 203 3930 253 3930 385 
C 3930 442 3936 498 3955 605 
L 4544 3909 
C 4589 4159 4627 4191 4870 4217 
L 5101 4236 
L 5120 4416 
L 5018 4416 
L 4435 4396 
C 4339 4396 4205 4396 3923 4403 
L 3520 4416 
L 3501 4236 
L 3808 4223 
C 3962 4217 4032 4165 4032 4050 
C 4032 3960 4006 3754 3974 3562 
L 3782 2444 
L 1414 2444 
z
" transform="scale(0.015625)"/>
      </defs>
      <use xlink:href="#CMSY10-6a" transform="scale(1.038107)"/>
      <use xlink:href="#URWPalladioL-Ital-48" transform="translate(35.068521 0)scale(0.996264)"/>
      <use xlink:href="#CMSY10-6a" transform="translate(117.758403 0)scale(1.038107)"/>
     </g>
    </g>
    <g id="patch_11">
     <path d="M 179.656924 155.328486 
L 193.656924 155.328486 
L 193.656924 145.528486 
L 179.656924 145.528486 
z
" style="fill: #0271ae; opacity: 0.75; stroke: #0271ae; stroke-width: 0.5; stroke-linejoin: miter"/>
    </g>
    <g id="text_15">
     <!-- Pass-band -->
     <g style="fill: #0271ae; opacity: 0.75" transform="translate(204.856924 155.328486)scale(0.14 -0.14)">
      <use xlink:href="#URWPalladioL-Roma-50" transform="scale(0.996264)"/>
      <use xlink:href="#URWPalladioL-Roma-61" transform="translate(60.173595 0)scale(0.996264)"/>
      <use xlink:href="#URWPalladioL-Roma-73" transform="translate(109.986796 0)scale(0.996264)"/>
      <use xlink:href="#URWPalladioL-Roma-73" transform="translate(152.228262 0)scale(0.996264)"/>
      <use xlink:href="#URWPalladioL-Roma-2d" transform="translate(194.469728 0)scale(0.996264)"/>
      <use xlink:href="#URWPalladioL-Roma-62" transform="translate(227.644958 0)scale(0.996264)"/>
      <use xlink:href="#URWPalladioL-Roma-61" transform="translate(282.737358 0)scale(0.996264)"/>
      <use xlink:href="#URWPalladioL-Roma-6e" transform="translate(332.550558 0)scale(0.996264)"/>
      <use xlink:href="#URWPalladioL-Roma-64" transform="translate(390.532619 0)scale(0.996264)"/>
     </g>
    </g>
    <g id="patch_12">
     <path d="M 296.05347 155.328486 
L 310.05347 155.328486 
L 310.05347 145.528486 
L 296.05347 145.528486 
z
" style="fill: #6e3b87; opacity: 0.75; stroke: #6e3b87; stroke-width: 0.5; stroke-linejoin: miter"/>
    </g>
    <g id="text_16">
     <!-- Transition band -->
     <g style="fill: #6e3b87; opacity: 0.75" transform="translate(321.25347 155.328486)scale(0.14 -0.14)">
      <defs>
       <path id="URWPalladioL-Roma-54" d="M 1632 4096 
C 1651 3880 1658 3734 1658 3462 
L 1658 781 
C 1658 280 1626 230 1331 211 
L 1024 192 
L 1024 0 
C 1402 -7 1626 0 1958 0 
C 2291 19 2522 12 2899 0 
L 2899 192 
L 2592 211 
C 2298 230 2266 280 2266 781 
L 2266 3462 
C 2266 3747 2272 3887 2291 4096 
L 3283 4096 
C 3462 4096 3533 4039 3539 3887 
L 3565 3386 
L 3763 3386 
C 3763 3801 3776 4051 3808 4416 
C 3347 4409 3136 4409 2957 4403 
C 2707 4390 2522 4390 2426 4390 
L 1414 4390 
C 1350 4390 1005 4396 550 4403 
L 115 4416 
C 147 4051 160 3801 160 3385 
L 358 3385 
L 384 3891 
C 390 4038 461 4096 640 4096 
L 1632 4096 
z
" transform="scale(0.015625)"/>
      </defs>
      <use xlink:href="#URWPalladioL-Roma-54" transform="scale(0.996264)"/>
      <use xlink:href="#URWPalladioL-Roma-72" transform="translate(52.104474 0)scale(0.996264)"/>
      <use xlink:href="#URWPalladioL-Roma-61" transform="translate(91.45637 0)scale(0.996264)"/>
      <use xlink:href="#URWPalladioL-Roma-6e" transform="translate(141.269571 0)scale(0.996264)"/>
      <use xlink:href="#URWPalladioL-Roma-73" transform="translate(199.251631 0)scale(0.996264)"/>
      <use xlink:href="#URWPalladioL-Roma-69" transform="translate(241.493098 0)scale(0.996264)"/>
      <use xlink:href="#URWPalladioL-Roma-74" transform="translate(270.483459 0)scale(0.996264)"/>
      <use xlink:href="#URWPalladioL-Roma-69" transform="translate(302.960547 0)scale(0.996264)"/>
      <use xlink:href="#URWPalladioL-Roma-6f" transform="translate(331.950909 0)scale(0.996264)"/>
      <use xlink:href="#URWPalladioL-Roma-6e" transform="translate(386.346489 0)scale(0.996264)"/>
      <use xlink:href="#URWPalladioL-Roma-62" transform="translate(469.23515 0)scale(0.996264)"/>
      <use xlink:href="#URWPalladioL-Roma-61" transform="translate(524.327549 0)scale(0.996264)"/>
      <use xlink:href="#URWPalladioL-Roma-6e" transform="translate(574.14075 0)scale(0.996264)"/>
      <use xlink:href="#URWPalladioL-Roma-64" transform="translate(632.12281 0)scale(0.996264)"/>
     </g>
    </g>
    <g id="patch_13">
     <path d="M 446.272628 155.328486 
L 460.272628 155.328486 
L 460.272628 145.528486 
L 446.272628 145.528486 
z
" style="fill: #dc2830; opacity: 0.75; stroke: #dc2830; stroke-width: 0.5; stroke-linejoin: miter"/>
    </g>
    <g id="text_17">
     <!-- Stop-band -->
     <g style="fill: #dc2830; opacity: 0.75" transform="translate(471.472628 155.328486)scale(0.14 -0.14)">
      <use xlink:href="#URWPalladioL-Roma-53" transform="scale(0.996264)"/>
      <use xlink:href="#URWPalladioL-Roma-74" transform="translate(52.303815 0)scale(0.996264)"/>
      <use xlink:href="#URWPalladioL-Roma-6f" transform="translate(84.780903 0)scale(0.996264)"/>
      <use xlink:href="#URWPalladioL-Roma-70" transform="translate(139.176483 0)scale(0.996264)"/>
      <use xlink:href="#URWPalladioL-Roma-2d" transform="translate(199.050877 0)scale(0.996264)"/>
      <use xlink:href="#URWPalladioL-Roma-62" transform="translate(232.226106 0)scale(0.996264)"/>
      <use xlink:href="#URWPalladioL-Roma-61" transform="translate(287.318506 0)scale(0.996264)"/>
      <use xlink:href="#URWPalladioL-Roma-6e" transform="translate(337.131706 0)scale(0.996264)"/>
      <use xlink:href="#URWPalladioL-Roma-64" transform="translate(395.113767 0)scale(0.996264)"/>
     </g>
    </g>
   </g>
  </g>
 </g>
 <defs>
  <clipPath id="pca5eb409e1">
   <rect x="64.044699" y="7.2" width="513.154821" height="164.661659"/>
  </clipPath>
 </defs>
</svg>