<?xml version="1.0" encoding="utf-8" standalone="no"?>
<!DOCTYPE svg PUBLIC "-//W3C//DTD SVG 1.1//EN"
  "http://www.w3.org/Graphics/SVG/1.1/DTD/svg11.dtd">
<svg xmlns:xlink="http://www.w3.org/1999/xlink" width="440.39952pt" height="181.230566pt" viewBox="0 0 440.39952 181.230566" xmlns="http://www.w3.org/2000/svg" version="1.1">
 <metadata>
  <rdf:RDF xmlns:dc="http://purl.org/dc/elements/1.1/" xmlns:cc="http://creativecommons.org/ns#" xmlns:rdf="http://www.w3.org/1999/02/22-rdf-syntax-ns#">
   <cc:Work>
    <dc:type rdf:resource="http://purl.org/dc/dcmitype/StillImage"/>
    <dc:date>2023-02-15T09:40:06.384246</dc:date>
    <dc:format>image/svg+xml</dc:format>
    <dc:creator>
     <cc:Agent>
      <dc:title>Matplotlib v3.5.2, https://matplotlib.org/</dc:title>
     </cc:Agent>
    </dc:creator>
   </cc:Work>
  </rdf:RDF>
 </metadata>
 <defs>
  <style type="text/css">*{stroke-linejoin: round; stroke-linecap: butt}</style>
 </defs>
 <g id="figure_1">
  <g id="patch_1">
   <path d="M 0 181.230566 
L 440.39952 181.230566 
L 440.39952 0 
L 0 0 
L 0 181.230566 
z
" style="fill: none"/>
  </g>
  <g id="axes_1">
   <g id="patch_2">
    <path d="M 51.606463 60.618272 
L 424.48221 60.618272 
L 424.48221 8.79866 
L 51.606463 8.79866 
L 51.606463 60.618272 
z
" style="fill: none"/>
   </g>
   <g id="line2d_1">
    <path d="M 126.331061 60.618272 
L 126.331061 8.79866 
" clip-path="url(#p34ed832c86)" style="fill: none; stroke: #dc2830; stroke-opacity: 0.5; stroke-width: 2; stroke-linecap: round"/>
   </g>
   <g id="matplotlib.axis_1">
    <g id="xtick_1">
     <g id="line2d_2">
      <path d="M 51.606463 60.618272 
L 51.606463 8.79866 
" clip-path="url(#p34ed832c86)" style="fill: none; stroke: #000000; stroke-opacity: 0.2; stroke-width: 0.5; stroke-linecap: round"/>
     </g>
     <g id="line2d_3">
      <defs>
       <path id="me3184cd37f" d="M 0 0 
L 0 3.5 
" style="stroke: #000000; stroke-opacity: 0.2; stroke-width: 0.5"/>
      </defs>
      <g>
       <use xlink:href="#me3184cd37f" x="51.606463" y="60.618272" style="fill-opacity: 0.2; stroke: #000000; stroke-opacity: 0.2; stroke-width: 0.5"/>
      </g>
     </g>
    </g>
    <g id="xtick_2">
     <g id="line2d_4">
      <path d="M 126.181612 60.618272 
L 126.181612 8.79866 
" clip-path="url(#p34ed832c86)" style="fill: none; stroke: #000000; stroke-opacity: 0.2; stroke-width: 0.5; stroke-linecap: round"/>
     </g>
     <g id="line2d_5">
      <g>
       <use xlink:href="#me3184cd37f" x="126.181612" y="60.618272" style="fill-opacity: 0.2; stroke: #000000; stroke-opacity: 0.2; stroke-width: 0.5"/>
      </g>
     </g>
    </g>
    <g id="xtick_3">
     <g id="line2d_6">
      <path d="M 200.756762 60.618272 
L 200.756762 8.79866 
" clip-path="url(#p34ed832c86)" style="fill: none; stroke: #000000; stroke-opacity: 0.2; stroke-width: 0.5; stroke-linecap: round"/>
     </g>
     <g id="line2d_7">
      <g>
       <use xlink:href="#me3184cd37f" x="200.756762" y="60.618272" style="fill-opacity: 0.2; stroke: #000000; stroke-opacity: 0.2; stroke-width: 0.5"/>
      </g>
     </g>
    </g>
    <g id="xtick_4">
     <g id="line2d_8">
      <path d="M 275.331911 60.618272 
L 275.331911 8.79866 
" clip-path="url(#p34ed832c86)" style="fill: none; stroke: #000000; stroke-opacity: 0.2; stroke-width: 0.5; stroke-linecap: round"/>
     </g>
     <g id="line2d_9">
      <g>
       <use xlink:href="#me3184cd37f" x="275.331911" y="60.618272" style="fill-opacity: 0.2; stroke: #000000; stroke-opacity: 0.2; stroke-width: 0.5"/>
      </g>
     </g>
    </g>
    <g id="xtick_5">
     <g id="line2d_10">
      <path d="M 349.90706 60.618272 
L 349.90706 8.79866 
" clip-path="url(#p34ed832c86)" style="fill: none; stroke: #000000; stroke-opacity: 0.2; stroke-width: 0.5; stroke-linecap: round"/>
     </g>
     <g id="line2d_11">
      <g>
       <use xlink:href="#me3184cd37f" x="349.90706" y="60.618272" style="fill-opacity: 0.2; stroke: #000000; stroke-opacity: 0.2; stroke-width: 0.5"/>
      </g>
     </g>
    </g>
    <g id="xtick_6">
     <g id="line2d_12">
      <path d="M 424.48221 60.618272 
L 424.48221 8.79866 
" clip-path="url(#p34ed832c86)" style="fill: none; stroke: #000000; stroke-opacity: 0.2; stroke-width: 0.5; stroke-linecap: round"/>
     </g>
     <g id="line2d_13">
      <g>
       <use xlink:href="#me3184cd37f" x="424.48221" y="60.618272" style="fill-opacity: 0.2; stroke: #000000; stroke-opacity: 0.2; stroke-width: 0.5"/>
      </g>
     </g>
    </g>
   </g>
   <g id="matplotlib.axis_2">
    <g id="ytick_1">
     <g id="line2d_14">
      <path d="M 51.606463 60.384206 
L 424.48221 60.384206 
" clip-path="url(#p34ed832c86)" style="fill: none; stroke: #000000; stroke-opacity: 0.2; stroke-width: 0.5; stroke-linecap: round"/>
     </g>
     <g id="line2d_15">
      <defs>
       <path id="m2a241dd65d" d="M 0 0 
L -3.5 0 
" style="stroke: #000000; stroke-opacity: 0.2; stroke-width: 0.5"/>
      </defs>
      <g>
       <use xlink:href="#m2a241dd65d" x="51.606463" y="60.384206" style="fill-opacity: 0.2; stroke: #000000; stroke-opacity: 0.2; stroke-width: 0.5"/>
      </g>
     </g>
     <g id="text_1">
      <!-- $\mathdefault{−2.5}$ -->
      <g transform="translate(7.2 65.37397)scale(0.14 -0.14)">
       <defs>
        <path id="CMSY10-0" d="M 4218 1472 
C 4326 1472 4442 1472 4442 1600 
C 4442 1728 4326 1728 4218 1728 
L 755 1728 
C 646 1728 531 1728 531 1600 
C 531 1472 646 1472 755 1472 
L 4218 1472 
z
" transform="scale(0.015625)"/>
        <path id="URWPalladioL-Roma-32" d="M 102 166 
L 102 0 
C 1299 0 1299 0 1530 0 
C 1760 19 1760 19 2995 0 
C 2982 134 2982 198 2982 287 
C 2982 370 2982 434 2995 574 
C 2259 542 1965 536 781 510 
L 1946 1741 
C 2566 2398 2758 2749 2758 3228 
C 2758 3961 2259 4416 1446 4416 
C 986 4416 672 4287 358 3967 
L 250 3100 
L 435 3100 
L 518 3394 
C 621 3763 851 3923 1280 3923 
C 1830 3923 2182 3578 2182 3036 
C 2182 2558 1914 2086 1190 1320 
L 102 166 
z
" transform="scale(0.015625)"/>
        <path id="URWPalladioL-Roma-2e" d="M 794 678 
C 602 678 429 499 429 307 
C 429 115 602 -64 787 -64 
C 992 -64 1171 108 1171 307 
C 1171 499 992 678 794 678 
z
" transform="scale(0.015625)"/>
        <path id="URWPalladioL-Roma-35" d="M 813 3891 
C 1638 3865 1997 3859 2765 3859 
L 2797 3891 
C 2784 4006 2784 4057 2784 4140 
C 2784 4230 2784 4281 2797 4396 
L 2765 4428 
C 2285 4403 1997 4396 1651 4396 
C 1299 4396 1018 4403 538 4428 
L 506 4396 
C 512 4006 518 3724 518 3520 
C 518 2976 499 2360 480 2076 
L 608 2038 
C 909 2341 1082 2432 1395 2432 
C 2010 2432 2394 1992 2394 1295 
C 2394 579 1984 160 1286 160 
C 941 160 621 276 531 443 
L 237 973 
L 83 882 
C 230 514 307 308 397 25 
C 576 -71 832 -128 1107 -128 
C 1536 -128 1990 57 2342 366 
C 2733 715 2938 1153 2938 1631 
C 2938 2360 2419 2873 1690 2873 
C 1382 2873 1152 2790 755 2553 
L 813 3891 
z
" transform="scale(0.015625)"/>
       </defs>
       <use xlink:href="#CMSY10-0" transform="scale(1.038107)"/>
       <use xlink:href="#URWPalladioL-Roma-32" transform="translate(81.941696 0)scale(0.996264)"/>
       <use xlink:href="#URWPalladioL-Roma-2e" transform="translate(131.754897 0)scale(0.996264)"/>
       <use xlink:href="#URWPalladioL-Roma-35" transform="translate(156.661497 0)scale(0.996264)"/>
      </g>
     </g>
    </g>
    <g id="ytick_2">
     <g id="line2d_16">
      <path d="M 51.606463 36.286985 
L 424.48221 36.286985 
" clip-path="url(#p34ed832c86)" style="fill: none; stroke: #000000; stroke-opacity: 0.2; stroke-width: 0.5; stroke-linecap: round"/>
     </g>
     <g id="line2d_17">
      <g>
       <use xlink:href="#m2a241dd65d" x="51.606463" y="36.286985" style="fill-opacity: 0.2; stroke: #000000; stroke-opacity: 0.2; stroke-width: 0.5"/>
      </g>
     </g>
     <g id="text_2">
      <!-- $\mathdefault{0.0}$ -->
      <g transform="translate(18.671843 41.27675)scale(0.14 -0.14)">
       <defs>
        <path id="URWPalladioL-Roma-30" d="M 1683 4416 
C 691 4416 186 3628 186 2076 
C 186 1326 320 679 544 365 
C 768 51 1126 -128 1523 -128 
C 2490 -128 2976 704 2976 2345 
C 2976 3749 2560 4416 1683 4416 
z
M 1568 4191 
C 2189 4191 2438 3563 2438 2025 
C 2438 660 2195 96 1606 96 
C 986 96 723 743 723 2307 
C 723 3660 960 4191 1568 4191 
z
" transform="scale(0.015625)"/>
       </defs>
       <use xlink:href="#URWPalladioL-Roma-30" transform="scale(0.996264)"/>
       <use xlink:href="#URWPalladioL-Roma-2e" transform="translate(49.8132 0)scale(0.996264)"/>
       <use xlink:href="#URWPalladioL-Roma-30" transform="translate(74.719801 0)scale(0.996264)"/>
      </g>
     </g>
    </g>
    <g id="ytick_3">
     <g id="line2d_18">
      <path d="M 51.606463 12.189765 
L 424.48221 12.189765 
" clip-path="url(#p34ed832c86)" style="fill: none; stroke: #000000; stroke-opacity: 0.2; stroke-width: 0.5; stroke-linecap: round"/>
     </g>
     <g id="line2d_19">
      <g>
       <use xlink:href="#m2a241dd65d" x="51.606463" y="12.189765" style="fill-opacity: 0.2; stroke: #000000; stroke-opacity: 0.2; stroke-width: 0.5"/>
      </g>
     </g>
     <g id="text_3">
      <!-- $\mathdefault{2.5}$ -->
      <g transform="translate(18.671843 17.179529)scale(0.14 -0.14)">
       <use xlink:href="#URWPalladioL-Roma-32" transform="scale(0.996264)"/>
       <use xlink:href="#URWPalladioL-Roma-2e" transform="translate(49.8132 0)scale(0.996264)"/>
       <use xlink:href="#URWPalladioL-Roma-35" transform="translate(74.719801 0)scale(0.996264)"/>
      </g>
     </g>
    </g>
   </g>
   <g id="line2d_20">
    <path d="M 51.606463 18.613667 
L 52.353709 30.126368 
L 53.100955 25.777159 
L 53.848201 14.549693 
L 54.595447 18.239608 
L 55.342693 26.225761 
L 56.089939 26.668037 
L 56.837185 31.732691 
L 57.584431 31.977012 
L 58.331677 31.025354 
L 59.078923 32.233115 
L 59.826169 24.87881 
L 60.573415 29.897842 
L 61.320661 32.897491 
L 62.067907 32.18788 
L 62.815153 32.890173 
L 63.562399 28.175613 
L 64.309645 33.787129 
L 65.056891 33.877578 
L 65.804137 32.796499 
L 66.551383 28.598316 
L 67.298629 34.334662 
L 68.045875 34.509522 
L 68.793121 35.230693 
L 69.540366 34.947896 
L 70.287612 36.333649 
L 71.782104 36.949316 
L 72.52935 39.252783 
L 73.276596 40.060403 
L 74.023842 37.864263 
L 74.771088 38.533344 
L 75.518334 40.504375 
L 76.26558 45.845083 
L 77.012826 39.454213 
L 77.760072 39.273024 
L 78.507318 44.490992 
L 79.254564 44.921772 
L 80.00181 40.75094 
L 80.749056 40.64397 
L 81.496302 45.378703 
L 82.990794 51.348708 
L 83.73804 53.895178 
L 84.485286 42.699481 
L 85.232532 42.392069 
L 85.979778 48.898799 
L 86.727024 45.048953 
L 87.47427 52.456241 
L 88.221516 41.516129 
L 88.968762 46.172456 
L 89.716008 42.36621 
L 90.463254 43.116618 
L 91.2105 48.410798 
L 91.957746 40.954156 
L 92.704992 42.308741 
L 93.452238 40.794737 
L 94.199484 41.366247 
L 94.94673 43.081672 
L 95.693976 41.290408 
L 96.441222 42.785485 
L 97.188468 40.831682 
L 97.935714 42.944857 
L 98.68296 48.045081 
L 99.430206 39.514838 
L 100.177452 39.87999 
L 100.924698 44.978088 
L 101.671944 39.401981 
L 102.41919 40.461045 
L 103.166436 38.031482 
L 103.913682 38.848713 
L 104.660928 37.481622 
L 105.408174 38.427442 
L 106.15542 37.779229 
L 106.902666 36.617867 
L 107.649912 36.209803 
L 108.397158 35.586842 
L 109.144404 35.29206 
L 110.638896 35.034234 
L 111.386142 32.393551 
L 112.133388 32.53723 
L 112.880634 33.421491 
L 113.62788 28.642802 
L 114.375126 28.04361 
L 115.122372 25.015373 
L 115.869618 28.317385 
L 116.616864 32.740053 
L 117.36411 27.897658 
L 118.111356 27.540063 
L 118.858602 31.237383 
L 119.605848 25.460789 
L 120.353094 31.683092 
L 121.10034 26.665749 
L 121.847586 30.758902 
L 122.594832 28.321741 
L 123.342077 31.603774 
L 124.089323 18.688271 
L 124.836569 31.346607 
L 125.583815 30.11093 
L 126.331061 17.508079 
L 127.078307 22.470446 
L 127.825553 23.252733 
L 128.572799 25.986035 
L 129.320045 24.42238 
L 130.067291 17.970079 
L 130.814537 30.50272 
L 131.561783 28.494401 
L 132.309029 19.631545 
L 133.056275 23.681379 
L 133.803521 21.363962 
L 134.550767 28.690872 
L 135.298013 29.383083 
L 136.045259 23.457906 
L 136.792505 32.862315 
L 137.539751 31.037585 
L 138.286997 30.88283 
L 139.034243 33.921584 
L 139.781489 33.14 
L 140.528735 32.705981 
L 141.275981 34.509721 
L 142.023227 33.563997 
L 142.770473 35.320261 
L 143.517719 34.784682 
L 144.264965 35.89762 
L 145.759457 36.789267 
L 146.506703 38.89389 
L 147.253949 37.927905 
L 148.001195 37.930715 
L 148.748441 39.158781 
L 149.495687 39.004707 
L 150.242933 39.853447 
L 150.990179 38.684011 
L 151.737425 40.575184 
L 152.484671 41.163505 
L 153.231917 41.072433 
L 153.979163 39.92608 
L 154.726409 40.841081 
L 155.473655 45.341927 
L 156.220901 48.707261 
L 156.968147 41.764326 
L 157.715393 40.781809 
L 158.462639 43.394723 
L 159.209885 58.262835 
L 159.957131 46.140039 
L 160.704377 46.048091 
L 162.198869 49.777984 
L 162.946115 42.839739 
L 163.693361 41.150242 
L 164.440607 53.432972 
L 165.187853 44.842851 
L 165.935099 45.397159 
L 166.682345 41.02007 
L 167.429591 43.853152 
L 168.176837 47.245545 
L 168.924083 46.567586 
L 169.671329 46.741674 
L 170.418575 41.625913 
L 171.165821 41.708519 
L 171.913067 50.839431 
L 172.660313 43.680613 
L 173.407559 39.562413 
L 174.154805 44.214037 
L 174.902051 41.686461 
L 175.649297 41.870906 
L 176.396543 43.536595 
L 177.143788 41.337952 
L 177.891034 38.274186 
L 178.63828 39.201762 
L 179.385526 37.588823 
L 180.132772 37.87494 
L 180.880018 37.107441 
L 181.627264 36.739986 
L 183.121756 35.512681 
L 183.869002 35.076747 
L 184.616248 34.922098 
L 185.363494 34.982743 
L 186.11074 34.33542 
L 186.857986 30.798204 
L 187.605232 32.780142 
L 188.352478 25.263912 
L 189.099724 32.002387 
L 189.84697 26.476337 
L 190.594216 28.62976 
L 191.341462 32.887697 
L 192.088708 29.876649 
L 192.835954 24.006815 
L 193.5832 25.292789 
L 194.330446 31.604694 
L 195.077692 31.995599 
L 195.824938 25.081912 
L 196.572184 29.739911 
L 197.31943 31.403958 
L 198.066676 27.649775 
L 198.813922 27.124914 
L 199.561168 14.994557 
L 201.05566 30.29806 
L 201.802906 30.964423 
L 202.550152 24.775924 
L 203.297398 28.523555 
L 204.044644 28.756171 
L 204.79189 20.906929 
L 205.539136 31.848257 
L 206.286382 28.610137 
L 207.033628 31.5182 
L 207.780874 32.210818 
L 208.52812 28.347337 
L 209.275366 31.98744 
L 210.022612 29.905955 
L 210.769858 31.905722 
L 211.517104 29.937452 
L 212.26435 32.761231 
L 213.011596 33.814781 
L 213.758842 33.519038 
L 214.506088 27.347823 
L 215.253334 34.631172 
L 216.00058 33.348817 
L 216.747826 34.987984 
L 217.495072 35.236381 
L 218.242318 35.635112 
L 218.989564 35.746432 
L 219.73681 36.424595 
L 221.231302 37.103361 
L 221.978548 37.905039 
L 222.725794 37.762796 
L 223.47304 41.181272 
L 224.220286 38.961333 
L 224.967532 39.502633 
L 225.714778 39.467307 
L 226.462024 43.092064 
L 227.20927 41.753555 
L 228.703762 50.778314 
L 229.451008 41.031443 
L 230.198254 42.689824 
L 230.9455 42.740273 
L 231.692745 41.581932 
L 232.439991 40.72806 
L 233.187237 41.433271 
L 233.934483 41.616286 
L 234.681729 52.473315 
L 235.428975 48.101945 
L 236.176221 47.613384 
L 236.923467 45.448777 
L 237.670713 51.213333 
L 238.417959 43.244313 
L 239.165205 43.604678 
L 239.912451 41.234969 
L 240.659697 41.86719 
L 241.406943 44.184537 
L 242.154189 44.047834 
L 242.901435 44.079325 
L 243.648681 48.913884 
L 244.395927 50.050844 
L 245.143173 42.572095 
L 245.890419 46.099714 
L 246.637665 41.427925 
L 247.384911 41.582605 
L 248.132157 39.485523 
L 248.879403 48.073431 
L 249.626649 39.174242 
L 250.373895 39.827836 
L 251.121141 38.499302 
L 251.868387 38.528696 
L 252.615633 37.938852 
L 253.362879 37.991999 
L 254.110125 42.139072 
L 255.604617 36.844231 
L 257.099109 36.075188 
L 257.846355 35.627074 
L 258.593601 35.496082 
L 259.340847 31.819055 
L 260.088093 30.501729 
L 260.835339 34.597213 
L 261.582585 31.898044 
L 262.329831 32.520919 
L 263.077077 28.302978 
L 263.824323 33.145355 
L 264.571569 31.605858 
L 265.318815 28.862732 
L 266.066061 27.314308 
L 266.813307 30.100802 
L 267.560553 25.624854 
L 268.307799 29.864826 
L 269.055045 30.512925 
L 269.802291 15.98471 
L 270.549537 25.89471 
L 271.296783 31.578429 
L 272.044029 24.772041 
L 272.791275 31.488425 
L 273.538521 28.968595 
L 274.285767 30.142347 
L 275.033013 30.293053 
L 275.780259 22.81245 
L 276.527505 19.67824 
L 277.274751 31.400982 
L 278.021997 28.358116 
L 278.769243 28.591171 
L 279.516489 30.136614 
L 280.263735 23.721544 
L 281.010981 23.995365 
L 281.758227 29.223059 
L 282.505473 32.124259 
L 283.252719 32.368486 
L 283.999965 27.755795 
L 284.747211 27.951109 
L 285.494456 30.694689 
L 286.241702 32.598485 
L 286.988948 33.563795 
L 287.736194 33.859922 
L 288.48344 33.806593 
L 289.230686 34.396979 
L 289.977932 34.657934 
L 290.725178 34.002672 
L 291.472424 34.361032 
L 292.21967 35.476509 
L 292.966916 35.451034 
L 294.461408 36.519453 
L 295.208654 36.810988 
L 295.9559 39.986885 
L 296.703146 38.184062 
L 297.450392 39.256674 
L 298.197638 39.304927 
L 298.944884 41.341258 
L 299.69213 40.398419 
L 300.439376 42.704374 
L 301.186622 51.175147 
L 301.933868 40.99399 
L 302.681114 48.067594 
L 303.42836 40.926338 
L 304.175606 42.472769 
L 304.922852 49.602241 
L 306.417344 41.924563 
L 307.16459 43.63303 
L 307.911836 47.960378 
L 308.659082 42.35827 
L 309.406328 41.611101 
L 310.153574 42.123933 
L 310.90082 41.284722 
L 311.648066 43.632673 
L 312.395312 42.166908 
L 313.142558 45.080575 
L 313.889804 50.875822 
L 314.63705 50.092846 
L 315.384296 44.274408 
L 316.131542 43.864702 
L 316.878788 42.805157 
L 317.626034 53.080786 
L 318.37328 42.18607 
L 319.120526 41.988473 
L 319.867772 42.578834 
L 320.615018 42.757906 
L 321.362264 39.857104 
L 322.10951 43.391905 
L 322.856756 40.07821 
L 323.604002 39.187074 
L 325.098494 38.847174 
L 325.84574 38.993689 
L 326.592986 38.383045 
L 327.340232 40.146784 
L 328.087478 37.747937 
L 328.834724 38.464625 
L 330.329216 36.710409 
L 331.823708 35.967254 
L 332.570954 35.423467 
L 333.3182 33.550012 
L 334.065446 35.066991 
L 334.812692 33.412376 
L 335.559938 30.244217 
L 336.307184 33.773646 
L 337.05443 25.847503 
L 337.801676 30.544313 
L 338.548922 33.502668 
L 339.296167 25.840136 
L 340.043413 29.106494 
L 340.790659 25.510488 
L 341.537905 23.644728 
L 342.285151 32.224731 
L 343.032397 30.187029 
L 343.779643 31.698777 
L 344.526889 30.981115 
L 345.274135 21.204413 
L 346.021381 31.00305 
L 346.768627 27.811414 
L 347.515873 26.90923 
L 348.263119 24.39349 
L 349.010365 21.394432 
L 349.757611 26.761101 
L 350.504857 28.778269 
L 351.252103 24.576208 
L 352.746595 30.537662 
L 353.493841 19.374816 
L 354.241087 30.763521 
L 354.988333 27.906097 
L 355.735579 32.00765 
L 356.482825 31.916772 
L 357.230071 28.819188 
L 357.977317 24.815385 
L 358.724563 29.587888 
L 359.471809 32.363266 
L 360.219055 32.852383 
L 360.966301 25.91961 
L 361.713547 31.836249 
L 362.460793 33.341552 
L 363.208039 34.107054 
L 363.955285 30.4633 
L 364.702531 30.78783 
L 365.449777 33.659075 
L 366.197023 34.829552 
L 366.944269 33.48592 
L 367.691515 35.927841 
L 369.186007 36.549282 
L 369.933253 37.482601 
L 370.680499 41.077723 
L 371.427745 38.039961 
L 372.174991 37.933431 
L 372.922237 38.660906 
L 373.669483 42.341035 
L 375.163975 39.200104 
L 375.911221 42.405403 
L 376.658467 39.881754 
L 377.405713 42.579205 
L 378.152959 39.774542 
L 378.900205 43.252308 
L 379.647451 40.211694 
L 380.394697 41.449328 
L 381.141943 46.908912 
L 381.889189 40.696623 
L 382.636435 41.080874 
L 383.383681 45.511057 
L 384.130927 41.068648 
L 384.878173 42.694907 
L 385.625419 46.668214 
L 386.372665 45.217291 
L 387.119911 41.222391 
L 387.867157 47.518967 
L 388.614403 45.480206 
L 389.361649 42.747036 
L 390.108895 41.64087 
L 390.856141 41.834339 
L 391.603387 54.986305 
L 392.350633 42.280248 
L 393.097878 55.410476 
L 393.845124 40.68182 
L 394.59237 40.220206 
L 395.339616 41.653032 
L 396.086862 44.044644 
L 396.834108 40.699859 
L 397.581354 39.572686 
L 398.3286 40.328797 
L 399.075846 49.097284 
L 399.823092 41.353246 
L 400.570338 40.16772 
L 401.317584 44.68115 
L 402.06483 37.973413 
L 402.812076 41.337674 
L 403.559322 37.640014 
L 404.306568 36.995304 
L 405.053814 36.839765 
L 405.80106 36.341884 
L 406.548306 35.645709 
L 407.295552 34.621813 
L 408.042798 34.481744 
L 408.790044 33.358514 
L 409.53729 34.205482 
L 410.284536 33.044829 
L 411.031782 31.612791 
L 411.779028 31.48929 
L 412.526274 32.910796 
L 413.27352 30.652902 
L 414.020766 19.719428 
L 415.515258 31.055338 
L 416.262504 32.562335 
L 417.00975 32.029542 
L 417.756996 26.976162 
L 418.504242 31.134909 
L 419.251488 25.750842 
L 419.998734 23.824624 
L 420.74598 11.154097 
L 421.493226 31.568819 
L 422.240472 28.458741 
L 422.987718 29.428299 
L 423.734964 25.376219 
L 424.48221 31.409466 
L 424.48221 31.409466 
" clip-path="url(#p34ed832c86)" style="fill: none; stroke: #0271ae; stroke-width: 2; stroke-linecap: round"/>
   </g>
   <g id="legend_1">
    <g id="patch_3">
     <path d="M 61.406463 53.618272 
L 103.610384 53.618272 
Q 106.410384 53.618272 106.410384 50.818272 
L 106.410384 31.30557 
Q 106.410384 28.50557 103.610384 28.50557 
L 61.406463 28.50557 
Q 58.606463 28.50557 58.606463 31.30557 
L 58.606463 50.818272 
Q 58.606463 53.618272 61.406463 53.618272 
z
" style="fill: #ffffff; opacity: 0.95; stroke: #cccccc; stroke-width: 0.5; stroke-linejoin: miter"/>
    </g>
    <g id="line2d_21">
     <path d="M 64.206463 39.185099 
L 71.206463 39.185099 
L 78.206463 39.185099 
" style="fill: none; stroke: #0271ae; stroke-width: 2; stroke-linecap: round"/>
    </g>
    <g id="text_4">
     <!-- $x_s$ -->
     <g style="fill: #0271ae" transform="translate(89.406463 44.085099)scale(0.14 -0.14)">
      <defs>
       <path id="URWPalladioL-Ital-78" d="M 134 567 
C 134 440 122 358 83 153 
C 70 76 64 57 58 12 
C 154 -39 256 -64 333 -64 
C 544 -64 794 121 992 421 
L 1478 1164 
L 1549 726 
C 1632 185 1779 -64 2010 -64 
C 2150 -64 2355 44 2560 230 
L 2874 510 
L 2816 631 
C 2586 440 2426 345 2323 345 
C 2227 345 2144 409 2080 536 
C 2022 656 1952 891 1920 1075 
L 1805 1716 
L 2029 2027 
C 2330 2439 2502 2585 2701 2585 
C 2803 2585 2880 2534 2912 2439 
L 3002 2465 
L 3098 3007 
C 3021 3052 2963 3072 2906 3072 
C 2650 3072 2394 2841 1997 2255 
L 1760 1906 
L 1722 2211 
C 1645 2841 1472 3072 1094 3072 
C 928 3072 787 3020 730 2937 
L 358 2408 
L 467 2344 
C 659 2560 787 2649 909 2649 
C 1120 2649 1261 2389 1370 1767 
L 1440 1373 
L 1184 980 
C 909 555 691 352 512 352 
C 416 352 346 377 333 409 
L 262 586 
L 134 567 
z
" transform="scale(0.015625)"/>
       <path id="URWPalladioL-Ital-73" d="M 198 948 
C 166 624 128 401 58 108 
C 301 -7 518 -64 742 -64 
C 1056 -64 1350 51 1677 306 
C 2003 560 2138 795 2138 1113 
C 2138 1456 1933 1640 1459 1729 
L 1184 1780 
C 800 1850 678 1958 678 2218 
C 678 2555 966 2815 1331 2815 
C 1594 2815 1837 2701 1939 2530 
L 1939 2180 
L 2086 2180 
C 2112 2403 2138 2574 2208 2899 
C 1958 3020 1779 3072 1568 3072 
C 1235 3072 845 2879 538 2574 
C 371 2403 301 2244 301 2015 
C 301 1659 499 1456 922 1373 
L 1325 1297 
C 1606 1246 1709 1132 1709 884 
C 1709 471 1414 192 960 192 
C 736 192 538 261 358 414 
L 358 948 
L 198 948 
z
" transform="scale(0.015625)"/>
      </defs>
      <use xlink:href="#URWPalladioL-Ital-78" transform="scale(0.996264)"/>
      <use xlink:href="#URWPalladioL-Ital-73" transform="translate(52.003975 -14.943915)scale(0.757155)"/>
     </g>
    </g>
   </g>
  </g>
  <g id="axes_2">
   <g id="patch_4">
    <path d="M 51.606463 128.692705 
L 424.48221 128.692705 
L 424.48221 76.873093 
L 51.606463 76.873093 
L 51.606463 128.692705 
z
" style="fill: none"/>
   </g>
   <g id="line2d_22">
    <path d="M 275.48136 128.692705 
L 275.48136 76.873093 
" clip-path="url(#p86b0f2e0df)" style="fill: none; stroke: #dc2830; stroke-opacity: 0.5; stroke-width: 2; stroke-linecap: round"/>
   </g>
   <g id="matplotlib.axis_3">
    <g id="xtick_7">
     <g id="line2d_23">
      <path d="M 51.606463 128.692705 
L 51.606463 76.873093 
" clip-path="url(#p86b0f2e0df)" style="fill: none; stroke: #000000; stroke-opacity: 0.2; stroke-width: 0.5; stroke-linecap: round"/>
     </g>
     <g id="line2d_24">
      <g>
       <use xlink:href="#me3184cd37f" x="51.606463" y="128.692705" style="fill-opacity: 0.2; stroke: #000000; stroke-opacity: 0.2; stroke-width: 0.5"/>
      </g>
     </g>
     <g id="text_5">
      <!-- $\mathdefault{0.0}$ -->
      <g transform="translate(42.889153 154.172234)scale(0.14 -0.14)">
       <use xlink:href="#URWPalladioL-Roma-30" transform="scale(0.996264)"/>
       <use xlink:href="#URWPalladioL-Roma-2e" transform="translate(49.8132 0)scale(0.996264)"/>
       <use xlink:href="#URWPalladioL-Roma-30" transform="translate(74.719801 0)scale(0.996264)"/>
      </g>
     </g>
    </g>
    <g id="xtick_8">
     <g id="line2d_25">
      <path d="M 126.181612 128.692705 
L 126.181612 76.873093 
" clip-path="url(#p86b0f2e0df)" style="fill: none; stroke: #000000; stroke-opacity: 0.2; stroke-width: 0.5; stroke-linecap: round"/>
     </g>
     <g id="line2d_26">
      <g>
       <use xlink:href="#me3184cd37f" x="126.181612" y="128.692705" style="fill-opacity: 0.2; stroke: #000000; stroke-opacity: 0.2; stroke-width: 0.5"/>
      </g>
     </g>
     <g id="text_6">
      <!-- $\mathdefault{0.2}$ -->
      <g transform="translate(117.464302 154.172234)scale(0.14 -0.14)">
       <use xlink:href="#URWPalladioL-Roma-30" transform="scale(0.996264)"/>
       <use xlink:href="#URWPalladioL-Roma-2e" transform="translate(49.8132 0)scale(0.996264)"/>
       <use xlink:href="#URWPalladioL-Roma-32" transform="translate(74.719801 0)scale(0.996264)"/>
      </g>
     </g>
    </g>
    <g id="xtick_9">
     <g id="line2d_27">
      <path d="M 200.756762 128.692705 
L 200.756762 76.873093 
" clip-path="url(#p86b0f2e0df)" style="fill: none; stroke: #000000; stroke-opacity: 0.2; stroke-width: 0.5; stroke-linecap: round"/>
     </g>
     <g id="line2d_28">
      <g>
       <use xlink:href="#me3184cd37f" x="200.756762" y="128.692705" style="fill-opacity: 0.2; stroke: #000000; stroke-opacity: 0.2; stroke-width: 0.5"/>
      </g>
     </g>
     <g id="text_7">
      <!-- $\mathdefault{0.4}$ -->
      <g transform="translate(192.039452 154.172234)scale(0.14 -0.14)">
       <defs>
        <path id="URWPalladioL-Roma-34" d="M 1792 1152 
L 1792 684 
C 1792 310 1722 223 1408 210 
L 1011 192 
L 1011 0 
C 1862 0 1862 0 2016 0 
C 2170 19 2170 19 3021 0 
L 3021 192 
L 2714 210 
C 2400 229 2330 310 2330 684 
L 2330 1152 
C 2707 1152 2842 1145 3021 1127 
L 3021 1580 
C 2720 1555 2598 1555 2502 1561 
L 2483 1561 
L 2330 1561 
L 2330 2445 
C 2330 3576 2342 4122 2374 4383 
L 2298 4416 
L 1824 4243 
L 13 1299 
L 83 1152 
L 1792 1152 
z
M 1792 1561 
L 416 1561 
L 1792 3798 
L 1792 1561 
z
" transform="scale(0.015625)"/>
       </defs>
       <use xlink:href="#URWPalladioL-Roma-30" transform="scale(0.996264)"/>
       <use xlink:href="#URWPalladioL-Roma-2e" transform="translate(49.8132 0)scale(0.996264)"/>
       <use xlink:href="#URWPalladioL-Roma-34" transform="translate(74.719801 0)scale(0.996264)"/>
      </g>
     </g>
    </g>
    <g id="xtick_10">
     <g id="line2d_29">
      <path d="M 275.331911 128.692705 
L 275.331911 76.873093 
" clip-path="url(#p86b0f2e0df)" style="fill: none; stroke: #000000; stroke-opacity: 0.2; stroke-width: 0.5; stroke-linecap: round"/>
     </g>
     <g id="line2d_30">
      <g>
       <use xlink:href="#me3184cd37f" x="275.331911" y="128.692705" style="fill-opacity: 0.2; stroke: #000000; stroke-opacity: 0.2; stroke-width: 0.5"/>
      </g>
     </g>
     <g id="text_8">
      <!-- $\mathdefault{0.6}$ -->
      <g transform="translate(266.614601 154.172234)scale(0.14 -0.14)">
       <defs>
        <path id="URWPalladioL-Roma-36" d="M 2662 4287 
L 2426 4396 
C 1811 4193 1549 4066 1222 3788 
C 563 3237 205 2463 205 1585 
C 205 526 717 -128 1542 -128 
C 2374 -128 2995 532 2995 1405 
C 2995 2143 2554 2624 1875 2624 
C 1555 2624 1363 2540 986 2239 
C 915 2182 909 2175 838 2124 
C 973 3275 1510 3895 2662 4237 
L 2662 4287 
z
M 1632 2239 
C 2118 2239 2445 1816 2445 1180 
C 2445 513 2118 83 1626 83 
C 1082 83 787 551 787 1411 
C 787 1636 813 1758 883 1867 
C 1024 2085 1325 2239 1632 2239 
z
" transform="scale(0.015625)"/>
       </defs>
       <use xlink:href="#URWPalladioL-Roma-30" transform="scale(0.996264)"/>
       <use xlink:href="#URWPalladioL-Roma-2e" transform="translate(49.8132 0)scale(0.996264)"/>
       <use xlink:href="#URWPalladioL-Roma-36" transform="translate(74.719801 0)scale(0.996264)"/>
      </g>
     </g>
    </g>
    <g id="xtick_11">
     <g id="line2d_31">
      <path d="M 349.90706 128.692705 
L 349.90706 76.873093 
" clip-path="url(#p86b0f2e0df)" style="fill: none; stroke: #000000; stroke-opacity: 0.2; stroke-width: 0.5; stroke-linecap: round"/>
     </g>
     <g id="line2d_32">
      <g>
       <use xlink:href="#me3184cd37f" x="349.90706" y="128.692705" style="fill-opacity: 0.2; stroke: #000000; stroke-opacity: 0.2; stroke-width: 0.5"/>
      </g>
     </g>
     <g id="text_9">
      <!-- $\mathdefault{0.8}$ -->
      <g transform="translate(341.18975 154.172234)scale(0.14 -0.14)">
       <defs>
        <path id="URWPalladioL-Roma-38" d="M 1075 2211 
C 813 2089 704 2019 563 1884 
C 320 1640 192 1352 192 1019 
C 192 358 723 -128 1446 -128 
C 2278 -128 2970 525 2970 1320 
C 2970 1833 2733 2108 2003 2442 
C 2586 2839 2790 3108 2790 3493 
C 2790 4044 2336 4416 1658 4416 
C 896 4416 339 3929 339 3256 
C 339 2820 512 2576 1075 2211 
z
M 1818 1890 
C 2221 1711 2464 1397 2464 1051 
C 2464 512 2061 89 1542 89 
C 998 89 646 474 646 1070 
C 646 1538 832 1833 1306 2121 
L 1818 1890 
z
M 1427 2711 
C 1024 2910 819 3166 819 3486 
C 819 3910 1126 4198 1581 4198 
C 2048 4198 2355 3890 2355 3422 
C 2355 3057 2195 2807 1779 2538 
L 1427 2711 
z
" transform="scale(0.015625)"/>
       </defs>
       <use xlink:href="#URWPalladioL-Roma-30" transform="scale(0.996264)"/>
       <use xlink:href="#URWPalladioL-Roma-2e" transform="translate(49.8132 0)scale(0.996264)"/>
       <use xlink:href="#URWPalladioL-Roma-38" transform="translate(74.719801 0)scale(0.996264)"/>
      </g>
     </g>
    </g>
    <g id="xtick_12">
     <g id="line2d_33">
      <path d="M 424.48221 128.692705 
L 424.48221 76.873093 
" clip-path="url(#p86b0f2e0df)" style="fill: none; stroke: #000000; stroke-opacity: 0.2; stroke-width: 0.5; stroke-linecap: round"/>
     </g>
     <g id="line2d_34">
      <g>
       <use xlink:href="#me3184cd37f" x="424.48221" y="128.692705" style="fill-opacity: 0.2; stroke: #000000; stroke-opacity: 0.2; stroke-width: 0.5"/>
      </g>
     </g>
     <g id="text_10">
      <!-- $\mathdefault{1.0}$ -->
      <g transform="translate(415.7649 154.172234)scale(0.14 -0.14)">
       <defs>
        <path id="URWPalladioL-Roma-31" d="M 429 3571 
L 493 3571 
L 1318 3942 
C 1325 3949 1331 3949 1338 3949 
C 1376 3949 1389 3891 1389 3737 
L 1389 633 
C 1389 300 1318 230 973 211 
L 614 192 
L 614 0 
C 1600 0 1600 0 1670 0 
C 1754 0 1894 0 2112 -7 
C 2189 6 2413 6 2675 0 
L 2675 192 
L 2342 211 
C 1990 229 1926 299 1926 628 
L 1926 4383 
L 1837 4416 
C 1421 4199 966 4009 384 3807 
L 429 3571 
z
" transform="scale(0.015625)"/>
       </defs>
       <use xlink:href="#URWPalladioL-Roma-31" transform="scale(0.996264)"/>
       <use xlink:href="#URWPalladioL-Roma-2e" transform="translate(49.8132 0)scale(0.996264)"/>
       <use xlink:href="#URWPalladioL-Roma-30" transform="translate(74.719801 0)scale(0.996264)"/>
      </g>
     </g>
    </g>
    <g id="text_11">
     <!-- Time [seconds] -->
     <g transform="translate(198.371485 170.659282)scale(0.12 -0.12)">
      <defs>
       <path id="URWPalladioL-Roma-54" d="M 1632 4096 
C 1651 3880 1658 3734 1658 3462 
L 1658 781 
C 1658 280 1626 230 1331 211 
L 1024 192 
L 1024 0 
C 1402 -7 1626 0 1958 0 
C 2291 19 2522 12 2899 0 
L 2899 192 
L 2592 211 
C 2298 230 2266 280 2266 781 
L 2266 3462 
C 2266 3747 2272 3887 2291 4096 
L 3283 4096 
C 3462 4096 3533 4039 3539 3887 
L 3565 3386 
L 3763 3386 
C 3763 3801 3776 4051 3808 4416 
C 3347 4409 3136 4409 2957 4403 
C 2707 4390 2522 4390 2426 4390 
L 1414 4390 
C 1350 4390 1005 4396 550 4403 
L 115 4416 
C 147 4051 160 3801 160 3385 
L 358 3385 
L 384 3891 
C 390 4038 461 4096 640 4096 
L 1632 4096 
z
" transform="scale(0.015625)"/>
       <path id="URWPalladioL-Roma-69" d="M 1203 2982 
L 1146 3008 
C 819 2873 486 2784 147 2746 
L 147 2568 
L 384 2568 
C 640 2568 666 2523 666 2103 
L 666 669 
C 666 268 646 223 429 211 
L 134 192 
L 134 0 
C 774 0 774 0 934 0 
C 1094 19 1094 19 1734 0 
L 1734 192 
L 1440 211 
C 1222 224 1203 268 1203 671 
L 1203 2982 
z
M 909 4416 
C 717 4416 550 4249 550 4057 
C 550 3871 717 3705 902 3705 
C 1088 3705 1261 3871 1261 4057 
C 1261 4236 1088 4416 909 4416 
z
" transform="scale(0.015625)"/>
       <path id="URWPalladioL-Roma-6d" d="M 115 2579 
L 352 2579 
C 608 2579 634 2534 634 2112 
L 634 672 
C 634 268 614 224 397 211 
L 102 192 
L 102 0 
C 717 0 736 0 915 0 
C 1094 19 1261 12 1677 0 
L 1677 192 
L 1408 211 
C 1190 223 1171 268 1171 670 
L 1171 2023 
C 1171 2311 1594 2624 1978 2624 
C 2323 2624 2560 2298 2560 1813 
L 2560 670 
C 2560 268 2541 223 2323 211 
L 2029 192 
L 2029 0 
C 2669 0 2669 0 2829 0 
C 2989 19 2989 19 3629 0 
L 3629 192 
L 3334 211 
C 3117 223 3098 268 3098 670 
L 3098 2023 
C 3098 2311 3520 2624 3904 2624 
C 4250 2624 4486 2298 4486 1813 
L 4486 0 
C 4877 0 4883 0 4992 0 
C 5075 19 5075 19 5562 0 
L 5562 192 
L 5261 211 
C 5043 223 5024 268 5024 670 
L 5024 1985 
C 5024 2617 4653 3014 4064 3014 
C 3840 3014 3654 2956 3539 2854 
L 3053 2419 
C 2848 2841 2586 3014 2144 3014 
C 1907 3014 1728 2956 1613 2854 
L 1171 2445 
L 1171 2988 
L 1114 3008 
C 787 2873 454 2783 115 2745 
L 115 2579 
z
" transform="scale(0.015625)"/>
       <path id="URWPalladioL-Roma-65" d="M 2797 447 
L 2714 511 
C 2304 268 2157 211 1882 211 
C 1466 211 1120 396 941 710 
C 819 921 774 1100 762 1472 
L 1696 1472 
C 2138 1472 2413 1491 2854 1561 
C 2861 1651 2867 1708 2867 1786 
C 2867 2526 2394 3008 1677 3008 
C 1440 3008 1165 2924 902 2771 
C 378 2468 166 2069 166 1401 
C 166 998 262 652 435 409 
C 691 70 1120 -128 1600 -128 
C 1837 -128 2074 -77 2336 38 
C 2509 108 2643 192 2669 230 
L 2797 447 
z
M 2298 1708 
C 1965 1696 1811 1689 1581 1689 
C 1286 1689 1120 1696 774 1728 
C 774 2030 800 2172 883 2339 
C 1018 2623 1293 2796 1600 2796 
C 1811 2796 1978 2713 2093 2539 
C 2234 2326 2278 2140 2298 1708 
z
" transform="scale(0.015625)"/>
       <path id="URWPalladioL-Roma-5b" d="M 563 -1178 
C 1018 -1166 1030 -1166 1184 -1166 
C 1338 -1166 1370 -1166 1805 -1178 
L 1843 -1140 
L 1843 -974 
L 1818 -942 
L 1574 -942 
C 1402 -942 1261 -903 1184 -839 
C 1126 -782 1107 -692 1107 -481 
C 1107 -474 1107 -340 1101 -148 
L 1101 89 
L 1101 3379 
L 1101 3615 
C 1107 3795 1107 3935 1107 3942 
C 1107 4153 1126 4249 1184 4307 
C 1261 4371 1402 4409 1574 4409 
L 1818 4409 
L 1843 4441 
L 1843 4608 
L 1805 4646 
C 1357 4633 1338 4633 1184 4633 
C 1037 4633 1005 4633 563 4646 
L 506 4563 
C 544 4403 557 4191 557 3699 
C 557 3603 557 3526 563 3462 
L 563 3379 
L 563 89 
L 563 6 
C 557 -97 557 -103 557 -212 
L 557 -282 
C 557 -718 544 -897 506 -1095 
L 563 -1178 
z
" transform="scale(0.015625)"/>
       <path id="URWPalladioL-Roma-73" d="M 262 917 
C 262 474 243 282 192 25 
C 525 -84 774 -128 1069 -128 
C 1907 -128 2502 320 2502 949 
C 2502 1148 2445 1295 2323 1423 
C 2157 1584 1946 1661 1382 1770 
C 858 1872 685 2001 685 2296 
C 685 2617 909 2796 1299 2796 
C 1728 2796 2054 2572 2054 2270 
L 2054 2123 
L 2234 2123 
C 2240 2495 2246 2649 2266 2847 
C 1926 2963 1696 3008 1434 3008 
C 691 3008 237 2655 237 2078 
C 237 1770 378 1552 672 1417 
C 845 1340 1184 1237 1619 1141 
C 1907 1077 2029 942 2029 698 
C 2029 352 1709 108 1254 108 
C 787 108 454 333 454 654 
L 454 917 
L 262 917 
z
" transform="scale(0.015625)"/>
       <path id="URWPalladioL-Roma-63" d="M 2554 1995 
C 2554 2290 2586 2553 2643 2783 
C 2387 2937 2163 3008 1901 3008 
C 1594 3008 1235 2886 851 2643 
C 403 2360 166 1911 166 1347 
C 166 480 774 -128 1632 -128 
C 1965 -128 2445 -7 2509 89 
L 2643 294 
L 2579 390 
C 2342 262 2138 204 1907 204 
C 1197 204 730 756 730 1603 
C 730 2290 1050 2675 1626 2675 
C 1907 2675 2214 2547 2330 2386 
L 2374 1995 
L 2554 1995 
z
" transform="scale(0.015625)"/>
       <path id="URWPalladioL-Roma-6f" d="M 1786 3008 
C 851 3008 205 2347 205 1391 
C 205 487 774 -128 1600 -128 
C 2586 -128 3290 557 3290 1520 
C 3290 2386 2662 3008 1786 3008 
z
M 1670 2796 
C 2259 2796 2694 2155 2694 1282 
C 2694 545 2368 83 1850 83 
C 1222 83 800 699 800 1609 
C 800 2379 1107 2796 1670 2796 
z
" transform="scale(0.015625)"/>
       <path id="URWPalladioL-Roma-6e" d="M 2624 0 
C 3014 0 3021 0 3130 0 
C 3219 19 3219 19 3661 0 
L 3661 192 
L 3398 211 
C 3181 223 3162 262 3162 670 
L 3162 1902 
C 3162 2649 2810 3014 2093 3014 
C 1856 3014 1722 2969 1587 2854 
L 1101 2432 
L 1101 2988 
L 1043 3008 
C 717 2873 384 2784 45 2746 
L 45 2568 
L 282 2568 
C 538 2568 563 2523 563 2103 
L 563 669 
C 563 268 544 223 326 211 
L 38 192 
L 38 0 
C 474 -7 646 0 832 0 
C 1018 19 1190 12 1626 0 
L 1626 192 
L 1338 211 
C 1120 223 1101 268 1101 670 
L 1101 2023 
C 1101 2311 1523 2624 1914 2624 
C 2342 2624 2624 2304 2624 1813 
L 2624 0 
z
" transform="scale(0.015625)"/>
       <path id="URWPalladioL-Roma-64" d="M 2637 2803 
C 2278 2956 2099 3008 1875 3008 
C 1702 3008 1549 2969 1389 2886 
L 826 2592 
C 461 2400 224 1934 224 1392 
C 224 881 397 460 710 204 
C 928 19 1229 -64 1645 -64 
C 1773 -64 1920 -39 1952 -13 
L 2662 581 
L 2630 0 
C 2944 -7 3046 0 3123 0 
C 3174 0 3264 0 3398 -7 
C 3443 6 3571 6 3706 0 
L 3706 192 
L 3411 211 
C 3194 224 3174 268 3174 672 
L 3174 4614 
L 3117 4665 
C 2835 4557 2624 4505 2118 4429 
L 2118 4249 
L 2477 4249 
C 2592 4249 2637 4179 2637 3987 
L 2637 2803 
z
M 2637 1424 
C 2637 1009 2624 945 2541 798 
C 2362 498 2048 300 1747 300 
C 1184 300 781 843 781 1602 
C 781 2298 1126 2707 1702 2707 
C 1946 2707 2202 2624 2426 2470 
C 2560 2381 2637 2298 2637 2247 
L 2637 1424 
z
" transform="scale(0.015625)"/>
       <path id="URWPalladioL-Roma-5d" d="M 1568 4646 
C 1114 4633 1094 4633 947 4633 
C 794 4633 762 4633 326 4646 
L 288 4608 
L 288 4441 
L 314 4409 
L 557 4409 
C 730 4409 864 4371 941 4307 
C 1005 4249 1024 4159 1024 3942 
C 1024 3923 1024 3795 1030 3615 
L 1030 3379 
L 1030 89 
L 1030 -148 
C 1024 -334 1024 -449 1024 -468 
C 1024 -686 1005 -782 941 -839 
C 864 -903 730 -942 557 -942 
L 314 -942 
L 288 -974 
L 288 -1140 
L 326 -1178 
C 774 -1166 787 -1166 947 -1166 
C 1094 -1166 1126 -1166 1568 -1178 
L 1626 -1095 
C 1587 -942 1581 -743 1574 -250 
C 1574 -161 1574 -78 1568 6 
L 1568 89 
L 1568 3379 
L 1568 3462 
C 1574 3532 1574 3615 1574 3705 
C 1574 4198 1587 4409 1626 4563 
L 1568 4646 
z
" transform="scale(0.015625)"/>
      </defs>
      <use xlink:href="#URWPalladioL-Roma-54" transform="scale(0.996264)"/>
      <use xlink:href="#URWPalladioL-Roma-69" transform="translate(55.591109 0)scale(0.996264)"/>
      <use xlink:href="#URWPalladioL-Roma-6d" transform="translate(84.581471 0)scale(0.996264)"/>
      <use xlink:href="#URWPalladioL-Roma-65" transform="translate(172.551145 0)scale(0.996264)"/>
      <use xlink:href="#URWPalladioL-Roma-5b" transform="translate(245.17804 0)scale(0.996264)"/>
      <use xlink:href="#URWPalladioL-Roma-73" transform="translate(278.35327 0)scale(0.996264)"/>
      <use xlink:href="#URWPalladioL-Roma-65" transform="translate(320.594736 0)scale(0.996264)"/>
      <use xlink:href="#URWPalladioL-Roma-63" transform="translate(368.315031 0)scale(0.996264)"/>
      <use xlink:href="#URWPalladioL-Roma-6f" transform="translate(412.5486 0)scale(0.996264)"/>
      <use xlink:href="#URWPalladioL-Roma-6e" transform="translate(466.94418 0)scale(0.996264)"/>
      <use xlink:href="#URWPalladioL-Roma-64" transform="translate(524.926241 0)scale(0.996264)"/>
      <use xlink:href="#URWPalladioL-Roma-73" transform="translate(585.797872 0)scale(0.996264)"/>
      <use xlink:href="#URWPalladioL-Roma-5d" transform="translate(628.039338 0)scale(0.996264)"/>
     </g>
    </g>
   </g>
   <g id="matplotlib.axis_4">
    <g id="ytick_4">
     <g id="line2d_35">
      <path d="M 51.606463 128.458639 
L 424.48221 128.458639 
" clip-path="url(#p86b0f2e0df)" style="fill: none; stroke: #000000; stroke-opacity: 0.2; stroke-width: 0.5; stroke-linecap: round"/>
     </g>
     <g id="line2d_36">
      <g>
       <use xlink:href="#m2a241dd65d" x="51.606463" y="128.458639" style="fill-opacity: 0.2; stroke: #000000; stroke-opacity: 0.2; stroke-width: 0.5"/>
      </g>
     </g>
     <g id="text_12">
      <!-- $\mathdefault{−2.5}$ -->
      <g transform="translate(7.2 133.448404)scale(0.14 -0.14)">
       <use xlink:href="#CMSY10-0" transform="scale(1.038107)"/>
       <use xlink:href="#URWPalladioL-Roma-32" transform="translate(81.941696 0)scale(0.996264)"/>
       <use xlink:href="#URWPalladioL-Roma-2e" transform="translate(131.754897 0)scale(0.996264)"/>
       <use xlink:href="#URWPalladioL-Roma-35" transform="translate(156.661497 0)scale(0.996264)"/>
      </g>
     </g>
    </g>
    <g id="ytick_5">
     <g id="line2d_37">
      <path d="M 51.606463 104.361418 
L 424.48221 104.361418 
" clip-path="url(#p86b0f2e0df)" style="fill: none; stroke: #000000; stroke-opacity: 0.2; stroke-width: 0.5; stroke-linecap: round"/>
     </g>
     <g id="line2d_38">
      <g>
       <use xlink:href="#m2a241dd65d" x="51.606463" y="104.361418" style="fill-opacity: 0.2; stroke: #000000; stroke-opacity: 0.2; stroke-width: 0.5"/>
      </g>
     </g>
     <g id="text_13">
      <!-- $\mathdefault{0.0}$ -->
      <g transform="translate(18.671843 109.351183)scale(0.14 -0.14)">
       <use xlink:href="#URWPalladioL-Roma-30" transform="scale(0.996264)"/>
       <use xlink:href="#URWPalladioL-Roma-2e" transform="translate(49.8132 0)scale(0.996264)"/>
       <use xlink:href="#URWPalladioL-Roma-30" transform="translate(74.719801 0)scale(0.996264)"/>
      </g>
     </g>
    </g>
    <g id="ytick_6">
     <g id="line2d_39">
      <path d="M 51.606463 80.264198 
L 424.48221 80.264198 
" clip-path="url(#p86b0f2e0df)" style="fill: none; stroke: #000000; stroke-opacity: 0.2; stroke-width: 0.5; stroke-linecap: round"/>
     </g>
     <g id="line2d_40">
      <g>
       <use xlink:href="#m2a241dd65d" x="51.606463" y="80.264198" style="fill-opacity: 0.2; stroke: #000000; stroke-opacity: 0.2; stroke-width: 0.5"/>
      </g>
     </g>
     <g id="text_14">
      <!-- $\mathdefault{2.5}$ -->
      <g transform="translate(18.671843 85.253963)scale(0.14 -0.14)">
       <use xlink:href="#URWPalladioL-Roma-32" transform="scale(0.996264)"/>
       <use xlink:href="#URWPalladioL-Roma-2e" transform="translate(49.8132 0)scale(0.996264)"/>
       <use xlink:href="#URWPalladioL-Roma-35" transform="translate(74.719801 0)scale(0.996264)"/>
      </g>
     </g>
    </g>
   </g>
   <g id="line2d_41">
    <path d="M 200.756762 86.688101 
L 201.504008 98.200801 
L 202.251254 93.851592 
L 202.9985 82.624126 
L 203.745746 86.314042 
L 204.492992 94.300194 
L 205.240238 94.742471 
L 205.987484 99.807124 
L 206.73473 100.051445 
L 207.481976 99.099788 
L 208.229222 100.307548 
L 208.976468 92.953244 
L 209.723713 97.972275 
L 210.470959 100.971924 
L 211.218205 100.262313 
L 211.965451 100.964606 
L 212.712697 96.250047 
L 213.459943 101.861563 
L 214.207189 101.952011 
L 214.954435 100.870932 
L 215.701681 96.67275 
L 216.448927 102.409095 
L 217.196173 102.583955 
L 217.943419 103.305127 
L 218.690665 103.022329 
L 219.437911 104.408082 
L 220.932403 105.023749 
L 221.679649 107.327216 
L 222.426895 108.134837 
L 223.174141 105.938697 
L 223.921387 106.607778 
L 224.668633 108.578808 
L 225.415879 113.919517 
L 226.163125 107.528647 
L 226.910371 107.347457 
L 227.657617 112.565425 
L 228.404863 112.996205 
L 229.152109 108.825373 
L 229.899355 108.718403 
L 230.646601 113.453136 
L 232.141093 119.423141 
L 232.888339 121.969611 
L 233.635585 110.773914 
L 234.382831 110.466502 
L 235.130077 116.973232 
L 235.877323 113.123387 
L 236.624569 120.530675 
L 237.371815 109.590562 
L 238.119061 114.24689 
L 238.866307 110.440644 
L 239.613553 111.191052 
L 240.360799 116.485232 
L 241.108045 109.02859 
L 241.855291 110.383174 
L 242.602537 108.869171 
L 243.349783 109.44068 
L 244.097029 111.156105 
L 244.844275 109.364841 
L 245.591521 110.859918 
L 246.338767 108.906115 
L 247.086013 111.01929 
L 247.833259 116.119515 
L 248.580505 107.589271 
L 249.327751 107.954423 
L 250.074997 113.052521 
L 250.822243 107.476414 
L 251.569489 108.535478 
L 252.316735 106.105915 
L 253.063981 106.923147 
L 253.811227 105.556055 
L 254.558473 106.501876 
L 255.305719 105.853662 
L 256.052965 104.6923 
L 256.800211 104.284237 
L 257.547457 103.661275 
L 258.294703 103.366493 
L 259.789195 103.108667 
L 260.536441 100.467984 
L 261.283687 100.611663 
L 262.030933 101.495924 
L 262.778179 96.717235 
L 263.525424 96.118044 
L 264.27267 93.089806 
L 265.019916 96.391818 
L 265.767162 100.814486 
L 266.514408 95.972091 
L 267.261654 95.614497 
L 268.0089 99.311817 
L 268.756146 93.535222 
L 269.503392 99.757526 
L 270.250638 94.740182 
L 270.997884 98.833335 
L 271.74513 96.396175 
L 272.492376 99.678207 
L 273.239622 86.762704 
L 273.986868 99.421041 
L 274.734114 98.185364 
L 275.48136 85.582512 
L 276.228606 90.544879 
L 276.975852 91.327167 
L 277.723098 94.060468 
L 278.470344 92.496813 
L 279.21759 86.044512 
L 279.964836 98.577153 
L 280.712082 96.568835 
L 281.459328 87.705979 
L 282.206574 91.755812 
L 282.95382 89.438395 
L 283.701066 96.765305 
L 284.448312 97.457516 
L 285.195558 91.532339 
L 285.942804 100.936749 
L 286.69005 99.112018 
L 287.437296 98.957263 
L 288.184542 101.996018 
L 288.931788 101.214434 
L 289.679034 100.780414 
L 290.42628 102.584154 
L 291.173526 101.63843 
L 291.920772 103.394695 
L 292.668018 102.859115 
L 293.415264 103.972053 
L 294.909756 104.8637 
L 295.657002 106.968323 
L 296.404248 106.002339 
L 297.151494 106.005148 
L 297.89874 107.233215 
L 298.645986 107.07914 
L 299.393232 107.927881 
L 300.140478 106.758444 
L 300.887724 108.649618 
L 301.63497 109.237939 
L 302.382216 109.146866 
L 303.129462 108.000514 
L 303.876708 108.915514 
L 304.623954 113.41636 
L 305.3712 116.781694 
L 306.118446 109.83876 
L 306.865692 108.856243 
L 307.612938 111.469157 
L 308.360184 126.337268 
L 309.10743 114.214472 
L 309.854676 114.122524 
L 311.349168 117.852417 
L 312.096414 110.914172 
L 312.84366 109.224675 
L 313.590906 121.507405 
L 314.338152 112.917284 
L 315.085398 113.471592 
L 315.832644 109.094504 
L 316.57989 111.927586 
L 317.327135 115.319978 
L 318.074381 114.642019 
L 318.821627 114.816107 
L 319.568873 109.700346 
L 320.316119 109.782953 
L 321.063365 118.913864 
L 321.810611 111.755046 
L 322.557857 107.636847 
L 323.305103 112.288471 
L 324.052349 109.760895 
L 324.799595 109.945339 
L 325.546841 111.611029 
L 326.294087 109.412385 
L 327.041333 106.34862 
L 327.788579 107.276195 
L 328.535825 105.663256 
L 329.283071 105.949373 
L 330.030317 105.181875 
L 330.777563 104.814419 
L 332.272055 103.587114 
L 333.019301 103.15118 
L 333.766547 102.996531 
L 334.513793 103.057176 
L 335.261039 102.409854 
L 336.008285 98.872638 
L 336.755531 100.854575 
L 337.502777 93.338345 
L 338.250023 100.076821 
L 338.997269 94.55077 
L 339.744515 96.704194 
L 340.491761 100.96213 
L 341.239007 97.951083 
L 341.986253 92.081248 
L 342.733499 93.367222 
L 343.480745 99.679128 
L 344.227991 100.070033 
L 344.975237 93.156345 
L 345.722483 97.814344 
L 346.469729 99.478391 
L 347.216975 95.724209 
L 347.964221 95.199348 
L 348.711467 83.06899 
L 350.205959 98.372493 
L 350.953205 99.038856 
L 351.700451 92.850358 
L 352.447697 96.597988 
L 353.194943 96.830605 
L 353.942189 88.981363 
L 354.689435 99.92269 
L 355.436681 96.68457 
L 356.183927 99.592633 
L 356.931173 100.285251 
L 357.678419 96.42177 
L 358.425665 100.061873 
L 359.172911 97.980389 
L 359.920157 99.980155 
L 360.667403 98.011886 
L 361.414649 100.835664 
L 362.161895 101.889214 
L 362.909141 101.593471 
L 363.656387 95.422257 
L 364.403633 102.705606 
L 365.150879 101.42325 
L 365.898125 103.062417 
L 366.645371 103.310815 
L 367.392617 103.709546 
L 368.139863 103.820865 
L 368.887109 104.499028 
L 370.381601 105.177794 
L 371.128847 105.979473 
L 371.876092 105.83723 
L 372.623338 109.255706 
L 373.370584 107.035766 
L 374.11783 107.577067 
L 374.865076 107.54174 
L 375.612322 111.166497 
L 376.359568 109.827988 
L 377.85406 118.852747 
L 378.601306 109.105876 
L 379.348552 110.764258 
L 380.095798 110.814706 
L 380.843044 109.656365 
L 381.59029 108.802494 
L 382.337536 109.507705 
L 383.084782 109.69072 
L 383.832028 120.547748 
L 384.579274 116.176378 
L 385.32652 115.687817 
L 386.073766 113.523211 
L 386.821012 119.287767 
L 387.568258 111.318746 
L 388.315504 111.679112 
L 389.06275 109.309402 
L 389.809996 109.941623 
L 390.557242 112.25897 
L 391.304488 112.122267 
L 392.051734 112.153759 
L 392.79898 116.988318 
L 393.546226 118.125278 
L 394.293472 110.646529 
L 395.040718 114.174148 
L 395.787964 109.502358 
L 396.53521 109.657039 
L 397.282456 107.559956 
L 398.029702 116.147864 
L 398.776948 107.248675 
L 399.524194 107.90227 
L 400.27144 106.573736 
L 401.018686 106.60313 
L 401.765932 106.013285 
L 402.513178 106.066433 
L 403.260424 110.213505 
L 404.754916 104.918665 
L 406.249408 104.149621 
L 406.996654 103.701507 
L 407.7439 103.570516 
L 408.491146 99.893488 
L 409.238392 98.576162 
L 409.985638 102.671647 
L 410.732884 99.972478 
L 411.48013 100.595352 
L 412.227376 96.377412 
L 412.974622 101.219788 
L 413.721868 99.680292 
L 414.469114 96.937165 
L 415.21636 95.388742 
L 415.963606 98.175236 
L 416.710852 93.699287 
L 417.458098 97.939259 
L 418.205344 98.587358 
L 418.95259 84.059143 
L 419.699836 93.969143 
L 420.447082 99.652862 
L 421.194328 92.846474 
L 421.941574 99.562858 
L 422.68882 97.043028 
L 423.436066 98.216781 
L 424.183312 98.367487 
L 424.930558 90.886883 
L 425.677803 87.752674 
L 426.425049 99.475415 
L 427.172295 96.43255 
L 427.919541 96.665604 
L 428.666787 98.211048 
L 429.414033 91.795978 
L 430.161279 92.069798 
L 430.908525 97.297492 
L 431.655771 100.198692 
L 432.403017 100.44292 
L 433.150263 95.830228 
L 433.897509 96.025542 
L 434.644755 98.769123 
L 435.392001 100.672918 
L 436.139247 101.638229 
L 436.886493 101.934356 
L 437.633739 101.881027 
L 438.380985 102.471413 
L 439.128231 102.732367 
L 439.875477 102.077105 
L 440.622723 102.435466 
L 441.39952 103.549935 
L 441.39952 103.549935 
" clip-path="url(#p86b0f2e0df)" style="fill: none; stroke: #6e3b87; stroke-width: 2; stroke-linecap: round"/>
   </g>
   <g id="line2d_42">
    <path d="M 51.606463 104.361418 
L 200.756762 104.361418 
L 200.756762 86.688101 
" clip-path="url(#p86b0f2e0df)" style="fill: none; stroke: #6e3b87; stroke-opacity: 0.5; stroke-width: 2; stroke-linecap: round"/>
   </g>
   <g id="legend_2">
    <g id="patch_5">
     <path d="M 61.406463 121.692705 
L 107.733852 121.692705 
Q 110.533852 121.692705 110.533852 118.892705 
L 110.533852 99.380003 
Q 110.533852 96.580003 107.733852 96.580003 
L 61.406463 96.580003 
Q 58.606463 96.580003 58.606463 99.380003 
L 58.606463 118.892705 
Q 58.606463 121.692705 61.406463 121.692705 
z
" style="fill: #ffffff; opacity: 0.95; stroke: #cccccc; stroke-width: 0.5; stroke-linejoin: miter"/>
    </g>
    <g id="line2d_43">
     <path d="M 64.206463 107.259533 
L 71.206463 107.259533 
L 78.206463 107.259533 
" style="fill: none; stroke: #6e3b87; stroke-width: 2; stroke-linecap: round"/>
    </g>
    <g id="text_15">
     <!-- $x_m$ -->
     <g style="fill: #6e3b87" transform="translate(89.406463 112.159533)scale(0.14 -0.14)">
      <defs>
       <path id="URWPalladioL-Ital-6d" d="M 4672 651 
L 4506 542 
C 4320 421 4179 351 4115 351 
C 4070 351 4032 408 4032 479 
C 4032 542 4045 600 4077 734 
L 4557 2631 
C 4582 2739 4602 2841 4602 2892 
C 4602 3001 4538 3072 4435 3072 
C 4250 3072 4006 2956 3616 2682 
C 3213 2394 2989 2171 2675 1730 
L 2867 2605 
C 2893 2733 2912 2829 2912 2873 
C 2912 2995 2848 3072 2746 3072 
C 2554 3072 2259 2931 1907 2663 
C 1626 2445 1498 2311 1082 1749 
L 1293 2599 
C 1318 2701 1331 2797 1331 2873 
C 1331 2995 1274 3072 1184 3072 
C 1050 3072 806 2937 333 2599 
L 154 2471 
L 198 2343 
L 403 2477 
C 640 2624 659 2637 704 2637 
C 774 2637 819 2573 819 2477 
C 819 2152 557 919 294 6 
L 314 -64 
L 749 32 
L 890 683 
C 1043 1392 1216 1769 1568 2152 
C 1837 2445 2125 2637 2304 2637 
C 2349 2637 2374 2586 2374 2503 
C 2374 2279 2234 1551 1971 434 
L 1869 6 
L 1901 -64 
L 2342 32 
L 2477 715 
C 2579 1232 2797 1711 3078 2024 
C 3430 2413 3750 2637 3955 2637 
C 4006 2637 4038 2579 4038 2477 
C 4038 2324 4019 2235 3878 1679 
C 3776 1277 3667 894 3603 677 
C 3546 498 3520 332 3520 191 
C 3520 32 3590 -64 3712 -64 
C 3878 -64 4109 70 4736 536 
L 4672 651 
z
" transform="scale(0.015625)"/>
      </defs>
      <use xlink:href="#URWPalladioL-Ital-78" transform="scale(0.996264)"/>
      <use xlink:href="#URWPalladioL-Ital-6d" transform="translate(52.003975 -14.943915)scale(0.757155)"/>
     </g>
    </g>
   </g>
  </g>
  <g id="patch_6">
   <path d="M 129.683053 17.389128 
Q 217.924819 14.257721 275.48136 85.582512 
" style="fill: none; stroke: #dc2830; stroke-width: 3; stroke-linecap: round"/>
   <path d="M 133.751466 19.246012 
L 129.683053 17.389128 
L 133.609609 15.248529 
" style="fill: none; stroke: #dc2830; stroke-width: 3; stroke-linecap: round"/>
  </g>
 </g>
 <defs>
  <clipPath id="p34ed832c86">
   <rect x="51.606463" y="8.79866" width="372.875747" height="51.819612"/>
  </clipPath>
  <clipPath id="p86b0f2e0df">
   <rect x="51.606463" y="76.873093" width="372.875747" height="51.819612"/>
  </clipPath>
 </defs>
</svg>