<?xml version="1.0" encoding="utf-8" standalone="no"?>
<!DOCTYPE svg PUBLIC "-//W3C//DTD SVG 1.1//EN"
  "http://www.w3.org/Graphics/SVG/1.1/DTD/svg11.dtd">
<svg xmlns:xlink="http://www.w3.org/1999/xlink" width="584.39952pt" height="152.39952pt" viewBox="0 0 584.39952 152.39952" xmlns="http://www.w3.org/2000/svg" version="1.1">
 <metadata>
  <rdf:RDF xmlns:dc="http://purl.org/dc/elements/1.1/" xmlns:cc="http://creativecommons.org/ns#" xmlns:rdf="http://www.w3.org/1999/02/22-rdf-syntax-ns#">
   <cc:Work>
    <dc:type rdf:resource="http://purl.org/dc/dcmitype/StillImage"/>
    <dc:date>2022-06-20T10:14:07.327477</dc:date>
    <dc:format>image/svg+xml</dc:format>
    <dc:creator>
     <cc:Agent>
      <dc:title>Matplotlib v3.5.2, https://matplotlib.org/</dc:title>
     </cc:Agent>
    </dc:creator>
   </cc:Work>
  </rdf:RDF>
 </metadata>
 <defs>
  <style type="text/css">*{stroke-linejoin: round; stroke-linecap: butt}</style>
 </defs>
 <g id="figure_1">
  <g id="patch_1">
   <path d="M 0 152.39952 
L 584.39952 152.39952 
L 584.39952 0 
L 0 0 
L 0 152.39952 
z
" style="fill: none"/>
  </g>
  <g id="axes_1">
   <g id="patch_2">
    <path d="M 29.673848 113.086818 
L 271.732122 113.086818 
L 271.732122 7.2 
L 29.673848 7.2 
L 29.673848 113.086818 
z
" style="fill: none"/>
   </g>
   <g id="line2d_1">
    <path d="M 29.673848 91.313325 
L 33.456009 91.122398 
L 37.238169 90.551458 
L 41.02033 89.606003 
L 44.80249 88.295137 
L 48.584651 86.631486 
L 52.366811 84.631071 
L 56.148972 82.313157 
L 59.931132 79.700066 
L 63.713293 76.816966 
L 67.495453 73.691621 
L 73.168694 68.615802 
L 78.841935 63.17301 
L 86.406256 55.549575 
L 101.534898 40.153352 
L 107.208139 34.71056 
L 112.88138 29.634741 
L 116.66354 26.509396 
L 120.445701 23.626295 
L 124.227861 21.013205 
L 128.010022 18.695291 
L 131.792182 16.694876 
L 135.574343 15.031225 
L 139.356504 13.720359 
L 143.138664 12.774904 
L 146.920825 12.203963 
L 150.702985 12.013037 
L 154.485146 12.203963 
L 158.267306 12.774904 
L 162.049467 13.720359 
L 165.831627 15.031225 
L 169.613788 16.694876 
L 173.395948 18.695291 
L 177.178109 21.013205 
L 180.960269 23.626295 
L 184.74243 26.509396 
L 188.52459 29.634741 
L 194.197831 34.71056 
L 199.871072 40.153352 
L 207.435393 47.776787 
L 222.564035 63.17301 
L 228.237276 68.615802 
L 233.910517 73.691621 
L 237.692677 76.816966 
L 241.474838 79.700066 
L 245.256999 82.313157 
L 249.039159 84.631071 
L 252.82132 86.631486 
L 256.60348 88.295137 
L 260.385641 89.606003 
L 264.167801 90.551458 
L 267.949962 91.122398 
L 271.732122 91.313325 
L 271.732122 91.313325 
" clip-path="url(#p441d9f3cb6)" style="fill: none; stroke: #dc2830; stroke-opacity: 0.5; stroke-width: 2; stroke-linecap: round"/>
   </g>
   <g id="matplotlib.axis_1"/>
   <g id="matplotlib.axis_2">
    <g id="ytick_1">
     <g id="line2d_2">
      <path d="M 29.673848 91.313325 
L 271.732122 91.313325 
" clip-path="url(#p441d9f3cb6)" style="fill: none; stroke: #000000; stroke-opacity: 0.2; stroke-width: 0.5; stroke-linecap: round"/>
     </g>
     <g id="line2d_3">
      <defs>
       <path id="m5cc9244a3b" d="M 0 0 
L -3.5 0 
" style="stroke: #000000; stroke-opacity: 0.2; stroke-width: 0.5"/>
      </defs>
      <g>
       <use xlink:href="#m5cc9244a3b" x="29.673848" y="91.313325" style="fill-opacity: 0.2; stroke: #000000; stroke-opacity: 0.2; stroke-width: 0.5"/>
      </g>
     </g>
     <g id="text_1">
      <!-- $\mathdefault{0}$ -->
      <g transform="translate(7.2 96.303089)scale(0.14 -0.14)">
       <defs>
        <path id="URWPalladioL-Roma-30" d="M 1683 4416 
C 691 4416 186 3628 186 2076 
C 186 1326 320 679 544 365 
C 768 51 1126 -128 1523 -128 
C 2490 -128 2976 704 2976 2345 
C 2976 3749 2560 4416 1683 4416 
z
M 1568 4191 
C 2189 4191 2438 3563 2438 2025 
C 2438 660 2195 96 1606 96 
C 986 96 723 743 723 2307 
C 723 3660 960 4191 1568 4191 
z
" transform="scale(0.015625)"/>
       </defs>
       <use xlink:href="#URWPalladioL-Roma-30" transform="scale(0.996264)"/>
      </g>
     </g>
    </g>
   </g>
   <g id="line2d_4">
    <path d="M 29.673848 91.313325 
L 29.673848 92.539956 
L 31.564928 92.539956 
L 31.564928 93.6164 
L 33.456009 93.6164 
L 33.456009 94.371768 
L 35.347089 94.371768 
L 35.347089 94.678933 
L 37.238169 94.678933 
L 37.238169 94.475444 
L 39.129249 94.475444 
L 39.129249 93.775233 
L 41.02033 93.775233 
L 41.02033 92.669075 
L 42.91141 92.669075 
L 42.91141 91.313325 
L 44.80249 91.313325 
L 44.80249 89.908274 
L 46.69357 89.908274 
L 46.69357 88.669053 
L 48.584651 88.669053 
L 48.584651 87.79323 
L 50.475731 87.79323 
L 50.475731 87.42993 
L 52.366811 87.42993 
L 52.366811 87.655187 
L 54.257892 87.655187 
L 54.257892 88.457511 
L 56.148972 88.457511 
L 56.148972 89.736228 
L 58.040052 89.736228 
L 58.040052 91.313325 
L 59.931132 91.313325 
L 59.931132 92.957532 
L 61.822213 92.957532 
L 61.822213 94.41747 
L 63.713293 94.41747 
L 63.713293 95.459214 
L 65.604373 95.459214 
L 65.604373 95.902791 
L 67.495453 95.902791 
L 67.495453 95.652046 
L 69.386534 95.652046 
L 69.386534 94.713103 
L 71.277614 94.713103 
L 71.277614 93.198148 
L 73.168694 93.198148 
L 73.168694 91.313325 
L 75.059774 91.313325 
L 75.059774 89.331844 
L 76.950855 89.331844 
L 76.950855 87.555675 
L 78.841935 87.555675 
L 78.841935 86.271027 
L 80.733015 86.271027 
L 80.733015 85.703977 
L 82.624096 85.703977 
L 82.624096 85.982896 
L 84.515176 85.982896 
L 84.515176 87.113599 
L 86.406256 87.113599 
L 86.406256 88.971574 
L 88.297336 88.971574 
L 88.297336 91.313325 
L 90.188417 91.313325 
L 90.188417 93.806156 
L 92.079497 93.806156 
L 92.079497 96.073014 
L 93.970577 96.073014 
L 93.970577 97.746601 
L 95.861657 97.746601 
L 95.861657 98.525343 
L 97.752738 98.525343 
L 97.752738 98.22314 
L 99.643818 98.22314 
L 99.643818 96.805274 
L 101.534898 96.805274 
L 101.534898 94.404435 
L 103.425978 94.404435 
L 103.425978 91.313325 
L 105.317059 91.313325 
L 105.317059 87.953422 
L 107.208139 87.953422 
L 107.208139 84.822839 
L 109.099219 84.822839 
L 109.099219 82.429276 
L 110.9903 82.429276 
L 110.9903 81.216498 
L 112.88138 81.216498 
L 112.88138 81.494113 
L 114.77246 81.494113 
L 114.77246 83.380509 
L 116.66354 83.380509 
L 116.66354 86.767574 
L 118.554621 86.767574 
L 118.554621 91.313325 
L 120.445701 91.313325 
L 120.445701 96.465175 
L 122.336781 96.465175 
L 122.336781 101.512659 
L 124.227861 101.512659 
L 124.227861 105.66448 
L 126.118942 105.66448 
L 126.118942 108.141368 
L 128.010022 108.141368 
L 128.010022 108.273781 
L 129.901102 108.273781 
L 129.901102 105.592393 
L 131.792182 105.592393 
L 131.792182 99.899743 
L 133.683263 99.899743 
L 133.683263 91.313325 
L 135.574343 91.313325 
L 135.574343 80.273644 
L 137.465423 80.273644 
L 137.465423 67.514877 
L 139.356504 67.514877 
L 139.356504 54.00032 
L 141.247584 54.00032 
L 141.247584 40.829194 
L 143.138664 40.829194 
L 143.138664 29.124984 
L 145.029744 29.124984 
L 145.029744 19.917982 
L 146.920825 19.917982 
L 146.920825 14.035563 
L 148.811905 14.035563 
L 148.811905 12.013037 
L 150.702985 12.013037 
L 150.702985 14.035563 
L 152.594065 14.035563 
L 152.594065 19.917982 
L 154.485146 19.917982 
L 154.485146 29.124984 
L 156.376226 29.124984 
L 156.376226 40.829194 
L 158.267306 40.829194 
L 158.267306 54.00032 
L 160.158386 54.00032 
L 160.158386 67.514877 
L 162.049467 67.514877 
L 162.049467 80.273644 
L 163.940547 80.273644 
L 163.940547 91.313325 
L 165.831627 91.313325 
L 165.831627 99.899743 
L 167.722708 99.899743 
L 167.722708 105.592393 
L 169.613788 105.592393 
L 169.613788 108.273781 
L 171.504868 108.273781 
L 171.504868 108.141368 
L 173.395948 108.141368 
L 173.395948 105.66448 
L 175.287029 105.66448 
L 175.287029 101.512659 
L 177.178109 101.512659 
L 177.178109 96.465175 
L 179.069189 96.465175 
L 179.069189 91.313325 
L 180.960269 91.313325 
L 180.960269 86.767574 
L 182.85135 86.767574 
L 182.85135 83.380509 
L 184.74243 83.380509 
L 184.74243 81.494113 
L 186.63351 81.494113 
L 186.63351 81.216498 
L 188.52459 81.216498 
L 188.52459 82.429276 
L 190.415671 82.429276 
L 190.415671 84.822839 
L 192.306751 84.822839 
L 192.306751 87.953422 
L 194.197831 87.953422 
L 194.197831 91.313325 
L 196.088912 91.313325 
L 196.088912 94.404435 
L 197.979992 94.404435 
L 197.979992 96.805274 
L 199.871072 96.805274 
L 199.871072 98.22314 
L 201.762152 98.22314 
L 201.762152 98.525343 
L 203.653233 98.525343 
L 203.653233 97.746601 
L 205.544313 97.746601 
L 205.544313 96.073014 
L 207.435393 96.073014 
L 207.435393 93.806156 
L 209.326473 93.806156 
L 209.326473 91.313325 
L 211.217554 91.313325 
L 211.217554 88.971574 
L 213.108634 88.971574 
L 213.108634 87.113599 
L 214.999714 87.113599 
L 214.999714 85.982896 
L 216.890794 85.982896 
L 216.890794 85.703977 
L 218.781875 85.703977 
L 218.781875 86.271027 
L 220.672955 86.271027 
L 220.672955 87.555675 
L 222.564035 87.555675 
L 222.564035 89.331844 
L 224.455116 89.331844 
L 224.455116 91.313325 
L 226.346196 91.313325 
L 226.346196 93.198148 
L 228.237276 93.198148 
L 228.237276 94.713103 
L 230.128356 94.713103 
L 230.128356 95.652046 
L 232.019437 95.652046 
L 232.019437 95.902791 
L 233.910517 95.902791 
L 233.910517 95.459214 
L 235.801597 95.459214 
L 235.801597 94.41747 
L 237.692677 94.41747 
L 237.692677 92.957532 
L 239.583758 92.957532 
L 239.583758 91.313325 
L 241.474838 91.313325 
L 241.474838 89.736228 
L 243.365918 89.736228 
L 243.365918 88.457511 
L 245.256999 88.457511 
L 245.256999 87.655187 
L 247.148079 87.655187 
L 247.148079 87.42993 
L 249.039159 87.42993 
L 249.039159 87.79323 
L 250.930239 87.79323 
L 250.930239 88.669053 
L 252.82132 88.669053 
L 252.82132 89.908274 
L 254.7124 89.908274 
L 254.7124 91.313325 
L 256.60348 91.313325 
L 256.60348 92.669075 
L 258.49456 92.669075 
L 258.49456 93.775233 
L 260.385641 93.775233 
L 260.385641 94.475444 
L 262.276721 94.475444 
L 262.276721 94.678933 
L 264.167801 94.678933 
L 264.167801 94.371768 
L 266.058881 94.371768 
L 266.058881 93.6164 
L 267.949962 93.6164 
L 267.949962 92.539956 
L 269.841042 92.539956 
L 269.841042 91.313325 
L 271.732122 91.313325 
L 271.732122 91.313325 
" clip-path="url(#p441d9f3cb6)" style="fill: none; stroke: #0271ae; stroke-width: 2; stroke-linecap: round"/>
   </g>
   <g id="legend_1">
    <g id="patch_3">
     <path d="M 39.473848 145.19952 
L 272.475957 145.19952 
Q 275.275957 145.19952 275.275957 142.39952 
L 275.275957 122.886818 
Q 275.275957 120.086818 272.475957 120.086818 
L 39.473848 120.086818 
Q 36.673848 120.086818 36.673848 122.886818 
L 36.673848 142.39952 
Q 36.673848 145.19952 39.473848 145.19952 
z
" style="fill: #ffffff; opacity: 0.95; stroke: #cccccc; stroke-width: 0.5; stroke-linejoin: miter"/>
    </g>
    <g id="line2d_5">
     <path d="M 42.273848 130.766348 
L 42.273848 130.766348 
L 49.273848 130.766348 
L 49.273848 130.766348 
L 56.273848 130.766348 
" style="fill: none; stroke: #0271ae; stroke-width: 2; stroke-linecap: round"/>
    </g>
    <g id="text_2">
     <!-- Ideal LPF -->
     <g style="fill: #0271ae" transform="translate(67.473848 135.666348)scale(0.14 -0.14)">
      <defs>
       <path id="URWPalladioL-Roma-49" d="M 1382 3633 
C 1382 4135 1414 4185 1709 4204 
L 2016 4223 
L 2016 4416 
C 1549 4396 1408 4396 1075 4396 
C 755 4396 602 4403 141 4416 
L 141 4223 
L 448 4204 
C 742 4185 774 4135 774 3633 
L 774 782 
C 774 280 742 230 448 211 
L 141 192 
L 141 0 
C 518 -7 742 0 1075 0 
C 1408 19 1638 12 2016 0 
L 2016 192 
L 1709 211 
C 1414 230 1382 281 1382 787 
L 1382 3633 
z
" transform="scale(0.015625)"/>
       <path id="URWPalladioL-Roma-64" d="M 2637 2803 
C 2278 2956 2099 3008 1875 3008 
C 1702 3008 1549 2969 1389 2886 
L 826 2592 
C 461 2400 224 1934 224 1392 
C 224 881 397 460 710 204 
C 928 19 1229 -64 1645 -64 
C 1773 -64 1920 -39 1952 -13 
L 2662 581 
L 2630 0 
C 2944 -7 3046 0 3123 0 
C 3174 0 3264 0 3398 -7 
C 3443 6 3571 6 3706 0 
L 3706 192 
L 3411 211 
C 3194 224 3174 268 3174 672 
L 3174 4614 
L 3117 4665 
C 2835 4557 2624 4505 2118 4429 
L 2118 4249 
L 2477 4249 
C 2592 4249 2637 4179 2637 3987 
L 2637 2803 
z
M 2637 1424 
C 2637 1009 2624 945 2541 798 
C 2362 498 2048 300 1747 300 
C 1184 300 781 843 781 1602 
C 781 2298 1126 2707 1702 2707 
C 1946 2707 2202 2624 2426 2470 
C 2560 2381 2637 2298 2637 2247 
L 2637 1424 
z
" transform="scale(0.015625)"/>
       <path id="URWPalladioL-Roma-65" d="M 2797 447 
L 2714 511 
C 2304 268 2157 211 1882 211 
C 1466 211 1120 396 941 710 
C 819 921 774 1100 762 1472 
L 1696 1472 
C 2138 1472 2413 1491 2854 1561 
C 2861 1651 2867 1708 2867 1786 
C 2867 2526 2394 3008 1677 3008 
C 1440 3008 1165 2924 902 2771 
C 378 2468 166 2069 166 1401 
C 166 998 262 652 435 409 
C 691 70 1120 -128 1600 -128 
C 1837 -128 2074 -77 2336 38 
C 2509 108 2643 192 2669 230 
L 2797 447 
z
M 2298 1708 
C 1965 1696 1811 1689 1581 1689 
C 1286 1689 1120 1696 774 1728 
C 774 2030 800 2172 883 2339 
C 1018 2623 1293 2796 1600 2796 
C 1811 2796 1978 2713 2093 2539 
C 2234 2326 2278 2140 2298 1708 
z
" transform="scale(0.015625)"/>
       <path id="URWPalladioL-Roma-61" d="M 2074 544 
L 2042 0 
C 2458 0 2458 0 2541 0 
C 2573 19 2733 12 3014 0 
L 3014 192 
L 2765 204 
C 2611 211 2586 262 2586 576 
L 2586 1751 
C 2586 2688 2317 3027 1574 3027 
C 1299 3027 1043 2956 800 2809 
L 461 2604 
L 461 2187 
L 627 2142 
L 710 2341 
C 845 2642 909 2688 1203 2688 
C 1805 2688 2054 2450 2074 1866 
L 1440 1751 
C 570 1590 205 1289 205 730 
C 205 224 506 -64 1011 -64 
C 1126 -64 1235 -45 1280 -13 
L 2074 544 
z
M 2074 806 
C 1888 544 1485 300 1235 300 
C 979 300 755 537 755 812 
C 755 1049 883 1273 1075 1395 
C 1235 1491 1587 1580 2074 1651 
L 2074 806 
z
" transform="scale(0.015625)"/>
       <path id="URWPalladioL-Roma-6c" d="M 147 4249 
L 506 4249 
C 621 4249 666 4179 666 3987 
L 666 672 
C 666 268 646 224 429 211 
L 134 192 
L 134 0 
C 774 0 774 0 934 0 
C 1094 19 1094 19 1734 0 
L 1734 192 
L 1440 211 
C 1222 224 1203 268 1203 672 
L 1203 4614 
L 1146 4665 
C 864 4557 653 4505 147 4429 
L 147 4249 
z
" transform="scale(0.015625)"/>
       <path id="URWPalladioL-Roma-4c" d="M 1382 3630 
C 1382 4134 1414 4185 1709 4204 
L 2016 4223 
L 2016 4416 
C 1549 4396 1408 4396 1075 4396 
C 755 4396 602 4403 141 4416 
L 141 4223 
L 448 4204 
C 742 4185 774 4134 774 3630 
L 774 606 
C 774 421 717 281 614 230 
L 416 128 
L 416 -20 
C 838 0 883 0 1050 0 
C 1107 0 1210 0 1350 -7 
C 1664 6 2362 0 2541 0 
C 2746 -20 2746 -20 3616 0 
C 3661 275 3686 480 3750 1100 
L 3546 1100 
L 3469 780 
C 3462 761 3456 716 3450 710 
C 3411 524 3366 396 3328 364 
C 3245 313 2688 268 1926 268 
C 1696 268 1549 281 1382 320 
L 1382 3630 
z
" transform="scale(0.015625)"/>
       <path id="URWPalladioL-Roma-50" d="M 1382 4097 
C 1606 4147 1792 4172 2010 4172 
C 2701 4172 3072 3859 3072 3263 
C 3072 2699 2682 2304 2125 2304 
C 1990 2304 1894 2316 1728 2366 
L 1792 2137 
C 1946 2105 2035 2099 2163 2099 
C 3040 2099 3712 2686 3712 3439 
C 3712 4041 3213 4416 2400 4416 
C 2368 4416 2304 4416 2221 4409 
C 1984 4403 1498 4396 1312 4396 
C 1171 4396 1171 4396 147 4416 
L 147 4223 
L 435 4204 
C 723 4185 774 4103 774 3633 
L 774 782 
C 774 280 742 230 448 211 
L 141 192 
L 141 0 
C 518 -7 742 0 1075 0 
C 1408 19 1638 12 2016 0 
L 2016 192 
L 1709 211 
C 1414 230 1382 281 1382 787 
L 1382 4097 
z
" transform="scale(0.015625)"/>
       <path id="URWPalladioL-Roma-46" d="M 1382 2092 
C 1562 2105 1754 2112 2042 2112 
C 2515 2112 2688 2092 2803 2035 
L 2854 1875 
L 2886 1497 
L 3078 1497 
C 3059 2092 3059 2092 3059 2208 
C 3059 2310 3059 2310 3078 2946 
L 2886 2946 
L 2854 2615 
C 2848 2558 2829 2501 2803 2450 
C 2688 2399 2509 2380 2086 2380 
C 1818 2380 1600 2387 1382 2399 
L 1382 4096 
C 1574 4140 1690 4147 2067 4147 
C 2374 4147 2733 4108 2931 4058 
C 3085 4020 3104 3988 3104 3842 
L 3104 3429 
L 3328 3429 
C 3328 3810 3360 4115 3430 4396 
C 3117 4409 2925 4416 2650 4416 
L 1965 4409 
C 1651 4396 1427 4396 1267 4396 
C 1082 4396 1082 4396 141 4416 
L 141 4223 
L 448 4204 
C 742 4185 774 4135 774 3633 
L 774 782 
C 774 280 742 230 448 211 
L 141 192 
L 141 0 
C 518 -7 742 0 1075 0 
C 1408 19 1638 12 2016 0 
L 2016 192 
L 1709 211 
C 1414 230 1382 281 1382 787 
L 1382 2092 
z
" transform="scale(0.015625)"/>
      </defs>
      <use xlink:href="#URWPalladioL-Roma-49" transform="scale(0.996264)"/>
      <use xlink:href="#URWPalladioL-Roma-64" transform="translate(33.574079 0)scale(0.996264)"/>
      <use xlink:href="#URWPalladioL-Roma-65" transform="translate(94.44571 0)scale(0.996264)"/>
      <use xlink:href="#URWPalladioL-Roma-61" transform="translate(142.166005 0)scale(0.996264)"/>
      <use xlink:href="#URWPalladioL-Roma-6c" transform="translate(191.979205 0)scale(0.996264)"/>
      <use xlink:href="#URWPalladioL-Roma-4c" transform="translate(245.876167 0)scale(0.996264)"/>
      <use xlink:href="#URWPalladioL-Roma-50" transform="translate(306.747798 0)scale(0.996264)"/>
      <use xlink:href="#URWPalladioL-Roma-46" transform="translate(366.921393 0)scale(0.996264)"/>
     </g>
    </g>
    <g id="line2d_6">
     <path d="M 154.597639 130.766348 
L 161.597639 130.766348 
L 168.597639 130.766348 
" style="fill: none; stroke: #dc2830; stroke-opacity: 0.5; stroke-width: 2; stroke-linecap: round"/>
    </g>
    <g id="text_3">
     <!-- Hann window -->
     <g style="fill: #dc2830" transform="translate(179.797639 135.666348)scale(0.14 -0.14)">
      <defs>
       <path id="URWPalladioL-Roma-48" d="M 3942 787 
C 3942 281 3910 230 3616 211 
L 3309 192 
L 3309 0 
C 3686 -7 3910 0 4243 0 
C 4576 19 4806 12 5184 0 
L 5184 192 
L 4877 211 
C 4582 230 4550 281 4550 783 
L 4550 3635 
C 4550 4135 4582 4186 4877 4205 
L 5184 4223 
L 5184 4416 
C 4717 4396 4576 4396 4243 4396 
C 3923 4396 3770 4403 3309 4416 
L 3309 4223 
L 3616 4205 
C 3910 4186 3942 4135 3942 3635 
L 3942 2508 
C 3808 2502 3674 2496 3411 2496 
L 1914 2496 
C 1651 2496 1510 2502 1382 2508 
L 1382 3635 
C 1382 4135 1414 4186 1709 4205 
L 2016 4223 
L 2016 4416 
C 1549 4396 1408 4396 1075 4396 
C 755 4396 602 4403 141 4416 
L 141 4223 
L 448 4205 
C 742 4186 774 4135 774 3635 
L 774 783 
C 774 281 742 230 448 211 
L 141 192 
L 141 0 
C 518 -7 742 0 1075 0 
C 1408 19 1638 12 2016 0 
L 2016 192 
L 1709 211 
C 1414 230 1382 281 1382 783 
L 1382 2201 
C 1555 2214 1658 2214 1914 2214 
L 3411 2214 
C 3667 2214 3770 2214 3942 2201 
L 3942 787 
z
" transform="scale(0.015625)"/>
       <path id="URWPalladioL-Roma-6e" d="M 2624 0 
C 3014 0 3021 0 3130 0 
C 3219 19 3219 19 3661 0 
L 3661 192 
L 3398 211 
C 3181 223 3162 262 3162 670 
L 3162 1902 
C 3162 2649 2810 3014 2093 3014 
C 1856 3014 1722 2969 1587 2854 
L 1101 2432 
L 1101 2988 
L 1043 3008 
C 717 2873 384 2784 45 2746 
L 45 2568 
L 282 2568 
C 538 2568 563 2523 563 2103 
L 563 669 
C 563 268 544 223 326 211 
L 38 192 
L 38 0 
C 474 -7 646 0 832 0 
C 1018 19 1190 12 1626 0 
L 1626 192 
L 1338 211 
C 1120 223 1101 268 1101 670 
L 1101 2023 
C 1101 2311 1523 2624 1914 2624 
C 2342 2624 2624 2304 2624 1813 
L 2624 0 
z
" transform="scale(0.015625)"/>
       <path id="URWPalladioL-Roma-77" d="M 2643 3008 
C 2118 1775 2022 1556 1626 651 
L 1088 2434 
C 1069 2492 1062 2544 1062 2595 
C 1062 2692 1146 2744 1306 2750 
L 1562 2763 
L 1562 2943 
C 928 2924 928 2924 800 2924 
C 672 2924 672 2924 38 2943 
L 38 2763 
L 218 2750 
C 397 2738 480 2608 640 2105 
L 1293 -64 
L 1594 -64 
L 2221 1420 
C 2253 1497 2323 1652 2426 1872 
L 2554 2143 
L 3424 -64 
L 3718 -64 
C 3763 70 3814 219 3866 361 
C 3994 742 4134 1142 4160 1181 
L 4595 2189 
C 4787 2621 4864 2731 5005 2750 
L 5171 2763 
L 5171 2943 
C 4646 2924 4646 2924 4544 2924 
C 4442 2924 4442 2924 3917 2943 
L 3917 2763 
L 4134 2750 
C 4294 2744 4384 2666 4384 2550 
C 4384 2479 4371 2402 4339 2318 
L 4019 1413 
C 3968 1271 3917 1142 3712 613 
L 2976 2486 
C 2886 2705 2842 2834 2790 3008 
L 2643 3008 
z
" transform="scale(0.015625)"/>
       <path id="URWPalladioL-Roma-69" d="M 1203 2982 
L 1146 3008 
C 819 2873 486 2784 147 2746 
L 147 2568 
L 384 2568 
C 640 2568 666 2523 666 2103 
L 666 669 
C 666 268 646 223 429 211 
L 134 192 
L 134 0 
C 774 0 774 0 934 0 
C 1094 19 1094 19 1734 0 
L 1734 192 
L 1440 211 
C 1222 224 1203 268 1203 671 
L 1203 2982 
z
M 909 4416 
C 717 4416 550 4249 550 4057 
C 550 3871 717 3705 902 3705 
C 1088 3705 1261 3871 1261 4057 
C 1261 4236 1088 4416 909 4416 
z
" transform="scale(0.015625)"/>
       <path id="URWPalladioL-Roma-6f" d="M 1786 3008 
C 851 3008 205 2347 205 1391 
C 205 487 774 -128 1600 -128 
C 2586 -128 3290 557 3290 1520 
C 3290 2386 2662 3008 1786 3008 
z
M 1670 2796 
C 2259 2796 2694 2155 2694 1282 
C 2694 545 2368 83 1850 83 
C 1222 83 800 699 800 1609 
C 800 2379 1107 2796 1670 2796 
z
" transform="scale(0.015625)"/>
      </defs>
      <use xlink:href="#URWPalladioL-Roma-48" transform="scale(0.996264)"/>
      <use xlink:href="#URWPalladioL-Roma-61" transform="translate(82.888661 0)scale(0.996264)"/>
      <use xlink:href="#URWPalladioL-Roma-6e" transform="translate(132.701861 0)scale(0.996264)"/>
      <use xlink:href="#URWPalladioL-Roma-6e" transform="translate(190.683922 0)scale(0.996264)"/>
      <use xlink:href="#URWPalladioL-Roma-77" transform="translate(273.572583 0)scale(0.996264)"/>
      <use xlink:href="#URWPalladioL-Roma-69" transform="translate(356.660676 0)scale(0.996264)"/>
      <use xlink:href="#URWPalladioL-Roma-6e" transform="translate(385.651038 0)scale(0.996264)"/>
      <use xlink:href="#URWPalladioL-Roma-64" transform="translate(443.633098 0)scale(0.996264)"/>
      <use xlink:href="#URWPalladioL-Roma-6f" transform="translate(504.504729 0)scale(0.996264)"/>
      <use xlink:href="#URWPalladioL-Roma-77" transform="translate(558.900309 0)scale(0.996264)"/>
     </g>
    </g>
   </g>
  </g>
  <g id="axes_2">
   <g id="patch_4">
    <path d="M 335.141246 113.086818 
L 577.19952 113.086818 
L 577.19952 7.2 
L 335.141246 7.2 
L 335.141246 113.086818 
z
" style="fill: none"/>
   </g>
   <g id="line2d_7">
    <path d="M 335.141246 91.313325 
L 335.141246 92.539956 
L 337.032326 92.539956 
L 337.032326 93.6164 
L 338.923406 93.6164 
L 338.923406 94.371768 
L 340.814487 94.371768 
L 340.814487 94.678933 
L 342.705567 94.678933 
L 342.705567 94.475444 
L 344.596647 94.475444 
L 344.596647 93.775233 
L 346.487727 93.775233 
L 346.487727 92.669075 
L 348.378808 92.669075 
L 348.378808 91.313325 
L 350.269888 91.313325 
L 350.269888 89.908274 
L 352.160968 89.908274 
L 352.160968 88.669053 
L 354.052048 88.669053 
L 354.052048 87.79323 
L 355.943129 87.79323 
L 355.943129 87.42993 
L 357.834209 87.42993 
L 357.834209 87.655187 
L 359.725289 87.655187 
L 359.725289 88.457511 
L 361.61637 88.457511 
L 361.61637 89.736228 
L 363.50745 89.736228 
L 363.50745 91.313325 
L 365.39853 91.313325 
L 365.39853 92.957532 
L 367.28961 92.957532 
L 367.28961 94.41747 
L 369.180691 94.41747 
L 369.180691 95.459214 
L 371.071771 95.459214 
L 371.071771 95.902791 
L 372.962851 95.902791 
L 372.962851 95.652046 
L 374.853931 95.652046 
L 374.853931 94.713103 
L 376.745012 94.713103 
L 376.745012 93.198148 
L 378.636092 93.198148 
L 378.636092 91.313325 
L 380.527172 91.313325 
L 380.527172 89.331844 
L 382.418253 89.331844 
L 382.418253 87.555675 
L 384.309333 87.555675 
L 384.309333 86.271027 
L 386.200413 86.271027 
L 386.200413 85.703977 
L 388.091493 85.703977 
L 388.091493 85.982896 
L 389.982574 85.982896 
L 389.982574 87.113599 
L 391.873654 87.113599 
L 391.873654 88.971574 
L 393.764734 88.971574 
L 393.764734 91.313325 
L 395.655814 91.313325 
L 395.655814 93.806156 
L 397.546895 93.806156 
L 397.546895 96.073014 
L 399.437975 96.073014 
L 399.437975 97.746601 
L 401.329055 97.746601 
L 401.329055 98.525343 
L 403.220135 98.525343 
L 403.220135 98.22314 
L 405.111216 98.22314 
L 405.111216 96.805274 
L 407.002296 96.805274 
L 407.002296 94.404435 
L 408.893376 94.404435 
L 408.893376 91.313325 
L 410.784457 91.313325 
L 410.784457 87.953422 
L 412.675537 87.953422 
L 412.675537 84.822839 
L 414.566617 84.822839 
L 414.566617 82.429276 
L 416.457697 82.429276 
L 416.457697 81.216498 
L 418.348778 81.216498 
L 418.348778 81.494113 
L 420.239858 81.494113 
L 420.239858 83.380509 
L 422.130938 83.380509 
L 422.130938 86.767574 
L 424.022018 86.767574 
L 424.022018 91.313325 
L 425.913099 91.313325 
L 425.913099 96.465175 
L 427.804179 96.465175 
L 427.804179 101.512659 
L 429.695259 101.512659 
L 429.695259 105.66448 
L 431.586339 105.66448 
L 431.586339 108.141368 
L 433.47742 108.141368 
L 433.47742 108.273781 
L 435.3685 108.273781 
L 435.3685 105.592393 
L 437.25958 105.592393 
L 437.25958 99.899743 
L 439.150661 99.899743 
L 439.150661 91.313325 
L 441.041741 91.313325 
L 441.041741 80.273644 
L 442.932821 80.273644 
L 442.932821 67.514877 
L 444.823901 67.514877 
L 444.823901 54.00032 
L 446.714982 54.00032 
L 446.714982 40.829194 
L 448.606062 40.829194 
L 448.606062 29.124984 
L 450.497142 29.124984 
L 450.497142 19.917982 
L 452.388222 19.917982 
L 452.388222 14.035563 
L 454.279303 14.035563 
L 454.279303 12.013037 
L 456.170383 12.013037 
L 456.170383 14.035563 
L 458.061463 14.035563 
L 458.061463 19.917982 
L 459.952543 19.917982 
L 459.952543 29.124984 
L 461.843624 29.124984 
L 461.843624 40.829194 
L 463.734704 40.829194 
L 463.734704 54.00032 
L 465.625784 54.00032 
L 465.625784 67.514877 
L 467.516865 67.514877 
L 467.516865 80.273644 
L 469.407945 80.273644 
L 469.407945 91.313325 
L 471.299025 91.313325 
L 471.299025 99.899743 
L 473.190105 99.899743 
L 473.190105 105.592393 
L 475.081186 105.592393 
L 475.081186 108.273781 
L 476.972266 108.273781 
L 476.972266 108.141368 
L 478.863346 108.141368 
L 478.863346 105.66448 
L 480.754426 105.66448 
L 480.754426 101.512659 
L 482.645507 101.512659 
L 482.645507 96.465175 
L 484.536587 96.465175 
L 484.536587 91.313325 
L 486.427667 91.313325 
L 486.427667 86.767574 
L 488.318747 86.767574 
L 488.318747 83.380509 
L 490.209828 83.380509 
L 490.209828 81.494113 
L 492.100908 81.494113 
L 492.100908 81.216498 
L 493.991988 81.216498 
L 493.991988 82.429276 
L 495.883069 82.429276 
L 495.883069 84.822839 
L 497.774149 84.822839 
L 497.774149 87.953422 
L 499.665229 87.953422 
L 499.665229 91.313325 
L 501.556309 91.313325 
L 501.556309 94.404435 
L 503.44739 94.404435 
L 503.44739 96.805274 
L 505.33847 96.805274 
L 505.33847 98.22314 
L 507.22955 98.22314 
L 507.22955 98.525343 
L 509.12063 98.525343 
L 509.12063 97.746601 
L 511.011711 97.746601 
L 511.011711 96.073014 
L 512.902791 96.073014 
L 512.902791 93.806156 
L 514.793871 93.806156 
L 514.793871 91.313325 
L 516.684951 91.313325 
L 516.684951 88.971574 
L 518.576032 88.971574 
L 518.576032 87.113599 
L 520.467112 87.113599 
L 520.467112 85.982896 
L 522.358192 85.982896 
L 522.358192 85.703977 
L 524.249273 85.703977 
L 524.249273 86.271027 
L 526.140353 86.271027 
L 526.140353 87.555675 
L 528.031433 87.555675 
L 528.031433 89.331844 
L 529.922513 89.331844 
L 529.922513 91.313325 
L 531.813594 91.313325 
L 531.813594 93.198148 
L 533.704674 93.198148 
L 533.704674 94.713103 
L 535.595754 94.713103 
L 535.595754 95.652046 
L 537.486834 95.652046 
L 537.486834 95.902791 
L 539.377915 95.902791 
L 539.377915 95.459214 
L 541.268995 95.459214 
L 541.268995 94.41747 
L 543.160075 94.41747 
L 543.160075 92.957532 
L 545.051155 92.957532 
L 545.051155 91.313325 
L 546.942236 91.313325 
L 546.942236 89.736228 
L 548.833316 89.736228 
L 548.833316 88.457511 
L 550.724396 88.457511 
L 550.724396 87.655187 
L 552.615477 87.655187 
L 552.615477 87.42993 
L 554.506557 87.42993 
L 554.506557 87.79323 
L 556.397637 87.79323 
L 556.397637 88.669053 
L 558.288717 88.669053 
L 558.288717 89.908274 
L 560.179798 89.908274 
L 560.179798 91.313325 
L 562.070878 91.313325 
L 562.070878 92.669075 
L 563.961958 92.669075 
L 563.961958 93.775233 
L 565.853038 93.775233 
L 565.853038 94.475444 
L 567.744119 94.475444 
L 567.744119 94.678933 
L 569.635199 94.678933 
L 569.635199 94.371768 
L 571.526279 94.371768 
L 571.526279 93.6164 
L 573.417359 93.6164 
L 573.417359 92.539956 
L 575.30844 92.539956 
L 575.30844 91.313325 
L 577.19952 91.313325 
L 577.19952 91.313325 
" clip-path="url(#p0abc5d171e)" style="fill: none; stroke: #0271ae; stroke-opacity: 0.5; stroke-width: 2; stroke-linecap: round"/>
   </g>
   <g id="matplotlib.axis_3"/>
   <g id="matplotlib.axis_4">
    <g id="ytick_2">
     <g id="line2d_8">
      <path d="M 335.141246 91.313325 
L 577.19952 91.313325 
" clip-path="url(#p0abc5d171e)" style="fill: none; stroke: #000000; stroke-opacity: 0.2; stroke-width: 0.5; stroke-linecap: round"/>
     </g>
     <g id="line2d_9">
      <g>
       <use xlink:href="#m5cc9244a3b" x="335.141246" y="91.313325" style="fill-opacity: 0.2; stroke: #000000; stroke-opacity: 0.2; stroke-width: 0.5"/>
      </g>
     </g>
    </g>
   </g>
   <g id="line2d_10">
    <path d="M 335.141246 91.313325 
L 335.141246 91.314045 
L 352.160968 91.247569 
L 352.160968 91.16113 
L 355.943129 91.06921 
L 355.943129 90.994309 
L 361.61637 90.997346 
L 361.61637 91.114183 
L 363.50745 91.114183 
L 363.50745 91.313325 
L 365.39853 91.313325 
L 365.39853 91.576555 
L 367.28961 91.576555 
L 367.28961 91.86652 
L 369.180691 91.86652 
L 369.180691 92.130367 
L 371.071771 92.130367 
L 371.071771 92.307556 
L 374.853931 92.340935 
L 374.853931 92.189322 
L 376.745012 92.189322 
L 376.745012 91.839253 
L 378.636092 91.839253 
L 378.636092 91.313325 
L 380.527172 91.313325 
L 380.527172 90.672856 
L 382.418253 90.672856 
L 382.418253 90.013386 
L 384.309333 90.013386 
L 384.309333 89.452703 
L 386.200413 89.452703 
L 386.200413 89.112519 
L 389.982574 89.096299 
L 389.982574 89.466858 
L 391.873654 89.466858 
L 391.873654 90.227868 
L 393.764734 90.227868 
L 393.764734 91.313325 
L 395.655814 91.313325 
L 395.655814 92.588056 
L 397.546895 92.588056 
L 397.546895 93.8608 
L 399.437975 93.8608 
L 399.437975 94.909293 
L 401.329055 94.909293 
L 401.329055 95.514587 
L 405.111216 95.499842 
L 405.111216 94.76742 
L 407.002296 94.76742 
L 407.002296 93.327663 
L 408.893376 93.327663 
L 408.893376 91.313325 
L 410.784457 91.313325 
L 410.784457 88.975339 
L 412.675537 88.975339 
L 412.675537 86.658222 
L 414.566617 86.658222 
L 414.566617 84.756576 
L 416.457697 84.756576 
L 416.457697 83.657415 
L 420.239858 83.675847 
L 420.239858 84.993483 
L 422.130938 84.993483 
L 422.130938 87.609507 
L 424.022018 87.609507 
L 424.022018 91.313325 
L 425.913099 91.313325 
L 425.913099 95.685244 
L 427.804179 95.685244 
L 427.804179 100.127981 
L 429.695259 100.127981 
L 429.695259 103.927383 
L 431.586339 103.927383 
L 431.586339 106.336288 
L 433.47742 106.336288 
L 433.47742 106.671587 
L 435.3685 106.671587 
L 435.3685 104.411886 
L 437.25958 104.411886 
L 437.25958 99.282232 
L 439.150661 99.282232 
L 439.150661 91.313325 
L 441.041741 91.313325 
L 441.041741 80.865497 
L 442.932821 80.865497 
L 442.932821 68.612142 
L 444.823901 68.612142 
L 444.823901 55.482599 
L 446.714982 55.482599 
L 446.714982 42.570067 
L 448.606062 42.570067 
L 448.606062 31.015095 
L 450.497142 31.015095 
L 450.497142 21.878833 
L 452.388222 21.878833 
L 452.388222 16.021962 
L 454.279303 16.021962 
L 454.279303 14.004864 
L 456.170383 14.004864 
L 456.170383 16.021962 
L 458.061463 16.021962 
L 458.061463 21.878833 
L 459.952543 21.878833 
L 459.952543 31.015095 
L 461.843624 31.015095 
L 461.843624 42.570067 
L 463.734704 42.570067 
L 463.734704 55.482599 
L 465.625784 55.482599 
L 465.625784 68.612142 
L 467.516865 68.612142 
L 467.516865 80.865497 
L 469.407945 80.865497 
L 469.407945 91.313325 
L 471.299025 91.313325 
L 471.299025 99.282232 
L 473.190105 99.282232 
L 473.190105 104.411886 
L 475.081186 104.411886 
L 475.081186 106.671587 
L 476.972266 106.671587 
L 476.972266 106.336288 
L 478.863346 106.336288 
L 478.863346 103.927383 
L 480.754426 103.927383 
L 480.754426 100.127981 
L 482.645507 100.127981 
L 482.645507 95.685244 
L 484.536587 95.685244 
L 484.536587 91.313325 
L 486.427667 91.313325 
L 486.427667 87.609507 
L 488.318747 87.609507 
L 488.318747 84.993483 
L 490.209828 84.993483 
L 490.209828 83.675847 
L 493.991988 83.657415 
L 493.991988 84.756576 
L 495.883069 84.756576 
L 495.883069 86.658222 
L 497.774149 86.658222 
L 497.774149 88.975339 
L 499.665229 88.975339 
L 499.665229 91.313325 
L 501.556309 91.313325 
L 501.556309 93.327663 
L 503.44739 93.327663 
L 503.44739 94.76742 
L 505.33847 94.76742 
L 505.33847 95.499842 
L 509.12063 95.514587 
L 509.12063 94.909293 
L 511.011711 94.909293 
L 511.011711 93.8608 
L 512.902791 93.8608 
L 512.902791 92.588056 
L 514.793871 92.588056 
L 514.793871 91.313325 
L 516.684951 91.313325 
L 516.684951 90.227868 
L 518.576032 90.227868 
L 518.576032 89.466858 
L 520.467112 89.466858 
L 520.467112 89.096299 
L 524.249273 89.112519 
L 524.249273 89.452703 
L 526.140353 89.452703 
L 526.140353 90.013386 
L 528.031433 90.013386 
L 528.031433 90.672856 
L 529.922513 90.672856 
L 529.922513 91.313325 
L 531.813594 91.313325 
L 531.813594 91.839253 
L 533.704674 91.839253 
L 533.704674 92.189322 
L 535.595754 92.189322 
L 535.595754 92.340935 
L 539.377915 92.307556 
L 539.377915 92.130367 
L 541.268995 92.130367 
L 541.268995 91.86652 
L 543.160075 91.86652 
L 543.160075 91.576555 
L 545.051155 91.576555 
L 545.051155 91.313325 
L 546.942236 91.313325 
L 546.942236 91.114183 
L 548.833316 91.114183 
L 548.833316 90.997346 
L 556.397637 91.06921 
L 556.397637 91.16113 
L 560.179798 91.247569 
L 560.179798 91.313325 
L 577.19952 91.313325 
L 577.19952 91.313325 
" clip-path="url(#p0abc5d171e)" style="fill: none; stroke: #6e3b87; stroke-width: 2; stroke-linecap: round"/>
   </g>
   <g id="legend_2">
    <g id="patch_5">
     <path d="M 323.225621 145.19952 
L 567.39952 145.19952 
Q 570.19952 145.19952 570.19952 142.39952 
L 570.19952 122.886818 
Q 570.19952 120.086818 567.39952 120.086818 
L 323.225621 120.086818 
Q 320.425621 120.086818 320.425621 122.886818 
L 320.425621 142.39952 
Q 320.425621 145.19952 323.225621 145.19952 
z
" style="fill: #ffffff; opacity: 0.95; stroke: #cccccc; stroke-width: 0.5; stroke-linejoin: miter"/>
    </g>
    <g id="line2d_11">
     <path d="M 326.025621 130.766348 
L 326.025621 130.766348 
L 333.025621 130.766348 
L 333.025621 130.766348 
L 340.025621 130.766348 
" style="fill: none; stroke: #6e3b87; stroke-width: 2; stroke-linecap: round"/>
    </g>
    <g id="text_4">
     <!-- Windowed filter -->
     <g style="fill: #6e3b87" transform="translate(351.225621 135.666348)scale(0.14 -0.14)">
      <defs>
       <path id="URWPalladioL-Roma-57" d="M 4698 -64 
C 4723 32 4742 121 4749 153 
C 4768 217 4819 410 4870 583 
L 5850 4031 
C 5888 4146 5952 4204 6093 4217 
L 6298 4236 
L 6298 4428 
L 5626 4409 
C 5562 4409 5562 4409 4954 4428 
L 4954 4236 
L 5210 4217 
C 5434 4197 5504 4165 5510 4063 
C 5510 4044 5510 4024 5504 4005 
L 4659 871 
L 3610 3826 
C 3469 4210 3450 4262 3398 4480 
L 3194 4480 
C 3059 4082 2950 3794 2618 2935 
L 1824 916 
L 1184 3794 
C 1165 3871 1158 3941 1158 4005 
C 1158 4146 1222 4204 1395 4217 
L 1664 4236 
L 1664 4428 
L 858 4409 
C 813 4409 544 4415 51 4428 
L 51 4236 
L 230 4217 
C 416 4197 493 4127 550 3896 
L 1312 595 
C 1395 230 1395 224 1459 -64 
L 1779 -64 
C 1837 140 1888 294 2010 595 
L 3123 3428 
L 3923 1256 
C 4134 685 4154 634 4378 -64 
L 4698 -64 
z
" transform="scale(0.015625)"/>
       <path id="URWPalladioL-Roma-2" d="M 2182 4601 
C 2048 4652 1971 4672 1888 4672 
C 1683 4672 1459 4563 1318 4403 
L 947 3981 
C 762 3770 678 3482 678 3060 
L 678 2792 
L 237 2594 
L 237 2453 
L 678 2479 
L 678 671 
C 678 268 659 223 442 211 
L 147 192 
L 147 0 
C 787 0 787 0 954 0 
C 1107 19 1286 12 1786 0 
L 1786 192 
L 1453 211 
C 1235 223 1216 268 1216 669 
L 1216 2472 
L 1946 2472 
L 1990 2810 
L 1216 2784 
L 1216 3329 
C 1216 4069 1299 4249 1664 4249 
C 1837 4249 1952 4204 2106 4069 
L 2182 4107 
L 2182 4601 
z
M 3226 2963 
L 3168 3008 
C 2886 2867 2547 2778 2170 2733 
L 2170 2555 
L 2406 2555 
C 2662 2555 2688 2510 2688 2090 
L 2688 669 
C 2688 268 2669 223 2451 211 
L 2157 192 
L 2157 0 
C 2797 0 2797 0 2957 0 
C 3117 19 3117 19 3757 0 
L 3757 192 
L 3462 211 
C 3245 224 3226 268 3226 671 
L 3226 2963 
z
M 2989 4416 
C 2797 4416 2630 4249 2630 4057 
C 2630 3871 2797 3705 2982 3705 
C 3168 3705 3341 3871 3341 4057 
C 3341 4236 3168 4416 2989 4416 
z
" transform="scale(0.015625)"/>
       <path id="URWPalladioL-Roma-74" d="M 627 2457 
L 627 614 
C 627 140 838 -64 1331 -64 
C 1478 -64 1632 -32 1670 12 
L 1978 352 
L 1894 460 
C 1734 371 1638 339 1517 339 
C 1267 339 1165 467 1165 780 
L 1165 2457 
L 1984 2457 
L 2042 2803 
L 1165 2764 
L 1165 3008 
C 1165 3277 1184 3507 1235 3917 
L 1158 3987 
C 1005 3891 813 3808 614 3744 
C 634 3552 640 3430 640 3238 
L 640 2790 
L 141 2566 
L 141 2432 
L 627 2457 
z
" transform="scale(0.015625)"/>
       <path id="URWPalladioL-Roma-72" d="M 147 2579 
L 384 2579 
C 640 2579 666 2534 666 2112 
L 666 672 
C 666 268 646 224 429 211 
L 134 192 
L 134 0 
C 595 -7 762 0 922 0 
C 1050 19 1050 19 1837 0 
L 1837 192 
L 1504 211 
C 1216 230 1203 249 1203 669 
L 1203 1763 
C 1203 2145 1459 2463 1773 2463 
C 1965 2463 2099 2374 2202 2171 
L 2336 2171 
L 2394 2937 
C 2323 2982 2208 3008 2093 3008 
C 1901 3008 1696 2905 1562 2745 
L 1203 2324 
L 1203 2982 
L 1146 3008 
C 819 2873 486 2783 147 2745 
L 147 2579 
z
" transform="scale(0.015625)"/>
      </defs>
      <use xlink:href="#URWPalladioL-Roma-57" transform="scale(0.996264)"/>
      <use xlink:href="#URWPalladioL-Roma-69" transform="translate(94.147679 0)scale(0.996264)"/>
      <use xlink:href="#URWPalladioL-Roma-6e" transform="translate(123.13804 0)scale(0.996264)"/>
      <use xlink:href="#URWPalladioL-Roma-64" transform="translate(181.120101 0)scale(0.996264)"/>
      <use xlink:href="#URWPalladioL-Roma-6f" transform="translate(241.991731 0)scale(0.996264)"/>
      <use xlink:href="#URWPalladioL-Roma-77" transform="translate(296.387312 0)scale(0.996264)"/>
      <use xlink:href="#URWPalladioL-Roma-65" transform="translate(379.475405 0)scale(0.996264)"/>
      <use xlink:href="#URWPalladioL-Roma-64" transform="translate(427.1957 0)scale(0.996264)"/>
      <use xlink:href="#URWPalladioL-Roma-2" transform="translate(512.973931 0)scale(0.996264)"/>
      <use xlink:href="#URWPalladioL-Roma-6c" transform="translate(573.247189 0)scale(0.996264)"/>
      <use xlink:href="#URWPalladioL-Roma-74" transform="translate(602.23755 0)scale(0.996264)"/>
      <use xlink:href="#URWPalladioL-Roma-65" transform="translate(634.714638 0)scale(0.996264)"/>
      <use xlink:href="#URWPalladioL-Roma-72" transform="translate(682.434933 0)scale(0.996264)"/>
     </g>
    </g>
    <g id="line2d_12">
     <path d="M 480.275729 130.766348 
L 480.275729 130.766348 
L 487.275729 130.766348 
L 487.275729 130.766348 
L 494.275729 130.766348 
" style="fill: none; stroke: #0271ae; stroke-opacity: 0.5; stroke-width: 2; stroke-linecap: round"/>
    </g>
    <g id="text_5">
     <!-- Ideal LPF -->
     <g style="fill: #0271ae" transform="translate(505.475729 135.666348)scale(0.14 -0.14)">
      <use xlink:href="#URWPalladioL-Roma-49" transform="scale(0.996264)"/>
      <use xlink:href="#URWPalladioL-Roma-64" transform="translate(33.574079 0)scale(0.996264)"/>
      <use xlink:href="#URWPalladioL-Roma-65" transform="translate(94.44571 0)scale(0.996264)"/>
      <use xlink:href="#URWPalladioL-Roma-61" transform="translate(142.166005 0)scale(0.996264)"/>
      <use xlink:href="#URWPalladioL-Roma-6c" transform="translate(191.979205 0)scale(0.996264)"/>
      <use xlink:href="#URWPalladioL-Roma-4c" transform="translate(245.876167 0)scale(0.996264)"/>
      <use xlink:href="#URWPalladioL-Roma-50" transform="translate(306.747798 0)scale(0.996264)"/>
      <use xlink:href="#URWPalladioL-Roma-46" transform="translate(366.921393 0)scale(0.996264)"/>
     </g>
    </g>
   </g>
  </g>
 </g>
 <defs>
  <clipPath id="p441d9f3cb6">
   <rect x="29.673848" y="7.2" width="242.058274" height="105.886818"/>
  </clipPath>
  <clipPath id="p0abc5d171e">
   <rect x="335.141246" y="7.2" width="242.058274" height="105.886818"/>
  </clipPath>
 </defs>
</svg>