<?xml version="1.0" encoding="utf-8" standalone="no"?>
<!DOCTYPE svg PUBLIC "-//W3C//DTD SVG 1.1//EN"
  "http://www.w3.org/Graphics/SVG/1.1/DTD/svg11.dtd">
<svg xmlns:xlink="http://www.w3.org/1999/xlink" width="728.39952pt" height="152.39952pt" viewBox="0 0 728.39952 152.39952" xmlns="http://www.w3.org/2000/svg" version="1.1">
 <metadata>
  <rdf:RDF xmlns:dc="http://purl.org/dc/elements/1.1/" xmlns:cc="http://creativecommons.org/ns#" xmlns:rdf="http://www.w3.org/1999/02/22-rdf-syntax-ns#">
   <cc:Work>
    <dc:type rdf:resource="http://purl.org/dc/dcmitype/StillImage"/>
    <dc:date>2022-07-26T12:37:41.191521</dc:date>
    <dc:format>image/svg+xml</dc:format>
    <dc:creator>
     <cc:Agent>
      <dc:title>Matplotlib v3.5.2, https://matplotlib.org/</dc:title>
     </cc:Agent>
    </dc:creator>
   </cc:Work>
  </rdf:RDF>
 </metadata>
 <defs>
  <style type="text/css">*{stroke-linejoin: round; stroke-linecap: butt}</style>
 </defs>
 <g id="figure_1">
  <g id="patch_1">
   <path d="M 0 152.39952 
L 728.39952 152.39952 
L 728.39952 0 
L 0 0 
L 0 152.39952 
z
" style="fill: none"/>
  </g>
  <g id="axes_1">
   <g id="patch_2">
    <path d="M 41.145691 99.861659 
L 640.405172 99.861659 
L 640.405172 7.2 
L 41.145691 7.2 
L 41.145691 99.861659 
z
" style="fill: none"/>
   </g>
   <g id="line2d_1">
    <path d="M 49.468739 16.466166 
L 50.636301 16.522392 
L 52.971425 16.971174 
L 55.306549 17.863298 
L 57.641672 19.187943 
L 59.976796 20.929048 
L 62.31192 23.065498 
L 64.647044 25.571385 
L 66.982167 28.416323 
L 69.317291 31.565812 
L 72.819977 36.776636 
L 76.322663 42.444014 
L 82.160472 52.480891 
L 89.165843 64.561964 
L 92.668529 70.232964 
L 96.171215 75.448829 
L 98.506339 78.6024 
L 100.841462 81.451941 
L 103.176586 83.962897 
L 105.51171 86.104818 
L 107.846834 87.85173 
L 110.181958 89.182451 
L 112.517081 90.080842 
L 114.852205 90.536009 
L 116.019767 90.595447 
L 117.187329 90.542433 
L 119.522453 90.100036 
L 121.857576 89.214183 
L 124.1927 87.895615 
L 126.527824 86.160323 
L 128.862948 84.02935 
L 131.198072 81.528536 
L 133.533195 78.688208 
L 135.868319 75.54281 
L 139.371005 70.337039 
L 142.873691 64.673298 
L 147.543938 56.677274 
L 155.716871 42.555402 
L 159.219557 36.880794 
L 162.722243 31.659901 
L 165.057367 28.502256 
L 167.39249 25.648119 
L 169.727614 23.132102 
L 172.062738 20.984715 
L 174.397862 19.231998 
L 176.732985 17.895207 
L 179.068109 16.99055 
L 181.403233 16.528999 
L 182.570795 16.466349 
L 183.738357 16.516151 
L 186.073481 16.952161 
L 188.408604 17.831742 
L 190.743728 19.144228 
L 193.078852 20.873703 
L 195.413976 22.999195 
L 197.7491 25.494929 
L 200.084223 28.330639 
L 202.419347 31.47194 
L 205.922033 36.672644 
L 209.424719 42.332736 
L 214.094966 50.326261 
L 222.267899 64.450521 
L 225.770585 70.128724 
L 229.273271 75.354632 
L 231.608394 78.516344 
L 233.943518 81.375069 
L 236.278642 83.896142 
L 238.613766 86.048989 
L 240.94889 87.807505 
L 243.284013 89.150365 
L 245.619137 90.061285 
L 247.954261 90.529218 
L 249.121823 90.59508 
L 250.289385 90.548491 
L 252.624509 90.118869 
L 254.959632 89.245562 
L 257.294756 87.93916 
L 259.62988 86.215506 
L 261.965004 84.095501 
L 264.300128 81.604854 
L 266.635251 78.773767 
L 268.970375 75.636572 
L 272.473061 70.440948 
L 275.975746 64.784521 
L 280.645994 56.793513 
L 288.818927 42.666899 
L 292.321613 36.985117 
L 295.824299 31.754207 
L 298.159422 28.588436 
L 300.494546 25.725129 
L 302.82967 23.199007 
L 305.164794 21.040705 
L 307.499918 19.276394 
L 309.835041 17.927469 
L 312.170165 17.010288 
L 314.505289 16.535973 
L 315.672851 16.4669 
L 316.840413 16.510277 
L 319.175537 16.93351 
L 321.51066 17.80054 
L 323.845784 19.100854 
L 326.180908 20.818683 
L 328.516032 22.933195 
L 330.851155 25.41875 
L 333.186279 28.245206 
L 335.521403 31.378287 
L 339.024089 36.568819 
L 342.526774 42.221568 
L 347.197022 50.210039 
L 355.369955 64.33897 
L 358.872641 70.024319 
L 362.375327 75.260218 
L 364.71045 78.43004 
L 367.045574 81.297921 
L 369.380698 83.829086 
L 371.715822 85.992838 
L 374.050946 87.76294 
L 376.386069 89.117927 
L 378.721193 90.041366 
L 381.056317 90.522061 
L 382.223879 90.594345 
L 383.391441 90.554181 
L 385.726564 90.137338 
L 388.061688 89.276586 
L 390.396812 87.982364 
L 392.731936 86.270365 
L 395.06706 84.16135 
L 397.402183 81.680894 
L 399.737307 78.859076 
L 402.072431 75.730115 
L 405.575117 70.544689 
L 409.077802 64.895632 
L 413.74805 56.909719 
L 421.920983 42.778504 
L 425.423669 37.089604 
L 428.926355 31.848729 
L 431.261478 28.674864 
L 433.596602 25.802414 
L 435.931726 23.266213 
L 438.26685 21.097017 
L 440.601973 19.321128 
L 442.937097 17.960084 
L 445.272221 17.030388 
L 447.607345 16.543314 
L 448.774907 16.467819 
L 449.942469 16.50477 
L 452.277592 16.915222 
L 454.612716 17.769693 
L 456.94784 19.057821 
L 459.282964 20.763986 
L 461.618088 22.867499 
L 463.953211 25.34285 
L 466.288335 28.160022 
L 468.623459 31.284854 
L 472.126145 36.465163 
L 475.62883 42.110513 
L 480.299078 50.093849 
L 488.472011 64.227312 
L 491.974697 69.91975 
L 495.477382 75.165588 
L 497.812506 78.343489 
L 500.14763 81.220498 
L 502.482754 83.76173 
L 504.817878 85.936366 
L 507.153001 87.718036 
L 509.488125 89.085135 
L 511.823249 90.021086 
L 514.158373 90.514537 
L 515.325935 90.593243 
L 516.493497 90.559505 
L 518.82862 90.155445 
L 521.163744 89.307257 
L 523.498868 88.025226 
L 525.833992 86.324899 
L 528.169115 84.226894 
L 530.504239 81.756654 
L 532.839363 78.944134 
L 535.174487 75.823439 
L 538.677173 70.648261 
L 542.179858 65.006631 
L 546.850106 57.025892 
L 556.190601 40.951474 
L 559.693287 35.387172 
L 563.195972 30.317287 
L 565.531096 27.280936 
L 567.86622 24.562904 
L 570.201344 22.196151 
L 572.536467 20.209378 
L 574.871591 18.626678 
L 577.206715 17.467243 
L 579.541839 16.745133 
L 581.876963 16.469104 
L 583.044524 16.499629 
L 585.379648 16.897296 
L 587.714772 17.739199 
L 590.049896 19.01513 
L 592.38502 20.709615 
L 594.720143 22.802106 
L 597.055267 25.267229 
L 599.390391 28.07509 
L 601.725515 31.191641 
L 605.2282 36.361675 
L 608.730886 41.999571 
L 613.401134 49.977694 
L 622.741629 66.055294 
L 626.244315 71.623594 
L 629.747 76.698863 
L 632.082124 79.739504 
L 632.082124 79.739504 
" clip-path="url(#pfa4963a7d4)" style="fill: none; stroke: #0271ae; stroke-width: 2; stroke-linecap: round"/>
   </g>
   <g id="line2d_2">
    <path d="M 49.468739 16.466166 
L 57.641672 16.576342 
L 65.814606 16.906213 
L 73.987539 17.453821 
L 82.160472 18.215907 
L 90.333405 19.187943 
L 98.506339 20.364149 
L 107.846834 21.949365 
L 117.187329 23.779772 
L 126.527824 25.84116 
L 135.868319 28.117525 
L 146.376376 30.913334 
L 156.884433 33.931345 
L 168.560052 37.50917 
L 182.570795 42.055028 
L 198.916661 47.605911 
L 254.959632 66.87532 
L 267.802813 70.957956 
L 279.478432 74.4491 
L 289.986489 77.375392 
L 300.494546 80.067426 
L 309.835041 82.242247 
L 319.175537 84.19416 
L 328.516032 85.908009 
L 337.856527 87.370488 
L 346.02946 88.434981 
L 354.202393 89.291966 
L 362.375327 89.936349 
L 370.54826 90.3643 
L 378.721193 90.573274 
L 386.894126 90.562029 
L 395.06706 90.330632 
L 403.239993 89.880457 
L 411.412926 89.214183 
L 419.585859 88.335769 
L 427.758793 87.250438 
L 435.931726 85.964642 
L 445.272221 84.259553 
L 454.612716 82.315892 
L 463.953211 80.148751 
L 474.461268 77.4646 
L 484.969325 74.545315 
L 496.644944 71.060844 
L 509.488125 66.984105 
L 524.66643 61.916557 
L 545.682544 54.639081 
L 577.206715 43.731333 
L 592.38502 38.729338 
L 605.2282 34.729703 
L 616.903819 31.331543 
L 627.411876 28.502256 
L 632.082124 27.322154 
L 632.082124 27.322154 
" clip-path="url(#pfa4963a7d4)" style="fill: none; stroke: #dc2830; stroke-width: 2; stroke-linecap: round"/>
   </g>
   <g id="matplotlib.axis_1">
    <g id="xtick_1">
     <g id="line2d_3">
      <path d="M 49.468739 99.861659 
L 49.468739 7.2 
" clip-path="url(#pfa4963a7d4)" style="fill: none; stroke: #000000; stroke-opacity: 0.2; stroke-width: 0.5; stroke-linecap: round"/>
     </g>
     <g id="line2d_4">
      <defs>
       <path id="m9c9c7ac819" d="M 0 0 
L 0 3.5 
" style="stroke: #000000; stroke-opacity: 0.2; stroke-width: 0.5"/>
      </defs>
      <g>
       <use xlink:href="#m9c9c7ac819" x="49.468739" y="99.861659" style="fill-opacity: 0.2; stroke: #000000; stroke-opacity: 0.2; stroke-width: 0.5"/>
      </g>
     </g>
     <g id="text_1">
      <!-- $\mathdefault{0}$ -->
      <g transform="translate(45.981815 125.341188)scale(0.14 -0.14)">
       <defs>
        <path id="URWPalladioL-Roma-30" d="M 1683 4416 
C 691 4416 186 3628 186 2076 
C 186 1326 320 679 544 365 
C 768 51 1126 -128 1523 -128 
C 2490 -128 2976 704 2976 2345 
C 2976 3749 2560 4416 1683 4416 
z
M 1568 4191 
C 2189 4191 2438 3563 2438 2025 
C 2438 660 2195 96 1606 96 
C 986 96 723 743 723 2307 
C 723 3660 960 4191 1568 4191 
z
" transform="scale(0.015625)"/>
       </defs>
       <use xlink:href="#URWPalladioL-Roma-30" transform="scale(0.996264)"/>
      </g>
     </g>
    </g>
    <g id="xtick_2">
     <g id="line2d_5">
      <path d="M 132.699223 99.861659 
L 132.699223 7.2 
" clip-path="url(#pfa4963a7d4)" style="fill: none; stroke: #000000; stroke-opacity: 0.2; stroke-width: 0.5; stroke-linecap: round"/>
     </g>
     <g id="line2d_6">
      <g>
       <use xlink:href="#m9c9c7ac819" x="132.699223" y="99.861659" style="fill-opacity: 0.2; stroke: #000000; stroke-opacity: 0.2; stroke-width: 0.5"/>
      </g>
     </g>
     <g id="text_2">
      <!-- $\mathdefault{1}$ -->
      <g transform="translate(129.212299 125.341188)scale(0.14 -0.14)">
       <defs>
        <path id="URWPalladioL-Roma-31" d="M 429 3571 
L 493 3571 
L 1318 3942 
C 1325 3949 1331 3949 1338 3949 
C 1376 3949 1389 3891 1389 3737 
L 1389 633 
C 1389 300 1318 230 973 211 
L 614 192 
L 614 0 
C 1600 0 1600 0 1670 0 
C 1754 0 1894 0 2112 -7 
C 2189 6 2413 6 2675 0 
L 2675 192 
L 2342 211 
C 1990 229 1926 299 1926 628 
L 1926 4383 
L 1837 4416 
C 1421 4199 966 4009 384 3807 
L 429 3571 
z
" transform="scale(0.015625)"/>
       </defs>
       <use xlink:href="#URWPalladioL-Roma-31" transform="scale(0.996264)"/>
      </g>
     </g>
    </g>
    <g id="xtick_3">
     <g id="line2d_7">
      <path d="M 215.929706 99.861659 
L 215.929706 7.2 
" clip-path="url(#pfa4963a7d4)" style="fill: none; stroke: #000000; stroke-opacity: 0.2; stroke-width: 0.5; stroke-linecap: round"/>
     </g>
     <g id="line2d_8">
      <g>
       <use xlink:href="#m9c9c7ac819" x="215.929706" y="99.861659" style="fill-opacity: 0.2; stroke: #000000; stroke-opacity: 0.2; stroke-width: 0.5"/>
      </g>
     </g>
     <g id="text_3">
      <!-- $\mathdefault{2}$ -->
      <g transform="translate(212.442782 125.341188)scale(0.14 -0.14)">
       <defs>
        <path id="URWPalladioL-Roma-32" d="M 102 166 
L 102 0 
C 1299 0 1299 0 1530 0 
C 1760 19 1760 19 2995 0 
C 2982 134 2982 198 2982 287 
C 2982 370 2982 434 2995 574 
C 2259 542 1965 536 781 510 
L 1946 1741 
C 2566 2398 2758 2749 2758 3228 
C 2758 3961 2259 4416 1446 4416 
C 986 4416 672 4287 358 3967 
L 250 3100 
L 435 3100 
L 518 3394 
C 621 3763 851 3923 1280 3923 
C 1830 3923 2182 3578 2182 3036 
C 2182 2558 1914 2086 1190 1320 
L 102 166 
z
" transform="scale(0.015625)"/>
       </defs>
       <use xlink:href="#URWPalladioL-Roma-32" transform="scale(0.996264)"/>
      </g>
     </g>
    </g>
    <g id="xtick_4">
     <g id="line2d_9">
      <path d="M 299.16019 99.861659 
L 299.16019 7.2 
" clip-path="url(#pfa4963a7d4)" style="fill: none; stroke: #000000; stroke-opacity: 0.2; stroke-width: 0.5; stroke-linecap: round"/>
     </g>
     <g id="line2d_10">
      <g>
       <use xlink:href="#m9c9c7ac819" x="299.16019" y="99.861659" style="fill-opacity: 0.2; stroke: #000000; stroke-opacity: 0.2; stroke-width: 0.5"/>
      </g>
     </g>
     <g id="text_4">
      <!-- $\mathdefault{3}$ -->
      <g transform="translate(295.673266 125.341188)scale(0.14 -0.14)">
       <defs>
        <path id="URWPalladioL-Roma-33" d="M 275 3196 
L 474 3196 
L 589 3553 
C 659 3770 1062 3987 1395 3987 
C 1811 3987 2150 3649 2150 3247 
C 2150 2769 1773 2368 1318 2368 
C 1267 2368 1197 2374 1114 2380 
L 1018 2387 
L 941 2047 
L 986 2008 
C 1229 2118 1350 2150 1523 2150 
C 2054 2150 2362 1808 2362 1222 
C 2362 565 1971 134 1376 134 
C 1082 134 819 231 627 411 
C 474 553 390 701 269 1048 
L 96 984 
C 230 591 282 359 320 38 
C 659 -77 941 -128 1178 -128 
C 1690 -128 2278 160 2630 591 
C 2848 855 2957 1139 2957 1441 
C 2957 1750 2829 2021 2598 2182 
C 2438 2297 2291 2348 1971 2406 
C 2483 2801 2675 3094 2675 3470 
C 2675 4038 2202 4416 1491 4416 
C 1056 4416 768 4294 461 3987 
L 275 3196 
z
" transform="scale(0.015625)"/>
       </defs>
       <use xlink:href="#URWPalladioL-Roma-33" transform="scale(0.996264)"/>
      </g>
     </g>
    </g>
    <g id="xtick_5">
     <g id="line2d_11">
      <path d="M 382.390673 99.861659 
L 382.390673 7.2 
" clip-path="url(#pfa4963a7d4)" style="fill: none; stroke: #000000; stroke-opacity: 0.2; stroke-width: 0.5; stroke-linecap: round"/>
     </g>
     <g id="line2d_12">
      <g>
       <use xlink:href="#m9c9c7ac819" x="382.390673" y="99.861659" style="fill-opacity: 0.2; stroke: #000000; stroke-opacity: 0.2; stroke-width: 0.5"/>
      </g>
     </g>
     <g id="text_5">
      <!-- $\mathdefault{4}$ -->
      <g transform="translate(378.903749 125.341188)scale(0.14 -0.14)">
       <defs>
        <path id="URWPalladioL-Roma-34" d="M 1792 1152 
L 1792 684 
C 1792 310 1722 223 1408 210 
L 1011 192 
L 1011 0 
C 1862 0 1862 0 2016 0 
C 2170 19 2170 19 3021 0 
L 3021 192 
L 2714 210 
C 2400 229 2330 310 2330 684 
L 2330 1152 
C 2707 1152 2842 1145 3021 1127 
L 3021 1580 
C 2720 1555 2598 1555 2502 1561 
L 2483 1561 
L 2330 1561 
L 2330 2445 
C 2330 3576 2342 4122 2374 4383 
L 2298 4416 
L 1824 4243 
L 13 1299 
L 83 1152 
L 1792 1152 
z
M 1792 1561 
L 416 1561 
L 1792 3798 
L 1792 1561 
z
" transform="scale(0.015625)"/>
       </defs>
       <use xlink:href="#URWPalladioL-Roma-34" transform="scale(0.996264)"/>
      </g>
     </g>
    </g>
    <g id="xtick_6">
     <g id="line2d_13">
      <path d="M 465.621157 99.861659 
L 465.621157 7.2 
" clip-path="url(#pfa4963a7d4)" style="fill: none; stroke: #000000; stroke-opacity: 0.2; stroke-width: 0.5; stroke-linecap: round"/>
     </g>
     <g id="line2d_14">
      <g>
       <use xlink:href="#m9c9c7ac819" x="465.621157" y="99.861659" style="fill-opacity: 0.2; stroke: #000000; stroke-opacity: 0.2; stroke-width: 0.5"/>
      </g>
     </g>
     <g id="text_6">
      <!-- $\mathdefault{5}$ -->
      <g transform="translate(462.134233 125.341188)scale(0.14 -0.14)">
       <defs>
        <path id="URWPalladioL-Roma-35" d="M 813 3891 
C 1638 3865 1997 3859 2765 3859 
L 2797 3891 
C 2784 4006 2784 4057 2784 4140 
C 2784 4230 2784 4281 2797 4396 
L 2765 4428 
C 2285 4403 1997 4396 1651 4396 
C 1299 4396 1018 4403 538 4428 
L 506 4396 
C 512 4006 518 3724 518 3520 
C 518 2976 499 2360 480 2076 
L 608 2038 
C 909 2341 1082 2432 1395 2432 
C 2010 2432 2394 1992 2394 1295 
C 2394 579 1984 160 1286 160 
C 941 160 621 276 531 443 
L 237 973 
L 83 882 
C 230 514 307 308 397 25 
C 576 -71 832 -128 1107 -128 
C 1536 -128 1990 57 2342 366 
C 2733 715 2938 1153 2938 1631 
C 2938 2360 2419 2873 1690 2873 
C 1382 2873 1152 2790 755 2553 
L 813 3891 
z
" transform="scale(0.015625)"/>
       </defs>
       <use xlink:href="#URWPalladioL-Roma-35" transform="scale(0.996264)"/>
      </g>
     </g>
    </g>
    <g id="xtick_7">
     <g id="line2d_15">
      <path d="M 548.85164 99.861659 
L 548.85164 7.2 
" clip-path="url(#pfa4963a7d4)" style="fill: none; stroke: #000000; stroke-opacity: 0.2; stroke-width: 0.5; stroke-linecap: round"/>
     </g>
     <g id="line2d_16">
      <g>
       <use xlink:href="#m9c9c7ac819" x="548.85164" y="99.861659" style="fill-opacity: 0.2; stroke: #000000; stroke-opacity: 0.2; stroke-width: 0.5"/>
      </g>
     </g>
     <g id="text_7">
      <!-- $\mathdefault{6}$ -->
      <g transform="translate(545.364716 125.341188)scale(0.14 -0.14)">
       <defs>
        <path id="URWPalladioL-Roma-36" d="M 2662 4287 
L 2426 4396 
C 1811 4193 1549 4066 1222 3788 
C 563 3237 205 2463 205 1585 
C 205 526 717 -128 1542 -128 
C 2374 -128 2995 532 2995 1405 
C 2995 2143 2554 2624 1875 2624 
C 1555 2624 1363 2540 986 2239 
C 915 2182 909 2175 838 2124 
C 973 3275 1510 3895 2662 4237 
L 2662 4287 
z
M 1632 2239 
C 2118 2239 2445 1816 2445 1180 
C 2445 513 2118 83 1626 83 
C 1082 83 787 551 787 1411 
C 787 1636 813 1758 883 1867 
C 1024 2085 1325 2239 1632 2239 
z
" transform="scale(0.015625)"/>
       </defs>
       <use xlink:href="#URWPalladioL-Roma-36" transform="scale(0.996264)"/>
      </g>
     </g>
    </g>
    <g id="xtick_8">
     <g id="line2d_17">
      <path d="M 632.082124 99.861659 
L 632.082124 7.2 
" clip-path="url(#pfa4963a7d4)" style="fill: none; stroke: #000000; stroke-opacity: 0.2; stroke-width: 0.5; stroke-linecap: round"/>
     </g>
     <g id="line2d_18">
      <g>
       <use xlink:href="#m9c9c7ac819" x="632.082124" y="99.861659" style="fill-opacity: 0.2; stroke: #000000; stroke-opacity: 0.2; stroke-width: 0.5"/>
      </g>
     </g>
     <g id="text_8">
      <!-- $\mathdefault{7}$ -->
      <g transform="translate(628.5952 125.341188)scale(0.14 -0.14)">
       <defs>
        <path id="URWPalladioL-Roma-37" d="M 358 83 
L 416 0 
C 666 0 666 0 710 0 
C 755 19 755 19 1005 0 
C 1274 700 1587 1369 2010 2141 
L 3181 4255 
L 3181 4448 
C 2490 4422 2266 4416 1747 4416 
C 1280 4416 966 4422 346 4448 
L 282 4416 
C 301 3807 301 3807 301 3743 
C 301 3672 301 3672 282 3087 
L 474 3087 
L 518 3447 
C 570 3846 614 3897 909 3897 
L 2618 3897 
C 2362 3370 2163 2996 1920 2604 
L 358 83 
z
" transform="scale(0.015625)"/>
       </defs>
       <use xlink:href="#URWPalladioL-Roma-37" transform="scale(0.996264)"/>
      </g>
     </g>
    </g>
    <g id="text_9">
     <!-- $N$ -->
     <g transform="translate(336.124933 141.828236)scale(0.12 -0.12)">
      <defs>
       <path id="URWPalladioL-Ital-4e" d="M 1517 4416 
L 998 4396 
L 934 4396 
L 845 4396 
C 826 4396 730 4403 582 4409 
L 480 4416 
L 448 4237 
L 672 4224 
C 781 4218 922 4173 992 4116 
C 1088 4040 1184 3919 1184 3869 
C 1184 3862 1184 3843 1178 3824 
C 1178 3818 1178 3805 1171 3792 
C 1165 3742 1158 3697 1152 3678 
L 589 667 
C 512 274 474 223 243 197 
L 45 178 
L 13 0 
L 723 19 
C 800 19 806 19 1427 0 
L 1459 178 
L 1190 197 
C 934 216 877 267 877 477 
C 877 528 883 598 896 667 
L 1408 3615 
L 3571 -64 
L 3891 -64 
L 4493 3459 
C 4627 4179 4640 4205 4877 4224 
L 5114 4237 
L 5146 4416 
L 5011 4416 
L 4442 4396 
L 3891 4416 
L 3770 4416 
L 3738 4237 
L 4038 4224 
C 4205 4217 4269 4173 4269 4071 
C 4269 4026 4250 3861 4237 3778 
L 3725 662 
L 1517 4416 
z
" transform="scale(0.015625)"/>
      </defs>
      <use xlink:href="#URWPalladioL-Ital-4e" transform="scale(0.996264)"/>
     </g>
    </g>
   </g>
   <g id="matplotlib.axis_2">
    <g id="ytick_1">
     <g id="line2d_19">
      <path d="M 41.145691 90.595493 
L 640.405172 90.595493 
" clip-path="url(#pfa4963a7d4)" style="fill: none; stroke: #000000; stroke-opacity: 0.2; stroke-width: 0.5; stroke-linecap: round"/>
     </g>
     <g id="line2d_20">
      <defs>
       <path id="mb794bed502" d="M 0 0 
L -3.5 0 
" style="stroke: #000000; stroke-opacity: 0.2; stroke-width: 0.5"/>
      </defs>
      <g>
       <use xlink:href="#mb794bed502" x="41.145691" y="90.595493" style="fill-opacity: 0.2; stroke: #000000; stroke-opacity: 0.2; stroke-width: 0.5"/>
      </g>
     </g>
     <g id="text_10">
      <!-- $\mathdefault{−1}$ -->
      <g transform="translate(7.2 95.585257)scale(0.14 -0.14)">
       <defs>
        <path id="CMSY10-0" d="M 4218 1472 
C 4326 1472 4442 1472 4442 1600 
C 4442 1728 4326 1728 4218 1728 
L 755 1728 
C 646 1728 531 1728 531 1600 
C 531 1472 646 1472 755 1472 
L 4218 1472 
z
" transform="scale(0.015625)"/>
       </defs>
       <use xlink:href="#CMSY10-0" transform="scale(1.038107)"/>
       <use xlink:href="#URWPalladioL-Roma-31" transform="translate(81.941696 0)scale(0.996264)"/>
      </g>
     </g>
    </g>
    <g id="ytick_2">
     <g id="line2d_21">
      <path d="M 41.145691 53.530829 
L 640.405172 53.530829 
" clip-path="url(#pfa4963a7d4)" style="fill: none; stroke: #000000; stroke-opacity: 0.2; stroke-width: 0.5; stroke-linecap: round"/>
     </g>
     <g id="line2d_22">
      <g>
       <use xlink:href="#mb794bed502" x="41.145691" y="53.530829" style="fill-opacity: 0.2; stroke: #000000; stroke-opacity: 0.2; stroke-width: 0.5"/>
      </g>
     </g>
     <g id="text_11">
      <!-- $\mathdefault{0}$ -->
      <g transform="translate(18.671843 58.520594)scale(0.14 -0.14)">
       <use xlink:href="#URWPalladioL-Roma-30" transform="scale(0.996264)"/>
      </g>
     </g>
    </g>
    <g id="ytick_3">
     <g id="line2d_23">
      <path d="M 41.145691 16.466166 
L 640.405172 16.466166 
" clip-path="url(#pfa4963a7d4)" style="fill: none; stroke: #000000; stroke-opacity: 0.2; stroke-width: 0.5; stroke-linecap: round"/>
     </g>
     <g id="line2d_24">
      <g>
       <use xlink:href="#mb794bed502" x="41.145691" y="16.466166" style="fill-opacity: 0.2; stroke: #000000; stroke-opacity: 0.2; stroke-width: 0.5"/>
      </g>
     </g>
     <g id="text_12">
      <!-- $\mathdefault{1}$ -->
      <g transform="translate(18.671843 21.45593)scale(0.14 -0.14)">
       <use xlink:href="#URWPalladioL-Roma-31" transform="scale(0.996264)"/>
      </g>
     </g>
    </g>
   </g>
   <g id="line2d_25">
    <defs>
     <path id="ma56293285c" d="M 0 3.5 
C 0.928211 3.5 1.81853 3.131218 2.474874 2.474874 
C 3.131218 1.81853 3.5 0.928211 3.5 0 
C 3.5 -0.928211 3.131218 -1.81853 2.474874 -2.474874 
C 1.81853 -3.131218 0.928211 -3.5 0 -3.5 
C -0.928211 -3.5 -1.81853 -3.131218 -2.474874 -2.474874 
C -3.131218 -1.81853 -3.5 -0.928211 -3.5 0 
C -3.5 0.928211 -3.131218 1.81853 -2.474874 2.474874 
C -1.81853 3.131218 -0.928211 3.5 0 3.5 
z
" style="stroke: #fefefa; stroke-width: 1.5"/>
    </defs>
    <g clip-path="url(#pfa4963a7d4)">
     <use xlink:href="#ma56293285c" x="49.468739" y="16.466166" style="fill: #0271ae; stroke: #fefefa; stroke-width: 1.5"/>
     <use xlink:href="#ma56293285c" x="132.699223" y="79.739504" style="fill: #0271ae; stroke: #fefefa; stroke-width: 1.5"/>
     <use xlink:href="#ma56293285c" x="215.929706" y="53.530829" style="fill: #0271ae; stroke: #fefefa; stroke-width: 1.5"/>
     <use xlink:href="#ma56293285c" x="299.16019" y="27.322154" style="fill: #0271ae; stroke: #fefefa; stroke-width: 1.5"/>
     <use xlink:href="#ma56293285c" x="382.390673" y="90.595493" style="fill: #0271ae; stroke: #fefefa; stroke-width: 1.5"/>
     <use xlink:href="#ma56293285c" x="465.621157" y="27.322154" style="fill: #0271ae; stroke: #fefefa; stroke-width: 1.5"/>
     <use xlink:href="#ma56293285c" x="548.85164" y="53.530829" style="fill: #0271ae; stroke: #fefefa; stroke-width: 1.5"/>
     <use xlink:href="#ma56293285c" x="632.082124" y="79.739504" style="fill: #0271ae; stroke: #fefefa; stroke-width: 1.5"/>
    </g>
   </g>
   <g id="line2d_26">
    <defs>
     <path id="m4411b9cf0a" d="M 0 3.5 
C 0.928211 3.5 1.81853 3.131218 2.474874 2.474874 
C 3.131218 1.81853 3.5 0.928211 3.5 0 
C 3.5 -0.928211 3.131218 -1.81853 2.474874 -2.474874 
C 1.81853 -3.131218 0.928211 -3.5 0 -3.5 
C -0.928211 -3.5 -1.81853 -3.131218 -2.474874 -2.474874 
C -3.131218 -1.81853 -3.5 -0.928211 -3.5 0 
C -3.5 0.928211 -3.131218 1.81853 -2.474874 2.474874 
C -1.81853 3.131218 -0.928211 3.5 0 3.5 
z
" style="stroke: #fefefa; stroke-width: 1.5"/>
    </defs>
    <g clip-path="url(#pfa4963a7d4)">
     <use xlink:href="#m4411b9cf0a" x="49.468739" y="16.466166" style="fill: #6e3b87; stroke: #fefefa; stroke-width: 1.5"/>
     <use xlink:href="#m4411b9cf0a" x="215.929706" y="53.530829" style="fill: #6e3b87; stroke: #fefefa; stroke-width: 1.5"/>
     <use xlink:href="#m4411b9cf0a" x="382.390673" y="90.595493" style="fill: #6e3b87; stroke: #fefefa; stroke-width: 1.5"/>
     <use xlink:href="#m4411b9cf0a" x="548.85164" y="53.530829" style="fill: #6e3b87; stroke: #fefefa; stroke-width: 1.5"/>
    </g>
   </g>
   <g id="legend_1">
    <g id="patch_3">
     <path d="M 650.205172 76.543531 
L 718.39952 76.543531 
Q 721.19952 76.543531 721.19952 73.743531 
L 721.19952 33.318128 
Q 721.19952 30.518128 718.39952 30.518128 
L 650.205172 30.518128 
Q 647.405172 30.518128 647.405172 33.318128 
L 647.405172 73.743531 
Q 647.405172 76.543531 650.205172 76.543531 
z
" style="fill: #ffffff; opacity: 0.95; stroke: #cccccc; stroke-width: 0.5; stroke-linejoin: miter"/>
    </g>
    <g id="line2d_27">
     <path d="M 653.005172 41.197657 
L 660.005172 41.197657 
L 667.005172 41.197657 
" style="fill: none; stroke: #0271ae; stroke-width: 2; stroke-linecap: round"/>
    </g>
    <g id="text_13">
     <!-- $m=5$ -->
     <g style="fill: #0271ae" transform="translate(678.205172 46.097657)scale(0.14 -0.14)">
      <defs>
       <path id="URWPalladioL-Ital-6d" d="M 4672 651 
L 4506 542 
C 4320 421 4179 351 4115 351 
C 4070 351 4032 408 4032 479 
C 4032 542 4045 600 4077 734 
L 4557 2631 
C 4582 2739 4602 2841 4602 2892 
C 4602 3001 4538 3072 4435 3072 
C 4250 3072 4006 2956 3616 2682 
C 3213 2394 2989 2171 2675 1730 
L 2867 2605 
C 2893 2733 2912 2829 2912 2873 
C 2912 2995 2848 3072 2746 3072 
C 2554 3072 2259 2931 1907 2663 
C 1626 2445 1498 2311 1082 1749 
L 1293 2599 
C 1318 2701 1331 2797 1331 2873 
C 1331 2995 1274 3072 1184 3072 
C 1050 3072 806 2937 333 2599 
L 154 2471 
L 198 2343 
L 403 2477 
C 640 2624 659 2637 704 2637 
C 774 2637 819 2573 819 2477 
C 819 2152 557 919 294 6 
L 314 -64 
L 749 32 
L 890 683 
C 1043 1392 1216 1769 1568 2152 
C 1837 2445 2125 2637 2304 2637 
C 2349 2637 2374 2586 2374 2503 
C 2374 2279 2234 1551 1971 434 
L 1869 6 
L 1901 -64 
L 2342 32 
L 2477 715 
C 2579 1232 2797 1711 3078 2024 
C 3430 2413 3750 2637 3955 2637 
C 4006 2637 4038 2579 4038 2477 
C 4038 2324 4019 2235 3878 1679 
C 3776 1277 3667 894 3603 677 
C 3546 498 3520 332 3520 191 
C 3520 32 3590 -64 3712 -64 
C 3878 -64 4109 70 4736 536 
L 4672 651 
z
" transform="scale(0.015625)"/>
       <path id="CMR10-3d" d="M 4397 2111 
C 4493 2111 4614 2111 4614 2239 
C 4614 2368 4493 2368 4403 2368 
L 570 2368 
C 480 2368 358 2368 358 2239 
C 358 2111 480 2111 576 2111 
L 4397 2111 
z
M 4403 832 
C 4493 832 4614 832 4614 960 
C 4614 1088 4493 1088 4397 1088 
L 576 1088 
C 480 1088 358 1088 358 960 
C 358 832 480 832 570 832 
L 4403 832 
z
" transform="scale(0.015625)"/>
      </defs>
      <use xlink:href="#URWPalladioL-Ital-6d" transform="scale(0.996264)"/>
      <use xlink:href="#CMR10-3d" transform="translate(107.673966 0)scale(1.038107)"/>
      <use xlink:href="#URWPalladioL-Roma-35" transform="translate(217.289595 0)scale(0.996264)"/>
     </g>
    </g>
    <g id="line2d_28">
     <path d="M 653.005172 62.110359 
L 660.005172 62.110359 
L 667.005172 62.110359 
" style="fill: none; stroke: #dc2830; stroke-width: 2; stroke-linecap: round"/>
    </g>
    <g id="text_14">
     <!-- $m=1$ -->
     <g style="fill: #dc2830" transform="translate(678.205172 67.010359)scale(0.14 -0.14)">
      <use xlink:href="#URWPalladioL-Ital-6d" transform="scale(0.996264)"/>
      <use xlink:href="#CMR10-3d" transform="translate(107.673966 0)scale(1.038107)"/>
      <use xlink:href="#URWPalladioL-Roma-31" transform="translate(217.289595 0)scale(0.996264)"/>
     </g>
    </g>
   </g>
  </g>
 </g>
 <defs>
  <clipPath id="pfa4963a7d4">
   <rect x="41.145691" y="7.2" width="599.259482" height="92.661659"/>
  </clipPath>
 </defs>
</svg>