<?xml version="1.0" encoding="utf-8" standalone="no"?>
<!DOCTYPE svg PUBLIC "-//W3C//DTD SVG 1.1//EN"
  "http://www.w3.org/Graphics/SVG/1.1/DTD/svg11.dtd">
<svg xmlns:xlink="http://www.w3.org/1999/xlink" width="296.39952pt" height="296.39952pt" viewBox="0 0 296.39952 296.39952" xmlns="http://www.w3.org/2000/svg" version="1.1">
 <metadata>
  <rdf:RDF xmlns:dc="http://purl.org/dc/elements/1.1/" xmlns:cc="http://creativecommons.org/ns#" xmlns:rdf="http://www.w3.org/1999/02/22-rdf-syntax-ns#">
   <cc:Work>
    <dc:type rdf:resource="http://purl.org/dc/dcmitype/StillImage"/>
    <dc:date>2022-06-20T10:30:54.453865</dc:date>
    <dc:format>image/svg+xml</dc:format>
    <dc:creator>
     <cc:Agent>
      <dc:title>Matplotlib v3.5.2, https://matplotlib.org/</dc:title>
     </cc:Agent>
    </dc:creator>
   </cc:Work>
  </rdf:RDF>
 </metadata>
 <defs>
  <style type="text/css">*{stroke-linejoin: round; stroke-linecap: butt}</style>
 </defs>
 <g id="figure_1">
  <g id="patch_1">
   <path d="M 0 296.39952 
L 296.39952 296.39952 
L 296.39952 0 
L 0 0 
L 0 296.39952 
z
" style="fill: none"/>
  </g>
  <g id="axes_1">
   <g id="patch_2">
    <path d="M 7.2 289.19952 
L 289.19952 289.19952 
L 289.19952 7.2 
L 7.2 7.2 
L 7.2 289.19952 
z
" style="fill: none"/>
   </g>
   <g id="matplotlib.axis_1"/>
   <g id="matplotlib.axis_2"/>
   <g id="patch_3">
    <path d="M 148.19976 260.999568 
C 178.114619 260.999568 206.80827 249.114269 227.961269 227.961269 
C 249.114269 206.80827 260.999568 178.114619 260.999568 148.19976 
C 260.999568 118.284901 249.114269 89.59125 227.961269 68.438251 
C 206.80827 47.285251 178.114619 35.399952 148.19976 35.399952 
C 118.284901 35.399952 89.59125 47.285251 68.438251 68.438251 
C 47.285251 89.59125 35.399952 118.284901 35.399952 148.19976 
C 35.399952 178.114619 47.285251 206.80827 68.438251 227.961269 
C 89.59125 249.114269 118.284901 260.999568 148.19976 260.999568 
L 148.19976 260.999568 
z
" clip-path="url(#pcc2fb88478)" style="fill: none; stroke: #000000; stroke-width: 5; stroke-linejoin: miter"/>
   </g>
   <g id="patch_4">
    <path d="M 170.759722 148.19976 
C 170.759722 144.239954 169.717163 140.349071 167.73726 136.919779 
C 165.757357 133.490487 162.909033 130.642163 159.479741 128.66226 
L 148.19976 148.19976 
L 170.759722 148.19976 
z
" clip-path="url(#pcc2fb88478)" style="fill: #6e3b87"/>
   </g>
   <g id="patch_5">
    <path d="M 159.479741 167.73726 
C 162.909033 165.757357 165.757357 162.909033 167.73726 159.479741 
C 169.717163 156.050449 170.759722 152.159566 170.759722 148.19976 
L 148.19976 148.19976 
L 159.479741 167.73726 
z
" clip-path="url(#pcc2fb88478)" style="fill: #c20caa"/>
   </g>
   <g id="patch_6">
    <path d="M 204.599664 148.19976 
L 196.139678 148.19976 
L 196.139678 139.739774 
L 204.599664 139.739774 
z
" clip-path="url(#pcc2fb88478)" style="fill: #ffffff; stroke: #000000; stroke-width: 3; stroke-linejoin: miter"/>
   </g>
   <g id="line2d_1">
    <path d="M 204.599664 148.19976 
L 204.599664 50.512261 
" clip-path="url(#pcc2fb88478)" style="fill: none; stroke: #f2aa00; stroke-width: 4; stroke-linecap: round"/>
   </g>
   <g id="line2d_2">
    <path d="M 148.19976 148.19976 
L 204.599664 148.19976 
" clip-path="url(#pcc2fb88478)" style="fill: none; stroke: #dc2830; stroke-width: 2; stroke-linecap: round"/>
   </g>
   <g id="line2d_3">
    <path d="M 148.19976 148.19976 
L 204.599664 148.19976 
" clip-path="url(#pcc2fb88478)" style="fill: none; stroke-dasharray: 4,6.6; stroke-dashoffset: 0; stroke: #dc2830; stroke-width: 4; stroke-linejoin: bevel"/>
   </g>
   <g id="line2d_4">
    <path d="M 204.599664 50.512261 
L 148.19976 148.19976 
" clip-path="url(#pcc2fb88478)" style="fill: none; stroke: #0271ae; stroke-width: 4; stroke-linecap: round"/>
    <defs>
     <path id="mf0a0dfd8c5" d="M 0 6.25 
C 1.657519 6.25 3.247374 5.591461 4.419417 4.419417 
C 5.591461 3.247374 6.25 1.657519 6.25 0 
C 6.25 -1.657519 5.591461 -3.247374 4.419417 -4.419417 
C 3.247374 -5.591461 1.657519 -6.25 0 -6.25 
C -1.657519 -6.25 -3.247374 -5.591461 -4.419417 -4.419417 
C -5.591461 -3.247374 -6.25 -1.657519 -6.25 0 
C -6.25 1.657519 -5.591461 3.247374 -4.419417 4.419417 
C -3.247374 5.591461 -1.657519 6.25 0 6.25 
z
" style="stroke: #fefefa; stroke-width: 1.5"/>
    </defs>
    <g clip-path="url(#pcc2fb88478)">
     <use xlink:href="#mf0a0dfd8c5" x="204.599664" y="50.512261" style="fill: #0271ae; stroke: #fefefa; stroke-width: 1.5"/>
    </g>
   </g>
   <g id="line2d_5">
    <path d="M 204.599664 148.19976 
L 204.599664 245.887259 
" clip-path="url(#pcc2fb88478)" style="fill: none; stroke-dasharray: 4,6.6; stroke-dashoffset: 0; stroke: #f2aa00; stroke-width: 4; stroke-linejoin: bevel"/>
   </g>
   <g id="line2d_6">
    <path d="M 204.599664 245.887259 
L 148.19976 148.19976 
" clip-path="url(#pcc2fb88478)" style="fill: none; stroke-dasharray: 4,6.6; stroke-dashoffset: 0; stroke: #0271ae; stroke-width: 4; stroke-linejoin: bevel"/>
    <g clip-path="url(#pcc2fb88478)">
     <use xlink:href="#mf0a0dfd8c5" x="204.599664" y="245.887259" style="fill: #0271ae; stroke: #fefefa; stroke-width: 1.5"/>
    </g>
   </g>
   <g id="text_1">
    <!-- $\theta$ -->
    <g style="fill: #6e3b87" transform="translate(170.759722 136.919779)scale(0.1 -0.1)">
     <defs>
      <path id="PazoMath-Italic-71" d="M 2029 4544 
C 1754 4544 1472 4409 1178 4122 
C 608 3580 186 2616 186 1442 
C 186 427 390 -64 928 -64 
C 1267 -64 1664 172 1965 555 
C 2400 1110 2797 2163 2797 3127 
C 2797 4013 2554 4544 2029 4544 
z
M 1478 2112 
C 1914 2112 2093 2092 2202 2041 
C 2061 1397 1824 823 1619 491 
C 1491 294 1318 179 1126 179 
C 742 179 672 670 672 1429 
C 672 1627 685 1831 717 2035 
C 851 2092 1024 2112 1478 2112 
z
M 1869 4300 
C 2272 4300 2310 3777 2310 2986 
C 2310 2808 2298 2623 2272 2444 
C 2144 2399 1946 2380 1523 2380 
C 1088 2380 902 2399 787 2444 
C 954 3197 1248 3886 1478 4154 
C 1568 4249 1715 4300 1869 4300 
z
" transform="scale(0.015625)"/>
     </defs>
     <use xlink:href="#PazoMath-Italic-71" transform="scale(0.996264)"/>
    </g>
   </g>
   <g id="text_2">
    <!-- $-\theta$ -->
    <g style="fill: #c20caa" transform="translate(170.759722 170.759722)scale(0.1 -0.1)">
     <defs>
      <path id="CMSY10-0" d="M 4218 1472 
C 4326 1472 4442 1472 4442 1600 
C 4442 1728 4326 1728 4218 1728 
L 755 1728 
C 646 1728 531 1728 531 1600 
C 531 1472 646 1472 755 1472 
L 4218 1472 
z
" transform="scale(0.015625)"/>
     </defs>
     <use xlink:href="#CMSY10-0" transform="scale(1.038107)"/>
     <use xlink:href="#PazoMath-Italic-71" transform="translate(83.186996 0)scale(0.996264)"/>
    </g>
   </g>
   <g id="text_3">
    <!-- $\sin(\theta)$ -->
    <g style="fill: #6e3b87" transform="translate(217.811297 124.5118)rotate(-90)scale(0.1 -0.1)">
     <defs>
      <path id="URWPalladioL-Roma-73" d="M 262 917 
C 262 474 243 282 192 25 
C 525 -84 774 -128 1069 -128 
C 1907 -128 2502 320 2502 949 
C 2502 1148 2445 1295 2323 1423 
C 2157 1584 1946 1661 1382 1770 
C 858 1872 685 2001 685 2296 
C 685 2617 909 2796 1299 2796 
C 1728 2796 2054 2572 2054 2270 
L 2054 2123 
L 2234 2123 
C 2240 2495 2246 2649 2266 2847 
C 1926 2963 1696 3008 1434 3008 
C 691 3008 237 2655 237 2078 
C 237 1770 378 1552 672 1417 
C 845 1340 1184 1237 1619 1141 
C 1907 1077 2029 942 2029 698 
C 2029 352 1709 108 1254 108 
C 787 108 454 333 454 654 
L 454 917 
L 262 917 
z
" transform="scale(0.015625)"/>
      <path id="URWPalladioL-Roma-69" d="M 1203 2982 
L 1146 3008 
C 819 2873 486 2784 147 2746 
L 147 2568 
L 384 2568 
C 640 2568 666 2523 666 2103 
L 666 669 
C 666 268 646 223 429 211 
L 134 192 
L 134 0 
C 774 0 774 0 934 0 
C 1094 19 1094 19 1734 0 
L 1734 192 
L 1440 211 
C 1222 224 1203 268 1203 671 
L 1203 2982 
z
M 909 4416 
C 717 4416 550 4249 550 4057 
C 550 3871 717 3705 902 3705 
C 1088 3705 1261 3871 1261 4057 
C 1261 4236 1088 4416 909 4416 
z
" transform="scale(0.015625)"/>
      <path id="URWPalladioL-Roma-6e" d="M 2624 0 
C 3014 0 3021 0 3130 0 
C 3219 19 3219 19 3661 0 
L 3661 192 
L 3398 211 
C 3181 223 3162 262 3162 670 
L 3162 1902 
C 3162 2649 2810 3014 2093 3014 
C 1856 3014 1722 2969 1587 2854 
L 1101 2432 
L 1101 2988 
L 1043 3008 
C 717 2873 384 2784 45 2746 
L 45 2568 
L 282 2568 
C 538 2568 563 2523 563 2103 
L 563 669 
C 563 268 544 223 326 211 
L 38 192 
L 38 0 
C 474 -7 646 0 832 0 
C 1018 19 1190 12 1626 0 
L 1626 192 
L 1338 211 
C 1120 223 1101 268 1101 670 
L 1101 2023 
C 1101 2311 1523 2624 1914 2624 
C 2342 2624 2624 2304 2624 1813 
L 2624 0 
z
" transform="scale(0.015625)"/>
      <path id="CMR10-28" d="M 2118 -1536 
C 2118 -1517 2118 -1504 2010 -1396 
C 1210 -589 1005 620 1005 1600 
C 1005 2713 1248 3827 2035 4627 
C 2118 4704 2118 4716 2118 4736 
C 2118 4780 2093 4800 2054 4800 
C 1990 4800 1414 4365 1037 3552 
C 710 2848 634 2137 634 1600 
C 634 1100 704 326 1056 -397 
C 1440 -1184 1990 -1600 2054 -1600 
C 2093 -1600 2118 -1581 2118 -1536 
z
" transform="scale(0.015625)"/>
      <path id="CMR10-29" d="M 1850 1600 
C 1850 2099 1779 2873 1427 3597 
C 1043 4384 493 4800 429 4800 
C 390 4800 365 4774 365 4736 
C 365 4716 365 4704 486 4589 
C 1114 3955 1478 2937 1478 1600 
C 1478 505 1242 -621 448 -1428 
C 365 -1504 365 -1517 365 -1536 
C 365 -1575 390 -1600 429 -1600 
C 493 -1600 1069 -1165 1446 -352 
C 1773 352 1850 1062 1850 1600 
z
" transform="scale(0.015625)"/>
     </defs>
     <use xlink:href="#URWPalladioL-Roma-73" transform="scale(0.996264)"/>
     <use xlink:href="#URWPalladioL-Roma-69" transform="translate(42.241466 0)scale(0.996264)"/>
     <use xlink:href="#URWPalladioL-Roma-6e" transform="translate(71.231828 0)scale(0.996264)"/>
     <use xlink:href="#CMR10-28" transform="translate(130.459188 0)scale(1.038107)"/>
     <use xlink:href="#PazoMath-Italic-71" transform="translate(173.198893 0)scale(0.996264)"/>
     <use xlink:href="#CMR10-29" transform="translate(222.912415 0)scale(1.038107)"/>
    </g>
   </g>
   <g id="text_4">
    <!-- $\sin(-\theta)$ -->
    <g style="fill: #c20caa" transform="translate(217.811297 206.53468)rotate(-90)scale(0.1 -0.1)">
     <use xlink:href="#URWPalladioL-Roma-73" transform="scale(0.996264)"/>
     <use xlink:href="#URWPalladioL-Roma-69" transform="translate(42.241466 0)scale(0.996264)"/>
     <use xlink:href="#URWPalladioL-Roma-6e" transform="translate(71.231828 0)scale(0.996264)"/>
     <use xlink:href="#CMR10-28" transform="translate(130.459188 0)scale(1.038107)"/>
     <use xlink:href="#CMSY10-0" transform="translate(173.198893 0)scale(1.038107)"/>
     <use xlink:href="#PazoMath-Italic-71" transform="translate(256.385889 0)scale(0.996264)"/>
     <use xlink:href="#CMR10-29" transform="translate(306.099411 0)scale(1.038107)"/>
    </g>
   </g>
  </g>
 </g>
 <defs>
  <clipPath id="pcc2fb88478">
   <rect x="7.2" y="7.2" width="281.99952" height="281.99952"/>
  </clipPath>
 </defs>
</svg>