<?xml version="1.0" encoding="utf-8" standalone="no"?>
<!DOCTYPE svg PUBLIC "-//W3C//DTD SVG 1.1//EN"
  "http://www.w3.org/Graphics/SVG/1.1/DTD/svg11.dtd">
<svg xmlns:xlink="http://www.w3.org/1999/xlink" width="440.39952pt" height="296.390529pt" viewBox="0 0 440.39952 296.390529" xmlns="http://www.w3.org/2000/svg" version="1.1">
 <metadata>
  <rdf:RDF xmlns:dc="http://purl.org/dc/elements/1.1/" xmlns:cc="http://creativecommons.org/ns#" xmlns:rdf="http://www.w3.org/1999/02/22-rdf-syntax-ns#">
   <cc:Work>
    <dc:type rdf:resource="http://purl.org/dc/dcmitype/StillImage"/>
    <dc:date>2023-02-15T09:41:40.306746</dc:date>
    <dc:format>image/svg+xml</dc:format>
    <dc:creator>
     <cc:Agent>
      <dc:title>Matplotlib v3.5.2, https://matplotlib.org/</dc:title>
     </cc:Agent>
    </dc:creator>
   </cc:Work>
  </rdf:RDF>
 </metadata>
 <defs>
  <style type="text/css">*{stroke-linejoin: round; stroke-linecap: butt}</style>
 </defs>
 <g id="figure_1">
  <g id="patch_1">
   <path d="M 0 296.390529 
L 440.39952 296.390529 
L 440.39952 0 
L 0 0 
L 0 296.390529 
z
" style="fill: none"/>
  </g>
  <g id="axes_1">
   <g id="patch_2">
    <path d="M 57.070851 119.362621 
L 424.48221 119.362621 
L 424.48221 9.575793 
L 57.070851 9.575793 
L 57.070851 119.362621 
z
" style="fill: none"/>
   </g>
   <g id="matplotlib.axis_1">
    <g id="xtick_1">
     <g id="line2d_1">
      <path d="M 57.070851 119.362621 
L 57.070851 9.575793 
" clip-path="url(#p86df28125f)" style="fill: none; stroke: #000000; stroke-opacity: 0.2; stroke-width: 0.5; stroke-linecap: round"/>
     </g>
     <g id="line2d_2">
      <defs>
       <path id="mddad6961e0" d="M 0 0 
L 0 3.5 
" style="stroke: #000000; stroke-opacity: 0.2; stroke-width: 0.5"/>
      </defs>
      <g>
       <use xlink:href="#mddad6961e0" x="57.070851" y="119.362621" style="fill-opacity: 0.2; stroke: #000000; stroke-opacity: 0.2; stroke-width: 0.5"/>
      </g>
     </g>
    </g>
    <g id="xtick_2">
     <g id="line2d_3">
      <path d="M 130.553122 119.362621 
L 130.553122 9.575793 
" clip-path="url(#p86df28125f)" style="fill: none; stroke: #000000; stroke-opacity: 0.2; stroke-width: 0.5; stroke-linecap: round"/>
     </g>
     <g id="line2d_4">
      <g>
       <use xlink:href="#mddad6961e0" x="130.553122" y="119.362621" style="fill-opacity: 0.2; stroke: #000000; stroke-opacity: 0.2; stroke-width: 0.5"/>
      </g>
     </g>
    </g>
    <g id="xtick_3">
     <g id="line2d_5">
      <path d="M 204.035394 119.362621 
L 204.035394 9.575793 
" clip-path="url(#p86df28125f)" style="fill: none; stroke: #000000; stroke-opacity: 0.2; stroke-width: 0.5; stroke-linecap: round"/>
     </g>
     <g id="line2d_6">
      <g>
       <use xlink:href="#mddad6961e0" x="204.035394" y="119.362621" style="fill-opacity: 0.2; stroke: #000000; stroke-opacity: 0.2; stroke-width: 0.5"/>
      </g>
     </g>
    </g>
    <g id="xtick_4">
     <g id="line2d_7">
      <path d="M 277.517666 119.362621 
L 277.517666 9.575793 
" clip-path="url(#p86df28125f)" style="fill: none; stroke: #000000; stroke-opacity: 0.2; stroke-width: 0.5; stroke-linecap: round"/>
     </g>
     <g id="line2d_8">
      <g>
       <use xlink:href="#mddad6961e0" x="277.517666" y="119.362621" style="fill-opacity: 0.2; stroke: #000000; stroke-opacity: 0.2; stroke-width: 0.5"/>
      </g>
     </g>
    </g>
    <g id="xtick_5">
     <g id="line2d_9">
      <path d="M 350.999938 119.362621 
L 350.999938 9.575793 
" clip-path="url(#p86df28125f)" style="fill: none; stroke: #000000; stroke-opacity: 0.2; stroke-width: 0.5; stroke-linecap: round"/>
     </g>
     <g id="line2d_10">
      <g>
       <use xlink:href="#mddad6961e0" x="350.999938" y="119.362621" style="fill-opacity: 0.2; stroke: #000000; stroke-opacity: 0.2; stroke-width: 0.5"/>
      </g>
     </g>
    </g>
    <g id="xtick_6">
     <g id="line2d_11">
      <path d="M 424.48221 119.362621 
L 424.48221 9.575793 
" clip-path="url(#p86df28125f)" style="fill: none; stroke: #000000; stroke-opacity: 0.2; stroke-width: 0.5; stroke-linecap: round"/>
     </g>
     <g id="line2d_12">
      <g>
       <use xlink:href="#mddad6961e0" x="424.48221" y="119.362621" style="fill-opacity: 0.2; stroke: #000000; stroke-opacity: 0.2; stroke-width: 0.5"/>
      </g>
     </g>
    </g>
   </g>
   <g id="matplotlib.axis_2">
    <g id="ytick_1">
     <g id="line2d_13">
      <path d="M 57.070851 116.748649 
L 424.48221 116.748649 
" clip-path="url(#p86df28125f)" style="fill: none; stroke: #000000; stroke-opacity: 0.2; stroke-width: 0.5; stroke-linecap: round"/>
     </g>
     <g id="line2d_14">
      <defs>
       <path id="m10f4686ab0" d="M 0 0 
L -3.5 0 
" style="stroke: #000000; stroke-opacity: 0.2; stroke-width: 0.5"/>
      </defs>
      <g>
       <use xlink:href="#m10f4686ab0" x="57.070851" y="116.748649" style="fill-opacity: 0.2; stroke: #000000; stroke-opacity: 0.2; stroke-width: 0.5"/>
      </g>
     </g>
     <g id="text_1">
      <!-- $\mathdefault{−1}$ -->
      <g transform="translate(23.12516 121.738414)scale(0.14 -0.14)">
       <defs>
        <path id="CMSY10-0" d="M 4218 1472 
C 4326 1472 4442 1472 4442 1600 
C 4442 1728 4326 1728 4218 1728 
L 755 1728 
C 646 1728 531 1728 531 1600 
C 531 1472 646 1472 755 1472 
L 4218 1472 
z
" transform="scale(0.015625)"/>
        <path id="URWPalladioL-Roma-31" d="M 429 3571 
L 493 3571 
L 1318 3942 
C 1325 3949 1331 3949 1338 3949 
C 1376 3949 1389 3891 1389 3737 
L 1389 633 
C 1389 300 1318 230 973 211 
L 614 192 
L 614 0 
C 1600 0 1600 0 1670 0 
C 1754 0 1894 0 2112 -7 
C 2189 6 2413 6 2675 0 
L 2675 192 
L 2342 211 
C 1990 229 1926 299 1926 628 
L 1926 4383 
L 1837 4416 
C 1421 4199 966 4009 384 3807 
L 429 3571 
z
" transform="scale(0.015625)"/>
       </defs>
       <use xlink:href="#CMSY10-0" transform="scale(1.038107)"/>
       <use xlink:href="#URWPalladioL-Roma-31" transform="translate(81.941696 0)scale(0.996264)"/>
      </g>
     </g>
    </g>
    <g id="ytick_2">
     <g id="line2d_15">
      <path d="M 57.070851 64.469207 
L 424.48221 64.469207 
" clip-path="url(#p86df28125f)" style="fill: none; stroke: #000000; stroke-opacity: 0.2; stroke-width: 0.5; stroke-linecap: round"/>
     </g>
     <g id="line2d_16">
      <g>
       <use xlink:href="#m10f4686ab0" x="57.070851" y="64.469207" style="fill-opacity: 0.2; stroke: #000000; stroke-opacity: 0.2; stroke-width: 0.5"/>
      </g>
     </g>
     <g id="text_2">
      <!-- $\mathdefault{0}$ -->
      <g transform="translate(34.597002 69.458971)scale(0.14 -0.14)">
       <defs>
        <path id="URWPalladioL-Roma-30" d="M 1683 4416 
C 691 4416 186 3628 186 2076 
C 186 1326 320 679 544 365 
C 768 51 1126 -128 1523 -128 
C 2490 -128 2976 704 2976 2345 
C 2976 3749 2560 4416 1683 4416 
z
M 1568 4191 
C 2189 4191 2438 3563 2438 2025 
C 2438 660 2195 96 1606 96 
C 986 96 723 743 723 2307 
C 723 3660 960 4191 1568 4191 
z
" transform="scale(0.015625)"/>
       </defs>
       <use xlink:href="#URWPalladioL-Roma-30" transform="scale(0.996264)"/>
      </g>
     </g>
    </g>
    <g id="ytick_3">
     <g id="line2d_17">
      <path d="M 57.070851 12.189765 
L 424.48221 12.189765 
" clip-path="url(#p86df28125f)" style="fill: none; stroke: #000000; stroke-opacity: 0.2; stroke-width: 0.5; stroke-linecap: round"/>
     </g>
     <g id="line2d_18">
      <g>
       <use xlink:href="#m10f4686ab0" x="57.070851" y="12.189765" style="fill-opacity: 0.2; stroke: #000000; stroke-opacity: 0.2; stroke-width: 0.5"/>
      </g>
     </g>
     <g id="text_3">
      <!-- $\mathdefault{1}$ -->
      <g transform="translate(34.597002 17.179529)scale(0.14 -0.14)">
       <use xlink:href="#URWPalladioL-Roma-31" transform="scale(0.996264)"/>
      </g>
     </g>
    </g>
    <g id="text_4">
     <!-- Input -->
     <g transform="translate(15.753876 79.108075)rotate(-90)scale(0.12 -0.12)">
      <defs>
       <path id="URWPalladioL-Roma-49" d="M 1382 3633 
C 1382 4135 1414 4185 1709 4204 
L 2016 4223 
L 2016 4416 
C 1549 4396 1408 4396 1075 4396 
C 755 4396 602 4403 141 4416 
L 141 4223 
L 448 4204 
C 742 4185 774 4135 774 3633 
L 774 782 
C 774 280 742 230 448 211 
L 141 192 
L 141 0 
C 518 -7 742 0 1075 0 
C 1408 19 1638 12 2016 0 
L 2016 192 
L 1709 211 
C 1414 230 1382 281 1382 787 
L 1382 3633 
z
" transform="scale(0.015625)"/>
       <path id="URWPalladioL-Roma-6e" d="M 2624 0 
C 3014 0 3021 0 3130 0 
C 3219 19 3219 19 3661 0 
L 3661 192 
L 3398 211 
C 3181 223 3162 262 3162 670 
L 3162 1902 
C 3162 2649 2810 3014 2093 3014 
C 1856 3014 1722 2969 1587 2854 
L 1101 2432 
L 1101 2988 
L 1043 3008 
C 717 2873 384 2784 45 2746 
L 45 2568 
L 282 2568 
C 538 2568 563 2523 563 2103 
L 563 669 
C 563 268 544 223 326 211 
L 38 192 
L 38 0 
C 474 -7 646 0 832 0 
C 1018 19 1190 12 1626 0 
L 1626 192 
L 1338 211 
C 1120 223 1101 268 1101 670 
L 1101 2023 
C 1101 2311 1523 2624 1914 2624 
C 2342 2624 2624 2304 2624 1813 
L 2624 0 
z
" transform="scale(0.015625)"/>
       <path id="URWPalladioL-Roma-70" d="M 64 2566 
L 301 2566 
C 557 2566 582 2521 582 2100 
L 582 -1118 
C 582 -1523 563 -1568 346 -1581 
L 51 -1600 
L 51 -1792 
C 691 -1773 691 -1773 851 -1773 
C 1011 -1773 1011 -1773 1651 -1792 
L 1651 -1600 
L 1357 -1581 
C 1139 -1568 1120 -1523 1120 -1118 
L 1120 96 
C 1312 -20 1517 -64 1805 -64 
C 1990 -64 2157 -26 2259 38 
L 2989 511 
C 3245 677 3546 1334 3546 1743 
C 3546 2451 2957 3008 2214 3008 
C 1978 3008 1747 2943 1645 2847 
L 1120 2368 
L 1120 2982 
L 1062 3008 
C 736 2873 403 2783 64 2745 
L 64 2566 
z
M 1120 1966 
C 1120 2055 1152 2126 1235 2234 
C 1421 2470 1683 2591 2003 2591 
C 2605 2591 2989 2170 2989 1507 
C 2989 792 2560 262 1984 262 
C 1632 262 1370 377 1120 639 
L 1120 1966 
z
" transform="scale(0.015625)"/>
       <path id="URWPalladioL-Roma-75" d="M 3219 2982 
L 3162 3008 
C 2835 2873 2502 2784 2163 2745 
L 2163 2567 
L 2400 2567 
C 2656 2567 2682 2522 2682 2101 
L 2682 1060 
C 2682 920 2592 741 2445 594 
C 2266 415 2061 326 1811 326 
C 1587 326 1408 396 1306 517 
C 1216 620 1171 817 1171 1098 
L 1171 2982 
L 1114 3008 
C 787 2873 454 2784 115 2745 
L 115 2567 
L 352 2567 
C 608 2567 634 2522 634 2101 
L 634 1028 
C 634 581 672 383 787 224 
C 928 32 1171 -64 1536 -64 
C 1824 -58 2080 32 2253 192 
L 2682 588 
C 2682 403 2675 300 2656 0 
C 3085 0 3091 0 3187 0 
C 3277 19 3277 19 3718 0 
L 3718 192 
L 3456 211 
C 3238 224 3219 262 3219 672 
L 3219 2982 
z
" transform="scale(0.015625)"/>
       <path id="URWPalladioL-Roma-74" d="M 627 2457 
L 627 614 
C 627 140 838 -64 1331 -64 
C 1478 -64 1632 -32 1670 12 
L 1978 352 
L 1894 460 
C 1734 371 1638 339 1517 339 
C 1267 339 1165 467 1165 780 
L 1165 2457 
L 1984 2457 
L 2042 2803 
L 1165 2764 
L 1165 3008 
C 1165 3277 1184 3507 1235 3917 
L 1158 3987 
C 1005 3891 813 3808 614 3744 
C 634 3552 640 3430 640 3238 
L 640 2790 
L 141 2566 
L 141 2432 
L 627 2457 
z
" transform="scale(0.015625)"/>
      </defs>
      <use xlink:href="#URWPalladioL-Roma-49" transform="scale(0.996264)"/>
      <use xlink:href="#URWPalladioL-Roma-6e" transform="translate(33.574079 0)scale(0.996264)"/>
      <use xlink:href="#URWPalladioL-Roma-70" transform="translate(91.55614 0)scale(0.996264)"/>
      <use xlink:href="#URWPalladioL-Roma-75" transform="translate(151.430533 0)scale(0.996264)"/>
      <use xlink:href="#URWPalladioL-Roma-74" transform="translate(211.504268 0)scale(0.996264)"/>
     </g>
    </g>
   </g>
   <g id="line2d_19">
    <path d="M 57.070851 12.189765 
L 64.419078 12.189765 
L 64.419078 15.861011 
L 71.767305 15.861011 
L 71.767305 26.359134 
L 79.115532 26.359134 
L 79.115532 42.209703 
L 86.463759 42.209703 
L 86.463759 61.186553 
L 93.811986 61.186553 
L 93.811986 80.624443 
L 101.160214 80.624443 
L 101.160214 97.793377 
L 108.508441 97.793377 
L 108.508441 110.282031 
L 115.856668 110.282031 
L 115.856668 116.33641 
L 123.204895 116.33641 
L 123.204895 115.106194 
L 130.553122 115.106194 
L 130.553122 106.764164 
L 137.90135 106.764164 
L 137.90135 92.481933 
L 145.249577 92.481933 
L 145.249577 74.265397 
L 152.597804 74.265397 
L 152.597804 54.673016 
L 159.946031 54.673016 
L 159.946031 36.456481 
L 167.294258 36.456481 
L 167.294258 22.17425 
L 174.642486 22.17425 
L 174.642486 13.832219 
L 181.990713 13.832219 
L 181.990713 12.602004 
L 189.33894 12.602004 
L 189.33894 18.656382 
L 196.687167 18.656382 
L 196.687167 31.145036 
L 204.035394 31.145036 
L 204.035394 48.313971 
L 211.383621 48.313971 
L 211.383621 67.75186 
L 218.731849 67.75186 
L 218.731849 86.728711 
L 226.080076 86.728711 
L 226.080076 102.57928 
L 233.428303 102.57928 
L 233.428303 113.077403 
L 240.77653 113.077403 
L 240.77653 116.748649 
L 248.124757 116.748649 
L 248.124757 113.077403 
L 255.472985 113.077403 
L 255.472985 102.57928 
L 262.821212 102.57928 
L 262.821212 86.728711 
L 270.169439 86.728711 
L 270.169439 67.75186 
L 277.517666 67.75186 
L 277.517666 48.313971 
L 284.865893 48.313971 
L 284.865893 31.145036 
L 292.214121 31.145036 
L 292.214121 18.656382 
L 299.562348 18.656382 
L 299.562348 12.602004 
L 306.910575 12.602004 
L 306.910575 13.832219 
L 314.258802 13.832219 
L 314.258802 22.17425 
L 321.607029 22.17425 
L 321.607029 36.456481 
L 328.955256 36.456481 
L 328.955256 54.673016 
L 336.303484 54.673016 
L 336.303484 74.265397 
L 343.651711 74.265397 
L 343.651711 92.481933 
L 350.999938 92.481933 
L 350.999938 106.764164 
L 358.348165 106.764164 
L 358.348165 115.106194 
L 365.696392 115.106194 
L 365.696392 116.33641 
L 373.04462 116.33641 
L 373.04462 110.282031 
L 380.392847 110.282031 
L 380.392847 97.793377 
L 387.741074 97.793377 
L 387.741074 80.624443 
L 395.089301 80.624443 
L 395.089301 61.186553 
L 402.437528 61.186553 
L 402.437528 42.209703 
L 409.785756 42.209703 
L 409.785756 26.359134 
L 417.133983 26.359134 
L 417.133983 15.861011 
" clip-path="url(#p86df28125f)" style="fill: none; stroke: #0271ae; stroke-width: 2; stroke-linecap: round"/>
    <defs>
     <path id="md2a3c5ac03" d="M 0 3.5 
C 0.928211 3.5 1.81853 3.131218 2.474874 2.474874 
C 3.131218 1.81853 3.5 0.928211 3.5 0 
C 3.5 -0.928211 3.131218 -1.81853 2.474874 -2.474874 
C 1.81853 -3.131218 0.928211 -3.5 0 -3.5 
C -0.928211 -3.5 -1.81853 -3.131218 -2.474874 -2.474874 
C -3.131218 -1.81853 -3.5 -0.928211 -3.5 0 
C -3.5 0.928211 -3.131218 1.81853 -2.474874 2.474874 
C -1.81853 3.131218 -0.928211 3.5 0 3.5 
z
" style="stroke: #fefefa; stroke-width: 1.5"/>
    </defs>
    <g clip-path="url(#p86df28125f)">
     <use xlink:href="#md2a3c5ac03" x="57.070851" y="12.189765" style="fill: #0271ae; stroke: #fefefa; stroke-width: 1.5"/>
     <use xlink:href="#md2a3c5ac03" x="64.419078" y="15.861011" style="fill: #0271ae; stroke: #fefefa; stroke-width: 1.5"/>
     <use xlink:href="#md2a3c5ac03" x="71.767305" y="26.359134" style="fill: #0271ae; stroke: #fefefa; stroke-width: 1.5"/>
     <use xlink:href="#md2a3c5ac03" x="79.115532" y="42.209703" style="fill: #0271ae; stroke: #fefefa; stroke-width: 1.5"/>
     <use xlink:href="#md2a3c5ac03" x="86.463759" y="61.186553" style="fill: #0271ae; stroke: #fefefa; stroke-width: 1.5"/>
     <use xlink:href="#md2a3c5ac03" x="93.811986" y="80.624443" style="fill: #0271ae; stroke: #fefefa; stroke-width: 1.5"/>
     <use xlink:href="#md2a3c5ac03" x="101.160214" y="97.793377" style="fill: #0271ae; stroke: #fefefa; stroke-width: 1.5"/>
     <use xlink:href="#md2a3c5ac03" x="108.508441" y="110.282031" style="fill: #0271ae; stroke: #fefefa; stroke-width: 1.5"/>
     <use xlink:href="#md2a3c5ac03" x="115.856668" y="116.33641" style="fill: #0271ae; stroke: #fefefa; stroke-width: 1.5"/>
     <use xlink:href="#md2a3c5ac03" x="123.204895" y="115.106194" style="fill: #0271ae; stroke: #fefefa; stroke-width: 1.5"/>
     <use xlink:href="#md2a3c5ac03" x="130.553122" y="106.764164" style="fill: #0271ae; stroke: #fefefa; stroke-width: 1.5"/>
     <use xlink:href="#md2a3c5ac03" x="137.90135" y="92.481933" style="fill: #0271ae; stroke: #fefefa; stroke-width: 1.5"/>
     <use xlink:href="#md2a3c5ac03" x="145.249577" y="74.265397" style="fill: #0271ae; stroke: #fefefa; stroke-width: 1.5"/>
     <use xlink:href="#md2a3c5ac03" x="152.597804" y="54.673016" style="fill: #0271ae; stroke: #fefefa; stroke-width: 1.5"/>
     <use xlink:href="#md2a3c5ac03" x="159.946031" y="36.456481" style="fill: #0271ae; stroke: #fefefa; stroke-width: 1.5"/>
     <use xlink:href="#md2a3c5ac03" x="167.294258" y="22.17425" style="fill: #0271ae; stroke: #fefefa; stroke-width: 1.5"/>
     <use xlink:href="#md2a3c5ac03" x="174.642486" y="13.832219" style="fill: #0271ae; stroke: #fefefa; stroke-width: 1.5"/>
     <use xlink:href="#md2a3c5ac03" x="181.990713" y="12.602004" style="fill: #0271ae; stroke: #fefefa; stroke-width: 1.5"/>
     <use xlink:href="#md2a3c5ac03" x="189.33894" y="18.656382" style="fill: #0271ae; stroke: #fefefa; stroke-width: 1.5"/>
     <use xlink:href="#md2a3c5ac03" x="196.687167" y="31.145036" style="fill: #0271ae; stroke: #fefefa; stroke-width: 1.5"/>
     <use xlink:href="#md2a3c5ac03" x="204.035394" y="48.313971" style="fill: #0271ae; stroke: #fefefa; stroke-width: 1.5"/>
     <use xlink:href="#md2a3c5ac03" x="211.383621" y="67.75186" style="fill: #0271ae; stroke: #fefefa; stroke-width: 1.5"/>
     <use xlink:href="#md2a3c5ac03" x="218.731849" y="86.728711" style="fill: #0271ae; stroke: #fefefa; stroke-width: 1.5"/>
     <use xlink:href="#md2a3c5ac03" x="226.080076" y="102.57928" style="fill: #0271ae; stroke: #fefefa; stroke-width: 1.5"/>
     <use xlink:href="#md2a3c5ac03" x="233.428303" y="113.077403" style="fill: #0271ae; stroke: #fefefa; stroke-width: 1.5"/>
     <use xlink:href="#md2a3c5ac03" x="240.77653" y="116.748649" style="fill: #0271ae; stroke: #fefefa; stroke-width: 1.5"/>
     <use xlink:href="#md2a3c5ac03" x="248.124757" y="113.077403" style="fill: #0271ae; stroke: #fefefa; stroke-width: 1.5"/>
     <use xlink:href="#md2a3c5ac03" x="255.472985" y="102.57928" style="fill: #0271ae; stroke: #fefefa; stroke-width: 1.5"/>
     <use xlink:href="#md2a3c5ac03" x="262.821212" y="86.728711" style="fill: #0271ae; stroke: #fefefa; stroke-width: 1.5"/>
     <use xlink:href="#md2a3c5ac03" x="270.169439" y="67.75186" style="fill: #0271ae; stroke: #fefefa; stroke-width: 1.5"/>
     <use xlink:href="#md2a3c5ac03" x="277.517666" y="48.313971" style="fill: #0271ae; stroke: #fefefa; stroke-width: 1.5"/>
     <use xlink:href="#md2a3c5ac03" x="284.865893" y="31.145036" style="fill: #0271ae; stroke: #fefefa; stroke-width: 1.5"/>
     <use xlink:href="#md2a3c5ac03" x="292.214121" y="18.656382" style="fill: #0271ae; stroke: #fefefa; stroke-width: 1.5"/>
     <use xlink:href="#md2a3c5ac03" x="299.562348" y="12.602004" style="fill: #0271ae; stroke: #fefefa; stroke-width: 1.5"/>
     <use xlink:href="#md2a3c5ac03" x="306.910575" y="13.832219" style="fill: #0271ae; stroke: #fefefa; stroke-width: 1.5"/>
     <use xlink:href="#md2a3c5ac03" x="314.258802" y="22.17425" style="fill: #0271ae; stroke: #fefefa; stroke-width: 1.5"/>
     <use xlink:href="#md2a3c5ac03" x="321.607029" y="36.456481" style="fill: #0271ae; stroke: #fefefa; stroke-width: 1.5"/>
     <use xlink:href="#md2a3c5ac03" x="328.955256" y="54.673016" style="fill: #0271ae; stroke: #fefefa; stroke-width: 1.5"/>
     <use xlink:href="#md2a3c5ac03" x="336.303484" y="74.265397" style="fill: #0271ae; stroke: #fefefa; stroke-width: 1.5"/>
     <use xlink:href="#md2a3c5ac03" x="343.651711" y="92.481933" style="fill: #0271ae; stroke: #fefefa; stroke-width: 1.5"/>
     <use xlink:href="#md2a3c5ac03" x="350.999938" y="106.764164" style="fill: #0271ae; stroke: #fefefa; stroke-width: 1.5"/>
     <use xlink:href="#md2a3c5ac03" x="358.348165" y="115.106194" style="fill: #0271ae; stroke: #fefefa; stroke-width: 1.5"/>
     <use xlink:href="#md2a3c5ac03" x="365.696392" y="116.33641" style="fill: #0271ae; stroke: #fefefa; stroke-width: 1.5"/>
     <use xlink:href="#md2a3c5ac03" x="373.04462" y="110.282031" style="fill: #0271ae; stroke: #fefefa; stroke-width: 1.5"/>
     <use xlink:href="#md2a3c5ac03" x="380.392847" y="97.793377" style="fill: #0271ae; stroke: #fefefa; stroke-width: 1.5"/>
     <use xlink:href="#md2a3c5ac03" x="387.741074" y="80.624443" style="fill: #0271ae; stroke: #fefefa; stroke-width: 1.5"/>
     <use xlink:href="#md2a3c5ac03" x="395.089301" y="61.186553" style="fill: #0271ae; stroke: #fefefa; stroke-width: 1.5"/>
     <use xlink:href="#md2a3c5ac03" x="402.437528" y="42.209703" style="fill: #0271ae; stroke: #fefefa; stroke-width: 1.5"/>
     <use xlink:href="#md2a3c5ac03" x="409.785756" y="26.359134" style="fill: #0271ae; stroke: #fefefa; stroke-width: 1.5"/>
     <use xlink:href="#md2a3c5ac03" x="417.133983" y="15.861011" style="fill: #0271ae; stroke: #fefefa; stroke-width: 1.5"/>
    </g>
   </g>
   <g id="legend_1">
    <g id="patch_3">
     <path d="M 359.90006 42.309274 
L 414.68221 42.309274 
Q 417.48221 42.309274 417.48221 39.509274 
L 417.48221 19.375793 
Q 417.48221 16.575793 414.68221 16.575793 
L 359.90006 16.575793 
Q 357.10006 16.575793 357.10006 19.375793 
L 357.10006 39.509274 
Q 357.10006 42.309274 359.90006 42.309274 
z
" style="fill: #ffffff; opacity: 0.95; stroke: #cccccc; stroke-width: 0.5; stroke-linejoin: miter"/>
    </g>
    <g id="line2d_20">
     <path d="M 362.70006 27.876102 
L 369.70006 27.876102 
L 369.70006 27.876102 
L 376.70006 27.876102 
L 376.70006 27.876102 
" style="fill: none; stroke: #0271ae; stroke-width: 2; stroke-linecap: round"/>
     <g>
      <use xlink:href="#md2a3c5ac03" x="369.70006" y="27.876102" style="fill: #0271ae; stroke: #fefefa; stroke-width: 1.5"/>
     </g>
    </g>
    <g id="text_5">
     <!-- $x[n]$ -->
     <g style="fill: #0271ae" transform="translate(387.90006 32.776102)scale(0.14 -0.14)">
      <defs>
       <path id="URWPalladioL-Ital-78" d="M 134 567 
C 134 440 122 358 83 153 
C 70 76 64 57 58 12 
C 154 -39 256 -64 333 -64 
C 544 -64 794 121 992 421 
L 1478 1164 
L 1549 726 
C 1632 185 1779 -64 2010 -64 
C 2150 -64 2355 44 2560 230 
L 2874 510 
L 2816 631 
C 2586 440 2426 345 2323 345 
C 2227 345 2144 409 2080 536 
C 2022 656 1952 891 1920 1075 
L 1805 1716 
L 2029 2027 
C 2330 2439 2502 2585 2701 2585 
C 2803 2585 2880 2534 2912 2439 
L 3002 2465 
L 3098 3007 
C 3021 3052 2963 3072 2906 3072 
C 2650 3072 2394 2841 1997 2255 
L 1760 1906 
L 1722 2211 
C 1645 2841 1472 3072 1094 3072 
C 928 3072 787 3020 730 2937 
L 358 2408 
L 467 2344 
C 659 2560 787 2649 909 2649 
C 1120 2649 1261 2389 1370 1767 
L 1440 1373 
L 1184 980 
C 909 555 691 352 512 352 
C 416 352 346 377 333 409 
L 262 586 
L 134 567 
z
" transform="scale(0.015625)"/>
       <path id="CMR10-5b" d="M 1632 -1601 
L 1632 -1344 
L 1011 -1344 
L 1011 4544 
L 1632 4544 
L 1632 4800 
L 755 4800 
L 755 -1601 
L 1632 -1601 
z
" transform="scale(0.015625)"/>
       <path id="URWPalladioL-Ital-6e" d="M 154 2471 
L 198 2343 
L 403 2477 
C 640 2624 659 2637 704 2637 
C 774 2637 819 2573 819 2477 
C 819 2152 557 919 294 6 
L 339 -64 
C 499 -20 646 19 787 44 
C 909 849 1043 1264 1338 1705 
C 1683 2241 2163 2637 2451 2637 
C 2522 2637 2560 2579 2560 2484 
C 2560 2369 2541 2235 2490 2030 
L 2157 677 
C 2099 440 2074 293 2074 191 
C 2074 32 2144 -64 2266 -64 
C 2432 -64 2662 70 3290 536 
L 3226 651 
L 3059 542 
C 2874 421 2733 351 2669 351 
C 2624 351 2586 408 2586 479 
C 2586 511 2592 581 2598 606 
L 3021 2369 
C 3066 2554 3091 2733 3091 2841 
C 3091 2988 3021 3072 2893 3072 
C 2624 3072 2182 2829 1805 2477 
C 1562 2254 1382 2037 1050 1571 
L 1293 2599 
C 1318 2714 1331 2790 1331 2860 
C 1331 2995 1280 3072 1184 3072 
C 1050 3072 800 2931 333 2599 
L 154 2471 
z
" transform="scale(0.015625)"/>
       <path id="CMR10-5d" d="M 1018 4800 
L 141 4800 
L 141 4544 
L 762 4544 
L 762 -1344 
L 141 -1344 
L 141 -1601 
L 1018 -1601 
L 1018 4800 
z
" transform="scale(0.015625)"/>
      </defs>
      <use xlink:href="#URWPalladioL-Ital-78" transform="scale(0.996264)"/>
      <use xlink:href="#CMR10-5b" transform="translate(53.299136 0)scale(1.038107)"/>
      <use xlink:href="#URWPalladioL-Ital-6e" transform="translate(84.581835 0)scale(0.996264)"/>
      <use xlink:href="#CMR10-5d" transform="translate(142.464796 0)scale(1.038107)"/>
     </g>
    </g>
   </g>
  </g>
  <g id="axes_2">
   <g id="patch_4">
    <path d="M 57.070851 243.852668 
L 424.48221 243.852668 
L 424.48221 134.06584 
L 57.070851 134.06584 
L 57.070851 243.852668 
z
" style="fill: none"/>
   </g>
   <g id="line2d_21">
    <path d="M 57.070851 144.521728 
L 424.48221 144.521728 
" clip-path="url(#pf53ae71a12)" style="fill: none; stroke-dasharray: 2,3.3; stroke-dashoffset: 0; stroke: #f2aa00; stroke-width: 2; stroke-linejoin: bevel"/>
   </g>
   <g id="line2d_22">
    <path d="M 57.070851 202.029114 
L 424.48221 202.029114 
" clip-path="url(#pf53ae71a12)" style="fill: none; stroke-dasharray: 2,3.3; stroke-dashoffset: 0; stroke: #dc2830; stroke-width: 2; stroke-linejoin: bevel"/>
   </g>
   <g id="line2d_23">
    <path d="M 57.070851 136.679812 
L 64.419078 136.679812 
L 64.419078 140.351058 
L 71.767305 140.351058 
L 71.767305 150.849181 
L 79.115532 150.849181 
L 79.115532 166.69975 
L 86.463759 166.69975 
L 86.463759 185.6766 
L 93.811986 185.6766 
L 93.811986 205.11449 
L 101.160214 205.11449 
L 101.160214 222.283424 
L 108.508441 222.283424 
L 108.508441 234.772078 
L 115.856668 234.772078 
L 115.856668 240.826457 
L 123.204895 240.826457 
L 123.204895 239.596241 
L 130.553122 239.596241 
L 130.553122 231.254211 
L 137.90135 231.254211 
L 137.90135 216.97198 
L 145.249577 216.97198 
L 145.249577 198.755444 
L 152.597804 198.755444 
L 152.597804 179.163063 
L 159.946031 179.163063 
L 159.946031 160.946528 
L 167.294258 160.946528 
L 167.294258 146.664297 
L 174.642486 146.664297 
L 174.642486 138.322266 
L 181.990713 138.322266 
L 181.990713 137.092051 
L 189.33894 137.092051 
L 189.33894 143.146429 
L 196.687167 143.146429 
L 196.687167 155.635083 
L 204.035394 155.635083 
L 204.035394 172.804018 
L 211.383621 172.804018 
L 211.383621 192.241907 
L 218.731849 192.241907 
L 218.731849 211.218758 
L 226.080076 211.218758 
L 226.080076 227.069327 
L 233.428303 227.069327 
L 233.428303 237.56745 
L 240.77653 237.56745 
L 240.77653 241.238696 
L 248.124757 241.238696 
L 248.124757 237.56745 
L 255.472985 237.56745 
L 255.472985 227.069327 
L 262.821212 227.069327 
L 262.821212 211.218758 
L 270.169439 211.218758 
L 270.169439 192.241907 
L 277.517666 192.241907 
L 277.517666 172.804018 
L 284.865893 172.804018 
L 284.865893 155.635083 
L 292.214121 155.635083 
L 292.214121 143.146429 
L 299.562348 143.146429 
L 299.562348 137.092051 
L 306.910575 137.092051 
L 306.910575 138.322266 
L 314.258802 138.322266 
L 314.258802 146.664297 
L 321.607029 146.664297 
L 321.607029 160.946528 
L 328.955256 160.946528 
L 328.955256 179.163063 
L 336.303484 179.163063 
L 336.303484 198.755444 
L 343.651711 198.755444 
L 343.651711 216.97198 
L 350.999938 216.97198 
L 350.999938 231.254211 
L 358.348165 231.254211 
L 358.348165 239.596241 
L 365.696392 239.596241 
L 365.696392 240.826457 
L 373.04462 240.826457 
L 373.04462 234.772078 
L 380.392847 234.772078 
L 380.392847 222.283424 
L 387.741074 222.283424 
L 387.741074 205.11449 
L 395.089301 205.11449 
L 395.089301 185.6766 
L 402.437528 185.6766 
L 402.437528 166.69975 
L 409.785756 166.69975 
L 409.785756 150.849181 
L 417.133983 150.849181 
L 417.133983 140.351058 
" clip-path="url(#pf53ae71a12)" style="fill: none; stroke: #0271ae; stroke-opacity: 0.2; stroke-width: 2; stroke-linecap: round"/>
    <defs>
     <path id="m0d280181cb" d="M 0 3.5 
C 0.928211 3.5 1.81853 3.131218 2.474874 2.474874 
C 3.131218 1.81853 3.5 0.928211 3.5 0 
C 3.5 -0.928211 3.131218 -1.81853 2.474874 -2.474874 
C 1.81853 -3.131218 0.928211 -3.5 0 -3.5 
C -0.928211 -3.5 -1.81853 -3.131218 -2.474874 -2.474874 
C -3.131218 -1.81853 -3.5 -0.928211 -3.5 0 
C -3.5 0.928211 -3.131218 1.81853 -2.474874 2.474874 
C -1.81853 3.131218 -0.928211 3.5 0 3.5 
z
" style="stroke: #fefefa; stroke-opacity: 0.2; stroke-width: 1.5"/>
    </defs>
    <g clip-path="url(#pf53ae71a12)">
     <use xlink:href="#m0d280181cb" x="57.070851" y="136.679812" style="fill: #0271ae; fill-opacity: 0.2; stroke: #fefefa; stroke-opacity: 0.2; stroke-width: 1.5"/>
     <use xlink:href="#m0d280181cb" x="64.419078" y="140.351058" style="fill: #0271ae; fill-opacity: 0.2; stroke: #fefefa; stroke-opacity: 0.2; stroke-width: 1.5"/>
     <use xlink:href="#m0d280181cb" x="71.767305" y="150.849181" style="fill: #0271ae; fill-opacity: 0.2; stroke: #fefefa; stroke-opacity: 0.2; stroke-width: 1.5"/>
     <use xlink:href="#m0d280181cb" x="79.115532" y="166.69975" style="fill: #0271ae; fill-opacity: 0.2; stroke: #fefefa; stroke-opacity: 0.2; stroke-width: 1.5"/>
     <use xlink:href="#m0d280181cb" x="86.463759" y="185.6766" style="fill: #0271ae; fill-opacity: 0.2; stroke: #fefefa; stroke-opacity: 0.2; stroke-width: 1.5"/>
     <use xlink:href="#m0d280181cb" x="93.811986" y="205.11449" style="fill: #0271ae; fill-opacity: 0.2; stroke: #fefefa; stroke-opacity: 0.2; stroke-width: 1.5"/>
     <use xlink:href="#m0d280181cb" x="101.160214" y="222.283424" style="fill: #0271ae; fill-opacity: 0.2; stroke: #fefefa; stroke-opacity: 0.2; stroke-width: 1.5"/>
     <use xlink:href="#m0d280181cb" x="108.508441" y="234.772078" style="fill: #0271ae; fill-opacity: 0.2; stroke: #fefefa; stroke-opacity: 0.2; stroke-width: 1.5"/>
     <use xlink:href="#m0d280181cb" x="115.856668" y="240.826457" style="fill: #0271ae; fill-opacity: 0.2; stroke: #fefefa; stroke-opacity: 0.2; stroke-width: 1.5"/>
     <use xlink:href="#m0d280181cb" x="123.204895" y="239.596241" style="fill: #0271ae; fill-opacity: 0.2; stroke: #fefefa; stroke-opacity: 0.2; stroke-width: 1.5"/>
     <use xlink:href="#m0d280181cb" x="130.553122" y="231.254211" style="fill: #0271ae; fill-opacity: 0.2; stroke: #fefefa; stroke-opacity: 0.2; stroke-width: 1.5"/>
     <use xlink:href="#m0d280181cb" x="137.90135" y="216.97198" style="fill: #0271ae; fill-opacity: 0.2; stroke: #fefefa; stroke-opacity: 0.2; stroke-width: 1.5"/>
     <use xlink:href="#m0d280181cb" x="145.249577" y="198.755444" style="fill: #0271ae; fill-opacity: 0.2; stroke: #fefefa; stroke-opacity: 0.2; stroke-width: 1.5"/>
     <use xlink:href="#m0d280181cb" x="152.597804" y="179.163063" style="fill: #0271ae; fill-opacity: 0.2; stroke: #fefefa; stroke-opacity: 0.2; stroke-width: 1.5"/>
     <use xlink:href="#m0d280181cb" x="159.946031" y="160.946528" style="fill: #0271ae; fill-opacity: 0.2; stroke: #fefefa; stroke-opacity: 0.2; stroke-width: 1.5"/>
     <use xlink:href="#m0d280181cb" x="167.294258" y="146.664297" style="fill: #0271ae; fill-opacity: 0.2; stroke: #fefefa; stroke-opacity: 0.2; stroke-width: 1.5"/>
     <use xlink:href="#m0d280181cb" x="174.642486" y="138.322266" style="fill: #0271ae; fill-opacity: 0.2; stroke: #fefefa; stroke-opacity: 0.2; stroke-width: 1.5"/>
     <use xlink:href="#m0d280181cb" x="181.990713" y="137.092051" style="fill: #0271ae; fill-opacity: 0.2; stroke: #fefefa; stroke-opacity: 0.2; stroke-width: 1.5"/>
     <use xlink:href="#m0d280181cb" x="189.33894" y="143.146429" style="fill: #0271ae; fill-opacity: 0.2; stroke: #fefefa; stroke-opacity: 0.2; stroke-width: 1.5"/>
     <use xlink:href="#m0d280181cb" x="196.687167" y="155.635083" style="fill: #0271ae; fill-opacity: 0.2; stroke: #fefefa; stroke-opacity: 0.2; stroke-width: 1.5"/>
     <use xlink:href="#m0d280181cb" x="204.035394" y="172.804018" style="fill: #0271ae; fill-opacity: 0.2; stroke: #fefefa; stroke-opacity: 0.2; stroke-width: 1.5"/>
     <use xlink:href="#m0d280181cb" x="211.383621" y="192.241907" style="fill: #0271ae; fill-opacity: 0.2; stroke: #fefefa; stroke-opacity: 0.2; stroke-width: 1.5"/>
     <use xlink:href="#m0d280181cb" x="218.731849" y="211.218758" style="fill: #0271ae; fill-opacity: 0.2; stroke: #fefefa; stroke-opacity: 0.2; stroke-width: 1.5"/>
     <use xlink:href="#m0d280181cb" x="226.080076" y="227.069327" style="fill: #0271ae; fill-opacity: 0.2; stroke: #fefefa; stroke-opacity: 0.2; stroke-width: 1.5"/>
     <use xlink:href="#m0d280181cb" x="233.428303" y="237.56745" style="fill: #0271ae; fill-opacity: 0.2; stroke: #fefefa; stroke-opacity: 0.2; stroke-width: 1.5"/>
     <use xlink:href="#m0d280181cb" x="240.77653" y="241.238696" style="fill: #0271ae; fill-opacity: 0.2; stroke: #fefefa; stroke-opacity: 0.2; stroke-width: 1.5"/>
     <use xlink:href="#m0d280181cb" x="248.124757" y="237.56745" style="fill: #0271ae; fill-opacity: 0.2; stroke: #fefefa; stroke-opacity: 0.2; stroke-width: 1.5"/>
     <use xlink:href="#m0d280181cb" x="255.472985" y="227.069327" style="fill: #0271ae; fill-opacity: 0.2; stroke: #fefefa; stroke-opacity: 0.2; stroke-width: 1.5"/>
     <use xlink:href="#m0d280181cb" x="262.821212" y="211.218758" style="fill: #0271ae; fill-opacity: 0.2; stroke: #fefefa; stroke-opacity: 0.2; stroke-width: 1.5"/>
     <use xlink:href="#m0d280181cb" x="270.169439" y="192.241907" style="fill: #0271ae; fill-opacity: 0.2; stroke: #fefefa; stroke-opacity: 0.2; stroke-width: 1.5"/>
     <use xlink:href="#m0d280181cb" x="277.517666" y="172.804018" style="fill: #0271ae; fill-opacity: 0.2; stroke: #fefefa; stroke-opacity: 0.2; stroke-width: 1.5"/>
     <use xlink:href="#m0d280181cb" x="284.865893" y="155.635083" style="fill: #0271ae; fill-opacity: 0.2; stroke: #fefefa; stroke-opacity: 0.2; stroke-width: 1.5"/>
     <use xlink:href="#m0d280181cb" x="292.214121" y="143.146429" style="fill: #0271ae; fill-opacity: 0.2; stroke: #fefefa; stroke-opacity: 0.2; stroke-width: 1.5"/>
     <use xlink:href="#m0d280181cb" x="299.562348" y="137.092051" style="fill: #0271ae; fill-opacity: 0.2; stroke: #fefefa; stroke-opacity: 0.2; stroke-width: 1.5"/>
     <use xlink:href="#m0d280181cb" x="306.910575" y="138.322266" style="fill: #0271ae; fill-opacity: 0.2; stroke: #fefefa; stroke-opacity: 0.2; stroke-width: 1.5"/>
     <use xlink:href="#m0d280181cb" x="314.258802" y="146.664297" style="fill: #0271ae; fill-opacity: 0.2; stroke: #fefefa; stroke-opacity: 0.2; stroke-width: 1.5"/>
     <use xlink:href="#m0d280181cb" x="321.607029" y="160.946528" style="fill: #0271ae; fill-opacity: 0.2; stroke: #fefefa; stroke-opacity: 0.2; stroke-width: 1.5"/>
     <use xlink:href="#m0d280181cb" x="328.955256" y="179.163063" style="fill: #0271ae; fill-opacity: 0.2; stroke: #fefefa; stroke-opacity: 0.2; stroke-width: 1.5"/>
     <use xlink:href="#m0d280181cb" x="336.303484" y="198.755444" style="fill: #0271ae; fill-opacity: 0.2; stroke: #fefefa; stroke-opacity: 0.2; stroke-width: 1.5"/>
     <use xlink:href="#m0d280181cb" x="343.651711" y="216.97198" style="fill: #0271ae; fill-opacity: 0.2; stroke: #fefefa; stroke-opacity: 0.2; stroke-width: 1.5"/>
     <use xlink:href="#m0d280181cb" x="350.999938" y="231.254211" style="fill: #0271ae; fill-opacity: 0.2; stroke: #fefefa; stroke-opacity: 0.2; stroke-width: 1.5"/>
     <use xlink:href="#m0d280181cb" x="358.348165" y="239.596241" style="fill: #0271ae; fill-opacity: 0.2; stroke: #fefefa; stroke-opacity: 0.2; stroke-width: 1.5"/>
     <use xlink:href="#m0d280181cb" x="365.696392" y="240.826457" style="fill: #0271ae; fill-opacity: 0.2; stroke: #fefefa; stroke-opacity: 0.2; stroke-width: 1.5"/>
     <use xlink:href="#m0d280181cb" x="373.04462" y="234.772078" style="fill: #0271ae; fill-opacity: 0.2; stroke: #fefefa; stroke-opacity: 0.2; stroke-width: 1.5"/>
     <use xlink:href="#m0d280181cb" x="380.392847" y="222.283424" style="fill: #0271ae; fill-opacity: 0.2; stroke: #fefefa; stroke-opacity: 0.2; stroke-width: 1.5"/>
     <use xlink:href="#m0d280181cb" x="387.741074" y="205.11449" style="fill: #0271ae; fill-opacity: 0.2; stroke: #fefefa; stroke-opacity: 0.2; stroke-width: 1.5"/>
     <use xlink:href="#m0d280181cb" x="395.089301" y="185.6766" style="fill: #0271ae; fill-opacity: 0.2; stroke: #fefefa; stroke-opacity: 0.2; stroke-width: 1.5"/>
     <use xlink:href="#m0d280181cb" x="402.437528" y="166.69975" style="fill: #0271ae; fill-opacity: 0.2; stroke: #fefefa; stroke-opacity: 0.2; stroke-width: 1.5"/>
     <use xlink:href="#m0d280181cb" x="409.785756" y="150.849181" style="fill: #0271ae; fill-opacity: 0.2; stroke: #fefefa; stroke-opacity: 0.2; stroke-width: 1.5"/>
     <use xlink:href="#m0d280181cb" x="417.133983" y="140.351058" style="fill: #0271ae; fill-opacity: 0.2; stroke: #fefefa; stroke-opacity: 0.2; stroke-width: 1.5"/>
    </g>
   </g>
   <g id="matplotlib.axis_3">
    <g id="xtick_7">
     <g id="line2d_24">
      <path d="M 57.070851 243.852668 
L 57.070851 134.06584 
" clip-path="url(#pf53ae71a12)" style="fill: none; stroke: #000000; stroke-opacity: 0.2; stroke-width: 0.5; stroke-linecap: round"/>
     </g>
     <g id="line2d_25">
      <g>
       <use xlink:href="#mddad6961e0" x="57.070851" y="243.852668" style="fill-opacity: 0.2; stroke: #000000; stroke-opacity: 0.2; stroke-width: 0.5"/>
      </g>
     </g>
     <g id="text_6">
      <!-- $\mathdefault{0.0}$ -->
      <g transform="translate(48.35354 269.332197)scale(0.14 -0.14)">
       <defs>
        <path id="URWPalladioL-Roma-2e" d="M 794 678 
C 602 678 429 499 429 307 
C 429 115 602 -64 787 -64 
C 992 -64 1171 108 1171 307 
C 1171 499 992 678 794 678 
z
" transform="scale(0.015625)"/>
       </defs>
       <use xlink:href="#URWPalladioL-Roma-30" transform="scale(0.996264)"/>
       <use xlink:href="#URWPalladioL-Roma-2e" transform="translate(49.8132 0)scale(0.996264)"/>
       <use xlink:href="#URWPalladioL-Roma-30" transform="translate(74.719801 0)scale(0.996264)"/>
      </g>
     </g>
    </g>
    <g id="xtick_8">
     <g id="line2d_26">
      <path d="M 130.553122 243.852668 
L 130.553122 134.06584 
" clip-path="url(#pf53ae71a12)" style="fill: none; stroke: #000000; stroke-opacity: 0.2; stroke-width: 0.5; stroke-linecap: round"/>
     </g>
     <g id="line2d_27">
      <g>
       <use xlink:href="#mddad6961e0" x="130.553122" y="243.852668" style="fill-opacity: 0.2; stroke: #000000; stroke-opacity: 0.2; stroke-width: 0.5"/>
      </g>
     </g>
     <g id="text_7">
      <!-- $\mathdefault{0.2}$ -->
      <g transform="translate(121.835812 269.332197)scale(0.14 -0.14)">
       <defs>
        <path id="URWPalladioL-Roma-32" d="M 102 166 
L 102 0 
C 1299 0 1299 0 1530 0 
C 1760 19 1760 19 2995 0 
C 2982 134 2982 198 2982 287 
C 2982 370 2982 434 2995 574 
C 2259 542 1965 536 781 510 
L 1946 1741 
C 2566 2398 2758 2749 2758 3228 
C 2758 3961 2259 4416 1446 4416 
C 986 4416 672 4287 358 3967 
L 250 3100 
L 435 3100 
L 518 3394 
C 621 3763 851 3923 1280 3923 
C 1830 3923 2182 3578 2182 3036 
C 2182 2558 1914 2086 1190 1320 
L 102 166 
z
" transform="scale(0.015625)"/>
       </defs>
       <use xlink:href="#URWPalladioL-Roma-30" transform="scale(0.996264)"/>
       <use xlink:href="#URWPalladioL-Roma-2e" transform="translate(49.8132 0)scale(0.996264)"/>
       <use xlink:href="#URWPalladioL-Roma-32" transform="translate(74.719801 0)scale(0.996264)"/>
      </g>
     </g>
    </g>
    <g id="xtick_9">
     <g id="line2d_28">
      <path d="M 204.035394 243.852668 
L 204.035394 134.06584 
" clip-path="url(#pf53ae71a12)" style="fill: none; stroke: #000000; stroke-opacity: 0.2; stroke-width: 0.5; stroke-linecap: round"/>
     </g>
     <g id="line2d_29">
      <g>
       <use xlink:href="#mddad6961e0" x="204.035394" y="243.852668" style="fill-opacity: 0.2; stroke: #000000; stroke-opacity: 0.2; stroke-width: 0.5"/>
      </g>
     </g>
     <g id="text_8">
      <!-- $\mathdefault{0.4}$ -->
      <g transform="translate(195.318084 269.332197)scale(0.14 -0.14)">
       <defs>
        <path id="URWPalladioL-Roma-34" d="M 1792 1152 
L 1792 684 
C 1792 310 1722 223 1408 210 
L 1011 192 
L 1011 0 
C 1862 0 1862 0 2016 0 
C 2170 19 2170 19 3021 0 
L 3021 192 
L 2714 210 
C 2400 229 2330 310 2330 684 
L 2330 1152 
C 2707 1152 2842 1145 3021 1127 
L 3021 1580 
C 2720 1555 2598 1555 2502 1561 
L 2483 1561 
L 2330 1561 
L 2330 2445 
C 2330 3576 2342 4122 2374 4383 
L 2298 4416 
L 1824 4243 
L 13 1299 
L 83 1152 
L 1792 1152 
z
M 1792 1561 
L 416 1561 
L 1792 3798 
L 1792 1561 
z
" transform="scale(0.015625)"/>
       </defs>
       <use xlink:href="#URWPalladioL-Roma-30" transform="scale(0.996264)"/>
       <use xlink:href="#URWPalladioL-Roma-2e" transform="translate(49.8132 0)scale(0.996264)"/>
       <use xlink:href="#URWPalladioL-Roma-34" transform="translate(74.719801 0)scale(0.996264)"/>
      </g>
     </g>
    </g>
    <g id="xtick_10">
     <g id="line2d_30">
      <path d="M 277.517666 243.852668 
L 277.517666 134.06584 
" clip-path="url(#pf53ae71a12)" style="fill: none; stroke: #000000; stroke-opacity: 0.2; stroke-width: 0.5; stroke-linecap: round"/>
     </g>
     <g id="line2d_31">
      <g>
       <use xlink:href="#mddad6961e0" x="277.517666" y="243.852668" style="fill-opacity: 0.2; stroke: #000000; stroke-opacity: 0.2; stroke-width: 0.5"/>
      </g>
     </g>
     <g id="text_9">
      <!-- $\mathdefault{0.6}$ -->
      <g transform="translate(268.800356 269.332197)scale(0.14 -0.14)">
       <defs>
        <path id="URWPalladioL-Roma-36" d="M 2662 4287 
L 2426 4396 
C 1811 4193 1549 4066 1222 3788 
C 563 3237 205 2463 205 1585 
C 205 526 717 -128 1542 -128 
C 2374 -128 2995 532 2995 1405 
C 2995 2143 2554 2624 1875 2624 
C 1555 2624 1363 2540 986 2239 
C 915 2182 909 2175 838 2124 
C 973 3275 1510 3895 2662 4237 
L 2662 4287 
z
M 1632 2239 
C 2118 2239 2445 1816 2445 1180 
C 2445 513 2118 83 1626 83 
C 1082 83 787 551 787 1411 
C 787 1636 813 1758 883 1867 
C 1024 2085 1325 2239 1632 2239 
z
" transform="scale(0.015625)"/>
       </defs>
       <use xlink:href="#URWPalladioL-Roma-30" transform="scale(0.996264)"/>
       <use xlink:href="#URWPalladioL-Roma-2e" transform="translate(49.8132 0)scale(0.996264)"/>
       <use xlink:href="#URWPalladioL-Roma-36" transform="translate(74.719801 0)scale(0.996264)"/>
      </g>
     </g>
    </g>
    <g id="xtick_11">
     <g id="line2d_32">
      <path d="M 350.999938 243.852668 
L 350.999938 134.06584 
" clip-path="url(#pf53ae71a12)" style="fill: none; stroke: #000000; stroke-opacity: 0.2; stroke-width: 0.5; stroke-linecap: round"/>
     </g>
     <g id="line2d_33">
      <g>
       <use xlink:href="#mddad6961e0" x="350.999938" y="243.852668" style="fill-opacity: 0.2; stroke: #000000; stroke-opacity: 0.2; stroke-width: 0.5"/>
      </g>
     </g>
     <g id="text_10">
      <!-- $\mathdefault{0.8}$ -->
      <g transform="translate(342.282628 269.332197)scale(0.14 -0.14)">
       <defs>
        <path id="URWPalladioL-Roma-38" d="M 1075 2211 
C 813 2089 704 2019 563 1884 
C 320 1640 192 1352 192 1019 
C 192 358 723 -128 1446 -128 
C 2278 -128 2970 525 2970 1320 
C 2970 1833 2733 2108 2003 2442 
C 2586 2839 2790 3108 2790 3493 
C 2790 4044 2336 4416 1658 4416 
C 896 4416 339 3929 339 3256 
C 339 2820 512 2576 1075 2211 
z
M 1818 1890 
C 2221 1711 2464 1397 2464 1051 
C 2464 512 2061 89 1542 89 
C 998 89 646 474 646 1070 
C 646 1538 832 1833 1306 2121 
L 1818 1890 
z
M 1427 2711 
C 1024 2910 819 3166 819 3486 
C 819 3910 1126 4198 1581 4198 
C 2048 4198 2355 3890 2355 3422 
C 2355 3057 2195 2807 1779 2538 
L 1427 2711 
z
" transform="scale(0.015625)"/>
       </defs>
       <use xlink:href="#URWPalladioL-Roma-30" transform="scale(0.996264)"/>
       <use xlink:href="#URWPalladioL-Roma-2e" transform="translate(49.8132 0)scale(0.996264)"/>
       <use xlink:href="#URWPalladioL-Roma-38" transform="translate(74.719801 0)scale(0.996264)"/>
      </g>
     </g>
    </g>
    <g id="xtick_12">
     <g id="line2d_34">
      <path d="M 424.48221 243.852668 
L 424.48221 134.06584 
" clip-path="url(#pf53ae71a12)" style="fill: none; stroke: #000000; stroke-opacity: 0.2; stroke-width: 0.5; stroke-linecap: round"/>
     </g>
     <g id="line2d_35">
      <g>
       <use xlink:href="#mddad6961e0" x="424.48221" y="243.852668" style="fill-opacity: 0.2; stroke: #000000; stroke-opacity: 0.2; stroke-width: 0.5"/>
      </g>
     </g>
     <g id="text_11">
      <!-- $\mathdefault{1.0}$ -->
      <g transform="translate(415.7649 269.332197)scale(0.14 -0.14)">
       <use xlink:href="#URWPalladioL-Roma-31" transform="scale(0.996264)"/>
       <use xlink:href="#URWPalladioL-Roma-2e" transform="translate(49.8132 0)scale(0.996264)"/>
       <use xlink:href="#URWPalladioL-Roma-30" transform="translate(74.719801 0)scale(0.996264)"/>
      </g>
     </g>
    </g>
    <g id="text_12">
     <!-- Time [seconds] -->
     <g transform="translate(201.103679 285.819245)scale(0.12 -0.12)">
      <defs>
       <path id="URWPalladioL-Roma-54" d="M 1632 4096 
C 1651 3880 1658 3734 1658 3462 
L 1658 781 
C 1658 280 1626 230 1331 211 
L 1024 192 
L 1024 0 
C 1402 -7 1626 0 1958 0 
C 2291 19 2522 12 2899 0 
L 2899 192 
L 2592 211 
C 2298 230 2266 280 2266 781 
L 2266 3462 
C 2266 3747 2272 3887 2291 4096 
L 3283 4096 
C 3462 4096 3533 4039 3539 3887 
L 3565 3386 
L 3763 3386 
C 3763 3801 3776 4051 3808 4416 
C 3347 4409 3136 4409 2957 4403 
C 2707 4390 2522 4390 2426 4390 
L 1414 4390 
C 1350 4390 1005 4396 550 4403 
L 115 4416 
C 147 4051 160 3801 160 3385 
L 358 3385 
L 384 3891 
C 390 4038 461 4096 640 4096 
L 1632 4096 
z
" transform="scale(0.015625)"/>
       <path id="URWPalladioL-Roma-69" d="M 1203 2982 
L 1146 3008 
C 819 2873 486 2784 147 2746 
L 147 2568 
L 384 2568 
C 640 2568 666 2523 666 2103 
L 666 669 
C 666 268 646 223 429 211 
L 134 192 
L 134 0 
C 774 0 774 0 934 0 
C 1094 19 1094 19 1734 0 
L 1734 192 
L 1440 211 
C 1222 224 1203 268 1203 671 
L 1203 2982 
z
M 909 4416 
C 717 4416 550 4249 550 4057 
C 550 3871 717 3705 902 3705 
C 1088 3705 1261 3871 1261 4057 
C 1261 4236 1088 4416 909 4416 
z
" transform="scale(0.015625)"/>
       <path id="URWPalladioL-Roma-6d" d="M 115 2579 
L 352 2579 
C 608 2579 634 2534 634 2112 
L 634 672 
C 634 268 614 224 397 211 
L 102 192 
L 102 0 
C 717 0 736 0 915 0 
C 1094 19 1261 12 1677 0 
L 1677 192 
L 1408 211 
C 1190 223 1171 268 1171 670 
L 1171 2023 
C 1171 2311 1594 2624 1978 2624 
C 2323 2624 2560 2298 2560 1813 
L 2560 670 
C 2560 268 2541 223 2323 211 
L 2029 192 
L 2029 0 
C 2669 0 2669 0 2829 0 
C 2989 19 2989 19 3629 0 
L 3629 192 
L 3334 211 
C 3117 223 3098 268 3098 670 
L 3098 2023 
C 3098 2311 3520 2624 3904 2624 
C 4250 2624 4486 2298 4486 1813 
L 4486 0 
C 4877 0 4883 0 4992 0 
C 5075 19 5075 19 5562 0 
L 5562 192 
L 5261 211 
C 5043 223 5024 268 5024 670 
L 5024 1985 
C 5024 2617 4653 3014 4064 3014 
C 3840 3014 3654 2956 3539 2854 
L 3053 2419 
C 2848 2841 2586 3014 2144 3014 
C 1907 3014 1728 2956 1613 2854 
L 1171 2445 
L 1171 2988 
L 1114 3008 
C 787 2873 454 2783 115 2745 
L 115 2579 
z
" transform="scale(0.015625)"/>
       <path id="URWPalladioL-Roma-65" d="M 2797 447 
L 2714 511 
C 2304 268 2157 211 1882 211 
C 1466 211 1120 396 941 710 
C 819 921 774 1100 762 1472 
L 1696 1472 
C 2138 1472 2413 1491 2854 1561 
C 2861 1651 2867 1708 2867 1786 
C 2867 2526 2394 3008 1677 3008 
C 1440 3008 1165 2924 902 2771 
C 378 2468 166 2069 166 1401 
C 166 998 262 652 435 409 
C 691 70 1120 -128 1600 -128 
C 1837 -128 2074 -77 2336 38 
C 2509 108 2643 192 2669 230 
L 2797 447 
z
M 2298 1708 
C 1965 1696 1811 1689 1581 1689 
C 1286 1689 1120 1696 774 1728 
C 774 2030 800 2172 883 2339 
C 1018 2623 1293 2796 1600 2796 
C 1811 2796 1978 2713 2093 2539 
C 2234 2326 2278 2140 2298 1708 
z
" transform="scale(0.015625)"/>
       <path id="URWPalladioL-Roma-5b" d="M 563 -1178 
C 1018 -1166 1030 -1166 1184 -1166 
C 1338 -1166 1370 -1166 1805 -1178 
L 1843 -1140 
L 1843 -974 
L 1818 -942 
L 1574 -942 
C 1402 -942 1261 -903 1184 -839 
C 1126 -782 1107 -692 1107 -481 
C 1107 -474 1107 -340 1101 -148 
L 1101 89 
L 1101 3379 
L 1101 3615 
C 1107 3795 1107 3935 1107 3942 
C 1107 4153 1126 4249 1184 4307 
C 1261 4371 1402 4409 1574 4409 
L 1818 4409 
L 1843 4441 
L 1843 4608 
L 1805 4646 
C 1357 4633 1338 4633 1184 4633 
C 1037 4633 1005 4633 563 4646 
L 506 4563 
C 544 4403 557 4191 557 3699 
C 557 3603 557 3526 563 3462 
L 563 3379 
L 563 89 
L 563 6 
C 557 -97 557 -103 557 -212 
L 557 -282 
C 557 -718 544 -897 506 -1095 
L 563 -1178 
z
" transform="scale(0.015625)"/>
       <path id="URWPalladioL-Roma-73" d="M 262 917 
C 262 474 243 282 192 25 
C 525 -84 774 -128 1069 -128 
C 1907 -128 2502 320 2502 949 
C 2502 1148 2445 1295 2323 1423 
C 2157 1584 1946 1661 1382 1770 
C 858 1872 685 2001 685 2296 
C 685 2617 909 2796 1299 2796 
C 1728 2796 2054 2572 2054 2270 
L 2054 2123 
L 2234 2123 
C 2240 2495 2246 2649 2266 2847 
C 1926 2963 1696 3008 1434 3008 
C 691 3008 237 2655 237 2078 
C 237 1770 378 1552 672 1417 
C 845 1340 1184 1237 1619 1141 
C 1907 1077 2029 942 2029 698 
C 2029 352 1709 108 1254 108 
C 787 108 454 333 454 654 
L 454 917 
L 262 917 
z
" transform="scale(0.015625)"/>
       <path id="URWPalladioL-Roma-63" d="M 2554 1995 
C 2554 2290 2586 2553 2643 2783 
C 2387 2937 2163 3008 1901 3008 
C 1594 3008 1235 2886 851 2643 
C 403 2360 166 1911 166 1347 
C 166 480 774 -128 1632 -128 
C 1965 -128 2445 -7 2509 89 
L 2643 294 
L 2579 390 
C 2342 262 2138 204 1907 204 
C 1197 204 730 756 730 1603 
C 730 2290 1050 2675 1626 2675 
C 1907 2675 2214 2547 2330 2386 
L 2374 1995 
L 2554 1995 
z
" transform="scale(0.015625)"/>
       <path id="URWPalladioL-Roma-6f" d="M 1786 3008 
C 851 3008 205 2347 205 1391 
C 205 487 774 -128 1600 -128 
C 2586 -128 3290 557 3290 1520 
C 3290 2386 2662 3008 1786 3008 
z
M 1670 2796 
C 2259 2796 2694 2155 2694 1282 
C 2694 545 2368 83 1850 83 
C 1222 83 800 699 800 1609 
C 800 2379 1107 2796 1670 2796 
z
" transform="scale(0.015625)"/>
       <path id="URWPalladioL-Roma-64" d="M 2637 2803 
C 2278 2956 2099 3008 1875 3008 
C 1702 3008 1549 2969 1389 2886 
L 826 2592 
C 461 2400 224 1934 224 1392 
C 224 881 397 460 710 204 
C 928 19 1229 -64 1645 -64 
C 1773 -64 1920 -39 1952 -13 
L 2662 581 
L 2630 0 
C 2944 -7 3046 0 3123 0 
C 3174 0 3264 0 3398 -7 
C 3443 6 3571 6 3706 0 
L 3706 192 
L 3411 211 
C 3194 224 3174 268 3174 672 
L 3174 4614 
L 3117 4665 
C 2835 4557 2624 4505 2118 4429 
L 2118 4249 
L 2477 4249 
C 2592 4249 2637 4179 2637 3987 
L 2637 2803 
z
M 2637 1424 
C 2637 1009 2624 945 2541 798 
C 2362 498 2048 300 1747 300 
C 1184 300 781 843 781 1602 
C 781 2298 1126 2707 1702 2707 
C 1946 2707 2202 2624 2426 2470 
C 2560 2381 2637 2298 2637 2247 
L 2637 1424 
z
" transform="scale(0.015625)"/>
       <path id="URWPalladioL-Roma-5d" d="M 1568 4646 
C 1114 4633 1094 4633 947 4633 
C 794 4633 762 4633 326 4646 
L 288 4608 
L 288 4441 
L 314 4409 
L 557 4409 
C 730 4409 864 4371 941 4307 
C 1005 4249 1024 4159 1024 3942 
C 1024 3923 1024 3795 1030 3615 
L 1030 3379 
L 1030 89 
L 1030 -148 
C 1024 -334 1024 -449 1024 -468 
C 1024 -686 1005 -782 941 -839 
C 864 -903 730 -942 557 -942 
L 314 -942 
L 288 -974 
L 288 -1140 
L 326 -1178 
C 774 -1166 787 -1166 947 -1166 
C 1094 -1166 1126 -1166 1568 -1178 
L 1626 -1095 
C 1587 -942 1581 -743 1574 -250 
C 1574 -161 1574 -78 1568 6 
L 1568 89 
L 1568 3379 
L 1568 3462 
C 1574 3532 1574 3615 1574 3705 
C 1574 4198 1587 4409 1626 4563 
L 1568 4646 
z
" transform="scale(0.015625)"/>
      </defs>
      <use xlink:href="#URWPalladioL-Roma-54" transform="scale(0.996264)"/>
      <use xlink:href="#URWPalladioL-Roma-69" transform="translate(55.591109 0)scale(0.996264)"/>
      <use xlink:href="#URWPalladioL-Roma-6d" transform="translate(84.581471 0)scale(0.996264)"/>
      <use xlink:href="#URWPalladioL-Roma-65" transform="translate(172.551145 0)scale(0.996264)"/>
      <use xlink:href="#URWPalladioL-Roma-5b" transform="translate(245.17804 0)scale(0.996264)"/>
      <use xlink:href="#URWPalladioL-Roma-73" transform="translate(278.35327 0)scale(0.996264)"/>
      <use xlink:href="#URWPalladioL-Roma-65" transform="translate(320.594736 0)scale(0.996264)"/>
      <use xlink:href="#URWPalladioL-Roma-63" transform="translate(368.315031 0)scale(0.996264)"/>
      <use xlink:href="#URWPalladioL-Roma-6f" transform="translate(412.5486 0)scale(0.996264)"/>
      <use xlink:href="#URWPalladioL-Roma-6e" transform="translate(466.94418 0)scale(0.996264)"/>
      <use xlink:href="#URWPalladioL-Roma-64" transform="translate(524.926241 0)scale(0.996264)"/>
      <use xlink:href="#URWPalladioL-Roma-73" transform="translate(585.797872 0)scale(0.996264)"/>
      <use xlink:href="#URWPalladioL-Roma-5d" transform="translate(628.039338 0)scale(0.996264)"/>
     </g>
    </g>
   </g>
   <g id="matplotlib.axis_4">
    <g id="ytick_4">
     <g id="line2d_36">
      <path d="M 57.070851 241.238696 
L 424.48221 241.238696 
" clip-path="url(#pf53ae71a12)" style="fill: none; stroke: #000000; stroke-opacity: 0.2; stroke-width: 0.5; stroke-linecap: round"/>
     </g>
     <g id="line2d_37">
      <g>
       <use xlink:href="#m10f4686ab0" x="57.070851" y="241.238696" style="fill-opacity: 0.2; stroke: #000000; stroke-opacity: 0.2; stroke-width: 0.5"/>
      </g>
     </g>
     <g id="text_13">
      <!-- $\mathdefault{−1}$ -->
      <g transform="translate(23.12516 246.228461)scale(0.14 -0.14)">
       <use xlink:href="#CMSY10-0" transform="scale(1.038107)"/>
       <use xlink:href="#URWPalladioL-Roma-31" transform="translate(81.941696 0)scale(0.996264)"/>
      </g>
     </g>
    </g>
    <g id="ytick_5">
     <g id="line2d_38">
      <path d="M 57.070851 188.959254 
L 424.48221 188.959254 
" clip-path="url(#pf53ae71a12)" style="fill: none; stroke: #000000; stroke-opacity: 0.2; stroke-width: 0.5; stroke-linecap: round"/>
     </g>
     <g id="line2d_39">
      <g>
       <use xlink:href="#m10f4686ab0" x="57.070851" y="188.959254" style="fill-opacity: 0.2; stroke: #000000; stroke-opacity: 0.2; stroke-width: 0.5"/>
      </g>
     </g>
     <g id="text_14">
      <!-- $\mathdefault{0}$ -->
      <g transform="translate(34.597002 193.949018)scale(0.14 -0.14)">
       <use xlink:href="#URWPalladioL-Roma-30" transform="scale(0.996264)"/>
      </g>
     </g>
    </g>
    <g id="ytick_6">
     <g id="line2d_40">
      <path d="M 57.070851 136.679812 
L 424.48221 136.679812 
" clip-path="url(#pf53ae71a12)" style="fill: none; stroke: #000000; stroke-opacity: 0.2; stroke-width: 0.5; stroke-linecap: round"/>
     </g>
     <g id="line2d_41">
      <g>
       <use xlink:href="#m10f4686ab0" x="57.070851" y="136.679812" style="fill-opacity: 0.2; stroke: #000000; stroke-opacity: 0.2; stroke-width: 0.5"/>
      </g>
     </g>
     <g id="text_15">
      <!-- $\mathdefault{1}$ -->
      <g transform="translate(34.597002 141.669576)scale(0.14 -0.14)">
       <use xlink:href="#URWPalladioL-Roma-31" transform="scale(0.996264)"/>
      </g>
     </g>
    </g>
    <g id="text_16">
     <!-- Output -->
     <g transform="translate(15.753876 208.356181)rotate(-90)scale(0.12 -0.12)">
      <defs>
       <path id="URWPalladioL-Roma-4f" d="M 2573 4544 
C 1114 4544 141 3595 141 2185 
C 141 839 1075 -128 2368 -128 
C 3802 -128 4890 942 4890 2352 
C 4890 3698 3994 4544 2573 4544 
z
M 2464 4275 
C 3558 4275 4205 3493 4205 2160 
C 4205 890 3616 140 2624 140 
C 1549 140 826 1051 826 2422 
C 826 3608 1414 4275 2464 4275 
z
" transform="scale(0.015625)"/>
      </defs>
      <use xlink:href="#URWPalladioL-Roma-4f" transform="scale(0.996264)"/>
      <use xlink:href="#URWPalladioL-Roma-75" transform="translate(78.306281 0)scale(0.996264)"/>
      <use xlink:href="#URWPalladioL-Roma-74" transform="translate(138.380016 0)scale(0.996264)"/>
      <use xlink:href="#URWPalladioL-Roma-70" transform="translate(170.857104 0)scale(0.996264)"/>
      <use xlink:href="#URWPalladioL-Roma-75" transform="translate(230.731498 0)scale(0.996264)"/>
      <use xlink:href="#URWPalladioL-Roma-74" transform="translate(290.805232 0)scale(0.996264)"/>
     </g>
    </g>
   </g>
   <g id="line2d_42">
    <path d="M 57.070851 144.521728 
L 64.419078 144.521728 
L 64.419078 144.521728 
L 71.767305 144.521728 
L 71.767305 150.849181 
L 79.115532 150.849181 
L 79.115532 166.69975 
L 86.463759 166.69975 
L 86.463759 185.6766 
L 93.811986 185.6766 
L 93.811986 202.029114 
L 101.160214 202.029114 
L 101.160214 202.029114 
L 108.508441 202.029114 
L 108.508441 202.029114 
L 115.856668 202.029114 
L 115.856668 202.029114 
L 123.204895 202.029114 
L 123.204895 202.029114 
L 130.553122 202.029114 
L 130.553122 202.029114 
L 137.90135 202.029114 
L 137.90135 202.029114 
L 145.249577 202.029114 
L 145.249577 198.755444 
L 152.597804 198.755444 
L 152.597804 179.163063 
L 159.946031 179.163063 
L 159.946031 160.946528 
L 167.294258 160.946528 
L 167.294258 146.664297 
L 174.642486 146.664297 
L 174.642486 144.521728 
L 181.990713 144.521728 
L 181.990713 144.521728 
L 189.33894 144.521728 
L 189.33894 144.521728 
L 196.687167 144.521728 
L 196.687167 155.635083 
L 204.035394 155.635083 
L 204.035394 172.804018 
L 211.383621 172.804018 
L 211.383621 192.241907 
L 218.731849 192.241907 
L 218.731849 202.029114 
L 226.080076 202.029114 
L 226.080076 202.029114 
L 233.428303 202.029114 
L 233.428303 202.029114 
L 240.77653 202.029114 
L 240.77653 202.029114 
L 248.124757 202.029114 
L 248.124757 202.029114 
L 255.472985 202.029114 
L 255.472985 202.029114 
L 262.821212 202.029114 
L 262.821212 202.029114 
L 270.169439 202.029114 
L 270.169439 192.241907 
L 277.517666 192.241907 
L 277.517666 172.804018 
L 284.865893 172.804018 
L 284.865893 155.635083 
L 292.214121 155.635083 
L 292.214121 144.521728 
L 299.562348 144.521728 
L 299.562348 144.521728 
L 306.910575 144.521728 
L 306.910575 144.521728 
L 314.258802 144.521728 
L 314.258802 146.664297 
L 321.607029 146.664297 
L 321.607029 160.946528 
L 328.955256 160.946528 
L 328.955256 179.163063 
L 336.303484 179.163063 
L 336.303484 198.755444 
L 343.651711 198.755444 
L 343.651711 202.029114 
L 350.999938 202.029114 
L 350.999938 202.029114 
L 358.348165 202.029114 
L 358.348165 202.029114 
L 365.696392 202.029114 
L 365.696392 202.029114 
L 373.04462 202.029114 
L 373.04462 202.029114 
L 380.392847 202.029114 
L 380.392847 202.029114 
L 387.741074 202.029114 
L 387.741074 202.029114 
L 395.089301 202.029114 
L 395.089301 185.6766 
L 402.437528 185.6766 
L 402.437528 166.69975 
L 409.785756 166.69975 
L 409.785756 150.849181 
L 417.133983 150.849181 
L 417.133983 144.521728 
" clip-path="url(#pf53ae71a12)" style="fill: none; stroke: #6e3b87; stroke-width: 2; stroke-linecap: round"/>
    <defs>
     <path id="m5d82f732b3" d="M 0 3.5 
C 0.928211 3.5 1.81853 3.131218 2.474874 2.474874 
C 3.131218 1.81853 3.5 0.928211 3.5 0 
C 3.5 -0.928211 3.131218 -1.81853 2.474874 -2.474874 
C 1.81853 -3.131218 0.928211 -3.5 0 -3.5 
C -0.928211 -3.5 -1.81853 -3.131218 -2.474874 -2.474874 
C -3.131218 -1.81853 -3.5 -0.928211 -3.5 0 
C -3.5 0.928211 -3.131218 1.81853 -2.474874 2.474874 
C -1.81853 3.131218 -0.928211 3.5 0 3.5 
z
" style="stroke: #fefefa; stroke-width: 1.5"/>
    </defs>
    <g clip-path="url(#pf53ae71a12)">
     <use xlink:href="#m5d82f732b3" x="57.070851" y="144.521728" style="fill: #6e3b87; stroke: #fefefa; stroke-width: 1.5"/>
     <use xlink:href="#m5d82f732b3" x="64.419078" y="144.521728" style="fill: #6e3b87; stroke: #fefefa; stroke-width: 1.5"/>
     <use xlink:href="#m5d82f732b3" x="71.767305" y="150.849181" style="fill: #6e3b87; stroke: #fefefa; stroke-width: 1.5"/>
     <use xlink:href="#m5d82f732b3" x="79.115532" y="166.69975" style="fill: #6e3b87; stroke: #fefefa; stroke-width: 1.5"/>
     <use xlink:href="#m5d82f732b3" x="86.463759" y="185.6766" style="fill: #6e3b87; stroke: #fefefa; stroke-width: 1.5"/>
     <use xlink:href="#m5d82f732b3" x="93.811986" y="202.029114" style="fill: #6e3b87; stroke: #fefefa; stroke-width: 1.5"/>
     <use xlink:href="#m5d82f732b3" x="101.160214" y="202.029114" style="fill: #6e3b87; stroke: #fefefa; stroke-width: 1.5"/>
     <use xlink:href="#m5d82f732b3" x="108.508441" y="202.029114" style="fill: #6e3b87; stroke: #fefefa; stroke-width: 1.5"/>
     <use xlink:href="#m5d82f732b3" x="115.856668" y="202.029114" style="fill: #6e3b87; stroke: #fefefa; stroke-width: 1.5"/>
     <use xlink:href="#m5d82f732b3" x="123.204895" y="202.029114" style="fill: #6e3b87; stroke: #fefefa; stroke-width: 1.5"/>
     <use xlink:href="#m5d82f732b3" x="130.553122" y="202.029114" style="fill: #6e3b87; stroke: #fefefa; stroke-width: 1.5"/>
     <use xlink:href="#m5d82f732b3" x="137.90135" y="202.029114" style="fill: #6e3b87; stroke: #fefefa; stroke-width: 1.5"/>
     <use xlink:href="#m5d82f732b3" x="145.249577" y="198.755444" style="fill: #6e3b87; stroke: #fefefa; stroke-width: 1.5"/>
     <use xlink:href="#m5d82f732b3" x="152.597804" y="179.163063" style="fill: #6e3b87; stroke: #fefefa; stroke-width: 1.5"/>
     <use xlink:href="#m5d82f732b3" x="159.946031" y="160.946528" style="fill: #6e3b87; stroke: #fefefa; stroke-width: 1.5"/>
     <use xlink:href="#m5d82f732b3" x="167.294258" y="146.664297" style="fill: #6e3b87; stroke: #fefefa; stroke-width: 1.5"/>
     <use xlink:href="#m5d82f732b3" x="174.642486" y="144.521728" style="fill: #6e3b87; stroke: #fefefa; stroke-width: 1.5"/>
     <use xlink:href="#m5d82f732b3" x="181.990713" y="144.521728" style="fill: #6e3b87; stroke: #fefefa; stroke-width: 1.5"/>
     <use xlink:href="#m5d82f732b3" x="189.33894" y="144.521728" style="fill: #6e3b87; stroke: #fefefa; stroke-width: 1.5"/>
     <use xlink:href="#m5d82f732b3" x="196.687167" y="155.635083" style="fill: #6e3b87; stroke: #fefefa; stroke-width: 1.5"/>
     <use xlink:href="#m5d82f732b3" x="204.035394" y="172.804018" style="fill: #6e3b87; stroke: #fefefa; stroke-width: 1.5"/>
     <use xlink:href="#m5d82f732b3" x="211.383621" y="192.241907" style="fill: #6e3b87; stroke: #fefefa; stroke-width: 1.5"/>
     <use xlink:href="#m5d82f732b3" x="218.731849" y="202.029114" style="fill: #6e3b87; stroke: #fefefa; stroke-width: 1.5"/>
     <use xlink:href="#m5d82f732b3" x="226.080076" y="202.029114" style="fill: #6e3b87; stroke: #fefefa; stroke-width: 1.5"/>
     <use xlink:href="#m5d82f732b3" x="233.428303" y="202.029114" style="fill: #6e3b87; stroke: #fefefa; stroke-width: 1.5"/>
     <use xlink:href="#m5d82f732b3" x="240.77653" y="202.029114" style="fill: #6e3b87; stroke: #fefefa; stroke-width: 1.5"/>
     <use xlink:href="#m5d82f732b3" x="248.124757" y="202.029114" style="fill: #6e3b87; stroke: #fefefa; stroke-width: 1.5"/>
     <use xlink:href="#m5d82f732b3" x="255.472985" y="202.029114" style="fill: #6e3b87; stroke: #fefefa; stroke-width: 1.5"/>
     <use xlink:href="#m5d82f732b3" x="262.821212" y="202.029114" style="fill: #6e3b87; stroke: #fefefa; stroke-width: 1.5"/>
     <use xlink:href="#m5d82f732b3" x="270.169439" y="192.241907" style="fill: #6e3b87; stroke: #fefefa; stroke-width: 1.5"/>
     <use xlink:href="#m5d82f732b3" x="277.517666" y="172.804018" style="fill: #6e3b87; stroke: #fefefa; stroke-width: 1.5"/>
     <use xlink:href="#m5d82f732b3" x="284.865893" y="155.635083" style="fill: #6e3b87; stroke: #fefefa; stroke-width: 1.5"/>
     <use xlink:href="#m5d82f732b3" x="292.214121" y="144.521728" style="fill: #6e3b87; stroke: #fefefa; stroke-width: 1.5"/>
     <use xlink:href="#m5d82f732b3" x="299.562348" y="144.521728" style="fill: #6e3b87; stroke: #fefefa; stroke-width: 1.5"/>
     <use xlink:href="#m5d82f732b3" x="306.910575" y="144.521728" style="fill: #6e3b87; stroke: #fefefa; stroke-width: 1.5"/>
     <use xlink:href="#m5d82f732b3" x="314.258802" y="146.664297" style="fill: #6e3b87; stroke: #fefefa; stroke-width: 1.5"/>
     <use xlink:href="#m5d82f732b3" x="321.607029" y="160.946528" style="fill: #6e3b87; stroke: #fefefa; stroke-width: 1.5"/>
     <use xlink:href="#m5d82f732b3" x="328.955256" y="179.163063" style="fill: #6e3b87; stroke: #fefefa; stroke-width: 1.5"/>
     <use xlink:href="#m5d82f732b3" x="336.303484" y="198.755444" style="fill: #6e3b87; stroke: #fefefa; stroke-width: 1.5"/>
     <use xlink:href="#m5d82f732b3" x="343.651711" y="202.029114" style="fill: #6e3b87; stroke: #fefefa; stroke-width: 1.5"/>
     <use xlink:href="#m5d82f732b3" x="350.999938" y="202.029114" style="fill: #6e3b87; stroke: #fefefa; stroke-width: 1.5"/>
     <use xlink:href="#m5d82f732b3" x="358.348165" y="202.029114" style="fill: #6e3b87; stroke: #fefefa; stroke-width: 1.5"/>
     <use xlink:href="#m5d82f732b3" x="365.696392" y="202.029114" style="fill: #6e3b87; stroke: #fefefa; stroke-width: 1.5"/>
     <use xlink:href="#m5d82f732b3" x="373.04462" y="202.029114" style="fill: #6e3b87; stroke: #fefefa; stroke-width: 1.5"/>
     <use xlink:href="#m5d82f732b3" x="380.392847" y="202.029114" style="fill: #6e3b87; stroke: #fefefa; stroke-width: 1.5"/>
     <use xlink:href="#m5d82f732b3" x="387.741074" y="202.029114" style="fill: #6e3b87; stroke: #fefefa; stroke-width: 1.5"/>
     <use xlink:href="#m5d82f732b3" x="395.089301" y="185.6766" style="fill: #6e3b87; stroke: #fefefa; stroke-width: 1.5"/>
     <use xlink:href="#m5d82f732b3" x="402.437528" y="166.69975" style="fill: #6e3b87; stroke: #fefefa; stroke-width: 1.5"/>
     <use xlink:href="#m5d82f732b3" x="409.785756" y="150.849181" style="fill: #6e3b87; stroke: #fefefa; stroke-width: 1.5"/>
     <use xlink:href="#m5d82f732b3" x="417.133983" y="144.521728" style="fill: #6e3b87; stroke: #fefefa; stroke-width: 1.5"/>
    </g>
   </g>
   <g id="legend_2">
    <g id="patch_5">
     <path d="M 173.980261 236.852668 
L 414.68221 236.852668 
Q 417.48221 236.852668 417.48221 234.052668 
L 417.48221 192.085895 
Q 417.48221 189.285895 414.68221 189.285895 
L 173.980261 189.285895 
Q 171.180261 189.285895 171.180261 192.085895 
L 171.180261 234.052668 
Q 171.180261 236.852668 173.980261 236.852668 
z
" style="fill: #ffffff; opacity: 0.95; stroke: #cccccc; stroke-width: 0.5; stroke-linejoin: miter"/>
    </g>
    <g id="line2d_43">
     <path d="M 176.780261 200.886014 
L 183.780261 200.886014 
L 190.780261 200.886014 
" style="fill: none; stroke-dasharray: 2,3.3; stroke-dashoffset: 0; stroke: #f2aa00; stroke-width: 2; stroke-linejoin: bevel"/>
    </g>
    <g id="text_17">
     <!-- $v_+$ -->
     <g style="fill: #f2aa00" transform="translate(201.980261 205.786014)scale(0.14 -0.14)">
      <defs>
       <path id="URWPalladioL-Ital-76" d="M 2125 2696 
L 2195 2575 
C 2253 2613 2310 2632 2368 2632 
C 2541 2632 2643 2486 2643 2232 
C 2643 1291 2022 256 1459 256 
C 1146 256 947 522 947 935 
C 947 1603 1197 2181 1824 2956 
L 1760 3072 
C 1632 3014 1549 2995 1370 2995 
C 1190 2995 922 3007 736 3027 
L 659 3033 
C 621 3072 589 3072 582 3072 
C 506 3072 448 3059 378 3027 
C 288 2854 218 2622 134 2268 
L 275 2268 
L 384 2538 
C 429 2648 557 2718 710 2718 
C 742 2718 800 2718 883 2712 
C 934 2706 979 2706 1062 2706 
C 1197 2706 1299 2712 1466 2731 
C 755 1960 486 1426 486 783 
C 486 288 781 -64 1190 -64 
C 1459 -64 1702 51 1997 313 
C 2298 590 2605 1021 2803 1464 
C 2944 1786 3053 2217 3053 2474 
C 3053 2809 2886 3072 2656 3072 
C 2573 3072 2496 3046 2445 2995 
L 2125 2696 
z
" transform="scale(0.015625)"/>
       <path id="CMR10-2b" d="M 2618 1472 
L 4403 1472 
C 4493 1472 4614 1472 4614 1600 
C 4614 1728 4493 1728 4403 1728 
L 2618 1728 
L 2618 3501 
C 2618 3590 2618 3712 2490 3712 
C 2362 3712 2362 3590 2362 3501 
L 2362 1728 
L 570 1728 
C 480 1728 358 1728 358 1600 
C 358 1472 480 1472 570 1472 
L 2362 1472 
L 2362 -308 
C 2362 -397 2362 -519 2490 -519 
C 2618 -519 2618 -397 2618 -308 
L 2618 1472 
z
" transform="scale(0.015625)"/>
      </defs>
      <use xlink:href="#URWPalladioL-Ital-76" transform="scale(0.996264)"/>
      <use xlink:href="#CMR10-2b" transform="translate(52.004933 -14.943915)scale(0.788955)"/>
     </g>
    </g>
    <g id="line2d_44">
     <path d="M 176.780261 221.798716 
L 183.780261 221.798716 
L 190.780261 221.798716 
" style="fill: none; stroke-dasharray: 2,3.3; stroke-dashoffset: 0; stroke: #dc2830; stroke-width: 2; stroke-linejoin: bevel"/>
    </g>
    <g id="text_18">
     <!-- $v_-$ -->
     <g style="fill: #dc2830" transform="translate(201.980261 226.698716)scale(0.14 -0.14)">
      <use xlink:href="#URWPalladioL-Ital-76" transform="scale(0.996264)"/>
      <use xlink:href="#CMSY10-0" transform="translate(52.004933 -14.943915)scale(0.788955)"/>
     </g>
    </g>
    <g id="line2d_45">
     <path d="M 245.851819 200.886014 
L 252.851819 200.886014 
L 252.851819 200.886014 
L 259.851819 200.886014 
L 259.851819 200.886014 
" style="fill: none; stroke: #6e3b87; stroke-width: 2; stroke-linecap: round"/>
     <g>
      <use xlink:href="#m5d82f732b3" x="252.851819" y="200.886014" style="fill: #6e3b87; stroke: #fefefa; stroke-width: 1.5"/>
     </g>
    </g>
    <g id="text_19">
     <!-- $y = \mathrm{clip}(x, -0.25, 0.85)$ -->
     <g style="fill: #6e3b87" transform="translate(271.051819 205.786014)scale(0.14 -0.14)">
      <defs>
       <path id="URWPalladioL-Ital-79" d="M -45 -1132 
C -51 -1176 -51 -1214 -51 -1245 
C -51 -1517 186 -1741 474 -1741 
C 1152 -1741 1856 -955 2234 216 
L 3136 3014 
L 3066 3072 
C 2880 3001 2733 2963 2592 2950 
L 2368 2111 
C 2291 1812 2067 1348 1856 1036 
C 1632 712 1318 432 1178 432 
C 1101 432 1043 578 1050 737 
L 1056 820 
L 1152 2053 
C 1165 2250 1178 2492 1178 2670 
C 1178 2956 1133 3072 1024 3072 
C 941 3072 851 3027 544 2816 
L 19 2460 
L 90 2346 
L 410 2537 
L 435 2556 
C 499 2594 544 2613 570 2613 
C 659 2613 710 2492 710 2282 
C 710 2276 710 2238 704 2187 
L 595 642 
L 589 388 
C 589 121 704 -64 864 -64 
C 1101 -64 1638 477 2118 1195 
L 1805 108 
C 1478 -1012 1158 -1472 710 -1472 
C 486 -1472 314 -1302 314 -1081 
C 314 -1049 320 -999 326 -942 
L 262 -917 
L -45 -1132 
z
" transform="scale(0.015625)"/>
       <path id="CMR10-3d" d="M 4397 2111 
C 4493 2111 4614 2111 4614 2239 
C 4614 2368 4493 2368 4403 2368 
L 570 2368 
C 480 2368 358 2368 358 2239 
C 358 2111 480 2111 576 2111 
L 4397 2111 
z
M 4403 832 
C 4493 832 4614 832 4614 960 
C 4614 1088 4493 1088 4397 1088 
L 576 1088 
C 480 1088 358 1088 358 960 
C 358 832 480 832 570 832 
L 4403 832 
z
" transform="scale(0.015625)"/>
       <path id="URWPalladioL-Roma-6c" d="M 147 4249 
L 506 4249 
C 621 4249 666 4179 666 3987 
L 666 672 
C 666 268 646 224 429 211 
L 134 192 
L 134 0 
C 774 0 774 0 934 0 
C 1094 19 1094 19 1734 0 
L 1734 192 
L 1440 211 
C 1222 224 1203 268 1203 672 
L 1203 4614 
L 1146 4665 
C 864 4557 653 4505 147 4429 
L 147 4249 
z
" transform="scale(0.015625)"/>
       <path id="CMR10-28" d="M 2118 -1536 
C 2118 -1517 2118 -1504 2010 -1396 
C 1210 -589 1005 620 1005 1600 
C 1005 2713 1248 3827 2035 4627 
C 2118 4704 2118 4716 2118 4736 
C 2118 4780 2093 4800 2054 4800 
C 1990 4800 1414 4365 1037 3552 
C 710 2848 634 2137 634 1600 
C 634 1100 704 326 1056 -397 
C 1440 -1184 1990 -1600 2054 -1600 
C 2093 -1600 2118 -1581 2118 -1536 
z
" transform="scale(0.015625)"/>
       <path id="URWPalladioL-Roma-2c" d="M 1306 787 
C 1133 729 1018 691 678 595 
C 634 108 474 -308 102 -922 
L 192 -993 
L 454 -871 
C 973 -199 1216 204 1395 697 
L 1306 787 
z
" transform="scale(0.015625)"/>
       <path id="URWPalladioL-Roma-35" d="M 813 3891 
C 1638 3865 1997 3859 2765 3859 
L 2797 3891 
C 2784 4006 2784 4057 2784 4140 
C 2784 4230 2784 4281 2797 4396 
L 2765 4428 
C 2285 4403 1997 4396 1651 4396 
C 1299 4396 1018 4403 538 4428 
L 506 4396 
C 512 4006 518 3724 518 3520 
C 518 2976 499 2360 480 2076 
L 608 2038 
C 909 2341 1082 2432 1395 2432 
C 2010 2432 2394 1992 2394 1295 
C 2394 579 1984 160 1286 160 
C 941 160 621 276 531 443 
L 237 973 
L 83 882 
C 230 514 307 308 397 25 
C 576 -71 832 -128 1107 -128 
C 1536 -128 1990 57 2342 366 
C 2733 715 2938 1153 2938 1631 
C 2938 2360 2419 2873 1690 2873 
C 1382 2873 1152 2790 755 2553 
L 813 3891 
z
" transform="scale(0.015625)"/>
       <path id="CMR10-29" d="M 1850 1600 
C 1850 2099 1779 2873 1427 3597 
C 1043 4384 493 4800 429 4800 
C 390 4800 365 4774 365 4736 
C 365 4716 365 4704 486 4589 
C 1114 3955 1478 2937 1478 1600 
C 1478 505 1242 -621 448 -1428 
C 365 -1504 365 -1517 365 -1536 
C 365 -1575 390 -1600 429 -1600 
C 493 -1600 1069 -1165 1446 -352 
C 1773 352 1850 1062 1850 1600 
z
" transform="scale(0.015625)"/>
      </defs>
      <use xlink:href="#URWPalladioL-Ital-79" transform="scale(0.996264)"/>
      <use xlink:href="#CMR10-3d" transform="translate(79.977748 0)scale(1.038107)"/>
      <use xlink:href="#URWPalladioL-Roma-63" transform="translate(189.593377 0)scale(0.996264)"/>
      <use xlink:href="#URWPalladioL-Roma-6c" transform="translate(233.826945 0)scale(0.996264)"/>
      <use xlink:href="#URWPalladioL-Roma-69" transform="translate(262.817307 0)scale(0.996264)"/>
      <use xlink:href="#URWPalladioL-Roma-70" transform="translate(291.807668 0)scale(0.996264)"/>
      <use xlink:href="#CMR10-28" transform="translate(352.927362 0)scale(1.038107)"/>
      <use xlink:href="#URWPalladioL-Ital-78" transform="translate(397.360743 0)scale(0.996264)"/>
      <use xlink:href="#URWPalladioL-Roma-2c" transform="translate(449.414579 0)scale(0.996264)"/>
      <use xlink:href="#CMSY10-0" transform="translate(492.170839 0)scale(1.038107)"/>
      <use xlink:href="#URWPalladioL-Roma-30" transform="translate(574.112535 0)scale(0.996264)"/>
      <use xlink:href="#URWPalladioL-Roma-2e" transform="translate(623.925736 0)scale(0.996264)"/>
      <use xlink:href="#URWPalladioL-Roma-32" transform="translate(648.832336 0)scale(0.996264)"/>
      <use xlink:href="#URWPalladioL-Roma-35" transform="translate(698.645536 0)scale(0.996264)"/>
      <use xlink:href="#URWPalladioL-Roma-2c" transform="translate(748.458737 0)scale(0.996264)"/>
      <use xlink:href="#URWPalladioL-Roma-30" transform="translate(789.969697 0)scale(0.996264)"/>
      <use xlink:href="#URWPalladioL-Roma-2e" transform="translate(839.782897 0)scale(0.996264)"/>
      <use xlink:href="#URWPalladioL-Roma-38" transform="translate(864.689498 0)scale(0.996264)"/>
      <use xlink:href="#URWPalladioL-Roma-35" transform="translate(914.502698 0)scale(0.996264)"/>
      <use xlink:href="#CMR10-29" transform="translate(965.561198 0)scale(1.038107)"/>
     </g>
    </g>
    <g id="line2d_46">
     <path d="M 245.851819 222.419496 
L 252.851819 222.419496 
L 252.851819 222.419496 
L 259.851819 222.419496 
L 259.851819 222.419496 
" style="fill: none; stroke: #0271ae; stroke-opacity: 0.2; stroke-width: 2; stroke-linecap: round"/>
     <g>
      <use xlink:href="#m0d280181cb" x="252.851819" y="222.419496" style="fill: #0271ae; fill-opacity: 0.2; stroke: #fefefa; stroke-opacity: 0.2; stroke-width: 1.5"/>
     </g>
    </g>
    <g id="text_20">
     <!-- $x[n]$ -->
     <g style="fill: #0271ae" transform="translate(271.051819 227.319496)scale(0.14 -0.14)">
      <use xlink:href="#URWPalladioL-Ital-78" transform="scale(0.996264)"/>
      <use xlink:href="#CMR10-5b" transform="translate(53.299136 0)scale(1.038107)"/>
      <use xlink:href="#URWPalladioL-Ital-6e" transform="translate(84.581835 0)scale(0.996264)"/>
      <use xlink:href="#CMR10-5d" transform="translate(142.464796 0)scale(1.038107)"/>
     </g>
    </g>
   </g>
  </g>
 </g>
 <defs>
  <clipPath id="p86df28125f">
   <rect x="57.070851" y="9.575793" width="367.411359" height="109.786829"/>
  </clipPath>
  <clipPath id="pf53ae71a12">
   <rect x="57.070851" y="134.06584" width="367.411359" height="109.786829"/>
  </clipPath>
 </defs>
</svg>