<?xml version="1.0" encoding="utf-8" standalone="no"?>
<!DOCTYPE svg PUBLIC "-//W3C//DTD SVG 1.1//EN"
  "http://www.w3.org/Graphics/SVG/1.1/DTD/svg11.dtd">
<svg xmlns:xlink="http://www.w3.org/1999/xlink" width="600.271868pt" height="224.39952pt" viewBox="0 0 600.271868 224.39952" xmlns="http://www.w3.org/2000/svg" version="1.1">
 <metadata>
  <rdf:RDF xmlns:dc="http://purl.org/dc/elements/1.1/" xmlns:cc="http://creativecommons.org/ns#" xmlns:rdf="http://www.w3.org/1999/02/22-rdf-syntax-ns#">
   <cc:Work>
    <dc:type rdf:resource="http://purl.org/dc/dcmitype/StillImage"/>
    <dc:date>2022-06-20T10:05:06.940530</dc:date>
    <dc:format>image/svg+xml</dc:format>
    <dc:creator>
     <cc:Agent>
      <dc:title>Matplotlib v3.5.2, https://matplotlib.org/</dc:title>
     </cc:Agent>
    </dc:creator>
   </cc:Work>
  </rdf:RDF>
 </metadata>
 <defs>
  <style type="text/css">*{stroke-linejoin: round; stroke-linecap: butt}</style>
 </defs>
 <g id="figure_1">
  <g id="patch_1">
   <path d="M 0 224.39952 
L 600.271868 224.39952 
L 600.271868 0 
L 0 0 
L 0 224.39952 
z
" style="fill: none"/>
  </g>
  <g id="axes_1">
   <g id="patch_2">
    <path d="M 67.791619 86.530589 
L 426.225672 86.530589 
L 426.225672 7.2 
L 67.791619 7.2 
L 67.791619 86.530589 
z
" style="fill: none"/>
   </g>
   <g id="line2d_1">
    <path d="M 67.791619 37.190833 
L 69.228228 37.422221 
L 70.664838 37.95131 
L 72.101447 38.756476 
L 73.538056 39.807625 
L 75.692971 41.761919 
L 78.566189 44.832258 
L 83.594322 50.33834 
L 85.749237 52.313914 
L 87.185846 53.396006 
L 88.622455 54.252438 
L 90.059065 54.859469 
L 91.495674 55.201694 
L 92.932284 55.272407 
L 94.368893 55.073674 
L 95.805503 54.616125 
L 97.242112 53.918485 
L 98.678721 53.006841 
L 100.833636 51.310694 
L 103.706855 48.64415 
L 108.734988 43.85836 
L 110.889902 42.139808 
L 112.326511 41.197926 
L 113.763121 40.451918 
L 115.19973 39.922474 
L 116.636339 39.623046 
L 118.072949 39.559527 
L 119.509558 39.730191 
L 120.946168 40.125861 
L 122.382777 40.730329 
L 123.819387 41.520977 
L 125.974301 42.99307 
L 128.84752 45.308918 
L 133.875653 49.468631 
L 136.030567 50.963595 
L 138.185481 52.130861 
L 139.62209 52.688522 
L 141.0587 53.051452 
L 142.495309 53.211168 
L 143.931919 53.165806 
L 145.368528 52.920079 
L 146.805137 52.485019 
L 148.960052 51.51585 
L 151.114966 50.23822 
L 153.988185 48.226952 
L 159.016318 44.611421 
L 161.171232 43.31096 
L 163.326146 42.294796 
L 164.762755 41.808787 
L 166.199365 41.491897 
L 167.635974 41.35155 
L 169.072584 41.389413 
L 170.509193 41.601442 
L 171.945803 41.978096 
L 174.100717 42.818459 
L 176.255631 43.927311 
L 179.12885 45.674052 
L 184.156983 48.816584 
L 186.311897 49.947843 
L 188.466811 50.832461 
L 190.621725 51.413243 
L 192.058335 51.613741 
L 193.494944 51.659496 
L 194.931553 51.551511 
L 197.086468 51.115438 
L 199.241382 50.386769 
L 201.396296 49.424403 
L 204.987819 47.507092 
L 209.297648 45.175995 
L 211.452562 44.191926 
L 213.607476 43.42183 
L 215.76239 42.915514 
L 217.917304 42.702797 
L 220.072218 42.79186 
L 222.227133 43.169176 
L 224.382047 43.800993 
L 227.255266 44.948997 
L 232.283399 47.344083 
L 235.874922 48.91647 
L 238.029836 49.654353 
L 240.184751 50.17587 
L 242.339665 50.448992 
L 244.494579 50.460158 
L 246.649493 50.214801 
L 248.804407 49.736512 
L 251.677626 48.806881 
L 255.26915 47.360534 
L 260.297283 45.336013 
L 263.170501 44.445007 
L 265.325416 43.990644 
L 267.48033 43.752004 
L 269.635244 43.740969 
L 271.790158 43.952911 
L 273.945072 44.36742 
L 276.818291 45.174131 
L 281.128119 46.694246 
L 285.437948 48.19024 
L 288.311166 48.965561 
L 290.466081 49.361414 
L 292.620995 49.569918 
L 294.775909 49.580666 
L 296.930823 49.397595 
L 299.804042 48.884318 
L 302.677261 48.133604 
L 313.451832 45.042742 
L 316.32505 44.618361 
L 318.479965 44.493071 
L 320.634879 44.539863 
L 323.508098 44.855404 
L 326.381316 45.41348 
L 330.691145 46.529895 
L 336.437582 48.023584 
L 339.310801 48.561766 
L 342.18402 48.869823 
L 345.057239 48.916323 
L 347.930458 48.703685 
L 350.803677 48.266808 
L 355.113505 47.33192 
L 361.578248 45.861231 
L 365.169771 45.305354 
L 368.04299 45.09208 
L 370.916209 45.108309 
L 373.789428 45.344754 
L 377.380951 45.891948 
L 384.563998 47.343736 
L 388.873827 48.056221 
L 391.747046 48.337065 
L 394.620264 48.424141 
L 397.493483 48.312631 
L 401.085007 47.927025 
L 406.11314 47.09222 
L 412.577882 46.009939 
L 416.169406 45.633193 
L 419.760929 45.5107 
L 423.352453 45.656264 
L 426.225672 45.941193 
L 426.225672 45.941193 
" clip-path="url(#p72ea60e097)" style="fill: none; stroke: #0271ae; stroke-width: 2; stroke-linecap: round"/>
   </g>
   <g id="line2d_2">
    <path d="M 67.791619 37.190833 
L 73.538056 37.032249 
L 78.566189 37.103003 
L 83.594322 37.378612 
L 88.622455 37.864074 
L 93.650588 38.560323 
L 98.678721 39.463998 
L 104.425159 40.740533 
L 110.171597 42.258751 
L 116.636339 44.222293 
L 123.819387 46.663211 
L 133.157348 50.109719 
L 151.114966 56.823389 
L 157.579708 58.992344 
L 163.326146 60.696888 
L 168.354279 61.967536 
L 173.382412 62.993202 
L 177.69224 63.651558 
L 182.002069 64.085896 
L 186.311897 64.27969 
L 190.621725 64.219309 
L 194.213249 63.967221 
L 197.804772 63.527177 
L 201.396296 62.896828 
L 204.987819 62.075723 
L 209.297648 60.840895 
L 213.607476 59.340198 
L 217.917304 57.584444 
L 222.227133 55.588778 
L 227.255266 52.983445 
L 232.283399 50.116248 
L 238.029836 46.577406 
L 245.212884 41.877485 
L 263.888806 29.483826 
L 269.635244 26.0254 
L 273.945072 23.659322 
L 278.2549 21.538129 
L 281.846424 19.988561 
L 285.437948 18.662469 
L 289.029471 17.581963 
L 292.620995 16.767407 
L 295.494214 16.319643 
L 298.367433 16.06221 
L 301.240651 16.002432 
L 304.11387 16.146528 
L 306.987089 16.499545 
L 309.860308 17.065284 
L 312.733527 17.846242 
L 315.606746 18.843557 
L 318.479965 20.056955 
L 321.353183 21.484719 
L 324.226402 23.123649 
L 327.817926 25.461961 
L 331.409449 28.110261 
L 335.000973 31.052341 
L 338.592497 34.268327 
L 342.902325 38.455774 
L 347.212153 42.956515 
L 352.240286 48.530983 
L 358.705029 56.059919 
L 375.944342 76.390434 
L 380.972475 81.869052 
L 385.282303 86.223016 
L 388.873827 89.548977 
L 392.46535 92.551999 
L 395.338569 94.69273 
L 398.211788 96.577855 
L 401.085007 98.187282 
L 403.958226 99.502168 
L 406.11314 100.284492 
L 408.268054 100.884509 
L 410.422968 101.295966 
L 412.577882 101.513175 
L 414.732796 101.531048 
L 416.887711 101.345131 
L 419.042625 100.951632 
L 421.197539 100.347451 
L 423.352453 99.530208 
L 425.507367 98.498264 
L 426.225672 98.106399 
L 426.225672 98.106399 
" clip-path="url(#p72ea60e097)" style="fill: none; stroke: #dc2830; stroke-width: 2; stroke-linecap: round"/>
   </g>
   <g id="line2d_3">
    <path d="M 67.791619 37.190833 
L 70.664838 37.313621 
L 73.538056 37.678871 
L 76.411275 38.277311 
L 79.284494 39.093749 
L 82.876018 40.388799 
L 86.467541 41.940418 
L 90.77737 44.053911 
L 99.397026 48.631819 
L 104.425159 51.183987 
L 108.734988 53.112386 
L 112.326511 54.451645 
L 115.19973 55.308827 
L 118.072949 55.951677 
L 120.946168 56.363877 
L 123.819387 56.534964 
L 126.692605 56.460594 
L 129.565824 56.142656 
L 132.439043 55.58922 
L 135.312262 54.814335 
L 138.185481 53.83767 
L 141.777004 52.371293 
L 146.086833 50.329468 
L 151.83327 47.321937 
L 159.734622 43.174765 
L 164.044451 41.160736 
L 167.635974 39.72625 
L 170.509193 38.779921 
L 173.382412 38.038833 
L 176.255631 37.521797 
L 179.12885 37.241937 
L 182.002069 37.206359 
L 184.875287 37.415964 
L 187.748506 37.865432 
L 190.621725 38.543354 
L 193.494944 39.432521 
L 197.086468 40.806194 
L 200.677991 42.4199 
L 205.706124 44.959236 
L 218.635609 51.667318 
L 222.227133 53.23552 
L 225.818656 54.551363 
L 228.691875 55.386918 
L 231.565094 56.006159 
L 234.438313 56.393367 
L 237.311532 56.538713 
L 240.184751 56.438507 
L 243.057969 56.095294 
L 245.931188 55.517785 
L 248.804407 54.72064 
L 251.677626 53.724094 
L 255.26915 52.236972 
L 259.578978 50.177335 
L 266.04372 46.773934 
L 273.226767 43.025152 
L 277.536596 41.030365 
L 281.128119 39.617645 
L 284.001338 38.691876 
L 286.874557 37.973581 
L 289.747776 37.480995 
L 292.620995 37.226622 
L 295.494214 37.216918 
L 298.367433 37.452129 
L 301.240651 37.926286 
L 304.11387 38.627352 
L 306.987089 39.537531 
L 310.578613 40.933663 
L 314.170136 42.56478 
L 319.198269 45.118736 
L 331.409449 51.472179 
L 335.000973 53.065755 
L 338.592497 54.413698 
L 341.465715 55.278928 
L 344.338934 55.930585 
L 347.212153 56.352128 
L 350.085372 56.532855 
L 352.958591 56.46818 
L 355.83181 56.159744 
L 358.705029 55.615376 
L 361.578248 54.848894 
L 364.451466 53.879756 
L 368.04299 52.421266 
L 372.352818 50.386269 
L 378.099256 47.382768 
L 386.718913 42.876622 
L 391.028741 40.901638 
L 394.620264 39.511084 
L 397.493483 38.606134 
L 400.366702 37.910836 
L 403.239921 37.442839 
L 406.11314 37.214023 
L 408.986359 37.230196 
L 411.859578 37.490948 
L 414.732796 37.98966 
L 417.606015 38.713672 
L 420.479234 39.644606 
L 424.070758 41.062805 
L 426.225672 42.028064 
L 426.225672 42.028064 
" clip-path="url(#p72ea60e097)" style="fill: none; stroke: #f2aa00; stroke-width: 2; stroke-linecap: round"/>
   </g>
   <g id="matplotlib.axis_1">
    <g id="xtick_1">
     <g id="line2d_4">
      <path d="M 67.791619 86.530589 
L 67.791619 7.2 
" clip-path="url(#p72ea60e097)" style="fill: none; stroke: #000000; stroke-opacity: 0.2; stroke-width: 0.5; stroke-linecap: round"/>
     </g>
     <g id="line2d_5">
      <defs>
       <path id="mdce9bd13dd" d="M 0 0 
L 0 3.5 
" style="stroke: #000000; stroke-opacity: 0.2; stroke-width: 0.5"/>
      </defs>
      <g>
       <use xlink:href="#mdce9bd13dd" x="67.791619" y="86.530589" style="fill-opacity: 0.2; stroke: #000000; stroke-opacity: 0.2; stroke-width: 0.5"/>
      </g>
     </g>
    </g>
    <g id="xtick_2">
     <g id="line2d_6">
      <path d="M 86.656569 86.530589 
L 86.656569 7.2 
" clip-path="url(#p72ea60e097)" style="fill: none; stroke: #000000; stroke-opacity: 0.2; stroke-width: 0.5; stroke-linecap: round"/>
     </g>
     <g id="line2d_7">
      <g>
       <use xlink:href="#mdce9bd13dd" x="86.656569" y="86.530589" style="fill-opacity: 0.2; stroke: #000000; stroke-opacity: 0.2; stroke-width: 0.5"/>
      </g>
     </g>
    </g>
    <g id="xtick_3">
     <g id="line2d_8">
      <path d="M 124.386469 86.530589 
L 124.386469 7.2 
" clip-path="url(#p72ea60e097)" style="fill: none; stroke: #000000; stroke-opacity: 0.2; stroke-width: 0.5; stroke-linecap: round"/>
     </g>
     <g id="line2d_9">
      <g>
       <use xlink:href="#mdce9bd13dd" x="124.386469" y="86.530589" style="fill-opacity: 0.2; stroke: #000000; stroke-opacity: 0.2; stroke-width: 0.5"/>
      </g>
     </g>
    </g>
    <g id="xtick_4">
     <g id="line2d_10">
      <path d="M 162.11637 86.530589 
L 162.11637 7.2 
" clip-path="url(#p72ea60e097)" style="fill: none; stroke: #000000; stroke-opacity: 0.2; stroke-width: 0.5; stroke-linecap: round"/>
     </g>
     <g id="line2d_11">
      <g>
       <use xlink:href="#mdce9bd13dd" x="162.11637" y="86.530589" style="fill-opacity: 0.2; stroke: #000000; stroke-opacity: 0.2; stroke-width: 0.5"/>
      </g>
     </g>
    </g>
    <g id="xtick_5">
     <g id="line2d_12">
      <path d="M 199.84627 86.530589 
L 199.84627 7.2 
" clip-path="url(#p72ea60e097)" style="fill: none; stroke: #000000; stroke-opacity: 0.2; stroke-width: 0.5; stroke-linecap: round"/>
     </g>
     <g id="line2d_13">
      <g>
       <use xlink:href="#mdce9bd13dd" x="199.84627" y="86.530589" style="fill-opacity: 0.2; stroke: #000000; stroke-opacity: 0.2; stroke-width: 0.5"/>
      </g>
     </g>
    </g>
    <g id="xtick_6">
     <g id="line2d_14">
      <path d="M 237.57617 86.530589 
L 237.57617 7.2 
" clip-path="url(#p72ea60e097)" style="fill: none; stroke: #000000; stroke-opacity: 0.2; stroke-width: 0.5; stroke-linecap: round"/>
     </g>
     <g id="line2d_15">
      <g>
       <use xlink:href="#mdce9bd13dd" x="237.57617" y="86.530589" style="fill-opacity: 0.2; stroke: #000000; stroke-opacity: 0.2; stroke-width: 0.5"/>
      </g>
     </g>
    </g>
    <g id="xtick_7">
     <g id="line2d_16">
      <path d="M 275.306071 86.530589 
L 275.306071 7.2 
" clip-path="url(#p72ea60e097)" style="fill: none; stroke: #000000; stroke-opacity: 0.2; stroke-width: 0.5; stroke-linecap: round"/>
     </g>
     <g id="line2d_17">
      <g>
       <use xlink:href="#mdce9bd13dd" x="275.306071" y="86.530589" style="fill-opacity: 0.2; stroke: #000000; stroke-opacity: 0.2; stroke-width: 0.5"/>
      </g>
     </g>
    </g>
    <g id="xtick_8">
     <g id="line2d_18">
      <path d="M 313.035971 86.530589 
L 313.035971 7.2 
" clip-path="url(#p72ea60e097)" style="fill: none; stroke: #000000; stroke-opacity: 0.2; stroke-width: 0.5; stroke-linecap: round"/>
     </g>
     <g id="line2d_19">
      <g>
       <use xlink:href="#mdce9bd13dd" x="313.035971" y="86.530589" style="fill-opacity: 0.2; stroke: #000000; stroke-opacity: 0.2; stroke-width: 0.5"/>
      </g>
     </g>
    </g>
    <g id="xtick_9">
     <g id="line2d_20">
      <path d="M 350.765871 86.530589 
L 350.765871 7.2 
" clip-path="url(#p72ea60e097)" style="fill: none; stroke: #000000; stroke-opacity: 0.2; stroke-width: 0.5; stroke-linecap: round"/>
     </g>
     <g id="line2d_21">
      <g>
       <use xlink:href="#mdce9bd13dd" x="350.765871" y="86.530589" style="fill-opacity: 0.2; stroke: #000000; stroke-opacity: 0.2; stroke-width: 0.5"/>
      </g>
     </g>
    </g>
    <g id="xtick_10">
     <g id="line2d_22">
      <path d="M 388.495772 86.530589 
L 388.495772 7.2 
" clip-path="url(#p72ea60e097)" style="fill: none; stroke: #000000; stroke-opacity: 0.2; stroke-width: 0.5; stroke-linecap: round"/>
     </g>
     <g id="line2d_23">
      <g>
       <use xlink:href="#mdce9bd13dd" x="388.495772" y="86.530589" style="fill-opacity: 0.2; stroke: #000000; stroke-opacity: 0.2; stroke-width: 0.5"/>
      </g>
     </g>
    </g>
    <g id="xtick_11">
     <g id="line2d_24">
      <path d="M 426.225672 86.530589 
L 426.225672 7.2 
" clip-path="url(#p72ea60e097)" style="fill: none; stroke: #000000; stroke-opacity: 0.2; stroke-width: 0.5; stroke-linecap: round"/>
     </g>
     <g id="line2d_25">
      <g>
       <use xlink:href="#mdce9bd13dd" x="426.225672" y="86.530589" style="fill-opacity: 0.2; stroke: #000000; stroke-opacity: 0.2; stroke-width: 0.5"/>
      </g>
     </g>
    </g>
   </g>
   <g id="matplotlib.axis_2">
    <g id="ytick_1">
     <g id="line2d_26">
      <path d="M 67.791619 71.05145 
L 426.225672 71.05145 
" clip-path="url(#p72ea60e097)" style="fill: none; stroke: #000000; stroke-opacity: 0.2; stroke-width: 0.5; stroke-linecap: round"/>
     </g>
     <g id="line2d_27">
      <defs>
       <path id="ma5b5dc497f" d="M 0 0 
L -3.5 0 
" style="stroke: #000000; stroke-opacity: 0.2; stroke-width: 0.5"/>
      </defs>
      <g>
       <use xlink:href="#ma5b5dc497f" x="67.791619" y="71.05145" style="fill-opacity: 0.2; stroke: #000000; stroke-opacity: 0.2; stroke-width: 0.5"/>
      </g>
     </g>
     <g id="text_1">
      <!-- $\mathdefault{−2.5}$ -->
      <g transform="translate(23.385156 76.041215)scale(0.14 -0.14)">
       <defs>
        <path id="CMSY10-0" d="M 4218 1472 
C 4326 1472 4442 1472 4442 1600 
C 4442 1728 4326 1728 4218 1728 
L 755 1728 
C 646 1728 531 1728 531 1600 
C 531 1472 646 1472 755 1472 
L 4218 1472 
z
" transform="scale(0.015625)"/>
        <path id="URWPalladioL-Roma-32" d="M 102 166 
L 102 0 
C 1299 0 1299 0 1530 0 
C 1760 19 1760 19 2995 0 
C 2982 134 2982 198 2982 287 
C 2982 370 2982 434 2995 574 
C 2259 542 1965 536 781 510 
L 1946 1741 
C 2566 2398 2758 2749 2758 3228 
C 2758 3961 2259 4416 1446 4416 
C 986 4416 672 4287 358 3967 
L 250 3100 
L 435 3100 
L 518 3394 
C 621 3763 851 3923 1280 3923 
C 1830 3923 2182 3578 2182 3036 
C 2182 2558 1914 2086 1190 1320 
L 102 166 
z
" transform="scale(0.015625)"/>
        <path id="URWPalladioL-Roma-2e" d="M 794 678 
C 602 678 429 499 429 307 
C 429 115 602 -64 787 -64 
C 992 -64 1171 108 1171 307 
C 1171 499 992 678 794 678 
z
" transform="scale(0.015625)"/>
        <path id="URWPalladioL-Roma-35" d="M 813 3891 
C 1638 3865 1997 3859 2765 3859 
L 2797 3891 
C 2784 4006 2784 4057 2784 4140 
C 2784 4230 2784 4281 2797 4396 
L 2765 4428 
C 2285 4403 1997 4396 1651 4396 
C 1299 4396 1018 4403 538 4428 
L 506 4396 
C 512 4006 518 3724 518 3520 
C 518 2976 499 2360 480 2076 
L 608 2038 
C 909 2341 1082 2432 1395 2432 
C 2010 2432 2394 1992 2394 1295 
C 2394 579 1984 160 1286 160 
C 941 160 621 276 531 443 
L 237 973 
L 83 882 
C 230 514 307 308 397 25 
C 576 -71 832 -128 1107 -128 
C 1536 -128 1990 57 2342 366 
C 2733 715 2938 1153 2938 1631 
C 2938 2360 2419 2873 1690 2873 
C 1382 2873 1152 2790 755 2553 
L 813 3891 
z
" transform="scale(0.015625)"/>
       </defs>
       <use xlink:href="#CMSY10-0" transform="scale(1.038107)"/>
       <use xlink:href="#URWPalladioL-Roma-32" transform="translate(81.941696 0)scale(0.996264)"/>
       <use xlink:href="#URWPalladioL-Roma-2e" transform="translate(131.754897 0)scale(0.996264)"/>
       <use xlink:href="#URWPalladioL-Roma-35" transform="translate(156.661497 0)scale(0.996264)"/>
      </g>
     </g>
    </g>
    <g id="ytick_2">
     <g id="line2d_28">
      <path d="M 67.791619 46.865295 
L 426.225672 46.865295 
" clip-path="url(#p72ea60e097)" style="fill: none; stroke: #000000; stroke-opacity: 0.2; stroke-width: 0.5; stroke-linecap: round"/>
     </g>
     <g id="line2d_29">
      <g>
       <use xlink:href="#ma5b5dc497f" x="67.791619" y="46.865295" style="fill-opacity: 0.2; stroke: #000000; stroke-opacity: 0.2; stroke-width: 0.5"/>
      </g>
     </g>
     <g id="text_2">
      <!-- $\mathdefault{0.0}$ -->
      <g transform="translate(34.856999 51.855059)scale(0.14 -0.14)">
       <defs>
        <path id="URWPalladioL-Roma-30" d="M 1683 4416 
C 691 4416 186 3628 186 2076 
C 186 1326 320 679 544 365 
C 768 51 1126 -128 1523 -128 
C 2490 -128 2976 704 2976 2345 
C 2976 3749 2560 4416 1683 4416 
z
M 1568 4191 
C 2189 4191 2438 3563 2438 2025 
C 2438 660 2195 96 1606 96 
C 986 96 723 743 723 2307 
C 723 3660 960 4191 1568 4191 
z
" transform="scale(0.015625)"/>
       </defs>
       <use xlink:href="#URWPalladioL-Roma-30" transform="scale(0.996264)"/>
       <use xlink:href="#URWPalladioL-Roma-2e" transform="translate(49.8132 0)scale(0.996264)"/>
       <use xlink:href="#URWPalladioL-Roma-30" transform="translate(74.719801 0)scale(0.996264)"/>
      </g>
     </g>
    </g>
    <g id="ytick_3">
     <g id="line2d_30">
      <path d="M 67.791619 22.679139 
L 426.225672 22.679139 
" clip-path="url(#p72ea60e097)" style="fill: none; stroke: #000000; stroke-opacity: 0.2; stroke-width: 0.5; stroke-linecap: round"/>
     </g>
     <g id="line2d_31">
      <g>
       <use xlink:href="#ma5b5dc497f" x="67.791619" y="22.679139" style="fill-opacity: 0.2; stroke: #000000; stroke-opacity: 0.2; stroke-width: 0.5"/>
      </g>
     </g>
     <g id="text_3">
      <!-- $\mathdefault{2.5}$ -->
      <g transform="translate(34.856999 27.668904)scale(0.14 -0.14)">
       <use xlink:href="#URWPalladioL-Roma-32" transform="scale(0.996264)"/>
       <use xlink:href="#URWPalladioL-Roma-2e" transform="translate(49.8132 0)scale(0.996264)"/>
       <use xlink:href="#URWPalladioL-Roma-35" transform="translate(74.719801 0)scale(0.996264)"/>
      </g>
     </g>
    </g>
    <g id="text_4">
     <!-- $z^n$ (real part) -->
     <g transform="translate(16.013872 80.153641)rotate(-90)scale(0.12 -0.12)">
      <defs>
       <path id="URWPalladioL-Ital-7a" d="M -7 108 
L 51 -64 
C 237 83 410 140 634 140 
C 794 140 973 108 1306 32 
C 1690 -32 1888 -64 2061 -64 
C 2138 -64 2195 -52 2381 0 
C 2451 396 2502 612 2573 910 
L 2432 910 
L 2291 529 
C 2253 415 2176 371 2042 371 
C 1965 371 1862 383 1728 415 
L 1613 441 
C 1402 485 1184 517 1062 517 
C 858 517 685 479 454 383 
L 2624 2809 
L 2662 3014 
L 2605 3072 
L 2458 2924 
C 2394 2860 2330 2835 2240 2835 
C 2022 2835 1690 2886 1382 2969 
L 1267 3001 
C 1088 3046 960 3072 870 3072 
C 762 3072 634 3052 480 3007 
L 275 2230 
L 410 2230 
L 602 2598 
C 710 2623 768 2630 851 2630 
C 941 2630 1011 2623 1139 2598 
C 1357 2554 1523 2535 1658 2535 
C 1888 2535 2042 2573 2253 2681 
L -7 108 
z
" transform="scale(0.015625)"/>
       <path id="URWPalladioL-Ital-6e" d="M 154 2471 
L 198 2343 
L 403 2477 
C 640 2624 659 2637 704 2637 
C 774 2637 819 2573 819 2477 
C 819 2152 557 919 294 6 
L 339 -64 
C 499 -20 646 19 787 44 
C 909 849 1043 1264 1338 1705 
C 1683 2241 2163 2637 2451 2637 
C 2522 2637 2560 2579 2560 2484 
C 2560 2369 2541 2235 2490 2030 
L 2157 677 
C 2099 440 2074 293 2074 191 
C 2074 32 2144 -64 2266 -64 
C 2432 -64 2662 70 3290 536 
L 3226 651 
L 3059 542 
C 2874 421 2733 351 2669 351 
C 2624 351 2586 408 2586 479 
C 2586 511 2592 581 2598 606 
L 3021 2369 
C 3066 2554 3091 2733 3091 2841 
C 3091 2988 3021 3072 2893 3072 
C 2624 3072 2182 2829 1805 2477 
C 1562 2254 1382 2037 1050 1571 
L 1293 2599 
C 1318 2714 1331 2790 1331 2860 
C 1331 2995 1280 3072 1184 3072 
C 1050 3072 800 2931 333 2599 
L 154 2471 
z
" transform="scale(0.015625)"/>
       <path id="URWPalladioL-Roma-28" d="M 1926 -1242 
C 1466 -673 1299 -365 1133 211 
C 998 672 934 1158 934 1702 
C 934 2233 998 2688 1120 3104 
C 1286 3635 1459 3936 1926 4480 
L 1805 4646 
C 1139 4051 877 3699 634 3072 
C 467 2643 384 2188 384 1702 
C 384 1017 544 371 851 -205 
C 1075 -634 1280 -884 1805 -1377 
L 1926 -1242 
z
" transform="scale(0.015625)"/>
       <path id="URWPalladioL-Roma-72" d="M 147 2579 
L 384 2579 
C 640 2579 666 2534 666 2112 
L 666 672 
C 666 268 646 224 429 211 
L 134 192 
L 134 0 
C 595 -7 762 0 922 0 
C 1050 19 1050 19 1837 0 
L 1837 192 
L 1504 211 
C 1216 230 1203 249 1203 669 
L 1203 1763 
C 1203 2145 1459 2463 1773 2463 
C 1965 2463 2099 2374 2202 2171 
L 2336 2171 
L 2394 2937 
C 2323 2982 2208 3008 2093 3008 
C 1901 3008 1696 2905 1562 2745 
L 1203 2324 
L 1203 2982 
L 1146 3008 
C 819 2873 486 2783 147 2745 
L 147 2579 
z
" transform="scale(0.015625)"/>
       <path id="URWPalladioL-Roma-65" d="M 2797 447 
L 2714 511 
C 2304 268 2157 211 1882 211 
C 1466 211 1120 396 941 710 
C 819 921 774 1100 762 1472 
L 1696 1472 
C 2138 1472 2413 1491 2854 1561 
C 2861 1651 2867 1708 2867 1786 
C 2867 2526 2394 3008 1677 3008 
C 1440 3008 1165 2924 902 2771 
C 378 2468 166 2069 166 1401 
C 166 998 262 652 435 409 
C 691 70 1120 -128 1600 -128 
C 1837 -128 2074 -77 2336 38 
C 2509 108 2643 192 2669 230 
L 2797 447 
z
M 2298 1708 
C 1965 1696 1811 1689 1581 1689 
C 1286 1689 1120 1696 774 1728 
C 774 2030 800 2172 883 2339 
C 1018 2623 1293 2796 1600 2796 
C 1811 2796 1978 2713 2093 2539 
C 2234 2326 2278 2140 2298 1708 
z
" transform="scale(0.015625)"/>
       <path id="URWPalladioL-Roma-61" d="M 2074 544 
L 2042 0 
C 2458 0 2458 0 2541 0 
C 2573 19 2733 12 3014 0 
L 3014 192 
L 2765 204 
C 2611 211 2586 262 2586 576 
L 2586 1751 
C 2586 2688 2317 3027 1574 3027 
C 1299 3027 1043 2956 800 2809 
L 461 2604 
L 461 2187 
L 627 2142 
L 710 2341 
C 845 2642 909 2688 1203 2688 
C 1805 2688 2054 2450 2074 1866 
L 1440 1751 
C 570 1590 205 1289 205 730 
C 205 224 506 -64 1011 -64 
C 1126 -64 1235 -45 1280 -13 
L 2074 544 
z
M 2074 806 
C 1888 544 1485 300 1235 300 
C 979 300 755 537 755 812 
C 755 1049 883 1273 1075 1395 
C 1235 1491 1587 1580 2074 1651 
L 2074 806 
z
" transform="scale(0.015625)"/>
       <path id="URWPalladioL-Roma-6c" d="M 147 4249 
L 506 4249 
C 621 4249 666 4179 666 3987 
L 666 672 
C 666 268 646 224 429 211 
L 134 192 
L 134 0 
C 774 0 774 0 934 0 
C 1094 19 1094 19 1734 0 
L 1734 192 
L 1440 211 
C 1222 224 1203 268 1203 672 
L 1203 4614 
L 1146 4665 
C 864 4557 653 4505 147 4429 
L 147 4249 
z
" transform="scale(0.015625)"/>
       <path id="URWPalladioL-Roma-70" d="M 64 2566 
L 301 2566 
C 557 2566 582 2521 582 2100 
L 582 -1118 
C 582 -1523 563 -1568 346 -1581 
L 51 -1600 
L 51 -1792 
C 691 -1773 691 -1773 851 -1773 
C 1011 -1773 1011 -1773 1651 -1792 
L 1651 -1600 
L 1357 -1581 
C 1139 -1568 1120 -1523 1120 -1118 
L 1120 96 
C 1312 -20 1517 -64 1805 -64 
C 1990 -64 2157 -26 2259 38 
L 2989 511 
C 3245 677 3546 1334 3546 1743 
C 3546 2451 2957 3008 2214 3008 
C 1978 3008 1747 2943 1645 2847 
L 1120 2368 
L 1120 2982 
L 1062 3008 
C 736 2873 403 2783 64 2745 
L 64 2566 
z
M 1120 1966 
C 1120 2055 1152 2126 1235 2234 
C 1421 2470 1683 2591 2003 2591 
C 2605 2591 2989 2170 2989 1507 
C 2989 792 2560 262 1984 262 
C 1632 262 1370 377 1120 639 
L 1120 1966 
z
" transform="scale(0.015625)"/>
       <path id="URWPalladioL-Roma-74" d="M 627 2457 
L 627 614 
C 627 140 838 -64 1331 -64 
C 1478 -64 1632 -32 1670 12 
L 1978 352 
L 1894 460 
C 1734 371 1638 339 1517 339 
C 1267 339 1165 467 1165 780 
L 1165 2457 
L 1984 2457 
L 2042 2803 
L 1165 2764 
L 1165 3008 
C 1165 3277 1184 3507 1235 3917 
L 1158 3987 
C 1005 3891 813 3808 614 3744 
C 634 3552 640 3430 640 3238 
L 640 2790 
L 141 2566 
L 141 2432 
L 627 2457 
z
" transform="scale(0.015625)"/>
       <path id="URWPalladioL-Roma-29" d="M 326 -1377 
C 768 -961 954 -749 1152 -436 
C 1542 185 1747 928 1747 1696 
C 1747 2188 1664 2643 1498 3072 
C 1254 3693 992 4045 326 4646 
L 205 4480 
C 672 3929 845 3629 1005 3104 
C 1133 2688 1197 2233 1197 1702 
C 1197 1158 1133 672 998 211 
C 832 -365 666 -673 205 -1242 
L 326 -1377 
z
" transform="scale(0.015625)"/>
      </defs>
      <use xlink:href="#URWPalladioL-Ital-7a" transform="scale(0.996264)"/>
      <use xlink:href="#URWPalladioL-Ital-6e" transform="translate(46.425879 36.164371)scale(0.757155)"/>
      <use xlink:href="#URWPalladioL-Roma-28" transform="translate(114.874929 0)scale(0.996264)"/>
      <use xlink:href="#URWPalladioL-Roma-72" transform="translate(148.050159 0)scale(0.996264)"/>
      <use xlink:href="#URWPalladioL-Roma-65" transform="translate(185.609476 0)scale(0.996264)"/>
      <use xlink:href="#URWPalladioL-Roma-61" transform="translate(233.329771 0)scale(0.996264)"/>
      <use xlink:href="#URWPalladioL-Roma-6c" transform="translate(283.142972 0)scale(0.996264)"/>
      <use xlink:href="#URWPalladioL-Roma-70" transform="translate(337.039933 0)scale(0.996264)"/>
      <use xlink:href="#URWPalladioL-Roma-61" transform="translate(396.914327 0)scale(0.996264)"/>
      <use xlink:href="#URWPalladioL-Roma-72" transform="translate(446.727528 0)scale(0.996264)"/>
      <use xlink:href="#URWPalladioL-Roma-74" transform="translate(486.079424 0)scale(0.996264)"/>
      <use xlink:href="#URWPalladioL-Roma-29" transform="translate(518.556512 0)scale(0.996264)"/>
     </g>
    </g>
   </g>
   <g id="line2d_32">
    <path d="M 67.791619 37.190833 
L 86.656569 53.022085 
L 105.521519 46.865295 
L 124.386469 41.878295 
L 143.251419 53.212709 
L 162.11637 42.825825 
L 180.98132 46.865295 
L 199.84627 50.137265 
L 218.71122 42.700756 
L 237.57617 49.515591 
L 256.44112 46.865295 
L 275.306071 44.718555 
L 294.171021 49.597648 
L 313.035971 45.126435 
L 331.900921 46.865295 
L 350.765871 48.273771 
L 369.630821 45.072597 
L 388.495772 48.00616 
L 407.360722 46.865295 
L 426.225672 45.941193 
" clip-path="url(#p72ea60e097)" style="fill: none"/>
    <defs>
     <path id="m5382199f22" d="M 0 3.5 
C 0.928211 3.5 1.81853 3.131218 2.474874 2.474874 
C 3.131218 1.81853 3.5 0.928211 3.5 0 
C 3.5 -0.928211 3.131218 -1.81853 2.474874 -2.474874 
C 1.81853 -3.131218 0.928211 -3.5 0 -3.5 
C -0.928211 -3.5 -1.81853 -3.131218 -2.474874 -2.474874 
C -3.131218 -1.81853 -3.5 -0.928211 -3.5 0 
C -3.5 0.928211 -3.131218 1.81853 -2.474874 2.474874 
C -1.81853 3.131218 -0.928211 3.5 0 3.5 
z
" style="stroke: #fefefa; stroke-width: 1.5"/>
    </defs>
    <g clip-path="url(#p72ea60e097)">
     <use xlink:href="#m5382199f22" x="67.791619" y="37.190833" style="fill: #0271ae; stroke: #fefefa; stroke-width: 1.5"/>
     <use xlink:href="#m5382199f22" x="86.656569" y="53.022085" style="fill: #0271ae; stroke: #fefefa; stroke-width: 1.5"/>
     <use xlink:href="#m5382199f22" x="105.521519" y="46.865295" style="fill: #0271ae; stroke: #fefefa; stroke-width: 1.5"/>
     <use xlink:href="#m5382199f22" x="124.386469" y="41.878295" style="fill: #0271ae; stroke: #fefefa; stroke-width: 1.5"/>
     <use xlink:href="#m5382199f22" x="143.251419" y="53.212709" style="fill: #0271ae; stroke: #fefefa; stroke-width: 1.5"/>
     <use xlink:href="#m5382199f22" x="162.11637" y="42.825825" style="fill: #0271ae; stroke: #fefefa; stroke-width: 1.5"/>
     <use xlink:href="#m5382199f22" x="180.98132" y="46.865295" style="fill: #0271ae; stroke: #fefefa; stroke-width: 1.5"/>
     <use xlink:href="#m5382199f22" x="199.84627" y="50.137265" style="fill: #0271ae; stroke: #fefefa; stroke-width: 1.5"/>
     <use xlink:href="#m5382199f22" x="218.71122" y="42.700756" style="fill: #0271ae; stroke: #fefefa; stroke-width: 1.5"/>
     <use xlink:href="#m5382199f22" x="237.57617" y="49.515591" style="fill: #0271ae; stroke: #fefefa; stroke-width: 1.5"/>
     <use xlink:href="#m5382199f22" x="256.44112" y="46.865295" style="fill: #0271ae; stroke: #fefefa; stroke-width: 1.5"/>
     <use xlink:href="#m5382199f22" x="275.306071" y="44.718555" style="fill: #0271ae; stroke: #fefefa; stroke-width: 1.5"/>
     <use xlink:href="#m5382199f22" x="294.171021" y="49.597648" style="fill: #0271ae; stroke: #fefefa; stroke-width: 1.5"/>
     <use xlink:href="#m5382199f22" x="313.035971" y="45.126435" style="fill: #0271ae; stroke: #fefefa; stroke-width: 1.5"/>
     <use xlink:href="#m5382199f22" x="331.900921" y="46.865295" style="fill: #0271ae; stroke: #fefefa; stroke-width: 1.5"/>
     <use xlink:href="#m5382199f22" x="350.765871" y="48.273771" style="fill: #0271ae; stroke: #fefefa; stroke-width: 1.5"/>
     <use xlink:href="#m5382199f22" x="369.630821" y="45.072597" style="fill: #0271ae; stroke: #fefefa; stroke-width: 1.5"/>
     <use xlink:href="#m5382199f22" x="388.495772" y="48.00616" style="fill: #0271ae; stroke: #fefefa; stroke-width: 1.5"/>
     <use xlink:href="#m5382199f22" x="407.360722" y="46.865295" style="fill: #0271ae; stroke: #fefefa; stroke-width: 1.5"/>
     <use xlink:href="#m5382199f22" x="426.225672" y="45.941193" style="fill: #0271ae; stroke: #fefefa; stroke-width: 1.5"/>
    </g>
   </g>
   <g id="line2d_33">
    <path d="M 67.791619 37.190833 
L 86.656569 37.649132 
L 105.521519 41.012245 
L 124.386469 46.865295 
L 143.251419 53.947485 
L 162.11637 60.358679 
L 180.98132 64.004194 
L 199.84627 63.192289 
L 218.71122 57.234329 
L 237.57617 46.865295 
L 256.44112 34.318763 
L 275.306071 22.960941 
L 294.171021 16.502688 
L 313.035971 17.941027 
L 331.900921 28.495918 
L 350.765871 46.865295 
L 369.630821 69.092241 
L 388.495772 89.213314 
L 407.360722 100.654504 
L 426.225672 98.106399 
" clip-path="url(#p72ea60e097)" style="fill: none"/>
    <defs>
     <path id="m1b46017312" d="M 0 3.5 
C 0.928211 3.5 1.81853 3.131218 2.474874 2.474874 
C 3.131218 1.81853 3.5 0.928211 3.5 0 
C 3.5 -0.928211 3.131218 -1.81853 2.474874 -2.474874 
C 1.81853 -3.131218 0.928211 -3.5 0 -3.5 
C -0.928211 -3.5 -1.81853 -3.131218 -2.474874 -2.474874 
C -3.131218 -1.81853 -3.5 -0.928211 -3.5 0 
C -3.5 0.928211 -3.131218 1.81853 -2.474874 2.474874 
C -1.81853 3.131218 -0.928211 3.5 0 3.5 
z
" style="stroke: #fefefa; stroke-width: 1.5"/>
    </defs>
    <g clip-path="url(#p72ea60e097)">
     <use xlink:href="#m1b46017312" x="67.791619" y="37.190833" style="fill: #dc2830; stroke: #fefefa; stroke-width: 1.5"/>
     <use xlink:href="#m1b46017312" x="86.656569" y="37.649132" style="fill: #dc2830; stroke: #fefefa; stroke-width: 1.5"/>
     <use xlink:href="#m1b46017312" x="105.521519" y="41.012245" style="fill: #dc2830; stroke: #fefefa; stroke-width: 1.5"/>
     <use xlink:href="#m1b46017312" x="124.386469" y="46.865295" style="fill: #dc2830; stroke: #fefefa; stroke-width: 1.5"/>
     <use xlink:href="#m1b46017312" x="143.251419" y="53.947485" style="fill: #dc2830; stroke: #fefefa; stroke-width: 1.5"/>
     <use xlink:href="#m1b46017312" x="162.11637" y="60.358679" style="fill: #dc2830; stroke: #fefefa; stroke-width: 1.5"/>
     <use xlink:href="#m1b46017312" x="180.98132" y="64.004194" style="fill: #dc2830; stroke: #fefefa; stroke-width: 1.5"/>
     <use xlink:href="#m1b46017312" x="199.84627" y="63.192289" style="fill: #dc2830; stroke: #fefefa; stroke-width: 1.5"/>
     <use xlink:href="#m1b46017312" x="218.71122" y="57.234329" style="fill: #dc2830; stroke: #fefefa; stroke-width: 1.5"/>
     <use xlink:href="#m1b46017312" x="237.57617" y="46.865295" style="fill: #dc2830; stroke: #fefefa; stroke-width: 1.5"/>
     <use xlink:href="#m1b46017312" x="256.44112" y="34.318763" style="fill: #dc2830; stroke: #fefefa; stroke-width: 1.5"/>
     <use xlink:href="#m1b46017312" x="275.306071" y="22.960941" style="fill: #dc2830; stroke: #fefefa; stroke-width: 1.5"/>
     <use xlink:href="#m1b46017312" x="294.171021" y="16.502688" style="fill: #dc2830; stroke: #fefefa; stroke-width: 1.5"/>
     <use xlink:href="#m1b46017312" x="313.035971" y="17.941027" style="fill: #dc2830; stroke: #fefefa; stroke-width: 1.5"/>
     <use xlink:href="#m1b46017312" x="331.900921" y="28.495918" style="fill: #dc2830; stroke: #fefefa; stroke-width: 1.5"/>
     <use xlink:href="#m1b46017312" x="350.765871" y="46.865295" style="fill: #dc2830; stroke: #fefefa; stroke-width: 1.5"/>
     <use xlink:href="#m1b46017312" x="369.630821" y="69.092241" style="fill: #dc2830; stroke: #fefefa; stroke-width: 1.5"/>
     <use xlink:href="#m1b46017312" x="388.495772" y="89.213314" style="fill: #dc2830; stroke: #fefefa; stroke-width: 1.5"/>
     <use xlink:href="#m1b46017312" x="407.360722" y="100.654504" style="fill: #dc2830; stroke: #fefefa; stroke-width: 1.5"/>
     <use xlink:href="#m1b46017312" x="426.225672" y="98.106399" style="fill: #dc2830; stroke: #fefefa; stroke-width: 1.5"/>
    </g>
   </g>
   <g id="line2d_34">
    <path d="M 67.791619 37.190833 
L 86.656569 42.028064 
L 105.521519 51.702526 
L 124.386469 56.539757 
L 143.251419 51.702526 
L 162.11637 42.028064 
L 180.98132 37.190833 
L 199.84627 42.028064 
L 218.71122 51.702526 
L 237.57617 56.539757 
L 256.44112 51.702526 
L 275.306071 42.028064 
L 294.171021 37.190833 
L 313.035971 42.028064 
L 331.900921 51.702526 
L 350.765871 56.539757 
L 369.630821 51.702526 
L 388.495772 42.028064 
L 407.360722 37.190833 
L 426.225672 42.028064 
" clip-path="url(#p72ea60e097)" style="fill: none"/>
    <defs>
     <path id="m62c39f09aa" d="M 0 3.5 
C 0.928211 3.5 1.81853 3.131218 2.474874 2.474874 
C 3.131218 1.81853 3.5 0.928211 3.5 0 
C 3.5 -0.928211 3.131218 -1.81853 2.474874 -2.474874 
C 1.81853 -3.131218 0.928211 -3.5 0 -3.5 
C -0.928211 -3.5 -1.81853 -3.131218 -2.474874 -2.474874 
C -3.131218 -1.81853 -3.5 -0.928211 -3.5 0 
C -3.5 0.928211 -3.131218 1.81853 -2.474874 2.474874 
C -1.81853 3.131218 -0.928211 3.5 0 3.5 
z
" style="stroke: #fefefa; stroke-width: 1.5"/>
    </defs>
    <g clip-path="url(#p72ea60e097)">
     <use xlink:href="#m62c39f09aa" x="67.791619" y="37.190833" style="fill: #f2aa00; stroke: #fefefa; stroke-width: 1.5"/>
     <use xlink:href="#m62c39f09aa" x="86.656569" y="42.028064" style="fill: #f2aa00; stroke: #fefefa; stroke-width: 1.5"/>
     <use xlink:href="#m62c39f09aa" x="105.521519" y="51.702526" style="fill: #f2aa00; stroke: #fefefa; stroke-width: 1.5"/>
     <use xlink:href="#m62c39f09aa" x="124.386469" y="56.539757" style="fill: #f2aa00; stroke: #fefefa; stroke-width: 1.5"/>
     <use xlink:href="#m62c39f09aa" x="143.251419" y="51.702526" style="fill: #f2aa00; stroke: #fefefa; stroke-width: 1.5"/>
     <use xlink:href="#m62c39f09aa" x="162.11637" y="42.028064" style="fill: #f2aa00; stroke: #fefefa; stroke-width: 1.5"/>
     <use xlink:href="#m62c39f09aa" x="180.98132" y="37.190833" style="fill: #f2aa00; stroke: #fefefa; stroke-width: 1.5"/>
     <use xlink:href="#m62c39f09aa" x="199.84627" y="42.028064" style="fill: #f2aa00; stroke: #fefefa; stroke-width: 1.5"/>
     <use xlink:href="#m62c39f09aa" x="218.71122" y="51.702526" style="fill: #f2aa00; stroke: #fefefa; stroke-width: 1.5"/>
     <use xlink:href="#m62c39f09aa" x="237.57617" y="56.539757" style="fill: #f2aa00; stroke: #fefefa; stroke-width: 1.5"/>
     <use xlink:href="#m62c39f09aa" x="256.44112" y="51.702526" style="fill: #f2aa00; stroke: #fefefa; stroke-width: 1.5"/>
     <use xlink:href="#m62c39f09aa" x="275.306071" y="42.028064" style="fill: #f2aa00; stroke: #fefefa; stroke-width: 1.5"/>
     <use xlink:href="#m62c39f09aa" x="294.171021" y="37.190833" style="fill: #f2aa00; stroke: #fefefa; stroke-width: 1.5"/>
     <use xlink:href="#m62c39f09aa" x="313.035971" y="42.028064" style="fill: #f2aa00; stroke: #fefefa; stroke-width: 1.5"/>
     <use xlink:href="#m62c39f09aa" x="331.900921" y="51.702526" style="fill: #f2aa00; stroke: #fefefa; stroke-width: 1.5"/>
     <use xlink:href="#m62c39f09aa" x="350.765871" y="56.539757" style="fill: #f2aa00; stroke: #fefefa; stroke-width: 1.5"/>
     <use xlink:href="#m62c39f09aa" x="369.630821" y="51.702526" style="fill: #f2aa00; stroke: #fefefa; stroke-width: 1.5"/>
     <use xlink:href="#m62c39f09aa" x="388.495772" y="42.028064" style="fill: #f2aa00; stroke: #fefefa; stroke-width: 1.5"/>
     <use xlink:href="#m62c39f09aa" x="407.360722" y="37.190833" style="fill: #f2aa00; stroke: #fefefa; stroke-width: 1.5"/>
     <use xlink:href="#m62c39f09aa" x="426.225672" y="42.028064" style="fill: #f2aa00; stroke: #fefefa; stroke-width: 1.5"/>
    </g>
   </g>
  </g>
  <g id="axes_2">
   <g id="patch_3">
    <path d="M 67.791619 171.861659 
L 426.225672 171.861659 
L 426.225672 92.531069 
L 67.791619 92.531069 
L 67.791619 171.861659 
z
" style="fill: none"/>
   </g>
   <g id="line2d_35">
    <path d="M 67.791619 132.196364 
L 70.664838 128.852719 
L 72.819752 126.669721 
L 74.256361 125.454293 
L 75.692971 124.473392 
L 77.12958 123.754593 
L 78.566189 123.316663 
L 80.002799 123.169109 
L 81.439408 123.312018 
L 82.876018 123.736204 
L 84.312627 124.423653 
L 85.749237 125.348231 
L 87.904151 127.10524 
L 90.059065 129.183379 
L 96.523807 135.758279 
L 98.678721 137.541166 
L 100.115331 138.500645 
L 101.55194 139.243643 
L 102.98855 139.749892 
L 104.425159 140.007004 
L 105.861769 140.01074 
L 107.298378 139.765012 
L 108.734988 139.281635 
L 110.171597 138.579819 
L 111.608206 137.685442 
L 113.763121 136.053269 
L 116.636339 133.533527 
L 120.946168 129.692567 
L 123.101082 128.040959 
L 125.255996 126.724846 
L 126.692605 126.077488 
L 128.129215 125.635726 
L 129.565824 125.410385 
L 131.002434 125.405213 
L 132.439043 125.616869 
L 133.875653 126.035147 
L 135.312262 126.643408 
L 137.467176 127.861545 
L 139.62209 129.359715 
L 148.241747 135.799533 
L 150.396661 136.945104 
L 151.83327 137.509127 
L 153.26988 137.894609 
L 154.706489 138.092089 
L 156.143099 138.098258 
L 157.579708 137.915964 
L 159.016318 137.554025 
L 161.171232 136.707206 
L 163.326146 135.558974 
L 166.199365 133.715015 
L 171.945803 129.881949 
L 174.100717 128.707969 
L 176.255631 127.810577 
L 177.69224 127.395326 
L 179.12885 127.139916 
L 180.565459 127.049953 
L 182.002069 127.125675 
L 183.438678 127.362027 
L 185.593592 127.99436 
L 187.748506 128.91119 
L 190.621725 130.449475 
L 197.804772 134.564117 
L 199.959686 135.512253 
L 202.114601 136.201468 
L 204.269515 136.588791 
L 206.424429 136.653791 
L 208.579343 136.399501 
L 210.734257 135.851641 
L 212.889171 135.056247 
L 215.76239 133.720632 
L 222.945437 130.144307 
L 225.100351 129.319263 
L 227.255266 128.718934 
L 229.41018 128.380768 
L 231.565094 128.322637 
L 233.720008 128.542024 
L 235.874922 129.01669 
L 238.029836 129.706728 
L 240.903055 130.866372 
L 248.804407 134.233116 
L 250.959321 134.890644 
L 253.114235 135.340475 
L 255.26915 135.555482 
L 257.424064 135.525923 
L 259.578978 135.259722 
L 261.733892 134.781482 
L 264.607111 133.883344 
L 268.916939 132.235979 
L 273.226767 130.65508 
L 276.099986 129.858042 
L 278.2549 129.466027 
L 280.409815 129.277966 
L 282.564729 129.302414 
L 284.719643 129.532573 
L 287.592862 130.120765 
L 290.466081 130.951136 
L 299.804042 133.909264 
L 302.677261 134.472424 
L 304.832175 134.697452 
L 306.987089 134.738841 
L 309.142003 134.598006 
L 312.015222 134.153322 
L 314.888441 133.476832 
L 321.353183 131.607841 
L 324.944707 130.710615 
L 327.817926 130.220201 
L 330.691145 129.993541 
L 333.564364 130.050778 
L 336.437582 130.375755 
L 339.310801 130.91919 
L 344.338934 132.160619 
L 349.367067 133.347536 
L 352.240286 133.825465 
L 355.113505 134.083636 
L 357.986724 134.096557 
L 360.859943 133.87035 
L 364.451466 133.308549 
L 369.479599 132.23025 
L 374.507732 131.198245 
L 378.099256 130.706672 
L 380.972475 130.533677 
L 383.845694 130.575028 
L 386.718913 130.81876 
L 390.310436 131.349667 
L 402.521616 133.423939 
L 405.394835 133.620447 
L 408.268054 133.631842 
L 411.859578 133.394693 
L 416.169406 132.823174 
L 426.225672 131.272263 
L 426.225672 131.272263 
" clip-path="url(#p08a6712c8c)" style="fill: none; stroke: #0271ae; stroke-width: 2; stroke-linecap: round"/>
   </g>
   <g id="line2d_36">
    <path d="M 67.791619 132.196364 
L 78.566189 135.20603 
L 95.087198 139.827414 
L 102.270245 141.609535 
L 108.734988 142.988996 
L 114.481425 143.984604 
L 119.509558 144.644759 
L 124.537691 145.082801 
L 129.565824 145.278128 
L 133.875653 145.23961 
L 138.185481 145.002543 
L 142.495309 144.561665 
L 146.805137 143.914558 
L 151.114966 143.061809 
L 155.424794 142.007133 
L 160.452927 140.530887 
L 165.48106 138.805954 
L 170.509193 136.854917 
L 176.255631 134.385013 
L 182.720373 131.362134 
L 192.058335 126.711196 
L 205.706124 119.891677 
L 212.170867 116.917034 
L 217.199 114.820825 
L 222.227133 112.973416 
L 226.536961 111.626719 
L 230.846789 110.530497 
L 234.438313 109.828377 
L 238.029836 109.333955 
L 241.62136 109.060073 
L 245.212884 109.017741 
L 248.804407 109.215958 
L 252.395931 109.661546 
L 255.987454 110.35899 
L 259.578978 111.310313 
L 263.170501 112.514962 
L 266.762025 113.969715 
L 270.353549 115.668619 
L 273.945072 117.602952 
L 277.536596 119.761208 
L 281.846424 122.626413 
L 286.156252 125.763571 
L 291.184385 129.720005 
L 296.930823 134.552447 
L 304.832175 141.540136 
L 317.76166 153.026696 
L 323.508098 157.804103 
L 327.817926 161.128716 
L 332.127754 164.164691 
L 335.719278 166.431789 
L 339.310801 168.425062 
L 342.18402 169.80167 
L 345.057239 170.96827 
L 347.930458 171.910903 
L 350.803677 172.61669 
L 353.676896 173.073954 
L 356.550114 173.272324 
L 359.423333 173.202854 
L 362.296552 172.858117 
L 365.169771 172.232299 
L 368.04299 171.321292 
L 370.916209 170.122764 
L 373.789428 168.63623 
L 376.662647 166.863112 
L 379.535865 164.806781 
L 382.409084 162.472596 
L 385.282303 159.867923 
L 388.155522 157.002151 
L 391.747046 153.070324 
L 395.338569 148.775148 
L 398.930093 144.148061 
L 403.239921 138.208527 
L 408.268054 130.835705 
L 414.014492 121.981469 
L 426.225672 102.612299 
L 426.225672 102.612299 
" clip-path="url(#p08a6712c8c)" style="fill: none; stroke: #dc2830; stroke-width: 2; stroke-linecap: round"/>
   </g>
   <g id="line2d_37">
    <path d="M 67.791619 132.196364 
L 74.974666 128.440248 
L 79.284494 126.434568 
L 82.876018 125.009555 
L 85.749237 124.072189 
L 88.622455 123.341047 
L 91.495674 122.834691 
L 94.368893 122.565972 
L 97.242112 122.541713 
L 100.115331 122.762528 
L 102.98855 123.222814 
L 105.861769 123.910885 
L 108.734988 124.809276 
L 112.326511 126.192823 
L 115.918035 127.814202 
L 120.946168 130.360023 
L 133.157348 136.722705 
L 136.748871 138.326418 
L 140.340395 139.687286 
L 143.213614 140.564524 
L 146.086833 141.229343 
L 148.960052 141.664868 
L 151.83327 141.860043 
L 154.706489 141.809914 
L 157.579708 141.515753 
L 160.452927 140.985027 
L 163.326146 140.231209 
L 166.199365 139.273433 
L 169.790888 137.82688 
L 174.100717 135.802277 
L 179.847154 132.805044 
L 188.466811 128.291104 
L 192.776639 126.304911 
L 196.368163 124.901841 
L 199.241382 123.985148 
L 202.114601 123.27689 
L 204.987819 122.795045 
L 207.861038 122.551845 
L 210.734257 122.553462 
L 213.607476 122.799856 
L 216.480695 123.284773 
L 219.353914 123.995902 
L 222.227133 124.915193 
L 225.818656 126.321028 
L 229.41018 127.959617 
L 234.438313 130.519744 
L 245.931188 136.524137 
L 250.241017 138.451203 
L 253.83254 139.78901 
L 256.705759 140.644847 
L 259.578978 141.286227 
L 262.452197 141.696868 
L 265.325416 141.866347 
L 268.198634 141.790362 
L 271.071853 141.470842 
L 273.945072 140.915897 
L 276.818291 140.139614 
L 279.69151 139.161698 
L 283.283033 137.694013 
L 287.592862 135.651058 
L 293.339299 132.642866 
L 301.240651 128.496452 
L 305.55048 126.483609 
L 309.142003 125.050472 
L 312.015222 124.105421 
L 314.888441 123.365751 
L 317.76166 122.850239 
L 320.634879 122.57197 
L 323.508098 122.538008 
L 326.381316 122.749216 
L 329.254535 123.200231 
L 332.127754 123.879605 
L 335.000973 124.770093 
L 338.592497 126.14518 
L 342.18402 127.759988 
L 347.212153 130.300259 
L 359.423333 136.668785 
L 363.014857 138.279176 
L 366.606381 139.648594 
L 369.479599 140.533794 
L 372.352818 141.207355 
L 375.226037 141.65218 
L 378.099256 141.856977 
L 380.972475 141.816547 
L 383.845694 141.531918 
L 386.718913 141.010313 
L 389.592131 140.264974 
L 392.46535 139.314821 
L 396.056874 137.876298 
L 400.366702 135.858724 
L 406.11314 132.865819 
L 414.732796 128.346906 
L 419.042625 126.35334 
L 422.634148 124.941994 
L 425.507367 124.017518 
L 426.225672 123.818034 
L 426.225672 123.818034 
" clip-path="url(#p08a6712c8c)" style="fill: none; stroke: #f2aa00; stroke-width: 2; stroke-linecap: round"/>
   </g>
   <g id="matplotlib.axis_3">
    <g id="xtick_12">
     <g id="line2d_38">
      <path d="M 67.791619 171.861659 
L 67.791619 92.531069 
" clip-path="url(#p08a6712c8c)" style="fill: none; stroke: #000000; stroke-opacity: 0.2; stroke-width: 0.5; stroke-linecap: round"/>
     </g>
     <g id="line2d_39">
      <g>
       <use xlink:href="#mdce9bd13dd" x="67.791619" y="171.861659" style="fill-opacity: 0.2; stroke: #000000; stroke-opacity: 0.2; stroke-width: 0.5"/>
      </g>
     </g>
     <g id="text_5">
      <!-- $\mathdefault{0}$ -->
      <g transform="translate(64.304695 197.341188)scale(0.14 -0.14)">
       <use xlink:href="#URWPalladioL-Roma-30" transform="scale(0.996264)"/>
      </g>
     </g>
    </g>
    <g id="xtick_13">
     <g id="line2d_40">
      <path d="M 86.656569 171.861659 
L 86.656569 92.531069 
" clip-path="url(#p08a6712c8c)" style="fill: none; stroke: #000000; stroke-opacity: 0.2; stroke-width: 0.5; stroke-linecap: round"/>
     </g>
     <g id="line2d_41">
      <g>
       <use xlink:href="#mdce9bd13dd" x="86.656569" y="171.861659" style="fill-opacity: 0.2; stroke: #000000; stroke-opacity: 0.2; stroke-width: 0.5"/>
      </g>
     </g>
     <g id="text_6">
      <!-- $\mathdefault{1}$ -->
      <g transform="translate(83.169645 197.341188)scale(0.14 -0.14)">
       <defs>
        <path id="URWPalladioL-Roma-31" d="M 429 3571 
L 493 3571 
L 1318 3942 
C 1325 3949 1331 3949 1338 3949 
C 1376 3949 1389 3891 1389 3737 
L 1389 633 
C 1389 300 1318 230 973 211 
L 614 192 
L 614 0 
C 1600 0 1600 0 1670 0 
C 1754 0 1894 0 2112 -7 
C 2189 6 2413 6 2675 0 
L 2675 192 
L 2342 211 
C 1990 229 1926 299 1926 628 
L 1926 4383 
L 1837 4416 
C 1421 4199 966 4009 384 3807 
L 429 3571 
z
" transform="scale(0.015625)"/>
       </defs>
       <use xlink:href="#URWPalladioL-Roma-31" transform="scale(0.996264)"/>
      </g>
     </g>
    </g>
    <g id="xtick_14">
     <g id="line2d_42">
      <path d="M 124.386469 171.861659 
L 124.386469 92.531069 
" clip-path="url(#p08a6712c8c)" style="fill: none; stroke: #000000; stroke-opacity: 0.2; stroke-width: 0.5; stroke-linecap: round"/>
     </g>
     <g id="line2d_43">
      <g>
       <use xlink:href="#mdce9bd13dd" x="124.386469" y="171.861659" style="fill-opacity: 0.2; stroke: #000000; stroke-opacity: 0.2; stroke-width: 0.5"/>
      </g>
     </g>
     <g id="text_7">
      <!-- $\mathdefault{3}$ -->
      <g transform="translate(120.899545 197.341188)scale(0.14 -0.14)">
       <defs>
        <path id="URWPalladioL-Roma-33" d="M 275 3196 
L 474 3196 
L 589 3553 
C 659 3770 1062 3987 1395 3987 
C 1811 3987 2150 3649 2150 3247 
C 2150 2769 1773 2368 1318 2368 
C 1267 2368 1197 2374 1114 2380 
L 1018 2387 
L 941 2047 
L 986 2008 
C 1229 2118 1350 2150 1523 2150 
C 2054 2150 2362 1808 2362 1222 
C 2362 565 1971 134 1376 134 
C 1082 134 819 231 627 411 
C 474 553 390 701 269 1048 
L 96 984 
C 230 591 282 359 320 38 
C 659 -77 941 -128 1178 -128 
C 1690 -128 2278 160 2630 591 
C 2848 855 2957 1139 2957 1441 
C 2957 1750 2829 2021 2598 2182 
C 2438 2297 2291 2348 1971 2406 
C 2483 2801 2675 3094 2675 3470 
C 2675 4038 2202 4416 1491 4416 
C 1056 4416 768 4294 461 3987 
L 275 3196 
z
" transform="scale(0.015625)"/>
       </defs>
       <use xlink:href="#URWPalladioL-Roma-33" transform="scale(0.996264)"/>
      </g>
     </g>
    </g>
    <g id="xtick_15">
     <g id="line2d_44">
      <path d="M 162.11637 171.861659 
L 162.11637 92.531069 
" clip-path="url(#p08a6712c8c)" style="fill: none; stroke: #000000; stroke-opacity: 0.2; stroke-width: 0.5; stroke-linecap: round"/>
     </g>
     <g id="line2d_45">
      <g>
       <use xlink:href="#mdce9bd13dd" x="162.11637" y="171.861659" style="fill-opacity: 0.2; stroke: #000000; stroke-opacity: 0.2; stroke-width: 0.5"/>
      </g>
     </g>
     <g id="text_8">
      <!-- $\mathdefault{5}$ -->
      <g transform="translate(158.629446 197.341188)scale(0.14 -0.14)">
       <use xlink:href="#URWPalladioL-Roma-35" transform="scale(0.996264)"/>
      </g>
     </g>
    </g>
    <g id="xtick_16">
     <g id="line2d_46">
      <path d="M 199.84627 171.861659 
L 199.84627 92.531069 
" clip-path="url(#p08a6712c8c)" style="fill: none; stroke: #000000; stroke-opacity: 0.2; stroke-width: 0.5; stroke-linecap: round"/>
     </g>
     <g id="line2d_47">
      <g>
       <use xlink:href="#mdce9bd13dd" x="199.84627" y="171.861659" style="fill-opacity: 0.2; stroke: #000000; stroke-opacity: 0.2; stroke-width: 0.5"/>
      </g>
     </g>
     <g id="text_9">
      <!-- $\mathdefault{7}$ -->
      <g transform="translate(196.359346 197.341188)scale(0.14 -0.14)">
       <defs>
        <path id="URWPalladioL-Roma-37" d="M 358 83 
L 416 0 
C 666 0 666 0 710 0 
C 755 19 755 19 1005 0 
C 1274 700 1587 1369 2010 2141 
L 3181 4255 
L 3181 4448 
C 2490 4422 2266 4416 1747 4416 
C 1280 4416 966 4422 346 4448 
L 282 4416 
C 301 3807 301 3807 301 3743 
C 301 3672 301 3672 282 3087 
L 474 3087 
L 518 3447 
C 570 3846 614 3897 909 3897 
L 2618 3897 
C 2362 3370 2163 2996 1920 2604 
L 358 83 
z
" transform="scale(0.015625)"/>
       </defs>
       <use xlink:href="#URWPalladioL-Roma-37" transform="scale(0.996264)"/>
      </g>
     </g>
    </g>
    <g id="xtick_17">
     <g id="line2d_48">
      <path d="M 237.57617 171.861659 
L 237.57617 92.531069 
" clip-path="url(#p08a6712c8c)" style="fill: none; stroke: #000000; stroke-opacity: 0.2; stroke-width: 0.5; stroke-linecap: round"/>
     </g>
     <g id="line2d_49">
      <g>
       <use xlink:href="#mdce9bd13dd" x="237.57617" y="171.861659" style="fill-opacity: 0.2; stroke: #000000; stroke-opacity: 0.2; stroke-width: 0.5"/>
      </g>
     </g>
     <g id="text_10">
      <!-- $\mathdefault{9}$ -->
      <g transform="translate(234.089246 197.341188)scale(0.14 -0.14)">
       <defs>
        <path id="URWPalladioL-Roma-39" d="M 614 -128 
C 1325 103 1632 252 1978 550 
C 2598 1087 2925 1830 2925 2684 
C 2925 3759 2406 4416 1562 4416 
C 742 4416 128 3778 128 2925 
C 128 2194 608 1657 1274 1657 
C 1491 1657 1741 1727 1856 1823 
L 2304 2194 
C 2253 1113 1555 317 397 32 
L 397 -20 
L 614 -128 
z
M 1536 4204 
C 1824 4204 2035 4083 2176 3829 
C 2291 3625 2368 3314 2368 3027 
C 2368 2442 2029 2048 1536 2048 
C 1024 2048 678 2499 678 3161 
C 678 3803 1011 4204 1536 4204 
z
" transform="scale(0.015625)"/>
       </defs>
       <use xlink:href="#URWPalladioL-Roma-39" transform="scale(0.996264)"/>
      </g>
     </g>
    </g>
    <g id="xtick_18">
     <g id="line2d_50">
      <path d="M 275.306071 171.861659 
L 275.306071 92.531069 
" clip-path="url(#p08a6712c8c)" style="fill: none; stroke: #000000; stroke-opacity: 0.2; stroke-width: 0.5; stroke-linecap: round"/>
     </g>
     <g id="line2d_51">
      <g>
       <use xlink:href="#mdce9bd13dd" x="275.306071" y="171.861659" style="fill-opacity: 0.2; stroke: #000000; stroke-opacity: 0.2; stroke-width: 0.5"/>
      </g>
     </g>
     <g id="text_11">
      <!-- $\mathdefault{11}$ -->
      <g transform="translate(268.332223 197.341188)scale(0.14 -0.14)">
       <use xlink:href="#URWPalladioL-Roma-31" transform="scale(0.996264)"/>
       <use xlink:href="#URWPalladioL-Roma-31" transform="translate(49.8132 0)scale(0.996264)"/>
      </g>
     </g>
    </g>
    <g id="xtick_19">
     <g id="line2d_52">
      <path d="M 313.035971 171.861659 
L 313.035971 92.531069 
" clip-path="url(#p08a6712c8c)" style="fill: none; stroke: #000000; stroke-opacity: 0.2; stroke-width: 0.5; stroke-linecap: round"/>
     </g>
     <g id="line2d_53">
      <g>
       <use xlink:href="#mdce9bd13dd" x="313.035971" y="171.861659" style="fill-opacity: 0.2; stroke: #000000; stroke-opacity: 0.2; stroke-width: 0.5"/>
      </g>
     </g>
     <g id="text_12">
      <!-- $\mathdefault{13}$ -->
      <g transform="translate(306.062123 197.341188)scale(0.14 -0.14)">
       <use xlink:href="#URWPalladioL-Roma-31" transform="scale(0.996264)"/>
       <use xlink:href="#URWPalladioL-Roma-33" transform="translate(49.8132 0)scale(0.996264)"/>
      </g>
     </g>
    </g>
    <g id="xtick_20">
     <g id="line2d_54">
      <path d="M 350.765871 171.861659 
L 350.765871 92.531069 
" clip-path="url(#p08a6712c8c)" style="fill: none; stroke: #000000; stroke-opacity: 0.2; stroke-width: 0.5; stroke-linecap: round"/>
     </g>
     <g id="line2d_55">
      <g>
       <use xlink:href="#mdce9bd13dd" x="350.765871" y="171.861659" style="fill-opacity: 0.2; stroke: #000000; stroke-opacity: 0.2; stroke-width: 0.5"/>
      </g>
     </g>
     <g id="text_13">
      <!-- $\mathdefault{15}$ -->
      <g transform="translate(343.792023 197.341188)scale(0.14 -0.14)">
       <use xlink:href="#URWPalladioL-Roma-31" transform="scale(0.996264)"/>
       <use xlink:href="#URWPalladioL-Roma-35" transform="translate(49.8132 0)scale(0.996264)"/>
      </g>
     </g>
    </g>
    <g id="xtick_21">
     <g id="line2d_56">
      <path d="M 388.495772 171.861659 
L 388.495772 92.531069 
" clip-path="url(#p08a6712c8c)" style="fill: none; stroke: #000000; stroke-opacity: 0.2; stroke-width: 0.5; stroke-linecap: round"/>
     </g>
     <g id="line2d_57">
      <g>
       <use xlink:href="#mdce9bd13dd" x="388.495772" y="171.861659" style="fill-opacity: 0.2; stroke: #000000; stroke-opacity: 0.2; stroke-width: 0.5"/>
      </g>
     </g>
     <g id="text_14">
      <!-- $\mathdefault{17}$ -->
      <g transform="translate(381.521924 197.341188)scale(0.14 -0.14)">
       <use xlink:href="#URWPalladioL-Roma-31" transform="scale(0.996264)"/>
       <use xlink:href="#URWPalladioL-Roma-37" transform="translate(49.8132 0)scale(0.996264)"/>
      </g>
     </g>
    </g>
    <g id="xtick_22">
     <g id="line2d_58">
      <path d="M 426.225672 171.861659 
L 426.225672 92.531069 
" clip-path="url(#p08a6712c8c)" style="fill: none; stroke: #000000; stroke-opacity: 0.2; stroke-width: 0.5; stroke-linecap: round"/>
     </g>
     <g id="line2d_59">
      <g>
       <use xlink:href="#mdce9bd13dd" x="426.225672" y="171.861659" style="fill-opacity: 0.2; stroke: #000000; stroke-opacity: 0.2; stroke-width: 0.5"/>
      </g>
     </g>
     <g id="text_15">
      <!-- $\mathdefault{19}$ -->
      <g transform="translate(419.251824 197.341188)scale(0.14 -0.14)">
       <use xlink:href="#URWPalladioL-Roma-31" transform="scale(0.996264)"/>
       <use xlink:href="#URWPalladioL-Roma-39" transform="translate(49.8132 0)scale(0.996264)"/>
      </g>
     </g>
    </g>
    <g id="text_16">
     <!-- $n~\rightarrow$ -->
     <g transform="translate(234.152202 213.828236)scale(0.12 -0.12)">
      <defs>
       <path id="CMSY10-21" d="M 5338 1472 
C 4986 1203 4813 940 4762 857 
C 4474 415 4422 12 4422 6 
C 4422 -71 4499 -71 4550 -71 
C 4659 -71 4666 -58 4691 57 
C 4838 684 5216 1222 5939 1516 
C 6016 1542 6035 1555 6035 1600 
C 6035 1644 5997 1664 5984 1670 
C 5702 1779 4928 2099 4685 3174 
C 4666 3251 4659 3270 4550 3270 
C 4499 3270 4422 3270 4422 3193 
C 4422 3180 4480 2777 4749 2348 
C 4877 2156 5062 1932 5338 1728 
L 582 1728 
C 467 1728 352 1728 352 1600 
C 352 1472 467 1472 582 1472 
L 5338 1472 
z
" transform="scale(0.015625)"/>
      </defs>
      <use xlink:href="#URWPalladioL-Ital-6e" transform="scale(0.996264)"/>
      <use xlink:href="#CMSY10-21" transform="translate(110.463493 0)scale(1.038107)"/>
     </g>
    </g>
   </g>
   <g id="matplotlib.axis_4">
    <g id="ytick_4">
     <g id="line2d_60">
      <path d="M 67.791619 156.382519 
L 426.225672 156.382519 
" clip-path="url(#p08a6712c8c)" style="fill: none; stroke: #000000; stroke-opacity: 0.2; stroke-width: 0.5; stroke-linecap: round"/>
     </g>
     <g id="line2d_61">
      <g>
       <use xlink:href="#ma5b5dc497f" x="67.791619" y="156.382519" style="fill-opacity: 0.2; stroke: #000000; stroke-opacity: 0.2; stroke-width: 0.5"/>
      </g>
     </g>
     <g id="text_17">
      <!-- $\mathdefault{−2.5}$ -->
      <g transform="translate(23.385156 161.372284)scale(0.14 -0.14)">
       <use xlink:href="#CMSY10-0" transform="scale(1.038107)"/>
       <use xlink:href="#URWPalladioL-Roma-32" transform="translate(81.941696 0)scale(0.996264)"/>
       <use xlink:href="#URWPalladioL-Roma-2e" transform="translate(131.754897 0)scale(0.996264)"/>
       <use xlink:href="#URWPalladioL-Roma-35" transform="translate(156.661497 0)scale(0.996264)"/>
      </g>
     </g>
    </g>
    <g id="ytick_5">
     <g id="line2d_62">
      <path d="M 67.791619 132.196364 
L 426.225672 132.196364 
" clip-path="url(#p08a6712c8c)" style="fill: none; stroke: #000000; stroke-opacity: 0.2; stroke-width: 0.5; stroke-linecap: round"/>
     </g>
     <g id="line2d_63">
      <g>
       <use xlink:href="#ma5b5dc497f" x="67.791619" y="132.196364" style="fill-opacity: 0.2; stroke: #000000; stroke-opacity: 0.2; stroke-width: 0.5"/>
      </g>
     </g>
     <g id="text_18">
      <!-- $\mathdefault{0.0}$ -->
      <g transform="translate(34.856999 137.186129)scale(0.14 -0.14)">
       <use xlink:href="#URWPalladioL-Roma-30" transform="scale(0.996264)"/>
       <use xlink:href="#URWPalladioL-Roma-2e" transform="translate(49.8132 0)scale(0.996264)"/>
       <use xlink:href="#URWPalladioL-Roma-30" transform="translate(74.719801 0)scale(0.996264)"/>
      </g>
     </g>
    </g>
    <g id="ytick_6">
     <g id="line2d_64">
      <path d="M 67.791619 108.010209 
L 426.225672 108.010209 
" clip-path="url(#p08a6712c8c)" style="fill: none; stroke: #000000; stroke-opacity: 0.2; stroke-width: 0.5; stroke-linecap: round"/>
     </g>
     <g id="line2d_65">
      <g>
       <use xlink:href="#ma5b5dc497f" x="67.791619" y="108.010209" style="fill-opacity: 0.2; stroke: #000000; stroke-opacity: 0.2; stroke-width: 0.5"/>
      </g>
     </g>
     <g id="text_19">
      <!-- $\mathdefault{2.5}$ -->
      <g transform="translate(34.856999 112.999973)scale(0.14 -0.14)">
       <use xlink:href="#URWPalladioL-Roma-32" transform="scale(0.996264)"/>
       <use xlink:href="#URWPalladioL-Roma-2e" transform="translate(49.8132 0)scale(0.996264)"/>
       <use xlink:href="#URWPalladioL-Roma-35" transform="translate(74.719801 0)scale(0.996264)"/>
      </g>
     </g>
    </g>
    <g id="text_20">
     <!-- $z^n$ (imaginary part) -->
     <g transform="translate(16.013872 182.861358)rotate(-90)scale(0.12 -0.12)">
      <defs>
       <path id="URWPalladioL-Roma-69" d="M 1203 2982 
L 1146 3008 
C 819 2873 486 2784 147 2746 
L 147 2568 
L 384 2568 
C 640 2568 666 2523 666 2103 
L 666 669 
C 666 268 646 223 429 211 
L 134 192 
L 134 0 
C 774 0 774 0 934 0 
C 1094 19 1094 19 1734 0 
L 1734 192 
L 1440 211 
C 1222 224 1203 268 1203 671 
L 1203 2982 
z
M 909 4416 
C 717 4416 550 4249 550 4057 
C 550 3871 717 3705 902 3705 
C 1088 3705 1261 3871 1261 4057 
C 1261 4236 1088 4416 909 4416 
z
" transform="scale(0.015625)"/>
       <path id="URWPalladioL-Roma-6d" d="M 115 2579 
L 352 2579 
C 608 2579 634 2534 634 2112 
L 634 672 
C 634 268 614 224 397 211 
L 102 192 
L 102 0 
C 717 0 736 0 915 0 
C 1094 19 1261 12 1677 0 
L 1677 192 
L 1408 211 
C 1190 223 1171 268 1171 670 
L 1171 2023 
C 1171 2311 1594 2624 1978 2624 
C 2323 2624 2560 2298 2560 1813 
L 2560 670 
C 2560 268 2541 223 2323 211 
L 2029 192 
L 2029 0 
C 2669 0 2669 0 2829 0 
C 2989 19 2989 19 3629 0 
L 3629 192 
L 3334 211 
C 3117 223 3098 268 3098 670 
L 3098 2023 
C 3098 2311 3520 2624 3904 2624 
C 4250 2624 4486 2298 4486 1813 
L 4486 0 
C 4877 0 4883 0 4992 0 
C 5075 19 5075 19 5562 0 
L 5562 192 
L 5261 211 
C 5043 223 5024 268 5024 670 
L 5024 1985 
C 5024 2617 4653 3014 4064 3014 
C 3840 3014 3654 2956 3539 2854 
L 3053 2419 
C 2848 2841 2586 3014 2144 3014 
C 1907 3014 1728 2956 1613 2854 
L 1171 2445 
L 1171 2988 
L 1114 3008 
C 787 2873 454 2783 115 2745 
L 115 2579 
z
" transform="scale(0.015625)"/>
       <path id="URWPalladioL-Roma-67" d="M 3322 2452 
L 3482 2713 
L 3456 2790 
L 2547 2764 
C 2310 2956 2080 3033 1766 3033 
C 1485 3033 1158 2944 896 2790 
C 538 2586 352 2274 352 1885 
C 352 1413 646 1087 1120 1036 
L 614 638 
C 550 540 518 455 518 358 
C 518 179 634 76 941 -13 
L 384 -315 
C 294 -367 205 -604 205 -804 
C 205 -1388 774 -1792 1587 -1792 
C 2554 -1792 3315 -1183 3315 -399 
C 3315 64 3008 384 2560 384 
L 1536 384 
C 1203 384 1050 462 1050 638 
C 1050 723 1101 795 1267 939 
C 1306 972 1318 985 1344 1011 
C 1408 1004 1446 998 1498 998 
C 1773 998 2112 1119 2374 1305 
C 2662 1515 2803 1770 2803 2108 
C 2803 2235 2784 2318 2733 2452 
L 3322 2452 
z
M 1536 2816 
C 1971 2816 2266 2458 2266 1917 
C 2266 1502 1997 1216 1606 1216 
C 1178 1216 890 1547 890 2038 
C 890 2529 1126 2816 1536 2816 
z
M 1837 -64 
C 2560 -64 2810 -212 2810 -630 
C 2810 -1183 2304 -1594 1632 -1594 
C 1075 -1594 691 -1266 691 -791 
C 691 -502 858 -238 1114 -129 
C 1216 -77 1395 -64 1837 -64 
z
" transform="scale(0.015625)"/>
       <path id="URWPalladioL-Roma-6e" d="M 2624 0 
C 3014 0 3021 0 3130 0 
C 3219 19 3219 19 3661 0 
L 3661 192 
L 3398 211 
C 3181 223 3162 262 3162 670 
L 3162 1902 
C 3162 2649 2810 3014 2093 3014 
C 1856 3014 1722 2969 1587 2854 
L 1101 2432 
L 1101 2988 
L 1043 3008 
C 717 2873 384 2784 45 2746 
L 45 2568 
L 282 2568 
C 538 2568 563 2523 563 2103 
L 563 669 
C 563 268 544 223 326 211 
L 38 192 
L 38 0 
C 474 -7 646 0 832 0 
C 1018 19 1190 12 1626 0 
L 1626 192 
L 1338 211 
C 1120 223 1101 268 1101 670 
L 1101 2023 
C 1101 2311 1523 2624 1914 2624 
C 2342 2624 2624 2304 2624 1813 
L 2624 0 
z
" transform="scale(0.015625)"/>
       <path id="URWPalladioL-Roma-79" d="M 1901 569 
C 1760 812 1690 960 1574 1273 
L 1165 2349 
C 1126 2457 1101 2553 1101 2617 
C 1101 2707 1171 2758 1318 2765 
L 1562 2777 
L 1562 2957 
C 941 2937 941 2937 819 2937 
C 698 2937 698 2937 77 2957 
L 77 2777 
L 192 2765 
C 352 2745 429 2675 525 2451 
L 1222 774 
C 1402 339 1466 185 1581 -135 
L 1434 -525 
C 1229 -1063 979 -1364 736 -1364 
C 634 -1364 518 -1312 410 -1216 
L 326 -1216 
L 173 -1696 
C 294 -1760 397 -1792 518 -1792 
C 947 -1792 1222 -1562 1466 -1005 
L 2765 1990 
C 3021 2573 3142 2745 3302 2765 
L 3482 2777 
L 3482 2957 
C 2976 2937 2976 2937 2874 2937 
C 2771 2937 2771 2937 2266 2957 
L 2266 2777 
L 2432 2765 
C 2611 2752 2701 2694 2701 2605 
C 2701 2560 2688 2502 2662 2438 
L 1901 569 
z
" transform="scale(0.015625)"/>
      </defs>
      <use xlink:href="#URWPalladioL-Ital-7a" transform="scale(0.996264)"/>
      <use xlink:href="#URWPalladioL-Ital-6e" transform="translate(46.425879 36.164371)scale(0.757155)"/>
      <use xlink:href="#URWPalladioL-Roma-28" transform="translate(114.874929 0)scale(0.996264)"/>
      <use xlink:href="#URWPalladioL-Roma-69" transform="translate(148.050159 0)scale(0.996264)"/>
      <use xlink:href="#URWPalladioL-Roma-6d" transform="translate(177.04052 0)scale(0.996264)"/>
      <use xlink:href="#URWPalladioL-Roma-61" transform="translate(265.010194 0)scale(0.996264)"/>
      <use xlink:href="#URWPalladioL-Roma-67" transform="translate(314.823395 0)scale(0.996264)"/>
      <use xlink:href="#URWPalladioL-Roma-69" transform="translate(370.215072 0)scale(0.996264)"/>
      <use xlink:href="#URWPalladioL-Roma-6e" transform="translate(399.205433 0)scale(0.996264)"/>
      <use xlink:href="#URWPalladioL-Roma-61" transform="translate(457.187494 0)scale(0.996264)"/>
      <use xlink:href="#URWPalladioL-Roma-72" transform="translate(507.000694 0)scale(0.996264)"/>
      <use xlink:href="#URWPalladioL-Roma-79" transform="translate(546.352591 0)scale(0.996264)"/>
      <use xlink:href="#URWPalladioL-Roma-70" transform="translate(626.650868 0)scale(0.996264)"/>
      <use xlink:href="#URWPalladioL-Roma-61" transform="translate(686.525262 0)scale(0.996264)"/>
      <use xlink:href="#URWPalladioL-Roma-72" transform="translate(736.338462 0)scale(0.996264)"/>
      <use xlink:href="#URWPalladioL-Roma-74" transform="translate(775.690359 0)scale(0.996264)"/>
      <use xlink:href="#URWPalladioL-Roma-29" transform="translate(808.167446 0)scale(0.996264)"/>
     </g>
    </g>
   </g>
   <g id="line2d_66">
    <path d="M 67.791619 132.196364 
L 86.656569 126.039574 
L 105.521519 140.032678 
L 124.386469 127.209364 
L 143.251419 132.196364 
L 162.11637 136.235834 
L 180.98132 127.054958 
L 199.84627 135.468335 
L 218.71122 132.196364 
L 237.57617 129.546068 
L 256.44112 135.56964 
L 275.306071 130.049624 
L 294.171021 132.196364 
L 313.035971 133.935223 
L 331.900921 129.983157 
L 350.765871 133.60484 
L 369.630821 132.196364 
L 388.495772 131.055498 
L 407.360722 133.648449 
L 426.225672 131.272263 
" clip-path="url(#p08a6712c8c)" style="fill: none"/>
    <g clip-path="url(#p08a6712c8c)">
     <use xlink:href="#m5382199f22" x="67.791619" y="132.196364" style="fill: #0271ae; stroke: #fefefa; stroke-width: 1.5"/>
     <use xlink:href="#m5382199f22" x="86.656569" y="126.039574" style="fill: #0271ae; stroke: #fefefa; stroke-width: 1.5"/>
     <use xlink:href="#m5382199f22" x="105.521519" y="140.032678" style="fill: #0271ae; stroke: #fefefa; stroke-width: 1.5"/>
     <use xlink:href="#m5382199f22" x="124.386469" y="127.209364" style="fill: #0271ae; stroke: #fefefa; stroke-width: 1.5"/>
     <use xlink:href="#m5382199f22" x="143.251419" y="132.196364" style="fill: #0271ae; stroke: #fefefa; stroke-width: 1.5"/>
     <use xlink:href="#m5382199f22" x="162.11637" y="136.235834" style="fill: #0271ae; stroke: #fefefa; stroke-width: 1.5"/>
     <use xlink:href="#m5382199f22" x="180.98132" y="127.054958" style="fill: #0271ae; stroke: #fefefa; stroke-width: 1.5"/>
     <use xlink:href="#m5382199f22" x="199.84627" y="135.468335" style="fill: #0271ae; stroke: #fefefa; stroke-width: 1.5"/>
     <use xlink:href="#m5382199f22" x="218.71122" y="132.196364" style="fill: #0271ae; stroke: #fefefa; stroke-width: 1.5"/>
     <use xlink:href="#m5382199f22" x="237.57617" y="129.546068" style="fill: #0271ae; stroke: #fefefa; stroke-width: 1.5"/>
     <use xlink:href="#m5382199f22" x="256.44112" y="135.56964" style="fill: #0271ae; stroke: #fefefa; stroke-width: 1.5"/>
     <use xlink:href="#m5382199f22" x="275.306071" y="130.049624" style="fill: #0271ae; stroke: #fefefa; stroke-width: 1.5"/>
     <use xlink:href="#m5382199f22" x="294.171021" y="132.196364" style="fill: #0271ae; stroke: #fefefa; stroke-width: 1.5"/>
     <use xlink:href="#m5382199f22" x="313.035971" y="133.935223" style="fill: #0271ae; stroke: #fefefa; stroke-width: 1.5"/>
     <use xlink:href="#m5382199f22" x="331.900921" y="129.983157" style="fill: #0271ae; stroke: #fefefa; stroke-width: 1.5"/>
     <use xlink:href="#m5382199f22" x="350.765871" y="133.60484" style="fill: #0271ae; stroke: #fefefa; stroke-width: 1.5"/>
     <use xlink:href="#m5382199f22" x="369.630821" y="132.196364" style="fill: #0271ae; stroke: #fefefa; stroke-width: 1.5"/>
     <use xlink:href="#m5382199f22" x="388.495772" y="131.055498" style="fill: #0271ae; stroke: #fefefa; stroke-width: 1.5"/>
     <use xlink:href="#m5382199f22" x="407.360722" y="133.648449" style="fill: #0271ae; stroke: #fefefa; stroke-width: 1.5"/>
     <use xlink:href="#m5382199f22" x="426.225672" y="131.272263" style="fill: #0271ae; stroke: #fefefa; stroke-width: 1.5"/>
    </g>
   </g>
   <g id="line2d_67">
    <path d="M 67.791619 132.196364 
L 86.656569 137.517318 
L 105.521519 142.334143 
L 124.386469 145.073073 
L 143.251419 144.463077 
L 162.11637 139.986773 
L 180.98132 132.196364 
L 199.84627 122.769969 
L 218.71122 114.23667 
L 237.57617 109.384488 
L 256.44112 110.465134 
L 275.306071 118.395179 
L 294.171021 132.196364 
L 313.035971 148.895797 
L 331.900921 164.013058 
L 350.765871 172.608993 
L 369.630821 170.694564 
L 388.495772 156.646005 
L 407.360722 132.196364 
L 426.225672 102.612299 
" clip-path="url(#p08a6712c8c)" style="fill: none"/>
    <g clip-path="url(#p08a6712c8c)">
     <use xlink:href="#m1b46017312" x="67.791619" y="132.196364" style="fill: #dc2830; stroke: #fefefa; stroke-width: 1.5"/>
     <use xlink:href="#m1b46017312" x="86.656569" y="137.517318" style="fill: #dc2830; stroke: #fefefa; stroke-width: 1.5"/>
     <use xlink:href="#m1b46017312" x="105.521519" y="142.334143" style="fill: #dc2830; stroke: #fefefa; stroke-width: 1.5"/>
     <use xlink:href="#m1b46017312" x="124.386469" y="145.073073" style="fill: #dc2830; stroke: #fefefa; stroke-width: 1.5"/>
     <use xlink:href="#m1b46017312" x="143.251419" y="144.463077" style="fill: #dc2830; stroke: #fefefa; stroke-width: 1.5"/>
     <use xlink:href="#m1b46017312" x="162.11637" y="139.986773" style="fill: #dc2830; stroke: #fefefa; stroke-width: 1.5"/>
     <use xlink:href="#m1b46017312" x="180.98132" y="132.196364" style="fill: #dc2830; stroke: #fefefa; stroke-width: 1.5"/>
     <use xlink:href="#m1b46017312" x="199.84627" y="122.769969" style="fill: #dc2830; stroke: #fefefa; stroke-width: 1.5"/>
     <use xlink:href="#m1b46017312" x="218.71122" y="114.23667" style="fill: #dc2830; stroke: #fefefa; stroke-width: 1.5"/>
     <use xlink:href="#m1b46017312" x="237.57617" y="109.384488" style="fill: #dc2830; stroke: #fefefa; stroke-width: 1.5"/>
     <use xlink:href="#m1b46017312" x="256.44112" y="110.465134" style="fill: #dc2830; stroke: #fefefa; stroke-width: 1.5"/>
     <use xlink:href="#m1b46017312" x="275.306071" y="118.395179" style="fill: #dc2830; stroke: #fefefa; stroke-width: 1.5"/>
     <use xlink:href="#m1b46017312" x="294.171021" y="132.196364" style="fill: #dc2830; stroke: #fefefa; stroke-width: 1.5"/>
     <use xlink:href="#m1b46017312" x="313.035971" y="148.895797" style="fill: #dc2830; stroke: #fefefa; stroke-width: 1.5"/>
     <use xlink:href="#m1b46017312" x="331.900921" y="164.013058" style="fill: #dc2830; stroke: #fefefa; stroke-width: 1.5"/>
     <use xlink:href="#m1b46017312" x="350.765871" y="172.608993" style="fill: #dc2830; stroke: #fefefa; stroke-width: 1.5"/>
     <use xlink:href="#m1b46017312" x="369.630821" y="170.694564" style="fill: #dc2830; stroke: #fefefa; stroke-width: 1.5"/>
     <use xlink:href="#m1b46017312" x="388.495772" y="156.646005" style="fill: #dc2830; stroke: #fefefa; stroke-width: 1.5"/>
     <use xlink:href="#m1b46017312" x="407.360722" y="132.196364" style="fill: #dc2830; stroke: #fefefa; stroke-width: 1.5"/>
     <use xlink:href="#m1b46017312" x="426.225672" y="102.612299" style="fill: #dc2830; stroke: #fefefa; stroke-width: 1.5"/>
    </g>
   </g>
   <g id="line2d_68">
    <path d="M 67.791619 132.196364 
L 86.656569 123.818034 
L 105.521519 123.818034 
L 124.386469 132.196364 
L 143.251419 140.574694 
L 162.11637 140.574694 
L 180.98132 132.196364 
L 199.84627 123.818034 
L 218.71122 123.818034 
L 237.57617 132.196364 
L 256.44112 140.574694 
L 275.306071 140.574694 
L 294.171021 132.196364 
L 313.035971 123.818034 
L 331.900921 123.818034 
L 350.765871 132.196364 
L 369.630821 140.574694 
L 388.495772 140.574694 
L 407.360722 132.196364 
L 426.225672 123.818034 
" clip-path="url(#p08a6712c8c)" style="fill: none"/>
    <g clip-path="url(#p08a6712c8c)">
     <use xlink:href="#m62c39f09aa" x="67.791619" y="132.196364" style="fill: #f2aa00; stroke: #fefefa; stroke-width: 1.5"/>
     <use xlink:href="#m62c39f09aa" x="86.656569" y="123.818034" style="fill: #f2aa00; stroke: #fefefa; stroke-width: 1.5"/>
     <use xlink:href="#m62c39f09aa" x="105.521519" y="123.818034" style="fill: #f2aa00; stroke: #fefefa; stroke-width: 1.5"/>
     <use xlink:href="#m62c39f09aa" x="124.386469" y="132.196364" style="fill: #f2aa00; stroke: #fefefa; stroke-width: 1.5"/>
     <use xlink:href="#m62c39f09aa" x="143.251419" y="140.574694" style="fill: #f2aa00; stroke: #fefefa; stroke-width: 1.5"/>
     <use xlink:href="#m62c39f09aa" x="162.11637" y="140.574694" style="fill: #f2aa00; stroke: #fefefa; stroke-width: 1.5"/>
     <use xlink:href="#m62c39f09aa" x="180.98132" y="132.196364" style="fill: #f2aa00; stroke: #fefefa; stroke-width: 1.5"/>
     <use xlink:href="#m62c39f09aa" x="199.84627" y="123.818034" style="fill: #f2aa00; stroke: #fefefa; stroke-width: 1.5"/>
     <use xlink:href="#m62c39f09aa" x="218.71122" y="123.818034" style="fill: #f2aa00; stroke: #fefefa; stroke-width: 1.5"/>
     <use xlink:href="#m62c39f09aa" x="237.57617" y="132.196364" style="fill: #f2aa00; stroke: #fefefa; stroke-width: 1.5"/>
     <use xlink:href="#m62c39f09aa" x="256.44112" y="140.574694" style="fill: #f2aa00; stroke: #fefefa; stroke-width: 1.5"/>
     <use xlink:href="#m62c39f09aa" x="275.306071" y="140.574694" style="fill: #f2aa00; stroke: #fefefa; stroke-width: 1.5"/>
     <use xlink:href="#m62c39f09aa" x="294.171021" y="132.196364" style="fill: #f2aa00; stroke: #fefefa; stroke-width: 1.5"/>
     <use xlink:href="#m62c39f09aa" x="313.035971" y="123.818034" style="fill: #f2aa00; stroke: #fefefa; stroke-width: 1.5"/>
     <use xlink:href="#m62c39f09aa" x="331.900921" y="123.818034" style="fill: #f2aa00; stroke: #fefefa; stroke-width: 1.5"/>
     <use xlink:href="#m62c39f09aa" x="350.765871" y="132.196364" style="fill: #f2aa00; stroke: #fefefa; stroke-width: 1.5"/>
     <use xlink:href="#m62c39f09aa" x="369.630821" y="140.574694" style="fill: #f2aa00; stroke: #fefefa; stroke-width: 1.5"/>
     <use xlink:href="#m62c39f09aa" x="388.495772" y="140.574694" style="fill: #f2aa00; stroke: #fefefa; stroke-width: 1.5"/>
     <use xlink:href="#m62c39f09aa" x="407.360722" y="132.196364" style="fill: #f2aa00; stroke: #fefefa; stroke-width: 1.5"/>
     <use xlink:href="#m62c39f09aa" x="426.225672" y="123.818034" style="fill: #f2aa00; stroke: #fefefa; stroke-width: 1.5"/>
    </g>
   </g>
  </g>
  <g id="legend_1">
   <g id="patch_4">
    <path d="M 445.99976 124.068812 
L 590.271868 124.068812 
Q 593.071868 124.068812 593.071868 121.268812 
L 593.071868 59.930708 
Q 593.071868 57.130708 590.271868 57.130708 
L 445.99976 57.130708 
Q 443.19976 57.130708 443.19976 59.930708 
L 443.19976 121.268812 
Q 443.19976 124.068812 445.99976 124.068812 
z
" style="fill: #ffffff; opacity: 0.95; stroke: #cccccc; stroke-width: 0.5; stroke-linejoin: miter"/>
   </g>
   <g id="line2d_69">
    <path d="M 448.79976 67.810237 
L 455.79976 67.810237 
L 462.79976 67.810237 
" style="fill: none"/>
    <g>
     <use xlink:href="#m5382199f22" x="455.79976" y="67.810237" style="fill: #0271ae; stroke: #fefefa; stroke-width: 1.5"/>
    </g>
   </g>
   <g id="text_21">
    <!-- $r=0.9$, $\theta=3\pi/4$ -->
    <g style="fill: #0271ae" transform="translate(473.99976 72.710237)scale(0.14 -0.14)">
     <defs>
      <path id="URWPalladioL-Ital-72" d="M 2355 2323 
C 2374 2566 2406 2771 2458 3033 
C 2387 3065 2362 3072 2330 3072 
C 2131 3072 1933 2918 1702 2591 
L 1530 2342 
C 1280 1984 1203 1850 1101 1627 
L 1152 1889 
C 1178 2035 1229 2291 1267 2431 
L 1306 2598 
C 1331 2707 1344 2790 1344 2867 
C 1344 2995 1293 3072 1197 3072 
C 1062 3072 819 2937 346 2598 
L 166 2470 
L 211 2342 
L 416 2476 
C 595 2591 666 2623 723 2623 
C 787 2623 832 2566 832 2483 
C 832 2112 557 797 301 -20 
L 365 -64 
C 461 -32 563 -13 710 19 
L 794 32 
L 960 797 
C 1075 1327 1222 1665 1504 2029 
C 1722 2310 1894 2444 2035 2444 
C 2131 2444 2195 2412 2266 2323 
L 2355 2323 
z
" transform="scale(0.015625)"/>
      <path id="CMR10-3d" d="M 4397 2111 
C 4493 2111 4614 2111 4614 2239 
C 4614 2368 4493 2368 4403 2368 
L 570 2368 
C 480 2368 358 2368 358 2239 
C 358 2111 480 2111 576 2111 
L 4397 2111 
z
M 4403 832 
C 4493 832 4614 832 4614 960 
C 4614 1088 4493 1088 4397 1088 
L 576 1088 
C 480 1088 358 1088 358 960 
C 358 832 480 832 570 832 
L 4403 832 
z
" transform="scale(0.015625)"/>
      <path id="URWPalladioL-Roma-2c" d="M 1306 787 
C 1133 729 1018 691 678 595 
C 634 108 474 -308 102 -922 
L 192 -993 
L 454 -871 
C 973 -199 1216 204 1395 697 
L 1306 787 
z
" transform="scale(0.015625)"/>
      <path id="PazoMath-Italic-71" d="M 2029 4544 
C 1754 4544 1472 4409 1178 4122 
C 608 3580 186 2616 186 1442 
C 186 427 390 -64 928 -64 
C 1267 -64 1664 172 1965 555 
C 2400 1110 2797 2163 2797 3127 
C 2797 4013 2554 4544 2029 4544 
z
M 1478 2112 
C 1914 2112 2093 2092 2202 2041 
C 2061 1397 1824 823 1619 491 
C 1491 294 1318 179 1126 179 
C 742 179 672 670 672 1429 
C 672 1627 685 1831 717 2035 
C 851 2092 1024 2112 1478 2112 
z
M 1869 4300 
C 2272 4300 2310 3777 2310 2986 
C 2310 2808 2298 2623 2272 2444 
C 2144 2399 1946 2380 1523 2380 
C 1088 2380 902 2399 787 2444 
C 954 3197 1248 3886 1478 4154 
C 1568 4249 1715 4300 1869 4300 
z
" transform="scale(0.015625)"/>
      <path id="PazoMath-Italic-70" d="M 614 2255 
L 672 2299 
C 806 2681 1062 2700 1427 2700 
C 1504 2700 1619 2694 1754 2694 
C 1216 1242 973 803 454 -7 
L 512 -64 
L 986 102 
C 1216 599 1606 1567 1958 2688 
L 3149 2624 
C 3040 2232 2669 1089 2669 685 
C 2669 19 2912 -64 3110 -64 
C 3437 -64 3622 19 4026 356 
L 3974 476 
L 3821 369 
C 3840 382 3654 236 3546 236 
C 3245 236 3155 419 3155 811 
C 3155 969 3168 1139 3206 1323 
C 3315 1847 3424 2365 3482 2624 
C 3629 2624 3776 2630 3923 2649 
C 4038 2649 4179 2713 4282 2752 
C 4352 2905 4378 2918 4499 3072 
L 4454 3136 
C 4282 3075 3994 3008 3782 3008 
C 3706 3001 3546 2995 3386 2995 
C 2701 3020 1645 3072 1363 3072 
C 883 3072 710 2860 525 2306 
L 614 2255 
z
" transform="scale(0.015625)"/>
      <path id="URWPalladioL-Roma-2f" d="M 3322 4646 
L 2938 4646 
L 557 -762 
L 941 -762 
L 3322 4646 
z
" transform="scale(0.015625)"/>
      <path id="URWPalladioL-Roma-34" d="M 1792 1152 
L 1792 684 
C 1792 310 1722 223 1408 210 
L 1011 192 
L 1011 0 
C 1862 0 1862 0 2016 0 
C 2170 19 2170 19 3021 0 
L 3021 192 
L 2714 210 
C 2400 229 2330 310 2330 684 
L 2330 1152 
C 2707 1152 2842 1145 3021 1127 
L 3021 1580 
C 2720 1555 2598 1555 2502 1561 
L 2483 1561 
L 2330 1561 
L 2330 2445 
C 2330 3576 2342 4122 2374 4383 
L 2298 4416 
L 1824 4243 
L 13 1299 
L 83 1152 
L 1792 1152 
z
M 1792 1561 
L 416 1561 
L 1792 3798 
L 1792 1561 
z
" transform="scale(0.015625)"/>
     </defs>
     <use xlink:href="#URWPalladioL-Ital-72" transform="scale(0.996264)"/>
     <use xlink:href="#CMR10-3d" transform="translate(69.914533 0)scale(1.038107)"/>
     <use xlink:href="#URWPalladioL-Roma-30" transform="translate(179.530162 0)scale(0.996264)"/>
     <use xlink:href="#URWPalladioL-Roma-2e" transform="translate(229.343362 0)scale(0.996264)"/>
     <use xlink:href="#URWPalladioL-Roma-39" transform="translate(254.249962 0)scale(0.996264)"/>
     <use xlink:href="#URWPalladioL-Roma-2c" transform="translate(304.063163 0)scale(0.996264)"/>
     <use xlink:href="#PazoMath-Italic-71" transform="translate(355.121663 0)scale(0.996264)"/>
     <use xlink:href="#CMR10-3d" transform="translate(432.509118 0)scale(1.038107)"/>
     <use xlink:href="#URWPalladioL-Roma-33" transform="translate(542.124747 0)scale(0.996264)"/>
     <use xlink:href="#PazoMath-Italic-70" transform="translate(593.183247 0)scale(0.996264)"/>
     <use xlink:href="#URWPalladioL-Roma-2f" transform="translate(665.710176 0)scale(0.996264)"/>
     <use xlink:href="#URWPalladioL-Roma-34" transform="translate(727.32908 0)scale(0.996264)"/>
    </g>
   </g>
   <g id="line2d_70">
    <path d="M 448.79976 88.722938 
L 455.79976 88.722938 
L 462.79976 88.722938 
" style="fill: none"/>
    <g>
     <use xlink:href="#m1b46017312" x="455.79976" y="88.722938" style="fill: #dc2830; stroke: #fefefa; stroke-width: 1.5"/>
    </g>
   </g>
   <g id="text_22">
    <!-- $r=1.1$, $\theta=-\pi/6$ -->
    <g style="fill: #dc2830" transform="translate(473.99976 93.622938)scale(0.14 -0.14)">
     <defs>
      <path id="URWPalladioL-Roma-36" d="M 2662 4287 
L 2426 4396 
C 1811 4193 1549 4066 1222 3788 
C 563 3237 205 2463 205 1585 
C 205 526 717 -128 1542 -128 
C 2374 -128 2995 532 2995 1405 
C 2995 2143 2554 2624 1875 2624 
C 1555 2624 1363 2540 986 2239 
C 915 2182 909 2175 838 2124 
C 973 3275 1510 3895 2662 4237 
L 2662 4287 
z
M 1632 2239 
C 2118 2239 2445 1816 2445 1180 
C 2445 513 2118 83 1626 83 
C 1082 83 787 551 787 1411 
C 787 1636 813 1758 883 1867 
C 1024 2085 1325 2239 1632 2239 
z
" transform="scale(0.015625)"/>
     </defs>
     <use xlink:href="#URWPalladioL-Ital-72" transform="scale(0.996264)"/>
     <use xlink:href="#CMR10-3d" transform="translate(69.914533 0)scale(1.038107)"/>
     <use xlink:href="#URWPalladioL-Roma-31" transform="translate(179.530162 0)scale(0.996264)"/>
     <use xlink:href="#URWPalladioL-Roma-2e" transform="translate(229.343362 0)scale(0.996264)"/>
     <use xlink:href="#URWPalladioL-Roma-31" transform="translate(254.249962 0)scale(0.996264)"/>
     <use xlink:href="#URWPalladioL-Roma-2c" transform="translate(304.063163 0)scale(0.996264)"/>
     <use xlink:href="#PazoMath-Italic-71" transform="translate(355.121663 0)scale(0.996264)"/>
     <use xlink:href="#CMR10-3d" transform="translate(432.509118 0)scale(1.038107)"/>
     <use xlink:href="#CMSY10-0" transform="translate(543.370047 0)scale(1.038107)"/>
     <use xlink:href="#PazoMath-Italic-70" transform="translate(626.557043 0)scale(0.996264)"/>
     <use xlink:href="#URWPalladioL-Roma-2f" transform="translate(699.083971 0)scale(0.996264)"/>
     <use xlink:href="#URWPalladioL-Roma-36" transform="translate(760.702876 0)scale(0.996264)"/>
    </g>
   </g>
   <g id="line2d_71">
    <path d="M 448.79976 109.63564 
L 455.79976 109.63564 
L 462.79976 109.63564 
" style="fill: none"/>
    <g>
     <use xlink:href="#m62c39f09aa" x="455.79976" y="109.63564" style="fill: #f2aa00; stroke: #fefefa; stroke-width: 1.5"/>
    </g>
   </g>
   <g id="text_23">
    <!-- $r=1$, $\theta=\pi/3$ -->
    <g style="fill: #f2aa00" transform="translate(473.99976 114.53564)scale(0.14 -0.14)">
     <use xlink:href="#URWPalladioL-Ital-72" transform="scale(0.996264)"/>
     <use xlink:href="#CMR10-3d" transform="translate(69.914533 0)scale(1.038107)"/>
     <use xlink:href="#URWPalladioL-Roma-31" transform="translate(179.530162 0)scale(0.996264)"/>
     <use xlink:href="#URWPalladioL-Roma-2c" transform="translate(229.343362 0)scale(0.996264)"/>
     <use xlink:href="#PazoMath-Italic-71" transform="translate(280.401862 0)scale(0.996264)"/>
     <use xlink:href="#CMR10-3d" transform="translate(357.789317 0)scale(1.038107)"/>
     <use xlink:href="#PazoMath-Italic-70" transform="translate(468.650246 0)scale(0.996264)"/>
     <use xlink:href="#URWPalladioL-Roma-2f" transform="translate(541.177174 0)scale(0.996264)"/>
     <use xlink:href="#URWPalladioL-Roma-33" transform="translate(602.796079 0)scale(0.996264)"/>
    </g>
   </g>
  </g>
 </g>
 <defs>
  <clipPath id="p72ea60e097">
   <rect x="67.791619" y="7.2" width="358.434053" height="79.330589"/>
  </clipPath>
  <clipPath id="p08a6712c8c">
   <rect x="67.791619" y="92.531069" width="358.434053" height="79.330589"/>
  </clipPath>
 </defs>
</svg>