<?xml version="1.0" encoding="utf-8" standalone="no"?>
<!DOCTYPE svg PUBLIC "-//W3C//DTD SVG 1.1//EN"
  "http://www.w3.org/Graphics/SVG/1.1/DTD/svg11.dtd">
<svg xmlns:xlink="http://www.w3.org/1999/xlink" width="380.885924pt" height="224.39952pt" viewBox="0 0 380.885924 224.39952" xmlns="http://www.w3.org/2000/svg" version="1.1">
 <metadata>
  <rdf:RDF xmlns:dc="http://purl.org/dc/elements/1.1/" xmlns:cc="http://creativecommons.org/ns#" xmlns:rdf="http://www.w3.org/1999/02/22-rdf-syntax-ns#">
   <cc:Work>
    <dc:type rdf:resource="http://purl.org/dc/dcmitype/StillImage"/>
    <dc:date>2022-08-25T10:22:10.147300</dc:date>
    <dc:format>image/svg+xml</dc:format>
    <dc:creator>
     <cc:Agent>
      <dc:title>Matplotlib v3.5.2, https://matplotlib.org/</dc:title>
     </cc:Agent>
    </dc:creator>
   </cc:Work>
  </rdf:RDF>
 </metadata>
 <defs>
  <style type="text/css">*{stroke-linejoin: round; stroke-linecap: butt}</style>
 </defs>
 <g id="figure_1">
  <g id="patch_1">
   <path d="M 0 224.39952 
L 380.885924 224.39952 
L 380.885924 0 
L 0 0 
L 0 224.39952 
z
" style="fill: none"/>
  </g>
  <g id="axes_1">
   <g id="patch_2">
    <path d="M 77.690503 217.19952 
L 252.690103 217.19952 
L 252.690103 7.2 
L 77.690503 7.2 
L 77.690503 217.19952 
z
" style="fill: none"/>
   </g>
   <g id="matplotlib.axis_1"/>
   <g id="matplotlib.axis_2">
    <g id="ytick_1">
     <g id="line2d_1">
      <path d="M 77.690503 24.69996 
L 252.690103 24.69996 
" clip-path="url(#pb7e0203a72)" style="fill: none; stroke: #000000; stroke-opacity: 0.2; stroke-width: 0.5; stroke-linecap: round"/>
     </g>
     <g id="line2d_2">
      <defs>
       <path id="m2159448ee4" d="M 0 0 
L -3.5 0 
" style="stroke: #000000; stroke-opacity: 0.2; stroke-width: 0.5"/>
      </defs>
      <g>
       <use xlink:href="#m2159448ee4" x="77.690503" y="24.69996" style="fill-opacity: 0.2; stroke: #000000; stroke-opacity: 0.2; stroke-width: 0.5"/>
      </g>
     </g>
     <g id="text_1">
      <!-- 0 -->
      <g transform="translate(55.216654 29.689725)scale(0.14 -0.14)">
       <defs>
        <path id="URWPalladioL-Roma-30" d="M 1683 4416 
C 691 4416 186 3628 186 2076 
C 186 1326 320 679 544 365 
C 768 51 1126 -128 1523 -128 
C 2490 -128 2976 704 2976 2345 
C 2976 3749 2560 4416 1683 4416 
z
M 1568 4191 
C 2189 4191 2438 3563 2438 2025 
C 2438 660 2195 96 1606 96 
C 986 96 723 743 723 2307 
C 723 3660 960 4191 1568 4191 
z
" transform="scale(0.015625)"/>
       </defs>
       <use xlink:href="#URWPalladioL-Roma-30" transform="scale(0.996264)"/>
      </g>
     </g>
    </g>
    <g id="ytick_2">
     <g id="line2d_3">
      <path d="M 77.690503 59.69988 
L 252.690103 59.69988 
" clip-path="url(#pb7e0203a72)" style="fill: none; stroke: #000000; stroke-opacity: 0.2; stroke-width: 0.5; stroke-linecap: round"/>
     </g>
     <g id="line2d_4">
      <g>
       <use xlink:href="#m2159448ee4" x="77.690503" y="59.69988" style="fill-opacity: 0.2; stroke: #000000; stroke-opacity: 0.2; stroke-width: 0.5"/>
      </g>
     </g>
     <g id="text_2">
      <!-- 1 -->
      <g transform="translate(55.216654 64.689645)scale(0.14 -0.14)">
       <defs>
        <path id="URWPalladioL-Roma-31" d="M 429 3571 
L 493 3571 
L 1318 3942 
C 1325 3949 1331 3949 1338 3949 
C 1376 3949 1389 3891 1389 3737 
L 1389 633 
C 1389 300 1318 230 973 211 
L 614 192 
L 614 0 
C 1600 0 1600 0 1670 0 
C 1754 0 1894 0 2112 -7 
C 2189 6 2413 6 2675 0 
L 2675 192 
L 2342 211 
C 1990 229 1926 299 1926 628 
L 1926 4383 
L 1837 4416 
C 1421 4199 966 4009 384 3807 
L 429 3571 
z
" transform="scale(0.015625)"/>
       </defs>
       <use xlink:href="#URWPalladioL-Roma-31" transform="scale(0.996264)"/>
      </g>
     </g>
    </g>
    <g id="ytick_3">
     <g id="line2d_5">
      <path d="M 77.690503 94.6998 
L 252.690103 94.6998 
" clip-path="url(#pb7e0203a72)" style="fill: none; stroke: #000000; stroke-opacity: 0.2; stroke-width: 0.5; stroke-linecap: round"/>
     </g>
     <g id="line2d_6">
      <g>
       <use xlink:href="#m2159448ee4" x="77.690503" y="94.6998" style="fill-opacity: 0.2; stroke: #000000; stroke-opacity: 0.2; stroke-width: 0.5"/>
      </g>
     </g>
     <g id="text_3">
      <!-- 2 -->
      <g transform="translate(55.216654 99.689565)scale(0.14 -0.14)">
       <defs>
        <path id="URWPalladioL-Roma-32" d="M 102 166 
L 102 0 
C 1299 0 1299 0 1530 0 
C 1760 19 1760 19 2995 0 
C 2982 134 2982 198 2982 287 
C 2982 370 2982 434 2995 574 
C 2259 542 1965 536 781 510 
L 1946 1741 
C 2566 2398 2758 2749 2758 3228 
C 2758 3961 2259 4416 1446 4416 
C 986 4416 672 4287 358 3967 
L 250 3100 
L 435 3100 
L 518 3394 
C 621 3763 851 3923 1280 3923 
C 1830 3923 2182 3578 2182 3036 
C 2182 2558 1914 2086 1190 1320 
L 102 166 
z
" transform="scale(0.015625)"/>
       </defs>
       <use xlink:href="#URWPalladioL-Roma-32" transform="scale(0.996264)"/>
      </g>
     </g>
    </g>
    <g id="ytick_4">
     <g id="line2d_7">
      <path d="M 77.690503 129.69972 
L 252.690103 129.69972 
" clip-path="url(#pb7e0203a72)" style="fill: none; stroke: #000000; stroke-opacity: 0.2; stroke-width: 0.5; stroke-linecap: round"/>
     </g>
     <g id="line2d_8">
      <g>
       <use xlink:href="#m2159448ee4" x="77.690503" y="129.69972" style="fill-opacity: 0.2; stroke: #000000; stroke-opacity: 0.2; stroke-width: 0.5"/>
      </g>
     </g>
     <g id="text_4">
      <!-- $\dots$ -->
      <g transform="translate(46.383172 134.689485)scale(0.14 -0.14)">
       <defs>
        <path id="URWPalladioL-Roma-2e" d="M 794 678 
C 602 678 429 499 429 307 
C 429 115 602 -64 787 -64 
C 992 -64 1171 108 1171 307 
C 1171 499 992 678 794 678 
z
" transform="scale(0.015625)"/>
       </defs>
       <use xlink:href="#URWPalladioL-Roma-2e" transform="scale(0.996264)"/>
       <use xlink:href="#URWPalladioL-Roma-2e" transform="translate(44.001574 0)scale(0.996264)"/>
       <use xlink:href="#URWPalladioL-Roma-2e" transform="translate(88.003149 0)scale(0.996264)"/>
      </g>
     </g>
    </g>
    <g id="ytick_5">
     <g id="line2d_9">
      <path d="M 77.690503 164.69964 
L 252.690103 164.69964 
" clip-path="url(#pb7e0203a72)" style="fill: none; stroke: #000000; stroke-opacity: 0.2; stroke-width: 0.5; stroke-linecap: round"/>
     </g>
     <g id="line2d_10">
      <g>
       <use xlink:href="#m2159448ee4" x="77.690503" y="164.69964" style="fill-opacity: 0.2; stroke: #000000; stroke-opacity: 0.2; stroke-width: 0.5"/>
      </g>
     </g>
     <g id="text_5">
      <!-- $\log_2 N$ -->
      <g transform="translate(23.12516 169.689405)scale(0.14 -0.14)">
       <defs>
        <path id="URWPalladioL-Roma-6c" d="M 147 4249 
L 506 4249 
C 621 4249 666 4179 666 3987 
L 666 672 
C 666 268 646 224 429 211 
L 134 192 
L 134 0 
C 774 0 774 0 934 0 
C 1094 19 1094 19 1734 0 
L 1734 192 
L 1440 211 
C 1222 224 1203 268 1203 672 
L 1203 4614 
L 1146 4665 
C 864 4557 653 4505 147 4429 
L 147 4249 
z
" transform="scale(0.015625)"/>
        <path id="URWPalladioL-Roma-6f" d="M 1786 3008 
C 851 3008 205 2347 205 1391 
C 205 487 774 -128 1600 -128 
C 2586 -128 3290 557 3290 1520 
C 3290 2386 2662 3008 1786 3008 
z
M 1670 2796 
C 2259 2796 2694 2155 2694 1282 
C 2694 545 2368 83 1850 83 
C 1222 83 800 699 800 1609 
C 800 2379 1107 2796 1670 2796 
z
" transform="scale(0.015625)"/>
        <path id="URWPalladioL-Roma-67" d="M 3322 2452 
L 3482 2713 
L 3456 2790 
L 2547 2764 
C 2310 2956 2080 3033 1766 3033 
C 1485 3033 1158 2944 896 2790 
C 538 2586 352 2274 352 1885 
C 352 1413 646 1087 1120 1036 
L 614 638 
C 550 540 518 455 518 358 
C 518 179 634 76 941 -13 
L 384 -315 
C 294 -367 205 -604 205 -804 
C 205 -1388 774 -1792 1587 -1792 
C 2554 -1792 3315 -1183 3315 -399 
C 3315 64 3008 384 2560 384 
L 1536 384 
C 1203 384 1050 462 1050 638 
C 1050 723 1101 795 1267 939 
C 1306 972 1318 985 1344 1011 
C 1408 1004 1446 998 1498 998 
C 1773 998 2112 1119 2374 1305 
C 2662 1515 2803 1770 2803 2108 
C 2803 2235 2784 2318 2733 2452 
L 3322 2452 
z
M 1536 2816 
C 1971 2816 2266 2458 2266 1917 
C 2266 1502 1997 1216 1606 1216 
C 1178 1216 890 1547 890 2038 
C 890 2529 1126 2816 1536 2816 
z
M 1837 -64 
C 2560 -64 2810 -212 2810 -630 
C 2810 -1183 2304 -1594 1632 -1594 
C 1075 -1594 691 -1266 691 -791 
C 691 -502 858 -238 1114 -129 
C 1216 -77 1395 -64 1837 -64 
z
" transform="scale(0.015625)"/>
        <path id="URWPalladioL-Ital-4e" d="M 1517 4416 
L 998 4396 
L 934 4396 
L 845 4396 
C 826 4396 730 4403 582 4409 
L 480 4416 
L 448 4237 
L 672 4224 
C 781 4218 922 4173 992 4116 
C 1088 4040 1184 3919 1184 3869 
C 1184 3862 1184 3843 1178 3824 
C 1178 3818 1178 3805 1171 3792 
C 1165 3742 1158 3697 1152 3678 
L 589 667 
C 512 274 474 223 243 197 
L 45 178 
L 13 0 
L 723 19 
C 800 19 806 19 1427 0 
L 1459 178 
L 1190 197 
C 934 216 877 267 877 477 
C 877 528 883 598 896 667 
L 1408 3615 
L 3571 -64 
L 3891 -64 
L 4493 3459 
C 4627 4179 4640 4205 4877 4224 
L 5114 4237 
L 5146 4416 
L 5011 4416 
L 4442 4396 
L 3891 4416 
L 3770 4416 
L 3738 4237 
L 4038 4224 
C 4205 4217 4269 4173 4269 4071 
C 4269 4026 4250 3861 4237 3778 
L 3725 662 
L 1517 4416 
z
" transform="scale(0.015625)"/>
       </defs>
       <use xlink:href="#URWPalladioL-Roma-6c" transform="scale(0.996264)"/>
       <use xlink:href="#URWPalladioL-Roma-6f" transform="translate(28.990361 0)scale(0.996264)"/>
       <use xlink:href="#URWPalladioL-Roma-67" transform="translate(83.385942 0)scale(0.996264)"/>
       <use xlink:href="#URWPalladioL-Roma-32" transform="translate(138.777619 -31.879901)scale(0.757155)"/>
       <use xlink:href="#URWPalladioL-Ital-4e" transform="translate(198.470077 0)scale(0.996264)"/>
      </g>
     </g>
    </g>
    <g id="text_6">
     <!-- Level ($\ell$) -->
     <g transform="translate(15.753876 134.908342)rotate(-90)scale(0.12 -0.12)">
      <defs>
       <path id="URWPalladioL-Roma-4c" d="M 1382 3630 
C 1382 4134 1414 4185 1709 4204 
L 2016 4223 
L 2016 4416 
C 1549 4396 1408 4396 1075 4396 
C 755 4396 602 4403 141 4416 
L 141 4223 
L 448 4204 
C 742 4185 774 4134 774 3630 
L 774 606 
C 774 421 717 281 614 230 
L 416 128 
L 416 -20 
C 838 0 883 0 1050 0 
C 1107 0 1210 0 1350 -7 
C 1664 6 2362 0 2541 0 
C 2746 -20 2746 -20 3616 0 
C 3661 275 3686 480 3750 1100 
L 3546 1100 
L 3469 780 
C 3462 761 3456 716 3450 710 
C 3411 524 3366 396 3328 364 
C 3245 313 2688 268 1926 268 
C 1696 268 1549 281 1382 320 
L 1382 3630 
z
" transform="scale(0.015625)"/>
       <path id="URWPalladioL-Roma-65" d="M 2797 447 
L 2714 511 
C 2304 268 2157 211 1882 211 
C 1466 211 1120 396 941 710 
C 819 921 774 1100 762 1472 
L 1696 1472 
C 2138 1472 2413 1491 2854 1561 
C 2861 1651 2867 1708 2867 1786 
C 2867 2526 2394 3008 1677 3008 
C 1440 3008 1165 2924 902 2771 
C 378 2468 166 2069 166 1401 
C 166 998 262 652 435 409 
C 691 70 1120 -128 1600 -128 
C 1837 -128 2074 -77 2336 38 
C 2509 108 2643 192 2669 230 
L 2797 447 
z
M 2298 1708 
C 1965 1696 1811 1689 1581 1689 
C 1286 1689 1120 1696 774 1728 
C 774 2030 800 2172 883 2339 
C 1018 2623 1293 2796 1600 2796 
C 1811 2796 1978 2713 2093 2539 
C 2234 2326 2278 2140 2298 1708 
z
" transform="scale(0.015625)"/>
       <path id="URWPalladioL-Roma-76" d="M 3450 2739 
L 3450 2918 
C 3066 2905 2950 2899 2848 2899 
C 2746 2899 2630 2905 2246 2918 
L 2246 2739 
L 2509 2726 
C 2611 2720 2662 2662 2662 2560 
C 2662 2457 2618 2284 2541 2092 
L 2272 1414 
C 2195 1228 2118 1049 1875 518 
L 1114 2361 
C 1075 2451 1056 2534 1056 2604 
C 1056 2675 1114 2720 1216 2726 
L 1530 2739 
L 1530 2918 
C 902 2899 902 2899 781 2899 
C 659 2899 352 2905 38 2918 
L 38 2739 
L 256 2726 
C 352 2713 384 2675 454 2515 
L 1555 -64 
L 1875 -64 
C 1914 44 1978 211 1978 224 
C 2048 416 2131 633 2138 633 
L 2893 2297 
C 3034 2598 3123 2713 3251 2726 
L 3450 2739 
z
" transform="scale(0.015625)"/>
       <path id="URWPalladioL-Roma-28" d="M 1926 -1242 
C 1466 -673 1299 -365 1133 211 
C 998 672 934 1158 934 1702 
C 934 2233 998 2688 1120 3104 
C 1286 3635 1459 3936 1926 4480 
L 1805 4646 
C 1139 4051 877 3699 634 3072 
C 467 2643 384 2188 384 1702 
C 384 1017 544 371 851 -205 
C 1075 -634 1280 -884 1805 -1377 
L 1926 -1242 
z
" transform="scale(0.015625)"/>
       <path id="CMMI10-60" d="M 102 648 
C 90 629 70 610 70 584 
C 70 552 109 501 147 501 
C 179 501 198 520 378 700 
C 429 745 557 867 608 918 
C 672 411 858 -64 1325 -64 
C 1581 -64 1805 83 1939 179 
C 2029 243 2330 494 2330 558 
C 2330 578 2310 636 2253 636 
C 2234 636 2227 629 2170 578 
C 1760 173 1523 76 1338 76 
C 1050 76 947 411 947 912 
C 947 951 960 1246 979 1278 
C 992 1298 992 1311 1120 1439 
C 1638 1960 2547 3046 2547 4043 
C 2547 4152 2547 4544 2170 4544 
C 1638 4544 1165 3484 1101 3336 
C 794 2635 595 1883 595 1118 
L 102 648 
z
M 1011 1548 
C 1024 1619 1299 3046 1664 3799 
C 1837 4146 1971 4403 2176 4403 
C 2394 4403 2394 4171 2394 4069 
C 2394 2995 1318 1870 1011 1548 
z
" transform="scale(0.015625)"/>
       <path id="URWPalladioL-Roma-29" d="M 326 -1377 
C 768 -961 954 -749 1152 -436 
C 1542 185 1747 928 1747 1696 
C 1747 2188 1664 2643 1498 3072 
C 1254 3693 992 4045 326 4646 
L 205 4480 
C 672 3929 845 3629 1005 3104 
C 1133 2688 1197 2233 1197 1702 
C 1197 1158 1133 672 998 211 
C 832 -365 666 -673 205 -1242 
L 326 -1377 
z
" transform="scale(0.015625)"/>
      </defs>
      <use xlink:href="#URWPalladioL-Roma-4c" transform="scale(0.996264)"/>
      <use xlink:href="#URWPalladioL-Roma-65" transform="translate(60.871631 0)scale(0.996264)"/>
      <use xlink:href="#URWPalladioL-Roma-76" transform="translate(108.591926 0)scale(0.996264)"/>
      <use xlink:href="#URWPalladioL-Roma-65" transform="translate(164.879839 0)scale(0.996264)"/>
      <use xlink:href="#URWPalladioL-Roma-6c" transform="translate(212.600134 0)scale(0.996264)"/>
      <use xlink:href="#URWPalladioL-Roma-28" transform="translate(266.497096 0)scale(0.996264)"/>
      <use xlink:href="#CMMI10-60" transform="translate(300.917625 0)scale(1.038107)"/>
      <use xlink:href="#URWPalladioL-Roma-29" transform="translate(345.301235 0)scale(0.996264)"/>
     </g>
    </g>
   </g>
   <g id="BrokenBarHCollection_1">
    <defs>
     <path id="mfb822f38f5" d="M 77.690503 -215.449524 
L 77.690503 -183.949596 
L 252.690103 -183.949596 
L 252.690103 -215.449524 
L 77.690503 -215.449524 
z
" style="stroke: #0271ae; stroke-width: 0.5"/>
    </defs>
    <g clip-path="url(#pb7e0203a72)">
     <use xlink:href="#mfb822f38f5" x="0" y="224.39952" style="fill: #0271ae; stroke: #0271ae; stroke-width: 0.5"/>
    </g>
   </g>
   <g id="BrokenBarHCollection_2">
    <path d="M 77.690503 43.949916 
L 77.690503 75.449844 
L 164.315305 75.449844 
L 164.315305 43.949916 
L 77.690503 43.949916 
z
" clip-path="url(#pb7e0203a72)" style="fill: #0271ae; stroke: #0271ae; stroke-width: 0.5"/>
    <path d="M 166.065301 43.949916 
L 166.065301 75.449844 
L 252.690103 75.449844 
L 252.690103 43.949916 
L 166.065301 43.949916 
z
" clip-path="url(#pb7e0203a72)" style="fill: #0271ae; stroke: #0271ae; stroke-width: 0.5"/>
   </g>
   <g id="BrokenBarHCollection_3">
    <path d="M 77.690503 78.949836 
L 77.690503 110.449764 
L 120.565405 110.449764 
L 120.565405 78.949836 
L 77.690503 78.949836 
z
" clip-path="url(#pb7e0203a72)" style="fill: #0271ae; stroke: #0271ae; stroke-width: 0.5"/>
    <path d="M 121.440403 78.949836 
L 121.440403 110.449764 
L 164.315305 110.449764 
L 164.315305 78.949836 
L 121.440403 78.949836 
z
" clip-path="url(#pb7e0203a72)" style="fill: #0271ae; stroke: #0271ae; stroke-width: 0.5"/>
    <path d="M 166.065301 78.949836 
L 166.065301 110.449764 
L 208.940203 110.449764 
L 208.940203 78.949836 
L 166.065301 78.949836 
z
" clip-path="url(#pb7e0203a72)" style="fill: #0271ae; stroke: #0271ae; stroke-width: 0.5"/>
    <path d="M 209.815201 78.949836 
L 209.815201 110.449764 
L 252.690103 110.449764 
L 252.690103 78.949836 
L 209.815201 78.949836 
z
" clip-path="url(#pb7e0203a72)" style="fill: #0271ae; stroke: #0271ae; stroke-width: 0.5"/>
   </g>
   <g id="BrokenBarHCollection_4">
    <path d="M 77.690503 148.949676 
L 77.690503 180.449604 
L 95.190463 180.449604 
L 95.190463 148.949676 
L 77.690503 148.949676 
z
" clip-path="url(#pb7e0203a72)" style="fill: #dc2830; stroke: #dc2830; stroke-width: 0.5"/>
    <path d="M 96.940459 148.949676 
L 96.940459 180.449604 
L 114.440419 180.449604 
L 114.440419 148.949676 
L 96.940459 148.949676 
z
" clip-path="url(#pb7e0203a72)" style="fill: #dc2830; stroke: #dc2830; stroke-width: 0.5"/>
    <path d="M 116.190415 148.949676 
L 116.190415 180.449604 
L 133.690375 180.449604 
L 133.690375 148.949676 
L 116.190415 148.949676 
z
" clip-path="url(#pb7e0203a72)" style="fill: #dc2830; stroke: #dc2830; stroke-width: 0.5"/>
    <path d="M 235.190143 148.949676 
L 235.190143 180.449604 
L 252.690103 180.449604 
L 252.690103 148.949676 
L 235.190143 148.949676 
z
" clip-path="url(#pb7e0203a72)" style="fill: #dc2830; stroke: #dc2830; stroke-width: 0.5"/>
   </g>
   <g id="text_7">
    <!-- $d \cdot N$ -->
    <g style="fill: #ffffff" transform="translate(155.024088 26.859373)scale(0.1 -0.1)">
     <defs>
      <path id="URWPalladioL-Ital-64" d="M 3091 4608 
L 3014 4678 
C 2682 4512 2451 4454 1990 4409 
L 1965 4275 
L 2272 4275 
C 2426 4275 2490 4230 2490 4121 
C 2490 4070 2483 4012 2477 3968 
L 2298 2982 
C 2106 3039 1933 3072 1773 3072 
C 1331 3072 730 2612 435 2059 
C 237 1690 109 1087 109 553 
C 109 140 205 -64 390 -64 
C 563 -64 800 44 1018 216 
C 1363 496 1574 743 2003 1385 
L 1856 807 
C 1786 527 1754 324 1754 159 
C 1754 12 1811 -64 1920 -64 
C 2029 -64 2182 12 2400 172 
L 2918 555 
L 2854 676 
L 2573 479 
C 2483 415 2381 370 2323 370 
C 2272 370 2234 427 2234 517 
C 2234 568 2240 625 2285 811 
L 3091 4608 
z
M 2157 2234 
C 2042 1672 1728 1111 1331 734 
C 1107 523 851 370 730 370 
C 627 370 570 459 570 619 
C 570 1423 864 2419 1178 2662 
C 1261 2726 1382 2758 1555 2758 
C 1837 2758 2022 2720 2234 2611 
L 2157 2234 
z
" transform="scale(0.015625)"/>
      <path id="CMSY10-1" d="M 1229 1619 
C 1229 1804 1075 1958 890 1958 
C 704 1958 550 1804 550 1619 
C 550 1433 704 1280 890 1280 
C 1075 1280 1229 1433 1229 1619 
z
" transform="scale(0.015625)"/>
     </defs>
     <use xlink:href="#URWPalladioL-Ital-64" transform="scale(0.996264)"/>
     <use xlink:href="#CMSY10-1" transform="translate(71.675568 0)scale(1.038107)"/>
     <use xlink:href="#URWPalladioL-Ital-4e" transform="translate(125.816929 0)scale(0.996264)"/>
    </g>
   </g>
   <g id="text_8">
    <!-- $\Rightarrow d \cdot N$ -->
    <g transform="translate(261.440083 26.859373)scale(0.1 -0.1)">
     <defs>
      <path id="CMSY10-29" d="M 4646 2111 
C 4915 1872 5242 1699 5453 1600 
C 5222 1493 4909 1320 4646 1088 
L 582 1088 
C 474 1088 352 1088 352 960 
C 352 832 467 832 576 832 
L 4358 832 
C 4051 537 3718 -26 3718 -109 
C 3718 -180 3802 -180 3840 -180 
C 3891 -180 3936 -180 3962 -129 
C 4096 115 4275 454 4691 825 
C 5133 1221 5562 1400 5894 1500 
C 6003 1540 6010 1546 6022 1560 
C 6035 1566 6035 1586 6035 1600 
C 6035 1613 6035 1626 6029 1639 
L 6010 1653 
C 5997 1659 5990 1666 5869 1706 
C 5005 1972 4365 2560 4006 3244 
C 3936 3372 3930 3379 3840 3379 
C 3802 3379 3718 3379 3718 3308 
C 3718 3225 4045 2668 4358 2368 
L 576 2368 
C 467 2368 352 2368 352 2239 
C 352 2111 474 2111 582 2111 
L 4646 2111 
z
" transform="scale(0.015625)"/>
     </defs>
     <use xlink:href="#CMSY10-29" transform="scale(1.038107)"/>
     <use xlink:href="#URWPalladioL-Ital-64" transform="translate(133.97533 0)scale(0.996264)"/>
     <use xlink:href="#CMSY10-1" transform="translate(205.650898 0)scale(1.038107)"/>
     <use xlink:href="#URWPalladioL-Ital-4e" transform="translate(259.792259 0)scale(0.996264)"/>
    </g>
   </g>
   <g id="text_9">
    <!-- $d \cdot N/2$ -->
    <g style="fill: #ffffff" transform="translate(105.423584 61.859293)scale(0.1 -0.1)">
     <defs>
      <path id="URWPalladioL-Roma-2f" d="M 3322 4646 
L 2938 4646 
L 557 -762 
L 941 -762 
L 3322 4646 
z
" transform="scale(0.015625)"/>
     </defs>
     <use xlink:href="#URWPalladioL-Ital-64" transform="scale(0.996264)"/>
     <use xlink:href="#CMSY10-1" transform="translate(71.675568 0)scale(1.038107)"/>
     <use xlink:href="#URWPalladioL-Ital-4e" transform="translate(125.816929 0)scale(0.996264)"/>
     <use xlink:href="#URWPalladioL-Roma-2f" transform="translate(208.905387 0)scale(0.996264)"/>
     <use xlink:href="#URWPalladioL-Roma-32" transform="translate(270.524291 0)scale(0.996264)"/>
    </g>
   </g>
   <g id="text_10">
    <!-- $d \cdot N/2$ -->
    <g style="fill: #ffffff" transform="translate(192.923384 61.859293)scale(0.1 -0.1)">
     <use xlink:href="#URWPalladioL-Ital-64" transform="scale(0.996264)"/>
     <use xlink:href="#CMSY10-1" transform="translate(71.675568 0)scale(1.038107)"/>
     <use xlink:href="#URWPalladioL-Ital-4e" transform="translate(125.816929 0)scale(0.996264)"/>
     <use xlink:href="#URWPalladioL-Roma-2f" transform="translate(208.905387 0)scale(0.996264)"/>
     <use xlink:href="#URWPalladioL-Roma-32" transform="translate(270.524291 0)scale(0.996264)"/>
    </g>
   </g>
   <g id="text_11">
    <!-- $\Rightarrow 2 \cdot (d \cdot N/2) = d \cdot N$ -->
    <g transform="translate(261.440083 62.080996)scale(0.1 -0.1)">
     <defs>
      <path id="CMR10-28" d="M 2118 -1536 
C 2118 -1517 2118 -1504 2010 -1396 
C 1210 -589 1005 620 1005 1600 
C 1005 2713 1248 3827 2035 4627 
C 2118 4704 2118 4716 2118 4736 
C 2118 4780 2093 4800 2054 4800 
C 1990 4800 1414 4365 1037 3552 
C 710 2848 634 2137 634 1600 
C 634 1100 704 326 1056 -397 
C 1440 -1184 1990 -1600 2054 -1600 
C 2093 -1600 2118 -1581 2118 -1536 
z
" transform="scale(0.015625)"/>
      <path id="CMR10-29" d="M 1850 1600 
C 1850 2099 1779 2873 1427 3597 
C 1043 4384 493 4800 429 4800 
C 390 4800 365 4774 365 4736 
C 365 4716 365 4704 486 4589 
C 1114 3955 1478 2937 1478 1600 
C 1478 505 1242 -621 448 -1428 
C 365 -1504 365 -1517 365 -1536 
C 365 -1575 390 -1600 429 -1600 
C 493 -1600 1069 -1165 1446 -352 
C 1773 352 1850 1062 1850 1600 
z
" transform="scale(0.015625)"/>
      <path id="CMR10-3d" d="M 4397 2111 
C 4493 2111 4614 2111 4614 2239 
C 4614 2368 4493 2368 4403 2368 
L 570 2368 
C 480 2368 358 2368 358 2239 
C 358 2111 480 2111 576 2111 
L 4397 2111 
z
M 4403 832 
C 4493 832 4614 832 4614 960 
C 4614 1088 4493 1088 4397 1088 
L 576 1088 
C 480 1088 358 1088 358 960 
C 358 832 480 832 570 832 
L 4403 832 
z
" transform="scale(0.015625)"/>
     </defs>
     <use xlink:href="#CMSY10-29" transform="scale(1.038107)"/>
     <use xlink:href="#URWPalladioL-Roma-32" transform="translate(132.73003 0)scale(0.996264)"/>
     <use xlink:href="#CMSY10-1" transform="translate(203.160283 0)scale(1.038107)"/>
     <use xlink:href="#CMR10-28" transform="translate(253.814735 0)scale(1.038107)"/>
     <use xlink:href="#URWPalladioL-Ital-64" transform="translate(296.55444 0)scale(0.996264)"/>
     <use xlink:href="#CMSY10-1" transform="translate(368.230008 0)scale(1.038107)"/>
     <use xlink:href="#URWPalladioL-Ital-4e" transform="translate(422.371369 0)scale(0.996264)"/>
     <use xlink:href="#URWPalladioL-Roma-2f" transform="translate(505.459827 0)scale(0.996264)"/>
     <use xlink:href="#URWPalladioL-Roma-32" transform="translate(567.078731 0)scale(0.996264)"/>
     <use xlink:href="#CMR10-29" transform="translate(618.137231 0)scale(1.038107)"/>
     <use xlink:href="#CMR10-3d" transform="translate(688.550869 0)scale(1.038107)"/>
     <use xlink:href="#URWPalladioL-Ital-64" transform="translate(799.411797 0)scale(0.996264)"/>
     <use xlink:href="#CMSY10-1" transform="translate(871.087365 0)scale(1.038107)"/>
     <use xlink:href="#URWPalladioL-Ital-4e" transform="translate(925.228726 0)scale(0.996264)"/>
    </g>
   </g>
   <g id="text_12">
    <!-- $d \cdot N/4$ -->
    <g style="fill: #ffffff" transform="translate(83.548634 96.859213)scale(0.1 -0.1)">
     <defs>
      <path id="URWPalladioL-Roma-34" d="M 1792 1152 
L 1792 684 
C 1792 310 1722 223 1408 210 
L 1011 192 
L 1011 0 
C 1862 0 1862 0 2016 0 
C 2170 19 2170 19 3021 0 
L 3021 192 
L 2714 210 
C 2400 229 2330 310 2330 684 
L 2330 1152 
C 2707 1152 2842 1145 3021 1127 
L 3021 1580 
C 2720 1555 2598 1555 2502 1561 
L 2483 1561 
L 2330 1561 
L 2330 2445 
C 2330 3576 2342 4122 2374 4383 
L 2298 4416 
L 1824 4243 
L 13 1299 
L 83 1152 
L 1792 1152 
z
M 1792 1561 
L 416 1561 
L 1792 3798 
L 1792 1561 
z
" transform="scale(0.015625)"/>
     </defs>
     <use xlink:href="#URWPalladioL-Ital-64" transform="scale(0.996264)"/>
     <use xlink:href="#CMSY10-1" transform="translate(71.675568 0)scale(1.038107)"/>
     <use xlink:href="#URWPalladioL-Ital-4e" transform="translate(125.816929 0)scale(0.996264)"/>
     <use xlink:href="#URWPalladioL-Roma-2f" transform="translate(208.905387 0)scale(0.996264)"/>
     <use xlink:href="#URWPalladioL-Roma-34" transform="translate(270.524291 0)scale(0.996264)"/>
    </g>
   </g>
   <g id="text_13">
    <!-- $d \cdot N/4$ -->
    <g style="fill: #ffffff" transform="translate(127.298534 96.859213)scale(0.1 -0.1)">
     <use xlink:href="#URWPalladioL-Ital-64" transform="scale(0.996264)"/>
     <use xlink:href="#CMSY10-1" transform="translate(71.675568 0)scale(1.038107)"/>
     <use xlink:href="#URWPalladioL-Ital-4e" transform="translate(125.816929 0)scale(0.996264)"/>
     <use xlink:href="#URWPalladioL-Roma-2f" transform="translate(208.905387 0)scale(0.996264)"/>
     <use xlink:href="#URWPalladioL-Roma-34" transform="translate(270.524291 0)scale(0.996264)"/>
    </g>
   </g>
   <g id="text_14">
    <!-- $d \cdot N/4$ -->
    <g style="fill: #ffffff" transform="translate(171.048434 96.859213)scale(0.1 -0.1)">
     <use xlink:href="#URWPalladioL-Ital-64" transform="scale(0.996264)"/>
     <use xlink:href="#CMSY10-1" transform="translate(71.675568 0)scale(1.038107)"/>
     <use xlink:href="#URWPalladioL-Ital-4e" transform="translate(125.816929 0)scale(0.996264)"/>
     <use xlink:href="#URWPalladioL-Roma-2f" transform="translate(208.905387 0)scale(0.996264)"/>
     <use xlink:href="#URWPalladioL-Roma-34" transform="translate(270.524291 0)scale(0.996264)"/>
    </g>
   </g>
   <g id="text_15">
    <!-- $d \cdot N/4$ -->
    <g style="fill: #ffffff" transform="translate(214.798334 96.859213)scale(0.1 -0.1)">
     <use xlink:href="#URWPalladioL-Ital-64" transform="scale(0.996264)"/>
     <use xlink:href="#CMSY10-1" transform="translate(71.675568 0)scale(1.038107)"/>
     <use xlink:href="#URWPalladioL-Ital-4e" transform="translate(125.816929 0)scale(0.996264)"/>
     <use xlink:href="#URWPalladioL-Roma-2f" transform="translate(208.905387 0)scale(0.996264)"/>
     <use xlink:href="#URWPalladioL-Roma-34" transform="translate(270.524291 0)scale(0.996264)"/>
    </g>
   </g>
   <g id="text_16">
    <!-- $\Rightarrow 4 \cdot (d \cdot N/4) = d \cdot N$ -->
    <g transform="translate(261.440083 97.080916)scale(0.1 -0.1)">
     <use xlink:href="#CMSY10-29" transform="scale(1.038107)"/>
     <use xlink:href="#URWPalladioL-Roma-34" transform="translate(132.73003 0)scale(0.996264)"/>
     <use xlink:href="#CMSY10-1" transform="translate(203.160283 0)scale(1.038107)"/>
     <use xlink:href="#CMR10-28" transform="translate(253.814735 0)scale(1.038107)"/>
     <use xlink:href="#URWPalladioL-Ital-64" transform="translate(296.55444 0)scale(0.996264)"/>
     <use xlink:href="#CMSY10-1" transform="translate(368.230008 0)scale(1.038107)"/>
     <use xlink:href="#URWPalladioL-Ital-4e" transform="translate(422.371369 0)scale(0.996264)"/>
     <use xlink:href="#URWPalladioL-Roma-2f" transform="translate(505.459827 0)scale(0.996264)"/>
     <use xlink:href="#URWPalladioL-Roma-34" transform="translate(567.078731 0)scale(0.996264)"/>
     <use xlink:href="#CMR10-29" transform="translate(618.137231 0)scale(1.038107)"/>
     <use xlink:href="#CMR10-3d" transform="translate(688.550869 0)scale(1.038107)"/>
     <use xlink:href="#URWPalladioL-Ital-64" transform="translate(799.411797 0)scale(0.996264)"/>
     <use xlink:href="#CMSY10-1" transform="translate(871.087365 0)scale(1.038107)"/>
     <use xlink:href="#URWPalladioL-Ital-4e" transform="translate(925.228726 0)scale(0.996264)"/>
    </g>
   </g>
   <g id="text_17">
    <!-- $\Rightarrow 2^\ell \cdot (d \cdot N / 2^\ell) = d \cdot N$ -->
    <g transform="translate(261.440083 132.7356)scale(0.1 -0.1)">
     <use xlink:href="#CMSY10-29" transform="scale(1.038107)"/>
     <use xlink:href="#URWPalladioL-Roma-32" transform="translate(132.73003 0)scale(0.996264)"/>
     <use xlink:href="#CMMI10-60" transform="translate(183.489648 36.164371)scale(0.788955)"/>
     <use xlink:href="#CMSY10-1" transform="translate(238.336128 0)scale(1.038107)"/>
     <use xlink:href="#CMR10-28" transform="translate(288.99058 0)scale(1.038107)"/>
     <use xlink:href="#URWPalladioL-Ital-64" transform="translate(331.730285 0)scale(0.996264)"/>
     <use xlink:href="#CMSY10-1" transform="translate(403.405853 0)scale(1.038107)"/>
     <use xlink:href="#URWPalladioL-Ital-4e" transform="translate(457.547214 0)scale(0.996264)"/>
     <use xlink:href="#URWPalladioL-Roma-2f" transform="translate(540.635672 0)scale(0.996264)"/>
     <use xlink:href="#URWPalladioL-Roma-32" transform="translate(602.254576 0)scale(0.996264)"/>
     <use xlink:href="#CMMI10-60" transform="translate(653.014194 36.164371)scale(0.788955)"/>
     <use xlink:href="#CMR10-29" transform="translate(688.488922 0)scale(1.038107)"/>
     <use xlink:href="#CMR10-3d" transform="translate(758.902559 0)scale(1.038107)"/>
     <use xlink:href="#URWPalladioL-Ital-64" transform="translate(869.763488 0)scale(0.996264)"/>
     <use xlink:href="#CMSY10-1" transform="translate(941.439055 0)scale(1.038107)"/>
     <use xlink:href="#URWPalladioL-Ital-4e" transform="translate(995.580416 0)scale(0.996264)"/>
    </g>
   </g>
   <g id="text_18">
    <!-- $d$ -->
    <g style="fill: #ffffff" transform="translate(83.949823 166.859053)scale(0.1 -0.1)">
     <use xlink:href="#URWPalladioL-Ital-64" transform="scale(0.996264)"/>
    </g>
   </g>
   <g id="text_19">
    <!-- $d$ -->
    <g style="fill: #ffffff" transform="translate(103.199779 166.859053)scale(0.1 -0.1)">
     <use xlink:href="#URWPalladioL-Ital-64" transform="scale(0.996264)"/>
    </g>
   </g>
   <g id="text_20">
    <!-- $d$ -->
    <g style="fill: #ffffff" transform="translate(122.449735 166.859053)scale(0.1 -0.1)">
     <use xlink:href="#URWPalladioL-Ital-64" transform="scale(0.996264)"/>
    </g>
   </g>
   <g id="text_21">
    <!-- $d$ -->
    <g style="fill: #ffffff" transform="translate(241.449463 166.859053)scale(0.1 -0.1)">
     <use xlink:href="#URWPalladioL-Ital-64" transform="scale(0.996264)"/>
    </g>
   </g>
   <g id="text_22">
    <!-- $\dots$ -->
    <g transform="translate(152.770249 169.450349)scale(0.22 -0.22)">
     <use xlink:href="#URWPalladioL-Roma-2e" transform="scale(0.996264)"/>
     <use xlink:href="#URWPalladioL-Roma-2e" transform="translate(44.001574 0)scale(0.996264)"/>
     <use xlink:href="#URWPalladioL-Roma-2e" transform="translate(88.003149 0)scale(0.996264)"/>
    </g>
   </g>
   <g id="text_23">
    <!-- $\Rightarrow 2^{\log_2 N} \cdot d  = d \cdot N$ -->
    <g transform="translate(261.440083 166.859053)scale(0.1 -0.1)">
     <use xlink:href="#CMSY10-29" transform="scale(1.038107)"/>
     <use xlink:href="#URWPalladioL-Roma-32" transform="translate(132.73003 0)scale(0.996264)"/>
     <use xlink:href="#URWPalladioL-Roma-6c" transform="translate(182.543231 36.164371)scale(0.757155)"/>
     <use xlink:href="#URWPalladioL-Roma-6f" transform="translate(204.575752 36.164371)scale(0.757155)"/>
     <use xlink:href="#URWPalladioL-Roma-67" transform="translate(245.916087 36.164371)scale(0.757155)"/>
     <use xlink:href="#URWPalladioL-Roma-32" transform="translate(288.013455 11.824174)scale(0.597764)"/>
     <use xlink:href="#URWPalladioL-Ital-4e" transform="translate(334.615492 36.164371)scale(0.757155)"/>
     <use xlink:href="#CMSY10-1" transform="translate(417.931034 0)scale(1.038107)"/>
     <use xlink:href="#URWPalladioL-Ital-64" transform="translate(468.585486 0)scale(0.996264)"/>
     <use xlink:href="#CMR10-3d" transform="translate(548.563234 0)scale(1.038107)"/>
     <use xlink:href="#URWPalladioL-Ital-64" transform="translate(659.424163 0)scale(0.996264)"/>
     <use xlink:href="#CMSY10-1" transform="translate(731.09973 0)scale(1.038107)"/>
     <use xlink:href="#URWPalladioL-Ital-4e" transform="translate(785.241091 0)scale(0.996264)"/>
    </g>
   </g>
   <g id="text_24">
    <!-- $T(N) \leq d \cdot N \cdot (1 + \log_2 N)$ -->
    <g transform="translate(254.194001 201.973861)scale(0.1 -0.1)">
     <defs>
      <path id="URWPalladioL-Ital-54" d="M 2496 4123 
L 2963 4123 
C 3462 4123 3693 4091 3712 4015 
C 3731 3964 3744 3843 3738 3780 
L 3712 3373 
L 3891 3373 
L 4064 4416 
L 3482 4409 
C 2918 4403 2483 4396 2259 4396 
C 2022 4396 1613 4403 1062 4409 
L 454 4416 
L 339 3373 
L 525 3373 
L 621 3754 
C 653 3894 698 3996 736 4040 
C 774 4085 1018 4123 1254 4123 
L 1971 4123 
L 1421 813 
C 1318 235 1306 216 1050 197 
L 723 178 
L 698 0 
L 1062 6 
C 1318 -7 1504 0 1606 0 
C 1728 0 1926 -7 2176 -13 
L 2458 0 
L 2477 179 
L 2099 198 
C 1933 204 1869 256 1869 390 
C 1869 448 1875 492 1894 614 
L 2496 4123 
z
" transform="scale(0.015625)"/>
      <path id="CMSY10-14" d="M 4320 3826 
C 4390 3858 4442 3890 4442 3967 
C 4442 4038 4390 4096 4314 4096 
C 4282 4096 4224 4070 4198 4057 
L 659 2381 
C 550 2329 531 2284 531 2233 
C 531 2175 570 2130 659 2092 
L 4198 422 
C 4282 377 4294 377 4314 377 
C 4384 377 4442 435 4442 505 
C 4442 563 4416 601 4307 653 
L 960 2233 
L 4320 3826 
z
M 4218 -896 
C 4326 -896 4442 -896 4442 -768 
C 4442 -640 4307 -640 4211 -640 
L 762 -640 
C 666 -640 531 -640 531 -768 
C 531 -896 646 -896 755 -896 
L 4218 -896 
z
" transform="scale(0.015625)"/>
      <path id="CMR10-2b" d="M 2618 1472 
L 4403 1472 
C 4493 1472 4614 1472 4614 1600 
C 4614 1728 4493 1728 4403 1728 
L 2618 1728 
L 2618 3501 
C 2618 3590 2618 3712 2490 3712 
C 2362 3712 2362 3590 2362 3501 
L 2362 1728 
L 570 1728 
C 480 1728 358 1728 358 1600 
C 358 1472 480 1472 570 1472 
L 2362 1472 
L 2362 -308 
C 2362 -397 2362 -519 2490 -519 
C 2618 -519 2618 -397 2618 -308 
L 2618 1472 
z
" transform="scale(0.015625)"/>
     </defs>
     <use xlink:href="#URWPalladioL-Ital-54" transform="scale(0.996264)"/>
     <use xlink:href="#CMR10-28" transform="translate(65.752452 0)scale(1.038107)"/>
     <use xlink:href="#URWPalladioL-Ital-4e" transform="translate(111.979065 0)scale(0.996264)"/>
     <use xlink:href="#CMR10-29" transform="translate(195.067523 0)scale(1.038107)"/>
     <use xlink:href="#CMSY10-14" transform="translate(265.481161 0)scale(1.038107)"/>
     <use xlink:href="#URWPalladioL-Ital-64" transform="translate(376.342089 0)scale(0.996264)"/>
     <use xlink:href="#CMSY10-1" transform="translate(448.017657 0)scale(1.038107)"/>
     <use xlink:href="#URWPalladioL-Ital-4e" transform="translate(502.159018 0)scale(0.996264)"/>
     <use xlink:href="#CMSY10-1" transform="translate(604.619229 0)scale(1.038107)"/>
     <use xlink:href="#CMR10-28" transform="translate(655.273681 0)scale(1.038107)"/>
     <use xlink:href="#URWPalladioL-Roma-31" transform="translate(696.768086 0)scale(0.996264)"/>
     <use xlink:href="#CMR10-2b" transform="translate(767.198339 0)scale(1.038107)"/>
     <use xlink:href="#URWPalladioL-Roma-6c" transform="translate(868.511788 0)scale(0.996264)"/>
     <use xlink:href="#URWPalladioL-Roma-6f" transform="translate(897.50215 0)scale(0.996264)"/>
     <use xlink:href="#URWPalladioL-Roma-67" transform="translate(951.89773 0)scale(0.996264)"/>
     <use xlink:href="#URWPalladioL-Roma-32" transform="translate(1007.289407 -31.879901)scale(0.757155)"/>
     <use xlink:href="#URWPalladioL-Ital-4e" transform="translate(1066.981865 0)scale(0.996264)"/>
     <use xlink:href="#CMR10-29" transform="translate(1150.070323 0)scale(1.038107)"/>
    </g>
   </g>
  </g>
 </g>
 <defs>
  <clipPath id="pb7e0203a72">
   <rect x="77.690503" y="7.2" width="174.9996" height="209.99952"/>
  </clipPath>
 </defs>
</svg>