<?xml version="1.0" encoding="utf-8" standalone="no"?>
<!DOCTYPE svg PUBLIC "-//W3C//DTD SVG 1.1//EN"
  "http://www.w3.org/Graphics/SVG/1.1/DTD/svg11.dtd">
<svg xmlns:xlink="http://www.w3.org/1999/xlink" width="584.39952pt" height="152.432797pt" viewBox="0 0 584.39952 152.432797" xmlns="http://www.w3.org/2000/svg" version="1.1">
 <metadata>
  <rdf:RDF xmlns:dc="http://purl.org/dc/elements/1.1/" xmlns:cc="http://creativecommons.org/ns#" xmlns:rdf="http://www.w3.org/1999/02/22-rdf-syntax-ns#">
   <cc:Work>
    <dc:type rdf:resource="http://purl.org/dc/dcmitype/StillImage"/>
    <dc:date>2022-07-26T12:18:22.189674</dc:date>
    <dc:format>image/svg+xml</dc:format>
    <dc:creator>
     <cc:Agent>
      <dc:title>Matplotlib v3.5.2, https://matplotlib.org/</dc:title>
     </cc:Agent>
    </dc:creator>
   </cc:Work>
  </rdf:RDF>
 </metadata>
 <defs>
  <style type="text/css">*{stroke-linejoin: round; stroke-linecap: butt}</style>
 </defs>
 <g id="figure_1">
  <g id="patch_1">
   <path d="M 0 152.432797 
L 584.39952 152.432797 
L 584.39952 0 
L 0 0 
L 0 152.432797 
z
" style="fill: none"/>
  </g>
  <g id="axes_1">
   <g id="patch_2">
    <path d="M 57.070851 99.894936 
L 577.19952 99.894936 
L 577.19952 8.013328 
L 57.070851 8.013328 
L 57.070851 99.894936 
z
" style="fill: none"/>
   </g>
   <g id="matplotlib.axis_1">
    <g id="xtick_1">
     <g id="line2d_1">
      <path d="M 57.070851 99.894936 
L 57.070851 8.013328 
" clip-path="url(#p138680f2e0)" style="fill: none; stroke: #000000; stroke-opacity: 0.2; stroke-width: 0.5; stroke-linecap: round"/>
     </g>
     <g id="line2d_2">
      <defs>
       <path id="m5525b739fe" d="M 0 0 
L 0 3.5 
" style="stroke: #000000; stroke-opacity: 0.2; stroke-width: 0.5"/>
      </defs>
      <g>
       <use xlink:href="#m5525b739fe" x="57.070851" y="99.894936" style="fill-opacity: 0.2; stroke: #000000; stroke-opacity: 0.2; stroke-width: 0.5"/>
      </g>
     </g>
     <g id="text_1">
      <!-- $\mathdefault{0}$ -->
      <g transform="translate(53.583926 125.374465)scale(0.14 -0.14)">
       <defs>
        <path id="URWPalladioL-Roma-30" d="M 1683 4416 
C 691 4416 186 3628 186 2076 
C 186 1326 320 679 544 365 
C 768 51 1126 -128 1523 -128 
C 2490 -128 2976 704 2976 2345 
C 2976 3749 2560 4416 1683 4416 
z
M 1568 4191 
C 2189 4191 2438 3563 2438 2025 
C 2438 660 2195 96 1606 96 
C 986 96 723 743 723 2307 
C 723 3660 960 4191 1568 4191 
z
" transform="scale(0.015625)"/>
       </defs>
       <use xlink:href="#URWPalladioL-Roma-30" transform="scale(0.996264)"/>
      </g>
     </g>
    </g>
    <g id="xtick_2">
     <g id="line2d_3">
      <path d="M 161.138211 99.894936 
L 161.138211 8.013328 
" clip-path="url(#p138680f2e0)" style="fill: none; stroke: #000000; stroke-opacity: 0.2; stroke-width: 0.5; stroke-linecap: round"/>
     </g>
     <g id="line2d_4">
      <g>
       <use xlink:href="#m5525b739fe" x="161.138211" y="99.894936" style="fill-opacity: 0.2; stroke: #000000; stroke-opacity: 0.2; stroke-width: 0.5"/>
      </g>
     </g>
     <g id="text_2">
      <!-- $\mathdefault{1}$ -->
      <g transform="translate(157.651287 125.374465)scale(0.14 -0.14)">
       <defs>
        <path id="URWPalladioL-Roma-31" d="M 429 3571 
L 493 3571 
L 1318 3942 
C 1325 3949 1331 3949 1338 3949 
C 1376 3949 1389 3891 1389 3737 
L 1389 633 
C 1389 300 1318 230 973 211 
L 614 192 
L 614 0 
C 1600 0 1600 0 1670 0 
C 1754 0 1894 0 2112 -7 
C 2189 6 2413 6 2675 0 
L 2675 192 
L 2342 211 
C 1990 229 1926 299 1926 628 
L 1926 4383 
L 1837 4416 
C 1421 4199 966 4009 384 3807 
L 429 3571 
z
" transform="scale(0.015625)"/>
       </defs>
       <use xlink:href="#URWPalladioL-Roma-31" transform="scale(0.996264)"/>
      </g>
     </g>
    </g>
    <g id="xtick_3">
     <g id="line2d_5">
      <path d="M 265.205572 99.894936 
L 265.205572 8.013328 
" clip-path="url(#p138680f2e0)" style="fill: none; stroke: #000000; stroke-opacity: 0.2; stroke-width: 0.5; stroke-linecap: round"/>
     </g>
     <g id="line2d_6">
      <g>
       <use xlink:href="#m5525b739fe" x="265.205572" y="99.894936" style="fill-opacity: 0.2; stroke: #000000; stroke-opacity: 0.2; stroke-width: 0.5"/>
      </g>
     </g>
     <g id="text_3">
      <!-- $\mathdefault{2}$ -->
      <g transform="translate(261.718648 125.374465)scale(0.14 -0.14)">
       <defs>
        <path id="URWPalladioL-Roma-32" d="M 102 166 
L 102 0 
C 1299 0 1299 0 1530 0 
C 1760 19 1760 19 2995 0 
C 2982 134 2982 198 2982 287 
C 2982 370 2982 434 2995 574 
C 2259 542 1965 536 781 510 
L 1946 1741 
C 2566 2398 2758 2749 2758 3228 
C 2758 3961 2259 4416 1446 4416 
C 986 4416 672 4287 358 3967 
L 250 3100 
L 435 3100 
L 518 3394 
C 621 3763 851 3923 1280 3923 
C 1830 3923 2182 3578 2182 3036 
C 2182 2558 1914 2086 1190 1320 
L 102 166 
z
" transform="scale(0.015625)"/>
       </defs>
       <use xlink:href="#URWPalladioL-Roma-32" transform="scale(0.996264)"/>
      </g>
     </g>
    </g>
    <g id="xtick_4">
     <g id="line2d_7">
      <path d="M 369.272933 99.894936 
L 369.272933 8.013328 
" clip-path="url(#p138680f2e0)" style="fill: none; stroke: #000000; stroke-opacity: 0.2; stroke-width: 0.5; stroke-linecap: round"/>
     </g>
     <g id="line2d_8">
      <g>
       <use xlink:href="#m5525b739fe" x="369.272933" y="99.894936" style="fill-opacity: 0.2; stroke: #000000; stroke-opacity: 0.2; stroke-width: 0.5"/>
      </g>
     </g>
     <g id="text_4">
      <!-- $\mathdefault{3}$ -->
      <g transform="translate(365.786009 125.374465)scale(0.14 -0.14)">
       <defs>
        <path id="URWPalladioL-Roma-33" d="M 275 3196 
L 474 3196 
L 589 3553 
C 659 3770 1062 3987 1395 3987 
C 1811 3987 2150 3649 2150 3247 
C 2150 2769 1773 2368 1318 2368 
C 1267 2368 1197 2374 1114 2380 
L 1018 2387 
L 941 2047 
L 986 2008 
C 1229 2118 1350 2150 1523 2150 
C 2054 2150 2362 1808 2362 1222 
C 2362 565 1971 134 1376 134 
C 1082 134 819 231 627 411 
C 474 553 390 701 269 1048 
L 96 984 
C 230 591 282 359 320 38 
C 659 -77 941 -128 1178 -128 
C 1690 -128 2278 160 2630 591 
C 2848 855 2957 1139 2957 1441 
C 2957 1750 2829 2021 2598 2182 
C 2438 2297 2291 2348 1971 2406 
C 2483 2801 2675 3094 2675 3470 
C 2675 4038 2202 4416 1491 4416 
C 1056 4416 768 4294 461 3987 
L 275 3196 
z
" transform="scale(0.015625)"/>
       </defs>
       <use xlink:href="#URWPalladioL-Roma-33" transform="scale(0.996264)"/>
      </g>
     </g>
    </g>
    <g id="xtick_5">
     <g id="line2d_9">
      <path d="M 473.340294 99.894936 
L 473.340294 8.013328 
" clip-path="url(#p138680f2e0)" style="fill: none; stroke: #000000; stroke-opacity: 0.2; stroke-width: 0.5; stroke-linecap: round"/>
     </g>
     <g id="line2d_10">
      <g>
       <use xlink:href="#m5525b739fe" x="473.340294" y="99.894936" style="fill-opacity: 0.2; stroke: #000000; stroke-opacity: 0.2; stroke-width: 0.5"/>
      </g>
     </g>
     <g id="text_5">
      <!-- $\mathdefault{4}$ -->
      <g transform="translate(469.85337 125.374465)scale(0.14 -0.14)">
       <defs>
        <path id="URWPalladioL-Roma-34" d="M 1792 1152 
L 1792 684 
C 1792 310 1722 223 1408 210 
L 1011 192 
L 1011 0 
C 1862 0 1862 0 2016 0 
C 2170 19 2170 19 3021 0 
L 3021 192 
L 2714 210 
C 2400 229 2330 310 2330 684 
L 2330 1152 
C 2707 1152 2842 1145 3021 1127 
L 3021 1580 
C 2720 1555 2598 1555 2502 1561 
L 2483 1561 
L 2330 1561 
L 2330 2445 
C 2330 3576 2342 4122 2374 4383 
L 2298 4416 
L 1824 4243 
L 13 1299 
L 83 1152 
L 1792 1152 
z
M 1792 1561 
L 416 1561 
L 1792 3798 
L 1792 1561 
z
" transform="scale(0.015625)"/>
       </defs>
       <use xlink:href="#URWPalladioL-Roma-34" transform="scale(0.996264)"/>
      </g>
     </g>
    </g>
    <g id="text_6">
     <!-- Time [seconds] -->
     <g transform="translate(277.462334 141.861513)scale(0.12 -0.12)">
      <defs>
       <path id="URWPalladioL-Roma-54" d="M 1632 4096 
C 1651 3880 1658 3734 1658 3462 
L 1658 781 
C 1658 280 1626 230 1331 211 
L 1024 192 
L 1024 0 
C 1402 -7 1626 0 1958 0 
C 2291 19 2522 12 2899 0 
L 2899 192 
L 2592 211 
C 2298 230 2266 280 2266 781 
L 2266 3462 
C 2266 3747 2272 3887 2291 4096 
L 3283 4096 
C 3462 4096 3533 4039 3539 3887 
L 3565 3386 
L 3763 3386 
C 3763 3801 3776 4051 3808 4416 
C 3347 4409 3136 4409 2957 4403 
C 2707 4390 2522 4390 2426 4390 
L 1414 4390 
C 1350 4390 1005 4396 550 4403 
L 115 4416 
C 147 4051 160 3801 160 3385 
L 358 3385 
L 384 3891 
C 390 4038 461 4096 640 4096 
L 1632 4096 
z
" transform="scale(0.015625)"/>
       <path id="URWPalladioL-Roma-69" d="M 1203 2982 
L 1146 3008 
C 819 2873 486 2784 147 2746 
L 147 2568 
L 384 2568 
C 640 2568 666 2523 666 2103 
L 666 669 
C 666 268 646 223 429 211 
L 134 192 
L 134 0 
C 774 0 774 0 934 0 
C 1094 19 1094 19 1734 0 
L 1734 192 
L 1440 211 
C 1222 224 1203 268 1203 671 
L 1203 2982 
z
M 909 4416 
C 717 4416 550 4249 550 4057 
C 550 3871 717 3705 902 3705 
C 1088 3705 1261 3871 1261 4057 
C 1261 4236 1088 4416 909 4416 
z
" transform="scale(0.015625)"/>
       <path id="URWPalladioL-Roma-6d" d="M 115 2579 
L 352 2579 
C 608 2579 634 2534 634 2112 
L 634 672 
C 634 268 614 224 397 211 
L 102 192 
L 102 0 
C 717 0 736 0 915 0 
C 1094 19 1261 12 1677 0 
L 1677 192 
L 1408 211 
C 1190 223 1171 268 1171 670 
L 1171 2023 
C 1171 2311 1594 2624 1978 2624 
C 2323 2624 2560 2298 2560 1813 
L 2560 670 
C 2560 268 2541 223 2323 211 
L 2029 192 
L 2029 0 
C 2669 0 2669 0 2829 0 
C 2989 19 2989 19 3629 0 
L 3629 192 
L 3334 211 
C 3117 223 3098 268 3098 670 
L 3098 2023 
C 3098 2311 3520 2624 3904 2624 
C 4250 2624 4486 2298 4486 1813 
L 4486 0 
C 4877 0 4883 0 4992 0 
C 5075 19 5075 19 5562 0 
L 5562 192 
L 5261 211 
C 5043 223 5024 268 5024 670 
L 5024 1985 
C 5024 2617 4653 3014 4064 3014 
C 3840 3014 3654 2956 3539 2854 
L 3053 2419 
C 2848 2841 2586 3014 2144 3014 
C 1907 3014 1728 2956 1613 2854 
L 1171 2445 
L 1171 2988 
L 1114 3008 
C 787 2873 454 2783 115 2745 
L 115 2579 
z
" transform="scale(0.015625)"/>
       <path id="URWPalladioL-Roma-65" d="M 2797 447 
L 2714 511 
C 2304 268 2157 211 1882 211 
C 1466 211 1120 396 941 710 
C 819 921 774 1100 762 1472 
L 1696 1472 
C 2138 1472 2413 1491 2854 1561 
C 2861 1651 2867 1708 2867 1786 
C 2867 2526 2394 3008 1677 3008 
C 1440 3008 1165 2924 902 2771 
C 378 2468 166 2069 166 1401 
C 166 998 262 652 435 409 
C 691 70 1120 -128 1600 -128 
C 1837 -128 2074 -77 2336 38 
C 2509 108 2643 192 2669 230 
L 2797 447 
z
M 2298 1708 
C 1965 1696 1811 1689 1581 1689 
C 1286 1689 1120 1696 774 1728 
C 774 2030 800 2172 883 2339 
C 1018 2623 1293 2796 1600 2796 
C 1811 2796 1978 2713 2093 2539 
C 2234 2326 2278 2140 2298 1708 
z
" transform="scale(0.015625)"/>
       <path id="URWPalladioL-Roma-5b" d="M 563 -1178 
C 1018 -1166 1030 -1166 1184 -1166 
C 1338 -1166 1370 -1166 1805 -1178 
L 1843 -1140 
L 1843 -974 
L 1818 -942 
L 1574 -942 
C 1402 -942 1261 -903 1184 -839 
C 1126 -782 1107 -692 1107 -481 
C 1107 -474 1107 -340 1101 -148 
L 1101 89 
L 1101 3379 
L 1101 3615 
C 1107 3795 1107 3935 1107 3942 
C 1107 4153 1126 4249 1184 4307 
C 1261 4371 1402 4409 1574 4409 
L 1818 4409 
L 1843 4441 
L 1843 4608 
L 1805 4646 
C 1357 4633 1338 4633 1184 4633 
C 1037 4633 1005 4633 563 4646 
L 506 4563 
C 544 4403 557 4191 557 3699 
C 557 3603 557 3526 563 3462 
L 563 3379 
L 563 89 
L 563 6 
C 557 -97 557 -103 557 -212 
L 557 -282 
C 557 -718 544 -897 506 -1095 
L 563 -1178 
z
" transform="scale(0.015625)"/>
       <path id="URWPalladioL-Roma-73" d="M 262 917 
C 262 474 243 282 192 25 
C 525 -84 774 -128 1069 -128 
C 1907 -128 2502 320 2502 949 
C 2502 1148 2445 1295 2323 1423 
C 2157 1584 1946 1661 1382 1770 
C 858 1872 685 2001 685 2296 
C 685 2617 909 2796 1299 2796 
C 1728 2796 2054 2572 2054 2270 
L 2054 2123 
L 2234 2123 
C 2240 2495 2246 2649 2266 2847 
C 1926 2963 1696 3008 1434 3008 
C 691 3008 237 2655 237 2078 
C 237 1770 378 1552 672 1417 
C 845 1340 1184 1237 1619 1141 
C 1907 1077 2029 942 2029 698 
C 2029 352 1709 108 1254 108 
C 787 108 454 333 454 654 
L 454 917 
L 262 917 
z
" transform="scale(0.015625)"/>
       <path id="URWPalladioL-Roma-63" d="M 2554 1995 
C 2554 2290 2586 2553 2643 2783 
C 2387 2937 2163 3008 1901 3008 
C 1594 3008 1235 2886 851 2643 
C 403 2360 166 1911 166 1347 
C 166 480 774 -128 1632 -128 
C 1965 -128 2445 -7 2509 89 
L 2643 294 
L 2579 390 
C 2342 262 2138 204 1907 204 
C 1197 204 730 756 730 1603 
C 730 2290 1050 2675 1626 2675 
C 1907 2675 2214 2547 2330 2386 
L 2374 1995 
L 2554 1995 
z
" transform="scale(0.015625)"/>
       <path id="URWPalladioL-Roma-6f" d="M 1786 3008 
C 851 3008 205 2347 205 1391 
C 205 487 774 -128 1600 -128 
C 2586 -128 3290 557 3290 1520 
C 3290 2386 2662 3008 1786 3008 
z
M 1670 2796 
C 2259 2796 2694 2155 2694 1282 
C 2694 545 2368 83 1850 83 
C 1222 83 800 699 800 1609 
C 800 2379 1107 2796 1670 2796 
z
" transform="scale(0.015625)"/>
       <path id="URWPalladioL-Roma-6e" d="M 2624 0 
C 3014 0 3021 0 3130 0 
C 3219 19 3219 19 3661 0 
L 3661 192 
L 3398 211 
C 3181 223 3162 262 3162 670 
L 3162 1902 
C 3162 2649 2810 3014 2093 3014 
C 1856 3014 1722 2969 1587 2854 
L 1101 2432 
L 1101 2988 
L 1043 3008 
C 717 2873 384 2784 45 2746 
L 45 2568 
L 282 2568 
C 538 2568 563 2523 563 2103 
L 563 669 
C 563 268 544 223 326 211 
L 38 192 
L 38 0 
C 474 -7 646 0 832 0 
C 1018 19 1190 12 1626 0 
L 1626 192 
L 1338 211 
C 1120 223 1101 268 1101 670 
L 1101 2023 
C 1101 2311 1523 2624 1914 2624 
C 2342 2624 2624 2304 2624 1813 
L 2624 0 
z
" transform="scale(0.015625)"/>
       <path id="URWPalladioL-Roma-64" d="M 2637 2803 
C 2278 2956 2099 3008 1875 3008 
C 1702 3008 1549 2969 1389 2886 
L 826 2592 
C 461 2400 224 1934 224 1392 
C 224 881 397 460 710 204 
C 928 19 1229 -64 1645 -64 
C 1773 -64 1920 -39 1952 -13 
L 2662 581 
L 2630 0 
C 2944 -7 3046 0 3123 0 
C 3174 0 3264 0 3398 -7 
C 3443 6 3571 6 3706 0 
L 3706 192 
L 3411 211 
C 3194 224 3174 268 3174 672 
L 3174 4614 
L 3117 4665 
C 2835 4557 2624 4505 2118 4429 
L 2118 4249 
L 2477 4249 
C 2592 4249 2637 4179 2637 3987 
L 2637 2803 
z
M 2637 1424 
C 2637 1009 2624 945 2541 798 
C 2362 498 2048 300 1747 300 
C 1184 300 781 843 781 1602 
C 781 2298 1126 2707 1702 2707 
C 1946 2707 2202 2624 2426 2470 
C 2560 2381 2637 2298 2637 2247 
L 2637 1424 
z
" transform="scale(0.015625)"/>
       <path id="URWPalladioL-Roma-5d" d="M 1568 4646 
C 1114 4633 1094 4633 947 4633 
C 794 4633 762 4633 326 4646 
L 288 4608 
L 288 4441 
L 314 4409 
L 557 4409 
C 730 4409 864 4371 941 4307 
C 1005 4249 1024 4159 1024 3942 
C 1024 3923 1024 3795 1030 3615 
L 1030 3379 
L 1030 89 
L 1030 -148 
C 1024 -334 1024 -449 1024 -468 
C 1024 -686 1005 -782 941 -839 
C 864 -903 730 -942 557 -942 
L 314 -942 
L 288 -974 
L 288 -1140 
L 326 -1178 
C 774 -1166 787 -1166 947 -1166 
C 1094 -1166 1126 -1166 1568 -1178 
L 1626 -1095 
C 1587 -942 1581 -743 1574 -250 
C 1574 -161 1574 -78 1568 6 
L 1568 89 
L 1568 3379 
L 1568 3462 
C 1574 3532 1574 3615 1574 3705 
C 1574 4198 1587 4409 1626 4563 
L 1568 4646 
z
" transform="scale(0.015625)"/>
      </defs>
      <use xlink:href="#URWPalladioL-Roma-54" transform="scale(0.996264)"/>
      <use xlink:href="#URWPalladioL-Roma-69" transform="translate(55.591109 0)scale(0.996264)"/>
      <use xlink:href="#URWPalladioL-Roma-6d" transform="translate(84.581471 0)scale(0.996264)"/>
      <use xlink:href="#URWPalladioL-Roma-65" transform="translate(172.551145 0)scale(0.996264)"/>
      <use xlink:href="#URWPalladioL-Roma-5b" transform="translate(245.17804 0)scale(0.996264)"/>
      <use xlink:href="#URWPalladioL-Roma-73" transform="translate(278.35327 0)scale(0.996264)"/>
      <use xlink:href="#URWPalladioL-Roma-65" transform="translate(320.594736 0)scale(0.996264)"/>
      <use xlink:href="#URWPalladioL-Roma-63" transform="translate(368.315031 0)scale(0.996264)"/>
      <use xlink:href="#URWPalladioL-Roma-6f" transform="translate(412.5486 0)scale(0.996264)"/>
      <use xlink:href="#URWPalladioL-Roma-6e" transform="translate(466.94418 0)scale(0.996264)"/>
      <use xlink:href="#URWPalladioL-Roma-64" transform="translate(524.926241 0)scale(0.996264)"/>
      <use xlink:href="#URWPalladioL-Roma-73" transform="translate(585.797872 0)scale(0.996264)"/>
      <use xlink:href="#URWPalladioL-Roma-5d" transform="translate(628.039338 0)scale(0.996264)"/>
     </g>
    </g>
   </g>
   <g id="matplotlib.axis_2">
    <g id="ytick_1">
     <g id="line2d_11">
      <path d="M 57.070851 96.637109 
L 577.19952 96.637109 
" clip-path="url(#p138680f2e0)" style="fill: none; stroke: #000000; stroke-opacity: 0.2; stroke-width: 0.5; stroke-linecap: round"/>
     </g>
     <g id="line2d_12">
      <defs>
       <path id="ma013c6a5cc" d="M 0 0 
L -3.5 0 
" style="stroke: #000000; stroke-opacity: 0.2; stroke-width: 0.5"/>
      </defs>
      <g>
       <use xlink:href="#ma013c6a5cc" x="57.070851" y="96.637109" style="fill-opacity: 0.2; stroke: #000000; stroke-opacity: 0.2; stroke-width: 0.5"/>
      </g>
     </g>
     <g id="text_7">
      <!-- $\mathdefault{−1}$ -->
      <g transform="translate(23.12516 101.626874)scale(0.14 -0.14)">
       <defs>
        <path id="CMSY10-0" d="M 4218 1472 
C 4326 1472 4442 1472 4442 1600 
C 4442 1728 4326 1728 4218 1728 
L 755 1728 
C 646 1728 531 1728 531 1600 
C 531 1472 646 1472 755 1472 
L 4218 1472 
z
" transform="scale(0.015625)"/>
       </defs>
       <use xlink:href="#CMSY10-0" transform="scale(1.038107)"/>
       <use xlink:href="#URWPalladioL-Roma-31" transform="translate(81.941696 0)scale(0.996264)"/>
      </g>
     </g>
    </g>
    <g id="ytick_2">
     <g id="line2d_13">
      <path d="M 57.070851 54.413437 
L 577.19952 54.413437 
" clip-path="url(#p138680f2e0)" style="fill: none; stroke: #000000; stroke-opacity: 0.2; stroke-width: 0.5; stroke-linecap: round"/>
     </g>
     <g id="line2d_14">
      <g>
       <use xlink:href="#ma013c6a5cc" x="57.070851" y="54.413437" style="fill-opacity: 0.2; stroke: #000000; stroke-opacity: 0.2; stroke-width: 0.5"/>
      </g>
     </g>
     <g id="text_8">
      <!-- $\mathdefault{0}$ -->
      <g transform="translate(34.597002 59.403202)scale(0.14 -0.14)">
       <use xlink:href="#URWPalladioL-Roma-30" transform="scale(0.996264)"/>
      </g>
     </g>
    </g>
    <g id="ytick_3">
     <g id="line2d_15">
      <path d="M 57.070851 12.189765 
L 577.19952 12.189765 
" clip-path="url(#p138680f2e0)" style="fill: none; stroke: #000000; stroke-opacity: 0.2; stroke-width: 0.5; stroke-linecap: round"/>
     </g>
     <g id="line2d_16">
      <g>
       <use xlink:href="#ma013c6a5cc" x="57.070851" y="12.189765" style="fill-opacity: 0.2; stroke: #000000; stroke-opacity: 0.2; stroke-width: 0.5"/>
      </g>
     </g>
     <g id="text_9">
      <!-- $\mathdefault{1}$ -->
      <g transform="translate(34.597002 17.179529)scale(0.14 -0.14)">
       <use xlink:href="#URWPalladioL-Roma-31" transform="scale(0.996264)"/>
      </g>
     </g>
    </g>
    <g id="text_10">
     <!-- Voltage -->
     <g transform="translate(15.753876 73.733695)rotate(-90)scale(0.12 -0.12)">
      <defs>
       <path id="URWPalladioL-Roma-56" d="M 1754 4224 
L 1754 4416 
C 1050 4396 1050 4396 902 4396 
C 755 4396 755 4396 51 4416 
L 51 4224 
L 282 4205 
C 416 4192 480 4134 563 3943 
L 1766 990 
C 1965 504 2042 281 2138 -64 
L 2458 -64 
C 2579 332 2656 543 2867 1054 
L 3981 3745 
C 4128 4090 4198 4185 4326 4205 
L 4518 4224 
L 4518 4416 
L 3827 4396 
C 3712 4396 3565 4403 3379 4409 
C 3347 4409 3238 4409 3136 4416 
L 3136 4224 
L 3469 4205 
C 3610 4198 3693 4134 3693 4038 
C 3693 3975 3674 3885 3635 3789 
L 2464 766 
L 1203 4007 
C 1197 4032 1190 4051 1190 4077 
C 1190 4154 1267 4198 1395 4205 
L 1754 4224 
z
" transform="scale(0.015625)"/>
       <path id="URWPalladioL-Roma-6c" d="M 147 4249 
L 506 4249 
C 621 4249 666 4179 666 3987 
L 666 672 
C 666 268 646 224 429 211 
L 134 192 
L 134 0 
C 774 0 774 0 934 0 
C 1094 19 1094 19 1734 0 
L 1734 192 
L 1440 211 
C 1222 224 1203 268 1203 672 
L 1203 4614 
L 1146 4665 
C 864 4557 653 4505 147 4429 
L 147 4249 
z
" transform="scale(0.015625)"/>
       <path id="URWPalladioL-Roma-74" d="M 627 2457 
L 627 614 
C 627 140 838 -64 1331 -64 
C 1478 -64 1632 -32 1670 12 
L 1978 352 
L 1894 460 
C 1734 371 1638 339 1517 339 
C 1267 339 1165 467 1165 780 
L 1165 2457 
L 1984 2457 
L 2042 2803 
L 1165 2764 
L 1165 3008 
C 1165 3277 1184 3507 1235 3917 
L 1158 3987 
C 1005 3891 813 3808 614 3744 
C 634 3552 640 3430 640 3238 
L 640 2790 
L 141 2566 
L 141 2432 
L 627 2457 
z
" transform="scale(0.015625)"/>
       <path id="URWPalladioL-Roma-61" d="M 2074 544 
L 2042 0 
C 2458 0 2458 0 2541 0 
C 2573 19 2733 12 3014 0 
L 3014 192 
L 2765 204 
C 2611 211 2586 262 2586 576 
L 2586 1751 
C 2586 2688 2317 3027 1574 3027 
C 1299 3027 1043 2956 800 2809 
L 461 2604 
L 461 2187 
L 627 2142 
L 710 2341 
C 845 2642 909 2688 1203 2688 
C 1805 2688 2054 2450 2074 1866 
L 1440 1751 
C 570 1590 205 1289 205 730 
C 205 224 506 -64 1011 -64 
C 1126 -64 1235 -45 1280 -13 
L 2074 544 
z
M 2074 806 
C 1888 544 1485 300 1235 300 
C 979 300 755 537 755 812 
C 755 1049 883 1273 1075 1395 
C 1235 1491 1587 1580 2074 1651 
L 2074 806 
z
" transform="scale(0.015625)"/>
       <path id="URWPalladioL-Roma-67" d="M 3322 2452 
L 3482 2713 
L 3456 2790 
L 2547 2764 
C 2310 2956 2080 3033 1766 3033 
C 1485 3033 1158 2944 896 2790 
C 538 2586 352 2274 352 1885 
C 352 1413 646 1087 1120 1036 
L 614 638 
C 550 540 518 455 518 358 
C 518 179 634 76 941 -13 
L 384 -315 
C 294 -367 205 -604 205 -804 
C 205 -1388 774 -1792 1587 -1792 
C 2554 -1792 3315 -1183 3315 -399 
C 3315 64 3008 384 2560 384 
L 1536 384 
C 1203 384 1050 462 1050 638 
C 1050 723 1101 795 1267 939 
C 1306 972 1318 985 1344 1011 
C 1408 1004 1446 998 1498 998 
C 1773 998 2112 1119 2374 1305 
C 2662 1515 2803 1770 2803 2108 
C 2803 2235 2784 2318 2733 2452 
L 3322 2452 
z
M 1536 2816 
C 1971 2816 2266 2458 2266 1917 
C 2266 1502 1997 1216 1606 1216 
C 1178 1216 890 1547 890 2038 
C 890 2529 1126 2816 1536 2816 
z
M 1837 -64 
C 2560 -64 2810 -212 2810 -630 
C 2810 -1183 2304 -1594 1632 -1594 
C 1075 -1594 691 -1266 691 -791 
C 691 -502 858 -238 1114 -129 
C 1216 -77 1395 -64 1837 -64 
z
" transform="scale(0.015625)"/>
      </defs>
      <use xlink:href="#URWPalladioL-Roma-56" transform="scale(0.996264)"/>
      <use xlink:href="#URWPalladioL-Roma-6f" transform="translate(60.871539 0)scale(0.996264)"/>
      <use xlink:href="#URWPalladioL-Roma-6c" transform="translate(115.26712 0)scale(0.996264)"/>
      <use xlink:href="#URWPalladioL-Roma-74" transform="translate(144.257481 0)scale(0.996264)"/>
      <use xlink:href="#URWPalladioL-Roma-61" transform="translate(176.734569 0)scale(0.996264)"/>
      <use xlink:href="#URWPalladioL-Roma-67" transform="translate(226.547769 0)scale(0.996264)"/>
      <use xlink:href="#URWPalladioL-Roma-65" transform="translate(281.939446 0)scale(0.996264)"/>
     </g>
    </g>
   </g>
   <g id="line2d_17">
    <path d="M 57.070851 12.189765 
L 57.48712 12.310258 
L 57.903389 12.671039 
L 58.527794 13.657787 
L 59.152198 15.167258 
L 59.984737 17.957996 
L 60.817276 21.577529 
L 61.857949 27.137991 
L 63.106757 35.059807 
L 64.97997 48.621938 
L 68.51826 74.560818 
L 69.975203 83.347171 
L 71.015877 88.39475 
L 71.848416 91.555424 
L 72.680955 93.859243 
L 73.305359 94.994077 
L 73.929763 95.60531 
L 74.346032 95.718499 
L 74.762302 95.595861 
L 75.178571 95.238605 
L 75.802975 94.268797 
L 76.42738 92.791499 
L 77.259919 90.069345 
L 78.092457 86.549531 
L 79.133131 81.158899 
L 80.381939 73.506081 
L 82.255152 60.465461 
L 85.585307 37.040103 
L 87.04225 28.485852 
L 88.082924 23.514252 
L 88.915463 20.354212 
L 89.748002 17.994173 
L 90.372406 16.778588 
L 90.99681 16.052997 
L 91.41308 15.84485 
L 91.829349 15.857638 
L 92.245618 16.090316 
L 92.661888 16.540561 
L 93.286292 17.615702 
L 93.910696 19.154793 
L 94.743235 21.88772 
L 95.783909 26.296255 
L 97.032717 32.81085 
L 98.697795 42.979534 
L 103.276759 72.063027 
L 104.525567 78.373589 
L 105.566241 82.619422 
L 106.39878 85.251435 
L 107.231318 87.146772 
L 107.855723 88.063873 
L 108.480127 88.539835 
L 108.896396 88.611057 
L 109.312666 88.486395 
L 109.728935 88.167976 
L 110.353339 87.334461 
L 110.977743 86.08811 
L 111.810282 83.820821 
L 112.850956 80.104516 
L 114.099764 74.55655 
L 115.556707 66.986064 
L 120.760075 38.805143 
L 122.008884 33.677268 
L 123.049557 30.317492 
L 123.882096 28.302489 
L 124.714635 26.924011 
L 125.339039 26.319817 
L 125.963443 26.086708 
L 126.379713 26.136241 
L 127.004117 26.512803 
L 127.628521 27.242046 
L 128.252925 28.308538 
L 129.085464 30.220527 
L 130.126138 33.315329 
L 131.374946 37.881377 
L 133.040024 44.96403 
L 137.202718 63.230822 
L 138.451527 67.701778 
L 139.4922 70.765825 
L 140.532874 73.130836 
L 141.365413 74.477797 
L 141.989817 75.15797 
L 142.614221 75.552193 
L 143.238625 75.662042 
L 143.863029 75.492967 
L 144.487434 75.054143 
L 145.111838 74.358256 
L 145.944377 73.058522 
L 146.98505 70.902137 
L 148.233859 67.677374 
L 149.898936 62.64626 
L 154.061631 49.731275 
L 155.310439 46.609065 
L 156.351113 44.48369 
L 157.391786 42.852861 
L 158.224325 41.927648 
L 159.056864 41.347415 
L 159.681268 41.13726 
L 160.305672 41.115212 
L 160.930077 41.274063 
L 161.762616 41.750172 
L 162.595154 42.501237 
L 163.635828 43.772598 
L 164.884636 45.680306 
L 166.757849 49.006818 
L 169.671735 54.191086 
L 171.128678 56.333881 
L 172.377486 57.773878 
L 173.41816 58.65182 
L 174.458834 59.223244 
L 175.291372 59.462184 
L 176.332046 59.5037 
L 177.37272 59.289228 
L 178.621528 58.755276 
L 180.078471 57.867642 
L 184.241165 55.161503 
L 185.489974 54.665596 
L 186.738782 54.429424 
L 187.779456 54.449365 
L 188.820129 54.665596 
L 190.068938 55.161503 
L 191.525881 55.998367 
L 196.521114 59.141073 
L 197.561788 59.446456 
L 198.602461 59.5118 
L 199.435 59.366461 
L 200.267539 59.03153 
L 201.308213 58.337128 
L 202.348886 57.339008 
L 203.597695 55.767957 
L 205.054638 53.504622 
L 207.135985 49.776766 
L 209.633602 45.339131 
L 210.88241 43.492043 
L 211.923083 42.289527 
L 212.755622 41.604116 
L 213.588161 41.201562 
L 214.212565 41.102052 
L 214.83697 41.186131 
L 215.461374 41.46013 
L 216.293913 42.126701 
L 217.126451 43.137514 
L 217.95899 44.48369 
L 218.999664 46.609065 
L 220.248472 49.731275 
L 221.91355 54.629651 
L 226.700649 69.365362 
L 227.949457 72.262033 
L 228.990131 74.071836 
L 229.82267 75.054143 
L 230.447074 75.492967 
L 231.071478 75.662042 
L 231.695882 75.552193 
L 232.320286 75.15797 
L 232.94469 74.477797 
L 233.777229 73.130836 
L 234.609768 71.297125 
L 235.650442 68.366597 
L 236.89925 64.028682 
L 238.356193 58.090027 
L 241.686349 43.119572 
L 243.351426 36.270588 
L 244.600235 31.990618 
L 245.640908 29.197333 
L 246.473447 27.560959 
L 247.097851 26.717368 
L 247.722256 26.221806 
L 248.138525 26.091112 
L 248.554794 26.123255 
L 248.971064 26.319817 
L 249.595468 26.924011 
L 250.219872 27.897188 
L 251.052411 29.755693 
L 251.88495 32.226256 
L 252.925624 36.10372 
L 254.174432 41.749735 
L 255.83951 50.510496 
L 260.418474 75.551962 
L 261.667282 80.92 
L 262.707956 84.449742 
L 263.540494 86.548251 
L 264.164899 87.659049 
L 264.789303 88.351228 
L 265.205572 88.573105 
L 265.621842 88.60002 
L 266.038111 88.430413 
L 266.454381 88.063873 
L 267.078785 87.146772 
L 267.703189 85.79596 
L 268.535728 83.343967 
L 269.368267 80.192326 
L 270.40894 75.368349 
L 271.657749 68.498087 
L 273.530961 56.703911 
L 277.069251 34.003965 
L 278.526194 26.296255 
L 279.566868 21.88772 
L 280.399407 19.154793 
L 281.231946 17.204795 
L 281.85635 16.288437 
L 282.272619 15.946606 
L 282.688889 15.823663 
L 283.105158 15.921292 
L 283.521428 16.239896 
L 284.145832 17.129836 
L 284.770236 18.506237 
L 285.602775 21.071514 
L 286.435314 24.421837 
L 287.475987 29.603343 
L 288.724796 37.040103 
L 290.389874 48.400823 
L 294.552568 77.472454 
L 295.801376 84.516365 
L 296.84205 89.261153 
L 297.674589 92.189716 
L 298.507128 94.268797 
L 299.131532 95.238605 
L 299.547801 95.595861 
L 299.964071 95.718499 
L 300.38034 95.60531 
L 300.79661 95.256454 
L 301.421014 94.295025 
L 302.045418 92.818036 
L 302.877957 90.078283 
L 303.710496 86.514178 
L 304.751169 81.022387 
L 305.999978 73.171732 
L 307.87319 59.671657 
L 311.41148 33.660172 
L 312.868423 24.786287 
L 313.909097 19.668977 
L 314.741636 16.454514 
L 315.574175 14.103698 
L 316.198579 12.940937 
L 316.822983 12.310258 
L 317.239253 12.189765 
L 317.655522 12.310258 
L 318.071792 12.671039 
L 318.696196 13.657787 
L 319.3206 15.167258 
L 320.153139 17.957996 
L 320.985678 21.577529 
L 322.026351 27.137991 
L 323.27516 35.059807 
L 325.148372 48.621938 
L 328.686662 74.560818 
L 330.143605 83.347171 
L 331.184279 88.39475 
L 332.016818 91.555424 
L 332.849357 93.859243 
L 333.473761 94.994077 
L 334.098165 95.60531 
L 334.514435 95.718499 
L 334.930704 95.595861 
L 335.346973 95.238605 
L 335.971378 94.268797 
L 336.595782 92.791499 
L 337.428321 90.069345 
L 338.26086 86.549531 
L 339.301533 81.158899 
L 340.550341 73.506081 
L 342.423554 60.465461 
L 345.753709 37.040103 
L 347.210653 28.485852 
L 348.251326 23.514252 
L 349.083865 20.354212 
L 349.916404 17.994173 
L 350.540808 16.778588 
L 351.165212 16.052997 
L 351.581482 15.84485 
L 351.997751 15.857638 
L 352.414021 16.090316 
L 352.83029 16.540561 
L 353.454694 17.615702 
L 354.079098 19.154793 
L 354.911637 21.88772 
L 355.952311 26.296255 
L 357.201119 32.81085 
L 358.866197 42.979534 
L 363.445161 72.063027 
L 364.693969 78.373589 
L 365.734643 82.619422 
L 366.567182 85.251435 
L 367.399721 87.146772 
L 368.024125 88.063873 
L 368.648529 88.539835 
L 369.064798 88.611057 
L 369.481068 88.486395 
L 369.897337 88.167976 
L 370.521741 87.334461 
L 371.146146 86.08811 
L 371.978684 83.820821 
L 373.019358 80.104516 
L 374.268166 74.55655 
L 375.725109 66.986064 
L 380.928477 38.805143 
L 382.177286 33.677268 
L 383.217959 30.317492 
L 384.050498 28.302489 
L 384.883037 26.924011 
L 385.507441 26.319817 
L 386.131845 26.086708 
L 386.548115 26.136241 
L 387.172519 26.512803 
L 387.796923 27.242046 
L 388.421327 28.308538 
L 389.253866 30.220527 
L 390.29454 33.315329 
L 391.543348 37.881377 
L 393.208426 44.96403 
L 397.37112 63.230822 
L 398.619929 67.701778 
L 399.660602 70.765825 
L 400.701276 73.130836 
L 401.533815 74.477797 
L 402.158219 75.15797 
L 402.782623 75.552193 
L 403.407027 75.662042 
L 404.031432 75.492967 
L 404.655836 75.054143 
L 405.28024 74.358256 
L 406.112779 73.058522 
L 407.153452 70.902137 
L 408.402261 67.677374 
L 410.067338 62.64626 
L 414.230033 49.731275 
L 415.478841 46.609065 
L 416.519515 44.48369 
L 417.560188 42.852861 
L 418.392727 41.927648 
L 419.225266 41.347415 
L 419.84967 41.13726 
L 420.474075 41.115212 
L 421.098479 41.274063 
L 421.931018 41.750172 
L 422.763557 42.501237 
L 423.80423 43.772598 
L 425.053038 45.680306 
L 426.926251 49.006818 
L 429.840137 54.191086 
L 431.29708 56.333881 
L 432.545888 57.773878 
L 433.586562 58.65182 
L 434.627236 59.223244 
L 435.459775 59.462184 
L 436.500448 59.5037 
L 437.541122 59.289228 
L 438.78993 58.755276 
L 440.246873 57.867642 
L 444.409568 55.161503 
L 445.658376 54.665596 
L 446.907184 54.429424 
L 447.947858 54.449365 
L 448.988531 54.665596 
L 450.23734 55.161503 
L 451.694283 55.998367 
L 456.689516 59.141073 
L 457.73019 59.446456 
L 458.770863 59.5118 
L 459.603402 59.366461 
L 460.435941 59.03153 
L 461.476615 58.337128 
L 462.517288 57.339008 
L 463.766097 55.767957 
L 465.22304 53.504622 
L 467.304387 49.776766 
L 469.802004 45.339131 
L 471.050812 43.492043 
L 472.091486 42.289527 
L 472.924024 41.604116 
L 473.756563 41.201562 
L 474.380967 41.102052 
L 475.005372 41.186131 
L 475.629776 41.46013 
L 476.462315 42.126701 
L 477.294854 43.137514 
L 478.127392 44.48369 
L 479.168066 46.609065 
L 480.416874 49.731275 
L 482.081952 54.629651 
L 486.869051 69.365362 
L 488.117859 72.262033 
L 489.158533 74.071836 
L 489.991072 75.054143 
L 490.615476 75.492967 
L 491.23988 75.662042 
L 491.864284 75.552193 
L 492.488688 75.15797 
L 493.113092 74.477797 
L 493.945631 73.130836 
L 494.77817 71.297125 
L 495.818844 68.366597 
L 497.067652 64.028682 
L 498.524595 58.090027 
L 501.854751 43.119572 
L 503.519829 36.270588 
L 504.768637 31.990618 
L 505.80931 29.197333 
L 506.641849 27.560959 
L 507.266254 26.717368 
L 507.890658 26.221806 
L 508.306927 26.091112 
L 508.723197 26.123255 
L 509.139466 26.319817 
L 509.76387 26.924011 
L 510.388274 27.897188 
L 511.220813 29.755693 
L 512.053352 32.226256 
L 513.094026 36.10372 
L 514.342834 41.749735 
L 516.007912 50.510496 
L 520.586876 75.551962 
L 521.835684 80.92 
L 522.876358 84.449742 
L 523.708897 86.548251 
L 524.333301 87.659049 
L 524.957705 88.351228 
L 525.373974 88.573105 
L 525.790244 88.60002 
L 526.206513 88.430413 
L 526.622783 88.063873 
L 527.247187 87.146772 
L 527.871591 85.79596 
L 528.70413 83.343967 
L 529.536669 80.192326 
L 530.577342 75.368349 
L 531.826151 68.498087 
L 533.699363 56.703911 
L 537.237653 34.003965 
L 538.694596 26.296255 
L 539.73527 21.88772 
L 540.567809 19.154793 
L 541.400348 17.204795 
L 542.024752 16.288437 
L 542.441021 15.946606 
L 542.857291 15.823663 
L 543.27356 15.921292 
L 543.68983 16.239896 
L 544.314234 17.129836 
L 544.938638 18.506237 
L 545.771177 21.071514 
L 546.603716 24.421837 
L 547.64439 29.603343 
L 548.893198 37.040103 
L 550.558276 48.400823 
L 554.72097 77.472454 
L 555.969778 84.516365 
L 557.010452 89.261153 
L 557.842991 92.189716 
L 558.67553 94.268797 
L 559.299934 95.238605 
L 559.716203 95.595861 
L 560.132473 95.718499 
L 560.548742 95.60531 
L 560.965012 95.256454 
L 561.589416 94.295025 
L 562.21382 92.818036 
L 563.046359 90.078283 
L 563.878898 86.514178 
L 564.919571 81.022387 
L 566.16838 73.171732 
L 568.041592 59.671657 
L 571.579883 33.660172 
L 573.036826 24.786287 
L 574.077499 19.668977 
L 574.910038 16.454514 
L 575.742577 14.103698 
L 576.366981 12.940937 
L 576.991385 12.310258 
L 577.19952 12.219899 
L 577.19952 12.219899 
" clip-path="url(#p138680f2e0)" style="fill: none; stroke: #0271ae; stroke-width: 2; stroke-linecap: round"/>
   </g>
  </g>
 </g>
 <defs>
  <clipPath id="p138680f2e0">
   <rect x="57.070851" y="8.013328" width="520.128669" height="91.881608"/>
  </clipPath>
 </defs>
</svg>