<?xml version="1.0" encoding="utf-8" standalone="no"?>
<!DOCTYPE svg PUBLIC "-//W3C//DTD SVG 1.1//EN"
  "http://www.w3.org/Graphics/SVG/1.1/DTD/svg11.dtd">
<svg xmlns:xlink="http://www.w3.org/1999/xlink" width="440.338941pt" height="224.39952pt" viewBox="0 0 440.338941 224.39952" xmlns="http://www.w3.org/2000/svg" version="1.1">
 <metadata>
  <rdf:RDF xmlns:dc="http://purl.org/dc/elements/1.1/" xmlns:cc="http://creativecommons.org/ns#" xmlns:rdf="http://www.w3.org/1999/02/22-rdf-syntax-ns#">
   <cc:Work>
    <dc:type rdf:resource="http://purl.org/dc/dcmitype/StillImage"/>
    <dc:date>2022-07-26T12:36:51.394264</dc:date>
    <dc:format>image/svg+xml</dc:format>
    <dc:creator>
     <cc:Agent>
      <dc:title>Matplotlib v3.5.2, https://matplotlib.org/</dc:title>
     </cc:Agent>
    </dc:creator>
   </cc:Work>
  </rdf:RDF>
 </metadata>
 <defs>
  <style type="text/css">*{stroke-linejoin: round; stroke-linecap: butt}</style>
 </defs>
 <g id="figure_1">
  <g id="patch_1">
   <path d="M 0 224.39952 
L 440.338941 224.39952 
L 440.338941 0 
L 0 0 
L 0 224.39952 
z
" style="fill: none"/>
  </g>
  <g id="axes_1">
   <g id="patch_2">
    <path d="M 58.580311 171.861659 
L 225.430857 171.861659 
L 225.430857 24.100119 
L 58.580311 24.100119 
L 58.580311 171.861659 
z
" style="fill: none"/>
   </g>
   <g id="matplotlib.axis_1">
    <g id="xtick_1">
     <g id="line2d_1">
      <path d="M 58.580311 171.861659 
L 58.580311 24.100119 
" clip-path="url(#pedb8e19884)" style="fill: none; stroke: #000000; stroke-opacity: 0.2; stroke-width: 0.5; stroke-linecap: round"/>
     </g>
     <g id="line2d_2">
      <defs>
       <path id="m7f11b1bb96" d="M 0 0 
L 0 3.5 
" style="stroke: #000000; stroke-opacity: 0.2; stroke-width: 0.5"/>
      </defs>
      <g>
       <use xlink:href="#m7f11b1bb96" x="58.580311" y="171.861659" style="fill-opacity: 0.2; stroke: #000000; stroke-opacity: 0.2; stroke-width: 0.5"/>
      </g>
     </g>
     <g id="text_1">
      <!-- $\mathdefault{0.000}$ -->
      <g transform="translate(42.889153 197.341188)scale(0.14 -0.14)">
       <defs>
        <path id="URWPalladioL-Roma-30" d="M 1683 4416 
C 691 4416 186 3628 186 2076 
C 186 1326 320 679 544 365 
C 768 51 1126 -128 1523 -128 
C 2490 -128 2976 704 2976 2345 
C 2976 3749 2560 4416 1683 4416 
z
M 1568 4191 
C 2189 4191 2438 3563 2438 2025 
C 2438 660 2195 96 1606 96 
C 986 96 723 743 723 2307 
C 723 3660 960 4191 1568 4191 
z
" transform="scale(0.015625)"/>
        <path id="URWPalladioL-Roma-2e" d="M 794 678 
C 602 678 429 499 429 307 
C 429 115 602 -64 787 -64 
C 992 -64 1171 108 1171 307 
C 1171 499 992 678 794 678 
z
" transform="scale(0.015625)"/>
       </defs>
       <use xlink:href="#URWPalladioL-Roma-30" transform="scale(0.996264)"/>
       <use xlink:href="#URWPalladioL-Roma-2e" transform="translate(49.8132 0)scale(0.996264)"/>
       <use xlink:href="#URWPalladioL-Roma-30" transform="translate(74.719801 0)scale(0.996264)"/>
       <use xlink:href="#URWPalladioL-Roma-30" transform="translate(124.533001 0)scale(0.996264)"/>
       <use xlink:href="#URWPalladioL-Roma-30" transform="translate(174.346202 0)scale(0.996264)"/>
      </g>
     </g>
    </g>
    <g id="xtick_2">
     <g id="line2d_3">
      <path d="M 130.577464 171.861659 
L 130.577464 24.100119 
" clip-path="url(#pedb8e19884)" style="fill: none; stroke: #000000; stroke-opacity: 0.2; stroke-width: 0.5; stroke-linecap: round"/>
     </g>
     <g id="line2d_4">
      <g>
       <use xlink:href="#m7f11b1bb96" x="130.577464" y="171.861659" style="fill-opacity: 0.2; stroke: #000000; stroke-opacity: 0.2; stroke-width: 0.5"/>
      </g>
     </g>
     <g id="text_2">
      <!-- $\mathdefault{0.005}$ -->
      <g transform="translate(114.886306 197.341188)scale(0.14 -0.14)">
       <defs>
        <path id="URWPalladioL-Roma-35" d="M 813 3891 
C 1638 3865 1997 3859 2765 3859 
L 2797 3891 
C 2784 4006 2784 4057 2784 4140 
C 2784 4230 2784 4281 2797 4396 
L 2765 4428 
C 2285 4403 1997 4396 1651 4396 
C 1299 4396 1018 4403 538 4428 
L 506 4396 
C 512 4006 518 3724 518 3520 
C 518 2976 499 2360 480 2076 
L 608 2038 
C 909 2341 1082 2432 1395 2432 
C 2010 2432 2394 1992 2394 1295 
C 2394 579 1984 160 1286 160 
C 941 160 621 276 531 443 
L 237 973 
L 83 882 
C 230 514 307 308 397 25 
C 576 -71 832 -128 1107 -128 
C 1536 -128 1990 57 2342 366 
C 2733 715 2938 1153 2938 1631 
C 2938 2360 2419 2873 1690 2873 
C 1382 2873 1152 2790 755 2553 
L 813 3891 
z
" transform="scale(0.015625)"/>
       </defs>
       <use xlink:href="#URWPalladioL-Roma-30" transform="scale(0.996264)"/>
       <use xlink:href="#URWPalladioL-Roma-2e" transform="translate(49.8132 0)scale(0.996264)"/>
       <use xlink:href="#URWPalladioL-Roma-30" transform="translate(74.719801 0)scale(0.996264)"/>
       <use xlink:href="#URWPalladioL-Roma-30" transform="translate(124.533001 0)scale(0.996264)"/>
       <use xlink:href="#URWPalladioL-Roma-35" transform="translate(174.346202 0)scale(0.996264)"/>
      </g>
     </g>
    </g>
    <g id="xtick_3">
     <g id="line2d_5">
      <path d="M 202.574618 171.861659 
L 202.574618 24.100119 
" clip-path="url(#pedb8e19884)" style="fill: none; stroke: #000000; stroke-opacity: 0.2; stroke-width: 0.5; stroke-linecap: round"/>
     </g>
     <g id="line2d_6">
      <g>
       <use xlink:href="#m7f11b1bb96" x="202.574618" y="171.861659" style="fill-opacity: 0.2; stroke: #000000; stroke-opacity: 0.2; stroke-width: 0.5"/>
      </g>
     </g>
     <g id="text_3">
      <!-- $\mathdefault{0.010}$ -->
      <g transform="translate(186.88346 197.341188)scale(0.14 -0.14)">
       <defs>
        <path id="URWPalladioL-Roma-31" d="M 429 3571 
L 493 3571 
L 1318 3942 
C 1325 3949 1331 3949 1338 3949 
C 1376 3949 1389 3891 1389 3737 
L 1389 633 
C 1389 300 1318 230 973 211 
L 614 192 
L 614 0 
C 1600 0 1600 0 1670 0 
C 1754 0 1894 0 2112 -7 
C 2189 6 2413 6 2675 0 
L 2675 192 
L 2342 211 
C 1990 229 1926 299 1926 628 
L 1926 4383 
L 1837 4416 
C 1421 4199 966 4009 384 3807 
L 429 3571 
z
" transform="scale(0.015625)"/>
       </defs>
       <use xlink:href="#URWPalladioL-Roma-30" transform="scale(0.996264)"/>
       <use xlink:href="#URWPalladioL-Roma-2e" transform="translate(49.8132 0)scale(0.996264)"/>
       <use xlink:href="#URWPalladioL-Roma-30" transform="translate(74.719801 0)scale(0.996264)"/>
       <use xlink:href="#URWPalladioL-Roma-31" transform="translate(124.533001 0)scale(0.996264)"/>
       <use xlink:href="#URWPalladioL-Roma-30" transform="translate(174.346202 0)scale(0.996264)"/>
      </g>
     </g>
    </g>
    <g id="text_4">
     <!-- Time [seconds] -->
     <g transform="translate(102.332732 213.828236)scale(0.12 -0.12)">
      <defs>
       <path id="URWPalladioL-Roma-54" d="M 1632 4096 
C 1651 3880 1658 3734 1658 3462 
L 1658 781 
C 1658 280 1626 230 1331 211 
L 1024 192 
L 1024 0 
C 1402 -7 1626 0 1958 0 
C 2291 19 2522 12 2899 0 
L 2899 192 
L 2592 211 
C 2298 230 2266 280 2266 781 
L 2266 3462 
C 2266 3747 2272 3887 2291 4096 
L 3283 4096 
C 3462 4096 3533 4039 3539 3887 
L 3565 3386 
L 3763 3386 
C 3763 3801 3776 4051 3808 4416 
C 3347 4409 3136 4409 2957 4403 
C 2707 4390 2522 4390 2426 4390 
L 1414 4390 
C 1350 4390 1005 4396 550 4403 
L 115 4416 
C 147 4051 160 3801 160 3385 
L 358 3385 
L 384 3891 
C 390 4038 461 4096 640 4096 
L 1632 4096 
z
" transform="scale(0.015625)"/>
       <path id="URWPalladioL-Roma-69" d="M 1203 2982 
L 1146 3008 
C 819 2873 486 2784 147 2746 
L 147 2568 
L 384 2568 
C 640 2568 666 2523 666 2103 
L 666 669 
C 666 268 646 223 429 211 
L 134 192 
L 134 0 
C 774 0 774 0 934 0 
C 1094 19 1094 19 1734 0 
L 1734 192 
L 1440 211 
C 1222 224 1203 268 1203 671 
L 1203 2982 
z
M 909 4416 
C 717 4416 550 4249 550 4057 
C 550 3871 717 3705 902 3705 
C 1088 3705 1261 3871 1261 4057 
C 1261 4236 1088 4416 909 4416 
z
" transform="scale(0.015625)"/>
       <path id="URWPalladioL-Roma-6d" d="M 115 2579 
L 352 2579 
C 608 2579 634 2534 634 2112 
L 634 672 
C 634 268 614 224 397 211 
L 102 192 
L 102 0 
C 717 0 736 0 915 0 
C 1094 19 1261 12 1677 0 
L 1677 192 
L 1408 211 
C 1190 223 1171 268 1171 670 
L 1171 2023 
C 1171 2311 1594 2624 1978 2624 
C 2323 2624 2560 2298 2560 1813 
L 2560 670 
C 2560 268 2541 223 2323 211 
L 2029 192 
L 2029 0 
C 2669 0 2669 0 2829 0 
C 2989 19 2989 19 3629 0 
L 3629 192 
L 3334 211 
C 3117 223 3098 268 3098 670 
L 3098 2023 
C 3098 2311 3520 2624 3904 2624 
C 4250 2624 4486 2298 4486 1813 
L 4486 0 
C 4877 0 4883 0 4992 0 
C 5075 19 5075 19 5562 0 
L 5562 192 
L 5261 211 
C 5043 223 5024 268 5024 670 
L 5024 1985 
C 5024 2617 4653 3014 4064 3014 
C 3840 3014 3654 2956 3539 2854 
L 3053 2419 
C 2848 2841 2586 3014 2144 3014 
C 1907 3014 1728 2956 1613 2854 
L 1171 2445 
L 1171 2988 
L 1114 3008 
C 787 2873 454 2783 115 2745 
L 115 2579 
z
" transform="scale(0.015625)"/>
       <path id="URWPalladioL-Roma-65" d="M 2797 447 
L 2714 511 
C 2304 268 2157 211 1882 211 
C 1466 211 1120 396 941 710 
C 819 921 774 1100 762 1472 
L 1696 1472 
C 2138 1472 2413 1491 2854 1561 
C 2861 1651 2867 1708 2867 1786 
C 2867 2526 2394 3008 1677 3008 
C 1440 3008 1165 2924 902 2771 
C 378 2468 166 2069 166 1401 
C 166 998 262 652 435 409 
C 691 70 1120 -128 1600 -128 
C 1837 -128 2074 -77 2336 38 
C 2509 108 2643 192 2669 230 
L 2797 447 
z
M 2298 1708 
C 1965 1696 1811 1689 1581 1689 
C 1286 1689 1120 1696 774 1728 
C 774 2030 800 2172 883 2339 
C 1018 2623 1293 2796 1600 2796 
C 1811 2796 1978 2713 2093 2539 
C 2234 2326 2278 2140 2298 1708 
z
" transform="scale(0.015625)"/>
       <path id="URWPalladioL-Roma-5b" d="M 563 -1178 
C 1018 -1166 1030 -1166 1184 -1166 
C 1338 -1166 1370 -1166 1805 -1178 
L 1843 -1140 
L 1843 -974 
L 1818 -942 
L 1574 -942 
C 1402 -942 1261 -903 1184 -839 
C 1126 -782 1107 -692 1107 -481 
C 1107 -474 1107 -340 1101 -148 
L 1101 89 
L 1101 3379 
L 1101 3615 
C 1107 3795 1107 3935 1107 3942 
C 1107 4153 1126 4249 1184 4307 
C 1261 4371 1402 4409 1574 4409 
L 1818 4409 
L 1843 4441 
L 1843 4608 
L 1805 4646 
C 1357 4633 1338 4633 1184 4633 
C 1037 4633 1005 4633 563 4646 
L 506 4563 
C 544 4403 557 4191 557 3699 
C 557 3603 557 3526 563 3462 
L 563 3379 
L 563 89 
L 563 6 
C 557 -97 557 -103 557 -212 
L 557 -282 
C 557 -718 544 -897 506 -1095 
L 563 -1178 
z
" transform="scale(0.015625)"/>
       <path id="URWPalladioL-Roma-73" d="M 262 917 
C 262 474 243 282 192 25 
C 525 -84 774 -128 1069 -128 
C 1907 -128 2502 320 2502 949 
C 2502 1148 2445 1295 2323 1423 
C 2157 1584 1946 1661 1382 1770 
C 858 1872 685 2001 685 2296 
C 685 2617 909 2796 1299 2796 
C 1728 2796 2054 2572 2054 2270 
L 2054 2123 
L 2234 2123 
C 2240 2495 2246 2649 2266 2847 
C 1926 2963 1696 3008 1434 3008 
C 691 3008 237 2655 237 2078 
C 237 1770 378 1552 672 1417 
C 845 1340 1184 1237 1619 1141 
C 1907 1077 2029 942 2029 698 
C 2029 352 1709 108 1254 108 
C 787 108 454 333 454 654 
L 454 917 
L 262 917 
z
" transform="scale(0.015625)"/>
       <path id="URWPalladioL-Roma-63" d="M 2554 1995 
C 2554 2290 2586 2553 2643 2783 
C 2387 2937 2163 3008 1901 3008 
C 1594 3008 1235 2886 851 2643 
C 403 2360 166 1911 166 1347 
C 166 480 774 -128 1632 -128 
C 1965 -128 2445 -7 2509 89 
L 2643 294 
L 2579 390 
C 2342 262 2138 204 1907 204 
C 1197 204 730 756 730 1603 
C 730 2290 1050 2675 1626 2675 
C 1907 2675 2214 2547 2330 2386 
L 2374 1995 
L 2554 1995 
z
" transform="scale(0.015625)"/>
       <path id="URWPalladioL-Roma-6f" d="M 1786 3008 
C 851 3008 205 2347 205 1391 
C 205 487 774 -128 1600 -128 
C 2586 -128 3290 557 3290 1520 
C 3290 2386 2662 3008 1786 3008 
z
M 1670 2796 
C 2259 2796 2694 2155 2694 1282 
C 2694 545 2368 83 1850 83 
C 1222 83 800 699 800 1609 
C 800 2379 1107 2796 1670 2796 
z
" transform="scale(0.015625)"/>
       <path id="URWPalladioL-Roma-6e" d="M 2624 0 
C 3014 0 3021 0 3130 0 
C 3219 19 3219 19 3661 0 
L 3661 192 
L 3398 211 
C 3181 223 3162 262 3162 670 
L 3162 1902 
C 3162 2649 2810 3014 2093 3014 
C 1856 3014 1722 2969 1587 2854 
L 1101 2432 
L 1101 2988 
L 1043 3008 
C 717 2873 384 2784 45 2746 
L 45 2568 
L 282 2568 
C 538 2568 563 2523 563 2103 
L 563 669 
C 563 268 544 223 326 211 
L 38 192 
L 38 0 
C 474 -7 646 0 832 0 
C 1018 19 1190 12 1626 0 
L 1626 192 
L 1338 211 
C 1120 223 1101 268 1101 670 
L 1101 2023 
C 1101 2311 1523 2624 1914 2624 
C 2342 2624 2624 2304 2624 1813 
L 2624 0 
z
" transform="scale(0.015625)"/>
       <path id="URWPalladioL-Roma-64" d="M 2637 2803 
C 2278 2956 2099 3008 1875 3008 
C 1702 3008 1549 2969 1389 2886 
L 826 2592 
C 461 2400 224 1934 224 1392 
C 224 881 397 460 710 204 
C 928 19 1229 -64 1645 -64 
C 1773 -64 1920 -39 1952 -13 
L 2662 581 
L 2630 0 
C 2944 -7 3046 0 3123 0 
C 3174 0 3264 0 3398 -7 
C 3443 6 3571 6 3706 0 
L 3706 192 
L 3411 211 
C 3194 224 3174 268 3174 672 
L 3174 4614 
L 3117 4665 
C 2835 4557 2624 4505 2118 4429 
L 2118 4249 
L 2477 4249 
C 2592 4249 2637 4179 2637 3987 
L 2637 2803 
z
M 2637 1424 
C 2637 1009 2624 945 2541 798 
C 2362 498 2048 300 1747 300 
C 1184 300 781 843 781 1602 
C 781 2298 1126 2707 1702 2707 
C 1946 2707 2202 2624 2426 2470 
C 2560 2381 2637 2298 2637 2247 
L 2637 1424 
z
" transform="scale(0.015625)"/>
       <path id="URWPalladioL-Roma-5d" d="M 1568 4646 
C 1114 4633 1094 4633 947 4633 
C 794 4633 762 4633 326 4646 
L 288 4608 
L 288 4441 
L 314 4409 
L 557 4409 
C 730 4409 864 4371 941 4307 
C 1005 4249 1024 4159 1024 3942 
C 1024 3923 1024 3795 1030 3615 
L 1030 3379 
L 1030 89 
L 1030 -148 
C 1024 -334 1024 -449 1024 -468 
C 1024 -686 1005 -782 941 -839 
C 864 -903 730 -942 557 -942 
L 314 -942 
L 288 -974 
L 288 -1140 
L 326 -1178 
C 774 -1166 787 -1166 947 -1166 
C 1094 -1166 1126 -1166 1568 -1178 
L 1626 -1095 
C 1587 -942 1581 -743 1574 -250 
C 1574 -161 1574 -78 1568 6 
L 1568 89 
L 1568 3379 
L 1568 3462 
C 1574 3532 1574 3615 1574 3705 
C 1574 4198 1587 4409 1626 4563 
L 1568 4646 
z
" transform="scale(0.015625)"/>
      </defs>
      <use xlink:href="#URWPalladioL-Roma-54" transform="scale(0.996264)"/>
      <use xlink:href="#URWPalladioL-Roma-69" transform="translate(55.591109 0)scale(0.996264)"/>
      <use xlink:href="#URWPalladioL-Roma-6d" transform="translate(84.581471 0)scale(0.996264)"/>
      <use xlink:href="#URWPalladioL-Roma-65" transform="translate(172.551145 0)scale(0.996264)"/>
      <use xlink:href="#URWPalladioL-Roma-5b" transform="translate(245.17804 0)scale(0.996264)"/>
      <use xlink:href="#URWPalladioL-Roma-73" transform="translate(278.35327 0)scale(0.996264)"/>
      <use xlink:href="#URWPalladioL-Roma-65" transform="translate(320.594736 0)scale(0.996264)"/>
      <use xlink:href="#URWPalladioL-Roma-63" transform="translate(368.315031 0)scale(0.996264)"/>
      <use xlink:href="#URWPalladioL-Roma-6f" transform="translate(412.5486 0)scale(0.996264)"/>
      <use xlink:href="#URWPalladioL-Roma-6e" transform="translate(466.94418 0)scale(0.996264)"/>
      <use xlink:href="#URWPalladioL-Roma-64" transform="translate(524.926241 0)scale(0.996264)"/>
      <use xlink:href="#URWPalladioL-Roma-73" transform="translate(585.797872 0)scale(0.996264)"/>
      <use xlink:href="#URWPalladioL-Roma-5d" transform="translate(628.039338 0)scale(0.996264)"/>
     </g>
    </g>
   </g>
   <g id="matplotlib.axis_2">
    <g id="ytick_1">
     <g id="line2d_7">
      <path d="M 58.580311 166.047821 
L 225.430857 166.047821 
" clip-path="url(#pedb8e19884)" style="fill: none; stroke: #000000; stroke-opacity: 0.2; stroke-width: 0.5; stroke-linecap: round"/>
     </g>
     <g id="line2d_8">
      <defs>
       <path id="m1e65582a93" d="M 0 0 
L -3.5 0 
" style="stroke: #000000; stroke-opacity: 0.2; stroke-width: 0.5"/>
      </defs>
      <g>
       <use xlink:href="#m1e65582a93" x="58.580311" y="166.047821" style="fill-opacity: 0.2; stroke: #000000; stroke-opacity: 0.2; stroke-width: 0.5"/>
      </g>
     </g>
     <g id="text_5">
      <!-- $\mathdefault{−0.02}$ -->
      <g transform="translate(7.2 171.037586)scale(0.14 -0.14)">
       <defs>
        <path id="CMSY10-0" d="M 4218 1472 
C 4326 1472 4442 1472 4442 1600 
C 4442 1728 4326 1728 4218 1728 
L 755 1728 
C 646 1728 531 1728 531 1600 
C 531 1472 646 1472 755 1472 
L 4218 1472 
z
" transform="scale(0.015625)"/>
        <path id="URWPalladioL-Roma-32" d="M 102 166 
L 102 0 
C 1299 0 1299 0 1530 0 
C 1760 19 1760 19 2995 0 
C 2982 134 2982 198 2982 287 
C 2982 370 2982 434 2995 574 
C 2259 542 1965 536 781 510 
L 1946 1741 
C 2566 2398 2758 2749 2758 3228 
C 2758 3961 2259 4416 1446 4416 
C 986 4416 672 4287 358 3967 
L 250 3100 
L 435 3100 
L 518 3394 
C 621 3763 851 3923 1280 3923 
C 1830 3923 2182 3578 2182 3036 
C 2182 2558 1914 2086 1190 1320 
L 102 166 
z
" transform="scale(0.015625)"/>
       </defs>
       <use xlink:href="#CMSY10-0" transform="scale(1.038107)"/>
       <use xlink:href="#URWPalladioL-Roma-30" transform="translate(81.941696 0)scale(0.996264)"/>
       <use xlink:href="#URWPalladioL-Roma-2e" transform="translate(131.754897 0)scale(0.996264)"/>
       <use xlink:href="#URWPalladioL-Roma-30" transform="translate(156.661497 0)scale(0.996264)"/>
       <use xlink:href="#URWPalladioL-Roma-32" transform="translate(206.474698 0)scale(0.996264)"/>
      </g>
     </g>
    </g>
    <g id="ytick_2">
     <g id="line2d_9">
      <path d="M 58.580311 134.449243 
L 225.430857 134.449243 
" clip-path="url(#pedb8e19884)" style="fill: none; stroke: #000000; stroke-opacity: 0.2; stroke-width: 0.5; stroke-linecap: round"/>
     </g>
     <g id="line2d_10">
      <g>
       <use xlink:href="#m1e65582a93" x="58.580311" y="134.449243" style="fill-opacity: 0.2; stroke: #000000; stroke-opacity: 0.2; stroke-width: 0.5"/>
      </g>
     </g>
     <g id="text_6">
      <!-- $\mathdefault{−0.01}$ -->
      <g transform="translate(7.2 139.439008)scale(0.14 -0.14)">
       <use xlink:href="#CMSY10-0" transform="scale(1.038107)"/>
       <use xlink:href="#URWPalladioL-Roma-30" transform="translate(81.941696 0)scale(0.996264)"/>
       <use xlink:href="#URWPalladioL-Roma-2e" transform="translate(131.754897 0)scale(0.996264)"/>
       <use xlink:href="#URWPalladioL-Roma-30" transform="translate(156.661497 0)scale(0.996264)"/>
       <use xlink:href="#URWPalladioL-Roma-31" transform="translate(206.474698 0)scale(0.996264)"/>
      </g>
     </g>
    </g>
    <g id="ytick_3">
     <g id="line2d_11">
      <path d="M 58.580311 102.850665 
L 225.430857 102.850665 
" clip-path="url(#pedb8e19884)" style="fill: none; stroke: #000000; stroke-opacity: 0.2; stroke-width: 0.5; stroke-linecap: round"/>
     </g>
     <g id="line2d_12">
      <g>
       <use xlink:href="#m1e65582a93" x="58.580311" y="102.850665" style="fill-opacity: 0.2; stroke: #000000; stroke-opacity: 0.2; stroke-width: 0.5"/>
      </g>
     </g>
     <g id="text_7">
      <!-- $\mathdefault{0.00}$ -->
      <g transform="translate(18.671843 107.840429)scale(0.14 -0.14)">
       <use xlink:href="#URWPalladioL-Roma-30" transform="scale(0.996264)"/>
       <use xlink:href="#URWPalladioL-Roma-2e" transform="translate(49.8132 0)scale(0.996264)"/>
       <use xlink:href="#URWPalladioL-Roma-30" transform="translate(74.719801 0)scale(0.996264)"/>
       <use xlink:href="#URWPalladioL-Roma-30" transform="translate(124.533001 0)scale(0.996264)"/>
      </g>
     </g>
    </g>
    <g id="ytick_4">
     <g id="line2d_13">
      <path d="M 58.580311 71.252087 
L 225.430857 71.252087 
" clip-path="url(#pedb8e19884)" style="fill: none; stroke: #000000; stroke-opacity: 0.2; stroke-width: 0.5; stroke-linecap: round"/>
     </g>
     <g id="line2d_14">
      <g>
       <use xlink:href="#m1e65582a93" x="58.580311" y="71.252087" style="fill-opacity: 0.2; stroke: #000000; stroke-opacity: 0.2; stroke-width: 0.5"/>
      </g>
     </g>
     <g id="text_8">
      <!-- $\mathdefault{0.01}$ -->
      <g transform="translate(18.671843 76.241851)scale(0.14 -0.14)">
       <use xlink:href="#URWPalladioL-Roma-30" transform="scale(0.996264)"/>
       <use xlink:href="#URWPalladioL-Roma-2e" transform="translate(49.8132 0)scale(0.996264)"/>
       <use xlink:href="#URWPalladioL-Roma-30" transform="translate(74.719801 0)scale(0.996264)"/>
       <use xlink:href="#URWPalladioL-Roma-31" transform="translate(124.533001 0)scale(0.996264)"/>
      </g>
     </g>
    </g>
    <g id="ytick_5">
     <g id="line2d_15">
      <path d="M 58.580311 39.653508 
L 225.430857 39.653508 
" clip-path="url(#pedb8e19884)" style="fill: none; stroke: #000000; stroke-opacity: 0.2; stroke-width: 0.5; stroke-linecap: round"/>
     </g>
     <g id="line2d_16">
      <g>
       <use xlink:href="#m1e65582a93" x="58.580311" y="39.653508" style="fill-opacity: 0.2; stroke: #000000; stroke-opacity: 0.2; stroke-width: 0.5"/>
      </g>
     </g>
     <g id="text_9">
      <!-- $\mathdefault{0.02}$ -->
      <g transform="translate(18.671843 44.643273)scale(0.14 -0.14)">
       <use xlink:href="#URWPalladioL-Roma-30" transform="scale(0.996264)"/>
       <use xlink:href="#URWPalladioL-Roma-2e" transform="translate(49.8132 0)scale(0.996264)"/>
       <use xlink:href="#URWPalladioL-Roma-30" transform="translate(74.719801 0)scale(0.996264)"/>
       <use xlink:href="#URWPalladioL-Roma-32" transform="translate(124.533001 0)scale(0.996264)"/>
      </g>
     </g>
    </g>
   </g>
   <g id="line2d_17">
    <path d="M 58.580311 68.810448 
L 58.906829 68.810448 
L 58.906829 64.085319 
L 59.233346 64.085319 
L 59.233346 57.431566 
L 59.559864 57.431566 
L 59.559864 49.234913 
L 59.886382 49.234913 
L 59.886382 40.17038 
L 60.212899 40.17038 
L 60.212899 33.130901 
L 60.539417 33.130901 
L 60.539417 32.359452 
L 60.865935 32.359452 
L 60.865935 41.423985 
L 61.192453 41.423985 
L 61.192453 60.710227 
L 61.51897 60.710227 
L 61.51897 87.32524 
L 61.845488 87.32524 
L 61.845488 115.483153 
L 62.172006 115.483153 
L 62.172006 139.108799 
L 62.498523 139.108799 
L 62.498523 155.116379 
L 62.825041 155.116379 
L 62.825041 163.216601 
L 63.151559 163.216601 
L 63.151559 164.663069 
L 63.478076 164.663069 
L 63.478076 161.384408 
L 63.804594 161.384408 
L 63.804594 155.309242 
L 64.131112 155.309242 
L 64.131112 147.884039 
L 64.45763 147.884039 
L 64.45763 139.880248 
L 64.784147 139.880248 
L 64.784147 131.780027 
L 65.110665 131.780027 
L 65.110665 123.872668 
L 65.437183 123.872668 
L 65.437183 116.83319 
L 65.7637 116.83319 
L 65.7637 111.143749 
L 66.090218 111.143749 
L 66.090218 106.611482 
L 66.416736 106.611482 
L 66.416736 103.622114 
L 66.743253 103.622114 
L 66.743253 102.657802 
L 67.069771 102.657802 
L 67.069771 103.139958 
L 67.396289 103.139958 
L 67.396289 104.972151 
L 67.722807 104.972151 
L 67.722807 107.093638 
L 68.049324 107.093638 
L 68.049324 108.925831 
L 68.375842 108.925831 
L 68.375842 109.69728 
L 68.70236 109.69728 
L 68.70236 109.504418 
L 69.028877 109.504418 
L 69.028877 108.347244 
L 69.355395 108.347244 
L 69.355395 106.900775 
L 69.681913 106.900775 
L 69.681913 105.550739 
L 70.00843 105.550739 
L 70.00843 104.007839 
L 70.334948 104.007839 
L 70.334948 102.947096 
L 70.661466 102.947096 
L 70.661466 102.272077 
L 70.987984 102.272077 
L 70.987984 102.561371 
L 71.314501 102.561371 
L 71.314501 103.043527 
L 71.641019 103.043527 
L 71.641019 104.10427 
L 71.967537 104.10427 
L 71.967537 105.165014 
L 72.294054 105.165014 
L 72.294054 106.129326 
L 72.620572 106.129326 
L 72.620572 106.900775 
L 72.94709 106.900775 
L 72.94709 107.575794 
L 73.273608 107.575794 
L 73.273608 108.154381 
L 73.600125 108.154381 
L 73.600125 108.925831 
L 73.926643 108.925831 
L 73.926643 109.890143 
L 74.253161 109.890143 
L 74.253161 110.46873 
L 74.579678 110.46873 
L 74.579678 110.854455 
L 74.906196 110.854455 
L 74.906196 111.336611 
L 75.232714 111.336611 
L 75.232714 112.011629 
L 75.885749 112.108061 
L 75.885749 111.722336 
L 76.212267 111.722336 
L 76.212267 111.336611 
L 76.538785 111.336611 
L 76.538785 110.758024 
L 76.865302 110.758024 
L 76.865302 109.986574 
L 77.19182 109.986574 
L 77.19182 108.8294 
L 77.518338 108.8294 
L 77.518338 107.575794 
L 77.844855 107.575794 
L 77.844855 105.936463 
L 78.171373 105.936463 
L 78.171373 103.911408 
L 78.497891 103.911408 
L 78.497891 101.597059 
L 78.824408 101.597059 
L 78.824408 99.089848 
L 79.150926 99.089848 
L 79.150926 96.293343 
L 79.477444 96.293343 
L 79.477444 92.91825 
L 79.803962 92.91825 
L 79.803962 89.157433 
L 80.130479 89.157433 
L 80.130479 85.493047 
L 80.456997 85.493047 
L 80.456997 82.117955 
L 80.783515 82.117955 
L 80.783515 79.032156 
L 81.110032 79.032156 
L 81.110032 76.332083 
L 81.43655 76.332083 
L 81.43655 73.72844 
L 81.763068 73.72844 
L 81.763068 70.642641 
L 82.089586 70.642641 
L 82.089586 66.399668 
L 82.416103 66.399668 
L 82.416103 60.324502 
L 82.742621 60.324502 
L 82.742621 52.513574 
L 83.069139 52.513574 
L 83.069139 43.641903 
L 83.395656 43.641903 
L 83.395656 35.541682 
L 83.722174 35.541682 
L 83.722174 31.973727 
L 84.048692 31.973727 
L 84.048692 37.181012 
L 84.375209 37.181012 
L 84.375209 52.802868 
L 84.701727 52.802868 
L 84.701727 77.103532 
L 85.028245 77.103532 
L 85.028245 105.165014 
L 85.354763 105.165014 
L 85.354763 130.719284 
L 85.68128 130.719284 
L 85.68128 149.426938 
L 86.007798 149.426938 
L 86.007798 160.323665 
L 86.334316 160.323665 
L 86.334316 163.98805 
L 86.660833 163.98805 
L 86.660833 162.252289 
L 86.987351 162.252289 
L 86.987351 157.141435 
L 87.313869 157.141435 
L 87.313869 150.39125 
L 87.640386 150.39125 
L 87.640386 142.676754 
L 87.966904 142.676754 
L 87.966904 134.769394 
L 88.293422 134.769394 
L 88.293422 127.054898 
L 88.61994 127.054898 
L 88.61994 119.918988 
L 88.946457 119.918988 
L 88.946457 113.843822 
L 89.272975 113.843822 
L 89.272975 109.022262 
L 89.599493 109.022262 
L 89.599493 105.454307 
L 89.92601 105.454307 
L 89.92601 103.525683 
L 90.579046 103.429252 
L 90.579046 104.586426 
L 90.905563 104.586426 
L 90.905563 106.611482 
L 91.232081 106.611482 
L 91.232081 108.347244 
L 91.558599 108.347244 
L 91.558599 109.311556 
L 92.211634 109.215124 
L 92.211634 108.540106 
L 92.538152 108.540106 
L 92.538152 106.997207 
L 92.86467 106.997207 
L 92.86467 105.64717 
L 93.191187 105.64717 
L 93.191187 104.393564 
L 93.517705 104.393564 
L 93.517705 103.332821 
L 93.844223 103.332821 
L 93.844223 102.657802 
L 94.497258 102.657802 
L 94.497258 103.139958 
L 94.823776 103.139958 
L 94.823776 104.10427 
L 95.150294 104.10427 
L 95.150294 105.068582 
L 95.476811 105.068582 
L 95.476811 106.129326 
L 95.803329 106.129326 
L 95.803329 106.997207 
L 96.129847 106.997207 
L 96.129847 107.672225 
L 96.456364 107.672225 
L 96.456364 108.250812 
L 96.782882 108.250812 
L 96.782882 108.925831 
L 97.1094 108.925831 
L 97.1094 109.600849 
L 97.435918 109.600849 
L 97.435918 110.083005 
L 97.762435 110.083005 
L 97.762435 110.372299 
L 98.088953 110.372299 
L 98.088953 110.950886 
L 98.415471 110.950886 
L 98.415471 111.336611 
L 98.741988 111.336611 
L 98.741988 111.529473 
L 99.068506 111.529473 
L 99.068506 111.24018 
L 99.395024 111.24018 
L 99.395024 110.758024 
L 99.721541 110.758024 
L 99.721541 110.179436 
L 100.048059 110.179436 
L 100.048059 109.69728 
L 100.374577 109.69728 
L 100.374577 108.732968 
L 100.701095 108.732968 
L 100.701095 107.2865 
L 101.027612 107.2865 
L 101.027612 105.550739 
L 101.35413 105.550739 
L 101.35413 104.007839 
L 101.680648 104.007839 
L 101.680648 102.368509 
L 102.007165 102.368509 
L 102.007165 100.150591 
L 102.333683 100.150591 
L 102.333683 97.546948 
L 102.660201 97.546948 
L 102.660201 94.654012 
L 102.986718 94.654012 
L 102.986718 91.375351 
L 103.313236 91.375351 
L 103.313236 87.710965 
L 103.639754 87.710965 
L 103.639754 84.14301 
L 103.966272 84.14301 
L 103.966272 81.057212 
L 104.292789 81.057212 
L 104.292789 78.260707 
L 104.619307 78.260707 
L 104.619307 75.560633 
L 104.945825 75.560633 
L 104.945825 72.571265 
L 105.272342 72.571265 
L 105.272342 68.810448 
L 105.59886 68.810448 
L 105.59886 63.796026 
L 105.925378 63.796026 
L 105.925378 57.142272 
L 106.251896 57.142272 
L 106.251896 48.849188 
L 106.578413 48.849188 
L 106.578413 39.881086 
L 106.904931 39.881086 
L 106.904931 33.420195 
L 107.231449 33.420195 
L 107.231449 33.80592 
L 107.557966 33.80592 
L 107.557966 44.316922 
L 107.884484 44.316922 
L 107.884484 64.856769 
L 108.211002 64.856769 
L 108.211002 91.953938 
L 108.537519 91.953938 
L 108.537519 119.533264 
L 108.864037 119.533264 
L 108.864037 141.712441 
L 109.190555 141.712441 
L 109.190555 156.273554 
L 109.517073 156.273554 
L 109.517073 163.313032 
L 109.84359 163.313032 
L 109.84359 163.891619 
L 110.170108 163.891619 
L 110.170108 159.93794 
L 110.496626 159.93794 
L 110.496626 153.766342 
L 110.823143 153.766342 
L 110.823143 146.341139 
L 111.149661 146.341139 
L 111.149661 138.43378 
L 111.476179 138.43378 
L 111.476179 130.42999 
L 111.802696 130.42999 
L 111.802696 122.715493 
L 112.129214 122.715493 
L 112.129214 115.868878 
L 112.455732 115.868878 
L 112.455732 110.275868 
L 112.78225 110.275868 
L 112.78225 105.936463 
L 113.108767 105.936463 
L 113.108767 103.23639 
L 113.435285 103.23639 
L 113.435285 102.561371 
L 113.761803 102.561371 
L 113.761803 103.429252 
L 114.08832 103.429252 
L 114.08832 105.550739 
L 114.414838 105.550739 
L 114.414838 107.672225 
L 114.741356 107.672225 
L 114.741356 109.215124 
L 115.067873 109.215124 
L 115.067873 109.793712 
L 115.394391 109.793712 
L 115.394391 109.215124 
L 115.720909 109.215124 
L 115.720909 108.05795 
L 116.047427 108.05795 
L 116.047427 106.515051 
L 116.373944 106.515051 
L 116.373944 105.068582 
L 116.700462 105.068582 
L 116.700462 103.622114 
L 117.02698 103.622114 
L 117.02698 102.850665 
L 117.353497 102.850665 
L 117.353497 102.561371 
L 117.680015 102.561371 
L 117.680015 103.043527 
L 118.006533 103.043527 
L 118.006533 104.007839 
L 118.333051 104.007839 
L 118.333051 104.972151 
L 118.659568 104.972151 
L 118.659568 105.936463 
L 118.986086 105.936463 
L 118.986086 106.611482 
L 119.312604 106.611482 
L 119.312604 106.997207 
L 119.639121 106.997207 
L 119.639121 107.479363 
L 119.965639 107.479363 
L 119.965639 108.05795 
L 120.292157 108.05795 
L 120.292157 108.8294 
L 120.618674 108.8294 
L 120.618674 109.407987 
L 120.945192 109.407987 
L 120.945192 109.986574 
L 121.27171 109.986574 
L 121.27171 110.565161 
L 121.598228 110.565161 
L 121.598228 111.433042 
L 121.924745 111.433042 
L 121.924745 112.204492 
L 122.251263 112.204492 
L 122.251263 112.397354 
L 122.577781 112.397354 
L 122.577781 112.011629 
L 122.904298 112.011629 
L 122.904298 111.143749 
L 123.230816 111.143749 
L 123.230816 109.69728 
L 123.557334 109.69728 
L 123.557334 108.05795 
L 123.883851 108.05795 
L 123.883851 106.418619 
L 124.210369 106.418619 
L 124.210369 105.165014 
L 124.536887 105.165014 
L 124.536887 103.814977 
L 124.863405 103.814977 
L 124.863405 102.272077 
L 125.189922 102.272077 
L 125.189922 100.536316 
L 125.51644 100.536316 
L 125.51644 98.607692 
L 125.842958 98.607692 
L 125.842958 96.004049 
L 126.169475 96.004049 
L 126.169475 92.725388 
L 126.495993 92.725388 
L 126.495993 89.061002 
L 126.822511 89.061002 
L 126.822511 85.493047 
L 127.149029 85.493047 
L 127.149029 82.407249 
L 127.475546 82.407249 
L 127.475546 79.707175 
L 127.802064 79.707175 
L 127.802064 77.199963 
L 128.128582 77.199963 
L 128.128582 74.692752 
L 128.455099 74.692752 
L 128.455099 71.414091 
L 128.781617 71.414091 
L 128.781617 66.688962 
L 129.108135 66.688962 
L 129.108135 59.938777 
L 129.434652 59.938777 
L 129.434652 51.549262 
L 129.76117 51.549262 
L 129.76117 42.099004 
L 130.087688 42.099004 
L 130.087688 34.57737 
L 130.414206 34.57737 
L 130.414206 32.841608 
L 130.740723 32.841608 
L 130.740723 40.459673 
L 131.067241 40.459673 
L 131.067241 57.913722 
L 131.393759 57.913722 
L 131.393759 82.985836 
L 131.720276 82.985836 
L 131.720276 110.661593 
L 132.046794 110.661593 
L 132.046794 134.576532 
L 132.373312 134.576532 
L 132.373312 151.355562 
L 132.699829 151.355562 
L 132.699829 160.709389 
L 133.026347 160.709389 
L 133.026347 163.216601 
L 133.352865 163.216601 
L 133.352865 160.902252 
L 133.679383 160.902252 
L 133.679383 155.502104 
L 134.0059 155.502104 
L 134.0059 148.655488 
L 134.332418 148.655488 
L 134.332418 140.940992 
L 134.658936 140.940992 
L 134.658936 133.130064 
L 134.985453 133.130064 
L 134.985453 125.415567 
L 135.311971 125.415567 
L 135.311971 118.568952 
L 135.638489 118.568952 
L 135.638489 112.590217 
L 135.965006 112.590217 
L 135.965006 107.865087 
L 136.291524 107.865087 
L 136.291524 104.393564 
L 136.618042 104.393564 
L 136.618042 102.850665 
L 137.271077 102.947096 
L 137.271077 104.489995 
L 137.597595 104.489995 
L 137.597595 106.515051 
L 137.924113 106.515051 
L 137.924113 108.250812 
L 138.25063 108.250812 
L 138.25063 109.118693 
L 138.903666 109.118693 
L 138.903666 108.250812 
L 139.230184 108.250812 
L 139.230184 107.093638 
L 139.556701 107.093638 
L 139.556701 105.743601 
L 139.883219 105.743601 
L 139.883219 104.489995 
L 140.209737 104.489995 
L 140.209737 103.429252 
L 140.536254 103.429252 
L 140.536254 102.850665 
L 141.18929 102.850665 
L 141.18929 103.429252 
L 141.515807 103.429252 
L 141.515807 104.10427 
L 141.842325 104.10427 
L 141.842325 105.068582 
L 142.168843 105.068582 
L 142.168843 105.840032 
L 142.495361 105.840032 
L 142.495361 106.611482 
L 142.821878 106.611482 
L 142.821878 107.190069 
L 143.148396 107.190069 
L 143.148396 107.768656 
L 143.474914 107.768656 
L 143.474914 108.443675 
L 143.801431 108.443675 
L 143.801431 109.311556 
L 144.127949 109.311556 
L 144.127949 110.083005 
L 144.454467 110.083005 
L 144.454467 110.758024 
L 144.780984 110.758024 
L 144.780984 111.529473 
L 145.107502 111.529473 
L 145.107502 112.590217 
L 145.43402 112.590217 
L 145.43402 112.783079 
L 145.760538 112.783079 
L 145.760538 112.300923 
L 146.087055 112.300923 
L 146.087055 111.433042 
L 146.413573 111.433042 
L 146.413573 110.372299 
L 146.740091 110.372299 
L 146.740091 109.022262 
L 147.066608 109.022262 
L 147.066608 107.382931 
L 147.393126 107.382931 
L 147.393126 105.936463 
L 147.719644 105.936463 
L 147.719644 104.489995 
L 148.046161 104.489995 
L 148.046161 103.139958 
L 148.372679 103.139958 
L 148.372679 101.500628 
L 148.699197 101.500628 
L 148.699197 99.28271 
L 149.025715 99.28271 
L 149.025715 96.679067 
L 149.352232 96.679067 
L 149.352232 93.786131 
L 149.67875 93.786131 
L 149.67875 90.50747 
L 150.005268 90.50747 
L 150.005268 86.939515 
L 150.331785 86.939515 
L 150.331785 83.564423 
L 150.658303 83.564423 
L 150.658303 80.671487 
L 150.984821 80.671487 
L 150.984821 77.971413 
L 151.311339 77.971413 
L 151.311339 75.174908 
L 151.637856 75.174908 
L 151.637856 71.799816 
L 151.964374 71.799816 
L 151.964374 67.556843 
L 152.290892 67.556843 
L 152.290892 61.674539 
L 152.617409 61.674539 
L 152.617409 53.960042 
L 152.943927 53.960042 
L 152.943927 44.99194 
L 153.270445 44.99194 
L 153.270445 36.698856 
L 153.596962 36.698856 
L 153.596962 32.552314 
L 153.92348 32.552314 
L 153.92348 36.698856 
L 154.249998 36.698856 
L 154.249998 50.874244 
L 154.576516 50.874244 
L 154.576516 73.921302 
L 154.903033 73.921302 
L 154.903033 101.69349 
L 155.229551 101.69349 
L 155.229551 127.633485 
L 155.556069 127.633485 
L 155.556069 147.016158 
L 155.882586 147.016158 
L 155.882586 158.877196 
L 156.209104 158.877196 
L 156.209104 163.602326 
L 156.535622 163.602326 
L 156.535622 162.252289 
L 156.862139 162.252289 
L 156.862139 157.52716 
L 157.188657 157.52716 
L 157.188657 150.873406 
L 157.515175 150.873406 
L 157.515175 143.351772 
L 157.841693 143.351772 
L 157.841693 135.540844 
L 158.16821 135.540844 
L 158.16821 127.729916 
L 158.494728 127.729916 
L 158.494728 120.401145 
L 158.821246 120.401145 
L 158.821246 114.229547 
L 159.147763 114.229547 
L 159.147763 109.215124 
L 159.474281 109.215124 
L 159.474281 105.550739 
L 159.800799 105.550739 
L 159.800799 103.429252 
L 160.127316 103.429252 
L 160.127316 103.23639 
L 160.453834 103.23639 
L 160.453834 104.393564 
L 160.780352 104.393564 
L 160.780352 106.322188 
L 161.10687 106.322188 
L 161.10687 108.154381 
L 161.433387 108.154381 
L 161.433387 109.311556 
L 162.086423 109.407987 
L 162.086423 108.732968 
L 162.41294 108.732968 
L 162.41294 107.382931 
L 162.739458 107.382931 
L 162.739458 105.936463 
L 163.065976 105.936463 
L 163.065976 104.586426 
L 163.392494 104.586426 
L 163.392494 103.429252 
L 163.719011 103.429252 
L 163.719011 102.657802 
L 164.045529 102.657802 
L 164.045529 102.46494 
L 164.372047 102.46494 
L 164.372047 102.850665 
L 164.698564 102.850665 
L 164.698564 103.622114 
L 165.025082 103.622114 
L 165.025082 104.586426 
L 165.3516 104.586426 
L 165.3516 105.550739 
L 165.678117 105.550739 
L 165.678117 106.225757 
L 166.004635 106.225757 
L 166.004635 106.515051 
L 166.331153 106.515051 
L 166.331153 106.707913 
L 166.657671 106.707913 
L 166.657671 107.2865 
L 166.984188 107.2865 
L 166.984188 108.347244 
L 167.310706 108.347244 
L 167.310706 109.600849 
L 167.637224 109.600849 
L 167.637224 111.047317 
L 167.963741 111.047317 
L 167.963741 112.204492 
L 168.290259 112.204492 
L 168.290259 113.168804 
L 168.616777 113.168804 
L 168.616777 113.554529 
L 168.943294 113.554529 
L 168.943294 113.361666 
L 169.269812 113.361666 
L 169.269812 112.204492 
L 169.59633 112.204492 
L 169.59633 111.143749 
L 169.922848 111.143749 
L 169.922848 110.083005 
L 170.249365 110.083005 
L 170.249365 109.022262 
L 170.575883 109.022262 
L 170.575883 107.768656 
L 170.902401 107.768656 
L 170.902401 106.322188 
L 171.228918 106.322188 
L 171.228918 104.682858 
L 171.555436 104.682858 
L 171.555436 102.657802 
L 171.881954 102.657802 
L 171.881954 99.957728 
L 172.208472 99.957728 
L 172.208472 96.968361 
L 172.534989 96.968361 
L 172.534989 93.882562 
L 172.861507 93.882562 
L 172.861507 90.314608 
L 173.188025 90.314608 
L 173.188025 86.553791 
L 173.514542 86.553791 
L 173.514542 83.178698 
L 173.84106 83.178698 
L 173.84106 80.285762 
L 174.167578 80.285762 
L 174.167578 77.489257 
L 174.494095 77.489257 
L 174.494095 74.885614 
L 174.820613 74.885614 
L 174.820613 71.992678 
L 175.147131 71.992678 
L 175.147131 67.846136 
L 175.473649 67.846136 
L 175.473649 61.963833 
L 175.800166 61.963833 
L 175.800166 54.635061 
L 176.126684 54.635061 
L 176.126684 45.956252 
L 176.453202 45.956252 
L 176.453202 37.373875 
L 176.779719 37.373875 
L 176.779719 32.455883 
L 177.106237 32.455883 
L 177.106237 35.348819 
L 177.432755 35.348819 
L 177.432755 48.270601 
L 177.759272 48.270601 
L 177.759272 70.449779 
L 178.08579 70.449779 
L 178.08579 97.836242 
L 178.412308 97.836242 
L 178.412308 123.969099 
L 178.738826 123.969099 
L 178.738826 144.412515 
L 179.065343 144.412515 
L 179.065343 157.334297 
L 179.391861 157.334297 
L 179.391861 163.023738 
L 179.718379 163.023738 
L 179.718379 162.541582 
L 180.044896 162.541582 
L 180.044896 158.491472 
L 180.371414 158.491472 
L 180.371414 152.127012 
L 180.697932 152.127012 
L 180.697932 144.701809 
L 181.024449 144.701809 
L 181.024449 136.698019 
L 181.350967 136.698019 
L 181.350967 128.597797 
L 181.677485 128.597797 
L 181.677485 120.979732 
L 182.004003 120.979732 
L 182.004003 114.518841 
L 182.33052 114.518841 
L 182.33052 109.311556 
L 182.657038 109.311556 
L 182.657038 105.743601 
L 182.983556 105.743601 
L 182.983556 103.622114 
L 183.310073 103.622114 
L 183.310073 103.429252 
L 183.636591 103.429252 
L 183.636591 104.489995 
L 183.963109 104.489995 
L 183.963109 106.515051 
L 184.289627 106.515051 
L 184.289627 108.347244 
L 184.616144 108.347244 
L 184.616144 109.600849 
L 184.942662 109.600849 
L 184.942662 109.793712 
L 185.26918 109.793712 
L 185.26918 109.215124 
L 185.595697 109.215124 
L 185.595697 107.961519 
L 185.922215 107.961519 
L 185.922215 106.515051 
L 186.248733 106.515051 
L 186.248733 104.972151 
L 186.57525 104.972151 
L 186.57525 103.622114 
L 186.901768 103.622114 
L 186.901768 102.754233 
L 187.228286 102.754233 
L 187.228286 102.368509 
L 187.554804 102.368509 
L 187.554804 102.657802 
L 187.881321 102.657802 
L 187.881321 103.23639 
L 188.207839 103.23639 
L 188.207839 104.10427 
L 188.534357 104.10427 
L 188.534357 105.165014 
L 188.860874 105.165014 
L 188.860874 105.936463 
L 189.187392 105.936463 
L 189.187392 106.418619 
L 189.51391 106.418619 
L 189.51391 106.707913 
L 189.840427 106.707913 
L 189.840427 107.190069 
L 190.166945 107.190069 
L 190.166945 108.05795 
L 190.493463 108.05795 
L 190.493463 109.407987 
L 190.819981 109.407987 
L 190.819981 110.565161 
L 191.146498 110.565161 
L 191.146498 111.818767 
L 191.473016 111.818767 
L 191.473016 112.783079 
L 191.799534 112.783079 
L 191.799534 113.265235 
L 192.126051 113.265235 
L 192.126051 113.072373 
L 192.452569 113.072373 
L 192.452569 112.397354 
L 192.779087 112.397354 
L 192.779087 111.24018 
L 193.105604 111.24018 
L 193.105604 109.793712 
L 193.432122 109.793712 
L 193.432122 108.636537 
L 193.75864 108.636537 
L 193.75864 107.961519 
L 194.085158 107.961519 
L 194.085158 107.2865 
L 194.411675 107.2865 
L 194.411675 106.129326 
L 194.738193 106.129326 
L 194.738193 104.297133 
L 195.064711 104.297133 
L 195.064711 101.886353 
L 195.391228 101.886353 
L 195.391228 99.186279 
L 195.717746 99.186279 
L 195.717746 95.811187 
L 196.044264 95.811187 
L 196.044264 92.339663 
L 196.370782 92.339663 
L 196.370782 88.675277 
L 196.697299 88.675277 
L 196.697299 85.107322 
L 197.023817 85.107322 
L 197.023817 81.635799 
L 197.350335 81.635799 
L 197.350335 78.646432 
L 197.676852 78.646432 
L 197.676852 75.464202 
L 198.00337 75.464202 
L 198.00337 72.378403 
L 198.329888 72.378403 
L 198.329888 68.424723 
L 198.656405 68.424723 
L 198.656405 62.735282 
L 198.982923 62.735282 
L 198.982923 55.310079 
L 199.309441 55.310079 
L 199.309441 46.727702 
L 199.635959 46.727702 
L 199.635959 37.663168 
L 199.962476 37.663168 
L 199.962476 31.105846 
L 200.288994 31.105846 
L 200.288994 31.491571 
L 200.615512 31.491571 
L 200.615512 41.80971 
L 200.942029 41.80971 
L 200.942029 62.060264 
L 201.268547 62.060264 
L 201.268547 89.446727 
L 201.595065 89.446727 
L 201.595065 117.797502 
L 201.921582 117.797502 
L 201.921582 140.940992 
L 202.2481 140.940992 
L 202.2481 156.562847 
L 202.574618 156.562847 
L 202.574618 164.180913 
L 202.901136 164.180913 
L 202.901136 165.145225 
L 203.227653 165.145225 
L 203.227653 161.287977 
L 203.554171 161.287977 
L 203.554171 155.019948 
L 203.880689 155.019948 
L 203.880689 147.498314 
L 204.207206 147.498314 
L 204.207206 139.494524 
L 204.533724 139.494524 
L 204.533724 131.20144 
L 204.860242 131.20144 
L 204.860242 123.101218 
L 205.186759 123.101218 
L 205.186759 116.06174 
L 205.513277 116.06174 
L 205.513277 110.179436 
L 205.839795 110.179436 
L 205.839795 105.743601 
L 206.166313 105.743601 
L 206.166313 103.139958 
L 206.49283 103.139958 
L 206.49283 102.657802 
L 206.819348 102.657802 
L 206.819348 103.622114 
L 207.145866 103.622114 
L 207.145866 105.840032 
L 207.472383 105.840032 
L 207.472383 108.154381 
L 207.798901 108.154381 
L 207.798901 109.793712 
L 208.125419 109.793712 
L 208.125419 110.275868 
L 208.451937 110.275868 
L 208.451937 109.793712 
L 208.778454 109.793712 
L 208.778454 108.443675 
L 209.104972 108.443675 
L 209.104972 106.900775 
L 209.43149 106.900775 
L 209.43149 105.261445 
L 209.758007 105.261445 
L 209.758007 103.718546 
L 210.084525 103.718546 
L 210.084525 102.657802 
L 210.411043 102.657802 
L 210.411043 102.175646 
L 210.73756 102.175646 
L 210.73756 102.46494 
L 211.064078 102.46494 
L 211.064078 103.23639 
L 211.390596 103.23639 
L 211.390596 104.200702 
L 211.717114 104.200702 
L 211.717114 105.165014 
L 212.043631 105.165014 
L 212.043631 106.032895 
L 212.370149 106.032895 
L 212.370149 106.707913 
L 212.696667 106.707913 
L 212.696667 107.2865 
L 213.023184 107.2865 
L 213.023184 107.961519 
L 213.349702 107.961519 
L 213.349702 108.540106 
L 213.67622 108.540106 
L 213.67622 109.118693 
L 214.002737 109.118693 
L 214.002737 109.890143 
L 214.329255 109.890143 
L 214.329255 110.565161 
L 214.655773 110.565161 
L 214.655773 111.336611 
L 214.982291 111.336611 
L 214.982291 111.818767 
L 215.961844 111.915198 
L 215.961844 111.625905 
L 216.288361 111.625905 
L 216.288361 110.854455 
L 216.614879 110.854455 
L 216.614879 109.793712 
L 216.941397 109.793712 
L 216.941397 108.732968 
L 217.267915 108.732968 
L 217.267915 107.190069 
L 217.594432 107.190069 
L 217.594432 105.261445 
L 217.92095 105.261445 
L 217.92095 103.332821 
L 218.247468 103.332821 
L 218.247468 101.404197 
L 218.573985 101.404197 
L 218.573985 99.186279 
L 218.900503 99.186279 
L 218.900503 96.486205 
L 219.227021 96.486205 
L 219.227021 93.496838 
L 219.553538 93.496838 
L 219.553538 89.928883 
L 219.880056 89.928883 
L 219.880056 86.457359 
L 220.206574 86.457359 
L 220.206574 83.082267 
L 220.533092 83.082267 
L 220.533092 79.900037 
L 220.859609 79.900037 
L 220.859609 77.296395 
L 221.186127 77.296395 
L 221.186127 74.49989 
L 221.512645 74.49989 
L 221.512645 71.028366 
L 221.839162 71.028366 
L 221.839162 66.303237 
L 222.16568 66.303237 
L 222.16568 59.938777 
L 222.492198 59.938777 
L 222.492198 51.645693 
L 222.818715 51.645693 
L 222.818715 42.291866 
L 223.145233 42.291866 
L 223.145233 33.998782 
L 223.471751 33.998782 
L 223.471751 30.816552 
L 223.798269 30.816552 
L 223.798269 37.084581 
L 224.124786 37.084581 
L 224.124786 53.670749 
L 224.451304 53.670749 
L 224.451304 78.55 
L 224.777822 78.55 
L 224.777822 106.804344 
L 225.104339 106.804344 
L 225.104339 132.069321 
L 225.430857 132.069321 
L 225.430857 150.294819 
L 225.430857 150.294819 
" clip-path="url(#pedb8e19884)" style="fill: none; stroke: #0271ae; stroke-width: 2; stroke-linecap: round"/>
   </g>
   <g id="text_10">
    <!-- Signal $x[n]$ -->
    <g transform="translate(108.922333 18.100119)scale(0.14 -0.14)">
     <defs>
      <path id="URWPalladioL-Roma-53" d="M 2861 3371 
C 2861 3711 2886 3929 2950 4275 
C 2438 4479 2150 4544 1798 4544 
C 845 4544 154 3942 154 3102 
C 154 2788 237 2557 422 2384 
C 640 2185 934 2083 1555 1999 
C 2048 1929 2272 1858 2438 1711 
C 2605 1576 2682 1390 2682 1147 
C 2682 570 2202 153 1536 153 
C 1024 153 525 403 493 666 
L 442 1095 
L 237 1095 
C 243 980 243 877 243 839 
C 243 544 230 403 192 115 
C 557 -45 928 -128 1299 -128 
C 2413 -128 3219 544 3219 1474 
C 3219 1775 3136 1986 2957 2153 
C 2733 2365 2464 2448 1747 2544 
C 966 2647 691 2858 691 3352 
C 691 3890 1094 4275 1658 4275 
C 1907 4275 2144 4224 2317 4127 
C 2528 4018 2598 3922 2618 3736 
L 2656 3371 
L 2861 3371 
z
" transform="scale(0.015625)"/>
      <path id="URWPalladioL-Roma-67" d="M 3322 2452 
L 3482 2713 
L 3456 2790 
L 2547 2764 
C 2310 2956 2080 3033 1766 3033 
C 1485 3033 1158 2944 896 2790 
C 538 2586 352 2274 352 1885 
C 352 1413 646 1087 1120 1036 
L 614 638 
C 550 540 518 455 518 358 
C 518 179 634 76 941 -13 
L 384 -315 
C 294 -367 205 -604 205 -804 
C 205 -1388 774 -1792 1587 -1792 
C 2554 -1792 3315 -1183 3315 -399 
C 3315 64 3008 384 2560 384 
L 1536 384 
C 1203 384 1050 462 1050 638 
C 1050 723 1101 795 1267 939 
C 1306 972 1318 985 1344 1011 
C 1408 1004 1446 998 1498 998 
C 1773 998 2112 1119 2374 1305 
C 2662 1515 2803 1770 2803 2108 
C 2803 2235 2784 2318 2733 2452 
L 3322 2452 
z
M 1536 2816 
C 1971 2816 2266 2458 2266 1917 
C 2266 1502 1997 1216 1606 1216 
C 1178 1216 890 1547 890 2038 
C 890 2529 1126 2816 1536 2816 
z
M 1837 -64 
C 2560 -64 2810 -212 2810 -630 
C 2810 -1183 2304 -1594 1632 -1594 
C 1075 -1594 691 -1266 691 -791 
C 691 -502 858 -238 1114 -129 
C 1216 -77 1395 -64 1837 -64 
z
" transform="scale(0.015625)"/>
      <path id="URWPalladioL-Roma-61" d="M 2074 544 
L 2042 0 
C 2458 0 2458 0 2541 0 
C 2573 19 2733 12 3014 0 
L 3014 192 
L 2765 204 
C 2611 211 2586 262 2586 576 
L 2586 1751 
C 2586 2688 2317 3027 1574 3027 
C 1299 3027 1043 2956 800 2809 
L 461 2604 
L 461 2187 
L 627 2142 
L 710 2341 
C 845 2642 909 2688 1203 2688 
C 1805 2688 2054 2450 2074 1866 
L 1440 1751 
C 570 1590 205 1289 205 730 
C 205 224 506 -64 1011 -64 
C 1126 -64 1235 -45 1280 -13 
L 2074 544 
z
M 2074 806 
C 1888 544 1485 300 1235 300 
C 979 300 755 537 755 812 
C 755 1049 883 1273 1075 1395 
C 1235 1491 1587 1580 2074 1651 
L 2074 806 
z
" transform="scale(0.015625)"/>
      <path id="URWPalladioL-Roma-6c" d="M 147 4249 
L 506 4249 
C 621 4249 666 4179 666 3987 
L 666 672 
C 666 268 646 224 429 211 
L 134 192 
L 134 0 
C 774 0 774 0 934 0 
C 1094 19 1094 19 1734 0 
L 1734 192 
L 1440 211 
C 1222 224 1203 268 1203 672 
L 1203 4614 
L 1146 4665 
C 864 4557 653 4505 147 4429 
L 147 4249 
z
" transform="scale(0.015625)"/>
      <path id="URWPalladioL-Ital-78" d="M 134 567 
C 134 440 122 358 83 153 
C 70 76 64 57 58 12 
C 154 -39 256 -64 333 -64 
C 544 -64 794 121 992 421 
L 1478 1164 
L 1549 726 
C 1632 185 1779 -64 2010 -64 
C 2150 -64 2355 44 2560 230 
L 2874 510 
L 2816 631 
C 2586 440 2426 345 2323 345 
C 2227 345 2144 409 2080 536 
C 2022 656 1952 891 1920 1075 
L 1805 1716 
L 2029 2027 
C 2330 2439 2502 2585 2701 2585 
C 2803 2585 2880 2534 2912 2439 
L 3002 2465 
L 3098 3007 
C 3021 3052 2963 3072 2906 3072 
C 2650 3072 2394 2841 1997 2255 
L 1760 1906 
L 1722 2211 
C 1645 2841 1472 3072 1094 3072 
C 928 3072 787 3020 730 2937 
L 358 2408 
L 467 2344 
C 659 2560 787 2649 909 2649 
C 1120 2649 1261 2389 1370 1767 
L 1440 1373 
L 1184 980 
C 909 555 691 352 512 352 
C 416 352 346 377 333 409 
L 262 586 
L 134 567 
z
" transform="scale(0.015625)"/>
      <path id="CMR10-5b" d="M 1632 -1601 
L 1632 -1344 
L 1011 -1344 
L 1011 4544 
L 1632 4544 
L 1632 4800 
L 755 4800 
L 755 -1601 
L 1632 -1601 
z
" transform="scale(0.015625)"/>
      <path id="URWPalladioL-Ital-6e" d="M 154 2471 
L 198 2343 
L 403 2477 
C 640 2624 659 2637 704 2637 
C 774 2637 819 2573 819 2477 
C 819 2152 557 919 294 6 
L 339 -64 
C 499 -20 646 19 787 44 
C 909 849 1043 1264 1338 1705 
C 1683 2241 2163 2637 2451 2637 
C 2522 2637 2560 2579 2560 2484 
C 2560 2369 2541 2235 2490 2030 
L 2157 677 
C 2099 440 2074 293 2074 191 
C 2074 32 2144 -64 2266 -64 
C 2432 -64 2662 70 3290 536 
L 3226 651 
L 3059 542 
C 2874 421 2733 351 2669 351 
C 2624 351 2586 408 2586 479 
C 2586 511 2592 581 2598 606 
L 3021 2369 
C 3066 2554 3091 2733 3091 2841 
C 3091 2988 3021 3072 2893 3072 
C 2624 3072 2182 2829 1805 2477 
C 1562 2254 1382 2037 1050 1571 
L 1293 2599 
C 1318 2714 1331 2790 1331 2860 
C 1331 2995 1280 3072 1184 3072 
C 1050 3072 800 2931 333 2599 
L 154 2471 
z
" transform="scale(0.015625)"/>
      <path id="CMR10-5d" d="M 1018 4800 
L 141 4800 
L 141 4544 
L 762 4544 
L 762 -1344 
L 141 -1344 
L 141 -1601 
L 1018 -1601 
L 1018 4800 
z
" transform="scale(0.015625)"/>
     </defs>
     <use xlink:href="#URWPalladioL-Roma-53" transform="scale(0.996264)"/>
     <use xlink:href="#URWPalladioL-Roma-69" transform="translate(52.303815 0)scale(0.996264)"/>
     <use xlink:href="#URWPalladioL-Roma-67" transform="translate(81.294176 0)scale(0.996264)"/>
     <use xlink:href="#URWPalladioL-Roma-6e" transform="translate(136.685853 0)scale(0.996264)"/>
     <use xlink:href="#URWPalladioL-Roma-61" transform="translate(194.667914 0)scale(0.996264)"/>
     <use xlink:href="#URWPalladioL-Roma-6c" transform="translate(244.481115 0)scale(0.996264)"/>
     <use xlink:href="#URWPalladioL-Ital-78" transform="translate(301.317052 0)scale(0.996264)"/>
     <use xlink:href="#CMR10-5b" transform="translate(354.616188 0)scale(1.038107)"/>
     <use xlink:href="#URWPalladioL-Ital-6e" transform="translate(385.898887 0)scale(0.996264)"/>
     <use xlink:href="#CMR10-5d" transform="translate(443.781848 0)scale(1.038107)"/>
    </g>
   </g>
  </g>
  <g id="axes_2">
   <g id="patch_3">
    <path d="M 264.365957 171.861659 
L 431.216503 171.861659 
L 431.216503 24.100119 
L 264.365957 24.100119 
L 264.365957 171.861659 
z
" style="fill: none"/>
   </g>
   <g id="matplotlib.axis_3">
    <g id="xtick_4">
     <g id="line2d_18">
      <path d="M 264.365957 171.861659 
L 264.365957 24.100119 
" clip-path="url(#p9bb5aad5df)" style="fill: none; stroke: #000000; stroke-opacity: 0.2; stroke-width: 0.5; stroke-linecap: round"/>
     </g>
     <g id="line2d_19">
      <g>
       <use xlink:href="#m7f11b1bb96" x="264.365957" y="171.861659" style="fill-opacity: 0.2; stroke: #000000; stroke-opacity: 0.2; stroke-width: 0.5"/>
      </g>
     </g>
     <g id="text_11">
      <!-- $\mathdefault{0}$ -->
      <g transform="translate(260.879033 197.341188)scale(0.14 -0.14)">
       <use xlink:href="#URWPalladioL-Roma-30" transform="scale(0.996264)"/>
      </g>
     </g>
    </g>
    <g id="xtick_5">
     <g id="line2d_20">
      <path d="M 340.035139 171.861659 
L 340.035139 24.100119 
" clip-path="url(#p9bb5aad5df)" style="fill: none; stroke: #000000; stroke-opacity: 0.2; stroke-width: 0.5; stroke-linecap: round"/>
     </g>
     <g id="line2d_21">
      <g>
       <use xlink:href="#m7f11b1bb96" x="340.035139" y="171.861659" style="fill-opacity: 0.2; stroke: #000000; stroke-opacity: 0.2; stroke-width: 0.5"/>
      </g>
     </g>
     <g id="text_12">
      <!-- $\mathdefault{10000}$ -->
      <g transform="translate(322.600519 197.341188)scale(0.14 -0.14)">
       <use xlink:href="#URWPalladioL-Roma-31" transform="scale(0.996264)"/>
       <use xlink:href="#URWPalladioL-Roma-30" transform="translate(49.8132 0)scale(0.996264)"/>
       <use xlink:href="#URWPalladioL-Roma-30" transform="translate(99.626401 0)scale(0.996264)"/>
       <use xlink:href="#URWPalladioL-Roma-30" transform="translate(149.439601 0)scale(0.996264)"/>
       <use xlink:href="#URWPalladioL-Roma-30" transform="translate(199.252802 0)scale(0.996264)"/>
      </g>
     </g>
    </g>
    <g id="xtick_6">
     <g id="line2d_22">
      <path d="M 415.704321 171.861659 
L 415.704321 24.100119 
" clip-path="url(#p9bb5aad5df)" style="fill: none; stroke: #000000; stroke-opacity: 0.2; stroke-width: 0.5; stroke-linecap: round"/>
     </g>
     <g id="line2d_23">
      <g>
       <use xlink:href="#m7f11b1bb96" x="415.704321" y="171.861659" style="fill-opacity: 0.2; stroke: #000000; stroke-opacity: 0.2; stroke-width: 0.5"/>
      </g>
     </g>
     <g id="text_13">
      <!-- $\mathdefault{20000}$ -->
      <g transform="translate(398.269701 197.341188)scale(0.14 -0.14)">
       <use xlink:href="#URWPalladioL-Roma-32" transform="scale(0.996264)"/>
       <use xlink:href="#URWPalladioL-Roma-30" transform="translate(49.8132 0)scale(0.996264)"/>
       <use xlink:href="#URWPalladioL-Roma-30" transform="translate(99.626401 0)scale(0.996264)"/>
       <use xlink:href="#URWPalladioL-Roma-30" transform="translate(149.439601 0)scale(0.996264)"/>
       <use xlink:href="#URWPalladioL-Roma-30" transform="translate(199.252802 0)scale(0.996264)"/>
      </g>
     </g>
    </g>
    <g id="text_14">
     <!-- Frequency [Hz] -->
     <g transform="translate(306.641936 213.828236)scale(0.12 -0.12)">
      <defs>
       <path id="URWPalladioL-Roma-46" d="M 1382 2092 
C 1562 2105 1754 2112 2042 2112 
C 2515 2112 2688 2092 2803 2035 
L 2854 1875 
L 2886 1497 
L 3078 1497 
C 3059 2092 3059 2092 3059 2208 
C 3059 2310 3059 2310 3078 2946 
L 2886 2946 
L 2854 2615 
C 2848 2558 2829 2501 2803 2450 
C 2688 2399 2509 2380 2086 2380 
C 1818 2380 1600 2387 1382 2399 
L 1382 4096 
C 1574 4140 1690 4147 2067 4147 
C 2374 4147 2733 4108 2931 4058 
C 3085 4020 3104 3988 3104 3842 
L 3104 3429 
L 3328 3429 
C 3328 3810 3360 4115 3430 4396 
C 3117 4409 2925 4416 2650 4416 
L 1965 4409 
C 1651 4396 1427 4396 1267 4396 
C 1082 4396 1082 4396 141 4416 
L 141 4223 
L 448 4204 
C 742 4185 774 4135 774 3633 
L 774 782 
C 774 280 742 230 448 211 
L 141 192 
L 141 0 
C 518 -7 742 0 1075 0 
C 1408 19 1638 12 2016 0 
L 2016 192 
L 1709 211 
C 1414 230 1382 281 1382 787 
L 1382 2092 
z
" transform="scale(0.015625)"/>
       <path id="URWPalladioL-Roma-72" d="M 147 2579 
L 384 2579 
C 640 2579 666 2534 666 2112 
L 666 672 
C 666 268 646 224 429 211 
L 134 192 
L 134 0 
C 595 -7 762 0 922 0 
C 1050 19 1050 19 1837 0 
L 1837 192 
L 1504 211 
C 1216 230 1203 249 1203 669 
L 1203 1763 
C 1203 2145 1459 2463 1773 2463 
C 1965 2463 2099 2374 2202 2171 
L 2336 2171 
L 2394 2937 
C 2323 2982 2208 3008 2093 3008 
C 1901 3008 1696 2905 1562 2745 
L 1203 2324 
L 1203 2982 
L 1146 3008 
C 819 2873 486 2783 147 2745 
L 147 2579 
z
" transform="scale(0.015625)"/>
       <path id="URWPalladioL-Roma-71" d="M 2515 434 
L 2515 -1118 
C 2515 -1523 2490 -1568 2278 -1581 
L 1907 -1600 
L 1907 -1792 
C 2650 -1773 2650 -1773 2797 -1773 
C 2950 -1773 3130 -1780 3584 -1792 
L 3584 -1600 
L 3290 -1581 
C 3072 -1568 3053 -1523 3053 -1118 
L 3053 2043 
C 3053 2439 3091 2681 3200 2924 
L 3078 2995 
L 2765 2796 
C 2438 2943 2163 3008 1888 3008 
C 1702 3008 1478 2956 1382 2899 
L 845 2553 
C 435 2292 224 1870 224 1315 
C 224 479 730 -64 1523 -64 
C 1658 -64 1766 -39 1850 12 
L 2515 434 
z
M 2515 779 
C 2515 690 2362 524 2189 428 
C 2035 345 1888 300 1734 300 
C 1171 300 781 824 781 1596 
C 781 2298 1139 2707 1754 2707 
C 2067 2707 2291 2630 2515 2445 
L 2515 779 
z
" transform="scale(0.015625)"/>
       <path id="URWPalladioL-Roma-75" d="M 3219 2982 
L 3162 3008 
C 2835 2873 2502 2784 2163 2745 
L 2163 2567 
L 2400 2567 
C 2656 2567 2682 2522 2682 2101 
L 2682 1060 
C 2682 920 2592 741 2445 594 
C 2266 415 2061 326 1811 326 
C 1587 326 1408 396 1306 517 
C 1216 620 1171 817 1171 1098 
L 1171 2982 
L 1114 3008 
C 787 2873 454 2784 115 2745 
L 115 2567 
L 352 2567 
C 608 2567 634 2522 634 2101 
L 634 1028 
C 634 581 672 383 787 224 
C 928 32 1171 -64 1536 -64 
C 1824 -58 2080 32 2253 192 
L 2682 588 
C 2682 403 2675 300 2656 0 
C 3085 0 3091 0 3187 0 
C 3277 19 3277 19 3718 0 
L 3718 192 
L 3456 211 
C 3238 224 3219 262 3219 672 
L 3219 2982 
z
" transform="scale(0.015625)"/>
       <path id="URWPalladioL-Roma-79" d="M 1901 569 
C 1760 812 1690 960 1574 1273 
L 1165 2349 
C 1126 2457 1101 2553 1101 2617 
C 1101 2707 1171 2758 1318 2765 
L 1562 2777 
L 1562 2957 
C 941 2937 941 2937 819 2937 
C 698 2937 698 2937 77 2957 
L 77 2777 
L 192 2765 
C 352 2745 429 2675 525 2451 
L 1222 774 
C 1402 339 1466 185 1581 -135 
L 1434 -525 
C 1229 -1063 979 -1364 736 -1364 
C 634 -1364 518 -1312 410 -1216 
L 326 -1216 
L 173 -1696 
C 294 -1760 397 -1792 518 -1792 
C 947 -1792 1222 -1562 1466 -1005 
L 2765 1990 
C 3021 2573 3142 2745 3302 2765 
L 3482 2777 
L 3482 2957 
C 2976 2937 2976 2937 2874 2937 
C 2771 2937 2771 2937 2266 2957 
L 2266 2777 
L 2432 2765 
C 2611 2752 2701 2694 2701 2605 
C 2701 2560 2688 2502 2662 2438 
L 1901 569 
z
" transform="scale(0.015625)"/>
       <path id="URWPalladioL-Roma-48" d="M 3942 787 
C 3942 281 3910 230 3616 211 
L 3309 192 
L 3309 0 
C 3686 -7 3910 0 4243 0 
C 4576 19 4806 12 5184 0 
L 5184 192 
L 4877 211 
C 4582 230 4550 281 4550 783 
L 4550 3635 
C 4550 4135 4582 4186 4877 4205 
L 5184 4223 
L 5184 4416 
C 4717 4396 4576 4396 4243 4396 
C 3923 4396 3770 4403 3309 4416 
L 3309 4223 
L 3616 4205 
C 3910 4186 3942 4135 3942 3635 
L 3942 2508 
C 3808 2502 3674 2496 3411 2496 
L 1914 2496 
C 1651 2496 1510 2502 1382 2508 
L 1382 3635 
C 1382 4135 1414 4186 1709 4205 
L 2016 4223 
L 2016 4416 
C 1549 4396 1408 4396 1075 4396 
C 755 4396 602 4403 141 4416 
L 141 4223 
L 448 4205 
C 742 4186 774 4135 774 3635 
L 774 783 
C 774 281 742 230 448 211 
L 141 192 
L 141 0 
C 518 -7 742 0 1075 0 
C 1408 19 1638 12 2016 0 
L 2016 192 
L 1709 211 
C 1414 230 1382 281 1382 783 
L 1382 2201 
C 1555 2214 1658 2214 1914 2214 
L 3411 2214 
C 3667 2214 3770 2214 3942 2201 
L 3942 787 
z
" transform="scale(0.015625)"/>
       <path id="URWPalladioL-Roma-7a" d="M 2912 2771 
L 2912 2963 
C 2464 2950 2272 2944 2029 2944 
L 442 2963 
C 429 2637 422 2560 384 2121 
L 576 2121 
L 653 2554 
C 678 2688 794 2719 1267 2719 
L 2182 2719 
C 2048 2509 1939 2363 1766 2146 
L 678 796 
C 525 611 435 503 102 128 
L 141 0 
C 806 0 845 0 1120 0 
L 2886 0 
C 2886 147 2899 300 2944 608 
L 2982 908 
L 2790 908 
L 2675 403 
C 2650 268 2381 224 1766 224 
L 902 224 
L 2912 2771 
z
" transform="scale(0.015625)"/>
      </defs>
      <use xlink:href="#URWPalladioL-Roma-46" transform="scale(0.996264)"/>
      <use xlink:href="#URWPalladioL-Roma-72" transform="translate(55.391677 0)scale(0.996264)"/>
      <use xlink:href="#URWPalladioL-Roma-65" transform="translate(92.950994 0)scale(0.996264)"/>
      <use xlink:href="#URWPalladioL-Roma-71" transform="translate(140.671289 0)scale(0.996264)"/>
      <use xlink:href="#URWPalladioL-Roma-75" transform="translate(196.461922 0)scale(0.996264)"/>
      <use xlink:href="#URWPalladioL-Roma-65" transform="translate(256.535657 0)scale(0.996264)"/>
      <use xlink:href="#URWPalladioL-Roma-6e" transform="translate(304.255952 0)scale(0.996264)"/>
      <use xlink:href="#URWPalladioL-Roma-63" transform="translate(362.238012 0)scale(0.996264)"/>
      <use xlink:href="#URWPalladioL-Roma-79" transform="translate(406.471581 0)scale(0.996264)"/>
      <use xlink:href="#URWPalladioL-Roma-5b" transform="translate(486.769858 0)scale(0.996264)"/>
      <use xlink:href="#URWPalladioL-Roma-48" transform="translate(519.945088 0)scale(0.996264)"/>
      <use xlink:href="#URWPalladioL-Roma-7a" transform="translate(602.833749 0)scale(0.996264)"/>
      <use xlink:href="#URWPalladioL-Roma-5d" transform="translate(652.64695 0)scale(0.996264)"/>
     </g>
    </g>
   </g>
   <g id="matplotlib.axis_4">
    <g id="ytick_6">
     <g id="line2d_24">
      <path d="M 264.365957 166.281684 
L 431.216503 166.281684 
" clip-path="url(#p9bb5aad5df)" style="fill: none; stroke: #000000; stroke-opacity: 0.2; stroke-width: 0.5; stroke-linecap: round"/>
     </g>
     <g id="line2d_25">
      <g>
       <use xlink:href="#m1e65582a93" x="264.365957" y="166.281684" style="fill-opacity: 0.2; stroke: #000000; stroke-opacity: 0.2; stroke-width: 0.5"/>
      </g>
     </g>
     <g id="text_15">
      <!-- $\mathdefault{0.0}$ -->
      <g transform="translate(231.431337 171.271449)scale(0.14 -0.14)">
       <use xlink:href="#URWPalladioL-Roma-30" transform="scale(0.996264)"/>
       <use xlink:href="#URWPalladioL-Roma-2e" transform="translate(49.8132 0)scale(0.996264)"/>
       <use xlink:href="#URWPalladioL-Roma-30" transform="translate(74.719801 0)scale(0.996264)"/>
      </g>
     </g>
    </g>
    <g id="ytick_7">
     <g id="line2d_26">
      <path d="M 264.365957 123.786927 
L 431.216503 123.786927 
" clip-path="url(#p9bb5aad5df)" style="fill: none; stroke: #000000; stroke-opacity: 0.2; stroke-width: 0.5; stroke-linecap: round"/>
     </g>
     <g id="line2d_27">
      <g>
       <use xlink:href="#m1e65582a93" x="264.365957" y="123.786927" style="fill-opacity: 0.2; stroke: #000000; stroke-opacity: 0.2; stroke-width: 0.5"/>
      </g>
     </g>
     <g id="text_16">
      <!-- $\mathdefault{0.5}$ -->
      <g transform="translate(231.431337 128.776692)scale(0.14 -0.14)">
       <use xlink:href="#URWPalladioL-Roma-30" transform="scale(0.996264)"/>
       <use xlink:href="#URWPalladioL-Roma-2e" transform="translate(49.8132 0)scale(0.996264)"/>
       <use xlink:href="#URWPalladioL-Roma-35" transform="translate(74.719801 0)scale(0.996264)"/>
      </g>
     </g>
    </g>
    <g id="ytick_8">
     <g id="line2d_28">
      <path d="M 264.365957 81.29217 
L 431.216503 81.29217 
" clip-path="url(#p9bb5aad5df)" style="fill: none; stroke: #000000; stroke-opacity: 0.2; stroke-width: 0.5; stroke-linecap: round"/>
     </g>
     <g id="line2d_29">
      <g>
       <use xlink:href="#m1e65582a93" x="264.365957" y="81.29217" style="fill-opacity: 0.2; stroke: #000000; stroke-opacity: 0.2; stroke-width: 0.5"/>
      </g>
     </g>
     <g id="text_17">
      <!-- $\mathdefault{1.0}$ -->
      <g transform="translate(231.431337 86.281935)scale(0.14 -0.14)">
       <use xlink:href="#URWPalladioL-Roma-31" transform="scale(0.996264)"/>
       <use xlink:href="#URWPalladioL-Roma-2e" transform="translate(49.8132 0)scale(0.996264)"/>
       <use xlink:href="#URWPalladioL-Roma-30" transform="translate(74.719801 0)scale(0.996264)"/>
      </g>
     </g>
    </g>
    <g id="ytick_9">
     <g id="line2d_30">
      <path d="M 264.365957 38.797413 
L 431.216503 38.797413 
" clip-path="url(#p9bb5aad5df)" style="fill: none; stroke: #000000; stroke-opacity: 0.2; stroke-width: 0.5; stroke-linecap: round"/>
     </g>
     <g id="line2d_31">
      <g>
       <use xlink:href="#m1e65582a93" x="264.365957" y="38.797413" style="fill-opacity: 0.2; stroke: #000000; stroke-opacity: 0.2; stroke-width: 0.5"/>
      </g>
     </g>
     <g id="text_18">
      <!-- $\mathdefault{1.5}$ -->
      <g transform="translate(231.431337 43.787178)scale(0.14 -0.14)">
       <use xlink:href="#URWPalladioL-Roma-31" transform="scale(0.996264)"/>
       <use xlink:href="#URWPalladioL-Roma-2e" transform="translate(49.8132 0)scale(0.996264)"/>
       <use xlink:href="#URWPalladioL-Roma-35" transform="translate(74.719801 0)scale(0.996264)"/>
      </g>
     </g>
    </g>
   </g>
   <g id="line2d_32">
    <path d="M 264.365957 155.095167 
L 265.669477 155.166036 
L 265.669477 154.607635 
L 266.321237 154.607635 
L 266.321237 153.706025 
L 266.972997 153.706025 
L 266.972997 152.180972 
L 267.624757 152.180972 
L 267.624757 149.149366 
L 268.276517 149.149366 
L 268.276517 141.115389 
L 268.928277 141.115389 
L 268.928277 48.16475 
L 269.580037 48.16475 
L 269.580037 151.903999 
L 270.231797 151.903999 
L 270.231797 160.615068 
L 270.883557 160.615068 
L 270.883557 157.329385 
L 271.535317 157.329385 
L 271.535317 152.799129 
L 272.187077 152.799129 
L 272.187077 145.240982 
L 272.838837 145.240982 
L 272.838837 128.39507 
L 273.490596 128.39507 
L 273.490596 30.816552 
L 274.142356 30.816552 
L 274.142356 96.777603 
L 274.794116 96.777603 
L 274.794116 140.712293 
L 275.445876 140.712293 
L 275.445876 153.049594 
L 276.097636 153.049594 
L 276.097636 157.119153 
L 276.749396 157.119153 
L 276.749396 155.580921 
L 277.401156 155.580921 
L 277.401156 145.853272 
L 278.052916 145.853272 
L 278.052916 101.935304 
L 278.704676 101.935304 
L 278.704676 80.404378 
L 279.356436 80.404378 
L 279.356436 137.204799 
L 280.008196 137.204799 
L 280.008196 148.319038 
L 280.659956 148.319038 
L 280.659956 152.741483 
L 281.311716 152.741483 
L 281.311716 156.388478 
L 282.615236 156.356663 
L 282.615236 137.715896 
L 283.266996 137.715896 
L 283.266996 73.453728 
L 283.918756 73.453728 
L 283.918756 140.63406 
L 284.570516 140.63406 
L 284.570516 149.447194 
L 285.222276 149.447194 
L 285.222276 153.230584 
L 285.874035 153.230584 
L 285.874035 156.226813 
L 286.525795 156.226813 
L 286.525795 157.771174 
L 287.177555 157.771174 
L 287.177555 156.75173 
L 287.829315 156.75173 
L 287.829315 98.397298 
L 288.481075 98.397298 
L 288.481075 153.624671 
L 289.132835 153.624671 
L 289.132835 156.444702 
L 289.784595 156.444702 
L 289.784595 157.224675 
L 290.436355 157.224675 
L 290.436355 158.784894 
L 291.088115 158.784894 
L 291.088115 158.589699 
L 291.739875 158.589699 
L 291.739875 157.041984 
L 292.391635 157.041984 
L 292.391635 129.097714 
L 293.043395 129.097714 
L 293.043395 159.483707 
L 293.695155 159.483707 
L 293.695155 160.975385 
L 295.650435 160.944836 
L 295.650435 160.319191 
L 296.302195 160.319191 
L 296.302195 157.653322 
L 296.953955 157.653322 
L 296.953955 140.137639 
L 297.605714 140.137639 
L 297.605714 156.820266 
L 298.257474 156.820266 
L 298.257474 162.326446 
L 298.909234 162.326446 
L 298.909234 162.832858 
L 299.560994 162.832858 
L 299.560994 162.981754 
L 300.212754 162.981754 
L 300.212754 162.488391 
L 300.864514 162.488391 
L 300.864514 161.606399 
L 301.516274 161.606399 
L 301.516274 155.869335 
L 302.168034 155.869335 
L 302.168034 155.175043 
L 302.819794 155.175043 
L 302.819794 160.675205 
L 303.471554 160.675205 
L 303.471554 162.046506 
L 304.123314 162.046506 
L 304.123314 162.285381 
L 304.775074 162.285381 
L 304.775074 163.026621 
L 305.426834 163.026621 
L 305.426834 163.744687 
L 306.730354 163.852446 
L 306.730354 156.151836 
L 307.382114 156.151836 
L 307.382114 161.316655 
L 308.033874 161.316655 
L 308.033874 162.199658 
L 308.685634 162.199658 
L 308.685634 162.427465 
L 309.337394 162.427465 
L 309.337394 162.972644 
L 309.989153 162.972644 
L 309.989153 163.173042 
L 310.640913 163.173042 
L 310.640913 163.753067 
L 311.292673 163.753067 
L 311.292673 158.870276 
L 311.944433 158.870276 
L 311.944433 162.560046 
L 312.596193 162.560046 
L 312.596193 162.806124 
L 313.899713 162.796772 
L 313.899713 163.074966 
L 314.551473 163.074966 
L 314.551473 163.216151 
L 315.854993 163.274218 
L 315.854993 160.399776 
L 316.506753 160.399776 
L 316.506753 163.253636 
L 317.158513 163.253636 
L 317.158513 163.378086 
L 317.810273 163.378086 
L 317.810273 163.249725 
L 319.113793 163.33837 
L 319.113793 163.452466 
L 320.417313 163.354283 
L 320.417313 161.755636 
L 321.069073 161.755636 
L 321.069073 163.953072 
L 324.327872 163.861778 
L 324.327872 163.721876 
L 324.979632 163.721876 
L 324.979632 163.359197 
L 325.631392 163.359197 
L 325.631392 164.206371 
L 326.934912 164.097197 
L 326.934912 164.009398 
L 330.193712 163.98015 
L 330.193712 164.459504 
L 330.845472 164.459504 
L 330.845472 164.263017 
L 334.104271 164.159932 
L 334.104271 164.123067 
L 334.756031 164.123067 
L 334.756031 164.618466 
L 335.407791 164.618466 
L 335.407791 164.433047 
L 342.577151 164.390045 
L 342.577151 164.550889 
L 350.39827 164.648325 
L 350.39827 164.707267 
L 353.00531 164.676236 
L 353.00531 164.588858 
L 353.65707 164.588858 
L 353.65707 164.762442 
L 362.781709 164.770857 
L 362.781709 164.955715 
L 363.433469 164.955715 
L 363.433469 164.829351 
L 367.344029 164.831351 
L 367.344029 164.957178 
L 367.995789 164.957178 
L 367.995789 164.808008 
L 371.254588 164.898679 
L 371.254588 164.954586 
L 394.066187 165.039976 
L 394.066187 165.066946 
L 431.216503 165.145225 
L 431.216503 165.065251 
" clip-path="url(#p9bb5aad5df)" style="fill: none; stroke: #444f95; stroke-width: 2; stroke-linecap: round"/>
   </g>
   <g id="text_19">
    <!-- DFT magnitude $|X[m]|$ -->
    <g transform="translate(277.321445 18.100119)scale(0.14 -0.14)">
     <defs>
      <path id="URWPalladioL-Roma-44" d="M 365 128 
L 365 -20 
C 1107 0 1107 0 1254 0 
C 1370 0 1472 0 1587 -7 
C 2093 0 2093 0 2182 0 
C 3002 0 3616 211 4064 649 
C 4525 1100 4806 1786 4806 2465 
C 4806 3646 3923 4416 2573 4416 
C 2528 4416 2445 4416 2330 4409 
C 2010 4403 1734 4396 1459 4396 
C 1222 4396 870 4403 141 4416 
L 141 4223 
L 397 4204 
C 691 4185 723 4128 723 3630 
L 723 606 
C 723 421 666 281 563 230 
L 365 128 
z
M 1331 4109 
C 1498 4140 1722 4160 2042 4160 
C 2509 4160 3021 4077 3290 3956 
C 3430 3899 3552 3810 3667 3696 
C 3974 3391 4122 2934 4122 2300 
C 4122 1589 3904 1043 3482 700 
C 3098 389 2714 281 1990 281 
C 1696 281 1498 294 1331 332 
L 1331 4109 
z
" transform="scale(0.015625)"/>
      <path id="URWPalladioL-Roma-74" d="M 627 2457 
L 627 614 
C 627 140 838 -64 1331 -64 
C 1478 -64 1632 -32 1670 12 
L 1978 352 
L 1894 460 
C 1734 371 1638 339 1517 339 
C 1267 339 1165 467 1165 780 
L 1165 2457 
L 1984 2457 
L 2042 2803 
L 1165 2764 
L 1165 3008 
C 1165 3277 1184 3507 1235 3917 
L 1158 3987 
C 1005 3891 813 3808 614 3744 
C 634 3552 640 3430 640 3238 
L 640 2790 
L 141 2566 
L 141 2432 
L 627 2457 
z
" transform="scale(0.015625)"/>
      <path id="CMSY10-6a" d="M 1018 4569 
C 1018 4684 1018 4800 890 4800 
C 762 4800 762 4684 762 4569 
L 762 -1370 
C 762 -1485 762 -1600 890 -1600 
C 1018 -1600 1018 -1485 1018 -1370 
L 1018 4569 
z
" transform="scale(0.015625)"/>
      <path id="URWPalladioL-Ital-58" d="M 2662 179 
L 2662 0 
C 2970 -7 3258 0 3526 0 
C 3782 19 4070 12 4378 0 
L 4378 178 
L 4218 191 
C 3955 210 3872 255 3782 407 
L 2688 2357 
L 4102 3958 
C 4294 4167 4352 4205 4518 4224 
L 4698 4237 
L 4698 4416 
L 3968 4396 
C 3891 4396 3802 4396 3232 4416 
L 3232 4237 
L 3443 4224 
C 3648 4212 3731 4180 3731 4104 
C 3731 4034 3699 3977 3584 3837 
L 2554 2592 
L 1888 3856 
C 1830 3970 1798 4046 1798 4097 
C 1798 4173 1882 4212 2074 4224 
L 2310 4237 
L 2310 4416 
L 2016 4409 
C 1754 4403 1562 4396 1459 4396 
C 1350 4396 1158 4403 896 4409 
L 608 4416 
L 608 4237 
L 774 4224 
C 1088 4193 1165 4148 1293 3913 
L 2227 2198 
L 704 407 
C 608 293 461 216 307 197 
L 128 178 
L 128 0 
C 442 -7 704 0 928 0 
C 1158 19 1414 12 1690 0 
L 1690 179 
L 1485 198 
C 1242 224 1133 262 1133 339 
C 1133 390 1158 448 1197 499 
L 2362 1977 
L 3123 531 
C 3181 416 3213 332 3213 275 
C 3213 224 3168 204 3008 204 
L 2906 198 
L 2662 179 
z
" transform="scale(0.015625)"/>
      <path id="URWPalladioL-Ital-6d" d="M 4672 651 
L 4506 542 
C 4320 421 4179 351 4115 351 
C 4070 351 4032 408 4032 479 
C 4032 542 4045 600 4077 734 
L 4557 2631 
C 4582 2739 4602 2841 4602 2892 
C 4602 3001 4538 3072 4435 3072 
C 4250 3072 4006 2956 3616 2682 
C 3213 2394 2989 2171 2675 1730 
L 2867 2605 
C 2893 2733 2912 2829 2912 2873 
C 2912 2995 2848 3072 2746 3072 
C 2554 3072 2259 2931 1907 2663 
C 1626 2445 1498 2311 1082 1749 
L 1293 2599 
C 1318 2701 1331 2797 1331 2873 
C 1331 2995 1274 3072 1184 3072 
C 1050 3072 806 2937 333 2599 
L 154 2471 
L 198 2343 
L 403 2477 
C 640 2624 659 2637 704 2637 
C 774 2637 819 2573 819 2477 
C 819 2152 557 919 294 6 
L 314 -64 
L 749 32 
L 890 683 
C 1043 1392 1216 1769 1568 2152 
C 1837 2445 2125 2637 2304 2637 
C 2349 2637 2374 2586 2374 2503 
C 2374 2279 2234 1551 1971 434 
L 1869 6 
L 1901 -64 
L 2342 32 
L 2477 715 
C 2579 1232 2797 1711 3078 2024 
C 3430 2413 3750 2637 3955 2637 
C 4006 2637 4038 2579 4038 2477 
C 4038 2324 4019 2235 3878 1679 
C 3776 1277 3667 894 3603 677 
C 3546 498 3520 332 3520 191 
C 3520 32 3590 -64 3712 -64 
C 3878 -64 4109 70 4736 536 
L 4672 651 
z
" transform="scale(0.015625)"/>
     </defs>
     <use xlink:href="#URWPalladioL-Roma-44" transform="scale(0.996264)"/>
     <use xlink:href="#URWPalladioL-Roma-46" transform="translate(77.110752 0)scale(0.996264)"/>
     <use xlink:href="#URWPalladioL-Roma-54" transform="translate(132.502429 0)scale(0.996264)"/>
     <use xlink:href="#URWPalladioL-Roma-6d" transform="translate(218.478861 0)scale(0.996264)"/>
     <use xlink:href="#URWPalladioL-Roma-61" transform="translate(306.448535 0)scale(0.996264)"/>
     <use xlink:href="#URWPalladioL-Roma-67" transform="translate(356.261736 0)scale(0.996264)"/>
     <use xlink:href="#URWPalladioL-Roma-6e" transform="translate(411.653413 0)scale(0.996264)"/>
     <use xlink:href="#URWPalladioL-Roma-69" transform="translate(469.635473 0)scale(0.996264)"/>
     <use xlink:href="#URWPalladioL-Roma-74" transform="translate(498.625835 0)scale(0.996264)"/>
     <use xlink:href="#URWPalladioL-Roma-75" transform="translate(531.102923 0)scale(0.996264)"/>
     <use xlink:href="#URWPalladioL-Roma-64" transform="translate(591.176657 0)scale(0.996264)"/>
     <use xlink:href="#URWPalladioL-Roma-65" transform="translate(652.048288 0)scale(0.996264)"/>
     <use xlink:href="#CMSY10-6a" transform="translate(725.920483 0)scale(1.038107)"/>
     <use xlink:href="#URWPalladioL-Ital-58" transform="translate(758.697624 0)scale(0.996264)"/>
     <use xlink:href="#CMR10-5b" transform="translate(835.310214 0)scale(1.038107)"/>
     <use xlink:href="#URWPalladioL-Ital-6d" transform="translate(866.592913 0)scale(0.996264)"/>
     <use xlink:href="#CMR10-5d" transform="translate(946.592946 0)scale(1.038107)"/>
     <use xlink:href="#CMSY10-6a" transform="translate(977.875645 0)scale(1.038107)"/>
    </g>
   </g>
  </g>
 </g>
 <defs>
  <clipPath id="pedb8e19884">
   <rect x="58.580311" y="24.100119" width="166.850546" height="147.76154"/>
  </clipPath>
  <clipPath id="p9bb5aad5df">
   <rect x="264.365957" y="24.100119" width="166.850546" height="147.76154"/>
  </clipPath>
 </defs>
</svg>