<?xml version="1.0" encoding="utf-8" standalone="no"?>
<!DOCTYPE svg PUBLIC "-//W3C//DTD SVG 1.1//EN"
  "http://www.w3.org/Graphics/SVG/1.1/DTD/svg11.dtd">
<svg xmlns:xlink="http://www.w3.org/1999/xlink" width="440.395304pt" height="152.39952pt" viewBox="0 0 440.395304 152.39952" xmlns="http://www.w3.org/2000/svg" version="1.1">
 <metadata>
  <rdf:RDF xmlns:dc="http://purl.org/dc/elements/1.1/" xmlns:cc="http://creativecommons.org/ns#" xmlns:rdf="http://www.w3.org/1999/02/22-rdf-syntax-ns#">
   <cc:Work>
    <dc:type rdf:resource="http://purl.org/dc/dcmitype/StillImage"/>
    <dc:date>2022-07-26T12:31:16.164864</dc:date>
    <dc:format>image/svg+xml</dc:format>
    <dc:creator>
     <cc:Agent>
      <dc:title>Matplotlib v3.5.2, https://matplotlib.org/</dc:title>
     </cc:Agent>
    </dc:creator>
   </cc:Work>
  </rdf:RDF>
 </metadata>
 <defs>
  <style type="text/css">*{stroke-linejoin: round; stroke-linecap: butt}</style>
 </defs>
 <g id="figure_1">
  <g id="patch_1">
   <path d="M 0 152.39952 
L 440.395304 152.39952 
L 440.395304 0 
L 0 0 
L 0 152.39952 
z
" style="fill: none"/>
  </g>
  <g id="axes_1">
   <g id="patch_2">
    <path d="M 29.673848 99.861659 
L 427.740838 99.861659 
L 427.740838 7.2 
L 29.673848 7.2 
L 29.673848 99.861659 
z
" style="fill: none"/>
   </g>
   <g id="line2d_1">
    <path d="M 32.936692 94.713789 
L 37.015247 94.713789 
L 37.015247 90.847839 
L 41.093803 90.847839 
L 41.093803 80.434894 
L 45.172358 80.434894 
L 45.172358 66.634821 
L 49.250913 66.634821 
L 49.250913 53.530829 
L 53.329468 53.530829 
L 53.329468 44.775022 
L 57.408024 44.775022 
L 57.408024 42.386801 
L 61.486579 42.386801 
L 61.486579 46.108015 
L 65.565134 46.108015 
L 65.565134 53.530829 
L 69.643689 53.530829 
L 69.643689 60.953644 
L 73.722244 60.953644 
L 73.722244 64.674858 
L 77.8008 64.674858 
L 77.8008 62.286636 
L 81.879355 62.286636 
L 81.879355 53.530829 
L 85.95791 53.530829 
L 85.95791 40.426838 
L 90.036465 40.426838 
L 90.036465 26.626765 
L 94.115021 26.626765 
L 94.115021 16.213819 
L 98.193576 16.213819 
L 98.193576 12.34787 
L 102.272131 12.34787 
L 102.272131 16.213819 
L 106.350686 16.213819 
L 106.350686 26.626765 
L 110.429242 26.626765 
L 110.429242 40.426838 
L 114.507797 40.426838 
L 114.507797 53.530829 
L 118.586352 53.530829 
L 118.586352 62.286636 
L 122.664907 62.286636 
L 122.664907 64.674858 
L 126.743462 64.674858 
L 126.743462 60.953644 
L 130.822018 60.953644 
L 130.822018 94.713789 
L 134.900573 94.713789 
L 134.900573 90.847839 
L 138.979128 90.847839 
L 138.979128 80.434894 
L 143.057683 80.434894 
L 143.057683 66.634821 
L 147.136239 66.634821 
L 147.136239 53.530829 
L 151.214794 53.530829 
L 151.214794 44.775022 
L 155.293349 44.775022 
L 155.293349 42.386801 
L 159.371904 42.386801 
L 159.371904 46.108015 
L 163.450459 46.108015 
L 163.450459 53.530829 
L 167.529015 53.530829 
L 167.529015 60.953644 
L 171.60757 60.953644 
L 171.60757 64.674858 
L 175.686125 64.674858 
L 175.686125 62.286636 
L 179.76468 62.286636 
L 179.76468 53.530829 
L 183.843236 53.530829 
L 183.843236 40.426838 
L 187.921791 40.426838 
L 187.921791 26.626765 
L 192.000346 26.626765 
L 192.000346 16.213819 
L 196.078901 16.213819 
L 196.078901 12.34787 
L 200.157456 12.34787 
L 200.157456 16.213819 
L 204.236012 16.213819 
L 204.236012 26.626765 
L 208.314567 26.626765 
L 208.314567 40.426838 
L 212.393122 40.426838 
L 212.393122 53.530829 
L 216.471677 53.530829 
L 216.471677 62.286636 
L 220.550233 62.286636 
L 220.550233 64.674858 
L 224.628788 64.674858 
L 224.628788 60.953644 
L 228.707343 60.953644 
L 228.707343 94.713789 
L 232.785898 94.713789 
L 232.785898 90.847839 
L 236.864453 90.847839 
L 236.864453 80.434894 
L 240.943009 80.434894 
L 240.943009 66.634821 
L 245.021564 66.634821 
L 245.021564 53.530829 
L 249.100119 53.530829 
L 249.100119 44.775022 
L 253.178674 44.775022 
L 253.178674 42.386801 
L 257.25723 42.386801 
L 257.25723 46.108015 
L 261.335785 46.108015 
L 261.335785 53.530829 
L 265.41434 53.530829 
L 265.41434 60.953644 
L 269.492895 60.953644 
L 269.492895 64.674858 
L 273.57145 64.674858 
L 273.57145 62.286636 
L 277.650006 62.286636 
L 277.650006 53.530829 
L 281.728561 53.530829 
L 281.728561 40.426838 
L 285.807116 40.426838 
L 285.807116 26.626765 
L 289.885671 26.626765 
L 289.885671 16.213819 
L 293.964227 16.213819 
L 293.964227 12.34787 
L 298.042782 12.34787 
L 298.042782 16.213819 
L 302.121337 16.213819 
L 302.121337 26.626765 
L 306.199892 26.626765 
L 306.199892 40.426838 
L 310.278448 40.426838 
L 310.278448 53.530829 
L 314.357003 53.530829 
L 314.357003 62.286636 
L 318.435558 62.286636 
L 318.435558 64.674858 
L 322.514113 64.674858 
L 322.514113 60.953644 
L 326.592668 60.953644 
L 326.592668 94.713789 
L 330.671224 94.713789 
L 330.671224 90.847839 
L 334.749779 90.847839 
L 334.749779 80.434894 
L 338.828334 80.434894 
L 338.828334 66.634821 
L 342.906889 66.634821 
L 342.906889 53.530829 
L 346.985445 53.530829 
L 346.985445 44.775022 
L 351.064 44.775022 
L 351.064 42.386801 
L 355.142555 42.386801 
L 355.142555 46.108015 
L 359.22111 46.108015 
L 359.22111 53.530829 
L 363.299665 53.530829 
L 363.299665 60.953644 
L 367.378221 60.953644 
L 367.378221 64.674858 
L 371.456776 64.674858 
L 371.456776 62.286636 
L 375.535331 62.286636 
L 375.535331 53.530829 
L 379.613886 53.530829 
L 379.613886 40.426838 
L 383.692442 40.426838 
L 383.692442 26.626765 
L 387.770997 26.626765 
L 387.770997 16.213819 
L 391.849552 16.213819 
L 391.849552 12.34787 
L 395.928107 12.34787 
L 395.928107 16.213819 
L 400.006662 16.213819 
L 400.006662 26.626765 
L 404.085218 26.626765 
L 404.085218 40.426838 
L 408.163773 40.426838 
L 408.163773 53.530829 
L 412.242328 53.530829 
L 412.242328 62.286636 
L 416.320883 62.286636 
L 416.320883 64.674858 
L 420.399439 64.674858 
L 420.399439 60.953644 
L 420.399439 60.953644 
" clip-path="url(#pb6d29ac1c4)" style="fill: none; stroke: #0271ae; stroke-width: 2; stroke-linecap: round"/>
    <defs>
     <path id="m1e749abb53" d="M 0 2.5 
C 0.663008 2.5 1.29895 2.236584 1.767767 1.767767 
C 2.236584 1.29895 2.5 0.663008 2.5 0 
C 2.5 -0.663008 2.236584 -1.29895 1.767767 -1.767767 
C 1.29895 -2.236584 0.663008 -2.5 0 -2.5 
C -0.663008 -2.5 -1.29895 -2.236584 -1.767767 -1.767767 
C -2.236584 -1.29895 -2.5 -0.663008 -2.5 0 
C -2.5 0.663008 -2.236584 1.29895 -1.767767 1.767767 
C -1.29895 2.236584 -0.663008 2.5 0 2.5 
z
" style="stroke: #fefefa"/>
    </defs>
    <g clip-path="url(#pb6d29ac1c4)">
     <use xlink:href="#m1e749abb53" x="32.936692" y="94.713789" style="fill: #0271ae; stroke: #fefefa"/>
     <use xlink:href="#m1e749abb53" x="37.015247" y="90.847839" style="fill: #0271ae; stroke: #fefefa"/>
     <use xlink:href="#m1e749abb53" x="41.093803" y="80.434894" style="fill: #0271ae; stroke: #fefefa"/>
     <use xlink:href="#m1e749abb53" x="45.172358" y="66.634821" style="fill: #0271ae; stroke: #fefefa"/>
     <use xlink:href="#m1e749abb53" x="49.250913" y="53.530829" style="fill: #0271ae; stroke: #fefefa"/>
     <use xlink:href="#m1e749abb53" x="53.329468" y="44.775022" style="fill: #0271ae; stroke: #fefefa"/>
     <use xlink:href="#m1e749abb53" x="57.408024" y="42.386801" style="fill: #0271ae; stroke: #fefefa"/>
     <use xlink:href="#m1e749abb53" x="61.486579" y="46.108015" style="fill: #0271ae; stroke: #fefefa"/>
     <use xlink:href="#m1e749abb53" x="65.565134" y="53.530829" style="fill: #0271ae; stroke: #fefefa"/>
     <use xlink:href="#m1e749abb53" x="69.643689" y="60.953644" style="fill: #0271ae; stroke: #fefefa"/>
     <use xlink:href="#m1e749abb53" x="73.722244" y="64.674858" style="fill: #0271ae; stroke: #fefefa"/>
     <use xlink:href="#m1e749abb53" x="77.8008" y="62.286636" style="fill: #0271ae; stroke: #fefefa"/>
     <use xlink:href="#m1e749abb53" x="81.879355" y="53.530829" style="fill: #0271ae; stroke: #fefefa"/>
     <use xlink:href="#m1e749abb53" x="85.95791" y="40.426838" style="fill: #0271ae; stroke: #fefefa"/>
     <use xlink:href="#m1e749abb53" x="90.036465" y="26.626765" style="fill: #0271ae; stroke: #fefefa"/>
     <use xlink:href="#m1e749abb53" x="94.115021" y="16.213819" style="fill: #0271ae; stroke: #fefefa"/>
     <use xlink:href="#m1e749abb53" x="98.193576" y="12.34787" style="fill: #0271ae; stroke: #fefefa"/>
     <use xlink:href="#m1e749abb53" x="102.272131" y="16.213819" style="fill: #0271ae; stroke: #fefefa"/>
     <use xlink:href="#m1e749abb53" x="106.350686" y="26.626765" style="fill: #0271ae; stroke: #fefefa"/>
     <use xlink:href="#m1e749abb53" x="110.429242" y="40.426838" style="fill: #0271ae; stroke: #fefefa"/>
     <use xlink:href="#m1e749abb53" x="114.507797" y="53.530829" style="fill: #0271ae; stroke: #fefefa"/>
     <use xlink:href="#m1e749abb53" x="118.586352" y="62.286636" style="fill: #0271ae; stroke: #fefefa"/>
     <use xlink:href="#m1e749abb53" x="122.664907" y="64.674858" style="fill: #0271ae; stroke: #fefefa"/>
     <use xlink:href="#m1e749abb53" x="126.743462" y="60.953644" style="fill: #0271ae; stroke: #fefefa"/>
     <use xlink:href="#m1e749abb53" x="130.822018" y="94.713789" style="fill: #0271ae; stroke: #fefefa"/>
     <use xlink:href="#m1e749abb53" x="134.900573" y="90.847839" style="fill: #0271ae; stroke: #fefefa"/>
     <use xlink:href="#m1e749abb53" x="138.979128" y="80.434894" style="fill: #0271ae; stroke: #fefefa"/>
     <use xlink:href="#m1e749abb53" x="143.057683" y="66.634821" style="fill: #0271ae; stroke: #fefefa"/>
     <use xlink:href="#m1e749abb53" x="147.136239" y="53.530829" style="fill: #0271ae; stroke: #fefefa"/>
     <use xlink:href="#m1e749abb53" x="151.214794" y="44.775022" style="fill: #0271ae; stroke: #fefefa"/>
     <use xlink:href="#m1e749abb53" x="155.293349" y="42.386801" style="fill: #0271ae; stroke: #fefefa"/>
     <use xlink:href="#m1e749abb53" x="159.371904" y="46.108015" style="fill: #0271ae; stroke: #fefefa"/>
     <use xlink:href="#m1e749abb53" x="163.450459" y="53.530829" style="fill: #0271ae; stroke: #fefefa"/>
     <use xlink:href="#m1e749abb53" x="167.529015" y="60.953644" style="fill: #0271ae; stroke: #fefefa"/>
     <use xlink:href="#m1e749abb53" x="171.60757" y="64.674858" style="fill: #0271ae; stroke: #fefefa"/>
     <use xlink:href="#m1e749abb53" x="175.686125" y="62.286636" style="fill: #0271ae; stroke: #fefefa"/>
     <use xlink:href="#m1e749abb53" x="179.76468" y="53.530829" style="fill: #0271ae; stroke: #fefefa"/>
     <use xlink:href="#m1e749abb53" x="183.843236" y="40.426838" style="fill: #0271ae; stroke: #fefefa"/>
     <use xlink:href="#m1e749abb53" x="187.921791" y="26.626765" style="fill: #0271ae; stroke: #fefefa"/>
     <use xlink:href="#m1e749abb53" x="192.000346" y="16.213819" style="fill: #0271ae; stroke: #fefefa"/>
     <use xlink:href="#m1e749abb53" x="196.078901" y="12.34787" style="fill: #0271ae; stroke: #fefefa"/>
     <use xlink:href="#m1e749abb53" x="200.157456" y="16.213819" style="fill: #0271ae; stroke: #fefefa"/>
     <use xlink:href="#m1e749abb53" x="204.236012" y="26.626765" style="fill: #0271ae; stroke: #fefefa"/>
     <use xlink:href="#m1e749abb53" x="208.314567" y="40.426838" style="fill: #0271ae; stroke: #fefefa"/>
     <use xlink:href="#m1e749abb53" x="212.393122" y="53.530829" style="fill: #0271ae; stroke: #fefefa"/>
     <use xlink:href="#m1e749abb53" x="216.471677" y="62.286636" style="fill: #0271ae; stroke: #fefefa"/>
     <use xlink:href="#m1e749abb53" x="220.550233" y="64.674858" style="fill: #0271ae; stroke: #fefefa"/>
     <use xlink:href="#m1e749abb53" x="224.628788" y="60.953644" style="fill: #0271ae; stroke: #fefefa"/>
     <use xlink:href="#m1e749abb53" x="228.707343" y="94.713789" style="fill: #0271ae; stroke: #fefefa"/>
     <use xlink:href="#m1e749abb53" x="232.785898" y="90.847839" style="fill: #0271ae; stroke: #fefefa"/>
     <use xlink:href="#m1e749abb53" x="236.864453" y="80.434894" style="fill: #0271ae; stroke: #fefefa"/>
     <use xlink:href="#m1e749abb53" x="240.943009" y="66.634821" style="fill: #0271ae; stroke: #fefefa"/>
     <use xlink:href="#m1e749abb53" x="245.021564" y="53.530829" style="fill: #0271ae; stroke: #fefefa"/>
     <use xlink:href="#m1e749abb53" x="249.100119" y="44.775022" style="fill: #0271ae; stroke: #fefefa"/>
     <use xlink:href="#m1e749abb53" x="253.178674" y="42.386801" style="fill: #0271ae; stroke: #fefefa"/>
     <use xlink:href="#m1e749abb53" x="257.25723" y="46.108015" style="fill: #0271ae; stroke: #fefefa"/>
     <use xlink:href="#m1e749abb53" x="261.335785" y="53.530829" style="fill: #0271ae; stroke: #fefefa"/>
     <use xlink:href="#m1e749abb53" x="265.41434" y="60.953644" style="fill: #0271ae; stroke: #fefefa"/>
     <use xlink:href="#m1e749abb53" x="269.492895" y="64.674858" style="fill: #0271ae; stroke: #fefefa"/>
     <use xlink:href="#m1e749abb53" x="273.57145" y="62.286636" style="fill: #0271ae; stroke: #fefefa"/>
     <use xlink:href="#m1e749abb53" x="277.650006" y="53.530829" style="fill: #0271ae; stroke: #fefefa"/>
     <use xlink:href="#m1e749abb53" x="281.728561" y="40.426838" style="fill: #0271ae; stroke: #fefefa"/>
     <use xlink:href="#m1e749abb53" x="285.807116" y="26.626765" style="fill: #0271ae; stroke: #fefefa"/>
     <use xlink:href="#m1e749abb53" x="289.885671" y="16.213819" style="fill: #0271ae; stroke: #fefefa"/>
     <use xlink:href="#m1e749abb53" x="293.964227" y="12.34787" style="fill: #0271ae; stroke: #fefefa"/>
     <use xlink:href="#m1e749abb53" x="298.042782" y="16.213819" style="fill: #0271ae; stroke: #fefefa"/>
     <use xlink:href="#m1e749abb53" x="302.121337" y="26.626765" style="fill: #0271ae; stroke: #fefefa"/>
     <use xlink:href="#m1e749abb53" x="306.199892" y="40.426838" style="fill: #0271ae; stroke: #fefefa"/>
     <use xlink:href="#m1e749abb53" x="310.278448" y="53.530829" style="fill: #0271ae; stroke: #fefefa"/>
     <use xlink:href="#m1e749abb53" x="314.357003" y="62.286636" style="fill: #0271ae; stroke: #fefefa"/>
     <use xlink:href="#m1e749abb53" x="318.435558" y="64.674858" style="fill: #0271ae; stroke: #fefefa"/>
     <use xlink:href="#m1e749abb53" x="322.514113" y="60.953644" style="fill: #0271ae; stroke: #fefefa"/>
     <use xlink:href="#m1e749abb53" x="326.592668" y="94.713789" style="fill: #0271ae; stroke: #fefefa"/>
     <use xlink:href="#m1e749abb53" x="330.671224" y="90.847839" style="fill: #0271ae; stroke: #fefefa"/>
     <use xlink:href="#m1e749abb53" x="334.749779" y="80.434894" style="fill: #0271ae; stroke: #fefefa"/>
     <use xlink:href="#m1e749abb53" x="338.828334" y="66.634821" style="fill: #0271ae; stroke: #fefefa"/>
     <use xlink:href="#m1e749abb53" x="342.906889" y="53.530829" style="fill: #0271ae; stroke: #fefefa"/>
     <use xlink:href="#m1e749abb53" x="346.985445" y="44.775022" style="fill: #0271ae; stroke: #fefefa"/>
     <use xlink:href="#m1e749abb53" x="351.064" y="42.386801" style="fill: #0271ae; stroke: #fefefa"/>
     <use xlink:href="#m1e749abb53" x="355.142555" y="46.108015" style="fill: #0271ae; stroke: #fefefa"/>
     <use xlink:href="#m1e749abb53" x="359.22111" y="53.530829" style="fill: #0271ae; stroke: #fefefa"/>
     <use xlink:href="#m1e749abb53" x="363.299665" y="60.953644" style="fill: #0271ae; stroke: #fefefa"/>
     <use xlink:href="#m1e749abb53" x="367.378221" y="64.674858" style="fill: #0271ae; stroke: #fefefa"/>
     <use xlink:href="#m1e749abb53" x="371.456776" y="62.286636" style="fill: #0271ae; stroke: #fefefa"/>
     <use xlink:href="#m1e749abb53" x="375.535331" y="53.530829" style="fill: #0271ae; stroke: #fefefa"/>
     <use xlink:href="#m1e749abb53" x="379.613886" y="40.426838" style="fill: #0271ae; stroke: #fefefa"/>
     <use xlink:href="#m1e749abb53" x="383.692442" y="26.626765" style="fill: #0271ae; stroke: #fefefa"/>
     <use xlink:href="#m1e749abb53" x="387.770997" y="16.213819" style="fill: #0271ae; stroke: #fefefa"/>
     <use xlink:href="#m1e749abb53" x="391.849552" y="12.34787" style="fill: #0271ae; stroke: #fefefa"/>
     <use xlink:href="#m1e749abb53" x="395.928107" y="16.213819" style="fill: #0271ae; stroke: #fefefa"/>
     <use xlink:href="#m1e749abb53" x="400.006662" y="26.626765" style="fill: #0271ae; stroke: #fefefa"/>
     <use xlink:href="#m1e749abb53" x="404.085218" y="40.426838" style="fill: #0271ae; stroke: #fefefa"/>
     <use xlink:href="#m1e749abb53" x="408.163773" y="53.530829" style="fill: #0271ae; stroke: #fefefa"/>
     <use xlink:href="#m1e749abb53" x="412.242328" y="62.286636" style="fill: #0271ae; stroke: #fefefa"/>
     <use xlink:href="#m1e749abb53" x="416.320883" y="64.674858" style="fill: #0271ae; stroke: #fefefa"/>
     <use xlink:href="#m1e749abb53" x="420.399439" y="60.953644" style="fill: #0271ae; stroke: #fefefa"/>
    </g>
   </g>
   <g id="matplotlib.axis_1">
    <g id="xtick_1">
     <g id="line2d_2">
      <path d="M 32.936692 99.861659 
L 32.936692 7.2 
" clip-path="url(#pb6d29ac1c4)" style="fill: none; stroke: #000000; stroke-opacity: 0.2; stroke-width: 0.5; stroke-linecap: round"/>
     </g>
     <g id="line2d_3">
      <defs>
       <path id="m647c8f4d19" d="M 0 0 
L 0 3.5 
" style="stroke: #000000; stroke-opacity: 0.2; stroke-width: 0.5"/>
      </defs>
      <g>
       <use xlink:href="#m647c8f4d19" x="32.936692" y="99.861659" style="fill-opacity: 0.2; stroke: #000000; stroke-opacity: 0.2; stroke-width: 0.5"/>
      </g>
     </g>
     <g id="text_1">
      <!-- $\mathdefault{−3.0}$ -->
      <g transform="translate(18.483461 125.341188)scale(0.14 -0.14)">
       <defs>
        <path id="CMSY10-0" d="M 4218 1472 
C 4326 1472 4442 1472 4442 1600 
C 4442 1728 4326 1728 4218 1728 
L 755 1728 
C 646 1728 531 1728 531 1600 
C 531 1472 646 1472 755 1472 
L 4218 1472 
z
" transform="scale(0.015625)"/>
        <path id="URWPalladioL-Roma-33" d="M 275 3196 
L 474 3196 
L 589 3553 
C 659 3770 1062 3987 1395 3987 
C 1811 3987 2150 3649 2150 3247 
C 2150 2769 1773 2368 1318 2368 
C 1267 2368 1197 2374 1114 2380 
L 1018 2387 
L 941 2047 
L 986 2008 
C 1229 2118 1350 2150 1523 2150 
C 2054 2150 2362 1808 2362 1222 
C 2362 565 1971 134 1376 134 
C 1082 134 819 231 627 411 
C 474 553 390 701 269 1048 
L 96 984 
C 230 591 282 359 320 38 
C 659 -77 941 -128 1178 -128 
C 1690 -128 2278 160 2630 591 
C 2848 855 2957 1139 2957 1441 
C 2957 1750 2829 2021 2598 2182 
C 2438 2297 2291 2348 1971 2406 
C 2483 2801 2675 3094 2675 3470 
C 2675 4038 2202 4416 1491 4416 
C 1056 4416 768 4294 461 3987 
L 275 3196 
z
" transform="scale(0.015625)"/>
        <path id="URWPalladioL-Roma-2e" d="M 794 678 
C 602 678 429 499 429 307 
C 429 115 602 -64 787 -64 
C 992 -64 1171 108 1171 307 
C 1171 499 992 678 794 678 
z
" transform="scale(0.015625)"/>
        <path id="URWPalladioL-Roma-30" d="M 1683 4416 
C 691 4416 186 3628 186 2076 
C 186 1326 320 679 544 365 
C 768 51 1126 -128 1523 -128 
C 2490 -128 2976 704 2976 2345 
C 2976 3749 2560 4416 1683 4416 
z
M 1568 4191 
C 2189 4191 2438 3563 2438 2025 
C 2438 660 2195 96 1606 96 
C 986 96 723 743 723 2307 
C 723 3660 960 4191 1568 4191 
z
" transform="scale(0.015625)"/>
       </defs>
       <use xlink:href="#CMSY10-0" transform="scale(1.038107)"/>
       <use xlink:href="#URWPalladioL-Roma-33" transform="translate(81.941696 0)scale(0.996264)"/>
       <use xlink:href="#URWPalladioL-Roma-2e" transform="translate(131.754897 0)scale(0.996264)"/>
       <use xlink:href="#URWPalladioL-Roma-30" transform="translate(156.661497 0)scale(0.996264)"/>
      </g>
     </g>
    </g>
    <g id="xtick_2">
     <g id="line2d_4">
      <path d="M 130.822018 99.861659 
L 130.822018 7.2 
" clip-path="url(#pb6d29ac1c4)" style="fill: none; stroke: #000000; stroke-opacity: 0.2; stroke-width: 0.5; stroke-linecap: round"/>
     </g>
     <g id="line2d_5">
      <g>
       <use xlink:href="#m647c8f4d19" x="130.822018" y="99.861659" style="fill-opacity: 0.2; stroke: #000000; stroke-opacity: 0.2; stroke-width: 0.5"/>
      </g>
     </g>
     <g id="text_2">
      <!-- $\mathdefault{−1.5}$ -->
      <g transform="translate(116.368786 125.341188)scale(0.14 -0.14)">
       <defs>
        <path id="URWPalladioL-Roma-31" d="M 429 3571 
L 493 3571 
L 1318 3942 
C 1325 3949 1331 3949 1338 3949 
C 1376 3949 1389 3891 1389 3737 
L 1389 633 
C 1389 300 1318 230 973 211 
L 614 192 
L 614 0 
C 1600 0 1600 0 1670 0 
C 1754 0 1894 0 2112 -7 
C 2189 6 2413 6 2675 0 
L 2675 192 
L 2342 211 
C 1990 229 1926 299 1926 628 
L 1926 4383 
L 1837 4416 
C 1421 4199 966 4009 384 3807 
L 429 3571 
z
" transform="scale(0.015625)"/>
        <path id="URWPalladioL-Roma-35" d="M 813 3891 
C 1638 3865 1997 3859 2765 3859 
L 2797 3891 
C 2784 4006 2784 4057 2784 4140 
C 2784 4230 2784 4281 2797 4396 
L 2765 4428 
C 2285 4403 1997 4396 1651 4396 
C 1299 4396 1018 4403 538 4428 
L 506 4396 
C 512 4006 518 3724 518 3520 
C 518 2976 499 2360 480 2076 
L 608 2038 
C 909 2341 1082 2432 1395 2432 
C 2010 2432 2394 1992 2394 1295 
C 2394 579 1984 160 1286 160 
C 941 160 621 276 531 443 
L 237 973 
L 83 882 
C 230 514 307 308 397 25 
C 576 -71 832 -128 1107 -128 
C 1536 -128 1990 57 2342 366 
C 2733 715 2938 1153 2938 1631 
C 2938 2360 2419 2873 1690 2873 
C 1382 2873 1152 2790 755 2553 
L 813 3891 
z
" transform="scale(0.015625)"/>
       </defs>
       <use xlink:href="#CMSY10-0" transform="scale(1.038107)"/>
       <use xlink:href="#URWPalladioL-Roma-31" transform="translate(81.941696 0)scale(0.996264)"/>
       <use xlink:href="#URWPalladioL-Roma-2e" transform="translate(131.754897 0)scale(0.996264)"/>
       <use xlink:href="#URWPalladioL-Roma-35" transform="translate(156.661497 0)scale(0.996264)"/>
      </g>
     </g>
    </g>
    <g id="xtick_3">
     <g id="line2d_6">
      <path d="M 228.707343 99.861659 
L 228.707343 7.2 
" clip-path="url(#pb6d29ac1c4)" style="fill: none; stroke: #000000; stroke-opacity: 0.2; stroke-width: 0.5; stroke-linecap: round"/>
     </g>
     <g id="line2d_7">
      <g>
       <use xlink:href="#m647c8f4d19" x="228.707343" y="99.861659" style="fill-opacity: 0.2; stroke: #000000; stroke-opacity: 0.2; stroke-width: 0.5"/>
      </g>
     </g>
     <g id="text_3">
      <!-- $\mathdefault{0.0}$ -->
      <g transform="translate(219.990033 125.341188)scale(0.14 -0.14)">
       <use xlink:href="#URWPalladioL-Roma-30" transform="scale(0.996264)"/>
       <use xlink:href="#URWPalladioL-Roma-2e" transform="translate(49.8132 0)scale(0.996264)"/>
       <use xlink:href="#URWPalladioL-Roma-30" transform="translate(74.719801 0)scale(0.996264)"/>
      </g>
     </g>
    </g>
    <g id="xtick_4">
     <g id="line2d_8">
      <path d="M 326.592668 99.861659 
L 326.592668 7.2 
" clip-path="url(#pb6d29ac1c4)" style="fill: none; stroke: #000000; stroke-opacity: 0.2; stroke-width: 0.5; stroke-linecap: round"/>
     </g>
     <g id="line2d_9">
      <g>
       <use xlink:href="#m647c8f4d19" x="326.592668" y="99.861659" style="fill-opacity: 0.2; stroke: #000000; stroke-opacity: 0.2; stroke-width: 0.5"/>
      </g>
     </g>
     <g id="text_4">
      <!-- $\mathdefault{1.5}$ -->
      <g transform="translate(317.875358 125.341188)scale(0.14 -0.14)">
       <use xlink:href="#URWPalladioL-Roma-31" transform="scale(0.996264)"/>
       <use xlink:href="#URWPalladioL-Roma-2e" transform="translate(49.8132 0)scale(0.996264)"/>
       <use xlink:href="#URWPalladioL-Roma-35" transform="translate(74.719801 0)scale(0.996264)"/>
      </g>
     </g>
    </g>
    <g id="xtick_5">
     <g id="line2d_10">
      <path d="M 424.477994 99.861659 
L 424.477994 7.2 
" clip-path="url(#pb6d29ac1c4)" style="fill: none; stroke: #000000; stroke-opacity: 0.2; stroke-width: 0.5; stroke-linecap: round"/>
     </g>
     <g id="line2d_11">
      <g>
       <use xlink:href="#m647c8f4d19" x="424.477994" y="99.861659" style="fill-opacity: 0.2; stroke: #000000; stroke-opacity: 0.2; stroke-width: 0.5"/>
      </g>
     </g>
     <g id="text_5">
      <!-- $\mathdefault{3.0}$ -->
      <g transform="translate(415.760684 125.341188)scale(0.14 -0.14)">
       <use xlink:href="#URWPalladioL-Roma-33" transform="scale(0.996264)"/>
       <use xlink:href="#URWPalladioL-Roma-2e" transform="translate(49.8132 0)scale(0.996264)"/>
       <use xlink:href="#URWPalladioL-Roma-30" transform="translate(74.719801 0)scale(0.996264)"/>
      </g>
     </g>
    </g>
    <g id="text_6">
     <!-- Time [seconds] -->
     <g transform="translate(189.034491 141.828236)scale(0.12 -0.12)">
      <defs>
       <path id="URWPalladioL-Roma-54" d="M 1632 4096 
C 1651 3880 1658 3734 1658 3462 
L 1658 781 
C 1658 280 1626 230 1331 211 
L 1024 192 
L 1024 0 
C 1402 -7 1626 0 1958 0 
C 2291 19 2522 12 2899 0 
L 2899 192 
L 2592 211 
C 2298 230 2266 280 2266 781 
L 2266 3462 
C 2266 3747 2272 3887 2291 4096 
L 3283 4096 
C 3462 4096 3533 4039 3539 3887 
L 3565 3386 
L 3763 3386 
C 3763 3801 3776 4051 3808 4416 
C 3347 4409 3136 4409 2957 4403 
C 2707 4390 2522 4390 2426 4390 
L 1414 4390 
C 1350 4390 1005 4396 550 4403 
L 115 4416 
C 147 4051 160 3801 160 3385 
L 358 3385 
L 384 3891 
C 390 4038 461 4096 640 4096 
L 1632 4096 
z
" transform="scale(0.015625)"/>
       <path id="URWPalladioL-Roma-69" d="M 1203 2982 
L 1146 3008 
C 819 2873 486 2784 147 2746 
L 147 2568 
L 384 2568 
C 640 2568 666 2523 666 2103 
L 666 669 
C 666 268 646 223 429 211 
L 134 192 
L 134 0 
C 774 0 774 0 934 0 
C 1094 19 1094 19 1734 0 
L 1734 192 
L 1440 211 
C 1222 224 1203 268 1203 671 
L 1203 2982 
z
M 909 4416 
C 717 4416 550 4249 550 4057 
C 550 3871 717 3705 902 3705 
C 1088 3705 1261 3871 1261 4057 
C 1261 4236 1088 4416 909 4416 
z
" transform="scale(0.015625)"/>
       <path id="URWPalladioL-Roma-6d" d="M 115 2579 
L 352 2579 
C 608 2579 634 2534 634 2112 
L 634 672 
C 634 268 614 224 397 211 
L 102 192 
L 102 0 
C 717 0 736 0 915 0 
C 1094 19 1261 12 1677 0 
L 1677 192 
L 1408 211 
C 1190 223 1171 268 1171 670 
L 1171 2023 
C 1171 2311 1594 2624 1978 2624 
C 2323 2624 2560 2298 2560 1813 
L 2560 670 
C 2560 268 2541 223 2323 211 
L 2029 192 
L 2029 0 
C 2669 0 2669 0 2829 0 
C 2989 19 2989 19 3629 0 
L 3629 192 
L 3334 211 
C 3117 223 3098 268 3098 670 
L 3098 2023 
C 3098 2311 3520 2624 3904 2624 
C 4250 2624 4486 2298 4486 1813 
L 4486 0 
C 4877 0 4883 0 4992 0 
C 5075 19 5075 19 5562 0 
L 5562 192 
L 5261 211 
C 5043 223 5024 268 5024 670 
L 5024 1985 
C 5024 2617 4653 3014 4064 3014 
C 3840 3014 3654 2956 3539 2854 
L 3053 2419 
C 2848 2841 2586 3014 2144 3014 
C 1907 3014 1728 2956 1613 2854 
L 1171 2445 
L 1171 2988 
L 1114 3008 
C 787 2873 454 2783 115 2745 
L 115 2579 
z
" transform="scale(0.015625)"/>
       <path id="URWPalladioL-Roma-65" d="M 2797 447 
L 2714 511 
C 2304 268 2157 211 1882 211 
C 1466 211 1120 396 941 710 
C 819 921 774 1100 762 1472 
L 1696 1472 
C 2138 1472 2413 1491 2854 1561 
C 2861 1651 2867 1708 2867 1786 
C 2867 2526 2394 3008 1677 3008 
C 1440 3008 1165 2924 902 2771 
C 378 2468 166 2069 166 1401 
C 166 998 262 652 435 409 
C 691 70 1120 -128 1600 -128 
C 1837 -128 2074 -77 2336 38 
C 2509 108 2643 192 2669 230 
L 2797 447 
z
M 2298 1708 
C 1965 1696 1811 1689 1581 1689 
C 1286 1689 1120 1696 774 1728 
C 774 2030 800 2172 883 2339 
C 1018 2623 1293 2796 1600 2796 
C 1811 2796 1978 2713 2093 2539 
C 2234 2326 2278 2140 2298 1708 
z
" transform="scale(0.015625)"/>
       <path id="URWPalladioL-Roma-5b" d="M 563 -1178 
C 1018 -1166 1030 -1166 1184 -1166 
C 1338 -1166 1370 -1166 1805 -1178 
L 1843 -1140 
L 1843 -974 
L 1818 -942 
L 1574 -942 
C 1402 -942 1261 -903 1184 -839 
C 1126 -782 1107 -692 1107 -481 
C 1107 -474 1107 -340 1101 -148 
L 1101 89 
L 1101 3379 
L 1101 3615 
C 1107 3795 1107 3935 1107 3942 
C 1107 4153 1126 4249 1184 4307 
C 1261 4371 1402 4409 1574 4409 
L 1818 4409 
L 1843 4441 
L 1843 4608 
L 1805 4646 
C 1357 4633 1338 4633 1184 4633 
C 1037 4633 1005 4633 563 4646 
L 506 4563 
C 544 4403 557 4191 557 3699 
C 557 3603 557 3526 563 3462 
L 563 3379 
L 563 89 
L 563 6 
C 557 -97 557 -103 557 -212 
L 557 -282 
C 557 -718 544 -897 506 -1095 
L 563 -1178 
z
" transform="scale(0.015625)"/>
       <path id="URWPalladioL-Roma-73" d="M 262 917 
C 262 474 243 282 192 25 
C 525 -84 774 -128 1069 -128 
C 1907 -128 2502 320 2502 949 
C 2502 1148 2445 1295 2323 1423 
C 2157 1584 1946 1661 1382 1770 
C 858 1872 685 2001 685 2296 
C 685 2617 909 2796 1299 2796 
C 1728 2796 2054 2572 2054 2270 
L 2054 2123 
L 2234 2123 
C 2240 2495 2246 2649 2266 2847 
C 1926 2963 1696 3008 1434 3008 
C 691 3008 237 2655 237 2078 
C 237 1770 378 1552 672 1417 
C 845 1340 1184 1237 1619 1141 
C 1907 1077 2029 942 2029 698 
C 2029 352 1709 108 1254 108 
C 787 108 454 333 454 654 
L 454 917 
L 262 917 
z
" transform="scale(0.015625)"/>
       <path id="URWPalladioL-Roma-63" d="M 2554 1995 
C 2554 2290 2586 2553 2643 2783 
C 2387 2937 2163 3008 1901 3008 
C 1594 3008 1235 2886 851 2643 
C 403 2360 166 1911 166 1347 
C 166 480 774 -128 1632 -128 
C 1965 -128 2445 -7 2509 89 
L 2643 294 
L 2579 390 
C 2342 262 2138 204 1907 204 
C 1197 204 730 756 730 1603 
C 730 2290 1050 2675 1626 2675 
C 1907 2675 2214 2547 2330 2386 
L 2374 1995 
L 2554 1995 
z
" transform="scale(0.015625)"/>
       <path id="URWPalladioL-Roma-6f" d="M 1786 3008 
C 851 3008 205 2347 205 1391 
C 205 487 774 -128 1600 -128 
C 2586 -128 3290 557 3290 1520 
C 3290 2386 2662 3008 1786 3008 
z
M 1670 2796 
C 2259 2796 2694 2155 2694 1282 
C 2694 545 2368 83 1850 83 
C 1222 83 800 699 800 1609 
C 800 2379 1107 2796 1670 2796 
z
" transform="scale(0.015625)"/>
       <path id="URWPalladioL-Roma-6e" d="M 2624 0 
C 3014 0 3021 0 3130 0 
C 3219 19 3219 19 3661 0 
L 3661 192 
L 3398 211 
C 3181 223 3162 262 3162 670 
L 3162 1902 
C 3162 2649 2810 3014 2093 3014 
C 1856 3014 1722 2969 1587 2854 
L 1101 2432 
L 1101 2988 
L 1043 3008 
C 717 2873 384 2784 45 2746 
L 45 2568 
L 282 2568 
C 538 2568 563 2523 563 2103 
L 563 669 
C 563 268 544 223 326 211 
L 38 192 
L 38 0 
C 474 -7 646 0 832 0 
C 1018 19 1190 12 1626 0 
L 1626 192 
L 1338 211 
C 1120 223 1101 268 1101 670 
L 1101 2023 
C 1101 2311 1523 2624 1914 2624 
C 2342 2624 2624 2304 2624 1813 
L 2624 0 
z
" transform="scale(0.015625)"/>
       <path id="URWPalladioL-Roma-64" d="M 2637 2803 
C 2278 2956 2099 3008 1875 3008 
C 1702 3008 1549 2969 1389 2886 
L 826 2592 
C 461 2400 224 1934 224 1392 
C 224 881 397 460 710 204 
C 928 19 1229 -64 1645 -64 
C 1773 -64 1920 -39 1952 -13 
L 2662 581 
L 2630 0 
C 2944 -7 3046 0 3123 0 
C 3174 0 3264 0 3398 -7 
C 3443 6 3571 6 3706 0 
L 3706 192 
L 3411 211 
C 3194 224 3174 268 3174 672 
L 3174 4614 
L 3117 4665 
C 2835 4557 2624 4505 2118 4429 
L 2118 4249 
L 2477 4249 
C 2592 4249 2637 4179 2637 3987 
L 2637 2803 
z
M 2637 1424 
C 2637 1009 2624 945 2541 798 
C 2362 498 2048 300 1747 300 
C 1184 300 781 843 781 1602 
C 781 2298 1126 2707 1702 2707 
C 1946 2707 2202 2624 2426 2470 
C 2560 2381 2637 2298 2637 2247 
L 2637 1424 
z
" transform="scale(0.015625)"/>
       <path id="URWPalladioL-Roma-5d" d="M 1568 4646 
C 1114 4633 1094 4633 947 4633 
C 794 4633 762 4633 326 4646 
L 288 4608 
L 288 4441 
L 314 4409 
L 557 4409 
C 730 4409 864 4371 941 4307 
C 1005 4249 1024 4159 1024 3942 
C 1024 3923 1024 3795 1030 3615 
L 1030 3379 
L 1030 89 
L 1030 -148 
C 1024 -334 1024 -449 1024 -468 
C 1024 -686 1005 -782 941 -839 
C 864 -903 730 -942 557 -942 
L 314 -942 
L 288 -974 
L 288 -1140 
L 326 -1178 
C 774 -1166 787 -1166 947 -1166 
C 1094 -1166 1126 -1166 1568 -1178 
L 1626 -1095 
C 1587 -942 1581 -743 1574 -250 
C 1574 -161 1574 -78 1568 6 
L 1568 89 
L 1568 3379 
L 1568 3462 
C 1574 3532 1574 3615 1574 3705 
C 1574 4198 1587 4409 1626 4563 
L 1568 4646 
z
" transform="scale(0.015625)"/>
      </defs>
      <use xlink:href="#URWPalladioL-Roma-54" transform="scale(0.996264)"/>
      <use xlink:href="#URWPalladioL-Roma-69" transform="translate(55.591109 0)scale(0.996264)"/>
      <use xlink:href="#URWPalladioL-Roma-6d" transform="translate(84.581471 0)scale(0.996264)"/>
      <use xlink:href="#URWPalladioL-Roma-65" transform="translate(172.551145 0)scale(0.996264)"/>
      <use xlink:href="#URWPalladioL-Roma-5b" transform="translate(245.17804 0)scale(0.996264)"/>
      <use xlink:href="#URWPalladioL-Roma-73" transform="translate(278.35327 0)scale(0.996264)"/>
      <use xlink:href="#URWPalladioL-Roma-65" transform="translate(320.594736 0)scale(0.996264)"/>
      <use xlink:href="#URWPalladioL-Roma-63" transform="translate(368.315031 0)scale(0.996264)"/>
      <use xlink:href="#URWPalladioL-Roma-6f" transform="translate(412.5486 0)scale(0.996264)"/>
      <use xlink:href="#URWPalladioL-Roma-6e" transform="translate(466.94418 0)scale(0.996264)"/>
      <use xlink:href="#URWPalladioL-Roma-64" transform="translate(524.926241 0)scale(0.996264)"/>
      <use xlink:href="#URWPalladioL-Roma-73" transform="translate(585.797872 0)scale(0.996264)"/>
      <use xlink:href="#URWPalladioL-Roma-5d" transform="translate(628.039338 0)scale(0.996264)"/>
     </g>
    </g>
   </g>
   <g id="matplotlib.axis_2">
    <g id="ytick_1">
     <g id="line2d_12">
      <path d="M 29.673848 53.530829 
L 427.740838 53.530829 
" clip-path="url(#pb6d29ac1c4)" style="fill: none; stroke: #000000; stroke-opacity: 0.2; stroke-width: 0.5; stroke-linecap: round"/>
     </g>
     <g id="line2d_13">
      <defs>
       <path id="m313b89d160" d="M 0 0 
L -3.5 0 
" style="stroke: #000000; stroke-opacity: 0.2; stroke-width: 0.5"/>
      </defs>
      <g>
       <use xlink:href="#m313b89d160" x="29.673848" y="53.530829" style="fill-opacity: 0.2; stroke: #000000; stroke-opacity: 0.2; stroke-width: 0.5"/>
      </g>
     </g>
     <g id="text_7">
      <!-- $\mathdefault{0}$ -->
      <g transform="translate(7.2 58.520594)scale(0.14 -0.14)">
       <use xlink:href="#URWPalladioL-Roma-30" transform="scale(0.996264)"/>
      </g>
     </g>
    </g>
   </g>
   <g id="patch_3">
    <path d="M 32.936692 99.861659 
L 32.936692 7.2 
L 228.707343 7.2 
L 228.707343 99.861659 
z
" clip-path="url(#pb6d29ac1c4)" style="fill: #343837; opacity: 0.15; stroke: #343837; stroke-width: 0.5; stroke-linejoin: miter"/>
   </g>
   <g id="patch_4">
    <path d="M 326.592668 99.861659 
L 326.592668 7.2 
L 424.477994 7.2 
L 424.477994 99.861659 
z
" clip-path="url(#pb6d29ac1c4)" style="fill: #343837; opacity: 0.15; stroke: #343837; stroke-width: 0.5; stroke-linejoin: miter"/>
   </g>
   <g id="LineCollection_1">
    <path d="M 32.936692 115.305268 
L 32.936692 -1 
" clip-path="url(#pb6d29ac1c4)" style="fill: none; stroke: #343837; stroke-width: 2"/>
    <path d="M 130.822018 115.305268 
L 130.822018 -1 
" clip-path="url(#pb6d29ac1c4)" style="fill: none; stroke: #343837; stroke-width: 2"/>
    <path d="M 228.707343 115.305268 
L 228.707343 -1 
" clip-path="url(#pb6d29ac1c4)" style="fill: none; stroke: #343837; stroke-width: 2"/>
    <path d="M 326.592668 115.305268 
L 326.592668 -1 
" clip-path="url(#pb6d29ac1c4)" style="fill: none; stroke: #343837; stroke-width: 2"/>
    <path d="M 424.477994 115.305268 
L 424.477994 -1 
" clip-path="url(#pb6d29ac1c4)" style="fill: none; stroke: #343837; stroke-width: 2"/>
   </g>
   <g id="line2d_14">
    <path d="M 228.707343 94.713789 
L 232.785898 94.713789 
L 232.785898 90.847839 
L 236.864453 90.847839 
L 236.864453 80.434894 
L 240.943009 80.434894 
L 240.943009 66.634821 
L 245.021564 66.634821 
L 245.021564 53.530829 
L 249.100119 53.530829 
L 249.100119 44.775022 
L 253.178674 44.775022 
L 253.178674 42.386801 
L 257.25723 42.386801 
L 257.25723 46.108015 
L 261.335785 46.108015 
L 261.335785 53.530829 
L 265.41434 53.530829 
L 265.41434 60.953644 
L 269.492895 60.953644 
L 269.492895 64.674858 
L 273.57145 64.674858 
L 273.57145 62.286636 
L 277.650006 62.286636 
L 277.650006 53.530829 
L 281.728561 53.530829 
L 281.728561 40.426838 
L 285.807116 40.426838 
L 285.807116 26.626765 
L 289.885671 26.626765 
L 289.885671 16.213819 
L 293.964227 16.213819 
L 293.964227 12.34787 
L 298.042782 12.34787 
L 298.042782 16.213819 
L 302.121337 16.213819 
L 302.121337 26.626765 
L 306.199892 26.626765 
L 306.199892 40.426838 
L 310.278448 40.426838 
L 310.278448 53.530829 
L 314.357003 53.530829 
L 314.357003 62.286636 
L 318.435558 62.286636 
L 318.435558 64.674858 
L 322.514113 64.674858 
L 322.514113 60.953644 
" clip-path="url(#pb6d29ac1c4)" style="fill: none; stroke: #0271ae; stroke-width: 2; stroke-linecap: round"/>
    <defs>
     <path id="m3cf771a744" d="M 0 3.5 
C 0.928211 3.5 1.81853 3.131218 2.474874 2.474874 
C 3.131218 1.81853 3.5 0.928211 3.5 0 
C 3.5 -0.928211 3.131218 -1.81853 2.474874 -2.474874 
C 1.81853 -3.131218 0.928211 -3.5 0 -3.5 
C -0.928211 -3.5 -1.81853 -3.131218 -2.474874 -2.474874 
C -3.131218 -1.81853 -3.5 -0.928211 -3.5 0 
C -3.5 0.928211 -3.131218 1.81853 -2.474874 2.474874 
C -1.81853 3.131218 -0.928211 3.5 0 3.5 
z
" style="stroke: #fefefa; stroke-width: 1.5"/>
    </defs>
    <g clip-path="url(#pb6d29ac1c4)">
     <use xlink:href="#m3cf771a744" x="228.707343" y="94.713789" style="fill: #0271ae; stroke: #fefefa; stroke-width: 1.5"/>
     <use xlink:href="#m3cf771a744" x="232.785898" y="90.847839" style="fill: #0271ae; stroke: #fefefa; stroke-width: 1.5"/>
     <use xlink:href="#m3cf771a744" x="236.864453" y="80.434894" style="fill: #0271ae; stroke: #fefefa; stroke-width: 1.5"/>
     <use xlink:href="#m3cf771a744" x="240.943009" y="66.634821" style="fill: #0271ae; stroke: #fefefa; stroke-width: 1.5"/>
     <use xlink:href="#m3cf771a744" x="245.021564" y="53.530829" style="fill: #0271ae; stroke: #fefefa; stroke-width: 1.5"/>
     <use xlink:href="#m3cf771a744" x="249.100119" y="44.775022" style="fill: #0271ae; stroke: #fefefa; stroke-width: 1.5"/>
     <use xlink:href="#m3cf771a744" x="253.178674" y="42.386801" style="fill: #0271ae; stroke: #fefefa; stroke-width: 1.5"/>
     <use xlink:href="#m3cf771a744" x="257.25723" y="46.108015" style="fill: #0271ae; stroke: #fefefa; stroke-width: 1.5"/>
     <use xlink:href="#m3cf771a744" x="261.335785" y="53.530829" style="fill: #0271ae; stroke: #fefefa; stroke-width: 1.5"/>
     <use xlink:href="#m3cf771a744" x="265.41434" y="60.953644" style="fill: #0271ae; stroke: #fefefa; stroke-width: 1.5"/>
     <use xlink:href="#m3cf771a744" x="269.492895" y="64.674858" style="fill: #0271ae; stroke: #fefefa; stroke-width: 1.5"/>
     <use xlink:href="#m3cf771a744" x="273.57145" y="62.286636" style="fill: #0271ae; stroke: #fefefa; stroke-width: 1.5"/>
     <use xlink:href="#m3cf771a744" x="277.650006" y="53.530829" style="fill: #0271ae; stroke: #fefefa; stroke-width: 1.5"/>
     <use xlink:href="#m3cf771a744" x="281.728561" y="40.426838" style="fill: #0271ae; stroke: #fefefa; stroke-width: 1.5"/>
     <use xlink:href="#m3cf771a744" x="285.807116" y="26.626765" style="fill: #0271ae; stroke: #fefefa; stroke-width: 1.5"/>
     <use xlink:href="#m3cf771a744" x="289.885671" y="16.213819" style="fill: #0271ae; stroke: #fefefa; stroke-width: 1.5"/>
     <use xlink:href="#m3cf771a744" x="293.964227" y="12.34787" style="fill: #0271ae; stroke: #fefefa; stroke-width: 1.5"/>
     <use xlink:href="#m3cf771a744" x="298.042782" y="16.213819" style="fill: #0271ae; stroke: #fefefa; stroke-width: 1.5"/>
     <use xlink:href="#m3cf771a744" x="302.121337" y="26.626765" style="fill: #0271ae; stroke: #fefefa; stroke-width: 1.5"/>
     <use xlink:href="#m3cf771a744" x="306.199892" y="40.426838" style="fill: #0271ae; stroke: #fefefa; stroke-width: 1.5"/>
     <use xlink:href="#m3cf771a744" x="310.278448" y="53.530829" style="fill: #0271ae; stroke: #fefefa; stroke-width: 1.5"/>
     <use xlink:href="#m3cf771a744" x="314.357003" y="62.286636" style="fill: #0271ae; stroke: #fefefa; stroke-width: 1.5"/>
     <use xlink:href="#m3cf771a744" x="318.435558" y="64.674858" style="fill: #0271ae; stroke: #fefefa; stroke-width: 1.5"/>
     <use xlink:href="#m3cf771a744" x="322.514113" y="60.953644" style="fill: #0271ae; stroke: #fefefa; stroke-width: 1.5"/>
    </g>
   </g>
  </g>
 </g>
 <defs>
  <clipPath id="pb6d29ac1c4">
   <rect x="29.673848" y="7.2" width="398.06699" height="92.661659"/>
  </clipPath>
 </defs>
</svg>