<?xml version="1.0" encoding="utf-8" standalone="no"?>
<!DOCTYPE svg PUBLIC "-//W3C//DTD SVG 1.1//EN"
  "http://www.w3.org/Graphics/SVG/1.1/DTD/svg11.dtd">
<svg height="152.39952pt" version="1.1" viewBox="0 0 584.39952 152.39952" width="584.39952pt" xmlns="http://www.w3.org/2000/svg" xmlns:xlink="http://www.w3.org/1999/xlink">
 <metadata>
  <rdf:RDF xmlns:cc="http://creativecommons.org/ns#" xmlns:dc="http://purl.org/dc/elements/1.1/" xmlns:rdf="http://www.w3.org/1999/02/22-rdf-syntax-ns#">
   <cc:Work>
    <dc:type rdf:resource="http://purl.org/dc/dcmitype/StillImage"/>
    <dc:date>2021-08-20T09:14:39.017522</dc:date>
    <dc:format>image/svg+xml</dc:format>
    <dc:creator>
     <cc:Agent>
      <dc:title>Matplotlib v3.4.2, https://matplotlib.org/</dc:title>
     </cc:Agent>
    </dc:creator>
   </cc:Work>
  </rdf:RDF>
 </metadata>
 <defs>
  <style type="text/css">*{stroke-linecap:butt;stroke-linejoin:round;}</style>
 </defs>
 <g id="figure_1">
  <g id="patch_1">
   <path d="M 0 152.39952 
L 584.39952 152.39952 
L 584.39952 0 
L 0 0 
z
" style="fill:none;"/>
  </g>
  <g id="axes_1">
   <g id="patch_2">
    <path d="M 15.91731 99.861659 
L 511.15718 99.861659 
L 511.15718 7.2 
L 15.91731 7.2 
z
" style="fill:none;"/>
   </g>
   <g id="matplotlib.axis_1">
    <g id="xtick_1">
     <g id="line2d_1">
      <path clip-path="url(#pe70048f855)" d="M 15.91731 99.861659 
L 15.91731 7.2 
" style="fill:none;stroke:#000000;stroke-linejoin:miter;stroke-opacity:0.2;stroke-width:0.5;"/>
     </g>
     <g id="line2d_2">
      <defs>
       <path d="M 0 0 
L 0 3.5 
" id="m265db0aa36" style="stroke:#000000;stroke-opacity:0.2;stroke-width:0.8;"/>
      </defs>
      <g>
       <use style="fill-opacity:0.2;stroke:#000000;stroke-opacity:0.2;stroke-width:0.8;" x="15.91731" xlink:href="#m265db0aa36" y="99.861659"/>
      </g>
     </g>
     <g id="text_1">
      <!-- $\mathdefault{0.0}$ -->
      <g transform="translate(7.2 125.341188)scale(0.14 -0.14)">
       <defs>
        <path d="M 1683 4416 
C 691 4416 186 3628 186 2076 
C 186 1326 320 679 544 365 
C 768 51 1126 -128 1523 -128 
C 2490 -128 2976 704 2976 2345 
C 2976 3749 2560 4416 1683 4416 
z
M 1568 4191 
C 2189 4191 2438 3563 2438 2025 
C 2438 660 2195 96 1606 96 
C 986 96 723 743 723 2307 
C 723 3660 960 4191 1568 4191 
z
" id="URWPalladioL-Roma-30" transform="scale(0.015625)"/>
        <path d="M 794 678 
C 602 678 429 499 429 307 
C 429 115 602 -64 787 -64 
C 992 -64 1171 108 1171 307 
C 1171 499 992 678 794 678 
z
" id="URWPalladioL-Roma-2e" transform="scale(0.015625)"/>
       </defs>
       <use transform="scale(0.996264)" xlink:href="#URWPalladioL-Roma-30"/>
       <use transform="translate(49.8132 0)scale(0.996264)" xlink:href="#URWPalladioL-Roma-2e"/>
       <use transform="translate(74.719801 0)scale(0.996264)" xlink:href="#URWPalladioL-Roma-30"/>
      </g>
     </g>
    </g>
    <g id="xtick_2">
     <g id="line2d_3">
      <path clip-path="url(#pe70048f855)" d="M 139.727277 99.861659 
L 139.727277 7.2 
" style="fill:none;stroke:#000000;stroke-linejoin:miter;stroke-opacity:0.2;stroke-width:0.5;"/>
     </g>
     <g id="line2d_4">
      <g>
       <use style="fill-opacity:0.2;stroke:#000000;stroke-opacity:0.2;stroke-width:0.8;" x="139.727277" xlink:href="#m265db0aa36" y="99.861659"/>
      </g>
     </g>
     <g id="text_2">
      <!-- $\mathdefault{0.5}$ -->
      <g transform="translate(131.009967 125.341188)scale(0.14 -0.14)">
       <defs>
        <path d="M 813 3891 
C 1638 3865 1997 3859 2765 3859 
L 2797 3891 
C 2784 4006 2784 4057 2784 4140 
C 2784 4230 2784 4281 2797 4396 
L 2765 4428 
C 2285 4403 1997 4396 1651 4396 
C 1299 4396 1018 4403 538 4428 
L 506 4396 
C 512 4006 518 3724 518 3520 
C 518 2976 499 2360 480 2076 
L 608 2038 
C 909 2341 1082 2432 1395 2432 
C 2010 2432 2394 1992 2394 1295 
C 2394 579 1984 160 1286 160 
C 941 160 621 276 531 443 
L 237 973 
L 83 882 
C 230 514 307 308 397 25 
C 576 -71 832 -128 1107 -128 
C 1536 -128 1990 57 2342 366 
C 2733 715 2938 1153 2938 1631 
C 2938 2360 2419 2873 1690 2873 
C 1382 2873 1152 2790 755 2553 
L 813 3891 
z
" id="URWPalladioL-Roma-35" transform="scale(0.015625)"/>
       </defs>
       <use transform="scale(0.996264)" xlink:href="#URWPalladioL-Roma-30"/>
       <use transform="translate(49.8132 0)scale(0.996264)" xlink:href="#URWPalladioL-Roma-2e"/>
       <use transform="translate(74.719801 0)scale(0.996264)" xlink:href="#URWPalladioL-Roma-35"/>
      </g>
     </g>
    </g>
    <g id="xtick_3">
     <g id="line2d_5">
      <path clip-path="url(#pe70048f855)" d="M 263.537245 99.861659 
L 263.537245 7.2 
" style="fill:none;stroke:#000000;stroke-linejoin:miter;stroke-opacity:0.2;stroke-width:0.5;"/>
     </g>
     <g id="line2d_6">
      <g>
       <use style="fill-opacity:0.2;stroke:#000000;stroke-opacity:0.2;stroke-width:0.8;" x="263.537245" xlink:href="#m265db0aa36" y="99.861659"/>
      </g>
     </g>
     <g id="text_3">
      <!-- $\mathdefault{1.0}$ -->
      <g transform="translate(254.819935 125.341188)scale(0.14 -0.14)">
       <defs>
        <path d="M 429 3571 
L 493 3571 
L 1318 3942 
C 1325 3949 1331 3949 1338 3949 
C 1376 3949 1389 3891 1389 3737 
L 1389 633 
C 1389 300 1318 230 973 211 
L 614 192 
L 614 0 
C 1600 0 1600 0 1670 0 
C 1754 0 1894 0 2112 -7 
C 2189 6 2413 6 2675 0 
L 2675 192 
L 2342 211 
C 1990 229 1926 299 1926 628 
L 1926 4383 
L 1837 4416 
C 1421 4199 966 4009 384 3807 
L 429 3571 
z
" id="URWPalladioL-Roma-31" transform="scale(0.015625)"/>
       </defs>
       <use transform="scale(0.996264)" xlink:href="#URWPalladioL-Roma-31"/>
       <use transform="translate(49.8132 0)scale(0.996264)" xlink:href="#URWPalladioL-Roma-2e"/>
       <use transform="translate(74.719801 0)scale(0.996264)" xlink:href="#URWPalladioL-Roma-30"/>
      </g>
     </g>
    </g>
    <g id="xtick_4">
     <g id="line2d_7">
      <path clip-path="url(#pe70048f855)" d="M 387.347212 99.861659 
L 387.347212 7.2 
" style="fill:none;stroke:#000000;stroke-linejoin:miter;stroke-opacity:0.2;stroke-width:0.5;"/>
     </g>
     <g id="line2d_8">
      <g>
       <use style="fill-opacity:0.2;stroke:#000000;stroke-opacity:0.2;stroke-width:0.8;" x="387.347212" xlink:href="#m265db0aa36" y="99.861659"/>
      </g>
     </g>
     <g id="text_4">
      <!-- $\mathdefault{1.5}$ -->
      <g transform="translate(378.629902 125.341188)scale(0.14 -0.14)">
       <use transform="scale(0.996264)" xlink:href="#URWPalladioL-Roma-31"/>
       <use transform="translate(49.8132 0)scale(0.996264)" xlink:href="#URWPalladioL-Roma-2e"/>
       <use transform="translate(74.719801 0)scale(0.996264)" xlink:href="#URWPalladioL-Roma-35"/>
      </g>
     </g>
    </g>
    <g id="xtick_5">
     <g id="line2d_9">
      <path clip-path="url(#pe70048f855)" d="M 511.15718 99.861659 
L 511.15718 7.2 
" style="fill:none;stroke:#000000;stroke-linejoin:miter;stroke-opacity:0.2;stroke-width:0.5;"/>
     </g>
     <g id="line2d_10">
      <g>
       <use style="fill-opacity:0.2;stroke:#000000;stroke-opacity:0.2;stroke-width:0.8;" x="511.15718" xlink:href="#m265db0aa36" y="99.861659"/>
      </g>
     </g>
     <g id="text_5">
      <!-- $\mathdefault{2.0}$ -->
      <g transform="translate(502.43987 125.341188)scale(0.14 -0.14)">
       <defs>
        <path d="M 102 166 
L 102 0 
C 1299 0 1299 0 1530 0 
C 1760 19 1760 19 2995 0 
C 2982 134 2982 198 2982 287 
C 2982 370 2982 434 2995 574 
C 2259 542 1965 536 781 510 
L 1946 1741 
C 2566 2398 2758 2749 2758 3228 
C 2758 3961 2259 4416 1446 4416 
C 986 4416 672 4287 358 3967 
L 250 3100 
L 435 3100 
L 518 3394 
C 621 3763 851 3923 1280 3923 
C 1830 3923 2182 3578 2182 3036 
C 2182 2558 1914 2086 1190 1320 
L 102 166 
z
" id="URWPalladioL-Roma-32" transform="scale(0.015625)"/>
       </defs>
       <use transform="scale(0.996264)" xlink:href="#URWPalladioL-Roma-32"/>
       <use transform="translate(49.8132 0)scale(0.996264)" xlink:href="#URWPalladioL-Roma-2e"/>
       <use transform="translate(74.719801 0)scale(0.996264)" xlink:href="#URWPalladioL-Roma-30"/>
      </g>
     </g>
    </g>
    <g id="text_6">
     <!-- Time [seconds] -->
     <g transform="translate(223.864393 141.828236)scale(0.12 -0.12)">
      <defs>
       <path d="M 1632 4096 
C 1651 3880 1658 3734 1658 3462 
L 1658 781 
C 1658 280 1626 230 1331 211 
L 1024 192 
L 1024 0 
C 1402 -7 1626 0 1958 0 
C 2291 19 2522 12 2899 0 
L 2899 192 
L 2592 211 
C 2298 230 2266 280 2266 781 
L 2266 3462 
C 2266 3747 2272 3887 2291 4096 
L 3283 4096 
C 3462 4096 3533 4039 3539 3887 
L 3565 3386 
L 3763 3386 
C 3763 3801 3776 4051 3808 4416 
C 3347 4409 3136 4409 2957 4403 
C 2707 4390 2522 4390 2426 4390 
L 1414 4390 
C 1350 4390 1005 4396 550 4403 
L 115 4416 
C 147 4051 160 3801 160 3385 
L 358 3385 
L 384 3891 
C 390 4038 461 4096 640 4096 
L 1632 4096 
z
" id="URWPalladioL-Roma-54" transform="scale(0.015625)"/>
       <path d="M 1203 2982 
L 1146 3008 
C 819 2873 486 2784 147 2746 
L 147 2568 
L 384 2568 
C 640 2568 666 2523 666 2103 
L 666 669 
C 666 268 646 223 429 211 
L 134 192 
L 134 0 
C 774 0 774 0 934 0 
C 1094 19 1094 19 1734 0 
L 1734 192 
L 1440 211 
C 1222 224 1203 268 1203 671 
L 1203 2982 
z
M 909 4416 
C 717 4416 550 4249 550 4057 
C 550 3871 717 3705 902 3705 
C 1088 3705 1261 3871 1261 4057 
C 1261 4236 1088 4416 909 4416 
z
" id="URWPalladioL-Roma-69" transform="scale(0.015625)"/>
       <path d="M 115 2579 
L 352 2579 
C 608 2579 634 2534 634 2112 
L 634 672 
C 634 268 614 224 397 211 
L 102 192 
L 102 0 
C 717 0 736 0 915 0 
C 1094 19 1261 12 1677 0 
L 1677 192 
L 1408 211 
C 1190 223 1171 268 1171 670 
L 1171 2023 
C 1171 2311 1594 2624 1978 2624 
C 2323 2624 2560 2298 2560 1813 
L 2560 670 
C 2560 268 2541 223 2323 211 
L 2029 192 
L 2029 0 
C 2669 0 2669 0 2829 0 
C 2989 19 2989 19 3629 0 
L 3629 192 
L 3334 211 
C 3117 223 3098 268 3098 670 
L 3098 2023 
C 3098 2311 3520 2624 3904 2624 
C 4250 2624 4486 2298 4486 1813 
L 4486 0 
C 4877 0 4883 0 4992 0 
C 5075 19 5075 19 5562 0 
L 5562 192 
L 5261 211 
C 5043 223 5024 268 5024 670 
L 5024 1985 
C 5024 2617 4653 3014 4064 3014 
C 3840 3014 3654 2956 3539 2854 
L 3053 2419 
C 2848 2841 2586 3014 2144 3014 
C 1907 3014 1728 2956 1613 2854 
L 1171 2445 
L 1171 2988 
L 1114 3008 
C 787 2873 454 2783 115 2745 
L 115 2579 
z
" id="URWPalladioL-Roma-6d" transform="scale(0.015625)"/>
       <path d="M 2797 447 
L 2714 511 
C 2304 268 2157 211 1882 211 
C 1466 211 1120 396 941 710 
C 819 921 774 1100 762 1472 
L 1696 1472 
C 2138 1472 2413 1491 2854 1561 
C 2861 1651 2867 1708 2867 1786 
C 2867 2526 2394 3008 1677 3008 
C 1440 3008 1165 2924 902 2771 
C 378 2468 166 2069 166 1401 
C 166 998 262 652 435 409 
C 691 70 1120 -128 1600 -128 
C 1837 -128 2074 -77 2336 38 
C 2509 108 2643 192 2669 230 
L 2797 447 
z
M 2298 1708 
C 1965 1696 1811 1689 1581 1689 
C 1286 1689 1120 1696 774 1728 
C 774 2030 800 2172 883 2339 
C 1018 2623 1293 2796 1600 2796 
C 1811 2796 1978 2713 2093 2539 
C 2234 2326 2278 2140 2298 1708 
z
" id="URWPalladioL-Roma-65" transform="scale(0.015625)"/>
       <path d="M 563 -1178 
C 1018 -1166 1030 -1166 1184 -1166 
C 1338 -1166 1370 -1166 1805 -1178 
L 1843 -1140 
L 1843 -974 
L 1818 -942 
L 1574 -942 
C 1402 -942 1261 -903 1184 -839 
C 1126 -782 1107 -692 1107 -481 
C 1107 -474 1107 -340 1101 -148 
L 1101 89 
L 1101 3379 
L 1101 3615 
C 1107 3795 1107 3935 1107 3942 
C 1107 4153 1126 4249 1184 4307 
C 1261 4371 1402 4409 1574 4409 
L 1818 4409 
L 1843 4441 
L 1843 4608 
L 1805 4646 
C 1357 4633 1338 4633 1184 4633 
C 1037 4633 1005 4633 563 4646 
L 506 4563 
C 544 4403 557 4191 557 3699 
C 557 3603 557 3526 563 3462 
L 563 3379 
L 563 89 
L 563 6 
C 557 -97 557 -103 557 -212 
L 557 -282 
C 557 -718 544 -897 506 -1095 
L 563 -1178 
z
" id="URWPalladioL-Roma-5b" transform="scale(0.015625)"/>
       <path d="M 262 917 
C 262 474 243 282 192 25 
C 525 -84 774 -128 1069 -128 
C 1907 -128 2502 320 2502 949 
C 2502 1148 2445 1295 2323 1423 
C 2157 1584 1946 1661 1382 1770 
C 858 1872 685 2001 685 2296 
C 685 2617 909 2796 1299 2796 
C 1728 2796 2054 2572 2054 2270 
L 2054 2123 
L 2234 2123 
C 2240 2495 2246 2649 2266 2847 
C 1926 2963 1696 3008 1434 3008 
C 691 3008 237 2655 237 2078 
C 237 1770 378 1552 672 1417 
C 845 1340 1184 1237 1619 1141 
C 1907 1077 2029 942 2029 698 
C 2029 352 1709 108 1254 108 
C 787 108 454 333 454 654 
L 454 917 
L 262 917 
z
" id="URWPalladioL-Roma-73" transform="scale(0.015625)"/>
       <path d="M 2554 1995 
C 2554 2290 2586 2553 2643 2783 
C 2387 2937 2163 3008 1901 3008 
C 1594 3008 1235 2886 851 2643 
C 403 2360 166 1911 166 1347 
C 166 480 774 -128 1632 -128 
C 1965 -128 2445 -7 2509 89 
L 2643 294 
L 2579 390 
C 2342 262 2138 204 1907 204 
C 1197 204 730 756 730 1603 
C 730 2290 1050 2675 1626 2675 
C 1907 2675 2214 2547 2330 2386 
L 2374 1995 
L 2554 1995 
z
" id="URWPalladioL-Roma-63" transform="scale(0.015625)"/>
       <path d="M 1786 3008 
C 851 3008 205 2347 205 1391 
C 205 487 774 -128 1600 -128 
C 2586 -128 3290 557 3290 1520 
C 3290 2386 2662 3008 1786 3008 
z
M 1670 2796 
C 2259 2796 2694 2155 2694 1282 
C 2694 545 2368 83 1850 83 
C 1222 83 800 699 800 1609 
C 800 2379 1107 2796 1670 2796 
z
" id="URWPalladioL-Roma-6f" transform="scale(0.015625)"/>
       <path d="M 2624 0 
C 3014 0 3021 0 3130 0 
C 3219 19 3219 19 3661 0 
L 3661 192 
L 3398 211 
C 3181 223 3162 262 3162 670 
L 3162 1902 
C 3162 2649 2810 3014 2093 3014 
C 1856 3014 1722 2969 1587 2854 
L 1101 2432 
L 1101 2988 
L 1043 3008 
C 717 2873 384 2784 45 2746 
L 45 2568 
L 282 2568 
C 538 2568 563 2523 563 2103 
L 563 669 
C 563 268 544 223 326 211 
L 38 192 
L 38 0 
C 474 -7 646 0 832 0 
C 1018 19 1190 12 1626 0 
L 1626 192 
L 1338 211 
C 1120 223 1101 268 1101 670 
L 1101 2023 
C 1101 2311 1523 2624 1914 2624 
C 2342 2624 2624 2304 2624 1813 
L 2624 0 
z
" id="URWPalladioL-Roma-6e" transform="scale(0.015625)"/>
       <path d="M 2637 2803 
C 2278 2956 2099 3008 1875 3008 
C 1702 3008 1549 2969 1389 2886 
L 826 2592 
C 461 2400 224 1934 224 1392 
C 224 881 397 460 710 204 
C 928 19 1229 -64 1645 -64 
C 1773 -64 1920 -39 1952 -13 
L 2662 581 
L 2630 0 
C 2944 -7 3046 0 3123 0 
C 3174 0 3264 0 3398 -7 
C 3443 6 3571 6 3706 0 
L 3706 192 
L 3411 211 
C 3194 224 3174 268 3174 672 
L 3174 4614 
L 3117 4665 
C 2835 4557 2624 4505 2118 4429 
L 2118 4249 
L 2477 4249 
C 2592 4249 2637 4179 2637 3987 
L 2637 2803 
z
M 2637 1424 
C 2637 1009 2624 945 2541 798 
C 2362 498 2048 300 1747 300 
C 1184 300 781 843 781 1602 
C 781 2298 1126 2707 1702 2707 
C 1946 2707 2202 2624 2426 2470 
C 2560 2381 2637 2298 2637 2247 
L 2637 1424 
z
" id="URWPalladioL-Roma-64" transform="scale(0.015625)"/>
       <path d="M 1568 4646 
C 1114 4633 1094 4633 947 4633 
C 794 4633 762 4633 326 4646 
L 288 4608 
L 288 4441 
L 314 4409 
L 557 4409 
C 730 4409 864 4371 941 4307 
C 1005 4249 1024 4159 1024 3942 
C 1024 3923 1024 3795 1030 3615 
L 1030 3379 
L 1030 89 
L 1030 -148 
C 1024 -334 1024 -449 1024 -468 
C 1024 -686 1005 -782 941 -839 
C 864 -903 730 -942 557 -942 
L 314 -942 
L 288 -974 
L 288 -1140 
L 326 -1178 
C 774 -1166 787 -1166 947 -1166 
C 1094 -1166 1126 -1166 1568 -1178 
L 1626 -1095 
C 1587 -942 1581 -743 1574 -250 
C 1574 -161 1574 -78 1568 6 
L 1568 89 
L 1568 3379 
L 1568 3462 
C 1574 3532 1574 3615 1574 3705 
C 1574 4198 1587 4409 1626 4563 
L 1568 4646 
z
" id="URWPalladioL-Roma-5d" transform="scale(0.015625)"/>
      </defs>
      <use transform="scale(0.996264)" xlink:href="#URWPalladioL-Roma-54"/>
      <use transform="translate(55.591109 0)scale(0.996264)" xlink:href="#URWPalladioL-Roma-69"/>
      <use transform="translate(84.581471 0)scale(0.996264)" xlink:href="#URWPalladioL-Roma-6d"/>
      <use transform="translate(172.551145 0)scale(0.996264)" xlink:href="#URWPalladioL-Roma-65"/>
      <use transform="translate(245.17804 0)scale(0.996264)" xlink:href="#URWPalladioL-Roma-5b"/>
      <use transform="translate(278.35327 0)scale(0.996264)" xlink:href="#URWPalladioL-Roma-73"/>
      <use transform="translate(320.594736 0)scale(0.996264)" xlink:href="#URWPalladioL-Roma-65"/>
      <use transform="translate(368.315031 0)scale(0.996264)" xlink:href="#URWPalladioL-Roma-63"/>
      <use transform="translate(412.5486 0)scale(0.996264)" xlink:href="#URWPalladioL-Roma-6f"/>
      <use transform="translate(466.94418 0)scale(0.996264)" xlink:href="#URWPalladioL-Roma-6e"/>
      <use transform="translate(524.926241 0)scale(0.996264)" xlink:href="#URWPalladioL-Roma-64"/>
      <use transform="translate(585.797872 0)scale(0.996264)" xlink:href="#URWPalladioL-Roma-73"/>
      <use transform="translate(628.039338 0)scale(0.996264)" xlink:href="#URWPalladioL-Roma-5d"/>
     </g>
    </g>
   </g>
   <g id="matplotlib.axis_2">
    <g id="ytick_1">
     <g id="line2d_11">
      <path clip-path="url(#pe70048f855)" d="M 15.91731 53.531247 
L 511.15718 53.531247 
" style="fill:none;stroke:#000000;stroke-linejoin:miter;stroke-opacity:0.2;stroke-width:0.5;"/>
     </g>
     <g id="line2d_12">
      <defs>
       <path d="M 0 0 
L -3.5 0 
" id="mb2e7a984b3" style="stroke:#000000;stroke-opacity:0.2;stroke-width:0.8;"/>
      </defs>
      <g>
       <use style="fill-opacity:0.2;stroke:#000000;stroke-opacity:0.2;stroke-width:0.8;" x="15.91731" xlink:href="#mb2e7a984b3" y="53.531247"/>
      </g>
     </g>
    </g>
   </g>
   <g id="line2d_13">
    <path clip-path="url(#pe70048f855)" d="M 15.91731 11.411894 
L 17.902239 11.625406 
L 19.887169 12.263778 
L 21.872098 13.320539 
L 23.857027 14.784973 
L 25.841957 16.642235 
L 27.826886 18.873493 
L 29.811815 21.456128 
L 31.796745 24.363954 
L 34.774139 29.27011 
L 37.751533 34.729114 
L 41.721391 42.651302 
L 47.676179 55.254397 
L 53.630967 67.701322 
L 56.608361 73.5103 
L 59.585755 78.864008 
L 62.56315 83.640449 
L 64.548079 86.44967 
L 66.533008 88.92515 
L 68.517938 91.04179 
L 70.502867 92.778132 
L 72.487796 94.116572 
L 74.472726 95.043539 
L 76.457655 95.549637 
L 78.442584 95.629733 
L 80.427514 95.283016 
L 82.412443 94.513001 
L 84.397372 93.327495 
L 86.382302 91.738516 
L 88.367231 89.762176 
L 90.35216 87.41851 
L 92.33709 84.73128 
L 94.322019 81.72773 
L 97.299413 76.696719 
L 100.276807 71.137828 
L 104.246666 63.12514 
L 118.141171 34.256044 
L 121.118565 28.838515 
L 124.095959 23.983669 
L 126.080888 21.114945 
L 128.065818 18.574871 
L 130.050747 16.389201 
L 132.035676 14.580093 
L 134.020606 13.165889 
L 136.005535 12.160927 
L 137.990464 11.575396 
L 139.975394 11.415232 
L 141.960323 11.682059 
L 143.945252 12.373172 
L 145.930182 13.481564 
L 147.915111 14.995997 
L 149.90004 16.901117 
L 151.88497 19.177611 
L 153.869899 21.802396 
L 155.854828 24.748863 
L 158.832222 29.705551 
L 161.809616 35.205165 
L 165.779475 43.1645 
L 172.726728 57.898754 
L 177.689051 68.199619 
L 180.666445 73.975591 
L 183.643839 79.285689 
L 186.621233 84.00891 
L 188.606162 86.777905 
L 190.591092 89.20983 
L 192.576021 91.28003 
L 194.56095 92.967515 
L 196.54588 94.255179 
L 198.530809 95.129964 
L 200.515738 95.583004 
L 202.500668 95.609704 
L 204.485597 95.209794 
L 206.470526 94.387329 
L 208.455456 93.150646 
L 210.440385 91.512284 
L 212.425314 89.488853 
L 214.410244 87.100869 
L 216.395173 84.37254 
L 218.380102 81.331529 
L 221.357496 76.251965 
L 224.33489 70.654656 
L 228.304749 62.607987 
L 241.20679 35.684122 
L 244.184184 30.14477 
L 247.161578 25.138335 
L 249.146507 22.153695 
L 251.131437 19.487174 
L 253.116366 17.165808 
L 255.101295 15.21313 
L 257.086225 13.648938 
L 259.071154 12.489091 
L 261.056083 11.745348 
L 263.041013 11.425249 
L 265.025942 11.532039 
L 267.010871 12.064635 
L 268.995801 13.017639 
L 270.98073 14.381388 
L 272.965659 16.142055 
L 274.950589 18.281791 
L 276.935518 20.778901 
L 278.920447 23.608069 
L 280.905377 26.740612 
L 283.882771 31.938018 
L 286.860165 37.627477 
L 290.830023 45.753507 
L 302.739599 70.654656 
L 305.716993 76.251965 
L 308.694387 81.331529 
L 310.679317 84.37254 
L 312.664246 87.100869 
L 314.649175 89.488853 
L 316.634105 91.512284 
L 318.619034 93.150646 
L 320.603963 94.387329 
L 322.588893 95.209794 
L 324.573822 95.609704 
L 326.558751 95.583004 
L 328.543681 95.129964 
L 330.52861 94.255179 
L 332.513539 92.967515 
L 334.498469 91.28003 
L 336.483398 89.20983 
L 338.468327 86.777905 
L 340.453257 84.00891 
L 342.438186 80.93092 
L 345.41558 75.803609 
L 348.392974 70.168769 
L 352.362833 62.089394 
L 365.264873 35.205165 
L 368.242267 29.705551 
L 371.219661 24.748863 
L 373.204591 21.802396 
L 375.18952 19.177611 
L 377.174449 16.901117 
L 379.159379 14.995997 
L 381.144308 13.481564 
L 383.129237 12.373172 
L 385.114167 11.682059 
L 387.099096 11.415232 
L 389.084025 11.575396 
L 391.068955 12.160927 
L 393.053884 13.165889 
L 395.038813 14.580093 
L 397.023743 16.389201 
L 399.008672 18.574871 
L 400.993601 21.114945 
L 402.978531 23.983669 
L 404.96346 27.15196 
L 407.940854 32.395067 
L 410.918248 38.119813 
L 414.888107 46.275337 
L 425.805218 69.189159 
L 428.782612 74.896374 
L 431.760006 80.116734 
L 433.744935 83.267213 
L 435.729865 86.116216 
L 437.714794 88.634858 
L 439.699724 90.797604 
L 441.684653 92.582527 
L 443.669582 93.971531 
L 445.654512 94.950533 
L 447.639441 95.509608 
L 449.62437 95.643087 
L 451.6093 95.349618 
L 453.594229 94.632176 
L 455.579158 93.498034 
L 457.564088 91.958692 
L 459.549017 90.029754 
L 461.533946 87.730779 
L 463.518876 85.085073 
L 465.503805 82.119461 
L 468.481199 77.137801 
L 471.458593 71.618208 
L 475.428452 63.640773 
L 482.375704 48.900084 
L 487.338028 38.614592 
L 490.315422 32.855468 
L 493.292816 27.567491 
L 496.27021 22.87116 
L 498.255139 20.122444 
L 500.240068 17.712442 
L 502.224998 15.665586 
L 504.209927 14.002629 
L 506.194856 12.740431 
L 508.179786 11.891789 
L 510.164715 11.465306 
L 511.15718 11.411894 
L 511.15718 11.411894 
" style="fill:none;stroke:#0271ae;stroke-linejoin:miter;stroke-width:3;"/>
   </g>
   <g id="line2d_14">
    <path clip-path="url(#pe70048f855)" d="M 15.91731 11.411894 
L 16.909775 11.625406 
L 17.902239 12.263778 
L 18.894704 13.320539 
L 19.887169 14.784973 
L 20.879633 16.642235 
L 21.872098 18.873493 
L 22.864563 21.456128 
L 24.849492 27.567491 
L 26.834421 34.729114 
L 29.811815 46.798318 
L 35.766603 71.618208 
L 37.751533 78.864008 
L 39.736462 85.085073 
L 40.728927 87.730779 
L 41.721391 90.029754 
L 42.713856 91.958692 
L 43.706321 93.498034 
L 44.698785 94.632176 
L 45.69125 95.349618 
L 46.683715 95.643087 
L 47.676179 95.509608 
L 48.668644 94.950533 
L 49.661109 93.971531 
L 50.653573 92.582527 
L 51.646038 90.797604 
L 52.638503 88.634858 
L 53.630967 86.116216 
L 55.615897 80.116734 
L 57.600826 73.041843 
L 60.57822 61.04822 
L 66.533008 36.165907 
L 68.517938 28.838515 
L 70.502867 22.509969 
L 71.495332 19.802136 
L 72.487796 17.436263 
L 73.480261 15.436338 
L 74.472726 13.822636 
L 75.46519 12.611518 
L 76.457655 11.815261 
L 77.45012 11.441941 
L 78.442584 11.49534 
L 79.435049 11.974918 
L 80.427514 12.875812 
L 81.419978 14.18889 
L 82.412443 15.900838 
L 83.404908 17.994299 
L 84.397372 20.44805 
L 86.382302 26.333511 
L 88.367231 33.319147 
L 90.35216 41.122383 
L 98.291878 73.975591 
L 100.276807 80.93092 
L 102.261736 86.777905 
L 103.254201 89.20983 
L 104.246666 91.28003 
L 105.23913 92.967515 
L 106.231595 94.255179 
L 107.22406 95.129964 
L 108.216524 95.583004 
L 109.208989 95.609704 
L 110.201454 95.209794 
L 111.193918 94.387329 
L 112.186383 93.150646 
L 113.178848 91.512284 
L 114.171312 89.488853 
L 115.163777 87.100869 
L 117.148706 81.331529 
L 119.133636 74.43764 
L 121.118565 66.698067 
L 125.088424 49.955705 
L 128.065818 37.627477 
L 130.050747 30.14477 
L 132.035676 23.608069 
L 134.020606 18.281791 
L 135.01307 16.142055 
L 136.005535 14.381388 
L 136.998 13.017639 
L 137.990464 12.064635 
L 138.982929 11.532039 
L 139.975394 11.425249 
L 140.967858 11.745348 
L 141.960323 12.489091 
L 142.952788 13.648938 
L 143.945252 15.21313 
L 144.937717 17.165808 
L 145.930182 19.487174 
L 147.915111 25.138335 
L 149.90004 31.938018 
L 151.88497 39.611168 
L 155.854828 56.313547 
L 158.832222 68.695591 
L 160.817152 76.251965 
L 162.802081 82.889264 
L 164.78701 88.339001 
L 165.779475 90.547509 
L 166.77194 92.38073 
L 167.764404 93.820078 
L 168.756869 94.850959 
L 169.749334 95.462923 
L 170.741798 95.649765 
L 171.734263 95.409591 
L 172.726728 94.744835 
L 173.719192 93.662237 
L 174.711657 92.172774 
L 175.704122 90.291546 
L 176.696586 88.037625 
L 177.689051 85.433864 
L 179.67398 79.285689 
L 181.65891 72.095722 
L 184.636304 60.00228 
L 189.598627 39.111737 
L 191.583556 31.484391 
L 193.568486 24.748863 
L 195.553415 19.177611 
L 196.54588 16.901117 
L 197.538344 14.995997 
L 198.530809 13.481564 
L 199.523274 12.373172 
L 200.515738 11.682059 
L 201.508203 11.415232 
L 202.500668 11.575396 
L 203.493132 12.160927 
L 204.485597 13.165889 
L 205.478062 14.580093 
L 206.470526 16.389201 
L 207.462991 18.574871 
L 208.455456 21.114945 
L 210.440385 27.15196 
L 212.425314 34.256044 
L 215.402708 46.275337 
L 221.357496 71.137828 
L 223.342426 78.438312 
L 225.327355 84.73128 
L 226.31982 87.41851 
L 227.312284 89.762176 
L 228.304749 91.738516 
L 229.297214 93.327495 
L 230.289678 94.513001 
L 231.282143 95.283016 
L 232.274608 95.629733 
L 233.267072 95.549637 
L 234.259537 95.043539 
L 235.252002 94.116572 
L 236.244466 92.778132 
L 237.236931 91.04179 
L 238.229396 88.92515 
L 239.22186 86.44967 
L 241.20679 80.525967 
L 243.191719 73.5103 
L 245.176648 65.686462 
L 253.116366 32.855468 
L 255.101295 25.930722 
L 257.086225 20.122444 
L 258.078689 17.712442 
L 259.071154 15.665586 
L 260.063619 14.002629 
L 261.056083 12.740431 
L 262.048548 11.891789 
L 263.041013 11.465306 
L 264.033477 11.465306 
L 265.025942 11.891789 
L 266.018407 12.740431 
L 267.010871 14.002629 
L 268.003336 15.665586 
L 268.995801 17.712442 
L 269.988265 20.122444 
L 271.973195 25.930722 
L 273.958124 32.855468 
L 275.943053 40.61657 
L 280.905377 61.569444 
L 283.882771 73.5103 
L 285.8677 80.525967 
L 287.852629 86.44967 
L 288.845094 88.92515 
L 289.837559 91.04179 
L 290.830023 92.778132 
L 291.822488 94.116572 
L 292.814953 95.043539 
L 293.807417 95.549637 
L 294.799882 95.629733 
L 295.792347 95.283016 
L 296.784811 94.513001 
L 297.777276 93.327495 
L 298.769741 91.738516 
L 299.762205 89.762176 
L 300.75467 87.41851 
L 302.739599 81.72773 
L 304.724529 74.896374 
L 306.709458 67.200778 
L 310.679317 50.484409 
L 313.656711 38.119813 
L 315.64164 30.587696 
L 317.626569 23.983669 
L 319.611499 18.574871 
L 320.603963 16.389201 
L 321.596428 14.580093 
L 322.588893 13.165889 
L 323.581357 12.160927 
L 324.573822 11.575396 
L 325.566287 11.415232 
L 326.558751 11.682059 
L 327.551216 12.373172 
L 328.543681 13.481564 
L 329.536145 14.995997 
L 330.52861 16.901117 
L 331.521075 19.177611 
L 332.513539 21.802396 
L 334.498469 27.987138 
L 336.483398 35.205165 
L 339.460792 47.322366 
L 344.423115 68.199619 
L 346.408045 75.803609 
L 348.392974 82.506659 
L 350.377903 88.037625 
L 351.370368 90.291546 
L 352.362833 92.172774 
L 353.355297 93.662237 
L 354.347762 94.744835 
L 355.340227 95.409591 
L 356.332691 95.649765 
L 357.325156 95.462923 
L 358.317621 94.850959 
L 359.310085 93.820078 
L 360.30255 92.38073 
L 361.295015 90.547509 
L 362.287479 88.339001 
L 363.279944 85.777596 
L 365.264873 79.703286 
L 367.249803 72.570291 
L 370.227197 60.525804 
L 376.181985 35.684122 
L 378.166914 28.410835 
L 380.151843 22.153695 
L 381.144308 19.487174 
L 382.136773 17.165808 
L 383.129237 15.21313 
L 384.121702 13.648938 
L 385.114167 12.489091 
L 386.106631 11.745348 
L 387.099096 11.425249 
L 388.091561 11.532039 
L 389.084025 12.064635 
L 390.07649 13.017639 
L 391.068955 14.381388 
L 392.061419 16.142055 
L 393.053884 18.281791 
L 394.046349 20.778901 
L 396.031278 26.740612 
L 398.016207 33.78603 
L 400.993601 45.753507 
L 406.948389 70.654656 
L 408.933319 78.008666 
L 410.918248 84.37254 
L 411.910713 87.100869 
L 412.903177 89.488853 
L 413.895642 91.512284 
L 414.888107 93.150646 
L 415.880571 94.387329 
L 416.873036 95.209794 
L 417.865501 95.609704 
L 418.857965 95.583004 
L 419.85043 95.129964 
L 420.842895 94.255179 
L 421.835359 92.967515 
L 422.827824 91.28003 
L 423.820289 89.20983 
L 424.812753 86.777905 
L 426.797683 80.93092 
L 428.782612 73.975591 
L 430.767541 66.193268 
L 439.699724 29.705551 
L 441.684653 23.237213 
L 442.677118 20.44805 
L 443.669582 17.994299 
L 444.662047 15.900838 
L 445.654512 14.18889 
L 446.646976 12.875812 
L 447.639441 11.974918 
L 448.631906 11.49534 
L 449.62437 11.441941 
L 450.616835 11.815261 
L 451.6093 12.611518 
L 452.601764 13.822636 
L 453.594229 15.436338 
L 454.586694 17.436263 
L 455.579158 19.802136 
L 457.564088 25.532309 
L 459.549017 32.395067 
L 461.533946 40.112805 
L 465.503805 56.842502 
L 468.481199 69.189159 
L 470.466128 76.696719 
L 472.451058 83.267213 
L 474.435987 88.634858 
L 475.428452 90.797604 
L 476.420916 92.582527 
L 477.413381 93.971531 
L 478.405846 94.950533 
L 479.39831 95.509608 
L 480.390775 95.643087 
L 481.38324 95.349618 
L 482.375704 94.632176 
L 483.368169 93.498034 
L 484.360634 91.958692 
L 485.353098 90.029754 
L 486.345563 87.730779 
L 487.338028 85.085073 
L 489.322957 78.864008 
L 491.307886 71.618208 
L 494.28528 59.477729 
L 499.247604 38.614592 
L 501.232533 31.03426 
L 503.217462 24.363954 
L 505.202392 18.873493 
L 506.194856 16.642235 
L 507.187321 14.784973 
L 508.179786 13.320539 
L 509.17225 12.263778 
L 510.164715 11.625406 
L 511.15718 11.411894 
L 511.15718 11.411894 
" style="fill:none;stroke:#dc2830;stroke-linejoin:miter;stroke-width:3;"/>
   </g>
   <g id="line2d_15">
    <path clip-path="url(#pe70048f855)" d="M 15.91731 11.411894 
L 16.909775 11.891789 
L 17.902239 13.320539 
L 18.894704 15.665586 
L 19.887169 18.873493 
L 20.879633 22.87116 
L 21.872098 27.567491 
L 23.857027 38.614592 
L 29.811815 75.351721 
L 30.80428 80.525967 
L 31.796745 85.085073 
L 32.789209 88.92515 
L 33.781674 91.958692 
L 34.774139 94.116572 
L 35.766603 95.349618 
L 36.759068 95.629733 
L 37.751533 94.950533 
L 38.743997 93.327495 
L 39.736462 90.797604 
L 40.728927 87.41851 
L 41.721391 83.267213 
L 42.713856 78.438312 
L 44.698785 67.200778 
L 50.653573 30.587696 
L 51.646038 25.532309 
L 52.638503 21.114945 
L 53.630967 17.436263 
L 54.623432 14.580093 
L 55.615897 12.611518 
L 56.608361 11.575396 
L 57.600826 11.49534 
L 58.593291 12.373172 
L 59.585755 14.18889 
L 60.57822 16.901117 
L 61.570685 20.44805 
L 62.56315 24.748863 
L 64.548079 35.205165 
L 66.533008 47.322366 
L 70.502867 72.095722 
L 72.487796 82.506659 
L 73.480261 86.777905 
L 74.472726 90.291546 
L 75.46519 92.967515 
L 76.457655 94.744835 
L 77.45012 95.583004 
L 78.442584 95.462923 
L 79.435049 94.387329 
L 80.427514 92.38073 
L 81.419978 89.488853 
L 82.412443 85.777596 
L 83.404908 81.331529 
L 85.389837 70.654656 
L 88.367231 52.073081 
L 91.344625 33.78603 
L 93.329554 23.608069 
L 94.322019 19.487174 
L 95.314484 16.142055 
L 96.306948 13.648938 
L 97.299413 12.064635 
L 98.291878 11.425249 
L 99.284342 11.745348 
L 100.276807 13.017639 
L 101.269272 15.21313 
L 102.261736 18.281791 
L 103.254201 22.153695 
L 104.246666 26.740612 
L 106.231595 37.627477 
L 109.208989 56.313547 
L 111.193918 68.695591 
L 113.178848 79.703286 
L 114.171312 84.37254 
L 115.163777 88.339001 
L 116.156242 91.512284 
L 117.148706 93.820078 
L 118.141171 95.209794 
L 119.133636 95.649765 
L 120.1261 95.129964 
L 121.118565 93.662237 
L 122.11103 91.28003 
L 123.103494 88.037625 
L 124.095959 84.00891 
L 125.088424 79.285689 
L 127.073353 68.199619 
L 133.028141 31.484391 
L 134.020606 26.333511 
L 135.01307 21.802396 
L 136.005535 17.994299 
L 136.998 14.995997 
L 137.990464 12.875812 
L 138.982929 11.682059 
L 139.975394 11.441941 
L 140.967858 12.160927 
L 141.960323 13.822636 
L 142.952788 16.389201 
L 143.945252 19.802136 
L 144.937717 23.983669 
L 145.930182 28.838515 
L 147.915111 40.112805 
L 153.869899 76.696719 
L 154.862364 81.72773 
L 155.854828 86.116216 
L 156.847293 89.762176 
L 157.839758 92.582527 
L 158.832222 94.513001 
L 159.824687 95.509608 
L 160.817152 95.549637 
L 161.809616 94.632176 
L 162.802081 92.778132 
L 163.794546 90.029754 
L 164.78701 86.44967 
L 165.779475 82.119461 
L 167.764404 71.618208 
L 169.749334 59.477729 
L 173.719192 34.729114 
L 175.704122 24.363954 
L 176.696586 20.122444 
L 177.689051 16.642235 
L 178.681516 14.002629 
L 179.67398 12.263778 
L 180.666445 11.465306 
L 181.65891 11.625406 
L 182.651374 12.740431 
L 183.643839 14.784973 
L 184.636304 17.712442 
L 185.628768 21.456128 
L 186.621233 25.930722 
L 188.606162 36.650447 
L 191.583556 55.254397 
L 194.56095 73.5103 
L 196.54588 83.640449 
L 197.538344 87.730779 
L 198.530809 91.04179 
L 199.523274 93.498034 
L 200.515738 95.043539 
L 201.508203 95.643087 
L 202.500668 95.283016 
L 203.493132 93.971531 
L 204.485597 91.738516 
L 205.478062 88.634858 
L 206.470526 84.73128 
L 207.462991 80.116734 
L 209.44792 69.189159 
L 212.425314 50.484409 
L 214.410244 38.119813 
L 216.395173 27.15196 
L 217.387638 22.509969 
L 218.380102 18.574871 
L 219.372567 15.436338 
L 220.365032 13.165889 
L 221.357496 11.815261 
L 222.349961 11.415232 
L 223.342426 11.974918 
L 224.33489 13.481564 
L 225.327355 15.900838 
L 226.31982 19.177611 
L 227.312284 23.237213 
L 228.304749 27.987138 
L 230.289678 39.111737 
L 236.244466 75.803609 
L 237.236931 80.93092 
L 238.229396 85.433864 
L 239.22186 89.20983 
L 240.214325 92.172774 
L 241.20679 94.255179 
L 242.199254 95.409591 
L 243.191719 95.609704 
L 244.184184 94.850959 
L 245.176648 93.150646 
L 246.169113 90.547509 
L 247.161578 87.100869 
L 248.154042 82.889264 
L 249.146507 78.008666 
L 251.131437 66.698067 
L 257.086225 30.14477 
L 258.078689 25.138335 
L 259.071154 20.778901 
L 260.063619 17.165808 
L 261.056083 14.381388 
L 262.048548 12.489091 
L 263.041013 11.532039 
L 264.033477 11.532039 
L 265.025942 12.489091 
L 266.018407 14.381388 
L 267.010871 17.165808 
L 268.003336 20.778901 
L 268.995801 25.138335 
L 270.98073 35.684122 
L 273.958124 54.194154 
L 276.935518 72.570291 
L 278.920447 82.889264 
L 279.912912 87.100869 
L 280.905377 90.547509 
L 281.897841 93.150646 
L 282.890306 94.850959 
L 283.882771 95.609704 
L 284.875235 95.409591 
L 285.8677 94.255179 
L 286.860165 92.172774 
L 287.852629 89.20983 
L 288.845094 85.433864 
L 289.837559 80.93092 
L 291.822488 70.168769 
L 294.799882 51.54318 
L 297.777276 33.319147 
L 299.762205 23.237213 
L 300.75467 19.177611 
L 301.747135 15.900838 
L 302.739599 13.481564 
L 303.732064 11.974918 
L 304.724529 11.415232 
L 305.716993 11.815261 
L 306.709458 13.165889 
L 307.701923 15.436338 
L 308.694387 18.574871 
L 309.686852 22.509969 
L 310.679317 27.15196 
L 312.664246 38.119813 
L 315.64164 56.842502 
L 317.626569 69.189159 
L 319.611499 80.116734 
L 320.603963 84.73128 
L 321.596428 88.634858 
L 322.588893 91.738516 
L 323.581357 93.971531 
L 324.573822 95.283016 
L 325.566287 95.643087 
L 326.558751 95.043539 
L 327.551216 93.498034 
L 328.543681 91.04179 
L 329.536145 87.730779 
L 330.52861 83.640449 
L 331.521075 78.864008 
L 333.506004 67.701322 
L 339.460792 31.03426 
L 340.453257 25.930722 
L 341.445721 21.456128 
L 342.438186 17.712442 
L 343.430651 14.784973 
L 344.423115 12.740431 
L 345.41558 11.625406 
L 346.408045 11.465306 
L 347.400509 12.263778 
L 348.392974 14.002629 
L 349.385439 16.642235 
L 350.377903 20.122444 
L 351.370368 24.363954 
L 353.355297 34.729114 
L 355.340227 46.798318 
L 359.310085 71.618208 
L 361.295015 82.119461 
L 362.287479 86.44967 
L 363.279944 90.029754 
L 364.272409 92.778132 
L 365.264873 94.632176 
L 366.257338 95.549637 
L 367.249803 95.509608 
L 368.242267 94.513001 
L 369.234732 92.582527 
L 370.227197 89.762176 
L 371.219661 86.116216 
L 372.212126 81.72773 
L 374.197055 71.137828 
L 377.174449 52.603213 
L 380.151843 34.256044 
L 382.136773 23.983669 
L 383.129237 19.802136 
L 384.121702 16.389201 
L 385.114167 13.822636 
L 386.106631 12.160927 
L 387.099096 11.441941 
L 388.091561 11.682059 
L 389.084025 12.875812 
L 390.07649 14.995997 
L 391.068955 17.994299 
L 392.061419 21.802396 
L 393.053884 26.333511 
L 395.038813 37.137662 
L 398.016207 55.78415 
L 400.001137 68.199619 
L 401.986066 79.285689 
L 402.978531 84.00891 
L 403.970995 88.037625 
L 404.96346 91.28003 
L 405.955925 93.662237 
L 406.948389 95.129964 
L 407.940854 95.649765 
L 408.933319 95.209794 
L 409.925783 93.820078 
L 410.918248 91.512284 
L 411.910713 88.339001 
L 412.903177 84.37254 
L 413.895642 79.703286 
L 415.880571 68.695591 
L 422.827824 26.740612 
L 423.820289 22.153695 
L 424.812753 18.281791 
L 425.805218 15.21313 
L 426.797683 13.017639 
L 427.790147 11.745348 
L 428.782612 11.425249 
L 429.775077 12.064635 
L 430.767541 13.648938 
L 431.760006 16.142055 
L 432.752471 19.487174 
L 433.744935 23.608069 
L 434.7374 28.410835 
L 436.722329 39.611168 
L 442.677118 76.251965 
L 443.669582 81.331529 
L 444.662047 85.777596 
L 445.654512 89.488853 
L 446.646976 92.38073 
L 447.639441 94.387329 
L 448.631906 95.462923 
L 449.62437 95.583004 
L 450.616835 94.744835 
L 451.6093 92.967515 
L 452.601764 90.291546 
L 453.594229 86.777905 
L 454.586694 82.506659 
L 456.571623 72.095722 
L 458.556552 60.00228 
L 462.526411 35.205165 
L 464.51134 24.748863 
L 465.503805 20.44805 
L 466.49627 16.901117 
L 467.488734 14.18889 
L 468.481199 12.373172 
L 469.473664 11.49534 
L 470.466128 11.575396 
L 471.458593 12.611518 
L 472.451058 14.580093 
L 473.443522 17.436263 
L 474.435987 21.114945 
L 475.428452 25.532309 
L 477.413381 36.165907 
L 480.390775 54.72437 
L 483.368169 73.041843 
L 485.353098 83.267213 
L 486.345563 87.41851 
L 487.338028 90.797604 
L 488.330492 93.327495 
L 489.322957 94.950533 
L 490.315422 95.629733 
L 491.307886 95.349618 
L 492.300351 94.116572 
L 493.292816 91.958692 
L 494.28528 88.92515 
L 495.277745 85.085073 
L 496.27021 80.525967 
L 498.255139 69.680244 
L 501.232533 51.013595 
L 503.217462 38.614592 
L 505.202392 27.567491 
L 506.194856 22.87116 
L 507.187321 18.873493 
L 508.179786 15.665586 
L 509.17225 13.320539 
L 510.164715 11.891789 
L 511.15718 11.411894 
L 511.15718 11.411894 
" style="fill:none;stroke:#f2aa00;stroke-linejoin:miter;stroke-width:3;"/>
   </g>
   <g id="legend_1">
    <g id="patch_3">
     <path d="M 520.95718 81.138105 
L 574.39952 81.138105 
Q 577.19952 81.138105 577.19952 78.338105 
L 577.19952 17 
Q 577.19952 14.2 574.39952 14.2 
L 520.95718 14.2 
Q 518.15718 14.2 518.15718 17 
L 518.15718 78.338105 
Q 518.15718 81.138105 520.95718 81.138105 
z
" style="fill:#ffffff;opacity:0.95;stroke:#cccccc;stroke-linejoin:miter;stroke-width:0.5;"/>
    </g>
    <g id="line2d_16">
     <path d="M 523.75718 24.879529 
L 537.75718 24.879529 
" style="fill:none;stroke:#0271ae;stroke-linejoin:miter;stroke-width:3;"/>
    </g>
    <g id="line2d_17"/>
    <g id="text_7">
     <!-- $f$ -->
     <g transform="translate(548.95718 29.779529)scale(0.14 -0.14)">
      <defs>
       <path d="M 1830 2470 
C 1856 2591 1901 2739 1939 2828 
L 1914 2873 
L 1869 2860 
C 1715 2822 1645 2816 1331 2816 
L 1229 2816 
L 1363 3532 
C 1466 4083 1645 4326 1939 4326 
C 2131 4326 2304 4230 2400 4076 
L 2464 4102 
C 2496 4204 2560 4403 2611 4531 
L 2643 4627 
C 2541 4672 2342 4710 2195 4710 
C 2125 4710 2022 4691 1971 4665 
C 1818 4595 1293 4204 1146 4051 
C 1005 3910 928 3718 858 3353 
L 762 2848 
C 499 2719 371 2668 211 2611 
L 179 2470 
L 698 2470 
L 640 2112 
C 448 864 211 -327 70 -768 
C -45 -1146 -237 -1344 -467 -1344 
C -615 -1344 -685 -1300 -800 -1159 
L -890 -1184 
C -915 -1332 -1005 -1639 -1037 -1697 
C -979 -1729 -883 -1748 -813 -1748 
C -551 -1748 -205 -1549 45 -1248 
C 435 -788 576 -340 1043 1907 
C 1062 1984 1114 2227 1165 2470 
L 1830 2470 
z
" id="URWPalladioL-Ital-66" transform="scale(0.015625)"/>
      </defs>
      <use transform="scale(0.996264)" xlink:href="#URWPalladioL-Ital-66"/>
     </g>
    </g>
    <g id="line2d_18">
     <path d="M 523.75718 45.792231 
L 537.75718 45.792231 
" style="fill:none;stroke:#dc2830;stroke-linejoin:miter;stroke-width:3;"/>
    </g>
    <g id="line2d_19"/>
    <g id="text_8">
     <!-- $2\cdot f$ -->
     <g transform="translate(548.95718 50.692231)scale(0.14 -0.14)">
      <defs>
       <path d="M 1229 1619 
C 1229 1804 1075 1958 890 1958 
C 704 1958 550 1804 550 1619 
C 550 1433 704 1280 890 1280 
C 1075 1280 1229 1433 1229 1619 
z
" id="CMSY10-1" transform="scale(0.015625)"/>
      </defs>
      <use transform="scale(0.996264)" xlink:href="#URWPalladioL-Roma-32"/>
      <use transform="translate(70.430253 0)scale(1.038107)" xlink:href="#CMSY10-1"/>
      <use transform="translate(134.036152 0)scale(0.996264)" xlink:href="#URWPalladioL-Ital-66"/>
     </g>
    </g>
    <g id="line2d_20">
     <path d="M 523.75718 66.704933 
L 537.75718 66.704933 
" style="fill:none;stroke:#f2aa00;stroke-linejoin:miter;stroke-width:3;"/>
    </g>
    <g id="line2d_21"/>
    <g id="text_9">
     <!-- $3\cdot f$ -->
     <g transform="translate(548.95718 71.604933)scale(0.14 -0.14)">
      <defs>
       <path d="M 275 3196 
L 474 3196 
L 589 3553 
C 659 3770 1062 3987 1395 3987 
C 1811 3987 2150 3649 2150 3247 
C 2150 2769 1773 2368 1318 2368 
C 1267 2368 1197 2374 1114 2380 
L 1018 2387 
L 941 2047 
L 986 2008 
C 1229 2118 1350 2150 1523 2150 
C 2054 2150 2362 1808 2362 1222 
C 2362 565 1971 134 1376 134 
C 1082 134 819 231 627 411 
C 474 553 390 701 269 1048 
L 96 984 
C 230 591 282 359 320 38 
C 659 -77 941 -128 1178 -128 
C 1690 -128 2278 160 2630 591 
C 2848 855 2957 1139 2957 1441 
C 2957 1750 2829 2021 2598 2182 
C 2438 2297 2291 2348 1971 2406 
C 2483 2801 2675 3094 2675 3470 
C 2675 4038 2202 4416 1491 4416 
C 1056 4416 768 4294 461 3987 
L 275 3196 
z
" id="URWPalladioL-Roma-33" transform="scale(0.015625)"/>
      </defs>
      <use transform="scale(0.996264)" xlink:href="#URWPalladioL-Roma-33"/>
      <use transform="translate(70.430253 0)scale(1.038107)" xlink:href="#CMSY10-1"/>
      <use transform="translate(134.036152 0)scale(0.996264)" xlink:href="#URWPalladioL-Ital-66"/>
     </g>
    </g>
   </g>
  </g>
 </g>
 <defs>
  <clipPath id="pe70048f855">
   <rect height="92.661659" width="495.23987" x="15.91731" y="7.2"/>
  </clipPath>
 </defs>
</svg>
