<?xml version="1.0" encoding="utf-8" standalone="no"?>
<!DOCTYPE svg PUBLIC "-//W3C//DTD SVG 1.1//EN"
  "http://www.w3.org/Graphics/SVG/1.1/DTD/svg11.dtd">
<svg height="238.79952pt" version="1.1" viewBox="0 0 584.39952 238.79952" width="584.39952pt" xmlns="http://www.w3.org/2000/svg" xmlns:xlink="http://www.w3.org/1999/xlink">
 <metadata>
  <rdf:RDF xmlns:cc="http://creativecommons.org/ns#" xmlns:dc="http://purl.org/dc/elements/1.1/" xmlns:rdf="http://www.w3.org/1999/02/22-rdf-syntax-ns#">
   <cc:Work>
    <dc:type rdf:resource="http://purl.org/dc/dcmitype/StillImage"/>
    <dc:date>2020-08-14T08:58:08.978626</dc:date>
    <dc:format>image/svg+xml</dc:format>
    <dc:creator>
     <cc:Agent>
      <dc:title>Matplotlib v3.3.0rc1.post717+g6a40954ae, https://matplotlib.org/</dc:title>
     </cc:Agent>
    </dc:creator>
   </cc:Work>
  </rdf:RDF>
 </metadata>
 <defs>
  <style type="text/css">*{stroke-linecap:butt;stroke-linejoin:round;}</style>
 </defs>
 <g id="figure_1">
  <g id="patch_1">
   <path d="M 0 238.79952 
L 584.39952 238.79952 
L 584.39952 0 
L 0 0 
z
" style="fill:none;"/>
  </g>
  <g id="axes_1">
   <g id="patch_2">
    <path d="M 51.606463 88.300273 
L 568.48221 88.300273 
L 568.48221 7.2 
L 51.606463 7.2 
z
" style="fill:none;"/>
   </g>
   <g id="line2d_1">
    <path clip-path="url(#pa17eaeb5db)" d="M 155.188777 88.300273 
L 155.188777 7.2 
" style="fill:none;stroke:#dc2830;stroke-linecap:square;stroke-opacity:0.25;stroke-width:3;"/>
   </g>
   <g id="matplotlib.axis_1">
    <g id="xtick_1">
     <g id="line2d_2">
      <path clip-path="url(#pa17eaeb5db)" d="M 51.606463 88.300273 
L 51.606463 7.2 
" style="fill:none;stroke:#000000;stroke-linecap:square;stroke-opacity:0.2;stroke-width:0.5;"/>
     </g>
     <g id="line2d_3">
      <defs>
       <path d="M 0 0 
L 0 3.5 
" id="ma4953c6735" style="stroke:#000000;stroke-opacity:0.2;stroke-width:0.8;"/>
      </defs>
      <g>
       <use style="fill-opacity:0.2;stroke:#000000;stroke-opacity:0.2;stroke-width:0.8;" x="51.606463" xlink:href="#ma4953c6735" y="88.300273"/>
      </g>
     </g>
    </g>
    <g id="xtick_2">
     <g id="line2d_4">
      <path clip-path="url(#pa17eaeb5db)" d="M 154.981612 88.300273 
L 154.981612 7.2 
" style="fill:none;stroke:#000000;stroke-linecap:square;stroke-opacity:0.2;stroke-width:0.5;"/>
     </g>
     <g id="line2d_5">
      <g>
       <use style="fill-opacity:0.2;stroke:#000000;stroke-opacity:0.2;stroke-width:0.8;" x="154.981612" xlink:href="#ma4953c6735" y="88.300273"/>
      </g>
     </g>
    </g>
    <g id="xtick_3">
     <g id="line2d_6">
      <path clip-path="url(#pa17eaeb5db)" d="M 258.356762 88.300273 
L 258.356762 7.2 
" style="fill:none;stroke:#000000;stroke-linecap:square;stroke-opacity:0.2;stroke-width:0.5;"/>
     </g>
     <g id="line2d_7">
      <g>
       <use style="fill-opacity:0.2;stroke:#000000;stroke-opacity:0.2;stroke-width:0.8;" x="258.356762" xlink:href="#ma4953c6735" y="88.300273"/>
      </g>
     </g>
    </g>
    <g id="xtick_4">
     <g id="line2d_8">
      <path clip-path="url(#pa17eaeb5db)" d="M 361.731911 88.300273 
L 361.731911 7.2 
" style="fill:none;stroke:#000000;stroke-linecap:square;stroke-opacity:0.2;stroke-width:0.5;"/>
     </g>
     <g id="line2d_9">
      <g>
       <use style="fill-opacity:0.2;stroke:#000000;stroke-opacity:0.2;stroke-width:0.8;" x="361.731911" xlink:href="#ma4953c6735" y="88.300273"/>
      </g>
     </g>
    </g>
    <g id="xtick_5">
     <g id="line2d_10">
      <path clip-path="url(#pa17eaeb5db)" d="M 465.10706 88.300273 
L 465.10706 7.2 
" style="fill:none;stroke:#000000;stroke-linecap:square;stroke-opacity:0.2;stroke-width:0.5;"/>
     </g>
     <g id="line2d_11">
      <g>
       <use style="fill-opacity:0.2;stroke:#000000;stroke-opacity:0.2;stroke-width:0.8;" x="465.10706" xlink:href="#ma4953c6735" y="88.300273"/>
      </g>
     </g>
    </g>
    <g id="xtick_6">
     <g id="line2d_12">
      <path clip-path="url(#pa17eaeb5db)" d="M 568.48221 88.300273 
L 568.48221 7.2 
" style="fill:none;stroke:#000000;stroke-linecap:square;stroke-opacity:0.2;stroke-width:0.5;"/>
     </g>
     <g id="line2d_13">
      <g>
       <use style="fill-opacity:0.2;stroke:#000000;stroke-opacity:0.2;stroke-width:0.8;" x="568.48221" xlink:href="#ma4953c6735" y="88.300273"/>
      </g>
     </g>
    </g>
   </g>
   <g id="matplotlib.axis_2">
    <g id="ytick_1">
     <g id="line2d_14">
      <path clip-path="url(#pa17eaeb5db)" d="M 51.606463 87.933948 
L 568.48221 87.933948 
" style="fill:none;stroke:#000000;stroke-linecap:square;stroke-opacity:0.2;stroke-width:0.5;"/>
     </g>
     <g id="line2d_15">
      <defs>
       <path d="M 0 0 
L -3.5 0 
" id="m8468e20f7d" style="stroke:#000000;stroke-opacity:0.2;stroke-width:0.8;"/>
      </defs>
      <g>
       <use style="fill-opacity:0.2;stroke:#000000;stroke-opacity:0.2;stroke-width:0.8;" x="51.606463" xlink:href="#m8468e20f7d" y="87.933948"/>
      </g>
     </g>
     <g id="text_1">
      <!-- $\mathdefault{−2.5}$ -->
      <g transform="translate(7.2 92.923713)scale(0.14 -0.14)">
       <defs>
        <path d="M 4218 1472 
C 4326 1472 4442 1472 4442 1600 
C 4442 1728 4326 1728 4218 1728 
L 755 1728 
C 646 1728 531 1728 531 1600 
C 531 1472 646 1472 755 1472 
z
" id="CMSY10-0" transform="scale(0.015625)"/>
        <path d="M 102 160 
L 102 0 
C 1299 0 1299 0 1530 0 
C 1760 0 1760 0 2995 0 
C 2982 125 2982 186 2982 269 
C 2982 348 2982 407 2995 539 
C 2259 539 1965 539 781 539 
L 1946 1761 
C 2566 2414 2758 2763 2758 3238 
C 2758 3966 2259 4416 1446 4416 
C 986 4416 672 4288 358 3969 
L 250 3099 
L 435 3099 
L 518 3393 
C 621 3763 851 3923 1280 3923 
C 1830 3923 2182 3577 2182 3035 
C 2182 2555 1914 2083 1190 1316 
z
" id="URWPalladioL-Roma-32" transform="scale(0.015625)"/>
        <path d="M 794 744 
C 602 744 429 564 429 372 
C 429 179 602 0 787 0 
C 992 0 1171 173 1171 372 
C 1171 564 992 744 794 744 
z
" id="URWPalladioL-Roma-2e" transform="scale(0.015625)"/>
        <path d="M 813 3877 
C 1638 3877 1997 3877 2765 3877 
L 2797 3907 
C 2784 4016 2784 4064 2784 4144 
C 2784 4229 2784 4277 2797 4386 
L 2765 4416 
C 2285 4416 1997 4416 1651 4416 
C 1299 4416 1018 4416 538 4416 
L 506 4403 
C 512 4011 518 3729 518 3523 
C 518 2977 499 2360 480 2077 
L 608 2038 
C 909 2341 1082 2432 1395 2432 
C 2010 2432 2394 1993 2394 1296 
C 2394 580 1984 160 1286 160 
C 941 160 621 277 531 444 
L 237 973 
L 83 883 
C 230 516 307 310 397 27 
C 576 -71 832 -128 1107 -128 
C 1536 -128 1990 59 2342 368 
C 2733 716 2938 1154 2938 1630 
C 2938 2359 2419 2874 1690 2874 
C 1382 2874 1152 2791 755 2554 
z
" id="URWPalladioL-Roma-35" transform="scale(0.015625)"/>
       </defs>
       <use transform="scale(1.038107)" xlink:href="#CMSY10-0"/>
       <use transform="translate(81.941696 0)scale(0.996264)" xlink:href="#URWPalladioL-Roma-32"/>
       <use transform="translate(131.754897 0)scale(0.996264)" xlink:href="#URWPalladioL-Roma-2e"/>
       <use transform="translate(156.661497 0)scale(0.996264)" xlink:href="#URWPalladioL-Roma-35"/>
      </g>
     </g>
    </g>
    <g id="ytick_2">
     <g id="line2d_16">
      <path clip-path="url(#pa17eaeb5db)" d="M 51.606463 50.220598 
L 568.48221 50.220598 
" style="fill:none;stroke:#000000;stroke-linecap:square;stroke-opacity:0.2;stroke-width:0.5;"/>
     </g>
     <g id="line2d_17">
      <g>
       <use style="fill-opacity:0.2;stroke:#000000;stroke-opacity:0.2;stroke-width:0.8;" x="51.606463" xlink:href="#m8468e20f7d" y="50.220598"/>
      </g>
     </g>
     <g id="text_2">
      <!-- $\mathdefault{0.0}$ -->
      <g transform="translate(18.671843 55.210362)scale(0.14 -0.14)">
       <defs>
        <path d="M 1683 4416 
C 691 4416 186 3628 186 2077 
C 186 1326 320 680 544 366 
C 768 51 1126 -128 1523 -128 
C 2490 -128 2976 705 2976 2346 
C 2976 3749 2560 4416 1683 4416 
z
M 1568 4192 
C 2189 4192 2438 3564 2438 2025 
C 2438 661 2195 96 1606 96 
C 986 96 723 744 723 2308 
C 723 3660 960 4192 1568 4192 
z
" id="URWPalladioL-Roma-30" transform="scale(0.015625)"/>
       </defs>
       <use transform="scale(0.996264)" xlink:href="#URWPalladioL-Roma-30"/>
       <use transform="translate(49.8132 0)scale(0.996264)" xlink:href="#URWPalladioL-Roma-2e"/>
       <use transform="translate(74.719801 0)scale(0.996264)" xlink:href="#URWPalladioL-Roma-30"/>
      </g>
     </g>
    </g>
    <g id="ytick_3">
     <g id="line2d_18">
      <path clip-path="url(#pa17eaeb5db)" d="M 51.606463 12.507248 
L 568.48221 12.507248 
" style="fill:none;stroke:#000000;stroke-linecap:square;stroke-opacity:0.2;stroke-width:0.5;"/>
     </g>
     <g id="line2d_19">
      <g>
       <use style="fill-opacity:0.2;stroke:#000000;stroke-opacity:0.2;stroke-width:0.8;" x="51.606463" xlink:href="#m8468e20f7d" y="12.507248"/>
      </g>
     </g>
     <g id="text_3">
      <!-- $\mathdefault{2.5}$ -->
      <g transform="translate(18.671843 17.497012)scale(0.14 -0.14)">
       <use transform="scale(0.996264)" xlink:href="#URWPalladioL-Roma-32"/>
       <use transform="translate(49.8132 0)scale(0.996264)" xlink:href="#URWPalladioL-Roma-2e"/>
       <use transform="translate(74.719801 0)scale(0.996264)" xlink:href="#URWPalladioL-Roma-35"/>
      </g>
     </g>
    </g>
   </g>
   <g id="line2d_20">
    <path clip-path="url(#pa17eaeb5db)" d="M 51.606463 22.560975 
L 52.642286 40.578925 
L 53.678109 33.772197 
L 54.713932 16.200653 
L 55.749755 21.975554 
L 56.785579 34.47428 
L 57.821402 35.166465 
L 58.857225 43.0929 
L 59.893048 43.475275 
L 60.928871 41.985883 
L 61.964694 43.876089 
L 63.000517 32.366236 
L 64.036341 40.221271 
L 65.072164 44.91587 
L 66.107987 43.805294 
L 67.14381 44.904418 
L 68.179633 37.525897 
L 69.215456 46.308199 
L 70.251279 46.449755 
L 71.287102 44.757812 
L 72.322926 38.187448 
L 73.358749 47.165115 
L 74.394572 47.438779 
L 75.430395 48.567449 
L 76.466218 48.124856 
L 77.502041 50.293629 
L 79.573688 51.257179 
L 80.609511 54.862219 
L 81.645334 56.126185 
L 82.681157 52.689117 
L 83.71698 53.736262 
L 84.752803 56.821023 
L 85.788626 65.179497 
L 86.82445 55.177468 
L 87.860273 54.893897 
L 88.896096 63.060277 
L 89.931919 63.734469 
L 90.967742 57.20691 
L 92.003565 57.039496 
L 93.039388 64.449589 
L 94.075212 69.458343 
L 96.146858 77.778296 
L 97.182681 60.256473 
L 98.218504 59.775357 
L 99.254327 69.958714 
L 100.29015 63.933514 
L 101.325974 75.526289 
L 102.361797 58.404468 
L 103.39762 65.691853 
L 104.433443 59.734888 
L 105.469266 60.909314 
L 106.505089 69.194969 
L 107.540912 57.524953 
L 108.576736 59.644945 
L 109.612559 57.275454 
L 110.648382 58.169895 
L 111.684205 60.854621 
L 112.720028 58.051203 
L 113.755851 60.391074 
L 114.791674 57.333275 
L 115.827498 60.640499 
L 116.863321 68.622604 
L 117.899144 55.272348 
L 118.934967 55.843829 
L 119.97079 63.822606 
L 121.006613 55.095722 
L 122.042436 56.753209 
L 123.07826 52.950822 
L 124.114083 54.22983 
L 125.149906 52.090264 
L 126.185729 53.57052 
L 127.221552 52.556033 
L 128.257375 50.738444 
L 129.293198 50.099804 
L 130.329021 49.124839 
L 131.364845 48.66349 
L 133.436491 48.25998 
L 134.472314 44.127179 
L 135.508137 44.352044 
L 136.54396 45.735956 
L 137.579783 38.25707 
L 138.615607 37.319306 
L 139.65143 32.579963 
L 140.687253 37.747777 
L 141.723076 44.669472 
L 142.758899 37.090883 
L 143.794722 36.53123 
L 144.830545 42.31772 
L 145.866369 33.277062 
L 146.902192 43.015276 
L 147.938015 35.162884 
L 148.973838 41.568872 
L 150.009661 37.754594 
L 151.045484 42.891139 
L 152.081307 22.677734 
L 153.117131 42.48866 
L 154.152954 40.554764 
L 155.188777 20.830674 
L 156.2246 28.597026 
L 157.260423 29.821345 
L 158.296246 34.099098 
L 159.332069 31.651899 
L 160.367893 21.553728 
L 161.403716 41.167934 
L 162.439539 38.024816 
L 163.475362 24.154005 
L 164.511185 30.492196 
L 165.547008 26.865324 
L 166.582831 38.332303 
L 167.618655 39.415647 
L 168.654478 30.14245 
L 169.690301 44.860819 
L 170.726124 42.005025 
L 171.761947 41.762826 
L 172.79777 46.518628 
L 173.833593 45.29541 
L 174.869417 44.616148 
L 175.90524 47.439091 
L 176.941063 45.958985 
L 177.976886 48.707627 
L 179.012709 47.869418 
L 180.048532 49.611221 
L 182.120179 51.006694 
L 183.156002 54.300534 
L 184.191825 52.78872 
L 185.227648 52.793117 
L 186.263471 54.715102 
L 187.299294 54.473968 
L 188.335117 55.802289 
L 189.370941 53.972062 
L 190.406764 56.931843 
L 191.442587 57.852595 
L 192.47841 57.710062 
L 193.514233 55.915963 
L 194.550056 57.347984 
L 195.585879 64.392033 
L 196.621702 69.658948 
L 197.657526 58.792909 
L 198.693349 57.255222 
L 199.729172 61.344562 
L 200.764995 84.613897 
L 201.800818 65.641118 
L 202.836641 65.497215 
L 204.908288 71.334682 
L 205.944111 60.475984 
L 206.979934 57.831837 
L 208.015757 77.054921 
L 209.05158 63.610954 
L 210.087403 64.478473 
L 211.123226 57.628112 
L 212.15905 62.062026 
L 213.194873 67.37129 
L 214.230696 66.31025 
L 215.266519 66.582706 
L 216.302342 58.576286 
L 217.338165 58.705569 
L 218.373988 72.9959 
L 219.409812 61.791994 
L 220.445635 55.346806 
L 221.481458 62.626829 
L 222.517281 58.671047 
L 223.553104 58.959712 
L 224.588927 61.566599 
L 225.62475 58.125612 
L 226.660574 53.330667 
L 227.696397 54.782369 
L 228.73222 52.258038 
L 229.768043 52.705826 
L 230.803866 51.504653 
L 231.839689 50.929567 
L 233.911336 49.008773 
L 234.947159 48.326514 
L 235.982982 48.084481 
L 237.018805 48.179394 
L 238.054628 47.166302 
L 239.090451 41.630383 
L 240.126274 44.732213 
L 241.162098 32.968939 
L 242.197921 43.514989 
L 243.233744 34.866444 
L 244.269567 38.236659 
L 245.30539 44.900543 
L 246.341213 40.188103 
L 247.377036 31.00152 
L 248.41286 33.014133 
L 249.448683 42.892579 
L 250.484506 43.504365 
L 251.520329 32.6841 
L 252.556152 39.9741 
L 253.591975 42.578417 
L 254.627798 36.702934 
L 255.663621 35.881501 
L 256.699445 16.896887 
L 258.771091 40.847632 
L 259.806914 41.890523 
L 260.842737 32.205214 
L 261.87856 38.070443 
L 262.914383 38.434499 
L 263.950207 26.150045 
L 264.98603 43.273767 
L 266.021853 38.205948 
L 267.057676 42.757212 
L 268.093499 43.841193 
L 269.129322 37.794653 
L 270.165145 43.491596 
L 271.200969 40.233968 
L 272.236792 43.363703 
L 273.272615 40.283263 
L 274.308438 44.702616 
L 275.344261 46.351475 
L 276.380084 45.888623 
L 277.415907 36.230364 
L 278.451731 47.629168 
L 279.487554 45.622218 
L 280.523377 48.187596 
L 281.5592 48.576351 
L 282.595023 49.200384 
L 283.630846 49.374605 
L 284.666669 50.435964 
L 286.738316 51.498266 
L 287.774139 52.752933 
L 288.809962 52.530316 
L 289.845785 57.880401 
L 290.881608 54.406085 
L 291.917431 55.253247 
L 292.953255 55.19796 
L 293.989078 60.870885 
L 295.024901 58.776052 
L 297.096547 72.900249 
L 298.13237 57.64591 
L 299.168193 60.24136 
L 300.204017 60.320315 
L 301.23984 58.507453 
L 302.275663 57.171101 
L 303.311486 58.274792 
L 304.347309 58.561219 
L 305.383132 75.55301 
L 306.418955 68.711598 
L 307.454779 67.946976 
L 308.490602 64.559259 
L 309.526425 73.581076 
L 310.562248 61.109162 
L 311.598071 61.673152 
L 312.633894 57.964438 
L 313.669717 58.953896 
L 314.705541 62.58066 
L 315.741364 62.366713 
L 316.777187 62.415998 
L 317.81301 69.982324 
L 318.848833 71.761723 
L 319.884656 60.057108 
L 320.920479 65.578008 
L 321.956302 58.266424 
L 322.992126 58.508507 
L 324.027949 55.226469 
L 325.063772 68.666972 
L 326.099595 54.739298 
L 327.135418 55.762206 
L 328.171241 53.682985 
L 329.207064 53.728987 
L 330.242888 52.805852 
L 331.278711 52.88903 
L 332.314534 59.379405 
L 333.350357 54.899483 
L 334.38618 51.092716 
L 335.422003 50.571847 
L 337.49365 49.187804 
L 338.529473 48.982795 
L 339.565296 43.228064 
L 340.601119 41.166383 
L 341.636942 47.576021 
L 342.672765 43.351687 
L 343.708588 44.326516 
L 344.744412 37.725229 
L 345.780235 45.30379 
L 346.816058 42.894401 
L 347.851881 38.601272 
L 348.887704 36.177911 
L 349.923527 40.538913 
L 350.95935 33.533831 
L 351.995174 40.169598 
L 353.030997 41.183906 
L 354.06682 18.446525 
L 355.102643 33.95617 
L 356.138466 42.851472 
L 357.174289 32.199136 
L 358.210112 42.710612 
L 359.245936 38.766952 
L 360.281759 40.603934 
L 361.317582 40.839796 
L 362.353405 29.132279 
L 363.389228 24.227085 
L 364.425051 42.57376 
L 365.460874 37.811523 
L 366.496698 38.176265 
L 367.532521 40.594961 
L 368.568344 30.555057 
L 369.604167 30.9836 
L 370.63999 39.165201 
L 371.675813 43.705724 
L 372.711636 44.087952 
L 373.74746 36.86886 
L 374.783283 37.174536 
L 375.819106 41.468376 
L 376.854929 44.447912 
L 377.890752 45.95867 
L 378.926575 46.422124 
L 379.962398 46.338661 
L 380.998221 47.262645 
L 382.034045 47.671051 
L 383.069868 46.645534 
L 384.105691 47.206386 
L 385.141514 48.952163 
L 386.177337 48.912292 
L 388.248983 50.584421 
L 389.284807 51.040689 
L 390.32063 56.011126 
L 391.356453 53.189617 
L 392.392276 54.868309 
L 393.428099 54.943827 
L 394.463922 58.130786 
L 395.499745 56.655196 
L 396.535569 60.264132 
L 397.571392 73.521312 
L 398.607215 57.587295 
L 399.643038 68.657838 
L 400.678861 57.481416 
L 401.714684 59.901658 
L 402.750507 71.059637 
L 404.822154 59.043687 
L 405.857977 61.717524 
L 406.8938 68.490039 
L 407.929623 59.722462 
L 408.965446 58.553105 
L 410.001269 59.355713 
L 411.037093 58.042305 
L 412.072916 61.716966 
L 413.108739 59.42297 
L 414.144562 63.983004 
L 415.180385 73.052854 
L 416.216208 71.827458 
L 417.252031 62.721312 
L 418.287855 62.080103 
L 419.323678 60.421861 
L 420.359501 76.503733 
L 421.395324 59.452959 
L 422.431147 59.14371 
L 423.46697 60.067655 
L 424.502793 60.347911 
L 425.538617 55.808011 
L 426.57444 61.340151 
L 427.610263 56.154054 
L 428.646086 54.759381 
L 429.681909 54.578613 
L 430.717732 54.227421 
L 431.753555 54.456724 
L 432.789379 53.501036 
L 433.825202 56.261375 
L 434.861025 52.50706 
L 435.896848 53.628712 
L 437.968494 50.883277 
L 440.04014 49.720203 
L 441.075964 48.869149 
L 442.111787 45.937098 
L 443.14761 48.311246 
L 444.183433 45.721691 
L 445.219256 40.763365 
L 446.255079 46.287098 
L 447.290902 33.882289 
L 448.326726 41.23303 
L 449.362549 45.863002 
L 450.398372 33.870759 
L 451.434195 38.982771 
L 452.470018 33.354843 
L 453.505841 30.434835 
L 454.541664 43.862968 
L 455.577488 40.673863 
L 456.613311 43.039823 
L 457.649134 41.916647 
L 458.684957 26.615622 
L 459.72078 41.950976 
L 460.756603 36.955906 
L 461.792426 35.543944 
L 462.82825 31.606686 
L 463.864073 26.913011 
L 464.899896 35.312115 
L 465.935719 38.469084 
L 466.971542 31.892649 
L 469.043188 41.22262 
L 470.079012 23.75221 
L 471.114835 41.576101 
L 472.150658 37.104091 
L 473.186481 43.523226 
L 474.222304 43.380996 
L 475.258127 38.533124 
L 476.29395 32.266973 
L 477.329774 39.736178 
L 478.365597 44.079782 
L 479.40142 44.845275 
L 480.437243 33.99514 
L 481.473066 43.254974 
L 482.508889 45.610848 
L 483.544712 46.808897 
L 484.580536 41.10624 
L 485.616359 41.614146 
L 486.652182 46.107787 
L 487.688005 47.939643 
L 488.723828 45.836791 
L 489.759651 49.658519 
L 491.831298 50.631105 
L 492.867121 52.091796 
L 493.902944 57.718342 
L 494.938767 52.964093 
L 495.97459 52.797368 
L 497.010413 53.935902 
L 498.046236 59.695487 
L 499.08206 57.39445 
L 500.117883 54.779774 
L 501.153706 59.796226 
L 502.189529 55.84659 
L 503.225352 60.068235 
L 504.261175 55.678798 
L 505.296998 61.121675 
L 506.332821 56.362963 
L 507.368645 58.299922 
L 508.404468 66.844442 
L 509.440291 57.121901 
L 510.476114 57.723273 
L 511.511937 64.65673 
L 512.54776 57.704138 
L 513.583583 60.249315 
L 514.619407 66.467739 
L 515.65523 64.196971 
L 516.691053 57.944755 
L 517.726876 67.799209 
L 518.762699 64.608446 
L 519.798522 60.330898 
L 520.834345 58.599694 
L 521.870169 58.902483 
L 522.905992 79.485965 
L 523.941815 59.600352 
L 524.977638 80.149814 
L 526.013461 57.098733 
L 527.049284 56.376284 
L 528.085107 58.618729 
L 529.120931 62.361721 
L 530.156754 57.126966 
L 531.192577 55.362883 
L 532.2284 56.546234 
L 533.264223 70.269353 
L 534.300046 58.149549 
L 535.335869 56.294141 
L 536.371693 63.357885 
L 537.407516 52.859942 
L 538.443339 58.125178 
L 539.479162 52.338156 
L 540.514985 51.329152 
L 541.550808 51.085726 
L 542.586631 50.306517 
L 543.622455 49.216969 
L 544.658278 47.61452 
L 545.694101 47.395306 
L 546.729924 45.637394 
L 547.765747 46.962942 
L 548.80157 45.146462 
L 549.837393 42.905251 
L 550.873217 42.711966 
L 551.90904 44.936694 
L 552.944863 41.402977 
L 553.980686 24.291546 
L 555.016509 33.790851 
L 556.052332 42.032809 
L 557.088155 44.391334 
L 558.123979 43.557488 
L 559.159802 35.648696 
L 560.195625 42.157342 
L 561.231448 33.73101 
L 562.267271 30.716382 
L 563.303094 10.886376 
L 564.338917 42.836433 
L 565.37474 37.969005 
L 566.410564 39.486413 
L 567.446387 33.144705 
L 568.48221 42.587038 
L 568.48221 42.587038 
" style="fill:none;stroke:#0271ae;stroke-linecap:square;stroke-width:3;"/>
   </g>
   <g id="legend_1">
    <g id="patch_3">
     <path d="M 61.406463 81.300273 
L 103.610384 81.300273 
Q 106.410384 81.300273 106.410384 78.500273 
L 106.410384 58.329288 
Q 106.410384 55.529288 103.610384 55.529288 
L 61.406463 55.529288 
Q 58.606463 55.529288 58.606463 58.329288 
L 58.606463 78.500273 
Q 58.606463 81.300273 61.406463 81.300273 
z
" style="fill:#ffffff;opacity:0.95;stroke:#cccccc;stroke-linejoin:miter;stroke-width:0.5;"/>
    </g>
    <g id="line2d_21">
     <path d="M 64.206463 66.867101 
L 78.206463 66.867101 
" style="fill:none;stroke:#0271ae;stroke-linecap:square;stroke-width:3;"/>
    </g>
    <g id="line2d_22"/>
    <g id="text_4">
     <!-- $x_s$ -->
     <g style="fill:#0271ae;" transform="translate(89.406463 71.767101)scale(0.14 -0.14)">
      <defs>
       <path d="M 134 566 
C 134 438 122 357 83 153 
C 70 77 64 58 58 13 
C 154 -39 256 -64 333 -64 
C 544 -64 794 121 992 419 
L 1478 1164 
L 1549 725 
C 1632 184 1779 -64 2010 -64 
C 2150 -64 2355 44 2560 229 
L 2874 509 
L 2816 630 
C 2586 439 2426 344 2323 344 
C 2227 344 2144 408 2080 534 
C 2022 655 1952 890 1920 1075 
L 1805 1716 
L 2029 2028 
C 2330 2441 2502 2587 2701 2587 
C 2803 2587 2880 2536 2912 2441 
L 3002 2466 
L 3098 3008 
C 3021 3053 2963 3072 2906 3072 
C 2650 3072 2394 2842 1997 2257 
L 1760 1907 
L 1722 2212 
C 1645 2842 1472 3072 1094 3072 
C 928 3072 787 3021 730 2938 
L 358 2409 
L 467 2346 
C 659 2562 787 2651 909 2651 
C 1120 2651 1261 2391 1370 1767 
L 1440 1373 
L 1184 977 
C 909 549 691 344 512 344 
C 416 344 346 371 333 403 
L 262 585 
z
" id="URWPalladioL-Ital-78" transform="scale(0.015625)"/>
       <path d="M 198 947 
C 166 623 128 400 58 108 
C 301 -7 518 -64 742 -64 
C 1056 -64 1350 51 1677 305 
C 2003 559 2138 794 2138 1113 
C 2138 1456 1933 1640 1459 1729 
L 1184 1780 
C 800 1850 678 1959 678 2219 
C 678 2557 966 2817 1331 2817 
C 1594 2817 1837 2702 1939 2531 
L 1939 2181 
L 2086 2181 
C 2112 2404 2138 2575 2208 2900 
C 1958 3021 1779 3072 1568 3072 
C 1235 3072 845 2881 538 2576 
C 371 2404 301 2245 301 2016 
C 301 1660 499 1456 922 1374 
L 1325 1298 
C 1606 1247 1709 1132 1709 884 
C 1709 470 1414 191 960 191 
C 736 191 538 261 358 413 
L 358 947 
z
" id="URWPalladioL-Ital-73" transform="scale(0.015625)"/>
      </defs>
      <use transform="scale(0.996264)" xlink:href="#URWPalladioL-Ital-78"/>
      <use transform="translate(52.003975 -14.943915)scale(0.757155)" xlink:href="#URWPalladioL-Ital-73"/>
     </g>
    </g>
   </g>
  </g>
  <g id="axes_2">
   <g id="patch_4">
    <path d="M 51.606463 186.261659 
L 568.48221 186.261659 
L 568.48221 105.161386 
L 51.606463 105.161386 
z
" style="fill:none;"/>
   </g>
   <g id="line2d_23">
    <path clip-path="url(#p9c7b979b09)" d="M 284.407714 186.261659 
L 284.407714 105.161386 
" style="fill:none;stroke:#dc2830;stroke-linecap:square;stroke-opacity:0.25;stroke-width:3;"/>
   </g>
   <g id="matplotlib.axis_3">
    <g id="xtick_7">
     <g id="line2d_24">
      <path clip-path="url(#p9c7b979b09)" d="M 51.606463 186.261659 
L 51.606463 105.161386 
" style="fill:none;stroke:#000000;stroke-linecap:square;stroke-opacity:0.2;stroke-width:0.5;"/>
     </g>
     <g id="line2d_25">
      <g>
       <use style="fill-opacity:0.2;stroke:#000000;stroke-opacity:0.2;stroke-width:0.8;" x="51.606463" xlink:href="#ma4953c6735" y="186.261659"/>
      </g>
     </g>
     <g id="text_5">
      <!-- $\mathdefault{0.0}$ -->
      <g transform="translate(42.889153 211.741188)scale(0.14 -0.14)">
       <use transform="scale(0.996264)" xlink:href="#URWPalladioL-Roma-30"/>
       <use transform="translate(49.8132 0)scale(0.996264)" xlink:href="#URWPalladioL-Roma-2e"/>
       <use transform="translate(74.719801 0)scale(0.996264)" xlink:href="#URWPalladioL-Roma-30"/>
      </g>
     </g>
    </g>
    <g id="xtick_8">
     <g id="line2d_26">
      <path clip-path="url(#p9c7b979b09)" d="M 154.981612 186.261659 
L 154.981612 105.161386 
" style="fill:none;stroke:#000000;stroke-linecap:square;stroke-opacity:0.2;stroke-width:0.5;"/>
     </g>
     <g id="line2d_27">
      <g>
       <use style="fill-opacity:0.2;stroke:#000000;stroke-opacity:0.2;stroke-width:0.8;" x="154.981612" xlink:href="#ma4953c6735" y="186.261659"/>
      </g>
     </g>
     <g id="text_6">
      <!-- $\mathdefault{0.2}$ -->
      <g transform="translate(146.264302 211.741188)scale(0.14 -0.14)">
       <use transform="scale(0.996264)" xlink:href="#URWPalladioL-Roma-30"/>
       <use transform="translate(49.8132 0)scale(0.996264)" xlink:href="#URWPalladioL-Roma-2e"/>
       <use transform="translate(74.719801 0)scale(0.996264)" xlink:href="#URWPalladioL-Roma-32"/>
      </g>
     </g>
    </g>
    <g id="xtick_9">
     <g id="line2d_28">
      <path clip-path="url(#p9c7b979b09)" d="M 258.356762 186.261659 
L 258.356762 105.161386 
" style="fill:none;stroke:#000000;stroke-linecap:square;stroke-opacity:0.2;stroke-width:0.5;"/>
     </g>
     <g id="line2d_29">
      <g>
       <use style="fill-opacity:0.2;stroke:#000000;stroke-opacity:0.2;stroke-width:0.8;" x="258.356762" xlink:href="#ma4953c6735" y="186.261659"/>
      </g>
     </g>
     <g id="text_7">
      <!-- $\mathdefault{0.4}$ -->
      <g transform="translate(249.639452 211.741188)scale(0.14 -0.14)">
       <defs>
        <path d="M 1792 1152 
L 1792 673 
C 1792 289 1722 199 1408 199 
L 1011 199 
L 1011 0 
C 1862 0 1862 0 2016 0 
C 2170 0 2170 0 3021 0 
L 3021 199 
L 2714 199 
C 2400 199 2330 282 2330 669 
L 2330 1152 
C 2707 1152 2842 1152 3021 1133 
L 3021 1588 
C 2720 1563 2598 1563 2502 1563 
L 2483 1563 
L 2330 1563 
L 2330 2457 
C 2330 3600 2342 4152 2374 4416 
L 2298 4448 
L 1824 4275 
L 13 1299 
L 83 1152 
z
M 1792 1563 
L 416 1563 
L 1792 3826 
z
" id="URWPalladioL-Roma-34" transform="scale(0.015625)"/>
       </defs>
       <use transform="scale(0.996264)" xlink:href="#URWPalladioL-Roma-30"/>
       <use transform="translate(49.8132 0)scale(0.996264)" xlink:href="#URWPalladioL-Roma-2e"/>
       <use transform="translate(74.719801 0)scale(0.996264)" xlink:href="#URWPalladioL-Roma-34"/>
      </g>
     </g>
    </g>
    <g id="xtick_10">
     <g id="line2d_30">
      <path clip-path="url(#p9c7b979b09)" d="M 361.731911 186.261659 
L 361.731911 105.161386 
" style="fill:none;stroke:#000000;stroke-linecap:square;stroke-opacity:0.2;stroke-width:0.5;"/>
     </g>
     <g id="line2d_31">
      <g>
       <use style="fill-opacity:0.2;stroke:#000000;stroke-opacity:0.2;stroke-width:0.8;" x="361.731911" xlink:href="#ma4953c6735" y="186.261659"/>
      </g>
     </g>
     <g id="text_8">
      <!-- $\mathdefault{0.6}$ -->
      <g transform="translate(353.014601 211.741188)scale(0.14 -0.14)">
       <defs>
        <path d="M 2662 4310 
L 2426 4419 
C 1811 4214 1549 4086 1222 3804 
C 563 3246 205 2464 205 1585 
C 205 526 717 -128 1542 -128 
C 2374 -128 2995 532 2995 1405 
C 2995 2143 2554 2624 1875 2624 
C 1555 2624 1363 2540 986 2239 
C 915 2181 909 2175 838 2124 
C 973 3284 1510 3913 2662 4259 
z
M 1632 2239 
C 2118 2239 2445 1816 2445 1181 
C 2445 513 2118 83 1626 83 
C 1082 83 787 551 787 1412 
C 787 1636 813 1758 883 1867 
C 1024 2085 1325 2239 1632 2239 
z
" id="URWPalladioL-Roma-36" transform="scale(0.015625)"/>
       </defs>
       <use transform="scale(0.996264)" xlink:href="#URWPalladioL-Roma-30"/>
       <use transform="translate(49.8132 0)scale(0.996264)" xlink:href="#URWPalladioL-Roma-2e"/>
       <use transform="translate(74.719801 0)scale(0.996264)" xlink:href="#URWPalladioL-Roma-36"/>
      </g>
     </g>
    </g>
    <g id="xtick_11">
     <g id="line2d_32">
      <path clip-path="url(#p9c7b979b09)" d="M 465.10706 186.261659 
L 465.10706 105.161386 
" style="fill:none;stroke:#000000;stroke-linecap:square;stroke-opacity:0.2;stroke-width:0.5;"/>
     </g>
     <g id="line2d_33">
      <g>
       <use style="fill-opacity:0.2;stroke:#000000;stroke-opacity:0.2;stroke-width:0.8;" x="465.10706" xlink:href="#ma4953c6735" y="186.261659"/>
      </g>
     </g>
     <g id="text_9">
      <!-- $\mathdefault{0.8}$ -->
      <g transform="translate(456.38975 211.741188)scale(0.14 -0.14)">
       <defs>
        <path d="M 1075 2211 
C 813 2090 704 2019 563 1884 
C 320 1641 192 1352 192 1019 
C 192 359 723 -128 1446 -128 
C 2278 -128 2970 526 2970 1320 
C 2970 1833 2733 2109 2003 2442 
C 2586 2840 2790 3109 2790 3493 
C 2790 4044 2336 4416 1658 4416 
C 896 4416 339 3929 339 3257 
C 339 2821 512 2577 1075 2211 
z
M 1818 1891 
C 2221 1711 2464 1397 2464 1052 
C 2464 513 2061 90 1542 90 
C 998 90 646 475 646 1071 
C 646 1538 832 1833 1306 2122 
z
M 1427 2712 
C 1024 2910 819 3167 819 3487 
C 819 3910 1126 4198 1581 4198 
C 2048 4198 2355 3891 2355 3422 
C 2355 3058 2195 2808 1779 2538 
z
" id="URWPalladioL-Roma-38" transform="scale(0.015625)"/>
       </defs>
       <use transform="scale(0.996264)" xlink:href="#URWPalladioL-Roma-30"/>
       <use transform="translate(49.8132 0)scale(0.996264)" xlink:href="#URWPalladioL-Roma-2e"/>
       <use transform="translate(74.719801 0)scale(0.996264)" xlink:href="#URWPalladioL-Roma-38"/>
      </g>
     </g>
    </g>
    <g id="xtick_12">
     <g id="line2d_34">
      <path clip-path="url(#p9c7b979b09)" d="M 568.48221 186.261659 
L 568.48221 105.161386 
" style="fill:none;stroke:#000000;stroke-linecap:square;stroke-opacity:0.2;stroke-width:0.5;"/>
     </g>
     <g id="line2d_35">
      <g>
       <use style="fill-opacity:0.2;stroke:#000000;stroke-opacity:0.2;stroke-width:0.8;" x="568.48221" xlink:href="#ma4953c6735" y="186.261659"/>
      </g>
     </g>
     <g id="text_10">
      <!-- $\mathdefault{1.0}$ -->
      <g transform="translate(559.7649 211.741188)scale(0.14 -0.14)">
       <defs>
        <path d="M 429 3584 
L 493 3584 
L 1318 3956 
C 1325 3962 1331 3962 1338 3962 
C 1376 3962 1389 3905 1389 3751 
L 1389 613 
C 1389 276 1318 205 973 205 
L 614 205 
L 614 0 
C 1600 0 1600 0 1670 0 
C 1754 0 1894 0 2112 0 
C 2189 0 2413 0 2675 0 
L 2675 205 
L 2342 205 
C 1990 205 1926 276 1926 612 
L 1926 4443 
L 1837 4475 
C 1421 4257 966 4065 384 3860 
z
" id="URWPalladioL-Roma-31" transform="scale(0.015625)"/>
       </defs>
       <use transform="scale(0.996264)" xlink:href="#URWPalladioL-Roma-31"/>
       <use transform="translate(49.8132 0)scale(0.996264)" xlink:href="#URWPalladioL-Roma-2e"/>
       <use transform="translate(74.719801 0)scale(0.996264)" xlink:href="#URWPalladioL-Roma-30"/>
      </g>
     </g>
    </g>
    <g id="text_11">
     <!-- Time [seconds] -->
     <g transform="translate(270.371485 228.228236)scale(0.12 -0.12)">
      <defs>
       <path d="M 1632 4114 
C 1651 3896 1658 3749 1658 3473 
L 1658 763 
C 1658 256 1626 205 1331 205 
L 1024 205 
L 1024 0 
C 1402 0 1626 0 1958 0 
C 2291 0 2522 0 2899 0 
L 2899 205 
L 2592 205 
C 2298 205 2266 256 2266 763 
L 2266 3473 
C 2266 3762 2272 3903 2291 4114 
L 3283 4114 
C 3462 4114 3533 4057 3539 3904 
L 3565 3400 
L 3763 3400 
C 3763 3810 3776 4056 3808 4416 
C 3347 4416 3136 4416 2957 4416 
C 2707 4416 2522 4416 2426 4416 
L 1414 4416 
C 1350 4416 1005 4416 550 4416 
L 115 4416 
C 147 4056 160 3810 160 3400 
L 358 3400 
L 384 3904 
C 390 4057 461 4114 640 4114 
z
" id="URWPalladioL-Roma-54" transform="scale(0.015625)"/>
       <path d="M 1203 2993 
L 1146 3019 
C 819 2884 486 2793 147 2755 
L 147 2576 
L 384 2576 
C 640 2576 666 2531 666 2105 
L 666 651 
C 666 244 646 199 429 199 
L 134 199 
L 134 0 
C 774 0 774 0 934 0 
C 1094 0 1094 0 1734 0 
L 1734 199 
L 1440 199 
C 1222 199 1203 244 1203 651 
z
M 909 4416 
C 717 4416 550 4249 550 4056 
C 550 3870 717 3704 902 3704 
C 1088 3704 1261 3870 1261 4056 
C 1261 4236 1088 4416 909 4416 
z
" id="URWPalladioL-Roma-69" transform="scale(0.015625)"/>
       <path d="M 115 2565 
L 352 2565 
C 608 2565 634 2520 634 2094 
L 634 643 
C 634 237 614 192 397 192 
L 102 192 
L 102 -7 
C 717 -7 736 -7 915 -7 
C 1094 -7 1261 -7 1677 -7 
L 1677 179 
L 1408 205 
C 1190 205 1171 250 1171 654 
L 1171 2014 
C 1171 2302 1594 2616 1978 2616 
C 2323 2616 2560 2287 2560 1798 
L 2560 643 
C 2560 237 2541 192 2323 192 
L 2029 192 
L 2029 -7 
C 2669 -7 2669 -7 2829 -7 
C 2989 -7 2989 -7 3629 -7 
L 3629 192 
L 3334 192 
C 3117 192 3098 237 3098 643 
L 3098 2011 
C 3098 2300 3520 2616 3904 2616 
C 4250 2616 4486 2291 4486 1806 
L 4486 -7 
C 4877 -7 4883 -7 4992 -7 
C 5075 -7 5075 -7 5562 -7 
L 5562 192 
L 5261 192 
C 5043 192 5024 237 5024 643 
L 5024 1970 
C 5024 2608 4653 3008 4064 3008 
C 3840 3008 3654 2950 3539 2847 
L 3053 2412 
C 2848 2834 2586 3008 2144 3008 
C 1907 3008 1728 2950 1613 2847 
L 1171 2437 
L 1171 2982 
L 1114 3008 
C 787 2873 454 2783 115 2745 
z
" id="URWPalladioL-Roma-6d" transform="scale(0.015625)"/>
       <path d="M 2797 447 
L 2714 511 
C 2304 269 2157 212 1882 212 
C 1466 212 1120 398 941 711 
C 819 921 774 1101 762 1472 
L 1696 1472 
C 2138 1472 2413 1472 2854 1544 
C 2861 1634 2867 1693 2867 1771 
C 2867 2520 2394 3008 1677 3008 
C 1440 3008 1165 2924 902 2770 
C 378 2469 166 2071 166 1404 
C 166 1000 262 654 435 410 
C 691 71 1120 -128 1600 -128 
C 1837 -128 2074 -77 2336 37 
C 2509 108 2643 191 2669 230 
z
M 2298 1690 
C 1965 1690 1811 1690 1581 1690 
C 1286 1690 1120 1690 774 1722 
C 774 2027 800 2169 883 2337 
C 1018 2622 1293 2796 1600 2796 
C 1811 2796 1978 2711 2093 2534 
C 2234 2319 2278 2129 2298 1690 
z
" id="URWPalladioL-Roma-65" transform="scale(0.015625)"/>
       <path d="M 563 -1152 
C 1018 -1152 1030 -1152 1184 -1152 
C 1338 -1152 1370 -1152 1805 -1152 
L 1843 -1120 
L 1843 -953 
L 1818 -921 
L 1574 -921 
C 1402 -921 1261 -882 1184 -818 
C 1126 -760 1107 -671 1107 -459 
C 1107 -453 1107 -318 1101 -125 
L 1101 112 
L 1101 3409 
L 1101 3646 
C 1107 3826 1107 3967 1107 3973 
C 1107 4185 1126 4281 1184 4339 
C 1261 4403 1402 4441 1574 4441 
L 1818 4441 
L 1843 4473 
L 1843 4640 
L 1805 4672 
C 1357 4672 1338 4672 1184 4672 
C 1037 4672 1005 4672 563 4672 
L 506 4595 
C 544 4435 557 4223 557 3730 
C 557 3633 557 3556 563 3492 
L 563 3409 
L 563 112 
L 563 28 
C 557 -74 557 -81 557 -190 
L 557 -260 
C 557 -696 544 -876 506 -1075 
z
" id="URWPalladioL-Roma-5b" transform="scale(0.015625)"/>
       <path d="M 262 917 
C 262 475 243 282 192 26 
C 525 -83 774 -128 1069 -128 
C 1907 -128 2502 321 2502 949 
C 2502 1148 2445 1295 2323 1424 
C 2157 1584 1946 1661 1382 1770 
C 858 1873 685 2001 685 2296 
C 685 2616 909 2796 1299 2796 
C 1728 2796 2054 2572 2054 2270 
L 2054 2123 
L 2234 2123 
C 2240 2495 2246 2648 2266 2847 
C 1926 2963 1696 3008 1434 3008 
C 691 3008 237 2655 237 2078 
C 237 1770 378 1552 672 1417 
C 845 1340 1184 1238 1619 1141 
C 1907 1077 2029 943 2029 699 
C 2029 353 1709 109 1254 109 
C 787 109 454 333 454 654 
L 454 917 
z
" id="URWPalladioL-Roma-73" transform="scale(0.015625)"/>
       <path d="M 2554 1994 
C 2554 2289 2586 2552 2643 2783 
C 2387 2937 2163 3008 1901 3008 
C 1594 3008 1235 2886 851 2642 
C 403 2360 166 1911 166 1347 
C 166 481 774 -128 1632 -128 
C 1965 -128 2445 -6 2509 90 
L 2643 295 
L 2579 391 
C 2342 263 2138 205 1907 205 
C 1197 205 730 757 730 1603 
C 730 2289 1050 2674 1626 2674 
C 1907 2674 2214 2546 2330 2386 
L 2374 1994 
z
" id="URWPalladioL-Roma-63" transform="scale(0.015625)"/>
       <path d="M 1786 3008 
C 851 3008 205 2347 205 1392 
C 205 487 774 -128 1600 -128 
C 2586 -128 3290 558 3290 1520 
C 3290 2386 2662 3008 1786 3008 
z
M 1670 2796 
C 2259 2796 2694 2155 2694 1283 
C 2694 545 2368 83 1850 83 
C 1222 83 800 699 800 1610 
C 800 2379 1107 2796 1670 2796 
z
" id="URWPalladioL-Roma-6f" transform="scale(0.015625)"/>
       <path d="M 2624 -7 
C 3014 -7 3021 -7 3130 -7 
C 3219 -7 3219 -7 3661 -7 
L 3661 179 
L 3398 205 
C 3181 205 3162 244 3162 654 
L 3162 1892 
C 3162 2642 2810 3008 2093 3008 
C 1856 3008 1722 2963 1587 2847 
L 1101 2424 
L 1101 2982 
L 1043 3008 
C 717 2873 384 2783 45 2745 
L 45 2565 
L 282 2565 
C 538 2565 563 2520 563 2094 
L 563 643 
C 563 237 544 192 326 192 
L 38 192 
L 38 -7 
C 474 -7 646 -7 832 -7 
C 1018 -7 1190 -7 1626 -7 
L 1626 192 
L 1338 192 
C 1120 192 1101 237 1101 643 
L 1101 2011 
C 1101 2300 1523 2616 1914 2616 
C 2342 2616 2624 2297 2624 1806 
z
" id="URWPalladioL-Roma-6e" transform="scale(0.015625)"/>
       <path d="M 2637 2802 
C 2278 2956 2099 3008 1875 3008 
C 1702 3008 1549 2969 1389 2887 
L 826 2593 
C 461 2401 224 1935 224 1392 
C 224 881 397 460 710 204 
C 928 19 1229 -64 1645 -64 
C 1773 -64 1920 -38 1952 -13 
L 2662 583 
L 2630 -7 
C 2944 -7 3046 -7 3123 -7 
C 3174 -7 3264 -7 3398 -7 
C 3443 -7 3571 -7 3706 -7 
L 3706 192 
L 3411 192 
C 3194 192 3174 237 3174 643 
L 3174 4607 
L 3117 4659 
C 2835 4550 2624 4498 2118 4421 
L 2118 4242 
L 2477 4242 
C 2592 4242 2637 4171 2637 3978 
z
M 2637 1424 
C 2637 1009 2624 946 2541 799 
C 2362 499 2048 302 1747 302 
C 1184 302 781 844 781 1603 
C 781 2298 1126 2706 1702 2706 
C 1946 2706 2202 2623 2426 2470 
C 2560 2381 2637 2298 2637 2246 
z
" id="URWPalladioL-Roma-64" transform="scale(0.015625)"/>
       <path d="M 1568 4672 
C 1114 4672 1094 4672 947 4672 
C 794 4672 762 4672 326 4672 
L 288 4640 
L 288 4473 
L 314 4441 
L 557 4441 
C 730 4441 864 4403 941 4339 
C 1005 4281 1024 4191 1024 3973 
C 1024 3954 1024 3826 1030 3646 
L 1030 3409 
L 1030 112 
L 1030 -125 
C 1024 -311 1024 -427 1024 -446 
C 1024 -664 1005 -760 941 -818 
C 864 -882 730 -921 557 -921 
L 314 -921 
L 288 -953 
L 288 -1120 
L 326 -1152 
C 774 -1152 787 -1152 947 -1152 
C 1094 -1152 1126 -1152 1568 -1152 
L 1626 -1075 
C 1587 -921 1581 -722 1574 -228 
C 1574 -138 1574 -55 1568 28 
L 1568 112 
L 1568 3409 
L 1568 3492 
C 1574 3563 1574 3646 1574 3736 
C 1574 4230 1587 4441 1626 4595 
z
" id="URWPalladioL-Roma-5d" transform="scale(0.015625)"/>
      </defs>
      <use transform="scale(0.996264)" xlink:href="#URWPalladioL-Roma-54"/>
      <use transform="translate(55.591109 0)scale(0.996264)" xlink:href="#URWPalladioL-Roma-69"/>
      <use transform="translate(84.581471 0)scale(0.996264)" xlink:href="#URWPalladioL-Roma-6d"/>
      <use transform="translate(172.551145 0)scale(0.996264)" xlink:href="#URWPalladioL-Roma-65"/>
      <use transform="translate(245.17804 0)scale(0.996264)" xlink:href="#URWPalladioL-Roma-5b"/>
      <use transform="translate(278.35327 0)scale(0.996264)" xlink:href="#URWPalladioL-Roma-73"/>
      <use transform="translate(320.594736 0)scale(0.996264)" xlink:href="#URWPalladioL-Roma-65"/>
      <use transform="translate(368.315031 0)scale(0.996264)" xlink:href="#URWPalladioL-Roma-63"/>
      <use transform="translate(412.5486 0)scale(0.996264)" xlink:href="#URWPalladioL-Roma-6f"/>
      <use transform="translate(466.94418 0)scale(0.996264)" xlink:href="#URWPalladioL-Roma-6e"/>
      <use transform="translate(524.926241 0)scale(0.996264)" xlink:href="#URWPalladioL-Roma-64"/>
      <use transform="translate(585.797872 0)scale(0.996264)" xlink:href="#URWPalladioL-Roma-73"/>
      <use transform="translate(628.039338 0)scale(0.996264)" xlink:href="#URWPalladioL-Roma-5d"/>
     </g>
    </g>
   </g>
   <g id="matplotlib.axis_4">
    <g id="ytick_4">
     <g id="line2d_36">
      <path clip-path="url(#p9c7b979b09)" d="M 51.606463 185.895334 
L 568.48221 185.895334 
" style="fill:none;stroke:#000000;stroke-linecap:square;stroke-opacity:0.2;stroke-width:0.5;"/>
     </g>
     <g id="line2d_37">
      <g>
       <use style="fill-opacity:0.2;stroke:#000000;stroke-opacity:0.2;stroke-width:0.8;" x="51.606463" xlink:href="#m8468e20f7d" y="185.895334"/>
      </g>
     </g>
     <g id="text_12">
      <!-- $\mathdefault{−2.5}$ -->
      <g transform="translate(7.2 190.885098)scale(0.14 -0.14)">
       <use transform="scale(1.038107)" xlink:href="#CMSY10-0"/>
       <use transform="translate(81.941696 0)scale(0.996264)" xlink:href="#URWPalladioL-Roma-32"/>
       <use transform="translate(131.754897 0)scale(0.996264)" xlink:href="#URWPalladioL-Roma-2e"/>
       <use transform="translate(156.661497 0)scale(0.996264)" xlink:href="#URWPalladioL-Roma-35"/>
      </g>
     </g>
    </g>
    <g id="ytick_5">
     <g id="line2d_38">
      <path clip-path="url(#p9c7b979b09)" d="M 51.606463 148.181984 
L 568.48221 148.181984 
" style="fill:none;stroke:#000000;stroke-linecap:square;stroke-opacity:0.2;stroke-width:0.5;"/>
     </g>
     <g id="line2d_39">
      <g>
       <use style="fill-opacity:0.2;stroke:#000000;stroke-opacity:0.2;stroke-width:0.8;" x="51.606463" xlink:href="#m8468e20f7d" y="148.181984"/>
      </g>
     </g>
     <g id="text_13">
      <!-- $\mathdefault{0.0}$ -->
      <g transform="translate(18.671843 153.171748)scale(0.14 -0.14)">
       <use transform="scale(0.996264)" xlink:href="#URWPalladioL-Roma-30"/>
       <use transform="translate(49.8132 0)scale(0.996264)" xlink:href="#URWPalladioL-Roma-2e"/>
       <use transform="translate(74.719801 0)scale(0.996264)" xlink:href="#URWPalladioL-Roma-30"/>
      </g>
     </g>
    </g>
    <g id="ytick_6">
     <g id="line2d_40">
      <path clip-path="url(#p9c7b979b09)" d="M 51.606463 110.468633 
L 568.48221 110.468633 
" style="fill:none;stroke:#000000;stroke-linecap:square;stroke-opacity:0.2;stroke-width:0.5;"/>
     </g>
     <g id="line2d_41">
      <g>
       <use style="fill-opacity:0.2;stroke:#000000;stroke-opacity:0.2;stroke-width:0.8;" x="51.606463" xlink:href="#m8468e20f7d" y="110.468633"/>
      </g>
     </g>
     <g id="text_14">
      <!-- $\mathdefault{2.5}$ -->
      <g transform="translate(18.671843 115.458398)scale(0.14 -0.14)">
       <use transform="scale(0.996264)" xlink:href="#URWPalladioL-Roma-32"/>
       <use transform="translate(49.8132 0)scale(0.996264)" xlink:href="#URWPalladioL-Roma-2e"/>
       <use transform="translate(74.719801 0)scale(0.996264)" xlink:href="#URWPalladioL-Roma-35"/>
      </g>
     </g>
    </g>
   </g>
   <g id="line2d_42">
    <path clip-path="url(#p9c7b979b09)" d="M 180.8254 120.522361 
L 181.861223 138.540311 
L 182.897046 131.733582 
L 183.932869 114.162039 
L 184.968692 119.93694 
L 186.004515 132.435666 
L 187.040338 133.127851 
L 188.076162 141.054286 
L 189.111985 141.436661 
L 190.147808 139.947269 
L 191.183631 141.837475 
L 192.219454 130.327622 
L 193.255277 138.182656 
L 194.2911 142.877256 
L 195.326924 141.766679 
L 196.362747 142.865803 
L 197.39857 135.487283 
L 198.434393 144.269585 
L 199.470216 144.411141 
L 200.506039 142.719198 
L 201.541862 136.148834 
L 202.577686 145.1265 
L 203.613509 145.400165 
L 204.649332 146.528835 
L 205.685155 146.086242 
L 206.720978 148.255014 
L 208.792624 149.218564 
L 209.828448 152.823604 
L 210.864271 154.087571 
L 211.900094 150.650503 
L 212.935917 151.697647 
L 213.97174 154.782409 
L 215.007563 163.140883 
L 216.043386 153.138853 
L 217.07921 152.855283 
L 218.115033 161.021662 
L 219.150856 161.695854 
L 220.186679 155.168295 
L 221.222502 155.000882 
L 222.258325 162.410975 
L 223.294148 167.419729 
L 225.365795 175.739682 
L 226.401618 158.217859 
L 227.437441 157.736743 
L 228.473264 167.9201 
L 229.509087 161.8949 
L 230.54491 173.487675 
L 231.580733 156.365853 
L 232.616557 163.653238 
L 233.65238 157.696274 
L 234.688203 158.8707 
L 235.724026 167.156355 
L 236.759849 155.486339 
L 237.795672 157.606331 
L 238.831495 155.23684 
L 239.867319 156.131281 
L 240.903142 158.816007 
L 241.938965 156.012589 
L 242.974788 158.352459 
L 244.010611 155.29466 
L 245.046434 158.601884 
L 246.082257 166.58399 
L 247.118081 153.233733 
L 248.153904 153.805214 
L 249.189727 161.783992 
L 250.22555 153.057107 
L 251.261373 154.714595 
L 252.297196 150.912207 
L 253.333019 152.191216 
L 254.368843 150.05165 
L 255.404666 151.531906 
L 256.440489 150.517419 
L 257.476312 148.69983 
L 258.512135 148.06119 
L 259.547958 147.086225 
L 260.583781 146.624876 
L 262.655428 146.221366 
L 263.691251 142.088565 
L 264.727074 142.313429 
L 265.762897 143.697342 
L 266.79872 136.218456 
L 267.834543 135.280691 
L 268.870367 130.541349 
L 269.90619 135.709162 
L 270.942013 142.630858 
L 271.977836 135.052268 
L 273.013659 134.492615 
L 274.049482 140.279105 
L 275.085305 131.238447 
L 276.121129 140.976662 
L 277.156952 133.12427 
L 278.192775 139.530258 
L 279.228598 135.71598 
L 280.264421 140.852525 
L 281.300244 120.63912 
L 282.336067 140.450046 
L 283.371891 138.51615 
L 284.407714 118.79206 
L 285.443537 126.558412 
L 286.47936 127.782731 
L 287.515183 132.060484 
L 288.551006 129.613285 
L 289.586829 119.515113 
L 290.622652 139.12932 
L 291.658476 135.986202 
L 292.694299 122.115391 
L 293.730122 128.453582 
L 294.765945 124.826709 
L 295.801768 136.293688 
L 296.837591 137.377033 
L 297.873414 128.103836 
L 298.909238 142.822204 
L 299.945061 139.966411 
L 300.980884 139.724212 
L 302.016707 144.480014 
L 303.05253 143.256795 
L 304.088353 142.577534 
L 305.124176 145.400477 
L 306.16 143.920371 
L 307.195823 146.669013 
L 308.231646 145.830804 
L 309.267469 147.572607 
L 311.339115 148.96808 
L 312.374938 152.261919 
L 313.410762 150.750105 
L 314.446585 150.754502 
L 315.482408 152.676487 
L 316.518231 152.435354 
L 317.554054 153.763674 
L 318.589877 151.933448 
L 319.6257 154.893229 
L 320.661524 155.813981 
L 321.697347 155.671447 
L 322.73317 153.877349 
L 323.768993 155.30937 
L 324.804816 162.353418 
L 325.840639 167.620334 
L 326.876462 156.754295 
L 327.912286 155.216607 
L 328.948109 159.305948 
L 329.983932 182.575283 
L 331.019755 163.602504 
L 332.055578 163.4586 
L 334.127224 169.296068 
L 335.163048 158.43737 
L 336.198871 155.793223 
L 337.234694 175.016307 
L 338.270517 161.57234 
L 339.30634 162.439859 
L 340.342163 155.589498 
L 341.377986 160.023412 
L 342.41381 165.332676 
L 343.449633 164.271635 
L 344.485456 164.544092 
L 345.521279 156.537672 
L 346.557102 156.666955 
L 347.592925 170.957285 
L 348.628748 159.753379 
L 349.664571 153.308192 
L 350.700395 160.588215 
L 351.736218 156.632433 
L 352.772041 156.921098 
L 353.807864 159.527985 
L 354.843687 156.086998 
L 355.87951 151.292052 
L 356.915333 152.743754 
L 357.951157 150.219424 
L 358.98698 150.667212 
L 360.022803 149.466038 
L 361.058626 148.890953 
L 363.130272 146.970158 
L 364.166095 146.2879 
L 365.201919 146.045867 
L 366.237742 146.14078 
L 367.273565 145.127687 
L 368.309388 139.591768 
L 369.345211 142.693599 
L 370.381034 130.930324 
L 371.416857 141.476375 
L 372.452681 132.82783 
L 373.488504 136.198045 
L 374.524327 142.861928 
L 375.56015 138.149489 
L 376.595973 128.962905 
L 377.631796 130.975519 
L 378.667619 140.853965 
L 379.703443 141.465751 
L 380.739266 130.645485 
L 381.775089 137.935486 
L 382.810912 140.539803 
L 383.846735 134.66432 
L 384.882558 133.842887 
L 385.918381 114.858272 
L 387.990028 138.809017 
L 389.025851 139.851909 
L 390.061674 130.1666 
L 391.097497 136.031828 
L 392.13332 136.395885 
L 393.169143 124.11143 
L 394.204967 141.235152 
L 395.24079 136.167334 
L 396.276613 140.718598 
L 397.312436 141.802579 
L 398.348259 135.756039 
L 399.384082 141.452981 
L 400.419905 138.195354 
L 401.455729 141.325089 
L 402.491552 138.244649 
L 403.527375 142.664002 
L 404.563198 144.312861 
L 405.599021 143.850008 
L 406.634844 134.19175 
L 407.670667 145.590554 
L 408.70649 143.583603 
L 409.742314 146.148982 
L 410.778137 146.537736 
L 411.81396 147.16177 
L 412.849783 147.33599 
L 413.885606 148.39735 
L 415.957252 149.459652 
L 416.993076 150.714319 
L 418.028899 150.491702 
L 419.064722 155.841787 
L 420.100545 152.367471 
L 421.136368 153.214633 
L 422.172191 153.159345 
L 423.208014 158.832271 
L 424.243838 156.737438 
L 426.315484 170.861634 
L 427.351307 155.607296 
L 428.38713 158.202746 
L 429.422953 158.281701 
L 430.458776 156.468839 
L 431.4946 155.132487 
L 432.530423 156.236178 
L 433.566246 156.522605 
L 434.602069 173.514396 
L 435.637892 166.672983 
L 436.673715 165.908361 
L 437.709538 162.520645 
L 438.745362 171.542462 
L 439.781185 159.070548 
L 440.817008 159.634538 
L 441.852831 155.925824 
L 442.888654 156.915281 
L 443.924477 160.542046 
L 444.9603 160.328099 
L 445.996124 160.377384 
L 447.031947 167.94371 
L 448.06777 169.723108 
L 449.103593 158.018494 
L 450.139416 163.539393 
L 451.175239 156.22781 
L 452.211062 156.469893 
L 453.246886 153.187854 
L 454.282709 166.628358 
L 455.318532 152.700684 
L 456.354355 153.723592 
L 457.390178 151.64437 
L 458.426001 151.690373 
L 459.461824 150.767237 
L 460.497648 150.850415 
L 461.533471 157.34079 
L 462.569294 152.860869 
L 463.605117 149.054102 
L 464.64094 148.533233 
L 466.712586 147.149189 
L 467.74841 146.944181 
L 468.784233 141.18945 
L 469.820056 139.127769 
L 470.855879 145.537407 
L 471.891702 141.313072 
L 472.927525 142.287902 
L 473.963348 135.686615 
L 474.999171 143.265175 
L 476.034995 140.855787 
L 477.070818 136.562657 
L 478.106641 134.139297 
L 479.142464 138.500299 
L 480.178287 131.495217 
L 481.21411 138.130984 
L 482.249933 139.145292 
L 483.285757 116.407911 
L 484.32158 131.917555 
L 485.357403 140.812858 
L 486.393226 130.160522 
L 487.429049 140.671998 
L 488.464872 136.728338 
L 489.500695 138.565319 
L 490.536519 138.801182 
L 491.572342 127.093664 
L 492.608165 122.188471 
L 493.643988 140.535145 
L 494.679811 135.772909 
L 495.715634 136.137651 
L 496.751457 138.556347 
L 497.787281 128.516443 
L 498.823104 128.944985 
L 499.858927 137.126587 
L 500.89475 141.66711 
L 501.930573 142.049338 
L 502.966396 134.830246 
L 504.002219 135.135922 
L 505.038043 139.429762 
L 506.073866 142.409297 
L 507.109689 143.920056 
L 508.145512 144.38351 
L 509.181335 144.300047 
L 510.217158 145.22403 
L 511.252981 145.632437 
L 512.288805 144.606919 
L 513.324628 145.167772 
L 514.360451 146.913548 
L 515.396274 146.873678 
L 517.46792 148.545807 
L 518.503743 149.002074 
L 519.539567 153.972512 
L 520.57539 151.151003 
L 521.611213 152.829694 
L 522.647036 152.905213 
L 523.682859 156.092172 
L 524.718682 154.616582 
L 525.754505 158.225517 
L 526.790329 171.482698 
L 527.826152 155.548681 
L 528.861975 166.619223 
L 529.897798 155.442802 
L 530.933621 157.863043 
L 531.969444 169.021023 
L 534.04109 157.005073 
L 535.076914 159.678909 
L 536.112737 166.451425 
L 537.14856 157.683847 
L 538.184383 156.514491 
L 539.220206 157.317098 
L 540.256029 156.00369 
L 541.291852 159.678352 
L 542.327676 157.384356 
L 543.363499 161.944389 
L 544.399322 171.01424 
L 545.435145 169.788844 
L 546.470968 160.682698 
L 547.506791 160.041488 
L 548.542614 158.383247 
L 549.578438 174.465119 
L 550.614261 157.414345 
L 551.650084 157.105095 
L 552.685907 158.02904 
L 553.72173 158.309297 
L 554.757553 153.769397 
L 555.793376 159.301537 
L 556.8292 154.11544 
L 557.865023 152.720767 
L 558.900846 152.539999 
L 559.936669 152.188807 
L 560.972492 152.41811 
L 562.008315 151.462422 
L 563.044138 154.22276 
L 564.079962 150.468446 
L 565.115785 151.590098 
L 567.187431 148.844662 
L 569.259077 147.681589 
L 570.2949 146.830535 
L 571.330724 143.898484 
L 572.366547 146.272632 
L 573.40237 143.683077 
L 574.438193 138.724751 
L 575.474016 144.248483 
L 576.509839 131.843675 
L 577.545662 139.194416 
L 578.581486 143.824388 
L 579.617309 131.832145 
L 580.653132 136.944157 
L 581.688955 131.316229 
L 582.724778 128.396221 
L 583.760601 141.824353 
L 584.796424 138.635249 
L 585.39952 140.012801 
L 585.39952 140.012801 
" style="fill:none;stroke:#6e3b87;stroke-linecap:square;stroke-width:3;"/>
   </g>
   <g id="line2d_43">
    <path clip-path="url(#p9c7b979b09)" d="M 51.606463 148.181984 
L 180.8254 148.181984 
L 180.8254 120.522361 
" style="fill:none;stroke:#6e3b87;stroke-linecap:square;stroke-opacity:0.5;stroke-width:3;"/>
   </g>
   <g id="legend_2">
    <g id="patch_5">
     <path d="M 61.406463 179.261659 
L 107.733852 179.261659 
Q 110.533852 179.261659 110.533852 176.461659 
L 110.533852 156.290674 
Q 110.533852 153.490674 107.733852 153.490674 
L 61.406463 153.490674 
Q 58.606463 153.490674 58.606463 156.290674 
L 58.606463 176.461659 
Q 58.606463 179.261659 61.406463 179.261659 
z
" style="fill:#ffffff;opacity:0.95;stroke:#cccccc;stroke-linejoin:miter;stroke-width:0.5;"/>
    </g>
    <g id="line2d_44">
     <path d="M 64.206463 164.828486 
L 78.206463 164.828486 
" style="fill:none;stroke:#6e3b87;stroke-linecap:square;stroke-width:3;"/>
    </g>
    <g id="line2d_45"/>
    <g id="text_15">
     <!-- $x_m$ -->
     <g style="fill:#6e3b87;" transform="translate(89.406463 169.728486)scale(0.14 -0.14)">
      <defs>
       <path d="M 4672 650 
L 4506 542 
C 4320 421 4179 351 4115 351 
C 4070 351 4032 408 4032 478 
C 4032 542 4045 600 4077 734 
L 4557 2631 
C 4582 2739 4602 2841 4602 2893 
C 4602 3002 4538 3072 4435 3072 
C 4250 3072 4006 2957 3616 2682 
C 3213 2394 2989 2171 2675 1730 
L 2867 2606 
C 2893 2733 2912 2829 2912 2874 
C 2912 2995 2848 3072 2746 3072 
C 2554 3072 2259 2932 1907 2663 
C 1626 2445 1498 2311 1082 1749 
L 1293 2599 
C 1318 2701 1331 2797 1331 2873 
C 1331 2995 1274 3072 1184 3072 
C 1050 3072 806 2938 333 2598 
L 154 2471 
L 198 2343 
L 403 2477 
C 640 2625 659 2637 704 2637 
C 774 2637 819 2574 819 2478 
C 819 2152 557 919 294 6 
L 314 -64 
L 749 31 
L 890 683 
C 1043 1392 1216 1769 1568 2152 
C 1837 2446 2125 2637 2304 2637 
C 2349 2637 2374 2586 2374 2504 
C 2374 2280 2234 1552 1971 434 
L 1869 6 
L 1901 -64 
L 2342 31 
L 2477 715 
C 2579 1232 2797 1711 3078 2025 
C 3430 2414 3750 2637 3955 2637 
C 4006 2637 4038 2580 4038 2478 
C 4038 2324 4019 2235 3878 1679 
C 3776 1277 3667 894 3603 677 
C 3546 497 3520 332 3520 192 
C 3520 31 3590 -64 3712 -64 
C 3878 -64 4109 69 4736 536 
z
" id="URWPalladioL-Ital-6d" transform="scale(0.015625)"/>
      </defs>
      <use transform="scale(0.996264)" xlink:href="#URWPalladioL-Ital-78"/>
      <use transform="translate(52.003975 -14.943915)scale(0.757155)" xlink:href="#URWPalladioL-Ital-6d"/>
     </g>
    </g>
   </g>
  </g>
  <g id="patch_6">
   <path d="M 158.485633 21.447715 
Q 244.288592 37.506633 284.407714 118.79206 
" style="fill:none;stroke:#dc2830;stroke-linecap:round;stroke-width:3;"/>
   <path d="M 162.049431 24.149445 
L 158.485633 21.447715 
L 162.785296 20.217715 
" style="fill:none;stroke:#dc2830;stroke-linecap:round;stroke-width:3;"/>
  </g>
 </g>
 <defs>
  <clipPath id="pa17eaeb5db">
   <rect height="81.100273" width="516.875747" x="51.606463" y="7.2"/>
  </clipPath>
  <clipPath id="p9c7b979b09">
   <rect height="81.100273" width="516.875747" x="51.606463" y="105.161386"/>
  </clipPath>
 </defs>
</svg>
