<?xml version="1.0" encoding="utf-8" standalone="no"?>
<!DOCTYPE svg PUBLIC "-//W3C//DTD SVG 1.1//EN"
  "http://www.w3.org/Graphics/SVG/1.1/DTD/svg11.dtd">
<svg height="152.39952pt" version="1.1" viewBox="0 0 584.39952 152.39952" width="584.39952pt" xmlns="http://www.w3.org/2000/svg" xmlns:xlink="http://www.w3.org/1999/xlink">
 <metadata>
  <rdf:RDF xmlns:cc="http://creativecommons.org/ns#" xmlns:dc="http://purl.org/dc/elements/1.1/" xmlns:rdf="http://www.w3.org/1999/02/22-rdf-syntax-ns#">
   <cc:Work>
    <dc:type rdf:resource="http://purl.org/dc/dcmitype/StillImage"/>
    <dc:date>2020-08-15T14:30:48.992666</dc:date>
    <dc:format>image/svg+xml</dc:format>
    <dc:creator>
     <cc:Agent>
      <dc:title>Matplotlib v3.3.0rc1.post717+g6a40954ae, https://matplotlib.org/</dc:title>
     </cc:Agent>
    </dc:creator>
   </cc:Work>
  </rdf:RDF>
 </metadata>
 <defs>
  <style type="text/css">*{stroke-linecap:butt;stroke-linejoin:round;}</style>
 </defs>
 <g id="figure_1">
  <g id="patch_1">
   <path d="M 0 152.39952 
L 584.39952 152.39952 
L 584.39952 0 
L 0 0 
z
" style="fill:none;"/>
  </g>
  <g id="axes_1">
   <g id="patch_2">
    <path d="M 15.91731 99.861659 
L 511.15718 99.861659 
L 511.15718 7.2 
L 15.91731 7.2 
z
" style="fill:none;"/>
   </g>
   <g id="matplotlib.axis_1">
    <g id="xtick_1">
     <g id="line2d_1">
      <path clip-path="url(#pe312d630f4)" d="M 15.91731 99.861659 
L 15.91731 7.2 
" style="fill:none;stroke:#000000;stroke-linecap:square;stroke-opacity:0.2;stroke-width:0.5;"/>
     </g>
     <g id="line2d_2">
      <defs>
       <path d="M 0 0 
L 0 3.5 
" id="m6fd3bbfc98" style="stroke:#000000;stroke-opacity:0.2;stroke-width:0.8;"/>
      </defs>
      <g>
       <use style="fill-opacity:0.2;stroke:#000000;stroke-opacity:0.2;stroke-width:0.8;" x="15.91731" xlink:href="#m6fd3bbfc98" y="99.861659"/>
      </g>
     </g>
     <g id="text_1">
      <!-- $\mathdefault{0.0}$ -->
      <g transform="translate(7.2 125.341188)scale(0.14 -0.14)">
       <defs>
        <path d="M 1683 4416 
C 691 4416 186 3628 186 2077 
C 186 1326 320 680 544 366 
C 768 51 1126 -128 1523 -128 
C 2490 -128 2976 705 2976 2346 
C 2976 3749 2560 4416 1683 4416 
z
M 1568 4192 
C 2189 4192 2438 3564 2438 2025 
C 2438 661 2195 96 1606 96 
C 986 96 723 744 723 2308 
C 723 3660 960 4192 1568 4192 
z
" id="URWPalladioL-Roma-30" transform="scale(0.015625)"/>
        <path d="M 794 744 
C 602 744 429 564 429 372 
C 429 179 602 0 787 0 
C 992 0 1171 173 1171 372 
C 1171 564 992 744 794 744 
z
" id="URWPalladioL-Roma-2e" transform="scale(0.015625)"/>
       </defs>
       <use transform="scale(0.996264)" xlink:href="#URWPalladioL-Roma-30"/>
       <use transform="translate(49.8132 0)scale(0.996264)" xlink:href="#URWPalladioL-Roma-2e"/>
       <use transform="translate(74.719801 0)scale(0.996264)" xlink:href="#URWPalladioL-Roma-30"/>
      </g>
     </g>
    </g>
    <g id="xtick_2">
     <g id="line2d_3">
      <path clip-path="url(#pe312d630f4)" d="M 139.727277 99.861659 
L 139.727277 7.2 
" style="fill:none;stroke:#000000;stroke-linecap:square;stroke-opacity:0.2;stroke-width:0.5;"/>
     </g>
     <g id="line2d_4">
      <g>
       <use style="fill-opacity:0.2;stroke:#000000;stroke-opacity:0.2;stroke-width:0.8;" x="139.727277" xlink:href="#m6fd3bbfc98" y="99.861659"/>
      </g>
     </g>
     <g id="text_2">
      <!-- $\mathdefault{0.5}$ -->
      <g transform="translate(131.009967 125.341188)scale(0.14 -0.14)">
       <defs>
        <path d="M 813 3877 
C 1638 3877 1997 3877 2765 3877 
L 2797 3907 
C 2784 4016 2784 4064 2784 4144 
C 2784 4229 2784 4277 2797 4386 
L 2765 4416 
C 2285 4416 1997 4416 1651 4416 
C 1299 4416 1018 4416 538 4416 
L 506 4403 
C 512 4011 518 3729 518 3523 
C 518 2977 499 2360 480 2077 
L 608 2038 
C 909 2341 1082 2432 1395 2432 
C 2010 2432 2394 1993 2394 1296 
C 2394 580 1984 160 1286 160 
C 941 160 621 277 531 444 
L 237 973 
L 83 883 
C 230 516 307 310 397 27 
C 576 -71 832 -128 1107 -128 
C 1536 -128 1990 59 2342 368 
C 2733 716 2938 1154 2938 1630 
C 2938 2359 2419 2874 1690 2874 
C 1382 2874 1152 2791 755 2554 
z
" id="URWPalladioL-Roma-35" transform="scale(0.015625)"/>
       </defs>
       <use transform="scale(0.996264)" xlink:href="#URWPalladioL-Roma-30"/>
       <use transform="translate(49.8132 0)scale(0.996264)" xlink:href="#URWPalladioL-Roma-2e"/>
       <use transform="translate(74.719801 0)scale(0.996264)" xlink:href="#URWPalladioL-Roma-35"/>
      </g>
     </g>
    </g>
    <g id="xtick_3">
     <g id="line2d_5">
      <path clip-path="url(#pe312d630f4)" d="M 263.537245 99.861659 
L 263.537245 7.2 
" style="fill:none;stroke:#000000;stroke-linecap:square;stroke-opacity:0.2;stroke-width:0.5;"/>
     </g>
     <g id="line2d_6">
      <g>
       <use style="fill-opacity:0.2;stroke:#000000;stroke-opacity:0.2;stroke-width:0.8;" x="263.537245" xlink:href="#m6fd3bbfc98" y="99.861659"/>
      </g>
     </g>
     <g id="text_3">
      <!-- $\mathdefault{1.0}$ -->
      <g transform="translate(254.819935 125.341188)scale(0.14 -0.14)">
       <defs>
        <path d="M 429 3584 
L 493 3584 
L 1318 3956 
C 1325 3962 1331 3962 1338 3962 
C 1376 3962 1389 3905 1389 3751 
L 1389 613 
C 1389 276 1318 205 973 205 
L 614 205 
L 614 0 
C 1600 0 1600 0 1670 0 
C 1754 0 1894 0 2112 0 
C 2189 0 2413 0 2675 0 
L 2675 205 
L 2342 205 
C 1990 205 1926 276 1926 612 
L 1926 4443 
L 1837 4475 
C 1421 4257 966 4065 384 3860 
z
" id="URWPalladioL-Roma-31" transform="scale(0.015625)"/>
       </defs>
       <use transform="scale(0.996264)" xlink:href="#URWPalladioL-Roma-31"/>
       <use transform="translate(49.8132 0)scale(0.996264)" xlink:href="#URWPalladioL-Roma-2e"/>
       <use transform="translate(74.719801 0)scale(0.996264)" xlink:href="#URWPalladioL-Roma-30"/>
      </g>
     </g>
    </g>
    <g id="xtick_4">
     <g id="line2d_7">
      <path clip-path="url(#pe312d630f4)" d="M 387.347212 99.861659 
L 387.347212 7.2 
" style="fill:none;stroke:#000000;stroke-linecap:square;stroke-opacity:0.2;stroke-width:0.5;"/>
     </g>
     <g id="line2d_8">
      <g>
       <use style="fill-opacity:0.2;stroke:#000000;stroke-opacity:0.2;stroke-width:0.8;" x="387.347212" xlink:href="#m6fd3bbfc98" y="99.861659"/>
      </g>
     </g>
     <g id="text_4">
      <!-- $\mathdefault{1.5}$ -->
      <g transform="translate(378.629902 125.341188)scale(0.14 -0.14)">
       <use transform="scale(0.996264)" xlink:href="#URWPalladioL-Roma-31"/>
       <use transform="translate(49.8132 0)scale(0.996264)" xlink:href="#URWPalladioL-Roma-2e"/>
       <use transform="translate(74.719801 0)scale(0.996264)" xlink:href="#URWPalladioL-Roma-35"/>
      </g>
     </g>
    </g>
    <g id="xtick_5">
     <g id="line2d_9">
      <path clip-path="url(#pe312d630f4)" d="M 511.15718 99.861659 
L 511.15718 7.2 
" style="fill:none;stroke:#000000;stroke-linecap:square;stroke-opacity:0.2;stroke-width:0.5;"/>
     </g>
     <g id="line2d_10">
      <g>
       <use style="fill-opacity:0.2;stroke:#000000;stroke-opacity:0.2;stroke-width:0.8;" x="511.15718" xlink:href="#m6fd3bbfc98" y="99.861659"/>
      </g>
     </g>
     <g id="text_5">
      <!-- $\mathdefault{2.0}$ -->
      <g transform="translate(502.43987 125.341188)scale(0.14 -0.14)">
       <defs>
        <path d="M 102 160 
L 102 0 
C 1299 0 1299 0 1530 0 
C 1760 0 1760 0 2995 0 
C 2982 125 2982 186 2982 269 
C 2982 348 2982 407 2995 539 
C 2259 539 1965 539 781 539 
L 1946 1761 
C 2566 2414 2758 2763 2758 3238 
C 2758 3966 2259 4416 1446 4416 
C 986 4416 672 4288 358 3969 
L 250 3099 
L 435 3099 
L 518 3393 
C 621 3763 851 3923 1280 3923 
C 1830 3923 2182 3577 2182 3035 
C 2182 2555 1914 2083 1190 1316 
z
" id="URWPalladioL-Roma-32" transform="scale(0.015625)"/>
       </defs>
       <use transform="scale(0.996264)" xlink:href="#URWPalladioL-Roma-32"/>
       <use transform="translate(49.8132 0)scale(0.996264)" xlink:href="#URWPalladioL-Roma-2e"/>
       <use transform="translate(74.719801 0)scale(0.996264)" xlink:href="#URWPalladioL-Roma-30"/>
      </g>
     </g>
    </g>
    <g id="text_6">
     <!-- Time [seconds] -->
     <g transform="translate(223.864393 141.828236)scale(0.12 -0.12)">
      <defs>
       <path d="M 1632 4114 
C 1651 3896 1658 3749 1658 3473 
L 1658 763 
C 1658 256 1626 205 1331 205 
L 1024 205 
L 1024 0 
C 1402 0 1626 0 1958 0 
C 2291 0 2522 0 2899 0 
L 2899 205 
L 2592 205 
C 2298 205 2266 256 2266 763 
L 2266 3473 
C 2266 3762 2272 3903 2291 4114 
L 3283 4114 
C 3462 4114 3533 4057 3539 3904 
L 3565 3400 
L 3763 3400 
C 3763 3810 3776 4056 3808 4416 
C 3347 4416 3136 4416 2957 4416 
C 2707 4416 2522 4416 2426 4416 
L 1414 4416 
C 1350 4416 1005 4416 550 4416 
L 115 4416 
C 147 4056 160 3810 160 3400 
L 358 3400 
L 384 3904 
C 390 4057 461 4114 640 4114 
z
" id="URWPalladioL-Roma-54" transform="scale(0.015625)"/>
       <path d="M 1203 2993 
L 1146 3019 
C 819 2884 486 2793 147 2755 
L 147 2576 
L 384 2576 
C 640 2576 666 2531 666 2105 
L 666 651 
C 666 244 646 199 429 199 
L 134 199 
L 134 0 
C 774 0 774 0 934 0 
C 1094 0 1094 0 1734 0 
L 1734 199 
L 1440 199 
C 1222 199 1203 244 1203 651 
z
M 909 4416 
C 717 4416 550 4249 550 4056 
C 550 3870 717 3704 902 3704 
C 1088 3704 1261 3870 1261 4056 
C 1261 4236 1088 4416 909 4416 
z
" id="URWPalladioL-Roma-69" transform="scale(0.015625)"/>
       <path d="M 115 2565 
L 352 2565 
C 608 2565 634 2520 634 2094 
L 634 643 
C 634 237 614 192 397 192 
L 102 192 
L 102 -7 
C 717 -7 736 -7 915 -7 
C 1094 -7 1261 -7 1677 -7 
L 1677 179 
L 1408 205 
C 1190 205 1171 250 1171 654 
L 1171 2014 
C 1171 2302 1594 2616 1978 2616 
C 2323 2616 2560 2287 2560 1798 
L 2560 643 
C 2560 237 2541 192 2323 192 
L 2029 192 
L 2029 -7 
C 2669 -7 2669 -7 2829 -7 
C 2989 -7 2989 -7 3629 -7 
L 3629 192 
L 3334 192 
C 3117 192 3098 237 3098 643 
L 3098 2011 
C 3098 2300 3520 2616 3904 2616 
C 4250 2616 4486 2291 4486 1806 
L 4486 -7 
C 4877 -7 4883 -7 4992 -7 
C 5075 -7 5075 -7 5562 -7 
L 5562 192 
L 5261 192 
C 5043 192 5024 237 5024 643 
L 5024 1970 
C 5024 2608 4653 3008 4064 3008 
C 3840 3008 3654 2950 3539 2847 
L 3053 2412 
C 2848 2834 2586 3008 2144 3008 
C 1907 3008 1728 2950 1613 2847 
L 1171 2437 
L 1171 2982 
L 1114 3008 
C 787 2873 454 2783 115 2745 
z
" id="URWPalladioL-Roma-6d" transform="scale(0.015625)"/>
       <path d="M 2797 447 
L 2714 511 
C 2304 269 2157 212 1882 212 
C 1466 212 1120 398 941 711 
C 819 921 774 1101 762 1472 
L 1696 1472 
C 2138 1472 2413 1472 2854 1544 
C 2861 1634 2867 1693 2867 1771 
C 2867 2520 2394 3008 1677 3008 
C 1440 3008 1165 2924 902 2770 
C 378 2469 166 2071 166 1404 
C 166 1000 262 654 435 410 
C 691 71 1120 -128 1600 -128 
C 1837 -128 2074 -77 2336 37 
C 2509 108 2643 191 2669 230 
z
M 2298 1690 
C 1965 1690 1811 1690 1581 1690 
C 1286 1690 1120 1690 774 1722 
C 774 2027 800 2169 883 2337 
C 1018 2622 1293 2796 1600 2796 
C 1811 2796 1978 2711 2093 2534 
C 2234 2319 2278 2129 2298 1690 
z
" id="URWPalladioL-Roma-65" transform="scale(0.015625)"/>
       <path d="M 563 -1152 
C 1018 -1152 1030 -1152 1184 -1152 
C 1338 -1152 1370 -1152 1805 -1152 
L 1843 -1120 
L 1843 -953 
L 1818 -921 
L 1574 -921 
C 1402 -921 1261 -882 1184 -818 
C 1126 -760 1107 -671 1107 -459 
C 1107 -453 1107 -318 1101 -125 
L 1101 112 
L 1101 3409 
L 1101 3646 
C 1107 3826 1107 3967 1107 3973 
C 1107 4185 1126 4281 1184 4339 
C 1261 4403 1402 4441 1574 4441 
L 1818 4441 
L 1843 4473 
L 1843 4640 
L 1805 4672 
C 1357 4672 1338 4672 1184 4672 
C 1037 4672 1005 4672 563 4672 
L 506 4595 
C 544 4435 557 4223 557 3730 
C 557 3633 557 3556 563 3492 
L 563 3409 
L 563 112 
L 563 28 
C 557 -74 557 -81 557 -190 
L 557 -260 
C 557 -696 544 -876 506 -1075 
z
" id="URWPalladioL-Roma-5b" transform="scale(0.015625)"/>
       <path d="M 262 917 
C 262 475 243 282 192 26 
C 525 -83 774 -128 1069 -128 
C 1907 -128 2502 321 2502 949 
C 2502 1148 2445 1295 2323 1424 
C 2157 1584 1946 1661 1382 1770 
C 858 1873 685 2001 685 2296 
C 685 2616 909 2796 1299 2796 
C 1728 2796 2054 2572 2054 2270 
L 2054 2123 
L 2234 2123 
C 2240 2495 2246 2648 2266 2847 
C 1926 2963 1696 3008 1434 3008 
C 691 3008 237 2655 237 2078 
C 237 1770 378 1552 672 1417 
C 845 1340 1184 1238 1619 1141 
C 1907 1077 2029 943 2029 699 
C 2029 353 1709 109 1254 109 
C 787 109 454 333 454 654 
L 454 917 
z
" id="URWPalladioL-Roma-73" transform="scale(0.015625)"/>
       <path d="M 2554 1994 
C 2554 2289 2586 2552 2643 2783 
C 2387 2937 2163 3008 1901 3008 
C 1594 3008 1235 2886 851 2642 
C 403 2360 166 1911 166 1347 
C 166 481 774 -128 1632 -128 
C 1965 -128 2445 -6 2509 90 
L 2643 295 
L 2579 391 
C 2342 263 2138 205 1907 205 
C 1197 205 730 757 730 1603 
C 730 2289 1050 2674 1626 2674 
C 1907 2674 2214 2546 2330 2386 
L 2374 1994 
z
" id="URWPalladioL-Roma-63" transform="scale(0.015625)"/>
       <path d="M 1786 3008 
C 851 3008 205 2347 205 1392 
C 205 487 774 -128 1600 -128 
C 2586 -128 3290 558 3290 1520 
C 3290 2386 2662 3008 1786 3008 
z
M 1670 2796 
C 2259 2796 2694 2155 2694 1283 
C 2694 545 2368 83 1850 83 
C 1222 83 800 699 800 1610 
C 800 2379 1107 2796 1670 2796 
z
" id="URWPalladioL-Roma-6f" transform="scale(0.015625)"/>
       <path d="M 2624 -7 
C 3014 -7 3021 -7 3130 -7 
C 3219 -7 3219 -7 3661 -7 
L 3661 179 
L 3398 205 
C 3181 205 3162 244 3162 654 
L 3162 1892 
C 3162 2642 2810 3008 2093 3008 
C 1856 3008 1722 2963 1587 2847 
L 1101 2424 
L 1101 2982 
L 1043 3008 
C 717 2873 384 2783 45 2745 
L 45 2565 
L 282 2565 
C 538 2565 563 2520 563 2094 
L 563 643 
C 563 237 544 192 326 192 
L 38 192 
L 38 -7 
C 474 -7 646 -7 832 -7 
C 1018 -7 1190 -7 1626 -7 
L 1626 192 
L 1338 192 
C 1120 192 1101 237 1101 643 
L 1101 2011 
C 1101 2300 1523 2616 1914 2616 
C 2342 2616 2624 2297 2624 1806 
z
" id="URWPalladioL-Roma-6e" transform="scale(0.015625)"/>
       <path d="M 2637 2802 
C 2278 2956 2099 3008 1875 3008 
C 1702 3008 1549 2969 1389 2887 
L 826 2593 
C 461 2401 224 1935 224 1392 
C 224 881 397 460 710 204 
C 928 19 1229 -64 1645 -64 
C 1773 -64 1920 -38 1952 -13 
L 2662 583 
L 2630 -7 
C 2944 -7 3046 -7 3123 -7 
C 3174 -7 3264 -7 3398 -7 
C 3443 -7 3571 -7 3706 -7 
L 3706 192 
L 3411 192 
C 3194 192 3174 237 3174 643 
L 3174 4607 
L 3117 4659 
C 2835 4550 2624 4498 2118 4421 
L 2118 4242 
L 2477 4242 
C 2592 4242 2637 4171 2637 3978 
z
M 2637 1424 
C 2637 1009 2624 946 2541 799 
C 2362 499 2048 302 1747 302 
C 1184 302 781 844 781 1603 
C 781 2298 1126 2706 1702 2706 
C 1946 2706 2202 2623 2426 2470 
C 2560 2381 2637 2298 2637 2246 
z
" id="URWPalladioL-Roma-64" transform="scale(0.015625)"/>
       <path d="M 1568 4672 
C 1114 4672 1094 4672 947 4672 
C 794 4672 762 4672 326 4672 
L 288 4640 
L 288 4473 
L 314 4441 
L 557 4441 
C 730 4441 864 4403 941 4339 
C 1005 4281 1024 4191 1024 3973 
C 1024 3954 1024 3826 1030 3646 
L 1030 3409 
L 1030 112 
L 1030 -125 
C 1024 -311 1024 -427 1024 -446 
C 1024 -664 1005 -760 941 -818 
C 864 -882 730 -921 557 -921 
L 314 -921 
L 288 -953 
L 288 -1120 
L 326 -1152 
C 774 -1152 787 -1152 947 -1152 
C 1094 -1152 1126 -1152 1568 -1152 
L 1626 -1075 
C 1587 -921 1581 -722 1574 -228 
C 1574 -138 1574 -55 1568 28 
L 1568 112 
L 1568 3409 
L 1568 3492 
C 1574 3563 1574 3646 1574 3736 
C 1574 4230 1587 4441 1626 4595 
z
" id="URWPalladioL-Roma-5d" transform="scale(0.015625)"/>
      </defs>
      <use transform="scale(0.996264)" xlink:href="#URWPalladioL-Roma-54"/>
      <use transform="translate(55.591109 0)scale(0.996264)" xlink:href="#URWPalladioL-Roma-69"/>
      <use transform="translate(84.581471 0)scale(0.996264)" xlink:href="#URWPalladioL-Roma-6d"/>
      <use transform="translate(172.551145 0)scale(0.996264)" xlink:href="#URWPalladioL-Roma-65"/>
      <use transform="translate(245.17804 0)scale(0.996264)" xlink:href="#URWPalladioL-Roma-5b"/>
      <use transform="translate(278.35327 0)scale(0.996264)" xlink:href="#URWPalladioL-Roma-73"/>
      <use transform="translate(320.594736 0)scale(0.996264)" xlink:href="#URWPalladioL-Roma-65"/>
      <use transform="translate(368.315031 0)scale(0.996264)" xlink:href="#URWPalladioL-Roma-63"/>
      <use transform="translate(412.5486 0)scale(0.996264)" xlink:href="#URWPalladioL-Roma-6f"/>
      <use transform="translate(466.94418 0)scale(0.996264)" xlink:href="#URWPalladioL-Roma-6e"/>
      <use transform="translate(524.926241 0)scale(0.996264)" xlink:href="#URWPalladioL-Roma-64"/>
      <use transform="translate(585.797872 0)scale(0.996264)" xlink:href="#URWPalladioL-Roma-73"/>
      <use transform="translate(628.039338 0)scale(0.996264)" xlink:href="#URWPalladioL-Roma-5d"/>
     </g>
    </g>
   </g>
   <g id="matplotlib.axis_2">
    <g id="ytick_1">
     <g id="line2d_11">
      <path clip-path="url(#pe312d630f4)" d="M 15.91731 53.531247 
L 511.15718 53.531247 
" style="fill:none;stroke:#000000;stroke-linecap:square;stroke-opacity:0.2;stroke-width:0.5;"/>
     </g>
     <g id="line2d_12">
      <defs>
       <path d="M 0 0 
L -3.5 0 
" id="m37fbf47463" style="stroke:#000000;stroke-opacity:0.2;stroke-width:0.8;"/>
      </defs>
      <g>
       <use style="fill-opacity:0.2;stroke:#000000;stroke-opacity:0.2;stroke-width:0.8;" x="15.91731" xlink:href="#m37fbf47463" y="53.531247"/>
      </g>
     </g>
    </g>
   </g>
   <g id="line2d_13">
    <path clip-path="url(#pe312d630f4)" d="M 15.91731 11.411894 
L 17.902239 11.625406 
L 19.887169 12.263778 
L 21.872098 13.320539 
L 23.857027 14.784973 
L 25.841957 16.642235 
L 27.826886 18.873493 
L 29.811815 21.456128 
L 31.796745 24.363954 
L 34.774139 29.27011 
L 37.751533 34.729114 
L 41.721391 42.651302 
L 47.676179 55.254397 
L 53.630967 67.701322 
L 56.608361 73.5103 
L 59.585755 78.864008 
L 62.56315 83.640449 
L 64.548079 86.44967 
L 66.533008 88.92515 
L 68.517938 91.04179 
L 70.502867 92.778132 
L 72.487796 94.116572 
L 74.472726 95.043539 
L 76.457655 95.549637 
L 78.442584 95.629733 
L 80.427514 95.283016 
L 82.412443 94.513001 
L 84.397372 93.327495 
L 86.382302 91.738516 
L 88.367231 89.762176 
L 90.35216 87.41851 
L 92.33709 84.73128 
L 94.322019 81.72773 
L 97.299413 76.696719 
L 100.276807 71.137828 
L 104.246666 63.12514 
L 118.141171 34.256044 
L 121.118565 28.838515 
L 124.095959 23.983669 
L 126.080888 21.114945 
L 128.065818 18.574871 
L 130.050747 16.389201 
L 132.035676 14.580093 
L 134.020606 13.165889 
L 136.005535 12.160927 
L 137.990464 11.575396 
L 139.975394 11.415232 
L 141.960323 11.682059 
L 143.945252 12.373172 
L 145.930182 13.481564 
L 147.915111 14.995997 
L 149.90004 16.901117 
L 151.88497 19.177611 
L 153.869899 21.802396 
L 155.854828 24.748863 
L 158.832222 29.705551 
L 161.809616 35.205165 
L 165.779475 43.1645 
L 172.726728 57.898754 
L 177.689051 68.199619 
L 180.666445 73.975591 
L 183.643839 79.285689 
L 186.621233 84.00891 
L 188.606162 86.777905 
L 190.591092 89.20983 
L 192.576021 91.28003 
L 194.56095 92.967515 
L 196.54588 94.255179 
L 198.530809 95.129964 
L 200.515738 95.583004 
L 202.500668 95.609704 
L 204.485597 95.209794 
L 206.470526 94.387329 
L 208.455456 93.150646 
L 210.440385 91.512284 
L 212.425314 89.488853 
L 214.410244 87.100869 
L 216.395173 84.37254 
L 218.380102 81.331529 
L 221.357496 76.251965 
L 224.33489 70.654656 
L 228.304749 62.607987 
L 241.20679 35.684122 
L 244.184184 30.14477 
L 247.161578 25.138335 
L 249.146507 22.153695 
L 251.131437 19.487174 
L 253.116366 17.165808 
L 255.101295 15.21313 
L 257.086225 13.648938 
L 259.071154 12.489091 
L 261.056083 11.745348 
L 263.041013 11.425249 
L 265.025942 11.532039 
L 267.010871 12.064635 
L 268.995801 13.017639 
L 270.98073 14.381388 
L 272.965659 16.142055 
L 274.950589 18.281791 
L 276.935518 20.778901 
L 278.920447 23.608069 
L 280.905377 26.740612 
L 283.882771 31.938018 
L 286.860165 37.627477 
L 290.830023 45.753507 
L 302.739599 70.654656 
L 305.716993 76.251965 
L 308.694387 81.331529 
L 310.679317 84.37254 
L 312.664246 87.100869 
L 314.649175 89.488853 
L 316.634105 91.512284 
L 318.619034 93.150646 
L 320.603963 94.387329 
L 322.588893 95.209794 
L 324.573822 95.609704 
L 326.558751 95.583004 
L 328.543681 95.129964 
L 330.52861 94.255179 
L 332.513539 92.967515 
L 334.498469 91.28003 
L 336.483398 89.20983 
L 338.468327 86.777905 
L 340.453257 84.00891 
L 342.438186 80.93092 
L 345.41558 75.803609 
L 348.392974 70.168769 
L 352.362833 62.089394 
L 365.264873 35.205165 
L 368.242267 29.705551 
L 371.219661 24.748863 
L 373.204591 21.802396 
L 375.18952 19.177611 
L 377.174449 16.901117 
L 379.159379 14.995997 
L 381.144308 13.481564 
L 383.129237 12.373172 
L 385.114167 11.682059 
L 387.099096 11.415232 
L 389.084025 11.575396 
L 391.068955 12.160927 
L 393.053884 13.165889 
L 395.038813 14.580093 
L 397.023743 16.389201 
L 399.008672 18.574871 
L 400.993601 21.114945 
L 402.978531 23.983669 
L 404.96346 27.15196 
L 407.940854 32.395067 
L 410.918248 38.119813 
L 414.888107 46.275337 
L 425.805218 69.189159 
L 428.782612 74.896374 
L 431.760006 80.116734 
L 433.744935 83.267213 
L 435.729865 86.116216 
L 437.714794 88.634858 
L 439.699724 90.797604 
L 441.684653 92.582527 
L 443.669582 93.971531 
L 445.654512 94.950533 
L 447.639441 95.509608 
L 449.62437 95.643087 
L 451.6093 95.349618 
L 453.594229 94.632176 
L 455.579158 93.498034 
L 457.564088 91.958692 
L 459.549017 90.029754 
L 461.533946 87.730779 
L 463.518876 85.085073 
L 465.503805 82.119461 
L 468.481199 77.137801 
L 471.458593 71.618208 
L 475.428452 63.640773 
L 482.375704 48.900084 
L 487.338028 38.614592 
L 490.315422 32.855468 
L 493.292816 27.567491 
L 496.27021 22.87116 
L 498.255139 20.122444 
L 500.240068 17.712442 
L 502.224998 15.665586 
L 504.209927 14.002629 
L 506.194856 12.740431 
L 508.179786 11.891789 
L 510.164715 11.465306 
L 511.15718 11.411894 
L 511.15718 11.411894 
" style="fill:none;stroke:#0271ae;stroke-linecap:square;stroke-width:3;"/>
   </g>
   <g id="line2d_14">
    <path clip-path="url(#pe312d630f4)" d="M 15.91731 25.732474 
L 16.909775 25.873392 
L 17.902239 26.294718 
L 18.894704 26.992179 
L 19.887169 27.958706 
L 20.879633 29.184499 
L 21.872098 30.657129 
L 23.857027 34.280833 
L 25.841957 38.683236 
L 27.826886 43.686255 
L 30.80428 51.869596 
L 34.774139 62.883496 
L 36.759068 67.93276 
L 38.743997 72.399468 
L 40.728927 76.102938 
L 41.721391 77.620262 
L 42.713856 78.89336 
L 43.706321 79.909327 
L 44.698785 80.65786 
L 45.69125 81.131372 
L 46.683715 81.325061 
L 47.676179 81.236965 
L 48.668644 80.867975 
L 49.661109 80.221834 
L 50.653573 79.305092 
L 51.646038 78.127043 
L 52.638503 76.69963 
L 53.630967 75.037327 
L 55.615897 71.077668 
L 57.600826 66.40824 
L 60.57822 58.492449 
L 66.533008 42.070123 
L 68.517938 37.234044 
L 70.502867 33.057203 
L 72.487796 29.708558 
L 73.480261 28.388607 
L 74.472726 27.323564 
L 75.46519 26.524225 
L 76.457655 25.998696 
L 77.45012 25.752305 
L 78.442584 25.787548 
L 79.435049 26.10407 
L 80.427514 26.69866 
L 81.419978 27.565291 
L 82.412443 28.695177 
L 83.404908 30.076861 
L 84.397372 31.696337 
L 86.382302 35.580741 
L 88.367231 40.191261 
L 91.344625 48.054344 
L 97.299413 64.512011 
L 99.284342 69.400216 
L 101.269272 73.646505 
L 103.254201 77.079112 
L 104.246666 78.445443 
L 105.23913 79.559184 
L 106.231595 80.409042 
L 107.22406 80.9864 
L 108.216524 81.285407 
L 109.208989 81.303029 
L 110.201454 81.039088 
L 111.193918 80.496261 
L 112.186383 79.68005 
L 113.178848 78.598731 
L 114.171312 77.263267 
L 115.163777 75.687197 
L 117.148706 71.879433 
L 119.133636 67.329466 
L 121.118565 62.221348 
L 125.088424 51.171389 
L 128.065818 43.034759 
L 130.050747 38.096172 
L 132.035676 33.78195 
L 134.020606 30.266606 
L 135.01307 28.85438 
L 136.005535 27.69234 
L 136.998 26.792266 
L 137.990464 26.163283 
L 138.982929 25.811769 
L 139.975394 25.741288 
L 140.967858 25.952554 
L 141.960323 26.443424 
L 142.952788 27.208923 
L 143.945252 28.24129 
L 144.937717 29.530057 
L 145.930182 31.062159 
L 147.915111 34.791925 
L 149.90004 39.279715 
L 151.88497 44.343994 
L 155.854828 55.367565 
L 158.832222 63.539714 
L 160.817152 68.526921 
L 162.802081 72.907538 
L 164.78701 76.504365 
L 165.779475 77.96198 
L 166.77194 79.171906 
L 167.764404 80.121875 
L 168.756869 80.802257 
L 169.749334 81.206153 
L 170.741798 81.329469 
L 171.734263 81.170954 
L 172.726728 80.732215 
L 173.719192 80.017701 
L 174.711657 79.034655 
L 175.704122 77.793044 
L 176.696586 76.305457 
L 178.681516 72.655019 
L 180.666445 68.231006 
L 182.651374 63.212373 
L 186.621233 52.219123 
L 189.598627 44.01437 
L 191.583556 38.980322 
L 193.568486 34.534873 
L 195.553415 30.857847 
L 196.54588 29.355361 
L 197.538344 28.097982 
L 198.530809 27.098456 
L 199.523274 26.366917 
L 200.515738 25.910783 
L 201.508203 25.734677 
L 202.500668 25.840385 
L 203.493132 26.226836 
L 204.485597 26.890111 
L 205.478062 27.823485 
L 206.470526 29.017496 
L 207.462991 30.460039 
L 209.44792 34.029846 
L 211.43285 38.388503 
L 213.417779 43.3597 
L 216.395173 51.520334 
L 220.365032 62.553137 
L 222.349961 67.632231 
L 224.33489 72.140926 
L 226.31982 75.89684 
L 227.312284 77.44366 
L 228.304749 78.748045 
L 229.297214 79.79677 
L 230.289678 80.579205 
L 231.282143 81.087414 
L 232.274608 81.316248 
L 233.267072 81.263384 
L 234.259537 80.92936 
L 235.252002 80.317561 
L 236.244466 79.434191 
L 237.236931 78.288205 
L 238.229396 76.891223 
L 239.22186 75.257406 
L 241.20679 71.347762 
L 243.191719 66.717422 
L 246.169113 58.836457 
L 252.123901 42.389919 
L 254.108831 37.518896 
L 256.09376 33.29559 
L 258.078689 29.890835 
L 259.071154 28.539911 
L 260.063619 27.442359 
L 261.056083 26.609309 
L 262.048548 26.049204 
L 263.041013 25.767726 
L 264.033477 25.767726 
L 265.025942 26.049204 
L 266.018407 26.609309 
L 267.010871 27.442359 
L 268.003336 28.539911 
L 268.995801 29.890835 
L 269.988265 31.481437 
L 271.973195 35.3149 
L 273.958124 39.885233 
L 275.943053 45.00756 
L 284.875235 69.111572 
L 286.860165 73.40332 
L 288.845094 76.891223 
L 289.837559 78.288205 
L 290.830023 79.434191 
L 291.822488 80.317561 
L 292.814953 80.92936 
L 293.807417 81.263384 
L 294.799882 81.316248 
L 295.792347 81.087414 
L 296.784811 80.579205 
L 297.777276 79.79677 
L 298.769741 78.748045 
L 299.762205 77.44366 
L 300.75467 75.89684 
L 302.739599 72.140926 
L 304.724529 67.632231 
L 306.709458 62.553137 
L 310.679317 51.520334 
L 313.656711 43.3597 
L 315.64164 38.388503 
L 317.626569 34.029846 
L 319.611499 30.460039 
L 320.603963 29.017496 
L 321.596428 27.823485 
L 322.588893 26.890111 
L 323.581357 26.226836 
L 324.573822 25.840385 
L 325.566287 25.734677 
L 326.558751 25.910783 
L 327.551216 26.366917 
L 328.543681 27.098456 
L 329.536145 28.097982 
L 330.52861 29.355361 
L 331.521075 30.857847 
L 333.506004 34.534873 
L 335.490933 38.980322 
L 337.475863 44.01437 
L 341.445721 55.018163 
L 344.423115 63.212373 
L 346.408045 68.231006 
L 348.392974 72.655019 
L 350.377903 76.305457 
L 351.370368 77.793044 
L 352.362833 79.034655 
L 353.355297 80.017701 
L 354.347762 80.732215 
L 355.340227 81.170954 
L 356.332691 81.329469 
L 357.325156 81.206153 
L 358.317621 80.802257 
L 359.310085 80.121875 
L 360.30255 79.171906 
L 361.295015 77.96198 
L 362.287479 76.504365 
L 364.272409 72.907538 
L 366.257338 68.526921 
L 368.242267 63.539714 
L 371.219661 55.367565 
L 375.18952 44.343994 
L 377.174449 39.279715 
L 379.159379 34.791925 
L 381.144308 31.062159 
L 382.136773 29.530057 
L 383.129237 28.24129 
L 384.121702 27.208923 
L 385.114167 26.443424 
L 386.106631 25.952554 
L 387.099096 25.741288 
L 388.091561 25.811769 
L 389.084025 26.163283 
L 390.07649 26.792266 
L 391.068955 27.69234 
L 392.061419 28.85438 
L 393.053884 30.266606 
L 394.046349 31.914699 
L 396.031278 35.849428 
L 398.016207 40.499404 
L 400.993601 48.397938 
L 406.948389 64.832697 
L 408.933319 69.686343 
L 410.918248 73.8865 
L 412.903177 77.263267 
L 413.895642 78.598731 
L 414.888107 79.68005 
L 415.880571 80.496261 
L 416.873036 81.039088 
L 417.865501 81.303029 
L 418.857965 81.285407 
L 419.85043 80.9864 
L 420.842895 80.409042 
L 421.835359 79.559184 
L 422.827824 78.445443 
L 423.820289 77.079112 
L 424.812753 75.474041 
L 426.797683 71.615031 
L 428.782612 67.024514 
L 430.767541 61.888181 
L 439.699724 37.806288 
L 441.684653 33.537185 
L 443.669582 30.076861 
L 444.662047 28.695177 
L 445.654512 27.565291 
L 446.646976 26.69866 
L 447.639441 26.10407 
L 448.631906 25.787548 
L 449.62437 25.752305 
L 450.616835 25.998696 
L 451.6093 26.524225 
L 452.601764 27.323564 
L 453.594229 28.388607 
L 454.586694 29.708558 
L 455.579158 31.270033 
L 457.564088 35.051948 
L 459.549017 39.581368 
L 461.533946 44.675075 
L 465.503805 55.716675 
L 468.481199 63.865469 
L 470.466128 68.820459 
L 472.451058 73.156985 
L 474.435987 76.69963 
L 475.428452 78.127043 
L 476.420916 79.305092 
L 477.413381 80.221834 
L 478.405846 80.867975 
L 479.39831 81.236965 
L 480.390775 81.325061 
L 481.38324 81.131372 
L 482.375704 80.65786 
L 483.368169 79.909327 
L 484.360634 78.89336 
L 485.353098 77.620262 
L 486.345563 76.102938 
L 488.330492 72.399468 
L 490.315422 67.93276 
L 492.300351 62.883496 
L 496.27021 51.869596 
L 499.247604 43.686255 
L 501.232533 38.683236 
L 503.217462 34.280833 
L 505.202392 30.657129 
L 506.194856 29.184499 
L 507.187321 27.958706 
L 508.179786 26.992179 
L 509.17225 26.294718 
L 510.164715 25.873392 
L 511.15718 25.732474 
L 511.15718 25.732474 
" style="fill:none;stroke:#dc2830;stroke-linecap:square;stroke-width:3;"/>
   </g>
   <g id="line2d_15">
    <path clip-path="url(#pe312d630f4)" d="M 15.91731 39.63186 
L 16.909775 39.790226 
L 17.902239 40.261713 
L 18.894704 41.035579 
L 19.887169 42.094188 
L 20.879633 43.413418 
L 22.864563 46.70824 
L 24.849492 50.621433 
L 28.819351 58.860416 
L 30.80428 62.439504 
L 31.796745 63.944009 
L 32.789209 65.211235 
L 33.781674 66.212303 
L 34.774139 66.924404 
L 35.766603 67.331309 
L 36.759068 67.423747 
L 37.751533 67.199611 
L 38.743997 66.664009 
L 39.736462 65.829145 
L 40.728927 64.714044 
L 41.721391 63.344116 
L 43.706321 59.969743 
L 45.69125 56.011848 
L 49.661109 47.800685 
L 51.646038 44.291597 
L 52.638503 42.833867 
L 53.630967 41.619902 
L 54.623432 40.677366 
L 55.615897 40.027736 
L 56.608361 39.685816 
L 57.600826 39.659397 
L 58.593291 39.949082 
L 59.585755 40.548269 
L 60.57822 41.443304 
L 61.570685 42.613792 
L 62.56315 44.03306 
L 64.548079 47.48364 
L 67.525473 53.575 
L 70.502867 59.657523 
L 72.487796 63.093133 
L 73.480261 64.502644 
L 74.472726 65.662145 
L 75.46519 66.545215 
L 76.457655 67.131731 
L 77.45012 67.408327 
L 78.442584 67.3687 
L 79.435049 67.013754 
L 80.427514 66.351576 
L 81.419978 65.397257 
L 82.412443 64.172542 
L 83.404908 62.70534 
L 85.389837 59.181972 
L 88.367231 53.050052 
L 91.344625 47.015325 
L 93.329554 43.656598 
L 94.322019 42.296703 
L 95.314484 41.192813 
L 96.306948 40.370085 
L 97.299413 39.847265 
L 98.291878 39.636267 
L 99.284342 39.7419 
L 100.276807 40.161756 
L 101.269272 40.886268 
L 102.261736 41.898926 
L 103.254201 43.176655 
L 105.23913 46.405481 
L 107.22406 50.280118 
L 112.186383 60.430356 
L 114.171312 63.708873 
L 115.163777 65.017806 
L 116.156242 66.064989 
L 117.148706 66.826561 
L 118.141171 67.285167 
L 119.133636 67.430358 
L 120.1261 67.258824 
L 121.118565 66.774474 
L 122.11103 65.988345 
L 123.103494 64.918352 
L 124.095959 63.588876 
L 126.080888 60.27788 
L 128.065818 56.355435 
L 132.035676 48.121364 
L 134.020606 44.555994 
L 135.01307 43.060726 
L 136.005535 41.804054 
L 136.998 40.814614 
L 137.990464 40.114953 
L 138.982929 39.721015 
L 139.975394 39.641776 
L 140.967858 39.879041 
L 141.960323 40.427405 
L 142.952788 41.274371 
L 143.945252 42.40064 
L 144.937717 43.780546 
L 146.922646 47.17043 
L 148.907576 51.136797 
L 152.877434 59.341418 
L 154.862364 62.836086 
L 155.854828 64.284287 
L 156.847293 65.487453 
L 157.839758 66.418169 
L 158.832222 67.055226 
L 159.824687 67.384106 
L 160.817152 67.397315 
L 161.809616 67.094553 
L 162.802081 66.482719 
L 163.794546 65.575754 
L 164.78701 64.394326 
L 165.779475 62.965357 
L 167.764404 59.499944 
L 170.741798 53.399987 
L 173.719192 47.326543 
L 175.704122 43.90604 
L 176.696586 42.506342 
L 177.689051 41.357873 
L 178.681516 40.486803 
L 179.67398 39.912982 
L 180.666445 39.649486 
L 181.65891 39.702319 
L 182.651374 40.070278 
L 183.643839 40.744976 
L 184.636304 41.711041 
L 185.628768 42.946457 
L 186.621233 44.423074 
L 188.606162 47.960583 
L 191.583556 54.099886 
L 194.56095 60.124334 
L 196.54588 63.467283 
L 197.538344 64.817092 
L 198.530809 65.909726 
L 199.523274 66.720287 
L 200.515738 67.230303 
L 201.508203 67.428154 
L 202.500668 67.309331 
L 203.493132 66.87654 
L 204.485597 66.139646 
L 205.478062 65.115438 
L 206.470526 63.827258 
L 208.455456 60.581739 
L 210.440385 56.697232 
L 215.402708 46.556307 
L 217.387638 43.294225 
L 218.380102 41.995643 
L 219.372567 40.959927 
L 220.365032 40.210679 
L 221.357496 39.764972 
L 222.349961 39.632962 
L 223.342426 39.817658 
L 224.33489 40.314851 
L 225.327355 41.113212 
L 226.31982 42.194547 
L 227.312284 43.534216 
L 229.297214 46.861254 
L 231.282143 50.792795 
L 235.252002 59.021629 
L 237.236931 62.573139 
L 238.229396 64.05911 
L 239.22186 65.305179 
L 240.214325 66.282951 
L 241.20679 66.970144 
L 242.199254 67.3511 
L 243.191719 67.417138 
L 244.184184 67.166752 
L 245.176648 66.605648 
L 246.169113 65.746613 
L 247.161578 64.609222 
L 248.154042 63.219392 
L 250.138972 59.814131 
L 252.123901 55.839451 
L 256.09376 47.641695 
L 258.078689 44.161586 
L 259.071154 42.722973 
L 260.063619 41.530652 
L 261.056083 40.611793 
L 262.048548 39.987335 
L 263.041013 39.671508 
L 264.033477 39.671508 
L 265.025942 39.987335 
L 266.018407 40.611793 
L 267.010871 41.530652 
L 268.003336 42.722973 
L 268.995801 44.161586 
L 270.98073 47.641695 
L 273.958124 53.750006 
L 276.935518 59.814131 
L 278.920447 63.219392 
L 279.912912 64.609222 
L 280.905377 65.746613 
L 281.897841 66.605648 
L 282.890306 67.166752 
L 283.882771 67.417138 
L 284.875235 67.3511 
L 285.8677 66.970144 
L 286.860165 66.282951 
L 287.852629 65.305179 
L 288.845094 64.05911 
L 289.837559 62.573139 
L 291.822488 59.021629 
L 294.799882 52.875185 
L 297.777276 46.861254 
L 299.762205 43.534216 
L 300.75467 42.194547 
L 301.747135 41.113212 
L 302.739599 40.314851 
L 303.732064 39.817658 
L 304.724529 39.632962 
L 305.716993 39.764972 
L 306.709458 40.210679 
L 307.701923 40.959927 
L 308.694387 41.995643 
L 309.686852 43.294225 
L 311.671781 46.556307 
L 313.656711 50.450531 
L 318.619034 60.581739 
L 320.603963 63.827258 
L 321.596428 65.115438 
L 322.588893 66.139646 
L 323.581357 66.87654 
L 324.573822 67.309331 
L 325.566287 67.428154 
L 326.558751 67.230303 
L 327.551216 66.720287 
L 328.543681 65.909726 
L 329.536145 64.817092 
L 330.52861 63.467283 
L 332.513539 60.124334 
L 334.498469 56.183852 
L 338.468327 47.960583 
L 340.453257 44.423074 
L 341.445721 42.946457 
L 342.438186 41.711041 
L 343.430651 40.744976 
L 344.423115 40.070278 
L 345.41558 39.702319 
L 346.408045 39.649486 
L 347.400509 39.912982 
L 348.392974 40.486803 
L 349.385439 41.357873 
L 350.377903 42.506342 
L 351.370368 43.90604 
L 353.355297 47.326543 
L 355.340227 51.30938 
L 359.310085 59.499944 
L 361.295015 62.965357 
L 362.287479 64.394326 
L 363.279944 65.575754 
L 364.272409 66.482719 
L 365.264873 67.094553 
L 366.257338 67.397315 
L 367.249803 67.384106 
L 368.242267 67.055226 
L 369.234732 66.418169 
L 370.227197 65.487453 
L 371.219661 64.284287 
L 372.212126 62.836086 
L 374.197055 59.341418 
L 377.174449 53.224995 
L 380.151843 47.17043 
L 382.136773 43.780546 
L 383.129237 42.40064 
L 384.121702 41.274371 
L 385.114167 40.427405 
L 386.106631 39.879041 
L 387.099096 39.641776 
L 388.091561 39.721015 
L 389.084025 40.114953 
L 390.07649 40.814614 
L 391.068955 41.804054 
L 392.061419 43.060726 
L 393.053884 44.555994 
L 395.038813 48.121364 
L 398.016207 54.274705 
L 400.993601 60.27788 
L 402.978531 63.588876 
L 403.970995 64.918352 
L 404.96346 65.988345 
L 405.955925 66.774474 
L 406.948389 67.258824 
L 407.940854 67.430358 
L 408.933319 67.285167 
L 409.925783 66.826561 
L 410.918248 66.064989 
L 411.910713 65.017806 
L 412.903177 63.708873 
L 414.888107 60.430356 
L 416.873036 56.526571 
L 420.842895 48.283003 
L 422.827824 44.690337 
L 423.820289 43.176655 
L 424.812753 41.898926 
L 425.805218 40.886268 
L 426.797683 40.161756 
L 427.790147 39.7419 
L 428.782612 39.636267 
L 429.775077 39.847265 
L 430.767541 40.370085 
L 431.760006 41.192813 
L 432.752471 42.296703 
L 433.744935 43.656598 
L 435.729865 47.015325 
L 437.714794 50.964593 
L 441.684653 59.181972 
L 443.669582 62.70534 
L 444.662047 64.172542 
L 445.654512 65.397257 
L 446.646976 66.351576 
L 447.639441 67.013754 
L 448.631906 67.3687 
L 449.62437 67.408327 
L 450.616835 67.131731 
L 451.6093 66.545215 
L 452.601764 65.662145 
L 453.594229 64.502644 
L 454.586694 63.093133 
L 456.571623 59.657523 
L 459.549017 53.575 
L 462.526411 47.48364 
L 464.51134 44.03306 
L 465.503805 42.613792 
L 466.49627 41.443304 
L 467.488734 40.548269 
L 468.481199 39.949082 
L 469.473664 39.659397 
L 470.466128 39.685816 
L 471.458593 40.027736 
L 472.451058 40.677366 
L 473.443522 41.619902 
L 474.435987 42.833867 
L 475.428452 44.291597 
L 477.413381 47.800685 
L 480.390775 53.924977 
L 483.368169 59.969743 
L 485.353098 63.344116 
L 486.345563 64.714044 
L 487.338028 65.829145 
L 488.330492 66.664009 
L 489.322957 67.199611 
L 490.315422 67.423747 
L 491.307886 67.331309 
L 492.300351 66.924404 
L 493.292816 66.212303 
L 494.28528 65.211235 
L 495.277745 63.944009 
L 496.27021 62.439504 
L 498.255139 58.860416 
L 501.232533 52.700422 
L 504.209927 46.70824 
L 506.194856 43.413418 
L 507.187321 42.094188 
L 508.179786 41.035579 
L 509.17225 40.261713 
L 510.164715 39.790226 
L 511.15718 39.63186 
L 511.15718 39.63186 
" style="fill:none;stroke:#ffc438;stroke-linecap:square;stroke-width:3;"/>
   </g>
   <g id="legend_1">
    <g id="patch_3">
     <path d="M 520.95718 83.112955 
L 574.39952 83.112955 
Q 577.19952 83.112955 577.19952 80.312955 
L 577.19952 17 
Q 577.19952 14.2 574.39952 14.2 
L 520.95718 14.2 
Q 518.15718 14.2 518.15718 17 
L 518.15718 80.312955 
Q 518.15718 83.112955 520.95718 83.112955 
z
" style="fill:#ffffff;opacity:0.95;stroke:#cccccc;stroke-linejoin:miter;stroke-width:0.5;"/>
    </g>
    <g id="line2d_16">
     <path d="M 523.75718 25.537812 
L 537.75718 25.537812 
" style="fill:none;stroke:#0271ae;stroke-linecap:square;stroke-width:3;"/>
    </g>
    <g id="line2d_17"/>
    <g id="text_7">
     <!-- $f$ -->
     <g style="fill:#0271ae;" transform="translate(548.95718 30.437812)scale(0.14 -0.14)">
      <defs>
       <path d="M 1830 2472 
C 1856 2593 1901 2740 1939 2829 
L 1914 2873 
L 1869 2861 
C 1715 2822 1645 2816 1331 2816 
L 1229 2816 
L 1363 3530 
C 1466 4078 1645 4320 1939 4320 
C 2131 4320 2304 4224 2400 4071 
L 2464 4096 
C 2496 4198 2560 4397 2611 4525 
L 2643 4621 
C 2541 4666 2342 4704 2195 4704 
C 2125 4704 2022 4685 1971 4660 
C 1818 4590 1293 4201 1146 4047 
C 1005 3907 928 3716 858 3352 
L 762 2848 
C 499 2720 371 2669 211 2612 
L 179 2472 
L 698 2472 
L 640 2115 
C 448 872 211 -313 70 -753 
C -45 -1129 -237 -1326 -467 -1326 
C -614 -1326 -685 -1282 -800 -1141 
L -890 -1166 
C -915 -1313 -1005 -1620 -1037 -1677 
C -979 -1709 -883 -1728 -813 -1728 
C -550 -1728 -205 -1530 45 -1231 
C 435 -772 576 -326 1043 1911 
C 1062 1988 1114 2230 1165 2472 
z
" id="URWPalladioL-Ital-66" transform="scale(0.015625)"/>
      </defs>
      <use transform="scale(0.996264)" xlink:href="#URWPalladioL-Ital-66"/>
     </g>
    </g>
    <g id="line2d_18">
     <path d="M 523.75718 47.108797 
L 537.75718 47.108797 
" style="fill:none;stroke:#dc2830;stroke-linecap:square;stroke-width:3;"/>
    </g>
    <g id="line2d_19"/>
    <g id="text_8">
     <!-- $2\cdot f$ -->
     <g style="fill:#dc2830;" transform="translate(548.95718 52.008797)scale(0.14 -0.14)">
      <defs>
       <path d="M 1229 1619 
C 1229 1805 1075 1958 890 1958 
C 704 1958 550 1805 550 1619 
C 550 1433 704 1280 890 1280 
C 1075 1280 1229 1433 1229 1619 
z
" id="CMSY10-1" transform="scale(0.015625)"/>
      </defs>
      <use transform="scale(0.996264)" xlink:href="#URWPalladioL-Roma-32"/>
      <use transform="translate(70.430253 0)scale(1.038107)" xlink:href="#CMSY10-1"/>
      <use transform="translate(134.036152 0)scale(0.996264)" xlink:href="#URWPalladioL-Ital-66"/>
     </g>
    </g>
    <g id="line2d_20">
     <path d="M 523.75718 68.679782 
L 537.75718 68.679782 
" style="fill:none;stroke:#ffc438;stroke-linecap:square;stroke-width:3;"/>
    </g>
    <g id="line2d_21"/>
    <g id="text_9">
     <!-- $3\cdot f$ -->
     <g style="fill:#ffc438;" transform="translate(548.95718 73.579782)scale(0.14 -0.14)">
      <defs>
       <path d="M 275 3197 
L 474 3197 
L 589 3554 
C 659 3770 1062 3987 1395 3987 
C 1811 3987 2150 3649 2150 3248 
C 2150 2770 1773 2368 1318 2368 
C 1267 2368 1197 2368 1114 2381 
L 1018 2381 
L 941 2047 
L 986 2008 
C 1229 2118 1350 2150 1523 2150 
C 2054 2150 2362 1809 2362 1222 
C 2362 566 1971 135 1376 135 
C 1082 135 819 231 627 411 
C 474 553 390 701 269 1049 
L 96 985 
C 230 593 282 361 320 39 
C 659 -77 941 -128 1178 -128 
C 1690 -128 2278 161 2630 593 
C 2848 857 2957 1140 2957 1442 
C 2957 1751 2829 2022 2598 2182 
C 2438 2298 2291 2350 1971 2407 
C 2483 2803 2675 3096 2675 3472 
C 2675 4040 2202 4416 1491 4416 
C 1056 4416 768 4295 461 3989 
z
" id="URWPalladioL-Roma-33" transform="scale(0.015625)"/>
      </defs>
      <use transform="scale(0.996264)" xlink:href="#URWPalladioL-Roma-33"/>
      <use transform="translate(70.430253 0)scale(1.038107)" xlink:href="#CMSY10-1"/>
      <use transform="translate(134.036152 0)scale(0.996264)" xlink:href="#URWPalladioL-Ital-66"/>
     </g>
    </g>
   </g>
  </g>
 </g>
 <defs>
  <clipPath id="pe312d630f4">
   <rect height="92.661659" width="495.23987" x="15.91731" y="7.2"/>
  </clipPath>
 </defs>
</svg>
