<?xml version="1.0" encoding="utf-8" standalone="no"?>
<!DOCTYPE svg PUBLIC "-//W3C//DTD SVG 1.1//EN"
  "http://www.w3.org/Graphics/SVG/1.1/DTD/svg11.dtd">
<svg height="238.79952pt" version="1.1" viewBox="0 0 584.39952 238.79952" width="584.39952pt" xmlns="http://www.w3.org/2000/svg" xmlns:xlink="http://www.w3.org/1999/xlink">
 <metadata>
  <rdf:RDF xmlns:cc="http://creativecommons.org/ns#" xmlns:dc="http://purl.org/dc/elements/1.1/" xmlns:rdf="http://www.w3.org/1999/02/22-rdf-syntax-ns#">
   <cc:Work>
    <dc:type rdf:resource="http://purl.org/dc/dcmitype/StillImage"/>
    <dc:date>2021-08-20T09:14:18.834435</dc:date>
    <dc:format>image/svg+xml</dc:format>
    <dc:creator>
     <cc:Agent>
      <dc:title>Matplotlib v3.4.2, https://matplotlib.org/</dc:title>
     </cc:Agent>
    </dc:creator>
   </cc:Work>
  </rdf:RDF>
 </metadata>
 <defs>
  <style type="text/css">*{stroke-linecap:butt;stroke-linejoin:round;}</style>
 </defs>
 <g id="figure_1">
  <g id="patch_1">
   <path d="M 0 238.79952 
L 584.39952 238.79952 
L 584.39952 0 
L 0 0 
z
" style="fill:none;"/>
  </g>
  <g id="axes_1">
   <g id="patch_2">
    <path d="M 51.606463 89.454875 
L 568.48221 89.454875 
L 568.48221 7.2 
L 51.606463 7.2 
z
" style="fill:none;"/>
   </g>
   <g id="line2d_1">
    <path clip-path="url(#p7021724cdb)" d="M 155.188777 89.454875 
L 155.188777 7.2 
" style="fill:none;stroke:#dc2830;stroke-linejoin:miter;stroke-opacity:0.25;stroke-width:3;"/>
   </g>
   <g id="matplotlib.axis_1">
    <g id="xtick_1">
     <g id="line2d_2">
      <path clip-path="url(#p7021724cdb)" d="M 51.606463 89.454875 
L 51.606463 7.2 
" style="fill:none;stroke:#000000;stroke-linejoin:miter;stroke-opacity:0.2;stroke-width:0.5;"/>
     </g>
     <g id="line2d_3">
      <defs>
       <path d="M 0 0 
L 0 3.5 
" id="mf073aadce4" style="stroke:#000000;stroke-opacity:0.2;stroke-width:0.8;"/>
      </defs>
      <g>
       <use style="fill-opacity:0.2;stroke:#000000;stroke-opacity:0.2;stroke-width:0.8;" x="51.606463" xlink:href="#mf073aadce4" y="89.454875"/>
      </g>
     </g>
    </g>
    <g id="xtick_2">
     <g id="line2d_4">
      <path clip-path="url(#p7021724cdb)" d="M 154.981612 89.454875 
L 154.981612 7.2 
" style="fill:none;stroke:#000000;stroke-linejoin:miter;stroke-opacity:0.2;stroke-width:0.5;"/>
     </g>
     <g id="line2d_5">
      <g>
       <use style="fill-opacity:0.2;stroke:#000000;stroke-opacity:0.2;stroke-width:0.8;" x="154.981612" xlink:href="#mf073aadce4" y="89.454875"/>
      </g>
     </g>
    </g>
    <g id="xtick_3">
     <g id="line2d_6">
      <path clip-path="url(#p7021724cdb)" d="M 258.356762 89.454875 
L 258.356762 7.2 
" style="fill:none;stroke:#000000;stroke-linejoin:miter;stroke-opacity:0.2;stroke-width:0.5;"/>
     </g>
     <g id="line2d_7">
      <g>
       <use style="fill-opacity:0.2;stroke:#000000;stroke-opacity:0.2;stroke-width:0.8;" x="258.356762" xlink:href="#mf073aadce4" y="89.454875"/>
      </g>
     </g>
    </g>
    <g id="xtick_4">
     <g id="line2d_8">
      <path clip-path="url(#p7021724cdb)" d="M 361.731911 89.454875 
L 361.731911 7.2 
" style="fill:none;stroke:#000000;stroke-linejoin:miter;stroke-opacity:0.2;stroke-width:0.5;"/>
     </g>
     <g id="line2d_9">
      <g>
       <use style="fill-opacity:0.2;stroke:#000000;stroke-opacity:0.2;stroke-width:0.8;" x="361.731911" xlink:href="#mf073aadce4" y="89.454875"/>
      </g>
     </g>
    </g>
    <g id="xtick_5">
     <g id="line2d_10">
      <path clip-path="url(#p7021724cdb)" d="M 465.10706 89.454875 
L 465.10706 7.2 
" style="fill:none;stroke:#000000;stroke-linejoin:miter;stroke-opacity:0.2;stroke-width:0.5;"/>
     </g>
     <g id="line2d_11">
      <g>
       <use style="fill-opacity:0.2;stroke:#000000;stroke-opacity:0.2;stroke-width:0.8;" x="465.10706" xlink:href="#mf073aadce4" y="89.454875"/>
      </g>
     </g>
    </g>
    <g id="xtick_6">
     <g id="line2d_12">
      <path clip-path="url(#p7021724cdb)" d="M 568.48221 89.454875 
L 568.48221 7.2 
" style="fill:none;stroke:#000000;stroke-linejoin:miter;stroke-opacity:0.2;stroke-width:0.5;"/>
     </g>
     <g id="line2d_13">
      <g>
       <use style="fill-opacity:0.2;stroke:#000000;stroke-opacity:0.2;stroke-width:0.8;" x="568.48221" xlink:href="#mf073aadce4" y="89.454875"/>
      </g>
     </g>
    </g>
   </g>
   <g id="matplotlib.axis_2">
    <g id="ytick_1">
     <g id="line2d_14">
      <path clip-path="url(#p7021724cdb)" d="M 51.606463 89.083335 
L 568.48221 89.083335 
" style="fill:none;stroke:#000000;stroke-linejoin:miter;stroke-opacity:0.2;stroke-width:0.5;"/>
     </g>
     <g id="line2d_15">
      <defs>
       <path d="M 0 0 
L -3.5 0 
" id="m884bd86c63" style="stroke:#000000;stroke-opacity:0.2;stroke-width:0.8;"/>
      </defs>
      <g>
       <use style="fill-opacity:0.2;stroke:#000000;stroke-opacity:0.2;stroke-width:0.8;" x="51.606463" xlink:href="#m884bd86c63" y="89.083335"/>
      </g>
     </g>
     <g id="text_1">
      <!-- $\mathdefault{−2.5}$ -->
      <g transform="translate(7.2 94.073099)scale(0.14 -0.14)">
       <defs>
        <path d="M 4218 1472 
C 4326 1472 4442 1472 4442 1600 
C 4442 1728 4326 1728 4218 1728 
L 755 1728 
C 646 1728 531 1728 531 1600 
C 531 1472 646 1472 755 1472 
L 4218 1472 
z
" id="CMSY10-0" transform="scale(0.015625)"/>
        <path d="M 102 166 
L 102 0 
C 1299 0 1299 0 1530 0 
C 1760 19 1760 19 2995 0 
C 2982 134 2982 198 2982 287 
C 2982 370 2982 434 2995 574 
C 2259 542 1965 536 781 510 
L 1946 1741 
C 2566 2398 2758 2749 2758 3228 
C 2758 3961 2259 4416 1446 4416 
C 986 4416 672 4287 358 3967 
L 250 3100 
L 435 3100 
L 518 3394 
C 621 3763 851 3923 1280 3923 
C 1830 3923 2182 3578 2182 3036 
C 2182 2558 1914 2086 1190 1320 
L 102 166 
z
" id="URWPalladioL-Roma-32" transform="scale(0.015625)"/>
        <path d="M 794 678 
C 602 678 429 499 429 307 
C 429 115 602 -64 787 -64 
C 992 -64 1171 108 1171 307 
C 1171 499 992 678 794 678 
z
" id="URWPalladioL-Roma-2e" transform="scale(0.015625)"/>
        <path d="M 813 3891 
C 1638 3865 1997 3859 2765 3859 
L 2797 3891 
C 2784 4006 2784 4057 2784 4140 
C 2784 4230 2784 4281 2797 4396 
L 2765 4428 
C 2285 4403 1997 4396 1651 4396 
C 1299 4396 1018 4403 538 4428 
L 506 4396 
C 512 4006 518 3724 518 3520 
C 518 2976 499 2360 480 2076 
L 608 2038 
C 909 2341 1082 2432 1395 2432 
C 2010 2432 2394 1992 2394 1295 
C 2394 579 1984 160 1286 160 
C 941 160 621 276 531 443 
L 237 973 
L 83 882 
C 230 514 307 308 397 25 
C 576 -71 832 -128 1107 -128 
C 1536 -128 1990 57 2342 366 
C 2733 715 2938 1153 2938 1631 
C 2938 2360 2419 2873 1690 2873 
C 1382 2873 1152 2790 755 2553 
L 813 3891 
z
" id="URWPalladioL-Roma-35" transform="scale(0.015625)"/>
       </defs>
       <use transform="scale(1.038107)" xlink:href="#CMSY10-0"/>
       <use transform="translate(81.941696 0)scale(0.996264)" xlink:href="#URWPalladioL-Roma-32"/>
       <use transform="translate(131.754897 0)scale(0.996264)" xlink:href="#URWPalladioL-Roma-2e"/>
       <use transform="translate(156.661497 0)scale(0.996264)" xlink:href="#URWPalladioL-Roma-35"/>
      </g>
     </g>
    </g>
    <g id="ytick_2">
     <g id="line2d_16">
      <path clip-path="url(#p7021724cdb)" d="M 51.606463 50.83307 
L 568.48221 50.83307 
" style="fill:none;stroke:#000000;stroke-linejoin:miter;stroke-opacity:0.2;stroke-width:0.5;"/>
     </g>
     <g id="line2d_17">
      <g>
       <use style="fill-opacity:0.2;stroke:#000000;stroke-opacity:0.2;stroke-width:0.8;" x="51.606463" xlink:href="#m884bd86c63" y="50.83307"/>
      </g>
     </g>
     <g id="text_2">
      <!-- $\mathdefault{0.0}$ -->
      <g transform="translate(18.671843 55.822835)scale(0.14 -0.14)">
       <defs>
        <path d="M 1683 4416 
C 691 4416 186 3628 186 2076 
C 186 1326 320 679 544 365 
C 768 51 1126 -128 1523 -128 
C 2490 -128 2976 704 2976 2345 
C 2976 3749 2560 4416 1683 4416 
z
M 1568 4191 
C 2189 4191 2438 3563 2438 2025 
C 2438 660 2195 96 1606 96 
C 986 96 723 743 723 2307 
C 723 3660 960 4191 1568 4191 
z
" id="URWPalladioL-Roma-30" transform="scale(0.015625)"/>
       </defs>
       <use transform="scale(0.996264)" xlink:href="#URWPalladioL-Roma-30"/>
       <use transform="translate(49.8132 0)scale(0.996264)" xlink:href="#URWPalladioL-Roma-2e"/>
       <use transform="translate(74.719801 0)scale(0.996264)" xlink:href="#URWPalladioL-Roma-30"/>
      </g>
     </g>
    </g>
    <g id="ytick_3">
     <g id="line2d_18">
      <path clip-path="url(#p7021724cdb)" d="M 51.606463 12.582805 
L 568.48221 12.582805 
" style="fill:none;stroke:#000000;stroke-linejoin:miter;stroke-opacity:0.2;stroke-width:0.5;"/>
     </g>
     <g id="line2d_19">
      <g>
       <use style="fill-opacity:0.2;stroke:#000000;stroke-opacity:0.2;stroke-width:0.8;" x="51.606463" xlink:href="#m884bd86c63" y="12.582805"/>
      </g>
     </g>
     <g id="text_3">
      <!-- $\mathdefault{2.5}$ -->
      <g transform="translate(18.671843 17.57257)scale(0.14 -0.14)">
       <use transform="scale(0.996264)" xlink:href="#URWPalladioL-Roma-32"/>
       <use transform="translate(49.8132 0)scale(0.996264)" xlink:href="#URWPalladioL-Roma-2e"/>
       <use transform="translate(74.719801 0)scale(0.996264)" xlink:href="#URWPalladioL-Roma-35"/>
      </g>
     </g>
    </g>
   </g>
   <g id="line2d_20">
    <path clip-path="url(#p7021724cdb)" d="M 51.606463 22.779665 
L 52.642286 41.054132 
L 53.678109 34.150497 
L 54.713932 16.328793 
L 55.749755 22.18591 
L 56.785579 34.862577 
L 57.821402 35.564616 
L 58.857225 43.603897 
L 59.893048 43.991716 
L 60.928871 42.48112 
L 61.964694 44.398236 
L 63.000517 32.724521 
L 64.036341 40.691385 
L 65.072164 45.45282 
L 66.107987 44.326433 
L 67.14381 45.441205 
L 68.179633 37.957638 
L 69.215456 46.864971 
L 70.251279 47.008543 
L 71.287102 45.292512 
L 72.322926 38.628608 
L 73.358749 47.734087 
L 74.394572 48.011647 
L 75.430395 49.156386 
L 76.466218 48.707492 
L 77.502041 50.90714 
L 79.573688 51.884408 
L 80.609511 55.540772 
L 81.645334 56.822733 
L 82.681157 53.336733 
L 83.71698 54.398785 
L 84.752803 57.527464 
L 85.788626 66.004935 
L 86.82445 55.860509 
L 87.860273 55.572902 
L 88.896096 63.855544 
L 89.931919 64.539334 
L 90.967742 57.918844 
L 92.003565 57.749047 
L 93.039388 65.264636 
L 94.075212 70.344698 
L 96.146858 78.783099 
L 97.182681 61.011823 
L 98.218504 60.523858 
L 99.254327 70.852192 
L 100.29015 64.741213 
L 101.325974 76.499031 
L 102.361797 59.133451 
L 103.39762 66.524585 
L 104.433443 60.482812 
L 105.469266 61.673959 
L 106.505089 70.077574 
L 107.540912 58.241415 
L 108.576736 60.391589 
L 109.612559 57.988365 
L 110.648382 58.895539 
L 111.684205 61.618487 
L 112.720028 58.775157 
L 113.755851 61.14834 
L 114.791674 58.047008 
L 115.827498 61.401316 
L 116.863321 69.49706 
L 117.899144 55.95674 
L 118.934967 56.536357 
L 119.97079 64.628726 
L 121.006613 55.7776 
L 122.042436 57.458684 
L 123.07826 53.602163 
L 124.114083 54.899381 
L 125.149906 52.729354 
L 126.185729 54.230684 
L 127.221552 53.201754 
L 128.257375 51.358289 
L 129.293198 50.710557 
L 130.329021 49.721711 
L 131.364845 49.253794 
L 133.436491 48.844539 
L 134.472314 44.652901 
L 135.508137 44.880967 
L 136.54396 46.284582 
L 137.579783 38.699221 
L 138.615607 37.748106 
L 139.65143 32.941291 
L 140.687253 38.182677 
L 141.723076 45.202914 
L 142.758899 37.516431 
L 143.794722 36.94881 
L 144.830545 42.817681 
L 145.866369 33.648314 
L 146.902192 43.525168 
L 147.938015 35.560984 
L 148.973838 42.058172 
L 150.009661 38.189591 
L 151.045484 43.399264 
L 152.081307 22.898086 
L 153.117131 42.991055 
L 154.152954 41.029627 
L 155.188777 21.024731 
L 156.2246 28.901649 
L 157.260423 30.143399 
L 158.296246 34.482053 
L 159.332069 32.000014 
L 160.367893 21.758078 
L 161.403716 41.651526 
L 162.439539 38.463661 
L 163.475362 24.395374 
L 164.511185 30.8238 
L 165.547008 27.145293 
L 166.582831 38.775524 
L 167.618655 39.874292 
L 168.654478 30.469075 
L 169.690301 45.396985 
L 170.726124 42.500535 
L 171.761947 42.254887 
L 172.79777 47.078396 
L 173.833593 45.837763 
L 174.869417 45.148831 
L 175.90524 48.011964 
L 176.941063 46.510786 
L 177.976886 49.298559 
L 179.012709 48.448417 
L 180.048532 50.215018 
L 182.120179 51.630357 
L 183.156002 54.971091 
L 184.191825 53.437753 
L 185.227648 53.442213 
L 186.263471 55.391561 
L 187.299294 55.146994 
L 188.335117 56.494226 
L 189.370941 54.637943 
L 190.406764 57.639861 
L 191.442587 58.573722 
L 192.47841 58.429159 
L 193.514233 56.609518 
L 194.550056 58.061927 
L 195.585879 65.206259 
L 196.621702 70.548159 
L 197.657526 59.527423 
L 198.693349 57.967844 
L 199.729172 62.115403 
L 200.764995 85.716017 
L 201.800818 66.473128 
L 202.836641 66.327176 
L 204.908288 72.24775 
L 205.944111 61.234459 
L 206.979934 58.552668 
L 208.015757 78.049426 
L 209.05158 64.414061 
L 210.087403 65.293931 
L 211.123226 58.346043 
L 212.15905 62.843082 
L 213.194873 68.227932 
L 214.230696 67.151786 
L 215.266519 67.428121 
L 216.302342 59.307716 
L 217.338165 59.438839 
L 218.373988 73.932617 
L 219.409812 62.569204 
L 220.445635 56.032259 
L 221.481458 63.415925 
L 222.517281 59.403826 
L 223.553104 59.696601 
L 224.588927 62.340601 
L 225.62475 58.850626 
L 226.660574 53.987416 
L 227.696397 55.459785 
L 228.73222 52.899517 
L 229.768043 53.353679 
L 230.803866 52.135406 
L 231.839689 51.552132 
L 233.911336 49.603992 
L 234.947159 48.912021 
L 235.982982 48.666542 
L 237.018805 48.762806 
L 238.054628 47.735291 
L 239.090451 42.120558 
L 240.126274 45.266549 
L 241.162098 33.335804 
L 242.197921 44.031995 
L 243.233744 35.260324 
L 244.269567 38.67852 
L 245.30539 45.437275 
L 246.341213 40.657745 
L 247.377036 31.340375 
L 248.41286 33.381642 
L 249.448683 43.400725 
L 250.484506 44.02122 
L 251.520329 33.04691 
L 252.556152 40.440696 
L 253.591975 43.08209 
L 254.627798 37.122959 
L 255.663621 36.289831 
L 256.699445 17.034939 
L 258.771091 41.326663 
L 259.806914 42.384402 
L 260.842737 32.561206 
L 261.87856 38.509937 
L 262.914383 38.879176 
L 263.950207 26.419831 
L 264.98603 43.787339 
L 266.021853 38.647371 
L 267.057676 43.26343 
L 268.093499 44.362843 
L 269.129322 38.23022 
L 270.165145 44.008269 
L 271.200969 40.704264 
L 272.236792 43.878555 
L 273.272615 40.75426 
L 274.308438 45.23653 
L 275.344261 46.908864 
L 276.380084 46.439422 
L 277.415907 36.643661 
L 278.451731 48.204747 
L 279.487554 46.169224 
L 280.523377 48.771125 
L 281.5592 49.165414 
L 282.595023 49.798332 
L 283.630846 49.975033 
L 284.666669 51.051502 
L 286.738316 52.128928 
L 287.774139 53.401458 
L 288.809962 53.175671 
L 289.845785 58.601924 
L 290.881608 55.078145 
L 291.917431 55.937368 
L 292.953255 55.881293 
L 293.989078 61.634983 
L 295.024901 59.510326 
L 297.096547 73.835605 
L 298.13237 58.364094 
L 299.168193 60.996495 
L 300.204017 61.076574 
L 301.23984 59.237903 
L 302.275663 57.882526 
L 303.311486 59.001929 
L 304.347309 59.292435 
L 305.383132 76.526133 
L 306.418955 69.587321 
L 307.454779 68.811813 
L 308.490602 65.375867 
L 309.526425 74.526125 
L 310.562248 61.876652 
L 311.598071 62.448671 
L 312.633894 58.687157 
L 313.669717 59.690701 
L 314.705541 63.369099 
L 315.741364 63.152106 
L 316.777187 63.202093 
L 317.81301 70.876138 
L 318.848833 72.68087 
L 319.884656 60.80962 
L 320.920479 66.409119 
L 321.956302 58.993443 
L 322.992126 59.238972 
L 324.027949 55.910208 
L 325.063772 69.54206 
L 326.099595 55.416101 
L 327.135418 56.453573 
L 328.171241 54.34475 
L 329.207064 54.391407 
L 330.242888 53.455129 
L 331.278711 53.539492 
L 332.314534 60.122268 
L 333.350357 55.578568 
L 334.38618 51.717604 
L 335.422003 51.18932 
L 337.49365 49.785572 
L 338.529473 49.577645 
L 339.565296 43.740986 
L 340.601119 41.649953 
L 341.636942 48.150843 
L 342.672765 43.866368 
L 343.708588 44.855076 
L 344.744412 38.159809 
L 345.780235 45.846263 
L 346.816058 43.402572 
L 347.851881 39.048323 
L 348.887704 36.590462 
L 349.923527 41.01355 
L 350.95935 33.908738 
L 351.995174 40.638977 
L 353.030997 41.667725 
L 354.06682 18.606639 
L 355.102643 34.33709 
L 356.138466 43.359032 
L 357.174289 32.555042 
L 358.210112 43.216167 
L 359.245936 39.216362 
L 360.281759 41.079496 
L 361.317582 41.318716 
L 362.353405 29.444522 
L 363.389228 24.469495 
L 364.425051 43.077366 
L 365.460874 38.247331 
L 366.496698 38.617266 
L 367.532521 41.070396 
L 368.568344 30.887557 
L 369.604167 31.3222 
L 370.63999 39.620281 
L 371.675813 44.225446 
L 372.711636 44.613116 
L 373.74746 37.291248 
L 374.783283 37.601275 
L 375.819106 41.956245 
L 376.854929 44.9782 
L 377.890752 46.510466 
L 378.926575 46.980518 
L 379.962398 46.895867 
L 380.998221 47.833005 
L 382.034045 48.247226 
L 383.069868 47.207109 
L 384.105691 47.775946 
L 385.141514 49.546576 
L 386.177337 49.506138 
L 388.248983 51.202073 
L 389.284807 51.664836 
L 390.32063 56.706036 
L 391.356453 53.844358 
L 392.392276 55.546949 
L 393.428099 55.623543 
L 394.463922 58.855873 
L 395.499745 57.359276 
L 396.535569 61.019591 
L 397.571392 74.46551 
L 398.607215 58.304645 
L 399.643038 69.532795 
L 400.678861 58.197259 
L 401.714684 60.651956 
L 402.750507 71.968789 
L 404.822154 59.781771 
L 405.857977 62.493674 
L 406.8938 69.362608 
L 407.929623 60.470209 
L 408.965446 59.284205 
L 410.001269 60.098239 
L 411.037093 58.766132 
L 412.072916 62.493108 
L 413.108739 60.166454 
L 414.144562 64.791407 
L 415.180385 73.990382 
L 416.216208 72.747541 
L 417.252031 63.511753 
L 418.287855 62.861415 
L 419.323678 61.179566 
L 420.359501 77.490391 
L 421.395324 60.19687 
L 422.431147 59.883218 
L 423.46697 60.820317 
L 424.502793 61.104563 
L 425.538617 56.50003 
L 426.57444 62.110929 
L 427.610263 56.850999 
L 428.646086 55.436471 
L 429.681909 55.253129 
L 430.717732 54.896937 
L 431.753555 55.129505 
L 432.789379 54.160211 
L 433.825202 56.959848 
L 434.861025 53.152084 
L 435.896848 54.289704 
L 437.968494 51.505183 
L 440.04014 50.325551 
L 441.075964 49.462381 
L 442.111787 46.488587 
L 443.14761 48.896535 
L 444.183433 46.270114 
L 445.219256 41.241197 
L 446.255079 46.84357 
L 447.290902 34.262157 
L 448.326726 41.717549 
L 449.362549 46.413437 
L 450.398372 34.250463 
L 451.434195 39.435254 
L 452.470018 33.727202 
L 453.505841 30.765623 
L 454.541664 44.384928 
L 455.577488 41.150421 
L 456.613311 43.550064 
L 457.649134 42.410898 
L 458.684957 26.892036 
L 459.72078 42.445716 
L 460.756603 37.379533 
L 461.792426 35.947468 
L 462.82825 31.954157 
L 463.864073 27.19366 
L 464.899896 35.712339 
L 465.935719 38.914253 
L 466.971542 32.244191 
L 469.043188 41.706991 
L 470.079012 23.987859 
L 471.114835 42.065504 
L 472.150658 37.529827 
L 473.186481 44.040349 
L 474.222304 43.896095 
L 475.258127 38.979205 
L 476.29395 32.623844 
L 477.329774 40.199386 
L 478.365597 44.604829 
L 479.40142 45.38122 
L 480.437243 34.376614 
L 481.473066 43.768278 
L 482.508889 46.157692 
L 483.544712 47.372798 
L 484.580536 41.588953 
L 485.616359 42.104091 
L 486.652182 46.661706 
L 487.688005 48.519641 
L 488.723828 46.386852 
L 489.759651 50.262989 
L 491.831298 51.249422 
L 492.867121 52.730907 
L 493.902944 58.437557 
L 494.938767 53.615623 
L 495.97459 53.446525 
L 497.010413 54.601268 
L 498.046236 60.442851 
L 499.08206 58.109054 
L 500.117883 55.457154 
L 501.153706 60.545024 
L 502.189529 56.539158 
L 503.225352 60.820905 
L 504.261175 56.368977 
L 505.296998 61.889343 
L 506.332821 57.062882 
L 507.368645 59.027417 
L 508.404468 67.693584 
L 509.440291 57.832625 
L 510.476114 58.442559 
L 511.511937 65.474726 
L 512.54776 58.423151 
L 513.583583 61.004563 
L 514.619407 67.311517 
L 515.65523 65.008421 
L 516.691053 58.667193 
L 517.726876 68.661943 
L 518.762699 65.425754 
L 519.798522 61.087308 
L 520.834345 59.331457 
L 521.870169 59.638557 
L 522.905992 80.51508 
L 523.941815 60.346361 
L 524.977638 81.18838 
L 526.013461 57.809127 
L 527.049284 57.076393 
L 528.085107 59.350763 
L 529.120931 63.147043 
L 530.156754 57.837762 
L 531.192577 56.048564 
L 532.2284 57.248763 
L 533.264223 71.167254 
L 534.300046 58.874903 
L 535.335869 56.993081 
L 536.371693 64.157389 
L 537.407516 53.509989 
L 538.443339 58.850185 
L 539.479162 52.980775 
L 540.514985 51.957406 
L 541.550808 51.710515 
L 542.586631 50.920213 
L 543.622455 49.815153 
L 544.658278 48.18989 
L 545.694101 47.967555 
L 546.729924 46.184617 
L 547.765747 47.529036 
L 548.80157 45.686695 
L 549.837393 43.413576 
L 550.873217 43.217539 
L 551.90904 45.47394 
L 552.944863 41.889915 
L 553.980686 24.534874 
L 555.016509 34.169418 
L 556.052332 42.528714 
L 557.088155 44.920817 
L 558.123979 44.075099 
L 559.159802 36.053712 
L 560.195625 42.655019 
L 561.231448 34.108724 
L 562.267271 31.051178 
L 563.303094 10.938858 
L 564.338917 43.343779 
L 565.37474 38.407055 
L 566.410564 39.946065 
L 567.446387 33.514073 
L 568.48221 43.090833 
L 568.48221 43.090833 
" style="fill:none;stroke:#0271ae;stroke-linejoin:miter;stroke-width:3;"/>
   </g>
   <g id="legend_1">
    <g id="patch_3">
     <path d="M 61.406463 82.454875 
L 103.610384 82.454875 
Q 106.410384 82.454875 106.410384 79.654875 
L 106.410384 60.142173 
Q 106.410384 57.342173 103.610384 57.342173 
L 61.406463 57.342173 
Q 58.606463 57.342173 58.606463 60.142173 
L 58.606463 79.654875 
Q 58.606463 82.454875 61.406463 82.454875 
z
" style="fill:#ffffff;opacity:0.95;stroke:#cccccc;stroke-linejoin:miter;stroke-width:0.5;"/>
    </g>
    <g id="line2d_21">
     <path d="M 64.206463 68.021702 
L 78.206463 68.021702 
" style="fill:none;stroke:#0271ae;stroke-linejoin:miter;stroke-width:3;"/>
    </g>
    <g id="line2d_22"/>
    <g id="text_4">
     <!-- $x_s$ -->
     <g style="fill:#0271ae;" transform="translate(89.406463 72.921702)scale(0.14 -0.14)">
      <defs>
       <path d="M 134 567 
C 134 440 122 358 83 153 
C 70 76 64 57 58 12 
C 154 -39 256 -64 333 -64 
C 544 -64 794 121 992 421 
L 1478 1164 
L 1549 726 
C 1632 185 1779 -64 2010 -64 
C 2150 -64 2355 44 2560 230 
L 2874 510 
L 2816 631 
C 2586 440 2426 345 2323 345 
C 2227 345 2144 409 2080 536 
C 2022 656 1952 891 1920 1075 
L 1805 1716 
L 2029 2027 
C 2330 2439 2502 2585 2701 2585 
C 2803 2585 2880 2534 2912 2439 
L 3002 2465 
L 3098 3007 
C 3021 3052 2963 3072 2906 3072 
C 2650 3072 2394 2841 1997 2255 
L 1760 1906 
L 1722 2211 
C 1645 2841 1472 3072 1094 3072 
C 928 3072 787 3020 730 2937 
L 358 2408 
L 467 2344 
C 659 2560 787 2649 909 2649 
C 1120 2649 1261 2389 1370 1767 
L 1440 1373 
L 1184 980 
C 909 555 691 352 512 352 
C 416 352 346 377 333 409 
L 262 586 
L 134 567 
z
" id="URWPalladioL-Ital-78" transform="scale(0.015625)"/>
       <path d="M 198 948 
C 166 624 128 401 58 108 
C 301 -7 518 -64 742 -64 
C 1056 -64 1350 51 1677 306 
C 2003 560 2138 795 2138 1113 
C 2138 1456 1933 1640 1459 1729 
L 1184 1780 
C 800 1850 678 1958 678 2218 
C 678 2555 966 2815 1331 2815 
C 1594 2815 1837 2701 1939 2530 
L 1939 2180 
L 2086 2180 
C 2112 2403 2138 2574 2208 2899 
C 1958 3020 1779 3072 1568 3072 
C 1235 3072 845 2879 538 2574 
C 371 2403 301 2244 301 2015 
C 301 1659 499 1456 922 1373 
L 1325 1297 
C 1606 1246 1709 1132 1709 884 
C 1709 471 1414 192 960 192 
C 736 192 538 261 358 414 
L 358 948 
L 198 948 
z
" id="URWPalladioL-Ital-73" transform="scale(0.015625)"/>
      </defs>
      <use transform="scale(0.996264)" xlink:href="#URWPalladioL-Ital-78"/>
      <use transform="translate(52.003975 -14.943915)scale(0.757155)" xlink:href="#URWPalladioL-Ital-73"/>
     </g>
    </g>
   </g>
  </g>
  <g id="axes_2">
   <g id="patch_4">
    <path d="M 51.606463 186.261659 
L 568.48221 186.261659 
L 568.48221 104.006784 
L 51.606463 104.006784 
z
" style="fill:none;"/>
   </g>
   <g id="line2d_23">
    <path clip-path="url(#p8c516a86ea)" d="M 361.939076 186.261659 
L 361.939076 104.006784 
" style="fill:none;stroke:#dc2830;stroke-linejoin:miter;stroke-opacity:0.25;stroke-width:3;"/>
   </g>
   <g id="matplotlib.axis_3">
    <g id="xtick_7">
     <g id="line2d_24">
      <path clip-path="url(#p8c516a86ea)" d="M 51.606463 186.261659 
L 51.606463 104.006784 
" style="fill:none;stroke:#000000;stroke-linejoin:miter;stroke-opacity:0.2;stroke-width:0.5;"/>
     </g>
     <g id="line2d_25">
      <g>
       <use style="fill-opacity:0.2;stroke:#000000;stroke-opacity:0.2;stroke-width:0.8;" x="51.606463" xlink:href="#mf073aadce4" y="186.261659"/>
      </g>
     </g>
     <g id="text_5">
      <!-- $\mathdefault{0.0}$ -->
      <g transform="translate(42.889153 211.741188)scale(0.14 -0.14)">
       <use transform="scale(0.996264)" xlink:href="#URWPalladioL-Roma-30"/>
       <use transform="translate(49.8132 0)scale(0.996264)" xlink:href="#URWPalladioL-Roma-2e"/>
       <use transform="translate(74.719801 0)scale(0.996264)" xlink:href="#URWPalladioL-Roma-30"/>
      </g>
     </g>
    </g>
    <g id="xtick_8">
     <g id="line2d_26">
      <path clip-path="url(#p8c516a86ea)" d="M 154.981612 186.261659 
L 154.981612 104.006784 
" style="fill:none;stroke:#000000;stroke-linejoin:miter;stroke-opacity:0.2;stroke-width:0.5;"/>
     </g>
     <g id="line2d_27">
      <g>
       <use style="fill-opacity:0.2;stroke:#000000;stroke-opacity:0.2;stroke-width:0.8;" x="154.981612" xlink:href="#mf073aadce4" y="186.261659"/>
      </g>
     </g>
     <g id="text_6">
      <!-- $\mathdefault{0.2}$ -->
      <g transform="translate(146.264302 211.741188)scale(0.14 -0.14)">
       <use transform="scale(0.996264)" xlink:href="#URWPalladioL-Roma-30"/>
       <use transform="translate(49.8132 0)scale(0.996264)" xlink:href="#URWPalladioL-Roma-2e"/>
       <use transform="translate(74.719801 0)scale(0.996264)" xlink:href="#URWPalladioL-Roma-32"/>
      </g>
     </g>
    </g>
    <g id="xtick_9">
     <g id="line2d_28">
      <path clip-path="url(#p8c516a86ea)" d="M 258.356762 186.261659 
L 258.356762 104.006784 
" style="fill:none;stroke:#000000;stroke-linejoin:miter;stroke-opacity:0.2;stroke-width:0.5;"/>
     </g>
     <g id="line2d_29">
      <g>
       <use style="fill-opacity:0.2;stroke:#000000;stroke-opacity:0.2;stroke-width:0.8;" x="258.356762" xlink:href="#mf073aadce4" y="186.261659"/>
      </g>
     </g>
     <g id="text_7">
      <!-- $\mathdefault{0.4}$ -->
      <g transform="translate(249.639452 211.741188)scale(0.14 -0.14)">
       <defs>
        <path d="M 1792 1152 
L 1792 684 
C 1792 310 1722 223 1408 210 
L 1011 192 
L 1011 0 
C 1862 0 1862 0 2016 0 
C 2170 19 2170 19 3021 0 
L 3021 192 
L 2714 210 
C 2400 229 2330 310 2330 684 
L 2330 1152 
C 2707 1152 2842 1145 3021 1127 
L 3021 1580 
C 2720 1555 2598 1555 2502 1561 
L 2483 1561 
L 2330 1561 
L 2330 2445 
C 2330 3576 2342 4122 2374 4383 
L 2298 4416 
L 1824 4243 
L 13 1299 
L 83 1152 
L 1792 1152 
z
M 1792 1561 
L 416 1561 
L 1792 3798 
L 1792 1561 
z
" id="URWPalladioL-Roma-34" transform="scale(0.015625)"/>
       </defs>
       <use transform="scale(0.996264)" xlink:href="#URWPalladioL-Roma-30"/>
       <use transform="translate(49.8132 0)scale(0.996264)" xlink:href="#URWPalladioL-Roma-2e"/>
       <use transform="translate(74.719801 0)scale(0.996264)" xlink:href="#URWPalladioL-Roma-34"/>
      </g>
     </g>
    </g>
    <g id="xtick_10">
     <g id="line2d_30">
      <path clip-path="url(#p8c516a86ea)" d="M 361.731911 186.261659 
L 361.731911 104.006784 
" style="fill:none;stroke:#000000;stroke-linejoin:miter;stroke-opacity:0.2;stroke-width:0.5;"/>
     </g>
     <g id="line2d_31">
      <g>
       <use style="fill-opacity:0.2;stroke:#000000;stroke-opacity:0.2;stroke-width:0.8;" x="361.731911" xlink:href="#mf073aadce4" y="186.261659"/>
      </g>
     </g>
     <g id="text_8">
      <!-- $\mathdefault{0.6}$ -->
      <g transform="translate(353.014601 211.741188)scale(0.14 -0.14)">
       <defs>
        <path d="M 2662 4287 
L 2426 4396 
C 1811 4193 1549 4066 1222 3788 
C 563 3237 205 2463 205 1585 
C 205 526 717 -128 1542 -128 
C 2374 -128 2995 532 2995 1405 
C 2995 2143 2554 2624 1875 2624 
C 1555 2624 1363 2540 986 2239 
C 915 2182 909 2175 838 2124 
C 973 3275 1510 3895 2662 4237 
L 2662 4287 
z
M 1632 2239 
C 2118 2239 2445 1816 2445 1180 
C 2445 513 2118 83 1626 83 
C 1082 83 787 551 787 1411 
C 787 1636 813 1758 883 1867 
C 1024 2085 1325 2239 1632 2239 
z
" id="URWPalladioL-Roma-36" transform="scale(0.015625)"/>
       </defs>
       <use transform="scale(0.996264)" xlink:href="#URWPalladioL-Roma-30"/>
       <use transform="translate(49.8132 0)scale(0.996264)" xlink:href="#URWPalladioL-Roma-2e"/>
       <use transform="translate(74.719801 0)scale(0.996264)" xlink:href="#URWPalladioL-Roma-36"/>
      </g>
     </g>
    </g>
    <g id="xtick_11">
     <g id="line2d_32">
      <path clip-path="url(#p8c516a86ea)" d="M 465.10706 186.261659 
L 465.10706 104.006784 
" style="fill:none;stroke:#000000;stroke-linejoin:miter;stroke-opacity:0.2;stroke-width:0.5;"/>
     </g>
     <g id="line2d_33">
      <g>
       <use style="fill-opacity:0.2;stroke:#000000;stroke-opacity:0.2;stroke-width:0.8;" x="465.10706" xlink:href="#mf073aadce4" y="186.261659"/>
      </g>
     </g>
     <g id="text_9">
      <!-- $\mathdefault{0.8}$ -->
      <g transform="translate(456.38975 211.741188)scale(0.14 -0.14)">
       <defs>
        <path d="M 1075 2211 
C 813 2089 704 2019 563 1884 
C 320 1640 192 1352 192 1019 
C 192 358 723 -128 1446 -128 
C 2278 -128 2970 525 2970 1320 
C 2970 1833 2733 2108 2003 2442 
C 2586 2839 2790 3108 2790 3493 
C 2790 4044 2336 4416 1658 4416 
C 896 4416 339 3929 339 3256 
C 339 2820 512 2576 1075 2211 
z
M 1818 1890 
C 2221 1711 2464 1397 2464 1051 
C 2464 512 2061 89 1542 89 
C 998 89 646 474 646 1070 
C 646 1538 832 1833 1306 2121 
L 1818 1890 
z
M 1427 2711 
C 1024 2910 819 3166 819 3486 
C 819 3910 1126 4198 1581 4198 
C 2048 4198 2355 3890 2355 3422 
C 2355 3057 2195 2807 1779 2538 
L 1427 2711 
z
" id="URWPalladioL-Roma-38" transform="scale(0.015625)"/>
       </defs>
       <use transform="scale(0.996264)" xlink:href="#URWPalladioL-Roma-30"/>
       <use transform="translate(49.8132 0)scale(0.996264)" xlink:href="#URWPalladioL-Roma-2e"/>
       <use transform="translate(74.719801 0)scale(0.996264)" xlink:href="#URWPalladioL-Roma-38"/>
      </g>
     </g>
    </g>
    <g id="xtick_12">
     <g id="line2d_34">
      <path clip-path="url(#p8c516a86ea)" d="M 568.48221 186.261659 
L 568.48221 104.006784 
" style="fill:none;stroke:#000000;stroke-linejoin:miter;stroke-opacity:0.2;stroke-width:0.5;"/>
     </g>
     <g id="line2d_35">
      <g>
       <use style="fill-opacity:0.2;stroke:#000000;stroke-opacity:0.2;stroke-width:0.8;" x="568.48221" xlink:href="#mf073aadce4" y="186.261659"/>
      </g>
     </g>
     <g id="text_10">
      <!-- $\mathdefault{1.0}$ -->
      <g transform="translate(559.7649 211.741188)scale(0.14 -0.14)">
       <defs>
        <path d="M 429 3571 
L 493 3571 
L 1318 3942 
C 1325 3949 1331 3949 1338 3949 
C 1376 3949 1389 3891 1389 3737 
L 1389 633 
C 1389 300 1318 230 973 211 
L 614 192 
L 614 0 
C 1600 0 1600 0 1670 0 
C 1754 0 1894 0 2112 -7 
C 2189 6 2413 6 2675 0 
L 2675 192 
L 2342 211 
C 1990 229 1926 299 1926 628 
L 1926 4383 
L 1837 4416 
C 1421 4199 966 4009 384 3807 
L 429 3571 
z
" id="URWPalladioL-Roma-31" transform="scale(0.015625)"/>
       </defs>
       <use transform="scale(0.996264)" xlink:href="#URWPalladioL-Roma-31"/>
       <use transform="translate(49.8132 0)scale(0.996264)" xlink:href="#URWPalladioL-Roma-2e"/>
       <use transform="translate(74.719801 0)scale(0.996264)" xlink:href="#URWPalladioL-Roma-30"/>
      </g>
     </g>
    </g>
    <g id="text_11">
     <!-- Time [seconds] -->
     <g transform="translate(270.371485 228.228236)scale(0.12 -0.12)">
      <defs>
       <path d="M 1632 4096 
C 1651 3880 1658 3734 1658 3462 
L 1658 781 
C 1658 280 1626 230 1331 211 
L 1024 192 
L 1024 0 
C 1402 -7 1626 0 1958 0 
C 2291 19 2522 12 2899 0 
L 2899 192 
L 2592 211 
C 2298 230 2266 280 2266 781 
L 2266 3462 
C 2266 3747 2272 3887 2291 4096 
L 3283 4096 
C 3462 4096 3533 4039 3539 3887 
L 3565 3386 
L 3763 3386 
C 3763 3801 3776 4051 3808 4416 
C 3347 4409 3136 4409 2957 4403 
C 2707 4390 2522 4390 2426 4390 
L 1414 4390 
C 1350 4390 1005 4396 550 4403 
L 115 4416 
C 147 4051 160 3801 160 3385 
L 358 3385 
L 384 3891 
C 390 4038 461 4096 640 4096 
L 1632 4096 
z
" id="URWPalladioL-Roma-54" transform="scale(0.015625)"/>
       <path d="M 1203 2982 
L 1146 3008 
C 819 2873 486 2784 147 2746 
L 147 2568 
L 384 2568 
C 640 2568 666 2523 666 2103 
L 666 669 
C 666 268 646 223 429 211 
L 134 192 
L 134 0 
C 774 0 774 0 934 0 
C 1094 19 1094 19 1734 0 
L 1734 192 
L 1440 211 
C 1222 224 1203 268 1203 671 
L 1203 2982 
z
M 909 4416 
C 717 4416 550 4249 550 4057 
C 550 3871 717 3705 902 3705 
C 1088 3705 1261 3871 1261 4057 
C 1261 4236 1088 4416 909 4416 
z
" id="URWPalladioL-Roma-69" transform="scale(0.015625)"/>
       <path d="M 115 2579 
L 352 2579 
C 608 2579 634 2534 634 2112 
L 634 672 
C 634 268 614 224 397 211 
L 102 192 
L 102 0 
C 717 0 736 0 915 0 
C 1094 19 1261 12 1677 0 
L 1677 192 
L 1408 211 
C 1190 223 1171 268 1171 670 
L 1171 2023 
C 1171 2311 1594 2624 1978 2624 
C 2323 2624 2560 2298 2560 1813 
L 2560 670 
C 2560 268 2541 223 2323 211 
L 2029 192 
L 2029 0 
C 2669 0 2669 0 2829 0 
C 2989 19 2989 19 3629 0 
L 3629 192 
L 3334 211 
C 3117 223 3098 268 3098 670 
L 3098 2023 
C 3098 2311 3520 2624 3904 2624 
C 4250 2624 4486 2298 4486 1813 
L 4486 0 
C 4877 0 4883 0 4992 0 
C 5075 19 5075 19 5562 0 
L 5562 192 
L 5261 211 
C 5043 223 5024 268 5024 670 
L 5024 1985 
C 5024 2617 4653 3014 4064 3014 
C 3840 3014 3654 2956 3539 2854 
L 3053 2419 
C 2848 2841 2586 3014 2144 3014 
C 1907 3014 1728 2956 1613 2854 
L 1171 2445 
L 1171 2988 
L 1114 3008 
C 787 2873 454 2783 115 2745 
L 115 2579 
z
" id="URWPalladioL-Roma-6d" transform="scale(0.015625)"/>
       <path d="M 2797 447 
L 2714 511 
C 2304 268 2157 211 1882 211 
C 1466 211 1120 396 941 710 
C 819 921 774 1100 762 1472 
L 1696 1472 
C 2138 1472 2413 1491 2854 1561 
C 2861 1651 2867 1708 2867 1786 
C 2867 2526 2394 3008 1677 3008 
C 1440 3008 1165 2924 902 2771 
C 378 2468 166 2069 166 1401 
C 166 998 262 652 435 409 
C 691 70 1120 -128 1600 -128 
C 1837 -128 2074 -77 2336 38 
C 2509 108 2643 192 2669 230 
L 2797 447 
z
M 2298 1708 
C 1965 1696 1811 1689 1581 1689 
C 1286 1689 1120 1696 774 1728 
C 774 2030 800 2172 883 2339 
C 1018 2623 1293 2796 1600 2796 
C 1811 2796 1978 2713 2093 2539 
C 2234 2326 2278 2140 2298 1708 
z
" id="URWPalladioL-Roma-65" transform="scale(0.015625)"/>
       <path d="M 563 -1178 
C 1018 -1166 1030 -1166 1184 -1166 
C 1338 -1166 1370 -1166 1805 -1178 
L 1843 -1140 
L 1843 -974 
L 1818 -942 
L 1574 -942 
C 1402 -942 1261 -903 1184 -839 
C 1126 -782 1107 -692 1107 -481 
C 1107 -474 1107 -340 1101 -148 
L 1101 89 
L 1101 3379 
L 1101 3615 
C 1107 3795 1107 3935 1107 3942 
C 1107 4153 1126 4249 1184 4307 
C 1261 4371 1402 4409 1574 4409 
L 1818 4409 
L 1843 4441 
L 1843 4608 
L 1805 4646 
C 1357 4633 1338 4633 1184 4633 
C 1037 4633 1005 4633 563 4646 
L 506 4563 
C 544 4403 557 4191 557 3699 
C 557 3603 557 3526 563 3462 
L 563 3379 
L 563 89 
L 563 6 
C 557 -97 557 -103 557 -212 
L 557 -282 
C 557 -718 544 -897 506 -1095 
L 563 -1178 
z
" id="URWPalladioL-Roma-5b" transform="scale(0.015625)"/>
       <path d="M 262 917 
C 262 474 243 282 192 25 
C 525 -84 774 -128 1069 -128 
C 1907 -128 2502 320 2502 949 
C 2502 1148 2445 1295 2323 1423 
C 2157 1584 1946 1661 1382 1770 
C 858 1872 685 2001 685 2296 
C 685 2617 909 2796 1299 2796 
C 1728 2796 2054 2572 2054 2270 
L 2054 2123 
L 2234 2123 
C 2240 2495 2246 2649 2266 2847 
C 1926 2963 1696 3008 1434 3008 
C 691 3008 237 2655 237 2078 
C 237 1770 378 1552 672 1417 
C 845 1340 1184 1237 1619 1141 
C 1907 1077 2029 942 2029 698 
C 2029 352 1709 108 1254 108 
C 787 108 454 333 454 654 
L 454 917 
L 262 917 
z
" id="URWPalladioL-Roma-73" transform="scale(0.015625)"/>
       <path d="M 2554 1995 
C 2554 2290 2586 2553 2643 2783 
C 2387 2937 2163 3008 1901 3008 
C 1594 3008 1235 2886 851 2643 
C 403 2360 166 1911 166 1347 
C 166 480 774 -128 1632 -128 
C 1965 -128 2445 -7 2509 89 
L 2643 294 
L 2579 390 
C 2342 262 2138 204 1907 204 
C 1197 204 730 756 730 1603 
C 730 2290 1050 2675 1626 2675 
C 1907 2675 2214 2547 2330 2386 
L 2374 1995 
L 2554 1995 
z
" id="URWPalladioL-Roma-63" transform="scale(0.015625)"/>
       <path d="M 1786 3008 
C 851 3008 205 2347 205 1391 
C 205 487 774 -128 1600 -128 
C 2586 -128 3290 557 3290 1520 
C 3290 2386 2662 3008 1786 3008 
z
M 1670 2796 
C 2259 2796 2694 2155 2694 1282 
C 2694 545 2368 83 1850 83 
C 1222 83 800 699 800 1609 
C 800 2379 1107 2796 1670 2796 
z
" id="URWPalladioL-Roma-6f" transform="scale(0.015625)"/>
       <path d="M 2624 0 
C 3014 0 3021 0 3130 0 
C 3219 19 3219 19 3661 0 
L 3661 192 
L 3398 211 
C 3181 223 3162 262 3162 670 
L 3162 1902 
C 3162 2649 2810 3014 2093 3014 
C 1856 3014 1722 2969 1587 2854 
L 1101 2432 
L 1101 2988 
L 1043 3008 
C 717 2873 384 2784 45 2746 
L 45 2568 
L 282 2568 
C 538 2568 563 2523 563 2103 
L 563 669 
C 563 268 544 223 326 211 
L 38 192 
L 38 0 
C 474 -7 646 0 832 0 
C 1018 19 1190 12 1626 0 
L 1626 192 
L 1338 211 
C 1120 223 1101 268 1101 670 
L 1101 2023 
C 1101 2311 1523 2624 1914 2624 
C 2342 2624 2624 2304 2624 1813 
L 2624 0 
z
" id="URWPalladioL-Roma-6e" transform="scale(0.015625)"/>
       <path d="M 2637 2803 
C 2278 2956 2099 3008 1875 3008 
C 1702 3008 1549 2969 1389 2886 
L 826 2592 
C 461 2400 224 1934 224 1392 
C 224 881 397 460 710 204 
C 928 19 1229 -64 1645 -64 
C 1773 -64 1920 -39 1952 -13 
L 2662 581 
L 2630 0 
C 2944 -7 3046 0 3123 0 
C 3174 0 3264 0 3398 -7 
C 3443 6 3571 6 3706 0 
L 3706 192 
L 3411 211 
C 3194 224 3174 268 3174 672 
L 3174 4614 
L 3117 4665 
C 2835 4557 2624 4505 2118 4429 
L 2118 4249 
L 2477 4249 
C 2592 4249 2637 4179 2637 3987 
L 2637 2803 
z
M 2637 1424 
C 2637 1009 2624 945 2541 798 
C 2362 498 2048 300 1747 300 
C 1184 300 781 843 781 1602 
C 781 2298 1126 2707 1702 2707 
C 1946 2707 2202 2624 2426 2470 
C 2560 2381 2637 2298 2637 2247 
L 2637 1424 
z
" id="URWPalladioL-Roma-64" transform="scale(0.015625)"/>
       <path d="M 1568 4646 
C 1114 4633 1094 4633 947 4633 
C 794 4633 762 4633 326 4646 
L 288 4608 
L 288 4441 
L 314 4409 
L 557 4409 
C 730 4409 864 4371 941 4307 
C 1005 4249 1024 4159 1024 3942 
C 1024 3923 1024 3795 1030 3615 
L 1030 3379 
L 1030 89 
L 1030 -148 
C 1024 -334 1024 -449 1024 -468 
C 1024 -686 1005 -782 941 -839 
C 864 -903 730 -942 557 -942 
L 314 -942 
L 288 -974 
L 288 -1140 
L 326 -1178 
C 774 -1166 787 -1166 947 -1166 
C 1094 -1166 1126 -1166 1568 -1178 
L 1626 -1095 
C 1587 -942 1581 -743 1574 -250 
C 1574 -161 1574 -78 1568 6 
L 1568 89 
L 1568 3379 
L 1568 3462 
C 1574 3532 1574 3615 1574 3705 
C 1574 4198 1587 4409 1626 4563 
L 1568 4646 
z
" id="URWPalladioL-Roma-5d" transform="scale(0.015625)"/>
      </defs>
      <use transform="scale(0.996264)" xlink:href="#URWPalladioL-Roma-54"/>
      <use transform="translate(55.591109 0)scale(0.996264)" xlink:href="#URWPalladioL-Roma-69"/>
      <use transform="translate(84.581471 0)scale(0.996264)" xlink:href="#URWPalladioL-Roma-6d"/>
      <use transform="translate(172.551145 0)scale(0.996264)" xlink:href="#URWPalladioL-Roma-65"/>
      <use transform="translate(245.17804 0)scale(0.996264)" xlink:href="#URWPalladioL-Roma-5b"/>
      <use transform="translate(278.35327 0)scale(0.996264)" xlink:href="#URWPalladioL-Roma-73"/>
      <use transform="translate(320.594736 0)scale(0.996264)" xlink:href="#URWPalladioL-Roma-65"/>
      <use transform="translate(368.315031 0)scale(0.996264)" xlink:href="#URWPalladioL-Roma-63"/>
      <use transform="translate(412.5486 0)scale(0.996264)" xlink:href="#URWPalladioL-Roma-6f"/>
      <use transform="translate(466.94418 0)scale(0.996264)" xlink:href="#URWPalladioL-Roma-6e"/>
      <use transform="translate(524.926241 0)scale(0.996264)" xlink:href="#URWPalladioL-Roma-64"/>
      <use transform="translate(585.797872 0)scale(0.996264)" xlink:href="#URWPalladioL-Roma-73"/>
      <use transform="translate(628.039338 0)scale(0.996264)" xlink:href="#URWPalladioL-Roma-5d"/>
     </g>
    </g>
   </g>
   <g id="matplotlib.axis_4">
    <g id="ytick_4">
     <g id="line2d_36">
      <path clip-path="url(#p8c516a86ea)" d="M 51.606463 185.890118 
L 568.48221 185.890118 
" style="fill:none;stroke:#000000;stroke-linejoin:miter;stroke-opacity:0.2;stroke-width:0.5;"/>
     </g>
     <g id="line2d_37">
      <g>
       <use style="fill-opacity:0.2;stroke:#000000;stroke-opacity:0.2;stroke-width:0.8;" x="51.606463" xlink:href="#m884bd86c63" y="185.890118"/>
      </g>
     </g>
     <g id="text_12">
      <!-- $\mathdefault{−2.5}$ -->
      <g transform="translate(7.2 190.879883)scale(0.14 -0.14)">
       <use transform="scale(1.038107)" xlink:href="#CMSY10-0"/>
       <use transform="translate(81.941696 0)scale(0.996264)" xlink:href="#URWPalladioL-Roma-32"/>
       <use transform="translate(131.754897 0)scale(0.996264)" xlink:href="#URWPalladioL-Roma-2e"/>
       <use transform="translate(156.661497 0)scale(0.996264)" xlink:href="#URWPalladioL-Roma-35"/>
      </g>
     </g>
    </g>
    <g id="ytick_5">
     <g id="line2d_38">
      <path clip-path="url(#p8c516a86ea)" d="M 51.606463 147.639854 
L 568.48221 147.639854 
" style="fill:none;stroke:#000000;stroke-linejoin:miter;stroke-opacity:0.2;stroke-width:0.5;"/>
     </g>
     <g id="line2d_39">
      <g>
       <use style="fill-opacity:0.2;stroke:#000000;stroke-opacity:0.2;stroke-width:0.8;" x="51.606463" xlink:href="#m884bd86c63" y="147.639854"/>
      </g>
     </g>
     <g id="text_13">
      <!-- $\mathdefault{0.0}$ -->
      <g transform="translate(18.671843 152.629619)scale(0.14 -0.14)">
       <use transform="scale(0.996264)" xlink:href="#URWPalladioL-Roma-30"/>
       <use transform="translate(49.8132 0)scale(0.996264)" xlink:href="#URWPalladioL-Roma-2e"/>
       <use transform="translate(74.719801 0)scale(0.996264)" xlink:href="#URWPalladioL-Roma-30"/>
      </g>
     </g>
    </g>
    <g id="ytick_6">
     <g id="line2d_40">
      <path clip-path="url(#p8c516a86ea)" d="M 51.606463 109.389589 
L 568.48221 109.389589 
" style="fill:none;stroke:#000000;stroke-linejoin:miter;stroke-opacity:0.2;stroke-width:0.5;"/>
     </g>
     <g id="line2d_41">
      <g>
       <use style="fill-opacity:0.2;stroke:#000000;stroke-opacity:0.2;stroke-width:0.8;" x="51.606463" xlink:href="#m884bd86c63" y="109.389589"/>
      </g>
     </g>
     <g id="text_14">
      <!-- $\mathdefault{2.5}$ -->
      <g transform="translate(18.671843 114.379354)scale(0.14 -0.14)">
       <use transform="scale(0.996264)" xlink:href="#URWPalladioL-Roma-32"/>
       <use transform="translate(49.8132 0)scale(0.996264)" xlink:href="#URWPalladioL-Roma-2e"/>
       <use transform="translate(74.719801 0)scale(0.996264)" xlink:href="#URWPalladioL-Roma-35"/>
      </g>
     </g>
    </g>
   </g>
   <g id="line2d_42">
    <path clip-path="url(#p8c516a86ea)" d="M 258.356762 119.586449 
L 259.392585 137.860916 
L 260.428408 130.957281 
L 261.464231 113.135577 
L 262.500054 118.992693 
L 263.535877 131.669361 
L 264.571701 132.3714 
L 265.607524 140.410681 
L 266.643347 140.7985 
L 267.67917 139.287904 
L 268.714993 141.20502 
L 269.750816 129.531305 
L 270.786639 137.498169 
L 271.822462 142.259604 
L 272.858286 141.133217 
L 273.894109 142.247989 
L 274.929932 134.764422 
L 275.965755 143.671755 
L 277.001578 143.815327 
L 278.037401 142.099296 
L 279.073224 135.435392 
L 280.109048 144.540871 
L 281.144871 144.818431 
L 282.180694 145.963169 
L 283.216517 145.514276 
L 284.25234 147.713924 
L 286.323986 148.691192 
L 287.35981 152.347556 
L 288.395633 153.629517 
L 289.431456 150.143517 
L 290.467279 151.205569 
L 291.503102 154.334248 
L 292.538925 162.811719 
L 293.574748 152.667293 
L 294.610572 152.379686 
L 295.646395 160.662327 
L 296.682218 161.346118 
L 297.718041 154.725628 
L 298.753864 154.555831 
L 299.789687 162.07142 
L 300.82551 167.151482 
L 302.897157 175.589883 
L 303.93298 157.818607 
L 304.968803 157.330642 
L 306.004626 167.658976 
L 307.040449 161.547997 
L 308.076272 173.305815 
L 309.112096 155.940235 
L 310.147919 163.331369 
L 311.183742 157.289596 
L 312.219565 158.480743 
L 313.255388 166.884358 
L 314.291211 155.048199 
L 315.327034 157.198373 
L 316.362858 154.795149 
L 317.398681 155.702323 
L 318.434504 158.425271 
L 319.470327 155.581941 
L 320.50615 157.955124 
L 321.541973 154.853792 
L 322.577796 158.2081 
L 323.61362 166.303844 
L 324.649443 152.763524 
L 325.685266 153.343141 
L 326.721089 161.43551 
L 327.756912 152.584384 
L 328.792735 154.265468 
L 329.828558 150.408947 
L 330.864381 151.706165 
L 331.900205 149.536138 
L 332.936028 151.037468 
L 333.971851 150.008538 
L 335.007674 148.165073 
L 336.043497 147.517341 
L 337.07932 146.528495 
L 338.115143 146.060578 
L 340.18679 145.651323 
L 341.222613 141.459685 
L 342.258436 141.687751 
L 343.294259 143.091366 
L 344.330082 135.506005 
L 345.365905 134.55489 
L 346.401729 129.748075 
L 347.437552 134.989461 
L 348.473375 142.009698 
L 349.509198 134.323215 
L 350.545021 133.755594 
L 351.580844 139.624465 
L 352.616667 130.455098 
L 353.652491 140.331952 
L 354.688314 132.367768 
L 355.724137 138.864956 
L 356.75996 134.996375 
L 357.795783 140.206048 
L 358.831606 119.70487 
L 359.867429 139.797839 
L 360.903253 137.836411 
L 361.939076 117.831515 
L 362.974899 125.708433 
L 364.010722 126.950182 
L 365.046545 131.288837 
L 366.082368 128.806798 
L 367.118191 118.564862 
L 368.154015 138.45831 
L 369.189838 135.270444 
L 370.225661 121.202158 
L 371.261484 127.630584 
L 372.297307 123.952077 
L 373.33313 135.582308 
L 374.368953 136.681076 
L 375.404777 127.275859 
L 376.4406 142.203769 
L 377.476423 139.307319 
L 378.512246 139.061671 
L 379.548069 143.88518 
L 380.583892 142.644547 
L 381.619715 141.955615 
L 382.655539 144.818748 
L 383.691362 143.31757 
L 384.727185 146.105343 
L 385.763008 145.255201 
L 386.798831 147.021802 
L 388.870477 148.437141 
L 389.9063 151.777875 
L 390.942124 150.244537 
L 391.977947 150.248997 
L 393.01377 152.198345 
L 394.049593 151.953778 
L 395.085416 153.30101 
L 396.121239 151.444727 
L 397.157062 154.446645 
L 398.192886 155.380506 
L 399.228709 155.235943 
L 400.264532 153.416302 
L 401.300355 154.868711 
L 402.336178 162.013043 
L 403.372001 167.354943 
L 404.407824 156.334207 
L 405.443648 154.774628 
L 406.479471 158.922187 
L 407.515294 182.522801 
L 408.551117 163.279912 
L 409.58694 163.13396 
L 411.658586 169.054534 
L 412.69441 158.041243 
L 413.730233 155.359452 
L 414.766056 174.85621 
L 415.801879 161.220845 
L 416.837702 162.100715 
L 417.873525 155.152827 
L 418.909348 159.649866 
L 419.945172 165.034715 
L 420.980995 163.95857 
L 422.016818 164.234905 
L 423.052641 156.1145 
L 424.088464 156.245623 
L 425.124287 170.739401 
L 426.16011 159.375988 
L 427.195934 152.839043 
L 428.231757 160.222709 
L 429.26758 156.21061 
L 430.303403 156.503385 
L 431.339226 159.147385 
L 432.375049 155.65741 
L 433.410872 150.7942 
L 434.446696 152.266569 
L 435.482519 149.706301 
L 436.518342 150.160463 
L 437.554165 148.942189 
L 438.589988 148.358916 
L 440.661634 146.410776 
L 441.697458 145.718805 
L 442.733281 145.473326 
L 443.769104 145.56959 
L 444.804927 144.542074 
L 445.84075 138.927342 
L 446.876573 142.073333 
L 447.912396 130.142588 
L 448.94822 140.838779 
L 449.984043 132.067108 
L 451.019866 135.485304 
L 452.055689 142.244059 
L 453.091512 137.464529 
L 454.127335 128.147159 
L 455.163158 130.188426 
L 456.198981 140.207509 
L 457.234805 140.828004 
L 458.270628 129.853694 
L 459.306451 137.24748 
L 460.342274 139.888874 
L 461.378097 133.929743 
L 462.41392 133.096615 
L 463.449743 113.841723 
L 465.52139 138.133447 
L 466.557213 139.191186 
L 467.593036 129.36799 
L 468.628859 135.31672 
L 469.664682 135.68596 
L 470.700505 123.226615 
L 471.736329 140.594123 
L 472.772152 135.454155 
L 473.807975 140.070214 
L 474.843798 141.169627 
L 475.879621 135.037004 
L 476.915444 140.815053 
L 477.951267 137.511048 
L 478.987091 140.685339 
L 480.022914 137.561044 
L 481.058737 142.043314 
L 482.09456 143.715648 
L 483.130383 143.246206 
L 484.166206 133.450445 
L 485.202029 145.011531 
L 486.237853 142.976008 
L 487.273676 145.577909 
L 488.309499 145.972198 
L 489.345322 146.605116 
L 490.381145 146.781817 
L 491.416968 147.858286 
L 493.488615 148.935712 
L 494.524438 150.208242 
L 495.560261 149.982455 
L 496.596084 155.408708 
L 497.631907 151.884929 
L 498.66773 152.744152 
L 499.703553 152.688077 
L 500.739377 158.441767 
L 501.7752 156.31711 
L 503.846846 170.642389 
L 504.882669 155.170878 
L 505.918492 157.803279 
L 506.954315 157.883358 
L 507.990139 156.044687 
L 509.025962 154.68931 
L 510.061785 155.808713 
L 511.097608 156.099219 
L 512.133431 173.332917 
L 513.169254 166.394105 
L 514.205077 165.618597 
L 515.2409 162.182651 
L 516.276724 171.332909 
L 517.312547 158.683436 
L 518.34837 159.255455 
L 519.384193 155.493941 
L 520.420016 156.497485 
L 521.455839 160.175883 
L 522.491662 159.95889 
L 523.527486 160.008877 
L 524.563309 167.682922 
L 525.599132 169.487654 
L 526.634955 157.616404 
L 527.670778 163.215903 
L 528.706601 155.800227 
L 529.742424 156.045756 
L 530.778248 152.716992 
L 531.814071 166.348844 
L 532.849894 152.222885 
L 533.885717 153.260357 
L 534.92154 151.151534 
L 535.957363 151.198191 
L 536.993186 150.261913 
L 538.02901 150.346276 
L 539.064833 156.929052 
L 540.100656 152.385352 
L 541.136479 148.524388 
L 542.172302 147.996104 
L 544.243948 146.592356 
L 545.279772 146.384429 
L 546.315595 140.54777 
L 547.351418 138.456737 
L 548.387241 144.957627 
L 549.423064 140.673152 
L 550.458887 141.66186 
L 551.49471 134.966592 
L 552.530534 142.653046 
L 553.566357 140.209356 
L 554.60218 135.855107 
L 555.638003 133.397246 
L 556.673826 137.820334 
L 557.709649 130.715522 
L 558.745472 137.445761 
L 559.781296 138.474509 
L 560.817119 115.413423 
L 561.852942 131.143874 
L 562.888765 140.165816 
L 563.924588 129.361826 
L 564.960411 140.02295 
L 565.996234 136.023146 
L 567.032058 137.88628 
L 568.067881 138.1255 
L 569.103704 126.251306 
L 570.139527 121.276279 
L 571.17535 139.88415 
L 572.211173 135.054115 
L 573.246996 135.42405 
L 574.282819 137.87718 
L 575.318643 127.694341 
L 576.354466 128.128984 
L 577.390289 136.427065 
L 578.426112 141.03223 
L 579.461935 141.4199 
L 580.497758 134.098031 
L 581.533581 134.408059 
L 582.569405 138.763029 
L 583.605228 141.784984 
L 584.641051 143.31725 
L 585.39952 143.66144 
L 585.39952 143.66144 
" style="fill:none;stroke:#6e3b87;stroke-linejoin:miter;stroke-width:3;"/>
   </g>
   <g id="line2d_43">
    <path clip-path="url(#p8c516a86ea)" d="M 51.606463 147.639854 
L 258.356762 147.639854 
L 258.356762 119.586449 
" style="fill:none;stroke:#6e3b87;stroke-linejoin:miter;stroke-opacity:0.5;stroke-width:3;"/>
   </g>
   <g id="legend_2">
    <g id="patch_5">
     <path d="M 61.406463 179.261659 
L 107.733852 179.261659 
Q 110.533852 179.261659 110.533852 176.461659 
L 110.533852 156.948957 
Q 110.533852 154.148957 107.733852 154.148957 
L 61.406463 154.148957 
Q 58.606463 154.148957 58.606463 156.948957 
L 58.606463 176.461659 
Q 58.606463 179.261659 61.406463 179.261659 
z
" style="fill:#ffffff;opacity:0.95;stroke:#cccccc;stroke-linejoin:miter;stroke-width:0.5;"/>
    </g>
    <g id="line2d_44">
     <path d="M 64.206463 164.828486 
L 78.206463 164.828486 
" style="fill:none;stroke:#6e3b87;stroke-linejoin:miter;stroke-width:3;"/>
    </g>
    <g id="line2d_45"/>
    <g id="text_15">
     <!-- $x_m$ -->
     <g style="fill:#6e3b87;" transform="translate(89.406463 169.728486)scale(0.14 -0.14)">
      <defs>
       <path d="M 4672 651 
L 4506 542 
C 4320 421 4179 351 4115 351 
C 4070 351 4032 408 4032 479 
C 4032 542 4045 600 4077 734 
L 4557 2631 
C 4582 2739 4602 2841 4602 2892 
C 4602 3001 4538 3072 4435 3072 
C 4250 3072 4006 2956 3616 2682 
C 3213 2394 2989 2171 2675 1730 
L 2867 2605 
C 2893 2733 2912 2829 2912 2873 
C 2912 2995 2848 3072 2746 3072 
C 2554 3072 2259 2931 1907 2663 
C 1626 2445 1498 2311 1082 1749 
L 1293 2599 
C 1318 2701 1331 2797 1331 2873 
C 1331 2995 1274 3072 1184 3072 
C 1050 3072 806 2937 333 2599 
L 154 2471 
L 198 2343 
L 403 2477 
C 640 2624 659 2637 704 2637 
C 774 2637 819 2573 819 2477 
C 819 2152 557 919 294 6 
L 314 -64 
L 749 32 
L 890 683 
C 1043 1392 1216 1769 1568 2152 
C 1837 2445 2125 2637 2304 2637 
C 2349 2637 2374 2586 2374 2503 
C 2374 2279 2234 1551 1971 434 
L 1869 6 
L 1901 -64 
L 2342 32 
L 2477 715 
C 2579 1232 2797 1711 3078 2024 
C 3430 2413 3750 2637 3955 2637 
C 4006 2637 4038 2579 4038 2477 
C 4038 2324 4019 2235 3878 1679 
C 3776 1277 3667 894 3603 677 
C 3546 498 3520 332 3520 191 
C 3520 32 3590 -64 3712 -64 
C 3878 -64 4109 70 4736 536 
L 4672 651 
z
" id="URWPalladioL-Ital-6d" transform="scale(0.015625)"/>
      </defs>
      <use transform="scale(0.996264)" xlink:href="#URWPalladioL-Ital-78"/>
      <use transform="translate(52.003975 -14.943915)scale(0.757155)" xlink:href="#URWPalladioL-Ital-6d"/>
     </g>
    </g>
   </g>
  </g>
  <g id="patch_6">
   <path d="M 158.541768 20.938415 
Q 282.765622 17.740548 361.939076 117.831515 
" style="fill:none;stroke:#dc2830;stroke-linecap:round;stroke-width:3;"/>
   <path d="M 162.591912 22.834816 
L 158.541768 20.938415 
L 162.488975 18.836141 
" style="fill:none;stroke:#dc2830;stroke-linecap:round;stroke-width:3;"/>
  </g>
 </g>
 <defs>
  <clipPath id="p7021724cdb">
   <rect height="82.254875" width="516.875747" x="51.606463" y="7.2"/>
  </clipPath>
  <clipPath id="p8c516a86ea">
   <rect height="82.254875" width="516.875747" x="51.606463" y="104.006784"/>
  </clipPath>
 </defs>
</svg>
