<?xml version="1.0" encoding="utf-8" standalone="no"?>
<!DOCTYPE svg PUBLIC "-//W3C//DTD SVG 1.1//EN"
  "http://www.w3.org/Graphics/SVG/1.1/DTD/svg11.dtd">
<svg xmlns:xlink="http://www.w3.org/1999/xlink" width="575.534251pt" height="224.39952pt" viewBox="0 0 575.534251 224.39952" xmlns="http://www.w3.org/2000/svg" version="1.1">
 <metadata>
  <rdf:RDF xmlns:dc="http://purl.org/dc/elements/1.1/" xmlns:cc="http://creativecommons.org/ns#" xmlns:rdf="http://www.w3.org/1999/02/22-rdf-syntax-ns#">
   <cc:Work>
    <dc:type rdf:resource="http://purl.org/dc/dcmitype/StillImage"/>
    <dc:date>2022-06-20T10:27:30.745413</dc:date>
    <dc:format>image/svg+xml</dc:format>
    <dc:creator>
     <cc:Agent>
      <dc:title>Matplotlib v3.5.2, https://matplotlib.org/</dc:title>
     </cc:Agent>
    </dc:creator>
   </cc:Work>
  </rdf:RDF>
 </metadata>
 <defs>
  <style type="text/css">*{stroke-linejoin: round; stroke-linecap: butt}</style>
 </defs>
 <g id="figure_1">
  <g id="patch_1">
   <path d="M 0 224.39952 
L 575.534251 224.39952 
L 575.534251 0 
L 0 0 
L 0 224.39952 
z
" style="fill: none"/>
  </g>
  <g id="axes_1">
   <g id="patch_2">
    <path d="M 41.145691 63.925001 
L 433.19952 63.925001 
L 433.19952 23.179529 
L 41.145691 23.179529 
L 41.145691 63.925001 
z
" style="fill: none"/>
   </g>
   <g id="matplotlib.axis_1">
    <g id="xtick_1">
     <g id="line2d_1">
      <path d="M 41.145691 63.925001 
L 41.145691 23.179529 
" clip-path="url(#p450f1186fb)" style="fill: none; stroke: #000000; stroke-opacity: 0.2; stroke-width: 0.5; stroke-linecap: round"/>
     </g>
     <g id="line2d_2">
      <defs>
       <path id="mad7a632877" d="M 0 0 
L 0 3.5 
" style="stroke: #000000; stroke-opacity: 0.2; stroke-width: 0.5"/>
      </defs>
      <g>
       <use xlink:href="#mad7a632877" x="41.145691" y="63.925001" style="fill-opacity: 0.2; stroke: #000000; stroke-opacity: 0.2; stroke-width: 0.5"/>
      </g>
     </g>
    </g>
    <g id="xtick_2">
     <g id="line2d_3">
      <path d="M 103.874303 63.925001 
L 103.874303 23.179529 
" clip-path="url(#p450f1186fb)" style="fill: none; stroke: #000000; stroke-opacity: 0.2; stroke-width: 0.5; stroke-linecap: round"/>
     </g>
     <g id="line2d_4">
      <g>
       <use xlink:href="#mad7a632877" x="103.874303" y="63.925001" style="fill-opacity: 0.2; stroke: #000000; stroke-opacity: 0.2; stroke-width: 0.5"/>
      </g>
     </g>
    </g>
    <g id="xtick_3">
     <g id="line2d_5">
      <path d="M 166.602916 63.925001 
L 166.602916 23.179529 
" clip-path="url(#p450f1186fb)" style="fill: none; stroke: #000000; stroke-opacity: 0.2; stroke-width: 0.5; stroke-linecap: round"/>
     </g>
     <g id="line2d_6">
      <g>
       <use xlink:href="#mad7a632877" x="166.602916" y="63.925001" style="fill-opacity: 0.2; stroke: #000000; stroke-opacity: 0.2; stroke-width: 0.5"/>
      </g>
     </g>
    </g>
    <g id="xtick_4">
     <g id="line2d_7">
      <path d="M 229.331529 63.925001 
L 229.331529 23.179529 
" clip-path="url(#p450f1186fb)" style="fill: none; stroke: #000000; stroke-opacity: 0.2; stroke-width: 0.5; stroke-linecap: round"/>
     </g>
     <g id="line2d_8">
      <g>
       <use xlink:href="#mad7a632877" x="229.331529" y="63.925001" style="fill-opacity: 0.2; stroke: #000000; stroke-opacity: 0.2; stroke-width: 0.5"/>
      </g>
     </g>
    </g>
    <g id="xtick_5">
     <g id="line2d_9">
      <path d="M 292.060141 63.925001 
L 292.060141 23.179529 
" clip-path="url(#p450f1186fb)" style="fill: none; stroke: #000000; stroke-opacity: 0.2; stroke-width: 0.5; stroke-linecap: round"/>
     </g>
     <g id="line2d_10">
      <g>
       <use xlink:href="#mad7a632877" x="292.060141" y="63.925001" style="fill-opacity: 0.2; stroke: #000000; stroke-opacity: 0.2; stroke-width: 0.5"/>
      </g>
     </g>
    </g>
    <g id="xtick_6">
     <g id="line2d_11">
      <path d="M 354.788754 63.925001 
L 354.788754 23.179529 
" clip-path="url(#p450f1186fb)" style="fill: none; stroke: #000000; stroke-opacity: 0.2; stroke-width: 0.5; stroke-linecap: round"/>
     </g>
     <g id="line2d_12">
      <g>
       <use xlink:href="#mad7a632877" x="354.788754" y="63.925001" style="fill-opacity: 0.2; stroke: #000000; stroke-opacity: 0.2; stroke-width: 0.5"/>
      </g>
     </g>
    </g>
    <g id="xtick_7">
     <g id="line2d_13">
      <path d="M 417.517367 63.925001 
L 417.517367 23.179529 
" clip-path="url(#p450f1186fb)" style="fill: none; stroke: #000000; stroke-opacity: 0.2; stroke-width: 0.5; stroke-linecap: round"/>
     </g>
     <g id="line2d_14">
      <g>
       <use xlink:href="#mad7a632877" x="417.517367" y="63.925001" style="fill-opacity: 0.2; stroke: #000000; stroke-opacity: 0.2; stroke-width: 0.5"/>
      </g>
     </g>
    </g>
   </g>
   <g id="matplotlib.axis_2">
    <g id="ytick_1">
     <g id="line2d_15">
      <path d="M 41.145691 62.392108 
L 433.19952 62.392108 
" clip-path="url(#p450f1186fb)" style="fill: none; stroke: #000000; stroke-opacity: 0.2; stroke-width: 0.5; stroke-linecap: round"/>
     </g>
     <g id="line2d_16">
      <defs>
       <path id="m5c9adb2495" d="M 0 0 
L -3.5 0 
" style="stroke: #000000; stroke-opacity: 0.2; stroke-width: 0.5"/>
      </defs>
      <g>
       <use xlink:href="#m5c9adb2495" x="41.145691" y="62.392108" style="fill-opacity: 0.2; stroke: #000000; stroke-opacity: 0.2; stroke-width: 0.5"/>
      </g>
     </g>
     <g id="text_1">
      <!-- $\mathdefault{−1}$ -->
      <g transform="translate(7.2 67.381872)scale(0.14 -0.14)">
       <defs>
        <path id="CMSY10-0" d="M 4218 1472 
C 4326 1472 4442 1472 4442 1600 
C 4442 1728 4326 1728 4218 1728 
L 755 1728 
C 646 1728 531 1728 531 1600 
C 531 1472 646 1472 755 1472 
L 4218 1472 
z
" transform="scale(0.015625)"/>
        <path id="URWPalladioL-Roma-31" d="M 429 3571 
L 493 3571 
L 1318 3942 
C 1325 3949 1331 3949 1338 3949 
C 1376 3949 1389 3891 1389 3737 
L 1389 633 
C 1389 300 1318 230 973 211 
L 614 192 
L 614 0 
C 1600 0 1600 0 1670 0 
C 1754 0 1894 0 2112 -7 
C 2189 6 2413 6 2675 0 
L 2675 192 
L 2342 211 
C 1990 229 1926 299 1926 628 
L 1926 4383 
L 1837 4416 
C 1421 4199 966 4009 384 3807 
L 429 3571 
z
" transform="scale(0.015625)"/>
       </defs>
       <use xlink:href="#CMSY10-0" transform="scale(1.038107)"/>
       <use xlink:href="#URWPalladioL-Roma-31" transform="translate(81.941696 0)scale(0.996264)"/>
      </g>
     </g>
    </g>
    <g id="ytick_2">
     <g id="line2d_17">
      <path d="M 41.145691 43.874106 
L 433.19952 43.874106 
" clip-path="url(#p450f1186fb)" style="fill: none; stroke: #000000; stroke-opacity: 0.2; stroke-width: 0.5; stroke-linecap: round"/>
     </g>
     <g id="line2d_18">
      <g>
       <use xlink:href="#m5c9adb2495" x="41.145691" y="43.874106" style="fill-opacity: 0.2; stroke: #000000; stroke-opacity: 0.2; stroke-width: 0.5"/>
      </g>
     </g>
     <g id="text_2">
      <!-- $\mathdefault{0}$ -->
      <g transform="translate(18.671843 48.86387)scale(0.14 -0.14)">
       <defs>
        <path id="URWPalladioL-Roma-30" d="M 1683 4416 
C 691 4416 186 3628 186 2076 
C 186 1326 320 679 544 365 
C 768 51 1126 -128 1523 -128 
C 2490 -128 2976 704 2976 2345 
C 2976 3749 2560 4416 1683 4416 
z
M 1568 4191 
C 2189 4191 2438 3563 2438 2025 
C 2438 660 2195 96 1606 96 
C 986 96 723 743 723 2307 
C 723 3660 960 4191 1568 4191 
z
" transform="scale(0.015625)"/>
       </defs>
       <use xlink:href="#URWPalladioL-Roma-30" transform="scale(0.996264)"/>
      </g>
     </g>
    </g>
    <g id="ytick_3">
     <g id="line2d_19">
      <path d="M 41.145691 25.356104 
L 433.19952 25.356104 
" clip-path="url(#p450f1186fb)" style="fill: none; stroke: #000000; stroke-opacity: 0.2; stroke-width: 0.5; stroke-linecap: round"/>
     </g>
     <g id="line2d_20">
      <g>
       <use xlink:href="#m5c9adb2495" x="41.145691" y="25.356104" style="fill-opacity: 0.2; stroke: #000000; stroke-opacity: 0.2; stroke-width: 0.5"/>
      </g>
     </g>
     <g id="text_3">
      <!-- $\mathdefault{1}$ -->
      <g transform="translate(18.671843 30.345868)scale(0.14 -0.14)">
       <use xlink:href="#URWPalladioL-Roma-31" transform="scale(0.996264)"/>
      </g>
     </g>
    </g>
   </g>
   <g id="line2d_21">
    <path d="M 41.145691 42.053435 
L 41.772977 36.998595 
L 42.400263 43.819385 
L 43.027549 41.439421 
L 43.654835 40.812938 
L 44.282121 48.420949 
L 44.909407 50.349575 
L 45.536694 41.334649 
L 46.16398 42.729325 
L 46.791266 44.714586 
L 47.418552 48.317879 
L 48.045838 40.937233 
L 48.673124 41.275636 
L 49.30041 45.55768 
L 49.927696 35.166826 
L 50.554983 34.74151 
L 51.182269 54.025755 
L 51.809555 41.307617 
L 52.436841 47.239554 
L 53.064127 54.424994 
L 53.691413 47.45037 
L 54.318699 49.997134 
L 54.945986 45.39797 
L 55.573272 36.323245 
L 56.200558 49.839513 
L 56.827844 26.734359 
L 57.45513 55.778715 
L 58.082416 46.635988 
L 58.709702 44.816776 
L 59.336988 45.288528 
L 59.964275 51.957973 
L 60.591561 37.281087 
L 61.218847 44.230632 
L 61.846133 37.827861 
L 62.473419 45.347248 
L 63.100705 49.792842 
L 63.727991 42.567192 
L 64.355277 48.384824 
L 64.982564 39.855457 
L 65.60985 38.740488 
L 66.237136 41.011529 
L 66.864422 44.701424 
L 67.491708 30.277186 
L 68.118994 41.102757 
L 68.74628 62.072935 
L 69.373566 42.987863 
L 70.000853 51.890035 
L 70.628139 30.673913 
L 71.255425 53.226557 
L 71.882711 46.988689 
L 72.509997 51.307186 
L 73.137283 40.222706 
L 74.391855 41.380487 
L 75.019142 42.880562 
L 75.646428 53.581872 
L 76.273714 35.703803 
L 76.901 48.820736 
L 77.528286 36.073145 
L 78.155572 45.862558 
L 78.782858 53.600854 
L 79.410144 37.911177 
L 80.037431 40.93444 
L 80.664717 45.854473 
L 81.292003 41.62848 
L 81.919289 47.66215 
L 82.546575 46.53989 
L 83.173861 34.614327 
L 84.428433 49.092009 
L 85.05572 50.590745 
L 85.683006 37.943337 
L 86.937578 49.705952 
L 87.564864 45.868758 
L 88.19215 49.757415 
L 88.819436 34.463835 
L 89.446722 38.247502 
L 90.074009 45.93924 
L 90.701295 33.868576 
L 91.328581 41.282603 
L 91.955867 42.267414 
L 92.583153 41.385462 
L 93.210439 44.034709 
L 93.837725 50.71509 
L 94.465012 33.60059 
L 95.092298 49.43417 
L 95.719584 38.615602 
L 96.34687 40.490085 
L 96.974156 53.928911 
L 97.601442 42.494491 
L 98.228728 42.546862 
L 98.856014 45.575804 
L 99.483301 46.66601 
L 100.110587 35.224056 
L 100.737873 44.558319 
L 101.365159 42.909317 
L 101.992445 49.483865 
L 102.619731 42.087207 
L 103.247017 44.233135 
L 103.874303 44.052366 
L 104.50159 47.973177 
L 105.128876 44.410972 
L 105.756162 37.834079 
L 106.383448 37.651862 
L 107.010734 55.558248 
L 107.63802 43.011922 
L 108.265306 56.418086 
L 108.892592 45.813264 
L 109.519879 42.510726 
L 110.147165 44.855899 
L 110.774451 53.331785 
L 111.401737 41.944272 
L 112.029023 40.498266 
L 112.656309 40.210171 
L 113.283595 42.880914 
L 113.910881 49.44711 
L 114.538168 44.558517 
L 115.165454 44.185083 
L 115.79274 40.546756 
L 116.420026 57.565713 
L 117.047312 44.251718 
L 117.674598 48.873946 
L 118.301884 40.316509 
L 118.92917 45.294235 
L 119.556457 38.694286 
L 120.183743 35.717607 
L 120.811029 52.554133 
L 121.438315 48.557685 
L 122.065601 46.609093 
L 122.692887 52.12421 
L 123.320173 37.203878 
L 123.947459 51.595263 
L 124.574746 43.905707 
L 125.202032 43.165316 
L 125.829318 50.070967 
L 126.456604 35.69291 
L 127.08389 51.912542 
L 127.711176 54.527961 
L 128.338462 36.282425 
L 128.965748 42.822355 
L 129.593035 32.321492 
L 130.220321 45.291065 
L 130.847607 45.098604 
L 131.474893 38.783229 
L 132.102179 57.018605 
L 132.729465 45.368525 
L 133.356751 46.657703 
L 133.984037 44.122748 
L 134.611324 46.066105 
L 135.23861 43.797244 
L 135.865896 52.214233 
L 136.493182 43.445164 
L 137.120468 37.312345 
L 137.747754 42.7933 
L 138.37504 35.11196 
L 139.629613 47.733253 
L 140.256899 32.520797 
L 141.511471 41.227878 
L 142.138757 57.698429 
L 142.766043 38.272659 
L 143.393329 37.511622 
L 144.020616 47.76804 
L 144.647902 35.79115 
L 145.275188 45.479886 
L 145.902474 46.373406 
L 146.52976 45.070843 
L 147.157046 51.229231 
L 147.784332 32.504821 
L 148.411618 47.199069 
L 149.038905 39.113658 
L 149.666191 41.215664 
L 150.293477 39.440251 
L 150.920763 52.977711 
L 151.548049 39.784495 
L 152.175335 48.951977 
L 152.802621 52.495929 
L 153.429907 51.29832 
L 154.057194 39.366987 
L 154.68448 43.77496 
L 155.311766 42.480928 
L 155.939052 55.975667 
L 156.566338 58.196103 
L 157.193624 51.255725 
L 157.82091 39.181465 
L 158.448196 41.251539 
L 159.075483 39.63214 
L 159.702769 38.480764 
L 160.330055 45.449039 
L 160.957341 36.594418 
L 161.584627 43.98085 
L 162.211913 31.187828 
L 162.839199 41.943164 
L 163.466485 44.234634 
L 164.093772 41.476875 
L 165.348344 53.343593 
L 165.97563 37.836886 
L 166.602916 38.651737 
L 167.230202 46.359641 
L 167.857488 40.220859 
L 168.484774 52.043856 
L 169.112061 42.643252 
L 169.739347 38.436519 
L 170.366633 38.250207 
L 170.993919 53.215171 
L 171.621205 40.937417 
L 172.248491 53.658371 
L 172.875777 46.921184 
L 173.503063 48.948694 
L 174.13035 51.924489 
L 174.757636 36.866522 
L 175.384922 41.32801 
L 176.012208 37.250225 
L 176.639494 47.214429 
L 177.26678 50.385366 
L 178.521352 36.173116 
L 179.148639 42.423936 
L 179.775925 50.917838 
L 180.403211 34.822406 
L 181.030497 31.579678 
L 181.657783 40.607439 
L 182.285069 44.52464 
L 182.912355 38.524407 
L 183.539642 42.349131 
L 184.166928 41.224994 
L 184.794214 53.415071 
L 185.4215 41.92042 
L 186.048786 44.206871 
L 186.676072 50.465749 
L 187.303358 43.088561 
L 187.930644 43.856587 
L 188.557931 47.697177 
L 189.185217 45.470862 
L 189.812503 35.846732 
L 190.439789 55.821443 
L 191.067075 54.187352 
L 191.694361 39.833182 
L 192.321647 49.720087 
L 192.948933 44.334286 
L 193.57622 46.073703 
L 194.203506 43.75427 
L 194.830792 38.600671 
L 195.458078 35.663999 
L 196.71265 48.585632 
L 197.339936 45.200579 
L 197.967222 42.928585 
L 198.594509 41.372276 
L 199.221795 46.744615 
L 199.849081 45.202406 
L 200.476367 45.876282 
L 201.103653 34.448492 
L 201.730939 40.551198 
L 202.358225 37.697944 
L 202.985511 37.898017 
L 203.612798 45.258495 
L 204.240084 46.364853 
L 204.86737 38.282355 
L 205.494656 41.91103 
L 206.121942 49.171965 
L 206.749228 38.460933 
L 207.376514 39.720333 
L 208.0038 40.04541 
L 208.631087 45.726195 
L 209.258373 43.006053 
L 209.885659 42.82091 
L 210.512945 43.467895 
L 211.140231 44.282145 
L 211.767517 33.12434 
L 212.394803 39.196692 
L 213.022089 46.98743 
L 214.276662 42.455638 
L 214.903948 43.933759 
L 215.531234 37.41969 
L 216.15852 39.083763 
L 216.785806 34.6051 
L 217.413092 52.811861 
L 218.040378 52.065947 
L 218.667665 47.94944 
L 219.294951 39.529564 
L 219.922237 46.913532 
L 220.549523 51.085814 
L 221.176809 47.07103 
L 221.804095 33.702025 
L 222.431381 57.656555 
L 223.058668 35.92584 
L 223.685954 54.523382 
L 224.31324 43.014879 
L 224.940526 51.898178 
L 225.567812 47.598517 
L 226.195098 36.541068 
L 226.822384 50.514291 
L 227.44967 35.626146 
L 228.076957 38.718512 
L 228.704243 47.30383 
L 229.958815 37.115929 
L 230.586101 53.569318 
L 231.840673 26.752647 
L 232.467959 46.579648 
L 233.095246 40.239459 
L 233.722532 42.966344 
L 234.349818 37.119246 
L 235.60439 51.305847 
L 236.231676 50.795686 
L 236.858962 46.930665 
L 237.486248 52.391885 
L 238.113535 55.21881 
L 238.740821 50.752754 
L 239.368107 44.398735 
L 239.995393 46.919124 
L 240.622679 41.379746 
L 241.249965 46.263444 
L 241.877251 43.918887 
L 242.504537 40.027501 
L 243.131824 47.630167 
L 243.75911 42.257542 
L 244.386396 49.656084 
L 245.013682 30.994689 
L 245.640968 38.323048 
L 246.268254 54.716481 
L 246.89554 40.126592 
L 247.522826 42.481416 
L 248.150113 45.469653 
L 248.777399 49.032062 
L 249.404685 40.150166 
L 250.031971 46.992973 
L 251.286543 40.784793 
L 251.913829 40.778208 
L 252.541115 49.713412 
L 253.168402 45.936019 
L 253.795688 44.931686 
L 254.422974 49.60807 
L 255.05026 34.300482 
L 255.677546 53.267342 
L 256.304832 52.22901 
L 256.932118 29.300663 
L 257.559404 41.265592 
L 258.186691 55.755368 
L 258.813977 38.889562 
L 259.441263 47.097836 
L 260.068549 45.009996 
L 260.695835 40.589405 
L 261.323121 28.656097 
L 261.950407 40.502174 
L 262.577693 45.063402 
L 263.20498 43.726737 
L 263.832266 36.441689 
L 264.459552 46.987251 
L 265.086838 37.809927 
L 265.714124 40.264931 
L 266.34141 44.587827 
L 266.968696 43.789142 
L 267.595983 41.504161 
L 268.223269 41.032169 
L 268.850555 39.079745 
L 269.477841 40.468894 
L 270.105127 54.469067 
L 270.732413 47.005096 
L 271.359699 49.387286 
L 271.986985 48.593221 
L 272.614272 39.546745 
L 273.241558 49.636695 
L 273.868844 47.037002 
L 274.49613 41.223627 
L 275.123416 47.905965 
L 275.750702 44.932939 
L 276.377988 40.158062 
L 277.005274 50.229713 
L 277.632561 44.892936 
L 278.259847 47.527349 
L 278.887133 43.375332 
L 279.514419 48.289725 
L 280.141705 41.294861 
L 280.768991 38.335362 
L 281.396277 36.185496 
L 282.023563 47.788756 
L 282.65085 43.904657 
L 283.278136 44.344861 
L 283.905422 42.63727 
L 284.532708 42.899421 
L 285.159994 25.031596 
L 285.78728 40.818101 
L 286.414566 59.992787 
L 287.041852 40.224664 
L 287.669139 42.94048 
L 288.296425 47.162137 
L 288.923711 39.071533 
L 289.550997 40.62099 
L 290.178283 49.325679 
L 290.805569 47.522953 
L 291.432855 30.736072 
L 292.060141 42.339789 
L 292.687428 39.044388 
L 293.942 51.008078 
L 294.569286 52.735748 
L 295.196572 51.67189 
L 295.823858 52.206188 
L 296.451144 34.614818 
L 297.07843 47.736348 
L 297.705717 49.285281 
L 298.333003 44.669535 
L 298.960289 42.332356 
L 299.587575 49.175238 
L 300.214861 37.852327 
L 300.842147 37.163822 
L 301.469433 47.705418 
L 302.096719 45.931082 
L 302.724006 46.250093 
L 303.351292 35.629158 
L 303.978578 42.391592 
L 304.605864 52.540182 
L 305.23315 36.771981 
L 306.487722 49.70387 
L 307.115009 60.943998 
L 307.742295 43.973824 
L 308.369581 33.33 
L 308.996867 33.401368 
L 309.624153 33.084561 
L 310.251439 43.336819 
L 310.878725 44.228297 
L 311.506011 38.056104 
L 312.133298 42.1907 
L 312.760584 50.330221 
L 313.38787 37.080337 
L 314.015156 42.954198 
L 314.642442 43.362461 
L 315.269728 51.541599 
L 315.897014 44.717629 
L 316.5243 42.607798 
L 317.151587 46.561121 
L 318.406159 29.020533 
L 319.033445 48.055167 
L 319.660731 53.222999 
L 320.915303 37.941159 
L 321.542589 45.418677 
L 322.169876 40.957165 
L 322.797162 40.055786 
L 323.424448 49.300408 
L 324.051734 40.884254 
L 324.67902 42.077407 
L 325.306306 30.23133 
L 325.933592 46.513751 
L 326.560878 37.65641 
L 327.188165 51.693524 
L 327.815451 45.105187 
L 328.442737 53.792425 
L 329.070023 47.656761 
L 329.697309 58.153037 
L 330.324595 46.631668 
L 330.951881 42.549803 
L 331.579167 26.44604 
L 332.206454 46.027323 
L 332.83374 48.978111 
L 333.461026 35.78729 
L 334.088312 30.588386 
L 334.715598 50.623899 
L 335.342884 53.918135 
L 335.97017 42.765317 
L 336.597456 48.922261 
L 337.224743 40.656943 
L 337.852029 42.752854 
L 338.479315 38.936836 
L 339.106601 45.09579 
L 339.733887 36.384441 
L 340.361173 45.250054 
L 340.988459 33.932318 
L 341.615745 44.18423 
L 342.243032 40.691273 
L 343.497604 50.684229 
L 344.12489 49.5056 
L 344.752176 51.689823 
L 345.379462 51.394904 
L 346.634034 42.323266 
L 347.261321 50.550136 
L 347.888607 49.329113 
L 348.515893 39.257257 
L 349.143179 43.148214 
L 350.397751 58.770241 
L 351.025037 35.085492 
L 351.652324 37.812611 
L 352.27961 45.838163 
L 352.906896 41.967637 
L 353.534182 40.958064 
L 354.161468 31.779585 
L 354.788754 44.497516 
L 355.41604 47.760679 
L 356.043326 57.075275 
L 356.670613 45.058809 
L 357.297899 40.247128 
L 357.925185 40.964529 
L 358.552471 44.801611 
L 359.179757 51.769205 
L 359.807043 52.69689 
L 360.434329 52.089409 
L 361.061615 47.002046 
L 361.688902 30.516285 
L 362.316188 43.102639 
L 362.943474 45.030788 
L 363.57076 49.690683 
L 364.198046 51.152463 
L 364.825332 51.276526 
L 365.452618 48.90613 
L 366.079904 47.830198 
L 366.707191 35.280768 
L 367.334477 51.07079 
L 367.961763 34.122944 
L 368.589049 46.689556 
L 369.216335 44.80392 
L 369.843621 40.141482 
L 370.470907 43.880868 
L 371.098193 45.332307 
L 371.72548 29.664901 
L 372.352766 43.189022 
L 372.980052 44.290922 
L 373.607338 44.656008 
L 374.234624 56.389945 
L 374.86191 37.798656 
L 375.489196 49.892414 
L 376.116482 49.927343 
L 376.743769 34.688873 
L 377.371055 34.465113 
L 377.998341 44.241264 
L 378.625627 36.591249 
L 379.252913 50.384346 
L 379.880199 37.097217 
L 380.507485 48.285758 
L 381.134771 34.77385 
L 381.762058 50.405969 
L 383.01663 36.171943 
L 383.643916 35.132386 
L 384.271202 46.238919 
L 384.898488 37.168841 
L 385.525774 44.823084 
L 386.15306 38.822894 
L 386.780347 40.445143 
L 387.407633 50.529047 
L 388.034919 38.243217 
L 388.662205 48.393862 
L 389.289491 36.458696 
L 389.916777 40.577823 
L 390.544063 37.801811 
L 391.17135 47.724116 
L 391.798636 49.816865 
L 392.425922 42.647255 
L 393.053208 45.045727 
L 393.680494 46.700855 
L 394.935066 52.447134 
L 395.562352 44.865711 
L 396.189639 49.387665 
L 396.816925 58.428248 
L 397.444211 39.00582 
L 398.071497 48.463663 
L 398.698783 42.025754 
L 399.326069 40.351098 
L 399.953355 40.825997 
L 400.580641 52.795495 
L 401.207928 45.750666 
L 401.835214 51.152896 
L 402.4625 41.540871 
L 403.089786 55.920172 
L 403.717072 53.415248 
L 404.344358 46.403179 
L 404.971644 49.066474 
L 405.59893 38.941115 
L 406.226217 47.820918 
L 406.853503 42.185518 
L 407.480789 38.340927 
L 408.108075 44.37564 
L 408.735361 46.19726 
L 409.362647 39.793509 
L 409.989933 38.036934 
L 410.617219 49.150379 
L 411.244506 41.412933 
L 411.871792 35.619884 
L 412.499078 38.506526 
L 413.126364 54.614523 
L 413.75365 40.358103 
L 414.380936 40.701297 
L 415.008222 30.737097 
L 415.635508 46.546779 
L 416.890081 38.295566 
L 417.517367 50.446295 
L 418.144653 32.445915 
L 418.771939 49.886851 
L 419.399225 34.365682 
L 420.026511 48.436121 
L 420.653797 55.534598 
L 421.281084 47.52775 
L 421.90837 51.300001 
L 422.535656 36.198422 
L 423.162942 37.578681 
L 423.790228 38.092279 
L 424.417514 51.129967 
L 425.0448 39.01165 
L 425.672086 44.882209 
L 426.299373 41.253485 
L 426.926659 45.713182 
L 427.553945 35.691851 
L 428.181231 46.995963 
L 428.808517 42.863757 
L 429.435803 36.21055 
L 430.063089 46.084439 
L 430.690375 40.921717 
L 431.317662 41.27345 
L 431.944948 50.06208 
L 432.572234 47.99843 
L 432.572234 47.99843 
" clip-path="url(#p450f1186fb)" style="fill: none; stroke: #0271ae; stroke-width: 2; stroke-linecap: round"/>
   </g>
   <g id="text_4">
    <!-- Some aperiodic signals -->
    <g transform="translate(166.326036 17.179529)scale(0.14 -0.14)">
     <defs>
      <path id="URWPalladioL-Roma-53" d="M 2861 3371 
C 2861 3711 2886 3929 2950 4275 
C 2438 4479 2150 4544 1798 4544 
C 845 4544 154 3942 154 3102 
C 154 2788 237 2557 422 2384 
C 640 2185 934 2083 1555 1999 
C 2048 1929 2272 1858 2438 1711 
C 2605 1576 2682 1390 2682 1147 
C 2682 570 2202 153 1536 153 
C 1024 153 525 403 493 666 
L 442 1095 
L 237 1095 
C 243 980 243 877 243 839 
C 243 544 230 403 192 115 
C 557 -45 928 -128 1299 -128 
C 2413 -128 3219 544 3219 1474 
C 3219 1775 3136 1986 2957 2153 
C 2733 2365 2464 2448 1747 2544 
C 966 2647 691 2858 691 3352 
C 691 3890 1094 4275 1658 4275 
C 1907 4275 2144 4224 2317 4127 
C 2528 4018 2598 3922 2618 3736 
L 2656 3371 
L 2861 3371 
z
" transform="scale(0.015625)"/>
      <path id="URWPalladioL-Roma-6f" d="M 1786 3008 
C 851 3008 205 2347 205 1391 
C 205 487 774 -128 1600 -128 
C 2586 -128 3290 557 3290 1520 
C 3290 2386 2662 3008 1786 3008 
z
M 1670 2796 
C 2259 2796 2694 2155 2694 1282 
C 2694 545 2368 83 1850 83 
C 1222 83 800 699 800 1609 
C 800 2379 1107 2796 1670 2796 
z
" transform="scale(0.015625)"/>
      <path id="URWPalladioL-Roma-6d" d="M 115 2579 
L 352 2579 
C 608 2579 634 2534 634 2112 
L 634 672 
C 634 268 614 224 397 211 
L 102 192 
L 102 0 
C 717 0 736 0 915 0 
C 1094 19 1261 12 1677 0 
L 1677 192 
L 1408 211 
C 1190 223 1171 268 1171 670 
L 1171 2023 
C 1171 2311 1594 2624 1978 2624 
C 2323 2624 2560 2298 2560 1813 
L 2560 670 
C 2560 268 2541 223 2323 211 
L 2029 192 
L 2029 0 
C 2669 0 2669 0 2829 0 
C 2989 19 2989 19 3629 0 
L 3629 192 
L 3334 211 
C 3117 223 3098 268 3098 670 
L 3098 2023 
C 3098 2311 3520 2624 3904 2624 
C 4250 2624 4486 2298 4486 1813 
L 4486 0 
C 4877 0 4883 0 4992 0 
C 5075 19 5075 19 5562 0 
L 5562 192 
L 5261 211 
C 5043 223 5024 268 5024 670 
L 5024 1985 
C 5024 2617 4653 3014 4064 3014 
C 3840 3014 3654 2956 3539 2854 
L 3053 2419 
C 2848 2841 2586 3014 2144 3014 
C 1907 3014 1728 2956 1613 2854 
L 1171 2445 
L 1171 2988 
L 1114 3008 
C 787 2873 454 2783 115 2745 
L 115 2579 
z
" transform="scale(0.015625)"/>
      <path id="URWPalladioL-Roma-65" d="M 2797 447 
L 2714 511 
C 2304 268 2157 211 1882 211 
C 1466 211 1120 396 941 710 
C 819 921 774 1100 762 1472 
L 1696 1472 
C 2138 1472 2413 1491 2854 1561 
C 2861 1651 2867 1708 2867 1786 
C 2867 2526 2394 3008 1677 3008 
C 1440 3008 1165 2924 902 2771 
C 378 2468 166 2069 166 1401 
C 166 998 262 652 435 409 
C 691 70 1120 -128 1600 -128 
C 1837 -128 2074 -77 2336 38 
C 2509 108 2643 192 2669 230 
L 2797 447 
z
M 2298 1708 
C 1965 1696 1811 1689 1581 1689 
C 1286 1689 1120 1696 774 1728 
C 774 2030 800 2172 883 2339 
C 1018 2623 1293 2796 1600 2796 
C 1811 2796 1978 2713 2093 2539 
C 2234 2326 2278 2140 2298 1708 
z
" transform="scale(0.015625)"/>
      <path id="URWPalladioL-Roma-61" d="M 2074 544 
L 2042 0 
C 2458 0 2458 0 2541 0 
C 2573 19 2733 12 3014 0 
L 3014 192 
L 2765 204 
C 2611 211 2586 262 2586 576 
L 2586 1751 
C 2586 2688 2317 3027 1574 3027 
C 1299 3027 1043 2956 800 2809 
L 461 2604 
L 461 2187 
L 627 2142 
L 710 2341 
C 845 2642 909 2688 1203 2688 
C 1805 2688 2054 2450 2074 1866 
L 1440 1751 
C 570 1590 205 1289 205 730 
C 205 224 506 -64 1011 -64 
C 1126 -64 1235 -45 1280 -13 
L 2074 544 
z
M 2074 806 
C 1888 544 1485 300 1235 300 
C 979 300 755 537 755 812 
C 755 1049 883 1273 1075 1395 
C 1235 1491 1587 1580 2074 1651 
L 2074 806 
z
" transform="scale(0.015625)"/>
      <path id="URWPalladioL-Roma-70" d="M 64 2566 
L 301 2566 
C 557 2566 582 2521 582 2100 
L 582 -1118 
C 582 -1523 563 -1568 346 -1581 
L 51 -1600 
L 51 -1792 
C 691 -1773 691 -1773 851 -1773 
C 1011 -1773 1011 -1773 1651 -1792 
L 1651 -1600 
L 1357 -1581 
C 1139 -1568 1120 -1523 1120 -1118 
L 1120 96 
C 1312 -20 1517 -64 1805 -64 
C 1990 -64 2157 -26 2259 38 
L 2989 511 
C 3245 677 3546 1334 3546 1743 
C 3546 2451 2957 3008 2214 3008 
C 1978 3008 1747 2943 1645 2847 
L 1120 2368 
L 1120 2982 
L 1062 3008 
C 736 2873 403 2783 64 2745 
L 64 2566 
z
M 1120 1966 
C 1120 2055 1152 2126 1235 2234 
C 1421 2470 1683 2591 2003 2591 
C 2605 2591 2989 2170 2989 1507 
C 2989 792 2560 262 1984 262 
C 1632 262 1370 377 1120 639 
L 1120 1966 
z
" transform="scale(0.015625)"/>
      <path id="URWPalladioL-Roma-72" d="M 147 2579 
L 384 2579 
C 640 2579 666 2534 666 2112 
L 666 672 
C 666 268 646 224 429 211 
L 134 192 
L 134 0 
C 595 -7 762 0 922 0 
C 1050 19 1050 19 1837 0 
L 1837 192 
L 1504 211 
C 1216 230 1203 249 1203 669 
L 1203 1763 
C 1203 2145 1459 2463 1773 2463 
C 1965 2463 2099 2374 2202 2171 
L 2336 2171 
L 2394 2937 
C 2323 2982 2208 3008 2093 3008 
C 1901 3008 1696 2905 1562 2745 
L 1203 2324 
L 1203 2982 
L 1146 3008 
C 819 2873 486 2783 147 2745 
L 147 2579 
z
" transform="scale(0.015625)"/>
      <path id="URWPalladioL-Roma-69" d="M 1203 2982 
L 1146 3008 
C 819 2873 486 2784 147 2746 
L 147 2568 
L 384 2568 
C 640 2568 666 2523 666 2103 
L 666 669 
C 666 268 646 223 429 211 
L 134 192 
L 134 0 
C 774 0 774 0 934 0 
C 1094 19 1094 19 1734 0 
L 1734 192 
L 1440 211 
C 1222 224 1203 268 1203 671 
L 1203 2982 
z
M 909 4416 
C 717 4416 550 4249 550 4057 
C 550 3871 717 3705 902 3705 
C 1088 3705 1261 3871 1261 4057 
C 1261 4236 1088 4416 909 4416 
z
" transform="scale(0.015625)"/>
      <path id="URWPalladioL-Roma-64" d="M 2637 2803 
C 2278 2956 2099 3008 1875 3008 
C 1702 3008 1549 2969 1389 2886 
L 826 2592 
C 461 2400 224 1934 224 1392 
C 224 881 397 460 710 204 
C 928 19 1229 -64 1645 -64 
C 1773 -64 1920 -39 1952 -13 
L 2662 581 
L 2630 0 
C 2944 -7 3046 0 3123 0 
C 3174 0 3264 0 3398 -7 
C 3443 6 3571 6 3706 0 
L 3706 192 
L 3411 211 
C 3194 224 3174 268 3174 672 
L 3174 4614 
L 3117 4665 
C 2835 4557 2624 4505 2118 4429 
L 2118 4249 
L 2477 4249 
C 2592 4249 2637 4179 2637 3987 
L 2637 2803 
z
M 2637 1424 
C 2637 1009 2624 945 2541 798 
C 2362 498 2048 300 1747 300 
C 1184 300 781 843 781 1602 
C 781 2298 1126 2707 1702 2707 
C 1946 2707 2202 2624 2426 2470 
C 2560 2381 2637 2298 2637 2247 
L 2637 1424 
z
" transform="scale(0.015625)"/>
      <path id="URWPalladioL-Roma-63" d="M 2554 1995 
C 2554 2290 2586 2553 2643 2783 
C 2387 2937 2163 3008 1901 3008 
C 1594 3008 1235 2886 851 2643 
C 403 2360 166 1911 166 1347 
C 166 480 774 -128 1632 -128 
C 1965 -128 2445 -7 2509 89 
L 2643 294 
L 2579 390 
C 2342 262 2138 204 1907 204 
C 1197 204 730 756 730 1603 
C 730 2290 1050 2675 1626 2675 
C 1907 2675 2214 2547 2330 2386 
L 2374 1995 
L 2554 1995 
z
" transform="scale(0.015625)"/>
      <path id="URWPalladioL-Roma-73" d="M 262 917 
C 262 474 243 282 192 25 
C 525 -84 774 -128 1069 -128 
C 1907 -128 2502 320 2502 949 
C 2502 1148 2445 1295 2323 1423 
C 2157 1584 1946 1661 1382 1770 
C 858 1872 685 2001 685 2296 
C 685 2617 909 2796 1299 2796 
C 1728 2796 2054 2572 2054 2270 
L 2054 2123 
L 2234 2123 
C 2240 2495 2246 2649 2266 2847 
C 1926 2963 1696 3008 1434 3008 
C 691 3008 237 2655 237 2078 
C 237 1770 378 1552 672 1417 
C 845 1340 1184 1237 1619 1141 
C 1907 1077 2029 942 2029 698 
C 2029 352 1709 108 1254 108 
C 787 108 454 333 454 654 
L 454 917 
L 262 917 
z
" transform="scale(0.015625)"/>
      <path id="URWPalladioL-Roma-67" d="M 3322 2452 
L 3482 2713 
L 3456 2790 
L 2547 2764 
C 2310 2956 2080 3033 1766 3033 
C 1485 3033 1158 2944 896 2790 
C 538 2586 352 2274 352 1885 
C 352 1413 646 1087 1120 1036 
L 614 638 
C 550 540 518 455 518 358 
C 518 179 634 76 941 -13 
L 384 -315 
C 294 -367 205 -604 205 -804 
C 205 -1388 774 -1792 1587 -1792 
C 2554 -1792 3315 -1183 3315 -399 
C 3315 64 3008 384 2560 384 
L 1536 384 
C 1203 384 1050 462 1050 638 
C 1050 723 1101 795 1267 939 
C 1306 972 1318 985 1344 1011 
C 1408 1004 1446 998 1498 998 
C 1773 998 2112 1119 2374 1305 
C 2662 1515 2803 1770 2803 2108 
C 2803 2235 2784 2318 2733 2452 
L 3322 2452 
z
M 1536 2816 
C 1971 2816 2266 2458 2266 1917 
C 2266 1502 1997 1216 1606 1216 
C 1178 1216 890 1547 890 2038 
C 890 2529 1126 2816 1536 2816 
z
M 1837 -64 
C 2560 -64 2810 -212 2810 -630 
C 2810 -1183 2304 -1594 1632 -1594 
C 1075 -1594 691 -1266 691 -791 
C 691 -502 858 -238 1114 -129 
C 1216 -77 1395 -64 1837 -64 
z
" transform="scale(0.015625)"/>
      <path id="URWPalladioL-Roma-6e" d="M 2624 0 
C 3014 0 3021 0 3130 0 
C 3219 19 3219 19 3661 0 
L 3661 192 
L 3398 211 
C 3181 223 3162 262 3162 670 
L 3162 1902 
C 3162 2649 2810 3014 2093 3014 
C 1856 3014 1722 2969 1587 2854 
L 1101 2432 
L 1101 2988 
L 1043 3008 
C 717 2873 384 2784 45 2746 
L 45 2568 
L 282 2568 
C 538 2568 563 2523 563 2103 
L 563 669 
C 563 268 544 223 326 211 
L 38 192 
L 38 0 
C 474 -7 646 0 832 0 
C 1018 19 1190 12 1626 0 
L 1626 192 
L 1338 211 
C 1120 223 1101 268 1101 670 
L 1101 2023 
C 1101 2311 1523 2624 1914 2624 
C 2342 2624 2624 2304 2624 1813 
L 2624 0 
z
" transform="scale(0.015625)"/>
      <path id="URWPalladioL-Roma-6c" d="M 147 4249 
L 506 4249 
C 621 4249 666 4179 666 3987 
L 666 672 
C 666 268 646 224 429 211 
L 134 192 
L 134 0 
C 774 0 774 0 934 0 
C 1094 19 1094 19 1734 0 
L 1734 192 
L 1440 211 
C 1222 224 1203 268 1203 672 
L 1203 4614 
L 1146 4665 
C 864 4557 653 4505 147 4429 
L 147 4249 
z
" transform="scale(0.015625)"/>
     </defs>
     <use xlink:href="#URWPalladioL-Roma-53" transform="scale(0.996264)"/>
     <use xlink:href="#URWPalladioL-Roma-6f" transform="translate(52.303815 0)scale(0.996264)"/>
     <use xlink:href="#URWPalladioL-Roma-6d" transform="translate(106.699395 0)scale(0.996264)"/>
     <use xlink:href="#URWPalladioL-Roma-65" transform="translate(194.669069 0)scale(0.996264)"/>
     <use xlink:href="#URWPalladioL-Roma-61" transform="translate(267.295965 0)scale(0.996264)"/>
     <use xlink:href="#URWPalladioL-Roma-70" transform="translate(317.109165 0)scale(0.996264)"/>
     <use xlink:href="#URWPalladioL-Roma-65" transform="translate(376.983559 0)scale(0.996264)"/>
     <use xlink:href="#URWPalladioL-Roma-72" transform="translate(424.703854 0)scale(0.996264)"/>
     <use xlink:href="#URWPalladioL-Roma-69" transform="translate(464.05575 0)scale(0.996264)"/>
     <use xlink:href="#URWPalladioL-Roma-6f" transform="translate(493.046112 0)scale(0.996264)"/>
     <use xlink:href="#URWPalladioL-Roma-64" transform="translate(547.441692 0)scale(0.996264)"/>
     <use xlink:href="#URWPalladioL-Roma-69" transform="translate(608.313323 0)scale(0.996264)"/>
     <use xlink:href="#URWPalladioL-Roma-63" transform="translate(637.303684 0)scale(0.996264)"/>
     <use xlink:href="#URWPalladioL-Roma-73" transform="translate(706.443853 0)scale(0.996264)"/>
     <use xlink:href="#URWPalladioL-Roma-69" transform="translate(748.685319 0)scale(0.996264)"/>
     <use xlink:href="#URWPalladioL-Roma-67" transform="translate(777.675681 0)scale(0.996264)"/>
     <use xlink:href="#URWPalladioL-Roma-6e" transform="translate(833.067358 0)scale(0.996264)"/>
     <use xlink:href="#URWPalladioL-Roma-61" transform="translate(891.049419 0)scale(0.996264)"/>
     <use xlink:href="#URWPalladioL-Roma-6c" transform="translate(940.862619 0)scale(0.996264)"/>
     <use xlink:href="#URWPalladioL-Roma-73" transform="translate(969.852981 0)scale(0.996264)"/>
    </g>
   </g>
  </g>
  <g id="axes_2">
   <g id="patch_3">
    <path d="M 41.145691 118.053678 
L 433.19952 118.053678 
L 433.19952 77.308206 
L 41.145691 77.308206 
L 41.145691 118.053678 
z
" style="fill: none"/>
   </g>
   <g id="matplotlib.axis_3">
    <g id="xtick_8">
     <g id="line2d_22">
      <path d="M 41.145691 118.053678 
L 41.145691 77.308206 
" clip-path="url(#p0c0c7326f8)" style="fill: none; stroke: #000000; stroke-opacity: 0.2; stroke-width: 0.5; stroke-linecap: round"/>
     </g>
     <g id="line2d_23">
      <g>
       <use xlink:href="#mad7a632877" x="41.145691" y="118.053678" style="fill-opacity: 0.2; stroke: #000000; stroke-opacity: 0.2; stroke-width: 0.5"/>
      </g>
     </g>
    </g>
    <g id="xtick_9">
     <g id="line2d_24">
      <path d="M 103.874303 118.053678 
L 103.874303 77.308206 
" clip-path="url(#p0c0c7326f8)" style="fill: none; stroke: #000000; stroke-opacity: 0.2; stroke-width: 0.5; stroke-linecap: round"/>
     </g>
     <g id="line2d_25">
      <g>
       <use xlink:href="#mad7a632877" x="103.874303" y="118.053678" style="fill-opacity: 0.2; stroke: #000000; stroke-opacity: 0.2; stroke-width: 0.5"/>
      </g>
     </g>
    </g>
    <g id="xtick_10">
     <g id="line2d_26">
      <path d="M 166.602916 118.053678 
L 166.602916 77.308206 
" clip-path="url(#p0c0c7326f8)" style="fill: none; stroke: #000000; stroke-opacity: 0.2; stroke-width: 0.5; stroke-linecap: round"/>
     </g>
     <g id="line2d_27">
      <g>
       <use xlink:href="#mad7a632877" x="166.602916" y="118.053678" style="fill-opacity: 0.2; stroke: #000000; stroke-opacity: 0.2; stroke-width: 0.5"/>
      </g>
     </g>
    </g>
    <g id="xtick_11">
     <g id="line2d_28">
      <path d="M 229.331529 118.053678 
L 229.331529 77.308206 
" clip-path="url(#p0c0c7326f8)" style="fill: none; stroke: #000000; stroke-opacity: 0.2; stroke-width: 0.5; stroke-linecap: round"/>
     </g>
     <g id="line2d_29">
      <g>
       <use xlink:href="#mad7a632877" x="229.331529" y="118.053678" style="fill-opacity: 0.2; stroke: #000000; stroke-opacity: 0.2; stroke-width: 0.5"/>
      </g>
     </g>
    </g>
    <g id="xtick_12">
     <g id="line2d_30">
      <path d="M 292.060141 118.053678 
L 292.060141 77.308206 
" clip-path="url(#p0c0c7326f8)" style="fill: none; stroke: #000000; stroke-opacity: 0.2; stroke-width: 0.5; stroke-linecap: round"/>
     </g>
     <g id="line2d_31">
      <g>
       <use xlink:href="#mad7a632877" x="292.060141" y="118.053678" style="fill-opacity: 0.2; stroke: #000000; stroke-opacity: 0.2; stroke-width: 0.5"/>
      </g>
     </g>
    </g>
    <g id="xtick_13">
     <g id="line2d_32">
      <path d="M 354.788754 118.053678 
L 354.788754 77.308206 
" clip-path="url(#p0c0c7326f8)" style="fill: none; stroke: #000000; stroke-opacity: 0.2; stroke-width: 0.5; stroke-linecap: round"/>
     </g>
     <g id="line2d_33">
      <g>
       <use xlink:href="#mad7a632877" x="354.788754" y="118.053678" style="fill-opacity: 0.2; stroke: #000000; stroke-opacity: 0.2; stroke-width: 0.5"/>
      </g>
     </g>
    </g>
    <g id="xtick_14">
     <g id="line2d_34">
      <path d="M 417.517367 118.053678 
L 417.517367 77.308206 
" clip-path="url(#p0c0c7326f8)" style="fill: none; stroke: #000000; stroke-opacity: 0.2; stroke-width: 0.5; stroke-linecap: round"/>
     </g>
     <g id="line2d_35">
      <g>
       <use xlink:href="#mad7a632877" x="417.517367" y="118.053678" style="fill-opacity: 0.2; stroke: #000000; stroke-opacity: 0.2; stroke-width: 0.5"/>
      </g>
     </g>
    </g>
   </g>
   <g id="matplotlib.axis_4">
    <g id="ytick_4">
     <g id="line2d_36">
      <path d="M 41.145691 116.201612 
L 433.19952 116.201612 
" clip-path="url(#p0c0c7326f8)" style="fill: none; stroke: #000000; stroke-opacity: 0.2; stroke-width: 0.5; stroke-linecap: round"/>
     </g>
     <g id="line2d_37">
      <g>
       <use xlink:href="#m5c9adb2495" x="41.145691" y="116.201612" style="fill-opacity: 0.2; stroke: #000000; stroke-opacity: 0.2; stroke-width: 0.5"/>
      </g>
     </g>
     <g id="text_5">
      <!-- $\mathdefault{0}$ -->
      <g transform="translate(18.671843 121.191376)scale(0.14 -0.14)">
       <use xlink:href="#URWPalladioL-Roma-30" transform="scale(0.996264)"/>
      </g>
     </g>
    </g>
    <g id="ytick_5">
     <g id="line2d_38">
      <path d="M 41.145691 86.521052 
L 433.19952 86.521052 
" clip-path="url(#p0c0c7326f8)" style="fill: none; stroke: #000000; stroke-opacity: 0.2; stroke-width: 0.5; stroke-linecap: round"/>
     </g>
     <g id="line2d_39">
      <g>
       <use xlink:href="#m5c9adb2495" x="41.145691" y="86.521052" style="fill-opacity: 0.2; stroke: #000000; stroke-opacity: 0.2; stroke-width: 0.5"/>
      </g>
     </g>
     <g id="text_6">
      <!-- $\mathdefault{1}$ -->
      <g transform="translate(18.671843 91.510817)scale(0.14 -0.14)">
       <use xlink:href="#URWPalladioL-Roma-31" transform="scale(0.996264)"/>
      </g>
     </g>
    </g>
   </g>
   <g id="line2d_40">
    <path d="M 41.145691 116.201612 
L 432.572234 79.160273 
L 432.572234 79.160273 
" clip-path="url(#p0c0c7326f8)" style="fill: none; stroke: #dc2830; stroke-width: 2; stroke-linecap: round"/>
   </g>
  </g>
  <g id="axes_3">
   <g id="patch_4">
    <path d="M 41.145691 171.861659 
L 433.19952 171.861659 
L 433.19952 131.116186 
L 41.145691 131.116186 
L 41.145691 171.861659 
z
" style="fill: none"/>
   </g>
   <g id="matplotlib.axis_5">
    <g id="xtick_15">
     <g id="line2d_41">
      <path d="M 41.145691 171.861659 
L 41.145691 131.116186 
" clip-path="url(#p04426f13fb)" style="fill: none; stroke: #000000; stroke-opacity: 0.2; stroke-width: 0.5; stroke-linecap: round"/>
     </g>
     <g id="line2d_42">
      <g>
       <use xlink:href="#mad7a632877" x="41.145691" y="171.861659" style="fill-opacity: 0.2; stroke: #000000; stroke-opacity: 0.2; stroke-width: 0.5"/>
      </g>
     </g>
     <g id="text_7">
      <!-- $\mathdefault{0.0}$ -->
      <g transform="translate(32.428381 197.341188)scale(0.14 -0.14)">
       <defs>
        <path id="URWPalladioL-Roma-2e" d="M 794 678 
C 602 678 429 499 429 307 
C 429 115 602 -64 787 -64 
C 992 -64 1171 108 1171 307 
C 1171 499 992 678 794 678 
z
" transform="scale(0.015625)"/>
       </defs>
       <use xlink:href="#URWPalladioL-Roma-30" transform="scale(0.996264)"/>
       <use xlink:href="#URWPalladioL-Roma-2e" transform="translate(49.8132 0)scale(0.996264)"/>
       <use xlink:href="#URWPalladioL-Roma-30" transform="translate(74.719801 0)scale(0.996264)"/>
      </g>
     </g>
    </g>
    <g id="xtick_16">
     <g id="line2d_43">
      <path d="M 103.874303 171.861659 
L 103.874303 131.116186 
" clip-path="url(#p04426f13fb)" style="fill: none; stroke: #000000; stroke-opacity: 0.2; stroke-width: 0.5; stroke-linecap: round"/>
     </g>
     <g id="line2d_44">
      <g>
       <use xlink:href="#mad7a632877" x="103.874303" y="171.861659" style="fill-opacity: 0.2; stroke: #000000; stroke-opacity: 0.2; stroke-width: 0.5"/>
      </g>
     </g>
     <g id="text_8">
      <!-- $\mathdefault{0.2}$ -->
      <g transform="translate(95.156993 197.341188)scale(0.14 -0.14)">
       <defs>
        <path id="URWPalladioL-Roma-32" d="M 102 166 
L 102 0 
C 1299 0 1299 0 1530 0 
C 1760 19 1760 19 2995 0 
C 2982 134 2982 198 2982 287 
C 2982 370 2982 434 2995 574 
C 2259 542 1965 536 781 510 
L 1946 1741 
C 2566 2398 2758 2749 2758 3228 
C 2758 3961 2259 4416 1446 4416 
C 986 4416 672 4287 358 3967 
L 250 3100 
L 435 3100 
L 518 3394 
C 621 3763 851 3923 1280 3923 
C 1830 3923 2182 3578 2182 3036 
C 2182 2558 1914 2086 1190 1320 
L 102 166 
z
" transform="scale(0.015625)"/>
       </defs>
       <use xlink:href="#URWPalladioL-Roma-30" transform="scale(0.996264)"/>
       <use xlink:href="#URWPalladioL-Roma-2e" transform="translate(49.8132 0)scale(0.996264)"/>
       <use xlink:href="#URWPalladioL-Roma-32" transform="translate(74.719801 0)scale(0.996264)"/>
      </g>
     </g>
    </g>
    <g id="xtick_17">
     <g id="line2d_45">
      <path d="M 166.602916 171.861659 
L 166.602916 131.116186 
" clip-path="url(#p04426f13fb)" style="fill: none; stroke: #000000; stroke-opacity: 0.2; stroke-width: 0.5; stroke-linecap: round"/>
     </g>
     <g id="line2d_46">
      <g>
       <use xlink:href="#mad7a632877" x="166.602916" y="171.861659" style="fill-opacity: 0.2; stroke: #000000; stroke-opacity: 0.2; stroke-width: 0.5"/>
      </g>
     </g>
     <g id="text_9">
      <!-- $\mathdefault{0.4}$ -->
      <g transform="translate(157.885606 197.341188)scale(0.14 -0.14)">
       <defs>
        <path id="URWPalladioL-Roma-34" d="M 1792 1152 
L 1792 684 
C 1792 310 1722 223 1408 210 
L 1011 192 
L 1011 0 
C 1862 0 1862 0 2016 0 
C 2170 19 2170 19 3021 0 
L 3021 192 
L 2714 210 
C 2400 229 2330 310 2330 684 
L 2330 1152 
C 2707 1152 2842 1145 3021 1127 
L 3021 1580 
C 2720 1555 2598 1555 2502 1561 
L 2483 1561 
L 2330 1561 
L 2330 2445 
C 2330 3576 2342 4122 2374 4383 
L 2298 4416 
L 1824 4243 
L 13 1299 
L 83 1152 
L 1792 1152 
z
M 1792 1561 
L 416 1561 
L 1792 3798 
L 1792 1561 
z
" transform="scale(0.015625)"/>
       </defs>
       <use xlink:href="#URWPalladioL-Roma-30" transform="scale(0.996264)"/>
       <use xlink:href="#URWPalladioL-Roma-2e" transform="translate(49.8132 0)scale(0.996264)"/>
       <use xlink:href="#URWPalladioL-Roma-34" transform="translate(74.719801 0)scale(0.996264)"/>
      </g>
     </g>
    </g>
    <g id="xtick_18">
     <g id="line2d_47">
      <path d="M 229.331529 171.861659 
L 229.331529 131.116186 
" clip-path="url(#p04426f13fb)" style="fill: none; stroke: #000000; stroke-opacity: 0.2; stroke-width: 0.5; stroke-linecap: round"/>
     </g>
     <g id="line2d_48">
      <g>
       <use xlink:href="#mad7a632877" x="229.331529" y="171.861659" style="fill-opacity: 0.2; stroke: #000000; stroke-opacity: 0.2; stroke-width: 0.5"/>
      </g>
     </g>
     <g id="text_10">
      <!-- $\mathdefault{0.6}$ -->
      <g transform="translate(220.614219 197.341188)scale(0.14 -0.14)">
       <defs>
        <path id="URWPalladioL-Roma-36" d="M 2662 4287 
L 2426 4396 
C 1811 4193 1549 4066 1222 3788 
C 563 3237 205 2463 205 1585 
C 205 526 717 -128 1542 -128 
C 2374 -128 2995 532 2995 1405 
C 2995 2143 2554 2624 1875 2624 
C 1555 2624 1363 2540 986 2239 
C 915 2182 909 2175 838 2124 
C 973 3275 1510 3895 2662 4237 
L 2662 4287 
z
M 1632 2239 
C 2118 2239 2445 1816 2445 1180 
C 2445 513 2118 83 1626 83 
C 1082 83 787 551 787 1411 
C 787 1636 813 1758 883 1867 
C 1024 2085 1325 2239 1632 2239 
z
" transform="scale(0.015625)"/>
       </defs>
       <use xlink:href="#URWPalladioL-Roma-30" transform="scale(0.996264)"/>
       <use xlink:href="#URWPalladioL-Roma-2e" transform="translate(49.8132 0)scale(0.996264)"/>
       <use xlink:href="#URWPalladioL-Roma-36" transform="translate(74.719801 0)scale(0.996264)"/>
      </g>
     </g>
    </g>
    <g id="xtick_19">
     <g id="line2d_49">
      <path d="M 292.060141 171.861659 
L 292.060141 131.116186 
" clip-path="url(#p04426f13fb)" style="fill: none; stroke: #000000; stroke-opacity: 0.2; stroke-width: 0.5; stroke-linecap: round"/>
     </g>
     <g id="line2d_50">
      <g>
       <use xlink:href="#mad7a632877" x="292.060141" y="171.861659" style="fill-opacity: 0.2; stroke: #000000; stroke-opacity: 0.2; stroke-width: 0.5"/>
      </g>
     </g>
     <g id="text_11">
      <!-- $\mathdefault{0.8}$ -->
      <g transform="translate(283.342831 197.341188)scale(0.14 -0.14)">
       <defs>
        <path id="URWPalladioL-Roma-38" d="M 1075 2211 
C 813 2089 704 2019 563 1884 
C 320 1640 192 1352 192 1019 
C 192 358 723 -128 1446 -128 
C 2278 -128 2970 525 2970 1320 
C 2970 1833 2733 2108 2003 2442 
C 2586 2839 2790 3108 2790 3493 
C 2790 4044 2336 4416 1658 4416 
C 896 4416 339 3929 339 3256 
C 339 2820 512 2576 1075 2211 
z
M 1818 1890 
C 2221 1711 2464 1397 2464 1051 
C 2464 512 2061 89 1542 89 
C 998 89 646 474 646 1070 
C 646 1538 832 1833 1306 2121 
L 1818 1890 
z
M 1427 2711 
C 1024 2910 819 3166 819 3486 
C 819 3910 1126 4198 1581 4198 
C 2048 4198 2355 3890 2355 3422 
C 2355 3057 2195 2807 1779 2538 
L 1427 2711 
z
" transform="scale(0.015625)"/>
       </defs>
       <use xlink:href="#URWPalladioL-Roma-30" transform="scale(0.996264)"/>
       <use xlink:href="#URWPalladioL-Roma-2e" transform="translate(49.8132 0)scale(0.996264)"/>
       <use xlink:href="#URWPalladioL-Roma-38" transform="translate(74.719801 0)scale(0.996264)"/>
      </g>
     </g>
    </g>
    <g id="xtick_20">
     <g id="line2d_51">
      <path d="M 354.788754 171.861659 
L 354.788754 131.116186 
" clip-path="url(#p04426f13fb)" style="fill: none; stroke: #000000; stroke-opacity: 0.2; stroke-width: 0.5; stroke-linecap: round"/>
     </g>
     <g id="line2d_52">
      <g>
       <use xlink:href="#mad7a632877" x="354.788754" y="171.861659" style="fill-opacity: 0.2; stroke: #000000; stroke-opacity: 0.2; stroke-width: 0.5"/>
      </g>
     </g>
     <g id="text_12">
      <!-- $\mathdefault{1.0}$ -->
      <g transform="translate(346.071444 197.341188)scale(0.14 -0.14)">
       <use xlink:href="#URWPalladioL-Roma-31" transform="scale(0.996264)"/>
       <use xlink:href="#URWPalladioL-Roma-2e" transform="translate(49.8132 0)scale(0.996264)"/>
       <use xlink:href="#URWPalladioL-Roma-30" transform="translate(74.719801 0)scale(0.996264)"/>
      </g>
     </g>
    </g>
    <g id="xtick_21">
     <g id="line2d_53">
      <path d="M 417.517367 171.861659 
L 417.517367 131.116186 
" clip-path="url(#p04426f13fb)" style="fill: none; stroke: #000000; stroke-opacity: 0.2; stroke-width: 0.5; stroke-linecap: round"/>
     </g>
     <g id="line2d_54">
      <g>
       <use xlink:href="#mad7a632877" x="417.517367" y="171.861659" style="fill-opacity: 0.2; stroke: #000000; stroke-opacity: 0.2; stroke-width: 0.5"/>
      </g>
     </g>
     <g id="text_13">
      <!-- $\mathdefault{1.2}$ -->
      <g transform="translate(408.800057 197.341188)scale(0.14 -0.14)">
       <use xlink:href="#URWPalladioL-Roma-31" transform="scale(0.996264)"/>
       <use xlink:href="#URWPalladioL-Roma-2e" transform="translate(49.8132 0)scale(0.996264)"/>
       <use xlink:href="#URWPalladioL-Roma-32" transform="translate(74.719801 0)scale(0.996264)"/>
      </g>
     </g>
    </g>
    <g id="text_14">
     <!-- Time $t$ [seconds] -->
     <g transform="translate(193.865441 213.828236)scale(0.12 -0.12)">
      <defs>
       <path id="URWPalladioL-Roma-54" d="M 1632 4096 
C 1651 3880 1658 3734 1658 3462 
L 1658 781 
C 1658 280 1626 230 1331 211 
L 1024 192 
L 1024 0 
C 1402 -7 1626 0 1958 0 
C 2291 19 2522 12 2899 0 
L 2899 192 
L 2592 211 
C 2298 230 2266 280 2266 781 
L 2266 3462 
C 2266 3747 2272 3887 2291 4096 
L 3283 4096 
C 3462 4096 3533 4039 3539 3887 
L 3565 3386 
L 3763 3386 
C 3763 3801 3776 4051 3808 4416 
C 3347 4409 3136 4409 2957 4403 
C 2707 4390 2522 4390 2426 4390 
L 1414 4390 
C 1350 4390 1005 4396 550 4403 
L 115 4416 
C 147 4051 160 3801 160 3385 
L 358 3385 
L 384 3891 
C 390 4038 461 4096 640 4096 
L 1632 4096 
z
" transform="scale(0.015625)"/>
       <path id="URWPalladioL-Ital-74" d="M 800 2489 
L 442 678 
C 435 633 429 620 410 544 
C 371 364 358 268 358 192 
C 358 32 429 -64 550 -64 
C 774 -64 998 64 1498 467 
L 1594 544 
L 1696 627 
L 1632 742 
L 1344 544 
C 1158 416 1030 352 960 352 
C 902 352 870 403 870 480 
C 870 646 960 1164 1146 2092 
L 1229 2489 
L 1914 2489 
L 1984 2809 
C 1741 2784 1523 2771 1280 2771 
C 1382 3373 1453 3686 1568 4032 
L 1498 4128 
C 1370 4051 1197 3974 998 3897 
L 838 2809 
C 557 2675 390 2604 275 2572 
L 262 2489 
L 800 2489 
z
" transform="scale(0.015625)"/>
       <path id="URWPalladioL-Roma-5b" d="M 563 -1178 
C 1018 -1166 1030 -1166 1184 -1166 
C 1338 -1166 1370 -1166 1805 -1178 
L 1843 -1140 
L 1843 -974 
L 1818 -942 
L 1574 -942 
C 1402 -942 1261 -903 1184 -839 
C 1126 -782 1107 -692 1107 -481 
C 1107 -474 1107 -340 1101 -148 
L 1101 89 
L 1101 3379 
L 1101 3615 
C 1107 3795 1107 3935 1107 3942 
C 1107 4153 1126 4249 1184 4307 
C 1261 4371 1402 4409 1574 4409 
L 1818 4409 
L 1843 4441 
L 1843 4608 
L 1805 4646 
C 1357 4633 1338 4633 1184 4633 
C 1037 4633 1005 4633 563 4646 
L 506 4563 
C 544 4403 557 4191 557 3699 
C 557 3603 557 3526 563 3462 
L 563 3379 
L 563 89 
L 563 6 
C 557 -97 557 -103 557 -212 
L 557 -282 
C 557 -718 544 -897 506 -1095 
L 563 -1178 
z
" transform="scale(0.015625)"/>
       <path id="URWPalladioL-Roma-5d" d="M 1568 4646 
C 1114 4633 1094 4633 947 4633 
C 794 4633 762 4633 326 4646 
L 288 4608 
L 288 4441 
L 314 4409 
L 557 4409 
C 730 4409 864 4371 941 4307 
C 1005 4249 1024 4159 1024 3942 
C 1024 3923 1024 3795 1030 3615 
L 1030 3379 
L 1030 89 
L 1030 -148 
C 1024 -334 1024 -449 1024 -468 
C 1024 -686 1005 -782 941 -839 
C 864 -903 730 -942 557 -942 
L 314 -942 
L 288 -974 
L 288 -1140 
L 326 -1178 
C 774 -1166 787 -1166 947 -1166 
C 1094 -1166 1126 -1166 1568 -1178 
L 1626 -1095 
C 1587 -942 1581 -743 1574 -250 
C 1574 -161 1574 -78 1568 6 
L 1568 89 
L 1568 3379 
L 1568 3462 
C 1574 3532 1574 3615 1574 3705 
C 1574 4198 1587 4409 1626 4563 
L 1568 4646 
z
" transform="scale(0.015625)"/>
      </defs>
      <use xlink:href="#URWPalladioL-Roma-54" transform="scale(0.996264)"/>
      <use xlink:href="#URWPalladioL-Roma-69" transform="translate(55.591109 0)scale(0.996264)"/>
      <use xlink:href="#URWPalladioL-Roma-6d" transform="translate(84.581471 0)scale(0.996264)"/>
      <use xlink:href="#URWPalladioL-Roma-65" transform="translate(172.551145 0)scale(0.996264)"/>
      <use xlink:href="#URWPalladioL-Ital-74" transform="translate(246.42334 0)scale(0.996264)"/>
      <use xlink:href="#URWPalladioL-Roma-5b" transform="translate(305.749922 0)scale(0.996264)"/>
      <use xlink:href="#URWPalladioL-Roma-73" transform="translate(338.925152 0)scale(0.996264)"/>
      <use xlink:href="#URWPalladioL-Roma-65" transform="translate(381.166618 0)scale(0.996264)"/>
      <use xlink:href="#URWPalladioL-Roma-63" transform="translate(428.886913 0)scale(0.996264)"/>
      <use xlink:href="#URWPalladioL-Roma-6f" transform="translate(473.120482 0)scale(0.996264)"/>
      <use xlink:href="#URWPalladioL-Roma-6e" transform="translate(527.516062 0)scale(0.996264)"/>
      <use xlink:href="#URWPalladioL-Roma-64" transform="translate(585.498123 0)scale(0.996264)"/>
      <use xlink:href="#URWPalladioL-Roma-73" transform="translate(646.369754 0)scale(0.996264)"/>
      <use xlink:href="#URWPalladioL-Roma-5d" transform="translate(688.61122 0)scale(0.996264)"/>
     </g>
    </g>
   </g>
   <g id="matplotlib.axis_6">
    <g id="ytick_6">
     <g id="line2d_55">
      <path d="M 41.145691 170.009592 
L 433.19952 170.009592 
" clip-path="url(#p04426f13fb)" style="fill: none; stroke: #000000; stroke-opacity: 0.2; stroke-width: 0.5; stroke-linecap: round"/>
     </g>
     <g id="line2d_56">
      <g>
       <use xlink:href="#m5c9adb2495" x="41.145691" y="170.009592" style="fill-opacity: 0.2; stroke: #000000; stroke-opacity: 0.2; stroke-width: 0.5"/>
      </g>
     </g>
     <g id="text_15">
      <!-- $\mathdefault{0.0}$ -->
      <g transform="translate(8.211071 174.999356)scale(0.14 -0.14)">
       <use xlink:href="#URWPalladioL-Roma-30" transform="scale(0.996264)"/>
       <use xlink:href="#URWPalladioL-Roma-2e" transform="translate(49.8132 0)scale(0.996264)"/>
       <use xlink:href="#URWPalladioL-Roma-30" transform="translate(74.719801 0)scale(0.996264)"/>
      </g>
     </g>
    </g>
    <g id="ytick_7">
     <g id="line2d_57">
      <path d="M 41.145691 146.858755 
L 433.19952 146.858755 
" clip-path="url(#p04426f13fb)" style="fill: none; stroke: #000000; stroke-opacity: 0.2; stroke-width: 0.5; stroke-linecap: round"/>
     </g>
     <g id="line2d_58">
      <g>
       <use xlink:href="#m5c9adb2495" x="41.145691" y="146.858755" style="fill-opacity: 0.2; stroke: #000000; stroke-opacity: 0.2; stroke-width: 0.5"/>
      </g>
     </g>
     <g id="text_16">
      <!-- $\mathdefault{0.5}$ -->
      <g transform="translate(8.211071 151.84852)scale(0.14 -0.14)">
       <defs>
        <path id="URWPalladioL-Roma-35" d="M 813 3891 
C 1638 3865 1997 3859 2765 3859 
L 2797 3891 
C 2784 4006 2784 4057 2784 4140 
C 2784 4230 2784 4281 2797 4396 
L 2765 4428 
C 2285 4403 1997 4396 1651 4396 
C 1299 4396 1018 4403 538 4428 
L 506 4396 
C 512 4006 518 3724 518 3520 
C 518 2976 499 2360 480 2076 
L 608 2038 
C 909 2341 1082 2432 1395 2432 
C 2010 2432 2394 1992 2394 1295 
C 2394 579 1984 160 1286 160 
C 941 160 621 276 531 443 
L 237 973 
L 83 882 
C 230 514 307 308 397 25 
C 576 -71 832 -128 1107 -128 
C 1536 -128 1990 57 2342 366 
C 2733 715 2938 1153 2938 1631 
C 2938 2360 2419 2873 1690 2873 
C 1382 2873 1152 2790 755 2553 
L 813 3891 
z
" transform="scale(0.015625)"/>
       </defs>
       <use xlink:href="#URWPalladioL-Roma-30" transform="scale(0.996264)"/>
       <use xlink:href="#URWPalladioL-Roma-2e" transform="translate(49.8132 0)scale(0.996264)"/>
       <use xlink:href="#URWPalladioL-Roma-35" transform="translate(74.719801 0)scale(0.996264)"/>
      </g>
     </g>
    </g>
   </g>
   <g id="line2d_59">
    <path d="M 41.145691 170.009592 
L 93.210439 170.009592 
L 93.837725 160.749257 
L 197.339936 160.749257 
L 197.967222 151.488922 
L 302.096719 151.488922 
L 302.724006 142.228588 
L 406.853503 142.228588 
L 407.480789 132.968253 
L 432.572234 132.968253 
L 432.572234 132.968253 
" clip-path="url(#p04426f13fb)" style="fill: none; stroke: #f2aa00; stroke-width: 2; stroke-linecap: round"/>
   </g>
  </g>
  <g id="legend_1">
   <g id="patch_5">
    <path d="M 445.99976 145.979202 
L 565.534251 145.979202 
Q 568.334251 145.979202 568.334251 143.179202 
L 568.334251 81.220318 
Q 568.334251 78.420318 565.534251 78.420318 
L 445.99976 78.420318 
Q 443.19976 78.420318 443.19976 81.220318 
L 443.19976 143.179202 
Q 443.19976 145.979202 445.99976 145.979202 
z
" style="fill: #ffffff; opacity: 0.95; stroke: #cccccc; stroke-width: 0.5; stroke-linejoin: miter"/>
   </g>
   <g id="line2d_60">
    <path d="M 448.79976 89.099847 
L 455.79976 89.099847 
L 462.79976 89.099847 
" style="fill: none; stroke: #0271ae; stroke-width: 2; stroke-linecap: round"/>
   </g>
   <g id="text_17">
    <!-- Random noise -->
    <g transform="translate(473.99976 93.999847)scale(0.14 -0.14)">
     <defs>
      <path id="URWPalladioL-Roma-52" d="M 1382 4096 
C 1600 4147 1792 4172 2010 4172 
C 2675 4172 3046 3867 3046 3328 
C 3046 2744 2579 2375 1837 2375 
C 1792 2375 1734 2375 1651 2382 
L 1613 2306 
C 1683 2223 1702 2198 1779 2115 
C 1869 2014 1888 1988 1946 1912 
L 3123 344 
C 3162 293 3200 242 3238 198 
C 3283 140 3322 83 3386 0 
C 3686 0 3750 0 3821 0 
C 3878 19 3878 19 4282 0 
L 4282 192 
C 4077 211 3974 249 3891 357 
L 2438 2236 
C 2797 2325 2963 2394 3174 2541 
C 3507 2775 3686 3093 3686 3461 
C 3686 4071 3238 4416 2445 4416 
L 2342 4416 
C 1510 4396 1510 4396 1293 4396 
C 1082 4396 1082 4396 186 4416 
L 186 4223 
L 448 4204 
C 742 4185 774 4128 774 3633 
L 774 782 
C 774 280 742 230 448 211 
L 141 192 
L 141 0 
C 518 -7 742 0 1075 0 
C 1408 19 1638 12 2016 0 
L 2016 192 
L 1709 211 
C 1414 230 1382 281 1382 787 
L 1382 4096 
z
" transform="scale(0.015625)"/>
     </defs>
     <use xlink:href="#URWPalladioL-Roma-52" transform="scale(0.996264)"/>
     <use xlink:href="#URWPalladioL-Roma-61" transform="translate(66.549694 0)scale(0.996264)"/>
     <use xlink:href="#URWPalladioL-Roma-6e" transform="translate(116.362895 0)scale(0.996264)"/>
     <use xlink:href="#URWPalladioL-Roma-64" transform="translate(174.344955 0)scale(0.996264)"/>
     <use xlink:href="#URWPalladioL-Roma-6f" transform="translate(235.216586 0)scale(0.996264)"/>
     <use xlink:href="#URWPalladioL-Roma-6d" transform="translate(289.612166 0)scale(0.996264)"/>
     <use xlink:href="#URWPalladioL-Roma-6e" transform="translate(402.488441 0)scale(0.996264)"/>
     <use xlink:href="#URWPalladioL-Roma-6f" transform="translate(460.470501 0)scale(0.996264)"/>
     <use xlink:href="#URWPalladioL-Roma-69" transform="translate(514.866081 0)scale(0.996264)"/>
     <use xlink:href="#URWPalladioL-Roma-73" transform="translate(543.856443 0)scale(0.996264)"/>
     <use xlink:href="#URWPalladioL-Roma-65" transform="translate(586.097909 0)scale(0.996264)"/>
    </g>
   </g>
   <g id="line2d_61">
    <path d="M 448.79976 110.633328 
L 455.79976 110.633328 
L 462.79976 110.633328 
" style="fill: none; stroke: #dc2830; stroke-width: 2; stroke-linecap: round"/>
   </g>
   <g id="text_18">
    <!-- $x(t)=t$ -->
    <g transform="translate(473.99976 115.533328)scale(0.14 -0.14)">
     <defs>
      <path id="URWPalladioL-Ital-78" d="M 134 567 
C 134 440 122 358 83 153 
C 70 76 64 57 58 12 
C 154 -39 256 -64 333 -64 
C 544 -64 794 121 992 421 
L 1478 1164 
L 1549 726 
C 1632 185 1779 -64 2010 -64 
C 2150 -64 2355 44 2560 230 
L 2874 510 
L 2816 631 
C 2586 440 2426 345 2323 345 
C 2227 345 2144 409 2080 536 
C 2022 656 1952 891 1920 1075 
L 1805 1716 
L 2029 2027 
C 2330 2439 2502 2585 2701 2585 
C 2803 2585 2880 2534 2912 2439 
L 3002 2465 
L 3098 3007 
C 3021 3052 2963 3072 2906 3072 
C 2650 3072 2394 2841 1997 2255 
L 1760 1906 
L 1722 2211 
C 1645 2841 1472 3072 1094 3072 
C 928 3072 787 3020 730 2937 
L 358 2408 
L 467 2344 
C 659 2560 787 2649 909 2649 
C 1120 2649 1261 2389 1370 1767 
L 1440 1373 
L 1184 980 
C 909 555 691 352 512 352 
C 416 352 346 377 333 409 
L 262 586 
L 134 567 
z
" transform="scale(0.015625)"/>
      <path id="CMR10-28" d="M 2118 -1536 
C 2118 -1517 2118 -1504 2010 -1396 
C 1210 -589 1005 620 1005 1600 
C 1005 2713 1248 3827 2035 4627 
C 2118 4704 2118 4716 2118 4736 
C 2118 4780 2093 4800 2054 4800 
C 1990 4800 1414 4365 1037 3552 
C 710 2848 634 2137 634 1600 
C 634 1100 704 326 1056 -397 
C 1440 -1184 1990 -1600 2054 -1600 
C 2093 -1600 2118 -1581 2118 -1536 
z
" transform="scale(0.015625)"/>
      <path id="CMR10-29" d="M 1850 1600 
C 1850 2099 1779 2873 1427 3597 
C 1043 4384 493 4800 429 4800 
C 390 4800 365 4774 365 4736 
C 365 4716 365 4704 486 4589 
C 1114 3955 1478 2937 1478 1600 
C 1478 505 1242 -621 448 -1428 
C 365 -1504 365 -1517 365 -1536 
C 365 -1575 390 -1600 429 -1600 
C 493 -1600 1069 -1165 1446 -352 
C 1773 352 1850 1062 1850 1600 
z
" transform="scale(0.015625)"/>
      <path id="CMR10-3d" d="M 4397 2111 
C 4493 2111 4614 2111 4614 2239 
C 4614 2368 4493 2368 4403 2368 
L 570 2368 
C 480 2368 358 2368 358 2239 
C 358 2111 480 2111 576 2111 
L 4397 2111 
z
M 4403 832 
C 4493 832 4614 832 4614 960 
C 4614 1088 4493 1088 4397 1088 
L 576 1088 
C 480 1088 358 1088 358 960 
C 358 832 480 832 570 832 
L 4403 832 
z
" transform="scale(0.015625)"/>
     </defs>
     <use xlink:href="#URWPalladioL-Ital-78" transform="scale(0.996264)"/>
     <use xlink:href="#CMR10-28" transform="translate(53.299136 0)scale(1.038107)"/>
     <use xlink:href="#URWPalladioL-Ital-74" transform="translate(96.038841 0)scale(0.996264)"/>
     <use xlink:href="#CMR10-29" transform="translate(131.704123 0)scale(1.038107)"/>
     <use xlink:href="#CMR10-3d" transform="translate(202.11776 0)scale(1.038107)"/>
     <use xlink:href="#URWPalladioL-Ital-74" transform="translate(312.978689 0)scale(0.996264)"/>
    </g>
   </g>
   <g id="line2d_62">
    <path d="M 448.79976 131.54603 
L 455.79976 131.54603 
L 462.79976 131.54603 
" style="fill: none; stroke: #f2aa00; stroke-width: 2; stroke-linecap: round"/>
   </g>
   <g id="text_19">
    <!-- Staircase -->
    <g transform="translate(473.99976 136.44603)scale(0.14 -0.14)">
     <defs>
      <path id="URWPalladioL-Roma-74" d="M 627 2457 
L 627 614 
C 627 140 838 -64 1331 -64 
C 1478 -64 1632 -32 1670 12 
L 1978 352 
L 1894 460 
C 1734 371 1638 339 1517 339 
C 1267 339 1165 467 1165 780 
L 1165 2457 
L 1984 2457 
L 2042 2803 
L 1165 2764 
L 1165 3008 
C 1165 3277 1184 3507 1235 3917 
L 1158 3987 
C 1005 3891 813 3808 614 3744 
C 634 3552 640 3430 640 3238 
L 640 2790 
L 141 2566 
L 141 2432 
L 627 2457 
z
" transform="scale(0.015625)"/>
     </defs>
     <use xlink:href="#URWPalladioL-Roma-53" transform="scale(0.996264)"/>
     <use xlink:href="#URWPalladioL-Roma-74" transform="translate(52.303815 0)scale(0.996264)"/>
     <use xlink:href="#URWPalladioL-Roma-61" transform="translate(84.780903 0)scale(0.996264)"/>
     <use xlink:href="#URWPalladioL-Roma-69" transform="translate(134.594103 0)scale(0.996264)"/>
     <use xlink:href="#URWPalladioL-Roma-72" transform="translate(163.584465 0)scale(0.996264)"/>
     <use xlink:href="#URWPalladioL-Roma-63" transform="translate(201.143782 0)scale(0.996264)"/>
     <use xlink:href="#URWPalladioL-Roma-61" transform="translate(245.377351 0)scale(0.996264)"/>
     <use xlink:href="#URWPalladioL-Roma-73" transform="translate(295.190551 0)scale(0.996264)"/>
     <use xlink:href="#URWPalladioL-Roma-65" transform="translate(337.432018 0)scale(0.996264)"/>
    </g>
   </g>
  </g>
 </g>
 <defs>
  <clipPath id="p450f1186fb">
   <rect x="41.145691" y="23.179529" width="392.053829" height="40.745472"/>
  </clipPath>
  <clipPath id="p0c0c7326f8">
   <rect x="41.145691" y="77.308206" width="392.053829" height="40.745472"/>
  </clipPath>
  <clipPath id="p04426f13fb">
   <rect x="41.145691" y="131.116186" width="392.053829" height="40.745472"/>
  </clipPath>
 </defs>
</svg>