<?xml version="1.0" encoding="utf-8" standalone="no"?>
<!DOCTYPE svg PUBLIC "-//W3C//DTD SVG 1.1//EN"
  "http://www.w3.org/Graphics/SVG/1.1/DTD/svg11.dtd">
<svg xmlns:xlink="http://www.w3.org/1999/xlink" width="584.39952pt" height="152.432797pt" viewBox="0 0 584.39952 152.432797" xmlns="http://www.w3.org/2000/svg" version="1.1">
 <metadata>
  <rdf:RDF xmlns:dc="http://purl.org/dc/elements/1.1/" xmlns:cc="http://creativecommons.org/ns#" xmlns:rdf="http://www.w3.org/1999/02/22-rdf-syntax-ns#">
   <cc:Work>
    <dc:type rdf:resource="http://purl.org/dc/dcmitype/StillImage"/>
    <dc:date>2022-07-26T12:18:23.097173</dc:date>
    <dc:format>image/svg+xml</dc:format>
    <dc:creator>
     <cc:Agent>
      <dc:title>Matplotlib v3.5.2, https://matplotlib.org/</dc:title>
     </cc:Agent>
    </dc:creator>
   </cc:Work>
  </rdf:RDF>
 </metadata>
 <defs>
  <style type="text/css">*{stroke-linejoin: round; stroke-linecap: butt}</style>
 </defs>
 <g id="figure_1">
  <g id="patch_1">
   <path d="M 0 152.432797 
L 584.39952 152.432797 
L 584.39952 0 
L 0 0 
L 0 152.432797 
z
" style="fill: none"/>
  </g>
  <g id="axes_1">
   <g id="patch_2">
    <path d="M 57.070851 99.894936 
L 577.19952 99.894936 
L 577.19952 8.013328 
L 57.070851 8.013328 
L 57.070851 99.894936 
z
" style="fill: none"/>
   </g>
   <g id="matplotlib.axis_1">
    <g id="xtick_1">
     <g id="line2d_1">
      <path d="M 57.070851 99.894936 
L 57.070851 8.013328 
" clip-path="url(#pcc8624f122)" style="fill: none; stroke: #000000; stroke-opacity: 0.2; stroke-width: 0.5; stroke-linecap: round"/>
     </g>
     <g id="line2d_2">
      <defs>
       <path id="mfa52b7b2ae" d="M 0 0 
L 0 3.5 
" style="stroke: #000000; stroke-opacity: 0.2; stroke-width: 0.5"/>
      </defs>
      <g>
       <use xlink:href="#mfa52b7b2ae" x="57.070851" y="99.894936" style="fill-opacity: 0.2; stroke: #000000; stroke-opacity: 0.2; stroke-width: 0.5"/>
      </g>
     </g>
     <g id="text_1">
      <!-- $\mathdefault{−3}$ -->
      <g transform="translate(47.848005 125.374465)scale(0.14 -0.14)">
       <defs>
        <path id="CMSY10-0" d="M 4218 1472 
C 4326 1472 4442 1472 4442 1600 
C 4442 1728 4326 1728 4218 1728 
L 755 1728 
C 646 1728 531 1728 531 1600 
C 531 1472 646 1472 755 1472 
L 4218 1472 
z
" transform="scale(0.015625)"/>
        <path id="URWPalladioL-Roma-33" d="M 275 3196 
L 474 3196 
L 589 3553 
C 659 3770 1062 3987 1395 3987 
C 1811 3987 2150 3649 2150 3247 
C 2150 2769 1773 2368 1318 2368 
C 1267 2368 1197 2374 1114 2380 
L 1018 2387 
L 941 2047 
L 986 2008 
C 1229 2118 1350 2150 1523 2150 
C 2054 2150 2362 1808 2362 1222 
C 2362 565 1971 134 1376 134 
C 1082 134 819 231 627 411 
C 474 553 390 701 269 1048 
L 96 984 
C 230 591 282 359 320 38 
C 659 -77 941 -128 1178 -128 
C 1690 -128 2278 160 2630 591 
C 2848 855 2957 1139 2957 1441 
C 2957 1750 2829 2021 2598 2182 
C 2438 2297 2291 2348 1971 2406 
C 2483 2801 2675 3094 2675 3470 
C 2675 4038 2202 4416 1491 4416 
C 1056 4416 768 4294 461 3987 
L 275 3196 
z
" transform="scale(0.015625)"/>
       </defs>
       <use xlink:href="#CMSY10-0" transform="scale(1.038107)"/>
       <use xlink:href="#URWPalladioL-Roma-33" transform="translate(81.941696 0)scale(0.996264)"/>
      </g>
     </g>
    </g>
    <g id="xtick_2">
     <g id="line2d_3">
      <path d="M 122.103192 99.894936 
L 122.103192 8.013328 
" clip-path="url(#pcc8624f122)" style="fill: none; stroke: #000000; stroke-opacity: 0.2; stroke-width: 0.5; stroke-linecap: round"/>
     </g>
     <g id="line2d_4">
      <g>
       <use xlink:href="#mfa52b7b2ae" x="122.103192" y="99.894936" style="fill-opacity: 0.2; stroke: #000000; stroke-opacity: 0.2; stroke-width: 0.5"/>
      </g>
     </g>
     <g id="text_2">
      <!-- $\mathdefault{−2}$ -->
      <g transform="translate(112.880347 125.374465)scale(0.14 -0.14)">
       <defs>
        <path id="URWPalladioL-Roma-32" d="M 102 166 
L 102 0 
C 1299 0 1299 0 1530 0 
C 1760 19 1760 19 2995 0 
C 2982 134 2982 198 2982 287 
C 2982 370 2982 434 2995 574 
C 2259 542 1965 536 781 510 
L 1946 1741 
C 2566 2398 2758 2749 2758 3228 
C 2758 3961 2259 4416 1446 4416 
C 986 4416 672 4287 358 3967 
L 250 3100 
L 435 3100 
L 518 3394 
C 621 3763 851 3923 1280 3923 
C 1830 3923 2182 3578 2182 3036 
C 2182 2558 1914 2086 1190 1320 
L 102 166 
z
" transform="scale(0.015625)"/>
       </defs>
       <use xlink:href="#CMSY10-0" transform="scale(1.038107)"/>
       <use xlink:href="#URWPalladioL-Roma-32" transform="translate(81.941696 0)scale(0.996264)"/>
      </g>
     </g>
    </g>
    <g id="xtick_3">
     <g id="line2d_5">
      <path d="M 187.135534 99.894936 
L 187.135534 8.013328 
" clip-path="url(#pcc8624f122)" style="fill: none; stroke: #000000; stroke-opacity: 0.2; stroke-width: 0.5; stroke-linecap: round"/>
     </g>
     <g id="line2d_6">
      <g>
       <use xlink:href="#mfa52b7b2ae" x="187.135534" y="99.894936" style="fill-opacity: 0.2; stroke: #000000; stroke-opacity: 0.2; stroke-width: 0.5"/>
      </g>
     </g>
     <g id="text_3">
      <!-- $\mathdefault{−1}$ -->
      <g transform="translate(177.912689 125.374465)scale(0.14 -0.14)">
       <defs>
        <path id="URWPalladioL-Roma-31" d="M 429 3571 
L 493 3571 
L 1318 3942 
C 1325 3949 1331 3949 1338 3949 
C 1376 3949 1389 3891 1389 3737 
L 1389 633 
C 1389 300 1318 230 973 211 
L 614 192 
L 614 0 
C 1600 0 1600 0 1670 0 
C 1754 0 1894 0 2112 -7 
C 2189 6 2413 6 2675 0 
L 2675 192 
L 2342 211 
C 1990 229 1926 299 1926 628 
L 1926 4383 
L 1837 4416 
C 1421 4199 966 4009 384 3807 
L 429 3571 
z
" transform="scale(0.015625)"/>
       </defs>
       <use xlink:href="#CMSY10-0" transform="scale(1.038107)"/>
       <use xlink:href="#URWPalladioL-Roma-31" transform="translate(81.941696 0)scale(0.996264)"/>
      </g>
     </g>
    </g>
    <g id="xtick_4">
     <g id="line2d_7">
      <path d="M 252.167876 99.894936 
L 252.167876 8.013328 
" clip-path="url(#pcc8624f122)" style="fill: none; stroke: #000000; stroke-opacity: 0.2; stroke-width: 0.5; stroke-linecap: round"/>
     </g>
     <g id="line2d_8">
      <g>
       <use xlink:href="#mfa52b7b2ae" x="252.167876" y="99.894936" style="fill-opacity: 0.2; stroke: #000000; stroke-opacity: 0.2; stroke-width: 0.5"/>
      </g>
     </g>
     <g id="text_4">
      <!-- $\mathdefault{0}$ -->
      <g transform="translate(248.680952 125.374465)scale(0.14 -0.14)">
       <defs>
        <path id="URWPalladioL-Roma-30" d="M 1683 4416 
C 691 4416 186 3628 186 2076 
C 186 1326 320 679 544 365 
C 768 51 1126 -128 1523 -128 
C 2490 -128 2976 704 2976 2345 
C 2976 3749 2560 4416 1683 4416 
z
M 1568 4191 
C 2189 4191 2438 3563 2438 2025 
C 2438 660 2195 96 1606 96 
C 986 96 723 743 723 2307 
C 723 3660 960 4191 1568 4191 
z
" transform="scale(0.015625)"/>
       </defs>
       <use xlink:href="#URWPalladioL-Roma-30" transform="scale(0.996264)"/>
      </g>
     </g>
    </g>
    <g id="xtick_5">
     <g id="line2d_9">
      <path d="M 317.200218 99.894936 
L 317.200218 8.013328 
" clip-path="url(#pcc8624f122)" style="fill: none; stroke: #000000; stroke-opacity: 0.2; stroke-width: 0.5; stroke-linecap: round"/>
     </g>
     <g id="line2d_10">
      <g>
       <use xlink:href="#mfa52b7b2ae" x="317.200218" y="99.894936" style="fill-opacity: 0.2; stroke: #000000; stroke-opacity: 0.2; stroke-width: 0.5"/>
      </g>
     </g>
     <g id="text_5">
      <!-- $\mathdefault{1}$ -->
      <g transform="translate(313.713294 125.374465)scale(0.14 -0.14)">
       <use xlink:href="#URWPalladioL-Roma-31" transform="scale(0.996264)"/>
      </g>
     </g>
    </g>
    <g id="xtick_6">
     <g id="line2d_11">
      <path d="M 382.232559 99.894936 
L 382.232559 8.013328 
" clip-path="url(#pcc8624f122)" style="fill: none; stroke: #000000; stroke-opacity: 0.2; stroke-width: 0.5; stroke-linecap: round"/>
     </g>
     <g id="line2d_12">
      <g>
       <use xlink:href="#mfa52b7b2ae" x="382.232559" y="99.894936" style="fill-opacity: 0.2; stroke: #000000; stroke-opacity: 0.2; stroke-width: 0.5"/>
      </g>
     </g>
     <g id="text_6">
      <!-- $\mathdefault{2}$ -->
      <g transform="translate(378.745635 125.374465)scale(0.14 -0.14)">
       <use xlink:href="#URWPalladioL-Roma-32" transform="scale(0.996264)"/>
      </g>
     </g>
    </g>
    <g id="xtick_7">
     <g id="line2d_13">
      <path d="M 447.264901 99.894936 
L 447.264901 8.013328 
" clip-path="url(#pcc8624f122)" style="fill: none; stroke: #000000; stroke-opacity: 0.2; stroke-width: 0.5; stroke-linecap: round"/>
     </g>
     <g id="line2d_14">
      <g>
       <use xlink:href="#mfa52b7b2ae" x="447.264901" y="99.894936" style="fill-opacity: 0.2; stroke: #000000; stroke-opacity: 0.2; stroke-width: 0.5"/>
      </g>
     </g>
     <g id="text_7">
      <!-- $\mathdefault{3}$ -->
      <g transform="translate(443.777977 125.374465)scale(0.14 -0.14)">
       <use xlink:href="#URWPalladioL-Roma-33" transform="scale(0.996264)"/>
      </g>
     </g>
    </g>
    <g id="xtick_8">
     <g id="line2d_15">
      <path d="M 512.297243 99.894936 
L 512.297243 8.013328 
" clip-path="url(#pcc8624f122)" style="fill: none; stroke: #000000; stroke-opacity: 0.2; stroke-width: 0.5; stroke-linecap: round"/>
     </g>
     <g id="line2d_16">
      <g>
       <use xlink:href="#mfa52b7b2ae" x="512.297243" y="99.894936" style="fill-opacity: 0.2; stroke: #000000; stroke-opacity: 0.2; stroke-width: 0.5"/>
      </g>
     </g>
     <g id="text_8">
      <!-- $\mathdefault{4}$ -->
      <g transform="translate(508.810319 125.374465)scale(0.14 -0.14)">
       <defs>
        <path id="URWPalladioL-Roma-34" d="M 1792 1152 
L 1792 684 
C 1792 310 1722 223 1408 210 
L 1011 192 
L 1011 0 
C 1862 0 1862 0 2016 0 
C 2170 19 2170 19 3021 0 
L 3021 192 
L 2714 210 
C 2400 229 2330 310 2330 684 
L 2330 1152 
C 2707 1152 2842 1145 3021 1127 
L 3021 1580 
C 2720 1555 2598 1555 2502 1561 
L 2483 1561 
L 2330 1561 
L 2330 2445 
C 2330 3576 2342 4122 2374 4383 
L 2298 4416 
L 1824 4243 
L 13 1299 
L 83 1152 
L 1792 1152 
z
M 1792 1561 
L 416 1561 
L 1792 3798 
L 1792 1561 
z
" transform="scale(0.015625)"/>
       </defs>
       <use xlink:href="#URWPalladioL-Roma-34" transform="scale(0.996264)"/>
      </g>
     </g>
    </g>
    <g id="text_9">
     <!-- Time [seconds] -->
     <g transform="translate(277.462334 141.861513)scale(0.12 -0.12)">
      <defs>
       <path id="URWPalladioL-Roma-54" d="M 1632 4096 
C 1651 3880 1658 3734 1658 3462 
L 1658 781 
C 1658 280 1626 230 1331 211 
L 1024 192 
L 1024 0 
C 1402 -7 1626 0 1958 0 
C 2291 19 2522 12 2899 0 
L 2899 192 
L 2592 211 
C 2298 230 2266 280 2266 781 
L 2266 3462 
C 2266 3747 2272 3887 2291 4096 
L 3283 4096 
C 3462 4096 3533 4039 3539 3887 
L 3565 3386 
L 3763 3386 
C 3763 3801 3776 4051 3808 4416 
C 3347 4409 3136 4409 2957 4403 
C 2707 4390 2522 4390 2426 4390 
L 1414 4390 
C 1350 4390 1005 4396 550 4403 
L 115 4416 
C 147 4051 160 3801 160 3385 
L 358 3385 
L 384 3891 
C 390 4038 461 4096 640 4096 
L 1632 4096 
z
" transform="scale(0.015625)"/>
       <path id="URWPalladioL-Roma-69" d="M 1203 2982 
L 1146 3008 
C 819 2873 486 2784 147 2746 
L 147 2568 
L 384 2568 
C 640 2568 666 2523 666 2103 
L 666 669 
C 666 268 646 223 429 211 
L 134 192 
L 134 0 
C 774 0 774 0 934 0 
C 1094 19 1094 19 1734 0 
L 1734 192 
L 1440 211 
C 1222 224 1203 268 1203 671 
L 1203 2982 
z
M 909 4416 
C 717 4416 550 4249 550 4057 
C 550 3871 717 3705 902 3705 
C 1088 3705 1261 3871 1261 4057 
C 1261 4236 1088 4416 909 4416 
z
" transform="scale(0.015625)"/>
       <path id="URWPalladioL-Roma-6d" d="M 115 2579 
L 352 2579 
C 608 2579 634 2534 634 2112 
L 634 672 
C 634 268 614 224 397 211 
L 102 192 
L 102 0 
C 717 0 736 0 915 0 
C 1094 19 1261 12 1677 0 
L 1677 192 
L 1408 211 
C 1190 223 1171 268 1171 670 
L 1171 2023 
C 1171 2311 1594 2624 1978 2624 
C 2323 2624 2560 2298 2560 1813 
L 2560 670 
C 2560 268 2541 223 2323 211 
L 2029 192 
L 2029 0 
C 2669 0 2669 0 2829 0 
C 2989 19 2989 19 3629 0 
L 3629 192 
L 3334 211 
C 3117 223 3098 268 3098 670 
L 3098 2023 
C 3098 2311 3520 2624 3904 2624 
C 4250 2624 4486 2298 4486 1813 
L 4486 0 
C 4877 0 4883 0 4992 0 
C 5075 19 5075 19 5562 0 
L 5562 192 
L 5261 211 
C 5043 223 5024 268 5024 670 
L 5024 1985 
C 5024 2617 4653 3014 4064 3014 
C 3840 3014 3654 2956 3539 2854 
L 3053 2419 
C 2848 2841 2586 3014 2144 3014 
C 1907 3014 1728 2956 1613 2854 
L 1171 2445 
L 1171 2988 
L 1114 3008 
C 787 2873 454 2783 115 2745 
L 115 2579 
z
" transform="scale(0.015625)"/>
       <path id="URWPalladioL-Roma-65" d="M 2797 447 
L 2714 511 
C 2304 268 2157 211 1882 211 
C 1466 211 1120 396 941 710 
C 819 921 774 1100 762 1472 
L 1696 1472 
C 2138 1472 2413 1491 2854 1561 
C 2861 1651 2867 1708 2867 1786 
C 2867 2526 2394 3008 1677 3008 
C 1440 3008 1165 2924 902 2771 
C 378 2468 166 2069 166 1401 
C 166 998 262 652 435 409 
C 691 70 1120 -128 1600 -128 
C 1837 -128 2074 -77 2336 38 
C 2509 108 2643 192 2669 230 
L 2797 447 
z
M 2298 1708 
C 1965 1696 1811 1689 1581 1689 
C 1286 1689 1120 1696 774 1728 
C 774 2030 800 2172 883 2339 
C 1018 2623 1293 2796 1600 2796 
C 1811 2796 1978 2713 2093 2539 
C 2234 2326 2278 2140 2298 1708 
z
" transform="scale(0.015625)"/>
       <path id="URWPalladioL-Roma-5b" d="M 563 -1178 
C 1018 -1166 1030 -1166 1184 -1166 
C 1338 -1166 1370 -1166 1805 -1178 
L 1843 -1140 
L 1843 -974 
L 1818 -942 
L 1574 -942 
C 1402 -942 1261 -903 1184 -839 
C 1126 -782 1107 -692 1107 -481 
C 1107 -474 1107 -340 1101 -148 
L 1101 89 
L 1101 3379 
L 1101 3615 
C 1107 3795 1107 3935 1107 3942 
C 1107 4153 1126 4249 1184 4307 
C 1261 4371 1402 4409 1574 4409 
L 1818 4409 
L 1843 4441 
L 1843 4608 
L 1805 4646 
C 1357 4633 1338 4633 1184 4633 
C 1037 4633 1005 4633 563 4646 
L 506 4563 
C 544 4403 557 4191 557 3699 
C 557 3603 557 3526 563 3462 
L 563 3379 
L 563 89 
L 563 6 
C 557 -97 557 -103 557 -212 
L 557 -282 
C 557 -718 544 -897 506 -1095 
L 563 -1178 
z
" transform="scale(0.015625)"/>
       <path id="URWPalladioL-Roma-73" d="M 262 917 
C 262 474 243 282 192 25 
C 525 -84 774 -128 1069 -128 
C 1907 -128 2502 320 2502 949 
C 2502 1148 2445 1295 2323 1423 
C 2157 1584 1946 1661 1382 1770 
C 858 1872 685 2001 685 2296 
C 685 2617 909 2796 1299 2796 
C 1728 2796 2054 2572 2054 2270 
L 2054 2123 
L 2234 2123 
C 2240 2495 2246 2649 2266 2847 
C 1926 2963 1696 3008 1434 3008 
C 691 3008 237 2655 237 2078 
C 237 1770 378 1552 672 1417 
C 845 1340 1184 1237 1619 1141 
C 1907 1077 2029 942 2029 698 
C 2029 352 1709 108 1254 108 
C 787 108 454 333 454 654 
L 454 917 
L 262 917 
z
" transform="scale(0.015625)"/>
       <path id="URWPalladioL-Roma-63" d="M 2554 1995 
C 2554 2290 2586 2553 2643 2783 
C 2387 2937 2163 3008 1901 3008 
C 1594 3008 1235 2886 851 2643 
C 403 2360 166 1911 166 1347 
C 166 480 774 -128 1632 -128 
C 1965 -128 2445 -7 2509 89 
L 2643 294 
L 2579 390 
C 2342 262 2138 204 1907 204 
C 1197 204 730 756 730 1603 
C 730 2290 1050 2675 1626 2675 
C 1907 2675 2214 2547 2330 2386 
L 2374 1995 
L 2554 1995 
z
" transform="scale(0.015625)"/>
       <path id="URWPalladioL-Roma-6f" d="M 1786 3008 
C 851 3008 205 2347 205 1391 
C 205 487 774 -128 1600 -128 
C 2586 -128 3290 557 3290 1520 
C 3290 2386 2662 3008 1786 3008 
z
M 1670 2796 
C 2259 2796 2694 2155 2694 1282 
C 2694 545 2368 83 1850 83 
C 1222 83 800 699 800 1609 
C 800 2379 1107 2796 1670 2796 
z
" transform="scale(0.015625)"/>
       <path id="URWPalladioL-Roma-6e" d="M 2624 0 
C 3014 0 3021 0 3130 0 
C 3219 19 3219 19 3661 0 
L 3661 192 
L 3398 211 
C 3181 223 3162 262 3162 670 
L 3162 1902 
C 3162 2649 2810 3014 2093 3014 
C 1856 3014 1722 2969 1587 2854 
L 1101 2432 
L 1101 2988 
L 1043 3008 
C 717 2873 384 2784 45 2746 
L 45 2568 
L 282 2568 
C 538 2568 563 2523 563 2103 
L 563 669 
C 563 268 544 223 326 211 
L 38 192 
L 38 0 
C 474 -7 646 0 832 0 
C 1018 19 1190 12 1626 0 
L 1626 192 
L 1338 211 
C 1120 223 1101 268 1101 670 
L 1101 2023 
C 1101 2311 1523 2624 1914 2624 
C 2342 2624 2624 2304 2624 1813 
L 2624 0 
z
" transform="scale(0.015625)"/>
       <path id="URWPalladioL-Roma-64" d="M 2637 2803 
C 2278 2956 2099 3008 1875 3008 
C 1702 3008 1549 2969 1389 2886 
L 826 2592 
C 461 2400 224 1934 224 1392 
C 224 881 397 460 710 204 
C 928 19 1229 -64 1645 -64 
C 1773 -64 1920 -39 1952 -13 
L 2662 581 
L 2630 0 
C 2944 -7 3046 0 3123 0 
C 3174 0 3264 0 3398 -7 
C 3443 6 3571 6 3706 0 
L 3706 192 
L 3411 211 
C 3194 224 3174 268 3174 672 
L 3174 4614 
L 3117 4665 
C 2835 4557 2624 4505 2118 4429 
L 2118 4249 
L 2477 4249 
C 2592 4249 2637 4179 2637 3987 
L 2637 2803 
z
M 2637 1424 
C 2637 1009 2624 945 2541 798 
C 2362 498 2048 300 1747 300 
C 1184 300 781 843 781 1602 
C 781 2298 1126 2707 1702 2707 
C 1946 2707 2202 2624 2426 2470 
C 2560 2381 2637 2298 2637 2247 
L 2637 1424 
z
" transform="scale(0.015625)"/>
       <path id="URWPalladioL-Roma-5d" d="M 1568 4646 
C 1114 4633 1094 4633 947 4633 
C 794 4633 762 4633 326 4646 
L 288 4608 
L 288 4441 
L 314 4409 
L 557 4409 
C 730 4409 864 4371 941 4307 
C 1005 4249 1024 4159 1024 3942 
C 1024 3923 1024 3795 1030 3615 
L 1030 3379 
L 1030 89 
L 1030 -148 
C 1024 -334 1024 -449 1024 -468 
C 1024 -686 1005 -782 941 -839 
C 864 -903 730 -942 557 -942 
L 314 -942 
L 288 -974 
L 288 -1140 
L 326 -1178 
C 774 -1166 787 -1166 947 -1166 
C 1094 -1166 1126 -1166 1568 -1178 
L 1626 -1095 
C 1587 -942 1581 -743 1574 -250 
C 1574 -161 1574 -78 1568 6 
L 1568 89 
L 1568 3379 
L 1568 3462 
C 1574 3532 1574 3615 1574 3705 
C 1574 4198 1587 4409 1626 4563 
L 1568 4646 
z
" transform="scale(0.015625)"/>
      </defs>
      <use xlink:href="#URWPalladioL-Roma-54" transform="scale(0.996264)"/>
      <use xlink:href="#URWPalladioL-Roma-69" transform="translate(55.591109 0)scale(0.996264)"/>
      <use xlink:href="#URWPalladioL-Roma-6d" transform="translate(84.581471 0)scale(0.996264)"/>
      <use xlink:href="#URWPalladioL-Roma-65" transform="translate(172.551145 0)scale(0.996264)"/>
      <use xlink:href="#URWPalladioL-Roma-5b" transform="translate(245.17804 0)scale(0.996264)"/>
      <use xlink:href="#URWPalladioL-Roma-73" transform="translate(278.35327 0)scale(0.996264)"/>
      <use xlink:href="#URWPalladioL-Roma-65" transform="translate(320.594736 0)scale(0.996264)"/>
      <use xlink:href="#URWPalladioL-Roma-63" transform="translate(368.315031 0)scale(0.996264)"/>
      <use xlink:href="#URWPalladioL-Roma-6f" transform="translate(412.5486 0)scale(0.996264)"/>
      <use xlink:href="#URWPalladioL-Roma-6e" transform="translate(466.94418 0)scale(0.996264)"/>
      <use xlink:href="#URWPalladioL-Roma-64" transform="translate(524.926241 0)scale(0.996264)"/>
      <use xlink:href="#URWPalladioL-Roma-73" transform="translate(585.797872 0)scale(0.996264)"/>
      <use xlink:href="#URWPalladioL-Roma-5d" transform="translate(628.039338 0)scale(0.996264)"/>
     </g>
    </g>
   </g>
   <g id="matplotlib.axis_2">
    <g id="ytick_1">
     <g id="line2d_17">
      <path d="M 57.070851 96.637109 
L 577.19952 96.637109 
" clip-path="url(#pcc8624f122)" style="fill: none; stroke: #000000; stroke-opacity: 0.2; stroke-width: 0.5; stroke-linecap: round"/>
     </g>
     <g id="line2d_18">
      <defs>
       <path id="m94f7792500" d="M 0 0 
L -3.5 0 
" style="stroke: #000000; stroke-opacity: 0.2; stroke-width: 0.5"/>
      </defs>
      <g>
       <use xlink:href="#m94f7792500" x="57.070851" y="96.637109" style="fill-opacity: 0.2; stroke: #000000; stroke-opacity: 0.2; stroke-width: 0.5"/>
      </g>
     </g>
     <g id="text_10">
      <!-- $\mathdefault{−1}$ -->
      <g transform="translate(23.12516 101.626874)scale(0.14 -0.14)">
       <use xlink:href="#CMSY10-0" transform="scale(1.038107)"/>
       <use xlink:href="#URWPalladioL-Roma-31" transform="translate(81.941696 0)scale(0.996264)"/>
      </g>
     </g>
    </g>
    <g id="ytick_2">
     <g id="line2d_19">
      <path d="M 57.070851 54.413437 
L 577.19952 54.413437 
" clip-path="url(#pcc8624f122)" style="fill: none; stroke: #000000; stroke-opacity: 0.2; stroke-width: 0.5; stroke-linecap: round"/>
     </g>
     <g id="line2d_20">
      <g>
       <use xlink:href="#m94f7792500" x="57.070851" y="54.413437" style="fill-opacity: 0.2; stroke: #000000; stroke-opacity: 0.2; stroke-width: 0.5"/>
      </g>
     </g>
     <g id="text_11">
      <!-- $\mathdefault{0}$ -->
      <g transform="translate(34.597002 59.403202)scale(0.14 -0.14)">
       <use xlink:href="#URWPalladioL-Roma-30" transform="scale(0.996264)"/>
      </g>
     </g>
    </g>
    <g id="ytick_3">
     <g id="line2d_21">
      <path d="M 57.070851 12.189765 
L 577.19952 12.189765 
" clip-path="url(#pcc8624f122)" style="fill: none; stroke: #000000; stroke-opacity: 0.2; stroke-width: 0.5; stroke-linecap: round"/>
     </g>
     <g id="line2d_22">
      <g>
       <use xlink:href="#m94f7792500" x="57.070851" y="12.189765" style="fill-opacity: 0.2; stroke: #000000; stroke-opacity: 0.2; stroke-width: 0.5"/>
      </g>
     </g>
     <g id="text_12">
      <!-- $\mathdefault{1}$ -->
      <g transform="translate(34.597002 17.179529)scale(0.14 -0.14)">
       <use xlink:href="#URWPalladioL-Roma-31" transform="scale(0.996264)"/>
      </g>
     </g>
    </g>
    <g id="text_13">
     <!-- Voltage -->
     <g transform="translate(15.753876 73.733695)rotate(-90)scale(0.12 -0.12)">
      <defs>
       <path id="URWPalladioL-Roma-56" d="M 1754 4224 
L 1754 4416 
C 1050 4396 1050 4396 902 4396 
C 755 4396 755 4396 51 4416 
L 51 4224 
L 282 4205 
C 416 4192 480 4134 563 3943 
L 1766 990 
C 1965 504 2042 281 2138 -64 
L 2458 -64 
C 2579 332 2656 543 2867 1054 
L 3981 3745 
C 4128 4090 4198 4185 4326 4205 
L 4518 4224 
L 4518 4416 
L 3827 4396 
C 3712 4396 3565 4403 3379 4409 
C 3347 4409 3238 4409 3136 4416 
L 3136 4224 
L 3469 4205 
C 3610 4198 3693 4134 3693 4038 
C 3693 3975 3674 3885 3635 3789 
L 2464 766 
L 1203 4007 
C 1197 4032 1190 4051 1190 4077 
C 1190 4154 1267 4198 1395 4205 
L 1754 4224 
z
" transform="scale(0.015625)"/>
       <path id="URWPalladioL-Roma-6c" d="M 147 4249 
L 506 4249 
C 621 4249 666 4179 666 3987 
L 666 672 
C 666 268 646 224 429 211 
L 134 192 
L 134 0 
C 774 0 774 0 934 0 
C 1094 19 1094 19 1734 0 
L 1734 192 
L 1440 211 
C 1222 224 1203 268 1203 672 
L 1203 4614 
L 1146 4665 
C 864 4557 653 4505 147 4429 
L 147 4249 
z
" transform="scale(0.015625)"/>
       <path id="URWPalladioL-Roma-74" d="M 627 2457 
L 627 614 
C 627 140 838 -64 1331 -64 
C 1478 -64 1632 -32 1670 12 
L 1978 352 
L 1894 460 
C 1734 371 1638 339 1517 339 
C 1267 339 1165 467 1165 780 
L 1165 2457 
L 1984 2457 
L 2042 2803 
L 1165 2764 
L 1165 3008 
C 1165 3277 1184 3507 1235 3917 
L 1158 3987 
C 1005 3891 813 3808 614 3744 
C 634 3552 640 3430 640 3238 
L 640 2790 
L 141 2566 
L 141 2432 
L 627 2457 
z
" transform="scale(0.015625)"/>
       <path id="URWPalladioL-Roma-61" d="M 2074 544 
L 2042 0 
C 2458 0 2458 0 2541 0 
C 2573 19 2733 12 3014 0 
L 3014 192 
L 2765 204 
C 2611 211 2586 262 2586 576 
L 2586 1751 
C 2586 2688 2317 3027 1574 3027 
C 1299 3027 1043 2956 800 2809 
L 461 2604 
L 461 2187 
L 627 2142 
L 710 2341 
C 845 2642 909 2688 1203 2688 
C 1805 2688 2054 2450 2074 1866 
L 1440 1751 
C 570 1590 205 1289 205 730 
C 205 224 506 -64 1011 -64 
C 1126 -64 1235 -45 1280 -13 
L 2074 544 
z
M 2074 806 
C 1888 544 1485 300 1235 300 
C 979 300 755 537 755 812 
C 755 1049 883 1273 1075 1395 
C 1235 1491 1587 1580 2074 1651 
L 2074 806 
z
" transform="scale(0.015625)"/>
       <path id="URWPalladioL-Roma-67" d="M 3322 2452 
L 3482 2713 
L 3456 2790 
L 2547 2764 
C 2310 2956 2080 3033 1766 3033 
C 1485 3033 1158 2944 896 2790 
C 538 2586 352 2274 352 1885 
C 352 1413 646 1087 1120 1036 
L 614 638 
C 550 540 518 455 518 358 
C 518 179 634 76 941 -13 
L 384 -315 
C 294 -367 205 -604 205 -804 
C 205 -1388 774 -1792 1587 -1792 
C 2554 -1792 3315 -1183 3315 -399 
C 3315 64 3008 384 2560 384 
L 1536 384 
C 1203 384 1050 462 1050 638 
C 1050 723 1101 795 1267 939 
C 1306 972 1318 985 1344 1011 
C 1408 1004 1446 998 1498 998 
C 1773 998 2112 1119 2374 1305 
C 2662 1515 2803 1770 2803 2108 
C 2803 2235 2784 2318 2733 2452 
L 3322 2452 
z
M 1536 2816 
C 1971 2816 2266 2458 2266 1917 
C 2266 1502 1997 1216 1606 1216 
C 1178 1216 890 1547 890 2038 
C 890 2529 1126 2816 1536 2816 
z
M 1837 -64 
C 2560 -64 2810 -212 2810 -630 
C 2810 -1183 2304 -1594 1632 -1594 
C 1075 -1594 691 -1266 691 -791 
C 691 -502 858 -238 1114 -129 
C 1216 -77 1395 -64 1837 -64 
z
" transform="scale(0.015625)"/>
      </defs>
      <use xlink:href="#URWPalladioL-Roma-56" transform="scale(0.996264)"/>
      <use xlink:href="#URWPalladioL-Roma-6f" transform="translate(60.871539 0)scale(0.996264)"/>
      <use xlink:href="#URWPalladioL-Roma-6c" transform="translate(115.26712 0)scale(0.996264)"/>
      <use xlink:href="#URWPalladioL-Roma-74" transform="translate(144.257481 0)scale(0.996264)"/>
      <use xlink:href="#URWPalladioL-Roma-61" transform="translate(176.734569 0)scale(0.996264)"/>
      <use xlink:href="#URWPalladioL-Roma-67" transform="translate(226.547769 0)scale(0.996264)"/>
      <use xlink:href="#URWPalladioL-Roma-65" transform="translate(281.939446 0)scale(0.996264)"/>
     </g>
    </g>
   </g>
   <g id="line2d_23">
    <path d="M 57.070851 54.413437 
L 252.037811 54.413437 
L 252.167876 12.189765 
L 252.428005 12.310258 
L 252.688135 12.671039 
L 253.078329 13.657787 
L 253.598587 15.783361 
L 254.248911 19.668977 
L 255.029299 25.941983 
L 256.069816 36.486549 
L 257.760657 56.52256 
L 259.451498 75.920181 
L 260.492016 85.503243 
L 261.272404 90.84319 
L 261.922727 93.859243 
L 262.442986 95.256454 
L 262.83318 95.691405 
L 263.093309 95.686615 
L 263.353439 95.446431 
L 263.743633 94.649298 
L 264.263891 92.791499 
L 264.914215 89.261153 
L 265.694603 83.436628 
L 266.605056 74.856131 
L 268.035767 58.956396 
L 270.246867 34.433073 
L 271.287384 25.374111 
L 272.067772 20.354212 
L 272.718096 17.535189 
L 273.238355 16.239896 
L 273.628549 15.84485 
L 273.888678 15.857638 
L 274.148807 16.090316 
L 274.539001 16.846201 
L 275.05926 18.591525 
L 275.709584 21.88772 
L 276.489972 27.296952 
L 277.530489 36.46639 
L 279.22133 53.953715 
L 281.042236 72.063027 
L 282.082753 80.192326 
L 282.863141 84.660781 
L 283.513465 87.146772 
L 284.033723 88.27174 
L 284.423917 88.60002 
L 284.684047 88.573105 
L 284.944176 88.351228 
L 285.33437 87.659049 
L 285.854629 86.08811 
L 286.504952 83.152236 
L 287.28534 78.374298 
L 288.325858 70.343335 
L 290.146763 54.019434 
L 291.70754 40.743306 
L 292.748057 33.677268 
L 293.528445 29.755693 
L 294.178769 27.532134 
L 294.699027 26.479984 
L 295.089221 26.123255 
L 295.349351 26.091112 
L 295.60948 26.221806 
L 295.999674 26.717368 
L 296.519933 27.9167 
L 297.170256 30.220527 
L 297.950644 34.017712 
L 298.991162 40.434626 
L 300.942132 54.413437 
L 302.502908 64.806778 
L 303.413361 69.619688 
L 304.193749 72.717103 
L 304.844073 74.477797 
L 305.364331 75.321153 
L 305.754525 75.620216 
L 306.14472 75.636297 
L 306.534914 75.376108 
L 306.925108 74.85002 
L 307.445366 73.759267 
L 308.09569 71.8299 
L 309.006143 68.255189 
L 310.306789 61.982219 
L 312.908083 49.172519 
L 313.948601 45.277155 
L 314.728989 43.137514 
L 315.379312 41.927648 
L 315.899571 41.347415 
L 316.41983 41.109312 
L 316.810024 41.148492 
L 317.330282 41.475771 
L 317.850541 42.093407 
L 318.500864 43.223986 
L 319.411317 45.339131 
L 320.842029 49.391586 
L 322.792999 54.847565 
L 323.833516 57.104293 
L 324.613905 58.337128 
L 325.264228 59.03153 
L 325.914551 59.420181 
L 326.564875 59.517061 
L 327.215198 59.350684 
L 327.995586 58.861839 
L 329.036104 57.867642 
L 331.767462 55.062684 
L 332.54785 54.60719 
L 333.328238 54.417437 
L 333.978562 54.477203 
L 334.75895 54.804048 
L 335.669403 55.49175 
L 336.839985 56.703513 
L 338.790955 58.755276 
L 339.571343 59.289228 
L 340.221667 59.5037 
L 340.87199 59.462184 
L 341.392249 59.223244 
L 342.042572 58.65182 
L 342.692896 57.773878 
L 343.473284 56.333881 
L 344.513801 53.851354 
L 346.074577 49.391586 
L 347.765418 44.68253 
L 348.675871 42.727955 
L 349.326194 41.750172 
L 349.846453 41.274063 
L 350.366712 41.102052 
L 350.756906 41.186131 
L 351.1471 41.46013 
L 351.667359 42.126701 
L 352.317682 43.443175 
L 352.968006 45.277155 
L 353.878458 48.62823 
L 355.049041 53.98348 
L 358.560787 70.902137 
L 359.341175 73.42125 
L 359.991498 74.85002 
L 360.511757 75.492967 
L 360.901951 75.662042 
L 361.292145 75.552193 
L 361.682339 75.15797 
L 362.202598 74.187829 
L 362.722857 72.717103 
L 363.37318 70.20647 
L 364.153568 66.299651 
L 365.194086 59.863336 
L 367.014991 46.838814 
L 368.575768 36.270588 
L 369.48622 31.370571 
L 370.266608 28.308538 
L 370.786867 26.96064 
L 371.307126 26.221806 
L 371.69732 26.086708 
L 371.957449 26.200923 
L 372.347643 26.681408 
L 372.737837 27.532134 
L 373.258096 29.232221 
L 373.90842 32.226256 
L 374.688808 36.975131 
L 375.729325 44.901977 
L 377.420166 59.962982 
L 379.111007 74.55655 
L 380.151524 81.700624 
L 380.931913 85.584371 
L 381.582236 87.659049 
L 381.97243 88.351228 
L 382.362624 88.611057 
L 382.622753 88.539835 
L 382.882883 88.27174 
L 383.273077 87.50115 
L 383.793336 85.79596 
L 384.443659 82.619422 
L 385.224047 77.40751 
L 386.1345 69.712586 
L 387.565211 55.331473 
L 389.906376 31.645539 
L 390.946893 23.526462 
L 391.727281 19.154793 
L 392.24754 17.204795 
L 392.767799 16.090316 
L 393.157993 15.823663 
L 393.418122 15.921292 
L 393.678252 16.239896 
L 394.068446 17.129836 
L 394.588704 19.07075 
L 395.239028 22.65258 
L 396.019416 28.485852 
L 397.059933 38.385384 
L 398.620709 55.928197 
L 400.57168 77.472454 
L 401.612197 86.549531 
L 402.392585 91.534745 
L 403.042909 94.268797 
L 403.433103 95.238605 
L 403.823297 95.686615 
L 404.083426 95.691405 
L 404.343556 95.460277 
L 404.73375 94.673466 
L 405.254008 92.818036 
L 405.774267 90.078283 
L 406.424591 85.503243 
L 407.335043 77.247883 
L 408.505625 64.326718 
L 411.757243 27.137991 
L 412.667695 19.668977 
L 413.318019 15.783361 
L 413.838277 13.657787 
L 414.228472 12.671039 
L 414.618666 12.219899 
L 414.878795 12.219899 
L 415.138924 12.460711 
L 415.529118 13.270012 
L 416.049377 15.167258 
L 416.569636 17.957996 
L 417.219959 22.602477 
L 418.130412 30.950286 
L 419.300994 43.953436 
L 422.422547 79.800799 
L 423.332999 87.478463 
L 424.113387 92.214006 
L 424.633646 94.295025 
L 425.02384 95.256454 
L 425.414034 95.691405 
L 425.674164 95.686615 
L 425.934293 95.446431 
L 426.324487 94.649298 
L 426.844746 92.791499 
L 427.495069 89.261153 
L 428.275457 83.436628 
L 429.18591 74.856131 
L 430.616622 58.956396 
L 432.827721 34.433073 
L 433.868239 25.374111 
L 434.648627 20.354212 
L 435.29895 17.535189 
L 435.819209 16.239896 
L 436.209403 15.84485 
L 436.469532 15.857638 
L 436.729662 16.090316 
L 437.119856 16.846201 
L 437.640115 18.591525 
L 438.290438 21.88772 
L 439.070826 27.296952 
L 440.111344 36.46639 
L 441.802184 53.953715 
L 443.62309 72.063027 
L 444.663607 80.192326 
L 445.443996 84.660781 
L 446.094319 87.146772 
L 446.614578 88.27174 
L 447.004772 88.60002 
L 447.264901 88.573105 
L 447.525031 88.351228 
L 447.915225 87.659049 
L 448.435483 86.08811 
L 449.085807 83.152236 
L 449.866195 78.374298 
L 450.906712 70.343335 
L 452.727618 54.019434 
L 454.288394 40.743306 
L 455.328912 33.677268 
L 456.1093 29.755693 
L 456.759623 27.532134 
L 457.279882 26.479984 
L 457.670076 26.123255 
L 457.930205 26.091112 
L 458.190335 26.221806 
L 458.580529 26.717368 
L 459.100787 27.9167 
L 459.751111 30.220527 
L 460.531499 34.017712 
L 461.572016 40.434626 
L 463.522987 54.413437 
L 465.083763 64.806778 
L 465.994216 69.619688 
L 466.774604 72.717103 
L 467.424927 74.477797 
L 467.945186 75.321153 
L 468.33538 75.620216 
L 468.725574 75.636297 
L 469.115768 75.376108 
L 469.505962 74.85002 
L 470.026221 73.759267 
L 470.676544 71.8299 
L 471.586997 68.255189 
L 472.887644 61.982219 
L 475.488937 49.172519 
L 476.529455 45.277155 
L 477.309843 43.137514 
L 477.960166 41.927648 
L 478.480425 41.347415 
L 479.000684 41.109312 
L 479.390878 41.148492 
L 479.911137 41.475771 
L 480.431395 42.093407 
L 481.081719 43.223986 
L 481.992172 45.339131 
L 483.422883 49.391586 
L 485.373853 54.847565 
L 486.414371 57.104293 
L 487.194759 58.337128 
L 487.845082 59.03153 
L 488.495406 59.420181 
L 489.145729 59.517061 
L 489.796053 59.350684 
L 490.576441 58.861839 
L 491.616958 57.867642 
L 494.348317 55.062684 
L 495.128705 54.60719 
L 495.909093 54.417437 
L 496.559416 54.477203 
L 497.339804 54.804048 
L 498.250257 55.49175 
L 499.420839 56.703513 
L 501.371809 58.755276 
L 502.152198 59.289228 
L 502.802521 59.5037 
L 503.452844 59.462184 
L 503.973103 59.223244 
L 504.623427 58.65182 
L 505.27375 57.773878 
L 506.054138 56.333881 
L 507.094656 53.851354 
L 508.655432 49.391586 
L 510.346273 44.68253 
L 511.256725 42.727955 
L 511.907049 41.750172 
L 512.427308 41.274063 
L 512.947566 41.102052 
L 513.33776 41.186131 
L 513.727954 41.46013 
L 514.248213 42.126701 
L 514.898537 43.443175 
L 515.54886 45.277155 
L 516.459313 48.62823 
L 517.629895 53.98348 
L 521.141641 70.902137 
L 521.922029 73.42125 
L 522.572353 74.85002 
L 523.092612 75.492967 
L 523.482806 75.662042 
L 523.873 75.552193 
L 524.263194 75.15797 
L 524.783453 74.187829 
L 525.303711 72.717103 
L 525.954035 70.20647 
L 526.734423 66.299651 
L 527.77494 59.863336 
L 529.595846 46.838814 
L 531.156622 36.270588 
L 532.067075 31.370571 
L 532.847463 28.308538 
L 533.367722 26.96064 
L 533.88798 26.221806 
L 534.278174 26.086708 
L 534.538304 26.200923 
L 534.928498 26.681408 
L 535.318692 27.532134 
L 535.838951 29.232221 
L 536.489274 32.226256 
L 537.269662 36.975131 
L 538.31018 44.901977 
L 540.001021 59.962982 
L 541.691861 74.55655 
L 542.732379 81.700624 
L 543.512767 85.584371 
L 544.16309 87.659049 
L 544.553284 88.351228 
L 544.943478 88.611057 
L 545.203608 88.539835 
L 545.463737 88.27174 
L 545.853931 87.50115 
L 546.37419 85.79596 
L 547.024513 82.619422 
L 547.804902 77.40751 
L 548.715354 69.712586 
L 550.146066 55.331473 
L 552.48723 31.645539 
L 553.527748 23.526462 
L 554.308136 19.154793 
L 554.828394 17.204795 
L 555.348653 16.090316 
L 555.738847 15.823663 
L 555.998977 15.921292 
L 556.259106 16.239896 
L 556.6493 17.129836 
L 557.169559 19.07075 
L 557.819882 22.65258 
L 558.60027 28.485852 
L 559.640788 38.385384 
L 561.201564 55.928197 
L 563.152534 77.472454 
L 564.193052 86.549531 
L 564.97344 91.534745 
L 565.623763 94.268797 
L 566.013957 95.238605 
L 566.404151 95.686615 
L 566.664281 95.691405 
L 566.92441 95.460277 
L 567.314604 94.673466 
L 567.834863 92.818036 
L 568.355122 90.078283 
L 569.005445 85.503243 
L 569.915898 77.247883 
L 571.08648 64.326718 
L 574.338097 27.137991 
L 575.24855 19.668977 
L 575.898873 15.783361 
L 576.419132 13.657787 
L 576.809326 12.671039 
L 577.19952 12.219899 
L 577.19952 12.219899 
" clip-path="url(#pcc8624f122)" style="fill: none; stroke: #0271ae; stroke-width: 2; stroke-linecap: round"/>
   </g>
  </g>
 </g>
 <defs>
  <clipPath id="pcc8624f122">
   <rect x="57.070851" y="8.013328" width="520.128669" height="91.881608"/>
  </clipPath>
 </defs>
</svg>