<?xml version="1.0" encoding="utf-8" standalone="no"?>
<!DOCTYPE svg PUBLIC "-//W3C//DTD SVG 1.1//EN"
  "http://www.w3.org/Graphics/SVG/1.1/DTD/svg11.dtd">
<svg height="392.39952pt" version="1.1" viewBox="0 0 584.39952 392.39952" width="584.39952pt" xmlns="http://www.w3.org/2000/svg" xmlns:xlink="http://www.w3.org/1999/xlink">
 <metadata>
  <rdf:RDF xmlns:cc="http://creativecommons.org/ns#" xmlns:dc="http://purl.org/dc/elements/1.1/" xmlns:rdf="http://www.w3.org/1999/02/22-rdf-syntax-ns#">
   <cc:Work>
    <dc:type rdf:resource="http://purl.org/dc/dcmitype/StillImage"/>
    <dc:date>2021-09-17T08:35:07.782406</dc:date>
    <dc:format>image/svg+xml</dc:format>
    <dc:creator>
     <cc:Agent>
      <dc:title>Matplotlib v3.4.2, https://matplotlib.org/</dc:title>
     </cc:Agent>
    </dc:creator>
   </cc:Work>
  </rdf:RDF>
 </metadata>
 <defs>
  <style type="text/css">*{stroke-linecap:butt;stroke-linejoin:round;}</style>
 </defs>
 <g id="figure_1">
  <g id="patch_1">
   <path d="M 0 392.39952 
L 584.39952 392.39952 
L 584.39952 0 
L 0 0 
z
" style="fill:none;"/>
  </g>
  <g id="axes_1">
   <g id="patch_2">
    <path d="M 57.070851 170.530589 
L 568.48221 170.530589 
L 568.48221 7.2 
L 57.070851 7.2 
z
" style="fill:none;"/>
   </g>
   <g id="matplotlib.axis_1">
    <g id="xtick_1">
     <g id="line2d_1">
      <path clip-path="url(#p27cc11e320)" d="M 57.070851 170.530589 
L 57.070851 7.2 
" style="fill:none;stroke:#000000;stroke-linejoin:miter;stroke-opacity:0.2;stroke-width:0.5;"/>
     </g>
     <g id="line2d_2">
      <defs>
       <path d="M 0 0 
L 0 3.5 
" id="mc7adcb27f4" style="stroke:#000000;stroke-opacity:0.2;stroke-width:0.8;"/>
      </defs>
      <g>
       <use style="fill-opacity:0.2;stroke:#000000;stroke-opacity:0.2;stroke-width:0.8;" x="57.070851" xlink:href="#mc7adcb27f4" y="170.530589"/>
      </g>
     </g>
    </g>
    <g id="xtick_2">
     <g id="line2d_3">
      <path clip-path="url(#p27cc11e320)" d="M 159.353122 170.530589 
L 159.353122 7.2 
" style="fill:none;stroke:#000000;stroke-linejoin:miter;stroke-opacity:0.2;stroke-width:0.5;"/>
     </g>
     <g id="line2d_4">
      <g>
       <use style="fill-opacity:0.2;stroke:#000000;stroke-opacity:0.2;stroke-width:0.8;" x="159.353122" xlink:href="#mc7adcb27f4" y="170.530589"/>
      </g>
     </g>
    </g>
    <g id="xtick_3">
     <g id="line2d_5">
      <path clip-path="url(#p27cc11e320)" d="M 261.635394 170.530589 
L 261.635394 7.2 
" style="fill:none;stroke:#000000;stroke-linejoin:miter;stroke-opacity:0.2;stroke-width:0.5;"/>
     </g>
     <g id="line2d_6">
      <g>
       <use style="fill-opacity:0.2;stroke:#000000;stroke-opacity:0.2;stroke-width:0.8;" x="261.635394" xlink:href="#mc7adcb27f4" y="170.530589"/>
      </g>
     </g>
    </g>
    <g id="xtick_4">
     <g id="line2d_7">
      <path clip-path="url(#p27cc11e320)" d="M 363.917666 170.530589 
L 363.917666 7.2 
" style="fill:none;stroke:#000000;stroke-linejoin:miter;stroke-opacity:0.2;stroke-width:0.5;"/>
     </g>
     <g id="line2d_8">
      <g>
       <use style="fill-opacity:0.2;stroke:#000000;stroke-opacity:0.2;stroke-width:0.8;" x="363.917666" xlink:href="#mc7adcb27f4" y="170.530589"/>
      </g>
     </g>
    </g>
    <g id="xtick_5">
     <g id="line2d_9">
      <path clip-path="url(#p27cc11e320)" d="M 466.199938 170.530589 
L 466.199938 7.2 
" style="fill:none;stroke:#000000;stroke-linejoin:miter;stroke-opacity:0.2;stroke-width:0.5;"/>
     </g>
     <g id="line2d_10">
      <g>
       <use style="fill-opacity:0.2;stroke:#000000;stroke-opacity:0.2;stroke-width:0.8;" x="466.199938" xlink:href="#mc7adcb27f4" y="170.530589"/>
      </g>
     </g>
    </g>
    <g id="xtick_6">
     <g id="line2d_11">
      <path clip-path="url(#p27cc11e320)" d="M 568.48221 170.530589 
L 568.48221 7.2 
" style="fill:none;stroke:#000000;stroke-linejoin:miter;stroke-opacity:0.2;stroke-width:0.5;"/>
     </g>
     <g id="line2d_12">
      <g>
       <use style="fill-opacity:0.2;stroke:#000000;stroke-opacity:0.2;stroke-width:0.8;" x="568.48221" xlink:href="#mc7adcb27f4" y="170.530589"/>
      </g>
     </g>
    </g>
   </g>
   <g id="matplotlib.axis_2">
    <g id="ytick_1">
     <g id="line2d_13">
      <path clip-path="url(#p27cc11e320)" d="M 57.070851 154.19753 
L 568.48221 154.19753 
" style="fill:none;stroke:#000000;stroke-linejoin:miter;stroke-opacity:0.2;stroke-width:0.5;"/>
     </g>
     <g id="line2d_14">
      <defs>
       <path d="M 0 0 
L -3.5 0 
" id="m6626339528" style="stroke:#000000;stroke-opacity:0.2;stroke-width:0.8;"/>
      </defs>
      <g>
       <use style="fill-opacity:0.2;stroke:#000000;stroke-opacity:0.2;stroke-width:0.8;" x="57.070851" xlink:href="#m6626339528" y="154.19753"/>
      </g>
     </g>
     <g id="text_1">
      <!-- $\mathdefault{−2}$ -->
      <g transform="translate(23.12516 159.187295)scale(0.14 -0.14)">
       <defs>
        <path d="M 4218 1472 
C 4326 1472 4442 1472 4442 1600 
C 4442 1728 4326 1728 4218 1728 
L 755 1728 
C 646 1728 531 1728 531 1600 
C 531 1472 646 1472 755 1472 
L 4218 1472 
z
" id="CMSY10-0" transform="scale(0.015625)"/>
        <path d="M 102 166 
L 102 0 
C 1299 0 1299 0 1530 0 
C 1760 19 1760 19 2995 0 
C 2982 134 2982 198 2982 287 
C 2982 370 2982 434 2995 574 
C 2259 542 1965 536 781 510 
L 1946 1741 
C 2566 2398 2758 2749 2758 3228 
C 2758 3961 2259 4416 1446 4416 
C 986 4416 672 4287 358 3967 
L 250 3100 
L 435 3100 
L 518 3394 
C 621 3763 851 3923 1280 3923 
C 1830 3923 2182 3578 2182 3036 
C 2182 2558 1914 2086 1190 1320 
L 102 166 
z
" id="URWPalladioL-Roma-32" transform="scale(0.015625)"/>
       </defs>
       <use transform="scale(1.038107)" xlink:href="#CMSY10-0"/>
       <use transform="translate(81.941696 0)scale(0.996264)" xlink:href="#URWPalladioL-Roma-32"/>
      </g>
     </g>
    </g>
    <g id="ytick_2">
     <g id="line2d_15">
      <path clip-path="url(#p27cc11e320)" d="M 57.070851 121.531412 
L 568.48221 121.531412 
" style="fill:none;stroke:#000000;stroke-linejoin:miter;stroke-opacity:0.2;stroke-width:0.5;"/>
     </g>
     <g id="line2d_16">
      <g>
       <use style="fill-opacity:0.2;stroke:#000000;stroke-opacity:0.2;stroke-width:0.8;" x="57.070851" xlink:href="#m6626339528" y="121.531412"/>
      </g>
     </g>
     <g id="text_2">
      <!-- $\mathdefault{−1}$ -->
      <g transform="translate(23.12516 126.521177)scale(0.14 -0.14)">
       <defs>
        <path d="M 429 3571 
L 493 3571 
L 1318 3942 
C 1325 3949 1331 3949 1338 3949 
C 1376 3949 1389 3891 1389 3737 
L 1389 633 
C 1389 300 1318 230 973 211 
L 614 192 
L 614 0 
C 1600 0 1600 0 1670 0 
C 1754 0 1894 0 2112 -7 
C 2189 6 2413 6 2675 0 
L 2675 192 
L 2342 211 
C 1990 229 1926 299 1926 628 
L 1926 4383 
L 1837 4416 
C 1421 4199 966 4009 384 3807 
L 429 3571 
z
" id="URWPalladioL-Roma-31" transform="scale(0.015625)"/>
       </defs>
       <use transform="scale(1.038107)" xlink:href="#CMSY10-0"/>
       <use transform="translate(81.941696 0)scale(0.996264)" xlink:href="#URWPalladioL-Roma-31"/>
      </g>
     </g>
    </g>
    <g id="ytick_3">
     <g id="line2d_17">
      <path clip-path="url(#p27cc11e320)" d="M 57.070851 88.865295 
L 568.48221 88.865295 
" style="fill:none;stroke:#000000;stroke-linejoin:miter;stroke-opacity:0.2;stroke-width:0.5;"/>
     </g>
     <g id="line2d_18">
      <g>
       <use style="fill-opacity:0.2;stroke:#000000;stroke-opacity:0.2;stroke-width:0.8;" x="57.070851" xlink:href="#m6626339528" y="88.865295"/>
      </g>
     </g>
     <g id="text_3">
      <!-- $\mathdefault{0}$ -->
      <g transform="translate(34.597002 93.855059)scale(0.14 -0.14)">
       <defs>
        <path d="M 1683 4416 
C 691 4416 186 3628 186 2076 
C 186 1326 320 679 544 365 
C 768 51 1126 -128 1523 -128 
C 2490 -128 2976 704 2976 2345 
C 2976 3749 2560 4416 1683 4416 
z
M 1568 4191 
C 2189 4191 2438 3563 2438 2025 
C 2438 660 2195 96 1606 96 
C 986 96 723 743 723 2307 
C 723 3660 960 4191 1568 4191 
z
" id="URWPalladioL-Roma-30" transform="scale(0.015625)"/>
       </defs>
       <use transform="scale(0.996264)" xlink:href="#URWPalladioL-Roma-30"/>
      </g>
     </g>
    </g>
    <g id="ytick_4">
     <g id="line2d_19">
      <path clip-path="url(#p27cc11e320)" d="M 57.070851 56.199177 
L 568.48221 56.199177 
" style="fill:none;stroke:#000000;stroke-linejoin:miter;stroke-opacity:0.2;stroke-width:0.5;"/>
     </g>
     <g id="line2d_20">
      <g>
       <use style="fill-opacity:0.2;stroke:#000000;stroke-opacity:0.2;stroke-width:0.8;" x="57.070851" xlink:href="#m6626339528" y="56.199177"/>
      </g>
     </g>
     <g id="text_4">
      <!-- $\mathdefault{1}$ -->
      <g transform="translate(34.597002 61.188941)scale(0.14 -0.14)">
       <use transform="scale(0.996264)" xlink:href="#URWPalladioL-Roma-31"/>
      </g>
     </g>
    </g>
    <g id="ytick_5">
     <g id="line2d_21">
      <path clip-path="url(#p27cc11e320)" d="M 57.070851 23.533059 
L 568.48221 23.533059 
" style="fill:none;stroke:#000000;stroke-linejoin:miter;stroke-opacity:0.2;stroke-width:0.5;"/>
     </g>
     <g id="line2d_22">
      <g>
       <use style="fill-opacity:0.2;stroke:#000000;stroke-opacity:0.2;stroke-width:0.8;" x="57.070851" xlink:href="#m6626339528" y="23.533059"/>
      </g>
     </g>
     <g id="text_5">
      <!-- $\mathdefault{2}$ -->
      <g transform="translate(34.597002 28.522824)scale(0.14 -0.14)">
       <use transform="scale(0.996264)" xlink:href="#URWPalladioL-Roma-32"/>
      </g>
     </g>
    </g>
    <g id="text_6">
     <!-- Input -->
     <g transform="translate(15.753876 103.504163)rotate(-90)scale(0.12 -0.12)">
      <defs>
       <path d="M 1382 3633 
C 1382 4135 1414 4185 1709 4204 
L 2016 4223 
L 2016 4416 
C 1549 4396 1408 4396 1075 4396 
C 755 4396 602 4403 141 4416 
L 141 4223 
L 448 4204 
C 742 4185 774 4135 774 3633 
L 774 782 
C 774 280 742 230 448 211 
L 141 192 
L 141 0 
C 518 -7 742 0 1075 0 
C 1408 19 1638 12 2016 0 
L 2016 192 
L 1709 211 
C 1414 230 1382 281 1382 787 
L 1382 3633 
z
" id="URWPalladioL-Roma-49" transform="scale(0.015625)"/>
       <path d="M 2624 0 
C 3014 0 3021 0 3130 0 
C 3219 19 3219 19 3661 0 
L 3661 192 
L 3398 211 
C 3181 223 3162 262 3162 670 
L 3162 1902 
C 3162 2649 2810 3014 2093 3014 
C 1856 3014 1722 2969 1587 2854 
L 1101 2432 
L 1101 2988 
L 1043 3008 
C 717 2873 384 2784 45 2746 
L 45 2568 
L 282 2568 
C 538 2568 563 2523 563 2103 
L 563 669 
C 563 268 544 223 326 211 
L 38 192 
L 38 0 
C 474 -7 646 0 832 0 
C 1018 19 1190 12 1626 0 
L 1626 192 
L 1338 211 
C 1120 223 1101 268 1101 670 
L 1101 2023 
C 1101 2311 1523 2624 1914 2624 
C 2342 2624 2624 2304 2624 1813 
L 2624 0 
z
" id="URWPalladioL-Roma-6e" transform="scale(0.015625)"/>
       <path d="M 64 2566 
L 301 2566 
C 557 2566 582 2521 582 2100 
L 582 -1118 
C 582 -1523 563 -1568 346 -1581 
L 51 -1600 
L 51 -1792 
C 691 -1773 691 -1773 851 -1773 
C 1011 -1773 1011 -1773 1651 -1792 
L 1651 -1600 
L 1357 -1581 
C 1139 -1568 1120 -1523 1120 -1118 
L 1120 96 
C 1312 -20 1517 -64 1805 -64 
C 1990 -64 2157 -26 2259 38 
L 2989 511 
C 3245 677 3546 1334 3546 1743 
C 3546 2451 2957 3008 2214 3008 
C 1978 3008 1747 2943 1645 2847 
L 1120 2368 
L 1120 2982 
L 1062 3008 
C 736 2873 403 2783 64 2745 
L 64 2566 
z
M 1120 1966 
C 1120 2055 1152 2126 1235 2234 
C 1421 2470 1683 2591 2003 2591 
C 2605 2591 2989 2170 2989 1507 
C 2989 792 2560 262 1984 262 
C 1632 262 1370 377 1120 639 
L 1120 1966 
z
" id="URWPalladioL-Roma-70" transform="scale(0.015625)"/>
       <path d="M 3219 2982 
L 3162 3008 
C 2835 2873 2502 2784 2163 2745 
L 2163 2567 
L 2400 2567 
C 2656 2567 2682 2522 2682 2101 
L 2682 1060 
C 2682 920 2592 741 2445 594 
C 2266 415 2061 326 1811 326 
C 1587 326 1408 396 1306 517 
C 1216 620 1171 817 1171 1098 
L 1171 2982 
L 1114 3008 
C 787 2873 454 2784 115 2745 
L 115 2567 
L 352 2567 
C 608 2567 634 2522 634 2101 
L 634 1028 
C 634 581 672 383 787 224 
C 928 32 1171 -64 1536 -64 
C 1824 -58 2080 32 2253 192 
L 2682 588 
C 2682 403 2675 300 2656 0 
C 3085 0 3091 0 3187 0 
C 3277 19 3277 19 3718 0 
L 3718 192 
L 3456 211 
C 3238 224 3219 262 3219 672 
L 3219 2982 
z
" id="URWPalladioL-Roma-75" transform="scale(0.015625)"/>
       <path d="M 627 2457 
L 627 614 
C 627 140 838 -64 1331 -64 
C 1478 -64 1632 -32 1670 12 
L 1978 352 
L 1894 460 
C 1734 371 1638 339 1517 339 
C 1267 339 1165 467 1165 780 
L 1165 2457 
L 1984 2457 
L 2042 2803 
L 1165 2764 
L 1165 3008 
C 1165 3277 1184 3507 1235 3917 
L 1158 3987 
C 1005 3891 813 3808 614 3744 
C 634 3552 640 3430 640 3238 
L 640 2790 
L 141 2566 
L 141 2432 
L 627 2457 
z
" id="URWPalladioL-Roma-74" transform="scale(0.015625)"/>
      </defs>
      <use transform="scale(0.996264)" xlink:href="#URWPalladioL-Roma-49"/>
      <use transform="translate(33.574079 0)scale(0.996264)" xlink:href="#URWPalladioL-Roma-6e"/>
      <use transform="translate(91.55614 0)scale(0.996264)" xlink:href="#URWPalladioL-Roma-70"/>
      <use transform="translate(151.430533 0)scale(0.996264)" xlink:href="#URWPalladioL-Roma-75"/>
      <use transform="translate(211.504268 0)scale(0.996264)" xlink:href="#URWPalladioL-Roma-74"/>
     </g>
    </g>
   </g>
   <g id="line2d_23">
    <path clip-path="url(#p27cc11e320)" d="M 57.070851 56.199177 
L 67.299078 56.199177 
L 67.299078 56.199177 
L 77.527305 56.199177 
L 77.527305 56.199177 
L 87.755532 56.199177 
L 87.755532 56.199177 
L 97.983759 56.199177 
L 97.983759 56.199177 
L 108.211986 56.199177 
L 108.211986 121.531412 
L 118.440214 121.531412 
L 118.440214 121.531412 
L 128.668441 121.531412 
L 128.668441 121.531412 
L 138.896668 121.531412 
L 138.896668 121.531412 
L 149.124895 121.531412 
L 149.124895 121.531412 
L 159.353122 121.531412 
L 159.353122 56.199177 
L 169.58135 56.199177 
L 169.58135 56.199177 
L 179.809577 56.199177 
L 179.809577 56.199177 
L 190.037804 56.199177 
L 190.037804 56.199177 
L 200.266031 56.199177 
L 200.266031 56.199177 
L 210.494258 56.199177 
L 210.494258 121.531412 
L 220.722486 121.531412 
L 220.722486 121.531412 
L 230.950713 121.531412 
L 230.950713 121.531412 
L 241.17894 121.531412 
L 241.17894 121.531412 
L 251.407167 121.531412 
L 251.407167 121.531412 
L 261.635394 121.531412 
L 261.635394 56.199177 
L 271.863621 56.199177 
L 271.863621 56.199177 
L 282.091849 56.199177 
L 282.091849 56.199177 
L 292.320076 56.199177 
L 292.320076 56.199177 
L 302.548303 56.199177 
L 302.548303 56.199177 
L 312.77653 56.199177 
L 312.77653 121.531412 
L 323.004757 121.531412 
L 323.004757 121.531412 
L 333.232985 121.531412 
L 333.232985 121.531412 
L 343.461212 121.531412 
L 343.461212 121.531412 
L 353.689439 121.531412 
L 353.689439 121.531412 
L 363.917666 121.531412 
L 363.917666 56.199177 
L 374.145893 56.199177 
L 374.145893 56.199177 
L 384.374121 56.199177 
L 384.374121 56.199177 
L 394.602348 56.199177 
L 394.602348 56.199177 
L 404.830575 56.199177 
L 404.830575 56.199177 
L 415.058802 56.199177 
L 415.058802 121.531412 
L 425.287029 121.531412 
L 425.287029 121.531412 
L 435.515256 121.531412 
L 435.515256 121.531412 
L 445.743484 121.531412 
L 445.743484 121.531412 
L 455.971711 121.531412 
L 455.971711 121.531412 
L 466.199938 121.531412 
L 466.199938 56.199177 
L 476.428165 56.199177 
L 476.428165 56.199177 
L 486.656392 56.199177 
L 486.656392 56.199177 
L 496.88462 56.199177 
L 496.88462 56.199177 
L 507.112847 56.199177 
L 507.112847 56.199177 
L 517.341074 56.199177 
L 517.341074 121.531412 
L 527.569301 121.531412 
L 527.569301 121.531412 
L 537.797528 121.531412 
L 537.797528 121.531412 
L 548.025756 121.531412 
L 548.025756 121.531412 
L 558.253983 121.531412 
L 558.253983 121.531412 
" style="fill:none;stroke:#0271ae;stroke-linejoin:miter;stroke-width:3;"/>
    <defs>
     <path d="M -2.5 2.5 
L 2.5 2.5 
L 2.5 -2.5 
L -2.5 -2.5 
z
" id="mc6cfabd0f4"/>
    </defs>
    <g clip-path="url(#p27cc11e320)">
     <use style="fill:#0271ae;" x="57.070851" xlink:href="#mc6cfabd0f4" y="56.199177"/>
     <use style="fill:#0271ae;" x="67.299078" xlink:href="#mc6cfabd0f4" y="56.199177"/>
     <use style="fill:#0271ae;" x="77.527305" xlink:href="#mc6cfabd0f4" y="56.199177"/>
     <use style="fill:#0271ae;" x="87.755532" xlink:href="#mc6cfabd0f4" y="56.199177"/>
     <use style="fill:#0271ae;" x="97.983759" xlink:href="#mc6cfabd0f4" y="56.199177"/>
     <use style="fill:#0271ae;" x="108.211986" xlink:href="#mc6cfabd0f4" y="121.531412"/>
     <use style="fill:#0271ae;" x="118.440214" xlink:href="#mc6cfabd0f4" y="121.531412"/>
     <use style="fill:#0271ae;" x="128.668441" xlink:href="#mc6cfabd0f4" y="121.531412"/>
     <use style="fill:#0271ae;" x="138.896668" xlink:href="#mc6cfabd0f4" y="121.531412"/>
     <use style="fill:#0271ae;" x="149.124895" xlink:href="#mc6cfabd0f4" y="121.531412"/>
     <use style="fill:#0271ae;" x="159.353122" xlink:href="#mc6cfabd0f4" y="56.199177"/>
     <use style="fill:#0271ae;" x="169.58135" xlink:href="#mc6cfabd0f4" y="56.199177"/>
     <use style="fill:#0271ae;" x="179.809577" xlink:href="#mc6cfabd0f4" y="56.199177"/>
     <use style="fill:#0271ae;" x="190.037804" xlink:href="#mc6cfabd0f4" y="56.199177"/>
     <use style="fill:#0271ae;" x="200.266031" xlink:href="#mc6cfabd0f4" y="56.199177"/>
     <use style="fill:#0271ae;" x="210.494258" xlink:href="#mc6cfabd0f4" y="121.531412"/>
     <use style="fill:#0271ae;" x="220.722486" xlink:href="#mc6cfabd0f4" y="121.531412"/>
     <use style="fill:#0271ae;" x="230.950713" xlink:href="#mc6cfabd0f4" y="121.531412"/>
     <use style="fill:#0271ae;" x="241.17894" xlink:href="#mc6cfabd0f4" y="121.531412"/>
     <use style="fill:#0271ae;" x="251.407167" xlink:href="#mc6cfabd0f4" y="121.531412"/>
     <use style="fill:#0271ae;" x="261.635394" xlink:href="#mc6cfabd0f4" y="56.199177"/>
     <use style="fill:#0271ae;" x="271.863621" xlink:href="#mc6cfabd0f4" y="56.199177"/>
     <use style="fill:#0271ae;" x="282.091849" xlink:href="#mc6cfabd0f4" y="56.199177"/>
     <use style="fill:#0271ae;" x="292.320076" xlink:href="#mc6cfabd0f4" y="56.199177"/>
     <use style="fill:#0271ae;" x="302.548303" xlink:href="#mc6cfabd0f4" y="56.199177"/>
     <use style="fill:#0271ae;" x="312.77653" xlink:href="#mc6cfabd0f4" y="121.531412"/>
     <use style="fill:#0271ae;" x="323.004757" xlink:href="#mc6cfabd0f4" y="121.531412"/>
     <use style="fill:#0271ae;" x="333.232985" xlink:href="#mc6cfabd0f4" y="121.531412"/>
     <use style="fill:#0271ae;" x="343.461212" xlink:href="#mc6cfabd0f4" y="121.531412"/>
     <use style="fill:#0271ae;" x="353.689439" xlink:href="#mc6cfabd0f4" y="121.531412"/>
     <use style="fill:#0271ae;" x="363.917666" xlink:href="#mc6cfabd0f4" y="56.199177"/>
     <use style="fill:#0271ae;" x="374.145893" xlink:href="#mc6cfabd0f4" y="56.199177"/>
     <use style="fill:#0271ae;" x="384.374121" xlink:href="#mc6cfabd0f4" y="56.199177"/>
     <use style="fill:#0271ae;" x="394.602348" xlink:href="#mc6cfabd0f4" y="56.199177"/>
     <use style="fill:#0271ae;" x="404.830575" xlink:href="#mc6cfabd0f4" y="56.199177"/>
     <use style="fill:#0271ae;" x="415.058802" xlink:href="#mc6cfabd0f4" y="121.531412"/>
     <use style="fill:#0271ae;" x="425.287029" xlink:href="#mc6cfabd0f4" y="121.531412"/>
     <use style="fill:#0271ae;" x="435.515256" xlink:href="#mc6cfabd0f4" y="121.531412"/>
     <use style="fill:#0271ae;" x="445.743484" xlink:href="#mc6cfabd0f4" y="121.531412"/>
     <use style="fill:#0271ae;" x="455.971711" xlink:href="#mc6cfabd0f4" y="121.531412"/>
     <use style="fill:#0271ae;" x="466.199938" xlink:href="#mc6cfabd0f4" y="56.199177"/>
     <use style="fill:#0271ae;" x="476.428165" xlink:href="#mc6cfabd0f4" y="56.199177"/>
     <use style="fill:#0271ae;" x="486.656392" xlink:href="#mc6cfabd0f4" y="56.199177"/>
     <use style="fill:#0271ae;" x="496.88462" xlink:href="#mc6cfabd0f4" y="56.199177"/>
     <use style="fill:#0271ae;" x="507.112847" xlink:href="#mc6cfabd0f4" y="56.199177"/>
     <use style="fill:#0271ae;" x="517.341074" xlink:href="#mc6cfabd0f4" y="121.531412"/>
     <use style="fill:#0271ae;" x="527.569301" xlink:href="#mc6cfabd0f4" y="121.531412"/>
     <use style="fill:#0271ae;" x="537.797528" xlink:href="#mc6cfabd0f4" y="121.531412"/>
     <use style="fill:#0271ae;" x="548.025756" xlink:href="#mc6cfabd0f4" y="121.531412"/>
     <use style="fill:#0271ae;" x="558.253983" xlink:href="#mc6cfabd0f4" y="121.531412"/>
    </g>
   </g>
   <g id="line2d_24">
    <path clip-path="url(#p27cc11e320)" d="M 87.755532 56.199177 
L 97.983759 56.199177 
L 97.983759 56.199177 
L 108.211986 56.199177 
L 108.211986 56.199177 
L 118.440214 56.199177 
L 118.440214 56.199177 
L 128.668441 56.199177 
L 128.668441 56.199177 
L 138.896668 56.199177 
L 138.896668 121.531412 
L 149.124895 121.531412 
L 149.124895 121.531412 
L 159.353122 121.531412 
L 159.353122 121.531412 
L 169.58135 121.531412 
L 169.58135 121.531412 
L 179.809577 121.531412 
L 179.809577 121.531412 
L 190.037804 121.531412 
L 190.037804 56.199177 
L 200.266031 56.199177 
L 200.266031 56.199177 
L 210.494258 56.199177 
L 210.494258 56.199177 
L 220.722486 56.199177 
L 220.722486 56.199177 
L 230.950713 56.199177 
L 230.950713 56.199177 
L 241.17894 56.199177 
L 241.17894 121.531412 
L 251.407167 121.531412 
L 251.407167 121.531412 
L 261.635394 121.531412 
L 261.635394 121.531412 
L 271.863621 121.531412 
L 271.863621 121.531412 
L 282.091849 121.531412 
L 282.091849 121.531412 
L 292.320076 121.531412 
L 292.320076 56.199177 
L 302.548303 56.199177 
L 302.548303 56.199177 
L 312.77653 56.199177 
L 312.77653 56.199177 
L 323.004757 56.199177 
L 323.004757 56.199177 
L 333.232985 56.199177 
L 333.232985 56.199177 
L 343.461212 56.199177 
L 343.461212 121.531412 
L 353.689439 121.531412 
L 353.689439 121.531412 
L 363.917666 121.531412 
L 363.917666 121.531412 
L 374.145893 121.531412 
L 374.145893 121.531412 
L 384.374121 121.531412 
L 384.374121 121.531412 
L 394.602348 121.531412 
L 394.602348 56.199177 
L 404.830575 56.199177 
L 404.830575 56.199177 
L 415.058802 56.199177 
L 415.058802 56.199177 
L 425.287029 56.199177 
L 425.287029 56.199177 
L 435.515256 56.199177 
L 435.515256 56.199177 
L 445.743484 56.199177 
L 445.743484 121.531412 
L 455.971711 121.531412 
L 455.971711 121.531412 
L 466.199938 121.531412 
L 466.199938 121.531412 
L 476.428165 121.531412 
L 476.428165 121.531412 
L 486.656392 121.531412 
L 486.656392 121.531412 
L 496.88462 121.531412 
L 496.88462 56.199177 
L 507.112847 56.199177 
L 507.112847 56.199177 
L 517.341074 56.199177 
L 517.341074 56.199177 
L 527.569301 56.199177 
L 527.569301 56.199177 
L 537.797528 56.199177 
L 537.797528 56.199177 
L 548.025756 56.199177 
L 548.025756 121.531412 
L 558.253983 121.531412 
L 558.253983 121.531412 
L 568.48221 121.531412 
L 568.48221 121.531412 
L 578.710437 121.531412 
L 578.710437 121.531412 
L 585.39952 121.531412 
" style="fill:none;stroke:#dc2830;stroke-linejoin:miter;stroke-opacity:0.5;stroke-width:3;"/>
    <defs>
     <path d="M -2.5 2.5 
L 2.5 2.5 
L 2.5 -2.5 
L -2.5 -2.5 
z
" id="mfd38a4be53"/>
    </defs>
    <g clip-path="url(#p27cc11e320)">
     <use style="fill:#dc2830;fill-opacity:0.5;" x="87.755532" xlink:href="#mfd38a4be53" y="56.199177"/>
     <use style="fill:#dc2830;fill-opacity:0.5;" x="97.983759" xlink:href="#mfd38a4be53" y="56.199177"/>
     <use style="fill:#dc2830;fill-opacity:0.5;" x="108.211986" xlink:href="#mfd38a4be53" y="56.199177"/>
     <use style="fill:#dc2830;fill-opacity:0.5;" x="118.440214" xlink:href="#mfd38a4be53" y="56.199177"/>
     <use style="fill:#dc2830;fill-opacity:0.5;" x="128.668441" xlink:href="#mfd38a4be53" y="56.199177"/>
     <use style="fill:#dc2830;fill-opacity:0.5;" x="138.896668" xlink:href="#mfd38a4be53" y="121.531412"/>
     <use style="fill:#dc2830;fill-opacity:0.5;" x="149.124895" xlink:href="#mfd38a4be53" y="121.531412"/>
     <use style="fill:#dc2830;fill-opacity:0.5;" x="159.353122" xlink:href="#mfd38a4be53" y="121.531412"/>
     <use style="fill:#dc2830;fill-opacity:0.5;" x="169.58135" xlink:href="#mfd38a4be53" y="121.531412"/>
     <use style="fill:#dc2830;fill-opacity:0.5;" x="179.809577" xlink:href="#mfd38a4be53" y="121.531412"/>
     <use style="fill:#dc2830;fill-opacity:0.5;" x="190.037804" xlink:href="#mfd38a4be53" y="56.199177"/>
     <use style="fill:#dc2830;fill-opacity:0.5;" x="200.266031" xlink:href="#mfd38a4be53" y="56.199177"/>
     <use style="fill:#dc2830;fill-opacity:0.5;" x="210.494258" xlink:href="#mfd38a4be53" y="56.199177"/>
     <use style="fill:#dc2830;fill-opacity:0.5;" x="220.722486" xlink:href="#mfd38a4be53" y="56.199177"/>
     <use style="fill:#dc2830;fill-opacity:0.5;" x="230.950713" xlink:href="#mfd38a4be53" y="56.199177"/>
     <use style="fill:#dc2830;fill-opacity:0.5;" x="241.17894" xlink:href="#mfd38a4be53" y="121.531412"/>
     <use style="fill:#dc2830;fill-opacity:0.5;" x="251.407167" xlink:href="#mfd38a4be53" y="121.531412"/>
     <use style="fill:#dc2830;fill-opacity:0.5;" x="261.635394" xlink:href="#mfd38a4be53" y="121.531412"/>
     <use style="fill:#dc2830;fill-opacity:0.5;" x="271.863621" xlink:href="#mfd38a4be53" y="121.531412"/>
     <use style="fill:#dc2830;fill-opacity:0.5;" x="282.091849" xlink:href="#mfd38a4be53" y="121.531412"/>
     <use style="fill:#dc2830;fill-opacity:0.5;" x="292.320076" xlink:href="#mfd38a4be53" y="56.199177"/>
     <use style="fill:#dc2830;fill-opacity:0.5;" x="302.548303" xlink:href="#mfd38a4be53" y="56.199177"/>
     <use style="fill:#dc2830;fill-opacity:0.5;" x="312.77653" xlink:href="#mfd38a4be53" y="56.199177"/>
     <use style="fill:#dc2830;fill-opacity:0.5;" x="323.004757" xlink:href="#mfd38a4be53" y="56.199177"/>
     <use style="fill:#dc2830;fill-opacity:0.5;" x="333.232985" xlink:href="#mfd38a4be53" y="56.199177"/>
     <use style="fill:#dc2830;fill-opacity:0.5;" x="343.461212" xlink:href="#mfd38a4be53" y="121.531412"/>
     <use style="fill:#dc2830;fill-opacity:0.5;" x="353.689439" xlink:href="#mfd38a4be53" y="121.531412"/>
     <use style="fill:#dc2830;fill-opacity:0.5;" x="363.917666" xlink:href="#mfd38a4be53" y="121.531412"/>
     <use style="fill:#dc2830;fill-opacity:0.5;" x="374.145893" xlink:href="#mfd38a4be53" y="121.531412"/>
     <use style="fill:#dc2830;fill-opacity:0.5;" x="384.374121" xlink:href="#mfd38a4be53" y="121.531412"/>
     <use style="fill:#dc2830;fill-opacity:0.5;" x="394.602348" xlink:href="#mfd38a4be53" y="56.199177"/>
     <use style="fill:#dc2830;fill-opacity:0.5;" x="404.830575" xlink:href="#mfd38a4be53" y="56.199177"/>
     <use style="fill:#dc2830;fill-opacity:0.5;" x="415.058802" xlink:href="#mfd38a4be53" y="56.199177"/>
     <use style="fill:#dc2830;fill-opacity:0.5;" x="425.287029" xlink:href="#mfd38a4be53" y="56.199177"/>
     <use style="fill:#dc2830;fill-opacity:0.5;" x="435.515256" xlink:href="#mfd38a4be53" y="56.199177"/>
     <use style="fill:#dc2830;fill-opacity:0.5;" x="445.743484" xlink:href="#mfd38a4be53" y="121.531412"/>
     <use style="fill:#dc2830;fill-opacity:0.5;" x="455.971711" xlink:href="#mfd38a4be53" y="121.531412"/>
     <use style="fill:#dc2830;fill-opacity:0.5;" x="466.199938" xlink:href="#mfd38a4be53" y="121.531412"/>
     <use style="fill:#dc2830;fill-opacity:0.5;" x="476.428165" xlink:href="#mfd38a4be53" y="121.531412"/>
     <use style="fill:#dc2830;fill-opacity:0.5;" x="486.656392" xlink:href="#mfd38a4be53" y="121.531412"/>
     <use style="fill:#dc2830;fill-opacity:0.5;" x="496.88462" xlink:href="#mfd38a4be53" y="56.199177"/>
     <use style="fill:#dc2830;fill-opacity:0.5;" x="507.112847" xlink:href="#mfd38a4be53" y="56.199177"/>
     <use style="fill:#dc2830;fill-opacity:0.5;" x="517.341074" xlink:href="#mfd38a4be53" y="56.199177"/>
     <use style="fill:#dc2830;fill-opacity:0.5;" x="527.569301" xlink:href="#mfd38a4be53" y="56.199177"/>
     <use style="fill:#dc2830;fill-opacity:0.5;" x="537.797528" xlink:href="#mfd38a4be53" y="56.199177"/>
     <use style="fill:#dc2830;fill-opacity:0.5;" x="548.025756" xlink:href="#mfd38a4be53" y="121.531412"/>
     <use style="fill:#dc2830;fill-opacity:0.5;" x="558.253983" xlink:href="#mfd38a4be53" y="121.531412"/>
     <use style="fill:#dc2830;fill-opacity:0.5;" x="568.48221" xlink:href="#mfd38a4be53" y="121.531412"/>
     <use style="fill:#dc2830;fill-opacity:0.5;" x="578.710437" xlink:href="#mfd38a4be53" y="121.531412"/>
     <use style="fill:#dc2830;fill-opacity:0.5;" x="588.938664" xlink:href="#mfd38a4be53" y="121.531412"/>
    </g>
   </g>
   <g id="legend_1">
    <g id="patch_3">
     <path d="M 66.870851 163.530589 
L 222.879231 163.530589 
Q 225.679231 163.530589 225.679231 160.730589 
L 225.679231 140.597108 
Q 225.679231 137.797108 222.879231 137.797108 
L 66.870851 137.797108 
Q 64.070851 137.797108 64.070851 140.597108 
L 64.070851 160.730589 
Q 64.070851 163.530589 66.870851 163.530589 
z
" style="fill:#ffffff;opacity:0.95;stroke:#cccccc;stroke-linejoin:miter;stroke-width:0.5;"/>
    </g>
    <g id="line2d_25">
     <path d="M 69.670851 149.097417 
L 83.670851 149.097417 
" style="fill:none;stroke:#0271ae;stroke-linejoin:miter;stroke-width:3;"/>
    </g>
    <g id="line2d_26">
     <g>
      <use style="fill:#0271ae;" x="76.670851" xlink:href="#mc6cfabd0f4" y="149.097417"/>
     </g>
    </g>
    <g id="text_7">
     <!-- $x[n]$ -->
     <g transform="translate(94.870851 153.997417)scale(0.14 -0.14)">
      <defs>
       <path d="M 134 567 
C 134 440 122 358 83 153 
C 70 76 64 57 58 12 
C 154 -39 256 -64 333 -64 
C 544 -64 794 121 992 421 
L 1478 1164 
L 1549 726 
C 1632 185 1779 -64 2010 -64 
C 2150 -64 2355 44 2560 230 
L 2874 510 
L 2816 631 
C 2586 440 2426 345 2323 345 
C 2227 345 2144 409 2080 536 
C 2022 656 1952 891 1920 1075 
L 1805 1716 
L 2029 2027 
C 2330 2439 2502 2585 2701 2585 
C 2803 2585 2880 2534 2912 2439 
L 3002 2465 
L 3098 3007 
C 3021 3052 2963 3072 2906 3072 
C 2650 3072 2394 2841 1997 2255 
L 1760 1906 
L 1722 2211 
C 1645 2841 1472 3072 1094 3072 
C 928 3072 787 3020 730 2937 
L 358 2408 
L 467 2344 
C 659 2560 787 2649 909 2649 
C 1120 2649 1261 2389 1370 1767 
L 1440 1373 
L 1184 980 
C 909 555 691 352 512 352 
C 416 352 346 377 333 409 
L 262 586 
L 134 567 
z
" id="URWPalladioL-Ital-78" transform="scale(0.015625)"/>
       <path d="M 1632 -1601 
L 1632 -1344 
L 1011 -1344 
L 1011 4544 
L 1632 4544 
L 1632 4800 
L 755 4800 
L 755 -1601 
L 1632 -1601 
z
" id="CMR10-5b" transform="scale(0.015625)"/>
       <path d="M 154 2471 
L 198 2343 
L 403 2477 
C 640 2624 659 2637 704 2637 
C 774 2637 819 2573 819 2477 
C 819 2152 557 919 294 6 
L 339 -64 
C 499 -20 646 19 787 44 
C 909 849 1043 1264 1338 1705 
C 1683 2241 2163 2637 2451 2637 
C 2522 2637 2560 2579 2560 2484 
C 2560 2369 2541 2235 2490 2030 
L 2157 677 
C 2099 440 2074 293 2074 191 
C 2074 32 2144 -64 2266 -64 
C 2432 -64 2662 70 3290 536 
L 3226 651 
L 3059 542 
C 2874 421 2733 351 2669 351 
C 2624 351 2586 408 2586 479 
C 2586 511 2592 581 2598 606 
L 3021 2369 
C 3066 2554 3091 2733 3091 2841 
C 3091 2988 3021 3072 2893 3072 
C 2624 3072 2182 2829 1805 2477 
C 1562 2254 1382 2037 1050 1571 
L 1293 2599 
C 1318 2714 1331 2790 1331 2860 
C 1331 2995 1280 3072 1184 3072 
C 1050 3072 800 2931 333 2599 
L 154 2471 
z
" id="URWPalladioL-Ital-6e" transform="scale(0.015625)"/>
       <path d="M 1018 4800 
L 141 4800 
L 141 4544 
L 762 4544 
L 762 -1344 
L 141 -1344 
L 141 -1601 
L 1018 -1601 
L 1018 4800 
z
" id="CMR10-5d" transform="scale(0.015625)"/>
      </defs>
      <use transform="scale(0.996264)" xlink:href="#URWPalladioL-Ital-78"/>
      <use transform="translate(53.299136 0)scale(1.038107)" xlink:href="#CMR10-5b"/>
      <use transform="translate(84.581835 0)scale(0.996264)" xlink:href="#URWPalladioL-Ital-6e"/>
      <use transform="translate(142.464796 0)scale(1.038107)" xlink:href="#CMR10-5d"/>
     </g>
    </g>
    <g id="line2d_27">
     <path d="M 146.853 149.097417 
L 160.853 149.097417 
" style="fill:none;stroke:#dc2830;stroke-linejoin:miter;stroke-opacity:0.5;stroke-width:3;"/>
    </g>
    <g id="line2d_28">
     <g>
      <use style="fill:#dc2830;fill-opacity:0.5;" x="153.853" xlink:href="#mfd38a4be53" y="149.097417"/>
     </g>
    </g>
    <g id="text_8">
     <!-- $x[n-3]$ -->
     <g transform="translate(172.053 153.997417)scale(0.14 -0.14)">
      <defs>
       <path d="M 275 3196 
L 474 3196 
L 589 3553 
C 659 3770 1062 3987 1395 3987 
C 1811 3987 2150 3649 2150 3247 
C 2150 2769 1773 2368 1318 2368 
C 1267 2368 1197 2374 1114 2380 
L 1018 2387 
L 941 2047 
L 986 2008 
C 1229 2118 1350 2150 1523 2150 
C 2054 2150 2362 1808 2362 1222 
C 2362 565 1971 134 1376 134 
C 1082 134 819 231 627 411 
C 474 553 390 701 269 1048 
L 96 984 
C 230 591 282 359 320 38 
C 659 -77 941 -128 1178 -128 
C 1690 -128 2278 160 2630 591 
C 2848 855 2957 1139 2957 1441 
C 2957 1750 2829 2021 2598 2182 
C 2438 2297 2291 2348 1971 2406 
C 2483 2801 2675 3094 2675 3470 
C 2675 4038 2202 4416 1491 4416 
C 1056 4416 768 4294 461 3987 
L 275 3196 
z
" id="URWPalladioL-Roma-33" transform="scale(0.015625)"/>
      </defs>
      <use transform="scale(0.996264)" xlink:href="#URWPalladioL-Ital-78"/>
      <use transform="translate(53.299136 0)scale(1.038107)" xlink:href="#CMR10-5b"/>
      <use transform="translate(84.581835 0)scale(0.996264)" xlink:href="#URWPalladioL-Ital-6e"/>
      <use transform="translate(161.836549 0)scale(1.038107)" xlink:href="#CMSY10-0"/>
      <use transform="translate(263.149998 0)scale(0.996264)" xlink:href="#URWPalladioL-Roma-33"/>
      <use transform="translate(314.208498 0)scale(1.038107)" xlink:href="#CMR10-5d"/>
     </g>
    </g>
   </g>
  </g>
  <g id="axes_2">
   <g id="patch_4">
    <path d="M 57.070851 339.861659 
L 568.48221 339.861659 
L 568.48221 176.531069 
L 57.070851 176.531069 
z
" style="fill:none;"/>
   </g>
   <g id="patch_5">
    <path clip-path="url(#p0513e5b7c7)" d="M 57.070851 339.861659 
L 57.070851 176.531069 
L 77.527305 176.531069 
L 77.527305 339.861659 
z
" style="fill:#343837;opacity:0.1;stroke:#343837;stroke-linejoin:miter;stroke-width:0.5;"/>
   </g>
   <g id="matplotlib.axis_3">
    <g id="xtick_7">
     <g id="line2d_29">
      <path clip-path="url(#p0513e5b7c7)" d="M 57.070851 339.861659 
L 57.070851 176.531069 
" style="fill:none;stroke:#000000;stroke-linejoin:miter;stroke-opacity:0.2;stroke-width:0.5;"/>
     </g>
     <g id="line2d_30">
      <g>
       <use style="fill-opacity:0.2;stroke:#000000;stroke-opacity:0.2;stroke-width:0.8;" x="57.070851" xlink:href="#mc7adcb27f4" y="339.861659"/>
      </g>
     </g>
     <g id="text_9">
      <!-- $\mathdefault{0.0}$ -->
      <g transform="translate(48.35354 365.341188)scale(0.14 -0.14)">
       <defs>
        <path d="M 794 678 
C 602 678 429 499 429 307 
C 429 115 602 -64 787 -64 
C 992 -64 1171 108 1171 307 
C 1171 499 992 678 794 678 
z
" id="URWPalladioL-Roma-2e" transform="scale(0.015625)"/>
       </defs>
       <use transform="scale(0.996264)" xlink:href="#URWPalladioL-Roma-30"/>
       <use transform="translate(49.8132 0)scale(0.996264)" xlink:href="#URWPalladioL-Roma-2e"/>
       <use transform="translate(74.719801 0)scale(0.996264)" xlink:href="#URWPalladioL-Roma-30"/>
      </g>
     </g>
    </g>
    <g id="xtick_8">
     <g id="line2d_31">
      <path clip-path="url(#p0513e5b7c7)" d="M 159.353122 339.861659 
L 159.353122 176.531069 
" style="fill:none;stroke:#000000;stroke-linejoin:miter;stroke-opacity:0.2;stroke-width:0.5;"/>
     </g>
     <g id="line2d_32">
      <g>
       <use style="fill-opacity:0.2;stroke:#000000;stroke-opacity:0.2;stroke-width:0.8;" x="159.353122" xlink:href="#mc7adcb27f4" y="339.861659"/>
      </g>
     </g>
     <g id="text_10">
      <!-- $\mathdefault{0.2}$ -->
      <g transform="translate(150.635812 365.341188)scale(0.14 -0.14)">
       <use transform="scale(0.996264)" xlink:href="#URWPalladioL-Roma-30"/>
       <use transform="translate(49.8132 0)scale(0.996264)" xlink:href="#URWPalladioL-Roma-2e"/>
       <use transform="translate(74.719801 0)scale(0.996264)" xlink:href="#URWPalladioL-Roma-32"/>
      </g>
     </g>
    </g>
    <g id="xtick_9">
     <g id="line2d_33">
      <path clip-path="url(#p0513e5b7c7)" d="M 261.635394 339.861659 
L 261.635394 176.531069 
" style="fill:none;stroke:#000000;stroke-linejoin:miter;stroke-opacity:0.2;stroke-width:0.5;"/>
     </g>
     <g id="line2d_34">
      <g>
       <use style="fill-opacity:0.2;stroke:#000000;stroke-opacity:0.2;stroke-width:0.8;" x="261.635394" xlink:href="#mc7adcb27f4" y="339.861659"/>
      </g>
     </g>
     <g id="text_11">
      <!-- $\mathdefault{0.4}$ -->
      <g transform="translate(252.918084 365.341188)scale(0.14 -0.14)">
       <defs>
        <path d="M 1792 1152 
L 1792 684 
C 1792 310 1722 223 1408 210 
L 1011 192 
L 1011 0 
C 1862 0 1862 0 2016 0 
C 2170 19 2170 19 3021 0 
L 3021 192 
L 2714 210 
C 2400 229 2330 310 2330 684 
L 2330 1152 
C 2707 1152 2842 1145 3021 1127 
L 3021 1580 
C 2720 1555 2598 1555 2502 1561 
L 2483 1561 
L 2330 1561 
L 2330 2445 
C 2330 3576 2342 4122 2374 4383 
L 2298 4416 
L 1824 4243 
L 13 1299 
L 83 1152 
L 1792 1152 
z
M 1792 1561 
L 416 1561 
L 1792 3798 
L 1792 1561 
z
" id="URWPalladioL-Roma-34" transform="scale(0.015625)"/>
       </defs>
       <use transform="scale(0.996264)" xlink:href="#URWPalladioL-Roma-30"/>
       <use transform="translate(49.8132 0)scale(0.996264)" xlink:href="#URWPalladioL-Roma-2e"/>
       <use transform="translate(74.719801 0)scale(0.996264)" xlink:href="#URWPalladioL-Roma-34"/>
      </g>
     </g>
    </g>
    <g id="xtick_10">
     <g id="line2d_35">
      <path clip-path="url(#p0513e5b7c7)" d="M 363.917666 339.861659 
L 363.917666 176.531069 
" style="fill:none;stroke:#000000;stroke-linejoin:miter;stroke-opacity:0.2;stroke-width:0.5;"/>
     </g>
     <g id="line2d_36">
      <g>
       <use style="fill-opacity:0.2;stroke:#000000;stroke-opacity:0.2;stroke-width:0.8;" x="363.917666" xlink:href="#mc7adcb27f4" y="339.861659"/>
      </g>
     </g>
     <g id="text_12">
      <!-- $\mathdefault{0.6}$ -->
      <g transform="translate(355.200356 365.341188)scale(0.14 -0.14)">
       <defs>
        <path d="M 2662 4287 
L 2426 4396 
C 1811 4193 1549 4066 1222 3788 
C 563 3237 205 2463 205 1585 
C 205 526 717 -128 1542 -128 
C 2374 -128 2995 532 2995 1405 
C 2995 2143 2554 2624 1875 2624 
C 1555 2624 1363 2540 986 2239 
C 915 2182 909 2175 838 2124 
C 973 3275 1510 3895 2662 4237 
L 2662 4287 
z
M 1632 2239 
C 2118 2239 2445 1816 2445 1180 
C 2445 513 2118 83 1626 83 
C 1082 83 787 551 787 1411 
C 787 1636 813 1758 883 1867 
C 1024 2085 1325 2239 1632 2239 
z
" id="URWPalladioL-Roma-36" transform="scale(0.015625)"/>
       </defs>
       <use transform="scale(0.996264)" xlink:href="#URWPalladioL-Roma-30"/>
       <use transform="translate(49.8132 0)scale(0.996264)" xlink:href="#URWPalladioL-Roma-2e"/>
       <use transform="translate(74.719801 0)scale(0.996264)" xlink:href="#URWPalladioL-Roma-36"/>
      </g>
     </g>
    </g>
    <g id="xtick_11">
     <g id="line2d_37">
      <path clip-path="url(#p0513e5b7c7)" d="M 466.199938 339.861659 
L 466.199938 176.531069 
" style="fill:none;stroke:#000000;stroke-linejoin:miter;stroke-opacity:0.2;stroke-width:0.5;"/>
     </g>
     <g id="line2d_38">
      <g>
       <use style="fill-opacity:0.2;stroke:#000000;stroke-opacity:0.2;stroke-width:0.8;" x="466.199938" xlink:href="#mc7adcb27f4" y="339.861659"/>
      </g>
     </g>
     <g id="text_13">
      <!-- $\mathdefault{0.8}$ -->
      <g transform="translate(457.482628 365.341188)scale(0.14 -0.14)">
       <defs>
        <path d="M 1075 2211 
C 813 2089 704 2019 563 1884 
C 320 1640 192 1352 192 1019 
C 192 358 723 -128 1446 -128 
C 2278 -128 2970 525 2970 1320 
C 2970 1833 2733 2108 2003 2442 
C 2586 2839 2790 3108 2790 3493 
C 2790 4044 2336 4416 1658 4416 
C 896 4416 339 3929 339 3256 
C 339 2820 512 2576 1075 2211 
z
M 1818 1890 
C 2221 1711 2464 1397 2464 1051 
C 2464 512 2061 89 1542 89 
C 998 89 646 474 646 1070 
C 646 1538 832 1833 1306 2121 
L 1818 1890 
z
M 1427 2711 
C 1024 2910 819 3166 819 3486 
C 819 3910 1126 4198 1581 4198 
C 2048 4198 2355 3890 2355 3422 
C 2355 3057 2195 2807 1779 2538 
L 1427 2711 
z
" id="URWPalladioL-Roma-38" transform="scale(0.015625)"/>
       </defs>
       <use transform="scale(0.996264)" xlink:href="#URWPalladioL-Roma-30"/>
       <use transform="translate(49.8132 0)scale(0.996264)" xlink:href="#URWPalladioL-Roma-2e"/>
       <use transform="translate(74.719801 0)scale(0.996264)" xlink:href="#URWPalladioL-Roma-38"/>
      </g>
     </g>
    </g>
    <g id="xtick_12">
     <g id="line2d_39">
      <path clip-path="url(#p0513e5b7c7)" d="M 568.48221 339.861659 
L 568.48221 176.531069 
" style="fill:none;stroke:#000000;stroke-linejoin:miter;stroke-opacity:0.2;stroke-width:0.5;"/>
     </g>
     <g id="line2d_40">
      <g>
       <use style="fill-opacity:0.2;stroke:#000000;stroke-opacity:0.2;stroke-width:0.8;" x="568.48221" xlink:href="#mc7adcb27f4" y="339.861659"/>
      </g>
     </g>
     <g id="text_14">
      <!-- $\mathdefault{1.0}$ -->
      <g transform="translate(559.7649 365.341188)scale(0.14 -0.14)">
       <use transform="scale(0.996264)" xlink:href="#URWPalladioL-Roma-31"/>
       <use transform="translate(49.8132 0)scale(0.996264)" xlink:href="#URWPalladioL-Roma-2e"/>
       <use transform="translate(74.719801 0)scale(0.996264)" xlink:href="#URWPalladioL-Roma-30"/>
      </g>
     </g>
    </g>
    <g id="text_15">
     <!-- Time [seconds] -->
     <g transform="translate(273.103679 381.828236)scale(0.12 -0.12)">
      <defs>
       <path d="M 1632 4096 
C 1651 3880 1658 3734 1658 3462 
L 1658 781 
C 1658 280 1626 230 1331 211 
L 1024 192 
L 1024 0 
C 1402 -7 1626 0 1958 0 
C 2291 19 2522 12 2899 0 
L 2899 192 
L 2592 211 
C 2298 230 2266 280 2266 781 
L 2266 3462 
C 2266 3747 2272 3887 2291 4096 
L 3283 4096 
C 3462 4096 3533 4039 3539 3887 
L 3565 3386 
L 3763 3386 
C 3763 3801 3776 4051 3808 4416 
C 3347 4409 3136 4409 2957 4403 
C 2707 4390 2522 4390 2426 4390 
L 1414 4390 
C 1350 4390 1005 4396 550 4403 
L 115 4416 
C 147 4051 160 3801 160 3385 
L 358 3385 
L 384 3891 
C 390 4038 461 4096 640 4096 
L 1632 4096 
z
" id="URWPalladioL-Roma-54" transform="scale(0.015625)"/>
       <path d="M 1203 2982 
L 1146 3008 
C 819 2873 486 2784 147 2746 
L 147 2568 
L 384 2568 
C 640 2568 666 2523 666 2103 
L 666 669 
C 666 268 646 223 429 211 
L 134 192 
L 134 0 
C 774 0 774 0 934 0 
C 1094 19 1094 19 1734 0 
L 1734 192 
L 1440 211 
C 1222 224 1203 268 1203 671 
L 1203 2982 
z
M 909 4416 
C 717 4416 550 4249 550 4057 
C 550 3871 717 3705 902 3705 
C 1088 3705 1261 3871 1261 4057 
C 1261 4236 1088 4416 909 4416 
z
" id="URWPalladioL-Roma-69" transform="scale(0.015625)"/>
       <path d="M 115 2579 
L 352 2579 
C 608 2579 634 2534 634 2112 
L 634 672 
C 634 268 614 224 397 211 
L 102 192 
L 102 0 
C 717 0 736 0 915 0 
C 1094 19 1261 12 1677 0 
L 1677 192 
L 1408 211 
C 1190 223 1171 268 1171 670 
L 1171 2023 
C 1171 2311 1594 2624 1978 2624 
C 2323 2624 2560 2298 2560 1813 
L 2560 670 
C 2560 268 2541 223 2323 211 
L 2029 192 
L 2029 0 
C 2669 0 2669 0 2829 0 
C 2989 19 2989 19 3629 0 
L 3629 192 
L 3334 211 
C 3117 223 3098 268 3098 670 
L 3098 2023 
C 3098 2311 3520 2624 3904 2624 
C 4250 2624 4486 2298 4486 1813 
L 4486 0 
C 4877 0 4883 0 4992 0 
C 5075 19 5075 19 5562 0 
L 5562 192 
L 5261 211 
C 5043 223 5024 268 5024 670 
L 5024 1985 
C 5024 2617 4653 3014 4064 3014 
C 3840 3014 3654 2956 3539 2854 
L 3053 2419 
C 2848 2841 2586 3014 2144 3014 
C 1907 3014 1728 2956 1613 2854 
L 1171 2445 
L 1171 2988 
L 1114 3008 
C 787 2873 454 2783 115 2745 
L 115 2579 
z
" id="URWPalladioL-Roma-6d" transform="scale(0.015625)"/>
       <path d="M 2797 447 
L 2714 511 
C 2304 268 2157 211 1882 211 
C 1466 211 1120 396 941 710 
C 819 921 774 1100 762 1472 
L 1696 1472 
C 2138 1472 2413 1491 2854 1561 
C 2861 1651 2867 1708 2867 1786 
C 2867 2526 2394 3008 1677 3008 
C 1440 3008 1165 2924 902 2771 
C 378 2468 166 2069 166 1401 
C 166 998 262 652 435 409 
C 691 70 1120 -128 1600 -128 
C 1837 -128 2074 -77 2336 38 
C 2509 108 2643 192 2669 230 
L 2797 447 
z
M 2298 1708 
C 1965 1696 1811 1689 1581 1689 
C 1286 1689 1120 1696 774 1728 
C 774 2030 800 2172 883 2339 
C 1018 2623 1293 2796 1600 2796 
C 1811 2796 1978 2713 2093 2539 
C 2234 2326 2278 2140 2298 1708 
z
" id="URWPalladioL-Roma-65" transform="scale(0.015625)"/>
       <path d="M 563 -1178 
C 1018 -1166 1030 -1166 1184 -1166 
C 1338 -1166 1370 -1166 1805 -1178 
L 1843 -1140 
L 1843 -974 
L 1818 -942 
L 1574 -942 
C 1402 -942 1261 -903 1184 -839 
C 1126 -782 1107 -692 1107 -481 
C 1107 -474 1107 -340 1101 -148 
L 1101 89 
L 1101 3379 
L 1101 3615 
C 1107 3795 1107 3935 1107 3942 
C 1107 4153 1126 4249 1184 4307 
C 1261 4371 1402 4409 1574 4409 
L 1818 4409 
L 1843 4441 
L 1843 4608 
L 1805 4646 
C 1357 4633 1338 4633 1184 4633 
C 1037 4633 1005 4633 563 4646 
L 506 4563 
C 544 4403 557 4191 557 3699 
C 557 3603 557 3526 563 3462 
L 563 3379 
L 563 89 
L 563 6 
C 557 -97 557 -103 557 -212 
L 557 -282 
C 557 -718 544 -897 506 -1095 
L 563 -1178 
z
" id="URWPalladioL-Roma-5b" transform="scale(0.015625)"/>
       <path d="M 262 917 
C 262 474 243 282 192 25 
C 525 -84 774 -128 1069 -128 
C 1907 -128 2502 320 2502 949 
C 2502 1148 2445 1295 2323 1423 
C 2157 1584 1946 1661 1382 1770 
C 858 1872 685 2001 685 2296 
C 685 2617 909 2796 1299 2796 
C 1728 2796 2054 2572 2054 2270 
L 2054 2123 
L 2234 2123 
C 2240 2495 2246 2649 2266 2847 
C 1926 2963 1696 3008 1434 3008 
C 691 3008 237 2655 237 2078 
C 237 1770 378 1552 672 1417 
C 845 1340 1184 1237 1619 1141 
C 1907 1077 2029 942 2029 698 
C 2029 352 1709 108 1254 108 
C 787 108 454 333 454 654 
L 454 917 
L 262 917 
z
" id="URWPalladioL-Roma-73" transform="scale(0.015625)"/>
       <path d="M 2554 1995 
C 2554 2290 2586 2553 2643 2783 
C 2387 2937 2163 3008 1901 3008 
C 1594 3008 1235 2886 851 2643 
C 403 2360 166 1911 166 1347 
C 166 480 774 -128 1632 -128 
C 1965 -128 2445 -7 2509 89 
L 2643 294 
L 2579 390 
C 2342 262 2138 204 1907 204 
C 1197 204 730 756 730 1603 
C 730 2290 1050 2675 1626 2675 
C 1907 2675 2214 2547 2330 2386 
L 2374 1995 
L 2554 1995 
z
" id="URWPalladioL-Roma-63" transform="scale(0.015625)"/>
       <path d="M 1786 3008 
C 851 3008 205 2347 205 1391 
C 205 487 774 -128 1600 -128 
C 2586 -128 3290 557 3290 1520 
C 3290 2386 2662 3008 1786 3008 
z
M 1670 2796 
C 2259 2796 2694 2155 2694 1282 
C 2694 545 2368 83 1850 83 
C 1222 83 800 699 800 1609 
C 800 2379 1107 2796 1670 2796 
z
" id="URWPalladioL-Roma-6f" transform="scale(0.015625)"/>
       <path d="M 2637 2803 
C 2278 2956 2099 3008 1875 3008 
C 1702 3008 1549 2969 1389 2886 
L 826 2592 
C 461 2400 224 1934 224 1392 
C 224 881 397 460 710 204 
C 928 19 1229 -64 1645 -64 
C 1773 -64 1920 -39 1952 -13 
L 2662 581 
L 2630 0 
C 2944 -7 3046 0 3123 0 
C 3174 0 3264 0 3398 -7 
C 3443 6 3571 6 3706 0 
L 3706 192 
L 3411 211 
C 3194 224 3174 268 3174 672 
L 3174 4614 
L 3117 4665 
C 2835 4557 2624 4505 2118 4429 
L 2118 4249 
L 2477 4249 
C 2592 4249 2637 4179 2637 3987 
L 2637 2803 
z
M 2637 1424 
C 2637 1009 2624 945 2541 798 
C 2362 498 2048 300 1747 300 
C 1184 300 781 843 781 1602 
C 781 2298 1126 2707 1702 2707 
C 1946 2707 2202 2624 2426 2470 
C 2560 2381 2637 2298 2637 2247 
L 2637 1424 
z
" id="URWPalladioL-Roma-64" transform="scale(0.015625)"/>
       <path d="M 1568 4646 
C 1114 4633 1094 4633 947 4633 
C 794 4633 762 4633 326 4646 
L 288 4608 
L 288 4441 
L 314 4409 
L 557 4409 
C 730 4409 864 4371 941 4307 
C 1005 4249 1024 4159 1024 3942 
C 1024 3923 1024 3795 1030 3615 
L 1030 3379 
L 1030 89 
L 1030 -148 
C 1024 -334 1024 -449 1024 -468 
C 1024 -686 1005 -782 941 -839 
C 864 -903 730 -942 557 -942 
L 314 -942 
L 288 -974 
L 288 -1140 
L 326 -1178 
C 774 -1166 787 -1166 947 -1166 
C 1094 -1166 1126 -1166 1568 -1178 
L 1626 -1095 
C 1587 -942 1581 -743 1574 -250 
C 1574 -161 1574 -78 1568 6 
L 1568 89 
L 1568 3379 
L 1568 3462 
C 1574 3532 1574 3615 1574 3705 
C 1574 4198 1587 4409 1626 4563 
L 1568 4646 
z
" id="URWPalladioL-Roma-5d" transform="scale(0.015625)"/>
      </defs>
      <use transform="scale(0.996264)" xlink:href="#URWPalladioL-Roma-54"/>
      <use transform="translate(55.591109 0)scale(0.996264)" xlink:href="#URWPalladioL-Roma-69"/>
      <use transform="translate(84.581471 0)scale(0.996264)" xlink:href="#URWPalladioL-Roma-6d"/>
      <use transform="translate(172.551145 0)scale(0.996264)" xlink:href="#URWPalladioL-Roma-65"/>
      <use transform="translate(245.17804 0)scale(0.996264)" xlink:href="#URWPalladioL-Roma-5b"/>
      <use transform="translate(278.35327 0)scale(0.996264)" xlink:href="#URWPalladioL-Roma-73"/>
      <use transform="translate(320.594736 0)scale(0.996264)" xlink:href="#URWPalladioL-Roma-65"/>
      <use transform="translate(368.315031 0)scale(0.996264)" xlink:href="#URWPalladioL-Roma-63"/>
      <use transform="translate(412.5486 0)scale(0.996264)" xlink:href="#URWPalladioL-Roma-6f"/>
      <use transform="translate(466.94418 0)scale(0.996264)" xlink:href="#URWPalladioL-Roma-6e"/>
      <use transform="translate(524.926241 0)scale(0.996264)" xlink:href="#URWPalladioL-Roma-64"/>
      <use transform="translate(585.797872 0)scale(0.996264)" xlink:href="#URWPalladioL-Roma-73"/>
      <use transform="translate(628.039338 0)scale(0.996264)" xlink:href="#URWPalladioL-Roma-5d"/>
     </g>
    </g>
   </g>
   <g id="matplotlib.axis_4">
    <g id="ytick_6">
     <g id="line2d_41">
      <path clip-path="url(#p0513e5b7c7)" d="M 57.070851 323.5286 
L 568.48221 323.5286 
" style="fill:none;stroke:#000000;stroke-linejoin:miter;stroke-opacity:0.2;stroke-width:0.5;"/>
     </g>
     <g id="line2d_42">
      <g>
       <use style="fill-opacity:0.2;stroke:#000000;stroke-opacity:0.2;stroke-width:0.8;" x="57.070851" xlink:href="#m6626339528" y="323.5286"/>
      </g>
     </g>
     <g id="text_16">
      <!-- $\mathdefault{−2}$ -->
      <g transform="translate(23.12516 328.518364)scale(0.14 -0.14)">
       <use transform="scale(1.038107)" xlink:href="#CMSY10-0"/>
       <use transform="translate(81.941696 0)scale(0.996264)" xlink:href="#URWPalladioL-Roma-32"/>
      </g>
     </g>
    </g>
    <g id="ytick_7">
     <g id="line2d_43">
      <path clip-path="url(#p0513e5b7c7)" d="M 57.070851 290.862482 
L 568.48221 290.862482 
" style="fill:none;stroke:#000000;stroke-linejoin:miter;stroke-opacity:0.2;stroke-width:0.5;"/>
     </g>
     <g id="line2d_44">
      <g>
       <use style="fill-opacity:0.2;stroke:#000000;stroke-opacity:0.2;stroke-width:0.8;" x="57.070851" xlink:href="#m6626339528" y="290.862482"/>
      </g>
     </g>
     <g id="text_17">
      <!-- $\mathdefault{−1}$ -->
      <g transform="translate(23.12516 295.852246)scale(0.14 -0.14)">
       <use transform="scale(1.038107)" xlink:href="#CMSY10-0"/>
       <use transform="translate(81.941696 0)scale(0.996264)" xlink:href="#URWPalladioL-Roma-31"/>
      </g>
     </g>
    </g>
    <g id="ytick_8">
     <g id="line2d_45">
      <path clip-path="url(#p0513e5b7c7)" d="M 57.070851 258.196364 
L 568.48221 258.196364 
" style="fill:none;stroke:#000000;stroke-linejoin:miter;stroke-opacity:0.2;stroke-width:0.5;"/>
     </g>
     <g id="line2d_46">
      <g>
       <use style="fill-opacity:0.2;stroke:#000000;stroke-opacity:0.2;stroke-width:0.8;" x="57.070851" xlink:href="#m6626339528" y="258.196364"/>
      </g>
     </g>
     <g id="text_18">
      <!-- $\mathdefault{0}$ -->
      <g transform="translate(34.597002 263.186129)scale(0.14 -0.14)">
       <use transform="scale(0.996264)" xlink:href="#URWPalladioL-Roma-30"/>
      </g>
     </g>
    </g>
    <g id="ytick_9">
     <g id="line2d_47">
      <path clip-path="url(#p0513e5b7c7)" d="M 57.070851 225.530246 
L 568.48221 225.530246 
" style="fill:none;stroke:#000000;stroke-linejoin:miter;stroke-opacity:0.2;stroke-width:0.5;"/>
     </g>
     <g id="line2d_48">
      <g>
       <use style="fill-opacity:0.2;stroke:#000000;stroke-opacity:0.2;stroke-width:0.8;" x="57.070851" xlink:href="#m6626339528" y="225.530246"/>
      </g>
     </g>
     <g id="text_19">
      <!-- $\mathdefault{1}$ -->
      <g transform="translate(34.597002 230.520011)scale(0.14 -0.14)">
       <use transform="scale(0.996264)" xlink:href="#URWPalladioL-Roma-31"/>
      </g>
     </g>
    </g>
    <g id="ytick_10">
     <g id="line2d_49">
      <path clip-path="url(#p0513e5b7c7)" d="M 57.070851 192.864128 
L 568.48221 192.864128 
" style="fill:none;stroke:#000000;stroke-linejoin:miter;stroke-opacity:0.2;stroke-width:0.5;"/>
     </g>
     <g id="line2d_50">
      <g>
       <use style="fill-opacity:0.2;stroke:#000000;stroke-opacity:0.2;stroke-width:0.8;" x="57.070851" xlink:href="#m6626339528" y="192.864128"/>
      </g>
     </g>
     <g id="text_20">
      <!-- $\mathdefault{2}$ -->
      <g transform="translate(34.597002 197.853893)scale(0.14 -0.14)">
       <use transform="scale(0.996264)" xlink:href="#URWPalladioL-Roma-32"/>
      </g>
     </g>
    </g>
    <g id="text_21">
     <!-- Output -->
     <g transform="translate(15.753876 277.593291)rotate(-90)scale(0.12 -0.12)">
      <defs>
       <path d="M 2573 4544 
C 1114 4544 141 3595 141 2185 
C 141 839 1075 -128 2368 -128 
C 3802 -128 4890 942 4890 2352 
C 4890 3698 3994 4544 2573 4544 
z
M 2464 4275 
C 3558 4275 4205 3493 4205 2160 
C 4205 890 3616 140 2624 140 
C 1549 140 826 1051 826 2422 
C 826 3608 1414 4275 2464 4275 
z
" id="URWPalladioL-Roma-4f" transform="scale(0.015625)"/>
      </defs>
      <use transform="scale(0.996264)" xlink:href="#URWPalladioL-Roma-4f"/>
      <use transform="translate(78.306281 0)scale(0.996264)" xlink:href="#URWPalladioL-Roma-75"/>
      <use transform="translate(138.380016 0)scale(0.996264)" xlink:href="#URWPalladioL-Roma-74"/>
      <use transform="translate(170.857104 0)scale(0.996264)" xlink:href="#URWPalladioL-Roma-70"/>
      <use transform="translate(230.731498 0)scale(0.996264)" xlink:href="#URWPalladioL-Roma-75"/>
      <use transform="translate(290.805232 0)scale(0.996264)" xlink:href="#URWPalladioL-Roma-74"/>
     </g>
    </g>
   </g>
   <g id="line2d_51">
    <path clip-path="url(#p0513e5b7c7)" d="M 57.070851 225.530246 
L 67.299078 225.530246 
L 67.299078 225.530246 
L 77.527305 225.530246 
L 77.527305 225.530246 
L 87.755532 225.530246 
L 87.755532 192.864128 
L 97.983759 192.864128 
L 97.983759 192.864128 
L 108.211986 192.864128 
L 108.211986 258.196364 
L 118.440214 258.196364 
L 118.440214 258.196364 
L 128.668441 258.196364 
L 128.668441 258.196364 
L 138.896668 258.196364 
L 138.896668 323.5286 
L 149.124895 323.5286 
L 149.124895 323.5286 
L 159.353122 323.5286 
L 159.353122 258.196364 
L 169.58135 258.196364 
L 169.58135 258.196364 
L 179.809577 258.196364 
L 179.809577 258.196364 
L 190.037804 258.196364 
L 190.037804 192.864128 
L 200.266031 192.864128 
L 200.266031 192.864128 
L 210.494258 192.864128 
L 210.494258 258.196364 
L 220.722486 258.196364 
L 220.722486 258.196364 
L 230.950713 258.196364 
L 230.950713 258.196364 
L 241.17894 258.196364 
L 241.17894 323.5286 
L 251.407167 323.5286 
L 251.407167 323.5286 
L 261.635394 323.5286 
L 261.635394 258.196364 
L 271.863621 258.196364 
L 271.863621 258.196364 
L 282.091849 258.196364 
L 282.091849 258.196364 
L 292.320076 258.196364 
L 292.320076 192.864128 
L 302.548303 192.864128 
L 302.548303 192.864128 
L 312.77653 192.864128 
L 312.77653 258.196364 
L 323.004757 258.196364 
L 323.004757 258.196364 
L 333.232985 258.196364 
L 333.232985 258.196364 
L 343.461212 258.196364 
L 343.461212 323.5286 
L 353.689439 323.5286 
L 353.689439 323.5286 
L 363.917666 323.5286 
L 363.917666 258.196364 
L 374.145893 258.196364 
L 374.145893 258.196364 
L 384.374121 258.196364 
L 384.374121 258.196364 
L 394.602348 258.196364 
L 394.602348 192.864128 
L 404.830575 192.864128 
L 404.830575 192.864128 
L 415.058802 192.864128 
L 415.058802 258.196364 
L 425.287029 258.196364 
L 425.287029 258.196364 
L 435.515256 258.196364 
L 435.515256 258.196364 
L 445.743484 258.196364 
L 445.743484 323.5286 
L 455.971711 323.5286 
L 455.971711 323.5286 
L 466.199938 323.5286 
L 466.199938 258.196364 
L 476.428165 258.196364 
L 476.428165 258.196364 
L 486.656392 258.196364 
L 486.656392 258.196364 
L 496.88462 258.196364 
L 496.88462 192.864128 
L 507.112847 192.864128 
L 507.112847 192.864128 
L 517.341074 192.864128 
L 517.341074 258.196364 
L 527.569301 258.196364 
L 527.569301 258.196364 
L 537.797528 258.196364 
L 537.797528 258.196364 
L 548.025756 258.196364 
L 548.025756 323.5286 
L 558.253983 323.5286 
L 558.253983 323.5286 
" style="fill:none;stroke:#6e3b87;stroke-linejoin:miter;stroke-width:3;"/>
    <defs>
     <path d="M -2.5 2.5 
L 2.5 2.5 
L 2.5 -2.5 
L -2.5 -2.5 
z
" id="m7373eec7f6"/>
    </defs>
    <g clip-path="url(#p0513e5b7c7)">
     <use style="fill:#6e3b87;" x="57.070851" xlink:href="#m7373eec7f6" y="225.530246"/>
     <use style="fill:#6e3b87;" x="67.299078" xlink:href="#m7373eec7f6" y="225.530246"/>
     <use style="fill:#6e3b87;" x="77.527305" xlink:href="#m7373eec7f6" y="225.530246"/>
     <use style="fill:#6e3b87;" x="87.755532" xlink:href="#m7373eec7f6" y="192.864128"/>
     <use style="fill:#6e3b87;" x="97.983759" xlink:href="#m7373eec7f6" y="192.864128"/>
     <use style="fill:#6e3b87;" x="108.211986" xlink:href="#m7373eec7f6" y="258.196364"/>
     <use style="fill:#6e3b87;" x="118.440214" xlink:href="#m7373eec7f6" y="258.196364"/>
     <use style="fill:#6e3b87;" x="128.668441" xlink:href="#m7373eec7f6" y="258.196364"/>
     <use style="fill:#6e3b87;" x="138.896668" xlink:href="#m7373eec7f6" y="323.5286"/>
     <use style="fill:#6e3b87;" x="149.124895" xlink:href="#m7373eec7f6" y="323.5286"/>
     <use style="fill:#6e3b87;" x="159.353122" xlink:href="#m7373eec7f6" y="258.196364"/>
     <use style="fill:#6e3b87;" x="169.58135" xlink:href="#m7373eec7f6" y="258.196364"/>
     <use style="fill:#6e3b87;" x="179.809577" xlink:href="#m7373eec7f6" y="258.196364"/>
     <use style="fill:#6e3b87;" x="190.037804" xlink:href="#m7373eec7f6" y="192.864128"/>
     <use style="fill:#6e3b87;" x="200.266031" xlink:href="#m7373eec7f6" y="192.864128"/>
     <use style="fill:#6e3b87;" x="210.494258" xlink:href="#m7373eec7f6" y="258.196364"/>
     <use style="fill:#6e3b87;" x="220.722486" xlink:href="#m7373eec7f6" y="258.196364"/>
     <use style="fill:#6e3b87;" x="230.950713" xlink:href="#m7373eec7f6" y="258.196364"/>
     <use style="fill:#6e3b87;" x="241.17894" xlink:href="#m7373eec7f6" y="323.5286"/>
     <use style="fill:#6e3b87;" x="251.407167" xlink:href="#m7373eec7f6" y="323.5286"/>
     <use style="fill:#6e3b87;" x="261.635394" xlink:href="#m7373eec7f6" y="258.196364"/>
     <use style="fill:#6e3b87;" x="271.863621" xlink:href="#m7373eec7f6" y="258.196364"/>
     <use style="fill:#6e3b87;" x="282.091849" xlink:href="#m7373eec7f6" y="258.196364"/>
     <use style="fill:#6e3b87;" x="292.320076" xlink:href="#m7373eec7f6" y="192.864128"/>
     <use style="fill:#6e3b87;" x="302.548303" xlink:href="#m7373eec7f6" y="192.864128"/>
     <use style="fill:#6e3b87;" x="312.77653" xlink:href="#m7373eec7f6" y="258.196364"/>
     <use style="fill:#6e3b87;" x="323.004757" xlink:href="#m7373eec7f6" y="258.196364"/>
     <use style="fill:#6e3b87;" x="333.232985" xlink:href="#m7373eec7f6" y="258.196364"/>
     <use style="fill:#6e3b87;" x="343.461212" xlink:href="#m7373eec7f6" y="323.5286"/>
     <use style="fill:#6e3b87;" x="353.689439" xlink:href="#m7373eec7f6" y="323.5286"/>
     <use style="fill:#6e3b87;" x="363.917666" xlink:href="#m7373eec7f6" y="258.196364"/>
     <use style="fill:#6e3b87;" x="374.145893" xlink:href="#m7373eec7f6" y="258.196364"/>
     <use style="fill:#6e3b87;" x="384.374121" xlink:href="#m7373eec7f6" y="258.196364"/>
     <use style="fill:#6e3b87;" x="394.602348" xlink:href="#m7373eec7f6" y="192.864128"/>
     <use style="fill:#6e3b87;" x="404.830575" xlink:href="#m7373eec7f6" y="192.864128"/>
     <use style="fill:#6e3b87;" x="415.058802" xlink:href="#m7373eec7f6" y="258.196364"/>
     <use style="fill:#6e3b87;" x="425.287029" xlink:href="#m7373eec7f6" y="258.196364"/>
     <use style="fill:#6e3b87;" x="435.515256" xlink:href="#m7373eec7f6" y="258.196364"/>
     <use style="fill:#6e3b87;" x="445.743484" xlink:href="#m7373eec7f6" y="323.5286"/>
     <use style="fill:#6e3b87;" x="455.971711" xlink:href="#m7373eec7f6" y="323.5286"/>
     <use style="fill:#6e3b87;" x="466.199938" xlink:href="#m7373eec7f6" y="258.196364"/>
     <use style="fill:#6e3b87;" x="476.428165" xlink:href="#m7373eec7f6" y="258.196364"/>
     <use style="fill:#6e3b87;" x="486.656392" xlink:href="#m7373eec7f6" y="258.196364"/>
     <use style="fill:#6e3b87;" x="496.88462" xlink:href="#m7373eec7f6" y="192.864128"/>
     <use style="fill:#6e3b87;" x="507.112847" xlink:href="#m7373eec7f6" y="192.864128"/>
     <use style="fill:#6e3b87;" x="517.341074" xlink:href="#m7373eec7f6" y="258.196364"/>
     <use style="fill:#6e3b87;" x="527.569301" xlink:href="#m7373eec7f6" y="258.196364"/>
     <use style="fill:#6e3b87;" x="537.797528" xlink:href="#m7373eec7f6" y="258.196364"/>
     <use style="fill:#6e3b87;" x="548.025756" xlink:href="#m7373eec7f6" y="323.5286"/>
     <use style="fill:#6e3b87;" x="558.253983" xlink:href="#m7373eec7f6" y="323.5286"/>
    </g>
   </g>
   <g id="legend_2">
    <g id="patch_6">
     <path d="M 66.870851 332.861659 
L 231.1463 332.861659 
Q 233.9463 332.861659 233.9463 330.061659 
L 233.9463 309.921306 
Q 233.9463 307.121306 231.1463 307.121306 
L 66.870851 307.121306 
Q 64.070851 307.121306 64.070851 309.921306 
L 64.070851 330.061659 
Q 64.070851 332.861659 66.870851 332.861659 
z
" style="fill:#ffffff;opacity:0.95;stroke:#cccccc;stroke-linejoin:miter;stroke-width:0.5;"/>
    </g>
    <g id="line2d_52">
     <path d="M 69.670851 318.428486 
L 83.670851 318.428486 
" style="fill:none;stroke:#6e3b87;stroke-linejoin:miter;stroke-width:3;"/>
    </g>
    <g id="line2d_53">
     <g>
      <use style="fill:#6e3b87;" x="76.670851" xlink:href="#m7373eec7f6" y="318.428486"/>
     </g>
    </g>
    <g id="text_22">
     <!-- $y[n] = x[n] + x[n-3]$ -->
     <g transform="translate(94.870851 323.328486)scale(0.14 -0.14)">
      <defs>
       <path d="M -45 -1132 
C -51 -1176 -51 -1214 -51 -1245 
C -51 -1517 186 -1741 474 -1741 
C 1152 -1741 1856 -955 2234 216 
L 3136 3014 
L 3066 3072 
C 2880 3001 2733 2963 2592 2950 
L 2368 2111 
C 2291 1812 2067 1348 1856 1036 
C 1632 712 1318 432 1178 432 
C 1101 432 1043 578 1050 737 
L 1056 820 
L 1152 2053 
C 1165 2250 1178 2492 1178 2670 
C 1178 2956 1133 3072 1024 3072 
C 941 3072 851 3027 544 2816 
L 19 2460 
L 90 2346 
L 410 2537 
L 435 2556 
C 499 2594 544 2613 570 2613 
C 659 2613 710 2492 710 2282 
C 710 2276 710 2238 704 2187 
L 595 642 
L 589 388 
C 589 121 704 -64 864 -64 
C 1101 -64 1638 477 2118 1195 
L 1805 108 
C 1478 -1012 1158 -1472 710 -1472 
C 486 -1472 314 -1302 314 -1081 
C 314 -1049 320 -999 326 -942 
L 262 -917 
L -45 -1132 
z
" id="URWPalladioL-Ital-79" transform="scale(0.015625)"/>
       <path d="M 4397 2111 
C 4493 2111 4614 2111 4614 2239 
C 4614 2368 4493 2368 4403 2368 
L 570 2368 
C 480 2368 358 2368 358 2239 
C 358 2111 480 2111 576 2111 
L 4397 2111 
z
M 4403 832 
C 4493 832 4614 832 4614 960 
C 4614 1088 4493 1088 4397 1088 
L 576 1088 
C 480 1088 358 1088 358 960 
C 358 832 480 832 570 832 
L 4403 832 
z
" id="CMR10-3d" transform="scale(0.015625)"/>
       <path d="M 2618 1472 
L 4403 1472 
C 4493 1472 4614 1472 4614 1600 
C 4614 1728 4493 1728 4403 1728 
L 2618 1728 
L 2618 3501 
C 2618 3590 2618 3712 2490 3712 
C 2362 3712 2362 3590 2362 3501 
L 2362 1728 
L 570 1728 
C 480 1728 358 1728 358 1600 
C 358 1472 480 1472 570 1472 
L 2362 1472 
L 2362 -308 
C 2362 -397 2362 -519 2490 -519 
C 2618 -519 2618 -397 2618 -308 
L 2618 1472 
z
" id="CMR10-2b" transform="scale(0.015625)"/>
      </defs>
      <use transform="scale(0.996264)" xlink:href="#URWPalladioL-Ital-79"/>
      <use transform="translate(52.303815 0)scale(1.038107)" xlink:href="#CMR10-5b"/>
      <use transform="translate(83.586514 0)scale(0.996264)" xlink:href="#URWPalladioL-Ital-6e"/>
      <use transform="translate(141.469474 0)scale(1.038107)" xlink:href="#CMR10-5d"/>
      <use transform="translate(200.426106 0)scale(1.038107)" xlink:href="#CMR10-3d"/>
      <use transform="translate(312.980711 0)scale(0.996264)" xlink:href="#URWPalladioL-Ital-78"/>
      <use transform="translate(366.279847 0)scale(1.038107)" xlink:href="#CMR10-5b"/>
      <use transform="translate(397.562546 0)scale(0.996264)" xlink:href="#URWPalladioL-Ital-6e"/>
      <use transform="translate(455.445506 0)scale(1.038107)" xlink:href="#CMR10-5d"/>
      <use transform="translate(506.099958 0)scale(1.038107)" xlink:href="#CMR10-2b"/>
      <use transform="translate(610.352383 0)scale(0.996264)" xlink:href="#URWPalladioL-Ital-78"/>
      <use transform="translate(663.65152 0)scale(1.038107)" xlink:href="#CMR10-5b"/>
      <use transform="translate(694.934219 0)scale(0.996264)" xlink:href="#URWPalladioL-Ital-6e"/>
      <use transform="translate(772.188932 0)scale(1.038107)" xlink:href="#CMSY10-0"/>
      <use transform="translate(873.502381 0)scale(0.996264)" xlink:href="#URWPalladioL-Roma-33"/>
      <use transform="translate(924.560881 0)scale(1.038107)" xlink:href="#CMR10-5d"/>
     </g>
    </g>
   </g>
  </g>
 </g>
 <defs>
  <clipPath id="p27cc11e320">
   <rect height="163.330589" width="511.411359" x="57.070851" y="7.2"/>
  </clipPath>
  <clipPath id="p0513e5b7c7">
   <rect height="163.330589" width="511.411359" x="57.070851" y="176.531069"/>
  </clipPath>
 </defs>
</svg>
