<?xml version="1.0" encoding="utf-8" standalone="no"?>
<!DOCTYPE svg PUBLIC "-//W3C//DTD SVG 1.1//EN"
  "http://www.w3.org/Graphics/SVG/1.1/DTD/svg11.dtd">
<svg height="392.39952pt" version="1.1" viewBox="0 0 584.39952 392.39952" width="584.39952pt" xmlns="http://www.w3.org/2000/svg" xmlns:xlink="http://www.w3.org/1999/xlink">
 <metadata>
  <rdf:RDF xmlns:cc="http://creativecommons.org/ns#" xmlns:dc="http://purl.org/dc/elements/1.1/" xmlns:rdf="http://www.w3.org/1999/02/22-rdf-syntax-ns#">
   <cc:Work>
    <dc:type rdf:resource="http://purl.org/dc/dcmitype/StillImage"/>
    <dc:date>2020-08-12T06:57:29.753440</dc:date>
    <dc:format>image/svg+xml</dc:format>
    <dc:creator>
     <cc:Agent>
      <dc:title>Matplotlib v3.3.0rc1.post382+g019a75231, https://matplotlib.org/</dc:title>
     </cc:Agent>
    </dc:creator>
   </cc:Work>
  </rdf:RDF>
 </metadata>
 <defs>
  <style type="text/css">*{stroke-linecap:butt;stroke-linejoin:round;}</style>
 </defs>
 <g id="figure_1">
  <g id="patch_1">
   <path d="M 0 392.39952 
L 584.39952 392.39952 
L 584.39952 0 
L 0 0 
z
" style="fill:none;"/>
  </g>
  <g id="axes_1">
   <g id="patch_2">
    <path d="M 57.070851 168.610589 
L 568.48221 168.610589 
L 568.48221 7.2 
L 57.070851 7.2 
z
" style="fill:none;"/>
   </g>
   <g id="matplotlib.axis_1">
    <g id="xtick_1">
     <g id="line2d_1">
      <path clip-path="url(#p5b135aad8d)" d="M 57.070851 168.610589 
L 57.070851 7.2 
" style="fill:none;stroke:#000000;stroke-linecap:square;stroke-opacity:0.2;stroke-width:0.5;"/>
     </g>
     <g id="line2d_2">
      <defs>
       <path d="M 0 0 
L 0 3.5 
" id="m9d297ac789" style="stroke:#000000;stroke-opacity:0.2;stroke-width:0.8;"/>
      </defs>
      <g>
       <use style="fill-opacity:0.2;stroke:#000000;stroke-opacity:0.2;stroke-width:0.8;" x="57.070851" xlink:href="#m9d297ac789" y="168.610589"/>
      </g>
     </g>
    </g>
    <g id="xtick_2">
     <g id="line2d_3">
      <path clip-path="url(#p5b135aad8d)" d="M 159.353122 168.610589 
L 159.353122 7.2 
" style="fill:none;stroke:#000000;stroke-linecap:square;stroke-opacity:0.2;stroke-width:0.5;"/>
     </g>
     <g id="line2d_4">
      <g>
       <use style="fill-opacity:0.2;stroke:#000000;stroke-opacity:0.2;stroke-width:0.8;" x="159.353122" xlink:href="#m9d297ac789" y="168.610589"/>
      </g>
     </g>
    </g>
    <g id="xtick_3">
     <g id="line2d_5">
      <path clip-path="url(#p5b135aad8d)" d="M 261.635394 168.610589 
L 261.635394 7.2 
" style="fill:none;stroke:#000000;stroke-linecap:square;stroke-opacity:0.2;stroke-width:0.5;"/>
     </g>
     <g id="line2d_6">
      <g>
       <use style="fill-opacity:0.2;stroke:#000000;stroke-opacity:0.2;stroke-width:0.8;" x="261.635394" xlink:href="#m9d297ac789" y="168.610589"/>
      </g>
     </g>
    </g>
    <g id="xtick_4">
     <g id="line2d_7">
      <path clip-path="url(#p5b135aad8d)" d="M 363.917666 168.610589 
L 363.917666 7.2 
" style="fill:none;stroke:#000000;stroke-linecap:square;stroke-opacity:0.2;stroke-width:0.5;"/>
     </g>
     <g id="line2d_8">
      <g>
       <use style="fill-opacity:0.2;stroke:#000000;stroke-opacity:0.2;stroke-width:0.8;" x="363.917666" xlink:href="#m9d297ac789" y="168.610589"/>
      </g>
     </g>
    </g>
    <g id="xtick_5">
     <g id="line2d_9">
      <path clip-path="url(#p5b135aad8d)" d="M 466.199938 168.610589 
L 466.199938 7.2 
" style="fill:none;stroke:#000000;stroke-linecap:square;stroke-opacity:0.2;stroke-width:0.5;"/>
     </g>
     <g id="line2d_10">
      <g>
       <use style="fill-opacity:0.2;stroke:#000000;stroke-opacity:0.2;stroke-width:0.8;" x="466.199938" xlink:href="#m9d297ac789" y="168.610589"/>
      </g>
     </g>
    </g>
    <g id="xtick_6">
     <g id="line2d_11">
      <path clip-path="url(#p5b135aad8d)" d="M 568.48221 168.610589 
L 568.48221 7.2 
" style="fill:none;stroke:#000000;stroke-linecap:square;stroke-opacity:0.2;stroke-width:0.5;"/>
     </g>
     <g id="line2d_12">
      <g>
       <use style="fill-opacity:0.2;stroke:#000000;stroke-opacity:0.2;stroke-width:0.8;" x="568.48221" xlink:href="#m9d297ac789" y="168.610589"/>
      </g>
     </g>
    </g>
   </g>
   <g id="matplotlib.axis_2">
    <g id="ytick_1">
     <g id="line2d_13">
      <path clip-path="url(#p5b135aad8d)" d="M 57.070851 129.292625 
L 568.48221 129.292625 
" style="fill:none;stroke:#000000;stroke-linecap:square;stroke-opacity:0.2;stroke-width:0.5;"/>
     </g>
     <g id="line2d_14">
      <defs>
       <path d="M 0 0 
L -3.5 0 
" id="me2edc14778" style="stroke:#000000;stroke-opacity:0.2;stroke-width:0.8;"/>
      </defs>
      <g>
       <use style="fill-opacity:0.2;stroke:#000000;stroke-opacity:0.2;stroke-width:0.8;" x="57.070851" xlink:href="#me2edc14778" y="129.292625"/>
      </g>
     </g>
     <g id="text_1">
      <!-- $\mathdefault{−1}$ -->
      <g transform="translate(23.12516 134.28239)scale(0.14 -0.14)">
       <defs>
        <path d="M 65.90625 23 
C 67.59375 23 69.40625 23 69.40625 25 
C 69.40625 27 67.59375 27 65.90625 27 
L 11.796875 27 
C 10.09375 27 8.296875 27 8.296875 25 
C 8.296875 23 10.09375 23 11.796875 23 
z
" id="CMSY10-0"/>
        <path d="M 6.703125 56 
L 7.703125 56 
L 20.59375 61.8125 
C 20.703125 61.90625 20.796875 61.90625 20.90625 61.90625 
C 21.5 61.90625 21.703125 61.015625 21.703125 58.609375 
L 21.703125 9.578125 
C 21.703125 4.3125 20.59375 3.203125 15.203125 3.203125 
L 9.59375 3.203125 
L 9.59375 0 
C 25 0 25 0 26.09375 0 
C 27.40625 0 29.59375 0 33 0 
C 34.203125 0 37.703125 0 41.796875 0 
L 41.796875 3.203125 
L 36.59375 3.203125 
C 31.09375 3.203125 30.09375 4.3125 30.09375 9.5625 
L 30.09375 69.421875 
L 28.703125 69.921875 
C 22.203125 66.515625 15.09375 63.515625 6 60.3125 
z
" id="URW_Palladio_L_Roman-49"/>
       </defs>
       <use transform="scale(1.038107)" xlink:href="#CMSY10-0"/>
       <use transform="translate(81.941696 0)scale(0.996264)" xlink:href="#URW_Palladio_L_Roman-49"/>
      </g>
     </g>
    </g>
    <g id="ytick_2">
     <g id="line2d_15">
      <path clip-path="url(#p5b135aad8d)" d="M 57.070851 87.905295 
L 568.48221 87.905295 
" style="fill:none;stroke:#000000;stroke-linecap:square;stroke-opacity:0.2;stroke-width:0.5;"/>
     </g>
     <g id="line2d_16">
      <g>
       <use style="fill-opacity:0.2;stroke:#000000;stroke-opacity:0.2;stroke-width:0.8;" x="57.070851" xlink:href="#me2edc14778" y="87.905295"/>
      </g>
     </g>
     <g id="text_2">
      <!-- $\mathdefault{0}$ -->
      <g transform="translate(34.597002 92.895059)scale(0.14 -0.14)">
       <defs>
        <path d="M 26.296875 69 
C 10.796875 69 2.90625 56.6875 2.90625 32.453125 
C 2.90625 20.71875 5 10.625 8.5 5.71875 
C 12 0.796875 17.59375 -2 23.796875 -2 
C 38.90625 -2 46.5 11.015625 46.5 36.65625 
C 46.5 58.578125 40 69 26.296875 69 
z
M 24.5 65.5 
C 34.203125 65.5 38.09375 55.6875 38.09375 31.640625 
C 38.09375 10.328125 34.296875 1.5 25.09375 1.5 
C 15.40625 1.5 11.296875 11.625 11.296875 36.0625 
C 11.296875 57.1875 15 65.5 24.5 65.5 
z
" id="URW_Palladio_L_Roman-48"/>
       </defs>
       <use transform="scale(0.996264)" xlink:href="#URW_Palladio_L_Roman-48"/>
      </g>
     </g>
    </g>
    <g id="ytick_3">
     <g id="line2d_17">
      <path clip-path="url(#p5b135aad8d)" d="M 57.070851 46.517964 
L 568.48221 46.517964 
" style="fill:none;stroke:#000000;stroke-linecap:square;stroke-opacity:0.2;stroke-width:0.5;"/>
     </g>
     <g id="line2d_18">
      <g>
       <use style="fill-opacity:0.2;stroke:#000000;stroke-opacity:0.2;stroke-width:0.8;" x="57.070851" xlink:href="#me2edc14778" y="46.517964"/>
      </g>
     </g>
     <g id="text_3">
      <!-- $\mathdefault{1}$ -->
      <g transform="translate(34.597002 51.507729)scale(0.14 -0.14)">
       <use transform="scale(0.996264)" xlink:href="#URW_Palladio_L_Roman-49"/>
      </g>
     </g>
    </g>
    <g id="text_4">
     <!-- Input -->
     <g transform="translate(15.753876 102.544163)rotate(-90)scale(0.12 -0.12)">
      <defs>
       <path d="M 21.59375 57.234375 
C 21.59375 65.1875 22.09375 66 26.703125 66 
L 31.5 66 
L 31.5 69.109375 
C 24.203125 69.109375 22 69.109375 16.796875 69.109375 
C 11.796875 69.109375 9.40625 69.109375 2.203125 69.109375 
L 2.203125 66 
L 7 66 
C 11.59375 66 12.09375 65.1875 12.09375 57.234375 
L 12.09375 11.96875 
C 12.09375 4 11.59375 3.203125 7 3.203125 
L 2.203125 3.203125 
L 2.203125 0 
C 8.09375 0 11.59375 0 16.796875 0 
C 22 0 25.59375 0 31.5 0 
L 31.5 3.203125 
L 26.703125 3.203125 
C 22.09375 3.203125 21.59375 4 21.59375 11.96875 
z
" id="URW_Palladio_L_Roman-73"/>
       <path d="M 41 -0.109375 
C 47.09375 -0.109375 47.203125 -0.109375 48.90625 -0.109375 
C 50.296875 -0.109375 50.296875 -0.109375 57.203125 -0.109375 
L 57.203125 2.796875 
L 53.09375 3.203125 
C 49.703125 3.203125 49.40625 3.8125 49.40625 10.21875 
L 49.40625 29.5625 
C 49.40625 41.28125 43.90625 47 32.703125 47 
C 29 47 26.90625 46.296875 24.796875 44.484375 
L 17.203125 37.875 
L 17.203125 46.59375 
L 16.296875 47 
C 11.203125 44.890625 6 43.484375 0.703125 42.890625 
L 0.703125 40.078125 
L 4.40625 40.078125 
C 8.40625 40.078125 8.796875 39.375 8.796875 32.71875 
L 8.796875 10.046875 
C 8.796875 3.703125 8.5 3 5.09375 3 
L 0.59375 3 
L 0.59375 -0.109375 
C 7.40625 -0.109375 10.09375 -0.109375 13 -0.109375 
C 15.90625 -0.109375 18.59375 -0.109375 25.40625 -0.109375 
L 25.40625 3 
L 20.90625 3 
C 17.5 3 17.203125 3.703125 17.203125 10.046875 
L 17.203125 31.421875 
C 17.203125 35.9375 23.796875 40.875 29.90625 40.875 
C 36.59375 40.875 41 35.890625 41 28.21875 
z
" id="URW_Palladio_L_Roman-110"/>
       <path d="M 1 40.078125 
L 4.703125 40.078125 
C 8.703125 40.078125 9.09375 39.375 9.09375 32.734375 
L 9.09375 -17.84375 
C 9.09375 -24.1875 8.796875 -24.890625 5.40625 -24.890625 
L 0.796875 -24.890625 
L 0.796875 -28 
C 10.796875 -28 10.796875 -28 13.296875 -28 
C 15.796875 -28 15.796875 -28 25.796875 -28 
L 25.796875 -24.890625 
L 21.203125 -24.890625 
C 17.796875 -24.890625 17.5 -24.171875 17.5 -17.78125 
L 17.5 1.390625 
C 20.5 -0.40625 23.703125 -1.109375 28.203125 -1.109375 
C 31.09375 -1.109375 33.703125 -0.5 35.296875 0.5 
L 46.703125 7.890625 
C 50.703125 10.5 55.40625 20.78125 55.40625 27.1875 
C 55.40625 38.296875 46.203125 47 34.59375 47 
C 30.90625 47 27.296875 45.984375 25.703125 44.484375 
L 17.5 36.984375 
L 17.5 46.59375 
L 16.59375 47 
C 11.5 44.890625 6.296875 43.484375 1 42.890625 
z
M 17.5 30.6875 
C 17.5 32.078125 18 33.1875 19.296875 34.890625 
C 22.203125 38.578125 26.296875 40.484375 31.296875 40.484375 
C 40.703125 40.484375 46.703125 33.890625 46.703125 23.5 
C 46.703125 12.296875 40 4 31 4 
C 25.5 4 21.40625 5.8125 17.5 9.890625 
z
" id="URW_Palladio_L_Roman-112"/>
       <path d="M 50.296875 47.015625 
L 49.40625 47.421875 
C 44.296875 45.3125 39.09375 43.90625 33.796875 43.3125 
L 33.796875 40.5 
L 37.5 40.5 
C 41.5 40.5 41.90625 39.796875 41.90625 33.140625 
L 41.90625 16.71875 
C 41.90625 14.5 40.5 11.671875 38.203125 9.359375 
C 35.40625 6.53125 32.203125 5.109375 28.296875 5.109375 
C 24.796875 5.109375 22 6.21875 20.40625 8.140625 
C 19 9.75 18.296875 12.875 18.296875 17.296875 
L 18.296875 47.015625 
L 17.40625 47.421875 
C 12.296875 45.3125 7.09375 43.90625 1.796875 43.3125 
L 1.796875 40.5 
L 5.5 40.5 
C 9.5 40.5 9.90625 39.796875 9.90625 33.15625 
L 9.90625 16.234375 
C 9.90625 9.171875 10.5 6.046875 12.296875 3.546875 
C 14.5 0.515625 18.296875 -1 24 -1 
C 28.5 -1 32.5 0.40625 35.203125 2.90625 
L 41.90625 9.140625 
C 41.90625 6.265625 41.796875 4.65625 41.5 0 
C 48.203125 0 48.296875 0 49.796875 0 
C 51.203125 0 51.203125 0 58.09375 0 
L 58.09375 2.90625 
L 54 3.3125 
C 50.59375 3.3125 50.296875 3.921875 50.296875 10.375 
z
" id="URW_Palladio_L_Roman-117"/>
       <path d="M 9.796875 38.6875 
L 9.796875 9.671875 
C 9.796875 2.21875 13.09375 -1 20.796875 -1 
C 23.09375 -1 25.5 -0.5 26.09375 0.203125 
L 30.90625 5.515625 
L 29.59375 7.234375 
C 27.09375 5.8125 25.59375 5.3125 23.703125 5.3125 
C 19.796875 5.3125 18.203125 7.34375 18.203125 12.3125 
L 18.203125 38.890625 
L 31 38.890625 
L 31.90625 44 
L 18.203125 44 
L 18.203125 47.75 
C 18.203125 51.890625 18.5 55.421875 19.296875 61.734375 
L 18.09375 62.828125 
C 15.703125 61.328125 12.703125 60.03125 9.59375 59.03125 
C 9.90625 56.015625 10 54.109375 10 51.109375 
L 10 44.09375 
L 2.203125 40.59375 
L 2.203125 38.6875 
z
" id="URW_Palladio_L_Roman-116"/>
      </defs>
      <use transform="scale(0.996264)" xlink:href="#URW_Palladio_L_Roman-73"/>
      <use transform="translate(33.574079 0)scale(0.996264)" xlink:href="#URW_Palladio_L_Roman-110"/>
      <use transform="translate(91.55614 0)scale(0.996264)" xlink:href="#URW_Palladio_L_Roman-112"/>
      <use transform="translate(151.430533 0)scale(0.996264)" xlink:href="#URW_Palladio_L_Roman-117"/>
      <use transform="translate(211.504268 0)scale(0.996264)" xlink:href="#URW_Palladio_L_Roman-116"/>
     </g>
    </g>
   </g>
   <g id="line2d_19">
    <path clip-path="url(#p5b135aad8d)" d="M 57.070851 46.517964 
L 67.299078 46.517964 
L 67.299078 46.517964 
L 77.527305 46.517964 
L 77.527305 46.517964 
L 87.755532 46.517964 
L 87.755532 46.517964 
L 97.983759 46.517964 
L 97.983759 46.517964 
L 108.211986 46.517964 
L 108.211986 46.517964 
L 118.440214 46.517964 
L 118.440214 46.517964 
L 128.668441 46.517964 
L 128.668441 46.517964 
L 138.896668 46.517964 
L 138.896668 46.517964 
L 149.124895 46.517964 
L 149.124895 129.292625 
L 159.353122 129.292625 
L 159.353122 129.292625 
L 169.58135 129.292625 
L 169.58135 129.292625 
L 179.809577 129.292625 
L 179.809577 129.292625 
L 190.037804 129.292625 
L 190.037804 129.292625 
L 200.266031 129.292625 
L 200.266031 129.292625 
L 210.494258 129.292625 
L 210.494258 129.292625 
L 220.722486 129.292625 
L 220.722486 129.292625 
L 230.950713 129.292625 
L 230.950713 46.517964 
L 241.17894 46.517964 
L 241.17894 46.517964 
L 251.407167 46.517964 
L 251.407167 46.517964 
L 261.635394 46.517964 
L 261.635394 46.517964 
L 271.863621 46.517964 
L 271.863621 46.517964 
L 282.091849 46.517964 
L 282.091849 46.517964 
L 292.320076 46.517964 
L 292.320076 46.517964 
L 302.548303 46.517964 
L 302.548303 46.517964 
L 312.77653 46.517964 
L 312.77653 129.292625 
L 323.004757 129.292625 
L 323.004757 129.292625 
L 333.232985 129.292625 
L 333.232985 129.292625 
L 343.461212 129.292625 
L 343.461212 129.292625 
L 353.689439 129.292625 
L 353.689439 129.292625 
L 363.917666 129.292625 
L 363.917666 129.292625 
L 374.145893 129.292625 
L 374.145893 129.292625 
L 384.374121 129.292625 
L 384.374121 129.292625 
L 394.602348 129.292625 
L 394.602348 129.292625 
L 404.830575 129.292625 
L 404.830575 46.517964 
L 415.058802 46.517964 
L 415.058802 46.517964 
L 425.287029 46.517964 
L 425.287029 46.517964 
L 435.515256 46.517964 
L 435.515256 46.517964 
L 445.743484 46.517964 
L 445.743484 46.517964 
L 455.971711 46.517964 
L 455.971711 46.517964 
L 466.199938 46.517964 
L 466.199938 46.517964 
L 476.428165 46.517964 
L 476.428165 46.517964 
L 486.656392 46.517964 
L 486.656392 129.292625 
L 496.88462 129.292625 
L 496.88462 129.292625 
L 507.112847 129.292625 
L 507.112847 129.292625 
L 517.341074 129.292625 
L 517.341074 129.292625 
L 527.569301 129.292625 
L 527.569301 129.292625 
L 537.797528 129.292625 
L 537.797528 129.292625 
L 548.025756 129.292625 
L 548.025756 129.292625 
L 558.253983 129.292625 
L 558.253983 129.292625 
" style="fill:none;stroke:#0271ae;stroke-linecap:square;stroke-width:3;"/>
    <defs>
     <path d="M 0 2.5 
C 0.663008 2.5 1.29895 2.236584 1.767767 1.767767 
C 2.236584 1.29895 2.5 0.663008 2.5 0 
C 2.5 -0.663008 2.236584 -1.29895 1.767767 -1.767767 
C 1.29895 -2.236584 0.663008 -2.5 0 -2.5 
C -0.663008 -2.5 -1.29895 -2.236584 -1.767767 -1.767767 
C -2.236584 -1.29895 -2.5 -0.663008 -2.5 0 
C -2.5 0.663008 -2.236584 1.29895 -1.767767 1.767767 
C -1.29895 2.236584 -0.663008 2.5 0 2.5 
z
" id="mf1294b6f32"/>
    </defs>
    <g clip-path="url(#p5b135aad8d)">
     <use style="fill:#0271ae;" x="57.070851" xlink:href="#mf1294b6f32" y="46.517964"/>
     <use style="fill:#0271ae;" x="67.299078" xlink:href="#mf1294b6f32" y="46.517964"/>
     <use style="fill:#0271ae;" x="77.527305" xlink:href="#mf1294b6f32" y="46.517964"/>
     <use style="fill:#0271ae;" x="87.755532" xlink:href="#mf1294b6f32" y="46.517964"/>
     <use style="fill:#0271ae;" x="97.983759" xlink:href="#mf1294b6f32" y="46.517964"/>
     <use style="fill:#0271ae;" x="108.211986" xlink:href="#mf1294b6f32" y="46.517964"/>
     <use style="fill:#0271ae;" x="118.440214" xlink:href="#mf1294b6f32" y="46.517964"/>
     <use style="fill:#0271ae;" x="128.668441" xlink:href="#mf1294b6f32" y="46.517964"/>
     <use style="fill:#0271ae;" x="138.896668" xlink:href="#mf1294b6f32" y="46.517964"/>
     <use style="fill:#0271ae;" x="149.124895" xlink:href="#mf1294b6f32" y="129.292625"/>
     <use style="fill:#0271ae;" x="159.353122" xlink:href="#mf1294b6f32" y="129.292625"/>
     <use style="fill:#0271ae;" x="169.58135" xlink:href="#mf1294b6f32" y="129.292625"/>
     <use style="fill:#0271ae;" x="179.809577" xlink:href="#mf1294b6f32" y="129.292625"/>
     <use style="fill:#0271ae;" x="190.037804" xlink:href="#mf1294b6f32" y="129.292625"/>
     <use style="fill:#0271ae;" x="200.266031" xlink:href="#mf1294b6f32" y="129.292625"/>
     <use style="fill:#0271ae;" x="210.494258" xlink:href="#mf1294b6f32" y="129.292625"/>
     <use style="fill:#0271ae;" x="220.722486" xlink:href="#mf1294b6f32" y="129.292625"/>
     <use style="fill:#0271ae;" x="230.950713" xlink:href="#mf1294b6f32" y="46.517964"/>
     <use style="fill:#0271ae;" x="241.17894" xlink:href="#mf1294b6f32" y="46.517964"/>
     <use style="fill:#0271ae;" x="251.407167" xlink:href="#mf1294b6f32" y="46.517964"/>
     <use style="fill:#0271ae;" x="261.635394" xlink:href="#mf1294b6f32" y="46.517964"/>
     <use style="fill:#0271ae;" x="271.863621" xlink:href="#mf1294b6f32" y="46.517964"/>
     <use style="fill:#0271ae;" x="282.091849" xlink:href="#mf1294b6f32" y="46.517964"/>
     <use style="fill:#0271ae;" x="292.320076" xlink:href="#mf1294b6f32" y="46.517964"/>
     <use style="fill:#0271ae;" x="302.548303" xlink:href="#mf1294b6f32" y="46.517964"/>
     <use style="fill:#0271ae;" x="312.77653" xlink:href="#mf1294b6f32" y="129.292625"/>
     <use style="fill:#0271ae;" x="323.004757" xlink:href="#mf1294b6f32" y="129.292625"/>
     <use style="fill:#0271ae;" x="333.232985" xlink:href="#mf1294b6f32" y="129.292625"/>
     <use style="fill:#0271ae;" x="343.461212" xlink:href="#mf1294b6f32" y="129.292625"/>
     <use style="fill:#0271ae;" x="353.689439" xlink:href="#mf1294b6f32" y="129.292625"/>
     <use style="fill:#0271ae;" x="363.917666" xlink:href="#mf1294b6f32" y="129.292625"/>
     <use style="fill:#0271ae;" x="374.145893" xlink:href="#mf1294b6f32" y="129.292625"/>
     <use style="fill:#0271ae;" x="384.374121" xlink:href="#mf1294b6f32" y="129.292625"/>
     <use style="fill:#0271ae;" x="394.602348" xlink:href="#mf1294b6f32" y="129.292625"/>
     <use style="fill:#0271ae;" x="404.830575" xlink:href="#mf1294b6f32" y="46.517964"/>
     <use style="fill:#0271ae;" x="415.058802" xlink:href="#mf1294b6f32" y="46.517964"/>
     <use style="fill:#0271ae;" x="425.287029" xlink:href="#mf1294b6f32" y="46.517964"/>
     <use style="fill:#0271ae;" x="435.515256" xlink:href="#mf1294b6f32" y="46.517964"/>
     <use style="fill:#0271ae;" x="445.743484" xlink:href="#mf1294b6f32" y="46.517964"/>
     <use style="fill:#0271ae;" x="455.971711" xlink:href="#mf1294b6f32" y="46.517964"/>
     <use style="fill:#0271ae;" x="466.199938" xlink:href="#mf1294b6f32" y="46.517964"/>
     <use style="fill:#0271ae;" x="476.428165" xlink:href="#mf1294b6f32" y="46.517964"/>
     <use style="fill:#0271ae;" x="486.656392" xlink:href="#mf1294b6f32" y="129.292625"/>
     <use style="fill:#0271ae;" x="496.88462" xlink:href="#mf1294b6f32" y="129.292625"/>
     <use style="fill:#0271ae;" x="507.112847" xlink:href="#mf1294b6f32" y="129.292625"/>
     <use style="fill:#0271ae;" x="517.341074" xlink:href="#mf1294b6f32" y="129.292625"/>
     <use style="fill:#0271ae;" x="527.569301" xlink:href="#mf1294b6f32" y="129.292625"/>
     <use style="fill:#0271ae;" x="537.797528" xlink:href="#mf1294b6f32" y="129.292625"/>
     <use style="fill:#0271ae;" x="548.025756" xlink:href="#mf1294b6f32" y="129.292625"/>
     <use style="fill:#0271ae;" x="558.253983" xlink:href="#mf1294b6f32" y="129.292625"/>
    </g>
   </g>
   <g id="legend_1">
    <g id="patch_3">
     <path d="M 66.870851 161.610589 
L 121.653 161.610589 
Q 124.453 161.610589 124.453 158.810589 
L 124.453 138.639604 
Q 124.453 135.839604 121.653 135.839604 
L 66.870851 135.839604 
Q 64.070851 135.839604 64.070851 138.639604 
L 64.070851 158.810589 
Q 64.070851 161.610589 66.870851 161.610589 
z
" style="fill:#ffffff;opacity:0.95;stroke:#cccccc;stroke-linejoin:miter;stroke-width:0.5;"/>
    </g>
    <g id="line2d_20">
     <path d="M 69.670851 147.177417 
L 83.670851 147.177417 
" style="fill:none;stroke:#0271ae;stroke-linecap:square;stroke-width:3;"/>
    </g>
    <g id="line2d_21">
     <g>
      <use style="fill:#0271ae;" x="76.670851" xlink:href="#mf1294b6f32" y="147.177417"/>
     </g>
    </g>
    <g id="text_5">
     <!-- $x[n]$ -->
     <g transform="translate(94.870851 152.077417)scale(0.14 -0.14)">
      <defs>
       <path d="M 2.09375 8.84375 
C 2.09375 6.84375 1.90625 5.578125 1.296875 2.390625 
C 1.09375 1.203125 1 0.90625 0.90625 0.203125 
C 2.40625 -0.609375 4 -1 5.203125 -1 
C 8.5 -1 12.40625 1.890625 15.5 6.546875 
L 23.09375 18.1875 
L 24.203125 11.328125 
C 25.5 2.875 27.796875 -1 31.40625 -1 
C 33.59375 -1 36.796875 0.6875 40 3.578125 
L 44.90625 7.953125 
L 44 9.84375 
C 40.40625 6.859375 37.90625 5.375 36.296875 5.375 
C 34.796875 5.375 33.5 6.375 32.5 8.34375 
C 31.59375 10.234375 30.5 13.90625 30 16.796875 
L 28.203125 26.8125 
L 31.703125 31.6875 
C 36.40625 38.140625 39.09375 40.421875 42.203125 40.421875 
C 43.796875 40.421875 45 39.625 45.5 38.140625 
L 46.90625 38.53125 
L 48.40625 47 
C 47.203125 47.703125 46.296875 48 45.40625 48 
C 41.40625 48 37.40625 44.40625 31.203125 35.265625 
L 27.5 29.796875 
L 26.90625 34.5625 
C 25.703125 44.40625 23 48 17.09375 48 
C 14.5 48 12.296875 47.203125 11.40625 45.90625 
L 5.59375 37.640625 
L 7.296875 36.65625 
C 10.296875 40.03125 12.296875 41.421875 14.203125 41.421875 
C 17.5 41.421875 19.703125 37.359375 21.40625 27.609375 
L 22.5 21.453125 
L 18.5 15.265625 
C 14.203125 8.578125 10.796875 5.375 8 5.375 
C 6.5 5.375 5.40625 5.796875 5.203125 6.296875 
L 4.09375 9.140625 
z
" id="URW_Palladio_L_Italic-120"/>
       <path d="M 25.5 -25 
L 25.5 -20.984375 
L 15.796875 -20.984375 
L 15.796875 71 
L 25.5 71 
L 25.5 75.015625 
L 11.796875 75.015625 
L 11.796875 -25 
z
" id="CMR10-91"/>
       <path d="M 2.40625 38.609375 
L 3.09375 36.609375 
L 6.296875 38.703125 
C 10 41.015625 10.296875 41.203125 11 41.203125 
C 12.09375 41.203125 12.796875 40.21875 12.796875 38.71875 
C 12.796875 33.625 8.703125 14.359375 4.59375 0.09375 
L 5.296875 -1 
C 7.796875 -0.3125 10.09375 0.28125 12.296875 0.6875 
C 14.203125 13.265625 16.296875 19.75 20.90625 26.640625 
C 26.296875 35.015625 33.796875 41.203125 38.296875 41.203125 
C 39.40625 41.203125 40 40.3125 40 38.8125 
C 40 37.015625 39.703125 34.921875 38.90625 31.734375 
L 33.703125 10.578125 
C 32.796875 6.875 32.40625 4.59375 32.40625 3 
C 32.40625 0.484375 33.5 -1 35.40625 -1 
C 38 -1 41.59375 1.078125 51.40625 8.375 
L 50.40625 10.171875 
L 47.796875 8.484375 
C 44.90625 6.578125 42.703125 5.484375 41.703125 5.484375 
C 41 5.484375 40.40625 6.375 40.40625 7.46875 
C 40.40625 7.96875 40.5 9.078125 40.59375 9.484375 
L 47.203125 37.015625 
C 47.90625 39.921875 48.296875 42.703125 48.296875 44.390625 
C 48.296875 46.703125 47.203125 48 45.203125 48 
C 41 48 34.09375 44.21875 28.203125 38.71875 
C 24.40625 35.21875 21.59375 31.828125 16.40625 24.546875 
L 20.203125 40.609375 
C 20.59375 42.40625 20.796875 43.59375 20.796875 44.703125 
C 20.796875 46.796875 20 48 18.5 48 
C 16.40625 48 12.5 45.8125 5.203125 40.609375 
z
" id="URW_Palladio_L_Italic-110"/>
       <path d="M 15.90625 75.015625 
L 2.203125 75.015625 
L 2.203125 71 
L 11.90625 71 
L 11.90625 -20.984375 
L 2.203125 -20.984375 
L 2.203125 -25 
L 15.90625 -25 
z
" id="CMR10-93"/>
      </defs>
      <use transform="scale(0.996264)" xlink:href="#URW_Palladio_L_Italic-120"/>
      <use transform="translate(53.299136 0)scale(1.038107)" xlink:href="#CMR10-91"/>
      <use transform="translate(84.581835 0)scale(0.996264)" xlink:href="#URW_Palladio_L_Italic-110"/>
      <use transform="translate(142.464796 0)scale(1.038107)" xlink:href="#CMR10-93"/>
     </g>
    </g>
   </g>
  </g>
  <g id="axes_2">
   <g id="patch_4">
    <path d="M 57.070851 339.861659 
L 568.48221 339.861659 
L 568.48221 178.451069 
L 57.070851 178.451069 
z
" style="fill:none;"/>
   </g>
   <g id="patch_5">
    <path clip-path="url(#p82713b05c6)" d="M 57.070851 339.861659 
L 57.070851 178.451069 
L 67.299078 178.451069 
L 67.299078 339.861659 
z
" style="fill:#343837;opacity:0.1;stroke:#343837;stroke-linejoin:miter;stroke-width:0.5;"/>
   </g>
   <g id="matplotlib.axis_3">
    <g id="xtick_7">
     <g id="line2d_22">
      <path clip-path="url(#p82713b05c6)" d="M 57.070851 339.861659 
L 57.070851 178.451069 
" style="fill:none;stroke:#000000;stroke-linecap:square;stroke-opacity:0.2;stroke-width:0.5;"/>
     </g>
     <g id="line2d_23">
      <g>
       <use style="fill-opacity:0.2;stroke:#000000;stroke-opacity:0.2;stroke-width:0.8;" x="57.070851" xlink:href="#m9d297ac789" y="339.861659"/>
      </g>
     </g>
     <g id="text_6">
      <!-- $\mathdefault{0.0}$ -->
      <g transform="translate(48.35354 365.341188)scale(0.14 -0.14)">
       <defs>
        <path d="M 12.40625 11.625 
C 9.40625 11.625 6.703125 8.8125 6.703125 5.8125 
C 6.703125 2.796875 9.40625 0 12.296875 0 
C 15.5 0 18.296875 2.703125 18.296875 5.8125 
C 18.296875 8.8125 15.5 11.625 12.40625 11.625 
z
" id="URW_Palladio_L_Roman-46"/>
       </defs>
       <use transform="scale(0.996264)" xlink:href="#URW_Palladio_L_Roman-48"/>
       <use transform="translate(49.8132 0)scale(0.996264)" xlink:href="#URW_Palladio_L_Roman-46"/>
       <use transform="translate(74.719801 0)scale(0.996264)" xlink:href="#URW_Palladio_L_Roman-48"/>
      </g>
     </g>
    </g>
    <g id="xtick_8">
     <g id="line2d_24">
      <path clip-path="url(#p82713b05c6)" d="M 159.353122 339.861659 
L 159.353122 178.451069 
" style="fill:none;stroke:#000000;stroke-linecap:square;stroke-opacity:0.2;stroke-width:0.5;"/>
     </g>
     <g id="line2d_25">
      <g>
       <use style="fill-opacity:0.2;stroke:#000000;stroke-opacity:0.2;stroke-width:0.8;" x="159.353122" xlink:href="#m9d297ac789" y="339.861659"/>
      </g>
     </g>
     <g id="text_7">
      <!-- $\mathdefault{0.2}$ -->
      <g transform="translate(150.635812 365.341188)scale(0.14 -0.14)">
       <defs>
        <path d="M 1.59375 2.5 
L 1.59375 0 
C 20.296875 0 20.296875 0 23.90625 0 
C 27.5 0 27.5 0 46.796875 0 
C 46.59375 1.953125 46.59375 2.90625 46.59375 4.203125 
C 46.59375 5.4375 46.59375 6.359375 46.796875 8.421875 
C 35.296875 8.421875 30.703125 8.421875 12.203125 8.421875 
L 30.40625 27.515625 
C 40.09375 37.71875 43.09375 43.171875 43.09375 50.59375 
C 43.09375 61.96875 35.296875 69 22.59375 69 
C 15.40625 69 10.5 67 5.59375 62.015625 
L 3.90625 48.421875 
L 6.796875 48.421875 
L 8.09375 53.015625 
C 9.703125 58.796875 13.296875 61.296875 20 61.296875 
C 28.59375 61.296875 34.09375 55.890625 34.09375 47.421875 
C 34.09375 39.921875 29.90625 32.546875 18.59375 20.5625 
z
" id="URW_Palladio_L_Roman-50"/>
       </defs>
       <use transform="scale(0.996264)" xlink:href="#URW_Palladio_L_Roman-48"/>
       <use transform="translate(49.8132 0)scale(0.996264)" xlink:href="#URW_Palladio_L_Roman-46"/>
       <use transform="translate(74.719801 0)scale(0.996264)" xlink:href="#URW_Palladio_L_Roman-50"/>
      </g>
     </g>
    </g>
    <g id="xtick_9">
     <g id="line2d_26">
      <path clip-path="url(#p82713b05c6)" d="M 261.635394 339.861659 
L 261.635394 178.451069 
" style="fill:none;stroke:#000000;stroke-linecap:square;stroke-opacity:0.2;stroke-width:0.5;"/>
     </g>
     <g id="line2d_27">
      <g>
       <use style="fill-opacity:0.2;stroke:#000000;stroke-opacity:0.2;stroke-width:0.8;" x="261.635394" xlink:href="#m9d297ac789" y="339.861659"/>
      </g>
     </g>
     <g id="text_8">
      <!-- $\mathdefault{0.4}$ -->
      <g transform="translate(252.918084 365.341188)scale(0.14 -0.14)">
       <defs>
        <path d="M 28 18 
L 28 10.515625 
C 28 4.515625 26.90625 3.109375 22 3.109375 
L 15.796875 3.109375 
L 15.796875 0 
C 29.09375 0 29.09375 0 31.5 0 
C 33.90625 0 33.90625 0 47.203125 0 
L 47.203125 3.109375 
L 42.40625 3.109375 
C 37.5 3.109375 36.40625 4.40625 36.40625 10.453125 
L 36.40625 18 
C 42.296875 18 44.40625 18 47.203125 17.703125 
L 47.203125 24.8125 
C 42.5 24.421875 40.59375 24.421875 39.09375 24.421875 
L 38.796875 24.421875 
L 36.40625 24.421875 
L 36.40625 38.390625 
C 36.40625 56.25 36.59375 64.875 37.09375 69 
L 35.90625 69.5 
L 28.5 66.796875 
L 0.203125 20.296875 
L 1.296875 18 
z
M 28 24.421875 
L 6.5 24.421875 
L 28 59.78125 
z
" id="URW_Palladio_L_Roman-52"/>
       </defs>
       <use transform="scale(0.996264)" xlink:href="#URW_Palladio_L_Roman-48"/>
       <use transform="translate(49.8132 0)scale(0.996264)" xlink:href="#URW_Palladio_L_Roman-46"/>
       <use transform="translate(74.719801 0)scale(0.996264)" xlink:href="#URW_Palladio_L_Roman-52"/>
      </g>
     </g>
    </g>
    <g id="xtick_10">
     <g id="line2d_28">
      <path clip-path="url(#p82713b05c6)" d="M 363.917666 339.861659 
L 363.917666 178.451069 
" style="fill:none;stroke:#000000;stroke-linecap:square;stroke-opacity:0.2;stroke-width:0.5;"/>
     </g>
     <g id="line2d_29">
      <g>
       <use style="fill-opacity:0.2;stroke:#000000;stroke-opacity:0.2;stroke-width:0.8;" x="363.917666" xlink:href="#m9d297ac789" y="339.861659"/>
      </g>
     </g>
     <g id="text_9">
      <!-- $\mathdefault{0.6}$ -->
      <g transform="translate(355.200356 365.341188)scale(0.14 -0.14)">
       <defs>
        <path d="M 41.59375 67.34375 
L 37.90625 69.046875 
C 28.296875 65.84375 24.203125 63.84375 19.09375 59.4375 
C 8.796875 50.71875 3.203125 38.5 3.203125 24.765625 
C 3.203125 8.21875 11.203125 -2 24.09375 -2 
C 37.09375 -2 46.796875 8.3125 46.796875 21.953125 
C 46.796875 33.484375 39.90625 41 29.296875 41 
C 24.296875 41 21.296875 39.6875 15.40625 34.984375 
C 14.296875 34.078125 14.203125 33.984375 13.09375 33.1875 
C 15.203125 51.3125 23.59375 61.140625 41.59375 66.546875 
z
M 25.5 34.984375 
C 33.09375 34.984375 38.203125 28.375 38.203125 18.453125 
C 38.203125 8.015625 33.09375 1.296875 25.40625 1.296875 
C 16.90625 1.296875 12.296875 8.609375 12.296875 22.0625 
C 12.296875 25.5625 12.703125 27.46875 13.796875 29.171875 
C 16 32.578125 20.703125 34.984375 25.5 34.984375 
z
" id="URW_Palladio_L_Roman-54"/>
       </defs>
       <use transform="scale(0.996264)" xlink:href="#URW_Palladio_L_Roman-48"/>
       <use transform="translate(49.8132 0)scale(0.996264)" xlink:href="#URW_Palladio_L_Roman-46"/>
       <use transform="translate(74.719801 0)scale(0.996264)" xlink:href="#URW_Palladio_L_Roman-54"/>
      </g>
     </g>
    </g>
    <g id="xtick_11">
     <g id="line2d_30">
      <path clip-path="url(#p82713b05c6)" d="M 466.199938 339.861659 
L 466.199938 178.451069 
" style="fill:none;stroke:#000000;stroke-linecap:square;stroke-opacity:0.2;stroke-width:0.5;"/>
     </g>
     <g id="line2d_31">
      <g>
       <use style="fill-opacity:0.2;stroke:#000000;stroke-opacity:0.2;stroke-width:0.8;" x="466.199938" xlink:href="#m9d297ac789" y="339.861659"/>
      </g>
     </g>
     <g id="text_10">
      <!-- $\mathdefault{0.8}$ -->
      <g transform="translate(457.482628 365.341188)scale(0.14 -0.14)">
       <defs>
        <path d="M 16.796875 34.546875 
C 12.703125 32.65625 11 31.546875 8.796875 29.4375 
C 5 25.640625 3 21.125 3 15.921875 
C 3 5.609375 11.296875 -2 22.59375 -2 
C 35.59375 -2 46.40625 8.21875 46.40625 20.625 
C 46.40625 28.640625 42.703125 32.953125 31.296875 38.15625 
C 40.40625 44.375 43.59375 48.578125 43.59375 54.578125 
C 43.59375 63.1875 36.5 69 25.90625 69 
C 14 69 5.296875 61.390625 5.296875 50.890625 
C 5.296875 44.078125 8 40.265625 16.796875 34.546875 
z
M 28.40625 29.546875 
C 34.703125 26.734375 38.5 21.828125 38.5 16.4375 
C 38.5 8.015625 32.203125 1.40625 24.09375 1.40625 
C 15.59375 1.40625 10.09375 7.421875 10.09375 16.734375 
C 10.09375 24.03125 13 28.640625 20.40625 33.15625 
z
M 22.296875 42.375 
C 16 45.46875 12.796875 49.484375 12.796875 54.484375 
C 12.796875 61.09375 17.59375 65.59375 24.703125 65.59375 
C 32 65.59375 36.796875 60.796875 36.796875 53.46875 
C 36.796875 47.78125 34.296875 43.875 27.796875 39.65625 
z
" id="URW_Palladio_L_Roman-56"/>
       </defs>
       <use transform="scale(0.996264)" xlink:href="#URW_Palladio_L_Roman-48"/>
       <use transform="translate(49.8132 0)scale(0.996264)" xlink:href="#URW_Palladio_L_Roman-46"/>
       <use transform="translate(74.719801 0)scale(0.996264)" xlink:href="#URW_Palladio_L_Roman-56"/>
      </g>
     </g>
    </g>
    <g id="xtick_12">
     <g id="line2d_32">
      <path clip-path="url(#p82713b05c6)" d="M 568.48221 339.861659 
L 568.48221 178.451069 
" style="fill:none;stroke:#000000;stroke-linecap:square;stroke-opacity:0.2;stroke-width:0.5;"/>
     </g>
     <g id="line2d_33">
      <g>
       <use style="fill-opacity:0.2;stroke:#000000;stroke-opacity:0.2;stroke-width:0.8;" x="568.48221" xlink:href="#m9d297ac789" y="339.861659"/>
      </g>
     </g>
     <g id="text_11">
      <!-- $\mathdefault{1.0}$ -->
      <g transform="translate(559.7649 365.341188)scale(0.14 -0.14)">
       <use transform="scale(0.996264)" xlink:href="#URW_Palladio_L_Roman-49"/>
       <use transform="translate(49.8132 0)scale(0.996264)" xlink:href="#URW_Palladio_L_Roman-46"/>
       <use transform="translate(74.719801 0)scale(0.996264)" xlink:href="#URW_Palladio_L_Roman-48"/>
      </g>
     </g>
    </g>
    <g id="text_12">
     <!-- Time [seconds] -->
     <g transform="translate(273.103679 381.828236)scale(0.12 -0.12)">
      <defs>
       <path d="M 25.5 64.28125 
C 25.796875 60.875 25.90625 58.578125 25.90625 54.265625 
L 25.90625 11.921875 
C 25.90625 4 25.40625 3.203125 20.796875 3.203125 
L 16 3.203125 
L 16 0 
C 21.90625 0 25.40625 0 30.59375 0 
C 35.796875 0 39.40625 0 45.296875 0 
L 45.296875 3.203125 
L 40.5 3.203125 
C 35.90625 3.203125 35.40625 4 35.40625 11.921875 
L 35.40625 54.265625 
C 35.40625 58.78125 35.5 60.984375 35.796875 64.28125 
L 51.296875 64.28125 
C 54.09375 64.28125 55.203125 63.390625 55.296875 61 
L 55.703125 53.125 
L 58.796875 53.125 
C 58.796875 59.53125 59 63.375 59.5 69 
C 52.296875 69 49 69 46.203125 69 
C 42.296875 69 39.40625 69 37.90625 69 
L 22.09375 69 
C 21.09375 69 15.703125 69 8.59375 69 
L 1.796875 69 
C 2.296875 63.375 2.5 59.53125 2.5 53.125 
L 5.59375 53.125 
L 6 61 
C 6.09375 63.390625 7.203125 64.28125 10 64.28125 
z
" id="URW_Palladio_L_Roman-84"/>
       <path d="M 18.796875 46.765625 
L 17.90625 47.171875 
C 12.796875 45.0625 7.59375 43.640625 2.296875 43.046875 
L 2.296875 40.25 
L 6 40.25 
C 10 40.25 10.40625 39.546875 10.40625 32.890625 
L 10.40625 10.171875 
C 10.40625 3.8125 10.09375 3.109375 6.703125 3.109375 
L 2.09375 3.109375 
L 2.09375 0 
C 12.09375 0 12.09375 0 14.59375 0 
C 17.09375 0 17.09375 0 27.09375 0 
L 27.09375 3.109375 
L 22.5 3.109375 
C 19.09375 3.109375 18.796875 3.8125 18.796875 10.171875 
z
M 14.203125 69 
C 11.203125 69 8.59375 66.390625 8.59375 63.375 
C 8.59375 60.46875 11.203125 57.875 14.09375 57.875 
C 17 57.875 19.703125 60.46875 19.703125 63.375 
C 19.703125 66.1875 17 69 14.203125 69 
z
" id="URW_Palladio_L_Roman-105"/>
       <path d="M 1.796875 40.078125 
L 5.5 40.078125 
C 9.5 40.078125 9.90625 39.375 9.90625 32.71875 
L 9.90625 10.046875 
C 9.90625 3.703125 9.59375 3 6.203125 3 
L 1.59375 3 
L 1.59375 -0.109375 
C 11.203125 -0.109375 11.5 -0.109375 14.296875 -0.109375 
C 17.09375 -0.109375 19.703125 -0.109375 26.203125 -0.109375 
L 26.203125 2.796875 
L 22 3.203125 
C 18.59375 3.203125 18.296875 3.90625 18.296875 10.21875 
L 18.296875 31.46875 
C 18.296875 35.96875 24.90625 40.875 30.90625 40.875 
C 36.296875 40.875 40 35.734375 40 28.09375 
L 40 10.046875 
C 40 3.703125 39.703125 3 36.296875 3 
L 31.703125 3 
L 31.703125 -0.109375 
C 41.703125 -0.109375 41.703125 -0.109375 44.203125 -0.109375 
C 46.703125 -0.109375 46.703125 -0.109375 56.703125 -0.109375 
L 56.703125 3 
L 52.09375 3 
C 48.703125 3 48.40625 3.703125 48.40625 10.046875 
L 48.40625 31.421875 
C 48.40625 35.9375 55 40.875 61 40.875 
C 66.40625 40.875 70.09375 35.796875 70.09375 28.21875 
L 70.09375 -0.109375 
C 76.203125 -0.109375 76.296875 -0.109375 78 -0.109375 
C 79.296875 -0.109375 79.296875 -0.109375 86.90625 -0.109375 
L 86.90625 3 
L 82.203125 3 
C 78.796875 3 78.5 3.703125 78.5 10.046875 
L 78.5 30.78125 
C 78.5 40.75 72.703125 47 63.5 47 
C 60 47 57.09375 46.09375 55.296875 44.484375 
L 47.703125 37.6875 
C 44.5 44.28125 40.40625 47 33.5 47 
C 29.796875 47 27 46.09375 25.203125 44.484375 
L 18.296875 38.078125 
L 18.296875 46.59375 
L 17.40625 47 
C 12.296875 44.890625 7.09375 43.484375 1.796875 42.890625 
z
" id="URW_Palladio_L_Roman-109"/>
       <path d="M 43.703125 6.984375 
L 42.40625 7.984375 
C 36 4.203125 33.703125 3.3125 29.40625 3.3125 
C 22.90625 3.3125 17.5 6.21875 14.703125 11.109375 
C 12.796875 14.390625 12.09375 17.203125 11.90625 23 
L 26.5 23 
C 33.40625 23 37.703125 23 44.59375 24.125 
C 44.703125 25.53125 44.796875 26.453125 44.796875 27.671875 
C 44.796875 39.375 37.40625 47 26.203125 47 
C 22.5 47 18.203125 45.6875 14.09375 43.28125 
C 5.90625 38.578125 2.59375 32.359375 2.59375 21.9375 
C 2.59375 15.625 4.09375 10.21875 6.796875 6.40625 
C 10.796875 1.109375 17.5 -2 25 -2 
C 28.703125 -2 32.40625 -1.203125 36.5 0.578125 
C 39.203125 1.6875 41.296875 2.984375 41.703125 3.59375 
z
M 35.90625 26.40625 
C 30.703125 26.40625 28.296875 26.40625 24.703125 26.40625 
C 20.09375 26.40625 17.5 26.40625 12.09375 26.90625 
C 12.09375 31.671875 12.5 33.890625 13.796875 36.515625 
C 15.90625 40.96875 20.203125 43.6875 25 43.6875 
C 28.296875 43.6875 30.90625 42.359375 32.703125 39.59375 
C 34.90625 36.234375 35.59375 33.265625 35.90625 26.40625 
z
" id="URW_Palladio_L_Roman-101"/>
       <path d="M 8.796875 -18 
C 15.90625 -18 16.09375 -18 18.5 -18 
C 20.90625 -18 21.40625 -18 28.203125 -18 
L 28.796875 -17.5 
L 28.796875 -14.890625 
L 28.40625 -14.390625 
L 24.59375 -14.390625 
C 21.90625 -14.390625 19.703125 -13.78125 18.5 -12.78125 
C 17.59375 -11.875 17.296875 -10.484375 17.296875 -7.171875 
C 17.296875 -7.078125 17.296875 -4.96875 17.203125 -1.953125 
L 17.203125 1.75 
L 17.203125 53.265625 
L 17.203125 56.96875 
C 17.296875 59.78125 17.296875 61.984375 17.296875 62.078125 
C 17.296875 65.390625 17.59375 66.890625 18.5 67.796875 
C 19.703125 68.796875 21.90625 69.390625 24.59375 69.390625 
L 28.40625 69.390625 
L 28.796875 69.890625 
L 28.796875 72.5 
L 28.203125 73 
C 21.203125 73 20.90625 73 18.5 73 
C 16.203125 73 15.703125 73 8.796875 73 
L 7.90625 71.796875 
C 8.5 69.296875 8.703125 65.984375 8.703125 58.28125 
C 8.703125 56.765625 8.703125 55.5625 8.796875 54.5625 
L 8.796875 53.265625 
L 8.796875 1.75 
L 8.796875 0.4375 
C 8.703125 -1.15625 8.703125 -1.265625 8.703125 -2.96875 
L 8.703125 -4.0625 
C 8.703125 -10.875 8.5 -13.6875 7.90625 -16.796875 
z
" id="URW_Palladio_L_Roman-91"/>
       <path d="M 4.09375 14.328125 
C 4.09375 7.421875 3.796875 4.40625 3 0.40625 
C 8.203125 -1.296875 12.09375 -2 16.703125 -2 
C 29.796875 -2 39.09375 5.015625 39.09375 14.828125 
C 39.09375 17.9375 38.203125 20.234375 36.296875 22.25 
C 33.703125 24.75 30.40625 25.953125 21.59375 27.65625 
C 13.40625 29.265625 10.703125 31.265625 10.703125 35.875 
C 10.703125 40.875 14.203125 43.6875 20.296875 43.6875 
C 27 43.6875 32.09375 40.1875 32.09375 35.46875 
L 32.09375 33.171875 
L 34.90625 33.171875 
C 35 38.984375 35.09375 41.375 35.40625 44.484375 
C 30.09375 46.296875 26.5 47 22.40625 47 
C 10.796875 47 3.703125 41.484375 3.703125 32.46875 
C 3.703125 27.65625 5.90625 24.25 10.5 22.140625 
C 13.203125 20.9375 18.5 19.34375 25.296875 17.828125 
C 29.796875 16.828125 31.703125 14.734375 31.703125 10.921875 
C 31.703125 5.515625 26.703125 1.703125 19.59375 1.703125 
C 12.296875 1.703125 7.09375 5.203125 7.09375 10.21875 
L 7.09375 14.328125 
z
" id="URW_Palladio_L_Roman-115"/>
       <path d="M 39.90625 31.15625 
C 39.90625 35.765625 40.40625 39.875 41.296875 43.484375 
C 37.296875 45.890625 33.796875 47 29.703125 47 
C 24.90625 47 19.296875 45.09375 13.296875 41.28125 
C 6.296875 36.875 2.59375 29.859375 2.59375 21.046875 
C 2.59375 7.515625 12.09375 -2 25.5 -2 
C 30.703125 -2 38.203125 -0.09375 39.203125 1.40625 
L 41.296875 4.609375 
L 40.296875 6.109375 
C 36.59375 4.109375 33.40625 3.203125 29.796875 3.203125 
C 18.703125 3.203125 11.40625 11.828125 11.40625 25.046875 
C 11.40625 35.765625 16.40625 41.78125 25.40625 41.78125 
C 29.796875 41.78125 34.59375 39.78125 36.40625 37.28125 
L 37.09375 31.15625 
z
" id="URW_Palladio_L_Roman-99"/>
       <path d="M 27.90625 47 
C 13.296875 47 3.203125 36.671875 3.203125 21.75 
C 3.203125 7.609375 12.09375 -2 25 -2 
C 40.40625 -2 51.40625 8.71875 51.40625 23.75 
C 51.40625 37.28125 41.59375 47 27.90625 47 
z
M 26.09375 43.6875 
C 35.296875 43.6875 42.09375 33.671875 42.09375 20.046875 
C 42.09375 8.515625 37 1.296875 28.90625 1.296875 
C 19.09375 1.296875 12.5 10.921875 12.5 25.15625 
C 12.5 37.171875 17.296875 43.6875 26.09375 43.6875 
z
" id="URW_Palladio_L_Roman-111"/>
       <path d="M 41.203125 43.78125 
C 35.59375 46.1875 32.796875 47 29.296875 47 
C 26.59375 47 24.203125 46.390625 21.703125 45.109375 
L 12.90625 40.515625 
C 7.203125 37.515625 3.5 30.234375 3.5 21.75 
C 3.5 13.765625 6.203125 7.1875 11.09375 3.1875 
C 14.5 0.296875 19.203125 -1 25.703125 -1 
C 27.703125 -1 30 -0.59375 30.5 -0.203125 
L 41.59375 9.109375 
L 41.09375 -0.109375 
C 46 -0.109375 47.59375 -0.109375 48.796875 -0.109375 
C 49.59375 -0.109375 51 -0.109375 53.09375 -0.109375 
C 53.796875 -0.109375 55.796875 -0.109375 57.90625 -0.109375 
L 57.90625 3 
L 53.296875 3 
C 49.90625 3 49.59375 3.703125 49.59375 10.046875 
L 49.59375 71.984375 
L 48.703125 72.796875 
C 44.296875 71.09375 41 70.28125 33.09375 69.078125 
L 33.09375 66.28125 
L 38.703125 66.28125 
C 40.5 66.28125 41.203125 65.171875 41.203125 62.15625 
z
M 41.203125 22.25 
C 41.203125 15.765625 41 14.78125 39.703125 12.484375 
C 36.90625 7.796875 32 4.71875 27.296875 4.71875 
C 18.5 4.71875 12.203125 13.1875 12.203125 25.046875 
C 12.203125 35.90625 17.59375 42.28125 26.59375 42.28125 
C 30.40625 42.28125 34.40625 40.984375 37.90625 38.59375 
C 40 37.203125 41.203125 35.90625 41.203125 35.09375 
z
" id="URW_Palladio_L_Roman-100"/>
       <path d="M 24.5 73 
C 17.40625 73 17.09375 73 14.796875 73 
C 12.40625 73 11.90625 73 5.09375 73 
L 4.5 72.5 
L 4.5 69.890625 
L 4.90625 69.390625 
L 8.703125 69.390625 
C 11.40625 69.390625 13.5 68.796875 14.703125 67.796875 
C 15.703125 66.890625 16 65.484375 16 62.078125 
C 16 61.78125 16 59.78125 16.09375 56.96875 
L 16.09375 53.265625 
L 16.09375 1.75 
L 16.09375 -1.953125 
C 16 -4.859375 16 -6.671875 16 -6.96875 
C 16 -10.375 15.703125 -11.875 14.703125 -12.78125 
C 13.5 -13.78125 11.40625 -14.390625 8.703125 -14.390625 
L 4.90625 -14.390625 
L 4.5 -14.890625 
L 4.5 -17.5 
L 5.09375 -18 
C 12.09375 -18 12.296875 -18 14.796875 -18 
C 17.09375 -18 17.59375 -18 24.5 -18 
L 25.40625 -16.796875 
C 24.796875 -14.390625 24.703125 -11.28125 24.59375 -3.5625 
C 24.59375 -2.15625 24.59375 -0.859375 24.5 0.4375 
L 24.5 1.75 
L 24.5 53.265625 
L 24.5 54.5625 
C 24.59375 55.671875 24.59375 56.96875 24.59375 58.375 
C 24.59375 66.09375 24.796875 69.390625 25.40625 71.796875 
z
" id="URW_Palladio_L_Roman-93"/>
      </defs>
      <use transform="scale(0.996264)" xlink:href="#URW_Palladio_L_Roman-84"/>
      <use transform="translate(55.591109 0)scale(0.996264)" xlink:href="#URW_Palladio_L_Roman-105"/>
      <use transform="translate(84.581471 0)scale(0.996264)" xlink:href="#URW_Palladio_L_Roman-109"/>
      <use transform="translate(172.551145 0)scale(0.996264)" xlink:href="#URW_Palladio_L_Roman-101"/>
      <use transform="translate(245.17804 0)scale(0.996264)" xlink:href="#URW_Palladio_L_Roman-91"/>
      <use transform="translate(278.35327 0)scale(0.996264)" xlink:href="#URW_Palladio_L_Roman-115"/>
      <use transform="translate(320.594736 0)scale(0.996264)" xlink:href="#URW_Palladio_L_Roman-101"/>
      <use transform="translate(368.315031 0)scale(0.996264)" xlink:href="#URW_Palladio_L_Roman-99"/>
      <use transform="translate(412.5486 0)scale(0.996264)" xlink:href="#URW_Palladio_L_Roman-111"/>
      <use transform="translate(466.94418 0)scale(0.996264)" xlink:href="#URW_Palladio_L_Roman-110"/>
      <use transform="translate(524.926241 0)scale(0.996264)" xlink:href="#URW_Palladio_L_Roman-100"/>
      <use transform="translate(585.797872 0)scale(0.996264)" xlink:href="#URW_Palladio_L_Roman-115"/>
      <use transform="translate(628.039338 0)scale(0.996264)" xlink:href="#URW_Palladio_L_Roman-93"/>
     </g>
    </g>
   </g>
   <g id="matplotlib.axis_4">
    <g id="ytick_4">
     <g id="line2d_34">
      <path clip-path="url(#p82713b05c6)" d="M 57.070851 300.543695 
L 568.48221 300.543695 
" style="fill:none;stroke:#000000;stroke-linecap:square;stroke-opacity:0.2;stroke-width:0.5;"/>
     </g>
     <g id="line2d_35">
      <g>
       <use style="fill-opacity:0.2;stroke:#000000;stroke-opacity:0.2;stroke-width:0.8;" x="57.070851" xlink:href="#me2edc14778" y="300.543695"/>
      </g>
     </g>
     <g id="text_13">
      <!-- $\mathdefault{−1}$ -->
      <g transform="translate(23.12516 305.533459)scale(0.14 -0.14)">
       <use transform="scale(1.038107)" xlink:href="#CMSY10-0"/>
       <use transform="translate(81.941696 0)scale(0.996264)" xlink:href="#URW_Palladio_L_Roman-49"/>
      </g>
     </g>
    </g>
    <g id="ytick_5">
     <g id="line2d_36">
      <path clip-path="url(#p82713b05c6)" d="M 57.070851 259.156364 
L 568.48221 259.156364 
" style="fill:none;stroke:#000000;stroke-linecap:square;stroke-opacity:0.2;stroke-width:0.5;"/>
     </g>
     <g id="line2d_37">
      <g>
       <use style="fill-opacity:0.2;stroke:#000000;stroke-opacity:0.2;stroke-width:0.8;" x="57.070851" xlink:href="#me2edc14778" y="259.156364"/>
      </g>
     </g>
     <g id="text_14">
      <!-- $\mathdefault{0}$ -->
      <g transform="translate(34.597002 264.146129)scale(0.14 -0.14)">
       <use transform="scale(0.996264)" xlink:href="#URW_Palladio_L_Roman-48"/>
      </g>
     </g>
    </g>
    <g id="ytick_6">
     <g id="line2d_38">
      <path clip-path="url(#p82713b05c6)" d="M 57.070851 217.769033 
L 568.48221 217.769033 
" style="fill:none;stroke:#000000;stroke-linecap:square;stroke-opacity:0.2;stroke-width:0.5;"/>
     </g>
     <g id="line2d_39">
      <g>
       <use style="fill-opacity:0.2;stroke:#000000;stroke-opacity:0.2;stroke-width:0.8;" x="57.070851" xlink:href="#me2edc14778" y="217.769033"/>
      </g>
     </g>
     <g id="text_15">
      <!-- $\mathdefault{1}$ -->
      <g transform="translate(34.597002 222.758798)scale(0.14 -0.14)">
       <use transform="scale(0.996264)" xlink:href="#URW_Palladio_L_Roman-49"/>
      </g>
     </g>
    </g>
    <g id="text_16">
     <!-- Output -->
     <g transform="translate(15.753876 278.553291)rotate(-90)scale(0.12 -0.12)">
      <defs>
       <path d="M 40.203125 71 
C 17.40625 71 2.203125 56.1875 2.203125 34.15625 
C 2.203125 13.109375 16.796875 -2 37 -2 
C 59.40625 -2 76.40625 14.71875 76.40625 36.734375 
C 76.40625 57.78125 62.40625 71 40.203125 71 
z
M 38.5 66.78125 
C 55.59375 66.78125 65.703125 54.578125 65.703125 33.75 
C 65.703125 13.90625 56.5 2.203125 41 2.203125 
C 24.203125 2.203125 12.90625 16.421875 12.90625 37.84375 
C 12.90625 56.359375 22.09375 66.78125 38.5 66.78125 
z
" id="URW_Palladio_L_Roman-79"/>
      </defs>
      <use transform="scale(0.996264)" xlink:href="#URW_Palladio_L_Roman-79"/>
      <use transform="translate(78.306281 0)scale(0.996264)" xlink:href="#URW_Palladio_L_Roman-117"/>
      <use transform="translate(138.380016 0)scale(0.996264)" xlink:href="#URW_Palladio_L_Roman-116"/>
      <use transform="translate(170.857104 0)scale(0.996264)" xlink:href="#URW_Palladio_L_Roman-112"/>
      <use transform="translate(230.731498 0)scale(0.996264)" xlink:href="#URW_Palladio_L_Roman-117"/>
      <use transform="translate(290.805232 0)scale(0.996264)" xlink:href="#URW_Palladio_L_Roman-116"/>
     </g>
    </g>
   </g>
   <g id="line2d_40">
    <path clip-path="url(#p82713b05c6)" d="M 57.070851 238.462699 
L 67.299078 238.462699 
L 67.299078 259.156364 
L 77.527305 259.156364 
L 77.527305 259.156364 
L 87.755532 259.156364 
L 87.755532 259.156364 
L 97.983759 259.156364 
L 97.983759 259.156364 
L 108.211986 259.156364 
L 108.211986 259.156364 
L 118.440214 259.156364 
L 118.440214 259.156364 
L 128.668441 259.156364 
L 128.668441 259.156364 
L 138.896668 259.156364 
L 138.896668 259.156364 
L 149.124895 259.156364 
L 149.124895 300.543695 
L 159.353122 300.543695 
L 159.353122 259.156364 
L 169.58135 259.156364 
L 169.58135 259.156364 
L 179.809577 259.156364 
L 179.809577 259.156364 
L 190.037804 259.156364 
L 190.037804 259.156364 
L 200.266031 259.156364 
L 200.266031 259.156364 
L 210.494258 259.156364 
L 210.494258 259.156364 
L 220.722486 259.156364 
L 220.722486 259.156364 
L 230.950713 259.156364 
L 230.950713 217.769033 
L 241.17894 217.769033 
L 241.17894 259.156364 
L 251.407167 259.156364 
L 251.407167 259.156364 
L 261.635394 259.156364 
L 261.635394 259.156364 
L 271.863621 259.156364 
L 271.863621 259.156364 
L 282.091849 259.156364 
L 282.091849 259.156364 
L 292.320076 259.156364 
L 292.320076 259.156364 
L 302.548303 259.156364 
L 302.548303 259.156364 
L 312.77653 259.156364 
L 312.77653 300.543695 
L 323.004757 300.543695 
L 323.004757 259.156364 
L 333.232985 259.156364 
L 333.232985 259.156364 
L 343.461212 259.156364 
L 343.461212 259.156364 
L 353.689439 259.156364 
L 353.689439 259.156364 
L 363.917666 259.156364 
L 363.917666 259.156364 
L 374.145893 259.156364 
L 374.145893 259.156364 
L 384.374121 259.156364 
L 384.374121 259.156364 
L 394.602348 259.156364 
L 394.602348 259.156364 
L 404.830575 259.156364 
L 404.830575 217.769033 
L 415.058802 217.769033 
L 415.058802 259.156364 
L 425.287029 259.156364 
L 425.287029 259.156364 
L 435.515256 259.156364 
L 435.515256 259.156364 
L 445.743484 259.156364 
L 445.743484 259.156364 
L 455.971711 259.156364 
L 455.971711 259.156364 
L 466.199938 259.156364 
L 466.199938 259.156364 
L 476.428165 259.156364 
L 476.428165 259.156364 
L 486.656392 259.156364 
L 486.656392 300.543695 
L 496.88462 300.543695 
L 496.88462 259.156364 
L 507.112847 259.156364 
L 507.112847 259.156364 
L 517.341074 259.156364 
L 517.341074 259.156364 
L 527.569301 259.156364 
L 527.569301 259.156364 
L 537.797528 259.156364 
L 537.797528 259.156364 
L 548.025756 259.156364 
L 548.025756 259.156364 
L 558.253983 259.156364 
L 558.253983 259.156364 
" style="fill:none;stroke:#6e3b87;stroke-linecap:square;stroke-width:3;"/>
    <defs>
     <path d="M 0 2.5 
C 0.663008 2.5 1.29895 2.236584 1.767767 1.767767 
C 2.236584 1.29895 2.5 0.663008 2.5 0 
C 2.5 -0.663008 2.236584 -1.29895 1.767767 -1.767767 
C 1.29895 -2.236584 0.663008 -2.5 0 -2.5 
C -0.663008 -2.5 -1.29895 -2.236584 -1.767767 -1.767767 
C -2.236584 -1.29895 -2.5 -0.663008 -2.5 0 
C -2.5 0.663008 -2.236584 1.29895 -1.767767 1.767767 
C -1.29895 2.236584 -0.663008 2.5 0 2.5 
z
" id="m8fd86048af"/>
    </defs>
    <g clip-path="url(#p82713b05c6)">
     <use style="fill:#6e3b87;" x="57.070851" xlink:href="#m8fd86048af" y="238.462699"/>
     <use style="fill:#6e3b87;" x="67.299078" xlink:href="#m8fd86048af" y="259.156364"/>
     <use style="fill:#6e3b87;" x="77.527305" xlink:href="#m8fd86048af" y="259.156364"/>
     <use style="fill:#6e3b87;" x="87.755532" xlink:href="#m8fd86048af" y="259.156364"/>
     <use style="fill:#6e3b87;" x="97.983759" xlink:href="#m8fd86048af" y="259.156364"/>
     <use style="fill:#6e3b87;" x="108.211986" xlink:href="#m8fd86048af" y="259.156364"/>
     <use style="fill:#6e3b87;" x="118.440214" xlink:href="#m8fd86048af" y="259.156364"/>
     <use style="fill:#6e3b87;" x="128.668441" xlink:href="#m8fd86048af" y="259.156364"/>
     <use style="fill:#6e3b87;" x="138.896668" xlink:href="#m8fd86048af" y="259.156364"/>
     <use style="fill:#6e3b87;" x="149.124895" xlink:href="#m8fd86048af" y="300.543695"/>
     <use style="fill:#6e3b87;" x="159.353122" xlink:href="#m8fd86048af" y="259.156364"/>
     <use style="fill:#6e3b87;" x="169.58135" xlink:href="#m8fd86048af" y="259.156364"/>
     <use style="fill:#6e3b87;" x="179.809577" xlink:href="#m8fd86048af" y="259.156364"/>
     <use style="fill:#6e3b87;" x="190.037804" xlink:href="#m8fd86048af" y="259.156364"/>
     <use style="fill:#6e3b87;" x="200.266031" xlink:href="#m8fd86048af" y="259.156364"/>
     <use style="fill:#6e3b87;" x="210.494258" xlink:href="#m8fd86048af" y="259.156364"/>
     <use style="fill:#6e3b87;" x="220.722486" xlink:href="#m8fd86048af" y="259.156364"/>
     <use style="fill:#6e3b87;" x="230.950713" xlink:href="#m8fd86048af" y="217.769033"/>
     <use style="fill:#6e3b87;" x="241.17894" xlink:href="#m8fd86048af" y="259.156364"/>
     <use style="fill:#6e3b87;" x="251.407167" xlink:href="#m8fd86048af" y="259.156364"/>
     <use style="fill:#6e3b87;" x="261.635394" xlink:href="#m8fd86048af" y="259.156364"/>
     <use style="fill:#6e3b87;" x="271.863621" xlink:href="#m8fd86048af" y="259.156364"/>
     <use style="fill:#6e3b87;" x="282.091849" xlink:href="#m8fd86048af" y="259.156364"/>
     <use style="fill:#6e3b87;" x="292.320076" xlink:href="#m8fd86048af" y="259.156364"/>
     <use style="fill:#6e3b87;" x="302.548303" xlink:href="#m8fd86048af" y="259.156364"/>
     <use style="fill:#6e3b87;" x="312.77653" xlink:href="#m8fd86048af" y="300.543695"/>
     <use style="fill:#6e3b87;" x="323.004757" xlink:href="#m8fd86048af" y="259.156364"/>
     <use style="fill:#6e3b87;" x="333.232985" xlink:href="#m8fd86048af" y="259.156364"/>
     <use style="fill:#6e3b87;" x="343.461212" xlink:href="#m8fd86048af" y="259.156364"/>
     <use style="fill:#6e3b87;" x="353.689439" xlink:href="#m8fd86048af" y="259.156364"/>
     <use style="fill:#6e3b87;" x="363.917666" xlink:href="#m8fd86048af" y="259.156364"/>
     <use style="fill:#6e3b87;" x="374.145893" xlink:href="#m8fd86048af" y="259.156364"/>
     <use style="fill:#6e3b87;" x="384.374121" xlink:href="#m8fd86048af" y="259.156364"/>
     <use style="fill:#6e3b87;" x="394.602348" xlink:href="#m8fd86048af" y="259.156364"/>
     <use style="fill:#6e3b87;" x="404.830575" xlink:href="#m8fd86048af" y="217.769033"/>
     <use style="fill:#6e3b87;" x="415.058802" xlink:href="#m8fd86048af" y="259.156364"/>
     <use style="fill:#6e3b87;" x="425.287029" xlink:href="#m8fd86048af" y="259.156364"/>
     <use style="fill:#6e3b87;" x="435.515256" xlink:href="#m8fd86048af" y="259.156364"/>
     <use style="fill:#6e3b87;" x="445.743484" xlink:href="#m8fd86048af" y="259.156364"/>
     <use style="fill:#6e3b87;" x="455.971711" xlink:href="#m8fd86048af" y="259.156364"/>
     <use style="fill:#6e3b87;" x="466.199938" xlink:href="#m8fd86048af" y="259.156364"/>
     <use style="fill:#6e3b87;" x="476.428165" xlink:href="#m8fd86048af" y="259.156364"/>
     <use style="fill:#6e3b87;" x="486.656392" xlink:href="#m8fd86048af" y="300.543695"/>
     <use style="fill:#6e3b87;" x="496.88462" xlink:href="#m8fd86048af" y="259.156364"/>
     <use style="fill:#6e3b87;" x="507.112847" xlink:href="#m8fd86048af" y="259.156364"/>
     <use style="fill:#6e3b87;" x="517.341074" xlink:href="#m8fd86048af" y="259.156364"/>
     <use style="fill:#6e3b87;" x="527.569301" xlink:href="#m8fd86048af" y="259.156364"/>
     <use style="fill:#6e3b87;" x="537.797528" xlink:href="#m8fd86048af" y="259.156364"/>
     <use style="fill:#6e3b87;" x="548.025756" xlink:href="#m8fd86048af" y="259.156364"/>
     <use style="fill:#6e3b87;" x="558.253983" xlink:href="#m8fd86048af" y="259.156364"/>
    </g>
   </g>
   <g id="legend_2">
    <g id="patch_6">
     <path d="M 66.870851 332.861659 
L 277.781963 332.861659 
Q 280.581963 332.861659 280.581963 330.061659 
L 280.581963 306.872087 
Q 280.581963 304.072087 277.781963 304.072087 
L 66.870851 304.072087 
Q 64.070851 304.072087 64.070851 306.872087 
L 64.070851 330.061659 
Q 64.070851 332.861659 66.870851 332.861659 
z
" style="fill:#ffffff;opacity:0.95;stroke:#cccccc;stroke-linejoin:miter;stroke-width:0.5;"/>
    </g>
    <g id="line2d_41">
     <path d="M 69.670851 317.480807 
L 83.670851 317.480807 
" style="fill:none;stroke:#6e3b87;stroke-linecap:square;stroke-width:3;"/>
    </g>
    <g id="line2d_42">
     <g>
      <use style="fill:#6e3b87;" x="76.670851" xlink:href="#m8fd86048af" y="317.480807"/>
     </g>
    </g>
    <g id="text_17">
     <!-- $y[n] = +\frac{1}{2}\cdot x[n] - \frac{1}{2}\cdot x[n-1]$ -->
     <g transform="translate(94.870851 322.380807)scale(0.14 -0.14)">
      <defs>
       <path d="M -0.703125 -17.546875 
C -0.796875 -18.234375 -0.796875 -18.828125 -0.796875 -19.328125 
C -0.796875 -23.5625 2.90625 -27 7.40625 -27 
C 18 -27 29 -14.734375 34.90625 3.5625 
L 49 47.09375 
L 47.90625 48 
C 45 46.90625 42.703125 46.296875 40.5 46.109375 
L 37 32.984375 
C 35.796875 28.3125 32.296875 21.0625 29 16.1875 
C 25.5 11.109375 20.59375 6.75 18.40625 6.75 
C 17.203125 6.75 16.296875 9.046875 16.40625 11.515625 
L 16.5 12.8125 
L 18 32.09375 
C 18.203125 35.1875 18.40625 38.953125 18.40625 41.734375 
C 18.40625 46.203125 17.703125 48 16 48 
C 14.703125 48 13.296875 47.296875 8.5 44.015625 
L 0.296875 38.453125 
L 1.40625 36.671875 
L 6.40625 39.640625 
L 6.796875 39.953125 
C 7.796875 40.546875 8.5 40.84375 8.90625 40.84375 
C 10.296875 40.84375 11.09375 38.953125 11.09375 35.6875 
C 11.09375 35.578125 11.09375 34.984375 11 34.1875 
L 9.296875 10.03125 
L 9.203125 6.046875 
C 9.203125 1.890625 11 -1 13.5 -1 
C 17.203125 -1 25.59375 7.453125 33.09375 18.671875 
L 28.203125 1.8125 
C 23.09375 -15.625 18.09375 -22.8125 11.09375 -22.8125 
C 7.59375 -22.8125 4.90625 -20.171875 4.90625 -16.75 
C 4.90625 -16.25 5 -15.46875 5.09375 -14.59375 
L 4.09375 -14.1875 
z
" id="URW_Palladio_L_Italic-121"/>
       <path d="M 68.703125 32 
C 70.203125 32 72.09375 32 72.09375 34.015625 
C 72.09375 36.015625 70.203125 36.015625 68.796875 36.015625 
L 8.90625 36.015625 
C 7.5 36.015625 5.59375 36.015625 5.59375 34.015625 
C 5.59375 32 7.5 32 9 32 
z
M 68.796875 13 
C 70.203125 13 72.09375 13 72.09375 15.015625 
C 72.09375 17.015625 70.203125 17.015625 68.703125 17.015625 
L 9 17.015625 
C 7.5 17.015625 5.59375 17.015625 5.59375 15.015625 
C 5.59375 13 7.5 13 8.90625 13 
z
" id="CMR10-61"/>
       <path d="M 40.90625 23 
L 68.796875 23 
C 70.203125 23 72.09375 23 72.09375 25 
C 72.09375 27.015625 70.203125 27.015625 68.796875 27.015625 
L 40.90625 27.015625 
L 40.90625 55.1875 
C 40.90625 56.59375 40.90625 58.5 38.90625 58.5 
C 36.90625 58.5 36.90625 56.59375 36.90625 55.1875 
L 36.90625 27.015625 
L 8.90625 27.015625 
C 7.5 27.015625 5.59375 27.015625 5.59375 25 
C 5.59375 23 7.5 23 8.90625 23 
L 36.90625 23 
L 36.90625 -5.171875 
C 36.90625 -6.578125 36.90625 -8.5 38.90625 -8.5 
C 40.90625 -8.5 40.90625 -6.578125 40.90625 -5.171875 
z
" id="CMR10-43"/>
       <path d="M 19.203125 25.296875 
C 19.203125 28.203125 16.796875 30.59375 13.90625 30.59375 
C 11 30.59375 8.59375 28.203125 8.59375 25.296875 
C 8.59375 22.390625 11 20 13.90625 20 
C 16.796875 20 19.203125 22.390625 19.203125 25.296875 
z
" id="CMSY10-1"/>
      </defs>
      <use transform="scale(0.996264)" xlink:href="#URW_Palladio_L_Italic-121"/>
      <use transform="translate(52.303815 0)scale(1.038107)" xlink:href="#CMR10-91"/>
      <use transform="translate(83.586514 0)scale(0.996264)" xlink:href="#URW_Palladio_L_Italic-110"/>
      <use transform="translate(141.469474 0)scale(1.038107)" xlink:href="#CMR10-93"/>
      <use transform="translate(200.426106 0)scale(1.038107)" xlink:href="#CMR10-61"/>
      <use transform="translate(311.287035 0)scale(1.038107)" xlink:href="#CMR10-43"/>
      <use transform="translate(394.424245 39.252796)scale(0.757155)" xlink:href="#URW_Palladio_L_Roman-49"/>
      <use transform="translate(394.424245 -34.371108)scale(0.757155)" xlink:href="#URW_Palladio_L_Roman-50"/>
      <use transform="translate(454.09457 0)scale(1.038107)" xlink:href="#CMSY10-1"/>
      <use transform="translate(506.442698 0)scale(0.996264)" xlink:href="#URW_Palladio_L_Italic-120"/>
      <use transform="translate(559.741834 0)scale(1.038107)" xlink:href="#CMR10-91"/>
      <use transform="translate(591.024533 0)scale(0.996264)" xlink:href="#URW_Palladio_L_Italic-110"/>
      <use transform="translate(648.907494 0)scale(1.038107)" xlink:href="#CMR10-93"/>
      <use transform="translate(699.561945 0)scale(1.038107)" xlink:href="#CMSY10-0"/>
      <use transform="translate(802.070908 39.252796)scale(0.757155)" xlink:href="#URW_Palladio_L_Roman-49"/>
      <use transform="translate(802.070908 -34.371108)scale(0.757155)" xlink:href="#URW_Palladio_L_Roman-50"/>
      <use transform="translate(861.741233 0)scale(1.038107)" xlink:href="#CMSY10-1"/>
      <use transform="translate(914.089362 0)scale(0.996264)" xlink:href="#URW_Palladio_L_Italic-120"/>
      <use transform="translate(967.388498 0)scale(1.038107)" xlink:href="#CMR10-91"/>
      <use transform="translate(998.671197 0)scale(0.996264)" xlink:href="#URW_Palladio_L_Italic-110"/>
      <use transform="translate(1075.92591 0)scale(1.038107)" xlink:href="#CMSY10-0"/>
      <use transform="translate(1177.239359 0)scale(0.996264)" xlink:href="#URW_Palladio_L_Roman-49"/>
      <use transform="translate(1228.297859 0)scale(1.038107)" xlink:href="#CMR10-93"/>
      <path d="M 394.424245 22.914087 
L 432.282003 22.914087 
L 432.282003 26.899128 
L 394.424245 26.899128 
L 394.424245 22.914087 
z
"/>
      <path d="M 802.070908 22.914087 
L 839.928667 22.914087 
L 839.928667 26.899128 
L 802.070908 26.899128 
L 802.070908 22.914087 
z
"/>
     </g>
    </g>
   </g>
  </g>
 </g>
 <defs>
  <clipPath id="p5b135aad8d">
   <rect height="161.410589" width="511.411359" x="57.070851" y="7.2"/>
  </clipPath>
  <clipPath id="p82713b05c6">
   <rect height="161.410589" width="511.411359" x="57.070851" y="178.451069"/>
  </clipPath>
 </defs>
</svg>
