<?xml version="1.0" encoding="utf-8" standalone="no"?>
<!DOCTYPE svg PUBLIC "-//W3C//DTD SVG 1.1//EN"
  "http://www.w3.org/Graphics/SVG/1.1/DTD/svg11.dtd">
<svg height="440.392788pt" version="1.1" viewBox="0 0 584.39952 440.392788" width="584.39952pt" xmlns="http://www.w3.org/2000/svg" xmlns:xlink="http://www.w3.org/1999/xlink">
 <metadata>
  <rdf:RDF xmlns:cc="http://creativecommons.org/ns#" xmlns:dc="http://purl.org/dc/elements/1.1/" xmlns:rdf="http://www.w3.org/1999/02/22-rdf-syntax-ns#">
   <cc:Work>
    <dc:type rdf:resource="http://purl.org/dc/dcmitype/StillImage"/>
    <dc:date>2020-08-12T07:52:34.335172</dc:date>
    <dc:format>image/svg+xml</dc:format>
    <dc:creator>
     <cc:Agent>
      <dc:title>Matplotlib v3.3.0rc1.post382+g019a75231, https://matplotlib.org/</dc:title>
     </cc:Agent>
    </dc:creator>
   </cc:Work>
  </rdf:RDF>
 </metadata>
 <defs>
  <style type="text/css">*{stroke-linecap:butt;stroke-linejoin:round;}</style>
 </defs>
 <g id="figure_1">
  <g id="patch_1">
   <path d="M 0 440.392788 
L 584.39952 440.392788 
L 584.39952 0 
L 0 0 
z
" style="fill:none;"/>
  </g>
  <g id="axes_1">
   <g id="patch_2">
    <path d="M 57.330847 188.990385 
L 570.225672 188.990385 
L 570.225672 10.007041 
L 57.330847 10.007041 
z
" style="fill:none;"/>
   </g>
   <g id="line2d_1">
    <path clip-path="url(#pdba2710fcc)" d="M 57.330847 77.671476 
L 58.358692 77.846296 
L 59.386537 78.193527 
L 60.414383 78.709003 
L 61.442228 79.387243 
L 62.470073 80.221501 
L 64.525764 82.325173 
L 66.581455 84.943468 
L 68.637145 87.984627 
L 71.720681 93.109756 
L 79.943444 107.334496 
L 81.999135 110.401657 
L 84.054825 113.072013 
L 86.110516 115.266656 
L 88.166207 116.923113 
L 89.194052 117.534933 
L 90.221898 117.997084 
L 91.249743 118.307052 
L 92.277588 118.463565 
L 93.305434 118.466593 
L 94.333279 118.317339 
L 95.361124 118.018216 
L 96.38897 117.572825 
L 97.416815 116.985909 
L 99.472506 115.411914 
L 101.528196 113.355089 
L 103.583887 110.888767 
L 105.639578 108.098181 
L 108.723114 103.512113 
L 114.890186 94.152657 
L 116.945876 91.342406 
L 119.001567 88.837208 
L 121.057258 86.712163 
L 123.112948 85.029041 
L 125.168639 83.834526 
L 126.196484 83.43064 
L 127.22433 83.158964 
L 128.252175 83.020621 
L 129.28002 83.015655 
L 130.307866 83.143042 
L 131.335711 83.400701 
L 132.363557 83.785523 
L 134.419247 84.919277 
L 136.474938 86.500301 
L 138.530629 88.471013 
L 140.586319 90.762314 
L 143.669855 94.627385 
L 151.892618 105.372284 
L 153.948309 107.692824 
L 156.003999 109.7149 
L 158.05969 111.378728 
L 160.115381 112.636908 
L 162.171071 113.45574 
L 163.198917 113.693837 
L 164.226762 113.816085 
L 165.254607 113.822427 
L 166.282453 113.713741 
L 168.338143 113.159339 
L 170.393834 112.177771 
L 172.449525 110.807163 
L 174.505216 109.097454 
L 176.560906 107.108608 
L 179.644442 103.752145 
L 187.867205 94.413589 
L 189.922896 92.395162 
L 191.978586 90.635582 
L 194.034277 89.186889 
L 196.089968 88.090368 
L 198.145658 87.375412 
L 200.201349 87.058764 
L 202.25704 87.14419 
L 204.31273 87.622562 
L 206.368421 88.472359 
L 208.424112 89.660545 
L 210.479802 91.143811 
L 212.535493 92.87012 
L 215.619029 95.784894 
L 223.841792 103.901155 
L 225.897483 105.656796 
L 227.953173 107.187948 
L 230.008864 108.449317 
L 232.064555 109.404939 
L 234.120245 110.029181 
L 236.175936 110.307396 
L 238.231627 110.236213 
L 240.287317 109.823465 
L 242.343008 109.087762 
L 244.398699 108.057728 
L 246.454389 106.77092 
L 249.537925 104.459739 
L 253.649307 100.946718 
L 258.788534 96.509648 
L 261.87207 94.160302 
L 263.92776 92.827929 
L 265.983451 91.72967 
L 268.039142 90.89685 
L 270.094832 90.351825 
L 272.150523 90.107408 
L 274.206214 90.166615 
L 276.261904 90.522722 
L 278.317595 91.159638 
L 280.373286 92.052565 
L 282.428976 93.168928 
L 285.512512 95.175219 
L 289.623894 98.226662 
L 294.76312 102.083241 
L 297.846656 104.126515 
L 299.902347 105.28591 
L 301.958038 106.242146 
L 304.013729 106.967936 
L 306.069419 107.443785 
L 308.12511 107.658484 
L 310.180801 107.609338 
L 312.236491 107.302116 
L 314.292182 106.750731 
L 316.347873 105.976668 
L 318.403563 105.008178 
L 321.487099 103.266562 
L 325.598481 100.616057 
L 330.737707 97.264033 
L 333.821243 95.486963 
L 335.876934 94.478092 
L 337.932625 93.645519 
L 339.988315 93.013011 
L 342.044006 92.597568 
L 344.099697 92.408996 
L 346.155388 92.449701 
L 348.211078 92.714734 
L 350.266769 93.192065 
L 352.32246 93.863081 
L 355.405996 95.177773 
L 358.489532 96.769213 
L 369.79583 102.97639 
L 372.879366 104.237273 
L 374.935057 104.877559 
L 376.990748 105.335981 
L 379.046438 105.600804 
L 381.102129 105.666657 
L 383.15782 105.534605 
L 385.21351 105.212014 
L 387.269201 104.712213 
L 390.352737 103.672629 
L 393.436273 102.360236 
L 398.5755 99.843126 
L 403.714727 97.358066 
L 406.798263 96.086802 
L 409.881799 95.088987 
L 411.937489 94.608631 
L 413.99318 94.291992 
L 416.048871 94.146572 
L 418.104561 94.174286 
L 420.160252 94.371492 
L 422.215943 94.7292 
L 425.299479 95.534903 
L 428.383015 96.604001 
L 432.494396 98.294937 
L 439.689314 101.351788 
L 442.77285 102.457626 
L 445.856386 103.326241 
L 448.939922 103.901354 
L 450.995612 104.103924 
L 453.051303 104.15629 
L 456.134839 103.956086 
L 459.218375 103.442904 
L 462.301911 102.660767 
L 466.413292 101.308984 
L 478.747437 96.93267 
L 481.830973 96.17653 
L 484.914509 95.675193 
L 487.998045 95.458337 
L 491.081581 95.534653 
L 494.165117 95.891729 
L 497.248653 96.497434 
L 501.360034 97.60498 
L 507.527106 99.593543 
L 512.666333 101.182783 
L 515.749869 101.965707 
L 518.833405 102.554154 
L 521.916941 102.910801 
L 525.000477 103.015737 
L 528.084013 102.867469 
L 531.167549 102.482589 
L 534.251085 101.894158 
L 538.362466 100.875346 
L 550.69661 97.568885 
L 553.780146 96.995898 
L 556.863682 96.61495 
L 559.947219 96.448629 
L 563.030755 96.503687 
L 566.114291 96.770933 
L 569.197827 97.226272 
L 570.225672 97.413783 
L 570.225672 97.413783 
" style="fill:none;stroke:#0271ae;stroke-linecap:square;stroke-width:3;"/>
   </g>
   <g id="line2d_2">
    <path clip-path="url(#pdba2710fcc)" d="M 57.330847 77.671476 
L 62.470073 77.382141 
L 67.6093 77.313133 
L 72.748527 77.473316 
L 77.887753 77.869488 
L 83.02698 78.506231 
L 88.166207 79.385785 
L 93.305434 80.507935 
L 98.44466 81.869927 
L 103.583887 83.466398 
L 108.723114 85.289335 
L 113.86234 87.328069 
L 120.029412 90.040459 
L 126.196484 93.016315 
L 132.363557 96.222454 
L 139.558474 100.202868 
L 148.809082 105.5936 
L 175.533061 121.393107 
L 182.727978 125.286163 
L 188.89505 128.365085 
L 194.034277 130.705147 
L 199.173504 132.805722 
L 204.31273 134.636017 
L 208.424112 135.886024 
L 212.535493 136.93041 
L 216.646875 137.756159 
L 220.758256 138.351327 
L 224.869637 138.705158 
L 228.981019 138.808183 
L 233.0924 138.65233 
L 237.203781 138.23101 
L 241.315163 137.539209 
L 245.426544 136.573571 
L 249.537925 135.332461 
L 253.649307 133.816035 
L 257.760688 132.026286 
L 261.87207 129.967088 
L 265.983451 127.644222 
L 270.094832 125.0654 
L 274.206214 122.240263 
L 278.317595 119.18038 
L 283.456822 115.046116 
L 288.596048 110.59666 
L 293.735275 105.866842 
L 299.902347 99.876237 
L 307.097265 92.548671 
L 317.375718 81.701855 
L 331.765553 66.515468 
L 338.96047 59.272202 
L 345.127542 53.416755 
L 350.266769 48.865022 
L 354.37815 45.480556 
L 358.489532 42.356307 
L 362.600913 39.520757 
L 366.712294 37.001304 
L 369.79583 35.334907 
L 372.879366 33.871487 
L 375.962902 32.62098 
L 379.046438 31.592742 
L 382.129974 30.795508 
L 385.21351 30.237339 
L 388.297047 29.925583 
L 391.380583 29.86683 
L 394.464119 30.066867 
L 397.547655 30.530645 
L 400.631191 31.262236 
L 403.714727 32.264805 
L 406.798263 33.54057 
L 409.881799 35.090781 
L 412.965335 36.91569 
L 416.048871 39.014525 
L 419.132407 41.385479 
L 422.215943 44.025685 
L 425.299479 46.93121 
L 428.383015 50.09704 
L 431.466551 53.517082 
L 435.577932 58.460014 
L 439.689314 63.821991 
L 443.800695 69.579631 
L 447.912076 75.706225 
L 453.051303 83.837381 
L 458.19053 92.432631 
L 464.357602 103.256789 
L 471.552519 116.411802 
L 482.858818 137.665509 
L 493.137271 156.842514 
L 499.304343 167.927468 
L 504.44357 176.760786 
L 509.582797 185.113509 
L 513.694178 191.379026 
L 517.80556 197.216925 
L 520.889096 201.283689 
L 523.972632 205.059794 
L 527.056168 208.524738 
L 530.139704 211.658729 
L 533.22324 214.442778 
L 536.306776 216.85878 
L 539.390312 218.889611 
L 541.446002 220.021535 
L 543.501693 220.970628 
L 545.557384 221.732646 
L 547.613074 222.303594 
L 549.668765 222.679733 
L 551.724456 222.857593 
L 553.780146 222.833979 
L 555.835837 222.605985 
L 557.891528 222.171001 
L 559.947219 221.526717 
L 562.002909 220.671141 
L 564.0586 219.602598 
L 566.114291 218.319742 
L 568.169981 216.821561 
L 570.225672 215.107386 
L 570.225672 215.107386 
" style="fill:none;stroke:#dc2830;stroke-linecap:square;stroke-width:3;"/>
   </g>
   <g id="line2d_3">
    <path clip-path="url(#pdba2710fcc)" d="M 57.330847 77.671476 
L 60.414383 77.827451 
L 63.497919 78.293149 
L 66.581455 79.061913 
L 69.664991 80.122757 
L 72.748527 81.460518 
L 75.832063 83.056078 
L 78.915599 84.886634 
L 83.02698 87.647267 
L 87.138362 90.708739 
L 92.277588 94.839674 
L 109.750959 109.242419 
L 113.86234 112.220735 
L 117.973722 114.876114 
L 121.057258 116.614814 
L 124.140794 118.108893 
L 127.22433 119.337 
L 130.307866 120.28158 
L 133.391402 120.929136 
L 136.474938 121.270411 
L 139.558474 121.300529 
L 142.64201 121.019059 
L 145.725546 120.430023 
L 148.809082 119.541841 
L 151.892618 118.367206 
L 154.976154 116.922906 
L 158.05969 115.229582 
L 161.143226 113.311435 
L 165.254607 110.451977 
L 169.365989 107.31448 
L 175.533061 102.262565 
L 187.867205 91.983163 
L 191.978586 88.823971 
L 196.089968 85.935748 
L 199.173504 83.99182 
L 202.25704 82.269514 
L 205.340576 80.793446 
L 208.424112 79.584709 
L 211.507648 78.660581 
L 214.591184 78.034267 
L 217.67472 77.71472 
L 220.758256 77.706506 
L 223.841792 78.009742 
L 226.925328 78.620095 
L 230.008864 79.528842 
L 233.0924 80.722995 
L 236.175936 82.185488 
L 239.259472 83.895418 
L 242.343008 85.828348 
L 246.454389 88.704319 
L 250.565771 91.854296 
L 256.732843 96.916707 
L 269.066987 107.186018 
L 273.178368 110.332896 
L 277.28975 113.204758 
L 280.373286 115.134005 
L 283.456822 116.839795 
L 286.540358 118.297749 
L 289.623894 119.48703 
L 292.70743 120.390642 
L 295.790966 120.99567 
L 298.874502 121.293466 
L 301.958038 121.279776 
L 305.041574 120.954795 
L 308.12511 120.323166 
L 311.208646 119.393919 
L 314.292182 118.180332 
L 317.375718 116.69975 
L 320.459254 114.973335 
L 323.54279 113.025758 
L 327.654171 110.133477 
L 331.765553 106.971241 
L 337.932625 101.89869 
L 350.266769 91.640194 
L 354.37815 88.505852 
L 358.489532 85.650554 
L 361.573068 83.736124 
L 364.656604 82.04697 
L 367.74014 80.607233 
L 370.823676 79.43749 
L 373.907212 78.554459 
L 376.990748 77.97076 
L 380.074284 77.694735 
L 383.15782 77.730328 
L 386.241356 78.077032 
L 389.324892 78.729891 
L 392.408428 79.679574 
L 395.491964 80.912509 
L 398.5755 82.411075 
L 401.659036 84.153855 
L 404.742572 86.115941 
L 408.853953 89.024329 
L 412.965335 92.1986 
L 419.132407 97.280933 
L 430.438706 106.712424 
L 435.577932 110.649477 
L 439.689314 113.48801 
L 442.77285 115.387489 
L 445.856386 117.059888 
L 448.939922 118.481305 
L 452.023458 119.631427 
L 455.106994 120.493815 
L 458.19053 121.056144 
L 461.274066 121.310379 
L 464.357602 121.252885 
L 467.441138 120.884483 
L 470.524674 120.21044 
L 473.60821 119.240388 
L 476.691746 117.988192 
L 479.775282 116.471747 
L 482.858818 114.712726 
L 485.942354 112.736269 
L 490.053735 109.811979 
L 495.192962 105.79783 
L 502.387879 99.796446 
L 510.610642 92.936956 
L 515.749869 88.944046 
L 519.86125 86.043686 
L 522.944786 84.088837 
L 526.028322 82.354224 
L 529.111858 80.864637 
L 532.195394 79.641366 
L 535.27893 78.701892 
L 538.362466 78.059643 
L 541.446002 77.723797 
L 544.529538 77.699155 
L 547.613074 77.986069 
L 550.69661 78.580437 
L 553.780146 79.473767 
L 556.863682 80.653289 
L 559.947219 82.102147 
L 563.030755 83.799634 
L 566.114291 85.721489 
L 570.225672 88.585094 
L 570.225672 88.585094 
" style="fill:none;stroke:#ffc438;stroke-linecap:square;stroke-width:3;"/>
   </g>
   <g id="matplotlib.axis_1">
    <g id="xtick_1">
     <g id="line2d_4">
      <path clip-path="url(#pdba2710fcc)" d="M 57.330847 188.990385 
L 57.330847 10.007041 
" style="fill:none;stroke:#000000;stroke-linecap:square;stroke-opacity:0.2;stroke-width:0.5;"/>
     </g>
     <g id="line2d_5">
      <defs>
       <path d="M 0 0 
L 0 3.5 
" id="m3414534539" style="stroke:#000000;stroke-opacity:0.2;stroke-width:0.8;"/>
      </defs>
      <g>
       <use style="fill-opacity:0.2;stroke:#000000;stroke-opacity:0.2;stroke-width:0.8;" x="57.330847" xlink:href="#m3414534539" y="188.990385"/>
      </g>
     </g>
    </g>
    <g id="xtick_2">
     <g id="line2d_6">
      <path clip-path="url(#pdba2710fcc)" d="M 84.325311 188.990385 
L 84.325311 10.007041 
" style="fill:none;stroke:#000000;stroke-linecap:square;stroke-opacity:0.2;stroke-width:0.5;"/>
     </g>
     <g id="line2d_7">
      <g>
       <use style="fill-opacity:0.2;stroke:#000000;stroke-opacity:0.2;stroke-width:0.8;" x="84.325311" xlink:href="#m3414534539" y="188.990385"/>
      </g>
     </g>
    </g>
    <g id="xtick_3">
     <g id="line2d_8">
      <path clip-path="url(#pdba2710fcc)" d="M 138.31424 188.990385 
L 138.31424 10.007041 
" style="fill:none;stroke:#000000;stroke-linecap:square;stroke-opacity:0.2;stroke-width:0.5;"/>
     </g>
     <g id="line2d_9">
      <g>
       <use style="fill-opacity:0.2;stroke:#000000;stroke-opacity:0.2;stroke-width:0.8;" x="138.31424" xlink:href="#m3414534539" y="188.990385"/>
      </g>
     </g>
    </g>
    <g id="xtick_4">
     <g id="line2d_10">
      <path clip-path="url(#pdba2710fcc)" d="M 192.303169 188.990385 
L 192.303169 10.007041 
" style="fill:none;stroke:#000000;stroke-linecap:square;stroke-opacity:0.2;stroke-width:0.5;"/>
     </g>
     <g id="line2d_11">
      <g>
       <use style="fill-opacity:0.2;stroke:#000000;stroke-opacity:0.2;stroke-width:0.8;" x="192.303169" xlink:href="#m3414534539" y="188.990385"/>
      </g>
     </g>
    </g>
    <g id="xtick_5">
     <g id="line2d_12">
      <path clip-path="url(#pdba2710fcc)" d="M 246.292098 188.990385 
L 246.292098 10.007041 
" style="fill:none;stroke:#000000;stroke-linecap:square;stroke-opacity:0.2;stroke-width:0.5;"/>
     </g>
     <g id="line2d_13">
      <g>
       <use style="fill-opacity:0.2;stroke:#000000;stroke-opacity:0.2;stroke-width:0.8;" x="246.292098" xlink:href="#m3414534539" y="188.990385"/>
      </g>
     </g>
    </g>
    <g id="xtick_6">
     <g id="line2d_14">
      <path clip-path="url(#pdba2710fcc)" d="M 300.281027 188.990385 
L 300.281027 10.007041 
" style="fill:none;stroke:#000000;stroke-linecap:square;stroke-opacity:0.2;stroke-width:0.5;"/>
     </g>
     <g id="line2d_15">
      <g>
       <use style="fill-opacity:0.2;stroke:#000000;stroke-opacity:0.2;stroke-width:0.8;" x="300.281027" xlink:href="#m3414534539" y="188.990385"/>
      </g>
     </g>
    </g>
    <g id="xtick_7">
     <g id="line2d_16">
      <path clip-path="url(#pdba2710fcc)" d="M 354.269956 188.990385 
L 354.269956 10.007041 
" style="fill:none;stroke:#000000;stroke-linecap:square;stroke-opacity:0.2;stroke-width:0.5;"/>
     </g>
     <g id="line2d_17">
      <g>
       <use style="fill-opacity:0.2;stroke:#000000;stroke-opacity:0.2;stroke-width:0.8;" x="354.269956" xlink:href="#m3414534539" y="188.990385"/>
      </g>
     </g>
    </g>
    <g id="xtick_8">
     <g id="line2d_18">
      <path clip-path="url(#pdba2710fcc)" d="M 408.258885 188.990385 
L 408.258885 10.007041 
" style="fill:none;stroke:#000000;stroke-linecap:square;stroke-opacity:0.2;stroke-width:0.5;"/>
     </g>
     <g id="line2d_19">
      <g>
       <use style="fill-opacity:0.2;stroke:#000000;stroke-opacity:0.2;stroke-width:0.8;" x="408.258885" xlink:href="#m3414534539" y="188.990385"/>
      </g>
     </g>
    </g>
    <g id="xtick_9">
     <g id="line2d_20">
      <path clip-path="url(#pdba2710fcc)" d="M 462.247814 188.990385 
L 462.247814 10.007041 
" style="fill:none;stroke:#000000;stroke-linecap:square;stroke-opacity:0.2;stroke-width:0.5;"/>
     </g>
     <g id="line2d_21">
      <g>
       <use style="fill-opacity:0.2;stroke:#000000;stroke-opacity:0.2;stroke-width:0.8;" x="462.247814" xlink:href="#m3414534539" y="188.990385"/>
      </g>
     </g>
    </g>
    <g id="xtick_10">
     <g id="line2d_22">
      <path clip-path="url(#pdba2710fcc)" d="M 516.236743 188.990385 
L 516.236743 10.007041 
" style="fill:none;stroke:#000000;stroke-linecap:square;stroke-opacity:0.2;stroke-width:0.5;"/>
     </g>
     <g id="line2d_23">
      <g>
       <use style="fill-opacity:0.2;stroke:#000000;stroke-opacity:0.2;stroke-width:0.8;" x="516.236743" xlink:href="#m3414534539" y="188.990385"/>
      </g>
     </g>
    </g>
    <g id="xtick_11">
     <g id="line2d_24">
      <path clip-path="url(#pdba2710fcc)" d="M 570.225672 188.990385 
L 570.225672 10.007041 
" style="fill:none;stroke:#000000;stroke-linecap:square;stroke-opacity:0.2;stroke-width:0.5;"/>
     </g>
     <g id="line2d_25">
      <g>
       <use style="fill-opacity:0.2;stroke:#000000;stroke-opacity:0.2;stroke-width:0.8;" x="570.225672" xlink:href="#m3414534539" y="188.990385"/>
      </g>
     </g>
    </g>
   </g>
   <g id="matplotlib.axis_2">
    <g id="ytick_1">
     <g id="line2d_26">
      <path clip-path="url(#pdba2710fcc)" d="M 57.330847 186.807661 
L 570.225672 186.807661 
" style="fill:none;stroke:#000000;stroke-linecap:square;stroke-opacity:0.2;stroke-width:0.5;"/>
     </g>
     <g id="line2d_27">
      <defs>
       <path d="M 0 0 
L -3.5 0 
" id="mc4dde66ba0" style="stroke:#000000;stroke-opacity:0.2;stroke-width:0.8;"/>
      </defs>
      <g>
       <use style="fill-opacity:0.2;stroke:#000000;stroke-opacity:0.2;stroke-width:0.8;" x="57.330847" xlink:href="#mc4dde66ba0" y="186.807661"/>
      </g>
     </g>
     <g id="text_1">
      <!-- $\mathdefault{−4}$ -->
      <g transform="translate(23.385156 191.797426)scale(0.14 -0.14)">
       <defs>
        <path d="M 65.90625 23 
C 67.59375 23 69.40625 23 69.40625 25 
C 69.40625 27 67.59375 27 65.90625 27 
L 11.796875 27 
C 10.09375 27 8.296875 27 8.296875 25 
C 8.296875 23 10.09375 23 11.796875 23 
z
" id="CMSY10-0"/>
        <path d="M 28 18 
L 28 10.515625 
C 28 4.515625 26.90625 3.109375 22 3.109375 
L 15.796875 3.109375 
L 15.796875 0 
C 29.09375 0 29.09375 0 31.5 0 
C 33.90625 0 33.90625 0 47.203125 0 
L 47.203125 3.109375 
L 42.40625 3.109375 
C 37.5 3.109375 36.40625 4.40625 36.40625 10.453125 
L 36.40625 18 
C 42.296875 18 44.40625 18 47.203125 17.703125 
L 47.203125 24.8125 
C 42.5 24.421875 40.59375 24.421875 39.09375 24.421875 
L 38.796875 24.421875 
L 36.40625 24.421875 
L 36.40625 38.390625 
C 36.40625 56.25 36.59375 64.875 37.09375 69 
L 35.90625 69.5 
L 28.5 66.796875 
L 0.203125 20.296875 
L 1.296875 18 
z
M 28 24.421875 
L 6.5 24.421875 
L 28 59.78125 
z
" id="URW_Palladio_L_Roman-52"/>
       </defs>
       <use transform="scale(1.038107)" xlink:href="#CMSY10-0"/>
       <use transform="translate(81.941696 0)scale(0.996264)" xlink:href="#URW_Palladio_L_Roman-52"/>
      </g>
     </g>
    </g>
    <g id="ytick_2">
     <g id="line2d_28">
      <path clip-path="url(#pdba2710fcc)" d="M 57.330847 143.153187 
L 570.225672 143.153187 
" style="fill:none;stroke:#000000;stroke-linecap:square;stroke-opacity:0.2;stroke-width:0.5;"/>
     </g>
     <g id="line2d_29">
      <g>
       <use style="fill-opacity:0.2;stroke:#000000;stroke-opacity:0.2;stroke-width:0.8;" x="57.330847" xlink:href="#mc4dde66ba0" y="143.153187"/>
      </g>
     </g>
     <g id="text_2">
      <!-- $\mathdefault{−2}$ -->
      <g transform="translate(23.385156 148.142952)scale(0.14 -0.14)">
       <defs>
        <path d="M 1.59375 2.5 
L 1.59375 0 
C 20.296875 0 20.296875 0 23.90625 0 
C 27.5 0 27.5 0 46.796875 0 
C 46.59375 1.953125 46.59375 2.90625 46.59375 4.203125 
C 46.59375 5.4375 46.59375 6.359375 46.796875 8.421875 
C 35.296875 8.421875 30.703125 8.421875 12.203125 8.421875 
L 30.40625 27.515625 
C 40.09375 37.71875 43.09375 43.171875 43.09375 50.59375 
C 43.09375 61.96875 35.296875 69 22.59375 69 
C 15.40625 69 10.5 67 5.59375 62.015625 
L 3.90625 48.421875 
L 6.796875 48.421875 
L 8.09375 53.015625 
C 9.703125 58.796875 13.296875 61.296875 20 61.296875 
C 28.59375 61.296875 34.09375 55.890625 34.09375 47.421875 
C 34.09375 39.921875 29.90625 32.546875 18.59375 20.5625 
z
" id="URW_Palladio_L_Roman-50"/>
       </defs>
       <use transform="scale(1.038107)" xlink:href="#CMSY10-0"/>
       <use transform="translate(81.941696 0)scale(0.996264)" xlink:href="#URW_Palladio_L_Roman-50"/>
      </g>
     </g>
    </g>
    <g id="ytick_3">
     <g id="line2d_30">
      <path clip-path="url(#pdba2710fcc)" d="M 57.330847 99.498713 
L 570.225672 99.498713 
" style="fill:none;stroke:#000000;stroke-linecap:square;stroke-opacity:0.2;stroke-width:0.5;"/>
     </g>
     <g id="line2d_31">
      <g>
       <use style="fill-opacity:0.2;stroke:#000000;stroke-opacity:0.2;stroke-width:0.8;" x="57.330847" xlink:href="#mc4dde66ba0" y="99.498713"/>
      </g>
     </g>
     <g id="text_3">
      <!-- $\mathdefault{0}$ -->
      <g transform="translate(34.856999 104.488478)scale(0.14 -0.14)">
       <defs>
        <path d="M 26.296875 69 
C 10.796875 69 2.90625 56.6875 2.90625 32.453125 
C 2.90625 20.71875 5 10.625 8.5 5.71875 
C 12 0.796875 17.59375 -2 23.796875 -2 
C 38.90625 -2 46.5 11.015625 46.5 36.65625 
C 46.5 58.578125 40 69 26.296875 69 
z
M 24.5 65.5 
C 34.203125 65.5 38.09375 55.6875 38.09375 31.640625 
C 38.09375 10.328125 34.296875 1.5 25.09375 1.5 
C 15.40625 1.5 11.296875 11.625 11.296875 36.0625 
C 11.296875 57.1875 15 65.5 24.5 65.5 
z
" id="URW_Palladio_L_Roman-48"/>
       </defs>
       <use transform="scale(0.996264)" xlink:href="#URW_Palladio_L_Roman-48"/>
      </g>
     </g>
    </g>
    <g id="ytick_4">
     <g id="line2d_32">
      <path clip-path="url(#pdba2710fcc)" d="M 57.330847 55.844239 
L 570.225672 55.844239 
" style="fill:none;stroke:#000000;stroke-linecap:square;stroke-opacity:0.2;stroke-width:0.5;"/>
     </g>
     <g id="line2d_33">
      <g>
       <use style="fill-opacity:0.2;stroke:#000000;stroke-opacity:0.2;stroke-width:0.8;" x="57.330847" xlink:href="#mc4dde66ba0" y="55.844239"/>
      </g>
     </g>
     <g id="text_4">
      <!-- $\mathdefault{2}$ -->
      <g transform="translate(34.856999 60.834003)scale(0.14 -0.14)">
       <use transform="scale(0.996264)" xlink:href="#URW_Palladio_L_Roman-50"/>
      </g>
     </g>
    </g>
    <g id="ytick_5">
     <g id="line2d_34">
      <path clip-path="url(#pdba2710fcc)" d="M 57.330847 12.189765 
L 570.225672 12.189765 
" style="fill:none;stroke:#000000;stroke-linecap:square;stroke-opacity:0.2;stroke-width:0.5;"/>
     </g>
     <g id="line2d_35">
      <g>
       <use style="fill-opacity:0.2;stroke:#000000;stroke-opacity:0.2;stroke-width:0.8;" x="57.330847" xlink:href="#mc4dde66ba0" y="12.189765"/>
      </g>
     </g>
     <g id="text_5">
      <!-- $\mathdefault{4}$ -->
      <g transform="translate(34.856999 17.179529)scale(0.14 -0.14)">
       <use transform="scale(0.996264)" xlink:href="#URW_Palladio_L_Roman-52"/>
      </g>
     </g>
    </g>
    <g id="text_6">
     <!-- $z^n$ (real part) -->
     <g transform="translate(16.013872 132.787059)rotate(-90)scale(0.12 -0.12)">
      <defs>
       <path d="M -0.09375 2.1875 
L 0.796875 -0.5 
C 3.703125 1.78125 6.40625 2.6875 9.90625 2.6875 
C 12.40625 2.6875 15.203125 2.1875 20.40625 0.984375 
C 26.40625 -0.5 29.5 -1 32.203125 -1 
C 33.40625 -1 34.296875 -0.796875 37.203125 0 
C 38.296875 6.171875 39.09375 9.53125 40.203125 14.21875 
L 38 14.21875 
L 35.796875 8.265625 
C 35.203125 6.46875 34 5.765625 31.90625 5.765625 
C 30.703125 5.765625 29.09375 5.96875 27 6.46875 
L 25.203125 6.859375 
C 21.90625 7.5625 18.5 8.0625 16.59375 8.0625 
C 13.40625 8.0625 10.703125 7.46875 7.09375 5.96875 
L 41 43.9375 
L 41.59375 47.09375 
L 40.703125 48 
L 38.40625 45.703125 
C 37.40625 44.703125 36.40625 44.3125 35 44.3125 
C 31.59375 44.3125 26.40625 45.109375 21.59375 46.40625 
L 19.796875 46.90625 
C 17 47.59375 15 48 13.59375 48 
C 11.90625 48 9.90625 47.703125 7.5 47 
L 4.296875 34.875 
L 6.40625 34.875 
L 9.40625 40.625 
C 11.09375 41.03125 12 41.125 13.296875 41.125 
C 14.703125 41.125 15.796875 41.03125 17.796875 40.625 
C 21.203125 39.9375 23.796875 39.625 25.90625 39.625 
C 29.5 39.625 31.90625 40.234375 35.203125 41.921875 
z
" id="URW_Palladio_L_Italic-122"/>
       <path d="M 2.40625 38.609375 
L 3.09375 36.609375 
L 6.296875 38.703125 
C 10 41.015625 10.296875 41.203125 11 41.203125 
C 12.09375 41.203125 12.796875 40.21875 12.796875 38.71875 
C 12.796875 33.625 8.703125 14.359375 4.59375 0.09375 
L 5.296875 -1 
C 7.796875 -0.3125 10.09375 0.28125 12.296875 0.6875 
C 14.203125 13.265625 16.296875 19.75 20.90625 26.640625 
C 26.296875 35.015625 33.796875 41.203125 38.296875 41.203125 
C 39.40625 41.203125 40 40.3125 40 38.8125 
C 40 37.015625 39.703125 34.921875 38.90625 31.734375 
L 33.703125 10.578125 
C 32.796875 6.875 32.40625 4.59375 32.40625 3 
C 32.40625 0.484375 33.5 -1 35.40625 -1 
C 38 -1 41.59375 1.078125 51.40625 8.375 
L 50.40625 10.171875 
L 47.796875 8.484375 
C 44.90625 6.578125 42.703125 5.484375 41.703125 5.484375 
C 41 5.484375 40.40625 6.375 40.40625 7.46875 
C 40.40625 7.96875 40.5 9.078125 40.59375 9.484375 
L 47.203125 37.015625 
C 47.90625 39.921875 48.296875 42.703125 48.296875 44.390625 
C 48.296875 46.703125 47.203125 48 45.203125 48 
C 41 48 34.09375 44.21875 28.203125 38.71875 
C 24.40625 35.21875 21.59375 31.828125 16.40625 24.546875 
L 20.203125 40.609375 
C 20.59375 42.40625 20.796875 43.59375 20.796875 44.703125 
C 20.796875 46.796875 20 48 18.5 48 
C 16.40625 48 12.5 45.8125 5.203125 40.609375 
z
" id="URW_Palladio_L_Italic-110"/>
       <path d="M 30.09375 -19.4375 
C 22.90625 -10.515625 20.296875 -5.71875 17.703125 3.3125 
C 15.59375 10.515625 14.59375 18.140625 14.59375 26.65625 
C 14.59375 34.96875 15.59375 42.078125 17.5 48.59375 
C 20.09375 56.90625 22.796875 61.625 30.09375 70.140625 
L 28.203125 72.75 
C 17.796875 63.421875 13.703125 57.921875 9.90625 48.09375 
C 7.296875 41.375 6 34.265625 6 26.65625 
C 6 15.9375 8.5 5.8125 13.296875 -3.203125 
C 16.796875 -9.921875 20 -13.828125 28.203125 -21.546875 
z
" id="URW_Palladio_L_Roman-40"/>
       <path d="M 2.296875 40.078125 
L 6 40.078125 
C 10 40.078125 10.40625 39.375 10.40625 32.71875 
L 10.40625 10.046875 
C 10.40625 3.703125 10.09375 3 6.703125 3 
L 2.09375 3 
L 2.09375 -0.109375 
C 9.296875 -0.109375 11.90625 -0.109375 14.40625 -0.109375 
C 16.40625 -0.109375 16.40625 -0.109375 28.703125 -0.109375 
L 28.703125 3 
L 23.5 3 
C 19 3 18.796875 3.296875 18.796875 9.96875 
L 18.796875 27.359375 
C 18.796875 33.421875 22.796875 38.484375 27.703125 38.484375 
C 30.703125 38.484375 32.796875 37.078125 34.40625 33.890625 
L 36.5 33.890625 
L 37.40625 45.890625 
C 36.296875 46.59375 34.5 47 32.703125 47 
C 29.703125 47 26.5 45.390625 24.40625 42.890625 
L 18.796875 36.28125 
L 18.796875 46.59375 
L 17.90625 47 
C 12.796875 44.890625 7.59375 43.484375 2.296875 42.890625 
z
" id="URW_Palladio_L_Roman-114"/>
       <path d="M 43.703125 6.984375 
L 42.40625 7.984375 
C 36 4.203125 33.703125 3.3125 29.40625 3.3125 
C 22.90625 3.3125 17.5 6.21875 14.703125 11.109375 
C 12.796875 14.390625 12.09375 17.203125 11.90625 23 
L 26.5 23 
C 33.40625 23 37.703125 23 44.59375 24.125 
C 44.703125 25.53125 44.796875 26.453125 44.796875 27.671875 
C 44.796875 39.375 37.40625 47 26.203125 47 
C 22.5 47 18.203125 45.6875 14.09375 43.28125 
C 5.90625 38.578125 2.59375 32.359375 2.59375 21.9375 
C 2.59375 15.625 4.09375 10.21875 6.796875 6.40625 
C 10.796875 1.109375 17.5 -2 25 -2 
C 28.703125 -2 32.40625 -1.203125 36.5 0.578125 
C 39.203125 1.6875 41.296875 2.984375 41.703125 3.59375 
z
M 35.90625 26.40625 
C 30.703125 26.40625 28.296875 26.40625 24.703125 26.40625 
C 20.09375 26.40625 17.5 26.40625 12.09375 26.90625 
C 12.09375 31.671875 12.5 33.890625 13.796875 36.515625 
C 15.90625 40.96875 20.203125 43.6875 25 43.6875 
C 28.296875 43.6875 30.90625 42.359375 32.703125 39.59375 
C 34.90625 36.234375 35.59375 33.265625 35.90625 26.40625 
z
" id="URW_Palladio_L_Roman-101"/>
       <path d="M 32.40625 8.40625 
L 31.90625 -0.015625 
C 38.40625 -0.015625 38.40625 -0.015625 39.703125 -0.015625 
C 40.203125 -0.015625 42.703125 -0.015625 47.09375 -0.015625 
L 47.09375 3 
L 43.203125 3 
C 40.796875 3 40.40625 3.8125 40.40625 8.71875 
L 40.40625 27.046875 
C 40.40625 41.6875 36.203125 47 24.59375 47 
C 20.296875 47 16.296875 45.890625 12.5 43.609375 
L 7.203125 40.390625 
L 7.203125 33.921875 
L 9.796875 33.21875 
L 11.09375 36.296875 
C 13.203125 40.984375 14.203125 41.6875 18.796875 41.6875 
C 28.203125 41.6875 32.09375 37.984375 32.40625 28.9375 
L 22.5 27.125 
C 8.90625 24.640625 3.203125 19.953125 3.203125 11.28125 
C 3.203125 3.5 7.90625 -1 15.796875 -1 
C 17.59375 -1 19.296875 -0.703125 20 -0.203125 
z
M 32.40625 12.59375 
C 29.5 8.5 23.203125 4.71875 19.296875 4.71875 
C 15.296875 4.71875 11.796875 8.40625 11.796875 12.6875 
C 11.796875 16.375 13.796875 19.859375 16.796875 21.75 
C 19.296875 23.25 24.796875 24.640625 32.40625 25.75 
z
" id="URW_Palladio_L_Roman-97"/>
       <path d="M 2.296875 66.5 
L 7.90625 66.5 
C 9.703125 66.5 10.40625 65.390625 10.40625 62.375 
L 10.40625 10.171875 
C 10.40625 3.8125 10.09375 3.109375 6.703125 3.109375 
L 2.09375 3.109375 
L 2.09375 0 
C 12.09375 0 12.09375 0 14.59375 0 
C 17.09375 0 17.09375 0 27.09375 0 
L 27.09375 3.109375 
L 22.5 3.109375 
C 19.09375 3.109375 18.796875 3.8125 18.796875 10.15625 
L 18.796875 72.203125 
L 17.90625 73.015625 
C 13.5 71.3125 10.203125 70.5 2.296875 69.296875 
z
" id="URW_Palladio_L_Roman-108"/>
       <path d="M 1 40.078125 
L 4.703125 40.078125 
C 8.703125 40.078125 9.09375 39.375 9.09375 32.734375 
L 9.09375 -17.84375 
C 9.09375 -24.1875 8.796875 -24.890625 5.40625 -24.890625 
L 0.796875 -24.890625 
L 0.796875 -28 
C 10.796875 -28 10.796875 -28 13.296875 -28 
C 15.796875 -28 15.796875 -28 25.796875 -28 
L 25.796875 -24.890625 
L 21.203125 -24.890625 
C 17.796875 -24.890625 17.5 -24.171875 17.5 -17.78125 
L 17.5 1.390625 
C 20.5 -0.40625 23.703125 -1.109375 28.203125 -1.109375 
C 31.09375 -1.109375 33.703125 -0.5 35.296875 0.5 
L 46.703125 7.890625 
C 50.703125 10.5 55.40625 20.78125 55.40625 27.1875 
C 55.40625 38.296875 46.203125 47 34.59375 47 
C 30.90625 47 27.296875 45.984375 25.703125 44.484375 
L 17.5 36.984375 
L 17.5 46.59375 
L 16.59375 47 
C 11.5 44.890625 6.296875 43.484375 1 42.890625 
z
M 17.5 30.6875 
C 17.5 32.078125 18 33.1875 19.296875 34.890625 
C 22.203125 38.578125 26.296875 40.484375 31.296875 40.484375 
C 40.703125 40.484375 46.703125 33.890625 46.703125 23.5 
C 46.703125 12.296875 40 4 31 4 
C 25.5 4 21.40625 5.8125 17.5 9.890625 
z
" id="URW_Palladio_L_Roman-112"/>
       <path d="M 9.796875 38.6875 
L 9.796875 9.671875 
C 9.796875 2.21875 13.09375 -1 20.796875 -1 
C 23.09375 -1 25.5 -0.5 26.09375 0.203125 
L 30.90625 5.515625 
L 29.59375 7.234375 
C 27.09375 5.8125 25.59375 5.3125 23.703125 5.3125 
C 19.796875 5.3125 18.203125 7.34375 18.203125 12.3125 
L 18.203125 38.890625 
L 31 38.890625 
L 31.90625 44 
L 18.203125 44 
L 18.203125 47.75 
C 18.203125 51.890625 18.5 55.421875 19.296875 61.734375 
L 18.09375 62.828125 
C 15.703125 61.328125 12.703125 60.03125 9.59375 59.03125 
C 9.90625 56.015625 10 54.109375 10 51.109375 
L 10 44.09375 
L 2.203125 40.59375 
L 2.203125 38.6875 
z
" id="URW_Palladio_L_Roman-116"/>
       <path d="M 5.09375 -21.546875 
C 12 -15.03125 14.90625 -11.71875 18 -6.8125 
C 24.09375 2.90625 27.296875 14.53125 27.296875 26.546875 
C 27.296875 34.265625 26 41.375 23.40625 48.09375 
C 19.59375 57.8125 15.5 63.328125 5.09375 72.75 
L 3.203125 70.140625 
C 10.5 61.515625 13.203125 56.8125 15.703125 48.59375 
C 17.703125 42.078125 18.703125 34.96875 18.703125 26.65625 
C 18.703125 18.140625 17.703125 10.515625 15.59375 3.3125 
C 13 -5.71875 10.40625 -10.515625 3.203125 -19.4375 
z
" id="URW_Palladio_L_Roman-41"/>
      </defs>
      <use transform="scale(0.996264)" xlink:href="#URW_Palladio_L_Italic-122"/>
      <use transform="translate(46.425879 36.164371)scale(0.757155)" xlink:href="#URW_Palladio_L_Italic-110"/>
      <use transform="translate(114.874929 0)scale(0.996264)" xlink:href="#URW_Palladio_L_Roman-40"/>
      <use transform="translate(148.050159 0)scale(0.996264)" xlink:href="#URW_Palladio_L_Roman-114"/>
      <use transform="translate(185.609476 0)scale(0.996264)" xlink:href="#URW_Palladio_L_Roman-101"/>
      <use transform="translate(233.329771 0)scale(0.996264)" xlink:href="#URW_Palladio_L_Roman-97"/>
      <use transform="translate(283.142972 0)scale(0.996264)" xlink:href="#URW_Palladio_L_Roman-108"/>
      <use transform="translate(337.039933 0)scale(0.996264)" xlink:href="#URW_Palladio_L_Roman-112"/>
      <use transform="translate(396.914327 0)scale(0.996264)" xlink:href="#URW_Palladio_L_Roman-97"/>
      <use transform="translate(446.727528 0)scale(0.996264)" xlink:href="#URW_Palladio_L_Roman-114"/>
      <use transform="translate(486.079424 0)scale(0.996264)" xlink:href="#URW_Palladio_L_Roman-116"/>
      <use transform="translate(518.556512 0)scale(0.996264)" xlink:href="#URW_Palladio_L_Roman-41"/>
     </g>
    </g>
   </g>
   <g id="line2d_36">
    <path clip-path="url(#pdba2710fcc)" d="M 57.330847 77.671476 
L 84.325311 113.389481 
L 111.319776 99.498713 
L 138.31424 88.24719 
L 165.308705 113.819563 
L 192.303169 90.38498 
L 219.297634 99.498713 
L 246.292098 106.880837 
L 273.286563 90.102803 
L 300.281027 105.478233 
L 327.275492 99.498713 
L 354.269956 94.655301 
L 381.26442 105.663369 
L 408.258885 95.57555 
L 435.253349 99.498713 
L 462.247814 102.676475 
L 489.242278 95.454082 
L 516.236743 102.0727 
L 543.231207 99.498713 
L 570.225672 97.413783 
" style="fill:none;"/>
    <defs>
     <path d="M 0 2.5 
C 0.663008 2.5 1.29895 2.236584 1.767767 1.767767 
C 2.236584 1.29895 2.5 0.663008 2.5 0 
C 2.5 -0.663008 2.236584 -1.29895 1.767767 -1.767767 
C 1.29895 -2.236584 0.663008 -2.5 0 -2.5 
C -0.663008 -2.5 -1.29895 -2.236584 -1.767767 -1.767767 
C -2.236584 -1.29895 -2.5 -0.663008 -2.5 0 
C -2.5 0.663008 -2.236584 1.29895 -1.767767 1.767767 
C -1.29895 2.236584 -0.663008 2.5 0 2.5 
z
" id="m50d5ed5e85"/>
    </defs>
    <g clip-path="url(#pdba2710fcc)">
     <use style="fill:#0271ae;" x="57.330847" xlink:href="#m50d5ed5e85" y="77.671476"/>
     <use style="fill:#0271ae;" x="84.325311" xlink:href="#m50d5ed5e85" y="113.389481"/>
     <use style="fill:#0271ae;" x="111.319776" xlink:href="#m50d5ed5e85" y="99.498713"/>
     <use style="fill:#0271ae;" x="138.31424" xlink:href="#m50d5ed5e85" y="88.24719"/>
     <use style="fill:#0271ae;" x="165.308705" xlink:href="#m50d5ed5e85" y="113.819563"/>
     <use style="fill:#0271ae;" x="192.303169" xlink:href="#m50d5ed5e85" y="90.38498"/>
     <use style="fill:#0271ae;" x="219.297634" xlink:href="#m50d5ed5e85" y="99.498713"/>
     <use style="fill:#0271ae;" x="246.292098" xlink:href="#m50d5ed5e85" y="106.880837"/>
     <use style="fill:#0271ae;" x="273.286563" xlink:href="#m50d5ed5e85" y="90.102803"/>
     <use style="fill:#0271ae;" x="300.281027" xlink:href="#m50d5ed5e85" y="105.478233"/>
     <use style="fill:#0271ae;" x="327.275492" xlink:href="#m50d5ed5e85" y="99.498713"/>
     <use style="fill:#0271ae;" x="354.269956" xlink:href="#m50d5ed5e85" y="94.655301"/>
     <use style="fill:#0271ae;" x="381.26442" xlink:href="#m50d5ed5e85" y="105.663369"/>
     <use style="fill:#0271ae;" x="408.258885" xlink:href="#m50d5ed5e85" y="95.57555"/>
     <use style="fill:#0271ae;" x="435.253349" xlink:href="#m50d5ed5e85" y="99.498713"/>
     <use style="fill:#0271ae;" x="462.247814" xlink:href="#m50d5ed5e85" y="102.676475"/>
     <use style="fill:#0271ae;" x="489.242278" xlink:href="#m50d5ed5e85" y="95.454082"/>
     <use style="fill:#0271ae;" x="516.236743" xlink:href="#m50d5ed5e85" y="102.0727"/>
     <use style="fill:#0271ae;" x="543.231207" xlink:href="#m50d5ed5e85" y="99.498713"/>
     <use style="fill:#0271ae;" x="570.225672" xlink:href="#m50d5ed5e85" y="97.413783"/>
    </g>
   </g>
   <g id="line2d_37">
    <path clip-path="url(#pdba2710fcc)" d="M 57.330847 77.671476 
L 84.325311 78.705477 
L 111.319776 86.293234 
L 138.31424 99.498713 
L 165.308705 115.477342 
L 192.303169 129.94209 
L 219.297634 138.166995 
L 246.292098 136.335199 
L 273.286563 122.893023 
L 300.281027 99.498713 
L 327.275492 71.191597 
L 354.269956 45.566414 
L 381.26442 30.995493 
L 408.258885 34.240631 
L 435.253349 58.054265 
L 462.247814 99.498713 
L 489.242278 149.646495 
L 516.236743 195.04307 
L 543.231207 220.856346 
L 570.225672 215.107386 
" style="fill:none;"/>
    <defs>
     <path d="M 0 2.5 
C 0.663008 2.5 1.29895 2.236584 1.767767 1.767767 
C 2.236584 1.29895 2.5 0.663008 2.5 0 
C 2.5 -0.663008 2.236584 -1.29895 1.767767 -1.767767 
C 1.29895 -2.236584 0.663008 -2.5 0 -2.5 
C -0.663008 -2.5 -1.29895 -2.236584 -1.767767 -1.767767 
C -2.236584 -1.29895 -2.5 -0.663008 -2.5 0 
C -2.5 0.663008 -2.236584 1.29895 -1.767767 1.767767 
C -1.29895 2.236584 -0.663008 2.5 0 2.5 
z
" id="mfb38362468"/>
    </defs>
    <g clip-path="url(#pdba2710fcc)">
     <use style="fill:#dc2830;" x="57.330847" xlink:href="#mfb38362468" y="77.671476"/>
     <use style="fill:#dc2830;" x="84.325311" xlink:href="#mfb38362468" y="78.705477"/>
     <use style="fill:#dc2830;" x="111.319776" xlink:href="#mfb38362468" y="86.293234"/>
     <use style="fill:#dc2830;" x="138.31424" xlink:href="#mfb38362468" y="99.498713"/>
     <use style="fill:#dc2830;" x="165.308705" xlink:href="#mfb38362468" y="115.477342"/>
     <use style="fill:#dc2830;" x="192.303169" xlink:href="#mfb38362468" y="129.94209"/>
     <use style="fill:#dc2830;" x="219.297634" xlink:href="#mfb38362468" y="138.166995"/>
     <use style="fill:#dc2830;" x="246.292098" xlink:href="#mfb38362468" y="136.335199"/>
     <use style="fill:#dc2830;" x="273.286563" xlink:href="#mfb38362468" y="122.893023"/>
     <use style="fill:#dc2830;" x="300.281027" xlink:href="#mfb38362468" y="99.498713"/>
     <use style="fill:#dc2830;" x="327.275492" xlink:href="#mfb38362468" y="71.191597"/>
     <use style="fill:#dc2830;" x="354.269956" xlink:href="#mfb38362468" y="45.566414"/>
     <use style="fill:#dc2830;" x="381.26442" xlink:href="#mfb38362468" y="30.995493"/>
     <use style="fill:#dc2830;" x="408.258885" xlink:href="#mfb38362468" y="34.240631"/>
     <use style="fill:#dc2830;" x="435.253349" xlink:href="#mfb38362468" y="58.054265"/>
     <use style="fill:#dc2830;" x="462.247814" xlink:href="#mfb38362468" y="99.498713"/>
     <use style="fill:#dc2830;" x="489.242278" xlink:href="#mfb38362468" y="149.646495"/>
     <use style="fill:#dc2830;" x="516.236743" xlink:href="#mfb38362468" y="195.04307"/>
     <use style="fill:#dc2830;" x="543.231207" xlink:href="#mfb38362468" y="220.856346"/>
     <use style="fill:#dc2830;" x="570.225672" xlink:href="#mfb38362468" y="215.107386"/>
    </g>
   </g>
   <g id="line2d_38">
    <path clip-path="url(#pdba2710fcc)" d="M 57.330847 77.671476 
L 84.325311 88.585094 
L 111.319776 110.412331 
L 138.31424 121.32595 
L 165.308705 110.412331 
L 192.303169 88.585094 
L 219.297634 77.671476 
L 246.292098 88.585094 
L 273.286563 110.412331 
L 300.281027 121.32595 
L 327.275492 110.412331 
L 354.269956 88.585094 
L 381.26442 77.671476 
L 408.258885 88.585094 
L 435.253349 110.412331 
L 462.247814 121.32595 
L 489.242278 110.412331 
L 516.236743 88.585094 
L 543.231207 77.671476 
L 570.225672 88.585094 
" style="fill:none;"/>
    <defs>
     <path d="M 0 2.5 
C 0.663008 2.5 1.29895 2.236584 1.767767 1.767767 
C 2.236584 1.29895 2.5 0.663008 2.5 0 
C 2.5 -0.663008 2.236584 -1.29895 1.767767 -1.767767 
C 1.29895 -2.236584 0.663008 -2.5 0 -2.5 
C -0.663008 -2.5 -1.29895 -2.236584 -1.767767 -1.767767 
C -2.236584 -1.29895 -2.5 -0.663008 -2.5 0 
C -2.5 0.663008 -2.236584 1.29895 -1.767767 1.767767 
C -1.29895 2.236584 -0.663008 2.5 0 2.5 
z
" id="m1b22e0fe08"/>
    </defs>
    <g clip-path="url(#pdba2710fcc)">
     <use style="fill:#ffc438;" x="57.330847" xlink:href="#m1b22e0fe08" y="77.671476"/>
     <use style="fill:#ffc438;" x="84.325311" xlink:href="#m1b22e0fe08" y="88.585094"/>
     <use style="fill:#ffc438;" x="111.319776" xlink:href="#m1b22e0fe08" y="110.412331"/>
     <use style="fill:#ffc438;" x="138.31424" xlink:href="#m1b22e0fe08" y="121.32595"/>
     <use style="fill:#ffc438;" x="165.308705" xlink:href="#m1b22e0fe08" y="110.412331"/>
     <use style="fill:#ffc438;" x="192.303169" xlink:href="#m1b22e0fe08" y="88.585094"/>
     <use style="fill:#ffc438;" x="219.297634" xlink:href="#m1b22e0fe08" y="77.671476"/>
     <use style="fill:#ffc438;" x="246.292098" xlink:href="#m1b22e0fe08" y="88.585094"/>
     <use style="fill:#ffc438;" x="273.286563" xlink:href="#m1b22e0fe08" y="110.412331"/>
     <use style="fill:#ffc438;" x="300.281027" xlink:href="#m1b22e0fe08" y="121.32595"/>
     <use style="fill:#ffc438;" x="327.275492" xlink:href="#m1b22e0fe08" y="110.412331"/>
     <use style="fill:#ffc438;" x="354.269956" xlink:href="#m1b22e0fe08" y="88.585094"/>
     <use style="fill:#ffc438;" x="381.26442" xlink:href="#m1b22e0fe08" y="77.671476"/>
     <use style="fill:#ffc438;" x="408.258885" xlink:href="#m1b22e0fe08" y="88.585094"/>
     <use style="fill:#ffc438;" x="435.253349" xlink:href="#m1b22e0fe08" y="110.412331"/>
     <use style="fill:#ffc438;" x="462.247814" xlink:href="#m1b22e0fe08" y="121.32595"/>
     <use style="fill:#ffc438;" x="489.242278" xlink:href="#m1b22e0fe08" y="110.412331"/>
     <use style="fill:#ffc438;" x="516.236743" xlink:href="#m1b22e0fe08" y="88.585094"/>
     <use style="fill:#ffc438;" x="543.231207" xlink:href="#m1b22e0fe08" y="77.671476"/>
     <use style="fill:#ffc438;" x="570.225672" xlink:href="#m1b22e0fe08" y="88.585094"/>
    </g>
   </g>
   <g id="legend_1">
    <g id="patch_3">
     <path d="M 416.153564 85.919996 
L 560.425672 85.919996 
Q 563.225672 85.919996 563.225672 83.119996 
L 563.225672 19.807041 
Q 563.225672 17.007041 560.425672 17.007041 
L 416.153564 17.007041 
Q 413.353564 17.007041 413.353564 19.807041 
L 413.353564 83.119996 
Q 413.353564 85.919996 416.153564 85.919996 
z
" style="fill:#ffffff;opacity:0.95;stroke:#cccccc;stroke-linejoin:miter;stroke-width:0.5;"/>
    </g>
    <g id="line2d_39">
     <path d="M 418.953564 28.344853 
L 432.953564 28.344853 
" style="fill:none;"/>
    </g>
    <g id="line2d_40">
     <g>
      <use style="fill:#0271ae;" x="425.953564" xlink:href="#m50d5ed5e85" y="28.344853"/>
     </g>
    </g>
    <g id="text_7">
     <!-- $r=0.9$, $\theta=3\pi/4$ -->
     <g style="fill:#0271ae;" transform="translate(444.153564 33.244853)scale(0.14 -0.14)">
      <defs>
       <path d="M 36.796875 36.34375 
C 37.09375 40.125 37.59375 43.3125 38.40625 47.40625 
C 37.296875 47.890625 36.90625 48 36.40625 48 
C 33.296875 48 30.203125 45.609375 26.59375 40.53125 
L 23.90625 36.640625 
C 20 31.0625 18.796875 28.984375 17.203125 25.484375 
L 18 29.578125 
C 18.40625 31.859375 19.203125 35.84375 19.796875 38.03125 
L 20.40625 40.625 
C 20.796875 42.328125 21 43.609375 21 44.8125 
C 21 46.796875 20.203125 48 18.703125 48 
C 16.59375 48 12.796875 45.90625 5.40625 40.625 
L 2.59375 38.640625 
L 3.296875 36.640625 
L 6.5 38.734375 
C 9.296875 40.53125 10.40625 41.03125 11.296875 41.03125 
C 12.296875 41.03125 13 40.125 13 38.828125 
C 13 33.0625 8.703125 12.546875 4.703125 -0.203125 
L 5.703125 -0.890625 
C 7.203125 -0.390625 8.796875 -0.09375 11.09375 0.390625 
L 12.40625 0.59375 
L 15 12.546875 
C 16.796875 20.8125 19.09375 26.09375 23.5 31.765625 
C 26.90625 36.140625 29.59375 38.234375 31.796875 38.234375 
C 33.296875 38.234375 34.296875 37.734375 35.40625 36.34375 
z
" id="URW_Palladio_L_Italic-114"/>
       <path d="M 68.703125 32 
C 70.203125 32 72.09375 32 72.09375 34.015625 
C 72.09375 36.015625 70.203125 36.015625 68.796875 36.015625 
L 8.90625 36.015625 
C 7.5 36.015625 5.59375 36.015625 5.59375 34.015625 
C 5.59375 32 7.5 32 9 32 
z
M 68.796875 13 
C 70.203125 13 72.09375 13 72.09375 15.015625 
C 72.09375 17.015625 70.203125 17.015625 68.703125 17.015625 
L 9 17.015625 
C 7.5 17.015625 5.59375 17.015625 5.59375 15.015625 
C 5.59375 13 7.5 13 8.90625 13 
z
" id="CMR10-61"/>
       <path d="M 12.40625 11.625 
C 9.40625 11.625 6.703125 8.8125 6.703125 5.8125 
C 6.703125 2.796875 9.40625 0 12.296875 0 
C 15.5 0 18.296875 2.703125 18.296875 5.8125 
C 18.296875 8.8125 15.5 11.625 12.40625 11.625 
z
" id="URW_Palladio_L_Roman-46"/>
       <path d="M 9.59375 -1.65625 
C 20.703125 1.953125 25.5 4.25 30.90625 8.84375 
C 40.59375 17.15625 45.703125 28.671875 45.703125 42.078125 
C 45.703125 59 37.59375 69.296875 24.40625 69.296875 
C 11.59375 69.296875 2 59.296875 2 45.90625 
C 2 34.390625 9.5 26 19.90625 26 
C 23.296875 26 27.203125 27.09375 29 28.59375 
L 36 34.40625 
C 35.203125 17.578125 24.296875 5.25 6.203125 0.84375 
L 6.203125 0.046875 
z
M 24 66 
C 28.5 66 31.796875 64.09375 34 60.09375 
C 35.796875 56.890625 37 52 37 47.5 
C 37 38.296875 31.703125 32.109375 24 32.109375 
C 16 32.109375 10.59375 39.203125 10.59375 49.59375 
C 10.59375 59.703125 15.796875 66 24 66 
z
" id="URW_Palladio_L_Roman-57"/>
       <path d="M 20.40625 12.328125 
C 17.703125 11.421875 15.90625 10.828125 10.59375 9.3125 
C 9.90625 1.703125 7.40625 -4.8125 1.59375 -14.421875 
L 3 -15.53125 
L 7.09375 -13.625 
C 15.203125 -3.109375 19 3.203125 21.796875 10.921875 
z
" id="URW_Palladio_L_Roman-44"/>
       <path d="M 31.703125 71 
C 27.40625 71 23 68.90625 18.40625 64.421875 
C 9.5 55.953125 2.90625 40.875 2.90625 22.546875 
C 2.90625 6.6875 6.09375 -1 14.5 -1 
C 19.796875 -1 26 2.6875 30.703125 8.6875 
C 37.5 17.359375 43.703125 33.8125 43.703125 48.875 
C 43.703125 62.734375 39.90625 71 31.703125 71 
z
M 23.09375 33 
C 29.90625 33 32.703125 32.703125 34.40625 31.90625 
C 32.203125 21.84375 28.5 12.890625 25.296875 7.6875 
C 23.296875 4.609375 20.59375 2.828125 17.59375 2.828125 
C 11.59375 2.828125 10.5 10.484375 10.5 22.34375 
C 10.5 25.421875 10.703125 28.609375 11.203125 31.8125 
C 13.296875 32.703125 16 33 23.09375 33 
z
M 29.203125 67.1875 
C 35.5 67.1875 36.09375 59.015625 36.09375 46.671875 
C 36.09375 43.875 35.90625 41 35.5 38.203125 
C 33.5 37.515625 30.40625 37.21875 23.796875 37.21875 
C 17 37.21875 14.09375 37.515625 12.296875 38.21875 
C 14.90625 49.96875 19.5 60.71875 23.09375 64.890625 
C 24.5 66.390625 26.796875 67.1875 29.203125 67.1875 
z
" id="Pazo_Math_Italic-113"/>
       <path d="M 4.296875 49.953125 
L 7.40625 49.953125 
L 9.203125 55.53125 
C 10.296875 58.90625 16.59375 62.296875 21.796875 62.296875 
C 28.296875 62.296875 33.59375 57.015625 33.59375 50.75 
C 33.59375 43.28125 27.703125 37 20.59375 37 
C 19.796875 37 18.703125 37 17.40625 37.203125 
L 15.90625 37.203125 
L 14.703125 31.984375 
L 15.40625 31.375 
C 19.203125 33.09375 21.09375 33.59375 23.796875 33.59375 
C 32.09375 33.59375 36.90625 28.265625 36.90625 19.09375 
C 36.90625 8.84375 30.796875 2.109375 21.5 2.109375 
C 16.90625 2.109375 12.796875 3.609375 9.796875 6.421875 
C 7.40625 8.640625 6.09375 10.953125 4.203125 16.390625 
L 1.5 15.390625 
C 3.59375 9.265625 4.40625 5.640625 5 0.609375 
C 10.296875 -1.203125 14.703125 -2 18.40625 -2 
C 26.40625 -2 35.59375 2.515625 41.09375 9.265625 
C 44.5 13.390625 46.203125 17.8125 46.203125 22.53125 
C 46.203125 27.359375 44.203125 31.59375 40.59375 34.09375 
C 38.09375 35.90625 35.796875 36.71875 30.796875 37.609375 
C 38.796875 43.796875 41.796875 48.375 41.796875 54.25 
C 41.796875 63.125 34.40625 69 23.296875 69 
C 16.5 69 12 67.109375 7.203125 62.328125 
z
" id="URW_Palladio_L_Roman-51"/>
       <path d="M 9.59375 35.578125 
L 10.5 36.28125 
C 12.59375 42.203125 16.59375 42.5 22.296875 42.5 
C 23.5 42.5 25.296875 42.5 27.40625 42.5 
C 19 19.59375 15.203125 12.65625 7.09375 -0.09375 
L 8 -1 
L 15.40625 1.578125 
C 19 9.359375 25.09375 24.484375 30.59375 42 
L 49.203125 42 
C 47.5 35.71875 41.703125 17.421875 41.703125 10.953125 
C 41.703125 0.328125 45.5 -1 48.59375 -1 
C 53.703125 -1 56.59375 0.3125 62.90625 5.625 
L 62.09375 7.53125 
L 59.703125 5.8125 
C 60 6.015625 57.09375 3.71875 55.40625 3.71875 
C 50.703125 3.71875 49.296875 6.640625 49.296875 12.859375 
C 49.296875 15.375 49.5 18.078125 50.09375 21 
C 51.796875 29.34375 53.5 37.578125 54.40625 41.703125 
C 56.703125 41.703125 59 41.703125 61.296875 42 
C 63.09375 42 65.296875 43.03125 66.90625 43.640625 
C 68 45.78125 68.40625 45.984375 70.296875 48.421875 
L 69.59375 49.625 
C 66.90625 48.71875 62.40625 47.71875 59.09375 47.71875 
C 57.90625 47.921875 55.40625 47.921875 52.90625 47.921875 
C 42.203125 47.921875 25.703125 47.921875 21.296875 47.921875 
C 13.796875 47.921875 11.09375 44.75 8.203125 36.375 
z
" id="Pazo_Math_Italic-112"/>
       <path d="M 51.90625 72.5 
L 45.90625 72.5 
L 8.703125 -12 
L 14.703125 -12 
z
" id="URW_Palladio_L_Roman-47"/>
      </defs>
      <use transform="scale(0.996264)" xlink:href="#URW_Palladio_L_Italic-114"/>
      <use transform="translate(69.914533 0)scale(1.038107)" xlink:href="#CMR10-61"/>
      <use transform="translate(179.530162 0)scale(0.996264)" xlink:href="#URW_Palladio_L_Roman-48"/>
      <use transform="translate(229.343362 0)scale(0.996264)" xlink:href="#URW_Palladio_L_Roman-46"/>
      <use transform="translate(254.249962 0)scale(0.996264)" xlink:href="#URW_Palladio_L_Roman-57"/>
      <use transform="translate(304.063163 0)scale(0.996264)" xlink:href="#URW_Palladio_L_Roman-44"/>
      <use transform="translate(355.121663 0)scale(0.996264)" xlink:href="#Pazo_Math_Italic-113"/>
      <use transform="translate(432.509118 0)scale(1.038107)" xlink:href="#CMR10-61"/>
      <use transform="translate(542.124747 0)scale(0.996264)" xlink:href="#URW_Palladio_L_Roman-51"/>
      <use transform="translate(593.183247 0)scale(0.996264)" xlink:href="#Pazo_Math_Italic-112"/>
      <use transform="translate(665.710176 0)scale(0.996264)" xlink:href="#URW_Palladio_L_Roman-47"/>
      <use transform="translate(727.32908 0)scale(0.996264)" xlink:href="#URW_Palladio_L_Roman-52"/>
     </g>
    </g>
    <g id="line2d_41">
     <path d="M 418.953564 49.915838 
L 432.953564 49.915838 
" style="fill:none;"/>
    </g>
    <g id="line2d_42">
     <g>
      <use style="fill:#dc2830;" x="425.953564" xlink:href="#mfb38362468" y="49.915838"/>
     </g>
    </g>
    <g id="text_8">
     <!-- $r=1.1$, $\theta=-\pi/6$ -->
     <g style="fill:#dc2830;" transform="translate(444.153564 54.815838)scale(0.14 -0.14)">
      <defs>
       <path d="M 6.703125 56 
L 7.703125 56 
L 20.59375 61.8125 
C 20.703125 61.90625 20.796875 61.90625 20.90625 61.90625 
C 21.5 61.90625 21.703125 61.015625 21.703125 58.609375 
L 21.703125 9.578125 
C 21.703125 4.3125 20.59375 3.203125 15.203125 3.203125 
L 9.59375 3.203125 
L 9.59375 0 
C 25 0 25 0 26.09375 0 
C 27.40625 0 29.59375 0 33 0 
C 34.203125 0 37.703125 0 41.796875 0 
L 41.796875 3.203125 
L 36.59375 3.203125 
C 31.09375 3.203125 30.09375 4.3125 30.09375 9.5625 
L 30.09375 69.421875 
L 28.703125 69.921875 
C 22.203125 66.515625 15.09375 63.515625 6 60.3125 
z
" id="URW_Palladio_L_Roman-49"/>
       <path d="M 41.59375 67.34375 
L 37.90625 69.046875 
C 28.296875 65.84375 24.203125 63.84375 19.09375 59.4375 
C 8.796875 50.71875 3.203125 38.5 3.203125 24.765625 
C 3.203125 8.21875 11.203125 -2 24.09375 -2 
C 37.09375 -2 46.796875 8.3125 46.796875 21.953125 
C 46.796875 33.484375 39.90625 41 29.296875 41 
C 24.296875 41 21.296875 39.6875 15.40625 34.984375 
C 14.296875 34.078125 14.203125 33.984375 13.09375 33.1875 
C 15.203125 51.3125 23.59375 61.140625 41.59375 66.546875 
z
M 25.5 34.984375 
C 33.09375 34.984375 38.203125 28.375 38.203125 18.453125 
C 38.203125 8.015625 33.09375 1.296875 25.40625 1.296875 
C 16.90625 1.296875 12.296875 8.609375 12.296875 22.0625 
C 12.296875 25.5625 12.703125 27.46875 13.796875 29.171875 
C 16 32.578125 20.703125 34.984375 25.5 34.984375 
z
" id="URW_Palladio_L_Roman-54"/>
      </defs>
      <use transform="scale(0.996264)" xlink:href="#URW_Palladio_L_Italic-114"/>
      <use transform="translate(69.914533 0)scale(1.038107)" xlink:href="#CMR10-61"/>
      <use transform="translate(179.530162 0)scale(0.996264)" xlink:href="#URW_Palladio_L_Roman-49"/>
      <use transform="translate(229.343362 0)scale(0.996264)" xlink:href="#URW_Palladio_L_Roman-46"/>
      <use transform="translate(254.249962 0)scale(0.996264)" xlink:href="#URW_Palladio_L_Roman-49"/>
      <use transform="translate(304.063163 0)scale(0.996264)" xlink:href="#URW_Palladio_L_Roman-44"/>
      <use transform="translate(355.121663 0)scale(0.996264)" xlink:href="#Pazo_Math_Italic-113"/>
      <use transform="translate(432.509118 0)scale(1.038107)" xlink:href="#CMR10-61"/>
      <use transform="translate(543.370047 0)scale(1.038107)" xlink:href="#CMSY10-0"/>
      <use transform="translate(626.557043 0)scale(0.996264)" xlink:href="#Pazo_Math_Italic-112"/>
      <use transform="translate(699.083971 0)scale(0.996264)" xlink:href="#URW_Palladio_L_Roman-47"/>
      <use transform="translate(760.702876 0)scale(0.996264)" xlink:href="#URW_Palladio_L_Roman-54"/>
     </g>
    </g>
    <g id="line2d_43">
     <path d="M 418.953564 71.486823 
L 432.953564 71.486823 
" style="fill:none;"/>
    </g>
    <g id="line2d_44">
     <g>
      <use style="fill:#ffc438;" x="425.953564" xlink:href="#m1b22e0fe08" y="71.486823"/>
     </g>
    </g>
    <g id="text_9">
     <!-- $r=1$, $\theta=\pi/3$ -->
     <g style="fill:#ffc438;" transform="translate(444.153564 76.386823)scale(0.14 -0.14)">
      <use transform="scale(0.996264)" xlink:href="#URW_Palladio_L_Italic-114"/>
      <use transform="translate(69.914533 0)scale(1.038107)" xlink:href="#CMR10-61"/>
      <use transform="translate(179.530162 0)scale(0.996264)" xlink:href="#URW_Palladio_L_Roman-49"/>
      <use transform="translate(229.343362 0)scale(0.996264)" xlink:href="#URW_Palladio_L_Roman-44"/>
      <use transform="translate(280.401862 0)scale(0.996264)" xlink:href="#Pazo_Math_Italic-113"/>
      <use transform="translate(357.789317 0)scale(1.038107)" xlink:href="#CMR10-61"/>
      <use transform="translate(468.650246 0)scale(0.996264)" xlink:href="#Pazo_Math_Italic-112"/>
      <use transform="translate(541.177174 0)scale(0.996264)" xlink:href="#URW_Palladio_L_Roman-47"/>
      <use transform="translate(602.796079 0)scale(0.996264)" xlink:href="#URW_Palladio_L_Roman-51"/>
     </g>
    </g>
   </g>
  </g>
  <g id="axes_2">
   <g id="patch_4">
    <path d="M 57.330847 387.854927 
L 570.225672 387.854927 
L 570.225672 208.871583 
L 57.330847 208.871583 
z
" style="fill:none;"/>
   </g>
   <g id="line2d_45">
    <path clip-path="url(#pbc68356f2c)" d="M 57.330847 298.363255 
L 60.414383 292.628678 
L 62.470073 289.085178 
L 64.525764 285.894206 
L 66.581455 283.151992 
L 68.637145 280.938913 
L 69.664991 280.051 
L 70.692836 279.317179 
L 71.720681 278.742108 
L 72.748527 278.329135 
L 73.776372 278.08028 
L 74.804217 277.996228 
L 75.832063 278.076338 
L 76.859908 278.318655 
L 77.887753 278.719936 
L 78.915599 279.275692 
L 79.943444 279.980225 
L 81.999135 281.807164 
L 84.054825 284.133424 
L 86.110516 286.876811 
L 89.194052 291.565448 
L 98.44466 306.399542 
L 100.500351 309.175376 
L 102.556042 311.561942 
L 104.611732 313.489268 
L 106.667423 314.903152 
L 107.695268 315.405303 
L 108.723114 315.766642 
L 109.750959 315.985392 
L 110.778804 316.060939 
L 111.80665 315.993819 
L 112.834495 315.785713 
L 113.86234 315.439416 
L 114.890186 314.958813 
L 116.945876 313.615412 
L 119.001567 311.80661 
L 121.057258 309.597544 
L 123.112948 307.06509 
L 126.196484 302.849905 
L 133.391402 292.714261 
L 135.447093 290.157389 
L 137.502783 287.903117 
L 139.558474 286.018576 
L 141.614165 284.558027 
L 143.669855 283.561336 
L 144.697701 283.245192 
L 145.725546 283.052929 
L 146.753391 282.985102 
L 147.781237 283.041259 
L 148.809082 283.219961 
L 149.836927 283.518792 
L 151.892618 284.462498 
L 153.948309 285.834838 
L 156.003999 287.585189 
L 158.05969 289.651668 
L 161.143226 293.186947 
L 170.393834 304.392085 
L 172.449525 306.49262 
L 174.505216 308.300259 
L 176.560906 309.761974 
L 178.616597 310.836619 
L 180.672288 311.496057 
L 182.727978 311.725851 
L 184.783669 311.525507 
L 186.83936 310.908265 
L 188.89505 309.900464 
L 190.950741 308.540484 
L 193.006432 306.877337 
L 195.062122 304.96893 
L 198.145658 301.78959 
L 205.340576 294.133506 
L 207.396266 292.199416 
L 209.451957 290.49284 
L 211.507648 289.064622 
L 213.563338 287.955915 
L 215.619029 287.197017 
L 217.67472 286.806582 
L 219.730411 286.791205 
L 221.786101 287.145405 
L 223.841792 287.851996 
L 225.897483 288.882816 
L 227.953173 290.199804 
L 230.008864 291.756372 
L 233.0924 294.421975 
L 242.343008 302.885847 
L 244.398699 304.475344 
L 246.454389 305.844466 
L 248.51008 306.953022 
L 250.565771 307.769781 
L 252.621461 308.273319 
L 254.677152 308.452552 
L 256.732843 308.306922 
L 258.788534 307.846249 
L 260.844224 307.09025 
L 262.899915 306.067754 
L 264.955606 304.815639 
L 268.039142 302.603821 
L 272.150523 299.297546 
L 277.28975 295.196445 
L 280.373286 293.063552 
L 282.428976 291.872025 
L 284.484667 290.906639 
L 286.540358 290.194607 
L 288.596048 289.754619 
L 290.651739 289.596389 
L 292.70743 289.720481 
L 294.76312 290.11844 
L 296.818811 290.773205 
L 298.874502 291.659791 
L 300.930193 292.746211 
L 304.013729 294.666435 
L 309.152955 298.273259 
L 313.264337 301.103326 
L 316.347873 302.958514 
L 318.403563 303.995479 
L 320.459254 304.836179 
L 322.514945 305.456906 
L 324.570635 305.84135 
L 326.626326 305.981004 
L 328.682017 305.875307 
L 330.737707 305.531539 
L 332.793398 304.964459 
L 334.849089 304.195723 
L 337.932625 302.726632 
L 341.016161 300.98144 
L 351.294614 294.885855 
L 354.37815 293.476384 
L 356.433841 292.744272 
L 358.489532 292.203149 
L 360.545222 291.867246 
L 362.600913 291.744017 
L 364.656604 291.834009 
L 366.712294 292.130956 
L 368.767985 292.622085 
L 370.823676 293.288632 
L 373.907212 294.563472 
L 378.018593 296.618046 
L 386.241356 300.907885 
L 389.324892 302.227849 
L 392.408428 303.240935 
L 394.464119 303.712656 
L 396.519809 304.006137 
L 398.5755 304.114848 
L 400.631191 304.03826 
L 402.686881 303.781768 
L 404.742572 303.356423 
L 407.826108 302.438658 
L 410.909644 301.252209 
L 415.021025 299.411202 
L 422.215943 296.159471 
L 425.299479 295.011151 
L 428.383015 294.129094 
L 430.438706 293.717878 
L 432.494396 293.46147 
L 434.550087 293.365588 
L 436.605778 293.430739 
L 438.661468 293.652279 
L 441.745004 294.255651 
L 444.82854 295.137481 
L 448.939922 296.624292 
L 459.218375 300.62666 
L 462.301911 301.555312 
L 465.385447 302.234335 
L 468.468983 302.621262 
L 471.552519 302.695458 
L 474.636055 302.459071 
L 477.719591 301.936339 
L 480.803127 301.171334 
L 484.914509 299.880436 
L 495.192962 296.401749 
L 498.276498 295.59368 
L 501.360034 295.002256 
L 504.44357 294.664484 
L 507.527106 294.598409 
L 510.610642 294.802281 
L 513.694178 295.255144 
L 516.777714 295.918797 
L 520.889096 297.039594 
L 532.195394 300.315766 
L 535.27893 300.960766 
L 538.362466 301.405264 
L 541.446002 301.622343 
L 544.529538 301.601938 
L 547.613074 301.351151 
L 550.69661 300.893339 
L 554.807992 300.027479 
L 560.975064 298.43061 
L 567.142136 296.890159 
L 570.225672 296.278325 
L 570.225672 296.278325 
" style="fill:none;stroke:#0271ae;stroke-linecap:square;stroke-width:3;"/>
   </g>
   <g id="line2d_46">
    <path clip-path="url(#pbc68356f2c)" d="M 57.330847 298.363255 
L 67.6093 302.845859 
L 95.361124 315.152879 
L 102.556042 318.053419 
L 108.723114 320.339573 
L 114.890186 322.39584 
L 120.029412 323.903955 
L 125.168639 325.201018 
L 130.307866 326.26568 
L 135.447093 327.078232 
L 140.586319 327.620868 
L 144.697701 327.850047 
L 148.809082 327.88951 
L 152.920463 327.733405 
L 157.031845 327.377012 
L 161.143226 326.816806 
L 165.254607 326.050514 
L 169.365989 325.077172 
L 173.47737 323.897166 
L 177.588752 322.51227 
L 181.700133 320.925676 
L 185.811514 319.142013 
L 190.950741 316.644707 
L 196.089968 313.864147 
L 201.229194 310.81891 
L 206.368421 307.531024 
L 212.535493 303.301221 
L 218.702565 298.808627 
L 226.925328 292.507503 
L 239.259472 282.696383 
L 251.593616 272.955621 
L 258.788534 267.545714 
L 264.955606 263.185006 
L 270.094832 259.805101 
L 275.234059 256.703048 
L 279.34544 254.450189 
L 283.456822 252.423553 
L 287.568203 250.643307 
L 291.679584 249.128572 
L 295.790966 247.89726 
L 298.874502 247.169786 
L 301.958038 246.617512 
L 305.041574 246.246359 
L 308.12511 246.061699 
L 311.208646 246.068326 
L 314.292182 246.270429 
L 317.375718 246.671553 
L 320.459254 247.274583 
L 323.54279 248.08171 
L 326.626326 249.094413 
L 329.709862 250.313434 
L 332.793398 251.738761 
L 335.876934 253.369613 
L 338.96047 255.204422 
L 342.044006 257.240825 
L 346.155388 260.264026 
L 350.266769 263.630134 
L 354.37815 267.326824 
L 358.489532 271.339202 
L 362.600913 275.649835 
L 366.712294 280.238787 
L 371.851521 286.332046 
L 376.990748 292.776167 
L 383.15782 300.895366 
L 390.352737 310.768419 
L 402.686881 328.188418 
L 412.965335 342.560569 
L 419.132407 350.843431 
L 424.271633 357.42831 
L 429.41086 363.639577 
L 433.522242 368.286658 
L 437.633623 372.604741 
L 441.745004 376.555363 
L 444.82854 379.25478 
L 447.912076 381.711479 
L 450.995612 383.910941 
L 454.079148 385.839289 
L 457.162684 387.48335 
L 460.24622 388.830727 
L 463.329756 389.869856 
L 466.413292 390.590071 
L 469.496828 390.98166 
L 471.552519 391.055813 
L 473.60821 390.977707 
L 475.663901 390.745246 
L 477.719591 390.356557 
L 479.775282 389.81 
L 481.830973 389.10417 
L 483.886663 388.237906 
L 486.970199 386.635767 
L 490.053735 384.668652 
L 493.137271 382.335872 
L 496.220807 379.638092 
L 499.304343 376.577353 
L 502.387879 373.157098 
L 505.471415 369.382188 
L 508.554951 365.258916 
L 511.638487 360.795014 
L 514.722023 355.999657 
L 518.833405 349.108805 
L 522.944786 341.67685 
L 527.056168 333.737373 
L 531.167549 325.328322 
L 536.306776 314.221345 
L 541.446002 302.53824 
L 547.613074 287.900495 
L 554.807992 270.213496 
L 570.225672 231.616556 
L 570.225672 231.616556 
" style="fill:none;stroke:#dc2830;stroke-linecap:square;stroke-width:3;"/>
   </g>
   <g id="line2d_47">
    <path clip-path="url(#pbc68356f2c)" d="M 57.330847 298.363255 
L 65.553609 291.518148 
L 70.692836 287.54896 
L 74.804217 284.675042 
L 77.887753 282.743953 
L 80.971289 281.036092 
L 84.054825 279.575868 
L 87.138362 278.38415 
L 90.221898 277.47797 
L 93.305434 276.870279 
L 96.38897 276.569762 
L 99.472506 276.580714 
L 102.556042 276.902979 
L 105.639578 277.53195 
L 108.723114 278.458639 
L 111.80665 279.669801 
L 114.890186 281.148127 
L 117.973722 282.872489 
L 121.057258 284.818242 
L 125.168639 287.708496 
L 129.28002 290.869211 
L 135.447093 295.940514 
L 147.781237 306.200402 
L 151.892618 309.336323 
L 156.003999 312.193703 
L 159.087535 314.109992 
L 162.171071 315.801232 
L 165.254607 317.243252 
L 168.338143 318.415441 
L 171.421679 319.301048 
L 174.505216 319.887416 
L 177.588752 320.166164 
L 180.672288 320.133308 
L 183.755824 319.789318 
L 186.83936 319.139111 
L 189.922896 318.191978 
L 193.006432 316.961457 
L 196.089968 315.465134 
L 199.173504 313.724393 
L 202.25704 311.764113 
L 206.368421 308.857727 
L 210.479802 305.684948 
L 216.646875 300.603818 
L 227.953173 291.171163 
L 233.0924 287.232185 
L 237.203781 284.391546 
L 240.287317 282.490191 
L 243.370853 280.815691 
L 246.454389 279.391978 
L 249.537925 278.2394 
L 252.621461 277.374428 
L 255.704997 276.809425 
L 258.788534 276.552466 
L 261.87207 276.607223 
L 264.955606 276.972913 
L 268.039142 277.644311 
L 271.122678 278.61182 
L 274.206214 279.861614 
L 277.28975 281.37583 
L 280.373286 283.132827 
L 283.456822 285.107495 
L 287.568203 288.029809 
L 291.679584 291.214428 
L 297.846656 296.305026 
L 309.152955 305.728084 
L 313.264337 308.897868 
L 317.375718 311.80024 
L 320.459254 313.756901 
L 323.54279 315.493559 
L 326.626326 316.985393 
L 329.709862 318.211083 
L 332.793398 319.15311 
L 335.876934 319.798013 
L 338.96047 320.136574 
L 342.044006 320.163954 
L 345.127542 319.879762 
L 348.211078 319.288059 
L 351.294614 318.397303 
L 354.37815 317.220224 
L 357.461686 315.773644 
L 360.545222 314.078237 
L 363.628758 312.158235 
L 367.74014 309.296702 
L 371.851521 306.157633 
L 378.018593 301.104386 
L 390.352737 290.826206 
L 394.464119 287.668541 
L 398.5755 284.782352 
L 401.659036 282.840252 
L 404.742572 281.120004 
L 407.826108 279.646194 
L 410.909644 278.439885 
L 413.99318 277.518317 
L 417.076716 276.894662 
L 420.160252 276.577833 
L 423.243788 276.572356 
L 426.327324 276.878312 
L 429.41086 277.491327 
L 432.494396 278.40264 
L 435.577932 279.599227 
L 438.661468 281.063986 
L 441.745004 282.775984 
L 444.82854 284.710752 
L 448.939922 287.588773 
L 453.051303 290.740295 
L 459.218375 295.803993 
L 471.552519 306.071992 
L 475.663901 309.217315 
L 479.775282 312.087117 
L 482.858818 314.014519 
L 485.942354 315.718236 
L 489.02589 317.173919 
L 492.109426 318.360762 
L 495.192962 319.261805 
L 498.276498 319.864169 
L 501.360034 320.159245 
L 504.44357 320.142817 
L 507.527106 319.815119 
L 510.610642 319.180835 
L 513.694178 318.249029 
L 516.777714 317.033019 
L 519.86125 315.550183 
L 522.944786 313.821716 
L 526.028322 311.872318 
L 530.139704 308.978012 
L 534.251085 305.81426 
L 540.418157 300.740466 
L 552.752301 290.483373 
L 556.863682 287.350613 
L 560.975064 284.4974 
L 564.0586 282.584831 
L 567.142136 280.897765 
L 570.225672 279.460313 
L 570.225672 279.460313 
" style="fill:none;stroke:#ffc438;stroke-linecap:square;stroke-width:3;"/>
   </g>
   <g id="matplotlib.axis_3">
    <g id="xtick_12">
     <g id="line2d_48">
      <path clip-path="url(#pbc68356f2c)" d="M 57.330847 387.854927 
L 57.330847 208.871583 
" style="fill:none;stroke:#000000;stroke-linecap:square;stroke-opacity:0.2;stroke-width:0.5;"/>
     </g>
     <g id="line2d_49">
      <g>
       <use style="fill-opacity:0.2;stroke:#000000;stroke-opacity:0.2;stroke-width:0.8;" x="57.330847" xlink:href="#m3414534539" y="387.854927"/>
      </g>
     </g>
     <g id="text_10">
      <!-- $\mathdefault{0}$ -->
      <g transform="translate(53.843923 413.334456)scale(0.14 -0.14)">
       <use transform="scale(0.996264)" xlink:href="#URW_Palladio_L_Roman-48"/>
      </g>
     </g>
    </g>
    <g id="xtick_13">
     <g id="line2d_50">
      <path clip-path="url(#pbc68356f2c)" d="M 84.325311 387.854927 
L 84.325311 208.871583 
" style="fill:none;stroke:#000000;stroke-linecap:square;stroke-opacity:0.2;stroke-width:0.5;"/>
     </g>
     <g id="line2d_51">
      <g>
       <use style="fill-opacity:0.2;stroke:#000000;stroke-opacity:0.2;stroke-width:0.8;" x="84.325311" xlink:href="#m3414534539" y="387.854927"/>
      </g>
     </g>
     <g id="text_11">
      <!-- $\mathdefault{1}$ -->
      <g transform="translate(80.838387 413.334456)scale(0.14 -0.14)">
       <use transform="scale(0.996264)" xlink:href="#URW_Palladio_L_Roman-49"/>
      </g>
     </g>
    </g>
    <g id="xtick_14">
     <g id="line2d_52">
      <path clip-path="url(#pbc68356f2c)" d="M 138.31424 387.854927 
L 138.31424 208.871583 
" style="fill:none;stroke:#000000;stroke-linecap:square;stroke-opacity:0.2;stroke-width:0.5;"/>
     </g>
     <g id="line2d_53">
      <g>
       <use style="fill-opacity:0.2;stroke:#000000;stroke-opacity:0.2;stroke-width:0.8;" x="138.31424" xlink:href="#m3414534539" y="387.854927"/>
      </g>
     </g>
     <g id="text_12">
      <!-- $\mathdefault{3}$ -->
      <g transform="translate(134.827316 413.334456)scale(0.14 -0.14)">
       <use transform="scale(0.996264)" xlink:href="#URW_Palladio_L_Roman-51"/>
      </g>
     </g>
    </g>
    <g id="xtick_15">
     <g id="line2d_54">
      <path clip-path="url(#pbc68356f2c)" d="M 192.303169 387.854927 
L 192.303169 208.871583 
" style="fill:none;stroke:#000000;stroke-linecap:square;stroke-opacity:0.2;stroke-width:0.5;"/>
     </g>
     <g id="line2d_55">
      <g>
       <use style="fill-opacity:0.2;stroke:#000000;stroke-opacity:0.2;stroke-width:0.8;" x="192.303169" xlink:href="#m3414534539" y="387.854927"/>
      </g>
     </g>
     <g id="text_13">
      <!-- $\mathdefault{5}$ -->
      <g transform="translate(188.816245 413.334456)scale(0.14 -0.14)">
       <defs>
        <path d="M 12.703125 60.578125 
C 25.59375 60.578125 31.203125 60.578125 43.203125 60.578125 
L 43.703125 61.046875 
C 43.5 62.75 43.5 63.5 43.5 64.75 
C 43.5 66.078125 43.5 66.828125 43.703125 68.53125 
L 43.203125 69 
C 35.703125 69 31.203125 69 25.796875 69 
C 20.296875 69 15.90625 69 8.40625 69 
L 7.90625 68.796875 
C 8 62.671875 8.09375 58.265625 8.09375 55.046875 
C 8.09375 46.515625 7.796875 36.875 7.5 32.453125 
L 9.5 31.84375 
C 14.203125 36.578125 16.90625 38 21.796875 38 
C 31.40625 38 37.40625 31.140625 37.40625 20.25 
C 37.40625 9.0625 31 2.5 20.09375 2.5 
C 14.703125 2.5 9.703125 4.328125 8.296875 6.9375 
L 3.703125 15.203125 
L 1.296875 13.796875 
C 3.59375 8.0625 4.796875 4.84375 6.203125 0.421875 
C 9 -1.109375 13 -2 17.296875 -2 
C 24 -2 31.09375 0.921875 36.59375 5.75 
C 42.703125 11.1875 45.90625 18.03125 45.90625 25.46875 
C 45.90625 36.859375 37.796875 44.90625 26.40625 44.90625 
C 21.59375 44.90625 18 43.609375 11.796875 39.90625 
z
" id="URW_Palladio_L_Roman-53"/>
       </defs>
       <use transform="scale(0.996264)" xlink:href="#URW_Palladio_L_Roman-53"/>
      </g>
     </g>
    </g>
    <g id="xtick_16">
     <g id="line2d_56">
      <path clip-path="url(#pbc68356f2c)" d="M 246.292098 387.854927 
L 246.292098 208.871583 
" style="fill:none;stroke:#000000;stroke-linecap:square;stroke-opacity:0.2;stroke-width:0.5;"/>
     </g>
     <g id="line2d_57">
      <g>
       <use style="fill-opacity:0.2;stroke:#000000;stroke-opacity:0.2;stroke-width:0.8;" x="246.292098" xlink:href="#m3414534539" y="387.854927"/>
      </g>
     </g>
     <g id="text_14">
      <!-- $\mathdefault{7}$ -->
      <g transform="translate(242.805174 413.334456)scale(0.14 -0.14)">
       <defs>
        <path d="M 5.59375 0.5 
L 6.5 -0.796875 
C 10.40625 -0.5 10.40625 -0.5 11.09375 -0.5 
C 11.796875 -0.5 11.796875 -0.5 15.703125 -0.796875 
C 19.90625 10.140625 24.796875 20.578125 31.40625 32.609375 
L 49.703125 65.609375 
L 49.703125 68.3125 
C 38.90625 68.3125 35.40625 68.3125 27.296875 68.3125 
C 20 68.3125 15.09375 68.3125 5.40625 68.3125 
L 4.40625 68.109375 
C 4.703125 58.59375 4.703125 58.59375 4.703125 57.578125 
C 4.703125 56.46875 4.703125 56.46875 4.40625 47.359375 
L 7.40625 47.359375 
L 8.09375 52.96875 
C 8.90625 59.203125 9.59375 60 14.203125 60 
L 40.90625 60 
C 36.90625 51.765625 33.796875 45.953125 30 39.828125 
z
" id="URW_Palladio_L_Roman-55"/>
       </defs>
       <use transform="scale(0.996264)" xlink:href="#URW_Palladio_L_Roman-55"/>
      </g>
     </g>
    </g>
    <g id="xtick_17">
     <g id="line2d_58">
      <path clip-path="url(#pbc68356f2c)" d="M 300.281027 387.854927 
L 300.281027 208.871583 
" style="fill:none;stroke:#000000;stroke-linecap:square;stroke-opacity:0.2;stroke-width:0.5;"/>
     </g>
     <g id="line2d_59">
      <g>
       <use style="fill-opacity:0.2;stroke:#000000;stroke-opacity:0.2;stroke-width:0.8;" x="300.281027" xlink:href="#m3414534539" y="387.854927"/>
      </g>
     </g>
     <g id="text_15">
      <!-- $\mathdefault{9}$ -->
      <g transform="translate(296.794103 413.334456)scale(0.14 -0.14)">
       <use transform="scale(0.996264)" xlink:href="#URW_Palladio_L_Roman-57"/>
      </g>
     </g>
    </g>
    <g id="xtick_18">
     <g id="line2d_60">
      <path clip-path="url(#pbc68356f2c)" d="M 354.269956 387.854927 
L 354.269956 208.871583 
" style="fill:none;stroke:#000000;stroke-linecap:square;stroke-opacity:0.2;stroke-width:0.5;"/>
     </g>
     <g id="line2d_61">
      <g>
       <use style="fill-opacity:0.2;stroke:#000000;stroke-opacity:0.2;stroke-width:0.8;" x="354.269956" xlink:href="#m3414534539" y="387.854927"/>
      </g>
     </g>
     <g id="text_16">
      <!-- $\mathdefault{11}$ -->
      <g transform="translate(347.296108 413.334456)scale(0.14 -0.14)">
       <use transform="scale(0.996264)" xlink:href="#URW_Palladio_L_Roman-49"/>
       <use transform="translate(49.8132 0)scale(0.996264)" xlink:href="#URW_Palladio_L_Roman-49"/>
      </g>
     </g>
    </g>
    <g id="xtick_19">
     <g id="line2d_62">
      <path clip-path="url(#pbc68356f2c)" d="M 408.258885 387.854927 
L 408.258885 208.871583 
" style="fill:none;stroke:#000000;stroke-linecap:square;stroke-opacity:0.2;stroke-width:0.5;"/>
     </g>
     <g id="line2d_63">
      <g>
       <use style="fill-opacity:0.2;stroke:#000000;stroke-opacity:0.2;stroke-width:0.8;" x="408.258885" xlink:href="#m3414534539" y="387.854927"/>
      </g>
     </g>
     <g id="text_17">
      <!-- $\mathdefault{13}$ -->
      <g transform="translate(401.285037 413.334456)scale(0.14 -0.14)">
       <use transform="scale(0.996264)" xlink:href="#URW_Palladio_L_Roman-49"/>
       <use transform="translate(49.8132 0)scale(0.996264)" xlink:href="#URW_Palladio_L_Roman-51"/>
      </g>
     </g>
    </g>
    <g id="xtick_20">
     <g id="line2d_64">
      <path clip-path="url(#pbc68356f2c)" d="M 462.247814 387.854927 
L 462.247814 208.871583 
" style="fill:none;stroke:#000000;stroke-linecap:square;stroke-opacity:0.2;stroke-width:0.5;"/>
     </g>
     <g id="line2d_65">
      <g>
       <use style="fill-opacity:0.2;stroke:#000000;stroke-opacity:0.2;stroke-width:0.8;" x="462.247814" xlink:href="#m3414534539" y="387.854927"/>
      </g>
     </g>
     <g id="text_18">
      <!-- $\mathdefault{15}$ -->
      <g transform="translate(455.273966 413.334456)scale(0.14 -0.14)">
       <use transform="scale(0.996264)" xlink:href="#URW_Palladio_L_Roman-49"/>
       <use transform="translate(49.8132 0)scale(0.996264)" xlink:href="#URW_Palladio_L_Roman-53"/>
      </g>
     </g>
    </g>
    <g id="xtick_21">
     <g id="line2d_66">
      <path clip-path="url(#pbc68356f2c)" d="M 516.236743 387.854927 
L 516.236743 208.871583 
" style="fill:none;stroke:#000000;stroke-linecap:square;stroke-opacity:0.2;stroke-width:0.5;"/>
     </g>
     <g id="line2d_67">
      <g>
       <use style="fill-opacity:0.2;stroke:#000000;stroke-opacity:0.2;stroke-width:0.8;" x="516.236743" xlink:href="#m3414534539" y="387.854927"/>
      </g>
     </g>
     <g id="text_19">
      <!-- $\mathdefault{17}$ -->
      <g transform="translate(509.262895 413.334456)scale(0.14 -0.14)">
       <use transform="scale(0.996264)" xlink:href="#URW_Palladio_L_Roman-49"/>
       <use transform="translate(49.8132 0)scale(0.996264)" xlink:href="#URW_Palladio_L_Roman-55"/>
      </g>
     </g>
    </g>
    <g id="xtick_22">
     <g id="line2d_68">
      <path clip-path="url(#pbc68356f2c)" d="M 570.225672 387.854927 
L 570.225672 208.871583 
" style="fill:none;stroke:#000000;stroke-linecap:square;stroke-opacity:0.2;stroke-width:0.5;"/>
     </g>
     <g id="line2d_69">
      <g>
       <use style="fill-opacity:0.2;stroke:#000000;stroke-opacity:0.2;stroke-width:0.8;" x="570.225672" xlink:href="#m3414534539" y="387.854927"/>
      </g>
     </g>
     <g id="text_20">
      <!-- $\mathdefault{19}$ -->
      <g transform="translate(563.251824 413.334456)scale(0.14 -0.14)">
       <use transform="scale(0.996264)" xlink:href="#URW_Palladio_L_Roman-49"/>
       <use transform="translate(49.8132 0)scale(0.996264)" xlink:href="#URW_Palladio_L_Roman-57"/>
      </g>
     </g>
    </g>
    <g id="text_21">
     <!-- $n~\rightarrow$ -->
     <g transform="translate(300.921815 429.821504)scale(0.12 -0.12)">
      <defs>
       <path d="M 83.40625 23 
C 77.90625 18.796875 75.203125 14.703125 74.40625 13.40625 
C 69.90625 6.5 69.09375 0.203125 69.09375 0.09375 
C 69.09375 -1.09375 70.296875 -1.09375 71.09375 -1.09375 
C 72.796875 -1.09375 72.90625 -0.90625 73.296875 0.90625 
C 75.59375 10.703125 81.5 19.09375 92.796875 23.703125 
C 94 24.09375 94.296875 24.296875 94.296875 25 
C 94.296875 25.703125 93.703125 26 93.5 26.09375 
C 89.09375 27.796875 77 32.796875 73.203125 49.59375 
C 72.90625 50.796875 72.796875 51.09375 71.09375 51.09375 
C 70.296875 51.09375 69.09375 51.09375 69.09375 49.890625 
C 69.09375 49.6875 70 43.390625 74.203125 36.703125 
C 76.203125 33.703125 79.09375 30.203125 83.40625 27 
L 9.09375 27 
C 7.296875 27 5.5 27 5.5 25 
C 5.5 23 7.296875 23 9.09375 23 
z
" id="CMSY10-33"/>
      </defs>
      <use transform="scale(0.996264)" xlink:href="#URW_Palladio_L_Italic-110"/>
      <use transform="translate(110.463493 0)scale(1.038107)" xlink:href="#CMSY10-33"/>
     </g>
    </g>
   </g>
   <g id="matplotlib.axis_4">
    <g id="ytick_6">
     <g id="line2d_70">
      <path clip-path="url(#pbc68356f2c)" d="M 57.330847 385.672203 
L 570.225672 385.672203 
" style="fill:none;stroke:#000000;stroke-linecap:square;stroke-opacity:0.2;stroke-width:0.5;"/>
     </g>
     <g id="line2d_71">
      <g>
       <use style="fill-opacity:0.2;stroke:#000000;stroke-opacity:0.2;stroke-width:0.8;" x="57.330847" xlink:href="#mc4dde66ba0" y="385.672203"/>
      </g>
     </g>
     <g id="text_22">
      <!-- $\mathdefault{−4}$ -->
      <g transform="translate(23.385156 390.661968)scale(0.14 -0.14)">
       <use transform="scale(1.038107)" xlink:href="#CMSY10-0"/>
       <use transform="translate(81.941696 0)scale(0.996264)" xlink:href="#URW_Palladio_L_Roman-52"/>
      </g>
     </g>
    </g>
    <g id="ytick_7">
     <g id="line2d_72">
      <path clip-path="url(#pbc68356f2c)" d="M 57.330847 342.017729 
L 570.225672 342.017729 
" style="fill:none;stroke:#000000;stroke-linecap:square;stroke-opacity:0.2;stroke-width:0.5;"/>
     </g>
     <g id="line2d_73">
      <g>
       <use style="fill-opacity:0.2;stroke:#000000;stroke-opacity:0.2;stroke-width:0.8;" x="57.330847" xlink:href="#mc4dde66ba0" y="342.017729"/>
      </g>
     </g>
     <g id="text_23">
      <!-- $\mathdefault{−2}$ -->
      <g transform="translate(23.385156 347.007493)scale(0.14 -0.14)">
       <use transform="scale(1.038107)" xlink:href="#CMSY10-0"/>
       <use transform="translate(81.941696 0)scale(0.996264)" xlink:href="#URW_Palladio_L_Roman-50"/>
      </g>
     </g>
    </g>
    <g id="ytick_8">
     <g id="line2d_74">
      <path clip-path="url(#pbc68356f2c)" d="M 57.330847 298.363255 
L 570.225672 298.363255 
" style="fill:none;stroke:#000000;stroke-linecap:square;stroke-opacity:0.2;stroke-width:0.5;"/>
     </g>
     <g id="line2d_75">
      <g>
       <use style="fill-opacity:0.2;stroke:#000000;stroke-opacity:0.2;stroke-width:0.8;" x="57.330847" xlink:href="#mc4dde66ba0" y="298.363255"/>
      </g>
     </g>
     <g id="text_24">
      <!-- $\mathdefault{0}$ -->
      <g transform="translate(34.856999 303.353019)scale(0.14 -0.14)">
       <use transform="scale(0.996264)" xlink:href="#URW_Palladio_L_Roman-48"/>
      </g>
     </g>
    </g>
    <g id="ytick_9">
     <g id="line2d_76">
      <path clip-path="url(#pbc68356f2c)" d="M 57.330847 254.708781 
L 570.225672 254.708781 
" style="fill:none;stroke:#000000;stroke-linecap:square;stroke-opacity:0.2;stroke-width:0.5;"/>
     </g>
     <g id="line2d_77">
      <g>
       <use style="fill-opacity:0.2;stroke:#000000;stroke-opacity:0.2;stroke-width:0.8;" x="57.330847" xlink:href="#mc4dde66ba0" y="254.708781"/>
      </g>
     </g>
     <g id="text_25">
      <!-- $\mathdefault{2}$ -->
      <g transform="translate(34.856999 259.698545)scale(0.14 -0.14)">
       <use transform="scale(0.996264)" xlink:href="#URW_Palladio_L_Roman-50"/>
      </g>
     </g>
    </g>
    <g id="ytick_10">
     <g id="line2d_78">
      <path clip-path="url(#pbc68356f2c)" d="M 57.330847 211.054307 
L 570.225672 211.054307 
" style="fill:none;stroke:#000000;stroke-linecap:square;stroke-opacity:0.2;stroke-width:0.5;"/>
     </g>
     <g id="line2d_79">
      <g>
       <use style="fill-opacity:0.2;stroke:#000000;stroke-opacity:0.2;stroke-width:0.8;" x="57.330847" xlink:href="#mc4dde66ba0" y="211.054307"/>
      </g>
     </g>
     <g id="text_26">
      <!-- $\mathdefault{4}$ -->
      <g transform="translate(34.856999 216.044071)scale(0.14 -0.14)">
       <use transform="scale(0.996264)" xlink:href="#URW_Palladio_L_Roman-52"/>
      </g>
     </g>
    </g>
    <g id="text_27">
     <!-- $z^n$ (imaginary part) -->
     <g transform="translate(16.013872 349.028249)rotate(-90)scale(0.12 -0.12)">
      <defs>
       <path d="M 18.796875 46.765625 
L 17.90625 47.171875 
C 12.796875 45.0625 7.59375 43.640625 2.296875 43.046875 
L 2.296875 40.25 
L 6 40.25 
C 10 40.25 10.40625 39.546875 10.40625 32.890625 
L 10.40625 10.171875 
C 10.40625 3.8125 10.09375 3.109375 6.703125 3.109375 
L 2.09375 3.109375 
L 2.09375 0 
C 12.09375 0 12.09375 0 14.59375 0 
C 17.09375 0 17.09375 0 27.09375 0 
L 27.09375 3.109375 
L 22.5 3.109375 
C 19.09375 3.109375 18.796875 3.8125 18.796875 10.171875 
z
M 14.203125 69 
C 11.203125 69 8.59375 66.390625 8.59375 63.375 
C 8.59375 60.46875 11.203125 57.875 14.09375 57.875 
C 17 57.875 19.703125 60.46875 19.703125 63.375 
C 19.703125 66.1875 17 69 14.203125 69 
z
" id="URW_Palladio_L_Roman-105"/>
       <path d="M 1.796875 40.078125 
L 5.5 40.078125 
C 9.5 40.078125 9.90625 39.375 9.90625 32.71875 
L 9.90625 10.046875 
C 9.90625 3.703125 9.59375 3 6.203125 3 
L 1.59375 3 
L 1.59375 -0.109375 
C 11.203125 -0.109375 11.5 -0.109375 14.296875 -0.109375 
C 17.09375 -0.109375 19.703125 -0.109375 26.203125 -0.109375 
L 26.203125 2.796875 
L 22 3.203125 
C 18.59375 3.203125 18.296875 3.90625 18.296875 10.21875 
L 18.296875 31.46875 
C 18.296875 35.96875 24.90625 40.875 30.90625 40.875 
C 36.296875 40.875 40 35.734375 40 28.09375 
L 40 10.046875 
C 40 3.703125 39.703125 3 36.296875 3 
L 31.703125 3 
L 31.703125 -0.109375 
C 41.703125 -0.109375 41.703125 -0.109375 44.203125 -0.109375 
C 46.703125 -0.109375 46.703125 -0.109375 56.703125 -0.109375 
L 56.703125 3 
L 52.09375 3 
C 48.703125 3 48.40625 3.703125 48.40625 10.046875 
L 48.40625 31.421875 
C 48.40625 35.9375 55 40.875 61 40.875 
C 66.40625 40.875 70.09375 35.796875 70.09375 28.21875 
L 70.09375 -0.109375 
C 76.203125 -0.109375 76.296875 -0.109375 78 -0.109375 
C 79.296875 -0.109375 79.296875 -0.109375 86.90625 -0.109375 
L 86.90625 3 
L 82.203125 3 
C 78.796875 3 78.5 3.703125 78.5 10.046875 
L 78.5 30.78125 
C 78.5 40.75 72.703125 47 63.5 47 
C 60 47 57.09375 46.09375 55.296875 44.484375 
L 47.703125 37.6875 
C 44.5 44.28125 40.40625 47 33.5 47 
C 29.796875 47 27 46.09375 25.203125 44.484375 
L 18.296875 38.078125 
L 18.296875 46.59375 
L 17.40625 47 
C 12.296875 44.890625 7.09375 43.484375 1.796875 42.890625 
z
" id="URW_Palladio_L_Roman-109"/>
       <path d="M 51.90625 38 
L 54.40625 42.109375 
L 54 43.109375 
L 39.796875 43.109375 
C 36.09375 45.890625 32.5 47 27.59375 47 
C 23.203125 47 18.09375 45.625 14 43.25 
C 8.40625 40.109375 5.5 35.28125 5.5 29.28125 
C 5.5 22 10.09375 16.984375 17.5 16.1875 
L 9.59375 10 
C 8.59375 8.484375 8.09375 7.171875 8.09375 5.640625 
C 8.09375 2.8125 9.90625 1.1875 14.703125 -0.21875 
L 6 -4.9375 
C 4.59375 -5.734375 3.203125 -9.4375 3.203125 -12.546875 
C 3.203125 -21.6875 12.09375 -28 24.796875 -28 
C 39.90625 -28 51.796875 -18.46875 51.796875 -6.234375 
C 51.796875 0.984375 47 6 40 6 
L 24 6 
C 18.796875 6 16.40625 7.21875 16.40625 9.984375 
C 16.40625 11.3125 17.203125 12.421875 19.796875 14.671875 
C 20.40625 15.1875 20.59375 15.390625 21 15.796875 
C 22 15.6875 22.59375 15.59375 23.40625 15.59375 
C 27.703125 15.59375 33 17.46875 37.09375 20.3125 
C 41.59375 23.546875 43.796875 27.484375 43.796875 32.703125 
C 43.796875 34.65625 43.5 35.9375 42.703125 38 
z
M 24 43.59375 
C 30.796875 43.59375 35.40625 38.09375 35.40625 29.765625 
C 35.40625 23.421875 31.203125 19 25.09375 19 
C 18.40625 19 13.90625 24.09375 13.90625 31.640625 
C 13.90625 39.171875 17.59375 43.59375 24 43.59375 
z
M 28.703125 -1.015625 
C 40 -1.015625 43.90625 -3.3125 43.90625 -9.84375 
C 43.90625 -18.46875 36 -24.890625 25.5 -24.890625 
C 16.796875 -24.890625 10.796875 -19.78125 10.796875 -12.34375 
C 10.796875 -7.84375 13.40625 -3.71875 17.40625 -2.015625 
C 19 -1.21875 21.796875 -1.015625 28.703125 -1.015625 
z
" id="URW_Palladio_L_Roman-103"/>
       <path d="M 41 -0.109375 
C 47.09375 -0.109375 47.203125 -0.109375 48.90625 -0.109375 
C 50.296875 -0.109375 50.296875 -0.109375 57.203125 -0.109375 
L 57.203125 2.796875 
L 53.09375 3.203125 
C 49.703125 3.203125 49.40625 3.8125 49.40625 10.21875 
L 49.40625 29.5625 
C 49.40625 41.28125 43.90625 47 32.703125 47 
C 29 47 26.90625 46.296875 24.796875 44.484375 
L 17.203125 37.875 
L 17.203125 46.59375 
L 16.296875 47 
C 11.203125 44.890625 6 43.484375 0.703125 42.890625 
L 0.703125 40.078125 
L 4.40625 40.078125 
C 8.40625 40.078125 8.796875 39.375 8.796875 32.71875 
L 8.796875 10.046875 
C 8.796875 3.703125 8.5 3 5.09375 3 
L 0.59375 3 
L 0.59375 -0.109375 
C 7.40625 -0.109375 10.09375 -0.109375 13 -0.109375 
C 15.90625 -0.109375 18.59375 -0.109375 25.40625 -0.109375 
L 25.40625 3 
L 20.90625 3 
C 17.5 3 17.203125 3.703125 17.203125 10.046875 
L 17.203125 31.421875 
C 17.203125 35.9375 23.796875 40.875 29.90625 40.875 
C 36.59375 40.875 41 35.890625 41 28.21875 
z
" id="URW_Palladio_L_Roman-110"/>
       <path d="M 29.703125 8.8125 
C 27.5 12.625 26.40625 14.9375 24.59375 19.84375 
L 18.203125 36.671875 
C 17.59375 38.375 17.203125 39.875 17.203125 40.90625 
C 17.203125 42.34375 18.296875 43.1875 20.59375 43.1875 
L 24.40625 43.1875 
L 24.40625 46 
C 14.703125 46 14.703125 46 12.796875 46 
C 10.90625 46 10.90625 46 1.203125 46 
L 1.203125 43.390625 
L 3 43.1875 
C 5.5 42.890625 6.703125 41.78125 8.203125 38.296875 
L 19.09375 12.109375 
C 21.90625 5.3125 22.90625 2.90625 24.703125 -2.09375 
L 22.40625 -8.1875 
C 19.203125 -16.59375 15.296875 -21.28125 11.5 -21.28125 
C 9.90625 -21.28125 8.09375 -20.484375 6.40625 -18.984375 
L 5.09375 -18.984375 
L 2.703125 -26.5 
C 4.59375 -27.5 6.203125 -28 8.09375 -28 
C 14.796875 -28 19.09375 -24.40625 22.90625 -15.703125 
L 43.203125 31.09375 
C 47.203125 40.1875 49.09375 42.890625 51.59375 43.1875 
L 54.40625 43.390625 
L 54.40625 46 
C 46.5 46 46.5 46 44.90625 46 
C 43.296875 46 43.296875 46 35.40625 46 
L 35.40625 43.390625 
L 38 43.1875 
C 40.796875 42.984375 42.203125 42.09375 42.203125 40.6875 
C 42.203125 39.984375 42 39.078125 41.59375 38.078125 
z
" id="URW_Palladio_L_Roman-121"/>
      </defs>
      <use transform="scale(0.996264)" xlink:href="#URW_Palladio_L_Italic-122"/>
      <use transform="translate(46.425879 36.164371)scale(0.757155)" xlink:href="#URW_Palladio_L_Italic-110"/>
      <use transform="translate(114.874929 0)scale(0.996264)" xlink:href="#URW_Palladio_L_Roman-40"/>
      <use transform="translate(148.050159 0)scale(0.996264)" xlink:href="#URW_Palladio_L_Roman-105"/>
      <use transform="translate(177.04052 0)scale(0.996264)" xlink:href="#URW_Palladio_L_Roman-109"/>
      <use transform="translate(265.010194 0)scale(0.996264)" xlink:href="#URW_Palladio_L_Roman-97"/>
      <use transform="translate(314.823395 0)scale(0.996264)" xlink:href="#URW_Palladio_L_Roman-103"/>
      <use transform="translate(370.215072 0)scale(0.996264)" xlink:href="#URW_Palladio_L_Roman-105"/>
      <use transform="translate(399.205433 0)scale(0.996264)" xlink:href="#URW_Palladio_L_Roman-110"/>
      <use transform="translate(457.187494 0)scale(0.996264)" xlink:href="#URW_Palladio_L_Roman-97"/>
      <use transform="translate(507.000694 0)scale(0.996264)" xlink:href="#URW_Palladio_L_Roman-114"/>
      <use transform="translate(546.352591 0)scale(0.996264)" xlink:href="#URW_Palladio_L_Roman-121"/>
      <use transform="translate(626.650868 0)scale(0.996264)" xlink:href="#URW_Palladio_L_Roman-112"/>
      <use transform="translate(686.525262 0)scale(0.996264)" xlink:href="#URW_Palladio_L_Roman-97"/>
      <use transform="translate(736.338462 0)scale(0.996264)" xlink:href="#URW_Palladio_L_Roman-114"/>
      <use transform="translate(775.690359 0)scale(0.996264)" xlink:href="#URW_Palladio_L_Roman-116"/>
      <use transform="translate(808.167446 0)scale(0.996264)" xlink:href="#URW_Palladio_L_Roman-41"/>
     </g>
    </g>
   </g>
   <g id="line2d_80">
    <path clip-path="url(#pbc68356f2c)" d="M 57.330847 298.363255 
L 84.325311 284.472486 
L 111.319776 316.043317 
L 138.31424 287.111732 
L 165.308705 298.363255 
L 192.303169 307.476988 
L 219.297634 286.763366 
L 246.292098 305.745379 
L 273.286563 298.363255 
L 300.281027 292.383734 
L 327.275492 305.973942 
L 354.269956 293.519843 
L 381.26442 298.363255 
L 408.258885 302.286418 
L 435.253349 293.369883 
L 462.247814 301.541017 
L 489.242278 298.363255 
L 516.236743 295.789267 
L 543.231207 301.639406 
L 570.225672 296.278325 
" style="fill:none;"/>
    <g clip-path="url(#pbc68356f2c)">
     <use style="fill:#0271ae;" x="57.330847" xlink:href="#m50d5ed5e85" y="298.363255"/>
     <use style="fill:#0271ae;" x="84.325311" xlink:href="#m50d5ed5e85" y="284.472486"/>
     <use style="fill:#0271ae;" x="111.319776" xlink:href="#m50d5ed5e85" y="316.043317"/>
     <use style="fill:#0271ae;" x="138.31424" xlink:href="#m50d5ed5e85" y="287.111732"/>
     <use style="fill:#0271ae;" x="165.308705" xlink:href="#m50d5ed5e85" y="298.363255"/>
     <use style="fill:#0271ae;" x="192.303169" xlink:href="#m50d5ed5e85" y="307.476988"/>
     <use style="fill:#0271ae;" x="219.297634" xlink:href="#m50d5ed5e85" y="286.763366"/>
     <use style="fill:#0271ae;" x="246.292098" xlink:href="#m50d5ed5e85" y="305.745379"/>
     <use style="fill:#0271ae;" x="273.286563" xlink:href="#m50d5ed5e85" y="298.363255"/>
     <use style="fill:#0271ae;" x="300.281027" xlink:href="#m50d5ed5e85" y="292.383734"/>
     <use style="fill:#0271ae;" x="327.275492" xlink:href="#m50d5ed5e85" y="305.973942"/>
     <use style="fill:#0271ae;" x="354.269956" xlink:href="#m50d5ed5e85" y="293.519843"/>
     <use style="fill:#0271ae;" x="381.26442" xlink:href="#m50d5ed5e85" y="298.363255"/>
     <use style="fill:#0271ae;" x="408.258885" xlink:href="#m50d5ed5e85" y="302.286418"/>
     <use style="fill:#0271ae;" x="435.253349" xlink:href="#m50d5ed5e85" y="293.369883"/>
     <use style="fill:#0271ae;" x="462.247814" xlink:href="#m50d5ed5e85" y="301.541017"/>
     <use style="fill:#0271ae;" x="489.242278" xlink:href="#m50d5ed5e85" y="298.363255"/>
     <use style="fill:#0271ae;" x="516.236743" xlink:href="#m50d5ed5e85" y="295.789267"/>
     <use style="fill:#0271ae;" x="543.231207" xlink:href="#m50d5ed5e85" y="301.639406"/>
     <use style="fill:#0271ae;" x="570.225672" xlink:href="#m50d5ed5e85" y="296.278325"/>
    </g>
   </g>
   <g id="line2d_81">
    <path clip-path="url(#pbc68356f2c)" d="M 57.330847 298.363255 
L 84.325311 310.368235 
L 111.319776 321.235814 
L 138.31424 327.415307 
L 165.308705 326.039052 
L 192.303169 315.939747 
L 219.297634 298.363255 
L 246.292098 277.0957 
L 273.286563 257.84312 
L 300.281027 246.895772 
L 327.275492 249.333892 
L 354.269956 267.225427 
L 381.26442 298.363255 
L 408.258885 336.040026 
L 435.253349 370.147145 
L 462.247814 389.541041 
L 489.242278 385.221762 
L 516.236743 353.525815 
L 543.231207 298.363255 
L 570.225672 231.616556 
" style="fill:none;"/>
    <g clip-path="url(#pbc68356f2c)">
     <use style="fill:#dc2830;" x="57.330847" xlink:href="#mfb38362468" y="298.363255"/>
     <use style="fill:#dc2830;" x="84.325311" xlink:href="#mfb38362468" y="310.368235"/>
     <use style="fill:#dc2830;" x="111.319776" xlink:href="#mfb38362468" y="321.235814"/>
     <use style="fill:#dc2830;" x="138.31424" xlink:href="#mfb38362468" y="327.415307"/>
     <use style="fill:#dc2830;" x="165.308705" xlink:href="#mfb38362468" y="326.039052"/>
     <use style="fill:#dc2830;" x="192.303169" xlink:href="#mfb38362468" y="315.939747"/>
     <use style="fill:#dc2830;" x="219.297634" xlink:href="#mfb38362468" y="298.363255"/>
     <use style="fill:#dc2830;" x="246.292098" xlink:href="#mfb38362468" y="277.0957"/>
     <use style="fill:#dc2830;" x="273.286563" xlink:href="#mfb38362468" y="257.84312"/>
     <use style="fill:#dc2830;" x="300.281027" xlink:href="#mfb38362468" y="246.895772"/>
     <use style="fill:#dc2830;" x="327.275492" xlink:href="#mfb38362468" y="249.333892"/>
     <use style="fill:#dc2830;" x="354.269956" xlink:href="#mfb38362468" y="267.225427"/>
     <use style="fill:#dc2830;" x="381.26442" xlink:href="#mfb38362468" y="298.363255"/>
     <use style="fill:#dc2830;" x="408.258885" xlink:href="#mfb38362468" y="336.040026"/>
     <use style="fill:#dc2830;" x="435.253349" xlink:href="#mfb38362468" y="370.147145"/>
     <use style="fill:#dc2830;" x="462.247814" xlink:href="#mfb38362468" y="389.541041"/>
     <use style="fill:#dc2830;" x="489.242278" xlink:href="#mfb38362468" y="385.221762"/>
     <use style="fill:#dc2830;" x="516.236743" xlink:href="#mfb38362468" y="353.525815"/>
     <use style="fill:#dc2830;" x="543.231207" xlink:href="#mfb38362468" y="298.363255"/>
     <use style="fill:#dc2830;" x="570.225672" xlink:href="#mfb38362468" y="231.616556"/>
    </g>
   </g>
   <g id="line2d_82">
    <path clip-path="url(#pbc68356f2c)" d="M 57.330847 298.363255 
L 84.325311 279.460313 
L 111.319776 279.460313 
L 138.31424 298.363255 
L 165.308705 317.266197 
L 192.303169 317.266197 
L 219.297634 298.363255 
L 246.292098 279.460313 
L 273.286563 279.460313 
L 300.281027 298.363255 
L 327.275492 317.266197 
L 354.269956 317.266197 
L 381.26442 298.363255 
L 408.258885 279.460313 
L 435.253349 279.460313 
L 462.247814 298.363255 
L 489.242278 317.266197 
L 516.236743 317.266197 
L 543.231207 298.363255 
L 570.225672 279.460313 
" style="fill:none;"/>
    <defs>
     <path d="M 0 1.75 
C 0.464105 1.75 0.909265 1.565609 1.237437 1.237437 
C 1.565609 0.909265 1.75 0.464105 1.75 0 
C 1.75 -0.464105 1.565609 -0.909265 1.237437 -1.237437 
C 0.909265 -1.565609 0.464105 -1.75 0 -1.75 
C -0.464105 -1.75 -0.909265 -1.565609 -1.237437 -1.237437 
C -1.565609 -0.909265 -1.75 -0.464105 -1.75 0 
C -1.75 0.464105 -1.565609 0.909265 -1.237437 1.237437 
C -0.909265 1.565609 -0.464105 1.75 0 1.75 
z
" id="meaa6be02c7"/>
    </defs>
    <g clip-path="url(#pbc68356f2c)">
     <use style="fill:#ffc438;" x="57.330847" xlink:href="#meaa6be02c7" y="298.363255"/>
     <use style="fill:#ffc438;" x="84.325311" xlink:href="#meaa6be02c7" y="279.460313"/>
     <use style="fill:#ffc438;" x="111.319776" xlink:href="#meaa6be02c7" y="279.460313"/>
     <use style="fill:#ffc438;" x="138.31424" xlink:href="#meaa6be02c7" y="298.363255"/>
     <use style="fill:#ffc438;" x="165.308705" xlink:href="#meaa6be02c7" y="317.266197"/>
     <use style="fill:#ffc438;" x="192.303169" xlink:href="#meaa6be02c7" y="317.266197"/>
     <use style="fill:#ffc438;" x="219.297634" xlink:href="#meaa6be02c7" y="298.363255"/>
     <use style="fill:#ffc438;" x="246.292098" xlink:href="#meaa6be02c7" y="279.460313"/>
     <use style="fill:#ffc438;" x="273.286563" xlink:href="#meaa6be02c7" y="279.460313"/>
     <use style="fill:#ffc438;" x="300.281027" xlink:href="#meaa6be02c7" y="298.363255"/>
     <use style="fill:#ffc438;" x="327.275492" xlink:href="#meaa6be02c7" y="317.266197"/>
     <use style="fill:#ffc438;" x="354.269956" xlink:href="#meaa6be02c7" y="317.266197"/>
     <use style="fill:#ffc438;" x="381.26442" xlink:href="#meaa6be02c7" y="298.363255"/>
     <use style="fill:#ffc438;" x="408.258885" xlink:href="#meaa6be02c7" y="279.460313"/>
     <use style="fill:#ffc438;" x="435.253349" xlink:href="#meaa6be02c7" y="279.460313"/>
     <use style="fill:#ffc438;" x="462.247814" xlink:href="#meaa6be02c7" y="298.363255"/>
     <use style="fill:#ffc438;" x="489.242278" xlink:href="#meaa6be02c7" y="317.266197"/>
     <use style="fill:#ffc438;" x="516.236743" xlink:href="#meaa6be02c7" y="317.266197"/>
     <use style="fill:#ffc438;" x="543.231207" xlink:href="#meaa6be02c7" y="298.363255"/>
     <use style="fill:#ffc438;" x="570.225672" xlink:href="#meaa6be02c7" y="279.460313"/>
    </g>
   </g>
  </g>
 </g>
 <defs>
  <clipPath id="pdba2710fcc">
   <rect height="178.983344" width="512.894825" x="57.330847" y="10.007041"/>
  </clipPath>
  <clipPath id="pbc68356f2c">
   <rect height="178.983344" width="512.894825" x="57.330847" y="208.871583"/>
  </clipPath>
 </defs>
</svg>
