<?xml version="1.0" encoding="utf-8" standalone="no"?>
<!DOCTYPE svg PUBLIC "-//W3C//DTD SVG 1.1//EN"
  "http://www.w3.org/Graphics/SVG/1.1/DTD/svg11.dtd">
<svg height="238.79952pt" version="1.1" viewBox="0 0 238.79952 238.79952" width="238.79952pt" xmlns="http://www.w3.org/2000/svg" xmlns:xlink="http://www.w3.org/1999/xlink">
 <metadata>
  <rdf:RDF xmlns:cc="http://creativecommons.org/ns#" xmlns:dc="http://purl.org/dc/elements/1.1/" xmlns:rdf="http://www.w3.org/1999/02/22-rdf-syntax-ns#">
   <cc:Work>
    <dc:type rdf:resource="http://purl.org/dc/dcmitype/StillImage"/>
    <dc:date>2020-08-12T07:30:39.221473</dc:date>
    <dc:format>image/svg+xml</dc:format>
    <dc:creator>
     <cc:Agent>
      <dc:title>Matplotlib v3.3.0rc1.post382+g019a75231, https://matplotlib.org/</dc:title>
     </cc:Agent>
    </dc:creator>
   </cc:Work>
  </rdf:RDF>
 </metadata>
 <defs>
  <style type="text/css">*{stroke-linecap:butt;stroke-linejoin:round;}</style>
 </defs>
 <g id="figure_1">
  <g id="patch_1">
   <path d="M 0 238.79952 
L 238.79952 238.79952 
L 238.79952 0 
L 0 0 
z
" style="fill:none;"/>
  </g>
  <g id="axes_1">
   <g id="patch_2">
    <path d="M 7.2 231.59952 
L 231.59952 231.59952 
L 231.59952 7.2 
L 7.2 7.2 
z
" style="fill:none;"/>
   </g>
   <g id="matplotlib.axis_1">
    <g id="xtick_1">
     <g id="line2d_1">
      <path clip-path="url(#pe58720f158)" d="M 29.639952 231.59952 
L 29.639952 7.2 
" style="fill:none;stroke:#000000;stroke-linecap:square;stroke-opacity:0.2;stroke-width:0.5;"/>
     </g>
     <g id="line2d_2">
      <defs>
       <path d="M 0 0 
L 0 3.5 
" id="m4b1a576b3e" style="stroke:#000000;stroke-opacity:0.2;stroke-width:0.8;"/>
      </defs>
      <g>
       <use style="fill-opacity:0.2;stroke:#000000;stroke-opacity:0.2;stroke-width:0.8;" x="29.639952" xlink:href="#m4b1a576b3e" y="231.59952"/>
      </g>
     </g>
    </g>
    <g id="xtick_2">
     <g id="line2d_3">
      <path clip-path="url(#pe58720f158)" d="M 74.519856 231.59952 
L 74.519856 7.2 
" style="fill:none;stroke:#000000;stroke-linecap:square;stroke-opacity:0.2;stroke-width:0.5;"/>
     </g>
     <g id="line2d_4">
      <g>
       <use style="fill-opacity:0.2;stroke:#000000;stroke-opacity:0.2;stroke-width:0.8;" x="74.519856" xlink:href="#m4b1a576b3e" y="231.59952"/>
      </g>
     </g>
    </g>
    <g id="xtick_3">
     <g id="line2d_5">
      <path clip-path="url(#pe58720f158)" d="M 119.39976 231.59952 
L 119.39976 7.2 
" style="fill:none;stroke:#000000;stroke-linecap:square;stroke-opacity:0.2;stroke-width:0.5;"/>
     </g>
     <g id="line2d_6">
      <g>
       <use style="fill-opacity:0.2;stroke:#000000;stroke-opacity:0.2;stroke-width:0.8;" x="119.39976" xlink:href="#m4b1a576b3e" y="231.59952"/>
      </g>
     </g>
    </g>
    <g id="xtick_4">
     <g id="line2d_7">
      <path clip-path="url(#pe58720f158)" d="M 164.279664 231.59952 
L 164.279664 7.2 
" style="fill:none;stroke:#000000;stroke-linecap:square;stroke-opacity:0.2;stroke-width:0.5;"/>
     </g>
     <g id="line2d_8">
      <g>
       <use style="fill-opacity:0.2;stroke:#000000;stroke-opacity:0.2;stroke-width:0.8;" x="164.279664" xlink:href="#m4b1a576b3e" y="231.59952"/>
      </g>
     </g>
    </g>
    <g id="xtick_5">
     <g id="line2d_9">
      <path clip-path="url(#pe58720f158)" d="M 209.159568 231.59952 
L 209.159568 7.2 
" style="fill:none;stroke:#000000;stroke-linecap:square;stroke-opacity:0.2;stroke-width:0.5;"/>
     </g>
     <g id="line2d_10">
      <g>
       <use style="fill-opacity:0.2;stroke:#000000;stroke-opacity:0.2;stroke-width:0.8;" x="209.159568" xlink:href="#m4b1a576b3e" y="231.59952"/>
      </g>
     </g>
    </g>
   </g>
   <g id="matplotlib.axis_2">
    <g id="ytick_1">
     <g id="line2d_11">
      <path clip-path="url(#pe58720f158)" d="M 7.2 209.159568 
L 231.59952 209.159568 
" style="fill:none;stroke:#000000;stroke-linecap:square;stroke-opacity:0.2;stroke-width:0.5;"/>
     </g>
     <g id="line2d_12">
      <defs>
       <path d="M 0 0 
L -3.5 0 
" id="m4a908fbcea" style="stroke:#000000;stroke-opacity:0.2;stroke-width:0.8;"/>
      </defs>
      <g>
       <use style="fill-opacity:0.2;stroke:#000000;stroke-opacity:0.2;stroke-width:0.8;" x="7.2" xlink:href="#m4a908fbcea" y="209.159568"/>
      </g>
     </g>
    </g>
    <g id="ytick_2">
     <g id="line2d_13">
      <path clip-path="url(#pe58720f158)" d="M 7.2 164.279664 
L 231.59952 164.279664 
" style="fill:none;stroke:#000000;stroke-linecap:square;stroke-opacity:0.2;stroke-width:0.5;"/>
     </g>
     <g id="line2d_14">
      <g>
       <use style="fill-opacity:0.2;stroke:#000000;stroke-opacity:0.2;stroke-width:0.8;" x="7.2" xlink:href="#m4a908fbcea" y="164.279664"/>
      </g>
     </g>
    </g>
    <g id="ytick_3">
     <g id="line2d_15">
      <path clip-path="url(#pe58720f158)" d="M 7.2 119.39976 
L 231.59952 119.39976 
" style="fill:none;stroke:#000000;stroke-linecap:square;stroke-opacity:0.2;stroke-width:0.5;"/>
     </g>
     <g id="line2d_16">
      <g>
       <use style="fill-opacity:0.2;stroke:#000000;stroke-opacity:0.2;stroke-width:0.8;" x="7.2" xlink:href="#m4a908fbcea" y="119.39976"/>
      </g>
     </g>
    </g>
    <g id="ytick_4">
     <g id="line2d_17">
      <path clip-path="url(#pe58720f158)" d="M 7.2 74.519856 
L 231.59952 74.519856 
" style="fill:none;stroke:#000000;stroke-linecap:square;stroke-opacity:0.2;stroke-width:0.5;"/>
     </g>
     <g id="line2d_18">
      <g>
       <use style="fill-opacity:0.2;stroke:#000000;stroke-opacity:0.2;stroke-width:0.8;" x="7.2" xlink:href="#m4a908fbcea" y="74.519856"/>
      </g>
     </g>
    </g>
    <g id="ytick_5">
     <g id="line2d_19">
      <path clip-path="url(#pe58720f158)" d="M 7.2 29.639952 
L 231.59952 29.639952 
" style="fill:none;stroke:#000000;stroke-linecap:square;stroke-opacity:0.2;stroke-width:0.5;"/>
     </g>
     <g id="line2d_20">
      <g>
       <use style="fill-opacity:0.2;stroke:#000000;stroke-opacity:0.2;stroke-width:0.8;" x="7.2" xlink:href="#m4a908fbcea" y="29.639952"/>
      </g>
     </g>
    </g>
   </g>
   <g id="patch_3">
    <path clip-path="url(#pe58720f158)" d="M 119.39976 209.159568 
C 143.204339 209.159568 166.037149 199.701908 182.869529 182.869529 
C 199.701908 166.037149 209.159568 143.204339 209.159568 119.39976 
C 209.159568 95.595181 199.701908 72.762371 182.869529 55.929991 
C 166.037149 39.097612 143.204339 29.639952 119.39976 29.639952 
C 95.595181 29.639952 72.762371 39.097612 55.929991 55.929991 
C 39.097612 72.762371 29.639952 95.595181 29.639952 119.39976 
C 29.639952 143.204339 39.097612 166.037149 55.929991 182.869529 
C 72.762371 199.701908 95.595181 209.159568 119.39976 209.159568 
z
" style="fill:none;stroke:#000000;stroke-linejoin:miter;stroke-width:5;"/>
   </g>
   <g id="patch_4">
    <path clip-path="url(#pe58720f158)" d="M 146.327702 119.39976 
C 146.327702 114.673271 145.083287 110.029049 142.720042 105.935789 
C 140.356798 101.842529 136.956991 98.442722 132.863731 96.079478 
L 119.39976 119.39976 
L 146.327702 119.39976 
z
" style="fill:#6e3b87;"/>
   </g>
   <g id="patch_5">
    <path clip-path="url(#pe58720f158)" d="M 132.863731 142.720042 
C 136.956991 140.356798 140.356798 136.956991 142.720042 132.863731 
C 145.083287 128.770471 146.327702 124.126249 146.327702 119.39976 
L 119.39976 119.39976 
L 132.863731 142.720042 
z
" style="fill:#6e3b87;opacity:0.5;"/>
   </g>
   <g id="line2d_21">
    <path clip-path="url(#pe58720f158)" d="M 119.39976 119.39976 
L 164.279664 41.665486 
" style="fill:none;stroke:#0271ae;stroke-linecap:square;stroke-width:3;"/>
   </g>
   <g id="line2d_22">
    <path clip-path="url(#pe58720f158)" d="M 119.39976 119.39976 
L 164.279664 197.134034 
" style="fill:none;stroke:#dc2830;stroke-linecap:square;stroke-width:3;"/>
   </g>
   <g id="text_1">
    <!-- $\theta$ -->
    <g style="fill:#6e3b87;" transform="translate(146.327702 105.935789)scale(0.14 -0.14)">
     <defs>
      <path d="M 31.703125 71 
C 27.40625 71 23 68.90625 18.40625 64.421875 
C 9.5 55.953125 2.90625 40.875 2.90625 22.546875 
C 2.90625 6.6875 6.09375 -1 14.5 -1 
C 19.796875 -1 26 2.6875 30.703125 8.6875 
C 37.5 17.359375 43.703125 33.8125 43.703125 48.875 
C 43.703125 62.734375 39.90625 71 31.703125 71 
z
M 23.09375 33 
C 29.90625 33 32.703125 32.703125 34.40625 31.90625 
C 32.203125 21.84375 28.5 12.890625 25.296875 7.6875 
C 23.296875 4.609375 20.59375 2.828125 17.59375 2.828125 
C 11.59375 2.828125 10.5 10.484375 10.5 22.34375 
C 10.5 25.421875 10.703125 28.609375 11.203125 31.8125 
C 13.296875 32.703125 16 33 23.09375 33 
z
M 29.203125 67.1875 
C 35.5 67.1875 36.09375 59.015625 36.09375 46.671875 
C 36.09375 43.875 35.90625 41 35.5 38.203125 
C 33.5 37.515625 30.40625 37.21875 23.796875 37.21875 
C 17 37.21875 14.09375 37.515625 12.296875 38.21875 
C 14.90625 49.96875 19.5 60.71875 23.09375 64.890625 
C 24.5 66.390625 26.796875 67.1875 29.203125 67.1875 
z
" id="Pazo_Math_Italic-113"/>
     </defs>
     <use transform="scale(0.996264)" xlink:href="#Pazo_Math_Italic-113"/>
    </g>
   </g>
   <g id="text_2">
    <!-- $-\theta$ -->
    <g style="fill:#6e3b87;" transform="translate(141.839712 141.839712)scale(0.14 -0.14)">
     <defs>
      <path d="M 65.90625 23 
C 67.59375 23 69.40625 23 69.40625 25 
C 69.40625 27 67.59375 27 65.90625 27 
L 11.796875 27 
C 10.09375 27 8.296875 27 8.296875 25 
C 8.296875 23 10.09375 23 11.796875 23 
z
" id="CMSY10-0"/>
     </defs>
     <use transform="scale(1.038107)" xlink:href="#CMSY10-0"/>
     <use transform="translate(83.186996 0)scale(0.996264)" xlink:href="#Pazo_Math_Italic-113"/>
    </g>
   </g>
   <g id="text_3">
    <!-- $e^{\mathrm{j}\cdot\theta}$ -->
    <g style="fill:#0271ae;" transform="translate(168.767654 37.177496)scale(0.14 -0.14)">
     <defs>
      <path d="M 32.796875 11.125 
L 30.40625 9.4375 
C 25.09375 5.671875 20.296875 3.671875 16.703125 3.671875 
C 12 3.671875 9.09375 7.359375 9.09375 13.328125 
C 9.09375 15.796875 9.40625 18.484375 9.90625 21.375 
L 18.09375 23.34375 
C 19.796875 23.75 22.5 24.75 25 25.84375 
C 33.5 29.515625 37.40625 34.09375 37.40625 40.25 
C 37.40625 44.90625 34 48 29 48 
C 22.5 48 11.40625 41.140625 7.5 34.78125 
C 4.5 29.8125 1.5 17.984375 1.5 11.3125 
C 1.5 3.5625 5.90625 -1 13.09375 -1 
C 18.796875 -1 24.40625 1.78125 33.59375 9.234375 
z
M 11.296875 27.3125 
C 13 34.171875 15 38.453125 17.90625 41.03125 
C 19.703125 42.625 22.796875 43.8125 25.203125 43.8125 
C 28.09375 43.8125 30 41.828125 30 38.65625 
C 30 34.265625 26.5 29.609375 21.296875 27.109375 
C 18.5 25.734375 14.90625 24.640625 10.40625 23.640625 
z
" id="URW_Palladio_L_Italic-101"/>
      <path d="M 15.90625 46.78125 
L 15 47.1875 
C 9.90625 45.078125 4.703125 43.671875 -0.59375 43.078125 
L -0.59375 40.265625 
L 3.09375 40.265625 
C 7.09375 40.265625 7.5 39.5625 7.5 32.953125 
L 7.5 -0.53125 
C 7.5 -10.46875 6.5 -17.578125 4.59375 -20.890625 
C 3.40625 -23.1875 1.09375 -24.6875 -1 -24.6875 
C -1.59375 -24.6875 -3.203125 -24.5 -4 -24.390625 
L -2.796875 -28 
C 3 -28 6.796875 -25.890625 10.59375 -20.875 
C 14.09375 -16.25 15.90625 -9.796875 15.90625 -1.875 
z
M 11.203125 69.125 
C 8.296875 69.125 5.59375 66.421875 5.59375 63.609375 
C 5.59375 60.703125 8.296875 58 11.09375 58 
C 14.09375 58 16.703125 60.609375 16.703125 63.609375 
C 16.703125 66.515625 14.09375 69.125 11.203125 69.125 
z
" id="URW_Palladio_L_Roman-106"/>
      <path d="M 19.203125 25.296875 
C 19.203125 28.203125 16.796875 30.59375 13.90625 30.59375 
C 11 30.59375 8.59375 28.203125 8.59375 25.296875 
C 8.59375 22.390625 11 20 13.90625 20 
C 16.796875 20 19.203125 22.390625 19.203125 25.296875 
z
" id="CMSY10-1"/>
     </defs>
     <use transform="scale(0.996264)" xlink:href="#URW_Palladio_L_Italic-101"/>
     <use transform="translate(40.00007 36.164371)scale(0.757155)" xlink:href="#URW_Palladio_L_Roman-106"/>
     <use transform="translate(58.663709 36.164371)scale(0.788955)" xlink:href="#CMSY10-1"/>
     <use transform="translate(82.438384 36.164371)scale(0.757155)" xlink:href="#Pazo_Math_Italic-113"/>
    </g>
   </g>
   <g id="text_4">
    <!-- $e^{-\mathrm{j}\cdot\theta}$ -->
    <g style="fill:#dc2830;" transform="translate(168.767654 211.601554)scale(0.14 -0.14)">
     <use transform="scale(0.996264)" xlink:href="#URW_Palladio_L_Italic-101"/>
     <use transform="translate(40.946487 36.164371)scale(0.788955)" xlink:href="#CMSY10-0"/>
     <use transform="translate(103.221729 36.164371)scale(0.757155)" xlink:href="#URW_Palladio_L_Roman-106"/>
     <use transform="translate(121.885368 36.164371)scale(0.788955)" xlink:href="#CMSY10-1"/>
     <use transform="translate(145.660043 36.164371)scale(0.757155)" xlink:href="#Pazo_Math_Italic-113"/>
    </g>
   </g>
   <g id="PathCollection_1">
    <defs>
     <path d="M 0 5 
C 1.326016 5 2.597899 4.473168 3.535534 3.535534 
C 4.473168 2.597899 5 1.326016 5 -0 
C 5 -1.326016 4.473168 -2.597899 3.535534 -3.535534 
C 2.597899 -4.473168 1.326016 -5 0 -5 
C -1.326016 -5 -2.597899 -4.473168 -3.535534 -3.535534 
C -4.473168 -2.597899 -5 -1.326016 -5 0 
C -5 1.326016 -4.473168 2.597899 -3.535534 3.535534 
C -2.597899 4.473168 -1.326016 5 0 5 
z
" id="C0_0_b933db7c69"/>
    </defs>
    <g clip-path="url(#pe58720f158)">
     <use style="fill:#0271ae;stroke:#0271ae;stroke-width:0.5;" x="164.279664" xlink:href="#C0_0_b933db7c69" y="41.665486"/>
    </g>
    <g clip-path="url(#pe58720f158)">
     <use style="fill:#dc2830;stroke:#dc2830;stroke-width:0.5;" x="164.279664" xlink:href="#C0_0_b933db7c69" y="197.134034"/>
    </g>
   </g>
   <g id="patch_6">
    <path clip-path="url(#pe58720f158)" d="M 165.359457 43.3552 
Q 205.788489 114.982599 170.055541 186.611271 
L 174.440225 188.798631 
Q 169.941528 192.2124 165.271986 195.395849 
Q 165.58601 189.75008 165.49189 184.334631 
L 169.876574 186.521991 
Q 205.562096 114.988386 165.185286 43.453508 
L 165.359457 43.3552 
z
" style="fill:#ffc438;stroke:#ffc438;stroke-linecap:round;stroke-width:3;"/>
   </g>
  </g>
 </g>
 <defs>
  <clipPath id="pe58720f158">
   <rect height="224.39952" width="224.39952" x="7.2" y="7.2"/>
  </clipPath>
 </defs>
</svg>
