<?xml version="1.0" encoding="utf-8" standalone="no"?>
<!DOCTYPE svg PUBLIC "-//W3C//DTD SVG 1.1//EN"
  "http://www.w3.org/Graphics/SVG/1.1/DTD/svg11.dtd">
<svg height="200.39952pt" version="1.1" viewBox="0 0 584.39952 200.39952" width="584.39952pt" xmlns="http://www.w3.org/2000/svg" xmlns:xlink="http://www.w3.org/1999/xlink">
 <metadata>
  <rdf:RDF xmlns:cc="http://creativecommons.org/ns#" xmlns:dc="http://purl.org/dc/elements/1.1/" xmlns:rdf="http://www.w3.org/1999/02/22-rdf-syntax-ns#">
   <cc:Work>
    <dc:type rdf:resource="http://purl.org/dc/dcmitype/StillImage"/>
    <dc:date>2020-07-15T15:36:40.606139</dc:date>
    <dc:format>image/svg+xml</dc:format>
    <dc:creator>
     <cc:Agent>
      <dc:title>Matplotlib v3.3.0rc1.post282+g187e87b5f, https://matplotlib.org/</dc:title>
     </cc:Agent>
    </dc:creator>
   </cc:Work>
  </rdf:RDF>
 </metadata>
 <defs>
  <style type="text/css">*{stroke-linecap:butt;stroke-linejoin:round;}</style>
 </defs>
 <g id="figure_1">
  <g id="patch_1">
   <path d="M 0 200.39952 
L 584.39952 200.39952 
L 584.39952 0 
L 0 0 
z
" style="fill:none;"/>
  </g>
  <g id="axes_1">
   <g id="patch_2">
    <path d="M 23.12516 58.864238 
L 577.19952 58.864238 
L 577.19952 7.2 
L 23.12516 7.2 
z
" style="fill:none;"/>
   </g>
   <g id="matplotlib.axis_1">
    <g id="xtick_1">
     <g id="line2d_1">
      <defs>
       <path d="M 0 0 
L 0 3.5 
" id="m5c633a8802" style="stroke:#000000;stroke-opacity:0.2;stroke-width:0.8;"/>
      </defs>
      <g>
       <use style="fill-opacity:0.2;stroke:#000000;stroke-opacity:0.2;stroke-width:0.8;" x="57.754807" xlink:href="#m5c633a8802" y="58.864238"/>
      </g>
     </g>
     <g id="text_1">
      <!-- $\mathdefault{0}$ -->
      <g transform="translate(54.267883 84.343768)scale(0.14 -0.14)">
       <defs>
        <path d="M 26.296875 69 
C 10.796875 69 2.90625 56.6875 2.90625 32.453125 
C 2.90625 20.71875 5 10.625 8.5 5.71875 
C 12 0.796875 17.59375 -2 23.796875 -2 
C 38.90625 -2 46.5 11.015625 46.5 36.65625 
C 46.5 58.578125 40 69 26.296875 69 
z
M 24.5 65.5 
C 34.203125 65.5 38.09375 55.6875 38.09375 31.640625 
C 38.09375 10.328125 34.296875 1.5 25.09375 1.5 
C 15.40625 1.5 11.296875 11.625 11.296875 36.0625 
C 11.296875 57.1875 15 65.5 24.5 65.5 
z
" id="URW_Palladio_L_Roman-48"/>
       </defs>
       <use transform="scale(0.996264)" xlink:href="#URW_Palladio_L_Roman-48"/>
      </g>
     </g>
    </g>
    <g id="xtick_2">
     <g id="line2d_2">
      <g>
       <use style="fill-opacity:0.2;stroke:#000000;stroke-opacity:0.2;stroke-width:0.8;" x="127.014102" xlink:href="#m5c633a8802" y="58.864238"/>
      </g>
     </g>
     <g id="text_2">
      <!-- $\mathdefault{1}$ -->
      <g transform="translate(123.527178 84.343768)scale(0.14 -0.14)">
       <defs>
        <path d="M 6.703125 56 
L 7.703125 56 
L 20.59375 61.8125 
C 20.703125 61.90625 20.796875 61.90625 20.90625 61.90625 
C 21.5 61.90625 21.703125 61.015625 21.703125 58.609375 
L 21.703125 9.578125 
C 21.703125 4.3125 20.59375 3.203125 15.203125 3.203125 
L 9.59375 3.203125 
L 9.59375 0 
C 25 0 25 0 26.09375 0 
C 27.40625 0 29.59375 0 33 0 
C 34.203125 0 37.703125 0 41.796875 0 
L 41.796875 3.203125 
L 36.59375 3.203125 
C 31.09375 3.203125 30.09375 4.3125 30.09375 9.5625 
L 30.09375 69.421875 
L 28.703125 69.921875 
C 22.203125 66.515625 15.09375 63.515625 6 60.3125 
z
" id="URW_Palladio_L_Roman-49"/>
       </defs>
       <use transform="scale(0.996264)" xlink:href="#URW_Palladio_L_Roman-49"/>
      </g>
     </g>
    </g>
    <g id="xtick_3">
     <g id="line2d_3">
      <g>
       <use style="fill-opacity:0.2;stroke:#000000;stroke-opacity:0.2;stroke-width:0.8;" x="196.273397" xlink:href="#m5c633a8802" y="58.864238"/>
      </g>
     </g>
     <g id="text_3">
      <!-- $\mathdefault{2}$ -->
      <g transform="translate(192.786473 84.343768)scale(0.14 -0.14)">
       <defs>
        <path d="M 1.59375 2.5 
L 1.59375 0 
C 20.296875 0 20.296875 0 23.90625 0 
C 27.5 0 27.5 0 46.796875 0 
C 46.59375 1.953125 46.59375 2.90625 46.59375 4.203125 
C 46.59375 5.4375 46.59375 6.359375 46.796875 8.421875 
C 35.296875 8.421875 30.703125 8.421875 12.203125 8.421875 
L 30.40625 27.515625 
C 40.09375 37.71875 43.09375 43.171875 43.09375 50.59375 
C 43.09375 61.96875 35.296875 69 22.59375 69 
C 15.40625 69 10.5 67 5.59375 62.015625 
L 3.90625 48.421875 
L 6.796875 48.421875 
L 8.09375 53.015625 
C 9.703125 58.796875 13.296875 61.296875 20 61.296875 
C 28.59375 61.296875 34.09375 55.890625 34.09375 47.421875 
C 34.09375 39.921875 29.90625 32.546875 18.59375 20.5625 
z
" id="URW_Palladio_L_Roman-50"/>
       </defs>
       <use transform="scale(0.996264)" xlink:href="#URW_Palladio_L_Roman-50"/>
      </g>
     </g>
    </g>
    <g id="xtick_4">
     <g id="line2d_4">
      <g>
       <use style="fill-opacity:0.2;stroke:#000000;stroke-opacity:0.2;stroke-width:0.8;" x="265.532692" xlink:href="#m5c633a8802" y="58.864238"/>
      </g>
     </g>
     <g id="text_4">
      <!-- $\mathdefault{3}$ -->
      <g transform="translate(262.045768 84.343768)scale(0.14 -0.14)">
       <defs>
        <path d="M 4.296875 49.953125 
L 7.40625 49.953125 
L 9.203125 55.53125 
C 10.296875 58.90625 16.59375 62.296875 21.796875 62.296875 
C 28.296875 62.296875 33.59375 57.015625 33.59375 50.75 
C 33.59375 43.28125 27.703125 37 20.59375 37 
C 19.796875 37 18.703125 37 17.40625 37.203125 
L 15.90625 37.203125 
L 14.703125 31.984375 
L 15.40625 31.375 
C 19.203125 33.09375 21.09375 33.59375 23.796875 33.59375 
C 32.09375 33.59375 36.90625 28.265625 36.90625 19.09375 
C 36.90625 8.84375 30.796875 2.109375 21.5 2.109375 
C 16.90625 2.109375 12.796875 3.609375 9.796875 6.421875 
C 7.40625 8.640625 6.09375 10.953125 4.203125 16.390625 
L 1.5 15.390625 
C 3.59375 9.265625 4.40625 5.640625 5 0.609375 
C 10.296875 -1.203125 14.703125 -2 18.40625 -2 
C 26.40625 -2 35.59375 2.515625 41.09375 9.265625 
C 44.5 13.390625 46.203125 17.8125 46.203125 22.53125 
C 46.203125 27.359375 44.203125 31.59375 40.59375 34.09375 
C 38.09375 35.90625 35.796875 36.71875 30.796875 37.609375 
C 38.796875 43.796875 41.796875 48.375 41.796875 54.25 
C 41.796875 63.125 34.40625 69 23.296875 69 
C 16.5 69 12 67.109375 7.203125 62.328125 
z
" id="URW_Palladio_L_Roman-51"/>
       </defs>
       <use transform="scale(0.996264)" xlink:href="#URW_Palladio_L_Roman-51"/>
      </g>
     </g>
    </g>
    <g id="xtick_5">
     <g id="line2d_5">
      <g>
       <use style="fill-opacity:0.2;stroke:#000000;stroke-opacity:0.2;stroke-width:0.8;" x="334.791987" xlink:href="#m5c633a8802" y="58.864238"/>
      </g>
     </g>
     <g id="text_5">
      <!-- $\mathdefault{4}$ -->
      <g transform="translate(331.305063 84.343768)scale(0.14 -0.14)">
       <defs>
        <path d="M 28 18 
L 28 10.515625 
C 28 4.515625 26.90625 3.109375 22 3.109375 
L 15.796875 3.109375 
L 15.796875 0 
C 29.09375 0 29.09375 0 31.5 0 
C 33.90625 0 33.90625 0 47.203125 0 
L 47.203125 3.109375 
L 42.40625 3.109375 
C 37.5 3.109375 36.40625 4.40625 36.40625 10.453125 
L 36.40625 18 
C 42.296875 18 44.40625 18 47.203125 17.703125 
L 47.203125 24.8125 
C 42.5 24.421875 40.59375 24.421875 39.09375 24.421875 
L 38.796875 24.421875 
L 36.40625 24.421875 
L 36.40625 38.390625 
C 36.40625 56.25 36.59375 64.875 37.09375 69 
L 35.90625 69.5 
L 28.5 66.796875 
L 0.203125 20.296875 
L 1.296875 18 
z
M 28 24.421875 
L 6.5 24.421875 
L 28 59.78125 
z
" id="URW_Palladio_L_Roman-52"/>
       </defs>
       <use transform="scale(0.996264)" xlink:href="#URW_Palladio_L_Roman-52"/>
      </g>
     </g>
    </g>
    <g id="xtick_6">
     <g id="line2d_6">
      <g>
       <use style="fill-opacity:0.2;stroke:#000000;stroke-opacity:0.2;stroke-width:0.8;" x="404.051282" xlink:href="#m5c633a8802" y="58.864238"/>
      </g>
     </g>
     <g id="text_6">
      <!-- $\mathdefault{5}$ -->
      <g transform="translate(400.564358 84.343768)scale(0.14 -0.14)">
       <defs>
        <path d="M 12.703125 60.578125 
C 25.59375 60.578125 31.203125 60.578125 43.203125 60.578125 
L 43.703125 61.046875 
C 43.5 62.75 43.5 63.5 43.5 64.75 
C 43.5 66.078125 43.5 66.828125 43.703125 68.53125 
L 43.203125 69 
C 35.703125 69 31.203125 69 25.796875 69 
C 20.296875 69 15.90625 69 8.40625 69 
L 7.90625 68.796875 
C 8 62.671875 8.09375 58.265625 8.09375 55.046875 
C 8.09375 46.515625 7.796875 36.875 7.5 32.453125 
L 9.5 31.84375 
C 14.203125 36.578125 16.90625 38 21.796875 38 
C 31.40625 38 37.40625 31.140625 37.40625 20.25 
C 37.40625 9.0625 31 2.5 20.09375 2.5 
C 14.703125 2.5 9.703125 4.328125 8.296875 6.9375 
L 3.703125 15.203125 
L 1.296875 13.796875 
C 3.59375 8.0625 4.796875 4.84375 6.203125 0.421875 
C 9 -1.109375 13 -2 17.296875 -2 
C 24 -2 31.09375 0.921875 36.59375 5.75 
C 42.703125 11.1875 45.90625 18.03125 45.90625 25.46875 
C 45.90625 36.859375 37.796875 44.90625 26.40625 44.90625 
C 21.59375 44.90625 18 43.609375 11.796875 39.90625 
z
" id="URW_Palladio_L_Roman-53"/>
       </defs>
       <use transform="scale(0.996264)" xlink:href="#URW_Palladio_L_Roman-53"/>
      </g>
     </g>
    </g>
    <g id="xtick_7">
     <g id="line2d_7">
      <g>
       <use style="fill-opacity:0.2;stroke:#000000;stroke-opacity:0.2;stroke-width:0.8;" x="473.310577" xlink:href="#m5c633a8802" y="58.864238"/>
      </g>
     </g>
     <g id="text_7">
      <!-- $\mathdefault{6}$ -->
      <g transform="translate(469.823653 84.343768)scale(0.14 -0.14)">
       <defs>
        <path d="M 41.59375 67.34375 
L 37.90625 69.046875 
C 28.296875 65.84375 24.203125 63.84375 19.09375 59.4375 
C 8.796875 50.71875 3.203125 38.5 3.203125 24.765625 
C 3.203125 8.21875 11.203125 -2 24.09375 -2 
C 37.09375 -2 46.796875 8.3125 46.796875 21.953125 
C 46.796875 33.484375 39.90625 41 29.296875 41 
C 24.296875 41 21.296875 39.6875 15.40625 34.984375 
C 14.296875 34.078125 14.203125 33.984375 13.09375 33.1875 
C 15.203125 51.3125 23.59375 61.140625 41.59375 66.546875 
z
M 25.5 34.984375 
C 33.09375 34.984375 38.203125 28.375 38.203125 18.453125 
C 38.203125 8.015625 33.09375 1.296875 25.40625 1.296875 
C 16.90625 1.296875 12.296875 8.609375 12.296875 22.0625 
C 12.296875 25.5625 12.703125 27.46875 13.796875 29.171875 
C 16 32.578125 20.703125 34.984375 25.5 34.984375 
z
" id="URW_Palladio_L_Roman-54"/>
       </defs>
       <use transform="scale(0.996264)" xlink:href="#URW_Palladio_L_Roman-54"/>
      </g>
     </g>
    </g>
    <g id="xtick_8">
     <g id="line2d_8">
      <g>
       <use style="fill-opacity:0.2;stroke:#000000;stroke-opacity:0.2;stroke-width:0.8;" x="542.569872" xlink:href="#m5c633a8802" y="58.864238"/>
      </g>
     </g>
     <g id="text_8">
      <!-- $\mathdefault{7}$ -->
      <g transform="translate(539.082948 84.343768)scale(0.14 -0.14)">
       <defs>
        <path d="M 5.59375 0.5 
L 6.5 -0.796875 
C 10.40625 -0.5 10.40625 -0.5 11.09375 -0.5 
C 11.796875 -0.5 11.796875 -0.5 15.703125 -0.796875 
C 19.90625 10.140625 24.796875 20.578125 31.40625 32.609375 
L 49.703125 65.609375 
L 49.703125 68.3125 
C 38.90625 68.3125 35.40625 68.3125 27.296875 68.3125 
C 20 68.3125 15.09375 68.3125 5.40625 68.3125 
L 4.40625 68.109375 
C 4.703125 58.59375 4.703125 58.59375 4.703125 57.578125 
C 4.703125 56.46875 4.703125 56.46875 4.40625 47.359375 
L 7.40625 47.359375 
L 8.09375 52.96875 
C 8.90625 59.203125 9.59375 60 14.203125 60 
L 40.90625 60 
C 36.90625 51.765625 33.796875 45.953125 30 39.828125 
z
" id="URW_Palladio_L_Roman-55"/>
       </defs>
       <use transform="scale(0.996264)" xlink:href="#URW_Palladio_L_Roman-55"/>
      </g>
     </g>
    </g>
   </g>
   <g id="matplotlib.axis_2">
    <g id="text_9">
     <!-- $N=8$ -->
     <g transform="translate(15.753876 49.243543)rotate(-90)scale(0.12 -0.12)">
      <defs>
       <path d="M 23.703125 68.78125 
L 15.59375 68.78125 
L 14.59375 68.78125 
L 13.203125 68.78125 
C 12.90625 68.78125 11.40625 68.78125 9.09375 68.78125 
L 7.5 68.78125 
L 7 66 
L 10.5 66 
C 12.203125 66 14.40625 65.296875 15.5 64.40625 
C 17 63.203125 18.5 61.3125 18.5 60.515625 
C 18.5 60.421875 18.5 60.125 18.40625 59.8125 
C 18.40625 59.71875 18.40625 59.515625 18.296875 59.328125 
C 18.203125 58.53125 18.09375 57.828125 18 57.53125 
L 9.203125 10.34375 
C 8 4.171875 7.40625 3.375 3.796875 2.96875 
L 0.703125 2.671875 
L 0.203125 -0.109375 
L 11.296875 -0.109375 
C 12.5 -0.109375 12.59375 -0.109375 22.296875 -0.109375 
L 22.796875 2.578125 
L 18.59375 2.875 
C 14.59375 3.1875 13.703125 3.984375 13.703125 7.265625 
C 13.703125 8.0625 13.796875 9.15625 14 10.25 
L 22 56.4375 
L 55.796875 -1 
L 60.796875 -1 
L 70.203125 54.046875 
C 72.296875 65.296875 72.5 65.703125 76.203125 66 
L 79.90625 66 
L 80.40625 68.78125 
L 78.296875 68.78125 
L 69.40625 68.78125 
L 60.796875 68.78125 
L 58.90625 68.78125 
L 58.40625 66 
L 63.09375 66 
C 65.703125 66 66.703125 65.265625 66.703125 63.609375 
C 66.703125 62.90625 66.40625 60.328125 66.203125 59.03125 
L 58.203125 10.34375 
z
" id="URW_Palladio_L_Italic-78"/>
       <path d="M 68.703125 32 
C 70.203125 32 72.09375 32 72.09375 34.015625 
C 72.09375 36.015625 70.203125 36.015625 68.796875 36.015625 
L 8.90625 36.015625 
C 7.5 36.015625 5.59375 36.015625 5.59375 34.015625 
C 5.59375 32 7.5 32 9 32 
z
M 68.796875 13 
C 70.203125 13 72.09375 13 72.09375 15.015625 
C 72.09375 17.015625 70.203125 17.015625 68.703125 17.015625 
L 9 17.015625 
C 7.5 17.015625 5.59375 17.015625 5.59375 15.015625 
C 5.59375 13 7.5 13 8.90625 13 
z
" id="CMR10-61"/>
       <path d="M 16.796875 34.546875 
C 12.703125 32.65625 11 31.546875 8.796875 29.4375 
C 5 25.640625 3 21.125 3 15.921875 
C 3 5.609375 11.296875 -2 22.59375 -2 
C 35.59375 -2 46.40625 8.21875 46.40625 20.625 
C 46.40625 28.640625 42.703125 32.953125 31.296875 38.15625 
C 40.40625 44.375 43.59375 48.578125 43.59375 54.578125 
C 43.59375 63.1875 36.5 69 25.90625 69 
C 14 69 5.296875 61.390625 5.296875 50.890625 
C 5.296875 44.078125 8 40.265625 16.796875 34.546875 
z
M 28.40625 29.546875 
C 34.703125 26.734375 38.5 21.828125 38.5 16.4375 
C 38.5 8.015625 32.203125 1.40625 24.09375 1.40625 
C 15.59375 1.40625 10.09375 7.421875 10.09375 16.734375 
C 10.09375 24.03125 13 28.640625 20.40625 33.15625 
z
M 22.296875 42.375 
C 16 45.46875 12.796875 49.484375 12.796875 54.484375 
C 12.796875 61.09375 17.59375 65.59375 24.703125 65.59375 
C 32 65.59375 36.796875 60.796875 36.796875 53.46875 
C 36.796875 47.78125 34.296875 43.875 27.796875 39.65625 
z
" id="URW_Palladio_L_Roman-56"/>
      </defs>
      <use transform="scale(0.996264)" xlink:href="#URW_Palladio_L_Italic-78"/>
      <use transform="translate(110.762391 0)scale(1.038107)" xlink:href="#CMR10-61"/>
      <use transform="translate(220.37802 0)scale(0.996264)" xlink:href="#URW_Palladio_L_Roman-56"/>
     </g>
    </g>
   </g>
   <g id="PathCollection_1">
    <path clip-path="url(#p1011761d3c)" d="M 49.754807 55.383297 
L 65.754807 55.383297 
L 65.754807 39.383297 
L 49.754807 39.383297 
z
" style="fill:#0271ae;stroke:#0271ae;stroke-width:0.5;"/>
    <path clip-path="url(#p1011761d3c)" d="M 119.014102 55.383297 
L 135.014102 55.383297 
L 135.014102 39.383297 
L 119.014102 39.383297 
z
" style="fill:#0271ae;stroke:#0271ae;stroke-width:0.5;"/>
    <path clip-path="url(#p1011761d3c)" d="M 188.273397 55.383297 
L 204.273397 55.383297 
L 204.273397 39.383297 
L 188.273397 39.383297 
z
" style="fill:#0271ae;stroke:#0271ae;stroke-width:0.5;"/>
    <path clip-path="url(#p1011761d3c)" d="M 257.532692 55.383297 
L 273.532692 55.383297 
L 273.532692 39.383297 
L 257.532692 39.383297 
z
" style="fill:#0271ae;stroke:#0271ae;stroke-width:0.5;"/>
    <path clip-path="url(#p1011761d3c)" d="M 326.791987 55.383297 
L 342.791987 55.383297 
L 342.791987 39.383297 
L 326.791987 39.383297 
z
" style="fill:#0271ae;stroke:#0271ae;stroke-width:0.5;"/>
    <path clip-path="url(#p1011761d3c)" d="M 396.051282 55.383297 
L 412.051282 55.383297 
L 412.051282 39.383297 
L 396.051282 39.383297 
z
" style="fill:#dc2830;stroke:#dc2830;stroke-width:0.5;"/>
    <path clip-path="url(#p1011761d3c)" d="M 465.310577 55.383297 
L 481.310577 55.383297 
L 481.310577 39.383297 
L 465.310577 39.383297 
z
" style="fill:#dc2830;stroke:#dc2830;stroke-width:0.5;"/>
    <path clip-path="url(#p1011761d3c)" d="M 534.569872 55.383297 
L 550.569872 55.383297 
L 550.569872 39.383297 
L 534.569872 39.383297 
z
" style="fill:#dc2830;stroke:#dc2830;stroke-width:0.5;"/>
   </g>
   <g id="patch_3">
    <path clip-path="url(#p1011761d3c)" d="M 128.860244 46.608034 
Q 330.078083 -25.966584 531.296093 43.285539 
L 532.890702 38.652266 
Q 536.826123 42.650761 540.691996 46.702894 
Q 535.129423 47.354368 529.636398 48.107926 
L 531.231007 43.474653 
Q 330.07964 -25.754535 128.928101 46.796171 
L 128.860244 46.608034 
z
" style="fill:#6e3b87;stroke:#6e3b87;stroke-linecap:round;stroke-width:3;"/>
   </g>
   <g id="patch_4">
    <path clip-path="url(#p1011761d3c)" d="M 198.120734 46.609153 
Q 330.070579 -0.764457 462.020676 43.336129 
L 463.573907 38.688821 
Q 467.5565 42.65615 471.433826 46.704843 
Q 465.866304 47.362467 460.404048 48.173123 
L 461.957279 43.525815 
Q 330.072923 -0.552799 198.188315 46.797389 
L 198.120734 46.609153 
z
" style="fill:#6e3b87;stroke:#6e3b87;stroke-linecap:round;stroke-width:3;"/>
   </g>
   <g id="patch_5">
    <path clip-path="url(#p1011761d3c)" d="M 267.380442 46.613655 
Q 330.042055 24.426145 392.70413 43.487068 
L 394.130128 38.799154 
Q 398.258495 42.669392 402.170683 46.708107 
Q 396.587216 47.384531 391.219929 48.366324 
L 392.645926 43.678411 
Q 330.046793 24.636635 267.447197 46.802186 
L 267.380442 46.613655 
z
" style="fill:#6e3b87;stroke:#6e3b87;stroke-linecap:round;stroke-width:3;"/>
   </g>
  </g>
  <g id="axes_2">
   <g id="patch_6">
    <path d="M 23.12516 147.861659 
L 577.19952 147.861659 
L 577.19952 96.19742 
L 23.12516 96.19742 
z
" style="fill:none;"/>
   </g>
   <g id="matplotlib.axis_3">
    <g id="xtick_9">
     <g id="line2d_9">
      <g>
       <use style="fill-opacity:0.2;stroke:#000000;stroke-opacity:0.2;stroke-width:0.8;" x="60.112767" xlink:href="#m5c633a8802" y="147.861659"/>
      </g>
     </g>
     <g id="text_10">
      <!-- $\mathdefault{0}$ -->
      <g transform="translate(56.625843 173.341188)scale(0.14 -0.14)">
       <use transform="scale(0.996264)" xlink:href="#URW_Palladio_L_Roman-48"/>
      </g>
     </g>
    </g>
    <g id="xtick_10">
     <g id="line2d_10">
      <g>
       <use style="fill-opacity:0.2;stroke:#000000;stroke-opacity:0.2;stroke-width:0.8;" x="134.087982" xlink:href="#m5c633a8802" y="147.861659"/>
      </g>
     </g>
     <g id="text_11">
      <!-- $\mathdefault{1}$ -->
      <g transform="translate(130.601058 173.341188)scale(0.14 -0.14)">
       <use transform="scale(0.996264)" xlink:href="#URW_Palladio_L_Roman-49"/>
      </g>
     </g>
    </g>
    <g id="xtick_11">
     <g id="line2d_11">
      <g>
       <use style="fill-opacity:0.2;stroke:#000000;stroke-opacity:0.2;stroke-width:0.8;" x="208.063197" xlink:href="#m5c633a8802" y="147.861659"/>
      </g>
     </g>
     <g id="text_12">
      <!-- $\mathdefault{2}$ -->
      <g transform="translate(204.576273 173.341188)scale(0.14 -0.14)">
       <use transform="scale(0.996264)" xlink:href="#URW_Palladio_L_Roman-50"/>
      </g>
     </g>
    </g>
    <g id="xtick_12">
     <g id="line2d_12">
      <g>
       <use style="fill-opacity:0.2;stroke:#000000;stroke-opacity:0.2;stroke-width:0.8;" x="282.038412" xlink:href="#m5c633a8802" y="147.861659"/>
      </g>
     </g>
     <g id="text_13">
      <!-- $\mathdefault{3}$ -->
      <g transform="translate(278.551488 173.341188)scale(0.14 -0.14)">
       <use transform="scale(0.996264)" xlink:href="#URW_Palladio_L_Roman-51"/>
      </g>
     </g>
    </g>
    <g id="xtick_13">
     <g id="line2d_13">
      <g>
       <use style="fill-opacity:0.2;stroke:#000000;stroke-opacity:0.2;stroke-width:0.8;" x="356.013627" xlink:href="#m5c633a8802" y="147.861659"/>
      </g>
     </g>
     <g id="text_14">
      <!-- $\mathdefault{4}$ -->
      <g transform="translate(352.526703 173.341188)scale(0.14 -0.14)">
       <use transform="scale(0.996264)" xlink:href="#URW_Palladio_L_Roman-52"/>
      </g>
     </g>
    </g>
    <g id="xtick_14">
     <g id="line2d_14">
      <g>
       <use style="fill-opacity:0.2;stroke:#000000;stroke-opacity:0.2;stroke-width:0.8;" x="429.988842" xlink:href="#m5c633a8802" y="147.861659"/>
      </g>
     </g>
     <g id="text_15">
      <!-- $\mathdefault{5}$ -->
      <g transform="translate(426.501918 173.341188)scale(0.14 -0.14)">
       <use transform="scale(0.996264)" xlink:href="#URW_Palladio_L_Roman-53"/>
      </g>
     </g>
    </g>
    <g id="xtick_15">
     <g id="line2d_15">
      <g>
       <use style="fill-opacity:0.2;stroke:#000000;stroke-opacity:0.2;stroke-width:0.8;" x="503.964057" xlink:href="#m5c633a8802" y="147.861659"/>
      </g>
     </g>
     <g id="text_16">
      <!-- $\mathdefault{6}$ -->
      <g transform="translate(500.477133 173.341188)scale(0.14 -0.14)">
       <use transform="scale(0.996264)" xlink:href="#URW_Palladio_L_Roman-54"/>
      </g>
     </g>
    </g>
    <g id="text_17">
     <!-- Frequency index $m$ -->
     <g transform="translate(249.918336 189.828236)scale(0.12 -0.12)">
      <defs>
       <path d="M 21.59375 32.8125 
C 24.40625 33 27.40625 33 31.90625 33 
C 39.296875 33 42 32.71875 43.796875 31.875 
L 44.59375 29.53125 
L 45.09375 24 
L 48.09375 24 
C 47.796875 33.3125 47.796875 33.3125 47.796875 35.109375 
C 47.796875 36.71875 47.796875 36.71875 48.09375 46.734375 
L 45.09375 46.734375 
L 44.59375 41.28125 
C 44.5 40.328125 44.203125 39.390625 43.796875 38.546875 
C 42 37.71875 39.203125 37.40625 32.59375 37.40625 
C 28.40625 37.40625 25 37.40625 21.59375 37.40625 
L 21.59375 64.328125 
C 24.59375 65 26.40625 65 32.296875 65 
C 37.09375 65 42.703125 64.4375 45.796875 63.6875 
C 48.203125 63.109375 48.5 62.625 48.5 60.4375 
L 48.5 54.140625 
L 52 54.140625 
C 52 60.046875 52.5 64.78125 53.59375 69.109375 
C 48.703125 69.109375 45.703125 69.109375 41.40625 69.109375 
L 30.703125 69.109375 
C 25.796875 69.109375 22.296875 69.109375 19.796875 69.109375 
C 16.90625 69.109375 16.90625 69.109375 2.203125 69.109375 
L 2.203125 66 
L 7 66 
C 11.59375 66 12.09375 65.1875 12.09375 57.234375 
L 12.09375 11.96875 
C 12.09375 4 11.59375 3.203125 7 3.203125 
L 2.203125 3.203125 
L 2.203125 0 
C 8.09375 0 11.59375 0 16.796875 0 
C 22 0 25.59375 0 31.5 0 
L 31.5 3.203125 
L 26.703125 3.203125 
C 22.09375 3.203125 21.59375 4 21.59375 11.96875 
z
" id="URW_Palladio_L_Roman-70"/>
       <path d="M 2.296875 40.078125 
L 6 40.078125 
C 10 40.078125 10.40625 39.375 10.40625 32.71875 
L 10.40625 10.046875 
C 10.40625 3.703125 10.09375 3 6.703125 3 
L 2.09375 3 
L 2.09375 -0.109375 
C 9.296875 -0.109375 11.90625 -0.109375 14.40625 -0.109375 
C 16.40625 -0.109375 16.40625 -0.109375 28.703125 -0.109375 
L 28.703125 3 
L 23.5 3 
C 19 3 18.796875 3.296875 18.796875 9.96875 
L 18.796875 27.359375 
C 18.796875 33.421875 22.796875 38.484375 27.703125 38.484375 
C 30.703125 38.484375 32.796875 37.078125 34.40625 33.890625 
L 36.5 33.890625 
L 37.40625 45.890625 
C 36.296875 46.59375 34.5 47 32.703125 47 
C 29.703125 47 26.5 45.390625 24.40625 42.890625 
L 18.796875 36.28125 
L 18.796875 46.59375 
L 17.90625 47 
C 12.796875 44.890625 7.59375 43.484375 2.296875 42.890625 
z
" id="URW_Palladio_L_Roman-114"/>
       <path d="M 43.703125 6.984375 
L 42.40625 7.984375 
C 36 4.203125 33.703125 3.3125 29.40625 3.3125 
C 22.90625 3.3125 17.5 6.21875 14.703125 11.109375 
C 12.796875 14.390625 12.09375 17.203125 11.90625 23 
L 26.5 23 
C 33.40625 23 37.703125 23 44.59375 24.125 
C 44.703125 25.53125 44.796875 26.453125 44.796875 27.671875 
C 44.796875 39.375 37.40625 47 26.203125 47 
C 22.5 47 18.203125 45.6875 14.09375 43.28125 
C 5.90625 38.578125 2.59375 32.359375 2.59375 21.9375 
C 2.59375 15.625 4.09375 10.21875 6.796875 6.40625 
C 10.796875 1.109375 17.5 -2 25 -2 
C 28.703125 -2 32.40625 -1.203125 36.5 0.578125 
C 39.203125 1.6875 41.296875 2.984375 41.703125 3.59375 
z
M 35.90625 26.40625 
C 30.703125 26.40625 28.296875 26.40625 24.703125 26.40625 
C 20.09375 26.40625 17.5 26.40625 12.09375 26.90625 
C 12.09375 31.671875 12.5 33.890625 13.796875 36.515625 
C 15.90625 40.96875 20.203125 43.6875 25 43.6875 
C 28.296875 43.6875 30.90625 42.359375 32.703125 39.59375 
C 34.90625 36.234375 35.59375 33.265625 35.90625 26.40625 
z
" id="URW_Palladio_L_Roman-101"/>
       <path d="M 39.296875 6.8125 
L 39.296875 -17.78125 
C 39.296875 -24.171875 38.90625 -24.890625 35.59375 -24.890625 
L 29.796875 -24.890625 
L 29.796875 -28 
C 41.40625 -28 41.40625 -28 43.703125 -28 
C 46.09375 -28 48.90625 -28 56 -28 
L 56 -24.890625 
L 51.40625 -24.890625 
C 48 -24.890625 47.703125 -24.1875 47.703125 -17.859375 
L 47.703125 31.8125 
C 47.703125 38.046875 48.296875 41.875 50 45.6875 
L 48.09375 46.796875 
L 43.203125 43.6875 
C 38.09375 45.984375 33.796875 47 29.5 47 
C 26.59375 47 23.09375 46.1875 21.59375 45.296875 
L 13.203125 39.90625 
C 6.796875 35.8125 3.5 29.234375 3.5 20.546875 
C 3.5 7.484375 11.40625 -1 23.796875 -1 
C 25.90625 -1 27.59375 -0.59375 28.90625 0.203125 
z
M 39.296875 12.203125 
C 39.296875 10.796875 36.90625 8.203125 34.203125 6.703125 
C 31.796875 5.40625 29.5 4.71875 27.09375 4.71875 
C 18.296875 4.71875 12.203125 12.875 12.203125 24.9375 
C 12.203125 35.90625 17.796875 42.28125 27.40625 42.28125 
C 32.296875 42.28125 35.796875 41.09375 39.296875 38.203125 
z
" id="URW_Palladio_L_Roman-113"/>
       <path d="M 50.296875 47.015625 
L 49.40625 47.421875 
C 44.296875 45.3125 39.09375 43.90625 33.796875 43.3125 
L 33.796875 40.5 
L 37.5 40.5 
C 41.5 40.5 41.90625 39.796875 41.90625 33.140625 
L 41.90625 16.71875 
C 41.90625 14.5 40.5 11.671875 38.203125 9.359375 
C 35.40625 6.53125 32.203125 5.109375 28.296875 5.109375 
C 24.796875 5.109375 22 6.21875 20.40625 8.140625 
C 19 9.75 18.296875 12.875 18.296875 17.296875 
L 18.296875 47.015625 
L 17.40625 47.421875 
C 12.296875 45.3125 7.09375 43.90625 1.796875 43.3125 
L 1.796875 40.5 
L 5.5 40.5 
C 9.5 40.5 9.90625 39.796875 9.90625 33.15625 
L 9.90625 16.234375 
C 9.90625 9.171875 10.5 6.046875 12.296875 3.546875 
C 14.5 0.515625 18.296875 -1 24 -1 
C 28.5 -1 32.5 0.40625 35.203125 2.90625 
L 41.90625 9.140625 
C 41.90625 6.265625 41.796875 4.65625 41.5 0 
C 48.203125 0 48.296875 0 49.796875 0 
C 51.203125 0 51.203125 0 58.09375 0 
L 58.09375 2.90625 
L 54 3.3125 
C 50.59375 3.3125 50.296875 3.921875 50.296875 10.375 
z
" id="URW_Palladio_L_Roman-117"/>
       <path d="M 41 -0.109375 
C 47.09375 -0.109375 47.203125 -0.109375 48.90625 -0.109375 
C 50.296875 -0.109375 50.296875 -0.109375 57.203125 -0.109375 
L 57.203125 2.796875 
L 53.09375 3.203125 
C 49.703125 3.203125 49.40625 3.8125 49.40625 10.21875 
L 49.40625 29.5625 
C 49.40625 41.28125 43.90625 47 32.703125 47 
C 29 47 26.90625 46.296875 24.796875 44.484375 
L 17.203125 37.875 
L 17.203125 46.59375 
L 16.296875 47 
C 11.203125 44.890625 6 43.484375 0.703125 42.890625 
L 0.703125 40.078125 
L 4.40625 40.078125 
C 8.40625 40.078125 8.796875 39.375 8.796875 32.71875 
L 8.796875 10.046875 
C 8.796875 3.703125 8.5 3 5.09375 3 
L 0.59375 3 
L 0.59375 -0.109375 
C 7.40625 -0.109375 10.09375 -0.109375 13 -0.109375 
C 15.90625 -0.109375 18.59375 -0.109375 25.40625 -0.109375 
L 25.40625 3 
L 20.90625 3 
C 17.5 3 17.203125 3.703125 17.203125 10.046875 
L 17.203125 31.421875 
C 17.203125 35.9375 23.796875 40.875 29.90625 40.875 
C 36.59375 40.875 41 35.890625 41 28.21875 
z
" id="URW_Palladio_L_Roman-110"/>
       <path d="M 39.90625 31.15625 
C 39.90625 35.765625 40.40625 39.875 41.296875 43.484375 
C 37.296875 45.890625 33.796875 47 29.703125 47 
C 24.90625 47 19.296875 45.09375 13.296875 41.28125 
C 6.296875 36.875 2.59375 29.859375 2.59375 21.046875 
C 2.59375 7.515625 12.09375 -2 25.5 -2 
C 30.703125 -2 38.203125 -0.09375 39.203125 1.40625 
L 41.296875 4.609375 
L 40.296875 6.109375 
C 36.59375 4.109375 33.40625 3.203125 29.796875 3.203125 
C 18.703125 3.203125 11.40625 11.828125 11.40625 25.046875 
C 11.40625 35.765625 16.40625 41.78125 25.40625 41.78125 
C 29.796875 41.78125 34.59375 39.78125 36.40625 37.28125 
L 37.09375 31.15625 
z
" id="URW_Palladio_L_Roman-99"/>
       <path d="M 29.703125 8.8125 
C 27.5 12.625 26.40625 14.9375 24.59375 19.84375 
L 18.203125 36.671875 
C 17.59375 38.375 17.203125 39.875 17.203125 40.90625 
C 17.203125 42.34375 18.296875 43.1875 20.59375 43.1875 
L 24.40625 43.1875 
L 24.40625 46 
C 14.703125 46 14.703125 46 12.796875 46 
C 10.90625 46 10.90625 46 1.203125 46 
L 1.203125 43.390625 
L 3 43.1875 
C 5.5 42.890625 6.703125 41.78125 8.203125 38.296875 
L 19.09375 12.109375 
C 21.90625 5.3125 22.90625 2.90625 24.703125 -2.09375 
L 22.40625 -8.1875 
C 19.203125 -16.59375 15.296875 -21.28125 11.5 -21.28125 
C 9.90625 -21.28125 8.09375 -20.484375 6.40625 -18.984375 
L 5.09375 -18.984375 
L 2.703125 -26.5 
C 4.59375 -27.5 6.203125 -28 8.09375 -28 
C 14.796875 -28 19.09375 -24.40625 22.90625 -15.703125 
L 43.203125 31.09375 
C 47.203125 40.1875 49.09375 42.890625 51.59375 43.1875 
L 54.40625 43.390625 
L 54.40625 46 
C 46.5 46 46.5 46 44.90625 46 
C 43.296875 46 43.296875 46 35.40625 46 
L 35.40625 43.390625 
L 38 43.1875 
C 40.796875 42.984375 42.203125 42.09375 42.203125 40.6875 
C 42.203125 39.984375 42 39.078125 41.59375 38.078125 
z
" id="URW_Palladio_L_Roman-121"/>
       <path d="M 18.796875 46.765625 
L 17.90625 47.171875 
C 12.796875 45.0625 7.59375 43.640625 2.296875 43.046875 
L 2.296875 40.25 
L 6 40.25 
C 10 40.25 10.40625 39.546875 10.40625 32.890625 
L 10.40625 10.171875 
C 10.40625 3.8125 10.09375 3.109375 6.703125 3.109375 
L 2.09375 3.109375 
L 2.09375 0 
C 12.09375 0 12.09375 0 14.59375 0 
C 17.09375 0 17.09375 0 27.09375 0 
L 27.09375 3.109375 
L 22.5 3.109375 
C 19.09375 3.109375 18.796875 3.8125 18.796875 10.171875 
z
M 14.203125 69 
C 11.203125 69 8.59375 66.390625 8.59375 63.375 
C 8.59375 60.46875 11.203125 57.875 14.09375 57.875 
C 17 57.875 19.703125 60.46875 19.703125 63.375 
C 19.703125 66.1875 17 69 14.203125 69 
z
" id="URW_Palladio_L_Roman-105"/>
       <path d="M 41.203125 43.78125 
C 35.59375 46.1875 32.796875 47 29.296875 47 
C 26.59375 47 24.203125 46.390625 21.703125 45.109375 
L 12.90625 40.515625 
C 7.203125 37.515625 3.5 30.234375 3.5 21.75 
C 3.5 13.765625 6.203125 7.1875 11.09375 3.1875 
C 14.5 0.296875 19.203125 -1 25.703125 -1 
C 27.703125 -1 30 -0.59375 30.5 -0.203125 
L 41.59375 9.109375 
L 41.09375 -0.109375 
C 46 -0.109375 47.59375 -0.109375 48.796875 -0.109375 
C 49.59375 -0.109375 51 -0.109375 53.09375 -0.109375 
C 53.796875 -0.109375 55.796875 -0.109375 57.90625 -0.109375 
L 57.90625 3 
L 53.296875 3 
C 49.90625 3 49.59375 3.703125 49.59375 10.046875 
L 49.59375 71.984375 
L 48.703125 72.796875 
C 44.296875 71.09375 41 70.28125 33.09375 69.078125 
L 33.09375 66.28125 
L 38.703125 66.28125 
C 40.5 66.28125 41.203125 65.171875 41.203125 62.15625 
z
M 41.203125 22.25 
C 41.203125 15.765625 41 14.78125 39.703125 12.484375 
C 36.90625 7.796875 32 4.71875 27.296875 4.71875 
C 18.5 4.71875 12.203125 13.1875 12.203125 25.046875 
C 12.203125 35.90625 17.59375 42.28125 26.59375 42.28125 
C 30.40625 42.28125 34.40625 40.984375 37.90625 38.59375 
C 40 37.203125 41.203125 35.90625 41.203125 35.09375 
z
" id="URW_Palladio_L_Roman-100"/>
       <path d="M 28.796875 25.46875 
L 43 42.09375 
C 43.59375 42.796875 44.703125 43.203125 46.40625 43.203125 
L 47.796875 43.203125 
L 47.796875 46 
L 39.59375 46 
L 27.203125 28.46875 
L 19.59375 40.09375 
C 18.09375 42.296875 17 43.609375 13.59375 47.015625 
L 2 45 
L 2.5 42.3125 
L 4.59375 42.09375 
C 6.40625 42.09375 8.59375 40.703125 9.59375 39.296875 
L 21.59375 21.84375 
L 6.703125 4.203125 
C 6 3.3125 4.703125 2.703125 3.703125 2.703125 
L 2 2.703125 
L 2 0 
L 10.59375 0 
C 11.296875 1.109375 11.5 1.5 12.703125 3.3125 
C 14.296875 6.109375 15.90625 8.609375 16.59375 9.421875 
L 24 19.234375 
L 34.703125 3.25 
L 34.796875 3.0625 
C 35.703125 1.671875 36.5 0.6875 37.296875 0 
C 42.5 0 42.5 0 43.40625 0 
C 44.40625 0 44.40625 0 49.59375 0 
L 49.59375 2.703125 
L 47.09375 3 
C 45.90625 3.109375 44.703125 3.90625 43.59375 5.40625 
z
" id="URW_Palladio_L_Roman-120"/>
       <path d="M 73 10.15625 
L 70.40625 8.46875 
C 67.5 6.578125 65.296875 5.484375 64.296875 5.484375 
C 63.59375 5.484375 63 6.375 63 7.46875 
C 63 8.46875 63.203125 9.375 63.703125 11.46875 
L 71.203125 41.109375 
C 71.59375 42.796875 71.90625 44.390625 71.90625 45.203125 
C 71.90625 46.90625 70.90625 48 69.296875 48 
C 66.40625 48 62.59375 46.203125 56.5 41.90625 
C 50.203125 37.40625 46.703125 33.921875 41.796875 27.03125 
L 44.796875 40.71875 
C 45.203125 42.703125 45.5 44.203125 45.5 44.90625 
C 45.5 46.796875 44.5 48 42.90625 48 
C 39.90625 48 35.296875 45.8125 29.796875 41.609375 
C 25.40625 38.203125 23.40625 36.109375 16.90625 27.328125 
L 20.203125 40.609375 
C 20.59375 42.203125 20.796875 43.703125 20.796875 44.890625 
C 20.796875 46.796875 19.90625 48 18.5 48 
C 16.40625 48 12.59375 45.90625 5.203125 40.59375 
L 2.40625 38.609375 
L 3.09375 36.609375 
L 6.296875 38.703125 
C 10 41.015625 10.296875 41.203125 11 41.203125 
C 12.09375 41.203125 12.796875 40.21875 12.796875 38.71875 
C 12.796875 33.625 8.703125 14.359375 4.59375 0.09375 
L 4.90625 -1 
L 11.703125 0.484375 
L 13.90625 10.671875 
C 16.296875 21.75 19 27.640625 24.5 33.625 
C 28.703125 38.21875 33.203125 41.203125 36 41.203125 
C 36.703125 41.203125 37.09375 40.40625 37.09375 39.125 
C 37.09375 35.625 34.90625 24.25 30.796875 6.78125 
L 29.203125 0.09375 
L 29.703125 -1 
L 36.59375 0.484375 
L 38.703125 11.171875 
C 40.296875 19.25 43.703125 26.734375 48.09375 31.640625 
C 53.59375 37.71875 58.59375 41.203125 61.796875 41.203125 
C 62.59375 41.203125 63.09375 40.3125 63.09375 38.71875 
C 63.09375 36.3125 62.796875 34.921875 60.59375 26.234375 
C 59 19.953125 57.296875 13.96875 56.296875 10.578125 
C 55.40625 7.765625 55 5.1875 55 3 
C 55 0.484375 56.09375 -1 58 -1 
C 60.59375 -1 64.203125 1.078125 74 8.375 
z
" id="URW_Palladio_L_Italic-109"/>
      </defs>
      <use transform="scale(0.996264)" xlink:href="#URW_Palladio_L_Roman-70"/>
      <use transform="translate(55.391677 0)scale(0.996264)" xlink:href="#URW_Palladio_L_Roman-114"/>
      <use transform="translate(92.950994 0)scale(0.996264)" xlink:href="#URW_Palladio_L_Roman-101"/>
      <use transform="translate(140.671289 0)scale(0.996264)" xlink:href="#URW_Palladio_L_Roman-113"/>
      <use transform="translate(196.461922 0)scale(0.996264)" xlink:href="#URW_Palladio_L_Roman-117"/>
      <use transform="translate(256.535657 0)scale(0.996264)" xlink:href="#URW_Palladio_L_Roman-101"/>
      <use transform="translate(304.255952 0)scale(0.996264)" xlink:href="#URW_Palladio_L_Roman-110"/>
      <use transform="translate(362.238012 0)scale(0.996264)" xlink:href="#URW_Palladio_L_Roman-99"/>
      <use transform="translate(406.471581 0)scale(0.996264)" xlink:href="#URW_Palladio_L_Roman-121"/>
      <use transform="translate(486.769858 0)scale(0.996264)" xlink:href="#URW_Palladio_L_Roman-105"/>
      <use transform="translate(515.76022 0)scale(0.996264)" xlink:href="#URW_Palladio_L_Roman-110"/>
      <use transform="translate(573.742281 0)scale(0.996264)" xlink:href="#URW_Palladio_L_Roman-100"/>
      <use transform="translate(634.613911 0)scale(0.996264)" xlink:href="#URW_Palladio_L_Roman-101"/>
      <use transform="translate(682.334206 0)scale(0.996264)" xlink:href="#URW_Palladio_L_Roman-120"/>
      <use transform="translate(759.892453 0)scale(0.996264)" xlink:href="#URW_Palladio_L_Italic-109"/>
     </g>
    </g>
   </g>
   <g id="matplotlib.axis_4">
    <g id="text_18">
     <!-- $N=7$ -->
     <g transform="translate(15.753876 138.240963)rotate(-90)scale(0.12 -0.12)">
      <use transform="scale(0.996264)" xlink:href="#URW_Palladio_L_Italic-78"/>
      <use transform="translate(110.762391 0)scale(1.038107)" xlink:href="#CMR10-61"/>
      <use transform="translate(220.37802 0)scale(0.996264)" xlink:href="#URW_Palladio_L_Roman-55"/>
     </g>
    </g>
   </g>
   <g id="PathCollection_2">
    <path clip-path="url(#p347099754e)" d="M 52.112767 144.380717 
L 68.112767 144.380717 
L 68.112767 128.380717 
L 52.112767 128.380717 
z
" style="fill:#0271ae;stroke:#0271ae;stroke-width:0.5;"/>
    <path clip-path="url(#p347099754e)" d="M 126.087982 144.380717 
L 142.087982 144.380717 
L 142.087982 128.380717 
L 126.087982 128.380717 
z
" style="fill:#0271ae;stroke:#0271ae;stroke-width:0.5;"/>
    <path clip-path="url(#p347099754e)" d="M 200.063197 144.380717 
L 216.063197 144.380717 
L 216.063197 128.380717 
L 200.063197 128.380717 
z
" style="fill:#0271ae;stroke:#0271ae;stroke-width:0.5;"/>
    <path clip-path="url(#p347099754e)" d="M 274.038412 144.380717 
L 290.038412 144.380717 
L 290.038412 128.380717 
L 274.038412 128.380717 
z
" style="fill:#0271ae;stroke:#0271ae;stroke-width:0.5;"/>
    <path clip-path="url(#p347099754e)" d="M 348.013627 144.380717 
L 364.013627 144.380717 
L 364.013627 128.380717 
L 348.013627 128.380717 
z
" style="fill:#dc2830;stroke:#dc2830;stroke-width:0.5;"/>
    <path clip-path="url(#p347099754e)" d="M 421.988842 144.380717 
L 437.988842 144.380717 
L 437.988842 128.380717 
L 421.988842 128.380717 
z
" style="fill:#dc2830;stroke:#dc2830;stroke-width:0.5;"/>
    <path clip-path="url(#p347099754e)" d="M 495.964057 144.380717 
L 511.964057 144.380717 
L 511.964057 128.380717 
L 495.964057 128.380717 
z
" style="fill:#dc2830;stroke:#dc2830;stroke-width:0.5;"/>
   </g>
   <g id="patch_7">
    <path clip-path="url(#p347099754e)" d="M 135.936316 135.605047 
Q 314.307946 71.343834 492.679768 132.293196 
L 494.264149 127.656415 
Q 498.214152 131.648225 502.085793 135.700556 
Q 496.519075 136.352495 491.030719 137.119233 
L 492.6151 132.482452 
Q 314.309698 71.555786 136.004104 135.793209 
L 135.936316 135.605047 
z
" style="fill:#6e3b87;stroke:#6e3b87;stroke-linecap:round;stroke-width:3;"/>
   </g>
   <g id="patch_8">
    <path clip-path="url(#p347099754e)" d="M 209.908914 135.608307 
Q 314.290408 98.260027 418.672211 132.366631 
L 420.194097 127.708964 
Q 424.215843 131.653648 428.105207 135.700948 
Q 422.530515 136.362089 417.088207 137.214407 
L 418.610093 132.55674 
Q 314.293347 98.471392 209.976292 135.796616 
L 209.908914 135.608307 
z
" style="fill:#6e3b87;stroke:#6e3b87;stroke-linecap:round;stroke-width:3;"/>
   </g>
   <g id="patch_9">
    <path clip-path="url(#p347099754e)" d="M 283.888553 135.618359 
Q 314.226336 125.138386 344.564854 132.755505 
L 345.758068 128.003007 
Q 350.153415 131.689097 354.125953 135.711192 
Q 348.513041 136.42252 343.322937 137.701983 
L 344.516151 132.949485 
Q 314.235371 125.346861 283.953855 135.807397 
L 283.888553 135.618359 
z
" style="fill:#6e3b87;stroke:#6e3b87;stroke-linecap:round;stroke-width:3;"/>
   </g>
  </g>
 </g>
 <defs>
  <clipPath id="p1011761d3c">
   <rect height="51.664238" width="554.07436" x="23.12516" y="7.2"/>
  </clipPath>
  <clipPath id="p347099754e">
   <rect height="51.664238" width="554.07436" x="23.12516" y="96.19742"/>
  </clipPath>
 </defs>
</svg>
