<?xml version="1.0" encoding="utf-8" standalone="no"?>
<!DOCTYPE svg PUBLIC "-//W3C//DTD SVG 1.1//EN"
  "http://www.w3.org/Graphics/SVG/1.1/DTD/svg11.dtd">
<svg height="200.39952pt" version="1.1" viewBox="0 0 584.39952 200.39952" width="584.39952pt" xmlns="http://www.w3.org/2000/svg" xmlns:xlink="http://www.w3.org/1999/xlink">
 <metadata>
  <rdf:RDF xmlns:cc="http://creativecommons.org/ns#" xmlns:dc="http://purl.org/dc/elements/1.1/" xmlns:rdf="http://www.w3.org/1999/02/22-rdf-syntax-ns#">
   <cc:Work>
    <dc:type rdf:resource="http://purl.org/dc/dcmitype/StillImage"/>
    <dc:date>2020-08-24T11:33:25.504531</dc:date>
    <dc:format>image/svg+xml</dc:format>
    <dc:creator>
     <cc:Agent>
      <dc:title>Matplotlib v3.3.0rc1.post717+g6a40954ae, https://matplotlib.org/</dc:title>
     </cc:Agent>
    </dc:creator>
   </cc:Work>
  </rdf:RDF>
 </metadata>
 <defs>
  <style type="text/css">*{stroke-linecap:butt;stroke-linejoin:round;}</style>
 </defs>
 <g id="figure_1">
  <g id="patch_1">
   <path d="M 0 200.39952 
L 584.39952 200.39952 
L 584.39952 0 
L 0 0 
z
" style="fill:none;"/>
  </g>
  <g id="axes_1">
   <g id="patch_2">
    <path d="M 23.12516 58.864238 
L 577.19952 58.864238 
L 577.19952 7.2 
L 23.12516 7.2 
z
" style="fill:none;"/>
   </g>
   <g id="matplotlib.axis_1">
    <g id="xtick_1">
     <g id="line2d_1">
      <defs>
       <path d="M 0 0 
L 0 3.5 
" id="ma32963842b" style="stroke:#000000;stroke-opacity:0.2;stroke-width:0.8;"/>
      </defs>
      <g>
       <use style="fill-opacity:0.2;stroke:#000000;stroke-opacity:0.2;stroke-width:0.8;" x="57.754807" xlink:href="#ma32963842b" y="58.864238"/>
      </g>
     </g>
     <g id="text_1">
      <!-- $\mathdefault{0}$ -->
      <g transform="translate(54.267883 84.343768)scale(0.14 -0.14)">
       <defs>
        <path d="M 1683 4416 
C 691 4416 186 3628 186 2077 
C 186 1326 320 680 544 366 
C 768 51 1126 -128 1523 -128 
C 2490 -128 2976 705 2976 2346 
C 2976 3749 2560 4416 1683 4416 
z
M 1568 4192 
C 2189 4192 2438 3564 2438 2025 
C 2438 661 2195 96 1606 96 
C 986 96 723 744 723 2308 
C 723 3660 960 4192 1568 4192 
z
" id="URWPalladioL-Roma-30" transform="scale(0.015625)"/>
       </defs>
       <use transform="scale(0.996264)" xlink:href="#URWPalladioL-Roma-30"/>
      </g>
     </g>
    </g>
    <g id="xtick_2">
     <g id="line2d_2">
      <g>
       <use style="fill-opacity:0.2;stroke:#000000;stroke-opacity:0.2;stroke-width:0.8;" x="127.014102" xlink:href="#ma32963842b" y="58.864238"/>
      </g>
     </g>
     <g id="text_2">
      <!-- $\mathdefault{1}$ -->
      <g transform="translate(123.527178 84.343768)scale(0.14 -0.14)">
       <defs>
        <path d="M 429 3584 
L 493 3584 
L 1318 3956 
C 1325 3962 1331 3962 1338 3962 
C 1376 3962 1389 3905 1389 3751 
L 1389 613 
C 1389 276 1318 205 973 205 
L 614 205 
L 614 0 
C 1600 0 1600 0 1670 0 
C 1754 0 1894 0 2112 0 
C 2189 0 2413 0 2675 0 
L 2675 205 
L 2342 205 
C 1990 205 1926 276 1926 612 
L 1926 4443 
L 1837 4475 
C 1421 4257 966 4065 384 3860 
z
" id="URWPalladioL-Roma-31" transform="scale(0.015625)"/>
       </defs>
       <use transform="scale(0.996264)" xlink:href="#URWPalladioL-Roma-31"/>
      </g>
     </g>
    </g>
    <g id="xtick_3">
     <g id="line2d_3">
      <g>
       <use style="fill-opacity:0.2;stroke:#000000;stroke-opacity:0.2;stroke-width:0.8;" x="196.273397" xlink:href="#ma32963842b" y="58.864238"/>
      </g>
     </g>
     <g id="text_3">
      <!-- $\mathdefault{2}$ -->
      <g transform="translate(192.786473 84.343768)scale(0.14 -0.14)">
       <defs>
        <path d="M 102 160 
L 102 0 
C 1299 0 1299 0 1530 0 
C 1760 0 1760 0 2995 0 
C 2982 125 2982 186 2982 269 
C 2982 348 2982 407 2995 539 
C 2259 539 1965 539 781 539 
L 1946 1761 
C 2566 2414 2758 2763 2758 3238 
C 2758 3966 2259 4416 1446 4416 
C 986 4416 672 4288 358 3969 
L 250 3099 
L 435 3099 
L 518 3393 
C 621 3763 851 3923 1280 3923 
C 1830 3923 2182 3577 2182 3035 
C 2182 2555 1914 2083 1190 1316 
z
" id="URWPalladioL-Roma-32" transform="scale(0.015625)"/>
       </defs>
       <use transform="scale(0.996264)" xlink:href="#URWPalladioL-Roma-32"/>
      </g>
     </g>
    </g>
    <g id="xtick_4">
     <g id="line2d_4">
      <g>
       <use style="fill-opacity:0.2;stroke:#000000;stroke-opacity:0.2;stroke-width:0.8;" x="265.532692" xlink:href="#ma32963842b" y="58.864238"/>
      </g>
     </g>
     <g id="text_4">
      <!-- $\mathdefault{3}$ -->
      <g transform="translate(262.045768 84.343768)scale(0.14 -0.14)">
       <defs>
        <path d="M 275 3197 
L 474 3197 
L 589 3554 
C 659 3770 1062 3987 1395 3987 
C 1811 3987 2150 3649 2150 3248 
C 2150 2770 1773 2368 1318 2368 
C 1267 2368 1197 2368 1114 2381 
L 1018 2381 
L 941 2047 
L 986 2008 
C 1229 2118 1350 2150 1523 2150 
C 2054 2150 2362 1809 2362 1222 
C 2362 566 1971 135 1376 135 
C 1082 135 819 231 627 411 
C 474 553 390 701 269 1049 
L 96 985 
C 230 593 282 361 320 39 
C 659 -77 941 -128 1178 -128 
C 1690 -128 2278 161 2630 593 
C 2848 857 2957 1140 2957 1442 
C 2957 1751 2829 2022 2598 2182 
C 2438 2298 2291 2350 1971 2407 
C 2483 2803 2675 3096 2675 3472 
C 2675 4040 2202 4416 1491 4416 
C 1056 4416 768 4295 461 3989 
z
" id="URWPalladioL-Roma-33" transform="scale(0.015625)"/>
       </defs>
       <use transform="scale(0.996264)" xlink:href="#URWPalladioL-Roma-33"/>
      </g>
     </g>
    </g>
    <g id="xtick_5">
     <g id="line2d_5">
      <g>
       <use style="fill-opacity:0.2;stroke:#000000;stroke-opacity:0.2;stroke-width:0.8;" x="334.791987" xlink:href="#ma32963842b" y="58.864238"/>
      </g>
     </g>
     <g id="text_5">
      <!-- $\mathdefault{4}$ -->
      <g transform="translate(331.305063 84.343768)scale(0.14 -0.14)">
       <defs>
        <path d="M 1792 1152 
L 1792 673 
C 1792 289 1722 199 1408 199 
L 1011 199 
L 1011 0 
C 1862 0 1862 0 2016 0 
C 2170 0 2170 0 3021 0 
L 3021 199 
L 2714 199 
C 2400 199 2330 282 2330 669 
L 2330 1152 
C 2707 1152 2842 1152 3021 1133 
L 3021 1588 
C 2720 1563 2598 1563 2502 1563 
L 2483 1563 
L 2330 1563 
L 2330 2457 
C 2330 3600 2342 4152 2374 4416 
L 2298 4448 
L 1824 4275 
L 13 1299 
L 83 1152 
z
M 1792 1563 
L 416 1563 
L 1792 3826 
z
" id="URWPalladioL-Roma-34" transform="scale(0.015625)"/>
       </defs>
       <use transform="scale(0.996264)" xlink:href="#URWPalladioL-Roma-34"/>
      </g>
     </g>
    </g>
    <g id="xtick_6">
     <g id="line2d_6">
      <g>
       <use style="fill-opacity:0.2;stroke:#000000;stroke-opacity:0.2;stroke-width:0.8;" x="404.051282" xlink:href="#ma32963842b" y="58.864238"/>
      </g>
     </g>
     <g id="text_6">
      <!-- $\mathdefault{5}$ -->
      <g transform="translate(400.564358 84.343768)scale(0.14 -0.14)">
       <defs>
        <path d="M 813 3877 
C 1638 3877 1997 3877 2765 3877 
L 2797 3907 
C 2784 4016 2784 4064 2784 4144 
C 2784 4229 2784 4277 2797 4386 
L 2765 4416 
C 2285 4416 1997 4416 1651 4416 
C 1299 4416 1018 4416 538 4416 
L 506 4403 
C 512 4011 518 3729 518 3523 
C 518 2977 499 2360 480 2077 
L 608 2038 
C 909 2341 1082 2432 1395 2432 
C 2010 2432 2394 1993 2394 1296 
C 2394 580 1984 160 1286 160 
C 941 160 621 277 531 444 
L 237 973 
L 83 883 
C 230 516 307 310 397 27 
C 576 -71 832 -128 1107 -128 
C 1536 -128 1990 59 2342 368 
C 2733 716 2938 1154 2938 1630 
C 2938 2359 2419 2874 1690 2874 
C 1382 2874 1152 2791 755 2554 
z
" id="URWPalladioL-Roma-35" transform="scale(0.015625)"/>
       </defs>
       <use transform="scale(0.996264)" xlink:href="#URWPalladioL-Roma-35"/>
      </g>
     </g>
    </g>
    <g id="xtick_7">
     <g id="line2d_7">
      <g>
       <use style="fill-opacity:0.2;stroke:#000000;stroke-opacity:0.2;stroke-width:0.8;" x="473.310577" xlink:href="#ma32963842b" y="58.864238"/>
      </g>
     </g>
     <g id="text_7">
      <!-- $\mathdefault{6}$ -->
      <g transform="translate(469.823653 84.343768)scale(0.14 -0.14)">
       <defs>
        <path d="M 2662 4310 
L 2426 4419 
C 1811 4214 1549 4086 1222 3804 
C 563 3246 205 2464 205 1585 
C 205 526 717 -128 1542 -128 
C 2374 -128 2995 532 2995 1405 
C 2995 2143 2554 2624 1875 2624 
C 1555 2624 1363 2540 986 2239 
C 915 2181 909 2175 838 2124 
C 973 3284 1510 3913 2662 4259 
z
M 1632 2239 
C 2118 2239 2445 1816 2445 1181 
C 2445 513 2118 83 1626 83 
C 1082 83 787 551 787 1412 
C 787 1636 813 1758 883 1867 
C 1024 2085 1325 2239 1632 2239 
z
" id="URWPalladioL-Roma-36" transform="scale(0.015625)"/>
       </defs>
       <use transform="scale(0.996264)" xlink:href="#URWPalladioL-Roma-36"/>
      </g>
     </g>
    </g>
    <g id="xtick_8">
     <g id="line2d_8">
      <g>
       <use style="fill-opacity:0.2;stroke:#000000;stroke-opacity:0.2;stroke-width:0.8;" x="542.569872" xlink:href="#ma32963842b" y="58.864238"/>
      </g>
     </g>
     <g id="text_8">
      <!-- $\mathdefault{7}$ -->
      <g transform="translate(539.082948 84.343768)scale(0.14 -0.14)">
       <defs>
        <path d="M 358 32 
L 416 -51 
C 666 -32 666 -32 710 -32 
C 755 -32 755 -32 1005 -51 
C 1274 649 1587 1317 2010 2087 
L 3181 4199 
L 3181 4372 
C 2490 4372 2266 4372 1747 4372 
C 1280 4372 966 4372 346 4372 
L 282 4359 
C 301 3750 301 3750 301 3685 
C 301 3614 301 3614 282 3031 
L 474 3031 
L 518 3390 
C 570 3789 614 3840 909 3840 
L 2618 3840 
C 2362 3313 2163 2941 1920 2549 
z
" id="URWPalladioL-Roma-37" transform="scale(0.015625)"/>
       </defs>
       <use transform="scale(0.996264)" xlink:href="#URWPalladioL-Roma-37"/>
      </g>
     </g>
    </g>
   </g>
   <g id="matplotlib.axis_2">
    <g id="text_9">
     <!-- $N=8$ -->
     <g transform="translate(15.753876 49.243543)rotate(-90)scale(0.12 -0.12)">
      <defs>
       <path d="M 1517 4402 
L 998 4402 
L 934 4402 
L 845 4402 
C 826 4402 730 4402 582 4402 
L 480 4402 
L 448 4224 
L 672 4224 
C 781 4224 922 4179 992 4122 
C 1088 4045 1184 3924 1184 3873 
C 1184 3867 1184 3848 1178 3828 
C 1178 3822 1178 3809 1171 3797 
C 1165 3746 1158 3701 1152 3682 
L 589 662 
C 512 267 474 216 243 190 
L 45 171 
L 13 -7 
L 723 -7 
C 800 -7 806 -7 1427 -7 
L 1459 165 
L 1190 184 
C 934 204 877 255 877 465 
C 877 516 883 586 896 656 
L 1408 3612 
L 3571 -64 
L 3891 -64 
L 4493 3459 
C 4627 4179 4640 4205 4877 4224 
L 5114 4224 
L 5146 4402 
L 5011 4402 
L 4442 4402 
L 3891 4402 
L 3770 4402 
L 3738 4224 
L 4038 4224 
C 4205 4224 4269 4177 4269 4071 
C 4269 4026 4250 3861 4237 3778 
L 3725 662 
z
" id="URWPalladioL-Ital-4e" transform="scale(0.015625)"/>
       <path d="M 4397 2048 
C 4493 2048 4614 2048 4614 2177 
C 4614 2305 4493 2305 4403 2305 
L 570 2305 
C 480 2305 358 2305 358 2177 
C 358 2048 480 2048 576 2048 
z
M 4403 832 
C 4493 832 4614 832 4614 961 
C 4614 1089 4493 1089 4397 1089 
L 576 1089 
C 480 1089 358 1089 358 961 
C 358 832 480 832 570 832 
z
" id="CMR10-3d" transform="scale(0.015625)"/>
       <path d="M 1075 2211 
C 813 2090 704 2019 563 1884 
C 320 1641 192 1352 192 1019 
C 192 359 723 -128 1446 -128 
C 2278 -128 2970 526 2970 1320 
C 2970 1833 2733 2109 2003 2442 
C 2586 2840 2790 3109 2790 3493 
C 2790 4044 2336 4416 1658 4416 
C 896 4416 339 3929 339 3257 
C 339 2821 512 2577 1075 2211 
z
M 1818 1891 
C 2221 1711 2464 1397 2464 1052 
C 2464 513 2061 90 1542 90 
C 998 90 646 475 646 1071 
C 646 1538 832 1833 1306 2122 
z
M 1427 2712 
C 1024 2910 819 3167 819 3487 
C 819 3910 1126 4198 1581 4198 
C 2048 4198 2355 3891 2355 3422 
C 2355 3058 2195 2808 1779 2538 
z
" id="URWPalladioL-Roma-38" transform="scale(0.015625)"/>
      </defs>
      <use transform="scale(0.996264)" xlink:href="#URWPalladioL-Ital-4e"/>
      <use transform="translate(110.762391 0)scale(1.038107)" xlink:href="#CMR10-3d"/>
      <use transform="translate(220.37802 0)scale(0.996264)" xlink:href="#URWPalladioL-Roma-38"/>
     </g>
    </g>
   </g>
   <g id="PathCollection_1">
    <path clip-path="url(#pa88c687b08)" d="M 52.754807 52.383297 
L 62.754807 52.383297 
L 62.754807 42.383297 
L 52.754807 42.383297 
z
" style="fill:#6e3b87;stroke:#6e3b87;stroke-width:0.5;"/>
    <path clip-path="url(#pa88c687b08)" d="M 122.014102 52.383297 
L 132.014102 52.383297 
L 132.014102 42.383297 
L 122.014102 42.383297 
z
" style="fill:#0271ae;stroke:#0271ae;stroke-width:0.5;"/>
    <path clip-path="url(#pa88c687b08)" d="M 191.273397 52.383297 
L 201.273397 52.383297 
L 201.273397 42.383297 
L 191.273397 42.383297 
z
" style="fill:#0271ae;stroke:#0271ae;stroke-width:0.5;"/>
    <path clip-path="url(#pa88c687b08)" d="M 260.532692 52.383297 
L 270.532692 52.383297 
L 270.532692 42.383297 
L 260.532692 42.383297 
z
" style="fill:#0271ae;stroke:#0271ae;stroke-width:0.5;"/>
    <path clip-path="url(#pa88c687b08)" d="M 329.791987 52.383297 
L 339.791987 52.383297 
L 339.791987 42.383297 
L 329.791987 42.383297 
z
" style="fill:#6e3b87;stroke:#6e3b87;stroke-width:0.5;"/>
    <path clip-path="url(#pa88c687b08)" d="M 399.051282 52.383297 
L 409.051282 52.383297 
L 409.051282 42.383297 
L 399.051282 42.383297 
z
" style="fill:#dc2830;stroke:#dc2830;stroke-width:0.5;"/>
    <path clip-path="url(#pa88c687b08)" d="M 468.310577 52.383297 
L 478.310577 52.383297 
L 478.310577 42.383297 
L 468.310577 42.383297 
z
" style="fill:#dc2830;stroke:#dc2830;stroke-width:0.5;"/>
    <path clip-path="url(#pa88c687b08)" d="M 537.569872 52.383297 
L 547.569872 52.383297 
L 547.569872 42.383297 
L 537.569872 42.383297 
z
" style="fill:#dc2830;stroke:#dc2830;stroke-width:0.5;"/>
   </g>
   <g id="patch_3">
    <path clip-path="url(#pa88c687b08)" d="M 128.860244 46.608034 
Q 330.078083 -25.966584 531.296093 43.285539 
L 532.890702 38.652266 
Q 536.826123 42.650761 540.691996 46.702894 
Q 535.129423 47.354368 529.636398 48.107926 
L 531.231007 43.474653 
Q 330.07964 -25.754535 128.928101 46.796171 
L 128.860244 46.608034 
z
" style="fill:#ffc438;stroke:#ffc438;stroke-linecap:round;stroke-width:3;"/>
   </g>
   <g id="patch_4">
    <path clip-path="url(#pa88c687b08)" d="M 198.120734 46.609153 
Q 330.070579 -0.764457 462.020676 43.336129 
L 463.573907 38.688821 
Q 467.5565 42.65615 471.433826 46.704843 
Q 465.866304 47.362467 460.404048 48.173123 
L 461.957279 43.525815 
Q 330.072923 -0.552799 198.188315 46.797389 
L 198.120734 46.609153 
z
" style="fill:#ffc438;stroke:#ffc438;stroke-linecap:round;stroke-width:3;"/>
   </g>
   <g id="patch_5">
    <path clip-path="url(#pa88c687b08)" d="M 267.380442 46.613655 
Q 330.042055 24.426145 392.70413 43.487068 
L 394.130128 38.799154 
Q 398.258495 42.669392 402.170683 46.708107 
Q 396.587216 47.384531 391.219929 48.366324 
L 392.645926 43.678411 
Q 330.046793 24.636635 267.447197 46.802186 
L 267.380442 46.613655 
z
" style="fill:#ffc438;stroke:#ffc438;stroke-linecap:round;stroke-width:3;"/>
   </g>
  </g>
  <g id="axes_2">
   <g id="patch_6">
    <path d="M 23.12516 147.861659 
L 577.19952 147.861659 
L 577.19952 96.19742 
L 23.12516 96.19742 
z
" style="fill:none;"/>
   </g>
   <g id="matplotlib.axis_3">
    <g id="xtick_9">
     <g id="line2d_9">
      <g>
       <use style="fill-opacity:0.2;stroke:#000000;stroke-opacity:0.2;stroke-width:0.8;" x="60.112767" xlink:href="#ma32963842b" y="147.861659"/>
      </g>
     </g>
     <g id="text_10">
      <!-- $\mathdefault{0}$ -->
      <g transform="translate(56.625843 173.341188)scale(0.14 -0.14)">
       <use transform="scale(0.996264)" xlink:href="#URWPalladioL-Roma-30"/>
      </g>
     </g>
    </g>
    <g id="xtick_10">
     <g id="line2d_10">
      <g>
       <use style="fill-opacity:0.2;stroke:#000000;stroke-opacity:0.2;stroke-width:0.8;" x="134.087982" xlink:href="#ma32963842b" y="147.861659"/>
      </g>
     </g>
     <g id="text_11">
      <!-- $\mathdefault{1}$ -->
      <g transform="translate(130.601058 173.341188)scale(0.14 -0.14)">
       <use transform="scale(0.996264)" xlink:href="#URWPalladioL-Roma-31"/>
      </g>
     </g>
    </g>
    <g id="xtick_11">
     <g id="line2d_11">
      <g>
       <use style="fill-opacity:0.2;stroke:#000000;stroke-opacity:0.2;stroke-width:0.8;" x="208.063197" xlink:href="#ma32963842b" y="147.861659"/>
      </g>
     </g>
     <g id="text_12">
      <!-- $\mathdefault{2}$ -->
      <g transform="translate(204.576273 173.341188)scale(0.14 -0.14)">
       <use transform="scale(0.996264)" xlink:href="#URWPalladioL-Roma-32"/>
      </g>
     </g>
    </g>
    <g id="xtick_12">
     <g id="line2d_12">
      <g>
       <use style="fill-opacity:0.2;stroke:#000000;stroke-opacity:0.2;stroke-width:0.8;" x="282.038412" xlink:href="#ma32963842b" y="147.861659"/>
      </g>
     </g>
     <g id="text_13">
      <!-- $\mathdefault{3}$ -->
      <g transform="translate(278.551488 173.341188)scale(0.14 -0.14)">
       <use transform="scale(0.996264)" xlink:href="#URWPalladioL-Roma-33"/>
      </g>
     </g>
    </g>
    <g id="xtick_13">
     <g id="line2d_13">
      <g>
       <use style="fill-opacity:0.2;stroke:#000000;stroke-opacity:0.2;stroke-width:0.8;" x="356.013627" xlink:href="#ma32963842b" y="147.861659"/>
      </g>
     </g>
     <g id="text_14">
      <!-- $\mathdefault{4}$ -->
      <g transform="translate(352.526703 173.341188)scale(0.14 -0.14)">
       <use transform="scale(0.996264)" xlink:href="#URWPalladioL-Roma-34"/>
      </g>
     </g>
    </g>
    <g id="xtick_14">
     <g id="line2d_14">
      <g>
       <use style="fill-opacity:0.2;stroke:#000000;stroke-opacity:0.2;stroke-width:0.8;" x="429.988842" xlink:href="#ma32963842b" y="147.861659"/>
      </g>
     </g>
     <g id="text_15">
      <!-- $\mathdefault{5}$ -->
      <g transform="translate(426.501918 173.341188)scale(0.14 -0.14)">
       <use transform="scale(0.996264)" xlink:href="#URWPalladioL-Roma-35"/>
      </g>
     </g>
    </g>
    <g id="xtick_15">
     <g id="line2d_15">
      <g>
       <use style="fill-opacity:0.2;stroke:#000000;stroke-opacity:0.2;stroke-width:0.8;" x="503.964057" xlink:href="#ma32963842b" y="147.861659"/>
      </g>
     </g>
     <g id="text_16">
      <!-- $\mathdefault{6}$ -->
      <g transform="translate(500.477133 173.341188)scale(0.14 -0.14)">
       <use transform="scale(0.996264)" xlink:href="#URWPalladioL-Roma-36"/>
      </g>
     </g>
    </g>
    <g id="text_17">
     <!-- Frequency index $m$ -->
     <g transform="translate(249.918336 189.828236)scale(0.12 -0.12)">
      <defs>
       <path d="M 1382 2100 
C 1562 2112 1754 2112 2042 2112 
C 2515 2112 2688 2094 2803 2040 
L 2854 1890 
L 2886 1536 
L 3078 1536 
C 3059 2132 3059 2132 3059 2247 
C 3059 2350 3059 2350 3078 2991 
L 2886 2991 
L 2854 2642 
C 2848 2581 2829 2521 2803 2467 
C 2688 2414 2509 2394 2086 2394 
C 1818 2394 1600 2394 1382 2394 
L 1382 4117 
C 1574 4160 1690 4160 2067 4160 
C 2374 4160 2733 4124 2931 4076 
C 3085 4039 3104 4008 3104 3868 
L 3104 3465 
L 3328 3465 
C 3328 3843 3360 4146 3430 4423 
C 3117 4423 2925 4423 2650 4423 
L 1965 4423 
C 1651 4423 1427 4423 1267 4423 
C 1082 4423 1082 4423 141 4423 
L 141 4224 
L 448 4224 
C 742 4224 774 4172 774 3663 
L 774 766 
C 774 256 742 205 448 205 
L 141 205 
L 141 0 
C 518 0 742 0 1075 0 
C 1408 0 1638 0 2016 0 
L 2016 205 
L 1709 205 
C 1414 205 1382 256 1382 766 
z
" id="URWPalladioL-Roma-46" transform="scale(0.015625)"/>
       <path d="M 147 2565 
L 384 2565 
C 640 2565 666 2520 666 2094 
L 666 643 
C 666 237 646 192 429 192 
L 134 192 
L 134 -7 
C 595 -7 762 -7 922 -7 
C 1050 -7 1050 -7 1837 -7 
L 1837 192 
L 1504 192 
C 1216 192 1203 211 1203 638 
L 1203 1751 
C 1203 2139 1459 2463 1773 2463 
C 1965 2463 2099 2373 2202 2169 
L 2336 2169 
L 2394 2937 
C 2323 2982 2208 3008 2093 3008 
C 1901 3008 1696 2905 1562 2745 
L 1203 2322 
L 1203 2982 
L 1146 3008 
C 819 2873 486 2783 147 2745 
z
" id="URWPalladioL-Roma-72" transform="scale(0.015625)"/>
       <path d="M 2797 447 
L 2714 511 
C 2304 269 2157 212 1882 212 
C 1466 212 1120 398 941 711 
C 819 921 774 1101 762 1472 
L 1696 1472 
C 2138 1472 2413 1472 2854 1544 
C 2861 1634 2867 1693 2867 1771 
C 2867 2520 2394 3008 1677 3008 
C 1440 3008 1165 2924 902 2770 
C 378 2469 166 2071 166 1404 
C 166 1000 262 654 435 410 
C 691 71 1120 -128 1600 -128 
C 1837 -128 2074 -77 2336 37 
C 2509 108 2643 191 2669 230 
z
M 2298 1690 
C 1965 1690 1811 1690 1581 1690 
C 1286 1690 1120 1690 774 1722 
C 774 2027 800 2169 883 2337 
C 1018 2622 1293 2796 1600 2796 
C 1811 2796 1978 2711 2093 2534 
C 2234 2319 2278 2129 2298 1690 
z
" id="URWPalladioL-Roma-65" transform="scale(0.015625)"/>
       <path d="M 2515 436 
L 2515 -1138 
C 2515 -1547 2490 -1593 2278 -1593 
L 1907 -1593 
L 1907 -1792 
C 2650 -1792 2650 -1792 2797 -1792 
C 2950 -1792 3130 -1792 3584 -1792 
L 3584 -1593 
L 3290 -1593 
C 3072 -1593 3053 -1548 3053 -1143 
L 3053 2036 
C 3053 2435 3091 2680 3200 2924 
L 3078 2995 
L 2765 2796 
C 2438 2943 2163 3008 1888 3008 
C 1702 3008 1478 2956 1382 2899 
L 845 2554 
C 435 2292 224 1871 224 1315 
C 224 479 730 -64 1523 -64 
C 1658 -64 1766 -38 1850 13 
z
M 2515 781 
C 2515 691 2362 525 2189 429 
C 2035 346 1888 302 1734 302 
C 1171 302 781 824 781 1596 
C 781 2298 1139 2706 1754 2706 
C 2067 2706 2291 2630 2515 2445 
z
" id="URWPalladioL-Roma-71" transform="scale(0.015625)"/>
       <path d="M 3219 3009 
L 3162 3035 
C 2835 2900 2502 2810 2163 2772 
L 2163 2592 
L 2400 2592 
C 2656 2592 2682 2547 2682 2121 
L 2682 1070 
C 2682 928 2592 747 2445 599 
C 2266 418 2061 327 1811 327 
C 1587 327 1408 398 1306 521 
C 1216 624 1171 824 1171 1107 
L 1171 3009 
L 1114 3035 
C 787 2900 454 2810 115 2772 
L 115 2592 
L 352 2592 
C 608 2592 634 2547 634 2122 
L 634 1039 
C 634 587 672 387 787 227 
C 928 33 1171 -64 1536 -64 
C 1824 -64 2080 26 2253 186 
L 2682 585 
C 2682 401 2675 298 2656 0 
C 3085 0 3091 0 3187 0 
C 3277 0 3277 0 3718 0 
L 3718 186 
L 3456 212 
C 3238 212 3219 251 3219 664 
z
" id="URWPalladioL-Roma-75" transform="scale(0.015625)"/>
       <path d="M 2624 -7 
C 3014 -7 3021 -7 3130 -7 
C 3219 -7 3219 -7 3661 -7 
L 3661 179 
L 3398 205 
C 3181 205 3162 244 3162 654 
L 3162 1892 
C 3162 2642 2810 3008 2093 3008 
C 1856 3008 1722 2963 1587 2847 
L 1101 2424 
L 1101 2982 
L 1043 3008 
C 717 2873 384 2783 45 2745 
L 45 2565 
L 282 2565 
C 538 2565 563 2520 563 2094 
L 563 643 
C 563 237 544 192 326 192 
L 38 192 
L 38 -7 
C 474 -7 646 -7 832 -7 
C 1018 -7 1190 -7 1626 -7 
L 1626 192 
L 1338 192 
C 1120 192 1101 237 1101 643 
L 1101 2011 
C 1101 2300 1523 2616 1914 2616 
C 2342 2616 2624 2297 2624 1806 
z
" id="URWPalladioL-Roma-6e" transform="scale(0.015625)"/>
       <path d="M 2554 1994 
C 2554 2289 2586 2552 2643 2783 
C 2387 2937 2163 3008 1901 3008 
C 1594 3008 1235 2886 851 2642 
C 403 2360 166 1911 166 1347 
C 166 481 774 -128 1632 -128 
C 1965 -128 2445 -6 2509 90 
L 2643 295 
L 2579 391 
C 2342 263 2138 205 1907 205 
C 1197 205 730 757 730 1603 
C 730 2289 1050 2674 1626 2674 
C 1907 2674 2214 2546 2330 2386 
L 2374 1994 
z
" id="URWPalladioL-Roma-63" transform="scale(0.015625)"/>
       <path d="M 1901 564 
C 1760 808 1690 956 1574 1270 
L 1165 2347 
C 1126 2456 1101 2552 1101 2618 
C 1101 2710 1171 2764 1318 2764 
L 1562 2764 
L 1562 2944 
C 941 2944 941 2944 819 2944 
C 698 2944 698 2944 77 2944 
L 77 2777 
L 192 2764 
C 352 2745 429 2674 525 2451 
L 1222 775 
C 1402 340 1466 186 1581 -134 
L 1434 -524 
C 1229 -1062 979 -1362 736 -1362 
C 634 -1362 518 -1311 410 -1215 
L 326 -1215 
L 173 -1696 
C 294 -1760 397 -1792 518 -1792 
C 947 -1792 1222 -1562 1466 -1005 
L 2765 1990 
C 3021 2572 3142 2745 3302 2764 
L 3482 2777 
L 3482 2944 
C 2976 2944 2976 2944 2874 2944 
C 2771 2944 2771 2944 2266 2944 
L 2266 2777 
L 2432 2764 
C 2611 2751 2701 2694 2701 2604 
C 2701 2559 2688 2501 2662 2437 
z
" id="URWPalladioL-Roma-79" transform="scale(0.015625)"/>
       <path d="M 1203 2993 
L 1146 3019 
C 819 2884 486 2793 147 2755 
L 147 2576 
L 384 2576 
C 640 2576 666 2531 666 2105 
L 666 651 
C 666 244 646 199 429 199 
L 134 199 
L 134 0 
C 774 0 774 0 934 0 
C 1094 0 1094 0 1734 0 
L 1734 199 
L 1440 199 
C 1222 199 1203 244 1203 651 
z
M 909 4416 
C 717 4416 550 4249 550 4056 
C 550 3870 717 3704 902 3704 
C 1088 3704 1261 3870 1261 4056 
C 1261 4236 1088 4416 909 4416 
z
" id="URWPalladioL-Roma-69" transform="scale(0.015625)"/>
       <path d="M 2637 2802 
C 2278 2956 2099 3008 1875 3008 
C 1702 3008 1549 2969 1389 2887 
L 826 2593 
C 461 2401 224 1935 224 1392 
C 224 881 397 460 710 204 
C 928 19 1229 -64 1645 -64 
C 1773 -64 1920 -38 1952 -13 
L 2662 583 
L 2630 -7 
C 2944 -7 3046 -7 3123 -7 
C 3174 -7 3264 -7 3398 -7 
C 3443 -7 3571 -7 3706 -7 
L 3706 192 
L 3411 192 
C 3194 192 3174 237 3174 643 
L 3174 4607 
L 3117 4659 
C 2835 4550 2624 4498 2118 4421 
L 2118 4242 
L 2477 4242 
C 2592 4242 2637 4171 2637 3978 
z
M 2637 1424 
C 2637 1009 2624 946 2541 799 
C 2362 499 2048 302 1747 302 
C 1184 302 781 844 781 1603 
C 781 2298 1126 2706 1702 2706 
C 1946 2706 2202 2623 2426 2470 
C 2560 2381 2637 2298 2637 2246 
z
" id="URWPalladioL-Roma-64" transform="scale(0.015625)"/>
       <path d="M 1843 1630 
L 2752 2694 
C 2790 2739 2861 2765 2970 2765 
L 3059 2765 
L 3059 2944 
L 2534 2944 
L 1741 1822 
L 1254 2566 
C 1158 2707 1088 2791 870 3009 
L 128 2880 
L 160 2708 
L 294 2694 
C 410 2694 550 2605 614 2515 
L 1382 1398 
L 429 269 
C 384 212 301 173 237 173 
L 128 173 
L 128 0 
L 678 0 
C 723 71 736 96 813 212 
C 915 391 1018 551 1062 603 
L 1536 1231 
L 2221 208 
L 2227 196 
C 2285 107 2336 44 2387 0 
C 2720 0 2720 0 2778 0 
C 2842 0 2842 0 3174 0 
L 3174 173 
L 3014 192 
C 2938 199 2861 250 2790 346 
z
" id="URWPalladioL-Roma-78" transform="scale(0.015625)"/>
       <path d="M 4672 650 
L 4506 542 
C 4320 421 4179 351 4115 351 
C 4070 351 4032 408 4032 478 
C 4032 542 4045 600 4077 734 
L 4557 2631 
C 4582 2739 4602 2841 4602 2893 
C 4602 3002 4538 3072 4435 3072 
C 4250 3072 4006 2957 3616 2682 
C 3213 2394 2989 2171 2675 1730 
L 2867 2606 
C 2893 2733 2912 2829 2912 2874 
C 2912 2995 2848 3072 2746 3072 
C 2554 3072 2259 2932 1907 2663 
C 1626 2445 1498 2311 1082 1749 
L 1293 2599 
C 1318 2701 1331 2797 1331 2873 
C 1331 2995 1274 3072 1184 3072 
C 1050 3072 806 2938 333 2598 
L 154 2471 
L 198 2343 
L 403 2477 
C 640 2625 659 2637 704 2637 
C 774 2637 819 2574 819 2478 
C 819 2152 557 919 294 6 
L 314 -64 
L 749 31 
L 890 683 
C 1043 1392 1216 1769 1568 2152 
C 1837 2446 2125 2637 2304 2637 
C 2349 2637 2374 2586 2374 2504 
C 2374 2280 2234 1552 1971 434 
L 1869 6 
L 1901 -64 
L 2342 31 
L 2477 715 
C 2579 1232 2797 1711 3078 2025 
C 3430 2414 3750 2637 3955 2637 
C 4006 2637 4038 2580 4038 2478 
C 4038 2324 4019 2235 3878 1679 
C 3776 1277 3667 894 3603 677 
C 3546 497 3520 332 3520 192 
C 3520 31 3590 -64 3712 -64 
C 3878 -64 4109 69 4736 536 
z
" id="URWPalladioL-Ital-6d" transform="scale(0.015625)"/>
      </defs>
      <use transform="scale(0.996264)" xlink:href="#URWPalladioL-Roma-46"/>
      <use transform="translate(55.391677 0)scale(0.996264)" xlink:href="#URWPalladioL-Roma-72"/>
      <use transform="translate(92.950994 0)scale(0.996264)" xlink:href="#URWPalladioL-Roma-65"/>
      <use transform="translate(140.671289 0)scale(0.996264)" xlink:href="#URWPalladioL-Roma-71"/>
      <use transform="translate(196.461922 0)scale(0.996264)" xlink:href="#URWPalladioL-Roma-75"/>
      <use transform="translate(256.535657 0)scale(0.996264)" xlink:href="#URWPalladioL-Roma-65"/>
      <use transform="translate(304.255952 0)scale(0.996264)" xlink:href="#URWPalladioL-Roma-6e"/>
      <use transform="translate(362.238012 0)scale(0.996264)" xlink:href="#URWPalladioL-Roma-63"/>
      <use transform="translate(406.471581 0)scale(0.996264)" xlink:href="#URWPalladioL-Roma-79"/>
      <use transform="translate(486.769858 0)scale(0.996264)" xlink:href="#URWPalladioL-Roma-69"/>
      <use transform="translate(515.76022 0)scale(0.996264)" xlink:href="#URWPalladioL-Roma-6e"/>
      <use transform="translate(573.742281 0)scale(0.996264)" xlink:href="#URWPalladioL-Roma-64"/>
      <use transform="translate(634.613911 0)scale(0.996264)" xlink:href="#URWPalladioL-Roma-65"/>
      <use transform="translate(682.334206 0)scale(0.996264)" xlink:href="#URWPalladioL-Roma-78"/>
      <use transform="translate(759.892453 0)scale(0.996264)" xlink:href="#URWPalladioL-Ital-6d"/>
     </g>
    </g>
   </g>
   <g id="matplotlib.axis_4">
    <g id="text_18">
     <!-- $N=7$ -->
     <g transform="translate(15.753876 138.240963)rotate(-90)scale(0.12 -0.12)">
      <use transform="scale(0.996264)" xlink:href="#URWPalladioL-Ital-4e"/>
      <use transform="translate(110.762391 0)scale(1.038107)" xlink:href="#CMR10-3d"/>
      <use transform="translate(220.37802 0)scale(0.996264)" xlink:href="#URWPalladioL-Roma-37"/>
     </g>
    </g>
   </g>
   <g id="PathCollection_2">
    <path clip-path="url(#p54ce5e33b8)" d="M 55.112767 141.380717 
L 65.112767 141.380717 
L 65.112767 131.380717 
L 55.112767 131.380717 
z
" style="fill:#6e3b87;stroke:#6e3b87;stroke-width:0.5;"/>
    <path clip-path="url(#p54ce5e33b8)" d="M 129.087982 141.380717 
L 139.087982 141.380717 
L 139.087982 131.380717 
L 129.087982 131.380717 
z
" style="fill:#0271ae;stroke:#0271ae;stroke-width:0.5;"/>
    <path clip-path="url(#p54ce5e33b8)" d="M 203.063197 141.380717 
L 213.063197 141.380717 
L 213.063197 131.380717 
L 203.063197 131.380717 
z
" style="fill:#0271ae;stroke:#0271ae;stroke-width:0.5;"/>
    <path clip-path="url(#p54ce5e33b8)" d="M 277.038412 141.380717 
L 287.038412 141.380717 
L 287.038412 131.380717 
L 277.038412 131.380717 
z
" style="fill:#0271ae;stroke:#0271ae;stroke-width:0.5;"/>
    <path clip-path="url(#p54ce5e33b8)" d="M 351.013627 141.380717 
L 361.013627 141.380717 
L 361.013627 131.380717 
L 351.013627 131.380717 
z
" style="fill:#dc2830;stroke:#dc2830;stroke-width:0.5;"/>
    <path clip-path="url(#p54ce5e33b8)" d="M 424.988842 141.380717 
L 434.988842 141.380717 
L 434.988842 131.380717 
L 424.988842 131.380717 
z
" style="fill:#dc2830;stroke:#dc2830;stroke-width:0.5;"/>
    <path clip-path="url(#p54ce5e33b8)" d="M 498.964057 141.380717 
L 508.964057 141.380717 
L 508.964057 131.380717 
L 498.964057 131.380717 
z
" style="fill:#dc2830;stroke:#dc2830;stroke-width:0.5;"/>
   </g>
   <g id="patch_7">
    <path clip-path="url(#p54ce5e33b8)" d="M 135.936316 135.605047 
Q 314.307946 71.343834 492.679768 132.293196 
L 494.264149 127.656415 
Q 498.214152 131.648225 502.085793 135.700556 
Q 496.519075 136.352495 491.030719 137.119233 
L 492.6151 132.482452 
Q 314.309698 71.555786 136.004104 135.793209 
L 135.936316 135.605047 
z
" style="fill:#ffc438;stroke:#ffc438;stroke-linecap:round;stroke-width:3;"/>
   </g>
   <g id="patch_8">
    <path clip-path="url(#p54ce5e33b8)" d="M 209.908914 135.608307 
Q 314.290408 98.260027 418.672211 132.366631 
L 420.194097 127.708964 
Q 424.215843 131.653648 428.105207 135.700948 
Q 422.530515 136.362089 417.088207 137.214407 
L 418.610093 132.55674 
Q 314.293347 98.471392 209.976292 135.796616 
L 209.908914 135.608307 
z
" style="fill:#ffc438;stroke:#ffc438;stroke-linecap:round;stroke-width:3;"/>
   </g>
   <g id="patch_9">
    <path clip-path="url(#p54ce5e33b8)" d="M 283.888553 135.618359 
Q 314.226336 125.138386 344.564854 132.755505 
L 345.758068 128.003007 
Q 350.153415 131.689097 354.125953 135.711192 
Q 348.513041 136.42252 343.322937 137.701983 
L 344.516151 132.949485 
Q 314.235371 125.346861 283.953855 135.807397 
L 283.888553 135.618359 
z
" style="fill:#ffc438;stroke:#ffc438;stroke-linecap:round;stroke-width:3;"/>
   </g>
  </g>
 </g>
 <defs>
  <clipPath id="pa88c687b08">
   <rect height="51.664238" width="554.07436" x="23.12516" y="7.2"/>
  </clipPath>
  <clipPath id="p54ce5e33b8">
   <rect height="51.664238" width="554.07436" x="23.12516" y="96.19742"/>
  </clipPath>
 </defs>
</svg>
