<?xml version="1.0" encoding="utf-8" standalone="no"?>
<!DOCTYPE svg PUBLIC "-//W3C//DTD SVG 1.1//EN"
  "http://www.w3.org/Graphics/SVG/1.1/DTD/svg11.dtd">
<svg height="296.39952pt" version="1.1" viewBox="0 0 584.39952 296.39952" width="584.39952pt" xmlns="http://www.w3.org/2000/svg" xmlns:xlink="http://www.w3.org/1999/xlink">
 <metadata>
  <rdf:RDF xmlns:cc="http://creativecommons.org/ns#" xmlns:dc="http://purl.org/dc/elements/1.1/" xmlns:rdf="http://www.w3.org/1999/02/22-rdf-syntax-ns#">
   <cc:Work>
    <dc:type rdf:resource="http://purl.org/dc/dcmitype/StillImage"/>
    <dc:date>2021-05-25T14:36:50.262067</dc:date>
    <dc:format>image/svg+xml</dc:format>
    <dc:creator>
     <cc:Agent>
      <dc:title>Matplotlib v3.4.2, https://matplotlib.org/</dc:title>
     </cc:Agent>
    </dc:creator>
   </cc:Work>
  </rdf:RDF>
 </metadata>
 <defs>
  <style type="text/css">*{stroke-linecap:butt;stroke-linejoin:round;}</style>
 </defs>
 <g id="figure_1">
  <g id="patch_1">
   <path d="M 0 296.39952 
L 584.39952 296.39952 
L 584.39952 0 
L 0 0 
z
" style="fill:none;"/>
  </g>
  <g id="axes_1">
   <g id="patch_2">
    <path d="M 51.606463 243.861659 
L 577.19952 243.861659 
L 577.19952 7.2 
L 51.606463 7.2 
z
" style="fill:none;"/>
   </g>
   <g id="line2d_1">
    <path clip-path="url(#p4545f718c2)" d="M 319.766186 243.861659 
L 319.766186 7.2 
" style="fill:none;stroke:#dc2830;stroke-dasharray:11.1,4.8;stroke-dashoffset:0;stroke-linejoin:miter;stroke-opacity:0.5;stroke-width:3;"/>
   </g>
   <g id="matplotlib.axis_1">
    <g id="xtick_1">
     <g id="line2d_2">
      <path clip-path="url(#p4545f718c2)" d="M 51.606463 243.861659 
L 51.606463 7.2 
" style="fill:none;stroke:#000000;stroke-linejoin:miter;stroke-opacity:0.2;stroke-width:0.5;"/>
     </g>
     <g id="line2d_3">
      <defs>
       <path d="M 0 0 
L 0 3.5 
" id="md2ad452f96" style="stroke:#000000;stroke-opacity:0.2;stroke-width:0.8;"/>
      </defs>
      <g>
       <use style="fill-opacity:0.2;stroke:#000000;stroke-opacity:0.2;stroke-width:0.8;" x="51.606463" xlink:href="#md2ad452f96" y="243.861659"/>
      </g>
     </g>
     <g id="text_1">
      <!-- $\mathdefault{0.0}$ -->
      <g transform="translate(42.889153 269.341188)scale(0.14 -0.14)">
       <defs>
        <path d="M 1683 4416 
C 691 4416 186 3628 186 2076 
C 186 1326 320 679 544 365 
C 768 51 1126 -128 1523 -128 
C 2490 -128 2976 704 2976 2345 
C 2976 3749 2560 4416 1683 4416 
z
M 1568 4191 
C 2189 4191 2438 3563 2438 2025 
C 2438 660 2195 96 1606 96 
C 986 96 723 743 723 2307 
C 723 3660 960 4191 1568 4191 
z
" id="URWPalladioL-Roma-30" transform="scale(0.015625)"/>
        <path d="M 794 678 
C 602 678 429 499 429 307 
C 429 115 602 -64 787 -64 
C 992 -64 1171 108 1171 307 
C 1171 499 992 678 794 678 
z
" id="URWPalladioL-Roma-2e" transform="scale(0.015625)"/>
       </defs>
       <use transform="scale(0.996264)" xlink:href="#URWPalladioL-Roma-30"/>
       <use transform="translate(49.8132 0)scale(0.996264)" xlink:href="#URWPalladioL-Roma-2e"/>
       <use transform="translate(74.719801 0)scale(0.996264)" xlink:href="#URWPalladioL-Roma-30"/>
      </g>
     </g>
    </g>
    <g id="xtick_2">
     <g id="line2d_4">
      <path clip-path="url(#p4545f718c2)" d="M 158.870352 243.861659 
L 158.870352 7.2 
" style="fill:none;stroke:#000000;stroke-linejoin:miter;stroke-opacity:0.2;stroke-width:0.5;"/>
     </g>
     <g id="line2d_5">
      <g>
       <use style="fill-opacity:0.2;stroke:#000000;stroke-opacity:0.2;stroke-width:0.8;" x="158.870352" xlink:href="#md2ad452f96" y="243.861659"/>
      </g>
     </g>
     <g id="text_2">
      <!-- $\mathdefault{0.2}$ -->
      <g transform="translate(150.153042 269.341188)scale(0.14 -0.14)">
       <defs>
        <path d="M 102 166 
L 102 0 
C 1299 0 1299 0 1530 0 
C 1760 19 1760 19 2995 0 
C 2982 134 2982 198 2982 287 
C 2982 370 2982 434 2995 574 
C 2259 542 1965 536 781 510 
L 1946 1741 
C 2566 2398 2758 2749 2758 3228 
C 2758 3961 2259 4416 1446 4416 
C 986 4416 672 4287 358 3967 
L 250 3100 
L 435 3100 
L 518 3394 
C 621 3763 851 3923 1280 3923 
C 1830 3923 2182 3578 2182 3036 
C 2182 2558 1914 2086 1190 1320 
L 102 166 
z
" id="URWPalladioL-Roma-32" transform="scale(0.015625)"/>
       </defs>
       <use transform="scale(0.996264)" xlink:href="#URWPalladioL-Roma-30"/>
       <use transform="translate(49.8132 0)scale(0.996264)" xlink:href="#URWPalladioL-Roma-2e"/>
       <use transform="translate(74.719801 0)scale(0.996264)" xlink:href="#URWPalladioL-Roma-32"/>
      </g>
     </g>
    </g>
    <g id="xtick_3">
     <g id="line2d_6">
      <path clip-path="url(#p4545f718c2)" d="M 266.134241 243.861659 
L 266.134241 7.2 
" style="fill:none;stroke:#000000;stroke-linejoin:miter;stroke-opacity:0.2;stroke-width:0.5;"/>
     </g>
     <g id="line2d_7">
      <g>
       <use style="fill-opacity:0.2;stroke:#000000;stroke-opacity:0.2;stroke-width:0.8;" x="266.134241" xlink:href="#md2ad452f96" y="243.861659"/>
      </g>
     </g>
     <g id="text_3">
      <!-- $\mathdefault{0.4}$ -->
      <g transform="translate(257.416931 269.341188)scale(0.14 -0.14)">
       <defs>
        <path d="M 1792 1152 
L 1792 684 
C 1792 310 1722 223 1408 210 
L 1011 192 
L 1011 0 
C 1862 0 1862 0 2016 0 
C 2170 19 2170 19 3021 0 
L 3021 192 
L 2714 210 
C 2400 229 2330 310 2330 684 
L 2330 1152 
C 2707 1152 2842 1145 3021 1127 
L 3021 1580 
C 2720 1555 2598 1555 2502 1561 
L 2483 1561 
L 2330 1561 
L 2330 2445 
C 2330 3576 2342 4122 2374 4383 
L 2298 4416 
L 1824 4243 
L 13 1299 
L 83 1152 
L 1792 1152 
z
M 1792 1561 
L 416 1561 
L 1792 3798 
L 1792 1561 
z
" id="URWPalladioL-Roma-34" transform="scale(0.015625)"/>
       </defs>
       <use transform="scale(0.996264)" xlink:href="#URWPalladioL-Roma-30"/>
       <use transform="translate(49.8132 0)scale(0.996264)" xlink:href="#URWPalladioL-Roma-2e"/>
       <use transform="translate(74.719801 0)scale(0.996264)" xlink:href="#URWPalladioL-Roma-34"/>
      </g>
     </g>
    </g>
    <g id="xtick_4">
     <g id="line2d_8">
      <path clip-path="url(#p4545f718c2)" d="M 373.39813 243.861659 
L 373.39813 7.2 
" style="fill:none;stroke:#000000;stroke-linejoin:miter;stroke-opacity:0.2;stroke-width:0.5;"/>
     </g>
     <g id="line2d_9">
      <g>
       <use style="fill-opacity:0.2;stroke:#000000;stroke-opacity:0.2;stroke-width:0.8;" x="373.39813" xlink:href="#md2ad452f96" y="243.861659"/>
      </g>
     </g>
     <g id="text_4">
      <!-- $\mathdefault{0.6}$ -->
      <g transform="translate(364.68082 269.341188)scale(0.14 -0.14)">
       <defs>
        <path d="M 2662 4287 
L 2426 4396 
C 1811 4193 1549 4066 1222 3788 
C 563 3237 205 2463 205 1585 
C 205 526 717 -128 1542 -128 
C 2374 -128 2995 532 2995 1405 
C 2995 2143 2554 2624 1875 2624 
C 1555 2624 1363 2540 986 2239 
C 915 2182 909 2175 838 2124 
C 973 3275 1510 3895 2662 4237 
L 2662 4287 
z
M 1632 2239 
C 2118 2239 2445 1816 2445 1180 
C 2445 513 2118 83 1626 83 
C 1082 83 787 551 787 1411 
C 787 1636 813 1758 883 1867 
C 1024 2085 1325 2239 1632 2239 
z
" id="URWPalladioL-Roma-36" transform="scale(0.015625)"/>
       </defs>
       <use transform="scale(0.996264)" xlink:href="#URWPalladioL-Roma-30"/>
       <use transform="translate(49.8132 0)scale(0.996264)" xlink:href="#URWPalladioL-Roma-2e"/>
       <use transform="translate(74.719801 0)scale(0.996264)" xlink:href="#URWPalladioL-Roma-36"/>
      </g>
     </g>
    </g>
    <g id="xtick_5">
     <g id="line2d_10">
      <path clip-path="url(#p4545f718c2)" d="M 480.66202 243.861659 
L 480.66202 7.2 
" style="fill:none;stroke:#000000;stroke-linejoin:miter;stroke-opacity:0.2;stroke-width:0.5;"/>
     </g>
     <g id="line2d_11">
      <g>
       <use style="fill-opacity:0.2;stroke:#000000;stroke-opacity:0.2;stroke-width:0.8;" x="480.66202" xlink:href="#md2ad452f96" y="243.861659"/>
      </g>
     </g>
     <g id="text_5">
      <!-- $\mathdefault{0.8}$ -->
      <g transform="translate(471.94471 269.341188)scale(0.14 -0.14)">
       <defs>
        <path d="M 1075 2211 
C 813 2089 704 2019 563 1884 
C 320 1640 192 1352 192 1019 
C 192 358 723 -128 1446 -128 
C 2278 -128 2970 525 2970 1320 
C 2970 1833 2733 2108 2003 2442 
C 2586 2839 2790 3108 2790 3493 
C 2790 4044 2336 4416 1658 4416 
C 896 4416 339 3929 339 3256 
C 339 2820 512 2576 1075 2211 
z
M 1818 1890 
C 2221 1711 2464 1397 2464 1051 
C 2464 512 2061 89 1542 89 
C 998 89 646 474 646 1070 
C 646 1538 832 1833 1306 2121 
L 1818 1890 
z
M 1427 2711 
C 1024 2910 819 3166 819 3486 
C 819 3910 1126 4198 1581 4198 
C 2048 4198 2355 3890 2355 3422 
C 2355 3057 2195 2807 1779 2538 
L 1427 2711 
z
" id="URWPalladioL-Roma-38" transform="scale(0.015625)"/>
       </defs>
       <use transform="scale(0.996264)" xlink:href="#URWPalladioL-Roma-30"/>
       <use transform="translate(49.8132 0)scale(0.996264)" xlink:href="#URWPalladioL-Roma-2e"/>
       <use transform="translate(74.719801 0)scale(0.996264)" xlink:href="#URWPalladioL-Roma-38"/>
      </g>
     </g>
    </g>
    <g id="text_6">
     <!-- Time [seconds] -->
     <g transform="translate(274.73014 285.828236)scale(0.12 -0.12)">
      <defs>
       <path d="M 1632 4096 
C 1651 3880 1658 3734 1658 3462 
L 1658 781 
C 1658 280 1626 230 1331 211 
L 1024 192 
L 1024 0 
C 1402 -7 1626 0 1958 0 
C 2291 19 2522 12 2899 0 
L 2899 192 
L 2592 211 
C 2298 230 2266 280 2266 781 
L 2266 3462 
C 2266 3747 2272 3887 2291 4096 
L 3283 4096 
C 3462 4096 3533 4039 3539 3887 
L 3565 3386 
L 3763 3386 
C 3763 3801 3776 4051 3808 4416 
C 3347 4409 3136 4409 2957 4403 
C 2707 4390 2522 4390 2426 4390 
L 1414 4390 
C 1350 4390 1005 4396 550 4403 
L 115 4416 
C 147 4051 160 3801 160 3385 
L 358 3385 
L 384 3891 
C 390 4038 461 4096 640 4096 
L 1632 4096 
z
" id="URWPalladioL-Roma-54" transform="scale(0.015625)"/>
       <path d="M 1203 2982 
L 1146 3008 
C 819 2873 486 2784 147 2746 
L 147 2568 
L 384 2568 
C 640 2568 666 2523 666 2103 
L 666 669 
C 666 268 646 223 429 211 
L 134 192 
L 134 0 
C 774 0 774 0 934 0 
C 1094 19 1094 19 1734 0 
L 1734 192 
L 1440 211 
C 1222 224 1203 268 1203 671 
L 1203 2982 
z
M 909 4416 
C 717 4416 550 4249 550 4057 
C 550 3871 717 3705 902 3705 
C 1088 3705 1261 3871 1261 4057 
C 1261 4236 1088 4416 909 4416 
z
" id="URWPalladioL-Roma-69" transform="scale(0.015625)"/>
       <path d="M 115 2579 
L 352 2579 
C 608 2579 634 2534 634 2112 
L 634 672 
C 634 268 614 224 397 211 
L 102 192 
L 102 0 
C 717 0 736 0 915 0 
C 1094 19 1261 12 1677 0 
L 1677 192 
L 1408 211 
C 1190 223 1171 268 1171 670 
L 1171 2023 
C 1171 2311 1594 2624 1978 2624 
C 2323 2624 2560 2298 2560 1813 
L 2560 670 
C 2560 268 2541 223 2323 211 
L 2029 192 
L 2029 0 
C 2669 0 2669 0 2829 0 
C 2989 19 2989 19 3629 0 
L 3629 192 
L 3334 211 
C 3117 223 3098 268 3098 670 
L 3098 2023 
C 3098 2311 3520 2624 3904 2624 
C 4250 2624 4486 2298 4486 1813 
L 4486 0 
C 4877 0 4883 0 4992 0 
C 5075 19 5075 19 5562 0 
L 5562 192 
L 5261 211 
C 5043 223 5024 268 5024 670 
L 5024 1985 
C 5024 2617 4653 3014 4064 3014 
C 3840 3014 3654 2956 3539 2854 
L 3053 2419 
C 2848 2841 2586 3014 2144 3014 
C 1907 3014 1728 2956 1613 2854 
L 1171 2445 
L 1171 2988 
L 1114 3008 
C 787 2873 454 2783 115 2745 
L 115 2579 
z
" id="URWPalladioL-Roma-6d" transform="scale(0.015625)"/>
       <path d="M 2797 447 
L 2714 511 
C 2304 268 2157 211 1882 211 
C 1466 211 1120 396 941 710 
C 819 921 774 1100 762 1472 
L 1696 1472 
C 2138 1472 2413 1491 2854 1561 
C 2861 1651 2867 1708 2867 1786 
C 2867 2526 2394 3008 1677 3008 
C 1440 3008 1165 2924 902 2771 
C 378 2468 166 2069 166 1401 
C 166 998 262 652 435 409 
C 691 70 1120 -128 1600 -128 
C 1837 -128 2074 -77 2336 38 
C 2509 108 2643 192 2669 230 
L 2797 447 
z
M 2298 1708 
C 1965 1696 1811 1689 1581 1689 
C 1286 1689 1120 1696 774 1728 
C 774 2030 800 2172 883 2339 
C 1018 2623 1293 2796 1600 2796 
C 1811 2796 1978 2713 2093 2539 
C 2234 2326 2278 2140 2298 1708 
z
" id="URWPalladioL-Roma-65" transform="scale(0.015625)"/>
       <path d="M 563 -1178 
C 1018 -1166 1030 -1166 1184 -1166 
C 1338 -1166 1370 -1166 1805 -1178 
L 1843 -1140 
L 1843 -974 
L 1818 -942 
L 1574 -942 
C 1402 -942 1261 -903 1184 -839 
C 1126 -782 1107 -692 1107 -481 
C 1107 -474 1107 -340 1101 -148 
L 1101 89 
L 1101 3379 
L 1101 3615 
C 1107 3795 1107 3935 1107 3942 
C 1107 4153 1126 4249 1184 4307 
C 1261 4371 1402 4409 1574 4409 
L 1818 4409 
L 1843 4441 
L 1843 4608 
L 1805 4646 
C 1357 4633 1338 4633 1184 4633 
C 1037 4633 1005 4633 563 4646 
L 506 4563 
C 544 4403 557 4191 557 3699 
C 557 3603 557 3526 563 3462 
L 563 3379 
L 563 89 
L 563 6 
C 557 -97 557 -103 557 -212 
L 557 -282 
C 557 -718 544 -897 506 -1095 
L 563 -1178 
z
" id="URWPalladioL-Roma-5b" transform="scale(0.015625)"/>
       <path d="M 262 917 
C 262 474 243 282 192 25 
C 525 -84 774 -128 1069 -128 
C 1907 -128 2502 320 2502 949 
C 2502 1148 2445 1295 2323 1423 
C 2157 1584 1946 1661 1382 1770 
C 858 1872 685 2001 685 2296 
C 685 2617 909 2796 1299 2796 
C 1728 2796 2054 2572 2054 2270 
L 2054 2123 
L 2234 2123 
C 2240 2495 2246 2649 2266 2847 
C 1926 2963 1696 3008 1434 3008 
C 691 3008 237 2655 237 2078 
C 237 1770 378 1552 672 1417 
C 845 1340 1184 1237 1619 1141 
C 1907 1077 2029 942 2029 698 
C 2029 352 1709 108 1254 108 
C 787 108 454 333 454 654 
L 454 917 
L 262 917 
z
" id="URWPalladioL-Roma-73" transform="scale(0.015625)"/>
       <path d="M 2554 1995 
C 2554 2290 2586 2553 2643 2783 
C 2387 2937 2163 3008 1901 3008 
C 1594 3008 1235 2886 851 2643 
C 403 2360 166 1911 166 1347 
C 166 480 774 -128 1632 -128 
C 1965 -128 2445 -7 2509 89 
L 2643 294 
L 2579 390 
C 2342 262 2138 204 1907 204 
C 1197 204 730 756 730 1603 
C 730 2290 1050 2675 1626 2675 
C 1907 2675 2214 2547 2330 2386 
L 2374 1995 
L 2554 1995 
z
" id="URWPalladioL-Roma-63" transform="scale(0.015625)"/>
       <path d="M 1786 3008 
C 851 3008 205 2347 205 1391 
C 205 487 774 -128 1600 -128 
C 2586 -128 3290 557 3290 1520 
C 3290 2386 2662 3008 1786 3008 
z
M 1670 2796 
C 2259 2796 2694 2155 2694 1282 
C 2694 545 2368 83 1850 83 
C 1222 83 800 699 800 1609 
C 800 2379 1107 2796 1670 2796 
z
" id="URWPalladioL-Roma-6f" transform="scale(0.015625)"/>
       <path d="M 2624 0 
C 3014 0 3021 0 3130 0 
C 3219 19 3219 19 3661 0 
L 3661 192 
L 3398 211 
C 3181 223 3162 262 3162 670 
L 3162 1902 
C 3162 2649 2810 3014 2093 3014 
C 1856 3014 1722 2969 1587 2854 
L 1101 2432 
L 1101 2988 
L 1043 3008 
C 717 2873 384 2784 45 2746 
L 45 2568 
L 282 2568 
C 538 2568 563 2523 563 2103 
L 563 669 
C 563 268 544 223 326 211 
L 38 192 
L 38 0 
C 474 -7 646 0 832 0 
C 1018 19 1190 12 1626 0 
L 1626 192 
L 1338 211 
C 1120 223 1101 268 1101 670 
L 1101 2023 
C 1101 2311 1523 2624 1914 2624 
C 2342 2624 2624 2304 2624 1813 
L 2624 0 
z
" id="URWPalladioL-Roma-6e" transform="scale(0.015625)"/>
       <path d="M 2637 2803 
C 2278 2956 2099 3008 1875 3008 
C 1702 3008 1549 2969 1389 2886 
L 826 2592 
C 461 2400 224 1934 224 1392 
C 224 881 397 460 710 204 
C 928 19 1229 -64 1645 -64 
C 1773 -64 1920 -39 1952 -13 
L 2662 581 
L 2630 0 
C 2944 -7 3046 0 3123 0 
C 3174 0 3264 0 3398 -7 
C 3443 6 3571 6 3706 0 
L 3706 192 
L 3411 211 
C 3194 224 3174 268 3174 672 
L 3174 4614 
L 3117 4665 
C 2835 4557 2624 4505 2118 4429 
L 2118 4249 
L 2477 4249 
C 2592 4249 2637 4179 2637 3987 
L 2637 2803 
z
M 2637 1424 
C 2637 1009 2624 945 2541 798 
C 2362 498 2048 300 1747 300 
C 1184 300 781 843 781 1602 
C 781 2298 1126 2707 1702 2707 
C 1946 2707 2202 2624 2426 2470 
C 2560 2381 2637 2298 2637 2247 
L 2637 1424 
z
" id="URWPalladioL-Roma-64" transform="scale(0.015625)"/>
       <path d="M 1568 4646 
C 1114 4633 1094 4633 947 4633 
C 794 4633 762 4633 326 4646 
L 288 4608 
L 288 4441 
L 314 4409 
L 557 4409 
C 730 4409 864 4371 941 4307 
C 1005 4249 1024 4159 1024 3942 
C 1024 3923 1024 3795 1030 3615 
L 1030 3379 
L 1030 89 
L 1030 -148 
C 1024 -334 1024 -449 1024 -468 
C 1024 -686 1005 -782 941 -839 
C 864 -903 730 -942 557 -942 
L 314 -942 
L 288 -974 
L 288 -1140 
L 326 -1178 
C 774 -1166 787 -1166 947 -1166 
C 1094 -1166 1126 -1166 1568 -1178 
L 1626 -1095 
C 1587 -942 1581 -743 1574 -250 
C 1574 -161 1574 -78 1568 6 
L 1568 89 
L 1568 3379 
L 1568 3462 
C 1574 3532 1574 3615 1574 3705 
C 1574 4198 1587 4409 1626 4563 
L 1568 4646 
z
" id="URWPalladioL-Roma-5d" transform="scale(0.015625)"/>
      </defs>
      <use transform="scale(0.996264)" xlink:href="#URWPalladioL-Roma-54"/>
      <use transform="translate(55.591109 0)scale(0.996264)" xlink:href="#URWPalladioL-Roma-69"/>
      <use transform="translate(84.581471 0)scale(0.996264)" xlink:href="#URWPalladioL-Roma-6d"/>
      <use transform="translate(172.551145 0)scale(0.996264)" xlink:href="#URWPalladioL-Roma-65"/>
      <use transform="translate(245.17804 0)scale(0.996264)" xlink:href="#URWPalladioL-Roma-5b"/>
      <use transform="translate(278.35327 0)scale(0.996264)" xlink:href="#URWPalladioL-Roma-73"/>
      <use transform="translate(320.594736 0)scale(0.996264)" xlink:href="#URWPalladioL-Roma-65"/>
      <use transform="translate(368.315031 0)scale(0.996264)" xlink:href="#URWPalladioL-Roma-63"/>
      <use transform="translate(412.5486 0)scale(0.996264)" xlink:href="#URWPalladioL-Roma-6f"/>
      <use transform="translate(466.94418 0)scale(0.996264)" xlink:href="#URWPalladioL-Roma-6e"/>
      <use transform="translate(524.926241 0)scale(0.996264)" xlink:href="#URWPalladioL-Roma-64"/>
      <use transform="translate(585.797872 0)scale(0.996264)" xlink:href="#URWPalladioL-Roma-73"/>
      <use transform="translate(628.039338 0)scale(0.996264)" xlink:href="#URWPalladioL-Roma-5d"/>
     </g>
    </g>
   </g>
   <g id="matplotlib.axis_2">
    <g id="ytick_1">
     <g id="line2d_12">
      <path clip-path="url(#p4545f718c2)" d="M 51.606463 233.10431 
L 577.19952 233.10431 
" style="fill:none;stroke:#000000;stroke-linejoin:miter;stroke-opacity:0.2;stroke-width:0.5;"/>
     </g>
     <g id="line2d_13">
      <defs>
       <path d="M 0 0 
L -3.5 0 
" id="mb9cdd839bd" style="stroke:#000000;stroke-opacity:0.2;stroke-width:0.8;"/>
      </defs>
      <g>
       <use style="fill-opacity:0.2;stroke:#000000;stroke-opacity:0.2;stroke-width:0.8;" x="51.606463" xlink:href="#mb9cdd839bd" y="233.10431"/>
      </g>
     </g>
     <g id="text_7">
      <!-- $\mathdefault{−1.0}$ -->
      <g transform="translate(7.2 238.094075)scale(0.14 -0.14)">
       <defs>
        <path d="M 4218 1472 
C 4326 1472 4442 1472 4442 1600 
C 4442 1728 4326 1728 4218 1728 
L 755 1728 
C 646 1728 531 1728 531 1600 
C 531 1472 646 1472 755 1472 
L 4218 1472 
z
" id="CMSY10-0" transform="scale(0.015625)"/>
        <path d="M 429 3571 
L 493 3571 
L 1318 3942 
C 1325 3949 1331 3949 1338 3949 
C 1376 3949 1389 3891 1389 3737 
L 1389 633 
C 1389 300 1318 230 973 211 
L 614 192 
L 614 0 
C 1600 0 1600 0 1670 0 
C 1754 0 1894 0 2112 -7 
C 2189 6 2413 6 2675 0 
L 2675 192 
L 2342 211 
C 1990 229 1926 299 1926 628 
L 1926 4383 
L 1837 4416 
C 1421 4199 966 4009 384 3807 
L 429 3571 
z
" id="URWPalladioL-Roma-31" transform="scale(0.015625)"/>
       </defs>
       <use transform="scale(1.038107)" xlink:href="#CMSY10-0"/>
       <use transform="translate(81.941696 0)scale(0.996264)" xlink:href="#URWPalladioL-Roma-31"/>
       <use transform="translate(131.754897 0)scale(0.996264)" xlink:href="#URWPalladioL-Roma-2e"/>
       <use transform="translate(156.661497 0)scale(0.996264)" xlink:href="#URWPalladioL-Roma-30"/>
      </g>
     </g>
    </g>
    <g id="ytick_2">
     <g id="line2d_14">
      <path clip-path="url(#p4545f718c2)" d="M 51.606463 179.31757 
L 577.19952 179.31757 
" style="fill:none;stroke:#000000;stroke-linejoin:miter;stroke-opacity:0.2;stroke-width:0.5;"/>
     </g>
     <g id="line2d_15">
      <g>
       <use style="fill-opacity:0.2;stroke:#000000;stroke-opacity:0.2;stroke-width:0.8;" x="51.606463" xlink:href="#mb9cdd839bd" y="179.31757"/>
      </g>
     </g>
     <g id="text_8">
      <!-- $\mathdefault{−0.5}$ -->
      <g transform="translate(7.2 184.307335)scale(0.14 -0.14)">
       <defs>
        <path d="M 813 3891 
C 1638 3865 1997 3859 2765 3859 
L 2797 3891 
C 2784 4006 2784 4057 2784 4140 
C 2784 4230 2784 4281 2797 4396 
L 2765 4428 
C 2285 4403 1997 4396 1651 4396 
C 1299 4396 1018 4403 538 4428 
L 506 4396 
C 512 4006 518 3724 518 3520 
C 518 2976 499 2360 480 2076 
L 608 2038 
C 909 2341 1082 2432 1395 2432 
C 2010 2432 2394 1992 2394 1295 
C 2394 579 1984 160 1286 160 
C 941 160 621 276 531 443 
L 237 973 
L 83 882 
C 230 514 307 308 397 25 
C 576 -71 832 -128 1107 -128 
C 1536 -128 1990 57 2342 366 
C 2733 715 2938 1153 2938 1631 
C 2938 2360 2419 2873 1690 2873 
C 1382 2873 1152 2790 755 2553 
L 813 3891 
z
" id="URWPalladioL-Roma-35" transform="scale(0.015625)"/>
       </defs>
       <use transform="scale(1.038107)" xlink:href="#CMSY10-0"/>
       <use transform="translate(81.941696 0)scale(0.996264)" xlink:href="#URWPalladioL-Roma-30"/>
       <use transform="translate(131.754897 0)scale(0.996264)" xlink:href="#URWPalladioL-Roma-2e"/>
       <use transform="translate(156.661497 0)scale(0.996264)" xlink:href="#URWPalladioL-Roma-35"/>
      </g>
     </g>
    </g>
    <g id="ytick_3">
     <g id="line2d_16">
      <path clip-path="url(#p4545f718c2)" d="M 51.606463 125.530829 
L 577.19952 125.530829 
" style="fill:none;stroke:#000000;stroke-linejoin:miter;stroke-opacity:0.2;stroke-width:0.5;"/>
     </g>
     <g id="line2d_17">
      <g>
       <use style="fill-opacity:0.2;stroke:#000000;stroke-opacity:0.2;stroke-width:0.8;" x="51.606463" xlink:href="#mb9cdd839bd" y="125.530829"/>
      </g>
     </g>
     <g id="text_9">
      <!-- $\mathdefault{0.0}$ -->
      <g transform="translate(18.671843 130.520594)scale(0.14 -0.14)">
       <use transform="scale(0.996264)" xlink:href="#URWPalladioL-Roma-30"/>
       <use transform="translate(49.8132 0)scale(0.996264)" xlink:href="#URWPalladioL-Roma-2e"/>
       <use transform="translate(74.719801 0)scale(0.996264)" xlink:href="#URWPalladioL-Roma-30"/>
      </g>
     </g>
    </g>
    <g id="ytick_4">
     <g id="line2d_18">
      <path clip-path="url(#p4545f718c2)" d="M 51.606463 71.744089 
L 577.19952 71.744089 
" style="fill:none;stroke:#000000;stroke-linejoin:miter;stroke-opacity:0.2;stroke-width:0.5;"/>
     </g>
     <g id="line2d_19">
      <g>
       <use style="fill-opacity:0.2;stroke:#000000;stroke-opacity:0.2;stroke-width:0.8;" x="51.606463" xlink:href="#mb9cdd839bd" y="71.744089"/>
      </g>
     </g>
     <g id="text_10">
      <!-- $\mathdefault{0.5}$ -->
      <g transform="translate(18.671843 76.733853)scale(0.14 -0.14)">
       <use transform="scale(0.996264)" xlink:href="#URWPalladioL-Roma-30"/>
       <use transform="translate(49.8132 0)scale(0.996264)" xlink:href="#URWPalladioL-Roma-2e"/>
       <use transform="translate(74.719801 0)scale(0.996264)" xlink:href="#URWPalladioL-Roma-35"/>
      </g>
     </g>
    </g>
    <g id="ytick_5">
     <g id="line2d_20">
      <path clip-path="url(#p4545f718c2)" d="M 51.606463 17.957348 
L 577.19952 17.957348 
" style="fill:none;stroke:#000000;stroke-linejoin:miter;stroke-opacity:0.2;stroke-width:0.5;"/>
     </g>
     <g id="line2d_21">
      <g>
       <use style="fill-opacity:0.2;stroke:#000000;stroke-opacity:0.2;stroke-width:0.8;" x="51.606463" xlink:href="#mb9cdd839bd" y="17.957348"/>
      </g>
     </g>
     <g id="text_11">
      <!-- $\mathdefault{1.0}$ -->
      <g transform="translate(18.671843 22.947113)scale(0.14 -0.14)">
       <use transform="scale(0.996264)" xlink:href="#URWPalladioL-Roma-31"/>
       <use transform="translate(49.8132 0)scale(0.996264)" xlink:href="#URWPalladioL-Roma-2e"/>
       <use transform="translate(74.719801 0)scale(0.996264)" xlink:href="#URWPalladioL-Roma-30"/>
      </g>
     </g>
    </g>
   </g>
   <g id="line2d_22">
    <path clip-path="url(#p4545f718c2)" d="M 51.606463 17.957348 
L 62.332852 17.957348 
L 62.332852 25.511536 
L 73.059241 25.511536 
L 73.059241 47.113136 
L 83.78563 47.113136 
L 83.78563 79.728269 
L 94.512019 79.728269 
L 94.512019 118.776235 
L 105.238407 118.776235 
L 105.238407 158.772863 
L 115.964796 158.772863 
L 115.964796 194.100747 
L 126.691185 194.100747 
L 126.691185 219.798189 
L 137.417574 219.798189 
L 137.417574 232.256061 
L 148.143963 232.256061 
L 148.143963 229.724692 
L 158.870352 229.724692 
L 158.870352 212.559604 
L 169.596741 212.559604 
L 169.596741 183.171583 
L 180.32313 183.171583 
L 180.32313 145.68809 
L 191.049519 145.68809 
L 191.049519 105.373569 
L 201.775908 105.373569 
L 201.775908 67.890076 
L 212.502297 67.890076 
L 212.502297 38.502055 
L 223.228686 38.502055 
L 223.228686 21.336967 
L 233.955074 21.336967 
L 233.955074 18.805597 
L 244.681463 18.805597 
L 244.681463 31.263469 
L 255.407852 31.263469 
L 255.407852 56.960912 
L 266.134241 56.960912 
L 266.134241 92.288795 
L 276.86063 92.288795 
L 276.86063 132.285424 
L 287.587019 132.285424 
L 287.587019 171.33339 
L 298.313408 171.33339 
L 298.313408 203.948522 
L 309.039797 203.948522 
L 309.039797 225.550123 
L 319.766186 225.550123 
L 319.766186 233.10431 
L 330.492575 233.10431 
L 330.492575 225.550123 
L 341.218964 225.550123 
L 341.218964 203.948522 
L 351.945353 203.948522 
L 351.945353 171.33339 
L 362.671742 171.33339 
L 362.671742 132.285424 
L 373.39813 132.285424 
L 373.39813 92.288795 
L 384.124519 92.288795 
L 384.124519 56.960912 
L 394.850908 56.960912 
L 394.850908 31.263469 
L 405.577297 31.263469 
L 405.577297 18.805597 
L 416.303686 18.805597 
L 416.303686 21.336967 
L 427.030075 21.336967 
L 427.030075 38.502055 
L 437.756464 38.502055 
L 437.756464 67.890076 
L 448.482853 67.890076 
L 448.482853 105.373569 
L 459.209242 105.373569 
L 459.209242 145.68809 
L 469.935631 145.68809 
L 469.935631 183.171583 
L 480.66202 183.171583 
L 480.66202 212.559604 
L 491.388409 212.559604 
L 491.388409 229.724692 
L 502.114798 229.724692 
L 502.114798 232.256061 
L 512.841186 232.256061 
L 512.841186 219.798189 
L 523.567575 219.798189 
L 523.567575 194.100747 
L 534.293964 194.100747 
L 534.293964 158.772863 
L 545.020353 158.772863 
L 545.020353 118.776235 
L 555.746742 118.776235 
L 555.746742 79.728269 
L 566.473131 79.728269 
L 566.473131 47.113136 
L 577.19952 47.113136 
L 577.19952 25.511536 
" style="fill:none;stroke:#0271ae;stroke-linejoin:miter;stroke-width:3;"/>
    <defs>
     <path d="M -2.5 2.5 
L 2.5 2.5 
L 2.5 -2.5 
L -2.5 -2.5 
z
" id="mc50c06a12b"/>
    </defs>
    <g clip-path="url(#p4545f718c2)">
     <use style="fill:#0271ae;" x="51.606463" xlink:href="#mc50c06a12b" y="17.957348"/>
     <use style="fill:#0271ae;" x="62.332852" xlink:href="#mc50c06a12b" y="25.511536"/>
     <use style="fill:#0271ae;" x="73.059241" xlink:href="#mc50c06a12b" y="47.113136"/>
     <use style="fill:#0271ae;" x="83.78563" xlink:href="#mc50c06a12b" y="79.728269"/>
     <use style="fill:#0271ae;" x="94.512019" xlink:href="#mc50c06a12b" y="118.776235"/>
     <use style="fill:#0271ae;" x="105.238407" xlink:href="#mc50c06a12b" y="158.772863"/>
     <use style="fill:#0271ae;" x="115.964796" xlink:href="#mc50c06a12b" y="194.100747"/>
     <use style="fill:#0271ae;" x="126.691185" xlink:href="#mc50c06a12b" y="219.798189"/>
     <use style="fill:#0271ae;" x="137.417574" xlink:href="#mc50c06a12b" y="232.256061"/>
     <use style="fill:#0271ae;" x="148.143963" xlink:href="#mc50c06a12b" y="229.724692"/>
     <use style="fill:#0271ae;" x="158.870352" xlink:href="#mc50c06a12b" y="212.559604"/>
     <use style="fill:#0271ae;" x="169.596741" xlink:href="#mc50c06a12b" y="183.171583"/>
     <use style="fill:#0271ae;" x="180.32313" xlink:href="#mc50c06a12b" y="145.68809"/>
     <use style="fill:#0271ae;" x="191.049519" xlink:href="#mc50c06a12b" y="105.373569"/>
     <use style="fill:#0271ae;" x="201.775908" xlink:href="#mc50c06a12b" y="67.890076"/>
     <use style="fill:#0271ae;" x="212.502297" xlink:href="#mc50c06a12b" y="38.502055"/>
     <use style="fill:#0271ae;" x="223.228686" xlink:href="#mc50c06a12b" y="21.336967"/>
     <use style="fill:#0271ae;" x="233.955074" xlink:href="#mc50c06a12b" y="18.805597"/>
     <use style="fill:#0271ae;" x="244.681463" xlink:href="#mc50c06a12b" y="31.263469"/>
     <use style="fill:#0271ae;" x="255.407852" xlink:href="#mc50c06a12b" y="56.960912"/>
     <use style="fill:#0271ae;" x="266.134241" xlink:href="#mc50c06a12b" y="92.288795"/>
     <use style="fill:#0271ae;" x="276.86063" xlink:href="#mc50c06a12b" y="132.285424"/>
     <use style="fill:#0271ae;" x="287.587019" xlink:href="#mc50c06a12b" y="171.33339"/>
     <use style="fill:#0271ae;" x="298.313408" xlink:href="#mc50c06a12b" y="203.948522"/>
     <use style="fill:#0271ae;" x="309.039797" xlink:href="#mc50c06a12b" y="225.550123"/>
     <use style="fill:#0271ae;" x="319.766186" xlink:href="#mc50c06a12b" y="233.10431"/>
     <use style="fill:#0271ae;" x="330.492575" xlink:href="#mc50c06a12b" y="225.550123"/>
     <use style="fill:#0271ae;" x="341.218964" xlink:href="#mc50c06a12b" y="203.948522"/>
     <use style="fill:#0271ae;" x="351.945353" xlink:href="#mc50c06a12b" y="171.33339"/>
     <use style="fill:#0271ae;" x="362.671742" xlink:href="#mc50c06a12b" y="132.285424"/>
     <use style="fill:#0271ae;" x="373.39813" xlink:href="#mc50c06a12b" y="92.288795"/>
     <use style="fill:#0271ae;" x="384.124519" xlink:href="#mc50c06a12b" y="56.960912"/>
     <use style="fill:#0271ae;" x="394.850908" xlink:href="#mc50c06a12b" y="31.263469"/>
     <use style="fill:#0271ae;" x="405.577297" xlink:href="#mc50c06a12b" y="18.805597"/>
     <use style="fill:#0271ae;" x="416.303686" xlink:href="#mc50c06a12b" y="21.336967"/>
     <use style="fill:#0271ae;" x="427.030075" xlink:href="#mc50c06a12b" y="38.502055"/>
     <use style="fill:#0271ae;" x="437.756464" xlink:href="#mc50c06a12b" y="67.890076"/>
     <use style="fill:#0271ae;" x="448.482853" xlink:href="#mc50c06a12b" y="105.373569"/>
     <use style="fill:#0271ae;" x="459.209242" xlink:href="#mc50c06a12b" y="145.68809"/>
     <use style="fill:#0271ae;" x="469.935631" xlink:href="#mc50c06a12b" y="183.171583"/>
     <use style="fill:#0271ae;" x="480.66202" xlink:href="#mc50c06a12b" y="212.559604"/>
     <use style="fill:#0271ae;" x="491.388409" xlink:href="#mc50c06a12b" y="229.724692"/>
     <use style="fill:#0271ae;" x="502.114798" xlink:href="#mc50c06a12b" y="232.256061"/>
     <use style="fill:#0271ae;" x="512.841186" xlink:href="#mc50c06a12b" y="219.798189"/>
     <use style="fill:#0271ae;" x="523.567575" xlink:href="#mc50c06a12b" y="194.100747"/>
     <use style="fill:#0271ae;" x="534.293964" xlink:href="#mc50c06a12b" y="158.772863"/>
     <use style="fill:#0271ae;" x="545.020353" xlink:href="#mc50c06a12b" y="118.776235"/>
     <use style="fill:#0271ae;" x="555.746742" xlink:href="#mc50c06a12b" y="79.728269"/>
     <use style="fill:#0271ae;" x="566.473131" xlink:href="#mc50c06a12b" y="47.113136"/>
     <use style="fill:#0271ae;" x="577.19952" xlink:href="#mc50c06a12b" y="25.511536"/>
    </g>
   </g>
   <g id="line2d_23">
    <path clip-path="url(#p4545f718c2)" d="M 51.606463 125.530829 
L 62.332852 125.530829 
L 62.332852 125.530829 
L 73.059241 125.530829 
L 73.059241 125.530829 
L 83.78563 125.530829 
L 83.78563 125.530829 
L 94.512019 125.530829 
L 94.512019 125.530829 
L 105.238407 125.530829 
L 105.238407 125.530829 
L 115.964796 125.530829 
L 115.964796 125.530829 
L 126.691185 125.530829 
L 126.691185 125.530829 
L 137.417574 125.530829 
L 137.417574 125.530829 
L 148.143963 125.530829 
L 148.143963 125.530829 
L 158.870352 125.530829 
L 158.870352 125.530829 
L 169.596741 125.530829 
L 169.596741 125.530829 
L 180.32313 125.530829 
L 180.32313 125.530829 
L 191.049519 125.530829 
L 191.049519 125.530829 
L 201.775908 125.530829 
L 201.775908 125.530829 
L 212.502297 125.530829 
L 212.502297 125.530829 
L 223.228686 125.530829 
L 223.228686 125.530829 
L 233.955074 125.530829 
L 233.955074 125.530829 
L 244.681463 125.530829 
L 244.681463 125.530829 
L 255.407852 125.530829 
L 255.407852 125.530829 
L 266.134241 125.530829 
L 266.134241 125.530829 
L 276.86063 125.530829 
L 276.86063 125.530829 
L 287.587019 125.530829 
L 287.587019 125.530829 
L 298.313408 125.530829 
L 298.313408 125.530829 
L 309.039797 125.530829 
L 309.039797 125.530829 
L 319.766186 125.530829 
L 319.766186 17.957348 
L 330.492575 17.957348 
L 330.492575 25.511536 
L 341.218964 25.511536 
L 341.218964 47.113136 
L 351.945353 47.113136 
L 351.945353 79.728269 
L 362.671742 79.728269 
L 362.671742 118.776235 
L 373.39813 118.776235 
L 373.39813 158.772863 
L 384.124519 158.772863 
L 384.124519 194.100747 
L 394.850908 194.100747 
L 394.850908 219.798189 
L 405.577297 219.798189 
L 405.577297 232.256061 
L 416.303686 232.256061 
L 416.303686 229.724692 
L 427.030075 229.724692 
L 427.030075 212.559604 
L 437.756464 212.559604 
L 437.756464 183.171583 
L 448.482853 183.171583 
L 448.482853 145.68809 
L 459.209242 145.68809 
L 459.209242 105.373569 
L 469.935631 105.373569 
L 469.935631 67.890076 
L 480.66202 67.890076 
L 480.66202 38.502055 
L 491.388409 38.502055 
L 491.388409 21.336967 
L 502.114798 21.336967 
L 502.114798 18.805597 
L 512.841186 18.805597 
L 512.841186 31.263469 
L 523.567575 31.263469 
L 523.567575 56.960912 
L 534.293964 56.960912 
L 534.293964 92.288795 
L 545.020353 92.288795 
L 545.020353 132.285424 
L 555.746742 132.285424 
L 555.746742 171.33339 
L 566.473131 171.33339 
L 566.473131 203.948522 
L 577.19952 203.948522 
L 577.19952 225.550123 
" style="fill:none;stroke:#6e3b87;stroke-linejoin:miter;stroke-width:3;"/>
    <defs>
     <path d="M -2.5 2.5 
L 2.5 2.5 
L 2.5 -2.5 
L -2.5 -2.5 
z
" id="m6b4ad84802"/>
    </defs>
    <g clip-path="url(#p4545f718c2)">
     <use style="fill:#6e3b87;" x="51.606463" xlink:href="#m6b4ad84802" y="125.530829"/>
     <use style="fill:#6e3b87;" x="62.332852" xlink:href="#m6b4ad84802" y="125.530829"/>
     <use style="fill:#6e3b87;" x="73.059241" xlink:href="#m6b4ad84802" y="125.530829"/>
     <use style="fill:#6e3b87;" x="83.78563" xlink:href="#m6b4ad84802" y="125.530829"/>
     <use style="fill:#6e3b87;" x="94.512019" xlink:href="#m6b4ad84802" y="125.530829"/>
     <use style="fill:#6e3b87;" x="105.238407" xlink:href="#m6b4ad84802" y="125.530829"/>
     <use style="fill:#6e3b87;" x="115.964796" xlink:href="#m6b4ad84802" y="125.530829"/>
     <use style="fill:#6e3b87;" x="126.691185" xlink:href="#m6b4ad84802" y="125.530829"/>
     <use style="fill:#6e3b87;" x="137.417574" xlink:href="#m6b4ad84802" y="125.530829"/>
     <use style="fill:#6e3b87;" x="148.143963" xlink:href="#m6b4ad84802" y="125.530829"/>
     <use style="fill:#6e3b87;" x="158.870352" xlink:href="#m6b4ad84802" y="125.530829"/>
     <use style="fill:#6e3b87;" x="169.596741" xlink:href="#m6b4ad84802" y="125.530829"/>
     <use style="fill:#6e3b87;" x="180.32313" xlink:href="#m6b4ad84802" y="125.530829"/>
     <use style="fill:#6e3b87;" x="191.049519" xlink:href="#m6b4ad84802" y="125.530829"/>
     <use style="fill:#6e3b87;" x="201.775908" xlink:href="#m6b4ad84802" y="125.530829"/>
     <use style="fill:#6e3b87;" x="212.502297" xlink:href="#m6b4ad84802" y="125.530829"/>
     <use style="fill:#6e3b87;" x="223.228686" xlink:href="#m6b4ad84802" y="125.530829"/>
     <use style="fill:#6e3b87;" x="233.955074" xlink:href="#m6b4ad84802" y="125.530829"/>
     <use style="fill:#6e3b87;" x="244.681463" xlink:href="#m6b4ad84802" y="125.530829"/>
     <use style="fill:#6e3b87;" x="255.407852" xlink:href="#m6b4ad84802" y="125.530829"/>
     <use style="fill:#6e3b87;" x="266.134241" xlink:href="#m6b4ad84802" y="125.530829"/>
     <use style="fill:#6e3b87;" x="276.86063" xlink:href="#m6b4ad84802" y="125.530829"/>
     <use style="fill:#6e3b87;" x="287.587019" xlink:href="#m6b4ad84802" y="125.530829"/>
     <use style="fill:#6e3b87;" x="298.313408" xlink:href="#m6b4ad84802" y="125.530829"/>
     <use style="fill:#6e3b87;" x="309.039797" xlink:href="#m6b4ad84802" y="125.530829"/>
     <use style="fill:#6e3b87;" x="319.766186" xlink:href="#m6b4ad84802" y="17.957348"/>
     <use style="fill:#6e3b87;" x="330.492575" xlink:href="#m6b4ad84802" y="25.511536"/>
     <use style="fill:#6e3b87;" x="341.218964" xlink:href="#m6b4ad84802" y="47.113136"/>
     <use style="fill:#6e3b87;" x="351.945353" xlink:href="#m6b4ad84802" y="79.728269"/>
     <use style="fill:#6e3b87;" x="362.671742" xlink:href="#m6b4ad84802" y="118.776235"/>
     <use style="fill:#6e3b87;" x="373.39813" xlink:href="#m6b4ad84802" y="158.772863"/>
     <use style="fill:#6e3b87;" x="384.124519" xlink:href="#m6b4ad84802" y="194.100747"/>
     <use style="fill:#6e3b87;" x="394.850908" xlink:href="#m6b4ad84802" y="219.798189"/>
     <use style="fill:#6e3b87;" x="405.577297" xlink:href="#m6b4ad84802" y="232.256061"/>
     <use style="fill:#6e3b87;" x="416.303686" xlink:href="#m6b4ad84802" y="229.724692"/>
     <use style="fill:#6e3b87;" x="427.030075" xlink:href="#m6b4ad84802" y="212.559604"/>
     <use style="fill:#6e3b87;" x="437.756464" xlink:href="#m6b4ad84802" y="183.171583"/>
     <use style="fill:#6e3b87;" x="448.482853" xlink:href="#m6b4ad84802" y="145.68809"/>
     <use style="fill:#6e3b87;" x="459.209242" xlink:href="#m6b4ad84802" y="105.373569"/>
     <use style="fill:#6e3b87;" x="469.935631" xlink:href="#m6b4ad84802" y="67.890076"/>
     <use style="fill:#6e3b87;" x="480.66202" xlink:href="#m6b4ad84802" y="38.502055"/>
     <use style="fill:#6e3b87;" x="491.388409" xlink:href="#m6b4ad84802" y="21.336967"/>
     <use style="fill:#6e3b87;" x="502.114798" xlink:href="#m6b4ad84802" y="18.805597"/>
     <use style="fill:#6e3b87;" x="512.841186" xlink:href="#m6b4ad84802" y="31.263469"/>
     <use style="fill:#6e3b87;" x="523.567575" xlink:href="#m6b4ad84802" y="56.960912"/>
     <use style="fill:#6e3b87;" x="534.293964" xlink:href="#m6b4ad84802" y="92.288795"/>
     <use style="fill:#6e3b87;" x="545.020353" xlink:href="#m6b4ad84802" y="132.285424"/>
     <use style="fill:#6e3b87;" x="555.746742" xlink:href="#m6b4ad84802" y="171.33339"/>
     <use style="fill:#6e3b87;" x="566.473131" xlink:href="#m6b4ad84802" y="203.948522"/>
     <use style="fill:#6e3b87;" x="577.19952" xlink:href="#m6b4ad84802" y="225.550123"/>
    </g>
   </g>
   <g id="legend_1">
    <g id="patch_3">
     <path d="M 482.100218 236.861659 
L 567.39952 236.861659 
Q 570.19952 236.861659 570.19952 234.061659 
L 570.19952 172.723554 
Q 570.19952 169.923554 567.39952 169.923554 
L 482.100218 169.923554 
Q 479.300218 169.923554 479.300218 172.723554 
L 479.300218 234.061659 
Q 479.300218 236.861659 482.100218 236.861659 
z
" style="fill:#ffffff;opacity:0.95;stroke:#cccccc;stroke-linejoin:miter;stroke-width:0.5;"/>
    </g>
    <g id="line2d_24">
     <path d="M 484.900218 180.603083 
L 498.900218 180.603083 
" style="fill:none;stroke:#0271ae;stroke-linejoin:miter;stroke-width:3;"/>
    </g>
    <g id="line2d_25">
     <g>
      <use style="fill:#0271ae;" x="491.900218" xlink:href="#mc50c06a12b" y="180.603083"/>
     </g>
    </g>
    <g id="text_12">
     <!-- $x$ -->
     <g style="fill:#0271ae;" transform="translate(510.100218 185.503083)scale(0.14 -0.14)">
      <defs>
       <path d="M 134 567 
C 134 440 122 358 83 153 
C 70 76 64 57 58 12 
C 154 -39 256 -64 333 -64 
C 544 -64 794 121 992 421 
L 1478 1164 
L 1549 726 
C 1632 185 1779 -64 2010 -64 
C 2150 -64 2355 44 2560 230 
L 2874 510 
L 2816 631 
C 2586 440 2426 345 2323 345 
C 2227 345 2144 409 2080 536 
C 2022 656 1952 891 1920 1075 
L 1805 1716 
L 2029 2027 
C 2330 2439 2502 2585 2701 2585 
C 2803 2585 2880 2534 2912 2439 
L 3002 2465 
L 3098 3007 
C 3021 3052 2963 3072 2906 3072 
C 2650 3072 2394 2841 1997 2255 
L 1760 1906 
L 1722 2211 
C 1645 2841 1472 3072 1094 3072 
C 928 3072 787 3020 730 2937 
L 358 2408 
L 467 2344 
C 659 2560 787 2649 909 2649 
C 1120 2649 1261 2389 1370 1767 
L 1440 1373 
L 1184 980 
C 909 555 691 352 512 352 
C 416 352 346 377 333 409 
L 262 586 
L 134 567 
z
" id="URWPalladioL-Ital-78" transform="scale(0.015625)"/>
      </defs>
      <use transform="scale(0.996264)" xlink:href="#URWPalladioL-Ital-78"/>
     </g>
    </g>
    <g id="line2d_26">
     <path d="M 484.900218 201.515785 
L 498.900218 201.515785 
" style="fill:none;stroke:#6e3b87;stroke-linejoin:miter;stroke-width:3;"/>
    </g>
    <g id="line2d_27">
     <g>
      <use style="fill:#6e3b87;" x="491.900218" xlink:href="#m6b4ad84802" y="201.515785"/>
     </g>
    </g>
    <g id="text_13">
     <!-- $y = x * h$ -->
     <g style="fill:#6e3b87;" transform="translate(510.100218 206.415785)scale(0.14 -0.14)">
      <defs>
       <path d="M -45 -1132 
C -51 -1176 -51 -1214 -51 -1245 
C -51 -1517 186 -1741 474 -1741 
C 1152 -1741 1856 -955 2234 216 
L 3136 3014 
L 3066 3072 
C 2880 3001 2733 2963 2592 2950 
L 2368 2111 
C 2291 1812 2067 1348 1856 1036 
C 1632 712 1318 432 1178 432 
C 1101 432 1043 578 1050 737 
L 1056 820 
L 1152 2053 
C 1165 2250 1178 2492 1178 2670 
C 1178 2956 1133 3072 1024 3072 
C 941 3072 851 3027 544 2816 
L 19 2460 
L 90 2346 
L 410 2537 
L 435 2556 
C 499 2594 544 2613 570 2613 
C 659 2613 710 2492 710 2282 
C 710 2276 710 2238 704 2187 
L 595 642 
L 589 388 
C 589 121 704 -64 864 -64 
C 1101 -64 1638 477 2118 1195 
L 1805 108 
C 1478 -1012 1158 -1472 710 -1472 
C 486 -1472 314 -1302 314 -1081 
C 314 -1049 320 -999 326 -942 
L 262 -917 
L -45 -1132 
z
" id="URWPalladioL-Ital-79" transform="scale(0.015625)"/>
       <path d="M 4397 2111 
C 4493 2111 4614 2111 4614 2239 
C 4614 2368 4493 2368 4403 2368 
L 570 2368 
C 480 2368 358 2368 358 2239 
C 358 2111 480 2111 576 2111 
L 4397 2111 
z
M 4403 832 
C 4493 832 4614 832 4614 960 
C 4614 1088 4493 1088 4397 1088 
L 576 1088 
C 480 1088 358 1088 358 960 
C 358 832 480 832 570 832 
L 4403 832 
z
" id="CMR10-3d" transform="scale(0.015625)"/>
       <path d="M 1760 2762 
C 1766 2853 1766 3008 1600 3008 
C 1498 3008 1414 2924 1434 2840 
L 1434 2755 
L 1523 1740 
L 704 2349 
C 646 2382 634 2395 589 2395 
C 499 2395 416 2303 416 2212 
C 416 2107 480 2081 544 2048 
L 1453 1603 
L 570 1164 
C 467 1112 416 1085 416 987 
C 416 889 499 804 589 804 
C 634 804 646 804 806 928 
L 1523 1459 
L 1427 359 
C 1427 224 1542 192 1594 192 
C 1670 192 1766 236 1766 359 
L 1670 1459 
L 2490 850 
C 2547 817 2560 804 2605 804 
C 2694 804 2778 896 2778 987 
C 2778 1085 2720 1118 2643 1157 
C 2259 1354 2246 1354 1741 1596 
L 2624 2035 
C 2726 2087 2778 2113 2778 2212 
C 2778 2310 2694 2395 2605 2395 
C 2560 2395 2547 2395 2387 2271 
L 1670 1740 
L 1760 2762 
z
" id="CMSY10-3" transform="scale(0.015625)"/>
       <path d="M 1510 4608 
L 1434 4678 
C 1101 4512 870 4454 410 4409 
L 384 4275 
L 691 4275 
C 845 4275 909 4230 909 4121 
C 909 4070 902 4012 896 3968 
L 627 2471 
C 448 1507 198 408 64 6 
L 109 -64 
L 550 38 
C 653 772 762 1162 947 1500 
C 1229 2018 1894 2637 2163 2637 
C 2246 2637 2304 2579 2304 2496 
C 2304 2382 2259 2139 2208 1928 
L 1882 677 
C 1824 447 1798 306 1798 185 
C 1798 32 1869 -64 1990 -64 
C 2157 -64 2387 70 3014 536 
L 2950 651 
L 2784 542 
C 2598 421 2458 351 2394 351 
C 2349 351 2310 408 2310 479 
C 2310 542 2317 594 2355 734 
L 2765 2369 
C 2803 2535 2835 2733 2835 2841 
C 2835 2982 2765 3072 2650 3072 
C 2432 3072 2042 2860 1638 2522 
C 1414 2337 1306 2222 1011 1845 
L 883 1685 
L 1510 4608 
z
" id="URWPalladioL-Ital-68" transform="scale(0.015625)"/>
      </defs>
      <use transform="scale(0.996264)" xlink:href="#URWPalladioL-Ital-79"/>
      <use transform="translate(79.977748 0)scale(1.038107)" xlink:href="#CMR10-3d"/>
      <use transform="translate(192.532352 0)scale(0.996264)" xlink:href="#URWPalladioL-Ital-78"/>
      <use transform="translate(265.203242 0)scale(1.038107)" xlink:href="#CMSY10-3"/>
      <use transform="translate(339.46816 0)scale(0.996264)" xlink:href="#URWPalladioL-Ital-68"/>
     </g>
    </g>
    <g id="line2d_28">
     <path d="M 484.900218 222.428486 
L 498.900218 222.428486 
" style="fill:none;stroke:#dc2830;stroke-dasharray:11.1,4.8;stroke-dashoffset:0;stroke-linejoin:miter;stroke-opacity:0.5;stroke-width:3;"/>
    </g>
    <g id="line2d_29"/>
    <g id="text_14">
     <!-- Delay -->
     <g style="fill:#dc2830;" transform="translate(510.100218 227.328486)scale(0.14 -0.14)">
      <defs>
       <path d="M 365 128 
L 365 -20 
C 1107 0 1107 0 1254 0 
C 1370 0 1472 0 1587 -7 
C 2093 0 2093 0 2182 0 
C 3002 0 3616 211 4064 649 
C 4525 1100 4806 1786 4806 2465 
C 4806 3646 3923 4416 2573 4416 
C 2528 4416 2445 4416 2330 4409 
C 2010 4403 1734 4396 1459 4396 
C 1222 4396 870 4403 141 4416 
L 141 4223 
L 397 4204 
C 691 4185 723 4128 723 3630 
L 723 606 
C 723 421 666 281 563 230 
L 365 128 
z
M 1331 4109 
C 1498 4140 1722 4160 2042 4160 
C 2509 4160 3021 4077 3290 3956 
C 3430 3899 3552 3810 3667 3696 
C 3974 3391 4122 2934 4122 2300 
C 4122 1589 3904 1043 3482 700 
C 3098 389 2714 281 1990 281 
C 1696 281 1498 294 1331 332 
L 1331 4109 
z
" id="URWPalladioL-Roma-44" transform="scale(0.015625)"/>
       <path d="M 147 4249 
L 506 4249 
C 621 4249 666 4179 666 3987 
L 666 672 
C 666 268 646 224 429 211 
L 134 192 
L 134 0 
C 774 0 774 0 934 0 
C 1094 19 1094 19 1734 0 
L 1734 192 
L 1440 211 
C 1222 224 1203 268 1203 672 
L 1203 4614 
L 1146 4665 
C 864 4557 653 4505 147 4429 
L 147 4249 
z
" id="URWPalladioL-Roma-6c" transform="scale(0.015625)"/>
       <path d="M 2074 544 
L 2042 0 
C 2458 0 2458 0 2541 0 
C 2573 19 2733 12 3014 0 
L 3014 192 
L 2765 204 
C 2611 211 2586 262 2586 576 
L 2586 1751 
C 2586 2688 2317 3027 1574 3027 
C 1299 3027 1043 2956 800 2809 
L 461 2604 
L 461 2187 
L 627 2142 
L 710 2341 
C 845 2642 909 2688 1203 2688 
C 1805 2688 2054 2450 2074 1866 
L 1440 1751 
C 570 1590 205 1289 205 730 
C 205 224 506 -64 1011 -64 
C 1126 -64 1235 -45 1280 -13 
L 2074 544 
z
M 2074 806 
C 1888 544 1485 300 1235 300 
C 979 300 755 537 755 812 
C 755 1049 883 1273 1075 1395 
C 1235 1491 1587 1580 2074 1651 
L 2074 806 
z
" id="URWPalladioL-Roma-61" transform="scale(0.015625)"/>
       <path d="M 1901 569 
C 1760 812 1690 960 1574 1273 
L 1165 2349 
C 1126 2457 1101 2553 1101 2617 
C 1101 2707 1171 2758 1318 2765 
L 1562 2777 
L 1562 2957 
C 941 2937 941 2937 819 2937 
C 698 2937 698 2937 77 2957 
L 77 2777 
L 192 2765 
C 352 2745 429 2675 525 2451 
L 1222 774 
C 1402 339 1466 185 1581 -135 
L 1434 -525 
C 1229 -1063 979 -1364 736 -1364 
C 634 -1364 518 -1312 410 -1216 
L 326 -1216 
L 173 -1696 
C 294 -1760 397 -1792 518 -1792 
C 947 -1792 1222 -1562 1466 -1005 
L 2765 1990 
C 3021 2573 3142 2745 3302 2765 
L 3482 2777 
L 3482 2957 
C 2976 2937 2976 2937 2874 2937 
C 2771 2937 2771 2937 2266 2957 
L 2266 2777 
L 2432 2765 
C 2611 2752 2701 2694 2701 2605 
C 2701 2560 2688 2502 2662 2438 
L 1901 569 
z
" id="URWPalladioL-Roma-79" transform="scale(0.015625)"/>
      </defs>
      <use transform="scale(0.996264)" xlink:href="#URWPalladioL-Roma-44"/>
      <use transform="translate(77.110752 0)scale(0.996264)" xlink:href="#URWPalladioL-Roma-65"/>
      <use transform="translate(124.831047 0)scale(0.996264)" xlink:href="#URWPalladioL-Roma-6c"/>
      <use transform="translate(153.821409 0)scale(0.996264)" xlink:href="#URWPalladioL-Roma-61"/>
      <use transform="translate(203.634609 0)scale(0.996264)" xlink:href="#URWPalladioL-Roma-79"/>
     </g>
    </g>
   </g>
  </g>
 </g>
 <defs>
  <clipPath id="p4545f718c2">
   <rect height="236.661659" width="525.593057" x="51.606463" y="7.2"/>
  </clipPath>
 </defs>
</svg>
