<?xml version="1.0" encoding="utf-8" standalone="no"?>
<!DOCTYPE svg PUBLIC "-//W3C//DTD SVG 1.1//EN"
  "http://www.w3.org/Graphics/SVG/1.1/DTD/svg11.dtd">
<svg height="199.939289pt" version="1.1" viewBox="0 0 584.39952 199.939289" width="584.39952pt" xmlns="http://www.w3.org/2000/svg" xmlns:xlink="http://www.w3.org/1999/xlink">
 <metadata>
  <rdf:RDF xmlns:cc="http://creativecommons.org/ns#" xmlns:dc="http://purl.org/dc/elements/1.1/" xmlns:rdf="http://www.w3.org/1999/02/22-rdf-syntax-ns#">
   <cc:Work>
    <dc:type rdf:resource="http://purl.org/dc/dcmitype/StillImage"/>
    <dc:date>2020-07-15T07:50:02.009081</dc:date>
    <dc:format>image/svg+xml</dc:format>
    <dc:creator>
     <cc:Agent>
      <dc:title>Matplotlib v3.3.0rc1.post282+g187e87b5f, https://matplotlib.org/</dc:title>
     </cc:Agent>
    </dc:creator>
   </cc:Work>
  </rdf:RDF>
 </metadata>
 <defs>
  <style type="text/css">*{stroke-linecap:butt;stroke-linejoin:round;}</style>
 </defs>
 <g id="figure_1">
  <g id="patch_1">
   <path d="M 0 199.939289 
L 584.39952 199.939289 
L 584.39952 0 
L 0 0 
z
" style="fill:none;"/>
  </g>
  <g id="axes_1">
   <g id="patch_2">
    <path d="M 52.572856 147.401428 
L 577.19952 147.401428 
L 577.19952 25.859068 
L 52.572856 25.859068 
z
" style="fill:none;"/>
   </g>
   <g id="patch_3">
    <path clip-path="url(#pebc2f4868c)" d="M 315.58383 147.401428 
L 315.58383 25.859068 
L 577.19952 25.859068 
L 577.19952 147.401428 
z
" style="fill:#343837;opacity:0.1;stroke:#343837;stroke-linejoin:miter;stroke-width:0.5;"/>
   </g>
   <g id="line2d_1">
    <path clip-path="url(#pebc2f4868c)" d="M 315.58383 147.401428 
L 315.58383 25.859068 
" style="fill:none;stroke:#007d4d;stroke-linecap:square;"/>
   </g>
   <g id="matplotlib.axis_1">
    <g id="xtick_1">
     <g id="line2d_2">
      <path clip-path="url(#pebc2f4868c)" d="M 53.96814 147.401428 
L 53.96814 25.859068 
" style="fill:none;stroke:#000000;stroke-linecap:square;stroke-opacity:0.2;stroke-width:0.5;"/>
     </g>
     <g id="line2d_3">
      <defs>
       <path d="M 0 0 
L 0 3.5 
" id="m26b7dd475b" style="stroke:#000000;stroke-opacity:0.2;stroke-width:0.8;"/>
      </defs>
      <g>
       <use style="fill-opacity:0.2;stroke:#000000;stroke-opacity:0.2;stroke-width:0.8;" x="53.96814" xlink:href="#m26b7dd475b" y="147.401428"/>
      </g>
     </g>
     <g id="text_1">
      <!-- $\mathdefault{0}$ -->
      <g transform="translate(50.481216 172.880957)scale(0.14 -0.14)">
       <defs>
        <path d="M 26.296875 69 
C 10.796875 69 2.90625 56.6875 2.90625 32.453125 
C 2.90625 20.71875 5 10.625 8.5 5.71875 
C 12 0.796875 17.59375 -2 23.796875 -2 
C 38.90625 -2 46.5 11.015625 46.5 36.65625 
C 46.5 58.578125 40 69 26.296875 69 
z
M 24.5 65.5 
C 34.203125 65.5 38.09375 55.6875 38.09375 31.640625 
C 38.09375 10.328125 34.296875 1.5 25.09375 1.5 
C 15.40625 1.5 11.296875 11.625 11.296875 36.0625 
C 11.296875 57.1875 15 65.5 24.5 65.5 
z
" id="URW_Palladio_L_Roman-48"/>
       </defs>
       <use transform="scale(0.996264)" xlink:href="#URW_Palladio_L_Roman-48"/>
      </g>
     </g>
    </g>
    <g id="xtick_2">
     <g id="line2d_4">
      <path clip-path="url(#pebc2f4868c)" d="M 123.732324 147.401428 
L 123.732324 25.859068 
" style="fill:none;stroke:#000000;stroke-linecap:square;stroke-opacity:0.2;stroke-width:0.5;"/>
     </g>
     <g id="line2d_5">
      <g>
       <use style="fill-opacity:0.2;stroke:#000000;stroke-opacity:0.2;stroke-width:0.8;" x="123.732324" xlink:href="#m26b7dd475b" y="147.401428"/>
      </g>
     </g>
     <g id="text_2">
      <!-- $\mathdefault{20}$ -->
      <g transform="translate(116.758476 172.880957)scale(0.14 -0.14)">
       <defs>
        <path d="M 1.59375 2.5 
L 1.59375 0 
C 20.296875 0 20.296875 0 23.90625 0 
C 27.5 0 27.5 0 46.796875 0 
C 46.59375 1.953125 46.59375 2.90625 46.59375 4.203125 
C 46.59375 5.4375 46.59375 6.359375 46.796875 8.421875 
C 35.296875 8.421875 30.703125 8.421875 12.203125 8.421875 
L 30.40625 27.515625 
C 40.09375 37.71875 43.09375 43.171875 43.09375 50.59375 
C 43.09375 61.96875 35.296875 69 22.59375 69 
C 15.40625 69 10.5 67 5.59375 62.015625 
L 3.90625 48.421875 
L 6.796875 48.421875 
L 8.09375 53.015625 
C 9.703125 58.796875 13.296875 61.296875 20 61.296875 
C 28.59375 61.296875 34.09375 55.890625 34.09375 47.421875 
C 34.09375 39.921875 29.90625 32.546875 18.59375 20.5625 
z
" id="URW_Palladio_L_Roman-50"/>
       </defs>
       <use transform="scale(0.996264)" xlink:href="#URW_Palladio_L_Roman-50"/>
       <use transform="translate(49.8132 0)scale(0.996264)" xlink:href="#URW_Palladio_L_Roman-48"/>
      </g>
     </g>
    </g>
    <g id="xtick_3">
     <g id="line2d_6">
      <path clip-path="url(#pebc2f4868c)" d="M 193.496508 147.401428 
L 193.496508 25.859068 
" style="fill:none;stroke:#000000;stroke-linecap:square;stroke-opacity:0.2;stroke-width:0.5;"/>
     </g>
     <g id="line2d_7">
      <g>
       <use style="fill-opacity:0.2;stroke:#000000;stroke-opacity:0.2;stroke-width:0.8;" x="193.496508" xlink:href="#m26b7dd475b" y="147.401428"/>
      </g>
     </g>
     <g id="text_3">
      <!-- $\mathdefault{40}$ -->
      <g transform="translate(186.52266 172.880957)scale(0.14 -0.14)">
       <defs>
        <path d="M 28 18 
L 28 10.515625 
C 28 4.515625 26.90625 3.109375 22 3.109375 
L 15.796875 3.109375 
L 15.796875 0 
C 29.09375 0 29.09375 0 31.5 0 
C 33.90625 0 33.90625 0 47.203125 0 
L 47.203125 3.109375 
L 42.40625 3.109375 
C 37.5 3.109375 36.40625 4.40625 36.40625 10.453125 
L 36.40625 18 
C 42.296875 18 44.40625 18 47.203125 17.703125 
L 47.203125 24.8125 
C 42.5 24.421875 40.59375 24.421875 39.09375 24.421875 
L 38.796875 24.421875 
L 36.40625 24.421875 
L 36.40625 38.390625 
C 36.40625 56.25 36.59375 64.875 37.09375 69 
L 35.90625 69.5 
L 28.5 66.796875 
L 0.203125 20.296875 
L 1.296875 18 
z
M 28 24.421875 
L 6.5 24.421875 
L 28 59.78125 
z
" id="URW_Palladio_L_Roman-52"/>
       </defs>
       <use transform="scale(0.996264)" xlink:href="#URW_Palladio_L_Roman-52"/>
       <use transform="translate(49.8132 0)scale(0.996264)" xlink:href="#URW_Palladio_L_Roman-48"/>
      </g>
     </g>
    </g>
    <g id="xtick_4">
     <g id="line2d_8">
      <path clip-path="url(#pebc2f4868c)" d="M 263.260692 147.401428 
L 263.260692 25.859068 
" style="fill:none;stroke:#000000;stroke-linecap:square;stroke-opacity:0.2;stroke-width:0.5;"/>
     </g>
     <g id="line2d_9">
      <g>
       <use style="fill-opacity:0.2;stroke:#000000;stroke-opacity:0.2;stroke-width:0.8;" x="263.260692" xlink:href="#m26b7dd475b" y="147.401428"/>
      </g>
     </g>
     <g id="text_4">
      <!-- $\mathdefault{60}$ -->
      <g transform="translate(256.286844 172.880957)scale(0.14 -0.14)">
       <defs>
        <path d="M 41.59375 67.34375 
L 37.90625 69.046875 
C 28.296875 65.84375 24.203125 63.84375 19.09375 59.4375 
C 8.796875 50.71875 3.203125 38.5 3.203125 24.765625 
C 3.203125 8.21875 11.203125 -2 24.09375 -2 
C 37.09375 -2 46.796875 8.3125 46.796875 21.953125 
C 46.796875 33.484375 39.90625 41 29.296875 41 
C 24.296875 41 21.296875 39.6875 15.40625 34.984375 
C 14.296875 34.078125 14.203125 33.984375 13.09375 33.1875 
C 15.203125 51.3125 23.59375 61.140625 41.59375 66.546875 
z
M 25.5 34.984375 
C 33.09375 34.984375 38.203125 28.375 38.203125 18.453125 
C 38.203125 8.015625 33.09375 1.296875 25.40625 1.296875 
C 16.90625 1.296875 12.296875 8.609375 12.296875 22.0625 
C 12.296875 25.5625 12.703125 27.46875 13.796875 29.171875 
C 16 32.578125 20.703125 34.984375 25.5 34.984375 
z
" id="URW_Palladio_L_Roman-54"/>
       </defs>
       <use transform="scale(0.996264)" xlink:href="#URW_Palladio_L_Roman-54"/>
       <use transform="translate(49.8132 0)scale(0.996264)" xlink:href="#URW_Palladio_L_Roman-48"/>
      </g>
     </g>
    </g>
    <g id="xtick_5">
     <g id="line2d_10">
      <path clip-path="url(#pebc2f4868c)" d="M 333.024876 147.401428 
L 333.024876 25.859068 
" style="fill:none;stroke:#000000;stroke-linecap:square;stroke-opacity:0.2;stroke-width:0.5;"/>
     </g>
     <g id="line2d_11">
      <g>
       <use style="fill-opacity:0.2;stroke:#000000;stroke-opacity:0.2;stroke-width:0.8;" x="333.024876" xlink:href="#m26b7dd475b" y="147.401428"/>
      </g>
     </g>
     <g id="text_5">
      <!-- $\mathdefault{80}$ -->
      <g transform="translate(326.051028 172.880957)scale(0.14 -0.14)">
       <defs>
        <path d="M 16.796875 34.546875 
C 12.703125 32.65625 11 31.546875 8.796875 29.4375 
C 5 25.640625 3 21.125 3 15.921875 
C 3 5.609375 11.296875 -2 22.59375 -2 
C 35.59375 -2 46.40625 8.21875 46.40625 20.625 
C 46.40625 28.640625 42.703125 32.953125 31.296875 38.15625 
C 40.40625 44.375 43.59375 48.578125 43.59375 54.578125 
C 43.59375 63.1875 36.5 69 25.90625 69 
C 14 69 5.296875 61.390625 5.296875 50.890625 
C 5.296875 44.078125 8 40.265625 16.796875 34.546875 
z
M 28.40625 29.546875 
C 34.703125 26.734375 38.5 21.828125 38.5 16.4375 
C 38.5 8.015625 32.203125 1.40625 24.09375 1.40625 
C 15.59375 1.40625 10.09375 7.421875 10.09375 16.734375 
C 10.09375 24.03125 13 28.640625 20.40625 33.15625 
z
M 22.296875 42.375 
C 16 45.46875 12.796875 49.484375 12.796875 54.484375 
C 12.796875 61.09375 17.59375 65.59375 24.703125 65.59375 
C 32 65.59375 36.796875 60.796875 36.796875 53.46875 
C 36.796875 47.78125 34.296875 43.875 27.796875 39.65625 
z
" id="URW_Palladio_L_Roman-56"/>
       </defs>
       <use transform="scale(0.996264)" xlink:href="#URW_Palladio_L_Roman-56"/>
       <use transform="translate(49.8132 0)scale(0.996264)" xlink:href="#URW_Palladio_L_Roman-48"/>
      </g>
     </g>
    </g>
    <g id="xtick_6">
     <g id="line2d_12">
      <path clip-path="url(#pebc2f4868c)" d="M 402.78906 147.401428 
L 402.78906 25.859068 
" style="fill:none;stroke:#000000;stroke-linecap:square;stroke-opacity:0.2;stroke-width:0.5;"/>
     </g>
     <g id="line2d_13">
      <g>
       <use style="fill-opacity:0.2;stroke:#000000;stroke-opacity:0.2;stroke-width:0.8;" x="402.78906" xlink:href="#m26b7dd475b" y="147.401428"/>
      </g>
     </g>
     <g id="text_6">
      <!-- $\mathdefault{100}$ -->
      <g transform="translate(392.328288 172.880957)scale(0.14 -0.14)">
       <defs>
        <path d="M 6.703125 56 
L 7.703125 56 
L 20.59375 61.8125 
C 20.703125 61.90625 20.796875 61.90625 20.90625 61.90625 
C 21.5 61.90625 21.703125 61.015625 21.703125 58.609375 
L 21.703125 9.578125 
C 21.703125 4.3125 20.59375 3.203125 15.203125 3.203125 
L 9.59375 3.203125 
L 9.59375 0 
C 25 0 25 0 26.09375 0 
C 27.40625 0 29.59375 0 33 0 
C 34.203125 0 37.703125 0 41.796875 0 
L 41.796875 3.203125 
L 36.59375 3.203125 
C 31.09375 3.203125 30.09375 4.3125 30.09375 9.5625 
L 30.09375 69.421875 
L 28.703125 69.921875 
C 22.203125 66.515625 15.09375 63.515625 6 60.3125 
z
" id="URW_Palladio_L_Roman-49"/>
       </defs>
       <use transform="scale(0.996264)" xlink:href="#URW_Palladio_L_Roman-49"/>
       <use transform="translate(49.8132 0)scale(0.996264)" xlink:href="#URW_Palladio_L_Roman-48"/>
       <use transform="translate(99.626401 0)scale(0.996264)" xlink:href="#URW_Palladio_L_Roman-48"/>
      </g>
     </g>
    </g>
    <g id="xtick_7">
     <g id="line2d_14">
      <path clip-path="url(#pebc2f4868c)" d="M 472.553244 147.401428 
L 472.553244 25.859068 
" style="fill:none;stroke:#000000;stroke-linecap:square;stroke-opacity:0.2;stroke-width:0.5;"/>
     </g>
     <g id="line2d_15">
      <g>
       <use style="fill-opacity:0.2;stroke:#000000;stroke-opacity:0.2;stroke-width:0.8;" x="472.553244" xlink:href="#m26b7dd475b" y="147.401428"/>
      </g>
     </g>
     <g id="text_7">
      <!-- $\mathdefault{120}$ -->
      <g transform="translate(462.092472 172.880957)scale(0.14 -0.14)">
       <use transform="scale(0.996264)" xlink:href="#URW_Palladio_L_Roman-49"/>
       <use transform="translate(49.8132 0)scale(0.996264)" xlink:href="#URW_Palladio_L_Roman-50"/>
       <use transform="translate(99.626401 0)scale(0.996264)" xlink:href="#URW_Palladio_L_Roman-48"/>
      </g>
     </g>
    </g>
    <g id="xtick_8">
     <g id="line2d_16">
      <path clip-path="url(#pebc2f4868c)" d="M 542.317428 147.401428 
L 542.317428 25.859068 
" style="fill:none;stroke:#000000;stroke-linecap:square;stroke-opacity:0.2;stroke-width:0.5;"/>
     </g>
     <g id="line2d_17">
      <g>
       <use style="fill-opacity:0.2;stroke:#000000;stroke-opacity:0.2;stroke-width:0.8;" x="542.317428" xlink:href="#m26b7dd475b" y="147.401428"/>
      </g>
     </g>
     <g id="text_8">
      <!-- $\mathdefault{140}$ -->
      <g transform="translate(531.856656 172.880957)scale(0.14 -0.14)">
       <use transform="scale(0.996264)" xlink:href="#URW_Palladio_L_Roman-49"/>
       <use transform="translate(49.8132 0)scale(0.996264)" xlink:href="#URW_Palladio_L_Roman-52"/>
       <use transform="translate(99.626401 0)scale(0.996264)" xlink:href="#URW_Palladio_L_Roman-48"/>
      </g>
     </g>
    </g>
    <g id="text_9">
     <!-- Analysis frequency index $m$ -->
     <g transform="translate(241.491253 189.368005)scale(0.12 -0.12)">
      <defs>
       <path d="M 40.796875 70.5 
L 37.59375 70.5 
C 35.796875 66.171875 34.296875 62.46875 33.703125 60.96875 
L 28.40625 48.8125 
L 10.59375 8.15625 
C 9.40625 5.234375 7.40625 3.421875 5.203125 3.21875 
L 1.5 2.921875 
L 1.5 0 
C 10.796875 0 10.796875 0 12.40625 0 
C 13.703125 0 13.703125 0 24.5 0 
L 24.5 2.921875 
L 20.796875 3.21875 
C 17.296875 3.53125 16 4.21875 16 5.796875 
C 16 7.09375 17.40625 11.359375 19.5 16.34375 
L 22.296875 23 
L 51.09375 23 
L 55.703125 11.453125 
C 57.40625 7.234375 57.796875 5.921875 57.796875 5.03125 
C 57.796875 3.921875 56.203125 3.21875 53.703125 3.015625 
L 49 3.015625 
L 49 0 
C 61.296875 0 61.296875 0 62.90625 0 
C 64.796875 0 64.796875 0 75.59375 0 
L 75.59375 2.921875 
L 72.203125 3.21875 
C 69.59375 3.625 68.5 5.328125 65 13.453125 
z
M 24 27 
L 36.703125 57.078125 
L 49.296875 27 
z
" id="URW_Palladio_L_Roman-65"/>
       <path d="M 41 -0.109375 
C 47.09375 -0.109375 47.203125 -0.109375 48.90625 -0.109375 
C 50.296875 -0.109375 50.296875 -0.109375 57.203125 -0.109375 
L 57.203125 2.796875 
L 53.09375 3.203125 
C 49.703125 3.203125 49.40625 3.8125 49.40625 10.21875 
L 49.40625 29.5625 
C 49.40625 41.28125 43.90625 47 32.703125 47 
C 29 47 26.90625 46.296875 24.796875 44.484375 
L 17.203125 37.875 
L 17.203125 46.59375 
L 16.296875 47 
C 11.203125 44.890625 6 43.484375 0.703125 42.890625 
L 0.703125 40.078125 
L 4.40625 40.078125 
C 8.40625 40.078125 8.796875 39.375 8.796875 32.71875 
L 8.796875 10.046875 
C 8.796875 3.703125 8.5 3 5.09375 3 
L 0.59375 3 
L 0.59375 -0.109375 
C 7.40625 -0.109375 10.09375 -0.109375 13 -0.109375 
C 15.90625 -0.109375 18.59375 -0.109375 25.40625 -0.109375 
L 25.40625 3 
L 20.90625 3 
C 17.5 3 17.203125 3.703125 17.203125 10.046875 
L 17.203125 31.421875 
C 17.203125 35.9375 23.796875 40.875 29.90625 40.875 
C 36.59375 40.875 41 35.890625 41 28.21875 
z
" id="URW_Palladio_L_Roman-110"/>
       <path d="M 32.40625 8.40625 
L 31.90625 -0.015625 
C 38.40625 -0.015625 38.40625 -0.015625 39.703125 -0.015625 
C 40.203125 -0.015625 42.703125 -0.015625 47.09375 -0.015625 
L 47.09375 3 
L 43.203125 3 
C 40.796875 3 40.40625 3.8125 40.40625 8.71875 
L 40.40625 27.046875 
C 40.40625 41.6875 36.203125 47 24.59375 47 
C 20.296875 47 16.296875 45.890625 12.5 43.609375 
L 7.203125 40.390625 
L 7.203125 33.921875 
L 9.796875 33.21875 
L 11.09375 36.296875 
C 13.203125 40.984375 14.203125 41.6875 18.796875 41.6875 
C 28.203125 41.6875 32.09375 37.984375 32.40625 28.9375 
L 22.5 27.125 
C 8.90625 24.640625 3.203125 19.953125 3.203125 11.28125 
C 3.203125 3.5 7.90625 -1 15.796875 -1 
C 17.59375 -1 19.296875 -0.703125 20 -0.203125 
z
M 32.40625 12.59375 
C 29.5 8.5 23.203125 4.71875 19.296875 4.71875 
C 15.296875 4.71875 11.796875 8.40625 11.796875 12.6875 
C 11.796875 16.375 13.796875 19.859375 16.796875 21.75 
C 19.296875 23.25 24.796875 24.640625 32.40625 25.75 
z
" id="URW_Palladio_L_Roman-97"/>
       <path d="M 2.296875 66.5 
L 7.90625 66.5 
C 9.703125 66.5 10.40625 65.390625 10.40625 62.375 
L 10.40625 10.171875 
C 10.40625 3.8125 10.09375 3.109375 6.703125 3.109375 
L 2.09375 3.109375 
L 2.09375 0 
C 12.09375 0 12.09375 0 14.59375 0 
C 17.09375 0 17.09375 0 27.09375 0 
L 27.09375 3.109375 
L 22.5 3.109375 
C 19.09375 3.109375 18.796875 3.8125 18.796875 10.15625 
L 18.796875 72.203125 
L 17.90625 73.015625 
C 13.5 71.3125 10.203125 70.5 2.296875 69.296875 
z
" id="URW_Palladio_L_Roman-108"/>
       <path d="M 29.703125 8.8125 
C 27.5 12.625 26.40625 14.9375 24.59375 19.84375 
L 18.203125 36.671875 
C 17.59375 38.375 17.203125 39.875 17.203125 40.90625 
C 17.203125 42.34375 18.296875 43.1875 20.59375 43.1875 
L 24.40625 43.1875 
L 24.40625 46 
C 14.703125 46 14.703125 46 12.796875 46 
C 10.90625 46 10.90625 46 1.203125 46 
L 1.203125 43.390625 
L 3 43.1875 
C 5.5 42.890625 6.703125 41.78125 8.203125 38.296875 
L 19.09375 12.109375 
C 21.90625 5.3125 22.90625 2.90625 24.703125 -2.09375 
L 22.40625 -8.1875 
C 19.203125 -16.59375 15.296875 -21.28125 11.5 -21.28125 
C 9.90625 -21.28125 8.09375 -20.484375 6.40625 -18.984375 
L 5.09375 -18.984375 
L 2.703125 -26.5 
C 4.59375 -27.5 6.203125 -28 8.09375 -28 
C 14.796875 -28 19.09375 -24.40625 22.90625 -15.703125 
L 43.203125 31.09375 
C 47.203125 40.1875 49.09375 42.890625 51.59375 43.1875 
L 54.40625 43.390625 
L 54.40625 46 
C 46.5 46 46.5 46 44.90625 46 
C 43.296875 46 43.296875 46 35.40625 46 
L 35.40625 43.390625 
L 38 43.1875 
C 40.796875 42.984375 42.203125 42.09375 42.203125 40.6875 
C 42.203125 39.984375 42 39.078125 41.59375 38.078125 
z
" id="URW_Palladio_L_Roman-121"/>
       <path d="M 4.09375 14.328125 
C 4.09375 7.421875 3.796875 4.40625 3 0.40625 
C 8.203125 -1.296875 12.09375 -2 16.703125 -2 
C 29.796875 -2 39.09375 5.015625 39.09375 14.828125 
C 39.09375 17.9375 38.203125 20.234375 36.296875 22.25 
C 33.703125 24.75 30.40625 25.953125 21.59375 27.65625 
C 13.40625 29.265625 10.703125 31.265625 10.703125 35.875 
C 10.703125 40.875 14.203125 43.6875 20.296875 43.6875 
C 27 43.6875 32.09375 40.1875 32.09375 35.46875 
L 32.09375 33.171875 
L 34.90625 33.171875 
C 35 38.984375 35.09375 41.375 35.40625 44.484375 
C 30.09375 46.296875 26.5 47 22.40625 47 
C 10.796875 47 3.703125 41.484375 3.703125 32.46875 
C 3.703125 27.65625 5.90625 24.25 10.5 22.140625 
C 13.203125 20.9375 18.5 19.34375 25.296875 17.828125 
C 29.796875 16.828125 31.703125 14.734375 31.703125 10.921875 
C 31.703125 5.515625 26.703125 1.703125 19.59375 1.703125 
C 12.296875 1.703125 7.09375 5.203125 7.09375 10.21875 
L 7.09375 14.328125 
z
" id="URW_Palladio_L_Roman-115"/>
       <path d="M 18.796875 46.765625 
L 17.90625 47.171875 
C 12.796875 45.0625 7.59375 43.640625 2.296875 43.046875 
L 2.296875 40.25 
L 6 40.25 
C 10 40.25 10.40625 39.546875 10.40625 32.890625 
L 10.40625 10.171875 
C 10.40625 3.8125 10.09375 3.109375 6.703125 3.109375 
L 2.09375 3.109375 
L 2.09375 0 
C 12.09375 0 12.09375 0 14.59375 0 
C 17.09375 0 17.09375 0 27.09375 0 
L 27.09375 3.109375 
L 22.5 3.109375 
C 19.09375 3.109375 18.796875 3.8125 18.796875 10.171875 
z
M 14.203125 69 
C 11.203125 69 8.59375 66.390625 8.59375 63.375 
C 8.59375 60.46875 11.203125 57.875 14.09375 57.875 
C 17 57.875 19.703125 60.46875 19.703125 63.375 
C 19.703125 66.1875 17 69 14.203125 69 
z
" id="URW_Palladio_L_Roman-105"/>
       <path d="M 34.09375 71.890625 
C 32 72.6875 30.796875 73 29.5 73 
C 26.296875 73 22.796875 71.296875 20.59375 68.8125 
L 14.796875 62.265625 
C 11.90625 58.984375 10.59375 54.53125 10.59375 47.96875 
L 10.59375 43.796875 
L 3.703125 40.6875 
L 3.703125 38.6875 
L 10.59375 38.6875 
L 10.59375 10.171875 
C 10.59375 3.8125 10.296875 3.109375 6.90625 3.109375 
L 2.296875 3.109375 
L 2.296875 0 
C 12.296875 0 12.296875 0 14.796875 0 
C 17.296875 0 17.296875 0 27.296875 0 
L 27.296875 3.109375 
L 22.703125 3.109375 
C 19.296875 3.109375 19 3.828125 19 10.203125 
L 19 38.890625 
L 31.40625 38.890625 
L 32.09375 44 
L 19 44 
L 19 52.34375 
C 19 63.640625 20.296875 66.375 26 66.375 
C 28.703125 66.375 30.5 65.6875 32.90625 63.609375 
L 34.09375 64.203125 
z
" id="URW_Palladio_L_Roman-102"/>
       <path d="M 2.296875 40.078125 
L 6 40.078125 
C 10 40.078125 10.40625 39.375 10.40625 32.71875 
L 10.40625 10.046875 
C 10.40625 3.703125 10.09375 3 6.703125 3 
L 2.09375 3 
L 2.09375 -0.109375 
C 9.296875 -0.109375 11.90625 -0.109375 14.40625 -0.109375 
C 16.40625 -0.109375 16.40625 -0.109375 28.703125 -0.109375 
L 28.703125 3 
L 23.5 3 
C 19 3 18.796875 3.296875 18.796875 9.96875 
L 18.796875 27.359375 
C 18.796875 33.421875 22.796875 38.484375 27.703125 38.484375 
C 30.703125 38.484375 32.796875 37.078125 34.40625 33.890625 
L 36.5 33.890625 
L 37.40625 45.890625 
C 36.296875 46.59375 34.5 47 32.703125 47 
C 29.703125 47 26.5 45.390625 24.40625 42.890625 
L 18.796875 36.28125 
L 18.796875 46.59375 
L 17.90625 47 
C 12.796875 44.890625 7.59375 43.484375 2.296875 42.890625 
z
" id="URW_Palladio_L_Roman-114"/>
       <path d="M 43.703125 6.984375 
L 42.40625 7.984375 
C 36 4.203125 33.703125 3.3125 29.40625 3.3125 
C 22.90625 3.3125 17.5 6.21875 14.703125 11.109375 
C 12.796875 14.390625 12.09375 17.203125 11.90625 23 
L 26.5 23 
C 33.40625 23 37.703125 23 44.59375 24.125 
C 44.703125 25.53125 44.796875 26.453125 44.796875 27.671875 
C 44.796875 39.375 37.40625 47 26.203125 47 
C 22.5 47 18.203125 45.6875 14.09375 43.28125 
C 5.90625 38.578125 2.59375 32.359375 2.59375 21.9375 
C 2.59375 15.625 4.09375 10.21875 6.796875 6.40625 
C 10.796875 1.109375 17.5 -2 25 -2 
C 28.703125 -2 32.40625 -1.203125 36.5 0.578125 
C 39.203125 1.6875 41.296875 2.984375 41.703125 3.59375 
z
M 35.90625 26.40625 
C 30.703125 26.40625 28.296875 26.40625 24.703125 26.40625 
C 20.09375 26.40625 17.5 26.40625 12.09375 26.90625 
C 12.09375 31.671875 12.5 33.890625 13.796875 36.515625 
C 15.90625 40.96875 20.203125 43.6875 25 43.6875 
C 28.296875 43.6875 30.90625 42.359375 32.703125 39.59375 
C 34.90625 36.234375 35.59375 33.265625 35.90625 26.40625 
z
" id="URW_Palladio_L_Roman-101"/>
       <path d="M 39.296875 6.8125 
L 39.296875 -17.78125 
C 39.296875 -24.171875 38.90625 -24.890625 35.59375 -24.890625 
L 29.796875 -24.890625 
L 29.796875 -28 
C 41.40625 -28 41.40625 -28 43.703125 -28 
C 46.09375 -28 48.90625 -28 56 -28 
L 56 -24.890625 
L 51.40625 -24.890625 
C 48 -24.890625 47.703125 -24.1875 47.703125 -17.859375 
L 47.703125 31.8125 
C 47.703125 38.046875 48.296875 41.875 50 45.6875 
L 48.09375 46.796875 
L 43.203125 43.6875 
C 38.09375 45.984375 33.796875 47 29.5 47 
C 26.59375 47 23.09375 46.1875 21.59375 45.296875 
L 13.203125 39.90625 
C 6.796875 35.8125 3.5 29.234375 3.5 20.546875 
C 3.5 7.484375 11.40625 -1 23.796875 -1 
C 25.90625 -1 27.59375 -0.59375 28.90625 0.203125 
z
M 39.296875 12.203125 
C 39.296875 10.796875 36.90625 8.203125 34.203125 6.703125 
C 31.796875 5.40625 29.5 4.71875 27.09375 4.71875 
C 18.296875 4.71875 12.203125 12.875 12.203125 24.9375 
C 12.203125 35.90625 17.796875 42.28125 27.40625 42.28125 
C 32.296875 42.28125 35.796875 41.09375 39.296875 38.203125 
z
" id="URW_Palladio_L_Roman-113"/>
       <path d="M 50.296875 47.015625 
L 49.40625 47.421875 
C 44.296875 45.3125 39.09375 43.90625 33.796875 43.3125 
L 33.796875 40.5 
L 37.5 40.5 
C 41.5 40.5 41.90625 39.796875 41.90625 33.140625 
L 41.90625 16.71875 
C 41.90625 14.5 40.5 11.671875 38.203125 9.359375 
C 35.40625 6.53125 32.203125 5.109375 28.296875 5.109375 
C 24.796875 5.109375 22 6.21875 20.40625 8.140625 
C 19 9.75 18.296875 12.875 18.296875 17.296875 
L 18.296875 47.015625 
L 17.40625 47.421875 
C 12.296875 45.3125 7.09375 43.90625 1.796875 43.3125 
L 1.796875 40.5 
L 5.5 40.5 
C 9.5 40.5 9.90625 39.796875 9.90625 33.15625 
L 9.90625 16.234375 
C 9.90625 9.171875 10.5 6.046875 12.296875 3.546875 
C 14.5 0.515625 18.296875 -1 24 -1 
C 28.5 -1 32.5 0.40625 35.203125 2.90625 
L 41.90625 9.140625 
C 41.90625 6.265625 41.796875 4.65625 41.5 0 
C 48.203125 0 48.296875 0 49.796875 0 
C 51.203125 0 51.203125 0 58.09375 0 
L 58.09375 2.90625 
L 54 3.3125 
C 50.59375 3.3125 50.296875 3.921875 50.296875 10.375 
z
" id="URW_Palladio_L_Roman-117"/>
       <path d="M 39.90625 31.15625 
C 39.90625 35.765625 40.40625 39.875 41.296875 43.484375 
C 37.296875 45.890625 33.796875 47 29.703125 47 
C 24.90625 47 19.296875 45.09375 13.296875 41.28125 
C 6.296875 36.875 2.59375 29.859375 2.59375 21.046875 
C 2.59375 7.515625 12.09375 -2 25.5 -2 
C 30.703125 -2 38.203125 -0.09375 39.203125 1.40625 
L 41.296875 4.609375 
L 40.296875 6.109375 
C 36.59375 4.109375 33.40625 3.203125 29.796875 3.203125 
C 18.703125 3.203125 11.40625 11.828125 11.40625 25.046875 
C 11.40625 35.765625 16.40625 41.78125 25.40625 41.78125 
C 29.796875 41.78125 34.59375 39.78125 36.40625 37.28125 
L 37.09375 31.15625 
z
" id="URW_Palladio_L_Roman-99"/>
       <path d="M 41.203125 43.78125 
C 35.59375 46.1875 32.796875 47 29.296875 47 
C 26.59375 47 24.203125 46.390625 21.703125 45.109375 
L 12.90625 40.515625 
C 7.203125 37.515625 3.5 30.234375 3.5 21.75 
C 3.5 13.765625 6.203125 7.1875 11.09375 3.1875 
C 14.5 0.296875 19.203125 -1 25.703125 -1 
C 27.703125 -1 30 -0.59375 30.5 -0.203125 
L 41.59375 9.109375 
L 41.09375 -0.109375 
C 46 -0.109375 47.59375 -0.109375 48.796875 -0.109375 
C 49.59375 -0.109375 51 -0.109375 53.09375 -0.109375 
C 53.796875 -0.109375 55.796875 -0.109375 57.90625 -0.109375 
L 57.90625 3 
L 53.296875 3 
C 49.90625 3 49.59375 3.703125 49.59375 10.046875 
L 49.59375 71.984375 
L 48.703125 72.796875 
C 44.296875 71.09375 41 70.28125 33.09375 69.078125 
L 33.09375 66.28125 
L 38.703125 66.28125 
C 40.5 66.28125 41.203125 65.171875 41.203125 62.15625 
z
M 41.203125 22.25 
C 41.203125 15.765625 41 14.78125 39.703125 12.484375 
C 36.90625 7.796875 32 4.71875 27.296875 4.71875 
C 18.5 4.71875 12.203125 13.1875 12.203125 25.046875 
C 12.203125 35.90625 17.59375 42.28125 26.59375 42.28125 
C 30.40625 42.28125 34.40625 40.984375 37.90625 38.59375 
C 40 37.203125 41.203125 35.90625 41.203125 35.09375 
z
" id="URW_Palladio_L_Roman-100"/>
       <path d="M 28.796875 25.46875 
L 43 42.09375 
C 43.59375 42.796875 44.703125 43.203125 46.40625 43.203125 
L 47.796875 43.203125 
L 47.796875 46 
L 39.59375 46 
L 27.203125 28.46875 
L 19.59375 40.09375 
C 18.09375 42.296875 17 43.609375 13.59375 47.015625 
L 2 45 
L 2.5 42.3125 
L 4.59375 42.09375 
C 6.40625 42.09375 8.59375 40.703125 9.59375 39.296875 
L 21.59375 21.84375 
L 6.703125 4.203125 
C 6 3.3125 4.703125 2.703125 3.703125 2.703125 
L 2 2.703125 
L 2 0 
L 10.59375 0 
C 11.296875 1.109375 11.5 1.5 12.703125 3.3125 
C 14.296875 6.109375 15.90625 8.609375 16.59375 9.421875 
L 24 19.234375 
L 34.703125 3.25 
L 34.796875 3.0625 
C 35.703125 1.671875 36.5 0.6875 37.296875 0 
C 42.5 0 42.5 0 43.40625 0 
C 44.40625 0 44.40625 0 49.59375 0 
L 49.59375 2.703125 
L 47.09375 3 
C 45.90625 3.109375 44.703125 3.90625 43.59375 5.40625 
z
" id="URW_Palladio_L_Roman-120"/>
       <path d="M 73 10.15625 
L 70.40625 8.46875 
C 67.5 6.578125 65.296875 5.484375 64.296875 5.484375 
C 63.59375 5.484375 63 6.375 63 7.46875 
C 63 8.46875 63.203125 9.375 63.703125 11.46875 
L 71.203125 41.109375 
C 71.59375 42.796875 71.90625 44.390625 71.90625 45.203125 
C 71.90625 46.90625 70.90625 48 69.296875 48 
C 66.40625 48 62.59375 46.203125 56.5 41.90625 
C 50.203125 37.40625 46.703125 33.921875 41.796875 27.03125 
L 44.796875 40.71875 
C 45.203125 42.703125 45.5 44.203125 45.5 44.90625 
C 45.5 46.796875 44.5 48 42.90625 48 
C 39.90625 48 35.296875 45.8125 29.796875 41.609375 
C 25.40625 38.203125 23.40625 36.109375 16.90625 27.328125 
L 20.203125 40.609375 
C 20.59375 42.203125 20.796875 43.703125 20.796875 44.890625 
C 20.796875 46.796875 19.90625 48 18.5 48 
C 16.40625 48 12.59375 45.90625 5.203125 40.59375 
L 2.40625 38.609375 
L 3.09375 36.609375 
L 6.296875 38.703125 
C 10 41.015625 10.296875 41.203125 11 41.203125 
C 12.09375 41.203125 12.796875 40.21875 12.796875 38.71875 
C 12.796875 33.625 8.703125 14.359375 4.59375 0.09375 
L 4.90625 -1 
L 11.703125 0.484375 
L 13.90625 10.671875 
C 16.296875 21.75 19 27.640625 24.5 33.625 
C 28.703125 38.21875 33.203125 41.203125 36 41.203125 
C 36.703125 41.203125 37.09375 40.40625 37.09375 39.125 
C 37.09375 35.625 34.90625 24.25 30.796875 6.78125 
L 29.203125 0.09375 
L 29.703125 -1 
L 36.59375 0.484375 
L 38.703125 11.171875 
C 40.296875 19.25 43.703125 26.734375 48.09375 31.640625 
C 53.59375 37.71875 58.59375 41.203125 61.796875 41.203125 
C 62.59375 41.203125 63.09375 40.3125 63.09375 38.71875 
C 63.09375 36.3125 62.796875 34.921875 60.59375 26.234375 
C 59 19.953125 57.296875 13.96875 56.296875 10.578125 
C 55.40625 7.765625 55 5.1875 55 3 
C 55 0.484375 56.09375 -1 58 -1 
C 60.59375 -1 64.203125 1.078125 74 8.375 
z
" id="URW_Palladio_L_Italic-109"/>
      </defs>
      <use transform="scale(0.996264)" xlink:href="#URW_Palladio_L_Roman-65"/>
      <use transform="translate(77.50837 0)scale(0.996264)" xlink:href="#URW_Palladio_L_Roman-110"/>
      <use transform="translate(135.490431 0)scale(0.996264)" xlink:href="#URW_Palladio_L_Roman-97"/>
      <use transform="translate(185.303631 0)scale(0.996264)" xlink:href="#URW_Palladio_L_Roman-108"/>
      <use transform="translate(214.293993 0)scale(0.996264)" xlink:href="#URW_Palladio_L_Roman-121"/>
      <use transform="translate(269.68567 0)scale(0.996264)" xlink:href="#URW_Palladio_L_Roman-115"/>
      <use transform="translate(311.927136 0)scale(0.996264)" xlink:href="#URW_Palladio_L_Roman-105"/>
      <use transform="translate(340.917497 0)scale(0.996264)" xlink:href="#URW_Palladio_L_Roman-115"/>
      <use transform="translate(408.065564 0)scale(0.996264)" xlink:href="#URW_Palladio_L_Roman-102"/>
      <use transform="translate(441.240794 0)scale(0.996264)" xlink:href="#URW_Palladio_L_Roman-114"/>
      <use transform="translate(478.800111 0)scale(0.996264)" xlink:href="#URW_Palladio_L_Roman-101"/>
      <use transform="translate(526.520406 0)scale(0.996264)" xlink:href="#URW_Palladio_L_Roman-113"/>
      <use transform="translate(582.311039 0)scale(0.996264)" xlink:href="#URW_Palladio_L_Roman-117"/>
      <use transform="translate(642.384774 0)scale(0.996264)" xlink:href="#URW_Palladio_L_Roman-101"/>
      <use transform="translate(690.105069 0)scale(0.996264)" xlink:href="#URW_Palladio_L_Roman-110"/>
      <use transform="translate(748.087129 0)scale(0.996264)" xlink:href="#URW_Palladio_L_Roman-99"/>
      <use transform="translate(792.320698 0)scale(0.996264)" xlink:href="#URW_Palladio_L_Roman-121"/>
      <use transform="translate(872.618975 0)scale(0.996264)" xlink:href="#URW_Palladio_L_Roman-105"/>
      <use transform="translate(901.609337 0)scale(0.996264)" xlink:href="#URW_Palladio_L_Roman-110"/>
      <use transform="translate(959.591397 0)scale(0.996264)" xlink:href="#URW_Palladio_L_Roman-100"/>
      <use transform="translate(1020.463028 0)scale(0.996264)" xlink:href="#URW_Palladio_L_Roman-101"/>
      <use transform="translate(1068.183323 0)scale(0.996264)" xlink:href="#URW_Palladio_L_Roman-120"/>
      <use transform="translate(1145.74157 0)scale(0.996264)" xlink:href="#URW_Palladio_L_Italic-109"/>
     </g>
    </g>
   </g>
   <g id="matplotlib.axis_2">
    <g id="ytick_1">
     <g id="line2d_18">
      <path clip-path="url(#pebc2f4868c)" d="M 52.572856 112.847268 
L 577.19952 112.847268 
" style="fill:none;stroke:#000000;stroke-linecap:square;stroke-opacity:0.2;stroke-width:0.5;"/>
     </g>
     <g id="line2d_19">
      <defs>
       <path d="M 0 0 
L -3.5 0 
" id="mb3b6b39969" style="stroke:#000000;stroke-opacity:0.2;stroke-width:0.8;"/>
      </defs>
      <g>
       <use style="fill-opacity:0.2;stroke:#000000;stroke-opacity:0.2;stroke-width:0.8;" x="52.572856" xlink:href="#mb3b6b39969" y="112.847268"/>
      </g>
     </g>
     <g id="text_10">
      <!-- $\mathdefault{0}$ -->
      <g transform="translate(30.099008 117.837033)scale(0.14 -0.14)">
       <use transform="scale(0.996264)" xlink:href="#URW_Palladio_L_Roman-48"/>
      </g>
     </g>
    </g>
    <g id="ytick_2">
     <g id="line2d_20">
      <path clip-path="url(#pebc2f4868c)" d="M 52.572856 76.96566 
L 577.19952 76.96566 
" style="fill:none;stroke:#000000;stroke-linecap:square;stroke-opacity:0.2;stroke-width:0.5;"/>
     </g>
     <g id="line2d_21">
      <g>
       <use style="fill-opacity:0.2;stroke:#000000;stroke-opacity:0.2;stroke-width:0.8;" x="52.572856" xlink:href="#mb3b6b39969" y="76.96566"/>
      </g>
     </g>
     <g id="text_11">
      <!-- $\mathdefault{25}$ -->
      <g transform="translate(23.12516 81.955425)scale(0.14 -0.14)">
       <defs>
        <path d="M 12.703125 60.578125 
C 25.59375 60.578125 31.203125 60.578125 43.203125 60.578125 
L 43.703125 61.046875 
C 43.5 62.75 43.5 63.5 43.5 64.75 
C 43.5 66.078125 43.5 66.828125 43.703125 68.53125 
L 43.203125 69 
C 35.703125 69 31.203125 69 25.796875 69 
C 20.296875 69 15.90625 69 8.40625 69 
L 7.90625 68.796875 
C 8 62.671875 8.09375 58.265625 8.09375 55.046875 
C 8.09375 46.515625 7.796875 36.875 7.5 32.453125 
L 9.5 31.84375 
C 14.203125 36.578125 16.90625 38 21.796875 38 
C 31.40625 38 37.40625 31.140625 37.40625 20.25 
C 37.40625 9.0625 31 2.5 20.09375 2.5 
C 14.703125 2.5 9.703125 4.328125 8.296875 6.9375 
L 3.703125 15.203125 
L 1.296875 13.796875 
C 3.59375 8.0625 4.796875 4.84375 6.203125 0.421875 
C 9 -1.109375 13 -2 17.296875 -2 
C 24 -2 31.09375 0.921875 36.59375 5.75 
C 42.703125 11.1875 45.90625 18.03125 45.90625 25.46875 
C 45.90625 36.859375 37.796875 44.90625 26.40625 44.90625 
C 21.59375 44.90625 18 43.609375 11.796875 39.90625 
z
" id="URW_Palladio_L_Roman-53"/>
       </defs>
       <use transform="scale(0.996264)" xlink:href="#URW_Palladio_L_Roman-50"/>
       <use transform="translate(49.8132 0)scale(0.996264)" xlink:href="#URW_Palladio_L_Roman-53"/>
      </g>
     </g>
    </g>
    <g id="ytick_3">
     <g id="line2d_22">
      <path clip-path="url(#pebc2f4868c)" d="M 52.572856 41.084052 
L 577.19952 41.084052 
" style="fill:none;stroke:#000000;stroke-linecap:square;stroke-opacity:0.2;stroke-width:0.5;"/>
     </g>
     <g id="line2d_23">
      <g>
       <use style="fill-opacity:0.2;stroke:#000000;stroke-opacity:0.2;stroke-width:0.8;" x="52.572856" xlink:href="#mb3b6b39969" y="41.084052"/>
      </g>
     </g>
     <g id="text_12">
      <!-- $\mathdefault{50}$ -->
      <g transform="translate(23.12516 46.073817)scale(0.14 -0.14)">
       <use transform="scale(0.996264)" xlink:href="#URW_Palladio_L_Roman-53"/>
       <use transform="translate(49.8132 0)scale(0.996264)" xlink:href="#URW_Palladio_L_Roman-48"/>
      </g>
     </g>
    </g>
    <g id="text_13">
     <!-- Similarity -->
     <g transform="translate(15.753876 112.626352)rotate(-90)scale(0.12 -0.12)">
      <defs>
       <path d="M 44.703125 52.671875 
C 44.703125 57.984375 45.09375 61.375 46.09375 66.78125 
C 38.09375 70 33.59375 71 28.09375 71 
C 13.203125 71 2.40625 61.578125 2.40625 48.46875 
C 2.40625 43.5625 3.703125 39.953125 6.59375 37.25 
C 10 34.15625 14.59375 32.546875 24.296875 31.25 
C 32 30.140625 35.5 29.046875 38.09375 26.734375 
C 40.703125 24.640625 41.90625 21.734375 41.90625 17.921875 
C 41.90625 8.921875 34.40625 2.40625 24 2.40625 
C 16 2.40625 8.203125 6.3125 7.703125 10.40625 
L 6.90625 17.125 
L 3.703125 17.125 
C 3.796875 15.3125 3.796875 13.71875 3.796875 13.125 
C 3.796875 8.515625 3.59375 6.3125 3 1.8125 
C 8.703125 -0.703125 14.5 -2 20.296875 -2 
C 37.703125 -2 50.296875 8.515625 50.296875 23.03125 
C 50.296875 27.734375 49 31.046875 46.203125 33.640625 
C 42.703125 36.9375 38.5 38.25 27.296875 39.75 
C 15.09375 41.34375 10.796875 44.65625 10.796875 52.375 
C 10.796875 60.78125 17.09375 66.78125 25.90625 66.78125 
C 29.796875 66.78125 33.5 65.984375 36.203125 64.484375 
C 39.5 62.78125 40.59375 61.28125 40.90625 58.390625 
L 41.5 52.671875 
z
" id="URW_Palladio_L_Roman-83"/>
       <path d="M 1.796875 40.078125 
L 5.5 40.078125 
C 9.5 40.078125 9.90625 39.375 9.90625 32.71875 
L 9.90625 10.046875 
C 9.90625 3.703125 9.59375 3 6.203125 3 
L 1.59375 3 
L 1.59375 -0.109375 
C 11.203125 -0.109375 11.5 -0.109375 14.296875 -0.109375 
C 17.09375 -0.109375 19.703125 -0.109375 26.203125 -0.109375 
L 26.203125 2.796875 
L 22 3.203125 
C 18.59375 3.203125 18.296875 3.90625 18.296875 10.21875 
L 18.296875 31.46875 
C 18.296875 35.96875 24.90625 40.875 30.90625 40.875 
C 36.296875 40.875 40 35.734375 40 28.09375 
L 40 10.046875 
C 40 3.703125 39.703125 3 36.296875 3 
L 31.703125 3 
L 31.703125 -0.109375 
C 41.703125 -0.109375 41.703125 -0.109375 44.203125 -0.109375 
C 46.703125 -0.109375 46.703125 -0.109375 56.703125 -0.109375 
L 56.703125 3 
L 52.09375 3 
C 48.703125 3 48.40625 3.703125 48.40625 10.046875 
L 48.40625 31.421875 
C 48.40625 35.9375 55 40.875 61 40.875 
C 66.40625 40.875 70.09375 35.796875 70.09375 28.21875 
L 70.09375 -0.109375 
C 76.203125 -0.109375 76.296875 -0.109375 78 -0.109375 
C 79.296875 -0.109375 79.296875 -0.109375 86.90625 -0.109375 
L 86.90625 3 
L 82.203125 3 
C 78.796875 3 78.5 3.703125 78.5 10.046875 
L 78.5 30.78125 
C 78.5 40.75 72.703125 47 63.5 47 
C 60 47 57.09375 46.09375 55.296875 44.484375 
L 47.703125 37.6875 
C 44.5 44.28125 40.40625 47 33.5 47 
C 29.796875 47 27 46.09375 25.203125 44.484375 
L 18.296875 38.078125 
L 18.296875 46.59375 
L 17.40625 47 
C 12.296875 44.890625 7.09375 43.484375 1.796875 42.890625 
z
" id="URW_Palladio_L_Roman-109"/>
       <path d="M 9.796875 38.6875 
L 9.796875 9.671875 
C 9.796875 2.21875 13.09375 -1 20.796875 -1 
C 23.09375 -1 25.5 -0.5 26.09375 0.203125 
L 30.90625 5.515625 
L 29.59375 7.234375 
C 27.09375 5.8125 25.59375 5.3125 23.703125 5.3125 
C 19.796875 5.3125 18.203125 7.34375 18.203125 12.3125 
L 18.203125 38.890625 
L 31 38.890625 
L 31.90625 44 
L 18.203125 44 
L 18.203125 47.75 
C 18.203125 51.890625 18.5 55.421875 19.296875 61.734375 
L 18.09375 62.828125 
C 15.703125 61.328125 12.703125 60.03125 9.59375 59.03125 
C 9.90625 56.015625 10 54.109375 10 51.109375 
L 10 44.09375 
L 2.203125 40.59375 
L 2.203125 38.6875 
z
" id="URW_Palladio_L_Roman-116"/>
      </defs>
      <use transform="scale(0.996264)" xlink:href="#URW_Palladio_L_Roman-83"/>
      <use transform="translate(52.303815 0)scale(0.996264)" xlink:href="#URW_Palladio_L_Roman-105"/>
      <use transform="translate(81.294176 0)scale(0.996264)" xlink:href="#URW_Palladio_L_Roman-109"/>
      <use transform="translate(169.263851 0)scale(0.996264)" xlink:href="#URW_Palladio_L_Roman-105"/>
      <use transform="translate(198.254212 0)scale(0.996264)" xlink:href="#URW_Palladio_L_Roman-108"/>
      <use transform="translate(227.244574 0)scale(0.996264)" xlink:href="#URW_Palladio_L_Roman-97"/>
      <use transform="translate(277.057774 0)scale(0.996264)" xlink:href="#URW_Palladio_L_Roman-114"/>
      <use transform="translate(316.40967 0)scale(0.996264)" xlink:href="#URW_Palladio_L_Roman-105"/>
      <use transform="translate(345.400032 0)scale(0.996264)" xlink:href="#URW_Palladio_L_Roman-116"/>
      <use transform="translate(377.87712 0)scale(0.996264)" xlink:href="#URW_Palladio_L_Roman-121"/>
     </g>
    </g>
   </g>
   <g id="patch_4">
    <path clip-path="url(#pebc2f4868c)" d="M 52.572856 112.847268 
L 55.363423 112.847268 
L 55.363423 141.876775 
L 52.572856 141.876775 
z
" style="fill:#6e3b87;"/>
   </g>
   <g id="patch_5">
    <path clip-path="url(#pebc2f4868c)" d="M 56.061065 112.847268 
L 58.851633 112.847268 
L 58.851633 33.703317 
L 56.061065 33.703317 
z
" style="fill:#6e3b87;"/>
   </g>
   <g id="patch_6">
    <path clip-path="url(#pebc2f4868c)" d="M 59.549274 112.847268 
L 62.339842 112.847268 
L 62.339842 31.383721 
L 59.549274 31.383721 
z
" style="fill:#6e3b87;"/>
   </g>
   <g id="patch_7">
    <path clip-path="url(#pebc2f4868c)" d="M 63.037484 112.847268 
L 65.828051 112.847268 
L 65.828051 127.953465 
L 63.037484 127.953465 
z
" style="fill:#6e3b87;"/>
   </g>
   <g id="patch_8">
    <path clip-path="url(#pebc2f4868c)" d="M 66.525693 112.847268 
L 69.31626 112.847268 
L 69.31626 116.803542 
L 66.525693 116.803542 
z
" style="fill:#6e3b87;"/>
   </g>
   <g id="patch_9">
    <path clip-path="url(#pebc2f4868c)" d="M 70.013902 112.847268 
L 72.804469 112.847268 
L 72.804469 114.234774 
L 70.013902 114.234774 
z
" style="fill:#6e3b87;"/>
   </g>
   <g id="patch_10">
    <path clip-path="url(#pebc2f4868c)" d="M 73.502111 112.847268 
L 76.292679 112.847268 
L 76.292679 113.186329 
L 73.502111 113.186329 
z
" style="fill:#6e3b87;"/>
   </g>
   <g id="patch_11">
    <path clip-path="url(#pebc2f4868c)" d="M 76.99032 112.847268 
L 79.780888 112.847268 
L 79.780888 112.643657 
L 76.99032 112.643657 
z
" style="fill:#6e3b87;"/>
   </g>
   <g id="patch_12">
    <path clip-path="url(#pebc2f4868c)" d="M 80.47853 112.847268 
L 83.269097 112.847268 
L 83.269097 112.322546 
L 80.47853 112.322546 
z
" style="fill:#6e3b87;"/>
   </g>
   <g id="patch_13">
    <path clip-path="url(#pebc2f4868c)" d="M 83.966739 112.847268 
L 86.757306 112.847268 
L 86.757306 112.115334 
L 83.966739 112.115334 
z
" style="fill:#6e3b87;"/>
   </g>
   <g id="patch_14">
    <path clip-path="url(#pebc2f4868c)" d="M 87.454948 112.847268 
L 90.245515 112.847268 
L 90.245515 111.97321 
L 87.454948 111.97321 
z
" style="fill:#6e3b87;"/>
   </g>
   <g id="patch_15">
    <path clip-path="url(#pebc2f4868c)" d="M 90.943157 112.847268 
L 93.733725 112.847268 
L 93.733725 111.871196 
L 90.943157 111.871196 
z
" style="fill:#6e3b87;"/>
   </g>
   <g id="patch_16">
    <path clip-path="url(#pebc2f4868c)" d="M 94.431366 112.847268 
L 97.221934 112.847268 
L 97.221934 111.795345 
L 94.431366 111.795345 
z
" style="fill:#6e3b87;"/>
   </g>
   <g id="patch_17">
    <path clip-path="url(#pebc2f4868c)" d="M 97.919576 112.847268 
L 100.710143 112.847268 
L 100.710143 111.737335 
L 97.919576 111.737335 
z
" style="fill:#6e3b87;"/>
   </g>
   <g id="patch_18">
    <path clip-path="url(#pebc2f4868c)" d="M 101.407785 112.847268 
L 104.198352 112.847268 
L 104.198352 111.691931 
L 101.407785 111.691931 
z
" style="fill:#6e3b87;"/>
   </g>
   <g id="patch_19">
    <path clip-path="url(#pebc2f4868c)" d="M 104.895994 112.847268 
L 107.686561 112.847268 
L 107.686561 111.655701 
L 104.895994 111.655701 
z
" style="fill:#6e3b87;"/>
   </g>
   <g id="patch_20">
    <path clip-path="url(#pebc2f4868c)" d="M 108.384203 112.847268 
L 111.174771 112.847268 
L 111.174771 111.626315 
L 108.384203 111.626315 
z
" style="fill:#6e3b87;"/>
   </g>
   <g id="patch_21">
    <path clip-path="url(#pebc2f4868c)" d="M 111.872412 112.847268 
L 114.66298 112.847268 
L 114.66298 111.602141 
L 111.872412 111.602141 
z
" style="fill:#6e3b87;"/>
   </g>
   <g id="patch_22">
    <path clip-path="url(#pebc2f4868c)" d="M 115.360622 112.847268 
L 118.151189 112.847268 
L 118.151189 111.58201 
L 115.360622 111.58201 
z
" style="fill:#6e3b87;"/>
   </g>
   <g id="patch_23">
    <path clip-path="url(#pebc2f4868c)" d="M 118.848831 112.847268 
L 121.639398 112.847268 
L 121.639398 111.565064 
L 118.848831 111.565064 
z
" style="fill:#6e3b87;"/>
   </g>
   <g id="patch_24">
    <path clip-path="url(#pebc2f4868c)" d="M 122.33704 112.847268 
L 125.127607 112.847268 
L 125.127607 111.550663 
L 122.33704 111.550663 
z
" style="fill:#6e3b87;"/>
   </g>
   <g id="patch_25">
    <path clip-path="url(#pebc2f4868c)" d="M 125.825249 112.847268 
L 128.615817 112.847268 
L 128.615817 111.538322 
L 125.825249 111.538322 
z
" style="fill:#6e3b87;"/>
   </g>
   <g id="patch_26">
    <path clip-path="url(#pebc2f4868c)" d="M 129.313458 112.847268 
L 132.104026 112.847268 
L 132.104026 111.527664 
L 129.313458 111.527664 
z
" style="fill:#6e3b87;"/>
   </g>
   <g id="patch_27">
    <path clip-path="url(#pebc2f4868c)" d="M 132.801668 112.847268 
L 135.592235 112.847268 
L 135.592235 111.518397 
L 132.801668 111.518397 
z
" style="fill:#6e3b87;"/>
   </g>
   <g id="patch_28">
    <path clip-path="url(#pebc2f4868c)" d="M 136.289877 112.847268 
L 139.080444 112.847268 
L 139.080444 111.51029 
L 136.289877 111.51029 
z
" style="fill:#6e3b87;"/>
   </g>
   <g id="patch_29">
    <path clip-path="url(#pebc2f4868c)" d="M 139.778086 112.847268 
L 142.568653 112.847268 
L 142.568653 111.503156 
L 139.778086 111.503156 
z
" style="fill:#6e3b87;"/>
   </g>
   <g id="patch_30">
    <path clip-path="url(#pebc2f4868c)" d="M 143.266295 112.847268 
L 146.056863 112.847268 
L 146.056863 111.496848 
L 143.266295 111.496848 
z
" style="fill:#6e3b87;"/>
   </g>
   <g id="patch_31">
    <path clip-path="url(#pebc2f4868c)" d="M 146.754504 112.847268 
L 149.545072 112.847268 
L 149.545072 111.491242 
L 146.754504 111.491242 
z
" style="fill:#6e3b87;"/>
   </g>
   <g id="patch_32">
    <path clip-path="url(#pebc2f4868c)" d="M 150.242714 112.847268 
L 153.033281 112.847268 
L 153.033281 111.48624 
L 150.242714 111.48624 
z
" style="fill:#6e3b87;"/>
   </g>
   <g id="patch_33">
    <path clip-path="url(#pebc2f4868c)" d="M 153.730923 112.847268 
L 156.52149 112.847268 
L 156.52149 111.481758 
L 153.730923 111.481758 
z
" style="fill:#6e3b87;"/>
   </g>
   <g id="patch_34">
    <path clip-path="url(#pebc2f4868c)" d="M 157.219132 112.847268 
L 160.009699 112.847268 
L 160.009699 111.477728 
L 157.219132 111.477728 
z
" style="fill:#6e3b87;"/>
   </g>
   <g id="patch_35">
    <path clip-path="url(#pebc2f4868c)" d="M 160.707341 112.847268 
L 163.497909 112.847268 
L 163.497909 111.474091 
L 160.707341 111.474091 
z
" style="fill:#6e3b87;"/>
   </g>
   <g id="patch_36">
    <path clip-path="url(#pebc2f4868c)" d="M 164.19555 112.847268 
L 166.986118 112.847268 
L 166.986118 111.4708 
L 164.19555 111.4708 
z
" style="fill:#6e3b87;"/>
   </g>
   <g id="patch_37">
    <path clip-path="url(#pebc2f4868c)" d="M 167.68376 112.847268 
L 170.474327 112.847268 
L 170.474327 111.467812 
L 167.68376 111.467812 
z
" style="fill:#6e3b87;"/>
   </g>
   <g id="patch_38">
    <path clip-path="url(#pebc2f4868c)" d="M 171.171969 112.847268 
L 173.962536 112.847268 
L 173.962536 111.465093 
L 171.171969 111.465093 
z
" style="fill:#6e3b87;"/>
   </g>
   <g id="patch_39">
    <path clip-path="url(#pebc2f4868c)" d="M 174.660178 112.847268 
L 177.450745 112.847268 
L 177.450745 111.462611 
L 174.660178 111.462611 
z
" style="fill:#6e3b87;"/>
   </g>
   <g id="patch_40">
    <path clip-path="url(#pebc2f4868c)" d="M 178.148387 112.847268 
L 180.938955 112.847268 
L 180.938955 111.460342 
L 178.148387 111.460342 
z
" style="fill:#6e3b87;"/>
   </g>
   <g id="patch_41">
    <path clip-path="url(#pebc2f4868c)" d="M 181.636596 112.847268 
L 184.427164 112.847268 
L 184.427164 111.458262 
L 181.636596 111.458262 
z
" style="fill:#6e3b87;"/>
   </g>
   <g id="patch_42">
    <path clip-path="url(#pebc2f4868c)" d="M 185.124806 112.847268 
L 187.915373 112.847268 
L 187.915373 111.456353 
L 185.124806 111.456353 
z
" style="fill:#6e3b87;"/>
   </g>
   <g id="patch_43">
    <path clip-path="url(#pebc2f4868c)" d="M 188.613015 112.847268 
L 191.403582 112.847268 
L 191.403582 111.454596 
L 188.613015 111.454596 
z
" style="fill:#6e3b87;"/>
   </g>
   <g id="patch_44">
    <path clip-path="url(#pebc2f4868c)" d="M 192.101224 112.847268 
L 194.891791 112.847268 
L 194.891791 111.452977 
L 192.101224 111.452977 
z
" style="fill:#6e3b87;"/>
   </g>
   <g id="patch_45">
    <path clip-path="url(#pebc2f4868c)" d="M 195.589433 112.847268 
L 198.380001 112.847268 
L 198.380001 111.451483 
L 195.589433 111.451483 
z
" style="fill:#6e3b87;"/>
   </g>
   <g id="patch_46">
    <path clip-path="url(#pebc2f4868c)" d="M 199.077642 112.847268 
L 201.86821 112.847268 
L 201.86821 111.450102 
L 199.077642 111.450102 
z
" style="fill:#6e3b87;"/>
   </g>
   <g id="patch_47">
    <path clip-path="url(#pebc2f4868c)" d="M 202.565852 112.847268 
L 205.356419 112.847268 
L 205.356419 111.448825 
L 202.565852 111.448825 
z
" style="fill:#6e3b87;"/>
   </g>
   <g id="patch_48">
    <path clip-path="url(#pebc2f4868c)" d="M 206.054061 112.847268 
L 208.844628 112.847268 
L 208.844628 111.447642 
L 206.054061 111.447642 
z
" style="fill:#6e3b87;"/>
   </g>
   <g id="patch_49">
    <path clip-path="url(#pebc2f4868c)" d="M 209.54227 112.847268 
L 212.332837 112.847268 
L 212.332837 111.446545 
L 209.54227 111.446545 
z
" style="fill:#6e3b87;"/>
   </g>
   <g id="patch_50">
    <path clip-path="url(#pebc2f4868c)" d="M 213.030479 112.847268 
L 215.821047 112.847268 
L 215.821047 111.445527 
L 213.030479 111.445527 
z
" style="fill:#6e3b87;"/>
   </g>
   <g id="patch_51">
    <path clip-path="url(#pebc2f4868c)" d="M 216.518688 112.847268 
L 219.309256 112.847268 
L 219.309256 111.444582 
L 216.518688 111.444582 
z
" style="fill:#6e3b87;"/>
   </g>
   <g id="patch_52">
    <path clip-path="url(#pebc2f4868c)" d="M 220.006898 112.847268 
L 222.797465 112.847268 
L 222.797465 111.443703 
L 220.006898 111.443703 
z
" style="fill:#6e3b87;"/>
   </g>
   <g id="patch_53">
    <path clip-path="url(#pebc2f4868c)" d="M 223.495107 112.847268 
L 226.285674 112.847268 
L 226.285674 111.442887 
L 223.495107 111.442887 
z
" style="fill:#6e3b87;"/>
   </g>
   <g id="patch_54">
    <path clip-path="url(#pebc2f4868c)" d="M 226.983316 112.847268 
L 229.773883 112.847268 
L 229.773883 111.442128 
L 226.983316 111.442128 
z
" style="fill:#6e3b87;"/>
   </g>
   <g id="patch_55">
    <path clip-path="url(#pebc2f4868c)" d="M 230.471525 112.847268 
L 233.262093 112.847268 
L 233.262093 111.441422 
L 230.471525 111.441422 
z
" style="fill:#6e3b87;"/>
   </g>
   <g id="patch_56">
    <path clip-path="url(#pebc2f4868c)" d="M 233.959734 112.847268 
L 236.750302 112.847268 
L 236.750302 111.440766 
L 233.959734 111.440766 
z
" style="fill:#6e3b87;"/>
   </g>
   <g id="patch_57">
    <path clip-path="url(#pebc2f4868c)" d="M 237.447944 112.847268 
L 240.238511 112.847268 
L 240.238511 111.440157 
L 237.447944 111.440157 
z
" style="fill:#6e3b87;"/>
   </g>
   <g id="patch_58">
    <path clip-path="url(#pebc2f4868c)" d="M 240.936153 112.847268 
L 243.72672 112.847268 
L 243.72672 111.43959 
L 240.936153 111.43959 
z
" style="fill:#6e3b87;"/>
   </g>
   <g id="patch_59">
    <path clip-path="url(#pebc2f4868c)" d="M 244.424362 112.847268 
L 247.214929 112.847268 
L 247.214929 111.439064 
L 244.424362 111.439064 
z
" style="fill:#6e3b87;"/>
   </g>
   <g id="patch_60">
    <path clip-path="url(#pebc2f4868c)" d="M 247.912571 112.847268 
L 250.703139 112.847268 
L 250.703139 111.438576 
L 247.912571 111.438576 
z
" style="fill:#6e3b87;"/>
   </g>
   <g id="patch_61">
    <path clip-path="url(#pebc2f4868c)" d="M 251.40078 112.847268 
L 254.191348 112.847268 
L 254.191348 111.438124 
L 251.40078 111.438124 
z
" style="fill:#6e3b87;"/>
   </g>
   <g id="patch_62">
    <path clip-path="url(#pebc2f4868c)" d="M 254.88899 112.847268 
L 257.679557 112.847268 
L 257.679557 111.437706 
L 254.88899 111.437706 
z
" style="fill:#6e3b87;"/>
   </g>
   <g id="patch_63">
    <path clip-path="url(#pebc2f4868c)" d="M 258.377199 112.847268 
L 261.167766 112.847268 
L 261.167766 111.43732 
L 258.377199 111.43732 
z
" style="fill:#6e3b87;"/>
   </g>
   <g id="patch_64">
    <path clip-path="url(#pebc2f4868c)" d="M 261.865408 112.847268 
L 264.655975 112.847268 
L 264.655975 111.436964 
L 261.865408 111.436964 
z
" style="fill:#6e3b87;"/>
   </g>
   <g id="patch_65">
    <path clip-path="url(#pebc2f4868c)" d="M 265.353617 112.847268 
L 268.144185 112.847268 
L 268.144185 111.436637 
L 265.353617 111.436637 
z
" style="fill:#6e3b87;"/>
   </g>
   <g id="patch_66">
    <path clip-path="url(#pebc2f4868c)" d="M 268.841826 112.847268 
L 271.632394 112.847268 
L 271.632394 111.436338 
L 268.841826 111.436338 
z
" style="fill:#6e3b87;"/>
   </g>
   <g id="patch_67">
    <path clip-path="url(#pebc2f4868c)" d="M 272.330036 112.847268 
L 275.120603 112.847268 
L 275.120603 111.436066 
L 272.330036 111.436066 
z
" style="fill:#6e3b87;"/>
   </g>
   <g id="patch_68">
    <path clip-path="url(#pebc2f4868c)" d="M 275.818245 112.847268 
L 278.608812 112.847268 
L 278.608812 111.435819 
L 275.818245 111.435819 
z
" style="fill:#6e3b87;"/>
   </g>
   <g id="patch_69">
    <path clip-path="url(#pebc2f4868c)" d="M 279.306454 112.847268 
L 282.097021 112.847268 
L 282.097021 111.435596 
L 279.306454 111.435596 
z
" style="fill:#6e3b87;"/>
   </g>
   <g id="patch_70">
    <path clip-path="url(#pebc2f4868c)" d="M 282.794663 112.847268 
L 285.585231 112.847268 
L 285.585231 111.435397 
L 282.794663 111.435397 
z
" style="fill:#6e3b87;"/>
   </g>
   <g id="patch_71">
    <path clip-path="url(#pebc2f4868c)" d="M 286.282873 112.847268 
L 289.07344 112.847268 
L 289.07344 111.435221 
L 286.282873 111.435221 
z
" style="fill:#6e3b87;"/>
   </g>
   <g id="patch_72">
    <path clip-path="url(#pebc2f4868c)" d="M 289.771082 112.847268 
L 292.561649 112.847268 
L 292.561649 111.435067 
L 289.771082 111.435067 
z
" style="fill:#6e3b87;"/>
   </g>
   <g id="patch_73">
    <path clip-path="url(#pebc2f4868c)" d="M 293.259291 112.847268 
L 296.049858 112.847268 
L 296.049858 111.434934 
L 293.259291 111.434934 
z
" style="fill:#6e3b87;"/>
   </g>
   <g id="patch_74">
    <path clip-path="url(#pebc2f4868c)" d="M 296.7475 112.847268 
L 299.538067 112.847268 
L 299.538067 111.434823 
L 296.7475 111.434823 
z
" style="fill:#6e3b87;"/>
   </g>
   <g id="patch_75">
    <path clip-path="url(#pebc2f4868c)" d="M 300.235709 112.847268 
L 303.026277 112.847268 
L 303.026277 111.434732 
L 300.235709 111.434732 
z
" style="fill:#6e3b87;"/>
   </g>
   <g id="patch_76">
    <path clip-path="url(#pebc2f4868c)" d="M 303.723919 112.847268 
L 306.514486 112.847268 
L 306.514486 111.434662 
L 303.723919 111.434662 
z
" style="fill:#6e3b87;"/>
   </g>
   <g id="patch_77">
    <path clip-path="url(#pebc2f4868c)" d="M 307.212128 112.847268 
L 310.002695 112.847268 
L 310.002695 111.434613 
L 307.212128 111.434613 
z
" style="fill:#6e3b87;"/>
   </g>
   <g id="patch_78">
    <path clip-path="url(#pebc2f4868c)" d="M 310.700337 112.847268 
L 313.490904 112.847268 
L 313.490904 111.434583 
L 310.700337 111.434583 
z
" style="fill:#6e3b87;"/>
   </g>
   <g id="patch_79">
    <path clip-path="url(#pebc2f4868c)" d="M 314.188546 112.847268 
L 316.979113 112.847268 
L 316.979113 111.434573 
L 314.188546 111.434573 
z
" style="fill:#6e3b87;"/>
   </g>
   <g id="patch_80">
    <path clip-path="url(#pebc2f4868c)" d="M 317.676755 112.847268 
L 320.467323 112.847268 
L 320.467323 111.434583 
L 317.676755 111.434583 
z
" style="fill:#6e3b87;"/>
   </g>
   <g id="patch_81">
    <path clip-path="url(#pebc2f4868c)" d="M 321.164965 112.847268 
L 323.955532 112.847268 
L 323.955532 111.434613 
L 321.164965 111.434613 
z
" style="fill:#6e3b87;"/>
   </g>
   <g id="patch_82">
    <path clip-path="url(#pebc2f4868c)" d="M 324.653174 112.847268 
L 327.443741 112.847268 
L 327.443741 111.434662 
L 324.653174 111.434662 
z
" style="fill:#6e3b87;"/>
   </g>
   <g id="patch_83">
    <path clip-path="url(#pebc2f4868c)" d="M 328.141383 112.847268 
L 330.93195 112.847268 
L 330.93195 111.434732 
L 328.141383 111.434732 
z
" style="fill:#6e3b87;"/>
   </g>
   <g id="patch_84">
    <path clip-path="url(#pebc2f4868c)" d="M 331.629592 112.847268 
L 334.42016 112.847268 
L 334.42016 111.434823 
L 331.629592 111.434823 
z
" style="fill:#6e3b87;"/>
   </g>
   <g id="patch_85">
    <path clip-path="url(#pebc2f4868c)" d="M 335.117801 112.847268 
L 337.908369 112.847268 
L 337.908369 111.434934 
L 335.117801 111.434934 
z
" style="fill:#6e3b87;"/>
   </g>
   <g id="patch_86">
    <path clip-path="url(#pebc2f4868c)" d="M 338.606011 112.847268 
L 341.396578 112.847268 
L 341.396578 111.435067 
L 338.606011 111.435067 
z
" style="fill:#6e3b87;"/>
   </g>
   <g id="patch_87">
    <path clip-path="url(#pebc2f4868c)" d="M 342.09422 112.847268 
L 344.884787 112.847268 
L 344.884787 111.435221 
L 342.09422 111.435221 
z
" style="fill:#6e3b87;"/>
   </g>
   <g id="patch_88">
    <path clip-path="url(#pebc2f4868c)" d="M 345.582429 112.847268 
L 348.372996 112.847268 
L 348.372996 111.435397 
L 345.582429 111.435397 
z
" style="fill:#6e3b87;"/>
   </g>
   <g id="patch_89">
    <path clip-path="url(#pebc2f4868c)" d="M 349.070638 112.847268 
L 351.861206 112.847268 
L 351.861206 111.435596 
L 349.070638 111.435596 
z
" style="fill:#6e3b87;"/>
   </g>
   <g id="patch_90">
    <path clip-path="url(#pebc2f4868c)" d="M 352.558847 112.847268 
L 355.349415 112.847268 
L 355.349415 111.435819 
L 352.558847 111.435819 
z
" style="fill:#6e3b87;"/>
   </g>
   <g id="patch_91">
    <path clip-path="url(#pebc2f4868c)" d="M 356.047057 112.847268 
L 358.837624 112.847268 
L 358.837624 111.436066 
L 356.047057 111.436066 
z
" style="fill:#6e3b87;"/>
   </g>
   <g id="patch_92">
    <path clip-path="url(#pebc2f4868c)" d="M 359.535266 112.847268 
L 362.325833 112.847268 
L 362.325833 111.436338 
L 359.535266 111.436338 
z
" style="fill:#6e3b87;"/>
   </g>
   <g id="patch_93">
    <path clip-path="url(#pebc2f4868c)" d="M 363.023475 112.847268 
L 365.814042 112.847268 
L 365.814042 111.436637 
L 363.023475 111.436637 
z
" style="fill:#6e3b87;"/>
   </g>
   <g id="patch_94">
    <path clip-path="url(#pebc2f4868c)" d="M 366.511684 112.847268 
L 369.302252 112.847268 
L 369.302252 111.436964 
L 366.511684 111.436964 
z
" style="fill:#6e3b87;"/>
   </g>
   <g id="patch_95">
    <path clip-path="url(#pebc2f4868c)" d="M 369.999893 112.847268 
L 372.790461 112.847268 
L 372.790461 111.43732 
L 369.999893 111.43732 
z
" style="fill:#6e3b87;"/>
   </g>
   <g id="patch_96">
    <path clip-path="url(#pebc2f4868c)" d="M 373.488103 112.847268 
L 376.27867 112.847268 
L 376.27867 111.437706 
L 373.488103 111.437706 
z
" style="fill:#6e3b87;"/>
   </g>
   <g id="patch_97">
    <path clip-path="url(#pebc2f4868c)" d="M 376.976312 112.847268 
L 379.766879 112.847268 
L 379.766879 111.438124 
L 376.976312 111.438124 
z
" style="fill:#6e3b87;"/>
   </g>
   <g id="patch_98">
    <path clip-path="url(#pebc2f4868c)" d="M 380.464521 112.847268 
L 383.255088 112.847268 
L 383.255088 111.438576 
L 380.464521 111.438576 
z
" style="fill:#6e3b87;"/>
   </g>
   <g id="patch_99">
    <path clip-path="url(#pebc2f4868c)" d="M 383.95273 112.847268 
L 386.743298 112.847268 
L 386.743298 111.439064 
L 383.95273 111.439064 
z
" style="fill:#6e3b87;"/>
   </g>
   <g id="patch_100">
    <path clip-path="url(#pebc2f4868c)" d="M 387.440939 112.847268 
L 390.231507 112.847268 
L 390.231507 111.43959 
L 387.440939 111.43959 
z
" style="fill:#6e3b87;"/>
   </g>
   <g id="patch_101">
    <path clip-path="url(#pebc2f4868c)" d="M 390.929149 112.847268 
L 393.719716 112.847268 
L 393.719716 111.440157 
L 390.929149 111.440157 
z
" style="fill:#6e3b87;"/>
   </g>
   <g id="patch_102">
    <path clip-path="url(#pebc2f4868c)" d="M 394.417358 112.847268 
L 397.207925 112.847268 
L 397.207925 111.440766 
L 394.417358 111.440766 
z
" style="fill:#6e3b87;"/>
   </g>
   <g id="patch_103">
    <path clip-path="url(#pebc2f4868c)" d="M 397.905567 112.847268 
L 400.696134 112.847268 
L 400.696134 111.441422 
L 397.905567 111.441422 
z
" style="fill:#6e3b87;"/>
   </g>
   <g id="patch_104">
    <path clip-path="url(#pebc2f4868c)" d="M 401.393776 112.847268 
L 404.184344 112.847268 
L 404.184344 111.442128 
L 401.393776 111.442128 
z
" style="fill:#6e3b87;"/>
   </g>
   <g id="patch_105">
    <path clip-path="url(#pebc2f4868c)" d="M 404.881985 112.847268 
L 407.672553 112.847268 
L 407.672553 111.442887 
L 404.881985 111.442887 
z
" style="fill:#6e3b87;"/>
   </g>
   <g id="patch_106">
    <path clip-path="url(#pebc2f4868c)" d="M 408.370195 112.847268 
L 411.160762 112.847268 
L 411.160762 111.443703 
L 408.370195 111.443703 
z
" style="fill:#6e3b87;"/>
   </g>
   <g id="patch_107">
    <path clip-path="url(#pebc2f4868c)" d="M 411.858404 112.847268 
L 414.648971 112.847268 
L 414.648971 111.444582 
L 411.858404 111.444582 
z
" style="fill:#6e3b87;"/>
   </g>
   <g id="patch_108">
    <path clip-path="url(#pebc2f4868c)" d="M 415.346613 112.847268 
L 418.13718 112.847268 
L 418.13718 111.445527 
L 415.346613 111.445527 
z
" style="fill:#6e3b87;"/>
   </g>
   <g id="patch_109">
    <path clip-path="url(#pebc2f4868c)" d="M 418.834822 112.847268 
L 421.62539 112.847268 
L 421.62539 111.446545 
L 418.834822 111.446545 
z
" style="fill:#6e3b87;"/>
   </g>
   <g id="patch_110">
    <path clip-path="url(#pebc2f4868c)" d="M 422.323031 112.847268 
L 425.113599 112.847268 
L 425.113599 111.447642 
L 422.323031 111.447642 
z
" style="fill:#6e3b87;"/>
   </g>
   <g id="patch_111">
    <path clip-path="url(#pebc2f4868c)" d="M 425.811241 112.847268 
L 428.601808 112.847268 
L 428.601808 111.448825 
L 425.811241 111.448825 
z
" style="fill:#6e3b87;"/>
   </g>
   <g id="patch_112">
    <path clip-path="url(#pebc2f4868c)" d="M 429.29945 112.847268 
L 432.090017 112.847268 
L 432.090017 111.450102 
L 429.29945 111.450102 
z
" style="fill:#6e3b87;"/>
   </g>
   <g id="patch_113">
    <path clip-path="url(#pebc2f4868c)" d="M 432.787659 112.847268 
L 435.578226 112.847268 
L 435.578226 111.451483 
L 432.787659 111.451483 
z
" style="fill:#6e3b87;"/>
   </g>
   <g id="patch_114">
    <path clip-path="url(#pebc2f4868c)" d="M 436.275868 112.847268 
L 439.066436 112.847268 
L 439.066436 111.452977 
L 436.275868 111.452977 
z
" style="fill:#6e3b87;"/>
   </g>
   <g id="patch_115">
    <path clip-path="url(#pebc2f4868c)" d="M 439.764077 112.847268 
L 442.554645 112.847268 
L 442.554645 111.454596 
L 439.764077 111.454596 
z
" style="fill:#6e3b87;"/>
   </g>
   <g id="patch_116">
    <path clip-path="url(#pebc2f4868c)" d="M 443.252287 112.847268 
L 446.042854 112.847268 
L 446.042854 111.456353 
L 443.252287 111.456353 
z
" style="fill:#6e3b87;"/>
   </g>
   <g id="patch_117">
    <path clip-path="url(#pebc2f4868c)" d="M 446.740496 112.847268 
L 449.531063 112.847268 
L 449.531063 111.458262 
L 446.740496 111.458262 
z
" style="fill:#6e3b87;"/>
   </g>
   <g id="patch_118">
    <path clip-path="url(#pebc2f4868c)" d="M 450.228705 112.847268 
L 453.019272 112.847268 
L 453.019272 111.460342 
L 450.228705 111.460342 
z
" style="fill:#6e3b87;"/>
   </g>
   <g id="patch_119">
    <path clip-path="url(#pebc2f4868c)" d="M 453.716914 112.847268 
L 456.507482 112.847268 
L 456.507482 111.462611 
L 453.716914 111.462611 
z
" style="fill:#6e3b87;"/>
   </g>
   <g id="patch_120">
    <path clip-path="url(#pebc2f4868c)" d="M 457.205123 112.847268 
L 459.995691 112.847268 
L 459.995691 111.465093 
L 457.205123 111.465093 
z
" style="fill:#6e3b87;"/>
   </g>
   <g id="patch_121">
    <path clip-path="url(#pebc2f4868c)" d="M 460.693333 112.847268 
L 463.4839 112.847268 
L 463.4839 111.467812 
L 460.693333 111.467812 
z
" style="fill:#6e3b87;"/>
   </g>
   <g id="patch_122">
    <path clip-path="url(#pebc2f4868c)" d="M 464.181542 112.847268 
L 466.972109 112.847268 
L 466.972109 111.4708 
L 464.181542 111.4708 
z
" style="fill:#6e3b87;"/>
   </g>
   <g id="patch_123">
    <path clip-path="url(#pebc2f4868c)" d="M 467.669751 112.847268 
L 470.460318 112.847268 
L 470.460318 111.474091 
L 467.669751 111.474091 
z
" style="fill:#6e3b87;"/>
   </g>
   <g id="patch_124">
    <path clip-path="url(#pebc2f4868c)" d="M 471.15796 112.847268 
L 473.948528 112.847268 
L 473.948528 111.477728 
L 471.15796 111.477728 
z
" style="fill:#6e3b87;"/>
   </g>
   <g id="patch_125">
    <path clip-path="url(#pebc2f4868c)" d="M 474.646169 112.847268 
L 477.436737 112.847268 
L 477.436737 111.481758 
L 474.646169 111.481758 
z
" style="fill:#6e3b87;"/>
   </g>
   <g id="patch_126">
    <path clip-path="url(#pebc2f4868c)" d="M 478.134379 112.847268 
L 480.924946 112.847268 
L 480.924946 111.48624 
L 478.134379 111.48624 
z
" style="fill:#6e3b87;"/>
   </g>
   <g id="patch_127">
    <path clip-path="url(#pebc2f4868c)" d="M 481.622588 112.847268 
L 484.413155 112.847268 
L 484.413155 111.491242 
L 481.622588 111.491242 
z
" style="fill:#6e3b87;"/>
   </g>
   <g id="patch_128">
    <path clip-path="url(#pebc2f4868c)" d="M 485.110797 112.847268 
L 487.901364 112.847268 
L 487.901364 111.496848 
L 485.110797 111.496848 
z
" style="fill:#6e3b87;"/>
   </g>
   <g id="patch_129">
    <path clip-path="url(#pebc2f4868c)" d="M 488.599006 112.847268 
L 491.389574 112.847268 
L 491.389574 111.503156 
L 488.599006 111.503156 
z
" style="fill:#6e3b87;"/>
   </g>
   <g id="patch_130">
    <path clip-path="url(#pebc2f4868c)" d="M 492.087215 112.847268 
L 494.877783 112.847268 
L 494.877783 111.51029 
L 492.087215 111.51029 
z
" style="fill:#6e3b87;"/>
   </g>
   <g id="patch_131">
    <path clip-path="url(#pebc2f4868c)" d="M 495.575425 112.847268 
L 498.365992 112.847268 
L 498.365992 111.518397 
L 495.575425 111.518397 
z
" style="fill:#6e3b87;"/>
   </g>
   <g id="patch_132">
    <path clip-path="url(#pebc2f4868c)" d="M 499.063634 112.847268 
L 501.854201 112.847268 
L 501.854201 111.527664 
L 499.063634 111.527664 
z
" style="fill:#6e3b87;"/>
   </g>
   <g id="patch_133">
    <path clip-path="url(#pebc2f4868c)" d="M 502.551843 112.847268 
L 505.34241 112.847268 
L 505.34241 111.538322 
L 502.551843 111.538322 
z
" style="fill:#6e3b87;"/>
   </g>
   <g id="patch_134">
    <path clip-path="url(#pebc2f4868c)" d="M 506.040052 112.847268 
L 508.83062 112.847268 
L 508.83062 111.550663 
L 506.040052 111.550663 
z
" style="fill:#6e3b87;"/>
   </g>
   <g id="patch_135">
    <path clip-path="url(#pebc2f4868c)" d="M 509.528261 112.847268 
L 512.318829 112.847268 
L 512.318829 111.565064 
L 509.528261 111.565064 
z
" style="fill:#6e3b87;"/>
   </g>
   <g id="patch_136">
    <path clip-path="url(#pebc2f4868c)" d="M 513.016471 112.847268 
L 515.807038 112.847268 
L 515.807038 111.58201 
L 513.016471 111.58201 
z
" style="fill:#6e3b87;"/>
   </g>
   <g id="patch_137">
    <path clip-path="url(#pebc2f4868c)" d="M 516.50468 112.847268 
L 519.295247 112.847268 
L 519.295247 111.602141 
L 516.50468 111.602141 
z
" style="fill:#6e3b87;"/>
   </g>
   <g id="patch_138">
    <path clip-path="url(#pebc2f4868c)" d="M 519.992889 112.847268 
L 522.783456 112.847268 
L 522.783456 111.626315 
L 519.992889 111.626315 
z
" style="fill:#6e3b87;"/>
   </g>
   <g id="patch_139">
    <path clip-path="url(#pebc2f4868c)" d="M 523.481098 112.847268 
L 526.271666 112.847268 
L 526.271666 111.655701 
L 523.481098 111.655701 
z
" style="fill:#6e3b87;"/>
   </g>
   <g id="patch_140">
    <path clip-path="url(#pebc2f4868c)" d="M 526.969307 112.847268 
L 529.759875 112.847268 
L 529.759875 111.691931 
L 526.969307 111.691931 
z
" style="fill:#6e3b87;"/>
   </g>
   <g id="patch_141">
    <path clip-path="url(#pebc2f4868c)" d="M 530.457517 112.847268 
L 533.248084 112.847268 
L 533.248084 111.737335 
L 530.457517 111.737335 
z
" style="fill:#6e3b87;"/>
   </g>
   <g id="patch_142">
    <path clip-path="url(#pebc2f4868c)" d="M 533.945726 112.847268 
L 536.736293 112.847268 
L 536.736293 111.795345 
L 533.945726 111.795345 
z
" style="fill:#6e3b87;"/>
   </g>
   <g id="patch_143">
    <path clip-path="url(#pebc2f4868c)" d="M 537.433935 112.847268 
L 540.224502 112.847268 
L 540.224502 111.871196 
L 537.433935 111.871196 
z
" style="fill:#6e3b87;"/>
   </g>
   <g id="patch_144">
    <path clip-path="url(#pebc2f4868c)" d="M 540.922144 112.847268 
L 543.712712 112.847268 
L 543.712712 111.97321 
L 540.922144 111.97321 
z
" style="fill:#6e3b87;"/>
   </g>
   <g id="patch_145">
    <path clip-path="url(#pebc2f4868c)" d="M 544.410353 112.847268 
L 547.200921 112.847268 
L 547.200921 112.115334 
L 544.410353 112.115334 
z
" style="fill:#6e3b87;"/>
   </g>
   <g id="patch_146">
    <path clip-path="url(#pebc2f4868c)" d="M 547.898563 112.847268 
L 550.68913 112.847268 
L 550.68913 112.322546 
L 547.898563 112.322546 
z
" style="fill:#6e3b87;"/>
   </g>
   <g id="patch_147">
    <path clip-path="url(#pebc2f4868c)" d="M 551.386772 112.847268 
L 554.177339 112.847268 
L 554.177339 112.643657 
L 551.386772 112.643657 
z
" style="fill:#6e3b87;"/>
   </g>
   <g id="patch_148">
    <path clip-path="url(#pebc2f4868c)" d="M 554.874981 112.847268 
L 557.665548 112.847268 
L 557.665548 113.186329 
L 554.874981 113.186329 
z
" style="fill:#6e3b87;"/>
   </g>
   <g id="patch_149">
    <path clip-path="url(#pebc2f4868c)" d="M 558.36319 112.847268 
L 561.153758 112.847268 
L 561.153758 114.234774 
L 558.36319 114.234774 
z
" style="fill:#6e3b87;"/>
   </g>
   <g id="patch_150">
    <path clip-path="url(#pebc2f4868c)" d="M 561.8514 112.847268 
L 564.641967 112.847268 
L 564.641967 116.803542 
L 561.8514 116.803542 
z
" style="fill:#6e3b87;"/>
   </g>
   <g id="patch_151">
    <path clip-path="url(#pebc2f4868c)" d="M 565.339609 112.847268 
L 568.130176 112.847268 
L 568.130176 127.953465 
L 565.339609 127.953465 
z
" style="fill:#6e3b87;"/>
   </g>
   <g id="patch_152">
    <path clip-path="url(#pebc2f4868c)" d="M 568.827818 112.847268 
L 571.618385 112.847268 
L 571.618385 31.383721 
L 568.827818 31.383721 
z
" style="fill:#6e3b87;"/>
   </g>
   <g id="patch_153">
    <path clip-path="url(#pebc2f4868c)" d="M 572.316027 112.847268 
L 575.106594 112.847268 
L 575.106594 33.703317 
L 572.316027 33.703317 
z
" style="fill:#6e3b87;"/>
   </g>
   <g id="text_14">
    <!-- $f_m \geq 0$ -->
    <g style="fill:#343837;" transform="translate(138.724791 91.318303)scale(0.14 -0.14)">
     <defs>
      <path d="M 28.59375 38.625 
C 29 40.515625 29.703125 42.8125 30.296875 44.203125 
L 29.90625 44.890625 
L 29.203125 44.703125 
C 26.796875 44.09375 25.703125 44 20.796875 44 
L 19.203125 44 
L 21.296875 55.15625 
C 22.90625 63.71875 25.703125 67.5 30.296875 67.5 
C 33.296875 67.5 36 66 37.5 63.609375 
L 38.5 64 
C 39 65.59375 40 68.703125 40.796875 70.703125 
L 41.296875 72.203125 
C 39.703125 72.90625 36.59375 73.5 34.296875 73.5 
C 33.203125 73.5 31.59375 73.203125 30.796875 72.8125 
C 28.40625 71.71875 20.203125 65.640625 17.90625 63.234375 
C 15.703125 61.046875 14.5 58.0625 13.40625 52.375 
L 11.90625 44.5 
C 7.796875 42.5 5.796875 41.703125 3.296875 40.8125 
L 2.796875 38.625 
L 10.90625 38.625 
L 10 33.046875 
C 7 13.625 3.296875 -4.890625 1.09375 -11.765625 
C -0.703125 -17.640625 -3.703125 -20.71875 -7.296875 -20.71875 
C -9.59375 -20.71875 -10.703125 -20.03125 -12.5 -17.828125 
L -13.90625 -18.21875 
C -14.296875 -20.515625 -15.703125 -25.3125 -16.203125 -26.203125 
C -15.296875 -26.703125 -13.796875 -27 -12.703125 -27 
C -8.59375 -27 -3.203125 -23.90625 0.703125 -19.234375 
C 6.796875 -12.0625 9 -5.09375 16.296875 29.859375 
C 16.59375 31.0625 17.40625 34.84375 18.203125 38.625 
z
" id="URW_Palladio_L_Italic-102"/>
      <path d="M 67.40625 32.5625 
C 68.796875 33.15625 69.40625 33.859375 69.40625 34.75 
C 69.40625 35.75 69 36.359375 67.40625 37.0625 
L 12.296875 63.0625 
C 10.90625 63.75 10.5 63.75 10.296875 63.75 
C 9.09375 63.75 8.296875 62.859375 8.296875 61.75 
C 8.296875 60.5625 9.09375 60.0625 10.203125 59.5625 
L 62.703125 34.859375 
L 10.40625 10.15625 
C 8.40625 9.25 8.296875 8.453125 8.296875 7.859375 
C 8.296875 6.75 9.203125 5.859375 10.296875 5.859375 
C 10.59375 5.859375 10.796875 5.859375 12.09375 6.5625 
z
M 65.90625 -13.921875 
C 67.59375 -13.921875 69.40625 -13.921875 69.40625 -11.921875 
C 69.40625 -9.921875 67.296875 -9.921875 65.796875 -9.921875 
L 11.90625 -9.921875 
C 10.40625 -9.921875 8.296875 -9.921875 8.296875 -11.921875 
C 8.296875 -13.921875 10.09375 -13.921875 11.796875 -13.921875 
z
" id="CMSY10-21"/>
     </defs>
     <use transform="scale(0.996264)" xlink:href="#URW_Palladio_L_Italic-102"/>
     <use transform="translate(32.37858 -14.943915)scale(0.757155)" xlink:href="#URW_Palladio_L_Italic-109"/>
     <use transform="translate(121.649117 0)scale(1.038107)" xlink:href="#CMSY10-21"/>
     <use transform="translate(231.264746 0)scale(0.996264)" xlink:href="#URW_Palladio_L_Roman-48"/>
    </g>
   </g>
   <g id="text_15">
    <!-- $f_m &lt; 0$ -->
    <g style="fill:#343837;" transform="translate(417.781527 91.318303)scale(0.14 -0.14)">
     <defs>
      <path d="M 67.5 49.34375 
C 68.703125 49.9375 69.40625 50.4375 69.40625 51.515625 
C 69.40625 52.609375 68.5 53.5 67.40625 53.5 
C 67.09375 53.5 66.90625 53.5 65.59375 52.8125 
L 10.203125 26.9375 
C 9.09375 26.4375 8.296875 25.9375 8.296875 24.75 
C 8.296875 23.5625 9.09375 23.0625 10.203125 22.5625 
L 65.59375 -3.296875 
C 66.90625 -4 67.09375 -4 67.40625 -4 
C 68.5 -4 69.40625 -3.09375 69.40625 -2.015625 
C 69.40625 -0.921875 68.703125 -0.421875 67.5 0.171875 
L 15 24.75 
z
" id="CMMI10-60"/>
     </defs>
     <use transform="scale(0.996264)" xlink:href="#URW_Palladio_L_Italic-102"/>
     <use transform="translate(32.37858 -14.943915)scale(0.757155)" xlink:href="#URW_Palladio_L_Italic-109"/>
     <use transform="translate(121.649117 0)scale(1.038107)" xlink:href="#CMMI10-60"/>
     <use transform="translate(231.264746 0)scale(0.996264)" xlink:href="#URW_Palladio_L_Roman-48"/>
    </g>
   </g>
   <g id="text_16">
    <!-- $m=N/2$ (Nyquist) -->
    <g style="fill:#007d4d;" transform="translate(251.87976 17.179529)scale(0.14 -0.14)">
     <defs>
      <path d="M 68.703125 32 
C 70.203125 32 72.09375 32 72.09375 34.015625 
C 72.09375 36.015625 70.203125 36.015625 68.796875 36.015625 
L 8.90625 36.015625 
C 7.5 36.015625 5.59375 36.015625 5.59375 34.015625 
C 5.59375 32 7.5 32 9 32 
z
M 68.796875 13 
C 70.203125 13 72.09375 13 72.09375 15.015625 
C 72.09375 17.015625 70.203125 17.015625 68.703125 17.015625 
L 9 17.015625 
C 7.5 17.015625 5.59375 17.015625 5.59375 15.015625 
C 5.59375 13 7.5 13 8.90625 13 
z
" id="CMR10-61"/>
      <path d="M 23.703125 68.78125 
L 15.59375 68.78125 
L 14.59375 68.78125 
L 13.203125 68.78125 
C 12.90625 68.78125 11.40625 68.78125 9.09375 68.78125 
L 7.5 68.78125 
L 7 66 
L 10.5 66 
C 12.203125 66 14.40625 65.296875 15.5 64.40625 
C 17 63.203125 18.5 61.3125 18.5 60.515625 
C 18.5 60.421875 18.5 60.125 18.40625 59.8125 
C 18.40625 59.71875 18.40625 59.515625 18.296875 59.328125 
C 18.203125 58.53125 18.09375 57.828125 18 57.53125 
L 9.203125 10.34375 
C 8 4.171875 7.40625 3.375 3.796875 2.96875 
L 0.703125 2.671875 
L 0.203125 -0.109375 
L 11.296875 -0.109375 
C 12.5 -0.109375 12.59375 -0.109375 22.296875 -0.109375 
L 22.796875 2.578125 
L 18.59375 2.875 
C 14.59375 3.1875 13.703125 3.984375 13.703125 7.265625 
C 13.703125 8.0625 13.796875 9.15625 14 10.25 
L 22 56.4375 
L 55.796875 -1 
L 60.796875 -1 
L 70.203125 54.046875 
C 72.296875 65.296875 72.5 65.703125 76.203125 66 
L 79.90625 66 
L 80.40625 68.78125 
L 78.296875 68.78125 
L 69.40625 68.78125 
L 60.796875 68.78125 
L 58.90625 68.78125 
L 58.40625 66 
L 63.09375 66 
C 65.703125 66 66.703125 65.265625 66.703125 63.609375 
C 66.703125 62.90625 66.40625 60.328125 66.203125 59.03125 
L 58.203125 10.34375 
z
" id="URW_Palladio_L_Italic-78"/>
      <path d="M 51.90625 72.5 
L 45.90625 72.5 
L 8.703125 -12 
L 14.703125 -12 
z
" id="URW_Palladio_L_Roman-47"/>
      <path d="M 30.09375 -19.4375 
C 22.90625 -10.515625 20.296875 -5.71875 17.703125 3.3125 
C 15.59375 10.515625 14.59375 18.140625 14.59375 26.65625 
C 14.59375 34.96875 15.59375 42.078125 17.5 48.59375 
C 20.09375 56.90625 22.796875 61.625 30.09375 70.140625 
L 28.203125 72.75 
C 17.796875 63.421875 13.703125 57.921875 9.90625 48.09375 
C 7.296875 41.375 6 34.265625 6 26.65625 
C 6 15.9375 8.5 5.8125 13.296875 -3.203125 
C 16.796875 -9.921875 20 -13.828125 28.203125 -21.546875 
z
" id="URW_Palladio_L_Roman-40"/>
      <path d="M 13.703125 69.109375 
C 8.09375 69.109375 7.203125 69.109375 1.703125 69.109375 
L 1.703125 66 
L 6.09375 66 
C 10.703125 66 11.203125 65.09375 11.203125 57.234375 
L 11.203125 11.96875 
C 11.203125 4.09375 10.703125 3.203125 6.09375 3.203125 
L 1.703125 3.203125 
L 1.703125 0 
C 11.59375 0 11.59375 0 13.296875 0 
C 14.796875 0 14.796875 0 25.296875 0 
L 25.296875 3.203125 
L 20.90625 3.203125 
C 16.296875 3.203125 15.796875 4.09375 15.796875 11.9375 
L 15.796875 58.40625 
L 63.09375 -0.203125 
L 72.09375 -1.796875 
C 72.09375 -1.40625 72.09375 -1.296875 72 -0.59375 
C 71.90625 0.5 71.796875 1.3125 71.796875 1.90625 
L 71.796875 57.265625 
C 71.796875 65.09375 72.296875 66 76.90625 66 
L 81.296875 66 
L 81.296875 69.109375 
C 70.796875 69.109375 70.796875 69.109375 69.296875 69.109375 
C 67.59375 69.109375 67.59375 69.109375 57.703125 69.109375 
L 57.703125 66 
L 62.09375 66 
C 66.703125 66 67.203125 65.09375 67.203125 57.265625 
L 67.203125 9.984375 
L 19.09375 69.109375 
z
" id="URW_Palladio_L_Roman-78"/>
      <path d="M 5.09375 -21.546875 
C 12 -15.03125 14.90625 -11.71875 18 -6.8125 
C 24.09375 2.90625 27.296875 14.53125 27.296875 26.546875 
C 27.296875 34.265625 26 41.375 23.40625 48.09375 
C 19.59375 57.8125 15.5 63.328125 5.09375 72.75 
L 3.203125 70.140625 
C 10.5 61.515625 13.203125 56.8125 15.703125 48.59375 
C 17.703125 42.078125 18.703125 34.96875 18.703125 26.65625 
C 18.703125 18.140625 17.703125 10.515625 15.59375 3.3125 
C 13 -5.71875 10.40625 -10.515625 3.203125 -19.4375 
z
" id="URW_Palladio_L_Roman-41"/>
     </defs>
     <use transform="scale(0.996264)" xlink:href="#URW_Palladio_L_Italic-109"/>
     <use transform="translate(107.673966 0)scale(1.038107)" xlink:href="#CMR10-61"/>
     <use transform="translate(222.021804 0)scale(0.996264)" xlink:href="#URW_Palladio_L_Italic-78"/>
     <use transform="translate(305.110262 0)scale(0.996264)" xlink:href="#URW_Palladio_L_Roman-47"/>
     <use transform="translate(366.729166 0)scale(0.996264)" xlink:href="#URW_Palladio_L_Roman-50"/>
     <use transform="translate(441.448967 0)scale(0.996264)" xlink:href="#URW_Palladio_L_Roman-40"/>
     <use transform="translate(474.624197 0)scale(0.996264)" xlink:href="#URW_Palladio_L_Roman-78"/>
     <use transform="translate(557.413104 0)scale(0.996264)" xlink:href="#URW_Palladio_L_Roman-121"/>
     <use transform="translate(612.804781 0)scale(0.996264)" xlink:href="#URW_Palladio_L_Roman-113"/>
     <use transform="translate(668.595413 0)scale(0.996264)" xlink:href="#URW_Palladio_L_Roman-117"/>
     <use transform="translate(728.669148 0)scale(0.996264)" xlink:href="#URW_Palladio_L_Roman-105"/>
     <use transform="translate(757.659509 0)scale(0.996264)" xlink:href="#URW_Palladio_L_Roman-115"/>
     <use transform="translate(799.900976 0)scale(0.996264)" xlink:href="#URW_Palladio_L_Roman-116"/>
     <use transform="translate(832.378063 0)scale(0.996264)" xlink:href="#URW_Palladio_L_Roman-41"/>
    </g>
   </g>
  </g>
 </g>
 <defs>
  <clipPath id="pebc2f4868c">
   <rect height="121.54236" width="524.626664" x="52.572856" y="25.859068"/>
  </clipPath>
 </defs>
</svg>
