<?xml version="1.0" encoding="utf-8" standalone="no"?>
<!DOCTYPE svg PUBLIC "-//W3C//DTD SVG 1.1//EN"
  "http://www.w3.org/Graphics/SVG/1.1/DTD/svg11.dtd">
<svg height="296.405328pt" version="1.1" viewBox="0 0 584.39952 296.405328" width="584.39952pt" xmlns="http://www.w3.org/2000/svg" xmlns:xlink="http://www.w3.org/1999/xlink">
 <metadata>
  <rdf:RDF xmlns:cc="http://creativecommons.org/ns#" xmlns:dc="http://purl.org/dc/elements/1.1/" xmlns:rdf="http://www.w3.org/1999/02/22-rdf-syntax-ns#">
   <cc:Work>
    <dc:type rdf:resource="http://purl.org/dc/dcmitype/StillImage"/>
    <dc:date>2020-07-15T07:49:48.888834</dc:date>
    <dc:format>image/svg+xml</dc:format>
    <dc:creator>
     <cc:Agent>
      <dc:title>Matplotlib v3.3.0rc1.post282+g187e87b5f, https://matplotlib.org/</dc:title>
     </cc:Agent>
    </dc:creator>
   </cc:Work>
  </rdf:RDF>
 </metadata>
 <defs>
  <style type="text/css">*{stroke-linecap:butt;stroke-linejoin:round;}</style>
 </defs>
 <g id="figure_1">
  <g id="patch_1">
   <path d="M 0 296.405328 
L 584.39952 296.405328 
L 584.39952 0 
L 0 0 
z
" style="fill:none;"/>
  </g>
  <g id="axes_1">
   <g id="patch_2">
    <path d="M 41.145691 55.655359 
L 577.19952 55.655359 
L 577.19952 10.119974 
L 41.145691 10.119974 
z
" style="fill:none;"/>
   </g>
   <g id="matplotlib.axis_1">
    <g id="xtick_1">
     <g id="line2d_1">
      <path clip-path="url(#p836bff705d)" d="M 41.145691 55.655359 
L 41.145691 10.119974 
" style="fill:none;stroke:#000000;stroke-linecap:square;stroke-opacity:0.2;stroke-width:0.5;"/>
     </g>
     <g id="line2d_2">
      <defs>
       <path d="M 0 0 
L 0 3.5 
" id="m9bc50fd667" style="stroke:#000000;stroke-opacity:0.2;stroke-width:0.8;"/>
      </defs>
      <g>
       <use style="fill-opacity:0.2;stroke:#000000;stroke-opacity:0.2;stroke-width:0.8;" x="41.145691" xlink:href="#m9bc50fd667" y="55.655359"/>
      </g>
     </g>
    </g>
    <g id="xtick_2">
     <g id="line2d_3">
      <path clip-path="url(#p836bff705d)" d="M 115.08415 55.655359 
L 115.08415 10.119974 
" style="fill:none;stroke:#000000;stroke-linecap:square;stroke-opacity:0.2;stroke-width:0.5;"/>
     </g>
     <g id="line2d_4">
      <g>
       <use style="fill-opacity:0.2;stroke:#000000;stroke-opacity:0.2;stroke-width:0.8;" x="115.08415" xlink:href="#m9bc50fd667" y="55.655359"/>
      </g>
     </g>
    </g>
    <g id="xtick_3">
     <g id="line2d_5">
      <path clip-path="url(#p836bff705d)" d="M 189.022609 55.655359 
L 189.022609 10.119974 
" style="fill:none;stroke:#000000;stroke-linecap:square;stroke-opacity:0.2;stroke-width:0.5;"/>
     </g>
     <g id="line2d_6">
      <g>
       <use style="fill-opacity:0.2;stroke:#000000;stroke-opacity:0.2;stroke-width:0.8;" x="189.022609" xlink:href="#m9bc50fd667" y="55.655359"/>
      </g>
     </g>
    </g>
    <g id="xtick_4">
     <g id="line2d_7">
      <path clip-path="url(#p836bff705d)" d="M 262.961068 55.655359 
L 262.961068 10.119974 
" style="fill:none;stroke:#000000;stroke-linecap:square;stroke-opacity:0.2;stroke-width:0.5;"/>
     </g>
     <g id="line2d_8">
      <g>
       <use style="fill-opacity:0.2;stroke:#000000;stroke-opacity:0.2;stroke-width:0.8;" x="262.961068" xlink:href="#m9bc50fd667" y="55.655359"/>
      </g>
     </g>
    </g>
    <g id="xtick_5">
     <g id="line2d_9">
      <path clip-path="url(#p836bff705d)" d="M 336.899528 55.655359 
L 336.899528 10.119974 
" style="fill:none;stroke:#000000;stroke-linecap:square;stroke-opacity:0.2;stroke-width:0.5;"/>
     </g>
     <g id="line2d_10">
      <g>
       <use style="fill-opacity:0.2;stroke:#000000;stroke-opacity:0.2;stroke-width:0.8;" x="336.899528" xlink:href="#m9bc50fd667" y="55.655359"/>
      </g>
     </g>
    </g>
    <g id="xtick_6">
     <g id="line2d_11">
      <path clip-path="url(#p836bff705d)" d="M 410.837987 55.655359 
L 410.837987 10.119974 
" style="fill:none;stroke:#000000;stroke-linecap:square;stroke-opacity:0.2;stroke-width:0.5;"/>
     </g>
     <g id="line2d_12">
      <g>
       <use style="fill-opacity:0.2;stroke:#000000;stroke-opacity:0.2;stroke-width:0.8;" x="410.837987" xlink:href="#m9bc50fd667" y="55.655359"/>
      </g>
     </g>
    </g>
    <g id="xtick_7">
     <g id="line2d_13">
      <path clip-path="url(#p836bff705d)" d="M 484.776446 55.655359 
L 484.776446 10.119974 
" style="fill:none;stroke:#000000;stroke-linecap:square;stroke-opacity:0.2;stroke-width:0.5;"/>
     </g>
     <g id="line2d_14">
      <g>
       <use style="fill-opacity:0.2;stroke:#000000;stroke-opacity:0.2;stroke-width:0.8;" x="484.776446" xlink:href="#m9bc50fd667" y="55.655359"/>
      </g>
     </g>
    </g>
    <g id="xtick_8">
     <g id="line2d_15">
      <path clip-path="url(#p836bff705d)" d="M 558.714905 55.655359 
L 558.714905 10.119974 
" style="fill:none;stroke:#000000;stroke-linecap:square;stroke-opacity:0.2;stroke-width:0.5;"/>
     </g>
     <g id="line2d_16">
      <g>
       <use style="fill-opacity:0.2;stroke:#000000;stroke-opacity:0.2;stroke-width:0.8;" x="558.714905" xlink:href="#m9bc50fd667" y="55.655359"/>
      </g>
     </g>
    </g>
   </g>
   <g id="matplotlib.axis_2">
    <g id="ytick_1">
     <g id="line2d_17">
      <path clip-path="url(#p836bff705d)" d="M 41.145691 53.585569 
L 577.19952 53.585569 
" style="fill:none;stroke:#000000;stroke-linecap:square;stroke-opacity:0.2;stroke-width:0.5;"/>
     </g>
     <g id="line2d_18">
      <defs>
       <path d="M 0 0 
L -3.5 0 
" id="m15ccd009f3" style="stroke:#000000;stroke-opacity:0.2;stroke-width:0.8;"/>
      </defs>
      <g>
       <use style="fill-opacity:0.2;stroke:#000000;stroke-opacity:0.2;stroke-width:0.8;" x="41.145691" xlink:href="#m15ccd009f3" y="53.585569"/>
      </g>
     </g>
     <g id="text_1">
      <!-- $\mathdefault{−1}$ -->
      <g transform="translate(7.2 58.575333)scale(0.14 -0.14)">
       <defs>
        <path d="M 65.90625 23 
C 67.59375 23 69.40625 23 69.40625 25 
C 69.40625 27 67.59375 27 65.90625 27 
L 11.796875 27 
C 10.09375 27 8.296875 27 8.296875 25 
C 8.296875 23 10.09375 23 11.796875 23 
z
" id="CMSY10-0"/>
        <path d="M 6.703125 56 
L 7.703125 56 
L 20.59375 61.8125 
C 20.703125 61.90625 20.796875 61.90625 20.90625 61.90625 
C 21.5 61.90625 21.703125 61.015625 21.703125 58.609375 
L 21.703125 9.578125 
C 21.703125 4.3125 20.59375 3.203125 15.203125 3.203125 
L 9.59375 3.203125 
L 9.59375 0 
C 25 0 25 0 26.09375 0 
C 27.40625 0 29.59375 0 33 0 
C 34.203125 0 37.703125 0 41.796875 0 
L 41.796875 3.203125 
L 36.59375 3.203125 
C 31.09375 3.203125 30.09375 4.3125 30.09375 9.5625 
L 30.09375 69.421875 
L 28.703125 69.921875 
C 22.203125 66.515625 15.09375 63.515625 6 60.3125 
z
" id="URW_Palladio_L_Roman-49"/>
       </defs>
       <use transform="scale(1.038107)" xlink:href="#CMSY10-0"/>
       <use transform="translate(81.941696 0)scale(0.996264)" xlink:href="#URW_Palladio_L_Roman-49"/>
      </g>
     </g>
    </g>
    <g id="ytick_2">
     <g id="line2d_19">
      <path clip-path="url(#p836bff705d)" d="M 41.145691 32.887667 
L 577.19952 32.887667 
" style="fill:none;stroke:#000000;stroke-linecap:square;stroke-opacity:0.2;stroke-width:0.5;"/>
     </g>
     <g id="line2d_20">
      <g>
       <use style="fill-opacity:0.2;stroke:#000000;stroke-opacity:0.2;stroke-width:0.8;" x="41.145691" xlink:href="#m15ccd009f3" y="32.887667"/>
      </g>
     </g>
     <g id="text_2">
      <!-- $\mathdefault{0}$ -->
      <g transform="translate(18.671843 37.877431)scale(0.14 -0.14)">
       <defs>
        <path d="M 26.296875 69 
C 10.796875 69 2.90625 56.6875 2.90625 32.453125 
C 2.90625 20.71875 5 10.625 8.5 5.71875 
C 12 0.796875 17.59375 -2 23.796875 -2 
C 38.90625 -2 46.5 11.015625 46.5 36.65625 
C 46.5 58.578125 40 69 26.296875 69 
z
M 24.5 65.5 
C 34.203125 65.5 38.09375 55.6875 38.09375 31.640625 
C 38.09375 10.328125 34.296875 1.5 25.09375 1.5 
C 15.40625 1.5 11.296875 11.625 11.296875 36.0625 
C 11.296875 57.1875 15 65.5 24.5 65.5 
z
" id="URW_Palladio_L_Roman-48"/>
       </defs>
       <use transform="scale(0.996264)" xlink:href="#URW_Palladio_L_Roman-48"/>
      </g>
     </g>
    </g>
    <g id="ytick_3">
     <g id="line2d_21">
      <path clip-path="url(#p836bff705d)" d="M 41.145691 12.189765 
L 577.19952 12.189765 
" style="fill:none;stroke:#000000;stroke-linecap:square;stroke-opacity:0.2;stroke-width:0.5;"/>
     </g>
     <g id="line2d_22">
      <g>
       <use style="fill-opacity:0.2;stroke:#000000;stroke-opacity:0.2;stroke-width:0.8;" x="41.145691" xlink:href="#m15ccd009f3" y="12.189765"/>
      </g>
     </g>
     <g id="text_3">
      <!-- $\mathdefault{1}$ -->
      <g transform="translate(18.671843 17.179529)scale(0.14 -0.14)">
       <use transform="scale(0.996264)" xlink:href="#URW_Palladio_L_Roman-49"/>
      </g>
     </g>
    </g>
   </g>
   <g id="line2d_23">
    <defs>
     <path d="M 0 4 
C 1.060812 4 2.078319 3.578535 2.828427 2.828427 
C 3.578535 2.078319 4 1.060812 4 0 
C 4 -1.060812 3.578535 -2.078319 2.828427 -2.828427 
C 2.078319 -3.578535 1.060812 -4 0 -4 
C -1.060812 -4 -2.078319 -3.578535 -2.828427 -2.828427 
C -3.578535 -2.078319 -4 -1.060812 -4 0 
C -4 1.060812 -3.578535 2.078319 -2.828427 2.828427 
C -2.078319 3.578535 -1.060812 4 0 4 
z
" id="md08244dfba"/>
    </defs>
    <g clip-path="url(#p836bff705d)">
     <use style="fill:#dc2830;" x="41.145691" xlink:href="#md08244dfba" y="12.189765"/>
     <use style="fill:#dc2830;" x="59.630306" xlink:href="#md08244dfba" y="12.189765"/>
     <use style="fill:#dc2830;" x="78.11492" xlink:href="#md08244dfba" y="12.189765"/>
     <use style="fill:#dc2830;" x="96.599535" xlink:href="#md08244dfba" y="12.189765"/>
     <use style="fill:#dc2830;" x="115.08415" xlink:href="#md08244dfba" y="12.189765"/>
     <use style="fill:#dc2830;" x="133.568765" xlink:href="#md08244dfba" y="12.189765"/>
     <use style="fill:#dc2830;" x="152.05338" xlink:href="#md08244dfba" y="12.189765"/>
     <use style="fill:#dc2830;" x="170.537994" xlink:href="#md08244dfba" y="12.189765"/>
     <use style="fill:#dc2830;" x="189.022609" xlink:href="#md08244dfba" y="12.189765"/>
     <use style="fill:#dc2830;" x="207.507224" xlink:href="#md08244dfba" y="12.189765"/>
     <use style="fill:#dc2830;" x="225.991839" xlink:href="#md08244dfba" y="12.189765"/>
     <use style="fill:#dc2830;" x="244.476454" xlink:href="#md08244dfba" y="12.189765"/>
     <use style="fill:#dc2830;" x="262.961068" xlink:href="#md08244dfba" y="12.189765"/>
     <use style="fill:#dc2830;" x="281.445683" xlink:href="#md08244dfba" y="12.189765"/>
     <use style="fill:#dc2830;" x="299.930298" xlink:href="#md08244dfba" y="12.189765"/>
     <use style="fill:#dc2830;" x="318.414913" xlink:href="#md08244dfba" y="12.189765"/>
     <use style="fill:#dc2830;" x="336.899528" xlink:href="#md08244dfba" y="12.189765"/>
     <use style="fill:#dc2830;" x="355.384142" xlink:href="#md08244dfba" y="12.189765"/>
     <use style="fill:#dc2830;" x="373.868757" xlink:href="#md08244dfba" y="12.189765"/>
     <use style="fill:#dc2830;" x="392.353372" xlink:href="#md08244dfba" y="12.189765"/>
     <use style="fill:#dc2830;" x="410.837987" xlink:href="#md08244dfba" y="12.189765"/>
     <use style="fill:#dc2830;" x="429.322602" xlink:href="#md08244dfba" y="12.189765"/>
     <use style="fill:#dc2830;" x="447.807216" xlink:href="#md08244dfba" y="12.189765"/>
     <use style="fill:#dc2830;" x="466.291831" xlink:href="#md08244dfba" y="12.189765"/>
     <use style="fill:#dc2830;" x="484.776446" xlink:href="#md08244dfba" y="12.189765"/>
     <use style="fill:#dc2830;" x="503.261061" xlink:href="#md08244dfba" y="12.189765"/>
     <use style="fill:#dc2830;" x="521.745676" xlink:href="#md08244dfba" y="12.189765"/>
     <use style="fill:#dc2830;" x="540.23029" xlink:href="#md08244dfba" y="12.189765"/>
     <use style="fill:#dc2830;" x="558.714905" xlink:href="#md08244dfba" y="12.189765"/>
     <use style="fill:#dc2830;" x="577.19952" xlink:href="#md08244dfba" y="12.189765"/>
    </g>
   </g>
   <g id="legend_1">
    <g id="patch_3">
     <path d="M 499.205172 48.655359 
L 567.39952 48.655359 
Q 570.19952 48.655359 570.19952 45.855359 
L 570.19952 25.684374 
Q 570.19952 22.884374 567.39952 22.884374 
L 499.205172 22.884374 
Q 496.405172 22.884374 496.405172 25.684374 
L 496.405172 45.855359 
Q 496.405172 48.655359 499.205172 48.655359 
z
" style="fill:#ffffff;opacity:0.95;stroke:#cccccc;stroke-linejoin:miter;stroke-width:0.5;"/>
    </g>
    <g id="line2d_24"/>
    <g id="line2d_25">
     <g>
      <use style="fill:#dc2830;" x="509.005172" xlink:href="#md08244dfba" y="34.222187"/>
     </g>
    </g>
    <g id="text_4">
     <!-- $m=0$ -->
     <g transform="translate(527.205172 39.122187)scale(0.14 -0.14)">
      <defs>
       <path d="M 73 10.15625 
L 70.40625 8.46875 
C 67.5 6.578125 65.296875 5.484375 64.296875 5.484375 
C 63.59375 5.484375 63 6.375 63 7.46875 
C 63 8.46875 63.203125 9.375 63.703125 11.46875 
L 71.203125 41.109375 
C 71.59375 42.796875 71.90625 44.390625 71.90625 45.203125 
C 71.90625 46.90625 70.90625 48 69.296875 48 
C 66.40625 48 62.59375 46.203125 56.5 41.90625 
C 50.203125 37.40625 46.703125 33.921875 41.796875 27.03125 
L 44.796875 40.71875 
C 45.203125 42.703125 45.5 44.203125 45.5 44.90625 
C 45.5 46.796875 44.5 48 42.90625 48 
C 39.90625 48 35.296875 45.8125 29.796875 41.609375 
C 25.40625 38.203125 23.40625 36.109375 16.90625 27.328125 
L 20.203125 40.609375 
C 20.59375 42.203125 20.796875 43.703125 20.796875 44.890625 
C 20.796875 46.796875 19.90625 48 18.5 48 
C 16.40625 48 12.59375 45.90625 5.203125 40.59375 
L 2.40625 38.609375 
L 3.09375 36.609375 
L 6.296875 38.703125 
C 10 41.015625 10.296875 41.203125 11 41.203125 
C 12.09375 41.203125 12.796875 40.21875 12.796875 38.71875 
C 12.796875 33.625 8.703125 14.359375 4.59375 0.09375 
L 4.90625 -1 
L 11.703125 0.484375 
L 13.90625 10.671875 
C 16.296875 21.75 19 27.640625 24.5 33.625 
C 28.703125 38.21875 33.203125 41.203125 36 41.203125 
C 36.703125 41.203125 37.09375 40.40625 37.09375 39.125 
C 37.09375 35.625 34.90625 24.25 30.796875 6.78125 
L 29.203125 0.09375 
L 29.703125 -1 
L 36.59375 0.484375 
L 38.703125 11.171875 
C 40.296875 19.25 43.703125 26.734375 48.09375 31.640625 
C 53.59375 37.71875 58.59375 41.203125 61.796875 41.203125 
C 62.59375 41.203125 63.09375 40.3125 63.09375 38.71875 
C 63.09375 36.3125 62.796875 34.921875 60.59375 26.234375 
C 59 19.953125 57.296875 13.96875 56.296875 10.578125 
C 55.40625 7.765625 55 5.1875 55 3 
C 55 0.484375 56.09375 -1 58 -1 
C 60.59375 -1 64.203125 1.078125 74 8.375 
z
" id="URW_Palladio_L_Italic-109"/>
       <path d="M 68.703125 32 
C 70.203125 32 72.09375 32 72.09375 34.015625 
C 72.09375 36.015625 70.203125 36.015625 68.796875 36.015625 
L 8.90625 36.015625 
C 7.5 36.015625 5.59375 36.015625 5.59375 34.015625 
C 5.59375 32 7.5 32 9 32 
z
M 68.796875 13 
C 70.203125 13 72.09375 13 72.09375 15.015625 
C 72.09375 17.015625 70.203125 17.015625 68.703125 17.015625 
L 9 17.015625 
C 7.5 17.015625 5.59375 17.015625 5.59375 15.015625 
C 5.59375 13 7.5 13 8.90625 13 
z
" id="CMR10-61"/>
      </defs>
      <use transform="scale(0.996264)" xlink:href="#URW_Palladio_L_Italic-109"/>
      <use transform="translate(107.673966 0)scale(1.038107)" xlink:href="#CMR10-61"/>
      <use transform="translate(217.289595 0)scale(0.996264)" xlink:href="#URW_Palladio_L_Roman-48"/>
     </g>
    </g>
   </g>
  </g>
  <g id="axes_2">
   <g id="patch_4">
    <path d="M 41.145691 118.392728 
L 577.19952 118.392728 
L 577.19952 72.857344 
L 41.145691 72.857344 
z
" style="fill:none;"/>
   </g>
   <g id="matplotlib.axis_3">
    <g id="xtick_9">
     <g id="line2d_26">
      <path clip-path="url(#pb121b6fd38)" d="M 41.145691 118.392728 
L 41.145691 72.857344 
" style="fill:none;stroke:#000000;stroke-linecap:square;stroke-opacity:0.2;stroke-width:0.5;"/>
     </g>
     <g id="line2d_27">
      <g>
       <use style="fill-opacity:0.2;stroke:#000000;stroke-opacity:0.2;stroke-width:0.8;" x="41.145691" xlink:href="#m9bc50fd667" y="118.392728"/>
      </g>
     </g>
    </g>
    <g id="xtick_10">
     <g id="line2d_28">
      <path clip-path="url(#pb121b6fd38)" d="M 115.08415 118.392728 
L 115.08415 72.857344 
" style="fill:none;stroke:#000000;stroke-linecap:square;stroke-opacity:0.2;stroke-width:0.5;"/>
     </g>
     <g id="line2d_29">
      <g>
       <use style="fill-opacity:0.2;stroke:#000000;stroke-opacity:0.2;stroke-width:0.8;" x="115.08415" xlink:href="#m9bc50fd667" y="118.392728"/>
      </g>
     </g>
    </g>
    <g id="xtick_11">
     <g id="line2d_30">
      <path clip-path="url(#pb121b6fd38)" d="M 189.022609 118.392728 
L 189.022609 72.857344 
" style="fill:none;stroke:#000000;stroke-linecap:square;stroke-opacity:0.2;stroke-width:0.5;"/>
     </g>
     <g id="line2d_31">
      <g>
       <use style="fill-opacity:0.2;stroke:#000000;stroke-opacity:0.2;stroke-width:0.8;" x="189.022609" xlink:href="#m9bc50fd667" y="118.392728"/>
      </g>
     </g>
    </g>
    <g id="xtick_12">
     <g id="line2d_32">
      <path clip-path="url(#pb121b6fd38)" d="M 262.961068 118.392728 
L 262.961068 72.857344 
" style="fill:none;stroke:#000000;stroke-linecap:square;stroke-opacity:0.2;stroke-width:0.5;"/>
     </g>
     <g id="line2d_33">
      <g>
       <use style="fill-opacity:0.2;stroke:#000000;stroke-opacity:0.2;stroke-width:0.8;" x="262.961068" xlink:href="#m9bc50fd667" y="118.392728"/>
      </g>
     </g>
    </g>
    <g id="xtick_13">
     <g id="line2d_34">
      <path clip-path="url(#pb121b6fd38)" d="M 336.899528 118.392728 
L 336.899528 72.857344 
" style="fill:none;stroke:#000000;stroke-linecap:square;stroke-opacity:0.2;stroke-width:0.5;"/>
     </g>
     <g id="line2d_35">
      <g>
       <use style="fill-opacity:0.2;stroke:#000000;stroke-opacity:0.2;stroke-width:0.8;" x="336.899528" xlink:href="#m9bc50fd667" y="118.392728"/>
      </g>
     </g>
    </g>
    <g id="xtick_14">
     <g id="line2d_36">
      <path clip-path="url(#pb121b6fd38)" d="M 410.837987 118.392728 
L 410.837987 72.857344 
" style="fill:none;stroke:#000000;stroke-linecap:square;stroke-opacity:0.2;stroke-width:0.5;"/>
     </g>
     <g id="line2d_37">
      <g>
       <use style="fill-opacity:0.2;stroke:#000000;stroke-opacity:0.2;stroke-width:0.8;" x="410.837987" xlink:href="#m9bc50fd667" y="118.392728"/>
      </g>
     </g>
    </g>
    <g id="xtick_15">
     <g id="line2d_38">
      <path clip-path="url(#pb121b6fd38)" d="M 484.776446 118.392728 
L 484.776446 72.857344 
" style="fill:none;stroke:#000000;stroke-linecap:square;stroke-opacity:0.2;stroke-width:0.5;"/>
     </g>
     <g id="line2d_39">
      <g>
       <use style="fill-opacity:0.2;stroke:#000000;stroke-opacity:0.2;stroke-width:0.8;" x="484.776446" xlink:href="#m9bc50fd667" y="118.392728"/>
      </g>
     </g>
    </g>
    <g id="xtick_16">
     <g id="line2d_40">
      <path clip-path="url(#pb121b6fd38)" d="M 558.714905 118.392728 
L 558.714905 72.857344 
" style="fill:none;stroke:#000000;stroke-linecap:square;stroke-opacity:0.2;stroke-width:0.5;"/>
     </g>
     <g id="line2d_41">
      <g>
       <use style="fill-opacity:0.2;stroke:#000000;stroke-opacity:0.2;stroke-width:0.8;" x="558.714905" xlink:href="#m9bc50fd667" y="118.392728"/>
      </g>
     </g>
    </g>
   </g>
   <g id="matplotlib.axis_4">
    <g id="ytick_4">
     <g id="line2d_42">
      <path clip-path="url(#pb121b6fd38)" d="M 41.145691 116.322938 
L 577.19952 116.322938 
" style="fill:none;stroke:#000000;stroke-linecap:square;stroke-opacity:0.2;stroke-width:0.5;"/>
     </g>
     <g id="line2d_43">
      <g>
       <use style="fill-opacity:0.2;stroke:#000000;stroke-opacity:0.2;stroke-width:0.8;" x="41.145691" xlink:href="#m15ccd009f3" y="116.322938"/>
      </g>
     </g>
     <g id="text_5">
      <!-- $\mathdefault{−1}$ -->
      <g transform="translate(7.2 121.312703)scale(0.14 -0.14)">
       <use transform="scale(1.038107)" xlink:href="#CMSY10-0"/>
       <use transform="translate(81.941696 0)scale(0.996264)" xlink:href="#URW_Palladio_L_Roman-49"/>
      </g>
     </g>
    </g>
    <g id="ytick_5">
     <g id="line2d_44">
      <path clip-path="url(#pb121b6fd38)" d="M 41.145691 95.625036 
L 577.19952 95.625036 
" style="fill:none;stroke:#000000;stroke-linecap:square;stroke-opacity:0.2;stroke-width:0.5;"/>
     </g>
     <g id="line2d_45">
      <g>
       <use style="fill-opacity:0.2;stroke:#000000;stroke-opacity:0.2;stroke-width:0.8;" x="41.145691" xlink:href="#m15ccd009f3" y="95.625036"/>
      </g>
     </g>
     <g id="text_6">
      <!-- $\mathdefault{0}$ -->
      <g transform="translate(18.671843 100.614801)scale(0.14 -0.14)">
       <use transform="scale(0.996264)" xlink:href="#URW_Palladio_L_Roman-48"/>
      </g>
     </g>
    </g>
    <g id="ytick_6">
     <g id="line2d_46">
      <path clip-path="url(#pb121b6fd38)" d="M 41.145691 74.927134 
L 577.19952 74.927134 
" style="fill:none;stroke:#000000;stroke-linecap:square;stroke-opacity:0.2;stroke-width:0.5;"/>
     </g>
     <g id="line2d_47">
      <g>
       <use style="fill-opacity:0.2;stroke:#000000;stroke-opacity:0.2;stroke-width:0.8;" x="41.145691" xlink:href="#m15ccd009f3" y="74.927134"/>
      </g>
     </g>
     <g id="text_7">
      <!-- $\mathdefault{1}$ -->
      <g transform="translate(18.671843 79.916899)scale(0.14 -0.14)">
       <use transform="scale(0.996264)" xlink:href="#URW_Palladio_L_Roman-49"/>
      </g>
     </g>
    </g>
   </g>
   <g id="line2d_48">
    <g clip-path="url(#pb121b6fd38)">
     <use style="fill:#dc2830;" x="41.145691" xlink:href="#md08244dfba" y="74.927134"/>
     <use style="fill:#dc2830;" x="59.630306" xlink:href="#md08244dfba" y="75.379433"/>
     <use style="fill:#dc2830;" x="78.11492" xlink:href="#md08244dfba" y="76.716562"/>
     <use style="fill:#dc2830;" x="96.599535" xlink:href="#md08244dfba" y="78.880081"/>
     <use style="fill:#dc2830;" x="115.08415" xlink:href="#md08244dfba" y="81.775436"/>
     <use style="fill:#dc2830;" x="133.568765" xlink:href="#md08244dfba" y="85.276085"/>
     <use style="fill:#dc2830;" x="152.05338" xlink:href="#md08244dfba" y="89.229033"/>
     <use style="fill:#dc2830;" x="170.537994" xlink:href="#md08244dfba" y="93.461516"/>
     <use style="fill:#dc2830;" x="189.022609" xlink:href="#md08244dfba" y="97.788556"/>
     <use style="fill:#dc2830;" x="207.507224" xlink:href="#md08244dfba" y="102.021039"/>
     <use style="fill:#dc2830;" x="225.991839" xlink:href="#md08244dfba" y="105.973987"/>
     <use style="fill:#dc2830;" x="244.476454" xlink:href="#md08244dfba" y="109.474636"/>
     <use style="fill:#dc2830;" x="262.961068" xlink:href="#md08244dfba" y="112.369991"/>
     <use style="fill:#dc2830;" x="281.445683" xlink:href="#md08244dfba" y="114.53351"/>
     <use style="fill:#dc2830;" x="299.930298" xlink:href="#md08244dfba" y="115.870639"/>
     <use style="fill:#dc2830;" x="318.414913" xlink:href="#md08244dfba" y="116.322938"/>
     <use style="fill:#dc2830;" x="336.899528" xlink:href="#md08244dfba" y="115.870639"/>
     <use style="fill:#dc2830;" x="355.384142" xlink:href="#md08244dfba" y="114.53351"/>
     <use style="fill:#dc2830;" x="373.868757" xlink:href="#md08244dfba" y="112.369991"/>
     <use style="fill:#dc2830;" x="392.353372" xlink:href="#md08244dfba" y="109.474636"/>
     <use style="fill:#dc2830;" x="410.837987" xlink:href="#md08244dfba" y="105.973987"/>
     <use style="fill:#dc2830;" x="429.322602" xlink:href="#md08244dfba" y="102.021039"/>
     <use style="fill:#dc2830;" x="447.807216" xlink:href="#md08244dfba" y="97.788556"/>
     <use style="fill:#dc2830;" x="466.291831" xlink:href="#md08244dfba" y="93.461516"/>
     <use style="fill:#dc2830;" x="484.776446" xlink:href="#md08244dfba" y="89.229033"/>
     <use style="fill:#dc2830;" x="503.261061" xlink:href="#md08244dfba" y="85.276085"/>
     <use style="fill:#dc2830;" x="521.745676" xlink:href="#md08244dfba" y="81.775436"/>
     <use style="fill:#dc2830;" x="540.23029" xlink:href="#md08244dfba" y="78.880081"/>
     <use style="fill:#dc2830;" x="558.714905" xlink:href="#md08244dfba" y="76.716562"/>
     <use style="fill:#dc2830;" x="577.19952" xlink:href="#md08244dfba" y="75.379433"/>
    </g>
   </g>
   <g id="legend_2">
    <g id="patch_5">
     <path d="M 499.205172 111.392728 
L 567.39952 111.392728 
Q 570.19952 111.392728 570.19952 108.592728 
L 570.19952 88.421743 
Q 570.19952 85.621743 567.39952 85.621743 
L 499.205172 85.621743 
Q 496.405172 85.621743 496.405172 88.421743 
L 496.405172 108.592728 
Q 496.405172 111.392728 499.205172 111.392728 
z
" style="fill:#ffffff;opacity:0.95;stroke:#cccccc;stroke-linejoin:miter;stroke-width:0.5;"/>
    </g>
    <g id="line2d_49"/>
    <g id="line2d_50">
     <g>
      <use style="fill:#dc2830;" x="509.005172" xlink:href="#md08244dfba" y="96.959556"/>
     </g>
    </g>
    <g id="text_8">
     <!-- $m=1$ -->
     <g transform="translate(527.205172 101.859556)scale(0.14 -0.14)">
      <use transform="scale(0.996264)" xlink:href="#URW_Palladio_L_Italic-109"/>
      <use transform="translate(107.673966 0)scale(1.038107)" xlink:href="#CMR10-61"/>
      <use transform="translate(217.289595 0)scale(0.996264)" xlink:href="#URW_Palladio_L_Roman-49"/>
     </g>
    </g>
   </g>
  </g>
  <g id="axes_3">
   <g id="patch_6">
    <path d="M 41.145691 181.130098 
L 577.19952 181.130098 
L 577.19952 135.594713 
L 41.145691 135.594713 
z
" style="fill:none;"/>
   </g>
   <g id="matplotlib.axis_5">
    <g id="xtick_17">
     <g id="line2d_51">
      <path clip-path="url(#peb0f0ef638)" d="M 41.145691 181.130098 
L 41.145691 135.594713 
" style="fill:none;stroke:#000000;stroke-linecap:square;stroke-opacity:0.2;stroke-width:0.5;"/>
     </g>
     <g id="line2d_52">
      <g>
       <use style="fill-opacity:0.2;stroke:#000000;stroke-opacity:0.2;stroke-width:0.8;" x="41.145691" xlink:href="#m9bc50fd667" y="181.130098"/>
      </g>
     </g>
    </g>
    <g id="xtick_18">
     <g id="line2d_53">
      <path clip-path="url(#peb0f0ef638)" d="M 115.08415 181.130098 
L 115.08415 135.594713 
" style="fill:none;stroke:#000000;stroke-linecap:square;stroke-opacity:0.2;stroke-width:0.5;"/>
     </g>
     <g id="line2d_54">
      <g>
       <use style="fill-opacity:0.2;stroke:#000000;stroke-opacity:0.2;stroke-width:0.8;" x="115.08415" xlink:href="#m9bc50fd667" y="181.130098"/>
      </g>
     </g>
    </g>
    <g id="xtick_19">
     <g id="line2d_55">
      <path clip-path="url(#peb0f0ef638)" d="M 189.022609 181.130098 
L 189.022609 135.594713 
" style="fill:none;stroke:#000000;stroke-linecap:square;stroke-opacity:0.2;stroke-width:0.5;"/>
     </g>
     <g id="line2d_56">
      <g>
       <use style="fill-opacity:0.2;stroke:#000000;stroke-opacity:0.2;stroke-width:0.8;" x="189.022609" xlink:href="#m9bc50fd667" y="181.130098"/>
      </g>
     </g>
    </g>
    <g id="xtick_20">
     <g id="line2d_57">
      <path clip-path="url(#peb0f0ef638)" d="M 262.961068 181.130098 
L 262.961068 135.594713 
" style="fill:none;stroke:#000000;stroke-linecap:square;stroke-opacity:0.2;stroke-width:0.5;"/>
     </g>
     <g id="line2d_58">
      <g>
       <use style="fill-opacity:0.2;stroke:#000000;stroke-opacity:0.2;stroke-width:0.8;" x="262.961068" xlink:href="#m9bc50fd667" y="181.130098"/>
      </g>
     </g>
    </g>
    <g id="xtick_21">
     <g id="line2d_59">
      <path clip-path="url(#peb0f0ef638)" d="M 336.899528 181.130098 
L 336.899528 135.594713 
" style="fill:none;stroke:#000000;stroke-linecap:square;stroke-opacity:0.2;stroke-width:0.5;"/>
     </g>
     <g id="line2d_60">
      <g>
       <use style="fill-opacity:0.2;stroke:#000000;stroke-opacity:0.2;stroke-width:0.8;" x="336.899528" xlink:href="#m9bc50fd667" y="181.130098"/>
      </g>
     </g>
    </g>
    <g id="xtick_22">
     <g id="line2d_61">
      <path clip-path="url(#peb0f0ef638)" d="M 410.837987 181.130098 
L 410.837987 135.594713 
" style="fill:none;stroke:#000000;stroke-linecap:square;stroke-opacity:0.2;stroke-width:0.5;"/>
     </g>
     <g id="line2d_62">
      <g>
       <use style="fill-opacity:0.2;stroke:#000000;stroke-opacity:0.2;stroke-width:0.8;" x="410.837987" xlink:href="#m9bc50fd667" y="181.130098"/>
      </g>
     </g>
    </g>
    <g id="xtick_23">
     <g id="line2d_63">
      <path clip-path="url(#peb0f0ef638)" d="M 484.776446 181.130098 
L 484.776446 135.594713 
" style="fill:none;stroke:#000000;stroke-linecap:square;stroke-opacity:0.2;stroke-width:0.5;"/>
     </g>
     <g id="line2d_64">
      <g>
       <use style="fill-opacity:0.2;stroke:#000000;stroke-opacity:0.2;stroke-width:0.8;" x="484.776446" xlink:href="#m9bc50fd667" y="181.130098"/>
      </g>
     </g>
    </g>
    <g id="xtick_24">
     <g id="line2d_65">
      <path clip-path="url(#peb0f0ef638)" d="M 558.714905 181.130098 
L 558.714905 135.594713 
" style="fill:none;stroke:#000000;stroke-linecap:square;stroke-opacity:0.2;stroke-width:0.5;"/>
     </g>
     <g id="line2d_66">
      <g>
       <use style="fill-opacity:0.2;stroke:#000000;stroke-opacity:0.2;stroke-width:0.8;" x="558.714905" xlink:href="#m9bc50fd667" y="181.130098"/>
      </g>
     </g>
    </g>
   </g>
   <g id="matplotlib.axis_6">
    <g id="ytick_7">
     <g id="line2d_67">
      <path clip-path="url(#peb0f0ef638)" d="M 41.145691 179.060307 
L 577.19952 179.060307 
" style="fill:none;stroke:#000000;stroke-linecap:square;stroke-opacity:0.2;stroke-width:0.5;"/>
     </g>
     <g id="line2d_68">
      <g>
       <use style="fill-opacity:0.2;stroke:#000000;stroke-opacity:0.2;stroke-width:0.8;" x="41.145691" xlink:href="#m15ccd009f3" y="179.060307"/>
      </g>
     </g>
     <g id="text_9">
      <!-- $\mathdefault{−1}$ -->
      <g transform="translate(7.2 184.050072)scale(0.14 -0.14)">
       <use transform="scale(1.038107)" xlink:href="#CMSY10-0"/>
       <use transform="translate(81.941696 0)scale(0.996264)" xlink:href="#URW_Palladio_L_Roman-49"/>
      </g>
     </g>
    </g>
    <g id="ytick_8">
     <g id="line2d_69">
      <path clip-path="url(#peb0f0ef638)" d="M 41.145691 158.362405 
L 577.19952 158.362405 
" style="fill:none;stroke:#000000;stroke-linecap:square;stroke-opacity:0.2;stroke-width:0.5;"/>
     </g>
     <g id="line2d_70">
      <g>
       <use style="fill-opacity:0.2;stroke:#000000;stroke-opacity:0.2;stroke-width:0.8;" x="41.145691" xlink:href="#m15ccd009f3" y="158.362405"/>
      </g>
     </g>
     <g id="text_10">
      <!-- $\mathdefault{0}$ -->
      <g transform="translate(18.671843 163.35217)scale(0.14 -0.14)">
       <use transform="scale(0.996264)" xlink:href="#URW_Palladio_L_Roman-48"/>
      </g>
     </g>
    </g>
    <g id="ytick_9">
     <g id="line2d_71">
      <path clip-path="url(#peb0f0ef638)" d="M 41.145691 137.664503 
L 577.19952 137.664503 
" style="fill:none;stroke:#000000;stroke-linecap:square;stroke-opacity:0.2;stroke-width:0.5;"/>
     </g>
     <g id="line2d_72">
      <g>
       <use style="fill-opacity:0.2;stroke:#000000;stroke-opacity:0.2;stroke-width:0.8;" x="41.145691" xlink:href="#m15ccd009f3" y="137.664503"/>
      </g>
     </g>
     <g id="text_11">
      <!-- $\mathdefault{1}$ -->
      <g transform="translate(18.671843 142.654268)scale(0.14 -0.14)">
       <use transform="scale(0.996264)" xlink:href="#URW_Palladio_L_Roman-49"/>
      </g>
     </g>
    </g>
   </g>
   <g id="line2d_73">
    <g clip-path="url(#peb0f0ef638)">
     <use style="fill:#dc2830;" x="41.145691" xlink:href="#md08244dfba" y="137.664503"/>
     <use style="fill:#dc2830;" x="59.630306" xlink:href="#md08244dfba" y="139.453931"/>
     <use style="fill:#dc2830;" x="78.11492" xlink:href="#md08244dfba" y="144.512805"/>
     <use style="fill:#dc2830;" x="96.599535" xlink:href="#md08244dfba" y="151.966402"/>
     <use style="fill:#dc2830;" x="115.08415" xlink:href="#md08244dfba" y="160.525925"/>
     <use style="fill:#dc2830;" x="133.568765" xlink:href="#md08244dfba" y="168.711356"/>
     <use style="fill:#dc2830;" x="152.05338" xlink:href="#md08244dfba" y="175.10736"/>
     <use style="fill:#dc2830;" x="170.537994" xlink:href="#md08244dfba" y="178.608009"/>
     <use style="fill:#dc2830;" x="189.022609" xlink:href="#md08244dfba" y="178.608009"/>
     <use style="fill:#dc2830;" x="207.507224" xlink:href="#md08244dfba" y="175.10736"/>
     <use style="fill:#dc2830;" x="225.991839" xlink:href="#md08244dfba" y="168.711356"/>
     <use style="fill:#dc2830;" x="244.476454" xlink:href="#md08244dfba" y="160.525925"/>
     <use style="fill:#dc2830;" x="262.961068" xlink:href="#md08244dfba" y="151.966402"/>
     <use style="fill:#dc2830;" x="281.445683" xlink:href="#md08244dfba" y="144.512805"/>
     <use style="fill:#dc2830;" x="299.930298" xlink:href="#md08244dfba" y="139.453931"/>
     <use style="fill:#dc2830;" x="318.414913" xlink:href="#md08244dfba" y="137.664503"/>
     <use style="fill:#dc2830;" x="336.899528" xlink:href="#md08244dfba" y="139.453931"/>
     <use style="fill:#dc2830;" x="355.384142" xlink:href="#md08244dfba" y="144.512805"/>
     <use style="fill:#dc2830;" x="373.868757" xlink:href="#md08244dfba" y="151.966402"/>
     <use style="fill:#dc2830;" x="392.353372" xlink:href="#md08244dfba" y="160.525925"/>
     <use style="fill:#dc2830;" x="410.837987" xlink:href="#md08244dfba" y="168.711356"/>
     <use style="fill:#dc2830;" x="429.322602" xlink:href="#md08244dfba" y="175.10736"/>
     <use style="fill:#dc2830;" x="447.807216" xlink:href="#md08244dfba" y="178.608009"/>
     <use style="fill:#dc2830;" x="466.291831" xlink:href="#md08244dfba" y="178.608009"/>
     <use style="fill:#dc2830;" x="484.776446" xlink:href="#md08244dfba" y="175.10736"/>
     <use style="fill:#dc2830;" x="503.261061" xlink:href="#md08244dfba" y="168.711356"/>
     <use style="fill:#dc2830;" x="521.745676" xlink:href="#md08244dfba" y="160.525925"/>
     <use style="fill:#dc2830;" x="540.23029" xlink:href="#md08244dfba" y="151.966402"/>
     <use style="fill:#dc2830;" x="558.714905" xlink:href="#md08244dfba" y="144.512805"/>
     <use style="fill:#dc2830;" x="577.19952" xlink:href="#md08244dfba" y="139.453931"/>
    </g>
   </g>
   <g id="legend_3">
    <g id="patch_7">
     <path d="M 499.205172 174.130098 
L 567.39952 174.130098 
Q 570.19952 174.130098 570.19952 171.330098 
L 570.19952 151.159113 
Q 570.19952 148.359113 567.39952 148.359113 
L 499.205172 148.359113 
Q 496.405172 148.359113 496.405172 151.159113 
L 496.405172 171.330098 
Q 496.405172 174.130098 499.205172 174.130098 
z
" style="fill:#ffffff;opacity:0.95;stroke:#cccccc;stroke-linejoin:miter;stroke-width:0.5;"/>
    </g>
    <g id="line2d_74"/>
    <g id="line2d_75">
     <g>
      <use style="fill:#dc2830;" x="509.005172" xlink:href="#md08244dfba" y="159.696925"/>
     </g>
    </g>
    <g id="text_12">
     <!-- $m=2$ -->
     <g transform="translate(527.205172 164.596925)scale(0.14 -0.14)">
      <defs>
       <path d="M 1.59375 2.5 
L 1.59375 0 
C 20.296875 0 20.296875 0 23.90625 0 
C 27.5 0 27.5 0 46.796875 0 
C 46.59375 1.953125 46.59375 2.90625 46.59375 4.203125 
C 46.59375 5.4375 46.59375 6.359375 46.796875 8.421875 
C 35.296875 8.421875 30.703125 8.421875 12.203125 8.421875 
L 30.40625 27.515625 
C 40.09375 37.71875 43.09375 43.171875 43.09375 50.59375 
C 43.09375 61.96875 35.296875 69 22.59375 69 
C 15.40625 69 10.5 67 5.59375 62.015625 
L 3.90625 48.421875 
L 6.796875 48.421875 
L 8.09375 53.015625 
C 9.703125 58.796875 13.296875 61.296875 20 61.296875 
C 28.59375 61.296875 34.09375 55.890625 34.09375 47.421875 
C 34.09375 39.921875 29.90625 32.546875 18.59375 20.5625 
z
" id="URW_Palladio_L_Roman-50"/>
      </defs>
      <use transform="scale(0.996264)" xlink:href="#URW_Palladio_L_Italic-109"/>
      <use transform="translate(107.673966 0)scale(1.038107)" xlink:href="#CMR10-61"/>
      <use transform="translate(217.289595 0)scale(0.996264)" xlink:href="#URW_Palladio_L_Roman-50"/>
     </g>
    </g>
   </g>
  </g>
  <g id="axes_4">
   <g id="patch_8">
    <path d="M 41.145691 243.867467 
L 577.19952 243.867467 
L 577.19952 198.332082 
L 41.145691 198.332082 
z
" style="fill:none;"/>
   </g>
   <g id="matplotlib.axis_7">
    <g id="xtick_25">
     <g id="line2d_76">
      <path clip-path="url(#p78c773fd0e)" d="M 41.145691 243.867467 
L 41.145691 198.332082 
" style="fill:none;stroke:#000000;stroke-linecap:square;stroke-opacity:0.2;stroke-width:0.5;"/>
     </g>
     <g id="line2d_77">
      <g>
       <use style="fill-opacity:0.2;stroke:#000000;stroke-opacity:0.2;stroke-width:0.8;" x="41.145691" xlink:href="#m9bc50fd667" y="243.867467"/>
      </g>
     </g>
     <g id="text_13">
      <!-- $\mathdefault{0.0}$ -->
      <g transform="translate(32.428381 269.346996)scale(0.14 -0.14)">
       <defs>
        <path d="M 12.40625 11.625 
C 9.40625 11.625 6.703125 8.8125 6.703125 5.8125 
C 6.703125 2.796875 9.40625 0 12.296875 0 
C 15.5 0 18.296875 2.703125 18.296875 5.8125 
C 18.296875 8.8125 15.5 11.625 12.40625 11.625 
z
" id="URW_Palladio_L_Roman-46"/>
       </defs>
       <use transform="scale(0.996264)" xlink:href="#URW_Palladio_L_Roman-48"/>
       <use transform="translate(49.8132 0)scale(0.996264)" xlink:href="#URW_Palladio_L_Roman-46"/>
       <use transform="translate(74.719801 0)scale(0.996264)" xlink:href="#URW_Palladio_L_Roman-48"/>
      </g>
     </g>
    </g>
    <g id="xtick_26">
     <g id="line2d_78">
      <path clip-path="url(#p78c773fd0e)" d="M 115.08415 243.867467 
L 115.08415 198.332082 
" style="fill:none;stroke:#000000;stroke-linecap:square;stroke-opacity:0.2;stroke-width:0.5;"/>
     </g>
     <g id="line2d_79">
      <g>
       <use style="fill-opacity:0.2;stroke:#000000;stroke-opacity:0.2;stroke-width:0.8;" x="115.08415" xlink:href="#m9bc50fd667" y="243.867467"/>
      </g>
     </g>
     <g id="text_14">
      <!-- $\mathdefault{0.2}$ -->
      <g transform="translate(106.36684 269.346996)scale(0.14 -0.14)">
       <use transform="scale(0.996264)" xlink:href="#URW_Palladio_L_Roman-48"/>
       <use transform="translate(49.8132 0)scale(0.996264)" xlink:href="#URW_Palladio_L_Roman-46"/>
       <use transform="translate(74.719801 0)scale(0.996264)" xlink:href="#URW_Palladio_L_Roman-50"/>
      </g>
     </g>
    </g>
    <g id="xtick_27">
     <g id="line2d_80">
      <path clip-path="url(#p78c773fd0e)" d="M 189.022609 243.867467 
L 189.022609 198.332082 
" style="fill:none;stroke:#000000;stroke-linecap:square;stroke-opacity:0.2;stroke-width:0.5;"/>
     </g>
     <g id="line2d_81">
      <g>
       <use style="fill-opacity:0.2;stroke:#000000;stroke-opacity:0.2;stroke-width:0.8;" x="189.022609" xlink:href="#m9bc50fd667" y="243.867467"/>
      </g>
     </g>
     <g id="text_15">
      <!-- $\mathdefault{0.4}$ -->
      <g transform="translate(180.305299 269.346996)scale(0.14 -0.14)">
       <defs>
        <path d="M 28 18 
L 28 10.515625 
C 28 4.515625 26.90625 3.109375 22 3.109375 
L 15.796875 3.109375 
L 15.796875 0 
C 29.09375 0 29.09375 0 31.5 0 
C 33.90625 0 33.90625 0 47.203125 0 
L 47.203125 3.109375 
L 42.40625 3.109375 
C 37.5 3.109375 36.40625 4.40625 36.40625 10.453125 
L 36.40625 18 
C 42.296875 18 44.40625 18 47.203125 17.703125 
L 47.203125 24.8125 
C 42.5 24.421875 40.59375 24.421875 39.09375 24.421875 
L 38.796875 24.421875 
L 36.40625 24.421875 
L 36.40625 38.390625 
C 36.40625 56.25 36.59375 64.875 37.09375 69 
L 35.90625 69.5 
L 28.5 66.796875 
L 0.203125 20.296875 
L 1.296875 18 
z
M 28 24.421875 
L 6.5 24.421875 
L 28 59.78125 
z
" id="URW_Palladio_L_Roman-52"/>
       </defs>
       <use transform="scale(0.996264)" xlink:href="#URW_Palladio_L_Roman-48"/>
       <use transform="translate(49.8132 0)scale(0.996264)" xlink:href="#URW_Palladio_L_Roman-46"/>
       <use transform="translate(74.719801 0)scale(0.996264)" xlink:href="#URW_Palladio_L_Roman-52"/>
      </g>
     </g>
    </g>
    <g id="xtick_28">
     <g id="line2d_82">
      <path clip-path="url(#p78c773fd0e)" d="M 262.961068 243.867467 
L 262.961068 198.332082 
" style="fill:none;stroke:#000000;stroke-linecap:square;stroke-opacity:0.2;stroke-width:0.5;"/>
     </g>
     <g id="line2d_83">
      <g>
       <use style="fill-opacity:0.2;stroke:#000000;stroke-opacity:0.2;stroke-width:0.8;" x="262.961068" xlink:href="#m9bc50fd667" y="243.867467"/>
      </g>
     </g>
     <g id="text_16">
      <!-- $\mathdefault{0.6}$ -->
      <g transform="translate(254.243758 269.346996)scale(0.14 -0.14)">
       <defs>
        <path d="M 41.59375 67.34375 
L 37.90625 69.046875 
C 28.296875 65.84375 24.203125 63.84375 19.09375 59.4375 
C 8.796875 50.71875 3.203125 38.5 3.203125 24.765625 
C 3.203125 8.21875 11.203125 -2 24.09375 -2 
C 37.09375 -2 46.796875 8.3125 46.796875 21.953125 
C 46.796875 33.484375 39.90625 41 29.296875 41 
C 24.296875 41 21.296875 39.6875 15.40625 34.984375 
C 14.296875 34.078125 14.203125 33.984375 13.09375 33.1875 
C 15.203125 51.3125 23.59375 61.140625 41.59375 66.546875 
z
M 25.5 34.984375 
C 33.09375 34.984375 38.203125 28.375 38.203125 18.453125 
C 38.203125 8.015625 33.09375 1.296875 25.40625 1.296875 
C 16.90625 1.296875 12.296875 8.609375 12.296875 22.0625 
C 12.296875 25.5625 12.703125 27.46875 13.796875 29.171875 
C 16 32.578125 20.703125 34.984375 25.5 34.984375 
z
" id="URW_Palladio_L_Roman-54"/>
       </defs>
       <use transform="scale(0.996264)" xlink:href="#URW_Palladio_L_Roman-48"/>
       <use transform="translate(49.8132 0)scale(0.996264)" xlink:href="#URW_Palladio_L_Roman-46"/>
       <use transform="translate(74.719801 0)scale(0.996264)" xlink:href="#URW_Palladio_L_Roman-54"/>
      </g>
     </g>
    </g>
    <g id="xtick_29">
     <g id="line2d_84">
      <path clip-path="url(#p78c773fd0e)" d="M 336.899528 243.867467 
L 336.899528 198.332082 
" style="fill:none;stroke:#000000;stroke-linecap:square;stroke-opacity:0.2;stroke-width:0.5;"/>
     </g>
     <g id="line2d_85">
      <g>
       <use style="fill-opacity:0.2;stroke:#000000;stroke-opacity:0.2;stroke-width:0.8;" x="336.899528" xlink:href="#m9bc50fd667" y="243.867467"/>
      </g>
     </g>
     <g id="text_17">
      <!-- $\mathdefault{0.8}$ -->
      <g transform="translate(328.182217 269.346996)scale(0.14 -0.14)">
       <defs>
        <path d="M 16.796875 34.546875 
C 12.703125 32.65625 11 31.546875 8.796875 29.4375 
C 5 25.640625 3 21.125 3 15.921875 
C 3 5.609375 11.296875 -2 22.59375 -2 
C 35.59375 -2 46.40625 8.21875 46.40625 20.625 
C 46.40625 28.640625 42.703125 32.953125 31.296875 38.15625 
C 40.40625 44.375 43.59375 48.578125 43.59375 54.578125 
C 43.59375 63.1875 36.5 69 25.90625 69 
C 14 69 5.296875 61.390625 5.296875 50.890625 
C 5.296875 44.078125 8 40.265625 16.796875 34.546875 
z
M 28.40625 29.546875 
C 34.703125 26.734375 38.5 21.828125 38.5 16.4375 
C 38.5 8.015625 32.203125 1.40625 24.09375 1.40625 
C 15.59375 1.40625 10.09375 7.421875 10.09375 16.734375 
C 10.09375 24.03125 13 28.640625 20.40625 33.15625 
z
M 22.296875 42.375 
C 16 45.46875 12.796875 49.484375 12.796875 54.484375 
C 12.796875 61.09375 17.59375 65.59375 24.703125 65.59375 
C 32 65.59375 36.796875 60.796875 36.796875 53.46875 
C 36.796875 47.78125 34.296875 43.875 27.796875 39.65625 
z
" id="URW_Palladio_L_Roman-56"/>
       </defs>
       <use transform="scale(0.996264)" xlink:href="#URW_Palladio_L_Roman-48"/>
       <use transform="translate(49.8132 0)scale(0.996264)" xlink:href="#URW_Palladio_L_Roman-46"/>
       <use transform="translate(74.719801 0)scale(0.996264)" xlink:href="#URW_Palladio_L_Roman-56"/>
      </g>
     </g>
    </g>
    <g id="xtick_30">
     <g id="line2d_86">
      <path clip-path="url(#p78c773fd0e)" d="M 410.837987 243.867467 
L 410.837987 198.332082 
" style="fill:none;stroke:#000000;stroke-linecap:square;stroke-opacity:0.2;stroke-width:0.5;"/>
     </g>
     <g id="line2d_87">
      <g>
       <use style="fill-opacity:0.2;stroke:#000000;stroke-opacity:0.2;stroke-width:0.8;" x="410.837987" xlink:href="#m9bc50fd667" y="243.867467"/>
      </g>
     </g>
     <g id="text_18">
      <!-- $\mathdefault{1.0}$ -->
      <g transform="translate(402.120677 269.346996)scale(0.14 -0.14)">
       <use transform="scale(0.996264)" xlink:href="#URW_Palladio_L_Roman-49"/>
       <use transform="translate(49.8132 0)scale(0.996264)" xlink:href="#URW_Palladio_L_Roman-46"/>
       <use transform="translate(74.719801 0)scale(0.996264)" xlink:href="#URW_Palladio_L_Roman-48"/>
      </g>
     </g>
    </g>
    <g id="xtick_31">
     <g id="line2d_88">
      <path clip-path="url(#p78c773fd0e)" d="M 484.776446 243.867467 
L 484.776446 198.332082 
" style="fill:none;stroke:#000000;stroke-linecap:square;stroke-opacity:0.2;stroke-width:0.5;"/>
     </g>
     <g id="line2d_89">
      <g>
       <use style="fill-opacity:0.2;stroke:#000000;stroke-opacity:0.2;stroke-width:0.8;" x="484.776446" xlink:href="#m9bc50fd667" y="243.867467"/>
      </g>
     </g>
     <g id="text_19">
      <!-- $\mathdefault{1.2}$ -->
      <g transform="translate(476.059136 269.346996)scale(0.14 -0.14)">
       <use transform="scale(0.996264)" xlink:href="#URW_Palladio_L_Roman-49"/>
       <use transform="translate(49.8132 0)scale(0.996264)" xlink:href="#URW_Palladio_L_Roman-46"/>
       <use transform="translate(74.719801 0)scale(0.996264)" xlink:href="#URW_Palladio_L_Roman-50"/>
      </g>
     </g>
    </g>
    <g id="xtick_32">
     <g id="line2d_90">
      <path clip-path="url(#p78c773fd0e)" d="M 558.714905 243.867467 
L 558.714905 198.332082 
" style="fill:none;stroke:#000000;stroke-linecap:square;stroke-opacity:0.2;stroke-width:0.5;"/>
     </g>
     <g id="line2d_91">
      <g>
       <use style="fill-opacity:0.2;stroke:#000000;stroke-opacity:0.2;stroke-width:0.8;" x="558.714905" xlink:href="#m9bc50fd667" y="243.867467"/>
      </g>
     </g>
     <g id="text_20">
      <!-- $\mathdefault{1.4}$ -->
      <g transform="translate(549.997595 269.346996)scale(0.14 -0.14)">
       <use transform="scale(0.996264)" xlink:href="#URW_Palladio_L_Roman-49"/>
       <use transform="translate(49.8132 0)scale(0.996264)" xlink:href="#URW_Palladio_L_Roman-46"/>
       <use transform="translate(74.719801 0)scale(0.996264)" xlink:href="#URW_Palladio_L_Roman-52"/>
      </g>
     </g>
    </g>
    <g id="text_21">
     <!-- Time [seconds] -->
     <g transform="translate(269.499754 285.834044)scale(0.12 -0.12)">
      <defs>
       <path d="M 25.5 64.28125 
C 25.796875 60.875 25.90625 58.578125 25.90625 54.265625 
L 25.90625 11.921875 
C 25.90625 4 25.40625 3.203125 20.796875 3.203125 
L 16 3.203125 
L 16 0 
C 21.90625 0 25.40625 0 30.59375 0 
C 35.796875 0 39.40625 0 45.296875 0 
L 45.296875 3.203125 
L 40.5 3.203125 
C 35.90625 3.203125 35.40625 4 35.40625 11.921875 
L 35.40625 54.265625 
C 35.40625 58.78125 35.5 60.984375 35.796875 64.28125 
L 51.296875 64.28125 
C 54.09375 64.28125 55.203125 63.390625 55.296875 61 
L 55.703125 53.125 
L 58.796875 53.125 
C 58.796875 59.53125 59 63.375 59.5 69 
C 52.296875 69 49 69 46.203125 69 
C 42.296875 69 39.40625 69 37.90625 69 
L 22.09375 69 
C 21.09375 69 15.703125 69 8.59375 69 
L 1.796875 69 
C 2.296875 63.375 2.5 59.53125 2.5 53.125 
L 5.59375 53.125 
L 6 61 
C 6.09375 63.390625 7.203125 64.28125 10 64.28125 
z
" id="URW_Palladio_L_Roman-84"/>
       <path d="M 18.796875 46.765625 
L 17.90625 47.171875 
C 12.796875 45.0625 7.59375 43.640625 2.296875 43.046875 
L 2.296875 40.25 
L 6 40.25 
C 10 40.25 10.40625 39.546875 10.40625 32.890625 
L 10.40625 10.171875 
C 10.40625 3.8125 10.09375 3.109375 6.703125 3.109375 
L 2.09375 3.109375 
L 2.09375 0 
C 12.09375 0 12.09375 0 14.59375 0 
C 17.09375 0 17.09375 0 27.09375 0 
L 27.09375 3.109375 
L 22.5 3.109375 
C 19.09375 3.109375 18.796875 3.8125 18.796875 10.171875 
z
M 14.203125 69 
C 11.203125 69 8.59375 66.390625 8.59375 63.375 
C 8.59375 60.46875 11.203125 57.875 14.09375 57.875 
C 17 57.875 19.703125 60.46875 19.703125 63.375 
C 19.703125 66.1875 17 69 14.203125 69 
z
" id="URW_Palladio_L_Roman-105"/>
       <path d="M 1.796875 40.078125 
L 5.5 40.078125 
C 9.5 40.078125 9.90625 39.375 9.90625 32.71875 
L 9.90625 10.046875 
C 9.90625 3.703125 9.59375 3 6.203125 3 
L 1.59375 3 
L 1.59375 -0.109375 
C 11.203125 -0.109375 11.5 -0.109375 14.296875 -0.109375 
C 17.09375 -0.109375 19.703125 -0.109375 26.203125 -0.109375 
L 26.203125 2.796875 
L 22 3.203125 
C 18.59375 3.203125 18.296875 3.90625 18.296875 10.21875 
L 18.296875 31.46875 
C 18.296875 35.96875 24.90625 40.875 30.90625 40.875 
C 36.296875 40.875 40 35.734375 40 28.09375 
L 40 10.046875 
C 40 3.703125 39.703125 3 36.296875 3 
L 31.703125 3 
L 31.703125 -0.109375 
C 41.703125 -0.109375 41.703125 -0.109375 44.203125 -0.109375 
C 46.703125 -0.109375 46.703125 -0.109375 56.703125 -0.109375 
L 56.703125 3 
L 52.09375 3 
C 48.703125 3 48.40625 3.703125 48.40625 10.046875 
L 48.40625 31.421875 
C 48.40625 35.9375 55 40.875 61 40.875 
C 66.40625 40.875 70.09375 35.796875 70.09375 28.21875 
L 70.09375 -0.109375 
C 76.203125 -0.109375 76.296875 -0.109375 78 -0.109375 
C 79.296875 -0.109375 79.296875 -0.109375 86.90625 -0.109375 
L 86.90625 3 
L 82.203125 3 
C 78.796875 3 78.5 3.703125 78.5 10.046875 
L 78.5 30.78125 
C 78.5 40.75 72.703125 47 63.5 47 
C 60 47 57.09375 46.09375 55.296875 44.484375 
L 47.703125 37.6875 
C 44.5 44.28125 40.40625 47 33.5 47 
C 29.796875 47 27 46.09375 25.203125 44.484375 
L 18.296875 38.078125 
L 18.296875 46.59375 
L 17.40625 47 
C 12.296875 44.890625 7.09375 43.484375 1.796875 42.890625 
z
" id="URW_Palladio_L_Roman-109"/>
       <path d="M 43.703125 6.984375 
L 42.40625 7.984375 
C 36 4.203125 33.703125 3.3125 29.40625 3.3125 
C 22.90625 3.3125 17.5 6.21875 14.703125 11.109375 
C 12.796875 14.390625 12.09375 17.203125 11.90625 23 
L 26.5 23 
C 33.40625 23 37.703125 23 44.59375 24.125 
C 44.703125 25.53125 44.796875 26.453125 44.796875 27.671875 
C 44.796875 39.375 37.40625 47 26.203125 47 
C 22.5 47 18.203125 45.6875 14.09375 43.28125 
C 5.90625 38.578125 2.59375 32.359375 2.59375 21.9375 
C 2.59375 15.625 4.09375 10.21875 6.796875 6.40625 
C 10.796875 1.109375 17.5 -2 25 -2 
C 28.703125 -2 32.40625 -1.203125 36.5 0.578125 
C 39.203125 1.6875 41.296875 2.984375 41.703125 3.59375 
z
M 35.90625 26.40625 
C 30.703125 26.40625 28.296875 26.40625 24.703125 26.40625 
C 20.09375 26.40625 17.5 26.40625 12.09375 26.90625 
C 12.09375 31.671875 12.5 33.890625 13.796875 36.515625 
C 15.90625 40.96875 20.203125 43.6875 25 43.6875 
C 28.296875 43.6875 30.90625 42.359375 32.703125 39.59375 
C 34.90625 36.234375 35.59375 33.265625 35.90625 26.40625 
z
" id="URW_Palladio_L_Roman-101"/>
       <path d="M 8.796875 -18 
C 15.90625 -18 16.09375 -18 18.5 -18 
C 20.90625 -18 21.40625 -18 28.203125 -18 
L 28.796875 -17.5 
L 28.796875 -14.890625 
L 28.40625 -14.390625 
L 24.59375 -14.390625 
C 21.90625 -14.390625 19.703125 -13.78125 18.5 -12.78125 
C 17.59375 -11.875 17.296875 -10.484375 17.296875 -7.171875 
C 17.296875 -7.078125 17.296875 -4.96875 17.203125 -1.953125 
L 17.203125 1.75 
L 17.203125 53.265625 
L 17.203125 56.96875 
C 17.296875 59.78125 17.296875 61.984375 17.296875 62.078125 
C 17.296875 65.390625 17.59375 66.890625 18.5 67.796875 
C 19.703125 68.796875 21.90625 69.390625 24.59375 69.390625 
L 28.40625 69.390625 
L 28.796875 69.890625 
L 28.796875 72.5 
L 28.203125 73 
C 21.203125 73 20.90625 73 18.5 73 
C 16.203125 73 15.703125 73 8.796875 73 
L 7.90625 71.796875 
C 8.5 69.296875 8.703125 65.984375 8.703125 58.28125 
C 8.703125 56.765625 8.703125 55.5625 8.796875 54.5625 
L 8.796875 53.265625 
L 8.796875 1.75 
L 8.796875 0.4375 
C 8.703125 -1.15625 8.703125 -1.265625 8.703125 -2.96875 
L 8.703125 -4.0625 
C 8.703125 -10.875 8.5 -13.6875 7.90625 -16.796875 
z
" id="URW_Palladio_L_Roman-91"/>
       <path d="M 4.09375 14.328125 
C 4.09375 7.421875 3.796875 4.40625 3 0.40625 
C 8.203125 -1.296875 12.09375 -2 16.703125 -2 
C 29.796875 -2 39.09375 5.015625 39.09375 14.828125 
C 39.09375 17.9375 38.203125 20.234375 36.296875 22.25 
C 33.703125 24.75 30.40625 25.953125 21.59375 27.65625 
C 13.40625 29.265625 10.703125 31.265625 10.703125 35.875 
C 10.703125 40.875 14.203125 43.6875 20.296875 43.6875 
C 27 43.6875 32.09375 40.1875 32.09375 35.46875 
L 32.09375 33.171875 
L 34.90625 33.171875 
C 35 38.984375 35.09375 41.375 35.40625 44.484375 
C 30.09375 46.296875 26.5 47 22.40625 47 
C 10.796875 47 3.703125 41.484375 3.703125 32.46875 
C 3.703125 27.65625 5.90625 24.25 10.5 22.140625 
C 13.203125 20.9375 18.5 19.34375 25.296875 17.828125 
C 29.796875 16.828125 31.703125 14.734375 31.703125 10.921875 
C 31.703125 5.515625 26.703125 1.703125 19.59375 1.703125 
C 12.296875 1.703125 7.09375 5.203125 7.09375 10.21875 
L 7.09375 14.328125 
z
" id="URW_Palladio_L_Roman-115"/>
       <path d="M 39.90625 31.15625 
C 39.90625 35.765625 40.40625 39.875 41.296875 43.484375 
C 37.296875 45.890625 33.796875 47 29.703125 47 
C 24.90625 47 19.296875 45.09375 13.296875 41.28125 
C 6.296875 36.875 2.59375 29.859375 2.59375 21.046875 
C 2.59375 7.515625 12.09375 -2 25.5 -2 
C 30.703125 -2 38.203125 -0.09375 39.203125 1.40625 
L 41.296875 4.609375 
L 40.296875 6.109375 
C 36.59375 4.109375 33.40625 3.203125 29.796875 3.203125 
C 18.703125 3.203125 11.40625 11.828125 11.40625 25.046875 
C 11.40625 35.765625 16.40625 41.78125 25.40625 41.78125 
C 29.796875 41.78125 34.59375 39.78125 36.40625 37.28125 
L 37.09375 31.15625 
z
" id="URW_Palladio_L_Roman-99"/>
       <path d="M 27.90625 47 
C 13.296875 47 3.203125 36.671875 3.203125 21.75 
C 3.203125 7.609375 12.09375 -2 25 -2 
C 40.40625 -2 51.40625 8.71875 51.40625 23.75 
C 51.40625 37.28125 41.59375 47 27.90625 47 
z
M 26.09375 43.6875 
C 35.296875 43.6875 42.09375 33.671875 42.09375 20.046875 
C 42.09375 8.515625 37 1.296875 28.90625 1.296875 
C 19.09375 1.296875 12.5 10.921875 12.5 25.15625 
C 12.5 37.171875 17.296875 43.6875 26.09375 43.6875 
z
" id="URW_Palladio_L_Roman-111"/>
       <path d="M 41 -0.109375 
C 47.09375 -0.109375 47.203125 -0.109375 48.90625 -0.109375 
C 50.296875 -0.109375 50.296875 -0.109375 57.203125 -0.109375 
L 57.203125 2.796875 
L 53.09375 3.203125 
C 49.703125 3.203125 49.40625 3.8125 49.40625 10.21875 
L 49.40625 29.5625 
C 49.40625 41.28125 43.90625 47 32.703125 47 
C 29 47 26.90625 46.296875 24.796875 44.484375 
L 17.203125 37.875 
L 17.203125 46.59375 
L 16.296875 47 
C 11.203125 44.890625 6 43.484375 0.703125 42.890625 
L 0.703125 40.078125 
L 4.40625 40.078125 
C 8.40625 40.078125 8.796875 39.375 8.796875 32.71875 
L 8.796875 10.046875 
C 8.796875 3.703125 8.5 3 5.09375 3 
L 0.59375 3 
L 0.59375 -0.109375 
C 7.40625 -0.109375 10.09375 -0.109375 13 -0.109375 
C 15.90625 -0.109375 18.59375 -0.109375 25.40625 -0.109375 
L 25.40625 3 
L 20.90625 3 
C 17.5 3 17.203125 3.703125 17.203125 10.046875 
L 17.203125 31.421875 
C 17.203125 35.9375 23.796875 40.875 29.90625 40.875 
C 36.59375 40.875 41 35.890625 41 28.21875 
z
" id="URW_Palladio_L_Roman-110"/>
       <path d="M 41.203125 43.78125 
C 35.59375 46.1875 32.796875 47 29.296875 47 
C 26.59375 47 24.203125 46.390625 21.703125 45.109375 
L 12.90625 40.515625 
C 7.203125 37.515625 3.5 30.234375 3.5 21.75 
C 3.5 13.765625 6.203125 7.1875 11.09375 3.1875 
C 14.5 0.296875 19.203125 -1 25.703125 -1 
C 27.703125 -1 30 -0.59375 30.5 -0.203125 
L 41.59375 9.109375 
L 41.09375 -0.109375 
C 46 -0.109375 47.59375 -0.109375 48.796875 -0.109375 
C 49.59375 -0.109375 51 -0.109375 53.09375 -0.109375 
C 53.796875 -0.109375 55.796875 -0.109375 57.90625 -0.109375 
L 57.90625 3 
L 53.296875 3 
C 49.90625 3 49.59375 3.703125 49.59375 10.046875 
L 49.59375 71.984375 
L 48.703125 72.796875 
C 44.296875 71.09375 41 70.28125 33.09375 69.078125 
L 33.09375 66.28125 
L 38.703125 66.28125 
C 40.5 66.28125 41.203125 65.171875 41.203125 62.15625 
z
M 41.203125 22.25 
C 41.203125 15.765625 41 14.78125 39.703125 12.484375 
C 36.90625 7.796875 32 4.71875 27.296875 4.71875 
C 18.5 4.71875 12.203125 13.1875 12.203125 25.046875 
C 12.203125 35.90625 17.59375 42.28125 26.59375 42.28125 
C 30.40625 42.28125 34.40625 40.984375 37.90625 38.59375 
C 40 37.203125 41.203125 35.90625 41.203125 35.09375 
z
" id="URW_Palladio_L_Roman-100"/>
       <path d="M 24.5 73 
C 17.40625 73 17.09375 73 14.796875 73 
C 12.40625 73 11.90625 73 5.09375 73 
L 4.5 72.5 
L 4.5 69.890625 
L 4.90625 69.390625 
L 8.703125 69.390625 
C 11.40625 69.390625 13.5 68.796875 14.703125 67.796875 
C 15.703125 66.890625 16 65.484375 16 62.078125 
C 16 61.78125 16 59.78125 16.09375 56.96875 
L 16.09375 53.265625 
L 16.09375 1.75 
L 16.09375 -1.953125 
C 16 -4.859375 16 -6.671875 16 -6.96875 
C 16 -10.375 15.703125 -11.875 14.703125 -12.78125 
C 13.5 -13.78125 11.40625 -14.390625 8.703125 -14.390625 
L 4.90625 -14.390625 
L 4.5 -14.890625 
L 4.5 -17.5 
L 5.09375 -18 
C 12.09375 -18 12.296875 -18 14.796875 -18 
C 17.09375 -18 17.59375 -18 24.5 -18 
L 25.40625 -16.796875 
C 24.796875 -14.390625 24.703125 -11.28125 24.59375 -3.5625 
C 24.59375 -2.15625 24.59375 -0.859375 24.5 0.4375 
L 24.5 1.75 
L 24.5 53.265625 
L 24.5 54.5625 
C 24.59375 55.671875 24.59375 56.96875 24.59375 58.375 
C 24.59375 66.09375 24.796875 69.390625 25.40625 71.796875 
z
" id="URW_Palladio_L_Roman-93"/>
      </defs>
      <use transform="scale(0.996264)" xlink:href="#URW_Palladio_L_Roman-84"/>
      <use transform="translate(55.591109 0)scale(0.996264)" xlink:href="#URW_Palladio_L_Roman-105"/>
      <use transform="translate(84.581471 0)scale(0.996264)" xlink:href="#URW_Palladio_L_Roman-109"/>
      <use transform="translate(172.551145 0)scale(0.996264)" xlink:href="#URW_Palladio_L_Roman-101"/>
      <use transform="translate(245.17804 0)scale(0.996264)" xlink:href="#URW_Palladio_L_Roman-91"/>
      <use transform="translate(278.35327 0)scale(0.996264)" xlink:href="#URW_Palladio_L_Roman-115"/>
      <use transform="translate(320.594736 0)scale(0.996264)" xlink:href="#URW_Palladio_L_Roman-101"/>
      <use transform="translate(368.315031 0)scale(0.996264)" xlink:href="#URW_Palladio_L_Roman-99"/>
      <use transform="translate(412.5486 0)scale(0.996264)" xlink:href="#URW_Palladio_L_Roman-111"/>
      <use transform="translate(466.94418 0)scale(0.996264)" xlink:href="#URW_Palladio_L_Roman-110"/>
      <use transform="translate(524.926241 0)scale(0.996264)" xlink:href="#URW_Palladio_L_Roman-100"/>
      <use transform="translate(585.797872 0)scale(0.996264)" xlink:href="#URW_Palladio_L_Roman-115"/>
      <use transform="translate(628.039338 0)scale(0.996264)" xlink:href="#URW_Palladio_L_Roman-93"/>
     </g>
    </g>
   </g>
   <g id="matplotlib.axis_8">
    <g id="ytick_10">
     <g id="line2d_92">
      <path clip-path="url(#p78c773fd0e)" d="M 41.145691 241.797677 
L 577.19952 241.797677 
" style="fill:none;stroke:#000000;stroke-linecap:square;stroke-opacity:0.2;stroke-width:0.5;"/>
     </g>
     <g id="line2d_93">
      <g>
       <use style="fill-opacity:0.2;stroke:#000000;stroke-opacity:0.2;stroke-width:0.8;" x="41.145691" xlink:href="#m15ccd009f3" y="241.797677"/>
      </g>
     </g>
     <g id="text_22">
      <!-- $\mathdefault{−1}$ -->
      <g transform="translate(7.2 246.787441)scale(0.14 -0.14)">
       <use transform="scale(1.038107)" xlink:href="#CMSY10-0"/>
       <use transform="translate(81.941696 0)scale(0.996264)" xlink:href="#URW_Palladio_L_Roman-49"/>
      </g>
     </g>
    </g>
    <g id="ytick_11">
     <g id="line2d_94">
      <path clip-path="url(#p78c773fd0e)" d="M 41.145691 221.099775 
L 577.19952 221.099775 
" style="fill:none;stroke:#000000;stroke-linecap:square;stroke-opacity:0.2;stroke-width:0.5;"/>
     </g>
     <g id="line2d_95">
      <g>
       <use style="fill-opacity:0.2;stroke:#000000;stroke-opacity:0.2;stroke-width:0.8;" x="41.145691" xlink:href="#m15ccd009f3" y="221.099775"/>
      </g>
     </g>
     <g id="text_23">
      <!-- $\mathdefault{0}$ -->
      <g transform="translate(18.671843 226.089539)scale(0.14 -0.14)">
       <use transform="scale(0.996264)" xlink:href="#URW_Palladio_L_Roman-48"/>
      </g>
     </g>
    </g>
    <g id="ytick_12">
     <g id="line2d_96">
      <path clip-path="url(#p78c773fd0e)" d="M 41.145691 200.401872 
L 577.19952 200.401872 
" style="fill:none;stroke:#000000;stroke-linecap:square;stroke-opacity:0.2;stroke-width:0.5;"/>
     </g>
     <g id="line2d_97">
      <g>
       <use style="fill-opacity:0.2;stroke:#000000;stroke-opacity:0.2;stroke-width:0.8;" x="41.145691" xlink:href="#m15ccd009f3" y="200.401872"/>
      </g>
     </g>
     <g id="text_24">
      <!-- $\mathdefault{1}$ -->
      <g transform="translate(18.671843 205.391637)scale(0.14 -0.14)">
       <use transform="scale(0.996264)" xlink:href="#URW_Palladio_L_Roman-49"/>
      </g>
     </g>
    </g>
   </g>
   <g id="line2d_98">
    <g clip-path="url(#p78c773fd0e)">
     <use style="fill:#dc2830;" x="41.145691" xlink:href="#md08244dfba" y="200.401872"/>
     <use style="fill:#dc2830;" x="59.630306" xlink:href="#md08244dfba" y="204.35482"/>
     <use style="fill:#dc2830;" x="78.11492" xlink:href="#md08244dfba" y="214.703771"/>
     <use style="fill:#dc2830;" x="96.599535" xlink:href="#md08244dfba" y="227.495778"/>
     <use style="fill:#dc2830;" x="115.08415" xlink:href="#md08244dfba" y="237.844729"/>
     <use style="fill:#dc2830;" x="133.568765" xlink:href="#md08244dfba" y="241.797677"/>
     <use style="fill:#dc2830;" x="152.05338" xlink:href="#md08244dfba" y="237.844729"/>
     <use style="fill:#dc2830;" x="170.537994" xlink:href="#md08244dfba" y="227.495778"/>
     <use style="fill:#dc2830;" x="189.022609" xlink:href="#md08244dfba" y="214.703771"/>
     <use style="fill:#dc2830;" x="207.507224" xlink:href="#md08244dfba" y="204.35482"/>
     <use style="fill:#dc2830;" x="225.991839" xlink:href="#md08244dfba" y="200.401872"/>
     <use style="fill:#dc2830;" x="244.476454" xlink:href="#md08244dfba" y="204.35482"/>
     <use style="fill:#dc2830;" x="262.961068" xlink:href="#md08244dfba" y="214.703771"/>
     <use style="fill:#dc2830;" x="281.445683" xlink:href="#md08244dfba" y="227.495778"/>
     <use style="fill:#dc2830;" x="299.930298" xlink:href="#md08244dfba" y="237.844729"/>
     <use style="fill:#dc2830;" x="318.414913" xlink:href="#md08244dfba" y="241.797677"/>
     <use style="fill:#dc2830;" x="336.899528" xlink:href="#md08244dfba" y="237.844729"/>
     <use style="fill:#dc2830;" x="355.384142" xlink:href="#md08244dfba" y="227.495778"/>
     <use style="fill:#dc2830;" x="373.868757" xlink:href="#md08244dfba" y="214.703771"/>
     <use style="fill:#dc2830;" x="392.353372" xlink:href="#md08244dfba" y="204.35482"/>
     <use style="fill:#dc2830;" x="410.837987" xlink:href="#md08244dfba" y="200.401872"/>
     <use style="fill:#dc2830;" x="429.322602" xlink:href="#md08244dfba" y="204.35482"/>
     <use style="fill:#dc2830;" x="447.807216" xlink:href="#md08244dfba" y="214.703771"/>
     <use style="fill:#dc2830;" x="466.291831" xlink:href="#md08244dfba" y="227.495778"/>
     <use style="fill:#dc2830;" x="484.776446" xlink:href="#md08244dfba" y="237.844729"/>
     <use style="fill:#dc2830;" x="503.261061" xlink:href="#md08244dfba" y="241.797677"/>
     <use style="fill:#dc2830;" x="521.745676" xlink:href="#md08244dfba" y="237.844729"/>
     <use style="fill:#dc2830;" x="540.23029" xlink:href="#md08244dfba" y="227.495778"/>
     <use style="fill:#dc2830;" x="558.714905" xlink:href="#md08244dfba" y="214.703771"/>
     <use style="fill:#dc2830;" x="577.19952" xlink:href="#md08244dfba" y="204.35482"/>
    </g>
   </g>
   <g id="legend_4">
    <g id="patch_9">
     <path d="M 499.205172 236.867467 
L 567.39952 236.867467 
Q 570.19952 236.867467 570.19952 234.067467 
L 570.19952 213.896482 
Q 570.19952 211.096482 567.39952 211.096482 
L 499.205172 211.096482 
Q 496.405172 211.096482 496.405172 213.896482 
L 496.405172 234.067467 
Q 496.405172 236.867467 499.205172 236.867467 
z
" style="fill:#ffffff;opacity:0.95;stroke:#cccccc;stroke-linejoin:miter;stroke-width:0.5;"/>
    </g>
    <g id="line2d_99"/>
    <g id="line2d_100">
     <g>
      <use style="fill:#dc2830;" x="509.005172" xlink:href="#md08244dfba" y="222.434294"/>
     </g>
    </g>
    <g id="text_25">
     <!-- $m=3$ -->
     <g transform="translate(527.205172 227.334294)scale(0.14 -0.14)">
      <defs>
       <path d="M 4.296875 49.953125 
L 7.40625 49.953125 
L 9.203125 55.53125 
C 10.296875 58.90625 16.59375 62.296875 21.796875 62.296875 
C 28.296875 62.296875 33.59375 57.015625 33.59375 50.75 
C 33.59375 43.28125 27.703125 37 20.59375 37 
C 19.796875 37 18.703125 37 17.40625 37.203125 
L 15.90625 37.203125 
L 14.703125 31.984375 
L 15.40625 31.375 
C 19.203125 33.09375 21.09375 33.59375 23.796875 33.59375 
C 32.09375 33.59375 36.90625 28.265625 36.90625 19.09375 
C 36.90625 8.84375 30.796875 2.109375 21.5 2.109375 
C 16.90625 2.109375 12.796875 3.609375 9.796875 6.421875 
C 7.40625 8.640625 6.09375 10.953125 4.203125 16.390625 
L 1.5 15.390625 
C 3.59375 9.265625 4.40625 5.640625 5 0.609375 
C 10.296875 -1.203125 14.703125 -2 18.40625 -2 
C 26.40625 -2 35.59375 2.515625 41.09375 9.265625 
C 44.5 13.390625 46.203125 17.8125 46.203125 22.53125 
C 46.203125 27.359375 44.203125 31.59375 40.59375 34.09375 
C 38.09375 35.90625 35.796875 36.71875 30.796875 37.609375 
C 38.796875 43.796875 41.796875 48.375 41.796875 54.25 
C 41.796875 63.125 34.40625 69 23.296875 69 
C 16.5 69 12 67.109375 7.203125 62.328125 
z
" id="URW_Palladio_L_Roman-51"/>
      </defs>
      <use transform="scale(0.996264)" xlink:href="#URW_Palladio_L_Italic-109"/>
      <use transform="translate(107.673966 0)scale(1.038107)" xlink:href="#CMR10-61"/>
      <use transform="translate(217.289595 0)scale(0.996264)" xlink:href="#URW_Palladio_L_Roman-51"/>
     </g>
    </g>
   </g>
  </g>
 </g>
 <defs>
  <clipPath id="p836bff705d">
   <rect height="45.535385" width="536.053829" x="41.145691" y="10.119974"/>
  </clipPath>
  <clipPath id="pb121b6fd38">
   <rect height="45.535385" width="536.053829" x="41.145691" y="72.857344"/>
  </clipPath>
  <clipPath id="peb0f0ef638">
   <rect height="45.535385" width="536.053829" x="41.145691" y="135.594713"/>
  </clipPath>
  <clipPath id="p78c773fd0e">
   <rect height="45.535385" width="536.053829" x="41.145691" y="198.332082"/>
  </clipPath>
 </defs>
</svg>
