<?xml version="1.0" encoding="utf-8" standalone="no"?>
<!DOCTYPE svg PUBLIC "-//W3C//DTD SVG 1.1//EN"
  "http://www.w3.org/Graphics/SVG/1.1/DTD/svg11.dtd">
<svg xmlns:xlink="http://www.w3.org/1999/xlink" width="290.39904pt" height="152.39952pt" viewBox="0 0 290.39904 152.39952" xmlns="http://www.w3.org/2000/svg" version="1.1">
 <metadata>
  <rdf:RDF xmlns:dc="http://purl.org/dc/elements/1.1/" xmlns:cc="http://creativecommons.org/ns#" xmlns:rdf="http://www.w3.org/1999/02/22-rdf-syntax-ns#">
   <cc:Work>
    <dc:type rdf:resource="http://purl.org/dc/dcmitype/StillImage"/>
    <dc:date>2023-04-20T14:54:05.319811</dc:date>
    <dc:format>image/svg+xml</dc:format>
    <dc:creator>
     <cc:Agent>
      <dc:title>Matplotlib v3.5.2, https://matplotlib.org/</dc:title>
     </cc:Agent>
    </dc:creator>
   </cc:Work>
  </rdf:RDF>
 </metadata>
 <defs>
  <style type="text/css">*{stroke-linejoin: round; stroke-linecap: butt}</style>
 </defs>
 <g id="figure_1">
  <g id="patch_1">
   <path d="M 0 152.39952 
L 290.39904 152.39952 
L 290.39904 0 
L 0 0 
L 0 152.39952 
z
" style="fill: none"/>
  </g>
  <g id="axes_1">
   <g id="patch_2">
    <path d="M 7.2 145.19952 
L 283.19904 145.19952 
L 283.19904 7.2 
L 7.2 7.2 
L 7.2 145.19952 
z
" style="fill: none"/>
   </g>
   <g id="matplotlib.axis_1"/>
   <g id="matplotlib.axis_2"/>
   <g id="patch_3">
    <path d="M 69.927055 138.926815 
C 69.927055 134.541396 69.352186 130.174838 68.217157 125.938849 
C 67.082127 121.702861 65.396698 117.633876 63.203989 113.835993 
L 19.745411 138.926815 
L 69.927055 138.926815 
z
" clip-path="url(#pf4b78ea002)" style="fill: #6e3b87"/>
   </g>
   <g id="patch_4">
    <path d="M 204.444368 32.290822 
C 207.747392 38.011826 212.499181 42.763616 218.220186 46.066639 
C 223.94119 49.369663 230.432255 51.108938 237.038302 51.108938 
L 237.038302 13.472705 
L 204.444368 32.290822 
z
" clip-path="url(#pf4b78ea002)" style="fill: #007d4d"/>
   </g>
   <g id="patch_5">
    <path d="M 237.038302 138.926815 
L 224.492891 138.926815 
L 224.492891 126.381404 
L 237.038302 126.381404 
z
" clip-path="url(#pf4b78ea002)" style="fill: #ffffff; stroke: #000000; stroke-width: 2; stroke-linejoin: miter"/>
   </g>
   <g id="line2d_1">
    <path d="M 19.745411 138.926815 
L 237.038302 13.472705 
" clip-path="url(#pf4b78ea002)" style="fill: none; stroke: #0271ae; stroke-width: 4; stroke-linecap: round"/>
   </g>
   <g id="line2d_2">
    <path d="M 19.745411 138.926815 
L 237.038302 138.926815 
" clip-path="url(#pf4b78ea002)" style="fill: none; stroke: #dc2830; stroke-width: 4; stroke-linecap: round"/>
   </g>
   <g id="line2d_3">
    <path d="M 237.038302 138.926815 
L 237.038302 13.472705 
" clip-path="url(#pf4b78ea002)" style="fill: none; stroke: #f2aa00; stroke-width: 4; stroke-linecap: round"/>
   </g>
   <g id="text_1">
    <!-- $\theta$ -->
    <g style="fill: #6e3b87" transform="translate(74.945219 126.381404)scale(0.1 -0.1)">
     <defs>
      <path id="PazoMath-Italic-71" d="M 2029 4544 
C 1754 4544 1472 4409 1178 4122 
C 608 3580 186 2616 186 1442 
C 186 427 390 -64 928 -64 
C 1267 -64 1664 172 1965 555 
C 2400 1110 2797 2163 2797 3127 
C 2797 4013 2554 4544 2029 4544 
z
M 1478 2112 
C 1914 2112 2093 2092 2202 2041 
C 2061 1397 1824 823 1619 491 
C 1491 294 1318 179 1126 179 
C 742 179 672 670 672 1429 
C 672 1627 685 1831 717 2035 
C 851 2092 1024 2112 1478 2112 
z
M 1869 4300 
C 2272 4300 2310 3777 2310 2986 
C 2310 2808 2298 2623 2272 2444 
C 2144 2399 1946 2380 1523 2380 
C 1088 2380 902 2399 787 2444 
C 954 3197 1248 3886 1478 4154 
C 1568 4249 1715 4300 1869 4300 
z
" transform="scale(0.015625)"/>
     </defs>
     <use xlink:href="#PazoMath-Italic-71" transform="scale(0.996264)"/>
    </g>
   </g>
   <g id="text_2">
    <!-- $\frac{\pi}{2} - \theta$ -->
    <g style="fill: #007d4d" transform="translate(199.402069 63.654349)scale(0.1 -0.1)">
     <defs>
      <path id="PazoMath-Italic-70" d="M 614 2255 
L 672 2299 
C 806 2681 1062 2700 1427 2700 
C 1504 2700 1619 2694 1754 2694 
C 1216 1242 973 803 454 -7 
L 512 -64 
L 986 102 
C 1216 599 1606 1567 1958 2688 
L 3149 2624 
C 3040 2232 2669 1089 2669 685 
C 2669 19 2912 -64 3110 -64 
C 3437 -64 3622 19 4026 356 
L 3974 476 
L 3821 369 
C 3840 382 3654 236 3546 236 
C 3245 236 3155 419 3155 811 
C 3155 969 3168 1139 3206 1323 
C 3315 1847 3424 2365 3482 2624 
C 3629 2624 3776 2630 3923 2649 
C 4038 2649 4179 2713 4282 2752 
C 4352 2905 4378 2918 4499 3072 
L 4454 3136 
C 4282 3075 3994 3008 3782 3008 
C 3706 3001 3546 2995 3386 2995 
C 2701 3020 1645 3072 1363 3072 
C 883 3072 710 2860 525 2306 
L 614 2255 
z
" transform="scale(0.015625)"/>
      <path id="URWPalladioL-Roma-32" d="M 102 166 
L 102 0 
C 1299 0 1299 0 1530 0 
C 1760 19 1760 19 2995 0 
C 2982 134 2982 198 2982 287 
C 2982 370 2982 434 2995 574 
C 2259 542 1965 536 781 510 
L 1946 1741 
C 2566 2398 2758 2749 2758 3228 
C 2758 3961 2259 4416 1446 4416 
C 986 4416 672 4287 358 3967 
L 250 3100 
L 435 3100 
L 518 3394 
C 621 3763 851 3923 1280 3923 
C 1830 3923 2182 3578 2182 3036 
C 2182 2558 1914 2086 1190 1320 
L 102 166 
z
" transform="scale(0.015625)"/>
      <path id="CMSY10-0" d="M 4218 1472 
C 4326 1472 4442 1472 4442 1600 
C 4442 1728 4326 1728 4218 1728 
L 755 1728 
C 646 1728 531 1728 531 1600 
C 531 1472 646 1472 755 1472 
L 4218 1472 
z
" transform="scale(0.015625)"/>
     </defs>
     <use xlink:href="#PazoMath-Italic-70" transform="translate(0.946417 39.252796)scale(0.757155)"/>
     <use xlink:href="#URWPalladioL-Roma-32" transform="translate(8.631162 -34.371108)scale(0.757155)"/>
     <use xlink:href="#CMSY10-0" transform="translate(76.932633 0)scale(1.038107)"/>
     <use xlink:href="#PazoMath-Italic-71" transform="translate(179.491382 0)scale(0.996264)"/>
     <path d="M 0 22.914087 
L 55.120067 22.914087 
L 55.120067 26.899128 
L 0 26.899128 
L 0 22.914087 
z
"/>
    </g>
   </g>
   <g id="text_3">
    <!-- $\frac{\pi}{2}$ -->
    <g transform="translate(211.94748 126.381404)scale(0.1 -0.1)">
     <use xlink:href="#PazoMath-Italic-70" transform="translate(0.946417 39.252796)scale(0.757155)"/>
     <use xlink:href="#URWPalladioL-Roma-32" transform="translate(8.631162 -34.371108)scale(0.757155)"/>
     <path d="M 0 22.914087 
L 55.120067 22.914087 
L 55.120067 26.899128 
L 0 26.899128 
L 0 22.914087 
z
"/>
    </g>
   </g>
  </g>
 </g>
 <defs>
  <clipPath id="pf4b78ea002">
   <rect x="7.2" y="7.2" width="275.99904" height="137.99952"/>
  </clipPath>
 </defs>
</svg>