<?xml version="1.0" encoding="utf-8" standalone="no"?>
<!DOCTYPE svg PUBLIC "-//W3C//DTD SVG 1.1//EN"
  "http://www.w3.org/Graphics/SVG/1.1/DTD/svg11.dtd">
<svg xmlns:xlink="http://www.w3.org/1999/xlink" width="449.314991pt" height="342.178319pt" viewBox="0 0 449.314991 342.178319" xmlns="http://www.w3.org/2000/svg" version="1.1">
 <metadata>
  <rdf:RDF xmlns:dc="http://purl.org/dc/elements/1.1/" xmlns:cc="http://creativecommons.org/ns#" xmlns:rdf="http://www.w3.org/1999/02/22-rdf-syntax-ns#">
   <cc:Work>
    <dc:type rdf:resource="http://purl.org/dc/dcmitype/StillImage"/>
    <dc:date>2022-06-20T10:00:12.778058</dc:date>
    <dc:format>image/svg+xml</dc:format>
    <dc:creator>
     <cc:Agent>
      <dc:title>Matplotlib v3.5.2, https://matplotlib.org/</dc:title>
     </cc:Agent>
    </dc:creator>
   </cc:Work>
  </rdf:RDF>
 </metadata>
 <defs>
  <style type="text/css">*{stroke-linejoin: round; stroke-linecap: butt}</style>
 </defs>
 <g id="figure_1">
  <g id="patch_1">
   <path d="M 0 342.178319 
L 449.314991 342.178319 
L 449.314991 0 
L 0 0 
L 0 342.178319 
z
" style="fill: none"/>
  </g>
  <g id="axes_1">
   <g id="patch_2">
    <path d="M 7.2 124.204033 
L 254.66087 124.204033 
L 254.66087 89.258319 
L 7.2 89.258319 
L 7.2 124.204033 
z
" style="fill: none"/>
   </g>
   <g id="line2d_1">
    <path d="M 231.747826 99.742033 
L 240.913043 99.742033 
L 240.913043 106.731176 
L 250.078261 106.731176 
L 250.078261 106.731176 
" clip-path="url(#pba335ba57d)" style="fill: none; stroke: #343837; stroke-width: 2; stroke-linecap: round"/>
    <defs>
     <path id="m9d60b19802" d="M 0 3.5 
C 0.928211 3.5 1.81853 3.131218 2.474874 2.474874 
C 3.131218 1.81853 3.5 0.928211 3.5 0 
C 3.5 -0.928211 3.131218 -1.81853 2.474874 -2.474874 
C 1.81853 -3.131218 0.928211 -3.5 0 -3.5 
C -0.928211 -3.5 -1.81853 -3.131218 -2.474874 -2.474874 
C -3.131218 -1.81853 -3.5 -0.928211 -3.5 0 
C -3.5 0.928211 -3.131218 1.81853 -2.474874 2.474874 
C -1.81853 3.131218 -0.928211 3.5 0 3.5 
z
" style="stroke: #fefefa; stroke-width: 1.5"/>
    </defs>
    <g clip-path="url(#pba335ba57d)">
     <use xlink:href="#m9d60b19802" x="231.747826" y="99.742033" style="fill: #343837; stroke: #fefefa; stroke-width: 1.5"/>
     <use xlink:href="#m9d60b19802" x="240.913043" y="106.731176" style="fill: #343837; stroke: #fefefa; stroke-width: 1.5"/>
     <use xlink:href="#m9d60b19802" x="250.078261" y="106.731176" style="fill: #343837; stroke: #fefefa; stroke-width: 1.5"/>
    </g>
   </g>
   <g id="matplotlib.axis_1">
    <g id="xtick_1">
     <g id="line2d_2">
      <path d="M 11.782609 124.204033 
L 11.782609 89.258319 
" clip-path="url(#pba335ba57d)" style="fill: none; stroke: #000000; stroke-opacity: 0.2; stroke-width: 0.5; stroke-linecap: round"/>
     </g>
     <g id="line2d_3">
      <defs>
       <path id="mcce149cf65" d="M 0 0 
L 0 -3.5 
" style="stroke: #000000; stroke-opacity: 0.2; stroke-width: 0.5"/>
      </defs>
      <g>
       <use xlink:href="#mcce149cf65" x="11.782609" y="89.258319" style="fill-opacity: 0.2; stroke: #000000; stroke-opacity: 0.2; stroke-width: 0.5"/>
      </g>
     </g>
     <g id="text_1">
      <!-- 0 -->
      <g transform="translate(18.839202 70.977146)rotate(-45)scale(0.14 -0.14)">
       <defs>
        <path id="URWPalladioL-Roma-30" d="M 1683 4416 
C 691 4416 186 3628 186 2076 
C 186 1326 320 679 544 365 
C 768 51 1126 -128 1523 -128 
C 2490 -128 2976 704 2976 2345 
C 2976 3749 2560 4416 1683 4416 
z
M 1568 4191 
C 2189 4191 2438 3563 2438 2025 
C 2438 660 2195 96 1606 96 
C 986 96 723 743 723 2307 
C 723 3660 960 4191 1568 4191 
z
" transform="scale(0.015625)"/>
       </defs>
       <use xlink:href="#URWPalladioL-Roma-30" transform="scale(0.996264)"/>
      </g>
     </g>
    </g>
    <g id="xtick_2">
     <g id="line2d_4">
      <path d="M 30.113043 124.204033 
L 30.113043 89.258319 
" clip-path="url(#pba335ba57d)" style="fill: none; stroke: #000000; stroke-opacity: 0.2; stroke-width: 0.5; stroke-linecap: round"/>
     </g>
     <g id="line2d_5">
      <g>
       <use xlink:href="#mcce149cf65" x="30.113043" y="89.258319" style="fill-opacity: 0.2; stroke: #000000; stroke-opacity: 0.2; stroke-width: 0.5"/>
      </g>
     </g>
     <g id="text_2">
      <!-- $K-1$ -->
      <g transform="translate(37.169636 70.977146)rotate(-45)scale(0.14 -0.14)">
       <defs>
        <path id="URWPalladioL-Ital-4b" d="M 2374 4237 
L 2394 4416 
L 2240 4416 
L 1664 4396 
C 1562 4396 1446 4396 1171 4403 
L 762 4416 
L 742 4237 
L 1043 4224 
C 1197 4218 1267 4167 1267 4053 
C 1267 3964 1248 3780 1210 3570 
L 742 813 
C 634 229 627 223 371 197 
L 109 178 
L 83 0 
L 352 6 
C 659 -7 806 0 928 0 
L 1549 0 
L 1715 0 
L 1734 179 
L 1421 198 
C 1248 211 1190 256 1190 384 
C 1190 422 1197 492 1203 518 
L 1478 2195 
C 2438 1100 2586 915 3258 0 
L 3699 0 
C 3930 12 3968 6 4134 0 
L 4134 191 
L 4006 191 
C 3859 191 3731 267 3597 432 
L 2022 2351 
L 3891 4085 
C 3994 4180 4128 4243 4237 4243 
L 4371 4243 
L 4371 4416 
L 4224 4409 
C 4090 4403 3987 4396 3936 4396 
C 3872 4396 3770 4403 3635 4409 
L 3507 4416 
L 3507 4231 
C 3507 4180 3443 4097 3264 3919 
L 2445 3094 
C 2163 2808 1901 2579 1491 2262 
L 1779 3913 
C 1824 4154 1869 4199 2106 4218 
L 2374 4237 
z
" transform="scale(0.015625)"/>
        <path id="CMSY10-0" d="M 4218 1472 
C 4326 1472 4442 1472 4442 1600 
C 4442 1728 4326 1728 4218 1728 
L 755 1728 
C 646 1728 531 1728 531 1600 
C 531 1472 646 1472 755 1472 
L 4218 1472 
z
" transform="scale(0.015625)"/>
        <path id="URWPalladioL-Roma-31" d="M 429 3571 
L 493 3571 
L 1318 3942 
C 1325 3949 1331 3949 1338 3949 
C 1376 3949 1389 3891 1389 3737 
L 1389 633 
C 1389 300 1318 230 973 211 
L 614 192 
L 614 0 
C 1600 0 1600 0 1670 0 
C 1754 0 1894 0 2112 -7 
C 2189 6 2413 6 2675 0 
L 2675 192 
L 2342 211 
C 1990 229 1926 299 1926 628 
L 1926 4383 
L 1837 4416 
C 1421 4199 966 4009 384 3807 
L 429 3571 
z
" transform="scale(0.015625)"/>
       </defs>
       <use xlink:href="#URWPalladioL-Ital-4b" transform="scale(0.996264)"/>
       <use xlink:href="#CMSY10-0" transform="translate(89.906199 0)scale(1.038107)"/>
       <use xlink:href="#URWPalladioL-Roma-31" transform="translate(191.219648 0)scale(0.996264)"/>
      </g>
     </g>
    </g>
    <g id="xtick_3">
     <g id="line2d_6">
      <path d="M 231.747826 124.204033 
L 231.747826 89.258319 
" clip-path="url(#pba335ba57d)" style="fill: none; stroke: #000000; stroke-opacity: 0.2; stroke-width: 0.5; stroke-linecap: round"/>
     </g>
     <g id="line2d_7">
      <g>
       <use xlink:href="#mcce149cf65" x="231.747826" y="89.258319" style="fill-opacity: 0.2; stroke: #000000; stroke-opacity: 0.2; stroke-width: 0.5"/>
      </g>
     </g>
     <g id="text_3">
      <!-- $N-1$ -->
      <g transform="translate(238.804419 70.977146)rotate(-45)scale(0.14 -0.14)">
       <defs>
        <path id="URWPalladioL-Ital-4e" d="M 1517 4416 
L 998 4396 
L 934 4396 
L 845 4396 
C 826 4396 730 4403 582 4409 
L 480 4416 
L 448 4237 
L 672 4224 
C 781 4218 922 4173 992 4116 
C 1088 4040 1184 3919 1184 3869 
C 1184 3862 1184 3843 1178 3824 
C 1178 3818 1178 3805 1171 3792 
C 1165 3742 1158 3697 1152 3678 
L 589 667 
C 512 274 474 223 243 197 
L 45 178 
L 13 0 
L 723 19 
C 800 19 806 19 1427 0 
L 1459 178 
L 1190 197 
C 934 216 877 267 877 477 
C 877 528 883 598 896 667 
L 1408 3615 
L 3571 -64 
L 3891 -64 
L 4493 3459 
C 4627 4179 4640 4205 4877 4224 
L 5114 4237 
L 5146 4416 
L 5011 4416 
L 4442 4396 
L 3891 4416 
L 3770 4416 
L 3738 4237 
L 4038 4224 
C 4205 4217 4269 4173 4269 4071 
C 4269 4026 4250 3861 4237 3778 
L 3725 662 
L 1517 4416 
z
" transform="scale(0.015625)"/>
       </defs>
       <use xlink:href="#URWPalladioL-Ital-4e" transform="scale(0.996264)"/>
       <use xlink:href="#CMSY10-0" transform="translate(102.460211 0)scale(1.038107)"/>
       <use xlink:href="#URWPalladioL-Roma-31" transform="translate(203.77366 0)scale(0.996264)"/>
      </g>
     </g>
    </g>
    <g id="xtick_4">
     <g id="line2d_8">
      <path d="M 250.078261 124.204033 
L 250.078261 89.258319 
" clip-path="url(#pba335ba57d)" style="fill: none; stroke: #000000; stroke-opacity: 0.2; stroke-width: 0.5; stroke-linecap: round"/>
     </g>
     <g id="line2d_9">
      <g>
       <use xlink:href="#mcce149cf65" x="250.078261" y="89.258319" style="fill-opacity: 0.2; stroke: #000000; stroke-opacity: 0.2; stroke-width: 0.5"/>
      </g>
     </g>
     <g id="text_4">
      <!-- $N+K-1$ -->
      <g transform="translate(257.134854 70.977146)rotate(-45)scale(0.14 -0.14)">
       <defs>
        <path id="CMR10-2b" d="M 2618 1472 
L 4403 1472 
C 4493 1472 4614 1472 4614 1600 
C 4614 1728 4493 1728 4403 1728 
L 2618 1728 
L 2618 3501 
C 2618 3590 2618 3712 2490 3712 
C 2362 3712 2362 3590 2362 3501 
L 2362 1728 
L 570 1728 
C 480 1728 358 1728 358 1600 
C 358 1472 480 1472 570 1472 
L 2362 1472 
L 2362 -308 
C 2362 -397 2362 -519 2490 -519 
C 2618 -519 2618 -397 2618 -308 
L 2618 1472 
z
" transform="scale(0.015625)"/>
       </defs>
       <use xlink:href="#URWPalladioL-Ital-4e" transform="scale(0.996264)"/>
       <use xlink:href="#CMR10-2b" transform="translate(102.460211 0)scale(1.038107)"/>
       <use xlink:href="#URWPalladioL-Ital-4b" transform="translate(205.118638 0)scale(0.996264)"/>
       <use xlink:href="#CMSY10-0" transform="translate(295.024837 0)scale(1.038107)"/>
       <use xlink:href="#URWPalladioL-Roma-31" transform="translate(396.338286 0)scale(0.996264)"/>
      </g>
     </g>
    </g>
    <g id="text_5">
     <!-- Sample indices -->
     <g transform="translate(91.173973 15.753876)scale(0.12 -0.12)">
      <defs>
       <path id="URWPalladioL-Roma-53" d="M 2861 3371 
C 2861 3711 2886 3929 2950 4275 
C 2438 4479 2150 4544 1798 4544 
C 845 4544 154 3942 154 3102 
C 154 2788 237 2557 422 2384 
C 640 2185 934 2083 1555 1999 
C 2048 1929 2272 1858 2438 1711 
C 2605 1576 2682 1390 2682 1147 
C 2682 570 2202 153 1536 153 
C 1024 153 525 403 493 666 
L 442 1095 
L 237 1095 
C 243 980 243 877 243 839 
C 243 544 230 403 192 115 
C 557 -45 928 -128 1299 -128 
C 2413 -128 3219 544 3219 1474 
C 3219 1775 3136 1986 2957 2153 
C 2733 2365 2464 2448 1747 2544 
C 966 2647 691 2858 691 3352 
C 691 3890 1094 4275 1658 4275 
C 1907 4275 2144 4224 2317 4127 
C 2528 4018 2598 3922 2618 3736 
L 2656 3371 
L 2861 3371 
z
" transform="scale(0.015625)"/>
       <path id="URWPalladioL-Roma-61" d="M 2074 544 
L 2042 0 
C 2458 0 2458 0 2541 0 
C 2573 19 2733 12 3014 0 
L 3014 192 
L 2765 204 
C 2611 211 2586 262 2586 576 
L 2586 1751 
C 2586 2688 2317 3027 1574 3027 
C 1299 3027 1043 2956 800 2809 
L 461 2604 
L 461 2187 
L 627 2142 
L 710 2341 
C 845 2642 909 2688 1203 2688 
C 1805 2688 2054 2450 2074 1866 
L 1440 1751 
C 570 1590 205 1289 205 730 
C 205 224 506 -64 1011 -64 
C 1126 -64 1235 -45 1280 -13 
L 2074 544 
z
M 2074 806 
C 1888 544 1485 300 1235 300 
C 979 300 755 537 755 812 
C 755 1049 883 1273 1075 1395 
C 1235 1491 1587 1580 2074 1651 
L 2074 806 
z
" transform="scale(0.015625)"/>
       <path id="URWPalladioL-Roma-6d" d="M 115 2579 
L 352 2579 
C 608 2579 634 2534 634 2112 
L 634 672 
C 634 268 614 224 397 211 
L 102 192 
L 102 0 
C 717 0 736 0 915 0 
C 1094 19 1261 12 1677 0 
L 1677 192 
L 1408 211 
C 1190 223 1171 268 1171 670 
L 1171 2023 
C 1171 2311 1594 2624 1978 2624 
C 2323 2624 2560 2298 2560 1813 
L 2560 670 
C 2560 268 2541 223 2323 211 
L 2029 192 
L 2029 0 
C 2669 0 2669 0 2829 0 
C 2989 19 2989 19 3629 0 
L 3629 192 
L 3334 211 
C 3117 223 3098 268 3098 670 
L 3098 2023 
C 3098 2311 3520 2624 3904 2624 
C 4250 2624 4486 2298 4486 1813 
L 4486 0 
C 4877 0 4883 0 4992 0 
C 5075 19 5075 19 5562 0 
L 5562 192 
L 5261 211 
C 5043 223 5024 268 5024 670 
L 5024 1985 
C 5024 2617 4653 3014 4064 3014 
C 3840 3014 3654 2956 3539 2854 
L 3053 2419 
C 2848 2841 2586 3014 2144 3014 
C 1907 3014 1728 2956 1613 2854 
L 1171 2445 
L 1171 2988 
L 1114 3008 
C 787 2873 454 2783 115 2745 
L 115 2579 
z
" transform="scale(0.015625)"/>
       <path id="URWPalladioL-Roma-70" d="M 64 2566 
L 301 2566 
C 557 2566 582 2521 582 2100 
L 582 -1118 
C 582 -1523 563 -1568 346 -1581 
L 51 -1600 
L 51 -1792 
C 691 -1773 691 -1773 851 -1773 
C 1011 -1773 1011 -1773 1651 -1792 
L 1651 -1600 
L 1357 -1581 
C 1139 -1568 1120 -1523 1120 -1118 
L 1120 96 
C 1312 -20 1517 -64 1805 -64 
C 1990 -64 2157 -26 2259 38 
L 2989 511 
C 3245 677 3546 1334 3546 1743 
C 3546 2451 2957 3008 2214 3008 
C 1978 3008 1747 2943 1645 2847 
L 1120 2368 
L 1120 2982 
L 1062 3008 
C 736 2873 403 2783 64 2745 
L 64 2566 
z
M 1120 1966 
C 1120 2055 1152 2126 1235 2234 
C 1421 2470 1683 2591 2003 2591 
C 2605 2591 2989 2170 2989 1507 
C 2989 792 2560 262 1984 262 
C 1632 262 1370 377 1120 639 
L 1120 1966 
z
" transform="scale(0.015625)"/>
       <path id="URWPalladioL-Roma-6c" d="M 147 4249 
L 506 4249 
C 621 4249 666 4179 666 3987 
L 666 672 
C 666 268 646 224 429 211 
L 134 192 
L 134 0 
C 774 0 774 0 934 0 
C 1094 19 1094 19 1734 0 
L 1734 192 
L 1440 211 
C 1222 224 1203 268 1203 672 
L 1203 4614 
L 1146 4665 
C 864 4557 653 4505 147 4429 
L 147 4249 
z
" transform="scale(0.015625)"/>
       <path id="URWPalladioL-Roma-65" d="M 2797 447 
L 2714 511 
C 2304 268 2157 211 1882 211 
C 1466 211 1120 396 941 710 
C 819 921 774 1100 762 1472 
L 1696 1472 
C 2138 1472 2413 1491 2854 1561 
C 2861 1651 2867 1708 2867 1786 
C 2867 2526 2394 3008 1677 3008 
C 1440 3008 1165 2924 902 2771 
C 378 2468 166 2069 166 1401 
C 166 998 262 652 435 409 
C 691 70 1120 -128 1600 -128 
C 1837 -128 2074 -77 2336 38 
C 2509 108 2643 192 2669 230 
L 2797 447 
z
M 2298 1708 
C 1965 1696 1811 1689 1581 1689 
C 1286 1689 1120 1696 774 1728 
C 774 2030 800 2172 883 2339 
C 1018 2623 1293 2796 1600 2796 
C 1811 2796 1978 2713 2093 2539 
C 2234 2326 2278 2140 2298 1708 
z
" transform="scale(0.015625)"/>
       <path id="URWPalladioL-Roma-69" d="M 1203 2982 
L 1146 3008 
C 819 2873 486 2784 147 2746 
L 147 2568 
L 384 2568 
C 640 2568 666 2523 666 2103 
L 666 669 
C 666 268 646 223 429 211 
L 134 192 
L 134 0 
C 774 0 774 0 934 0 
C 1094 19 1094 19 1734 0 
L 1734 192 
L 1440 211 
C 1222 224 1203 268 1203 671 
L 1203 2982 
z
M 909 4416 
C 717 4416 550 4249 550 4057 
C 550 3871 717 3705 902 3705 
C 1088 3705 1261 3871 1261 4057 
C 1261 4236 1088 4416 909 4416 
z
" transform="scale(0.015625)"/>
       <path id="URWPalladioL-Roma-6e" d="M 2624 0 
C 3014 0 3021 0 3130 0 
C 3219 19 3219 19 3661 0 
L 3661 192 
L 3398 211 
C 3181 223 3162 262 3162 670 
L 3162 1902 
C 3162 2649 2810 3014 2093 3014 
C 1856 3014 1722 2969 1587 2854 
L 1101 2432 
L 1101 2988 
L 1043 3008 
C 717 2873 384 2784 45 2746 
L 45 2568 
L 282 2568 
C 538 2568 563 2523 563 2103 
L 563 669 
C 563 268 544 223 326 211 
L 38 192 
L 38 0 
C 474 -7 646 0 832 0 
C 1018 19 1190 12 1626 0 
L 1626 192 
L 1338 211 
C 1120 223 1101 268 1101 670 
L 1101 2023 
C 1101 2311 1523 2624 1914 2624 
C 2342 2624 2624 2304 2624 1813 
L 2624 0 
z
" transform="scale(0.015625)"/>
       <path id="URWPalladioL-Roma-64" d="M 2637 2803 
C 2278 2956 2099 3008 1875 3008 
C 1702 3008 1549 2969 1389 2886 
L 826 2592 
C 461 2400 224 1934 224 1392 
C 224 881 397 460 710 204 
C 928 19 1229 -64 1645 -64 
C 1773 -64 1920 -39 1952 -13 
L 2662 581 
L 2630 0 
C 2944 -7 3046 0 3123 0 
C 3174 0 3264 0 3398 -7 
C 3443 6 3571 6 3706 0 
L 3706 192 
L 3411 211 
C 3194 224 3174 268 3174 672 
L 3174 4614 
L 3117 4665 
C 2835 4557 2624 4505 2118 4429 
L 2118 4249 
L 2477 4249 
C 2592 4249 2637 4179 2637 3987 
L 2637 2803 
z
M 2637 1424 
C 2637 1009 2624 945 2541 798 
C 2362 498 2048 300 1747 300 
C 1184 300 781 843 781 1602 
C 781 2298 1126 2707 1702 2707 
C 1946 2707 2202 2624 2426 2470 
C 2560 2381 2637 2298 2637 2247 
L 2637 1424 
z
" transform="scale(0.015625)"/>
       <path id="URWPalladioL-Roma-63" d="M 2554 1995 
C 2554 2290 2586 2553 2643 2783 
C 2387 2937 2163 3008 1901 3008 
C 1594 3008 1235 2886 851 2643 
C 403 2360 166 1911 166 1347 
C 166 480 774 -128 1632 -128 
C 1965 -128 2445 -7 2509 89 
L 2643 294 
L 2579 390 
C 2342 262 2138 204 1907 204 
C 1197 204 730 756 730 1603 
C 730 2290 1050 2675 1626 2675 
C 1907 2675 2214 2547 2330 2386 
L 2374 1995 
L 2554 1995 
z
" transform="scale(0.015625)"/>
       <path id="URWPalladioL-Roma-73" d="M 262 917 
C 262 474 243 282 192 25 
C 525 -84 774 -128 1069 -128 
C 1907 -128 2502 320 2502 949 
C 2502 1148 2445 1295 2323 1423 
C 2157 1584 1946 1661 1382 1770 
C 858 1872 685 2001 685 2296 
C 685 2617 909 2796 1299 2796 
C 1728 2796 2054 2572 2054 2270 
L 2054 2123 
L 2234 2123 
C 2240 2495 2246 2649 2266 2847 
C 1926 2963 1696 3008 1434 3008 
C 691 3008 237 2655 237 2078 
C 237 1770 378 1552 672 1417 
C 845 1340 1184 1237 1619 1141 
C 1907 1077 2029 942 2029 698 
C 2029 352 1709 108 1254 108 
C 787 108 454 333 454 654 
L 454 917 
L 262 917 
z
" transform="scale(0.015625)"/>
      </defs>
      <use xlink:href="#URWPalladioL-Roma-53" transform="scale(0.996264)"/>
      <use xlink:href="#URWPalladioL-Roma-61" transform="translate(52.303815 0)scale(0.996264)"/>
      <use xlink:href="#URWPalladioL-Roma-6d" transform="translate(102.117015 0)scale(0.996264)"/>
      <use xlink:href="#URWPalladioL-Roma-70" transform="translate(190.08669 0)scale(0.996264)"/>
      <use xlink:href="#URWPalladioL-Roma-6c" transform="translate(249.961083 0)scale(0.996264)"/>
      <use xlink:href="#URWPalladioL-Roma-65" transform="translate(278.951445 0)scale(0.996264)"/>
      <use xlink:href="#URWPalladioL-Roma-69" transform="translate(351.57834 0)scale(0.996264)"/>
      <use xlink:href="#URWPalladioL-Roma-6e" transform="translate(380.568702 0)scale(0.996264)"/>
      <use xlink:href="#URWPalladioL-Roma-64" transform="translate(438.550762 0)scale(0.996264)"/>
      <use xlink:href="#URWPalladioL-Roma-69" transform="translate(499.422393 0)scale(0.996264)"/>
      <use xlink:href="#URWPalladioL-Roma-63" transform="translate(528.412755 0)scale(0.996264)"/>
      <use xlink:href="#URWPalladioL-Roma-65" transform="translate(572.646323 0)scale(0.996264)"/>
      <use xlink:href="#URWPalladioL-Roma-73" transform="translate(620.366618 0)scale(0.996264)"/>
     </g>
    </g>
   </g>
   <g id="matplotlib.axis_2">
    <g id="ytick_1">
     <g id="line2d_10">
      <path d="M 7.2 106.731176 
L 254.66087 106.731176 
" clip-path="url(#pba335ba57d)" style="fill: none; stroke: #000000; stroke-opacity: 0.2; stroke-width: 0.5; stroke-linecap: round"/>
     </g>
     <g id="line2d_11">
      <defs>
       <path id="m0a68ac9da3" d="M 0 0 
L -3.5 0 
" style="stroke: #000000; stroke-opacity: 0.2; stroke-width: 0.5"/>
      </defs>
      <g>
       <use xlink:href="#m0a68ac9da3" x="7.2" y="106.731176" style="fill-opacity: 0.2; stroke: #000000; stroke-opacity: 0.2; stroke-width: 0.5"/>
      </g>
     </g>
    </g>
   </g>
   <g id="line2d_12">
    <path d="M 11.782609 99.742033 
L 20.947826 99.742033 
L 20.947826 99.742033 
L 30.113043 99.742033 
L 30.113043 99.742033 
L 39.278261 99.742033 
L 39.278261 99.742033 
L 48.443478 99.742033 
L 48.443478 99.742033 
L 57.608696 99.742033 
L 57.608696 113.720319 
L 66.773913 113.720319 
L 66.773913 113.720319 
L 75.93913 113.720319 
L 75.93913 113.720319 
L 85.104348 113.720319 
L 85.104348 113.720319 
L 94.269565 113.720319 
L 94.269565 113.720319 
L 103.434783 113.720319 
L 103.434783 99.742033 
L 112.6 99.742033 
L 112.6 99.742033 
L 121.765217 99.742033 
L 121.765217 99.742033 
L 130.930435 99.742033 
L 130.930435 99.742033 
L 140.095652 99.742033 
L 140.095652 99.742033 
L 149.26087 99.742033 
L 149.26087 113.720319 
L 158.426087 113.720319 
L 158.426087 113.720319 
L 167.591304 113.720319 
L 167.591304 113.720319 
L 176.756522 113.720319 
L 176.756522 113.720319 
L 185.921739 113.720319 
L 185.921739 113.720319 
L 195.086957 113.720319 
L 195.086957 99.742033 
L 204.252174 99.742033 
L 204.252174 99.742033 
L 213.417391 99.742033 
L 213.417391 99.742033 
L 222.582609 99.742033 
L 222.582609 99.742033 
L 231.747826 99.742033 
L 231.747826 99.742033 
" clip-path="url(#pba335ba57d)" style="fill: none; stroke: #0271ae; stroke-width: 2; stroke-linecap: round"/>
    <defs>
     <path id="m07f7142a78" d="M 0 3.5 
C 0.928211 3.5 1.81853 3.131218 2.474874 2.474874 
C 3.131218 1.81853 3.5 0.928211 3.5 0 
C 3.5 -0.928211 3.131218 -1.81853 2.474874 -2.474874 
C 1.81853 -3.131218 0.928211 -3.5 0 -3.5 
C -0.928211 -3.5 -1.81853 -3.131218 -2.474874 -2.474874 
C -3.131218 -1.81853 -3.5 -0.928211 -3.5 0 
C -3.5 0.928211 -3.131218 1.81853 -2.474874 2.474874 
C -1.81853 3.131218 -0.928211 3.5 0 3.5 
z
" style="stroke: #fefefa; stroke-width: 1.5"/>
    </defs>
    <g clip-path="url(#pba335ba57d)">
     <use xlink:href="#m07f7142a78" x="11.782609" y="99.742033" style="fill: #0271ae; stroke: #fefefa; stroke-width: 1.5"/>
     <use xlink:href="#m07f7142a78" x="20.947826" y="99.742033" style="fill: #0271ae; stroke: #fefefa; stroke-width: 1.5"/>
     <use xlink:href="#m07f7142a78" x="30.113043" y="99.742033" style="fill: #0271ae; stroke: #fefefa; stroke-width: 1.5"/>
     <use xlink:href="#m07f7142a78" x="39.278261" y="99.742033" style="fill: #0271ae; stroke: #fefefa; stroke-width: 1.5"/>
     <use xlink:href="#m07f7142a78" x="48.443478" y="99.742033" style="fill: #0271ae; stroke: #fefefa; stroke-width: 1.5"/>
     <use xlink:href="#m07f7142a78" x="57.608696" y="113.720319" style="fill: #0271ae; stroke: #fefefa; stroke-width: 1.5"/>
     <use xlink:href="#m07f7142a78" x="66.773913" y="113.720319" style="fill: #0271ae; stroke: #fefefa; stroke-width: 1.5"/>
     <use xlink:href="#m07f7142a78" x="75.93913" y="113.720319" style="fill: #0271ae; stroke: #fefefa; stroke-width: 1.5"/>
     <use xlink:href="#m07f7142a78" x="85.104348" y="113.720319" style="fill: #0271ae; stroke: #fefefa; stroke-width: 1.5"/>
     <use xlink:href="#m07f7142a78" x="94.269565" y="113.720319" style="fill: #0271ae; stroke: #fefefa; stroke-width: 1.5"/>
     <use xlink:href="#m07f7142a78" x="103.434783" y="99.742033" style="fill: #0271ae; stroke: #fefefa; stroke-width: 1.5"/>
     <use xlink:href="#m07f7142a78" x="112.6" y="99.742033" style="fill: #0271ae; stroke: #fefefa; stroke-width: 1.5"/>
     <use xlink:href="#m07f7142a78" x="121.765217" y="99.742033" style="fill: #0271ae; stroke: #fefefa; stroke-width: 1.5"/>
     <use xlink:href="#m07f7142a78" x="130.930435" y="99.742033" style="fill: #0271ae; stroke: #fefefa; stroke-width: 1.5"/>
     <use xlink:href="#m07f7142a78" x="140.095652" y="99.742033" style="fill: #0271ae; stroke: #fefefa; stroke-width: 1.5"/>
     <use xlink:href="#m07f7142a78" x="149.26087" y="113.720319" style="fill: #0271ae; stroke: #fefefa; stroke-width: 1.5"/>
     <use xlink:href="#m07f7142a78" x="158.426087" y="113.720319" style="fill: #0271ae; stroke: #fefefa; stroke-width: 1.5"/>
     <use xlink:href="#m07f7142a78" x="167.591304" y="113.720319" style="fill: #0271ae; stroke: #fefefa; stroke-width: 1.5"/>
     <use xlink:href="#m07f7142a78" x="176.756522" y="113.720319" style="fill: #0271ae; stroke: #fefefa; stroke-width: 1.5"/>
     <use xlink:href="#m07f7142a78" x="185.921739" y="113.720319" style="fill: #0271ae; stroke: #fefefa; stroke-width: 1.5"/>
     <use xlink:href="#m07f7142a78" x="195.086957" y="99.742033" style="fill: #0271ae; stroke: #fefefa; stroke-width: 1.5"/>
     <use xlink:href="#m07f7142a78" x="204.252174" y="99.742033" style="fill: #0271ae; stroke: #fefefa; stroke-width: 1.5"/>
     <use xlink:href="#m07f7142a78" x="213.417391" y="99.742033" style="fill: #0271ae; stroke: #fefefa; stroke-width: 1.5"/>
     <use xlink:href="#m07f7142a78" x="222.582609" y="99.742033" style="fill: #0271ae; stroke: #fefefa; stroke-width: 1.5"/>
     <use xlink:href="#m07f7142a78" x="231.747826" y="99.742033" style="fill: #0271ae; stroke: #fefefa; stroke-width: 1.5"/>
    </g>
   </g>
   <g id="line2d_13">
    <path d="M 2.617391 106.731176 
L -1 106.731176 
" clip-path="url(#pba335ba57d)" style="fill: none; stroke: #343837; stroke-width: 2; stroke-linecap: round"/>
    <g clip-path="url(#pba335ba57d)">
     <use xlink:href="#m9d60b19802" x="2.617391" y="106.731176" style="fill: #343837; stroke: #fefefa; stroke-width: 1.5"/>
     <use xlink:href="#m9d60b19802" x="-1" y="106.731176" style="fill: #343837; stroke: #fefefa; stroke-width: 1.5"/>
    </g>
   </g>
  </g>
  <g id="axes_2">
   <g id="patch_3">
    <path d="M 269.217391 166.13889 
L 342 166.13889 
L 342 89.258319 
L 269.217391 89.258319 
L 269.217391 166.13889 
z
" style="fill: none"/>
   </g>
   <g id="matplotlib.axis_3">
    <g id="xtick_5">
     <g id="line2d_14">
      <path d="M 279.614907 166.13889 
L 279.614907 89.258319 
" clip-path="url(#p664aab9df7)" style="fill: none; stroke: #000000; stroke-opacity: 0.2; stroke-width: 0.5; stroke-linecap: round"/>
     </g>
     <g id="line2d_15">
      <g>
       <use xlink:href="#mcce149cf65" x="279.614907" y="89.258319" style="fill-opacity: 0.2; stroke: #000000; stroke-opacity: 0.2; stroke-width: 0.5"/>
      </g>
     </g>
     <g id="text_6">
      <!-- $\mathdefault{0}$ -->
      <g transform="translate(276.127983 69.825146)scale(0.14 -0.14)">
       <use xlink:href="#URWPalladioL-Roma-30" transform="scale(0.996264)"/>
      </g>
     </g>
    </g>
    <g id="xtick_6">
     <g id="line2d_16">
      <path d="M 305.608696 166.13889 
L 305.608696 89.258319 
" clip-path="url(#p664aab9df7)" style="fill: none; stroke: #000000; stroke-opacity: 0.2; stroke-width: 0.5; stroke-linecap: round"/>
     </g>
     <g id="line2d_17">
      <g>
       <use xlink:href="#mcce149cf65" x="305.608696" y="89.258319" style="fill-opacity: 0.2; stroke: #000000; stroke-opacity: 0.2; stroke-width: 0.5"/>
      </g>
     </g>
     <g id="text_7">
      <!-- $\mathdefault{1}$ -->
      <g transform="translate(302.121772 69.825146)scale(0.14 -0.14)">
       <use xlink:href="#URWPalladioL-Roma-31" transform="scale(0.996264)"/>
      </g>
     </g>
    </g>
    <g id="xtick_7">
     <g id="line2d_18">
      <path d="M 331.602484 166.13889 
L 331.602484 89.258319 
" clip-path="url(#p664aab9df7)" style="fill: none; stroke: #000000; stroke-opacity: 0.2; stroke-width: 0.5; stroke-linecap: round"/>
     </g>
     <g id="line2d_19">
      <g>
       <use xlink:href="#mcce149cf65" x="331.602484" y="89.258319" style="fill-opacity: 0.2; stroke: #000000; stroke-opacity: 0.2; stroke-width: 0.5"/>
      </g>
     </g>
     <g id="text_8">
      <!-- $\mathdefault{2}$ -->
      <g transform="translate(328.11556 69.825146)scale(0.14 -0.14)">
       <defs>
        <path id="URWPalladioL-Roma-32" d="M 102 166 
L 102 0 
C 1299 0 1299 0 1530 0 
C 1760 19 1760 19 2995 0 
C 2982 134 2982 198 2982 287 
C 2982 370 2982 434 2995 574 
C 2259 542 1965 536 781 510 
L 1946 1741 
C 2566 2398 2758 2749 2758 3228 
C 2758 3961 2259 4416 1446 4416 
C 986 4416 672 4287 358 3967 
L 250 3100 
L 435 3100 
L 518 3394 
C 621 3763 851 3923 1280 3923 
C 1830 3923 2182 3578 2182 3036 
C 2182 2558 1914 2086 1190 1320 
L 102 166 
z
" transform="scale(0.015625)"/>
       </defs>
       <use xlink:href="#URWPalladioL-Roma-32" transform="scale(0.996264)"/>
      </g>
     </g>
    </g>
   </g>
   <g id="matplotlib.axis_4">
    <g id="ytick_2">
     <g id="line2d_20">
      <path d="M 269.217391 166.13889 
L 342 166.13889 
" clip-path="url(#p664aab9df7)" style="fill: none; stroke: #000000; stroke-opacity: 0.2; stroke-width: 0.5; stroke-linecap: round"/>
     </g>
     <g id="line2d_21">
      <g>
       <use xlink:href="#m0a68ac9da3" x="269.217391" y="166.13889" style="fill-opacity: 0.2; stroke: #000000; stroke-opacity: 0.2; stroke-width: 0.5"/>
      </g>
     </g>
    </g>
    <g id="ytick_3">
     <g id="line2d_22">
      <path d="M 269.217391 153.325461 
L 342 153.325461 
" clip-path="url(#p664aab9df7)" style="fill: none; stroke: #000000; stroke-opacity: 0.2; stroke-width: 0.5; stroke-linecap: round"/>
     </g>
     <g id="line2d_23">
      <g>
       <use xlink:href="#m0a68ac9da3" x="269.217391" y="153.325461" style="fill-opacity: 0.2; stroke: #000000; stroke-opacity: 0.2; stroke-width: 0.5"/>
      </g>
     </g>
    </g>
    <g id="ytick_4">
     <g id="line2d_24">
      <path d="M 269.217391 140.512033 
L 342 140.512033 
" clip-path="url(#p664aab9df7)" style="fill: none; stroke: #000000; stroke-opacity: 0.2; stroke-width: 0.5; stroke-linecap: round"/>
     </g>
     <g id="line2d_25">
      <g>
       <use xlink:href="#m0a68ac9da3" x="269.217391" y="140.512033" style="fill-opacity: 0.2; stroke: #000000; stroke-opacity: 0.2; stroke-width: 0.5"/>
      </g>
     </g>
    </g>
    <g id="ytick_5">
     <g id="line2d_26">
      <path d="M 269.217391 127.698604 
L 342 127.698604 
" clip-path="url(#p664aab9df7)" style="fill: none; stroke: #000000; stroke-opacity: 0.2; stroke-width: 0.5; stroke-linecap: round"/>
     </g>
     <g id="line2d_27">
      <g>
       <use xlink:href="#m0a68ac9da3" x="269.217391" y="127.698604" style="fill-opacity: 0.2; stroke: #000000; stroke-opacity: 0.2; stroke-width: 0.5"/>
      </g>
     </g>
    </g>
    <g id="ytick_6">
     <g id="line2d_28">
      <path d="M 269.217391 114.885176 
L 342 114.885176 
" clip-path="url(#p664aab9df7)" style="fill: none; stroke: #000000; stroke-opacity: 0.2; stroke-width: 0.5; stroke-linecap: round"/>
     </g>
     <g id="line2d_29">
      <g>
       <use xlink:href="#m0a68ac9da3" x="269.217391" y="114.885176" style="fill-opacity: 0.2; stroke: #000000; stroke-opacity: 0.2; stroke-width: 0.5"/>
      </g>
     </g>
    </g>
    <g id="ytick_7">
     <g id="line2d_30">
      <path d="M 269.217391 102.071747 
L 342 102.071747 
" clip-path="url(#p664aab9df7)" style="fill: none; stroke: #000000; stroke-opacity: 0.2; stroke-width: 0.5; stroke-linecap: round"/>
     </g>
     <g id="line2d_31">
      <g>
       <use xlink:href="#m0a68ac9da3" x="269.217391" y="102.071747" style="fill-opacity: 0.2; stroke: #000000; stroke-opacity: 0.2; stroke-width: 0.5"/>
      </g>
     </g>
    </g>
    <g id="ytick_8">
     <g id="line2d_32">
      <path d="M 269.217391 89.258319 
L 342 89.258319 
" clip-path="url(#p664aab9df7)" style="fill: none; stroke: #000000; stroke-opacity: 0.2; stroke-width: 0.5; stroke-linecap: round"/>
     </g>
     <g id="line2d_33">
      <g>
       <use xlink:href="#m0a68ac9da3" x="269.217391" y="89.258319" style="fill-opacity: 0.2; stroke: #000000; stroke-opacity: 0.2; stroke-width: 0.5"/>
      </g>
     </g>
    </g>
   </g>
   <g id="patch_4">
    <path d="M 269.217391 127.698604 
L 290.012422 127.698604 
L 290.012422 114.885176 
L 269.217391 114.885176 
z
" clip-path="url(#p664aab9df7)" style="fill: #dc2830; stroke: #dc2830; stroke-width: 2; stroke-linejoin: miter"/>
   </g>
   <g id="patch_5">
    <path d="M 295.21118 127.698604 
L 316.006211 127.698604 
L 316.006211 127.698604 
L 295.21118 127.698604 
z
" clip-path="url(#p664aab9df7)" style="fill: #dc2830; stroke: #dc2830; stroke-width: 2; stroke-linejoin: miter"/>
   </g>
   <g id="patch_6">
    <path d="M 321.204969 127.698604 
L 342 127.698604 
L 342 140.512033 
L 321.204969 140.512033 
z
" clip-path="url(#p664aab9df7)" style="fill: #dc2830; stroke: #dc2830; stroke-width: 2; stroke-linejoin: miter"/>
   </g>
  </g>
  <g id="axes_3">
   <g id="patch_7">
    <path d="M 7.2 166.13889 
L 254.66087 166.13889 
L 254.66087 131.193176 
L 7.2 131.193176 
L 7.2 166.13889 
z
" style="fill: none"/>
   </g>
   <g id="patch_8">
    <path d="M 11.782609 166.13889 
L 11.782609 131.193176 
L 30.113043 131.193176 
L 30.113043 166.13889 
z
" clip-path="url(#p83c2455219)" style="fill: #343837; opacity: 0.1; stroke: #343837; stroke-width: 0.5; stroke-linejoin: miter"/>
   </g>
   <g id="patch_9">
    <path d="M 231.747826 166.13889 
L 231.747826 131.193176 
L 250.078261 131.193176 
L 250.078261 166.13889 
z
" clip-path="url(#p83c2455219)" style="fill: #343837; opacity: 0.1; stroke: #343837; stroke-width: 0.5; stroke-linejoin: miter"/>
   </g>
   <g id="matplotlib.axis_5">
    <g id="xtick_8">
     <g id="line2d_34">
      <path d="M 11.782609 166.13889 
L 11.782609 131.193176 
" clip-path="url(#p83c2455219)" style="fill: none; stroke: #000000; stroke-opacity: 0.2; stroke-width: 0.5; stroke-linecap: round"/>
     </g>
     <g id="line2d_35">
      <defs>
       <path id="m145f9a84fa" d="M 0 0 
L 0 3.5 
" style="stroke: #000000; stroke-opacity: 0.2; stroke-width: 0.5"/>
      </defs>
      <g>
       <use xlink:href="#m145f9a84fa" x="11.782609" y="166.13889" style="fill-opacity: 0.2; stroke: #000000; stroke-opacity: 0.2; stroke-width: 0.5"/>
      </g>
     </g>
    </g>
    <g id="xtick_9">
     <g id="line2d_36">
      <path d="M 30.113043 166.13889 
L 30.113043 131.193176 
" clip-path="url(#p83c2455219)" style="fill: none; stroke: #000000; stroke-opacity: 0.2; stroke-width: 0.5; stroke-linecap: round"/>
     </g>
     <g id="line2d_37">
      <g>
       <use xlink:href="#m145f9a84fa" x="30.113043" y="166.13889" style="fill-opacity: 0.2; stroke: #000000; stroke-opacity: 0.2; stroke-width: 0.5"/>
      </g>
     </g>
    </g>
    <g id="xtick_10">
     <g id="line2d_38">
      <path d="M 231.747826 166.13889 
L 231.747826 131.193176 
" clip-path="url(#p83c2455219)" style="fill: none; stroke: #000000; stroke-opacity: 0.2; stroke-width: 0.5; stroke-linecap: round"/>
     </g>
     <g id="line2d_39">
      <g>
       <use xlink:href="#m145f9a84fa" x="231.747826" y="166.13889" style="fill-opacity: 0.2; stroke: #000000; stroke-opacity: 0.2; stroke-width: 0.5"/>
      </g>
     </g>
    </g>
    <g id="xtick_11">
     <g id="line2d_40">
      <path d="M 250.078261 166.13889 
L 250.078261 131.193176 
" clip-path="url(#p83c2455219)" style="fill: none; stroke: #000000; stroke-opacity: 0.2; stroke-width: 0.5; stroke-linecap: round"/>
     </g>
     <g id="line2d_41">
      <g>
       <use xlink:href="#m145f9a84fa" x="250.078261" y="166.13889" style="fill-opacity: 0.2; stroke: #000000; stroke-opacity: 0.2; stroke-width: 0.5"/>
      </g>
     </g>
    </g>
   </g>
   <g id="matplotlib.axis_6">
    <g id="ytick_9">
     <g id="line2d_42">
      <path d="M 7.2 148.666033 
L 254.66087 148.666033 
" clip-path="url(#p83c2455219)" style="fill: none; stroke: #000000; stroke-opacity: 0.2; stroke-width: 0.5; stroke-linecap: round"/>
     </g>
     <g id="line2d_43">
      <g>
       <use xlink:href="#m0a68ac9da3" x="7.2" y="148.666033" style="fill-opacity: 0.2; stroke: #000000; stroke-opacity: 0.2; stroke-width: 0.5"/>
      </g>
     </g>
    </g>
   </g>
   <g id="line2d_44">
    <path d="M 11.782609 141.67689 
L 20.947826 141.67689 
L 20.947826 141.67689 
L 30.113043 141.67689 
L 30.113043 148.666033 
L 39.278261 148.666033 
L 39.278261 148.666033 
L 48.443478 148.666033 
L 48.443478 148.666033 
L 57.608696 148.666033 
L 57.608696 162.644319 
L 66.773913 162.644319 
L 66.773913 162.644319 
L 75.93913 162.644319 
L 75.93913 148.666033 
L 85.104348 148.666033 
L 85.104348 148.666033 
L 94.269565 148.666033 
L 94.269565 148.666033 
L 103.434783 148.666033 
L 103.434783 134.687747 
L 112.6 134.687747 
L 112.6 134.687747 
L 121.765217 134.687747 
L 121.765217 148.666033 
L 130.930435 148.666033 
L 130.930435 148.666033 
L 140.095652 148.666033 
L 140.095652 148.666033 
L 149.26087 148.666033 
L 149.26087 162.644319 
L 158.426087 162.644319 
L 158.426087 162.644319 
L 167.591304 162.644319 
L 167.591304 148.666033 
L 176.756522 148.666033 
L 176.756522 148.666033 
L 185.921739 148.666033 
L 185.921739 148.666033 
L 195.086957 148.666033 
L 195.086957 134.687747 
L 204.252174 134.687747 
L 204.252174 134.687747 
L 213.417391 134.687747 
L 213.417391 148.666033 
L 222.582609 148.666033 
L 222.582609 148.666033 
L 231.747826 148.666033 
L 231.747826 148.666033 
L 240.913043 148.666033 
L 240.913043 155.655176 
L 250.078261 155.655176 
L 250.078261 155.655176 
" clip-path="url(#p83c2455219)" style="fill: none; stroke: #6e3b87; stroke-width: 2; stroke-linecap: round"/>
    <defs>
     <path id="me99a3f2a3d" d="M 0 3.5 
C 0.928211 3.5 1.81853 3.131218 2.474874 2.474874 
C 3.131218 1.81853 3.5 0.928211 3.5 0 
C 3.5 -0.928211 3.131218 -1.81853 2.474874 -2.474874 
C 1.81853 -3.131218 0.928211 -3.5 0 -3.5 
C -0.928211 -3.5 -1.81853 -3.131218 -2.474874 -2.474874 
C -3.131218 -1.81853 -3.5 -0.928211 -3.5 0 
C -3.5 0.928211 -3.131218 1.81853 -2.474874 2.474874 
C -1.81853 3.131218 -0.928211 3.5 0 3.5 
z
" style="stroke: #fefefa; stroke-width: 1.5"/>
    </defs>
    <g clip-path="url(#p83c2455219)">
     <use xlink:href="#me99a3f2a3d" x="11.782609" y="141.67689" style="fill: #6e3b87; stroke: #fefefa; stroke-width: 1.5"/>
     <use xlink:href="#me99a3f2a3d" x="20.947826" y="141.67689" style="fill: #6e3b87; stroke: #fefefa; stroke-width: 1.5"/>
     <use xlink:href="#me99a3f2a3d" x="30.113043" y="148.666033" style="fill: #6e3b87; stroke: #fefefa; stroke-width: 1.5"/>
     <use xlink:href="#me99a3f2a3d" x="39.278261" y="148.666033" style="fill: #6e3b87; stroke: #fefefa; stroke-width: 1.5"/>
     <use xlink:href="#me99a3f2a3d" x="48.443478" y="148.666033" style="fill: #6e3b87; stroke: #fefefa; stroke-width: 1.5"/>
     <use xlink:href="#me99a3f2a3d" x="57.608696" y="162.644319" style="fill: #6e3b87; stroke: #fefefa; stroke-width: 1.5"/>
     <use xlink:href="#me99a3f2a3d" x="66.773913" y="162.644319" style="fill: #6e3b87; stroke: #fefefa; stroke-width: 1.5"/>
     <use xlink:href="#me99a3f2a3d" x="75.93913" y="148.666033" style="fill: #6e3b87; stroke: #fefefa; stroke-width: 1.5"/>
     <use xlink:href="#me99a3f2a3d" x="85.104348" y="148.666033" style="fill: #6e3b87; stroke: #fefefa; stroke-width: 1.5"/>
     <use xlink:href="#me99a3f2a3d" x="94.269565" y="148.666033" style="fill: #6e3b87; stroke: #fefefa; stroke-width: 1.5"/>
     <use xlink:href="#me99a3f2a3d" x="103.434783" y="134.687747" style="fill: #6e3b87; stroke: #fefefa; stroke-width: 1.5"/>
     <use xlink:href="#me99a3f2a3d" x="112.6" y="134.687747" style="fill: #6e3b87; stroke: #fefefa; stroke-width: 1.5"/>
     <use xlink:href="#me99a3f2a3d" x="121.765217" y="148.666033" style="fill: #6e3b87; stroke: #fefefa; stroke-width: 1.5"/>
     <use xlink:href="#me99a3f2a3d" x="130.930435" y="148.666033" style="fill: #6e3b87; stroke: #fefefa; stroke-width: 1.5"/>
     <use xlink:href="#me99a3f2a3d" x="140.095652" y="148.666033" style="fill: #6e3b87; stroke: #fefefa; stroke-width: 1.5"/>
     <use xlink:href="#me99a3f2a3d" x="149.26087" y="162.644319" style="fill: #6e3b87; stroke: #fefefa; stroke-width: 1.5"/>
     <use xlink:href="#me99a3f2a3d" x="158.426087" y="162.644319" style="fill: #6e3b87; stroke: #fefefa; stroke-width: 1.5"/>
     <use xlink:href="#me99a3f2a3d" x="167.591304" y="148.666033" style="fill: #6e3b87; stroke: #fefefa; stroke-width: 1.5"/>
     <use xlink:href="#me99a3f2a3d" x="176.756522" y="148.666033" style="fill: #6e3b87; stroke: #fefefa; stroke-width: 1.5"/>
     <use xlink:href="#me99a3f2a3d" x="185.921739" y="148.666033" style="fill: #6e3b87; stroke: #fefefa; stroke-width: 1.5"/>
     <use xlink:href="#me99a3f2a3d" x="195.086957" y="134.687747" style="fill: #6e3b87; stroke: #fefefa; stroke-width: 1.5"/>
     <use xlink:href="#me99a3f2a3d" x="204.252174" y="134.687747" style="fill: #6e3b87; stroke: #fefefa; stroke-width: 1.5"/>
     <use xlink:href="#me99a3f2a3d" x="213.417391" y="148.666033" style="fill: #6e3b87; stroke: #fefefa; stroke-width: 1.5"/>
     <use xlink:href="#me99a3f2a3d" x="222.582609" y="148.666033" style="fill: #6e3b87; stroke: #fefefa; stroke-width: 1.5"/>
     <use xlink:href="#me99a3f2a3d" x="231.747826" y="148.666033" style="fill: #6e3b87; stroke: #fefefa; stroke-width: 1.5"/>
     <use xlink:href="#me99a3f2a3d" x="240.913043" y="155.655176" style="fill: #6e3b87; stroke: #fefefa; stroke-width: 1.5"/>
     <use xlink:href="#me99a3f2a3d" x="250.078261" y="155.655176" style="fill: #6e3b87; stroke: #fefefa; stroke-width: 1.5"/>
    </g>
   </g>
  </g>
  <g id="axes_4">
   <g id="patch_10">
    <path d="M 7.2 208.073747 
L 254.66087 208.073747 
L 254.66087 173.128033 
L 7.2 173.128033 
L 7.2 208.073747 
z
" style="fill: none"/>
   </g>
   <g id="patch_11">
    <path d="M 11.782609 208.073747 
L 11.782609 173.128033 
L 30.113043 173.128033 
L 30.113043 208.073747 
z
" clip-path="url(#p0d9a80372b)" style="fill: #343837; opacity: 0.1; stroke: #343837; stroke-width: 0.5; stroke-linejoin: miter"/>
   </g>
   <g id="patch_12">
    <path d="M 231.747826 208.073747 
L 231.747826 173.128033 
L 250.078261 173.128033 
L 250.078261 208.073747 
z
" clip-path="url(#p0d9a80372b)" style="fill: #343837; opacity: 0.1; stroke: #343837; stroke-width: 0.5; stroke-linejoin: miter"/>
   </g>
   <g id="matplotlib.axis_7">
    <g id="xtick_12">
     <g id="line2d_45">
      <path d="M 11.782609 208.073747 
L 11.782609 173.128033 
" clip-path="url(#p0d9a80372b)" style="fill: none; stroke: #000000; stroke-opacity: 0.2; stroke-width: 0.5; stroke-linecap: round"/>
     </g>
     <g id="line2d_46">
      <g>
       <use xlink:href="#m145f9a84fa" x="11.782609" y="208.073747" style="fill-opacity: 0.2; stroke: #000000; stroke-opacity: 0.2; stroke-width: 0.5"/>
      </g>
     </g>
    </g>
    <g id="xtick_13">
     <g id="line2d_47">
      <path d="M 30.113043 208.073747 
L 30.113043 173.128033 
" clip-path="url(#p0d9a80372b)" style="fill: none; stroke: #000000; stroke-opacity: 0.2; stroke-width: 0.5; stroke-linecap: round"/>
     </g>
     <g id="line2d_48">
      <g>
       <use xlink:href="#m145f9a84fa" x="30.113043" y="208.073747" style="fill-opacity: 0.2; stroke: #000000; stroke-opacity: 0.2; stroke-width: 0.5"/>
      </g>
     </g>
    </g>
    <g id="xtick_14">
     <g id="line2d_49">
      <path d="M 231.747826 208.073747 
L 231.747826 173.128033 
" clip-path="url(#p0d9a80372b)" style="fill: none; stroke: #000000; stroke-opacity: 0.2; stroke-width: 0.5; stroke-linecap: round"/>
     </g>
     <g id="line2d_50">
      <g>
       <use xlink:href="#m145f9a84fa" x="231.747826" y="208.073747" style="fill-opacity: 0.2; stroke: #000000; stroke-opacity: 0.2; stroke-width: 0.5"/>
      </g>
     </g>
    </g>
    <g id="xtick_15">
     <g id="line2d_51">
      <path d="M 250.078261 208.073747 
L 250.078261 173.128033 
" clip-path="url(#p0d9a80372b)" style="fill: none; stroke: #000000; stroke-opacity: 0.2; stroke-width: 0.5; stroke-linecap: round"/>
     </g>
     <g id="line2d_52">
      <g>
       <use xlink:href="#m145f9a84fa" x="250.078261" y="208.073747" style="fill-opacity: 0.2; stroke: #000000; stroke-opacity: 0.2; stroke-width: 0.5"/>
      </g>
     </g>
    </g>
   </g>
   <g id="matplotlib.axis_8">
    <g id="ytick_10">
     <g id="line2d_53">
      <path d="M 7.2 190.60089 
L 254.66087 190.60089 
" clip-path="url(#p0d9a80372b)" style="fill: none; stroke: #000000; stroke-opacity: 0.2; stroke-width: 0.5; stroke-linecap: round"/>
     </g>
     <g id="line2d_54">
      <g>
       <use xlink:href="#m0a68ac9da3" x="7.2" y="190.60089" style="fill-opacity: 0.2; stroke: #000000; stroke-opacity: 0.2; stroke-width: 0.5"/>
      </g>
     </g>
    </g>
   </g>
   <g id="line2d_55">
    <path d="M 30.113043 190.60089 
L 39.278261 190.60089 
L 39.278261 190.60089 
L 48.443478 190.60089 
L 48.443478 190.60089 
L 57.608696 190.60089 
L 57.608696 204.579176 
L 66.773913 204.579176 
L 66.773913 204.579176 
L 75.93913 204.579176 
L 75.93913 190.60089 
L 85.104348 190.60089 
L 85.104348 190.60089 
L 94.269565 190.60089 
L 94.269565 190.60089 
L 103.434783 190.60089 
L 103.434783 176.622604 
L 112.6 176.622604 
L 112.6 176.622604 
L 121.765217 176.622604 
L 121.765217 190.60089 
L 130.930435 190.60089 
L 130.930435 190.60089 
L 140.095652 190.60089 
L 140.095652 190.60089 
L 149.26087 190.60089 
L 149.26087 204.579176 
L 158.426087 204.579176 
L 158.426087 204.579176 
L 167.591304 204.579176 
L 167.591304 190.60089 
L 176.756522 190.60089 
L 176.756522 190.60089 
L 185.921739 190.60089 
L 185.921739 190.60089 
L 195.086957 190.60089 
L 195.086957 176.622604 
L 204.252174 176.622604 
L 204.252174 176.622604 
L 213.417391 176.622604 
L 213.417391 190.60089 
L 222.582609 190.60089 
L 222.582609 190.60089 
L 231.747826 190.60089 
L 231.747826 190.60089 
" clip-path="url(#p0d9a80372b)" style="fill: none; stroke: #007d4d; stroke-width: 2; stroke-linecap: round"/>
    <defs>
     <path id="meb3882c111" d="M 0 3.5 
C 0.928211 3.5 1.81853 3.131218 2.474874 2.474874 
C 3.131218 1.81853 3.5 0.928211 3.5 0 
C 3.5 -0.928211 3.131218 -1.81853 2.474874 -2.474874 
C 1.81853 -3.131218 0.928211 -3.5 0 -3.5 
C -0.928211 -3.5 -1.81853 -3.131218 -2.474874 -2.474874 
C -3.131218 -1.81853 -3.5 -0.928211 -3.5 0 
C -3.5 0.928211 -3.131218 1.81853 -2.474874 2.474874 
C -1.81853 3.131218 -0.928211 3.5 0 3.5 
z
" style="stroke: #fefefa; stroke-width: 1.5"/>
    </defs>
    <g clip-path="url(#p0d9a80372b)">
     <use xlink:href="#meb3882c111" x="30.113043" y="190.60089" style="fill: #007d4d; stroke: #fefefa; stroke-width: 1.5"/>
     <use xlink:href="#meb3882c111" x="39.278261" y="190.60089" style="fill: #007d4d; stroke: #fefefa; stroke-width: 1.5"/>
     <use xlink:href="#meb3882c111" x="48.443478" y="190.60089" style="fill: #007d4d; stroke: #fefefa; stroke-width: 1.5"/>
     <use xlink:href="#meb3882c111" x="57.608696" y="204.579176" style="fill: #007d4d; stroke: #fefefa; stroke-width: 1.5"/>
     <use xlink:href="#meb3882c111" x="66.773913" y="204.579176" style="fill: #007d4d; stroke: #fefefa; stroke-width: 1.5"/>
     <use xlink:href="#meb3882c111" x="75.93913" y="190.60089" style="fill: #007d4d; stroke: #fefefa; stroke-width: 1.5"/>
     <use xlink:href="#meb3882c111" x="85.104348" y="190.60089" style="fill: #007d4d; stroke: #fefefa; stroke-width: 1.5"/>
     <use xlink:href="#meb3882c111" x="94.269565" y="190.60089" style="fill: #007d4d; stroke: #fefefa; stroke-width: 1.5"/>
     <use xlink:href="#meb3882c111" x="103.434783" y="176.622604" style="fill: #007d4d; stroke: #fefefa; stroke-width: 1.5"/>
     <use xlink:href="#meb3882c111" x="112.6" y="176.622604" style="fill: #007d4d; stroke: #fefefa; stroke-width: 1.5"/>
     <use xlink:href="#meb3882c111" x="121.765217" y="190.60089" style="fill: #007d4d; stroke: #fefefa; stroke-width: 1.5"/>
     <use xlink:href="#meb3882c111" x="130.930435" y="190.60089" style="fill: #007d4d; stroke: #fefefa; stroke-width: 1.5"/>
     <use xlink:href="#meb3882c111" x="140.095652" y="190.60089" style="fill: #007d4d; stroke: #fefefa; stroke-width: 1.5"/>
     <use xlink:href="#meb3882c111" x="149.26087" y="204.579176" style="fill: #007d4d; stroke: #fefefa; stroke-width: 1.5"/>
     <use xlink:href="#meb3882c111" x="158.426087" y="204.579176" style="fill: #007d4d; stroke: #fefefa; stroke-width: 1.5"/>
     <use xlink:href="#meb3882c111" x="167.591304" y="190.60089" style="fill: #007d4d; stroke: #fefefa; stroke-width: 1.5"/>
     <use xlink:href="#meb3882c111" x="176.756522" y="190.60089" style="fill: #007d4d; stroke: #fefefa; stroke-width: 1.5"/>
     <use xlink:href="#meb3882c111" x="185.921739" y="190.60089" style="fill: #007d4d; stroke: #fefefa; stroke-width: 1.5"/>
     <use xlink:href="#meb3882c111" x="195.086957" y="176.622604" style="fill: #007d4d; stroke: #fefefa; stroke-width: 1.5"/>
     <use xlink:href="#meb3882c111" x="204.252174" y="176.622604" style="fill: #007d4d; stroke: #fefefa; stroke-width: 1.5"/>
     <use xlink:href="#meb3882c111" x="213.417391" y="190.60089" style="fill: #007d4d; stroke: #fefefa; stroke-width: 1.5"/>
     <use xlink:href="#meb3882c111" x="222.582609" y="190.60089" style="fill: #007d4d; stroke: #fefefa; stroke-width: 1.5"/>
     <use xlink:href="#meb3882c111" x="231.747826" y="190.60089" style="fill: #007d4d; stroke: #fefefa; stroke-width: 1.5"/>
    </g>
   </g>
  </g>
  <g id="axes_5">
   <g id="patch_13">
    <path d="M 7.2 250.008604 
L 254.66087 250.008604 
L 254.66087 215.06289 
L 7.2 215.06289 
L 7.2 250.008604 
z
" style="fill: none"/>
   </g>
   <g id="patch_14">
    <path d="M 11.782609 250.008604 
L 11.782609 215.06289 
L 30.113043 215.06289 
L 30.113043 250.008604 
z
" clip-path="url(#pe51c34c11a)" style="fill: #343837; opacity: 0.1; stroke: #343837; stroke-width: 0.5; stroke-linejoin: miter"/>
   </g>
   <g id="patch_15">
    <path d="M 231.747826 250.008604 
L 231.747826 215.06289 
L 250.078261 215.06289 
L 250.078261 250.008604 
z
" clip-path="url(#pe51c34c11a)" style="fill: #343837; opacity: 0.1; stroke: #343837; stroke-width: 0.5; stroke-linejoin: miter"/>
   </g>
   <g id="matplotlib.axis_9">
    <g id="xtick_16">
     <g id="line2d_56">
      <path d="M 11.782609 250.008604 
L 11.782609 215.06289 
" clip-path="url(#pe51c34c11a)" style="fill: none; stroke: #000000; stroke-opacity: 0.2; stroke-width: 0.5; stroke-linecap: round"/>
     </g>
     <g id="line2d_57">
      <g>
       <use xlink:href="#m145f9a84fa" x="11.782609" y="250.008604" style="fill-opacity: 0.2; stroke: #000000; stroke-opacity: 0.2; stroke-width: 0.5"/>
      </g>
     </g>
    </g>
    <g id="xtick_17">
     <g id="line2d_58">
      <path d="M 30.113043 250.008604 
L 30.113043 215.06289 
" clip-path="url(#pe51c34c11a)" style="fill: none; stroke: #000000; stroke-opacity: 0.2; stroke-width: 0.5; stroke-linecap: round"/>
     </g>
     <g id="line2d_59">
      <g>
       <use xlink:href="#m145f9a84fa" x="30.113043" y="250.008604" style="fill-opacity: 0.2; stroke: #000000; stroke-opacity: 0.2; stroke-width: 0.5"/>
      </g>
     </g>
    </g>
    <g id="xtick_18">
     <g id="line2d_60">
      <path d="M 231.747826 250.008604 
L 231.747826 215.06289 
" clip-path="url(#pe51c34c11a)" style="fill: none; stroke: #000000; stroke-opacity: 0.2; stroke-width: 0.5; stroke-linecap: round"/>
     </g>
     <g id="line2d_61">
      <g>
       <use xlink:href="#m145f9a84fa" x="231.747826" y="250.008604" style="fill-opacity: 0.2; stroke: #000000; stroke-opacity: 0.2; stroke-width: 0.5"/>
      </g>
     </g>
    </g>
    <g id="xtick_19">
     <g id="line2d_62">
      <path d="M 250.078261 250.008604 
L 250.078261 215.06289 
" clip-path="url(#pe51c34c11a)" style="fill: none; stroke: #000000; stroke-opacity: 0.2; stroke-width: 0.5; stroke-linecap: round"/>
     </g>
     <g id="line2d_63">
      <g>
       <use xlink:href="#m145f9a84fa" x="250.078261" y="250.008604" style="fill-opacity: 0.2; stroke: #000000; stroke-opacity: 0.2; stroke-width: 0.5"/>
      </g>
     </g>
    </g>
   </g>
   <g id="matplotlib.axis_10">
    <g id="ytick_11">
     <g id="line2d_64">
      <path d="M 7.2 232.535747 
L 254.66087 232.535747 
" clip-path="url(#pe51c34c11a)" style="fill: none; stroke: #000000; stroke-opacity: 0.2; stroke-width: 0.5; stroke-linecap: round"/>
     </g>
     <g id="line2d_65">
      <g>
       <use xlink:href="#m0a68ac9da3" x="7.2" y="232.535747" style="fill-opacity: 0.2; stroke: #000000; stroke-opacity: 0.2; stroke-width: 0.5"/>
      </g>
     </g>
    </g>
   </g>
   <g id="line2d_66">
    <path d="M 11.782609 225.546604 
L 20.947826 225.546604 
L 20.947826 225.546604 
L 30.113043 225.546604 
L 30.113043 232.535747 
L 39.278261 232.535747 
L 39.278261 232.535747 
L 48.443478 232.535747 
L 48.443478 232.535747 
L 57.608696 232.535747 
L 57.608696 246.514033 
L 66.773913 246.514033 
L 66.773913 246.514033 
L 75.93913 246.514033 
L 75.93913 232.535747 
L 85.104348 232.535747 
L 85.104348 232.535747 
L 94.269565 232.535747 
L 94.269565 232.535747 
L 103.434783 232.535747 
L 103.434783 218.557461 
L 112.6 218.557461 
L 112.6 218.557461 
L 121.765217 218.557461 
L 121.765217 232.535747 
L 130.930435 232.535747 
L 130.930435 232.535747 
L 140.095652 232.535747 
L 140.095652 232.535747 
L 149.26087 232.535747 
L 149.26087 246.514033 
L 158.426087 246.514033 
L 158.426087 246.514033 
L 167.591304 246.514033 
L 167.591304 232.535747 
L 176.756522 232.535747 
L 176.756522 232.535747 
L 185.921739 232.535747 
L 185.921739 232.535747 
L 195.086957 232.535747 
L 195.086957 218.557461 
L 204.252174 218.557461 
L 204.252174 218.557461 
L 213.417391 218.557461 
L 213.417391 232.535747 
L 222.582609 232.535747 
L 222.582609 232.535747 
L 231.747826 232.535747 
L 231.747826 232.535747 
" clip-path="url(#pe51c34c11a)" style="fill: none; stroke: #fa902d; stroke-width: 2; stroke-linecap: round"/>
    <defs>
     <path id="mf1623e28a2" d="M 0 3.5 
C 0.928211 3.5 1.81853 3.131218 2.474874 2.474874 
C 3.131218 1.81853 3.5 0.928211 3.5 0 
C 3.5 -0.928211 3.131218 -1.81853 2.474874 -2.474874 
C 1.81853 -3.131218 0.928211 -3.5 0 -3.5 
C -0.928211 -3.5 -1.81853 -3.131218 -2.474874 -2.474874 
C -3.131218 -1.81853 -3.5 -0.928211 -3.5 0 
C -3.5 0.928211 -3.131218 1.81853 -2.474874 2.474874 
C -1.81853 3.131218 -0.928211 3.5 0 3.5 
z
" style="stroke: #fefefa; stroke-width: 1.5"/>
    </defs>
    <g clip-path="url(#pe51c34c11a)">
     <use xlink:href="#mf1623e28a2" x="11.782609" y="225.546604" style="fill: #fa902d; stroke: #fefefa; stroke-width: 1.5"/>
     <use xlink:href="#mf1623e28a2" x="20.947826" y="225.546604" style="fill: #fa902d; stroke: #fefefa; stroke-width: 1.5"/>
     <use xlink:href="#mf1623e28a2" x="30.113043" y="232.535747" style="fill: #fa902d; stroke: #fefefa; stroke-width: 1.5"/>
     <use xlink:href="#mf1623e28a2" x="39.278261" y="232.535747" style="fill: #fa902d; stroke: #fefefa; stroke-width: 1.5"/>
     <use xlink:href="#mf1623e28a2" x="48.443478" y="232.535747" style="fill: #fa902d; stroke: #fefefa; stroke-width: 1.5"/>
     <use xlink:href="#mf1623e28a2" x="57.608696" y="246.514033" style="fill: #fa902d; stroke: #fefefa; stroke-width: 1.5"/>
     <use xlink:href="#mf1623e28a2" x="66.773913" y="246.514033" style="fill: #fa902d; stroke: #fefefa; stroke-width: 1.5"/>
     <use xlink:href="#mf1623e28a2" x="75.93913" y="232.535747" style="fill: #fa902d; stroke: #fefefa; stroke-width: 1.5"/>
     <use xlink:href="#mf1623e28a2" x="85.104348" y="232.535747" style="fill: #fa902d; stroke: #fefefa; stroke-width: 1.5"/>
     <use xlink:href="#mf1623e28a2" x="94.269565" y="232.535747" style="fill: #fa902d; stroke: #fefefa; stroke-width: 1.5"/>
     <use xlink:href="#mf1623e28a2" x="103.434783" y="218.557461" style="fill: #fa902d; stroke: #fefefa; stroke-width: 1.5"/>
     <use xlink:href="#mf1623e28a2" x="112.6" y="218.557461" style="fill: #fa902d; stroke: #fefefa; stroke-width: 1.5"/>
     <use xlink:href="#mf1623e28a2" x="121.765217" y="232.535747" style="fill: #fa902d; stroke: #fefefa; stroke-width: 1.5"/>
     <use xlink:href="#mf1623e28a2" x="130.930435" y="232.535747" style="fill: #fa902d; stroke: #fefefa; stroke-width: 1.5"/>
     <use xlink:href="#mf1623e28a2" x="140.095652" y="232.535747" style="fill: #fa902d; stroke: #fefefa; stroke-width: 1.5"/>
     <use xlink:href="#mf1623e28a2" x="149.26087" y="246.514033" style="fill: #fa902d; stroke: #fefefa; stroke-width: 1.5"/>
     <use xlink:href="#mf1623e28a2" x="158.426087" y="246.514033" style="fill: #fa902d; stroke: #fefefa; stroke-width: 1.5"/>
     <use xlink:href="#mf1623e28a2" x="167.591304" y="232.535747" style="fill: #fa902d; stroke: #fefefa; stroke-width: 1.5"/>
     <use xlink:href="#mf1623e28a2" x="176.756522" y="232.535747" style="fill: #fa902d; stroke: #fefefa; stroke-width: 1.5"/>
     <use xlink:href="#mf1623e28a2" x="185.921739" y="232.535747" style="fill: #fa902d; stroke: #fefefa; stroke-width: 1.5"/>
     <use xlink:href="#mf1623e28a2" x="195.086957" y="218.557461" style="fill: #fa902d; stroke: #fefefa; stroke-width: 1.5"/>
     <use xlink:href="#mf1623e28a2" x="204.252174" y="218.557461" style="fill: #fa902d; stroke: #fefefa; stroke-width: 1.5"/>
     <use xlink:href="#mf1623e28a2" x="213.417391" y="232.535747" style="fill: #fa902d; stroke: #fefefa; stroke-width: 1.5"/>
     <use xlink:href="#mf1623e28a2" x="222.582609" y="232.535747" style="fill: #fa902d; stroke: #fefefa; stroke-width: 1.5"/>
     <use xlink:href="#mf1623e28a2" x="231.747826" y="232.535747" style="fill: #fa902d; stroke: #fefefa; stroke-width: 1.5"/>
    </g>
   </g>
  </g>
  <g id="axes_6">
   <g id="patch_16">
    <path d="M 7.2 291.943461 
L 254.66087 291.943461 
L 254.66087 256.997747 
L 7.2 256.997747 
L 7.2 291.943461 
z
" style="fill: none"/>
   </g>
   <g id="patch_17">
    <path d="M 11.782609 291.943461 
L 11.782609 256.997747 
L 30.113043 256.997747 
L 30.113043 291.943461 
z
" clip-path="url(#pc147e66be4)" style="fill: #343837; opacity: 0.1; stroke: #343837; stroke-width: 0.5; stroke-linejoin: miter"/>
   </g>
   <g id="patch_18">
    <path d="M 231.747826 291.943461 
L 231.747826 256.997747 
L 250.078261 256.997747 
L 250.078261 291.943461 
z
" clip-path="url(#pc147e66be4)" style="fill: #343837; opacity: 0.1; stroke: #343837; stroke-width: 0.5; stroke-linejoin: miter"/>
   </g>
   <g id="matplotlib.axis_11">
    <g id="xtick_20">
     <g id="line2d_67">
      <path d="M 11.782609 291.943461 
L 11.782609 256.997747 
" clip-path="url(#pc147e66be4)" style="fill: none; stroke: #000000; stroke-opacity: 0.2; stroke-width: 0.5; stroke-linecap: round"/>
     </g>
     <g id="line2d_68">
      <g>
       <use xlink:href="#m145f9a84fa" x="11.782609" y="291.943461" style="fill-opacity: 0.2; stroke: #000000; stroke-opacity: 0.2; stroke-width: 0.5"/>
      </g>
     </g>
    </g>
    <g id="xtick_21">
     <g id="line2d_69">
      <path d="M 30.113043 291.943461 
L 30.113043 256.997747 
" clip-path="url(#pc147e66be4)" style="fill: none; stroke: #000000; stroke-opacity: 0.2; stroke-width: 0.5; stroke-linecap: round"/>
     </g>
     <g id="line2d_70">
      <g>
       <use xlink:href="#m145f9a84fa" x="30.113043" y="291.943461" style="fill-opacity: 0.2; stroke: #000000; stroke-opacity: 0.2; stroke-width: 0.5"/>
      </g>
     </g>
    </g>
    <g id="xtick_22">
     <g id="line2d_71">
      <path d="M 231.747826 291.943461 
L 231.747826 256.997747 
" clip-path="url(#pc147e66be4)" style="fill: none; stroke: #000000; stroke-opacity: 0.2; stroke-width: 0.5; stroke-linecap: round"/>
     </g>
     <g id="line2d_72">
      <g>
       <use xlink:href="#m145f9a84fa" x="231.747826" y="291.943461" style="fill-opacity: 0.2; stroke: #000000; stroke-opacity: 0.2; stroke-width: 0.5"/>
      </g>
     </g>
    </g>
    <g id="xtick_23">
     <g id="line2d_73">
      <path d="M 250.078261 291.943461 
L 250.078261 256.997747 
" clip-path="url(#pc147e66be4)" style="fill: none; stroke: #000000; stroke-opacity: 0.2; stroke-width: 0.5; stroke-linecap: round"/>
     </g>
     <g id="line2d_74">
      <g>
       <use xlink:href="#m145f9a84fa" x="250.078261" y="291.943461" style="fill-opacity: 0.2; stroke: #000000; stroke-opacity: 0.2; stroke-width: 0.5"/>
      </g>
     </g>
    </g>
   </g>
   <g id="matplotlib.axis_12">
    <g id="ytick_12">
     <g id="line2d_75">
      <path d="M 7.2 274.470604 
L 254.66087 274.470604 
" clip-path="url(#pc147e66be4)" style="fill: none; stroke: #000000; stroke-opacity: 0.2; stroke-width: 0.5; stroke-linecap: round"/>
     </g>
     <g id="line2d_76">
      <g>
       <use xlink:href="#m0a68ac9da3" x="7.2" y="274.470604" style="fill-opacity: 0.2; stroke: #000000; stroke-opacity: 0.2; stroke-width: 0.5"/>
      </g>
     </g>
    </g>
   </g>
   <g id="line2d_77">
    <path d="M 20.947826 267.481461 
L 30.113043 267.481461 
L 30.113043 274.470604 
L 39.278261 274.470604 
L 39.278261 274.470604 
L 48.443478 274.470604 
L 48.443478 274.470604 
L 57.608696 274.470604 
L 57.608696 288.44889 
L 66.773913 288.44889 
L 66.773913 288.44889 
L 75.93913 288.44889 
L 75.93913 274.470604 
L 85.104348 274.470604 
L 85.104348 274.470604 
L 94.269565 274.470604 
L 94.269565 274.470604 
L 103.434783 274.470604 
L 103.434783 260.492319 
L 112.6 260.492319 
L 112.6 260.492319 
L 121.765217 260.492319 
L 121.765217 274.470604 
L 130.930435 274.470604 
L 130.930435 274.470604 
L 140.095652 274.470604 
L 140.095652 274.470604 
L 149.26087 274.470604 
L 149.26087 288.44889 
L 158.426087 288.44889 
L 158.426087 288.44889 
L 167.591304 288.44889 
L 167.591304 274.470604 
L 176.756522 274.470604 
L 176.756522 274.470604 
L 185.921739 274.470604 
L 185.921739 274.470604 
L 195.086957 274.470604 
L 195.086957 260.492319 
L 204.252174 260.492319 
L 204.252174 260.492319 
L 213.417391 260.492319 
L 213.417391 274.470604 
L 222.582609 274.470604 
L 222.582609 274.470604 
L 231.747826 274.470604 
L 231.747826 274.470604 
L 240.913043 274.470604 
L 240.913043 281.459747 
" clip-path="url(#pc147e66be4)" style="fill: none; stroke: #007d80; stroke-width: 2; stroke-linecap: round"/>
    <defs>
     <path id="m740dcc73a4" d="M 0 3.5 
C 0.928211 3.5 1.81853 3.131218 2.474874 2.474874 
C 3.131218 1.81853 3.5 0.928211 3.5 0 
C 3.5 -0.928211 3.131218 -1.81853 2.474874 -2.474874 
C 1.81853 -3.131218 0.928211 -3.5 0 -3.5 
C -0.928211 -3.5 -1.81853 -3.131218 -2.474874 -2.474874 
C -3.131218 -1.81853 -3.5 -0.928211 -3.5 0 
C -3.5 0.928211 -3.131218 1.81853 -2.474874 2.474874 
C -1.81853 3.131218 -0.928211 3.5 0 3.5 
z
" style="stroke: #fefefa; stroke-width: 1.5"/>
    </defs>
    <g clip-path="url(#pc147e66be4)">
     <use xlink:href="#m740dcc73a4" x="20.947826" y="267.481461" style="fill: #007d80; stroke: #fefefa; stroke-width: 1.5"/>
     <use xlink:href="#m740dcc73a4" x="30.113043" y="274.470604" style="fill: #007d80; stroke: #fefefa; stroke-width: 1.5"/>
     <use xlink:href="#m740dcc73a4" x="39.278261" y="274.470604" style="fill: #007d80; stroke: #fefefa; stroke-width: 1.5"/>
     <use xlink:href="#m740dcc73a4" x="48.443478" y="274.470604" style="fill: #007d80; stroke: #fefefa; stroke-width: 1.5"/>
     <use xlink:href="#m740dcc73a4" x="57.608696" y="288.44889" style="fill: #007d80; stroke: #fefefa; stroke-width: 1.5"/>
     <use xlink:href="#m740dcc73a4" x="66.773913" y="288.44889" style="fill: #007d80; stroke: #fefefa; stroke-width: 1.5"/>
     <use xlink:href="#m740dcc73a4" x="75.93913" y="274.470604" style="fill: #007d80; stroke: #fefefa; stroke-width: 1.5"/>
     <use xlink:href="#m740dcc73a4" x="85.104348" y="274.470604" style="fill: #007d80; stroke: #fefefa; stroke-width: 1.5"/>
     <use xlink:href="#m740dcc73a4" x="94.269565" y="274.470604" style="fill: #007d80; stroke: #fefefa; stroke-width: 1.5"/>
     <use xlink:href="#m740dcc73a4" x="103.434783" y="260.492319" style="fill: #007d80; stroke: #fefefa; stroke-width: 1.5"/>
     <use xlink:href="#m740dcc73a4" x="112.6" y="260.492319" style="fill: #007d80; stroke: #fefefa; stroke-width: 1.5"/>
     <use xlink:href="#m740dcc73a4" x="121.765217" y="274.470604" style="fill: #007d80; stroke: #fefefa; stroke-width: 1.5"/>
     <use xlink:href="#m740dcc73a4" x="130.930435" y="274.470604" style="fill: #007d80; stroke: #fefefa; stroke-width: 1.5"/>
     <use xlink:href="#m740dcc73a4" x="140.095652" y="274.470604" style="fill: #007d80; stroke: #fefefa; stroke-width: 1.5"/>
     <use xlink:href="#m740dcc73a4" x="149.26087" y="288.44889" style="fill: #007d80; stroke: #fefefa; stroke-width: 1.5"/>
     <use xlink:href="#m740dcc73a4" x="158.426087" y="288.44889" style="fill: #007d80; stroke: #fefefa; stroke-width: 1.5"/>
     <use xlink:href="#m740dcc73a4" x="167.591304" y="274.470604" style="fill: #007d80; stroke: #fefefa; stroke-width: 1.5"/>
     <use xlink:href="#m740dcc73a4" x="176.756522" y="274.470604" style="fill: #007d80; stroke: #fefefa; stroke-width: 1.5"/>
     <use xlink:href="#m740dcc73a4" x="185.921739" y="274.470604" style="fill: #007d80; stroke: #fefefa; stroke-width: 1.5"/>
     <use xlink:href="#m740dcc73a4" x="195.086957" y="260.492319" style="fill: #007d80; stroke: #fefefa; stroke-width: 1.5"/>
     <use xlink:href="#m740dcc73a4" x="204.252174" y="260.492319" style="fill: #007d80; stroke: #fefefa; stroke-width: 1.5"/>
     <use xlink:href="#m740dcc73a4" x="213.417391" y="274.470604" style="fill: #007d80; stroke: #fefefa; stroke-width: 1.5"/>
     <use xlink:href="#m740dcc73a4" x="222.582609" y="274.470604" style="fill: #007d80; stroke: #fefefa; stroke-width: 1.5"/>
     <use xlink:href="#m740dcc73a4" x="231.747826" y="274.470604" style="fill: #007d80; stroke: #fefefa; stroke-width: 1.5"/>
     <use xlink:href="#m740dcc73a4" x="240.913043" y="281.459747" style="fill: #007d80; stroke: #fefefa; stroke-width: 1.5"/>
    </g>
   </g>
  </g>
  <g id="axes_7">
   <g id="patch_19">
    <path d="M 7.2 333.878319 
L 254.66087 333.878319 
L 254.66087 298.932604 
L 7.2 298.932604 
L 7.2 333.878319 
z
" style="fill: none"/>
   </g>
   <g id="patch_20">
    <path d="M 11.782609 333.878319 
L 11.782609 298.932604 
L 30.113043 298.932604 
L 30.113043 333.878319 
z
" clip-path="url(#pfc37d79d9e)" style="fill: #343837; opacity: 0.1; stroke: #343837; stroke-width: 0.5; stroke-linejoin: miter"/>
   </g>
   <g id="patch_21">
    <path d="M 231.747826 333.878319 
L 231.747826 298.932604 
L 250.078261 298.932604 
L 250.078261 333.878319 
z
" clip-path="url(#pfc37d79d9e)" style="fill: #343837; opacity: 0.1; stroke: #343837; stroke-width: 0.5; stroke-linejoin: miter"/>
   </g>
   <g id="matplotlib.axis_13">
    <g id="xtick_24">
     <g id="line2d_78">
      <path d="M 11.782609 333.878319 
L 11.782609 298.932604 
" clip-path="url(#pfc37d79d9e)" style="fill: none; stroke: #000000; stroke-opacity: 0.2; stroke-width: 0.5; stroke-linecap: round"/>
     </g>
     <g id="line2d_79">
      <g>
       <use xlink:href="#mcce149cf65" x="11.782609" y="298.932604" style="fill-opacity: 0.2; stroke: #000000; stroke-opacity: 0.2; stroke-width: 0.5"/>
      </g>
     </g>
    </g>
    <g id="xtick_25">
     <g id="line2d_80">
      <path d="M 30.113043 333.878319 
L 30.113043 298.932604 
" clip-path="url(#pfc37d79d9e)" style="fill: none; stroke: #000000; stroke-opacity: 0.2; stroke-width: 0.5; stroke-linecap: round"/>
     </g>
     <g id="line2d_81">
      <g>
       <use xlink:href="#mcce149cf65" x="30.113043" y="298.932604" style="fill-opacity: 0.2; stroke: #000000; stroke-opacity: 0.2; stroke-width: 0.5"/>
      </g>
     </g>
    </g>
    <g id="xtick_26">
     <g id="line2d_82">
      <path d="M 231.747826 333.878319 
L 231.747826 298.932604 
" clip-path="url(#pfc37d79d9e)" style="fill: none; stroke: #000000; stroke-opacity: 0.2; stroke-width: 0.5; stroke-linecap: round"/>
     </g>
     <g id="line2d_83">
      <g>
       <use xlink:href="#mcce149cf65" x="231.747826" y="298.932604" style="fill-opacity: 0.2; stroke: #000000; stroke-opacity: 0.2; stroke-width: 0.5"/>
      </g>
     </g>
    </g>
    <g id="xtick_27">
     <g id="line2d_84">
      <path d="M 250.078261 333.878319 
L 250.078261 298.932604 
" clip-path="url(#pfc37d79d9e)" style="fill: none; stroke: #000000; stroke-opacity: 0.2; stroke-width: 0.5; stroke-linecap: round"/>
     </g>
     <g id="line2d_85">
      <g>
       <use xlink:href="#mcce149cf65" x="250.078261" y="298.932604" style="fill-opacity: 0.2; stroke: #000000; stroke-opacity: 0.2; stroke-width: 0.5"/>
      </g>
     </g>
    </g>
   </g>
   <g id="matplotlib.axis_14">
    <g id="ytick_13">
     <g id="line2d_86">
      <path d="M 7.2 316.405461 
L 254.66087 316.405461 
" clip-path="url(#pfc37d79d9e)" style="fill: none; stroke: #000000; stroke-opacity: 0.2; stroke-width: 0.5; stroke-linecap: round"/>
     </g>
     <g id="line2d_87">
      <g>
       <use xlink:href="#m0a68ac9da3" x="7.2" y="316.405461" style="fill-opacity: 0.2; stroke: #000000; stroke-opacity: 0.2; stroke-width: 0.5"/>
      </g>
     </g>
    </g>
   </g>
   <g id="line2d_88">
    <path d="M 30.113043 316.405461 
L 39.278261 316.405461 
L 39.278261 316.405461 
L 48.443478 316.405461 
L 48.443478 316.405461 
L 57.608696 316.405461 
L 57.608696 330.383747 
L 66.773913 330.383747 
L 66.773913 330.383747 
L 75.93913 330.383747 
L 75.93913 316.405461 
L 85.104348 316.405461 
L 85.104348 316.405461 
L 94.269565 316.405461 
L 94.269565 316.405461 
L 103.434783 316.405461 
L 103.434783 302.427176 
L 112.6 302.427176 
L 112.6 302.427176 
L 121.765217 302.427176 
L 121.765217 316.405461 
L 130.930435 316.405461 
L 130.930435 316.405461 
L 140.095652 316.405461 
L 140.095652 316.405461 
L 149.26087 316.405461 
L 149.26087 330.383747 
L 158.426087 330.383747 
L 158.426087 330.383747 
L 167.591304 330.383747 
L 167.591304 316.405461 
L 176.756522 316.405461 
L 176.756522 316.405461 
L 185.921739 316.405461 
L 185.921739 316.405461 
L 195.086957 316.405461 
L 195.086957 302.427176 
L 204.252174 302.427176 
L 204.252174 302.427176 
L 213.417391 302.427176 
L 213.417391 316.405461 
L 222.582609 316.405461 
L 222.582609 316.405461 
L 231.747826 316.405461 
L 231.747826 316.405461 
L 240.913043 316.405461 
L 240.913043 323.394604 
L 250.078261 323.394604 
L 250.078261 323.394604 
" clip-path="url(#pfc37d79d9e)" style="fill: none; stroke: #c20caa; stroke-width: 2; stroke-linecap: round"/>
    <defs>
     <path id="md171a36270" d="M 0 3.5 
C 0.928211 3.5 1.81853 3.131218 2.474874 2.474874 
C 3.131218 1.81853 3.5 0.928211 3.5 0 
C 3.5 -0.928211 3.131218 -1.81853 2.474874 -2.474874 
C 1.81853 -3.131218 0.928211 -3.5 0 -3.5 
C -0.928211 -3.5 -1.81853 -3.131218 -2.474874 -2.474874 
C -3.131218 -1.81853 -3.5 -0.928211 -3.5 0 
C -3.5 0.928211 -3.131218 1.81853 -2.474874 2.474874 
C -1.81853 3.131218 -0.928211 3.5 0 3.5 
z
" style="stroke: #fefefa; stroke-width: 1.5"/>
    </defs>
    <g clip-path="url(#pfc37d79d9e)">
     <use xlink:href="#md171a36270" x="30.113043" y="316.405461" style="fill: #c20caa; stroke: #fefefa; stroke-width: 1.5"/>
     <use xlink:href="#md171a36270" x="39.278261" y="316.405461" style="fill: #c20caa; stroke: #fefefa; stroke-width: 1.5"/>
     <use xlink:href="#md171a36270" x="48.443478" y="316.405461" style="fill: #c20caa; stroke: #fefefa; stroke-width: 1.5"/>
     <use xlink:href="#md171a36270" x="57.608696" y="330.383747" style="fill: #c20caa; stroke: #fefefa; stroke-width: 1.5"/>
     <use xlink:href="#md171a36270" x="66.773913" y="330.383747" style="fill: #c20caa; stroke: #fefefa; stroke-width: 1.5"/>
     <use xlink:href="#md171a36270" x="75.93913" y="316.405461" style="fill: #c20caa; stroke: #fefefa; stroke-width: 1.5"/>
     <use xlink:href="#md171a36270" x="85.104348" y="316.405461" style="fill: #c20caa; stroke: #fefefa; stroke-width: 1.5"/>
     <use xlink:href="#md171a36270" x="94.269565" y="316.405461" style="fill: #c20caa; stroke: #fefefa; stroke-width: 1.5"/>
     <use xlink:href="#md171a36270" x="103.434783" y="302.427176" style="fill: #c20caa; stroke: #fefefa; stroke-width: 1.5"/>
     <use xlink:href="#md171a36270" x="112.6" y="302.427176" style="fill: #c20caa; stroke: #fefefa; stroke-width: 1.5"/>
     <use xlink:href="#md171a36270" x="121.765217" y="316.405461" style="fill: #c20caa; stroke: #fefefa; stroke-width: 1.5"/>
     <use xlink:href="#md171a36270" x="130.930435" y="316.405461" style="fill: #c20caa; stroke: #fefefa; stroke-width: 1.5"/>
     <use xlink:href="#md171a36270" x="140.095652" y="316.405461" style="fill: #c20caa; stroke: #fefefa; stroke-width: 1.5"/>
     <use xlink:href="#md171a36270" x="149.26087" y="330.383747" style="fill: #c20caa; stroke: #fefefa; stroke-width: 1.5"/>
     <use xlink:href="#md171a36270" x="158.426087" y="330.383747" style="fill: #c20caa; stroke: #fefefa; stroke-width: 1.5"/>
     <use xlink:href="#md171a36270" x="167.591304" y="316.405461" style="fill: #c20caa; stroke: #fefefa; stroke-width: 1.5"/>
     <use xlink:href="#md171a36270" x="176.756522" y="316.405461" style="fill: #c20caa; stroke: #fefefa; stroke-width: 1.5"/>
     <use xlink:href="#md171a36270" x="185.921739" y="316.405461" style="fill: #c20caa; stroke: #fefefa; stroke-width: 1.5"/>
     <use xlink:href="#md171a36270" x="195.086957" y="302.427176" style="fill: #c20caa; stroke: #fefefa; stroke-width: 1.5"/>
     <use xlink:href="#md171a36270" x="204.252174" y="302.427176" style="fill: #c20caa; stroke: #fefefa; stroke-width: 1.5"/>
     <use xlink:href="#md171a36270" x="213.417391" y="316.405461" style="fill: #c20caa; stroke: #fefefa; stroke-width: 1.5"/>
     <use xlink:href="#md171a36270" x="222.582609" y="316.405461" style="fill: #c20caa; stroke: #fefefa; stroke-width: 1.5"/>
     <use xlink:href="#md171a36270" x="231.747826" y="316.405461" style="fill: #c20caa; stroke: #fefefa; stroke-width: 1.5"/>
     <use xlink:href="#md171a36270" x="240.913043" y="323.394604" style="fill: #c20caa; stroke: #fefefa; stroke-width: 1.5"/>
     <use xlink:href="#md171a36270" x="250.078261" y="323.394604" style="fill: #c20caa; stroke: #fefefa; stroke-width: 1.5"/>
    </g>
   </g>
  </g>
  <g id="legend_1">
   <g id="patch_22">
    <path d="M 265.4 334.978319 
L 439.314991 334.978319 
Q 442.114991 334.978319 442.114991 332.178319 
L 442.114991 165.558284 
Q 442.114991 162.758284 439.314991 162.758284 
L 265.4 162.758284 
Q 262.6 162.758284 262.6 165.558284 
L 262.6 332.178319 
Q 262.6 334.978319 265.4 334.978319 
z
" style="fill: #ffffff; opacity: 0.95; stroke: #cccccc; stroke-width: 0.5; stroke-linejoin: miter"/>
   </g>
   <g id="line2d_89">
    <path d="M 268.2 173.437814 
L 275.2 173.437814 
L 275.2 173.437814 
L 282.2 173.437814 
L 282.2 173.437814 
" style="fill: none; stroke: #0271ae; stroke-width: 2; stroke-linecap: round"/>
    <g>
     <use xlink:href="#m07f7142a78" x="275.2" y="173.437814" style="fill: #0271ae; stroke: #fefefa; stroke-width: 1.5"/>
    </g>
   </g>
   <g id="text_9">
    <!-- $x$ -->
    <g transform="translate(293.4 178.337814)scale(0.14 -0.14)">
     <defs>
      <path id="URWPalladioL-Ital-78" d="M 134 567 
C 134 440 122 358 83 153 
C 70 76 64 57 58 12 
C 154 -39 256 -64 333 -64 
C 544 -64 794 121 992 421 
L 1478 1164 
L 1549 726 
C 1632 185 1779 -64 2010 -64 
C 2150 -64 2355 44 2560 230 
L 2874 510 
L 2816 631 
C 2586 440 2426 345 2323 345 
C 2227 345 2144 409 2080 536 
C 2022 656 1952 891 1920 1075 
L 1805 1716 
L 2029 2027 
C 2330 2439 2502 2585 2701 2585 
C 2803 2585 2880 2534 2912 2439 
L 3002 2465 
L 3098 3007 
C 3021 3052 2963 3072 2906 3072 
C 2650 3072 2394 2841 1997 2255 
L 1760 1906 
L 1722 2211 
C 1645 2841 1472 3072 1094 3072 
C 928 3072 787 3020 730 2937 
L 358 2408 
L 467 2344 
C 659 2560 787 2649 909 2649 
C 1120 2649 1261 2389 1370 1767 
L 1440 1373 
L 1184 980 
C 909 555 691 352 512 352 
C 416 352 346 377 333 409 
L 262 586 
L 134 567 
z
" transform="scale(0.015625)"/>
     </defs>
     <use xlink:href="#URWPalladioL-Ital-78" transform="scale(0.996264)"/>
    </g>
   </g>
   <g id="line2d_90">
    <path d="M 268.2 194.350515 
L 275.2 194.350515 
L 275.2 194.350515 
L 282.2 194.350515 
L 282.2 194.350515 
" style="fill: none; stroke: #343837; stroke-width: 2; stroke-linecap: round"/>
    <g>
     <use xlink:href="#m9d60b19802" x="275.2" y="194.350515" style="fill: #343837; stroke: #fefefa; stroke-width: 1.5"/>
    </g>
   </g>
   <g id="text_10">
    <!-- zero-padding -->
    <g transform="translate(293.4 199.250515)scale(0.14 -0.14)">
     <defs>
      <path id="URWPalladioL-Roma-7a" d="M 2912 2771 
L 2912 2963 
C 2464 2950 2272 2944 2029 2944 
L 442 2963 
C 429 2637 422 2560 384 2121 
L 576 2121 
L 653 2554 
C 678 2688 794 2719 1267 2719 
L 2182 2719 
C 2048 2509 1939 2363 1766 2146 
L 678 796 
C 525 611 435 503 102 128 
L 141 0 
C 806 0 845 0 1120 0 
L 2886 0 
C 2886 147 2899 300 2944 608 
L 2982 908 
L 2790 908 
L 2675 403 
C 2650 268 2381 224 1766 224 
L 902 224 
L 2912 2771 
z
" transform="scale(0.015625)"/>
      <path id="URWPalladioL-Roma-72" d="M 147 2579 
L 384 2579 
C 640 2579 666 2534 666 2112 
L 666 672 
C 666 268 646 224 429 211 
L 134 192 
L 134 0 
C 595 -7 762 0 922 0 
C 1050 19 1050 19 1837 0 
L 1837 192 
L 1504 211 
C 1216 230 1203 249 1203 669 
L 1203 1763 
C 1203 2145 1459 2463 1773 2463 
C 1965 2463 2099 2374 2202 2171 
L 2336 2171 
L 2394 2937 
C 2323 2982 2208 3008 2093 3008 
C 1901 3008 1696 2905 1562 2745 
L 1203 2324 
L 1203 2982 
L 1146 3008 
C 819 2873 486 2783 147 2745 
L 147 2579 
z
" transform="scale(0.015625)"/>
      <path id="URWPalladioL-Roma-6f" d="M 1786 3008 
C 851 3008 205 2347 205 1391 
C 205 487 774 -128 1600 -128 
C 2586 -128 3290 557 3290 1520 
C 3290 2386 2662 3008 1786 3008 
z
M 1670 2796 
C 2259 2796 2694 2155 2694 1282 
C 2694 545 2368 83 1850 83 
C 1222 83 800 699 800 1609 
C 800 2379 1107 2796 1670 2796 
z
" transform="scale(0.015625)"/>
      <path id="URWPalladioL-Roma-2d" d="M 1805 1395 
L 1997 1823 
L 1965 1856 
L 282 1856 
L 109 1427 
L 141 1395 
L 1805 1395 
z
" transform="scale(0.015625)"/>
      <path id="URWPalladioL-Roma-67" d="M 3322 2452 
L 3482 2713 
L 3456 2790 
L 2547 2764 
C 2310 2956 2080 3033 1766 3033 
C 1485 3033 1158 2944 896 2790 
C 538 2586 352 2274 352 1885 
C 352 1413 646 1087 1120 1036 
L 614 638 
C 550 540 518 455 518 358 
C 518 179 634 76 941 -13 
L 384 -315 
C 294 -367 205 -604 205 -804 
C 205 -1388 774 -1792 1587 -1792 
C 2554 -1792 3315 -1183 3315 -399 
C 3315 64 3008 384 2560 384 
L 1536 384 
C 1203 384 1050 462 1050 638 
C 1050 723 1101 795 1267 939 
C 1306 972 1318 985 1344 1011 
C 1408 1004 1446 998 1498 998 
C 1773 998 2112 1119 2374 1305 
C 2662 1515 2803 1770 2803 2108 
C 2803 2235 2784 2318 2733 2452 
L 3322 2452 
z
M 1536 2816 
C 1971 2816 2266 2458 2266 1917 
C 2266 1502 1997 1216 1606 1216 
C 1178 1216 890 1547 890 2038 
C 890 2529 1126 2816 1536 2816 
z
M 1837 -64 
C 2560 -64 2810 -212 2810 -630 
C 2810 -1183 2304 -1594 1632 -1594 
C 1075 -1594 691 -1266 691 -791 
C 691 -502 858 -238 1114 -129 
C 1216 -77 1395 -64 1837 -64 
z
" transform="scale(0.015625)"/>
     </defs>
     <use xlink:href="#URWPalladioL-Roma-7a" transform="scale(0.996264)"/>
     <use xlink:href="#URWPalladioL-Roma-65" transform="translate(49.8132 0)scale(0.996264)"/>
     <use xlink:href="#URWPalladioL-Roma-72" transform="translate(97.533496 0)scale(0.996264)"/>
     <use xlink:href="#URWPalladioL-Roma-6f" transform="translate(135.092813 0)scale(0.996264)"/>
     <use xlink:href="#URWPalladioL-Roma-2d" transform="translate(189.488393 0)scale(0.996264)"/>
     <use xlink:href="#URWPalladioL-Roma-70" transform="translate(222.663623 0)scale(0.996264)"/>
     <use xlink:href="#URWPalladioL-Roma-61" transform="translate(282.538017 0)scale(0.996264)"/>
     <use xlink:href="#URWPalladioL-Roma-64" transform="translate(332.351217 0)scale(0.996264)"/>
     <use xlink:href="#URWPalladioL-Roma-64" transform="translate(393.222848 0)scale(0.996264)"/>
     <use xlink:href="#URWPalladioL-Roma-69" transform="translate(454.094478 0)scale(0.996264)"/>
     <use xlink:href="#URWPalladioL-Roma-6e" transform="translate(483.08484 0)scale(0.996264)"/>
     <use xlink:href="#URWPalladioL-Roma-67" transform="translate(541.066901 0)scale(0.996264)"/>
    </g>
   </g>
   <g id="patch_23">
    <path d="M 268.2 220.783997 
L 282.2 220.783997 
L 282.2 210.983997 
L 268.2 210.983997 
z
" style="fill: #dc2830; stroke: #dc2830; stroke-width: 2; stroke-linejoin: miter"/>
   </g>
   <g id="text_11">
    <!-- $h[k]$ -->
    <g transform="translate(293.4 220.783997)scale(0.14 -0.14)">
     <defs>
      <path id="URWPalladioL-Ital-68" d="M 1510 4608 
L 1434 4678 
C 1101 4512 870 4454 410 4409 
L 384 4275 
L 691 4275 
C 845 4275 909 4230 909 4121 
C 909 4070 902 4012 896 3968 
L 627 2471 
C 448 1507 198 408 64 6 
L 109 -64 
L 550 38 
C 653 772 762 1162 947 1500 
C 1229 2018 1894 2637 2163 2637 
C 2246 2637 2304 2579 2304 2496 
C 2304 2382 2259 2139 2208 1928 
L 1882 677 
C 1824 447 1798 306 1798 185 
C 1798 32 1869 -64 1990 -64 
C 2157 -64 2387 70 3014 536 
L 2950 651 
L 2784 542 
C 2598 421 2458 351 2394 351 
C 2349 351 2310 408 2310 479 
C 2310 542 2317 594 2355 734 
L 2765 2369 
C 2803 2535 2835 2733 2835 2841 
C 2835 2982 2765 3072 2650 3072 
C 2432 3072 2042 2860 1638 2522 
C 1414 2337 1306 2222 1011 1845 
L 883 1685 
L 1510 4608 
z
" transform="scale(0.015625)"/>
      <path id="CMR10-5b" d="M 1632 -1601 
L 1632 -1344 
L 1011 -1344 
L 1011 4544 
L 1632 4544 
L 1632 4800 
L 755 4800 
L 755 -1601 
L 1632 -1601 
z
" transform="scale(0.015625)"/>
      <path id="URWPalladioL-Ital-6b" d="M 1498 4608 
L 1421 4678 
C 1088 4512 858 4454 397 4409 
L 371 4275 
L 678 4275 
C 832 4275 896 4230 896 4121 
C 896 4070 890 4012 883 3968 
L 576 2253 
C 486 1774 384 1334 51 0 
L 109 -64 
L 538 44 
L 685 836 
C 742 1142 896 1430 1114 1647 
C 1555 370 1760 -64 1920 -64 
C 2003 -64 2157 19 2438 217 
L 2733 421 
L 2682 542 
L 2406 389 
C 2317 338 2272 325 2221 325 
C 2157 325 2112 364 2054 472 
C 1830 881 1690 1225 1440 2011 
L 1530 2100 
C 1920 2489 2214 2649 2534 2649 
C 2586 2649 2656 2636 2765 2611 
L 2874 3014 
C 2758 3052 2643 3072 2566 3072 
C 2144 3072 1613 2579 813 1462 
L 1498 4608 
z
" transform="scale(0.015625)"/>
      <path id="CMR10-5d" d="M 1018 4800 
L 141 4800 
L 141 4544 
L 762 4544 
L 762 -1344 
L 141 -1344 
L 141 -1601 
L 1018 -1601 
L 1018 4800 
z
" transform="scale(0.015625)"/>
     </defs>
     <use xlink:href="#URWPalladioL-Ital-68" transform="scale(0.996264)"/>
     <use xlink:href="#CMR10-5b" transform="translate(52.303815 0)scale(1.038107)"/>
     <use xlink:href="#URWPalladioL-Ital-6b" transform="translate(83.586514 0)scale(0.996264)"/>
     <use xlink:href="#CMR10-5d" transform="translate(130.809407 0)scale(1.038107)"/>
    </g>
   </g>
   <g id="line2d_91">
    <path d="M 268.2 236.796699 
L 275.2 236.796699 
L 275.2 236.796699 
L 282.2 236.796699 
L 282.2 236.796699 
" style="fill: none; stroke: #6e3b87; stroke-width: 2; stroke-linecap: round"/>
    <g>
     <use xlink:href="#me99a3f2a3d" x="275.2" y="236.796699" style="fill: #6e3b87; stroke: #fefefa; stroke-width: 1.5"/>
    </g>
   </g>
   <g id="text_12">
    <!-- $y=x*h$ (Full) -->
    <g transform="translate(293.4 241.696699)scale(0.14 -0.14)">
     <defs>
      <path id="URWPalladioL-Ital-79" d="M -45 -1132 
C -51 -1176 -51 -1214 -51 -1245 
C -51 -1517 186 -1741 474 -1741 
C 1152 -1741 1856 -955 2234 216 
L 3136 3014 
L 3066 3072 
C 2880 3001 2733 2963 2592 2950 
L 2368 2111 
C 2291 1812 2067 1348 1856 1036 
C 1632 712 1318 432 1178 432 
C 1101 432 1043 578 1050 737 
L 1056 820 
L 1152 2053 
C 1165 2250 1178 2492 1178 2670 
C 1178 2956 1133 3072 1024 3072 
C 941 3072 851 3027 544 2816 
L 19 2460 
L 90 2346 
L 410 2537 
L 435 2556 
C 499 2594 544 2613 570 2613 
C 659 2613 710 2492 710 2282 
C 710 2276 710 2238 704 2187 
L 595 642 
L 589 388 
C 589 121 704 -64 864 -64 
C 1101 -64 1638 477 2118 1195 
L 1805 108 
C 1478 -1012 1158 -1472 710 -1472 
C 486 -1472 314 -1302 314 -1081 
C 314 -1049 320 -999 326 -942 
L 262 -917 
L -45 -1132 
z
" transform="scale(0.015625)"/>
      <path id="CMR10-3d" d="M 4397 2111 
C 4493 2111 4614 2111 4614 2239 
C 4614 2368 4493 2368 4403 2368 
L 570 2368 
C 480 2368 358 2368 358 2239 
C 358 2111 480 2111 576 2111 
L 4397 2111 
z
M 4403 832 
C 4493 832 4614 832 4614 960 
C 4614 1088 4493 1088 4397 1088 
L 576 1088 
C 480 1088 358 1088 358 960 
C 358 832 480 832 570 832 
L 4403 832 
z
" transform="scale(0.015625)"/>
      <path id="CMSY10-3" d="M 1760 2762 
C 1766 2853 1766 3008 1600 3008 
C 1498 3008 1414 2924 1434 2840 
L 1434 2755 
L 1523 1740 
L 704 2349 
C 646 2382 634 2395 589 2395 
C 499 2395 416 2303 416 2212 
C 416 2107 480 2081 544 2048 
L 1453 1603 
L 570 1164 
C 467 1112 416 1085 416 987 
C 416 889 499 804 589 804 
C 634 804 646 804 806 928 
L 1523 1459 
L 1427 359 
C 1427 224 1542 192 1594 192 
C 1670 192 1766 236 1766 359 
L 1670 1459 
L 2490 850 
C 2547 817 2560 804 2605 804 
C 2694 804 2778 896 2778 987 
C 2778 1085 2720 1118 2643 1157 
C 2259 1354 2246 1354 1741 1596 
L 2624 2035 
C 2726 2087 2778 2113 2778 2212 
C 2778 2310 2694 2395 2605 2395 
C 2560 2395 2547 2395 2387 2271 
L 1670 1740 
L 1760 2762 
z
" transform="scale(0.015625)"/>
      <path id="URWPalladioL-Roma-28" d="M 1926 -1242 
C 1466 -673 1299 -365 1133 211 
C 998 672 934 1158 934 1702 
C 934 2233 998 2688 1120 3104 
C 1286 3635 1459 3936 1926 4480 
L 1805 4646 
C 1139 4051 877 3699 634 3072 
C 467 2643 384 2188 384 1702 
C 384 1017 544 371 851 -205 
C 1075 -634 1280 -884 1805 -1377 
L 1926 -1242 
z
" transform="scale(0.015625)"/>
      <path id="URWPalladioL-Roma-46" d="M 1382 2092 
C 1562 2105 1754 2112 2042 2112 
C 2515 2112 2688 2092 2803 2035 
L 2854 1875 
L 2886 1497 
L 3078 1497 
C 3059 2092 3059 2092 3059 2208 
C 3059 2310 3059 2310 3078 2946 
L 2886 2946 
L 2854 2615 
C 2848 2558 2829 2501 2803 2450 
C 2688 2399 2509 2380 2086 2380 
C 1818 2380 1600 2387 1382 2399 
L 1382 4096 
C 1574 4140 1690 4147 2067 4147 
C 2374 4147 2733 4108 2931 4058 
C 3085 4020 3104 3988 3104 3842 
L 3104 3429 
L 3328 3429 
C 3328 3810 3360 4115 3430 4396 
C 3117 4409 2925 4416 2650 4416 
L 1965 4409 
C 1651 4396 1427 4396 1267 4396 
C 1082 4396 1082 4396 141 4416 
L 141 4223 
L 448 4204 
C 742 4185 774 4135 774 3633 
L 774 782 
C 774 280 742 230 448 211 
L 141 192 
L 141 0 
C 518 -7 742 0 1075 0 
C 1408 19 1638 12 2016 0 
L 2016 192 
L 1709 211 
C 1414 230 1382 281 1382 787 
L 1382 2092 
z
" transform="scale(0.015625)"/>
      <path id="URWPalladioL-Roma-75" d="M 3219 2982 
L 3162 3008 
C 2835 2873 2502 2784 2163 2745 
L 2163 2567 
L 2400 2567 
C 2656 2567 2682 2522 2682 2101 
L 2682 1060 
C 2682 920 2592 741 2445 594 
C 2266 415 2061 326 1811 326 
C 1587 326 1408 396 1306 517 
C 1216 620 1171 817 1171 1098 
L 1171 2982 
L 1114 3008 
C 787 2873 454 2784 115 2745 
L 115 2567 
L 352 2567 
C 608 2567 634 2522 634 2101 
L 634 1028 
C 634 581 672 383 787 224 
C 928 32 1171 -64 1536 -64 
C 1824 -58 2080 32 2253 192 
L 2682 588 
C 2682 403 2675 300 2656 0 
C 3085 0 3091 0 3187 0 
C 3277 19 3277 19 3718 0 
L 3718 192 
L 3456 211 
C 3238 224 3219 262 3219 672 
L 3219 2982 
z
" transform="scale(0.015625)"/>
      <path id="URWPalladioL-Roma-29" d="M 326 -1377 
C 768 -961 954 -749 1152 -436 
C 1542 185 1747 928 1747 1696 
C 1747 2188 1664 2643 1498 3072 
C 1254 3693 992 4045 326 4646 
L 205 4480 
C 672 3929 845 3629 1005 3104 
C 1133 2688 1197 2233 1197 1702 
C 1197 1158 1133 672 998 211 
C 832 -365 666 -673 205 -1242 
L 326 -1377 
z
" transform="scale(0.015625)"/>
     </defs>
     <use xlink:href="#URWPalladioL-Ital-79" transform="scale(0.996264)"/>
     <use xlink:href="#CMR10-3d" transform="translate(79.977748 0)scale(1.038107)"/>
     <use xlink:href="#URWPalladioL-Ital-78" transform="translate(192.532352 0)scale(0.996264)"/>
     <use xlink:href="#CMSY10-3" transform="translate(265.203242 0)scale(1.038107)"/>
     <use xlink:href="#URWPalladioL-Ital-68" transform="translate(339.46816 0)scale(0.996264)"/>
     <use xlink:href="#URWPalladioL-Roma-28" transform="translate(415.433275 0)scale(0.996264)"/>
     <use xlink:href="#URWPalladioL-Roma-46" transform="translate(448.608505 0)scale(0.996264)"/>
     <use xlink:href="#URWPalladioL-Roma-75" transform="translate(504.000182 0)scale(0.996264)"/>
     <use xlink:href="#URWPalladioL-Roma-6c" transform="translate(564.073917 0)scale(0.996264)"/>
     <use xlink:href="#URWPalladioL-Roma-6c" transform="translate(593.064278 0)scale(0.996264)"/>
     <use xlink:href="#URWPalladioL-Roma-29" transform="translate(622.054639 0)scale(0.996264)"/>
    </g>
   </g>
   <g id="line2d_92">
    <path d="M 268.2 257.7094 
L 275.2 257.7094 
L 275.2 257.7094 
L 282.2 257.7094 
L 282.2 257.7094 
" style="fill: none; stroke: #007d4d; stroke-width: 2; stroke-linecap: round"/>
    <g>
     <use xlink:href="#meb3882c111" x="275.2" y="257.7094" style="fill: #007d4d; stroke: #fefefa; stroke-width: 1.5"/>
    </g>
   </g>
   <g id="text_13">
    <!-- $y=x*h$ (Valid) -->
    <g transform="translate(293.4 262.6094)scale(0.14 -0.14)">
     <defs>
      <path id="URWPalladioL-Roma-56" d="M 1754 4224 
L 1754 4416 
C 1050 4396 1050 4396 902 4396 
C 755 4396 755 4396 51 4416 
L 51 4224 
L 282 4205 
C 416 4192 480 4134 563 3943 
L 1766 990 
C 1965 504 2042 281 2138 -64 
L 2458 -64 
C 2579 332 2656 543 2867 1054 
L 3981 3745 
C 4128 4090 4198 4185 4326 4205 
L 4518 4224 
L 4518 4416 
L 3827 4396 
C 3712 4396 3565 4403 3379 4409 
C 3347 4409 3238 4409 3136 4416 
L 3136 4224 
L 3469 4205 
C 3610 4198 3693 4134 3693 4038 
C 3693 3975 3674 3885 3635 3789 
L 2464 766 
L 1203 4007 
C 1197 4032 1190 4051 1190 4077 
C 1190 4154 1267 4198 1395 4205 
L 1754 4224 
z
" transform="scale(0.015625)"/>
     </defs>
     <use xlink:href="#URWPalladioL-Ital-79" transform="scale(0.996264)"/>
     <use xlink:href="#CMR10-3d" transform="translate(79.977748 0)scale(1.038107)"/>
     <use xlink:href="#URWPalladioL-Ital-78" transform="translate(192.532352 0)scale(0.996264)"/>
     <use xlink:href="#CMSY10-3" transform="translate(265.203242 0)scale(1.038107)"/>
     <use xlink:href="#URWPalladioL-Ital-68" transform="translate(339.46816 0)scale(0.996264)"/>
     <use xlink:href="#URWPalladioL-Roma-28" transform="translate(415.433275 0)scale(0.996264)"/>
     <use xlink:href="#URWPalladioL-Roma-56" transform="translate(448.608505 0)scale(0.996264)"/>
     <use xlink:href="#URWPalladioL-Roma-61" transform="translate(511.373609 0)scale(0.996264)"/>
     <use xlink:href="#URWPalladioL-Roma-6c" transform="translate(561.186809 0)scale(0.996264)"/>
     <use xlink:href="#URWPalladioL-Roma-69" transform="translate(590.177171 0)scale(0.996264)"/>
     <use xlink:href="#URWPalladioL-Roma-64" transform="translate(619.167532 0)scale(0.996264)"/>
     <use xlink:href="#URWPalladioL-Roma-29" transform="translate(680.039163 0)scale(0.996264)"/>
    </g>
   </g>
   <g id="line2d_93">
    <path d="M 268.2 278.622102 
L 275.2 278.622102 
L 275.2 278.622102 
L 282.2 278.622102 
L 282.2 278.622102 
" style="fill: none; stroke: #fa902d; stroke-width: 2; stroke-linecap: round"/>
    <g>
     <use xlink:href="#mf1623e28a2" x="275.2" y="278.622102" style="fill: #fa902d; stroke: #fefefa; stroke-width: 1.5"/>
    </g>
   </g>
   <g id="text_14">
    <!-- $y=x*h$ (Same-left) -->
    <g transform="translate(293.4 283.522102)scale(0.14 -0.14)">
     <defs>
      <path id="URWPalladioL-Roma-66" d="M 2182 4601 
C 2048 4652 1971 4672 1888 4672 
C 1683 4672 1459 4563 1318 4403 
L 947 3981 
C 762 3770 678 3482 678 3060 
L 678 2792 
L 237 2594 
L 237 2453 
L 678 2479 
L 678 671 
C 678 268 659 223 442 211 
L 147 192 
L 147 0 
C 787 0 787 0 947 0 
C 1107 19 1107 19 1747 0 
L 1747 192 
L 1453 211 
C 1235 223 1216 268 1216 671 
L 1216 2479 
L 2010 2479 
L 2054 2818 
L 1216 2792 
L 1216 3335 
C 1216 4070 1299 4249 1664 4249 
C 1837 4249 1952 4204 2106 4070 
L 2182 4108 
L 2182 4601 
z
" transform="scale(0.015625)"/>
      <path id="URWPalladioL-Roma-74" d="M 627 2457 
L 627 614 
C 627 140 838 -64 1331 -64 
C 1478 -64 1632 -32 1670 12 
L 1978 352 
L 1894 460 
C 1734 371 1638 339 1517 339 
C 1267 339 1165 467 1165 780 
L 1165 2457 
L 1984 2457 
L 2042 2803 
L 1165 2764 
L 1165 3008 
C 1165 3277 1184 3507 1235 3917 
L 1158 3987 
C 1005 3891 813 3808 614 3744 
C 634 3552 640 3430 640 3238 
L 640 2790 
L 141 2566 
L 141 2432 
L 627 2457 
z
" transform="scale(0.015625)"/>
     </defs>
     <use xlink:href="#URWPalladioL-Ital-79" transform="scale(0.996264)"/>
     <use xlink:href="#CMR10-3d" transform="translate(79.977748 0)scale(1.038107)"/>
     <use xlink:href="#URWPalladioL-Ital-78" transform="translate(192.532352 0)scale(0.996264)"/>
     <use xlink:href="#CMSY10-3" transform="translate(265.203242 0)scale(1.038107)"/>
     <use xlink:href="#URWPalladioL-Ital-68" transform="translate(339.46816 0)scale(0.996264)"/>
     <use xlink:href="#URWPalladioL-Roma-28" transform="translate(415.433275 0)scale(0.996264)"/>
     <use xlink:href="#URWPalladioL-Roma-53" transform="translate(448.608505 0)scale(0.996264)"/>
     <use xlink:href="#URWPalladioL-Roma-61" transform="translate(500.91232 0)scale(0.996264)"/>
     <use xlink:href="#URWPalladioL-Roma-6d" transform="translate(550.72552 0)scale(0.996264)"/>
     <use xlink:href="#URWPalladioL-Roma-65" transform="translate(638.695195 0)scale(0.996264)"/>
     <use xlink:href="#URWPalladioL-Roma-2d" transform="translate(686.41549 0)scale(0.996264)"/>
     <use xlink:href="#URWPalladioL-Roma-6c" transform="translate(719.590719 0)scale(0.996264)"/>
     <use xlink:href="#URWPalladioL-Roma-65" transform="translate(748.581081 0)scale(0.996264)"/>
     <use xlink:href="#URWPalladioL-Roma-66" transform="translate(796.301376 0)scale(0.996264)"/>
     <use xlink:href="#URWPalladioL-Roma-74" transform="translate(829.476606 0)scale(0.996264)"/>
     <use xlink:href="#URWPalladioL-Roma-29" transform="translate(861.953694 0)scale(0.996264)"/>
    </g>
   </g>
   <g id="line2d_94">
    <path d="M 268.2 299.534804 
L 275.2 299.534804 
L 275.2 299.534804 
L 282.2 299.534804 
L 282.2 299.534804 
" style="fill: none; stroke: #007d80; stroke-width: 2; stroke-linecap: round"/>
    <g>
     <use xlink:href="#m740dcc73a4" x="275.2" y="299.534804" style="fill: #007d80; stroke: #fefefa; stroke-width: 1.5"/>
    </g>
   </g>
   <g id="text_15">
    <!-- $y=x*h$ (Same-center) -->
    <g transform="translate(293.4 304.434804)scale(0.14 -0.14)">
     <use xlink:href="#URWPalladioL-Ital-79" transform="scale(0.996264)"/>
     <use xlink:href="#CMR10-3d" transform="translate(79.977748 0)scale(1.038107)"/>
     <use xlink:href="#URWPalladioL-Ital-78" transform="translate(192.532352 0)scale(0.996264)"/>
     <use xlink:href="#CMSY10-3" transform="translate(265.203242 0)scale(1.038107)"/>
     <use xlink:href="#URWPalladioL-Ital-68" transform="translate(339.46816 0)scale(0.996264)"/>
     <use xlink:href="#URWPalladioL-Roma-28" transform="translate(415.433275 0)scale(0.996264)"/>
     <use xlink:href="#URWPalladioL-Roma-53" transform="translate(448.608505 0)scale(0.996264)"/>
     <use xlink:href="#URWPalladioL-Roma-61" transform="translate(500.91232 0)scale(0.996264)"/>
     <use xlink:href="#URWPalladioL-Roma-6d" transform="translate(550.72552 0)scale(0.996264)"/>
     <use xlink:href="#URWPalladioL-Roma-65" transform="translate(638.695195 0)scale(0.996264)"/>
     <use xlink:href="#URWPalladioL-Roma-2d" transform="translate(686.41549 0)scale(0.996264)"/>
     <use xlink:href="#URWPalladioL-Roma-63" transform="translate(719.590719 0)scale(0.996264)"/>
     <use xlink:href="#URWPalladioL-Roma-65" transform="translate(763.824288 0)scale(0.996264)"/>
     <use xlink:href="#URWPalladioL-Roma-6e" transform="translate(811.544583 0)scale(0.996264)"/>
     <use xlink:href="#URWPalladioL-Roma-74" transform="translate(869.526644 0)scale(0.996264)"/>
     <use xlink:href="#URWPalladioL-Roma-65" transform="translate(902.003732 0)scale(0.996264)"/>
     <use xlink:href="#URWPalladioL-Roma-72" transform="translate(949.724027 0)scale(0.996264)"/>
     <use xlink:href="#URWPalladioL-Roma-29" transform="translate(989.075923 0)scale(0.996264)"/>
    </g>
   </g>
   <g id="line2d_95">
    <path d="M 268.2 320.545146 
L 275.2 320.545146 
L 275.2 320.545146 
L 282.2 320.545146 
L 282.2 320.545146 
" style="fill: none; stroke: #c20caa; stroke-width: 2; stroke-linecap: round"/>
    <g>
     <use xlink:href="#md171a36270" x="275.2" y="320.545146" style="fill: #c20caa; stroke: #fefefa; stroke-width: 1.5"/>
    </g>
   </g>
   <g id="text_16">
    <!-- $y=x*h$ (Same-right) -->
    <g transform="translate(293.4 325.445146)scale(0.14 -0.14)">
     <defs>
      <path id="URWPalladioL-Roma-68" d="M 45 4249 
L 403 4249 
C 518 4249 563 4179 563 3987 
L 563 672 
C 563 268 544 224 326 211 
L 38 192 
L 38 0 
C 474 -7 646 0 832 0 
C 1018 19 1190 12 1626 0 
L 1626 192 
L 1338 211 
C 1120 223 1101 268 1101 670 
L 1101 2023 
C 1101 2311 1523 2624 1914 2624 
C 2342 2624 2624 2304 2624 1813 
L 2624 0 
C 3014 0 3021 0 3130 0 
C 3219 19 3219 19 3661 0 
L 3661 192 
L 3398 211 
C 3181 223 3162 262 3162 670 
L 3162 1902 
C 3162 2649 2810 3014 2093 3014 
C 1856 3014 1722 2969 1587 2854 
L 1101 2432 
L 1101 4608 
L 1043 4659 
C 762 4550 550 4499 45 4422 
L 45 4249 
z
" transform="scale(0.015625)"/>
     </defs>
     <use xlink:href="#URWPalladioL-Ital-79" transform="scale(0.996264)"/>
     <use xlink:href="#CMR10-3d" transform="translate(79.977748 0)scale(1.038107)"/>
     <use xlink:href="#URWPalladioL-Ital-78" transform="translate(192.532352 0)scale(0.996264)"/>
     <use xlink:href="#CMSY10-3" transform="translate(265.203242 0)scale(1.038107)"/>
     <use xlink:href="#URWPalladioL-Ital-68" transform="translate(339.46816 0)scale(0.996264)"/>
     <use xlink:href="#URWPalladioL-Roma-28" transform="translate(415.433275 0)scale(0.996264)"/>
     <use xlink:href="#URWPalladioL-Roma-53" transform="translate(448.608505 0)scale(0.996264)"/>
     <use xlink:href="#URWPalladioL-Roma-61" transform="translate(500.91232 0)scale(0.996264)"/>
     <use xlink:href="#URWPalladioL-Roma-6d" transform="translate(550.72552 0)scale(0.996264)"/>
     <use xlink:href="#URWPalladioL-Roma-65" transform="translate(638.695195 0)scale(0.996264)"/>
     <use xlink:href="#URWPalladioL-Roma-2d" transform="translate(686.41549 0)scale(0.996264)"/>
     <use xlink:href="#URWPalladioL-Roma-72" transform="translate(719.590719 0)scale(0.996264)"/>
     <use xlink:href="#URWPalladioL-Roma-69" transform="translate(758.942616 0)scale(0.996264)"/>
     <use xlink:href="#URWPalladioL-Roma-67" transform="translate(787.932977 0)scale(0.996264)"/>
     <use xlink:href="#URWPalladioL-Roma-68" transform="translate(843.324654 0)scale(0.996264)"/>
     <use xlink:href="#URWPalladioL-Roma-74" transform="translate(901.306715 0)scale(0.996264)"/>
     <use xlink:href="#URWPalladioL-Roma-29" transform="translate(933.783803 0)scale(0.996264)"/>
    </g>
   </g>
  </g>
 </g>
 <defs>
  <clipPath id="pba335ba57d">
   <rect x="7.2" y="89.258319" width="247.46087" height="34.945714"/>
  </clipPath>
  <clipPath id="p664aab9df7">
   <rect x="269.217391" y="89.258319" width="72.782609" height="76.880571"/>
  </clipPath>
  <clipPath id="p83c2455219">
   <rect x="7.2" y="131.193176" width="247.46087" height="34.945714"/>
  </clipPath>
  <clipPath id="p0d9a80372b">
   <rect x="7.2" y="173.128033" width="247.46087" height="34.945714"/>
  </clipPath>
  <clipPath id="pe51c34c11a">
   <rect x="7.2" y="215.06289" width="247.46087" height="34.945714"/>
  </clipPath>
  <clipPath id="pc147e66be4">
   <rect x="7.2" y="256.997747" width="247.46087" height="34.945714"/>
  </clipPath>
  <clipPath id="pfc37d79d9e">
   <rect x="7.2" y="298.932604" width="247.46087" height="34.945714"/>
  </clipPath>
 </defs>
</svg>