<?xml version="1.0" encoding="utf-8" standalone="no"?>
<!DOCTYPE svg PUBLIC "-//W3C//DTD SVG 1.1//EN"
  "http://www.w3.org/Graphics/SVG/1.1/DTD/svg11.dtd">
<svg height="372.464689pt" version="1.1" viewBox="0 0 580.444756 372.464689" width="580.444756pt" xmlns="http://www.w3.org/2000/svg" xmlns:xlink="http://www.w3.org/1999/xlink">
 <metadata>
  <rdf:RDF xmlns:cc="http://creativecommons.org/ns#" xmlns:dc="http://purl.org/dc/elements/1.1/" xmlns:rdf="http://www.w3.org/1999/02/22-rdf-syntax-ns#">
   <cc:Work>
    <dc:type rdf:resource="http://purl.org/dc/dcmitype/StillImage"/>
    <dc:date>2021-08-20T09:46:43.813230</dc:date>
    <dc:format>image/svg+xml</dc:format>
    <dc:creator>
     <cc:Agent>
      <dc:title>Matplotlib v3.4.2, https://matplotlib.org/</dc:title>
     </cc:Agent>
    </dc:creator>
   </cc:Work>
  </rdf:RDF>
 </metadata>
 <defs>
  <style type="text/css">*{stroke-linecap:butt;stroke-linejoin:round;}</style>
 </defs>
 <g id="figure_1">
  <g id="patch_1">
   <path d="M 0 372.464689 
L 580.444756 372.464689 
L 580.444756 0 
L 0 0 
z
" style="fill:none;"/>
  </g>
  <g id="axes_1">
   <g id="patch_2">
    <path d="M 41.145691 119.108941 
L 244.054782 119.108941 
L 244.054782 23.179529 
L 41.145691 23.179529 
z
" style="fill:none;"/>
   </g>
   <g id="matplotlib.axis_1"/>
   <g id="matplotlib.axis_2">
    <g id="ytick_1">
     <g id="line2d_1">
      <path clip-path="url(#p37f02456b9)" d="M 41.145691 114.748513 
L 244.054782 114.748513 
" style="fill:none;stroke:#000000;stroke-linejoin:miter;stroke-opacity:0.2;stroke-width:0.5;"/>
     </g>
     <g id="line2d_2">
      <defs>
       <path d="M 0 0 
L -3.5 0 
" id="m952ce98a5e" style="stroke:#000000;stroke-opacity:0.2;stroke-width:0.8;"/>
      </defs>
      <g>
       <use style="fill-opacity:0.2;stroke:#000000;stroke-opacity:0.2;stroke-width:0.8;" x="41.145691" xlink:href="#m952ce98a5e" y="114.748513"/>
      </g>
     </g>
     <g id="text_1">
      <!-- $\mathdefault{−1}$ -->
      <g transform="translate(7.2 119.738278)scale(0.14 -0.14)">
       <defs>
        <path d="M 4218 1472 
C 4326 1472 4442 1472 4442 1600 
C 4442 1728 4326 1728 4218 1728 
L 755 1728 
C 646 1728 531 1728 531 1600 
C 531 1472 646 1472 755 1472 
L 4218 1472 
z
" id="CMSY10-0" transform="scale(0.015625)"/>
        <path d="M 429 3571 
L 493 3571 
L 1318 3942 
C 1325 3949 1331 3949 1338 3949 
C 1376 3949 1389 3891 1389 3737 
L 1389 633 
C 1389 300 1318 230 973 211 
L 614 192 
L 614 0 
C 1600 0 1600 0 1670 0 
C 1754 0 1894 0 2112 -7 
C 2189 6 2413 6 2675 0 
L 2675 192 
L 2342 211 
C 1990 229 1926 299 1926 628 
L 1926 4383 
L 1837 4416 
C 1421 4199 966 4009 384 3807 
L 429 3571 
z
" id="URWPalladioL-Roma-31" transform="scale(0.015625)"/>
       </defs>
       <use transform="scale(1.038107)" xlink:href="#CMSY10-0"/>
       <use transform="translate(81.941696 0)scale(0.996264)" xlink:href="#URWPalladioL-Roma-31"/>
      </g>
     </g>
    </g>
    <g id="ytick_2">
     <g id="line2d_3">
      <path clip-path="url(#p37f02456b9)" d="M 41.145691 71.144235 
L 244.054782 71.144235 
" style="fill:none;stroke:#000000;stroke-linejoin:miter;stroke-opacity:0.2;stroke-width:0.5;"/>
     </g>
     <g id="line2d_4">
      <g>
       <use style="fill-opacity:0.2;stroke:#000000;stroke-opacity:0.2;stroke-width:0.8;" x="41.145691" xlink:href="#m952ce98a5e" y="71.144235"/>
      </g>
     </g>
     <g id="text_2">
      <!-- $\mathdefault{0}$ -->
      <g transform="translate(18.671843 76.134)scale(0.14 -0.14)">
       <defs>
        <path d="M 1683 4416 
C 691 4416 186 3628 186 2076 
C 186 1326 320 679 544 365 
C 768 51 1126 -128 1523 -128 
C 2490 -128 2976 704 2976 2345 
C 2976 3749 2560 4416 1683 4416 
z
M 1568 4191 
C 2189 4191 2438 3563 2438 2025 
C 2438 660 2195 96 1606 96 
C 986 96 723 743 723 2307 
C 723 3660 960 4191 1568 4191 
z
" id="URWPalladioL-Roma-30" transform="scale(0.015625)"/>
       </defs>
       <use transform="scale(0.996264)" xlink:href="#URWPalladioL-Roma-30"/>
      </g>
     </g>
    </g>
    <g id="ytick_3">
     <g id="line2d_5">
      <path clip-path="url(#p37f02456b9)" d="M 41.145691 27.539957 
L 244.054782 27.539957 
" style="fill:none;stroke:#000000;stroke-linejoin:miter;stroke-opacity:0.2;stroke-width:0.5;"/>
     </g>
     <g id="line2d_6">
      <g>
       <use style="fill-opacity:0.2;stroke:#000000;stroke-opacity:0.2;stroke-width:0.8;" x="41.145691" xlink:href="#m952ce98a5e" y="27.539957"/>
      </g>
     </g>
     <g id="text_3">
      <!-- $\mathdefault{1}$ -->
      <g transform="translate(18.671843 32.529722)scale(0.14 -0.14)">
       <use transform="scale(0.996264)" xlink:href="#URWPalladioL-Roma-31"/>
      </g>
     </g>
    </g>
   </g>
   <g id="line2d_7">
    <path clip-path="url(#p37f02456b9)" d="M 41.145691 71.144235 
L 46.348488 71.144235 
L 46.348488 51.348307 
L 51.551285 51.348307 
L 51.551285 35.867633 
L 56.754082 35.867633 
L 56.754082 28.076798 
L 61.95688 28.076798 
L 61.95688 29.674102 
L 67.159677 29.674102 
L 67.159677 40.311354 
L 72.362474 40.311354 
L 72.362474 57.669772 
L 77.565271 57.669772 
L 77.565271 77.965447 
L 82.768068 77.965447 
L 82.768068 96.774187 
L 87.970866 96.774187 
L 87.970866 109.995931 
L 93.173663 109.995931 
L 93.173663 114.748513 
L 98.37646 114.748513 
L 98.37646 109.995931 
L 103.579257 109.995931 
L 103.579257 96.774187 
L 108.782054 96.774187 
L 108.782054 77.965447 
L 113.984852 77.965447 
L 113.984852 57.669772 
L 119.187649 57.669772 
L 119.187649 40.311354 
L 124.390446 40.311354 
L 124.390446 29.674102 
L 129.593243 29.674102 
L 129.593243 28.076798 
L 134.79604 28.076798 
L 134.79604 35.867633 
L 139.998838 35.867633 
L 139.998838 51.348307 
L 145.201635 51.348307 
L 145.201635 71.144235 
L 150.404432 71.144235 
L 150.404432 90.940163 
L 155.607229 90.940163 
L 155.607229 106.420837 
L 160.810026 106.420837 
L 160.810026 114.211672 
L 166.012824 114.211672 
L 166.012824 112.614368 
L 171.215621 112.614368 
L 171.215621 101.977116 
L 176.418418 101.977116 
L 176.418418 84.618698 
L 181.621215 84.618698 
L 181.621215 64.323023 
L 186.824012 64.323023 
L 186.824012 45.514284 
L 192.02681 45.514284 
L 192.02681 32.292539 
L 197.229607 32.292539 
L 197.229607 27.539957 
L 202.432404 27.539957 
L 202.432404 32.292539 
L 207.635201 32.292539 
L 207.635201 45.514284 
L 212.837998 45.514284 
L 212.837998 64.323023 
L 218.040796 64.323023 
L 218.040796 84.618698 
L 223.243593 84.618698 
L 223.243593 101.977116 
L 228.44639 101.977116 
L 228.44639 112.614368 
L 233.649187 112.614368 
L 233.649187 114.211672 
L 238.851984 114.211672 
L 238.851984 106.420837 
L 244.054782 106.420837 
L 244.054782 90.940163 
" style="fill:none;stroke:#0271ae;stroke-linejoin:miter;stroke-width:3;"/>
    <defs>
     <path d="M -2.5 2.5 
L 2.5 2.5 
L 2.5 -2.5 
L -2.5 -2.5 
z
" id="m4fdab99c2e"/>
    </defs>
    <g clip-path="url(#p37f02456b9)">
     <use style="fill:#0271ae;" x="41.145691" xlink:href="#m4fdab99c2e" y="71.144235"/>
     <use style="fill:#0271ae;" x="46.348488" xlink:href="#m4fdab99c2e" y="51.348307"/>
     <use style="fill:#0271ae;" x="51.551285" xlink:href="#m4fdab99c2e" y="35.867633"/>
     <use style="fill:#0271ae;" x="56.754082" xlink:href="#m4fdab99c2e" y="28.076798"/>
     <use style="fill:#0271ae;" x="61.95688" xlink:href="#m4fdab99c2e" y="29.674102"/>
     <use style="fill:#0271ae;" x="67.159677" xlink:href="#m4fdab99c2e" y="40.311354"/>
     <use style="fill:#0271ae;" x="72.362474" xlink:href="#m4fdab99c2e" y="57.669772"/>
     <use style="fill:#0271ae;" x="77.565271" xlink:href="#m4fdab99c2e" y="77.965447"/>
     <use style="fill:#0271ae;" x="82.768068" xlink:href="#m4fdab99c2e" y="96.774187"/>
     <use style="fill:#0271ae;" x="87.970866" xlink:href="#m4fdab99c2e" y="109.995931"/>
     <use style="fill:#0271ae;" x="93.173663" xlink:href="#m4fdab99c2e" y="114.748513"/>
     <use style="fill:#0271ae;" x="98.37646" xlink:href="#m4fdab99c2e" y="109.995931"/>
     <use style="fill:#0271ae;" x="103.579257" xlink:href="#m4fdab99c2e" y="96.774187"/>
     <use style="fill:#0271ae;" x="108.782054" xlink:href="#m4fdab99c2e" y="77.965447"/>
     <use style="fill:#0271ae;" x="113.984852" xlink:href="#m4fdab99c2e" y="57.669772"/>
     <use style="fill:#0271ae;" x="119.187649" xlink:href="#m4fdab99c2e" y="40.311354"/>
     <use style="fill:#0271ae;" x="124.390446" xlink:href="#m4fdab99c2e" y="29.674102"/>
     <use style="fill:#0271ae;" x="129.593243" xlink:href="#m4fdab99c2e" y="28.076798"/>
     <use style="fill:#0271ae;" x="134.79604" xlink:href="#m4fdab99c2e" y="35.867633"/>
     <use style="fill:#0271ae;" x="139.998838" xlink:href="#m4fdab99c2e" y="51.348307"/>
     <use style="fill:#0271ae;" x="145.201635" xlink:href="#m4fdab99c2e" y="71.144235"/>
     <use style="fill:#0271ae;" x="150.404432" xlink:href="#m4fdab99c2e" y="90.940163"/>
     <use style="fill:#0271ae;" x="155.607229" xlink:href="#m4fdab99c2e" y="106.420837"/>
     <use style="fill:#0271ae;" x="160.810026" xlink:href="#m4fdab99c2e" y="114.211672"/>
     <use style="fill:#0271ae;" x="166.012824" xlink:href="#m4fdab99c2e" y="112.614368"/>
     <use style="fill:#0271ae;" x="171.215621" xlink:href="#m4fdab99c2e" y="101.977116"/>
     <use style="fill:#0271ae;" x="176.418418" xlink:href="#m4fdab99c2e" y="84.618698"/>
     <use style="fill:#0271ae;" x="181.621215" xlink:href="#m4fdab99c2e" y="64.323023"/>
     <use style="fill:#0271ae;" x="186.824012" xlink:href="#m4fdab99c2e" y="45.514284"/>
     <use style="fill:#0271ae;" x="192.02681" xlink:href="#m4fdab99c2e" y="32.292539"/>
     <use style="fill:#0271ae;" x="197.229607" xlink:href="#m4fdab99c2e" y="27.539957"/>
     <use style="fill:#0271ae;" x="202.432404" xlink:href="#m4fdab99c2e" y="32.292539"/>
     <use style="fill:#0271ae;" x="207.635201" xlink:href="#m4fdab99c2e" y="45.514284"/>
     <use style="fill:#0271ae;" x="212.837998" xlink:href="#m4fdab99c2e" y="64.323023"/>
     <use style="fill:#0271ae;" x="218.040796" xlink:href="#m4fdab99c2e" y="84.618698"/>
     <use style="fill:#0271ae;" x="223.243593" xlink:href="#m4fdab99c2e" y="101.977116"/>
     <use style="fill:#0271ae;" x="228.44639" xlink:href="#m4fdab99c2e" y="112.614368"/>
     <use style="fill:#0271ae;" x="233.649187" xlink:href="#m4fdab99c2e" y="114.211672"/>
     <use style="fill:#0271ae;" x="238.851984" xlink:href="#m4fdab99c2e" y="106.420837"/>
     <use style="fill:#0271ae;" x="244.054782" xlink:href="#m4fdab99c2e" y="90.940163"/>
    </g>
   </g>
   <g id="text_4">
    <!-- $A_1=1, \phi_1=-\pi/2$ -->
    <g transform="translate(82.997316 17.179529)scale(0.14 -0.14)">
     <defs>
      <path d="M 2957 4544 
L 570 737 
C 339 378 224 275 6 224 
L -122 192 
L -122 0 
C 467 0 467 0 595 0 
C 717 19 730 19 1280 0 
L 1280 179 
L 947 198 
C 845 204 749 262 749 320 
C 749 371 794 460 915 672 
L 1568 1792 
L 3142 1792 
L 3302 588 
L 3302 569 
C 3302 563 3309 544 3315 512 
C 3322 460 3328 396 3328 371 
C 3328 268 3232 211 3053 198 
L 2771 179 
L 2771 0 
C 3424 0 3424 0 3552 0 
C 3680 19 3680 19 4333 0 
L 4333 179 
L 4166 198 
C 3866 243 3859 243 3808 531 
L 3251 4544 
L 2957 4544 
z
M 2874 3875 
L 3110 2022 
L 1728 2022 
L 2874 3875 
z
" id="URWPalladioL-Ital-41" transform="scale(0.015625)"/>
      <path d="M 4397 2111 
C 4493 2111 4614 2111 4614 2239 
C 4614 2368 4493 2368 4403 2368 
L 570 2368 
C 480 2368 358 2368 358 2239 
C 358 2111 480 2111 576 2111 
L 4397 2111 
z
M 4403 832 
C 4493 832 4614 832 4614 960 
C 4614 1088 4493 1088 4397 1088 
L 576 1088 
C 480 1088 358 1088 358 960 
C 358 832 480 832 570 832 
L 4403 832 
z
" id="CMR10-3d" transform="scale(0.015625)"/>
      <path d="M 1306 787 
C 1133 729 1018 691 678 595 
C 634 108 474 -308 102 -922 
L 192 -993 
L 454 -871 
C 973 -199 1216 204 1395 697 
L 1306 787 
z
" id="URWPalladioL-Roma-2c" transform="scale(0.015625)"/>
      <path d="M 2509 4121 
C 2381 4044 2208 3968 2010 3891 
L 1882 3001 
C 1683 2950 1491 2879 1293 2784 
C 531 2415 109 1767 109 973 
C 109 293 512 -64 1261 -64 
C 1299 -64 1338 -64 1376 -58 
C 1306 -436 1197 -967 1082 -1485 
L 1030 -1722 
L 1075 -1761 
C 1210 -1716 1338 -1684 1542 -1652 
L 1805 0 
C 2112 70 2413 191 2662 357 
C 3232 731 3635 1456 3635 2110 
C 3635 2707 3187 3072 2458 3072 
C 2419 3072 2381 3072 2342 3065 
C 2419 3481 2483 3744 2579 4025 
L 2509 4121 
z
M 3149 2015 
C 3149 1399 2790 725 2342 388 
C 2208 293 2035 223 1837 191 
C 1850 274 1869 350 1875 382 
L 1990 1056 
C 2042 1348 2086 1596 2240 2485 
L 2298 2822 
C 2842 2777 3149 2498 3149 2015 
z
M 595 967 
C 595 1678 1043 2453 1536 2720 
C 1613 2758 1722 2790 1850 2809 
L 1414 185 
C 832 249 595 509 595 967 
z
" id="PazoMath-Italic-66" transform="scale(0.015625)"/>
      <path d="M 614 2255 
L 672 2299 
C 806 2681 1062 2700 1427 2700 
C 1504 2700 1619 2694 1754 2694 
C 1216 1242 973 803 454 -7 
L 512 -64 
L 986 102 
C 1216 599 1606 1567 1958 2688 
L 3149 2624 
C 3040 2232 2669 1089 2669 685 
C 2669 19 2912 -64 3110 -64 
C 3437 -64 3622 19 4026 356 
L 3974 476 
L 3821 369 
C 3840 382 3654 236 3546 236 
C 3245 236 3155 419 3155 811 
C 3155 969 3168 1139 3206 1323 
C 3315 1847 3424 2365 3482 2624 
C 3629 2624 3776 2630 3923 2649 
C 4038 2649 4179 2713 4282 2752 
C 4352 2905 4378 2918 4499 3072 
L 4454 3136 
C 4282 3075 3994 3008 3782 3008 
C 3706 3001 3546 2995 3386 2995 
C 2701 3020 1645 3072 1363 3072 
C 883 3072 710 2860 525 2306 
L 614 2255 
z
" id="PazoMath-Italic-70" transform="scale(0.015625)"/>
      <path d="M 3322 4646 
L 2938 4646 
L 557 -762 
L 941 -762 
L 3322 4646 
z
" id="URWPalladioL-Roma-2f" transform="scale(0.015625)"/>
      <path d="M 102 166 
L 102 0 
C 1299 0 1299 0 1530 0 
C 1760 19 1760 19 2995 0 
C 2982 134 2982 198 2982 287 
C 2982 370 2982 434 2995 574 
C 2259 542 1965 536 781 510 
L 1946 1741 
C 2566 2398 2758 2749 2758 3228 
C 2758 3961 2259 4416 1446 4416 
C 986 4416 672 4287 358 3967 
L 250 3100 
L 435 3100 
L 518 3394 
C 621 3763 851 3923 1280 3923 
C 1830 3923 2182 3578 2182 3036 
C 2182 2558 1914 2086 1190 1320 
L 102 166 
z
" id="URWPalladioL-Roma-32" transform="scale(0.015625)"/>
     </defs>
     <use transform="scale(0.996264)" xlink:href="#URWPalladioL-Ital-41"/>
     <use transform="translate(73.175573 -18.577338)scale(0.757155)" xlink:href="#URWPalladioL-Roma-31"/>
     <use transform="translate(140.450696 0)scale(1.038107)" xlink:href="#CMR10-3d"/>
     <use transform="translate(250.066325 0)scale(0.996264)" xlink:href="#URWPalladioL-Roma-31"/>
     <use transform="translate(299.879526 0)scale(0.996264)" xlink:href="#URWPalladioL-Roma-2c"/>
     <use transform="translate(342.635785 0)scale(0.996264)" xlink:href="#PazoMath-Italic-66"/>
     <use transform="translate(400.069457 -18.577338)scale(0.757155)" xlink:href="#URWPalladioL-Roma-31"/>
     <use transform="translate(467.34458 0)scale(1.038107)" xlink:href="#CMR10-3d"/>
     <use transform="translate(578.205509 0)scale(1.038107)" xlink:href="#CMSY10-0"/>
     <use transform="translate(661.392505 0)scale(0.996264)" xlink:href="#PazoMath-Italic-70"/>
     <use transform="translate(733.919433 0)scale(0.996264)" xlink:href="#URWPalladioL-Roma-2f"/>
     <use transform="translate(795.538338 0)scale(0.996264)" xlink:href="#URWPalladioL-Roma-32"/>
    </g>
   </g>
  </g>
  <g id="axes_2">
   <g id="patch_3">
    <path d="M 41.145691 234.224235 
L 244.054782 234.224235 
L 244.054782 138.294823 
L 41.145691 138.294823 
z
" style="fill:none;"/>
   </g>
   <g id="matplotlib.axis_3"/>
   <g id="matplotlib.axis_4">
    <g id="ytick_4">
     <g id="line2d_8">
      <path clip-path="url(#pcf5a3932d9)" d="M 41.145691 229.863807 
L 244.054782 229.863807 
" style="fill:none;stroke:#000000;stroke-linejoin:miter;stroke-opacity:0.2;stroke-width:0.5;"/>
     </g>
     <g id="line2d_9">
      <g>
       <use style="fill-opacity:0.2;stroke:#000000;stroke-opacity:0.2;stroke-width:0.8;" x="41.145691" xlink:href="#m952ce98a5e" y="229.863807"/>
      </g>
     </g>
     <g id="text_5">
      <!-- $\mathdefault{−1}$ -->
      <g transform="translate(7.2 234.853572)scale(0.14 -0.14)">
       <use transform="scale(1.038107)" xlink:href="#CMSY10-0"/>
       <use transform="translate(81.941696 0)scale(0.996264)" xlink:href="#URWPalladioL-Roma-31"/>
      </g>
     </g>
    </g>
    <g id="ytick_5">
     <g id="line2d_10">
      <path clip-path="url(#pcf5a3932d9)" d="M 41.145691 186.259529 
L 244.054782 186.259529 
" style="fill:none;stroke:#000000;stroke-linejoin:miter;stroke-opacity:0.2;stroke-width:0.5;"/>
     </g>
     <g id="line2d_11">
      <g>
       <use style="fill-opacity:0.2;stroke:#000000;stroke-opacity:0.2;stroke-width:0.8;" x="41.145691" xlink:href="#m952ce98a5e" y="186.259529"/>
      </g>
     </g>
     <g id="text_6">
      <!-- $\mathdefault{0}$ -->
      <g transform="translate(18.671843 191.249294)scale(0.14 -0.14)">
       <use transform="scale(0.996264)" xlink:href="#URWPalladioL-Roma-30"/>
      </g>
     </g>
    </g>
    <g id="ytick_6">
     <g id="line2d_12">
      <path clip-path="url(#pcf5a3932d9)" d="M 41.145691 142.655251 
L 244.054782 142.655251 
" style="fill:none;stroke:#000000;stroke-linejoin:miter;stroke-opacity:0.2;stroke-width:0.5;"/>
     </g>
     <g id="line2d_13">
      <g>
       <use style="fill-opacity:0.2;stroke:#000000;stroke-opacity:0.2;stroke-width:0.8;" x="41.145691" xlink:href="#m952ce98a5e" y="142.655251"/>
      </g>
     </g>
     <g id="text_7">
      <!-- $\mathdefault{1}$ -->
      <g transform="translate(18.671843 147.645016)scale(0.14 -0.14)">
       <use transform="scale(0.996264)" xlink:href="#URWPalladioL-Roma-31"/>
      </g>
     </g>
    </g>
   </g>
   <g id="line2d_14">
    <path clip-path="url(#pcf5a3932d9)" d="M 41.145691 164.45739 
L 46.348488 164.45739 
L 46.348488 166.833681 
L 51.551285 166.833681 
L 51.551285 173.444553 
L 56.754082 173.444553 
L 56.754082 182.848923 
L 61.95688 182.848923 
L 61.95688 192.996761 
L 67.159677 192.996761 
L 67.159677 201.67597 
L 72.362474 201.67597 
L 72.362474 206.994596 
L 77.565271 206.994596 
L 77.565271 207.793248 
L 82.768068 207.793248 
L 82.768068 203.89783 
L 87.970866 203.89783 
L 87.970866 196.157493 
L 93.173663 196.157493 
L 93.173663 186.259529 
L 98.37646 186.259529 
L 98.37646 176.361565 
L 103.579257 176.361565 
L 103.579257 168.621228 
L 108.782054 168.621228 
L 108.782054 164.725811 
L 113.984852 164.725811 
L 113.984852 165.524463 
L 119.187649 165.524463 
L 119.187649 170.843089 
L 124.390446 170.843089 
L 124.390446 179.522298 
L 129.593243 179.522298 
L 129.593243 189.670135 
L 134.79604 189.670135 
L 134.79604 199.074505 
L 139.998838 199.074505 
L 139.998838 205.685377 
L 145.201635 205.685377 
L 145.201635 208.061668 
L 150.404432 208.061668 
L 150.404432 205.685377 
L 155.607229 205.685377 
L 155.607229 199.074505 
L 160.810026 199.074505 
L 160.810026 189.670135 
L 166.012824 189.670135 
L 166.012824 179.522298 
L 171.215621 179.522298 
L 171.215621 170.843089 
L 176.418418 170.843089 
L 176.418418 165.524463 
L 181.621215 165.524463 
L 181.621215 164.725811 
L 186.824012 164.725811 
L 186.824012 168.621228 
L 192.02681 168.621228 
L 192.02681 176.361565 
L 197.229607 176.361565 
L 197.229607 186.259529 
L 202.432404 186.259529 
L 202.432404 196.157493 
L 207.635201 196.157493 
L 207.635201 203.89783 
L 212.837998 203.89783 
L 212.837998 207.793248 
L 218.040796 207.793248 
L 218.040796 206.994596 
L 223.243593 206.994596 
L 223.243593 201.67597 
L 228.44639 201.67597 
L 228.44639 192.996761 
L 233.649187 192.996761 
L 233.649187 182.848923 
L 238.851984 182.848923 
L 238.851984 173.444553 
L 244.054782 173.444553 
L 244.054782 166.833681 
" style="fill:none;stroke:#dc2830;stroke-linejoin:miter;stroke-width:3;"/>
    <defs>
     <path d="M -2.5 2.5 
L 2.5 2.5 
L 2.5 -2.5 
L -2.5 -2.5 
z
" id="m11b32d9da8"/>
    </defs>
    <g clip-path="url(#pcf5a3932d9)">
     <use style="fill:#dc2830;" x="41.145691" xlink:href="#m11b32d9da8" y="164.45739"/>
     <use style="fill:#dc2830;" x="46.348488" xlink:href="#m11b32d9da8" y="166.833681"/>
     <use style="fill:#dc2830;" x="51.551285" xlink:href="#m11b32d9da8" y="173.444553"/>
     <use style="fill:#dc2830;" x="56.754082" xlink:href="#m11b32d9da8" y="182.848923"/>
     <use style="fill:#dc2830;" x="61.95688" xlink:href="#m11b32d9da8" y="192.996761"/>
     <use style="fill:#dc2830;" x="67.159677" xlink:href="#m11b32d9da8" y="201.67597"/>
     <use style="fill:#dc2830;" x="72.362474" xlink:href="#m11b32d9da8" y="206.994596"/>
     <use style="fill:#dc2830;" x="77.565271" xlink:href="#m11b32d9da8" y="207.793248"/>
     <use style="fill:#dc2830;" x="82.768068" xlink:href="#m11b32d9da8" y="203.89783"/>
     <use style="fill:#dc2830;" x="87.970866" xlink:href="#m11b32d9da8" y="196.157493"/>
     <use style="fill:#dc2830;" x="93.173663" xlink:href="#m11b32d9da8" y="186.259529"/>
     <use style="fill:#dc2830;" x="98.37646" xlink:href="#m11b32d9da8" y="176.361565"/>
     <use style="fill:#dc2830;" x="103.579257" xlink:href="#m11b32d9da8" y="168.621228"/>
     <use style="fill:#dc2830;" x="108.782054" xlink:href="#m11b32d9da8" y="164.725811"/>
     <use style="fill:#dc2830;" x="113.984852" xlink:href="#m11b32d9da8" y="165.524463"/>
     <use style="fill:#dc2830;" x="119.187649" xlink:href="#m11b32d9da8" y="170.843089"/>
     <use style="fill:#dc2830;" x="124.390446" xlink:href="#m11b32d9da8" y="179.522298"/>
     <use style="fill:#dc2830;" x="129.593243" xlink:href="#m11b32d9da8" y="189.670135"/>
     <use style="fill:#dc2830;" x="134.79604" xlink:href="#m11b32d9da8" y="199.074505"/>
     <use style="fill:#dc2830;" x="139.998838" xlink:href="#m11b32d9da8" y="205.685377"/>
     <use style="fill:#dc2830;" x="145.201635" xlink:href="#m11b32d9da8" y="208.061668"/>
     <use style="fill:#dc2830;" x="150.404432" xlink:href="#m11b32d9da8" y="205.685377"/>
     <use style="fill:#dc2830;" x="155.607229" xlink:href="#m11b32d9da8" y="199.074505"/>
     <use style="fill:#dc2830;" x="160.810026" xlink:href="#m11b32d9da8" y="189.670135"/>
     <use style="fill:#dc2830;" x="166.012824" xlink:href="#m11b32d9da8" y="179.522298"/>
     <use style="fill:#dc2830;" x="171.215621" xlink:href="#m11b32d9da8" y="170.843089"/>
     <use style="fill:#dc2830;" x="176.418418" xlink:href="#m11b32d9da8" y="165.524463"/>
     <use style="fill:#dc2830;" x="181.621215" xlink:href="#m11b32d9da8" y="164.725811"/>
     <use style="fill:#dc2830;" x="186.824012" xlink:href="#m11b32d9da8" y="168.621228"/>
     <use style="fill:#dc2830;" x="192.02681" xlink:href="#m11b32d9da8" y="176.361565"/>
     <use style="fill:#dc2830;" x="197.229607" xlink:href="#m11b32d9da8" y="186.259529"/>
     <use style="fill:#dc2830;" x="202.432404" xlink:href="#m11b32d9da8" y="196.157493"/>
     <use style="fill:#dc2830;" x="207.635201" xlink:href="#m11b32d9da8" y="203.89783"/>
     <use style="fill:#dc2830;" x="212.837998" xlink:href="#m11b32d9da8" y="207.793248"/>
     <use style="fill:#dc2830;" x="218.040796" xlink:href="#m11b32d9da8" y="206.994596"/>
     <use style="fill:#dc2830;" x="223.243593" xlink:href="#m11b32d9da8" y="201.67597"/>
     <use style="fill:#dc2830;" x="228.44639" xlink:href="#m11b32d9da8" y="192.996761"/>
     <use style="fill:#dc2830;" x="233.649187" xlink:href="#m11b32d9da8" y="182.848923"/>
     <use style="fill:#dc2830;" x="238.851984" xlink:href="#m11b32d9da8" y="173.444553"/>
     <use style="fill:#dc2830;" x="244.054782" xlink:href="#m11b32d9da8" y="166.833681"/>
    </g>
   </g>
   <g id="text_8">
    <!-- $A_2=0.5, \phi_2=0$ -->
    <g transform="translate(93.067387 132.294823)scale(0.14 -0.14)">
     <defs>
      <path d="M 794 678 
C 602 678 429 499 429 307 
C 429 115 602 -64 787 -64 
C 992 -64 1171 108 1171 307 
C 1171 499 992 678 794 678 
z
" id="URWPalladioL-Roma-2e" transform="scale(0.015625)"/>
      <path d="M 813 3891 
C 1638 3865 1997 3859 2765 3859 
L 2797 3891 
C 2784 4006 2784 4057 2784 4140 
C 2784 4230 2784 4281 2797 4396 
L 2765 4428 
C 2285 4403 1997 4396 1651 4396 
C 1299 4396 1018 4403 538 4428 
L 506 4396 
C 512 4006 518 3724 518 3520 
C 518 2976 499 2360 480 2076 
L 608 2038 
C 909 2341 1082 2432 1395 2432 
C 2010 2432 2394 1992 2394 1295 
C 2394 579 1984 160 1286 160 
C 941 160 621 276 531 443 
L 237 973 
L 83 882 
C 230 514 307 308 397 25 
C 576 -71 832 -128 1107 -128 
C 1536 -128 1990 57 2342 366 
C 2733 715 2938 1153 2938 1631 
C 2938 2360 2419 2873 1690 2873 
C 1382 2873 1152 2790 755 2553 
L 813 3891 
z
" id="URWPalladioL-Roma-35" transform="scale(0.015625)"/>
     </defs>
     <use transform="scale(0.996264)" xlink:href="#URWPalladioL-Ital-41"/>
     <use transform="translate(73.175573 -17.441431)scale(0.757155)" xlink:href="#URWPalladioL-Roma-32"/>
     <use transform="translate(140.450696 0)scale(1.038107)" xlink:href="#CMR10-3d"/>
     <use transform="translate(250.066325 0)scale(0.996264)" xlink:href="#URWPalladioL-Roma-30"/>
     <use transform="translate(299.879526 0)scale(0.996264)" xlink:href="#URWPalladioL-Roma-2e"/>
     <use transform="translate(324.786126 0)scale(0.996264)" xlink:href="#URWPalladioL-Roma-35"/>
     <use transform="translate(374.599327 0)scale(0.996264)" xlink:href="#URWPalladioL-Roma-2c"/>
     <use transform="translate(417.355586 0)scale(0.996264)" xlink:href="#PazoMath-Italic-66"/>
     <use transform="translate(474.789258 -17.441431)scale(0.757155)" xlink:href="#URWPalladioL-Roma-32"/>
     <use transform="translate(542.064381 0)scale(1.038107)" xlink:href="#CMR10-3d"/>
     <use transform="translate(651.68001 0)scale(0.996264)" xlink:href="#URWPalladioL-Roma-30"/>
    </g>
   </g>
  </g>
  <g id="axes_3">
   <g id="patch_4">
    <path d="M 41.145691 349.339529 
L 244.054782 349.339529 
L 244.054782 253.410118 
L 41.145691 253.410118 
z
" style="fill:none;"/>
   </g>
   <g id="matplotlib.axis_5">
    <g id="text_9">
     <!-- Time [seconds] -->
     <g transform="translate(102.927385 361.893405)scale(0.12 -0.12)">
      <defs>
       <path d="M 1632 4096 
C 1651 3880 1658 3734 1658 3462 
L 1658 781 
C 1658 280 1626 230 1331 211 
L 1024 192 
L 1024 0 
C 1402 -7 1626 0 1958 0 
C 2291 19 2522 12 2899 0 
L 2899 192 
L 2592 211 
C 2298 230 2266 280 2266 781 
L 2266 3462 
C 2266 3747 2272 3887 2291 4096 
L 3283 4096 
C 3462 4096 3533 4039 3539 3887 
L 3565 3386 
L 3763 3386 
C 3763 3801 3776 4051 3808 4416 
C 3347 4409 3136 4409 2957 4403 
C 2707 4390 2522 4390 2426 4390 
L 1414 4390 
C 1350 4390 1005 4396 550 4403 
L 115 4416 
C 147 4051 160 3801 160 3385 
L 358 3385 
L 384 3891 
C 390 4038 461 4096 640 4096 
L 1632 4096 
z
" id="URWPalladioL-Roma-54" transform="scale(0.015625)"/>
       <path d="M 1203 2982 
L 1146 3008 
C 819 2873 486 2784 147 2746 
L 147 2568 
L 384 2568 
C 640 2568 666 2523 666 2103 
L 666 669 
C 666 268 646 223 429 211 
L 134 192 
L 134 0 
C 774 0 774 0 934 0 
C 1094 19 1094 19 1734 0 
L 1734 192 
L 1440 211 
C 1222 224 1203 268 1203 671 
L 1203 2982 
z
M 909 4416 
C 717 4416 550 4249 550 4057 
C 550 3871 717 3705 902 3705 
C 1088 3705 1261 3871 1261 4057 
C 1261 4236 1088 4416 909 4416 
z
" id="URWPalladioL-Roma-69" transform="scale(0.015625)"/>
       <path d="M 115 2579 
L 352 2579 
C 608 2579 634 2534 634 2112 
L 634 672 
C 634 268 614 224 397 211 
L 102 192 
L 102 0 
C 717 0 736 0 915 0 
C 1094 19 1261 12 1677 0 
L 1677 192 
L 1408 211 
C 1190 223 1171 268 1171 670 
L 1171 2023 
C 1171 2311 1594 2624 1978 2624 
C 2323 2624 2560 2298 2560 1813 
L 2560 670 
C 2560 268 2541 223 2323 211 
L 2029 192 
L 2029 0 
C 2669 0 2669 0 2829 0 
C 2989 19 2989 19 3629 0 
L 3629 192 
L 3334 211 
C 3117 223 3098 268 3098 670 
L 3098 2023 
C 3098 2311 3520 2624 3904 2624 
C 4250 2624 4486 2298 4486 1813 
L 4486 0 
C 4877 0 4883 0 4992 0 
C 5075 19 5075 19 5562 0 
L 5562 192 
L 5261 211 
C 5043 223 5024 268 5024 670 
L 5024 1985 
C 5024 2617 4653 3014 4064 3014 
C 3840 3014 3654 2956 3539 2854 
L 3053 2419 
C 2848 2841 2586 3014 2144 3014 
C 1907 3014 1728 2956 1613 2854 
L 1171 2445 
L 1171 2988 
L 1114 3008 
C 787 2873 454 2783 115 2745 
L 115 2579 
z
" id="URWPalladioL-Roma-6d" transform="scale(0.015625)"/>
       <path d="M 2797 447 
L 2714 511 
C 2304 268 2157 211 1882 211 
C 1466 211 1120 396 941 710 
C 819 921 774 1100 762 1472 
L 1696 1472 
C 2138 1472 2413 1491 2854 1561 
C 2861 1651 2867 1708 2867 1786 
C 2867 2526 2394 3008 1677 3008 
C 1440 3008 1165 2924 902 2771 
C 378 2468 166 2069 166 1401 
C 166 998 262 652 435 409 
C 691 70 1120 -128 1600 -128 
C 1837 -128 2074 -77 2336 38 
C 2509 108 2643 192 2669 230 
L 2797 447 
z
M 2298 1708 
C 1965 1696 1811 1689 1581 1689 
C 1286 1689 1120 1696 774 1728 
C 774 2030 800 2172 883 2339 
C 1018 2623 1293 2796 1600 2796 
C 1811 2796 1978 2713 2093 2539 
C 2234 2326 2278 2140 2298 1708 
z
" id="URWPalladioL-Roma-65" transform="scale(0.015625)"/>
       <path d="M 563 -1178 
C 1018 -1166 1030 -1166 1184 -1166 
C 1338 -1166 1370 -1166 1805 -1178 
L 1843 -1140 
L 1843 -974 
L 1818 -942 
L 1574 -942 
C 1402 -942 1261 -903 1184 -839 
C 1126 -782 1107 -692 1107 -481 
C 1107 -474 1107 -340 1101 -148 
L 1101 89 
L 1101 3379 
L 1101 3615 
C 1107 3795 1107 3935 1107 3942 
C 1107 4153 1126 4249 1184 4307 
C 1261 4371 1402 4409 1574 4409 
L 1818 4409 
L 1843 4441 
L 1843 4608 
L 1805 4646 
C 1357 4633 1338 4633 1184 4633 
C 1037 4633 1005 4633 563 4646 
L 506 4563 
C 544 4403 557 4191 557 3699 
C 557 3603 557 3526 563 3462 
L 563 3379 
L 563 89 
L 563 6 
C 557 -97 557 -103 557 -212 
L 557 -282 
C 557 -718 544 -897 506 -1095 
L 563 -1178 
z
" id="URWPalladioL-Roma-5b" transform="scale(0.015625)"/>
       <path d="M 262 917 
C 262 474 243 282 192 25 
C 525 -84 774 -128 1069 -128 
C 1907 -128 2502 320 2502 949 
C 2502 1148 2445 1295 2323 1423 
C 2157 1584 1946 1661 1382 1770 
C 858 1872 685 2001 685 2296 
C 685 2617 909 2796 1299 2796 
C 1728 2796 2054 2572 2054 2270 
L 2054 2123 
L 2234 2123 
C 2240 2495 2246 2649 2266 2847 
C 1926 2963 1696 3008 1434 3008 
C 691 3008 237 2655 237 2078 
C 237 1770 378 1552 672 1417 
C 845 1340 1184 1237 1619 1141 
C 1907 1077 2029 942 2029 698 
C 2029 352 1709 108 1254 108 
C 787 108 454 333 454 654 
L 454 917 
L 262 917 
z
" id="URWPalladioL-Roma-73" transform="scale(0.015625)"/>
       <path d="M 2554 1995 
C 2554 2290 2586 2553 2643 2783 
C 2387 2937 2163 3008 1901 3008 
C 1594 3008 1235 2886 851 2643 
C 403 2360 166 1911 166 1347 
C 166 480 774 -128 1632 -128 
C 1965 -128 2445 -7 2509 89 
L 2643 294 
L 2579 390 
C 2342 262 2138 204 1907 204 
C 1197 204 730 756 730 1603 
C 730 2290 1050 2675 1626 2675 
C 1907 2675 2214 2547 2330 2386 
L 2374 1995 
L 2554 1995 
z
" id="URWPalladioL-Roma-63" transform="scale(0.015625)"/>
       <path d="M 1786 3008 
C 851 3008 205 2347 205 1391 
C 205 487 774 -128 1600 -128 
C 2586 -128 3290 557 3290 1520 
C 3290 2386 2662 3008 1786 3008 
z
M 1670 2796 
C 2259 2796 2694 2155 2694 1282 
C 2694 545 2368 83 1850 83 
C 1222 83 800 699 800 1609 
C 800 2379 1107 2796 1670 2796 
z
" id="URWPalladioL-Roma-6f" transform="scale(0.015625)"/>
       <path d="M 2624 0 
C 3014 0 3021 0 3130 0 
C 3219 19 3219 19 3661 0 
L 3661 192 
L 3398 211 
C 3181 223 3162 262 3162 670 
L 3162 1902 
C 3162 2649 2810 3014 2093 3014 
C 1856 3014 1722 2969 1587 2854 
L 1101 2432 
L 1101 2988 
L 1043 3008 
C 717 2873 384 2784 45 2746 
L 45 2568 
L 282 2568 
C 538 2568 563 2523 563 2103 
L 563 669 
C 563 268 544 223 326 211 
L 38 192 
L 38 0 
C 474 -7 646 0 832 0 
C 1018 19 1190 12 1626 0 
L 1626 192 
L 1338 211 
C 1120 223 1101 268 1101 670 
L 1101 2023 
C 1101 2311 1523 2624 1914 2624 
C 2342 2624 2624 2304 2624 1813 
L 2624 0 
z
" id="URWPalladioL-Roma-6e" transform="scale(0.015625)"/>
       <path d="M 2637 2803 
C 2278 2956 2099 3008 1875 3008 
C 1702 3008 1549 2969 1389 2886 
L 826 2592 
C 461 2400 224 1934 224 1392 
C 224 881 397 460 710 204 
C 928 19 1229 -64 1645 -64 
C 1773 -64 1920 -39 1952 -13 
L 2662 581 
L 2630 0 
C 2944 -7 3046 0 3123 0 
C 3174 0 3264 0 3398 -7 
C 3443 6 3571 6 3706 0 
L 3706 192 
L 3411 211 
C 3194 224 3174 268 3174 672 
L 3174 4614 
L 3117 4665 
C 2835 4557 2624 4505 2118 4429 
L 2118 4249 
L 2477 4249 
C 2592 4249 2637 4179 2637 3987 
L 2637 2803 
z
M 2637 1424 
C 2637 1009 2624 945 2541 798 
C 2362 498 2048 300 1747 300 
C 1184 300 781 843 781 1602 
C 781 2298 1126 2707 1702 2707 
C 1946 2707 2202 2624 2426 2470 
C 2560 2381 2637 2298 2637 2247 
L 2637 1424 
z
" id="URWPalladioL-Roma-64" transform="scale(0.015625)"/>
       <path d="M 1568 4646 
C 1114 4633 1094 4633 947 4633 
C 794 4633 762 4633 326 4646 
L 288 4608 
L 288 4441 
L 314 4409 
L 557 4409 
C 730 4409 864 4371 941 4307 
C 1005 4249 1024 4159 1024 3942 
C 1024 3923 1024 3795 1030 3615 
L 1030 3379 
L 1030 89 
L 1030 -148 
C 1024 -334 1024 -449 1024 -468 
C 1024 -686 1005 -782 941 -839 
C 864 -903 730 -942 557 -942 
L 314 -942 
L 288 -974 
L 288 -1140 
L 326 -1178 
C 774 -1166 787 -1166 947 -1166 
C 1094 -1166 1126 -1166 1568 -1178 
L 1626 -1095 
C 1587 -942 1581 -743 1574 -250 
C 1574 -161 1574 -78 1568 6 
L 1568 89 
L 1568 3379 
L 1568 3462 
C 1574 3532 1574 3615 1574 3705 
C 1574 4198 1587 4409 1626 4563 
L 1568 4646 
z
" id="URWPalladioL-Roma-5d" transform="scale(0.015625)"/>
      </defs>
      <use transform="scale(0.996264)" xlink:href="#URWPalladioL-Roma-54"/>
      <use transform="translate(55.591109 0)scale(0.996264)" xlink:href="#URWPalladioL-Roma-69"/>
      <use transform="translate(84.581471 0)scale(0.996264)" xlink:href="#URWPalladioL-Roma-6d"/>
      <use transform="translate(172.551145 0)scale(0.996264)" xlink:href="#URWPalladioL-Roma-65"/>
      <use transform="translate(245.17804 0)scale(0.996264)" xlink:href="#URWPalladioL-Roma-5b"/>
      <use transform="translate(278.35327 0)scale(0.996264)" xlink:href="#URWPalladioL-Roma-73"/>
      <use transform="translate(320.594736 0)scale(0.996264)" xlink:href="#URWPalladioL-Roma-65"/>
      <use transform="translate(368.315031 0)scale(0.996264)" xlink:href="#URWPalladioL-Roma-63"/>
      <use transform="translate(412.5486 0)scale(0.996264)" xlink:href="#URWPalladioL-Roma-6f"/>
      <use transform="translate(466.94418 0)scale(0.996264)" xlink:href="#URWPalladioL-Roma-6e"/>
      <use transform="translate(524.926241 0)scale(0.996264)" xlink:href="#URWPalladioL-Roma-64"/>
      <use transform="translate(585.797872 0)scale(0.996264)" xlink:href="#URWPalladioL-Roma-73"/>
      <use transform="translate(628.039338 0)scale(0.996264)" xlink:href="#URWPalladioL-Roma-5d"/>
     </g>
    </g>
   </g>
   <g id="matplotlib.axis_6">
    <g id="ytick_7">
     <g id="line2d_15">
      <path clip-path="url(#pb30a51a973)" d="M 41.145691 344.979101 
L 244.054782 344.979101 
" style="fill:none;stroke:#000000;stroke-linejoin:miter;stroke-opacity:0.2;stroke-width:0.5;"/>
     </g>
     <g id="line2d_16">
      <g>
       <use style="fill-opacity:0.2;stroke:#000000;stroke-opacity:0.2;stroke-width:0.8;" x="41.145691" xlink:href="#m952ce98a5e" y="344.979101"/>
      </g>
     </g>
     <g id="text_10">
      <!-- $\mathdefault{−1}$ -->
      <g transform="translate(7.2 349.968866)scale(0.14 -0.14)">
       <use transform="scale(1.038107)" xlink:href="#CMSY10-0"/>
       <use transform="translate(81.941696 0)scale(0.996264)" xlink:href="#URWPalladioL-Roma-31"/>
      </g>
     </g>
    </g>
    <g id="ytick_8">
     <g id="line2d_17">
      <path clip-path="url(#pb30a51a973)" d="M 41.145691 301.374823 
L 244.054782 301.374823 
" style="fill:none;stroke:#000000;stroke-linejoin:miter;stroke-opacity:0.2;stroke-width:0.5;"/>
     </g>
     <g id="line2d_18">
      <g>
       <use style="fill-opacity:0.2;stroke:#000000;stroke-opacity:0.2;stroke-width:0.8;" x="41.145691" xlink:href="#m952ce98a5e" y="301.374823"/>
      </g>
     </g>
     <g id="text_11">
      <!-- $\mathdefault{0}$ -->
      <g transform="translate(18.671843 306.364588)scale(0.14 -0.14)">
       <use transform="scale(0.996264)" xlink:href="#URWPalladioL-Roma-30"/>
      </g>
     </g>
    </g>
    <g id="ytick_9">
     <g id="line2d_19">
      <path clip-path="url(#pb30a51a973)" d="M 41.145691 257.770545 
L 244.054782 257.770545 
" style="fill:none;stroke:#000000;stroke-linejoin:miter;stroke-opacity:0.2;stroke-width:0.5;"/>
     </g>
     <g id="line2d_20">
      <g>
       <use style="fill-opacity:0.2;stroke:#000000;stroke-opacity:0.2;stroke-width:0.8;" x="41.145691" xlink:href="#m952ce98a5e" y="257.770545"/>
      </g>
     </g>
     <g id="text_12">
      <!-- $\mathdefault{1}$ -->
      <g transform="translate(18.671843 262.76031)scale(0.14 -0.14)">
       <use transform="scale(0.996264)" xlink:href="#URWPalladioL-Roma-31"/>
      </g>
     </g>
    </g>
   </g>
   <g id="line2d_21">
    <path clip-path="url(#pb30a51a973)" d="M 41.145691 324.499484 
L 46.348488 324.499484 
L 46.348488 311.480671 
L 51.551285 311.480671 
L 51.551285 296.258914 
L 56.754082 296.258914 
L 56.754082 282.15236 
L 61.95688 282.15236 
L 61.95688 272.236051 
L 67.159677 272.236051 
L 67.159677 268.671615 
L 72.362474 268.671615 
L 72.362474 272.236051 
L 77.565271 272.236051 
L 77.565271 282.15236 
L 82.768068 282.15236 
L 82.768068 296.258914 
L 87.970866 296.258914 
L 87.970866 311.480671 
L 93.173663 311.480671 
L 93.173663 324.499484 
L 98.37646 324.499484 
L 98.37646 332.477423 
L 103.579257 332.477423 
L 103.579257 333.675401 
L 108.782054 333.675401 
L 108.782054 327.832275 
L 113.984852 327.832275 
L 113.984852 316.221769 
L 119.187649 316.221769 
L 119.187649 301.374823 
L 124.390446 301.374823 
L 124.390446 286.527877 
L 129.593243 286.527877 
L 129.593243 274.917372 
L 134.79604 274.917372 
L 134.79604 269.074246 
L 139.998838 269.074246 
L 139.998838 270.272224 
L 145.201635 270.272224 
L 145.201635 278.250163 
L 150.404432 278.250163 
L 150.404432 291.268976 
L 155.607229 291.268976 
L 155.607229 306.490732 
L 160.810026 306.490732 
L 160.810026 320.597287 
L 166.012824 320.597287 
L 166.012824 330.513596 
L 171.215621 330.513596 
L 171.215621 334.078032 
L 176.418418 334.078032 
L 176.418418 330.513596 
L 181.621215 330.513596 
L 181.621215 320.597287 
L 186.824012 320.597287 
L 186.824012 306.490732 
L 192.02681 306.490732 
L 192.02681 291.268976 
L 197.229607 291.268976 
L 197.229607 278.250163 
L 202.432404 278.250163 
L 202.432404 270.272224 
L 207.635201 270.272224 
L 207.635201 269.074246 
L 212.837998 269.074246 
L 212.837998 274.917372 
L 218.040796 274.917372 
L 218.040796 286.527877 
L 223.243593 286.527877 
L 223.243593 301.374823 
L 228.44639 301.374823 
L 228.44639 316.221769 
L 233.649187 316.221769 
L 233.649187 327.832275 
L 238.851984 327.832275 
L 238.851984 333.675401 
L 244.054782 333.675401 
L 244.054782 332.477423 
" style="fill:none;stroke:#f2aa00;stroke-linejoin:miter;stroke-width:3;"/>
    <defs>
     <path d="M -2.5 2.5 
L 2.5 2.5 
L 2.5 -2.5 
L -2.5 -2.5 
z
" id="m62762b7761"/>
    </defs>
    <g clip-path="url(#pb30a51a973)">
     <use style="fill:#f2aa00;" x="41.145691" xlink:href="#m62762b7761" y="324.499484"/>
     <use style="fill:#f2aa00;" x="46.348488" xlink:href="#m62762b7761" y="311.480671"/>
     <use style="fill:#f2aa00;" x="51.551285" xlink:href="#m62762b7761" y="296.258914"/>
     <use style="fill:#f2aa00;" x="56.754082" xlink:href="#m62762b7761" y="282.15236"/>
     <use style="fill:#f2aa00;" x="61.95688" xlink:href="#m62762b7761" y="272.236051"/>
     <use style="fill:#f2aa00;" x="67.159677" xlink:href="#m62762b7761" y="268.671615"/>
     <use style="fill:#f2aa00;" x="72.362474" xlink:href="#m62762b7761" y="272.236051"/>
     <use style="fill:#f2aa00;" x="77.565271" xlink:href="#m62762b7761" y="282.15236"/>
     <use style="fill:#f2aa00;" x="82.768068" xlink:href="#m62762b7761" y="296.258914"/>
     <use style="fill:#f2aa00;" x="87.970866" xlink:href="#m62762b7761" y="311.480671"/>
     <use style="fill:#f2aa00;" x="93.173663" xlink:href="#m62762b7761" y="324.499484"/>
     <use style="fill:#f2aa00;" x="98.37646" xlink:href="#m62762b7761" y="332.477423"/>
     <use style="fill:#f2aa00;" x="103.579257" xlink:href="#m62762b7761" y="333.675401"/>
     <use style="fill:#f2aa00;" x="108.782054" xlink:href="#m62762b7761" y="327.832275"/>
     <use style="fill:#f2aa00;" x="113.984852" xlink:href="#m62762b7761" y="316.221769"/>
     <use style="fill:#f2aa00;" x="119.187649" xlink:href="#m62762b7761" y="301.374823"/>
     <use style="fill:#f2aa00;" x="124.390446" xlink:href="#m62762b7761" y="286.527877"/>
     <use style="fill:#f2aa00;" x="129.593243" xlink:href="#m62762b7761" y="274.917372"/>
     <use style="fill:#f2aa00;" x="134.79604" xlink:href="#m62762b7761" y="269.074246"/>
     <use style="fill:#f2aa00;" x="139.998838" xlink:href="#m62762b7761" y="270.272224"/>
     <use style="fill:#f2aa00;" x="145.201635" xlink:href="#m62762b7761" y="278.250163"/>
     <use style="fill:#f2aa00;" x="150.404432" xlink:href="#m62762b7761" y="291.268976"/>
     <use style="fill:#f2aa00;" x="155.607229" xlink:href="#m62762b7761" y="306.490732"/>
     <use style="fill:#f2aa00;" x="160.810026" xlink:href="#m62762b7761" y="320.597287"/>
     <use style="fill:#f2aa00;" x="166.012824" xlink:href="#m62762b7761" y="330.513596"/>
     <use style="fill:#f2aa00;" x="171.215621" xlink:href="#m62762b7761" y="334.078032"/>
     <use style="fill:#f2aa00;" x="176.418418" xlink:href="#m62762b7761" y="330.513596"/>
     <use style="fill:#f2aa00;" x="181.621215" xlink:href="#m62762b7761" y="320.597287"/>
     <use style="fill:#f2aa00;" x="186.824012" xlink:href="#m62762b7761" y="306.490732"/>
     <use style="fill:#f2aa00;" x="192.02681" xlink:href="#m62762b7761" y="291.268976"/>
     <use style="fill:#f2aa00;" x="197.229607" xlink:href="#m62762b7761" y="278.250163"/>
     <use style="fill:#f2aa00;" x="202.432404" xlink:href="#m62762b7761" y="270.272224"/>
     <use style="fill:#f2aa00;" x="207.635201" xlink:href="#m62762b7761" y="269.074246"/>
     <use style="fill:#f2aa00;" x="212.837998" xlink:href="#m62762b7761" y="274.917372"/>
     <use style="fill:#f2aa00;" x="218.040796" xlink:href="#m62762b7761" y="286.527877"/>
     <use style="fill:#f2aa00;" x="223.243593" xlink:href="#m62762b7761" y="301.374823"/>
     <use style="fill:#f2aa00;" x="228.44639" xlink:href="#m62762b7761" y="316.221769"/>
     <use style="fill:#f2aa00;" x="233.649187" xlink:href="#m62762b7761" y="327.832275"/>
     <use style="fill:#f2aa00;" x="238.851984" xlink:href="#m62762b7761" y="333.675401"/>
     <use style="fill:#f2aa00;" x="244.054782" xlink:href="#m62762b7761" y="332.477423"/>
    </g>
   </g>
   <g id="text_13">
    <!-- $A_3=0.75, \phi_3=5\pi/4$ -->
    <g transform="translate(76.61617 247.410118)scale(0.14 -0.14)">
     <defs>
      <path d="M 275 3196 
L 474 3196 
L 589 3553 
C 659 3770 1062 3987 1395 3987 
C 1811 3987 2150 3649 2150 3247 
C 2150 2769 1773 2368 1318 2368 
C 1267 2368 1197 2374 1114 2380 
L 1018 2387 
L 941 2047 
L 986 2008 
C 1229 2118 1350 2150 1523 2150 
C 2054 2150 2362 1808 2362 1222 
C 2362 565 1971 134 1376 134 
C 1082 134 819 231 627 411 
C 474 553 390 701 269 1048 
L 96 984 
C 230 591 282 359 320 38 
C 659 -77 941 -128 1178 -128 
C 1690 -128 2278 160 2630 591 
C 2848 855 2957 1139 2957 1441 
C 2957 1750 2829 2021 2598 2182 
C 2438 2297 2291 2348 1971 2406 
C 2483 2801 2675 3094 2675 3470 
C 2675 4038 2202 4416 1491 4416 
C 1056 4416 768 4294 461 3987 
L 275 3196 
z
" id="URWPalladioL-Roma-33" transform="scale(0.015625)"/>
      <path d="M 358 83 
L 416 0 
C 666 0 666 0 710 0 
C 755 19 755 19 1005 0 
C 1274 700 1587 1369 2010 2141 
L 3181 4255 
L 3181 4448 
C 2490 4422 2266 4416 1747 4416 
C 1280 4416 966 4422 346 4448 
L 282 4416 
C 301 3807 301 3807 301 3743 
C 301 3672 301 3672 282 3087 
L 474 3087 
L 518 3447 
C 570 3846 614 3897 909 3897 
L 2618 3897 
C 2362 3370 2163 2996 1920 2604 
L 358 83 
z
" id="URWPalladioL-Roma-37" transform="scale(0.015625)"/>
      <path d="M 1792 1152 
L 1792 684 
C 1792 310 1722 223 1408 210 
L 1011 192 
L 1011 0 
C 1862 0 1862 0 2016 0 
C 2170 19 2170 19 3021 0 
L 3021 192 
L 2714 210 
C 2400 229 2330 310 2330 684 
L 2330 1152 
C 2707 1152 2842 1145 3021 1127 
L 3021 1580 
C 2720 1555 2598 1555 2502 1561 
L 2483 1561 
L 2330 1561 
L 2330 2445 
C 2330 3576 2342 4122 2374 4383 
L 2298 4416 
L 1824 4243 
L 13 1299 
L 83 1152 
L 1792 1152 
z
M 1792 1561 
L 416 1561 
L 1792 3798 
L 1792 1561 
z
" id="URWPalladioL-Roma-34" transform="scale(0.015625)"/>
     </defs>
     <use transform="scale(0.996264)" xlink:href="#URWPalladioL-Ital-41"/>
     <use transform="translate(73.175573 -17.441431)scale(0.757155)" xlink:href="#URWPalladioL-Roma-33"/>
     <use transform="translate(140.450696 0)scale(1.038107)" xlink:href="#CMR10-3d"/>
     <use transform="translate(250.066325 0)scale(0.996264)" xlink:href="#URWPalladioL-Roma-30"/>
     <use transform="translate(299.879526 0)scale(0.996264)" xlink:href="#URWPalladioL-Roma-2e"/>
     <use transform="translate(324.786126 0)scale(0.996264)" xlink:href="#URWPalladioL-Roma-37"/>
     <use transform="translate(374.599327 0)scale(0.996264)" xlink:href="#URWPalladioL-Roma-35"/>
     <use transform="translate(424.412527 0)scale(0.996264)" xlink:href="#URWPalladioL-Roma-2c"/>
     <use transform="translate(467.168787 0)scale(0.996264)" xlink:href="#PazoMath-Italic-66"/>
     <use transform="translate(524.602458 -17.441431)scale(0.757155)" xlink:href="#URWPalladioL-Roma-33"/>
     <use transform="translate(591.877581 0)scale(1.038107)" xlink:href="#CMR10-3d"/>
     <use transform="translate(701.49321 0)scale(0.996264)" xlink:href="#URWPalladioL-Roma-35"/>
     <use transform="translate(752.55171 0)scale(0.996264)" xlink:href="#PazoMath-Italic-70"/>
     <use transform="translate(825.078639 0)scale(0.996264)" xlink:href="#URWPalladioL-Roma-2f"/>
     <use transform="translate(886.697544 0)scale(0.996264)" xlink:href="#URWPalladioL-Roma-34"/>
    </g>
   </g>
  </g>
  <g id="axes_4">
   <g id="patch_5">
    <path d="M 284.6366 287.714075 
L 487.545691 287.714075 
L 487.545691 84.804984 
L 284.6366 84.804984 
z
" style="fill:none;"/>
   </g>
   <g id="line2d_22">
    <path clip-path="url(#p264f34ef49)" d="M 386.091145 186.259529 
L 426.672963 186.259529 
" style="fill:none;stroke:#dc2830;stroke-linejoin:miter;"/>
   </g>
   <g id="matplotlib.axis_7">
    <g id="xtick_1">
     <g id="line2d_23">
      <path clip-path="url(#p264f34ef49)" d="M 304.927509 287.714075 
L 304.927509 84.804984 
" style="fill:none;stroke:#000000;stroke-linejoin:miter;stroke-opacity:0.2;stroke-width:0.5;"/>
     </g>
     <g id="line2d_24">
      <defs>
       <path d="M 0 0 
L 0 3.5 
" id="m9777628635" style="stroke:#000000;stroke-opacity:0.2;stroke-width:0.8;"/>
      </defs>
      <g>
       <use style="fill-opacity:0.2;stroke:#000000;stroke-opacity:0.2;stroke-width:0.8;" x="304.927509" xlink:href="#m9777628635" y="287.714075"/>
      </g>
     </g>
    </g>
    <g id="xtick_2">
     <g id="line2d_25">
      <path clip-path="url(#p264f34ef49)" d="M 325.218418 287.714075 
L 325.218418 84.804984 
" style="fill:none;stroke:#000000;stroke-linejoin:miter;stroke-opacity:0.2;stroke-width:0.5;"/>
     </g>
     <g id="line2d_26">
      <g>
       <use style="fill-opacity:0.2;stroke:#000000;stroke-opacity:0.2;stroke-width:0.8;" x="325.218418" xlink:href="#m9777628635" y="287.714075"/>
      </g>
     </g>
    </g>
    <g id="xtick_3">
     <g id="line2d_27">
      <path clip-path="url(#p264f34ef49)" d="M 345.509327 287.714075 
L 345.509327 84.804984 
" style="fill:none;stroke:#000000;stroke-linejoin:miter;stroke-opacity:0.2;stroke-width:0.5;"/>
     </g>
     <g id="line2d_28">
      <g>
       <use style="fill-opacity:0.2;stroke:#000000;stroke-opacity:0.2;stroke-width:0.8;" x="345.509327" xlink:href="#m9777628635" y="287.714075"/>
      </g>
     </g>
    </g>
    <g id="xtick_4">
     <g id="line2d_29">
      <path clip-path="url(#p264f34ef49)" d="M 386.091145 287.714075 
L 386.091145 84.804984 
" style="fill:none;stroke:#000000;stroke-linejoin:miter;stroke-opacity:0.2;stroke-width:0.5;"/>
     </g>
     <g id="line2d_30">
      <g>
       <use style="fill-opacity:0.2;stroke:#000000;stroke-opacity:0.2;stroke-width:0.8;" x="386.091145" xlink:href="#m9777628635" y="287.714075"/>
      </g>
     </g>
    </g>
    <g id="xtick_5">
     <g id="line2d_31">
      <path clip-path="url(#p264f34ef49)" d="M 426.672963 287.714075 
L 426.672963 84.804984 
" style="fill:none;stroke:#000000;stroke-linejoin:miter;stroke-opacity:0.2;stroke-width:0.5;"/>
     </g>
     <g id="line2d_32">
      <g>
       <use style="fill-opacity:0.2;stroke:#000000;stroke-opacity:0.2;stroke-width:0.8;" x="426.672963" xlink:href="#m9777628635" y="287.714075"/>
      </g>
     </g>
    </g>
    <g id="xtick_6">
     <g id="line2d_33">
      <path clip-path="url(#p264f34ef49)" d="M 446.963873 287.714075 
L 446.963873 84.804984 
" style="fill:none;stroke:#000000;stroke-linejoin:miter;stroke-opacity:0.2;stroke-width:0.5;"/>
     </g>
     <g id="line2d_34">
      <g>
       <use style="fill-opacity:0.2;stroke:#000000;stroke-opacity:0.2;stroke-width:0.8;" x="446.963873" xlink:href="#m9777628635" y="287.714075"/>
      </g>
     </g>
    </g>
    <g id="xtick_7">
     <g id="line2d_35">
      <path clip-path="url(#p264f34ef49)" d="M 467.254782 287.714075 
L 467.254782 84.804984 
" style="fill:none;stroke:#000000;stroke-linejoin:miter;stroke-opacity:0.2;stroke-width:0.5;"/>
     </g>
     <g id="line2d_36">
      <g>
       <use style="fill-opacity:0.2;stroke:#000000;stroke-opacity:0.2;stroke-width:0.8;" x="467.254782" xlink:href="#m9777628635" y="287.714075"/>
      </g>
     </g>
    </g>
    <g id="text_14">
     <!-- $S(x, \cos)$ -->
     <g transform="translate(363.389107 316.300058)scale(0.12 -0.12)">
      <defs>
       <path d="M 2886 3454 
L 3078 3454 
C 3104 3803 3149 4049 3238 4326 
C 2950 4479 2694 4544 2394 4544 
C 1926 4544 1440 4345 1101 3997 
C 826 3732 691 3403 691 3028 
C 691 2479 934 2175 1472 2046 
L 2080 1897 
C 2426 1813 2598 1587 2598 1219 
C 2598 605 2144 179 1485 179 
C 1139 179 896 256 614 457 
L 614 1096 
L 422 1096 
C 384 741 339 450 269 115 
C 582 -45 922 -128 1261 -128 
C 2253 -128 3104 625 3104 1497 
C 3104 2007 2829 2279 2182 2421 
L 1766 2511 
C 1344 2602 1152 2841 1152 3267 
C 1152 3829 1581 4236 2170 4236 
C 2483 4236 2694 4152 2886 3945 
L 2886 3454 
z
" id="URWPalladioL-Ital-53" transform="scale(0.015625)"/>
       <path d="M 2118 -1536 
C 2118 -1517 2118 -1504 2010 -1396 
C 1210 -589 1005 620 1005 1600 
C 1005 2713 1248 3827 2035 4627 
C 2118 4704 2118 4716 2118 4736 
C 2118 4780 2093 4800 2054 4800 
C 1990 4800 1414 4365 1037 3552 
C 710 2848 634 2137 634 1600 
C 634 1100 704 326 1056 -397 
C 1440 -1184 1990 -1600 2054 -1600 
C 2093 -1600 2118 -1581 2118 -1536 
z
" id="CMR10-28" transform="scale(0.015625)"/>
       <path d="M 134 567 
C 134 440 122 358 83 153 
C 70 76 64 57 58 12 
C 154 -39 256 -64 333 -64 
C 544 -64 794 121 992 421 
L 1478 1164 
L 1549 726 
C 1632 185 1779 -64 2010 -64 
C 2150 -64 2355 44 2560 230 
L 2874 510 
L 2816 631 
C 2586 440 2426 345 2323 345 
C 2227 345 2144 409 2080 536 
C 2022 656 1952 891 1920 1075 
L 1805 1716 
L 2029 2027 
C 2330 2439 2502 2585 2701 2585 
C 2803 2585 2880 2534 2912 2439 
L 3002 2465 
L 3098 3007 
C 3021 3052 2963 3072 2906 3072 
C 2650 3072 2394 2841 1997 2255 
L 1760 1906 
L 1722 2211 
C 1645 2841 1472 3072 1094 3072 
C 928 3072 787 3020 730 2937 
L 358 2408 
L 467 2344 
C 659 2560 787 2649 909 2649 
C 1120 2649 1261 2389 1370 1767 
L 1440 1373 
L 1184 980 
C 909 555 691 352 512 352 
C 416 352 346 377 333 409 
L 262 586 
L 134 567 
z
" id="URWPalladioL-Ital-78" transform="scale(0.015625)"/>
       <path d="M 1850 1600 
C 1850 2099 1779 2873 1427 3597 
C 1043 4384 493 4800 429 4800 
C 390 4800 365 4774 365 4736 
C 365 4716 365 4704 486 4589 
C 1114 3955 1478 2937 1478 1600 
C 1478 505 1242 -621 448 -1428 
C 365 -1504 365 -1517 365 -1536 
C 365 -1575 390 -1600 429 -1600 
C 493 -1600 1069 -1165 1446 -352 
C 1773 352 1850 1062 1850 1600 
z
" id="CMR10-29" transform="scale(0.015625)"/>
      </defs>
      <use transform="scale(0.996264)" xlink:href="#URWPalladioL-Ital-53"/>
      <use transform="translate(57.88296 0)scale(1.038107)" xlink:href="#CMR10-28"/>
      <use transform="translate(102.316341 0)scale(0.996264)" xlink:href="#URWPalladioL-Ital-78"/>
      <use transform="translate(154.370178 0)scale(0.996264)" xlink:href="#URWPalladioL-Roma-2c"/>
      <use transform="translate(195.881138 0)scale(0.996264)" xlink:href="#URWPalladioL-Roma-63"/>
      <use transform="translate(240.114707 0)scale(0.996264)" xlink:href="#URWPalladioL-Roma-6f"/>
      <use transform="translate(294.510287 0)scale(0.996264)" xlink:href="#URWPalladioL-Roma-73"/>
      <use transform="translate(337.997053 0)scale(1.038107)" xlink:href="#CMR10-29"/>
     </g>
    </g>
   </g>
   <g id="matplotlib.axis_8">
    <g id="ytick_10">
     <g id="line2d_37">
      <path clip-path="url(#p264f34ef49)" d="M 284.6366 267.423166 
L 487.545691 267.423166 
" style="fill:none;stroke:#000000;stroke-linejoin:miter;stroke-opacity:0.2;stroke-width:0.5;"/>
     </g>
     <g id="line2d_38">
      <defs>
       <path d="M 0 0 
L 3.5 0 
" id="mf0636d430c" style="stroke:#000000;stroke-opacity:0.2;stroke-width:0.8;"/>
      </defs>
      <g>
       <use style="fill-opacity:0.2;stroke:#000000;stroke-opacity:0.2;stroke-width:0.8;" x="487.545691" xlink:href="#mf0636d430c" y="267.423166"/>
      </g>
     </g>
    </g>
    <g id="ytick_11">
     <g id="line2d_39">
      <path clip-path="url(#p264f34ef49)" d="M 284.6366 247.132257 
L 487.545691 247.132257 
" style="fill:none;stroke:#000000;stroke-linejoin:miter;stroke-opacity:0.2;stroke-width:0.5;"/>
     </g>
     <g id="line2d_40">
      <g>
       <use style="fill-opacity:0.2;stroke:#000000;stroke-opacity:0.2;stroke-width:0.8;" x="487.545691" xlink:href="#mf0636d430c" y="247.132257"/>
      </g>
     </g>
    </g>
    <g id="ytick_12">
     <g id="line2d_41">
      <path clip-path="url(#p264f34ef49)" d="M 284.6366 226.841347 
L 487.545691 226.841347 
" style="fill:none;stroke:#000000;stroke-linejoin:miter;stroke-opacity:0.2;stroke-width:0.5;"/>
     </g>
     <g id="line2d_42">
      <g>
       <use style="fill-opacity:0.2;stroke:#000000;stroke-opacity:0.2;stroke-width:0.8;" x="487.545691" xlink:href="#mf0636d430c" y="226.841347"/>
      </g>
     </g>
    </g>
    <g id="ytick_13">
     <g id="line2d_43">
      <path clip-path="url(#p264f34ef49)" d="M 284.6366 186.259529 
L 487.545691 186.259529 
" style="fill:none;stroke:#000000;stroke-linejoin:miter;stroke-opacity:0.2;stroke-width:0.5;"/>
     </g>
     <g id="line2d_44">
      <g>
       <use style="fill-opacity:0.2;stroke:#000000;stroke-opacity:0.2;stroke-width:0.8;" x="487.545691" xlink:href="#mf0636d430c" y="186.259529"/>
      </g>
     </g>
     <g id="text_15">
      <!-- 0 -->
      <g transform="translate(503.045691 191.249294)scale(0.14 -0.14)">
       <use transform="scale(0.996264)" xlink:href="#URWPalladioL-Roma-30"/>
      </g>
     </g>
    </g>
    <g id="ytick_14">
     <g id="line2d_45">
      <path clip-path="url(#p264f34ef49)" d="M 284.6366 145.677711 
L 487.545691 145.677711 
" style="fill:none;stroke:#000000;stroke-linejoin:miter;stroke-opacity:0.2;stroke-width:0.5;"/>
     </g>
     <g id="line2d_46">
      <g>
       <use style="fill-opacity:0.2;stroke:#000000;stroke-opacity:0.2;stroke-width:0.8;" x="487.545691" xlink:href="#mf0636d430c" y="145.677711"/>
      </g>
     </g>
     <g id="text_16">
      <!-- $A_2 \cdot N / 2$ -->
      <g transform="translate(503.045691 150.667476)scale(0.14 -0.14)">
       <defs>
        <path d="M 1229 1619 
C 1229 1804 1075 1958 890 1958 
C 704 1958 550 1804 550 1619 
C 550 1433 704 1280 890 1280 
C 1075 1280 1229 1433 1229 1619 
z
" id="CMSY10-1" transform="scale(0.015625)"/>
        <path d="M 1517 4416 
L 998 4396 
L 934 4396 
L 845 4396 
C 826 4396 730 4403 582 4409 
L 480 4416 
L 448 4237 
L 672 4224 
C 781 4218 922 4173 992 4116 
C 1088 4040 1184 3919 1184 3869 
C 1184 3862 1184 3843 1178 3824 
C 1178 3818 1178 3805 1171 3792 
C 1165 3742 1158 3697 1152 3678 
L 589 667 
C 512 274 474 223 243 197 
L 45 178 
L 13 0 
L 723 19 
C 800 19 806 19 1427 0 
L 1459 178 
L 1190 197 
C 934 216 877 267 877 477 
C 877 528 883 598 896 667 
L 1408 3615 
L 3571 -64 
L 3891 -64 
L 4493 3459 
C 4627 4179 4640 4205 4877 4224 
L 5114 4237 
L 5146 4416 
L 5011 4416 
L 4442 4396 
L 3891 4416 
L 3770 4416 
L 3738 4237 
L 4038 4224 
C 4205 4217 4269 4173 4269 4071 
C 4269 4026 4250 3861 4237 3778 
L 3725 662 
L 1517 4416 
z
" id="URWPalladioL-Ital-4e" transform="scale(0.015625)"/>
       </defs>
       <use transform="scale(0.996264)" xlink:href="#URWPalladioL-Ital-41"/>
       <use transform="translate(73.175573 -17.441431)scale(0.757155)" xlink:href="#URWPalladioL-Roma-32"/>
       <use transform="translate(132.148517 0)scale(1.038107)" xlink:href="#CMSY10-1"/>
       <use transform="translate(186.289877 0)scale(0.996264)" xlink:href="#URWPalladioL-Ital-4e"/>
       <use transform="translate(269.378335 0)scale(0.996264)" xlink:href="#URWPalladioL-Roma-2f"/>
       <use transform="translate(330.99724 0)scale(0.996264)" xlink:href="#URWPalladioL-Roma-32"/>
      </g>
     </g>
    </g>
    <g id="ytick_15">
     <g id="line2d_47">
      <path clip-path="url(#p264f34ef49)" d="M 284.6366 125.386802 
L 487.545691 125.386802 
" style="fill:none;stroke:#000000;stroke-linejoin:miter;stroke-opacity:0.2;stroke-width:0.5;"/>
     </g>
     <g id="line2d_48">
      <g>
       <use style="fill-opacity:0.2;stroke:#000000;stroke-opacity:0.2;stroke-width:0.8;" x="487.545691" xlink:href="#mf0636d430c" y="125.386802"/>
      </g>
     </g>
     <g id="text_17">
      <!-- $A_3 \cdot N/2$ -->
      <g transform="translate(503.045691 130.376567)scale(0.14 -0.14)">
       <use transform="scale(0.996264)" xlink:href="#URWPalladioL-Ital-41"/>
       <use transform="translate(73.175573 -17.441431)scale(0.757155)" xlink:href="#URWPalladioL-Roma-33"/>
       <use transform="translate(132.148517 0)scale(1.038107)" xlink:href="#CMSY10-1"/>
       <use transform="translate(186.289877 0)scale(0.996264)" xlink:href="#URWPalladioL-Ital-4e"/>
       <use transform="translate(269.378335 0)scale(0.996264)" xlink:href="#URWPalladioL-Roma-2f"/>
       <use transform="translate(330.99724 0)scale(0.996264)" xlink:href="#URWPalladioL-Roma-32"/>
      </g>
     </g>
    </g>
    <g id="ytick_16">
     <g id="line2d_49">
      <path clip-path="url(#p264f34ef49)" d="M 284.6366 105.095893 
L 487.545691 105.095893 
" style="fill:none;stroke:#000000;stroke-linejoin:miter;stroke-opacity:0.2;stroke-width:0.5;"/>
     </g>
     <g id="line2d_50">
      <g>
       <use style="fill-opacity:0.2;stroke:#000000;stroke-opacity:0.2;stroke-width:0.8;" x="487.545691" xlink:href="#mf0636d430c" y="105.095893"/>
      </g>
     </g>
     <g id="text_18">
      <!-- $A_1 \cdot N/2$ -->
      <g transform="translate(503.045691 110.085658)scale(0.14 -0.14)">
       <use transform="scale(0.996264)" xlink:href="#URWPalladioL-Ital-41"/>
       <use transform="translate(73.175573 -18.577338)scale(0.757155)" xlink:href="#URWPalladioL-Roma-31"/>
       <use transform="translate(132.148517 0)scale(1.038107)" xlink:href="#CMSY10-1"/>
       <use transform="translate(186.289877 0)scale(0.996264)" xlink:href="#URWPalladioL-Ital-4e"/>
       <use transform="translate(269.378335 0)scale(0.996264)" xlink:href="#URWPalladioL-Roma-2f"/>
       <use transform="translate(330.99724 0)scale(0.996264)" xlink:href="#URWPalladioL-Roma-32"/>
      </g>
     </g>
    </g>
    <g id="text_19">
     <!-- $S(x, -\sin)$ -->
     <g transform="translate(569.873472 214.249629)rotate(-90)scale(0.12 -0.12)">
      <use transform="scale(0.996264)" xlink:href="#URWPalladioL-Ital-53"/>
      <use transform="translate(57.88296 0)scale(1.038107)" xlink:href="#CMR10-28"/>
      <use transform="translate(102.316341 0)scale(0.996264)" xlink:href="#URWPalladioL-Ital-78"/>
      <use transform="translate(154.370178 0)scale(0.996264)" xlink:href="#URWPalladioL-Roma-2c"/>
      <use transform="translate(197.126437 0)scale(1.038107)" xlink:href="#CMSY10-0"/>
      <use transform="translate(295.672493 0)scale(0.996264)" xlink:href="#URWPalladioL-Roma-73"/>
      <use transform="translate(337.91396 0)scale(0.996264)" xlink:href="#URWPalladioL-Roma-69"/>
      <use transform="translate(366.904321 0)scale(0.996264)" xlink:href="#URWPalladioL-Roma-6e"/>
      <use transform="translate(426.131681 0)scale(1.038107)" xlink:href="#CMR10-29"/>
     </g>
    </g>
   </g>
   <g id="PathCollection_1">
    <defs>
     <path d="M 0 4.472136 
C 1.186024 4.472136 2.323632 4.000923 3.162278 3.162278 
C 4.000923 2.323632 4.472136 1.186024 4.472136 -0 
C 4.472136 -1.186024 4.000923 -2.323632 3.162278 -3.162278 
C 2.323632 -4.000923 1.186024 -4.472136 0 -4.472136 
C -1.186024 -4.472136 -2.323632 -4.000923 -3.162278 -3.162278 
C -4.000923 -2.323632 -4.472136 -1.186024 -4.472136 0 
C -4.472136 1.186024 -4.000923 2.323632 -3.162278 3.162278 
C -2.323632 4.000923 -1.186024 4.472136 0 4.472136 
z
" id="C0_0_97b3611edd"/>
    </defs>
    <g clip-path="url(#p264f34ef49)">
     <use style="fill:#0271ae;stroke:#0271ae;stroke-width:0.5;" x="386.091145" xlink:href="#C0_0_97b3611edd" y="267.423166"/>
    </g>
    <g clip-path="url(#p264f34ef49)">
     <use style="fill:#dc2830;stroke:#dc2830;stroke-width:0.5;" x="426.672963" xlink:href="#C0_0_97b3611edd" y="186.259529"/>
    </g>
    <g clip-path="url(#p264f34ef49)">
     <use style="fill:#f2aa00;stroke:#f2aa00;stroke-width:0.5;" x="343.047627" xlink:href="#C0_0_97b3611edd" y="229.303048"/>
    </g>
   </g>
   <g id="patch_6">
    <path clip-path="url(#p264f34ef49)" d="M 386.091145 267.423166 
C 407.615993 267.423166 428.262137 258.871253 443.482503 243.650887 
C 458.702869 228.430521 467.254782 207.784377 467.254782 186.259529 
C 467.254782 164.734681 458.702869 144.088538 443.482503 128.868172 
C 428.262137 113.647806 407.615993 105.095893 386.091145 105.095893 
C 364.566297 105.095893 343.920154 113.647806 328.699788 128.868172 
C 313.479422 144.088538 304.927509 164.734681 304.927509 186.259529 
C 304.927509 207.784377 313.479422 228.430521 328.699788 243.650887 
C 343.920154 258.871253 364.566297 267.423166 386.091145 267.423166 
z
" style="fill:none;stroke:#0271ae;stroke-linejoin:miter;stroke-width:2;"/>
   </g>
   <g id="patch_7">
    <path clip-path="url(#p264f34ef49)" d="M 386.091145 206.550438 
C 391.470565 206.550438 396.63516 204.411193 400.438985 200.607369 
C 404.242809 196.803544 406.382054 191.638949 406.382054 186.259529 
L 386.091145 186.259529 
L 386.091145 206.550438 
z
" style="fill:#0271ae;"/>
   </g>
   <g id="patch_8">
    <path clip-path="url(#p264f34ef49)" d="M 386.091145 226.841347 
C 396.853569 226.841347 407.176641 222.565391 414.786824 214.955208 
C 422.397007 207.345025 426.672963 197.021953 426.672963 186.259529 
C 426.672963 175.497105 422.397007 165.174033 414.786824 157.56385 
C 407.176641 149.953667 396.853569 145.677711 386.091145 145.677711 
C 375.328721 145.677711 365.005649 149.953667 357.395466 157.56385 
C 349.785283 165.174033 345.509327 175.497105 345.509327 186.259529 
C 345.509327 197.021953 349.785283 207.345025 357.395466 214.955208 
C 365.005649 222.565391 375.328721 226.841347 386.091145 226.841347 
z
" style="fill:none;stroke:#dc2830;stroke-linejoin:miter;stroke-width:2;"/>
   </g>
   <g id="patch_9">
    <path clip-path="url(#p264f34ef49)" d="M 386.091145 247.132257 
C 402.234781 247.132257 417.719389 240.718322 429.134664 229.303048 
C 440.549938 217.887773 446.963873 202.403165 446.963873 186.259529 
C 446.963873 170.115893 440.549938 154.631286 429.134664 143.216011 
C 417.719389 131.800737 402.234781 125.386802 386.091145 125.386802 
C 369.947509 125.386802 354.462901 131.800737 343.047627 143.216011 
C 331.632353 154.631286 325.218418 170.115893 325.218418 186.259529 
C 325.218418 202.403165 331.632353 217.887773 343.047627 229.303048 
C 354.462901 240.718322 369.947509 247.132257 386.091145 247.132257 
z
" style="fill:none;stroke:#f2aa00;stroke-linejoin:miter;stroke-width:2;"/>
   </g>
   <g id="line2d_51">
    <path clip-path="url(#p264f34ef49)" d="M 386.091145 186.259529 
L 386.091145 267.423166 
" style="fill:none;stroke:#0271ae;stroke-linejoin:miter;"/>
   </g>
   <g id="line2d_52">
    <path clip-path="url(#p264f34ef49)" d="M 386.091145 186.259529 
L 343.047627 229.303048 
" style="fill:none;stroke:#f2aa00;stroke-linejoin:miter;"/>
   </g>
   <g id="patch_10">
    <path clip-path="url(#p264f34ef49)" d="M 398.265691 186.259529 
C 398.265691 184.257528 397.771873 182.286096 396.828136 180.520488 
C 395.884399 178.754881 394.519563 177.249017 392.85496 176.136765 
C 391.190357 175.024513 389.27682 174.339838 387.284459 174.143608 
C 385.292099 173.947377 383.281756 174.245583 381.432148 175.011716 
C 379.582541 175.777849 377.95015 176.988512 376.680094 178.536079 
C 375.410038 180.083647 374.541101 181.92086 374.15053 183.884393 
C 373.759959 185.847926 373.859681 187.877818 374.440832 189.793613 
C 375.021982 191.709409 376.066813 193.452604 377.482442 194.868233 
L 386.091145 186.259529 
L 398.265691 186.259529 
z
" style="fill:#f2aa00;"/>
   </g>
  </g>
 </g>
 <defs>
  <clipPath id="p37f02456b9">
   <rect height="95.929412" width="202.909091" x="41.145691" y="23.179529"/>
  </clipPath>
  <clipPath id="pcf5a3932d9">
   <rect height="95.929412" width="202.909091" x="41.145691" y="138.294823"/>
  </clipPath>
  <clipPath id="pb30a51a973">
   <rect height="95.929412" width="202.909091" x="41.145691" y="253.410118"/>
  </clipPath>
  <clipPath id="p264f34ef49">
   <rect height="202.909091" width="202.909091" x="284.6366" y="84.804984"/>
  </clipPath>
 </defs>
</svg>
