<?xml version="1.0" encoding="utf-8" standalone="no"?>
<!DOCTYPE svg PUBLIC "-//W3C//DTD SVG 1.1//EN"
  "http://www.w3.org/Graphics/SVG/1.1/DTD/svg11.dtd">
<svg height="372.464689pt" version="1.1" viewBox="0 0 580.444756 372.464689" width="580.444756pt" xmlns="http://www.w3.org/2000/svg" xmlns:xlink="http://www.w3.org/1999/xlink">
 <metadata>
  <rdf:RDF xmlns:cc="http://creativecommons.org/ns#" xmlns:dc="http://purl.org/dc/elements/1.1/" xmlns:rdf="http://www.w3.org/1999/02/22-rdf-syntax-ns#">
   <cc:Work>
    <dc:type rdf:resource="http://purl.org/dc/dcmitype/StillImage"/>
    <dc:date>2020-07-15T07:53:17.276366</dc:date>
    <dc:format>image/svg+xml</dc:format>
    <dc:creator>
     <cc:Agent>
      <dc:title>Matplotlib v3.3.0rc1.post282+g187e87b5f, https://matplotlib.org/</dc:title>
     </cc:Agent>
    </dc:creator>
   </cc:Work>
  </rdf:RDF>
 </metadata>
 <defs>
  <style type="text/css">*{stroke-linecap:butt;stroke-linejoin:round;}</style>
 </defs>
 <g id="figure_1">
  <g id="patch_1">
   <path d="M 0 372.464689 
L 580.444756 372.464689 
L 580.444756 0 
L 0 0 
z
" style="fill:none;"/>
  </g>
  <g id="axes_1">
   <g id="patch_2">
    <path d="M 41.145691 119.108941 
L 244.054782 119.108941 
L 244.054782 23.179529 
L 41.145691 23.179529 
z
" style="fill:none;"/>
   </g>
   <g id="matplotlib.axis_1"/>
   <g id="matplotlib.axis_2">
    <g id="ytick_1">
     <g id="line2d_1">
      <path clip-path="url(#p1c1ff5eca9)" d="M 41.145691 114.748513 
L 244.054782 114.748513 
" style="fill:none;stroke:#000000;stroke-linecap:square;stroke-opacity:0.2;stroke-width:0.5;"/>
     </g>
     <g id="line2d_2">
      <defs>
       <path d="M 0 0 
L -3.5 0 
" id="mb9cb4b25ac" style="stroke:#000000;stroke-opacity:0.2;stroke-width:0.8;"/>
      </defs>
      <g>
       <use style="fill-opacity:0.2;stroke:#000000;stroke-opacity:0.2;stroke-width:0.8;" x="41.145691" xlink:href="#mb9cb4b25ac" y="114.748513"/>
      </g>
     </g>
     <g id="text_1">
      <!-- $\mathdefault{−1}$ -->
      <g transform="translate(7.2 119.738278)scale(0.14 -0.14)">
       <defs>
        <path d="M 65.90625 23 
C 67.59375 23 69.40625 23 69.40625 25 
C 69.40625 27 67.59375 27 65.90625 27 
L 11.796875 27 
C 10.09375 27 8.296875 27 8.296875 25 
C 8.296875 23 10.09375 23 11.796875 23 
z
" id="CMSY10-0"/>
        <path d="M 6.703125 56 
L 7.703125 56 
L 20.59375 61.8125 
C 20.703125 61.90625 20.796875 61.90625 20.90625 61.90625 
C 21.5 61.90625 21.703125 61.015625 21.703125 58.609375 
L 21.703125 9.578125 
C 21.703125 4.3125 20.59375 3.203125 15.203125 3.203125 
L 9.59375 3.203125 
L 9.59375 0 
C 25 0 25 0 26.09375 0 
C 27.40625 0 29.59375 0 33 0 
C 34.203125 0 37.703125 0 41.796875 0 
L 41.796875 3.203125 
L 36.59375 3.203125 
C 31.09375 3.203125 30.09375 4.3125 30.09375 9.5625 
L 30.09375 69.421875 
L 28.703125 69.921875 
C 22.203125 66.515625 15.09375 63.515625 6 60.3125 
z
" id="URW_Palladio_L_Roman-49"/>
       </defs>
       <use transform="scale(1.038107)" xlink:href="#CMSY10-0"/>
       <use transform="translate(81.941696 0)scale(0.996264)" xlink:href="#URW_Palladio_L_Roman-49"/>
      </g>
     </g>
    </g>
    <g id="ytick_2">
     <g id="line2d_3">
      <path clip-path="url(#p1c1ff5eca9)" d="M 41.145691 71.144235 
L 244.054782 71.144235 
" style="fill:none;stroke:#000000;stroke-linecap:square;stroke-opacity:0.2;stroke-width:0.5;"/>
     </g>
     <g id="line2d_4">
      <g>
       <use style="fill-opacity:0.2;stroke:#000000;stroke-opacity:0.2;stroke-width:0.8;" x="41.145691" xlink:href="#mb9cb4b25ac" y="71.144235"/>
      </g>
     </g>
     <g id="text_2">
      <!-- $\mathdefault{0}$ -->
      <g transform="translate(18.671843 76.134)scale(0.14 -0.14)">
       <defs>
        <path d="M 26.296875 69 
C 10.796875 69 2.90625 56.6875 2.90625 32.453125 
C 2.90625 20.71875 5 10.625 8.5 5.71875 
C 12 0.796875 17.59375 -2 23.796875 -2 
C 38.90625 -2 46.5 11.015625 46.5 36.65625 
C 46.5 58.578125 40 69 26.296875 69 
z
M 24.5 65.5 
C 34.203125 65.5 38.09375 55.6875 38.09375 31.640625 
C 38.09375 10.328125 34.296875 1.5 25.09375 1.5 
C 15.40625 1.5 11.296875 11.625 11.296875 36.0625 
C 11.296875 57.1875 15 65.5 24.5 65.5 
z
" id="URW_Palladio_L_Roman-48"/>
       </defs>
       <use transform="scale(0.996264)" xlink:href="#URW_Palladio_L_Roman-48"/>
      </g>
     </g>
    </g>
    <g id="ytick_3">
     <g id="line2d_5">
      <path clip-path="url(#p1c1ff5eca9)" d="M 41.145691 27.539957 
L 244.054782 27.539957 
" style="fill:none;stroke:#000000;stroke-linecap:square;stroke-opacity:0.2;stroke-width:0.5;"/>
     </g>
     <g id="line2d_6">
      <g>
       <use style="fill-opacity:0.2;stroke:#000000;stroke-opacity:0.2;stroke-width:0.8;" x="41.145691" xlink:href="#mb9cb4b25ac" y="27.539957"/>
      </g>
     </g>
     <g id="text_3">
      <!-- $\mathdefault{1}$ -->
      <g transform="translate(18.671843 32.529722)scale(0.14 -0.14)">
       <use transform="scale(0.996264)" xlink:href="#URW_Palladio_L_Roman-49"/>
      </g>
     </g>
    </g>
   </g>
   <g id="line2d_7">
    <defs>
     <path d="M 0 2 
C 0.530406 2 1.03916 1.789267 1.414214 1.414214 
C 1.789267 1.03916 2 0.530406 2 0 
C 2 -0.530406 1.789267 -1.03916 1.414214 -1.414214 
C 1.03916 -1.789267 0.530406 -2 0 -2 
C -0.530406 -2 -1.03916 -1.789267 -1.414214 -1.414214 
C -1.789267 -1.03916 -2 -0.530406 -2 0 
C -2 0.530406 -1.789267 1.03916 -1.414214 1.414214 
C -1.03916 1.789267 -0.530406 2 0 2 
z
" id="ma0f5f0800a"/>
    </defs>
    <g clip-path="url(#p1c1ff5eca9)">
     <use style="fill:#0271ae;" x="41.145691" xlink:href="#ma0f5f0800a" y="71.144235"/>
     <use style="fill:#0271ae;" x="46.348488" xlink:href="#ma0f5f0800a" y="51.348307"/>
     <use style="fill:#0271ae;" x="51.551285" xlink:href="#ma0f5f0800a" y="35.867633"/>
     <use style="fill:#0271ae;" x="56.754082" xlink:href="#ma0f5f0800a" y="28.076798"/>
     <use style="fill:#0271ae;" x="61.95688" xlink:href="#ma0f5f0800a" y="29.674102"/>
     <use style="fill:#0271ae;" x="67.159677" xlink:href="#ma0f5f0800a" y="40.311354"/>
     <use style="fill:#0271ae;" x="72.362474" xlink:href="#ma0f5f0800a" y="57.669772"/>
     <use style="fill:#0271ae;" x="77.565271" xlink:href="#ma0f5f0800a" y="77.965447"/>
     <use style="fill:#0271ae;" x="82.768068" xlink:href="#ma0f5f0800a" y="96.774187"/>
     <use style="fill:#0271ae;" x="87.970866" xlink:href="#ma0f5f0800a" y="109.995931"/>
     <use style="fill:#0271ae;" x="93.173663" xlink:href="#ma0f5f0800a" y="114.748513"/>
     <use style="fill:#0271ae;" x="98.37646" xlink:href="#ma0f5f0800a" y="109.995931"/>
     <use style="fill:#0271ae;" x="103.579257" xlink:href="#ma0f5f0800a" y="96.774187"/>
     <use style="fill:#0271ae;" x="108.782054" xlink:href="#ma0f5f0800a" y="77.965447"/>
     <use style="fill:#0271ae;" x="113.984852" xlink:href="#ma0f5f0800a" y="57.669772"/>
     <use style="fill:#0271ae;" x="119.187649" xlink:href="#ma0f5f0800a" y="40.311354"/>
     <use style="fill:#0271ae;" x="124.390446" xlink:href="#ma0f5f0800a" y="29.674102"/>
     <use style="fill:#0271ae;" x="129.593243" xlink:href="#ma0f5f0800a" y="28.076798"/>
     <use style="fill:#0271ae;" x="134.79604" xlink:href="#ma0f5f0800a" y="35.867633"/>
     <use style="fill:#0271ae;" x="139.998838" xlink:href="#ma0f5f0800a" y="51.348307"/>
     <use style="fill:#0271ae;" x="145.201635" xlink:href="#ma0f5f0800a" y="71.144235"/>
     <use style="fill:#0271ae;" x="150.404432" xlink:href="#ma0f5f0800a" y="90.940163"/>
     <use style="fill:#0271ae;" x="155.607229" xlink:href="#ma0f5f0800a" y="106.420837"/>
     <use style="fill:#0271ae;" x="160.810026" xlink:href="#ma0f5f0800a" y="114.211672"/>
     <use style="fill:#0271ae;" x="166.012824" xlink:href="#ma0f5f0800a" y="112.614368"/>
     <use style="fill:#0271ae;" x="171.215621" xlink:href="#ma0f5f0800a" y="101.977116"/>
     <use style="fill:#0271ae;" x="176.418418" xlink:href="#ma0f5f0800a" y="84.618698"/>
     <use style="fill:#0271ae;" x="181.621215" xlink:href="#ma0f5f0800a" y="64.323023"/>
     <use style="fill:#0271ae;" x="186.824012" xlink:href="#ma0f5f0800a" y="45.514284"/>
     <use style="fill:#0271ae;" x="192.02681" xlink:href="#ma0f5f0800a" y="32.292539"/>
     <use style="fill:#0271ae;" x="197.229607" xlink:href="#ma0f5f0800a" y="27.539957"/>
     <use style="fill:#0271ae;" x="202.432404" xlink:href="#ma0f5f0800a" y="32.292539"/>
     <use style="fill:#0271ae;" x="207.635201" xlink:href="#ma0f5f0800a" y="45.514284"/>
     <use style="fill:#0271ae;" x="212.837998" xlink:href="#ma0f5f0800a" y="64.323023"/>
     <use style="fill:#0271ae;" x="218.040796" xlink:href="#ma0f5f0800a" y="84.618698"/>
     <use style="fill:#0271ae;" x="223.243593" xlink:href="#ma0f5f0800a" y="101.977116"/>
     <use style="fill:#0271ae;" x="228.44639" xlink:href="#ma0f5f0800a" y="112.614368"/>
     <use style="fill:#0271ae;" x="233.649187" xlink:href="#ma0f5f0800a" y="114.211672"/>
     <use style="fill:#0271ae;" x="238.851984" xlink:href="#ma0f5f0800a" y="106.420837"/>
     <use style="fill:#0271ae;" x="244.054782" xlink:href="#ma0f5f0800a" y="90.940163"/>
    </g>
   </g>
   <g id="text_4">
    <!-- $A_1=1, \phi_1=-\pi/2$ -->
    <g transform="translate(82.997316 17.179529)scale(0.14 -0.14)">
     <defs>
      <path d="M 46.203125 70.5 
L 8.90625 11.375 
C 5.296875 5.78125 3.5 4.1875 0.09375 3.390625 
L -1.90625 2.890625 
L -1.90625 0 
C 7.296875 0 7.296875 0 9.296875 0 
C 11.203125 0 11.40625 0 20 0 
L 20 2.890625 
L 14.796875 2.890625 
C 13.203125 2.890625 11.703125 3.890625 11.703125 4.90625 
C 11.703125 5.703125 12.40625 7.109375 14.296875 10.421875 
L 24.5 28 
L 49.09375 28 
L 51.59375 9.046875 
L 51.59375 8.75 
C 51.59375 8.65625 51.703125 8.34375 51.796875 7.84375 
C 51.90625 7.03125 52 6.015625 52 5.625 
C 52 4.015625 50.5 3.09375 47.703125 2.890625 
L 43.296875 2.890625 
L 43.296875 0 
C 53.5 0 53.5 0 55.5 0 
C 57.5 0 57.5 0 67.703125 0 
L 67.703125 2.6875 
L 65.09375 2.984375 
C 60.40625 3.6875 60.296875 3.6875 59.5 8.171875 
L 50.796875 70.5 
z
M 44.90625 60.265625 
L 48.59375 31.59375 
L 27 31.59375 
z
" id="URW_Palladio_L_Italic-65"/>
      <path d="M 68.703125 32 
C 70.203125 32 72.09375 32 72.09375 34.015625 
C 72.09375 36.015625 70.203125 36.015625 68.796875 36.015625 
L 8.90625 36.015625 
C 7.5 36.015625 5.59375 36.015625 5.59375 34.015625 
C 5.59375 32 7.5 32 9 32 
z
M 68.796875 13 
C 70.203125 13 72.09375 13 72.09375 15.015625 
C 72.09375 17.015625 70.203125 17.015625 68.703125 17.015625 
L 9 17.015625 
C 7.5 17.015625 5.59375 17.015625 5.59375 15.015625 
C 5.59375 13 7.5 13 8.90625 13 
z
" id="CMR10-61"/>
      <path d="M 20.40625 12.328125 
C 17.703125 11.421875 15.90625 10.828125 10.59375 9.3125 
C 9.90625 1.703125 7.40625 -4.8125 1.59375 -14.421875 
L 3 -15.53125 
L 7.09375 -13.625 
C 15.203125 -3.109375 19 3.203125 21.796875 10.921875 
z
" id="URW_Palladio_L_Roman-44"/>
      <path d="M 39.203125 64.96875 
C 37.203125 63.75 34.5 62.546875 31.40625 61.34375 
L 29.40625 47.390625 
C 26.296875 46.59375 23.296875 45.484375 20.203125 43.96875 
C 8.296875 38.15625 1.703125 27.90625 1.703125 15.375 
C 1.703125 4.625 8 -1 19.703125 -1 
C 20.296875 -1 20.90625 -1 21.5 -0.890625 
C 20.40625 -6.8125 18.703125 -15.15625 16.90625 -23.28125 
L 16.09375 -27 
L 16.796875 -27.609375 
C 18.90625 -26.90625 20.90625 -26.40625 24.09375 -25.890625 
L 28.203125 0.015625 
C 33 1.109375 37.703125 3.015625 41.59375 5.625 
C 50.5 11.5625 56.796875 22.984375 56.796875 33.328125 
C 56.796875 42.765625 49.796875 48.5 38.40625 48.5 
C 37.796875 48.5 37.203125 48.5 36.59375 48.390625 
C 37.796875 54.921875 38.796875 59.03125 40.296875 63.453125 
z
M 49.203125 31.828125 
C 49.203125 22.09375 43.59375 11.453125 36.59375 6.140625 
C 34.5 4.625 31.796875 3.53125 28.703125 3.015625 
C 28.90625 4.328125 29.203125 5.53125 29.296875 6.03125 
L 31.09375 16.671875 
C 31.90625 21.296875 32.59375 25.203125 35 39.25 
L 35.90625 44.578125 
C 44.40625 43.875 49.203125 39.453125 49.203125 31.828125 
z
M 9.296875 15.265625 
C 9.296875 26.515625 16.296875 38.765625 24 42.984375 
C 25.203125 43.59375 26.90625 44.09375 28.90625 44.390625 
L 22.09375 2.921875 
C 13 3.921875 9.296875 8.046875 9.296875 15.265625 
z
" id="Pazo_Math_Italic-102"/>
      <path d="M 9.59375 35.578125 
L 10.5 36.28125 
C 12.59375 42.203125 16.59375 42.5 22.296875 42.5 
C 23.5 42.5 25.296875 42.5 27.40625 42.5 
C 19 19.59375 15.203125 12.65625 7.09375 -0.09375 
L 8 -1 
L 15.40625 1.578125 
C 19 9.359375 25.09375 24.484375 30.59375 42 
L 49.203125 42 
C 47.5 35.71875 41.703125 17.421875 41.703125 10.953125 
C 41.703125 0.328125 45.5 -1 48.59375 -1 
C 53.703125 -1 56.59375 0.3125 62.90625 5.625 
L 62.09375 7.53125 
L 59.703125 5.8125 
C 60 6.015625 57.09375 3.71875 55.40625 3.71875 
C 50.703125 3.71875 49.296875 6.640625 49.296875 12.859375 
C 49.296875 15.375 49.5 18.078125 50.09375 21 
C 51.796875 29.34375 53.5 37.578125 54.40625 41.703125 
C 56.703125 41.703125 59 41.703125 61.296875 42 
C 63.09375 42 65.296875 43.03125 66.90625 43.640625 
C 68 45.78125 68.40625 45.984375 70.296875 48.421875 
L 69.59375 49.625 
C 66.90625 48.71875 62.40625 47.71875 59.09375 47.71875 
C 57.90625 47.921875 55.40625 47.921875 52.90625 47.921875 
C 42.203125 47.921875 25.703125 47.921875 21.296875 47.921875 
C 13.796875 47.921875 11.09375 44.75 8.203125 36.375 
z
" id="Pazo_Math_Italic-112"/>
      <path d="M 51.90625 72.5 
L 45.90625 72.5 
L 8.703125 -12 
L 14.703125 -12 
z
" id="URW_Palladio_L_Roman-47"/>
      <path d="M 1.59375 2.5 
L 1.59375 0 
C 20.296875 0 20.296875 0 23.90625 0 
C 27.5 0 27.5 0 46.796875 0 
C 46.59375 1.953125 46.59375 2.90625 46.59375 4.203125 
C 46.59375 5.4375 46.59375 6.359375 46.796875 8.421875 
C 35.296875 8.421875 30.703125 8.421875 12.203125 8.421875 
L 30.40625 27.515625 
C 40.09375 37.71875 43.09375 43.171875 43.09375 50.59375 
C 43.09375 61.96875 35.296875 69 22.59375 69 
C 15.40625 69 10.5 67 5.59375 62.015625 
L 3.90625 48.421875 
L 6.796875 48.421875 
L 8.09375 53.015625 
C 9.703125 58.796875 13.296875 61.296875 20 61.296875 
C 28.59375 61.296875 34.09375 55.890625 34.09375 47.421875 
C 34.09375 39.921875 29.90625 32.546875 18.59375 20.5625 
z
" id="URW_Palladio_L_Roman-50"/>
     </defs>
     <use transform="scale(0.996264)" xlink:href="#URW_Palladio_L_Italic-65"/>
     <use transform="translate(73.175573 -18.577338)scale(0.757155)" xlink:href="#URW_Palladio_L_Roman-49"/>
     <use transform="translate(140.450696 0)scale(1.038107)" xlink:href="#CMR10-61"/>
     <use transform="translate(250.066325 0)scale(0.996264)" xlink:href="#URW_Palladio_L_Roman-49"/>
     <use transform="translate(299.879526 0)scale(0.996264)" xlink:href="#URW_Palladio_L_Roman-44"/>
     <use transform="translate(342.635785 0)scale(0.996264)" xlink:href="#Pazo_Math_Italic-102"/>
     <use transform="translate(400.069457 -18.577338)scale(0.757155)" xlink:href="#URW_Palladio_L_Roman-49"/>
     <use transform="translate(467.34458 0)scale(1.038107)" xlink:href="#CMR10-61"/>
     <use transform="translate(578.205509 0)scale(1.038107)" xlink:href="#CMSY10-0"/>
     <use transform="translate(661.392505 0)scale(0.996264)" xlink:href="#Pazo_Math_Italic-112"/>
     <use transform="translate(733.919433 0)scale(0.996264)" xlink:href="#URW_Palladio_L_Roman-47"/>
     <use transform="translate(795.538338 0)scale(0.996264)" xlink:href="#URW_Palladio_L_Roman-50"/>
    </g>
   </g>
  </g>
  <g id="axes_2">
   <g id="patch_3">
    <path d="M 41.145691 234.224235 
L 244.054782 234.224235 
L 244.054782 138.294823 
L 41.145691 138.294823 
z
" style="fill:none;"/>
   </g>
   <g id="matplotlib.axis_3"/>
   <g id="matplotlib.axis_4">
    <g id="ytick_4">
     <g id="line2d_8">
      <path clip-path="url(#p43b20e7fc8)" d="M 41.145691 229.863807 
L 244.054782 229.863807 
" style="fill:none;stroke:#000000;stroke-linecap:square;stroke-opacity:0.2;stroke-width:0.5;"/>
     </g>
     <g id="line2d_9">
      <g>
       <use style="fill-opacity:0.2;stroke:#000000;stroke-opacity:0.2;stroke-width:0.8;" x="41.145691" xlink:href="#mb9cb4b25ac" y="229.863807"/>
      </g>
     </g>
     <g id="text_5">
      <!-- $\mathdefault{−1}$ -->
      <g transform="translate(7.2 234.853572)scale(0.14 -0.14)">
       <use transform="scale(1.038107)" xlink:href="#CMSY10-0"/>
       <use transform="translate(81.941696 0)scale(0.996264)" xlink:href="#URW_Palladio_L_Roman-49"/>
      </g>
     </g>
    </g>
    <g id="ytick_5">
     <g id="line2d_10">
      <path clip-path="url(#p43b20e7fc8)" d="M 41.145691 186.259529 
L 244.054782 186.259529 
" style="fill:none;stroke:#000000;stroke-linecap:square;stroke-opacity:0.2;stroke-width:0.5;"/>
     </g>
     <g id="line2d_11">
      <g>
       <use style="fill-opacity:0.2;stroke:#000000;stroke-opacity:0.2;stroke-width:0.8;" x="41.145691" xlink:href="#mb9cb4b25ac" y="186.259529"/>
      </g>
     </g>
     <g id="text_6">
      <!-- $\mathdefault{0}$ -->
      <g transform="translate(18.671843 191.249294)scale(0.14 -0.14)">
       <use transform="scale(0.996264)" xlink:href="#URW_Palladio_L_Roman-48"/>
      </g>
     </g>
    </g>
    <g id="ytick_6">
     <g id="line2d_12">
      <path clip-path="url(#p43b20e7fc8)" d="M 41.145691 142.655251 
L 244.054782 142.655251 
" style="fill:none;stroke:#000000;stroke-linecap:square;stroke-opacity:0.2;stroke-width:0.5;"/>
     </g>
     <g id="line2d_13">
      <g>
       <use style="fill-opacity:0.2;stroke:#000000;stroke-opacity:0.2;stroke-width:0.8;" x="41.145691" xlink:href="#mb9cb4b25ac" y="142.655251"/>
      </g>
     </g>
     <g id="text_7">
      <!-- $\mathdefault{1}$ -->
      <g transform="translate(18.671843 147.645016)scale(0.14 -0.14)">
       <use transform="scale(0.996264)" xlink:href="#URW_Palladio_L_Roman-49"/>
      </g>
     </g>
    </g>
   </g>
   <g id="line2d_14">
    <defs>
     <path d="M 0 2 
C 0.530406 2 1.03916 1.789267 1.414214 1.414214 
C 1.789267 1.03916 2 0.530406 2 0 
C 2 -0.530406 1.789267 -1.03916 1.414214 -1.414214 
C 1.03916 -1.789267 0.530406 -2 0 -2 
C -0.530406 -2 -1.03916 -1.789267 -1.414214 -1.414214 
C -1.789267 -1.03916 -2 -0.530406 -2 0 
C -2 0.530406 -1.789267 1.03916 -1.414214 1.414214 
C -1.03916 1.789267 -0.530406 2 0 2 
z
" id="m0ed546fda0"/>
    </defs>
    <g clip-path="url(#p43b20e7fc8)">
     <use style="fill:#dc2830;" x="41.145691" xlink:href="#m0ed546fda0" y="164.45739"/>
     <use style="fill:#dc2830;" x="46.348488" xlink:href="#m0ed546fda0" y="166.833681"/>
     <use style="fill:#dc2830;" x="51.551285" xlink:href="#m0ed546fda0" y="173.444553"/>
     <use style="fill:#dc2830;" x="56.754082" xlink:href="#m0ed546fda0" y="182.848923"/>
     <use style="fill:#dc2830;" x="61.95688" xlink:href="#m0ed546fda0" y="192.996761"/>
     <use style="fill:#dc2830;" x="67.159677" xlink:href="#m0ed546fda0" y="201.67597"/>
     <use style="fill:#dc2830;" x="72.362474" xlink:href="#m0ed546fda0" y="206.994596"/>
     <use style="fill:#dc2830;" x="77.565271" xlink:href="#m0ed546fda0" y="207.793248"/>
     <use style="fill:#dc2830;" x="82.768068" xlink:href="#m0ed546fda0" y="203.89783"/>
     <use style="fill:#dc2830;" x="87.970866" xlink:href="#m0ed546fda0" y="196.157493"/>
     <use style="fill:#dc2830;" x="93.173663" xlink:href="#m0ed546fda0" y="186.259529"/>
     <use style="fill:#dc2830;" x="98.37646" xlink:href="#m0ed546fda0" y="176.361565"/>
     <use style="fill:#dc2830;" x="103.579257" xlink:href="#m0ed546fda0" y="168.621228"/>
     <use style="fill:#dc2830;" x="108.782054" xlink:href="#m0ed546fda0" y="164.725811"/>
     <use style="fill:#dc2830;" x="113.984852" xlink:href="#m0ed546fda0" y="165.524463"/>
     <use style="fill:#dc2830;" x="119.187649" xlink:href="#m0ed546fda0" y="170.843089"/>
     <use style="fill:#dc2830;" x="124.390446" xlink:href="#m0ed546fda0" y="179.522298"/>
     <use style="fill:#dc2830;" x="129.593243" xlink:href="#m0ed546fda0" y="189.670135"/>
     <use style="fill:#dc2830;" x="134.79604" xlink:href="#m0ed546fda0" y="199.074505"/>
     <use style="fill:#dc2830;" x="139.998838" xlink:href="#m0ed546fda0" y="205.685377"/>
     <use style="fill:#dc2830;" x="145.201635" xlink:href="#m0ed546fda0" y="208.061668"/>
     <use style="fill:#dc2830;" x="150.404432" xlink:href="#m0ed546fda0" y="205.685377"/>
     <use style="fill:#dc2830;" x="155.607229" xlink:href="#m0ed546fda0" y="199.074505"/>
     <use style="fill:#dc2830;" x="160.810026" xlink:href="#m0ed546fda0" y="189.670135"/>
     <use style="fill:#dc2830;" x="166.012824" xlink:href="#m0ed546fda0" y="179.522298"/>
     <use style="fill:#dc2830;" x="171.215621" xlink:href="#m0ed546fda0" y="170.843089"/>
     <use style="fill:#dc2830;" x="176.418418" xlink:href="#m0ed546fda0" y="165.524463"/>
     <use style="fill:#dc2830;" x="181.621215" xlink:href="#m0ed546fda0" y="164.725811"/>
     <use style="fill:#dc2830;" x="186.824012" xlink:href="#m0ed546fda0" y="168.621228"/>
     <use style="fill:#dc2830;" x="192.02681" xlink:href="#m0ed546fda0" y="176.361565"/>
     <use style="fill:#dc2830;" x="197.229607" xlink:href="#m0ed546fda0" y="186.259529"/>
     <use style="fill:#dc2830;" x="202.432404" xlink:href="#m0ed546fda0" y="196.157493"/>
     <use style="fill:#dc2830;" x="207.635201" xlink:href="#m0ed546fda0" y="203.89783"/>
     <use style="fill:#dc2830;" x="212.837998" xlink:href="#m0ed546fda0" y="207.793248"/>
     <use style="fill:#dc2830;" x="218.040796" xlink:href="#m0ed546fda0" y="206.994596"/>
     <use style="fill:#dc2830;" x="223.243593" xlink:href="#m0ed546fda0" y="201.67597"/>
     <use style="fill:#dc2830;" x="228.44639" xlink:href="#m0ed546fda0" y="192.996761"/>
     <use style="fill:#dc2830;" x="233.649187" xlink:href="#m0ed546fda0" y="182.848923"/>
     <use style="fill:#dc2830;" x="238.851984" xlink:href="#m0ed546fda0" y="173.444553"/>
     <use style="fill:#dc2830;" x="244.054782" xlink:href="#m0ed546fda0" y="166.833681"/>
    </g>
   </g>
   <g id="text_8">
    <!-- $A_2=0.5, \phi_2=0$ -->
    <g transform="translate(93.067387 132.294823)scale(0.14 -0.14)">
     <defs>
      <path d="M 12.40625 11.625 
C 9.40625 11.625 6.703125 8.8125 6.703125 5.8125 
C 6.703125 2.796875 9.40625 0 12.296875 0 
C 15.5 0 18.296875 2.703125 18.296875 5.8125 
C 18.296875 8.8125 15.5 11.625 12.40625 11.625 
z
" id="URW_Palladio_L_Roman-46"/>
      <path d="M 12.703125 60.578125 
C 25.59375 60.578125 31.203125 60.578125 43.203125 60.578125 
L 43.703125 61.046875 
C 43.5 62.75 43.5 63.5 43.5 64.75 
C 43.5 66.078125 43.5 66.828125 43.703125 68.53125 
L 43.203125 69 
C 35.703125 69 31.203125 69 25.796875 69 
C 20.296875 69 15.90625 69 8.40625 69 
L 7.90625 68.796875 
C 8 62.671875 8.09375 58.265625 8.09375 55.046875 
C 8.09375 46.515625 7.796875 36.875 7.5 32.453125 
L 9.5 31.84375 
C 14.203125 36.578125 16.90625 38 21.796875 38 
C 31.40625 38 37.40625 31.140625 37.40625 20.25 
C 37.40625 9.0625 31 2.5 20.09375 2.5 
C 14.703125 2.5 9.703125 4.328125 8.296875 6.9375 
L 3.703125 15.203125 
L 1.296875 13.796875 
C 3.59375 8.0625 4.796875 4.84375 6.203125 0.421875 
C 9 -1.109375 13 -2 17.296875 -2 
C 24 -2 31.09375 0.921875 36.59375 5.75 
C 42.703125 11.1875 45.90625 18.03125 45.90625 25.46875 
C 45.90625 36.859375 37.796875 44.90625 26.40625 44.90625 
C 21.59375 44.90625 18 43.609375 11.796875 39.90625 
z
" id="URW_Palladio_L_Roman-53"/>
     </defs>
     <use transform="scale(0.996264)" xlink:href="#URW_Palladio_L_Italic-65"/>
     <use transform="translate(73.175573 -17.441431)scale(0.757155)" xlink:href="#URW_Palladio_L_Roman-50"/>
     <use transform="translate(140.450696 0)scale(1.038107)" xlink:href="#CMR10-61"/>
     <use transform="translate(250.066325 0)scale(0.996264)" xlink:href="#URW_Palladio_L_Roman-48"/>
     <use transform="translate(299.879526 0)scale(0.996264)" xlink:href="#URW_Palladio_L_Roman-46"/>
     <use transform="translate(324.786126 0)scale(0.996264)" xlink:href="#URW_Palladio_L_Roman-53"/>
     <use transform="translate(374.599327 0)scale(0.996264)" xlink:href="#URW_Palladio_L_Roman-44"/>
     <use transform="translate(417.355586 0)scale(0.996264)" xlink:href="#Pazo_Math_Italic-102"/>
     <use transform="translate(474.789258 -17.441431)scale(0.757155)" xlink:href="#URW_Palladio_L_Roman-50"/>
     <use transform="translate(542.064381 0)scale(1.038107)" xlink:href="#CMR10-61"/>
     <use transform="translate(651.68001 0)scale(0.996264)" xlink:href="#URW_Palladio_L_Roman-48"/>
    </g>
   </g>
  </g>
  <g id="axes_3">
   <g id="patch_4">
    <path d="M 41.145691 349.339529 
L 244.054782 349.339529 
L 244.054782 253.410118 
L 41.145691 253.410118 
z
" style="fill:none;"/>
   </g>
   <g id="matplotlib.axis_5">
    <g id="text_9">
     <!-- Time [seconds] -->
     <g transform="translate(102.927385 361.893405)scale(0.12 -0.12)">
      <defs>
       <path d="M 25.5 64.28125 
C 25.796875 60.875 25.90625 58.578125 25.90625 54.265625 
L 25.90625 11.921875 
C 25.90625 4 25.40625 3.203125 20.796875 3.203125 
L 16 3.203125 
L 16 0 
C 21.90625 0 25.40625 0 30.59375 0 
C 35.796875 0 39.40625 0 45.296875 0 
L 45.296875 3.203125 
L 40.5 3.203125 
C 35.90625 3.203125 35.40625 4 35.40625 11.921875 
L 35.40625 54.265625 
C 35.40625 58.78125 35.5 60.984375 35.796875 64.28125 
L 51.296875 64.28125 
C 54.09375 64.28125 55.203125 63.390625 55.296875 61 
L 55.703125 53.125 
L 58.796875 53.125 
C 58.796875 59.53125 59 63.375 59.5 69 
C 52.296875 69 49 69 46.203125 69 
C 42.296875 69 39.40625 69 37.90625 69 
L 22.09375 69 
C 21.09375 69 15.703125 69 8.59375 69 
L 1.796875 69 
C 2.296875 63.375 2.5 59.53125 2.5 53.125 
L 5.59375 53.125 
L 6 61 
C 6.09375 63.390625 7.203125 64.28125 10 64.28125 
z
" id="URW_Palladio_L_Roman-84"/>
       <path d="M 18.796875 46.765625 
L 17.90625 47.171875 
C 12.796875 45.0625 7.59375 43.640625 2.296875 43.046875 
L 2.296875 40.25 
L 6 40.25 
C 10 40.25 10.40625 39.546875 10.40625 32.890625 
L 10.40625 10.171875 
C 10.40625 3.8125 10.09375 3.109375 6.703125 3.109375 
L 2.09375 3.109375 
L 2.09375 0 
C 12.09375 0 12.09375 0 14.59375 0 
C 17.09375 0 17.09375 0 27.09375 0 
L 27.09375 3.109375 
L 22.5 3.109375 
C 19.09375 3.109375 18.796875 3.8125 18.796875 10.171875 
z
M 14.203125 69 
C 11.203125 69 8.59375 66.390625 8.59375 63.375 
C 8.59375 60.46875 11.203125 57.875 14.09375 57.875 
C 17 57.875 19.703125 60.46875 19.703125 63.375 
C 19.703125 66.1875 17 69 14.203125 69 
z
" id="URW_Palladio_L_Roman-105"/>
       <path d="M 1.796875 40.078125 
L 5.5 40.078125 
C 9.5 40.078125 9.90625 39.375 9.90625 32.71875 
L 9.90625 10.046875 
C 9.90625 3.703125 9.59375 3 6.203125 3 
L 1.59375 3 
L 1.59375 -0.109375 
C 11.203125 -0.109375 11.5 -0.109375 14.296875 -0.109375 
C 17.09375 -0.109375 19.703125 -0.109375 26.203125 -0.109375 
L 26.203125 2.796875 
L 22 3.203125 
C 18.59375 3.203125 18.296875 3.90625 18.296875 10.21875 
L 18.296875 31.46875 
C 18.296875 35.96875 24.90625 40.875 30.90625 40.875 
C 36.296875 40.875 40 35.734375 40 28.09375 
L 40 10.046875 
C 40 3.703125 39.703125 3 36.296875 3 
L 31.703125 3 
L 31.703125 -0.109375 
C 41.703125 -0.109375 41.703125 -0.109375 44.203125 -0.109375 
C 46.703125 -0.109375 46.703125 -0.109375 56.703125 -0.109375 
L 56.703125 3 
L 52.09375 3 
C 48.703125 3 48.40625 3.703125 48.40625 10.046875 
L 48.40625 31.421875 
C 48.40625 35.9375 55 40.875 61 40.875 
C 66.40625 40.875 70.09375 35.796875 70.09375 28.21875 
L 70.09375 -0.109375 
C 76.203125 -0.109375 76.296875 -0.109375 78 -0.109375 
C 79.296875 -0.109375 79.296875 -0.109375 86.90625 -0.109375 
L 86.90625 3 
L 82.203125 3 
C 78.796875 3 78.5 3.703125 78.5 10.046875 
L 78.5 30.78125 
C 78.5 40.75 72.703125 47 63.5 47 
C 60 47 57.09375 46.09375 55.296875 44.484375 
L 47.703125 37.6875 
C 44.5 44.28125 40.40625 47 33.5 47 
C 29.796875 47 27 46.09375 25.203125 44.484375 
L 18.296875 38.078125 
L 18.296875 46.59375 
L 17.40625 47 
C 12.296875 44.890625 7.09375 43.484375 1.796875 42.890625 
z
" id="URW_Palladio_L_Roman-109"/>
       <path d="M 43.703125 6.984375 
L 42.40625 7.984375 
C 36 4.203125 33.703125 3.3125 29.40625 3.3125 
C 22.90625 3.3125 17.5 6.21875 14.703125 11.109375 
C 12.796875 14.390625 12.09375 17.203125 11.90625 23 
L 26.5 23 
C 33.40625 23 37.703125 23 44.59375 24.125 
C 44.703125 25.53125 44.796875 26.453125 44.796875 27.671875 
C 44.796875 39.375 37.40625 47 26.203125 47 
C 22.5 47 18.203125 45.6875 14.09375 43.28125 
C 5.90625 38.578125 2.59375 32.359375 2.59375 21.9375 
C 2.59375 15.625 4.09375 10.21875 6.796875 6.40625 
C 10.796875 1.109375 17.5 -2 25 -2 
C 28.703125 -2 32.40625 -1.203125 36.5 0.578125 
C 39.203125 1.6875 41.296875 2.984375 41.703125 3.59375 
z
M 35.90625 26.40625 
C 30.703125 26.40625 28.296875 26.40625 24.703125 26.40625 
C 20.09375 26.40625 17.5 26.40625 12.09375 26.90625 
C 12.09375 31.671875 12.5 33.890625 13.796875 36.515625 
C 15.90625 40.96875 20.203125 43.6875 25 43.6875 
C 28.296875 43.6875 30.90625 42.359375 32.703125 39.59375 
C 34.90625 36.234375 35.59375 33.265625 35.90625 26.40625 
z
" id="URW_Palladio_L_Roman-101"/>
       <path d="M 8.796875 -18 
C 15.90625 -18 16.09375 -18 18.5 -18 
C 20.90625 -18 21.40625 -18 28.203125 -18 
L 28.796875 -17.5 
L 28.796875 -14.890625 
L 28.40625 -14.390625 
L 24.59375 -14.390625 
C 21.90625 -14.390625 19.703125 -13.78125 18.5 -12.78125 
C 17.59375 -11.875 17.296875 -10.484375 17.296875 -7.171875 
C 17.296875 -7.078125 17.296875 -4.96875 17.203125 -1.953125 
L 17.203125 1.75 
L 17.203125 53.265625 
L 17.203125 56.96875 
C 17.296875 59.78125 17.296875 61.984375 17.296875 62.078125 
C 17.296875 65.390625 17.59375 66.890625 18.5 67.796875 
C 19.703125 68.796875 21.90625 69.390625 24.59375 69.390625 
L 28.40625 69.390625 
L 28.796875 69.890625 
L 28.796875 72.5 
L 28.203125 73 
C 21.203125 73 20.90625 73 18.5 73 
C 16.203125 73 15.703125 73 8.796875 73 
L 7.90625 71.796875 
C 8.5 69.296875 8.703125 65.984375 8.703125 58.28125 
C 8.703125 56.765625 8.703125 55.5625 8.796875 54.5625 
L 8.796875 53.265625 
L 8.796875 1.75 
L 8.796875 0.4375 
C 8.703125 -1.15625 8.703125 -1.265625 8.703125 -2.96875 
L 8.703125 -4.0625 
C 8.703125 -10.875 8.5 -13.6875 7.90625 -16.796875 
z
" id="URW_Palladio_L_Roman-91"/>
       <path d="M 4.09375 14.328125 
C 4.09375 7.421875 3.796875 4.40625 3 0.40625 
C 8.203125 -1.296875 12.09375 -2 16.703125 -2 
C 29.796875 -2 39.09375 5.015625 39.09375 14.828125 
C 39.09375 17.9375 38.203125 20.234375 36.296875 22.25 
C 33.703125 24.75 30.40625 25.953125 21.59375 27.65625 
C 13.40625 29.265625 10.703125 31.265625 10.703125 35.875 
C 10.703125 40.875 14.203125 43.6875 20.296875 43.6875 
C 27 43.6875 32.09375 40.1875 32.09375 35.46875 
L 32.09375 33.171875 
L 34.90625 33.171875 
C 35 38.984375 35.09375 41.375 35.40625 44.484375 
C 30.09375 46.296875 26.5 47 22.40625 47 
C 10.796875 47 3.703125 41.484375 3.703125 32.46875 
C 3.703125 27.65625 5.90625 24.25 10.5 22.140625 
C 13.203125 20.9375 18.5 19.34375 25.296875 17.828125 
C 29.796875 16.828125 31.703125 14.734375 31.703125 10.921875 
C 31.703125 5.515625 26.703125 1.703125 19.59375 1.703125 
C 12.296875 1.703125 7.09375 5.203125 7.09375 10.21875 
L 7.09375 14.328125 
z
" id="URW_Palladio_L_Roman-115"/>
       <path d="M 39.90625 31.15625 
C 39.90625 35.765625 40.40625 39.875 41.296875 43.484375 
C 37.296875 45.890625 33.796875 47 29.703125 47 
C 24.90625 47 19.296875 45.09375 13.296875 41.28125 
C 6.296875 36.875 2.59375 29.859375 2.59375 21.046875 
C 2.59375 7.515625 12.09375 -2 25.5 -2 
C 30.703125 -2 38.203125 -0.09375 39.203125 1.40625 
L 41.296875 4.609375 
L 40.296875 6.109375 
C 36.59375 4.109375 33.40625 3.203125 29.796875 3.203125 
C 18.703125 3.203125 11.40625 11.828125 11.40625 25.046875 
C 11.40625 35.765625 16.40625 41.78125 25.40625 41.78125 
C 29.796875 41.78125 34.59375 39.78125 36.40625 37.28125 
L 37.09375 31.15625 
z
" id="URW_Palladio_L_Roman-99"/>
       <path d="M 27.90625 47 
C 13.296875 47 3.203125 36.671875 3.203125 21.75 
C 3.203125 7.609375 12.09375 -2 25 -2 
C 40.40625 -2 51.40625 8.71875 51.40625 23.75 
C 51.40625 37.28125 41.59375 47 27.90625 47 
z
M 26.09375 43.6875 
C 35.296875 43.6875 42.09375 33.671875 42.09375 20.046875 
C 42.09375 8.515625 37 1.296875 28.90625 1.296875 
C 19.09375 1.296875 12.5 10.921875 12.5 25.15625 
C 12.5 37.171875 17.296875 43.6875 26.09375 43.6875 
z
" id="URW_Palladio_L_Roman-111"/>
       <path d="M 41 -0.109375 
C 47.09375 -0.109375 47.203125 -0.109375 48.90625 -0.109375 
C 50.296875 -0.109375 50.296875 -0.109375 57.203125 -0.109375 
L 57.203125 2.796875 
L 53.09375 3.203125 
C 49.703125 3.203125 49.40625 3.8125 49.40625 10.21875 
L 49.40625 29.5625 
C 49.40625 41.28125 43.90625 47 32.703125 47 
C 29 47 26.90625 46.296875 24.796875 44.484375 
L 17.203125 37.875 
L 17.203125 46.59375 
L 16.296875 47 
C 11.203125 44.890625 6 43.484375 0.703125 42.890625 
L 0.703125 40.078125 
L 4.40625 40.078125 
C 8.40625 40.078125 8.796875 39.375 8.796875 32.71875 
L 8.796875 10.046875 
C 8.796875 3.703125 8.5 3 5.09375 3 
L 0.59375 3 
L 0.59375 -0.109375 
C 7.40625 -0.109375 10.09375 -0.109375 13 -0.109375 
C 15.90625 -0.109375 18.59375 -0.109375 25.40625 -0.109375 
L 25.40625 3 
L 20.90625 3 
C 17.5 3 17.203125 3.703125 17.203125 10.046875 
L 17.203125 31.421875 
C 17.203125 35.9375 23.796875 40.875 29.90625 40.875 
C 36.59375 40.875 41 35.890625 41 28.21875 
z
" id="URW_Palladio_L_Roman-110"/>
       <path d="M 41.203125 43.78125 
C 35.59375 46.1875 32.796875 47 29.296875 47 
C 26.59375 47 24.203125 46.390625 21.703125 45.109375 
L 12.90625 40.515625 
C 7.203125 37.515625 3.5 30.234375 3.5 21.75 
C 3.5 13.765625 6.203125 7.1875 11.09375 3.1875 
C 14.5 0.296875 19.203125 -1 25.703125 -1 
C 27.703125 -1 30 -0.59375 30.5 -0.203125 
L 41.59375 9.109375 
L 41.09375 -0.109375 
C 46 -0.109375 47.59375 -0.109375 48.796875 -0.109375 
C 49.59375 -0.109375 51 -0.109375 53.09375 -0.109375 
C 53.796875 -0.109375 55.796875 -0.109375 57.90625 -0.109375 
L 57.90625 3 
L 53.296875 3 
C 49.90625 3 49.59375 3.703125 49.59375 10.046875 
L 49.59375 71.984375 
L 48.703125 72.796875 
C 44.296875 71.09375 41 70.28125 33.09375 69.078125 
L 33.09375 66.28125 
L 38.703125 66.28125 
C 40.5 66.28125 41.203125 65.171875 41.203125 62.15625 
z
M 41.203125 22.25 
C 41.203125 15.765625 41 14.78125 39.703125 12.484375 
C 36.90625 7.796875 32 4.71875 27.296875 4.71875 
C 18.5 4.71875 12.203125 13.1875 12.203125 25.046875 
C 12.203125 35.90625 17.59375 42.28125 26.59375 42.28125 
C 30.40625 42.28125 34.40625 40.984375 37.90625 38.59375 
C 40 37.203125 41.203125 35.90625 41.203125 35.09375 
z
" id="URW_Palladio_L_Roman-100"/>
       <path d="M 24.5 73 
C 17.40625 73 17.09375 73 14.796875 73 
C 12.40625 73 11.90625 73 5.09375 73 
L 4.5 72.5 
L 4.5 69.890625 
L 4.90625 69.390625 
L 8.703125 69.390625 
C 11.40625 69.390625 13.5 68.796875 14.703125 67.796875 
C 15.703125 66.890625 16 65.484375 16 62.078125 
C 16 61.78125 16 59.78125 16.09375 56.96875 
L 16.09375 53.265625 
L 16.09375 1.75 
L 16.09375 -1.953125 
C 16 -4.859375 16 -6.671875 16 -6.96875 
C 16 -10.375 15.703125 -11.875 14.703125 -12.78125 
C 13.5 -13.78125 11.40625 -14.390625 8.703125 -14.390625 
L 4.90625 -14.390625 
L 4.5 -14.890625 
L 4.5 -17.5 
L 5.09375 -18 
C 12.09375 -18 12.296875 -18 14.796875 -18 
C 17.09375 -18 17.59375 -18 24.5 -18 
L 25.40625 -16.796875 
C 24.796875 -14.390625 24.703125 -11.28125 24.59375 -3.5625 
C 24.59375 -2.15625 24.59375 -0.859375 24.5 0.4375 
L 24.5 1.75 
L 24.5 53.265625 
L 24.5 54.5625 
C 24.59375 55.671875 24.59375 56.96875 24.59375 58.375 
C 24.59375 66.09375 24.796875 69.390625 25.40625 71.796875 
z
" id="URW_Palladio_L_Roman-93"/>
      </defs>
      <use transform="scale(0.996264)" xlink:href="#URW_Palladio_L_Roman-84"/>
      <use transform="translate(55.591109 0)scale(0.996264)" xlink:href="#URW_Palladio_L_Roman-105"/>
      <use transform="translate(84.581471 0)scale(0.996264)" xlink:href="#URW_Palladio_L_Roman-109"/>
      <use transform="translate(172.551145 0)scale(0.996264)" xlink:href="#URW_Palladio_L_Roman-101"/>
      <use transform="translate(245.17804 0)scale(0.996264)" xlink:href="#URW_Palladio_L_Roman-91"/>
      <use transform="translate(278.35327 0)scale(0.996264)" xlink:href="#URW_Palladio_L_Roman-115"/>
      <use transform="translate(320.594736 0)scale(0.996264)" xlink:href="#URW_Palladio_L_Roman-101"/>
      <use transform="translate(368.315031 0)scale(0.996264)" xlink:href="#URW_Palladio_L_Roman-99"/>
      <use transform="translate(412.5486 0)scale(0.996264)" xlink:href="#URW_Palladio_L_Roman-111"/>
      <use transform="translate(466.94418 0)scale(0.996264)" xlink:href="#URW_Palladio_L_Roman-110"/>
      <use transform="translate(524.926241 0)scale(0.996264)" xlink:href="#URW_Palladio_L_Roman-100"/>
      <use transform="translate(585.797872 0)scale(0.996264)" xlink:href="#URW_Palladio_L_Roman-115"/>
      <use transform="translate(628.039338 0)scale(0.996264)" xlink:href="#URW_Palladio_L_Roman-93"/>
     </g>
    </g>
   </g>
   <g id="matplotlib.axis_6">
    <g id="ytick_7">
     <g id="line2d_15">
      <path clip-path="url(#pceb9782199)" d="M 41.145691 344.979101 
L 244.054782 344.979101 
" style="fill:none;stroke:#000000;stroke-linecap:square;stroke-opacity:0.2;stroke-width:0.5;"/>
     </g>
     <g id="line2d_16">
      <g>
       <use style="fill-opacity:0.2;stroke:#000000;stroke-opacity:0.2;stroke-width:0.8;" x="41.145691" xlink:href="#mb9cb4b25ac" y="344.979101"/>
      </g>
     </g>
     <g id="text_10">
      <!-- $\mathdefault{−1}$ -->
      <g transform="translate(7.2 349.968866)scale(0.14 -0.14)">
       <use transform="scale(1.038107)" xlink:href="#CMSY10-0"/>
       <use transform="translate(81.941696 0)scale(0.996264)" xlink:href="#URW_Palladio_L_Roman-49"/>
      </g>
     </g>
    </g>
    <g id="ytick_8">
     <g id="line2d_17">
      <path clip-path="url(#pceb9782199)" d="M 41.145691 301.374823 
L 244.054782 301.374823 
" style="fill:none;stroke:#000000;stroke-linecap:square;stroke-opacity:0.2;stroke-width:0.5;"/>
     </g>
     <g id="line2d_18">
      <g>
       <use style="fill-opacity:0.2;stroke:#000000;stroke-opacity:0.2;stroke-width:0.8;" x="41.145691" xlink:href="#mb9cb4b25ac" y="301.374823"/>
      </g>
     </g>
     <g id="text_11">
      <!-- $\mathdefault{0}$ -->
      <g transform="translate(18.671843 306.364588)scale(0.14 -0.14)">
       <use transform="scale(0.996264)" xlink:href="#URW_Palladio_L_Roman-48"/>
      </g>
     </g>
    </g>
    <g id="ytick_9">
     <g id="line2d_19">
      <path clip-path="url(#pceb9782199)" d="M 41.145691 257.770545 
L 244.054782 257.770545 
" style="fill:none;stroke:#000000;stroke-linecap:square;stroke-opacity:0.2;stroke-width:0.5;"/>
     </g>
     <g id="line2d_20">
      <g>
       <use style="fill-opacity:0.2;stroke:#000000;stroke-opacity:0.2;stroke-width:0.8;" x="41.145691" xlink:href="#mb9cb4b25ac" y="257.770545"/>
      </g>
     </g>
     <g id="text_12">
      <!-- $\mathdefault{1}$ -->
      <g transform="translate(18.671843 262.76031)scale(0.14 -0.14)">
       <use transform="scale(0.996264)" xlink:href="#URW_Palladio_L_Roman-49"/>
      </g>
     </g>
    </g>
   </g>
   <g id="line2d_21">
    <defs>
     <path d="M 0 2 
C 0.530406 2 1.03916 1.789267 1.414214 1.414214 
C 1.789267 1.03916 2 0.530406 2 0 
C 2 -0.530406 1.789267 -1.03916 1.414214 -1.414214 
C 1.03916 -1.789267 0.530406 -2 0 -2 
C -0.530406 -2 -1.03916 -1.789267 -1.414214 -1.414214 
C -1.789267 -1.03916 -2 -0.530406 -2 0 
C -2 0.530406 -1.789267 1.03916 -1.414214 1.414214 
C -1.03916 1.789267 -0.530406 2 0 2 
z
" id="ma374e9b086"/>
    </defs>
    <g clip-path="url(#pceb9782199)">
     <use style="fill:#ffc438;" x="41.145691" xlink:href="#ma374e9b086" y="324.499484"/>
     <use style="fill:#ffc438;" x="46.348488" xlink:href="#ma374e9b086" y="311.480671"/>
     <use style="fill:#ffc438;" x="51.551285" xlink:href="#ma374e9b086" y="296.258914"/>
     <use style="fill:#ffc438;" x="56.754082" xlink:href="#ma374e9b086" y="282.15236"/>
     <use style="fill:#ffc438;" x="61.95688" xlink:href="#ma374e9b086" y="272.236051"/>
     <use style="fill:#ffc438;" x="67.159677" xlink:href="#ma374e9b086" y="268.671615"/>
     <use style="fill:#ffc438;" x="72.362474" xlink:href="#ma374e9b086" y="272.236051"/>
     <use style="fill:#ffc438;" x="77.565271" xlink:href="#ma374e9b086" y="282.15236"/>
     <use style="fill:#ffc438;" x="82.768068" xlink:href="#ma374e9b086" y="296.258914"/>
     <use style="fill:#ffc438;" x="87.970866" xlink:href="#ma374e9b086" y="311.480671"/>
     <use style="fill:#ffc438;" x="93.173663" xlink:href="#ma374e9b086" y="324.499484"/>
     <use style="fill:#ffc438;" x="98.37646" xlink:href="#ma374e9b086" y="332.477423"/>
     <use style="fill:#ffc438;" x="103.579257" xlink:href="#ma374e9b086" y="333.675401"/>
     <use style="fill:#ffc438;" x="108.782054" xlink:href="#ma374e9b086" y="327.832275"/>
     <use style="fill:#ffc438;" x="113.984852" xlink:href="#ma374e9b086" y="316.221769"/>
     <use style="fill:#ffc438;" x="119.187649" xlink:href="#ma374e9b086" y="301.374823"/>
     <use style="fill:#ffc438;" x="124.390446" xlink:href="#ma374e9b086" y="286.527877"/>
     <use style="fill:#ffc438;" x="129.593243" xlink:href="#ma374e9b086" y="274.917372"/>
     <use style="fill:#ffc438;" x="134.79604" xlink:href="#ma374e9b086" y="269.074246"/>
     <use style="fill:#ffc438;" x="139.998838" xlink:href="#ma374e9b086" y="270.272224"/>
     <use style="fill:#ffc438;" x="145.201635" xlink:href="#ma374e9b086" y="278.250163"/>
     <use style="fill:#ffc438;" x="150.404432" xlink:href="#ma374e9b086" y="291.268976"/>
     <use style="fill:#ffc438;" x="155.607229" xlink:href="#ma374e9b086" y="306.490732"/>
     <use style="fill:#ffc438;" x="160.810026" xlink:href="#ma374e9b086" y="320.597287"/>
     <use style="fill:#ffc438;" x="166.012824" xlink:href="#ma374e9b086" y="330.513596"/>
     <use style="fill:#ffc438;" x="171.215621" xlink:href="#ma374e9b086" y="334.078032"/>
     <use style="fill:#ffc438;" x="176.418418" xlink:href="#ma374e9b086" y="330.513596"/>
     <use style="fill:#ffc438;" x="181.621215" xlink:href="#ma374e9b086" y="320.597287"/>
     <use style="fill:#ffc438;" x="186.824012" xlink:href="#ma374e9b086" y="306.490732"/>
     <use style="fill:#ffc438;" x="192.02681" xlink:href="#ma374e9b086" y="291.268976"/>
     <use style="fill:#ffc438;" x="197.229607" xlink:href="#ma374e9b086" y="278.250163"/>
     <use style="fill:#ffc438;" x="202.432404" xlink:href="#ma374e9b086" y="270.272224"/>
     <use style="fill:#ffc438;" x="207.635201" xlink:href="#ma374e9b086" y="269.074246"/>
     <use style="fill:#ffc438;" x="212.837998" xlink:href="#ma374e9b086" y="274.917372"/>
     <use style="fill:#ffc438;" x="218.040796" xlink:href="#ma374e9b086" y="286.527877"/>
     <use style="fill:#ffc438;" x="223.243593" xlink:href="#ma374e9b086" y="301.374823"/>
     <use style="fill:#ffc438;" x="228.44639" xlink:href="#ma374e9b086" y="316.221769"/>
     <use style="fill:#ffc438;" x="233.649187" xlink:href="#ma374e9b086" y="327.832275"/>
     <use style="fill:#ffc438;" x="238.851984" xlink:href="#ma374e9b086" y="333.675401"/>
     <use style="fill:#ffc438;" x="244.054782" xlink:href="#ma374e9b086" y="332.477423"/>
    </g>
   </g>
   <g id="text_13">
    <!-- $A_3=0.75, \phi_3=5\pi/4$ -->
    <g transform="translate(76.61617 247.410118)scale(0.14 -0.14)">
     <defs>
      <path d="M 4.296875 49.953125 
L 7.40625 49.953125 
L 9.203125 55.53125 
C 10.296875 58.90625 16.59375 62.296875 21.796875 62.296875 
C 28.296875 62.296875 33.59375 57.015625 33.59375 50.75 
C 33.59375 43.28125 27.703125 37 20.59375 37 
C 19.796875 37 18.703125 37 17.40625 37.203125 
L 15.90625 37.203125 
L 14.703125 31.984375 
L 15.40625 31.375 
C 19.203125 33.09375 21.09375 33.59375 23.796875 33.59375 
C 32.09375 33.59375 36.90625 28.265625 36.90625 19.09375 
C 36.90625 8.84375 30.796875 2.109375 21.5 2.109375 
C 16.90625 2.109375 12.796875 3.609375 9.796875 6.421875 
C 7.40625 8.640625 6.09375 10.953125 4.203125 16.390625 
L 1.5 15.390625 
C 3.59375 9.265625 4.40625 5.640625 5 0.609375 
C 10.296875 -1.203125 14.703125 -2 18.40625 -2 
C 26.40625 -2 35.59375 2.515625 41.09375 9.265625 
C 44.5 13.390625 46.203125 17.8125 46.203125 22.53125 
C 46.203125 27.359375 44.203125 31.59375 40.59375 34.09375 
C 38.09375 35.90625 35.796875 36.71875 30.796875 37.609375 
C 38.796875 43.796875 41.796875 48.375 41.796875 54.25 
C 41.796875 63.125 34.40625 69 23.296875 69 
C 16.5 69 12 67.109375 7.203125 62.328125 
z
" id="URW_Palladio_L_Roman-51"/>
      <path d="M 5.59375 0.5 
L 6.5 -0.796875 
C 10.40625 -0.5 10.40625 -0.5 11.09375 -0.5 
C 11.796875 -0.5 11.796875 -0.5 15.703125 -0.796875 
C 19.90625 10.140625 24.796875 20.578125 31.40625 32.609375 
L 49.703125 65.609375 
L 49.703125 68.3125 
C 38.90625 68.3125 35.40625 68.3125 27.296875 68.3125 
C 20 68.3125 15.09375 68.3125 5.40625 68.3125 
L 4.40625 68.109375 
C 4.703125 58.59375 4.703125 58.59375 4.703125 57.578125 
C 4.703125 56.46875 4.703125 56.46875 4.40625 47.359375 
L 7.40625 47.359375 
L 8.09375 52.96875 
C 8.90625 59.203125 9.59375 60 14.203125 60 
L 40.90625 60 
C 36.90625 51.765625 33.796875 45.953125 30 39.828125 
z
" id="URW_Palladio_L_Roman-55"/>
      <path d="M 28 18 
L 28 10.515625 
C 28 4.515625 26.90625 3.109375 22 3.109375 
L 15.796875 3.109375 
L 15.796875 0 
C 29.09375 0 29.09375 0 31.5 0 
C 33.90625 0 33.90625 0 47.203125 0 
L 47.203125 3.109375 
L 42.40625 3.109375 
C 37.5 3.109375 36.40625 4.40625 36.40625 10.453125 
L 36.40625 18 
C 42.296875 18 44.40625 18 47.203125 17.703125 
L 47.203125 24.8125 
C 42.5 24.421875 40.59375 24.421875 39.09375 24.421875 
L 38.796875 24.421875 
L 36.40625 24.421875 
L 36.40625 38.390625 
C 36.40625 56.25 36.59375 64.875 37.09375 69 
L 35.90625 69.5 
L 28.5 66.796875 
L 0.203125 20.296875 
L 1.296875 18 
z
M 28 24.421875 
L 6.5 24.421875 
L 28 59.78125 
z
" id="URW_Palladio_L_Roman-52"/>
     </defs>
     <use transform="scale(0.996264)" xlink:href="#URW_Palladio_L_Italic-65"/>
     <use transform="translate(73.175573 -17.441431)scale(0.757155)" xlink:href="#URW_Palladio_L_Roman-51"/>
     <use transform="translate(140.450696 0)scale(1.038107)" xlink:href="#CMR10-61"/>
     <use transform="translate(250.066325 0)scale(0.996264)" xlink:href="#URW_Palladio_L_Roman-48"/>
     <use transform="translate(299.879526 0)scale(0.996264)" xlink:href="#URW_Palladio_L_Roman-46"/>
     <use transform="translate(324.786126 0)scale(0.996264)" xlink:href="#URW_Palladio_L_Roman-55"/>
     <use transform="translate(374.599327 0)scale(0.996264)" xlink:href="#URW_Palladio_L_Roman-53"/>
     <use transform="translate(424.412527 0)scale(0.996264)" xlink:href="#URW_Palladio_L_Roman-44"/>
     <use transform="translate(467.168787 0)scale(0.996264)" xlink:href="#Pazo_Math_Italic-102"/>
     <use transform="translate(524.602458 -17.441431)scale(0.757155)" xlink:href="#URW_Palladio_L_Roman-51"/>
     <use transform="translate(591.877581 0)scale(1.038107)" xlink:href="#CMR10-61"/>
     <use transform="translate(701.49321 0)scale(0.996264)" xlink:href="#URW_Palladio_L_Roman-53"/>
     <use transform="translate(752.55171 0)scale(0.996264)" xlink:href="#Pazo_Math_Italic-112"/>
     <use transform="translate(825.078639 0)scale(0.996264)" xlink:href="#URW_Palladio_L_Roman-47"/>
     <use transform="translate(886.697544 0)scale(0.996264)" xlink:href="#URW_Palladio_L_Roman-52"/>
    </g>
   </g>
  </g>
  <g id="axes_4">
   <g id="patch_5">
    <path d="M 284.6366 287.714075 
L 487.545691 287.714075 
L 487.545691 84.804984 
L 284.6366 84.804984 
z
" style="fill:none;"/>
   </g>
   <g id="matplotlib.axis_7">
    <g id="xtick_1">
     <g id="line2d_22">
      <path clip-path="url(#p2052ab70df)" d="M 304.927509 287.714075 
L 304.927509 84.804984 
" style="fill:none;stroke:#000000;stroke-linecap:square;stroke-opacity:0.2;stroke-width:0.5;"/>
     </g>
     <g id="line2d_23">
      <defs>
       <path d="M 0 0 
L 0 3.5 
" id="m98eba588b3" style="stroke:#000000;stroke-opacity:0.2;stroke-width:0.8;"/>
      </defs>
      <g>
       <use style="fill-opacity:0.2;stroke:#000000;stroke-opacity:0.2;stroke-width:0.8;" x="304.927509" xlink:href="#m98eba588b3" y="287.714075"/>
      </g>
     </g>
    </g>
    <g id="xtick_2">
     <g id="line2d_24">
      <path clip-path="url(#p2052ab70df)" d="M 325.218418 287.714075 
L 325.218418 84.804984 
" style="fill:none;stroke:#000000;stroke-linecap:square;stroke-opacity:0.2;stroke-width:0.5;"/>
     </g>
     <g id="line2d_25">
      <g>
       <use style="fill-opacity:0.2;stroke:#000000;stroke-opacity:0.2;stroke-width:0.8;" x="325.218418" xlink:href="#m98eba588b3" y="287.714075"/>
      </g>
     </g>
    </g>
    <g id="xtick_3">
     <g id="line2d_26">
      <path clip-path="url(#p2052ab70df)" d="M 345.509327 287.714075 
L 345.509327 84.804984 
" style="fill:none;stroke:#000000;stroke-linecap:square;stroke-opacity:0.2;stroke-width:0.5;"/>
     </g>
     <g id="line2d_27">
      <g>
       <use style="fill-opacity:0.2;stroke:#000000;stroke-opacity:0.2;stroke-width:0.8;" x="345.509327" xlink:href="#m98eba588b3" y="287.714075"/>
      </g>
     </g>
    </g>
    <g id="xtick_4">
     <g id="line2d_28">
      <path clip-path="url(#p2052ab70df)" d="M 386.091145 287.714075 
L 386.091145 84.804984 
" style="fill:none;stroke:#000000;stroke-linecap:square;stroke-opacity:0.2;stroke-width:0.5;"/>
     </g>
     <g id="line2d_29">
      <g>
       <use style="fill-opacity:0.2;stroke:#000000;stroke-opacity:0.2;stroke-width:0.8;" x="386.091145" xlink:href="#m98eba588b3" y="287.714075"/>
      </g>
     </g>
    </g>
    <g id="xtick_5">
     <g id="line2d_30">
      <path clip-path="url(#p2052ab70df)" d="M 426.672963 287.714075 
L 426.672963 84.804984 
" style="fill:none;stroke:#000000;stroke-linecap:square;stroke-opacity:0.2;stroke-width:0.5;"/>
     </g>
     <g id="line2d_31">
      <g>
       <use style="fill-opacity:0.2;stroke:#000000;stroke-opacity:0.2;stroke-width:0.8;" x="426.672963" xlink:href="#m98eba588b3" y="287.714075"/>
      </g>
     </g>
    </g>
    <g id="xtick_6">
     <g id="line2d_32">
      <path clip-path="url(#p2052ab70df)" d="M 446.963873 287.714075 
L 446.963873 84.804984 
" style="fill:none;stroke:#000000;stroke-linecap:square;stroke-opacity:0.2;stroke-width:0.5;"/>
     </g>
     <g id="line2d_33">
      <g>
       <use style="fill-opacity:0.2;stroke:#000000;stroke-opacity:0.2;stroke-width:0.8;" x="446.963873" xlink:href="#m98eba588b3" y="287.714075"/>
      </g>
     </g>
    </g>
    <g id="xtick_7">
     <g id="line2d_34">
      <path clip-path="url(#p2052ab70df)" d="M 467.254782 287.714075 
L 467.254782 84.804984 
" style="fill:none;stroke:#000000;stroke-linecap:square;stroke-opacity:0.2;stroke-width:0.5;"/>
     </g>
     <g id="line2d_35">
      <g>
       <use style="fill-opacity:0.2;stroke:#000000;stroke-opacity:0.2;stroke-width:0.8;" x="467.254782" xlink:href="#m98eba588b3" y="287.714075"/>
      </g>
     </g>
    </g>
    <g id="text_14">
     <!-- $S(x, \cos)$ -->
     <g transform="translate(363.389107 316.300058)scale(0.12 -0.12)">
      <defs>
       <path d="M 45.09375 53.1875 
L 48.09375 53.1875 
C 48.5 58.546875 49.203125 62.34375 50.59375 66.609375 
C 46.09375 69.015625 42.09375 70 37.40625 70 
C 30.09375 70 22.5 66.921875 17.203125 61.5625 
C 12.90625 57.46875 10.796875 52.40625 10.796875 46.640625 
C 10.796875 38.1875 14.59375 33.5 23 31.515625 
L 32.5 29.234375 
C 37.90625 27.953125 40.59375 24.46875 40.59375 18.796875 
C 40.59375 9.34375 33.5 2.78125 23.203125 2.78125 
C 17.796875 2.78125 14 3.984375 9.59375 7.0625 
L 9.59375 16.90625 
L 6.59375 16.90625 
C 6 11.4375 5.296875 6.96875 4.203125 1.78125 
C 9.09375 -0.703125 14.40625 -2 19.703125 -2 
C 35.203125 -2 48.5 9.640625 48.5 23.0625 
C 48.5 30.921875 44.203125 35.09375 34.09375 37.296875 
L 27.59375 38.671875 
C 21 40.0625 18 43.75 18 50.3125 
C 18 58.96875 24.703125 65.21875 33.90625 65.21875 
C 38.796875 65.21875 42.09375 63.9375 45.09375 60.75 
z
" id="URW_Palladio_L_Italic-83"/>
       <path d="M 33.09375 -24 
C 33.09375 -23.703125 33.09375 -23.5 31.40625 -21.796875 
C 18.90625 -9.125 15.703125 9.875 15.703125 25.25 
C 15.703125 42.734375 19.5 60.234375 31.796875 72.78125 
C 33.09375 73.984375 33.09375 74.1875 33.09375 74.484375 
C 33.09375 75.1875 32.703125 75.5 32.09375 75.5 
C 31.09375 75.5 22.09375 68.671875 16.203125 55.890625 
C 11.09375 44.84375 9.90625 33.6875 9.90625 25.25 
C 9.90625 17.40625 11 5.25 16.5 -6.109375 
C 22.5 -18.46875 31.09375 -25 32.09375 -25 
C 32.703125 -25 33.09375 -24.703125 33.09375 -24 
z
" id="CMR10-40"/>
       <path d="M 2.09375 8.84375 
C 2.09375 6.84375 1.90625 5.578125 1.296875 2.390625 
C 1.09375 1.203125 1 0.90625 0.90625 0.203125 
C 2.40625 -0.609375 4 -1 5.203125 -1 
C 8.5 -1 12.40625 1.890625 15.5 6.546875 
L 23.09375 18.1875 
L 24.203125 11.328125 
C 25.5 2.875 27.796875 -1 31.40625 -1 
C 33.59375 -1 36.796875 0.6875 40 3.578125 
L 44.90625 7.953125 
L 44 9.84375 
C 40.40625 6.859375 37.90625 5.375 36.296875 5.375 
C 34.796875 5.375 33.5 6.375 32.5 8.34375 
C 31.59375 10.234375 30.5 13.90625 30 16.796875 
L 28.203125 26.8125 
L 31.703125 31.6875 
C 36.40625 38.140625 39.09375 40.421875 42.203125 40.421875 
C 43.796875 40.421875 45 39.625 45.5 38.140625 
L 46.90625 38.53125 
L 48.40625 47 
C 47.203125 47.703125 46.296875 48 45.40625 48 
C 41.40625 48 37.40625 44.40625 31.203125 35.265625 
L 27.5 29.796875 
L 26.90625 34.5625 
C 25.703125 44.40625 23 48 17.09375 48 
C 14.5 48 12.296875 47.203125 11.40625 45.90625 
L 5.59375 37.640625 
L 7.296875 36.65625 
C 10.296875 40.03125 12.296875 41.421875 14.203125 41.421875 
C 17.5 41.421875 19.703125 37.359375 21.40625 27.609375 
L 22.5 21.453125 
L 18.5 15.265625 
C 14.203125 8.578125 10.796875 5.375 8 5.375 
C 6.5 5.375 5.40625 5.796875 5.203125 6.296875 
L 4.09375 9.140625 
z
" id="URW_Palladio_L_Italic-120"/>
       <path d="M 28.90625 25.25 
C 28.90625 33.09375 27.796875 45.25 22.296875 56.59375 
C 16.296875 68.96875 7.703125 75.5 6.703125 75.5 
C 6.09375 75.5 5.703125 75.09375 5.703125 74.484375 
C 5.703125 74.1875 5.703125 73.984375 7.59375 72.1875 
C 17.40625 62.234375 23.09375 46.25 23.09375 25.25 
C 23.09375 8.0625 19.40625 -9.640625 7 -22.296875 
C 5.703125 -23.5 5.703125 -23.703125 5.703125 -24 
C 5.703125 -24.609375 6.09375 -25 6.703125 -25 
C 7.703125 -25 16.703125 -18.171875 22.59375 -5.40625 
C 27.703125 5.65625 28.90625 16.796875 28.90625 25.25 
z
" id="CMR10-41"/>
      </defs>
      <use transform="scale(0.996264)" xlink:href="#URW_Palladio_L_Italic-83"/>
      <use transform="translate(57.88296 0)scale(1.038107)" xlink:href="#CMR10-40"/>
      <use transform="translate(102.316341 0)scale(0.996264)" xlink:href="#URW_Palladio_L_Italic-120"/>
      <use transform="translate(154.370178 0)scale(0.996264)" xlink:href="#URW_Palladio_L_Roman-44"/>
      <use transform="translate(195.881138 0)scale(0.996264)" xlink:href="#URW_Palladio_L_Roman-99"/>
      <use transform="translate(240.114707 0)scale(0.996264)" xlink:href="#URW_Palladio_L_Roman-111"/>
      <use transform="translate(294.510287 0)scale(0.996264)" xlink:href="#URW_Palladio_L_Roman-115"/>
      <use transform="translate(337.997053 0)scale(1.038107)" xlink:href="#CMR10-41"/>
     </g>
    </g>
   </g>
   <g id="matplotlib.axis_8">
    <g id="ytick_10">
     <g id="line2d_36">
      <path clip-path="url(#p2052ab70df)" d="M 284.6366 267.423166 
L 487.545691 267.423166 
" style="fill:none;stroke:#000000;stroke-linecap:square;stroke-opacity:0.2;stroke-width:0.5;"/>
     </g>
     <g id="line2d_37">
      <defs>
       <path d="M 0 0 
L 3.5 0 
" id="m74cc777235" style="stroke:#000000;stroke-opacity:0.2;stroke-width:0.8;"/>
      </defs>
      <g>
       <use style="fill-opacity:0.2;stroke:#000000;stroke-opacity:0.2;stroke-width:0.8;" x="487.545691" xlink:href="#m74cc777235" y="267.423166"/>
      </g>
     </g>
    </g>
    <g id="ytick_11">
     <g id="line2d_38">
      <path clip-path="url(#p2052ab70df)" d="M 284.6366 247.132257 
L 487.545691 247.132257 
" style="fill:none;stroke:#000000;stroke-linecap:square;stroke-opacity:0.2;stroke-width:0.5;"/>
     </g>
     <g id="line2d_39">
      <g>
       <use style="fill-opacity:0.2;stroke:#000000;stroke-opacity:0.2;stroke-width:0.8;" x="487.545691" xlink:href="#m74cc777235" y="247.132257"/>
      </g>
     </g>
    </g>
    <g id="ytick_12">
     <g id="line2d_40">
      <path clip-path="url(#p2052ab70df)" d="M 284.6366 226.841347 
L 487.545691 226.841347 
" style="fill:none;stroke:#000000;stroke-linecap:square;stroke-opacity:0.2;stroke-width:0.5;"/>
     </g>
     <g id="line2d_41">
      <g>
       <use style="fill-opacity:0.2;stroke:#000000;stroke-opacity:0.2;stroke-width:0.8;" x="487.545691" xlink:href="#m74cc777235" y="226.841347"/>
      </g>
     </g>
    </g>
    <g id="ytick_13">
     <g id="line2d_42">
      <path clip-path="url(#p2052ab70df)" d="M 284.6366 186.259529 
L 487.545691 186.259529 
" style="fill:none;stroke:#000000;stroke-linecap:square;stroke-opacity:0.2;stroke-width:0.5;"/>
     </g>
     <g id="line2d_43">
      <g>
       <use style="fill-opacity:0.2;stroke:#000000;stroke-opacity:0.2;stroke-width:0.8;" x="487.545691" xlink:href="#m74cc777235" y="186.259529"/>
      </g>
     </g>
     <g id="text_15">
      <!-- 0 -->
      <g transform="translate(503.045691 191.249294)scale(0.14 -0.14)">
       <use transform="scale(0.996264)" xlink:href="#URW_Palladio_L_Roman-48"/>
      </g>
     </g>
    </g>
    <g id="ytick_14">
     <g id="line2d_44">
      <path clip-path="url(#p2052ab70df)" d="M 284.6366 145.677711 
L 487.545691 145.677711 
" style="fill:none;stroke:#000000;stroke-linecap:square;stroke-opacity:0.2;stroke-width:0.5;"/>
     </g>
     <g id="line2d_45">
      <g>
       <use style="fill-opacity:0.2;stroke:#000000;stroke-opacity:0.2;stroke-width:0.8;" x="487.545691" xlink:href="#m74cc777235" y="145.677711"/>
      </g>
     </g>
     <g id="text_16">
      <!-- $A_2 \cdot N / 2$ -->
      <g transform="translate(503.045691 150.667476)scale(0.14 -0.14)">
       <defs>
        <path d="M 19.203125 25.296875 
C 19.203125 28.203125 16.796875 30.59375 13.90625 30.59375 
C 11 30.59375 8.59375 28.203125 8.59375 25.296875 
C 8.59375 22.390625 11 20 13.90625 20 
C 16.796875 20 19.203125 22.390625 19.203125 25.296875 
z
" id="CMSY10-1"/>
        <path d="M 23.703125 68.78125 
L 15.59375 68.78125 
L 14.59375 68.78125 
L 13.203125 68.78125 
C 12.90625 68.78125 11.40625 68.78125 9.09375 68.78125 
L 7.5 68.78125 
L 7 66 
L 10.5 66 
C 12.203125 66 14.40625 65.296875 15.5 64.40625 
C 17 63.203125 18.5 61.3125 18.5 60.515625 
C 18.5 60.421875 18.5 60.125 18.40625 59.8125 
C 18.40625 59.71875 18.40625 59.515625 18.296875 59.328125 
C 18.203125 58.53125 18.09375 57.828125 18 57.53125 
L 9.203125 10.34375 
C 8 4.171875 7.40625 3.375 3.796875 2.96875 
L 0.703125 2.671875 
L 0.203125 -0.109375 
L 11.296875 -0.109375 
C 12.5 -0.109375 12.59375 -0.109375 22.296875 -0.109375 
L 22.796875 2.578125 
L 18.59375 2.875 
C 14.59375 3.1875 13.703125 3.984375 13.703125 7.265625 
C 13.703125 8.0625 13.796875 9.15625 14 10.25 
L 22 56.4375 
L 55.796875 -1 
L 60.796875 -1 
L 70.203125 54.046875 
C 72.296875 65.296875 72.5 65.703125 76.203125 66 
L 79.90625 66 
L 80.40625 68.78125 
L 78.296875 68.78125 
L 69.40625 68.78125 
L 60.796875 68.78125 
L 58.90625 68.78125 
L 58.40625 66 
L 63.09375 66 
C 65.703125 66 66.703125 65.265625 66.703125 63.609375 
C 66.703125 62.90625 66.40625 60.328125 66.203125 59.03125 
L 58.203125 10.34375 
z
" id="URW_Palladio_L_Italic-78"/>
       </defs>
       <use transform="scale(0.996264)" xlink:href="#URW_Palladio_L_Italic-65"/>
       <use transform="translate(73.175573 -17.441431)scale(0.757155)" xlink:href="#URW_Palladio_L_Roman-50"/>
       <use transform="translate(132.148517 0)scale(1.038107)" xlink:href="#CMSY10-1"/>
       <use transform="translate(186.289877 0)scale(0.996264)" xlink:href="#URW_Palladio_L_Italic-78"/>
       <use transform="translate(269.378335 0)scale(0.996264)" xlink:href="#URW_Palladio_L_Roman-47"/>
       <use transform="translate(330.99724 0)scale(0.996264)" xlink:href="#URW_Palladio_L_Roman-50"/>
      </g>
     </g>
    </g>
    <g id="ytick_15">
     <g id="line2d_46">
      <path clip-path="url(#p2052ab70df)" d="M 284.6366 125.386802 
L 487.545691 125.386802 
" style="fill:none;stroke:#000000;stroke-linecap:square;stroke-opacity:0.2;stroke-width:0.5;"/>
     </g>
     <g id="line2d_47">
      <g>
       <use style="fill-opacity:0.2;stroke:#000000;stroke-opacity:0.2;stroke-width:0.8;" x="487.545691" xlink:href="#m74cc777235" y="125.386802"/>
      </g>
     </g>
     <g id="text_17">
      <!-- $A_3 \cdot N/2$ -->
      <g transform="translate(503.045691 130.376567)scale(0.14 -0.14)">
       <use transform="scale(0.996264)" xlink:href="#URW_Palladio_L_Italic-65"/>
       <use transform="translate(73.175573 -17.441431)scale(0.757155)" xlink:href="#URW_Palladio_L_Roman-51"/>
       <use transform="translate(132.148517 0)scale(1.038107)" xlink:href="#CMSY10-1"/>
       <use transform="translate(186.289877 0)scale(0.996264)" xlink:href="#URW_Palladio_L_Italic-78"/>
       <use transform="translate(269.378335 0)scale(0.996264)" xlink:href="#URW_Palladio_L_Roman-47"/>
       <use transform="translate(330.99724 0)scale(0.996264)" xlink:href="#URW_Palladio_L_Roman-50"/>
      </g>
     </g>
    </g>
    <g id="ytick_16">
     <g id="line2d_48">
      <path clip-path="url(#p2052ab70df)" d="M 284.6366 105.095893 
L 487.545691 105.095893 
" style="fill:none;stroke:#000000;stroke-linecap:square;stroke-opacity:0.2;stroke-width:0.5;"/>
     </g>
     <g id="line2d_49">
      <g>
       <use style="fill-opacity:0.2;stroke:#000000;stroke-opacity:0.2;stroke-width:0.8;" x="487.545691" xlink:href="#m74cc777235" y="105.095893"/>
      </g>
     </g>
     <g id="text_18">
      <!-- $A_1 \cdot N/2$ -->
      <g transform="translate(503.045691 110.085658)scale(0.14 -0.14)">
       <use transform="scale(0.996264)" xlink:href="#URW_Palladio_L_Italic-65"/>
       <use transform="translate(73.175573 -18.577338)scale(0.757155)" xlink:href="#URW_Palladio_L_Roman-49"/>
       <use transform="translate(132.148517 0)scale(1.038107)" xlink:href="#CMSY10-1"/>
       <use transform="translate(186.289877 0)scale(0.996264)" xlink:href="#URW_Palladio_L_Italic-78"/>
       <use transform="translate(269.378335 0)scale(0.996264)" xlink:href="#URW_Palladio_L_Roman-47"/>
       <use transform="translate(330.99724 0)scale(0.996264)" xlink:href="#URW_Palladio_L_Roman-50"/>
      </g>
     </g>
    </g>
    <g id="text_19">
     <!-- $S(x, -\sin)$ -->
     <g transform="translate(569.873472 214.249629)rotate(-90)scale(0.12 -0.12)">
      <use transform="scale(0.996264)" xlink:href="#URW_Palladio_L_Italic-83"/>
      <use transform="translate(57.88296 0)scale(1.038107)" xlink:href="#CMR10-40"/>
      <use transform="translate(102.316341 0)scale(0.996264)" xlink:href="#URW_Palladio_L_Italic-120"/>
      <use transform="translate(154.370178 0)scale(0.996264)" xlink:href="#URW_Palladio_L_Roman-44"/>
      <use transform="translate(197.126437 0)scale(1.038107)" xlink:href="#CMSY10-0"/>
      <use transform="translate(295.672493 0)scale(0.996264)" xlink:href="#URW_Palladio_L_Roman-115"/>
      <use transform="translate(337.91396 0)scale(0.996264)" xlink:href="#URW_Palladio_L_Roman-105"/>
      <use transform="translate(366.904321 0)scale(0.996264)" xlink:href="#URW_Palladio_L_Roman-110"/>
      <use transform="translate(426.131681 0)scale(1.038107)" xlink:href="#CMR10-41"/>
     </g>
    </g>
   </g>
   <g id="PathCollection_1">
    <defs>
     <path d="M 0 4.472136 
C 1.186024 4.472136 2.323632 4.000923 3.162278 3.162278 
C 4.000923 2.323632 4.472136 1.186024 4.472136 -0 
C 4.472136 -1.186024 4.000923 -2.323632 3.162278 -3.162278 
C 2.323632 -4.000923 1.186024 -4.472136 0 -4.472136 
C -1.186024 -4.472136 -2.323632 -4.000923 -3.162278 -3.162278 
C -4.000923 -2.323632 -4.472136 -1.186024 -4.472136 0 
C -4.472136 1.186024 -4.000923 2.323632 -3.162278 3.162278 
C -2.323632 4.000923 -1.186024 4.472136 0 4.472136 
z
" id="C0_0_a75abc93bd"/>
    </defs>
    <g clip-path="url(#p2052ab70df)">
     <use style="fill:#0271ae;stroke:#0271ae;stroke-width:0.5;" x="386.091145" xlink:href="#C0_0_a75abc93bd" y="105.095893"/>
    </g>
    <g clip-path="url(#p2052ab70df)">
     <use style="fill:#dc2830;stroke:#dc2830;stroke-width:0.5;" x="426.672963" xlink:href="#C0_0_a75abc93bd" y="186.259529"/>
    </g>
    <g clip-path="url(#p2052ab70df)">
     <use style="fill:#ffc438;stroke:#ffc438;stroke-width:0.5;" x="343.047627" xlink:href="#C0_0_a75abc93bd" y="229.303048"/>
    </g>
   </g>
   <g id="patch_6">
    <path clip-path="url(#p2052ab70df)" d="M 386.091145 267.423166 
C 407.615993 267.423166 428.262137 258.871253 443.482503 243.650887 
C 458.702869 228.430521 467.254782 207.784377 467.254782 186.259529 
C 467.254782 164.734681 458.702869 144.088538 443.482503 128.868172 
C 428.262137 113.647806 407.615993 105.095893 386.091145 105.095893 
C 364.566297 105.095893 343.920154 113.647806 328.699788 128.868172 
C 313.479422 144.088538 304.927509 164.734681 304.927509 186.259529 
C 304.927509 207.784377 313.479422 228.430521 328.699788 243.650887 
C 343.920154 258.871253 364.566297 267.423166 386.091145 267.423166 
z
" style="fill:none;stroke:#0271ae;stroke-linejoin:miter;stroke-width:2;"/>
   </g>
   <g id="patch_7">
    <path clip-path="url(#p2052ab70df)" d="M 386.091145 226.841347 
C 396.853569 226.841347 407.176641 222.565391 414.786824 214.955208 
C 422.397007 207.345025 426.672963 197.021953 426.672963 186.259529 
C 426.672963 175.497105 422.397007 165.174033 414.786824 157.56385 
C 407.176641 149.953667 396.853569 145.677711 386.091145 145.677711 
C 375.328721 145.677711 365.005649 149.953667 357.395466 157.56385 
C 349.785283 165.174033 345.509327 175.497105 345.509327 186.259529 
C 345.509327 197.021953 349.785283 207.345025 357.395466 214.955208 
C 365.005649 222.565391 375.328721 226.841347 386.091145 226.841347 
z
" style="fill:none;stroke:#dc2830;stroke-linejoin:miter;stroke-width:2;"/>
   </g>
   <g id="patch_8">
    <path clip-path="url(#p2052ab70df)" d="M 386.091145 247.132257 
C 402.234781 247.132257 417.719389 240.718322 429.134664 229.303048 
C 440.549938 217.887773 446.963873 202.403165 446.963873 186.259529 
C 446.963873 170.115893 440.549938 154.631286 429.134664 143.216011 
C 417.719389 131.800737 402.234781 125.386802 386.091145 125.386802 
C 369.947509 125.386802 354.462901 131.800737 343.047627 143.216011 
C 331.632353 154.631286 325.218418 170.115893 325.218418 186.259529 
C 325.218418 202.403165 331.632353 217.887773 343.047627 229.303048 
C 354.462901 240.718322 369.947509 247.132257 386.091145 247.132257 
z
" style="fill:none;stroke:#ffc438;stroke-linejoin:miter;stroke-width:2;"/>
   </g>
  </g>
 </g>
 <defs>
  <clipPath id="p1c1ff5eca9">
   <rect height="95.929412" width="202.909091" x="41.145691" y="23.179529"/>
  </clipPath>
  <clipPath id="p43b20e7fc8">
   <rect height="95.929412" width="202.909091" x="41.145691" y="138.294823"/>
  </clipPath>
  <clipPath id="pceb9782199">
   <rect height="95.929412" width="202.909091" x="41.145691" y="253.410118"/>
  </clipPath>
  <clipPath id="p2052ab70df">
   <rect height="202.909091" width="202.909091" x="284.6366" y="84.804984"/>
  </clipPath>
 </defs>
</svg>
