<?xml version="1.0" encoding="utf-8" standalone="no"?>
<!DOCTYPE svg PUBLIC "-//W3C//DTD SVG 1.1//EN"
  "http://www.w3.org/Graphics/SVG/1.1/DTD/svg11.dtd">
<svg xmlns:xlink="http://www.w3.org/1999/xlink" width="440.39952pt" height="224.39951pt" viewBox="0 0 440.39952 224.39951" xmlns="http://www.w3.org/2000/svg" version="1.1">
 <metadata>
  <rdf:RDF xmlns:dc="http://purl.org/dc/elements/1.1/" xmlns:cc="http://creativecommons.org/ns#" xmlns:rdf="http://www.w3.org/1999/02/22-rdf-syntax-ns#">
   <cc:Work>
    <dc:type rdf:resource="http://purl.org/dc/dcmitype/StillImage"/>
    <dc:date>2022-08-25T10:07:45.616304</dc:date>
    <dc:format>image/svg+xml</dc:format>
    <dc:creator>
     <cc:Agent>
      <dc:title>Matplotlib v3.5.2, https://matplotlib.org/</dc:title>
     </cc:Agent>
    </dc:creator>
   </cc:Work>
  </rdf:RDF>
 </metadata>
 <defs>
  <style type="text/css">*{stroke-linejoin: round; stroke-linecap: butt}</style>
 </defs>
 <g id="figure_1">
  <g id="patch_1">
   <path d="M 0 224.39951 
L 440.39952 224.39951 
L 440.39952 -0 
L 0 -0 
L 0 224.39951 
z
" style="fill: none"/>
  </g>
  <g id="axes_1">
   <g id="patch_2">
    <path d="M 41.145691 82.951625 
L 424.48221 82.951625 
L 424.48221 8.820152 
L 41.145691 8.820152 
L 41.145691 82.951625 
z
" style="fill: none"/>
   </g>
   <g id="matplotlib.axis_1">
    <g id="xtick_1">
     <g id="line2d_1">
      <path d="M 41.145691 82.951625 
L 41.145691 8.820152 
" clip-path="url(#pf06c72e07e)" style="fill: none; stroke: #000000; stroke-opacity: 0.2; stroke-width: 0.5; stroke-linecap: round"/>
     </g>
     <g id="line2d_2">
      <defs>
       <path id="m4be78f6439" d="M 0 0 
L 0 3.5 
" style="stroke: #000000; stroke-opacity: 0.2; stroke-width: 0.5"/>
      </defs>
      <g>
       <use xlink:href="#m4be78f6439" x="41.145691" y="82.951625" style="fill-opacity: 0.2; stroke: #000000; stroke-opacity: 0.2; stroke-width: 0.5"/>
      </g>
     </g>
    </g>
    <g id="xtick_2">
     <g id="line2d_3">
      <path d="M 117.812995 82.951625 
L 117.812995 8.820152 
" clip-path="url(#pf06c72e07e)" style="fill: none; stroke: #000000; stroke-opacity: 0.2; stroke-width: 0.5; stroke-linecap: round"/>
     </g>
     <g id="line2d_4">
      <g>
       <use xlink:href="#m4be78f6439" x="117.812995" y="82.951625" style="fill-opacity: 0.2; stroke: #000000; stroke-opacity: 0.2; stroke-width: 0.5"/>
      </g>
     </g>
    </g>
    <g id="xtick_3">
     <g id="line2d_5">
      <path d="M 194.480298 82.951625 
L 194.480298 8.820152 
" clip-path="url(#pf06c72e07e)" style="fill: none; stroke: #000000; stroke-opacity: 0.2; stroke-width: 0.5; stroke-linecap: round"/>
     </g>
     <g id="line2d_6">
      <g>
       <use xlink:href="#m4be78f6439" x="194.480298" y="82.951625" style="fill-opacity: 0.2; stroke: #000000; stroke-opacity: 0.2; stroke-width: 0.5"/>
      </g>
     </g>
    </g>
    <g id="xtick_4">
     <g id="line2d_7">
      <path d="M 271.147602 82.951625 
L 271.147602 8.820152 
" clip-path="url(#pf06c72e07e)" style="fill: none; stroke: #000000; stroke-opacity: 0.2; stroke-width: 0.5; stroke-linecap: round"/>
     </g>
     <g id="line2d_8">
      <g>
       <use xlink:href="#m4be78f6439" x="271.147602" y="82.951625" style="fill-opacity: 0.2; stroke: #000000; stroke-opacity: 0.2; stroke-width: 0.5"/>
      </g>
     </g>
    </g>
    <g id="xtick_5">
     <g id="line2d_9">
      <path d="M 347.814906 82.951625 
L 347.814906 8.820152 
" clip-path="url(#pf06c72e07e)" style="fill: none; stroke: #000000; stroke-opacity: 0.2; stroke-width: 0.5; stroke-linecap: round"/>
     </g>
     <g id="line2d_10">
      <g>
       <use xlink:href="#m4be78f6439" x="347.814906" y="82.951625" style="fill-opacity: 0.2; stroke: #000000; stroke-opacity: 0.2; stroke-width: 0.5"/>
      </g>
     </g>
    </g>
    <g id="xtick_6">
     <g id="line2d_11">
      <path d="M 424.48221 82.951625 
L 424.48221 8.820152 
" clip-path="url(#pf06c72e07e)" style="fill: none; stroke: #000000; stroke-opacity: 0.2; stroke-width: 0.5; stroke-linecap: round"/>
     </g>
     <g id="line2d_12">
      <g>
       <use xlink:href="#m4be78f6439" x="424.48221" y="82.951625" style="fill-opacity: 0.2; stroke: #000000; stroke-opacity: 0.2; stroke-width: 0.5"/>
      </g>
     </g>
    </g>
   </g>
   <g id="matplotlib.axis_2">
    <g id="ytick_1">
     <g id="line2d_13">
      <path d="M 41.145691 79.582013 
L 424.48221 79.582013 
" clip-path="url(#pf06c72e07e)" style="fill: none; stroke: #000000; stroke-opacity: 0.2; stroke-width: 0.5; stroke-linecap: round"/>
     </g>
     <g id="line2d_14">
      <defs>
       <path id="m9b0edc3944" d="M 0 0 
L -3.5 0 
" style="stroke: #000000; stroke-opacity: 0.2; stroke-width: 0.5"/>
      </defs>
      <g>
       <use xlink:href="#m9b0edc3944" x="41.145691" y="79.582013" style="fill-opacity: 0.2; stroke: #000000; stroke-opacity: 0.2; stroke-width: 0.5"/>
      </g>
     </g>
     <g id="text_1">
      <!-- $\mathdefault{−1}$ -->
      <g transform="translate(7.2 84.571777)scale(0.14 -0.14)">
       <defs>
        <path id="CMSY10-0" d="M 4218 1472 
C 4326 1472 4442 1472 4442 1600 
C 4442 1728 4326 1728 4218 1728 
L 755 1728 
C 646 1728 531 1728 531 1600 
C 531 1472 646 1472 755 1472 
L 4218 1472 
z
" transform="scale(0.015625)"/>
        <path id="URWPalladioL-Roma-31" d="M 429 3571 
L 493 3571 
L 1318 3942 
C 1325 3949 1331 3949 1338 3949 
C 1376 3949 1389 3891 1389 3737 
L 1389 633 
C 1389 300 1318 230 973 211 
L 614 192 
L 614 0 
C 1600 0 1600 0 1670 0 
C 1754 0 1894 0 2112 -7 
C 2189 6 2413 6 2675 0 
L 2675 192 
L 2342 211 
C 1990 229 1926 299 1926 628 
L 1926 4383 
L 1837 4416 
C 1421 4199 966 4009 384 3807 
L 429 3571 
z
" transform="scale(0.015625)"/>
       </defs>
       <use xlink:href="#CMSY10-0" transform="scale(1.038107)"/>
       <use xlink:href="#URWPalladioL-Roma-31" transform="translate(81.941696 0)scale(0.996264)"/>
      </g>
     </g>
    </g>
    <g id="ytick_2">
     <g id="line2d_15">
      <path d="M 41.145691 45.885889 
L 424.48221 45.885889 
" clip-path="url(#pf06c72e07e)" style="fill: none; stroke: #000000; stroke-opacity: 0.2; stroke-width: 0.5; stroke-linecap: round"/>
     </g>
     <g id="line2d_16">
      <g>
       <use xlink:href="#m9b0edc3944" x="41.145691" y="45.885889" style="fill-opacity: 0.2; stroke: #000000; stroke-opacity: 0.2; stroke-width: 0.5"/>
      </g>
     </g>
     <g id="text_2">
      <!-- $\mathdefault{0}$ -->
      <g transform="translate(18.671843 50.875653)scale(0.14 -0.14)">
       <defs>
        <path id="URWPalladioL-Roma-30" d="M 1683 4416 
C 691 4416 186 3628 186 2076 
C 186 1326 320 679 544 365 
C 768 51 1126 -128 1523 -128 
C 2490 -128 2976 704 2976 2345 
C 2976 3749 2560 4416 1683 4416 
z
M 1568 4191 
C 2189 4191 2438 3563 2438 2025 
C 2438 660 2195 96 1606 96 
C 986 96 723 743 723 2307 
C 723 3660 960 4191 1568 4191 
z
" transform="scale(0.015625)"/>
       </defs>
       <use xlink:href="#URWPalladioL-Roma-30" transform="scale(0.996264)"/>
      </g>
     </g>
    </g>
    <g id="ytick_3">
     <g id="line2d_17">
      <path d="M 41.145691 12.189765 
L 424.48221 12.189765 
" clip-path="url(#pf06c72e07e)" style="fill: none; stroke: #000000; stroke-opacity: 0.2; stroke-width: 0.5; stroke-linecap: round"/>
     </g>
     <g id="line2d_18">
      <g>
       <use xlink:href="#m9b0edc3944" x="41.145691" y="12.189765" style="fill-opacity: 0.2; stroke: #000000; stroke-opacity: 0.2; stroke-width: 0.5"/>
      </g>
     </g>
     <g id="text_3">
      <!-- $\mathdefault{1}$ -->
      <g transform="translate(18.671843 17.179529)scale(0.14 -0.14)">
       <use xlink:href="#URWPalladioL-Roma-31" transform="scale(0.996264)"/>
      </g>
     </g>
    </g>
   </g>
   <g id="line2d_19">
    <path d="M 41.145691 12.189765 
L 41.912364 12.256256 
L 42.679037 12.455469 
L 43.44571 12.786616 
L 44.979056 13.83897 
L 46.512402 15.396724 
L 48.045748 17.43531 
L 49.579094 19.922579 
L 51.11244 22.819305 
L 53.412459 27.830603 
L 55.712478 33.481518 
L 58.779171 41.662645 
L 64.912555 58.290259 
L 67.212574 63.941175 
L 69.512593 68.952473 
L 71.045939 71.849199 
L 72.579285 74.336467 
L 74.112631 76.375053 
L 75.645977 77.932807 
L 77.179324 78.985162 
L 77.945997 79.316309 
L 78.71267 79.515521 
L 79.479343 79.582013 
L 80.246016 79.515521 
L 81.012689 79.316309 
L 81.779362 78.985162 
L 83.312708 77.932807 
L 84.846054 76.375053 
L 86.3794 74.336467 
L 87.912746 71.849199 
L 89.446092 68.952473 
L 91.746111 63.941175 
L 94.04613 58.290259 
L 97.112823 50.109133 
L 103.246207 33.481518 
L 105.546226 27.830603 
L 107.846245 22.819305 
L 109.379591 19.922579 
L 110.912937 17.43531 
L 112.446283 15.396724 
L 113.979629 13.83897 
L 115.512975 12.786616 
L 116.279648 12.455469 
L 117.046322 12.256256 
L 117.812995 12.189765 
L 118.579668 12.256256 
L 119.346341 12.455469 
L 120.113014 12.786616 
L 121.64636 13.83897 
L 123.179706 15.396724 
L 124.713052 17.43531 
L 126.246398 19.922579 
L 127.779744 22.819305 
L 130.079763 27.830603 
L 132.379782 33.481518 
L 135.446474 41.662645 
L 141.579859 58.290259 
L 143.879878 63.941175 
L 146.179897 68.952473 
L 147.713243 71.849199 
L 149.246589 74.336467 
L 150.779935 76.375053 
L 152.313281 77.932807 
L 153.846627 78.985162 
L 154.6133 79.316309 
L 155.379973 79.515521 
L 156.146646 79.582013 
L 156.91332 79.515521 
L 157.679993 79.316309 
L 158.446666 78.985162 
L 159.980012 77.932807 
L 161.513358 76.375053 
L 163.046704 74.336467 
L 164.58005 71.849199 
L 166.113396 68.952473 
L 168.413415 63.941175 
L 170.713434 58.290259 
L 173.780126 50.109133 
L 179.913511 33.481518 
L 182.21353 27.830603 
L 184.513549 22.819305 
L 186.046895 19.922579 
L 187.580241 17.43531 
L 189.113587 15.396724 
L 190.646933 13.83897 
L 192.180279 12.786616 
L 192.946952 12.455469 
L 193.713625 12.256256 
L 194.480298 12.189765 
L 195.246971 12.256256 
L 196.013644 12.455469 
L 196.780318 12.786616 
L 198.313664 13.83897 
L 199.84701 15.396724 
L 201.380356 17.43531 
L 202.913702 19.922579 
L 204.447048 22.819305 
L 206.747067 27.830603 
L 209.047086 33.481518 
L 212.113778 41.662645 
L 218.247163 58.290259 
L 220.547182 63.941175 
L 222.847201 68.952473 
L 224.380547 71.849199 
L 225.913893 74.336467 
L 227.447239 76.375053 
L 228.980585 77.932807 
L 230.513931 78.985162 
L 231.280604 79.316309 
L 232.047277 79.515521 
L 232.81395 79.582013 
L 233.580623 79.515521 
L 234.347296 79.316309 
L 235.113969 78.985162 
L 236.647316 77.932807 
L 238.180662 76.375053 
L 239.714008 74.336467 
L 241.247354 71.849199 
L 242.7807 68.952473 
L 245.080719 63.941175 
L 247.380738 58.290259 
L 250.44743 50.109133 
L 256.580815 33.481518 
L 258.880834 27.830603 
L 261.180853 22.819305 
L 262.714199 19.922579 
L 264.247545 17.43531 
L 265.780891 15.396724 
L 267.314237 13.83897 
L 268.847583 12.786616 
L 269.614256 12.455469 
L 270.380929 12.256256 
L 271.147602 12.189765 
L 271.914275 12.256256 
L 272.680948 12.455469 
L 273.447621 12.786616 
L 274.980967 13.83897 
L 276.514314 15.396724 
L 278.04766 17.43531 
L 279.581006 19.922579 
L 281.114352 22.819305 
L 283.414371 27.830603 
L 285.71439 33.481518 
L 288.781082 41.662645 
L 294.914466 58.290259 
L 297.214486 63.941175 
L 299.514505 68.952473 
L 301.047851 71.849199 
L 302.581197 74.336467 
L 304.114543 76.375053 
L 305.647889 77.932807 
L 307.181235 78.985162 
L 307.947908 79.316309 
L 308.714581 79.515521 
L 309.481254 79.582013 
L 310.247927 79.515521 
L 311.0146 79.316309 
L 311.781273 78.985162 
L 313.314619 77.932807 
L 314.847965 76.375053 
L 316.381312 74.336467 
L 317.914658 71.849199 
L 319.448004 68.952473 
L 321.748023 63.941175 
L 324.048042 58.290259 
L 327.114734 50.109133 
L 333.248118 33.481518 
L 335.548137 27.830603 
L 337.848157 22.819305 
L 339.381503 19.922579 
L 340.914849 17.43531 
L 342.448195 15.396724 
L 343.981541 13.83897 
L 345.514887 12.786616 
L 346.28156 12.455469 
L 347.048233 12.256256 
L 347.814906 12.189765 
L 348.581579 12.256256 
L 349.348252 12.455469 
L 350.114925 12.786616 
L 351.648271 13.83897 
L 353.181617 15.396724 
L 354.714963 17.43531 
L 356.248309 19.922579 
L 357.781656 22.819305 
L 360.081675 27.830603 
L 362.381694 33.481518 
L 365.448386 41.662645 
L 371.58177 58.290259 
L 373.881789 63.941175 
L 376.181808 68.952473 
L 377.715155 71.849199 
L 379.248501 74.336467 
L 380.781847 76.375053 
L 382.315193 77.932807 
L 383.848539 78.985162 
L 384.615212 79.316309 
L 385.381885 79.515521 
L 386.148558 79.582013 
L 386.915231 79.515521 
L 387.681904 79.316309 
L 388.448577 78.985162 
L 389.981923 77.932807 
L 391.515269 76.375053 
L 393.048615 74.336467 
L 394.581961 71.849199 
L 396.115307 68.952473 
L 398.415327 63.941175 
L 400.715346 58.290259 
L 403.782038 50.109133 
L 409.915422 33.481518 
L 412.215441 27.830603 
L 414.51546 22.819305 
L 416.048806 19.922579 
L 417.582153 17.43531 
L 419.115499 15.396724 
L 420.648845 13.83897 
L 422.182191 12.786616 
L 422.948864 12.455469 
L 423.715537 12.256256 
L 423.715537 12.256256 
" clip-path="url(#pf06c72e07e)" style="fill: none; stroke: #0271ae; stroke-width: 2; stroke-linecap: round"/>
   </g>
  </g>
  <g id="axes_2">
   <g id="patch_3">
    <path d="M 41.145691 171.861648 
L 424.48221 171.861648 
L 424.48221 97.730175 
L 41.145691 97.730175 
L 41.145691 171.861648 
z
" style="fill: none"/>
   </g>
   <g id="matplotlib.axis_3">
    <g id="xtick_7">
     <g id="line2d_20">
      <path d="M 41.145691 171.861648 
L 41.145691 97.730175 
" clip-path="url(#p9f68c8a44c)" style="fill: none; stroke: #000000; stroke-opacity: 0.2; stroke-width: 0.5; stroke-linecap: round"/>
     </g>
     <g id="line2d_21">
      <g>
       <use xlink:href="#m4be78f6439" x="41.145691" y="171.861648" style="fill-opacity: 0.2; stroke: #000000; stroke-opacity: 0.2; stroke-width: 0.5"/>
      </g>
     </g>
     <g id="text_4">
      <!-- $\mathdefault{0.0}$ -->
      <g transform="translate(32.428381 197.341177)scale(0.14 -0.14)">
       <defs>
        <path id="URWPalladioL-Roma-2e" d="M 794 678 
C 602 678 429 499 429 307 
C 429 115 602 -64 787 -64 
C 992 -64 1171 108 1171 307 
C 1171 499 992 678 794 678 
z
" transform="scale(0.015625)"/>
       </defs>
       <use xlink:href="#URWPalladioL-Roma-30" transform="scale(0.996264)"/>
       <use xlink:href="#URWPalladioL-Roma-2e" transform="translate(49.8132 0)scale(0.996264)"/>
       <use xlink:href="#URWPalladioL-Roma-30" transform="translate(74.719801 0)scale(0.996264)"/>
      </g>
     </g>
    </g>
    <g id="xtick_8">
     <g id="line2d_22">
      <path d="M 117.812995 171.861648 
L 117.812995 97.730175 
" clip-path="url(#p9f68c8a44c)" style="fill: none; stroke: #000000; stroke-opacity: 0.2; stroke-width: 0.5; stroke-linecap: round"/>
     </g>
     <g id="line2d_23">
      <g>
       <use xlink:href="#m4be78f6439" x="117.812995" y="171.861648" style="fill-opacity: 0.2; stroke: #000000; stroke-opacity: 0.2; stroke-width: 0.5"/>
      </g>
     </g>
     <g id="text_5">
      <!-- $\mathdefault{0.2}$ -->
      <g transform="translate(109.095684 197.341177)scale(0.14 -0.14)">
       <defs>
        <path id="URWPalladioL-Roma-32" d="M 102 166 
L 102 0 
C 1299 0 1299 0 1530 0 
C 1760 19 1760 19 2995 0 
C 2982 134 2982 198 2982 287 
C 2982 370 2982 434 2995 574 
C 2259 542 1965 536 781 510 
L 1946 1741 
C 2566 2398 2758 2749 2758 3228 
C 2758 3961 2259 4416 1446 4416 
C 986 4416 672 4287 358 3967 
L 250 3100 
L 435 3100 
L 518 3394 
C 621 3763 851 3923 1280 3923 
C 1830 3923 2182 3578 2182 3036 
C 2182 2558 1914 2086 1190 1320 
L 102 166 
z
" transform="scale(0.015625)"/>
       </defs>
       <use xlink:href="#URWPalladioL-Roma-30" transform="scale(0.996264)"/>
       <use xlink:href="#URWPalladioL-Roma-2e" transform="translate(49.8132 0)scale(0.996264)"/>
       <use xlink:href="#URWPalladioL-Roma-32" transform="translate(74.719801 0)scale(0.996264)"/>
      </g>
     </g>
    </g>
    <g id="xtick_9">
     <g id="line2d_24">
      <path d="M 194.480298 171.861648 
L 194.480298 97.730175 
" clip-path="url(#p9f68c8a44c)" style="fill: none; stroke: #000000; stroke-opacity: 0.2; stroke-width: 0.5; stroke-linecap: round"/>
     </g>
     <g id="line2d_25">
      <g>
       <use xlink:href="#m4be78f6439" x="194.480298" y="171.861648" style="fill-opacity: 0.2; stroke: #000000; stroke-opacity: 0.2; stroke-width: 0.5"/>
      </g>
     </g>
     <g id="text_6">
      <!-- $\mathdefault{0.4}$ -->
      <g transform="translate(185.762988 197.341177)scale(0.14 -0.14)">
       <defs>
        <path id="URWPalladioL-Roma-34" d="M 1792 1152 
L 1792 684 
C 1792 310 1722 223 1408 210 
L 1011 192 
L 1011 0 
C 1862 0 1862 0 2016 0 
C 2170 19 2170 19 3021 0 
L 3021 192 
L 2714 210 
C 2400 229 2330 310 2330 684 
L 2330 1152 
C 2707 1152 2842 1145 3021 1127 
L 3021 1580 
C 2720 1555 2598 1555 2502 1561 
L 2483 1561 
L 2330 1561 
L 2330 2445 
C 2330 3576 2342 4122 2374 4383 
L 2298 4416 
L 1824 4243 
L 13 1299 
L 83 1152 
L 1792 1152 
z
M 1792 1561 
L 416 1561 
L 1792 3798 
L 1792 1561 
z
" transform="scale(0.015625)"/>
       </defs>
       <use xlink:href="#URWPalladioL-Roma-30" transform="scale(0.996264)"/>
       <use xlink:href="#URWPalladioL-Roma-2e" transform="translate(49.8132 0)scale(0.996264)"/>
       <use xlink:href="#URWPalladioL-Roma-34" transform="translate(74.719801 0)scale(0.996264)"/>
      </g>
     </g>
    </g>
    <g id="xtick_10">
     <g id="line2d_26">
      <path d="M 271.147602 171.861648 
L 271.147602 97.730175 
" clip-path="url(#p9f68c8a44c)" style="fill: none; stroke: #000000; stroke-opacity: 0.2; stroke-width: 0.5; stroke-linecap: round"/>
     </g>
     <g id="line2d_27">
      <g>
       <use xlink:href="#m4be78f6439" x="271.147602" y="171.861648" style="fill-opacity: 0.2; stroke: #000000; stroke-opacity: 0.2; stroke-width: 0.5"/>
      </g>
     </g>
     <g id="text_7">
      <!-- $\mathdefault{0.6}$ -->
      <g transform="translate(262.430292 197.341177)scale(0.14 -0.14)">
       <defs>
        <path id="URWPalladioL-Roma-36" d="M 2662 4287 
L 2426 4396 
C 1811 4193 1549 4066 1222 3788 
C 563 3237 205 2463 205 1585 
C 205 526 717 -128 1542 -128 
C 2374 -128 2995 532 2995 1405 
C 2995 2143 2554 2624 1875 2624 
C 1555 2624 1363 2540 986 2239 
C 915 2182 909 2175 838 2124 
C 973 3275 1510 3895 2662 4237 
L 2662 4287 
z
M 1632 2239 
C 2118 2239 2445 1816 2445 1180 
C 2445 513 2118 83 1626 83 
C 1082 83 787 551 787 1411 
C 787 1636 813 1758 883 1867 
C 1024 2085 1325 2239 1632 2239 
z
" transform="scale(0.015625)"/>
       </defs>
       <use xlink:href="#URWPalladioL-Roma-30" transform="scale(0.996264)"/>
       <use xlink:href="#URWPalladioL-Roma-2e" transform="translate(49.8132 0)scale(0.996264)"/>
       <use xlink:href="#URWPalladioL-Roma-36" transform="translate(74.719801 0)scale(0.996264)"/>
      </g>
     </g>
    </g>
    <g id="xtick_11">
     <g id="line2d_28">
      <path d="M 347.814906 171.861648 
L 347.814906 97.730175 
" clip-path="url(#p9f68c8a44c)" style="fill: none; stroke: #000000; stroke-opacity: 0.2; stroke-width: 0.5; stroke-linecap: round"/>
     </g>
     <g id="line2d_29">
      <g>
       <use xlink:href="#m4be78f6439" x="347.814906" y="171.861648" style="fill-opacity: 0.2; stroke: #000000; stroke-opacity: 0.2; stroke-width: 0.5"/>
      </g>
     </g>
     <g id="text_8">
      <!-- $\mathdefault{0.8}$ -->
      <g transform="translate(339.097596 197.341177)scale(0.14 -0.14)">
       <defs>
        <path id="URWPalladioL-Roma-38" d="M 1075 2211 
C 813 2089 704 2019 563 1884 
C 320 1640 192 1352 192 1019 
C 192 358 723 -128 1446 -128 
C 2278 -128 2970 525 2970 1320 
C 2970 1833 2733 2108 2003 2442 
C 2586 2839 2790 3108 2790 3493 
C 2790 4044 2336 4416 1658 4416 
C 896 4416 339 3929 339 3256 
C 339 2820 512 2576 1075 2211 
z
M 1818 1890 
C 2221 1711 2464 1397 2464 1051 
C 2464 512 2061 89 1542 89 
C 998 89 646 474 646 1070 
C 646 1538 832 1833 1306 2121 
L 1818 1890 
z
M 1427 2711 
C 1024 2910 819 3166 819 3486 
C 819 3910 1126 4198 1581 4198 
C 2048 4198 2355 3890 2355 3422 
C 2355 3057 2195 2807 1779 2538 
L 1427 2711 
z
" transform="scale(0.015625)"/>
       </defs>
       <use xlink:href="#URWPalladioL-Roma-30" transform="scale(0.996264)"/>
       <use xlink:href="#URWPalladioL-Roma-2e" transform="translate(49.8132 0)scale(0.996264)"/>
       <use xlink:href="#URWPalladioL-Roma-38" transform="translate(74.719801 0)scale(0.996264)"/>
      </g>
     </g>
    </g>
    <g id="xtick_12">
     <g id="line2d_30">
      <path d="M 424.48221 171.861648 
L 424.48221 97.730175 
" clip-path="url(#p9f68c8a44c)" style="fill: none; stroke: #000000; stroke-opacity: 0.2; stroke-width: 0.5; stroke-linecap: round"/>
     </g>
     <g id="line2d_31">
      <g>
       <use xlink:href="#m4be78f6439" x="424.48221" y="171.861648" style="fill-opacity: 0.2; stroke: #000000; stroke-opacity: 0.2; stroke-width: 0.5"/>
      </g>
     </g>
     <g id="text_9">
      <!-- $\mathdefault{1.0}$ -->
      <g transform="translate(415.7649 197.341177)scale(0.14 -0.14)">
       <use xlink:href="#URWPalladioL-Roma-31" transform="scale(0.996264)"/>
       <use xlink:href="#URWPalladioL-Roma-2e" transform="translate(49.8132 0)scale(0.996264)"/>
       <use xlink:href="#URWPalladioL-Roma-30" transform="translate(74.719801 0)scale(0.996264)"/>
      </g>
     </g>
    </g>
    <g id="text_10">
     <!-- Time $t$ [seconds] -->
     <g transform="translate(189.506786 213.828226)scale(0.12 -0.12)">
      <defs>
       <path id="URWPalladioL-Roma-54" d="M 1632 4096 
C 1651 3880 1658 3734 1658 3462 
L 1658 781 
C 1658 280 1626 230 1331 211 
L 1024 192 
L 1024 0 
C 1402 -7 1626 0 1958 0 
C 2291 19 2522 12 2899 0 
L 2899 192 
L 2592 211 
C 2298 230 2266 280 2266 781 
L 2266 3462 
C 2266 3747 2272 3887 2291 4096 
L 3283 4096 
C 3462 4096 3533 4039 3539 3887 
L 3565 3386 
L 3763 3386 
C 3763 3801 3776 4051 3808 4416 
C 3347 4409 3136 4409 2957 4403 
C 2707 4390 2522 4390 2426 4390 
L 1414 4390 
C 1350 4390 1005 4396 550 4403 
L 115 4416 
C 147 4051 160 3801 160 3385 
L 358 3385 
L 384 3891 
C 390 4038 461 4096 640 4096 
L 1632 4096 
z
" transform="scale(0.015625)"/>
       <path id="URWPalladioL-Roma-69" d="M 1203 2982 
L 1146 3008 
C 819 2873 486 2784 147 2746 
L 147 2568 
L 384 2568 
C 640 2568 666 2523 666 2103 
L 666 669 
C 666 268 646 223 429 211 
L 134 192 
L 134 0 
C 774 0 774 0 934 0 
C 1094 19 1094 19 1734 0 
L 1734 192 
L 1440 211 
C 1222 224 1203 268 1203 671 
L 1203 2982 
z
M 909 4416 
C 717 4416 550 4249 550 4057 
C 550 3871 717 3705 902 3705 
C 1088 3705 1261 3871 1261 4057 
C 1261 4236 1088 4416 909 4416 
z
" transform="scale(0.015625)"/>
       <path id="URWPalladioL-Roma-6d" d="M 115 2579 
L 352 2579 
C 608 2579 634 2534 634 2112 
L 634 672 
C 634 268 614 224 397 211 
L 102 192 
L 102 0 
C 717 0 736 0 915 0 
C 1094 19 1261 12 1677 0 
L 1677 192 
L 1408 211 
C 1190 223 1171 268 1171 670 
L 1171 2023 
C 1171 2311 1594 2624 1978 2624 
C 2323 2624 2560 2298 2560 1813 
L 2560 670 
C 2560 268 2541 223 2323 211 
L 2029 192 
L 2029 0 
C 2669 0 2669 0 2829 0 
C 2989 19 2989 19 3629 0 
L 3629 192 
L 3334 211 
C 3117 223 3098 268 3098 670 
L 3098 2023 
C 3098 2311 3520 2624 3904 2624 
C 4250 2624 4486 2298 4486 1813 
L 4486 0 
C 4877 0 4883 0 4992 0 
C 5075 19 5075 19 5562 0 
L 5562 192 
L 5261 211 
C 5043 223 5024 268 5024 670 
L 5024 1985 
C 5024 2617 4653 3014 4064 3014 
C 3840 3014 3654 2956 3539 2854 
L 3053 2419 
C 2848 2841 2586 3014 2144 3014 
C 1907 3014 1728 2956 1613 2854 
L 1171 2445 
L 1171 2988 
L 1114 3008 
C 787 2873 454 2783 115 2745 
L 115 2579 
z
" transform="scale(0.015625)"/>
       <path id="URWPalladioL-Roma-65" d="M 2797 447 
L 2714 511 
C 2304 268 2157 211 1882 211 
C 1466 211 1120 396 941 710 
C 819 921 774 1100 762 1472 
L 1696 1472 
C 2138 1472 2413 1491 2854 1561 
C 2861 1651 2867 1708 2867 1786 
C 2867 2526 2394 3008 1677 3008 
C 1440 3008 1165 2924 902 2771 
C 378 2468 166 2069 166 1401 
C 166 998 262 652 435 409 
C 691 70 1120 -128 1600 -128 
C 1837 -128 2074 -77 2336 38 
C 2509 108 2643 192 2669 230 
L 2797 447 
z
M 2298 1708 
C 1965 1696 1811 1689 1581 1689 
C 1286 1689 1120 1696 774 1728 
C 774 2030 800 2172 883 2339 
C 1018 2623 1293 2796 1600 2796 
C 1811 2796 1978 2713 2093 2539 
C 2234 2326 2278 2140 2298 1708 
z
" transform="scale(0.015625)"/>
       <path id="URWPalladioL-Ital-74" d="M 800 2489 
L 442 678 
C 435 633 429 620 410 544 
C 371 364 358 268 358 192 
C 358 32 429 -64 550 -64 
C 774 -64 998 64 1498 467 
L 1594 544 
L 1696 627 
L 1632 742 
L 1344 544 
C 1158 416 1030 352 960 352 
C 902 352 870 403 870 480 
C 870 646 960 1164 1146 2092 
L 1229 2489 
L 1914 2489 
L 1984 2809 
C 1741 2784 1523 2771 1280 2771 
C 1382 3373 1453 3686 1568 4032 
L 1498 4128 
C 1370 4051 1197 3974 998 3897 
L 838 2809 
C 557 2675 390 2604 275 2572 
L 262 2489 
L 800 2489 
z
" transform="scale(0.015625)"/>
       <path id="URWPalladioL-Roma-5b" d="M 563 -1178 
C 1018 -1166 1030 -1166 1184 -1166 
C 1338 -1166 1370 -1166 1805 -1178 
L 1843 -1140 
L 1843 -974 
L 1818 -942 
L 1574 -942 
C 1402 -942 1261 -903 1184 -839 
C 1126 -782 1107 -692 1107 -481 
C 1107 -474 1107 -340 1101 -148 
L 1101 89 
L 1101 3379 
L 1101 3615 
C 1107 3795 1107 3935 1107 3942 
C 1107 4153 1126 4249 1184 4307 
C 1261 4371 1402 4409 1574 4409 
L 1818 4409 
L 1843 4441 
L 1843 4608 
L 1805 4646 
C 1357 4633 1338 4633 1184 4633 
C 1037 4633 1005 4633 563 4646 
L 506 4563 
C 544 4403 557 4191 557 3699 
C 557 3603 557 3526 563 3462 
L 563 3379 
L 563 89 
L 563 6 
C 557 -97 557 -103 557 -212 
L 557 -282 
C 557 -718 544 -897 506 -1095 
L 563 -1178 
z
" transform="scale(0.015625)"/>
       <path id="URWPalladioL-Roma-73" d="M 262 917 
C 262 474 243 282 192 25 
C 525 -84 774 -128 1069 -128 
C 1907 -128 2502 320 2502 949 
C 2502 1148 2445 1295 2323 1423 
C 2157 1584 1946 1661 1382 1770 
C 858 1872 685 2001 685 2296 
C 685 2617 909 2796 1299 2796 
C 1728 2796 2054 2572 2054 2270 
L 2054 2123 
L 2234 2123 
C 2240 2495 2246 2649 2266 2847 
C 1926 2963 1696 3008 1434 3008 
C 691 3008 237 2655 237 2078 
C 237 1770 378 1552 672 1417 
C 845 1340 1184 1237 1619 1141 
C 1907 1077 2029 942 2029 698 
C 2029 352 1709 108 1254 108 
C 787 108 454 333 454 654 
L 454 917 
L 262 917 
z
" transform="scale(0.015625)"/>
       <path id="URWPalladioL-Roma-63" d="M 2554 1995 
C 2554 2290 2586 2553 2643 2783 
C 2387 2937 2163 3008 1901 3008 
C 1594 3008 1235 2886 851 2643 
C 403 2360 166 1911 166 1347 
C 166 480 774 -128 1632 -128 
C 1965 -128 2445 -7 2509 89 
L 2643 294 
L 2579 390 
C 2342 262 2138 204 1907 204 
C 1197 204 730 756 730 1603 
C 730 2290 1050 2675 1626 2675 
C 1907 2675 2214 2547 2330 2386 
L 2374 1995 
L 2554 1995 
z
" transform="scale(0.015625)"/>
       <path id="URWPalladioL-Roma-6f" d="M 1786 3008 
C 851 3008 205 2347 205 1391 
C 205 487 774 -128 1600 -128 
C 2586 -128 3290 557 3290 1520 
C 3290 2386 2662 3008 1786 3008 
z
M 1670 2796 
C 2259 2796 2694 2155 2694 1282 
C 2694 545 2368 83 1850 83 
C 1222 83 800 699 800 1609 
C 800 2379 1107 2796 1670 2796 
z
" transform="scale(0.015625)"/>
       <path id="URWPalladioL-Roma-6e" d="M 2624 0 
C 3014 0 3021 0 3130 0 
C 3219 19 3219 19 3661 0 
L 3661 192 
L 3398 211 
C 3181 223 3162 262 3162 670 
L 3162 1902 
C 3162 2649 2810 3014 2093 3014 
C 1856 3014 1722 2969 1587 2854 
L 1101 2432 
L 1101 2988 
L 1043 3008 
C 717 2873 384 2784 45 2746 
L 45 2568 
L 282 2568 
C 538 2568 563 2523 563 2103 
L 563 669 
C 563 268 544 223 326 211 
L 38 192 
L 38 0 
C 474 -7 646 0 832 0 
C 1018 19 1190 12 1626 0 
L 1626 192 
L 1338 211 
C 1120 223 1101 268 1101 670 
L 1101 2023 
C 1101 2311 1523 2624 1914 2624 
C 2342 2624 2624 2304 2624 1813 
L 2624 0 
z
" transform="scale(0.015625)"/>
       <path id="URWPalladioL-Roma-64" d="M 2637 2803 
C 2278 2956 2099 3008 1875 3008 
C 1702 3008 1549 2969 1389 2886 
L 826 2592 
C 461 2400 224 1934 224 1392 
C 224 881 397 460 710 204 
C 928 19 1229 -64 1645 -64 
C 1773 -64 1920 -39 1952 -13 
L 2662 581 
L 2630 0 
C 2944 -7 3046 0 3123 0 
C 3174 0 3264 0 3398 -7 
C 3443 6 3571 6 3706 0 
L 3706 192 
L 3411 211 
C 3194 224 3174 268 3174 672 
L 3174 4614 
L 3117 4665 
C 2835 4557 2624 4505 2118 4429 
L 2118 4249 
L 2477 4249 
C 2592 4249 2637 4179 2637 3987 
L 2637 2803 
z
M 2637 1424 
C 2637 1009 2624 945 2541 798 
C 2362 498 2048 300 1747 300 
C 1184 300 781 843 781 1602 
C 781 2298 1126 2707 1702 2707 
C 1946 2707 2202 2624 2426 2470 
C 2560 2381 2637 2298 2637 2247 
L 2637 1424 
z
" transform="scale(0.015625)"/>
       <path id="URWPalladioL-Roma-5d" d="M 1568 4646 
C 1114 4633 1094 4633 947 4633 
C 794 4633 762 4633 326 4646 
L 288 4608 
L 288 4441 
L 314 4409 
L 557 4409 
C 730 4409 864 4371 941 4307 
C 1005 4249 1024 4159 1024 3942 
C 1024 3923 1024 3795 1030 3615 
L 1030 3379 
L 1030 89 
L 1030 -148 
C 1024 -334 1024 -449 1024 -468 
C 1024 -686 1005 -782 941 -839 
C 864 -903 730 -942 557 -942 
L 314 -942 
L 288 -974 
L 288 -1140 
L 326 -1178 
C 774 -1166 787 -1166 947 -1166 
C 1094 -1166 1126 -1166 1568 -1178 
L 1626 -1095 
C 1587 -942 1581 -743 1574 -250 
C 1574 -161 1574 -78 1568 6 
L 1568 89 
L 1568 3379 
L 1568 3462 
C 1574 3532 1574 3615 1574 3705 
C 1574 4198 1587 4409 1626 4563 
L 1568 4646 
z
" transform="scale(0.015625)"/>
      </defs>
      <use xlink:href="#URWPalladioL-Roma-54" transform="scale(0.996264)"/>
      <use xlink:href="#URWPalladioL-Roma-69" transform="translate(55.591109 0)scale(0.996264)"/>
      <use xlink:href="#URWPalladioL-Roma-6d" transform="translate(84.581471 0)scale(0.996264)"/>
      <use xlink:href="#URWPalladioL-Roma-65" transform="translate(172.551145 0)scale(0.996264)"/>
      <use xlink:href="#URWPalladioL-Ital-74" transform="translate(246.42334 0)scale(0.996264)"/>
      <use xlink:href="#URWPalladioL-Roma-5b" transform="translate(305.749922 0)scale(0.996264)"/>
      <use xlink:href="#URWPalladioL-Roma-73" transform="translate(338.925152 0)scale(0.996264)"/>
      <use xlink:href="#URWPalladioL-Roma-65" transform="translate(381.166618 0)scale(0.996264)"/>
      <use xlink:href="#URWPalladioL-Roma-63" transform="translate(428.886913 0)scale(0.996264)"/>
      <use xlink:href="#URWPalladioL-Roma-6f" transform="translate(473.120482 0)scale(0.996264)"/>
      <use xlink:href="#URWPalladioL-Roma-6e" transform="translate(527.516062 0)scale(0.996264)"/>
      <use xlink:href="#URWPalladioL-Roma-64" transform="translate(585.498123 0)scale(0.996264)"/>
      <use xlink:href="#URWPalladioL-Roma-73" transform="translate(646.369754 0)scale(0.996264)"/>
      <use xlink:href="#URWPalladioL-Roma-5d" transform="translate(688.61122 0)scale(0.996264)"/>
     </g>
    </g>
   </g>
   <g id="matplotlib.axis_4">
    <g id="ytick_4">
     <g id="line2d_32">
      <path d="M 41.145691 170.096613 
L 424.48221 170.096613 
" clip-path="url(#p9f68c8a44c)" style="fill: none; stroke: #000000; stroke-opacity: 0.2; stroke-width: 0.5; stroke-linecap: round"/>
     </g>
     <g id="line2d_33">
      <g>
       <use xlink:href="#m9b0edc3944" x="41.145691" y="170.096613" style="fill-opacity: 0.2; stroke: #000000; stroke-opacity: 0.2; stroke-width: 0.5"/>
      </g>
     </g>
     <g id="text_11">
      <!-- $\mathdefault{−1}$ -->
      <g transform="translate(7.2 175.086378)scale(0.14 -0.14)">
       <use xlink:href="#CMSY10-0" transform="scale(1.038107)"/>
       <use xlink:href="#URWPalladioL-Roma-31" transform="translate(81.941696 0)scale(0.996264)"/>
      </g>
     </g>
    </g>
    <g id="ytick_5">
     <g id="line2d_34">
      <path d="M 41.145691 134.795912 
L 424.48221 134.795912 
" clip-path="url(#p9f68c8a44c)" style="fill: none; stroke: #000000; stroke-opacity: 0.2; stroke-width: 0.5; stroke-linecap: round"/>
     </g>
     <g id="line2d_35">
      <g>
       <use xlink:href="#m9b0edc3944" x="41.145691" y="134.795912" style="fill-opacity: 0.2; stroke: #000000; stroke-opacity: 0.2; stroke-width: 0.5"/>
      </g>
     </g>
     <g id="text_12">
      <!-- $\mathdefault{0}$ -->
      <g transform="translate(18.671843 139.785676)scale(0.14 -0.14)">
       <use xlink:href="#URWPalladioL-Roma-30" transform="scale(0.996264)"/>
      </g>
     </g>
    </g>
    <g id="ytick_6">
     <g id="line2d_36">
      <path d="M 41.145691 99.49521 
L 424.48221 99.49521 
" clip-path="url(#p9f68c8a44c)" style="fill: none; stroke: #000000; stroke-opacity: 0.2; stroke-width: 0.5; stroke-linecap: round"/>
     </g>
     <g id="line2d_37">
      <g>
       <use xlink:href="#m9b0edc3944" x="41.145691" y="99.49521" style="fill-opacity: 0.2; stroke: #000000; stroke-opacity: 0.2; stroke-width: 0.5"/>
      </g>
     </g>
     <g id="text_13">
      <!-- $\mathdefault{1}$ -->
      <g transform="translate(18.671843 104.484975)scale(0.14 -0.14)">
       <use xlink:href="#URWPalladioL-Roma-31" transform="scale(0.996264)"/>
      </g>
     </g>
    </g>
   </g>
   <g id="line2d_38">
    <path d="M 41.145691 99.49521 
L 41.912364 99.564868 
L 42.679037 99.773567 
L 43.44571 100.120483 
L 44.212383 100.604247 
L 45.745729 101.97415 
L 47.279075 103.861671 
L 48.812421 106.237044 
L 50.345767 109.062808 
L 51.879113 112.294398 
L 54.179132 117.789669 
L 56.479151 123.887395 
L 60.312517 134.795912 
L 64.912555 147.790967 
L 67.212574 153.710973 
L 69.512593 158.960905 
L 71.045939 161.99557 
L 72.579285 164.60128 
L 74.112631 166.736941 
L 75.645977 168.368874 
L 77.179324 169.471341 
L 77.945997 169.818257 
L 78.71267 170.026955 
L 79.479343 170.096613 
L 80.246016 170.026955 
L 81.012689 169.818257 
L 81.779362 169.471341 
L 82.546035 168.987577 
L 84.079381 167.617674 
L 85.612727 165.730152 
L 87.146073 163.354779 
L 88.679419 160.529016 
L 90.212765 157.297426 
L 92.512784 151.802154 
L 94.812803 145.704428 
L 98.646169 134.795912 
L 103.246207 121.800857 
L 105.546226 115.88085 
L 107.846245 110.630919 
L 109.379591 107.596254 
L 110.912937 104.990544 
L 112.446283 102.854882 
L 113.979629 101.22295 
L 115.512975 100.120483 
L 116.279648 99.773567 
L 117.046322 99.564868 
L 117.812995 99.49521 
L 118.579668 99.564868 
L 119.346341 99.773567 
L 120.113014 100.120483 
L 120.879687 100.604247 
L 122.413033 101.97415 
L 123.946379 103.861671 
L 125.479725 106.237044 
L 127.013071 109.062808 
L 128.546417 112.294398 
L 130.846436 117.789669 
L 133.146455 123.887395 
L 136.979821 134.795912 
L 141.579859 147.790967 
L 143.879878 153.710973 
L 146.179897 158.960905 
L 147.713243 161.99557 
L 149.246589 164.60128 
L 150.779935 166.736941 
L 152.313281 168.368874 
L 153.846627 169.471341 
L 154.6133 169.818257 
L 155.379973 170.026955 
L 156.146646 170.096613 
L 156.91332 170.026955 
L 157.679993 169.818257 
L 158.446666 169.471341 
L 159.213339 168.987577 
L 160.746685 167.617674 
L 162.280031 165.730152 
L 163.813377 163.354779 
L 165.346723 160.529016 
L 166.880069 157.297426 
L 169.180088 151.802154 
L 171.480107 145.704428 
L 175.313472 134.795912 
L 179.913511 121.800857 
L 182.21353 115.88085 
L 184.513549 110.630919 
L 186.046895 107.596254 
L 187.580241 104.990544 
L 189.113587 102.854882 
L 190.646933 101.22295 
L 192.180279 100.120483 
L 192.946952 99.773567 
L 193.713625 99.564868 
L 194.480298 99.49521 
L 195.246971 99.564868 
L 196.013644 99.773567 
L 196.780318 100.120483 
L 197.546991 100.604247 
L 199.080337 101.97415 
L 200.613683 103.861671 
L 202.147029 106.237044 
L 203.680375 109.062808 
L 205.213721 112.294398 
L 207.51374 117.789669 
L 209.813759 123.887395 
L 213.647124 134.795912 
L 218.247163 147.790967 
L 220.547182 153.710973 
L 222.847201 158.960905 
L 224.380547 161.99557 
L 225.913893 164.60128 
L 227.447239 166.736941 
L 228.980585 168.368874 
L 230.513931 169.471341 
L 231.280604 169.818257 
L 232.047277 170.026955 
L 232.81395 170.096613 
L 233.580623 170.026955 
L 234.347296 169.818257 
L 235.113969 169.471341 
L 235.880642 168.987577 
L 237.413989 167.617674 
L 238.947335 165.730152 
L 240.480681 163.354779 
L 242.014027 160.529016 
L 243.547373 157.297426 
L 245.847392 151.802154 
L 248.147411 145.704428 
L 251.980776 134.795912 
L 256.580815 121.800857 
L 258.880834 115.88085 
L 261.180853 110.630919 
L 262.714199 107.596254 
L 264.247545 104.990544 
L 265.780891 102.854882 
L 267.314237 101.22295 
L 268.847583 100.120483 
L 269.614256 99.773567 
L 270.380929 99.564868 
L 271.147602 99.49521 
L 271.914275 99.564868 
L 272.680948 99.773567 
L 273.447621 100.120483 
L 274.214294 100.604247 
L 275.74764 101.97415 
L 277.280987 103.861671 
L 278.814333 106.237044 
L 280.347679 109.062808 
L 281.881025 112.294398 
L 284.181044 117.789669 
L 286.481063 123.887395 
L 290.314428 134.795912 
L 294.914466 147.790967 
L 297.214486 153.710973 
L 299.514505 158.960905 
L 301.047851 161.99557 
L 302.581197 164.60128 
L 304.114543 166.736941 
L 305.647889 168.368874 
L 307.181235 169.471341 
L 307.947908 169.818257 
L 308.714581 170.026955 
L 309.481254 170.096613 
L 310.247927 170.026955 
L 311.0146 169.818257 
L 311.781273 169.471341 
L 312.547946 168.987577 
L 314.081292 167.617674 
L 315.614638 165.730152 
L 317.147985 163.354779 
L 318.681331 160.529016 
L 320.214677 157.297426 
L 322.514696 151.802154 
L 324.814715 145.704428 
L 328.64808 134.795912 
L 333.248118 121.800857 
L 335.548137 115.88085 
L 337.848157 110.630919 
L 339.381503 107.596254 
L 340.914849 104.990544 
L 342.448195 102.854882 
L 343.981541 101.22295 
L 345.514887 100.120483 
L 346.28156 99.773567 
L 347.048233 99.564868 
L 347.814906 99.49521 
L 348.581579 99.564868 
L 349.348252 99.773567 
L 350.114925 100.120483 
L 350.881598 100.604247 
L 352.414944 101.97415 
L 353.94829 103.861671 
L 355.481636 106.237044 
L 357.014983 109.062808 
L 358.548329 112.294398 
L 360.848348 117.789669 
L 363.148367 123.887395 
L 366.981732 134.795912 
L 371.58177 147.790967 
L 373.881789 153.710973 
L 376.181808 158.960905 
L 377.715155 161.99557 
L 379.248501 164.60128 
L 380.781847 166.736941 
L 382.315193 168.368874 
L 383.848539 169.471341 
L 384.615212 169.818257 
L 385.381885 170.026955 
L 386.148558 170.096613 
L 386.915231 170.026955 
L 387.681904 169.818257 
L 388.448577 169.471341 
L 389.21525 168.987577 
L 390.748596 167.617674 
L 392.281942 165.730152 
L 393.815288 163.354779 
L 395.348634 160.529016 
L 396.881981 157.297426 
L 399.182 151.802154 
L 401.482019 145.704428 
L 405.315384 134.795912 
L 409.915422 121.800857 
L 412.215441 115.88085 
L 414.51546 110.630919 
L 416.048806 107.596254 
L 417.582153 104.990544 
L 419.115499 102.854882 
L 420.648845 101.22295 
L 422.182191 100.120483 
L 422.948864 99.773567 
L 423.715537 99.564868 
L 423.715537 99.564868 
" clip-path="url(#p9f68c8a44c)" style="fill: none; stroke: #dc2830; stroke-width: 2; stroke-linecap: round"/>
   </g>
  </g>
 </g>
 <defs>
  <clipPath id="pf06c72e07e">
   <rect x="41.145691" y="8.820152" width="383.336519" height="74.131473"/>
  </clipPath>
  <clipPath id="p9f68c8a44c">
   <rect x="41.145691" y="97.730175" width="383.336519" height="74.131473"/>
  </clipPath>
 </defs>
</svg>