<?xml version="1.0" encoding="utf-8" standalone="no"?>
<!DOCTYPE svg PUBLIC "-//W3C//DTD SVG 1.1//EN"
  "http://www.w3.org/Graphics/SVG/1.1/DTD/svg11.dtd">
<svg xmlns:xlink="http://www.w3.org/1999/xlink" width="530.624168pt" height="293.785042pt" viewBox="0 0 530.624168 293.785042" xmlns="http://www.w3.org/2000/svg" version="1.1">
 <metadata>
  <rdf:RDF xmlns:dc="http://purl.org/dc/elements/1.1/" xmlns:cc="http://creativecommons.org/ns#" xmlns:rdf="http://www.w3.org/1999/02/22-rdf-syntax-ns#">
   <cc:Work>
    <dc:type rdf:resource="http://purl.org/dc/dcmitype/StillImage"/>
    <dc:date>2022-06-20T10:05:16.825693</dc:date>
    <dc:format>image/svg+xml</dc:format>
    <dc:creator>
     <cc:Agent>
      <dc:title>Matplotlib v3.5.2, https://matplotlib.org/</dc:title>
     </cc:Agent>
    </dc:creator>
   </cc:Work>
  </rdf:RDF>
 </metadata>
 <defs>
  <style type="text/css">*{stroke-linejoin: round; stroke-linecap: butt}</style>
 </defs>
 <g id="figure_1">
  <g id="patch_1">
   <path d="M 0 293.785042 
L 530.624168 293.785042 
L 530.624168 0 
L 0 0 
L 0 293.785042 
z
" style="fill: none"/>
  </g>
  <g id="axes_1">
   <g id="patch_2">
    <path d="M 38.62516 61.296836 
L 169.919277 61.296836 
L 169.919277 23.80718 
L 38.62516 23.80718 
L 38.62516 61.296836 
z
" style="fill: none"/>
   </g>
   <g id="line2d_1">
    <path d="M 38.62516 33.40819 
L 41.991676 33.40819 
L 41.991676 33.40819 
L 45.358191 33.40819 
L 45.358191 33.40819 
L 48.724707 33.40819 
L 48.724707 33.40819 
L 52.091223 33.40819 
L 52.091223 33.40819 
L 55.457739 33.40819 
L 55.457739 33.40819 
L 58.824255 33.40819 
L 58.824255 33.40819 
L 62.190771 33.40819 
L 62.190771 33.40819 
L 65.557286 33.40819 
L 65.557286 33.40819 
L 68.923802 33.40819 
L 68.923802 33.40819 
L 72.290318 33.40819 
L 72.290318 33.40819 
L 75.656834 33.40819 
L 75.656834 33.40819 
L 79.02335 33.40819 
L 79.02335 33.40819 
L 82.389866 33.40819 
L 82.389866 33.40819 
L 85.756382 33.40819 
L 85.756382 33.40819 
L 89.122897 33.40819 
L 89.122897 33.40819 
L 92.489413 33.40819 
L 92.489413 33.40819 
L 95.855929 33.40819 
L 95.855929 33.40819 
L 99.222445 33.40819 
L 99.222445 33.40819 
L 102.588961 33.40819 
L 102.588961 33.40819 
L 105.955477 33.40819 
L 105.955477 33.40819 
L 109.321992 33.40819 
L 109.321992 33.40819 
L 112.688508 33.40819 
L 112.688508 33.40819 
L 116.055024 33.40819 
L 116.055024 33.40819 
L 119.42154 33.40819 
L 119.42154 33.40819 
L 122.788056 33.40819 
L 122.788056 33.40819 
L 126.154572 33.40819 
L 126.154572 33.40819 
L 129.521087 33.40819 
L 129.521087 33.40819 
L 132.887603 33.40819 
L 132.887603 33.40819 
L 136.254119 33.40819 
L 136.254119 33.40819 
L 139.620635 33.40819 
L 139.620635 33.40819 
L 142.987151 33.40819 
L 142.987151 33.40819 
L 146.353667 33.40819 
L 146.353667 33.40819 
L 149.720182 33.40819 
L 149.720182 33.40819 
L 153.086698 33.40819 
L 153.086698 33.40819 
L 156.453214 33.40819 
L 156.453214 33.40819 
L 159.81973 33.40819 
L 159.81973 33.40819 
L 163.186246 33.40819 
L 163.186246 33.40819 
L 166.552762 33.40819 
L 166.552762 33.40819 
L 169.919277 33.40819 
L 169.919277 33.40819 
" clip-path="url(#pc642c21506)" style="fill: none; stroke: #dc2830; stroke-width: 2; stroke-linecap: round"/>
   </g>
   <g id="matplotlib.axis_1">
    <g id="xtick_1">
     <g id="line2d_2">
      <path d="M 38.62516 61.296836 
L 38.62516 23.80718 
" clip-path="url(#pc642c21506)" style="fill: none; stroke: #000000; stroke-opacity: 0.2; stroke-width: 0.5; stroke-linecap: round"/>
     </g>
     <g id="line2d_3">
      <defs>
       <path id="ma4d3ffb786" d="M 0 0 
L 0 3.5 
" style="stroke: #000000; stroke-opacity: 0.2; stroke-width: 0.5"/>
      </defs>
      <g>
       <use xlink:href="#ma4d3ffb786" x="38.62516" y="61.296836" style="fill-opacity: 0.2; stroke: #000000; stroke-opacity: 0.2; stroke-width: 0.5"/>
      </g>
     </g>
    </g>
    <g id="xtick_2">
     <g id="line2d_4">
      <path d="M 105.955477 61.296836 
L 105.955477 23.80718 
" clip-path="url(#pc642c21506)" style="fill: none; stroke: #000000; stroke-opacity: 0.2; stroke-width: 0.5; stroke-linecap: round"/>
     </g>
     <g id="line2d_5">
      <g>
       <use xlink:href="#ma4d3ffb786" x="105.955477" y="61.296836" style="fill-opacity: 0.2; stroke: #000000; stroke-opacity: 0.2; stroke-width: 0.5"/>
      </g>
     </g>
    </g>
   </g>
   <g id="matplotlib.axis_2">
    <g id="ytick_1">
     <g id="line2d_6">
      <path d="M 38.62516 42.552008 
L 169.919277 42.552008 
" clip-path="url(#pc642c21506)" style="fill: none; stroke: #000000; stroke-opacity: 0.2; stroke-width: 0.5; stroke-linecap: round"/>
     </g>
     <g id="line2d_7">
      <defs>
       <path id="m160272105b" d="M 0 0 
L -3.5 0 
" style="stroke: #000000; stroke-opacity: 0.2; stroke-width: 0.5"/>
      </defs>
      <g>
       <use xlink:href="#m160272105b" x="38.62516" y="42.552008" style="fill-opacity: 0.2; stroke: #000000; stroke-opacity: 0.2; stroke-width: 0.5"/>
      </g>
     </g>
    </g>
    <g id="text_1">
     <!-- $m=0$ -->
     <g transform="translate(15.753876 58.57813)rotate(-90)scale(0.12 -0.12)">
      <defs>
       <path id="URWPalladioL-Ital-6d" d="M 4672 651 
L 4506 542 
C 4320 421 4179 351 4115 351 
C 4070 351 4032 408 4032 479 
C 4032 542 4045 600 4077 734 
L 4557 2631 
C 4582 2739 4602 2841 4602 2892 
C 4602 3001 4538 3072 4435 3072 
C 4250 3072 4006 2956 3616 2682 
C 3213 2394 2989 2171 2675 1730 
L 2867 2605 
C 2893 2733 2912 2829 2912 2873 
C 2912 2995 2848 3072 2746 3072 
C 2554 3072 2259 2931 1907 2663 
C 1626 2445 1498 2311 1082 1749 
L 1293 2599 
C 1318 2701 1331 2797 1331 2873 
C 1331 2995 1274 3072 1184 3072 
C 1050 3072 806 2937 333 2599 
L 154 2471 
L 198 2343 
L 403 2477 
C 640 2624 659 2637 704 2637 
C 774 2637 819 2573 819 2477 
C 819 2152 557 919 294 6 
L 314 -64 
L 749 32 
L 890 683 
C 1043 1392 1216 1769 1568 2152 
C 1837 2445 2125 2637 2304 2637 
C 2349 2637 2374 2586 2374 2503 
C 2374 2279 2234 1551 1971 434 
L 1869 6 
L 1901 -64 
L 2342 32 
L 2477 715 
C 2579 1232 2797 1711 3078 2024 
C 3430 2413 3750 2637 3955 2637 
C 4006 2637 4038 2579 4038 2477 
C 4038 2324 4019 2235 3878 1679 
C 3776 1277 3667 894 3603 677 
C 3546 498 3520 332 3520 191 
C 3520 32 3590 -64 3712 -64 
C 3878 -64 4109 70 4736 536 
L 4672 651 
z
" transform="scale(0.015625)"/>
       <path id="CMR10-3d" d="M 4397 2111 
C 4493 2111 4614 2111 4614 2239 
C 4614 2368 4493 2368 4403 2368 
L 570 2368 
C 480 2368 358 2368 358 2239 
C 358 2111 480 2111 576 2111 
L 4397 2111 
z
M 4403 832 
C 4493 832 4614 832 4614 960 
C 4614 1088 4493 1088 4397 1088 
L 576 1088 
C 480 1088 358 1088 358 960 
C 358 832 480 832 570 832 
L 4403 832 
z
" transform="scale(0.015625)"/>
       <path id="URWPalladioL-Roma-30" d="M 1683 4416 
C 691 4416 186 3628 186 2076 
C 186 1326 320 679 544 365 
C 768 51 1126 -128 1523 -128 
C 2490 -128 2976 704 2976 2345 
C 2976 3749 2560 4416 1683 4416 
z
M 1568 4191 
C 2189 4191 2438 3563 2438 2025 
C 2438 660 2195 96 1606 96 
C 986 96 723 743 723 2307 
C 723 3660 960 4191 1568 4191 
z
" transform="scale(0.015625)"/>
      </defs>
      <use xlink:href="#URWPalladioL-Ital-6d" transform="scale(0.996264)"/>
      <use xlink:href="#CMR10-3d" transform="translate(107.673966 0)scale(1.038107)"/>
      <use xlink:href="#URWPalladioL-Roma-30" transform="translate(217.289595 0)scale(0.996264)"/>
     </g>
    </g>
   </g>
   <g id="line2d_8">
    <path d="M 38.62516 33.40819 
L 41.991676 33.40819 
L 41.991676 34.404806 
L 45.358191 34.404806 
L 45.358191 37.177406 
L 48.724707 37.177406 
L 48.724707 41.1216 
L 52.091223 41.1216 
L 52.091223 45.377603 
L 55.457739 45.377603 
L 55.457739 49.017664 
L 58.824255 49.017664 
L 58.824255 51.248296 
L 62.190771 51.248296 
L 62.190771 51.583251 
L 65.557286 51.583251 
L 65.557286 49.949512 
L 68.923802 49.949512 
L 68.923802 46.703215 
L 72.290318 46.703215 
L 72.290318 42.552008 
L 75.656834 42.552008 
L 75.656834 38.400801 
L 79.02335 38.400801 
L 79.02335 35.154504 
L 82.389866 35.154504 
L 82.389866 33.520765 
L 85.756382 33.520765 
L 85.756382 33.85572 
L 89.122897 33.85572 
L 89.122897 36.086352 
L 92.489413 36.086352 
L 92.489413 39.726413 
L 95.855929 39.726413 
L 95.855929 43.982416 
L 99.222445 43.982416 
L 99.222445 47.92661 
L 102.588961 47.92661 
L 102.588961 50.69921 
L 105.955477 50.69921 
L 105.955477 51.695826 
L 109.321992 51.695826 
L 109.321992 50.69921 
L 112.688508 50.69921 
L 112.688508 47.92661 
L 116.055024 47.92661 
L 116.055024 43.982416 
L 119.42154 43.982416 
L 119.42154 39.726413 
L 122.788056 39.726413 
L 122.788056 36.086352 
L 126.154572 36.086352 
L 126.154572 33.85572 
L 129.521087 33.85572 
L 129.521087 33.520765 
L 132.887603 33.520765 
L 132.887603 35.154504 
L 136.254119 35.154504 
L 136.254119 38.400801 
L 139.620635 38.400801 
L 139.620635 42.552008 
L 142.987151 42.552008 
L 142.987151 46.703215 
L 146.353667 46.703215 
L 146.353667 49.949512 
L 149.720182 49.949512 
L 149.720182 51.583251 
L 153.086698 51.583251 
L 153.086698 51.248296 
L 156.453214 51.248296 
L 156.453214 49.017664 
L 159.81973 49.017664 
L 159.81973 45.377603 
L 163.186246 45.377603 
L 163.186246 41.1216 
L 166.552762 41.1216 
L 166.552762 37.177406 
L 169.919277 37.177406 
L 169.919277 34.404806 
" clip-path="url(#pc642c21506)" style="fill: none; stroke: #0271ae; stroke-width: 2; stroke-linecap: round"/>
   </g>
   <g id="text_2">
    <!-- $x[n]$ and $y_m[n]$ -->
    <g transform="translate(60.389864 17.80718)scale(0.14 -0.14)">
     <defs>
      <path id="URWPalladioL-Ital-78" d="M 134 567 
C 134 440 122 358 83 153 
C 70 76 64 57 58 12 
C 154 -39 256 -64 333 -64 
C 544 -64 794 121 992 421 
L 1478 1164 
L 1549 726 
C 1632 185 1779 -64 2010 -64 
C 2150 -64 2355 44 2560 230 
L 2874 510 
L 2816 631 
C 2586 440 2426 345 2323 345 
C 2227 345 2144 409 2080 536 
C 2022 656 1952 891 1920 1075 
L 1805 1716 
L 2029 2027 
C 2330 2439 2502 2585 2701 2585 
C 2803 2585 2880 2534 2912 2439 
L 3002 2465 
L 3098 3007 
C 3021 3052 2963 3072 2906 3072 
C 2650 3072 2394 2841 1997 2255 
L 1760 1906 
L 1722 2211 
C 1645 2841 1472 3072 1094 3072 
C 928 3072 787 3020 730 2937 
L 358 2408 
L 467 2344 
C 659 2560 787 2649 909 2649 
C 1120 2649 1261 2389 1370 1767 
L 1440 1373 
L 1184 980 
C 909 555 691 352 512 352 
C 416 352 346 377 333 409 
L 262 586 
L 134 567 
z
" transform="scale(0.015625)"/>
      <path id="CMR10-5b" d="M 1632 -1601 
L 1632 -1344 
L 1011 -1344 
L 1011 4544 
L 1632 4544 
L 1632 4800 
L 755 4800 
L 755 -1601 
L 1632 -1601 
z
" transform="scale(0.015625)"/>
      <path id="URWPalladioL-Ital-6e" d="M 154 2471 
L 198 2343 
L 403 2477 
C 640 2624 659 2637 704 2637 
C 774 2637 819 2573 819 2477 
C 819 2152 557 919 294 6 
L 339 -64 
C 499 -20 646 19 787 44 
C 909 849 1043 1264 1338 1705 
C 1683 2241 2163 2637 2451 2637 
C 2522 2637 2560 2579 2560 2484 
C 2560 2369 2541 2235 2490 2030 
L 2157 677 
C 2099 440 2074 293 2074 191 
C 2074 32 2144 -64 2266 -64 
C 2432 -64 2662 70 3290 536 
L 3226 651 
L 3059 542 
C 2874 421 2733 351 2669 351 
C 2624 351 2586 408 2586 479 
C 2586 511 2592 581 2598 606 
L 3021 2369 
C 3066 2554 3091 2733 3091 2841 
C 3091 2988 3021 3072 2893 3072 
C 2624 3072 2182 2829 1805 2477 
C 1562 2254 1382 2037 1050 1571 
L 1293 2599 
C 1318 2714 1331 2790 1331 2860 
C 1331 2995 1280 3072 1184 3072 
C 1050 3072 800 2931 333 2599 
L 154 2471 
z
" transform="scale(0.015625)"/>
      <path id="CMR10-5d" d="M 1018 4800 
L 141 4800 
L 141 4544 
L 762 4544 
L 762 -1344 
L 141 -1344 
L 141 -1601 
L 1018 -1601 
L 1018 4800 
z
" transform="scale(0.015625)"/>
      <path id="URWPalladioL-Roma-61" d="M 2074 544 
L 2042 0 
C 2458 0 2458 0 2541 0 
C 2573 19 2733 12 3014 0 
L 3014 192 
L 2765 204 
C 2611 211 2586 262 2586 576 
L 2586 1751 
C 2586 2688 2317 3027 1574 3027 
C 1299 3027 1043 2956 800 2809 
L 461 2604 
L 461 2187 
L 627 2142 
L 710 2341 
C 845 2642 909 2688 1203 2688 
C 1805 2688 2054 2450 2074 1866 
L 1440 1751 
C 570 1590 205 1289 205 730 
C 205 224 506 -64 1011 -64 
C 1126 -64 1235 -45 1280 -13 
L 2074 544 
z
M 2074 806 
C 1888 544 1485 300 1235 300 
C 979 300 755 537 755 812 
C 755 1049 883 1273 1075 1395 
C 1235 1491 1587 1580 2074 1651 
L 2074 806 
z
" transform="scale(0.015625)"/>
      <path id="URWPalladioL-Roma-6e" d="M 2624 0 
C 3014 0 3021 0 3130 0 
C 3219 19 3219 19 3661 0 
L 3661 192 
L 3398 211 
C 3181 223 3162 262 3162 670 
L 3162 1902 
C 3162 2649 2810 3014 2093 3014 
C 1856 3014 1722 2969 1587 2854 
L 1101 2432 
L 1101 2988 
L 1043 3008 
C 717 2873 384 2784 45 2746 
L 45 2568 
L 282 2568 
C 538 2568 563 2523 563 2103 
L 563 669 
C 563 268 544 223 326 211 
L 38 192 
L 38 0 
C 474 -7 646 0 832 0 
C 1018 19 1190 12 1626 0 
L 1626 192 
L 1338 211 
C 1120 223 1101 268 1101 670 
L 1101 2023 
C 1101 2311 1523 2624 1914 2624 
C 2342 2624 2624 2304 2624 1813 
L 2624 0 
z
" transform="scale(0.015625)"/>
      <path id="URWPalladioL-Roma-64" d="M 2637 2803 
C 2278 2956 2099 3008 1875 3008 
C 1702 3008 1549 2969 1389 2886 
L 826 2592 
C 461 2400 224 1934 224 1392 
C 224 881 397 460 710 204 
C 928 19 1229 -64 1645 -64 
C 1773 -64 1920 -39 1952 -13 
L 2662 581 
L 2630 0 
C 2944 -7 3046 0 3123 0 
C 3174 0 3264 0 3398 -7 
C 3443 6 3571 6 3706 0 
L 3706 192 
L 3411 211 
C 3194 224 3174 268 3174 672 
L 3174 4614 
L 3117 4665 
C 2835 4557 2624 4505 2118 4429 
L 2118 4249 
L 2477 4249 
C 2592 4249 2637 4179 2637 3987 
L 2637 2803 
z
M 2637 1424 
C 2637 1009 2624 945 2541 798 
C 2362 498 2048 300 1747 300 
C 1184 300 781 843 781 1602 
C 781 2298 1126 2707 1702 2707 
C 1946 2707 2202 2624 2426 2470 
C 2560 2381 2637 2298 2637 2247 
L 2637 1424 
z
" transform="scale(0.015625)"/>
      <path id="URWPalladioL-Ital-79" d="M -45 -1132 
C -51 -1176 -51 -1214 -51 -1245 
C -51 -1517 186 -1741 474 -1741 
C 1152 -1741 1856 -955 2234 216 
L 3136 3014 
L 3066 3072 
C 2880 3001 2733 2963 2592 2950 
L 2368 2111 
C 2291 1812 2067 1348 1856 1036 
C 1632 712 1318 432 1178 432 
C 1101 432 1043 578 1050 737 
L 1056 820 
L 1152 2053 
C 1165 2250 1178 2492 1178 2670 
C 1178 2956 1133 3072 1024 3072 
C 941 3072 851 3027 544 2816 
L 19 2460 
L 90 2346 
L 410 2537 
L 435 2556 
C 499 2594 544 2613 570 2613 
C 659 2613 710 2492 710 2282 
C 710 2276 710 2238 704 2187 
L 595 642 
L 589 388 
C 589 121 704 -64 864 -64 
C 1101 -64 1638 477 2118 1195 
L 1805 108 
C 1478 -1012 1158 -1472 710 -1472 
C 486 -1472 314 -1302 314 -1081 
C 314 -1049 320 -999 326 -942 
L 262 -917 
L -45 -1132 
z
" transform="scale(0.015625)"/>
     </defs>
     <use xlink:href="#URWPalladioL-Ital-78" transform="scale(0.996264)"/>
     <use xlink:href="#CMR10-5b" transform="translate(53.299136 0)scale(1.038107)"/>
     <use xlink:href="#URWPalladioL-Ital-6e" transform="translate(84.581835 0)scale(0.996264)"/>
     <use xlink:href="#CMR10-5d" transform="translate(142.464796 0)scale(1.038107)"/>
     <use xlink:href="#URWPalladioL-Roma-61" transform="translate(197.408795 0)scale(0.996264)"/>
     <use xlink:href="#URWPalladioL-Roma-6e" transform="translate(247.221996 0)scale(0.996264)"/>
     <use xlink:href="#URWPalladioL-Roma-64" transform="translate(305.204057 0)scale(0.996264)"/>
     <use xlink:href="#URWPalladioL-Ital-79" transform="translate(392.227587 0)scale(0.996264)"/>
     <use xlink:href="#URWPalladioL-Ital-6d" transform="translate(444.23252 -14.943915)scale(0.757155)"/>
     <use xlink:href="#CMR10-5b" transform="translate(505.829123 0)scale(1.038107)"/>
     <use xlink:href="#URWPalladioL-Ital-6e" transform="translate(537.111822 0)scale(0.996264)"/>
     <use xlink:href="#CMR10-5d" transform="translate(594.994783 0)scale(1.038107)"/>
    </g>
   </g>
  </g>
  <g id="axes_2">
   <g id="patch_3">
    <path d="M 196.178101 61.296836 
L 327.472219 61.296836 
L 327.472219 23.80718 
L 196.178101 23.80718 
L 196.178101 61.296836 
z
" style="fill: none"/>
   </g>
   <g id="matplotlib.axis_3">
    <g id="xtick_3">
     <g id="line2d_9">
      <path d="M 196.178101 61.296836 
L 196.178101 23.80718 
" clip-path="url(#p29d2502767)" style="fill: none; stroke: #000000; stroke-opacity: 0.2; stroke-width: 0.5; stroke-linecap: round"/>
     </g>
     <g id="line2d_10">
      <g>
       <use xlink:href="#ma4d3ffb786" x="196.178101" y="61.296836" style="fill-opacity: 0.2; stroke: #000000; stroke-opacity: 0.2; stroke-width: 0.5"/>
      </g>
     </g>
    </g>
    <g id="xtick_4">
     <g id="line2d_11">
      <path d="M 263.508418 61.296836 
L 263.508418 23.80718 
" clip-path="url(#p29d2502767)" style="fill: none; stroke: #000000; stroke-opacity: 0.2; stroke-width: 0.5; stroke-linecap: round"/>
     </g>
     <g id="line2d_12">
      <g>
       <use xlink:href="#ma4d3ffb786" x="263.508418" y="61.296836" style="fill-opacity: 0.2; stroke: #000000; stroke-opacity: 0.2; stroke-width: 0.5"/>
      </g>
     </g>
    </g>
   </g>
   <g id="matplotlib.axis_4">
    <g id="ytick_2">
     <g id="line2d_13">
      <path d="M 196.178101 42.552008 
L 327.472219 42.552008 
" clip-path="url(#p29d2502767)" style="fill: none; stroke: #000000; stroke-opacity: 0.2; stroke-width: 0.5; stroke-linecap: round"/>
     </g>
     <g id="line2d_14">
      <g>
       <use xlink:href="#m160272105b" x="196.178101" y="42.552008" style="fill-opacity: 0.2; stroke: #000000; stroke-opacity: 0.2; stroke-width: 0.5"/>
      </g>
     </g>
    </g>
   </g>
   <g id="line2d_15">
    <path d="M 196.178101 33.6259 
L 199.544617 33.6259 
L 199.544617 34.598787 
L 202.911133 34.598787 
L 202.911133 37.305373 
L 206.277648 37.305373 
L 206.277648 41.155657 
L 209.644164 41.155657 
L 209.644164 45.310327 
L 213.01068 45.310327 
L 213.01068 48.86372 
L 216.377196 48.86372 
L 216.377196 51.041242 
L 219.743712 51.041242 
L 219.743712 51.368221 
L 223.110228 51.368221 
L 223.110228 49.773381 
L 226.476744 49.773381 
L 226.476744 46.604376 
L 229.843259 46.604376 
L 229.843259 42.552008 
L 233.209775 42.552008 
L 233.209775 38.49964 
L 236.576291 38.49964 
L 236.576291 35.330635 
L 239.942807 35.330635 
L 239.942807 33.735795 
L 243.309323 33.735795 
L 243.309323 34.062775 
L 246.675839 34.062775 
L 246.675839 36.240296 
L 250.042354 36.240296 
L 250.042354 39.793689 
L 253.40887 39.793689 
L 253.40887 43.948359 
L 256.775386 43.948359 
L 256.775386 47.798643 
L 260.141902 47.798643 
L 260.141902 50.505229 
L 263.508418 50.505229 
L 263.508418 51.478116 
L 266.874934 51.478116 
L 266.874934 50.505229 
L 270.241449 50.505229 
L 270.241449 47.798643 
L 273.607965 47.798643 
L 273.607965 43.948359 
L 276.974481 43.948359 
L 276.974481 39.793689 
L 280.340997 39.793689 
L 280.340997 36.240296 
L 283.707513 36.240296 
L 283.707513 34.062775 
L 287.074029 34.062775 
L 287.074029 33.735795 
L 290.440544 33.735795 
L 290.440544 35.330635 
L 293.80706 35.330635 
L 293.80706 38.49964 
L 297.173576 38.49964 
L 297.173576 42.552008 
L 300.540092 42.552008 
L 300.540092 46.604376 
L 303.906608 46.604376 
L 303.906608 49.773381 
L 307.273124 49.773381 
L 307.273124 51.368221 
L 310.639639 51.368221 
L 310.639639 51.041242 
L 314.006155 51.041242 
L 314.006155 48.86372 
L 317.372671 48.86372 
L 317.372671 45.310327 
L 320.739187 45.310327 
L 320.739187 41.155657 
L 324.105703 41.155657 
L 324.105703 37.305373 
L 327.472219 37.305373 
L 327.472219 34.598787 
" clip-path="url(#p29d2502767)" style="fill: none; stroke: #6e3b87; stroke-width: 2; stroke-linecap: round"/>
   </g>
   <g id="text_3">
    <!-- $x[n] \cdot y_m[n]$ -->
    <g transform="translate(228.334592 17.80718)scale(0.14 -0.14)">
     <defs>
      <path id="CMSY10-1" d="M 1229 1619 
C 1229 1804 1075 1958 890 1958 
C 704 1958 550 1804 550 1619 
C 550 1433 704 1280 890 1280 
C 1075 1280 1229 1433 1229 1619 
z
" transform="scale(0.015625)"/>
     </defs>
     <use xlink:href="#URWPalladioL-Ital-78" transform="scale(0.996264)"/>
     <use xlink:href="#CMR10-5b" transform="translate(53.299136 0)scale(1.038107)"/>
     <use xlink:href="#URWPalladioL-Ital-6e" transform="translate(84.581835 0)scale(0.996264)"/>
     <use xlink:href="#CMR10-5d" transform="translate(142.464796 0)scale(1.038107)"/>
     <use xlink:href="#CMSY10-1" transform="translate(193.119248 0)scale(1.038107)"/>
     <use xlink:href="#URWPalladioL-Ital-79" transform="translate(243.7737 0)scale(0.996264)"/>
     <use xlink:href="#URWPalladioL-Ital-6d" transform="translate(295.778632 -14.943915)scale(0.757155)"/>
     <use xlink:href="#CMR10-5b" transform="translate(357.375236 0)scale(1.038107)"/>
     <use xlink:href="#URWPalladioL-Ital-6e" transform="translate(388.657935 0)scale(0.996264)"/>
     <use xlink:href="#CMR10-5d" transform="translate(446.540895 0)scale(1.038107)"/>
    </g>
   </g>
  </g>
  <g id="axes_3">
   <g id="patch_4">
    <path d="M 38.62516 106.284422 
L 169.919277 106.284422 
L 169.919277 68.794767 
L 38.62516 68.794767 
L 38.62516 106.284422 
z
" style="fill: none"/>
   </g>
   <g id="line2d_16">
    <path d="M 38.62516 78.395776 
L 41.991676 78.395776 
L 41.991676 78.508352 
L 45.358191 78.508352 
L 45.358191 78.843306 
L 48.724707 78.843306 
L 48.724707 79.392392 
L 52.091223 79.392392 
L 52.091223 80.14209 
L 55.457739 80.14209 
L 55.457739 81.073938 
L 58.824255 81.073938 
L 58.824255 82.164993 
L 62.190771 82.164993 
L 62.190771 83.388388 
L 65.557286 83.388388 
L 65.557286 84.713999 
L 68.923802 84.713999 
L 68.923802 86.109186 
L 72.290318 86.109186 
L 72.290318 87.539594 
L 75.656834 87.539594 
L 75.656834 88.970003 
L 79.02335 88.970003 
L 79.02335 90.36519 
L 82.389866 90.36519 
L 82.389866 91.690801 
L 85.756382 91.690801 
L 85.756382 92.914196 
L 89.122897 92.914196 
L 89.122897 94.00525 
L 92.489413 94.00525 
L 92.489413 94.937099 
L 95.855929 94.937099 
L 95.855929 95.686796 
L 99.222445 95.686796 
L 99.222445 96.235882 
L 102.588961 96.235882 
L 102.588961 96.570837 
L 105.955477 96.570837 
L 105.955477 96.683413 
L 109.321992 96.683413 
L 109.321992 96.570837 
L 112.688508 96.570837 
L 112.688508 96.235882 
L 116.055024 96.235882 
L 116.055024 95.686796 
L 119.42154 95.686796 
L 119.42154 94.937099 
L 122.788056 94.937099 
L 122.788056 94.00525 
L 126.154572 94.00525 
L 126.154572 92.914196 
L 129.521087 92.914196 
L 129.521087 91.690801 
L 132.887603 91.690801 
L 132.887603 90.36519 
L 136.254119 90.36519 
L 136.254119 88.970003 
L 139.620635 88.970003 
L 139.620635 87.539594 
L 142.987151 87.539594 
L 142.987151 86.109186 
L 146.353667 86.109186 
L 146.353667 84.713999 
L 149.720182 84.713999 
L 149.720182 83.388388 
L 153.086698 83.388388 
L 153.086698 82.164993 
L 156.453214 82.164993 
L 156.453214 81.073938 
L 159.81973 81.073938 
L 159.81973 80.14209 
L 163.186246 80.14209 
L 163.186246 79.392392 
L 166.552762 79.392392 
L 166.552762 78.843306 
L 169.919277 78.843306 
L 169.919277 78.508352 
" clip-path="url(#p0c3c29a73d)" style="fill: none; stroke: #dc2830; stroke-width: 2; stroke-linecap: round"/>
   </g>
   <g id="matplotlib.axis_5">
    <g id="xtick_5">
     <g id="line2d_17">
      <path d="M 38.62516 106.284422 
L 38.62516 68.794767 
" clip-path="url(#p0c3c29a73d)" style="fill: none; stroke: #000000; stroke-opacity: 0.2; stroke-width: 0.5; stroke-linecap: round"/>
     </g>
     <g id="line2d_18">
      <g>
       <use xlink:href="#ma4d3ffb786" x="38.62516" y="106.284422" style="fill-opacity: 0.2; stroke: #000000; stroke-opacity: 0.2; stroke-width: 0.5"/>
      </g>
     </g>
    </g>
    <g id="xtick_6">
     <g id="line2d_19">
      <path d="M 105.955477 106.284422 
L 105.955477 68.794767 
" clip-path="url(#p0c3c29a73d)" style="fill: none; stroke: #000000; stroke-opacity: 0.2; stroke-width: 0.5; stroke-linecap: round"/>
     </g>
     <g id="line2d_20">
      <g>
       <use xlink:href="#ma4d3ffb786" x="105.955477" y="106.284422" style="fill-opacity: 0.2; stroke: #000000; stroke-opacity: 0.2; stroke-width: 0.5"/>
      </g>
     </g>
    </g>
   </g>
   <g id="matplotlib.axis_6">
    <g id="ytick_3">
     <g id="line2d_21">
      <path d="M 38.62516 87.539594 
L 169.919277 87.539594 
" clip-path="url(#p0c3c29a73d)" style="fill: none; stroke: #000000; stroke-opacity: 0.2; stroke-width: 0.5; stroke-linecap: round"/>
     </g>
     <g id="line2d_22">
      <g>
       <use xlink:href="#m160272105b" x="38.62516" y="87.539594" style="fill-opacity: 0.2; stroke: #000000; stroke-opacity: 0.2; stroke-width: 0.5"/>
      </g>
     </g>
    </g>
    <g id="text_4">
     <!-- $m=1$ -->
     <g transform="translate(15.753876 103.565716)rotate(-90)scale(0.12 -0.12)">
      <defs>
       <path id="URWPalladioL-Roma-31" d="M 429 3571 
L 493 3571 
L 1318 3942 
C 1325 3949 1331 3949 1338 3949 
C 1376 3949 1389 3891 1389 3737 
L 1389 633 
C 1389 300 1318 230 973 211 
L 614 192 
L 614 0 
C 1600 0 1600 0 1670 0 
C 1754 0 1894 0 2112 -7 
C 2189 6 2413 6 2675 0 
L 2675 192 
L 2342 211 
C 1990 229 1926 299 1926 628 
L 1926 4383 
L 1837 4416 
C 1421 4199 966 4009 384 3807 
L 429 3571 
z
" transform="scale(0.015625)"/>
      </defs>
      <use xlink:href="#URWPalladioL-Ital-6d" transform="scale(0.996264)"/>
      <use xlink:href="#CMR10-3d" transform="translate(107.673966 0)scale(1.038107)"/>
      <use xlink:href="#URWPalladioL-Roma-31" transform="translate(217.289595 0)scale(0.996264)"/>
     </g>
    </g>
   </g>
   <g id="line2d_23">
    <path d="M 38.62516 78.395776 
L 41.991676 78.395776 
L 41.991676 79.392392 
L 45.358191 79.392392 
L 45.358191 82.164993 
L 48.724707 82.164993 
L 48.724707 86.109186 
L 52.091223 86.109186 
L 52.091223 90.36519 
L 55.457739 90.36519 
L 55.457739 94.00525 
L 58.824255 94.00525 
L 58.824255 96.235882 
L 62.190771 96.235882 
L 62.190771 96.570837 
L 65.557286 96.570837 
L 65.557286 94.937099 
L 68.923802 94.937099 
L 68.923802 91.690801 
L 72.290318 91.690801 
L 72.290318 87.539594 
L 75.656834 87.539594 
L 75.656834 83.388388 
L 79.02335 83.388388 
L 79.02335 80.14209 
L 82.389866 80.14209 
L 82.389866 78.508352 
L 85.756382 78.508352 
L 85.756382 78.843306 
L 89.122897 78.843306 
L 89.122897 81.073938 
L 92.489413 81.073938 
L 92.489413 84.713999 
L 95.855929 84.713999 
L 95.855929 88.970003 
L 99.222445 88.970003 
L 99.222445 92.914196 
L 102.588961 92.914196 
L 102.588961 95.686796 
L 105.955477 95.686796 
L 105.955477 96.683413 
L 109.321992 96.683413 
L 109.321992 95.686796 
L 112.688508 95.686796 
L 112.688508 92.914196 
L 116.055024 92.914196 
L 116.055024 88.970003 
L 119.42154 88.970003 
L 119.42154 84.713999 
L 122.788056 84.713999 
L 122.788056 81.073938 
L 126.154572 81.073938 
L 126.154572 78.843306 
L 129.521087 78.843306 
L 129.521087 78.508352 
L 132.887603 78.508352 
L 132.887603 80.14209 
L 136.254119 80.14209 
L 136.254119 83.388388 
L 139.620635 83.388388 
L 139.620635 87.539594 
L 142.987151 87.539594 
L 142.987151 91.690801 
L 146.353667 91.690801 
L 146.353667 94.937099 
L 149.720182 94.937099 
L 149.720182 96.570837 
L 153.086698 96.570837 
L 153.086698 96.235882 
L 156.453214 96.235882 
L 156.453214 94.00525 
L 159.81973 94.00525 
L 159.81973 90.36519 
L 163.186246 90.36519 
L 163.186246 86.109186 
L 166.552762 86.109186 
L 166.552762 82.164993 
L 169.919277 82.164993 
L 169.919277 79.392392 
" clip-path="url(#p0c3c29a73d)" style="fill: none; stroke: #0271ae; stroke-width: 2; stroke-linecap: round"/>
   </g>
  </g>
  <g id="axes_4">
   <g id="patch_5">
    <path d="M 196.178101 106.284422 
L 327.472219 106.284422 
L 327.472219 68.794767 
L 196.178101 68.794767 
L 196.178101 106.284422 
z
" style="fill: none"/>
   </g>
   <g id="matplotlib.axis_7">
    <g id="xtick_7">
     <g id="line2d_24">
      <path d="M 196.178101 106.284422 
L 196.178101 68.794767 
" clip-path="url(#p2d153948e1)" style="fill: none; stroke: #000000; stroke-opacity: 0.2; stroke-width: 0.5; stroke-linecap: round"/>
     </g>
     <g id="line2d_25">
      <g>
       <use xlink:href="#ma4d3ffb786" x="196.178101" y="106.284422" style="fill-opacity: 0.2; stroke: #000000; stroke-opacity: 0.2; stroke-width: 0.5"/>
      </g>
     </g>
    </g>
    <g id="xtick_8">
     <g id="line2d_26">
      <path d="M 263.508418 106.284422 
L 263.508418 68.794767 
" clip-path="url(#p2d153948e1)" style="fill: none; stroke: #000000; stroke-opacity: 0.2; stroke-width: 0.5; stroke-linecap: round"/>
     </g>
     <g id="line2d_27">
      <g>
       <use xlink:href="#ma4d3ffb786" x="263.508418" y="106.284422" style="fill-opacity: 0.2; stroke: #000000; stroke-opacity: 0.2; stroke-width: 0.5"/>
      </g>
     </g>
    </g>
   </g>
   <g id="matplotlib.axis_8">
    <g id="ytick_4">
     <g id="line2d_28">
      <path d="M 196.178101 87.539594 
L 327.472219 87.539594 
" clip-path="url(#p2d153948e1)" style="fill: none; stroke: #000000; stroke-opacity: 0.2; stroke-width: 0.5; stroke-linecap: round"/>
     </g>
     <g id="line2d_29">
      <g>
       <use xlink:href="#m160272105b" x="196.178101" y="87.539594" style="fill-opacity: 0.2; stroke: #000000; stroke-opacity: 0.2; stroke-width: 0.5"/>
      </g>
     </g>
    </g>
   </g>
   <g id="line2d_30">
    <path d="M 196.178101 78.613486 
L 199.544617 78.613486 
L 199.544617 79.684291 
L 202.911133 79.684291 
L 202.911133 82.549748 
L 206.277648 82.549748 
L 206.277648 86.295436 
L 209.644164 86.295436 
L 209.644164 89.771121 
L 213.01068 89.771121 
L 213.01068 92.002648 
L 216.377196 92.002648 
L 216.377196 92.529441 
L 219.743712 92.529441 
L 219.743712 91.542071 
L 223.110228 91.542071 
L 223.110228 89.771121 
L 226.476744 89.771121 
L 226.476744 88.173524 
L 229.843259 88.173524 
L 229.843259 87.539594 
L 233.209775 87.539594 
L 233.209775 88.173524 
L 236.576291 88.173524 
L 236.576291 89.771121 
L 239.942807 89.771121 
L 239.942807 91.542071 
L 243.309323 91.542071 
L 243.309323 92.529441 
L 246.675839 92.529441 
L 246.675839 92.002648 
L 250.042354 92.002648 
L 250.042354 89.771121 
L 253.40887 89.771121 
L 253.40887 86.295436 
L 256.775386 86.295436 
L 256.775386 82.549748 
L 260.141902 82.549748 
L 260.141902 79.684291 
L 263.508418 79.684291 
L 263.508418 78.613486 
L 266.874934 78.613486 
L 266.874934 79.684291 
L 270.241449 79.684291 
L 270.241449 82.549748 
L 273.607965 82.549748 
L 273.607965 86.295436 
L 276.974481 86.295436 
L 276.974481 89.771121 
L 280.340997 89.771121 
L 280.340997 92.002648 
L 283.707513 92.002648 
L 283.707513 92.529441 
L 287.074029 92.529441 
L 287.074029 91.542071 
L 290.440544 91.542071 
L 290.440544 89.771121 
L 293.80706 89.771121 
L 293.80706 88.173524 
L 297.173576 88.173524 
L 297.173576 87.539594 
L 300.540092 87.539594 
L 300.540092 88.173524 
L 303.906608 88.173524 
L 303.906608 89.771121 
L 307.273124 89.771121 
L 307.273124 91.542071 
L 310.639639 91.542071 
L 310.639639 92.529441 
L 314.006155 92.529441 
L 314.006155 92.002648 
L 317.372671 92.002648 
L 317.372671 89.771121 
L 320.739187 89.771121 
L 320.739187 86.295436 
L 324.105703 86.295436 
L 324.105703 82.549748 
L 327.472219 82.549748 
L 327.472219 79.684291 
" clip-path="url(#p2d153948e1)" style="fill: none; stroke: #6e3b87; stroke-width: 2; stroke-linecap: round"/>
   </g>
  </g>
  <g id="axes_5">
   <g id="patch_6">
    <path d="M 38.62516 151.272008 
L 169.919277 151.272008 
L 169.919277 113.782353 
L 38.62516 113.782353 
L 38.62516 151.272008 
z
" style="fill: none"/>
   </g>
   <g id="line2d_31">
    <path d="M 38.62516 123.383362 
L 41.991676 123.383362 
L 41.991676 123.830892 
L 45.358191 123.830892 
L 45.358191 125.129676 
L 48.724707 125.129676 
L 48.724707 127.152579 
L 52.091223 127.152579 
L 52.091223 129.701585 
L 55.457739 129.701585 
L 55.457739 132.52718 
L 58.824255 132.52718 
L 58.824255 135.352776 
L 62.190771 135.352776 
L 62.190771 137.901782 
L 65.557286 137.901782 
L 65.557286 139.924685 
L 68.923802 139.924685 
L 68.923802 141.223468 
L 72.290318 141.223468 
L 72.290318 141.670999 
L 75.656834 141.670999 
L 75.656834 141.223468 
L 79.02335 141.223468 
L 79.02335 139.924685 
L 82.389866 139.924685 
L 82.389866 137.901782 
L 85.756382 137.901782 
L 85.756382 135.352776 
L 89.122897 135.352776 
L 89.122897 132.52718 
L 92.489413 132.52718 
L 92.489413 129.701585 
L 95.855929 129.701585 
L 95.855929 127.152579 
L 99.222445 127.152579 
L 99.222445 125.129676 
L 102.588961 125.129676 
L 102.588961 123.830892 
L 105.955477 123.830892 
L 105.955477 123.383362 
L 109.321992 123.383362 
L 109.321992 123.830892 
L 112.688508 123.830892 
L 112.688508 125.129676 
L 116.055024 125.129676 
L 116.055024 127.152579 
L 119.42154 127.152579 
L 119.42154 129.701585 
L 122.788056 129.701585 
L 122.788056 132.52718 
L 126.154572 132.52718 
L 126.154572 135.352776 
L 129.521087 135.352776 
L 129.521087 137.901782 
L 132.887603 137.901782 
L 132.887603 139.924685 
L 136.254119 139.924685 
L 136.254119 141.223468 
L 139.620635 141.223468 
L 139.620635 141.670999 
L 142.987151 141.670999 
L 142.987151 141.223468 
L 146.353667 141.223468 
L 146.353667 139.924685 
L 149.720182 139.924685 
L 149.720182 137.901782 
L 153.086698 137.901782 
L 153.086698 135.352776 
L 156.453214 135.352776 
L 156.453214 132.52718 
L 159.81973 132.52718 
L 159.81973 129.701585 
L 163.186246 129.701585 
L 163.186246 127.152579 
L 166.552762 127.152579 
L 166.552762 125.129676 
L 169.919277 125.129676 
L 169.919277 123.830892 
" clip-path="url(#pf3f2838464)" style="fill: none; stroke: #dc2830; stroke-width: 2; stroke-linecap: round"/>
   </g>
   <g id="matplotlib.axis_9">
    <g id="xtick_9">
     <g id="line2d_32">
      <path d="M 38.62516 151.272008 
L 38.62516 113.782353 
" clip-path="url(#pf3f2838464)" style="fill: none; stroke: #000000; stroke-opacity: 0.2; stroke-width: 0.5; stroke-linecap: round"/>
     </g>
     <g id="line2d_33">
      <g>
       <use xlink:href="#ma4d3ffb786" x="38.62516" y="151.272008" style="fill-opacity: 0.2; stroke: #000000; stroke-opacity: 0.2; stroke-width: 0.5"/>
      </g>
     </g>
    </g>
    <g id="xtick_10">
     <g id="line2d_34">
      <path d="M 105.955477 151.272008 
L 105.955477 113.782353 
" clip-path="url(#pf3f2838464)" style="fill: none; stroke: #000000; stroke-opacity: 0.2; stroke-width: 0.5; stroke-linecap: round"/>
     </g>
     <g id="line2d_35">
      <g>
       <use xlink:href="#ma4d3ffb786" x="105.955477" y="151.272008" style="fill-opacity: 0.2; stroke: #000000; stroke-opacity: 0.2; stroke-width: 0.5"/>
      </g>
     </g>
    </g>
   </g>
   <g id="matplotlib.axis_10">
    <g id="ytick_5">
     <g id="line2d_36">
      <path d="M 38.62516 132.52718 
L 169.919277 132.52718 
" clip-path="url(#pf3f2838464)" style="fill: none; stroke: #000000; stroke-opacity: 0.2; stroke-width: 0.5; stroke-linecap: round"/>
     </g>
     <g id="line2d_37">
      <g>
       <use xlink:href="#m160272105b" x="38.62516" y="132.52718" style="fill-opacity: 0.2; stroke: #000000; stroke-opacity: 0.2; stroke-width: 0.5"/>
      </g>
     </g>
    </g>
    <g id="text_5">
     <!-- $m=2$ -->
     <g transform="translate(15.753876 148.553302)rotate(-90)scale(0.12 -0.12)">
      <defs>
       <path id="URWPalladioL-Roma-32" d="M 102 166 
L 102 0 
C 1299 0 1299 0 1530 0 
C 1760 19 1760 19 2995 0 
C 2982 134 2982 198 2982 287 
C 2982 370 2982 434 2995 574 
C 2259 542 1965 536 781 510 
L 1946 1741 
C 2566 2398 2758 2749 2758 3228 
C 2758 3961 2259 4416 1446 4416 
C 986 4416 672 4287 358 3967 
L 250 3100 
L 435 3100 
L 518 3394 
C 621 3763 851 3923 1280 3923 
C 1830 3923 2182 3578 2182 3036 
C 2182 2558 1914 2086 1190 1320 
L 102 166 
z
" transform="scale(0.015625)"/>
      </defs>
      <use xlink:href="#URWPalladioL-Ital-6d" transform="scale(0.996264)"/>
      <use xlink:href="#CMR10-3d" transform="translate(107.673966 0)scale(1.038107)"/>
      <use xlink:href="#URWPalladioL-Roma-32" transform="translate(217.289595 0)scale(0.996264)"/>
     </g>
    </g>
   </g>
   <g id="line2d_38">
    <path d="M 38.62516 123.383362 
L 41.991676 123.383362 
L 41.991676 124.379979 
L 45.358191 124.379979 
L 45.358191 127.152579 
L 48.724707 127.152579 
L 48.724707 131.096772 
L 52.091223 131.096772 
L 52.091223 135.352776 
L 55.457739 135.352776 
L 55.457739 138.992836 
L 58.824255 138.992836 
L 58.824255 141.223468 
L 62.190771 141.223468 
L 62.190771 141.558423 
L 65.557286 141.558423 
L 65.557286 139.924685 
L 68.923802 139.924685 
L 68.923802 136.678387 
L 72.290318 136.678387 
L 72.290318 132.52718 
L 75.656834 132.52718 
L 75.656834 128.375974 
L 79.02335 128.375974 
L 79.02335 125.129676 
L 82.389866 125.129676 
L 82.389866 123.495938 
L 85.756382 123.495938 
L 85.756382 123.830892 
L 89.122897 123.830892 
L 89.122897 126.061525 
L 92.489413 126.061525 
L 92.489413 129.701585 
L 95.855929 129.701585 
L 95.855929 133.957589 
L 99.222445 133.957589 
L 99.222445 137.901782 
L 102.588961 137.901782 
L 102.588961 140.674382 
L 105.955477 140.674382 
L 105.955477 141.670999 
L 109.321992 141.670999 
L 109.321992 140.674382 
L 112.688508 140.674382 
L 112.688508 137.901782 
L 116.055024 137.901782 
L 116.055024 133.957589 
L 119.42154 133.957589 
L 119.42154 129.701585 
L 122.788056 129.701585 
L 122.788056 126.061525 
L 126.154572 126.061525 
L 126.154572 123.830892 
L 129.521087 123.830892 
L 129.521087 123.495938 
L 132.887603 123.495938 
L 132.887603 125.129676 
L 136.254119 125.129676 
L 136.254119 128.375974 
L 139.620635 128.375974 
L 139.620635 132.52718 
L 142.987151 132.52718 
L 142.987151 136.678387 
L 146.353667 136.678387 
L 146.353667 139.924685 
L 149.720182 139.924685 
L 149.720182 141.558423 
L 153.086698 141.558423 
L 153.086698 141.223468 
L 156.453214 141.223468 
L 156.453214 138.992836 
L 159.81973 138.992836 
L 159.81973 135.352776 
L 163.186246 135.352776 
L 163.186246 131.096772 
L 166.552762 131.096772 
L 166.552762 127.152579 
L 169.919277 127.152579 
L 169.919277 124.379979 
" clip-path="url(#pf3f2838464)" style="fill: none; stroke: #0271ae; stroke-width: 2; stroke-linecap: round"/>
   </g>
  </g>
  <g id="axes_6">
   <g id="patch_7">
    <path d="M 196.178101 151.272008 
L 327.472219 151.272008 
L 327.472219 113.782353 
L 196.178101 113.782353 
L 196.178101 151.272008 
z
" style="fill: none"/>
   </g>
   <g id="matplotlib.axis_11">
    <g id="xtick_11">
     <g id="line2d_39">
      <path d="M 196.178101 151.272008 
L 196.178101 113.782353 
" clip-path="url(#pbd235d0e32)" style="fill: none; stroke: #000000; stroke-opacity: 0.2; stroke-width: 0.5; stroke-linecap: round"/>
     </g>
     <g id="line2d_40">
      <g>
       <use xlink:href="#ma4d3ffb786" x="196.178101" y="151.272008" style="fill-opacity: 0.2; stroke: #000000; stroke-opacity: 0.2; stroke-width: 0.5"/>
      </g>
     </g>
    </g>
    <g id="xtick_12">
     <g id="line2d_41">
      <path d="M 263.508418 151.272008 
L 263.508418 113.782353 
" clip-path="url(#pbd235d0e32)" style="fill: none; stroke: #000000; stroke-opacity: 0.2; stroke-width: 0.5; stroke-linecap: round"/>
     </g>
     <g id="line2d_42">
      <g>
       <use xlink:href="#ma4d3ffb786" x="263.508418" y="151.272008" style="fill-opacity: 0.2; stroke: #000000; stroke-opacity: 0.2; stroke-width: 0.5"/>
      </g>
     </g>
    </g>
   </g>
   <g id="matplotlib.axis_12">
    <g id="ytick_6">
     <g id="line2d_43">
      <path d="M 196.178101 132.52718 
L 327.472219 132.52718 
" clip-path="url(#pbd235d0e32)" style="fill: none; stroke: #000000; stroke-opacity: 0.2; stroke-width: 0.5; stroke-linecap: round"/>
     </g>
     <g id="line2d_44">
      <g>
       <use xlink:href="#m160272105b" x="196.178101" y="132.52718" style="fill-opacity: 0.2; stroke: #000000; stroke-opacity: 0.2; stroke-width: 0.5"/>
      </g>
     </g>
    </g>
   </g>
   <g id="line2d_45">
    <path d="M 196.178101 123.601072 
L 199.544617 123.601072 
L 199.544617 124.963218 
L 202.911133 124.963218 
L 202.911133 128.282564 
L 206.277648 128.282564 
L 206.277648 131.706426 
L 209.644164 131.706426 
L 209.644164 133.379548 
L 213.01068 133.379548 
L 213.01068 132.52718 
L 216.377196 132.52718 
L 216.377196 129.903863 
L 219.743712 129.903863 
L 219.743712 127.34514 
L 223.110228 127.34514 
L 223.110228 126.684967 
L 226.476744 126.684967 
L 226.476744 128.673149 
L 229.843259 128.673149 
L 229.843259 132.52718 
L 233.209775 132.52718 
L 233.209775 136.381212 
L 236.576291 136.381212 
L 236.576291 138.369394 
L 239.942807 138.369394 
L 239.942807 137.709221 
L 243.309323 137.709221 
L 243.309323 135.150498 
L 246.675839 135.150498 
L 246.675839 132.52718 
L 250.042354 132.52718 
L 250.042354 131.674813 
L 253.40887 131.674813 
L 253.40887 133.347935 
L 256.775386 133.347935 
L 256.775386 136.771797 
L 260.141902 136.771797 
L 260.141902 140.091143 
L 263.508418 140.091143 
L 263.508418 141.453289 
L 266.874934 141.453289 
L 266.874934 140.091143 
L 270.241449 140.091143 
L 270.241449 136.771797 
L 273.607965 136.771797 
L 273.607965 133.347935 
L 276.974481 133.347935 
L 276.974481 131.674813 
L 280.340997 131.674813 
L 280.340997 132.52718 
L 283.707513 132.52718 
L 283.707513 135.150498 
L 287.074029 135.150498 
L 287.074029 137.709221 
L 290.440544 137.709221 
L 290.440544 138.369394 
L 293.80706 138.369394 
L 293.80706 136.381212 
L 297.173576 136.381212 
L 297.173576 132.52718 
L 300.540092 132.52718 
L 300.540092 128.673149 
L 303.906608 128.673149 
L 303.906608 126.684967 
L 307.273124 126.684967 
L 307.273124 127.34514 
L 310.639639 127.34514 
L 310.639639 129.903863 
L 314.006155 129.903863 
L 314.006155 132.52718 
L 317.372671 132.52718 
L 317.372671 133.379548 
L 320.739187 133.379548 
L 320.739187 131.706426 
L 324.105703 131.706426 
L 324.105703 128.282564 
L 327.472219 128.282564 
L 327.472219 124.963218 
" clip-path="url(#pbd235d0e32)" style="fill: none; stroke: #6e3b87; stroke-width: 2; stroke-linecap: round"/>
   </g>
  </g>
  <g id="axes_7">
   <g id="patch_8">
    <path d="M 38.62516 196.259594 
L 169.919277 196.259594 
L 169.919277 158.769939 
L 38.62516 158.769939 
L 38.62516 196.259594 
z
" style="fill: none"/>
   </g>
   <g id="line2d_46">
    <path d="M 38.62516 168.370948 
L 41.991676 168.370948 
L 41.991676 169.367565 
L 45.358191 169.367565 
L 45.358191 172.140165 
L 48.724707 172.140165 
L 48.724707 176.084358 
L 52.091223 176.084358 
L 52.091223 180.340362 
L 55.457739 180.340362 
L 55.457739 183.980423 
L 58.824255 183.980423 
L 58.824255 186.211055 
L 62.190771 186.211055 
L 62.190771 186.546009 
L 65.557286 186.546009 
L 65.557286 184.912271 
L 68.923802 184.912271 
L 68.923802 181.665973 
L 72.290318 181.665973 
L 72.290318 177.514767 
L 75.656834 177.514767 
L 75.656834 173.36356 
L 79.02335 173.36356 
L 79.02335 170.117262 
L 82.389866 170.117262 
L 82.389866 168.483524 
L 85.756382 168.483524 
L 85.756382 168.818479 
L 89.122897 168.818479 
L 89.122897 171.049111 
L 92.489413 171.049111 
L 92.489413 174.689171 
L 95.855929 174.689171 
L 95.855929 178.945175 
L 99.222445 178.945175 
L 99.222445 182.889368 
L 102.588961 182.889368 
L 102.588961 185.661968 
L 105.955477 185.661968 
L 105.955477 186.658585 
L 109.321992 186.658585 
L 109.321992 185.661968 
L 112.688508 185.661968 
L 112.688508 182.889368 
L 116.055024 182.889368 
L 116.055024 178.945175 
L 119.42154 178.945175 
L 119.42154 174.689171 
L 122.788056 174.689171 
L 122.788056 171.049111 
L 126.154572 171.049111 
L 126.154572 168.818479 
L 129.521087 168.818479 
L 129.521087 168.483524 
L 132.887603 168.483524 
L 132.887603 170.117262 
L 136.254119 170.117262 
L 136.254119 173.36356 
L 139.620635 173.36356 
L 139.620635 177.514767 
L 142.987151 177.514767 
L 142.987151 181.665973 
L 146.353667 181.665973 
L 146.353667 184.912271 
L 149.720182 184.912271 
L 149.720182 186.546009 
L 153.086698 186.546009 
L 153.086698 186.211055 
L 156.453214 186.211055 
L 156.453214 183.980423 
L 159.81973 183.980423 
L 159.81973 180.340362 
L 163.186246 180.340362 
L 163.186246 176.084358 
L 166.552762 176.084358 
L 166.552762 172.140165 
L 169.919277 172.140165 
L 169.919277 169.367565 
" clip-path="url(#pbeef6a6c4a)" style="fill: none; stroke: #dc2830; stroke-width: 2; stroke-linecap: round"/>
   </g>
   <g id="matplotlib.axis_13">
    <g id="xtick_13">
     <g id="line2d_47">
      <path d="M 38.62516 196.259594 
L 38.62516 158.769939 
" clip-path="url(#pbeef6a6c4a)" style="fill: none; stroke: #000000; stroke-opacity: 0.2; stroke-width: 0.5; stroke-linecap: round"/>
     </g>
     <g id="line2d_48">
      <g>
       <use xlink:href="#ma4d3ffb786" x="38.62516" y="196.259594" style="fill-opacity: 0.2; stroke: #000000; stroke-opacity: 0.2; stroke-width: 0.5"/>
      </g>
     </g>
    </g>
    <g id="xtick_14">
     <g id="line2d_49">
      <path d="M 105.955477 196.259594 
L 105.955477 158.769939 
" clip-path="url(#pbeef6a6c4a)" style="fill: none; stroke: #000000; stroke-opacity: 0.2; stroke-width: 0.5; stroke-linecap: round"/>
     </g>
     <g id="line2d_50">
      <g>
       <use xlink:href="#ma4d3ffb786" x="105.955477" y="196.259594" style="fill-opacity: 0.2; stroke: #000000; stroke-opacity: 0.2; stroke-width: 0.5"/>
      </g>
     </g>
    </g>
   </g>
   <g id="matplotlib.axis_14">
    <g id="ytick_7">
     <g id="line2d_51">
      <path d="M 38.62516 177.514767 
L 169.919277 177.514767 
" clip-path="url(#pbeef6a6c4a)" style="fill: none; stroke: #000000; stroke-opacity: 0.2; stroke-width: 0.5; stroke-linecap: round"/>
     </g>
     <g id="line2d_52">
      <g>
       <use xlink:href="#m160272105b" x="38.62516" y="177.514767" style="fill-opacity: 0.2; stroke: #000000; stroke-opacity: 0.2; stroke-width: 0.5"/>
      </g>
     </g>
    </g>
    <g id="text_6">
     <!-- $m=3$ -->
     <g transform="translate(15.753876 193.540889)rotate(-90)scale(0.12 -0.12)">
      <defs>
       <path id="URWPalladioL-Roma-33" d="M 275 3196 
L 474 3196 
L 589 3553 
C 659 3770 1062 3987 1395 3987 
C 1811 3987 2150 3649 2150 3247 
C 2150 2769 1773 2368 1318 2368 
C 1267 2368 1197 2374 1114 2380 
L 1018 2387 
L 941 2047 
L 986 2008 
C 1229 2118 1350 2150 1523 2150 
C 2054 2150 2362 1808 2362 1222 
C 2362 565 1971 134 1376 134 
C 1082 134 819 231 627 411 
C 474 553 390 701 269 1048 
L 96 984 
C 230 591 282 359 320 38 
C 659 -77 941 -128 1178 -128 
C 1690 -128 2278 160 2630 591 
C 2848 855 2957 1139 2957 1441 
C 2957 1750 2829 2021 2598 2182 
C 2438 2297 2291 2348 1971 2406 
C 2483 2801 2675 3094 2675 3470 
C 2675 4038 2202 4416 1491 4416 
C 1056 4416 768 4294 461 3987 
L 275 3196 
z
" transform="scale(0.015625)"/>
      </defs>
      <use xlink:href="#URWPalladioL-Ital-6d" transform="scale(0.996264)"/>
      <use xlink:href="#CMR10-3d" transform="translate(107.673966 0)scale(1.038107)"/>
      <use xlink:href="#URWPalladioL-Roma-33" transform="translate(217.289595 0)scale(0.996264)"/>
     </g>
    </g>
   </g>
   <g id="line2d_53">
    <path d="M 38.62516 168.370948 
L 41.991676 168.370948 
L 41.991676 169.367565 
L 45.358191 169.367565 
L 45.358191 172.140165 
L 48.724707 172.140165 
L 48.724707 176.084358 
L 52.091223 176.084358 
L 52.091223 180.340362 
L 55.457739 180.340362 
L 55.457739 183.980423 
L 58.824255 183.980423 
L 58.824255 186.211055 
L 62.190771 186.211055 
L 62.190771 186.546009 
L 65.557286 186.546009 
L 65.557286 184.912271 
L 68.923802 184.912271 
L 68.923802 181.665973 
L 72.290318 181.665973 
L 72.290318 177.514767 
L 75.656834 177.514767 
L 75.656834 173.36356 
L 79.02335 173.36356 
L 79.02335 170.117262 
L 82.389866 170.117262 
L 82.389866 168.483524 
L 85.756382 168.483524 
L 85.756382 168.818479 
L 89.122897 168.818479 
L 89.122897 171.049111 
L 92.489413 171.049111 
L 92.489413 174.689171 
L 95.855929 174.689171 
L 95.855929 178.945175 
L 99.222445 178.945175 
L 99.222445 182.889368 
L 102.588961 182.889368 
L 102.588961 185.661968 
L 105.955477 185.661968 
L 105.955477 186.658585 
L 109.321992 186.658585 
L 109.321992 185.661968 
L 112.688508 185.661968 
L 112.688508 182.889368 
L 116.055024 182.889368 
L 116.055024 178.945175 
L 119.42154 178.945175 
L 119.42154 174.689171 
L 122.788056 174.689171 
L 122.788056 171.049111 
L 126.154572 171.049111 
L 126.154572 168.818479 
L 129.521087 168.818479 
L 129.521087 168.483524 
L 132.887603 168.483524 
L 132.887603 170.117262 
L 136.254119 170.117262 
L 136.254119 173.36356 
L 139.620635 173.36356 
L 139.620635 177.514767 
L 142.987151 177.514767 
L 142.987151 181.665973 
L 146.353667 181.665973 
L 146.353667 184.912271 
L 149.720182 184.912271 
L 149.720182 186.546009 
L 153.086698 186.546009 
L 153.086698 186.211055 
L 156.453214 186.211055 
L 156.453214 183.980423 
L 159.81973 183.980423 
L 159.81973 180.340362 
L 163.186246 180.340362 
L 163.186246 176.084358 
L 166.552762 176.084358 
L 166.552762 172.140165 
L 169.919277 172.140165 
L 169.919277 169.367565 
" clip-path="url(#pbeef6a6c4a)" style="fill: none; stroke: #0271ae; stroke-width: 2; stroke-linecap: round"/>
   </g>
  </g>
  <g id="axes_8">
   <g id="patch_9">
    <path d="M 196.178101 196.259594 
L 327.472219 196.259594 
L 327.472219 158.769939 
L 196.178101 158.769939 
L 196.178101 196.259594 
z
" style="fill: none"/>
   </g>
   <g id="matplotlib.axis_15">
    <g id="xtick_15">
     <g id="line2d_54">
      <path d="M 196.178101 196.259594 
L 196.178101 158.769939 
" clip-path="url(#p1b7a66f571)" style="fill: none; stroke: #000000; stroke-opacity: 0.2; stroke-width: 0.5; stroke-linecap: round"/>
     </g>
     <g id="line2d_55">
      <g>
       <use xlink:href="#ma4d3ffb786" x="196.178101" y="196.259594" style="fill-opacity: 0.2; stroke: #000000; stroke-opacity: 0.2; stroke-width: 0.5"/>
      </g>
     </g>
    </g>
    <g id="xtick_16">
     <g id="line2d_56">
      <path d="M 263.508418 196.259594 
L 263.508418 158.769939 
" clip-path="url(#p1b7a66f571)" style="fill: none; stroke: #000000; stroke-opacity: 0.2; stroke-width: 0.5; stroke-linecap: round"/>
     </g>
     <g id="line2d_57">
      <g>
       <use xlink:href="#ma4d3ffb786" x="263.508418" y="196.259594" style="fill-opacity: 0.2; stroke: #000000; stroke-opacity: 0.2; stroke-width: 0.5"/>
      </g>
     </g>
    </g>
   </g>
   <g id="matplotlib.axis_16">
    <g id="ytick_8">
     <g id="line2d_58">
      <path d="M 196.178101 177.514767 
L 327.472219 177.514767 
" clip-path="url(#p1b7a66f571)" style="fill: none; stroke: #000000; stroke-opacity: 0.2; stroke-width: 0.5; stroke-linecap: round"/>
     </g>
     <g id="line2d_59">
      <g>
       <use xlink:href="#m160272105b" x="196.178101" y="177.514767" style="fill-opacity: 0.2; stroke: #000000; stroke-opacity: 0.2; stroke-width: 0.5"/>
      </g>
     </g>
    </g>
   </g>
   <g id="line2d_60">
    <path d="M 196.178101 168.588658 
L 199.544617 168.588658 
L 199.544617 170.428395 
L 202.911133 170.428395 
L 202.911133 174.430872 
L 206.277648 174.430872 
L 206.277648 177.296329 
L 209.644164 177.296329 
L 209.644164 176.662399 
L 213.01068 176.662399 
L 213.01068 173.051712 
L 216.377196 173.051712 
L 216.377196 169.441026 
L 219.743712 169.441026 
L 219.743712 168.807096 
L 223.110228 168.807096 
L 223.110228 171.672553 
L 226.476744 171.672553 
L 226.476744 175.67503 
L 229.843259 175.67503 
L 229.843259 177.514767 
L 233.209775 177.514767 
L 233.209775 175.67503 
L 236.576291 175.67503 
L 236.576291 171.672553 
L 239.942807 171.672553 
L 239.942807 168.807096 
L 243.309323 168.807096 
L 243.309323 169.441026 
L 246.675839 169.441026 
L 246.675839 173.051712 
L 250.042354 173.051712 
L 250.042354 176.662399 
L 253.40887 176.662399 
L 253.40887 177.296329 
L 256.775386 177.296329 
L 256.775386 174.430872 
L 260.141902 174.430872 
L 260.141902 170.428395 
L 263.508418 170.428395 
L 263.508418 168.588658 
L 266.874934 168.588658 
L 266.874934 170.428395 
L 270.241449 170.428395 
L 270.241449 174.430872 
L 273.607965 174.430872 
L 273.607965 177.296329 
L 276.974481 177.296329 
L 276.974481 176.662399 
L 280.340997 176.662399 
L 280.340997 173.051712 
L 283.707513 173.051712 
L 283.707513 169.441026 
L 287.074029 169.441026 
L 287.074029 168.807096 
L 290.440544 168.807096 
L 290.440544 171.672553 
L 293.80706 171.672553 
L 293.80706 175.67503 
L 297.173576 175.67503 
L 297.173576 177.514767 
L 300.540092 177.514767 
L 300.540092 175.67503 
L 303.906608 175.67503 
L 303.906608 171.672553 
L 307.273124 171.672553 
L 307.273124 168.807096 
L 310.639639 168.807096 
L 310.639639 169.441026 
L 314.006155 169.441026 
L 314.006155 173.051712 
L 317.372671 173.051712 
L 317.372671 176.662399 
L 320.739187 176.662399 
L 320.739187 177.296329 
L 324.105703 177.296329 
L 324.105703 174.430872 
L 327.472219 174.430872 
L 327.472219 170.428395 
" clip-path="url(#p1b7a66f571)" style="fill: none; stroke: #6e3b87; stroke-width: 2; stroke-linecap: round"/>
   </g>
  </g>
  <g id="axes_9">
   <g id="patch_10">
    <path d="M 38.62516 241.24718 
L 169.919277 241.24718 
L 169.919277 203.757525 
L 38.62516 203.757525 
L 38.62516 241.24718 
z
" style="fill: none"/>
   </g>
   <g id="line2d_61">
    <path d="M 38.62516 213.358535 
L 41.991676 213.358535 
L 41.991676 215.104848 
L 45.358191 215.104848 
L 45.358191 219.676758 
L 48.724707 219.676758 
L 48.724707 225.327948 
L 52.091223 225.327948 
L 52.091223 229.899857 
L 55.457739 229.899857 
L 55.457739 231.646171 
L 58.824255 231.646171 
L 58.824255 229.899857 
L 62.190771 229.899857 
L 62.190771 225.327948 
L 65.557286 225.327948 
L 65.557286 219.676758 
L 68.923802 219.676758 
L 68.923802 215.104848 
L 72.290318 215.104848 
L 72.290318 213.358535 
L 75.656834 213.358535 
L 75.656834 215.104848 
L 79.02335 215.104848 
L 79.02335 219.676758 
L 82.389866 219.676758 
L 82.389866 225.327948 
L 85.756382 225.327948 
L 85.756382 229.899857 
L 89.122897 229.899857 
L 89.122897 231.646171 
L 92.489413 231.646171 
L 92.489413 229.899857 
L 95.855929 229.899857 
L 95.855929 225.327948 
L 99.222445 225.327948 
L 99.222445 219.676758 
L 102.588961 219.676758 
L 102.588961 215.104848 
L 105.955477 215.104848 
L 105.955477 213.358535 
L 109.321992 213.358535 
L 109.321992 215.104848 
L 112.688508 215.104848 
L 112.688508 219.676758 
L 116.055024 219.676758 
L 116.055024 225.327948 
L 119.42154 225.327948 
L 119.42154 229.899857 
L 122.788056 229.899857 
L 122.788056 231.646171 
L 126.154572 231.646171 
L 126.154572 229.899857 
L 129.521087 229.899857 
L 129.521087 225.327948 
L 132.887603 225.327948 
L 132.887603 219.676758 
L 136.254119 219.676758 
L 136.254119 215.104848 
L 139.620635 215.104848 
L 139.620635 213.358535 
L 142.987151 213.358535 
L 142.987151 215.104848 
L 146.353667 215.104848 
L 146.353667 219.676758 
L 149.720182 219.676758 
L 149.720182 225.327948 
L 153.086698 225.327948 
L 153.086698 229.899857 
L 156.453214 229.899857 
L 156.453214 231.646171 
L 159.81973 231.646171 
L 159.81973 229.899857 
L 163.186246 229.899857 
L 163.186246 225.327948 
L 166.552762 225.327948 
L 166.552762 219.676758 
L 169.919277 219.676758 
L 169.919277 215.104848 
" clip-path="url(#pb5ebc59f35)" style="fill: none; stroke: #dc2830; stroke-width: 2; stroke-linecap: round"/>
   </g>
   <g id="matplotlib.axis_17">
    <g id="xtick_17">
     <g id="line2d_62">
      <path d="M 38.62516 241.24718 
L 38.62516 203.757525 
" clip-path="url(#pb5ebc59f35)" style="fill: none; stroke: #000000; stroke-opacity: 0.2; stroke-width: 0.5; stroke-linecap: round"/>
     </g>
     <g id="line2d_63">
      <g>
       <use xlink:href="#ma4d3ffb786" x="38.62516" y="241.24718" style="fill-opacity: 0.2; stroke: #000000; stroke-opacity: 0.2; stroke-width: 0.5"/>
      </g>
     </g>
     <g id="text_7">
      <!-- $\mathdefault{0}$ -->
      <g transform="translate(35.138236 266.72671)scale(0.14 -0.14)">
       <use xlink:href="#URWPalladioL-Roma-30" transform="scale(0.996264)"/>
      </g>
     </g>
    </g>
    <g id="xtick_18">
     <g id="line2d_64">
      <path d="M 105.955477 241.24718 
L 105.955477 203.757525 
" clip-path="url(#pb5ebc59f35)" style="fill: none; stroke: #000000; stroke-opacity: 0.2; stroke-width: 0.5; stroke-linecap: round"/>
     </g>
     <g id="line2d_65">
      <g>
       <use xlink:href="#ma4d3ffb786" x="105.955477" y="241.24718" style="fill-opacity: 0.2; stroke: #000000; stroke-opacity: 0.2; stroke-width: 0.5"/>
      </g>
     </g>
     <g id="text_8">
      <!-- $\mathdefault{1}$ -->
      <g transform="translate(102.468553 266.72671)scale(0.14 -0.14)">
       <use xlink:href="#URWPalladioL-Roma-31" transform="scale(0.996264)"/>
      </g>
     </g>
    </g>
    <g id="text_9">
     <!-- Time [seconds] -->
     <g transform="translate(64.599367 283.213758)scale(0.12 -0.12)">
      <defs>
       <path id="URWPalladioL-Roma-54" d="M 1632 4096 
C 1651 3880 1658 3734 1658 3462 
L 1658 781 
C 1658 280 1626 230 1331 211 
L 1024 192 
L 1024 0 
C 1402 -7 1626 0 1958 0 
C 2291 19 2522 12 2899 0 
L 2899 192 
L 2592 211 
C 2298 230 2266 280 2266 781 
L 2266 3462 
C 2266 3747 2272 3887 2291 4096 
L 3283 4096 
C 3462 4096 3533 4039 3539 3887 
L 3565 3386 
L 3763 3386 
C 3763 3801 3776 4051 3808 4416 
C 3347 4409 3136 4409 2957 4403 
C 2707 4390 2522 4390 2426 4390 
L 1414 4390 
C 1350 4390 1005 4396 550 4403 
L 115 4416 
C 147 4051 160 3801 160 3385 
L 358 3385 
L 384 3891 
C 390 4038 461 4096 640 4096 
L 1632 4096 
z
" transform="scale(0.015625)"/>
       <path id="URWPalladioL-Roma-69" d="M 1203 2982 
L 1146 3008 
C 819 2873 486 2784 147 2746 
L 147 2568 
L 384 2568 
C 640 2568 666 2523 666 2103 
L 666 669 
C 666 268 646 223 429 211 
L 134 192 
L 134 0 
C 774 0 774 0 934 0 
C 1094 19 1094 19 1734 0 
L 1734 192 
L 1440 211 
C 1222 224 1203 268 1203 671 
L 1203 2982 
z
M 909 4416 
C 717 4416 550 4249 550 4057 
C 550 3871 717 3705 902 3705 
C 1088 3705 1261 3871 1261 4057 
C 1261 4236 1088 4416 909 4416 
z
" transform="scale(0.015625)"/>
       <path id="URWPalladioL-Roma-6d" d="M 115 2579 
L 352 2579 
C 608 2579 634 2534 634 2112 
L 634 672 
C 634 268 614 224 397 211 
L 102 192 
L 102 0 
C 717 0 736 0 915 0 
C 1094 19 1261 12 1677 0 
L 1677 192 
L 1408 211 
C 1190 223 1171 268 1171 670 
L 1171 2023 
C 1171 2311 1594 2624 1978 2624 
C 2323 2624 2560 2298 2560 1813 
L 2560 670 
C 2560 268 2541 223 2323 211 
L 2029 192 
L 2029 0 
C 2669 0 2669 0 2829 0 
C 2989 19 2989 19 3629 0 
L 3629 192 
L 3334 211 
C 3117 223 3098 268 3098 670 
L 3098 2023 
C 3098 2311 3520 2624 3904 2624 
C 4250 2624 4486 2298 4486 1813 
L 4486 0 
C 4877 0 4883 0 4992 0 
C 5075 19 5075 19 5562 0 
L 5562 192 
L 5261 211 
C 5043 223 5024 268 5024 670 
L 5024 1985 
C 5024 2617 4653 3014 4064 3014 
C 3840 3014 3654 2956 3539 2854 
L 3053 2419 
C 2848 2841 2586 3014 2144 3014 
C 1907 3014 1728 2956 1613 2854 
L 1171 2445 
L 1171 2988 
L 1114 3008 
C 787 2873 454 2783 115 2745 
L 115 2579 
z
" transform="scale(0.015625)"/>
       <path id="URWPalladioL-Roma-65" d="M 2797 447 
L 2714 511 
C 2304 268 2157 211 1882 211 
C 1466 211 1120 396 941 710 
C 819 921 774 1100 762 1472 
L 1696 1472 
C 2138 1472 2413 1491 2854 1561 
C 2861 1651 2867 1708 2867 1786 
C 2867 2526 2394 3008 1677 3008 
C 1440 3008 1165 2924 902 2771 
C 378 2468 166 2069 166 1401 
C 166 998 262 652 435 409 
C 691 70 1120 -128 1600 -128 
C 1837 -128 2074 -77 2336 38 
C 2509 108 2643 192 2669 230 
L 2797 447 
z
M 2298 1708 
C 1965 1696 1811 1689 1581 1689 
C 1286 1689 1120 1696 774 1728 
C 774 2030 800 2172 883 2339 
C 1018 2623 1293 2796 1600 2796 
C 1811 2796 1978 2713 2093 2539 
C 2234 2326 2278 2140 2298 1708 
z
" transform="scale(0.015625)"/>
       <path id="URWPalladioL-Roma-5b" d="M 563 -1178 
C 1018 -1166 1030 -1166 1184 -1166 
C 1338 -1166 1370 -1166 1805 -1178 
L 1843 -1140 
L 1843 -974 
L 1818 -942 
L 1574 -942 
C 1402 -942 1261 -903 1184 -839 
C 1126 -782 1107 -692 1107 -481 
C 1107 -474 1107 -340 1101 -148 
L 1101 89 
L 1101 3379 
L 1101 3615 
C 1107 3795 1107 3935 1107 3942 
C 1107 4153 1126 4249 1184 4307 
C 1261 4371 1402 4409 1574 4409 
L 1818 4409 
L 1843 4441 
L 1843 4608 
L 1805 4646 
C 1357 4633 1338 4633 1184 4633 
C 1037 4633 1005 4633 563 4646 
L 506 4563 
C 544 4403 557 4191 557 3699 
C 557 3603 557 3526 563 3462 
L 563 3379 
L 563 89 
L 563 6 
C 557 -97 557 -103 557 -212 
L 557 -282 
C 557 -718 544 -897 506 -1095 
L 563 -1178 
z
" transform="scale(0.015625)"/>
       <path id="URWPalladioL-Roma-73" d="M 262 917 
C 262 474 243 282 192 25 
C 525 -84 774 -128 1069 -128 
C 1907 -128 2502 320 2502 949 
C 2502 1148 2445 1295 2323 1423 
C 2157 1584 1946 1661 1382 1770 
C 858 1872 685 2001 685 2296 
C 685 2617 909 2796 1299 2796 
C 1728 2796 2054 2572 2054 2270 
L 2054 2123 
L 2234 2123 
C 2240 2495 2246 2649 2266 2847 
C 1926 2963 1696 3008 1434 3008 
C 691 3008 237 2655 237 2078 
C 237 1770 378 1552 672 1417 
C 845 1340 1184 1237 1619 1141 
C 1907 1077 2029 942 2029 698 
C 2029 352 1709 108 1254 108 
C 787 108 454 333 454 654 
L 454 917 
L 262 917 
z
" transform="scale(0.015625)"/>
       <path id="URWPalladioL-Roma-63" d="M 2554 1995 
C 2554 2290 2586 2553 2643 2783 
C 2387 2937 2163 3008 1901 3008 
C 1594 3008 1235 2886 851 2643 
C 403 2360 166 1911 166 1347 
C 166 480 774 -128 1632 -128 
C 1965 -128 2445 -7 2509 89 
L 2643 294 
L 2579 390 
C 2342 262 2138 204 1907 204 
C 1197 204 730 756 730 1603 
C 730 2290 1050 2675 1626 2675 
C 1907 2675 2214 2547 2330 2386 
L 2374 1995 
L 2554 1995 
z
" transform="scale(0.015625)"/>
       <path id="URWPalladioL-Roma-6f" d="M 1786 3008 
C 851 3008 205 2347 205 1391 
C 205 487 774 -128 1600 -128 
C 2586 -128 3290 557 3290 1520 
C 3290 2386 2662 3008 1786 3008 
z
M 1670 2796 
C 2259 2796 2694 2155 2694 1282 
C 2694 545 2368 83 1850 83 
C 1222 83 800 699 800 1609 
C 800 2379 1107 2796 1670 2796 
z
" transform="scale(0.015625)"/>
       <path id="URWPalladioL-Roma-5d" d="M 1568 4646 
C 1114 4633 1094 4633 947 4633 
C 794 4633 762 4633 326 4646 
L 288 4608 
L 288 4441 
L 314 4409 
L 557 4409 
C 730 4409 864 4371 941 4307 
C 1005 4249 1024 4159 1024 3942 
C 1024 3923 1024 3795 1030 3615 
L 1030 3379 
L 1030 89 
L 1030 -148 
C 1024 -334 1024 -449 1024 -468 
C 1024 -686 1005 -782 941 -839 
C 864 -903 730 -942 557 -942 
L 314 -942 
L 288 -974 
L 288 -1140 
L 326 -1178 
C 774 -1166 787 -1166 947 -1166 
C 1094 -1166 1126 -1166 1568 -1178 
L 1626 -1095 
C 1587 -942 1581 -743 1574 -250 
C 1574 -161 1574 -78 1568 6 
L 1568 89 
L 1568 3379 
L 1568 3462 
C 1574 3532 1574 3615 1574 3705 
C 1574 4198 1587 4409 1626 4563 
L 1568 4646 
z
" transform="scale(0.015625)"/>
      </defs>
      <use xlink:href="#URWPalladioL-Roma-54" transform="scale(0.996264)"/>
      <use xlink:href="#URWPalladioL-Roma-69" transform="translate(55.591109 0)scale(0.996264)"/>
      <use xlink:href="#URWPalladioL-Roma-6d" transform="translate(84.581471 0)scale(0.996264)"/>
      <use xlink:href="#URWPalladioL-Roma-65" transform="translate(172.551145 0)scale(0.996264)"/>
      <use xlink:href="#URWPalladioL-Roma-5b" transform="translate(245.17804 0)scale(0.996264)"/>
      <use xlink:href="#URWPalladioL-Roma-73" transform="translate(278.35327 0)scale(0.996264)"/>
      <use xlink:href="#URWPalladioL-Roma-65" transform="translate(320.594736 0)scale(0.996264)"/>
      <use xlink:href="#URWPalladioL-Roma-63" transform="translate(368.315031 0)scale(0.996264)"/>
      <use xlink:href="#URWPalladioL-Roma-6f" transform="translate(412.5486 0)scale(0.996264)"/>
      <use xlink:href="#URWPalladioL-Roma-6e" transform="translate(466.94418 0)scale(0.996264)"/>
      <use xlink:href="#URWPalladioL-Roma-64" transform="translate(524.926241 0)scale(0.996264)"/>
      <use xlink:href="#URWPalladioL-Roma-73" transform="translate(585.797872 0)scale(0.996264)"/>
      <use xlink:href="#URWPalladioL-Roma-5d" transform="translate(628.039338 0)scale(0.996264)"/>
     </g>
    </g>
   </g>
   <g id="matplotlib.axis_18">
    <g id="ytick_9">
     <g id="line2d_66">
      <path d="M 38.62516 222.502353 
L 169.919277 222.502353 
" clip-path="url(#pb5ebc59f35)" style="fill: none; stroke: #000000; stroke-opacity: 0.2; stroke-width: 0.5; stroke-linecap: round"/>
     </g>
     <g id="line2d_67">
      <g>
       <use xlink:href="#m160272105b" x="38.62516" y="222.502353" style="fill-opacity: 0.2; stroke: #000000; stroke-opacity: 0.2; stroke-width: 0.5"/>
      </g>
     </g>
    </g>
    <g id="text_10">
     <!-- $m=4$ -->
     <g transform="translate(15.753876 238.528475)rotate(-90)scale(0.12 -0.12)">
      <defs>
       <path id="URWPalladioL-Roma-34" d="M 1792 1152 
L 1792 684 
C 1792 310 1722 223 1408 210 
L 1011 192 
L 1011 0 
C 1862 0 1862 0 2016 0 
C 2170 19 2170 19 3021 0 
L 3021 192 
L 2714 210 
C 2400 229 2330 310 2330 684 
L 2330 1152 
C 2707 1152 2842 1145 3021 1127 
L 3021 1580 
C 2720 1555 2598 1555 2502 1561 
L 2483 1561 
L 2330 1561 
L 2330 2445 
C 2330 3576 2342 4122 2374 4383 
L 2298 4416 
L 1824 4243 
L 13 1299 
L 83 1152 
L 1792 1152 
z
M 1792 1561 
L 416 1561 
L 1792 3798 
L 1792 1561 
z
" transform="scale(0.015625)"/>
      </defs>
      <use xlink:href="#URWPalladioL-Ital-6d" transform="scale(0.996264)"/>
      <use xlink:href="#CMR10-3d" transform="translate(107.673966 0)scale(1.038107)"/>
      <use xlink:href="#URWPalladioL-Roma-34" transform="translate(217.289595 0)scale(0.996264)"/>
     </g>
    </g>
   </g>
   <g id="line2d_68">
    <path d="M 38.62516 213.358535 
L 41.991676 213.358535 
L 41.991676 214.355151 
L 45.358191 214.355151 
L 45.358191 217.127751 
L 48.724707 217.127751 
L 48.724707 221.071945 
L 52.091223 221.071945 
L 52.091223 225.327948 
L 55.457739 225.327948 
L 55.457739 228.968009 
L 58.824255 228.968009 
L 58.824255 231.198641 
L 62.190771 231.198641 
L 62.190771 231.533596 
L 65.557286 231.533596 
L 65.557286 229.899857 
L 68.923802 229.899857 
L 68.923802 226.65356 
L 72.290318 226.65356 
L 72.290318 222.502353 
L 75.656834 222.502353 
L 75.656834 218.351146 
L 79.02335 218.351146 
L 79.02335 215.104848 
L 82.389866 215.104848 
L 82.389866 213.47111 
L 85.756382 213.47111 
L 85.756382 213.806065 
L 89.122897 213.806065 
L 89.122897 216.036697 
L 92.489413 216.036697 
L 92.489413 219.676758 
L 95.855929 219.676758 
L 95.855929 223.932761 
L 99.222445 223.932761 
L 99.222445 227.876954 
L 102.588961 227.876954 
L 102.588961 230.649555 
L 105.955477 230.649555 
L 105.955477 231.646171 
L 109.321992 231.646171 
L 109.321992 230.649555 
L 112.688508 230.649555 
L 112.688508 227.876954 
L 116.055024 227.876954 
L 116.055024 223.932761 
L 119.42154 223.932761 
L 119.42154 219.676758 
L 122.788056 219.676758 
L 122.788056 216.036697 
L 126.154572 216.036697 
L 126.154572 213.806065 
L 129.521087 213.806065 
L 129.521087 213.47111 
L 132.887603 213.47111 
L 132.887603 215.104848 
L 136.254119 215.104848 
L 136.254119 218.351146 
L 139.620635 218.351146 
L 139.620635 222.502353 
L 142.987151 222.502353 
L 142.987151 226.65356 
L 146.353667 226.65356 
L 146.353667 229.899857 
L 149.720182 229.899857 
L 149.720182 231.533596 
L 153.086698 231.533596 
L 153.086698 231.198641 
L 156.453214 231.198641 
L 156.453214 228.968009 
L 159.81973 228.968009 
L 159.81973 225.327948 
L 163.186246 225.327948 
L 163.186246 221.071945 
L 166.552762 221.071945 
L 166.552762 217.127751 
L 169.919277 217.127751 
L 169.919277 214.355151 
" clip-path="url(#pb5ebc59f35)" style="fill: none; stroke: #0271ae; stroke-width: 2; stroke-linecap: round"/>
   </g>
  </g>
  <g id="axes_10">
   <g id="patch_11">
    <path d="M 196.178101 241.24718 
L 327.472219 241.24718 
L 327.472219 203.757525 
L 196.178101 203.757525 
L 196.178101 241.24718 
z
" style="fill: none"/>
   </g>
   <g id="matplotlib.axis_19">
    <g id="xtick_19">
     <g id="line2d_69">
      <path d="M 196.178101 241.24718 
L 196.178101 203.757525 
" clip-path="url(#pab69ba1642)" style="fill: none; stroke: #000000; stroke-opacity: 0.2; stroke-width: 0.5; stroke-linecap: round"/>
     </g>
     <g id="line2d_70">
      <g>
       <use xlink:href="#ma4d3ffb786" x="196.178101" y="241.24718" style="fill-opacity: 0.2; stroke: #000000; stroke-opacity: 0.2; stroke-width: 0.5"/>
      </g>
     </g>
     <g id="text_11">
      <!-- $\mathdefault{0}$ -->
      <g transform="translate(192.691177 266.72671)scale(0.14 -0.14)">
       <use xlink:href="#URWPalladioL-Roma-30" transform="scale(0.996264)"/>
      </g>
     </g>
    </g>
    <g id="xtick_20">
     <g id="line2d_71">
      <path d="M 263.508418 241.24718 
L 263.508418 203.757525 
" clip-path="url(#pab69ba1642)" style="fill: none; stroke: #000000; stroke-opacity: 0.2; stroke-width: 0.5; stroke-linecap: round"/>
     </g>
     <g id="line2d_72">
      <g>
       <use xlink:href="#ma4d3ffb786" x="263.508418" y="241.24718" style="fill-opacity: 0.2; stroke: #000000; stroke-opacity: 0.2; stroke-width: 0.5"/>
      </g>
     </g>
     <g id="text_12">
      <!-- $\mathdefault{1}$ -->
      <g transform="translate(260.021494 266.72671)scale(0.14 -0.14)">
       <use xlink:href="#URWPalladioL-Roma-31" transform="scale(0.996264)"/>
      </g>
     </g>
    </g>
    <g id="text_13">
     <!-- Time [seconds] -->
     <g transform="translate(222.152308 283.213758)scale(0.12 -0.12)">
      <use xlink:href="#URWPalladioL-Roma-54" transform="scale(0.996264)"/>
      <use xlink:href="#URWPalladioL-Roma-69" transform="translate(55.591109 0)scale(0.996264)"/>
      <use xlink:href="#URWPalladioL-Roma-6d" transform="translate(84.581471 0)scale(0.996264)"/>
      <use xlink:href="#URWPalladioL-Roma-65" transform="translate(172.551145 0)scale(0.996264)"/>
      <use xlink:href="#URWPalladioL-Roma-5b" transform="translate(245.17804 0)scale(0.996264)"/>
      <use xlink:href="#URWPalladioL-Roma-73" transform="translate(278.35327 0)scale(0.996264)"/>
      <use xlink:href="#URWPalladioL-Roma-65" transform="translate(320.594736 0)scale(0.996264)"/>
      <use xlink:href="#URWPalladioL-Roma-63" transform="translate(368.315031 0)scale(0.996264)"/>
      <use xlink:href="#URWPalladioL-Roma-6f" transform="translate(412.5486 0)scale(0.996264)"/>
      <use xlink:href="#URWPalladioL-Roma-6e" transform="translate(466.94418 0)scale(0.996264)"/>
      <use xlink:href="#URWPalladioL-Roma-64" transform="translate(524.926241 0)scale(0.996264)"/>
      <use xlink:href="#URWPalladioL-Roma-73" transform="translate(585.797872 0)scale(0.996264)"/>
      <use xlink:href="#URWPalladioL-Roma-5d" transform="translate(628.039338 0)scale(0.996264)"/>
     </g>
    </g>
   </g>
   <g id="matplotlib.axis_20">
    <g id="ytick_10">
     <g id="line2d_73">
      <path d="M 196.178101 222.502353 
L 327.472219 222.502353 
" clip-path="url(#pab69ba1642)" style="fill: none; stroke: #000000; stroke-opacity: 0.2; stroke-width: 0.5; stroke-linecap: round"/>
     </g>
     <g id="line2d_74">
      <g>
       <use xlink:href="#m160272105b" x="196.178101" y="222.502353" style="fill-opacity: 0.2; stroke: #000000; stroke-opacity: 0.2; stroke-width: 0.5"/>
      </g>
     </g>
    </g>
   </g>
   <g id="line2d_75">
    <path d="M 196.178101 213.576245 
L 199.544617 213.576245 
L 199.544617 216.068062 
L 202.911133 216.068062 
L 202.911133 220.881054 
L 206.277648 220.881054 
L 206.277648 222.933849 
L 209.644164 222.933849 
L 209.644164 220.270826 
L 213.01068 220.270826 
L 213.01068 216.190641 
L 216.377196 216.190641 
L 216.377196 215.634419 
L 219.743712 215.634419 
L 219.743712 219.777993 
L 223.110228 219.777993 
L 223.110228 224.73388 
L 226.476744 224.73388 
L 226.476744 225.780788 
L 229.843259 225.780788 
L 229.843259 222.502353 
L 233.209775 222.502353 
L 233.209775 219.223918 
L 236.576291 219.223918 
L 236.576291 220.270826 
L 239.942807 220.270826 
L 239.942807 225.226713 
L 243.309323 225.226713 
L 243.309323 229.370287 
L 246.675839 229.370287 
L 246.675839 228.814065 
L 250.042354 228.814065 
L 250.042354 224.73388 
L 253.40887 224.73388 
L 253.40887 222.070857 
L 256.775386 222.070857 
L 256.775386 224.123652 
L 260.141902 224.123652 
L 260.141902 228.936644 
L 263.508418 228.936644 
L 263.508418 231.428461 
L 266.874934 231.428461 
L 266.874934 228.936644 
L 270.241449 228.936644 
L 270.241449 224.123652 
L 273.607965 224.123652 
L 273.607965 222.070857 
L 276.974481 222.070857 
L 276.974481 224.73388 
L 280.340997 224.73388 
L 280.340997 228.814065 
L 283.707513 228.814065 
L 283.707513 229.370287 
L 287.074029 229.370287 
L 287.074029 225.226713 
L 290.440544 225.226713 
L 290.440544 220.270826 
L 293.80706 220.270826 
L 293.80706 219.223918 
L 297.173576 219.223918 
L 297.173576 222.502353 
L 300.540092 222.502353 
L 300.540092 225.780788 
L 303.906608 225.780788 
L 303.906608 224.73388 
L 307.273124 224.73388 
L 307.273124 219.777993 
L 310.639639 219.777993 
L 310.639639 215.634419 
L 314.006155 215.634419 
L 314.006155 216.190641 
L 317.372671 216.190641 
L 317.372671 220.270826 
L 320.739187 220.270826 
L 320.739187 222.933849 
L 324.105703 222.933849 
L 324.105703 220.881054 
L 327.472219 220.881054 
L 327.472219 216.068062 
" clip-path="url(#pab69ba1642)" style="fill: none; stroke: #6e3b87; stroke-width: 2; stroke-linecap: round"/>
   </g>
  </g>
  <g id="axes_11">
   <g id="patch_12">
    <path d="M 353.731042 241.24718 
L 485.02516 241.24718 
L 485.02516 23.80718 
L 353.731042 23.80718 
L 353.731042 241.24718 
z
" style="fill: none"/>
   </g>
   <g id="line2d_76">
    <path d="M 419.378101 241.24718 
L 419.378101 23.80718 
" clip-path="url(#p3610673f53)" style="fill: none; stroke: #343837; stroke-linecap: round"/>
   </g>
   <g id="matplotlib.axis_21">
    <g id="xtick_21">
     <g id="line2d_77">
      <path d="M 378.348689 241.24718 
L 378.348689 23.80718 
" clip-path="url(#p3610673f53)" style="fill: none; stroke: #000000; stroke-opacity: 0.2; stroke-width: 0.5; stroke-linecap: round"/>
     </g>
     <g id="line2d_78">
      <g>
       <use xlink:href="#ma4d3ffb786" x="378.348689" y="241.24718" style="fill-opacity: 0.2; stroke: #000000; stroke-opacity: 0.2; stroke-width: 0.5"/>
      </g>
     </g>
     <g id="text_14">
      <!-- $\mathdefault{25}$ -->
      <g transform="translate(365.63892 266.72671)scale(0.14 -0.14)">
       <defs>
        <path id="CMSY10-0" d="M 4218 1472 
C 4326 1472 4442 1472 4442 1600 
C 4442 1728 4326 1728 4218 1728 
L 755 1728 
C 646 1728 531 1728 531 1600 
C 531 1472 646 1472 755 1472 
L 4218 1472 
z
" transform="scale(0.015625)"/>
        <path id="URWPalladioL-Roma-35" d="M 813 3891 
C 1638 3865 1997 3859 2765 3859 
L 2797 3891 
C 2784 4006 2784 4057 2784 4140 
C 2784 4230 2784 4281 2797 4396 
L 2765 4428 
C 2285 4403 1997 4396 1651 4396 
C 1299 4396 1018 4403 538 4428 
L 506 4396 
C 512 4006 518 3724 518 3520 
C 518 2976 499 2360 480 2076 
L 608 2038 
C 909 2341 1082 2432 1395 2432 
C 2010 2432 2394 1992 2394 1295 
C 2394 579 1984 160 1286 160 
C 941 160 621 276 531 443 
L 237 973 
L 83 882 
C 230 514 307 308 397 25 
C 576 -71 832 -128 1107 -128 
C 1536 -128 1990 57 2342 366 
C 2733 715 2938 1153 2938 1631 
C 2938 2360 2419 2873 1690 2873 
C 1382 2873 1152 2790 755 2553 
L 813 3891 
z
" transform="scale(0.015625)"/>
       </defs>
       <use xlink:href="#CMSY10-0" transform="scale(1.038107)"/>
       <use xlink:href="#URWPalladioL-Roma-32" transform="translate(81.941696 0)scale(0.996264)"/>
       <use xlink:href="#URWPalladioL-Roma-35" transform="translate(131.754897 0)scale(0.996264)"/>
      </g>
     </g>
    </g>
    <g id="xtick_22">
     <g id="line2d_79">
      <path d="M 419.378101 241.24718 
L 419.378101 23.80718 
" clip-path="url(#p3610673f53)" style="fill: none; stroke: #000000; stroke-opacity: 0.2; stroke-width: 0.5; stroke-linecap: round"/>
     </g>
     <g id="line2d_80">
      <g>
       <use xlink:href="#ma4d3ffb786" x="419.378101" y="241.24718" style="fill-opacity: 0.2; stroke: #000000; stroke-opacity: 0.2; stroke-width: 0.5"/>
      </g>
     </g>
     <g id="text_15">
      <!-- $\mathdefault{0}$ -->
      <g transform="translate(415.891177 266.72671)scale(0.14 -0.14)">
       <use xlink:href="#URWPalladioL-Roma-30" transform="scale(0.996264)"/>
      </g>
     </g>
    </g>
    <g id="xtick_23">
     <g id="line2d_81">
      <path d="M 460.407513 241.24718 
L 460.407513 23.80718 
" clip-path="url(#p3610673f53)" style="fill: none; stroke: #000000; stroke-opacity: 0.2; stroke-width: 0.5; stroke-linecap: round"/>
     </g>
     <g id="line2d_82">
      <g>
       <use xlink:href="#ma4d3ffb786" x="460.407513" y="241.24718" style="fill-opacity: 0.2; stroke: #000000; stroke-opacity: 0.2; stroke-width: 0.5"/>
      </g>
     </g>
     <g id="text_16">
      <!-- $\mathdefault{25}$ -->
      <g transform="translate(453.433665 266.72671)scale(0.14 -0.14)">
       <use xlink:href="#URWPalladioL-Roma-32" transform="scale(0.996264)"/>
       <use xlink:href="#URWPalladioL-Roma-35" transform="translate(49.8132 0)scale(0.996264)"/>
      </g>
     </g>
    </g>
    <g id="text_17">
     <!-- Similarity -->
     <g transform="translate(393.381997 283.213758)scale(0.12 -0.12)">
      <defs>
       <path id="URWPalladioL-Roma-53" d="M 2861 3371 
C 2861 3711 2886 3929 2950 4275 
C 2438 4479 2150 4544 1798 4544 
C 845 4544 154 3942 154 3102 
C 154 2788 237 2557 422 2384 
C 640 2185 934 2083 1555 1999 
C 2048 1929 2272 1858 2438 1711 
C 2605 1576 2682 1390 2682 1147 
C 2682 570 2202 153 1536 153 
C 1024 153 525 403 493 666 
L 442 1095 
L 237 1095 
C 243 980 243 877 243 839 
C 243 544 230 403 192 115 
C 557 -45 928 -128 1299 -128 
C 2413 -128 3219 544 3219 1474 
C 3219 1775 3136 1986 2957 2153 
C 2733 2365 2464 2448 1747 2544 
C 966 2647 691 2858 691 3352 
C 691 3890 1094 4275 1658 4275 
C 1907 4275 2144 4224 2317 4127 
C 2528 4018 2598 3922 2618 3736 
L 2656 3371 
L 2861 3371 
z
" transform="scale(0.015625)"/>
       <path id="URWPalladioL-Roma-6c" d="M 147 4249 
L 506 4249 
C 621 4249 666 4179 666 3987 
L 666 672 
C 666 268 646 224 429 211 
L 134 192 
L 134 0 
C 774 0 774 0 934 0 
C 1094 19 1094 19 1734 0 
L 1734 192 
L 1440 211 
C 1222 224 1203 268 1203 672 
L 1203 4614 
L 1146 4665 
C 864 4557 653 4505 147 4429 
L 147 4249 
z
" transform="scale(0.015625)"/>
       <path id="URWPalladioL-Roma-72" d="M 147 2579 
L 384 2579 
C 640 2579 666 2534 666 2112 
L 666 672 
C 666 268 646 224 429 211 
L 134 192 
L 134 0 
C 595 -7 762 0 922 0 
C 1050 19 1050 19 1837 0 
L 1837 192 
L 1504 211 
C 1216 230 1203 249 1203 669 
L 1203 1763 
C 1203 2145 1459 2463 1773 2463 
C 1965 2463 2099 2374 2202 2171 
L 2336 2171 
L 2394 2937 
C 2323 2982 2208 3008 2093 3008 
C 1901 3008 1696 2905 1562 2745 
L 1203 2324 
L 1203 2982 
L 1146 3008 
C 819 2873 486 2783 147 2745 
L 147 2579 
z
" transform="scale(0.015625)"/>
       <path id="URWPalladioL-Roma-74" d="M 627 2457 
L 627 614 
C 627 140 838 -64 1331 -64 
C 1478 -64 1632 -32 1670 12 
L 1978 352 
L 1894 460 
C 1734 371 1638 339 1517 339 
C 1267 339 1165 467 1165 780 
L 1165 2457 
L 1984 2457 
L 2042 2803 
L 1165 2764 
L 1165 3008 
C 1165 3277 1184 3507 1235 3917 
L 1158 3987 
C 1005 3891 813 3808 614 3744 
C 634 3552 640 3430 640 3238 
L 640 2790 
L 141 2566 
L 141 2432 
L 627 2457 
z
" transform="scale(0.015625)"/>
       <path id="URWPalladioL-Roma-79" d="M 1901 569 
C 1760 812 1690 960 1574 1273 
L 1165 2349 
C 1126 2457 1101 2553 1101 2617 
C 1101 2707 1171 2758 1318 2765 
L 1562 2777 
L 1562 2957 
C 941 2937 941 2937 819 2937 
C 698 2937 698 2937 77 2957 
L 77 2777 
L 192 2765 
C 352 2745 429 2675 525 2451 
L 1222 774 
C 1402 339 1466 185 1581 -135 
L 1434 -525 
C 1229 -1063 979 -1364 736 -1364 
C 634 -1364 518 -1312 410 -1216 
L 326 -1216 
L 173 -1696 
C 294 -1760 397 -1792 518 -1792 
C 947 -1792 1222 -1562 1466 -1005 
L 2765 1990 
C 3021 2573 3142 2745 3302 2765 
L 3482 2777 
L 3482 2957 
C 2976 2937 2976 2937 2874 2937 
C 2771 2937 2771 2937 2266 2957 
L 2266 2777 
L 2432 2765 
C 2611 2752 2701 2694 2701 2605 
C 2701 2560 2688 2502 2662 2438 
L 1901 569 
z
" transform="scale(0.015625)"/>
      </defs>
      <use xlink:href="#URWPalladioL-Roma-53" transform="scale(0.996264)"/>
      <use xlink:href="#URWPalladioL-Roma-69" transform="translate(52.303815 0)scale(0.996264)"/>
      <use xlink:href="#URWPalladioL-Roma-6d" transform="translate(81.294176 0)scale(0.996264)"/>
      <use xlink:href="#URWPalladioL-Roma-69" transform="translate(169.263851 0)scale(0.996264)"/>
      <use xlink:href="#URWPalladioL-Roma-6c" transform="translate(198.254212 0)scale(0.996264)"/>
      <use xlink:href="#URWPalladioL-Roma-61" transform="translate(227.244574 0)scale(0.996264)"/>
      <use xlink:href="#URWPalladioL-Roma-72" transform="translate(277.057774 0)scale(0.996264)"/>
      <use xlink:href="#URWPalladioL-Roma-69" transform="translate(316.40967 0)scale(0.996264)"/>
      <use xlink:href="#URWPalladioL-Roma-74" transform="translate(345.400032 0)scale(0.996264)"/>
      <use xlink:href="#URWPalladioL-Roma-79" transform="translate(377.87712 0)scale(0.996264)"/>
     </g>
    </g>
   </g>
   <g id="matplotlib.axis_22">
    <g id="ytick_11">
     <g id="line2d_83">
      <path d="M 353.731042 41.92718 
L 485.02516 41.92718 
" clip-path="url(#p3610673f53)" style="fill: none; stroke: #000000; stroke-opacity: 0.2; stroke-width: 0.5; stroke-linecap: round"/>
     </g>
     <g id="line2d_84">
      <defs>
       <path id="m474ce4a09b" d="M 0 0 
L 3.5 0 
" style="stroke: #000000; stroke-opacity: 0.2; stroke-width: 0.5"/>
      </defs>
      <g>
       <use xlink:href="#m474ce4a09b" x="485.02516" y="41.92718" style="fill-opacity: 0.2; stroke: #000000; stroke-opacity: 0.2; stroke-width: 0.5"/>
      </g>
     </g>
     <g id="text_18">
      <!-- $\mathdefault{0}$ -->
      <g transform="translate(500.52516 46.916945)scale(0.14 -0.14)">
       <use xlink:href="#URWPalladioL-Roma-30" transform="scale(0.996264)"/>
      </g>
     </g>
    </g>
    <g id="ytick_12">
     <g id="line2d_85">
      <path d="M 353.731042 87.22718 
L 485.02516 87.22718 
" clip-path="url(#p3610673f53)" style="fill: none; stroke: #000000; stroke-opacity: 0.2; stroke-width: 0.5; stroke-linecap: round"/>
     </g>
     <g id="line2d_86">
      <g>
       <use xlink:href="#m474ce4a09b" x="485.02516" y="87.22718" style="fill-opacity: 0.2; stroke: #000000; stroke-opacity: 0.2; stroke-width: 0.5"/>
      </g>
     </g>
     <g id="text_19">
      <!-- $\mathdefault{1}$ -->
      <g transform="translate(500.52516 92.216945)scale(0.14 -0.14)">
       <use xlink:href="#URWPalladioL-Roma-31" transform="scale(0.996264)"/>
      </g>
     </g>
    </g>
    <g id="ytick_13">
     <g id="line2d_87">
      <path d="M 353.731042 132.52718 
L 485.02516 132.52718 
" clip-path="url(#p3610673f53)" style="fill: none; stroke: #000000; stroke-opacity: 0.2; stroke-width: 0.5; stroke-linecap: round"/>
     </g>
     <g id="line2d_88">
      <g>
       <use xlink:href="#m474ce4a09b" x="485.02516" y="132.52718" style="fill-opacity: 0.2; stroke: #000000; stroke-opacity: 0.2; stroke-width: 0.5"/>
      </g>
     </g>
     <g id="text_20">
      <!-- $\mathdefault{2}$ -->
      <g transform="translate(500.52516 137.516945)scale(0.14 -0.14)">
       <use xlink:href="#URWPalladioL-Roma-32" transform="scale(0.996264)"/>
      </g>
     </g>
    </g>
    <g id="ytick_14">
     <g id="line2d_89">
      <path d="M 353.731042 177.82718 
L 485.02516 177.82718 
" clip-path="url(#p3610673f53)" style="fill: none; stroke: #000000; stroke-opacity: 0.2; stroke-width: 0.5; stroke-linecap: round"/>
     </g>
     <g id="line2d_90">
      <g>
       <use xlink:href="#m474ce4a09b" x="485.02516" y="177.82718" style="fill-opacity: 0.2; stroke: #000000; stroke-opacity: 0.2; stroke-width: 0.5"/>
      </g>
     </g>
     <g id="text_21">
      <!-- $\mathdefault{3}$ -->
      <g transform="translate(500.52516 182.816945)scale(0.14 -0.14)">
       <use xlink:href="#URWPalladioL-Roma-33" transform="scale(0.996264)"/>
      </g>
     </g>
    </g>
    <g id="ytick_15">
     <g id="line2d_91">
      <path d="M 353.731042 223.12718 
L 485.02516 223.12718 
" clip-path="url(#p3610673f53)" style="fill: none; stroke: #000000; stroke-opacity: 0.2; stroke-width: 0.5; stroke-linecap: round"/>
     </g>
     <g id="line2d_92">
      <g>
       <use xlink:href="#m474ce4a09b" x="485.02516" y="223.12718" style="fill-opacity: 0.2; stroke: #000000; stroke-opacity: 0.2; stroke-width: 0.5"/>
      </g>
     </g>
     <g id="text_22">
      <!-- $\mathdefault{4}$ -->
      <g transform="translate(500.52516 228.116945)scale(0.14 -0.14)">
       <use xlink:href="#URWPalladioL-Roma-34" transform="scale(0.996264)"/>
      </g>
     </g>
    </g>
    <g id="text_23">
     <!-- $m$ -->
     <g transform="translate(520.052884 137.177679)rotate(-90)scale(0.12 -0.12)">
      <use xlink:href="#URWPalladioL-Ital-6d" transform="scale(0.996264)"/>
     </g>
    </g>
   </g>
   <g id="patch_13">
    <path d="M 419.378101 23.80718 
L 419.378101 23.80718 
L 419.378101 60.04718 
L 419.378101 60.04718 
z
" clip-path="url(#p3610673f53)" style="fill: #6e3b87"/>
   </g>
   <g id="patch_14">
    <path d="M 419.378101 69.10718 
L 419.378101 69.10718 
L 419.378101 105.34718 
L 419.378101 105.34718 
z
" clip-path="url(#p3610673f53)" style="fill: #6e3b87"/>
   </g>
   <g id="patch_15">
    <path d="M 419.378101 114.40718 
L 419.378101 114.40718 
L 419.378101 150.64718 
L 419.378101 150.64718 
z
" clip-path="url(#p3610673f53)" style="fill: #6e3b87"/>
   </g>
   <g id="patch_16">
    <path d="M 419.378101 159.70718 
L 452.20163 159.70718 
L 452.20163 195.94718 
L 419.378101 195.94718 
z
" clip-path="url(#p3610673f53)" style="fill: #6e3b87"/>
   </g>
   <g id="patch_17">
    <path d="M 419.378101 205.00718 
L 419.378101 205.00718 
L 419.378101 241.24718 
L 419.378101 241.24718 
z
" clip-path="url(#p3610673f53)" style="fill: #6e3b87"/>
   </g>
   <g id="text_24">
    <!-- $S(x, y_m)$ -->
    <g transform="translate(394.587004 17.80718)scale(0.14 -0.14)">
     <defs>
      <path id="URWPalladioL-Ital-53" d="M 2886 3454 
L 3078 3454 
C 3104 3803 3149 4049 3238 4326 
C 2950 4479 2694 4544 2394 4544 
C 1926 4544 1440 4345 1101 3997 
C 826 3732 691 3403 691 3028 
C 691 2479 934 2175 1472 2046 
L 2080 1897 
C 2426 1813 2598 1587 2598 1219 
C 2598 605 2144 179 1485 179 
C 1139 179 896 256 614 457 
L 614 1096 
L 422 1096 
C 384 741 339 450 269 115 
C 582 -45 922 -128 1261 -128 
C 2253 -128 3104 625 3104 1497 
C 3104 2007 2829 2279 2182 2421 
L 1766 2511 
C 1344 2602 1152 2841 1152 3267 
C 1152 3829 1581 4236 2170 4236 
C 2483 4236 2694 4152 2886 3945 
L 2886 3454 
z
" transform="scale(0.015625)"/>
      <path id="CMR10-28" d="M 2118 -1536 
C 2118 -1517 2118 -1504 2010 -1396 
C 1210 -589 1005 620 1005 1600 
C 1005 2713 1248 3827 2035 4627 
C 2118 4704 2118 4716 2118 4736 
C 2118 4780 2093 4800 2054 4800 
C 1990 4800 1414 4365 1037 3552 
C 710 2848 634 2137 634 1600 
C 634 1100 704 326 1056 -397 
C 1440 -1184 1990 -1600 2054 -1600 
C 2093 -1600 2118 -1581 2118 -1536 
z
" transform="scale(0.015625)"/>
      <path id="URWPalladioL-Roma-2c" d="M 1306 787 
C 1133 729 1018 691 678 595 
C 634 108 474 -308 102 -922 
L 192 -993 
L 454 -871 
C 973 -199 1216 204 1395 697 
L 1306 787 
z
" transform="scale(0.015625)"/>
      <path id="CMR10-29" d="M 1850 1600 
C 1850 2099 1779 2873 1427 3597 
C 1043 4384 493 4800 429 4800 
C 390 4800 365 4774 365 4736 
C 365 4716 365 4704 486 4589 
C 1114 3955 1478 2937 1478 1600 
C 1478 505 1242 -621 448 -1428 
C 365 -1504 365 -1517 365 -1536 
C 365 -1575 390 -1600 429 -1600 
C 493 -1600 1069 -1165 1446 -352 
C 1773 352 1850 1062 1850 1600 
z
" transform="scale(0.015625)"/>
     </defs>
     <use xlink:href="#URWPalladioL-Ital-53" transform="scale(0.996264)"/>
     <use xlink:href="#CMR10-28" transform="translate(57.88296 0)scale(1.038107)"/>
     <use xlink:href="#URWPalladioL-Ital-78" transform="translate(102.316341 0)scale(0.996264)"/>
     <use xlink:href="#URWPalladioL-Roma-2c" transform="translate(154.370178 0)scale(0.996264)"/>
     <use xlink:href="#URWPalladioL-Ital-79" transform="translate(197.126437 0)scale(0.996264)"/>
     <use xlink:href="#URWPalladioL-Ital-6d" transform="translate(249.13137 -14.943915)scale(0.757155)"/>
     <use xlink:href="#CMR10-29" transform="translate(310.727974 0)scale(1.038107)"/>
    </g>
   </g>
  </g>
 </g>
 <defs>
  <clipPath id="pc642c21506">
   <rect x="38.62516" y="23.80718" width="131.294118" height="37.489655"/>
  </clipPath>
  <clipPath id="p29d2502767">
   <rect x="196.178101" y="23.80718" width="131.294118" height="37.489655"/>
  </clipPath>
  <clipPath id="p0c3c29a73d">
   <rect x="38.62516" y="68.794767" width="131.294118" height="37.489655"/>
  </clipPath>
  <clipPath id="p2d153948e1">
   <rect x="196.178101" y="68.794767" width="131.294118" height="37.489655"/>
  </clipPath>
  <clipPath id="pf3f2838464">
   <rect x="38.62516" y="113.782353" width="131.294118" height="37.489655"/>
  </clipPath>
  <clipPath id="pbd235d0e32">
   <rect x="196.178101" y="113.782353" width="131.294118" height="37.489655"/>
  </clipPath>
  <clipPath id="pbeef6a6c4a">
   <rect x="38.62516" y="158.769939" width="131.294118" height="37.489655"/>
  </clipPath>
  <clipPath id="p1b7a66f571">
   <rect x="196.178101" y="158.769939" width="131.294118" height="37.489655"/>
  </clipPath>
  <clipPath id="pb5ebc59f35">
   <rect x="38.62516" y="203.757525" width="131.294118" height="37.489655"/>
  </clipPath>
  <clipPath id="pab69ba1642">
   <rect x="196.178101" y="203.757525" width="131.294118" height="37.489655"/>
  </clipPath>
  <clipPath id="p3610673f53">
   <rect x="353.731042" y="23.80718" width="131.294118" height="217.44"/>
  </clipPath>
 </defs>
</svg>