<?xml version="1.0" encoding="utf-8" standalone="no"?>
<!DOCTYPE svg PUBLIC "-//W3C//DTD SVG 1.1//EN"
  "http://www.w3.org/Graphics/SVG/1.1/DTD/svg11.dtd">
<svg xmlns:xlink="http://www.w3.org/1999/xlink" width="296.39952pt" height="296.39952pt" viewBox="0 0 296.39952 296.39952" xmlns="http://www.w3.org/2000/svg" version="1.1">
 <metadata>
  <rdf:RDF xmlns:dc="http://purl.org/dc/elements/1.1/" xmlns:cc="http://creativecommons.org/ns#" xmlns:rdf="http://www.w3.org/1999/02/22-rdf-syntax-ns#">
   <cc:Work>
    <dc:type rdf:resource="http://purl.org/dc/dcmitype/StillImage"/>
    <dc:date>2022-07-26T12:23:21.649442</dc:date>
    <dc:format>image/svg+xml</dc:format>
    <dc:creator>
     <cc:Agent>
      <dc:title>Matplotlib v3.5.2, https://matplotlib.org/</dc:title>
     </cc:Agent>
    </dc:creator>
   </cc:Work>
  </rdf:RDF>
 </metadata>
 <defs>
  <style type="text/css">*{stroke-linejoin: round; stroke-linecap: butt}</style>
 </defs>
 <g id="figure_1">
  <g id="patch_1">
   <path d="M 0 296.39952 
L 296.39952 296.39952 
L 296.39952 0 
L 0 0 
L 0 296.39952 
z
" style="fill: none"/>
  </g>
  <g id="axes_1">
   <g id="patch_2">
    <path d="M 148.19976 260.999568 
C 178.114619 260.999568 206.80827 249.114269 227.961269 227.961269 
C 249.114269 206.80827 260.999568 178.114619 260.999568 148.19976 
C 260.999568 118.284901 249.114269 89.59125 227.961269 68.438251 
C 206.80827 47.285251 178.114619 35.399952 148.19976 35.399952 
C 118.284901 35.399952 89.59125 47.285251 68.438251 68.438251 
C 47.285251 89.59125 35.399952 118.284901 35.399952 148.19976 
C 35.399952 178.114619 47.285251 206.80827 68.438251 227.961269 
C 89.59125 249.114269 118.284901 260.999568 148.19976 260.999568 
L 148.19976 260.999568 
z
" clip-path="url(#pc26abdbbb0)" style="fill: none; opacity: 0.25; stroke: #000000; stroke-width: 3; stroke-linejoin: miter"/>
   </g>
   <g id="PathCollection_1">
    <defs>
     <path id="ma130f059a6" d="M -5 0 
L 5 0 
M 0 5 
L 0 -5 
" style="stroke: #0271ae; stroke-width: 2"/>
    </defs>
    <g clip-path="url(#pc26abdbbb0)">
     <use xlink:href="#ma130f059a6" x="260.999568" y="148.19976" style="fill: #0271ae; stroke: #0271ae; stroke-width: 2"/>
     <use xlink:href="#ma130f059a6" x="227.961269" y="68.438251" style="fill: #0271ae; stroke: #0271ae; stroke-width: 2"/>
     <use xlink:href="#ma130f059a6" x="148.19976" y="35.399952" style="fill: #0271ae; stroke: #0271ae; stroke-width: 2"/>
     <use xlink:href="#ma130f059a6" x="68.438251" y="68.438251" style="fill: #0271ae; stroke: #0271ae; stroke-width: 2"/>
    </g>
   </g>
   <g id="PathCollection_2">
    <defs>
     <path id="mc6a1c3a86d" d="M 5 0 
L -5 -0 
" style="stroke: #dc2830; stroke-width: 2"/>
    </defs>
    <g clip-path="url(#pc26abdbbb0)">
     <use xlink:href="#mc6a1c3a86d" x="35.399952" y="148.19976" style="fill: #dc2830; stroke: #dc2830; stroke-width: 2"/>
     <use xlink:href="#mc6a1c3a86d" x="68.438251" y="227.961269" style="fill: #dc2830; stroke: #dc2830; stroke-width: 2"/>
     <use xlink:href="#mc6a1c3a86d" x="148.19976" y="260.999568" style="fill: #dc2830; stroke: #dc2830; stroke-width: 2"/>
     <use xlink:href="#mc6a1c3a86d" x="227.961269" y="227.961269" style="fill: #dc2830; stroke: #dc2830; stroke-width: 2"/>
    </g>
   </g>
   <g id="text_1">
    <!-- 000 -->
    <g transform="translate(266.639558 145.379765)scale(0.1 -0.1)">
     <defs>
      <path id="URWPalladioL-Roma-30" d="M 1683 4416 
C 691 4416 186 3628 186 2076 
C 186 1326 320 679 544 365 
C 768 51 1126 -128 1523 -128 
C 2490 -128 2976 704 2976 2345 
C 2976 3749 2560 4416 1683 4416 
z
M 1568 4191 
C 2189 4191 2438 3563 2438 2025 
C 2438 660 2195 96 1606 96 
C 986 96 723 743 723 2307 
C 723 3660 960 4191 1568 4191 
z
" transform="scale(0.015625)"/>
     </defs>
     <use xlink:href="#URWPalladioL-Roma-30" transform="scale(0.996264)"/>
     <use xlink:href="#URWPalladioL-Roma-30" transform="translate(49.8132 0)scale(0.996264)"/>
     <use xlink:href="#URWPalladioL-Roma-30" transform="translate(99.626401 0)scale(0.996264)"/>
    </g>
   </g>
   <g id="text_2">
    <!-- (0) -->
    <g style="fill: #0271ae" transform="translate(272.279549 159.479741)scale(0.12 -0.12)">
     <defs>
      <path id="URWPalladioL-Roma-28" d="M 1926 -1242 
C 1466 -673 1299 -365 1133 211 
C 998 672 934 1158 934 1702 
C 934 2233 998 2688 1120 3104 
C 1286 3635 1459 3936 1926 4480 
L 1805 4646 
C 1139 4051 877 3699 634 3072 
C 467 2643 384 2188 384 1702 
C 384 1017 544 371 851 -205 
C 1075 -634 1280 -884 1805 -1377 
L 1926 -1242 
z
" transform="scale(0.015625)"/>
      <path id="URWPalladioL-Roma-29" d="M 326 -1377 
C 768 -961 954 -749 1152 -436 
C 1542 185 1747 928 1747 1696 
C 1747 2188 1664 2643 1498 3072 
C 1254 3693 992 4045 326 4646 
L 205 4480 
C 672 3929 845 3629 1005 3104 
C 1133 2688 1197 2233 1197 1702 
C 1197 1158 1133 672 998 211 
C 832 -365 666 -673 205 -1242 
L 326 -1377 
z
" transform="scale(0.015625)"/>
     </defs>
     <use xlink:href="#URWPalladioL-Roma-28" transform="scale(0.996264)"/>
     <use xlink:href="#URWPalladioL-Roma-30" transform="translate(33.17523 0)scale(0.996264)"/>
     <use xlink:href="#URWPalladioL-Roma-29" transform="translate(82.98843 0)scale(0.996264)"/>
    </g>
   </g>
   <g id="text_3">
    <!-- 001 -->
    <g transform="translate(233.60126 65.618256)scale(0.1 -0.1)">
     <defs>
      <path id="URWPalladioL-Roma-31" d="M 429 3571 
L 493 3571 
L 1318 3942 
C 1325 3949 1331 3949 1338 3949 
C 1376 3949 1389 3891 1389 3737 
L 1389 633 
C 1389 300 1318 230 973 211 
L 614 192 
L 614 0 
C 1600 0 1600 0 1670 0 
C 1754 0 1894 0 2112 -7 
C 2189 6 2413 6 2675 0 
L 2675 192 
L 2342 211 
C 1990 229 1926 299 1926 628 
L 1926 4383 
L 1837 4416 
C 1421 4199 966 4009 384 3807 
L 429 3571 
z
" transform="scale(0.015625)"/>
     </defs>
     <use xlink:href="#URWPalladioL-Roma-30" transform="scale(0.996264)"/>
     <use xlink:href="#URWPalladioL-Roma-30" transform="translate(49.8132 0)scale(0.996264)"/>
     <use xlink:href="#URWPalladioL-Roma-31" transform="translate(99.626401 0)scale(0.996264)"/>
    </g>
   </g>
   <g id="text_4">
    <!-- (1) -->
    <g style="fill: #0271ae" transform="translate(239.24125 79.718232)scale(0.12 -0.12)">
     <use xlink:href="#URWPalladioL-Roma-28" transform="scale(0.996264)"/>
     <use xlink:href="#URWPalladioL-Roma-31" transform="translate(33.17523 0)scale(0.996264)"/>
     <use xlink:href="#URWPalladioL-Roma-29" transform="translate(82.98843 0)scale(0.996264)"/>
    </g>
   </g>
   <g id="text_5">
    <!-- 010 -->
    <g transform="translate(153.83975 32.579957)scale(0.1 -0.1)">
     <use xlink:href="#URWPalladioL-Roma-30" transform="scale(0.996264)"/>
     <use xlink:href="#URWPalladioL-Roma-31" transform="translate(49.8132 0)scale(0.996264)"/>
     <use xlink:href="#URWPalladioL-Roma-30" transform="translate(99.626401 0)scale(0.996264)"/>
    </g>
   </g>
   <g id="text_6">
    <!-- (2) -->
    <g style="fill: #0271ae" transform="translate(159.479741 46.679933)scale(0.12 -0.12)">
     <defs>
      <path id="URWPalladioL-Roma-32" d="M 102 166 
L 102 0 
C 1299 0 1299 0 1530 0 
C 1760 19 1760 19 2995 0 
C 2982 134 2982 198 2982 287 
C 2982 370 2982 434 2995 574 
C 2259 542 1965 536 781 510 
L 1946 1741 
C 2566 2398 2758 2749 2758 3228 
C 2758 3961 2259 4416 1446 4416 
C 986 4416 672 4287 358 3967 
L 250 3100 
L 435 3100 
L 518 3394 
C 621 3763 851 3923 1280 3923 
C 1830 3923 2182 3578 2182 3036 
C 2182 2558 1914 2086 1190 1320 
L 102 166 
z
" transform="scale(0.015625)"/>
     </defs>
     <use xlink:href="#URWPalladioL-Roma-28" transform="scale(0.996264)"/>
     <use xlink:href="#URWPalladioL-Roma-32" transform="translate(33.17523 0)scale(0.996264)"/>
     <use xlink:href="#URWPalladioL-Roma-29" transform="translate(82.98843 0)scale(0.996264)"/>
    </g>
   </g>
   <g id="text_7">
    <!-- 011 -->
    <g transform="translate(74.078241 65.618256)scale(0.1 -0.1)">
     <use xlink:href="#URWPalladioL-Roma-30" transform="scale(0.996264)"/>
     <use xlink:href="#URWPalladioL-Roma-31" transform="translate(49.8132 0)scale(0.996264)"/>
     <use xlink:href="#URWPalladioL-Roma-31" transform="translate(99.626401 0)scale(0.996264)"/>
    </g>
   </g>
   <g id="text_8">
    <!-- (3) -->
    <g style="fill: #0271ae" transform="translate(79.718232 79.718232)scale(0.12 -0.12)">
     <defs>
      <path id="URWPalladioL-Roma-33" d="M 275 3196 
L 474 3196 
L 589 3553 
C 659 3770 1062 3987 1395 3987 
C 1811 3987 2150 3649 2150 3247 
C 2150 2769 1773 2368 1318 2368 
C 1267 2368 1197 2374 1114 2380 
L 1018 2387 
L 941 2047 
L 986 2008 
C 1229 2118 1350 2150 1523 2150 
C 2054 2150 2362 1808 2362 1222 
C 2362 565 1971 134 1376 134 
C 1082 134 819 231 627 411 
C 474 553 390 701 269 1048 
L 96 984 
C 230 591 282 359 320 38 
C 659 -77 941 -128 1178 -128 
C 1690 -128 2278 160 2630 591 
C 2848 855 2957 1139 2957 1441 
C 2957 1750 2829 2021 2598 2182 
C 2438 2297 2291 2348 1971 2406 
C 2483 2801 2675 3094 2675 3470 
C 2675 4038 2202 4416 1491 4416 
C 1056 4416 768 4294 461 3987 
L 275 3196 
z
" transform="scale(0.015625)"/>
     </defs>
     <use xlink:href="#URWPalladioL-Roma-28" transform="scale(0.996264)"/>
     <use xlink:href="#URWPalladioL-Roma-33" transform="translate(33.17523 0)scale(0.996264)"/>
     <use xlink:href="#URWPalladioL-Roma-29" transform="translate(82.98843 0)scale(0.996264)"/>
    </g>
   </g>
   <g id="text_9">
    <!-- 100 -->
    <g transform="translate(41.039942 145.379765)scale(0.1 -0.1)">
     <use xlink:href="#URWPalladioL-Roma-31" transform="scale(0.996264)"/>
     <use xlink:href="#URWPalladioL-Roma-30" transform="translate(49.8132 0)scale(0.996264)"/>
     <use xlink:href="#URWPalladioL-Roma-30" transform="translate(99.626401 0)scale(0.996264)"/>
    </g>
   </g>
   <g id="text_10">
    <!-- (-4) -->
    <g style="fill: #dc2830" transform="translate(46.679933 159.479741)scale(0.12 -0.12)">
     <defs>
      <path id="URWPalladioL-Roma-2d" d="M 1805 1395 
L 1997 1823 
L 1965 1856 
L 282 1856 
L 109 1427 
L 141 1395 
L 1805 1395 
z
" transform="scale(0.015625)"/>
      <path id="URWPalladioL-Roma-34" d="M 1792 1152 
L 1792 684 
C 1792 310 1722 223 1408 210 
L 1011 192 
L 1011 0 
C 1862 0 1862 0 2016 0 
C 2170 19 2170 19 3021 0 
L 3021 192 
L 2714 210 
C 2400 229 2330 310 2330 684 
L 2330 1152 
C 2707 1152 2842 1145 3021 1127 
L 3021 1580 
C 2720 1555 2598 1555 2502 1561 
L 2483 1561 
L 2330 1561 
L 2330 2445 
C 2330 3576 2342 4122 2374 4383 
L 2298 4416 
L 1824 4243 
L 13 1299 
L 83 1152 
L 1792 1152 
z
M 1792 1561 
L 416 1561 
L 1792 3798 
L 1792 1561 
z
" transform="scale(0.015625)"/>
     </defs>
     <use xlink:href="#URWPalladioL-Roma-28" transform="scale(0.996264)"/>
     <use xlink:href="#URWPalladioL-Roma-2d" transform="translate(33.17523 0)scale(0.996264)"/>
     <use xlink:href="#URWPalladioL-Roma-34" transform="translate(66.350459 0)scale(0.996264)"/>
     <use xlink:href="#URWPalladioL-Roma-29" transform="translate(116.16366 0)scale(0.996264)"/>
    </g>
   </g>
   <g id="text_11">
    <!-- 101 -->
    <g transform="translate(74.078241 225.141274)scale(0.1 -0.1)">
     <use xlink:href="#URWPalladioL-Roma-31" transform="scale(0.996264)"/>
     <use xlink:href="#URWPalladioL-Roma-30" transform="translate(49.8132 0)scale(0.996264)"/>
     <use xlink:href="#URWPalladioL-Roma-31" transform="translate(99.626401 0)scale(0.996264)"/>
    </g>
   </g>
   <g id="text_12">
    <!-- (-3) -->
    <g style="fill: #dc2830" transform="translate(79.718232 239.24125)scale(0.12 -0.12)">
     <use xlink:href="#URWPalladioL-Roma-28" transform="scale(0.996264)"/>
     <use xlink:href="#URWPalladioL-Roma-2d" transform="translate(33.17523 0)scale(0.996264)"/>
     <use xlink:href="#URWPalladioL-Roma-33" transform="translate(66.350459 0)scale(0.996264)"/>
     <use xlink:href="#URWPalladioL-Roma-29" transform="translate(116.16366 0)scale(0.996264)"/>
    </g>
   </g>
   <g id="text_13">
    <!-- 110 -->
    <g transform="translate(153.83975 258.179573)scale(0.1 -0.1)">
     <use xlink:href="#URWPalladioL-Roma-31" transform="scale(0.996264)"/>
     <use xlink:href="#URWPalladioL-Roma-31" transform="translate(49.8132 0)scale(0.996264)"/>
     <use xlink:href="#URWPalladioL-Roma-30" transform="translate(99.626401 0)scale(0.996264)"/>
    </g>
   </g>
   <g id="text_14">
    <!-- (-2) -->
    <g style="fill: #dc2830" transform="translate(159.479741 272.279549)scale(0.12 -0.12)">
     <use xlink:href="#URWPalladioL-Roma-28" transform="scale(0.996264)"/>
     <use xlink:href="#URWPalladioL-Roma-2d" transform="translate(33.17523 0)scale(0.996264)"/>
     <use xlink:href="#URWPalladioL-Roma-32" transform="translate(66.350459 0)scale(0.996264)"/>
     <use xlink:href="#URWPalladioL-Roma-29" transform="translate(116.16366 0)scale(0.996264)"/>
    </g>
   </g>
   <g id="text_15">
    <!-- 111 -->
    <g transform="translate(233.60126 225.141274)scale(0.1 -0.1)">
     <use xlink:href="#URWPalladioL-Roma-31" transform="scale(0.996264)"/>
     <use xlink:href="#URWPalladioL-Roma-31" transform="translate(49.8132 0)scale(0.996264)"/>
     <use xlink:href="#URWPalladioL-Roma-31" transform="translate(99.626401 0)scale(0.996264)"/>
    </g>
   </g>
   <g id="text_16">
    <!-- (-1) -->
    <g style="fill: #dc2830" transform="translate(239.24125 239.24125)scale(0.12 -0.12)">
     <use xlink:href="#URWPalladioL-Roma-28" transform="scale(0.996264)"/>
     <use xlink:href="#URWPalladioL-Roma-2d" transform="translate(33.17523 0)scale(0.996264)"/>
     <use xlink:href="#URWPalladioL-Roma-31" transform="translate(66.350459 0)scale(0.996264)"/>
     <use xlink:href="#URWPalladioL-Roma-29" transform="translate(116.16366 0)scale(0.996264)"/>
    </g>
   </g>
   <g id="legend_1">
    <g id="patch_3">
     <path d="M 104.716496 171.212462 
L 191.683024 171.212462 
Q 194.483024 171.212462 194.483024 168.412462 
L 194.483024 127.987058 
Q 194.483024 125.187058 191.683024 125.187058 
L 104.716496 125.187058 
Q 101.916496 125.187058 101.916496 127.987058 
L 101.916496 168.412462 
Q 101.916496 171.212462 104.716496 171.212462 
z
" style="fill: #ffffff; opacity: 0.95; stroke: #cccccc; stroke-width: 0.5; stroke-linejoin: miter"/>
    </g>
    <g id="PathCollection_3">
     <g>
      <use xlink:href="#ma130f059a6" x="114.516496" y="137.091588" style="fill: #0271ae; stroke: #0271ae; stroke-width: 2"/>
     </g>
    </g>
    <g id="text_17">
     <!-- Positive -->
     <g transform="translate(132.716496 140.766588)scale(0.14 -0.14)">
      <defs>
       <path id="URWPalladioL-Roma-50" d="M 1382 4097 
C 1606 4147 1792 4172 2010 4172 
C 2701 4172 3072 3859 3072 3263 
C 3072 2699 2682 2304 2125 2304 
C 1990 2304 1894 2316 1728 2366 
L 1792 2137 
C 1946 2105 2035 2099 2163 2099 
C 3040 2099 3712 2686 3712 3439 
C 3712 4041 3213 4416 2400 4416 
C 2368 4416 2304 4416 2221 4409 
C 1984 4403 1498 4396 1312 4396 
C 1171 4396 1171 4396 147 4416 
L 147 4223 
L 435 4204 
C 723 4185 774 4103 774 3633 
L 774 782 
C 774 280 742 230 448 211 
L 141 192 
L 141 0 
C 518 -7 742 0 1075 0 
C 1408 19 1638 12 2016 0 
L 2016 192 
L 1709 211 
C 1414 230 1382 281 1382 787 
L 1382 4097 
z
" transform="scale(0.015625)"/>
       <path id="URWPalladioL-Roma-6f" d="M 1786 3008 
C 851 3008 205 2347 205 1391 
C 205 487 774 -128 1600 -128 
C 2586 -128 3290 557 3290 1520 
C 3290 2386 2662 3008 1786 3008 
z
M 1670 2796 
C 2259 2796 2694 2155 2694 1282 
C 2694 545 2368 83 1850 83 
C 1222 83 800 699 800 1609 
C 800 2379 1107 2796 1670 2796 
z
" transform="scale(0.015625)"/>
       <path id="URWPalladioL-Roma-73" d="M 262 917 
C 262 474 243 282 192 25 
C 525 -84 774 -128 1069 -128 
C 1907 -128 2502 320 2502 949 
C 2502 1148 2445 1295 2323 1423 
C 2157 1584 1946 1661 1382 1770 
C 858 1872 685 2001 685 2296 
C 685 2617 909 2796 1299 2796 
C 1728 2796 2054 2572 2054 2270 
L 2054 2123 
L 2234 2123 
C 2240 2495 2246 2649 2266 2847 
C 1926 2963 1696 3008 1434 3008 
C 691 3008 237 2655 237 2078 
C 237 1770 378 1552 672 1417 
C 845 1340 1184 1237 1619 1141 
C 1907 1077 2029 942 2029 698 
C 2029 352 1709 108 1254 108 
C 787 108 454 333 454 654 
L 454 917 
L 262 917 
z
" transform="scale(0.015625)"/>
       <path id="URWPalladioL-Roma-69" d="M 1203 2982 
L 1146 3008 
C 819 2873 486 2784 147 2746 
L 147 2568 
L 384 2568 
C 640 2568 666 2523 666 2103 
L 666 669 
C 666 268 646 223 429 211 
L 134 192 
L 134 0 
C 774 0 774 0 934 0 
C 1094 19 1094 19 1734 0 
L 1734 192 
L 1440 211 
C 1222 224 1203 268 1203 671 
L 1203 2982 
z
M 909 4416 
C 717 4416 550 4249 550 4057 
C 550 3871 717 3705 902 3705 
C 1088 3705 1261 3871 1261 4057 
C 1261 4236 1088 4416 909 4416 
z
" transform="scale(0.015625)"/>
       <path id="URWPalladioL-Roma-74" d="M 627 2457 
L 627 614 
C 627 140 838 -64 1331 -64 
C 1478 -64 1632 -32 1670 12 
L 1978 352 
L 1894 460 
C 1734 371 1638 339 1517 339 
C 1267 339 1165 467 1165 780 
L 1165 2457 
L 1984 2457 
L 2042 2803 
L 1165 2764 
L 1165 3008 
C 1165 3277 1184 3507 1235 3917 
L 1158 3987 
C 1005 3891 813 3808 614 3744 
C 634 3552 640 3430 640 3238 
L 640 2790 
L 141 2566 
L 141 2432 
L 627 2457 
z
" transform="scale(0.015625)"/>
       <path id="URWPalladioL-Roma-76" d="M 3450 2739 
L 3450 2918 
C 3066 2905 2950 2899 2848 2899 
C 2746 2899 2630 2905 2246 2918 
L 2246 2739 
L 2509 2726 
C 2611 2720 2662 2662 2662 2560 
C 2662 2457 2618 2284 2541 2092 
L 2272 1414 
C 2195 1228 2118 1049 1875 518 
L 1114 2361 
C 1075 2451 1056 2534 1056 2604 
C 1056 2675 1114 2720 1216 2726 
L 1530 2739 
L 1530 2918 
C 902 2899 902 2899 781 2899 
C 659 2899 352 2905 38 2918 
L 38 2739 
L 256 2726 
C 352 2713 384 2675 454 2515 
L 1555 -64 
L 1875 -64 
C 1914 44 1978 211 1978 224 
C 2048 416 2131 633 2138 633 
L 2893 2297 
C 3034 2598 3123 2713 3251 2726 
L 3450 2739 
z
" transform="scale(0.015625)"/>
       <path id="URWPalladioL-Roma-65" d="M 2797 447 
L 2714 511 
C 2304 268 2157 211 1882 211 
C 1466 211 1120 396 941 710 
C 819 921 774 1100 762 1472 
L 1696 1472 
C 2138 1472 2413 1491 2854 1561 
C 2861 1651 2867 1708 2867 1786 
C 2867 2526 2394 3008 1677 3008 
C 1440 3008 1165 2924 902 2771 
C 378 2468 166 2069 166 1401 
C 166 998 262 652 435 409 
C 691 70 1120 -128 1600 -128 
C 1837 -128 2074 -77 2336 38 
C 2509 108 2643 192 2669 230 
L 2797 447 
z
M 2298 1708 
C 1965 1696 1811 1689 1581 1689 
C 1286 1689 1120 1696 774 1728 
C 774 2030 800 2172 883 2339 
C 1018 2623 1293 2796 1600 2796 
C 1811 2796 1978 2713 2093 2539 
C 2234 2326 2278 2140 2298 1708 
z
" transform="scale(0.015625)"/>
      </defs>
      <use xlink:href="#URWPalladioL-Roma-50" transform="scale(0.996264)"/>
      <use xlink:href="#URWPalladioL-Roma-6f" transform="translate(60.173595 0)scale(0.996264)"/>
      <use xlink:href="#URWPalladioL-Roma-73" transform="translate(114.569175 0)scale(0.996264)"/>
      <use xlink:href="#URWPalladioL-Roma-69" transform="translate(156.810642 0)scale(0.996264)"/>
      <use xlink:href="#URWPalladioL-Roma-74" transform="translate(185.801003 0)scale(0.996264)"/>
      <use xlink:href="#URWPalladioL-Roma-69" transform="translate(218.278091 0)scale(0.996264)"/>
      <use xlink:href="#URWPalladioL-Roma-76" transform="translate(247.268453 0)scale(0.996264)"/>
      <use xlink:href="#URWPalladioL-Roma-65" transform="translate(303.556366 0)scale(0.996264)"/>
     </g>
    </g>
    <g id="PathCollection_4">
     <g>
      <use xlink:href="#mc6a1c3a86d" x="114.516496" y="158.004289" style="fill: #dc2830; stroke: #dc2830; stroke-width: 2"/>
     </g>
    </g>
    <g id="text_18">
     <!-- Negative -->
     <g transform="translate(132.716496 161.679289)scale(0.14 -0.14)">
      <defs>
       <path id="URWPalladioL-Roma-4e" d="M 877 4396 
C 518 4403 461 4403 109 4416 
L 109 4223 
L 390 4204 
C 685 4185 717 4128 717 3633 
L 717 782 
C 717 287 685 230 390 211 
L 109 192 
L 109 0 
C 742 0 742 0 851 0 
C 947 19 947 19 1619 0 
L 1619 192 
L 1338 211 
C 1043 230 1011 287 1011 782 
L 1011 3722 
L 4038 -7 
L 4614 -109 
C 4614 -84 4614 -77 4608 -33 
C 4602 38 4595 89 4595 128 
L 4595 3633 
C 4595 4128 4627 4185 4922 4204 
L 5203 4223 
L 5203 4416 
C 4531 4396 4531 4396 4435 4396 
C 4326 4396 4326 4396 3693 4416 
L 3693 4223 
L 3974 4204 
C 4269 4185 4301 4128 4301 3633 
L 4301 642 
L 1222 4416 
L 877 4396 
z
" transform="scale(0.015625)"/>
       <path id="URWPalladioL-Roma-67" d="M 3322 2452 
L 3482 2713 
L 3456 2790 
L 2547 2764 
C 2310 2956 2080 3033 1766 3033 
C 1485 3033 1158 2944 896 2790 
C 538 2586 352 2274 352 1885 
C 352 1413 646 1087 1120 1036 
L 614 638 
C 550 540 518 455 518 358 
C 518 179 634 76 941 -13 
L 384 -315 
C 294 -367 205 -604 205 -804 
C 205 -1388 774 -1792 1587 -1792 
C 2554 -1792 3315 -1183 3315 -399 
C 3315 64 3008 384 2560 384 
L 1536 384 
C 1203 384 1050 462 1050 638 
C 1050 723 1101 795 1267 939 
C 1306 972 1318 985 1344 1011 
C 1408 1004 1446 998 1498 998 
C 1773 998 2112 1119 2374 1305 
C 2662 1515 2803 1770 2803 2108 
C 2803 2235 2784 2318 2733 2452 
L 3322 2452 
z
M 1536 2816 
C 1971 2816 2266 2458 2266 1917 
C 2266 1502 1997 1216 1606 1216 
C 1178 1216 890 1547 890 2038 
C 890 2529 1126 2816 1536 2816 
z
M 1837 -64 
C 2560 -64 2810 -212 2810 -630 
C 2810 -1183 2304 -1594 1632 -1594 
C 1075 -1594 691 -1266 691 -791 
C 691 -502 858 -238 1114 -129 
C 1216 -77 1395 -64 1837 -64 
z
" transform="scale(0.015625)"/>
       <path id="URWPalladioL-Roma-61" d="M 2074 544 
L 2042 0 
C 2458 0 2458 0 2541 0 
C 2573 19 2733 12 3014 0 
L 3014 192 
L 2765 204 
C 2611 211 2586 262 2586 576 
L 2586 1751 
C 2586 2688 2317 3027 1574 3027 
C 1299 3027 1043 2956 800 2809 
L 461 2604 
L 461 2187 
L 627 2142 
L 710 2341 
C 845 2642 909 2688 1203 2688 
C 1805 2688 2054 2450 2074 1866 
L 1440 1751 
C 570 1590 205 1289 205 730 
C 205 224 506 -64 1011 -64 
C 1126 -64 1235 -45 1280 -13 
L 2074 544 
z
M 2074 806 
C 1888 544 1485 300 1235 300 
C 979 300 755 537 755 812 
C 755 1049 883 1273 1075 1395 
C 1235 1491 1587 1580 2074 1651 
L 2074 806 
z
" transform="scale(0.015625)"/>
      </defs>
      <use xlink:href="#URWPalladioL-Roma-4e" transform="scale(0.996264)"/>
      <use xlink:href="#URWPalladioL-Roma-65" transform="translate(82.788907 0)scale(0.996264)"/>
      <use xlink:href="#URWPalladioL-Roma-67" transform="translate(130.509202 0)scale(0.996264)"/>
      <use xlink:href="#URWPalladioL-Roma-61" transform="translate(185.900879 0)scale(0.996264)"/>
      <use xlink:href="#URWPalladioL-Roma-74" transform="translate(235.714079 0)scale(0.996264)"/>
      <use xlink:href="#URWPalladioL-Roma-69" transform="translate(268.191167 0)scale(0.996264)"/>
      <use xlink:href="#URWPalladioL-Roma-76" transform="translate(297.181529 0)scale(0.996264)"/>
      <use xlink:href="#URWPalladioL-Roma-65" transform="translate(353.469442 0)scale(0.996264)"/>
     </g>
    </g>
   </g>
  </g>
 </g>
 <defs>
  <clipPath id="pc26abdbbb0">
   <rect x="7.2" y="7.2" width="281.99952" height="281.99952"/>
  </clipPath>
 </defs>
</svg>