<?xml version="1.0" encoding="utf-8" standalone="no"?>
<!DOCTYPE svg PUBLIC "-//W3C//DTD SVG 1.1//EN"
  "http://www.w3.org/Graphics/SVG/1.1/DTD/svg11.dtd">
<svg xmlns:xlink="http://www.w3.org/1999/xlink" width="584.39952pt" height="152.39952pt" viewBox="0 0 584.39952 152.39952" xmlns="http://www.w3.org/2000/svg" version="1.1">
 <metadata>
  <rdf:RDF xmlns:dc="http://purl.org/dc/elements/1.1/" xmlns:cc="http://creativecommons.org/ns#" xmlns:rdf="http://www.w3.org/1999/02/22-rdf-syntax-ns#">
   <cc:Work>
    <dc:type rdf:resource="http://purl.org/dc/dcmitype/StillImage"/>
    <dc:date>2022-08-25T10:02:56.999353</dc:date>
    <dc:format>image/svg+xml</dc:format>
    <dc:creator>
     <cc:Agent>
      <dc:title>Matplotlib v3.5.2, https://matplotlib.org/</dc:title>
     </cc:Agent>
    </dc:creator>
   </cc:Work>
  </rdf:RDF>
 </metadata>
 <defs>
  <style type="text/css">*{stroke-linejoin: round; stroke-linecap: butt}</style>
 </defs>
 <g id="figure_1">
  <g id="patch_1">
   <path d="M 0 152.39952 
L 584.39952 152.39952 
L 584.39952 0 
L 0 0 
L 0 152.39952 
z
" style="fill: none"/>
  </g>
  <g id="axes_1">
   <g id="patch_2">
    <path d="M 26.62516 99.861659 
L 568.48221 99.861659 
L 568.48221 39.312702 
L 26.62516 39.312702 
L 26.62516 99.861659 
z
" style="fill: none"/>
   </g>
   <g id="line2d_1">
    <path d="M 26.62516 72.298645 
L 568.48221 72.298645 
" clip-path="url(#p1a306e20c2)" style="fill: none; stroke: #dc2830; stroke-width: 2; stroke-linecap: round"/>
   </g>
   <g id="line2d_2">
    <path d="M 26.62516 42.064927 
L 568.48221 42.064927 
" clip-path="url(#p1a306e20c2)" style="fill: none; stroke: #f2aa00; stroke-width: 2; stroke-linecap: round"/>
   </g>
   <g id="line2d_3">
    <path d="M 297.553685 72.359234 
L 297.553685 42.064927 
" clip-path="url(#p1a306e20c2)" style="fill: none; stroke: #f2aa00; stroke-width: 2; stroke-linecap: round"/>
   </g>
   <g id="matplotlib.axis_1">
    <g id="xtick_1">
     <g id="line2d_4">
      <path d="M 26.62516 99.861659 
L 26.62516 39.312702 
" clip-path="url(#p1a306e20c2)" style="fill: none; stroke: #000000; stroke-opacity: 0.2; stroke-width: 0.5; stroke-linecap: round"/>
     </g>
     <g id="line2d_5">
      <defs>
       <path id="m6bd5055a87" d="M 0 0 
L 0 3.5 
" style="stroke: #000000; stroke-opacity: 0.2; stroke-width: 0.5"/>
      </defs>
      <g>
       <use xlink:href="#m6bd5055a87" x="26.62516" y="99.861659" style="fill-opacity: 0.2; stroke: #000000; stroke-opacity: 0.2; stroke-width: 0.5"/>
      </g>
     </g>
     <g id="text_1">
      <!-- $\mathdefault{0.0}$ -->
      <g transform="translate(17.90785 125.341188)scale(0.14 -0.14)">
       <defs>
        <path id="URWPalladioL-Roma-30" d="M 1683 4416 
C 691 4416 186 3628 186 2076 
C 186 1326 320 679 544 365 
C 768 51 1126 -128 1523 -128 
C 2490 -128 2976 704 2976 2345 
C 2976 3749 2560 4416 1683 4416 
z
M 1568 4191 
C 2189 4191 2438 3563 2438 2025 
C 2438 660 2195 96 1606 96 
C 986 96 723 743 723 2307 
C 723 3660 960 4191 1568 4191 
z
" transform="scale(0.015625)"/>
        <path id="URWPalladioL-Roma-2e" d="M 794 678 
C 602 678 429 499 429 307 
C 429 115 602 -64 787 -64 
C 992 -64 1171 108 1171 307 
C 1171 499 992 678 794 678 
z
" transform="scale(0.015625)"/>
       </defs>
       <use xlink:href="#URWPalladioL-Roma-30" transform="scale(0.996264)"/>
       <use xlink:href="#URWPalladioL-Roma-2e" transform="translate(49.8132 0)scale(0.996264)"/>
       <use xlink:href="#URWPalladioL-Roma-30" transform="translate(74.719801 0)scale(0.996264)"/>
      </g>
     </g>
    </g>
    <g id="xtick_2">
     <g id="line2d_6">
      <path d="M 134.99657 99.861659 
L 134.99657 39.312702 
" clip-path="url(#p1a306e20c2)" style="fill: none; stroke: #000000; stroke-opacity: 0.2; stroke-width: 0.5; stroke-linecap: round"/>
     </g>
     <g id="line2d_7">
      <g>
       <use xlink:href="#m6bd5055a87" x="134.99657" y="99.861659" style="fill-opacity: 0.2; stroke: #000000; stroke-opacity: 0.2; stroke-width: 0.5"/>
      </g>
     </g>
     <g id="text_2">
      <!-- $\mathdefault{0.2}$ -->
      <g transform="translate(126.27926 125.341188)scale(0.14 -0.14)">
       <defs>
        <path id="URWPalladioL-Roma-32" d="M 102 166 
L 102 0 
C 1299 0 1299 0 1530 0 
C 1760 19 1760 19 2995 0 
C 2982 134 2982 198 2982 287 
C 2982 370 2982 434 2995 574 
C 2259 542 1965 536 781 510 
L 1946 1741 
C 2566 2398 2758 2749 2758 3228 
C 2758 3961 2259 4416 1446 4416 
C 986 4416 672 4287 358 3967 
L 250 3100 
L 435 3100 
L 518 3394 
C 621 3763 851 3923 1280 3923 
C 1830 3923 2182 3578 2182 3036 
C 2182 2558 1914 2086 1190 1320 
L 102 166 
z
" transform="scale(0.015625)"/>
       </defs>
       <use xlink:href="#URWPalladioL-Roma-30" transform="scale(0.996264)"/>
       <use xlink:href="#URWPalladioL-Roma-2e" transform="translate(49.8132 0)scale(0.996264)"/>
       <use xlink:href="#URWPalladioL-Roma-32" transform="translate(74.719801 0)scale(0.996264)"/>
      </g>
     </g>
    </g>
    <g id="xtick_3">
     <g id="line2d_8">
      <path d="M 243.36798 99.861659 
L 243.36798 39.312702 
" clip-path="url(#p1a306e20c2)" style="fill: none; stroke: #000000; stroke-opacity: 0.2; stroke-width: 0.5; stroke-linecap: round"/>
     </g>
     <g id="line2d_9">
      <g>
       <use xlink:href="#m6bd5055a87" x="243.36798" y="99.861659" style="fill-opacity: 0.2; stroke: #000000; stroke-opacity: 0.2; stroke-width: 0.5"/>
      </g>
     </g>
     <g id="text_3">
      <!-- $\mathdefault{0.4}$ -->
      <g transform="translate(234.65067 125.341188)scale(0.14 -0.14)">
       <defs>
        <path id="URWPalladioL-Roma-34" d="M 1792 1152 
L 1792 684 
C 1792 310 1722 223 1408 210 
L 1011 192 
L 1011 0 
C 1862 0 1862 0 2016 0 
C 2170 19 2170 19 3021 0 
L 3021 192 
L 2714 210 
C 2400 229 2330 310 2330 684 
L 2330 1152 
C 2707 1152 2842 1145 3021 1127 
L 3021 1580 
C 2720 1555 2598 1555 2502 1561 
L 2483 1561 
L 2330 1561 
L 2330 2445 
C 2330 3576 2342 4122 2374 4383 
L 2298 4416 
L 1824 4243 
L 13 1299 
L 83 1152 
L 1792 1152 
z
M 1792 1561 
L 416 1561 
L 1792 3798 
L 1792 1561 
z
" transform="scale(0.015625)"/>
       </defs>
       <use xlink:href="#URWPalladioL-Roma-30" transform="scale(0.996264)"/>
       <use xlink:href="#URWPalladioL-Roma-2e" transform="translate(49.8132 0)scale(0.996264)"/>
       <use xlink:href="#URWPalladioL-Roma-34" transform="translate(74.719801 0)scale(0.996264)"/>
      </g>
     </g>
    </g>
    <g id="xtick_4">
     <g id="line2d_10">
      <path d="M 351.73939 99.861659 
L 351.73939 39.312702 
" clip-path="url(#p1a306e20c2)" style="fill: none; stroke: #000000; stroke-opacity: 0.2; stroke-width: 0.5; stroke-linecap: round"/>
     </g>
     <g id="line2d_11">
      <g>
       <use xlink:href="#m6bd5055a87" x="351.73939" y="99.861659" style="fill-opacity: 0.2; stroke: #000000; stroke-opacity: 0.2; stroke-width: 0.5"/>
      </g>
     </g>
     <g id="text_4">
      <!-- $\mathdefault{0.6}$ -->
      <g transform="translate(343.02208 125.341188)scale(0.14 -0.14)">
       <defs>
        <path id="URWPalladioL-Roma-36" d="M 2662 4287 
L 2426 4396 
C 1811 4193 1549 4066 1222 3788 
C 563 3237 205 2463 205 1585 
C 205 526 717 -128 1542 -128 
C 2374 -128 2995 532 2995 1405 
C 2995 2143 2554 2624 1875 2624 
C 1555 2624 1363 2540 986 2239 
C 915 2182 909 2175 838 2124 
C 973 3275 1510 3895 2662 4237 
L 2662 4287 
z
M 1632 2239 
C 2118 2239 2445 1816 2445 1180 
C 2445 513 2118 83 1626 83 
C 1082 83 787 551 787 1411 
C 787 1636 813 1758 883 1867 
C 1024 2085 1325 2239 1632 2239 
z
" transform="scale(0.015625)"/>
       </defs>
       <use xlink:href="#URWPalladioL-Roma-30" transform="scale(0.996264)"/>
       <use xlink:href="#URWPalladioL-Roma-2e" transform="translate(49.8132 0)scale(0.996264)"/>
       <use xlink:href="#URWPalladioL-Roma-36" transform="translate(74.719801 0)scale(0.996264)"/>
      </g>
     </g>
    </g>
    <g id="xtick_5">
     <g id="line2d_12">
      <path d="M 460.1108 99.861659 
L 460.1108 39.312702 
" clip-path="url(#p1a306e20c2)" style="fill: none; stroke: #000000; stroke-opacity: 0.2; stroke-width: 0.5; stroke-linecap: round"/>
     </g>
     <g id="line2d_13">
      <g>
       <use xlink:href="#m6bd5055a87" x="460.1108" y="99.861659" style="fill-opacity: 0.2; stroke: #000000; stroke-opacity: 0.2; stroke-width: 0.5"/>
      </g>
     </g>
     <g id="text_5">
      <!-- $\mathdefault{0.8}$ -->
      <g transform="translate(451.39349 125.341188)scale(0.14 -0.14)">
       <defs>
        <path id="URWPalladioL-Roma-38" d="M 1075 2211 
C 813 2089 704 2019 563 1884 
C 320 1640 192 1352 192 1019 
C 192 358 723 -128 1446 -128 
C 2278 -128 2970 525 2970 1320 
C 2970 1833 2733 2108 2003 2442 
C 2586 2839 2790 3108 2790 3493 
C 2790 4044 2336 4416 1658 4416 
C 896 4416 339 3929 339 3256 
C 339 2820 512 2576 1075 2211 
z
M 1818 1890 
C 2221 1711 2464 1397 2464 1051 
C 2464 512 2061 89 1542 89 
C 998 89 646 474 646 1070 
C 646 1538 832 1833 1306 2121 
L 1818 1890 
z
M 1427 2711 
C 1024 2910 819 3166 819 3486 
C 819 3910 1126 4198 1581 4198 
C 2048 4198 2355 3890 2355 3422 
C 2355 3057 2195 2807 1779 2538 
L 1427 2711 
z
" transform="scale(0.015625)"/>
       </defs>
       <use xlink:href="#URWPalladioL-Roma-30" transform="scale(0.996264)"/>
       <use xlink:href="#URWPalladioL-Roma-2e" transform="translate(49.8132 0)scale(0.996264)"/>
       <use xlink:href="#URWPalladioL-Roma-38" transform="translate(74.719801 0)scale(0.996264)"/>
      </g>
     </g>
    </g>
    <g id="xtick_6">
     <g id="line2d_14">
      <path d="M 568.48221 99.861659 
L 568.48221 39.312702 
" clip-path="url(#p1a306e20c2)" style="fill: none; stroke: #000000; stroke-opacity: 0.2; stroke-width: 0.5; stroke-linecap: round"/>
     </g>
     <g id="line2d_15">
      <g>
       <use xlink:href="#m6bd5055a87" x="568.48221" y="99.861659" style="fill-opacity: 0.2; stroke: #000000; stroke-opacity: 0.2; stroke-width: 0.5"/>
      </g>
     </g>
     <g id="text_6">
      <!-- $\mathdefault{1.0}$ -->
      <g transform="translate(559.7649 125.341188)scale(0.14 -0.14)">
       <defs>
        <path id="URWPalladioL-Roma-31" d="M 429 3571 
L 493 3571 
L 1318 3942 
C 1325 3949 1331 3949 1338 3949 
C 1376 3949 1389 3891 1389 3737 
L 1389 633 
C 1389 300 1318 230 973 211 
L 614 192 
L 614 0 
C 1600 0 1600 0 1670 0 
C 1754 0 1894 0 2112 -7 
C 2189 6 2413 6 2675 0 
L 2675 192 
L 2342 211 
C 1990 229 1926 299 1926 628 
L 1926 4383 
L 1837 4416 
C 1421 4199 966 4009 384 3807 
L 429 3571 
z
" transform="scale(0.015625)"/>
       </defs>
       <use xlink:href="#URWPalladioL-Roma-31" transform="scale(0.996264)"/>
       <use xlink:href="#URWPalladioL-Roma-2e" transform="translate(49.8132 0)scale(0.996264)"/>
       <use xlink:href="#URWPalladioL-Roma-30" transform="translate(74.719801 0)scale(0.996264)"/>
      </g>
     </g>
    </g>
    <g id="text_7">
     <!-- Time [seconds] -->
     <g transform="translate(257.880833 141.828236)scale(0.12 -0.12)">
      <defs>
       <path id="URWPalladioL-Roma-54" d="M 1632 4096 
C 1651 3880 1658 3734 1658 3462 
L 1658 781 
C 1658 280 1626 230 1331 211 
L 1024 192 
L 1024 0 
C 1402 -7 1626 0 1958 0 
C 2291 19 2522 12 2899 0 
L 2899 192 
L 2592 211 
C 2298 230 2266 280 2266 781 
L 2266 3462 
C 2266 3747 2272 3887 2291 4096 
L 3283 4096 
C 3462 4096 3533 4039 3539 3887 
L 3565 3386 
L 3763 3386 
C 3763 3801 3776 4051 3808 4416 
C 3347 4409 3136 4409 2957 4403 
C 2707 4390 2522 4390 2426 4390 
L 1414 4390 
C 1350 4390 1005 4396 550 4403 
L 115 4416 
C 147 4051 160 3801 160 3385 
L 358 3385 
L 384 3891 
C 390 4038 461 4096 640 4096 
L 1632 4096 
z
" transform="scale(0.015625)"/>
       <path id="URWPalladioL-Roma-69" d="M 1203 2982 
L 1146 3008 
C 819 2873 486 2784 147 2746 
L 147 2568 
L 384 2568 
C 640 2568 666 2523 666 2103 
L 666 669 
C 666 268 646 223 429 211 
L 134 192 
L 134 0 
C 774 0 774 0 934 0 
C 1094 19 1094 19 1734 0 
L 1734 192 
L 1440 211 
C 1222 224 1203 268 1203 671 
L 1203 2982 
z
M 909 4416 
C 717 4416 550 4249 550 4057 
C 550 3871 717 3705 902 3705 
C 1088 3705 1261 3871 1261 4057 
C 1261 4236 1088 4416 909 4416 
z
" transform="scale(0.015625)"/>
       <path id="URWPalladioL-Roma-6d" d="M 115 2579 
L 352 2579 
C 608 2579 634 2534 634 2112 
L 634 672 
C 634 268 614 224 397 211 
L 102 192 
L 102 0 
C 717 0 736 0 915 0 
C 1094 19 1261 12 1677 0 
L 1677 192 
L 1408 211 
C 1190 223 1171 268 1171 670 
L 1171 2023 
C 1171 2311 1594 2624 1978 2624 
C 2323 2624 2560 2298 2560 1813 
L 2560 670 
C 2560 268 2541 223 2323 211 
L 2029 192 
L 2029 0 
C 2669 0 2669 0 2829 0 
C 2989 19 2989 19 3629 0 
L 3629 192 
L 3334 211 
C 3117 223 3098 268 3098 670 
L 3098 2023 
C 3098 2311 3520 2624 3904 2624 
C 4250 2624 4486 2298 4486 1813 
L 4486 0 
C 4877 0 4883 0 4992 0 
C 5075 19 5075 19 5562 0 
L 5562 192 
L 5261 211 
C 5043 223 5024 268 5024 670 
L 5024 1985 
C 5024 2617 4653 3014 4064 3014 
C 3840 3014 3654 2956 3539 2854 
L 3053 2419 
C 2848 2841 2586 3014 2144 3014 
C 1907 3014 1728 2956 1613 2854 
L 1171 2445 
L 1171 2988 
L 1114 3008 
C 787 2873 454 2783 115 2745 
L 115 2579 
z
" transform="scale(0.015625)"/>
       <path id="URWPalladioL-Roma-65" d="M 2797 447 
L 2714 511 
C 2304 268 2157 211 1882 211 
C 1466 211 1120 396 941 710 
C 819 921 774 1100 762 1472 
L 1696 1472 
C 2138 1472 2413 1491 2854 1561 
C 2861 1651 2867 1708 2867 1786 
C 2867 2526 2394 3008 1677 3008 
C 1440 3008 1165 2924 902 2771 
C 378 2468 166 2069 166 1401 
C 166 998 262 652 435 409 
C 691 70 1120 -128 1600 -128 
C 1837 -128 2074 -77 2336 38 
C 2509 108 2643 192 2669 230 
L 2797 447 
z
M 2298 1708 
C 1965 1696 1811 1689 1581 1689 
C 1286 1689 1120 1696 774 1728 
C 774 2030 800 2172 883 2339 
C 1018 2623 1293 2796 1600 2796 
C 1811 2796 1978 2713 2093 2539 
C 2234 2326 2278 2140 2298 1708 
z
" transform="scale(0.015625)"/>
       <path id="URWPalladioL-Roma-5b" d="M 563 -1178 
C 1018 -1166 1030 -1166 1184 -1166 
C 1338 -1166 1370 -1166 1805 -1178 
L 1843 -1140 
L 1843 -974 
L 1818 -942 
L 1574 -942 
C 1402 -942 1261 -903 1184 -839 
C 1126 -782 1107 -692 1107 -481 
C 1107 -474 1107 -340 1101 -148 
L 1101 89 
L 1101 3379 
L 1101 3615 
C 1107 3795 1107 3935 1107 3942 
C 1107 4153 1126 4249 1184 4307 
C 1261 4371 1402 4409 1574 4409 
L 1818 4409 
L 1843 4441 
L 1843 4608 
L 1805 4646 
C 1357 4633 1338 4633 1184 4633 
C 1037 4633 1005 4633 563 4646 
L 506 4563 
C 544 4403 557 4191 557 3699 
C 557 3603 557 3526 563 3462 
L 563 3379 
L 563 89 
L 563 6 
C 557 -97 557 -103 557 -212 
L 557 -282 
C 557 -718 544 -897 506 -1095 
L 563 -1178 
z
" transform="scale(0.015625)"/>
       <path id="URWPalladioL-Roma-73" d="M 262 917 
C 262 474 243 282 192 25 
C 525 -84 774 -128 1069 -128 
C 1907 -128 2502 320 2502 949 
C 2502 1148 2445 1295 2323 1423 
C 2157 1584 1946 1661 1382 1770 
C 858 1872 685 2001 685 2296 
C 685 2617 909 2796 1299 2796 
C 1728 2796 2054 2572 2054 2270 
L 2054 2123 
L 2234 2123 
C 2240 2495 2246 2649 2266 2847 
C 1926 2963 1696 3008 1434 3008 
C 691 3008 237 2655 237 2078 
C 237 1770 378 1552 672 1417 
C 845 1340 1184 1237 1619 1141 
C 1907 1077 2029 942 2029 698 
C 2029 352 1709 108 1254 108 
C 787 108 454 333 454 654 
L 454 917 
L 262 917 
z
" transform="scale(0.015625)"/>
       <path id="URWPalladioL-Roma-63" d="M 2554 1995 
C 2554 2290 2586 2553 2643 2783 
C 2387 2937 2163 3008 1901 3008 
C 1594 3008 1235 2886 851 2643 
C 403 2360 166 1911 166 1347 
C 166 480 774 -128 1632 -128 
C 1965 -128 2445 -7 2509 89 
L 2643 294 
L 2579 390 
C 2342 262 2138 204 1907 204 
C 1197 204 730 756 730 1603 
C 730 2290 1050 2675 1626 2675 
C 1907 2675 2214 2547 2330 2386 
L 2374 1995 
L 2554 1995 
z
" transform="scale(0.015625)"/>
       <path id="URWPalladioL-Roma-6f" d="M 1786 3008 
C 851 3008 205 2347 205 1391 
C 205 487 774 -128 1600 -128 
C 2586 -128 3290 557 3290 1520 
C 3290 2386 2662 3008 1786 3008 
z
M 1670 2796 
C 2259 2796 2694 2155 2694 1282 
C 2694 545 2368 83 1850 83 
C 1222 83 800 699 800 1609 
C 800 2379 1107 2796 1670 2796 
z
" transform="scale(0.015625)"/>
       <path id="URWPalladioL-Roma-6e" d="M 2624 0 
C 3014 0 3021 0 3130 0 
C 3219 19 3219 19 3661 0 
L 3661 192 
L 3398 211 
C 3181 223 3162 262 3162 670 
L 3162 1902 
C 3162 2649 2810 3014 2093 3014 
C 1856 3014 1722 2969 1587 2854 
L 1101 2432 
L 1101 2988 
L 1043 3008 
C 717 2873 384 2784 45 2746 
L 45 2568 
L 282 2568 
C 538 2568 563 2523 563 2103 
L 563 669 
C 563 268 544 223 326 211 
L 38 192 
L 38 0 
C 474 -7 646 0 832 0 
C 1018 19 1190 12 1626 0 
L 1626 192 
L 1338 211 
C 1120 223 1101 268 1101 670 
L 1101 2023 
C 1101 2311 1523 2624 1914 2624 
C 2342 2624 2624 2304 2624 1813 
L 2624 0 
z
" transform="scale(0.015625)"/>
       <path id="URWPalladioL-Roma-64" d="M 2637 2803 
C 2278 2956 2099 3008 1875 3008 
C 1702 3008 1549 2969 1389 2886 
L 826 2592 
C 461 2400 224 1934 224 1392 
C 224 881 397 460 710 204 
C 928 19 1229 -64 1645 -64 
C 1773 -64 1920 -39 1952 -13 
L 2662 581 
L 2630 0 
C 2944 -7 3046 0 3123 0 
C 3174 0 3264 0 3398 -7 
C 3443 6 3571 6 3706 0 
L 3706 192 
L 3411 211 
C 3194 224 3174 268 3174 672 
L 3174 4614 
L 3117 4665 
C 2835 4557 2624 4505 2118 4429 
L 2118 4249 
L 2477 4249 
C 2592 4249 2637 4179 2637 3987 
L 2637 2803 
z
M 2637 1424 
C 2637 1009 2624 945 2541 798 
C 2362 498 2048 300 1747 300 
C 1184 300 781 843 781 1602 
C 781 2298 1126 2707 1702 2707 
C 1946 2707 2202 2624 2426 2470 
C 2560 2381 2637 2298 2637 2247 
L 2637 1424 
z
" transform="scale(0.015625)"/>
       <path id="URWPalladioL-Roma-5d" d="M 1568 4646 
C 1114 4633 1094 4633 947 4633 
C 794 4633 762 4633 326 4646 
L 288 4608 
L 288 4441 
L 314 4409 
L 557 4409 
C 730 4409 864 4371 941 4307 
C 1005 4249 1024 4159 1024 3942 
C 1024 3923 1024 3795 1030 3615 
L 1030 3379 
L 1030 89 
L 1030 -148 
C 1024 -334 1024 -449 1024 -468 
C 1024 -686 1005 -782 941 -839 
C 864 -903 730 -942 557 -942 
L 314 -942 
L 288 -974 
L 288 -1140 
L 326 -1178 
C 774 -1166 787 -1166 947 -1166 
C 1094 -1166 1126 -1166 1568 -1178 
L 1626 -1095 
C 1587 -942 1581 -743 1574 -250 
C 1574 -161 1574 -78 1568 6 
L 1568 89 
L 1568 3379 
L 1568 3462 
C 1574 3532 1574 3615 1574 3705 
C 1574 4198 1587 4409 1626 4563 
L 1568 4646 
z
" transform="scale(0.015625)"/>
      </defs>
      <use xlink:href="#URWPalladioL-Roma-54" transform="scale(0.996264)"/>
      <use xlink:href="#URWPalladioL-Roma-69" transform="translate(55.591109 0)scale(0.996264)"/>
      <use xlink:href="#URWPalladioL-Roma-6d" transform="translate(84.581471 0)scale(0.996264)"/>
      <use xlink:href="#URWPalladioL-Roma-65" transform="translate(172.551145 0)scale(0.996264)"/>
      <use xlink:href="#URWPalladioL-Roma-5b" transform="translate(245.17804 0)scale(0.996264)"/>
      <use xlink:href="#URWPalladioL-Roma-73" transform="translate(278.35327 0)scale(0.996264)"/>
      <use xlink:href="#URWPalladioL-Roma-65" transform="translate(320.594736 0)scale(0.996264)"/>
      <use xlink:href="#URWPalladioL-Roma-63" transform="translate(368.315031 0)scale(0.996264)"/>
      <use xlink:href="#URWPalladioL-Roma-6f" transform="translate(412.5486 0)scale(0.996264)"/>
      <use xlink:href="#URWPalladioL-Roma-6e" transform="translate(466.94418 0)scale(0.996264)"/>
      <use xlink:href="#URWPalladioL-Roma-64" transform="translate(524.926241 0)scale(0.996264)"/>
      <use xlink:href="#URWPalladioL-Roma-73" transform="translate(585.797872 0)scale(0.996264)"/>
      <use xlink:href="#URWPalladioL-Roma-5d" transform="translate(628.039338 0)scale(0.996264)"/>
     </g>
    </g>
   </g>
   <g id="matplotlib.axis_2">
    <g id="text_8">
     <!-- Pressure [Pa] -->
     <g transform="translate(15.753876 104.179155)rotate(-90)scale(0.12 -0.12)">
      <defs>
       <path id="URWPalladioL-Roma-50" d="M 1382 4097 
C 1606 4147 1792 4172 2010 4172 
C 2701 4172 3072 3859 3072 3263 
C 3072 2699 2682 2304 2125 2304 
C 1990 2304 1894 2316 1728 2366 
L 1792 2137 
C 1946 2105 2035 2099 2163 2099 
C 3040 2099 3712 2686 3712 3439 
C 3712 4041 3213 4416 2400 4416 
C 2368 4416 2304 4416 2221 4409 
C 1984 4403 1498 4396 1312 4396 
C 1171 4396 1171 4396 147 4416 
L 147 4223 
L 435 4204 
C 723 4185 774 4103 774 3633 
L 774 782 
C 774 280 742 230 448 211 
L 141 192 
L 141 0 
C 518 -7 742 0 1075 0 
C 1408 19 1638 12 2016 0 
L 2016 192 
L 1709 211 
C 1414 230 1382 281 1382 787 
L 1382 4097 
z
" transform="scale(0.015625)"/>
       <path id="URWPalladioL-Roma-72" d="M 147 2579 
L 384 2579 
C 640 2579 666 2534 666 2112 
L 666 672 
C 666 268 646 224 429 211 
L 134 192 
L 134 0 
C 595 -7 762 0 922 0 
C 1050 19 1050 19 1837 0 
L 1837 192 
L 1504 211 
C 1216 230 1203 249 1203 669 
L 1203 1763 
C 1203 2145 1459 2463 1773 2463 
C 1965 2463 2099 2374 2202 2171 
L 2336 2171 
L 2394 2937 
C 2323 2982 2208 3008 2093 3008 
C 1901 3008 1696 2905 1562 2745 
L 1203 2324 
L 1203 2982 
L 1146 3008 
C 819 2873 486 2783 147 2745 
L 147 2579 
z
" transform="scale(0.015625)"/>
       <path id="URWPalladioL-Roma-75" d="M 3219 2982 
L 3162 3008 
C 2835 2873 2502 2784 2163 2745 
L 2163 2567 
L 2400 2567 
C 2656 2567 2682 2522 2682 2101 
L 2682 1060 
C 2682 920 2592 741 2445 594 
C 2266 415 2061 326 1811 326 
C 1587 326 1408 396 1306 517 
C 1216 620 1171 817 1171 1098 
L 1171 2982 
L 1114 3008 
C 787 2873 454 2784 115 2745 
L 115 2567 
L 352 2567 
C 608 2567 634 2522 634 2101 
L 634 1028 
C 634 581 672 383 787 224 
C 928 32 1171 -64 1536 -64 
C 1824 -58 2080 32 2253 192 
L 2682 588 
C 2682 403 2675 300 2656 0 
C 3085 0 3091 0 3187 0 
C 3277 19 3277 19 3718 0 
L 3718 192 
L 3456 211 
C 3238 224 3219 262 3219 672 
L 3219 2982 
z
" transform="scale(0.015625)"/>
       <path id="URWPalladioL-Roma-61" d="M 2074 544 
L 2042 0 
C 2458 0 2458 0 2541 0 
C 2573 19 2733 12 3014 0 
L 3014 192 
L 2765 204 
C 2611 211 2586 262 2586 576 
L 2586 1751 
C 2586 2688 2317 3027 1574 3027 
C 1299 3027 1043 2956 800 2809 
L 461 2604 
L 461 2187 
L 627 2142 
L 710 2341 
C 845 2642 909 2688 1203 2688 
C 1805 2688 2054 2450 2074 1866 
L 1440 1751 
C 570 1590 205 1289 205 730 
C 205 224 506 -64 1011 -64 
C 1126 -64 1235 -45 1280 -13 
L 2074 544 
z
M 2074 806 
C 1888 544 1485 300 1235 300 
C 979 300 755 537 755 812 
C 755 1049 883 1273 1075 1395 
C 1235 1491 1587 1580 2074 1651 
L 2074 806 
z
" transform="scale(0.015625)"/>
      </defs>
      <use xlink:href="#URWPalladioL-Roma-50" transform="scale(0.996264)"/>
      <use xlink:href="#URWPalladioL-Roma-72" transform="translate(60.173595 0)scale(0.996264)"/>
      <use xlink:href="#URWPalladioL-Roma-65" transform="translate(97.732913 0)scale(0.996264)"/>
      <use xlink:href="#URWPalladioL-Roma-73" transform="translate(145.453208 0)scale(0.996264)"/>
      <use xlink:href="#URWPalladioL-Roma-73" transform="translate(187.694674 0)scale(0.996264)"/>
      <use xlink:href="#URWPalladioL-Roma-75" transform="translate(229.93614 0)scale(0.996264)"/>
      <use xlink:href="#URWPalladioL-Roma-72" transform="translate(290.009875 0)scale(0.996264)"/>
      <use xlink:href="#URWPalladioL-Roma-65" transform="translate(327.569192 0)scale(0.996264)"/>
      <use xlink:href="#URWPalladioL-Roma-5b" transform="translate(400.196088 0)scale(0.996264)"/>
      <use xlink:href="#URWPalladioL-Roma-50" transform="translate(433.371318 0)scale(0.996264)"/>
      <use xlink:href="#URWPalladioL-Roma-61" transform="translate(493.544913 0)scale(0.996264)"/>
      <use xlink:href="#URWPalladioL-Roma-5d" transform="translate(543.358113 0)scale(0.996264)"/>
     </g>
    </g>
   </g>
   <g id="line2d_16">
    <path d="M 26.62516 42.064927 
L 27.711046 42.127342 
L 28.796932 42.314293 
L 29.882817 42.624896 
L 30.968703 43.057681 
L 33.140475 44.281055 
L 35.312247 45.961344 
L 37.484019 48.06692 
L 39.65579 50.558251 
L 41.827562 53.388716 
L 45.08522 58.153485 
L 48.342877 63.363356 
L 59.201736 81.161788 
L 62.459394 85.812539 
L 64.631165 88.561924 
L 66.802937 90.978656 
L 68.974709 93.026393 
L 71.146481 94.676638 
L 73.318252 95.90921 
L 75.490024 96.712523 
L 77.661796 97.083684 
L 79.833568 97.028401 
L 82.005339 96.560714 
L 84.177111 95.702541 
L 86.348883 94.483065 
L 88.520655 92.937974 
L 90.692426 91.108565 
L 92.864198 89.040741 
L 96.121856 85.60077 
L 101.551285 79.402174 
L 105.894828 74.494287 
L 109.152486 71.096947 
L 112.410144 68.096532 
L 114.581915 66.37175 
L 116.753687 64.896705 
L 118.925459 63.6889 
L 121.097231 62.758759 
L 123.269002 62.109569 
L 125.440774 61.737583 
L 127.612546 61.632297 
L 129.784318 61.776877 
L 131.956089 62.148742 
L 134.127861 62.72027 
L 137.385519 63.881365 
L 140.643176 65.298978 
L 150.416149 69.798861 
L 153.673807 70.975563 
L 155.845579 71.583132 
L 158.01735 72.02477 
L 160.189122 72.285841 
L 162.360894 72.357733 
L 164.532666 72.238078 
L 166.704437 71.930818 
L 168.876209 71.446097 
L 172.133867 70.422994 
L 175.391524 69.115106 
L 180.820954 66.583004 
L 186.250383 64.103245 
L 189.508041 62.890699 
L 191.679812 62.274084 
L 193.851584 61.849534 
L 196.023356 61.645806 
L 198.195128 61.686812 
L 200.366899 61.990882 
L 202.538671 62.57015 
L 204.710443 63.430084 
L 206.882215 64.569171 
L 209.053986 65.978773 
L 211.225758 67.643141 
L 213.39753 69.539614 
L 216.655187 72.753949 
L 219.912845 76.300053 
L 230.771704 88.492263 
L 232.943475 90.612081 
L 235.115247 92.505554 
L 237.287019 94.125794 
L 239.458791 95.430255 
L 241.630562 96.381758 
L 243.802334 96.949417 
L 245.974106 97.109433 
L 248.145878 96.84575 
L 250.317649 96.150543 
L 252.489421 95.024539 
L 254.661193 93.477152 
L 256.832965 91.526435 
L 259.004736 89.198841 
L 261.176508 86.528806 
L 263.34828 83.558148 
L 266.605938 78.646055 
L 270.949481 71.541592 
L 277.464796 60.715914 
L 280.722454 55.702589 
L 282.894226 52.652096 
L 285.065997 49.901691 
L 287.237769 47.502689 
L 289.409541 45.500025 
L 291.581313 43.931324 
L 293.753084 42.82613 
L 294.83897 42.454216 
L 295.924856 42.205292 
L 297.010742 42.080535 
L 298.096628 42.080535 
L 299.182514 42.205292 
L 300.2684 42.454216 
L 301.354285 42.82613 
L 303.526057 43.931324 
L 305.697829 45.500025 
L 307.869601 47.502689 
L 310.041372 49.901691 
L 312.213144 52.652096 
L 314.384916 55.702589 
L 317.642573 60.715914 
L 321.986117 67.89049 
L 328.501432 78.646055 
L 331.75909 83.558148 
L 333.930862 86.528806 
L 336.102633 89.198841 
L 338.274405 91.526435 
L 340.446177 93.477152 
L 342.617949 95.024539 
L 344.78972 96.150543 
L 346.961492 96.84575 
L 349.133264 97.109433 
L 351.305036 96.949417 
L 353.476807 96.381758 
L 355.648579 95.430255 
L 357.820351 94.125794 
L 359.992122 92.505554 
L 362.163894 90.612081 
L 365.421552 87.363044 
L 369.765095 82.536217 
L 377.366296 73.90599 
L 380.623954 70.566004 
L 382.795726 68.564042 
L 384.967498 66.780369 
L 387.139269 65.240977 
L 389.311041 63.965106 
L 391.482813 62.964962 
L 393.654585 62.245614 
L 395.826356 61.805054 
L 397.998128 61.634433 
L 400.1699 61.71845 
L 402.341672 62.035899 
L 404.513443 62.560347 
L 407.771101 63.666632 
L 411.028758 65.05033 
L 421.887617 70.014148 
L 425.145275 71.141994 
L 427.317047 71.709769 
L 429.488818 72.107408 
L 431.66059 72.32175 
L 433.832362 72.34573 
L 436.004134 72.178559 
L 438.175905 71.825745 
L 440.347677 71.298948 
L 443.605335 70.22234 
L 446.862992 68.876191 
L 452.292422 66.322794 
L 456.635965 64.33168 
L 459.893623 63.071101 
L 462.065394 62.411449 
L 464.237166 61.936016 
L 466.408938 61.674638 
L 468.58071 61.652513 
L 470.752481 61.889428 
L 472.924253 62.399117 
L 475.096025 63.188749 
L 477.267797 64.258579 
L 479.439568 65.601753 
L 481.61134 67.204288 
L 483.783112 69.045226 
L 487.04077 72.191515 
L 490.298427 75.692025 
L 502.243172 89.040741 
L 504.414943 91.108565 
L 506.586715 92.937974 
L 508.758487 94.483065 
L 510.930259 95.702541 
L 513.10203 96.560714 
L 515.273802 97.028401 
L 517.445574 97.083684 
L 519.617346 96.712523 
L 521.789117 95.90921 
L 523.960889 94.676638 
L 526.132661 93.026393 
L 528.304433 90.978656 
L 530.476204 88.561924 
L 532.647976 85.812539 
L 534.819748 82.774055 
L 538.077405 77.785086 
L 542.420949 70.630472 
L 548.936264 59.850998 
L 552.193922 54.91485 
L 554.365694 51.934257 
L 556.537465 49.267124 
L 558.709237 46.963265 
L 560.881009 45.065868 
L 563.052781 43.610605 
L 565.224552 42.624896 
L 566.310438 42.314293 
L 567.396324 42.127342 
L 568.48221 42.064927 
L 568.48221 42.064927 
" clip-path="url(#p1a306e20c2)" style="fill: none; stroke: #0271ae; stroke-width: 2; stroke-linecap: round"/>
   </g>
   <g id="legend_1">
    <g id="patch_3">
     <path d="M 63.518012 32.312702 
L 457.248424 32.312702 
Q 460.048424 32.312702 460.048424 29.512702 
L 460.048424 10 
Q 460.048424 7.2 457.248424 7.2 
L 63.518012 7.2 
Q 60.718012 7.2 60.718012 10 
L 60.718012 29.512702 
Q 60.718012 32.312702 63.518012 32.312702 
z
" style="fill: #ffffff; opacity: 0.95; stroke: #cccccc; stroke-width: 0.5; stroke-linejoin: miter"/>
    </g>
    <g id="line2d_17">
     <path d="M 66.318012 17.879529 
L 73.318012 17.879529 
L 80.318012 17.879529 
" style="fill: none; stroke: #0271ae; stroke-width: 2; stroke-linecap: round"/>
    </g>
    <g id="text_9">
     <!-- $x$ -->
     <g style="fill: #0271ae" transform="translate(91.518012 22.779529)scale(0.14 -0.14)">
      <defs>
       <path id="URWPalladioL-Ital-78" d="M 134 567 
C 134 440 122 358 83 153 
C 70 76 64 57 58 12 
C 154 -39 256 -64 333 -64 
C 544 -64 794 121 992 421 
L 1478 1164 
L 1549 726 
C 1632 185 1779 -64 2010 -64 
C 2150 -64 2355 44 2560 230 
L 2874 510 
L 2816 631 
C 2586 440 2426 345 2323 345 
C 2227 345 2144 409 2080 536 
C 2022 656 1952 891 1920 1075 
L 1805 1716 
L 2029 2027 
C 2330 2439 2502 2585 2701 2585 
C 2803 2585 2880 2534 2912 2439 
L 3002 2465 
L 3098 3007 
C 3021 3052 2963 3072 2906 3072 
C 2650 3072 2394 2841 1997 2255 
L 1760 1906 
L 1722 2211 
C 1645 2841 1472 3072 1094 3072 
C 928 3072 787 3020 730 2937 
L 358 2408 
L 467 2344 
C 659 2560 787 2649 909 2649 
C 1120 2649 1261 2389 1370 1767 
L 1440 1373 
L 1184 980 
C 909 555 691 352 512 352 
C 416 352 346 377 333 409 
L 262 586 
L 134 567 
z
" transform="scale(0.015625)"/>
      </defs>
      <use xlink:href="#URWPalladioL-Ital-78" transform="scale(0.996264)"/>
     </g>
    </g>
    <g id="line2d_18">
     <path d="M 126.49186 17.879529 
L 133.49186 17.879529 
L 140.49186 17.879529 
" style="fill: none; stroke: #dc2830; stroke-width: 2; stroke-linecap: round"/>
    </g>
    <g id="text_10">
     <!-- Ambient pressure -->
     <g style="fill: #dc2830" transform="translate(151.69186 22.779529)scale(0.14 -0.14)">
      <defs>
       <path id="URWPalladioL-Roma-41" d="M 2611 4480 
L 2406 4480 
C 2291 4205 2195 3969 2157 3874 
L 1818 3103 
L 678 523 
C 602 338 474 223 333 210 
L 96 191 
L 96 0 
C 691 0 691 0 794 0 
C 877 19 877 19 1568 0 
L 1568 191 
L 1331 210 
C 1107 229 1024 273 1024 375 
C 1024 457 1114 730 1248 1047 
L 1427 1472 
L 3270 1472 
L 3565 742 
C 3674 476 3699 394 3699 337 
C 3699 267 3597 223 3437 210 
L 3136 191 
L 3136 0 
C 3923 0 3923 0 4026 0 
C 4147 19 4147 19 4838 0 
L 4838 191 
L 4621 210 
C 4454 235 4384 343 4160 857 
L 2611 4480 
z
M 1536 1728 
L 2349 3630 
L 3155 1728 
L 1536 1728 
z
" transform="scale(0.015625)"/>
       <path id="URWPalladioL-Roma-62" d="M 960 4601 
L 902 4652 
C 621 4544 410 4492 -96 4416 
L -96 4236 
L 262 4236 
C 378 4236 422 4166 422 3974 
L 422 990 
C 422 594 416 421 371 -26 
L 474 -64 
L 730 166 
C 986 0 1216 -64 1555 -64 
C 1805 -64 1971 -20 2106 76 
L 2746 536 
C 3027 741 3251 1270 3251 1736 
C 3251 2477 2771 3008 2093 3008 
C 1792 3008 1478 2892 1312 2726 
L 960 2368 
L 960 4601 
z
M 960 1979 
C 960 2068 1024 2183 1126 2298 
C 1306 2483 1555 2591 1818 2591 
C 2355 2591 2694 2158 2694 1475 
C 2694 760 2310 262 1766 262 
C 1434 262 960 466 960 607 
L 960 1979 
z
" transform="scale(0.015625)"/>
       <path id="URWPalladioL-Roma-74" d="M 627 2457 
L 627 614 
C 627 140 838 -64 1331 -64 
C 1478 -64 1632 -32 1670 12 
L 1978 352 
L 1894 460 
C 1734 371 1638 339 1517 339 
C 1267 339 1165 467 1165 780 
L 1165 2457 
L 1984 2457 
L 2042 2803 
L 1165 2764 
L 1165 3008 
C 1165 3277 1184 3507 1235 3917 
L 1158 3987 
C 1005 3891 813 3808 614 3744 
C 634 3552 640 3430 640 3238 
L 640 2790 
L 141 2566 
L 141 2432 
L 627 2457 
z
" transform="scale(0.015625)"/>
       <path id="URWPalladioL-Roma-70" d="M 64 2566 
L 301 2566 
C 557 2566 582 2521 582 2100 
L 582 -1118 
C 582 -1523 563 -1568 346 -1581 
L 51 -1600 
L 51 -1792 
C 691 -1773 691 -1773 851 -1773 
C 1011 -1773 1011 -1773 1651 -1792 
L 1651 -1600 
L 1357 -1581 
C 1139 -1568 1120 -1523 1120 -1118 
L 1120 96 
C 1312 -20 1517 -64 1805 -64 
C 1990 -64 2157 -26 2259 38 
L 2989 511 
C 3245 677 3546 1334 3546 1743 
C 3546 2451 2957 3008 2214 3008 
C 1978 3008 1747 2943 1645 2847 
L 1120 2368 
L 1120 2982 
L 1062 3008 
C 736 2873 403 2783 64 2745 
L 64 2566 
z
M 1120 1966 
C 1120 2055 1152 2126 1235 2234 
C 1421 2470 1683 2591 2003 2591 
C 2605 2591 2989 2170 2989 1507 
C 2989 792 2560 262 1984 262 
C 1632 262 1370 377 1120 639 
L 1120 1966 
z
" transform="scale(0.015625)"/>
      </defs>
      <use xlink:href="#URWPalladioL-Roma-41" transform="scale(0.996264)"/>
      <use xlink:href="#URWPalladioL-Roma-6d" transform="translate(77.50837 0)scale(0.996264)"/>
      <use xlink:href="#URWPalladioL-Roma-62" transform="translate(165.478044 0)scale(0.996264)"/>
      <use xlink:href="#URWPalladioL-Roma-69" transform="translate(220.570444 0)scale(0.996264)"/>
      <use xlink:href="#URWPalladioL-Roma-65" transform="translate(249.560805 0)scale(0.996264)"/>
      <use xlink:href="#URWPalladioL-Roma-6e" transform="translate(297.2811 0)scale(0.996264)"/>
      <use xlink:href="#URWPalladioL-Roma-74" transform="translate(355.263161 0)scale(0.996264)"/>
      <use xlink:href="#URWPalladioL-Roma-70" transform="translate(412.646849 0)scale(0.996264)"/>
      <use xlink:href="#URWPalladioL-Roma-72" transform="translate(472.521243 0)scale(0.996264)"/>
      <use xlink:href="#URWPalladioL-Roma-65" transform="translate(510.08056 0)scale(0.996264)"/>
      <use xlink:href="#URWPalladioL-Roma-73" transform="translate(557.800855 0)scale(0.996264)"/>
      <use xlink:href="#URWPalladioL-Roma-73" transform="translate(600.042322 0)scale(0.996264)"/>
      <use xlink:href="#URWPalladioL-Roma-75" transform="translate(642.283788 0)scale(0.996264)"/>
      <use xlink:href="#URWPalladioL-Roma-72" transform="translate(702.357523 0)scale(0.996264)"/>
      <use xlink:href="#URWPalladioL-Roma-65" transform="translate(739.91684 0)scale(0.996264)"/>
     </g>
    </g>
    <g id="line2d_19">
     <path d="M 289.960968 17.879529 
L 296.960968 17.879529 
L 303.960968 17.879529 
" style="fill: none; stroke: #f2aa00; stroke-width: 2; stroke-linecap: round"/>
    </g>
    <g id="text_11">
     <!-- Peak sound pressure $p$ -->
     <g style="fill: #f2aa00" transform="translate(315.160968 22.779529)scale(0.14 -0.14)">
      <defs>
       <path id="URWPalladioL-Roma-6b" d="M 147 4249 
L 506 4249 
C 621 4249 666 4179 666 3987 
L 666 672 
C 666 268 646 224 429 211 
L 134 192 
L 134 0 
C 774 0 774 0 941 0 
C 1120 19 1152 19 1722 0 
L 1722 192 
L 1440 211 
C 1222 224 1203 268 1203 672 
L 1203 1555 
L 2899 -64 
L 3514 121 
L 3514 268 
C 3360 268 3174 377 2970 576 
L 2163 1376 
C 1933 1600 1862 1683 1754 1811 
L 2579 2457 
C 2880 2688 3053 2764 3270 2758 
L 3270 2950 
L 2630 2950 
C 2221 2540 1920 2259 1670 2060 
L 1203 1683 
L 1203 4608 
L 1146 4659 
C 864 4550 653 4499 147 4422 
L 147 4249 
z
" transform="scale(0.015625)"/>
       <path id="URWPalladioL-Ital-70" d="M 736 19 
L 794 0 
C 960 -45 1056 -64 1126 -64 
C 1485 -64 2221 401 2496 802 
C 2758 1189 2976 1887 2976 2364 
C 2976 2790 2829 3072 2598 3072 
C 2330 3072 1990 2905 1658 2605 
C 1395 2383 1267 2218 1037 1843 
L 1190 2599 
C 1210 2707 1222 2803 1222 2879 
C 1222 3001 1171 3072 1082 3072 
C 947 3072 704 2937 230 2599 
L 51 2472 
L 96 2345 
L 301 2478 
C 480 2592 550 2624 608 2624 
C 672 2624 717 2567 717 2478 
C 717 2427 704 2300 691 2237 
L 320 57 
C 256 -332 134 -927 6 -1514 
L -45 -1754 
L 0 -1792 
C 134 -1748 262 -1716 467 -1684 
L 736 19 
z
M 915 1056 
C 1056 1868 1741 2700 2272 2700 
C 2438 2700 2515 2561 2515 2269 
C 2515 1754 2259 998 1920 516 
C 1792 332 1587 236 1325 236 
C 1126 236 966 281 800 382 
L 915 1056 
z
" transform="scale(0.015625)"/>
      </defs>
      <use xlink:href="#URWPalladioL-Roma-50" transform="scale(0.996264)"/>
      <use xlink:href="#URWPalladioL-Roma-65" transform="translate(60.173595 0)scale(0.996264)"/>
      <use xlink:href="#URWPalladioL-Roma-61" transform="translate(107.89389 0)scale(0.996264)"/>
      <use xlink:href="#URWPalladioL-Roma-6b" transform="translate(157.707091 0)scale(0.996264)"/>
      <use xlink:href="#URWPalladioL-Roma-73" transform="translate(238.005368 0)scale(0.996264)"/>
      <use xlink:href="#URWPalladioL-Roma-6f" transform="translate(280.246834 0)scale(0.996264)"/>
      <use xlink:href="#URWPalladioL-Roma-75" transform="translate(334.642415 0)scale(0.996264)"/>
      <use xlink:href="#URWPalladioL-Roma-6e" transform="translate(394.716149 0)scale(0.996264)"/>
      <use xlink:href="#URWPalladioL-Roma-64" transform="translate(452.69821 0)scale(0.996264)"/>
      <use xlink:href="#URWPalladioL-Roma-70" transform="translate(538.476441 0)scale(0.996264)"/>
      <use xlink:href="#URWPalladioL-Roma-72" transform="translate(598.350835 0)scale(0.996264)"/>
      <use xlink:href="#URWPalladioL-Roma-65" transform="translate(635.910152 0)scale(0.996264)"/>
      <use xlink:href="#URWPalladioL-Roma-73" transform="translate(683.630447 0)scale(0.996264)"/>
      <use xlink:href="#URWPalladioL-Roma-73" transform="translate(725.871913 0)scale(0.996264)"/>
      <use xlink:href="#URWPalladioL-Roma-75" transform="translate(768.11338 0)scale(0.996264)"/>
      <use xlink:href="#URWPalladioL-Roma-72" transform="translate(828.187114 0)scale(0.996264)"/>
      <use xlink:href="#URWPalladioL-Roma-65" transform="translate(865.746432 0)scale(0.996264)"/>
      <use xlink:href="#URWPalladioL-Ital-70" transform="translate(945.098109 0)scale(0.996264)"/>
     </g>
    </g>
   </g>
  </g>
 </g>
 <defs>
  <clipPath id="p1a306e20c2">
   <rect x="26.62516" y="39.312702" width="541.85705" height="60.548957"/>
  </clipPath>
 </defs>
</svg>