<?xml version="1.0" encoding="utf-8" standalone="no"?>
<!DOCTYPE svg PUBLIC "-//W3C//DTD SVG 1.1//EN"
  "http://www.w3.org/Graphics/SVG/1.1/DTD/svg11.dtd">
<svg xmlns:xlink="http://www.w3.org/1999/xlink" width="584.39952pt" height="152.432797pt" viewBox="0 0 584.39952 152.432797" xmlns="http://www.w3.org/2000/svg" version="1.1">
 <metadata>
  <rdf:RDF xmlns:dc="http://purl.org/dc/elements/1.1/" xmlns:cc="http://creativecommons.org/ns#" xmlns:rdf="http://www.w3.org/1999/02/22-rdf-syntax-ns#">
   <cc:Work>
    <dc:type rdf:resource="http://purl.org/dc/dcmitype/StillImage"/>
    <dc:date>2023-04-20T14:54:04.054862</dc:date>
    <dc:format>image/svg+xml</dc:format>
    <dc:creator>
     <cc:Agent>
      <dc:title>Matplotlib v3.5.2, https://matplotlib.org/</dc:title>
     </cc:Agent>
    </dc:creator>
   </cc:Work>
  </rdf:RDF>
 </metadata>
 <defs>
  <style type="text/css">*{stroke-linejoin: round; stroke-linecap: butt}</style>
 </defs>
 <g id="figure_1">
  <g id="patch_1">
   <path d="M 0 152.432797 
L 584.39952 152.432797 
L 584.39952 0 
L 0 0 
L 0 152.432797 
z
" style="fill: none"/>
  </g>
  <g id="axes_1">
   <g id="patch_2">
    <path d="M 41.145691 99.894936 
L 577.19952 99.894936 
L 577.19952 8.013328 
L 41.145691 8.013328 
L 41.145691 99.894936 
z
" style="fill: none"/>
   </g>
   <g id="matplotlib.axis_1">
    <g id="xtick_1">
     <g id="line2d_1">
      <path d="M 41.145691 99.894936 
L 41.145691 8.013328 
" clip-path="url(#pe79df57150)" style="fill: none; stroke: #000000; stroke-opacity: 0.2; stroke-width: 0.5; stroke-linecap: round"/>
     </g>
     <g id="line2d_2">
      <defs>
       <path id="mfad3f579c2" d="M 0 0 
L 0 3.5 
" style="stroke: #000000; stroke-opacity: 0.2; stroke-width: 0.5"/>
      </defs>
      <g>
       <use xlink:href="#mfad3f579c2" x="41.145691" y="99.894936" style="fill-opacity: 0.2; stroke: #000000; stroke-opacity: 0.2; stroke-width: 0.5"/>
      </g>
     </g>
     <g id="text_1">
      <!-- $\mathdefault{0.0}$ -->
      <g transform="translate(32.428381 125.374465)scale(0.14 -0.14)">
       <defs>
        <path id="URWPalladioL-Roma-30" d="M 1683 4416 
C 691 4416 186 3628 186 2076 
C 186 1326 320 679 544 365 
C 768 51 1126 -128 1523 -128 
C 2490 -128 2976 704 2976 2345 
C 2976 3749 2560 4416 1683 4416 
z
M 1568 4191 
C 2189 4191 2438 3563 2438 2025 
C 2438 660 2195 96 1606 96 
C 986 96 723 743 723 2307 
C 723 3660 960 4191 1568 4191 
z
" transform="scale(0.015625)"/>
        <path id="URWPalladioL-Roma-2e" d="M 794 678 
C 602 678 429 499 429 307 
C 429 115 602 -64 787 -64 
C 992 -64 1171 108 1171 307 
C 1171 499 992 678 794 678 
z
" transform="scale(0.015625)"/>
       </defs>
       <use xlink:href="#URWPalladioL-Roma-30" transform="scale(0.996264)"/>
       <use xlink:href="#URWPalladioL-Roma-2e" transform="translate(49.8132 0)scale(0.996264)"/>
       <use xlink:href="#URWPalladioL-Roma-30" transform="translate(74.719801 0)scale(0.996264)"/>
      </g>
     </g>
    </g>
    <g id="xtick_2">
     <g id="line2d_3">
      <path d="M 148.463775 99.894936 
L 148.463775 8.013328 
" clip-path="url(#pe79df57150)" style="fill: none; stroke: #000000; stroke-opacity: 0.2; stroke-width: 0.5; stroke-linecap: round"/>
     </g>
     <g id="line2d_4">
      <g>
       <use xlink:href="#mfad3f579c2" x="148.463775" y="99.894936" style="fill-opacity: 0.2; stroke: #000000; stroke-opacity: 0.2; stroke-width: 0.5"/>
      </g>
     </g>
     <g id="text_2">
      <!-- $\mathdefault{0.2}$ -->
      <g transform="translate(139.746465 125.374465)scale(0.14 -0.14)">
       <defs>
        <path id="URWPalladioL-Roma-32" d="M 102 166 
L 102 0 
C 1299 0 1299 0 1530 0 
C 1760 19 1760 19 2995 0 
C 2982 134 2982 198 2982 287 
C 2982 370 2982 434 2995 574 
C 2259 542 1965 536 781 510 
L 1946 1741 
C 2566 2398 2758 2749 2758 3228 
C 2758 3961 2259 4416 1446 4416 
C 986 4416 672 4287 358 3967 
L 250 3100 
L 435 3100 
L 518 3394 
C 621 3763 851 3923 1280 3923 
C 1830 3923 2182 3578 2182 3036 
C 2182 2558 1914 2086 1190 1320 
L 102 166 
z
" transform="scale(0.015625)"/>
       </defs>
       <use xlink:href="#URWPalladioL-Roma-30" transform="scale(0.996264)"/>
       <use xlink:href="#URWPalladioL-Roma-2e" transform="translate(49.8132 0)scale(0.996264)"/>
       <use xlink:href="#URWPalladioL-Roma-32" transform="translate(74.719801 0)scale(0.996264)"/>
      </g>
     </g>
    </g>
    <g id="xtick_3">
     <g id="line2d_5">
      <path d="M 255.781859 99.894936 
L 255.781859 8.013328 
" clip-path="url(#pe79df57150)" style="fill: none; stroke: #000000; stroke-opacity: 0.2; stroke-width: 0.5; stroke-linecap: round"/>
     </g>
     <g id="line2d_6">
      <g>
       <use xlink:href="#mfad3f579c2" x="255.781859" y="99.894936" style="fill-opacity: 0.2; stroke: #000000; stroke-opacity: 0.2; stroke-width: 0.5"/>
      </g>
     </g>
     <g id="text_3">
      <!-- $\mathdefault{0.4}$ -->
      <g transform="translate(247.064549 125.374465)scale(0.14 -0.14)">
       <defs>
        <path id="URWPalladioL-Roma-34" d="M 1792 1152 
L 1792 684 
C 1792 310 1722 223 1408 210 
L 1011 192 
L 1011 0 
C 1862 0 1862 0 2016 0 
C 2170 19 2170 19 3021 0 
L 3021 192 
L 2714 210 
C 2400 229 2330 310 2330 684 
L 2330 1152 
C 2707 1152 2842 1145 3021 1127 
L 3021 1580 
C 2720 1555 2598 1555 2502 1561 
L 2483 1561 
L 2330 1561 
L 2330 2445 
C 2330 3576 2342 4122 2374 4383 
L 2298 4416 
L 1824 4243 
L 13 1299 
L 83 1152 
L 1792 1152 
z
M 1792 1561 
L 416 1561 
L 1792 3798 
L 1792 1561 
z
" transform="scale(0.015625)"/>
       </defs>
       <use xlink:href="#URWPalladioL-Roma-30" transform="scale(0.996264)"/>
       <use xlink:href="#URWPalladioL-Roma-2e" transform="translate(49.8132 0)scale(0.996264)"/>
       <use xlink:href="#URWPalladioL-Roma-34" transform="translate(74.719801 0)scale(0.996264)"/>
      </g>
     </g>
    </g>
    <g id="xtick_4">
     <g id="line2d_7">
      <path d="M 363.099943 99.894936 
L 363.099943 8.013328 
" clip-path="url(#pe79df57150)" style="fill: none; stroke: #000000; stroke-opacity: 0.2; stroke-width: 0.5; stroke-linecap: round"/>
     </g>
     <g id="line2d_8">
      <g>
       <use xlink:href="#mfad3f579c2" x="363.099943" y="99.894936" style="fill-opacity: 0.2; stroke: #000000; stroke-opacity: 0.2; stroke-width: 0.5"/>
      </g>
     </g>
     <g id="text_4">
      <!-- $\mathdefault{0.6}$ -->
      <g transform="translate(354.382632 125.374465)scale(0.14 -0.14)">
       <defs>
        <path id="URWPalladioL-Roma-36" d="M 2662 4287 
L 2426 4396 
C 1811 4193 1549 4066 1222 3788 
C 563 3237 205 2463 205 1585 
C 205 526 717 -128 1542 -128 
C 2374 -128 2995 532 2995 1405 
C 2995 2143 2554 2624 1875 2624 
C 1555 2624 1363 2540 986 2239 
C 915 2182 909 2175 838 2124 
C 973 3275 1510 3895 2662 4237 
L 2662 4287 
z
M 1632 2239 
C 2118 2239 2445 1816 2445 1180 
C 2445 513 2118 83 1626 83 
C 1082 83 787 551 787 1411 
C 787 1636 813 1758 883 1867 
C 1024 2085 1325 2239 1632 2239 
z
" transform="scale(0.015625)"/>
       </defs>
       <use xlink:href="#URWPalladioL-Roma-30" transform="scale(0.996264)"/>
       <use xlink:href="#URWPalladioL-Roma-2e" transform="translate(49.8132 0)scale(0.996264)"/>
       <use xlink:href="#URWPalladioL-Roma-36" transform="translate(74.719801 0)scale(0.996264)"/>
      </g>
     </g>
    </g>
    <g id="xtick_5">
     <g id="line2d_9">
      <path d="M 470.418026 99.894936 
L 470.418026 8.013328 
" clip-path="url(#pe79df57150)" style="fill: none; stroke: #000000; stroke-opacity: 0.2; stroke-width: 0.5; stroke-linecap: round"/>
     </g>
     <g id="line2d_10">
      <g>
       <use xlink:href="#mfad3f579c2" x="470.418026" y="99.894936" style="fill-opacity: 0.2; stroke: #000000; stroke-opacity: 0.2; stroke-width: 0.5"/>
      </g>
     </g>
     <g id="text_5">
      <!-- $\mathdefault{0.8}$ -->
      <g transform="translate(461.700716 125.374465)scale(0.14 -0.14)">
       <defs>
        <path id="URWPalladioL-Roma-38" d="M 1075 2211 
C 813 2089 704 2019 563 1884 
C 320 1640 192 1352 192 1019 
C 192 358 723 -128 1446 -128 
C 2278 -128 2970 525 2970 1320 
C 2970 1833 2733 2108 2003 2442 
C 2586 2839 2790 3108 2790 3493 
C 2790 4044 2336 4416 1658 4416 
C 896 4416 339 3929 339 3256 
C 339 2820 512 2576 1075 2211 
z
M 1818 1890 
C 2221 1711 2464 1397 2464 1051 
C 2464 512 2061 89 1542 89 
C 998 89 646 474 646 1070 
C 646 1538 832 1833 1306 2121 
L 1818 1890 
z
M 1427 2711 
C 1024 2910 819 3166 819 3486 
C 819 3910 1126 4198 1581 4198 
C 2048 4198 2355 3890 2355 3422 
C 2355 3057 2195 2807 1779 2538 
L 1427 2711 
z
" transform="scale(0.015625)"/>
       </defs>
       <use xlink:href="#URWPalladioL-Roma-30" transform="scale(0.996264)"/>
       <use xlink:href="#URWPalladioL-Roma-2e" transform="translate(49.8132 0)scale(0.996264)"/>
       <use xlink:href="#URWPalladioL-Roma-38" transform="translate(74.719801 0)scale(0.996264)"/>
      </g>
     </g>
    </g>
    <g id="text_6">
     <!-- Time $t$ [seconds] -->
     <g transform="translate(265.865441 141.861513)scale(0.12 -0.12)">
      <defs>
       <path id="URWPalladioL-Roma-54" d="M 1632 4096 
C 1651 3880 1658 3734 1658 3462 
L 1658 781 
C 1658 280 1626 230 1331 211 
L 1024 192 
L 1024 0 
C 1402 -7 1626 0 1958 0 
C 2291 19 2522 12 2899 0 
L 2899 192 
L 2592 211 
C 2298 230 2266 280 2266 781 
L 2266 3462 
C 2266 3747 2272 3887 2291 4096 
L 3283 4096 
C 3462 4096 3533 4039 3539 3887 
L 3565 3386 
L 3763 3386 
C 3763 3801 3776 4051 3808 4416 
C 3347 4409 3136 4409 2957 4403 
C 2707 4390 2522 4390 2426 4390 
L 1414 4390 
C 1350 4390 1005 4396 550 4403 
L 115 4416 
C 147 4051 160 3801 160 3385 
L 358 3385 
L 384 3891 
C 390 4038 461 4096 640 4096 
L 1632 4096 
z
" transform="scale(0.015625)"/>
       <path id="URWPalladioL-Roma-69" d="M 1203 2982 
L 1146 3008 
C 819 2873 486 2784 147 2746 
L 147 2568 
L 384 2568 
C 640 2568 666 2523 666 2103 
L 666 669 
C 666 268 646 223 429 211 
L 134 192 
L 134 0 
C 774 0 774 0 934 0 
C 1094 19 1094 19 1734 0 
L 1734 192 
L 1440 211 
C 1222 224 1203 268 1203 671 
L 1203 2982 
z
M 909 4416 
C 717 4416 550 4249 550 4057 
C 550 3871 717 3705 902 3705 
C 1088 3705 1261 3871 1261 4057 
C 1261 4236 1088 4416 909 4416 
z
" transform="scale(0.015625)"/>
       <path id="URWPalladioL-Roma-6d" d="M 115 2579 
L 352 2579 
C 608 2579 634 2534 634 2112 
L 634 672 
C 634 268 614 224 397 211 
L 102 192 
L 102 0 
C 717 0 736 0 915 0 
C 1094 19 1261 12 1677 0 
L 1677 192 
L 1408 211 
C 1190 223 1171 268 1171 670 
L 1171 2023 
C 1171 2311 1594 2624 1978 2624 
C 2323 2624 2560 2298 2560 1813 
L 2560 670 
C 2560 268 2541 223 2323 211 
L 2029 192 
L 2029 0 
C 2669 0 2669 0 2829 0 
C 2989 19 2989 19 3629 0 
L 3629 192 
L 3334 211 
C 3117 223 3098 268 3098 670 
L 3098 2023 
C 3098 2311 3520 2624 3904 2624 
C 4250 2624 4486 2298 4486 1813 
L 4486 0 
C 4877 0 4883 0 4992 0 
C 5075 19 5075 19 5562 0 
L 5562 192 
L 5261 211 
C 5043 223 5024 268 5024 670 
L 5024 1985 
C 5024 2617 4653 3014 4064 3014 
C 3840 3014 3654 2956 3539 2854 
L 3053 2419 
C 2848 2841 2586 3014 2144 3014 
C 1907 3014 1728 2956 1613 2854 
L 1171 2445 
L 1171 2988 
L 1114 3008 
C 787 2873 454 2783 115 2745 
L 115 2579 
z
" transform="scale(0.015625)"/>
       <path id="URWPalladioL-Roma-65" d="M 2797 447 
L 2714 511 
C 2304 268 2157 211 1882 211 
C 1466 211 1120 396 941 710 
C 819 921 774 1100 762 1472 
L 1696 1472 
C 2138 1472 2413 1491 2854 1561 
C 2861 1651 2867 1708 2867 1786 
C 2867 2526 2394 3008 1677 3008 
C 1440 3008 1165 2924 902 2771 
C 378 2468 166 2069 166 1401 
C 166 998 262 652 435 409 
C 691 70 1120 -128 1600 -128 
C 1837 -128 2074 -77 2336 38 
C 2509 108 2643 192 2669 230 
L 2797 447 
z
M 2298 1708 
C 1965 1696 1811 1689 1581 1689 
C 1286 1689 1120 1696 774 1728 
C 774 2030 800 2172 883 2339 
C 1018 2623 1293 2796 1600 2796 
C 1811 2796 1978 2713 2093 2539 
C 2234 2326 2278 2140 2298 1708 
z
" transform="scale(0.015625)"/>
       <path id="URWPalladioL-Ital-74" d="M 800 2489 
L 442 678 
C 435 633 429 620 410 544 
C 371 364 358 268 358 192 
C 358 32 429 -64 550 -64 
C 774 -64 998 64 1498 467 
L 1594 544 
L 1696 627 
L 1632 742 
L 1344 544 
C 1158 416 1030 352 960 352 
C 902 352 870 403 870 480 
C 870 646 960 1164 1146 2092 
L 1229 2489 
L 1914 2489 
L 1984 2809 
C 1741 2784 1523 2771 1280 2771 
C 1382 3373 1453 3686 1568 4032 
L 1498 4128 
C 1370 4051 1197 3974 998 3897 
L 838 2809 
C 557 2675 390 2604 275 2572 
L 262 2489 
L 800 2489 
z
" transform="scale(0.015625)"/>
       <path id="URWPalladioL-Roma-5b" d="M 563 -1178 
C 1018 -1166 1030 -1166 1184 -1166 
C 1338 -1166 1370 -1166 1805 -1178 
L 1843 -1140 
L 1843 -974 
L 1818 -942 
L 1574 -942 
C 1402 -942 1261 -903 1184 -839 
C 1126 -782 1107 -692 1107 -481 
C 1107 -474 1107 -340 1101 -148 
L 1101 89 
L 1101 3379 
L 1101 3615 
C 1107 3795 1107 3935 1107 3942 
C 1107 4153 1126 4249 1184 4307 
C 1261 4371 1402 4409 1574 4409 
L 1818 4409 
L 1843 4441 
L 1843 4608 
L 1805 4646 
C 1357 4633 1338 4633 1184 4633 
C 1037 4633 1005 4633 563 4646 
L 506 4563 
C 544 4403 557 4191 557 3699 
C 557 3603 557 3526 563 3462 
L 563 3379 
L 563 89 
L 563 6 
C 557 -97 557 -103 557 -212 
L 557 -282 
C 557 -718 544 -897 506 -1095 
L 563 -1178 
z
" transform="scale(0.015625)"/>
       <path id="URWPalladioL-Roma-73" d="M 262 917 
C 262 474 243 282 192 25 
C 525 -84 774 -128 1069 -128 
C 1907 -128 2502 320 2502 949 
C 2502 1148 2445 1295 2323 1423 
C 2157 1584 1946 1661 1382 1770 
C 858 1872 685 2001 685 2296 
C 685 2617 909 2796 1299 2796 
C 1728 2796 2054 2572 2054 2270 
L 2054 2123 
L 2234 2123 
C 2240 2495 2246 2649 2266 2847 
C 1926 2963 1696 3008 1434 3008 
C 691 3008 237 2655 237 2078 
C 237 1770 378 1552 672 1417 
C 845 1340 1184 1237 1619 1141 
C 1907 1077 2029 942 2029 698 
C 2029 352 1709 108 1254 108 
C 787 108 454 333 454 654 
L 454 917 
L 262 917 
z
" transform="scale(0.015625)"/>
       <path id="URWPalladioL-Roma-63" d="M 2554 1995 
C 2554 2290 2586 2553 2643 2783 
C 2387 2937 2163 3008 1901 3008 
C 1594 3008 1235 2886 851 2643 
C 403 2360 166 1911 166 1347 
C 166 480 774 -128 1632 -128 
C 1965 -128 2445 -7 2509 89 
L 2643 294 
L 2579 390 
C 2342 262 2138 204 1907 204 
C 1197 204 730 756 730 1603 
C 730 2290 1050 2675 1626 2675 
C 1907 2675 2214 2547 2330 2386 
L 2374 1995 
L 2554 1995 
z
" transform="scale(0.015625)"/>
       <path id="URWPalladioL-Roma-6f" d="M 1786 3008 
C 851 3008 205 2347 205 1391 
C 205 487 774 -128 1600 -128 
C 2586 -128 3290 557 3290 1520 
C 3290 2386 2662 3008 1786 3008 
z
M 1670 2796 
C 2259 2796 2694 2155 2694 1282 
C 2694 545 2368 83 1850 83 
C 1222 83 800 699 800 1609 
C 800 2379 1107 2796 1670 2796 
z
" transform="scale(0.015625)"/>
       <path id="URWPalladioL-Roma-6e" d="M 2624 0 
C 3014 0 3021 0 3130 0 
C 3219 19 3219 19 3661 0 
L 3661 192 
L 3398 211 
C 3181 223 3162 262 3162 670 
L 3162 1902 
C 3162 2649 2810 3014 2093 3014 
C 1856 3014 1722 2969 1587 2854 
L 1101 2432 
L 1101 2988 
L 1043 3008 
C 717 2873 384 2784 45 2746 
L 45 2568 
L 282 2568 
C 538 2568 563 2523 563 2103 
L 563 669 
C 563 268 544 223 326 211 
L 38 192 
L 38 0 
C 474 -7 646 0 832 0 
C 1018 19 1190 12 1626 0 
L 1626 192 
L 1338 211 
C 1120 223 1101 268 1101 670 
L 1101 2023 
C 1101 2311 1523 2624 1914 2624 
C 2342 2624 2624 2304 2624 1813 
L 2624 0 
z
" transform="scale(0.015625)"/>
       <path id="URWPalladioL-Roma-64" d="M 2637 2803 
C 2278 2956 2099 3008 1875 3008 
C 1702 3008 1549 2969 1389 2886 
L 826 2592 
C 461 2400 224 1934 224 1392 
C 224 881 397 460 710 204 
C 928 19 1229 -64 1645 -64 
C 1773 -64 1920 -39 1952 -13 
L 2662 581 
L 2630 0 
C 2944 -7 3046 0 3123 0 
C 3174 0 3264 0 3398 -7 
C 3443 6 3571 6 3706 0 
L 3706 192 
L 3411 211 
C 3194 224 3174 268 3174 672 
L 3174 4614 
L 3117 4665 
C 2835 4557 2624 4505 2118 4429 
L 2118 4249 
L 2477 4249 
C 2592 4249 2637 4179 2637 3987 
L 2637 2803 
z
M 2637 1424 
C 2637 1009 2624 945 2541 798 
C 2362 498 2048 300 1747 300 
C 1184 300 781 843 781 1602 
C 781 2298 1126 2707 1702 2707 
C 1946 2707 2202 2624 2426 2470 
C 2560 2381 2637 2298 2637 2247 
L 2637 1424 
z
" transform="scale(0.015625)"/>
       <path id="URWPalladioL-Roma-5d" d="M 1568 4646 
C 1114 4633 1094 4633 947 4633 
C 794 4633 762 4633 326 4646 
L 288 4608 
L 288 4441 
L 314 4409 
L 557 4409 
C 730 4409 864 4371 941 4307 
C 1005 4249 1024 4159 1024 3942 
C 1024 3923 1024 3795 1030 3615 
L 1030 3379 
L 1030 89 
L 1030 -148 
C 1024 -334 1024 -449 1024 -468 
C 1024 -686 1005 -782 941 -839 
C 864 -903 730 -942 557 -942 
L 314 -942 
L 288 -974 
L 288 -1140 
L 326 -1178 
C 774 -1166 787 -1166 947 -1166 
C 1094 -1166 1126 -1166 1568 -1178 
L 1626 -1095 
C 1587 -942 1581 -743 1574 -250 
C 1574 -161 1574 -78 1568 6 
L 1568 89 
L 1568 3379 
L 1568 3462 
C 1574 3532 1574 3615 1574 3705 
C 1574 4198 1587 4409 1626 4563 
L 1568 4646 
z
" transform="scale(0.015625)"/>
      </defs>
      <use xlink:href="#URWPalladioL-Roma-54" transform="scale(0.996264)"/>
      <use xlink:href="#URWPalladioL-Roma-69" transform="translate(55.591109 0)scale(0.996264)"/>
      <use xlink:href="#URWPalladioL-Roma-6d" transform="translate(84.581471 0)scale(0.996264)"/>
      <use xlink:href="#URWPalladioL-Roma-65" transform="translate(172.551145 0)scale(0.996264)"/>
      <use xlink:href="#URWPalladioL-Ital-74" transform="translate(246.42334 0)scale(0.996264)"/>
      <use xlink:href="#URWPalladioL-Roma-5b" transform="translate(305.749922 0)scale(0.996264)"/>
      <use xlink:href="#URWPalladioL-Roma-73" transform="translate(338.925152 0)scale(0.996264)"/>
      <use xlink:href="#URWPalladioL-Roma-65" transform="translate(381.166618 0)scale(0.996264)"/>
      <use xlink:href="#URWPalladioL-Roma-63" transform="translate(428.886913 0)scale(0.996264)"/>
      <use xlink:href="#URWPalladioL-Roma-6f" transform="translate(473.120482 0)scale(0.996264)"/>
      <use xlink:href="#URWPalladioL-Roma-6e" transform="translate(527.516062 0)scale(0.996264)"/>
      <use xlink:href="#URWPalladioL-Roma-64" transform="translate(585.498123 0)scale(0.996264)"/>
      <use xlink:href="#URWPalladioL-Roma-73" transform="translate(646.369754 0)scale(0.996264)"/>
      <use xlink:href="#URWPalladioL-Roma-5d" transform="translate(688.61122 0)scale(0.996264)"/>
     </g>
    </g>
   </g>
   <g id="matplotlib.axis_2">
    <g id="ytick_1">
     <g id="line2d_11">
      <path d="M 41.145691 95.718499 
L 577.19952 95.718499 
" clip-path="url(#pe79df57150)" style="fill: none; stroke: #000000; stroke-opacity: 0.2; stroke-width: 0.5; stroke-linecap: round"/>
     </g>
     <g id="line2d_12">
      <defs>
       <path id="m0600434f98" d="M 0 0 
L -3.5 0 
" style="stroke: #000000; stroke-opacity: 0.2; stroke-width: 0.5"/>
      </defs>
      <g>
       <use xlink:href="#m0600434f98" x="41.145691" y="95.718499" style="fill-opacity: 0.2; stroke: #000000; stroke-opacity: 0.2; stroke-width: 0.5"/>
      </g>
     </g>
     <g id="text_7">
      <!-- $\mathdefault{−2}$ -->
      <g transform="translate(7.2 100.708264)scale(0.14 -0.14)">
       <defs>
        <path id="CMSY10-0" d="M 4218 1472 
C 4326 1472 4442 1472 4442 1600 
C 4442 1728 4326 1728 4218 1728 
L 755 1728 
C 646 1728 531 1728 531 1600 
C 531 1472 646 1472 755 1472 
L 4218 1472 
z
" transform="scale(0.015625)"/>
       </defs>
       <use xlink:href="#CMSY10-0" transform="scale(1.038107)"/>
       <use xlink:href="#URWPalladioL-Roma-32" transform="translate(81.941696 0)scale(0.996264)"/>
      </g>
     </g>
    </g>
    <g id="ytick_2">
     <g id="line2d_13">
      <path d="M 41.145691 53.954132 
L 577.19952 53.954132 
" clip-path="url(#pe79df57150)" style="fill: none; stroke: #000000; stroke-opacity: 0.2; stroke-width: 0.5; stroke-linecap: round"/>
     </g>
     <g id="line2d_14">
      <g>
       <use xlink:href="#m0600434f98" x="41.145691" y="53.954132" style="fill-opacity: 0.2; stroke: #000000; stroke-opacity: 0.2; stroke-width: 0.5"/>
      </g>
     </g>
     <g id="text_8">
      <!-- $\mathdefault{0}$ -->
      <g transform="translate(18.671843 58.943897)scale(0.14 -0.14)">
       <use xlink:href="#URWPalladioL-Roma-30" transform="scale(0.996264)"/>
      </g>
     </g>
    </g>
    <g id="ytick_3">
     <g id="line2d_15">
      <path d="M 41.145691 12.189765 
L 577.19952 12.189765 
" clip-path="url(#pe79df57150)" style="fill: none; stroke: #000000; stroke-opacity: 0.2; stroke-width: 0.5; stroke-linecap: round"/>
     </g>
     <g id="line2d_16">
      <g>
       <use xlink:href="#m0600434f98" x="41.145691" y="12.189765" style="fill-opacity: 0.2; stroke: #000000; stroke-opacity: 0.2; stroke-width: 0.5"/>
      </g>
     </g>
     <g id="text_9">
      <!-- $\mathdefault{2}$ -->
      <g transform="translate(18.671843 17.179529)scale(0.14 -0.14)">
       <use xlink:href="#URWPalladioL-Roma-32" transform="scale(0.996264)"/>
      </g>
     </g>
    </g>
   </g>
   <g id="line2d_17">
    <path d="M 41.145691 12.189765 
L 43.292052 12.308421 
L 45.438414 12.663717 
L 47.584776 13.253634 
L 49.731137 14.074818 
L 51.877499 15.122605 
L 54.023861 16.391041 
L 56.706813 18.275776 
L 59.389765 20.477194 
L 62.072717 22.975756 
L 64.755669 25.749284 
L 67.975212 29.405653 
L 71.731345 34.064345 
L 76.024068 39.806957 
L 81.389972 47.420746 
L 96.951094 69.815366 
L 101.243818 75.439374 
L 104.999951 79.96447 
L 108.219493 83.485999 
L 110.902445 86.13413 
L 113.585397 88.496629 
L 116.268349 90.552526 
L 118.951302 92.283573 
L 121.097663 93.424093 
L 123.244025 94.340337 
L 125.390387 95.027099 
L 127.536748 95.480475 
L 129.68311 95.697891 
L 131.829472 95.67811 
L 133.975833 95.421246 
L 136.122195 94.928757 
L 138.268557 94.203442 
L 140.414918 93.249422 
L 142.56128 92.072119 
L 144.707642 90.678221 
L 147.390594 88.643444 
L 150.073546 86.300762 
L 152.756498 83.670969 
L 155.976041 80.169265 
L 159.195583 76.332599 
L 162.951716 71.498747 
L 167.244439 65.606019 
L 173.146934 57.100108 
L 184.415333 40.798919 
L 188.708056 34.993506 
L 192.464189 30.262503 
L 195.683732 26.532243 
L 198.903274 23.152363 
L 201.586226 20.634752 
L 204.269178 18.412886 
L 206.95213 16.506486 
L 209.098492 15.219972 
L 211.244854 14.153553 
L 213.391215 13.313288 
L 215.537577 12.703953 
L 217.683939 12.32901 
L 219.8303 12.190589 
L 221.976662 12.289477 
L 224.123024 12.625111 
L 226.269386 13.195586 
L 228.415747 13.997658 
L 230.562109 15.026772 
L 232.708471 16.277078 
L 235.391423 18.140074 
L 238.074375 20.320958 
L 240.757327 22.800372 
L 243.440279 25.556309 
L 246.659821 29.193842 
L 250.415954 33.833995 
L 254.708678 39.560338 
L 260.074582 47.161694 
L 275.635704 69.572302 
L 279.928427 75.213925 
L 283.68456 79.758648 
L 286.904103 83.299863 
L 289.587055 85.966227 
L 292.270007 88.34845 
L 294.952959 90.425386 
L 297.635911 92.1786 
L 299.782273 93.337535 
L 301.928635 94.272685 
L 304.074996 94.978738 
L 306.221358 95.45168 
L 308.36772 95.688825 
L 310.514081 95.688825 
L 312.660443 95.45168 
L 314.806805 94.978738 
L 316.953166 94.272685 
L 319.099528 93.337535 
L 321.24589 92.1786 
L 323.392251 90.802467 
L 326.075204 88.78889 
L 328.758156 86.466117 
L 331.441108 83.854766 
L 334.66065 80.373025 
L 337.880193 76.553719 
L 341.636326 71.736535 
L 345.929049 65.857781 
L 351.831544 57.361712 
L 363.099943 41.048233 
L 367.392666 35.227691 
L 371.148799 30.479075 
L 374.368341 26.730709 
L 377.587884 23.330186 
L 380.270836 20.793625 
L 382.953788 18.551399 
L 385.63674 16.62341 
L 387.783102 15.318868 
L 389.929464 14.233858 
L 392.075825 13.374547 
L 394.222187 12.745818 
L 396.368549 12.351242 
L 398.51491 12.193062 
L 400.661272 12.272177 
L 402.807634 12.588137 
L 404.953995 13.139147 
L 407.100357 13.922076 
L 409.246719 14.932475 
L 411.39308 16.164603 
L 413.539442 17.611458 
L 416.222394 19.709351 
L 418.905346 22.111203 
L 421.588298 24.795695 
L 424.807841 28.356457 
L 428.027383 32.24429 
L 431.783516 37.127 
L 436.61283 43.822129 
L 443.588505 53.954132 
L 452.173952 66.359886 
L 457.003266 72.914758 
L 460.759399 77.645761 
L 463.978941 81.376021 
L 467.198484 84.755901 
L 469.881436 87.273512 
L 472.564388 89.495378 
L 475.24734 91.401778 
L 477.393702 92.688292 
L 479.540064 93.754711 
L 481.686425 94.594976 
L 483.832787 95.204311 
L 485.979149 95.579254 
L 488.12551 95.717675 
L 490.271872 95.618787 
L 492.418234 95.283152 
L 494.564595 94.712678 
L 496.710957 93.910606 
L 498.857319 92.881492 
L 501.00368 91.631186 
L 503.686633 89.76819 
L 506.369585 87.587306 
L 509.052537 85.107892 
L 511.735489 82.351955 
L 514.955031 78.714422 
L 518.711164 74.074269 
L 523.003888 68.347926 
L 528.369792 60.74657 
L 543.930914 38.335962 
L 548.223637 32.694339 
L 551.97977 28.149616 
L 555.199313 24.608401 
L 557.882265 21.942036 
L 560.565217 19.559814 
L 563.248169 17.482878 
L 565.931121 15.729663 
L 568.077483 14.570729 
L 570.223845 13.635579 
L 572.370206 12.929526 
L 574.516568 12.456584 
L 576.66293 12.219439 
L 577.19952 12.197184 
L 577.19952 12.197184 
" clip-path="url(#pe79df57150)" style="fill: none; stroke: #0271ae; stroke-width: 2; stroke-linecap: round"/>
   </g>
   <g id="line2d_18">
    <path d="M 41.145691 95.718499 
L 43.292052 95.599843 
L 45.438414 95.244547 
L 47.584776 94.65463 
L 49.731137 93.833446 
L 51.877499 92.785659 
L 54.023861 91.517223 
L 56.706813 89.632488 
L 59.389765 87.43107 
L 62.072717 84.932508 
L 64.755669 82.158979 
L 67.975212 78.502611 
L 71.731345 73.843919 
L 76.024068 68.101307 
L 81.389972 60.487518 
L 96.951094 38.092898 
L 101.243818 32.46889 
L 104.999951 27.943794 
L 108.219493 24.422265 
L 110.902445 21.774134 
L 113.585397 19.411635 
L 116.268349 17.355738 
L 118.951302 15.624691 
L 121.097663 14.484171 
L 123.244025 13.567927 
L 125.390387 12.881165 
L 127.536748 12.427789 
L 129.68311 12.210373 
L 131.829472 12.230154 
L 133.975833 12.487018 
L 136.122195 12.979507 
L 138.268557 13.704822 
L 140.414918 14.658842 
L 142.56128 15.836145 
L 144.707642 17.230043 
L 147.390594 19.26482 
L 150.073546 21.607502 
L 152.756498 24.237295 
L 155.976041 27.738999 
L 159.195583 31.575665 
L 162.951716 36.409517 
L 167.244439 42.302245 
L 173.146934 50.808156 
L 184.415333 67.109345 
L 188.708056 72.914758 
L 192.464189 77.645761 
L 195.683732 81.376021 
L 198.903274 84.755901 
L 201.586226 87.273512 
L 204.269178 89.495378 
L 206.95213 91.401778 
L 209.098492 92.688292 
L 211.244854 93.754711 
L 213.391215 94.594976 
L 215.537577 95.204311 
L 217.683939 95.579254 
L 219.8303 95.717675 
L 221.976662 95.618787 
L 224.123024 95.283152 
L 226.269386 94.712678 
L 228.415747 93.910606 
L 230.562109 92.881492 
L 232.708471 91.631186 
L 235.391423 89.76819 
L 238.074375 87.587306 
L 240.757327 85.107892 
L 243.440279 82.351955 
L 246.659821 78.714422 
L 250.415954 74.074269 
L 254.708678 68.347926 
L 260.074582 60.74657 
L 275.635704 38.335962 
L 279.928427 32.694339 
L 283.68456 28.149616 
L 286.904103 24.608401 
L 289.587055 21.942036 
L 292.270007 19.559814 
L 294.952959 17.482878 
L 297.635911 15.729663 
L 299.782273 14.570729 
L 301.928635 13.635579 
L 304.074996 12.929526 
L 306.221358 12.456584 
L 308.36772 12.219439 
L 310.514081 12.219439 
L 312.660443 12.456584 
L 314.806805 12.929526 
L 316.953166 13.635579 
L 319.099528 14.570729 
L 321.24589 15.729663 
L 323.392251 17.105797 
L 326.075204 19.119374 
L 328.758156 21.442146 
L 331.441108 24.053498 
L 334.66065 27.535239 
L 337.880193 31.354545 
L 341.636326 36.171729 
L 345.929049 42.050483 
L 351.831544 50.546552 
L 363.099943 66.860031 
L 367.392666 72.680573 
L 371.148799 77.429189 
L 374.368341 81.177555 
L 377.587884 84.578078 
L 380.270836 87.114639 
L 382.953788 89.356865 
L 385.63674 91.284854 
L 387.783102 92.589396 
L 389.929464 93.674406 
L 392.075825 94.533717 
L 394.222187 95.162446 
L 396.368549 95.557022 
L 398.51491 95.715202 
L 400.661272 95.636087 
L 402.807634 95.320127 
L 404.953995 94.769117 
L 407.100357 93.986188 
L 409.246719 92.975789 
L 411.39308 91.743661 
L 413.539442 90.296806 
L 416.222394 88.198913 
L 418.905346 85.797061 
L 421.588298 83.112569 
L 424.807841 79.551807 
L 428.027383 75.663974 
L 431.783516 70.781264 
L 436.61283 64.086135 
L 443.588505 53.954132 
L 452.173952 41.548378 
L 457.003266 34.993506 
L 460.759399 30.262503 
L 463.978941 26.532243 
L 467.198484 23.152363 
L 469.881436 20.634752 
L 472.564388 18.412886 
L 475.24734 16.506486 
L 477.393702 15.219972 
L 479.540064 14.153553 
L 481.686425 13.313288 
L 483.832787 12.703953 
L 485.979149 12.32901 
L 488.12551 12.190589 
L 490.271872 12.289477 
L 492.418234 12.625111 
L 494.564595 13.195586 
L 496.710957 13.997658 
L 498.857319 15.026772 
L 501.00368 16.277078 
L 503.686633 18.140074 
L 506.369585 20.320958 
L 509.052537 22.800372 
L 511.735489 25.556309 
L 514.955031 29.193842 
L 518.711164 33.833995 
L 523.003888 39.560338 
L 528.369792 47.161694 
L 543.930914 69.572302 
L 548.223637 75.213925 
L 551.97977 79.758648 
L 555.199313 83.299863 
L 557.882265 85.966227 
L 560.565217 88.34845 
L 563.248169 90.425386 
L 565.931121 92.1786 
L 568.077483 93.337535 
L 570.223845 94.272685 
L 572.370206 94.978738 
L 574.516568 95.45168 
L 576.66293 95.688825 
L 577.19952 95.71108 
L 577.19952 95.71108 
" clip-path="url(#pe79df57150)" style="fill: none; stroke-dasharray: 7.4,3.2; stroke-dashoffset: 0; stroke: #dc2830; stroke-width: 2; stroke-linejoin: bevel"/>
   </g>
   <g id="legend_1">
    <g id="patch_3">
     <path d="M 295.708464 40.74681 
L 567.39952 40.74681 
Q 570.19952 40.74681 570.19952 37.94681 
L 570.19952 17.813328 
Q 570.19952 15.013328 567.39952 15.013328 
L 295.708464 15.013328 
Q 292.908464 15.013328 292.908464 17.813328 
L 292.908464 37.94681 
Q 292.908464 40.74681 295.708464 40.74681 
z
" style="fill: #ffffff; opacity: 0.95; stroke: #cccccc; stroke-width: 0.5; stroke-linejoin: miter"/>
    </g>
    <g id="line2d_19">
     <path d="M 298.508464 26.313637 
L 305.508464 26.313637 
L 312.508464 26.313637 
" style="fill: none; stroke: #0271ae; stroke-width: 2; stroke-linecap: round"/>
    </g>
    <g id="text_10">
     <!-- $\cos(2\pi \cdot 3 \cdot t)$ -->
     <g transform="translate(323.708464 31.213637)scale(0.14 -0.14)">
      <defs>
       <path id="CMR10-28" d="M 2118 -1536 
C 2118 -1517 2118 -1504 2010 -1396 
C 1210 -589 1005 620 1005 1600 
C 1005 2713 1248 3827 2035 4627 
C 2118 4704 2118 4716 2118 4736 
C 2118 4780 2093 4800 2054 4800 
C 1990 4800 1414 4365 1037 3552 
C 710 2848 634 2137 634 1600 
C 634 1100 704 326 1056 -397 
C 1440 -1184 1990 -1600 2054 -1600 
C 2093 -1600 2118 -1581 2118 -1536 
z
" transform="scale(0.015625)"/>
       <path id="PazoMath-Italic-70" d="M 614 2255 
L 672 2299 
C 806 2681 1062 2700 1427 2700 
C 1504 2700 1619 2694 1754 2694 
C 1216 1242 973 803 454 -7 
L 512 -64 
L 986 102 
C 1216 599 1606 1567 1958 2688 
L 3149 2624 
C 3040 2232 2669 1089 2669 685 
C 2669 19 2912 -64 3110 -64 
C 3437 -64 3622 19 4026 356 
L 3974 476 
L 3821 369 
C 3840 382 3654 236 3546 236 
C 3245 236 3155 419 3155 811 
C 3155 969 3168 1139 3206 1323 
C 3315 1847 3424 2365 3482 2624 
C 3629 2624 3776 2630 3923 2649 
C 4038 2649 4179 2713 4282 2752 
C 4352 2905 4378 2918 4499 3072 
L 4454 3136 
C 4282 3075 3994 3008 3782 3008 
C 3706 3001 3546 2995 3386 2995 
C 2701 3020 1645 3072 1363 3072 
C 883 3072 710 2860 525 2306 
L 614 2255 
z
" transform="scale(0.015625)"/>
       <path id="CMSY10-1" d="M 1229 1619 
C 1229 1804 1075 1958 890 1958 
C 704 1958 550 1804 550 1619 
C 550 1433 704 1280 890 1280 
C 1075 1280 1229 1433 1229 1619 
z
" transform="scale(0.015625)"/>
       <path id="URWPalladioL-Roma-33" d="M 275 3196 
L 474 3196 
L 589 3553 
C 659 3770 1062 3987 1395 3987 
C 1811 3987 2150 3649 2150 3247 
C 2150 2769 1773 2368 1318 2368 
C 1267 2368 1197 2374 1114 2380 
L 1018 2387 
L 941 2047 
L 986 2008 
C 1229 2118 1350 2150 1523 2150 
C 2054 2150 2362 1808 2362 1222 
C 2362 565 1971 134 1376 134 
C 1082 134 819 231 627 411 
C 474 553 390 701 269 1048 
L 96 984 
C 230 591 282 359 320 38 
C 659 -77 941 -128 1178 -128 
C 1690 -128 2278 160 2630 591 
C 2848 855 2957 1139 2957 1441 
C 2957 1750 2829 2021 2598 2182 
C 2438 2297 2291 2348 1971 2406 
C 2483 2801 2675 3094 2675 3470 
C 2675 4038 2202 4416 1491 4416 
C 1056 4416 768 4294 461 3987 
L 275 3196 
z
" transform="scale(0.015625)"/>
       <path id="CMR10-29" d="M 1850 1600 
C 1850 2099 1779 2873 1427 3597 
C 1043 4384 493 4800 429 4800 
C 390 4800 365 4774 365 4736 
C 365 4716 365 4704 486 4589 
C 1114 3955 1478 2937 1478 1600 
C 1478 505 1242 -621 448 -1428 
C 365 -1504 365 -1517 365 -1536 
C 365 -1575 390 -1600 429 -1600 
C 493 -1600 1069 -1165 1446 -352 
C 1773 352 1850 1062 1850 1600 
z
" transform="scale(0.015625)"/>
      </defs>
      <use xlink:href="#URWPalladioL-Roma-63" transform="scale(0.996264)"/>
      <use xlink:href="#URWPalladioL-Roma-6f" transform="translate(44.233569 0)scale(0.996264)"/>
      <use xlink:href="#URWPalladioL-Roma-73" transform="translate(98.629149 0)scale(0.996264)"/>
      <use xlink:href="#CMR10-28" transform="translate(142.115915 0)scale(1.038107)"/>
      <use xlink:href="#URWPalladioL-Roma-32" transform="translate(183.61032 0)scale(0.996264)"/>
      <use xlink:href="#PazoMath-Italic-70" transform="translate(234.66882 0)scale(0.996264)"/>
      <use xlink:href="#CMSY10-1" transform="translate(326.567501 0)scale(1.038107)"/>
      <use xlink:href="#URWPalladioL-Roma-33" transform="translate(375.976654 0)scale(0.996264)"/>
      <use xlink:href="#CMSY10-1" transform="translate(446.406907 0)scale(1.038107)"/>
      <use xlink:href="#URWPalladioL-Ital-74" transform="translate(497.061359 0)scale(0.996264)"/>
      <use xlink:href="#CMR10-29" transform="translate(532.72664 0)scale(1.038107)"/>
     </g>
    </g>
    <g id="line2d_20">
     <path d="M 431.941997 26.313637 
L 438.941997 26.313637 
L 445.941997 26.313637 
" style="fill: none; stroke-dasharray: 7.4,3.2; stroke-dashoffset: 0; stroke: #dc2830; stroke-width: 2; stroke-linejoin: bevel"/>
    </g>
    <g id="text_11">
     <!-- $\cos(2\pi \cdot 3 \cdot t - \pi)$ -->
     <g transform="translate(457.141997 31.213637)scale(0.14 -0.14)">
      <use xlink:href="#URWPalladioL-Roma-63" transform="scale(0.996264)"/>
      <use xlink:href="#URWPalladioL-Roma-6f" transform="translate(44.233569 0)scale(0.996264)"/>
      <use xlink:href="#URWPalladioL-Roma-73" transform="translate(98.629149 0)scale(0.996264)"/>
      <use xlink:href="#CMR10-28" transform="translate(142.115915 0)scale(1.038107)"/>
      <use xlink:href="#URWPalladioL-Roma-32" transform="translate(183.61032 0)scale(0.996264)"/>
      <use xlink:href="#PazoMath-Italic-70" transform="translate(234.66882 0)scale(0.996264)"/>
      <use xlink:href="#CMSY10-1" transform="translate(326.567501 0)scale(1.038107)"/>
      <use xlink:href="#URWPalladioL-Roma-33" transform="translate(375.976654 0)scale(0.996264)"/>
      <use xlink:href="#CMSY10-1" transform="translate(446.406907 0)scale(1.038107)"/>
      <use xlink:href="#URWPalladioL-Ital-74" transform="translate(497.061359 0)scale(0.996264)"/>
      <use xlink:href="#CMSY10-0" transform="translate(552.098393 0)scale(1.038107)"/>
      <use xlink:href="#PazoMath-Italic-70" transform="translate(654.657142 0)scale(0.996264)"/>
      <use xlink:href="#CMR10-29" transform="translate(727.18407 0)scale(1.038107)"/>
     </g>
    </g>
   </g>
  </g>
 </g>
 <defs>
  <clipPath id="pe79df57150">
   <rect x="41.145691" y="8.013328" width="536.053829" height="91.881608"/>
  </clipPath>
 </defs>
</svg>