<?xml version="1.0" encoding="utf-8" standalone="no"?>
<!DOCTYPE svg PUBLIC "-//W3C//DTD SVG 1.1//EN"
  "http://www.w3.org/Graphics/SVG/1.1/DTD/svg11.dtd">
<svg height="211.668649pt" version="1.1" viewBox="0 0 584.39952 211.668649" width="584.39952pt" xmlns="http://www.w3.org/2000/svg" xmlns:xlink="http://www.w3.org/1999/xlink">
 <metadata>
  <rdf:RDF xmlns:cc="http://creativecommons.org/ns#" xmlns:dc="http://purl.org/dc/elements/1.1/" xmlns:rdf="http://www.w3.org/1999/02/22-rdf-syntax-ns#">
   <cc:Work>
    <dc:type rdf:resource="http://purl.org/dc/dcmitype/StillImage"/>
    <dc:date>2021-08-11T10:47:16.106105</dc:date>
    <dc:format>image/svg+xml</dc:format>
    <dc:creator>
     <cc:Agent>
      <dc:title>Matplotlib v3.4.2, https://matplotlib.org/</dc:title>
     </cc:Agent>
    </dc:creator>
   </cc:Work>
  </rdf:RDF>
 </metadata>
 <defs>
  <style type="text/css">*{stroke-linecap:butt;stroke-linejoin:round;}</style>
 </defs>
 <g id="figure_1">
  <g id="patch_1">
   <path d="M 0 211.668649 
L 584.39952 211.668649 
L 584.39952 0 
L 0 0 
z
" style="fill:none;"/>
  </g>
  <g id="axes_1">
   <g id="patch_2">
    <path d="M 45.599008 159.130787 
L 457.220526 159.130787 
L 457.220526 7.2 
L 45.599008 7.2 
z
" style="fill:none;"/>
   </g>
   <g id="matplotlib.axis_1">
    <g id="xtick_1">
     <g id="line2d_1">
      <path clip-path="url(#p905a7773dd)" d="M 62.23018 159.130787 
L 62.23018 7.2 
" style="fill:none;stroke:#000000;stroke-linejoin:miter;stroke-opacity:0.2;stroke-width:0.5;"/>
     </g>
     <g id="line2d_2">
      <defs>
       <path d="M 0 0 
L 0 3.5 
" id="m02947056b1" style="stroke:#000000;stroke-opacity:0.2;stroke-width:0.8;"/>
      </defs>
      <g>
       <use style="fill-opacity:0.2;stroke:#000000;stroke-opacity:0.2;stroke-width:0.8;" x="62.23018" xlink:href="#m02947056b1" y="159.130787"/>
      </g>
     </g>
     <g id="text_1">
      <!-- 1 -->
      <g transform="translate(58.743256 184.610317)scale(0.14 -0.14)">
       <defs>
        <path d="M 429 3571 
L 493 3571 
L 1318 3942 
C 1325 3949 1331 3949 1338 3949 
C 1376 3949 1389 3891 1389 3737 
L 1389 633 
C 1389 300 1318 230 973 211 
L 614 192 
L 614 0 
C 1600 0 1600 0 1670 0 
C 1754 0 1894 0 2112 -7 
C 2189 6 2413 6 2675 0 
L 2675 192 
L 2342 211 
C 1990 229 1926 299 1926 628 
L 1926 4383 
L 1837 4416 
C 1421 4199 966 4009 384 3807 
L 429 3571 
z
" id="URWPalladioL-Roma-31" transform="scale(0.015625)"/>
       </defs>
       <use transform="scale(0.996264)" xlink:href="#URWPalladioL-Roma-31"/>
      </g>
     </g>
    </g>
    <g id="xtick_2">
     <g id="line2d_3">
      <path clip-path="url(#p905a7773dd)" d="M 83.019146 159.130787 
L 83.019146 7.2 
" style="fill:none;stroke:#000000;stroke-linejoin:miter;stroke-opacity:0.2;stroke-width:0.5;"/>
     </g>
     <g id="line2d_4">
      <g>
       <use style="fill-opacity:0.2;stroke:#000000;stroke-opacity:0.2;stroke-width:0.8;" x="83.019146" xlink:href="#m02947056b1" y="159.130787"/>
      </g>
     </g>
     <g id="text_2">
      <!-- 2 -->
      <g transform="translate(79.532222 184.610317)scale(0.14 -0.14)">
       <defs>
        <path d="M 102 166 
L 102 0 
C 1299 0 1299 0 1530 0 
C 1760 19 1760 19 2995 0 
C 2982 134 2982 198 2982 287 
C 2982 370 2982 434 2995 574 
C 2259 542 1965 536 781 510 
L 1946 1741 
C 2566 2398 2758 2749 2758 3228 
C 2758 3961 2259 4416 1446 4416 
C 986 4416 672 4287 358 3967 
L 250 3100 
L 435 3100 
L 518 3394 
C 621 3763 851 3923 1280 3923 
C 1830 3923 2182 3578 2182 3036 
C 2182 2558 1914 2086 1190 1320 
L 102 166 
z
" id="URWPalladioL-Roma-32" transform="scale(0.015625)"/>
       </defs>
       <use transform="scale(0.996264)" xlink:href="#URWPalladioL-Roma-32"/>
      </g>
     </g>
    </g>
    <g id="xtick_3">
     <g id="line2d_5">
      <path clip-path="url(#p905a7773dd)" d="M 97.951482 159.130787 
L 97.951482 7.2 
" style="fill:none;stroke:#000000;stroke-linejoin:miter;stroke-opacity:0.2;stroke-width:0.5;"/>
     </g>
     <g id="line2d_6">
      <g>
       <use style="fill-opacity:0.2;stroke:#000000;stroke-opacity:0.2;stroke-width:0.8;" x="97.951482" xlink:href="#m02947056b1" y="159.130787"/>
      </g>
     </g>
     <g id="text_3">
      <!-- $e$ -->
      <g transform="translate(95.238724 184.610317)scale(0.14 -0.14)">
       <defs>
        <path d="M 2099 713 
L 1946 605 
C 1606 363 1299 236 1069 236 
C 768 236 582 471 582 853 
C 582 1011 602 1183 634 1367 
L 1158 1494 
C 1267 1520 1440 1583 1600 1653 
C 2144 1888 2394 2180 2394 2574 
C 2394 2873 2176 3072 1856 3072 
C 1440 3072 730 2631 480 2225 
C 288 1907 96 1151 96 725 
C 96 230 378 -64 838 -64 
C 1203 -64 1562 115 2150 592 
L 2099 713 
z
M 723 1748 
C 832 2187 960 2460 1146 2625 
C 1261 2727 1459 2803 1613 2803 
C 1798 2803 1920 2676 1920 2472 
C 1920 2193 1696 1894 1363 1736 
C 1184 1647 954 1577 666 1513 
L 723 1748 
z
" id="URWPalladioL-Ital-65" transform="scale(0.015625)"/>
       </defs>
       <use transform="scale(0.996264)" xlink:href="#URWPalladioL-Ital-65"/>
      </g>
     </g>
    </g>
    <g id="xtick_4">
     <g id="line2d_7">
      <path clip-path="url(#p905a7773dd)" d="M 124.597077 159.130787 
L 124.597077 7.2 
" style="fill:none;stroke:#000000;stroke-linejoin:miter;stroke-opacity:0.2;stroke-width:0.5;"/>
     </g>
     <g id="line2d_8">
      <g>
       <use style="fill-opacity:0.2;stroke:#000000;stroke-opacity:0.2;stroke-width:0.8;" x="124.597077" xlink:href="#m02947056b1" y="159.130787"/>
      </g>
     </g>
     <g id="text_4">
      <!-- 4 -->
      <g transform="translate(121.110153 184.610317)scale(0.14 -0.14)">
       <defs>
        <path d="M 1792 1152 
L 1792 684 
C 1792 310 1722 223 1408 210 
L 1011 192 
L 1011 0 
C 1862 0 1862 0 2016 0 
C 2170 19 2170 19 3021 0 
L 3021 192 
L 2714 210 
C 2400 229 2330 310 2330 684 
L 2330 1152 
C 2707 1152 2842 1145 3021 1127 
L 3021 1580 
C 2720 1555 2598 1555 2502 1561 
L 2483 1561 
L 2330 1561 
L 2330 2445 
C 2330 3576 2342 4122 2374 4383 
L 2298 4416 
L 1824 4243 
L 13 1299 
L 83 1152 
L 1792 1152 
z
M 1792 1561 
L 416 1561 
L 1792 3798 
L 1792 1561 
z
" id="URWPalladioL-Roma-34" transform="scale(0.015625)"/>
       </defs>
       <use transform="scale(0.996264)" xlink:href="#URWPalladioL-Roma-34"/>
      </g>
     </g>
    </g>
    <g id="xtick_5">
     <g id="line2d_9">
      <path clip-path="url(#p905a7773dd)" d="M 207.752939 159.130787 
L 207.752939 7.2 
" style="fill:none;stroke:#000000;stroke-linejoin:miter;stroke-opacity:0.2;stroke-width:0.5;"/>
     </g>
     <g id="line2d_10">
      <g>
       <use style="fill-opacity:0.2;stroke:#000000;stroke-opacity:0.2;stroke-width:0.8;" x="207.752939" xlink:href="#m02947056b1" y="159.130787"/>
      </g>
     </g>
     <g id="text_5">
      <!-- 8 -->
      <g transform="translate(204.266015 184.610317)scale(0.14 -0.14)">
       <defs>
        <path d="M 1075 2211 
C 813 2089 704 2019 563 1884 
C 320 1640 192 1352 192 1019 
C 192 358 723 -128 1446 -128 
C 2278 -128 2970 525 2970 1320 
C 2970 1833 2733 2108 2003 2442 
C 2586 2839 2790 3108 2790 3493 
C 2790 4044 2336 4416 1658 4416 
C 896 4416 339 3929 339 3256 
C 339 2820 512 2576 1075 2211 
z
M 1818 1890 
C 2221 1711 2464 1397 2464 1051 
C 2464 512 2061 89 1542 89 
C 998 89 646 474 646 1070 
C 646 1538 832 1833 1306 2121 
L 1818 1890 
z
M 1427 2711 
C 1024 2910 819 3166 819 3486 
C 819 3910 1126 4198 1581 4198 
C 2048 4198 2355 3890 2355 3422 
C 2355 3057 2195 2807 1779 2538 
L 1427 2711 
z
" id="URWPalladioL-Roma-38" transform="scale(0.015625)"/>
       </defs>
       <use transform="scale(0.996264)" xlink:href="#URWPalladioL-Roma-38"/>
      </g>
     </g>
    </g>
    <g id="xtick_6">
     <g id="line2d_11">
      <path clip-path="url(#p905a7773dd)" d="M 249.33087 159.130787 
L 249.33087 7.2 
" style="fill:none;stroke:#000000;stroke-linejoin:miter;stroke-opacity:0.2;stroke-width:0.5;"/>
     </g>
     <g id="line2d_12">
      <g>
       <use style="fill-opacity:0.2;stroke:#000000;stroke-opacity:0.2;stroke-width:0.8;" x="249.33087" xlink:href="#m02947056b1" y="159.130787"/>
      </g>
     </g>
     <g id="text_6">
      <!-- 10 -->
      <g transform="translate(242.357022 184.610317)scale(0.14 -0.14)">
       <defs>
        <path d="M 1683 4416 
C 691 4416 186 3628 186 2076 
C 186 1326 320 679 544 365 
C 768 51 1126 -128 1523 -128 
C 2490 -128 2976 704 2976 2345 
C 2976 3749 2560 4416 1683 4416 
z
M 1568 4191 
C 2189 4191 2438 3563 2438 2025 
C 2438 660 2195 96 1606 96 
C 986 96 723 743 723 2307 
C 723 3660 960 4191 1568 4191 
z
" id="URWPalladioL-Roma-30" transform="scale(0.015625)"/>
       </defs>
       <use transform="scale(0.996264)" xlink:href="#URWPalladioL-Roma-31"/>
       <use transform="translate(49.8132 0)scale(0.996264)" xlink:href="#URWPalladioL-Roma-30"/>
      </g>
     </g>
    </g>
    <g id="xtick_7">
     <g id="line2d_13">
      <path clip-path="url(#p905a7773dd)" d="M 374.064664 159.130787 
L 374.064664 7.2 
" style="fill:none;stroke:#000000;stroke-linejoin:miter;stroke-opacity:0.2;stroke-width:0.5;"/>
     </g>
     <g id="line2d_14">
      <g>
       <use style="fill-opacity:0.2;stroke:#000000;stroke-opacity:0.2;stroke-width:0.8;" x="374.064664" xlink:href="#m02947056b1" y="159.130787"/>
      </g>
     </g>
     <g id="text_7">
      <!-- 16 -->
      <g transform="translate(367.090816 184.610317)scale(0.14 -0.14)">
       <defs>
        <path d="M 2662 4287 
L 2426 4396 
C 1811 4193 1549 4066 1222 3788 
C 563 3237 205 2463 205 1585 
C 205 526 717 -128 1542 -128 
C 2374 -128 2995 532 2995 1405 
C 2995 2143 2554 2624 1875 2624 
C 1555 2624 1363 2540 986 2239 
C 915 2182 909 2175 838 2124 
C 973 3275 1510 3895 2662 4237 
L 2662 4287 
z
M 1632 2239 
C 2118 2239 2445 1816 2445 1180 
C 2445 513 2118 83 1626 83 
C 1082 83 787 551 787 1411 
C 787 1636 813 1758 883 1867 
C 1024 2085 1325 2239 1632 2239 
z
" id="URWPalladioL-Roma-36" transform="scale(0.015625)"/>
       </defs>
       <use transform="scale(0.996264)" xlink:href="#URWPalladioL-Roma-31"/>
       <use transform="translate(49.8132 0)scale(0.996264)" xlink:href="#URWPalladioL-Roma-36"/>
      </g>
     </g>
    </g>
    <g id="xtick_8">
     <g id="line2d_15">
      <path clip-path="url(#p905a7773dd)" d="M 457.220526 159.130787 
L 457.220526 7.2 
" style="fill:none;stroke:#000000;stroke-linejoin:miter;stroke-opacity:0.2;stroke-width:0.5;"/>
     </g>
     <g id="line2d_16">
      <g>
       <use style="fill-opacity:0.2;stroke:#000000;stroke-opacity:0.2;stroke-width:0.8;" x="457.220526" xlink:href="#m02947056b1" y="159.130787"/>
      </g>
     </g>
     <g id="text_8">
      <!-- 20 -->
      <g transform="translate(450.246678 184.610317)scale(0.14 -0.14)">
       <use transform="scale(0.996264)" xlink:href="#URWPalladioL-Roma-32"/>
       <use transform="translate(49.8132 0)scale(0.996264)" xlink:href="#URWPalladioL-Roma-30"/>
      </g>
     </g>
    </g>
    <g id="text_9">
     <!-- $x$ -->
     <g transform="translate(248.420975 201.097365)scale(0.12 -0.12)">
      <defs>
       <path d="M 134 567 
C 134 440 122 358 83 153 
C 70 76 64 57 58 12 
C 154 -39 256 -64 333 -64 
C 544 -64 794 121 992 421 
L 1478 1164 
L 1549 726 
C 1632 185 1779 -64 2010 -64 
C 2150 -64 2355 44 2560 230 
L 2874 510 
L 2816 631 
C 2586 440 2426 345 2323 345 
C 2227 345 2144 409 2080 536 
C 2022 656 1952 891 1920 1075 
L 1805 1716 
L 2029 2027 
C 2330 2439 2502 2585 2701 2585 
C 2803 2585 2880 2534 2912 2439 
L 3002 2465 
L 3098 3007 
C 3021 3052 2963 3072 2906 3072 
C 2650 3072 2394 2841 1997 2255 
L 1760 1906 
L 1722 2211 
C 1645 2841 1472 3072 1094 3072 
C 928 3072 787 3020 730 2937 
L 358 2408 
L 467 2344 
C 659 2560 787 2649 909 2649 
C 1120 2649 1261 2389 1370 1767 
L 1440 1373 
L 1184 980 
C 909 555 691 352 512 352 
C 416 352 346 377 333 409 
L 262 586 
L 134 567 
z
" id="URWPalladioL-Ital-78" transform="scale(0.015625)"/>
      </defs>
      <use transform="scale(0.996264)" xlink:href="#URWPalladioL-Ital-78"/>
     </g>
    </g>
   </g>
   <g id="matplotlib.axis_2">
    <g id="ytick_1">
     <g id="line2d_17">
      <path clip-path="url(#p905a7773dd)" d="M 45.599008 103.954359 
L 457.220526 103.954359 
" style="fill:none;stroke:#000000;stroke-linejoin:miter;stroke-opacity:0.2;stroke-width:0.5;"/>
     </g>
     <g id="line2d_18">
      <defs>
       <path d="M 0 0 
L -3.5 0 
" id="ma76a86ce98" style="stroke:#000000;stroke-opacity:0.2;stroke-width:0.8;"/>
      </defs>
      <g>
       <use style="fill-opacity:0.2;stroke:#000000;stroke-opacity:0.2;stroke-width:0.8;" x="45.599008" xlink:href="#ma76a86ce98" y="103.954359"/>
      </g>
     </g>
     <g id="text_10">
      <!-- $\mathdefault{0}$ -->
      <g transform="translate(23.12516 108.944124)scale(0.14 -0.14)">
       <use transform="scale(0.996264)" xlink:href="#URWPalladioL-Roma-30"/>
      </g>
     </g>
    </g>
    <g id="ytick_2">
     <g id="line2d_19">
      <path clip-path="url(#p905a7773dd)" d="M 45.599008 83.165394 
L 457.220526 83.165394 
" style="fill:none;stroke:#000000;stroke-linejoin:miter;stroke-opacity:0.2;stroke-width:0.5;"/>
     </g>
     <g id="line2d_20">
      <g>
       <use style="fill-opacity:0.2;stroke:#000000;stroke-opacity:0.2;stroke-width:0.8;" x="45.599008" xlink:href="#ma76a86ce98" y="83.165394"/>
      </g>
     </g>
     <g id="text_11">
      <!-- $\mathdefault{1}$ -->
      <g transform="translate(23.12516 88.155158)scale(0.14 -0.14)">
       <use transform="scale(0.996264)" xlink:href="#URWPalladioL-Roma-31"/>
      </g>
     </g>
    </g>
    <g id="ytick_3">
     <g id="line2d_21">
      <path clip-path="url(#p905a7773dd)" d="M 45.599008 62.376428 
L 457.220526 62.376428 
" style="fill:none;stroke:#000000;stroke-linejoin:miter;stroke-opacity:0.2;stroke-width:0.5;"/>
     </g>
     <g id="line2d_22">
      <g>
       <use style="fill-opacity:0.2;stroke:#000000;stroke-opacity:0.2;stroke-width:0.8;" x="45.599008" xlink:href="#ma76a86ce98" y="62.376428"/>
      </g>
     </g>
     <g id="text_12">
      <!-- $\mathdefault{2}$ -->
      <g transform="translate(23.12516 67.366193)scale(0.14 -0.14)">
       <use transform="scale(0.996264)" xlink:href="#URWPalladioL-Roma-32"/>
      </g>
     </g>
    </g>
    <g id="ytick_4">
     <g id="line2d_23">
      <path clip-path="url(#p905a7773dd)" d="M 45.599008 41.587463 
L 457.220526 41.587463 
" style="fill:none;stroke:#000000;stroke-linejoin:miter;stroke-opacity:0.2;stroke-width:0.5;"/>
     </g>
     <g id="line2d_24">
      <g>
       <use style="fill-opacity:0.2;stroke:#000000;stroke-opacity:0.2;stroke-width:0.8;" x="45.599008" xlink:href="#ma76a86ce98" y="41.587463"/>
      </g>
     </g>
     <g id="text_13">
      <!-- $\mathdefault{3}$ -->
      <g transform="translate(23.12516 46.577227)scale(0.14 -0.14)">
       <defs>
        <path d="M 275 3196 
L 474 3196 
L 589 3553 
C 659 3770 1062 3987 1395 3987 
C 1811 3987 2150 3649 2150 3247 
C 2150 2769 1773 2368 1318 2368 
C 1267 2368 1197 2374 1114 2380 
L 1018 2387 
L 941 2047 
L 986 2008 
C 1229 2118 1350 2150 1523 2150 
C 2054 2150 2362 1808 2362 1222 
C 2362 565 1971 134 1376 134 
C 1082 134 819 231 627 411 
C 474 553 390 701 269 1048 
L 96 984 
C 230 591 282 359 320 38 
C 659 -77 941 -128 1178 -128 
C 1690 -128 2278 160 2630 591 
C 2848 855 2957 1139 2957 1441 
C 2957 1750 2829 2021 2598 2182 
C 2438 2297 2291 2348 1971 2406 
C 2483 2801 2675 3094 2675 3470 
C 2675 4038 2202 4416 1491 4416 
C 1056 4416 768 4294 461 3987 
L 275 3196 
z
" id="URWPalladioL-Roma-33" transform="scale(0.015625)"/>
       </defs>
       <use transform="scale(0.996264)" xlink:href="#URWPalladioL-Roma-33"/>
      </g>
     </g>
    </g>
    <g id="ytick_5">
     <g id="line2d_25">
      <path clip-path="url(#p905a7773dd)" d="M 45.599008 20.798497 
L 457.220526 20.798497 
" style="fill:none;stroke:#000000;stroke-linejoin:miter;stroke-opacity:0.2;stroke-width:0.5;"/>
     </g>
     <g id="line2d_26">
      <g>
       <use style="fill-opacity:0.2;stroke:#000000;stroke-opacity:0.2;stroke-width:0.8;" x="45.599008" xlink:href="#ma76a86ce98" y="20.798497"/>
      </g>
     </g>
     <g id="text_14">
      <!-- $\mathdefault{4}$ -->
      <g transform="translate(23.12516 25.788262)scale(0.14 -0.14)">
       <use transform="scale(0.996264)" xlink:href="#URWPalladioL-Roma-34"/>
      </g>
     </g>
    </g>
    <g id="text_15">
     <!-- $y$ -->
     <g transform="translate(15.753876 86.154186)rotate(-90)scale(0.12 -0.12)">
      <defs>
       <path d="M -45 -1132 
C -51 -1176 -51 -1214 -51 -1245 
C -51 -1517 186 -1741 474 -1741 
C 1152 -1741 1856 -955 2234 216 
L 3136 3014 
L 3066 3072 
C 2880 3001 2733 2963 2592 2950 
L 2368 2111 
C 2291 1812 2067 1348 1856 1036 
C 1632 712 1318 432 1178 432 
C 1101 432 1043 578 1050 737 
L 1056 820 
L 1152 2053 
C 1165 2250 1178 2492 1178 2670 
C 1178 2956 1133 3072 1024 3072 
C 941 3072 851 3027 544 2816 
L 19 2460 
L 90 2346 
L 410 2537 
L 435 2556 
C 499 2594 544 2613 570 2613 
C 659 2613 710 2492 710 2282 
C 710 2276 710 2238 704 2187 
L 595 642 
L 589 388 
C 589 121 704 -64 864 -64 
C 1101 -64 1638 477 2118 1195 
L 1805 108 
C 1478 -1012 1158 -1472 710 -1472 
C 486 -1472 314 -1302 314 -1081 
C 314 -1049 320 -999 326 -942 
L 262 -917 
L -45 -1132 
z
" id="URWPalladioL-Ital-79" transform="scale(0.015625)"/>
      </defs>
      <use transform="scale(0.996264)" xlink:href="#URWPalladioL-Ital-79"/>
     </g>
    </g>
   </g>
   <g id="line2d_27">
    <path clip-path="url(#p905a7773dd)" d="M 45.599008 152.224842 
L 49.756801 131.435877 
L 53.914594 119.275112 
L 58.072387 110.646911 
L 62.23018 103.954359 
L 66.387973 98.486146 
L 70.545767 93.862838 
L 74.70356 89.857946 
L 78.861353 86.325381 
L 83.019146 83.165394 
L 87.176939 80.306838 
L 91.334732 77.69718 
L 95.492525 75.296529 
L 99.650318 73.073872 
L 103.808111 71.004628 
L 107.965905 69.06898 
L 112.123698 67.250718 
L 116.281491 65.536415 
L 120.439284 63.914824 
L 124.597077 62.376428 
L 128.75487 60.913107 
L 132.912663 59.517872 
L 137.070456 58.184669 
L 141.228249 56.908215 
L 145.386043 55.683876 
L 149.543836 54.507563 
L 153.701629 53.37565 
L 157.859422 52.284906 
L 162.017215 51.232443 
L 166.175008 50.215663 
L 170.332801 49.232226 
L 174.490594 48.280015 
L 178.648387 47.357107 
L 182.806181 46.461753 
L 186.963974 45.592354 
L 191.121767 44.74745 
L 195.27956 43.925696 
L 199.437353 43.125858 
L 203.595146 42.346798 
L 207.752939 41.587463 
L 211.910732 40.846878 
L 216.068526 40.124141 
L 220.226319 39.418411 
L 224.384112 38.728907 
L 228.541905 38.054898 
L 232.699698 37.395703 
L 236.857491 36.750686 
L 241.015284 36.119249 
L 245.173077 35.500833 
L 249.33087 34.89491 
L 253.488664 34.300987 
L 257.646457 33.718597 
L 261.80425 33.147301 
L 265.962043 32.586684 
L 270.119836 32.036354 
L 274.277629 31.495941 
L 278.435422 30.965093 
L 282.593215 30.443477 
L 286.751008 29.930779 
L 290.908802 29.426697 
L 295.066595 28.930948 
L 299.224388 28.44326 
L 303.382181 27.963376 
L 307.539974 27.491049 
L 311.697767 27.026045 
L 315.85556 26.568141 
L 320.013353 26.117123 
L 324.171146 25.672787 
L 328.32894 25.234938 
L 332.486733 24.803389 
L 336.644526 24.377961 
L 340.802319 23.958484 
L 344.960112 23.544793 
L 349.117905 23.13673 
L 353.275698 22.734145 
L 357.433491 22.336892 
L 361.591284 21.944833 
L 365.749078 21.557832 
L 369.906871 21.175762 
L 374.064664 20.798497 
L 378.222457 20.425919 
L 382.38025 20.057913 
L 386.538043 19.694367 
L 390.695836 19.335176 
L 394.853629 18.980235 
L 399.011422 18.629446 
L 403.169216 18.282712 
L 407.327009 17.939941 
L 411.484802 17.601043 
L 415.642595 17.265932 
L 419.800388 16.934524 
L 423.958181 16.606738 
L 428.115974 16.282495 
L 432.273767 15.96172 
L 436.431561 15.64434 
L 440.589354 15.330284 
L 444.747147 15.019482 
L 448.90494 14.711867 
L 453.062733 14.407376 
L 457.220526 14.105945 
" style="fill:none;stroke:#0271ae;stroke-linejoin:miter;stroke-width:3;"/>
   </g>
   <g id="line2d_28">
    <path clip-path="url(#p905a7773dd)" d="M 45.599008 137.412909 
L 49.756801 123.003096 
L 53.914594 114.573896 
L 58.072387 108.593283 
L 62.23018 103.954359 
L 66.387973 100.164083 
L 70.545767 96.959449 
L 74.70356 94.18347 
L 78.861353 91.734882 
L 83.019146 89.544546 
L 87.176939 87.563146 
L 91.334732 85.75427 
L 95.492525 84.090265 
L 99.650318 82.549637 
L 103.808111 81.115346 
L 107.965905 79.773657 
L 112.123698 78.513334 
L 116.281491 77.32507 
L 120.439284 76.201068 
L 124.597077 75.134733 
L 128.75487 74.120436 
L 132.912663 73.153333 
L 137.070456 72.229227 
L 141.228249 71.344457 
L 145.386043 70.49581 
L 149.543836 69.680452 
L 153.701629 68.895869 
L 157.859422 68.139824 
L 162.017215 67.410312 
L 166.175008 66.705533 
L 170.332801 66.023867 
L 174.490594 65.363844 
L 178.648387 64.724133 
L 182.806181 64.103521 
L 186.963974 63.5009 
L 191.121767 62.915257 
L 195.27956 62.34566 
L 199.437353 61.791255 
L 203.595146 61.251252 
L 207.752939 60.724921 
L 211.910732 60.211587 
L 216.068526 59.710624 
L 220.226319 59.221449 
L 224.384112 58.743521 
L 228.541905 58.276333 
L 232.699698 57.819414 
L 236.857491 57.372323 
L 241.015284 56.934644 
L 245.173077 56.50599 
L 249.33087 56.085997 
L 253.488664 55.674321 
L 257.646457 55.270639 
L 261.80425 54.874647 
L 265.962043 54.486057 
L 270.119836 54.104597 
L 274.277629 53.730011 
L 278.435422 53.362055 
L 282.593215 53.000499 
L 286.751008 52.645123 
L 290.908802 52.29572 
L 295.066595 51.952093 
L 299.224388 51.614054 
L 303.382181 51.281423 
L 307.539974 50.954031 
L 311.697767 50.631715 
L 315.85556 50.31432 
L 320.013353 50.001698 
L 324.171146 49.693708 
L 328.32894 49.390214 
L 332.486733 49.091087 
L 336.644526 48.796203 
L 340.802319 48.505444 
L 344.960112 48.218695 
L 349.117905 47.935848 
L 353.275698 47.656797 
L 357.433491 47.381442 
L 361.591284 47.109687 
L 365.749078 46.841439 
L 369.906871 46.576608 
L 374.064664 46.315108 
L 378.222457 46.056856 
L 382.38025 45.801774 
L 386.538043 45.549783 
L 390.695836 45.300811 
L 394.853629 45.054785 
L 399.011422 44.811636 
L 403.169216 44.571298 
L 407.327009 44.333708 
L 411.484802 44.098802 
L 415.642595 43.86652 
L 419.800388 43.636806 
L 423.958181 43.409602 
L 428.115974 43.184854 
L 432.273767 42.96251 
L 436.431561 42.742519 
L 440.589354 42.524831 
L 444.747147 42.3094 
L 448.90494 42.096178 
L 453.062733 41.88512 
L 457.220526 41.676184 
" style="fill:none;stroke:#dc2830;stroke-linejoin:miter;stroke-width:3;"/>
   </g>
   <g id="line2d_29">
    <path clip-path="url(#p905a7773dd)" d="M 45.599008 118.485223 
L 49.756801 112.22712 
L 53.914594 108.566365 
L 58.072387 105.969018 
L 62.23018 103.954359 
L 66.387973 102.308263 
L 70.545767 100.916509 
L 74.70356 99.710916 
L 78.861353 98.647508 
L 83.019146 97.696257 
L 87.176939 96.835746 
L 91.334732 96.050161 
L 95.492525 95.327493 
L 99.650318 94.658406 
L 103.808111 94.035502 
L 107.965905 93.452814 
L 112.123698 92.905462 
L 116.281491 92.389406 
L 120.439284 91.901258 
L 124.597077 91.438155 
L 128.75487 90.997651 
L 132.912663 90.577644 
L 137.070456 90.176309 
L 141.228249 89.792059 
L 145.386043 89.423496 
L 149.543836 89.06939 
L 153.701629 88.728651 
L 157.859422 88.400304 
L 162.017215 88.083481 
L 166.175008 87.7774 
L 170.332801 87.481356 
L 174.490594 87.194711 
L 178.648387 86.916889 
L 182.806181 86.64736 
L 186.963974 86.385645 
L 191.121767 86.131303 
L 195.27956 85.883931 
L 199.437353 85.643156 
L 203.595146 85.408635 
L 207.752939 85.180053 
L 211.910732 84.957115 
L 216.068526 84.739549 
L 220.226319 84.527103 
L 224.384112 84.319541 
L 228.541905 84.116645 
L 232.699698 83.918207 
L 236.857491 83.724038 
L 241.015284 83.533956 
L 245.173077 83.347794 
L 249.33087 83.165394 
L 253.488664 82.986605 
L 257.646457 82.811288 
L 261.80425 82.639311 
L 265.962043 82.470548 
L 270.119836 82.304883 
L 274.277629 82.142202 
L 278.435422 81.982401 
L 282.593215 81.825379 
L 286.751008 81.671041 
L 290.908802 81.519297 
L 295.066595 81.370062 
L 299.224388 81.223253 
L 303.382181 81.078794 
L 307.539974 80.936609 
L 311.697767 80.796629 
L 315.85556 80.658786 
L 320.013353 80.523016 
L 324.171146 80.389258 
L 328.32894 80.257452 
L 332.486733 80.127543 
L 336.644526 79.999477 
L 340.802319 79.873201 
L 344.960112 79.748668 
L 349.117905 79.625829 
L 353.275698 79.504639 
L 357.433491 79.385054 
L 361.591284 79.267032 
L 365.749078 79.150533 
L 369.906871 79.035518 
L 374.064664 78.92195 
L 378.222457 78.809793 
L 382.38025 78.699012 
L 386.538043 78.589574 
L 390.695836 78.481447 
L 394.853629 78.374599 
L 399.011422 78.269001 
L 403.169216 78.164624 
L 407.327009 78.061439 
L 411.484802 77.959421 
L 415.642595 77.858542 
L 419.800388 77.758779 
L 423.958181 77.660105 
L 428.115974 77.562498 
L 432.273767 77.465936 
L 436.431561 77.370395 
L 440.589354 77.275854 
L 444.747147 77.182293 
L 448.90494 77.089692 
L 453.062733 76.998031 
L 457.220526 76.907291 
" style="fill:none;stroke:#ffc438;stroke-linejoin:miter;stroke-width:3;"/>
   </g>
   <g id="legend_1">
    <g id="line2d_30">
     <path d="M 469.820526 25.800119 
L 483.820526 25.800119 
" style="fill:none;stroke:#0271ae;stroke-linejoin:miter;stroke-width:3;"/>
    </g>
    <g id="line2d_31"/>
    <g id="text_16">
     <!-- $y = \log_2(x)$ -->
     <g style="fill:#0271ae;" transform="translate(495.020526 30.700119)scale(0.14 -0.14)">
      <defs>
       <path d="M 4397 2111 
C 4493 2111 4614 2111 4614 2239 
C 4614 2368 4493 2368 4403 2368 
L 570 2368 
C 480 2368 358 2368 358 2239 
C 358 2111 480 2111 576 2111 
L 4397 2111 
z
M 4403 832 
C 4493 832 4614 832 4614 960 
C 4614 1088 4493 1088 4397 1088 
L 576 1088 
C 480 1088 358 1088 358 960 
C 358 832 480 832 570 832 
L 4403 832 
z
" id="CMR10-3d" transform="scale(0.015625)"/>
       <path d="M 147 4249 
L 506 4249 
C 621 4249 666 4179 666 3987 
L 666 672 
C 666 268 646 224 429 211 
L 134 192 
L 134 0 
C 774 0 774 0 934 0 
C 1094 19 1094 19 1734 0 
L 1734 192 
L 1440 211 
C 1222 224 1203 268 1203 672 
L 1203 4614 
L 1146 4665 
C 864 4557 653 4505 147 4429 
L 147 4249 
z
" id="URWPalladioL-Roma-6c" transform="scale(0.015625)"/>
       <path d="M 1786 3008 
C 851 3008 205 2347 205 1391 
C 205 487 774 -128 1600 -128 
C 2586 -128 3290 557 3290 1520 
C 3290 2386 2662 3008 1786 3008 
z
M 1670 2796 
C 2259 2796 2694 2155 2694 1282 
C 2694 545 2368 83 1850 83 
C 1222 83 800 699 800 1609 
C 800 2379 1107 2796 1670 2796 
z
" id="URWPalladioL-Roma-6f" transform="scale(0.015625)"/>
       <path d="M 3322 2452 
L 3482 2713 
L 3456 2790 
L 2547 2764 
C 2310 2956 2080 3033 1766 3033 
C 1485 3033 1158 2944 896 2790 
C 538 2586 352 2274 352 1885 
C 352 1413 646 1087 1120 1036 
L 614 638 
C 550 540 518 455 518 358 
C 518 179 634 76 941 -13 
L 384 -315 
C 294 -367 205 -604 205 -804 
C 205 -1388 774 -1792 1587 -1792 
C 2554 -1792 3315 -1183 3315 -399 
C 3315 64 3008 384 2560 384 
L 1536 384 
C 1203 384 1050 462 1050 638 
C 1050 723 1101 795 1267 939 
C 1306 972 1318 985 1344 1011 
C 1408 1004 1446 998 1498 998 
C 1773 998 2112 1119 2374 1305 
C 2662 1515 2803 1770 2803 2108 
C 2803 2235 2784 2318 2733 2452 
L 3322 2452 
z
M 1536 2816 
C 1971 2816 2266 2458 2266 1917 
C 2266 1502 1997 1216 1606 1216 
C 1178 1216 890 1547 890 2038 
C 890 2529 1126 2816 1536 2816 
z
M 1837 -64 
C 2560 -64 2810 -212 2810 -630 
C 2810 -1183 2304 -1594 1632 -1594 
C 1075 -1594 691 -1266 691 -791 
C 691 -502 858 -238 1114 -129 
C 1216 -77 1395 -64 1837 -64 
z
" id="URWPalladioL-Roma-67" transform="scale(0.015625)"/>
       <path d="M 2118 -1536 
C 2118 -1517 2118 -1504 2010 -1396 
C 1210 -589 1005 620 1005 1600 
C 1005 2713 1248 3827 2035 4627 
C 2118 4704 2118 4716 2118 4736 
C 2118 4780 2093 4800 2054 4800 
C 1990 4800 1414 4365 1037 3552 
C 710 2848 634 2137 634 1600 
C 634 1100 704 326 1056 -397 
C 1440 -1184 1990 -1600 2054 -1600 
C 2093 -1600 2118 -1581 2118 -1536 
z
" id="CMR10-28" transform="scale(0.015625)"/>
       <path d="M 1850 1600 
C 1850 2099 1779 2873 1427 3597 
C 1043 4384 493 4800 429 4800 
C 390 4800 365 4774 365 4736 
C 365 4716 365 4704 486 4589 
C 1114 3955 1478 2937 1478 1600 
C 1478 505 1242 -621 448 -1428 
C 365 -1504 365 -1517 365 -1536 
C 365 -1575 390 -1600 429 -1600 
C 493 -1600 1069 -1165 1446 -352 
C 1773 352 1850 1062 1850 1600 
z
" id="CMR10-29" transform="scale(0.015625)"/>
      </defs>
      <use transform="scale(0.996264)" xlink:href="#URWPalladioL-Ital-79"/>
      <use transform="translate(79.977748 0)scale(1.038107)" xlink:href="#CMR10-3d"/>
      <use transform="translate(189.593377 0)scale(0.996264)" xlink:href="#URWPalladioL-Roma-6c"/>
      <use transform="translate(218.583738 0)scale(0.996264)" xlink:href="#URWPalladioL-Roma-6f"/>
      <use transform="translate(272.979318 0)scale(0.996264)" xlink:href="#URWPalladioL-Roma-67"/>
      <use transform="translate(328.370995 -31.879901)scale(0.757155)" xlink:href="#URWPalladioL-Roma-32"/>
      <use transform="translate(367.972186 0)scale(1.038107)" xlink:href="#CMR10-28"/>
      <use transform="translate(412.405567 0)scale(0.996264)" xlink:href="#URWPalladioL-Ital-78"/>
      <use transform="translate(465.704703 0)scale(1.038107)" xlink:href="#CMR10-29"/>
     </g>
    </g>
    <g id="line2d_32">
     <path d="M 469.820526 47.939376 
L 483.820526 47.939376 
" style="fill:none;stroke:#dc2830;stroke-linejoin:miter;stroke-width:3;"/>
    </g>
    <g id="line2d_33"/>
    <g id="text_17">
     <!-- $y = \ln(x)$ -->
     <g style="fill:#dc2830;" transform="translate(495.020526 52.839376)scale(0.14 -0.14)">
      <defs>
       <path d="M 2624 0 
C 3014 0 3021 0 3130 0 
C 3219 19 3219 19 3661 0 
L 3661 192 
L 3398 211 
C 3181 223 3162 262 3162 670 
L 3162 1902 
C 3162 2649 2810 3014 2093 3014 
C 1856 3014 1722 2969 1587 2854 
L 1101 2432 
L 1101 2988 
L 1043 3008 
C 717 2873 384 2784 45 2746 
L 45 2568 
L 282 2568 
C 538 2568 563 2523 563 2103 
L 563 669 
C 563 268 544 223 326 211 
L 38 192 
L 38 0 
C 474 -7 646 0 832 0 
C 1018 19 1190 12 1626 0 
L 1626 192 
L 1338 211 
C 1120 223 1101 268 1101 670 
L 1101 2023 
C 1101 2311 1523 2624 1914 2624 
C 2342 2624 2624 2304 2624 1813 
L 2624 0 
z
" id="URWPalladioL-Roma-6e" transform="scale(0.015625)"/>
      </defs>
      <use transform="scale(0.996264)" xlink:href="#URWPalladioL-Ital-79"/>
      <use transform="translate(79.977748 0)scale(1.038107)" xlink:href="#CMR10-3d"/>
      <use transform="translate(189.593377 0)scale(0.996264)" xlink:href="#URWPalladioL-Roma-6c"/>
      <use transform="translate(218.583738 0)scale(0.996264)" xlink:href="#URWPalladioL-Roma-6e"/>
      <use transform="translate(277.811098 0)scale(1.038107)" xlink:href="#CMR10-28"/>
      <use transform="translate(322.244479 0)scale(0.996264)" xlink:href="#URWPalladioL-Ital-78"/>
      <use transform="translate(375.543616 0)scale(1.038107)" xlink:href="#CMR10-29"/>
     </g>
    </g>
    <g id="line2d_34">
     <path d="M 469.820526 69.772667 
L 483.820526 69.772667 
" style="fill:none;stroke:#ffc438;stroke-linejoin:miter;stroke-width:3;"/>
    </g>
    <g id="line2d_35"/>
    <g id="text_18">
     <!-- $y = \log_{10}(x)$ -->
     <g style="fill:#ffc438;" transform="translate(495.020526 74.672667)scale(0.14 -0.14)">
      <use transform="scale(0.996264)" xlink:href="#URWPalladioL-Ital-79"/>
      <use transform="translate(79.977748 0)scale(1.038107)" xlink:href="#CMR10-3d"/>
      <use transform="translate(189.593377 0)scale(0.996264)" xlink:href="#URWPalladioL-Roma-6c"/>
      <use transform="translate(218.583738 0)scale(0.996264)" xlink:href="#URWPalladioL-Roma-6f"/>
      <use transform="translate(272.979318 0)scale(0.996264)" xlink:href="#URWPalladioL-Roma-67"/>
      <use transform="translate(328.370995 -31.879901)scale(0.757155)" xlink:href="#URWPalladioL-Roma-31"/>
      <use transform="translate(366.228754 -31.879901)scale(0.757155)" xlink:href="#URWPalladioL-Roma-30"/>
      <use transform="translate(405.829944 0)scale(1.038107)" xlink:href="#CMR10-28"/>
      <use transform="translate(450.263325 0)scale(0.996264)" xlink:href="#URWPalladioL-Ital-78"/>
      <use transform="translate(503.562462 0)scale(1.038107)" xlink:href="#CMR10-29"/>
     </g>
    </g>
   </g>
  </g>
 </g>
 <defs>
  <clipPath id="p905a7773dd">
   <rect height="151.930787" width="411.621518" x="45.599008" y="7.2"/>
  </clipPath>
 </defs>
</svg>
