<?xml version="1.0" encoding="utf-8" standalone="no"?>
<!DOCTYPE svg PUBLIC "-//W3C//DTD SVG 1.1//EN"
  "http://www.w3.org/Graphics/SVG/1.1/DTD/svg11.dtd">
<svg xmlns:xlink="http://www.w3.org/1999/xlink" width="584.39952pt" height="152.447997pt" viewBox="0 0 584.39952 152.447997" xmlns="http://www.w3.org/2000/svg" version="1.1">
 <metadata>
  <rdf:RDF xmlns:dc="http://purl.org/dc/elements/1.1/" xmlns:cc="http://creativecommons.org/ns#" xmlns:rdf="http://www.w3.org/1999/02/22-rdf-syntax-ns#">
   <cc:Work>
    <dc:type rdf:resource="http://purl.org/dc/dcmitype/StillImage"/>
    <dc:date>2022-06-20T10:05:45.272215</dc:date>
    <dc:format>image/svg+xml</dc:format>
    <dc:creator>
     <cc:Agent>
      <dc:title>Matplotlib v3.5.2, https://matplotlib.org/</dc:title>
     </cc:Agent>
    </dc:creator>
   </cc:Work>
  </rdf:RDF>
 </metadata>
 <defs>
  <style type="text/css">*{stroke-linejoin: round; stroke-linecap: butt}</style>
 </defs>
 <g id="figure_1">
  <g id="patch_1">
   <path d="M 0 152.447997 
L 584.39952 152.447997 
L 584.39952 0 
L 0 0 
L 0 152.447997 
z
" style="fill: none"/>
  </g>
  <g id="axes_1">
   <g id="patch_2">
    <path d="M 52.572856 99.910136 
L 577.19952 99.910136 
L 577.19952 21.625192 
L 52.572856 21.625192 
L 52.572856 99.910136 
z
" style="fill: none"/>
   </g>
   <g id="patch_3">
    <path d="M 315.58383 99.910136 
L 315.58383 21.625192 
L 577.19952 21.625192 
L 577.19952 99.910136 
z
" clip-path="url(#p4c974fe611)" style="fill: #343837; opacity: 0.1; stroke: #343837; stroke-width: 0.5; stroke-linejoin: miter"/>
   </g>
   <g id="line2d_1">
    <path d="M 315.58383 99.910136 
L 315.58383 21.625192 
" clip-path="url(#p4c974fe611)" style="fill: none; stroke: #007d4d; stroke-linecap: round"/>
   </g>
   <g id="matplotlib.axis_1">
    <g id="xtick_1">
     <g id="line2d_2">
      <path d="M 53.96814 99.910136 
L 53.96814 21.625192 
" clip-path="url(#p4c974fe611)" style="fill: none; stroke: #000000; stroke-opacity: 0.2; stroke-width: 0.5; stroke-linecap: round"/>
     </g>
     <g id="line2d_3">
      <defs>
       <path id="m4bdd71fc87" d="M 0 0 
L 0 3.5 
" style="stroke: #000000; stroke-opacity: 0.2; stroke-width: 0.5"/>
      </defs>
      <g>
       <use xlink:href="#m4bdd71fc87" x="53.96814" y="99.910136" style="fill-opacity: 0.2; stroke: #000000; stroke-opacity: 0.2; stroke-width: 0.5"/>
      </g>
     </g>
     <g id="text_1">
      <!-- $\mathdefault{0}$ -->
      <g transform="translate(50.481216 125.389665)scale(0.14 -0.14)">
       <defs>
        <path id="URWPalladioL-Roma-30" d="M 1683 4416 
C 691 4416 186 3628 186 2076 
C 186 1326 320 679 544 365 
C 768 51 1126 -128 1523 -128 
C 2490 -128 2976 704 2976 2345 
C 2976 3749 2560 4416 1683 4416 
z
M 1568 4191 
C 2189 4191 2438 3563 2438 2025 
C 2438 660 2195 96 1606 96 
C 986 96 723 743 723 2307 
C 723 3660 960 4191 1568 4191 
z
" transform="scale(0.015625)"/>
       </defs>
       <use xlink:href="#URWPalladioL-Roma-30" transform="scale(0.996264)"/>
      </g>
     </g>
    </g>
    <g id="xtick_2">
     <g id="line2d_4">
      <path d="M 123.732324 99.910136 
L 123.732324 21.625192 
" clip-path="url(#p4c974fe611)" style="fill: none; stroke: #000000; stroke-opacity: 0.2; stroke-width: 0.5; stroke-linecap: round"/>
     </g>
     <g id="line2d_5">
      <g>
       <use xlink:href="#m4bdd71fc87" x="123.732324" y="99.910136" style="fill-opacity: 0.2; stroke: #000000; stroke-opacity: 0.2; stroke-width: 0.5"/>
      </g>
     </g>
     <g id="text_2">
      <!-- $\mathdefault{20}$ -->
      <g transform="translate(116.758476 125.389665)scale(0.14 -0.14)">
       <defs>
        <path id="URWPalladioL-Roma-32" d="M 102 166 
L 102 0 
C 1299 0 1299 0 1530 0 
C 1760 19 1760 19 2995 0 
C 2982 134 2982 198 2982 287 
C 2982 370 2982 434 2995 574 
C 2259 542 1965 536 781 510 
L 1946 1741 
C 2566 2398 2758 2749 2758 3228 
C 2758 3961 2259 4416 1446 4416 
C 986 4416 672 4287 358 3967 
L 250 3100 
L 435 3100 
L 518 3394 
C 621 3763 851 3923 1280 3923 
C 1830 3923 2182 3578 2182 3036 
C 2182 2558 1914 2086 1190 1320 
L 102 166 
z
" transform="scale(0.015625)"/>
       </defs>
       <use xlink:href="#URWPalladioL-Roma-32" transform="scale(0.996264)"/>
       <use xlink:href="#URWPalladioL-Roma-30" transform="translate(49.8132 0)scale(0.996264)"/>
      </g>
     </g>
    </g>
    <g id="xtick_3">
     <g id="line2d_6">
      <path d="M 193.496508 99.910136 
L 193.496508 21.625192 
" clip-path="url(#p4c974fe611)" style="fill: none; stroke: #000000; stroke-opacity: 0.2; stroke-width: 0.5; stroke-linecap: round"/>
     </g>
     <g id="line2d_7">
      <g>
       <use xlink:href="#m4bdd71fc87" x="193.496508" y="99.910136" style="fill-opacity: 0.2; stroke: #000000; stroke-opacity: 0.2; stroke-width: 0.5"/>
      </g>
     </g>
     <g id="text_3">
      <!-- $\mathdefault{40}$ -->
      <g transform="translate(186.52266 125.389665)scale(0.14 -0.14)">
       <defs>
        <path id="URWPalladioL-Roma-34" d="M 1792 1152 
L 1792 684 
C 1792 310 1722 223 1408 210 
L 1011 192 
L 1011 0 
C 1862 0 1862 0 2016 0 
C 2170 19 2170 19 3021 0 
L 3021 192 
L 2714 210 
C 2400 229 2330 310 2330 684 
L 2330 1152 
C 2707 1152 2842 1145 3021 1127 
L 3021 1580 
C 2720 1555 2598 1555 2502 1561 
L 2483 1561 
L 2330 1561 
L 2330 2445 
C 2330 3576 2342 4122 2374 4383 
L 2298 4416 
L 1824 4243 
L 13 1299 
L 83 1152 
L 1792 1152 
z
M 1792 1561 
L 416 1561 
L 1792 3798 
L 1792 1561 
z
" transform="scale(0.015625)"/>
       </defs>
       <use xlink:href="#URWPalladioL-Roma-34" transform="scale(0.996264)"/>
       <use xlink:href="#URWPalladioL-Roma-30" transform="translate(49.8132 0)scale(0.996264)"/>
      </g>
     </g>
    </g>
    <g id="xtick_4">
     <g id="line2d_8">
      <path d="M 263.260692 99.910136 
L 263.260692 21.625192 
" clip-path="url(#p4c974fe611)" style="fill: none; stroke: #000000; stroke-opacity: 0.2; stroke-width: 0.5; stroke-linecap: round"/>
     </g>
     <g id="line2d_9">
      <g>
       <use xlink:href="#m4bdd71fc87" x="263.260692" y="99.910136" style="fill-opacity: 0.2; stroke: #000000; stroke-opacity: 0.2; stroke-width: 0.5"/>
      </g>
     </g>
     <g id="text_4">
      <!-- $\mathdefault{60}$ -->
      <g transform="translate(256.286844 125.389665)scale(0.14 -0.14)">
       <defs>
        <path id="URWPalladioL-Roma-36" d="M 2662 4287 
L 2426 4396 
C 1811 4193 1549 4066 1222 3788 
C 563 3237 205 2463 205 1585 
C 205 526 717 -128 1542 -128 
C 2374 -128 2995 532 2995 1405 
C 2995 2143 2554 2624 1875 2624 
C 1555 2624 1363 2540 986 2239 
C 915 2182 909 2175 838 2124 
C 973 3275 1510 3895 2662 4237 
L 2662 4287 
z
M 1632 2239 
C 2118 2239 2445 1816 2445 1180 
C 2445 513 2118 83 1626 83 
C 1082 83 787 551 787 1411 
C 787 1636 813 1758 883 1867 
C 1024 2085 1325 2239 1632 2239 
z
" transform="scale(0.015625)"/>
       </defs>
       <use xlink:href="#URWPalladioL-Roma-36" transform="scale(0.996264)"/>
       <use xlink:href="#URWPalladioL-Roma-30" transform="translate(49.8132 0)scale(0.996264)"/>
      </g>
     </g>
    </g>
    <g id="xtick_5">
     <g id="line2d_10">
      <path d="M 333.024876 99.910136 
L 333.024876 21.625192 
" clip-path="url(#p4c974fe611)" style="fill: none; stroke: #000000; stroke-opacity: 0.2; stroke-width: 0.5; stroke-linecap: round"/>
     </g>
     <g id="line2d_11">
      <g>
       <use xlink:href="#m4bdd71fc87" x="333.024876" y="99.910136" style="fill-opacity: 0.2; stroke: #000000; stroke-opacity: 0.2; stroke-width: 0.5"/>
      </g>
     </g>
     <g id="text_5">
      <!-- $\mathdefault{80}$ -->
      <g transform="translate(326.051028 125.389665)scale(0.14 -0.14)">
       <defs>
        <path id="URWPalladioL-Roma-38" d="M 1075 2211 
C 813 2089 704 2019 563 1884 
C 320 1640 192 1352 192 1019 
C 192 358 723 -128 1446 -128 
C 2278 -128 2970 525 2970 1320 
C 2970 1833 2733 2108 2003 2442 
C 2586 2839 2790 3108 2790 3493 
C 2790 4044 2336 4416 1658 4416 
C 896 4416 339 3929 339 3256 
C 339 2820 512 2576 1075 2211 
z
M 1818 1890 
C 2221 1711 2464 1397 2464 1051 
C 2464 512 2061 89 1542 89 
C 998 89 646 474 646 1070 
C 646 1538 832 1833 1306 2121 
L 1818 1890 
z
M 1427 2711 
C 1024 2910 819 3166 819 3486 
C 819 3910 1126 4198 1581 4198 
C 2048 4198 2355 3890 2355 3422 
C 2355 3057 2195 2807 1779 2538 
L 1427 2711 
z
" transform="scale(0.015625)"/>
       </defs>
       <use xlink:href="#URWPalladioL-Roma-38" transform="scale(0.996264)"/>
       <use xlink:href="#URWPalladioL-Roma-30" transform="translate(49.8132 0)scale(0.996264)"/>
      </g>
     </g>
    </g>
    <g id="xtick_6">
     <g id="line2d_12">
      <path d="M 402.78906 99.910136 
L 402.78906 21.625192 
" clip-path="url(#p4c974fe611)" style="fill: none; stroke: #000000; stroke-opacity: 0.2; stroke-width: 0.5; stroke-linecap: round"/>
     </g>
     <g id="line2d_13">
      <g>
       <use xlink:href="#m4bdd71fc87" x="402.78906" y="99.910136" style="fill-opacity: 0.2; stroke: #000000; stroke-opacity: 0.2; stroke-width: 0.5"/>
      </g>
     </g>
     <g id="text_6">
      <!-- $\mathdefault{100}$ -->
      <g transform="translate(392.328288 125.389665)scale(0.14 -0.14)">
       <defs>
        <path id="URWPalladioL-Roma-31" d="M 429 3571 
L 493 3571 
L 1318 3942 
C 1325 3949 1331 3949 1338 3949 
C 1376 3949 1389 3891 1389 3737 
L 1389 633 
C 1389 300 1318 230 973 211 
L 614 192 
L 614 0 
C 1600 0 1600 0 1670 0 
C 1754 0 1894 0 2112 -7 
C 2189 6 2413 6 2675 0 
L 2675 192 
L 2342 211 
C 1990 229 1926 299 1926 628 
L 1926 4383 
L 1837 4416 
C 1421 4199 966 4009 384 3807 
L 429 3571 
z
" transform="scale(0.015625)"/>
       </defs>
       <use xlink:href="#URWPalladioL-Roma-31" transform="scale(0.996264)"/>
       <use xlink:href="#URWPalladioL-Roma-30" transform="translate(49.8132 0)scale(0.996264)"/>
       <use xlink:href="#URWPalladioL-Roma-30" transform="translate(99.626401 0)scale(0.996264)"/>
      </g>
     </g>
    </g>
    <g id="xtick_7">
     <g id="line2d_14">
      <path d="M 472.553244 99.910136 
L 472.553244 21.625192 
" clip-path="url(#p4c974fe611)" style="fill: none; stroke: #000000; stroke-opacity: 0.2; stroke-width: 0.5; stroke-linecap: round"/>
     </g>
     <g id="line2d_15">
      <g>
       <use xlink:href="#m4bdd71fc87" x="472.553244" y="99.910136" style="fill-opacity: 0.2; stroke: #000000; stroke-opacity: 0.2; stroke-width: 0.5"/>
      </g>
     </g>
     <g id="text_7">
      <!-- $\mathdefault{120}$ -->
      <g transform="translate(462.092472 125.389665)scale(0.14 -0.14)">
       <use xlink:href="#URWPalladioL-Roma-31" transform="scale(0.996264)"/>
       <use xlink:href="#URWPalladioL-Roma-32" transform="translate(49.8132 0)scale(0.996264)"/>
       <use xlink:href="#URWPalladioL-Roma-30" transform="translate(99.626401 0)scale(0.996264)"/>
      </g>
     </g>
    </g>
    <g id="xtick_8">
     <g id="line2d_16">
      <path d="M 542.317428 99.910136 
L 542.317428 21.625192 
" clip-path="url(#p4c974fe611)" style="fill: none; stroke: #000000; stroke-opacity: 0.2; stroke-width: 0.5; stroke-linecap: round"/>
     </g>
     <g id="line2d_17">
      <g>
       <use xlink:href="#m4bdd71fc87" x="542.317428" y="99.910136" style="fill-opacity: 0.2; stroke: #000000; stroke-opacity: 0.2; stroke-width: 0.5"/>
      </g>
     </g>
     <g id="text_8">
      <!-- $\mathdefault{140}$ -->
      <g transform="translate(531.856656 125.389665)scale(0.14 -0.14)">
       <use xlink:href="#URWPalladioL-Roma-31" transform="scale(0.996264)"/>
       <use xlink:href="#URWPalladioL-Roma-34" transform="translate(49.8132 0)scale(0.996264)"/>
       <use xlink:href="#URWPalladioL-Roma-30" transform="translate(99.626401 0)scale(0.996264)"/>
      </g>
     </g>
    </g>
    <g id="text_9">
     <!-- Analysis frequency index $m$ -->
     <g transform="translate(241.491253 141.876713)scale(0.12 -0.12)">
      <defs>
       <path id="URWPalladioL-Roma-41" d="M 2611 4480 
L 2406 4480 
C 2291 4205 2195 3969 2157 3874 
L 1818 3103 
L 678 523 
C 602 338 474 223 333 210 
L 96 191 
L 96 0 
C 691 0 691 0 794 0 
C 877 19 877 19 1568 0 
L 1568 191 
L 1331 210 
C 1107 229 1024 273 1024 375 
C 1024 457 1114 730 1248 1047 
L 1427 1472 
L 3270 1472 
L 3565 742 
C 3674 476 3699 394 3699 337 
C 3699 267 3597 223 3437 210 
L 3136 191 
L 3136 0 
C 3923 0 3923 0 4026 0 
C 4147 19 4147 19 4838 0 
L 4838 191 
L 4621 210 
C 4454 235 4384 343 4160 857 
L 2611 4480 
z
M 1536 1728 
L 2349 3630 
L 3155 1728 
L 1536 1728 
z
" transform="scale(0.015625)"/>
       <path id="URWPalladioL-Roma-6e" d="M 2624 0 
C 3014 0 3021 0 3130 0 
C 3219 19 3219 19 3661 0 
L 3661 192 
L 3398 211 
C 3181 223 3162 262 3162 670 
L 3162 1902 
C 3162 2649 2810 3014 2093 3014 
C 1856 3014 1722 2969 1587 2854 
L 1101 2432 
L 1101 2988 
L 1043 3008 
C 717 2873 384 2784 45 2746 
L 45 2568 
L 282 2568 
C 538 2568 563 2523 563 2103 
L 563 669 
C 563 268 544 223 326 211 
L 38 192 
L 38 0 
C 474 -7 646 0 832 0 
C 1018 19 1190 12 1626 0 
L 1626 192 
L 1338 211 
C 1120 223 1101 268 1101 670 
L 1101 2023 
C 1101 2311 1523 2624 1914 2624 
C 2342 2624 2624 2304 2624 1813 
L 2624 0 
z
" transform="scale(0.015625)"/>
       <path id="URWPalladioL-Roma-61" d="M 2074 544 
L 2042 0 
C 2458 0 2458 0 2541 0 
C 2573 19 2733 12 3014 0 
L 3014 192 
L 2765 204 
C 2611 211 2586 262 2586 576 
L 2586 1751 
C 2586 2688 2317 3027 1574 3027 
C 1299 3027 1043 2956 800 2809 
L 461 2604 
L 461 2187 
L 627 2142 
L 710 2341 
C 845 2642 909 2688 1203 2688 
C 1805 2688 2054 2450 2074 1866 
L 1440 1751 
C 570 1590 205 1289 205 730 
C 205 224 506 -64 1011 -64 
C 1126 -64 1235 -45 1280 -13 
L 2074 544 
z
M 2074 806 
C 1888 544 1485 300 1235 300 
C 979 300 755 537 755 812 
C 755 1049 883 1273 1075 1395 
C 1235 1491 1587 1580 2074 1651 
L 2074 806 
z
" transform="scale(0.015625)"/>
       <path id="URWPalladioL-Roma-6c" d="M 147 4249 
L 506 4249 
C 621 4249 666 4179 666 3987 
L 666 672 
C 666 268 646 224 429 211 
L 134 192 
L 134 0 
C 774 0 774 0 934 0 
C 1094 19 1094 19 1734 0 
L 1734 192 
L 1440 211 
C 1222 224 1203 268 1203 672 
L 1203 4614 
L 1146 4665 
C 864 4557 653 4505 147 4429 
L 147 4249 
z
" transform="scale(0.015625)"/>
       <path id="URWPalladioL-Roma-79" d="M 1901 569 
C 1760 812 1690 960 1574 1273 
L 1165 2349 
C 1126 2457 1101 2553 1101 2617 
C 1101 2707 1171 2758 1318 2765 
L 1562 2777 
L 1562 2957 
C 941 2937 941 2937 819 2937 
C 698 2937 698 2937 77 2957 
L 77 2777 
L 192 2765 
C 352 2745 429 2675 525 2451 
L 1222 774 
C 1402 339 1466 185 1581 -135 
L 1434 -525 
C 1229 -1063 979 -1364 736 -1364 
C 634 -1364 518 -1312 410 -1216 
L 326 -1216 
L 173 -1696 
C 294 -1760 397 -1792 518 -1792 
C 947 -1792 1222 -1562 1466 -1005 
L 2765 1990 
C 3021 2573 3142 2745 3302 2765 
L 3482 2777 
L 3482 2957 
C 2976 2937 2976 2937 2874 2937 
C 2771 2937 2771 2937 2266 2957 
L 2266 2777 
L 2432 2765 
C 2611 2752 2701 2694 2701 2605 
C 2701 2560 2688 2502 2662 2438 
L 1901 569 
z
" transform="scale(0.015625)"/>
       <path id="URWPalladioL-Roma-73" d="M 262 917 
C 262 474 243 282 192 25 
C 525 -84 774 -128 1069 -128 
C 1907 -128 2502 320 2502 949 
C 2502 1148 2445 1295 2323 1423 
C 2157 1584 1946 1661 1382 1770 
C 858 1872 685 2001 685 2296 
C 685 2617 909 2796 1299 2796 
C 1728 2796 2054 2572 2054 2270 
L 2054 2123 
L 2234 2123 
C 2240 2495 2246 2649 2266 2847 
C 1926 2963 1696 3008 1434 3008 
C 691 3008 237 2655 237 2078 
C 237 1770 378 1552 672 1417 
C 845 1340 1184 1237 1619 1141 
C 1907 1077 2029 942 2029 698 
C 2029 352 1709 108 1254 108 
C 787 108 454 333 454 654 
L 454 917 
L 262 917 
z
" transform="scale(0.015625)"/>
       <path id="URWPalladioL-Roma-69" d="M 1203 2982 
L 1146 3008 
C 819 2873 486 2784 147 2746 
L 147 2568 
L 384 2568 
C 640 2568 666 2523 666 2103 
L 666 669 
C 666 268 646 223 429 211 
L 134 192 
L 134 0 
C 774 0 774 0 934 0 
C 1094 19 1094 19 1734 0 
L 1734 192 
L 1440 211 
C 1222 224 1203 268 1203 671 
L 1203 2982 
z
M 909 4416 
C 717 4416 550 4249 550 4057 
C 550 3871 717 3705 902 3705 
C 1088 3705 1261 3871 1261 4057 
C 1261 4236 1088 4416 909 4416 
z
" transform="scale(0.015625)"/>
       <path id="URWPalladioL-Roma-66" d="M 2182 4601 
C 2048 4652 1971 4672 1888 4672 
C 1683 4672 1459 4563 1318 4403 
L 947 3981 
C 762 3770 678 3482 678 3060 
L 678 2792 
L 237 2594 
L 237 2453 
L 678 2479 
L 678 671 
C 678 268 659 223 442 211 
L 147 192 
L 147 0 
C 787 0 787 0 947 0 
C 1107 19 1107 19 1747 0 
L 1747 192 
L 1453 211 
C 1235 223 1216 268 1216 671 
L 1216 2479 
L 2010 2479 
L 2054 2818 
L 1216 2792 
L 1216 3335 
C 1216 4070 1299 4249 1664 4249 
C 1837 4249 1952 4204 2106 4070 
L 2182 4108 
L 2182 4601 
z
" transform="scale(0.015625)"/>
       <path id="URWPalladioL-Roma-72" d="M 147 2579 
L 384 2579 
C 640 2579 666 2534 666 2112 
L 666 672 
C 666 268 646 224 429 211 
L 134 192 
L 134 0 
C 595 -7 762 0 922 0 
C 1050 19 1050 19 1837 0 
L 1837 192 
L 1504 211 
C 1216 230 1203 249 1203 669 
L 1203 1763 
C 1203 2145 1459 2463 1773 2463 
C 1965 2463 2099 2374 2202 2171 
L 2336 2171 
L 2394 2937 
C 2323 2982 2208 3008 2093 3008 
C 1901 3008 1696 2905 1562 2745 
L 1203 2324 
L 1203 2982 
L 1146 3008 
C 819 2873 486 2783 147 2745 
L 147 2579 
z
" transform="scale(0.015625)"/>
       <path id="URWPalladioL-Roma-65" d="M 2797 447 
L 2714 511 
C 2304 268 2157 211 1882 211 
C 1466 211 1120 396 941 710 
C 819 921 774 1100 762 1472 
L 1696 1472 
C 2138 1472 2413 1491 2854 1561 
C 2861 1651 2867 1708 2867 1786 
C 2867 2526 2394 3008 1677 3008 
C 1440 3008 1165 2924 902 2771 
C 378 2468 166 2069 166 1401 
C 166 998 262 652 435 409 
C 691 70 1120 -128 1600 -128 
C 1837 -128 2074 -77 2336 38 
C 2509 108 2643 192 2669 230 
L 2797 447 
z
M 2298 1708 
C 1965 1696 1811 1689 1581 1689 
C 1286 1689 1120 1696 774 1728 
C 774 2030 800 2172 883 2339 
C 1018 2623 1293 2796 1600 2796 
C 1811 2796 1978 2713 2093 2539 
C 2234 2326 2278 2140 2298 1708 
z
" transform="scale(0.015625)"/>
       <path id="URWPalladioL-Roma-71" d="M 2515 434 
L 2515 -1118 
C 2515 -1523 2490 -1568 2278 -1581 
L 1907 -1600 
L 1907 -1792 
C 2650 -1773 2650 -1773 2797 -1773 
C 2950 -1773 3130 -1780 3584 -1792 
L 3584 -1600 
L 3290 -1581 
C 3072 -1568 3053 -1523 3053 -1118 
L 3053 2043 
C 3053 2439 3091 2681 3200 2924 
L 3078 2995 
L 2765 2796 
C 2438 2943 2163 3008 1888 3008 
C 1702 3008 1478 2956 1382 2899 
L 845 2553 
C 435 2292 224 1870 224 1315 
C 224 479 730 -64 1523 -64 
C 1658 -64 1766 -39 1850 12 
L 2515 434 
z
M 2515 779 
C 2515 690 2362 524 2189 428 
C 2035 345 1888 300 1734 300 
C 1171 300 781 824 781 1596 
C 781 2298 1139 2707 1754 2707 
C 2067 2707 2291 2630 2515 2445 
L 2515 779 
z
" transform="scale(0.015625)"/>
       <path id="URWPalladioL-Roma-75" d="M 3219 2982 
L 3162 3008 
C 2835 2873 2502 2784 2163 2745 
L 2163 2567 
L 2400 2567 
C 2656 2567 2682 2522 2682 2101 
L 2682 1060 
C 2682 920 2592 741 2445 594 
C 2266 415 2061 326 1811 326 
C 1587 326 1408 396 1306 517 
C 1216 620 1171 817 1171 1098 
L 1171 2982 
L 1114 3008 
C 787 2873 454 2784 115 2745 
L 115 2567 
L 352 2567 
C 608 2567 634 2522 634 2101 
L 634 1028 
C 634 581 672 383 787 224 
C 928 32 1171 -64 1536 -64 
C 1824 -58 2080 32 2253 192 
L 2682 588 
C 2682 403 2675 300 2656 0 
C 3085 0 3091 0 3187 0 
C 3277 19 3277 19 3718 0 
L 3718 192 
L 3456 211 
C 3238 224 3219 262 3219 672 
L 3219 2982 
z
" transform="scale(0.015625)"/>
       <path id="URWPalladioL-Roma-63" d="M 2554 1995 
C 2554 2290 2586 2553 2643 2783 
C 2387 2937 2163 3008 1901 3008 
C 1594 3008 1235 2886 851 2643 
C 403 2360 166 1911 166 1347 
C 166 480 774 -128 1632 -128 
C 1965 -128 2445 -7 2509 89 
L 2643 294 
L 2579 390 
C 2342 262 2138 204 1907 204 
C 1197 204 730 756 730 1603 
C 730 2290 1050 2675 1626 2675 
C 1907 2675 2214 2547 2330 2386 
L 2374 1995 
L 2554 1995 
z
" transform="scale(0.015625)"/>
       <path id="URWPalladioL-Roma-64" d="M 2637 2803 
C 2278 2956 2099 3008 1875 3008 
C 1702 3008 1549 2969 1389 2886 
L 826 2592 
C 461 2400 224 1934 224 1392 
C 224 881 397 460 710 204 
C 928 19 1229 -64 1645 -64 
C 1773 -64 1920 -39 1952 -13 
L 2662 581 
L 2630 0 
C 2944 -7 3046 0 3123 0 
C 3174 0 3264 0 3398 -7 
C 3443 6 3571 6 3706 0 
L 3706 192 
L 3411 211 
C 3194 224 3174 268 3174 672 
L 3174 4614 
L 3117 4665 
C 2835 4557 2624 4505 2118 4429 
L 2118 4249 
L 2477 4249 
C 2592 4249 2637 4179 2637 3987 
L 2637 2803 
z
M 2637 1424 
C 2637 1009 2624 945 2541 798 
C 2362 498 2048 300 1747 300 
C 1184 300 781 843 781 1602 
C 781 2298 1126 2707 1702 2707 
C 1946 2707 2202 2624 2426 2470 
C 2560 2381 2637 2298 2637 2247 
L 2637 1424 
z
" transform="scale(0.015625)"/>
       <path id="URWPalladioL-Roma-78" d="M 1843 1631 
L 2752 2694 
C 2790 2739 2861 2764 2970 2764 
L 3059 2764 
L 3059 2944 
L 2534 2944 
L 1741 1823 
L 1254 2566 
C 1158 2706 1088 2790 870 3008 
L 128 2879 
L 160 2713 
L 294 2700 
C 410 2693 550 2604 614 2514 
L 1382 1398 
L 429 269 
C 384 211 301 172 237 172 
L 128 172 
L 128 0 
L 678 0 
C 723 70 736 96 813 211 
C 915 390 1018 551 1062 602 
L 1536 1231 
L 2221 192 
L 2227 179 
C 2285 108 2336 44 2387 0 
C 2720 0 2720 0 2778 0 
C 2842 19 2842 19 3174 0 
L 3174 172 
L 3014 192 
C 2938 198 2861 249 2790 345 
L 1843 1631 
z
" transform="scale(0.015625)"/>
       <path id="URWPalladioL-Ital-6d" d="M 4672 651 
L 4506 542 
C 4320 421 4179 351 4115 351 
C 4070 351 4032 408 4032 479 
C 4032 542 4045 600 4077 734 
L 4557 2631 
C 4582 2739 4602 2841 4602 2892 
C 4602 3001 4538 3072 4435 3072 
C 4250 3072 4006 2956 3616 2682 
C 3213 2394 2989 2171 2675 1730 
L 2867 2605 
C 2893 2733 2912 2829 2912 2873 
C 2912 2995 2848 3072 2746 3072 
C 2554 3072 2259 2931 1907 2663 
C 1626 2445 1498 2311 1082 1749 
L 1293 2599 
C 1318 2701 1331 2797 1331 2873 
C 1331 2995 1274 3072 1184 3072 
C 1050 3072 806 2937 333 2599 
L 154 2471 
L 198 2343 
L 403 2477 
C 640 2624 659 2637 704 2637 
C 774 2637 819 2573 819 2477 
C 819 2152 557 919 294 6 
L 314 -64 
L 749 32 
L 890 683 
C 1043 1392 1216 1769 1568 2152 
C 1837 2445 2125 2637 2304 2637 
C 2349 2637 2374 2586 2374 2503 
C 2374 2279 2234 1551 1971 434 
L 1869 6 
L 1901 -64 
L 2342 32 
L 2477 715 
C 2579 1232 2797 1711 3078 2024 
C 3430 2413 3750 2637 3955 2637 
C 4006 2637 4038 2579 4038 2477 
C 4038 2324 4019 2235 3878 1679 
C 3776 1277 3667 894 3603 677 
C 3546 498 3520 332 3520 191 
C 3520 32 3590 -64 3712 -64 
C 3878 -64 4109 70 4736 536 
L 4672 651 
z
" transform="scale(0.015625)"/>
      </defs>
      <use xlink:href="#URWPalladioL-Roma-41" transform="scale(0.996264)"/>
      <use xlink:href="#URWPalladioL-Roma-6e" transform="translate(77.50837 0)scale(0.996264)"/>
      <use xlink:href="#URWPalladioL-Roma-61" transform="translate(135.490431 0)scale(0.996264)"/>
      <use xlink:href="#URWPalladioL-Roma-6c" transform="translate(185.303631 0)scale(0.996264)"/>
      <use xlink:href="#URWPalladioL-Roma-79" transform="translate(214.293993 0)scale(0.996264)"/>
      <use xlink:href="#URWPalladioL-Roma-73" transform="translate(269.68567 0)scale(0.996264)"/>
      <use xlink:href="#URWPalladioL-Roma-69" transform="translate(311.927136 0)scale(0.996264)"/>
      <use xlink:href="#URWPalladioL-Roma-73" transform="translate(340.917497 0)scale(0.996264)"/>
      <use xlink:href="#URWPalladioL-Roma-66" transform="translate(408.065564 0)scale(0.996264)"/>
      <use xlink:href="#URWPalladioL-Roma-72" transform="translate(441.240794 0)scale(0.996264)"/>
      <use xlink:href="#URWPalladioL-Roma-65" transform="translate(478.800111 0)scale(0.996264)"/>
      <use xlink:href="#URWPalladioL-Roma-71" transform="translate(526.520406 0)scale(0.996264)"/>
      <use xlink:href="#URWPalladioL-Roma-75" transform="translate(582.311039 0)scale(0.996264)"/>
      <use xlink:href="#URWPalladioL-Roma-65" transform="translate(642.384774 0)scale(0.996264)"/>
      <use xlink:href="#URWPalladioL-Roma-6e" transform="translate(690.105069 0)scale(0.996264)"/>
      <use xlink:href="#URWPalladioL-Roma-63" transform="translate(748.087129 0)scale(0.996264)"/>
      <use xlink:href="#URWPalladioL-Roma-79" transform="translate(792.320698 0)scale(0.996264)"/>
      <use xlink:href="#URWPalladioL-Roma-69" transform="translate(872.618975 0)scale(0.996264)"/>
      <use xlink:href="#URWPalladioL-Roma-6e" transform="translate(901.609337 0)scale(0.996264)"/>
      <use xlink:href="#URWPalladioL-Roma-64" transform="translate(959.591397 0)scale(0.996264)"/>
      <use xlink:href="#URWPalladioL-Roma-65" transform="translate(1020.463028 0)scale(0.996264)"/>
      <use xlink:href="#URWPalladioL-Roma-78" transform="translate(1068.183323 0)scale(0.996264)"/>
      <use xlink:href="#URWPalladioL-Ital-6d" transform="translate(1145.74157 0)scale(0.996264)"/>
     </g>
    </g>
   </g>
   <g id="matplotlib.axis_2">
    <g id="ytick_1">
     <g id="line2d_18">
      <path d="M 52.572856 77.653941 
L 577.19952 77.653941 
" clip-path="url(#p4c974fe611)" style="fill: none; stroke: #000000; stroke-opacity: 0.2; stroke-width: 0.5; stroke-linecap: round"/>
     </g>
     <g id="line2d_19">
      <defs>
       <path id="m7117cf7ded" d="M 0 0 
L -3.5 0 
" style="stroke: #000000; stroke-opacity: 0.2; stroke-width: 0.5"/>
      </defs>
      <g>
       <use xlink:href="#m7117cf7ded" x="52.572856" y="77.653941" style="fill-opacity: 0.2; stroke: #000000; stroke-opacity: 0.2; stroke-width: 0.5"/>
      </g>
     </g>
     <g id="text_10">
      <!-- $\mathdefault{0}$ -->
      <g transform="translate(30.099008 82.643706)scale(0.14 -0.14)">
       <use xlink:href="#URWPalladioL-Roma-30" transform="scale(0.996264)"/>
      </g>
     </g>
    </g>
    <g id="ytick_2">
     <g id="line2d_20">
      <path d="M 52.572856 31.431543 
L 577.19952 31.431543 
" clip-path="url(#p4c974fe611)" style="fill: none; stroke: #000000; stroke-opacity: 0.2; stroke-width: 0.5; stroke-linecap: round"/>
     </g>
     <g id="line2d_21">
      <g>
       <use xlink:href="#m7117cf7ded" x="52.572856" y="31.431543" style="fill-opacity: 0.2; stroke: #000000; stroke-opacity: 0.2; stroke-width: 0.5"/>
      </g>
     </g>
     <g id="text_11">
      <!-- $\mathdefault{50}$ -->
      <g transform="translate(23.12516 36.421308)scale(0.14 -0.14)">
       <defs>
        <path id="URWPalladioL-Roma-35" d="M 813 3891 
C 1638 3865 1997 3859 2765 3859 
L 2797 3891 
C 2784 4006 2784 4057 2784 4140 
C 2784 4230 2784 4281 2797 4396 
L 2765 4428 
C 2285 4403 1997 4396 1651 4396 
C 1299 4396 1018 4403 538 4428 
L 506 4396 
C 512 4006 518 3724 518 3520 
C 518 2976 499 2360 480 2076 
L 608 2038 
C 909 2341 1082 2432 1395 2432 
C 2010 2432 2394 1992 2394 1295 
C 2394 579 1984 160 1286 160 
C 941 160 621 276 531 443 
L 237 973 
L 83 882 
C 230 514 307 308 397 25 
C 576 -71 832 -128 1107 -128 
C 1536 -128 1990 57 2342 366 
C 2733 715 2938 1153 2938 1631 
C 2938 2360 2419 2873 1690 2873 
C 1382 2873 1152 2790 755 2553 
L 813 3891 
z
" transform="scale(0.015625)"/>
       </defs>
       <use xlink:href="#URWPalladioL-Roma-35" transform="scale(0.996264)"/>
       <use xlink:href="#URWPalladioL-Roma-30" transform="translate(49.8132 0)scale(0.996264)"/>
      </g>
     </g>
    </g>
    <g id="text_12">
     <!-- Similarity -->
     <g transform="translate(15.753876 86.763768)rotate(-90)scale(0.12 -0.12)">
      <defs>
       <path id="URWPalladioL-Roma-53" d="M 2861 3371 
C 2861 3711 2886 3929 2950 4275 
C 2438 4479 2150 4544 1798 4544 
C 845 4544 154 3942 154 3102 
C 154 2788 237 2557 422 2384 
C 640 2185 934 2083 1555 1999 
C 2048 1929 2272 1858 2438 1711 
C 2605 1576 2682 1390 2682 1147 
C 2682 570 2202 153 1536 153 
C 1024 153 525 403 493 666 
L 442 1095 
L 237 1095 
C 243 980 243 877 243 839 
C 243 544 230 403 192 115 
C 557 -45 928 -128 1299 -128 
C 2413 -128 3219 544 3219 1474 
C 3219 1775 3136 1986 2957 2153 
C 2733 2365 2464 2448 1747 2544 
C 966 2647 691 2858 691 3352 
C 691 3890 1094 4275 1658 4275 
C 1907 4275 2144 4224 2317 4127 
C 2528 4018 2598 3922 2618 3736 
L 2656 3371 
L 2861 3371 
z
" transform="scale(0.015625)"/>
       <path id="URWPalladioL-Roma-6d" d="M 115 2579 
L 352 2579 
C 608 2579 634 2534 634 2112 
L 634 672 
C 634 268 614 224 397 211 
L 102 192 
L 102 0 
C 717 0 736 0 915 0 
C 1094 19 1261 12 1677 0 
L 1677 192 
L 1408 211 
C 1190 223 1171 268 1171 670 
L 1171 2023 
C 1171 2311 1594 2624 1978 2624 
C 2323 2624 2560 2298 2560 1813 
L 2560 670 
C 2560 268 2541 223 2323 211 
L 2029 192 
L 2029 0 
C 2669 0 2669 0 2829 0 
C 2989 19 2989 19 3629 0 
L 3629 192 
L 3334 211 
C 3117 223 3098 268 3098 670 
L 3098 2023 
C 3098 2311 3520 2624 3904 2624 
C 4250 2624 4486 2298 4486 1813 
L 4486 0 
C 4877 0 4883 0 4992 0 
C 5075 19 5075 19 5562 0 
L 5562 192 
L 5261 211 
C 5043 223 5024 268 5024 670 
L 5024 1985 
C 5024 2617 4653 3014 4064 3014 
C 3840 3014 3654 2956 3539 2854 
L 3053 2419 
C 2848 2841 2586 3014 2144 3014 
C 1907 3014 1728 2956 1613 2854 
L 1171 2445 
L 1171 2988 
L 1114 3008 
C 787 2873 454 2783 115 2745 
L 115 2579 
z
" transform="scale(0.015625)"/>
       <path id="URWPalladioL-Roma-74" d="M 627 2457 
L 627 614 
C 627 140 838 -64 1331 -64 
C 1478 -64 1632 -32 1670 12 
L 1978 352 
L 1894 460 
C 1734 371 1638 339 1517 339 
C 1267 339 1165 467 1165 780 
L 1165 2457 
L 1984 2457 
L 2042 2803 
L 1165 2764 
L 1165 3008 
C 1165 3277 1184 3507 1235 3917 
L 1158 3987 
C 1005 3891 813 3808 614 3744 
C 634 3552 640 3430 640 3238 
L 640 2790 
L 141 2566 
L 141 2432 
L 627 2457 
z
" transform="scale(0.015625)"/>
      </defs>
      <use xlink:href="#URWPalladioL-Roma-53" transform="scale(0.996264)"/>
      <use xlink:href="#URWPalladioL-Roma-69" transform="translate(52.303815 0)scale(0.996264)"/>
      <use xlink:href="#URWPalladioL-Roma-6d" transform="translate(81.294176 0)scale(0.996264)"/>
      <use xlink:href="#URWPalladioL-Roma-69" transform="translate(169.263851 0)scale(0.996264)"/>
      <use xlink:href="#URWPalladioL-Roma-6c" transform="translate(198.254212 0)scale(0.996264)"/>
      <use xlink:href="#URWPalladioL-Roma-61" transform="translate(227.244574 0)scale(0.996264)"/>
      <use xlink:href="#URWPalladioL-Roma-72" transform="translate(277.057774 0)scale(0.996264)"/>
      <use xlink:href="#URWPalladioL-Roma-69" transform="translate(316.40967 0)scale(0.996264)"/>
      <use xlink:href="#URWPalladioL-Roma-74" transform="translate(345.400032 0)scale(0.996264)"/>
      <use xlink:href="#URWPalladioL-Roma-79" transform="translate(377.87712 0)scale(0.996264)"/>
     </g>
    </g>
   </g>
   <g id="patch_4">
    <path d="M 52.572856 77.653941 
L 55.363423 77.653941 
L 55.363423 96.351729 
L 52.572856 96.351729 
z
" clip-path="url(#p4c974fe611)" style="fill: #6e3b87"/>
   </g>
   <g id="patch_5">
    <path d="M 56.061065 77.653941 
L 58.851633 77.653941 
L 58.851633 26.677641 
L 56.061065 26.677641 
z
" clip-path="url(#p4c974fe611)" style="fill: #6e3b87"/>
   </g>
   <g id="patch_6">
    <path d="M 59.549274 77.653941 
L 62.339842 77.653941 
L 62.339842 25.183599 
L 59.549274 25.183599 
z
" clip-path="url(#p4c974fe611)" style="fill: #6e3b87"/>
   </g>
   <g id="patch_7">
    <path d="M 63.037484 77.653941 
L 65.828051 77.653941 
L 65.828051 87.383781 
L 63.037484 87.383781 
z
" clip-path="url(#p4c974fe611)" style="fill: #6e3b87"/>
   </g>
   <g id="patch_8">
    <path d="M 66.525693 77.653941 
L 69.31626 77.653941 
L 69.31626 80.202161 
L 66.525693 80.202161 
z
" clip-path="url(#p4c974fe611)" style="fill: #6e3b87"/>
   </g>
   <g id="patch_9">
    <path d="M 70.013902 77.653941 
L 72.804469 77.653941 
L 72.804469 78.547628 
L 70.013902 78.547628 
z
" clip-path="url(#p4c974fe611)" style="fill: #6e3b87"/>
   </g>
   <g id="patch_10">
    <path d="M 73.502111 77.653941 
L 76.292679 77.653941 
L 76.292679 77.872328 
L 73.502111 77.872328 
z
" clip-path="url(#p4c974fe611)" style="fill: #6e3b87"/>
   </g>
   <g id="patch_11">
    <path d="M 76.99032 77.653941 
L 79.780888 77.653941 
L 79.780888 77.522796 
L 76.99032 77.522796 
z
" clip-path="url(#p4c974fe611)" style="fill: #6e3b87"/>
   </g>
   <g id="patch_12">
    <path d="M 80.47853 77.653941 
L 83.269097 77.653941 
L 83.269097 77.315969 
L 80.47853 77.315969 
z
" clip-path="url(#p4c974fe611)" style="fill: #6e3b87"/>
   </g>
   <g id="patch_13">
    <path d="M 83.966739 77.653941 
L 86.757306 77.653941 
L 86.757306 77.182505 
L 83.966739 77.182505 
z
" clip-path="url(#p4c974fe611)" style="fill: #6e3b87"/>
   </g>
   <g id="patch_14">
    <path d="M 87.454948 77.653941 
L 90.245515 77.653941 
L 90.245515 77.090964 
L 87.454948 77.090964 
z
" clip-path="url(#p4c974fe611)" style="fill: #6e3b87"/>
   </g>
   <g id="patch_15">
    <path d="M 90.943157 77.653941 
L 93.733725 77.653941 
L 93.733725 77.025257 
L 90.943157 77.025257 
z
" clip-path="url(#p4c974fe611)" style="fill: #6e3b87"/>
   </g>
   <g id="patch_16">
    <path d="M 94.431366 77.653941 
L 97.221934 77.653941 
L 97.221934 76.976402 
L 94.431366 76.976402 
z
" clip-path="url(#p4c974fe611)" style="fill: #6e3b87"/>
   </g>
   <g id="patch_17">
    <path d="M 97.919576 77.653941 
L 100.710143 77.653941 
L 100.710143 76.939037 
L 97.919576 76.939037 
z
" clip-path="url(#p4c974fe611)" style="fill: #6e3b87"/>
   </g>
   <g id="patch_18">
    <path d="M 101.407785 77.653941 
L 104.198352 77.653941 
L 104.198352 76.909793 
L 101.407785 76.909793 
z
" clip-path="url(#p4c974fe611)" style="fill: #6e3b87"/>
   </g>
   <g id="patch_19">
    <path d="M 104.895994 77.653941 
L 107.686561 77.653941 
L 107.686561 76.886458 
L 104.895994 76.886458 
z
" clip-path="url(#p4c974fe611)" style="fill: #6e3b87"/>
   </g>
   <g id="patch_20">
    <path d="M 108.384203 77.653941 
L 111.174771 77.653941 
L 111.174771 76.86753 
L 108.384203 76.86753 
z
" clip-path="url(#p4c974fe611)" style="fill: #6e3b87"/>
   </g>
   <g id="patch_21">
    <path d="M 111.872412 77.653941 
L 114.66298 77.653941 
L 114.66298 76.85196 
L 111.872412 76.85196 
z
" clip-path="url(#p4c974fe611)" style="fill: #6e3b87"/>
   </g>
   <g id="patch_22">
    <path d="M 115.360622 77.653941 
L 118.151189 77.653941 
L 118.151189 76.838993 
L 115.360622 76.838993 
z
" clip-path="url(#p4c974fe611)" style="fill: #6e3b87"/>
   </g>
   <g id="patch_23">
    <path d="M 118.848831 77.653941 
L 121.639398 77.653941 
L 121.639398 76.828078 
L 118.848831 76.828078 
z
" clip-path="url(#p4c974fe611)" style="fill: #6e3b87"/>
   </g>
   <g id="patch_24">
    <path d="M 122.33704 77.653941 
L 125.127607 77.653941 
L 125.127607 76.818803 
L 122.33704 76.818803 
z
" clip-path="url(#p4c974fe611)" style="fill: #6e3b87"/>
   </g>
   <g id="patch_25">
    <path d="M 125.825249 77.653941 
L 128.615817 77.653941 
L 128.615817 76.810854 
L 125.825249 76.810854 
z
" clip-path="url(#p4c974fe611)" style="fill: #6e3b87"/>
   </g>
   <g id="patch_26">
    <path d="M 129.313458 77.653941 
L 132.104026 77.653941 
L 132.104026 76.803989 
L 129.313458 76.803989 
z
" clip-path="url(#p4c974fe611)" style="fill: #6e3b87"/>
   </g>
   <g id="patch_27">
    <path d="M 132.801668 77.653941 
L 135.592235 77.653941 
L 135.592235 76.798021 
L 132.801668 76.798021 
z
" clip-path="url(#p4c974fe611)" style="fill: #6e3b87"/>
   </g>
   <g id="patch_28">
    <path d="M 136.289877 77.653941 
L 139.080444 77.653941 
L 139.080444 76.792799 
L 136.289877 76.792799 
z
" clip-path="url(#p4c974fe611)" style="fill: #6e3b87"/>
   </g>
   <g id="patch_29">
    <path d="M 139.778086 77.653941 
L 142.568653 77.653941 
L 142.568653 76.788204 
L 139.778086 76.788204 
z
" clip-path="url(#p4c974fe611)" style="fill: #6e3b87"/>
   </g>
   <g id="patch_30">
    <path d="M 143.266295 77.653941 
L 146.056863 77.653941 
L 146.056863 76.784141 
L 143.266295 76.784141 
z
" clip-path="url(#p4c974fe611)" style="fill: #6e3b87"/>
   </g>
   <g id="patch_31">
    <path d="M 146.754504 77.653941 
L 149.545072 77.653941 
L 149.545072 76.78053 
L 146.754504 76.78053 
z
" clip-path="url(#p4c974fe611)" style="fill: #6e3b87"/>
   </g>
   <g id="patch_32">
    <path d="M 150.242714 77.653941 
L 153.033281 77.653941 
L 153.033281 76.777308 
L 150.242714 76.777308 
z
" clip-path="url(#p4c974fe611)" style="fill: #6e3b87"/>
   </g>
   <g id="patch_33">
    <path d="M 153.730923 77.653941 
L 156.52149 77.653941 
L 156.52149 76.774421 
L 153.730923 76.774421 
z
" clip-path="url(#p4c974fe611)" style="fill: #6e3b87"/>
   </g>
   <g id="patch_34">
    <path d="M 157.219132 77.653941 
L 160.009699 77.653941 
L 160.009699 76.771826 
L 157.219132 76.771826 
z
" clip-path="url(#p4c974fe611)" style="fill: #6e3b87"/>
   </g>
   <g id="patch_35">
    <path d="M 160.707341 77.653941 
L 163.497909 77.653941 
L 163.497909 76.769483 
L 160.707341 76.769483 
z
" clip-path="url(#p4c974fe611)" style="fill: #6e3b87"/>
   </g>
   <g id="patch_36">
    <path d="M 164.19555 77.653941 
L 166.986118 77.653941 
L 166.986118 76.767363 
L 164.19555 76.767363 
z
" clip-path="url(#p4c974fe611)" style="fill: #6e3b87"/>
   </g>
   <g id="patch_37">
    <path d="M 167.68376 77.653941 
L 170.474327 77.653941 
L 170.474327 76.765439 
L 167.68376 76.765439 
z
" clip-path="url(#p4c974fe611)" style="fill: #6e3b87"/>
   </g>
   <g id="patch_38">
    <path d="M 171.171969 77.653941 
L 173.962536 77.653941 
L 173.962536 76.763687 
L 171.171969 76.763687 
z
" clip-path="url(#p4c974fe611)" style="fill: #6e3b87"/>
   </g>
   <g id="patch_39">
    <path d="M 174.660178 77.653941 
L 177.450745 77.653941 
L 177.450745 76.762089 
L 174.660178 76.762089 
z
" clip-path="url(#p4c974fe611)" style="fill: #6e3b87"/>
   </g>
   <g id="patch_40">
    <path d="M 178.148387 77.653941 
L 180.938955 77.653941 
L 180.938955 76.760628 
L 178.148387 76.760628 
z
" clip-path="url(#p4c974fe611)" style="fill: #6e3b87"/>
   </g>
   <g id="patch_41">
    <path d="M 181.636596 77.653941 
L 184.427164 77.653941 
L 184.427164 76.759288 
L 181.636596 76.759288 
z
" clip-path="url(#p4c974fe611)" style="fill: #6e3b87"/>
   </g>
   <g id="patch_42">
    <path d="M 185.124806 77.653941 
L 187.915373 77.653941 
L 187.915373 76.758058 
L 185.124806 76.758058 
z
" clip-path="url(#p4c974fe611)" style="fill: #6e3b87"/>
   </g>
   <g id="patch_43">
    <path d="M 188.613015 77.653941 
L 191.403582 77.653941 
L 191.403582 76.756926 
L 188.613015 76.756926 
z
" clip-path="url(#p4c974fe611)" style="fill: #6e3b87"/>
   </g>
   <g id="patch_44">
    <path d="M 192.101224 77.653941 
L 194.891791 77.653941 
L 194.891791 76.755884 
L 192.101224 76.755884 
z
" clip-path="url(#p4c974fe611)" style="fill: #6e3b87"/>
   </g>
   <g id="patch_45">
    <path d="M 195.589433 77.653941 
L 198.380001 77.653941 
L 198.380001 76.754921 
L 195.589433 76.754921 
z
" clip-path="url(#p4c974fe611)" style="fill: #6e3b87"/>
   </g>
   <g id="patch_46">
    <path d="M 199.077642 77.653941 
L 201.86821 77.653941 
L 201.86821 76.754032 
L 199.077642 76.754032 
z
" clip-path="url(#p4c974fe611)" style="fill: #6e3b87"/>
   </g>
   <g id="patch_47">
    <path d="M 202.565852 77.653941 
L 205.356419 77.653941 
L 205.356419 76.753209 
L 202.565852 76.753209 
z
" clip-path="url(#p4c974fe611)" style="fill: #6e3b87"/>
   </g>
   <g id="patch_48">
    <path d="M 206.054061 77.653941 
L 208.844628 77.653941 
L 208.844628 76.752447 
L 206.054061 76.752447 
z
" clip-path="url(#p4c974fe611)" style="fill: #6e3b87"/>
   </g>
   <g id="patch_49">
    <path d="M 209.54227 77.653941 
L 212.332837 77.653941 
L 212.332837 76.751741 
L 209.54227 76.751741 
z
" clip-path="url(#p4c974fe611)" style="fill: #6e3b87"/>
   </g>
   <g id="patch_50">
    <path d="M 213.030479 77.653941 
L 215.821047 77.653941 
L 215.821047 76.751085 
L 213.030479 76.751085 
z
" clip-path="url(#p4c974fe611)" style="fill: #6e3b87"/>
   </g>
   <g id="patch_51">
    <path d="M 216.518688 77.653941 
L 219.309256 77.653941 
L 219.309256 76.750476 
L 216.518688 76.750476 
z
" clip-path="url(#p4c974fe611)" style="fill: #6e3b87"/>
   </g>
   <g id="patch_52">
    <path d="M 220.006898 77.653941 
L 222.797465 77.653941 
L 222.797465 76.749911 
L 220.006898 76.749911 
z
" clip-path="url(#p4c974fe611)" style="fill: #6e3b87"/>
   </g>
   <g id="patch_53">
    <path d="M 223.495107 77.653941 
L 226.285674 77.653941 
L 226.285674 76.749385 
L 223.495107 76.749385 
z
" clip-path="url(#p4c974fe611)" style="fill: #6e3b87"/>
   </g>
   <g id="patch_54">
    <path d="M 226.983316 77.653941 
L 229.773883 77.653941 
L 229.773883 76.748896 
L 226.983316 76.748896 
z
" clip-path="url(#p4c974fe611)" style="fill: #6e3b87"/>
   </g>
   <g id="patch_55">
    <path d="M 230.471525 77.653941 
L 233.262093 77.653941 
L 233.262093 76.748442 
L 230.471525 76.748442 
z
" clip-path="url(#p4c974fe611)" style="fill: #6e3b87"/>
   </g>
   <g id="patch_56">
    <path d="M 233.959734 77.653941 
L 236.750302 77.653941 
L 236.750302 76.748019 
L 233.959734 76.748019 
z
" clip-path="url(#p4c974fe611)" style="fill: #6e3b87"/>
   </g>
   <g id="patch_57">
    <path d="M 237.447944 77.653941 
L 240.238511 77.653941 
L 240.238511 76.747626 
L 237.447944 76.747626 
z
" clip-path="url(#p4c974fe611)" style="fill: #6e3b87"/>
   </g>
   <g id="patch_58">
    <path d="M 240.936153 77.653941 
L 243.72672 77.653941 
L 243.72672 76.747261 
L 240.936153 76.747261 
z
" clip-path="url(#p4c974fe611)" style="fill: #6e3b87"/>
   </g>
   <g id="patch_59">
    <path d="M 244.424362 77.653941 
L 247.214929 77.653941 
L 247.214929 76.746922 
L 244.424362 76.746922 
z
" clip-path="url(#p4c974fe611)" style="fill: #6e3b87"/>
   </g>
   <g id="patch_60">
    <path d="M 247.912571 77.653941 
L 250.703139 77.653941 
L 250.703139 76.746608 
L 247.912571 76.746608 
z
" clip-path="url(#p4c974fe611)" style="fill: #6e3b87"/>
   </g>
   <g id="patch_61">
    <path d="M 251.40078 77.653941 
L 254.191348 77.653941 
L 254.191348 76.746317 
L 251.40078 76.746317 
z
" clip-path="url(#p4c974fe611)" style="fill: #6e3b87"/>
   </g>
   <g id="patch_62">
    <path d="M 254.88899 77.653941 
L 257.679557 77.653941 
L 257.679557 76.746048 
L 254.88899 76.746048 
z
" clip-path="url(#p4c974fe611)" style="fill: #6e3b87"/>
   </g>
   <g id="patch_63">
    <path d="M 258.377199 77.653941 
L 261.167766 77.653941 
L 261.167766 76.745799 
L 258.377199 76.745799 
z
" clip-path="url(#p4c974fe611)" style="fill: #6e3b87"/>
   </g>
   <g id="patch_64">
    <path d="M 261.865408 77.653941 
L 264.655975 77.653941 
L 264.655975 76.74557 
L 261.865408 76.74557 
z
" clip-path="url(#p4c974fe611)" style="fill: #6e3b87"/>
   </g>
   <g id="patch_65">
    <path d="M 265.353617 77.653941 
L 268.144185 77.653941 
L 268.144185 76.745359 
L 265.353617 76.745359 
z
" clip-path="url(#p4c974fe611)" style="fill: #6e3b87"/>
   </g>
   <g id="patch_66">
    <path d="M 268.841826 77.653941 
L 271.632394 77.653941 
L 271.632394 76.745167 
L 268.841826 76.745167 
z
" clip-path="url(#p4c974fe611)" style="fill: #6e3b87"/>
   </g>
   <g id="patch_67">
    <path d="M 272.330036 77.653941 
L 275.120603 77.653941 
L 275.120603 76.744991 
L 272.330036 76.744991 
z
" clip-path="url(#p4c974fe611)" style="fill: #6e3b87"/>
   </g>
   <g id="patch_68">
    <path d="M 275.818245 77.653941 
L 278.608812 77.653941 
L 278.608812 76.744832 
L 275.818245 76.744832 
z
" clip-path="url(#p4c974fe611)" style="fill: #6e3b87"/>
   </g>
   <g id="patch_69">
    <path d="M 279.306454 77.653941 
L 282.097021 77.653941 
L 282.097021 76.744689 
L 279.306454 76.744689 
z
" clip-path="url(#p4c974fe611)" style="fill: #6e3b87"/>
   </g>
   <g id="patch_70">
    <path d="M 282.794663 77.653941 
L 285.585231 77.653941 
L 285.585231 76.74456 
L 282.794663 76.74456 
z
" clip-path="url(#p4c974fe611)" style="fill: #6e3b87"/>
   </g>
   <g id="patch_71">
    <path d="M 286.282873 77.653941 
L 289.07344 77.653941 
L 289.07344 76.744447 
L 286.282873 76.744447 
z
" clip-path="url(#p4c974fe611)" style="fill: #6e3b87"/>
   </g>
   <g id="patch_72">
    <path d="M 289.771082 77.653941 
L 292.561649 77.653941 
L 292.561649 76.744348 
L 289.771082 76.744348 
z
" clip-path="url(#p4c974fe611)" style="fill: #6e3b87"/>
   </g>
   <g id="patch_73">
    <path d="M 293.259291 77.653941 
L 296.049858 77.653941 
L 296.049858 76.744262 
L 293.259291 76.744262 
z
" clip-path="url(#p4c974fe611)" style="fill: #6e3b87"/>
   </g>
   <g id="patch_74">
    <path d="M 296.7475 77.653941 
L 299.538067 77.653941 
L 299.538067 76.744191 
L 296.7475 76.744191 
z
" clip-path="url(#p4c974fe611)" style="fill: #6e3b87"/>
   </g>
   <g id="patch_75">
    <path d="M 300.235709 77.653941 
L 303.026277 77.653941 
L 303.026277 76.744133 
L 300.235709 76.744133 
z
" clip-path="url(#p4c974fe611)" style="fill: #6e3b87"/>
   </g>
   <g id="patch_76">
    <path d="M 303.723919 77.653941 
L 306.514486 77.653941 
L 306.514486 76.744087 
L 303.723919 76.744087 
z
" clip-path="url(#p4c974fe611)" style="fill: #6e3b87"/>
   </g>
   <g id="patch_77">
    <path d="M 307.212128 77.653941 
L 310.002695 77.653941 
L 310.002695 76.744055 
L 307.212128 76.744055 
z
" clip-path="url(#p4c974fe611)" style="fill: #6e3b87"/>
   </g>
   <g id="patch_78">
    <path d="M 310.700337 77.653941 
L 313.490904 77.653941 
L 313.490904 76.744036 
L 310.700337 76.744036 
z
" clip-path="url(#p4c974fe611)" style="fill: #6e3b87"/>
   </g>
   <g id="patch_79">
    <path d="M 314.188546 77.653941 
L 316.979113 77.653941 
L 316.979113 76.74403 
L 314.188546 76.74403 
z
" clip-path="url(#p4c974fe611)" style="fill: #6e3b87"/>
   </g>
   <g id="patch_80">
    <path d="M 317.676755 77.653941 
L 320.467323 77.653941 
L 320.467323 76.744036 
L 317.676755 76.744036 
z
" clip-path="url(#p4c974fe611)" style="fill: #6e3b87"/>
   </g>
   <g id="patch_81">
    <path d="M 321.164965 77.653941 
L 323.955532 77.653941 
L 323.955532 76.744055 
L 321.164965 76.744055 
z
" clip-path="url(#p4c974fe611)" style="fill: #6e3b87"/>
   </g>
   <g id="patch_82">
    <path d="M 324.653174 77.653941 
L 327.443741 77.653941 
L 327.443741 76.744087 
L 324.653174 76.744087 
z
" clip-path="url(#p4c974fe611)" style="fill: #6e3b87"/>
   </g>
   <g id="patch_83">
    <path d="M 328.141383 77.653941 
L 330.93195 77.653941 
L 330.93195 76.744133 
L 328.141383 76.744133 
z
" clip-path="url(#p4c974fe611)" style="fill: #6e3b87"/>
   </g>
   <g id="patch_84">
    <path d="M 331.629592 77.653941 
L 334.42016 77.653941 
L 334.42016 76.744191 
L 331.629592 76.744191 
z
" clip-path="url(#p4c974fe611)" style="fill: #6e3b87"/>
   </g>
   <g id="patch_85">
    <path d="M 335.117801 77.653941 
L 337.908369 77.653941 
L 337.908369 76.744262 
L 335.117801 76.744262 
z
" clip-path="url(#p4c974fe611)" style="fill: #6e3b87"/>
   </g>
   <g id="patch_86">
    <path d="M 338.606011 77.653941 
L 341.396578 77.653941 
L 341.396578 76.744348 
L 338.606011 76.744348 
z
" clip-path="url(#p4c974fe611)" style="fill: #6e3b87"/>
   </g>
   <g id="patch_87">
    <path d="M 342.09422 77.653941 
L 344.884787 77.653941 
L 344.884787 76.744447 
L 342.09422 76.744447 
z
" clip-path="url(#p4c974fe611)" style="fill: #6e3b87"/>
   </g>
   <g id="patch_88">
    <path d="M 345.582429 77.653941 
L 348.372996 77.653941 
L 348.372996 76.74456 
L 345.582429 76.74456 
z
" clip-path="url(#p4c974fe611)" style="fill: #6e3b87"/>
   </g>
   <g id="patch_89">
    <path d="M 349.070638 77.653941 
L 351.861206 77.653941 
L 351.861206 76.744689 
L 349.070638 76.744689 
z
" clip-path="url(#p4c974fe611)" style="fill: #6e3b87"/>
   </g>
   <g id="patch_90">
    <path d="M 352.558847 77.653941 
L 355.349415 77.653941 
L 355.349415 76.744832 
L 352.558847 76.744832 
z
" clip-path="url(#p4c974fe611)" style="fill: #6e3b87"/>
   </g>
   <g id="patch_91">
    <path d="M 356.047057 77.653941 
L 358.837624 77.653941 
L 358.837624 76.744991 
L 356.047057 76.744991 
z
" clip-path="url(#p4c974fe611)" style="fill: #6e3b87"/>
   </g>
   <g id="patch_92">
    <path d="M 359.535266 77.653941 
L 362.325833 77.653941 
L 362.325833 76.745167 
L 359.535266 76.745167 
z
" clip-path="url(#p4c974fe611)" style="fill: #6e3b87"/>
   </g>
   <g id="patch_93">
    <path d="M 363.023475 77.653941 
L 365.814042 77.653941 
L 365.814042 76.745359 
L 363.023475 76.745359 
z
" clip-path="url(#p4c974fe611)" style="fill: #6e3b87"/>
   </g>
   <g id="patch_94">
    <path d="M 366.511684 77.653941 
L 369.302252 77.653941 
L 369.302252 76.74557 
L 366.511684 76.74557 
z
" clip-path="url(#p4c974fe611)" style="fill: #6e3b87"/>
   </g>
   <g id="patch_95">
    <path d="M 369.999893 77.653941 
L 372.790461 77.653941 
L 372.790461 76.745799 
L 369.999893 76.745799 
z
" clip-path="url(#p4c974fe611)" style="fill: #6e3b87"/>
   </g>
   <g id="patch_96">
    <path d="M 373.488103 77.653941 
L 376.27867 77.653941 
L 376.27867 76.746048 
L 373.488103 76.746048 
z
" clip-path="url(#p4c974fe611)" style="fill: #6e3b87"/>
   </g>
   <g id="patch_97">
    <path d="M 376.976312 77.653941 
L 379.766879 77.653941 
L 379.766879 76.746317 
L 376.976312 76.746317 
z
" clip-path="url(#p4c974fe611)" style="fill: #6e3b87"/>
   </g>
   <g id="patch_98">
    <path d="M 380.464521 77.653941 
L 383.255088 77.653941 
L 383.255088 76.746608 
L 380.464521 76.746608 
z
" clip-path="url(#p4c974fe611)" style="fill: #6e3b87"/>
   </g>
   <g id="patch_99">
    <path d="M 383.95273 77.653941 
L 386.743298 77.653941 
L 386.743298 76.746922 
L 383.95273 76.746922 
z
" clip-path="url(#p4c974fe611)" style="fill: #6e3b87"/>
   </g>
   <g id="patch_100">
    <path d="M 387.440939 77.653941 
L 390.231507 77.653941 
L 390.231507 76.747261 
L 387.440939 76.747261 
z
" clip-path="url(#p4c974fe611)" style="fill: #6e3b87"/>
   </g>
   <g id="patch_101">
    <path d="M 390.929149 77.653941 
L 393.719716 77.653941 
L 393.719716 76.747626 
L 390.929149 76.747626 
z
" clip-path="url(#p4c974fe611)" style="fill: #6e3b87"/>
   </g>
   <g id="patch_102">
    <path d="M 394.417358 77.653941 
L 397.207925 77.653941 
L 397.207925 76.748019 
L 394.417358 76.748019 
z
" clip-path="url(#p4c974fe611)" style="fill: #6e3b87"/>
   </g>
   <g id="patch_103">
    <path d="M 397.905567 77.653941 
L 400.696134 77.653941 
L 400.696134 76.748442 
L 397.905567 76.748442 
z
" clip-path="url(#p4c974fe611)" style="fill: #6e3b87"/>
   </g>
   <g id="patch_104">
    <path d="M 401.393776 77.653941 
L 404.184344 77.653941 
L 404.184344 76.748896 
L 401.393776 76.748896 
z
" clip-path="url(#p4c974fe611)" style="fill: #6e3b87"/>
   </g>
   <g id="patch_105">
    <path d="M 404.881985 77.653941 
L 407.672553 77.653941 
L 407.672553 76.749385 
L 404.881985 76.749385 
z
" clip-path="url(#p4c974fe611)" style="fill: #6e3b87"/>
   </g>
   <g id="patch_106">
    <path d="M 408.370195 77.653941 
L 411.160762 77.653941 
L 411.160762 76.749911 
L 408.370195 76.749911 
z
" clip-path="url(#p4c974fe611)" style="fill: #6e3b87"/>
   </g>
   <g id="patch_107">
    <path d="M 411.858404 77.653941 
L 414.648971 77.653941 
L 414.648971 76.750476 
L 411.858404 76.750476 
z
" clip-path="url(#p4c974fe611)" style="fill: #6e3b87"/>
   </g>
   <g id="patch_108">
    <path d="M 415.346613 77.653941 
L 418.13718 77.653941 
L 418.13718 76.751085 
L 415.346613 76.751085 
z
" clip-path="url(#p4c974fe611)" style="fill: #6e3b87"/>
   </g>
   <g id="patch_109">
    <path d="M 418.834822 77.653941 
L 421.62539 77.653941 
L 421.62539 76.751741 
L 418.834822 76.751741 
z
" clip-path="url(#p4c974fe611)" style="fill: #6e3b87"/>
   </g>
   <g id="patch_110">
    <path d="M 422.323031 77.653941 
L 425.113599 77.653941 
L 425.113599 76.752447 
L 422.323031 76.752447 
z
" clip-path="url(#p4c974fe611)" style="fill: #6e3b87"/>
   </g>
   <g id="patch_111">
    <path d="M 425.811241 77.653941 
L 428.601808 77.653941 
L 428.601808 76.753209 
L 425.811241 76.753209 
z
" clip-path="url(#p4c974fe611)" style="fill: #6e3b87"/>
   </g>
   <g id="patch_112">
    <path d="M 429.29945 77.653941 
L 432.090017 77.653941 
L 432.090017 76.754032 
L 429.29945 76.754032 
z
" clip-path="url(#p4c974fe611)" style="fill: #6e3b87"/>
   </g>
   <g id="patch_113">
    <path d="M 432.787659 77.653941 
L 435.578226 77.653941 
L 435.578226 76.754921 
L 432.787659 76.754921 
z
" clip-path="url(#p4c974fe611)" style="fill: #6e3b87"/>
   </g>
   <g id="patch_114">
    <path d="M 436.275868 77.653941 
L 439.066436 77.653941 
L 439.066436 76.755884 
L 436.275868 76.755884 
z
" clip-path="url(#p4c974fe611)" style="fill: #6e3b87"/>
   </g>
   <g id="patch_115">
    <path d="M 439.764077 77.653941 
L 442.554645 77.653941 
L 442.554645 76.756926 
L 439.764077 76.756926 
z
" clip-path="url(#p4c974fe611)" style="fill: #6e3b87"/>
   </g>
   <g id="patch_116">
    <path d="M 443.252287 77.653941 
L 446.042854 77.653941 
L 446.042854 76.758058 
L 443.252287 76.758058 
z
" clip-path="url(#p4c974fe611)" style="fill: #6e3b87"/>
   </g>
   <g id="patch_117">
    <path d="M 446.740496 77.653941 
L 449.531063 77.653941 
L 449.531063 76.759288 
L 446.740496 76.759288 
z
" clip-path="url(#p4c974fe611)" style="fill: #6e3b87"/>
   </g>
   <g id="patch_118">
    <path d="M 450.228705 77.653941 
L 453.019272 77.653941 
L 453.019272 76.760628 
L 450.228705 76.760628 
z
" clip-path="url(#p4c974fe611)" style="fill: #6e3b87"/>
   </g>
   <g id="patch_119">
    <path d="M 453.716914 77.653941 
L 456.507482 77.653941 
L 456.507482 76.762089 
L 453.716914 76.762089 
z
" clip-path="url(#p4c974fe611)" style="fill: #6e3b87"/>
   </g>
   <g id="patch_120">
    <path d="M 457.205123 77.653941 
L 459.995691 77.653941 
L 459.995691 76.763687 
L 457.205123 76.763687 
z
" clip-path="url(#p4c974fe611)" style="fill: #6e3b87"/>
   </g>
   <g id="patch_121">
    <path d="M 460.693333 77.653941 
L 463.4839 77.653941 
L 463.4839 76.765439 
L 460.693333 76.765439 
z
" clip-path="url(#p4c974fe611)" style="fill: #6e3b87"/>
   </g>
   <g id="patch_122">
    <path d="M 464.181542 77.653941 
L 466.972109 77.653941 
L 466.972109 76.767363 
L 464.181542 76.767363 
z
" clip-path="url(#p4c974fe611)" style="fill: #6e3b87"/>
   </g>
   <g id="patch_123">
    <path d="M 467.669751 77.653941 
L 470.460318 77.653941 
L 470.460318 76.769483 
L 467.669751 76.769483 
z
" clip-path="url(#p4c974fe611)" style="fill: #6e3b87"/>
   </g>
   <g id="patch_124">
    <path d="M 471.15796 77.653941 
L 473.948528 77.653941 
L 473.948528 76.771826 
L 471.15796 76.771826 
z
" clip-path="url(#p4c974fe611)" style="fill: #6e3b87"/>
   </g>
   <g id="patch_125">
    <path d="M 474.646169 77.653941 
L 477.436737 77.653941 
L 477.436737 76.774421 
L 474.646169 76.774421 
z
" clip-path="url(#p4c974fe611)" style="fill: #6e3b87"/>
   </g>
   <g id="patch_126">
    <path d="M 478.134379 77.653941 
L 480.924946 77.653941 
L 480.924946 76.777308 
L 478.134379 76.777308 
z
" clip-path="url(#p4c974fe611)" style="fill: #6e3b87"/>
   </g>
   <g id="patch_127">
    <path d="M 481.622588 77.653941 
L 484.413155 77.653941 
L 484.413155 76.78053 
L 481.622588 76.78053 
z
" clip-path="url(#p4c974fe611)" style="fill: #6e3b87"/>
   </g>
   <g id="patch_128">
    <path d="M 485.110797 77.653941 
L 487.901364 77.653941 
L 487.901364 76.784141 
L 485.110797 76.784141 
z
" clip-path="url(#p4c974fe611)" style="fill: #6e3b87"/>
   </g>
   <g id="patch_129">
    <path d="M 488.599006 77.653941 
L 491.389574 77.653941 
L 491.389574 76.788204 
L 488.599006 76.788204 
z
" clip-path="url(#p4c974fe611)" style="fill: #6e3b87"/>
   </g>
   <g id="patch_130">
    <path d="M 492.087215 77.653941 
L 494.877783 77.653941 
L 494.877783 76.792799 
L 492.087215 76.792799 
z
" clip-path="url(#p4c974fe611)" style="fill: #6e3b87"/>
   </g>
   <g id="patch_131">
    <path d="M 495.575425 77.653941 
L 498.365992 77.653941 
L 498.365992 76.798021 
L 495.575425 76.798021 
z
" clip-path="url(#p4c974fe611)" style="fill: #6e3b87"/>
   </g>
   <g id="patch_132">
    <path d="M 499.063634 77.653941 
L 501.854201 77.653941 
L 501.854201 76.803989 
L 499.063634 76.803989 
z
" clip-path="url(#p4c974fe611)" style="fill: #6e3b87"/>
   </g>
   <g id="patch_133">
    <path d="M 502.551843 77.653941 
L 505.34241 77.653941 
L 505.34241 76.810854 
L 502.551843 76.810854 
z
" clip-path="url(#p4c974fe611)" style="fill: #6e3b87"/>
   </g>
   <g id="patch_134">
    <path d="M 506.040052 77.653941 
L 508.83062 77.653941 
L 508.83062 76.818803 
L 506.040052 76.818803 
z
" clip-path="url(#p4c974fe611)" style="fill: #6e3b87"/>
   </g>
   <g id="patch_135">
    <path d="M 509.528261 77.653941 
L 512.318829 77.653941 
L 512.318829 76.828078 
L 509.528261 76.828078 
z
" clip-path="url(#p4c974fe611)" style="fill: #6e3b87"/>
   </g>
   <g id="patch_136">
    <path d="M 513.016471 77.653941 
L 515.807038 77.653941 
L 515.807038 76.838993 
L 513.016471 76.838993 
z
" clip-path="url(#p4c974fe611)" style="fill: #6e3b87"/>
   </g>
   <g id="patch_137">
    <path d="M 516.50468 77.653941 
L 519.295247 77.653941 
L 519.295247 76.85196 
L 516.50468 76.85196 
z
" clip-path="url(#p4c974fe611)" style="fill: #6e3b87"/>
   </g>
   <g id="patch_138">
    <path d="M 519.992889 77.653941 
L 522.783456 77.653941 
L 522.783456 76.86753 
L 519.992889 76.86753 
z
" clip-path="url(#p4c974fe611)" style="fill: #6e3b87"/>
   </g>
   <g id="patch_139">
    <path d="M 523.481098 77.653941 
L 526.271666 77.653941 
L 526.271666 76.886458 
L 523.481098 76.886458 
z
" clip-path="url(#p4c974fe611)" style="fill: #6e3b87"/>
   </g>
   <g id="patch_140">
    <path d="M 526.969307 77.653941 
L 529.759875 77.653941 
L 529.759875 76.909793 
L 526.969307 76.909793 
z
" clip-path="url(#p4c974fe611)" style="fill: #6e3b87"/>
   </g>
   <g id="patch_141">
    <path d="M 530.457517 77.653941 
L 533.248084 77.653941 
L 533.248084 76.939037 
L 530.457517 76.939037 
z
" clip-path="url(#p4c974fe611)" style="fill: #6e3b87"/>
   </g>
   <g id="patch_142">
    <path d="M 533.945726 77.653941 
L 536.736293 77.653941 
L 536.736293 76.976402 
L 533.945726 76.976402 
z
" clip-path="url(#p4c974fe611)" style="fill: #6e3b87"/>
   </g>
   <g id="patch_143">
    <path d="M 537.433935 77.653941 
L 540.224502 77.653941 
L 540.224502 77.025257 
L 537.433935 77.025257 
z
" clip-path="url(#p4c974fe611)" style="fill: #6e3b87"/>
   </g>
   <g id="patch_144">
    <path d="M 540.922144 77.653941 
L 543.712712 77.653941 
L 543.712712 77.090964 
L 540.922144 77.090964 
z
" clip-path="url(#p4c974fe611)" style="fill: #6e3b87"/>
   </g>
   <g id="patch_145">
    <path d="M 544.410353 77.653941 
L 547.200921 77.653941 
L 547.200921 77.182505 
L 544.410353 77.182505 
z
" clip-path="url(#p4c974fe611)" style="fill: #6e3b87"/>
   </g>
   <g id="patch_146">
    <path d="M 547.898563 77.653941 
L 550.68913 77.653941 
L 550.68913 77.315969 
L 547.898563 77.315969 
z
" clip-path="url(#p4c974fe611)" style="fill: #6e3b87"/>
   </g>
   <g id="patch_147">
    <path d="M 551.386772 77.653941 
L 554.177339 77.653941 
L 554.177339 77.522796 
L 551.386772 77.522796 
z
" clip-path="url(#p4c974fe611)" style="fill: #6e3b87"/>
   </g>
   <g id="patch_148">
    <path d="M 554.874981 77.653941 
L 557.665548 77.653941 
L 557.665548 77.872328 
L 554.874981 77.872328 
z
" clip-path="url(#p4c974fe611)" style="fill: #6e3b87"/>
   </g>
   <g id="patch_149">
    <path d="M 558.36319 77.653941 
L 561.153758 77.653941 
L 561.153758 78.547628 
L 558.36319 78.547628 
z
" clip-path="url(#p4c974fe611)" style="fill: #6e3b87"/>
   </g>
   <g id="patch_150">
    <path d="M 561.8514 77.653941 
L 564.641967 77.653941 
L 564.641967 80.202161 
L 561.8514 80.202161 
z
" clip-path="url(#p4c974fe611)" style="fill: #6e3b87"/>
   </g>
   <g id="patch_151">
    <path d="M 565.339609 77.653941 
L 568.130176 77.653941 
L 568.130176 87.383781 
L 565.339609 87.383781 
z
" clip-path="url(#p4c974fe611)" style="fill: #6e3b87"/>
   </g>
   <g id="patch_152">
    <path d="M 568.827818 77.653941 
L 571.618385 77.653941 
L 571.618385 25.183599 
L 568.827818 25.183599 
z
" clip-path="url(#p4c974fe611)" style="fill: #6e3b87"/>
   </g>
   <g id="patch_153">
    <path d="M 572.316027 77.653941 
L 575.106594 77.653941 
L 575.106594 26.677641 
L 572.316027 26.677641 
z
" clip-path="url(#p4c974fe611)" style="fill: #6e3b87"/>
   </g>
   <g id="text_13">
    <!-- $f_m \geq 0$ -->
    <g style="fill: #343837" transform="translate(144.3364 63.787222)scale(0.1 -0.1)">
     <defs>
      <path id="URWPalladioL-Ital-66" d="M 1830 2470 
C 1856 2591 1901 2739 1939 2828 
L 1914 2873 
L 1869 2860 
C 1715 2822 1645 2816 1331 2816 
L 1229 2816 
L 1363 3532 
C 1466 4083 1645 4326 1939 4326 
C 2131 4326 2304 4230 2400 4076 
L 2464 4102 
C 2496 4204 2560 4403 2611 4531 
L 2643 4627 
C 2541 4672 2342 4710 2195 4710 
C 2125 4710 2022 4691 1971 4665 
C 1818 4595 1293 4204 1146 4051 
C 1005 3910 928 3718 858 3353 
L 762 2848 
C 499 2719 371 2668 211 2611 
L 179 2470 
L 698 2470 
L 640 2112 
C 448 864 211 -327 70 -768 
C -45 -1146 -237 -1344 -467 -1344 
C -615 -1344 -685 -1300 -800 -1159 
L -890 -1184 
C -915 -1332 -1005 -1639 -1037 -1697 
C -979 -1729 -883 -1748 -813 -1748 
C -551 -1748 -205 -1549 45 -1248 
C 435 -788 576 -340 1043 1907 
C 1062 1984 1114 2227 1165 2470 
L 1830 2470 
z
" transform="scale(0.015625)"/>
      <path id="CMSY10-15" d="M 4314 2092 
C 4403 2130 4442 2175 4442 2233 
C 4442 2297 4416 2336 4314 2381 
L 787 4051 
C 698 4096 672 4096 659 4096 
C 582 4096 531 4038 531 3967 
C 531 3890 582 3858 653 3826 
L 4013 2240 
L 666 653 
C 538 595 531 544 531 505 
C 531 435 589 377 659 377 
C 678 377 691 377 774 422 
L 4314 2092 
z
M 4218 -896 
C 4326 -896 4442 -896 4442 -768 
C 4442 -640 4307 -640 4211 -640 
L 762 -640 
C 666 -640 531 -640 531 -768 
C 531 -896 646 -896 755 -896 
L 4218 -896 
z
" transform="scale(0.015625)"/>
     </defs>
     <use xlink:href="#URWPalladioL-Ital-66" transform="scale(0.996264)"/>
     <use xlink:href="#URWPalladioL-Ital-6d" transform="translate(32.37858 -14.943915)scale(0.757155)"/>
     <use xlink:href="#CMSY10-15" transform="translate(121.649117 0)scale(1.038107)"/>
     <use xlink:href="#URWPalladioL-Roma-30" transform="translate(231.264746 0)scale(0.996264)"/>
    </g>
   </g>
   <g id="text_14">
    <!-- $f_m &lt; 0$ -->
    <g style="fill: #343837" transform="translate(423.393136 63.787222)scale(0.1 -0.1)">
     <defs>
      <path id="CMMI10-3c" d="M 4320 3193 
C 4397 3231 4442 3263 4442 3334 
C 4442 3404 4384 3462 4314 3462 
C 4294 3462 4282 3462 4198 3417 
L 653 1741 
C 582 1709 531 1677 531 1599 
C 531 1522 582 1490 653 1458 
L 4198 -218 
C 4282 -263 4294 -263 4314 -263 
C 4384 -263 4442 -205 4442 -135 
C 4442 -64 4397 -32 4320 6 
L 960 1599 
L 4320 3193 
z
" transform="scale(0.015625)"/>
     </defs>
     <use xlink:href="#URWPalladioL-Ital-66" transform="scale(0.996264)"/>
     <use xlink:href="#URWPalladioL-Ital-6d" transform="translate(32.37858 -14.943915)scale(0.757155)"/>
     <use xlink:href="#CMMI10-3c" transform="translate(121.649117 0)scale(1.038107)"/>
     <use xlink:href="#URWPalladioL-Roma-30" transform="translate(231.264746 0)scale(0.996264)"/>
    </g>
   </g>
   <g id="text_15">
    <!-- $m=N/2$ (Nyquist) -->
    <g style="fill: #007d4d" transform="translate(251.87976 14.328237)scale(0.1 -0.1)">
     <defs>
      <path id="CMR10-3d" d="M 4397 2111 
C 4493 2111 4614 2111 4614 2239 
C 4614 2368 4493 2368 4403 2368 
L 570 2368 
C 480 2368 358 2368 358 2239 
C 358 2111 480 2111 576 2111 
L 4397 2111 
z
M 4403 832 
C 4493 832 4614 832 4614 960 
C 4614 1088 4493 1088 4397 1088 
L 576 1088 
C 480 1088 358 1088 358 960 
C 358 832 480 832 570 832 
L 4403 832 
z
" transform="scale(0.015625)"/>
      <path id="URWPalladioL-Ital-4e" d="M 1517 4416 
L 998 4396 
L 934 4396 
L 845 4396 
C 826 4396 730 4403 582 4409 
L 480 4416 
L 448 4237 
L 672 4224 
C 781 4218 922 4173 992 4116 
C 1088 4040 1184 3919 1184 3869 
C 1184 3862 1184 3843 1178 3824 
C 1178 3818 1178 3805 1171 3792 
C 1165 3742 1158 3697 1152 3678 
L 589 667 
C 512 274 474 223 243 197 
L 45 178 
L 13 0 
L 723 19 
C 800 19 806 19 1427 0 
L 1459 178 
L 1190 197 
C 934 216 877 267 877 477 
C 877 528 883 598 896 667 
L 1408 3615 
L 3571 -64 
L 3891 -64 
L 4493 3459 
C 4627 4179 4640 4205 4877 4224 
L 5114 4237 
L 5146 4416 
L 5011 4416 
L 4442 4396 
L 3891 4416 
L 3770 4416 
L 3738 4237 
L 4038 4224 
C 4205 4217 4269 4173 4269 4071 
C 4269 4026 4250 3861 4237 3778 
L 3725 662 
L 1517 4416 
z
" transform="scale(0.015625)"/>
      <path id="URWPalladioL-Roma-2f" d="M 3322 4646 
L 2938 4646 
L 557 -762 
L 941 -762 
L 3322 4646 
z
" transform="scale(0.015625)"/>
      <path id="URWPalladioL-Roma-28" d="M 1926 -1242 
C 1466 -673 1299 -365 1133 211 
C 998 672 934 1158 934 1702 
C 934 2233 998 2688 1120 3104 
C 1286 3635 1459 3936 1926 4480 
L 1805 4646 
C 1139 4051 877 3699 634 3072 
C 467 2643 384 2188 384 1702 
C 384 1017 544 371 851 -205 
C 1075 -634 1280 -884 1805 -1377 
L 1926 -1242 
z
" transform="scale(0.015625)"/>
      <path id="URWPalladioL-Roma-4e" d="M 877 4396 
C 518 4403 461 4403 109 4416 
L 109 4223 
L 390 4204 
C 685 4185 717 4128 717 3633 
L 717 782 
C 717 287 685 230 390 211 
L 109 192 
L 109 0 
C 742 0 742 0 851 0 
C 947 19 947 19 1619 0 
L 1619 192 
L 1338 211 
C 1043 230 1011 287 1011 782 
L 1011 3722 
L 4038 -7 
L 4614 -109 
C 4614 -84 4614 -77 4608 -33 
C 4602 38 4595 89 4595 128 
L 4595 3633 
C 4595 4128 4627 4185 4922 4204 
L 5203 4223 
L 5203 4416 
C 4531 4396 4531 4396 4435 4396 
C 4326 4396 4326 4396 3693 4416 
L 3693 4223 
L 3974 4204 
C 4269 4185 4301 4128 4301 3633 
L 4301 642 
L 1222 4416 
L 877 4396 
z
" transform="scale(0.015625)"/>
      <path id="URWPalladioL-Roma-29" d="M 326 -1377 
C 768 -961 954 -749 1152 -436 
C 1542 185 1747 928 1747 1696 
C 1747 2188 1664 2643 1498 3072 
C 1254 3693 992 4045 326 4646 
L 205 4480 
C 672 3929 845 3629 1005 3104 
C 1133 2688 1197 2233 1197 1702 
C 1197 1158 1133 672 998 211 
C 832 -365 666 -673 205 -1242 
L 326 -1377 
z
" transform="scale(0.015625)"/>
     </defs>
     <use xlink:href="#URWPalladioL-Ital-6d" transform="scale(0.996264)"/>
     <use xlink:href="#CMR10-3d" transform="translate(107.673966 0)scale(1.038107)"/>
     <use xlink:href="#URWPalladioL-Ital-4e" transform="translate(222.021804 0)scale(0.996264)"/>
     <use xlink:href="#URWPalladioL-Roma-2f" transform="translate(305.110262 0)scale(0.996264)"/>
     <use xlink:href="#URWPalladioL-Roma-32" transform="translate(366.729166 0)scale(0.996264)"/>
     <use xlink:href="#URWPalladioL-Roma-28" transform="translate(441.448967 0)scale(0.996264)"/>
     <use xlink:href="#URWPalladioL-Roma-4e" transform="translate(474.624197 0)scale(0.996264)"/>
     <use xlink:href="#URWPalladioL-Roma-79" transform="translate(557.413104 0)scale(0.996264)"/>
     <use xlink:href="#URWPalladioL-Roma-71" transform="translate(612.804781 0)scale(0.996264)"/>
     <use xlink:href="#URWPalladioL-Roma-75" transform="translate(668.595413 0)scale(0.996264)"/>
     <use xlink:href="#URWPalladioL-Roma-69" transform="translate(728.669148 0)scale(0.996264)"/>
     <use xlink:href="#URWPalladioL-Roma-73" transform="translate(757.659509 0)scale(0.996264)"/>
     <use xlink:href="#URWPalladioL-Roma-74" transform="translate(799.900976 0)scale(0.996264)"/>
     <use xlink:href="#URWPalladioL-Roma-29" transform="translate(832.378063 0)scale(0.996264)"/>
    </g>
   </g>
  </g>
 </g>
 <defs>
  <clipPath id="p4c974fe611">
   <rect x="52.572856" y="21.625192" width="524.626664" height="78.284944"/>
  </clipPath>
 </defs>
</svg>