<?xml version="1.0" encoding="utf-8" standalone="no"?>
<!DOCTYPE svg PUBLIC "-//W3C//DTD SVG 1.1//EN"
  "http://www.w3.org/Graphics/SVG/1.1/DTD/svg11.dtd">
<svg xmlns:xlink="http://www.w3.org/1999/xlink" width="530.624168pt" height="348.145042pt" viewBox="0 0 530.624168 348.145042" xmlns="http://www.w3.org/2000/svg" version="1.1">
 <metadata>
  <rdf:RDF xmlns:dc="http://purl.org/dc/elements/1.1/" xmlns:cc="http://creativecommons.org/ns#" xmlns:rdf="http://www.w3.org/1999/02/22-rdf-syntax-ns#">
   <cc:Work>
    <dc:type rdf:resource="http://purl.org/dc/dcmitype/StillImage"/>
    <dc:date>2023-04-20T15:04:17.618300</dc:date>
    <dc:format>image/svg+xml</dc:format>
    <dc:creator>
     <cc:Agent>
      <dc:title>Matplotlib v3.5.2, https://matplotlib.org/</dc:title>
     </cc:Agent>
    </dc:creator>
   </cc:Work>
  </rdf:RDF>
 </metadata>
 <defs>
  <style type="text/css">*{stroke-linejoin: round; stroke-linecap: butt}</style>
 </defs>
 <g id="figure_1">
  <g id="patch_1">
   <path d="M 0 348.145042 
L 530.624168 348.145042 
L 530.624168 0 
L 0 0 
L 0 348.145042 
z
" style="fill: none"/>
  </g>
  <g id="axes_1">
   <g id="patch_2">
    <path d="M 38.62516 70.669249 
L 169.919277 70.669249 
L 169.919277 23.80718 
L 38.62516 23.80718 
L 38.62516 70.669249 
z
" style="fill: none"/>
   </g>
   <g id="line2d_1">
    <path d="M 38.62516 35.808442 
L 41.991676 35.808442 
L 41.991676 35.808442 
L 45.358191 35.808442 
L 45.358191 35.808442 
L 48.724707 35.808442 
L 48.724707 35.808442 
L 52.091223 35.808442 
L 52.091223 35.808442 
L 55.457739 35.808442 
L 55.457739 35.808442 
L 58.824255 35.808442 
L 58.824255 35.808442 
L 62.190771 35.808442 
L 62.190771 35.808442 
L 65.557286 35.808442 
L 65.557286 35.808442 
L 68.923802 35.808442 
L 68.923802 35.808442 
L 72.290318 35.808442 
L 72.290318 35.808442 
L 75.656834 35.808442 
L 75.656834 35.808442 
L 79.02335 35.808442 
L 79.02335 35.808442 
L 82.389866 35.808442 
L 82.389866 35.808442 
L 85.756382 35.808442 
L 85.756382 35.808442 
L 89.122897 35.808442 
L 89.122897 35.808442 
L 92.489413 35.808442 
L 92.489413 35.808442 
L 95.855929 35.808442 
L 95.855929 35.808442 
L 99.222445 35.808442 
L 99.222445 35.808442 
L 102.588961 35.808442 
L 102.588961 35.808442 
L 105.955477 35.808442 
L 105.955477 35.808442 
L 109.321992 35.808442 
L 109.321992 35.808442 
L 112.688508 35.808442 
L 112.688508 35.808442 
L 116.055024 35.808442 
L 116.055024 35.808442 
L 119.42154 35.808442 
L 119.42154 35.808442 
L 122.788056 35.808442 
L 122.788056 35.808442 
L 126.154572 35.808442 
L 126.154572 35.808442 
L 129.521087 35.808442 
L 129.521087 35.808442 
L 132.887603 35.808442 
L 132.887603 35.808442 
L 136.254119 35.808442 
L 136.254119 35.808442 
L 139.620635 35.808442 
L 139.620635 35.808442 
L 142.987151 35.808442 
L 142.987151 35.808442 
L 146.353667 35.808442 
L 146.353667 35.808442 
L 149.720182 35.808442 
L 149.720182 35.808442 
L 153.086698 35.808442 
L 153.086698 35.808442 
L 156.453214 35.808442 
L 156.453214 35.808442 
L 159.81973 35.808442 
L 159.81973 35.808442 
L 163.186246 35.808442 
L 163.186246 35.808442 
L 166.552762 35.808442 
L 166.552762 35.808442 
L 169.919277 35.808442 
L 169.919277 35.808442 
" clip-path="url(#p1c121cb05d)" style="fill: none; stroke: #dc2830; stroke-width: 2; stroke-linecap: round"/>
   </g>
   <g id="matplotlib.axis_1">
    <g id="xtick_1">
     <g id="line2d_2">
      <path d="M 38.62516 70.669249 
L 38.62516 23.80718 
" clip-path="url(#p1c121cb05d)" style="fill: none; stroke: #000000; stroke-opacity: 0.2; stroke-width: 0.5; stroke-linecap: round"/>
     </g>
     <g id="line2d_3">
      <defs>
       <path id="mefa62426d9" d="M 0 0 
L 0 3.5 
" style="stroke: #000000; stroke-opacity: 0.2; stroke-width: 0.5"/>
      </defs>
      <g>
       <use xlink:href="#mefa62426d9" x="38.62516" y="70.669249" style="fill-opacity: 0.2; stroke: #000000; stroke-opacity: 0.2; stroke-width: 0.5"/>
      </g>
     </g>
    </g>
    <g id="xtick_2">
     <g id="line2d_4">
      <path d="M 105.955477 70.669249 
L 105.955477 23.80718 
" clip-path="url(#p1c121cb05d)" style="fill: none; stroke: #000000; stroke-opacity: 0.2; stroke-width: 0.5; stroke-linecap: round"/>
     </g>
     <g id="line2d_5">
      <g>
       <use xlink:href="#mefa62426d9" x="105.955477" y="70.669249" style="fill-opacity: 0.2; stroke: #000000; stroke-opacity: 0.2; stroke-width: 0.5"/>
      </g>
     </g>
    </g>
   </g>
   <g id="matplotlib.axis_2">
    <g id="ytick_1">
     <g id="line2d_6">
      <path d="M 38.62516 47.238215 
L 169.919277 47.238215 
" clip-path="url(#p1c121cb05d)" style="fill: none; stroke: #000000; stroke-opacity: 0.2; stroke-width: 0.5; stroke-linecap: round"/>
     </g>
     <g id="line2d_7">
      <defs>
       <path id="m49fc20366f" d="M 0 0 
L -3.5 0 
" style="stroke: #000000; stroke-opacity: 0.2; stroke-width: 0.5"/>
      </defs>
      <g>
       <use xlink:href="#m49fc20366f" x="38.62516" y="47.238215" style="fill-opacity: 0.2; stroke: #000000; stroke-opacity: 0.2; stroke-width: 0.5"/>
      </g>
     </g>
    </g>
    <g id="text_1">
     <!-- $m=0$ -->
     <g transform="translate(15.753876 63.264337)rotate(-90)scale(0.12 -0.12)">
      <defs>
       <path id="URWPalladioL-Ital-6d" d="M 4672 651 
L 4506 542 
C 4320 421 4179 351 4115 351 
C 4070 351 4032 408 4032 479 
C 4032 542 4045 600 4077 734 
L 4557 2631 
C 4582 2739 4602 2841 4602 2892 
C 4602 3001 4538 3072 4435 3072 
C 4250 3072 4006 2956 3616 2682 
C 3213 2394 2989 2171 2675 1730 
L 2867 2605 
C 2893 2733 2912 2829 2912 2873 
C 2912 2995 2848 3072 2746 3072 
C 2554 3072 2259 2931 1907 2663 
C 1626 2445 1498 2311 1082 1749 
L 1293 2599 
C 1318 2701 1331 2797 1331 2873 
C 1331 2995 1274 3072 1184 3072 
C 1050 3072 806 2937 333 2599 
L 154 2471 
L 198 2343 
L 403 2477 
C 640 2624 659 2637 704 2637 
C 774 2637 819 2573 819 2477 
C 819 2152 557 919 294 6 
L 314 -64 
L 749 32 
L 890 683 
C 1043 1392 1216 1769 1568 2152 
C 1837 2445 2125 2637 2304 2637 
C 2349 2637 2374 2586 2374 2503 
C 2374 2279 2234 1551 1971 434 
L 1869 6 
L 1901 -64 
L 2342 32 
L 2477 715 
C 2579 1232 2797 1711 3078 2024 
C 3430 2413 3750 2637 3955 2637 
C 4006 2637 4038 2579 4038 2477 
C 4038 2324 4019 2235 3878 1679 
C 3776 1277 3667 894 3603 677 
C 3546 498 3520 332 3520 191 
C 3520 32 3590 -64 3712 -64 
C 3878 -64 4109 70 4736 536 
L 4672 651 
z
" transform="scale(0.015625)"/>
       <path id="CMR10-3d" d="M 4397 2111 
C 4493 2111 4614 2111 4614 2239 
C 4614 2368 4493 2368 4403 2368 
L 570 2368 
C 480 2368 358 2368 358 2239 
C 358 2111 480 2111 576 2111 
L 4397 2111 
z
M 4403 832 
C 4493 832 4614 832 4614 960 
C 4614 1088 4493 1088 4397 1088 
L 576 1088 
C 480 1088 358 1088 358 960 
C 358 832 480 832 570 832 
L 4403 832 
z
" transform="scale(0.015625)"/>
       <path id="URWPalladioL-Roma-30" d="M 1683 4416 
C 691 4416 186 3628 186 2076 
C 186 1326 320 679 544 365 
C 768 51 1126 -128 1523 -128 
C 2490 -128 2976 704 2976 2345 
C 2976 3749 2560 4416 1683 4416 
z
M 1568 4191 
C 2189 4191 2438 3563 2438 2025 
C 2438 660 2195 96 1606 96 
C 986 96 723 743 723 2307 
C 723 3660 960 4191 1568 4191 
z
" transform="scale(0.015625)"/>
      </defs>
      <use xlink:href="#URWPalladioL-Ital-6d" transform="scale(0.996264)"/>
      <use xlink:href="#CMR10-3d" transform="translate(107.673966 0)scale(1.038107)"/>
      <use xlink:href="#URWPalladioL-Roma-30" transform="translate(217.289595 0)scale(0.996264)"/>
     </g>
    </g>
   </g>
   <g id="line2d_8">
    <path d="M 38.62516 47.238215 
L 41.991676 47.238215 
L 41.991676 42.049207 
L 45.358191 42.049207 
L 45.358191 37.991334 
L 48.724707 37.991334 
L 48.724707 35.949162 
L 52.091223 35.949162 
L 52.091223 36.367855 
L 55.457739 36.367855 
L 55.457739 39.156145 
L 58.824255 39.156145 
L 58.824255 43.706221 
L 62.190771 43.706221 
L 62.190771 49.026225 
L 65.557286 49.026225 
L 65.557286 53.956467 
L 68.923802 53.956467 
L 68.923802 57.422217 
L 72.290318 57.422217 
L 72.290318 58.667988 
L 75.656834 58.667988 
L 75.656834 57.422217 
L 79.02335 57.422217 
L 79.02335 53.956467 
L 82.389866 53.956467 
L 82.389866 49.026225 
L 85.756382 49.026225 
L 85.756382 43.706221 
L 89.122897 43.706221 
L 89.122897 39.156145 
L 92.489413 39.156145 
L 92.489413 36.367855 
L 95.855929 36.367855 
L 95.855929 35.949162 
L 99.222445 35.949162 
L 99.222445 37.991334 
L 102.588961 37.991334 
L 102.588961 42.049207 
L 105.955477 42.049207 
L 105.955477 47.238215 
L 109.321992 47.238215 
L 109.321992 52.427223 
L 112.688508 52.427223 
L 112.688508 56.485095 
L 116.055024 56.485095 
L 116.055024 58.527268 
L 119.42154 58.527268 
L 119.42154 58.108575 
L 122.788056 58.108575 
L 122.788056 55.320285 
L 126.154572 55.320285 
L 126.154572 50.770209 
L 129.521087 50.770209 
L 129.521087 45.450205 
L 132.887603 45.450205 
L 132.887603 40.519963 
L 136.254119 40.519963 
L 136.254119 37.054213 
L 139.620635 37.054213 
L 139.620635 35.808442 
L 142.987151 35.808442 
L 142.987151 37.054213 
L 146.353667 37.054213 
L 146.353667 40.519963 
L 149.720182 40.519963 
L 149.720182 45.450205 
L 153.086698 45.450205 
L 153.086698 50.770209 
L 156.453214 50.770209 
L 156.453214 55.320285 
L 159.81973 55.320285 
L 159.81973 58.108575 
L 163.186246 58.108575 
L 163.186246 58.527268 
L 166.552762 58.527268 
L 166.552762 56.485095 
L 169.919277 56.485095 
L 169.919277 52.427223 
" clip-path="url(#p1c121cb05d)" style="fill: none; stroke: #0271ae; stroke-width: 2; stroke-linecap: round"/>
   </g>
   <g id="text_2">
    <!-- $x[n]$ and $y_m[n]$ -->
    <g transform="translate(60.389864 17.80718)scale(0.14 -0.14)">
     <defs>
      <path id="URWPalladioL-Ital-78" d="M 134 567 
C 134 440 122 358 83 153 
C 70 76 64 57 58 12 
C 154 -39 256 -64 333 -64 
C 544 -64 794 121 992 421 
L 1478 1164 
L 1549 726 
C 1632 185 1779 -64 2010 -64 
C 2150 -64 2355 44 2560 230 
L 2874 510 
L 2816 631 
C 2586 440 2426 345 2323 345 
C 2227 345 2144 409 2080 536 
C 2022 656 1952 891 1920 1075 
L 1805 1716 
L 2029 2027 
C 2330 2439 2502 2585 2701 2585 
C 2803 2585 2880 2534 2912 2439 
L 3002 2465 
L 3098 3007 
C 3021 3052 2963 3072 2906 3072 
C 2650 3072 2394 2841 1997 2255 
L 1760 1906 
L 1722 2211 
C 1645 2841 1472 3072 1094 3072 
C 928 3072 787 3020 730 2937 
L 358 2408 
L 467 2344 
C 659 2560 787 2649 909 2649 
C 1120 2649 1261 2389 1370 1767 
L 1440 1373 
L 1184 980 
C 909 555 691 352 512 352 
C 416 352 346 377 333 409 
L 262 586 
L 134 567 
z
" transform="scale(0.015625)"/>
      <path id="CMR10-5b" d="M 1632 -1601 
L 1632 -1344 
L 1011 -1344 
L 1011 4544 
L 1632 4544 
L 1632 4800 
L 755 4800 
L 755 -1601 
L 1632 -1601 
z
" transform="scale(0.015625)"/>
      <path id="URWPalladioL-Ital-6e" d="M 154 2471 
L 198 2343 
L 403 2477 
C 640 2624 659 2637 704 2637 
C 774 2637 819 2573 819 2477 
C 819 2152 557 919 294 6 
L 339 -64 
C 499 -20 646 19 787 44 
C 909 849 1043 1264 1338 1705 
C 1683 2241 2163 2637 2451 2637 
C 2522 2637 2560 2579 2560 2484 
C 2560 2369 2541 2235 2490 2030 
L 2157 677 
C 2099 440 2074 293 2074 191 
C 2074 32 2144 -64 2266 -64 
C 2432 -64 2662 70 3290 536 
L 3226 651 
L 3059 542 
C 2874 421 2733 351 2669 351 
C 2624 351 2586 408 2586 479 
C 2586 511 2592 581 2598 606 
L 3021 2369 
C 3066 2554 3091 2733 3091 2841 
C 3091 2988 3021 3072 2893 3072 
C 2624 3072 2182 2829 1805 2477 
C 1562 2254 1382 2037 1050 1571 
L 1293 2599 
C 1318 2714 1331 2790 1331 2860 
C 1331 2995 1280 3072 1184 3072 
C 1050 3072 800 2931 333 2599 
L 154 2471 
z
" transform="scale(0.015625)"/>
      <path id="CMR10-5d" d="M 1018 4800 
L 141 4800 
L 141 4544 
L 762 4544 
L 762 -1344 
L 141 -1344 
L 141 -1601 
L 1018 -1601 
L 1018 4800 
z
" transform="scale(0.015625)"/>
      <path id="URWPalladioL-Roma-61" d="M 2074 544 
L 2042 0 
C 2458 0 2458 0 2541 0 
C 2573 19 2733 12 3014 0 
L 3014 192 
L 2765 204 
C 2611 211 2586 262 2586 576 
L 2586 1751 
C 2586 2688 2317 3027 1574 3027 
C 1299 3027 1043 2956 800 2809 
L 461 2604 
L 461 2187 
L 627 2142 
L 710 2341 
C 845 2642 909 2688 1203 2688 
C 1805 2688 2054 2450 2074 1866 
L 1440 1751 
C 570 1590 205 1289 205 730 
C 205 224 506 -64 1011 -64 
C 1126 -64 1235 -45 1280 -13 
L 2074 544 
z
M 2074 806 
C 1888 544 1485 300 1235 300 
C 979 300 755 537 755 812 
C 755 1049 883 1273 1075 1395 
C 1235 1491 1587 1580 2074 1651 
L 2074 806 
z
" transform="scale(0.015625)"/>
      <path id="URWPalladioL-Roma-6e" d="M 2624 0 
C 3014 0 3021 0 3130 0 
C 3219 19 3219 19 3661 0 
L 3661 192 
L 3398 211 
C 3181 223 3162 262 3162 670 
L 3162 1902 
C 3162 2649 2810 3014 2093 3014 
C 1856 3014 1722 2969 1587 2854 
L 1101 2432 
L 1101 2988 
L 1043 3008 
C 717 2873 384 2784 45 2746 
L 45 2568 
L 282 2568 
C 538 2568 563 2523 563 2103 
L 563 669 
C 563 268 544 223 326 211 
L 38 192 
L 38 0 
C 474 -7 646 0 832 0 
C 1018 19 1190 12 1626 0 
L 1626 192 
L 1338 211 
C 1120 223 1101 268 1101 670 
L 1101 2023 
C 1101 2311 1523 2624 1914 2624 
C 2342 2624 2624 2304 2624 1813 
L 2624 0 
z
" transform="scale(0.015625)"/>
      <path id="URWPalladioL-Roma-64" d="M 2637 2803 
C 2278 2956 2099 3008 1875 3008 
C 1702 3008 1549 2969 1389 2886 
L 826 2592 
C 461 2400 224 1934 224 1392 
C 224 881 397 460 710 204 
C 928 19 1229 -64 1645 -64 
C 1773 -64 1920 -39 1952 -13 
L 2662 581 
L 2630 0 
C 2944 -7 3046 0 3123 0 
C 3174 0 3264 0 3398 -7 
C 3443 6 3571 6 3706 0 
L 3706 192 
L 3411 211 
C 3194 224 3174 268 3174 672 
L 3174 4614 
L 3117 4665 
C 2835 4557 2624 4505 2118 4429 
L 2118 4249 
L 2477 4249 
C 2592 4249 2637 4179 2637 3987 
L 2637 2803 
z
M 2637 1424 
C 2637 1009 2624 945 2541 798 
C 2362 498 2048 300 1747 300 
C 1184 300 781 843 781 1602 
C 781 2298 1126 2707 1702 2707 
C 1946 2707 2202 2624 2426 2470 
C 2560 2381 2637 2298 2637 2247 
L 2637 1424 
z
" transform="scale(0.015625)"/>
      <path id="URWPalladioL-Ital-79" d="M -45 -1132 
C -51 -1176 -51 -1214 -51 -1245 
C -51 -1517 186 -1741 474 -1741 
C 1152 -1741 1856 -955 2234 216 
L 3136 3014 
L 3066 3072 
C 2880 3001 2733 2963 2592 2950 
L 2368 2111 
C 2291 1812 2067 1348 1856 1036 
C 1632 712 1318 432 1178 432 
C 1101 432 1043 578 1050 737 
L 1056 820 
L 1152 2053 
C 1165 2250 1178 2492 1178 2670 
C 1178 2956 1133 3072 1024 3072 
C 941 3072 851 3027 544 2816 
L 19 2460 
L 90 2346 
L 410 2537 
L 435 2556 
C 499 2594 544 2613 570 2613 
C 659 2613 710 2492 710 2282 
C 710 2276 710 2238 704 2187 
L 595 642 
L 589 388 
C 589 121 704 -64 864 -64 
C 1101 -64 1638 477 2118 1195 
L 1805 108 
C 1478 -1012 1158 -1472 710 -1472 
C 486 -1472 314 -1302 314 -1081 
C 314 -1049 320 -999 326 -942 
L 262 -917 
L -45 -1132 
z
" transform="scale(0.015625)"/>
     </defs>
     <use xlink:href="#URWPalladioL-Ital-78" transform="scale(0.996264)"/>
     <use xlink:href="#CMR10-5b" transform="translate(53.299136 0)scale(1.038107)"/>
     <use xlink:href="#URWPalladioL-Ital-6e" transform="translate(84.581835 0)scale(0.996264)"/>
     <use xlink:href="#CMR10-5d" transform="translate(142.464796 0)scale(1.038107)"/>
     <use xlink:href="#URWPalladioL-Roma-61" transform="translate(197.408795 0)scale(0.996264)"/>
     <use xlink:href="#URWPalladioL-Roma-6e" transform="translate(247.221996 0)scale(0.996264)"/>
     <use xlink:href="#URWPalladioL-Roma-64" transform="translate(305.204057 0)scale(0.996264)"/>
     <use xlink:href="#URWPalladioL-Ital-79" transform="translate(392.227587 0)scale(0.996264)"/>
     <use xlink:href="#URWPalladioL-Ital-6d" transform="translate(444.23252 -14.943915)scale(0.757155)"/>
     <use xlink:href="#CMR10-5b" transform="translate(505.829123 0)scale(1.038107)"/>
     <use xlink:href="#URWPalladioL-Ital-6e" transform="translate(537.111822 0)scale(0.996264)"/>
     <use xlink:href="#CMR10-5d" transform="translate(594.994783 0)scale(1.038107)"/>
    </g>
   </g>
  </g>
  <g id="axes_2">
   <g id="patch_3">
    <path d="M 196.178101 70.669249 
L 327.472219 70.669249 
L 327.472219 23.80718 
L 196.178101 23.80718 
L 196.178101 70.669249 
z
" style="fill: none"/>
   </g>
   <g id="matplotlib.axis_3">
    <g id="xtick_3">
     <g id="line2d_9">
      <path d="M 196.178101 70.669249 
L 196.178101 23.80718 
" clip-path="url(#p1e9120d283)" style="fill: none; stroke: #000000; stroke-opacity: 0.2; stroke-width: 0.5; stroke-linecap: round"/>
     </g>
     <g id="line2d_10">
      <g>
       <use xlink:href="#mefa62426d9" x="196.178101" y="70.669249" style="fill-opacity: 0.2; stroke: #000000; stroke-opacity: 0.2; stroke-width: 0.5"/>
      </g>
     </g>
    </g>
    <g id="xtick_4">
     <g id="line2d_11">
      <path d="M 263.508418 70.669249 
L 263.508418 23.80718 
" clip-path="url(#p1e9120d283)" style="fill: none; stroke: #000000; stroke-opacity: 0.2; stroke-width: 0.5; stroke-linecap: round"/>
     </g>
     <g id="line2d_12">
      <g>
       <use xlink:href="#mefa62426d9" x="263.508418" y="70.669249" style="fill-opacity: 0.2; stroke: #000000; stroke-opacity: 0.2; stroke-width: 0.5"/>
      </g>
     </g>
    </g>
   </g>
   <g id="matplotlib.axis_4">
    <g id="ytick_2">
     <g id="line2d_13">
      <path d="M 196.178101 47.238215 
L 327.472219 47.238215 
" clip-path="url(#p1e9120d283)" style="fill: none; stroke: #000000; stroke-opacity: 0.2; stroke-width: 0.5; stroke-linecap: round"/>
     </g>
     <g id="line2d_14">
      <g>
       <use xlink:href="#m49fc20366f" x="196.178101" y="47.238215" style="fill-opacity: 0.2; stroke: #000000; stroke-opacity: 0.2; stroke-width: 0.5"/>
      </g>
     </g>
    </g>
   </g>
   <g id="line2d_15">
    <path d="M 196.178101 47.238215 
L 199.544617 47.238215 
L 199.544617 42.172754 
L 202.911133 42.172754 
L 202.911133 38.211498 
L 206.277648 38.211498 
L 206.277648 36.217948 
L 209.644164 36.217948 
L 209.644164 36.626673 
L 213.01068 36.626673 
L 213.01068 39.348575 
L 216.377196 39.348575 
L 216.377196 43.790316 
L 219.743712 43.790316 
L 219.743712 48.983654 
L 223.110228 48.983654 
L 223.110228 53.796509 
L 226.476744 53.796509 
L 226.476744 57.179741 
L 229.843259 57.179741 
L 229.843259 58.39585 
L 233.209775 58.39585 
L 233.209775 57.179741 
L 236.576291 57.179741 
L 236.576291 53.796509 
L 239.942807 53.796509 
L 239.942807 48.983654 
L 243.309323 48.983654 
L 243.309323 43.790316 
L 246.675839 43.790316 
L 246.675839 39.348575 
L 250.042354 39.348575 
L 250.042354 36.626673 
L 253.40887 36.626673 
L 253.40887 36.217948 
L 256.775386 36.217948 
L 256.775386 38.211498 
L 260.141902 38.211498 
L 260.141902 42.172754 
L 263.508418 42.172754 
L 263.508418 47.238215 
L 266.874934 47.238215 
L 266.874934 52.303675 
L 270.241449 52.303675 
L 270.241449 56.264932 
L 273.607965 56.264932 
L 273.607965 58.258481 
L 276.974481 58.258481 
L 276.974481 57.849757 
L 280.340997 57.849757 
L 280.340997 55.127855 
L 283.707513 55.127855 
L 283.707513 50.686114 
L 287.074029 50.686114 
L 287.074029 45.492776 
L 290.440544 45.492776 
L 290.440544 40.679921 
L 293.80706 40.679921 
L 293.80706 37.296689 
L 297.173576 37.296689 
L 297.173576 36.080579 
L 300.540092 36.080579 
L 300.540092 37.296689 
L 303.906608 37.296689 
L 303.906608 40.679921 
L 307.273124 40.679921 
L 307.273124 45.492776 
L 310.639639 45.492776 
L 310.639639 50.686114 
L 314.006155 50.686114 
L 314.006155 55.127855 
L 317.372671 55.127855 
L 317.372671 57.849757 
L 320.739187 57.849757 
L 320.739187 58.258481 
L 324.105703 58.258481 
L 324.105703 56.264932 
L 327.472219 56.264932 
L 327.472219 52.303675 
" clip-path="url(#p1e9120d283)" style="fill: none; stroke: #6e3b87; stroke-width: 2; stroke-linecap: round"/>
   </g>
   <g id="text_3">
    <!-- $x[n] \cdot y_m[n]$ -->
    <g transform="translate(228.334592 17.80718)scale(0.14 -0.14)">
     <defs>
      <path id="CMSY10-1" d="M 1229 1619 
C 1229 1804 1075 1958 890 1958 
C 704 1958 550 1804 550 1619 
C 550 1433 704 1280 890 1280 
C 1075 1280 1229 1433 1229 1619 
z
" transform="scale(0.015625)"/>
     </defs>
     <use xlink:href="#URWPalladioL-Ital-78" transform="scale(0.996264)"/>
     <use xlink:href="#CMR10-5b" transform="translate(53.299136 0)scale(1.038107)"/>
     <use xlink:href="#URWPalladioL-Ital-6e" transform="translate(84.581835 0)scale(0.996264)"/>
     <use xlink:href="#CMR10-5d" transform="translate(142.464796 0)scale(1.038107)"/>
     <use xlink:href="#CMSY10-1" transform="translate(193.119248 0)scale(1.038107)"/>
     <use xlink:href="#URWPalladioL-Ital-79" transform="translate(243.7737 0)scale(0.996264)"/>
     <use xlink:href="#URWPalladioL-Ital-6d" transform="translate(295.778632 -14.943915)scale(0.757155)"/>
     <use xlink:href="#CMR10-5b" transform="translate(357.375236 0)scale(1.038107)"/>
     <use xlink:href="#URWPalladioL-Ital-6e" transform="translate(388.657935 0)scale(0.996264)"/>
     <use xlink:href="#CMR10-5d" transform="translate(446.540895 0)scale(1.038107)"/>
    </g>
   </g>
  </g>
  <g id="axes_3">
   <g id="patch_4">
    <path d="M 38.62516 126.903732 
L 169.919277 126.903732 
L 169.919277 80.041663 
L 38.62516 80.041663 
L 38.62516 126.903732 
z
" style="fill: none"/>
   </g>
   <g id="line2d_16">
    <path d="M 38.62516 92.042925 
L 41.991676 92.042925 
L 41.991676 92.183644 
L 45.358191 92.183644 
L 45.358191 92.602338 
L 48.724707 92.602338 
L 48.724707 93.288695 
L 52.091223 93.288695 
L 52.091223 94.225817 
L 55.457739 94.225817 
L 55.457739 95.390628 
L 58.824255 95.390628 
L 58.824255 96.754446 
L 62.190771 96.754446 
L 62.190771 98.283689 
L 65.557286 98.283689 
L 65.557286 99.940704 
L 68.923802 99.940704 
L 68.923802 101.684687 
L 72.290318 101.684687 
L 72.290318 103.472698 
L 75.656834 103.472698 
L 75.656834 105.260708 
L 79.02335 105.260708 
L 79.02335 107.004692 
L 82.389866 107.004692 
L 82.389866 108.661706 
L 85.756382 108.661706 
L 85.756382 110.19095 
L 89.122897 110.19095 
L 89.122897 111.554768 
L 92.489413 111.554768 
L 92.489413 112.719578 
L 95.855929 112.719578 
L 95.855929 113.6567 
L 99.222445 113.6567 
L 99.222445 114.343058 
L 102.588961 114.343058 
L 102.588961 114.761751 
L 105.955477 114.761751 
L 105.955477 114.902471 
L 109.321992 114.902471 
L 109.321992 114.761751 
L 112.688508 114.761751 
L 112.688508 114.343058 
L 116.055024 114.343058 
L 116.055024 113.6567 
L 119.42154 113.6567 
L 119.42154 112.719578 
L 122.788056 112.719578 
L 122.788056 111.554768 
L 126.154572 111.554768 
L 126.154572 110.19095 
L 129.521087 110.19095 
L 129.521087 108.661706 
L 132.887603 108.661706 
L 132.887603 107.004692 
L 136.254119 107.004692 
L 136.254119 105.260708 
L 139.620635 105.260708 
L 139.620635 103.472698 
L 142.987151 103.472698 
L 142.987151 101.684687 
L 146.353667 101.684687 
L 146.353667 99.940704 
L 149.720182 99.940704 
L 149.720182 98.283689 
L 153.086698 98.283689 
L 153.086698 96.754446 
L 156.453214 96.754446 
L 156.453214 95.390628 
L 159.81973 95.390628 
L 159.81973 94.225817 
L 163.186246 94.225817 
L 163.186246 93.288695 
L 166.552762 93.288695 
L 166.552762 92.602338 
L 169.919277 92.602338 
L 169.919277 92.183644 
" clip-path="url(#pae8c84657e)" style="fill: none; stroke: #dc2830; stroke-width: 2; stroke-linecap: round"/>
   </g>
   <g id="matplotlib.axis_5">
    <g id="xtick_5">
     <g id="line2d_17">
      <path d="M 38.62516 126.903732 
L 38.62516 80.041663 
" clip-path="url(#pae8c84657e)" style="fill: none; stroke: #000000; stroke-opacity: 0.2; stroke-width: 0.5; stroke-linecap: round"/>
     </g>
     <g id="line2d_18">
      <g>
       <use xlink:href="#mefa62426d9" x="38.62516" y="126.903732" style="fill-opacity: 0.2; stroke: #000000; stroke-opacity: 0.2; stroke-width: 0.5"/>
      </g>
     </g>
    </g>
    <g id="xtick_6">
     <g id="line2d_19">
      <path d="M 105.955477 126.903732 
L 105.955477 80.041663 
" clip-path="url(#pae8c84657e)" style="fill: none; stroke: #000000; stroke-opacity: 0.2; stroke-width: 0.5; stroke-linecap: round"/>
     </g>
     <g id="line2d_20">
      <g>
       <use xlink:href="#mefa62426d9" x="105.955477" y="126.903732" style="fill-opacity: 0.2; stroke: #000000; stroke-opacity: 0.2; stroke-width: 0.5"/>
      </g>
     </g>
    </g>
   </g>
   <g id="matplotlib.axis_6">
    <g id="ytick_3">
     <g id="line2d_21">
      <path d="M 38.62516 103.472698 
L 169.919277 103.472698 
" clip-path="url(#pae8c84657e)" style="fill: none; stroke: #000000; stroke-opacity: 0.2; stroke-width: 0.5; stroke-linecap: round"/>
     </g>
     <g id="line2d_22">
      <g>
       <use xlink:href="#m49fc20366f" x="38.62516" y="103.472698" style="fill-opacity: 0.2; stroke: #000000; stroke-opacity: 0.2; stroke-width: 0.5"/>
      </g>
     </g>
    </g>
    <g id="text_4">
     <!-- $m=1$ -->
     <g transform="translate(15.753876 119.49882)rotate(-90)scale(0.12 -0.12)">
      <defs>
       <path id="URWPalladioL-Roma-31" d="M 429 3571 
L 493 3571 
L 1318 3942 
C 1325 3949 1331 3949 1338 3949 
C 1376 3949 1389 3891 1389 3737 
L 1389 633 
C 1389 300 1318 230 973 211 
L 614 192 
L 614 0 
C 1600 0 1600 0 1670 0 
C 1754 0 1894 0 2112 -7 
C 2189 6 2413 6 2675 0 
L 2675 192 
L 2342 211 
C 1990 229 1926 299 1926 628 
L 1926 4383 
L 1837 4416 
C 1421 4199 966 4009 384 3807 
L 429 3571 
z
" transform="scale(0.015625)"/>
      </defs>
      <use xlink:href="#URWPalladioL-Ital-6d" transform="scale(0.996264)"/>
      <use xlink:href="#CMR10-3d" transform="translate(107.673966 0)scale(1.038107)"/>
      <use xlink:href="#URWPalladioL-Roma-31" transform="translate(217.289595 0)scale(0.996264)"/>
     </g>
    </g>
   </g>
   <g id="line2d_23">
    <path d="M 38.62516 103.472698 
L 41.991676 103.472698 
L 41.991676 98.283689 
L 45.358191 98.283689 
L 45.358191 94.225817 
L 48.724707 94.225817 
L 48.724707 92.183644 
L 52.091223 92.183644 
L 52.091223 92.602338 
L 55.457739 92.602338 
L 55.457739 95.390628 
L 58.824255 95.390628 
L 58.824255 99.940704 
L 62.190771 99.940704 
L 62.190771 105.260708 
L 65.557286 105.260708 
L 65.557286 110.19095 
L 68.923802 110.19095 
L 68.923802 113.6567 
L 72.290318 113.6567 
L 72.290318 114.902471 
L 75.656834 114.902471 
L 75.656834 113.6567 
L 79.02335 113.6567 
L 79.02335 110.19095 
L 82.389866 110.19095 
L 82.389866 105.260708 
L 85.756382 105.260708 
L 85.756382 99.940704 
L 89.122897 99.940704 
L 89.122897 95.390628 
L 92.489413 95.390628 
L 92.489413 92.602338 
L 95.855929 92.602338 
L 95.855929 92.183644 
L 99.222445 92.183644 
L 99.222445 94.225817 
L 102.588961 94.225817 
L 102.588961 98.283689 
L 105.955477 98.283689 
L 105.955477 103.472698 
L 109.321992 103.472698 
L 109.321992 108.661706 
L 112.688508 108.661706 
L 112.688508 112.719578 
L 116.055024 112.719578 
L 116.055024 114.761751 
L 119.42154 114.761751 
L 119.42154 114.343058 
L 122.788056 114.343058 
L 122.788056 111.554768 
L 126.154572 111.554768 
L 126.154572 107.004692 
L 129.521087 107.004692 
L 129.521087 101.684687 
L 132.887603 101.684687 
L 132.887603 96.754446 
L 136.254119 96.754446 
L 136.254119 93.288695 
L 139.620635 93.288695 
L 139.620635 92.042925 
L 142.987151 92.042925 
L 142.987151 93.288695 
L 146.353667 93.288695 
L 146.353667 96.754446 
L 149.720182 96.754446 
L 149.720182 101.684687 
L 153.086698 101.684687 
L 153.086698 107.004692 
L 156.453214 107.004692 
L 156.453214 111.554768 
L 159.81973 111.554768 
L 159.81973 114.343058 
L 163.186246 114.343058 
L 163.186246 114.761751 
L 166.552762 114.761751 
L 166.552762 112.719578 
L 169.919277 112.719578 
L 169.919277 108.661706 
" clip-path="url(#pae8c84657e)" style="fill: none; stroke: #0271ae; stroke-width: 2; stroke-linecap: round"/>
   </g>
  </g>
  <g id="axes_4">
   <g id="patch_5">
    <path d="M 196.178101 126.903732 
L 327.472219 126.903732 
L 327.472219 80.041663 
L 196.178101 80.041663 
L 196.178101 126.903732 
z
" style="fill: none"/>
   </g>
   <g id="matplotlib.axis_7">
    <g id="xtick_7">
     <g id="line2d_24">
      <path d="M 196.178101 126.903732 
L 196.178101 80.041663 
" clip-path="url(#p54b7dd3929)" style="fill: none; stroke: #000000; stroke-opacity: 0.2; stroke-width: 0.5; stroke-linecap: round"/>
     </g>
     <g id="line2d_25">
      <g>
       <use xlink:href="#mefa62426d9" x="196.178101" y="126.903732" style="fill-opacity: 0.2; stroke: #000000; stroke-opacity: 0.2; stroke-width: 0.5"/>
      </g>
     </g>
    </g>
    <g id="xtick_8">
     <g id="line2d_26">
      <path d="M 263.508418 126.903732 
L 263.508418 80.041663 
" clip-path="url(#p54b7dd3929)" style="fill: none; stroke: #000000; stroke-opacity: 0.2; stroke-width: 0.5; stroke-linecap: round"/>
     </g>
     <g id="line2d_27">
      <g>
       <use xlink:href="#mefa62426d9" x="263.508418" y="126.903732" style="fill-opacity: 0.2; stroke: #000000; stroke-opacity: 0.2; stroke-width: 0.5"/>
      </g>
     </g>
    </g>
   </g>
   <g id="matplotlib.axis_8">
    <g id="ytick_4">
     <g id="line2d_28">
      <path d="M 196.178101 103.472698 
L 327.472219 103.472698 
" clip-path="url(#p54b7dd3929)" style="fill: none; stroke: #000000; stroke-opacity: 0.2; stroke-width: 0.5; stroke-linecap: round"/>
     </g>
     <g id="line2d_29">
      <g>
       <use xlink:href="#m49fc20366f" x="196.178101" y="103.472698" style="fill-opacity: 0.2; stroke: #000000; stroke-opacity: 0.2; stroke-width: 0.5"/>
      </g>
     </g>
    </g>
   </g>
   <g id="line2d_30">
    <path d="M 196.178101 103.472698 
L 199.544617 103.472698 
L 199.544617 98.469601 
L 202.911133 98.469601 
L 202.911133 94.88778 
L 206.277648 94.88778 
L 206.277648 93.653568 
L 209.644164 93.653568 
L 209.644164 94.88778 
L 213.01068 94.88778 
L 213.01068 97.89388 
L 216.377196 97.89388 
L 216.377196 101.446074 
L 219.743712 101.446074 
L 219.743712 104.26511 
L 223.110228 104.26511 
L 223.110228 105.499322 
L 226.476744 105.499322 
L 226.476744 105.027895 
L 229.843259 105.027895 
L 229.843259 103.472698 
L 233.209775 103.472698 
L 233.209775 101.9175 
L 236.576291 101.9175 
L 236.576291 101.446074 
L 239.942807 101.446074 
L 239.942807 102.680285 
L 243.309323 102.680285 
L 243.309323 105.499322 
L 246.675839 105.499322 
L 246.675839 109.051515 
L 250.042354 109.051515 
L 250.042354 112.057615 
L 253.40887 112.057615 
L 253.40887 113.291827 
L 256.775386 113.291827 
L 256.775386 112.057615 
L 260.141902 112.057615 
L 260.141902 108.475794 
L 263.508418 108.475794 
L 263.508418 103.472698 
L 266.874934 103.472698 
L 266.874934 98.469601 
L 270.241449 98.469601 
L 270.241449 94.88778 
L 273.607965 94.88778 
L 273.607965 93.653568 
L 276.974481 93.653568 
L 276.974481 94.88778 
L 280.340997 94.88778 
L 280.340997 97.89388 
L 283.707513 97.89388 
L 283.707513 101.446074 
L 287.074029 101.446074 
L 287.074029 104.26511 
L 290.440544 104.26511 
L 290.440544 105.499322 
L 293.80706 105.499322 
L 293.80706 105.027895 
L 297.173576 105.027895 
L 297.173576 103.472698 
L 300.540092 103.472698 
L 300.540092 101.9175 
L 303.906608 101.9175 
L 303.906608 101.446074 
L 307.273124 101.446074 
L 307.273124 102.680285 
L 310.639639 102.680285 
L 310.639639 105.499322 
L 314.006155 105.499322 
L 314.006155 109.051515 
L 317.372671 109.051515 
L 317.372671 112.057615 
L 320.739187 112.057615 
L 320.739187 113.291827 
L 324.105703 113.291827 
L 324.105703 112.057615 
L 327.472219 112.057615 
L 327.472219 108.475794 
" clip-path="url(#p54b7dd3929)" style="fill: none; stroke: #6e3b87; stroke-width: 2; stroke-linecap: round"/>
   </g>
  </g>
  <g id="axes_5">
   <g id="patch_6">
    <path d="M 38.62516 183.138215 
L 169.919277 183.138215 
L 169.919277 136.276146 
L 38.62516 136.276146 
L 38.62516 183.138215 
z
" style="fill: none"/>
   </g>
   <g id="line2d_31">
    <path d="M 38.62516 148.277408 
L 41.991676 148.277408 
L 41.991676 148.83682 
L 45.358191 148.83682 
L 45.358191 150.4603 
L 48.724707 150.4603 
L 48.724707 152.988929 
L 52.091223 152.988929 
L 52.091223 156.175186 
L 55.457739 156.175186 
L 55.457739 159.70718 
L 58.824255 159.70718 
L 58.824255 163.239175 
L 62.190771 163.239175 
L 62.190771 166.425432 
L 65.557286 166.425432 
L 65.557286 168.954061 
L 68.923802 168.954061 
L 68.923802 170.57754 
L 72.290318 170.57754 
L 72.290318 171.136953 
L 75.656834 171.136953 
L 75.656834 170.57754 
L 79.02335 170.57754 
L 79.02335 168.954061 
L 82.389866 168.954061 
L 82.389866 166.425432 
L 85.756382 166.425432 
L 85.756382 163.239175 
L 89.122897 163.239175 
L 89.122897 159.70718 
L 92.489413 159.70718 
L 92.489413 156.175186 
L 95.855929 156.175186 
L 95.855929 152.988929 
L 99.222445 152.988929 
L 99.222445 150.4603 
L 102.588961 150.4603 
L 102.588961 148.83682 
L 105.955477 148.83682 
L 105.955477 148.277408 
L 109.321992 148.277408 
L 109.321992 148.83682 
L 112.688508 148.83682 
L 112.688508 150.4603 
L 116.055024 150.4603 
L 116.055024 152.988929 
L 119.42154 152.988929 
L 119.42154 156.175186 
L 122.788056 156.175186 
L 122.788056 159.70718 
L 126.154572 159.70718 
L 126.154572 163.239175 
L 129.521087 163.239175 
L 129.521087 166.425432 
L 132.887603 166.425432 
L 132.887603 168.954061 
L 136.254119 168.954061 
L 136.254119 170.57754 
L 139.620635 170.57754 
L 139.620635 171.136953 
L 142.987151 171.136953 
L 142.987151 170.57754 
L 146.353667 170.57754 
L 146.353667 168.954061 
L 149.720182 168.954061 
L 149.720182 166.425432 
L 153.086698 166.425432 
L 153.086698 163.239175 
L 156.453214 163.239175 
L 156.453214 159.70718 
L 159.81973 159.70718 
L 159.81973 156.175186 
L 163.186246 156.175186 
L 163.186246 152.988929 
L 166.552762 152.988929 
L 166.552762 150.4603 
L 169.919277 150.4603 
L 169.919277 148.83682 
" clip-path="url(#pb1991c1ba8)" style="fill: none; stroke: #dc2830; stroke-width: 2; stroke-linecap: round"/>
   </g>
   <g id="matplotlib.axis_9">
    <g id="xtick_9">
     <g id="line2d_32">
      <path d="M 38.62516 183.138215 
L 38.62516 136.276146 
" clip-path="url(#pb1991c1ba8)" style="fill: none; stroke: #000000; stroke-opacity: 0.2; stroke-width: 0.5; stroke-linecap: round"/>
     </g>
     <g id="line2d_33">
      <g>
       <use xlink:href="#mefa62426d9" x="38.62516" y="183.138215" style="fill-opacity: 0.2; stroke: #000000; stroke-opacity: 0.2; stroke-width: 0.5"/>
      </g>
     </g>
    </g>
    <g id="xtick_10">
     <g id="line2d_34">
      <path d="M 105.955477 183.138215 
L 105.955477 136.276146 
" clip-path="url(#pb1991c1ba8)" style="fill: none; stroke: #000000; stroke-opacity: 0.2; stroke-width: 0.5; stroke-linecap: round"/>
     </g>
     <g id="line2d_35">
      <g>
       <use xlink:href="#mefa62426d9" x="105.955477" y="183.138215" style="fill-opacity: 0.2; stroke: #000000; stroke-opacity: 0.2; stroke-width: 0.5"/>
      </g>
     </g>
    </g>
   </g>
   <g id="matplotlib.axis_10">
    <g id="ytick_5">
     <g id="line2d_36">
      <path d="M 38.62516 159.70718 
L 169.919277 159.70718 
" clip-path="url(#pb1991c1ba8)" style="fill: none; stroke: #000000; stroke-opacity: 0.2; stroke-width: 0.5; stroke-linecap: round"/>
     </g>
     <g id="line2d_37">
      <g>
       <use xlink:href="#m49fc20366f" x="38.62516" y="159.70718" style="fill-opacity: 0.2; stroke: #000000; stroke-opacity: 0.2; stroke-width: 0.5"/>
      </g>
     </g>
    </g>
    <g id="text_5">
     <!-- $m=2$ -->
     <g transform="translate(15.753876 175.733302)rotate(-90)scale(0.12 -0.12)">
      <defs>
       <path id="URWPalladioL-Roma-32" d="M 102 166 
L 102 0 
C 1299 0 1299 0 1530 0 
C 1760 19 1760 19 2995 0 
C 2982 134 2982 198 2982 287 
C 2982 370 2982 434 2995 574 
C 2259 542 1965 536 781 510 
L 1946 1741 
C 2566 2398 2758 2749 2758 3228 
C 2758 3961 2259 4416 1446 4416 
C 986 4416 672 4287 358 3967 
L 250 3100 
L 435 3100 
L 518 3394 
C 621 3763 851 3923 1280 3923 
C 1830 3923 2182 3578 2182 3036 
C 2182 2558 1914 2086 1190 1320 
L 102 166 
z
" transform="scale(0.015625)"/>
      </defs>
      <use xlink:href="#URWPalladioL-Ital-6d" transform="scale(0.996264)"/>
      <use xlink:href="#CMR10-3d" transform="translate(107.673966 0)scale(1.038107)"/>
      <use xlink:href="#URWPalladioL-Roma-32" transform="translate(217.289595 0)scale(0.996264)"/>
     </g>
    </g>
   </g>
   <g id="line2d_38">
    <path d="M 38.62516 159.70718 
L 41.991676 159.70718 
L 41.991676 154.518172 
L 45.358191 154.518172 
L 45.358191 150.4603 
L 48.724707 150.4603 
L 48.724707 148.418127 
L 52.091223 148.418127 
L 52.091223 148.83682 
L 55.457739 148.83682 
L 55.457739 151.625111 
L 58.824255 151.625111 
L 58.824255 156.175186 
L 62.190771 156.175186 
L 62.190771 161.495191 
L 65.557286 161.495191 
L 65.557286 166.425432 
L 68.923802 166.425432 
L 68.923802 169.891183 
L 72.290318 169.891183 
L 72.290318 171.136953 
L 75.656834 171.136953 
L 75.656834 169.891183 
L 79.02335 169.891183 
L 79.02335 166.425432 
L 82.389866 166.425432 
L 82.389866 161.495191 
L 85.756382 161.495191 
L 85.756382 156.175186 
L 89.122897 156.175186 
L 89.122897 151.625111 
L 92.489413 151.625111 
L 92.489413 148.83682 
L 95.855929 148.83682 
L 95.855929 148.418127 
L 99.222445 148.418127 
L 99.222445 150.4603 
L 102.588961 150.4603 
L 102.588961 154.518172 
L 105.955477 154.518172 
L 105.955477 159.70718 
L 109.321992 159.70718 
L 109.321992 164.896189 
L 112.688508 164.896189 
L 112.688508 168.954061 
L 116.055024 168.954061 
L 116.055024 170.996234 
L 119.42154 170.996234 
L 119.42154 170.57754 
L 122.788056 170.57754 
L 122.788056 167.78925 
L 126.154572 167.78925 
L 126.154572 163.239175 
L 129.521087 163.239175 
L 129.521087 157.91917 
L 132.887603 157.91917 
L 132.887603 152.988929 
L 136.254119 152.988929 
L 136.254119 149.523178 
L 139.620635 149.523178 
L 139.620635 148.277408 
L 142.987151 148.277408 
L 142.987151 149.523178 
L 146.353667 149.523178 
L 146.353667 152.988929 
L 149.720182 152.988929 
L 149.720182 157.91917 
L 153.086698 157.91917 
L 153.086698 163.239175 
L 156.453214 163.239175 
L 156.453214 167.78925 
L 159.81973 167.78925 
L 159.81973 170.57754 
L 163.186246 170.57754 
L 163.186246 170.996234 
L 166.552762 170.996234 
L 166.552762 168.954061 
L 169.919277 168.954061 
L 169.919277 164.896189 
" clip-path="url(#pb1991c1ba8)" style="fill: none; stroke: #0271ae; stroke-width: 2; stroke-linecap: round"/>
   </g>
  </g>
  <g id="axes_6">
   <g id="patch_7">
    <path d="M 196.178101 183.138215 
L 327.472219 183.138215 
L 327.472219 136.276146 
L 196.178101 136.276146 
L 196.178101 183.138215 
z
" style="fill: none"/>
   </g>
   <g id="matplotlib.axis_11">
    <g id="xtick_11">
     <g id="line2d_39">
      <path d="M 196.178101 183.138215 
L 196.178101 136.276146 
" clip-path="url(#p174339b681)" style="fill: none; stroke: #000000; stroke-opacity: 0.2; stroke-width: 0.5; stroke-linecap: round"/>
     </g>
     <g id="line2d_40">
      <g>
       <use xlink:href="#mefa62426d9" x="196.178101" y="183.138215" style="fill-opacity: 0.2; stroke: #000000; stroke-opacity: 0.2; stroke-width: 0.5"/>
      </g>
     </g>
    </g>
    <g id="xtick_12">
     <g id="line2d_41">
      <path d="M 263.508418 183.138215 
L 263.508418 136.276146 
" clip-path="url(#p174339b681)" style="fill: none; stroke: #000000; stroke-opacity: 0.2; stroke-width: 0.5; stroke-linecap: round"/>
     </g>
     <g id="line2d_42">
      <g>
       <use xlink:href="#mefa62426d9" x="263.508418" y="183.138215" style="fill-opacity: 0.2; stroke: #000000; stroke-opacity: 0.2; stroke-width: 0.5"/>
      </g>
     </g>
    </g>
   </g>
   <g id="matplotlib.axis_12">
    <g id="ytick_6">
     <g id="line2d_43">
      <path d="M 196.178101 159.70718 
L 327.472219 159.70718 
" clip-path="url(#p174339b681)" style="fill: none; stroke: #000000; stroke-opacity: 0.2; stroke-width: 0.5; stroke-linecap: round"/>
     </g>
     <g id="line2d_44">
      <g>
       <use xlink:href="#m49fc20366f" x="196.178101" y="159.70718" style="fill-opacity: 0.2; stroke: #000000; stroke-opacity: 0.2; stroke-width: 0.5"/>
      </g>
     </g>
    </g>
   </g>
   <g id="line2d_45">
    <path d="M 196.178101 159.70718 
L 199.544617 159.70718 
L 199.544617 154.889641 
L 202.911133 154.889641 
L 202.911133 152.404413 
L 206.277648 152.404413 
L 206.277648 153.22963 
L 209.644164 153.22963 
L 209.644164 156.428034 
L 213.01068 156.428034 
L 213.01068 159.70718 
L 216.377196 159.70718 
L 216.377196 160.77264 
L 219.743712 160.77264 
L 219.743712 158.681237 
L 223.110228 158.681237 
L 223.110228 154.40141 
L 226.476744 154.40141 
L 226.476744 150.252227 
L 229.843259 150.252227 
L 229.843259 148.549545 
L 233.209775 148.549545 
L 233.209775 150.252227 
L 236.576291 150.252227 
L 236.576291 154.40141 
L 239.942807 154.40141 
L 239.942807 158.681237 
L 243.309323 158.681237 
L 243.309323 160.77264 
L 246.675839 160.77264 
L 246.675839 159.70718 
L 250.042354 159.70718 
L 250.042354 156.428034 
L 253.40887 156.428034 
L 253.40887 153.22963 
L 256.775386 153.22963 
L 256.775386 152.404413 
L 260.141902 152.404413 
L 260.141902 154.889641 
L 263.508418 154.889641 
L 263.508418 159.70718 
L 266.874934 159.70718 
L 266.874934 164.52472 
L 270.241449 164.52472 
L 270.241449 167.009948 
L 273.607965 167.009948 
L 273.607965 166.184731 
L 276.974481 166.184731 
L 276.974481 162.986327 
L 280.340997 162.986327 
L 280.340997 159.70718 
L 283.707513 159.70718 
L 283.707513 158.641721 
L 287.074029 158.641721 
L 287.074029 160.733124 
L 290.440544 160.733124 
L 290.440544 165.012951 
L 293.80706 165.012951 
L 293.80706 169.162134 
L 297.173576 169.162134 
L 297.173576 170.864816 
L 300.540092 170.864816 
L 300.540092 169.162134 
L 303.906608 169.162134 
L 303.906608 165.012951 
L 307.273124 165.012951 
L 307.273124 160.733124 
L 310.639639 160.733124 
L 310.639639 158.641721 
L 314.006155 158.641721 
L 314.006155 159.70718 
L 317.372671 159.70718 
L 317.372671 162.986327 
L 320.739187 162.986327 
L 320.739187 166.184731 
L 324.105703 166.184731 
L 324.105703 167.009948 
L 327.472219 167.009948 
L 327.472219 164.52472 
" clip-path="url(#p174339b681)" style="fill: none; stroke: #6e3b87; stroke-width: 2; stroke-linecap: round"/>
   </g>
  </g>
  <g id="axes_7">
   <g id="patch_8">
    <path d="M 38.62516 239.372698 
L 169.919277 239.372698 
L 169.919277 192.510629 
L 38.62516 192.510629 
L 38.62516 239.372698 
z
" style="fill: none"/>
   </g>
   <g id="line2d_46">
    <path d="M 38.62516 204.51189 
L 41.991676 204.51189 
L 41.991676 205.757661 
L 45.358191 205.757661 
L 45.358191 209.223411 
L 48.724707 209.223411 
L 48.724707 214.153653 
L 52.091223 214.153653 
L 52.091223 219.473657 
L 55.457739 219.473657 
L 55.457739 224.023733 
L 58.824255 224.023733 
L 58.824255 226.812023 
L 62.190771 226.812023 
L 62.190771 227.230717 
L 65.557286 227.230717 
L 65.557286 225.188544 
L 68.923802 225.188544 
L 68.923802 221.130672 
L 72.290318 221.130672 
L 72.290318 215.941663 
L 75.656834 215.941663 
L 75.656834 210.752655 
L 79.02335 210.752655 
L 79.02335 206.694783 
L 82.389866 206.694783 
L 82.389866 204.65261 
L 85.756382 204.65261 
L 85.756382 205.071303 
L 89.122897 205.071303 
L 89.122897 207.859593 
L 92.489413 207.859593 
L 92.489413 212.409669 
L 95.855929 212.409669 
L 95.855929 217.729674 
L 99.222445 217.729674 
L 99.222445 222.659915 
L 102.588961 222.659915 
L 102.588961 226.125665 
L 105.955477 226.125665 
L 105.955477 227.371436 
L 109.321992 227.371436 
L 109.321992 226.125665 
L 112.688508 226.125665 
L 112.688508 222.659915 
L 116.055024 222.659915 
L 116.055024 217.729674 
L 119.42154 217.729674 
L 119.42154 212.409669 
L 122.788056 212.409669 
L 122.788056 207.859593 
L 126.154572 207.859593 
L 126.154572 205.071303 
L 129.521087 205.071303 
L 129.521087 204.65261 
L 132.887603 204.65261 
L 132.887603 206.694783 
L 136.254119 206.694783 
L 136.254119 210.752655 
L 139.620635 210.752655 
L 139.620635 215.941663 
L 142.987151 215.941663 
L 142.987151 221.130672 
L 146.353667 221.130672 
L 146.353667 225.188544 
L 149.720182 225.188544 
L 149.720182 227.230717 
L 153.086698 227.230717 
L 153.086698 226.812023 
L 156.453214 226.812023 
L 156.453214 224.023733 
L 159.81973 224.023733 
L 159.81973 219.473657 
L 163.186246 219.473657 
L 163.186246 214.153653 
L 166.552762 214.153653 
L 166.552762 209.223411 
L 169.919277 209.223411 
L 169.919277 205.757661 
" clip-path="url(#p9c89be7d8a)" style="fill: none; stroke: #dc2830; stroke-width: 2; stroke-linecap: round"/>
   </g>
   <g id="matplotlib.axis_13">
    <g id="xtick_13">
     <g id="line2d_47">
      <path d="M 38.62516 239.372698 
L 38.62516 192.510629 
" clip-path="url(#p9c89be7d8a)" style="fill: none; stroke: #000000; stroke-opacity: 0.2; stroke-width: 0.5; stroke-linecap: round"/>
     </g>
     <g id="line2d_48">
      <g>
       <use xlink:href="#mefa62426d9" x="38.62516" y="239.372698" style="fill-opacity: 0.2; stroke: #000000; stroke-opacity: 0.2; stroke-width: 0.5"/>
      </g>
     </g>
    </g>
    <g id="xtick_14">
     <g id="line2d_49">
      <path d="M 105.955477 239.372698 
L 105.955477 192.510629 
" clip-path="url(#p9c89be7d8a)" style="fill: none; stroke: #000000; stroke-opacity: 0.2; stroke-width: 0.5; stroke-linecap: round"/>
     </g>
     <g id="line2d_50">
      <g>
       <use xlink:href="#mefa62426d9" x="105.955477" y="239.372698" style="fill-opacity: 0.2; stroke: #000000; stroke-opacity: 0.2; stroke-width: 0.5"/>
      </g>
     </g>
    </g>
   </g>
   <g id="matplotlib.axis_14">
    <g id="ytick_7">
     <g id="line2d_51">
      <path d="M 38.62516 215.941663 
L 169.919277 215.941663 
" clip-path="url(#p9c89be7d8a)" style="fill: none; stroke: #000000; stroke-opacity: 0.2; stroke-width: 0.5; stroke-linecap: round"/>
     </g>
     <g id="line2d_52">
      <g>
       <use xlink:href="#m49fc20366f" x="38.62516" y="215.941663" style="fill-opacity: 0.2; stroke: #000000; stroke-opacity: 0.2; stroke-width: 0.5"/>
      </g>
     </g>
    </g>
    <g id="text_6">
     <!-- $m=3$ -->
     <g transform="translate(15.753876 231.967785)rotate(-90)scale(0.12 -0.12)">
      <defs>
       <path id="URWPalladioL-Roma-33" d="M 275 3196 
L 474 3196 
L 589 3553 
C 659 3770 1062 3987 1395 3987 
C 1811 3987 2150 3649 2150 3247 
C 2150 2769 1773 2368 1318 2368 
C 1267 2368 1197 2374 1114 2380 
L 1018 2387 
L 941 2047 
L 986 2008 
C 1229 2118 1350 2150 1523 2150 
C 2054 2150 2362 1808 2362 1222 
C 2362 565 1971 134 1376 134 
C 1082 134 819 231 627 411 
C 474 553 390 701 269 1048 
L 96 984 
C 230 591 282 359 320 38 
C 659 -77 941 -128 1178 -128 
C 1690 -128 2278 160 2630 591 
C 2848 855 2957 1139 2957 1441 
C 2957 1750 2829 2021 2598 2182 
C 2438 2297 2291 2348 1971 2406 
C 2483 2801 2675 3094 2675 3470 
C 2675 4038 2202 4416 1491 4416 
C 1056 4416 768 4294 461 3987 
L 275 3196 
z
" transform="scale(0.015625)"/>
      </defs>
      <use xlink:href="#URWPalladioL-Ital-6d" transform="scale(0.996264)"/>
      <use xlink:href="#CMR10-3d" transform="translate(107.673966 0)scale(1.038107)"/>
      <use xlink:href="#URWPalladioL-Roma-33" transform="translate(217.289595 0)scale(0.996264)"/>
     </g>
    </g>
   </g>
   <g id="line2d_53">
    <path d="M 38.62516 215.941663 
L 41.991676 215.941663 
L 41.991676 210.752655 
L 45.358191 210.752655 
L 45.358191 206.694783 
L 48.724707 206.694783 
L 48.724707 204.65261 
L 52.091223 204.65261 
L 52.091223 205.071303 
L 55.457739 205.071303 
L 55.457739 207.859593 
L 58.824255 207.859593 
L 58.824255 212.409669 
L 62.190771 212.409669 
L 62.190771 217.729674 
L 65.557286 217.729674 
L 65.557286 222.659915 
L 68.923802 222.659915 
L 68.923802 226.125665 
L 72.290318 226.125665 
L 72.290318 227.371436 
L 75.656834 227.371436 
L 75.656834 226.125665 
L 79.02335 226.125665 
L 79.02335 222.659915 
L 82.389866 222.659915 
L 82.389866 217.729674 
L 85.756382 217.729674 
L 85.756382 212.409669 
L 89.122897 212.409669 
L 89.122897 207.859593 
L 92.489413 207.859593 
L 92.489413 205.071303 
L 95.855929 205.071303 
L 95.855929 204.65261 
L 99.222445 204.65261 
L 99.222445 206.694783 
L 102.588961 206.694783 
L 102.588961 210.752655 
L 105.955477 210.752655 
L 105.955477 215.941663 
L 109.321992 215.941663 
L 109.321992 221.130672 
L 112.688508 221.130672 
L 112.688508 225.188544 
L 116.055024 225.188544 
L 116.055024 227.230717 
L 119.42154 227.230717 
L 119.42154 226.812023 
L 122.788056 226.812023 
L 122.788056 224.023733 
L 126.154572 224.023733 
L 126.154572 219.473657 
L 129.521087 219.473657 
L 129.521087 214.153653 
L 132.887603 214.153653 
L 132.887603 209.223411 
L 136.254119 209.223411 
L 136.254119 205.757661 
L 139.620635 205.757661 
L 139.620635 204.51189 
L 142.987151 204.51189 
L 142.987151 205.757661 
L 146.353667 205.757661 
L 146.353667 209.223411 
L 149.720182 209.223411 
L 149.720182 214.153653 
L 153.086698 214.153653 
L 153.086698 219.473657 
L 156.453214 219.473657 
L 156.453214 224.023733 
L 159.81973 224.023733 
L 159.81973 226.812023 
L 163.186246 226.812023 
L 163.186246 227.230717 
L 166.552762 227.230717 
L 166.552762 225.188544 
L 169.919277 225.188544 
L 169.919277 221.130672 
" clip-path="url(#p9c89be7d8a)" style="fill: none; stroke: #0271ae; stroke-width: 2; stroke-linecap: round"/>
   </g>
  </g>
  <g id="axes_8">
   <g id="patch_9">
    <path d="M 196.178101 239.372698 
L 327.472219 239.372698 
L 327.472219 192.510629 
L 196.178101 192.510629 
L 196.178101 239.372698 
z
" style="fill: none"/>
   </g>
   <g id="matplotlib.axis_15">
    <g id="xtick_15">
     <g id="line2d_54">
      <path d="M 196.178101 239.372698 
L 196.178101 192.510629 
" clip-path="url(#p8ebfecd07a)" style="fill: none; stroke: #000000; stroke-opacity: 0.2; stroke-width: 0.5; stroke-linecap: round"/>
     </g>
     <g id="line2d_55">
      <g>
       <use xlink:href="#mefa62426d9" x="196.178101" y="239.372698" style="fill-opacity: 0.2; stroke: #000000; stroke-opacity: 0.2; stroke-width: 0.5"/>
      </g>
     </g>
    </g>
    <g id="xtick_16">
     <g id="line2d_56">
      <path d="M 263.508418 239.372698 
L 263.508418 192.510629 
" clip-path="url(#p8ebfecd07a)" style="fill: none; stroke: #000000; stroke-opacity: 0.2; stroke-width: 0.5; stroke-linecap: round"/>
     </g>
     <g id="line2d_57">
      <g>
       <use xlink:href="#mefa62426d9" x="263.508418" y="239.372698" style="fill-opacity: 0.2; stroke: #000000; stroke-opacity: 0.2; stroke-width: 0.5"/>
      </g>
     </g>
    </g>
   </g>
   <g id="matplotlib.axis_16">
    <g id="ytick_8">
     <g id="line2d_58">
      <path d="M 196.178101 215.941663 
L 327.472219 215.941663 
" clip-path="url(#p8ebfecd07a)" style="fill: none; stroke: #000000; stroke-opacity: 0.2; stroke-width: 0.5; stroke-linecap: round"/>
     </g>
     <g id="line2d_59">
      <g>
       <use xlink:href="#m49fc20366f" x="196.178101" y="215.941663" style="fill-opacity: 0.2; stroke: #000000; stroke-opacity: 0.2; stroke-width: 0.5"/>
      </g>
     </g>
    </g>
   </g>
   <g id="line2d_60">
    <path d="M 196.178101 215.941663 
L 199.544617 215.941663 
L 199.544617 211.428305 
L 202.911133 211.428305 
L 202.911133 210.635892 
L 206.277648 210.635892 
L 206.277648 214.217714 
L 209.644164 214.217714 
L 209.644164 219.22081 
L 213.01068 219.22081 
L 213.01068 221.520481 
L 216.377196 221.520481 
L 216.377196 219.22081 
L 219.743712 219.22081 
L 219.743712 214.217714 
L 223.110228 214.217714 
L 223.110228 210.635892 
L 226.476744 210.635892 
L 226.476744 211.428305 
L 229.843259 211.428305 
L 229.843259 215.941663 
L 233.209775 215.941663 
L 233.209775 220.455022 
L 236.576291 220.455022 
L 236.576291 221.247434 
L 239.942807 221.247434 
L 239.942807 217.665613 
L 243.309323 217.665613 
L 243.309323 212.662516 
L 246.675839 212.662516 
L 246.675839 210.362845 
L 250.042354 210.362845 
L 250.042354 212.662516 
L 253.40887 212.662516 
L 253.40887 217.665613 
L 256.775386 217.665613 
L 256.775386 221.247434 
L 260.141902 221.247434 
L 260.141902 220.455022 
L 263.508418 220.455022 
L 263.508418 215.941663 
L 266.874934 215.941663 
L 266.874934 211.428305 
L 270.241449 211.428305 
L 270.241449 210.635892 
L 273.607965 210.635892 
L 273.607965 214.217714 
L 276.974481 214.217714 
L 276.974481 219.22081 
L 280.340997 219.22081 
L 280.340997 221.520481 
L 283.707513 221.520481 
L 283.707513 219.22081 
L 287.074029 219.22081 
L 287.074029 214.217714 
L 290.440544 214.217714 
L 290.440544 210.635892 
L 293.80706 210.635892 
L 293.80706 211.428305 
L 297.173576 211.428305 
L 297.173576 215.941663 
L 300.540092 215.941663 
L 300.540092 220.455022 
L 303.906608 220.455022 
L 303.906608 221.247434 
L 307.273124 221.247434 
L 307.273124 217.665613 
L 310.639639 217.665613 
L 310.639639 212.662516 
L 314.006155 212.662516 
L 314.006155 210.362845 
L 317.372671 210.362845 
L 317.372671 212.662516 
L 320.739187 212.662516 
L 320.739187 217.665613 
L 324.105703 217.665613 
L 324.105703 221.247434 
L 327.472219 221.247434 
L 327.472219 220.455022 
" clip-path="url(#p8ebfecd07a)" style="fill: none; stroke: #6e3b87; stroke-width: 2; stroke-linecap: round"/>
   </g>
  </g>
  <g id="axes_9">
   <g id="patch_10">
    <path d="M 38.62516 295.60718 
L 169.919277 295.60718 
L 169.919277 248.745112 
L 38.62516 248.745112 
L 38.62516 295.60718 
z
" style="fill: none"/>
   </g>
   <g id="line2d_61">
    <path d="M 38.62516 260.746373 
L 41.991676 260.746373 
L 41.991676 262.929265 
L 45.358191 262.929265 
L 45.358191 268.644152 
L 48.724707 268.644152 
L 48.724707 275.70814 
L 52.091223 275.70814 
L 52.091223 281.423027 
L 55.457739 281.423027 
L 55.457739 283.605919 
L 58.824255 283.605919 
L 58.824255 281.423027 
L 62.190771 281.423027 
L 62.190771 275.70814 
L 65.557286 275.70814 
L 65.557286 268.644152 
L 68.923802 268.644152 
L 68.923802 262.929265 
L 72.290318 262.929265 
L 72.290318 260.746373 
L 75.656834 260.746373 
L 75.656834 262.929265 
L 79.02335 262.929265 
L 79.02335 268.644152 
L 82.389866 268.644152 
L 82.389866 275.70814 
L 85.756382 275.70814 
L 85.756382 281.423027 
L 89.122897 281.423027 
L 89.122897 283.605919 
L 92.489413 283.605919 
L 92.489413 281.423027 
L 95.855929 281.423027 
L 95.855929 275.70814 
L 99.222445 275.70814 
L 99.222445 268.644152 
L 102.588961 268.644152 
L 102.588961 262.929265 
L 105.955477 262.929265 
L 105.955477 260.746373 
L 109.321992 260.746373 
L 109.321992 262.929265 
L 112.688508 262.929265 
L 112.688508 268.644152 
L 116.055024 268.644152 
L 116.055024 275.70814 
L 119.42154 275.70814 
L 119.42154 281.423027 
L 122.788056 281.423027 
L 122.788056 283.605919 
L 126.154572 283.605919 
L 126.154572 281.423027 
L 129.521087 281.423027 
L 129.521087 275.70814 
L 132.887603 275.70814 
L 132.887603 268.644152 
L 136.254119 268.644152 
L 136.254119 262.929265 
L 139.620635 262.929265 
L 139.620635 260.746373 
L 142.987151 260.746373 
L 142.987151 262.929265 
L 146.353667 262.929265 
L 146.353667 268.644152 
L 149.720182 268.644152 
L 149.720182 275.70814 
L 153.086698 275.70814 
L 153.086698 281.423027 
L 156.453214 281.423027 
L 156.453214 283.605919 
L 159.81973 283.605919 
L 159.81973 281.423027 
L 163.186246 281.423027 
L 163.186246 275.70814 
L 166.552762 275.70814 
L 166.552762 268.644152 
L 169.919277 268.644152 
L 169.919277 262.929265 
" clip-path="url(#paf84fc6f5e)" style="fill: none; stroke: #dc2830; stroke-width: 2; stroke-linecap: round"/>
   </g>
   <g id="matplotlib.axis_17">
    <g id="xtick_17">
     <g id="line2d_62">
      <path d="M 38.62516 295.60718 
L 38.62516 248.745112 
" clip-path="url(#paf84fc6f5e)" style="fill: none; stroke: #000000; stroke-opacity: 0.2; stroke-width: 0.5; stroke-linecap: round"/>
     </g>
     <g id="line2d_63">
      <g>
       <use xlink:href="#mefa62426d9" x="38.62516" y="295.60718" style="fill-opacity: 0.2; stroke: #000000; stroke-opacity: 0.2; stroke-width: 0.5"/>
      </g>
     </g>
     <g id="text_7">
      <!-- $\mathdefault{0}$ -->
      <g transform="translate(35.138236 321.08671)scale(0.14 -0.14)">
       <use xlink:href="#URWPalladioL-Roma-30" transform="scale(0.996264)"/>
      </g>
     </g>
    </g>
    <g id="xtick_18">
     <g id="line2d_64">
      <path d="M 105.955477 295.60718 
L 105.955477 248.745112 
" clip-path="url(#paf84fc6f5e)" style="fill: none; stroke: #000000; stroke-opacity: 0.2; stroke-width: 0.5; stroke-linecap: round"/>
     </g>
     <g id="line2d_65">
      <g>
       <use xlink:href="#mefa62426d9" x="105.955477" y="295.60718" style="fill-opacity: 0.2; stroke: #000000; stroke-opacity: 0.2; stroke-width: 0.5"/>
      </g>
     </g>
     <g id="text_8">
      <!-- $\mathdefault{1}$ -->
      <g transform="translate(102.468553 321.08671)scale(0.14 -0.14)">
       <use xlink:href="#URWPalladioL-Roma-31" transform="scale(0.996264)"/>
      </g>
     </g>
    </g>
    <g id="text_9">
     <!-- Time [seconds] -->
     <g transform="translate(64.599367 337.573758)scale(0.12 -0.12)">
      <defs>
       <path id="URWPalladioL-Roma-54" d="M 1632 4096 
C 1651 3880 1658 3734 1658 3462 
L 1658 781 
C 1658 280 1626 230 1331 211 
L 1024 192 
L 1024 0 
C 1402 -7 1626 0 1958 0 
C 2291 19 2522 12 2899 0 
L 2899 192 
L 2592 211 
C 2298 230 2266 280 2266 781 
L 2266 3462 
C 2266 3747 2272 3887 2291 4096 
L 3283 4096 
C 3462 4096 3533 4039 3539 3887 
L 3565 3386 
L 3763 3386 
C 3763 3801 3776 4051 3808 4416 
C 3347 4409 3136 4409 2957 4403 
C 2707 4390 2522 4390 2426 4390 
L 1414 4390 
C 1350 4390 1005 4396 550 4403 
L 115 4416 
C 147 4051 160 3801 160 3385 
L 358 3385 
L 384 3891 
C 390 4038 461 4096 640 4096 
L 1632 4096 
z
" transform="scale(0.015625)"/>
       <path id="URWPalladioL-Roma-69" d="M 1203 2982 
L 1146 3008 
C 819 2873 486 2784 147 2746 
L 147 2568 
L 384 2568 
C 640 2568 666 2523 666 2103 
L 666 669 
C 666 268 646 223 429 211 
L 134 192 
L 134 0 
C 774 0 774 0 934 0 
C 1094 19 1094 19 1734 0 
L 1734 192 
L 1440 211 
C 1222 224 1203 268 1203 671 
L 1203 2982 
z
M 909 4416 
C 717 4416 550 4249 550 4057 
C 550 3871 717 3705 902 3705 
C 1088 3705 1261 3871 1261 4057 
C 1261 4236 1088 4416 909 4416 
z
" transform="scale(0.015625)"/>
       <path id="URWPalladioL-Roma-6d" d="M 115 2579 
L 352 2579 
C 608 2579 634 2534 634 2112 
L 634 672 
C 634 268 614 224 397 211 
L 102 192 
L 102 0 
C 717 0 736 0 915 0 
C 1094 19 1261 12 1677 0 
L 1677 192 
L 1408 211 
C 1190 223 1171 268 1171 670 
L 1171 2023 
C 1171 2311 1594 2624 1978 2624 
C 2323 2624 2560 2298 2560 1813 
L 2560 670 
C 2560 268 2541 223 2323 211 
L 2029 192 
L 2029 0 
C 2669 0 2669 0 2829 0 
C 2989 19 2989 19 3629 0 
L 3629 192 
L 3334 211 
C 3117 223 3098 268 3098 670 
L 3098 2023 
C 3098 2311 3520 2624 3904 2624 
C 4250 2624 4486 2298 4486 1813 
L 4486 0 
C 4877 0 4883 0 4992 0 
C 5075 19 5075 19 5562 0 
L 5562 192 
L 5261 211 
C 5043 223 5024 268 5024 670 
L 5024 1985 
C 5024 2617 4653 3014 4064 3014 
C 3840 3014 3654 2956 3539 2854 
L 3053 2419 
C 2848 2841 2586 3014 2144 3014 
C 1907 3014 1728 2956 1613 2854 
L 1171 2445 
L 1171 2988 
L 1114 3008 
C 787 2873 454 2783 115 2745 
L 115 2579 
z
" transform="scale(0.015625)"/>
       <path id="URWPalladioL-Roma-65" d="M 2797 447 
L 2714 511 
C 2304 268 2157 211 1882 211 
C 1466 211 1120 396 941 710 
C 819 921 774 1100 762 1472 
L 1696 1472 
C 2138 1472 2413 1491 2854 1561 
C 2861 1651 2867 1708 2867 1786 
C 2867 2526 2394 3008 1677 3008 
C 1440 3008 1165 2924 902 2771 
C 378 2468 166 2069 166 1401 
C 166 998 262 652 435 409 
C 691 70 1120 -128 1600 -128 
C 1837 -128 2074 -77 2336 38 
C 2509 108 2643 192 2669 230 
L 2797 447 
z
M 2298 1708 
C 1965 1696 1811 1689 1581 1689 
C 1286 1689 1120 1696 774 1728 
C 774 2030 800 2172 883 2339 
C 1018 2623 1293 2796 1600 2796 
C 1811 2796 1978 2713 2093 2539 
C 2234 2326 2278 2140 2298 1708 
z
" transform="scale(0.015625)"/>
       <path id="URWPalladioL-Roma-5b" d="M 563 -1178 
C 1018 -1166 1030 -1166 1184 -1166 
C 1338 -1166 1370 -1166 1805 -1178 
L 1843 -1140 
L 1843 -974 
L 1818 -942 
L 1574 -942 
C 1402 -942 1261 -903 1184 -839 
C 1126 -782 1107 -692 1107 -481 
C 1107 -474 1107 -340 1101 -148 
L 1101 89 
L 1101 3379 
L 1101 3615 
C 1107 3795 1107 3935 1107 3942 
C 1107 4153 1126 4249 1184 4307 
C 1261 4371 1402 4409 1574 4409 
L 1818 4409 
L 1843 4441 
L 1843 4608 
L 1805 4646 
C 1357 4633 1338 4633 1184 4633 
C 1037 4633 1005 4633 563 4646 
L 506 4563 
C 544 4403 557 4191 557 3699 
C 557 3603 557 3526 563 3462 
L 563 3379 
L 563 89 
L 563 6 
C 557 -97 557 -103 557 -212 
L 557 -282 
C 557 -718 544 -897 506 -1095 
L 563 -1178 
z
" transform="scale(0.015625)"/>
       <path id="URWPalladioL-Roma-73" d="M 262 917 
C 262 474 243 282 192 25 
C 525 -84 774 -128 1069 -128 
C 1907 -128 2502 320 2502 949 
C 2502 1148 2445 1295 2323 1423 
C 2157 1584 1946 1661 1382 1770 
C 858 1872 685 2001 685 2296 
C 685 2617 909 2796 1299 2796 
C 1728 2796 2054 2572 2054 2270 
L 2054 2123 
L 2234 2123 
C 2240 2495 2246 2649 2266 2847 
C 1926 2963 1696 3008 1434 3008 
C 691 3008 237 2655 237 2078 
C 237 1770 378 1552 672 1417 
C 845 1340 1184 1237 1619 1141 
C 1907 1077 2029 942 2029 698 
C 2029 352 1709 108 1254 108 
C 787 108 454 333 454 654 
L 454 917 
L 262 917 
z
" transform="scale(0.015625)"/>
       <path id="URWPalladioL-Roma-63" d="M 2554 1995 
C 2554 2290 2586 2553 2643 2783 
C 2387 2937 2163 3008 1901 3008 
C 1594 3008 1235 2886 851 2643 
C 403 2360 166 1911 166 1347 
C 166 480 774 -128 1632 -128 
C 1965 -128 2445 -7 2509 89 
L 2643 294 
L 2579 390 
C 2342 262 2138 204 1907 204 
C 1197 204 730 756 730 1603 
C 730 2290 1050 2675 1626 2675 
C 1907 2675 2214 2547 2330 2386 
L 2374 1995 
L 2554 1995 
z
" transform="scale(0.015625)"/>
       <path id="URWPalladioL-Roma-6f" d="M 1786 3008 
C 851 3008 205 2347 205 1391 
C 205 487 774 -128 1600 -128 
C 2586 -128 3290 557 3290 1520 
C 3290 2386 2662 3008 1786 3008 
z
M 1670 2796 
C 2259 2796 2694 2155 2694 1282 
C 2694 545 2368 83 1850 83 
C 1222 83 800 699 800 1609 
C 800 2379 1107 2796 1670 2796 
z
" transform="scale(0.015625)"/>
       <path id="URWPalladioL-Roma-5d" d="M 1568 4646 
C 1114 4633 1094 4633 947 4633 
C 794 4633 762 4633 326 4646 
L 288 4608 
L 288 4441 
L 314 4409 
L 557 4409 
C 730 4409 864 4371 941 4307 
C 1005 4249 1024 4159 1024 3942 
C 1024 3923 1024 3795 1030 3615 
L 1030 3379 
L 1030 89 
L 1030 -148 
C 1024 -334 1024 -449 1024 -468 
C 1024 -686 1005 -782 941 -839 
C 864 -903 730 -942 557 -942 
L 314 -942 
L 288 -974 
L 288 -1140 
L 326 -1178 
C 774 -1166 787 -1166 947 -1166 
C 1094 -1166 1126 -1166 1568 -1178 
L 1626 -1095 
C 1587 -942 1581 -743 1574 -250 
C 1574 -161 1574 -78 1568 6 
L 1568 89 
L 1568 3379 
L 1568 3462 
C 1574 3532 1574 3615 1574 3705 
C 1574 4198 1587 4409 1626 4563 
L 1568 4646 
z
" transform="scale(0.015625)"/>
      </defs>
      <use xlink:href="#URWPalladioL-Roma-54" transform="scale(0.996264)"/>
      <use xlink:href="#URWPalladioL-Roma-69" transform="translate(55.591109 0)scale(0.996264)"/>
      <use xlink:href="#URWPalladioL-Roma-6d" transform="translate(84.581471 0)scale(0.996264)"/>
      <use xlink:href="#URWPalladioL-Roma-65" transform="translate(172.551145 0)scale(0.996264)"/>
      <use xlink:href="#URWPalladioL-Roma-5b" transform="translate(245.17804 0)scale(0.996264)"/>
      <use xlink:href="#URWPalladioL-Roma-73" transform="translate(278.35327 0)scale(0.996264)"/>
      <use xlink:href="#URWPalladioL-Roma-65" transform="translate(320.594736 0)scale(0.996264)"/>
      <use xlink:href="#URWPalladioL-Roma-63" transform="translate(368.315031 0)scale(0.996264)"/>
      <use xlink:href="#URWPalladioL-Roma-6f" transform="translate(412.5486 0)scale(0.996264)"/>
      <use xlink:href="#URWPalladioL-Roma-6e" transform="translate(466.94418 0)scale(0.996264)"/>
      <use xlink:href="#URWPalladioL-Roma-64" transform="translate(524.926241 0)scale(0.996264)"/>
      <use xlink:href="#URWPalladioL-Roma-73" transform="translate(585.797872 0)scale(0.996264)"/>
      <use xlink:href="#URWPalladioL-Roma-5d" transform="translate(628.039338 0)scale(0.996264)"/>
     </g>
    </g>
   </g>
   <g id="matplotlib.axis_18">
    <g id="ytick_9">
     <g id="line2d_66">
      <path d="M 38.62516 272.176146 
L 169.919277 272.176146 
" clip-path="url(#paf84fc6f5e)" style="fill: none; stroke: #000000; stroke-opacity: 0.2; stroke-width: 0.5; stroke-linecap: round"/>
     </g>
     <g id="line2d_67">
      <g>
       <use xlink:href="#m49fc20366f" x="38.62516" y="272.176146" style="fill-opacity: 0.2; stroke: #000000; stroke-opacity: 0.2; stroke-width: 0.5"/>
      </g>
     </g>
    </g>
    <g id="text_10">
     <!-- $m=4$ -->
     <g transform="translate(15.753876 288.202268)rotate(-90)scale(0.12 -0.12)">
      <defs>
       <path id="URWPalladioL-Roma-34" d="M 1792 1152 
L 1792 684 
C 1792 310 1722 223 1408 210 
L 1011 192 
L 1011 0 
C 1862 0 1862 0 2016 0 
C 2170 19 2170 19 3021 0 
L 3021 192 
L 2714 210 
C 2400 229 2330 310 2330 684 
L 2330 1152 
C 2707 1152 2842 1145 3021 1127 
L 3021 1580 
C 2720 1555 2598 1555 2502 1561 
L 2483 1561 
L 2330 1561 
L 2330 2445 
C 2330 3576 2342 4122 2374 4383 
L 2298 4416 
L 1824 4243 
L 13 1299 
L 83 1152 
L 1792 1152 
z
M 1792 1561 
L 416 1561 
L 1792 3798 
L 1792 1561 
z
" transform="scale(0.015625)"/>
      </defs>
      <use xlink:href="#URWPalladioL-Ital-6d" transform="scale(0.996264)"/>
      <use xlink:href="#CMR10-3d" transform="translate(107.673966 0)scale(1.038107)"/>
      <use xlink:href="#URWPalladioL-Roma-34" transform="translate(217.289595 0)scale(0.996264)"/>
     </g>
    </g>
   </g>
   <g id="line2d_68">
    <path d="M 38.62516 272.176146 
L 41.991676 272.176146 
L 41.991676 266.987138 
L 45.358191 266.987138 
L 45.358191 262.929265 
L 48.724707 262.929265 
L 48.724707 260.887093 
L 52.091223 260.887093 
L 52.091223 261.305786 
L 55.457739 261.305786 
L 55.457739 264.094076 
L 58.824255 264.094076 
L 58.824255 268.644152 
L 62.190771 268.644152 
L 62.190771 273.964156 
L 65.557286 273.964156 
L 65.557286 278.894398 
L 68.923802 278.894398 
L 68.923802 282.360148 
L 72.290318 282.360148 
L 72.290318 283.605919 
L 75.656834 283.605919 
L 75.656834 282.360148 
L 79.02335 282.360148 
L 79.02335 278.894398 
L 82.389866 278.894398 
L 82.389866 273.964156 
L 85.756382 273.964156 
L 85.756382 268.644152 
L 89.122897 268.644152 
L 89.122897 264.094076 
L 92.489413 264.094076 
L 92.489413 261.305786 
L 95.855929 261.305786 
L 95.855929 260.887093 
L 99.222445 260.887093 
L 99.222445 262.929265 
L 102.588961 262.929265 
L 102.588961 266.987138 
L 105.955477 266.987138 
L 105.955477 272.176146 
L 109.321992 272.176146 
L 109.321992 277.365154 
L 112.688508 277.365154 
L 112.688508 281.423027 
L 116.055024 281.423027 
L 116.055024 283.465199 
L 119.42154 283.465199 
L 119.42154 283.046506 
L 122.788056 283.046506 
L 122.788056 280.258216 
L 126.154572 280.258216 
L 126.154572 275.70814 
L 129.521087 275.70814 
L 129.521087 270.388136 
L 132.887603 270.388136 
L 132.887603 265.457894 
L 136.254119 265.457894 
L 136.254119 261.992144 
L 139.620635 261.992144 
L 139.620635 260.746373 
L 142.987151 260.746373 
L 142.987151 261.992144 
L 146.353667 261.992144 
L 146.353667 265.457894 
L 149.720182 265.457894 
L 149.720182 270.388136 
L 153.086698 270.388136 
L 153.086698 275.70814 
L 156.453214 275.70814 
L 156.453214 280.258216 
L 159.81973 280.258216 
L 159.81973 283.046506 
L 163.186246 283.046506 
L 163.186246 283.465199 
L 166.552762 283.465199 
L 166.552762 281.423027 
L 169.919277 281.423027 
L 169.919277 277.365154 
" clip-path="url(#paf84fc6f5e)" style="fill: none; stroke: #0271ae; stroke-width: 2; stroke-linecap: round"/>
   </g>
  </g>
  <g id="axes_10">
   <g id="patch_11">
    <path d="M 196.178101 295.60718 
L 327.472219 295.60718 
L 327.472219 248.745112 
L 196.178101 248.745112 
L 196.178101 295.60718 
z
" style="fill: none"/>
   </g>
   <g id="matplotlib.axis_19">
    <g id="xtick_19">
     <g id="line2d_69">
      <path d="M 196.178101 295.60718 
L 196.178101 248.745112 
" clip-path="url(#p9c4355a2c4)" style="fill: none; stroke: #000000; stroke-opacity: 0.2; stroke-width: 0.5; stroke-linecap: round"/>
     </g>
     <g id="line2d_70">
      <g>
       <use xlink:href="#mefa62426d9" x="196.178101" y="295.60718" style="fill-opacity: 0.2; stroke: #000000; stroke-opacity: 0.2; stroke-width: 0.5"/>
      </g>
     </g>
     <g id="text_11">
      <!-- $\mathdefault{0}$ -->
      <g transform="translate(192.691177 321.08671)scale(0.14 -0.14)">
       <use xlink:href="#URWPalladioL-Roma-30" transform="scale(0.996264)"/>
      </g>
     </g>
    </g>
    <g id="xtick_20">
     <g id="line2d_71">
      <path d="M 263.508418 295.60718 
L 263.508418 248.745112 
" clip-path="url(#p9c4355a2c4)" style="fill: none; stroke: #000000; stroke-opacity: 0.2; stroke-width: 0.5; stroke-linecap: round"/>
     </g>
     <g id="line2d_72">
      <g>
       <use xlink:href="#mefa62426d9" x="263.508418" y="295.60718" style="fill-opacity: 0.2; stroke: #000000; stroke-opacity: 0.2; stroke-width: 0.5"/>
      </g>
     </g>
     <g id="text_12">
      <!-- $\mathdefault{1}$ -->
      <g transform="translate(260.021494 321.08671)scale(0.14 -0.14)">
       <use xlink:href="#URWPalladioL-Roma-31" transform="scale(0.996264)"/>
      </g>
     </g>
    </g>
    <g id="text_13">
     <!-- Time [seconds] -->
     <g transform="translate(222.152308 337.573758)scale(0.12 -0.12)">
      <use xlink:href="#URWPalladioL-Roma-54" transform="scale(0.996264)"/>
      <use xlink:href="#URWPalladioL-Roma-69" transform="translate(55.591109 0)scale(0.996264)"/>
      <use xlink:href="#URWPalladioL-Roma-6d" transform="translate(84.581471 0)scale(0.996264)"/>
      <use xlink:href="#URWPalladioL-Roma-65" transform="translate(172.551145 0)scale(0.996264)"/>
      <use xlink:href="#URWPalladioL-Roma-5b" transform="translate(245.17804 0)scale(0.996264)"/>
      <use xlink:href="#URWPalladioL-Roma-73" transform="translate(278.35327 0)scale(0.996264)"/>
      <use xlink:href="#URWPalladioL-Roma-65" transform="translate(320.594736 0)scale(0.996264)"/>
      <use xlink:href="#URWPalladioL-Roma-63" transform="translate(368.315031 0)scale(0.996264)"/>
      <use xlink:href="#URWPalladioL-Roma-6f" transform="translate(412.5486 0)scale(0.996264)"/>
      <use xlink:href="#URWPalladioL-Roma-6e" transform="translate(466.94418 0)scale(0.996264)"/>
      <use xlink:href="#URWPalladioL-Roma-64" transform="translate(524.926241 0)scale(0.996264)"/>
      <use xlink:href="#URWPalladioL-Roma-73" transform="translate(585.797872 0)scale(0.996264)"/>
      <use xlink:href="#URWPalladioL-Roma-5d" transform="translate(628.039338 0)scale(0.996264)"/>
     </g>
    </g>
   </g>
   <g id="matplotlib.axis_20">
    <g id="ytick_10">
     <g id="line2d_73">
      <path d="M 196.178101 272.176146 
L 327.472219 272.176146 
" clip-path="url(#p9c4355a2c4)" style="fill: none; stroke: #000000; stroke-opacity: 0.2; stroke-width: 0.5; stroke-linecap: round"/>
     </g>
     <g id="line2d_74">
      <g>
       <use xlink:href="#m49fc20366f" x="196.178101" y="272.176146" style="fill-opacity: 0.2; stroke: #000000; stroke-opacity: 0.2; stroke-width: 0.5"/>
      </g>
     </g>
    </g>
   </g>
   <g id="line2d_75">
    <path d="M 196.178101 272.176146 
L 199.544617 272.176146 
L 199.544617 268.078102 
L 202.911133 268.078102 
L 202.911133 269.386737 
L 206.277648 269.386737 
L 206.277648 275.581596 
L 209.644164 275.581596 
L 209.644164 280.761064 
L 213.01068 280.761064 
L 213.01068 280.065786 
L 216.377196 280.065786 
L 216.377196 274.965555 
L 219.743712 274.965555 
L 219.743712 271.636776 
L 223.110228 271.636776 
L 223.110228 274.20277 
L 226.476744 274.20277 
L 226.476744 280.219009 
L 229.843259 280.219009 
L 229.843259 283.333781 
L 233.209775 283.333781 
L 233.209775 280.219009 
L 236.576291 280.219009 
L 236.576291 274.20277 
L 239.942807 274.20277 
L 239.942807 271.636776 
L 243.309323 271.636776 
L 243.309323 274.965555 
L 246.675839 274.965555 
L 246.675839 280.065786 
L 250.042354 280.065786 
L 250.042354 280.761064 
L 253.40887 280.761064 
L 253.40887 275.581596 
L 256.775386 275.581596 
L 256.775386 269.386737 
L 260.141902 269.386737 
L 260.141902 268.078102 
L 263.508418 268.078102 
L 263.508418 272.176146 
L 266.874934 272.176146 
L 266.874934 276.27419 
L 270.241449 276.27419 
L 270.241449 274.965555 
L 273.607965 274.965555 
L 273.607965 268.770696 
L 276.974481 268.770696 
L 276.974481 263.591228 
L 280.340997 263.591228 
L 280.340997 264.286506 
L 283.707513 264.286506 
L 283.707513 269.386737 
L 287.074029 269.386737 
L 287.074029 272.715516 
L 290.440544 272.715516 
L 290.440544 270.149522 
L 293.80706 270.149522 
L 293.80706 264.133283 
L 297.173576 264.133283 
L 297.173576 261.018511 
L 300.540092 261.018511 
L 300.540092 264.133283 
L 303.906608 264.133283 
L 303.906608 270.149522 
L 307.273124 270.149522 
L 307.273124 272.715516 
L 310.639639 272.715516 
L 310.639639 269.386737 
L 314.006155 269.386737 
L 314.006155 264.286506 
L 317.372671 264.286506 
L 317.372671 263.591228 
L 320.739187 263.591228 
L 320.739187 268.770696 
L 324.105703 268.770696 
L 324.105703 274.965555 
L 327.472219 274.965555 
L 327.472219 276.27419 
" clip-path="url(#p9c4355a2c4)" style="fill: none; stroke: #6e3b87; stroke-width: 2; stroke-linecap: round"/>
   </g>
  </g>
  <g id="axes_11">
   <g id="patch_12">
    <path d="M 353.731042 295.60718 
L 485.02516 295.60718 
L 485.02516 23.80718 
L 353.731042 23.80718 
L 353.731042 295.60718 
z
" style="fill: none"/>
   </g>
   <g id="line2d_76">
    <path d="M 419.378101 295.60718 
L 419.378101 23.80718 
" clip-path="url(#pe105b24c7f)" style="fill: none; stroke: #343837; stroke-linecap: round"/>
   </g>
   <g id="matplotlib.axis_21">
    <g id="xtick_21">
     <g id="line2d_77">
      <path d="M 353.731042 295.60718 
L 353.731042 23.80718 
" clip-path="url(#pe105b24c7f)" style="fill: none; stroke: #000000; stroke-opacity: 0.2; stroke-width: 0.5; stroke-linecap: round"/>
     </g>
     <g id="line2d_78">
      <g>
       <use xlink:href="#mefa62426d9" x="353.731042" y="295.60718" style="fill-opacity: 0.2; stroke: #000000; stroke-opacity: 0.2; stroke-width: 0.5"/>
      </g>
     </g>
     <g id="text_14">
      <!-- $\mathdefault{5}$ -->
      <g transform="translate(344.508197 321.08671)scale(0.14 -0.14)">
       <defs>
        <path id="CMSY10-0" d="M 4218 1472 
C 4326 1472 4442 1472 4442 1600 
C 4442 1728 4326 1728 4218 1728 
L 755 1728 
C 646 1728 531 1728 531 1600 
C 531 1472 646 1472 755 1472 
L 4218 1472 
z
" transform="scale(0.015625)"/>
        <path id="URWPalladioL-Roma-35" d="M 813 3891 
C 1638 3865 1997 3859 2765 3859 
L 2797 3891 
C 2784 4006 2784 4057 2784 4140 
C 2784 4230 2784 4281 2797 4396 
L 2765 4428 
C 2285 4403 1997 4396 1651 4396 
C 1299 4396 1018 4403 538 4428 
L 506 4396 
C 512 4006 518 3724 518 3520 
C 518 2976 499 2360 480 2076 
L 608 2038 
C 909 2341 1082 2432 1395 2432 
C 2010 2432 2394 1992 2394 1295 
C 2394 579 1984 160 1286 160 
C 941 160 621 276 531 443 
L 237 973 
L 83 882 
C 230 514 307 308 397 25 
C 576 -71 832 -128 1107 -128 
C 1536 -128 1990 57 2342 366 
C 2733 715 2938 1153 2938 1631 
C 2938 2360 2419 2873 1690 2873 
C 1382 2873 1152 2790 755 2553 
L 813 3891 
z
" transform="scale(0.015625)"/>
       </defs>
       <use xlink:href="#CMSY10-0" transform="scale(1.038107)"/>
       <use xlink:href="#URWPalladioL-Roma-35" transform="translate(81.941696 0)scale(0.996264)"/>
      </g>
     </g>
    </g>
    <g id="xtick_22">
     <g id="line2d_79">
      <path d="M 419.378101 295.60718 
L 419.378101 23.80718 
" clip-path="url(#pe105b24c7f)" style="fill: none; stroke: #000000; stroke-opacity: 0.2; stroke-width: 0.5; stroke-linecap: round"/>
     </g>
     <g id="line2d_80">
      <g>
       <use xlink:href="#mefa62426d9" x="419.378101" y="295.60718" style="fill-opacity: 0.2; stroke: #000000; stroke-opacity: 0.2; stroke-width: 0.5"/>
      </g>
     </g>
     <g id="text_15">
      <!-- $\mathdefault{0}$ -->
      <g transform="translate(415.891177 321.08671)scale(0.14 -0.14)">
       <use xlink:href="#URWPalladioL-Roma-30" transform="scale(0.996264)"/>
      </g>
     </g>
    </g>
    <g id="xtick_23">
     <g id="line2d_81">
      <path d="M 485.02516 295.60718 
L 485.02516 23.80718 
" clip-path="url(#pe105b24c7f)" style="fill: none; stroke: #000000; stroke-opacity: 0.2; stroke-width: 0.5; stroke-linecap: round"/>
     </g>
     <g id="line2d_82">
      <g>
       <use xlink:href="#mefa62426d9" x="485.02516" y="295.60718" style="fill-opacity: 0.2; stroke: #000000; stroke-opacity: 0.2; stroke-width: 0.5"/>
      </g>
     </g>
     <g id="text_16">
      <!-- $\mathdefault{5}$ -->
      <g transform="translate(481.538236 321.08671)scale(0.14 -0.14)">
       <use xlink:href="#URWPalladioL-Roma-35" transform="scale(0.996264)"/>
      </g>
     </g>
    </g>
    <g id="text_17">
     <!-- Similarity -->
     <g transform="translate(393.381997 337.573758)scale(0.12 -0.12)">
      <defs>
       <path id="URWPalladioL-Roma-53" d="M 2861 3371 
C 2861 3711 2886 3929 2950 4275 
C 2438 4479 2150 4544 1798 4544 
C 845 4544 154 3942 154 3102 
C 154 2788 237 2557 422 2384 
C 640 2185 934 2083 1555 1999 
C 2048 1929 2272 1858 2438 1711 
C 2605 1576 2682 1390 2682 1147 
C 2682 570 2202 153 1536 153 
C 1024 153 525 403 493 666 
L 442 1095 
L 237 1095 
C 243 980 243 877 243 839 
C 243 544 230 403 192 115 
C 557 -45 928 -128 1299 -128 
C 2413 -128 3219 544 3219 1474 
C 3219 1775 3136 1986 2957 2153 
C 2733 2365 2464 2448 1747 2544 
C 966 2647 691 2858 691 3352 
C 691 3890 1094 4275 1658 4275 
C 1907 4275 2144 4224 2317 4127 
C 2528 4018 2598 3922 2618 3736 
L 2656 3371 
L 2861 3371 
z
" transform="scale(0.015625)"/>
       <path id="URWPalladioL-Roma-6c" d="M 147 4249 
L 506 4249 
C 621 4249 666 4179 666 3987 
L 666 672 
C 666 268 646 224 429 211 
L 134 192 
L 134 0 
C 774 0 774 0 934 0 
C 1094 19 1094 19 1734 0 
L 1734 192 
L 1440 211 
C 1222 224 1203 268 1203 672 
L 1203 4614 
L 1146 4665 
C 864 4557 653 4505 147 4429 
L 147 4249 
z
" transform="scale(0.015625)"/>
       <path id="URWPalladioL-Roma-72" d="M 147 2579 
L 384 2579 
C 640 2579 666 2534 666 2112 
L 666 672 
C 666 268 646 224 429 211 
L 134 192 
L 134 0 
C 595 -7 762 0 922 0 
C 1050 19 1050 19 1837 0 
L 1837 192 
L 1504 211 
C 1216 230 1203 249 1203 669 
L 1203 1763 
C 1203 2145 1459 2463 1773 2463 
C 1965 2463 2099 2374 2202 2171 
L 2336 2171 
L 2394 2937 
C 2323 2982 2208 3008 2093 3008 
C 1901 3008 1696 2905 1562 2745 
L 1203 2324 
L 1203 2982 
L 1146 3008 
C 819 2873 486 2783 147 2745 
L 147 2579 
z
" transform="scale(0.015625)"/>
       <path id="URWPalladioL-Roma-74" d="M 627 2457 
L 627 614 
C 627 140 838 -64 1331 -64 
C 1478 -64 1632 -32 1670 12 
L 1978 352 
L 1894 460 
C 1734 371 1638 339 1517 339 
C 1267 339 1165 467 1165 780 
L 1165 2457 
L 1984 2457 
L 2042 2803 
L 1165 2764 
L 1165 3008 
C 1165 3277 1184 3507 1235 3917 
L 1158 3987 
C 1005 3891 813 3808 614 3744 
C 634 3552 640 3430 640 3238 
L 640 2790 
L 141 2566 
L 141 2432 
L 627 2457 
z
" transform="scale(0.015625)"/>
       <path id="URWPalladioL-Roma-79" d="M 1901 569 
C 1760 812 1690 960 1574 1273 
L 1165 2349 
C 1126 2457 1101 2553 1101 2617 
C 1101 2707 1171 2758 1318 2765 
L 1562 2777 
L 1562 2957 
C 941 2937 941 2937 819 2937 
C 698 2937 698 2937 77 2957 
L 77 2777 
L 192 2765 
C 352 2745 429 2675 525 2451 
L 1222 774 
C 1402 339 1466 185 1581 -135 
L 1434 -525 
C 1229 -1063 979 -1364 736 -1364 
C 634 -1364 518 -1312 410 -1216 
L 326 -1216 
L 173 -1696 
C 294 -1760 397 -1792 518 -1792 
C 947 -1792 1222 -1562 1466 -1005 
L 2765 1990 
C 3021 2573 3142 2745 3302 2765 
L 3482 2777 
L 3482 2957 
C 2976 2937 2976 2937 2874 2937 
C 2771 2937 2771 2937 2266 2957 
L 2266 2777 
L 2432 2765 
C 2611 2752 2701 2694 2701 2605 
C 2701 2560 2688 2502 2662 2438 
L 1901 569 
z
" transform="scale(0.015625)"/>
      </defs>
      <use xlink:href="#URWPalladioL-Roma-53" transform="scale(0.996264)"/>
      <use xlink:href="#URWPalladioL-Roma-69" transform="translate(52.303815 0)scale(0.996264)"/>
      <use xlink:href="#URWPalladioL-Roma-6d" transform="translate(81.294176 0)scale(0.996264)"/>
      <use xlink:href="#URWPalladioL-Roma-69" transform="translate(169.263851 0)scale(0.996264)"/>
      <use xlink:href="#URWPalladioL-Roma-6c" transform="translate(198.254212 0)scale(0.996264)"/>
      <use xlink:href="#URWPalladioL-Roma-61" transform="translate(227.244574 0)scale(0.996264)"/>
      <use xlink:href="#URWPalladioL-Roma-72" transform="translate(277.057774 0)scale(0.996264)"/>
      <use xlink:href="#URWPalladioL-Roma-69" transform="translate(316.40967 0)scale(0.996264)"/>
      <use xlink:href="#URWPalladioL-Roma-74" transform="translate(345.400032 0)scale(0.996264)"/>
      <use xlink:href="#URWPalladioL-Roma-79" transform="translate(377.87712 0)scale(0.996264)"/>
     </g>
    </g>
   </g>
   <g id="matplotlib.axis_22">
    <g id="ytick_11">
     <g id="line2d_83">
      <path d="M 353.731042 46.45718 
L 485.02516 46.45718 
" clip-path="url(#pe105b24c7f)" style="fill: none; stroke: #000000; stroke-opacity: 0.2; stroke-width: 0.5; stroke-linecap: round"/>
     </g>
     <g id="line2d_84">
      <defs>
       <path id="mf07fb51c8b" d="M 0 0 
L 3.5 0 
" style="stroke: #000000; stroke-opacity: 0.2; stroke-width: 0.5"/>
      </defs>
      <g>
       <use xlink:href="#mf07fb51c8b" x="485.02516" y="46.45718" style="fill-opacity: 0.2; stroke: #000000; stroke-opacity: 0.2; stroke-width: 0.5"/>
      </g>
     </g>
     <g id="text_18">
      <!-- $\mathdefault{0}$ -->
      <g transform="translate(500.52516 51.446945)scale(0.14 -0.14)">
       <use xlink:href="#URWPalladioL-Roma-30" transform="scale(0.996264)"/>
      </g>
     </g>
    </g>
    <g id="ytick_12">
     <g id="line2d_85">
      <path d="M 353.731042 103.08218 
L 485.02516 103.08218 
" clip-path="url(#pe105b24c7f)" style="fill: none; stroke: #000000; stroke-opacity: 0.2; stroke-width: 0.5; stroke-linecap: round"/>
     </g>
     <g id="line2d_86">
      <g>
       <use xlink:href="#mf07fb51c8b" x="485.02516" y="103.08218" style="fill-opacity: 0.2; stroke: #000000; stroke-opacity: 0.2; stroke-width: 0.5"/>
      </g>
     </g>
     <g id="text_19">
      <!-- $\mathdefault{1}$ -->
      <g transform="translate(500.52516 108.071945)scale(0.14 -0.14)">
       <use xlink:href="#URWPalladioL-Roma-31" transform="scale(0.996264)"/>
      </g>
     </g>
    </g>
    <g id="ytick_13">
     <g id="line2d_87">
      <path d="M 353.731042 159.70718 
L 485.02516 159.70718 
" clip-path="url(#pe105b24c7f)" style="fill: none; stroke: #000000; stroke-opacity: 0.2; stroke-width: 0.5; stroke-linecap: round"/>
     </g>
     <g id="line2d_88">
      <g>
       <use xlink:href="#mf07fb51c8b" x="485.02516" y="159.70718" style="fill-opacity: 0.2; stroke: #000000; stroke-opacity: 0.2; stroke-width: 0.5"/>
      </g>
     </g>
     <g id="text_20">
      <!-- $\mathdefault{2}$ -->
      <g transform="translate(500.52516 164.696945)scale(0.14 -0.14)">
       <use xlink:href="#URWPalladioL-Roma-32" transform="scale(0.996264)"/>
      </g>
     </g>
    </g>
    <g id="ytick_14">
     <g id="line2d_89">
      <path d="M 353.731042 216.33218 
L 485.02516 216.33218 
" clip-path="url(#pe105b24c7f)" style="fill: none; stroke: #000000; stroke-opacity: 0.2; stroke-width: 0.5; stroke-linecap: round"/>
     </g>
     <g id="line2d_90">
      <g>
       <use xlink:href="#mf07fb51c8b" x="485.02516" y="216.33218" style="fill-opacity: 0.2; stroke: #000000; stroke-opacity: 0.2; stroke-width: 0.5"/>
      </g>
     </g>
     <g id="text_21">
      <!-- $\mathdefault{3}$ -->
      <g transform="translate(500.52516 221.321945)scale(0.14 -0.14)">
       <use xlink:href="#URWPalladioL-Roma-33" transform="scale(0.996264)"/>
      </g>
     </g>
    </g>
    <g id="ytick_15">
     <g id="line2d_91">
      <path d="M 353.731042 272.95718 
L 485.02516 272.95718 
" clip-path="url(#pe105b24c7f)" style="fill: none; stroke: #000000; stroke-opacity: 0.2; stroke-width: 0.5; stroke-linecap: round"/>
     </g>
     <g id="line2d_92">
      <g>
       <use xlink:href="#mf07fb51c8b" x="485.02516" y="272.95718" style="fill-opacity: 0.2; stroke: #000000; stroke-opacity: 0.2; stroke-width: 0.5"/>
      </g>
     </g>
     <g id="text_22">
      <!-- $\mathdefault{4}$ -->
      <g transform="translate(500.52516 277.946945)scale(0.14 -0.14)">
       <use xlink:href="#URWPalladioL-Roma-34" transform="scale(0.996264)"/>
      </g>
     </g>
    </g>
    <g id="text_23">
     <!-- $m$ -->
     <g transform="translate(520.052884 164.357679)rotate(-90)scale(0.12 -0.12)">
      <use xlink:href="#URWPalladioL-Ital-6d" transform="scale(0.996264)"/>
     </g>
    </g>
   </g>
   <g id="patch_13">
    <path d="M 419.378101 23.80718 
L 419.378101 23.80718 
L 419.378101 69.10718 
L 419.378101 69.10718 
z
" clip-path="url(#pe105b24c7f)" style="fill: #6e3b87"/>
   </g>
   <g id="patch_14">
    <path d="M 419.378101 80.43218 
L 419.378101 80.43218 
L 419.378101 125.73218 
L 419.378101 125.73218 
z
" clip-path="url(#pe105b24c7f)" style="fill: #6e3b87"/>
   </g>
   <g id="patch_15">
    <path d="M 419.378101 137.05718 
L 419.378101 137.05718 
L 419.378101 182.35718 
L 419.378101 182.35718 
z
" clip-path="url(#pe105b24c7f)" style="fill: #6e3b87"/>
   </g>
   <g id="patch_16">
    <path d="M 419.378101 193.68218 
L 419.378101 193.68218 
L 419.378101 238.98218 
L 419.378101 238.98218 
z
" clip-path="url(#pe105b24c7f)" style="fill: #6e3b87"/>
   </g>
   <g id="patch_17">
    <path d="M 419.378101 250.30718 
L 419.378101 250.30718 
L 419.378101 295.60718 
L 419.378101 295.60718 
z
" clip-path="url(#pe105b24c7f)" style="fill: #6e3b87"/>
   </g>
   <g id="text_24">
    <!-- $S(x, y_m)$ -->
    <g transform="translate(394.587004 17.80718)scale(0.14 -0.14)">
     <defs>
      <path id="URWPalladioL-Ital-53" d="M 2886 3454 
L 3078 3454 
C 3104 3803 3149 4049 3238 4326 
C 2950 4479 2694 4544 2394 4544 
C 1926 4544 1440 4345 1101 3997 
C 826 3732 691 3403 691 3028 
C 691 2479 934 2175 1472 2046 
L 2080 1897 
C 2426 1813 2598 1587 2598 1219 
C 2598 605 2144 179 1485 179 
C 1139 179 896 256 614 457 
L 614 1096 
L 422 1096 
C 384 741 339 450 269 115 
C 582 -45 922 -128 1261 -128 
C 2253 -128 3104 625 3104 1497 
C 3104 2007 2829 2279 2182 2421 
L 1766 2511 
C 1344 2602 1152 2841 1152 3267 
C 1152 3829 1581 4236 2170 4236 
C 2483 4236 2694 4152 2886 3945 
L 2886 3454 
z
" transform="scale(0.015625)"/>
      <path id="CMR10-28" d="M 2118 -1536 
C 2118 -1517 2118 -1504 2010 -1396 
C 1210 -589 1005 620 1005 1600 
C 1005 2713 1248 3827 2035 4627 
C 2118 4704 2118 4716 2118 4736 
C 2118 4780 2093 4800 2054 4800 
C 1990 4800 1414 4365 1037 3552 
C 710 2848 634 2137 634 1600 
C 634 1100 704 326 1056 -397 
C 1440 -1184 1990 -1600 2054 -1600 
C 2093 -1600 2118 -1581 2118 -1536 
z
" transform="scale(0.015625)"/>
      <path id="URWPalladioL-Roma-2c" d="M 1306 787 
C 1133 729 1018 691 678 595 
C 634 108 474 -308 102 -922 
L 192 -993 
L 454 -871 
C 973 -199 1216 204 1395 697 
L 1306 787 
z
" transform="scale(0.015625)"/>
      <path id="CMR10-29" d="M 1850 1600 
C 1850 2099 1779 2873 1427 3597 
C 1043 4384 493 4800 429 4800 
C 390 4800 365 4774 365 4736 
C 365 4716 365 4704 486 4589 
C 1114 3955 1478 2937 1478 1600 
C 1478 505 1242 -621 448 -1428 
C 365 -1504 365 -1517 365 -1536 
C 365 -1575 390 -1600 429 -1600 
C 493 -1600 1069 -1165 1446 -352 
C 1773 352 1850 1062 1850 1600 
z
" transform="scale(0.015625)"/>
     </defs>
     <use xlink:href="#URWPalladioL-Ital-53" transform="scale(0.996264)"/>
     <use xlink:href="#CMR10-28" transform="translate(57.88296 0)scale(1.038107)"/>
     <use xlink:href="#URWPalladioL-Ital-78" transform="translate(102.316341 0)scale(0.996264)"/>
     <use xlink:href="#URWPalladioL-Roma-2c" transform="translate(154.370178 0)scale(0.996264)"/>
     <use xlink:href="#URWPalladioL-Ital-79" transform="translate(197.126437 0)scale(0.996264)"/>
     <use xlink:href="#URWPalladioL-Ital-6d" transform="translate(249.13137 -14.943915)scale(0.757155)"/>
     <use xlink:href="#CMR10-29" transform="translate(310.727974 0)scale(1.038107)"/>
    </g>
   </g>
  </g>
 </g>
 <defs>
  <clipPath id="p1c121cb05d">
   <rect x="38.62516" y="23.80718" width="131.294118" height="46.862069"/>
  </clipPath>
  <clipPath id="p1e9120d283">
   <rect x="196.178101" y="23.80718" width="131.294118" height="46.862069"/>
  </clipPath>
  <clipPath id="pae8c84657e">
   <rect x="38.62516" y="80.041663" width="131.294118" height="46.862069"/>
  </clipPath>
  <clipPath id="p54b7dd3929">
   <rect x="196.178101" y="80.041663" width="131.294118" height="46.862069"/>
  </clipPath>
  <clipPath id="pb1991c1ba8">
   <rect x="38.62516" y="136.276146" width="131.294118" height="46.862069"/>
  </clipPath>
  <clipPath id="p174339b681">
   <rect x="196.178101" y="136.276146" width="131.294118" height="46.862069"/>
  </clipPath>
  <clipPath id="p9c89be7d8a">
   <rect x="38.62516" y="192.510629" width="131.294118" height="46.862069"/>
  </clipPath>
  <clipPath id="p8ebfecd07a">
   <rect x="196.178101" y="192.510629" width="131.294118" height="46.862069"/>
  </clipPath>
  <clipPath id="paf84fc6f5e">
   <rect x="38.62516" y="248.745112" width="131.294118" height="46.862069"/>
  </clipPath>
  <clipPath id="p9c4355a2c4">
   <rect x="196.178101" y="248.745112" width="131.294118" height="46.862069"/>
  </clipPath>
  <clipPath id="pe105b24c7f">
   <rect x="353.731042" y="23.80718" width="131.294118" height="271.8"/>
  </clipPath>
 </defs>
</svg>