<?xml version="1.0" encoding="utf-8" standalone="no"?>
<!DOCTYPE svg PUBLIC "-//W3C//DTD SVG 1.1//EN"
  "http://www.w3.org/Graphics/SVG/1.1/DTD/svg11.dtd">
<svg height="200.39952pt" version="1.1" viewBox="0 0 584.39952 200.39952" width="584.39952pt" xmlns="http://www.w3.org/2000/svg" xmlns:xlink="http://www.w3.org/1999/xlink">
 <metadata>
  <rdf:RDF xmlns:cc="http://creativecommons.org/ns#" xmlns:dc="http://purl.org/dc/elements/1.1/" xmlns:rdf="http://www.w3.org/1999/02/22-rdf-syntax-ns#">
   <cc:Work>
    <dc:type rdf:resource="http://purl.org/dc/dcmitype/StillImage"/>
    <dc:date>2021-08-20T09:54:50.274432</dc:date>
    <dc:format>image/svg+xml</dc:format>
    <dc:creator>
     <cc:Agent>
      <dc:title>Matplotlib v3.4.2, https://matplotlib.org/</dc:title>
     </cc:Agent>
    </dc:creator>
   </cc:Work>
  </rdf:RDF>
 </metadata>
 <defs>
  <style type="text/css">*{stroke-linecap:butt;stroke-linejoin:round;}</style>
 </defs>
 <g id="figure_1">
  <g id="patch_1">
   <path d="M 0 200.39952 
L 584.39952 200.39952 
L 584.39952 0 
L 0 0 
z
" style="fill:none;"/>
  </g>
  <g id="axes_1">
   <g id="patch_2">
    <path d="M 47.108468 147.861659 
L 577.19952 147.861659 
L 577.19952 7.2 
L 47.108468 7.2 
z
" style="fill:none;"/>
   </g>
   <g id="line2d_1">
    <path clip-path="url(#p8cbdd8497e)" d="M 51.31554 13.593712 
L 68.143827 13.593712 
L 68.143827 141.467947 
L 84.972115 141.467947 
L 84.972115 141.467947 
L 101.800402 141.467947 
L 101.800402 141.467947 
L 118.62869 141.467947 
L 118.62869 141.467947 
L 135.456977 141.467947 
L 135.456977 141.467947 
L 152.285264 141.467947 
L 152.285264 141.467947 
L 169.113552 141.467947 
L 169.113552 141.467947 
L 185.941839 141.467947 
L 185.941839 141.467947 
L 202.770126 141.467947 
L 202.770126 141.467947 
L 219.598414 141.467947 
L 219.598414 141.467947 
L 236.426701 141.467947 
L 236.426701 141.467947 
L 253.254988 141.467947 
L 253.254988 141.467947 
L 270.083276 141.467947 
L 270.083276 141.467947 
L 286.911563 141.467947 
L 286.911563 141.467947 
L 303.73985 141.467947 
L 303.73985 141.467947 
L 320.568138 141.467947 
L 320.568138 141.467947 
L 337.396425 141.467947 
L 337.396425 141.467947 
L 354.224713 141.467947 
L 354.224713 141.467947 
L 371.053 141.467947 
L 371.053 141.467947 
L 387.881287 141.467947 
L 387.881287 141.467947 
L 404.709575 141.467947 
L 404.709575 141.467947 
L 421.537862 141.467947 
L 421.537862 141.467947 
L 438.366149 141.467947 
L 438.366149 141.467947 
L 455.194437 141.467947 
L 455.194437 141.467947 
L 472.022724 141.467947 
L 472.022724 141.467947 
L 488.851011 141.467947 
L 488.851011 141.467947 
L 505.679299 141.467947 
L 505.679299 141.467947 
L 522.507586 141.467947 
L 522.507586 141.467947 
L 539.335873 141.467947 
L 539.335873 141.467947 
L 556.164161 141.467947 
L 556.164161 141.467947 
L 572.992448 141.467947 
L 572.992448 141.467947 
" style="fill:none;stroke:#0271ae;stroke-linejoin:miter;stroke-opacity:0.75;stroke-width:3;"/>
    <defs>
     <path d="M 0 1.25 
C 0.331504 1.25 0.649475 1.118292 0.883883 0.883883 
C 1.118292 0.649475 1.25 0.331504 1.25 0 
C 1.25 -0.331504 1.118292 -0.649475 0.883883 -0.883883 
C 0.649475 -1.118292 0.331504 -1.25 0 -1.25 
C -0.331504 -1.25 -0.649475 -1.118292 -0.883883 -0.883883 
C -1.118292 -0.649475 -1.25 -0.331504 -1.25 0 
C -1.25 0.331504 -1.118292 0.649475 -0.883883 0.883883 
C -0.649475 1.118292 -0.331504 1.25 0 1.25 
z
" id="m80a9f294b3"/>
    </defs>
    <g clip-path="url(#p8cbdd8497e)">
     <use style="fill:#0271ae;fill-opacity:0.75;" x="51.31554" xlink:href="#m80a9f294b3" y="13.593712"/>
     <use style="fill:#0271ae;fill-opacity:0.75;" x="68.143827" xlink:href="#m80a9f294b3" y="141.467947"/>
     <use style="fill:#0271ae;fill-opacity:0.75;" x="84.972115" xlink:href="#m80a9f294b3" y="141.467947"/>
     <use style="fill:#0271ae;fill-opacity:0.75;" x="101.800402" xlink:href="#m80a9f294b3" y="141.467947"/>
     <use style="fill:#0271ae;fill-opacity:0.75;" x="118.62869" xlink:href="#m80a9f294b3" y="141.467947"/>
     <use style="fill:#0271ae;fill-opacity:0.75;" x="135.456977" xlink:href="#m80a9f294b3" y="141.467947"/>
     <use style="fill:#0271ae;fill-opacity:0.75;" x="152.285264" xlink:href="#m80a9f294b3" y="141.467947"/>
     <use style="fill:#0271ae;fill-opacity:0.75;" x="169.113552" xlink:href="#m80a9f294b3" y="141.467947"/>
     <use style="fill:#0271ae;fill-opacity:0.75;" x="185.941839" xlink:href="#m80a9f294b3" y="141.467947"/>
     <use style="fill:#0271ae;fill-opacity:0.75;" x="202.770126" xlink:href="#m80a9f294b3" y="141.467947"/>
     <use style="fill:#0271ae;fill-opacity:0.75;" x="219.598414" xlink:href="#m80a9f294b3" y="141.467947"/>
     <use style="fill:#0271ae;fill-opacity:0.75;" x="236.426701" xlink:href="#m80a9f294b3" y="141.467947"/>
     <use style="fill:#0271ae;fill-opacity:0.75;" x="253.254988" xlink:href="#m80a9f294b3" y="141.467947"/>
     <use style="fill:#0271ae;fill-opacity:0.75;" x="270.083276" xlink:href="#m80a9f294b3" y="141.467947"/>
     <use style="fill:#0271ae;fill-opacity:0.75;" x="286.911563" xlink:href="#m80a9f294b3" y="141.467947"/>
     <use style="fill:#0271ae;fill-opacity:0.75;" x="303.73985" xlink:href="#m80a9f294b3" y="141.467947"/>
     <use style="fill:#0271ae;fill-opacity:0.75;" x="320.568138" xlink:href="#m80a9f294b3" y="141.467947"/>
     <use style="fill:#0271ae;fill-opacity:0.75;" x="337.396425" xlink:href="#m80a9f294b3" y="141.467947"/>
     <use style="fill:#0271ae;fill-opacity:0.75;" x="354.224713" xlink:href="#m80a9f294b3" y="141.467947"/>
     <use style="fill:#0271ae;fill-opacity:0.75;" x="371.053" xlink:href="#m80a9f294b3" y="141.467947"/>
     <use style="fill:#0271ae;fill-opacity:0.75;" x="387.881287" xlink:href="#m80a9f294b3" y="141.467947"/>
     <use style="fill:#0271ae;fill-opacity:0.75;" x="404.709575" xlink:href="#m80a9f294b3" y="141.467947"/>
     <use style="fill:#0271ae;fill-opacity:0.75;" x="421.537862" xlink:href="#m80a9f294b3" y="141.467947"/>
     <use style="fill:#0271ae;fill-opacity:0.75;" x="438.366149" xlink:href="#m80a9f294b3" y="141.467947"/>
     <use style="fill:#0271ae;fill-opacity:0.75;" x="455.194437" xlink:href="#m80a9f294b3" y="141.467947"/>
     <use style="fill:#0271ae;fill-opacity:0.75;" x="472.022724" xlink:href="#m80a9f294b3" y="141.467947"/>
     <use style="fill:#0271ae;fill-opacity:0.75;" x="488.851011" xlink:href="#m80a9f294b3" y="141.467947"/>
     <use style="fill:#0271ae;fill-opacity:0.75;" x="505.679299" xlink:href="#m80a9f294b3" y="141.467947"/>
     <use style="fill:#0271ae;fill-opacity:0.75;" x="522.507586" xlink:href="#m80a9f294b3" y="141.467947"/>
     <use style="fill:#0271ae;fill-opacity:0.75;" x="539.335873" xlink:href="#m80a9f294b3" y="141.467947"/>
     <use style="fill:#0271ae;fill-opacity:0.75;" x="556.164161" xlink:href="#m80a9f294b3" y="141.467947"/>
     <use style="fill:#0271ae;fill-opacity:0.75;" x="572.992448" xlink:href="#m80a9f294b3" y="141.467947"/>
    </g>
   </g>
   <g id="matplotlib.axis_1">
    <g id="xtick_1">
     <g id="line2d_2">
      <path clip-path="url(#p8cbdd8497e)" d="M 51.31554 147.861659 
L 51.31554 7.2 
" style="fill:none;stroke:#000000;stroke-linejoin:miter;stroke-opacity:0.2;stroke-width:0.5;"/>
     </g>
     <g id="line2d_3">
      <defs>
       <path d="M 0 0 
L 0 3.5 
" id="m62c8ae16cd" style="stroke:#000000;stroke-opacity:0.2;stroke-width:0.8;"/>
      </defs>
      <g>
       <use style="fill-opacity:0.2;stroke:#000000;stroke-opacity:0.2;stroke-width:0.8;" x="51.31554" xlink:href="#m62c8ae16cd" y="147.861659"/>
      </g>
     </g>
     <g id="text_1">
      <!-- $\mathdefault{0}$ -->
      <g transform="translate(47.828616 173.341188)scale(0.14 -0.14)">
       <defs>
        <path d="M 1683 4416 
C 691 4416 186 3628 186 2076 
C 186 1326 320 679 544 365 
C 768 51 1126 -128 1523 -128 
C 2490 -128 2976 704 2976 2345 
C 2976 3749 2560 4416 1683 4416 
z
M 1568 4191 
C 2189 4191 2438 3563 2438 2025 
C 2438 660 2195 96 1606 96 
C 986 96 723 743 723 2307 
C 723 3660 960 4191 1568 4191 
z
" id="URWPalladioL-Roma-30" transform="scale(0.015625)"/>
       </defs>
       <use transform="scale(0.996264)" xlink:href="#URWPalladioL-Roma-30"/>
      </g>
     </g>
    </g>
    <g id="xtick_2">
     <g id="line2d_4">
      <path clip-path="url(#p8cbdd8497e)" d="M 135.456977 147.861659 
L 135.456977 7.2 
" style="fill:none;stroke:#000000;stroke-linejoin:miter;stroke-opacity:0.2;stroke-width:0.5;"/>
     </g>
     <g id="line2d_5">
      <g>
       <use style="fill-opacity:0.2;stroke:#000000;stroke-opacity:0.2;stroke-width:0.8;" x="135.456977" xlink:href="#m62c8ae16cd" y="147.861659"/>
      </g>
     </g>
     <g id="text_2">
      <!-- $\mathdefault{5}$ -->
      <g transform="translate(131.970053 173.341188)scale(0.14 -0.14)">
       <defs>
        <path d="M 813 3891 
C 1638 3865 1997 3859 2765 3859 
L 2797 3891 
C 2784 4006 2784 4057 2784 4140 
C 2784 4230 2784 4281 2797 4396 
L 2765 4428 
C 2285 4403 1997 4396 1651 4396 
C 1299 4396 1018 4403 538 4428 
L 506 4396 
C 512 4006 518 3724 518 3520 
C 518 2976 499 2360 480 2076 
L 608 2038 
C 909 2341 1082 2432 1395 2432 
C 2010 2432 2394 1992 2394 1295 
C 2394 579 1984 160 1286 160 
C 941 160 621 276 531 443 
L 237 973 
L 83 882 
C 230 514 307 308 397 25 
C 576 -71 832 -128 1107 -128 
C 1536 -128 1990 57 2342 366 
C 2733 715 2938 1153 2938 1631 
C 2938 2360 2419 2873 1690 2873 
C 1382 2873 1152 2790 755 2553 
L 813 3891 
z
" id="URWPalladioL-Roma-35" transform="scale(0.015625)"/>
       </defs>
       <use transform="scale(0.996264)" xlink:href="#URWPalladioL-Roma-35"/>
      </g>
     </g>
    </g>
    <g id="xtick_3">
     <g id="line2d_6">
      <path clip-path="url(#p8cbdd8497e)" d="M 219.598414 147.861659 
L 219.598414 7.2 
" style="fill:none;stroke:#000000;stroke-linejoin:miter;stroke-opacity:0.2;stroke-width:0.5;"/>
     </g>
     <g id="line2d_7">
      <g>
       <use style="fill-opacity:0.2;stroke:#000000;stroke-opacity:0.2;stroke-width:0.8;" x="219.598414" xlink:href="#m62c8ae16cd" y="147.861659"/>
      </g>
     </g>
     <g id="text_3">
      <!-- $\mathdefault{10}$ -->
      <g transform="translate(212.624566 173.341188)scale(0.14 -0.14)">
       <defs>
        <path d="M 429 3571 
L 493 3571 
L 1318 3942 
C 1325 3949 1331 3949 1338 3949 
C 1376 3949 1389 3891 1389 3737 
L 1389 633 
C 1389 300 1318 230 973 211 
L 614 192 
L 614 0 
C 1600 0 1600 0 1670 0 
C 1754 0 1894 0 2112 -7 
C 2189 6 2413 6 2675 0 
L 2675 192 
L 2342 211 
C 1990 229 1926 299 1926 628 
L 1926 4383 
L 1837 4416 
C 1421 4199 966 4009 384 3807 
L 429 3571 
z
" id="URWPalladioL-Roma-31" transform="scale(0.015625)"/>
       </defs>
       <use transform="scale(0.996264)" xlink:href="#URWPalladioL-Roma-31"/>
       <use transform="translate(49.8132 0)scale(0.996264)" xlink:href="#URWPalladioL-Roma-30"/>
      </g>
     </g>
    </g>
    <g id="xtick_4">
     <g id="line2d_8">
      <path clip-path="url(#p8cbdd8497e)" d="M 303.73985 147.861659 
L 303.73985 7.2 
" style="fill:none;stroke:#000000;stroke-linejoin:miter;stroke-opacity:0.2;stroke-width:0.5;"/>
     </g>
     <g id="line2d_9">
      <g>
       <use style="fill-opacity:0.2;stroke:#000000;stroke-opacity:0.2;stroke-width:0.8;" x="303.73985" xlink:href="#m62c8ae16cd" y="147.861659"/>
      </g>
     </g>
     <g id="text_4">
      <!-- $\mathdefault{15}$ -->
      <g transform="translate(296.766002 173.341188)scale(0.14 -0.14)">
       <use transform="scale(0.996264)" xlink:href="#URWPalladioL-Roma-31"/>
       <use transform="translate(49.8132 0)scale(0.996264)" xlink:href="#URWPalladioL-Roma-35"/>
      </g>
     </g>
    </g>
    <g id="xtick_5">
     <g id="line2d_10">
      <path clip-path="url(#p8cbdd8497e)" d="M 387.881287 147.861659 
L 387.881287 7.2 
" style="fill:none;stroke:#000000;stroke-linejoin:miter;stroke-opacity:0.2;stroke-width:0.5;"/>
     </g>
     <g id="line2d_11">
      <g>
       <use style="fill-opacity:0.2;stroke:#000000;stroke-opacity:0.2;stroke-width:0.8;" x="387.881287" xlink:href="#m62c8ae16cd" y="147.861659"/>
      </g>
     </g>
     <g id="text_5">
      <!-- $\mathdefault{20}$ -->
      <g transform="translate(380.907439 173.341188)scale(0.14 -0.14)">
       <defs>
        <path d="M 102 166 
L 102 0 
C 1299 0 1299 0 1530 0 
C 1760 19 1760 19 2995 0 
C 2982 134 2982 198 2982 287 
C 2982 370 2982 434 2995 574 
C 2259 542 1965 536 781 510 
L 1946 1741 
C 2566 2398 2758 2749 2758 3228 
C 2758 3961 2259 4416 1446 4416 
C 986 4416 672 4287 358 3967 
L 250 3100 
L 435 3100 
L 518 3394 
C 621 3763 851 3923 1280 3923 
C 1830 3923 2182 3578 2182 3036 
C 2182 2558 1914 2086 1190 1320 
L 102 166 
z
" id="URWPalladioL-Roma-32" transform="scale(0.015625)"/>
       </defs>
       <use transform="scale(0.996264)" xlink:href="#URWPalladioL-Roma-32"/>
       <use transform="translate(49.8132 0)scale(0.996264)" xlink:href="#URWPalladioL-Roma-30"/>
      </g>
     </g>
    </g>
    <g id="xtick_6">
     <g id="line2d_12">
      <path clip-path="url(#p8cbdd8497e)" d="M 472.022724 147.861659 
L 472.022724 7.2 
" style="fill:none;stroke:#000000;stroke-linejoin:miter;stroke-opacity:0.2;stroke-width:0.5;"/>
     </g>
     <g id="line2d_13">
      <g>
       <use style="fill-opacity:0.2;stroke:#000000;stroke-opacity:0.2;stroke-width:0.8;" x="472.022724" xlink:href="#m62c8ae16cd" y="147.861659"/>
      </g>
     </g>
     <g id="text_6">
      <!-- $\mathdefault{25}$ -->
      <g transform="translate(465.048876 173.341188)scale(0.14 -0.14)">
       <use transform="scale(0.996264)" xlink:href="#URWPalladioL-Roma-32"/>
       <use transform="translate(49.8132 0)scale(0.996264)" xlink:href="#URWPalladioL-Roma-35"/>
      </g>
     </g>
    </g>
    <g id="xtick_7">
     <g id="line2d_14">
      <path clip-path="url(#p8cbdd8497e)" d="M 556.164161 147.861659 
L 556.164161 7.2 
" style="fill:none;stroke:#000000;stroke-linejoin:miter;stroke-opacity:0.2;stroke-width:0.5;"/>
     </g>
     <g id="line2d_15">
      <g>
       <use style="fill-opacity:0.2;stroke:#000000;stroke-opacity:0.2;stroke-width:0.8;" x="556.164161" xlink:href="#m62c8ae16cd" y="147.861659"/>
      </g>
     </g>
     <g id="text_7">
      <!-- $\mathdefault{30}$ -->
      <g transform="translate(549.190313 173.341188)scale(0.14 -0.14)">
       <defs>
        <path d="M 275 3196 
L 474 3196 
L 589 3553 
C 659 3770 1062 3987 1395 3987 
C 1811 3987 2150 3649 2150 3247 
C 2150 2769 1773 2368 1318 2368 
C 1267 2368 1197 2374 1114 2380 
L 1018 2387 
L 941 2047 
L 986 2008 
C 1229 2118 1350 2150 1523 2150 
C 2054 2150 2362 1808 2362 1222 
C 2362 565 1971 134 1376 134 
C 1082 134 819 231 627 411 
C 474 553 390 701 269 1048 
L 96 984 
C 230 591 282 359 320 38 
C 659 -77 941 -128 1178 -128 
C 1690 -128 2278 160 2630 591 
C 2848 855 2957 1139 2957 1441 
C 2957 1750 2829 2021 2598 2182 
C 2438 2297 2291 2348 1971 2406 
C 2483 2801 2675 3094 2675 3470 
C 2675 4038 2202 4416 1491 4416 
C 1056 4416 768 4294 461 3987 
L 275 3196 
z
" id="URWPalladioL-Roma-33" transform="scale(0.015625)"/>
       </defs>
       <use transform="scale(0.996264)" xlink:href="#URWPalladioL-Roma-33"/>
       <use transform="translate(49.8132 0)scale(0.996264)" xlink:href="#URWPalladioL-Roma-30"/>
      </g>
     </g>
    </g>
    <g id="text_8">
     <!-- Samples $n$ -->
     <g transform="translate(285.126601 189.828236)scale(0.12 -0.12)">
      <defs>
       <path d="M 2861 3371 
C 2861 3711 2886 3929 2950 4275 
C 2438 4479 2150 4544 1798 4544 
C 845 4544 154 3942 154 3102 
C 154 2788 237 2557 422 2384 
C 640 2185 934 2083 1555 1999 
C 2048 1929 2272 1858 2438 1711 
C 2605 1576 2682 1390 2682 1147 
C 2682 570 2202 153 1536 153 
C 1024 153 525 403 493 666 
L 442 1095 
L 237 1095 
C 243 980 243 877 243 839 
C 243 544 230 403 192 115 
C 557 -45 928 -128 1299 -128 
C 2413 -128 3219 544 3219 1474 
C 3219 1775 3136 1986 2957 2153 
C 2733 2365 2464 2448 1747 2544 
C 966 2647 691 2858 691 3352 
C 691 3890 1094 4275 1658 4275 
C 1907 4275 2144 4224 2317 4127 
C 2528 4018 2598 3922 2618 3736 
L 2656 3371 
L 2861 3371 
z
" id="URWPalladioL-Roma-53" transform="scale(0.015625)"/>
       <path d="M 2074 544 
L 2042 0 
C 2458 0 2458 0 2541 0 
C 2573 19 2733 12 3014 0 
L 3014 192 
L 2765 204 
C 2611 211 2586 262 2586 576 
L 2586 1751 
C 2586 2688 2317 3027 1574 3027 
C 1299 3027 1043 2956 800 2809 
L 461 2604 
L 461 2187 
L 627 2142 
L 710 2341 
C 845 2642 909 2688 1203 2688 
C 1805 2688 2054 2450 2074 1866 
L 1440 1751 
C 570 1590 205 1289 205 730 
C 205 224 506 -64 1011 -64 
C 1126 -64 1235 -45 1280 -13 
L 2074 544 
z
M 2074 806 
C 1888 544 1485 300 1235 300 
C 979 300 755 537 755 812 
C 755 1049 883 1273 1075 1395 
C 1235 1491 1587 1580 2074 1651 
L 2074 806 
z
" id="URWPalladioL-Roma-61" transform="scale(0.015625)"/>
       <path d="M 115 2579 
L 352 2579 
C 608 2579 634 2534 634 2112 
L 634 672 
C 634 268 614 224 397 211 
L 102 192 
L 102 0 
C 717 0 736 0 915 0 
C 1094 19 1261 12 1677 0 
L 1677 192 
L 1408 211 
C 1190 223 1171 268 1171 670 
L 1171 2023 
C 1171 2311 1594 2624 1978 2624 
C 2323 2624 2560 2298 2560 1813 
L 2560 670 
C 2560 268 2541 223 2323 211 
L 2029 192 
L 2029 0 
C 2669 0 2669 0 2829 0 
C 2989 19 2989 19 3629 0 
L 3629 192 
L 3334 211 
C 3117 223 3098 268 3098 670 
L 3098 2023 
C 3098 2311 3520 2624 3904 2624 
C 4250 2624 4486 2298 4486 1813 
L 4486 0 
C 4877 0 4883 0 4992 0 
C 5075 19 5075 19 5562 0 
L 5562 192 
L 5261 211 
C 5043 223 5024 268 5024 670 
L 5024 1985 
C 5024 2617 4653 3014 4064 3014 
C 3840 3014 3654 2956 3539 2854 
L 3053 2419 
C 2848 2841 2586 3014 2144 3014 
C 1907 3014 1728 2956 1613 2854 
L 1171 2445 
L 1171 2988 
L 1114 3008 
C 787 2873 454 2783 115 2745 
L 115 2579 
z
" id="URWPalladioL-Roma-6d" transform="scale(0.015625)"/>
       <path d="M 64 2566 
L 301 2566 
C 557 2566 582 2521 582 2100 
L 582 -1118 
C 582 -1523 563 -1568 346 -1581 
L 51 -1600 
L 51 -1792 
C 691 -1773 691 -1773 851 -1773 
C 1011 -1773 1011 -1773 1651 -1792 
L 1651 -1600 
L 1357 -1581 
C 1139 -1568 1120 -1523 1120 -1118 
L 1120 96 
C 1312 -20 1517 -64 1805 -64 
C 1990 -64 2157 -26 2259 38 
L 2989 511 
C 3245 677 3546 1334 3546 1743 
C 3546 2451 2957 3008 2214 3008 
C 1978 3008 1747 2943 1645 2847 
L 1120 2368 
L 1120 2982 
L 1062 3008 
C 736 2873 403 2783 64 2745 
L 64 2566 
z
M 1120 1966 
C 1120 2055 1152 2126 1235 2234 
C 1421 2470 1683 2591 2003 2591 
C 2605 2591 2989 2170 2989 1507 
C 2989 792 2560 262 1984 262 
C 1632 262 1370 377 1120 639 
L 1120 1966 
z
" id="URWPalladioL-Roma-70" transform="scale(0.015625)"/>
       <path d="M 147 4249 
L 506 4249 
C 621 4249 666 4179 666 3987 
L 666 672 
C 666 268 646 224 429 211 
L 134 192 
L 134 0 
C 774 0 774 0 934 0 
C 1094 19 1094 19 1734 0 
L 1734 192 
L 1440 211 
C 1222 224 1203 268 1203 672 
L 1203 4614 
L 1146 4665 
C 864 4557 653 4505 147 4429 
L 147 4249 
z
" id="URWPalladioL-Roma-6c" transform="scale(0.015625)"/>
       <path d="M 2797 447 
L 2714 511 
C 2304 268 2157 211 1882 211 
C 1466 211 1120 396 941 710 
C 819 921 774 1100 762 1472 
L 1696 1472 
C 2138 1472 2413 1491 2854 1561 
C 2861 1651 2867 1708 2867 1786 
C 2867 2526 2394 3008 1677 3008 
C 1440 3008 1165 2924 902 2771 
C 378 2468 166 2069 166 1401 
C 166 998 262 652 435 409 
C 691 70 1120 -128 1600 -128 
C 1837 -128 2074 -77 2336 38 
C 2509 108 2643 192 2669 230 
L 2797 447 
z
M 2298 1708 
C 1965 1696 1811 1689 1581 1689 
C 1286 1689 1120 1696 774 1728 
C 774 2030 800 2172 883 2339 
C 1018 2623 1293 2796 1600 2796 
C 1811 2796 1978 2713 2093 2539 
C 2234 2326 2278 2140 2298 1708 
z
" id="URWPalladioL-Roma-65" transform="scale(0.015625)"/>
       <path d="M 262 917 
C 262 474 243 282 192 25 
C 525 -84 774 -128 1069 -128 
C 1907 -128 2502 320 2502 949 
C 2502 1148 2445 1295 2323 1423 
C 2157 1584 1946 1661 1382 1770 
C 858 1872 685 2001 685 2296 
C 685 2617 909 2796 1299 2796 
C 1728 2796 2054 2572 2054 2270 
L 2054 2123 
L 2234 2123 
C 2240 2495 2246 2649 2266 2847 
C 1926 2963 1696 3008 1434 3008 
C 691 3008 237 2655 237 2078 
C 237 1770 378 1552 672 1417 
C 845 1340 1184 1237 1619 1141 
C 1907 1077 2029 942 2029 698 
C 2029 352 1709 108 1254 108 
C 787 108 454 333 454 654 
L 454 917 
L 262 917 
z
" id="URWPalladioL-Roma-73" transform="scale(0.015625)"/>
       <path d="M 154 2471 
L 198 2343 
L 403 2477 
C 640 2624 659 2637 704 2637 
C 774 2637 819 2573 819 2477 
C 819 2152 557 919 294 6 
L 339 -64 
C 499 -20 646 19 787 44 
C 909 849 1043 1264 1338 1705 
C 1683 2241 2163 2637 2451 2637 
C 2522 2637 2560 2579 2560 2484 
C 2560 2369 2541 2235 2490 2030 
L 2157 677 
C 2099 440 2074 293 2074 191 
C 2074 32 2144 -64 2266 -64 
C 2432 -64 2662 70 3290 536 
L 3226 651 
L 3059 542 
C 2874 421 2733 351 2669 351 
C 2624 351 2586 408 2586 479 
C 2586 511 2592 581 2598 606 
L 3021 2369 
C 3066 2554 3091 2733 3091 2841 
C 3091 2988 3021 3072 2893 3072 
C 2624 3072 2182 2829 1805 2477 
C 1562 2254 1382 2037 1050 1571 
L 1293 2599 
C 1318 2714 1331 2790 1331 2860 
C 1331 2995 1280 3072 1184 3072 
C 1050 3072 800 2931 333 2599 
L 154 2471 
z
" id="URWPalladioL-Ital-6e" transform="scale(0.015625)"/>
      </defs>
      <use transform="scale(0.996264)" xlink:href="#URWPalladioL-Roma-53"/>
      <use transform="translate(52.303815 0)scale(0.996264)" xlink:href="#URWPalladioL-Roma-61"/>
      <use transform="translate(102.117015 0)scale(0.996264)" xlink:href="#URWPalladioL-Roma-6d"/>
      <use transform="translate(190.08669 0)scale(0.996264)" xlink:href="#URWPalladioL-Roma-70"/>
      <use transform="translate(249.961083 0)scale(0.996264)" xlink:href="#URWPalladioL-Roma-6c"/>
      <use transform="translate(278.951445 0)scale(0.996264)" xlink:href="#URWPalladioL-Roma-65"/>
      <use transform="translate(326.67174 0)scale(0.996264)" xlink:href="#URWPalladioL-Roma-73"/>
      <use transform="translate(395.065106 0)scale(0.996264)" xlink:href="#URWPalladioL-Ital-6e"/>
     </g>
    </g>
   </g>
   <g id="matplotlib.axis_2">
    <g id="ytick_1">
     <g id="line2d_16">
      <path clip-path="url(#p8cbdd8497e)" d="M 47.108468 141.467947 
L 577.19952 141.467947 
" style="fill:none;stroke:#000000;stroke-linejoin:miter;stroke-opacity:0.2;stroke-width:0.5;"/>
     </g>
     <g id="line2d_17">
      <defs>
       <path d="M 0 0 
L -3.5 0 
" id="m9809134445" style="stroke:#000000;stroke-opacity:0.2;stroke-width:0.8;"/>
      </defs>
      <g>
       <use style="fill-opacity:0.2;stroke:#000000;stroke-opacity:0.2;stroke-width:0.8;" x="47.108468" xlink:href="#m9809134445" y="141.467947"/>
      </g>
     </g>
     <g id="text_9">
      <!-- $\mathdefault{0.00}$ -->
      <g transform="translate(7.2 146.457711)scale(0.14 -0.14)">
       <defs>
        <path d="M 794 678 
C 602 678 429 499 429 307 
C 429 115 602 -64 787 -64 
C 992 -64 1171 108 1171 307 
C 1171 499 992 678 794 678 
z
" id="URWPalladioL-Roma-2e" transform="scale(0.015625)"/>
       </defs>
       <use transform="scale(0.996264)" xlink:href="#URWPalladioL-Roma-30"/>
       <use transform="translate(49.8132 0)scale(0.996264)" xlink:href="#URWPalladioL-Roma-2e"/>
       <use transform="translate(74.719801 0)scale(0.996264)" xlink:href="#URWPalladioL-Roma-30"/>
       <use transform="translate(124.533001 0)scale(0.996264)" xlink:href="#URWPalladioL-Roma-30"/>
      </g>
     </g>
    </g>
    <g id="ytick_2">
     <g id="line2d_18">
      <path clip-path="url(#p8cbdd8497e)" d="M 47.108468 109.499388 
L 577.19952 109.499388 
" style="fill:none;stroke:#000000;stroke-linejoin:miter;stroke-opacity:0.2;stroke-width:0.5;"/>
     </g>
     <g id="line2d_19">
      <g>
       <use style="fill-opacity:0.2;stroke:#000000;stroke-opacity:0.2;stroke-width:0.8;" x="47.108468" xlink:href="#m9809134445" y="109.499388"/>
      </g>
     </g>
     <g id="text_10">
      <!-- $\mathdefault{0.25}$ -->
      <g transform="translate(7.2 114.489153)scale(0.14 -0.14)">
       <use transform="scale(0.996264)" xlink:href="#URWPalladioL-Roma-30"/>
       <use transform="translate(49.8132 0)scale(0.996264)" xlink:href="#URWPalladioL-Roma-2e"/>
       <use transform="translate(74.719801 0)scale(0.996264)" xlink:href="#URWPalladioL-Roma-32"/>
       <use transform="translate(124.533001 0)scale(0.996264)" xlink:href="#URWPalladioL-Roma-35"/>
      </g>
     </g>
    </g>
    <g id="ytick_3">
     <g id="line2d_20">
      <path clip-path="url(#p8cbdd8497e)" d="M 47.108468 77.530829 
L 577.19952 77.530829 
" style="fill:none;stroke:#000000;stroke-linejoin:miter;stroke-opacity:0.2;stroke-width:0.5;"/>
     </g>
     <g id="line2d_21">
      <g>
       <use style="fill-opacity:0.2;stroke:#000000;stroke-opacity:0.2;stroke-width:0.8;" x="47.108468" xlink:href="#m9809134445" y="77.530829"/>
      </g>
     </g>
     <g id="text_11">
      <!-- $\mathdefault{0.50}$ -->
      <g transform="translate(7.2 82.520594)scale(0.14 -0.14)">
       <use transform="scale(0.996264)" xlink:href="#URWPalladioL-Roma-30"/>
       <use transform="translate(49.8132 0)scale(0.996264)" xlink:href="#URWPalladioL-Roma-2e"/>
       <use transform="translate(74.719801 0)scale(0.996264)" xlink:href="#URWPalladioL-Roma-35"/>
       <use transform="translate(124.533001 0)scale(0.996264)" xlink:href="#URWPalladioL-Roma-30"/>
      </g>
     </g>
    </g>
    <g id="ytick_4">
     <g id="line2d_22">
      <path clip-path="url(#p8cbdd8497e)" d="M 47.108468 45.562271 
L 577.19952 45.562271 
" style="fill:none;stroke:#000000;stroke-linejoin:miter;stroke-opacity:0.2;stroke-width:0.5;"/>
     </g>
     <g id="line2d_23">
      <g>
       <use style="fill-opacity:0.2;stroke:#000000;stroke-opacity:0.2;stroke-width:0.8;" x="47.108468" xlink:href="#m9809134445" y="45.562271"/>
      </g>
     </g>
     <g id="text_12">
      <!-- $\mathdefault{0.75}$ -->
      <g transform="translate(7.2 50.552035)scale(0.14 -0.14)">
       <defs>
        <path d="M 358 83 
L 416 0 
C 666 0 666 0 710 0 
C 755 19 755 19 1005 0 
C 1274 700 1587 1369 2010 2141 
L 3181 4255 
L 3181 4448 
C 2490 4422 2266 4416 1747 4416 
C 1280 4416 966 4422 346 4448 
L 282 4416 
C 301 3807 301 3807 301 3743 
C 301 3672 301 3672 282 3087 
L 474 3087 
L 518 3447 
C 570 3846 614 3897 909 3897 
L 2618 3897 
C 2362 3370 2163 2996 1920 2604 
L 358 83 
z
" id="URWPalladioL-Roma-37" transform="scale(0.015625)"/>
       </defs>
       <use transform="scale(0.996264)" xlink:href="#URWPalladioL-Roma-30"/>
       <use transform="translate(49.8132 0)scale(0.996264)" xlink:href="#URWPalladioL-Roma-2e"/>
       <use transform="translate(74.719801 0)scale(0.996264)" xlink:href="#URWPalladioL-Roma-37"/>
       <use transform="translate(124.533001 0)scale(0.996264)" xlink:href="#URWPalladioL-Roma-35"/>
      </g>
     </g>
    </g>
    <g id="ytick_5">
     <g id="line2d_24">
      <path clip-path="url(#p8cbdd8497e)" d="M 47.108468 13.593712 
L 577.19952 13.593712 
" style="fill:none;stroke:#000000;stroke-linejoin:miter;stroke-opacity:0.2;stroke-width:0.5;"/>
     </g>
     <g id="line2d_25">
      <g>
       <use style="fill-opacity:0.2;stroke:#000000;stroke-opacity:0.2;stroke-width:0.8;" x="47.108468" xlink:href="#m9809134445" y="13.593712"/>
      </g>
     </g>
     <g id="text_13">
      <!-- $\mathdefault{1.00}$ -->
      <g transform="translate(7.2 18.583476)scale(0.14 -0.14)">
       <use transform="scale(0.996264)" xlink:href="#URWPalladioL-Roma-31"/>
       <use transform="translate(49.8132 0)scale(0.996264)" xlink:href="#URWPalladioL-Roma-2e"/>
       <use transform="translate(74.719801 0)scale(0.996264)" xlink:href="#URWPalladioL-Roma-30"/>
       <use transform="translate(124.533001 0)scale(0.996264)" xlink:href="#URWPalladioL-Roma-30"/>
      </g>
     </g>
    </g>
   </g>
   <g id="line2d_26">
    <path clip-path="url(#p8cbdd8497e)" d="M 51.31554 77.530829 
L 68.143827 77.530829 
L 68.143827 109.499388 
L 84.972115 109.499388 
L 84.972115 125.483667 
L 101.800402 125.483667 
L 101.800402 133.475807 
L 118.62869 133.475807 
L 118.62869 137.471877 
L 135.456977 137.471877 
L 135.456977 139.469912 
L 152.285264 139.469912 
L 152.285264 140.468929 
L 169.113552 140.468929 
L 169.113552 140.968438 
L 185.941839 140.968438 
L 185.941839 141.218192 
L 202.770126 141.218192 
L 202.770126 141.34307 
L 219.598414 141.34307 
L 219.598414 141.405508 
L 236.426701 141.405508 
L 236.426701 141.436728 
L 253.254988 141.436728 
L 253.254988 141.452337 
L 270.083276 141.452337 
L 270.083276 141.460142 
L 286.911563 141.460142 
L 286.911563 141.464044 
L 303.73985 141.464044 
L 303.73985 141.465996 
L 320.568138 141.465996 
L 320.568138 141.466971 
L 337.396425 141.466971 
L 337.396425 141.467459 
L 354.224713 141.467459 
L 354.224713 141.467703 
L 371.053 141.467703 
L 371.053 141.467825 
L 387.881287 141.467825 
L 387.881287 141.467886 
L 404.709575 141.467886 
L 404.709575 141.467916 
L 421.537862 141.467916 
L 421.537862 141.467932 
L 438.366149 141.467932 
L 438.366149 141.467939 
L 455.194437 141.467939 
L 455.194437 141.467943 
L 472.022724 141.467943 
L 472.022724 141.467945 
L 488.851011 141.467945 
L 488.851011 141.467946 
L 505.679299 141.467946 
L 505.679299 141.467946 
L 522.507586 141.467946 
L 522.507586 141.467947 
L 539.335873 141.467947 
L 539.335873 141.467947 
L 556.164161 141.467947 
L 556.164161 141.467947 
L 572.992448 141.467947 
L 572.992448 141.467947 
" style="fill:none;stroke:#6e3b87;stroke-linejoin:miter;stroke-width:3;"/>
    <defs>
     <path d="M 0 1.25 
C 0.331504 1.25 0.649475 1.118292 0.883883 0.883883 
C 1.118292 0.649475 1.25 0.331504 1.25 0 
C 1.25 -0.331504 1.118292 -0.649475 0.883883 -0.883883 
C 0.649475 -1.118292 0.331504 -1.25 0 -1.25 
C -0.331504 -1.25 -0.649475 -1.118292 -0.883883 -0.883883 
C -1.118292 -0.649475 -1.25 -0.331504 -1.25 0 
C -1.25 0.331504 -1.118292 0.649475 -0.883883 0.883883 
C -0.649475 1.118292 -0.331504 1.25 0 1.25 
z
" id="m89d821b997"/>
    </defs>
    <g clip-path="url(#p8cbdd8497e)">
     <use style="fill:#6e3b87;" x="51.31554" xlink:href="#m89d821b997" y="77.530829"/>
     <use style="fill:#6e3b87;" x="68.143827" xlink:href="#m89d821b997" y="109.499388"/>
     <use style="fill:#6e3b87;" x="84.972115" xlink:href="#m89d821b997" y="125.483667"/>
     <use style="fill:#6e3b87;" x="101.800402" xlink:href="#m89d821b997" y="133.475807"/>
     <use style="fill:#6e3b87;" x="118.62869" xlink:href="#m89d821b997" y="137.471877"/>
     <use style="fill:#6e3b87;" x="135.456977" xlink:href="#m89d821b997" y="139.469912"/>
     <use style="fill:#6e3b87;" x="152.285264" xlink:href="#m89d821b997" y="140.468929"/>
     <use style="fill:#6e3b87;" x="169.113552" xlink:href="#m89d821b997" y="140.968438"/>
     <use style="fill:#6e3b87;" x="185.941839" xlink:href="#m89d821b997" y="141.218192"/>
     <use style="fill:#6e3b87;" x="202.770126" xlink:href="#m89d821b997" y="141.34307"/>
     <use style="fill:#6e3b87;" x="219.598414" xlink:href="#m89d821b997" y="141.405508"/>
     <use style="fill:#6e3b87;" x="236.426701" xlink:href="#m89d821b997" y="141.436728"/>
     <use style="fill:#6e3b87;" x="253.254988" xlink:href="#m89d821b997" y="141.452337"/>
     <use style="fill:#6e3b87;" x="270.083276" xlink:href="#m89d821b997" y="141.460142"/>
     <use style="fill:#6e3b87;" x="286.911563" xlink:href="#m89d821b997" y="141.464044"/>
     <use style="fill:#6e3b87;" x="303.73985" xlink:href="#m89d821b997" y="141.465996"/>
     <use style="fill:#6e3b87;" x="320.568138" xlink:href="#m89d821b997" y="141.466971"/>
     <use style="fill:#6e3b87;" x="337.396425" xlink:href="#m89d821b997" y="141.467459"/>
     <use style="fill:#6e3b87;" x="354.224713" xlink:href="#m89d821b997" y="141.467703"/>
     <use style="fill:#6e3b87;" x="371.053" xlink:href="#m89d821b997" y="141.467825"/>
     <use style="fill:#6e3b87;" x="387.881287" xlink:href="#m89d821b997" y="141.467886"/>
     <use style="fill:#6e3b87;" x="404.709575" xlink:href="#m89d821b997" y="141.467916"/>
     <use style="fill:#6e3b87;" x="421.537862" xlink:href="#m89d821b997" y="141.467932"/>
     <use style="fill:#6e3b87;" x="438.366149" xlink:href="#m89d821b997" y="141.467939"/>
     <use style="fill:#6e3b87;" x="455.194437" xlink:href="#m89d821b997" y="141.467943"/>
     <use style="fill:#6e3b87;" x="472.022724" xlink:href="#m89d821b997" y="141.467945"/>
     <use style="fill:#6e3b87;" x="488.851011" xlink:href="#m89d821b997" y="141.467946"/>
     <use style="fill:#6e3b87;" x="505.679299" xlink:href="#m89d821b997" y="141.467946"/>
     <use style="fill:#6e3b87;" x="522.507586" xlink:href="#m89d821b997" y="141.467947"/>
     <use style="fill:#6e3b87;" x="539.335873" xlink:href="#m89d821b997" y="141.467947"/>
     <use style="fill:#6e3b87;" x="556.164161" xlink:href="#m89d821b997" y="141.467947"/>
     <use style="fill:#6e3b87;" x="572.992448" xlink:href="#m89d821b997" y="141.467947"/>
    </g>
   </g>
   <g id="legend_1">
    <g id="patch_3">
     <path d="M 417.452541 60.225403 
L 567.39952 60.225403 
Q 570.19952 60.225403 570.19952 57.425403 
L 570.19952 17 
Q 570.19952 14.2 567.39952 14.2 
L 417.452541 14.2 
Q 414.652541 14.2 414.652541 17 
L 414.652541 57.425403 
Q 414.652541 60.225403 417.452541 60.225403 
z
" style="fill:#ffffff;opacity:0.95;stroke:#cccccc;stroke-linejoin:miter;stroke-width:0.5;"/>
    </g>
    <g id="line2d_27">
     <path d="M 420.252541 24.879529 
L 434.252541 24.879529 
" style="fill:none;stroke:#0271ae;stroke-linejoin:miter;stroke-opacity:0.75;stroke-width:3;"/>
    </g>
    <g id="line2d_28">
     <g>
      <use style="fill:#0271ae;fill-opacity:0.75;" x="427.252541" xlink:href="#m80a9f294b3" y="24.879529"/>
     </g>
    </g>
    <g id="text_14">
     <!-- Impulse $x$ -->
     <g style="fill:#0271ae;" transform="translate(445.452541 29.779529)scale(0.14 -0.14)">
      <defs>
       <path d="M 1382 3633 
C 1382 4135 1414 4185 1709 4204 
L 2016 4223 
L 2016 4416 
C 1549 4396 1408 4396 1075 4396 
C 755 4396 602 4403 141 4416 
L 141 4223 
L 448 4204 
C 742 4185 774 4135 774 3633 
L 774 782 
C 774 280 742 230 448 211 
L 141 192 
L 141 0 
C 518 -7 742 0 1075 0 
C 1408 19 1638 12 2016 0 
L 2016 192 
L 1709 211 
C 1414 230 1382 281 1382 787 
L 1382 3633 
z
" id="URWPalladioL-Roma-49" transform="scale(0.015625)"/>
       <path d="M 3219 2982 
L 3162 3008 
C 2835 2873 2502 2784 2163 2745 
L 2163 2567 
L 2400 2567 
C 2656 2567 2682 2522 2682 2101 
L 2682 1060 
C 2682 920 2592 741 2445 594 
C 2266 415 2061 326 1811 326 
C 1587 326 1408 396 1306 517 
C 1216 620 1171 817 1171 1098 
L 1171 2982 
L 1114 3008 
C 787 2873 454 2784 115 2745 
L 115 2567 
L 352 2567 
C 608 2567 634 2522 634 2101 
L 634 1028 
C 634 581 672 383 787 224 
C 928 32 1171 -64 1536 -64 
C 1824 -58 2080 32 2253 192 
L 2682 588 
C 2682 403 2675 300 2656 0 
C 3085 0 3091 0 3187 0 
C 3277 19 3277 19 3718 0 
L 3718 192 
L 3456 211 
C 3238 224 3219 262 3219 672 
L 3219 2982 
z
" id="URWPalladioL-Roma-75" transform="scale(0.015625)"/>
       <path d="M 134 567 
C 134 440 122 358 83 153 
C 70 76 64 57 58 12 
C 154 -39 256 -64 333 -64 
C 544 -64 794 121 992 421 
L 1478 1164 
L 1549 726 
C 1632 185 1779 -64 2010 -64 
C 2150 -64 2355 44 2560 230 
L 2874 510 
L 2816 631 
C 2586 440 2426 345 2323 345 
C 2227 345 2144 409 2080 536 
C 2022 656 1952 891 1920 1075 
L 1805 1716 
L 2029 2027 
C 2330 2439 2502 2585 2701 2585 
C 2803 2585 2880 2534 2912 2439 
L 3002 2465 
L 3098 3007 
C 3021 3052 2963 3072 2906 3072 
C 2650 3072 2394 2841 1997 2255 
L 1760 1906 
L 1722 2211 
C 1645 2841 1472 3072 1094 3072 
C 928 3072 787 3020 730 2937 
L 358 2408 
L 467 2344 
C 659 2560 787 2649 909 2649 
C 1120 2649 1261 2389 1370 1767 
L 1440 1373 
L 1184 980 
C 909 555 691 352 512 352 
C 416 352 346 377 333 409 
L 262 586 
L 134 567 
z
" id="URWPalladioL-Ital-78" transform="scale(0.015625)"/>
      </defs>
      <use transform="scale(0.996264)" xlink:href="#URWPalladioL-Roma-49"/>
      <use transform="translate(33.574079 0)scale(0.996264)" xlink:href="#URWPalladioL-Roma-6d"/>
      <use transform="translate(121.543753 0)scale(0.996264)" xlink:href="#URWPalladioL-Roma-70"/>
      <use transform="translate(181.418147 0)scale(0.996264)" xlink:href="#URWPalladioL-Roma-75"/>
      <use transform="translate(241.491882 0)scale(0.996264)" xlink:href="#URWPalladioL-Roma-6c"/>
      <use transform="translate(270.482243 0)scale(0.996264)" xlink:href="#URWPalladioL-Roma-73"/>
      <use transform="translate(312.723709 0)scale(0.996264)" xlink:href="#URWPalladioL-Roma-65"/>
      <use transform="translate(388.289581 0)scale(0.996264)" xlink:href="#URWPalladioL-Ital-78"/>
     </g>
    </g>
    <g id="line2d_29">
     <path d="M 420.252541 45.792231 
L 434.252541 45.792231 
" style="fill:none;stroke:#6e3b87;stroke-linejoin:miter;stroke-width:3;"/>
    </g>
    <g id="line2d_30">
     <g>
      <use style="fill:#6e3b87;" x="427.252541" xlink:href="#m89d821b997" y="45.792231"/>
     </g>
    </g>
    <g id="text_15">
     <!-- Impulse response $y$ -->
     <g style="fill:#6e3b87;" transform="translate(445.452541 50.692231)scale(0.14 -0.14)">
      <defs>
       <path d="M 147 2579 
L 384 2579 
C 640 2579 666 2534 666 2112 
L 666 672 
C 666 268 646 224 429 211 
L 134 192 
L 134 0 
C 595 -7 762 0 922 0 
C 1050 19 1050 19 1837 0 
L 1837 192 
L 1504 211 
C 1216 230 1203 249 1203 669 
L 1203 1763 
C 1203 2145 1459 2463 1773 2463 
C 1965 2463 2099 2374 2202 2171 
L 2336 2171 
L 2394 2937 
C 2323 2982 2208 3008 2093 3008 
C 1901 3008 1696 2905 1562 2745 
L 1203 2324 
L 1203 2982 
L 1146 3008 
C 819 2873 486 2783 147 2745 
L 147 2579 
z
" id="URWPalladioL-Roma-72" transform="scale(0.015625)"/>
       <path d="M 1786 3008 
C 851 3008 205 2347 205 1391 
C 205 487 774 -128 1600 -128 
C 2586 -128 3290 557 3290 1520 
C 3290 2386 2662 3008 1786 3008 
z
M 1670 2796 
C 2259 2796 2694 2155 2694 1282 
C 2694 545 2368 83 1850 83 
C 1222 83 800 699 800 1609 
C 800 2379 1107 2796 1670 2796 
z
" id="URWPalladioL-Roma-6f" transform="scale(0.015625)"/>
       <path d="M 2624 0 
C 3014 0 3021 0 3130 0 
C 3219 19 3219 19 3661 0 
L 3661 192 
L 3398 211 
C 3181 223 3162 262 3162 670 
L 3162 1902 
C 3162 2649 2810 3014 2093 3014 
C 1856 3014 1722 2969 1587 2854 
L 1101 2432 
L 1101 2988 
L 1043 3008 
C 717 2873 384 2784 45 2746 
L 45 2568 
L 282 2568 
C 538 2568 563 2523 563 2103 
L 563 669 
C 563 268 544 223 326 211 
L 38 192 
L 38 0 
C 474 -7 646 0 832 0 
C 1018 19 1190 12 1626 0 
L 1626 192 
L 1338 211 
C 1120 223 1101 268 1101 670 
L 1101 2023 
C 1101 2311 1523 2624 1914 2624 
C 2342 2624 2624 2304 2624 1813 
L 2624 0 
z
" id="URWPalladioL-Roma-6e" transform="scale(0.015625)"/>
       <path d="M -45 -1132 
C -51 -1176 -51 -1214 -51 -1245 
C -51 -1517 186 -1741 474 -1741 
C 1152 -1741 1856 -955 2234 216 
L 3136 3014 
L 3066 3072 
C 2880 3001 2733 2963 2592 2950 
L 2368 2111 
C 2291 1812 2067 1348 1856 1036 
C 1632 712 1318 432 1178 432 
C 1101 432 1043 578 1050 737 
L 1056 820 
L 1152 2053 
C 1165 2250 1178 2492 1178 2670 
C 1178 2956 1133 3072 1024 3072 
C 941 3072 851 3027 544 2816 
L 19 2460 
L 90 2346 
L 410 2537 
L 435 2556 
C 499 2594 544 2613 570 2613 
C 659 2613 710 2492 710 2282 
C 710 2276 710 2238 704 2187 
L 595 642 
L 589 388 
C 589 121 704 -64 864 -64 
C 1101 -64 1638 477 2118 1195 
L 1805 108 
C 1478 -1012 1158 -1472 710 -1472 
C 486 -1472 314 -1302 314 -1081 
C 314 -1049 320 -999 326 -942 
L 262 -917 
L -45 -1132 
z
" id="URWPalladioL-Ital-79" transform="scale(0.015625)"/>
      </defs>
      <use transform="scale(0.996264)" xlink:href="#URWPalladioL-Roma-49"/>
      <use transform="translate(33.574079 0)scale(0.996264)" xlink:href="#URWPalladioL-Roma-6d"/>
      <use transform="translate(121.543753 0)scale(0.996264)" xlink:href="#URWPalladioL-Roma-70"/>
      <use transform="translate(181.418147 0)scale(0.996264)" xlink:href="#URWPalladioL-Roma-75"/>
      <use transform="translate(241.491882 0)scale(0.996264)" xlink:href="#URWPalladioL-Roma-6c"/>
      <use transform="translate(270.482243 0)scale(0.996264)" xlink:href="#URWPalladioL-Roma-73"/>
      <use transform="translate(312.723709 0)scale(0.996264)" xlink:href="#URWPalladioL-Roma-65"/>
      <use transform="translate(385.350605 0)scale(0.996264)" xlink:href="#URWPalladioL-Roma-72"/>
      <use transform="translate(422.909922 0)scale(0.996264)" xlink:href="#URWPalladioL-Roma-65"/>
      <use transform="translate(470.630217 0)scale(0.996264)" xlink:href="#URWPalladioL-Roma-73"/>
      <use transform="translate(512.871684 0)scale(0.996264)" xlink:href="#URWPalladioL-Roma-70"/>
      <use transform="translate(572.746077 0)scale(0.996264)" xlink:href="#URWPalladioL-Roma-6f"/>
      <use transform="translate(627.141658 0)scale(0.996264)" xlink:href="#URWPalladioL-Roma-6e"/>
      <use transform="translate(685.123718 0)scale(0.996264)" xlink:href="#URWPalladioL-Roma-73"/>
      <use transform="translate(727.365185 0)scale(0.996264)" xlink:href="#URWPalladioL-Roma-65"/>
      <use transform="translate(801.237379 0)scale(0.996264)" xlink:href="#URWPalladioL-Ital-79"/>
     </g>
    </g>
   </g>
  </g>
 </g>
 <defs>
  <clipPath id="p8cbdd8497e">
   <rect height="140.661659" width="530.091052" x="47.108468" y="7.2"/>
  </clipPath>
 </defs>
</svg>
