<?xml version="1.0" encoding="utf-8" standalone="no"?>
<!DOCTYPE svg PUBLIC "-//W3C//DTD SVG 1.1//EN"
  "http://www.w3.org/Graphics/SVG/1.1/DTD/svg11.dtd">
<svg height="329.212705pt" version="1.1" viewBox="0 0 590.545289 329.212705" width="590.545289pt" xmlns="http://www.w3.org/2000/svg" xmlns:xlink="http://www.w3.org/1999/xlink">
 <metadata>
  <rdf:RDF xmlns:cc="http://creativecommons.org/ns#" xmlns:dc="http://purl.org/dc/elements/1.1/" xmlns:rdf="http://www.w3.org/1999/02/22-rdf-syntax-ns#">
   <cc:Work>
    <dc:type rdf:resource="http://purl.org/dc/dcmitype/StillImage"/>
    <dc:date>2020-08-12T07:38:35.082782</dc:date>
    <dc:format>image/svg+xml</dc:format>
    <dc:creator>
     <cc:Agent>
      <dc:title>Matplotlib v3.3.0rc1.post382+g019a75231, https://matplotlib.org/</dc:title>
     </cc:Agent>
    </dc:creator>
   </cc:Work>
  </rdf:RDF>
 </metadata>
 <defs>
  <style type="text/css">*{stroke-linecap:butt;stroke-linejoin:round;}</style>
 </defs>
 <g id="figure_1">
  <g id="patch_1">
   <path d="M 0 329.212705 
L 590.545289 329.212705 
L 590.545289 0 
L 0 0 
z
" style="fill:none;"/>
  </g>
  <g id="patch_2">
   <path d="M 21.03244 128.373656 
Q 2.073027 79.943129 30.618482 33.815856 
" style="fill:none;opacity:0.25;stroke:#0271ae;stroke-linecap:round;stroke-width:2;"/>
   <path d="M 21.436664 123.919825 
L 21.03244 128.373656 
L 17.71191 125.377979 
" style="fill:none;opacity:0.25;stroke:#0271ae;stroke-linecap:round;stroke-width:2;"/>
  </g>
  <g id="patch_3">
   <path d="M 38.41173 111.728709 
Q 27.847544 59.022988 65.163907 17.28117 
" style="fill:none;opacity:0.25;stroke:#0271ae;stroke-linecap:round;stroke-width:2;"/>
   <path d="M 39.586613 107.41366 
L 38.41173 111.728709 
L 35.66462 108.199773 
" style="fill:none;opacity:0.25;stroke:#0271ae;stroke-linecap:round;stroke-width:2;"/>
  </g>
  <g id="patch_4">
   <path d="M 55.770633 115.231933 
Q 53.62206 58.18278 99.709333 20.826417 
" style="fill:none;opacity:0.25;stroke:#0271ae;stroke-linecap:round;stroke-width:2;"/>
   <path d="M 57.618676 111.159497 
L 55.770633 115.231933 
L 53.621509 111.310037 
" style="fill:none;opacity:0.25;stroke:#0271ae;stroke-linecap:round;stroke-width:2;"/>
  </g>
  <g id="patch_5">
   <path d="M 317.569969 120.317837 
Q 159.680286 139.699934 47.891195 23.405389 
" style="fill:none;opacity:0.25;stroke:#dc2830;stroke-linecap:round;stroke-width:2;"/>
   <path d="M 313.356086 118.820109 
L 317.569969 120.317837 
L 313.843456 122.790307 
" style="fill:none;opacity:0.25;stroke:#dc2830;stroke-linecap:round;stroke-width:2;"/>
  </g>
  <g id="patch_6">
   <path d="M 334.568211 113.240021 
Q 185.454802 128.284646 82.43662 16.375555 
" style="fill:none;opacity:0.25;stroke:#dc2830;stroke-linecap:round;stroke-width:2;"/>
   <path d="M 330.387647 111.65166 
L 334.568211 113.240021 
L 330.789184 115.631455 
" style="fill:none;opacity:0.25;stroke:#dc2830;stroke-linecap:round;stroke-width:2;"/>
  </g>
  <g id="patch_7">
   <path d="M 351.567011 126.766358 
Q 211.229318 137.479788 116.982046 29.956151 
" style="fill:none;opacity:0.25;stroke:#dc2830;stroke-linecap:round;stroke-width:2;"/>
   <path d="M 347.426378 125.076636 
L 351.567011 126.766358 
L 347.730853 129.065031 
" style="fill:none;opacity:0.25;stroke:#dc2830;stroke-linecap:round;stroke-width:2;"/>
  </g>
  <g id="patch_8">
   <path d="M 16.553812 225.052579 
Q -4.505154 177.679492 21.847573 130.455856 
" style="fill:none;opacity:0.25;stroke:#ffc438;stroke-linecap:round;stroke-width:2;"/>
   <path d="M 16.756545 220.585041 
L 16.553812 225.052579 
L 13.101421 222.209869 
" style="fill:none;opacity:0.25;stroke:#ffc438;stroke-linecap:round;stroke-width:2;"/>
  </g>
  <g id="patch_9">
   <path d="M 33.394847 211.93472 
Q 20.731151 160.304599 55.854787 117.466417 
" style="fill:none;opacity:0.25;stroke:#ffc438;stroke-linecap:round;stroke-width:2;"/>
   <path d="M 34.384406 207.573439 
L 33.394847 211.93472 
L 30.499558 208.526304 
" style="fill:none;opacity:0.25;stroke:#ffc438;stroke-linecap:round;stroke-width:2;"/>
  </g>
  <g id="patch_10">
   <path d="M 50.223336 260.354035 
Q 45.967457 204.396391 89.862002 165.943664 
" style="fill:none;opacity:0.25;stroke:#ffc438;stroke-linecap:round;stroke-width:2;"/>
   <path d="M 51.914231 256.213881 
L 50.223336 260.354035 
L 47.92575 256.517227 
" style="fill:none;opacity:0.25;stroke:#ffc438;stroke-linecap:round;stroke-width:2;"/>
  </g>
  <g id="patch_11">
   <path d="M 169.394943 208.571231 
Q 128.792998 129.350261 38.85118 113.92117 
" style="fill:none;opacity:0.25;stroke:#6e3b87;stroke-linecap:round;stroke-width:2;"/>
   <path d="M 169.350393 204.099317 
L 169.394943 208.571231 
L 165.790681 205.923722 
" style="fill:none;opacity:0.25;stroke:#6e3b87;stroke-linecap:round;stroke-width:2;"/>
  </g>
  <g id="patch_12">
   <path d="M 186.001062 233.59885 
Q 154.029304 158.829385 72.858395 139.014839 
" style="fill:none;opacity:0.25;stroke:#6e3b87;stroke-linecap:round;stroke-width:2;"/>
   <path d="M 186.267323 229.134647 
L 186.001062 233.59885 
L 182.589457 230.707319 
" style="fill:none;opacity:0.25;stroke:#6e3b87;stroke-linecap:round;stroke-width:2;"/>
  </g>
  <g id="patch_13">
   <path d="M 202.64026 276.996445 
Q 179.265609 206.67835 106.865609 182.47835 
" style="fill:none;opacity:0.25;stroke:#6e3b87;stroke-linecap:round;stroke-width:2;"/>
   <path d="M 203.276383 272.569782 
L 202.64026 276.996445 
L 199.480604 273.831548 
" style="fill:none;opacity:0.25;stroke:#6e3b87;stroke-linecap:round;stroke-width:2;"/>
  </g>
  <g id="patch_14">
   <path d="M 310.203335 214.603188 
Q 291.243922 166.172662 319.789377 120.045389 
" style="fill:none;opacity:0.25;stroke:#0095b7;stroke-linecap:round;stroke-width:2;"/>
   <path d="M 310.607558 210.149358 
L 310.203335 214.603188 
L 306.882805 211.607512 
" style="fill:none;opacity:0.25;stroke:#0095b7;stroke-linecap:round;stroke-width:2;"/>
  </g>
  <g id="patch_15">
   <path d="M 327.044413 221.043691 
Q 316.480227 168.337969 353.796591 126.596151 
" style="fill:none;opacity:0.25;stroke:#0095b7;stroke-linecap:round;stroke-width:2;"/>
   <path d="M 328.219296 216.728642 
L 327.044413 221.043691 
L 324.297304 217.514755 
" style="fill:none;opacity:0.25;stroke:#0095b7;stroke-linecap:round;stroke-width:2;"/>
  </g>
  <g id="patch_16">
   <path d="M 343.865106 270.759647 
Q 341.716533 213.710495 387.803806 176.354131 
" style="fill:none;opacity:0.25;stroke:#0095b7;stroke-linecap:round;stroke-width:2;"/>
   <path d="M 345.713148 266.687211 
L 343.865106 270.759647 
L 341.715982 266.837751 
" style="fill:none;opacity:0.25;stroke:#0095b7;stroke-linecap:round;stroke-width:2;"/>
  </g>
  <g id="patch_17">
   <path d="M 462.98377 207.649302 
Q 424.542075 129.54101 336.792984 113.015555 
" style="fill:none;opacity:0.25;stroke:#88b93b;stroke-linecap:round;stroke-width:2;"/>
   <path d="M 463.011911 203.177255 
L 462.98377 207.649302 
L 459.423017 204.943561 
" style="fill:none;opacity:0.25;stroke:#88b93b;stroke-linecap:round;stroke-width:2;"/>
  </g>
  <g id="patch_18">
   <path d="M 479.597466 247.399189 
Q 449.77838 173.742758 370.800198 152.831848 
" style="fill:none;opacity:0.25;stroke:#88b93b;stroke-linecap:round;stroke-width:2;"/>
   <path d="M 479.950289 242.940992 
L 479.597466 247.399189 
L 476.242602 244.442013 
" style="fill:none;opacity:0.25;stroke:#88b93b;stroke-linecap:round;stroke-width:2;"/>
  </g>
  <g id="patch_19">
   <path d="M 496.246131 277.886235 
Q 475.014686 208.680329 404.807413 183.383965 
" style="fill:none;opacity:0.25;stroke:#88b93b;stroke-linecap:round;stroke-width:2;"/>
   <path d="M 496.984996 273.475557 
L 496.246131 277.886235 
L 493.160908 274.648736 
" style="fill:none;opacity:0.25;stroke:#88b93b;stroke-linecap:round;stroke-width:2;"/>
  </g>
  <g id="axes_1">
   <g id="patch_20">
    <path d="M 13.345769 95.91952 
L 583.345289 95.91952 
L 583.345289 7.2 
L 13.345769 7.2 
z
" style="fill:none;"/>
   </g>
   <g id="line2d_1">
    <defs>
     <path d="M -6 6 
L 6 6 
L 6 -6 
L -6 -6 
z
" id="ma4b837a54e"/>
    </defs>
    <g clip-path="url(#p3220d60e95)">
     <use style="fill:#0271ae;fill-opacity:0.5;" x="30.618482" xlink:href="#ma4b837a54e" y="33.815856"/>
     <use style="fill:#0271ae;fill-opacity:0.5;" x="65.163907" xlink:href="#ma4b837a54e" y="17.28117"/>
     <use style="fill:#0271ae;fill-opacity:0.5;" x="99.709333" xlink:href="#ma4b837a54e" y="20.826417"/>
     <use style="fill:#0271ae;fill-opacity:0.5;" x="134.254758" xlink:href="#ma4b837a54e" y="42.374839"/>
     <use style="fill:#0271ae;fill-opacity:0.5;" x="168.800184" xlink:href="#ma4b837a54e" y="69.303664"/>
     <use style="fill:#0271ae;fill-opacity:0.5;" x="203.345609" xlink:href="#ma4b837a54e" y="85.83835"/>
     <use style="fill:#0271ae;fill-opacity:0.5;" x="237.891035" xlink:href="#ma4b837a54e" y="82.293103"/>
     <use style="fill:#0271ae;fill-opacity:0.5;" x="272.43646" xlink:href="#ma4b837a54e" y="60.744681"/>
     <use style="fill:#0271ae;fill-opacity:0.5;" x="306.981886" xlink:href="#ma4b837a54e" y="33.815856"/>
     <use style="fill:#0271ae;fill-opacity:0.5;" x="341.527311" xlink:href="#ma4b837a54e" y="17.28117"/>
     <use style="fill:#0271ae;fill-opacity:0.5;" x="376.072737" xlink:href="#ma4b837a54e" y="20.826417"/>
     <use style="fill:#0271ae;fill-opacity:0.5;" x="410.618162" xlink:href="#ma4b837a54e" y="42.374839"/>
     <use style="fill:#0271ae;fill-opacity:0.5;" x="445.163587" xlink:href="#ma4b837a54e" y="69.303664"/>
     <use style="fill:#0271ae;fill-opacity:0.5;" x="479.709013" xlink:href="#ma4b837a54e" y="85.83835"/>
     <use style="fill:#0271ae;fill-opacity:0.5;" x="514.254438" xlink:href="#ma4b837a54e" y="82.293103"/>
     <use style="fill:#0271ae;fill-opacity:0.5;" x="548.799864" xlink:href="#ma4b837a54e" y="60.744681"/>
    </g>
   </g>
   <g id="line2d_2">
    <defs>
     <path d="M -6 6 
L 6 6 
L 6 -6 
L -6 -6 
z
" id="m1d88de514f"/>
    </defs>
    <g clip-path="url(#p3220d60e95)">
     <use style="fill:#dc2830;fill-opacity:0.5;" x="47.891195" xlink:href="#m1d88de514f" y="23.405389"/>
     <use style="fill:#dc2830;fill-opacity:0.5;" x="82.43662" xlink:href="#m1d88de514f" y="16.375555"/>
     <use style="fill:#dc2830;fill-opacity:0.5;" x="116.982046" xlink:href="#m1d88de514f" y="29.956151"/>
     <use style="fill:#dc2830;fill-opacity:0.5;" x="151.527471" xlink:href="#m1d88de514f" y="56.191848"/>
     <use style="fill:#dc2830;fill-opacity:0.5;" x="186.072897" xlink:href="#m1d88de514f" y="79.714131"/>
     <use style="fill:#dc2830;fill-opacity:0.5;" x="220.618322" xlink:href="#m1d88de514f" y="86.743965"/>
     <use style="fill:#dc2830;fill-opacity:0.5;" x="255.163747" xlink:href="#m1d88de514f" y="73.163369"/>
     <use style="fill:#dc2830;fill-opacity:0.5;" x="289.709173" xlink:href="#m1d88de514f" y="46.927672"/>
     <use style="fill:#dc2830;fill-opacity:0.5;" x="324.254598" xlink:href="#m1d88de514f" y="23.405389"/>
     <use style="fill:#dc2830;fill-opacity:0.5;" x="358.800024" xlink:href="#m1d88de514f" y="16.375555"/>
     <use style="fill:#dc2830;fill-opacity:0.5;" x="393.345449" xlink:href="#m1d88de514f" y="29.956151"/>
     <use style="fill:#dc2830;fill-opacity:0.5;" x="427.890875" xlink:href="#m1d88de514f" y="56.191848"/>
     <use style="fill:#dc2830;fill-opacity:0.5;" x="462.4363" xlink:href="#m1d88de514f" y="79.714131"/>
     <use style="fill:#dc2830;fill-opacity:0.5;" x="496.981726" xlink:href="#m1d88de514f" y="86.743965"/>
     <use style="fill:#dc2830;fill-opacity:0.5;" x="531.527151" xlink:href="#m1d88de514f" y="73.163369"/>
     <use style="fill:#dc2830;fill-opacity:0.5;" x="566.072577" xlink:href="#m1d88de514f" y="46.927672"/>
    </g>
   </g>
   <g id="matplotlib.axis_1"/>
   <g id="matplotlib.axis_2">
    <g id="ytick_1">
     <g id="line2d_3">
      <path clip-path="url(#p3220d60e95)" d="M 13.345769 51.55976 
L 583.345289 51.55976 
" style="fill:none;stroke:#000000;stroke-linecap:square;stroke-opacity:0.2;stroke-width:0.5;"/>
     </g>
     <g id="line2d_4">
      <defs>
       <path d="M 0 0 
L -3.5 0 
" id="m172c8dccca" style="stroke:#000000;stroke-opacity:0.2;stroke-width:0.8;"/>
      </defs>
      <g>
       <use style="fill-opacity:0.2;stroke:#000000;stroke-opacity:0.2;stroke-width:0.8;" x="13.345769" xlink:href="#m172c8dccca" y="51.55976"/>
      </g>
     </g>
    </g>
   </g>
   <g id="line2d_5">
    <path clip-path="url(#p3220d60e95)" d="M 30.618482 33.815856 
L 47.891195 33.815856 
L 47.891195 23.405389 
L 65.163907 23.405389 
L 65.163907 17.28117 
L 82.43662 17.28117 
L 82.43662 16.375555 
L 99.709333 16.375555 
L 99.709333 20.826417 
L 116.982046 20.826417 
L 116.982046 29.956151 
L 134.254758 29.956151 
L 134.254758 42.374839 
L 151.527471 42.374839 
L 151.527471 56.191848 
L 168.800184 56.191848 
L 168.800184 69.303664 
L 186.072897 69.303664 
L 186.072897 79.714131 
L 203.345609 79.714131 
L 203.345609 85.83835 
L 220.618322 85.83835 
L 220.618322 86.743965 
L 237.891035 86.743965 
L 237.891035 82.293103 
L 255.163747 82.293103 
L 255.163747 73.163369 
L 272.43646 73.163369 
L 272.43646 60.744681 
L 289.709173 60.744681 
L 289.709173 46.927672 
L 306.981886 46.927672 
L 306.981886 33.815856 
L 324.254598 33.815856 
L 324.254598 23.405389 
L 341.527311 23.405389 
L 341.527311 17.28117 
L 358.800024 17.28117 
L 358.800024 16.375555 
L 376.072737 16.375555 
L 376.072737 20.826417 
L 393.345449 20.826417 
L 393.345449 29.956151 
L 410.618162 29.956151 
L 410.618162 42.374839 
L 427.890875 42.374839 
L 427.890875 56.191848 
L 445.163587 56.191848 
L 445.163587 69.303664 
L 462.4363 69.303664 
L 462.4363 79.714131 
L 479.709013 79.714131 
L 479.709013 85.83835 
L 496.981726 85.83835 
L 496.981726 86.743965 
L 514.254438 86.743965 
L 514.254438 82.293103 
L 531.527151 82.293103 
L 531.527151 73.163369 
L 548.799864 73.163369 
L 548.799864 60.744681 
L 566.072577 60.744681 
L 566.072577 46.927672 
" style="fill:none;stroke:#343837;stroke-linecap:square;stroke-width:3;"/>
    <defs>
     <path d="M 0 2.5 
C 0.663008 2.5 1.29895 2.236584 1.767767 1.767767 
C 2.236584 1.29895 2.5 0.663008 2.5 0 
C 2.5 -0.663008 2.236584 -1.29895 1.767767 -1.767767 
C 1.29895 -2.236584 0.663008 -2.5 0 -2.5 
C -0.663008 -2.5 -1.29895 -2.236584 -1.767767 -1.767767 
C -2.236584 -1.29895 -2.5 -0.663008 -2.5 0 
C -2.5 0.663008 -2.236584 1.29895 -1.767767 1.767767 
C -1.29895 2.236584 -0.663008 2.5 0 2.5 
z
" id="m2e93033068"/>
    </defs>
    <g clip-path="url(#p3220d60e95)">
     <use style="fill:#343837;" x="30.618482" xlink:href="#m2e93033068" y="33.815856"/>
     <use style="fill:#343837;" x="47.891195" xlink:href="#m2e93033068" y="23.405389"/>
     <use style="fill:#343837;" x="65.163907" xlink:href="#m2e93033068" y="17.28117"/>
     <use style="fill:#343837;" x="82.43662" xlink:href="#m2e93033068" y="16.375555"/>
     <use style="fill:#343837;" x="99.709333" xlink:href="#m2e93033068" y="20.826417"/>
     <use style="fill:#343837;" x="116.982046" xlink:href="#m2e93033068" y="29.956151"/>
     <use style="fill:#343837;" x="134.254758" xlink:href="#m2e93033068" y="42.374839"/>
     <use style="fill:#343837;" x="151.527471" xlink:href="#m2e93033068" y="56.191848"/>
     <use style="fill:#343837;" x="168.800184" xlink:href="#m2e93033068" y="69.303664"/>
     <use style="fill:#343837;" x="186.072897" xlink:href="#m2e93033068" y="79.714131"/>
     <use style="fill:#343837;" x="203.345609" xlink:href="#m2e93033068" y="85.83835"/>
     <use style="fill:#343837;" x="220.618322" xlink:href="#m2e93033068" y="86.743965"/>
     <use style="fill:#343837;" x="237.891035" xlink:href="#m2e93033068" y="82.293103"/>
     <use style="fill:#343837;" x="255.163747" xlink:href="#m2e93033068" y="73.163369"/>
     <use style="fill:#343837;" x="272.43646" xlink:href="#m2e93033068" y="60.744681"/>
     <use style="fill:#343837;" x="289.709173" xlink:href="#m2e93033068" y="46.927672"/>
     <use style="fill:#343837;" x="306.981886" xlink:href="#m2e93033068" y="33.815856"/>
     <use style="fill:#343837;" x="324.254598" xlink:href="#m2e93033068" y="23.405389"/>
     <use style="fill:#343837;" x="341.527311" xlink:href="#m2e93033068" y="17.28117"/>
     <use style="fill:#343837;" x="358.800024" xlink:href="#m2e93033068" y="16.375555"/>
     <use style="fill:#343837;" x="376.072737" xlink:href="#m2e93033068" y="20.826417"/>
     <use style="fill:#343837;" x="393.345449" xlink:href="#m2e93033068" y="29.956151"/>
     <use style="fill:#343837;" x="410.618162" xlink:href="#m2e93033068" y="42.374839"/>
     <use style="fill:#343837;" x="427.890875" xlink:href="#m2e93033068" y="56.191848"/>
     <use style="fill:#343837;" x="445.163587" xlink:href="#m2e93033068" y="69.303664"/>
     <use style="fill:#343837;" x="462.4363" xlink:href="#m2e93033068" y="79.714131"/>
     <use style="fill:#343837;" x="479.709013" xlink:href="#m2e93033068" y="85.83835"/>
     <use style="fill:#343837;" x="496.981726" xlink:href="#m2e93033068" y="86.743965"/>
     <use style="fill:#343837;" x="514.254438" xlink:href="#m2e93033068" y="82.293103"/>
     <use style="fill:#343837;" x="531.527151" xlink:href="#m2e93033068" y="73.163369"/>
     <use style="fill:#343837;" x="548.799864" xlink:href="#m2e93033068" y="60.744681"/>
     <use style="fill:#343837;" x="566.072577" xlink:href="#m2e93033068" y="46.927672"/>
    </g>
   </g>
  </g>
  <g id="axes_2">
   <g id="patch_21">
    <path d="M 13.345769 192.55952 
L 293.905289 192.55952 
L 293.905289 103.84 
L 13.345769 103.84 
z
" style="fill:none;"/>
   </g>
   <g id="line2d_6">
    <defs>
     <path d="M -6 6 
L 6 6 
L 6 -6 
L -6 -6 
z
" id="m87dd7ef432"/>
    </defs>
    <g clip-path="url(#pdb17ce347f)">
     <use style="fill:#ffc438;fill-opacity:0.5;" x="21.847573" xlink:href="#m87dd7ef432" y="130.455856"/>
     <use style="fill:#ffc438;fill-opacity:0.5;" x="55.854787" xlink:href="#m87dd7ef432" y="117.466417"/>
     <use style="fill:#ffc438;fill-opacity:0.5;" x="89.862002" xlink:href="#m87dd7ef432" y="165.943664"/>
     <use style="fill:#ffc438;fill-opacity:0.5;" x="123.869217" xlink:href="#m87dd7ef432" y="178.933103"/>
     <use style="fill:#ffc438;fill-opacity:0.5;" x="157.876431" xlink:href="#m87dd7ef432" y="130.455856"/>
     <use style="fill:#ffc438;fill-opacity:0.5;" x="191.883646" xlink:href="#m87dd7ef432" y="117.466417"/>
     <use style="fill:#ffc438;fill-opacity:0.5;" x="225.89086" xlink:href="#m87dd7ef432" y="165.943664"/>
     <use style="fill:#ffc438;fill-opacity:0.5;" x="259.898075" xlink:href="#m87dd7ef432" y="178.933103"/>
    </g>
   </g>
   <g id="line2d_7">
    <defs>
     <path d="M -6 6 
L 6 6 
L 6 -6 
L -6 -6 
z
" id="m13bbae31ab"/>
    </defs>
    <g clip-path="url(#pdb17ce347f)">
     <use style="fill:#6e3b87;fill-opacity:0.5;" x="38.85118" xlink:href="#m13bbae31ab" y="113.92117"/>
     <use style="fill:#6e3b87;fill-opacity:0.5;" x="72.858395" xlink:href="#m13bbae31ab" y="139.014839"/>
     <use style="fill:#6e3b87;fill-opacity:0.5;" x="106.865609" xlink:href="#m13bbae31ab" y="182.47835"/>
     <use style="fill:#6e3b87;fill-opacity:0.5;" x="140.872824" xlink:href="#m13bbae31ab" y="157.384681"/>
     <use style="fill:#6e3b87;fill-opacity:0.5;" x="174.880038" xlink:href="#m13bbae31ab" y="113.92117"/>
     <use style="fill:#6e3b87;fill-opacity:0.5;" x="208.887253" xlink:href="#m13bbae31ab" y="139.014839"/>
     <use style="fill:#6e3b87;fill-opacity:0.5;" x="242.894467" xlink:href="#m13bbae31ab" y="182.47835"/>
     <use style="fill:#6e3b87;fill-opacity:0.5;" x="276.901682" xlink:href="#m13bbae31ab" y="157.384681"/>
    </g>
   </g>
   <g id="matplotlib.axis_3"/>
   <g id="matplotlib.axis_4">
    <g id="ytick_2">
     <g id="line2d_8">
      <path clip-path="url(#pdb17ce347f)" d="M 13.345769 148.19976 
L 293.905289 148.19976 
" style="fill:none;stroke:#000000;stroke-linecap:square;stroke-opacity:0.2;stroke-width:0.5;"/>
     </g>
     <g id="line2d_9">
      <g>
       <use style="fill-opacity:0.2;stroke:#000000;stroke-opacity:0.2;stroke-width:0.8;" x="13.345769" xlink:href="#m172c8dccca" y="148.19976"/>
      </g>
     </g>
    </g>
   </g>
   <g id="line2d_10">
    <path clip-path="url(#pdb17ce347f)" d="M 21.847573 130.455856 
L 38.85118 130.455856 
L 38.85118 113.92117 
L 55.854787 113.92117 
L 55.854787 117.466417 
L 72.858395 117.466417 
L 72.858395 139.014839 
L 89.862002 139.014839 
L 89.862002 165.943664 
L 106.865609 165.943664 
L 106.865609 182.47835 
L 123.869217 182.47835 
L 123.869217 178.933103 
L 140.872824 178.933103 
L 140.872824 157.384681 
L 157.876431 157.384681 
L 157.876431 130.455856 
L 174.880038 130.455856 
L 174.880038 113.92117 
L 191.883646 113.92117 
L 191.883646 117.466417 
L 208.887253 117.466417 
L 208.887253 139.014839 
L 225.89086 139.014839 
L 225.89086 165.943664 
L 242.894467 165.943664 
L 242.894467 182.47835 
L 259.898075 182.47835 
L 259.898075 178.933103 
L 276.901682 178.933103 
L 276.901682 157.384681 
" style="fill:none;stroke:#0271ae;stroke-linecap:square;stroke-width:3;"/>
    <defs>
     <path d="M 0 2.5 
C 0.663008 2.5 1.29895 2.236584 1.767767 1.767767 
C 2.236584 1.29895 2.5 0.663008 2.5 0 
C 2.5 -0.663008 2.236584 -1.29895 1.767767 -1.767767 
C 1.29895 -2.236584 0.663008 -2.5 0 -2.5 
C -0.663008 -2.5 -1.29895 -2.236584 -1.767767 -1.767767 
C -2.236584 -1.29895 -2.5 -0.663008 -2.5 0 
C -2.5 0.663008 -2.236584 1.29895 -1.767767 1.767767 
C -1.29895 2.236584 -0.663008 2.5 0 2.5 
z
" id="m31c5d06e4e"/>
    </defs>
    <g clip-path="url(#pdb17ce347f)">
     <use style="fill:#0271ae;" x="21.847573" xlink:href="#m31c5d06e4e" y="130.455856"/>
     <use style="fill:#0271ae;" x="38.85118" xlink:href="#m31c5d06e4e" y="113.92117"/>
     <use style="fill:#0271ae;" x="55.854787" xlink:href="#m31c5d06e4e" y="117.466417"/>
     <use style="fill:#0271ae;" x="72.858395" xlink:href="#m31c5d06e4e" y="139.014839"/>
     <use style="fill:#0271ae;" x="89.862002" xlink:href="#m31c5d06e4e" y="165.943664"/>
     <use style="fill:#0271ae;" x="106.865609" xlink:href="#m31c5d06e4e" y="182.47835"/>
     <use style="fill:#0271ae;" x="123.869217" xlink:href="#m31c5d06e4e" y="178.933103"/>
     <use style="fill:#0271ae;" x="140.872824" xlink:href="#m31c5d06e4e" y="157.384681"/>
     <use style="fill:#0271ae;" x="157.876431" xlink:href="#m31c5d06e4e" y="130.455856"/>
     <use style="fill:#0271ae;" x="174.880038" xlink:href="#m31c5d06e4e" y="113.92117"/>
     <use style="fill:#0271ae;" x="191.883646" xlink:href="#m31c5d06e4e" y="117.466417"/>
     <use style="fill:#0271ae;" x="208.887253" xlink:href="#m31c5d06e4e" y="139.014839"/>
     <use style="fill:#0271ae;" x="225.89086" xlink:href="#m31c5d06e4e" y="165.943664"/>
     <use style="fill:#0271ae;" x="242.894467" xlink:href="#m31c5d06e4e" y="182.47835"/>
     <use style="fill:#0271ae;" x="259.898075" xlink:href="#m31c5d06e4e" y="178.933103"/>
     <use style="fill:#0271ae;" x="276.901682" xlink:href="#m31c5d06e4e" y="157.384681"/>
    </g>
   </g>
  </g>
  <g id="axes_3">
   <g id="patch_22">
    <path d="M 302.785769 192.55952 
L 583.345289 192.55952 
L 583.345289 103.84 
L 302.785769 103.84 
z
" style="fill:none;"/>
   </g>
   <g id="line2d_11">
    <defs>
     <path d="M -6 6 
L 6 6 
L 6 -6 
L -6 -6 
z
" id="mf77fbbf9ff"/>
    </defs>
    <g clip-path="url(#p4d9feacffa)">
     <use style="fill:#0095b7;fill-opacity:0.5;" x="319.789377" xlink:href="#mf77fbbf9ff" y="120.045389"/>
     <use style="fill:#0095b7;fill-opacity:0.5;" x="353.796591" xlink:href="#mf77fbbf9ff" y="126.596151"/>
     <use style="fill:#0095b7;fill-opacity:0.5;" x="387.803806" xlink:href="#mf77fbbf9ff" y="176.354131"/>
     <use style="fill:#0095b7;fill-opacity:0.5;" x="421.81102" xlink:href="#mf77fbbf9ff" y="169.803369"/>
     <use style="fill:#0095b7;fill-opacity:0.5;" x="455.818235" xlink:href="#mf77fbbf9ff" y="120.045389"/>
     <use style="fill:#0095b7;fill-opacity:0.5;" x="489.825449" xlink:href="#mf77fbbf9ff" y="126.596151"/>
     <use style="fill:#0095b7;fill-opacity:0.5;" x="523.832664" xlink:href="#mf77fbbf9ff" y="176.354131"/>
     <use style="fill:#0095b7;fill-opacity:0.5;" x="557.839878" xlink:href="#mf77fbbf9ff" y="169.803369"/>
    </g>
   </g>
   <g id="line2d_12">
    <defs>
     <path d="M -6 6 
L 6 6 
L 6 -6 
L -6 -6 
z
" id="m887c2875ad"/>
    </defs>
    <g clip-path="url(#p4d9feacffa)">
     <use style="fill:#88b93b;fill-opacity:0.5;" x="336.792984" xlink:href="#m887c2875ad" y="113.015555"/>
     <use style="fill:#88b93b;fill-opacity:0.5;" x="370.800198" xlink:href="#m887c2875ad" y="152.831848"/>
     <use style="fill:#88b93b;fill-opacity:0.5;" x="404.807413" xlink:href="#m887c2875ad" y="183.383965"/>
     <use style="fill:#88b93b;fill-opacity:0.5;" x="438.814627" xlink:href="#m887c2875ad" y="143.567672"/>
     <use style="fill:#88b93b;fill-opacity:0.5;" x="472.821842" xlink:href="#m887c2875ad" y="113.015555"/>
     <use style="fill:#88b93b;fill-opacity:0.5;" x="506.829057" xlink:href="#m887c2875ad" y="152.831848"/>
     <use style="fill:#88b93b;fill-opacity:0.5;" x="540.836271" xlink:href="#m887c2875ad" y="183.383965"/>
     <use style="fill:#88b93b;fill-opacity:0.5;" x="574.843486" xlink:href="#m887c2875ad" y="143.567672"/>
    </g>
   </g>
   <g id="matplotlib.axis_5"/>
   <g id="matplotlib.axis_6">
    <g id="ytick_3">
     <g id="line2d_13">
      <path clip-path="url(#p4d9feacffa)" d="M 302.785769 148.19976 
L 583.345289 148.19976 
" style="fill:none;stroke:#000000;stroke-linecap:square;stroke-opacity:0.2;stroke-width:0.5;"/>
     </g>
     <g id="line2d_14">
      <g>
       <use style="fill-opacity:0.2;stroke:#000000;stroke-opacity:0.2;stroke-width:0.8;" x="302.785769" xlink:href="#m172c8dccca" y="148.19976"/>
      </g>
     </g>
    </g>
   </g>
   <g id="line2d_15">
    <path clip-path="url(#p4d9feacffa)" d="M 319.789377 120.045389 
L 336.792984 120.045389 
L 336.792984 113.015555 
L 353.796591 113.015555 
L 353.796591 126.596151 
L 370.800198 126.596151 
L 370.800198 152.831848 
L 387.803806 152.831848 
L 387.803806 176.354131 
L 404.807413 176.354131 
L 404.807413 183.383965 
L 421.81102 183.383965 
L 421.81102 169.803369 
L 438.814627 169.803369 
L 438.814627 143.567672 
L 455.818235 143.567672 
L 455.818235 120.045389 
L 472.821842 120.045389 
L 472.821842 113.015555 
L 489.825449 113.015555 
L 489.825449 126.596151 
L 506.829057 126.596151 
L 506.829057 152.831848 
L 523.832664 152.831848 
L 523.832664 176.354131 
L 540.836271 176.354131 
L 540.836271 183.383965 
L 557.839878 183.383965 
L 557.839878 169.803369 
L 574.843486 169.803369 
L 574.843486 143.567672 
" style="fill:none;stroke:#dc2830;stroke-linecap:square;stroke-width:3;"/>
    <defs>
     <path d="M 0 2.5 
C 0.663008 2.5 1.29895 2.236584 1.767767 1.767767 
C 2.236584 1.29895 2.5 0.663008 2.5 0 
C 2.5 -0.663008 2.236584 -1.29895 1.767767 -1.767767 
C 1.29895 -2.236584 0.663008 -2.5 0 -2.5 
C -0.663008 -2.5 -1.29895 -2.236584 -1.767767 -1.767767 
C -2.236584 -1.29895 -2.5 -0.663008 -2.5 0 
C -2.5 0.663008 -2.236584 1.29895 -1.767767 1.767767 
C -1.29895 2.236584 -0.663008 2.5 0 2.5 
z
" id="mf940866472"/>
    </defs>
    <g clip-path="url(#p4d9feacffa)">
     <use style="fill:#dc2830;" x="319.789377" xlink:href="#mf940866472" y="120.045389"/>
     <use style="fill:#dc2830;" x="336.792984" xlink:href="#mf940866472" y="113.015555"/>
     <use style="fill:#dc2830;" x="353.796591" xlink:href="#mf940866472" y="126.596151"/>
     <use style="fill:#dc2830;" x="370.800198" xlink:href="#mf940866472" y="152.831848"/>
     <use style="fill:#dc2830;" x="387.803806" xlink:href="#mf940866472" y="176.354131"/>
     <use style="fill:#dc2830;" x="404.807413" xlink:href="#mf940866472" y="183.383965"/>
     <use style="fill:#dc2830;" x="421.81102" xlink:href="#mf940866472" y="169.803369"/>
     <use style="fill:#dc2830;" x="438.814627" xlink:href="#mf940866472" y="143.567672"/>
     <use style="fill:#dc2830;" x="455.818235" xlink:href="#mf940866472" y="120.045389"/>
     <use style="fill:#dc2830;" x="472.821842" xlink:href="#mf940866472" y="113.015555"/>
     <use style="fill:#dc2830;" x="489.825449" xlink:href="#mf940866472" y="126.596151"/>
     <use style="fill:#dc2830;" x="506.829057" xlink:href="#mf940866472" y="152.831848"/>
     <use style="fill:#dc2830;" x="523.832664" xlink:href="#mf940866472" y="176.354131"/>
     <use style="fill:#dc2830;" x="540.836271" xlink:href="#mf940866472" y="183.383965"/>
     <use style="fill:#dc2830;" x="557.839878" xlink:href="#mf940866472" y="169.803369"/>
     <use style="fill:#dc2830;" x="574.843486" xlink:href="#mf940866472" y="143.567672"/>
    </g>
   </g>
  </g>
  <g id="axes_4">
   <g id="patch_23">
    <path d="M 13.345769 289.19952 
L 149.185289 289.19952 
L 149.185289 200.48 
L 13.345769 200.48 
z
" style="fill:none;"/>
   </g>
   <g id="matplotlib.axis_7"/>
   <g id="matplotlib.axis_8">
    <g id="ytick_4">
     <g id="line2d_16">
      <path clip-path="url(#p96b9bfad5e)" d="M 13.345769 244.83976 
L 149.185289 244.83976 
" style="fill:none;stroke:#000000;stroke-linecap:square;stroke-opacity:0.2;stroke-width:0.5;"/>
     </g>
     <g id="line2d_17">
      <g>
       <use style="fill-opacity:0.2;stroke:#000000;stroke-opacity:0.2;stroke-width:0.8;" x="13.345769" xlink:href="#m172c8dccca" y="244.83976"/>
      </g>
     </g>
    </g>
   </g>
   <g id="line2d_18">
    <path clip-path="url(#p96b9bfad5e)" d="M 17.462118 227.095856 
L 33.927515 227.095856 
L 33.927515 214.106417 
L 50.392911 214.106417 
L 50.392911 262.583664 
L 66.858307 262.583664 
L 66.858307 275.573103 
L 83.323704 275.573103 
L 83.323704 227.095856 
L 99.7891 227.095856 
L 99.7891 214.106417 
L 116.254497 214.106417 
L 116.254497 262.583664 
L 132.719893 262.583664 
L 132.719893 275.573103 
" style="fill:none;stroke:#ffc438;stroke-linecap:square;stroke-width:3;"/>
    <defs>
     <path d="M 0 2.5 
C 0.663008 2.5 1.29895 2.236584 1.767767 1.767767 
C 2.236584 1.29895 2.5 0.663008 2.5 0 
C 2.5 -0.663008 2.236584 -1.29895 1.767767 -1.767767 
C 1.29895 -2.236584 0.663008 -2.5 0 -2.5 
C -0.663008 -2.5 -1.29895 -2.236584 -1.767767 -1.767767 
C -2.236584 -1.29895 -2.5 -0.663008 -2.5 0 
C -2.5 0.663008 -2.236584 1.29895 -1.767767 1.767767 
C -1.29895 2.236584 -0.663008 2.5 0 2.5 
z
" id="mb7b55ca2b4"/>
    </defs>
    <g clip-path="url(#p96b9bfad5e)">
     <use style="fill:#ffc438;" x="17.462118" xlink:href="#mb7b55ca2b4" y="227.095856"/>
     <use style="fill:#ffc438;" x="33.927515" xlink:href="#mb7b55ca2b4" y="214.106417"/>
     <use style="fill:#ffc438;" x="50.392911" xlink:href="#mb7b55ca2b4" y="262.583664"/>
     <use style="fill:#ffc438;" x="66.858307" xlink:href="#mb7b55ca2b4" y="275.573103"/>
     <use style="fill:#ffc438;" x="83.323704" xlink:href="#mb7b55ca2b4" y="227.095856"/>
     <use style="fill:#ffc438;" x="99.7891" xlink:href="#mb7b55ca2b4" y="214.106417"/>
     <use style="fill:#ffc438;" x="116.254497" xlink:href="#mb7b55ca2b4" y="262.583664"/>
     <use style="fill:#ffc438;" x="132.719893" xlink:href="#mb7b55ca2b4" y="275.573103"/>
    </g>
   </g>
  </g>
  <g id="axes_5">
   <g id="patch_24">
    <path d="M 158.065769 289.19952 
L 293.905289 289.19952 
L 293.905289 200.48 
L 158.065769 200.48 
z
" style="fill:none;"/>
   </g>
   <g id="matplotlib.axis_9"/>
   <g id="matplotlib.axis_10">
    <g id="ytick_5">
     <g id="line2d_19">
      <path clip-path="url(#pc95b930213)" d="M 158.065769 244.83976 
L 293.905289 244.83976 
" style="fill:none;stroke:#000000;stroke-linecap:square;stroke-opacity:0.2;stroke-width:0.5;"/>
     </g>
     <g id="line2d_20">
      <g>
       <use style="fill-opacity:0.2;stroke:#000000;stroke-opacity:0.2;stroke-width:0.8;" x="158.065769" xlink:href="#m172c8dccca" y="244.83976"/>
      </g>
     </g>
    </g>
   </g>
   <g id="line2d_21">
    <path clip-path="url(#pc95b930213)" d="M 170.414817 210.56117 
L 186.880213 210.56117 
L 186.880213 235.654839 
L 203.345609 235.654839 
L 203.345609 279.11835 
L 219.811006 279.11835 
L 219.811006 254.024681 
L 236.276402 254.024681 
L 236.276402 210.56117 
L 252.741798 210.56117 
L 252.741798 235.654839 
L 269.207195 235.654839 
L 269.207195 279.11835 
L 285.672591 279.11835 
L 285.672591 254.024681 
" style="fill:none;stroke:#6e3b87;stroke-linecap:square;stroke-width:3;"/>
    <defs>
     <path d="M 0 2.5 
C 0.663008 2.5 1.29895 2.236584 1.767767 1.767767 
C 2.236584 1.29895 2.5 0.663008 2.5 0 
C 2.5 -0.663008 2.236584 -1.29895 1.767767 -1.767767 
C 1.29895 -2.236584 0.663008 -2.5 0 -2.5 
C -0.663008 -2.5 -1.29895 -2.236584 -1.767767 -1.767767 
C -2.236584 -1.29895 -2.5 -0.663008 -2.5 0 
C -2.5 0.663008 -2.236584 1.29895 -1.767767 1.767767 
C -1.29895 2.236584 -0.663008 2.5 0 2.5 
z
" id="m31c3997077"/>
    </defs>
    <g clip-path="url(#pc95b930213)">
     <use style="fill:#6e3b87;" x="170.414817" xlink:href="#m31c3997077" y="210.56117"/>
     <use style="fill:#6e3b87;" x="186.880213" xlink:href="#m31c3997077" y="235.654839"/>
     <use style="fill:#6e3b87;" x="203.345609" xlink:href="#m31c3997077" y="279.11835"/>
     <use style="fill:#6e3b87;" x="219.811006" xlink:href="#m31c3997077" y="254.024681"/>
     <use style="fill:#6e3b87;" x="236.276402" xlink:href="#m31c3997077" y="210.56117"/>
     <use style="fill:#6e3b87;" x="252.741798" xlink:href="#m31c3997077" y="235.654839"/>
     <use style="fill:#6e3b87;" x="269.207195" xlink:href="#m31c3997077" y="279.11835"/>
     <use style="fill:#6e3b87;" x="285.672591" xlink:href="#m31c3997077" y="254.024681"/>
    </g>
   </g>
  </g>
  <g id="axes_6">
   <g id="patch_25">
    <path d="M 302.785769 289.19952 
L 438.625289 289.19952 
L 438.625289 200.48 
L 302.785769 200.48 
z
" style="fill:none;"/>
   </g>
   <g id="matplotlib.axis_11"/>
   <g id="matplotlib.axis_12">
    <g id="ytick_6">
     <g id="line2d_22">
      <path clip-path="url(#pc872b4b8bb)" d="M 302.785769 244.83976 
L 438.625289 244.83976 
" style="fill:none;stroke:#000000;stroke-linecap:square;stroke-opacity:0.2;stroke-width:0.5;"/>
     </g>
     <g id="line2d_23">
      <g>
       <use style="fill-opacity:0.2;stroke:#000000;stroke-opacity:0.2;stroke-width:0.8;" x="302.785769" xlink:href="#m172c8dccca" y="244.83976"/>
      </g>
     </g>
    </g>
   </g>
   <g id="line2d_24">
    <path clip-path="url(#pc872b4b8bb)" d="M 311.018467 216.685389 
L 327.483864 216.685389 
L 327.483864 223.236151 
L 343.94926 223.236151 
L 343.94926 272.994131 
L 360.414657 272.994131 
L 360.414657 266.443369 
L 376.880053 266.443369 
L 376.880053 216.685389 
L 393.345449 216.685389 
L 393.345449 223.236151 
L 409.810846 223.236151 
L 409.810846 272.994131 
L 426.276242 272.994131 
L 426.276242 266.443369 
" style="fill:none;stroke:#0095b7;stroke-linecap:square;stroke-width:3;"/>
    <defs>
     <path d="M 0 2.5 
C 0.663008 2.5 1.29895 2.236584 1.767767 1.767767 
C 2.236584 1.29895 2.5 0.663008 2.5 0 
C 2.5 -0.663008 2.236584 -1.29895 1.767767 -1.767767 
C 1.29895 -2.236584 0.663008 -2.5 0 -2.5 
C -0.663008 -2.5 -1.29895 -2.236584 -1.767767 -1.767767 
C -2.236584 -1.29895 -2.5 -0.663008 -2.5 0 
C -2.5 0.663008 -2.236584 1.29895 -1.767767 1.767767 
C -1.29895 2.236584 -0.663008 2.5 0 2.5 
z
" id="m58fcbdee84"/>
    </defs>
    <g clip-path="url(#pc872b4b8bb)">
     <use style="fill:#0095b7;" x="311.018467" xlink:href="#m58fcbdee84" y="216.685389"/>
     <use style="fill:#0095b7;" x="327.483864" xlink:href="#m58fcbdee84" y="223.236151"/>
     <use style="fill:#0095b7;" x="343.94926" xlink:href="#m58fcbdee84" y="272.994131"/>
     <use style="fill:#0095b7;" x="360.414657" xlink:href="#m58fcbdee84" y="266.443369"/>
     <use style="fill:#0095b7;" x="376.880053" xlink:href="#m58fcbdee84" y="216.685389"/>
     <use style="fill:#0095b7;" x="393.345449" xlink:href="#m58fcbdee84" y="223.236151"/>
     <use style="fill:#0095b7;" x="409.810846" xlink:href="#m58fcbdee84" y="272.994131"/>
     <use style="fill:#0095b7;" x="426.276242" xlink:href="#m58fcbdee84" y="266.443369"/>
    </g>
   </g>
  </g>
  <g id="axes_7">
   <g id="patch_26">
    <path d="M 447.505769 289.19952 
L 583.345289 289.19952 
L 583.345289 200.48 
L 447.505769 200.48 
z
" style="fill:none;"/>
   </g>
   <g id="matplotlib.axis_13"/>
   <g id="matplotlib.axis_14">
    <g id="ytick_7">
     <g id="line2d_25">
      <path clip-path="url(#p43db944e17)" d="M 447.505769 244.83976 
L 583.345289 244.83976 
" style="fill:none;stroke:#000000;stroke-linecap:square;stroke-opacity:0.2;stroke-width:0.5;"/>
     </g>
     <g id="line2d_26">
      <g>
       <use style="fill-opacity:0.2;stroke:#000000;stroke-opacity:0.2;stroke-width:0.8;" x="447.505769" xlink:href="#m172c8dccca" y="244.83976"/>
      </g>
     </g>
    </g>
   </g>
   <g id="line2d_27">
    <path clip-path="url(#p43db944e17)" d="M 463.971166 209.655555 
L 480.436562 209.655555 
L 480.436562 249.471848 
L 496.901958 249.471848 
L 496.901958 280.023965 
L 513.367355 280.023965 
L 513.367355 240.207672 
L 529.832751 240.207672 
L 529.832751 209.655555 
L 546.298147 209.655555 
L 546.298147 249.471848 
L 562.763544 249.471848 
L 562.763544 280.023965 
L 579.22894 280.023965 
L 579.22894 240.207672 
" style="fill:none;stroke:#88b93b;stroke-linecap:square;stroke-width:3;"/>
    <defs>
     <path d="M 0 2.5 
C 0.663008 2.5 1.29895 2.236584 1.767767 1.767767 
C 2.236584 1.29895 2.5 0.663008 2.5 0 
C 2.5 -0.663008 2.236584 -1.29895 1.767767 -1.767767 
C 1.29895 -2.236584 0.663008 -2.5 0 -2.5 
C -0.663008 -2.5 -1.29895 -2.236584 -1.767767 -1.767767 
C -2.236584 -1.29895 -2.5 -0.663008 -2.5 0 
C -2.5 0.663008 -2.236584 1.29895 -1.767767 1.767767 
C -1.29895 2.236584 -0.663008 2.5 0 2.5 
z
" id="m91e45fae20"/>
    </defs>
    <g clip-path="url(#p43db944e17)">
     <use style="fill:#88b93b;" x="463.971166" xlink:href="#m91e45fae20" y="209.655555"/>
     <use style="fill:#88b93b;" x="480.436562" xlink:href="#m91e45fae20" y="249.471848"/>
     <use style="fill:#88b93b;" x="496.901958" xlink:href="#m91e45fae20" y="280.023965"/>
     <use style="fill:#88b93b;" x="513.367355" xlink:href="#m91e45fae20" y="240.207672"/>
     <use style="fill:#88b93b;" x="529.832751" xlink:href="#m91e45fae20" y="209.655555"/>
     <use style="fill:#88b93b;" x="546.298147" xlink:href="#m91e45fae20" y="249.471848"/>
     <use style="fill:#88b93b;" x="562.763544" xlink:href="#m91e45fae20" y="280.023965"/>
     <use style="fill:#88b93b;" x="579.22894" xlink:href="#m91e45fae20" y="240.207672"/>
    </g>
   </g>
  </g>
  <g id="text_1">
   <!-- $\dots$ -->
   <g transform="translate(298.345529 313.584472)scale(0.3 -0.3)">
    <defs>
     <path d="M 12.40625 11.625 
C 9.40625 11.625 6.703125 8.8125 6.703125 5.8125 
C 6.703125 2.796875 9.40625 0 12.296875 0 
C 15.5 0 18.296875 2.703125 18.296875 5.8125 
C 18.296875 8.8125 15.5 11.625 12.40625 11.625 
z
" id="URW_Palladio_L_Roman-46"/>
    </defs>
    <use transform="scale(0.996264)" xlink:href="#URW_Palladio_L_Roman-46"/>
    <use transform="translate(44.001574 0)scale(0.996264)" xlink:href="#URW_Palladio_L_Roman-46"/>
    <use transform="translate(88.003149 0)scale(0.996264)" xlink:href="#URW_Palladio_L_Roman-46"/>
   </g>
  </g>
 </g>
 <defs>
  <clipPath id="p3220d60e95">
   <rect height="88.71952" width="569.99952" x="13.345769" y="7.2"/>
  </clipPath>
  <clipPath id="pdb17ce347f">
   <rect height="88.71952" width="280.55952" x="13.345769" y="103.84"/>
  </clipPath>
  <clipPath id="p4d9feacffa">
   <rect height="88.71952" width="280.55952" x="302.785769" y="103.84"/>
  </clipPath>
  <clipPath id="p96b9bfad5e">
   <rect height="88.71952" width="135.83952" x="13.345769" y="200.48"/>
  </clipPath>
  <clipPath id="pc95b930213">
   <rect height="88.71952" width="135.83952" x="158.065769" y="200.48"/>
  </clipPath>
  <clipPath id="pc872b4b8bb">
   <rect height="88.71952" width="135.83952" x="302.785769" y="200.48"/>
  </clipPath>
  <clipPath id="p43db944e17">
   <rect height="88.71952" width="135.83952" x="447.505769" y="200.48"/>
  </clipPath>
 </defs>
</svg>
