<?xml version="1.0" encoding="utf-8" standalone="no"?>
<!DOCTYPE svg PUBLIC "-//W3C//DTD SVG 1.1//EN"
  "http://www.w3.org/Graphics/SVG/1.1/DTD/svg11.dtd">
<svg height="296.39952pt" version="1.1" viewBox="0 0 485.684938 296.39952" width="485.684938pt" xmlns="http://www.w3.org/2000/svg" xmlns:xlink="http://www.w3.org/1999/xlink">
 <metadata>
  <rdf:RDF xmlns:cc="http://creativecommons.org/ns#" xmlns:dc="http://purl.org/dc/elements/1.1/" xmlns:rdf="http://www.w3.org/1999/02/22-rdf-syntax-ns#">
   <cc:Work>
    <dc:type rdf:resource="http://purl.org/dc/dcmitype/StillImage"/>
    <dc:date>2020-08-12T07:39:26.156372</dc:date>
    <dc:format>image/svg+xml</dc:format>
    <dc:creator>
     <cc:Agent>
      <dc:title>Matplotlib v3.3.0rc1.post382+g019a75231, https://matplotlib.org/</dc:title>
     </cc:Agent>
    </dc:creator>
   </cc:Work>
  </rdf:RDF>
 </metadata>
 <defs>
  <style type="text/css">*{stroke-linecap:butt;stroke-linejoin:round;}</style>
 </defs>
 <g id="figure_1">
  <g id="patch_1">
   <path d="M 0 296.39952 
L 485.684938 296.39952 
L 485.684938 0 
L 0 0 
z
" style="fill:none;"/>
  </g>
  <g id="axes_1">
   <g id="patch_2">
    <path d="M 77.690503 289.19952 
L 312.690103 289.19952 
L 312.690103 7.2 
L 77.690503 7.2 
z
" style="fill:none;"/>
   </g>
   <g id="matplotlib.axis_1"/>
   <g id="matplotlib.axis_2">
    <g id="ytick_1">
     <g id="line2d_1">
      <path clip-path="url(#p29d1bc3cf8)" d="M 77.690503 30.69996 
L 312.690103 30.69996 
" style="fill:none;stroke:#000000;stroke-linecap:square;stroke-opacity:0.2;stroke-width:0.5;"/>
     </g>
     <g id="line2d_2">
      <defs>
       <path d="M 0 0 
L -3.5 0 
" id="m0a2b1dfc19" style="stroke:#000000;stroke-opacity:0.2;stroke-width:0.8;"/>
      </defs>
      <g>
       <use style="fill-opacity:0.2;stroke:#000000;stroke-opacity:0.2;stroke-width:0.8;" x="77.690503" xlink:href="#m0a2b1dfc19" y="30.69996"/>
      </g>
     </g>
     <g id="text_1">
      <!-- 0 -->
      <g transform="translate(55.216654 35.689725)scale(0.14 -0.14)">
       <defs>
        <path d="M 26.296875 69 
C 10.796875 69 2.90625 56.6875 2.90625 32.453125 
C 2.90625 20.71875 5 10.625 8.5 5.71875 
C 12 0.796875 17.59375 -2 23.796875 -2 
C 38.90625 -2 46.5 11.015625 46.5 36.65625 
C 46.5 58.578125 40 69 26.296875 69 
z
M 24.5 65.5 
C 34.203125 65.5 38.09375 55.6875 38.09375 31.640625 
C 38.09375 10.328125 34.296875 1.5 25.09375 1.5 
C 15.40625 1.5 11.296875 11.625 11.296875 36.0625 
C 11.296875 57.1875 15 65.5 24.5 65.5 
z
" id="URW_Palladio_L_Roman-48"/>
       </defs>
       <use transform="scale(0.996264)" xlink:href="#URW_Palladio_L_Roman-48"/>
      </g>
     </g>
    </g>
    <g id="ytick_2">
     <g id="line2d_3">
      <path clip-path="url(#p29d1bc3cf8)" d="M 77.690503 77.69988 
L 312.690103 77.69988 
" style="fill:none;stroke:#000000;stroke-linecap:square;stroke-opacity:0.2;stroke-width:0.5;"/>
     </g>
     <g id="line2d_4">
      <g>
       <use style="fill-opacity:0.2;stroke:#000000;stroke-opacity:0.2;stroke-width:0.8;" x="77.690503" xlink:href="#m0a2b1dfc19" y="77.69988"/>
      </g>
     </g>
     <g id="text_2">
      <!-- 1 -->
      <g transform="translate(55.216654 82.689645)scale(0.14 -0.14)">
       <defs>
        <path d="M 6.703125 56 
L 7.703125 56 
L 20.59375 61.8125 
C 20.703125 61.90625 20.796875 61.90625 20.90625 61.90625 
C 21.5 61.90625 21.703125 61.015625 21.703125 58.609375 
L 21.703125 9.578125 
C 21.703125 4.3125 20.59375 3.203125 15.203125 3.203125 
L 9.59375 3.203125 
L 9.59375 0 
C 25 0 25 0 26.09375 0 
C 27.40625 0 29.59375 0 33 0 
C 34.203125 0 37.703125 0 41.796875 0 
L 41.796875 3.203125 
L 36.59375 3.203125 
C 31.09375 3.203125 30.09375 4.3125 30.09375 9.5625 
L 30.09375 69.421875 
L 28.703125 69.921875 
C 22.203125 66.515625 15.09375 63.515625 6 60.3125 
z
" id="URW_Palladio_L_Roman-49"/>
       </defs>
       <use transform="scale(0.996264)" xlink:href="#URW_Palladio_L_Roman-49"/>
      </g>
     </g>
    </g>
    <g id="ytick_3">
     <g id="line2d_5">
      <path clip-path="url(#p29d1bc3cf8)" d="M 77.690503 124.6998 
L 312.690103 124.6998 
" style="fill:none;stroke:#000000;stroke-linecap:square;stroke-opacity:0.2;stroke-width:0.5;"/>
     </g>
     <g id="line2d_6">
      <g>
       <use style="fill-opacity:0.2;stroke:#000000;stroke-opacity:0.2;stroke-width:0.8;" x="77.690503" xlink:href="#m0a2b1dfc19" y="124.6998"/>
      </g>
     </g>
     <g id="text_3">
      <!-- 2 -->
      <g transform="translate(55.216654 129.689565)scale(0.14 -0.14)">
       <defs>
        <path d="M 1.59375 2.5 
L 1.59375 0 
C 20.296875 0 20.296875 0 23.90625 0 
C 27.5 0 27.5 0 46.796875 0 
C 46.59375 1.953125 46.59375 2.90625 46.59375 4.203125 
C 46.59375 5.4375 46.59375 6.359375 46.796875 8.421875 
C 35.296875 8.421875 30.703125 8.421875 12.203125 8.421875 
L 30.40625 27.515625 
C 40.09375 37.71875 43.09375 43.171875 43.09375 50.59375 
C 43.09375 61.96875 35.296875 69 22.59375 69 
C 15.40625 69 10.5 67 5.59375 62.015625 
L 3.90625 48.421875 
L 6.796875 48.421875 
L 8.09375 53.015625 
C 9.703125 58.796875 13.296875 61.296875 20 61.296875 
C 28.59375 61.296875 34.09375 55.890625 34.09375 47.421875 
C 34.09375 39.921875 29.90625 32.546875 18.59375 20.5625 
z
" id="URW_Palladio_L_Roman-50"/>
       </defs>
       <use transform="scale(0.996264)" xlink:href="#URW_Palladio_L_Roman-50"/>
      </g>
     </g>
    </g>
    <g id="ytick_4">
     <g id="line2d_7">
      <path clip-path="url(#p29d1bc3cf8)" d="M 77.690503 171.69972 
L 312.690103 171.69972 
" style="fill:none;stroke:#000000;stroke-linecap:square;stroke-opacity:0.2;stroke-width:0.5;"/>
     </g>
     <g id="line2d_8">
      <g>
       <use style="fill-opacity:0.2;stroke:#000000;stroke-opacity:0.2;stroke-width:0.8;" x="77.690503" xlink:href="#m0a2b1dfc19" y="171.69972"/>
      </g>
     </g>
     <g id="text_4">
      <!-- $\dots$ -->
      <g transform="translate(46.383172 176.689485)scale(0.14 -0.14)">
       <defs>
        <path d="M 12.40625 11.625 
C 9.40625 11.625 6.703125 8.8125 6.703125 5.8125 
C 6.703125 2.796875 9.40625 0 12.296875 0 
C 15.5 0 18.296875 2.703125 18.296875 5.8125 
C 18.296875 8.8125 15.5 11.625 12.40625 11.625 
z
" id="URW_Palladio_L_Roman-46"/>
       </defs>
       <use transform="scale(0.996264)" xlink:href="#URW_Palladio_L_Roman-46"/>
       <use transform="translate(44.001574 0)scale(0.996264)" xlink:href="#URW_Palladio_L_Roman-46"/>
       <use transform="translate(88.003149 0)scale(0.996264)" xlink:href="#URW_Palladio_L_Roman-46"/>
      </g>
     </g>
    </g>
    <g id="ytick_5">
     <g id="line2d_9">
      <path clip-path="url(#p29d1bc3cf8)" d="M 77.690503 218.69964 
L 312.690103 218.69964 
" style="fill:none;stroke:#000000;stroke-linecap:square;stroke-opacity:0.2;stroke-width:0.5;"/>
     </g>
     <g id="line2d_10">
      <g>
       <use style="fill-opacity:0.2;stroke:#000000;stroke-opacity:0.2;stroke-width:0.8;" x="77.690503" xlink:href="#m0a2b1dfc19" y="218.69964"/>
      </g>
     </g>
     <g id="text_5">
      <!-- $\log_2 N$ -->
      <g transform="translate(23.12516 223.689405)scale(0.14 -0.14)">
       <defs>
        <path d="M 2.296875 66.5 
L 7.90625 66.5 
C 9.703125 66.5 10.40625 65.390625 10.40625 62.375 
L 10.40625 10.171875 
C 10.40625 3.8125 10.09375 3.109375 6.703125 3.109375 
L 2.09375 3.109375 
L 2.09375 0 
C 12.09375 0 12.09375 0 14.59375 0 
C 17.09375 0 17.09375 0 27.09375 0 
L 27.09375 3.109375 
L 22.5 3.109375 
C 19.09375 3.109375 18.796875 3.8125 18.796875 10.15625 
L 18.796875 72.203125 
L 17.90625 73.015625 
C 13.5 71.3125 10.203125 70.5 2.296875 69.296875 
z
" id="URW_Palladio_L_Roman-108"/>
        <path d="M 27.90625 47 
C 13.296875 47 3.203125 36.671875 3.203125 21.75 
C 3.203125 7.609375 12.09375 -2 25 -2 
C 40.40625 -2 51.40625 8.71875 51.40625 23.75 
C 51.40625 37.28125 41.59375 47 27.90625 47 
z
M 26.09375 43.6875 
C 35.296875 43.6875 42.09375 33.671875 42.09375 20.046875 
C 42.09375 8.515625 37 1.296875 28.90625 1.296875 
C 19.09375 1.296875 12.5 10.921875 12.5 25.15625 
C 12.5 37.171875 17.296875 43.6875 26.09375 43.6875 
z
" id="URW_Palladio_L_Roman-111"/>
        <path d="M 51.90625 38 
L 54.40625 42.109375 
L 54 43.109375 
L 39.796875 43.109375 
C 36.09375 45.890625 32.5 47 27.59375 47 
C 23.203125 47 18.09375 45.625 14 43.25 
C 8.40625 40.109375 5.5 35.28125 5.5 29.28125 
C 5.5 22 10.09375 16.984375 17.5 16.1875 
L 9.59375 10 
C 8.59375 8.484375 8.09375 7.171875 8.09375 5.640625 
C 8.09375 2.8125 9.90625 1.1875 14.703125 -0.21875 
L 6 -4.9375 
C 4.59375 -5.734375 3.203125 -9.4375 3.203125 -12.546875 
C 3.203125 -21.6875 12.09375 -28 24.796875 -28 
C 39.90625 -28 51.796875 -18.46875 51.796875 -6.234375 
C 51.796875 0.984375 47 6 40 6 
L 24 6 
C 18.796875 6 16.40625 7.21875 16.40625 9.984375 
C 16.40625 11.3125 17.203125 12.421875 19.796875 14.671875 
C 20.40625 15.1875 20.59375 15.390625 21 15.796875 
C 22 15.6875 22.59375 15.59375 23.40625 15.59375 
C 27.703125 15.59375 33 17.46875 37.09375 20.3125 
C 41.59375 23.546875 43.796875 27.484375 43.796875 32.703125 
C 43.796875 34.65625 43.5 35.9375 42.703125 38 
z
M 24 43.59375 
C 30.796875 43.59375 35.40625 38.09375 35.40625 29.765625 
C 35.40625 23.421875 31.203125 19 25.09375 19 
C 18.40625 19 13.90625 24.09375 13.90625 31.640625 
C 13.90625 39.171875 17.59375 43.59375 24 43.59375 
z
M 28.703125 -1.015625 
C 40 -1.015625 43.90625 -3.3125 43.90625 -9.84375 
C 43.90625 -18.46875 36 -24.890625 25.5 -24.890625 
C 16.796875 -24.890625 10.796875 -19.78125 10.796875 -12.34375 
C 10.796875 -7.84375 13.40625 -3.71875 17.40625 -2.015625 
C 19 -1.21875 21.796875 -1.015625 28.703125 -1.015625 
z
" id="URW_Palladio_L_Roman-103"/>
        <path d="M 23.703125 68.78125 
L 15.59375 68.78125 
L 14.59375 68.78125 
L 13.203125 68.78125 
C 12.90625 68.78125 11.40625 68.78125 9.09375 68.78125 
L 7.5 68.78125 
L 7 66 
L 10.5 66 
C 12.203125 66 14.40625 65.296875 15.5 64.40625 
C 17 63.203125 18.5 61.3125 18.5 60.515625 
C 18.5 60.421875 18.5 60.125 18.40625 59.8125 
C 18.40625 59.71875 18.40625 59.515625 18.296875 59.328125 
C 18.203125 58.53125 18.09375 57.828125 18 57.53125 
L 9.203125 10.34375 
C 8 4.171875 7.40625 3.375 3.796875 2.96875 
L 0.703125 2.671875 
L 0.203125 -0.109375 
L 11.296875 -0.109375 
C 12.5 -0.109375 12.59375 -0.109375 22.296875 -0.109375 
L 22.796875 2.578125 
L 18.59375 2.875 
C 14.59375 3.1875 13.703125 3.984375 13.703125 7.265625 
C 13.703125 8.0625 13.796875 9.15625 14 10.25 
L 22 56.4375 
L 55.796875 -1 
L 60.796875 -1 
L 70.203125 54.046875 
C 72.296875 65.296875 72.5 65.703125 76.203125 66 
L 79.90625 66 
L 80.40625 68.78125 
L 78.296875 68.78125 
L 69.40625 68.78125 
L 60.796875 68.78125 
L 58.90625 68.78125 
L 58.40625 66 
L 63.09375 66 
C 65.703125 66 66.703125 65.265625 66.703125 63.609375 
C 66.703125 62.90625 66.40625 60.328125 66.203125 59.03125 
L 58.203125 10.34375 
z
" id="URW_Palladio_L_Italic-78"/>
       </defs>
       <use transform="scale(0.996264)" xlink:href="#URW_Palladio_L_Roman-108"/>
       <use transform="translate(28.990361 0)scale(0.996264)" xlink:href="#URW_Palladio_L_Roman-111"/>
       <use transform="translate(83.385942 0)scale(0.996264)" xlink:href="#URW_Palladio_L_Roman-103"/>
       <use transform="translate(138.777619 -31.879901)scale(0.757155)" xlink:href="#URW_Palladio_L_Roman-50"/>
       <use transform="translate(198.470077 0)scale(0.996264)" xlink:href="#URW_Palladio_L_Italic-78"/>
      </g>
     </g>
    </g>
    <g id="text_6">
     <!-- Level ($\ell$) -->
     <g transform="translate(15.753876 170.908342)rotate(-90)scale(0.12 -0.12)">
      <defs>
       <path d="M 21.59375 57.265625 
C 21.59375 65.1875 22.09375 66 26.703125 66 
L 31.5 66 
L 31.5 69.109375 
C 24.203125 69.109375 22 69.109375 16.796875 69.109375 
C 11.796875 69.109375 9.40625 69.109375 2.203125 69.109375 
L 2.203125 66 
L 7 66 
C 11.59375 66 12.09375 65.1875 12.09375 57.265625 
L 12.09375 9.71875 
C 12.09375 6.8125 11.203125 4.609375 9.59375 3.8125 
L 6.5 2.203125 
L 6.5 0 
C 13.09375 0 13.796875 0 16.40625 0 
C 17.296875 0 18.90625 0 21.09375 0 
C 26 0 36.90625 0 39.703125 0 
C 42.90625 0 42.90625 0 56.5 0 
C 57.203125 4.359375 57.59375 7.578125 58.59375 17.390625 
L 55.40625 17.390625 
L 54.203125 12.390625 
C 54.09375 12.09375 54 11.390625 53.90625 11.296875 
C 53.296875 8.40625 52.59375 6.40625 52 5.921875 
C 50.703125 4.8125 42 4.109375 30.09375 4.109375 
C 26.5 4.109375 24.203125 4.3125 21.59375 4.90625 
z
" id="URW_Palladio_L_Roman-76"/>
       <path d="M 43.703125 6.984375 
L 42.40625 7.984375 
C 36 4.203125 33.703125 3.3125 29.40625 3.3125 
C 22.90625 3.3125 17.5 6.21875 14.703125 11.109375 
C 12.796875 14.390625 12.09375 17.203125 11.90625 23 
L 26.5 23 
C 33.40625 23 37.703125 23 44.59375 24.125 
C 44.703125 25.53125 44.796875 26.453125 44.796875 27.671875 
C 44.796875 39.375 37.40625 47 26.203125 47 
C 22.5 47 18.203125 45.6875 14.09375 43.28125 
C 5.90625 38.578125 2.59375 32.359375 2.59375 21.9375 
C 2.59375 15.625 4.09375 10.21875 6.796875 6.40625 
C 10.796875 1.109375 17.5 -2 25 -2 
C 28.703125 -2 32.40625 -1.203125 36.5 0.578125 
C 39.203125 1.6875 41.296875 2.984375 41.703125 3.59375 
z
M 35.90625 26.40625 
C 30.703125 26.40625 28.296875 26.40625 24.703125 26.40625 
C 20.09375 26.40625 17.5 26.40625 12.09375 26.90625 
C 12.09375 31.671875 12.5 33.890625 13.796875 36.515625 
C 15.90625 40.96875 20.203125 43.6875 25 43.6875 
C 28.296875 43.6875 30.90625 42.359375 32.703125 39.59375 
C 34.90625 36.234375 35.59375 33.265625 35.90625 26.40625 
z
" id="URW_Palladio_L_Roman-101"/>
       <path d="M 53.90625 43 
L 53.90625 45.8125 
C 47.90625 45.8125 46.09375 45.8125 44.5 45.8125 
C 42.90625 45.8125 41.09375 45.8125 35.09375 45.8125 
L 35.09375 43 
L 39.203125 43 
C 40.796875 43 41.59375 42.09375 41.59375 40.484375 
C 41.59375 38.890625 40.90625 36.203125 39.703125 33.1875 
L 35.5 22.578125 
C 34.296875 19.671875 33.09375 16.875 29.296875 8.578125 
L 17.40625 37.390625 
C 16.796875 38.78125 16.5 40.09375 16.5 41.1875 
C 16.5 42.296875 17.40625 43 19 43 
L 23.90625 43 
L 23.90625 45.8125 
C 14.09375 45.8125 14.09375 45.8125 12.203125 45.8125 
C 10.296875 45.8125 5.5 45.8125 0.59375 45.8125 
L 0.59375 43 
L 4 43 
C 5.5 42.796875 6 42.203125 7.09375 39.703125 
L 24.296875 -0.5 
L 29.296875 -0.5 
C 29.90625 1.203125 30.90625 3.796875 30.90625 4 
C 32 6.984375 33.296875 10.375 33.40625 10.375 
L 45.203125 36.3125 
C 47.40625 41.015625 48.796875 42.796875 50.796875 43 
z
" id="URW_Palladio_L_Roman-118"/>
       <path d="M 30.09375 -19.4375 
C 22.90625 -10.515625 20.296875 -5.71875 17.703125 3.3125 
C 15.59375 10.515625 14.59375 18.140625 14.59375 26.65625 
C 14.59375 34.96875 15.59375 42.078125 17.5 48.59375 
C 20.09375 56.90625 22.796875 61.625 30.09375 70.140625 
L 28.203125 72.75 
C 17.796875 63.421875 13.703125 57.921875 9.90625 48.09375 
C 7.296875 41.375 6 34.265625 6 26.65625 
C 6 15.9375 8.5 5.8125 13.296875 -3.203125 
C 16.796875 -9.921875 20 -13.828125 28.203125 -21.546875 
z
" id="URW_Palladio_L_Roman-40"/>
       <path d="M 1.59375 9.90625 
C 1.40625 9.59375 1.09375 9.296875 1.09375 8.90625 
C 1.09375 8.40625 1.703125 7.59375 2.296875 7.59375 
C 2.796875 7.59375 3.09375 7.90625 5.90625 10.703125 
C 6.703125 11.390625 8.703125 13.28125 9.5 14.078125 
C 10.5 6.203125 13.40625 -1.1875 20.703125 -1.1875 
C 24.703125 -1.1875 28.203125 1.109375 30.296875 2.59375 
C 31.703125 3.59375 36.40625 7.484375 36.40625 8.484375 
C 36.40625 8.78125 36.09375 9.6875 35.203125 9.6875 
C 34.90625 9.6875 34.796875 9.578125 33.90625 8.78125 
C 27.5 2.515625 23.796875 1.015625 20.90625 1.015625 
C 16.40625 1.015625 14.796875 6.203125 14.796875 13.984375 
C 14.796875 14.578125 15 19.171875 15.296875 19.671875 
C 15.5 19.96875 15.5 20.171875 17.5 22.171875 
C 25.59375 30.234375 39.796875 47.109375 39.796875 62.5625 
C 39.796875 64.265625 39.796875 70.34375 33.90625 70.34375 
C 25.59375 70.34375 18.203125 53.875 17.203125 51.59375 
C 12.40625 40.703125 9.296875 29.03125 9.296875 17.171875 
z
M 15.796875 23.75 
C 16 24.84375 20.296875 47.046875 26 58.75 
C 28.703125 64.140625 30.796875 68.140625 34 68.140625 
C 37.40625 68.140625 37.40625 64.546875 37.40625 62.9375 
C 37.40625 46.25 20.59375 28.75 15.796875 23.75 
z
" id="CMMI10-96"/>
       <path d="M 5.09375 -21.546875 
C 12 -15.03125 14.90625 -11.71875 18 -6.8125 
C 24.09375 2.90625 27.296875 14.53125 27.296875 26.546875 
C 27.296875 34.265625 26 41.375 23.40625 48.09375 
C 19.59375 57.8125 15.5 63.328125 5.09375 72.75 
L 3.203125 70.140625 
C 10.5 61.515625 13.203125 56.8125 15.703125 48.59375 
C 17.703125 42.078125 18.703125 34.96875 18.703125 26.65625 
C 18.703125 18.140625 17.703125 10.515625 15.59375 3.3125 
C 13 -5.71875 10.40625 -10.515625 3.203125 -19.4375 
z
" id="URW_Palladio_L_Roman-41"/>
      </defs>
      <use transform="scale(0.996264)" xlink:href="#URW_Palladio_L_Roman-76"/>
      <use transform="translate(60.871631 0)scale(0.996264)" xlink:href="#URW_Palladio_L_Roman-101"/>
      <use transform="translate(108.591926 0)scale(0.996264)" xlink:href="#URW_Palladio_L_Roman-118"/>
      <use transform="translate(164.879839 0)scale(0.996264)" xlink:href="#URW_Palladio_L_Roman-101"/>
      <use transform="translate(212.600134 0)scale(0.996264)" xlink:href="#URW_Palladio_L_Roman-108"/>
      <use transform="translate(266.497096 0)scale(0.996264)" xlink:href="#URW_Palladio_L_Roman-40"/>
      <use transform="translate(300.917625 0)scale(1.038107)" xlink:href="#CMMI10-96"/>
      <use transform="translate(345.301235 0)scale(0.996264)" xlink:href="#URW_Palladio_L_Roman-41"/>
     </g>
    </g>
   </g>
   <g id="BrokenBarHCollection_1">
    <defs>
     <path d="M 77.690503 -286.849524 
L 77.690503 -244.549596 
L 312.690103 -244.549596 
L 312.690103 -286.849524 
L 77.690503 -286.849524 
z
" id="m669980e860" style="stroke:#0271ae;stroke-width:0.5;"/>
    </defs>
    <g clip-path="url(#p29d1bc3cf8)">
     <use style="fill:#0271ae;stroke:#0271ae;stroke-width:0.5;" x="0" xlink:href="#m669980e860" y="296.39952"/>
    </g>
   </g>
   <g id="BrokenBarHCollection_2">
    <path clip-path="url(#p29d1bc3cf8)" d="M 77.690503 56.549916 
L 77.690503 98.849844 
L 194.015305 98.849844 
L 194.015305 56.549916 
L 77.690503 56.549916 
z
" style="fill:#0271ae;stroke:#0271ae;stroke-width:0.5;"/>
    <path clip-path="url(#p29d1bc3cf8)" d="M 196.365301 56.549916 
L 196.365301 98.849844 
L 312.690103 98.849844 
L 312.690103 56.549916 
L 196.365301 56.549916 
z
" style="fill:#0271ae;stroke:#0271ae;stroke-width:0.5;"/>
   </g>
   <g id="BrokenBarHCollection_3">
    <path clip-path="url(#p29d1bc3cf8)" d="M 77.690503 103.549836 
L 77.690503 145.849764 
L 135.265405 145.849764 
L 135.265405 103.549836 
L 77.690503 103.549836 
z
" style="fill:#0271ae;stroke:#0271ae;stroke-width:0.5;"/>
    <path clip-path="url(#p29d1bc3cf8)" d="M 136.440403 103.549836 
L 136.440403 145.849764 
L 194.015305 145.849764 
L 194.015305 103.549836 
L 136.440403 103.549836 
z
" style="fill:#0271ae;stroke:#0271ae;stroke-width:0.5;"/>
    <path clip-path="url(#p29d1bc3cf8)" d="M 196.365301 103.549836 
L 196.365301 145.849764 
L 253.940203 145.849764 
L 253.940203 103.549836 
L 196.365301 103.549836 
z
" style="fill:#0271ae;stroke:#0271ae;stroke-width:0.5;"/>
    <path clip-path="url(#p29d1bc3cf8)" d="M 255.115201 103.549836 
L 255.115201 145.849764 
L 312.690103 145.849764 
L 312.690103 103.549836 
L 255.115201 103.549836 
z
" style="fill:#0271ae;stroke:#0271ae;stroke-width:0.5;"/>
   </g>
   <g id="BrokenBarHCollection_4">
    <path clip-path="url(#p29d1bc3cf8)" d="M 77.690503 197.549676 
L 77.690503 239.849604 
L 101.190463 239.849604 
L 101.190463 197.549676 
L 77.690503 197.549676 
z
" style="fill:#dc2830;stroke:#dc2830;stroke-width:0.5;"/>
    <path clip-path="url(#p29d1bc3cf8)" d="M 103.540459 197.549676 
L 103.540459 239.849604 
L 127.040419 239.849604 
L 127.040419 197.549676 
L 103.540459 197.549676 
z
" style="fill:#dc2830;stroke:#dc2830;stroke-width:0.5;"/>
    <path clip-path="url(#p29d1bc3cf8)" d="M 129.390415 197.549676 
L 129.390415 239.849604 
L 152.890375 239.849604 
L 152.890375 197.549676 
L 129.390415 197.549676 
z
" style="fill:#dc2830;stroke:#dc2830;stroke-width:0.5;"/>
    <path clip-path="url(#p29d1bc3cf8)" d="M 289.190143 197.549676 
L 289.190143 239.849604 
L 312.690103 239.849604 
L 312.690103 197.549676 
L 289.190143 197.549676 
z
" style="fill:#dc2830;stroke:#dc2830;stroke-width:0.5;"/>
   </g>
   <g id="text_7">
    <!-- $d \cdot N$ -->
    <g style="fill:#ffffff;" transform="translate(180.95755 33.723138)scale(0.14 -0.14)">
     <defs>
      <path d="M 48.296875 72.171875 
L 47.09375 73.265625 
C 41.90625 70.6875 38.296875 69.78125 31.09375 69.09375 
L 30.703125 67 
L 35.5 67 
C 37.90625 67 38.90625 66.28125 38.90625 64.578125 
C 38.90625 63.765625 38.796875 62.859375 38.703125 62.15625 
L 35.90625 46.609375 
C 32.90625 47.5 30.203125 48 27.703125 48 
C 20.796875 48 11.40625 40.84375 6.796875 32.1875 
C 3.703125 26.4375 1.703125 16.984375 1.703125 8.640625 
C 1.703125 2.1875 3.203125 -1 6.09375 -1 
C 8.796875 -1 12.5 0.6875 15.90625 3.359375 
C 21.296875 7.75 24.59375 11.609375 31.296875 21.65625 
L 29 12.53125 
C 27.90625 8.125 27.40625 4.921875 27.40625 2.296875 
C 27.40625 0.203125 28.296875 -1 30 -1 
C 31.703125 -1 34.09375 0.203125 37.5 2.734375 
L 45.59375 8.828125 
L 44.59375 10.71875 
L 40.203125 7.640625 
C 38.796875 6.65625 37.203125 5.953125 36.296875 5.953125 
C 35.5 5.953125 34.90625 6.84375 34.90625 8.25 
C 34.90625 9.0625 35 9.953125 35.703125 12.84375 
z
M 33.703125 34.984375 
C 31.90625 26.234375 27 17.484375 20.796875 11.609375 
C 17.296875 8.34375 13.296875 5.953125 11.40625 5.953125 
C 9.796875 5.953125 8.90625 7.34375 8.90625 9.828125 
C 8.90625 22.359375 13.5 37.859375 18.40625 41.625 
C 19.703125 42.625 21.59375 43.125 24.296875 43.125 
C 28.703125 43.125 31.59375 42.515625 34.90625 40.84375 
z
" id="URW_Palladio_L_Italic-100"/>
      <path d="M 19.203125 25.296875 
C 19.203125 28.203125 16.796875 30.59375 13.90625 30.59375 
C 11 30.59375 8.59375 28.203125 8.59375 25.296875 
C 8.59375 22.390625 11 20 13.90625 20 
C 16.796875 20 19.203125 22.390625 19.203125 25.296875 
z
" id="CMSY10-1"/>
     </defs>
     <use transform="scale(0.996264)" xlink:href="#URW_Palladio_L_Italic-100"/>
     <use transform="translate(71.675568 0)scale(1.038107)" xlink:href="#CMSY10-1"/>
     <use transform="translate(125.816929 0)scale(0.996264)" xlink:href="#URW_Palladio_L_Italic-78"/>
    </g>
   </g>
   <g id="text_8">
    <!-- $\Rightarrow d \cdot N$ -->
    <g transform="translate(324.440083 33.723138)scale(0.14 -0.14)">
     <defs>
      <path d="M 72.59375 32.921875 
C 76.796875 29.203125 81.90625 26.546875 85.203125 25 
C 81.609375 23.359375 76.703125 20.671875 72.59375 17.078125 
L 9.09375 17.078125 
C 7.40625 17.078125 5.5 17.078125 5.5 15.078125 
C 5.5 13.078125 7.296875 13.078125 9 13.078125 
L 68.09375 13.078125 
C 63.296875 8.484375 58.09375 -0.3125 58.09375 -1.625 
C 58.09375 -2.71875 59.40625 -2.71875 60 -2.71875 
C 60.796875 -2.71875 61.5 -2.71875 61.90625 -1.921875 
C 64 1.90625 66.796875 7.265625 73.296875 13.109375 
C 80.203125 19.25 86.90625 21.96875 92.09375 23.484375 
C 93.796875 24.09375 93.90625 24.203125 94.09375 24.40625 
C 94.296875 24.5 94.296875 24.796875 94.296875 25 
C 94.296875 25.203125 94.296875 25.40625 94.203125 25.59375 
L 93.90625 25.796875 
C 93.703125 25.90625 93.59375 26.015625 91.703125 26.609375 
C 78.203125 30.640625 68.203125 39.828125 62.59375 50.609375 
C 61.5 52.625 61.40625 52.71875 60 52.71875 
C 59.40625 52.71875 58.09375 52.71875 58.09375 51.625 
C 58.09375 50.3125 63.203125 41.625 68.09375 36.921875 
L 9 36.921875 
C 7.296875 36.921875 5.5 36.921875 5.5 34.921875 
C 5.5 32.921875 7.40625 32.921875 9.09375 32.921875 
z
" id="CMSY10-41"/>
     </defs>
     <use transform="scale(1.038107)" xlink:href="#CMSY10-41"/>
     <use transform="translate(133.97533 0)scale(0.996264)" xlink:href="#URW_Palladio_L_Italic-100"/>
     <use transform="translate(205.650898 0)scale(1.038107)" xlink:href="#CMSY10-1"/>
     <use transform="translate(259.792259 0)scale(0.996264)" xlink:href="#URW_Palladio_L_Italic-78"/>
    </g>
   </g>
   <g id="text_9">
    <!-- $d \cdot N/2$ -->
    <g style="fill:#ffffff;" transform="translate(114.016801 80.723058)scale(0.14 -0.14)">
     <defs>
      <path d="M 51.90625 72.5 
L 45.90625 72.5 
L 8.703125 -12 
L 14.703125 -12 
z
" id="URW_Palladio_L_Roman-47"/>
     </defs>
     <use transform="scale(0.996264)" xlink:href="#URW_Palladio_L_Italic-100"/>
     <use transform="translate(71.675568 0)scale(1.038107)" xlink:href="#CMSY10-1"/>
     <use transform="translate(125.816929 0)scale(0.996264)" xlink:href="#URW_Palladio_L_Italic-78"/>
     <use transform="translate(208.905387 0)scale(0.996264)" xlink:href="#URW_Palladio_L_Roman-47"/>
     <use transform="translate(270.524291 0)scale(0.996264)" xlink:href="#URW_Palladio_L_Roman-50"/>
    </g>
   </g>
   <g id="text_10">
    <!-- $d \cdot N/2$ -->
    <g style="fill:#ffffff;" transform="translate(231.516601 80.723058)scale(0.14 -0.14)">
     <use transform="scale(0.996264)" xlink:href="#URW_Palladio_L_Italic-100"/>
     <use transform="translate(71.675568 0)scale(1.038107)" xlink:href="#CMSY10-1"/>
     <use transform="translate(125.816929 0)scale(0.996264)" xlink:href="#URW_Palladio_L_Italic-78"/>
     <use transform="translate(208.905387 0)scale(0.996264)" xlink:href="#URW_Palladio_L_Roman-47"/>
     <use transform="translate(270.524291 0)scale(0.996264)" xlink:href="#URW_Palladio_L_Roman-50"/>
    </g>
   </g>
   <g id="text_11">
    <!-- $\Rightarrow 2 \cdot (d \cdot N/2) = d \cdot N$ -->
    <g transform="translate(324.440083 81.033448)scale(0.14 -0.14)">
     <defs>
      <path d="M 33.09375 -24 
C 33.09375 -23.703125 33.09375 -23.5 31.40625 -21.796875 
C 18.90625 -9.125 15.703125 9.875 15.703125 25.25 
C 15.703125 42.734375 19.5 60.234375 31.796875 72.78125 
C 33.09375 73.984375 33.09375 74.1875 33.09375 74.484375 
C 33.09375 75.1875 32.703125 75.5 32.09375 75.5 
C 31.09375 75.5 22.09375 68.671875 16.203125 55.890625 
C 11.09375 44.84375 9.90625 33.6875 9.90625 25.25 
C 9.90625 17.40625 11 5.25 16.5 -6.109375 
C 22.5 -18.46875 31.09375 -25 32.09375 -25 
C 32.703125 -25 33.09375 -24.703125 33.09375 -24 
z
" id="CMR10-40"/>
      <path d="M 28.90625 25.25 
C 28.90625 33.09375 27.796875 45.25 22.296875 56.59375 
C 16.296875 68.96875 7.703125 75.5 6.703125 75.5 
C 6.09375 75.5 5.703125 75.09375 5.703125 74.484375 
C 5.703125 74.1875 5.703125 73.984375 7.59375 72.1875 
C 17.40625 62.234375 23.09375 46.25 23.09375 25.25 
C 23.09375 8.0625 19.40625 -9.640625 7 -22.296875 
C 5.703125 -23.5 5.703125 -23.703125 5.703125 -24 
C 5.703125 -24.609375 6.09375 -25 6.703125 -25 
C 7.703125 -25 16.703125 -18.171875 22.59375 -5.40625 
C 27.703125 5.65625 28.90625 16.796875 28.90625 25.25 
z
" id="CMR10-41"/>
      <path d="M 68.703125 32 
C 70.203125 32 72.09375 32 72.09375 34.015625 
C 72.09375 36.015625 70.203125 36.015625 68.796875 36.015625 
L 8.90625 36.015625 
C 7.5 36.015625 5.59375 36.015625 5.59375 34.015625 
C 5.59375 32 7.5 32 9 32 
z
M 68.796875 13 
C 70.203125 13 72.09375 13 72.09375 15.015625 
C 72.09375 17.015625 70.203125 17.015625 68.703125 17.015625 
L 9 17.015625 
C 7.5 17.015625 5.59375 17.015625 5.59375 15.015625 
C 5.59375 13 7.5 13 8.90625 13 
z
" id="CMR10-61"/>
     </defs>
     <use transform="scale(1.038107)" xlink:href="#CMSY10-41"/>
     <use transform="translate(132.73003 0)scale(0.996264)" xlink:href="#URW_Palladio_L_Roman-50"/>
     <use transform="translate(203.160283 0)scale(1.038107)" xlink:href="#CMSY10-1"/>
     <use transform="translate(253.814735 0)scale(1.038107)" xlink:href="#CMR10-40"/>
     <use transform="translate(296.55444 0)scale(0.996264)" xlink:href="#URW_Palladio_L_Italic-100"/>
     <use transform="translate(368.230008 0)scale(1.038107)" xlink:href="#CMSY10-1"/>
     <use transform="translate(422.371369 0)scale(0.996264)" xlink:href="#URW_Palladio_L_Italic-78"/>
     <use transform="translate(505.459827 0)scale(0.996264)" xlink:href="#URW_Palladio_L_Roman-47"/>
     <use transform="translate(567.078731 0)scale(0.996264)" xlink:href="#URW_Palladio_L_Roman-50"/>
     <use transform="translate(618.137231 0)scale(1.038107)" xlink:href="#CMR10-41"/>
     <use transform="translate(688.550869 0)scale(1.038107)" xlink:href="#CMR10-61"/>
     <use transform="translate(799.411797 0)scale(0.996264)" xlink:href="#URW_Palladio_L_Italic-100"/>
     <use transform="translate(871.087365 0)scale(1.038107)" xlink:href="#CMSY10-1"/>
     <use transform="translate(925.228726 0)scale(0.996264)" xlink:href="#URW_Palladio_L_Italic-78"/>
    </g>
   </g>
   <g id="text_12">
    <!-- $d \cdot N/4$ -->
    <g style="fill:#ffffff;" transform="translate(84.641851 127.722978)scale(0.14 -0.14)">
     <defs>
      <path d="M 28 18 
L 28 10.515625 
C 28 4.515625 26.90625 3.109375 22 3.109375 
L 15.796875 3.109375 
L 15.796875 0 
C 29.09375 0 29.09375 0 31.5 0 
C 33.90625 0 33.90625 0 47.203125 0 
L 47.203125 3.109375 
L 42.40625 3.109375 
C 37.5 3.109375 36.40625 4.40625 36.40625 10.453125 
L 36.40625 18 
C 42.296875 18 44.40625 18 47.203125 17.703125 
L 47.203125 24.8125 
C 42.5 24.421875 40.59375 24.421875 39.09375 24.421875 
L 38.796875 24.421875 
L 36.40625 24.421875 
L 36.40625 38.390625 
C 36.40625 56.25 36.59375 64.875 37.09375 69 
L 35.90625 69.5 
L 28.5 66.796875 
L 0.203125 20.296875 
L 1.296875 18 
z
M 28 24.421875 
L 6.5 24.421875 
L 28 59.78125 
z
" id="URW_Palladio_L_Roman-52"/>
     </defs>
     <use transform="scale(0.996264)" xlink:href="#URW_Palladio_L_Italic-100"/>
     <use transform="translate(71.675568 0)scale(1.038107)" xlink:href="#CMSY10-1"/>
     <use transform="translate(125.816929 0)scale(0.996264)" xlink:href="#URW_Palladio_L_Italic-78"/>
     <use transform="translate(208.905387 0)scale(0.996264)" xlink:href="#URW_Palladio_L_Roman-47"/>
     <use transform="translate(270.524291 0)scale(0.996264)" xlink:href="#URW_Palladio_L_Roman-52"/>
    </g>
   </g>
   <g id="text_13">
    <!-- $d \cdot N/4$ -->
    <g style="fill:#ffffff;" transform="translate(143.391751 127.722978)scale(0.14 -0.14)">
     <use transform="scale(0.996264)" xlink:href="#URW_Palladio_L_Italic-100"/>
     <use transform="translate(71.675568 0)scale(1.038107)" xlink:href="#CMSY10-1"/>
     <use transform="translate(125.816929 0)scale(0.996264)" xlink:href="#URW_Palladio_L_Italic-78"/>
     <use transform="translate(208.905387 0)scale(0.996264)" xlink:href="#URW_Palladio_L_Roman-47"/>
     <use transform="translate(270.524291 0)scale(0.996264)" xlink:href="#URW_Palladio_L_Roman-52"/>
    </g>
   </g>
   <g id="text_14">
    <!-- $d \cdot N/4$ -->
    <g style="fill:#ffffff;" transform="translate(202.141651 127.722978)scale(0.14 -0.14)">
     <use transform="scale(0.996264)" xlink:href="#URW_Palladio_L_Italic-100"/>
     <use transform="translate(71.675568 0)scale(1.038107)" xlink:href="#CMSY10-1"/>
     <use transform="translate(125.816929 0)scale(0.996264)" xlink:href="#URW_Palladio_L_Italic-78"/>
     <use transform="translate(208.905387 0)scale(0.996264)" xlink:href="#URW_Palladio_L_Roman-47"/>
     <use transform="translate(270.524291 0)scale(0.996264)" xlink:href="#URW_Palladio_L_Roman-52"/>
    </g>
   </g>
   <g id="text_15">
    <!-- $d \cdot N/4$ -->
    <g style="fill:#ffffff;" transform="translate(260.891551 127.722978)scale(0.14 -0.14)">
     <use transform="scale(0.996264)" xlink:href="#URW_Palladio_L_Italic-100"/>
     <use transform="translate(71.675568 0)scale(1.038107)" xlink:href="#CMSY10-1"/>
     <use transform="translate(125.816929 0)scale(0.996264)" xlink:href="#URW_Palladio_L_Italic-78"/>
     <use transform="translate(208.905387 0)scale(0.996264)" xlink:href="#URW_Palladio_L_Roman-47"/>
     <use transform="translate(270.524291 0)scale(0.996264)" xlink:href="#URW_Palladio_L_Roman-52"/>
    </g>
   </g>
   <g id="text_16">
    <!-- $\Rightarrow 4 \cdot (d \cdot N/4) = d \cdot N$ -->
    <g transform="translate(324.440083 128.033368)scale(0.14 -0.14)">
     <use transform="scale(1.038107)" xlink:href="#CMSY10-41"/>
     <use transform="translate(132.73003 0)scale(0.996264)" xlink:href="#URW_Palladio_L_Roman-52"/>
     <use transform="translate(203.160283 0)scale(1.038107)" xlink:href="#CMSY10-1"/>
     <use transform="translate(253.814735 0)scale(1.038107)" xlink:href="#CMR10-40"/>
     <use transform="translate(296.55444 0)scale(0.996264)" xlink:href="#URW_Palladio_L_Italic-100"/>
     <use transform="translate(368.230008 0)scale(1.038107)" xlink:href="#CMSY10-1"/>
     <use transform="translate(422.371369 0)scale(0.996264)" xlink:href="#URW_Palladio_L_Italic-78"/>
     <use transform="translate(505.459827 0)scale(0.996264)" xlink:href="#URW_Palladio_L_Roman-47"/>
     <use transform="translate(567.078731 0)scale(0.996264)" xlink:href="#URW_Palladio_L_Roman-52"/>
     <use transform="translate(618.137231 0)scale(1.038107)" xlink:href="#CMR10-41"/>
     <use transform="translate(688.550869 0)scale(1.038107)" xlink:href="#CMR10-61"/>
     <use transform="translate(799.411797 0)scale(0.996264)" xlink:href="#URW_Palladio_L_Italic-100"/>
     <use transform="translate(871.087365 0)scale(1.038107)" xlink:href="#CMSY10-1"/>
     <use transform="translate(925.228726 0)scale(0.996264)" xlink:href="#URW_Palladio_L_Italic-78"/>
    </g>
   </g>
   <g id="text_17">
    <!-- $\Rightarrow 2^\ell \cdot (d \cdot N / 2^\ell) = d \cdot N$ -->
    <g transform="translate(324.440083 175.949926)scale(0.14 -0.14)">
     <use transform="scale(1.038107)" xlink:href="#CMSY10-41"/>
     <use transform="translate(132.73003 0)scale(0.996264)" xlink:href="#URW_Palladio_L_Roman-50"/>
     <use transform="translate(183.489648 36.164371)scale(0.788955)" xlink:href="#CMMI10-96"/>
     <use transform="translate(238.336128 0)scale(1.038107)" xlink:href="#CMSY10-1"/>
     <use transform="translate(288.99058 0)scale(1.038107)" xlink:href="#CMR10-40"/>
     <use transform="translate(331.730285 0)scale(0.996264)" xlink:href="#URW_Palladio_L_Italic-100"/>
     <use transform="translate(403.405853 0)scale(1.038107)" xlink:href="#CMSY10-1"/>
     <use transform="translate(457.547214 0)scale(0.996264)" xlink:href="#URW_Palladio_L_Italic-78"/>
     <use transform="translate(540.635672 0)scale(0.996264)" xlink:href="#URW_Palladio_L_Roman-47"/>
     <use transform="translate(602.254576 0)scale(0.996264)" xlink:href="#URW_Palladio_L_Roman-50"/>
     <use transform="translate(653.014194 36.164371)scale(0.788955)" xlink:href="#CMMI10-96"/>
     <use transform="translate(688.488922 0)scale(1.038107)" xlink:href="#CMR10-41"/>
     <use transform="translate(758.902559 0)scale(1.038107)" xlink:href="#CMR10-61"/>
     <use transform="translate(869.763488 0)scale(0.996264)" xlink:href="#URW_Palladio_L_Italic-100"/>
     <use transform="translate(941.439055 0)scale(1.038107)" xlink:href="#CMSY10-1"/>
     <use transform="translate(995.580416 0)scale(0.996264)" xlink:href="#URW_Palladio_L_Italic-78"/>
    </g>
   </g>
   <g id="text_18">
    <!-- $d$ -->
    <g style="fill:#ffffff;" transform="translate(85.953558 221.722818)scale(0.14 -0.14)">
     <use transform="scale(0.996264)" xlink:href="#URW_Palladio_L_Italic-100"/>
    </g>
   </g>
   <g id="text_19">
    <!-- $d$ -->
    <g style="fill:#ffffff;" transform="translate(111.803514 221.722818)scale(0.14 -0.14)">
     <use transform="scale(0.996264)" xlink:href="#URW_Palladio_L_Italic-100"/>
    </g>
   </g>
   <g id="text_20">
    <!-- $d$ -->
    <g style="fill:#ffffff;" transform="translate(137.65347 221.722818)scale(0.14 -0.14)">
     <use transform="scale(0.996264)" xlink:href="#URW_Palladio_L_Italic-100"/>
    </g>
   </g>
   <g id="text_21">
    <!-- $d$ -->
    <g style="fill:#ffffff;" transform="translate(297.453198 221.722818)scale(0.14 -0.14)">
     <use transform="scale(0.996264)" xlink:href="#URW_Palladio_L_Italic-100"/>
    </g>
   </g>
   <g id="text_22">
    <!-- $\dots$ -->
    <g transform="translate(182.770249 223.450349)scale(0.22 -0.22)">
     <use transform="scale(0.996264)" xlink:href="#URW_Palladio_L_Roman-46"/>
     <use transform="translate(44.001574 0)scale(0.996264)" xlink:href="#URW_Palladio_L_Roman-46"/>
     <use transform="translate(88.003149 0)scale(0.996264)" xlink:href="#URW_Palladio_L_Roman-46"/>
    </g>
   </g>
   <g id="text_23">
    <!-- $\Rightarrow 2^{\log_2 N} \cdot d  = d \cdot N$ -->
    <g transform="translate(324.440083 221.722818)scale(0.14 -0.14)">
     <use transform="scale(1.038107)" xlink:href="#CMSY10-41"/>
     <use transform="translate(132.73003 0)scale(0.996264)" xlink:href="#URW_Palladio_L_Roman-50"/>
     <use transform="translate(182.543231 36.164371)scale(0.757155)" xlink:href="#URW_Palladio_L_Roman-108"/>
     <use transform="translate(204.575752 36.164371)scale(0.757155)" xlink:href="#URW_Palladio_L_Roman-111"/>
     <use transform="translate(245.916087 36.164371)scale(0.757155)" xlink:href="#URW_Palladio_L_Roman-103"/>
     <use transform="translate(288.013455 11.824174)scale(0.597764)" xlink:href="#URW_Palladio_L_Roman-50"/>
     <use transform="translate(334.615492 36.164371)scale(0.757155)" xlink:href="#URW_Palladio_L_Italic-78"/>
     <use transform="translate(417.931034 0)scale(1.038107)" xlink:href="#CMSY10-1"/>
     <use transform="translate(468.585486 0)scale(0.996264)" xlink:href="#URW_Palladio_L_Italic-100"/>
     <use transform="translate(548.563234 0)scale(1.038107)" xlink:href="#CMR10-61"/>
     <use transform="translate(659.424163 0)scale(0.996264)" xlink:href="#URW_Palladio_L_Italic-100"/>
     <use transform="translate(731.09973 0)scale(1.038107)" xlink:href="#CMSY10-1"/>
     <use transform="translate(785.241091 0)scale(0.996264)" xlink:href="#URW_Palladio_L_Italic-78"/>
    </g>
   </g>
   <g id="text_24">
    <!-- $T(N) \leq d \cdot N \cdot (1 + \log_2 N)$ -->
    <g transform="translate(311.394987 268.883581)scale(0.14 -0.14)">
     <defs>
      <path d="M 39 64.625 
L 46.296875 64.625 
C 54.09375 64.625 57.703125 64.125 58 62.9375 
C 58.296875 62.140625 58.5 60.234375 58.40625 59.234375 
L 58 52.859375 
L 60.796875 52.859375 
L 63.5 69 
L 54.40625 69 
C 45.59375 69 38.796875 69 35.296875 69 
C 31.59375 69 25.203125 69 16.59375 69 
L 7.09375 69 
L 5.296875 52.859375 
L 8.203125 52.859375 
L 9.703125 58.84375 
C 10.203125 61.046875 10.90625 62.640625 11.5 63.328125 
C 12.09375 64.03125 15.90625 64.625 19.59375 64.625 
L 30.796875 64.625 
L 22.203125 12.515625 
C 20.59375 3.40625 20.40625 3.109375 16.40625 2.796875 
L 11.296875 2.796875 
L 10.90625 0 
L 16.59375 0 
C 20.59375 0 23.5 0 25.09375 0 
C 27 0 30.09375 0 34 0 
L 38.40625 0 
L 38.703125 2.796875 
L 32.796875 2.796875 
C 30.203125 2.796875 29.203125 3.59375 29.203125 5.703125 
C 29.203125 6.609375 29.296875 7.3125 29.59375 9.21875 
z
" id="URW_Palladio_L_Italic-84"/>
      <path d="M 67.5 59.5625 
C 68.59375 60.0625 69.40625 60.5625 69.40625 61.75 
C 69.40625 62.859375 68.59375 63.75 67.40625 63.75 
C 66.90625 63.75 66 63.359375 65.59375 63.15625 
L 10.296875 37.0625 
C 8.59375 36.25 8.296875 35.5625 8.296875 34.75 
C 8.296875 33.859375 8.90625 33.15625 10.296875 32.5625 
L 65.59375 6.5625 
C 66.90625 5.859375 67.09375 5.859375 67.40625 5.859375 
C 68.5 5.859375 69.40625 6.75 69.40625 7.859375 
C 69.40625 8.75 69 9.359375 67.296875 10.15625 
L 15 34.75 
z
M 65.90625 -13.921875 
C 67.59375 -13.921875 69.40625 -13.921875 69.40625 -11.921875 
C 69.40625 -9.921875 67.296875 -9.921875 65.796875 -9.921875 
L 11.90625 -9.921875 
C 10.40625 -9.921875 8.296875 -9.921875 8.296875 -11.921875 
C 8.296875 -13.921875 10.09375 -13.921875 11.796875 -13.921875 
z
" id="CMSY10-20"/>
      <path d="M 40.90625 23 
L 68.796875 23 
C 70.203125 23 72.09375 23 72.09375 25 
C 72.09375 27.015625 70.203125 27.015625 68.796875 27.015625 
L 40.90625 27.015625 
L 40.90625 55.1875 
C 40.90625 56.59375 40.90625 58.5 38.90625 58.5 
C 36.90625 58.5 36.90625 56.59375 36.90625 55.1875 
L 36.90625 27.015625 
L 8.90625 27.015625 
C 7.5 27.015625 5.59375 27.015625 5.59375 25 
C 5.59375 23 7.5 23 8.90625 23 
L 36.90625 23 
L 36.90625 -5.171875 
C 36.90625 -6.578125 36.90625 -8.5 38.90625 -8.5 
C 40.90625 -8.5 40.90625 -6.578125 40.90625 -5.171875 
z
" id="CMR10-43"/>
     </defs>
     <use transform="scale(0.996264)" xlink:href="#URW_Palladio_L_Italic-84"/>
     <use transform="translate(65.752452 0)scale(1.038107)" xlink:href="#CMR10-40"/>
     <use transform="translate(111.979065 0)scale(0.996264)" xlink:href="#URW_Palladio_L_Italic-78"/>
     <use transform="translate(195.067523 0)scale(1.038107)" xlink:href="#CMR10-41"/>
     <use transform="translate(265.481161 0)scale(1.038107)" xlink:href="#CMSY10-20"/>
     <use transform="translate(376.342089 0)scale(0.996264)" xlink:href="#URW_Palladio_L_Italic-100"/>
     <use transform="translate(448.017657 0)scale(1.038107)" xlink:href="#CMSY10-1"/>
     <use transform="translate(502.159018 0)scale(0.996264)" xlink:href="#URW_Palladio_L_Italic-78"/>
     <use transform="translate(604.619229 0)scale(1.038107)" xlink:href="#CMSY10-1"/>
     <use transform="translate(655.273681 0)scale(1.038107)" xlink:href="#CMR10-40"/>
     <use transform="translate(696.768086 0)scale(0.996264)" xlink:href="#URW_Palladio_L_Roman-49"/>
     <use transform="translate(767.198339 0)scale(1.038107)" xlink:href="#CMR10-43"/>
     <use transform="translate(868.511788 0)scale(0.996264)" xlink:href="#URW_Palladio_L_Roman-108"/>
     <use transform="translate(897.50215 0)scale(0.996264)" xlink:href="#URW_Palladio_L_Roman-111"/>
     <use transform="translate(951.89773 0)scale(0.996264)" xlink:href="#URW_Palladio_L_Roman-103"/>
     <use transform="translate(1007.289407 -31.879901)scale(0.757155)" xlink:href="#URW_Palladio_L_Roman-50"/>
     <use transform="translate(1066.981865 0)scale(0.996264)" xlink:href="#URW_Palladio_L_Italic-78"/>
     <use transform="translate(1150.070323 0)scale(1.038107)" xlink:href="#CMR10-41"/>
    </g>
   </g>
  </g>
 </g>
 <defs>
  <clipPath id="p29d1bc3cf8">
   <rect height="281.99952" width="234.9996" x="77.690503" y="7.2"/>
  </clipPath>
 </defs>
</svg>
