<?xml version="1.0" encoding="utf-8" standalone="no"?>
<!DOCTYPE svg PUBLIC "-//W3C//DTD SVG 1.1//EN"
  "http://www.w3.org/Graphics/SVG/1.1/DTD/svg11.dtd">
<svg height="329.212705pt" version="1.1" viewBox="0 0 590.642301 329.212705" width="590.642301pt" xmlns="http://www.w3.org/2000/svg" xmlns:xlink="http://www.w3.org/1999/xlink">
 <metadata>
  <rdf:RDF xmlns:cc="http://creativecommons.org/ns#" xmlns:dc="http://purl.org/dc/elements/1.1/" xmlns:rdf="http://www.w3.org/1999/02/22-rdf-syntax-ns#">
   <cc:Work>
    <dc:type rdf:resource="http://purl.org/dc/dcmitype/StillImage"/>
    <dc:date>2022-01-12T09:26:09.086597</dc:date>
    <dc:format>image/svg+xml</dc:format>
    <dc:creator>
     <cc:Agent>
      <dc:title>Matplotlib v3.4.2, https://matplotlib.org/</dc:title>
     </cc:Agent>
    </dc:creator>
   </cc:Work>
  </rdf:RDF>
 </metadata>
 <defs>
  <style type="text/css">*{stroke-linecap:butt;stroke-linejoin:round;}</style>
 </defs>
 <g id="figure_1">
  <g id="patch_1">
   <path d="M 0 329.212705 
L 590.642301 329.212705 
L 590.642301 0 
L 0 0 
z
" style="fill:none;"/>
  </g>
  <g id="patch_2">
   <path d="M 20.995479 128.116007 
Q 2.260941 79.97258 30.715494 34.199856 
" style="fill:none;opacity:0.25;stroke:#0271ae;stroke-linecap:round;stroke-width:2;"/>
   <path d="M 21.408732 123.663006 
L 20.995479 128.116007 
L 17.68103 125.113604 
" style="fill:none;opacity:0.25;stroke:#0271ae;stroke-linecap:round;stroke-width:2;"/>
  </g>
  <g id="patch_3">
   <path d="M 38.10666 111.231685 
Q 27.897261 58.744787 65.26092 17.426616 
" style="fill:none;opacity:0.25;stroke:#0271ae;stroke-linecap:round;stroke-width:2;"/>
   <path d="M 39.306126 106.923405 
L 38.10666 111.231685 
L 35.379716 107.687144 
" style="fill:none;opacity:0.25;stroke:#0271ae;stroke-linecap:round;stroke-width:2;"/>
  </g>
  <g id="patch_4">
   <path d="M 55.195535 114.787897 
Q 53.533581 57.88663 99.806345 21.023012 
" style="fill:none;opacity:0.25;stroke:#0271ae;stroke-linecap:round;stroke-width:2;"/>
   <path d="M 57.077902 110.731212 
L 55.195535 114.787897 
L 53.079607 110.847992 
" style="fill:none;opacity:0.25;stroke:#0271ae;stroke-linecap:round;stroke-width:2;"/>
  </g>
  <g id="patch_5">
   <path d="M 316.314396 119.9128 
Q 159.260934 139.275556 47.988207 23.639192 
" style="fill:none;opacity:0.25;stroke:#dc2830;stroke-linecap:round;stroke-width:2;"/>
   <path d="M 312.099731 118.417274 
L 316.314396 119.9128 
L 312.589176 122.387216 
" style="fill:none;opacity:0.25;stroke:#dc2830;stroke-linecap:round;stroke-width:2;"/>
  </g>
  <g id="patch_6">
   <path d="M 333.399892 112.733624 
Q 185.079087 127.780663 82.533632 16.507935 
" style="fill:none;opacity:0.25;stroke:#dc2830;stroke-linecap:round;stroke-width:2;"/>
   <path d="M 329.218456 111.147562 
L 333.399892 112.733624 
L 329.622181 115.127136 
" style="fill:none;opacity:0.25;stroke:#dc2830;stroke-linecap:round;stroke-width:2;"/>
  </g>
  <g id="patch_7">
   <path d="M 350.48594 126.455964 
Q 210.89724 137.193556 117.079058 30.284465 
" style="fill:none;opacity:0.25;stroke:#dc2830;stroke-linecap:round;stroke-width:2;"/>
   <path d="M 346.344329 124.768641 
L 350.48594 126.455964 
L 346.651115 128.756859 
" style="fill:none;opacity:0.25;stroke:#dc2830;stroke-linecap:round;stroke-width:2;"/>
  </g>
  <g id="patch_8">
   <path d="M 16.445614 224.155654 
Q -4.420888 177.086218 21.806389 130.199856 
" style="fill:none;opacity:0.25;stroke:#f2aa00;stroke-linecap:round;stroke-width:2;"/>
   <path d="M 16.652905 219.688325 
L 16.445614 224.155654 
L 12.996125 221.309423 
" style="fill:none;opacity:0.25;stroke:#f2aa00;stroke-linecap:round;stroke-width:2;"/>
  </g>
  <g id="patch_9">
   <path d="M 32.465938 210.848754 
Q 20.124436 159.454821 55.260818 117.023012 
" style="fill:none;opacity:0.25;stroke:#f2aa00;stroke-linecap:round;stroke-width:2;"/>
   <path d="M 33.476663 206.49233 
L 32.465938 210.848754 
L 29.587233 207.42632 
" style="fill:none;opacity:0.25;stroke:#f2aa00;stroke-linecap:round;stroke-width:2;"/>
  </g>
  <g id="patch_10">
   <path d="M 48.472227 259.968771 
Q 44.66976 204.17692 88.715247 166.199664 
" style="fill:none;opacity:0.25;stroke:#f2aa00;stroke-linecap:round;stroke-width:2;"/>
   <path d="M 50.195611 255.842036 
L 48.472227 259.968771 
L 46.204869 256.114023 
" style="fill:none;opacity:0.25;stroke:#f2aa00;stroke-linecap:round;stroke-width:2;"/>
  </g>
  <g id="patch_11">
   <path d="M 171.129289 207.447592 
Q 129.351894 128.01747 38.533603 113.426616 
" style="fill:none;opacity:0.25;stroke:#6e3b87;stroke-linecap:round;stroke-width:2;"/>
   <path d="M 171.037371 202.9764 
L 171.129289 207.447592 
L 167.497186 204.838411 
" style="fill:none;opacity:0.25;stroke:#6e3b87;stroke-linecap:round;stroke-width:2;"/>
  </g>
  <g id="patch_12">
   <path d="M 186.904757 232.8361 
Q 153.897218 157.927731 71.988032 138.882324 
" style="fill:none;opacity:0.25;stroke:#6e3b87;stroke-linecap:round;stroke-width:2;"/>
   <path d="M 187.122042 228.369245 
L 186.904757 232.8361 
L 183.461645 229.982159 
" style="fill:none;opacity:0.25;stroke:#6e3b87;stroke-linecap:round;stroke-width:2;"/>
  </g>
  <g id="patch_13">
   <path d="M 202.713682 276.858987 
Q 178.442541 206.472864 105.442461 182.972904 
" style="fill:none;opacity:0.25;stroke:#6e3b87;stroke-linecap:round;stroke-width:2;"/>
   <path d="M 203.300462 272.425513 
L 202.713682 276.858987 
L 199.518971 273.729479 
" style="fill:none;opacity:0.25;stroke:#6e3b87;stroke-linecap:round;stroke-width:2;"/>
  </g>
  <g id="patch_14">
   <path d="M 308.457811 213.552313 
Q 289.897276 165.320999 318.533661 119.639192 
" style="fill:none;opacity:0.25;stroke:#007d80;stroke-linecap:round;stroke-width:2;"/>
   <path d="M 308.887779 209.100895 
L 308.457811 213.552313 
L 305.154657 210.537487 
" style="fill:none;opacity:0.25;stroke:#007d80;stroke-linecap:round;stroke-width:2;"/>
  </g>
  <g id="patch_15">
   <path d="M 324.49327 220.085167 
Q 314.806265 167.329887 352.715421 126.284465 
" style="fill:none;opacity:0.25;stroke:#007d80;stroke-linecap:round;stroke-width:2;"/>
   <path d="M 325.737974 215.789738 
L 324.49327 220.085167 
L 321.803749 216.512146 
" style="fill:none;opacity:0.25;stroke:#007d80;stroke-linecap:round;stroke-width:2;"/>
  </g>
  <g id="patch_16">
   <path d="M 340.502633 270.524471 
Q 339.715254 213.169364 386.897181 176.760328 
" style="fill:none;opacity:0.25;stroke:#007d80;stroke-linecap:round;stroke-width:2;"/>
   <path d="M 342.447537 266.497394 
L 340.502633 270.524471 
L 338.447914 266.552301 
" style="fill:none;opacity:0.25;stroke:#007d80;stroke-linecap:round;stroke-width:2;"/>
  </g>
  <g id="patch_17">
   <path d="M 469.033107 206.531929 
Q 426.85213 126.894141 335.624541 112.507935 
" style="fill:none;opacity:0.25;stroke:#00631e;stroke-linecap:round;stroke-width:2;"/>
   <path d="M 468.928264 202.061022 
L 469.033107 206.531929 
L 465.393476 203.933259 
" style="fill:none;opacity:0.25;stroke:#00631e;stroke-linecap:round;stroke-width:2;"/>
  </g>
  <g id="patch_18">
   <path d="M 484.8135 246.852803 
Q 451.76112 171.921269 369.806301 152.898678 
" style="fill:none;opacity:0.25;stroke:#00631e;stroke-linecap:round;stroke-width:2;"/>
   <path d="M 485.029057 242.385864 
L 484.8135 246.852803 
L 481.369283 244.000194 
" style="fill:none;opacity:0.25;stroke:#00631e;stroke-linecap:round;stroke-width:2;"/>
  </g>
  <g id="patch_19">
   <path d="M 500.630102 277.775305 
Q 476.670109 207.550561 403.988061 183.891585 
" style="fill:none;opacity:0.25;stroke:#00631e;stroke-linecap:round;stroke-width:2;"/>
   <path d="M 501.231311 273.343765 
L 500.630102 277.775305 
L 497.445595 274.635414 
" style="fill:none;opacity:0.25;stroke:#00631e;stroke-linecap:round;stroke-width:2;"/>
  </g>
  <g id="axes_1">
   <g id="patch_20">
    <path d="M 13.442781 97.19952 
L 583.442301 97.19952 
L 583.442301 7.2 
L 13.442781 7.2 
z
" style="fill:none;"/>
   </g>
   <g id="line2d_1">
    <defs>
     <path d="M -6 6 
L 6 6 
L 6 -6 
L -6 -6 
z
" id="me5838f2c6d"/>
    </defs>
    <g clip-path="url(#p3082a44da3)">
     <use style="fill:#0271ae;fill-opacity:0.5;" x="30.715494" xlink:href="#me5838f2c6d" y="34.199856"/>
     <use style="fill:#0271ae;fill-opacity:0.5;" x="65.26092" xlink:href="#me5838f2c6d" y="17.426616"/>
     <use style="fill:#0271ae;fill-opacity:0.5;" x="99.806345" xlink:href="#me5838f2c6d" y="21.023012"/>
     <use style="fill:#0271ae;fill-opacity:0.5;" x="134.35177" xlink:href="#me5838f2c6d" y="42.882324"/>
     <use style="fill:#0271ae;fill-opacity:0.5;" x="168.897196" xlink:href="#me5838f2c6d" y="70.199664"/>
     <use style="fill:#0271ae;fill-opacity:0.5;" x="203.442621" xlink:href="#me5838f2c6d" y="86.972904"/>
     <use style="fill:#0271ae;fill-opacity:0.5;" x="237.988047" xlink:href="#me5838f2c6d" y="83.376508"/>
     <use style="fill:#0271ae;fill-opacity:0.5;" x="272.533472" xlink:href="#me5838f2c6d" y="61.517196"/>
     <use style="fill:#0271ae;fill-opacity:0.5;" x="307.078898" xlink:href="#me5838f2c6d" y="34.199856"/>
     <use style="fill:#0271ae;fill-opacity:0.5;" x="341.624323" xlink:href="#me5838f2c6d" y="17.426616"/>
     <use style="fill:#0271ae;fill-opacity:0.5;" x="376.169749" xlink:href="#me5838f2c6d" y="21.023012"/>
     <use style="fill:#0271ae;fill-opacity:0.5;" x="410.715174" xlink:href="#me5838f2c6d" y="42.882324"/>
     <use style="fill:#0271ae;fill-opacity:0.5;" x="445.2606" xlink:href="#me5838f2c6d" y="70.199664"/>
     <use style="fill:#0271ae;fill-opacity:0.5;" x="479.806025" xlink:href="#me5838f2c6d" y="86.972904"/>
     <use style="fill:#0271ae;fill-opacity:0.5;" x="514.35145" xlink:href="#me5838f2c6d" y="83.376508"/>
     <use style="fill:#0271ae;fill-opacity:0.5;" x="548.896876" xlink:href="#me5838f2c6d" y="61.517196"/>
    </g>
   </g>
   <g id="line2d_2">
    <defs>
     <path d="M -6 6 
L 6 6 
L 6 -6 
L -6 -6 
z
" id="mdd0cdb07a6"/>
    </defs>
    <g clip-path="url(#p3082a44da3)">
     <use style="fill:#dc2830;fill-opacity:0.5;" x="47.988207" xlink:href="#mdd0cdb07a6" y="23.639192"/>
     <use style="fill:#dc2830;fill-opacity:0.5;" x="82.533632" xlink:href="#mdd0cdb07a6" y="16.507935"/>
     <use style="fill:#dc2830;fill-opacity:0.5;" x="117.079058" xlink:href="#mdd0cdb07a6" y="30.284465"/>
     <use style="fill:#dc2830;fill-opacity:0.5;" x="151.624483" xlink:href="#mdd0cdb07a6" y="56.898678"/>
     <use style="fill:#dc2830;fill-opacity:0.5;" x="186.169909" xlink:href="#mdd0cdb07a6" y="80.760328"/>
     <use style="fill:#dc2830;fill-opacity:0.5;" x="220.715334" xlink:href="#mdd0cdb07a6" y="87.891585"/>
     <use style="fill:#dc2830;fill-opacity:0.5;" x="255.26076" xlink:href="#mdd0cdb07a6" y="74.115055"/>
     <use style="fill:#dc2830;fill-opacity:0.5;" x="289.806185" xlink:href="#mdd0cdb07a6" y="47.500842"/>
     <use style="fill:#dc2830;fill-opacity:0.5;" x="324.35161" xlink:href="#mdd0cdb07a6" y="23.639192"/>
     <use style="fill:#dc2830;fill-opacity:0.5;" x="358.897036" xlink:href="#mdd0cdb07a6" y="16.507935"/>
     <use style="fill:#dc2830;fill-opacity:0.5;" x="393.442461" xlink:href="#mdd0cdb07a6" y="30.284465"/>
     <use style="fill:#dc2830;fill-opacity:0.5;" x="427.987887" xlink:href="#mdd0cdb07a6" y="56.898678"/>
     <use style="fill:#dc2830;fill-opacity:0.5;" x="462.533312" xlink:href="#mdd0cdb07a6" y="80.760328"/>
     <use style="fill:#dc2830;fill-opacity:0.5;" x="497.078738" xlink:href="#mdd0cdb07a6" y="87.891585"/>
     <use style="fill:#dc2830;fill-opacity:0.5;" x="531.624163" xlink:href="#mdd0cdb07a6" y="74.115055"/>
     <use style="fill:#dc2830;fill-opacity:0.5;" x="566.169589" xlink:href="#mdd0cdb07a6" y="47.500842"/>
    </g>
   </g>
   <g id="matplotlib.axis_1"/>
   <g id="matplotlib.axis_2">
    <g id="ytick_1">
     <g id="line2d_3">
      <path clip-path="url(#p3082a44da3)" d="M 13.442781 52.19976 
L 583.442301 52.19976 
" style="fill:none;stroke:#000000;stroke-linejoin:miter;stroke-opacity:0.2;stroke-width:0.5;"/>
     </g>
     <g id="line2d_4">
      <defs>
       <path d="M 0 0 
L -3.5 0 
" id="m295c427e13" style="stroke:#000000;stroke-opacity:0.2;stroke-width:0.8;"/>
      </defs>
      <g>
       <use style="fill-opacity:0.2;stroke:#000000;stroke-opacity:0.2;stroke-width:0.8;" x="13.442781" xlink:href="#m295c427e13" y="52.19976"/>
      </g>
     </g>
    </g>
   </g>
   <g id="line2d_5">
    <path clip-path="url(#p3082a44da3)" d="M 30.715494 34.199856 
L 47.988207 34.199856 
L 47.988207 23.639192 
L 65.26092 23.639192 
L 65.26092 17.426616 
L 82.533632 17.426616 
L 82.533632 16.507935 
L 99.806345 16.507935 
L 99.806345 21.023012 
L 117.079058 21.023012 
L 117.079058 30.284465 
L 134.35177 30.284465 
L 134.35177 42.882324 
L 151.624483 42.882324 
L 151.624483 56.898678 
L 168.897196 56.898678 
L 168.897196 70.199664 
L 186.169909 70.199664 
L 186.169909 80.760328 
L 203.442621 80.760328 
L 203.442621 86.972904 
L 220.715334 86.972904 
L 220.715334 87.891585 
L 237.988047 87.891585 
L 237.988047 83.376508 
L 255.26076 83.376508 
L 255.26076 74.115055 
L 272.533472 74.115055 
L 272.533472 61.517196 
L 289.806185 61.517196 
L 289.806185 47.500842 
L 307.078898 47.500842 
L 307.078898 34.199856 
L 324.35161 34.199856 
L 324.35161 23.639192 
L 341.624323 23.639192 
L 341.624323 17.426616 
L 358.897036 17.426616 
L 358.897036 16.507935 
L 376.169749 16.507935 
L 376.169749 21.023012 
L 393.442461 21.023012 
L 393.442461 30.284465 
L 410.715174 30.284465 
L 410.715174 42.882324 
L 427.987887 42.882324 
L 427.987887 56.898678 
L 445.2606 56.898678 
L 445.2606 70.199664 
L 462.533312 70.199664 
L 462.533312 80.760328 
L 479.806025 80.760328 
L 479.806025 86.972904 
L 497.078738 86.972904 
L 497.078738 87.891585 
L 514.35145 87.891585 
L 514.35145 83.376508 
L 531.624163 83.376508 
L 531.624163 74.115055 
L 548.896876 74.115055 
L 548.896876 61.517196 
L 566.169589 61.517196 
L 566.169589 47.500842 
" style="fill:none;stroke:#343837;stroke-linejoin:miter;stroke-width:3;"/>
    <defs>
     <path d="M -2.5 2.5 
L 2.5 2.5 
L 2.5 -2.5 
L -2.5 -2.5 
z
" id="m9585606276"/>
    </defs>
    <g clip-path="url(#p3082a44da3)">
     <use style="fill:#343837;" x="30.715494" xlink:href="#m9585606276" y="34.199856"/>
     <use style="fill:#343837;" x="47.988207" xlink:href="#m9585606276" y="23.639192"/>
     <use style="fill:#343837;" x="65.26092" xlink:href="#m9585606276" y="17.426616"/>
     <use style="fill:#343837;" x="82.533632" xlink:href="#m9585606276" y="16.507935"/>
     <use style="fill:#343837;" x="99.806345" xlink:href="#m9585606276" y="21.023012"/>
     <use style="fill:#343837;" x="117.079058" xlink:href="#m9585606276" y="30.284465"/>
     <use style="fill:#343837;" x="134.35177" xlink:href="#m9585606276" y="42.882324"/>
     <use style="fill:#343837;" x="151.624483" xlink:href="#m9585606276" y="56.898678"/>
     <use style="fill:#343837;" x="168.897196" xlink:href="#m9585606276" y="70.199664"/>
     <use style="fill:#343837;" x="186.169909" xlink:href="#m9585606276" y="80.760328"/>
     <use style="fill:#343837;" x="203.442621" xlink:href="#m9585606276" y="86.972904"/>
     <use style="fill:#343837;" x="220.715334" xlink:href="#m9585606276" y="87.891585"/>
     <use style="fill:#343837;" x="237.988047" xlink:href="#m9585606276" y="83.376508"/>
     <use style="fill:#343837;" x="255.26076" xlink:href="#m9585606276" y="74.115055"/>
     <use style="fill:#343837;" x="272.533472" xlink:href="#m9585606276" y="61.517196"/>
     <use style="fill:#343837;" x="289.806185" xlink:href="#m9585606276" y="47.500842"/>
     <use style="fill:#343837;" x="307.078898" xlink:href="#m9585606276" y="34.199856"/>
     <use style="fill:#343837;" x="324.35161" xlink:href="#m9585606276" y="23.639192"/>
     <use style="fill:#343837;" x="341.624323" xlink:href="#m9585606276" y="17.426616"/>
     <use style="fill:#343837;" x="358.897036" xlink:href="#m9585606276" y="16.507935"/>
     <use style="fill:#343837;" x="376.169749" xlink:href="#m9585606276" y="21.023012"/>
     <use style="fill:#343837;" x="393.442461" xlink:href="#m9585606276" y="30.284465"/>
     <use style="fill:#343837;" x="410.715174" xlink:href="#m9585606276" y="42.882324"/>
     <use style="fill:#343837;" x="427.987887" xlink:href="#m9585606276" y="56.898678"/>
     <use style="fill:#343837;" x="445.2606" xlink:href="#m9585606276" y="70.199664"/>
     <use style="fill:#343837;" x="462.533312" xlink:href="#m9585606276" y="80.760328"/>
     <use style="fill:#343837;" x="479.806025" xlink:href="#m9585606276" y="86.972904"/>
     <use style="fill:#343837;" x="497.078738" xlink:href="#m9585606276" y="87.891585"/>
     <use style="fill:#343837;" x="514.35145" xlink:href="#m9585606276" y="83.376508"/>
     <use style="fill:#343837;" x="531.624163" xlink:href="#m9585606276" y="74.115055"/>
     <use style="fill:#343837;" x="548.896876" xlink:href="#m9585606276" y="61.517196"/>
     <use style="fill:#343837;" x="566.169589" xlink:href="#m9585606276" y="47.500842"/>
    </g>
   </g>
  </g>
  <g id="axes_2">
   <g id="patch_21">
    <path d="M 13.442781 193.19952 
L 289.441821 193.19952 
L 289.441821 103.2 
L 13.442781 103.2 
z
" style="fill:none;"/>
   </g>
   <g id="line2d_6">
    <defs>
     <path d="M -6 6 
L 6 6 
L 6 -6 
L -6 -6 
z
" id="m4aba54b4f6"/>
    </defs>
    <g clip-path="url(#p538b4f8f12)">
     <use style="fill:#f2aa00;fill-opacity:0.5;" x="21.806389" xlink:href="#m4aba54b4f6" y="130.199856"/>
     <use style="fill:#f2aa00;fill-opacity:0.5;" x="55.260818" xlink:href="#m4aba54b4f6" y="117.023012"/>
     <use style="fill:#f2aa00;fill-opacity:0.5;" x="88.715247" xlink:href="#m4aba54b4f6" y="166.199664"/>
     <use style="fill:#f2aa00;fill-opacity:0.5;" x="122.169676" xlink:href="#m4aba54b4f6" y="179.376508"/>
     <use style="fill:#f2aa00;fill-opacity:0.5;" x="155.624105" xlink:href="#m4aba54b4f6" y="130.199856"/>
     <use style="fill:#f2aa00;fill-opacity:0.5;" x="189.078534" xlink:href="#m4aba54b4f6" y="117.023012"/>
     <use style="fill:#f2aa00;fill-opacity:0.5;" x="222.532963" xlink:href="#m4aba54b4f6" y="166.199664"/>
     <use style="fill:#f2aa00;fill-opacity:0.5;" x="255.987392" xlink:href="#m4aba54b4f6" y="179.376508"/>
    </g>
   </g>
   <g id="line2d_7">
    <defs>
     <path d="M -6 6 
L 6 6 
L 6 -6 
L -6 -6 
z
" id="m79ea3838b8"/>
    </defs>
    <g clip-path="url(#p538b4f8f12)">
     <use style="fill:#6e3b87;fill-opacity:0.5;" x="38.533603" xlink:href="#m79ea3838b8" y="113.426616"/>
     <use style="fill:#6e3b87;fill-opacity:0.5;" x="71.988032" xlink:href="#m79ea3838b8" y="138.882324"/>
     <use style="fill:#6e3b87;fill-opacity:0.5;" x="105.442461" xlink:href="#m79ea3838b8" y="182.972904"/>
     <use style="fill:#6e3b87;fill-opacity:0.5;" x="138.89689" xlink:href="#m79ea3838b8" y="157.517196"/>
     <use style="fill:#6e3b87;fill-opacity:0.5;" x="172.35132" xlink:href="#m79ea3838b8" y="113.426616"/>
     <use style="fill:#6e3b87;fill-opacity:0.5;" x="205.805749" xlink:href="#m79ea3838b8" y="138.882324"/>
     <use style="fill:#6e3b87;fill-opacity:0.5;" x="239.260178" xlink:href="#m79ea3838b8" y="182.972904"/>
     <use style="fill:#6e3b87;fill-opacity:0.5;" x="272.714607" xlink:href="#m79ea3838b8" y="157.517196"/>
    </g>
   </g>
   <g id="matplotlib.axis_3"/>
   <g id="matplotlib.axis_4">
    <g id="ytick_2">
     <g id="line2d_8">
      <path clip-path="url(#p538b4f8f12)" d="M 13.442781 148.19976 
L 289.441821 148.19976 
" style="fill:none;stroke:#000000;stroke-linejoin:miter;stroke-opacity:0.2;stroke-width:0.5;"/>
     </g>
     <g id="line2d_9">
      <g>
       <use style="fill-opacity:0.2;stroke:#000000;stroke-opacity:0.2;stroke-width:0.8;" x="13.442781" xlink:href="#m295c427e13" y="148.19976"/>
      </g>
     </g>
    </g>
   </g>
   <g id="line2d_10">
    <path clip-path="url(#p538b4f8f12)" d="M 21.806389 130.199856 
L 38.533603 130.199856 
L 38.533603 113.426616 
L 55.260818 113.426616 
L 55.260818 117.023012 
L 71.988032 117.023012 
L 71.988032 138.882324 
L 88.715247 138.882324 
L 88.715247 166.199664 
L 105.442461 166.199664 
L 105.442461 182.972904 
L 122.169676 182.972904 
L 122.169676 179.376508 
L 138.89689 179.376508 
L 138.89689 157.517196 
L 155.624105 157.517196 
L 155.624105 130.199856 
L 172.35132 130.199856 
L 172.35132 113.426616 
L 189.078534 113.426616 
L 189.078534 117.023012 
L 205.805749 117.023012 
L 205.805749 138.882324 
L 222.532963 138.882324 
L 222.532963 166.199664 
L 239.260178 166.199664 
L 239.260178 182.972904 
L 255.987392 182.972904 
L 255.987392 179.376508 
L 272.714607 179.376508 
L 272.714607 157.517196 
" style="fill:none;stroke:#0271ae;stroke-linejoin:miter;stroke-width:3;"/>
    <defs>
     <path d="M -2.5 2.5 
L 2.5 2.5 
L 2.5 -2.5 
L -2.5 -2.5 
z
" id="me4c4574a9f"/>
    </defs>
    <g clip-path="url(#p538b4f8f12)">
     <use style="fill:#0271ae;" x="21.806389" xlink:href="#me4c4574a9f" y="130.199856"/>
     <use style="fill:#0271ae;" x="38.533603" xlink:href="#me4c4574a9f" y="113.426616"/>
     <use style="fill:#0271ae;" x="55.260818" xlink:href="#me4c4574a9f" y="117.023012"/>
     <use style="fill:#0271ae;" x="71.988032" xlink:href="#me4c4574a9f" y="138.882324"/>
     <use style="fill:#0271ae;" x="88.715247" xlink:href="#me4c4574a9f" y="166.199664"/>
     <use style="fill:#0271ae;" x="105.442461" xlink:href="#me4c4574a9f" y="182.972904"/>
     <use style="fill:#0271ae;" x="122.169676" xlink:href="#me4c4574a9f" y="179.376508"/>
     <use style="fill:#0271ae;" x="138.89689" xlink:href="#me4c4574a9f" y="157.517196"/>
     <use style="fill:#0271ae;" x="155.624105" xlink:href="#me4c4574a9f" y="130.199856"/>
     <use style="fill:#0271ae;" x="172.35132" xlink:href="#me4c4574a9f" y="113.426616"/>
     <use style="fill:#0271ae;" x="189.078534" xlink:href="#me4c4574a9f" y="117.023012"/>
     <use style="fill:#0271ae;" x="205.805749" xlink:href="#me4c4574a9f" y="138.882324"/>
     <use style="fill:#0271ae;" x="222.532963" xlink:href="#me4c4574a9f" y="166.199664"/>
     <use style="fill:#0271ae;" x="239.260178" xlink:href="#me4c4574a9f" y="182.972904"/>
     <use style="fill:#0271ae;" x="255.987392" xlink:href="#me4c4574a9f" y="179.376508"/>
     <use style="fill:#0271ae;" x="272.714607" xlink:href="#me4c4574a9f" y="157.517196"/>
    </g>
   </g>
  </g>
  <g id="axes_3">
   <g id="patch_22">
    <path d="M 301.442781 193.19952 
L 583.442301 193.19952 
L 583.442301 103.2 
L 301.442781 103.2 
z
" style="fill:none;"/>
   </g>
   <g id="line2d_11">
    <defs>
     <path d="M -6 6 
L 6 6 
L 6 -6 
L -6 -6 
z
" id="ma68e7eb821"/>
    </defs>
    <g clip-path="url(#pce442ca2c5)">
     <use style="fill:#007d80;fill-opacity:0.5;" x="318.533661" xlink:href="#ma68e7eb821" y="119.639192"/>
     <use style="fill:#007d80;fill-opacity:0.5;" x="352.715421" xlink:href="#ma68e7eb821" y="126.284465"/>
     <use style="fill:#007d80;fill-opacity:0.5;" x="386.897181" xlink:href="#ma68e7eb821" y="176.760328"/>
     <use style="fill:#007d80;fill-opacity:0.5;" x="421.078941" xlink:href="#ma68e7eb821" y="170.115055"/>
     <use style="fill:#007d80;fill-opacity:0.5;" x="455.260701" xlink:href="#ma68e7eb821" y="119.639192"/>
     <use style="fill:#007d80;fill-opacity:0.5;" x="489.442461" xlink:href="#ma68e7eb821" y="126.284465"/>
     <use style="fill:#007d80;fill-opacity:0.5;" x="523.624221" xlink:href="#ma68e7eb821" y="176.760328"/>
     <use style="fill:#007d80;fill-opacity:0.5;" x="557.805981" xlink:href="#ma68e7eb821" y="170.115055"/>
    </g>
   </g>
   <g id="line2d_12">
    <defs>
     <path d="M -6 6 
L 6 6 
L 6 -6 
L -6 -6 
z
" id="m200d9b63a8"/>
    </defs>
    <g clip-path="url(#pce442ca2c5)">
     <use style="fill:#00631e;fill-opacity:0.5;" x="335.624541" xlink:href="#m200d9b63a8" y="112.507935"/>
     <use style="fill:#00631e;fill-opacity:0.5;" x="369.806301" xlink:href="#m200d9b63a8" y="152.898678"/>
     <use style="fill:#00631e;fill-opacity:0.5;" x="403.988061" xlink:href="#m200d9b63a8" y="183.891585"/>
     <use style="fill:#00631e;fill-opacity:0.5;" x="438.169821" xlink:href="#m200d9b63a8" y="143.500842"/>
     <use style="fill:#00631e;fill-opacity:0.5;" x="472.351581" xlink:href="#m200d9b63a8" y="112.507935"/>
     <use style="fill:#00631e;fill-opacity:0.5;" x="506.533341" xlink:href="#m200d9b63a8" y="152.898678"/>
     <use style="fill:#00631e;fill-opacity:0.5;" x="540.715101" xlink:href="#m200d9b63a8" y="183.891585"/>
     <use style="fill:#00631e;fill-opacity:0.5;" x="574.896861" xlink:href="#m200d9b63a8" y="143.500842"/>
    </g>
   </g>
   <g id="matplotlib.axis_5"/>
   <g id="matplotlib.axis_6">
    <g id="ytick_3">
     <g id="line2d_13">
      <path clip-path="url(#pce442ca2c5)" d="M 301.442781 148.19976 
L 583.442301 148.19976 
" style="fill:none;stroke:#000000;stroke-linejoin:miter;stroke-opacity:0.2;stroke-width:0.5;"/>
     </g>
     <g id="line2d_14">
      <g>
       <use style="fill-opacity:0.2;stroke:#000000;stroke-opacity:0.2;stroke-width:0.8;" x="301.442781" xlink:href="#m295c427e13" y="148.19976"/>
      </g>
     </g>
    </g>
   </g>
   <g id="line2d_15">
    <path clip-path="url(#pce442ca2c5)" d="M 318.533661 119.639192 
L 335.624541 119.639192 
L 335.624541 112.507935 
L 352.715421 112.507935 
L 352.715421 126.284465 
L 369.806301 126.284465 
L 369.806301 152.898678 
L 386.897181 152.898678 
L 386.897181 176.760328 
L 403.988061 176.760328 
L 403.988061 183.891585 
L 421.078941 183.891585 
L 421.078941 170.115055 
L 438.169821 170.115055 
L 438.169821 143.500842 
L 455.260701 143.500842 
L 455.260701 119.639192 
L 472.351581 119.639192 
L 472.351581 112.507935 
L 489.442461 112.507935 
L 489.442461 126.284465 
L 506.533341 126.284465 
L 506.533341 152.898678 
L 523.624221 152.898678 
L 523.624221 176.760328 
L 540.715101 176.760328 
L 540.715101 183.891585 
L 557.805981 183.891585 
L 557.805981 170.115055 
L 574.896861 170.115055 
L 574.896861 143.500842 
" style="fill:none;stroke:#dc2830;stroke-linejoin:miter;stroke-width:3;"/>
    <defs>
     <path d="M -2.5 2.5 
L 2.5 2.5 
L 2.5 -2.5 
L -2.5 -2.5 
z
" id="mdd2b5f94df"/>
    </defs>
    <g clip-path="url(#pce442ca2c5)">
     <use style="fill:#dc2830;" x="318.533661" xlink:href="#mdd2b5f94df" y="119.639192"/>
     <use style="fill:#dc2830;" x="335.624541" xlink:href="#mdd2b5f94df" y="112.507935"/>
     <use style="fill:#dc2830;" x="352.715421" xlink:href="#mdd2b5f94df" y="126.284465"/>
     <use style="fill:#dc2830;" x="369.806301" xlink:href="#mdd2b5f94df" y="152.898678"/>
     <use style="fill:#dc2830;" x="386.897181" xlink:href="#mdd2b5f94df" y="176.760328"/>
     <use style="fill:#dc2830;" x="403.988061" xlink:href="#mdd2b5f94df" y="183.891585"/>
     <use style="fill:#dc2830;" x="421.078941" xlink:href="#mdd2b5f94df" y="170.115055"/>
     <use style="fill:#dc2830;" x="438.169821" xlink:href="#mdd2b5f94df" y="143.500842"/>
     <use style="fill:#dc2830;" x="455.260701" xlink:href="#mdd2b5f94df" y="119.639192"/>
     <use style="fill:#dc2830;" x="472.351581" xlink:href="#mdd2b5f94df" y="112.507935"/>
     <use style="fill:#dc2830;" x="489.442461" xlink:href="#mdd2b5f94df" y="126.284465"/>
     <use style="fill:#dc2830;" x="506.533341" xlink:href="#mdd2b5f94df" y="152.898678"/>
     <use style="fill:#dc2830;" x="523.624221" xlink:href="#mdd2b5f94df" y="176.760328"/>
     <use style="fill:#dc2830;" x="540.715101" xlink:href="#mdd2b5f94df" y="183.891585"/>
     <use style="fill:#dc2830;" x="557.805981" xlink:href="#mdd2b5f94df" y="170.115055"/>
     <use style="fill:#dc2830;" x="574.896861" xlink:href="#mdd2b5f94df" y="143.500842"/>
    </g>
   </g>
  </g>
  <g id="axes_4">
   <g id="patch_23">
    <path d="M 13.442781 289.19952 
L 142.441581 289.19952 
L 142.441581 199.2 
L 13.442781 199.2 
z
" style="fill:none;"/>
   </g>
   <g id="matplotlib.axis_7"/>
   <g id="matplotlib.axis_8">
    <g id="ytick_4">
     <g id="line2d_16">
      <path clip-path="url(#p32a7954c7f)" d="M 13.442781 244.19976 
L 142.441581 244.19976 
" style="fill:none;stroke:#000000;stroke-linejoin:miter;stroke-opacity:0.2;stroke-width:0.5;"/>
     </g>
     <g id="line2d_17">
      <g>
       <use style="fill-opacity:0.2;stroke:#000000;stroke-opacity:0.2;stroke-width:0.8;" x="13.442781" xlink:href="#m295c427e13" y="244.19976"/>
      </g>
     </g>
    </g>
   </g>
   <g id="line2d_18">
    <path clip-path="url(#p32a7954c7f)" d="M 17.351836 226.199856 
L 32.988054 226.199856 
L 32.988054 213.023012 
L 48.624272 213.023012 
L 48.624272 262.199664 
L 64.26049 262.199664 
L 64.26049 275.376508 
L 79.896709 275.376508 
L 79.896709 226.199856 
L 95.532927 226.199856 
L 95.532927 213.023012 
L 111.169145 213.023012 
L 111.169145 262.199664 
L 126.805363 262.199664 
L 126.805363 275.376508 
" style="fill:none;stroke:#f2aa00;stroke-linejoin:miter;stroke-width:3;"/>
    <defs>
     <path d="M -2.5 2.5 
L 2.5 2.5 
L 2.5 -2.5 
L -2.5 -2.5 
z
" id="m66a4a1483e"/>
    </defs>
    <g clip-path="url(#p32a7954c7f)">
     <use style="fill:#f2aa00;" x="17.351836" xlink:href="#m66a4a1483e" y="226.199856"/>
     <use style="fill:#f2aa00;" x="32.988054" xlink:href="#m66a4a1483e" y="213.023012"/>
     <use style="fill:#f2aa00;" x="48.624272" xlink:href="#m66a4a1483e" y="262.199664"/>
     <use style="fill:#f2aa00;" x="64.26049" xlink:href="#m66a4a1483e" y="275.376508"/>
     <use style="fill:#f2aa00;" x="79.896709" xlink:href="#m66a4a1483e" y="226.199856"/>
     <use style="fill:#f2aa00;" x="95.532927" xlink:href="#m66a4a1483e" y="213.023012"/>
     <use style="fill:#f2aa00;" x="111.169145" xlink:href="#m66a4a1483e" y="262.199664"/>
     <use style="fill:#f2aa00;" x="126.805363" xlink:href="#m66a4a1483e" y="275.376508"/>
    </g>
   </g>
  </g>
  <g id="axes_5">
   <g id="patch_24">
    <path d="M 160.443021 289.19952 
L 289.441821 289.19952 
L 289.441821 199.2 
L 160.443021 199.2 
z
" style="fill:none;"/>
   </g>
   <g id="matplotlib.axis_9"/>
   <g id="matplotlib.axis_10">
    <g id="ytick_5">
     <g id="line2d_19">
      <path clip-path="url(#p428889b49e)" d="M 160.443021 244.19976 
L 289.441821 244.19976 
" style="fill:none;stroke:#000000;stroke-linejoin:miter;stroke-opacity:0.2;stroke-width:0.5;"/>
     </g>
     <g id="line2d_20">
      <g>
       <use style="fill-opacity:0.2;stroke:#000000;stroke-opacity:0.2;stroke-width:0.8;" x="160.443021" xlink:href="#m295c427e13" y="244.19976"/>
      </g>
     </g>
    </g>
   </g>
   <g id="line2d_21">
    <path clip-path="url(#p428889b49e)" d="M 172.170185 209.426616 
L 187.806403 209.426616 
L 187.806403 234.882324 
L 203.442621 234.882324 
L 203.442621 278.972904 
L 219.07884 278.972904 
L 219.07884 253.517196 
L 234.715058 253.517196 
L 234.715058 209.426616 
L 250.351276 209.426616 
L 250.351276 234.882324 
L 265.987494 234.882324 
L 265.987494 278.972904 
L 281.623712 278.972904 
L 281.623712 253.517196 
" style="fill:none;stroke:#6e3b87;stroke-linejoin:miter;stroke-width:3;"/>
    <defs>
     <path d="M -2.5 2.5 
L 2.5 2.5 
L 2.5 -2.5 
L -2.5 -2.5 
z
" id="mab903dbd3c"/>
    </defs>
    <g clip-path="url(#p428889b49e)">
     <use style="fill:#6e3b87;" x="172.170185" xlink:href="#mab903dbd3c" y="209.426616"/>
     <use style="fill:#6e3b87;" x="187.806403" xlink:href="#mab903dbd3c" y="234.882324"/>
     <use style="fill:#6e3b87;" x="203.442621" xlink:href="#mab903dbd3c" y="278.972904"/>
     <use style="fill:#6e3b87;" x="219.07884" xlink:href="#mab903dbd3c" y="253.517196"/>
     <use style="fill:#6e3b87;" x="234.715058" xlink:href="#mab903dbd3c" y="209.426616"/>
     <use style="fill:#6e3b87;" x="250.351276" xlink:href="#mab903dbd3c" y="234.882324"/>
     <use style="fill:#6e3b87;" x="265.987494" xlink:href="#mab903dbd3c" y="278.972904"/>
     <use style="fill:#6e3b87;" x="281.623712" xlink:href="#mab903dbd3c" y="253.517196"/>
    </g>
   </g>
  </g>
  <g id="axes_6">
   <g id="patch_25">
    <path d="M 301.442781 289.19952 
L 430.441581 289.19952 
L 430.441581 199.2 
L 301.442781 199.2 
z
" style="fill:none;"/>
   </g>
   <g id="matplotlib.axis_11"/>
   <g id="matplotlib.axis_12">
    <g id="ytick_6">
     <g id="line2d_22">
      <path clip-path="url(#p6ee1209e81)" d="M 301.442781 244.19976 
L 430.441581 244.19976 
" style="fill:none;stroke:#000000;stroke-linejoin:miter;stroke-opacity:0.2;stroke-width:0.5;"/>
     </g>
     <g id="line2d_23">
      <g>
       <use style="fill-opacity:0.2;stroke:#000000;stroke-opacity:0.2;stroke-width:0.8;" x="301.442781" xlink:href="#m295c427e13" y="244.19976"/>
      </g>
     </g>
    </g>
   </g>
   <g id="line2d_24">
    <path clip-path="url(#p6ee1209e81)" d="M 309.26089 215.639192 
L 324.897109 215.639192 
L 324.897109 222.284465 
L 340.533327 222.284465 
L 340.533327 272.760328 
L 356.169545 272.760328 
L 356.169545 266.115055 
L 371.805763 266.115055 
L 371.805763 215.639192 
L 387.441981 215.639192 
L 387.441981 222.284465 
L 403.0782 222.284465 
L 403.0782 272.760328 
L 418.714418 272.760328 
L 418.714418 266.115055 
" style="fill:none;stroke:#007d80;stroke-linejoin:miter;stroke-width:3;"/>
    <defs>
     <path d="M -2.5 2.5 
L 2.5 2.5 
L 2.5 -2.5 
L -2.5 -2.5 
z
" id="m99409852ac"/>
    </defs>
    <g clip-path="url(#p6ee1209e81)">
     <use style="fill:#007d80;" x="309.26089" xlink:href="#m99409852ac" y="215.639192"/>
     <use style="fill:#007d80;" x="324.897109" xlink:href="#m99409852ac" y="222.284465"/>
     <use style="fill:#007d80;" x="340.533327" xlink:href="#m99409852ac" y="272.760328"/>
     <use style="fill:#007d80;" x="356.169545" xlink:href="#m99409852ac" y="266.115055"/>
     <use style="fill:#007d80;" x="371.805763" xlink:href="#m99409852ac" y="215.639192"/>
     <use style="fill:#007d80;" x="387.441981" xlink:href="#m99409852ac" y="222.284465"/>
     <use style="fill:#007d80;" x="403.0782" xlink:href="#m99409852ac" y="272.760328"/>
     <use style="fill:#007d80;" x="418.714418" xlink:href="#m99409852ac" y="266.115055"/>
    </g>
   </g>
  </g>
  <g id="axes_7">
   <g id="patch_26">
    <path d="M 454.443501 289.19952 
L 583.442301 289.19952 
L 583.442301 199.2 
L 454.443501 199.2 
z
" style="fill:none;"/>
   </g>
   <g id="matplotlib.axis_13"/>
   <g id="matplotlib.axis_14">
    <g id="ytick_7">
     <g id="line2d_25">
      <path clip-path="url(#p539efd725c)" d="M 454.443501 244.19976 
L 583.442301 244.19976 
" style="fill:none;stroke:#000000;stroke-linejoin:miter;stroke-opacity:0.2;stroke-width:0.5;"/>
     </g>
     <g id="line2d_26">
      <g>
       <use style="fill-opacity:0.2;stroke:#000000;stroke-opacity:0.2;stroke-width:0.8;" x="454.443501" xlink:href="#m295c427e13" y="244.19976"/>
      </g>
     </g>
    </g>
   </g>
   <g id="line2d_27">
    <path clip-path="url(#p539efd725c)" d="M 470.07972 208.507935 
L 485.715938 208.507935 
L 485.715938 248.898678 
L 501.352156 248.898678 
L 501.352156 279.891585 
L 516.988374 279.891585 
L 516.988374 239.500842 
L 532.624592 239.500842 
L 532.624592 208.507935 
L 548.26081 208.507935 
L 548.26081 248.898678 
L 563.897029 248.898678 
L 563.897029 279.891585 
L 579.533247 279.891585 
L 579.533247 239.500842 
" style="fill:none;stroke:#00631e;stroke-linejoin:miter;stroke-width:3;"/>
    <defs>
     <path d="M -2.5 2.5 
L 2.5 2.5 
L 2.5 -2.5 
L -2.5 -2.5 
z
" id="mb60a563e43"/>
    </defs>
    <g clip-path="url(#p539efd725c)">
     <use style="fill:#00631e;" x="470.07972" xlink:href="#mb60a563e43" y="208.507935"/>
     <use style="fill:#00631e;" x="485.715938" xlink:href="#mb60a563e43" y="248.898678"/>
     <use style="fill:#00631e;" x="501.352156" xlink:href="#mb60a563e43" y="279.891585"/>
     <use style="fill:#00631e;" x="516.988374" xlink:href="#mb60a563e43" y="239.500842"/>
     <use style="fill:#00631e;" x="532.624592" xlink:href="#mb60a563e43" y="208.507935"/>
     <use style="fill:#00631e;" x="548.26081" xlink:href="#mb60a563e43" y="248.898678"/>
     <use style="fill:#00631e;" x="563.897029" xlink:href="#mb60a563e43" y="279.891585"/>
     <use style="fill:#00631e;" x="579.533247" xlink:href="#mb60a563e43" y="239.500842"/>
    </g>
   </g>
  </g>
  <g id="text_1">
   <!-- $\dots$ -->
   <g transform="translate(298.442541 313.584472)scale(0.3 -0.3)">
    <defs>
     <path d="M 794 678 
C 602 678 429 499 429 307 
C 429 115 602 -64 787 -64 
C 992 -64 1171 108 1171 307 
C 1171 499 992 678 794 678 
z
" id="URWPalladioL-Roma-2e" transform="scale(0.015625)"/>
    </defs>
    <use transform="scale(0.996264)" xlink:href="#URWPalladioL-Roma-2e"/>
    <use transform="translate(44.001574 0)scale(0.996264)" xlink:href="#URWPalladioL-Roma-2e"/>
    <use transform="translate(88.003149 0)scale(0.996264)" xlink:href="#URWPalladioL-Roma-2e"/>
   </g>
  </g>
 </g>
 <defs>
  <clipPath id="p3082a44da3">
   <rect height="89.99952" width="569.99952" x="13.442781" y="7.2"/>
  </clipPath>
  <clipPath id="p538b4f8f12">
   <rect height="89.99952" width="275.99904" x="13.442781" y="103.2"/>
  </clipPath>
  <clipPath id="pce442ca2c5">
   <rect height="89.99952" width="281.99952" x="301.442781" y="103.2"/>
  </clipPath>
  <clipPath id="p32a7954c7f">
   <rect height="89.99952" width="128.9988" x="13.442781" y="199.2"/>
  </clipPath>
  <clipPath id="p428889b49e">
   <rect height="89.99952" width="128.9988" x="160.443021" y="199.2"/>
  </clipPath>
  <clipPath id="p6ee1209e81">
   <rect height="89.99952" width="128.9988" x="301.442781" y="199.2"/>
  </clipPath>
  <clipPath id="p539efd725c">
   <rect height="89.99952" width="128.9988" x="454.443501" y="199.2"/>
  </clipPath>
 </defs>
</svg>
