<?xml version="1.0" encoding="utf-8" standalone="no"?>
<!DOCTYPE svg PUBLIC "-//W3C//DTD SVG 1.1//EN"
  "http://www.w3.org/Graphics/SVG/1.1/DTD/svg11.dtd">
<svg height="152.39952pt" version="1.1" viewBox="0 0 584.39952 152.39952" width="584.39952pt" xmlns="http://www.w3.org/2000/svg" xmlns:xlink="http://www.w3.org/1999/xlink">
 <metadata>
  <rdf:RDF xmlns:cc="http://creativecommons.org/ns#" xmlns:dc="http://purl.org/dc/elements/1.1/" xmlns:rdf="http://www.w3.org/1999/02/22-rdf-syntax-ns#">
   <cc:Work>
    <dc:type rdf:resource="http://purl.org/dc/dcmitype/StillImage"/>
    <dc:date>2020-08-14T07:04:34.921811</dc:date>
    <dc:format>image/svg+xml</dc:format>
    <dc:creator>
     <cc:Agent>
      <dc:title>Matplotlib v3.3.0rc1.post382+g019a75231, https://matplotlib.org/</dc:title>
     </cc:Agent>
    </dc:creator>
   </cc:Work>
  </rdf:RDF>
 </metadata>
 <defs>
  <style type="text/css">*{stroke-linecap:butt;stroke-linejoin:round;}</style>
 </defs>
 <g id="figure_1">
  <g id="patch_1">
   <path d="M 0 152.39952 
L 584.39952 152.39952 
L 584.39952 0 
L 0 0 
z
" style="fill:none;"/>
  </g>
  <g id="axes_1">
   <g id="patch_2">
    <path d="M 41.145691 99.861659 
L 496.405172 99.861659 
L 496.405172 7.2 
L 41.145691 7.2 
z
" style="fill:none;"/>
   </g>
   <g id="PathCollection_1">
    <defs>
     <path d="M -5 5 
L 5 5 
L 5 -5 
L -5 -5 
z
" id="me620ab1934" style="stroke:#dc2830;stroke-width:0.5;"/>
    </defs>
    <g clip-path="url(#p065a7828a2)">
     <use style="fill:#dc2830;stroke:#dc2830;stroke-width:0.5;" x="47.468739" xlink:href="#me620ab1934" y="16.466166"/>
     <use style="fill:#dc2830;stroke:#dc2830;stroke-width:0.5;" x="173.929706" xlink:href="#me620ab1934" y="53.530829"/>
     <use style="fill:#dc2830;stroke:#dc2830;stroke-width:0.5;" x="300.390673" xlink:href="#me620ab1934" y="90.595493"/>
     <use style="fill:#dc2830;stroke:#dc2830;stroke-width:0.5;" x="426.85164" xlink:href="#me620ab1934" y="53.530829"/>
    </g>
   </g>
   <g id="line2d_1">
    <path clip-path="url(#p065a7828a2)" d="M 47.468739 16.466166 
L 48.35574 16.522392 
L 50.129741 16.971174 
L 51.903743 17.863298 
L 53.677744 19.187943 
L 55.451746 20.929048 
L 57.225748 23.065498 
L 58.999749 25.571385 
L 60.773751 28.416323 
L 63.434753 33.24296 
L 66.095755 38.622444 
L 69.643758 46.400029 
L 79.400767 68.385786 
L 82.061769 73.769851 
L 84.722771 78.6024 
L 86.496773 81.451941 
L 88.270775 83.962897 
L 90.044776 86.104818 
L 91.818778 87.85173 
L 93.592779 89.182451 
L 95.366781 90.080842 
L 97.140782 90.536009 
L 98.027783 90.595447 
L 98.914784 90.542433 
L 100.688785 90.100036 
L 102.462787 89.214183 
L 104.236788 87.895615 
L 106.01079 86.160323 
L 107.784792 84.02935 
L 109.558793 81.528536 
L 111.332795 78.688208 
L 113.993797 73.867496 
L 116.654799 68.492607 
L 120.202802 60.718869 
L 129.959811 38.729338 
L 132.620813 33.340705 
L 135.281815 28.502256 
L 137.055817 25.648119 
L 138.829819 23.132102 
L 140.60382 20.984715 
L 142.377822 19.231998 
L 144.151823 17.895207 
L 145.925825 16.99055 
L 147.699826 16.528999 
L 148.586827 16.466349 
L 149.473828 16.516151 
L 151.247829 16.952161 
L 153.021831 17.831742 
L 154.795832 19.144228 
L 156.569834 20.873703 
L 158.343836 22.999195 
L 160.117837 25.494929 
L 161.891839 28.330639 
L 164.552841 33.145415 
L 167.213843 38.515696 
L 170.761846 46.285569 
L 180.518855 68.278818 
L 183.179857 73.672006 
L 185.840859 78.516344 
L 187.614861 81.375069 
L 189.388863 83.896142 
L 191.162864 86.048989 
L 192.936866 87.807505 
L 194.710867 89.150365 
L 196.484869 90.061285 
L 198.25887 90.529218 
L 199.145871 90.59508 
L 200.032872 90.548491 
L 201.806873 90.118869 
L 203.580875 89.245562 
L 205.354876 87.93916 
L 207.128878 86.215506 
L 208.902879 84.095501 
L 210.676881 81.604854 
L 212.450883 78.773767 
L 215.111885 73.96494 
L 217.772887 68.59928 
L 221.32089 60.833293 
L 231.077899 38.83638 
L 233.738901 33.438651 
L 236.399903 28.588436 
L 238.173905 25.725129 
L 239.947906 23.199007 
L 241.721908 21.040705 
L 243.49591 19.276394 
L 245.269911 17.927469 
L 247.043913 17.010288 
L 248.817914 16.535973 
L 249.704915 16.4669 
L 250.591916 16.510277 
L 252.365917 16.93351 
L 254.139919 17.80054 
L 255.91392 19.100854 
L 257.687922 20.818683 
L 259.461923 22.933195 
L 261.235925 25.41875 
L 263.009927 28.245206 
L 265.670929 33.048073 
L 268.331931 38.409098 
L 271.879934 46.17118 
L 281.636943 68.171704 
L 284.297945 73.573961 
L 286.958947 78.43004 
L 288.732949 81.297921 
L 290.50695 83.829086 
L 292.280952 85.992838 
L 294.054954 87.76294 
L 295.828955 89.117927 
L 297.602957 90.041366 
L 299.376958 90.522061 
L 300.263959 90.594345 
L 301.15096 90.554181 
L 302.924961 90.137338 
L 304.698963 89.276586 
L 306.472964 87.982364 
L 308.246966 86.270365 
L 310.020967 84.16135 
L 311.794969 81.680894 
L 313.568971 78.859076 
L 316.229973 74.062181 
L 318.890975 68.705803 
L 322.438978 60.947645 
L 333.082987 37.089604 
L 335.74399 31.848729 
L 338.404992 27.198694 
L 340.178994 24.49026 
L 341.952995 22.133987 
L 343.726997 20.158448 
L 345.500998 18.587598 
L 347.275 17.440488 
L 349.049001 16.731027 
L 350.823003 16.467819 
L 351.710004 16.50477 
L 353.484005 16.915222 
L 355.258007 17.769693 
L 357.032008 19.057821 
L 358.80601 20.763986 
L 360.580011 22.867499 
L 362.354013 25.34285 
L 364.128014 28.160022 
L 366.789017 32.950934 
L 369.450019 38.30265 
L 372.998022 46.056864 
L 383.642031 69.91975 
L 386.303034 75.165588 
L 388.964036 79.821876 
L 390.738038 82.535112 
L 392.512039 84.896628 
L 394.286041 86.877787 
L 396.060042 88.454564 
L 397.834044 89.607838 
L 399.608045 90.323624 
L 401.382047 90.593243 
L 402.269048 90.559505 
L 404.043049 90.155445 
L 405.817051 89.307257 
L 407.591052 88.025226 
L 409.365054 86.324899 
L 411.139055 84.226894 
L 412.913057 81.756654 
L 414.687058 78.944134 
L 417.348061 74.159218 
L 420.009063 68.812176 
L 423.557066 61.061924 
L 434.201075 37.194253 
L 436.862078 31.943465 
L 439.52308 27.280936 
L 441.297082 24.562904 
L 443.071083 22.196151 
L 444.845085 20.209378 
L 446.619086 18.626678 
L 448.393088 17.467243 
L 450.167089 16.745133 
L 451.941091 16.469104 
L 452.828092 16.499629 
L 454.602093 16.897296 
L 456.376095 17.739199 
L 458.150096 19.01513 
L 459.924098 20.709615 
L 461.698099 22.802106 
L 463.472101 25.267229 
L 465.246102 28.07509 
L 467.907105 32.853998 
L 470.568107 38.196352 
L 474.11611 45.942623 
L 484.760119 69.81502 
L 487.421122 75.070745 
L 490.082124 79.739504 
L 490.082124 79.739504 
" style="fill:none;stroke:#0271ae;stroke-linecap:square;stroke-opacity:0.5;stroke-width:3;"/>
   </g>
   <g id="line2d_2">
    <path clip-path="url(#p065a7828a2)" d="M 47.468739 16.466166 
L 53.677744 16.576342 
L 59.88675 16.906213 
L 66.095755 17.453821 
L 72.304761 18.215907 
L 78.513766 19.187943 
L 84.722771 20.364149 
L 91.818778 21.949365 
L 98.914784 23.779772 
L 106.01079 25.84116 
L 113.106796 28.117525 
L 121.089803 30.913334 
L 129.959811 34.279127 
L 139.716819 38.249482 
L 150.360829 42.834346 
L 163.66584 48.818265 
L 200.919873 65.725303 
L 211.563882 70.232964 
L 220.43389 73.769851 
L 229.303897 77.06131 
L 237.286904 79.780723 
L 244.38291 81.982255 
L 251.478917 83.962897 
L 258.574923 85.70727 
L 265.670929 87.201833 
L 271.879934 88.29548 
L 278.08894 89.182451 
L 284.297945 89.85747 
L 290.50695 90.316526 
L 296.715956 90.556889 
L 302.924961 90.57713 
L 309.133967 90.377129 
L 315.342972 89.958075 
L 321.551977 89.322459 
L 327.760983 88.47406 
L 333.969988 87.417922 
L 340.178994 86.160323 
L 347.275 84.486026 
L 354.371006 82.571398 
L 361.467012 80.431306 
L 369.450019 77.774953 
L 377.433026 74.880418 
L 386.303034 71.419576 
L 396.060042 67.363795 
L 407.591052 62.313816 
L 423.557066 55.047186 
L 448.393088 43.731333 
L 459.924098 38.729338 
L 469.681106 34.729703 
L 478.551114 31.331543 
L 486.534121 28.502256 
L 490.082124 27.322154 
L 490.082124 27.322154 
" style="fill:none;stroke:#dc2830;stroke-linecap:square;stroke-opacity:0.5;stroke-width:3;"/>
   </g>
   <g id="matplotlib.axis_1">
    <g id="xtick_1">
     <g id="line2d_3">
      <path clip-path="url(#p065a7828a2)" d="M 47.468739 99.861659 
L 47.468739 7.2 
" style="fill:none;stroke:#000000;stroke-linecap:square;stroke-opacity:0.2;stroke-width:0.5;"/>
     </g>
     <g id="line2d_4">
      <defs>
       <path d="M 0 0 
L 0 3.5 
" id="m1cb955e907" style="stroke:#000000;stroke-opacity:0.2;stroke-width:0.8;"/>
      </defs>
      <g>
       <use style="fill-opacity:0.2;stroke:#000000;stroke-opacity:0.2;stroke-width:0.8;" x="47.468739" xlink:href="#m1cb955e907" y="99.861659"/>
      </g>
     </g>
     <g id="text_1">
      <!-- $\mathdefault{0}$ -->
      <g transform="translate(43.981815 125.341188)scale(0.14 -0.14)">
       <defs>
        <path d="M 26.296875 69 
C 10.796875 69 2.90625 56.6875 2.90625 32.453125 
C 2.90625 20.71875 5 10.625 8.5 5.71875 
C 12 0.796875 17.59375 -2 23.796875 -2 
C 38.90625 -2 46.5 11.015625 46.5 36.65625 
C 46.5 58.578125 40 69 26.296875 69 
z
M 24.5 65.5 
C 34.203125 65.5 38.09375 55.6875 38.09375 31.640625 
C 38.09375 10.328125 34.296875 1.5 25.09375 1.5 
C 15.40625 1.5 11.296875 11.625 11.296875 36.0625 
C 11.296875 57.1875 15 65.5 24.5 65.5 
z
" id="URW_Palladio_L_Roman-48"/>
       </defs>
       <use transform="scale(0.996264)" xlink:href="#URW_Palladio_L_Roman-48"/>
      </g>
     </g>
    </g>
    <g id="xtick_2">
     <g id="line2d_5">
      <path clip-path="url(#p065a7828a2)" d="M 110.699223 99.861659 
L 110.699223 7.2 
" style="fill:none;stroke:#000000;stroke-linecap:square;stroke-opacity:0.2;stroke-width:0.5;"/>
     </g>
     <g id="line2d_6">
      <g>
       <use style="fill-opacity:0.2;stroke:#000000;stroke-opacity:0.2;stroke-width:0.8;" x="110.699223" xlink:href="#m1cb955e907" y="99.861659"/>
      </g>
     </g>
     <g id="text_2">
      <!-- $\mathdefault{1}$ -->
      <g transform="translate(107.212299 125.341188)scale(0.14 -0.14)">
       <defs>
        <path d="M 6.703125 56 
L 7.703125 56 
L 20.59375 61.8125 
C 20.703125 61.90625 20.796875 61.90625 20.90625 61.90625 
C 21.5 61.90625 21.703125 61.015625 21.703125 58.609375 
L 21.703125 9.578125 
C 21.703125 4.3125 20.59375 3.203125 15.203125 3.203125 
L 9.59375 3.203125 
L 9.59375 0 
C 25 0 25 0 26.09375 0 
C 27.40625 0 29.59375 0 33 0 
C 34.203125 0 37.703125 0 41.796875 0 
L 41.796875 3.203125 
L 36.59375 3.203125 
C 31.09375 3.203125 30.09375 4.3125 30.09375 9.5625 
L 30.09375 69.421875 
L 28.703125 69.921875 
C 22.203125 66.515625 15.09375 63.515625 6 60.3125 
z
" id="URW_Palladio_L_Roman-49"/>
       </defs>
       <use transform="scale(0.996264)" xlink:href="#URW_Palladio_L_Roman-49"/>
      </g>
     </g>
    </g>
    <g id="xtick_3">
     <g id="line2d_7">
      <path clip-path="url(#p065a7828a2)" d="M 173.929706 99.861659 
L 173.929706 7.2 
" style="fill:none;stroke:#000000;stroke-linecap:square;stroke-opacity:0.2;stroke-width:0.5;"/>
     </g>
     <g id="line2d_8">
      <g>
       <use style="fill-opacity:0.2;stroke:#000000;stroke-opacity:0.2;stroke-width:0.8;" x="173.929706" xlink:href="#m1cb955e907" y="99.861659"/>
      </g>
     </g>
     <g id="text_3">
      <!-- $\mathdefault{2}$ -->
      <g transform="translate(170.442782 125.341188)scale(0.14 -0.14)">
       <defs>
        <path d="M 1.59375 2.5 
L 1.59375 0 
C 20.296875 0 20.296875 0 23.90625 0 
C 27.5 0 27.5 0 46.796875 0 
C 46.59375 1.953125 46.59375 2.90625 46.59375 4.203125 
C 46.59375 5.4375 46.59375 6.359375 46.796875 8.421875 
C 35.296875 8.421875 30.703125 8.421875 12.203125 8.421875 
L 30.40625 27.515625 
C 40.09375 37.71875 43.09375 43.171875 43.09375 50.59375 
C 43.09375 61.96875 35.296875 69 22.59375 69 
C 15.40625 69 10.5 67 5.59375 62.015625 
L 3.90625 48.421875 
L 6.796875 48.421875 
L 8.09375 53.015625 
C 9.703125 58.796875 13.296875 61.296875 20 61.296875 
C 28.59375 61.296875 34.09375 55.890625 34.09375 47.421875 
C 34.09375 39.921875 29.90625 32.546875 18.59375 20.5625 
z
" id="URW_Palladio_L_Roman-50"/>
       </defs>
       <use transform="scale(0.996264)" xlink:href="#URW_Palladio_L_Roman-50"/>
      </g>
     </g>
    </g>
    <g id="xtick_4">
     <g id="line2d_9">
      <path clip-path="url(#p065a7828a2)" d="M 237.16019 99.861659 
L 237.16019 7.2 
" style="fill:none;stroke:#000000;stroke-linecap:square;stroke-opacity:0.2;stroke-width:0.5;"/>
     </g>
     <g id="line2d_10">
      <g>
       <use style="fill-opacity:0.2;stroke:#000000;stroke-opacity:0.2;stroke-width:0.8;" x="237.16019" xlink:href="#m1cb955e907" y="99.861659"/>
      </g>
     </g>
     <g id="text_4">
      <!-- $\mathdefault{3}$ -->
      <g transform="translate(233.673266 125.341188)scale(0.14 -0.14)">
       <defs>
        <path d="M 4.296875 49.953125 
L 7.40625 49.953125 
L 9.203125 55.53125 
C 10.296875 58.90625 16.59375 62.296875 21.796875 62.296875 
C 28.296875 62.296875 33.59375 57.015625 33.59375 50.75 
C 33.59375 43.28125 27.703125 37 20.59375 37 
C 19.796875 37 18.703125 37 17.40625 37.203125 
L 15.90625 37.203125 
L 14.703125 31.984375 
L 15.40625 31.375 
C 19.203125 33.09375 21.09375 33.59375 23.796875 33.59375 
C 32.09375 33.59375 36.90625 28.265625 36.90625 19.09375 
C 36.90625 8.84375 30.796875 2.109375 21.5 2.109375 
C 16.90625 2.109375 12.796875 3.609375 9.796875 6.421875 
C 7.40625 8.640625 6.09375 10.953125 4.203125 16.390625 
L 1.5 15.390625 
C 3.59375 9.265625 4.40625 5.640625 5 0.609375 
C 10.296875 -1.203125 14.703125 -2 18.40625 -2 
C 26.40625 -2 35.59375 2.515625 41.09375 9.265625 
C 44.5 13.390625 46.203125 17.8125 46.203125 22.53125 
C 46.203125 27.359375 44.203125 31.59375 40.59375 34.09375 
C 38.09375 35.90625 35.796875 36.71875 30.796875 37.609375 
C 38.796875 43.796875 41.796875 48.375 41.796875 54.25 
C 41.796875 63.125 34.40625 69 23.296875 69 
C 16.5 69 12 67.109375 7.203125 62.328125 
z
" id="URW_Palladio_L_Roman-51"/>
       </defs>
       <use transform="scale(0.996264)" xlink:href="#URW_Palladio_L_Roman-51"/>
      </g>
     </g>
    </g>
    <g id="xtick_5">
     <g id="line2d_11">
      <path clip-path="url(#p065a7828a2)" d="M 300.390673 99.861659 
L 300.390673 7.2 
" style="fill:none;stroke:#000000;stroke-linecap:square;stroke-opacity:0.2;stroke-width:0.5;"/>
     </g>
     <g id="line2d_12">
      <g>
       <use style="fill-opacity:0.2;stroke:#000000;stroke-opacity:0.2;stroke-width:0.8;" x="300.390673" xlink:href="#m1cb955e907" y="99.861659"/>
      </g>
     </g>
     <g id="text_5">
      <!-- $\mathdefault{4}$ -->
      <g transform="translate(296.903749 125.341188)scale(0.14 -0.14)">
       <defs>
        <path d="M 28 18 
L 28 10.515625 
C 28 4.515625 26.90625 3.109375 22 3.109375 
L 15.796875 3.109375 
L 15.796875 0 
C 29.09375 0 29.09375 0 31.5 0 
C 33.90625 0 33.90625 0 47.203125 0 
L 47.203125 3.109375 
L 42.40625 3.109375 
C 37.5 3.109375 36.40625 4.40625 36.40625 10.453125 
L 36.40625 18 
C 42.296875 18 44.40625 18 47.203125 17.703125 
L 47.203125 24.8125 
C 42.5 24.421875 40.59375 24.421875 39.09375 24.421875 
L 38.796875 24.421875 
L 36.40625 24.421875 
L 36.40625 38.390625 
C 36.40625 56.25 36.59375 64.875 37.09375 69 
L 35.90625 69.5 
L 28.5 66.796875 
L 0.203125 20.296875 
L 1.296875 18 
z
M 28 24.421875 
L 6.5 24.421875 
L 28 59.78125 
z
" id="URW_Palladio_L_Roman-52"/>
       </defs>
       <use transform="scale(0.996264)" xlink:href="#URW_Palladio_L_Roman-52"/>
      </g>
     </g>
    </g>
    <g id="xtick_6">
     <g id="line2d_13">
      <path clip-path="url(#p065a7828a2)" d="M 363.621157 99.861659 
L 363.621157 7.2 
" style="fill:none;stroke:#000000;stroke-linecap:square;stroke-opacity:0.2;stroke-width:0.5;"/>
     </g>
     <g id="line2d_14">
      <g>
       <use style="fill-opacity:0.2;stroke:#000000;stroke-opacity:0.2;stroke-width:0.8;" x="363.621157" xlink:href="#m1cb955e907" y="99.861659"/>
      </g>
     </g>
     <g id="text_6">
      <!-- $\mathdefault{5}$ -->
      <g transform="translate(360.134233 125.341188)scale(0.14 -0.14)">
       <defs>
        <path d="M 12.703125 60.578125 
C 25.59375 60.578125 31.203125 60.578125 43.203125 60.578125 
L 43.703125 61.046875 
C 43.5 62.75 43.5 63.5 43.5 64.75 
C 43.5 66.078125 43.5 66.828125 43.703125 68.53125 
L 43.203125 69 
C 35.703125 69 31.203125 69 25.796875 69 
C 20.296875 69 15.90625 69 8.40625 69 
L 7.90625 68.796875 
C 8 62.671875 8.09375 58.265625 8.09375 55.046875 
C 8.09375 46.515625 7.796875 36.875 7.5 32.453125 
L 9.5 31.84375 
C 14.203125 36.578125 16.90625 38 21.796875 38 
C 31.40625 38 37.40625 31.140625 37.40625 20.25 
C 37.40625 9.0625 31 2.5 20.09375 2.5 
C 14.703125 2.5 9.703125 4.328125 8.296875 6.9375 
L 3.703125 15.203125 
L 1.296875 13.796875 
C 3.59375 8.0625 4.796875 4.84375 6.203125 0.421875 
C 9 -1.109375 13 -2 17.296875 -2 
C 24 -2 31.09375 0.921875 36.59375 5.75 
C 42.703125 11.1875 45.90625 18.03125 45.90625 25.46875 
C 45.90625 36.859375 37.796875 44.90625 26.40625 44.90625 
C 21.59375 44.90625 18 43.609375 11.796875 39.90625 
z
" id="URW_Palladio_L_Roman-53"/>
       </defs>
       <use transform="scale(0.996264)" xlink:href="#URW_Palladio_L_Roman-53"/>
      </g>
     </g>
    </g>
    <g id="xtick_7">
     <g id="line2d_15">
      <path clip-path="url(#p065a7828a2)" d="M 426.85164 99.861659 
L 426.85164 7.2 
" style="fill:none;stroke:#000000;stroke-linecap:square;stroke-opacity:0.2;stroke-width:0.5;"/>
     </g>
     <g id="line2d_16">
      <g>
       <use style="fill-opacity:0.2;stroke:#000000;stroke-opacity:0.2;stroke-width:0.8;" x="426.85164" xlink:href="#m1cb955e907" y="99.861659"/>
      </g>
     </g>
     <g id="text_7">
      <!-- $\mathdefault{6}$ -->
      <g transform="translate(423.364716 125.341188)scale(0.14 -0.14)">
       <defs>
        <path d="M 41.59375 67.34375 
L 37.90625 69.046875 
C 28.296875 65.84375 24.203125 63.84375 19.09375 59.4375 
C 8.796875 50.71875 3.203125 38.5 3.203125 24.765625 
C 3.203125 8.21875 11.203125 -2 24.09375 -2 
C 37.09375 -2 46.796875 8.3125 46.796875 21.953125 
C 46.796875 33.484375 39.90625 41 29.296875 41 
C 24.296875 41 21.296875 39.6875 15.40625 34.984375 
C 14.296875 34.078125 14.203125 33.984375 13.09375 33.1875 
C 15.203125 51.3125 23.59375 61.140625 41.59375 66.546875 
z
M 25.5 34.984375 
C 33.09375 34.984375 38.203125 28.375 38.203125 18.453125 
C 38.203125 8.015625 33.09375 1.296875 25.40625 1.296875 
C 16.90625 1.296875 12.296875 8.609375 12.296875 22.0625 
C 12.296875 25.5625 12.703125 27.46875 13.796875 29.171875 
C 16 32.578125 20.703125 34.984375 25.5 34.984375 
z
" id="URW_Palladio_L_Roman-54"/>
       </defs>
       <use transform="scale(0.996264)" xlink:href="#URW_Palladio_L_Roman-54"/>
      </g>
     </g>
    </g>
    <g id="xtick_8">
     <g id="line2d_17">
      <path clip-path="url(#p065a7828a2)" d="M 490.082124 99.861659 
L 490.082124 7.2 
" style="fill:none;stroke:#000000;stroke-linecap:square;stroke-opacity:0.2;stroke-width:0.5;"/>
     </g>
     <g id="line2d_18">
      <g>
       <use style="fill-opacity:0.2;stroke:#000000;stroke-opacity:0.2;stroke-width:0.8;" x="490.082124" xlink:href="#m1cb955e907" y="99.861659"/>
      </g>
     </g>
     <g id="text_8">
      <!-- $\mathdefault{7}$ -->
      <g transform="translate(486.5952 125.341188)scale(0.14 -0.14)">
       <defs>
        <path d="M 5.59375 0.5 
L 6.5 -0.796875 
C 10.40625 -0.5 10.40625 -0.5 11.09375 -0.5 
C 11.796875 -0.5 11.796875 -0.5 15.703125 -0.796875 
C 19.90625 10.140625 24.796875 20.578125 31.40625 32.609375 
L 49.703125 65.609375 
L 49.703125 68.3125 
C 38.90625 68.3125 35.40625 68.3125 27.296875 68.3125 
C 20 68.3125 15.09375 68.3125 5.40625 68.3125 
L 4.40625 68.109375 
C 4.703125 58.59375 4.703125 58.59375 4.703125 57.578125 
C 4.703125 56.46875 4.703125 56.46875 4.40625 47.359375 
L 7.40625 47.359375 
L 8.09375 52.96875 
C 8.90625 59.203125 9.59375 60 14.203125 60 
L 40.90625 60 
C 36.90625 51.765625 33.796875 45.953125 30 39.828125 
z
" id="URW_Palladio_L_Roman-55"/>
       </defs>
       <use transform="scale(0.996264)" xlink:href="#URW_Palladio_L_Roman-55"/>
      </g>
     </g>
    </g>
    <g id="text_9">
     <!-- $N$ -->
     <g transform="translate(264.124933 141.828236)scale(0.12 -0.12)">
      <defs>
       <path d="M 23.703125 68.78125 
L 15.59375 68.78125 
L 14.59375 68.78125 
L 13.203125 68.78125 
C 12.90625 68.78125 11.40625 68.78125 9.09375 68.78125 
L 7.5 68.78125 
L 7 66 
L 10.5 66 
C 12.203125 66 14.40625 65.296875 15.5 64.40625 
C 17 63.203125 18.5 61.3125 18.5 60.515625 
C 18.5 60.421875 18.5 60.125 18.40625 59.8125 
C 18.40625 59.71875 18.40625 59.515625 18.296875 59.328125 
C 18.203125 58.53125 18.09375 57.828125 18 57.53125 
L 9.203125 10.34375 
C 8 4.171875 7.40625 3.375 3.796875 2.96875 
L 0.703125 2.671875 
L 0.203125 -0.109375 
L 11.296875 -0.109375 
C 12.5 -0.109375 12.59375 -0.109375 22.296875 -0.109375 
L 22.796875 2.578125 
L 18.59375 2.875 
C 14.59375 3.1875 13.703125 3.984375 13.703125 7.265625 
C 13.703125 8.0625 13.796875 9.15625 14 10.25 
L 22 56.4375 
L 55.796875 -1 
L 60.796875 -1 
L 70.203125 54.046875 
C 72.296875 65.296875 72.5 65.703125 76.203125 66 
L 79.90625 66 
L 80.40625 68.78125 
L 78.296875 68.78125 
L 69.40625 68.78125 
L 60.796875 68.78125 
L 58.90625 68.78125 
L 58.40625 66 
L 63.09375 66 
C 65.703125 66 66.703125 65.265625 66.703125 63.609375 
C 66.703125 62.90625 66.40625 60.328125 66.203125 59.03125 
L 58.203125 10.34375 
z
" id="URW_Palladio_L_Italic-78"/>
      </defs>
      <use transform="scale(0.996264)" xlink:href="#URW_Palladio_L_Italic-78"/>
     </g>
    </g>
   </g>
   <g id="matplotlib.axis_2">
    <g id="ytick_1">
     <g id="line2d_19">
      <path clip-path="url(#p065a7828a2)" d="M 41.145691 90.595493 
L 496.405172 90.595493 
" style="fill:none;stroke:#000000;stroke-linecap:square;stroke-opacity:0.2;stroke-width:0.5;"/>
     </g>
     <g id="line2d_20">
      <defs>
       <path d="M 0 0 
L -3.5 0 
" id="ma83bf15759" style="stroke:#000000;stroke-opacity:0.2;stroke-width:0.8;"/>
      </defs>
      <g>
       <use style="fill-opacity:0.2;stroke:#000000;stroke-opacity:0.2;stroke-width:0.8;" x="41.145691" xlink:href="#ma83bf15759" y="90.595493"/>
      </g>
     </g>
     <g id="text_10">
      <!-- $\mathdefault{−1}$ -->
      <g transform="translate(7.2 95.585257)scale(0.14 -0.14)">
       <defs>
        <path d="M 65.90625 23 
C 67.59375 23 69.40625 23 69.40625 25 
C 69.40625 27 67.59375 27 65.90625 27 
L 11.796875 27 
C 10.09375 27 8.296875 27 8.296875 25 
C 8.296875 23 10.09375 23 11.796875 23 
z
" id="CMSY10-0"/>
       </defs>
       <use transform="scale(1.038107)" xlink:href="#CMSY10-0"/>
       <use transform="translate(81.941696 0)scale(0.996264)" xlink:href="#URW_Palladio_L_Roman-49"/>
      </g>
     </g>
    </g>
    <g id="ytick_2">
     <g id="line2d_21">
      <path clip-path="url(#p065a7828a2)" d="M 41.145691 53.530829 
L 496.405172 53.530829 
" style="fill:none;stroke:#000000;stroke-linecap:square;stroke-opacity:0.2;stroke-width:0.5;"/>
     </g>
     <g id="line2d_22">
      <g>
       <use style="fill-opacity:0.2;stroke:#000000;stroke-opacity:0.2;stroke-width:0.8;" x="41.145691" xlink:href="#ma83bf15759" y="53.530829"/>
      </g>
     </g>
     <g id="text_11">
      <!-- $\mathdefault{0}$ -->
      <g transform="translate(18.671843 58.520594)scale(0.14 -0.14)">
       <use transform="scale(0.996264)" xlink:href="#URW_Palladio_L_Roman-48"/>
      </g>
     </g>
    </g>
    <g id="ytick_3">
     <g id="line2d_23">
      <path clip-path="url(#p065a7828a2)" d="M 41.145691 16.466166 
L 496.405172 16.466166 
" style="fill:none;stroke:#000000;stroke-linecap:square;stroke-opacity:0.2;stroke-width:0.5;"/>
     </g>
     <g id="line2d_24">
      <g>
       <use style="fill-opacity:0.2;stroke:#000000;stroke-opacity:0.2;stroke-width:0.8;" x="41.145691" xlink:href="#ma83bf15759" y="16.466166"/>
      </g>
     </g>
     <g id="text_12">
      <!-- $\mathdefault{1}$ -->
      <g transform="translate(18.671843 21.45593)scale(0.14 -0.14)">
       <use transform="scale(0.996264)" xlink:href="#URW_Palladio_L_Roman-49"/>
      </g>
     </g>
    </g>
   </g>
   <g id="PathCollection_2">
    <defs>
     <path d="M 0 2.5 
C 0.663008 2.5 1.29895 2.236584 1.767767 1.767767 
C 2.236584 1.29895 2.5 0.663008 2.5 0 
C 2.5 -0.663008 2.236584 -1.29895 1.767767 -1.767767 
C 1.29895 -2.236584 0.663008 -2.5 0 -2.5 
C -0.663008 -2.5 -1.29895 -2.236584 -1.767767 -1.767767 
C -2.236584 -1.29895 -2.5 -0.663008 -2.5 0 
C -2.5 0.663008 -2.236584 1.29895 -1.767767 1.767767 
C -1.29895 2.236584 -0.663008 2.5 0 2.5 
z
" id="ma2328b9c63" style="stroke:#0271ae;stroke-width:0.5;"/>
    </defs>
    <g clip-path="url(#p065a7828a2)">
     <use style="fill:#0271ae;stroke:#0271ae;stroke-width:0.5;" x="47.468739" xlink:href="#ma2328b9c63" y="16.466166"/>
     <use style="fill:#0271ae;stroke:#0271ae;stroke-width:0.5;" x="110.699223" xlink:href="#ma2328b9c63" y="79.739504"/>
     <use style="fill:#0271ae;stroke:#0271ae;stroke-width:0.5;" x="173.929706" xlink:href="#ma2328b9c63" y="53.530829"/>
     <use style="fill:#0271ae;stroke:#0271ae;stroke-width:0.5;" x="237.16019" xlink:href="#ma2328b9c63" y="27.322154"/>
     <use style="fill:#0271ae;stroke:#0271ae;stroke-width:0.5;" x="300.390673" xlink:href="#ma2328b9c63" y="90.595493"/>
     <use style="fill:#0271ae;stroke:#0271ae;stroke-width:0.5;" x="363.621157" xlink:href="#ma2328b9c63" y="27.322154"/>
     <use style="fill:#0271ae;stroke:#0271ae;stroke-width:0.5;" x="426.85164" xlink:href="#ma2328b9c63" y="53.530829"/>
     <use style="fill:#0271ae;stroke:#0271ae;stroke-width:0.5;" x="490.082124" xlink:href="#ma2328b9c63" y="79.739504"/>
    </g>
   </g>
   <g id="legend_1">
    <g id="patch_3">
     <path d="M 506.205172 77.201814 
L 574.39952 77.201814 
Q 577.19952 77.201814 577.19952 74.401814 
L 577.19952 32.659844 
Q 577.19952 29.859844 574.39952 29.859844 
L 506.205172 29.859844 
Q 503.405172 29.859844 503.405172 32.659844 
L 503.405172 74.401814 
Q 503.405172 77.201814 506.205172 77.201814 
z
" style="fill:#ffffff;opacity:0.95;stroke:#cccccc;stroke-linejoin:miter;stroke-width:0.5;"/>
    </g>
    <g id="line2d_25">
     <path d="M 509.005172 41.197657 
L 523.005172 41.197657 
" style="fill:none;stroke:#0271ae;stroke-linecap:square;stroke-opacity:0.5;stroke-width:3;"/>
    </g>
    <g id="line2d_26"/>
    <g id="text_13">
     <!-- $m=5$ -->
     <g style="fill:#0271ae;" transform="translate(534.205172 46.097657)scale(0.14 -0.14)">
      <defs>
       <path d="M 73 10.15625 
L 70.40625 8.46875 
C 67.5 6.578125 65.296875 5.484375 64.296875 5.484375 
C 63.59375 5.484375 63 6.375 63 7.46875 
C 63 8.46875 63.203125 9.375 63.703125 11.46875 
L 71.203125 41.109375 
C 71.59375 42.796875 71.90625 44.390625 71.90625 45.203125 
C 71.90625 46.90625 70.90625 48 69.296875 48 
C 66.40625 48 62.59375 46.203125 56.5 41.90625 
C 50.203125 37.40625 46.703125 33.921875 41.796875 27.03125 
L 44.796875 40.71875 
C 45.203125 42.703125 45.5 44.203125 45.5 44.90625 
C 45.5 46.796875 44.5 48 42.90625 48 
C 39.90625 48 35.296875 45.8125 29.796875 41.609375 
C 25.40625 38.203125 23.40625 36.109375 16.90625 27.328125 
L 20.203125 40.609375 
C 20.59375 42.203125 20.796875 43.703125 20.796875 44.890625 
C 20.796875 46.796875 19.90625 48 18.5 48 
C 16.40625 48 12.59375 45.90625 5.203125 40.59375 
L 2.40625 38.609375 
L 3.09375 36.609375 
L 6.296875 38.703125 
C 10 41.015625 10.296875 41.203125 11 41.203125 
C 12.09375 41.203125 12.796875 40.21875 12.796875 38.71875 
C 12.796875 33.625 8.703125 14.359375 4.59375 0.09375 
L 4.90625 -1 
L 11.703125 0.484375 
L 13.90625 10.671875 
C 16.296875 21.75 19 27.640625 24.5 33.625 
C 28.703125 38.21875 33.203125 41.203125 36 41.203125 
C 36.703125 41.203125 37.09375 40.40625 37.09375 39.125 
C 37.09375 35.625 34.90625 24.25 30.796875 6.78125 
L 29.203125 0.09375 
L 29.703125 -1 
L 36.59375 0.484375 
L 38.703125 11.171875 
C 40.296875 19.25 43.703125 26.734375 48.09375 31.640625 
C 53.59375 37.71875 58.59375 41.203125 61.796875 41.203125 
C 62.59375 41.203125 63.09375 40.3125 63.09375 38.71875 
C 63.09375 36.3125 62.796875 34.921875 60.59375 26.234375 
C 59 19.953125 57.296875 13.96875 56.296875 10.578125 
C 55.40625 7.765625 55 5.1875 55 3 
C 55 0.484375 56.09375 -1 58 -1 
C 60.59375 -1 64.203125 1.078125 74 8.375 
z
" id="URW_Palladio_L_Italic-109"/>
       <path d="M 68.703125 32 
C 70.203125 32 72.09375 32 72.09375 34.015625 
C 72.09375 36.015625 70.203125 36.015625 68.796875 36.015625 
L 8.90625 36.015625 
C 7.5 36.015625 5.59375 36.015625 5.59375 34.015625 
C 5.59375 32 7.5 32 9 32 
z
M 68.796875 13 
C 70.203125 13 72.09375 13 72.09375 15.015625 
C 72.09375 17.015625 70.203125 17.015625 68.703125 17.015625 
L 9 17.015625 
C 7.5 17.015625 5.59375 17.015625 5.59375 15.015625 
C 5.59375 13 7.5 13 8.90625 13 
z
" id="CMR10-61"/>
      </defs>
      <use transform="scale(0.996264)" xlink:href="#URW_Palladio_L_Italic-109"/>
      <use transform="translate(107.673966 0)scale(1.038107)" xlink:href="#CMR10-61"/>
      <use transform="translate(217.289595 0)scale(0.996264)" xlink:href="#URW_Palladio_L_Roman-53"/>
     </g>
    </g>
    <g id="line2d_27">
     <path d="M 509.005172 62.768642 
L 523.005172 62.768642 
" style="fill:none;stroke:#dc2830;stroke-linecap:square;stroke-opacity:0.5;stroke-width:3;"/>
    </g>
    <g id="line2d_28"/>
    <g id="text_14">
     <!-- $m=1$ -->
     <g style="fill:#dc2830;" transform="translate(534.205172 67.668642)scale(0.14 -0.14)">
      <use transform="scale(0.996264)" xlink:href="#URW_Palladio_L_Italic-109"/>
      <use transform="translate(107.673966 0)scale(1.038107)" xlink:href="#CMR10-61"/>
      <use transform="translate(217.289595 0)scale(0.996264)" xlink:href="#URW_Palladio_L_Roman-49"/>
     </g>
    </g>
   </g>
  </g>
 </g>
 <defs>
  <clipPath id="p065a7828a2">
   <rect height="92.661659" width="455.259482" x="41.145691" y="7.2"/>
  </clipPath>
 </defs>
</svg>
