<?xml version="1.0" encoding="utf-8" standalone="no"?>
<!DOCTYPE svg PUBLIC "-//W3C//DTD SVG 1.1//EN"
  "http://www.w3.org/Graphics/SVG/1.1/DTD/svg11.dtd">
<svg height="200.39952pt" version="1.1" viewBox="0 0 584.39952 200.39952" width="584.39952pt" xmlns="http://www.w3.org/2000/svg" xmlns:xlink="http://www.w3.org/1999/xlink">
 <metadata>
  <rdf:RDF xmlns:cc="http://creativecommons.org/ns#" xmlns:dc="http://purl.org/dc/elements/1.1/" xmlns:rdf="http://www.w3.org/1999/02/22-rdf-syntax-ns#">
   <cc:Work>
    <dc:type rdf:resource="http://purl.org/dc/dcmitype/StillImage"/>
    <dc:date>2020-10-27T16:01:47.432194</dc:date>
    <dc:format>image/svg+xml</dc:format>
    <dc:creator>
     <cc:Agent>
      <dc:title>Matplotlib v3.3.0rc1.post717+g6a40954ae, https://matplotlib.org/</dc:title>
     </cc:Agent>
    </dc:creator>
   </cc:Work>
  </rdf:RDF>
 </metadata>
 <defs>
  <style type="text/css">*{stroke-linecap:butt;stroke-linejoin:round;}</style>
 </defs>
 <g id="figure_1">
  <g id="patch_1">
   <path d="M 0 200.39952 
L 584.39952 200.39952 
L 584.39952 0 
L 0 0 
z
" style="fill:none;"/>
  </g>
  <g id="axes_1">
   <g id="patch_2">
    <path d="M 47.108468 147.861659 
L 284.070523 147.861659 
L 284.070523 7.2 
L 47.108468 7.2 
z
" style="fill:none;"/>
   </g>
   <g id="matplotlib.axis_1">
    <g id="xtick_1">
     <g id="line2d_1">
      <path clip-path="url(#p04d90ffa16)" d="M 47.108468 147.861659 
L 47.108468 7.2 
" style="fill:none;stroke:#000000;stroke-linecap:square;stroke-opacity:0.2;stroke-width:0.5;"/>
     </g>
     <g id="line2d_2">
      <defs>
       <path d="M 0 0 
L 0 3.5 
" id="m00bea6100d" style="stroke:#000000;stroke-opacity:0.2;stroke-width:0.8;"/>
      </defs>
      <g>
       <use style="fill-opacity:0.2;stroke:#000000;stroke-opacity:0.2;stroke-width:0.8;" x="47.108468" xlink:href="#m00bea6100d" y="147.861659"/>
      </g>
     </g>
     <g id="text_1">
      <!-- $\mathdefault{0}$ -->
      <g transform="translate(43.621544 173.341188)scale(0.14 -0.14)">
       <defs>
        <path d="M 1683 4416 
C 691 4416 186 3628 186 2077 
C 186 1326 320 680 544 366 
C 768 51 1126 -128 1523 -128 
C 2490 -128 2976 705 2976 2346 
C 2976 3749 2560 4416 1683 4416 
z
M 1568 4192 
C 2189 4192 2438 3564 2438 2025 
C 2438 661 2195 96 1606 96 
C 986 96 723 744 723 2308 
C 723 3660 960 4192 1568 4192 
z
" id="URWPalladioL-Roma-30" transform="scale(0.015625)"/>
       </defs>
       <use transform="scale(0.996264)" xlink:href="#URWPalladioL-Roma-30"/>
      </g>
     </g>
    </g>
    <g id="xtick_2">
     <g id="line2d_3">
      <path clip-path="url(#p04d90ffa16)" d="M 123.547841 147.861659 
L 123.547841 7.2 
" style="fill:none;stroke:#000000;stroke-linecap:square;stroke-opacity:0.2;stroke-width:0.5;"/>
     </g>
     <g id="line2d_4">
      <g>
       <use style="fill-opacity:0.2;stroke:#000000;stroke-opacity:0.2;stroke-width:0.8;" x="123.547841" xlink:href="#m00bea6100d" y="147.861659"/>
      </g>
     </g>
     <g id="text_2">
      <!-- $\mathdefault{10}$ -->
      <g transform="translate(116.573993 173.341188)scale(0.14 -0.14)">
       <defs>
        <path d="M 429 3584 
L 493 3584 
L 1318 3956 
C 1325 3962 1331 3962 1338 3962 
C 1376 3962 1389 3905 1389 3751 
L 1389 613 
C 1389 276 1318 205 973 205 
L 614 205 
L 614 0 
C 1600 0 1600 0 1670 0 
C 1754 0 1894 0 2112 0 
C 2189 0 2413 0 2675 0 
L 2675 205 
L 2342 205 
C 1990 205 1926 276 1926 612 
L 1926 4443 
L 1837 4475 
C 1421 4257 966 4065 384 3860 
z
" id="URWPalladioL-Roma-31" transform="scale(0.015625)"/>
       </defs>
       <use transform="scale(0.996264)" xlink:href="#URWPalladioL-Roma-31"/>
       <use transform="translate(49.8132 0)scale(0.996264)" xlink:href="#URWPalladioL-Roma-30"/>
      </g>
     </g>
    </g>
    <g id="xtick_3">
     <g id="line2d_5">
      <path clip-path="url(#p04d90ffa16)" d="M 199.987213 147.861659 
L 199.987213 7.2 
" style="fill:none;stroke:#000000;stroke-linecap:square;stroke-opacity:0.2;stroke-width:0.5;"/>
     </g>
     <g id="line2d_6">
      <g>
       <use style="fill-opacity:0.2;stroke:#000000;stroke-opacity:0.2;stroke-width:0.8;" x="199.987213" xlink:href="#m00bea6100d" y="147.861659"/>
      </g>
     </g>
     <g id="text_3">
      <!-- $\mathdefault{20}$ -->
      <g transform="translate(193.013365 173.341188)scale(0.14 -0.14)">
       <defs>
        <path d="M 102 160 
L 102 0 
C 1299 0 1299 0 1530 0 
C 1760 0 1760 0 2995 0 
C 2982 125 2982 186 2982 269 
C 2982 348 2982 407 2995 539 
C 2259 539 1965 539 781 539 
L 1946 1761 
C 2566 2414 2758 2763 2758 3238 
C 2758 3966 2259 4416 1446 4416 
C 986 4416 672 4288 358 3969 
L 250 3099 
L 435 3099 
L 518 3393 
C 621 3763 851 3923 1280 3923 
C 1830 3923 2182 3577 2182 3035 
C 2182 2555 1914 2083 1190 1316 
z
" id="URWPalladioL-Roma-32" transform="scale(0.015625)"/>
       </defs>
       <use transform="scale(0.996264)" xlink:href="#URWPalladioL-Roma-32"/>
       <use transform="translate(49.8132 0)scale(0.996264)" xlink:href="#URWPalladioL-Roma-30"/>
      </g>
     </g>
    </g>
    <g id="xtick_4">
     <g id="line2d_7">
      <path clip-path="url(#p04d90ffa16)" d="M 276.426585 147.861659 
L 276.426585 7.2 
" style="fill:none;stroke:#000000;stroke-linecap:square;stroke-opacity:0.2;stroke-width:0.5;"/>
     </g>
     <g id="line2d_8">
      <g>
       <use style="fill-opacity:0.2;stroke:#000000;stroke-opacity:0.2;stroke-width:0.8;" x="276.426585" xlink:href="#m00bea6100d" y="147.861659"/>
      </g>
     </g>
     <g id="text_4">
      <!-- $\mathdefault{30}$ -->
      <g transform="translate(269.452737 173.341188)scale(0.14 -0.14)">
       <defs>
        <path d="M 275 3197 
L 474 3197 
L 589 3554 
C 659 3770 1062 3987 1395 3987 
C 1811 3987 2150 3649 2150 3248 
C 2150 2770 1773 2368 1318 2368 
C 1267 2368 1197 2368 1114 2381 
L 1018 2381 
L 941 2047 
L 986 2008 
C 1229 2118 1350 2150 1523 2150 
C 2054 2150 2362 1809 2362 1222 
C 2362 566 1971 135 1376 135 
C 1082 135 819 231 627 411 
C 474 553 390 701 269 1049 
L 96 985 
C 230 593 282 361 320 39 
C 659 -77 941 -128 1178 -128 
C 1690 -128 2278 161 2630 593 
C 2848 857 2957 1140 2957 1442 
C 2957 1751 2829 2022 2598 2182 
C 2438 2298 2291 2350 1971 2407 
C 2483 2803 2675 3096 2675 3472 
C 2675 4040 2202 4416 1491 4416 
C 1056 4416 768 4295 461 3989 
z
" id="URWPalladioL-Roma-33" transform="scale(0.015625)"/>
       </defs>
       <use transform="scale(0.996264)" xlink:href="#URWPalladioL-Roma-33"/>
       <use transform="translate(49.8132 0)scale(0.996264)" xlink:href="#URWPalladioL-Roma-30"/>
      </g>
     </g>
    </g>
    <g id="text_5">
     <!-- Samples $n$ -->
     <g transform="translate(138.562102 189.828236)scale(0.12 -0.12)">
      <defs>
       <path d="M 2861 3371 
C 2861 3711 2886 3928 2950 4274 
C 2438 4480 2150 4544 1798 4544 
C 845 4544 154 3941 154 3102 
C 154 2788 237 2557 422 2384 
C 640 2186 934 2083 1555 2000 
C 2048 1929 2272 1859 2438 1711 
C 2605 1577 2682 1391 2682 1147 
C 2682 571 2202 154 1536 154 
C 1024 154 525 404 493 666 
L 442 1096 
L 237 1096 
C 243 980 243 878 243 840 
C 243 545 230 404 192 116 
C 557 -45 928 -128 1299 -128 
C 2413 -128 3219 545 3219 1474 
C 3219 1775 3136 1987 2957 2153 
C 2733 2364 2464 2448 1747 2544 
C 966 2646 691 2858 691 3352 
C 691 3890 1094 4274 1658 4274 
C 1907 4274 2144 4223 2317 4127 
C 2528 4018 2598 3922 2618 3737 
L 2656 3371 
z
" id="URWPalladioL-Roma-53" transform="scale(0.015625)"/>
       <path d="M 2074 538 
L 2042 -1 
C 2458 -1 2458 -1 2541 -1 
C 2573 -1 2733 -1 3014 -1 
L 3014 192 
L 2765 192 
C 2611 192 2586 244 2586 558 
L 2586 1731 
C 2586 2668 2317 3008 1574 3008 
C 1299 3008 1043 2937 800 2791 
L 461 2585 
L 461 2171 
L 627 2126 
L 710 2323 
C 845 2623 909 2668 1203 2668 
C 1805 2668 2054 2431 2074 1852 
L 1440 1736 
C 570 1577 205 1277 205 722 
C 205 224 506 -64 1011 -64 
C 1126 -64 1235 -45 1280 -13 
z
M 2074 806 
C 1888 544 1485 302 1235 302 
C 979 302 755 538 755 812 
C 755 1048 883 1271 1075 1392 
C 1235 1488 1587 1577 2074 1648 
z
" id="URWPalladioL-Roma-61" transform="scale(0.015625)"/>
       <path d="M 115 2565 
L 352 2565 
C 608 2565 634 2520 634 2094 
L 634 643 
C 634 237 614 192 397 192 
L 102 192 
L 102 -7 
C 717 -7 736 -7 915 -7 
C 1094 -7 1261 -7 1677 -7 
L 1677 179 
L 1408 205 
C 1190 205 1171 250 1171 654 
L 1171 2014 
C 1171 2302 1594 2616 1978 2616 
C 2323 2616 2560 2287 2560 1798 
L 2560 643 
C 2560 237 2541 192 2323 192 
L 2029 192 
L 2029 -7 
C 2669 -7 2669 -7 2829 -7 
C 2989 -7 2989 -7 3629 -7 
L 3629 192 
L 3334 192 
C 3117 192 3098 237 3098 643 
L 3098 2011 
C 3098 2300 3520 2616 3904 2616 
C 4250 2616 4486 2291 4486 1806 
L 4486 -7 
C 4877 -7 4883 -7 4992 -7 
C 5075 -7 5075 -7 5562 -7 
L 5562 192 
L 5261 192 
C 5043 192 5024 237 5024 643 
L 5024 1970 
C 5024 2608 4653 3008 4064 3008 
C 3840 3008 3654 2950 3539 2847 
L 3053 2412 
C 2848 2834 2586 3008 2144 3008 
C 1907 3008 1728 2950 1613 2847 
L 1171 2437 
L 1171 2982 
L 1114 3008 
C 787 2873 454 2783 115 2745 
z
" id="URWPalladioL-Roma-6d" transform="scale(0.015625)"/>
       <path d="M 64 2565 
L 301 2565 
C 557 2565 582 2520 582 2095 
L 582 -1142 
C 582 -1548 563 -1593 346 -1593 
L 51 -1593 
L 51 -1792 
C 691 -1792 691 -1792 851 -1792 
C 1011 -1792 1011 -1792 1651 -1792 
L 1651 -1593 
L 1357 -1593 
C 1139 -1593 1120 -1547 1120 -1138 
L 1120 89 
C 1312 -26 1517 -71 1805 -71 
C 1990 -71 2157 -32 2259 32 
L 2989 505 
C 3245 672 3546 1330 3546 1740 
C 3546 2451 2957 3008 2214 3008 
C 1978 3008 1747 2943 1645 2847 
L 1120 2367 
L 1120 2982 
L 1062 3008 
C 736 2873 403 2783 64 2745 
z
M 1120 1964 
C 1120 2053 1152 2124 1235 2233 
C 1421 2469 1683 2591 2003 2591 
C 2605 2591 2989 2169 2989 1504 
C 2989 787 2560 256 1984 256 
C 1632 256 1370 372 1120 633 
z
" id="URWPalladioL-Roma-70" transform="scale(0.015625)"/>
       <path d="M 147 4256 
L 506 4256 
C 621 4256 666 4185 666 3992 
L 666 651 
C 666 244 646 199 429 199 
L 134 199 
L 134 0 
C 774 0 774 0 934 0 
C 1094 0 1094 0 1734 0 
L 1734 199 
L 1440 199 
C 1222 199 1203 244 1203 650 
L 1203 4621 
L 1146 4673 
C 864 4564 653 4512 147 4435 
z
" id="URWPalladioL-Roma-6c" transform="scale(0.015625)"/>
       <path d="M 2797 447 
L 2714 511 
C 2304 269 2157 212 1882 212 
C 1466 212 1120 398 941 711 
C 819 921 774 1101 762 1472 
L 1696 1472 
C 2138 1472 2413 1472 2854 1544 
C 2861 1634 2867 1693 2867 1771 
C 2867 2520 2394 3008 1677 3008 
C 1440 3008 1165 2924 902 2770 
C 378 2469 166 2071 166 1404 
C 166 1000 262 654 435 410 
C 691 71 1120 -128 1600 -128 
C 1837 -128 2074 -77 2336 37 
C 2509 108 2643 191 2669 230 
z
M 2298 1690 
C 1965 1690 1811 1690 1581 1690 
C 1286 1690 1120 1690 774 1722 
C 774 2027 800 2169 883 2337 
C 1018 2622 1293 2796 1600 2796 
C 1811 2796 1978 2711 2093 2534 
C 2234 2319 2278 2129 2298 1690 
z
" id="URWPalladioL-Roma-65" transform="scale(0.015625)"/>
       <path d="M 262 917 
C 262 475 243 282 192 26 
C 525 -83 774 -128 1069 -128 
C 1907 -128 2502 321 2502 949 
C 2502 1148 2445 1295 2323 1424 
C 2157 1584 1946 1661 1382 1770 
C 858 1873 685 2001 685 2296 
C 685 2616 909 2796 1299 2796 
C 1728 2796 2054 2572 2054 2270 
L 2054 2123 
L 2234 2123 
C 2240 2495 2246 2648 2266 2847 
C 1926 2963 1696 3008 1434 3008 
C 691 3008 237 2655 237 2078 
C 237 1770 378 1552 672 1417 
C 845 1340 1184 1238 1619 1141 
C 1907 1077 2029 943 2029 699 
C 2029 353 1709 109 1254 109 
C 787 109 454 333 454 654 
L 454 917 
z
" id="URWPalladioL-Roma-73" transform="scale(0.015625)"/>
       <path d="M 154 2471 
L 198 2343 
L 403 2477 
C 640 2625 659 2637 704 2637 
C 774 2637 819 2574 819 2478 
C 819 2152 557 919 294 6 
L 339 -64 
C 499 -20 646 18 787 44 
C 909 849 1043 1264 1338 1705 
C 1683 2241 2163 2637 2451 2637 
C 2522 2637 2560 2580 2560 2484 
C 2560 2369 2541 2235 2490 2031 
L 2157 677 
C 2099 440 2074 294 2074 192 
C 2074 31 2144 -64 2266 -64 
C 2432 -64 2662 69 3290 536 
L 3226 651 
L 3059 543 
C 2874 421 2733 351 2669 351 
C 2624 351 2586 408 2586 478 
C 2586 510 2592 581 2598 607 
L 3021 2369 
C 3066 2555 3091 2733 3091 2841 
C 3091 2989 3021 3072 2893 3072 
C 2624 3072 2182 2830 1805 2478 
C 1562 2254 1382 2037 1050 1571 
L 1293 2599 
C 1318 2714 1331 2790 1331 2861 
C 1331 2995 1280 3072 1184 3072 
C 1050 3072 800 2932 333 2599 
z
" id="URWPalladioL-Ital-6e" transform="scale(0.015625)"/>
      </defs>
      <use transform="scale(0.996264)" xlink:href="#URWPalladioL-Roma-53"/>
      <use transform="translate(52.303815 0)scale(0.996264)" xlink:href="#URWPalladioL-Roma-61"/>
      <use transform="translate(102.117015 0)scale(0.996264)" xlink:href="#URWPalladioL-Roma-6d"/>
      <use transform="translate(190.08669 0)scale(0.996264)" xlink:href="#URWPalladioL-Roma-70"/>
      <use transform="translate(249.961083 0)scale(0.996264)" xlink:href="#URWPalladioL-Roma-6c"/>
      <use transform="translate(278.951445 0)scale(0.996264)" xlink:href="#URWPalladioL-Roma-65"/>
      <use transform="translate(326.67174 0)scale(0.996264)" xlink:href="#URWPalladioL-Roma-73"/>
      <use transform="translate(395.065106 0)scale(0.996264)" xlink:href="#URWPalladioL-Ital-6e"/>
     </g>
    </g>
   </g>
   <g id="matplotlib.axis_2">
    <g id="ytick_1">
     <g id="line2d_9">
      <path clip-path="url(#p04d90ffa16)" d="M 47.108468 141.467947 
L 284.070523 141.467947 
" style="fill:none;stroke:#000000;stroke-linecap:square;stroke-opacity:0.2;stroke-width:0.5;"/>
     </g>
     <g id="line2d_10">
      <defs>
       <path d="M 0 0 
L -3.5 0 
" id="m35bd7759b3" style="stroke:#000000;stroke-opacity:0.2;stroke-width:0.8;"/>
      </defs>
      <g>
       <use style="fill-opacity:0.2;stroke:#000000;stroke-opacity:0.2;stroke-width:0.8;" x="47.108468" xlink:href="#m35bd7759b3" y="141.467947"/>
      </g>
     </g>
     <g id="text_6">
      <!-- $\mathdefault{0.00}$ -->
      <g transform="translate(7.2 146.457711)scale(0.14 -0.14)">
       <defs>
        <path d="M 794 744 
C 602 744 429 564 429 372 
C 429 179 602 0 787 0 
C 992 0 1171 173 1171 372 
C 1171 564 992 744 794 744 
z
" id="URWPalladioL-Roma-2e" transform="scale(0.015625)"/>
       </defs>
       <use transform="scale(0.996264)" xlink:href="#URWPalladioL-Roma-30"/>
       <use transform="translate(49.8132 0)scale(0.996264)" xlink:href="#URWPalladioL-Roma-2e"/>
       <use transform="translate(74.719801 0)scale(0.996264)" xlink:href="#URWPalladioL-Roma-30"/>
       <use transform="translate(124.533001 0)scale(0.996264)" xlink:href="#URWPalladioL-Roma-30"/>
      </g>
     </g>
    </g>
    <g id="ytick_2">
     <g id="line2d_11">
      <path clip-path="url(#p04d90ffa16)" d="M 47.108468 109.499388 
L 284.070523 109.499388 
" style="fill:none;stroke:#000000;stroke-linecap:square;stroke-opacity:0.2;stroke-width:0.5;"/>
     </g>
     <g id="line2d_12">
      <g>
       <use style="fill-opacity:0.2;stroke:#000000;stroke-opacity:0.2;stroke-width:0.8;" x="47.108468" xlink:href="#m35bd7759b3" y="109.499388"/>
      </g>
     </g>
     <g id="text_7">
      <!-- $\mathdefault{0.05}$ -->
      <g transform="translate(7.2 114.489153)scale(0.14 -0.14)">
       <defs>
        <path d="M 813 3877 
C 1638 3877 1997 3877 2765 3877 
L 2797 3907 
C 2784 4016 2784 4064 2784 4144 
C 2784 4229 2784 4277 2797 4386 
L 2765 4416 
C 2285 4416 1997 4416 1651 4416 
C 1299 4416 1018 4416 538 4416 
L 506 4403 
C 512 4011 518 3729 518 3523 
C 518 2977 499 2360 480 2077 
L 608 2038 
C 909 2341 1082 2432 1395 2432 
C 2010 2432 2394 1993 2394 1296 
C 2394 580 1984 160 1286 160 
C 941 160 621 277 531 444 
L 237 973 
L 83 883 
C 230 516 307 310 397 27 
C 576 -71 832 -128 1107 -128 
C 1536 -128 1990 59 2342 368 
C 2733 716 2938 1154 2938 1630 
C 2938 2359 2419 2874 1690 2874 
C 1382 2874 1152 2791 755 2554 
z
" id="URWPalladioL-Roma-35" transform="scale(0.015625)"/>
       </defs>
       <use transform="scale(0.996264)" xlink:href="#URWPalladioL-Roma-30"/>
       <use transform="translate(49.8132 0)scale(0.996264)" xlink:href="#URWPalladioL-Roma-2e"/>
       <use transform="translate(74.719801 0)scale(0.996264)" xlink:href="#URWPalladioL-Roma-30"/>
       <use transform="translate(124.533001 0)scale(0.996264)" xlink:href="#URWPalladioL-Roma-35"/>
      </g>
     </g>
    </g>
    <g id="ytick_3">
     <g id="line2d_13">
      <path clip-path="url(#p04d90ffa16)" d="M 47.108468 77.530829 
L 284.070523 77.530829 
" style="fill:none;stroke:#000000;stroke-linecap:square;stroke-opacity:0.2;stroke-width:0.5;"/>
     </g>
     <g id="line2d_14">
      <g>
       <use style="fill-opacity:0.2;stroke:#000000;stroke-opacity:0.2;stroke-width:0.8;" x="47.108468" xlink:href="#m35bd7759b3" y="77.530829"/>
      </g>
     </g>
     <g id="text_8">
      <!-- $\mathdefault{0.10}$ -->
      <g transform="translate(7.2 82.520594)scale(0.14 -0.14)">
       <use transform="scale(0.996264)" xlink:href="#URWPalladioL-Roma-30"/>
       <use transform="translate(49.8132 0)scale(0.996264)" xlink:href="#URWPalladioL-Roma-2e"/>
       <use transform="translate(74.719801 0)scale(0.996264)" xlink:href="#URWPalladioL-Roma-31"/>
       <use transform="translate(124.533001 0)scale(0.996264)" xlink:href="#URWPalladioL-Roma-30"/>
      </g>
     </g>
    </g>
    <g id="ytick_4">
     <g id="line2d_15">
      <path clip-path="url(#p04d90ffa16)" d="M 47.108468 45.562271 
L 284.070523 45.562271 
" style="fill:none;stroke:#000000;stroke-linecap:square;stroke-opacity:0.2;stroke-width:0.5;"/>
     </g>
     <g id="line2d_16">
      <g>
       <use style="fill-opacity:0.2;stroke:#000000;stroke-opacity:0.2;stroke-width:0.8;" x="47.108468" xlink:href="#m35bd7759b3" y="45.562271"/>
      </g>
     </g>
     <g id="text_9">
      <!-- $\mathdefault{0.15}$ -->
      <g transform="translate(7.2 50.552035)scale(0.14 -0.14)">
       <use transform="scale(0.996264)" xlink:href="#URWPalladioL-Roma-30"/>
       <use transform="translate(49.8132 0)scale(0.996264)" xlink:href="#URWPalladioL-Roma-2e"/>
       <use transform="translate(74.719801 0)scale(0.996264)" xlink:href="#URWPalladioL-Roma-31"/>
       <use transform="translate(124.533001 0)scale(0.996264)" xlink:href="#URWPalladioL-Roma-35"/>
      </g>
     </g>
    </g>
    <g id="ytick_5">
     <g id="line2d_17">
      <path clip-path="url(#p04d90ffa16)" d="M 47.108468 13.593712 
L 284.070523 13.593712 
" style="fill:none;stroke:#000000;stroke-linecap:square;stroke-opacity:0.2;stroke-width:0.5;"/>
     </g>
     <g id="line2d_18">
      <g>
       <use style="fill-opacity:0.2;stroke:#000000;stroke-opacity:0.2;stroke-width:0.8;" x="47.108468" xlink:href="#m35bd7759b3" y="13.593712"/>
      </g>
     </g>
     <g id="text_10">
      <!-- $\mathdefault{0.20}$ -->
      <g transform="translate(7.2 18.583476)scale(0.14 -0.14)">
       <use transform="scale(0.996264)" xlink:href="#URWPalladioL-Roma-30"/>
       <use transform="translate(49.8132 0)scale(0.996264)" xlink:href="#URWPalladioL-Roma-2e"/>
       <use transform="translate(74.719801 0)scale(0.996264)" xlink:href="#URWPalladioL-Roma-32"/>
       <use transform="translate(124.533001 0)scale(0.996264)" xlink:href="#URWPalladioL-Roma-30"/>
      </g>
     </g>
    </g>
   </g>
   <g id="line2d_19">
    <path clip-path="url(#p04d90ffa16)" d="M 47.108468 13.593712 
L 54.752405 13.593712 
L 54.752405 13.593712 
L 62.396343 13.593712 
L 62.396343 13.593712 
L 70.04028 13.593712 
L 70.04028 13.593712 
L 77.684217 13.593712 
L 77.684217 13.593712 
L 85.328154 13.593712 
L 85.328154 141.467947 
L 92.972092 141.467947 
L 92.972092 141.467947 
L 100.616029 141.467947 
L 100.616029 141.467947 
L 108.259966 141.467947 
L 108.259966 141.467947 
L 115.903903 141.467947 
L 115.903903 141.467947 
L 123.547841 141.467947 
L 123.547841 141.467947 
L 131.191778 141.467947 
L 131.191778 141.467947 
L 138.835715 141.467947 
L 138.835715 141.467947 
L 146.479652 141.467947 
L 146.479652 141.467947 
L 154.12359 141.467947 
L 154.12359 141.467947 
L 161.767527 141.467947 
L 161.767527 141.467947 
L 169.411464 141.467947 
L 169.411464 141.467947 
L 177.055401 141.467947 
L 177.055401 141.467947 
L 184.699339 141.467947 
L 184.699339 141.467947 
L 192.343276 141.467947 
L 192.343276 141.467947 
L 199.987213 141.467947 
L 199.987213 141.467947 
L 207.63115 141.467947 
L 207.63115 141.467947 
L 215.275088 141.467947 
L 215.275088 141.467947 
L 222.919025 141.467947 
L 222.919025 141.467947 
L 230.562962 141.467947 
L 230.562962 141.467947 
L 238.206899 141.467947 
L 238.206899 141.467947 
L 245.850837 141.467947 
L 245.850837 141.467947 
L 253.494774 141.467947 
L 253.494774 141.467947 
L 261.138711 141.467947 
L 261.138711 141.467947 
L 268.782648 141.467947 
L 268.782648 141.467947 
L 276.426585 141.467947 
L 276.426585 141.467947 
L 284.070523 141.467947 
L 284.070523 141.467947 
" style="fill:none;stroke:#6e3b87;stroke-linecap:square;stroke-width:3;"/>
    <defs>
     <path d="M 0 2.5 
C 0.663008 2.5 1.29895 2.236584 1.767767 1.767767 
C 2.236584 1.29895 2.5 0.663008 2.5 0 
C 2.5 -0.663008 2.236584 -1.29895 1.767767 -1.767767 
C 1.29895 -2.236584 0.663008 -2.5 0 -2.5 
C -0.663008 -2.5 -1.29895 -2.236584 -1.767767 -1.767767 
C -2.236584 -1.29895 -2.5 -0.663008 -2.5 0 
C -2.5 0.663008 -2.236584 1.29895 -1.767767 1.767767 
C -1.29895 2.236584 -0.663008 2.5 0 2.5 
z
" id="m2af9f54084"/>
    </defs>
    <g clip-path="url(#p04d90ffa16)">
     <use style="fill:#6e3b87;" x="47.108468" xlink:href="#m2af9f54084" y="13.593712"/>
     <use style="fill:#6e3b87;" x="54.752405" xlink:href="#m2af9f54084" y="13.593712"/>
     <use style="fill:#6e3b87;" x="62.396343" xlink:href="#m2af9f54084" y="13.593712"/>
     <use style="fill:#6e3b87;" x="70.04028" xlink:href="#m2af9f54084" y="13.593712"/>
     <use style="fill:#6e3b87;" x="77.684217" xlink:href="#m2af9f54084" y="13.593712"/>
     <use style="fill:#6e3b87;" x="85.328154" xlink:href="#m2af9f54084" y="141.467947"/>
     <use style="fill:#6e3b87;" x="92.972092" xlink:href="#m2af9f54084" y="141.467947"/>
     <use style="fill:#6e3b87;" x="100.616029" xlink:href="#m2af9f54084" y="141.467947"/>
     <use style="fill:#6e3b87;" x="108.259966" xlink:href="#m2af9f54084" y="141.467947"/>
     <use style="fill:#6e3b87;" x="115.903903" xlink:href="#m2af9f54084" y="141.467947"/>
     <use style="fill:#6e3b87;" x="123.547841" xlink:href="#m2af9f54084" y="141.467947"/>
     <use style="fill:#6e3b87;" x="131.191778" xlink:href="#m2af9f54084" y="141.467947"/>
     <use style="fill:#6e3b87;" x="138.835715" xlink:href="#m2af9f54084" y="141.467947"/>
     <use style="fill:#6e3b87;" x="146.479652" xlink:href="#m2af9f54084" y="141.467947"/>
     <use style="fill:#6e3b87;" x="154.12359" xlink:href="#m2af9f54084" y="141.467947"/>
     <use style="fill:#6e3b87;" x="161.767527" xlink:href="#m2af9f54084" y="141.467947"/>
     <use style="fill:#6e3b87;" x="169.411464" xlink:href="#m2af9f54084" y="141.467947"/>
     <use style="fill:#6e3b87;" x="177.055401" xlink:href="#m2af9f54084" y="141.467947"/>
     <use style="fill:#6e3b87;" x="184.699339" xlink:href="#m2af9f54084" y="141.467947"/>
     <use style="fill:#6e3b87;" x="192.343276" xlink:href="#m2af9f54084" y="141.467947"/>
     <use style="fill:#6e3b87;" x="199.987213" xlink:href="#m2af9f54084" y="141.467947"/>
     <use style="fill:#6e3b87;" x="207.63115" xlink:href="#m2af9f54084" y="141.467947"/>
     <use style="fill:#6e3b87;" x="215.275088" xlink:href="#m2af9f54084" y="141.467947"/>
     <use style="fill:#6e3b87;" x="222.919025" xlink:href="#m2af9f54084" y="141.467947"/>
     <use style="fill:#6e3b87;" x="230.562962" xlink:href="#m2af9f54084" y="141.467947"/>
     <use style="fill:#6e3b87;" x="238.206899" xlink:href="#m2af9f54084" y="141.467947"/>
     <use style="fill:#6e3b87;" x="245.850837" xlink:href="#m2af9f54084" y="141.467947"/>
     <use style="fill:#6e3b87;" x="253.494774" xlink:href="#m2af9f54084" y="141.467947"/>
     <use style="fill:#6e3b87;" x="261.138711" xlink:href="#m2af9f54084" y="141.467947"/>
     <use style="fill:#6e3b87;" x="268.782648" xlink:href="#m2af9f54084" y="141.467947"/>
     <use style="fill:#6e3b87;" x="276.426585" xlink:href="#m2af9f54084" y="141.467947"/>
     <use style="fill:#6e3b87;" x="284.070523" xlink:href="#m2af9f54084" y="141.467947"/>
    </g>
   </g>
   <g id="legend_1">
    <g id="patch_3">
     <path d="M 236.496675 39.970985 
L 274.270523 39.970985 
Q 277.070523 39.970985 277.070523 37.170985 
L 277.070523 17 
Q 277.070523 14.2 274.270523 14.2 
L 236.496675 14.2 
Q 233.696675 14.2 233.696675 17 
L 233.696675 37.170985 
Q 233.696675 39.970985 236.496675 39.970985 
z
" style="fill:#ffffff;opacity:0.95;stroke:#cccccc;stroke-linejoin:miter;stroke-width:0.5;"/>
    </g>
    <g id="line2d_20">
     <path d="M 239.296675 25.537813 
L 253.296675 25.537813 
" style="fill:none;stroke:#6e3b87;stroke-linecap:square;stroke-width:3;"/>
    </g>
    <g id="line2d_21">
     <g>
      <use style="fill:#6e3b87;" x="246.296675" xlink:href="#m2af9f54084" y="25.537813"/>
     </g>
    </g>
    <g id="text_11">
     <!-- $h$ -->
     <g style="fill:#6e3b87;" transform="translate(264.496675 30.437813)scale(0.14 -0.14)">
      <defs>
       <path d="M 1510 4587 
L 1434 4657 
C 1101 4492 870 4434 410 4390 
L 384 4256 
L 691 4256 
C 845 4256 909 4211 909 4103 
C 909 4052 902 3995 896 3950 
L 627 2462 
C 448 1500 198 406 64 6 
L 109 -64 
L 550 38 
C 653 773 762 1162 947 1500 
C 1229 2018 1894 2637 2163 2637 
C 2246 2637 2304 2580 2304 2497 
C 2304 2382 2259 2139 2208 1928 
L 1882 677 
C 1824 446 1798 306 1798 185 
C 1798 31 1869 -64 1990 -64 
C 2157 -64 2387 69 3014 536 
L 2950 651 
L 2784 543 
C 2598 421 2458 351 2394 351 
C 2349 351 2310 408 2310 478 
C 2310 542 2317 594 2355 734 
L 2765 2369 
C 2803 2535 2835 2733 2835 2841 
C 2835 2983 2765 3072 2650 3072 
C 2432 3072 2042 2861 1638 2523 
C 1414 2337 1306 2222 1011 1845 
L 883 1686 
z
" id="URWPalladioL-Ital-68" transform="scale(0.015625)"/>
      </defs>
      <use transform="scale(0.996264)" xlink:href="#URWPalladioL-Ital-68"/>
     </g>
    </g>
   </g>
  </g>
  <g id="axes_2">
   <g id="patch_4">
    <path d="M 340.237466 147.861659 
L 577.19952 147.861659 
L 577.19952 7.2 
L 340.237466 7.2 
z
" style="fill:none;"/>
   </g>
   <g id="matplotlib.axis_3">
    <g id="xtick_5">
     <g id="line2d_22">
      <path clip-path="url(#p2a3a10d732)" d="M 340.237466 147.861659 
L 340.237466 7.2 
" style="fill:none;stroke:#000000;stroke-linecap:square;stroke-opacity:0.2;stroke-width:0.5;"/>
     </g>
     <g id="line2d_23">
      <g>
       <use style="fill-opacity:0.2;stroke:#000000;stroke-opacity:0.2;stroke-width:0.8;" x="340.237466" xlink:href="#m00bea6100d" y="147.861659"/>
      </g>
     </g>
     <g id="text_12">
      <!-- $\mathdefault{0}$ -->
      <g transform="translate(336.750541 173.341188)scale(0.14 -0.14)">
       <use transform="scale(0.996264)" xlink:href="#URWPalladioL-Roma-30"/>
      </g>
     </g>
    </g>
    <g id="xtick_6">
     <g id="line2d_24">
      <path clip-path="url(#p2a3a10d732)" d="M 414.288108 147.861659 
L 414.288108 7.2 
" style="fill:none;stroke:#000000;stroke-linecap:square;stroke-opacity:0.2;stroke-width:0.5;"/>
     </g>
     <g id="line2d_25">
      <g>
       <use style="fill-opacity:0.2;stroke:#000000;stroke-opacity:0.2;stroke-width:0.8;" x="414.288108" xlink:href="#m00bea6100d" y="147.861659"/>
      </g>
     </g>
     <g id="text_13">
      <!-- $\mathdefault{5}$ -->
      <g transform="translate(410.801184 173.341188)scale(0.14 -0.14)">
       <use transform="scale(0.996264)" xlink:href="#URWPalladioL-Roma-35"/>
      </g>
     </g>
    </g>
    <g id="xtick_7">
     <g id="line2d_26">
      <path clip-path="url(#p2a3a10d732)" d="M 488.33875 147.861659 
L 488.33875 7.2 
" style="fill:none;stroke:#000000;stroke-linecap:square;stroke-opacity:0.2;stroke-width:0.5;"/>
     </g>
     <g id="line2d_27">
      <g>
       <use style="fill-opacity:0.2;stroke:#000000;stroke-opacity:0.2;stroke-width:0.8;" x="488.33875" xlink:href="#m00bea6100d" y="147.861659"/>
      </g>
     </g>
     <g id="text_14">
      <!-- $\mathdefault{10}$ -->
      <g transform="translate(481.364902 173.341188)scale(0.14 -0.14)">
       <use transform="scale(0.996264)" xlink:href="#URWPalladioL-Roma-31"/>
       <use transform="translate(49.8132 0)scale(0.996264)" xlink:href="#URWPalladioL-Roma-30"/>
      </g>
     </g>
    </g>
    <g id="xtick_8">
     <g id="line2d_28">
      <path clip-path="url(#p2a3a10d732)" d="M 562.389392 147.861659 
L 562.389392 7.2 
" style="fill:none;stroke:#000000;stroke-linecap:square;stroke-opacity:0.2;stroke-width:0.5;"/>
     </g>
     <g id="line2d_29">
      <g>
       <use style="fill-opacity:0.2;stroke:#000000;stroke-opacity:0.2;stroke-width:0.8;" x="562.389392" xlink:href="#m00bea6100d" y="147.861659"/>
      </g>
     </g>
     <g id="text_15">
      <!-- $\mathdefault{15}$ -->
      <g transform="translate(555.415544 173.341188)scale(0.14 -0.14)">
       <use transform="scale(0.996264)" xlink:href="#URWPalladioL-Roma-31"/>
       <use transform="translate(49.8132 0)scale(0.996264)" xlink:href="#URWPalladioL-Roma-35"/>
      </g>
     </g>
    </g>
    <g id="text_16">
     <!-- Frequencies $m$ -->
     <g transform="translate(420.973493 189.828236)scale(0.12 -0.12)">
      <defs>
       <path d="M 1382 2100 
C 1562 2112 1754 2112 2042 2112 
C 2515 2112 2688 2094 2803 2040 
L 2854 1890 
L 2886 1536 
L 3078 1536 
C 3059 2132 3059 2132 3059 2247 
C 3059 2350 3059 2350 3078 2991 
L 2886 2991 
L 2854 2642 
C 2848 2581 2829 2521 2803 2467 
C 2688 2414 2509 2394 2086 2394 
C 1818 2394 1600 2394 1382 2394 
L 1382 4117 
C 1574 4160 1690 4160 2067 4160 
C 2374 4160 2733 4124 2931 4076 
C 3085 4039 3104 4008 3104 3868 
L 3104 3465 
L 3328 3465 
C 3328 3843 3360 4146 3430 4423 
C 3117 4423 2925 4423 2650 4423 
L 1965 4423 
C 1651 4423 1427 4423 1267 4423 
C 1082 4423 1082 4423 141 4423 
L 141 4224 
L 448 4224 
C 742 4224 774 4172 774 3663 
L 774 766 
C 774 256 742 205 448 205 
L 141 205 
L 141 0 
C 518 0 742 0 1075 0 
C 1408 0 1638 0 2016 0 
L 2016 205 
L 1709 205 
C 1414 205 1382 256 1382 766 
z
" id="URWPalladioL-Roma-46" transform="scale(0.015625)"/>
       <path d="M 147 2565 
L 384 2565 
C 640 2565 666 2520 666 2094 
L 666 643 
C 666 237 646 192 429 192 
L 134 192 
L 134 -7 
C 595 -7 762 -7 922 -7 
C 1050 -7 1050 -7 1837 -7 
L 1837 192 
L 1504 192 
C 1216 192 1203 211 1203 638 
L 1203 1751 
C 1203 2139 1459 2463 1773 2463 
C 1965 2463 2099 2373 2202 2169 
L 2336 2169 
L 2394 2937 
C 2323 2982 2208 3008 2093 3008 
C 1901 3008 1696 2905 1562 2745 
L 1203 2322 
L 1203 2982 
L 1146 3008 
C 819 2873 486 2783 147 2745 
z
" id="URWPalladioL-Roma-72" transform="scale(0.015625)"/>
       <path d="M 2515 436 
L 2515 -1138 
C 2515 -1547 2490 -1593 2278 -1593 
L 1907 -1593 
L 1907 -1792 
C 2650 -1792 2650 -1792 2797 -1792 
C 2950 -1792 3130 -1792 3584 -1792 
L 3584 -1593 
L 3290 -1593 
C 3072 -1593 3053 -1548 3053 -1143 
L 3053 2036 
C 3053 2435 3091 2680 3200 2924 
L 3078 2995 
L 2765 2796 
C 2438 2943 2163 3008 1888 3008 
C 1702 3008 1478 2956 1382 2899 
L 845 2554 
C 435 2292 224 1871 224 1315 
C 224 479 730 -64 1523 -64 
C 1658 -64 1766 -38 1850 13 
z
M 2515 781 
C 2515 691 2362 525 2189 429 
C 2035 346 1888 302 1734 302 
C 1171 302 781 824 781 1596 
C 781 2298 1139 2706 1754 2706 
C 2067 2706 2291 2630 2515 2445 
z
" id="URWPalladioL-Roma-71" transform="scale(0.015625)"/>
       <path d="M 3219 3009 
L 3162 3035 
C 2835 2900 2502 2810 2163 2772 
L 2163 2592 
L 2400 2592 
C 2656 2592 2682 2547 2682 2121 
L 2682 1070 
C 2682 928 2592 747 2445 599 
C 2266 418 2061 327 1811 327 
C 1587 327 1408 398 1306 521 
C 1216 624 1171 824 1171 1107 
L 1171 3009 
L 1114 3035 
C 787 2900 454 2810 115 2772 
L 115 2592 
L 352 2592 
C 608 2592 634 2547 634 2122 
L 634 1039 
C 634 587 672 387 787 227 
C 928 33 1171 -64 1536 -64 
C 1824 -64 2080 26 2253 186 
L 2682 585 
C 2682 401 2675 298 2656 0 
C 3085 0 3091 0 3187 0 
C 3277 0 3277 0 3718 0 
L 3718 186 
L 3456 212 
C 3238 212 3219 251 3219 664 
z
" id="URWPalladioL-Roma-75" transform="scale(0.015625)"/>
       <path d="M 2624 -7 
C 3014 -7 3021 -7 3130 -7 
C 3219 -7 3219 -7 3661 -7 
L 3661 179 
L 3398 205 
C 3181 205 3162 244 3162 654 
L 3162 1892 
C 3162 2642 2810 3008 2093 3008 
C 1856 3008 1722 2963 1587 2847 
L 1101 2424 
L 1101 2982 
L 1043 3008 
C 717 2873 384 2783 45 2745 
L 45 2565 
L 282 2565 
C 538 2565 563 2520 563 2094 
L 563 643 
C 563 237 544 192 326 192 
L 38 192 
L 38 -7 
C 474 -7 646 -7 832 -7 
C 1018 -7 1190 -7 1626 -7 
L 1626 192 
L 1338 192 
C 1120 192 1101 237 1101 643 
L 1101 2011 
C 1101 2300 1523 2616 1914 2616 
C 2342 2616 2624 2297 2624 1806 
z
" id="URWPalladioL-Roma-6e" transform="scale(0.015625)"/>
       <path d="M 2554 1994 
C 2554 2289 2586 2552 2643 2783 
C 2387 2937 2163 3008 1901 3008 
C 1594 3008 1235 2886 851 2642 
C 403 2360 166 1911 166 1347 
C 166 481 774 -128 1632 -128 
C 1965 -128 2445 -6 2509 90 
L 2643 295 
L 2579 391 
C 2342 263 2138 205 1907 205 
C 1197 205 730 757 730 1603 
C 730 2289 1050 2674 1626 2674 
C 1907 2674 2214 2546 2330 2386 
L 2374 1994 
z
" id="URWPalladioL-Roma-63" transform="scale(0.015625)"/>
       <path d="M 1203 2993 
L 1146 3019 
C 819 2884 486 2793 147 2755 
L 147 2576 
L 384 2576 
C 640 2576 666 2531 666 2105 
L 666 651 
C 666 244 646 199 429 199 
L 134 199 
L 134 0 
C 774 0 774 0 934 0 
C 1094 0 1094 0 1734 0 
L 1734 199 
L 1440 199 
C 1222 199 1203 244 1203 651 
z
M 909 4416 
C 717 4416 550 4249 550 4056 
C 550 3870 717 3704 902 3704 
C 1088 3704 1261 3870 1261 4056 
C 1261 4236 1088 4416 909 4416 
z
" id="URWPalladioL-Roma-69" transform="scale(0.015625)"/>
       <path d="M 4672 650 
L 4506 542 
C 4320 421 4179 351 4115 351 
C 4070 351 4032 408 4032 478 
C 4032 542 4045 600 4077 734 
L 4557 2631 
C 4582 2739 4602 2841 4602 2893 
C 4602 3002 4538 3072 4435 3072 
C 4250 3072 4006 2957 3616 2682 
C 3213 2394 2989 2171 2675 1730 
L 2867 2606 
C 2893 2733 2912 2829 2912 2874 
C 2912 2995 2848 3072 2746 3072 
C 2554 3072 2259 2932 1907 2663 
C 1626 2445 1498 2311 1082 1749 
L 1293 2599 
C 1318 2701 1331 2797 1331 2873 
C 1331 2995 1274 3072 1184 3072 
C 1050 3072 806 2938 333 2598 
L 154 2471 
L 198 2343 
L 403 2477 
C 640 2625 659 2637 704 2637 
C 774 2637 819 2574 819 2478 
C 819 2152 557 919 294 6 
L 314 -64 
L 749 31 
L 890 683 
C 1043 1392 1216 1769 1568 2152 
C 1837 2446 2125 2637 2304 2637 
C 2349 2637 2374 2586 2374 2504 
C 2374 2280 2234 1552 1971 434 
L 1869 6 
L 1901 -64 
L 2342 31 
L 2477 715 
C 2579 1232 2797 1711 3078 2025 
C 3430 2414 3750 2637 3955 2637 
C 4006 2637 4038 2580 4038 2478 
C 4038 2324 4019 2235 3878 1679 
C 3776 1277 3667 894 3603 677 
C 3546 497 3520 332 3520 192 
C 3520 31 3590 -64 3712 -64 
C 3878 -64 4109 69 4736 536 
z
" id="URWPalladioL-Ital-6d" transform="scale(0.015625)"/>
      </defs>
      <use transform="scale(0.996264)" xlink:href="#URWPalladioL-Roma-46"/>
      <use transform="translate(55.391677 0)scale(0.996264)" xlink:href="#URWPalladioL-Roma-72"/>
      <use transform="translate(92.950994 0)scale(0.996264)" xlink:href="#URWPalladioL-Roma-65"/>
      <use transform="translate(140.671289 0)scale(0.996264)" xlink:href="#URWPalladioL-Roma-71"/>
      <use transform="translate(196.461922 0)scale(0.996264)" xlink:href="#URWPalladioL-Roma-75"/>
      <use transform="translate(256.535657 0)scale(0.996264)" xlink:href="#URWPalladioL-Roma-65"/>
      <use transform="translate(304.255952 0)scale(0.996264)" xlink:href="#URWPalladioL-Roma-6e"/>
      <use transform="translate(362.238012 0)scale(0.996264)" xlink:href="#URWPalladioL-Roma-63"/>
      <use transform="translate(406.471581 0)scale(0.996264)" xlink:href="#URWPalladioL-Roma-69"/>
      <use transform="translate(435.461943 0)scale(0.996264)" xlink:href="#URWPalladioL-Roma-65"/>
      <use transform="translate(483.182238 0)scale(0.996264)" xlink:href="#URWPalladioL-Roma-73"/>
      <use transform="translate(551.575604 0)scale(0.996264)" xlink:href="#URWPalladioL-Ital-6d"/>
     </g>
    </g>
   </g>
   <g id="matplotlib.axis_4">
    <g id="ytick_6">
     <g id="line2d_30">
      <path clip-path="url(#p2a3a10d732)" d="M 340.237466 131.019526 
L 577.19952 131.019526 
" style="fill:none;stroke:#000000;stroke-linecap:square;stroke-opacity:0.2;stroke-width:0.5;"/>
     </g>
     <g id="line2d_31">
      <g>
       <use style="fill-opacity:0.2;stroke:#000000;stroke-opacity:0.2;stroke-width:0.8;" x="340.237466" xlink:href="#m35bd7759b3" y="131.019526"/>
      </g>
     </g>
     <g id="text_17">
      <!-- $\mathdefault{−0.5}$ -->
      <g transform="translate(295.831003 136.00929)scale(0.14 -0.14)">
       <defs>
        <path d="M 4218 1472 
C 4326 1472 4442 1472 4442 1600 
C 4442 1728 4326 1728 4218 1728 
L 755 1728 
C 646 1728 531 1728 531 1600 
C 531 1472 646 1472 755 1472 
z
" id="CMSY10-0" transform="scale(0.015625)"/>
       </defs>
       <use transform="scale(1.038107)" xlink:href="#CMSY10-0"/>
       <use transform="translate(81.941696 0)scale(0.996264)" xlink:href="#URWPalladioL-Roma-30"/>
       <use transform="translate(131.754897 0)scale(0.996264)" xlink:href="#URWPalladioL-Roma-2e"/>
       <use transform="translate(156.661497 0)scale(0.996264)" xlink:href="#URWPalladioL-Roma-35"/>
      </g>
     </g>
    </g>
    <g id="ytick_7">
     <g id="line2d_32">
      <path clip-path="url(#p2a3a10d732)" d="M 340.237466 91.877588 
L 577.19952 91.877588 
" style="fill:none;stroke:#000000;stroke-linecap:square;stroke-opacity:0.2;stroke-width:0.5;"/>
     </g>
     <g id="line2d_33">
      <g>
       <use style="fill-opacity:0.2;stroke:#000000;stroke-opacity:0.2;stroke-width:0.8;" x="340.237466" xlink:href="#m35bd7759b3" y="91.877588"/>
      </g>
     </g>
     <g id="text_18">
      <!-- $\mathdefault{0.0}$ -->
      <g transform="translate(307.302845 96.867352)scale(0.14 -0.14)">
       <use transform="scale(0.996264)" xlink:href="#URWPalladioL-Roma-30"/>
       <use transform="translate(49.8132 0)scale(0.996264)" xlink:href="#URWPalladioL-Roma-2e"/>
       <use transform="translate(74.719801 0)scale(0.996264)" xlink:href="#URWPalladioL-Roma-30"/>
      </g>
     </g>
    </g>
    <g id="ytick_8">
     <g id="line2d_34">
      <path clip-path="url(#p2a3a10d732)" d="M 340.237466 52.73565 
L 577.19952 52.73565 
" style="fill:none;stroke:#000000;stroke-linecap:square;stroke-opacity:0.2;stroke-width:0.5;"/>
     </g>
     <g id="line2d_35">
      <g>
       <use style="fill-opacity:0.2;stroke:#000000;stroke-opacity:0.2;stroke-width:0.8;" x="340.237466" xlink:href="#m35bd7759b3" y="52.73565"/>
      </g>
     </g>
     <g id="text_19">
      <!-- $\mathdefault{0.5}$ -->
      <g transform="translate(307.302845 57.725414)scale(0.14 -0.14)">
       <use transform="scale(0.996264)" xlink:href="#URWPalladioL-Roma-30"/>
       <use transform="translate(49.8132 0)scale(0.996264)" xlink:href="#URWPalladioL-Roma-2e"/>
       <use transform="translate(74.719801 0)scale(0.996264)" xlink:href="#URWPalladioL-Roma-35"/>
      </g>
     </g>
    </g>
    <g id="ytick_9">
     <g id="line2d_36">
      <path clip-path="url(#p2a3a10d732)" d="M 340.237466 13.593712 
L 577.19952 13.593712 
" style="fill:none;stroke:#000000;stroke-linecap:square;stroke-opacity:0.2;stroke-width:0.5;"/>
     </g>
     <g id="line2d_37">
      <g>
       <use style="fill-opacity:0.2;stroke:#000000;stroke-opacity:0.2;stroke-width:0.8;" x="340.237466" xlink:href="#m35bd7759b3" y="13.593712"/>
      </g>
     </g>
     <g id="text_20">
      <!-- $\mathdefault{1.0}$ -->
      <g transform="translate(307.302845 18.583476)scale(0.14 -0.14)">
       <use transform="scale(0.996264)" xlink:href="#URWPalladioL-Roma-31"/>
       <use transform="translate(49.8132 0)scale(0.996264)" xlink:href="#URWPalladioL-Roma-2e"/>
       <use transform="translate(74.719801 0)scale(0.996264)" xlink:href="#URWPalladioL-Roma-30"/>
      </g>
     </g>
    </g>
   </g>
   <g id="line2d_38">
    <defs>
     <path d="M 0 2.5 
C 0.663008 2.5 1.29895 2.236584 1.767767 1.767767 
C 2.236584 1.29895 2.5 0.663008 2.5 0 
C 2.5 -0.663008 2.236584 -1.29895 1.767767 -1.767767 
C 1.29895 -2.236584 0.663008 -2.5 0 -2.5 
C -0.663008 -2.5 -1.29895 -2.236584 -1.767767 -1.767767 
C -2.236584 -1.29895 -2.5 -0.663008 -2.5 0 
C -2.5 0.663008 -2.236584 1.29895 -1.767767 1.767767 
C -1.29895 2.236584 -0.663008 2.5 0 2.5 
z
" id="m690a02df53"/>
    </defs>
    <g clip-path="url(#p2a3a10d732)">
     <use style="fill:#dc2830;" x="340.237466" xlink:href="#m690a02df53" y="13.593712"/>
     <use style="fill:#dc2830;" x="355.047594" xlink:href="#m690a02df53" y="22.310759"/>
     <use style="fill:#dc2830;" x="369.857722" xlink:href="#m690a02df53" y="44.693238"/>
     <use style="fill:#dc2830;" x="384.667851" xlink:href="#m690a02df53" y="71.336589"/>
     <use style="fill:#dc2830;" x="399.477979" xlink:href="#m690a02df53" y="91.877588"/>
     <use style="fill:#dc2830;" x="414.288108" xlink:href="#m690a02df53" y="99.940909"/>
     <use style="fill:#dc2830;" x="429.098236" xlink:href="#m690a02df53" y="95.76521"/>
     <use style="fill:#dc2830;" x="443.908364" xlink:href="#m690a02df53" y="85.258728"/>
     <use style="fill:#dc2830;" x="458.718493" xlink:href="#m690a02df53" y="76.220813"/>
     <use style="fill:#dc2830;" x="473.528621" xlink:href="#m690a02df53" y="73.970822"/>
     <use style="fill:#dc2830;" x="488.33875" xlink:href="#m690a02df53" y="78.818439"/>
     <use style="fill:#dc2830;" x="503.148878" xlink:href="#m690a02df53" y="86.625917"/>
     <use style="fill:#dc2830;" x="517.959006" xlink:href="#m690a02df53" y="91.877588"/>
     <use style="fill:#dc2830;" x="532.769135" xlink:href="#m690a02df53" y="91.263884"/>
     <use style="fill:#dc2830;" x="547.579263" xlink:href="#m690a02df53" y="85.606363"/>
     <use style="fill:#dc2830;" x="562.389392" xlink:href="#m690a02df53" y="79.058894"/>
     <use style="fill:#dc2830;" x="577.19952" xlink:href="#m690a02df53" y="76.220813"/>
    </g>
   </g>
   <g id="line2d_39">
    <defs>
     <path d="M 0 2.5 
C 0.663008 2.5 1.29895 2.236584 1.767767 1.767767 
C 2.236584 1.29895 2.5 0.663008 2.5 0 
C 2.5 -0.663008 2.236584 -1.29895 1.767767 -1.767767 
C 1.29895 -2.236584 0.663008 -2.5 0 -2.5 
C -0.663008 -2.5 -1.29895 -2.236584 -1.767767 -1.767767 
C -2.236584 -1.29895 -2.5 -0.663008 -2.5 0 
C -2.5 0.663008 -2.236584 1.29895 -1.767767 1.767767 
C -1.29895 2.236584 -0.663008 2.5 0 2.5 
z
" id="m6521f3441e"/>
    </defs>
    <g clip-path="url(#p2a3a10d732)">
     <use style="fill:#007d4d;" x="340.237466" xlink:href="#m6521f3441e" y="91.877588"/>
     <use style="fill:#007d4d;" x="355.047594" xlink:href="#m6521f3441e" y="120.693112"/>
     <use style="fill:#007d4d;" x="369.857722" xlink:href="#m6521f3441e" y="139.061938"/>
     <use style="fill:#007d4d;" x="384.667851" xlink:href="#m6521f3441e" y="141.467947"/>
     <use style="fill:#007d4d;" x="399.477979" xlink:href="#m6521f3441e" y="129.676387"/>
     <use style="fill:#007d4d;" x="414.288108" xlink:href="#m6521f3441e" y="111.344168"/>
     <use style="fill:#007d4d;" x="429.098236" xlink:href="#m6521f3441e" y="95.76521"/>
     <use style="fill:#007d4d;" x="443.908364" xlink:href="#m6521f3441e" y="89.135966"/>
     <use style="fill:#007d4d;" x="458.718493" xlink:href="#m6521f3441e" y="91.877588"/>
     <use style="fill:#007d4d;" x="473.528621" xlink:href="#m6521f3441e" y="99.294813"/>
     <use style="fill:#007d4d;" x="488.33875" xlink:href="#m6521f3441e" y="104.936737"/>
     <use style="fill:#007d4d;" x="503.148878" xlink:href="#m6521f3441e" y="104.556244"/>
     <use style="fill:#007d4d;" x="517.959006" xlink:href="#m6521f3441e" y="98.362836"/>
     <use style="fill:#007d4d;" x="532.769135" xlink:href="#m6521f3441e" y="90.395975"/>
     <use style="fill:#007d4d;" x="547.579263" xlink:href="#m6521f3441e" y="85.606363"/>
     <use style="fill:#007d4d;" x="562.389392" xlink:href="#m6521f3441e" y="86.567911"/>
     <use style="fill:#007d4d;" x="577.19952" xlink:href="#m6521f3441e" y="91.877588"/>
    </g>
   </g>
   <g id="line2d_40">
    <path clip-path="url(#p2a3a10d732)" d="M 340.237466 13.593712 
L 355.047594 13.593712 
L 355.047594 16.578995 
L 369.857722 16.578995 
L 369.857722 25.14884 
L 384.667851 25.14884 
L 384.667851 38.20137 
L 399.477979 38.20137 
L 399.477979 54.078789 
L 414.288108 54.078789 
L 414.288108 70.807113 
L 429.098236 70.807113 
L 429.098236 86.379659 
L 443.908364 86.379659 
L 443.908364 84.713385 
L 458.718493 84.713385 
L 458.718493 76.220813 
L 473.528621 76.220813 
L 473.528621 72.495444 
L 488.33875 72.495444 
L 488.33875 73.409162 
L 503.148878 73.409162 
L 503.148878 78.15431 
L 517.959006 78.15431 
L 517.959006 85.392339 
L 532.769135 85.392339 
L 532.769135 90.273901 
L 547.579263 90.273901 
L 547.579263 83.008737 
L 562.389392 83.008737 
L 562.389392 78.002734 
L 577.19952 78.002734 
L 577.19952 76.220813 
" style="fill:none;stroke:#343837;stroke-linecap:square;stroke-width:3;"/>
   </g>
   <g id="legend_2">
    <g id="patch_5">
     <path d="M 445.860147 61.54197 
L 567.39952 61.54197 
Q 570.19952 61.54197 570.19952 58.74197 
L 570.19952 17 
Q 570.19952 14.2 567.39952 14.2 
L 445.860147 14.2 
Q 443.060147 14.2 443.060147 17 
L 443.060147 58.74197 
Q 443.060147 61.54197 445.860147 61.54197 
z
" style="fill:#ffffff;opacity:0.95;stroke:#cccccc;stroke-linejoin:miter;stroke-width:0.5;"/>
    </g>
    <g id="line2d_41"/>
    <g id="line2d_42">
     <g>
      <use style="fill:#dc2830;" x="455.660147" xlink:href="#m690a02df53" y="25.537813"/>
     </g>
    </g>
    <g id="text_21">
     <!-- Re -->
     <g style="fill:#dc2830;" transform="translate(473.860147 30.437813)scale(0.14 -0.14)">
      <defs>
       <path d="M 1382 4147 
C 1600 4198 1792 4224 2010 4224 
C 2675 4224 3046 3915 3046 3367 
C 3046 2775 2579 2401 1837 2401 
C 1792 2401 1734 2401 1651 2407 
L 1613 2330 
C 1683 2246 1702 2221 1779 2137 
C 1869 2035 1888 2009 1946 1932 
L 3123 346 
C 3162 295 3200 243 3238 199 
C 3283 141 3322 83 3386 0 
C 3686 0 3750 0 3821 0 
C 3878 0 3878 0 4282 0 
L 4282 186 
C 4077 205 3974 244 3891 354 
L 2438 2259 
C 2797 2349 2963 2419 3174 2566 
C 3507 2803 3686 3123 3686 3495 
C 3686 4109 3238 4455 2445 4455 
L 2342 4455 
C 1510 4455 1510 4455 1293 4455 
C 1082 4455 1082 4455 186 4455 
L 186 4275 
L 448 4243 
C 742 4243 774 4184 774 3679 
L 774 769 
C 774 257 742 205 448 205 
L 141 205 
L 141 0 
C 518 0 742 0 1075 0 
C 1408 0 1638 0 2016 0 
L 2016 205 
L 1709 205 
C 1414 205 1382 256 1382 768 
z
" id="URWPalladioL-Roma-52" transform="scale(0.015625)"/>
      </defs>
      <use transform="scale(0.996264)" xlink:href="#URWPalladioL-Roma-52"/>
      <use transform="translate(66.549694 0)scale(0.996264)" xlink:href="#URWPalladioL-Roma-65"/>
     </g>
    </g>
    <g id="line2d_43"/>
    <g id="line2d_44">
     <g>
      <use style="fill:#007d4d;" x="455.660147" xlink:href="#m6521f3441e" y="47.108797"/>
     </g>
    </g>
    <g id="text_22">
     <!-- Im -->
     <g style="fill:#007d4d;" transform="translate(473.860147 52.008797)scale(0.14 -0.14)">
      <defs>
       <path d="M 1382 3663 
C 1382 4172 1414 4224 1709 4224 
L 2016 4224 
L 2016 4423 
C 1549 4423 1408 4423 1075 4423 
C 755 4423 602 4423 141 4423 
L 141 4224 
L 448 4224 
C 742 4224 774 4172 774 3663 
L 774 766 
C 774 256 742 205 448 205 
L 141 205 
L 141 0 
C 518 0 742 0 1075 0 
C 1408 0 1638 0 2016 0 
L 2016 205 
L 1709 205 
C 1414 205 1382 256 1382 766 
z
" id="URWPalladioL-Roma-49" transform="scale(0.015625)"/>
      </defs>
      <use transform="scale(0.996264)" xlink:href="#URWPalladioL-Roma-49"/>
      <use transform="translate(33.574079 0)scale(0.996264)" xlink:href="#URWPalladioL-Roma-6d"/>
     </g>
    </g>
    <g id="line2d_45">
     <path d="M 518.876262 25.537813 
L 532.876262 25.537813 
" style="fill:none;stroke:#343837;stroke-linecap:square;stroke-width:3;"/>
    </g>
    <g id="line2d_46"/>
    <g id="text_23">
     <!-- $|H|$ -->
     <g style="fill:#343837;" transform="translate(544.076262 30.437813)scale(0.14 -0.14)">
      <defs>
       <path d="M 1018 4570 
C 1018 4685 1018 4800 890 4800 
C 762 4800 762 4685 762 4570 
L 762 -1370 
C 762 -1485 762 -1600 890 -1600 
C 1018 -1600 1018 -1485 1018 -1370 
z
" id="CMSY10-6a" transform="scale(0.015625)"/>
       <path d="M 1414 2457 
L 1683 3912 
C 1728 4161 1773 4199 2010 4219 
L 2278 4238 
L 2298 4416 
L 2144 4416 
L 1568 4416 
C 1466 4416 1350 4416 1075 4416 
L 666 4416 
L 646 4238 
L 947 4238 
C 1101 4238 1171 4187 1171 4072 
C 1171 3983 1146 3784 1114 3587 
L 640 817 
C 531 229 525 223 269 197 
L 6 178 
L -19 0 
L 250 0 
C 557 0 704 0 826 0 
L 1446 0 
L 1613 0 
L 1632 179 
L 1318 179 
C 1146 192 1088 237 1088 372 
C 1088 429 1094 474 1114 596 
L 1382 2176 
L 1773 2176 
C 2170 2176 2438 2176 2560 2176 
C 2682 2176 2944 2176 3347 2176 
L 3738 2176 
L 3482 800 
C 3424 486 3379 308 3347 269 
C 3322 218 3251 192 3110 179 
L 2790 179 
L 2765 0 
L 3123 0 
C 3405 0 3597 0 3667 0 
C 3770 0 3968 0 4243 0 
L 4512 0 
L 4531 179 
L 4160 179 
C 3994 179 3930 230 3930 365 
C 3930 422 3936 479 3955 588 
L 4544 3912 
C 4589 4160 4627 4192 4870 4218 
L 5101 4237 
L 5120 4416 
L 5018 4416 
L 4435 4416 
C 4339 4416 4205 4416 3923 4416 
L 3520 4416 
L 3501 4238 
L 3808 4238 
C 3962 4238 4032 4186 4032 4070 
C 4032 3980 4006 3773 3974 3580 
L 3782 2457 
z
" id="URWPalladioL-Ital-48" transform="scale(0.015625)"/>
      </defs>
      <use transform="scale(1.038107)" xlink:href="#CMSY10-6a"/>
      <use transform="translate(35.068521 0)scale(0.996264)" xlink:href="#URWPalladioL-Ital-48"/>
      <use transform="translate(117.758403 0)scale(1.038107)" xlink:href="#CMSY10-6a"/>
     </g>
    </g>
   </g>
  </g>
 </g>
 <defs>
  <clipPath id="p04d90ffa16">
   <rect height="140.661659" width="236.962054" x="47.108468" y="7.2"/>
  </clipPath>
  <clipPath id="p2a3a10d732">
   <rect height="140.661659" width="236.962054" x="340.237466" y="7.2"/>
  </clipPath>
 </defs>
</svg>
