<?xml version="1.0" encoding="utf-8" standalone="no"?>
<!DOCTYPE svg PUBLIC "-//W3C//DTD SVG 1.1//EN"
  "http://www.w3.org/Graphics/SVG/1.1/DTD/svg11.dtd">
<svg height="200.39952pt" version="1.1" viewBox="0 0 584.39952 200.39952" width="584.39952pt" xmlns="http://www.w3.org/2000/svg" xmlns:xlink="http://www.w3.org/1999/xlink">
 <metadata>
  <rdf:RDF xmlns:cc="http://creativecommons.org/ns#" xmlns:dc="http://purl.org/dc/elements/1.1/" xmlns:rdf="http://www.w3.org/1999/02/22-rdf-syntax-ns#">
   <cc:Work>
    <dc:type rdf:resource="http://purl.org/dc/dcmitype/StillImage"/>
    <dc:date>2020-08-19T08:35:01.224793</dc:date>
    <dc:format>image/svg+xml</dc:format>
    <dc:creator>
     <cc:Agent>
      <dc:title>Matplotlib v3.3.0rc1.post717+g6a40954ae, https://matplotlib.org/</dc:title>
     </cc:Agent>
    </dc:creator>
   </cc:Work>
  </rdf:RDF>
 </metadata>
 <defs>
  <style type="text/css">*{stroke-linecap:butt;stroke-linejoin:round;}</style>
 </defs>
 <g id="figure_1">
  <g id="patch_1">
   <path d="M 0 200.39952 
L 584.39952 200.39952 
L 584.39952 0 
L 0 0 
z
" style="fill:none;"/>
  </g>
  <g id="axes_1">
   <g id="patch_2">
    <path d="M 29.673848 193.19952 
L 284.589798 193.19952 
L 284.589798 39.970985 
L 29.673848 39.970985 
z
" style="fill:none;"/>
   </g>
   <g id="line2d_1">
    <path clip-path="url(#p4b9e9febe8)" d="M 29.673848 161.691155 
L 31.665379 161.622041 
L 33.65691 161.414866 
L 35.648441 161.070129 
L 37.639971 160.58866 
L 39.631502 159.97162 
L 41.623033 159.220494 
L 43.614564 158.337093 
L 45.606095 157.323544 
L 49.589157 154.916078 
L 53.572218 152.021283 
L 57.55528 148.667035 
L 61.538342 144.88564 
L 65.521403 140.713512 
L 69.504465 136.190833 
L 73.487527 131.361159 
L 79.462119 123.643474 
L 85.436712 115.507355 
L 109.335082 82.356073 
L 113.318144 77.265915 
L 117.301206 72.43624 
L 121.284267 67.913561 
L 125.267329 63.741434 
L 129.250391 59.960038 
L 133.233453 56.605791 
L 137.216514 53.710995 
L 141.199576 51.303529 
L 143.191107 50.289981 
L 145.182638 49.406579 
L 147.174169 48.655454 
L 149.165699 48.038413 
L 151.15723 47.556944 
L 153.148761 47.212207 
L 155.140292 47.005032 
L 157.131823 46.935918 
L 159.123354 47.005032 
L 161.114885 47.212207 
L 163.106415 47.556944 
L 165.097946 48.038413 
L 167.089477 48.655454 
L 169.081008 49.406579 
L 171.072539 50.289981 
L 173.06407 51.303529 
L 177.047131 53.710995 
L 181.030193 56.605791 
L 185.013255 59.960038 
L 188.996317 63.741434 
L 192.979378 67.913561 
L 196.96244 72.43624 
L 200.945502 77.265915 
L 206.920094 84.983599 
L 212.894687 93.119719 
L 236.793057 126.271 
L 240.776119 131.361159 
L 244.759181 136.190833 
L 248.742242 140.713512 
L 252.725304 144.88564 
L 256.708366 148.667035 
L 260.691427 152.021283 
L 264.674489 154.916078 
L 268.657551 157.323544 
L 270.649082 158.337093 
L 272.640613 159.220494 
L 274.632143 159.97162 
L 276.623674 160.58866 
L 278.615205 161.070129 
L 280.606736 161.414866 
L 282.598267 161.622041 
L 284.589798 161.691155 
L 284.589798 161.691155 
" style="fill:none;stroke:#dc2830;stroke-linecap:square;stroke-opacity:0.5;stroke-width:3;"/>
   </g>
   <g id="matplotlib.axis_1"/>
   <g id="matplotlib.axis_2">
    <g id="ytick_1">
     <g id="line2d_2">
      <path clip-path="url(#p4b9e9febe8)" d="M 29.673848 161.691155 
L 284.589798 161.691155 
" style="fill:none;stroke:#000000;stroke-linecap:square;stroke-opacity:0.2;stroke-width:0.5;"/>
     </g>
     <g id="line2d_3">
      <defs>
       <path d="M 0 0 
L -3.5 0 
" id="m5d552b5f22" style="stroke:#000000;stroke-opacity:0.2;stroke-width:0.8;"/>
      </defs>
      <g>
       <use style="fill-opacity:0.2;stroke:#000000;stroke-opacity:0.2;stroke-width:0.8;" x="29.673848" xlink:href="#m5d552b5f22" y="161.691155"/>
      </g>
     </g>
     <g id="text_1">
      <!-- $\mathdefault{0}$ -->
      <g transform="translate(7.2 166.680919)scale(0.14 -0.14)">
       <defs>
        <path d="M 1683 4416 
C 691 4416 186 3628 186 2077 
C 186 1326 320 680 544 366 
C 768 51 1126 -128 1523 -128 
C 2490 -128 2976 705 2976 2346 
C 2976 3749 2560 4416 1683 4416 
z
M 1568 4192 
C 2189 4192 2438 3564 2438 2025 
C 2438 661 2195 96 1606 96 
C 986 96 723 744 723 2308 
C 723 3660 960 4192 1568 4192 
z
" id="URWPalladioL-Roma-30" transform="scale(0.015625)"/>
       </defs>
       <use transform="scale(0.996264)" xlink:href="#URWPalladioL-Roma-30"/>
      </g>
     </g>
    </g>
   </g>
   <g id="line2d_4">
    <path clip-path="url(#p4b9e9febe8)" d="M 29.673848 161.691155 
L 29.673848 163.46621 
L 31.665379 163.46621 
L 31.665379 165.023929 
L 33.65691 165.023929 
L 33.65691 166.11702 
L 35.648441 166.11702 
L 35.648441 166.561518 
L 37.639971 166.561518 
L 37.639971 166.267049 
L 39.631502 166.267049 
L 39.631502 165.253776 
L 41.623033 165.253776 
L 41.623033 163.653057 
L 43.614564 163.653057 
L 43.614564 161.691155 
L 45.606095 161.691155 
L 45.606095 159.65791 
L 47.597626 159.65791 
L 47.597626 157.864636 
L 49.589157 157.864636 
L 49.589157 156.597235 
L 51.580687 156.597235 
L 51.580687 156.071505 
L 53.572218 156.071505 
L 53.572218 156.397473 
L 55.563749 156.397473 
L 55.563749 157.558514 
L 57.55528 157.558514 
L 57.55528 159.408942 
L 59.546811 159.408942 
L 59.546811 161.691155 
L 61.538342 161.691155 
L 61.538342 164.070483 
L 63.529873 164.070483 
L 63.529873 166.183155 
L 65.521403 166.183155 
L 65.521403 167.69066 
L 67.512934 167.69066 
L 67.512934 168.33256 
L 69.504465 168.33256 
L 69.504465 167.969707 
L 71.495996 167.969707 
L 71.495996 166.610965 
L 73.487527 166.610965 
L 73.487527 164.418678 
L 75.479058 164.418678 
L 75.479058 161.691155 
L 77.470589 161.691155 
L 77.470589 158.823759 
L 79.462119 158.823759 
L 79.462119 156.25347 
L 81.45365 156.25347 
L 81.45365 154.394459 
L 83.445181 154.394459 
L 83.445181 153.573882 
L 85.436712 153.573882 
L 85.436712 153.977505 
L 87.428243 153.977505 
L 87.428243 155.613742 
L 89.419774 155.613742 
L 89.419774 158.302414 
L 91.411305 158.302414 
L 91.411305 161.691155 
L 93.402835 161.691155 
L 93.402835 165.298524 
L 95.394366 165.298524 
L 95.394366 168.578889 
L 97.385897 168.578889 
L 97.385897 171.000732 
L 99.377428 171.000732 
L 99.377428 172.127648 
L 101.368959 172.127648 
L 101.368959 171.690331 
L 103.36049 171.690331 
L 103.36049 169.63854 
L 105.352021 169.63854 
L 105.352021 166.164293 
L 107.343551 166.164293 
L 107.343551 161.691155 
L 109.335082 161.691155 
L 109.335082 156.829048 
L 111.326613 156.829048 
L 111.326613 152.29879 
L 113.318144 152.29879 
L 113.318144 148.835072 
L 115.309675 148.835072 
L 115.309675 147.080064 
L 117.301206 147.080064 
L 117.301206 147.4818 
L 119.292737 147.4818 
L 119.292737 150.211598 
L 121.284267 150.211598 
L 121.284267 155.113011 
L 123.275798 155.113011 
L 123.275798 161.691155 
L 125.267329 161.691155 
L 125.267329 169.146385 
L 127.25886 169.146385 
L 127.25886 176.450585 
L 129.250391 176.450585 
L 129.250391 182.458674 
L 131.241922 182.458674 
L 131.241922 186.042972 
L 133.233453 186.042972 
L 133.233453 186.234587 
L 135.224983 186.234587 
L 135.224983 182.354357 
L 137.216514 182.354357 
L 137.216514 174.116538 
L 139.208045 174.116538 
L 139.208045 161.691155 
L 141.199576 161.691155 
L 141.199576 145.715663 
L 143.191107 145.715663 
L 143.191107 127.252484 
L 145.182638 127.252484 
L 145.182638 107.695605 
L 147.174169 107.695605 
L 147.174169 88.635702 
L 149.165699 88.635702 
L 149.165699 71.698572 
L 151.15723 71.698572 
L 151.15723 58.375143 
L 153.148761 58.375143 
L 153.148761 49.862709 
L 155.140292 49.862709 
L 155.140292 46.935918 
L 157.131823 46.935918 
L 157.131823 49.862709 
L 159.123354 49.862709 
L 159.123354 58.375143 
L 161.114885 58.375143 
L 161.114885 71.698572 
L 163.106415 71.698572 
L 163.106415 88.635702 
L 165.097946 88.635702 
L 165.097946 107.695605 
L 167.089477 107.695605 
L 167.089477 127.252484 
L 169.081008 127.252484 
L 169.081008 145.715663 
L 171.072539 145.715663 
L 171.072539 161.691155 
L 173.06407 161.691155 
L 173.06407 174.116538 
L 175.055601 174.116538 
L 175.055601 182.354357 
L 177.047131 182.354357 
L 177.047131 186.234587 
L 179.038662 186.234587 
L 179.038662 186.042972 
L 181.030193 186.042972 
L 181.030193 182.458674 
L 183.021724 182.458674 
L 183.021724 176.450585 
L 185.013255 176.450585 
L 185.013255 169.146385 
L 187.004786 169.146385 
L 187.004786 161.691155 
L 188.996317 161.691155 
L 188.996317 155.113011 
L 190.987847 155.113011 
L 190.987847 150.211598 
L 192.979378 150.211598 
L 192.979378 147.4818 
L 194.970909 147.4818 
L 194.970909 147.080064 
L 196.96244 147.080064 
L 196.96244 148.835072 
L 198.953971 148.835072 
L 198.953971 152.29879 
L 200.945502 152.29879 
L 200.945502 156.829048 
L 202.937033 156.829048 
L 202.937033 161.691155 
L 204.928563 161.691155 
L 204.928563 166.164293 
L 206.920094 166.164293 
L 206.920094 169.63854 
L 208.911625 169.63854 
L 208.911625 171.690331 
L 210.903156 171.690331 
L 210.903156 172.127648 
L 212.894687 172.127648 
L 212.894687 171.000732 
L 214.886218 171.000732 
L 214.886218 168.578889 
L 216.877749 168.578889 
L 216.877749 165.298524 
L 218.869279 165.298524 
L 218.869279 161.691155 
L 220.86081 161.691155 
L 220.86081 158.302414 
L 222.852341 158.302414 
L 222.852341 155.613742 
L 224.843872 155.613742 
L 224.843872 153.977505 
L 226.835403 153.977505 
L 226.835403 153.573882 
L 228.826934 153.573882 
L 228.826934 154.394459 
L 230.818465 154.394459 
L 230.818465 156.25347 
L 232.809995 156.25347 
L 232.809995 158.823759 
L 234.801526 158.823759 
L 234.801526 161.691155 
L 236.793057 161.691155 
L 236.793057 164.418678 
L 238.784588 164.418678 
L 238.784588 166.610965 
L 240.776119 166.610965 
L 240.776119 167.969707 
L 242.76765 167.969707 
L 242.76765 168.33256 
L 244.759181 168.33256 
L 244.759181 167.69066 
L 246.750711 167.69066 
L 246.750711 166.183155 
L 248.742242 166.183155 
L 248.742242 164.070483 
L 250.733773 164.070483 
L 250.733773 161.691155 
L 252.725304 161.691155 
L 252.725304 159.408942 
L 254.716835 159.408942 
L 254.716835 157.558514 
L 256.708366 157.558514 
L 256.708366 156.397473 
L 258.699897 156.397473 
L 258.699897 156.071505 
L 260.691427 156.071505 
L 260.691427 156.597235 
L 262.682958 156.597235 
L 262.682958 157.864636 
L 264.674489 157.864636 
L 264.674489 159.65791 
L 266.66602 159.65791 
L 266.66602 161.691155 
L 268.657551 161.691155 
L 268.657551 163.653057 
L 270.649082 163.653057 
L 270.649082 165.253776 
L 272.640613 165.253776 
L 272.640613 166.267049 
L 274.632143 166.267049 
L 274.632143 166.561518 
L 276.623674 166.561518 
L 276.623674 166.11702 
L 278.615205 166.11702 
L 278.615205 165.023929 
L 280.606736 165.023929 
L 280.606736 163.46621 
L 282.598267 163.46621 
L 282.598267 161.691155 
L 284.589798 161.691155 
L 284.589798 161.691155 
" style="fill:none;stroke:#0271ae;stroke-linecap:square;stroke-width:3;"/>
   </g>
   <g id="legend_1">
    <g id="patch_3">
     <path d="M 41.787688 32.970985 
L 274.789798 32.970985 
Q 277.589798 32.970985 277.589798 30.170985 
L 277.589798 10 
Q 277.589798 7.2 274.789798 7.2 
L 41.787688 7.2 
Q 38.987688 7.2 38.987688 10 
L 38.987688 30.170985 
Q 38.987688 32.970985 41.787688 32.970985 
z
" style="fill:#ffffff;opacity:0.95;stroke:#cccccc;stroke-linejoin:miter;stroke-width:0.5;"/>
    </g>
    <g id="line2d_5">
     <path d="M 44.587688 18.537813 
L 58.587688 18.537813 
" style="fill:none;stroke:#0271ae;stroke-linecap:square;stroke-width:3;"/>
    </g>
    <g id="line2d_6"/>
    <g id="text_2">
     <!-- Ideal LPF -->
     <g style="fill:#0271ae;" transform="translate(69.787688 23.437813)scale(0.14 -0.14)">
      <defs>
       <path d="M 1382 3663 
C 1382 4172 1414 4224 1709 4224 
L 2016 4224 
L 2016 4423 
C 1549 4423 1408 4423 1075 4423 
C 755 4423 602 4423 141 4423 
L 141 4224 
L 448 4224 
C 742 4224 774 4172 774 3663 
L 774 766 
C 774 256 742 205 448 205 
L 141 205 
L 141 0 
C 518 0 742 0 1075 0 
C 1408 0 1638 0 2016 0 
L 2016 205 
L 1709 205 
C 1414 205 1382 256 1382 766 
z
" id="URWPalladioL-Roma-49" transform="scale(0.015625)"/>
       <path d="M 2637 2802 
C 2278 2956 2099 3008 1875 3008 
C 1702 3008 1549 2969 1389 2887 
L 826 2593 
C 461 2401 224 1935 224 1392 
C 224 881 397 460 710 204 
C 928 19 1229 -64 1645 -64 
C 1773 -64 1920 -38 1952 -13 
L 2662 583 
L 2630 -7 
C 2944 -7 3046 -7 3123 -7 
C 3174 -7 3264 -7 3398 -7 
C 3443 -7 3571 -7 3706 -7 
L 3706 192 
L 3411 192 
C 3194 192 3174 237 3174 643 
L 3174 4607 
L 3117 4659 
C 2835 4550 2624 4498 2118 4421 
L 2118 4242 
L 2477 4242 
C 2592 4242 2637 4171 2637 3978 
z
M 2637 1424 
C 2637 1009 2624 946 2541 799 
C 2362 499 2048 302 1747 302 
C 1184 302 781 844 781 1603 
C 781 2298 1126 2706 1702 2706 
C 1946 2706 2202 2623 2426 2470 
C 2560 2381 2637 2298 2637 2246 
z
" id="URWPalladioL-Roma-64" transform="scale(0.015625)"/>
       <path d="M 2797 447 
L 2714 511 
C 2304 269 2157 212 1882 212 
C 1466 212 1120 398 941 711 
C 819 921 774 1101 762 1472 
L 1696 1472 
C 2138 1472 2413 1472 2854 1544 
C 2861 1634 2867 1693 2867 1771 
C 2867 2520 2394 3008 1677 3008 
C 1440 3008 1165 2924 902 2770 
C 378 2469 166 2071 166 1404 
C 166 1000 262 654 435 410 
C 691 71 1120 -128 1600 -128 
C 1837 -128 2074 -77 2336 37 
C 2509 108 2643 191 2669 230 
z
M 2298 1690 
C 1965 1690 1811 1690 1581 1690 
C 1286 1690 1120 1690 774 1722 
C 774 2027 800 2169 883 2337 
C 1018 2622 1293 2796 1600 2796 
C 1811 2796 1978 2711 2093 2534 
C 2234 2319 2278 2129 2298 1690 
z
" id="URWPalladioL-Roma-65" transform="scale(0.015625)"/>
       <path d="M 2074 538 
L 2042 -1 
C 2458 -1 2458 -1 2541 -1 
C 2573 -1 2733 -1 3014 -1 
L 3014 192 
L 2765 192 
C 2611 192 2586 244 2586 558 
L 2586 1731 
C 2586 2668 2317 3008 1574 3008 
C 1299 3008 1043 2937 800 2791 
L 461 2585 
L 461 2171 
L 627 2126 
L 710 2323 
C 845 2623 909 2668 1203 2668 
C 1805 2668 2054 2431 2074 1852 
L 1440 1736 
C 570 1577 205 1277 205 722 
C 205 224 506 -64 1011 -64 
C 1126 -64 1235 -45 1280 -13 
z
M 2074 806 
C 1888 544 1485 302 1235 302 
C 979 302 755 538 755 812 
C 755 1048 883 1271 1075 1392 
C 1235 1488 1587 1577 2074 1648 
z
" id="URWPalladioL-Roma-61" transform="scale(0.015625)"/>
       <path d="M 147 4256 
L 506 4256 
C 621 4256 666 4185 666 3992 
L 666 651 
C 666 244 646 199 429 199 
L 134 199 
L 134 0 
C 774 0 774 0 934 0 
C 1094 0 1094 0 1734 0 
L 1734 199 
L 1440 199 
C 1222 199 1203 244 1203 650 
L 1203 4621 
L 1146 4673 
C 864 4564 653 4512 147 4435 
z
" id="URWPalladioL-Roma-6c" transform="scale(0.015625)"/>
       <path d="M 1382 3665 
C 1382 4172 1414 4224 1709 4224 
L 2016 4224 
L 2016 4423 
C 1549 4423 1408 4423 1075 4423 
C 755 4423 602 4423 141 4423 
L 141 4224 
L 448 4224 
C 742 4224 774 4172 774 3665 
L 774 622 
C 774 436 717 295 614 244 
L 416 141 
L 416 0 
C 838 0 883 0 1050 0 
C 1107 0 1210 0 1350 0 
C 1664 0 2362 0 2541 0 
C 2746 0 2746 0 3616 0 
C 3661 279 3686 485 3750 1113 
L 3546 1113 
L 3469 793 
C 3462 774 3456 729 3450 723 
C 3411 538 3366 410 3328 379 
C 3245 308 2688 263 1926 263 
C 1696 263 1549 276 1382 314 
z
" id="URWPalladioL-Roma-4c" transform="scale(0.015625)"/>
       <path d="M 1382 4116 
C 1606 4166 1792 4192 2010 4192 
C 2701 4192 3072 3875 3072 3273 
C 3072 2703 2682 2304 2125 2304 
C 1990 2304 1894 2317 1728 2367 
L 1792 2137 
C 1946 2105 2035 2099 2163 2099 
C 3040 2099 3712 2692 3712 3459 
C 3712 4071 3213 4448 2400 4448 
C 2368 4448 2304 4448 2221 4423 
C 1984 4423 1498 4423 1312 4423 
C 1171 4423 1171 4423 147 4423 
L 147 4224 
L 435 4224 
C 723 4224 774 4140 774 3663 
L 774 766 
C 774 256 742 205 448 205 
L 141 205 
L 141 0 
C 518 0 742 0 1075 0 
C 1408 0 1638 0 2016 0 
L 2016 205 
L 1709 205 
C 1414 205 1382 256 1382 764 
z
" id="URWPalladioL-Roma-50" transform="scale(0.015625)"/>
       <path d="M 1382 2100 
C 1562 2112 1754 2112 2042 2112 
C 2515 2112 2688 2094 2803 2040 
L 2854 1890 
L 2886 1536 
L 3078 1536 
C 3059 2132 3059 2132 3059 2247 
C 3059 2350 3059 2350 3078 2991 
L 2886 2991 
L 2854 2642 
C 2848 2581 2829 2521 2803 2467 
C 2688 2414 2509 2394 2086 2394 
C 1818 2394 1600 2394 1382 2394 
L 1382 4117 
C 1574 4160 1690 4160 2067 4160 
C 2374 4160 2733 4124 2931 4076 
C 3085 4039 3104 4008 3104 3868 
L 3104 3465 
L 3328 3465 
C 3328 3843 3360 4146 3430 4423 
C 3117 4423 2925 4423 2650 4423 
L 1965 4423 
C 1651 4423 1427 4423 1267 4423 
C 1082 4423 1082 4423 141 4423 
L 141 4224 
L 448 4224 
C 742 4224 774 4172 774 3663 
L 774 766 
C 774 256 742 205 448 205 
L 141 205 
L 141 0 
C 518 0 742 0 1075 0 
C 1408 0 1638 0 2016 0 
L 2016 205 
L 1709 205 
C 1414 205 1382 256 1382 766 
z
" id="URWPalladioL-Roma-46" transform="scale(0.015625)"/>
      </defs>
      <use transform="scale(0.996264)" xlink:href="#URWPalladioL-Roma-49"/>
      <use transform="translate(33.574079 0)scale(0.996264)" xlink:href="#URWPalladioL-Roma-64"/>
      <use transform="translate(94.44571 0)scale(0.996264)" xlink:href="#URWPalladioL-Roma-65"/>
      <use transform="translate(142.166005 0)scale(0.996264)" xlink:href="#URWPalladioL-Roma-61"/>
      <use transform="translate(191.979205 0)scale(0.996264)" xlink:href="#URWPalladioL-Roma-6c"/>
      <use transform="translate(245.876167 0)scale(0.996264)" xlink:href="#URWPalladioL-Roma-4c"/>
      <use transform="translate(306.747798 0)scale(0.996264)" xlink:href="#URWPalladioL-Roma-50"/>
      <use transform="translate(366.921393 0)scale(0.996264)" xlink:href="#URWPalladioL-Roma-46"/>
     </g>
    </g>
    <g id="line2d_7">
     <path d="M 156.911479 18.537813 
L 170.911479 18.537813 
" style="fill:none;stroke:#dc2830;stroke-linecap:square;stroke-opacity:0.5;stroke-width:3;"/>
    </g>
    <g id="line2d_8"/>
    <g id="text_3">
     <!-- Hann window -->
     <g style="fill:#dc2830;" transform="translate(182.111479 23.437813)scale(0.14 -0.14)">
      <defs>
       <path d="M 3942 773 
C 3942 257 3910 205 3616 205 
L 3309 205 
L 3309 0 
C 3686 0 3910 0 4243 0 
C 4576 0 4806 0 5184 0 
L 5184 205 
L 4877 205 
C 4582 205 4550 256 4550 766 
L 4550 3663 
C 4550 4172 4582 4224 4877 4224 
L 5184 4224 
L 5184 4423 
C 4717 4423 4576 4423 4243 4423 
C 3923 4423 3770 4423 3309 4423 
L 3309 4224 
L 3616 4224 
C 3910 4224 3942 4172 3942 3668 
L 3942 2529 
C 3808 2529 3674 2529 3411 2529 
L 1914 2529 
C 1651 2529 1510 2529 1382 2529 
L 1382 3668 
C 1382 4172 1414 4224 1709 4224 
L 2016 4224 
L 2016 4423 
C 1549 4423 1408 4423 1075 4423 
C 755 4423 602 4423 141 4423 
L 141 4224 
L 448 4224 
C 742 4224 774 4172 774 3663 
L 774 766 
C 774 256 742 205 448 205 
L 141 205 
L 141 0 
C 518 0 742 0 1075 0 
C 1408 0 1638 0 2016 0 
L 2016 205 
L 1709 205 
C 1414 205 1382 257 1382 773 
L 1382 2227 
C 1555 2240 1658 2240 1914 2240 
L 3411 2240 
C 3667 2240 3770 2240 3942 2227 
z
" id="URWPalladioL-Roma-48" transform="scale(0.015625)"/>
       <path d="M 2624 -7 
C 3014 -7 3021 -7 3130 -7 
C 3219 -7 3219 -7 3661 -7 
L 3661 179 
L 3398 205 
C 3181 205 3162 244 3162 654 
L 3162 1892 
C 3162 2642 2810 3008 2093 3008 
C 1856 3008 1722 2963 1587 2847 
L 1101 2424 
L 1101 2982 
L 1043 3008 
C 717 2873 384 2783 45 2745 
L 45 2565 
L 282 2565 
C 538 2565 563 2520 563 2094 
L 563 643 
C 563 237 544 192 326 192 
L 38 192 
L 38 -7 
C 474 -7 646 -7 832 -7 
C 1018 -7 1190 -7 1626 -7 
L 1626 192 
L 1338 192 
C 1120 192 1101 237 1101 643 
L 1101 2011 
C 1101 2300 1523 2616 1914 2616 
C 2342 2616 2624 2297 2624 1806 
z
" id="URWPalladioL-Roma-6e" transform="scale(0.015625)"/>
       <path d="M 2643 3008 
C 2118 1788 2022 1571 1626 677 
L 1088 2444 
C 1069 2502 1062 2553 1062 2604 
C 1062 2700 1146 2752 1306 2752 
L 1562 2752 
L 1562 2932 
C 928 2932 928 2932 800 2932 
C 672 2932 672 2932 38 2932 
L 38 2765 
L 218 2752 
C 397 2739 480 2612 640 2114 
L 1293 -32 
L 1594 -32 
L 2221 1437 
C 2253 1514 2323 1667 2426 1884 
L 2554 2152 
L 3424 -32 
L 3718 -32 
C 3763 102 3814 249 3866 389 
C 3994 767 4134 1162 4160 1201 
L 4595 2196 
C 4787 2625 4864 2733 5005 2752 
L 5171 2765 
L 5171 2932 
C 4646 2932 4646 2932 4544 2932 
C 4442 2932 4442 2932 3917 2932 
L 3917 2752 
L 4134 2752 
C 4294 2752 4384 2675 4384 2559 
C 4384 2489 4371 2412 4339 2329 
L 4019 1433 
C 3968 1292 3917 1163 3712 638 
L 2976 2490 
C 2886 2707 2842 2835 2790 3008 
z
" id="URWPalladioL-Roma-77" transform="scale(0.015625)"/>
       <path d="M 1203 2993 
L 1146 3019 
C 819 2884 486 2793 147 2755 
L 147 2576 
L 384 2576 
C 640 2576 666 2531 666 2105 
L 666 651 
C 666 244 646 199 429 199 
L 134 199 
L 134 0 
C 774 0 774 0 934 0 
C 1094 0 1094 0 1734 0 
L 1734 199 
L 1440 199 
C 1222 199 1203 244 1203 651 
z
M 909 4416 
C 717 4416 550 4249 550 4056 
C 550 3870 717 3704 902 3704 
C 1088 3704 1261 3870 1261 4056 
C 1261 4236 1088 4416 909 4416 
z
" id="URWPalladioL-Roma-69" transform="scale(0.015625)"/>
       <path d="M 1786 3008 
C 851 3008 205 2347 205 1392 
C 205 487 774 -128 1600 -128 
C 2586 -128 3290 558 3290 1520 
C 3290 2386 2662 3008 1786 3008 
z
M 1670 2796 
C 2259 2796 2694 2155 2694 1283 
C 2694 545 2368 83 1850 83 
C 1222 83 800 699 800 1610 
C 800 2379 1107 2796 1670 2796 
z
" id="URWPalladioL-Roma-6f" transform="scale(0.015625)"/>
      </defs>
      <use transform="scale(0.996264)" xlink:href="#URWPalladioL-Roma-48"/>
      <use transform="translate(82.888661 0)scale(0.996264)" xlink:href="#URWPalladioL-Roma-61"/>
      <use transform="translate(132.701861 0)scale(0.996264)" xlink:href="#URWPalladioL-Roma-6e"/>
      <use transform="translate(190.683922 0)scale(0.996264)" xlink:href="#URWPalladioL-Roma-6e"/>
      <use transform="translate(273.572583 0)scale(0.996264)" xlink:href="#URWPalladioL-Roma-77"/>
      <use transform="translate(356.660676 0)scale(0.996264)" xlink:href="#URWPalladioL-Roma-69"/>
      <use transform="translate(385.651038 0)scale(0.996264)" xlink:href="#URWPalladioL-Roma-6e"/>
      <use transform="translate(443.633098 0)scale(0.996264)" xlink:href="#URWPalladioL-Roma-64"/>
      <use transform="translate(504.504729 0)scale(0.996264)" xlink:href="#URWPalladioL-Roma-6f"/>
      <use transform="translate(558.900309 0)scale(0.996264)" xlink:href="#URWPalladioL-Roma-77"/>
     </g>
    </g>
   </g>
  </g>
  <g id="axes_2">
   <g id="patch_4">
    <path d="M 322.28357 193.19952 
L 577.19952 193.19952 
L 577.19952 39.970985 
L 322.28357 39.970985 
z
" style="fill:none;"/>
   </g>
   <g id="line2d_9">
    <path clip-path="url(#p4f53c99ef0)" d="M 322.28357 161.691155 
L 322.28357 163.46621 
L 324.275101 163.46621 
L 324.275101 165.023929 
L 326.266632 165.023929 
L 326.266632 166.11702 
L 328.258163 166.11702 
L 328.258163 166.561518 
L 330.249694 166.561518 
L 330.249694 166.267049 
L 332.241225 166.267049 
L 332.241225 165.253776 
L 334.232756 165.253776 
L 334.232756 163.653057 
L 336.224286 163.653057 
L 336.224286 161.691155 
L 338.215817 161.691155 
L 338.215817 159.65791 
L 340.207348 159.65791 
L 340.207348 157.864636 
L 342.198879 157.864636 
L 342.198879 156.597235 
L 344.19041 156.597235 
L 344.19041 156.071505 
L 346.181941 156.071505 
L 346.181941 156.397473 
L 348.173472 156.397473 
L 348.173472 157.558514 
L 350.165002 157.558514 
L 350.165002 159.408942 
L 352.156533 159.408942 
L 352.156533 161.691155 
L 354.148064 161.691155 
L 354.148064 164.070483 
L 356.139595 164.070483 
L 356.139595 166.183155 
L 358.131126 166.183155 
L 358.131126 167.69066 
L 360.122657 167.69066 
L 360.122657 168.33256 
L 362.114188 168.33256 
L 362.114188 167.969707 
L 364.105718 167.969707 
L 364.105718 166.610965 
L 366.097249 166.610965 
L 366.097249 164.418678 
L 368.08878 164.418678 
L 368.08878 161.691155 
L 370.080311 161.691155 
L 370.080311 158.823759 
L 372.071842 158.823759 
L 372.071842 156.25347 
L 374.063373 156.25347 
L 374.063373 154.394459 
L 376.054904 154.394459 
L 376.054904 153.573882 
L 378.046434 153.573882 
L 378.046434 153.977505 
L 380.037965 153.977505 
L 380.037965 155.613742 
L 382.029496 155.613742 
L 382.029496 158.302414 
L 384.021027 158.302414 
L 384.021027 161.691155 
L 386.012558 161.691155 
L 386.012558 165.298524 
L 388.004089 165.298524 
L 388.004089 168.578889 
L 389.995619 168.578889 
L 389.995619 171.000732 
L 391.98715 171.000732 
L 391.98715 172.127648 
L 393.978681 172.127648 
L 393.978681 171.690331 
L 395.970212 171.690331 
L 395.970212 169.63854 
L 397.961743 169.63854 
L 397.961743 166.164293 
L 399.953274 166.164293 
L 399.953274 161.691155 
L 401.944805 161.691155 
L 401.944805 156.829048 
L 403.936335 156.829048 
L 403.936335 152.29879 
L 405.927866 152.29879 
L 405.927866 148.835072 
L 407.919397 148.835072 
L 407.919397 147.080064 
L 409.910928 147.080064 
L 409.910928 147.4818 
L 411.902459 147.4818 
L 411.902459 150.211598 
L 413.89399 150.211598 
L 413.89399 155.113011 
L 415.885521 155.113011 
L 415.885521 161.691155 
L 417.877051 161.691155 
L 417.877051 169.146385 
L 419.868582 169.146385 
L 419.868582 176.450585 
L 421.860113 176.450585 
L 421.860113 182.458674 
L 423.851644 182.458674 
L 423.851644 186.042972 
L 425.843175 186.042972 
L 425.843175 186.234587 
L 427.834706 186.234587 
L 427.834706 182.354357 
L 429.826237 182.354357 
L 429.826237 174.116538 
L 431.817767 174.116538 
L 431.817767 161.691155 
L 433.809298 161.691155 
L 433.809298 145.715663 
L 435.800829 145.715663 
L 435.800829 127.252484 
L 437.79236 127.252484 
L 437.79236 107.695605 
L 439.783891 107.695605 
L 439.783891 88.635702 
L 441.775422 88.635702 
L 441.775422 71.698572 
L 443.766953 71.698572 
L 443.766953 58.375143 
L 445.758483 58.375143 
L 445.758483 49.862709 
L 447.750014 49.862709 
L 447.750014 46.935918 
L 449.741545 46.935918 
L 449.741545 49.862709 
L 451.733076 49.862709 
L 451.733076 58.375143 
L 453.724607 58.375143 
L 453.724607 71.698572 
L 455.716138 71.698572 
L 455.716138 88.635702 
L 457.707669 88.635702 
L 457.707669 107.695605 
L 459.699199 107.695605 
L 459.699199 127.252484 
L 461.69073 127.252484 
L 461.69073 145.715663 
L 463.682261 145.715663 
L 463.682261 161.691155 
L 465.673792 161.691155 
L 465.673792 174.116538 
L 467.665323 174.116538 
L 467.665323 182.354357 
L 469.656854 182.354357 
L 469.656854 186.234587 
L 471.648385 186.234587 
L 471.648385 186.042972 
L 473.639915 186.042972 
L 473.639915 182.458674 
L 475.631446 182.458674 
L 475.631446 176.450585 
L 477.622977 176.450585 
L 477.622977 169.146385 
L 479.614508 169.146385 
L 479.614508 161.691155 
L 481.606039 161.691155 
L 481.606039 155.113011 
L 483.59757 155.113011 
L 483.59757 150.211598 
L 485.589101 150.211598 
L 485.589101 147.4818 
L 487.580631 147.4818 
L 487.580631 147.080064 
L 489.572162 147.080064 
L 489.572162 148.835072 
L 491.563693 148.835072 
L 491.563693 152.29879 
L 493.555224 152.29879 
L 493.555224 156.829048 
L 495.546755 156.829048 
L 495.546755 161.691155 
L 497.538286 161.691155 
L 497.538286 166.164293 
L 499.529817 166.164293 
L 499.529817 169.63854 
L 501.521347 169.63854 
L 501.521347 171.690331 
L 503.512878 171.690331 
L 503.512878 172.127648 
L 505.504409 172.127648 
L 505.504409 171.000732 
L 507.49594 171.000732 
L 507.49594 168.578889 
L 509.487471 168.578889 
L 509.487471 165.298524 
L 511.479002 165.298524 
L 511.479002 161.691155 
L 513.470533 161.691155 
L 513.470533 158.302414 
L 515.462063 158.302414 
L 515.462063 155.613742 
L 517.453594 155.613742 
L 517.453594 153.977505 
L 519.445125 153.977505 
L 519.445125 153.573882 
L 521.436656 153.573882 
L 521.436656 154.394459 
L 523.428187 154.394459 
L 523.428187 156.25347 
L 525.419718 156.25347 
L 525.419718 158.823759 
L 527.411249 158.823759 
L 527.411249 161.691155 
L 529.402779 161.691155 
L 529.402779 164.418678 
L 531.39431 164.418678 
L 531.39431 166.610965 
L 533.385841 166.610965 
L 533.385841 167.969707 
L 535.377372 167.969707 
L 535.377372 168.33256 
L 537.368903 168.33256 
L 537.368903 167.69066 
L 539.360434 167.69066 
L 539.360434 166.183155 
L 541.351965 166.183155 
L 541.351965 164.070483 
L 543.343495 164.070483 
L 543.343495 161.691155 
L 545.335026 161.691155 
L 545.335026 159.408942 
L 547.326557 159.408942 
L 547.326557 157.558514 
L 549.318088 157.558514 
L 549.318088 156.397473 
L 551.309619 156.397473 
L 551.309619 156.071505 
L 553.30115 156.071505 
L 553.30115 156.597235 
L 555.292681 156.597235 
L 555.292681 157.864636 
L 557.284211 157.864636 
L 557.284211 159.65791 
L 559.275742 159.65791 
L 559.275742 161.691155 
L 561.267273 161.691155 
L 561.267273 163.653057 
L 563.258804 163.653057 
L 563.258804 165.253776 
L 565.250335 165.253776 
L 565.250335 166.267049 
L 567.241866 166.267049 
L 567.241866 166.561518 
L 569.233397 166.561518 
L 569.233397 166.11702 
L 571.224927 166.11702 
L 571.224927 165.023929 
L 573.216458 165.023929 
L 573.216458 163.46621 
L 575.207989 163.46621 
L 575.207989 161.691155 
L 577.19952 161.691155 
L 577.19952 161.691155 
" style="fill:none;stroke:#0271ae;stroke-linecap:square;stroke-opacity:0.5;stroke-width:2;"/>
   </g>
   <g id="matplotlib.axis_3"/>
   <g id="matplotlib.axis_4">
    <g id="ytick_2">
     <g id="line2d_10">
      <path clip-path="url(#p4f53c99ef0)" d="M 322.28357 161.691155 
L 577.19952 161.691155 
" style="fill:none;stroke:#000000;stroke-linecap:square;stroke-opacity:0.2;stroke-width:0.5;"/>
     </g>
     <g id="line2d_11">
      <g>
       <use style="fill-opacity:0.2;stroke:#000000;stroke-opacity:0.2;stroke-width:0.8;" x="322.28357" xlink:href="#m5d552b5f22" y="161.691155"/>
      </g>
     </g>
    </g>
   </g>
   <g id="line2d_12">
    <path clip-path="url(#p4f53c99ef0)" d="M 322.28357 161.691155 
L 322.28357 161.692197 
L 340.207348 161.596 
L 340.207348 161.470914 
L 342.198879 161.470914 
L 342.198879 161.337897 
L 346.181941 161.229508 
L 346.181941 161.18336 
L 350.165002 161.233903 
L 350.165002 161.402977 
L 352.156533 161.402977 
L 352.156533 161.691155 
L 354.148064 161.691155 
L 354.148064 162.072075 
L 356.139595 162.072075 
L 356.139595 162.491682 
L 358.131126 162.491682 
L 358.131126 162.873494 
L 360.122657 162.873494 
L 360.122657 163.129905 
L 364.105718 163.178207 
L 364.105718 162.958808 
L 366.097249 162.958808 
L 366.097249 162.452224 
L 368.08878 162.452224 
L 368.08878 161.691155 
L 370.080311 161.691155 
L 370.080311 160.764334 
L 372.071842 160.764334 
L 372.071842 159.810018 
L 374.063373 159.810018 
L 374.063373 158.998654 
L 376.054904 158.998654 
L 376.054904 158.506374 
L 380.037965 158.482903 
L 380.037965 159.019138 
L 382.029496 159.019138 
L 382.029496 160.120393 
L 384.021027 160.120393 
L 384.021027 161.691155 
L 386.012558 161.691155 
L 386.012558 163.535815 
L 388.004089 163.535815 
L 388.004089 165.3776 
L 389.995619 165.3776 
L 389.995619 166.894871 
L 391.98715 166.894871 
L 391.98715 167.770791 
L 395.970212 167.749454 
L 395.970212 166.689567 
L 397.961743 166.689567 
L 397.961743 164.606099 
L 399.953274 164.606099 
L 399.953274 161.691155 
L 401.944805 161.691155 
L 401.944805 158.307862 
L 403.936335 158.307862 
L 403.936335 154.954768 
L 405.927866 154.954768 
L 405.927866 152.202901 
L 407.919397 152.202901 
L 407.919397 150.612309 
L 411.902459 150.638981 
L 411.902459 152.545728 
L 413.89399 152.545728 
L 413.89399 156.33137 
L 415.885521 156.33137 
L 415.885521 161.691155 
L 417.877051 161.691155 
L 417.877051 168.017748 
L 419.868582 168.017748 
L 419.868582 174.446821 
L 421.860113 174.446821 
L 421.860113 179.944926 
L 423.851644 179.944926 
L 423.851644 183.430846 
L 425.843175 183.430846 
L 425.843175 183.916055 
L 427.834706 183.916055 
L 427.834706 180.646048 
L 429.826237 180.646048 
L 429.826237 173.22294 
L 431.817767 173.22294 
L 431.817767 161.691155 
L 433.809298 161.691155 
L 433.809298 146.57213 
L 435.800829 146.57213 
L 435.800829 128.840333 
L 437.79236 128.840333 
L 437.79236 109.840607 
L 439.783891 109.840607 
L 439.783891 91.154915 
L 441.775422 91.154915 
L 441.775422 74.433747 
L 443.766953 74.433747 
L 443.766953 61.212685 
L 445.758483 61.212685 
L 445.758483 52.737222 
L 447.750014 52.737222 
L 447.750014 49.818285 
L 449.741545 49.818285 
L 449.741545 52.737222 
L 451.733076 52.737222 
L 451.733076 61.212685 
L 453.724607 61.212685 
L 453.724607 74.433747 
L 455.716138 74.433747 
L 455.716138 91.154915 
L 457.707669 91.154915 
L 457.707669 109.840607 
L 459.699199 109.840607 
L 459.699199 128.840333 
L 461.69073 128.840333 
L 461.69073 146.57213 
L 463.682261 146.57213 
L 463.682261 161.691155 
L 465.673792 161.691155 
L 465.673792 173.22294 
L 467.665323 173.22294 
L 467.665323 180.646048 
L 469.656854 180.646048 
L 469.656854 183.916055 
L 471.648385 183.916055 
L 471.648385 183.430846 
L 473.639915 183.430846 
L 473.639915 179.944926 
L 475.631446 179.944926 
L 475.631446 174.446821 
L 477.622977 174.446821 
L 477.622977 168.017748 
L 479.614508 168.017748 
L 479.614508 161.691155 
L 481.606039 161.691155 
L 481.606039 156.33137 
L 483.59757 156.33137 
L 483.59757 152.545728 
L 485.589101 152.545728 
L 485.589101 150.638981 
L 489.572162 150.612309 
L 489.572162 152.202901 
L 491.563693 152.202901 
L 491.563693 154.954768 
L 493.555224 154.954768 
L 493.555224 158.307862 
L 495.546755 158.307862 
L 495.546755 161.691155 
L 497.538286 161.691155 
L 497.538286 164.606099 
L 499.529817 164.606099 
L 499.529817 166.689567 
L 501.521347 166.689567 
L 501.521347 167.749454 
L 505.504409 167.770791 
L 505.504409 166.894871 
L 507.49594 166.894871 
L 507.49594 165.3776 
L 509.487471 165.3776 
L 509.487471 163.535815 
L 511.479002 163.535815 
L 511.479002 161.691155 
L 513.470533 161.691155 
L 513.470533 160.120393 
L 515.462063 160.120393 
L 515.462063 159.019138 
L 517.453594 159.019138 
L 517.453594 158.482903 
L 521.436656 158.506374 
L 521.436656 158.998654 
L 523.428187 158.998654 
L 523.428187 159.810018 
L 525.419718 159.810018 
L 525.419718 160.764334 
L 527.411249 160.764334 
L 527.411249 161.691155 
L 529.402779 161.691155 
L 529.402779 162.452224 
L 531.39431 162.452224 
L 531.39431 162.958808 
L 533.385841 162.958808 
L 533.385841 163.178207 
L 537.368903 163.129905 
L 537.368903 162.873494 
L 539.360434 162.873494 
L 539.360434 162.491682 
L 541.351965 162.491682 
L 541.351965 162.072075 
L 543.343495 162.072075 
L 543.343495 161.691155 
L 545.335026 161.691155 
L 545.335026 161.402977 
L 547.326557 161.402977 
L 547.326557 161.233903 
L 555.292681 161.337897 
L 555.292681 161.470914 
L 557.284211 161.470914 
L 557.284211 161.596 
L 561.267273 161.691155 
L 561.267273 161.747057 
L 577.19952 161.691155 
L 577.19952 161.691155 
" style="fill:none;stroke:#6e3b87;stroke-linecap:square;stroke-width:2;"/>
   </g>
   <g id="legend_2">
    <g id="patch_5">
     <path d="M 323.225621 32.970985 
L 567.39952 32.970985 
Q 570.19952 32.970985 570.19952 30.170985 
L 570.19952 10 
Q 570.19952 7.2 567.39952 7.2 
L 323.225621 7.2 
Q 320.425621 7.2 320.425621 10 
L 320.425621 30.170985 
Q 320.425621 32.970985 323.225621 32.970985 
z
" style="fill:#ffffff;opacity:0.95;stroke:#cccccc;stroke-linejoin:miter;stroke-width:0.5;"/>
    </g>
    <g id="line2d_13">
     <path d="M 326.025621 18.537813 
L 340.025621 18.537813 
" style="fill:none;stroke:#6e3b87;stroke-linecap:square;stroke-width:2;"/>
    </g>
    <g id="line2d_14"/>
    <g id="text_4">
     <!-- Windowed filter -->
     <g style="fill:#6e3b87;" transform="translate(351.225621 23.437813)scale(0.14 -0.14)">
      <defs>
       <path d="M 4698 -64 
C 4723 32 4742 122 4749 154 
C 4768 218 4819 411 4870 584 
L 5850 4032 
C 5888 4147 5952 4205 6093 4218 
L 6298 4237 
L 6298 4416 
L 5626 4416 
C 5562 4416 5562 4416 4954 4416 
L 4954 4237 
L 5210 4218 
C 5434 4199 5504 4167 5510 4063 
C 5510 4044 5510 4025 5504 4005 
L 4659 872 
L 3610 3826 
C 3469 4211 3450 4262 3398 4480 
L 3194 4480 
C 3059 4082 2950 3795 2618 2935 
L 1824 917 
L 1184 3795 
C 1165 3872 1158 3942 1158 4006 
C 1158 4147 1222 4205 1395 4218 
L 1664 4237 
L 1664 4416 
L 858 4416 
C 813 4416 544 4416 51 4416 
L 51 4237 
L 230 4218 
C 416 4199 493 4128 550 3897 
L 1312 597 
C 1395 231 1395 225 1459 -64 
L 1779 -64 
C 1837 141 1888 295 2010 597 
L 3123 3429 
L 3923 1256 
C 4134 687 4154 635 4378 -64 
z
" id="URWPalladioL-Roma-57" transform="scale(0.015625)"/>
       <path d="M 2182 4603 
C 2048 4653 1971 4672 1888 4672 
C 1683 4672 1459 4563 1318 4404 
L 947 3985 
C 762 3775 678 3490 678 3070 
L 678 2803 
L 237 2604 
L 237 2476 
L 678 2476 
L 678 651 
C 678 244 659 199 442 199 
L 147 199 
L 147 0 
C 787 0 787 0 954 0 
C 1107 0 1286 0 1786 0 
L 1786 199 
L 1453 199 
C 1235 199 1216 245 1216 653 
L 1216 2489 
L 1946 2489 
L 1990 2816 
L 1216 2816 
L 1216 3350 
C 1216 4073 1299 4248 1664 4248 
C 1837 4248 1952 4204 2106 4071 
L 2182 4109 
z
M 3226 2981 
L 3168 3026 
C 2886 2886 2547 2797 2170 2752 
L 2170 2572 
L 2406 2572 
C 2662 2572 2688 2527 2688 2099 
L 2688 653 
C 2688 244 2669 199 2451 199 
L 2157 199 
L 2157 0 
C 2797 0 2797 0 2957 0 
C 3117 0 3117 0 3757 0 
L 3757 199 
L 3462 199 
C 3245 199 3226 244 3226 652 
z
M 2989 4416 
C 2797 4416 2630 4249 2630 4056 
C 2630 3870 2797 3704 2982 3704 
C 3168 3704 3341 3870 3341 4056 
C 3341 4236 3168 4416 2989 4416 
z
" id="URWPalladioL-Roma-2" transform="scale(0.015625)"/>
       <path d="M 627 2476 
L 627 619 
C 627 142 838 -64 1331 -64 
C 1478 -64 1632 -32 1670 13 
L 1978 353 
L 1894 463 
C 1734 372 1638 340 1517 340 
C 1267 340 1165 470 1165 788 
L 1165 2489 
L 1984 2489 
L 2042 2816 
L 1165 2816 
L 1165 3056 
C 1165 3321 1184 3547 1235 3951 
L 1158 4021 
C 1005 3925 813 3842 614 3778 
C 634 3585 640 3463 640 3271 
L 640 2822 
L 141 2598 
L 141 2476 
z
" id="URWPalladioL-Roma-74" transform="scale(0.015625)"/>
       <path d="M 147 2565 
L 384 2565 
C 640 2565 666 2520 666 2094 
L 666 643 
C 666 237 646 192 429 192 
L 134 192 
L 134 -7 
C 595 -7 762 -7 922 -7 
C 1050 -7 1050 -7 1837 -7 
L 1837 192 
L 1504 192 
C 1216 192 1203 211 1203 638 
L 1203 1751 
C 1203 2139 1459 2463 1773 2463 
C 1965 2463 2099 2373 2202 2169 
L 2336 2169 
L 2394 2937 
C 2323 2982 2208 3008 2093 3008 
C 1901 3008 1696 2905 1562 2745 
L 1203 2322 
L 1203 2982 
L 1146 3008 
C 819 2873 486 2783 147 2745 
z
" id="URWPalladioL-Roma-72" transform="scale(0.015625)"/>
      </defs>
      <use transform="scale(0.996264)" xlink:href="#URWPalladioL-Roma-57"/>
      <use transform="translate(94.147679 0)scale(0.996264)" xlink:href="#URWPalladioL-Roma-69"/>
      <use transform="translate(123.13804 0)scale(0.996264)" xlink:href="#URWPalladioL-Roma-6e"/>
      <use transform="translate(181.120101 0)scale(0.996264)" xlink:href="#URWPalladioL-Roma-64"/>
      <use transform="translate(241.991731 0)scale(0.996264)" xlink:href="#URWPalladioL-Roma-6f"/>
      <use transform="translate(296.387312 0)scale(0.996264)" xlink:href="#URWPalladioL-Roma-77"/>
      <use transform="translate(379.475405 0)scale(0.996264)" xlink:href="#URWPalladioL-Roma-65"/>
      <use transform="translate(427.1957 0)scale(0.996264)" xlink:href="#URWPalladioL-Roma-64"/>
      <use transform="translate(512.973931 0)scale(0.996264)" xlink:href="#URWPalladioL-Roma-2"/>
      <use transform="translate(573.247189 0)scale(0.996264)" xlink:href="#URWPalladioL-Roma-6c"/>
      <use transform="translate(602.23755 0)scale(0.996264)" xlink:href="#URWPalladioL-Roma-74"/>
      <use transform="translate(634.714638 0)scale(0.996264)" xlink:href="#URWPalladioL-Roma-65"/>
      <use transform="translate(682.434933 0)scale(0.996264)" xlink:href="#URWPalladioL-Roma-72"/>
     </g>
    </g>
    <g id="line2d_15">
     <path d="M 480.275729 18.537813 
L 494.275729 18.537813 
" style="fill:none;stroke:#0271ae;stroke-linecap:square;stroke-opacity:0.5;stroke-width:2;"/>
    </g>
    <g id="line2d_16"/>
    <g id="text_5">
     <!-- Ideal LPF -->
     <g style="fill:#0271ae;" transform="translate(505.475729 23.437813)scale(0.14 -0.14)">
      <use transform="scale(0.996264)" xlink:href="#URWPalladioL-Roma-49"/>
      <use transform="translate(33.574079 0)scale(0.996264)" xlink:href="#URWPalladioL-Roma-64"/>
      <use transform="translate(94.44571 0)scale(0.996264)" xlink:href="#URWPalladioL-Roma-65"/>
      <use transform="translate(142.166005 0)scale(0.996264)" xlink:href="#URWPalladioL-Roma-61"/>
      <use transform="translate(191.979205 0)scale(0.996264)" xlink:href="#URWPalladioL-Roma-6c"/>
      <use transform="translate(245.876167 0)scale(0.996264)" xlink:href="#URWPalladioL-Roma-4c"/>
      <use transform="translate(306.747798 0)scale(0.996264)" xlink:href="#URWPalladioL-Roma-50"/>
      <use transform="translate(366.921393 0)scale(0.996264)" xlink:href="#URWPalladioL-Roma-46"/>
     </g>
    </g>
   </g>
  </g>
 </g>
 <defs>
  <clipPath id="p4b9e9febe8">
   <rect height="153.228535" width="254.91595" x="29.673848" y="39.970985"/>
  </clipPath>
  <clipPath id="p4f53c99ef0">
   <rect height="153.228535" width="254.91595" x="322.28357" y="39.970985"/>
  </clipPath>
 </defs>
</svg>
