<?xml version="1.0" encoding="utf-8" standalone="no"?>
<!DOCTYPE svg PUBLIC "-//W3C//DTD SVG 1.1//EN"
  "http://www.w3.org/Graphics/SVG/1.1/DTD/svg11.dtd">
<svg height="200.39952pt" version="1.1" viewBox="0 0 584.39952 200.39952" width="584.39952pt" xmlns="http://www.w3.org/2000/svg" xmlns:xlink="http://www.w3.org/1999/xlink">
 <metadata>
  <rdf:RDF xmlns:cc="http://creativecommons.org/ns#" xmlns:dc="http://purl.org/dc/elements/1.1/" xmlns:rdf="http://www.w3.org/1999/02/22-rdf-syntax-ns#">
   <cc:Work>
    <dc:type rdf:resource="http://purl.org/dc/dcmitype/StillImage"/>
    <dc:date>2021-08-20T09:51:52.402021</dc:date>
    <dc:format>image/svg+xml</dc:format>
    <dc:creator>
     <cc:Agent>
      <dc:title>Matplotlib v3.4.2, https://matplotlib.org/</dc:title>
     </cc:Agent>
    </dc:creator>
   </cc:Work>
  </rdf:RDF>
 </metadata>
 <defs>
  <style type="text/css">*{stroke-linecap:butt;stroke-linejoin:round;}</style>
 </defs>
 <g id="figure_1">
  <g id="patch_1">
   <path d="M 0 200.39952 
L 584.39952 200.39952 
L 584.39952 0 
L 0 0 
z
" style="fill:none;"/>
  </g>
  <g id="axes_1">
   <g id="patch_2">
    <path d="M 29.673848 193.19952 
L 288.909798 193.19952 
L 288.909798 39.312702 
L 29.673848 39.312702 
z
" style="fill:none;"/>
   </g>
   <g id="line2d_1">
    <path clip-path="url(#p80091a40de)" d="M 29.673848 161.555792 
L 31.699129 161.486381 
L 33.72441 161.278316 
L 35.749691 160.932098 
L 37.774971 160.448561 
L 39.800252 159.82887 
L 41.825533 159.074517 
L 43.850814 158.18732 
L 45.876095 157.169417 
L 49.926657 154.751609 
L 53.977218 151.844377 
L 58.02778 148.47572 
L 62.078342 144.678079 
L 66.128903 140.488028 
L 70.179465 135.945919 
L 74.230027 131.095496 
L 80.305869 123.344655 
L 86.381712 115.173582 
L 98.533397 98.283523 
L 106.634521 87.204276 
L 112.710363 79.29419 
L 116.760925 74.306958 
L 120.811487 69.605028 
L 124.862048 65.233682 
L 128.91261 61.23502 
L 132.963172 57.647549 
L 137.013733 54.50582 
L 141.064295 51.840089 
L 143.089576 50.693932 
L 145.114857 49.676029 
L 147.140138 48.788832 
L 149.165419 48.03448 
L 151.190699 47.414788 
L 153.21598 46.931251 
L 155.241261 46.585033 
L 157.266542 46.376968 
L 159.291823 46.307557 
L 161.317104 46.376968 
L 163.342385 46.585033 
L 165.367665 46.931251 
L 167.392946 47.414788 
L 169.418227 48.03448 
L 171.443508 48.788832 
L 173.468789 49.676029 
L 175.49407 50.693932 
L 179.544631 53.11174 
L 183.595193 56.018972 
L 187.645755 59.387629 
L 191.696317 63.18527 
L 195.746878 67.375321 
L 199.79744 71.91743 
L 203.848002 76.767854 
L 209.923844 84.518694 
L 215.999687 92.689767 
L 228.151372 109.579826 
L 236.252495 120.659073 
L 242.328338 128.56916 
L 246.3789 133.556392 
L 250.429461 138.258321 
L 254.480023 142.629667 
L 258.530585 146.628329 
L 262.581147 150.2158 
L 266.631708 153.357529 
L 270.68227 156.02326 
L 272.707551 157.169417 
L 274.732832 158.18732 
L 276.758113 159.074517 
L 278.783393 159.82887 
L 280.808674 160.448561 
L 282.833955 160.932098 
L 284.859236 161.278316 
L 286.884517 161.486381 
L 288.909798 161.555792 
L 288.909798 161.555792 
" style="fill:none;stroke:#dc2830;stroke-linejoin:miter;stroke-opacity:0.5;stroke-width:3;"/>
   </g>
   <g id="matplotlib.axis_1"/>
   <g id="matplotlib.axis_2">
    <g id="ytick_1">
     <g id="line2d_2">
      <path clip-path="url(#p80091a40de)" d="M 29.673848 161.555792 
L 288.909798 161.555792 
" style="fill:none;stroke:#000000;stroke-linejoin:miter;stroke-opacity:0.2;stroke-width:0.5;"/>
     </g>
     <g id="line2d_3">
      <defs>
       <path d="M 0 0 
L -3.5 0 
" id="mf04948f9dd" style="stroke:#000000;stroke-opacity:0.2;stroke-width:0.8;"/>
      </defs>
      <g>
       <use style="fill-opacity:0.2;stroke:#000000;stroke-opacity:0.2;stroke-width:0.8;" x="29.673848" xlink:href="#mf04948f9dd" y="161.555792"/>
      </g>
     </g>
     <g id="text_1">
      <!-- $\mathdefault{0}$ -->
      <g transform="translate(7.2 166.545557)scale(0.14 -0.14)">
       <defs>
        <path d="M 1683 4416 
C 691 4416 186 3628 186 2076 
C 186 1326 320 679 544 365 
C 768 51 1126 -128 1523 -128 
C 2490 -128 2976 704 2976 2345 
C 2976 3749 2560 4416 1683 4416 
z
M 1568 4191 
C 2189 4191 2438 3563 2438 2025 
C 2438 660 2195 96 1606 96 
C 986 96 723 743 723 2307 
C 723 3660 960 4191 1568 4191 
z
" id="URWPalladioL-Roma-30" transform="scale(0.015625)"/>
       </defs>
       <use transform="scale(0.996264)" xlink:href="#URWPalladioL-Roma-30"/>
      </g>
     </g>
    </g>
   </g>
   <g id="line2d_4">
    <path clip-path="url(#p80091a40de)" d="M 29.673848 161.555792 
L 29.673848 163.338473 
L 31.699129 163.338473 
L 31.699129 164.902885 
L 33.72441 164.902885 
L 33.72441 166.000671 
L 35.749691 166.000671 
L 35.749691 166.447079 
L 37.774971 166.447079 
L 37.774971 166.151345 
L 39.800252 166.151345 
L 39.800252 165.133719 
L 41.825533 165.133719 
L 41.825533 163.526123 
L 43.850814 163.526123 
L 43.850814 161.555792 
L 45.876095 161.555792 
L 45.876095 159.513813 
L 47.901376 159.513813 
L 47.901376 157.712834 
L 49.926657 157.712834 
L 49.926657 156.439988 
L 51.951937 156.439988 
L 51.951937 155.911999 
L 53.977218 155.911999 
L 53.977218 156.239369 
L 56.002499 156.239369 
L 56.002499 157.405397 
L 58.02778 157.405397 
L 58.02778 159.263774 
L 60.053061 159.263774 
L 60.053061 161.555792 
L 62.078342 161.555792 
L 62.078342 163.945343 
L 64.103623 163.945343 
L 64.103623 166.067091 
L 66.128903 166.067091 
L 66.128903 167.581072 
L 68.154184 167.581072 
L 68.154184 168.225729 
L 70.179465 168.225729 
L 70.179465 167.861318 
L 72.204746 167.861318 
L 72.204746 166.496738 
L 74.230027 166.496738 
L 74.230027 164.295033 
L 76.255308 164.295033 
L 76.255308 161.555792 
L 78.280589 161.555792 
L 78.280589 158.676077 
L 80.305869 158.676077 
L 80.305869 156.094747 
L 82.33115 156.094747 
L 82.33115 154.227749 
L 84.356431 154.227749 
L 84.356431 153.403647 
L 86.381712 153.403647 
L 86.381712 153.809004 
L 88.406993 153.809004 
L 88.406993 155.452271 
L 90.432274 155.452271 
L 90.432274 158.152493 
L 92.457555 158.152493 
L 92.457555 161.555792 
L 94.482835 161.555792 
L 94.482835 165.178659 
L 96.508116 165.178659 
L 96.508116 168.473117 
L 98.533397 168.473117 
L 98.533397 170.905364 
L 100.558678 170.905364 
L 100.558678 172.037121 
L 102.583959 172.037121 
L 102.583959 171.597925 
L 104.60924 171.597925 
L 104.60924 169.53732 
L 106.634521 169.53732 
L 106.634521 166.048147 
L 108.659801 166.048147 
L 108.659801 161.555792 
L 110.685082 161.555792 
L 110.685082 156.672798 
L 112.710363 156.672798 
L 112.710363 152.123077 
L 114.735644 152.123077 
L 114.735644 148.644478 
L 116.760925 148.644478 
L 116.760925 146.881931 
L 118.786206 146.881931 
L 118.786206 147.285392 
L 120.811487 147.285392 
L 120.811487 150.026918 
L 122.836767 150.026918 
L 122.836767 154.949388 
L 124.862048 154.949388 
L 124.862048 161.555792 
L 126.887329 161.555792 
L 126.887329 169.04305 
L 128.91261 169.04305 
L 128.91261 176.37863 
L 130.937891 176.37863 
L 130.937891 182.41253 
L 132.963172 182.41253 
L 132.963172 186.012227 
L 134.988453 186.012227 
L 134.988453 186.204665 
L 137.013733 186.204665 
L 137.013733 182.307765 
L 139.039014 182.307765 
L 139.039014 174.034555 
L 141.064295 174.034555 
L 141.064295 161.555792 
L 143.089576 161.555792 
L 143.089576 145.511668 
L 145.114857 145.511668 
L 145.114857 126.96917 
L 147.140138 126.96917 
L 147.140138 107.328273 
L 149.165419 107.328273 
L 149.165419 88.186487 
L 151.190699 88.186487 
L 151.190699 71.176593 
L 153.21598 71.176593 
L 153.21598 57.795926 
L 155.241261 57.795926 
L 155.241261 49.246922 
L 157.266542 49.246922 
L 157.266542 46.307557 
L 159.291823 46.307557 
L 159.291823 49.246922 
L 161.317104 49.246922 
L 161.317104 57.795926 
L 163.342385 57.795926 
L 163.342385 71.176593 
L 165.367665 71.176593 
L 165.367665 88.186487 
L 167.392946 88.186487 
L 167.392946 107.328273 
L 169.418227 107.328273 
L 169.418227 126.96917 
L 171.443508 126.96917 
L 171.443508 145.511668 
L 173.468789 145.511668 
L 173.468789 161.555792 
L 175.49407 161.555792 
L 175.49407 174.034555 
L 177.519351 174.034555 
L 177.519351 182.307765 
L 179.544631 182.307765 
L 179.544631 186.204665 
L 181.569912 186.204665 
L 181.569912 186.012227 
L 183.595193 186.012227 
L 183.595193 182.41253 
L 185.620474 182.41253 
L 185.620474 176.37863 
L 187.645755 176.37863 
L 187.645755 169.04305 
L 189.671036 169.04305 
L 189.671036 161.555792 
L 191.696317 161.555792 
L 191.696317 154.949388 
L 193.721597 154.949388 
L 193.721597 150.026918 
L 195.746878 150.026918 
L 195.746878 147.285392 
L 197.772159 147.285392 
L 197.772159 146.881931 
L 199.79744 146.881931 
L 199.79744 148.644478 
L 201.822721 148.644478 
L 201.822721 152.123077 
L 203.848002 152.123077 
L 203.848002 156.672798 
L 205.873283 156.672798 
L 205.873283 161.555792 
L 207.898563 161.555792 
L 207.898563 166.048147 
L 209.923844 166.048147 
L 209.923844 169.53732 
L 211.949125 169.53732 
L 211.949125 171.597925 
L 213.974406 171.597925 
L 213.974406 172.037121 
L 215.999687 172.037121 
L 215.999687 170.905364 
L 218.024968 170.905364 
L 218.024968 168.473117 
L 220.050249 168.473117 
L 220.050249 165.178659 
L 222.075529 165.178659 
L 222.075529 161.555792 
L 224.10081 161.555792 
L 224.10081 158.152493 
L 226.126091 158.152493 
L 226.126091 155.452271 
L 228.151372 155.452271 
L 228.151372 153.809004 
L 230.176653 153.809004 
L 230.176653 153.403647 
L 232.201934 153.403647 
L 232.201934 154.227749 
L 234.227215 154.227749 
L 234.227215 156.094747 
L 236.252495 156.094747 
L 236.252495 158.676077 
L 238.277776 158.676077 
L 238.277776 161.555792 
L 240.303057 161.555792 
L 240.303057 164.295033 
L 242.328338 164.295033 
L 242.328338 166.496738 
L 244.353619 166.496738 
L 244.353619 167.861318 
L 246.3789 167.861318 
L 246.3789 168.225729 
L 248.404181 168.225729 
L 248.404181 167.581072 
L 250.429461 167.581072 
L 250.429461 166.067091 
L 252.454742 166.067091 
L 252.454742 163.945343 
L 254.480023 163.945343 
L 254.480023 161.555792 
L 256.505304 161.555792 
L 256.505304 159.263774 
L 258.530585 159.263774 
L 258.530585 157.405397 
L 260.555866 157.405397 
L 260.555866 156.239369 
L 262.581147 156.239369 
L 262.581147 155.911999 
L 264.606427 155.911999 
L 264.606427 156.439988 
L 266.631708 156.439988 
L 266.631708 157.712834 
L 268.656989 157.712834 
L 268.656989 159.513813 
L 270.68227 159.513813 
L 270.68227 161.555792 
L 272.707551 161.555792 
L 272.707551 163.526123 
L 274.732832 163.526123 
L 274.732832 165.133719 
L 276.758113 165.133719 
L 276.758113 166.151345 
L 278.783393 166.151345 
L 278.783393 166.447079 
L 280.808674 166.447079 
L 280.808674 166.000671 
L 282.833955 166.000671 
L 282.833955 164.902885 
L 284.859236 164.902885 
L 284.859236 163.338473 
L 286.884517 163.338473 
L 286.884517 161.555792 
L 288.909798 161.555792 
L 288.909798 161.555792 
" style="fill:none;stroke:#0271ae;stroke-linejoin:miter;stroke-width:3;"/>
   </g>
   <g id="legend_1">
    <g id="patch_3">
     <path d="M 46.107688 32.312702 
L 279.109798 32.312702 
Q 281.909798 32.312702 281.909798 29.512702 
L 281.909798 10 
Q 281.909798 7.2 279.109798 7.2 
L 46.107688 7.2 
Q 43.307688 7.2 43.307688 10 
L 43.307688 29.512702 
Q 43.307688 32.312702 46.107688 32.312702 
z
" style="fill:#ffffff;opacity:0.95;stroke:#cccccc;stroke-linejoin:miter;stroke-width:0.5;"/>
    </g>
    <g id="line2d_5">
     <path d="M 48.907688 17.879529 
L 62.907688 17.879529 
" style="fill:none;stroke:#0271ae;stroke-linejoin:miter;stroke-width:3;"/>
    </g>
    <g id="line2d_6"/>
    <g id="text_2">
     <!-- Ideal LPF -->
     <g style="fill:#0271ae;" transform="translate(74.107688 22.779529)scale(0.14 -0.14)">
      <defs>
       <path d="M 1382 3633 
C 1382 4135 1414 4185 1709 4204 
L 2016 4223 
L 2016 4416 
C 1549 4396 1408 4396 1075 4396 
C 755 4396 602 4403 141 4416 
L 141 4223 
L 448 4204 
C 742 4185 774 4135 774 3633 
L 774 782 
C 774 280 742 230 448 211 
L 141 192 
L 141 0 
C 518 -7 742 0 1075 0 
C 1408 19 1638 12 2016 0 
L 2016 192 
L 1709 211 
C 1414 230 1382 281 1382 787 
L 1382 3633 
z
" id="URWPalladioL-Roma-49" transform="scale(0.015625)"/>
       <path d="M 2637 2803 
C 2278 2956 2099 3008 1875 3008 
C 1702 3008 1549 2969 1389 2886 
L 826 2592 
C 461 2400 224 1934 224 1392 
C 224 881 397 460 710 204 
C 928 19 1229 -64 1645 -64 
C 1773 -64 1920 -39 1952 -13 
L 2662 581 
L 2630 0 
C 2944 -7 3046 0 3123 0 
C 3174 0 3264 0 3398 -7 
C 3443 6 3571 6 3706 0 
L 3706 192 
L 3411 211 
C 3194 224 3174 268 3174 672 
L 3174 4614 
L 3117 4665 
C 2835 4557 2624 4505 2118 4429 
L 2118 4249 
L 2477 4249 
C 2592 4249 2637 4179 2637 3987 
L 2637 2803 
z
M 2637 1424 
C 2637 1009 2624 945 2541 798 
C 2362 498 2048 300 1747 300 
C 1184 300 781 843 781 1602 
C 781 2298 1126 2707 1702 2707 
C 1946 2707 2202 2624 2426 2470 
C 2560 2381 2637 2298 2637 2247 
L 2637 1424 
z
" id="URWPalladioL-Roma-64" transform="scale(0.015625)"/>
       <path d="M 2797 447 
L 2714 511 
C 2304 268 2157 211 1882 211 
C 1466 211 1120 396 941 710 
C 819 921 774 1100 762 1472 
L 1696 1472 
C 2138 1472 2413 1491 2854 1561 
C 2861 1651 2867 1708 2867 1786 
C 2867 2526 2394 3008 1677 3008 
C 1440 3008 1165 2924 902 2771 
C 378 2468 166 2069 166 1401 
C 166 998 262 652 435 409 
C 691 70 1120 -128 1600 -128 
C 1837 -128 2074 -77 2336 38 
C 2509 108 2643 192 2669 230 
L 2797 447 
z
M 2298 1708 
C 1965 1696 1811 1689 1581 1689 
C 1286 1689 1120 1696 774 1728 
C 774 2030 800 2172 883 2339 
C 1018 2623 1293 2796 1600 2796 
C 1811 2796 1978 2713 2093 2539 
C 2234 2326 2278 2140 2298 1708 
z
" id="URWPalladioL-Roma-65" transform="scale(0.015625)"/>
       <path d="M 2074 544 
L 2042 0 
C 2458 0 2458 0 2541 0 
C 2573 19 2733 12 3014 0 
L 3014 192 
L 2765 204 
C 2611 211 2586 262 2586 576 
L 2586 1751 
C 2586 2688 2317 3027 1574 3027 
C 1299 3027 1043 2956 800 2809 
L 461 2604 
L 461 2187 
L 627 2142 
L 710 2341 
C 845 2642 909 2688 1203 2688 
C 1805 2688 2054 2450 2074 1866 
L 1440 1751 
C 570 1590 205 1289 205 730 
C 205 224 506 -64 1011 -64 
C 1126 -64 1235 -45 1280 -13 
L 2074 544 
z
M 2074 806 
C 1888 544 1485 300 1235 300 
C 979 300 755 537 755 812 
C 755 1049 883 1273 1075 1395 
C 1235 1491 1587 1580 2074 1651 
L 2074 806 
z
" id="URWPalladioL-Roma-61" transform="scale(0.015625)"/>
       <path d="M 147 4249 
L 506 4249 
C 621 4249 666 4179 666 3987 
L 666 672 
C 666 268 646 224 429 211 
L 134 192 
L 134 0 
C 774 0 774 0 934 0 
C 1094 19 1094 19 1734 0 
L 1734 192 
L 1440 211 
C 1222 224 1203 268 1203 672 
L 1203 4614 
L 1146 4665 
C 864 4557 653 4505 147 4429 
L 147 4249 
z
" id="URWPalladioL-Roma-6c" transform="scale(0.015625)"/>
       <path d="M 1382 3630 
C 1382 4134 1414 4185 1709 4204 
L 2016 4223 
L 2016 4416 
C 1549 4396 1408 4396 1075 4396 
C 755 4396 602 4403 141 4416 
L 141 4223 
L 448 4204 
C 742 4185 774 4134 774 3630 
L 774 606 
C 774 421 717 281 614 230 
L 416 128 
L 416 -20 
C 838 0 883 0 1050 0 
C 1107 0 1210 0 1350 -7 
C 1664 6 2362 0 2541 0 
C 2746 -20 2746 -20 3616 0 
C 3661 275 3686 480 3750 1100 
L 3546 1100 
L 3469 780 
C 3462 761 3456 716 3450 710 
C 3411 524 3366 396 3328 364 
C 3245 313 2688 268 1926 268 
C 1696 268 1549 281 1382 320 
L 1382 3630 
z
" id="URWPalladioL-Roma-4c" transform="scale(0.015625)"/>
       <path d="M 1382 4097 
C 1606 4147 1792 4172 2010 4172 
C 2701 4172 3072 3859 3072 3263 
C 3072 2699 2682 2304 2125 2304 
C 1990 2304 1894 2316 1728 2366 
L 1792 2137 
C 1946 2105 2035 2099 2163 2099 
C 3040 2099 3712 2686 3712 3439 
C 3712 4041 3213 4416 2400 4416 
C 2368 4416 2304 4416 2221 4409 
C 1984 4403 1498 4396 1312 4396 
C 1171 4396 1171 4396 147 4416 
L 147 4223 
L 435 4204 
C 723 4185 774 4103 774 3633 
L 774 782 
C 774 280 742 230 448 211 
L 141 192 
L 141 0 
C 518 -7 742 0 1075 0 
C 1408 19 1638 12 2016 0 
L 2016 192 
L 1709 211 
C 1414 230 1382 281 1382 787 
L 1382 4097 
z
" id="URWPalladioL-Roma-50" transform="scale(0.015625)"/>
       <path d="M 1382 2092 
C 1562 2105 1754 2112 2042 2112 
C 2515 2112 2688 2092 2803 2035 
L 2854 1875 
L 2886 1497 
L 3078 1497 
C 3059 2092 3059 2092 3059 2208 
C 3059 2310 3059 2310 3078 2946 
L 2886 2946 
L 2854 2615 
C 2848 2558 2829 2501 2803 2450 
C 2688 2399 2509 2380 2086 2380 
C 1818 2380 1600 2387 1382 2399 
L 1382 4096 
C 1574 4140 1690 4147 2067 4147 
C 2374 4147 2733 4108 2931 4058 
C 3085 4020 3104 3988 3104 3842 
L 3104 3429 
L 3328 3429 
C 3328 3810 3360 4115 3430 4396 
C 3117 4409 2925 4416 2650 4416 
L 1965 4409 
C 1651 4396 1427 4396 1267 4396 
C 1082 4396 1082 4396 141 4416 
L 141 4223 
L 448 4204 
C 742 4185 774 4135 774 3633 
L 774 782 
C 774 280 742 230 448 211 
L 141 192 
L 141 0 
C 518 -7 742 0 1075 0 
C 1408 19 1638 12 2016 0 
L 2016 192 
L 1709 211 
C 1414 230 1382 281 1382 787 
L 1382 2092 
z
" id="URWPalladioL-Roma-46" transform="scale(0.015625)"/>
      </defs>
      <use transform="scale(0.996264)" xlink:href="#URWPalladioL-Roma-49"/>
      <use transform="translate(33.574079 0)scale(0.996264)" xlink:href="#URWPalladioL-Roma-64"/>
      <use transform="translate(94.44571 0)scale(0.996264)" xlink:href="#URWPalladioL-Roma-65"/>
      <use transform="translate(142.166005 0)scale(0.996264)" xlink:href="#URWPalladioL-Roma-61"/>
      <use transform="translate(191.979205 0)scale(0.996264)" xlink:href="#URWPalladioL-Roma-6c"/>
      <use transform="translate(245.876167 0)scale(0.996264)" xlink:href="#URWPalladioL-Roma-4c"/>
      <use transform="translate(306.747798 0)scale(0.996264)" xlink:href="#URWPalladioL-Roma-50"/>
      <use transform="translate(366.921393 0)scale(0.996264)" xlink:href="#URWPalladioL-Roma-46"/>
     </g>
    </g>
    <g id="line2d_7">
     <path d="M 161.231479 17.879529 
L 175.231479 17.879529 
" style="fill:none;stroke:#dc2830;stroke-linejoin:miter;stroke-opacity:0.5;stroke-width:3;"/>
    </g>
    <g id="line2d_8"/>
    <g id="text_3">
     <!-- Hann window -->
     <g style="fill:#dc2830;" transform="translate(186.431479 22.779529)scale(0.14 -0.14)">
      <defs>
       <path d="M 3942 787 
C 3942 281 3910 230 3616 211 
L 3309 192 
L 3309 0 
C 3686 -7 3910 0 4243 0 
C 4576 19 4806 12 5184 0 
L 5184 192 
L 4877 211 
C 4582 230 4550 281 4550 783 
L 4550 3635 
C 4550 4135 4582 4186 4877 4205 
L 5184 4223 
L 5184 4416 
C 4717 4396 4576 4396 4243 4396 
C 3923 4396 3770 4403 3309 4416 
L 3309 4223 
L 3616 4205 
C 3910 4186 3942 4135 3942 3635 
L 3942 2508 
C 3808 2502 3674 2496 3411 2496 
L 1914 2496 
C 1651 2496 1510 2502 1382 2508 
L 1382 3635 
C 1382 4135 1414 4186 1709 4205 
L 2016 4223 
L 2016 4416 
C 1549 4396 1408 4396 1075 4396 
C 755 4396 602 4403 141 4416 
L 141 4223 
L 448 4205 
C 742 4186 774 4135 774 3635 
L 774 783 
C 774 281 742 230 448 211 
L 141 192 
L 141 0 
C 518 -7 742 0 1075 0 
C 1408 19 1638 12 2016 0 
L 2016 192 
L 1709 211 
C 1414 230 1382 281 1382 783 
L 1382 2201 
C 1555 2214 1658 2214 1914 2214 
L 3411 2214 
C 3667 2214 3770 2214 3942 2201 
L 3942 787 
z
" id="URWPalladioL-Roma-48" transform="scale(0.015625)"/>
       <path d="M 2624 0 
C 3014 0 3021 0 3130 0 
C 3219 19 3219 19 3661 0 
L 3661 192 
L 3398 211 
C 3181 223 3162 262 3162 670 
L 3162 1902 
C 3162 2649 2810 3014 2093 3014 
C 1856 3014 1722 2969 1587 2854 
L 1101 2432 
L 1101 2988 
L 1043 3008 
C 717 2873 384 2784 45 2746 
L 45 2568 
L 282 2568 
C 538 2568 563 2523 563 2103 
L 563 669 
C 563 268 544 223 326 211 
L 38 192 
L 38 0 
C 474 -7 646 0 832 0 
C 1018 19 1190 12 1626 0 
L 1626 192 
L 1338 211 
C 1120 223 1101 268 1101 670 
L 1101 2023 
C 1101 2311 1523 2624 1914 2624 
C 2342 2624 2624 2304 2624 1813 
L 2624 0 
z
" id="URWPalladioL-Roma-6e" transform="scale(0.015625)"/>
       <path d="M 2643 3008 
C 2118 1775 2022 1556 1626 651 
L 1088 2434 
C 1069 2492 1062 2544 1062 2595 
C 1062 2692 1146 2744 1306 2750 
L 1562 2763 
L 1562 2943 
C 928 2924 928 2924 800 2924 
C 672 2924 672 2924 38 2943 
L 38 2763 
L 218 2750 
C 397 2738 480 2608 640 2105 
L 1293 -64 
L 1594 -64 
L 2221 1420 
C 2253 1497 2323 1652 2426 1872 
L 2554 2143 
L 3424 -64 
L 3718 -64 
C 3763 70 3814 219 3866 361 
C 3994 742 4134 1142 4160 1181 
L 4595 2189 
C 4787 2621 4864 2731 5005 2750 
L 5171 2763 
L 5171 2943 
C 4646 2924 4646 2924 4544 2924 
C 4442 2924 4442 2924 3917 2943 
L 3917 2763 
L 4134 2750 
C 4294 2744 4384 2666 4384 2550 
C 4384 2479 4371 2402 4339 2318 
L 4019 1413 
C 3968 1271 3917 1142 3712 613 
L 2976 2486 
C 2886 2705 2842 2834 2790 3008 
L 2643 3008 
z
" id="URWPalladioL-Roma-77" transform="scale(0.015625)"/>
       <path d="M 1203 2982 
L 1146 3008 
C 819 2873 486 2784 147 2746 
L 147 2568 
L 384 2568 
C 640 2568 666 2523 666 2103 
L 666 669 
C 666 268 646 223 429 211 
L 134 192 
L 134 0 
C 774 0 774 0 934 0 
C 1094 19 1094 19 1734 0 
L 1734 192 
L 1440 211 
C 1222 224 1203 268 1203 671 
L 1203 2982 
z
M 909 4416 
C 717 4416 550 4249 550 4057 
C 550 3871 717 3705 902 3705 
C 1088 3705 1261 3871 1261 4057 
C 1261 4236 1088 4416 909 4416 
z
" id="URWPalladioL-Roma-69" transform="scale(0.015625)"/>
       <path d="M 1786 3008 
C 851 3008 205 2347 205 1391 
C 205 487 774 -128 1600 -128 
C 2586 -128 3290 557 3290 1520 
C 3290 2386 2662 3008 1786 3008 
z
M 1670 2796 
C 2259 2796 2694 2155 2694 1282 
C 2694 545 2368 83 1850 83 
C 1222 83 800 699 800 1609 
C 800 2379 1107 2796 1670 2796 
z
" id="URWPalladioL-Roma-6f" transform="scale(0.015625)"/>
      </defs>
      <use transform="scale(0.996264)" xlink:href="#URWPalladioL-Roma-48"/>
      <use transform="translate(82.888661 0)scale(0.996264)" xlink:href="#URWPalladioL-Roma-61"/>
      <use transform="translate(132.701861 0)scale(0.996264)" xlink:href="#URWPalladioL-Roma-6e"/>
      <use transform="translate(190.683922 0)scale(0.996264)" xlink:href="#URWPalladioL-Roma-6e"/>
      <use transform="translate(273.572583 0)scale(0.996264)" xlink:href="#URWPalladioL-Roma-77"/>
      <use transform="translate(356.660676 0)scale(0.996264)" xlink:href="#URWPalladioL-Roma-69"/>
      <use transform="translate(385.651038 0)scale(0.996264)" xlink:href="#URWPalladioL-Roma-6e"/>
      <use transform="translate(443.633098 0)scale(0.996264)" xlink:href="#URWPalladioL-Roma-64"/>
      <use transform="translate(504.504729 0)scale(0.996264)" xlink:href="#URWPalladioL-Roma-6f"/>
      <use transform="translate(558.900309 0)scale(0.996264)" xlink:href="#URWPalladioL-Roma-77"/>
     </g>
    </g>
   </g>
  </g>
  <g id="axes_2">
   <g id="patch_4">
    <path d="M 317.96357 193.19952 
L 577.19952 193.19952 
L 577.19952 39.312702 
L 317.96357 39.312702 
z
" style="fill:none;"/>
   </g>
   <g id="line2d_9">
    <path clip-path="url(#pa1e55a2c2c)" d="M 317.96357 161.555792 
L 317.96357 163.338473 
L 319.988851 163.338473 
L 319.988851 164.902885 
L 322.014132 164.902885 
L 322.014132 166.000671 
L 324.039413 166.000671 
L 324.039413 166.447079 
L 326.064694 166.447079 
L 326.064694 166.151345 
L 328.089975 166.151345 
L 328.089975 165.133719 
L 330.115256 165.133719 
L 330.115256 163.526123 
L 332.140536 163.526123 
L 332.140536 161.555792 
L 334.165817 161.555792 
L 334.165817 159.513813 
L 336.191098 159.513813 
L 336.191098 157.712834 
L 338.216379 157.712834 
L 338.216379 156.439988 
L 340.24166 156.439988 
L 340.24166 155.911999 
L 342.266941 155.911999 
L 342.266941 156.239369 
L 344.292222 156.239369 
L 344.292222 157.405397 
L 346.317502 157.405397 
L 346.317502 159.263774 
L 348.342783 159.263774 
L 348.342783 161.555792 
L 350.368064 161.555792 
L 350.368064 163.945343 
L 352.393345 163.945343 
L 352.393345 166.067091 
L 354.418626 166.067091 
L 354.418626 167.581072 
L 356.443907 167.581072 
L 356.443907 168.225729 
L 358.469188 168.225729 
L 358.469188 167.861318 
L 360.494468 167.861318 
L 360.494468 166.496738 
L 362.519749 166.496738 
L 362.519749 164.295033 
L 364.54503 164.295033 
L 364.54503 161.555792 
L 366.570311 161.555792 
L 366.570311 158.676077 
L 368.595592 158.676077 
L 368.595592 156.094747 
L 370.620873 156.094747 
L 370.620873 154.227749 
L 372.646154 154.227749 
L 372.646154 153.403647 
L 374.671434 153.403647 
L 374.671434 153.809004 
L 376.696715 153.809004 
L 376.696715 155.452271 
L 378.721996 155.452271 
L 378.721996 158.152493 
L 380.747277 158.152493 
L 380.747277 161.555792 
L 382.772558 161.555792 
L 382.772558 165.178659 
L 384.797839 165.178659 
L 384.797839 168.473117 
L 386.823119 168.473117 
L 386.823119 170.905364 
L 388.8484 170.905364 
L 388.8484 172.037121 
L 390.873681 172.037121 
L 390.873681 171.597925 
L 392.898962 171.597925 
L 392.898962 169.53732 
L 394.924243 169.53732 
L 394.924243 166.048147 
L 396.949524 166.048147 
L 396.949524 161.555792 
L 398.974805 161.555792 
L 398.974805 156.672798 
L 401.000085 156.672798 
L 401.000085 152.123077 
L 403.025366 152.123077 
L 403.025366 148.644478 
L 405.050647 148.644478 
L 405.050647 146.881931 
L 407.075928 146.881931 
L 407.075928 147.285392 
L 409.101209 147.285392 
L 409.101209 150.026918 
L 411.12649 150.026918 
L 411.12649 154.949388 
L 413.151771 154.949388 
L 413.151771 161.555792 
L 415.177051 161.555792 
L 415.177051 169.04305 
L 417.202332 169.04305 
L 417.202332 176.37863 
L 419.227613 176.37863 
L 419.227613 182.41253 
L 421.252894 182.41253 
L 421.252894 186.012227 
L 423.278175 186.012227 
L 423.278175 186.204665 
L 425.303456 186.204665 
L 425.303456 182.307765 
L 427.328737 182.307765 
L 427.328737 174.034555 
L 429.354017 174.034555 
L 429.354017 161.555792 
L 431.379298 161.555792 
L 431.379298 145.511668 
L 433.404579 145.511668 
L 433.404579 126.96917 
L 435.42986 126.96917 
L 435.42986 107.328273 
L 437.455141 107.328273 
L 437.455141 88.186487 
L 439.480422 88.186487 
L 439.480422 71.176593 
L 441.505703 71.176593 
L 441.505703 57.795926 
L 443.530983 57.795926 
L 443.530983 49.246922 
L 445.556264 49.246922 
L 445.556264 46.307557 
L 447.581545 46.307557 
L 447.581545 49.246922 
L 449.606826 49.246922 
L 449.606826 57.795926 
L 451.632107 57.795926 
L 451.632107 71.176593 
L 453.657388 71.176593 
L 453.657388 88.186487 
L 455.682669 88.186487 
L 455.682669 107.328273 
L 457.707949 107.328273 
L 457.707949 126.96917 
L 459.73323 126.96917 
L 459.73323 145.511668 
L 461.758511 145.511668 
L 461.758511 161.555792 
L 463.783792 161.555792 
L 463.783792 174.034555 
L 465.809073 174.034555 
L 465.809073 182.307765 
L 467.834354 182.307765 
L 467.834354 186.204665 
L 469.859635 186.204665 
L 469.859635 186.012227 
L 471.884915 186.012227 
L 471.884915 182.41253 
L 473.910196 182.41253 
L 473.910196 176.37863 
L 475.935477 176.37863 
L 475.935477 169.04305 
L 477.960758 169.04305 
L 477.960758 161.555792 
L 479.986039 161.555792 
L 479.986039 154.949388 
L 482.01132 154.949388 
L 482.01132 150.026918 
L 484.036601 150.026918 
L 484.036601 147.285392 
L 486.061881 147.285392 
L 486.061881 146.881931 
L 488.087162 146.881931 
L 488.087162 148.644478 
L 490.112443 148.644478 
L 490.112443 152.123077 
L 492.137724 152.123077 
L 492.137724 156.672798 
L 494.163005 156.672798 
L 494.163005 161.555792 
L 496.188286 161.555792 
L 496.188286 166.048147 
L 498.213567 166.048147 
L 498.213567 169.53732 
L 500.238847 169.53732 
L 500.238847 171.597925 
L 502.264128 171.597925 
L 502.264128 172.037121 
L 504.289409 172.037121 
L 504.289409 170.905364 
L 506.31469 170.905364 
L 506.31469 168.473117 
L 508.339971 168.473117 
L 508.339971 165.178659 
L 510.365252 165.178659 
L 510.365252 161.555792 
L 512.390533 161.555792 
L 512.390533 158.152493 
L 514.415813 158.152493 
L 514.415813 155.452271 
L 516.441094 155.452271 
L 516.441094 153.809004 
L 518.466375 153.809004 
L 518.466375 153.403647 
L 520.491656 153.403647 
L 520.491656 154.227749 
L 522.516937 154.227749 
L 522.516937 156.094747 
L 524.542218 156.094747 
L 524.542218 158.676077 
L 526.567499 158.676077 
L 526.567499 161.555792 
L 528.592779 161.555792 
L 528.592779 164.295033 
L 530.61806 164.295033 
L 530.61806 166.496738 
L 532.643341 166.496738 
L 532.643341 167.861318 
L 534.668622 167.861318 
L 534.668622 168.225729 
L 536.693903 168.225729 
L 536.693903 167.581072 
L 538.719184 167.581072 
L 538.719184 166.067091 
L 540.744465 166.067091 
L 540.744465 163.945343 
L 542.769745 163.945343 
L 542.769745 161.555792 
L 544.795026 161.555792 
L 544.795026 159.263774 
L 546.820307 159.263774 
L 546.820307 157.405397 
L 548.845588 157.405397 
L 548.845588 156.239369 
L 550.870869 156.239369 
L 550.870869 155.911999 
L 552.89615 155.911999 
L 552.89615 156.439988 
L 554.921431 156.439988 
L 554.921431 157.712834 
L 556.946711 157.712834 
L 556.946711 159.513813 
L 558.971992 159.513813 
L 558.971992 161.555792 
L 560.997273 161.555792 
L 560.997273 163.526123 
L 563.022554 163.526123 
L 563.022554 165.133719 
L 565.047835 165.133719 
L 565.047835 166.151345 
L 567.073116 166.151345 
L 567.073116 166.447079 
L 569.098397 166.447079 
L 569.098397 166.000671 
L 571.123677 166.000671 
L 571.123677 164.902885 
L 573.148958 164.902885 
L 573.148958 163.338473 
L 575.174239 163.338473 
L 575.174239 161.555792 
L 577.19952 161.555792 
L 577.19952 161.555792 
" style="fill:none;stroke:#0271ae;stroke-linejoin:miter;stroke-opacity:0.5;stroke-width:2;"/>
   </g>
   <g id="matplotlib.axis_3"/>
   <g id="matplotlib.axis_4">
    <g id="ytick_2">
     <g id="line2d_10">
      <path clip-path="url(#pa1e55a2c2c)" d="M 317.96357 161.555792 
L 577.19952 161.555792 
" style="fill:none;stroke:#000000;stroke-linejoin:miter;stroke-opacity:0.2;stroke-width:0.5;"/>
     </g>
     <g id="line2d_11">
      <g>
       <use style="fill-opacity:0.2;stroke:#000000;stroke-opacity:0.2;stroke-width:0.8;" x="317.96357" xlink:href="#mf04948f9dd" y="161.555792"/>
      </g>
     </g>
    </g>
   </g>
   <g id="line2d_12">
    <path clip-path="url(#pa1e55a2c2c)" d="M 317.96357 161.555792 
L 317.96357 161.556839 
L 336.191098 161.460228 
L 336.191098 161.334605 
L 338.216379 161.334605 
L 338.216379 161.201017 
L 342.266941 161.092162 
L 342.266941 161.045815 
L 346.317502 161.096576 
L 346.317502 161.266377 
L 348.342783 161.266377 
L 348.342783 161.555792 
L 350.368064 161.555792 
L 350.368064 161.938349 
L 352.393345 161.938349 
L 352.393345 162.359759 
L 354.418626 162.359759 
L 354.418626 162.743211 
L 356.443907 162.743211 
L 356.443907 163.000723 
L 360.494468 163.049233 
L 360.494468 162.828891 
L 362.519749 162.828891 
L 362.519749 162.320131 
L 364.54503 162.320131 
L 364.54503 161.555792 
L 366.570311 161.555792 
L 366.570311 160.62499 
L 368.595592 160.62499 
L 368.595592 159.666573 
L 370.620873 159.666573 
L 370.620873 158.851725 
L 372.646154 158.851725 
L 372.646154 158.357329 
L 376.696715 158.333757 
L 376.696715 158.872296 
L 378.721996 158.872296 
L 378.721996 159.978283 
L 380.747277 159.978283 
L 380.747277 161.555792 
L 382.772558 161.555792 
L 382.772558 163.408377 
L 384.797839 163.408377 
L 384.797839 165.258074 
L 386.823119 165.258074 
L 386.823119 166.781864 
L 388.8484 166.781864 
L 388.8484 167.661547 
L 392.898962 167.640118 
L 392.898962 166.575678 
L 394.924243 166.575678 
L 394.924243 164.483259 
L 396.949524 164.483259 
L 396.949524 161.555792 
L 398.974805 161.555792 
L 398.974805 158.157964 
L 401.000085 158.157964 
L 401.000085 154.790465 
L 403.025366 154.790465 
L 403.025366 152.026776 
L 405.050647 152.026776 
L 405.050647 150.42935 
L 409.101209 150.456137 
L 409.101209 152.371076 
L 411.12649 152.371076 
L 411.12649 156.172981 
L 413.151771 156.172981 
L 413.151771 161.555792 
L 415.177051 161.555792 
L 415.177051 167.909564 
L 417.202332 167.909564 
L 417.202332 174.366258 
L 419.227613 174.366258 
L 419.227613 179.887983 
L 421.252894 179.887983 
L 421.252894 183.388879 
L 423.278175 183.388879 
L 423.278175 183.876173 
L 425.303456 183.876173 
L 425.303456 180.592117 
L 427.328737 180.592117 
L 427.328737 173.137119 
L 429.354017 173.137119 
L 429.354017 161.555792 
L 431.379298 161.555792 
L 431.379298 146.371815 
L 433.404579 146.371815 
L 433.404579 128.563841 
L 435.42986 128.563841 
L 435.42986 109.482489 
L 437.455141 109.482489 
L 437.455141 90.716522 
L 439.480422 90.716522 
L 439.480422 73.923518 
L 441.505703 73.923518 
L 441.505703 60.645658 
L 443.530983 60.645658 
L 443.530983 52.133784 
L 445.556264 52.133784 
L 445.556264 49.202307 
L 447.581545 49.202307 
L 447.581545 52.133784 
L 449.606826 52.133784 
L 449.606826 60.645658 
L 451.632107 60.645658 
L 451.632107 73.923518 
L 453.657388 73.923518 
L 453.657388 90.716522 
L 455.682669 90.716522 
L 455.682669 109.482489 
L 457.707949 109.482489 
L 457.707949 128.563841 
L 459.73323 128.563841 
L 459.73323 146.371815 
L 461.758511 146.371815 
L 461.758511 161.555792 
L 463.783792 161.555792 
L 463.783792 173.137119 
L 465.809073 173.137119 
L 465.809073 180.592117 
L 467.834354 180.592117 
L 467.834354 183.876173 
L 469.859635 183.876173 
L 469.859635 183.388879 
L 471.884915 183.388879 
L 471.884915 179.887983 
L 473.910196 179.887983 
L 473.910196 174.366258 
L 475.935477 174.366258 
L 475.935477 167.909564 
L 477.960758 167.909564 
L 477.960758 161.555792 
L 479.986039 161.555792 
L 479.986039 156.172981 
L 482.01132 156.172981 
L 482.01132 152.371076 
L 484.036601 152.371076 
L 484.036601 150.456137 
L 488.087162 150.42935 
L 488.087162 152.026776 
L 490.112443 152.026776 
L 490.112443 154.790465 
L 492.137724 154.790465 
L 492.137724 158.157964 
L 494.163005 158.157964 
L 494.163005 161.555792 
L 496.188286 161.555792 
L 496.188286 164.483259 
L 498.213567 164.483259 
L 498.213567 166.575678 
L 500.238847 166.575678 
L 500.238847 167.640118 
L 504.289409 167.661547 
L 504.289409 166.781864 
L 506.31469 166.781864 
L 506.31469 165.258074 
L 508.339971 165.258074 
L 508.339971 163.408377 
L 510.365252 163.408377 
L 510.365252 161.555792 
L 512.390533 161.555792 
L 512.390533 159.978283 
L 514.415813 159.978283 
L 514.415813 158.872296 
L 516.441094 158.872296 
L 516.441094 158.333757 
L 520.491656 158.357329 
L 520.491656 158.851725 
L 522.516937 158.851725 
L 522.516937 159.666573 
L 524.542218 159.666573 
L 524.542218 160.62499 
L 526.567499 160.62499 
L 526.567499 161.555792 
L 528.592779 161.555792 
L 528.592779 162.320131 
L 530.61806 162.320131 
L 530.61806 162.828891 
L 532.643341 162.828891 
L 532.643341 163.049233 
L 536.693903 163.000723 
L 536.693903 162.743211 
L 538.719184 162.743211 
L 538.719184 162.359759 
L 540.744465 162.359759 
L 540.744465 161.938349 
L 542.769745 161.938349 
L 542.769745 161.555792 
L 544.795026 161.555792 
L 544.795026 161.266377 
L 546.820307 161.266377 
L 546.820307 161.096576 
L 554.921431 161.201017 
L 554.921431 161.334605 
L 556.946711 161.334605 
L 556.946711 161.460228 
L 560.997273 161.555792 
L 560.997273 161.611934 
L 577.19952 161.555792 
L 577.19952 161.555792 
" style="fill:none;stroke:#6e3b87;stroke-linejoin:miter;stroke-width:2;"/>
   </g>
   <g id="legend_2">
    <g id="patch_5">
     <path d="M 323.225621 32.312702 
L 567.39952 32.312702 
Q 570.19952 32.312702 570.19952 29.512702 
L 570.19952 10 
Q 570.19952 7.2 567.39952 7.2 
L 323.225621 7.2 
Q 320.425621 7.2 320.425621 10 
L 320.425621 29.512702 
Q 320.425621 32.312702 323.225621 32.312702 
z
" style="fill:#ffffff;opacity:0.95;stroke:#cccccc;stroke-linejoin:miter;stroke-width:0.5;"/>
    </g>
    <g id="line2d_13">
     <path d="M 326.025621 17.879529 
L 340.025621 17.879529 
" style="fill:none;stroke:#6e3b87;stroke-linejoin:miter;stroke-width:2;"/>
    </g>
    <g id="line2d_14"/>
    <g id="text_4">
     <!-- Windowed filter -->
     <g style="fill:#6e3b87;" transform="translate(351.225621 22.779529)scale(0.14 -0.14)">
      <defs>
       <path d="M 4698 -64 
C 4723 32 4742 121 4749 153 
C 4768 217 4819 410 4870 583 
L 5850 4031 
C 5888 4146 5952 4204 6093 4217 
L 6298 4236 
L 6298 4428 
L 5626 4409 
C 5562 4409 5562 4409 4954 4428 
L 4954 4236 
L 5210 4217 
C 5434 4197 5504 4165 5510 4063 
C 5510 4044 5510 4024 5504 4005 
L 4659 871 
L 3610 3826 
C 3469 4210 3450 4262 3398 4480 
L 3194 4480 
C 3059 4082 2950 3794 2618 2935 
L 1824 916 
L 1184 3794 
C 1165 3871 1158 3941 1158 4005 
C 1158 4146 1222 4204 1395 4217 
L 1664 4236 
L 1664 4428 
L 858 4409 
C 813 4409 544 4415 51 4428 
L 51 4236 
L 230 4217 
C 416 4197 493 4127 550 3896 
L 1312 595 
C 1395 230 1395 224 1459 -64 
L 1779 -64 
C 1837 140 1888 294 2010 595 
L 3123 3428 
L 3923 1256 
C 4134 685 4154 634 4378 -64 
L 4698 -64 
z
" id="URWPalladioL-Roma-57" transform="scale(0.015625)"/>
       <path d="M 2182 4601 
C 2048 4652 1971 4672 1888 4672 
C 1683 4672 1459 4563 1318 4403 
L 947 3981 
C 762 3770 678 3482 678 3060 
L 678 2792 
L 237 2594 
L 237 2453 
L 678 2479 
L 678 671 
C 678 268 659 223 442 211 
L 147 192 
L 147 0 
C 787 0 787 0 954 0 
C 1107 19 1286 12 1786 0 
L 1786 192 
L 1453 211 
C 1235 223 1216 268 1216 669 
L 1216 2472 
L 1946 2472 
L 1990 2810 
L 1216 2784 
L 1216 3329 
C 1216 4069 1299 4249 1664 4249 
C 1837 4249 1952 4204 2106 4069 
L 2182 4107 
L 2182 4601 
z
M 3226 2963 
L 3168 3008 
C 2886 2867 2547 2778 2170 2733 
L 2170 2555 
L 2406 2555 
C 2662 2555 2688 2510 2688 2090 
L 2688 669 
C 2688 268 2669 223 2451 211 
L 2157 192 
L 2157 0 
C 2797 0 2797 0 2957 0 
C 3117 19 3117 19 3757 0 
L 3757 192 
L 3462 211 
C 3245 224 3226 268 3226 671 
L 3226 2963 
z
M 2989 4416 
C 2797 4416 2630 4249 2630 4057 
C 2630 3871 2797 3705 2982 3705 
C 3168 3705 3341 3871 3341 4057 
C 3341 4236 3168 4416 2989 4416 
z
" id="URWPalladioL-Roma-2" transform="scale(0.015625)"/>
       <path d="M 627 2457 
L 627 614 
C 627 140 838 -64 1331 -64 
C 1478 -64 1632 -32 1670 12 
L 1978 352 
L 1894 460 
C 1734 371 1638 339 1517 339 
C 1267 339 1165 467 1165 780 
L 1165 2457 
L 1984 2457 
L 2042 2803 
L 1165 2764 
L 1165 3008 
C 1165 3277 1184 3507 1235 3917 
L 1158 3987 
C 1005 3891 813 3808 614 3744 
C 634 3552 640 3430 640 3238 
L 640 2790 
L 141 2566 
L 141 2432 
L 627 2457 
z
" id="URWPalladioL-Roma-74" transform="scale(0.015625)"/>
       <path d="M 147 2579 
L 384 2579 
C 640 2579 666 2534 666 2112 
L 666 672 
C 666 268 646 224 429 211 
L 134 192 
L 134 0 
C 595 -7 762 0 922 0 
C 1050 19 1050 19 1837 0 
L 1837 192 
L 1504 211 
C 1216 230 1203 249 1203 669 
L 1203 1763 
C 1203 2145 1459 2463 1773 2463 
C 1965 2463 2099 2374 2202 2171 
L 2336 2171 
L 2394 2937 
C 2323 2982 2208 3008 2093 3008 
C 1901 3008 1696 2905 1562 2745 
L 1203 2324 
L 1203 2982 
L 1146 3008 
C 819 2873 486 2783 147 2745 
L 147 2579 
z
" id="URWPalladioL-Roma-72" transform="scale(0.015625)"/>
      </defs>
      <use transform="scale(0.996264)" xlink:href="#URWPalladioL-Roma-57"/>
      <use transform="translate(94.147679 0)scale(0.996264)" xlink:href="#URWPalladioL-Roma-69"/>
      <use transform="translate(123.13804 0)scale(0.996264)" xlink:href="#URWPalladioL-Roma-6e"/>
      <use transform="translate(181.120101 0)scale(0.996264)" xlink:href="#URWPalladioL-Roma-64"/>
      <use transform="translate(241.991731 0)scale(0.996264)" xlink:href="#URWPalladioL-Roma-6f"/>
      <use transform="translate(296.387312 0)scale(0.996264)" xlink:href="#URWPalladioL-Roma-77"/>
      <use transform="translate(379.475405 0)scale(0.996264)" xlink:href="#URWPalladioL-Roma-65"/>
      <use transform="translate(427.1957 0)scale(0.996264)" xlink:href="#URWPalladioL-Roma-64"/>
      <use transform="translate(512.973931 0)scale(0.996264)" xlink:href="#URWPalladioL-Roma-2"/>
      <use transform="translate(573.247189 0)scale(0.996264)" xlink:href="#URWPalladioL-Roma-6c"/>
      <use transform="translate(602.23755 0)scale(0.996264)" xlink:href="#URWPalladioL-Roma-74"/>
      <use transform="translate(634.714638 0)scale(0.996264)" xlink:href="#URWPalladioL-Roma-65"/>
      <use transform="translate(682.434933 0)scale(0.996264)" xlink:href="#URWPalladioL-Roma-72"/>
     </g>
    </g>
    <g id="line2d_15">
     <path d="M 480.275729 17.879529 
L 494.275729 17.879529 
" style="fill:none;stroke:#0271ae;stroke-linejoin:miter;stroke-opacity:0.5;stroke-width:2;"/>
    </g>
    <g id="line2d_16"/>
    <g id="text_5">
     <!-- Ideal LPF -->
     <g style="fill:#0271ae;" transform="translate(505.475729 22.779529)scale(0.14 -0.14)">
      <use transform="scale(0.996264)" xlink:href="#URWPalladioL-Roma-49"/>
      <use transform="translate(33.574079 0)scale(0.996264)" xlink:href="#URWPalladioL-Roma-64"/>
      <use transform="translate(94.44571 0)scale(0.996264)" xlink:href="#URWPalladioL-Roma-65"/>
      <use transform="translate(142.166005 0)scale(0.996264)" xlink:href="#URWPalladioL-Roma-61"/>
      <use transform="translate(191.979205 0)scale(0.996264)" xlink:href="#URWPalladioL-Roma-6c"/>
      <use transform="translate(245.876167 0)scale(0.996264)" xlink:href="#URWPalladioL-Roma-4c"/>
      <use transform="translate(306.747798 0)scale(0.996264)" xlink:href="#URWPalladioL-Roma-50"/>
      <use transform="translate(366.921393 0)scale(0.996264)" xlink:href="#URWPalladioL-Roma-46"/>
     </g>
    </g>
   </g>
  </g>
 </g>
 <defs>
  <clipPath id="p80091a40de">
   <rect height="153.886818" width="259.23595" x="29.673848" y="39.312702"/>
  </clipPath>
  <clipPath id="pa1e55a2c2c">
   <rect height="153.886818" width="259.23595" x="317.96357" y="39.312702"/>
  </clipPath>
 </defs>
</svg>
