<?xml version="1.0" encoding="utf-8" standalone="no"?>
<!DOCTYPE svg PUBLIC "-//W3C//DTD SVG 1.1//EN"
  "http://www.w3.org/Graphics/SVG/1.1/DTD/svg11.dtd">
<svg height="211.668649pt" version="1.1" viewBox="0 0 584.39952 211.668649" width="584.39952pt" xmlns="http://www.w3.org/2000/svg" xmlns:xlink="http://www.w3.org/1999/xlink">
 <metadata>
  <rdf:RDF xmlns:cc="http://creativecommons.org/ns#" xmlns:dc="http://purl.org/dc/elements/1.1/" xmlns:rdf="http://www.w3.org/1999/02/22-rdf-syntax-ns#">
   <cc:Work>
    <dc:type rdf:resource="http://purl.org/dc/dcmitype/StillImage"/>
    <dc:date>2020-08-12T07:43:47.177842</dc:date>
    <dc:format>image/svg+xml</dc:format>
    <dc:creator>
     <cc:Agent>
      <dc:title>Matplotlib v3.3.0rc1.post382+g019a75231, https://matplotlib.org/</dc:title>
     </cc:Agent>
    </dc:creator>
   </cc:Work>
  </rdf:RDF>
 </metadata>
 <defs>
  <style type="text/css">*{stroke-linecap:butt;stroke-linejoin:round;}</style>
 </defs>
 <g id="figure_1">
  <g id="patch_1">
   <path d="M 0 211.668649 
L 584.39952 211.668649 
L 584.39952 0 
L 0 0 
z
" style="fill:none;"/>
  </g>
  <g id="axes_1">
   <g id="patch_2">
    <path d="M 45.599008 159.130787 
L 457.220526 159.130787 
L 457.220526 7.2 
L 45.599008 7.2 
z
" style="fill:none;"/>
   </g>
   <g id="matplotlib.axis_1">
    <g id="xtick_1">
     <g id="line2d_1">
      <path clip-path="url(#pae0b53d37a)" d="M 62.23018 159.130787 
L 62.23018 7.2 
" style="fill:none;stroke:#000000;stroke-linecap:square;stroke-opacity:0.2;stroke-width:0.5;"/>
     </g>
     <g id="line2d_2">
      <defs>
       <path d="M 0 0 
L 0 3.5 
" id="mcb696ebfc1" style="stroke:#000000;stroke-opacity:0.2;stroke-width:0.8;"/>
      </defs>
      <g>
       <use style="fill-opacity:0.2;stroke:#000000;stroke-opacity:0.2;stroke-width:0.8;" x="62.23018" xlink:href="#mcb696ebfc1" y="159.130787"/>
      </g>
     </g>
     <g id="text_1">
      <!-- 1 -->
      <g transform="translate(58.743256 184.610317)scale(0.14 -0.14)">
       <defs>
        <path d="M 6.703125 56 
L 7.703125 56 
L 20.59375 61.8125 
C 20.703125 61.90625 20.796875 61.90625 20.90625 61.90625 
C 21.5 61.90625 21.703125 61.015625 21.703125 58.609375 
L 21.703125 9.578125 
C 21.703125 4.3125 20.59375 3.203125 15.203125 3.203125 
L 9.59375 3.203125 
L 9.59375 0 
C 25 0 25 0 26.09375 0 
C 27.40625 0 29.59375 0 33 0 
C 34.203125 0 37.703125 0 41.796875 0 
L 41.796875 3.203125 
L 36.59375 3.203125 
C 31.09375 3.203125 30.09375 4.3125 30.09375 9.5625 
L 30.09375 69.421875 
L 28.703125 69.921875 
C 22.203125 66.515625 15.09375 63.515625 6 60.3125 
z
" id="URW_Palladio_L_Roman-49"/>
       </defs>
       <use transform="scale(0.996264)" xlink:href="#URW_Palladio_L_Roman-49"/>
      </g>
     </g>
    </g>
    <g id="xtick_2">
     <g id="line2d_3">
      <path clip-path="url(#pae0b53d37a)" d="M 83.019146 159.130787 
L 83.019146 7.2 
" style="fill:none;stroke:#000000;stroke-linecap:square;stroke-opacity:0.2;stroke-width:0.5;"/>
     </g>
     <g id="line2d_4">
      <g>
       <use style="fill-opacity:0.2;stroke:#000000;stroke-opacity:0.2;stroke-width:0.8;" x="83.019146" xlink:href="#mcb696ebfc1" y="159.130787"/>
      </g>
     </g>
     <g id="text_2">
      <!-- 2 -->
      <g transform="translate(79.532222 184.610317)scale(0.14 -0.14)">
       <defs>
        <path d="M 1.59375 2.5 
L 1.59375 0 
C 20.296875 0 20.296875 0 23.90625 0 
C 27.5 0 27.5 0 46.796875 0 
C 46.59375 1.953125 46.59375 2.90625 46.59375 4.203125 
C 46.59375 5.4375 46.59375 6.359375 46.796875 8.421875 
C 35.296875 8.421875 30.703125 8.421875 12.203125 8.421875 
L 30.40625 27.515625 
C 40.09375 37.71875 43.09375 43.171875 43.09375 50.59375 
C 43.09375 61.96875 35.296875 69 22.59375 69 
C 15.40625 69 10.5 67 5.59375 62.015625 
L 3.90625 48.421875 
L 6.796875 48.421875 
L 8.09375 53.015625 
C 9.703125 58.796875 13.296875 61.296875 20 61.296875 
C 28.59375 61.296875 34.09375 55.890625 34.09375 47.421875 
C 34.09375 39.921875 29.90625 32.546875 18.59375 20.5625 
z
" id="URW_Palladio_L_Roman-50"/>
       </defs>
       <use transform="scale(0.996264)" xlink:href="#URW_Palladio_L_Roman-50"/>
      </g>
     </g>
    </g>
    <g id="xtick_3">
     <g id="line2d_5">
      <path clip-path="url(#pae0b53d37a)" d="M 97.951482 159.130787 
L 97.951482 7.2 
" style="fill:none;stroke:#000000;stroke-linecap:square;stroke-opacity:0.2;stroke-width:0.5;"/>
     </g>
     <g id="line2d_6">
      <g>
       <use style="fill-opacity:0.2;stroke:#000000;stroke-opacity:0.2;stroke-width:0.8;" x="97.951482" xlink:href="#mcb696ebfc1" y="159.130787"/>
      </g>
     </g>
     <g id="text_3">
      <!-- $e$ -->
      <g transform="translate(95.238724 184.610317)scale(0.14 -0.14)">
       <defs>
        <path d="M 32.796875 11.125 
L 30.40625 9.4375 
C 25.09375 5.671875 20.296875 3.671875 16.703125 3.671875 
C 12 3.671875 9.09375 7.359375 9.09375 13.328125 
C 9.09375 15.796875 9.40625 18.484375 9.90625 21.375 
L 18.09375 23.34375 
C 19.796875 23.75 22.5 24.75 25 25.84375 
C 33.5 29.515625 37.40625 34.09375 37.40625 40.25 
C 37.40625 44.90625 34 48 29 48 
C 22.5 48 11.40625 41.140625 7.5 34.78125 
C 4.5 29.8125 1.5 17.984375 1.5 11.3125 
C 1.5 3.5625 5.90625 -1 13.09375 -1 
C 18.796875 -1 24.40625 1.78125 33.59375 9.234375 
z
M 11.296875 27.3125 
C 13 34.171875 15 38.453125 17.90625 41.03125 
C 19.703125 42.625 22.796875 43.8125 25.203125 43.8125 
C 28.09375 43.8125 30 41.828125 30 38.65625 
C 30 34.265625 26.5 29.609375 21.296875 27.109375 
C 18.5 25.734375 14.90625 24.640625 10.40625 23.640625 
z
" id="URW_Palladio_L_Italic-101"/>
       </defs>
       <use transform="scale(0.996264)" xlink:href="#URW_Palladio_L_Italic-101"/>
      </g>
     </g>
    </g>
    <g id="xtick_4">
     <g id="line2d_7">
      <path clip-path="url(#pae0b53d37a)" d="M 124.597077 159.130787 
L 124.597077 7.2 
" style="fill:none;stroke:#000000;stroke-linecap:square;stroke-opacity:0.2;stroke-width:0.5;"/>
     </g>
     <g id="line2d_8">
      <g>
       <use style="fill-opacity:0.2;stroke:#000000;stroke-opacity:0.2;stroke-width:0.8;" x="124.597077" xlink:href="#mcb696ebfc1" y="159.130787"/>
      </g>
     </g>
     <g id="text_4">
      <!-- 4 -->
      <g transform="translate(121.110153 184.610317)scale(0.14 -0.14)">
       <defs>
        <path d="M 28 18 
L 28 10.515625 
C 28 4.515625 26.90625 3.109375 22 3.109375 
L 15.796875 3.109375 
L 15.796875 0 
C 29.09375 0 29.09375 0 31.5 0 
C 33.90625 0 33.90625 0 47.203125 0 
L 47.203125 3.109375 
L 42.40625 3.109375 
C 37.5 3.109375 36.40625 4.40625 36.40625 10.453125 
L 36.40625 18 
C 42.296875 18 44.40625 18 47.203125 17.703125 
L 47.203125 24.8125 
C 42.5 24.421875 40.59375 24.421875 39.09375 24.421875 
L 38.796875 24.421875 
L 36.40625 24.421875 
L 36.40625 38.390625 
C 36.40625 56.25 36.59375 64.875 37.09375 69 
L 35.90625 69.5 
L 28.5 66.796875 
L 0.203125 20.296875 
L 1.296875 18 
z
M 28 24.421875 
L 6.5 24.421875 
L 28 59.78125 
z
" id="URW_Palladio_L_Roman-52"/>
       </defs>
       <use transform="scale(0.996264)" xlink:href="#URW_Palladio_L_Roman-52"/>
      </g>
     </g>
    </g>
    <g id="xtick_5">
     <g id="line2d_9">
      <path clip-path="url(#pae0b53d37a)" d="M 207.752939 159.130787 
L 207.752939 7.2 
" style="fill:none;stroke:#000000;stroke-linecap:square;stroke-opacity:0.2;stroke-width:0.5;"/>
     </g>
     <g id="line2d_10">
      <g>
       <use style="fill-opacity:0.2;stroke:#000000;stroke-opacity:0.2;stroke-width:0.8;" x="207.752939" xlink:href="#mcb696ebfc1" y="159.130787"/>
      </g>
     </g>
     <g id="text_5">
      <!-- 8 -->
      <g transform="translate(204.266015 184.610317)scale(0.14 -0.14)">
       <defs>
        <path d="M 16.796875 34.546875 
C 12.703125 32.65625 11 31.546875 8.796875 29.4375 
C 5 25.640625 3 21.125 3 15.921875 
C 3 5.609375 11.296875 -2 22.59375 -2 
C 35.59375 -2 46.40625 8.21875 46.40625 20.625 
C 46.40625 28.640625 42.703125 32.953125 31.296875 38.15625 
C 40.40625 44.375 43.59375 48.578125 43.59375 54.578125 
C 43.59375 63.1875 36.5 69 25.90625 69 
C 14 69 5.296875 61.390625 5.296875 50.890625 
C 5.296875 44.078125 8 40.265625 16.796875 34.546875 
z
M 28.40625 29.546875 
C 34.703125 26.734375 38.5 21.828125 38.5 16.4375 
C 38.5 8.015625 32.203125 1.40625 24.09375 1.40625 
C 15.59375 1.40625 10.09375 7.421875 10.09375 16.734375 
C 10.09375 24.03125 13 28.640625 20.40625 33.15625 
z
M 22.296875 42.375 
C 16 45.46875 12.796875 49.484375 12.796875 54.484375 
C 12.796875 61.09375 17.59375 65.59375 24.703125 65.59375 
C 32 65.59375 36.796875 60.796875 36.796875 53.46875 
C 36.796875 47.78125 34.296875 43.875 27.796875 39.65625 
z
" id="URW_Palladio_L_Roman-56"/>
       </defs>
       <use transform="scale(0.996264)" xlink:href="#URW_Palladio_L_Roman-56"/>
      </g>
     </g>
    </g>
    <g id="xtick_6">
     <g id="line2d_11">
      <path clip-path="url(#pae0b53d37a)" d="M 249.33087 159.130787 
L 249.33087 7.2 
" style="fill:none;stroke:#000000;stroke-linecap:square;stroke-opacity:0.2;stroke-width:0.5;"/>
     </g>
     <g id="line2d_12">
      <g>
       <use style="fill-opacity:0.2;stroke:#000000;stroke-opacity:0.2;stroke-width:0.8;" x="249.33087" xlink:href="#mcb696ebfc1" y="159.130787"/>
      </g>
     </g>
     <g id="text_6">
      <!-- 10 -->
      <g transform="translate(242.357022 184.610317)scale(0.14 -0.14)">
       <defs>
        <path d="M 26.296875 69 
C 10.796875 69 2.90625 56.6875 2.90625 32.453125 
C 2.90625 20.71875 5 10.625 8.5 5.71875 
C 12 0.796875 17.59375 -2 23.796875 -2 
C 38.90625 -2 46.5 11.015625 46.5 36.65625 
C 46.5 58.578125 40 69 26.296875 69 
z
M 24.5 65.5 
C 34.203125 65.5 38.09375 55.6875 38.09375 31.640625 
C 38.09375 10.328125 34.296875 1.5 25.09375 1.5 
C 15.40625 1.5 11.296875 11.625 11.296875 36.0625 
C 11.296875 57.1875 15 65.5 24.5 65.5 
z
" id="URW_Palladio_L_Roman-48"/>
       </defs>
       <use transform="scale(0.996264)" xlink:href="#URW_Palladio_L_Roman-49"/>
       <use transform="translate(49.8132 0)scale(0.996264)" xlink:href="#URW_Palladio_L_Roman-48"/>
      </g>
     </g>
    </g>
    <g id="xtick_7">
     <g id="line2d_13">
      <path clip-path="url(#pae0b53d37a)" d="M 374.064664 159.130787 
L 374.064664 7.2 
" style="fill:none;stroke:#000000;stroke-linecap:square;stroke-opacity:0.2;stroke-width:0.5;"/>
     </g>
     <g id="line2d_14">
      <g>
       <use style="fill-opacity:0.2;stroke:#000000;stroke-opacity:0.2;stroke-width:0.8;" x="374.064664" xlink:href="#mcb696ebfc1" y="159.130787"/>
      </g>
     </g>
     <g id="text_7">
      <!-- 16 -->
      <g transform="translate(367.090816 184.610317)scale(0.14 -0.14)">
       <defs>
        <path d="M 41.59375 67.34375 
L 37.90625 69.046875 
C 28.296875 65.84375 24.203125 63.84375 19.09375 59.4375 
C 8.796875 50.71875 3.203125 38.5 3.203125 24.765625 
C 3.203125 8.21875 11.203125 -2 24.09375 -2 
C 37.09375 -2 46.796875 8.3125 46.796875 21.953125 
C 46.796875 33.484375 39.90625 41 29.296875 41 
C 24.296875 41 21.296875 39.6875 15.40625 34.984375 
C 14.296875 34.078125 14.203125 33.984375 13.09375 33.1875 
C 15.203125 51.3125 23.59375 61.140625 41.59375 66.546875 
z
M 25.5 34.984375 
C 33.09375 34.984375 38.203125 28.375 38.203125 18.453125 
C 38.203125 8.015625 33.09375 1.296875 25.40625 1.296875 
C 16.90625 1.296875 12.296875 8.609375 12.296875 22.0625 
C 12.296875 25.5625 12.703125 27.46875 13.796875 29.171875 
C 16 32.578125 20.703125 34.984375 25.5 34.984375 
z
" id="URW_Palladio_L_Roman-54"/>
       </defs>
       <use transform="scale(0.996264)" xlink:href="#URW_Palladio_L_Roman-49"/>
       <use transform="translate(49.8132 0)scale(0.996264)" xlink:href="#URW_Palladio_L_Roman-54"/>
      </g>
     </g>
    </g>
    <g id="xtick_8">
     <g id="line2d_15">
      <path clip-path="url(#pae0b53d37a)" d="M 457.220526 159.130787 
L 457.220526 7.2 
" style="fill:none;stroke:#000000;stroke-linecap:square;stroke-opacity:0.2;stroke-width:0.5;"/>
     </g>
     <g id="line2d_16">
      <g>
       <use style="fill-opacity:0.2;stroke:#000000;stroke-opacity:0.2;stroke-width:0.8;" x="457.220526" xlink:href="#mcb696ebfc1" y="159.130787"/>
      </g>
     </g>
     <g id="text_8">
      <!-- 20 -->
      <g transform="translate(450.246678 184.610317)scale(0.14 -0.14)">
       <use transform="scale(0.996264)" xlink:href="#URW_Palladio_L_Roman-50"/>
       <use transform="translate(49.8132 0)scale(0.996264)" xlink:href="#URW_Palladio_L_Roman-48"/>
      </g>
     </g>
    </g>
    <g id="text_9">
     <!-- $x$ -->
     <g transform="translate(248.420975 201.097365)scale(0.12 -0.12)">
      <defs>
       <path d="M 2.09375 8.84375 
C 2.09375 6.84375 1.90625 5.578125 1.296875 2.390625 
C 1.09375 1.203125 1 0.90625 0.90625 0.203125 
C 2.40625 -0.609375 4 -1 5.203125 -1 
C 8.5 -1 12.40625 1.890625 15.5 6.546875 
L 23.09375 18.1875 
L 24.203125 11.328125 
C 25.5 2.875 27.796875 -1 31.40625 -1 
C 33.59375 -1 36.796875 0.6875 40 3.578125 
L 44.90625 7.953125 
L 44 9.84375 
C 40.40625 6.859375 37.90625 5.375 36.296875 5.375 
C 34.796875 5.375 33.5 6.375 32.5 8.34375 
C 31.59375 10.234375 30.5 13.90625 30 16.796875 
L 28.203125 26.8125 
L 31.703125 31.6875 
C 36.40625 38.140625 39.09375 40.421875 42.203125 40.421875 
C 43.796875 40.421875 45 39.625 45.5 38.140625 
L 46.90625 38.53125 
L 48.40625 47 
C 47.203125 47.703125 46.296875 48 45.40625 48 
C 41.40625 48 37.40625 44.40625 31.203125 35.265625 
L 27.5 29.796875 
L 26.90625 34.5625 
C 25.703125 44.40625 23 48 17.09375 48 
C 14.5 48 12.296875 47.203125 11.40625 45.90625 
L 5.59375 37.640625 
L 7.296875 36.65625 
C 10.296875 40.03125 12.296875 41.421875 14.203125 41.421875 
C 17.5 41.421875 19.703125 37.359375 21.40625 27.609375 
L 22.5 21.453125 
L 18.5 15.265625 
C 14.203125 8.578125 10.796875 5.375 8 5.375 
C 6.5 5.375 5.40625 5.796875 5.203125 6.296875 
L 4.09375 9.140625 
z
" id="URW_Palladio_L_Italic-120"/>
      </defs>
      <use transform="scale(0.996264)" xlink:href="#URW_Palladio_L_Italic-120"/>
     </g>
    </g>
   </g>
   <g id="matplotlib.axis_2">
    <g id="ytick_1">
     <g id="line2d_17">
      <path clip-path="url(#pae0b53d37a)" d="M 45.599008 103.954359 
L 457.220526 103.954359 
" style="fill:none;stroke:#000000;stroke-linecap:square;stroke-opacity:0.2;stroke-width:0.5;"/>
     </g>
     <g id="line2d_18">
      <defs>
       <path d="M 0 0 
L -3.5 0 
" id="me7610f4f25" style="stroke:#000000;stroke-opacity:0.2;stroke-width:0.8;"/>
      </defs>
      <g>
       <use style="fill-opacity:0.2;stroke:#000000;stroke-opacity:0.2;stroke-width:0.8;" x="45.599008" xlink:href="#me7610f4f25" y="103.954359"/>
      </g>
     </g>
     <g id="text_10">
      <!-- $\mathdefault{0}$ -->
      <g transform="translate(23.12516 108.944124)scale(0.14 -0.14)">
       <use transform="scale(0.996264)" xlink:href="#URW_Palladio_L_Roman-48"/>
      </g>
     </g>
    </g>
    <g id="ytick_2">
     <g id="line2d_19">
      <path clip-path="url(#pae0b53d37a)" d="M 45.599008 83.165394 
L 457.220526 83.165394 
" style="fill:none;stroke:#000000;stroke-linecap:square;stroke-opacity:0.2;stroke-width:0.5;"/>
     </g>
     <g id="line2d_20">
      <g>
       <use style="fill-opacity:0.2;stroke:#000000;stroke-opacity:0.2;stroke-width:0.8;" x="45.599008" xlink:href="#me7610f4f25" y="83.165394"/>
      </g>
     </g>
     <g id="text_11">
      <!-- $\mathdefault{1}$ -->
      <g transform="translate(23.12516 88.155158)scale(0.14 -0.14)">
       <use transform="scale(0.996264)" xlink:href="#URW_Palladio_L_Roman-49"/>
      </g>
     </g>
    </g>
    <g id="ytick_3">
     <g id="line2d_21">
      <path clip-path="url(#pae0b53d37a)" d="M 45.599008 62.376428 
L 457.220526 62.376428 
" style="fill:none;stroke:#000000;stroke-linecap:square;stroke-opacity:0.2;stroke-width:0.5;"/>
     </g>
     <g id="line2d_22">
      <g>
       <use style="fill-opacity:0.2;stroke:#000000;stroke-opacity:0.2;stroke-width:0.8;" x="45.599008" xlink:href="#me7610f4f25" y="62.376428"/>
      </g>
     </g>
     <g id="text_12">
      <!-- $\mathdefault{2}$ -->
      <g transform="translate(23.12516 67.366193)scale(0.14 -0.14)">
       <use transform="scale(0.996264)" xlink:href="#URW_Palladio_L_Roman-50"/>
      </g>
     </g>
    </g>
    <g id="ytick_4">
     <g id="line2d_23">
      <path clip-path="url(#pae0b53d37a)" d="M 45.599008 41.587463 
L 457.220526 41.587463 
" style="fill:none;stroke:#000000;stroke-linecap:square;stroke-opacity:0.2;stroke-width:0.5;"/>
     </g>
     <g id="line2d_24">
      <g>
       <use style="fill-opacity:0.2;stroke:#000000;stroke-opacity:0.2;stroke-width:0.8;" x="45.599008" xlink:href="#me7610f4f25" y="41.587463"/>
      </g>
     </g>
     <g id="text_13">
      <!-- $\mathdefault{3}$ -->
      <g transform="translate(23.12516 46.577227)scale(0.14 -0.14)">
       <defs>
        <path d="M 4.296875 49.953125 
L 7.40625 49.953125 
L 9.203125 55.53125 
C 10.296875 58.90625 16.59375 62.296875 21.796875 62.296875 
C 28.296875 62.296875 33.59375 57.015625 33.59375 50.75 
C 33.59375 43.28125 27.703125 37 20.59375 37 
C 19.796875 37 18.703125 37 17.40625 37.203125 
L 15.90625 37.203125 
L 14.703125 31.984375 
L 15.40625 31.375 
C 19.203125 33.09375 21.09375 33.59375 23.796875 33.59375 
C 32.09375 33.59375 36.90625 28.265625 36.90625 19.09375 
C 36.90625 8.84375 30.796875 2.109375 21.5 2.109375 
C 16.90625 2.109375 12.796875 3.609375 9.796875 6.421875 
C 7.40625 8.640625 6.09375 10.953125 4.203125 16.390625 
L 1.5 15.390625 
C 3.59375 9.265625 4.40625 5.640625 5 0.609375 
C 10.296875 -1.203125 14.703125 -2 18.40625 -2 
C 26.40625 -2 35.59375 2.515625 41.09375 9.265625 
C 44.5 13.390625 46.203125 17.8125 46.203125 22.53125 
C 46.203125 27.359375 44.203125 31.59375 40.59375 34.09375 
C 38.09375 35.90625 35.796875 36.71875 30.796875 37.609375 
C 38.796875 43.796875 41.796875 48.375 41.796875 54.25 
C 41.796875 63.125 34.40625 69 23.296875 69 
C 16.5 69 12 67.109375 7.203125 62.328125 
z
" id="URW_Palladio_L_Roman-51"/>
       </defs>
       <use transform="scale(0.996264)" xlink:href="#URW_Palladio_L_Roman-51"/>
      </g>
     </g>
    </g>
    <g id="ytick_5">
     <g id="line2d_25">
      <path clip-path="url(#pae0b53d37a)" d="M 45.599008 20.798497 
L 457.220526 20.798497 
" style="fill:none;stroke:#000000;stroke-linecap:square;stroke-opacity:0.2;stroke-width:0.5;"/>
     </g>
     <g id="line2d_26">
      <g>
       <use style="fill-opacity:0.2;stroke:#000000;stroke-opacity:0.2;stroke-width:0.8;" x="45.599008" xlink:href="#me7610f4f25" y="20.798497"/>
      </g>
     </g>
     <g id="text_14">
      <!-- $\mathdefault{4}$ -->
      <g transform="translate(23.12516 25.788262)scale(0.14 -0.14)">
       <use transform="scale(0.996264)" xlink:href="#URW_Palladio_L_Roman-52"/>
      </g>
     </g>
    </g>
    <g id="text_15">
     <!-- $y$ -->
     <g transform="translate(15.753876 86.154186)rotate(-90)scale(0.12 -0.12)">
      <defs>
       <path d="M -0.703125 -17.546875 
C -0.796875 -18.234375 -0.796875 -18.828125 -0.796875 -19.328125 
C -0.796875 -23.5625 2.90625 -27 7.40625 -27 
C 18 -27 29 -14.734375 34.90625 3.5625 
L 49 47.09375 
L 47.90625 48 
C 45 46.90625 42.703125 46.296875 40.5 46.109375 
L 37 32.984375 
C 35.796875 28.3125 32.296875 21.0625 29 16.1875 
C 25.5 11.109375 20.59375 6.75 18.40625 6.75 
C 17.203125 6.75 16.296875 9.046875 16.40625 11.515625 
L 16.5 12.8125 
L 18 32.09375 
C 18.203125 35.1875 18.40625 38.953125 18.40625 41.734375 
C 18.40625 46.203125 17.703125 48 16 48 
C 14.703125 48 13.296875 47.296875 8.5 44.015625 
L 0.296875 38.453125 
L 1.40625 36.671875 
L 6.40625 39.640625 
L 6.796875 39.953125 
C 7.796875 40.546875 8.5 40.84375 8.90625 40.84375 
C 10.296875 40.84375 11.09375 38.953125 11.09375 35.6875 
C 11.09375 35.578125 11.09375 34.984375 11 34.1875 
L 9.296875 10.03125 
L 9.203125 6.046875 
C 9.203125 1.890625 11 -1 13.5 -1 
C 17.203125 -1 25.59375 7.453125 33.09375 18.671875 
L 28.203125 1.8125 
C 23.09375 -15.625 18.09375 -22.8125 11.09375 -22.8125 
C 7.59375 -22.8125 4.90625 -20.171875 4.90625 -16.75 
C 4.90625 -16.25 5 -15.46875 5.09375 -14.59375 
L 4.09375 -14.1875 
z
" id="URW_Palladio_L_Italic-121"/>
      </defs>
      <use transform="scale(0.996264)" xlink:href="#URW_Palladio_L_Italic-121"/>
     </g>
    </g>
   </g>
   <g id="line2d_27">
    <path clip-path="url(#pae0b53d37a)" d="M 45.599008 152.224842 
L 49.756801 131.435877 
L 53.914594 119.275112 
L 58.072387 110.646911 
L 62.23018 103.954359 
L 66.387973 98.486146 
L 70.545767 93.862838 
L 74.70356 89.857946 
L 78.861353 86.325381 
L 83.019146 83.165394 
L 87.176939 80.306838 
L 91.334732 77.69718 
L 95.492525 75.296529 
L 99.650318 73.073872 
L 103.808111 71.004628 
L 107.965905 69.06898 
L 112.123698 67.250718 
L 116.281491 65.536415 
L 120.439284 63.914824 
L 124.597077 62.376428 
L 128.75487 60.913107 
L 132.912663 59.517872 
L 137.070456 58.184669 
L 141.228249 56.908215 
L 145.386043 55.683876 
L 149.543836 54.507563 
L 153.701629 53.37565 
L 157.859422 52.284906 
L 162.017215 51.232443 
L 166.175008 50.215663 
L 170.332801 49.232226 
L 174.490594 48.280015 
L 178.648387 47.357107 
L 182.806181 46.461753 
L 186.963974 45.592354 
L 191.121767 44.74745 
L 195.27956 43.925696 
L 199.437353 43.125858 
L 203.595146 42.346798 
L 207.752939 41.587463 
L 211.910732 40.846878 
L 216.068526 40.124141 
L 220.226319 39.418411 
L 224.384112 38.728907 
L 228.541905 38.054898 
L 232.699698 37.395703 
L 236.857491 36.750686 
L 241.015284 36.119249 
L 245.173077 35.500833 
L 249.33087 34.89491 
L 253.488664 34.300987 
L 257.646457 33.718597 
L 261.80425 33.147301 
L 265.962043 32.586684 
L 270.119836 32.036354 
L 274.277629 31.495941 
L 278.435422 30.965093 
L 282.593215 30.443477 
L 286.751008 29.930779 
L 290.908802 29.426697 
L 295.066595 28.930948 
L 299.224388 28.44326 
L 303.382181 27.963376 
L 307.539974 27.491049 
L 311.697767 27.026045 
L 315.85556 26.568141 
L 320.013353 26.117123 
L 324.171146 25.672787 
L 328.32894 25.234938 
L 332.486733 24.803389 
L 336.644526 24.377961 
L 340.802319 23.958484 
L 344.960112 23.544793 
L 349.117905 23.13673 
L 353.275698 22.734145 
L 357.433491 22.336892 
L 361.591284 21.944833 
L 365.749078 21.557832 
L 369.906871 21.175762 
L 374.064664 20.798497 
L 378.222457 20.425919 
L 382.38025 20.057913 
L 386.538043 19.694367 
L 390.695836 19.335176 
L 394.853629 18.980235 
L 399.011422 18.629446 
L 403.169216 18.282712 
L 407.327009 17.939941 
L 411.484802 17.601043 
L 415.642595 17.265932 
L 419.800388 16.934524 
L 423.958181 16.606738 
L 428.115974 16.282495 
L 432.273767 15.96172 
L 436.431561 15.64434 
L 440.589354 15.330284 
L 444.747147 15.019482 
L 448.90494 14.711867 
L 453.062733 14.407376 
L 457.220526 14.105945 
" style="fill:none;stroke:#0271ae;stroke-linecap:square;stroke-width:3;"/>
   </g>
   <g id="line2d_28">
    <path clip-path="url(#pae0b53d37a)" d="M 45.599008 137.412909 
L 49.756801 123.003096 
L 53.914594 114.573896 
L 58.072387 108.593283 
L 62.23018 103.954359 
L 66.387973 100.164083 
L 70.545767 96.959449 
L 74.70356 94.18347 
L 78.861353 91.734882 
L 83.019146 89.544546 
L 87.176939 87.563146 
L 91.334732 85.75427 
L 95.492525 84.090265 
L 99.650318 82.549637 
L 103.808111 81.115346 
L 107.965905 79.773657 
L 112.123698 78.513334 
L 116.281491 77.32507 
L 120.439284 76.201068 
L 124.597077 75.134733 
L 128.75487 74.120436 
L 132.912663 73.153333 
L 137.070456 72.229227 
L 141.228249 71.344457 
L 145.386043 70.49581 
L 149.543836 69.680452 
L 153.701629 68.895869 
L 157.859422 68.139824 
L 162.017215 67.410312 
L 166.175008 66.705533 
L 170.332801 66.023867 
L 174.490594 65.363844 
L 178.648387 64.724133 
L 182.806181 64.103521 
L 186.963974 63.5009 
L 191.121767 62.915257 
L 195.27956 62.34566 
L 199.437353 61.791255 
L 203.595146 61.251252 
L 207.752939 60.724921 
L 211.910732 60.211587 
L 216.068526 59.710624 
L 220.226319 59.221449 
L 224.384112 58.743521 
L 228.541905 58.276333 
L 232.699698 57.819414 
L 236.857491 57.372323 
L 241.015284 56.934644 
L 245.173077 56.50599 
L 249.33087 56.085997 
L 253.488664 55.674321 
L 257.646457 55.270639 
L 261.80425 54.874647 
L 265.962043 54.486057 
L 270.119836 54.104597 
L 274.277629 53.730011 
L 278.435422 53.362055 
L 282.593215 53.000499 
L 286.751008 52.645123 
L 290.908802 52.29572 
L 295.066595 51.952093 
L 299.224388 51.614054 
L 303.382181 51.281423 
L 307.539974 50.954031 
L 311.697767 50.631715 
L 315.85556 50.31432 
L 320.013353 50.001698 
L 324.171146 49.693708 
L 328.32894 49.390214 
L 332.486733 49.091087 
L 336.644526 48.796203 
L 340.802319 48.505444 
L 344.960112 48.218695 
L 349.117905 47.935848 
L 353.275698 47.656797 
L 357.433491 47.381442 
L 361.591284 47.109687 
L 365.749078 46.841439 
L 369.906871 46.576608 
L 374.064664 46.315108 
L 378.222457 46.056856 
L 382.38025 45.801774 
L 386.538043 45.549783 
L 390.695836 45.300811 
L 394.853629 45.054785 
L 399.011422 44.811636 
L 403.169216 44.571298 
L 407.327009 44.333708 
L 411.484802 44.098802 
L 415.642595 43.86652 
L 419.800388 43.636806 
L 423.958181 43.409602 
L 428.115974 43.184854 
L 432.273767 42.96251 
L 436.431561 42.742519 
L 440.589354 42.524831 
L 444.747147 42.3094 
L 448.90494 42.096178 
L 453.062733 41.88512 
L 457.220526 41.676184 
" style="fill:none;stroke:#dc2830;stroke-linecap:square;stroke-width:3;"/>
   </g>
   <g id="line2d_29">
    <path clip-path="url(#pae0b53d37a)" d="M 45.599008 118.485223 
L 49.756801 112.22712 
L 53.914594 108.566365 
L 58.072387 105.969018 
L 62.23018 103.954359 
L 66.387973 102.308263 
L 70.545767 100.916509 
L 74.70356 99.710916 
L 78.861353 98.647508 
L 83.019146 97.696257 
L 87.176939 96.835746 
L 91.334732 96.050161 
L 95.492525 95.327493 
L 99.650318 94.658406 
L 103.808111 94.035502 
L 107.965905 93.452814 
L 112.123698 92.905462 
L 116.281491 92.389406 
L 120.439284 91.901258 
L 124.597077 91.438155 
L 128.75487 90.997651 
L 132.912663 90.577644 
L 137.070456 90.176309 
L 141.228249 89.792059 
L 145.386043 89.423496 
L 149.543836 89.06939 
L 153.701629 88.728651 
L 157.859422 88.400304 
L 162.017215 88.083481 
L 166.175008 87.7774 
L 170.332801 87.481356 
L 174.490594 87.194711 
L 178.648387 86.916889 
L 182.806181 86.64736 
L 186.963974 86.385645 
L 191.121767 86.131303 
L 195.27956 85.883931 
L 199.437353 85.643156 
L 203.595146 85.408635 
L 207.752939 85.180053 
L 211.910732 84.957115 
L 216.068526 84.739549 
L 220.226319 84.527103 
L 224.384112 84.319541 
L 228.541905 84.116645 
L 232.699698 83.918207 
L 236.857491 83.724038 
L 241.015284 83.533956 
L 245.173077 83.347794 
L 249.33087 83.165394 
L 253.488664 82.986605 
L 257.646457 82.811288 
L 261.80425 82.639311 
L 265.962043 82.470548 
L 270.119836 82.304883 
L 274.277629 82.142202 
L 278.435422 81.982401 
L 282.593215 81.825379 
L 286.751008 81.671041 
L 290.908802 81.519297 
L 295.066595 81.370062 
L 299.224388 81.223253 
L 303.382181 81.078794 
L 307.539974 80.936609 
L 311.697767 80.796629 
L 315.85556 80.658786 
L 320.013353 80.523016 
L 324.171146 80.389258 
L 328.32894 80.257452 
L 332.486733 80.127543 
L 336.644526 79.999477 
L 340.802319 79.873201 
L 344.960112 79.748668 
L 349.117905 79.625829 
L 353.275698 79.504639 
L 357.433491 79.385054 
L 361.591284 79.267032 
L 365.749078 79.150533 
L 369.906871 79.035518 
L 374.064664 78.92195 
L 378.222457 78.809793 
L 382.38025 78.699012 
L 386.538043 78.589574 
L 390.695836 78.481447 
L 394.853629 78.374599 
L 399.011422 78.269001 
L 403.169216 78.164624 
L 407.327009 78.061439 
L 411.484802 77.959421 
L 415.642595 77.858542 
L 419.800388 77.758779 
L 423.958181 77.660105 
L 428.115974 77.562498 
L 432.273767 77.465936 
L 436.431561 77.370395 
L 440.589354 77.275854 
L 444.747147 77.182293 
L 448.90494 77.089692 
L 453.062733 76.998031 
L 457.220526 76.907291 
" style="fill:none;stroke:#ffc438;stroke-linecap:square;stroke-width:3;"/>
   </g>
   <g id="legend_1">
    <g id="patch_3">
     <path d="M 467.020526 84.835376 
L 574.39952 84.835376 
Q 577.19952 84.835376 577.19952 82.035376 
L 577.19952 17 
Q 577.19952 14.2 574.39952 14.2 
L 467.020526 14.2 
Q 464.220526 14.2 464.220526 17 
L 464.220526 82.035376 
Q 464.220526 84.835376 467.020526 84.835376 
z
" style="fill:#ffffff;opacity:0.95;stroke:#cccccc;stroke-linejoin:miter;stroke-width:0.5;"/>
    </g>
    <g id="line2d_30">
     <path d="M 469.820526 25.800119 
L 483.820526 25.800119 
" style="fill:none;stroke:#0271ae;stroke-linecap:square;stroke-width:3;"/>
    </g>
    <g id="line2d_31"/>
    <g id="text_16">
     <!-- $y = \log_2(x)$ -->
     <g style="fill:#0271ae;" transform="translate(495.020526 30.700119)scale(0.14 -0.14)">
      <defs>
       <path d="M 68.703125 32 
C 70.203125 32 72.09375 32 72.09375 34.015625 
C 72.09375 36.015625 70.203125 36.015625 68.796875 36.015625 
L 8.90625 36.015625 
C 7.5 36.015625 5.59375 36.015625 5.59375 34.015625 
C 5.59375 32 7.5 32 9 32 
z
M 68.796875 13 
C 70.203125 13 72.09375 13 72.09375 15.015625 
C 72.09375 17.015625 70.203125 17.015625 68.703125 17.015625 
L 9 17.015625 
C 7.5 17.015625 5.59375 17.015625 5.59375 15.015625 
C 5.59375 13 7.5 13 8.90625 13 
z
" id="CMR10-61"/>
       <path d="M 2.296875 66.5 
L 7.90625 66.5 
C 9.703125 66.5 10.40625 65.390625 10.40625 62.375 
L 10.40625 10.171875 
C 10.40625 3.8125 10.09375 3.109375 6.703125 3.109375 
L 2.09375 3.109375 
L 2.09375 0 
C 12.09375 0 12.09375 0 14.59375 0 
C 17.09375 0 17.09375 0 27.09375 0 
L 27.09375 3.109375 
L 22.5 3.109375 
C 19.09375 3.109375 18.796875 3.8125 18.796875 10.15625 
L 18.796875 72.203125 
L 17.90625 73.015625 
C 13.5 71.3125 10.203125 70.5 2.296875 69.296875 
z
" id="URW_Palladio_L_Roman-108"/>
       <path d="M 27.90625 47 
C 13.296875 47 3.203125 36.671875 3.203125 21.75 
C 3.203125 7.609375 12.09375 -2 25 -2 
C 40.40625 -2 51.40625 8.71875 51.40625 23.75 
C 51.40625 37.28125 41.59375 47 27.90625 47 
z
M 26.09375 43.6875 
C 35.296875 43.6875 42.09375 33.671875 42.09375 20.046875 
C 42.09375 8.515625 37 1.296875 28.90625 1.296875 
C 19.09375 1.296875 12.5 10.921875 12.5 25.15625 
C 12.5 37.171875 17.296875 43.6875 26.09375 43.6875 
z
" id="URW_Palladio_L_Roman-111"/>
       <path d="M 51.90625 38 
L 54.40625 42.109375 
L 54 43.109375 
L 39.796875 43.109375 
C 36.09375 45.890625 32.5 47 27.59375 47 
C 23.203125 47 18.09375 45.625 14 43.25 
C 8.40625 40.109375 5.5 35.28125 5.5 29.28125 
C 5.5 22 10.09375 16.984375 17.5 16.1875 
L 9.59375 10 
C 8.59375 8.484375 8.09375 7.171875 8.09375 5.640625 
C 8.09375 2.8125 9.90625 1.1875 14.703125 -0.21875 
L 6 -4.9375 
C 4.59375 -5.734375 3.203125 -9.4375 3.203125 -12.546875 
C 3.203125 -21.6875 12.09375 -28 24.796875 -28 
C 39.90625 -28 51.796875 -18.46875 51.796875 -6.234375 
C 51.796875 0.984375 47 6 40 6 
L 24 6 
C 18.796875 6 16.40625 7.21875 16.40625 9.984375 
C 16.40625 11.3125 17.203125 12.421875 19.796875 14.671875 
C 20.40625 15.1875 20.59375 15.390625 21 15.796875 
C 22 15.6875 22.59375 15.59375 23.40625 15.59375 
C 27.703125 15.59375 33 17.46875 37.09375 20.3125 
C 41.59375 23.546875 43.796875 27.484375 43.796875 32.703125 
C 43.796875 34.65625 43.5 35.9375 42.703125 38 
z
M 24 43.59375 
C 30.796875 43.59375 35.40625 38.09375 35.40625 29.765625 
C 35.40625 23.421875 31.203125 19 25.09375 19 
C 18.40625 19 13.90625 24.09375 13.90625 31.640625 
C 13.90625 39.171875 17.59375 43.59375 24 43.59375 
z
M 28.703125 -1.015625 
C 40 -1.015625 43.90625 -3.3125 43.90625 -9.84375 
C 43.90625 -18.46875 36 -24.890625 25.5 -24.890625 
C 16.796875 -24.890625 10.796875 -19.78125 10.796875 -12.34375 
C 10.796875 -7.84375 13.40625 -3.71875 17.40625 -2.015625 
C 19 -1.21875 21.796875 -1.015625 28.703125 -1.015625 
z
" id="URW_Palladio_L_Roman-103"/>
       <path d="M 33.09375 -24 
C 33.09375 -23.703125 33.09375 -23.5 31.40625 -21.796875 
C 18.90625 -9.125 15.703125 9.875 15.703125 25.25 
C 15.703125 42.734375 19.5 60.234375 31.796875 72.78125 
C 33.09375 73.984375 33.09375 74.1875 33.09375 74.484375 
C 33.09375 75.1875 32.703125 75.5 32.09375 75.5 
C 31.09375 75.5 22.09375 68.671875 16.203125 55.890625 
C 11.09375 44.84375 9.90625 33.6875 9.90625 25.25 
C 9.90625 17.40625 11 5.25 16.5 -6.109375 
C 22.5 -18.46875 31.09375 -25 32.09375 -25 
C 32.703125 -25 33.09375 -24.703125 33.09375 -24 
z
" id="CMR10-40"/>
       <path d="M 28.90625 25.25 
C 28.90625 33.09375 27.796875 45.25 22.296875 56.59375 
C 16.296875 68.96875 7.703125 75.5 6.703125 75.5 
C 6.09375 75.5 5.703125 75.09375 5.703125 74.484375 
C 5.703125 74.1875 5.703125 73.984375 7.59375 72.1875 
C 17.40625 62.234375 23.09375 46.25 23.09375 25.25 
C 23.09375 8.0625 19.40625 -9.640625 7 -22.296875 
C 5.703125 -23.5 5.703125 -23.703125 5.703125 -24 
C 5.703125 -24.609375 6.09375 -25 6.703125 -25 
C 7.703125 -25 16.703125 -18.171875 22.59375 -5.40625 
C 27.703125 5.65625 28.90625 16.796875 28.90625 25.25 
z
" id="CMR10-41"/>
      </defs>
      <use transform="scale(0.996264)" xlink:href="#URW_Palladio_L_Italic-121"/>
      <use transform="translate(79.977748 0)scale(1.038107)" xlink:href="#CMR10-61"/>
      <use transform="translate(189.593377 0)scale(0.996264)" xlink:href="#URW_Palladio_L_Roman-108"/>
      <use transform="translate(218.583738 0)scale(0.996264)" xlink:href="#URW_Palladio_L_Roman-111"/>
      <use transform="translate(272.979318 0)scale(0.996264)" xlink:href="#URW_Palladio_L_Roman-103"/>
      <use transform="translate(328.370995 -31.879901)scale(0.757155)" xlink:href="#URW_Palladio_L_Roman-50"/>
      <use transform="translate(367.972186 0)scale(1.038107)" xlink:href="#CMR10-40"/>
      <use transform="translate(412.405567 0)scale(0.996264)" xlink:href="#URW_Palladio_L_Italic-120"/>
      <use transform="translate(465.704703 0)scale(1.038107)" xlink:href="#CMR10-41"/>
     </g>
    </g>
    <g id="line2d_32">
     <path d="M 469.820526 47.970008 
L 483.820526 47.970008 
" style="fill:none;stroke:#dc2830;stroke-linecap:square;stroke-width:3;"/>
    </g>
    <g id="line2d_33"/>
    <g id="text_17">
     <!-- $y = \ln(x)$ -->
     <g style="fill:#dc2830;" transform="translate(495.020526 52.870008)scale(0.14 -0.14)">
      <defs>
       <path d="M 41 -0.109375 
C 47.09375 -0.109375 47.203125 -0.109375 48.90625 -0.109375 
C 50.296875 -0.109375 50.296875 -0.109375 57.203125 -0.109375 
L 57.203125 2.796875 
L 53.09375 3.203125 
C 49.703125 3.203125 49.40625 3.8125 49.40625 10.21875 
L 49.40625 29.5625 
C 49.40625 41.28125 43.90625 47 32.703125 47 
C 29 47 26.90625 46.296875 24.796875 44.484375 
L 17.203125 37.875 
L 17.203125 46.59375 
L 16.296875 47 
C 11.203125 44.890625 6 43.484375 0.703125 42.890625 
L 0.703125 40.078125 
L 4.40625 40.078125 
C 8.40625 40.078125 8.796875 39.375 8.796875 32.71875 
L 8.796875 10.046875 
C 8.796875 3.703125 8.5 3 5.09375 3 
L 0.59375 3 
L 0.59375 -0.109375 
C 7.40625 -0.109375 10.09375 -0.109375 13 -0.109375 
C 15.90625 -0.109375 18.59375 -0.109375 25.40625 -0.109375 
L 25.40625 3 
L 20.90625 3 
C 17.5 3 17.203125 3.703125 17.203125 10.046875 
L 17.203125 31.421875 
C 17.203125 35.9375 23.796875 40.875 29.90625 40.875 
C 36.59375 40.875 41 35.890625 41 28.21875 
z
" id="URW_Palladio_L_Roman-110"/>
      </defs>
      <use transform="scale(0.996264)" xlink:href="#URW_Palladio_L_Italic-121"/>
      <use transform="translate(79.977748 0)scale(1.038107)" xlink:href="#CMR10-61"/>
      <use transform="translate(189.593377 0)scale(0.996264)" xlink:href="#URW_Palladio_L_Roman-108"/>
      <use transform="translate(218.583738 0)scale(0.996264)" xlink:href="#URW_Palladio_L_Roman-110"/>
      <use transform="translate(277.811098 0)scale(1.038107)" xlink:href="#CMR10-40"/>
      <use transform="translate(322.244479 0)scale(0.996264)" xlink:href="#URW_Palladio_L_Italic-120"/>
      <use transform="translate(375.543616 0)scale(1.038107)" xlink:href="#CMR10-41"/>
     </g>
    </g>
    <g id="line2d_34">
     <path d="M 469.820526 69.803299 
L 483.820526 69.803299 
" style="fill:none;stroke:#ffc438;stroke-linecap:square;stroke-width:3;"/>
    </g>
    <g id="line2d_35"/>
    <g id="text_18">
     <!-- $y = \log_{10}(x)$ -->
     <g style="fill:#ffc438;" transform="translate(495.020526 74.703299)scale(0.14 -0.14)">
      <use transform="scale(0.996264)" xlink:href="#URW_Palladio_L_Italic-121"/>
      <use transform="translate(79.977748 0)scale(1.038107)" xlink:href="#CMR10-61"/>
      <use transform="translate(189.593377 0)scale(0.996264)" xlink:href="#URW_Palladio_L_Roman-108"/>
      <use transform="translate(218.583738 0)scale(0.996264)" xlink:href="#URW_Palladio_L_Roman-111"/>
      <use transform="translate(272.979318 0)scale(0.996264)" xlink:href="#URW_Palladio_L_Roman-103"/>
      <use transform="translate(328.370995 -31.879901)scale(0.757155)" xlink:href="#URW_Palladio_L_Roman-49"/>
      <use transform="translate(366.228754 -31.879901)scale(0.757155)" xlink:href="#URW_Palladio_L_Roman-48"/>
      <use transform="translate(405.829944 0)scale(1.038107)" xlink:href="#CMR10-40"/>
      <use transform="translate(450.263325 0)scale(0.996264)" xlink:href="#URW_Palladio_L_Italic-120"/>
      <use transform="translate(503.562462 0)scale(1.038107)" xlink:href="#CMR10-41"/>
     </g>
    </g>
   </g>
  </g>
 </g>
 <defs>
  <clipPath id="pae0b53d37a">
   <rect height="151.930787" width="411.621518" x="45.599008" y="7.2"/>
  </clipPath>
 </defs>
</svg>
