<?xml version="1.0" encoding="utf-8" standalone="no"?>
<!DOCTYPE svg PUBLIC "-//W3C//DTD SVG 1.1//EN"
  "http://www.w3.org/Graphics/SVG/1.1/DTD/svg11.dtd">
<svg height="388.55952pt" version="1.1" viewBox="0 0 584.388421 388.55952" width="584.388421pt" xmlns="http://www.w3.org/2000/svg" xmlns:xlink="http://www.w3.org/1999/xlink">
 <metadata>
  <rdf:RDF xmlns:cc="http://creativecommons.org/ns#" xmlns:dc="http://purl.org/dc/elements/1.1/" xmlns:rdf="http://www.w3.org/1999/02/22-rdf-syntax-ns#">
   <cc:Work>
    <dc:type rdf:resource="http://purl.org/dc/dcmitype/StillImage"/>
    <dc:date>2020-08-12T07:31:10.309534</dc:date>
    <dc:format>image/svg+xml</dc:format>
    <dc:creator>
     <cc:Agent>
      <dc:title>Matplotlib v3.3.0rc1.post382+g019a75231, https://matplotlib.org/</dc:title>
     </cc:Agent>
    </dc:creator>
   </cc:Work>
  </rdf:RDF>
 </metadata>
 <defs>
  <style type="text/css">*{stroke-linecap:butt;stroke-linejoin:round;}</style>
 </defs>
 <g id="figure_1">
  <g id="patch_1">
   <path d="M 0 388.55952 
L 584.388421 388.55952 
L 584.388421 -0 
L 0 -0 
z
" style="fill:none;"/>
  </g>
  <g id="axes_1">
   <g id="patch_2">
    <path d="M 67.256075 144.040859 
L 571.994442 144.040859 
L 571.994442 7.2 
L 67.256075 7.2 
z
" style="fill:none;"/>
   </g>
   <g id="line2d_1">
    <path clip-path="url(#pb4aef469c1)" d="M 424.779085 144.040859 
L 424.779085 7.2 
" style="fill:none;stroke:#dc2830;stroke-linecap:square;stroke-width:3;"/>
   </g>
   <g id="matplotlib.axis_1">
    <g id="xtick_1">
     <g id="line2d_2">
      <path clip-path="url(#pb4aef469c1)" d="M 74.26633 144.040859 
L 74.26633 7.2 
" style="fill:none;stroke:#000000;stroke-linecap:square;stroke-opacity:0.2;stroke-width:0.5;"/>
     </g>
     <g id="line2d_3">
      <defs>
       <path d="M 0 0 
L 0 3.5 
" id="m3099ca8e87" style="stroke:#000000;stroke-opacity:0.2;stroke-width:0.8;"/>
      </defs>
      <g>
       <use style="fill-opacity:0.2;stroke:#000000;stroke-opacity:0.2;stroke-width:0.8;" x="74.26633" xlink:href="#m3099ca8e87" y="144.040859"/>
      </g>
     </g>
     <g id="text_1">
      <!-- $\mathdefault{0.00}$ -->
      <g transform="translate(62.062096 169.520388)scale(0.14 -0.14)">
       <defs>
        <path d="M 26.296875 69 
C 10.796875 69 2.90625 56.6875 2.90625 32.453125 
C 2.90625 20.71875 5 10.625 8.5 5.71875 
C 12 0.796875 17.59375 -2 23.796875 -2 
C 38.90625 -2 46.5 11.015625 46.5 36.65625 
C 46.5 58.578125 40 69 26.296875 69 
z
M 24.5 65.5 
C 34.203125 65.5 38.09375 55.6875 38.09375 31.640625 
C 38.09375 10.328125 34.296875 1.5 25.09375 1.5 
C 15.40625 1.5 11.296875 11.625 11.296875 36.0625 
C 11.296875 57.1875 15 65.5 24.5 65.5 
z
" id="URW_Palladio_L_Roman-48"/>
        <path d="M 12.40625 11.625 
C 9.40625 11.625 6.703125 8.8125 6.703125 5.8125 
C 6.703125 2.796875 9.40625 0 12.296875 0 
C 15.5 0 18.296875 2.703125 18.296875 5.8125 
C 18.296875 8.8125 15.5 11.625 12.40625 11.625 
z
" id="URW_Palladio_L_Roman-46"/>
       </defs>
       <use transform="scale(0.996264)" xlink:href="#URW_Palladio_L_Roman-48"/>
       <use transform="translate(49.8132 0)scale(0.996264)" xlink:href="#URW_Palladio_L_Roman-46"/>
       <use transform="translate(74.719801 0)scale(0.996264)" xlink:href="#URW_Palladio_L_Roman-48"/>
       <use transform="translate(124.533001 0)scale(0.996264)" xlink:href="#URW_Palladio_L_Roman-48"/>
      </g>
     </g>
    </g>
    <g id="xtick_2">
     <g id="line2d_4">
      <path clip-path="url(#pb4aef469c1)" d="M 144.368881 144.040859 
L 144.368881 7.2 
" style="fill:none;stroke:#000000;stroke-linecap:square;stroke-opacity:0.2;stroke-width:0.5;"/>
     </g>
     <g id="line2d_5">
      <g>
       <use style="fill-opacity:0.2;stroke:#000000;stroke-opacity:0.2;stroke-width:0.8;" x="144.368881" xlink:href="#m3099ca8e87" y="144.040859"/>
      </g>
     </g>
     <g id="text_2">
      <!-- $\mathdefault{0.05}$ -->
      <g transform="translate(132.164647 169.520388)scale(0.14 -0.14)">
       <defs>
        <path d="M 12.703125 60.578125 
C 25.59375 60.578125 31.203125 60.578125 43.203125 60.578125 
L 43.703125 61.046875 
C 43.5 62.75 43.5 63.5 43.5 64.75 
C 43.5 66.078125 43.5 66.828125 43.703125 68.53125 
L 43.203125 69 
C 35.703125 69 31.203125 69 25.796875 69 
C 20.296875 69 15.90625 69 8.40625 69 
L 7.90625 68.796875 
C 8 62.671875 8.09375 58.265625 8.09375 55.046875 
C 8.09375 46.515625 7.796875 36.875 7.5 32.453125 
L 9.5 31.84375 
C 14.203125 36.578125 16.90625 38 21.796875 38 
C 31.40625 38 37.40625 31.140625 37.40625 20.25 
C 37.40625 9.0625 31 2.5 20.09375 2.5 
C 14.703125 2.5 9.703125 4.328125 8.296875 6.9375 
L 3.703125 15.203125 
L 1.296875 13.796875 
C 3.59375 8.0625 4.796875 4.84375 6.203125 0.421875 
C 9 -1.109375 13 -2 17.296875 -2 
C 24 -2 31.09375 0.921875 36.59375 5.75 
C 42.703125 11.1875 45.90625 18.03125 45.90625 25.46875 
C 45.90625 36.859375 37.796875 44.90625 26.40625 44.90625 
C 21.59375 44.90625 18 43.609375 11.796875 39.90625 
z
" id="URW_Palladio_L_Roman-53"/>
       </defs>
       <use transform="scale(0.996264)" xlink:href="#URW_Palladio_L_Roman-48"/>
       <use transform="translate(49.8132 0)scale(0.996264)" xlink:href="#URW_Palladio_L_Roman-46"/>
       <use transform="translate(74.719801 0)scale(0.996264)" xlink:href="#URW_Palladio_L_Roman-48"/>
       <use transform="translate(124.533001 0)scale(0.996264)" xlink:href="#URW_Palladio_L_Roman-53"/>
      </g>
     </g>
    </g>
    <g id="xtick_3">
     <g id="line2d_6">
      <path clip-path="url(#pb4aef469c1)" d="M 214.471432 144.040859 
L 214.471432 7.2 
" style="fill:none;stroke:#000000;stroke-linecap:square;stroke-opacity:0.2;stroke-width:0.5;"/>
     </g>
     <g id="line2d_7">
      <g>
       <use style="fill-opacity:0.2;stroke:#000000;stroke-opacity:0.2;stroke-width:0.8;" x="214.471432" xlink:href="#m3099ca8e87" y="144.040859"/>
      </g>
     </g>
     <g id="text_3">
      <!-- $\mathdefault{0.10}$ -->
      <g transform="translate(202.267198 169.520388)scale(0.14 -0.14)">
       <defs>
        <path d="M 6.703125 56 
L 7.703125 56 
L 20.59375 61.8125 
C 20.703125 61.90625 20.796875 61.90625 20.90625 61.90625 
C 21.5 61.90625 21.703125 61.015625 21.703125 58.609375 
L 21.703125 9.578125 
C 21.703125 4.3125 20.59375 3.203125 15.203125 3.203125 
L 9.59375 3.203125 
L 9.59375 0 
C 25 0 25 0 26.09375 0 
C 27.40625 0 29.59375 0 33 0 
C 34.203125 0 37.703125 0 41.796875 0 
L 41.796875 3.203125 
L 36.59375 3.203125 
C 31.09375 3.203125 30.09375 4.3125 30.09375 9.5625 
L 30.09375 69.421875 
L 28.703125 69.921875 
C 22.203125 66.515625 15.09375 63.515625 6 60.3125 
z
" id="URW_Palladio_L_Roman-49"/>
       </defs>
       <use transform="scale(0.996264)" xlink:href="#URW_Palladio_L_Roman-48"/>
       <use transform="translate(49.8132 0)scale(0.996264)" xlink:href="#URW_Palladio_L_Roman-46"/>
       <use transform="translate(74.719801 0)scale(0.996264)" xlink:href="#URW_Palladio_L_Roman-49"/>
       <use transform="translate(124.533001 0)scale(0.996264)" xlink:href="#URW_Palladio_L_Roman-48"/>
      </g>
     </g>
    </g>
    <g id="xtick_4">
     <g id="line2d_8">
      <path clip-path="url(#pb4aef469c1)" d="M 284.573983 144.040859 
L 284.573983 7.2 
" style="fill:none;stroke:#000000;stroke-linecap:square;stroke-opacity:0.2;stroke-width:0.5;"/>
     </g>
     <g id="line2d_9">
      <g>
       <use style="fill-opacity:0.2;stroke:#000000;stroke-opacity:0.2;stroke-width:0.8;" x="284.573983" xlink:href="#m3099ca8e87" y="144.040859"/>
      </g>
     </g>
     <g id="text_4">
      <!-- $\mathdefault{0.15}$ -->
      <g transform="translate(272.369749 169.520388)scale(0.14 -0.14)">
       <use transform="scale(0.996264)" xlink:href="#URW_Palladio_L_Roman-48"/>
       <use transform="translate(49.8132 0)scale(0.996264)" xlink:href="#URW_Palladio_L_Roman-46"/>
       <use transform="translate(74.719801 0)scale(0.996264)" xlink:href="#URW_Palladio_L_Roman-49"/>
       <use transform="translate(124.533001 0)scale(0.996264)" xlink:href="#URW_Palladio_L_Roman-53"/>
      </g>
     </g>
    </g>
    <g id="xtick_5">
     <g id="line2d_10">
      <path clip-path="url(#pb4aef469c1)" d="M 354.676534 144.040859 
L 354.676534 7.2 
" style="fill:none;stroke:#000000;stroke-linecap:square;stroke-opacity:0.2;stroke-width:0.5;"/>
     </g>
     <g id="line2d_11">
      <g>
       <use style="fill-opacity:0.2;stroke:#000000;stroke-opacity:0.2;stroke-width:0.8;" x="354.676534" xlink:href="#m3099ca8e87" y="144.040859"/>
      </g>
     </g>
     <g id="text_5">
      <!-- $\mathdefault{0.20}$ -->
      <g transform="translate(342.4723 169.520388)scale(0.14 -0.14)">
       <defs>
        <path d="M 1.59375 2.5 
L 1.59375 0 
C 20.296875 0 20.296875 0 23.90625 0 
C 27.5 0 27.5 0 46.796875 0 
C 46.59375 1.953125 46.59375 2.90625 46.59375 4.203125 
C 46.59375 5.4375 46.59375 6.359375 46.796875 8.421875 
C 35.296875 8.421875 30.703125 8.421875 12.203125 8.421875 
L 30.40625 27.515625 
C 40.09375 37.71875 43.09375 43.171875 43.09375 50.59375 
C 43.09375 61.96875 35.296875 69 22.59375 69 
C 15.40625 69 10.5 67 5.59375 62.015625 
L 3.90625 48.421875 
L 6.796875 48.421875 
L 8.09375 53.015625 
C 9.703125 58.796875 13.296875 61.296875 20 61.296875 
C 28.59375 61.296875 34.09375 55.890625 34.09375 47.421875 
C 34.09375 39.921875 29.90625 32.546875 18.59375 20.5625 
z
" id="URW_Palladio_L_Roman-50"/>
       </defs>
       <use transform="scale(0.996264)" xlink:href="#URW_Palladio_L_Roman-48"/>
       <use transform="translate(49.8132 0)scale(0.996264)" xlink:href="#URW_Palladio_L_Roman-46"/>
       <use transform="translate(74.719801 0)scale(0.996264)" xlink:href="#URW_Palladio_L_Roman-50"/>
       <use transform="translate(124.533001 0)scale(0.996264)" xlink:href="#URW_Palladio_L_Roman-48"/>
      </g>
     </g>
    </g>
    <g id="xtick_6">
     <g id="line2d_12">
      <path clip-path="url(#pb4aef469c1)" d="M 424.779085 144.040859 
L 424.779085 7.2 
" style="fill:none;stroke:#000000;stroke-linecap:square;stroke-opacity:0.2;stroke-width:0.5;"/>
     </g>
     <g id="line2d_13">
      <g>
       <use style="fill-opacity:0.2;stroke:#000000;stroke-opacity:0.2;stroke-width:0.8;" x="424.779085" xlink:href="#m3099ca8e87" y="144.040859"/>
      </g>
     </g>
     <g id="text_6">
      <!-- $\mathdefault{0.25}$ -->
      <g transform="translate(412.574851 169.520388)scale(0.14 -0.14)">
       <use transform="scale(0.996264)" xlink:href="#URW_Palladio_L_Roman-48"/>
       <use transform="translate(49.8132 0)scale(0.996264)" xlink:href="#URW_Palladio_L_Roman-46"/>
       <use transform="translate(74.719801 0)scale(0.996264)" xlink:href="#URW_Palladio_L_Roman-50"/>
       <use transform="translate(124.533001 0)scale(0.996264)" xlink:href="#URW_Palladio_L_Roman-53"/>
      </g>
     </g>
    </g>
    <g id="xtick_7">
     <g id="line2d_14">
      <path clip-path="url(#pb4aef469c1)" d="M 494.881636 144.040859 
L 494.881636 7.2 
" style="fill:none;stroke:#000000;stroke-linecap:square;stroke-opacity:0.2;stroke-width:0.5;"/>
     </g>
     <g id="line2d_15">
      <g>
       <use style="fill-opacity:0.2;stroke:#000000;stroke-opacity:0.2;stroke-width:0.8;" x="494.881636" xlink:href="#m3099ca8e87" y="144.040859"/>
      </g>
     </g>
     <g id="text_7">
      <!-- $\mathdefault{0.30}$ -->
      <g transform="translate(482.677401 169.520388)scale(0.14 -0.14)">
       <defs>
        <path d="M 4.296875 49.953125 
L 7.40625 49.953125 
L 9.203125 55.53125 
C 10.296875 58.90625 16.59375 62.296875 21.796875 62.296875 
C 28.296875 62.296875 33.59375 57.015625 33.59375 50.75 
C 33.59375 43.28125 27.703125 37 20.59375 37 
C 19.796875 37 18.703125 37 17.40625 37.203125 
L 15.90625 37.203125 
L 14.703125 31.984375 
L 15.40625 31.375 
C 19.203125 33.09375 21.09375 33.59375 23.796875 33.59375 
C 32.09375 33.59375 36.90625 28.265625 36.90625 19.09375 
C 36.90625 8.84375 30.796875 2.109375 21.5 2.109375 
C 16.90625 2.109375 12.796875 3.609375 9.796875 6.421875 
C 7.40625 8.640625 6.09375 10.953125 4.203125 16.390625 
L 1.5 15.390625 
C 3.59375 9.265625 4.40625 5.640625 5 0.609375 
C 10.296875 -1.203125 14.703125 -2 18.40625 -2 
C 26.40625 -2 35.59375 2.515625 41.09375 9.265625 
C 44.5 13.390625 46.203125 17.8125 46.203125 22.53125 
C 46.203125 27.359375 44.203125 31.59375 40.59375 34.09375 
C 38.09375 35.90625 35.796875 36.71875 30.796875 37.609375 
C 38.796875 43.796875 41.796875 48.375 41.796875 54.25 
C 41.796875 63.125 34.40625 69 23.296875 69 
C 16.5 69 12 67.109375 7.203125 62.328125 
z
" id="URW_Palladio_L_Roman-51"/>
       </defs>
       <use transform="scale(0.996264)" xlink:href="#URW_Palladio_L_Roman-48"/>
       <use transform="translate(49.8132 0)scale(0.996264)" xlink:href="#URW_Palladio_L_Roman-46"/>
       <use transform="translate(74.719801 0)scale(0.996264)" xlink:href="#URW_Palladio_L_Roman-51"/>
       <use transform="translate(124.533001 0)scale(0.996264)" xlink:href="#URW_Palladio_L_Roman-48"/>
      </g>
     </g>
    </g>
    <g id="xtick_8">
     <g id="line2d_16">
      <path clip-path="url(#pb4aef469c1)" d="M 564.984186 144.040859 
L 564.984186 7.2 
" style="fill:none;stroke:#000000;stroke-linecap:square;stroke-opacity:0.2;stroke-width:0.5;"/>
     </g>
     <g id="line2d_17">
      <g>
       <use style="fill-opacity:0.2;stroke:#000000;stroke-opacity:0.2;stroke-width:0.8;" x="564.984186" xlink:href="#m3099ca8e87" y="144.040859"/>
      </g>
     </g>
     <g id="text_8">
      <!-- $\mathdefault{0.35}$ -->
      <g transform="translate(552.779952 169.520388)scale(0.14 -0.14)">
       <use transform="scale(0.996264)" xlink:href="#URW_Palladio_L_Roman-48"/>
       <use transform="translate(49.8132 0)scale(0.996264)" xlink:href="#URW_Palladio_L_Roman-46"/>
       <use transform="translate(74.719801 0)scale(0.996264)" xlink:href="#URW_Palladio_L_Roman-51"/>
       <use transform="translate(124.533001 0)scale(0.996264)" xlink:href="#URW_Palladio_L_Roman-53"/>
      </g>
     </g>
    </g>
    <g id="text_9">
     <!-- Time [seconds] -->
     <g transform="translate(279.952407 186.007436)scale(0.12 -0.12)">
      <defs>
       <path d="M 25.5 64.28125 
C 25.796875 60.875 25.90625 58.578125 25.90625 54.265625 
L 25.90625 11.921875 
C 25.90625 4 25.40625 3.203125 20.796875 3.203125 
L 16 3.203125 
L 16 0 
C 21.90625 0 25.40625 0 30.59375 0 
C 35.796875 0 39.40625 0 45.296875 0 
L 45.296875 3.203125 
L 40.5 3.203125 
C 35.90625 3.203125 35.40625 4 35.40625 11.921875 
L 35.40625 54.265625 
C 35.40625 58.78125 35.5 60.984375 35.796875 64.28125 
L 51.296875 64.28125 
C 54.09375 64.28125 55.203125 63.390625 55.296875 61 
L 55.703125 53.125 
L 58.796875 53.125 
C 58.796875 59.53125 59 63.375 59.5 69 
C 52.296875 69 49 69 46.203125 69 
C 42.296875 69 39.40625 69 37.90625 69 
L 22.09375 69 
C 21.09375 69 15.703125 69 8.59375 69 
L 1.796875 69 
C 2.296875 63.375 2.5 59.53125 2.5 53.125 
L 5.59375 53.125 
L 6 61 
C 6.09375 63.390625 7.203125 64.28125 10 64.28125 
z
" id="URW_Palladio_L_Roman-84"/>
       <path d="M 18.796875 46.765625 
L 17.90625 47.171875 
C 12.796875 45.0625 7.59375 43.640625 2.296875 43.046875 
L 2.296875 40.25 
L 6 40.25 
C 10 40.25 10.40625 39.546875 10.40625 32.890625 
L 10.40625 10.171875 
C 10.40625 3.8125 10.09375 3.109375 6.703125 3.109375 
L 2.09375 3.109375 
L 2.09375 0 
C 12.09375 0 12.09375 0 14.59375 0 
C 17.09375 0 17.09375 0 27.09375 0 
L 27.09375 3.109375 
L 22.5 3.109375 
C 19.09375 3.109375 18.796875 3.8125 18.796875 10.171875 
z
M 14.203125 69 
C 11.203125 69 8.59375 66.390625 8.59375 63.375 
C 8.59375 60.46875 11.203125 57.875 14.09375 57.875 
C 17 57.875 19.703125 60.46875 19.703125 63.375 
C 19.703125 66.1875 17 69 14.203125 69 
z
" id="URW_Palladio_L_Roman-105"/>
       <path d="M 1.796875 40.078125 
L 5.5 40.078125 
C 9.5 40.078125 9.90625 39.375 9.90625 32.71875 
L 9.90625 10.046875 
C 9.90625 3.703125 9.59375 3 6.203125 3 
L 1.59375 3 
L 1.59375 -0.109375 
C 11.203125 -0.109375 11.5 -0.109375 14.296875 -0.109375 
C 17.09375 -0.109375 19.703125 -0.109375 26.203125 -0.109375 
L 26.203125 2.796875 
L 22 3.203125 
C 18.59375 3.203125 18.296875 3.90625 18.296875 10.21875 
L 18.296875 31.46875 
C 18.296875 35.96875 24.90625 40.875 30.90625 40.875 
C 36.296875 40.875 40 35.734375 40 28.09375 
L 40 10.046875 
C 40 3.703125 39.703125 3 36.296875 3 
L 31.703125 3 
L 31.703125 -0.109375 
C 41.703125 -0.109375 41.703125 -0.109375 44.203125 -0.109375 
C 46.703125 -0.109375 46.703125 -0.109375 56.703125 -0.109375 
L 56.703125 3 
L 52.09375 3 
C 48.703125 3 48.40625 3.703125 48.40625 10.046875 
L 48.40625 31.421875 
C 48.40625 35.9375 55 40.875 61 40.875 
C 66.40625 40.875 70.09375 35.796875 70.09375 28.21875 
L 70.09375 -0.109375 
C 76.203125 -0.109375 76.296875 -0.109375 78 -0.109375 
C 79.296875 -0.109375 79.296875 -0.109375 86.90625 -0.109375 
L 86.90625 3 
L 82.203125 3 
C 78.796875 3 78.5 3.703125 78.5 10.046875 
L 78.5 30.78125 
C 78.5 40.75 72.703125 47 63.5 47 
C 60 47 57.09375 46.09375 55.296875 44.484375 
L 47.703125 37.6875 
C 44.5 44.28125 40.40625 47 33.5 47 
C 29.796875 47 27 46.09375 25.203125 44.484375 
L 18.296875 38.078125 
L 18.296875 46.59375 
L 17.40625 47 
C 12.296875 44.890625 7.09375 43.484375 1.796875 42.890625 
z
" id="URW_Palladio_L_Roman-109"/>
       <path d="M 43.703125 6.984375 
L 42.40625 7.984375 
C 36 4.203125 33.703125 3.3125 29.40625 3.3125 
C 22.90625 3.3125 17.5 6.21875 14.703125 11.109375 
C 12.796875 14.390625 12.09375 17.203125 11.90625 23 
L 26.5 23 
C 33.40625 23 37.703125 23 44.59375 24.125 
C 44.703125 25.53125 44.796875 26.453125 44.796875 27.671875 
C 44.796875 39.375 37.40625 47 26.203125 47 
C 22.5 47 18.203125 45.6875 14.09375 43.28125 
C 5.90625 38.578125 2.59375 32.359375 2.59375 21.9375 
C 2.59375 15.625 4.09375 10.21875 6.796875 6.40625 
C 10.796875 1.109375 17.5 -2 25 -2 
C 28.703125 -2 32.40625 -1.203125 36.5 0.578125 
C 39.203125 1.6875 41.296875 2.984375 41.703125 3.59375 
z
M 35.90625 26.40625 
C 30.703125 26.40625 28.296875 26.40625 24.703125 26.40625 
C 20.09375 26.40625 17.5 26.40625 12.09375 26.90625 
C 12.09375 31.671875 12.5 33.890625 13.796875 36.515625 
C 15.90625 40.96875 20.203125 43.6875 25 43.6875 
C 28.296875 43.6875 30.90625 42.359375 32.703125 39.59375 
C 34.90625 36.234375 35.59375 33.265625 35.90625 26.40625 
z
" id="URW_Palladio_L_Roman-101"/>
       <path d="M 8.796875 -18 
C 15.90625 -18 16.09375 -18 18.5 -18 
C 20.90625 -18 21.40625 -18 28.203125 -18 
L 28.796875 -17.5 
L 28.796875 -14.890625 
L 28.40625 -14.390625 
L 24.59375 -14.390625 
C 21.90625 -14.390625 19.703125 -13.78125 18.5 -12.78125 
C 17.59375 -11.875 17.296875 -10.484375 17.296875 -7.171875 
C 17.296875 -7.078125 17.296875 -4.96875 17.203125 -1.953125 
L 17.203125 1.75 
L 17.203125 53.265625 
L 17.203125 56.96875 
C 17.296875 59.78125 17.296875 61.984375 17.296875 62.078125 
C 17.296875 65.390625 17.59375 66.890625 18.5 67.796875 
C 19.703125 68.796875 21.90625 69.390625 24.59375 69.390625 
L 28.40625 69.390625 
L 28.796875 69.890625 
L 28.796875 72.5 
L 28.203125 73 
C 21.203125 73 20.90625 73 18.5 73 
C 16.203125 73 15.703125 73 8.796875 73 
L 7.90625 71.796875 
C 8.5 69.296875 8.703125 65.984375 8.703125 58.28125 
C 8.703125 56.765625 8.703125 55.5625 8.796875 54.5625 
L 8.796875 53.265625 
L 8.796875 1.75 
L 8.796875 0.4375 
C 8.703125 -1.15625 8.703125 -1.265625 8.703125 -2.96875 
L 8.703125 -4.0625 
C 8.703125 -10.875 8.5 -13.6875 7.90625 -16.796875 
z
" id="URW_Palladio_L_Roman-91"/>
       <path d="M 4.09375 14.328125 
C 4.09375 7.421875 3.796875 4.40625 3 0.40625 
C 8.203125 -1.296875 12.09375 -2 16.703125 -2 
C 29.796875 -2 39.09375 5.015625 39.09375 14.828125 
C 39.09375 17.9375 38.203125 20.234375 36.296875 22.25 
C 33.703125 24.75 30.40625 25.953125 21.59375 27.65625 
C 13.40625 29.265625 10.703125 31.265625 10.703125 35.875 
C 10.703125 40.875 14.203125 43.6875 20.296875 43.6875 
C 27 43.6875 32.09375 40.1875 32.09375 35.46875 
L 32.09375 33.171875 
L 34.90625 33.171875 
C 35 38.984375 35.09375 41.375 35.40625 44.484375 
C 30.09375 46.296875 26.5 47 22.40625 47 
C 10.796875 47 3.703125 41.484375 3.703125 32.46875 
C 3.703125 27.65625 5.90625 24.25 10.5 22.140625 
C 13.203125 20.9375 18.5 19.34375 25.296875 17.828125 
C 29.796875 16.828125 31.703125 14.734375 31.703125 10.921875 
C 31.703125 5.515625 26.703125 1.703125 19.59375 1.703125 
C 12.296875 1.703125 7.09375 5.203125 7.09375 10.21875 
L 7.09375 14.328125 
z
" id="URW_Palladio_L_Roman-115"/>
       <path d="M 39.90625 31.15625 
C 39.90625 35.765625 40.40625 39.875 41.296875 43.484375 
C 37.296875 45.890625 33.796875 47 29.703125 47 
C 24.90625 47 19.296875 45.09375 13.296875 41.28125 
C 6.296875 36.875 2.59375 29.859375 2.59375 21.046875 
C 2.59375 7.515625 12.09375 -2 25.5 -2 
C 30.703125 -2 38.203125 -0.09375 39.203125 1.40625 
L 41.296875 4.609375 
L 40.296875 6.109375 
C 36.59375 4.109375 33.40625 3.203125 29.796875 3.203125 
C 18.703125 3.203125 11.40625 11.828125 11.40625 25.046875 
C 11.40625 35.765625 16.40625 41.78125 25.40625 41.78125 
C 29.796875 41.78125 34.59375 39.78125 36.40625 37.28125 
L 37.09375 31.15625 
z
" id="URW_Palladio_L_Roman-99"/>
       <path d="M 27.90625 47 
C 13.296875 47 3.203125 36.671875 3.203125 21.75 
C 3.203125 7.609375 12.09375 -2 25 -2 
C 40.40625 -2 51.40625 8.71875 51.40625 23.75 
C 51.40625 37.28125 41.59375 47 27.90625 47 
z
M 26.09375 43.6875 
C 35.296875 43.6875 42.09375 33.671875 42.09375 20.046875 
C 42.09375 8.515625 37 1.296875 28.90625 1.296875 
C 19.09375 1.296875 12.5 10.921875 12.5 25.15625 
C 12.5 37.171875 17.296875 43.6875 26.09375 43.6875 
z
" id="URW_Palladio_L_Roman-111"/>
       <path d="M 41 -0.109375 
C 47.09375 -0.109375 47.203125 -0.109375 48.90625 -0.109375 
C 50.296875 -0.109375 50.296875 -0.109375 57.203125 -0.109375 
L 57.203125 2.796875 
L 53.09375 3.203125 
C 49.703125 3.203125 49.40625 3.8125 49.40625 10.21875 
L 49.40625 29.5625 
C 49.40625 41.28125 43.90625 47 32.703125 47 
C 29 47 26.90625 46.296875 24.796875 44.484375 
L 17.203125 37.875 
L 17.203125 46.59375 
L 16.296875 47 
C 11.203125 44.890625 6 43.484375 0.703125 42.890625 
L 0.703125 40.078125 
L 4.40625 40.078125 
C 8.40625 40.078125 8.796875 39.375 8.796875 32.71875 
L 8.796875 10.046875 
C 8.796875 3.703125 8.5 3 5.09375 3 
L 0.59375 3 
L 0.59375 -0.109375 
C 7.40625 -0.109375 10.09375 -0.109375 13 -0.109375 
C 15.90625 -0.109375 18.59375 -0.109375 25.40625 -0.109375 
L 25.40625 3 
L 20.90625 3 
C 17.5 3 17.203125 3.703125 17.203125 10.046875 
L 17.203125 31.421875 
C 17.203125 35.9375 23.796875 40.875 29.90625 40.875 
C 36.59375 40.875 41 35.890625 41 28.21875 
z
" id="URW_Palladio_L_Roman-110"/>
       <path d="M 41.203125 43.78125 
C 35.59375 46.1875 32.796875 47 29.296875 47 
C 26.59375 47 24.203125 46.390625 21.703125 45.109375 
L 12.90625 40.515625 
C 7.203125 37.515625 3.5 30.234375 3.5 21.75 
C 3.5 13.765625 6.203125 7.1875 11.09375 3.1875 
C 14.5 0.296875 19.203125 -1 25.703125 -1 
C 27.703125 -1 30 -0.59375 30.5 -0.203125 
L 41.59375 9.109375 
L 41.09375 -0.109375 
C 46 -0.109375 47.59375 -0.109375 48.796875 -0.109375 
C 49.59375 -0.109375 51 -0.109375 53.09375 -0.109375 
C 53.796875 -0.109375 55.796875 -0.109375 57.90625 -0.109375 
L 57.90625 3 
L 53.296875 3 
C 49.90625 3 49.59375 3.703125 49.59375 10.046875 
L 49.59375 71.984375 
L 48.703125 72.796875 
C 44.296875 71.09375 41 70.28125 33.09375 69.078125 
L 33.09375 66.28125 
L 38.703125 66.28125 
C 40.5 66.28125 41.203125 65.171875 41.203125 62.15625 
z
M 41.203125 22.25 
C 41.203125 15.765625 41 14.78125 39.703125 12.484375 
C 36.90625 7.796875 32 4.71875 27.296875 4.71875 
C 18.5 4.71875 12.203125 13.1875 12.203125 25.046875 
C 12.203125 35.90625 17.59375 42.28125 26.59375 42.28125 
C 30.40625 42.28125 34.40625 40.984375 37.90625 38.59375 
C 40 37.203125 41.203125 35.90625 41.203125 35.09375 
z
" id="URW_Palladio_L_Roman-100"/>
       <path d="M 24.5 73 
C 17.40625 73 17.09375 73 14.796875 73 
C 12.40625 73 11.90625 73 5.09375 73 
L 4.5 72.5 
L 4.5 69.890625 
L 4.90625 69.390625 
L 8.703125 69.390625 
C 11.40625 69.390625 13.5 68.796875 14.703125 67.796875 
C 15.703125 66.890625 16 65.484375 16 62.078125 
C 16 61.78125 16 59.78125 16.09375 56.96875 
L 16.09375 53.265625 
L 16.09375 1.75 
L 16.09375 -1.953125 
C 16 -4.859375 16 -6.671875 16 -6.96875 
C 16 -10.375 15.703125 -11.875 14.703125 -12.78125 
C 13.5 -13.78125 11.40625 -14.390625 8.703125 -14.390625 
L 4.90625 -14.390625 
L 4.5 -14.890625 
L 4.5 -17.5 
L 5.09375 -18 
C 12.09375 -18 12.296875 -18 14.796875 -18 
C 17.09375 -18 17.59375 -18 24.5 -18 
L 25.40625 -16.796875 
C 24.796875 -14.390625 24.703125 -11.28125 24.59375 -3.5625 
C 24.59375 -2.15625 24.59375 -0.859375 24.5 0.4375 
L 24.5 1.75 
L 24.5 53.265625 
L 24.5 54.5625 
C 24.59375 55.671875 24.59375 56.96875 24.59375 58.375 
C 24.59375 66.09375 24.796875 69.390625 25.40625 71.796875 
z
" id="URW_Palladio_L_Roman-93"/>
      </defs>
      <use transform="scale(0.996264)" xlink:href="#URW_Palladio_L_Roman-84"/>
      <use transform="translate(55.591109 0)scale(0.996264)" xlink:href="#URW_Palladio_L_Roman-105"/>
      <use transform="translate(84.581471 0)scale(0.996264)" xlink:href="#URW_Palladio_L_Roman-109"/>
      <use transform="translate(172.551145 0)scale(0.996264)" xlink:href="#URW_Palladio_L_Roman-101"/>
      <use transform="translate(245.17804 0)scale(0.996264)" xlink:href="#URW_Palladio_L_Roman-91"/>
      <use transform="translate(278.35327 0)scale(0.996264)" xlink:href="#URW_Palladio_L_Roman-115"/>
      <use transform="translate(320.594736 0)scale(0.996264)" xlink:href="#URW_Palladio_L_Roman-101"/>
      <use transform="translate(368.315031 0)scale(0.996264)" xlink:href="#URW_Palladio_L_Roman-99"/>
      <use transform="translate(412.5486 0)scale(0.996264)" xlink:href="#URW_Palladio_L_Roman-111"/>
      <use transform="translate(466.94418 0)scale(0.996264)" xlink:href="#URW_Palladio_L_Roman-110"/>
      <use transform="translate(524.926241 0)scale(0.996264)" xlink:href="#URW_Palladio_L_Roman-100"/>
      <use transform="translate(585.797872 0)scale(0.996264)" xlink:href="#URW_Palladio_L_Roman-115"/>
      <use transform="translate(628.039338 0)scale(0.996264)" xlink:href="#URW_Palladio_L_Roman-93"/>
     </g>
    </g>
   </g>
   <g id="matplotlib.axis_2">
    <g id="ytick_1">
     <g id="line2d_18">
      <path clip-path="url(#pb4aef469c1)" d="M 67.256075 138.788392 
L 571.994442 138.788392 
" style="fill:none;stroke:#000000;stroke-linecap:square;stroke-opacity:0.2;stroke-width:0.5;"/>
     </g>
     <g id="line2d_19">
      <defs>
       <path d="M 0 0 
L -3.5 0 
" id="m823f6836f9" style="stroke:#000000;stroke-opacity:0.2;stroke-width:0.8;"/>
      </defs>
      <g>
       <use style="fill-opacity:0.2;stroke:#000000;stroke-opacity:0.2;stroke-width:0.8;" x="67.256075" xlink:href="#m823f6836f9" y="138.788392"/>
      </g>
     </g>
     <g id="text_10">
      <!-- $\mathdefault{−1}$ -->
      <g transform="translate(33.310384 143.778156)scale(0.14 -0.14)">
       <defs>
        <path d="M 65.90625 23 
C 67.59375 23 69.40625 23 69.40625 25 
C 69.40625 27 67.59375 27 65.90625 27 
L 11.796875 27 
C 10.09375 27 8.296875 27 8.296875 25 
C 8.296875 23 10.09375 23 11.796875 23 
z
" id="CMSY10-0"/>
       </defs>
       <use transform="scale(1.038107)" xlink:href="#CMSY10-0"/>
       <use transform="translate(81.941696 0)scale(0.996264)" xlink:href="#URW_Palladio_L_Roman-49"/>
      </g>
     </g>
    </g>
    <g id="ytick_2">
     <g id="line2d_20">
      <path clip-path="url(#pb4aef469c1)" d="M 67.256075 76.104215 
L 571.994442 76.104215 
" style="fill:none;stroke:#000000;stroke-linecap:square;stroke-opacity:0.2;stroke-width:0.5;"/>
     </g>
     <g id="line2d_21">
      <g>
       <use style="fill-opacity:0.2;stroke:#000000;stroke-opacity:0.2;stroke-width:0.8;" x="67.256075" xlink:href="#m823f6836f9" y="76.104215"/>
      </g>
     </g>
     <g id="text_11">
      <!-- $\mathdefault{0}$ -->
      <g transform="translate(44.782227 81.09398)scale(0.14 -0.14)">
       <use transform="scale(0.996264)" xlink:href="#URW_Palladio_L_Roman-48"/>
      </g>
     </g>
    </g>
    <g id="ytick_3">
     <g id="line2d_22">
      <path clip-path="url(#pb4aef469c1)" d="M 67.256075 13.420039 
L 571.994442 13.420039 
" style="fill:none;stroke:#000000;stroke-linecap:square;stroke-opacity:0.2;stroke-width:0.5;"/>
     </g>
     <g id="line2d_23">
      <g>
       <use style="fill-opacity:0.2;stroke:#000000;stroke-opacity:0.2;stroke-width:0.8;" x="67.256075" xlink:href="#m823f6836f9" y="13.420039"/>
      </g>
     </g>
     <g id="text_12">
      <!-- $\mathdefault{1}$ -->
      <g transform="translate(44.782227 18.409804)scale(0.14 -0.14)">
       <use transform="scale(0.996264)" xlink:href="#URW_Palladio_L_Roman-49"/>
      </g>
     </g>
    </g>
    <g id="text_13">
     <!-- $x[n]$ -->
     <g transform="translate(25.9391 85.898491)rotate(-90)scale(0.12 -0.12)">
      <defs>
       <path d="M 2.09375 8.84375 
C 2.09375 6.84375 1.90625 5.578125 1.296875 2.390625 
C 1.09375 1.203125 1 0.90625 0.90625 0.203125 
C 2.40625 -0.609375 4 -1 5.203125 -1 
C 8.5 -1 12.40625 1.890625 15.5 6.546875 
L 23.09375 18.1875 
L 24.203125 11.328125 
C 25.5 2.875 27.796875 -1 31.40625 -1 
C 33.59375 -1 36.796875 0.6875 40 3.578125 
L 44.90625 7.953125 
L 44 9.84375 
C 40.40625 6.859375 37.90625 5.375 36.296875 5.375 
C 34.796875 5.375 33.5 6.375 32.5 8.34375 
C 31.59375 10.234375 30.5 13.90625 30 16.796875 
L 28.203125 26.8125 
L 31.703125 31.6875 
C 36.40625 38.140625 39.09375 40.421875 42.203125 40.421875 
C 43.796875 40.421875 45 39.625 45.5 38.140625 
L 46.90625 38.53125 
L 48.40625 47 
C 47.203125 47.703125 46.296875 48 45.40625 48 
C 41.40625 48 37.40625 44.40625 31.203125 35.265625 
L 27.5 29.796875 
L 26.90625 34.5625 
C 25.703125 44.40625 23 48 17.09375 48 
C 14.5 48 12.296875 47.203125 11.40625 45.90625 
L 5.59375 37.640625 
L 7.296875 36.65625 
C 10.296875 40.03125 12.296875 41.421875 14.203125 41.421875 
C 17.5 41.421875 19.703125 37.359375 21.40625 27.609375 
L 22.5 21.453125 
L 18.5 15.265625 
C 14.203125 8.578125 10.796875 5.375 8 5.375 
C 6.5 5.375 5.40625 5.796875 5.203125 6.296875 
L 4.09375 9.140625 
z
" id="URW_Palladio_L_Italic-120"/>
       <path d="M 25.5 -25 
L 25.5 -20.984375 
L 15.796875 -20.984375 
L 15.796875 71 
L 25.5 71 
L 25.5 75.015625 
L 11.796875 75.015625 
L 11.796875 -25 
z
" id="CMR10-91"/>
       <path d="M 2.40625 38.609375 
L 3.09375 36.609375 
L 6.296875 38.703125 
C 10 41.015625 10.296875 41.203125 11 41.203125 
C 12.09375 41.203125 12.796875 40.21875 12.796875 38.71875 
C 12.796875 33.625 8.703125 14.359375 4.59375 0.09375 
L 5.296875 -1 
C 7.796875 -0.3125 10.09375 0.28125 12.296875 0.6875 
C 14.203125 13.265625 16.296875 19.75 20.90625 26.640625 
C 26.296875 35.015625 33.796875 41.203125 38.296875 41.203125 
C 39.40625 41.203125 40 40.3125 40 38.8125 
C 40 37.015625 39.703125 34.921875 38.90625 31.734375 
L 33.703125 10.578125 
C 32.796875 6.875 32.40625 4.59375 32.40625 3 
C 32.40625 0.484375 33.5 -1 35.40625 -1 
C 38 -1 41.59375 1.078125 51.40625 8.375 
L 50.40625 10.171875 
L 47.796875 8.484375 
C 44.90625 6.578125 42.703125 5.484375 41.703125 5.484375 
C 41 5.484375 40.40625 6.375 40.40625 7.46875 
C 40.40625 7.96875 40.5 9.078125 40.59375 9.484375 
L 47.203125 37.015625 
C 47.90625 39.921875 48.296875 42.703125 48.296875 44.390625 
C 48.296875 46.703125 47.203125 48 45.203125 48 
C 41 48 34.09375 44.21875 28.203125 38.71875 
C 24.40625 35.21875 21.59375 31.828125 16.40625 24.546875 
L 20.203125 40.609375 
C 20.59375 42.40625 20.796875 43.59375 20.796875 44.703125 
C 20.796875 46.796875 20 48 18.5 48 
C 16.40625 48 12.5 45.8125 5.203125 40.609375 
z
" id="URW_Palladio_L_Italic-110"/>
       <path d="M 15.90625 75.015625 
L 2.203125 75.015625 
L 2.203125 71 
L 11.90625 71 
L 11.90625 -20.984375 
L 2.203125 -20.984375 
L 2.203125 -25 
L 15.90625 -25 
z
" id="CMR10-93"/>
      </defs>
      <use transform="scale(0.996264)" xlink:href="#URW_Palladio_L_Italic-120"/>
      <use transform="translate(53.299136 0)scale(1.038107)" xlink:href="#CMR10-91"/>
      <use transform="translate(84.581835 0)scale(0.996264)" xlink:href="#URW_Palladio_L_Italic-110"/>
      <use transform="translate(142.464796 0)scale(1.038107)" xlink:href="#CMR10-93"/>
     </g>
    </g>
   </g>
   <g id="line2d_24">
    <path clip-path="url(#pb4aef469c1)" d="M 74.26633 13.420039 
L 77.070432 13.420039 
L 77.070432 65.133039 
L 79.874534 65.133039 
L 79.874534 134.947974 
L 82.678636 134.947974 
L 82.678636 107.673421 
L 85.482738 107.673421 
L 85.482738 28.311135 
L 88.28684 28.311135 
L 88.28684 27.805227 
L 91.090942 27.805227 
L 91.090942 106.990423 
L 93.895044 106.990423 
L 93.895044 135.2148 
L 96.699146 135.2148 
L 96.699146 65.909439 
L 99.503249 65.909439 
L 99.503249 13.424988 
L 102.307351 13.424988 
L 102.307351 64.358372 
L 105.111453 64.358372 
L 105.111453 134.671855 
L 107.915555 134.671855 
L 107.915555 108.351434 
L 110.719657 108.351434 
L 110.719657 28.824589 
L 113.523759 28.824589 
L 113.523759 27.306947 
L 116.327861 27.306947 
L 116.327861 106.302547 
L 119.131963 106.302547 
L 119.131963 135.472292 
L 121.936065 135.472292 
L 121.936065 66.687448 
L 124.740167 66.687448 
L 124.740167 13.439835 
L 127.544269 13.439835 
L 127.544269 63.58556 
L 130.348371 63.58556 
L 130.348371 134.386488 
L 133.152473 134.386488 
L 133.152473 109.024354 
L 135.956575 109.024354 
L 135.956575 29.345509 
L 138.760677 29.345509 
L 138.760677 26.816373 
L 141.564779 26.816373 
L 141.564779 105.609904 
L 144.368881 105.609904 
L 144.368881 135.72041 
L 147.172983 135.72041 
L 147.172983 67.466944 
L 149.977085 67.466944 
L 149.977085 13.464578 
L 152.781187 13.464578 
L 152.781187 62.814724 
L 155.585289 62.814724 
L 155.585289 134.091918 
L 158.389391 134.091918 
L 158.389391 109.692077 
L 161.193493 109.692077 
L 161.193493 29.873813 
L 163.997595 29.873813 
L 163.997595 26.333581 
L 166.801697 26.333581 
L 166.801697 104.9126 
L 169.605799 104.9126 
L 169.605799 135.959113 
L 172.409901 135.959113 
L 172.409901 68.247805 
L 175.214004 68.247805 
L 175.214004 13.499212 
L 178.018106 13.499212 
L 178.018106 62.045987 
L 180.822208 62.045987 
L 180.822208 133.788191 
L 183.62631 133.788191 
L 183.62631 110.354495 
L 186.430412 110.354495 
L 186.430412 30.409417 
L 189.234514 30.409417 
L 189.234514 25.858649 
L 192.038616 25.858649 
L 192.038616 104.210748 
L 194.842718 104.210748 
L 194.842718 136.188364 
L 197.64682 136.188364 
L 197.64682 69.029906 
L 200.450922 69.029906 
L 200.450922 13.543732 
L 203.255024 13.543732 
L 203.255024 61.27947 
L 206.059126 61.27947 
L 206.059126 133.475354 
L 208.863228 133.475354 
L 208.863228 111.011505 
L 211.66733 111.011505 
L 211.66733 30.952237 
L 214.471432 30.952237 
L 214.471432 25.391651 
L 217.275534 25.391651 
L 217.275534 103.504457 
L 220.079636 103.504457 
L 220.079636 136.408127 
L 222.883738 136.408127 
L 222.883738 69.813124 
L 225.68784 69.813124 
L 225.68784 13.598131 
L 228.491942 13.598131 
L 228.491942 60.515295 
L 231.296044 60.515295 
L 231.296044 133.153458 
L 234.100146 133.153458 
L 234.100146 111.663002 
L 236.904248 111.663002 
L 236.904248 31.502187 
L 239.70835 31.502187 
L 239.70835 24.932662 
L 242.512452 24.932662 
L 242.512452 102.793839 
L 245.316554 102.793839 
L 245.316554 136.618368 
L 248.120656 136.618368 
L 248.120656 70.597335 
L 250.924758 70.597335 
L 250.924758 13.662401 
L 253.728861 13.662401 
L 253.728861 59.75358 
L 256.532963 59.75358 
L 256.532963 132.822554 
L 259.337065 132.822554 
L 259.337065 112.308884 
L 262.141167 112.308884 
L 262.141167 32.059181 
L 264.945269 32.059181 
L 264.945269 24.481753 
L 267.749371 24.481753 
L 267.749371 102.079007 
L 270.553473 102.079007 
L 270.553473 136.819053 
L 273.357575 136.819053 
L 273.357575 71.382417 
L 276.161677 71.382417 
L 276.161677 13.73653 
L 278.965779 13.73653 
L 278.965779 58.994448 
L 281.769881 58.994448 
L 281.769881 132.482693 
L 284.573983 132.482693 
L 284.573983 112.94905 
L 287.378085 112.94905 
L 287.378085 32.623129 
L 290.182187 32.623129 
L 290.182187 24.038996 
L 292.986289 24.038996 
L 292.986289 101.360073 
L 295.790391 101.360073 
L 295.790391 137.01015 
L 298.594493 137.01015 
L 298.594493 72.168243 
L 301.398595 72.168243 
L 301.398595 13.820509 
L 304.202697 13.820509 
L 304.202697 58.238018 
L 307.006799 58.238018 
L 307.006799 132.133929 
L 309.810901 132.133929 
L 309.810901 113.583397 
L 312.615003 113.583397 
L 312.615003 33.193944 
L 315.419105 33.193944 
L 315.419105 23.60446 
L 318.223207 23.60446 
L 318.223207 100.637151 
L 321.027309 100.637151 
L 321.027309 137.19163 
L 323.831411 137.19163 
L 323.831411 72.954692 
L 326.635513 72.954692 
L 326.635513 13.914322 
L 329.439615 13.914322 
L 329.439615 57.484408 
L 332.243718 57.484408 
L 332.243718 131.776317 
L 335.04782 131.776317 
L 335.04782 114.211825 
L 337.851922 114.211825 
L 337.851922 33.771535 
L 340.656024 33.771535 
L 340.656024 23.178215 
L 343.460126 23.178215 
L 343.460126 99.910355 
L 346.264228 99.910355 
L 346.264228 137.363463 
L 349.06833 137.363463 
L 349.06833 73.741637 
L 351.872432 73.741637 
L 351.872432 14.017957 
L 354.676534 14.017957 
L 354.676534 56.73374 
L 357.480636 56.73374 
L 357.480636 131.409914 
L 360.284738 131.409914 
L 360.284738 114.834236 
L 363.08884 114.834236 
L 363.08884 34.35581 
L 365.892942 34.35581 
L 365.892942 22.760327 
L 368.697044 22.760327 
L 368.697044 99.1798 
L 371.501146 99.1798 
L 371.501146 137.525622 
L 374.305248 137.525622 
L 374.305248 74.528956 
L 377.10935 74.528956 
L 377.10935 14.131395 
L 379.913452 14.131395 
L 379.913452 55.986129 
L 382.717554 55.986129 
L 382.717554 131.034778 
L 385.521656 131.034778 
L 385.521656 115.450531 
L 388.325758 115.450531 
L 388.325758 34.946678 
L 391.12986 34.946678 
L 391.12986 22.350863 
L 393.933962 22.350863 
L 393.933962 98.4456 
L 396.738064 98.4456 
L 396.738064 137.678082 
L 399.542166 137.678082 
L 399.542166 75.316523 
L 402.346268 75.316523 
L 402.346268 14.25462 
L 405.15037 14.25462 
L 405.15037 55.241696 
L 407.954472 55.241696 
L 407.954472 130.650967 
L 410.758575 130.650967 
L 410.758575 116.060613 
L 413.562677 116.060613 
L 413.562677 35.544045 
L 416.366779 35.544045 
L 416.366779 21.949888 
L 419.170881 21.949888 
L 419.170881 97.707873 
L 421.974983 97.707873 
L 421.974983 137.82082 
L 421.974983 137.82082 
" style="fill:none;stroke:#0271ae;stroke-linecap:square;stroke-width:3;"/>
    <defs>
     <path d="M 0 2.5 
C 0.663008 2.5 1.29895 2.236584 1.767767 1.767767 
C 2.236584 1.29895 2.5 0.663008 2.5 0 
C 2.5 -0.663008 2.236584 -1.29895 1.767767 -1.767767 
C 1.29895 -2.236584 0.663008 -2.5 0 -2.5 
C -0.663008 -2.5 -1.29895 -2.236584 -1.767767 -1.767767 
C -2.236584 -1.29895 -2.5 -0.663008 -2.5 0 
C -2.5 0.663008 -2.236584 1.29895 -1.767767 1.767767 
C -1.29895 2.236584 -0.663008 2.5 0 2.5 
z
" id="m4dd57485f0"/>
    </defs>
    <g clip-path="url(#pb4aef469c1)">
     <use style="fill:#0271ae;" x="74.26633" xlink:href="#m4dd57485f0" y="13.420039"/>
     <use style="fill:#0271ae;" x="77.070432" xlink:href="#m4dd57485f0" y="65.133039"/>
     <use style="fill:#0271ae;" x="79.874534" xlink:href="#m4dd57485f0" y="134.947974"/>
     <use style="fill:#0271ae;" x="82.678636" xlink:href="#m4dd57485f0" y="107.673421"/>
     <use style="fill:#0271ae;" x="85.482738" xlink:href="#m4dd57485f0" y="28.311135"/>
     <use style="fill:#0271ae;" x="88.28684" xlink:href="#m4dd57485f0" y="27.805227"/>
     <use style="fill:#0271ae;" x="91.090942" xlink:href="#m4dd57485f0" y="106.990423"/>
     <use style="fill:#0271ae;" x="93.895044" xlink:href="#m4dd57485f0" y="135.2148"/>
     <use style="fill:#0271ae;" x="96.699146" xlink:href="#m4dd57485f0" y="65.909439"/>
     <use style="fill:#0271ae;" x="99.503249" xlink:href="#m4dd57485f0" y="13.424988"/>
     <use style="fill:#0271ae;" x="102.307351" xlink:href="#m4dd57485f0" y="64.358372"/>
     <use style="fill:#0271ae;" x="105.111453" xlink:href="#m4dd57485f0" y="134.671855"/>
     <use style="fill:#0271ae;" x="107.915555" xlink:href="#m4dd57485f0" y="108.351434"/>
     <use style="fill:#0271ae;" x="110.719657" xlink:href="#m4dd57485f0" y="28.824589"/>
     <use style="fill:#0271ae;" x="113.523759" xlink:href="#m4dd57485f0" y="27.306947"/>
     <use style="fill:#0271ae;" x="116.327861" xlink:href="#m4dd57485f0" y="106.302547"/>
     <use style="fill:#0271ae;" x="119.131963" xlink:href="#m4dd57485f0" y="135.472292"/>
     <use style="fill:#0271ae;" x="121.936065" xlink:href="#m4dd57485f0" y="66.687448"/>
     <use style="fill:#0271ae;" x="124.740167" xlink:href="#m4dd57485f0" y="13.439835"/>
     <use style="fill:#0271ae;" x="127.544269" xlink:href="#m4dd57485f0" y="63.58556"/>
     <use style="fill:#0271ae;" x="130.348371" xlink:href="#m4dd57485f0" y="134.386488"/>
     <use style="fill:#0271ae;" x="133.152473" xlink:href="#m4dd57485f0" y="109.024354"/>
     <use style="fill:#0271ae;" x="135.956575" xlink:href="#m4dd57485f0" y="29.345509"/>
     <use style="fill:#0271ae;" x="138.760677" xlink:href="#m4dd57485f0" y="26.816373"/>
     <use style="fill:#0271ae;" x="141.564779" xlink:href="#m4dd57485f0" y="105.609904"/>
     <use style="fill:#0271ae;" x="144.368881" xlink:href="#m4dd57485f0" y="135.72041"/>
     <use style="fill:#0271ae;" x="147.172983" xlink:href="#m4dd57485f0" y="67.466944"/>
     <use style="fill:#0271ae;" x="149.977085" xlink:href="#m4dd57485f0" y="13.464578"/>
     <use style="fill:#0271ae;" x="152.781187" xlink:href="#m4dd57485f0" y="62.814724"/>
     <use style="fill:#0271ae;" x="155.585289" xlink:href="#m4dd57485f0" y="134.091918"/>
     <use style="fill:#0271ae;" x="158.389391" xlink:href="#m4dd57485f0" y="109.692077"/>
     <use style="fill:#0271ae;" x="161.193493" xlink:href="#m4dd57485f0" y="29.873813"/>
     <use style="fill:#0271ae;" x="163.997595" xlink:href="#m4dd57485f0" y="26.333581"/>
     <use style="fill:#0271ae;" x="166.801697" xlink:href="#m4dd57485f0" y="104.9126"/>
     <use style="fill:#0271ae;" x="169.605799" xlink:href="#m4dd57485f0" y="135.959113"/>
     <use style="fill:#0271ae;" x="172.409901" xlink:href="#m4dd57485f0" y="68.247805"/>
     <use style="fill:#0271ae;" x="175.214004" xlink:href="#m4dd57485f0" y="13.499212"/>
     <use style="fill:#0271ae;" x="178.018106" xlink:href="#m4dd57485f0" y="62.045987"/>
     <use style="fill:#0271ae;" x="180.822208" xlink:href="#m4dd57485f0" y="133.788191"/>
     <use style="fill:#0271ae;" x="183.62631" xlink:href="#m4dd57485f0" y="110.354495"/>
     <use style="fill:#0271ae;" x="186.430412" xlink:href="#m4dd57485f0" y="30.409417"/>
     <use style="fill:#0271ae;" x="189.234514" xlink:href="#m4dd57485f0" y="25.858649"/>
     <use style="fill:#0271ae;" x="192.038616" xlink:href="#m4dd57485f0" y="104.210748"/>
     <use style="fill:#0271ae;" x="194.842718" xlink:href="#m4dd57485f0" y="136.188364"/>
     <use style="fill:#0271ae;" x="197.64682" xlink:href="#m4dd57485f0" y="69.029906"/>
     <use style="fill:#0271ae;" x="200.450922" xlink:href="#m4dd57485f0" y="13.543732"/>
     <use style="fill:#0271ae;" x="203.255024" xlink:href="#m4dd57485f0" y="61.27947"/>
     <use style="fill:#0271ae;" x="206.059126" xlink:href="#m4dd57485f0" y="133.475354"/>
     <use style="fill:#0271ae;" x="208.863228" xlink:href="#m4dd57485f0" y="111.011505"/>
     <use style="fill:#0271ae;" x="211.66733" xlink:href="#m4dd57485f0" y="30.952237"/>
     <use style="fill:#0271ae;" x="214.471432" xlink:href="#m4dd57485f0" y="25.391651"/>
     <use style="fill:#0271ae;" x="217.275534" xlink:href="#m4dd57485f0" y="103.504457"/>
     <use style="fill:#0271ae;" x="220.079636" xlink:href="#m4dd57485f0" y="136.408127"/>
     <use style="fill:#0271ae;" x="222.883738" xlink:href="#m4dd57485f0" y="69.813124"/>
     <use style="fill:#0271ae;" x="225.68784" xlink:href="#m4dd57485f0" y="13.598131"/>
     <use style="fill:#0271ae;" x="228.491942" xlink:href="#m4dd57485f0" y="60.515295"/>
     <use style="fill:#0271ae;" x="231.296044" xlink:href="#m4dd57485f0" y="133.153458"/>
     <use style="fill:#0271ae;" x="234.100146" xlink:href="#m4dd57485f0" y="111.663002"/>
     <use style="fill:#0271ae;" x="236.904248" xlink:href="#m4dd57485f0" y="31.502187"/>
     <use style="fill:#0271ae;" x="239.70835" xlink:href="#m4dd57485f0" y="24.932662"/>
     <use style="fill:#0271ae;" x="242.512452" xlink:href="#m4dd57485f0" y="102.793839"/>
     <use style="fill:#0271ae;" x="245.316554" xlink:href="#m4dd57485f0" y="136.618368"/>
     <use style="fill:#0271ae;" x="248.120656" xlink:href="#m4dd57485f0" y="70.597335"/>
     <use style="fill:#0271ae;" x="250.924758" xlink:href="#m4dd57485f0" y="13.662401"/>
     <use style="fill:#0271ae;" x="253.728861" xlink:href="#m4dd57485f0" y="59.75358"/>
     <use style="fill:#0271ae;" x="256.532963" xlink:href="#m4dd57485f0" y="132.822554"/>
     <use style="fill:#0271ae;" x="259.337065" xlink:href="#m4dd57485f0" y="112.308884"/>
     <use style="fill:#0271ae;" x="262.141167" xlink:href="#m4dd57485f0" y="32.059181"/>
     <use style="fill:#0271ae;" x="264.945269" xlink:href="#m4dd57485f0" y="24.481753"/>
     <use style="fill:#0271ae;" x="267.749371" xlink:href="#m4dd57485f0" y="102.079007"/>
     <use style="fill:#0271ae;" x="270.553473" xlink:href="#m4dd57485f0" y="136.819053"/>
     <use style="fill:#0271ae;" x="273.357575" xlink:href="#m4dd57485f0" y="71.382417"/>
     <use style="fill:#0271ae;" x="276.161677" xlink:href="#m4dd57485f0" y="13.73653"/>
     <use style="fill:#0271ae;" x="278.965779" xlink:href="#m4dd57485f0" y="58.994448"/>
     <use style="fill:#0271ae;" x="281.769881" xlink:href="#m4dd57485f0" y="132.482693"/>
     <use style="fill:#0271ae;" x="284.573983" xlink:href="#m4dd57485f0" y="112.94905"/>
     <use style="fill:#0271ae;" x="287.378085" xlink:href="#m4dd57485f0" y="32.623129"/>
     <use style="fill:#0271ae;" x="290.182187" xlink:href="#m4dd57485f0" y="24.038996"/>
     <use style="fill:#0271ae;" x="292.986289" xlink:href="#m4dd57485f0" y="101.360073"/>
     <use style="fill:#0271ae;" x="295.790391" xlink:href="#m4dd57485f0" y="137.01015"/>
     <use style="fill:#0271ae;" x="298.594493" xlink:href="#m4dd57485f0" y="72.168243"/>
     <use style="fill:#0271ae;" x="301.398595" xlink:href="#m4dd57485f0" y="13.820509"/>
     <use style="fill:#0271ae;" x="304.202697" xlink:href="#m4dd57485f0" y="58.238018"/>
     <use style="fill:#0271ae;" x="307.006799" xlink:href="#m4dd57485f0" y="132.133929"/>
     <use style="fill:#0271ae;" x="309.810901" xlink:href="#m4dd57485f0" y="113.583397"/>
     <use style="fill:#0271ae;" x="312.615003" xlink:href="#m4dd57485f0" y="33.193944"/>
     <use style="fill:#0271ae;" x="315.419105" xlink:href="#m4dd57485f0" y="23.60446"/>
     <use style="fill:#0271ae;" x="318.223207" xlink:href="#m4dd57485f0" y="100.637151"/>
     <use style="fill:#0271ae;" x="321.027309" xlink:href="#m4dd57485f0" y="137.19163"/>
     <use style="fill:#0271ae;" x="323.831411" xlink:href="#m4dd57485f0" y="72.954692"/>
     <use style="fill:#0271ae;" x="326.635513" xlink:href="#m4dd57485f0" y="13.914322"/>
     <use style="fill:#0271ae;" x="329.439615" xlink:href="#m4dd57485f0" y="57.484408"/>
     <use style="fill:#0271ae;" x="332.243718" xlink:href="#m4dd57485f0" y="131.776317"/>
     <use style="fill:#0271ae;" x="335.04782" xlink:href="#m4dd57485f0" y="114.211825"/>
     <use style="fill:#0271ae;" x="337.851922" xlink:href="#m4dd57485f0" y="33.771535"/>
     <use style="fill:#0271ae;" x="340.656024" xlink:href="#m4dd57485f0" y="23.178215"/>
     <use style="fill:#0271ae;" x="343.460126" xlink:href="#m4dd57485f0" y="99.910355"/>
     <use style="fill:#0271ae;" x="346.264228" xlink:href="#m4dd57485f0" y="137.363463"/>
     <use style="fill:#0271ae;" x="349.06833" xlink:href="#m4dd57485f0" y="73.741637"/>
     <use style="fill:#0271ae;" x="351.872432" xlink:href="#m4dd57485f0" y="14.017957"/>
     <use style="fill:#0271ae;" x="354.676534" xlink:href="#m4dd57485f0" y="56.73374"/>
     <use style="fill:#0271ae;" x="357.480636" xlink:href="#m4dd57485f0" y="131.409914"/>
     <use style="fill:#0271ae;" x="360.284738" xlink:href="#m4dd57485f0" y="114.834236"/>
     <use style="fill:#0271ae;" x="363.08884" xlink:href="#m4dd57485f0" y="34.35581"/>
     <use style="fill:#0271ae;" x="365.892942" xlink:href="#m4dd57485f0" y="22.760327"/>
     <use style="fill:#0271ae;" x="368.697044" xlink:href="#m4dd57485f0" y="99.1798"/>
     <use style="fill:#0271ae;" x="371.501146" xlink:href="#m4dd57485f0" y="137.525622"/>
     <use style="fill:#0271ae;" x="374.305248" xlink:href="#m4dd57485f0" y="74.528956"/>
     <use style="fill:#0271ae;" x="377.10935" xlink:href="#m4dd57485f0" y="14.131395"/>
     <use style="fill:#0271ae;" x="379.913452" xlink:href="#m4dd57485f0" y="55.986129"/>
     <use style="fill:#0271ae;" x="382.717554" xlink:href="#m4dd57485f0" y="131.034778"/>
     <use style="fill:#0271ae;" x="385.521656" xlink:href="#m4dd57485f0" y="115.450531"/>
     <use style="fill:#0271ae;" x="388.325758" xlink:href="#m4dd57485f0" y="34.946678"/>
     <use style="fill:#0271ae;" x="391.12986" xlink:href="#m4dd57485f0" y="22.350863"/>
     <use style="fill:#0271ae;" x="393.933962" xlink:href="#m4dd57485f0" y="98.4456"/>
     <use style="fill:#0271ae;" x="396.738064" xlink:href="#m4dd57485f0" y="137.678082"/>
     <use style="fill:#0271ae;" x="399.542166" xlink:href="#m4dd57485f0" y="75.316523"/>
     <use style="fill:#0271ae;" x="402.346268" xlink:href="#m4dd57485f0" y="14.25462"/>
     <use style="fill:#0271ae;" x="405.15037" xlink:href="#m4dd57485f0" y="55.241696"/>
     <use style="fill:#0271ae;" x="407.954472" xlink:href="#m4dd57485f0" y="130.650967"/>
     <use style="fill:#0271ae;" x="410.758575" xlink:href="#m4dd57485f0" y="116.060613"/>
     <use style="fill:#0271ae;" x="413.562677" xlink:href="#m4dd57485f0" y="35.544045"/>
     <use style="fill:#0271ae;" x="416.366779" xlink:href="#m4dd57485f0" y="21.949888"/>
     <use style="fill:#0271ae;" x="419.170881" xlink:href="#m4dd57485f0" y="97.707873"/>
     <use style="fill:#0271ae;" x="421.974983" xlink:href="#m4dd57485f0" y="137.82082"/>
    </g>
   </g>
   <g id="line2d_25">
    <path clip-path="url(#pb4aef469c1)" d="M 424.779085 13.420039 
L 427.583187 13.420039 
L 427.583187 65.133039 
L 430.387289 65.133039 
L 430.387289 134.947974 
L 433.191391 134.947974 
L 433.191391 107.673421 
L 435.995493 107.673421 
L 435.995493 28.311135 
L 438.799595 28.311135 
L 438.799595 27.805227 
L 441.603697 27.805227 
L 441.603697 106.990423 
L 444.407799 106.990423 
L 444.407799 135.2148 
L 447.211901 135.2148 
L 447.211901 65.909439 
L 450.016003 65.909439 
L 450.016003 13.424988 
L 452.820105 13.424988 
L 452.820105 64.358372 
L 455.624207 64.358372 
L 455.624207 134.671855 
L 458.428309 134.671855 
L 458.428309 108.351434 
L 461.232411 108.351434 
L 461.232411 28.824589 
L 464.036513 28.824589 
L 464.036513 27.306947 
L 466.840615 27.306947 
L 466.840615 106.302547 
L 469.644717 106.302547 
L 469.644717 135.472292 
L 472.448819 135.472292 
L 472.448819 66.687448 
L 475.252921 66.687448 
L 475.252921 13.439835 
L 478.057023 13.439835 
L 478.057023 63.58556 
L 480.861125 63.58556 
L 480.861125 134.386488 
L 483.665227 134.386488 
L 483.665227 109.024354 
L 486.469329 109.024354 
L 486.469329 29.345509 
L 489.273432 29.345509 
L 489.273432 26.816373 
L 492.077534 26.816373 
L 492.077534 105.609904 
L 494.881636 105.609904 
L 494.881636 135.72041 
L 497.685738 135.72041 
L 497.685738 67.466944 
L 500.48984 67.466944 
L 500.48984 13.464578 
L 503.293942 13.464578 
L 503.293942 62.814724 
L 506.098044 62.814724 
L 506.098044 134.091918 
L 508.902146 134.091918 
L 508.902146 109.692077 
L 511.706248 109.692077 
L 511.706248 29.873813 
L 514.51035 29.873813 
L 514.51035 26.333581 
L 517.314452 26.333581 
L 517.314452 104.9126 
L 520.118554 104.9126 
L 520.118554 135.959113 
L 522.922656 135.959113 
L 522.922656 68.247805 
L 525.726758 68.247805 
L 525.726758 13.499212 
L 528.53086 13.499212 
L 528.53086 62.045987 
L 531.334962 62.045987 
L 531.334962 133.788191 
L 534.139064 133.788191 
L 534.139064 110.354495 
L 536.943166 110.354495 
L 536.943166 30.409417 
L 539.747268 30.409417 
L 539.747268 25.858649 
L 542.55137 25.858649 
L 542.55137 104.210748 
L 545.355472 104.210748 
L 545.355472 136.188364 
L 548.159574 136.188364 
L 548.159574 69.029906 
L 550.963676 69.029906 
L 550.963676 13.543732 
L 553.767778 13.543732 
L 553.767778 61.27947 
L 556.57188 61.27947 
L 556.57188 133.475354 
L 559.375982 133.475354 
L 559.375982 111.011505 
L 562.180084 111.011505 
L 562.180084 30.952237 
L 564.984186 30.952237 
L 564.984186 25.391651 
L 567.788289 25.391651 
L 567.788289 103.504457 
L 570.592391 103.504457 
L 570.592391 136.408127 
L 573.396493 136.408127 
L 573.396493 69.813124 
L 576.200595 69.813124 
L 576.200595 13.598131 
L 579.004697 13.598131 
L 579.004697 60.515295 
L 581.808799 60.515295 
L 581.808799 133.153458 
L 584.612901 133.153458 
L 584.612901 111.663002 
L 585.388421 111.663002 
L 585.388421 111.663002 
" style="fill:none;stroke:#0271ae;stroke-linecap:square;stroke-opacity:0.25;stroke-width:3;"/>
    <defs>
     <path d="M 0 2.5 
C 0.663008 2.5 1.29895 2.236584 1.767767 1.767767 
C 2.236584 1.29895 2.5 0.663008 2.5 0 
C 2.5 -0.663008 2.236584 -1.29895 1.767767 -1.767767 
C 1.29895 -2.236584 0.663008 -2.5 0 -2.5 
C -0.663008 -2.5 -1.29895 -2.236584 -1.767767 -1.767767 
C -2.236584 -1.29895 -2.5 -0.663008 -2.5 0 
C -2.5 0.663008 -2.236584 1.29895 -1.767767 1.767767 
C -1.29895 2.236584 -0.663008 2.5 0 2.5 
z
" id="m403bf5e87c"/>
    </defs>
    <g clip-path="url(#pb4aef469c1)">
     <use style="fill:#0271ae;fill-opacity:0.25;" x="424.779085" xlink:href="#m403bf5e87c" y="13.420039"/>
     <use style="fill:#0271ae;fill-opacity:0.25;" x="427.583187" xlink:href="#m403bf5e87c" y="65.133039"/>
     <use style="fill:#0271ae;fill-opacity:0.25;" x="430.387289" xlink:href="#m403bf5e87c" y="134.947974"/>
     <use style="fill:#0271ae;fill-opacity:0.25;" x="433.191391" xlink:href="#m403bf5e87c" y="107.673421"/>
     <use style="fill:#0271ae;fill-opacity:0.25;" x="435.995493" xlink:href="#m403bf5e87c" y="28.311135"/>
     <use style="fill:#0271ae;fill-opacity:0.25;" x="438.799595" xlink:href="#m403bf5e87c" y="27.805227"/>
     <use style="fill:#0271ae;fill-opacity:0.25;" x="441.603697" xlink:href="#m403bf5e87c" y="106.990423"/>
     <use style="fill:#0271ae;fill-opacity:0.25;" x="444.407799" xlink:href="#m403bf5e87c" y="135.2148"/>
     <use style="fill:#0271ae;fill-opacity:0.25;" x="447.211901" xlink:href="#m403bf5e87c" y="65.909439"/>
     <use style="fill:#0271ae;fill-opacity:0.25;" x="450.016003" xlink:href="#m403bf5e87c" y="13.424988"/>
     <use style="fill:#0271ae;fill-opacity:0.25;" x="452.820105" xlink:href="#m403bf5e87c" y="64.358372"/>
     <use style="fill:#0271ae;fill-opacity:0.25;" x="455.624207" xlink:href="#m403bf5e87c" y="134.671855"/>
     <use style="fill:#0271ae;fill-opacity:0.25;" x="458.428309" xlink:href="#m403bf5e87c" y="108.351434"/>
     <use style="fill:#0271ae;fill-opacity:0.25;" x="461.232411" xlink:href="#m403bf5e87c" y="28.824589"/>
     <use style="fill:#0271ae;fill-opacity:0.25;" x="464.036513" xlink:href="#m403bf5e87c" y="27.306947"/>
     <use style="fill:#0271ae;fill-opacity:0.25;" x="466.840615" xlink:href="#m403bf5e87c" y="106.302547"/>
     <use style="fill:#0271ae;fill-opacity:0.25;" x="469.644717" xlink:href="#m403bf5e87c" y="135.472292"/>
     <use style="fill:#0271ae;fill-opacity:0.25;" x="472.448819" xlink:href="#m403bf5e87c" y="66.687448"/>
     <use style="fill:#0271ae;fill-opacity:0.25;" x="475.252921" xlink:href="#m403bf5e87c" y="13.439835"/>
     <use style="fill:#0271ae;fill-opacity:0.25;" x="478.057023" xlink:href="#m403bf5e87c" y="63.58556"/>
     <use style="fill:#0271ae;fill-opacity:0.25;" x="480.861125" xlink:href="#m403bf5e87c" y="134.386488"/>
     <use style="fill:#0271ae;fill-opacity:0.25;" x="483.665227" xlink:href="#m403bf5e87c" y="109.024354"/>
     <use style="fill:#0271ae;fill-opacity:0.25;" x="486.469329" xlink:href="#m403bf5e87c" y="29.345509"/>
     <use style="fill:#0271ae;fill-opacity:0.25;" x="489.273432" xlink:href="#m403bf5e87c" y="26.816373"/>
     <use style="fill:#0271ae;fill-opacity:0.25;" x="492.077534" xlink:href="#m403bf5e87c" y="105.609904"/>
     <use style="fill:#0271ae;fill-opacity:0.25;" x="494.881636" xlink:href="#m403bf5e87c" y="135.72041"/>
     <use style="fill:#0271ae;fill-opacity:0.25;" x="497.685738" xlink:href="#m403bf5e87c" y="67.466944"/>
     <use style="fill:#0271ae;fill-opacity:0.25;" x="500.48984" xlink:href="#m403bf5e87c" y="13.464578"/>
     <use style="fill:#0271ae;fill-opacity:0.25;" x="503.293942" xlink:href="#m403bf5e87c" y="62.814724"/>
     <use style="fill:#0271ae;fill-opacity:0.25;" x="506.098044" xlink:href="#m403bf5e87c" y="134.091918"/>
     <use style="fill:#0271ae;fill-opacity:0.25;" x="508.902146" xlink:href="#m403bf5e87c" y="109.692077"/>
     <use style="fill:#0271ae;fill-opacity:0.25;" x="511.706248" xlink:href="#m403bf5e87c" y="29.873813"/>
     <use style="fill:#0271ae;fill-opacity:0.25;" x="514.51035" xlink:href="#m403bf5e87c" y="26.333581"/>
     <use style="fill:#0271ae;fill-opacity:0.25;" x="517.314452" xlink:href="#m403bf5e87c" y="104.9126"/>
     <use style="fill:#0271ae;fill-opacity:0.25;" x="520.118554" xlink:href="#m403bf5e87c" y="135.959113"/>
     <use style="fill:#0271ae;fill-opacity:0.25;" x="522.922656" xlink:href="#m403bf5e87c" y="68.247805"/>
     <use style="fill:#0271ae;fill-opacity:0.25;" x="525.726758" xlink:href="#m403bf5e87c" y="13.499212"/>
     <use style="fill:#0271ae;fill-opacity:0.25;" x="528.53086" xlink:href="#m403bf5e87c" y="62.045987"/>
     <use style="fill:#0271ae;fill-opacity:0.25;" x="531.334962" xlink:href="#m403bf5e87c" y="133.788191"/>
     <use style="fill:#0271ae;fill-opacity:0.25;" x="534.139064" xlink:href="#m403bf5e87c" y="110.354495"/>
     <use style="fill:#0271ae;fill-opacity:0.25;" x="536.943166" xlink:href="#m403bf5e87c" y="30.409417"/>
     <use style="fill:#0271ae;fill-opacity:0.25;" x="539.747268" xlink:href="#m403bf5e87c" y="25.858649"/>
     <use style="fill:#0271ae;fill-opacity:0.25;" x="542.55137" xlink:href="#m403bf5e87c" y="104.210748"/>
     <use style="fill:#0271ae;fill-opacity:0.25;" x="545.355472" xlink:href="#m403bf5e87c" y="136.188364"/>
     <use style="fill:#0271ae;fill-opacity:0.25;" x="548.159574" xlink:href="#m403bf5e87c" y="69.029906"/>
     <use style="fill:#0271ae;fill-opacity:0.25;" x="550.963676" xlink:href="#m403bf5e87c" y="13.543732"/>
     <use style="fill:#0271ae;fill-opacity:0.25;" x="553.767778" xlink:href="#m403bf5e87c" y="61.27947"/>
     <use style="fill:#0271ae;fill-opacity:0.25;" x="556.57188" xlink:href="#m403bf5e87c" y="133.475354"/>
     <use style="fill:#0271ae;fill-opacity:0.25;" x="559.375982" xlink:href="#m403bf5e87c" y="111.011505"/>
     <use style="fill:#0271ae;fill-opacity:0.25;" x="562.180084" xlink:href="#m403bf5e87c" y="30.952237"/>
     <use style="fill:#0271ae;fill-opacity:0.25;" x="564.984186" xlink:href="#m403bf5e87c" y="25.391651"/>
     <use style="fill:#0271ae;fill-opacity:0.25;" x="567.788289" xlink:href="#m403bf5e87c" y="103.504457"/>
     <use style="fill:#0271ae;fill-opacity:0.25;" x="570.592391" xlink:href="#m403bf5e87c" y="136.408127"/>
     <use style="fill:#0271ae;fill-opacity:0.25;" x="573.396493" xlink:href="#m403bf5e87c" y="69.813124"/>
     <use style="fill:#0271ae;fill-opacity:0.25;" x="576.200595" xlink:href="#m403bf5e87c" y="13.598131"/>
     <use style="fill:#0271ae;fill-opacity:0.25;" x="579.004697" xlink:href="#m403bf5e87c" y="60.515295"/>
     <use style="fill:#0271ae;fill-opacity:0.25;" x="581.808799" xlink:href="#m403bf5e87c" y="133.153458"/>
     <use style="fill:#0271ae;fill-opacity:0.25;" x="584.612901" xlink:href="#m403bf5e87c" y="111.663002"/>
     <use style="fill:#0271ae;fill-opacity:0.25;" x="587.417003" xlink:href="#m403bf5e87c" y="31.502187"/>
     <use style="fill:#0271ae;fill-opacity:0.25;" x="590.221105" xlink:href="#m403bf5e87c" y="24.932662"/>
     <use style="fill:#0271ae;fill-opacity:0.25;" x="593.025207" xlink:href="#m403bf5e87c" y="102.793839"/>
     <use style="fill:#0271ae;fill-opacity:0.25;" x="595.829309" xlink:href="#m403bf5e87c" y="136.618368"/>
     <use style="fill:#0271ae;fill-opacity:0.25;" x="598.633411" xlink:href="#m403bf5e87c" y="70.597335"/>
     <use style="fill:#0271ae;fill-opacity:0.25;" x="601.437513" xlink:href="#m403bf5e87c" y="13.662401"/>
     <use style="fill:#0271ae;fill-opacity:0.25;" x="604.241615" xlink:href="#m403bf5e87c" y="59.75358"/>
     <use style="fill:#0271ae;fill-opacity:0.25;" x="607.045717" xlink:href="#m403bf5e87c" y="132.822554"/>
     <use style="fill:#0271ae;fill-opacity:0.25;" x="609.849819" xlink:href="#m403bf5e87c" y="112.308884"/>
     <use style="fill:#0271ae;fill-opacity:0.25;" x="612.653921" xlink:href="#m403bf5e87c" y="32.059181"/>
     <use style="fill:#0271ae;fill-opacity:0.25;" x="615.458023" xlink:href="#m403bf5e87c" y="24.481753"/>
     <use style="fill:#0271ae;fill-opacity:0.25;" x="618.262125" xlink:href="#m403bf5e87c" y="102.079007"/>
     <use style="fill:#0271ae;fill-opacity:0.25;" x="621.066227" xlink:href="#m403bf5e87c" y="136.819053"/>
     <use style="fill:#0271ae;fill-opacity:0.25;" x="623.870329" xlink:href="#m403bf5e87c" y="71.382417"/>
     <use style="fill:#0271ae;fill-opacity:0.25;" x="626.674431" xlink:href="#m403bf5e87c" y="13.73653"/>
     <use style="fill:#0271ae;fill-opacity:0.25;" x="629.478533" xlink:href="#m403bf5e87c" y="58.994448"/>
     <use style="fill:#0271ae;fill-opacity:0.25;" x="632.282635" xlink:href="#m403bf5e87c" y="132.482693"/>
     <use style="fill:#0271ae;fill-opacity:0.25;" x="635.086737" xlink:href="#m403bf5e87c" y="112.94905"/>
     <use style="fill:#0271ae;fill-opacity:0.25;" x="637.890839" xlink:href="#m403bf5e87c" y="32.623129"/>
     <use style="fill:#0271ae;fill-opacity:0.25;" x="640.694941" xlink:href="#m403bf5e87c" y="24.038996"/>
     <use style="fill:#0271ae;fill-opacity:0.25;" x="643.499043" xlink:href="#m403bf5e87c" y="101.360073"/>
     <use style="fill:#0271ae;fill-opacity:0.25;" x="646.303146" xlink:href="#m403bf5e87c" y="137.01015"/>
     <use style="fill:#0271ae;fill-opacity:0.25;" x="649.107248" xlink:href="#m403bf5e87c" y="72.168243"/>
     <use style="fill:#0271ae;fill-opacity:0.25;" x="651.91135" xlink:href="#m403bf5e87c" y="13.820509"/>
     <use style="fill:#0271ae;fill-opacity:0.25;" x="654.715452" xlink:href="#m403bf5e87c" y="58.238018"/>
     <use style="fill:#0271ae;fill-opacity:0.25;" x="657.519554" xlink:href="#m403bf5e87c" y="132.133929"/>
     <use style="fill:#0271ae;fill-opacity:0.25;" x="660.323656" xlink:href="#m403bf5e87c" y="113.583397"/>
     <use style="fill:#0271ae;fill-opacity:0.25;" x="663.127758" xlink:href="#m403bf5e87c" y="33.193944"/>
     <use style="fill:#0271ae;fill-opacity:0.25;" x="665.93186" xlink:href="#m403bf5e87c" y="23.60446"/>
     <use style="fill:#0271ae;fill-opacity:0.25;" x="668.735962" xlink:href="#m403bf5e87c" y="100.637151"/>
     <use style="fill:#0271ae;fill-opacity:0.25;" x="671.540064" xlink:href="#m403bf5e87c" y="137.19163"/>
     <use style="fill:#0271ae;fill-opacity:0.25;" x="674.344166" xlink:href="#m403bf5e87c" y="72.954692"/>
     <use style="fill:#0271ae;fill-opacity:0.25;" x="677.148268" xlink:href="#m403bf5e87c" y="13.914322"/>
     <use style="fill:#0271ae;fill-opacity:0.25;" x="679.95237" xlink:href="#m403bf5e87c" y="57.484408"/>
     <use style="fill:#0271ae;fill-opacity:0.25;" x="682.756472" xlink:href="#m403bf5e87c" y="131.776317"/>
     <use style="fill:#0271ae;fill-opacity:0.25;" x="685.560574" xlink:href="#m403bf5e87c" y="114.211825"/>
     <use style="fill:#0271ae;fill-opacity:0.25;" x="688.364676" xlink:href="#m403bf5e87c" y="33.771535"/>
     <use style="fill:#0271ae;fill-opacity:0.25;" x="691.168778" xlink:href="#m403bf5e87c" y="23.178215"/>
     <use style="fill:#0271ae;fill-opacity:0.25;" x="693.97288" xlink:href="#m403bf5e87c" y="99.910355"/>
     <use style="fill:#0271ae;fill-opacity:0.25;" x="696.776982" xlink:href="#m403bf5e87c" y="137.363463"/>
     <use style="fill:#0271ae;fill-opacity:0.25;" x="699.581084" xlink:href="#m403bf5e87c" y="73.741637"/>
     <use style="fill:#0271ae;fill-opacity:0.25;" x="702.385186" xlink:href="#m403bf5e87c" y="14.017957"/>
     <use style="fill:#0271ae;fill-opacity:0.25;" x="705.189288" xlink:href="#m403bf5e87c" y="56.73374"/>
     <use style="fill:#0271ae;fill-opacity:0.25;" x="707.99339" xlink:href="#m403bf5e87c" y="131.409914"/>
     <use style="fill:#0271ae;fill-opacity:0.25;" x="710.797492" xlink:href="#m403bf5e87c" y="114.834236"/>
     <use style="fill:#0271ae;fill-opacity:0.25;" x="713.601594" xlink:href="#m403bf5e87c" y="34.35581"/>
     <use style="fill:#0271ae;fill-opacity:0.25;" x="716.405696" xlink:href="#m403bf5e87c" y="22.760327"/>
     <use style="fill:#0271ae;fill-opacity:0.25;" x="719.209798" xlink:href="#m403bf5e87c" y="99.1798"/>
     <use style="fill:#0271ae;fill-opacity:0.25;" x="722.013901" xlink:href="#m403bf5e87c" y="137.525622"/>
     <use style="fill:#0271ae;fill-opacity:0.25;" x="724.818003" xlink:href="#m403bf5e87c" y="74.528956"/>
     <use style="fill:#0271ae;fill-opacity:0.25;" x="727.622105" xlink:href="#m403bf5e87c" y="14.131395"/>
     <use style="fill:#0271ae;fill-opacity:0.25;" x="730.426207" xlink:href="#m403bf5e87c" y="55.986129"/>
     <use style="fill:#0271ae;fill-opacity:0.25;" x="733.230309" xlink:href="#m403bf5e87c" y="131.034778"/>
     <use style="fill:#0271ae;fill-opacity:0.25;" x="736.034411" xlink:href="#m403bf5e87c" y="115.450531"/>
     <use style="fill:#0271ae;fill-opacity:0.25;" x="738.838513" xlink:href="#m403bf5e87c" y="34.946678"/>
     <use style="fill:#0271ae;fill-opacity:0.25;" x="741.642615" xlink:href="#m403bf5e87c" y="22.350863"/>
     <use style="fill:#0271ae;fill-opacity:0.25;" x="744.446717" xlink:href="#m403bf5e87c" y="98.4456"/>
     <use style="fill:#0271ae;fill-opacity:0.25;" x="747.250819" xlink:href="#m403bf5e87c" y="137.678082"/>
     <use style="fill:#0271ae;fill-opacity:0.25;" x="750.054921" xlink:href="#m403bf5e87c" y="75.316523"/>
     <use style="fill:#0271ae;fill-opacity:0.25;" x="752.859023" xlink:href="#m403bf5e87c" y="14.25462"/>
     <use style="fill:#0271ae;fill-opacity:0.25;" x="755.663125" xlink:href="#m403bf5e87c" y="55.241696"/>
     <use style="fill:#0271ae;fill-opacity:0.25;" x="758.467227" xlink:href="#m403bf5e87c" y="130.650967"/>
     <use style="fill:#0271ae;fill-opacity:0.25;" x="761.271329" xlink:href="#m403bf5e87c" y="116.060613"/>
     <use style="fill:#0271ae;fill-opacity:0.25;" x="764.075431" xlink:href="#m403bf5e87c" y="35.544045"/>
     <use style="fill:#0271ae;fill-opacity:0.25;" x="766.879533" xlink:href="#m403bf5e87c" y="21.949888"/>
     <use style="fill:#0271ae;fill-opacity:0.25;" x="769.683635" xlink:href="#m403bf5e87c" y="97.707873"/>
     <use style="fill:#0271ae;fill-opacity:0.25;" x="772.487737" xlink:href="#m403bf5e87c" y="137.82082"/>
    </g>
   </g>
  </g>
  <g id="axes_2">
   <g id="patch_3">
    <path d="M 67.256075 336.021659 
L 571.994442 336.021659 
L 571.994442 199.1808 
L 67.256075 199.1808 
z
" style="fill:none;"/>
   </g>
   <g id="matplotlib.axis_3">
    <g id="xtick_9">
     <g id="line2d_26">
      <path clip-path="url(#pf5d06a0771)" d="M 67.256075 336.021659 
L 67.256075 199.1808 
" style="fill:none;stroke:#000000;stroke-linecap:square;stroke-opacity:0.2;stroke-width:0.5;"/>
     </g>
     <g id="line2d_27">
      <g>
       <use style="fill-opacity:0.2;stroke:#000000;stroke-opacity:0.2;stroke-width:0.8;" x="67.256075" xlink:href="#m3099ca8e87" y="336.021659"/>
      </g>
     </g>
     <g id="text_14">
      <!-- $\mathdefault{0}$ -->
      <g transform="translate(63.769151 361.501188)scale(0.14 -0.14)">
       <use transform="scale(0.996264)" xlink:href="#URW_Palladio_L_Roman-48"/>
      </g>
     </g>
    </g>
    <g id="xtick_10">
     <g id="line2d_28">
      <path clip-path="url(#pf5d06a0771)" d="M 169.017843 336.021659 
L 169.017843 199.1808 
" style="fill:none;stroke:#000000;stroke-linecap:square;stroke-opacity:0.2;stroke-width:0.5;"/>
     </g>
     <g id="line2d_29">
      <g>
       <use style="fill-opacity:0.2;stroke:#000000;stroke-opacity:0.2;stroke-width:0.8;" x="169.017843" xlink:href="#m3099ca8e87" y="336.021659"/>
      </g>
     </g>
     <g id="text_15">
      <!-- $\mathdefault{50}$ -->
      <g transform="translate(162.043994 361.501188)scale(0.14 -0.14)">
       <use transform="scale(0.996264)" xlink:href="#URW_Palladio_L_Roman-53"/>
       <use transform="translate(49.8132 0)scale(0.996264)" xlink:href="#URW_Palladio_L_Roman-48"/>
      </g>
     </g>
    </g>
    <g id="xtick_11">
     <g id="line2d_30">
      <path clip-path="url(#pf5d06a0771)" d="M 270.77961 336.021659 
L 270.77961 199.1808 
" style="fill:none;stroke:#000000;stroke-linecap:square;stroke-opacity:0.2;stroke-width:0.5;"/>
     </g>
     <g id="line2d_31">
      <g>
       <use style="fill-opacity:0.2;stroke:#000000;stroke-opacity:0.2;stroke-width:0.8;" x="270.77961" xlink:href="#m3099ca8e87" y="336.021659"/>
      </g>
     </g>
     <g id="text_16">
      <!-- $\mathdefault{100}$ -->
      <g transform="translate(260.318838 361.501188)scale(0.14 -0.14)">
       <use transform="scale(0.996264)" xlink:href="#URW_Palladio_L_Roman-49"/>
       <use transform="translate(49.8132 0)scale(0.996264)" xlink:href="#URW_Palladio_L_Roman-48"/>
       <use transform="translate(99.626401 0)scale(0.996264)" xlink:href="#URW_Palladio_L_Roman-48"/>
      </g>
     </g>
    </g>
    <g id="xtick_12">
     <g id="line2d_32">
      <path clip-path="url(#pf5d06a0771)" d="M 372.541377 336.021659 
L 372.541377 199.1808 
" style="fill:none;stroke:#000000;stroke-linecap:square;stroke-opacity:0.2;stroke-width:0.5;"/>
     </g>
     <g id="line2d_33">
      <g>
       <use style="fill-opacity:0.2;stroke:#000000;stroke-opacity:0.2;stroke-width:0.8;" x="372.541377" xlink:href="#m3099ca8e87" y="336.021659"/>
      </g>
     </g>
     <g id="text_17">
      <!-- $\mathdefault{150}$ -->
      <g transform="translate(362.080605 361.501188)scale(0.14 -0.14)">
       <use transform="scale(0.996264)" xlink:href="#URW_Palladio_L_Roman-49"/>
       <use transform="translate(49.8132 0)scale(0.996264)" xlink:href="#URW_Palladio_L_Roman-53"/>
       <use transform="translate(99.626401 0)scale(0.996264)" xlink:href="#URW_Palladio_L_Roman-48"/>
      </g>
     </g>
    </g>
    <g id="xtick_13">
     <g id="line2d_34">
      <path clip-path="url(#pf5d06a0771)" d="M 474.303145 336.021659 
L 474.303145 199.1808 
" style="fill:none;stroke:#000000;stroke-linecap:square;stroke-opacity:0.2;stroke-width:0.5;"/>
     </g>
     <g id="line2d_35">
      <g>
       <use style="fill-opacity:0.2;stroke:#000000;stroke-opacity:0.2;stroke-width:0.8;" x="474.303145" xlink:href="#m3099ca8e87" y="336.021659"/>
      </g>
     </g>
     <g id="text_18">
      <!-- $\mathdefault{200}$ -->
      <g transform="translate(463.842373 361.501188)scale(0.14 -0.14)">
       <use transform="scale(0.996264)" xlink:href="#URW_Palladio_L_Roman-50"/>
       <use transform="translate(49.8132 0)scale(0.996264)" xlink:href="#URW_Palladio_L_Roman-48"/>
       <use transform="translate(99.626401 0)scale(0.996264)" xlink:href="#URW_Palladio_L_Roman-48"/>
      </g>
     </g>
    </g>
    <g id="text_19">
     <!-- Frequency [Hz] -->
     <g transform="translate(278.475964 377.988236)scale(0.12 -0.12)">
      <defs>
       <path d="M 21.59375 32.8125 
C 24.40625 33 27.40625 33 31.90625 33 
C 39.296875 33 42 32.71875 43.796875 31.875 
L 44.59375 29.53125 
L 45.09375 24 
L 48.09375 24 
C 47.796875 33.3125 47.796875 33.3125 47.796875 35.109375 
C 47.796875 36.71875 47.796875 36.71875 48.09375 46.734375 
L 45.09375 46.734375 
L 44.59375 41.28125 
C 44.5 40.328125 44.203125 39.390625 43.796875 38.546875 
C 42 37.71875 39.203125 37.40625 32.59375 37.40625 
C 28.40625 37.40625 25 37.40625 21.59375 37.40625 
L 21.59375 64.328125 
C 24.59375 65 26.40625 65 32.296875 65 
C 37.09375 65 42.703125 64.4375 45.796875 63.6875 
C 48.203125 63.109375 48.5 62.625 48.5 60.4375 
L 48.5 54.140625 
L 52 54.140625 
C 52 60.046875 52.5 64.78125 53.59375 69.109375 
C 48.703125 69.109375 45.703125 69.109375 41.40625 69.109375 
L 30.703125 69.109375 
C 25.796875 69.109375 22.296875 69.109375 19.796875 69.109375 
C 16.90625 69.109375 16.90625 69.109375 2.203125 69.109375 
L 2.203125 66 
L 7 66 
C 11.59375 66 12.09375 65.1875 12.09375 57.234375 
L 12.09375 11.96875 
C 12.09375 4 11.59375 3.203125 7 3.203125 
L 2.203125 3.203125 
L 2.203125 0 
C 8.09375 0 11.59375 0 16.796875 0 
C 22 0 25.59375 0 31.5 0 
L 31.5 3.203125 
L 26.703125 3.203125 
C 22.09375 3.203125 21.59375 4 21.59375 11.96875 
z
" id="URW_Palladio_L_Roman-70"/>
       <path d="M 2.296875 40.078125 
L 6 40.078125 
C 10 40.078125 10.40625 39.375 10.40625 32.71875 
L 10.40625 10.046875 
C 10.40625 3.703125 10.09375 3 6.703125 3 
L 2.09375 3 
L 2.09375 -0.109375 
C 9.296875 -0.109375 11.90625 -0.109375 14.40625 -0.109375 
C 16.40625 -0.109375 16.40625 -0.109375 28.703125 -0.109375 
L 28.703125 3 
L 23.5 3 
C 19 3 18.796875 3.296875 18.796875 9.96875 
L 18.796875 27.359375 
C 18.796875 33.421875 22.796875 38.484375 27.703125 38.484375 
C 30.703125 38.484375 32.796875 37.078125 34.40625 33.890625 
L 36.5 33.890625 
L 37.40625 45.890625 
C 36.296875 46.59375 34.5 47 32.703125 47 
C 29.703125 47 26.5 45.390625 24.40625 42.890625 
L 18.796875 36.28125 
L 18.796875 46.59375 
L 17.90625 47 
C 12.796875 44.890625 7.59375 43.484375 2.296875 42.890625 
z
" id="URW_Palladio_L_Roman-114"/>
       <path d="M 39.296875 6.8125 
L 39.296875 -17.78125 
C 39.296875 -24.171875 38.90625 -24.890625 35.59375 -24.890625 
L 29.796875 -24.890625 
L 29.796875 -28 
C 41.40625 -28 41.40625 -28 43.703125 -28 
C 46.09375 -28 48.90625 -28 56 -28 
L 56 -24.890625 
L 51.40625 -24.890625 
C 48 -24.890625 47.703125 -24.1875 47.703125 -17.859375 
L 47.703125 31.8125 
C 47.703125 38.046875 48.296875 41.875 50 45.6875 
L 48.09375 46.796875 
L 43.203125 43.6875 
C 38.09375 45.984375 33.796875 47 29.5 47 
C 26.59375 47 23.09375 46.1875 21.59375 45.296875 
L 13.203125 39.90625 
C 6.796875 35.8125 3.5 29.234375 3.5 20.546875 
C 3.5 7.484375 11.40625 -1 23.796875 -1 
C 25.90625 -1 27.59375 -0.59375 28.90625 0.203125 
z
M 39.296875 12.203125 
C 39.296875 10.796875 36.90625 8.203125 34.203125 6.703125 
C 31.796875 5.40625 29.5 4.71875 27.09375 4.71875 
C 18.296875 4.71875 12.203125 12.875 12.203125 24.9375 
C 12.203125 35.90625 17.796875 42.28125 27.40625 42.28125 
C 32.296875 42.28125 35.796875 41.09375 39.296875 38.203125 
z
" id="URW_Palladio_L_Roman-113"/>
       <path d="M 50.296875 47.015625 
L 49.40625 47.421875 
C 44.296875 45.3125 39.09375 43.90625 33.796875 43.3125 
L 33.796875 40.5 
L 37.5 40.5 
C 41.5 40.5 41.90625 39.796875 41.90625 33.140625 
L 41.90625 16.71875 
C 41.90625 14.5 40.5 11.671875 38.203125 9.359375 
C 35.40625 6.53125 32.203125 5.109375 28.296875 5.109375 
C 24.796875 5.109375 22 6.21875 20.40625 8.140625 
C 19 9.75 18.296875 12.875 18.296875 17.296875 
L 18.296875 47.015625 
L 17.40625 47.421875 
C 12.296875 45.3125 7.09375 43.90625 1.796875 43.3125 
L 1.796875 40.5 
L 5.5 40.5 
C 9.5 40.5 9.90625 39.796875 9.90625 33.15625 
L 9.90625 16.234375 
C 9.90625 9.171875 10.5 6.046875 12.296875 3.546875 
C 14.5 0.515625 18.296875 -1 24 -1 
C 28.5 -1 32.5 0.40625 35.203125 2.90625 
L 41.90625 9.140625 
C 41.90625 6.265625 41.796875 4.65625 41.5 0 
C 48.203125 0 48.296875 0 49.796875 0 
C 51.203125 0 51.203125 0 58.09375 0 
L 58.09375 2.90625 
L 54 3.3125 
C 50.59375 3.3125 50.296875 3.921875 50.296875 10.375 
z
" id="URW_Palladio_L_Roman-117"/>
       <path d="M 29.703125 8.8125 
C 27.5 12.625 26.40625 14.9375 24.59375 19.84375 
L 18.203125 36.671875 
C 17.59375 38.375 17.203125 39.875 17.203125 40.90625 
C 17.203125 42.34375 18.296875 43.1875 20.59375 43.1875 
L 24.40625 43.1875 
L 24.40625 46 
C 14.703125 46 14.703125 46 12.796875 46 
C 10.90625 46 10.90625 46 1.203125 46 
L 1.203125 43.390625 
L 3 43.1875 
C 5.5 42.890625 6.703125 41.78125 8.203125 38.296875 
L 19.09375 12.109375 
C 21.90625 5.3125 22.90625 2.90625 24.703125 -2.09375 
L 22.40625 -8.1875 
C 19.203125 -16.59375 15.296875 -21.28125 11.5 -21.28125 
C 9.90625 -21.28125 8.09375 -20.484375 6.40625 -18.984375 
L 5.09375 -18.984375 
L 2.703125 -26.5 
C 4.59375 -27.5 6.203125 -28 8.09375 -28 
C 14.796875 -28 19.09375 -24.40625 22.90625 -15.703125 
L 43.203125 31.09375 
C 47.203125 40.1875 49.09375 42.890625 51.59375 43.1875 
L 54.40625 43.390625 
L 54.40625 46 
C 46.5 46 46.5 46 44.90625 46 
C 43.296875 46 43.296875 46 35.40625 46 
L 35.40625 43.390625 
L 38 43.1875 
C 40.796875 42.984375 42.203125 42.09375 42.203125 40.6875 
C 42.203125 39.984375 42 39.078125 41.59375 38.078125 
z
" id="URW_Palladio_L_Roman-121"/>
       <path d="M 61.59375 12.078125 
C 61.59375 4.015625 61.09375 3.203125 56.5 3.203125 
L 51.703125 3.203125 
L 51.703125 0 
C 57.59375 0 61.09375 0 66.296875 0 
C 71.5 0 75.09375 0 81 0 
L 81 3.203125 
L 76.203125 3.203125 
C 71.59375 3.203125 71.09375 4 71.09375 11.96875 
L 71.09375 57.234375 
C 71.09375 65.1875 71.59375 66 76.203125 66 
L 81 66 
L 81 69.109375 
C 73.703125 69.109375 71.5 69.109375 66.296875 69.109375 
C 61.296875 69.109375 58.90625 69.109375 51.703125 69.109375 
L 51.703125 66 
L 56.5 66 
C 61.09375 66 61.59375 65.1875 61.59375 57.3125 
L 61.59375 39.515625 
C 59.5 39.515625 57.40625 39.515625 53.296875 39.515625 
L 29.90625 39.515625 
C 25.796875 39.515625 23.59375 39.515625 21.59375 39.515625 
L 21.59375 57.3125 
C 21.59375 65.1875 22.09375 66 26.703125 66 
L 31.5 66 
L 31.5 69.109375 
C 24.203125 69.109375 22 69.109375 16.796875 69.109375 
C 11.796875 69.109375 9.40625 69.109375 2.203125 69.109375 
L 2.203125 66 
L 7 66 
C 11.59375 66 12.09375 65.1875 12.09375 57.234375 
L 12.09375 11.96875 
C 12.09375 4 11.59375 3.203125 7 3.203125 
L 2.203125 3.203125 
L 2.203125 0 
C 8.09375 0 11.59375 0 16.796875 0 
C 22 0 25.59375 0 31.5 0 
L 31.5 3.203125 
L 26.703125 3.203125 
C 22.09375 3.203125 21.59375 4.015625 21.59375 12.078125 
L 21.59375 34.796875 
C 24.296875 35 25.90625 35 29.90625 35 
L 53.296875 35 
C 57.296875 35 58.90625 35 61.59375 34.796875 
z
" id="URW_Palladio_L_Roman-72"/>
       <path d="M 45.5 43.1875 
L 45.5 46 
C 38.5 46 35.5 46 31.703125 46 
L 6.90625 46 
C 6.703125 41 6.59375 39.828125 6 33.046875 
L 9 33.046875 
L 10.203125 39.796875 
C 10.59375 41.890625 12.40625 42.390625 19.796875 42.390625 
L 34.09375 42.390625 
C 32 39.109375 30.296875 36.828125 27.59375 33.453125 
L 10.59375 12.40625 
C 8.203125 9.515625 6.796875 7.828125 1.59375 1.984375 
L 2.203125 0 
C 12.59375 0 13.203125 0 17.5 0 
L 45.09375 0 
C 45.09375 2.265625 45.296875 4.640625 46 9.40625 
L 46.59375 14.046875 
L 43.59375 14.046875 
L 41.796875 6.203125 
C 41.40625 4.40625 37.203125 3.703125 27.59375 3.703125 
L 14.09375 3.703125 
z
" id="URW_Palladio_L_Roman-122"/>
      </defs>
      <use transform="scale(0.996264)" xlink:href="#URW_Palladio_L_Roman-70"/>
      <use transform="translate(55.391677 0)scale(0.996264)" xlink:href="#URW_Palladio_L_Roman-114"/>
      <use transform="translate(92.950994 0)scale(0.996264)" xlink:href="#URW_Palladio_L_Roman-101"/>
      <use transform="translate(140.671289 0)scale(0.996264)" xlink:href="#URW_Palladio_L_Roman-113"/>
      <use transform="translate(196.461922 0)scale(0.996264)" xlink:href="#URW_Palladio_L_Roman-117"/>
      <use transform="translate(256.535657 0)scale(0.996264)" xlink:href="#URW_Palladio_L_Roman-101"/>
      <use transform="translate(304.255952 0)scale(0.996264)" xlink:href="#URW_Palladio_L_Roman-110"/>
      <use transform="translate(362.238012 0)scale(0.996264)" xlink:href="#URW_Palladio_L_Roman-99"/>
      <use transform="translate(406.471581 0)scale(0.996264)" xlink:href="#URW_Palladio_L_Roman-121"/>
      <use transform="translate(486.769858 0)scale(0.996264)" xlink:href="#URW_Palladio_L_Roman-91"/>
      <use transform="translate(519.945088 0)scale(0.996264)" xlink:href="#URW_Palladio_L_Roman-72"/>
      <use transform="translate(602.833749 0)scale(0.996264)" xlink:href="#URW_Palladio_L_Roman-122"/>
      <use transform="translate(652.64695 0)scale(0.996264)" xlink:href="#URW_Palladio_L_Roman-93"/>
     </g>
    </g>
   </g>
   <g id="matplotlib.axis_4">
    <g id="ytick_4">
     <g id="line2d_36">
      <path clip-path="url(#pf5d06a0771)" d="M 67.256075 329.090013 
L 571.994442 329.090013 
" style="fill:none;stroke:#000000;stroke-linecap:square;stroke-opacity:0.2;stroke-width:0.5;"/>
     </g>
     <g id="line2d_37">
      <g>
       <use style="fill-opacity:0.2;stroke:#000000;stroke-opacity:0.2;stroke-width:0.8;" x="67.256075" xlink:href="#m823f6836f9" y="329.090013"/>
      </g>
     </g>
     <g id="text_20">
      <!-- $\mathdefault{10^{-1}}$ -->
      <g transform="translate(23.657268 334.079777)scale(0.14 -0.14)">
       <use transform="scale(0.996264)" xlink:href="#URW_Palladio_L_Roman-49"/>
       <use transform="translate(49.8132 0)scale(0.996264)" xlink:href="#URW_Palladio_L_Roman-48"/>
       <use transform="translate(100.572818 36.164371)scale(0.788955)" xlink:href="#CMSY10-0"/>
       <use transform="translate(162.84806 36.164371)scale(0.757155)" xlink:href="#URW_Palladio_L_Roman-49"/>
      </g>
     </g>
    </g>
    <g id="ytick_5">
     <g id="line2d_38">
      <path clip-path="url(#pf5d06a0771)" d="M 67.256075 284.341413 
L 571.994442 284.341413 
" style="fill:none;stroke:#000000;stroke-linecap:square;stroke-opacity:0.2;stroke-width:0.5;"/>
     </g>
     <g id="line2d_39">
      <g>
       <use style="fill-opacity:0.2;stroke:#000000;stroke-opacity:0.2;stroke-width:0.8;" x="67.256075" xlink:href="#m823f6836f9" y="284.341413"/>
      </g>
     </g>
     <g id="text_21">
      <!-- $\mathdefault{10^{0}}$ -->
      <g transform="translate(32.508293 289.331177)scale(0.14 -0.14)">
       <use transform="scale(0.996264)" xlink:href="#URW_Palladio_L_Roman-49"/>
       <use transform="translate(49.8132 0)scale(0.996264)" xlink:href="#URW_Palladio_L_Roman-48"/>
       <use transform="translate(99.626401 36.164371)scale(0.757155)" xlink:href="#URW_Palladio_L_Roman-48"/>
      </g>
     </g>
    </g>
    <g id="ytick_6">
     <g id="line2d_40">
      <path clip-path="url(#pf5d06a0771)" d="M 67.256075 239.592813 
L 571.994442 239.592813 
" style="fill:none;stroke:#000000;stroke-linecap:square;stroke-opacity:0.2;stroke-width:0.5;"/>
     </g>
     <g id="line2d_41">
      <g>
       <use style="fill-opacity:0.2;stroke:#000000;stroke-opacity:0.2;stroke-width:0.8;" x="67.256075" xlink:href="#m823f6836f9" y="239.592813"/>
      </g>
     </g>
     <g id="text_22">
      <!-- $\mathdefault{10^{1}}$ -->
      <g transform="translate(32.508293 244.582577)scale(0.14 -0.14)">
       <use transform="scale(0.996264)" xlink:href="#URW_Palladio_L_Roman-49"/>
       <use transform="translate(49.8132 0)scale(0.996264)" xlink:href="#URW_Palladio_L_Roman-48"/>
       <use transform="translate(99.626401 36.164371)scale(0.757155)" xlink:href="#URW_Palladio_L_Roman-49"/>
      </g>
     </g>
    </g>
    <g id="ytick_7">
     <g id="line2d_42">
      <defs>
       <path d="M 0 0 
L -2 0 
" id="mbf5368ab70" style="stroke:#000000;stroke-opacity:0.2;stroke-width:0.6;"/>
      </defs>
      <g>
       <use style="fill-opacity:0.2;stroke:#000000;stroke-opacity:0.2;stroke-width:0.6;" x="67.256075" xlink:href="#mbf5368ab70" y="336.021659"/>
      </g>
     </g>
    </g>
    <g id="ytick_8">
     <g id="line2d_43">
      <g>
       <use style="fill-opacity:0.2;stroke:#000000;stroke-opacity:0.2;stroke-width:0.6;" x="67.256075" xlink:href="#mbf5368ab70" y="333.4266"/>
      </g>
     </g>
    </g>
    <g id="ytick_9">
     <g id="line2d_44">
      <g>
       <use style="fill-opacity:0.2;stroke:#000000;stroke-opacity:0.2;stroke-width:0.6;" x="67.256075" xlink:href="#mbf5368ab70" y="331.137596"/>
      </g>
     </g>
    </g>
    <g id="ytick_10">
     <g id="line2d_45">
      <g>
       <use style="fill-opacity:0.2;stroke:#000000;stroke-opacity:0.2;stroke-width:0.6;" x="67.256075" xlink:href="#mbf5368ab70" y="315.619342"/>
      </g>
     </g>
    </g>
    <g id="ytick_11">
     <g id="line2d_46">
      <g>
       <use style="fill-opacity:0.2;stroke:#000000;stroke-opacity:0.2;stroke-width:0.6;" x="67.256075" xlink:href="#mbf5368ab70" y="307.739505"/>
      </g>
     </g>
    </g>
    <g id="ytick_12">
     <g id="line2d_47">
      <g>
       <use style="fill-opacity:0.2;stroke:#000000;stroke-opacity:0.2;stroke-width:0.6;" x="67.256075" xlink:href="#mbf5368ab70" y="302.148671"/>
      </g>
     </g>
    </g>
    <g id="ytick_13">
     <g id="line2d_48">
      <g>
       <use style="fill-opacity:0.2;stroke:#000000;stroke-opacity:0.2;stroke-width:0.6;" x="67.256075" xlink:href="#mbf5368ab70" y="297.812084"/>
      </g>
     </g>
    </g>
    <g id="ytick_14">
     <g id="line2d_49">
      <g>
       <use style="fill-opacity:0.2;stroke:#000000;stroke-opacity:0.2;stroke-width:0.6;" x="67.256075" xlink:href="#mbf5368ab70" y="294.268834"/>
      </g>
     </g>
    </g>
    <g id="ytick_15">
     <g id="line2d_50">
      <g>
       <use style="fill-opacity:0.2;stroke:#000000;stroke-opacity:0.2;stroke-width:0.6;" x="67.256075" xlink:href="#mbf5368ab70" y="291.273059"/>
      </g>
     </g>
    </g>
    <g id="ytick_16">
     <g id="line2d_51">
      <g>
       <use style="fill-opacity:0.2;stroke:#000000;stroke-opacity:0.2;stroke-width:0.6;" x="67.256075" xlink:href="#mbf5368ab70" y="288.678"/>
      </g>
     </g>
    </g>
    <g id="ytick_17">
     <g id="line2d_52">
      <g>
       <use style="fill-opacity:0.2;stroke:#000000;stroke-opacity:0.2;stroke-width:0.6;" x="67.256075" xlink:href="#mbf5368ab70" y="286.388996"/>
      </g>
     </g>
    </g>
    <g id="ytick_18">
     <g id="line2d_53">
      <g>
       <use style="fill-opacity:0.2;stroke:#000000;stroke-opacity:0.2;stroke-width:0.6;" x="67.256075" xlink:href="#mbf5368ab70" y="270.870742"/>
      </g>
     </g>
    </g>
    <g id="ytick_19">
     <g id="line2d_54">
      <g>
       <use style="fill-opacity:0.2;stroke:#000000;stroke-opacity:0.2;stroke-width:0.6;" x="67.256075" xlink:href="#mbf5368ab70" y="262.990904"/>
      </g>
     </g>
    </g>
    <g id="ytick_20">
     <g id="line2d_55">
      <g>
       <use style="fill-opacity:0.2;stroke:#000000;stroke-opacity:0.2;stroke-width:0.6;" x="67.256075" xlink:href="#mbf5368ab70" y="257.400071"/>
      </g>
     </g>
    </g>
    <g id="ytick_21">
     <g id="line2d_56">
      <g>
       <use style="fill-opacity:0.2;stroke:#000000;stroke-opacity:0.2;stroke-width:0.6;" x="67.256075" xlink:href="#mbf5368ab70" y="253.063484"/>
      </g>
     </g>
    </g>
    <g id="ytick_22">
     <g id="line2d_57">
      <g>
       <use style="fill-opacity:0.2;stroke:#000000;stroke-opacity:0.2;stroke-width:0.6;" x="67.256075" xlink:href="#mbf5368ab70" y="249.520234"/>
      </g>
     </g>
    </g>
    <g id="ytick_23">
     <g id="line2d_58">
      <g>
       <use style="fill-opacity:0.2;stroke:#000000;stroke-opacity:0.2;stroke-width:0.6;" x="67.256075" xlink:href="#mbf5368ab70" y="246.524458"/>
      </g>
     </g>
    </g>
    <g id="ytick_24">
     <g id="line2d_59">
      <g>
       <use style="fill-opacity:0.2;stroke:#000000;stroke-opacity:0.2;stroke-width:0.6;" x="67.256075" xlink:href="#mbf5368ab70" y="243.9294"/>
      </g>
     </g>
    </g>
    <g id="ytick_25">
     <g id="line2d_60">
      <g>
       <use style="fill-opacity:0.2;stroke:#000000;stroke-opacity:0.2;stroke-width:0.6;" x="67.256075" xlink:href="#mbf5368ab70" y="241.640396"/>
      </g>
     </g>
    </g>
    <g id="ytick_26">
     <g id="line2d_61">
      <g>
       <use style="fill-opacity:0.2;stroke:#000000;stroke-opacity:0.2;stroke-width:0.6;" x="67.256075" xlink:href="#mbf5368ab70" y="226.122142"/>
      </g>
     </g>
    </g>
    <g id="ytick_27">
     <g id="line2d_62">
      <g>
       <use style="fill-opacity:0.2;stroke:#000000;stroke-opacity:0.2;stroke-width:0.6;" x="67.256075" xlink:href="#mbf5368ab70" y="218.242304"/>
      </g>
     </g>
    </g>
    <g id="ytick_28">
     <g id="line2d_63">
      <g>
       <use style="fill-opacity:0.2;stroke:#000000;stroke-opacity:0.2;stroke-width:0.6;" x="67.256075" xlink:href="#mbf5368ab70" y="212.651471"/>
      </g>
     </g>
    </g>
    <g id="ytick_29">
     <g id="line2d_64">
      <g>
       <use style="fill-opacity:0.2;stroke:#000000;stroke-opacity:0.2;stroke-width:0.6;" x="67.256075" xlink:href="#mbf5368ab70" y="208.314883"/>
      </g>
     </g>
    </g>
    <g id="ytick_30">
     <g id="line2d_65">
      <g>
       <use style="fill-opacity:0.2;stroke:#000000;stroke-opacity:0.2;stroke-width:0.6;" x="67.256075" xlink:href="#mbf5368ab70" y="204.771634"/>
      </g>
     </g>
    </g>
    <g id="ytick_31">
     <g id="line2d_66">
      <g>
       <use style="fill-opacity:0.2;stroke:#000000;stroke-opacity:0.2;stroke-width:0.6;" x="67.256075" xlink:href="#mbf5368ab70" y="201.775858"/>
      </g>
     </g>
    </g>
    <g id="ytick_32">
     <g id="line2d_67">
      <g>
       <use style="fill-opacity:0.2;stroke:#000000;stroke-opacity:0.2;stroke-width:0.6;" x="67.256075" xlink:href="#mbf5368ab70" y="199.1808"/>
      </g>
     </g>
    </g>
    <g id="text_23">
     <!-- $|X[m]|$ -->
     <g transform="translate(16.285984 284.448696)rotate(-90)scale(0.12 -0.12)">
      <defs>
       <path d="M 15.90625 71.40625 
C 15.90625 73.203125 15.90625 75 13.90625 75 
C 11.90625 75 11.90625 73.203125 11.90625 71.40625 
L 11.90625 -21.40625 
C 11.90625 -23.203125 11.90625 -25 13.90625 -25 
C 15.90625 -25 15.90625 -23.203125 15.90625 -21.40625 
z
" id="CMSY10-106"/>
       <path d="M 41.59375 2.6875 
L 41.59375 0 
C 46.40625 0 50.90625 0 55.09375 0 
C 59.09375 0 63.59375 0 68.40625 0 
L 68.40625 2.6875 
L 65.90625 2.890625 
C 61.796875 3.1875 60.5 3.890625 59.09375 6.28125 
L 42 36.890625 
L 64.09375 62.03125 
C 67.09375 65.328125 68 65.921875 70.59375 66.21875 
L 73.40625 66.421875 
L 73.40625 69 
L 62 69 
C 60.796875 69 59.40625 69 50.5 69 
L 50.5 66.21875 
L 53.796875 66.21875 
C 57 66.21875 58.296875 65.71875 58.296875 64.515625 
C 58.296875 63.40625 57.796875 62.5 56 60.28125 
L 39.90625 40.578125 
L 29.5 60.578125 
C 28.59375 62.40625 28.09375 63.609375 28.09375 64.40625 
C 28.09375 65.625 29.40625 66.21875 32.40625 66.21875 
L 36.09375 66.21875 
L 36.09375 69 
L 31.5 69 
C 27.40625 69 24.40625 69 22.796875 69 
C 21.09375 69 18.09375 69 14 69 
L 9.5 69 
L 9.5 66.421875 
L 12.09375 66.21875 
C 17 65.71875 18.203125 65.015625 20.203125 61.34375 
L 34.796875 34.40625 
L 11 6.28125 
C 9.5 4.484375 7.203125 3.296875 4.796875 2.984375 
L 2 2.6875 
L 2 0 
C 6.90625 0 11 0 14.5 0 
C 18.09375 0 22.09375 0 26.40625 0 
L 26.40625 2.6875 
L 23.203125 2.984375 
C 19.40625 3.390625 17.703125 3.96875 17.703125 5.171875 
C 17.703125 5.96875 18.09375 6.859375 18.703125 7.65625 
L 36.90625 30.71875 
L 48.796875 8.171875 
C 49.703125 6.375 50.203125 5.078125 50.203125 4.1875 
C 50.203125 3.3125 49.5 2.984375 47 2.984375 
L 45.40625 2.984375 
z
" id="URW_Palladio_L_Italic-88"/>
       <path d="M 73 10.15625 
L 70.40625 8.46875 
C 67.5 6.578125 65.296875 5.484375 64.296875 5.484375 
C 63.59375 5.484375 63 6.375 63 7.46875 
C 63 8.46875 63.203125 9.375 63.703125 11.46875 
L 71.203125 41.109375 
C 71.59375 42.796875 71.90625 44.390625 71.90625 45.203125 
C 71.90625 46.90625 70.90625 48 69.296875 48 
C 66.40625 48 62.59375 46.203125 56.5 41.90625 
C 50.203125 37.40625 46.703125 33.921875 41.796875 27.03125 
L 44.796875 40.71875 
C 45.203125 42.703125 45.5 44.203125 45.5 44.90625 
C 45.5 46.796875 44.5 48 42.90625 48 
C 39.90625 48 35.296875 45.8125 29.796875 41.609375 
C 25.40625 38.203125 23.40625 36.109375 16.90625 27.328125 
L 20.203125 40.609375 
C 20.59375 42.203125 20.796875 43.703125 20.796875 44.890625 
C 20.796875 46.796875 19.90625 48 18.5 48 
C 16.40625 48 12.59375 45.90625 5.203125 40.59375 
L 2.40625 38.609375 
L 3.09375 36.609375 
L 6.296875 38.703125 
C 10 41.015625 10.296875 41.203125 11 41.203125 
C 12.09375 41.203125 12.796875 40.21875 12.796875 38.71875 
C 12.796875 33.625 8.703125 14.359375 4.59375 0.09375 
L 4.90625 -1 
L 11.703125 0.484375 
L 13.90625 10.671875 
C 16.296875 21.75 19 27.640625 24.5 33.625 
C 28.703125 38.21875 33.203125 41.203125 36 41.203125 
C 36.703125 41.203125 37.09375 40.40625 37.09375 39.125 
C 37.09375 35.625 34.90625 24.25 30.796875 6.78125 
L 29.203125 0.09375 
L 29.703125 -1 
L 36.59375 0.484375 
L 38.703125 11.171875 
C 40.296875 19.25 43.703125 26.734375 48.09375 31.640625 
C 53.59375 37.71875 58.59375 41.203125 61.796875 41.203125 
C 62.59375 41.203125 63.09375 40.3125 63.09375 38.71875 
C 63.09375 36.3125 62.796875 34.921875 60.59375 26.234375 
C 59 19.953125 57.296875 13.96875 56.296875 10.578125 
C 55.40625 7.765625 55 5.1875 55 3 
C 55 0.484375 56.09375 -1 58 -1 
C 60.59375 -1 64.203125 1.078125 74 8.375 
z
" id="URW_Palladio_L_Italic-109"/>
      </defs>
      <use transform="scale(1.038107)" xlink:href="#CMSY10-106"/>
      <use transform="translate(32.777141 0)scale(0.996264)" xlink:href="#URW_Palladio_L_Italic-88"/>
      <use transform="translate(109.389731 0)scale(1.038107)" xlink:href="#CMR10-91"/>
      <use transform="translate(140.67243 0)scale(0.996264)" xlink:href="#URW_Palladio_L_Italic-109"/>
      <use transform="translate(220.672463 0)scale(1.038107)" xlink:href="#CMR10-93"/>
      <use transform="translate(251.955162 0)scale(1.038107)" xlink:href="#CMSY10-106"/>
     </g>
    </g>
   </g>
   <g id="line2d_68">
    <defs>
     <path d="M 0 2.5 
C 0.663008 2.5 1.29895 2.236584 1.767767 1.767767 
C 2.236584 1.29895 2.5 0.663008 2.5 0 
C 2.5 -0.663008 2.236584 -1.29895 1.767767 -1.767767 
C 1.29895 -2.236584 0.663008 -2.5 0 -2.5 
C -0.663008 -2.5 -1.29895 -2.236584 -1.767767 -1.767767 
C -2.236584 -1.29895 -2.5 -0.663008 -2.5 0 
C -2.5 0.663008 -2.236584 1.29895 -1.767767 1.767767 
C -1.29895 2.236584 -0.663008 2.5 0 2.5 
z
" id="m95848992a7"/>
    </defs>
    <g clip-path="url(#pf5d06a0771)">
     <use style="fill:#6e3b87;" x="67.256075" xlink:href="#m95848992a7" y="329.737669"/>
     <use style="fill:#6e3b87;" x="75.397017" xlink:href="#m95848992a7" y="328.65002"/>
     <use style="fill:#6e3b87;" x="83.537958" xlink:href="#m95848992a7" y="325.942618"/>
     <use style="fill:#6e3b87;" x="91.678899" xlink:href="#m95848992a7" y="322.572246"/>
     <use style="fill:#6e3b87;" x="99.819841" xlink:href="#m95848992a7" y="319.133599"/>
     <use style="fill:#6e3b87;" x="107.960782" xlink:href="#m95848992a7" y="315.856438"/>
     <use style="fill:#6e3b87;" x="116.101723" xlink:href="#m95848992a7" y="312.793572"/>
     <use style="fill:#6e3b87;" x="124.242665" xlink:href="#m95848992a7" y="309.932251"/>
     <use style="fill:#6e3b87;" x="132.383606" xlink:href="#m95848992a7" y="307.240104"/>
     <use style="fill:#6e3b87;" x="140.524548" xlink:href="#m95848992a7" y="304.681667"/>
     <use style="fill:#6e3b87;" x="148.665489" xlink:href="#m95848992a7" y="302.223565"/>
     <use style="fill:#6e3b87;" x="156.80643" xlink:href="#m95848992a7" y="299.835577"/>
     <use style="fill:#6e3b87;" x="164.947372" xlink:href="#m95848992a7" y="297.490257"/>
     <use style="fill:#6e3b87;" x="173.088313" xlink:href="#m95848992a7" y="295.162071"/>
     <use style="fill:#6e3b87;" x="181.229255" xlink:href="#m95848992a7" y="292.826386"/>
     <use style="fill:#6e3b87;" x="189.370196" xlink:href="#m95848992a7" y="290.45836"/>
     <use style="fill:#6e3b87;" x="197.511137" xlink:href="#m95848992a7" y="288.031683"/>
     <use style="fill:#6e3b87;" x="205.652079" xlink:href="#m95848992a7" y="285.51704"/>
     <use style="fill:#6e3b87;" x="213.79302" xlink:href="#m95848992a7" y="282.880061"/>
     <use style="fill:#6e3b87;" x="221.933962" xlink:href="#m95848992a7" y="280.078384"/>
     <use style="fill:#6e3b87;" x="230.074903" xlink:href="#m95848992a7" y="277.05709"/>
     <use style="fill:#6e3b87;" x="238.215844" xlink:href="#m95848992a7" y="273.741136"/>
     <use style="fill:#6e3b87;" x="246.356786" xlink:href="#m95848992a7" y="270.021827"/>
     <use style="fill:#6e3b87;" x="254.497727" xlink:href="#m95848992a7" y="265.730348"/>
     <use style="fill:#6e3b87;" x="262.638669" xlink:href="#m95848992a7" y="260.579719"/>
     <use style="fill:#6e3b87;" x="270.77961" xlink:href="#m95848992a7" y="254.014875"/>
     <use style="fill:#6e3b87;" x="278.920551" xlink:href="#m95848992a7" y="244.710832"/>
     <use style="fill:#6e3b87;" x="287.061493" xlink:href="#m95848992a7" y="227.739414"/>
     <use style="fill:#6e3b87;" x="295.202434" xlink:href="#m95848992a7" y="205.897319"/>
     <use style="fill:#6e3b87;" x="303.343376" xlink:href="#m95848992a7" y="236.695451"/>
     <use style="fill:#6e3b87;" x="311.484317" xlink:href="#m95848992a7" y="247.649088"/>
     <use style="fill:#6e3b87;" x="319.625258" xlink:href="#m95848992a7" y="254.335063"/>
     <use style="fill:#6e3b87;" x="327.7662" xlink:href="#m95848992a7" y="259.095953"/>
     <use style="fill:#6e3b87;" x="335.907141" xlink:href="#m95848992a7" y="262.756725"/>
     <use style="fill:#6e3b87;" x="344.048083" xlink:href="#m95848992a7" y="265.705037"/>
     <use style="fill:#6e3b87;" x="352.189024" xlink:href="#m95848992a7" y="268.154167"/>
     <use style="fill:#6e3b87;" x="360.329965" xlink:href="#m95848992a7" y="270.233946"/>
     <use style="fill:#6e3b87;" x="368.470907" xlink:href="#m95848992a7" y="272.029211"/>
     <use style="fill:#6e3b87;" x="376.611848" xlink:href="#m95848992a7" y="273.598388"/>
     <use style="fill:#6e3b87;" x="384.75279" xlink:href="#m95848992a7" y="274.983371"/>
     <use style="fill:#6e3b87;" x="392.893731" xlink:href="#m95848992a7" y="276.215185"/>
     <use style="fill:#6e3b87;" x="401.034672" xlink:href="#m95848992a7" y="277.317412"/>
     <use style="fill:#6e3b87;" x="409.175614" xlink:href="#m95848992a7" y="278.308366"/>
     <use style="fill:#6e3b87;" x="417.316555" xlink:href="#m95848992a7" y="279.202527"/>
     <use style="fill:#6e3b87;" x="425.457496" xlink:href="#m95848992a7" y="280.011521"/>
     <use style="fill:#6e3b87;" x="433.598438" xlink:href="#m95848992a7" y="280.744802"/>
     <use style="fill:#6e3b87;" x="441.739379" xlink:href="#m95848992a7" y="281.410142"/>
     <use style="fill:#6e3b87;" x="449.880321" xlink:href="#m95848992a7" y="282.013992"/>
     <use style="fill:#6e3b87;" x="458.021262" xlink:href="#m95848992a7" y="282.561746"/>
     <use style="fill:#6e3b87;" x="466.162203" xlink:href="#m95848992a7" y="283.057944"/>
     <use style="fill:#6e3b87;" x="474.303145" xlink:href="#m95848992a7" y="283.506427"/>
     <use style="fill:#6e3b87;" x="482.444086" xlink:href="#m95848992a7" y="283.910455"/>
     <use style="fill:#6e3b87;" x="490.585028" xlink:href="#m95848992a7" y="284.272804"/>
     <use style="fill:#6e3b87;" x="498.725969" xlink:href="#m95848992a7" y="284.59584"/>
     <use style="fill:#6e3b87;" x="506.86691" xlink:href="#m95848992a7" y="284.881576"/>
     <use style="fill:#6e3b87;" x="515.007852" xlink:href="#m95848992a7" y="285.13172"/>
     <use style="fill:#6e3b87;" x="523.148793" xlink:href="#m95848992a7" y="285.347714"/>
     <use style="fill:#6e3b87;" x="531.289735" xlink:href="#m95848992a7" y="285.530765"/>
     <use style="fill:#6e3b87;" x="539.430676" xlink:href="#m95848992a7" y="285.681867"/>
     <use style="fill:#6e3b87;" x="547.571617" xlink:href="#m95848992a7" y="285.801823"/>
     <use style="fill:#6e3b87;" x="555.712559" xlink:href="#m95848992a7" y="285.891257"/>
     <use style="fill:#6e3b87;" x="563.8535" xlink:href="#m95848992a7" y="285.950628"/>
     <use style="fill:#6e3b87;" x="571.994442" xlink:href="#m95848992a7" y="285.980239"/>
    </g>
   </g>
  </g>
 </g>
 <defs>
  <clipPath id="pb4aef469c1">
   <rect height="136.840859" width="504.738366" x="67.256075" y="7.2"/>
  </clipPath>
  <clipPath id="pf5d06a0771">
   <rect height="136.840859" width="504.738366" x="67.256075" y="199.1808"/>
  </clipPath>
 </defs>
</svg>
