<?xml version="1.0" encoding="utf-8" standalone="no"?>
<!DOCTYPE svg PUBLIC "-//W3C//DTD SVG 1.1//EN"
  "http://www.w3.org/Graphics/SVG/1.1/DTD/svg11.dtd">
<svg height="296.39952pt" version="1.1" viewBox="0 0 584.39952 296.39952" width="584.39952pt" xmlns="http://www.w3.org/2000/svg" xmlns:xlink="http://www.w3.org/1999/xlink">
 <metadata>
  <rdf:RDF xmlns:cc="http://creativecommons.org/ns#" xmlns:dc="http://purl.org/dc/elements/1.1/" xmlns:rdf="http://www.w3.org/1999/02/22-rdf-syntax-ns#">
   <cc:Work>
    <dc:type rdf:resource="http://purl.org/dc/dcmitype/StillImage"/>
    <dc:date>2021-08-19T10:32:57.287522</dc:date>
    <dc:format>image/svg+xml</dc:format>
    <dc:creator>
     <cc:Agent>
      <dc:title>Matplotlib v3.4.2, https://matplotlib.org/</dc:title>
     </cc:Agent>
    </dc:creator>
   </cc:Work>
  </rdf:RDF>
 </metadata>
 <defs>
  <style type="text/css">*{stroke-linecap:butt;stroke-linejoin:round;}</style>
 </defs>
 <g id="figure_1">
  <g id="patch_1">
   <path d="M 0 296.39952 
L 584.39952 296.39952 
L 584.39952 0 
L 0 0 
z
" style="fill:none;"/>
  </g>
  <g id="axes_1">
   <g id="patch_2">
    <path d="M 7.2 289.19952 
L 577.19952 289.19952 
L 577.19952 7.2 
L 7.2 7.2 
z
" style="fill:none;"/>
   </g>
   <g id="matplotlib.axis_1">
    <g id="xtick_1">
     <g id="line2d_1">
      <path clip-path="url(#p7bbdb1cc28)" d="M 7.2 289.19952 
L 7.2 7.2 
" style="fill:none;stroke:#000000;stroke-linejoin:miter;stroke-opacity:0.2;stroke-width:0.5;"/>
     </g>
     <g id="line2d_2">
      <defs>
       <path d="M 0 0 
L 0 3.5 
" id="m2e3113122a" style="stroke:#000000;stroke-opacity:0.2;stroke-width:0.8;"/>
      </defs>
      <g>
       <use style="fill-opacity:0.2;stroke:#000000;stroke-opacity:0.2;stroke-width:0.8;" x="7.2" xlink:href="#m2e3113122a" y="289.19952"/>
      </g>
     </g>
    </g>
    <g id="xtick_2">
     <g id="line2d_3">
      <path clip-path="url(#p7bbdb1cc28)" d="M 99.135406 289.19952 
L 99.135406 7.2 
" style="fill:none;stroke:#000000;stroke-linejoin:miter;stroke-opacity:0.2;stroke-width:0.5;"/>
     </g>
     <g id="line2d_4">
      <g>
       <use style="fill-opacity:0.2;stroke:#000000;stroke-opacity:0.2;stroke-width:0.8;" x="99.135406" xlink:href="#m2e3113122a" y="289.19952"/>
      </g>
     </g>
    </g>
    <g id="xtick_3">
     <g id="line2d_5">
      <path clip-path="url(#p7bbdb1cc28)" d="M 191.070813 289.19952 
L 191.070813 7.2 
" style="fill:none;stroke:#000000;stroke-linejoin:miter;stroke-opacity:0.2;stroke-width:0.5;"/>
     </g>
     <g id="line2d_6">
      <g>
       <use style="fill-opacity:0.2;stroke:#000000;stroke-opacity:0.2;stroke-width:0.8;" x="191.070813" xlink:href="#m2e3113122a" y="289.19952"/>
      </g>
     </g>
    </g>
    <g id="xtick_4">
     <g id="line2d_7">
      <path clip-path="url(#p7bbdb1cc28)" d="M 283.006219 289.19952 
L 283.006219 7.2 
" style="fill:none;stroke:#000000;stroke-linejoin:miter;stroke-opacity:0.2;stroke-width:0.5;"/>
     </g>
     <g id="line2d_8">
      <g>
       <use style="fill-opacity:0.2;stroke:#000000;stroke-opacity:0.2;stroke-width:0.8;" x="283.006219" xlink:href="#m2e3113122a" y="289.19952"/>
      </g>
     </g>
    </g>
    <g id="xtick_5">
     <g id="line2d_9">
      <path clip-path="url(#p7bbdb1cc28)" d="M 374.941626 289.19952 
L 374.941626 7.2 
" style="fill:none;stroke:#000000;stroke-linejoin:miter;stroke-opacity:0.2;stroke-width:0.5;"/>
     </g>
     <g id="line2d_10">
      <g>
       <use style="fill-opacity:0.2;stroke:#000000;stroke-opacity:0.2;stroke-width:0.8;" x="374.941626" xlink:href="#m2e3113122a" y="289.19952"/>
      </g>
     </g>
    </g>
    <g id="xtick_6">
     <g id="line2d_11">
      <path clip-path="url(#p7bbdb1cc28)" d="M 466.877032 289.19952 
L 466.877032 7.2 
" style="fill:none;stroke:#000000;stroke-linejoin:miter;stroke-opacity:0.2;stroke-width:0.5;"/>
     </g>
     <g id="line2d_12">
      <g>
       <use style="fill-opacity:0.2;stroke:#000000;stroke-opacity:0.2;stroke-width:0.8;" x="466.877032" xlink:href="#m2e3113122a" y="289.19952"/>
      </g>
     </g>
    </g>
    <g id="xtick_7">
     <g id="line2d_13">
      <path clip-path="url(#p7bbdb1cc28)" d="M 558.812439 289.19952 
L 558.812439 7.2 
" style="fill:none;stroke:#000000;stroke-linejoin:miter;stroke-opacity:0.2;stroke-width:0.5;"/>
     </g>
     <g id="line2d_14">
      <g>
       <use style="fill-opacity:0.2;stroke:#000000;stroke-opacity:0.2;stroke-width:0.8;" x="558.812439" xlink:href="#m2e3113122a" y="289.19952"/>
      </g>
     </g>
    </g>
   </g>
   <g id="matplotlib.axis_2">
    <g id="ytick_1">
     <g id="line2d_15">
      <path clip-path="url(#p7bbdb1cc28)" d="M 7.2 276.38136 
L 577.19952 276.38136 
" style="fill:none;stroke:#000000;stroke-linejoin:miter;stroke-opacity:0.2;stroke-width:0.5;"/>
     </g>
     <g id="line2d_16">
      <defs>
       <path d="M 0 0 
L -3.5 0 
" id="m2815592392" style="stroke:#000000;stroke-opacity:0.2;stroke-width:0.8;"/>
      </defs>
      <g>
       <use style="fill-opacity:0.2;stroke:#000000;stroke-opacity:0.2;stroke-width:0.8;" x="7.2" xlink:href="#m2815592392" y="276.38136"/>
      </g>
     </g>
    </g>
    <g id="ytick_2">
     <g id="line2d_17">
      <path clip-path="url(#p7bbdb1cc28)" d="M 7.2 225.10872 
L 577.19952 225.10872 
" style="fill:none;stroke:#000000;stroke-linejoin:miter;stroke-opacity:0.2;stroke-width:0.5;"/>
     </g>
     <g id="line2d_18">
      <g>
       <use style="fill-opacity:0.2;stroke:#000000;stroke-opacity:0.2;stroke-width:0.8;" x="7.2" xlink:href="#m2815592392" y="225.10872"/>
      </g>
     </g>
    </g>
    <g id="ytick_3">
     <g id="line2d_19">
      <path clip-path="url(#p7bbdb1cc28)" d="M 7.2 173.83608 
L 577.19952 173.83608 
" style="fill:none;stroke:#000000;stroke-linejoin:miter;stroke-opacity:0.2;stroke-width:0.5;"/>
     </g>
     <g id="line2d_20">
      <g>
       <use style="fill-opacity:0.2;stroke:#000000;stroke-opacity:0.2;stroke-width:0.8;" x="7.2" xlink:href="#m2815592392" y="173.83608"/>
      </g>
     </g>
    </g>
    <g id="ytick_4">
     <g id="line2d_21">
      <path clip-path="url(#p7bbdb1cc28)" d="M 7.2 122.56344 
L 577.19952 122.56344 
" style="fill:none;stroke:#000000;stroke-linejoin:miter;stroke-opacity:0.2;stroke-width:0.5;"/>
     </g>
     <g id="line2d_22">
      <g>
       <use style="fill-opacity:0.2;stroke:#000000;stroke-opacity:0.2;stroke-width:0.8;" x="7.2" xlink:href="#m2815592392" y="122.56344"/>
      </g>
     </g>
    </g>
    <g id="ytick_5">
     <g id="line2d_23">
      <path clip-path="url(#p7bbdb1cc28)" d="M 7.2 71.2908 
L 577.19952 71.2908 
" style="fill:none;stroke:#000000;stroke-linejoin:miter;stroke-opacity:0.2;stroke-width:0.5;"/>
     </g>
     <g id="line2d_24">
      <g>
       <use style="fill-opacity:0.2;stroke:#000000;stroke-opacity:0.2;stroke-width:0.8;" x="7.2" xlink:href="#m2815592392" y="71.2908"/>
      </g>
     </g>
    </g>
    <g id="ytick_6">
     <g id="line2d_25">
      <path clip-path="url(#p7bbdb1cc28)" d="M 7.2 20.01816 
L 577.19952 20.01816 
" style="fill:none;stroke:#000000;stroke-linejoin:miter;stroke-opacity:0.2;stroke-width:0.5;"/>
     </g>
     <g id="line2d_26">
      <g>
       <use style="fill-opacity:0.2;stroke:#000000;stroke-opacity:0.2;stroke-width:0.8;" x="7.2" xlink:href="#m2815592392" y="20.01816"/>
      </g>
     </g>
    </g>
   </g>
   <g id="line2d_27">
    <path clip-path="url(#p7bbdb1cc28)" d="M 7.2 276.38136 
L 25.587081 276.38136 
L 25.587081 273.918386 
L 43.974163 273.918386 
L 43.974163 266.624117 
L 62.361244 266.624117 
L 62.361244 254.778865 
L 80.748325 254.778865 
L 80.748325 238.837839 
L 99.135406 238.837839 
L 99.135406 219.413641 
L 117.522488 219.413641 
L 117.522488 197.252735 
L 135.909569 197.252735 
L 135.909569 173.20675 
L 154.29665 173.20675 
L 154.29665 148.19976 
L 172.683732 148.19976 
L 172.683732 123.19277 
L 191.070813 123.19277 
L 191.070813 99.146785 
L 209.457894 99.146785 
L 209.457894 76.985879 
L 227.844975 76.985879 
L 227.844975 57.561681 
L 246.232057 57.561681 
L 246.232057 41.620655 
L 264.619138 41.620655 
L 264.619138 29.775403 
L 283.006219 29.775403 
L 283.006219 22.481134 
L 301.393301 22.481134 
L 301.393301 20.01816 
L 319.780382 20.01816 
L 319.780382 22.481134 
L 338.167463 22.481134 
L 338.167463 29.775403 
L 356.554545 29.775403 
L 356.554545 41.620655 
L 374.941626 41.620655 
L 374.941626 57.561681 
L 393.328707 57.561681 
L 393.328707 76.985879 
L 411.715788 76.985879 
L 411.715788 99.146785 
L 430.10287 99.146785 
L 430.10287 123.19277 
L 448.489951 123.19277 
L 448.489951 148.19976 
L 466.877032 148.19976 
L 466.877032 173.20675 
L 485.264114 173.20675 
L 485.264114 197.252735 
L 503.651195 197.252735 
L 503.651195 219.413641 
L 522.038276 219.413641 
L 522.038276 238.837839 
L 540.425357 238.837839 
L 540.425357 254.778865 
L 558.812439 254.778865 
L 558.812439 266.624117 
L 577.19952 266.624117 
L 577.19952 273.918386 
" style="fill:none;stroke:#dc2830;stroke-linejoin:miter;stroke-width:3;"/>
   </g>
  </g>
 </g>
 <defs>
  <clipPath id="p7bbdb1cc28">
   <rect height="281.99952" width="569.99952" x="7.2" y="7.2"/>
  </clipPath>
 </defs>
</svg>
