<?xml version="1.0" encoding="utf-8" standalone="no"?>
<!DOCTYPE svg PUBLIC "-//W3C//DTD SVG 1.1//EN"
  "http://www.w3.org/Graphics/SVG/1.1/DTD/svg11.dtd">
<svg height="392.39952pt" version="1.1" viewBox="0 0 584.39952 392.39952" width="584.39952pt" xmlns="http://www.w3.org/2000/svg" xmlns:xlink="http://www.w3.org/1999/xlink">
 <metadata>
  <rdf:RDF xmlns:cc="http://creativecommons.org/ns#" xmlns:dc="http://purl.org/dc/elements/1.1/" xmlns:rdf="http://www.w3.org/1999/02/22-rdf-syntax-ns#">
   <cc:Work>
    <dc:type rdf:resource="http://purl.org/dc/dcmitype/StillImage"/>
    <dc:date>2020-08-12T07:03:00.723681</dc:date>
    <dc:format>image/svg+xml</dc:format>
    <dc:creator>
     <cc:Agent>
      <dc:title>Matplotlib v3.3.0rc1.post382+g019a75231, https://matplotlib.org/</dc:title>
     </cc:Agent>
    </dc:creator>
   </cc:Work>
  </rdf:RDF>
 </metadata>
 <defs>
  <style type="text/css">*{stroke-linecap:butt;stroke-linejoin:round;}</style>
 </defs>
 <g id="figure_1">
  <g id="patch_1">
   <path d="M 0 392.39952 
L 584.39952 392.39952 
L 584.39952 0 
L 0 0 
z
" style="fill:none;"/>
  </g>
  <g id="axes_1">
   <g id="patch_2">
    <path d="M 23.12516 168.610589 
L 568.48221 168.610589 
L 568.48221 7.2 
L 23.12516 7.2 
z
" style="fill:none;"/>
   </g>
   <g id="matplotlib.axis_1">
    <g id="xtick_1">
     <g id="line2d_1">
      <path clip-path="url(#p0683746a1a)" d="M 23.12516 168.610589 
L 23.12516 7.2 
" style="fill:none;stroke:#000000;stroke-linecap:square;stroke-opacity:0.2;stroke-width:0.5;"/>
     </g>
     <g id="line2d_2">
      <defs>
       <path d="M 0 0 
L 0 3.5 
" id="m6ea33f2cc0" style="stroke:#000000;stroke-opacity:0.2;stroke-width:0.8;"/>
      </defs>
      <g>
       <use style="fill-opacity:0.2;stroke:#000000;stroke-opacity:0.2;stroke-width:0.8;" x="23.12516" xlink:href="#m6ea33f2cc0" y="168.610589"/>
      </g>
     </g>
    </g>
    <g id="xtick_2">
     <g id="line2d_3">
      <path clip-path="url(#p0683746a1a)" d="M 132.19657 168.610589 
L 132.19657 7.2 
" style="fill:none;stroke:#000000;stroke-linecap:square;stroke-opacity:0.2;stroke-width:0.5;"/>
     </g>
     <g id="line2d_4">
      <g>
       <use style="fill-opacity:0.2;stroke:#000000;stroke-opacity:0.2;stroke-width:0.8;" x="132.19657" xlink:href="#m6ea33f2cc0" y="168.610589"/>
      </g>
     </g>
    </g>
    <g id="xtick_3">
     <g id="line2d_5">
      <path clip-path="url(#p0683746a1a)" d="M 241.26798 168.610589 
L 241.26798 7.2 
" style="fill:none;stroke:#000000;stroke-linecap:square;stroke-opacity:0.2;stroke-width:0.5;"/>
     </g>
     <g id="line2d_6">
      <g>
       <use style="fill-opacity:0.2;stroke:#000000;stroke-opacity:0.2;stroke-width:0.8;" x="241.26798" xlink:href="#m6ea33f2cc0" y="168.610589"/>
      </g>
     </g>
    </g>
    <g id="xtick_4">
     <g id="line2d_7">
      <path clip-path="url(#p0683746a1a)" d="M 350.33939 168.610589 
L 350.33939 7.2 
" style="fill:none;stroke:#000000;stroke-linecap:square;stroke-opacity:0.2;stroke-width:0.5;"/>
     </g>
     <g id="line2d_8">
      <g>
       <use style="fill-opacity:0.2;stroke:#000000;stroke-opacity:0.2;stroke-width:0.8;" x="350.33939" xlink:href="#m6ea33f2cc0" y="168.610589"/>
      </g>
     </g>
    </g>
    <g id="xtick_5">
     <g id="line2d_9">
      <path clip-path="url(#p0683746a1a)" d="M 459.4108 168.610589 
L 459.4108 7.2 
" style="fill:none;stroke:#000000;stroke-linecap:square;stroke-opacity:0.2;stroke-width:0.5;"/>
     </g>
     <g id="line2d_10">
      <g>
       <use style="fill-opacity:0.2;stroke:#000000;stroke-opacity:0.2;stroke-width:0.8;" x="459.4108" xlink:href="#m6ea33f2cc0" y="168.610589"/>
      </g>
     </g>
    </g>
    <g id="xtick_6">
     <g id="line2d_11">
      <path clip-path="url(#p0683746a1a)" d="M 568.48221 168.610589 
L 568.48221 7.2 
" style="fill:none;stroke:#000000;stroke-linecap:square;stroke-opacity:0.2;stroke-width:0.5;"/>
     </g>
     <g id="line2d_12">
      <g>
       <use style="fill-opacity:0.2;stroke:#000000;stroke-opacity:0.2;stroke-width:0.8;" x="568.48221" xlink:href="#m6ea33f2cc0" y="168.610589"/>
      </g>
     </g>
    </g>
   </g>
   <g id="matplotlib.axis_2">
    <g id="text_1">
     <!-- Input -->
     <g transform="translate(15.753876 102.544163)rotate(-90)scale(0.12 -0.12)">
      <defs>
       <path d="M 21.59375 57.234375 
C 21.59375 65.1875 22.09375 66 26.703125 66 
L 31.5 66 
L 31.5 69.109375 
C 24.203125 69.109375 22 69.109375 16.796875 69.109375 
C 11.796875 69.109375 9.40625 69.109375 2.203125 69.109375 
L 2.203125 66 
L 7 66 
C 11.59375 66 12.09375 65.1875 12.09375 57.234375 
L 12.09375 11.96875 
C 12.09375 4 11.59375 3.203125 7 3.203125 
L 2.203125 3.203125 
L 2.203125 0 
C 8.09375 0 11.59375 0 16.796875 0 
C 22 0 25.59375 0 31.5 0 
L 31.5 3.203125 
L 26.703125 3.203125 
C 22.09375 3.203125 21.59375 4 21.59375 11.96875 
z
" id="URW_Palladio_L_Roman-73"/>
       <path d="M 41 -0.109375 
C 47.09375 -0.109375 47.203125 -0.109375 48.90625 -0.109375 
C 50.296875 -0.109375 50.296875 -0.109375 57.203125 -0.109375 
L 57.203125 2.796875 
L 53.09375 3.203125 
C 49.703125 3.203125 49.40625 3.8125 49.40625 10.21875 
L 49.40625 29.5625 
C 49.40625 41.28125 43.90625 47 32.703125 47 
C 29 47 26.90625 46.296875 24.796875 44.484375 
L 17.203125 37.875 
L 17.203125 46.59375 
L 16.296875 47 
C 11.203125 44.890625 6 43.484375 0.703125 42.890625 
L 0.703125 40.078125 
L 4.40625 40.078125 
C 8.40625 40.078125 8.796875 39.375 8.796875 32.71875 
L 8.796875 10.046875 
C 8.796875 3.703125 8.5 3 5.09375 3 
L 0.59375 3 
L 0.59375 -0.109375 
C 7.40625 -0.109375 10.09375 -0.109375 13 -0.109375 
C 15.90625 -0.109375 18.59375 -0.109375 25.40625 -0.109375 
L 25.40625 3 
L 20.90625 3 
C 17.5 3 17.203125 3.703125 17.203125 10.046875 
L 17.203125 31.421875 
C 17.203125 35.9375 23.796875 40.875 29.90625 40.875 
C 36.59375 40.875 41 35.890625 41 28.21875 
z
" id="URW_Palladio_L_Roman-110"/>
       <path d="M 1 40.078125 
L 4.703125 40.078125 
C 8.703125 40.078125 9.09375 39.375 9.09375 32.734375 
L 9.09375 -17.84375 
C 9.09375 -24.1875 8.796875 -24.890625 5.40625 -24.890625 
L 0.796875 -24.890625 
L 0.796875 -28 
C 10.796875 -28 10.796875 -28 13.296875 -28 
C 15.796875 -28 15.796875 -28 25.796875 -28 
L 25.796875 -24.890625 
L 21.203125 -24.890625 
C 17.796875 -24.890625 17.5 -24.171875 17.5 -17.78125 
L 17.5 1.390625 
C 20.5 -0.40625 23.703125 -1.109375 28.203125 -1.109375 
C 31.09375 -1.109375 33.703125 -0.5 35.296875 0.5 
L 46.703125 7.890625 
C 50.703125 10.5 55.40625 20.78125 55.40625 27.1875 
C 55.40625 38.296875 46.203125 47 34.59375 47 
C 30.90625 47 27.296875 45.984375 25.703125 44.484375 
L 17.5 36.984375 
L 17.5 46.59375 
L 16.59375 47 
C 11.5 44.890625 6.296875 43.484375 1 42.890625 
z
M 17.5 30.6875 
C 17.5 32.078125 18 33.1875 19.296875 34.890625 
C 22.203125 38.578125 26.296875 40.484375 31.296875 40.484375 
C 40.703125 40.484375 46.703125 33.890625 46.703125 23.5 
C 46.703125 12.296875 40 4 31 4 
C 25.5 4 21.40625 5.8125 17.5 9.890625 
z
" id="URW_Palladio_L_Roman-112"/>
       <path d="M 50.296875 47.015625 
L 49.40625 47.421875 
C 44.296875 45.3125 39.09375 43.90625 33.796875 43.3125 
L 33.796875 40.5 
L 37.5 40.5 
C 41.5 40.5 41.90625 39.796875 41.90625 33.140625 
L 41.90625 16.71875 
C 41.90625 14.5 40.5 11.671875 38.203125 9.359375 
C 35.40625 6.53125 32.203125 5.109375 28.296875 5.109375 
C 24.796875 5.109375 22 6.21875 20.40625 8.140625 
C 19 9.75 18.296875 12.875 18.296875 17.296875 
L 18.296875 47.015625 
L 17.40625 47.421875 
C 12.296875 45.3125 7.09375 43.90625 1.796875 43.3125 
L 1.796875 40.5 
L 5.5 40.5 
C 9.5 40.5 9.90625 39.796875 9.90625 33.15625 
L 9.90625 16.234375 
C 9.90625 9.171875 10.5 6.046875 12.296875 3.546875 
C 14.5 0.515625 18.296875 -1 24 -1 
C 28.5 -1 32.5 0.40625 35.203125 2.90625 
L 41.90625 9.140625 
C 41.90625 6.265625 41.796875 4.65625 41.5 0 
C 48.203125 0 48.296875 0 49.796875 0 
C 51.203125 0 51.203125 0 58.09375 0 
L 58.09375 2.90625 
L 54 3.3125 
C 50.59375 3.3125 50.296875 3.921875 50.296875 10.375 
z
" id="URW_Palladio_L_Roman-117"/>
       <path d="M 9.796875 38.6875 
L 9.796875 9.671875 
C 9.796875 2.21875 13.09375 -1 20.796875 -1 
C 23.09375 -1 25.5 -0.5 26.09375 0.203125 
L 30.90625 5.515625 
L 29.59375 7.234375 
C 27.09375 5.8125 25.59375 5.3125 23.703125 5.3125 
C 19.796875 5.3125 18.203125 7.34375 18.203125 12.3125 
L 18.203125 38.890625 
L 31 38.890625 
L 31.90625 44 
L 18.203125 44 
L 18.203125 47.75 
C 18.203125 51.890625 18.5 55.421875 19.296875 61.734375 
L 18.09375 62.828125 
C 15.703125 61.328125 12.703125 60.03125 9.59375 59.03125 
C 9.90625 56.015625 10 54.109375 10 51.109375 
L 10 44.09375 
L 2.203125 40.59375 
L 2.203125 38.6875 
z
" id="URW_Palladio_L_Roman-116"/>
      </defs>
      <use transform="scale(0.996264)" xlink:href="#URW_Palladio_L_Roman-73"/>
      <use transform="translate(33.574079 0)scale(0.996264)" xlink:href="#URW_Palladio_L_Roman-110"/>
      <use transform="translate(91.55614 0)scale(0.996264)" xlink:href="#URW_Palladio_L_Roman-112"/>
      <use transform="translate(151.430533 0)scale(0.996264)" xlink:href="#URW_Palladio_L_Roman-117"/>
      <use transform="translate(211.504268 0)scale(0.996264)" xlink:href="#URW_Palladio_L_Roman-116"/>
     </g>
    </g>
   </g>
   <g id="line2d_13">
    <path clip-path="url(#p0683746a1a)" d="M 23.12516 164.76748 
L 34.032301 164.76748 
L 34.032301 157.081261 
L 44.939442 157.081261 
L 44.939442 149.395043 
L 55.846583 149.395043 
L 55.846583 141.708824 
L 66.753724 141.708824 
L 66.753724 134.022606 
L 77.660865 134.022606 
L 77.660865 126.336387 
L 88.568006 126.336387 
L 88.568006 118.650169 
L 99.475147 118.650169 
L 99.475147 110.96395 
L 110.382288 110.96395 
L 110.382288 103.277732 
L 121.289429 103.277732 
L 121.289429 95.591513 
L 132.19657 95.591513 
L 132.19657 87.905295 
L 143.103711 87.905295 
L 143.103711 80.219076 
L 154.010852 80.219076 
L 154.010852 72.532858 
L 164.917993 72.532858 
L 164.917993 64.846639 
L 175.825134 64.846639 
L 175.825134 57.16042 
L 186.732275 57.16042 
L 186.732275 49.474202 
L 197.639416 49.474202 
L 197.639416 41.787983 
L 208.546557 41.787983 
L 208.546557 34.101765 
L 219.453698 34.101765 
L 219.453698 26.415546 
L 230.360839 26.415546 
L 230.360839 18.729328 
L 241.26798 18.729328 
L 241.26798 164.76748 
L 252.175121 164.76748 
L 252.175121 157.081261 
L 263.082262 157.081261 
L 263.082262 149.395043 
L 273.989403 149.395043 
L 273.989403 141.708824 
L 284.896544 141.708824 
L 284.896544 134.022606 
L 295.803685 134.022606 
L 295.803685 126.336387 
L 306.710826 126.336387 
L 306.710826 118.650169 
L 317.617967 118.650169 
L 317.617967 110.96395 
L 328.525108 110.96395 
L 328.525108 103.277732 
L 339.432249 103.277732 
L 339.432249 95.591513 
L 350.33939 95.591513 
L 350.33939 87.905295 
L 361.246531 87.905295 
L 361.246531 80.219076 
L 372.153672 80.219076 
L 372.153672 72.532858 
L 383.060813 72.532858 
L 383.060813 64.846639 
L 393.967954 64.846639 
L 393.967954 57.16042 
L 404.875095 57.16042 
L 404.875095 49.474202 
L 415.782236 49.474202 
L 415.782236 41.787983 
L 426.689377 41.787983 
L 426.689377 34.101765 
L 437.596518 34.101765 
L 437.596518 26.415546 
L 448.503659 26.415546 
L 448.503659 18.729328 
L 459.4108 18.729328 
L 459.4108 164.76748 
L 470.317941 164.76748 
L 470.317941 157.081261 
L 481.225082 157.081261 
L 481.225082 149.395043 
L 492.132223 149.395043 
L 492.132223 141.708824 
L 503.039364 141.708824 
L 503.039364 134.022606 
L 513.946505 134.022606 
L 513.946505 126.336387 
L 524.853646 126.336387 
L 524.853646 118.650169 
L 535.760787 118.650169 
L 535.760787 110.96395 
L 546.667928 110.96395 
L 546.667928 103.277732 
L 557.575069 103.277732 
L 557.575069 95.591513 
" style="fill:none;stroke:#0271ae;stroke-linecap:square;stroke-width:3;"/>
    <defs>
     <path d="M 0 2.5 
C 0.663008 2.5 1.29895 2.236584 1.767767 1.767767 
C 2.236584 1.29895 2.5 0.663008 2.5 0 
C 2.5 -0.663008 2.236584 -1.29895 1.767767 -1.767767 
C 1.29895 -2.236584 0.663008 -2.5 0 -2.5 
C -0.663008 -2.5 -1.29895 -2.236584 -1.767767 -1.767767 
C -2.236584 -1.29895 -2.5 -0.663008 -2.5 0 
C -2.5 0.663008 -2.236584 1.29895 -1.767767 1.767767 
C -1.29895 2.236584 -0.663008 2.5 0 2.5 
z
" id="maeca56637e"/>
    </defs>
    <g clip-path="url(#p0683746a1a)">
     <use style="fill:#0271ae;" x="23.12516" xlink:href="#maeca56637e" y="164.76748"/>
     <use style="fill:#0271ae;" x="34.032301" xlink:href="#maeca56637e" y="157.081261"/>
     <use style="fill:#0271ae;" x="44.939442" xlink:href="#maeca56637e" y="149.395043"/>
     <use style="fill:#0271ae;" x="55.846583" xlink:href="#maeca56637e" y="141.708824"/>
     <use style="fill:#0271ae;" x="66.753724" xlink:href="#maeca56637e" y="134.022606"/>
     <use style="fill:#0271ae;" x="77.660865" xlink:href="#maeca56637e" y="126.336387"/>
     <use style="fill:#0271ae;" x="88.568006" xlink:href="#maeca56637e" y="118.650169"/>
     <use style="fill:#0271ae;" x="99.475147" xlink:href="#maeca56637e" y="110.96395"/>
     <use style="fill:#0271ae;" x="110.382288" xlink:href="#maeca56637e" y="103.277732"/>
     <use style="fill:#0271ae;" x="121.289429" xlink:href="#maeca56637e" y="95.591513"/>
     <use style="fill:#0271ae;" x="132.19657" xlink:href="#maeca56637e" y="87.905295"/>
     <use style="fill:#0271ae;" x="143.103711" xlink:href="#maeca56637e" y="80.219076"/>
     <use style="fill:#0271ae;" x="154.010852" xlink:href="#maeca56637e" y="72.532858"/>
     <use style="fill:#0271ae;" x="164.917993" xlink:href="#maeca56637e" y="64.846639"/>
     <use style="fill:#0271ae;" x="175.825134" xlink:href="#maeca56637e" y="57.16042"/>
     <use style="fill:#0271ae;" x="186.732275" xlink:href="#maeca56637e" y="49.474202"/>
     <use style="fill:#0271ae;" x="197.639416" xlink:href="#maeca56637e" y="41.787983"/>
     <use style="fill:#0271ae;" x="208.546557" xlink:href="#maeca56637e" y="34.101765"/>
     <use style="fill:#0271ae;" x="219.453698" xlink:href="#maeca56637e" y="26.415546"/>
     <use style="fill:#0271ae;" x="230.360839" xlink:href="#maeca56637e" y="18.729328"/>
     <use style="fill:#0271ae;" x="241.26798" xlink:href="#maeca56637e" y="164.76748"/>
     <use style="fill:#0271ae;" x="252.175121" xlink:href="#maeca56637e" y="157.081261"/>
     <use style="fill:#0271ae;" x="263.082262" xlink:href="#maeca56637e" y="149.395043"/>
     <use style="fill:#0271ae;" x="273.989403" xlink:href="#maeca56637e" y="141.708824"/>
     <use style="fill:#0271ae;" x="284.896544" xlink:href="#maeca56637e" y="134.022606"/>
     <use style="fill:#0271ae;" x="295.803685" xlink:href="#maeca56637e" y="126.336387"/>
     <use style="fill:#0271ae;" x="306.710826" xlink:href="#maeca56637e" y="118.650169"/>
     <use style="fill:#0271ae;" x="317.617967" xlink:href="#maeca56637e" y="110.96395"/>
     <use style="fill:#0271ae;" x="328.525108" xlink:href="#maeca56637e" y="103.277732"/>
     <use style="fill:#0271ae;" x="339.432249" xlink:href="#maeca56637e" y="95.591513"/>
     <use style="fill:#0271ae;" x="350.33939" xlink:href="#maeca56637e" y="87.905295"/>
     <use style="fill:#0271ae;" x="361.246531" xlink:href="#maeca56637e" y="80.219076"/>
     <use style="fill:#0271ae;" x="372.153672" xlink:href="#maeca56637e" y="72.532858"/>
     <use style="fill:#0271ae;" x="383.060813" xlink:href="#maeca56637e" y="64.846639"/>
     <use style="fill:#0271ae;" x="393.967954" xlink:href="#maeca56637e" y="57.16042"/>
     <use style="fill:#0271ae;" x="404.875095" xlink:href="#maeca56637e" y="49.474202"/>
     <use style="fill:#0271ae;" x="415.782236" xlink:href="#maeca56637e" y="41.787983"/>
     <use style="fill:#0271ae;" x="426.689377" xlink:href="#maeca56637e" y="34.101765"/>
     <use style="fill:#0271ae;" x="437.596518" xlink:href="#maeca56637e" y="26.415546"/>
     <use style="fill:#0271ae;" x="448.503659" xlink:href="#maeca56637e" y="18.729328"/>
     <use style="fill:#0271ae;" x="459.4108" xlink:href="#maeca56637e" y="164.76748"/>
     <use style="fill:#0271ae;" x="470.317941" xlink:href="#maeca56637e" y="157.081261"/>
     <use style="fill:#0271ae;" x="481.225082" xlink:href="#maeca56637e" y="149.395043"/>
     <use style="fill:#0271ae;" x="492.132223" xlink:href="#maeca56637e" y="141.708824"/>
     <use style="fill:#0271ae;" x="503.039364" xlink:href="#maeca56637e" y="134.022606"/>
     <use style="fill:#0271ae;" x="513.946505" xlink:href="#maeca56637e" y="126.336387"/>
     <use style="fill:#0271ae;" x="524.853646" xlink:href="#maeca56637e" y="118.650169"/>
     <use style="fill:#0271ae;" x="535.760787" xlink:href="#maeca56637e" y="110.96395"/>
     <use style="fill:#0271ae;" x="546.667928" xlink:href="#maeca56637e" y="103.277732"/>
     <use style="fill:#0271ae;" x="557.575069" xlink:href="#maeca56637e" y="95.591513"/>
    </g>
   </g>
   <g id="line2d_14">
    <path clip-path="url(#p0683746a1a)" d="M 23.12516 87.905295 
L 34.032301 87.905295 
L 34.032301 87.905295 
L 44.939442 87.905295 
L 44.939442 87.905295 
L 55.846583 87.905295 
L 55.846583 87.905295 
L 66.753724 87.905295 
L 66.753724 87.905295 
L 77.660865 87.905295 
L 77.660865 164.76748 
L 88.568006 164.76748 
L 88.568006 157.081261 
L 99.475147 157.081261 
L 99.475147 149.395043 
L 110.382288 149.395043 
L 110.382288 141.708824 
L 121.289429 141.708824 
L 121.289429 134.022606 
L 132.19657 134.022606 
L 132.19657 126.336387 
L 143.103711 126.336387 
L 143.103711 118.650169 
L 154.010852 118.650169 
L 154.010852 110.96395 
L 164.917993 110.96395 
L 164.917993 103.277732 
L 175.825134 103.277732 
L 175.825134 95.591513 
L 186.732275 95.591513 
L 186.732275 87.905295 
L 197.639416 87.905295 
L 197.639416 80.219076 
L 208.546557 80.219076 
L 208.546557 72.532858 
L 219.453698 72.532858 
L 219.453698 64.846639 
L 230.360839 64.846639 
L 230.360839 57.16042 
L 241.26798 57.16042 
L 241.26798 49.474202 
L 252.175121 49.474202 
L 252.175121 41.787983 
L 263.082262 41.787983 
L 263.082262 34.101765 
L 273.989403 34.101765 
L 273.989403 26.415546 
L 284.896544 26.415546 
L 284.896544 18.729328 
L 295.803685 18.729328 
L 295.803685 164.76748 
L 306.710826 164.76748 
L 306.710826 157.081261 
L 317.617967 157.081261 
L 317.617967 149.395043 
L 328.525108 149.395043 
L 328.525108 141.708824 
L 339.432249 141.708824 
L 339.432249 134.022606 
L 350.33939 134.022606 
L 350.33939 126.336387 
L 361.246531 126.336387 
L 361.246531 118.650169 
L 372.153672 118.650169 
L 372.153672 110.96395 
L 383.060813 110.96395 
L 383.060813 103.277732 
L 393.967954 103.277732 
L 393.967954 95.591513 
L 404.875095 95.591513 
L 404.875095 87.905295 
L 415.782236 87.905295 
L 415.782236 80.219076 
L 426.689377 80.219076 
L 426.689377 72.532858 
L 437.596518 72.532858 
L 437.596518 64.846639 
L 448.503659 64.846639 
L 448.503659 57.16042 
L 459.4108 57.16042 
L 459.4108 49.474202 
L 470.317941 49.474202 
L 470.317941 41.787983 
L 481.225082 41.787983 
L 481.225082 34.101765 
L 492.132223 34.101765 
L 492.132223 26.415546 
L 503.039364 26.415546 
L 503.039364 18.729328 
L 513.946505 18.729328 
L 513.946505 164.76748 
L 524.853646 164.76748 
L 524.853646 157.081261 
L 535.760787 157.081261 
L 535.760787 149.395043 
L 546.667928 149.395043 
L 546.667928 141.708824 
L 557.575069 141.708824 
L 557.575069 134.022606 
" style="fill:none;stroke:#dc2830;stroke-linecap:square;stroke-opacity:0.7;stroke-width:2;"/>
    <defs>
     <path d="M 0 2.5 
C 0.663008 2.5 1.29895 2.236584 1.767767 1.767767 
C 2.236584 1.29895 2.5 0.663008 2.5 0 
C 2.5 -0.663008 2.236584 -1.29895 1.767767 -1.767767 
C 1.29895 -2.236584 0.663008 -2.5 0 -2.5 
C -0.663008 -2.5 -1.29895 -2.236584 -1.767767 -1.767767 
C -2.236584 -1.29895 -2.5 -0.663008 -2.5 0 
C -2.5 0.663008 -2.236584 1.29895 -1.767767 1.767767 
C -1.29895 2.236584 -0.663008 2.5 0 2.5 
z
" id="m3f2e7feadc"/>
    </defs>
    <g clip-path="url(#p0683746a1a)">
     <use style="fill:#dc2830;fill-opacity:0.7;" x="23.12516" xlink:href="#m3f2e7feadc" y="87.905295"/>
     <use style="fill:#dc2830;fill-opacity:0.7;" x="34.032301" xlink:href="#m3f2e7feadc" y="87.905295"/>
     <use style="fill:#dc2830;fill-opacity:0.7;" x="44.939442" xlink:href="#m3f2e7feadc" y="87.905295"/>
     <use style="fill:#dc2830;fill-opacity:0.7;" x="55.846583" xlink:href="#m3f2e7feadc" y="87.905295"/>
     <use style="fill:#dc2830;fill-opacity:0.7;" x="66.753724" xlink:href="#m3f2e7feadc" y="87.905295"/>
     <use style="fill:#dc2830;fill-opacity:0.7;" x="77.660865" xlink:href="#m3f2e7feadc" y="164.76748"/>
     <use style="fill:#dc2830;fill-opacity:0.7;" x="88.568006" xlink:href="#m3f2e7feadc" y="157.081261"/>
     <use style="fill:#dc2830;fill-opacity:0.7;" x="99.475147" xlink:href="#m3f2e7feadc" y="149.395043"/>
     <use style="fill:#dc2830;fill-opacity:0.7;" x="110.382288" xlink:href="#m3f2e7feadc" y="141.708824"/>
     <use style="fill:#dc2830;fill-opacity:0.7;" x="121.289429" xlink:href="#m3f2e7feadc" y="134.022606"/>
     <use style="fill:#dc2830;fill-opacity:0.7;" x="132.19657" xlink:href="#m3f2e7feadc" y="126.336387"/>
     <use style="fill:#dc2830;fill-opacity:0.7;" x="143.103711" xlink:href="#m3f2e7feadc" y="118.650169"/>
     <use style="fill:#dc2830;fill-opacity:0.7;" x="154.010852" xlink:href="#m3f2e7feadc" y="110.96395"/>
     <use style="fill:#dc2830;fill-opacity:0.7;" x="164.917993" xlink:href="#m3f2e7feadc" y="103.277732"/>
     <use style="fill:#dc2830;fill-opacity:0.7;" x="175.825134" xlink:href="#m3f2e7feadc" y="95.591513"/>
     <use style="fill:#dc2830;fill-opacity:0.7;" x="186.732275" xlink:href="#m3f2e7feadc" y="87.905295"/>
     <use style="fill:#dc2830;fill-opacity:0.7;" x="197.639416" xlink:href="#m3f2e7feadc" y="80.219076"/>
     <use style="fill:#dc2830;fill-opacity:0.7;" x="208.546557" xlink:href="#m3f2e7feadc" y="72.532858"/>
     <use style="fill:#dc2830;fill-opacity:0.7;" x="219.453698" xlink:href="#m3f2e7feadc" y="64.846639"/>
     <use style="fill:#dc2830;fill-opacity:0.7;" x="230.360839" xlink:href="#m3f2e7feadc" y="57.16042"/>
     <use style="fill:#dc2830;fill-opacity:0.7;" x="241.26798" xlink:href="#m3f2e7feadc" y="49.474202"/>
     <use style="fill:#dc2830;fill-opacity:0.7;" x="252.175121" xlink:href="#m3f2e7feadc" y="41.787983"/>
     <use style="fill:#dc2830;fill-opacity:0.7;" x="263.082262" xlink:href="#m3f2e7feadc" y="34.101765"/>
     <use style="fill:#dc2830;fill-opacity:0.7;" x="273.989403" xlink:href="#m3f2e7feadc" y="26.415546"/>
     <use style="fill:#dc2830;fill-opacity:0.7;" x="284.896544" xlink:href="#m3f2e7feadc" y="18.729328"/>
     <use style="fill:#dc2830;fill-opacity:0.7;" x="295.803685" xlink:href="#m3f2e7feadc" y="164.76748"/>
     <use style="fill:#dc2830;fill-opacity:0.7;" x="306.710826" xlink:href="#m3f2e7feadc" y="157.081261"/>
     <use style="fill:#dc2830;fill-opacity:0.7;" x="317.617967" xlink:href="#m3f2e7feadc" y="149.395043"/>
     <use style="fill:#dc2830;fill-opacity:0.7;" x="328.525108" xlink:href="#m3f2e7feadc" y="141.708824"/>
     <use style="fill:#dc2830;fill-opacity:0.7;" x="339.432249" xlink:href="#m3f2e7feadc" y="134.022606"/>
     <use style="fill:#dc2830;fill-opacity:0.7;" x="350.33939" xlink:href="#m3f2e7feadc" y="126.336387"/>
     <use style="fill:#dc2830;fill-opacity:0.7;" x="361.246531" xlink:href="#m3f2e7feadc" y="118.650169"/>
     <use style="fill:#dc2830;fill-opacity:0.7;" x="372.153672" xlink:href="#m3f2e7feadc" y="110.96395"/>
     <use style="fill:#dc2830;fill-opacity:0.7;" x="383.060813" xlink:href="#m3f2e7feadc" y="103.277732"/>
     <use style="fill:#dc2830;fill-opacity:0.7;" x="393.967954" xlink:href="#m3f2e7feadc" y="95.591513"/>
     <use style="fill:#dc2830;fill-opacity:0.7;" x="404.875095" xlink:href="#m3f2e7feadc" y="87.905295"/>
     <use style="fill:#dc2830;fill-opacity:0.7;" x="415.782236" xlink:href="#m3f2e7feadc" y="80.219076"/>
     <use style="fill:#dc2830;fill-opacity:0.7;" x="426.689377" xlink:href="#m3f2e7feadc" y="72.532858"/>
     <use style="fill:#dc2830;fill-opacity:0.7;" x="437.596518" xlink:href="#m3f2e7feadc" y="64.846639"/>
     <use style="fill:#dc2830;fill-opacity:0.7;" x="448.503659" xlink:href="#m3f2e7feadc" y="57.16042"/>
     <use style="fill:#dc2830;fill-opacity:0.7;" x="459.4108" xlink:href="#m3f2e7feadc" y="49.474202"/>
     <use style="fill:#dc2830;fill-opacity:0.7;" x="470.317941" xlink:href="#m3f2e7feadc" y="41.787983"/>
     <use style="fill:#dc2830;fill-opacity:0.7;" x="481.225082" xlink:href="#m3f2e7feadc" y="34.101765"/>
     <use style="fill:#dc2830;fill-opacity:0.7;" x="492.132223" xlink:href="#m3f2e7feadc" y="26.415546"/>
     <use style="fill:#dc2830;fill-opacity:0.7;" x="503.039364" xlink:href="#m3f2e7feadc" y="18.729328"/>
     <use style="fill:#dc2830;fill-opacity:0.7;" x="513.946505" xlink:href="#m3f2e7feadc" y="164.76748"/>
     <use style="fill:#dc2830;fill-opacity:0.7;" x="524.853646" xlink:href="#m3f2e7feadc" y="157.081261"/>
     <use style="fill:#dc2830;fill-opacity:0.7;" x="535.760787" xlink:href="#m3f2e7feadc" y="149.395043"/>
     <use style="fill:#dc2830;fill-opacity:0.7;" x="546.667928" xlink:href="#m3f2e7feadc" y="141.708824"/>
     <use style="fill:#dc2830;fill-opacity:0.7;" x="557.575069" xlink:href="#m3f2e7feadc" y="134.022606"/>
    </g>
   </g>
   <g id="legend_1">
    <g id="patch_3">
     <path d="M 492.056489 61.54197 
L 558.68221 61.54197 
Q 561.48221 61.54197 561.48221 58.74197 
L 561.48221 17 
Q 561.48221 14.2 558.68221 14.2 
L 492.056489 14.2 
Q 489.256489 14.2 489.256489 17 
L 489.256489 58.74197 
Q 489.256489 61.54197 492.056489 61.54197 
z
" style="fill:#ffffff;opacity:0.95;stroke:#cccccc;stroke-linejoin:miter;stroke-width:0.5;"/>
    </g>
    <g id="line2d_15">
     <path d="M 494.856489 25.537812 
L 508.856489 25.537812 
" style="fill:none;stroke:#0271ae;stroke-linecap:square;stroke-width:3;"/>
    </g>
    <g id="line2d_16">
     <g>
      <use style="fill:#0271ae;" x="501.856489" xlink:href="#maeca56637e" y="25.537812"/>
     </g>
    </g>
    <g id="text_2">
     <!-- $x[n]$ -->
     <g transform="translate(520.056489 30.437812)scale(0.14 -0.14)">
      <defs>
       <path d="M 2.09375 8.84375 
C 2.09375 6.84375 1.90625 5.578125 1.296875 2.390625 
C 1.09375 1.203125 1 0.90625 0.90625 0.203125 
C 2.40625 -0.609375 4 -1 5.203125 -1 
C 8.5 -1 12.40625 1.890625 15.5 6.546875 
L 23.09375 18.1875 
L 24.203125 11.328125 
C 25.5 2.875 27.796875 -1 31.40625 -1 
C 33.59375 -1 36.796875 0.6875 40 3.578125 
L 44.90625 7.953125 
L 44 9.84375 
C 40.40625 6.859375 37.90625 5.375 36.296875 5.375 
C 34.796875 5.375 33.5 6.375 32.5 8.34375 
C 31.59375 10.234375 30.5 13.90625 30 16.796875 
L 28.203125 26.8125 
L 31.703125 31.6875 
C 36.40625 38.140625 39.09375 40.421875 42.203125 40.421875 
C 43.796875 40.421875 45 39.625 45.5 38.140625 
L 46.90625 38.53125 
L 48.40625 47 
C 47.203125 47.703125 46.296875 48 45.40625 48 
C 41.40625 48 37.40625 44.40625 31.203125 35.265625 
L 27.5 29.796875 
L 26.90625 34.5625 
C 25.703125 44.40625 23 48 17.09375 48 
C 14.5 48 12.296875 47.203125 11.40625 45.90625 
L 5.59375 37.640625 
L 7.296875 36.65625 
C 10.296875 40.03125 12.296875 41.421875 14.203125 41.421875 
C 17.5 41.421875 19.703125 37.359375 21.40625 27.609375 
L 22.5 21.453125 
L 18.5 15.265625 
C 14.203125 8.578125 10.796875 5.375 8 5.375 
C 6.5 5.375 5.40625 5.796875 5.203125 6.296875 
L 4.09375 9.140625 
z
" id="URW_Palladio_L_Italic-120"/>
       <path d="M 25.5 -25 
L 25.5 -20.984375 
L 15.796875 -20.984375 
L 15.796875 71 
L 25.5 71 
L 25.5 75.015625 
L 11.796875 75.015625 
L 11.796875 -25 
z
" id="CMR10-91"/>
       <path d="M 2.40625 38.609375 
L 3.09375 36.609375 
L 6.296875 38.703125 
C 10 41.015625 10.296875 41.203125 11 41.203125 
C 12.09375 41.203125 12.796875 40.21875 12.796875 38.71875 
C 12.796875 33.625 8.703125 14.359375 4.59375 0.09375 
L 5.296875 -1 
C 7.796875 -0.3125 10.09375 0.28125 12.296875 0.6875 
C 14.203125 13.265625 16.296875 19.75 20.90625 26.640625 
C 26.296875 35.015625 33.796875 41.203125 38.296875 41.203125 
C 39.40625 41.203125 40 40.3125 40 38.8125 
C 40 37.015625 39.703125 34.921875 38.90625 31.734375 
L 33.703125 10.578125 
C 32.796875 6.875 32.40625 4.59375 32.40625 3 
C 32.40625 0.484375 33.5 -1 35.40625 -1 
C 38 -1 41.59375 1.078125 51.40625 8.375 
L 50.40625 10.171875 
L 47.796875 8.484375 
C 44.90625 6.578125 42.703125 5.484375 41.703125 5.484375 
C 41 5.484375 40.40625 6.375 40.40625 7.46875 
C 40.40625 7.96875 40.5 9.078125 40.59375 9.484375 
L 47.203125 37.015625 
C 47.90625 39.921875 48.296875 42.703125 48.296875 44.390625 
C 48.296875 46.703125 47.203125 48 45.203125 48 
C 41 48 34.09375 44.21875 28.203125 38.71875 
C 24.40625 35.21875 21.59375 31.828125 16.40625 24.546875 
L 20.203125 40.609375 
C 20.59375 42.40625 20.796875 43.59375 20.796875 44.703125 
C 20.796875 46.796875 20 48 18.5 48 
C 16.40625 48 12.5 45.8125 5.203125 40.609375 
z
" id="URW_Palladio_L_Italic-110"/>
       <path d="M 15.90625 75.015625 
L 2.203125 75.015625 
L 2.203125 71 
L 11.90625 71 
L 11.90625 -20.984375 
L 2.203125 -20.984375 
L 2.203125 -25 
L 15.90625 -25 
z
" id="CMR10-93"/>
      </defs>
      <use transform="scale(0.996264)" xlink:href="#URW_Palladio_L_Italic-120"/>
      <use transform="translate(53.299136 0)scale(1.038107)" xlink:href="#CMR10-91"/>
      <use transform="translate(84.581835 0)scale(0.996264)" xlink:href="#URW_Palladio_L_Italic-110"/>
      <use transform="translate(142.464796 0)scale(1.038107)" xlink:href="#CMR10-93"/>
     </g>
    </g>
    <g id="line2d_17">
     <path d="M 494.856489 47.108797 
L 508.856489 47.108797 
" style="fill:none;stroke:#dc2830;stroke-linecap:square;stroke-opacity:0.7;stroke-width:2;"/>
    </g>
    <g id="line2d_18">
     <g>
      <use style="fill:#dc2830;fill-opacity:0.7;" x="501.856489" xlink:href="#m3f2e7feadc" y="47.108797"/>
     </g>
    </g>
    <g id="text_3">
     <!-- $\Delta_5*x$ -->
     <g transform="translate(520.056489 52.008797)scale(0.14 -0.14)">
      <defs>
       <path d="M 31.90625 68.203125 
L 3 2.5 
L 3.203125 0 
C 12.296875 0 19 0 28.5 0 
C 37.90625 0 49.90625 0 57.90625 0 
L 64.09375 3.390625 
L 64.09375 4.296875 
L 35.703125 70.203125 
z
M 31.59375 56.90625 
L 50.703125 11.703125 
C 51.59375 9.609375 52.703125 7.40625 52.703125 6.203125 
C 52.703125 5.109375 51.09375 4.5 48.59375 4.296875 
L 15.40625 4.296875 
C 12.09375 4.609375 10.90625 5.296875 10.90625 6.90625 
C 10.90625 8.203125 13.09375 13.40625 14.40625 16.40625 
z
" id="Pazo_Math-68"/>
       <path d="M 12.703125 60.578125 
C 25.59375 60.578125 31.203125 60.578125 43.203125 60.578125 
L 43.703125 61.046875 
C 43.5 62.75 43.5 63.5 43.5 64.75 
C 43.5 66.078125 43.5 66.828125 43.703125 68.53125 
L 43.203125 69 
C 35.703125 69 31.203125 69 25.796875 69 
C 20.296875 69 15.90625 69 8.40625 69 
L 7.90625 68.796875 
C 8 62.671875 8.09375 58.265625 8.09375 55.046875 
C 8.09375 46.515625 7.796875 36.875 7.5 32.453125 
L 9.5 31.84375 
C 14.203125 36.578125 16.90625 38 21.796875 38 
C 31.40625 38 37.40625 31.140625 37.40625 20.25 
C 37.40625 9.0625 31 2.5 20.09375 2.5 
C 14.703125 2.5 9.703125 4.328125 8.296875 6.9375 
L 3.703125 15.203125 
L 1.296875 13.796875 
C 3.59375 8.0625 4.796875 4.84375 6.203125 0.421875 
C 9 -1.109375 13 -2 17.296875 -2 
C 24 -2 31.09375 0.921875 36.59375 5.75 
C 42.703125 11.1875 45.90625 18.03125 45.90625 25.46875 
C 45.90625 36.859375 37.796875 44.90625 26.40625 44.90625 
C 21.59375 44.90625 18 43.609375 11.796875 39.90625 
z
" id="URW_Palladio_L_Roman-53"/>
       <path d="M 27.5 42.484375 
C 27.59375 43.875 27.59375 46.28125 25 46.28125 
C 23.40625 46.28125 22.09375 44.984375 22.40625 43.671875 
L 22.40625 42.375 
L 23.796875 26.875 
L 11 36.1875 
C 10.09375 36.6875 9.90625 36.875 9.203125 36.875 
C 7.796875 36.875 6.5 35.484375 6.5 34.078125 
C 6.5 32.484375 7.5 32.078125 8.5 31.578125 
L 22.703125 24.78125 
L 8.90625 18.09375 
C 7.296875 17.296875 6.5 16.890625 6.5 15.390625 
C 6.5 13.890625 7.796875 12.59375 9.203125 12.59375 
C 9.90625 12.59375 10.09375 12.59375 12.59375 14.5 
L 23.796875 22.59375 
L 22.296875 5.796875 
C 22.296875 3.6875 24.09375 3.1875 24.90625 3.1875 
C 26.09375 3.1875 27.59375 3.875 27.59375 5.796875 
L 26.09375 22.59375 
L 38.90625 13.296875 
C 39.796875 12.796875 40 12.59375 40.703125 12.59375 
C 42.09375 12.59375 43.40625 14 43.40625 15.390625 
C 43.40625 16.890625 42.5 17.390625 41.296875 18 
C 35.296875 20.984375 35.09375 20.984375 27.203125 24.6875 
L 41 31.375 
C 42.59375 32.1875 43.40625 32.578125 43.40625 34.078125 
C 43.40625 35.578125 42.09375 36.875 40.703125 36.875 
C 40 36.875 39.796875 36.875 37.296875 34.984375 
L 26.09375 26.875 
z
" id="CMSY10-3"/>
      </defs>
      <use transform="scale(0.996264)" xlink:href="#Pazo_Math-68"/>
      <use transform="translate(68.59178 -17.441431)scale(0.757155)" xlink:href="#URW_Palladio_L_Roman-53"/>
      <use transform="translate(127.564723 0)scale(1.038107)" xlink:href="#CMSY10-3"/>
      <use transform="translate(203.02517 0)scale(0.996264)" xlink:href="#URW_Palladio_L_Italic-120"/>
     </g>
    </g>
   </g>
  </g>
  <g id="axes_2">
   <g id="patch_4">
    <path d="M 23.12516 339.861659 
L 568.48221 339.861659 
L 568.48221 178.451069 
L 23.12516 178.451069 
z
" style="fill:none;"/>
   </g>
   <g id="matplotlib.axis_3">
    <g id="xtick_7">
     <g id="line2d_19">
      <path clip-path="url(#p876eb07425)" d="M 23.12516 339.861659 
L 23.12516 178.451069 
" style="fill:none;stroke:#000000;stroke-linecap:square;stroke-opacity:0.2;stroke-width:0.5;"/>
     </g>
     <g id="line2d_20">
      <g>
       <use style="fill-opacity:0.2;stroke:#000000;stroke-opacity:0.2;stroke-width:0.8;" x="23.12516" xlink:href="#m6ea33f2cc0" y="339.861659"/>
      </g>
     </g>
     <g id="text_4">
      <!-- $\mathdefault{0.0}$ -->
      <g transform="translate(14.40785 365.341188)scale(0.14 -0.14)">
       <defs>
        <path d="M 26.296875 69 
C 10.796875 69 2.90625 56.6875 2.90625 32.453125 
C 2.90625 20.71875 5 10.625 8.5 5.71875 
C 12 0.796875 17.59375 -2 23.796875 -2 
C 38.90625 -2 46.5 11.015625 46.5 36.65625 
C 46.5 58.578125 40 69 26.296875 69 
z
M 24.5 65.5 
C 34.203125 65.5 38.09375 55.6875 38.09375 31.640625 
C 38.09375 10.328125 34.296875 1.5 25.09375 1.5 
C 15.40625 1.5 11.296875 11.625 11.296875 36.0625 
C 11.296875 57.1875 15 65.5 24.5 65.5 
z
" id="URW_Palladio_L_Roman-48"/>
        <path d="M 12.40625 11.625 
C 9.40625 11.625 6.703125 8.8125 6.703125 5.8125 
C 6.703125 2.796875 9.40625 0 12.296875 0 
C 15.5 0 18.296875 2.703125 18.296875 5.8125 
C 18.296875 8.8125 15.5 11.625 12.40625 11.625 
z
" id="URW_Palladio_L_Roman-46"/>
       </defs>
       <use transform="scale(0.996264)" xlink:href="#URW_Palladio_L_Roman-48"/>
       <use transform="translate(49.8132 0)scale(0.996264)" xlink:href="#URW_Palladio_L_Roman-46"/>
       <use transform="translate(74.719801 0)scale(0.996264)" xlink:href="#URW_Palladio_L_Roman-48"/>
      </g>
     </g>
    </g>
    <g id="xtick_8">
     <g id="line2d_21">
      <path clip-path="url(#p876eb07425)" d="M 132.19657 339.861659 
L 132.19657 178.451069 
" style="fill:none;stroke:#000000;stroke-linecap:square;stroke-opacity:0.2;stroke-width:0.5;"/>
     </g>
     <g id="line2d_22">
      <g>
       <use style="fill-opacity:0.2;stroke:#000000;stroke-opacity:0.2;stroke-width:0.8;" x="132.19657" xlink:href="#m6ea33f2cc0" y="339.861659"/>
      </g>
     </g>
     <g id="text_5">
      <!-- $\mathdefault{0.2}$ -->
      <g transform="translate(123.47926 365.341188)scale(0.14 -0.14)">
       <defs>
        <path d="M 1.59375 2.5 
L 1.59375 0 
C 20.296875 0 20.296875 0 23.90625 0 
C 27.5 0 27.5 0 46.796875 0 
C 46.59375 1.953125 46.59375 2.90625 46.59375 4.203125 
C 46.59375 5.4375 46.59375 6.359375 46.796875 8.421875 
C 35.296875 8.421875 30.703125 8.421875 12.203125 8.421875 
L 30.40625 27.515625 
C 40.09375 37.71875 43.09375 43.171875 43.09375 50.59375 
C 43.09375 61.96875 35.296875 69 22.59375 69 
C 15.40625 69 10.5 67 5.59375 62.015625 
L 3.90625 48.421875 
L 6.796875 48.421875 
L 8.09375 53.015625 
C 9.703125 58.796875 13.296875 61.296875 20 61.296875 
C 28.59375 61.296875 34.09375 55.890625 34.09375 47.421875 
C 34.09375 39.921875 29.90625 32.546875 18.59375 20.5625 
z
" id="URW_Palladio_L_Roman-50"/>
       </defs>
       <use transform="scale(0.996264)" xlink:href="#URW_Palladio_L_Roman-48"/>
       <use transform="translate(49.8132 0)scale(0.996264)" xlink:href="#URW_Palladio_L_Roman-46"/>
       <use transform="translate(74.719801 0)scale(0.996264)" xlink:href="#URW_Palladio_L_Roman-50"/>
      </g>
     </g>
    </g>
    <g id="xtick_9">
     <g id="line2d_23">
      <path clip-path="url(#p876eb07425)" d="M 241.26798 339.861659 
L 241.26798 178.451069 
" style="fill:none;stroke:#000000;stroke-linecap:square;stroke-opacity:0.2;stroke-width:0.5;"/>
     </g>
     <g id="line2d_24">
      <g>
       <use style="fill-opacity:0.2;stroke:#000000;stroke-opacity:0.2;stroke-width:0.8;" x="241.26798" xlink:href="#m6ea33f2cc0" y="339.861659"/>
      </g>
     </g>
     <g id="text_6">
      <!-- $\mathdefault{0.4}$ -->
      <g transform="translate(232.55067 365.341188)scale(0.14 -0.14)">
       <defs>
        <path d="M 28 18 
L 28 10.515625 
C 28 4.515625 26.90625 3.109375 22 3.109375 
L 15.796875 3.109375 
L 15.796875 0 
C 29.09375 0 29.09375 0 31.5 0 
C 33.90625 0 33.90625 0 47.203125 0 
L 47.203125 3.109375 
L 42.40625 3.109375 
C 37.5 3.109375 36.40625 4.40625 36.40625 10.453125 
L 36.40625 18 
C 42.296875 18 44.40625 18 47.203125 17.703125 
L 47.203125 24.8125 
C 42.5 24.421875 40.59375 24.421875 39.09375 24.421875 
L 38.796875 24.421875 
L 36.40625 24.421875 
L 36.40625 38.390625 
C 36.40625 56.25 36.59375 64.875 37.09375 69 
L 35.90625 69.5 
L 28.5 66.796875 
L 0.203125 20.296875 
L 1.296875 18 
z
M 28 24.421875 
L 6.5 24.421875 
L 28 59.78125 
z
" id="URW_Palladio_L_Roman-52"/>
       </defs>
       <use transform="scale(0.996264)" xlink:href="#URW_Palladio_L_Roman-48"/>
       <use transform="translate(49.8132 0)scale(0.996264)" xlink:href="#URW_Palladio_L_Roman-46"/>
       <use transform="translate(74.719801 0)scale(0.996264)" xlink:href="#URW_Palladio_L_Roman-52"/>
      </g>
     </g>
    </g>
    <g id="xtick_10">
     <g id="line2d_25">
      <path clip-path="url(#p876eb07425)" d="M 350.33939 339.861659 
L 350.33939 178.451069 
" style="fill:none;stroke:#000000;stroke-linecap:square;stroke-opacity:0.2;stroke-width:0.5;"/>
     </g>
     <g id="line2d_26">
      <g>
       <use style="fill-opacity:0.2;stroke:#000000;stroke-opacity:0.2;stroke-width:0.8;" x="350.33939" xlink:href="#m6ea33f2cc0" y="339.861659"/>
      </g>
     </g>
     <g id="text_7">
      <!-- $\mathdefault{0.6}$ -->
      <g transform="translate(341.62208 365.341188)scale(0.14 -0.14)">
       <defs>
        <path d="M 41.59375 67.34375 
L 37.90625 69.046875 
C 28.296875 65.84375 24.203125 63.84375 19.09375 59.4375 
C 8.796875 50.71875 3.203125 38.5 3.203125 24.765625 
C 3.203125 8.21875 11.203125 -2 24.09375 -2 
C 37.09375 -2 46.796875 8.3125 46.796875 21.953125 
C 46.796875 33.484375 39.90625 41 29.296875 41 
C 24.296875 41 21.296875 39.6875 15.40625 34.984375 
C 14.296875 34.078125 14.203125 33.984375 13.09375 33.1875 
C 15.203125 51.3125 23.59375 61.140625 41.59375 66.546875 
z
M 25.5 34.984375 
C 33.09375 34.984375 38.203125 28.375 38.203125 18.453125 
C 38.203125 8.015625 33.09375 1.296875 25.40625 1.296875 
C 16.90625 1.296875 12.296875 8.609375 12.296875 22.0625 
C 12.296875 25.5625 12.703125 27.46875 13.796875 29.171875 
C 16 32.578125 20.703125 34.984375 25.5 34.984375 
z
" id="URW_Palladio_L_Roman-54"/>
       </defs>
       <use transform="scale(0.996264)" xlink:href="#URW_Palladio_L_Roman-48"/>
       <use transform="translate(49.8132 0)scale(0.996264)" xlink:href="#URW_Palladio_L_Roman-46"/>
       <use transform="translate(74.719801 0)scale(0.996264)" xlink:href="#URW_Palladio_L_Roman-54"/>
      </g>
     </g>
    </g>
    <g id="xtick_11">
     <g id="line2d_27">
      <path clip-path="url(#p876eb07425)" d="M 459.4108 339.861659 
L 459.4108 178.451069 
" style="fill:none;stroke:#000000;stroke-linecap:square;stroke-opacity:0.2;stroke-width:0.5;"/>
     </g>
     <g id="line2d_28">
      <g>
       <use style="fill-opacity:0.2;stroke:#000000;stroke-opacity:0.2;stroke-width:0.8;" x="459.4108" xlink:href="#m6ea33f2cc0" y="339.861659"/>
      </g>
     </g>
     <g id="text_8">
      <!-- $\mathdefault{0.8}$ -->
      <g transform="translate(450.69349 365.341188)scale(0.14 -0.14)">
       <defs>
        <path d="M 16.796875 34.546875 
C 12.703125 32.65625 11 31.546875 8.796875 29.4375 
C 5 25.640625 3 21.125 3 15.921875 
C 3 5.609375 11.296875 -2 22.59375 -2 
C 35.59375 -2 46.40625 8.21875 46.40625 20.625 
C 46.40625 28.640625 42.703125 32.953125 31.296875 38.15625 
C 40.40625 44.375 43.59375 48.578125 43.59375 54.578125 
C 43.59375 63.1875 36.5 69 25.90625 69 
C 14 69 5.296875 61.390625 5.296875 50.890625 
C 5.296875 44.078125 8 40.265625 16.796875 34.546875 
z
M 28.40625 29.546875 
C 34.703125 26.734375 38.5 21.828125 38.5 16.4375 
C 38.5 8.015625 32.203125 1.40625 24.09375 1.40625 
C 15.59375 1.40625 10.09375 7.421875 10.09375 16.734375 
C 10.09375 24.03125 13 28.640625 20.40625 33.15625 
z
M 22.296875 42.375 
C 16 45.46875 12.796875 49.484375 12.796875 54.484375 
C 12.796875 61.09375 17.59375 65.59375 24.703125 65.59375 
C 32 65.59375 36.796875 60.796875 36.796875 53.46875 
C 36.796875 47.78125 34.296875 43.875 27.796875 39.65625 
z
" id="URW_Palladio_L_Roman-56"/>
       </defs>
       <use transform="scale(0.996264)" xlink:href="#URW_Palladio_L_Roman-48"/>
       <use transform="translate(49.8132 0)scale(0.996264)" xlink:href="#URW_Palladio_L_Roman-46"/>
       <use transform="translate(74.719801 0)scale(0.996264)" xlink:href="#URW_Palladio_L_Roman-56"/>
      </g>
     </g>
    </g>
    <g id="xtick_12">
     <g id="line2d_29">
      <path clip-path="url(#p876eb07425)" d="M 568.48221 339.861659 
L 568.48221 178.451069 
" style="fill:none;stroke:#000000;stroke-linecap:square;stroke-opacity:0.2;stroke-width:0.5;"/>
     </g>
     <g id="line2d_30">
      <g>
       <use style="fill-opacity:0.2;stroke:#000000;stroke-opacity:0.2;stroke-width:0.8;" x="568.48221" xlink:href="#m6ea33f2cc0" y="339.861659"/>
      </g>
     </g>
     <g id="text_9">
      <!-- $\mathdefault{1.0}$ -->
      <g transform="translate(559.7649 365.341188)scale(0.14 -0.14)">
       <defs>
        <path d="M 6.703125 56 
L 7.703125 56 
L 20.59375 61.8125 
C 20.703125 61.90625 20.796875 61.90625 20.90625 61.90625 
C 21.5 61.90625 21.703125 61.015625 21.703125 58.609375 
L 21.703125 9.578125 
C 21.703125 4.3125 20.59375 3.203125 15.203125 3.203125 
L 9.59375 3.203125 
L 9.59375 0 
C 25 0 25 0 26.09375 0 
C 27.40625 0 29.59375 0 33 0 
C 34.203125 0 37.703125 0 41.796875 0 
L 41.796875 3.203125 
L 36.59375 3.203125 
C 31.09375 3.203125 30.09375 4.3125 30.09375 9.5625 
L 30.09375 69.421875 
L 28.703125 69.921875 
C 22.203125 66.515625 15.09375 63.515625 6 60.3125 
z
" id="URW_Palladio_L_Roman-49"/>
       </defs>
       <use transform="scale(0.996264)" xlink:href="#URW_Palladio_L_Roman-49"/>
       <use transform="translate(49.8132 0)scale(0.996264)" xlink:href="#URW_Palladio_L_Roman-46"/>
       <use transform="translate(74.719801 0)scale(0.996264)" xlink:href="#URW_Palladio_L_Roman-48"/>
      </g>
     </g>
    </g>
    <g id="text_10">
     <!-- Time [seconds] -->
     <g transform="translate(256.130833 381.828236)scale(0.12 -0.12)">
      <defs>
       <path d="M 25.5 64.28125 
C 25.796875 60.875 25.90625 58.578125 25.90625 54.265625 
L 25.90625 11.921875 
C 25.90625 4 25.40625 3.203125 20.796875 3.203125 
L 16 3.203125 
L 16 0 
C 21.90625 0 25.40625 0 30.59375 0 
C 35.796875 0 39.40625 0 45.296875 0 
L 45.296875 3.203125 
L 40.5 3.203125 
C 35.90625 3.203125 35.40625 4 35.40625 11.921875 
L 35.40625 54.265625 
C 35.40625 58.78125 35.5 60.984375 35.796875 64.28125 
L 51.296875 64.28125 
C 54.09375 64.28125 55.203125 63.390625 55.296875 61 
L 55.703125 53.125 
L 58.796875 53.125 
C 58.796875 59.53125 59 63.375 59.5 69 
C 52.296875 69 49 69 46.203125 69 
C 42.296875 69 39.40625 69 37.90625 69 
L 22.09375 69 
C 21.09375 69 15.703125 69 8.59375 69 
L 1.796875 69 
C 2.296875 63.375 2.5 59.53125 2.5 53.125 
L 5.59375 53.125 
L 6 61 
C 6.09375 63.390625 7.203125 64.28125 10 64.28125 
z
" id="URW_Palladio_L_Roman-84"/>
       <path d="M 18.796875 46.765625 
L 17.90625 47.171875 
C 12.796875 45.0625 7.59375 43.640625 2.296875 43.046875 
L 2.296875 40.25 
L 6 40.25 
C 10 40.25 10.40625 39.546875 10.40625 32.890625 
L 10.40625 10.171875 
C 10.40625 3.8125 10.09375 3.109375 6.703125 3.109375 
L 2.09375 3.109375 
L 2.09375 0 
C 12.09375 0 12.09375 0 14.59375 0 
C 17.09375 0 17.09375 0 27.09375 0 
L 27.09375 3.109375 
L 22.5 3.109375 
C 19.09375 3.109375 18.796875 3.8125 18.796875 10.171875 
z
M 14.203125 69 
C 11.203125 69 8.59375 66.390625 8.59375 63.375 
C 8.59375 60.46875 11.203125 57.875 14.09375 57.875 
C 17 57.875 19.703125 60.46875 19.703125 63.375 
C 19.703125 66.1875 17 69 14.203125 69 
z
" id="URW_Palladio_L_Roman-105"/>
       <path d="M 1.796875 40.078125 
L 5.5 40.078125 
C 9.5 40.078125 9.90625 39.375 9.90625 32.71875 
L 9.90625 10.046875 
C 9.90625 3.703125 9.59375 3 6.203125 3 
L 1.59375 3 
L 1.59375 -0.109375 
C 11.203125 -0.109375 11.5 -0.109375 14.296875 -0.109375 
C 17.09375 -0.109375 19.703125 -0.109375 26.203125 -0.109375 
L 26.203125 2.796875 
L 22 3.203125 
C 18.59375 3.203125 18.296875 3.90625 18.296875 10.21875 
L 18.296875 31.46875 
C 18.296875 35.96875 24.90625 40.875 30.90625 40.875 
C 36.296875 40.875 40 35.734375 40 28.09375 
L 40 10.046875 
C 40 3.703125 39.703125 3 36.296875 3 
L 31.703125 3 
L 31.703125 -0.109375 
C 41.703125 -0.109375 41.703125 -0.109375 44.203125 -0.109375 
C 46.703125 -0.109375 46.703125 -0.109375 56.703125 -0.109375 
L 56.703125 3 
L 52.09375 3 
C 48.703125 3 48.40625 3.703125 48.40625 10.046875 
L 48.40625 31.421875 
C 48.40625 35.9375 55 40.875 61 40.875 
C 66.40625 40.875 70.09375 35.796875 70.09375 28.21875 
L 70.09375 -0.109375 
C 76.203125 -0.109375 76.296875 -0.109375 78 -0.109375 
C 79.296875 -0.109375 79.296875 -0.109375 86.90625 -0.109375 
L 86.90625 3 
L 82.203125 3 
C 78.796875 3 78.5 3.703125 78.5 10.046875 
L 78.5 30.78125 
C 78.5 40.75 72.703125 47 63.5 47 
C 60 47 57.09375 46.09375 55.296875 44.484375 
L 47.703125 37.6875 
C 44.5 44.28125 40.40625 47 33.5 47 
C 29.796875 47 27 46.09375 25.203125 44.484375 
L 18.296875 38.078125 
L 18.296875 46.59375 
L 17.40625 47 
C 12.296875 44.890625 7.09375 43.484375 1.796875 42.890625 
z
" id="URW_Palladio_L_Roman-109"/>
       <path d="M 43.703125 6.984375 
L 42.40625 7.984375 
C 36 4.203125 33.703125 3.3125 29.40625 3.3125 
C 22.90625 3.3125 17.5 6.21875 14.703125 11.109375 
C 12.796875 14.390625 12.09375 17.203125 11.90625 23 
L 26.5 23 
C 33.40625 23 37.703125 23 44.59375 24.125 
C 44.703125 25.53125 44.796875 26.453125 44.796875 27.671875 
C 44.796875 39.375 37.40625 47 26.203125 47 
C 22.5 47 18.203125 45.6875 14.09375 43.28125 
C 5.90625 38.578125 2.59375 32.359375 2.59375 21.9375 
C 2.59375 15.625 4.09375 10.21875 6.796875 6.40625 
C 10.796875 1.109375 17.5 -2 25 -2 
C 28.703125 -2 32.40625 -1.203125 36.5 0.578125 
C 39.203125 1.6875 41.296875 2.984375 41.703125 3.59375 
z
M 35.90625 26.40625 
C 30.703125 26.40625 28.296875 26.40625 24.703125 26.40625 
C 20.09375 26.40625 17.5 26.40625 12.09375 26.90625 
C 12.09375 31.671875 12.5 33.890625 13.796875 36.515625 
C 15.90625 40.96875 20.203125 43.6875 25 43.6875 
C 28.296875 43.6875 30.90625 42.359375 32.703125 39.59375 
C 34.90625 36.234375 35.59375 33.265625 35.90625 26.40625 
z
" id="URW_Palladio_L_Roman-101"/>
       <path d="M 8.796875 -18 
C 15.90625 -18 16.09375 -18 18.5 -18 
C 20.90625 -18 21.40625 -18 28.203125 -18 
L 28.796875 -17.5 
L 28.796875 -14.890625 
L 28.40625 -14.390625 
L 24.59375 -14.390625 
C 21.90625 -14.390625 19.703125 -13.78125 18.5 -12.78125 
C 17.59375 -11.875 17.296875 -10.484375 17.296875 -7.171875 
C 17.296875 -7.078125 17.296875 -4.96875 17.203125 -1.953125 
L 17.203125 1.75 
L 17.203125 53.265625 
L 17.203125 56.96875 
C 17.296875 59.78125 17.296875 61.984375 17.296875 62.078125 
C 17.296875 65.390625 17.59375 66.890625 18.5 67.796875 
C 19.703125 68.796875 21.90625 69.390625 24.59375 69.390625 
L 28.40625 69.390625 
L 28.796875 69.890625 
L 28.796875 72.5 
L 28.203125 73 
C 21.203125 73 20.90625 73 18.5 73 
C 16.203125 73 15.703125 73 8.796875 73 
L 7.90625 71.796875 
C 8.5 69.296875 8.703125 65.984375 8.703125 58.28125 
C 8.703125 56.765625 8.703125 55.5625 8.796875 54.5625 
L 8.796875 53.265625 
L 8.796875 1.75 
L 8.796875 0.4375 
C 8.703125 -1.15625 8.703125 -1.265625 8.703125 -2.96875 
L 8.703125 -4.0625 
C 8.703125 -10.875 8.5 -13.6875 7.90625 -16.796875 
z
" id="URW_Palladio_L_Roman-91"/>
       <path d="M 4.09375 14.328125 
C 4.09375 7.421875 3.796875 4.40625 3 0.40625 
C 8.203125 -1.296875 12.09375 -2 16.703125 -2 
C 29.796875 -2 39.09375 5.015625 39.09375 14.828125 
C 39.09375 17.9375 38.203125 20.234375 36.296875 22.25 
C 33.703125 24.75 30.40625 25.953125 21.59375 27.65625 
C 13.40625 29.265625 10.703125 31.265625 10.703125 35.875 
C 10.703125 40.875 14.203125 43.6875 20.296875 43.6875 
C 27 43.6875 32.09375 40.1875 32.09375 35.46875 
L 32.09375 33.171875 
L 34.90625 33.171875 
C 35 38.984375 35.09375 41.375 35.40625 44.484375 
C 30.09375 46.296875 26.5 47 22.40625 47 
C 10.796875 47 3.703125 41.484375 3.703125 32.46875 
C 3.703125 27.65625 5.90625 24.25 10.5 22.140625 
C 13.203125 20.9375 18.5 19.34375 25.296875 17.828125 
C 29.796875 16.828125 31.703125 14.734375 31.703125 10.921875 
C 31.703125 5.515625 26.703125 1.703125 19.59375 1.703125 
C 12.296875 1.703125 7.09375 5.203125 7.09375 10.21875 
L 7.09375 14.328125 
z
" id="URW_Palladio_L_Roman-115"/>
       <path d="M 39.90625 31.15625 
C 39.90625 35.765625 40.40625 39.875 41.296875 43.484375 
C 37.296875 45.890625 33.796875 47 29.703125 47 
C 24.90625 47 19.296875 45.09375 13.296875 41.28125 
C 6.296875 36.875 2.59375 29.859375 2.59375 21.046875 
C 2.59375 7.515625 12.09375 -2 25.5 -2 
C 30.703125 -2 38.203125 -0.09375 39.203125 1.40625 
L 41.296875 4.609375 
L 40.296875 6.109375 
C 36.59375 4.109375 33.40625 3.203125 29.796875 3.203125 
C 18.703125 3.203125 11.40625 11.828125 11.40625 25.046875 
C 11.40625 35.765625 16.40625 41.78125 25.40625 41.78125 
C 29.796875 41.78125 34.59375 39.78125 36.40625 37.28125 
L 37.09375 31.15625 
z
" id="URW_Palladio_L_Roman-99"/>
       <path d="M 27.90625 47 
C 13.296875 47 3.203125 36.671875 3.203125 21.75 
C 3.203125 7.609375 12.09375 -2 25 -2 
C 40.40625 -2 51.40625 8.71875 51.40625 23.75 
C 51.40625 37.28125 41.59375 47 27.90625 47 
z
M 26.09375 43.6875 
C 35.296875 43.6875 42.09375 33.671875 42.09375 20.046875 
C 42.09375 8.515625 37 1.296875 28.90625 1.296875 
C 19.09375 1.296875 12.5 10.921875 12.5 25.15625 
C 12.5 37.171875 17.296875 43.6875 26.09375 43.6875 
z
" id="URW_Palladio_L_Roman-111"/>
       <path d="M 41.203125 43.78125 
C 35.59375 46.1875 32.796875 47 29.296875 47 
C 26.59375 47 24.203125 46.390625 21.703125 45.109375 
L 12.90625 40.515625 
C 7.203125 37.515625 3.5 30.234375 3.5 21.75 
C 3.5 13.765625 6.203125 7.1875 11.09375 3.1875 
C 14.5 0.296875 19.203125 -1 25.703125 -1 
C 27.703125 -1 30 -0.59375 30.5 -0.203125 
L 41.59375 9.109375 
L 41.09375 -0.109375 
C 46 -0.109375 47.59375 -0.109375 48.796875 -0.109375 
C 49.59375 -0.109375 51 -0.109375 53.09375 -0.109375 
C 53.796875 -0.109375 55.796875 -0.109375 57.90625 -0.109375 
L 57.90625 3 
L 53.296875 3 
C 49.90625 3 49.59375 3.703125 49.59375 10.046875 
L 49.59375 71.984375 
L 48.703125 72.796875 
C 44.296875 71.09375 41 70.28125 33.09375 69.078125 
L 33.09375 66.28125 
L 38.703125 66.28125 
C 40.5 66.28125 41.203125 65.171875 41.203125 62.15625 
z
M 41.203125 22.25 
C 41.203125 15.765625 41 14.78125 39.703125 12.484375 
C 36.90625 7.796875 32 4.71875 27.296875 4.71875 
C 18.5 4.71875 12.203125 13.1875 12.203125 25.046875 
C 12.203125 35.90625 17.59375 42.28125 26.59375 42.28125 
C 30.40625 42.28125 34.40625 40.984375 37.90625 38.59375 
C 40 37.203125 41.203125 35.90625 41.203125 35.09375 
z
" id="URW_Palladio_L_Roman-100"/>
       <path d="M 24.5 73 
C 17.40625 73 17.09375 73 14.796875 73 
C 12.40625 73 11.90625 73 5.09375 73 
L 4.5 72.5 
L 4.5 69.890625 
L 4.90625 69.390625 
L 8.703125 69.390625 
C 11.40625 69.390625 13.5 68.796875 14.703125 67.796875 
C 15.703125 66.890625 16 65.484375 16 62.078125 
C 16 61.78125 16 59.78125 16.09375 56.96875 
L 16.09375 53.265625 
L 16.09375 1.75 
L 16.09375 -1.953125 
C 16 -4.859375 16 -6.671875 16 -6.96875 
C 16 -10.375 15.703125 -11.875 14.703125 -12.78125 
C 13.5 -13.78125 11.40625 -14.390625 8.703125 -14.390625 
L 4.90625 -14.390625 
L 4.5 -14.890625 
L 4.5 -17.5 
L 5.09375 -18 
C 12.09375 -18 12.296875 -18 14.796875 -18 
C 17.09375 -18 17.59375 -18 24.5 -18 
L 25.40625 -16.796875 
C 24.796875 -14.390625 24.703125 -11.28125 24.59375 -3.5625 
C 24.59375 -2.15625 24.59375 -0.859375 24.5 0.4375 
L 24.5 1.75 
L 24.5 53.265625 
L 24.5 54.5625 
C 24.59375 55.671875 24.59375 56.96875 24.59375 58.375 
C 24.59375 66.09375 24.796875 69.390625 25.40625 71.796875 
z
" id="URW_Palladio_L_Roman-93"/>
      </defs>
      <use transform="scale(0.996264)" xlink:href="#URW_Palladio_L_Roman-84"/>
      <use transform="translate(55.591109 0)scale(0.996264)" xlink:href="#URW_Palladio_L_Roman-105"/>
      <use transform="translate(84.581471 0)scale(0.996264)" xlink:href="#URW_Palladio_L_Roman-109"/>
      <use transform="translate(172.551145 0)scale(0.996264)" xlink:href="#URW_Palladio_L_Roman-101"/>
      <use transform="translate(245.17804 0)scale(0.996264)" xlink:href="#URW_Palladio_L_Roman-91"/>
      <use transform="translate(278.35327 0)scale(0.996264)" xlink:href="#URW_Palladio_L_Roman-115"/>
      <use transform="translate(320.594736 0)scale(0.996264)" xlink:href="#URW_Palladio_L_Roman-101"/>
      <use transform="translate(368.315031 0)scale(0.996264)" xlink:href="#URW_Palladio_L_Roman-99"/>
      <use transform="translate(412.5486 0)scale(0.996264)" xlink:href="#URW_Palladio_L_Roman-111"/>
      <use transform="translate(466.94418 0)scale(0.996264)" xlink:href="#URW_Palladio_L_Roman-110"/>
      <use transform="translate(524.926241 0)scale(0.996264)" xlink:href="#URW_Palladio_L_Roman-100"/>
      <use transform="translate(585.797872 0)scale(0.996264)" xlink:href="#URW_Palladio_L_Roman-115"/>
      <use transform="translate(628.039338 0)scale(0.996264)" xlink:href="#URW_Palladio_L_Roman-93"/>
     </g>
    </g>
   </g>
   <g id="matplotlib.axis_4">
    <g id="text_11">
     <!-- Output -->
     <g transform="translate(15.753876 278.553291)rotate(-90)scale(0.12 -0.12)">
      <defs>
       <path d="M 40.203125 71 
C 17.40625 71 2.203125 56.1875 2.203125 34.15625 
C 2.203125 13.109375 16.796875 -2 37 -2 
C 59.40625 -2 76.40625 14.71875 76.40625 36.734375 
C 76.40625 57.78125 62.40625 71 40.203125 71 
z
M 38.5 66.78125 
C 55.59375 66.78125 65.703125 54.578125 65.703125 33.75 
C 65.703125 13.90625 56.5 2.203125 41 2.203125 
C 24.203125 2.203125 12.90625 16.421875 12.90625 37.84375 
C 12.90625 56.359375 22.09375 66.78125 38.5 66.78125 
z
" id="URW_Palladio_L_Roman-79"/>
      </defs>
      <use transform="scale(0.996264)" xlink:href="#URW_Palladio_L_Roman-79"/>
      <use transform="translate(78.306281 0)scale(0.996264)" xlink:href="#URW_Palladio_L_Roman-117"/>
      <use transform="translate(138.380016 0)scale(0.996264)" xlink:href="#URW_Palladio_L_Roman-116"/>
      <use transform="translate(170.857104 0)scale(0.996264)" xlink:href="#URW_Palladio_L_Roman-112"/>
      <use transform="translate(230.731498 0)scale(0.996264)" xlink:href="#URW_Palladio_L_Roman-117"/>
      <use transform="translate(290.805232 0)scale(0.996264)" xlink:href="#URW_Palladio_L_Roman-116"/>
     </g>
    </g>
   </g>
   <g id="line2d_31">
    <path clip-path="url(#p876eb07425)" d="M 23.12516 259.156364 
L 34.032301 259.156364 
L 34.032301 259.156364 
L 44.939442 259.156364 
L 44.939442 259.156364 
L 55.846583 259.156364 
L 55.846583 259.156364 
L 66.753724 259.156364 
L 66.753724 259.156364 
L 77.660865 259.156364 
L 77.660865 266.842582 
L 88.568006 266.842582 
L 88.568006 274.528801 
L 99.475147 274.528801 
L 99.475147 282.21502 
L 110.382288 282.21502 
L 110.382288 289.901238 
L 121.289429 289.901238 
L 121.289429 297.587457 
L 132.19657 297.587457 
L 132.19657 305.273675 
L 143.103711 305.273675 
L 143.103711 312.959894 
L 154.010852 312.959894 
L 154.010852 320.646112 
L 164.917993 320.646112 
L 164.917993 328.332331 
L 175.825134 328.332331 
L 175.825134 336.018549 
L 186.732275 336.018549 
L 186.732275 189.980397 
L 197.639416 189.980397 
L 197.639416 197.666616 
L 208.546557 197.666616 
L 208.546557 205.352834 
L 219.453698 205.352834 
L 219.453698 213.039053 
L 230.360839 213.039053 
L 230.360839 220.725271 
L 241.26798 220.725271 
L 241.26798 228.41149 
L 252.175121 228.41149 
L 252.175121 236.097708 
L 263.082262 236.097708 
L 263.082262 243.783927 
L 273.989403 243.783927 
L 273.989403 251.470145 
L 284.896544 251.470145 
L 284.896544 259.156364 
L 295.803685 259.156364 
L 295.803685 266.842582 
L 306.710826 266.842582 
L 306.710826 274.528801 
L 317.617967 274.528801 
L 317.617967 282.21502 
L 328.525108 282.21502 
L 328.525108 289.901238 
L 339.432249 289.901238 
L 339.432249 297.587457 
L 350.33939 297.587457 
L 350.33939 305.273675 
L 361.246531 305.273675 
L 361.246531 312.959894 
L 372.153672 312.959894 
L 372.153672 320.646112 
L 383.060813 320.646112 
L 383.060813 328.332331 
L 393.967954 328.332331 
L 393.967954 336.018549 
L 404.875095 336.018549 
L 404.875095 189.980397 
L 415.782236 189.980397 
L 415.782236 197.666616 
L 426.689377 197.666616 
L 426.689377 205.352834 
L 437.596518 205.352834 
L 437.596518 213.039053 
L 448.503659 213.039053 
L 448.503659 220.725271 
L 459.4108 220.725271 
L 459.4108 228.41149 
L 470.317941 228.41149 
L 470.317941 236.097708 
L 481.225082 236.097708 
L 481.225082 243.783927 
L 492.132223 243.783927 
L 492.132223 251.470145 
L 503.039364 251.470145 
L 503.039364 259.156364 
L 513.946505 259.156364 
L 513.946505 266.842582 
L 524.853646 266.842582 
L 524.853646 274.528801 
L 535.760787 274.528801 
L 535.760787 282.21502 
L 546.667928 282.21502 
L 546.667928 289.901238 
L 557.575069 289.901238 
L 557.575069 297.587457 
" style="fill:none;stroke:#6e3b87;stroke-linecap:square;stroke-width:3;"/>
    <defs>
     <path d="M 0 2.5 
C 0.663008 2.5 1.29895 2.236584 1.767767 1.767767 
C 2.236584 1.29895 2.5 0.663008 2.5 0 
C 2.5 -0.663008 2.236584 -1.29895 1.767767 -1.767767 
C 1.29895 -2.236584 0.663008 -2.5 0 -2.5 
C -0.663008 -2.5 -1.29895 -2.236584 -1.767767 -1.767767 
C -2.236584 -1.29895 -2.5 -0.663008 -2.5 0 
C -2.5 0.663008 -2.236584 1.29895 -1.767767 1.767767 
C -1.29895 2.236584 -0.663008 2.5 0 2.5 
z
" id="m5126f9db82"/>
    </defs>
    <g clip-path="url(#p876eb07425)">
     <use style="fill:#6e3b87;" x="23.12516" xlink:href="#m5126f9db82" y="259.156364"/>
     <use style="fill:#6e3b87;" x="34.032301" xlink:href="#m5126f9db82" y="259.156364"/>
     <use style="fill:#6e3b87;" x="44.939442" xlink:href="#m5126f9db82" y="259.156364"/>
     <use style="fill:#6e3b87;" x="55.846583" xlink:href="#m5126f9db82" y="259.156364"/>
     <use style="fill:#6e3b87;" x="66.753724" xlink:href="#m5126f9db82" y="259.156364"/>
     <use style="fill:#6e3b87;" x="77.660865" xlink:href="#m5126f9db82" y="266.842582"/>
     <use style="fill:#6e3b87;" x="88.568006" xlink:href="#m5126f9db82" y="274.528801"/>
     <use style="fill:#6e3b87;" x="99.475147" xlink:href="#m5126f9db82" y="282.21502"/>
     <use style="fill:#6e3b87;" x="110.382288" xlink:href="#m5126f9db82" y="289.901238"/>
     <use style="fill:#6e3b87;" x="121.289429" xlink:href="#m5126f9db82" y="297.587457"/>
     <use style="fill:#6e3b87;" x="132.19657" xlink:href="#m5126f9db82" y="305.273675"/>
     <use style="fill:#6e3b87;" x="143.103711" xlink:href="#m5126f9db82" y="312.959894"/>
     <use style="fill:#6e3b87;" x="154.010852" xlink:href="#m5126f9db82" y="320.646112"/>
     <use style="fill:#6e3b87;" x="164.917993" xlink:href="#m5126f9db82" y="328.332331"/>
     <use style="fill:#6e3b87;" x="175.825134" xlink:href="#m5126f9db82" y="336.018549"/>
     <use style="fill:#6e3b87;" x="186.732275" xlink:href="#m5126f9db82" y="189.980397"/>
     <use style="fill:#6e3b87;" x="197.639416" xlink:href="#m5126f9db82" y="197.666616"/>
     <use style="fill:#6e3b87;" x="208.546557" xlink:href="#m5126f9db82" y="205.352834"/>
     <use style="fill:#6e3b87;" x="219.453698" xlink:href="#m5126f9db82" y="213.039053"/>
     <use style="fill:#6e3b87;" x="230.360839" xlink:href="#m5126f9db82" y="220.725271"/>
     <use style="fill:#6e3b87;" x="241.26798" xlink:href="#m5126f9db82" y="228.41149"/>
     <use style="fill:#6e3b87;" x="252.175121" xlink:href="#m5126f9db82" y="236.097708"/>
     <use style="fill:#6e3b87;" x="263.082262" xlink:href="#m5126f9db82" y="243.783927"/>
     <use style="fill:#6e3b87;" x="273.989403" xlink:href="#m5126f9db82" y="251.470145"/>
     <use style="fill:#6e3b87;" x="284.896544" xlink:href="#m5126f9db82" y="259.156364"/>
     <use style="fill:#6e3b87;" x="295.803685" xlink:href="#m5126f9db82" y="266.842582"/>
     <use style="fill:#6e3b87;" x="306.710826" xlink:href="#m5126f9db82" y="274.528801"/>
     <use style="fill:#6e3b87;" x="317.617967" xlink:href="#m5126f9db82" y="282.21502"/>
     <use style="fill:#6e3b87;" x="328.525108" xlink:href="#m5126f9db82" y="289.901238"/>
     <use style="fill:#6e3b87;" x="339.432249" xlink:href="#m5126f9db82" y="297.587457"/>
     <use style="fill:#6e3b87;" x="350.33939" xlink:href="#m5126f9db82" y="305.273675"/>
     <use style="fill:#6e3b87;" x="361.246531" xlink:href="#m5126f9db82" y="312.959894"/>
     <use style="fill:#6e3b87;" x="372.153672" xlink:href="#m5126f9db82" y="320.646112"/>
     <use style="fill:#6e3b87;" x="383.060813" xlink:href="#m5126f9db82" y="328.332331"/>
     <use style="fill:#6e3b87;" x="393.967954" xlink:href="#m5126f9db82" y="336.018549"/>
     <use style="fill:#6e3b87;" x="404.875095" xlink:href="#m5126f9db82" y="189.980397"/>
     <use style="fill:#6e3b87;" x="415.782236" xlink:href="#m5126f9db82" y="197.666616"/>
     <use style="fill:#6e3b87;" x="426.689377" xlink:href="#m5126f9db82" y="205.352834"/>
     <use style="fill:#6e3b87;" x="437.596518" xlink:href="#m5126f9db82" y="213.039053"/>
     <use style="fill:#6e3b87;" x="448.503659" xlink:href="#m5126f9db82" y="220.725271"/>
     <use style="fill:#6e3b87;" x="459.4108" xlink:href="#m5126f9db82" y="228.41149"/>
     <use style="fill:#6e3b87;" x="470.317941" xlink:href="#m5126f9db82" y="236.097708"/>
     <use style="fill:#6e3b87;" x="481.225082" xlink:href="#m5126f9db82" y="243.783927"/>
     <use style="fill:#6e3b87;" x="492.132223" xlink:href="#m5126f9db82" y="251.470145"/>
     <use style="fill:#6e3b87;" x="503.039364" xlink:href="#m5126f9db82" y="259.156364"/>
     <use style="fill:#6e3b87;" x="513.946505" xlink:href="#m5126f9db82" y="266.842582"/>
     <use style="fill:#6e3b87;" x="524.853646" xlink:href="#m5126f9db82" y="274.528801"/>
     <use style="fill:#6e3b87;" x="535.760787" xlink:href="#m5126f9db82" y="282.21502"/>
     <use style="fill:#6e3b87;" x="546.667928" xlink:href="#m5126f9db82" y="289.901238"/>
     <use style="fill:#6e3b87;" x="557.575069" xlink:href="#m5126f9db82" y="297.587457"/>
    </g>
   </g>
   <g id="line2d_32">
    <path clip-path="url(#p876eb07425)" d="M 23.12516 305.273675 
L 34.032301 305.273675 
L 34.032301 312.959894 
L 44.939442 312.959894 
L 44.939442 320.646112 
L 55.846583 320.646112 
L 55.846583 328.332331 
L 66.753724 328.332331 
L 66.753724 336.018549 
L 77.660865 336.018549 
L 77.660865 189.980397 
L 88.568006 189.980397 
L 88.568006 197.666616 
L 99.475147 197.666616 
L 99.475147 205.352834 
L 110.382288 205.352834 
L 110.382288 213.039053 
L 121.289429 213.039053 
L 121.289429 220.725271 
L 132.19657 220.725271 
L 132.19657 228.41149 
L 143.103711 228.41149 
L 143.103711 236.097708 
L 154.010852 236.097708 
L 154.010852 243.783927 
L 164.917993 243.783927 
L 164.917993 251.470145 
L 175.825134 251.470145 
L 175.825134 259.156364 
L 186.732275 259.156364 
L 186.732275 266.842582 
L 197.639416 266.842582 
L 197.639416 274.528801 
L 208.546557 274.528801 
L 208.546557 282.21502 
L 219.453698 282.21502 
L 219.453698 289.901238 
L 230.360839 289.901238 
L 230.360839 297.587457 
L 241.26798 297.587457 
L 241.26798 305.273675 
L 252.175121 305.273675 
L 252.175121 312.959894 
L 263.082262 312.959894 
L 263.082262 320.646112 
L 273.989403 320.646112 
L 273.989403 328.332331 
L 284.896544 328.332331 
L 284.896544 336.018549 
L 295.803685 336.018549 
L 295.803685 189.980397 
L 306.710826 189.980397 
L 306.710826 197.666616 
L 317.617967 197.666616 
L 317.617967 205.352834 
L 328.525108 205.352834 
L 328.525108 213.039053 
L 339.432249 213.039053 
L 339.432249 220.725271 
L 350.33939 220.725271 
L 350.33939 228.41149 
L 361.246531 228.41149 
L 361.246531 236.097708 
L 372.153672 236.097708 
L 372.153672 243.783927 
L 383.060813 243.783927 
L 383.060813 251.470145 
L 393.967954 251.470145 
L 393.967954 259.156364 
L 404.875095 259.156364 
L 404.875095 266.842582 
L 415.782236 266.842582 
L 415.782236 274.528801 
L 426.689377 274.528801 
L 426.689377 282.21502 
L 437.596518 282.21502 
L 437.596518 289.901238 
L 448.503659 289.901238 
L 448.503659 297.587457 
L 459.4108 297.587457 
L 459.4108 305.273675 
L 470.317941 305.273675 
L 470.317941 312.959894 
L 481.225082 312.959894 
L 481.225082 320.646112 
L 492.132223 320.646112 
L 492.132223 328.332331 
L 503.039364 328.332331 
L 503.039364 336.018549 
L 513.946505 336.018549 
L 513.946505 259.156364 
L 524.853646 259.156364 
L 524.853646 259.156364 
L 535.760787 259.156364 
L 535.760787 259.156364 
L 546.667928 259.156364 
L 546.667928 259.156364 
L 557.575069 259.156364 
L 557.575069 259.156364 
" style="fill:none;stroke:#ffc438;stroke-linecap:square;stroke-opacity:0.7;stroke-width:3;"/>
    <defs>
     <path d="M 0 2.5 
C 0.663008 2.5 1.29895 2.236584 1.767767 1.767767 
C 2.236584 1.29895 2.5 0.663008 2.5 0 
C 2.5 -0.663008 2.236584 -1.29895 1.767767 -1.767767 
C 1.29895 -2.236584 0.663008 -2.5 0 -2.5 
C -0.663008 -2.5 -1.29895 -2.236584 -1.767767 -1.767767 
C -2.236584 -1.29895 -2.5 -0.663008 -2.5 0 
C -2.5 0.663008 -2.236584 1.29895 -1.767767 1.767767 
C -1.29895 2.236584 -0.663008 2.5 0 2.5 
z
" id="mfcd520288d"/>
    </defs>
    <g clip-path="url(#p876eb07425)">
     <use style="fill:#ffc438;fill-opacity:0.7;" x="23.12516" xlink:href="#mfcd520288d" y="305.273675"/>
     <use style="fill:#ffc438;fill-opacity:0.7;" x="34.032301" xlink:href="#mfcd520288d" y="312.959894"/>
     <use style="fill:#ffc438;fill-opacity:0.7;" x="44.939442" xlink:href="#mfcd520288d" y="320.646112"/>
     <use style="fill:#ffc438;fill-opacity:0.7;" x="55.846583" xlink:href="#mfcd520288d" y="328.332331"/>
     <use style="fill:#ffc438;fill-opacity:0.7;" x="66.753724" xlink:href="#mfcd520288d" y="336.018549"/>
     <use style="fill:#ffc438;fill-opacity:0.7;" x="77.660865" xlink:href="#mfcd520288d" y="189.980397"/>
     <use style="fill:#ffc438;fill-opacity:0.7;" x="88.568006" xlink:href="#mfcd520288d" y="197.666616"/>
     <use style="fill:#ffc438;fill-opacity:0.7;" x="99.475147" xlink:href="#mfcd520288d" y="205.352834"/>
     <use style="fill:#ffc438;fill-opacity:0.7;" x="110.382288" xlink:href="#mfcd520288d" y="213.039053"/>
     <use style="fill:#ffc438;fill-opacity:0.7;" x="121.289429" xlink:href="#mfcd520288d" y="220.725271"/>
     <use style="fill:#ffc438;fill-opacity:0.7;" x="132.19657" xlink:href="#mfcd520288d" y="228.41149"/>
     <use style="fill:#ffc438;fill-opacity:0.7;" x="143.103711" xlink:href="#mfcd520288d" y="236.097708"/>
     <use style="fill:#ffc438;fill-opacity:0.7;" x="154.010852" xlink:href="#mfcd520288d" y="243.783927"/>
     <use style="fill:#ffc438;fill-opacity:0.7;" x="164.917993" xlink:href="#mfcd520288d" y="251.470145"/>
     <use style="fill:#ffc438;fill-opacity:0.7;" x="175.825134" xlink:href="#mfcd520288d" y="259.156364"/>
     <use style="fill:#ffc438;fill-opacity:0.7;" x="186.732275" xlink:href="#mfcd520288d" y="266.842582"/>
     <use style="fill:#ffc438;fill-opacity:0.7;" x="197.639416" xlink:href="#mfcd520288d" y="274.528801"/>
     <use style="fill:#ffc438;fill-opacity:0.7;" x="208.546557" xlink:href="#mfcd520288d" y="282.21502"/>
     <use style="fill:#ffc438;fill-opacity:0.7;" x="219.453698" xlink:href="#mfcd520288d" y="289.901238"/>
     <use style="fill:#ffc438;fill-opacity:0.7;" x="230.360839" xlink:href="#mfcd520288d" y="297.587457"/>
     <use style="fill:#ffc438;fill-opacity:0.7;" x="241.26798" xlink:href="#mfcd520288d" y="305.273675"/>
     <use style="fill:#ffc438;fill-opacity:0.7;" x="252.175121" xlink:href="#mfcd520288d" y="312.959894"/>
     <use style="fill:#ffc438;fill-opacity:0.7;" x="263.082262" xlink:href="#mfcd520288d" y="320.646112"/>
     <use style="fill:#ffc438;fill-opacity:0.7;" x="273.989403" xlink:href="#mfcd520288d" y="328.332331"/>
     <use style="fill:#ffc438;fill-opacity:0.7;" x="284.896544" xlink:href="#mfcd520288d" y="336.018549"/>
     <use style="fill:#ffc438;fill-opacity:0.7;" x="295.803685" xlink:href="#mfcd520288d" y="189.980397"/>
     <use style="fill:#ffc438;fill-opacity:0.7;" x="306.710826" xlink:href="#mfcd520288d" y="197.666616"/>
     <use style="fill:#ffc438;fill-opacity:0.7;" x="317.617967" xlink:href="#mfcd520288d" y="205.352834"/>
     <use style="fill:#ffc438;fill-opacity:0.7;" x="328.525108" xlink:href="#mfcd520288d" y="213.039053"/>
     <use style="fill:#ffc438;fill-opacity:0.7;" x="339.432249" xlink:href="#mfcd520288d" y="220.725271"/>
     <use style="fill:#ffc438;fill-opacity:0.7;" x="350.33939" xlink:href="#mfcd520288d" y="228.41149"/>
     <use style="fill:#ffc438;fill-opacity:0.7;" x="361.246531" xlink:href="#mfcd520288d" y="236.097708"/>
     <use style="fill:#ffc438;fill-opacity:0.7;" x="372.153672" xlink:href="#mfcd520288d" y="243.783927"/>
     <use style="fill:#ffc438;fill-opacity:0.7;" x="383.060813" xlink:href="#mfcd520288d" y="251.470145"/>
     <use style="fill:#ffc438;fill-opacity:0.7;" x="393.967954" xlink:href="#mfcd520288d" y="259.156364"/>
     <use style="fill:#ffc438;fill-opacity:0.7;" x="404.875095" xlink:href="#mfcd520288d" y="266.842582"/>
     <use style="fill:#ffc438;fill-opacity:0.7;" x="415.782236" xlink:href="#mfcd520288d" y="274.528801"/>
     <use style="fill:#ffc438;fill-opacity:0.7;" x="426.689377" xlink:href="#mfcd520288d" y="282.21502"/>
     <use style="fill:#ffc438;fill-opacity:0.7;" x="437.596518" xlink:href="#mfcd520288d" y="289.901238"/>
     <use style="fill:#ffc438;fill-opacity:0.7;" x="448.503659" xlink:href="#mfcd520288d" y="297.587457"/>
     <use style="fill:#ffc438;fill-opacity:0.7;" x="459.4108" xlink:href="#mfcd520288d" y="305.273675"/>
     <use style="fill:#ffc438;fill-opacity:0.7;" x="470.317941" xlink:href="#mfcd520288d" y="312.959894"/>
     <use style="fill:#ffc438;fill-opacity:0.7;" x="481.225082" xlink:href="#mfcd520288d" y="320.646112"/>
     <use style="fill:#ffc438;fill-opacity:0.7;" x="492.132223" xlink:href="#mfcd520288d" y="328.332331"/>
     <use style="fill:#ffc438;fill-opacity:0.7;" x="503.039364" xlink:href="#mfcd520288d" y="336.018549"/>
     <use style="fill:#ffc438;fill-opacity:0.7;" x="513.946505" xlink:href="#mfcd520288d" y="259.156364"/>
     <use style="fill:#ffc438;fill-opacity:0.7;" x="524.853646" xlink:href="#mfcd520288d" y="259.156364"/>
     <use style="fill:#ffc438;fill-opacity:0.7;" x="535.760787" xlink:href="#mfcd520288d" y="259.156364"/>
     <use style="fill:#ffc438;fill-opacity:0.7;" x="546.667928" xlink:href="#mfcd520288d" y="259.156364"/>
     <use style="fill:#ffc438;fill-opacity:0.7;" x="557.575069" xlink:href="#mfcd520288d" y="259.156364"/>
    </g>
   </g>
   <g id="legend_2">
    <g id="patch_5">
     <path d="M 236.140705 332.861659 
L 558.68221 332.861659 
Q 561.48221 332.861659 561.48221 330.061659 
L 561.48221 309.890674 
Q 561.48221 307.090674 558.68221 307.090674 
L 236.140705 307.090674 
Q 233.340705 307.090674 233.340705 309.890674 
L 233.340705 330.061659 
Q 233.340705 332.861659 236.140705 332.861659 
z
" style="fill:#ffffff;opacity:0.95;stroke:#cccccc;stroke-linejoin:miter;stroke-width:0.5;"/>
    </g>
    <g id="line2d_33">
     <path d="M 238.940705 318.428486 
L 252.940705 318.428486 
" style="fill:none;stroke:#6e3b87;stroke-linecap:square;stroke-width:3;"/>
    </g>
    <g id="line2d_34">
     <g>
      <use style="fill:#6e3b87;" x="245.940705" xlink:href="#m5126f9db82" y="318.428486"/>
     </g>
    </g>
    <g id="text_12">
     <!-- $y = \Delta_5*\mathrm{reverse}(x)$ -->
     <g transform="translate(264.140705 323.328486)scale(0.14 -0.14)">
      <defs>
       <path d="M -0.703125 -17.546875 
C -0.796875 -18.234375 -0.796875 -18.828125 -0.796875 -19.328125 
C -0.796875 -23.5625 2.90625 -27 7.40625 -27 
C 18 -27 29 -14.734375 34.90625 3.5625 
L 49 47.09375 
L 47.90625 48 
C 45 46.90625 42.703125 46.296875 40.5 46.109375 
L 37 32.984375 
C 35.796875 28.3125 32.296875 21.0625 29 16.1875 
C 25.5 11.109375 20.59375 6.75 18.40625 6.75 
C 17.203125 6.75 16.296875 9.046875 16.40625 11.515625 
L 16.5 12.8125 
L 18 32.09375 
C 18.203125 35.1875 18.40625 38.953125 18.40625 41.734375 
C 18.40625 46.203125 17.703125 48 16 48 
C 14.703125 48 13.296875 47.296875 8.5 44.015625 
L 0.296875 38.453125 
L 1.40625 36.671875 
L 6.40625 39.640625 
L 6.796875 39.953125 
C 7.796875 40.546875 8.5 40.84375 8.90625 40.84375 
C 10.296875 40.84375 11.09375 38.953125 11.09375 35.6875 
C 11.09375 35.578125 11.09375 34.984375 11 34.1875 
L 9.296875 10.03125 
L 9.203125 6.046875 
C 9.203125 1.890625 11 -1 13.5 -1 
C 17.203125 -1 25.59375 7.453125 33.09375 18.671875 
L 28.203125 1.8125 
C 23.09375 -15.625 18.09375 -22.8125 11.09375 -22.8125 
C 7.59375 -22.8125 4.90625 -20.171875 4.90625 -16.75 
C 4.90625 -16.25 5 -15.46875 5.09375 -14.59375 
L 4.09375 -14.1875 
z
" id="URW_Palladio_L_Italic-121"/>
       <path d="M 68.703125 32 
C 70.203125 32 72.09375 32 72.09375 34.015625 
C 72.09375 36.015625 70.203125 36.015625 68.796875 36.015625 
L 8.90625 36.015625 
C 7.5 36.015625 5.59375 36.015625 5.59375 34.015625 
C 5.59375 32 7.5 32 9 32 
z
M 68.796875 13 
C 70.203125 13 72.09375 13 72.09375 15.015625 
C 72.09375 17.015625 70.203125 17.015625 68.703125 17.015625 
L 9 17.015625 
C 7.5 17.015625 5.59375 17.015625 5.59375 15.015625 
C 5.59375 13 7.5 13 8.90625 13 
z
" id="CMR10-61"/>
       <path d="M 2.296875 40.078125 
L 6 40.078125 
C 10 40.078125 10.40625 39.375 10.40625 32.71875 
L 10.40625 10.046875 
C 10.40625 3.703125 10.09375 3 6.703125 3 
L 2.09375 3 
L 2.09375 -0.109375 
C 9.296875 -0.109375 11.90625 -0.109375 14.40625 -0.109375 
C 16.40625 -0.109375 16.40625 -0.109375 28.703125 -0.109375 
L 28.703125 3 
L 23.5 3 
C 19 3 18.796875 3.296875 18.796875 9.96875 
L 18.796875 27.359375 
C 18.796875 33.421875 22.796875 38.484375 27.703125 38.484375 
C 30.703125 38.484375 32.796875 37.078125 34.40625 33.890625 
L 36.5 33.890625 
L 37.40625 45.890625 
C 36.296875 46.59375 34.5 47 32.703125 47 
C 29.703125 47 26.5 45.390625 24.40625 42.890625 
L 18.796875 36.28125 
L 18.796875 46.59375 
L 17.90625 47 
C 12.796875 44.890625 7.59375 43.484375 2.296875 42.890625 
z
" id="URW_Palladio_L_Roman-114"/>
       <path d="M 53.90625 43 
L 53.90625 45.8125 
C 47.90625 45.8125 46.09375 45.8125 44.5 45.8125 
C 42.90625 45.8125 41.09375 45.8125 35.09375 45.8125 
L 35.09375 43 
L 39.203125 43 
C 40.796875 43 41.59375 42.09375 41.59375 40.484375 
C 41.59375 38.890625 40.90625 36.203125 39.703125 33.1875 
L 35.5 22.578125 
C 34.296875 19.671875 33.09375 16.875 29.296875 8.578125 
L 17.40625 37.390625 
C 16.796875 38.78125 16.5 40.09375 16.5 41.1875 
C 16.5 42.296875 17.40625 43 19 43 
L 23.90625 43 
L 23.90625 45.8125 
C 14.09375 45.8125 14.09375 45.8125 12.203125 45.8125 
C 10.296875 45.8125 5.5 45.8125 0.59375 45.8125 
L 0.59375 43 
L 4 43 
C 5.5 42.796875 6 42.203125 7.09375 39.703125 
L 24.296875 -0.5 
L 29.296875 -0.5 
C 29.90625 1.203125 30.90625 3.796875 30.90625 4 
C 32 6.984375 33.296875 10.375 33.40625 10.375 
L 45.203125 36.3125 
C 47.40625 41.015625 48.796875 42.796875 50.796875 43 
z
" id="URW_Palladio_L_Roman-118"/>
       <path d="M 33.09375 -24 
C 33.09375 -23.703125 33.09375 -23.5 31.40625 -21.796875 
C 18.90625 -9.125 15.703125 9.875 15.703125 25.25 
C 15.703125 42.734375 19.5 60.234375 31.796875 72.78125 
C 33.09375 73.984375 33.09375 74.1875 33.09375 74.484375 
C 33.09375 75.1875 32.703125 75.5 32.09375 75.5 
C 31.09375 75.5 22.09375 68.671875 16.203125 55.890625 
C 11.09375 44.84375 9.90625 33.6875 9.90625 25.25 
C 9.90625 17.40625 11 5.25 16.5 -6.109375 
C 22.5 -18.46875 31.09375 -25 32.09375 -25 
C 32.703125 -25 33.09375 -24.703125 33.09375 -24 
z
" id="CMR10-40"/>
       <path d="M 28.90625 25.25 
C 28.90625 33.09375 27.796875 45.25 22.296875 56.59375 
C 16.296875 68.96875 7.703125 75.5 6.703125 75.5 
C 6.09375 75.5 5.703125 75.09375 5.703125 74.484375 
C 5.703125 74.1875 5.703125 73.984375 7.59375 72.1875 
C 17.40625 62.234375 23.09375 46.25 23.09375 25.25 
C 23.09375 8.0625 19.40625 -9.640625 7 -22.296875 
C 5.703125 -23.5 5.703125 -23.703125 5.703125 -24 
C 5.703125 -24.609375 6.09375 -25 6.703125 -25 
C 7.703125 -25 16.703125 -18.171875 22.59375 -5.40625 
C 27.703125 5.65625 28.90625 16.796875 28.90625 25.25 
z
" id="CMR10-41"/>
      </defs>
      <use transform="scale(0.996264)" xlink:href="#URW_Palladio_L_Italic-121"/>
      <use transform="translate(79.977748 0)scale(1.038107)" xlink:href="#CMR10-61"/>
      <use transform="translate(190.838676 0)scale(0.996264)" xlink:href="#Pazo_Math-68"/>
      <use transform="translate(259.430456 -17.441431)scale(0.757155)" xlink:href="#URW_Palladio_L_Roman-53"/>
      <use transform="translate(318.403399 0)scale(1.038107)" xlink:href="#CMSY10-3"/>
      <use transform="translate(390.92487 0)scale(0.996264)" xlink:href="#URW_Palladio_L_Roman-114"/>
      <use transform="translate(428.484188 0)scale(0.996264)" xlink:href="#URW_Palladio_L_Roman-101"/>
      <use transform="translate(476.204483 0)scale(0.996264)" xlink:href="#URW_Palladio_L_Roman-118"/>
      <use transform="translate(532.492396 0)scale(0.996264)" xlink:href="#URW_Palladio_L_Roman-101"/>
      <use transform="translate(580.212691 0)scale(0.996264)" xlink:href="#URW_Palladio_L_Roman-114"/>
      <use transform="translate(619.564588 0)scale(0.996264)" xlink:href="#URW_Palladio_L_Roman-115"/>
      <use transform="translate(661.806054 0)scale(0.996264)" xlink:href="#URW_Palladio_L_Roman-101"/>
      <use transform="translate(710.771649 0)scale(1.038107)" xlink:href="#CMR10-40"/>
      <use transform="translate(755.205029 0)scale(0.996264)" xlink:href="#URW_Palladio_L_Italic-120"/>
      <use transform="translate(808.504166 0)scale(1.038107)" xlink:href="#CMR10-41"/>
     </g>
    </g>
    <g id="line2d_35">
     <path d="M 411.411458 318.428486 
L 425.411458 318.428486 
" style="fill:none;stroke:#ffc438;stroke-linecap:square;stroke-opacity:0.7;stroke-width:3;"/>
    </g>
    <g id="line2d_36">
     <g>
      <use style="fill:#ffc438;fill-opacity:0.7;" x="418.411458" xlink:href="#mfcd520288d" y="318.428486"/>
     </g>
    </g>
    <g id="text_13">
     <!-- $y = \mathrm{reverse}(\Delta_5*x)$ -->
     <g transform="translate(436.611458 323.328486)scale(0.14 -0.14)">
      <use transform="scale(0.996264)" xlink:href="#URW_Palladio_L_Italic-121"/>
      <use transform="translate(79.977748 0)scale(1.038107)" xlink:href="#CMR10-61"/>
      <use transform="translate(189.593377 0)scale(0.996264)" xlink:href="#URW_Palladio_L_Roman-114"/>
      <use transform="translate(227.152694 0)scale(0.996264)" xlink:href="#URW_Palladio_L_Roman-101"/>
      <use transform="translate(274.872989 0)scale(0.996264)" xlink:href="#URW_Palladio_L_Roman-118"/>
      <use transform="translate(331.160902 0)scale(0.996264)" xlink:href="#URW_Palladio_L_Roman-101"/>
      <use transform="translate(378.881197 0)scale(0.996264)" xlink:href="#URW_Palladio_L_Roman-114"/>
      <use transform="translate(418.233094 0)scale(0.996264)" xlink:href="#URW_Palladio_L_Roman-115"/>
      <use transform="translate(460.47456 0)scale(0.996264)" xlink:href="#URW_Palladio_L_Roman-101"/>
      <use transform="translate(509.440155 0)scale(1.038107)" xlink:href="#CMR10-40"/>
      <use transform="translate(552.17986 0)scale(0.996264)" xlink:href="#Pazo_Math-68"/>
      <use transform="translate(620.771639 -17.441431)scale(0.757155)" xlink:href="#URW_Palladio_L_Roman-53"/>
      <use transform="translate(679.744583 0)scale(1.038107)" xlink:href="#CMSY10-3"/>
      <use transform="translate(755.205029 0)scale(0.996264)" xlink:href="#URW_Palladio_L_Italic-120"/>
      <use transform="translate(808.504166 0)scale(1.038107)" xlink:href="#CMR10-41"/>
     </g>
    </g>
   </g>
  </g>
 </g>
 <defs>
  <clipPath id="p0683746a1a">
   <rect height="161.410589" width="545.35705" x="23.12516" y="7.2"/>
  </clipPath>
  <clipPath id="p876eb07425">
   <rect height="161.410589" width="545.35705" x="23.12516" y="178.451069"/>
  </clipPath>
 </defs>
</svg>
