<?xml version="1.0" encoding="utf-8" standalone="no"?>
<!DOCTYPE svg PUBLIC "-//W3C//DTD SVG 1.1//EN"
  "http://www.w3.org/Graphics/SVG/1.1/DTD/svg11.dtd">
<svg height="392.37836pt" version="1.1" viewBox="0 0 584.39952 392.37836" width="584.39952pt" xmlns="http://www.w3.org/2000/svg" xmlns:xlink="http://www.w3.org/1999/xlink">
 <metadata>
  <rdf:RDF xmlns:cc="http://creativecommons.org/ns#" xmlns:dc="http://purl.org/dc/elements/1.1/" xmlns:rdf="http://www.w3.org/1999/02/22-rdf-syntax-ns#">
   <cc:Work>
    <dc:type rdf:resource="http://purl.org/dc/dcmitype/StillImage"/>
    <dc:date>2020-07-15T07:47:16.757668</dc:date>
    <dc:format>image/svg+xml</dc:format>
    <dc:creator>
     <cc:Agent>
      <dc:title>Matplotlib v3.3.0rc1.post282+g187e87b5f, https://matplotlib.org/</dc:title>
     </cc:Agent>
    </dc:creator>
   </cc:Work>
  </rdf:RDF>
 </metadata>
 <defs>
  <style type="text/css">*{stroke-linecap:butt;stroke-linejoin:round;}</style>
 </defs>
 <g id="figure_1">
  <g id="patch_1">
   <path d="M 0 392.37836 
L 584.39952 392.37836 
L 584.39952 0 
L 0 0 
z
" style="fill:none;"/>
  </g>
  <g id="axes_1">
   <g id="patch_2">
    <path d="M 67.531623 165.993031 
L 568.48221 165.993031 
L 568.48221 8.438465 
L 67.531623 8.438465 
z
" style="fill:none;"/>
   </g>
   <g id="matplotlib.axis_1">
    <g id="xtick_1">
     <g id="line2d_1">
      <path clip-path="url(#p3ddaf556ce)" d="M 67.531623 165.993031 
L 67.531623 8.438465 
" style="fill:none;stroke:#000000;stroke-linecap:square;stroke-opacity:0.2;stroke-width:0.5;"/>
     </g>
     <g id="line2d_2">
      <defs>
       <path d="M 0 0 
L 0 3.5 
" id="mda7a380991" style="stroke:#000000;stroke-opacity:0.2;stroke-width:0.8;"/>
      </defs>
      <g>
       <use style="fill-opacity:0.2;stroke:#000000;stroke-opacity:0.2;stroke-width:0.8;" x="67.531623" xlink:href="#mda7a380991" y="165.993031"/>
      </g>
     </g>
    </g>
    <g id="xtick_2">
     <g id="line2d_3">
      <path clip-path="url(#p3ddaf556ce)" d="M 167.72174 165.993031 
L 167.72174 8.438465 
" style="fill:none;stroke:#000000;stroke-linecap:square;stroke-opacity:0.2;stroke-width:0.5;"/>
     </g>
     <g id="line2d_4">
      <g>
       <use style="fill-opacity:0.2;stroke:#000000;stroke-opacity:0.2;stroke-width:0.8;" x="167.72174" xlink:href="#mda7a380991" y="165.993031"/>
      </g>
     </g>
    </g>
    <g id="xtick_3">
     <g id="line2d_5">
      <path clip-path="url(#p3ddaf556ce)" d="M 267.911858 165.993031 
L 267.911858 8.438465 
" style="fill:none;stroke:#000000;stroke-linecap:square;stroke-opacity:0.2;stroke-width:0.5;"/>
     </g>
     <g id="line2d_6">
      <g>
       <use style="fill-opacity:0.2;stroke:#000000;stroke-opacity:0.2;stroke-width:0.8;" x="267.911858" xlink:href="#mda7a380991" y="165.993031"/>
      </g>
     </g>
    </g>
    <g id="xtick_4">
     <g id="line2d_7">
      <path clip-path="url(#p3ddaf556ce)" d="M 368.101975 165.993031 
L 368.101975 8.438465 
" style="fill:none;stroke:#000000;stroke-linecap:square;stroke-opacity:0.2;stroke-width:0.5;"/>
     </g>
     <g id="line2d_8">
      <g>
       <use style="fill-opacity:0.2;stroke:#000000;stroke-opacity:0.2;stroke-width:0.8;" x="368.101975" xlink:href="#mda7a380991" y="165.993031"/>
      </g>
     </g>
    </g>
    <g id="xtick_5">
     <g id="line2d_9">
      <path clip-path="url(#p3ddaf556ce)" d="M 468.292092 165.993031 
L 468.292092 8.438465 
" style="fill:none;stroke:#000000;stroke-linecap:square;stroke-opacity:0.2;stroke-width:0.5;"/>
     </g>
     <g id="line2d_10">
      <g>
       <use style="fill-opacity:0.2;stroke:#000000;stroke-opacity:0.2;stroke-width:0.8;" x="468.292092" xlink:href="#mda7a380991" y="165.993031"/>
      </g>
     </g>
    </g>
    <g id="xtick_6">
     <g id="line2d_11">
      <path clip-path="url(#p3ddaf556ce)" d="M 568.48221 165.993031 
L 568.48221 8.438465 
" style="fill:none;stroke:#000000;stroke-linecap:square;stroke-opacity:0.2;stroke-width:0.5;"/>
     </g>
     <g id="line2d_12">
      <g>
       <use style="fill-opacity:0.2;stroke:#000000;stroke-opacity:0.2;stroke-width:0.8;" x="568.48221" xlink:href="#mda7a380991" y="165.993031"/>
      </g>
     </g>
    </g>
   </g>
   <g id="matplotlib.axis_2">
    <g id="ytick_1">
     <g id="line2d_13">
      <path clip-path="url(#p3ddaf556ce)" d="M 67.531623 162.241731 
L 568.48221 162.241731 
" style="fill:none;stroke:#000000;stroke-linecap:square;stroke-opacity:0.2;stroke-width:0.5;"/>
     </g>
     <g id="line2d_14">
      <defs>
       <path d="M 0 0 
L -3.5 0 
" id="me5e6d11800" style="stroke:#000000;stroke-opacity:0.2;stroke-width:0.8;"/>
      </defs>
      <g>
       <use style="fill-opacity:0.2;stroke:#000000;stroke-opacity:0.2;stroke-width:0.8;" x="67.531623" xlink:href="#me5e6d11800" y="162.241731"/>
      </g>
     </g>
     <g id="text_1">
      <!-- $\mathdefault{−1.0}$ -->
      <g transform="translate(23.12516 167.231496)scale(0.14 -0.14)">
       <defs>
        <path d="M 65.90625 23 
C 67.59375 23 69.40625 23 69.40625 25 
C 69.40625 27 67.59375 27 65.90625 27 
L 11.796875 27 
C 10.09375 27 8.296875 27 8.296875 25 
C 8.296875 23 10.09375 23 11.796875 23 
z
" id="CMSY10-0"/>
        <path d="M 6.703125 56 
L 7.703125 56 
L 20.59375 61.8125 
C 20.703125 61.90625 20.796875 61.90625 20.90625 61.90625 
C 21.5 61.90625 21.703125 61.015625 21.703125 58.609375 
L 21.703125 9.578125 
C 21.703125 4.3125 20.59375 3.203125 15.203125 3.203125 
L 9.59375 3.203125 
L 9.59375 0 
C 25 0 25 0 26.09375 0 
C 27.40625 0 29.59375 0 33 0 
C 34.203125 0 37.703125 0 41.796875 0 
L 41.796875 3.203125 
L 36.59375 3.203125 
C 31.09375 3.203125 30.09375 4.3125 30.09375 9.5625 
L 30.09375 69.421875 
L 28.703125 69.921875 
C 22.203125 66.515625 15.09375 63.515625 6 60.3125 
z
" id="URW_Palladio_L_Roman-49"/>
        <path d="M 12.40625 11.625 
C 9.40625 11.625 6.703125 8.8125 6.703125 5.8125 
C 6.703125 2.796875 9.40625 0 12.296875 0 
C 15.5 0 18.296875 2.703125 18.296875 5.8125 
C 18.296875 8.8125 15.5 11.625 12.40625 11.625 
z
" id="URW_Palladio_L_Roman-46"/>
        <path d="M 26.296875 69 
C 10.796875 69 2.90625 56.6875 2.90625 32.453125 
C 2.90625 20.71875 5 10.625 8.5 5.71875 
C 12 0.796875 17.59375 -2 23.796875 -2 
C 38.90625 -2 46.5 11.015625 46.5 36.65625 
C 46.5 58.578125 40 69 26.296875 69 
z
M 24.5 65.5 
C 34.203125 65.5 38.09375 55.6875 38.09375 31.640625 
C 38.09375 10.328125 34.296875 1.5 25.09375 1.5 
C 15.40625 1.5 11.296875 11.625 11.296875 36.0625 
C 11.296875 57.1875 15 65.5 24.5 65.5 
z
" id="URW_Palladio_L_Roman-48"/>
       </defs>
       <use transform="scale(1.038107)" xlink:href="#CMSY10-0"/>
       <use transform="translate(81.941696 0)scale(0.996264)" xlink:href="#URW_Palladio_L_Roman-49"/>
       <use transform="translate(131.754897 0)scale(0.996264)" xlink:href="#URW_Palladio_L_Roman-46"/>
       <use transform="translate(156.661497 0)scale(0.996264)" xlink:href="#URW_Palladio_L_Roman-48"/>
      </g>
     </g>
    </g>
    <g id="ytick_2">
     <g id="line2d_15">
      <path clip-path="url(#p3ddaf556ce)" d="M 67.531623 124.72874 
L 568.48221 124.72874 
" style="fill:none;stroke:#000000;stroke-linecap:square;stroke-opacity:0.2;stroke-width:0.5;"/>
     </g>
     <g id="line2d_16">
      <g>
       <use style="fill-opacity:0.2;stroke:#000000;stroke-opacity:0.2;stroke-width:0.8;" x="67.531623" xlink:href="#me5e6d11800" y="124.72874"/>
      </g>
     </g>
     <g id="text_2">
      <!-- $\mathdefault{−0.5}$ -->
      <g transform="translate(23.12516 129.718504)scale(0.14 -0.14)">
       <defs>
        <path d="M 12.703125 60.578125 
C 25.59375 60.578125 31.203125 60.578125 43.203125 60.578125 
L 43.703125 61.046875 
C 43.5 62.75 43.5 63.5 43.5 64.75 
C 43.5 66.078125 43.5 66.828125 43.703125 68.53125 
L 43.203125 69 
C 35.703125 69 31.203125 69 25.796875 69 
C 20.296875 69 15.90625 69 8.40625 69 
L 7.90625 68.796875 
C 8 62.671875 8.09375 58.265625 8.09375 55.046875 
C 8.09375 46.515625 7.796875 36.875 7.5 32.453125 
L 9.5 31.84375 
C 14.203125 36.578125 16.90625 38 21.796875 38 
C 31.40625 38 37.40625 31.140625 37.40625 20.25 
C 37.40625 9.0625 31 2.5 20.09375 2.5 
C 14.703125 2.5 9.703125 4.328125 8.296875 6.9375 
L 3.703125 15.203125 
L 1.296875 13.796875 
C 3.59375 8.0625 4.796875 4.84375 6.203125 0.421875 
C 9 -1.109375 13 -2 17.296875 -2 
C 24 -2 31.09375 0.921875 36.59375 5.75 
C 42.703125 11.1875 45.90625 18.03125 45.90625 25.46875 
C 45.90625 36.859375 37.796875 44.90625 26.40625 44.90625 
C 21.59375 44.90625 18 43.609375 11.796875 39.90625 
z
" id="URW_Palladio_L_Roman-53"/>
       </defs>
       <use transform="scale(1.038107)" xlink:href="#CMSY10-0"/>
       <use transform="translate(81.941696 0)scale(0.996264)" xlink:href="#URW_Palladio_L_Roman-48"/>
       <use transform="translate(131.754897 0)scale(0.996264)" xlink:href="#URW_Palladio_L_Roman-46"/>
       <use transform="translate(156.661497 0)scale(0.996264)" xlink:href="#URW_Palladio_L_Roman-53"/>
      </g>
     </g>
    </g>
    <g id="ytick_3">
     <g id="line2d_17">
      <path clip-path="url(#p3ddaf556ce)" d="M 67.531623 87.215748 
L 568.48221 87.215748 
" style="fill:none;stroke:#000000;stroke-linecap:square;stroke-opacity:0.2;stroke-width:0.5;"/>
     </g>
     <g id="line2d_18">
      <g>
       <use style="fill-opacity:0.2;stroke:#000000;stroke-opacity:0.2;stroke-width:0.8;" x="67.531623" xlink:href="#me5e6d11800" y="87.215748"/>
      </g>
     </g>
     <g id="text_3">
      <!-- $\mathdefault{0.0}$ -->
      <g transform="translate(34.597002 92.205513)scale(0.14 -0.14)">
       <use transform="scale(0.996264)" xlink:href="#URW_Palladio_L_Roman-48"/>
       <use transform="translate(49.8132 0)scale(0.996264)" xlink:href="#URW_Palladio_L_Roman-46"/>
       <use transform="translate(74.719801 0)scale(0.996264)" xlink:href="#URW_Palladio_L_Roman-48"/>
      </g>
     </g>
    </g>
    <g id="ytick_4">
     <g id="line2d_19">
      <path clip-path="url(#p3ddaf556ce)" d="M 67.531623 49.702756 
L 568.48221 49.702756 
" style="fill:none;stroke:#000000;stroke-linecap:square;stroke-opacity:0.2;stroke-width:0.5;"/>
     </g>
     <g id="line2d_20">
      <g>
       <use style="fill-opacity:0.2;stroke:#000000;stroke-opacity:0.2;stroke-width:0.8;" x="67.531623" xlink:href="#me5e6d11800" y="49.702756"/>
      </g>
     </g>
     <g id="text_4">
      <!-- $\mathdefault{0.5}$ -->
      <g transform="translate(34.597002 54.692521)scale(0.14 -0.14)">
       <use transform="scale(0.996264)" xlink:href="#URW_Palladio_L_Roman-48"/>
       <use transform="translate(49.8132 0)scale(0.996264)" xlink:href="#URW_Palladio_L_Roman-46"/>
       <use transform="translate(74.719801 0)scale(0.996264)" xlink:href="#URW_Palladio_L_Roman-53"/>
      </g>
     </g>
    </g>
    <g id="ytick_5">
     <g id="line2d_21">
      <path clip-path="url(#p3ddaf556ce)" d="M 67.531623 12.189765 
L 568.48221 12.189765 
" style="fill:none;stroke:#000000;stroke-linecap:square;stroke-opacity:0.2;stroke-width:0.5;"/>
     </g>
     <g id="line2d_22">
      <g>
       <use style="fill-opacity:0.2;stroke:#000000;stroke-opacity:0.2;stroke-width:0.8;" x="67.531623" xlink:href="#me5e6d11800" y="12.189765"/>
      </g>
     </g>
     <g id="text_5">
      <!-- $\mathdefault{1.0}$ -->
      <g transform="translate(34.597002 17.179529)scale(0.14 -0.14)">
       <use transform="scale(0.996264)" xlink:href="#URW_Palladio_L_Roman-49"/>
       <use transform="translate(49.8132 0)scale(0.996264)" xlink:href="#URW_Palladio_L_Roman-46"/>
       <use transform="translate(74.719801 0)scale(0.996264)" xlink:href="#URW_Palladio_L_Roman-48"/>
      </g>
     </g>
    </g>
    <g id="text_6">
     <!-- Input -->
     <g transform="translate(15.753876 101.854616)rotate(-90)scale(0.12 -0.12)">
      <defs>
       <path d="M 21.59375 57.234375 
C 21.59375 65.1875 22.09375 66 26.703125 66 
L 31.5 66 
L 31.5 69.109375 
C 24.203125 69.109375 22 69.109375 16.796875 69.109375 
C 11.796875 69.109375 9.40625 69.109375 2.203125 69.109375 
L 2.203125 66 
L 7 66 
C 11.59375 66 12.09375 65.1875 12.09375 57.234375 
L 12.09375 11.96875 
C 12.09375 4 11.59375 3.203125 7 3.203125 
L 2.203125 3.203125 
L 2.203125 0 
C 8.09375 0 11.59375 0 16.796875 0 
C 22 0 25.59375 0 31.5 0 
L 31.5 3.203125 
L 26.703125 3.203125 
C 22.09375 3.203125 21.59375 4 21.59375 11.96875 
z
" id="URW_Palladio_L_Roman-73"/>
       <path d="M 41 -0.109375 
C 47.09375 -0.109375 47.203125 -0.109375 48.90625 -0.109375 
C 50.296875 -0.109375 50.296875 -0.109375 57.203125 -0.109375 
L 57.203125 2.796875 
L 53.09375 3.203125 
C 49.703125 3.203125 49.40625 3.8125 49.40625 10.21875 
L 49.40625 29.5625 
C 49.40625 41.28125 43.90625 47 32.703125 47 
C 29 47 26.90625 46.296875 24.796875 44.484375 
L 17.203125 37.875 
L 17.203125 46.59375 
L 16.296875 47 
C 11.203125 44.890625 6 43.484375 0.703125 42.890625 
L 0.703125 40.078125 
L 4.40625 40.078125 
C 8.40625 40.078125 8.796875 39.375 8.796875 32.71875 
L 8.796875 10.046875 
C 8.796875 3.703125 8.5 3 5.09375 3 
L 0.59375 3 
L 0.59375 -0.109375 
C 7.40625 -0.109375 10.09375 -0.109375 13 -0.109375 
C 15.90625 -0.109375 18.59375 -0.109375 25.40625 -0.109375 
L 25.40625 3 
L 20.90625 3 
C 17.5 3 17.203125 3.703125 17.203125 10.046875 
L 17.203125 31.421875 
C 17.203125 35.9375 23.796875 40.875 29.90625 40.875 
C 36.59375 40.875 41 35.890625 41 28.21875 
z
" id="URW_Palladio_L_Roman-110"/>
       <path d="M 1 40.078125 
L 4.703125 40.078125 
C 8.703125 40.078125 9.09375 39.375 9.09375 32.734375 
L 9.09375 -17.84375 
C 9.09375 -24.1875 8.796875 -24.890625 5.40625 -24.890625 
L 0.796875 -24.890625 
L 0.796875 -28 
C 10.796875 -28 10.796875 -28 13.296875 -28 
C 15.796875 -28 15.796875 -28 25.796875 -28 
L 25.796875 -24.890625 
L 21.203125 -24.890625 
C 17.796875 -24.890625 17.5 -24.171875 17.5 -17.78125 
L 17.5 1.390625 
C 20.5 -0.40625 23.703125 -1.109375 28.203125 -1.109375 
C 31.09375 -1.109375 33.703125 -0.5 35.296875 0.5 
L 46.703125 7.890625 
C 50.703125 10.5 55.40625 20.78125 55.40625 27.1875 
C 55.40625 38.296875 46.203125 47 34.59375 47 
C 30.90625 47 27.296875 45.984375 25.703125 44.484375 
L 17.5 36.984375 
L 17.5 46.59375 
L 16.59375 47 
C 11.5 44.890625 6.296875 43.484375 1 42.890625 
z
M 17.5 30.6875 
C 17.5 32.078125 18 33.1875 19.296875 34.890625 
C 22.203125 38.578125 26.296875 40.484375 31.296875 40.484375 
C 40.703125 40.484375 46.703125 33.890625 46.703125 23.5 
C 46.703125 12.296875 40 4 31 4 
C 25.5 4 21.40625 5.8125 17.5 9.890625 
z
" id="URW_Palladio_L_Roman-112"/>
       <path d="M 50.296875 47.015625 
L 49.40625 47.421875 
C 44.296875 45.3125 39.09375 43.90625 33.796875 43.3125 
L 33.796875 40.5 
L 37.5 40.5 
C 41.5 40.5 41.90625 39.796875 41.90625 33.140625 
L 41.90625 16.71875 
C 41.90625 14.5 40.5 11.671875 38.203125 9.359375 
C 35.40625 6.53125 32.203125 5.109375 28.296875 5.109375 
C 24.796875 5.109375 22 6.21875 20.40625 8.140625 
C 19 9.75 18.296875 12.875 18.296875 17.296875 
L 18.296875 47.015625 
L 17.40625 47.421875 
C 12.296875 45.3125 7.09375 43.90625 1.796875 43.3125 
L 1.796875 40.5 
L 5.5 40.5 
C 9.5 40.5 9.90625 39.796875 9.90625 33.15625 
L 9.90625 16.234375 
C 9.90625 9.171875 10.5 6.046875 12.296875 3.546875 
C 14.5 0.515625 18.296875 -1 24 -1 
C 28.5 -1 32.5 0.40625 35.203125 2.90625 
L 41.90625 9.140625 
C 41.90625 6.265625 41.796875 4.65625 41.5 0 
C 48.203125 0 48.296875 0 49.796875 0 
C 51.203125 0 51.203125 0 58.09375 0 
L 58.09375 2.90625 
L 54 3.3125 
C 50.59375 3.3125 50.296875 3.921875 50.296875 10.375 
z
" id="URW_Palladio_L_Roman-117"/>
       <path d="M 9.796875 38.6875 
L 9.796875 9.671875 
C 9.796875 2.21875 13.09375 -1 20.796875 -1 
C 23.09375 -1 25.5 -0.5 26.09375 0.203125 
L 30.90625 5.515625 
L 29.59375 7.234375 
C 27.09375 5.8125 25.59375 5.3125 23.703125 5.3125 
C 19.796875 5.3125 18.203125 7.34375 18.203125 12.3125 
L 18.203125 38.890625 
L 31 38.890625 
L 31.90625 44 
L 18.203125 44 
L 18.203125 47.75 
C 18.203125 51.890625 18.5 55.421875 19.296875 61.734375 
L 18.09375 62.828125 
C 15.703125 61.328125 12.703125 60.03125 9.59375 59.03125 
C 9.90625 56.015625 10 54.109375 10 51.109375 
L 10 44.09375 
L 2.203125 40.59375 
L 2.203125 38.6875 
z
" id="URW_Palladio_L_Roman-116"/>
      </defs>
      <use transform="scale(0.996264)" xlink:href="#URW_Palladio_L_Roman-73"/>
      <use transform="translate(33.574079 0)scale(0.996264)" xlink:href="#URW_Palladio_L_Roman-110"/>
      <use transform="translate(91.55614 0)scale(0.996264)" xlink:href="#URW_Palladio_L_Roman-112"/>
      <use transform="translate(151.430533 0)scale(0.996264)" xlink:href="#URW_Palladio_L_Roman-117"/>
      <use transform="translate(211.504268 0)scale(0.996264)" xlink:href="#URW_Palladio_L_Roman-116"/>
     </g>
    </g>
   </g>
   <g id="line2d_23">
    <path clip-path="url(#p3ddaf556ce)" d="M 67.531623 12.189765 
L 77.550634 17.458353 
L 87.569646 32.52416 
L 97.588658 55.271238 
L 107.60767 82.504828 
L 117.626681 110.400052 
L 127.645693 135.03911 
L 137.664705 152.961518 
L 147.683717 161.650129 
L 157.702728 159.884652 
L 167.72174 147.913044 
L 177.740752 127.41668 
L 187.759764 101.274215 
L 197.778775 73.157281 
L 207.797787 47.014816 
L 217.816799 26.518452 
L 227.835811 14.546844 
L 237.854822 12.781367 
L 247.873834 21.469978 
L 257.892846 39.392386 
L 267.911858 64.031444 
L 277.930869 91.926668 
L 287.949881 119.160258 
L 297.968893 141.907336 
L 307.987905 156.973143 
L 318.006916 162.241731 
L 328.025928 156.973143 
L 338.04494 141.907336 
L 348.063952 119.160258 
L 358.082963 91.926668 
L 368.101975 64.031444 
L 378.120987 39.392386 
L 388.139998 21.469978 
L 398.15901 12.781367 
L 408.178022 14.546844 
L 418.197034 26.518452 
L 428.216045 47.014816 
L 438.235057 73.157281 
L 448.254069 101.274215 
L 458.273081 127.41668 
L 468.292092 147.913044 
L 478.311104 159.884652 
L 488.330116 161.650129 
L 498.349128 152.961518 
L 508.368139 135.03911 
L 518.387151 110.400052 
L 528.406163 82.504828 
L 538.425175 55.271238 
L 548.444186 32.52416 
L 558.463198 17.458353 
" style="fill:none;stroke:#0271ae;stroke-linecap:square;stroke-width:4;"/>
    <defs>
     <path d="M 0 5 
C 1.326016 5 2.597899 4.473168 3.535534 3.535534 
C 4.473168 2.597899 5 1.326016 5 0 
C 5 -1.326016 4.473168 -2.597899 3.535534 -3.535534 
C 2.597899 -4.473168 1.326016 -5 0 -5 
C -1.326016 -5 -2.597899 -4.473168 -3.535534 -3.535534 
C -4.473168 -2.597899 -5 -1.326016 -5 0 
C -5 1.326016 -4.473168 2.597899 -3.535534 3.535534 
C -2.597899 4.473168 -1.326016 5 0 5 
z
" id="m2e388f5c17"/>
    </defs>
    <g clip-path="url(#p3ddaf556ce)">
     <use style="fill:#0271ae;" x="67.531623" xlink:href="#m2e388f5c17" y="12.189765"/>
     <use style="fill:#0271ae;" x="77.550634" xlink:href="#m2e388f5c17" y="17.458353"/>
     <use style="fill:#0271ae;" x="87.569646" xlink:href="#m2e388f5c17" y="32.52416"/>
     <use style="fill:#0271ae;" x="97.588658" xlink:href="#m2e388f5c17" y="55.271238"/>
     <use style="fill:#0271ae;" x="107.60767" xlink:href="#m2e388f5c17" y="82.504828"/>
     <use style="fill:#0271ae;" x="117.626681" xlink:href="#m2e388f5c17" y="110.400052"/>
     <use style="fill:#0271ae;" x="127.645693" xlink:href="#m2e388f5c17" y="135.03911"/>
     <use style="fill:#0271ae;" x="137.664705" xlink:href="#m2e388f5c17" y="152.961518"/>
     <use style="fill:#0271ae;" x="147.683717" xlink:href="#m2e388f5c17" y="161.650129"/>
     <use style="fill:#0271ae;" x="157.702728" xlink:href="#m2e388f5c17" y="159.884652"/>
     <use style="fill:#0271ae;" x="167.72174" xlink:href="#m2e388f5c17" y="147.913044"/>
     <use style="fill:#0271ae;" x="177.740752" xlink:href="#m2e388f5c17" y="127.41668"/>
     <use style="fill:#0271ae;" x="187.759764" xlink:href="#m2e388f5c17" y="101.274215"/>
     <use style="fill:#0271ae;" x="197.778775" xlink:href="#m2e388f5c17" y="73.157281"/>
     <use style="fill:#0271ae;" x="207.797787" xlink:href="#m2e388f5c17" y="47.014816"/>
     <use style="fill:#0271ae;" x="217.816799" xlink:href="#m2e388f5c17" y="26.518452"/>
     <use style="fill:#0271ae;" x="227.835811" xlink:href="#m2e388f5c17" y="14.546844"/>
     <use style="fill:#0271ae;" x="237.854822" xlink:href="#m2e388f5c17" y="12.781367"/>
     <use style="fill:#0271ae;" x="247.873834" xlink:href="#m2e388f5c17" y="21.469978"/>
     <use style="fill:#0271ae;" x="257.892846" xlink:href="#m2e388f5c17" y="39.392386"/>
     <use style="fill:#0271ae;" x="267.911858" xlink:href="#m2e388f5c17" y="64.031444"/>
     <use style="fill:#0271ae;" x="277.930869" xlink:href="#m2e388f5c17" y="91.926668"/>
     <use style="fill:#0271ae;" x="287.949881" xlink:href="#m2e388f5c17" y="119.160258"/>
     <use style="fill:#0271ae;" x="297.968893" xlink:href="#m2e388f5c17" y="141.907336"/>
     <use style="fill:#0271ae;" x="307.987905" xlink:href="#m2e388f5c17" y="156.973143"/>
     <use style="fill:#0271ae;" x="318.006916" xlink:href="#m2e388f5c17" y="162.241731"/>
     <use style="fill:#0271ae;" x="328.025928" xlink:href="#m2e388f5c17" y="156.973143"/>
     <use style="fill:#0271ae;" x="338.04494" xlink:href="#m2e388f5c17" y="141.907336"/>
     <use style="fill:#0271ae;" x="348.063952" xlink:href="#m2e388f5c17" y="119.160258"/>
     <use style="fill:#0271ae;" x="358.082963" xlink:href="#m2e388f5c17" y="91.926668"/>
     <use style="fill:#0271ae;" x="368.101975" xlink:href="#m2e388f5c17" y="64.031444"/>
     <use style="fill:#0271ae;" x="378.120987" xlink:href="#m2e388f5c17" y="39.392386"/>
     <use style="fill:#0271ae;" x="388.139998" xlink:href="#m2e388f5c17" y="21.469978"/>
     <use style="fill:#0271ae;" x="398.15901" xlink:href="#m2e388f5c17" y="12.781367"/>
     <use style="fill:#0271ae;" x="408.178022" xlink:href="#m2e388f5c17" y="14.546844"/>
     <use style="fill:#0271ae;" x="418.197034" xlink:href="#m2e388f5c17" y="26.518452"/>
     <use style="fill:#0271ae;" x="428.216045" xlink:href="#m2e388f5c17" y="47.014816"/>
     <use style="fill:#0271ae;" x="438.235057" xlink:href="#m2e388f5c17" y="73.157281"/>
     <use style="fill:#0271ae;" x="448.254069" xlink:href="#m2e388f5c17" y="101.274215"/>
     <use style="fill:#0271ae;" x="458.273081" xlink:href="#m2e388f5c17" y="127.41668"/>
     <use style="fill:#0271ae;" x="468.292092" xlink:href="#m2e388f5c17" y="147.913044"/>
     <use style="fill:#0271ae;" x="478.311104" xlink:href="#m2e388f5c17" y="159.884652"/>
     <use style="fill:#0271ae;" x="488.330116" xlink:href="#m2e388f5c17" y="161.650129"/>
     <use style="fill:#0271ae;" x="498.349128" xlink:href="#m2e388f5c17" y="152.961518"/>
     <use style="fill:#0271ae;" x="508.368139" xlink:href="#m2e388f5c17" y="135.03911"/>
     <use style="fill:#0271ae;" x="518.387151" xlink:href="#m2e388f5c17" y="110.400052"/>
     <use style="fill:#0271ae;" x="528.406163" xlink:href="#m2e388f5c17" y="82.504828"/>
     <use style="fill:#0271ae;" x="538.425175" xlink:href="#m2e388f5c17" y="55.271238"/>
     <use style="fill:#0271ae;" x="548.444186" xlink:href="#m2e388f5c17" y="32.52416"/>
     <use style="fill:#0271ae;" x="558.463198" xlink:href="#m2e388f5c17" y="17.458353"/>
    </g>
   </g>
   <g id="legend_1">
    <g id="patch_3">
     <path d="M 503.90006 41.20945 
L 558.68221 41.20945 
Q 561.48221 41.20945 561.48221 38.40945 
L 561.48221 18.238465 
Q 561.48221 15.438465 558.68221 15.438465 
L 503.90006 15.438465 
Q 501.10006 15.438465 501.10006 18.238465 
L 501.10006 38.40945 
Q 501.10006 41.20945 503.90006 41.20945 
z
" style="fill:#ffffff;opacity:0.95;stroke:#cccccc;stroke-linejoin:miter;stroke-width:0.5;"/>
    </g>
    <g id="line2d_24">
     <path d="M 506.70006 26.776278 
L 520.70006 26.776278 
" style="fill:none;stroke:#0271ae;stroke-linecap:square;stroke-width:4;"/>
    </g>
    <g id="line2d_25">
     <g>
      <use style="fill:#0271ae;" x="513.70006" xlink:href="#m2e388f5c17" y="26.776278"/>
     </g>
    </g>
    <g id="text_7">
     <!-- $x[n]$ -->
     <g transform="translate(531.90006 31.676278)scale(0.14 -0.14)">
      <defs>
       <path d="M 2.09375 8.84375 
C 2.09375 6.84375 1.90625 5.578125 1.296875 2.390625 
C 1.09375 1.203125 1 0.90625 0.90625 0.203125 
C 2.40625 -0.609375 4 -1 5.203125 -1 
C 8.5 -1 12.40625 1.890625 15.5 6.546875 
L 23.09375 18.1875 
L 24.203125 11.328125 
C 25.5 2.875 27.796875 -1 31.40625 -1 
C 33.59375 -1 36.796875 0.6875 40 3.578125 
L 44.90625 7.953125 
L 44 9.84375 
C 40.40625 6.859375 37.90625 5.375 36.296875 5.375 
C 34.796875 5.375 33.5 6.375 32.5 8.34375 
C 31.59375 10.234375 30.5 13.90625 30 16.796875 
L 28.203125 26.8125 
L 31.703125 31.6875 
C 36.40625 38.140625 39.09375 40.421875 42.203125 40.421875 
C 43.796875 40.421875 45 39.625 45.5 38.140625 
L 46.90625 38.53125 
L 48.40625 47 
C 47.203125 47.703125 46.296875 48 45.40625 48 
C 41.40625 48 37.40625 44.40625 31.203125 35.265625 
L 27.5 29.796875 
L 26.90625 34.5625 
C 25.703125 44.40625 23 48 17.09375 48 
C 14.5 48 12.296875 47.203125 11.40625 45.90625 
L 5.59375 37.640625 
L 7.296875 36.65625 
C 10.296875 40.03125 12.296875 41.421875 14.203125 41.421875 
C 17.5 41.421875 19.703125 37.359375 21.40625 27.609375 
L 22.5 21.453125 
L 18.5 15.265625 
C 14.203125 8.578125 10.796875 5.375 8 5.375 
C 6.5 5.375 5.40625 5.796875 5.203125 6.296875 
L 4.09375 9.140625 
z
" id="URW_Palladio_L_Italic-120"/>
       <path d="M 25.5 -25 
L 25.5 -20.984375 
L 15.796875 -20.984375 
L 15.796875 71 
L 25.5 71 
L 25.5 75.015625 
L 11.796875 75.015625 
L 11.796875 -25 
z
" id="CMR10-91"/>
       <path d="M 2.40625 38.609375 
L 3.09375 36.609375 
L 6.296875 38.703125 
C 10 41.015625 10.296875 41.203125 11 41.203125 
C 12.09375 41.203125 12.796875 40.21875 12.796875 38.71875 
C 12.796875 33.625 8.703125 14.359375 4.59375 0.09375 
L 5.296875 -1 
C 7.796875 -0.3125 10.09375 0.28125 12.296875 0.6875 
C 14.203125 13.265625 16.296875 19.75 20.90625 26.640625 
C 26.296875 35.015625 33.796875 41.203125 38.296875 41.203125 
C 39.40625 41.203125 40 40.3125 40 38.8125 
C 40 37.015625 39.703125 34.921875 38.90625 31.734375 
L 33.703125 10.578125 
C 32.796875 6.875 32.40625 4.59375 32.40625 3 
C 32.40625 0.484375 33.5 -1 35.40625 -1 
C 38 -1 41.59375 1.078125 51.40625 8.375 
L 50.40625 10.171875 
L 47.796875 8.484375 
C 44.90625 6.578125 42.703125 5.484375 41.703125 5.484375 
C 41 5.484375 40.40625 6.375 40.40625 7.46875 
C 40.40625 7.96875 40.5 9.078125 40.59375 9.484375 
L 47.203125 37.015625 
C 47.90625 39.921875 48.296875 42.703125 48.296875 44.390625 
C 48.296875 46.703125 47.203125 48 45.203125 48 
C 41 48 34.09375 44.21875 28.203125 38.71875 
C 24.40625 35.21875 21.59375 31.828125 16.40625 24.546875 
L 20.203125 40.609375 
C 20.59375 42.40625 20.796875 43.59375 20.796875 44.703125 
C 20.796875 46.796875 20 48 18.5 48 
C 16.40625 48 12.5 45.8125 5.203125 40.609375 
z
" id="URW_Palladio_L_Italic-110"/>
       <path d="M 15.90625 75.015625 
L 2.203125 75.015625 
L 2.203125 71 
L 11.90625 71 
L 11.90625 -20.984375 
L 2.203125 -20.984375 
L 2.203125 -25 
L 15.90625 -25 
z
" id="CMR10-93"/>
      </defs>
      <use transform="scale(0.996264)" xlink:href="#URW_Palladio_L_Italic-120"/>
      <use transform="translate(53.299136 0)scale(1.038107)" xlink:href="#CMR10-91"/>
      <use transform="translate(84.581835 0)scale(0.996264)" xlink:href="#URW_Palladio_L_Italic-110"/>
      <use transform="translate(142.464796 0)scale(1.038107)" xlink:href="#CMR10-93"/>
     </g>
    </g>
   </g>
  </g>
  <g id="axes_2">
   <g id="patch_4">
    <path d="M 67.531623 339.840499 
L 568.48221 339.840499 
L 568.48221 182.285934 
L 67.531623 182.285934 
z
" style="fill:none;"/>
   </g>
   <g id="line2d_26">
    <path clip-path="url(#p2597cb5bb5)" d="M 67.531623 197.29113 
L 568.48221 197.29113 
" style="fill:none;stroke:#ffc438;stroke-dasharray:14.8,6.4;stroke-dashoffset:0;stroke-width:4;"/>
   </g>
   <g id="line2d_27">
    <path clip-path="url(#p2597cb5bb5)" d="M 67.531623 279.819712 
L 568.48221 279.819712 
" style="fill:none;stroke:#dc2830;stroke-dasharray:14.8,6.4;stroke-dashoffset:0;stroke-width:4;"/>
   </g>
   <g id="line2d_28">
    <path clip-path="url(#p2597cb5bb5)" d="M 67.531623 186.037233 
L 77.550634 191.305821 
L 87.569646 206.371628 
L 97.588658 229.118706 
L 107.60767 256.352296 
L 117.626681 284.24752 
L 127.645693 308.886578 
L 137.664705 326.808987 
L 147.683717 335.497597 
L 157.702728 333.73212 
L 167.72174 321.760512 
L 177.740752 301.264148 
L 187.759764 275.121684 
L 197.778775 247.004749 
L 207.797787 220.862284 
L 217.816799 200.365921 
L 227.835811 188.394312 
L 237.854822 186.628835 
L 247.873834 195.317446 
L 257.892846 213.239854 
L 267.911858 237.878912 
L 277.930869 265.774137 
L 287.949881 293.007726 
L 297.968893 315.754804 
L 307.987905 330.820611 
L 318.006916 336.0892 
L 328.025928 330.820611 
L 338.04494 315.754804 
L 348.063952 293.007726 
L 358.082963 265.774137 
L 368.101975 237.878912 
L 378.120987 213.239854 
L 388.139998 195.317446 
L 398.15901 186.628835 
L 408.178022 188.394312 
L 418.197034 200.365921 
L 428.216045 220.862284 
L 438.235057 247.004749 
L 448.254069 275.121684 
L 458.273081 301.264148 
L 468.292092 321.760512 
L 478.311104 333.73212 
L 488.330116 335.497597 
L 498.349128 326.808987 
L 508.368139 308.886578 
L 518.387151 284.24752 
L 528.406163 256.352296 
L 538.425175 229.118706 
L 548.444186 206.371628 
L 558.463198 191.305821 
" style="fill:none;stroke:#0271ae;stroke-linecap:square;stroke-opacity:0.2;stroke-width:4;"/>
    <defs>
     <path d="M 0 2.5 
C 0.663008 2.5 1.29895 2.236584 1.767767 1.767767 
C 2.236584 1.29895 2.5 0.663008 2.5 0 
C 2.5 -0.663008 2.236584 -1.29895 1.767767 -1.767767 
C 1.29895 -2.236584 0.663008 -2.5 0 -2.5 
C -0.663008 -2.5 -1.29895 -2.236584 -1.767767 -1.767767 
C -2.236584 -1.29895 -2.5 -0.663008 -2.5 0 
C -2.5 0.663008 -2.236584 1.29895 -1.767767 1.767767 
C -1.29895 2.236584 -0.663008 2.5 0 2.5 
z
" id="mba44e60129"/>
    </defs>
    <g clip-path="url(#p2597cb5bb5)">
     <use style="fill:#0271ae;fill-opacity:0.2;" x="67.531623" xlink:href="#mba44e60129" y="186.037233"/>
     <use style="fill:#0271ae;fill-opacity:0.2;" x="77.550634" xlink:href="#mba44e60129" y="191.305821"/>
     <use style="fill:#0271ae;fill-opacity:0.2;" x="87.569646" xlink:href="#mba44e60129" y="206.371628"/>
     <use style="fill:#0271ae;fill-opacity:0.2;" x="97.588658" xlink:href="#mba44e60129" y="229.118706"/>
     <use style="fill:#0271ae;fill-opacity:0.2;" x="107.60767" xlink:href="#mba44e60129" y="256.352296"/>
     <use style="fill:#0271ae;fill-opacity:0.2;" x="117.626681" xlink:href="#mba44e60129" y="284.24752"/>
     <use style="fill:#0271ae;fill-opacity:0.2;" x="127.645693" xlink:href="#mba44e60129" y="308.886578"/>
     <use style="fill:#0271ae;fill-opacity:0.2;" x="137.664705" xlink:href="#mba44e60129" y="326.808987"/>
     <use style="fill:#0271ae;fill-opacity:0.2;" x="147.683717" xlink:href="#mba44e60129" y="335.497597"/>
     <use style="fill:#0271ae;fill-opacity:0.2;" x="157.702728" xlink:href="#mba44e60129" y="333.73212"/>
     <use style="fill:#0271ae;fill-opacity:0.2;" x="167.72174" xlink:href="#mba44e60129" y="321.760512"/>
     <use style="fill:#0271ae;fill-opacity:0.2;" x="177.740752" xlink:href="#mba44e60129" y="301.264148"/>
     <use style="fill:#0271ae;fill-opacity:0.2;" x="187.759764" xlink:href="#mba44e60129" y="275.121684"/>
     <use style="fill:#0271ae;fill-opacity:0.2;" x="197.778775" xlink:href="#mba44e60129" y="247.004749"/>
     <use style="fill:#0271ae;fill-opacity:0.2;" x="207.797787" xlink:href="#mba44e60129" y="220.862284"/>
     <use style="fill:#0271ae;fill-opacity:0.2;" x="217.816799" xlink:href="#mba44e60129" y="200.365921"/>
     <use style="fill:#0271ae;fill-opacity:0.2;" x="227.835811" xlink:href="#mba44e60129" y="188.394312"/>
     <use style="fill:#0271ae;fill-opacity:0.2;" x="237.854822" xlink:href="#mba44e60129" y="186.628835"/>
     <use style="fill:#0271ae;fill-opacity:0.2;" x="247.873834" xlink:href="#mba44e60129" y="195.317446"/>
     <use style="fill:#0271ae;fill-opacity:0.2;" x="257.892846" xlink:href="#mba44e60129" y="213.239854"/>
     <use style="fill:#0271ae;fill-opacity:0.2;" x="267.911858" xlink:href="#mba44e60129" y="237.878912"/>
     <use style="fill:#0271ae;fill-opacity:0.2;" x="277.930869" xlink:href="#mba44e60129" y="265.774137"/>
     <use style="fill:#0271ae;fill-opacity:0.2;" x="287.949881" xlink:href="#mba44e60129" y="293.007726"/>
     <use style="fill:#0271ae;fill-opacity:0.2;" x="297.968893" xlink:href="#mba44e60129" y="315.754804"/>
     <use style="fill:#0271ae;fill-opacity:0.2;" x="307.987905" xlink:href="#mba44e60129" y="330.820611"/>
     <use style="fill:#0271ae;fill-opacity:0.2;" x="318.006916" xlink:href="#mba44e60129" y="336.0892"/>
     <use style="fill:#0271ae;fill-opacity:0.2;" x="328.025928" xlink:href="#mba44e60129" y="330.820611"/>
     <use style="fill:#0271ae;fill-opacity:0.2;" x="338.04494" xlink:href="#mba44e60129" y="315.754804"/>
     <use style="fill:#0271ae;fill-opacity:0.2;" x="348.063952" xlink:href="#mba44e60129" y="293.007726"/>
     <use style="fill:#0271ae;fill-opacity:0.2;" x="358.082963" xlink:href="#mba44e60129" y="265.774137"/>
     <use style="fill:#0271ae;fill-opacity:0.2;" x="368.101975" xlink:href="#mba44e60129" y="237.878912"/>
     <use style="fill:#0271ae;fill-opacity:0.2;" x="378.120987" xlink:href="#mba44e60129" y="213.239854"/>
     <use style="fill:#0271ae;fill-opacity:0.2;" x="388.139998" xlink:href="#mba44e60129" y="195.317446"/>
     <use style="fill:#0271ae;fill-opacity:0.2;" x="398.15901" xlink:href="#mba44e60129" y="186.628835"/>
     <use style="fill:#0271ae;fill-opacity:0.2;" x="408.178022" xlink:href="#mba44e60129" y="188.394312"/>
     <use style="fill:#0271ae;fill-opacity:0.2;" x="418.197034" xlink:href="#mba44e60129" y="200.365921"/>
     <use style="fill:#0271ae;fill-opacity:0.2;" x="428.216045" xlink:href="#mba44e60129" y="220.862284"/>
     <use style="fill:#0271ae;fill-opacity:0.2;" x="438.235057" xlink:href="#mba44e60129" y="247.004749"/>
     <use style="fill:#0271ae;fill-opacity:0.2;" x="448.254069" xlink:href="#mba44e60129" y="275.121684"/>
     <use style="fill:#0271ae;fill-opacity:0.2;" x="458.273081" xlink:href="#mba44e60129" y="301.264148"/>
     <use style="fill:#0271ae;fill-opacity:0.2;" x="468.292092" xlink:href="#mba44e60129" y="321.760512"/>
     <use style="fill:#0271ae;fill-opacity:0.2;" x="478.311104" xlink:href="#mba44e60129" y="333.73212"/>
     <use style="fill:#0271ae;fill-opacity:0.2;" x="488.330116" xlink:href="#mba44e60129" y="335.497597"/>
     <use style="fill:#0271ae;fill-opacity:0.2;" x="498.349128" xlink:href="#mba44e60129" y="326.808987"/>
     <use style="fill:#0271ae;fill-opacity:0.2;" x="508.368139" xlink:href="#mba44e60129" y="308.886578"/>
     <use style="fill:#0271ae;fill-opacity:0.2;" x="518.387151" xlink:href="#mba44e60129" y="284.24752"/>
     <use style="fill:#0271ae;fill-opacity:0.2;" x="528.406163" xlink:href="#mba44e60129" y="256.352296"/>
     <use style="fill:#0271ae;fill-opacity:0.2;" x="538.425175" xlink:href="#mba44e60129" y="229.118706"/>
     <use style="fill:#0271ae;fill-opacity:0.2;" x="548.444186" xlink:href="#mba44e60129" y="206.371628"/>
     <use style="fill:#0271ae;fill-opacity:0.2;" x="558.463198" xlink:href="#mba44e60129" y="191.305821"/>
    </g>
   </g>
   <g id="matplotlib.axis_3">
    <g id="xtick_7">
     <g id="line2d_29">
      <path clip-path="url(#p2597cb5bb5)" d="M 67.531623 339.840499 
L 67.531623 182.285934 
" style="fill:none;stroke:#000000;stroke-linecap:square;stroke-opacity:0.2;stroke-width:0.5;"/>
     </g>
     <g id="line2d_30">
      <g>
       <use style="fill-opacity:0.2;stroke:#000000;stroke-opacity:0.2;stroke-width:0.8;" x="67.531623" xlink:href="#mda7a380991" y="339.840499"/>
      </g>
     </g>
     <g id="text_8">
      <!-- $\mathdefault{0.0}$ -->
      <g transform="translate(58.814313 365.320028)scale(0.14 -0.14)">
       <use transform="scale(0.996264)" xlink:href="#URW_Palladio_L_Roman-48"/>
       <use transform="translate(49.8132 0)scale(0.996264)" xlink:href="#URW_Palladio_L_Roman-46"/>
       <use transform="translate(74.719801 0)scale(0.996264)" xlink:href="#URW_Palladio_L_Roman-48"/>
      </g>
     </g>
    </g>
    <g id="xtick_8">
     <g id="line2d_31">
      <path clip-path="url(#p2597cb5bb5)" d="M 167.72174 339.840499 
L 167.72174 182.285934 
" style="fill:none;stroke:#000000;stroke-linecap:square;stroke-opacity:0.2;stroke-width:0.5;"/>
     </g>
     <g id="line2d_32">
      <g>
       <use style="fill-opacity:0.2;stroke:#000000;stroke-opacity:0.2;stroke-width:0.8;" x="167.72174" xlink:href="#mda7a380991" y="339.840499"/>
      </g>
     </g>
     <g id="text_9">
      <!-- $\mathdefault{0.2}$ -->
      <g transform="translate(159.00443 365.320028)scale(0.14 -0.14)">
       <defs>
        <path d="M 1.59375 2.5 
L 1.59375 0 
C 20.296875 0 20.296875 0 23.90625 0 
C 27.5 0 27.5 0 46.796875 0 
C 46.59375 1.953125 46.59375 2.90625 46.59375 4.203125 
C 46.59375 5.4375 46.59375 6.359375 46.796875 8.421875 
C 35.296875 8.421875 30.703125 8.421875 12.203125 8.421875 
L 30.40625 27.515625 
C 40.09375 37.71875 43.09375 43.171875 43.09375 50.59375 
C 43.09375 61.96875 35.296875 69 22.59375 69 
C 15.40625 69 10.5 67 5.59375 62.015625 
L 3.90625 48.421875 
L 6.796875 48.421875 
L 8.09375 53.015625 
C 9.703125 58.796875 13.296875 61.296875 20 61.296875 
C 28.59375 61.296875 34.09375 55.890625 34.09375 47.421875 
C 34.09375 39.921875 29.90625 32.546875 18.59375 20.5625 
z
" id="URW_Palladio_L_Roman-50"/>
       </defs>
       <use transform="scale(0.996264)" xlink:href="#URW_Palladio_L_Roman-48"/>
       <use transform="translate(49.8132 0)scale(0.996264)" xlink:href="#URW_Palladio_L_Roman-46"/>
       <use transform="translate(74.719801 0)scale(0.996264)" xlink:href="#URW_Palladio_L_Roman-50"/>
      </g>
     </g>
    </g>
    <g id="xtick_9">
     <g id="line2d_33">
      <path clip-path="url(#p2597cb5bb5)" d="M 267.911858 339.840499 
L 267.911858 182.285934 
" style="fill:none;stroke:#000000;stroke-linecap:square;stroke-opacity:0.2;stroke-width:0.5;"/>
     </g>
     <g id="line2d_34">
      <g>
       <use style="fill-opacity:0.2;stroke:#000000;stroke-opacity:0.2;stroke-width:0.8;" x="267.911858" xlink:href="#mda7a380991" y="339.840499"/>
      </g>
     </g>
     <g id="text_10">
      <!-- $\mathdefault{0.4}$ -->
      <g transform="translate(259.194547 365.320028)scale(0.14 -0.14)">
       <defs>
        <path d="M 28 18 
L 28 10.515625 
C 28 4.515625 26.90625 3.109375 22 3.109375 
L 15.796875 3.109375 
L 15.796875 0 
C 29.09375 0 29.09375 0 31.5 0 
C 33.90625 0 33.90625 0 47.203125 0 
L 47.203125 3.109375 
L 42.40625 3.109375 
C 37.5 3.109375 36.40625 4.40625 36.40625 10.453125 
L 36.40625 18 
C 42.296875 18 44.40625 18 47.203125 17.703125 
L 47.203125 24.8125 
C 42.5 24.421875 40.59375 24.421875 39.09375 24.421875 
L 38.796875 24.421875 
L 36.40625 24.421875 
L 36.40625 38.390625 
C 36.40625 56.25 36.59375 64.875 37.09375 69 
L 35.90625 69.5 
L 28.5 66.796875 
L 0.203125 20.296875 
L 1.296875 18 
z
M 28 24.421875 
L 6.5 24.421875 
L 28 59.78125 
z
" id="URW_Palladio_L_Roman-52"/>
       </defs>
       <use transform="scale(0.996264)" xlink:href="#URW_Palladio_L_Roman-48"/>
       <use transform="translate(49.8132 0)scale(0.996264)" xlink:href="#URW_Palladio_L_Roman-46"/>
       <use transform="translate(74.719801 0)scale(0.996264)" xlink:href="#URW_Palladio_L_Roman-52"/>
      </g>
     </g>
    </g>
    <g id="xtick_10">
     <g id="line2d_35">
      <path clip-path="url(#p2597cb5bb5)" d="M 368.101975 339.840499 
L 368.101975 182.285934 
" style="fill:none;stroke:#000000;stroke-linecap:square;stroke-opacity:0.2;stroke-width:0.5;"/>
     </g>
     <g id="line2d_36">
      <g>
       <use style="fill-opacity:0.2;stroke:#000000;stroke-opacity:0.2;stroke-width:0.8;" x="368.101975" xlink:href="#mda7a380991" y="339.840499"/>
      </g>
     </g>
     <g id="text_11">
      <!-- $\mathdefault{0.6}$ -->
      <g transform="translate(359.384665 365.320028)scale(0.14 -0.14)">
       <defs>
        <path d="M 41.59375 67.34375 
L 37.90625 69.046875 
C 28.296875 65.84375 24.203125 63.84375 19.09375 59.4375 
C 8.796875 50.71875 3.203125 38.5 3.203125 24.765625 
C 3.203125 8.21875 11.203125 -2 24.09375 -2 
C 37.09375 -2 46.796875 8.3125 46.796875 21.953125 
C 46.796875 33.484375 39.90625 41 29.296875 41 
C 24.296875 41 21.296875 39.6875 15.40625 34.984375 
C 14.296875 34.078125 14.203125 33.984375 13.09375 33.1875 
C 15.203125 51.3125 23.59375 61.140625 41.59375 66.546875 
z
M 25.5 34.984375 
C 33.09375 34.984375 38.203125 28.375 38.203125 18.453125 
C 38.203125 8.015625 33.09375 1.296875 25.40625 1.296875 
C 16.90625 1.296875 12.296875 8.609375 12.296875 22.0625 
C 12.296875 25.5625 12.703125 27.46875 13.796875 29.171875 
C 16 32.578125 20.703125 34.984375 25.5 34.984375 
z
" id="URW_Palladio_L_Roman-54"/>
       </defs>
       <use transform="scale(0.996264)" xlink:href="#URW_Palladio_L_Roman-48"/>
       <use transform="translate(49.8132 0)scale(0.996264)" xlink:href="#URW_Palladio_L_Roman-46"/>
       <use transform="translate(74.719801 0)scale(0.996264)" xlink:href="#URW_Palladio_L_Roman-54"/>
      </g>
     </g>
    </g>
    <g id="xtick_11">
     <g id="line2d_37">
      <path clip-path="url(#p2597cb5bb5)" d="M 468.292092 339.840499 
L 468.292092 182.285934 
" style="fill:none;stroke:#000000;stroke-linecap:square;stroke-opacity:0.2;stroke-width:0.5;"/>
     </g>
     <g id="line2d_38">
      <g>
       <use style="fill-opacity:0.2;stroke:#000000;stroke-opacity:0.2;stroke-width:0.8;" x="468.292092" xlink:href="#mda7a380991" y="339.840499"/>
      </g>
     </g>
     <g id="text_12">
      <!-- $\mathdefault{0.8}$ -->
      <g transform="translate(459.574782 365.320028)scale(0.14 -0.14)">
       <defs>
        <path d="M 16.796875 34.546875 
C 12.703125 32.65625 11 31.546875 8.796875 29.4375 
C 5 25.640625 3 21.125 3 15.921875 
C 3 5.609375 11.296875 -2 22.59375 -2 
C 35.59375 -2 46.40625 8.21875 46.40625 20.625 
C 46.40625 28.640625 42.703125 32.953125 31.296875 38.15625 
C 40.40625 44.375 43.59375 48.578125 43.59375 54.578125 
C 43.59375 63.1875 36.5 69 25.90625 69 
C 14 69 5.296875 61.390625 5.296875 50.890625 
C 5.296875 44.078125 8 40.265625 16.796875 34.546875 
z
M 28.40625 29.546875 
C 34.703125 26.734375 38.5 21.828125 38.5 16.4375 
C 38.5 8.015625 32.203125 1.40625 24.09375 1.40625 
C 15.59375 1.40625 10.09375 7.421875 10.09375 16.734375 
C 10.09375 24.03125 13 28.640625 20.40625 33.15625 
z
M 22.296875 42.375 
C 16 45.46875 12.796875 49.484375 12.796875 54.484375 
C 12.796875 61.09375 17.59375 65.59375 24.703125 65.59375 
C 32 65.59375 36.796875 60.796875 36.796875 53.46875 
C 36.796875 47.78125 34.296875 43.875 27.796875 39.65625 
z
" id="URW_Palladio_L_Roman-56"/>
       </defs>
       <use transform="scale(0.996264)" xlink:href="#URW_Palladio_L_Roman-48"/>
       <use transform="translate(49.8132 0)scale(0.996264)" xlink:href="#URW_Palladio_L_Roman-46"/>
       <use transform="translate(74.719801 0)scale(0.996264)" xlink:href="#URW_Palladio_L_Roman-56"/>
      </g>
     </g>
    </g>
    <g id="xtick_12">
     <g id="line2d_39">
      <path clip-path="url(#p2597cb5bb5)" d="M 568.48221 339.840499 
L 568.48221 182.285934 
" style="fill:none;stroke:#000000;stroke-linecap:square;stroke-opacity:0.2;stroke-width:0.5;"/>
     </g>
     <g id="line2d_40">
      <g>
       <use style="fill-opacity:0.2;stroke:#000000;stroke-opacity:0.2;stroke-width:0.8;" x="568.48221" xlink:href="#mda7a380991" y="339.840499"/>
      </g>
     </g>
     <g id="text_13">
      <!-- $\mathdefault{1.0}$ -->
      <g transform="translate(559.7649 365.320028)scale(0.14 -0.14)">
       <use transform="scale(0.996264)" xlink:href="#URW_Palladio_L_Roman-49"/>
       <use transform="translate(49.8132 0)scale(0.996264)" xlink:href="#URW_Palladio_L_Roman-46"/>
       <use transform="translate(74.719801 0)scale(0.996264)" xlink:href="#URW_Palladio_L_Roman-48"/>
      </g>
     </g>
    </g>
    <g id="text_14">
     <!-- Time [seconds] -->
     <g transform="translate(278.334065 381.807076)scale(0.12 -0.12)">
      <defs>
       <path d="M 25.5 64.28125 
C 25.796875 60.875 25.90625 58.578125 25.90625 54.265625 
L 25.90625 11.921875 
C 25.90625 4 25.40625 3.203125 20.796875 3.203125 
L 16 3.203125 
L 16 0 
C 21.90625 0 25.40625 0 30.59375 0 
C 35.796875 0 39.40625 0 45.296875 0 
L 45.296875 3.203125 
L 40.5 3.203125 
C 35.90625 3.203125 35.40625 4 35.40625 11.921875 
L 35.40625 54.265625 
C 35.40625 58.78125 35.5 60.984375 35.796875 64.28125 
L 51.296875 64.28125 
C 54.09375 64.28125 55.203125 63.390625 55.296875 61 
L 55.703125 53.125 
L 58.796875 53.125 
C 58.796875 59.53125 59 63.375 59.5 69 
C 52.296875 69 49 69 46.203125 69 
C 42.296875 69 39.40625 69 37.90625 69 
L 22.09375 69 
C 21.09375 69 15.703125 69 8.59375 69 
L 1.796875 69 
C 2.296875 63.375 2.5 59.53125 2.5 53.125 
L 5.59375 53.125 
L 6 61 
C 6.09375 63.390625 7.203125 64.28125 10 64.28125 
z
" id="URW_Palladio_L_Roman-84"/>
       <path d="M 18.796875 46.765625 
L 17.90625 47.171875 
C 12.796875 45.0625 7.59375 43.640625 2.296875 43.046875 
L 2.296875 40.25 
L 6 40.25 
C 10 40.25 10.40625 39.546875 10.40625 32.890625 
L 10.40625 10.171875 
C 10.40625 3.8125 10.09375 3.109375 6.703125 3.109375 
L 2.09375 3.109375 
L 2.09375 0 
C 12.09375 0 12.09375 0 14.59375 0 
C 17.09375 0 17.09375 0 27.09375 0 
L 27.09375 3.109375 
L 22.5 3.109375 
C 19.09375 3.109375 18.796875 3.8125 18.796875 10.171875 
z
M 14.203125 69 
C 11.203125 69 8.59375 66.390625 8.59375 63.375 
C 8.59375 60.46875 11.203125 57.875 14.09375 57.875 
C 17 57.875 19.703125 60.46875 19.703125 63.375 
C 19.703125 66.1875 17 69 14.203125 69 
z
" id="URW_Palladio_L_Roman-105"/>
       <path d="M 1.796875 40.078125 
L 5.5 40.078125 
C 9.5 40.078125 9.90625 39.375 9.90625 32.71875 
L 9.90625 10.046875 
C 9.90625 3.703125 9.59375 3 6.203125 3 
L 1.59375 3 
L 1.59375 -0.109375 
C 11.203125 -0.109375 11.5 -0.109375 14.296875 -0.109375 
C 17.09375 -0.109375 19.703125 -0.109375 26.203125 -0.109375 
L 26.203125 2.796875 
L 22 3.203125 
C 18.59375 3.203125 18.296875 3.90625 18.296875 10.21875 
L 18.296875 31.46875 
C 18.296875 35.96875 24.90625 40.875 30.90625 40.875 
C 36.296875 40.875 40 35.734375 40 28.09375 
L 40 10.046875 
C 40 3.703125 39.703125 3 36.296875 3 
L 31.703125 3 
L 31.703125 -0.109375 
C 41.703125 -0.109375 41.703125 -0.109375 44.203125 -0.109375 
C 46.703125 -0.109375 46.703125 -0.109375 56.703125 -0.109375 
L 56.703125 3 
L 52.09375 3 
C 48.703125 3 48.40625 3.703125 48.40625 10.046875 
L 48.40625 31.421875 
C 48.40625 35.9375 55 40.875 61 40.875 
C 66.40625 40.875 70.09375 35.796875 70.09375 28.21875 
L 70.09375 -0.109375 
C 76.203125 -0.109375 76.296875 -0.109375 78 -0.109375 
C 79.296875 -0.109375 79.296875 -0.109375 86.90625 -0.109375 
L 86.90625 3 
L 82.203125 3 
C 78.796875 3 78.5 3.703125 78.5 10.046875 
L 78.5 30.78125 
C 78.5 40.75 72.703125 47 63.5 47 
C 60 47 57.09375 46.09375 55.296875 44.484375 
L 47.703125 37.6875 
C 44.5 44.28125 40.40625 47 33.5 47 
C 29.796875 47 27 46.09375 25.203125 44.484375 
L 18.296875 38.078125 
L 18.296875 46.59375 
L 17.40625 47 
C 12.296875 44.890625 7.09375 43.484375 1.796875 42.890625 
z
" id="URW_Palladio_L_Roman-109"/>
       <path d="M 43.703125 6.984375 
L 42.40625 7.984375 
C 36 4.203125 33.703125 3.3125 29.40625 3.3125 
C 22.90625 3.3125 17.5 6.21875 14.703125 11.109375 
C 12.796875 14.390625 12.09375 17.203125 11.90625 23 
L 26.5 23 
C 33.40625 23 37.703125 23 44.59375 24.125 
C 44.703125 25.53125 44.796875 26.453125 44.796875 27.671875 
C 44.796875 39.375 37.40625 47 26.203125 47 
C 22.5 47 18.203125 45.6875 14.09375 43.28125 
C 5.90625 38.578125 2.59375 32.359375 2.59375 21.9375 
C 2.59375 15.625 4.09375 10.21875 6.796875 6.40625 
C 10.796875 1.109375 17.5 -2 25 -2 
C 28.703125 -2 32.40625 -1.203125 36.5 0.578125 
C 39.203125 1.6875 41.296875 2.984375 41.703125 3.59375 
z
M 35.90625 26.40625 
C 30.703125 26.40625 28.296875 26.40625 24.703125 26.40625 
C 20.09375 26.40625 17.5 26.40625 12.09375 26.90625 
C 12.09375 31.671875 12.5 33.890625 13.796875 36.515625 
C 15.90625 40.96875 20.203125 43.6875 25 43.6875 
C 28.296875 43.6875 30.90625 42.359375 32.703125 39.59375 
C 34.90625 36.234375 35.59375 33.265625 35.90625 26.40625 
z
" id="URW_Palladio_L_Roman-101"/>
       <path d="M 8.796875 -18 
C 15.90625 -18 16.09375 -18 18.5 -18 
C 20.90625 -18 21.40625 -18 28.203125 -18 
L 28.796875 -17.5 
L 28.796875 -14.890625 
L 28.40625 -14.390625 
L 24.59375 -14.390625 
C 21.90625 -14.390625 19.703125 -13.78125 18.5 -12.78125 
C 17.59375 -11.875 17.296875 -10.484375 17.296875 -7.171875 
C 17.296875 -7.078125 17.296875 -4.96875 17.203125 -1.953125 
L 17.203125 1.75 
L 17.203125 53.265625 
L 17.203125 56.96875 
C 17.296875 59.78125 17.296875 61.984375 17.296875 62.078125 
C 17.296875 65.390625 17.59375 66.890625 18.5 67.796875 
C 19.703125 68.796875 21.90625 69.390625 24.59375 69.390625 
L 28.40625 69.390625 
L 28.796875 69.890625 
L 28.796875 72.5 
L 28.203125 73 
C 21.203125 73 20.90625 73 18.5 73 
C 16.203125 73 15.703125 73 8.796875 73 
L 7.90625 71.796875 
C 8.5 69.296875 8.703125 65.984375 8.703125 58.28125 
C 8.703125 56.765625 8.703125 55.5625 8.796875 54.5625 
L 8.796875 53.265625 
L 8.796875 1.75 
L 8.796875 0.4375 
C 8.703125 -1.15625 8.703125 -1.265625 8.703125 -2.96875 
L 8.703125 -4.0625 
C 8.703125 -10.875 8.5 -13.6875 7.90625 -16.796875 
z
" id="URW_Palladio_L_Roman-91"/>
       <path d="M 4.09375 14.328125 
C 4.09375 7.421875 3.796875 4.40625 3 0.40625 
C 8.203125 -1.296875 12.09375 -2 16.703125 -2 
C 29.796875 -2 39.09375 5.015625 39.09375 14.828125 
C 39.09375 17.9375 38.203125 20.234375 36.296875 22.25 
C 33.703125 24.75 30.40625 25.953125 21.59375 27.65625 
C 13.40625 29.265625 10.703125 31.265625 10.703125 35.875 
C 10.703125 40.875 14.203125 43.6875 20.296875 43.6875 
C 27 43.6875 32.09375 40.1875 32.09375 35.46875 
L 32.09375 33.171875 
L 34.90625 33.171875 
C 35 38.984375 35.09375 41.375 35.40625 44.484375 
C 30.09375 46.296875 26.5 47 22.40625 47 
C 10.796875 47 3.703125 41.484375 3.703125 32.46875 
C 3.703125 27.65625 5.90625 24.25 10.5 22.140625 
C 13.203125 20.9375 18.5 19.34375 25.296875 17.828125 
C 29.796875 16.828125 31.703125 14.734375 31.703125 10.921875 
C 31.703125 5.515625 26.703125 1.703125 19.59375 1.703125 
C 12.296875 1.703125 7.09375 5.203125 7.09375 10.21875 
L 7.09375 14.328125 
z
" id="URW_Palladio_L_Roman-115"/>
       <path d="M 39.90625 31.15625 
C 39.90625 35.765625 40.40625 39.875 41.296875 43.484375 
C 37.296875 45.890625 33.796875 47 29.703125 47 
C 24.90625 47 19.296875 45.09375 13.296875 41.28125 
C 6.296875 36.875 2.59375 29.859375 2.59375 21.046875 
C 2.59375 7.515625 12.09375 -2 25.5 -2 
C 30.703125 -2 38.203125 -0.09375 39.203125 1.40625 
L 41.296875 4.609375 
L 40.296875 6.109375 
C 36.59375 4.109375 33.40625 3.203125 29.796875 3.203125 
C 18.703125 3.203125 11.40625 11.828125 11.40625 25.046875 
C 11.40625 35.765625 16.40625 41.78125 25.40625 41.78125 
C 29.796875 41.78125 34.59375 39.78125 36.40625 37.28125 
L 37.09375 31.15625 
z
" id="URW_Palladio_L_Roman-99"/>
       <path d="M 27.90625 47 
C 13.296875 47 3.203125 36.671875 3.203125 21.75 
C 3.203125 7.609375 12.09375 -2 25 -2 
C 40.40625 -2 51.40625 8.71875 51.40625 23.75 
C 51.40625 37.28125 41.59375 47 27.90625 47 
z
M 26.09375 43.6875 
C 35.296875 43.6875 42.09375 33.671875 42.09375 20.046875 
C 42.09375 8.515625 37 1.296875 28.90625 1.296875 
C 19.09375 1.296875 12.5 10.921875 12.5 25.15625 
C 12.5 37.171875 17.296875 43.6875 26.09375 43.6875 
z
" id="URW_Palladio_L_Roman-111"/>
       <path d="M 41.203125 43.78125 
C 35.59375 46.1875 32.796875 47 29.296875 47 
C 26.59375 47 24.203125 46.390625 21.703125 45.109375 
L 12.90625 40.515625 
C 7.203125 37.515625 3.5 30.234375 3.5 21.75 
C 3.5 13.765625 6.203125 7.1875 11.09375 3.1875 
C 14.5 0.296875 19.203125 -1 25.703125 -1 
C 27.703125 -1 30 -0.59375 30.5 -0.203125 
L 41.59375 9.109375 
L 41.09375 -0.109375 
C 46 -0.109375 47.59375 -0.109375 48.796875 -0.109375 
C 49.59375 -0.109375 51 -0.109375 53.09375 -0.109375 
C 53.796875 -0.109375 55.796875 -0.109375 57.90625 -0.109375 
L 57.90625 3 
L 53.296875 3 
C 49.90625 3 49.59375 3.703125 49.59375 10.046875 
L 49.59375 71.984375 
L 48.703125 72.796875 
C 44.296875 71.09375 41 70.28125 33.09375 69.078125 
L 33.09375 66.28125 
L 38.703125 66.28125 
C 40.5 66.28125 41.203125 65.171875 41.203125 62.15625 
z
M 41.203125 22.25 
C 41.203125 15.765625 41 14.78125 39.703125 12.484375 
C 36.90625 7.796875 32 4.71875 27.296875 4.71875 
C 18.5 4.71875 12.203125 13.1875 12.203125 25.046875 
C 12.203125 35.90625 17.59375 42.28125 26.59375 42.28125 
C 30.40625 42.28125 34.40625 40.984375 37.90625 38.59375 
C 40 37.203125 41.203125 35.90625 41.203125 35.09375 
z
" id="URW_Palladio_L_Roman-100"/>
       <path d="M 24.5 73 
C 17.40625 73 17.09375 73 14.796875 73 
C 12.40625 73 11.90625 73 5.09375 73 
L 4.5 72.5 
L 4.5 69.890625 
L 4.90625 69.390625 
L 8.703125 69.390625 
C 11.40625 69.390625 13.5 68.796875 14.703125 67.796875 
C 15.703125 66.890625 16 65.484375 16 62.078125 
C 16 61.78125 16 59.78125 16.09375 56.96875 
L 16.09375 53.265625 
L 16.09375 1.75 
L 16.09375 -1.953125 
C 16 -4.859375 16 -6.671875 16 -6.96875 
C 16 -10.375 15.703125 -11.875 14.703125 -12.78125 
C 13.5 -13.78125 11.40625 -14.390625 8.703125 -14.390625 
L 4.90625 -14.390625 
L 4.5 -14.890625 
L 4.5 -17.5 
L 5.09375 -18 
C 12.09375 -18 12.296875 -18 14.796875 -18 
C 17.09375 -18 17.59375 -18 24.5 -18 
L 25.40625 -16.796875 
C 24.796875 -14.390625 24.703125 -11.28125 24.59375 -3.5625 
C 24.59375 -2.15625 24.59375 -0.859375 24.5 0.4375 
L 24.5 1.75 
L 24.5 53.265625 
L 24.5 54.5625 
C 24.59375 55.671875 24.59375 56.96875 24.59375 58.375 
C 24.59375 66.09375 24.796875 69.390625 25.40625 71.796875 
z
" id="URW_Palladio_L_Roman-93"/>
      </defs>
      <use transform="scale(0.996264)" xlink:href="#URW_Palladio_L_Roman-84"/>
      <use transform="translate(55.591109 0)scale(0.996264)" xlink:href="#URW_Palladio_L_Roman-105"/>
      <use transform="translate(84.581471 0)scale(0.996264)" xlink:href="#URW_Palladio_L_Roman-109"/>
      <use transform="translate(172.551145 0)scale(0.996264)" xlink:href="#URW_Palladio_L_Roman-101"/>
      <use transform="translate(245.17804 0)scale(0.996264)" xlink:href="#URW_Palladio_L_Roman-91"/>
      <use transform="translate(278.35327 0)scale(0.996264)" xlink:href="#URW_Palladio_L_Roman-115"/>
      <use transform="translate(320.594736 0)scale(0.996264)" xlink:href="#URW_Palladio_L_Roman-101"/>
      <use transform="translate(368.315031 0)scale(0.996264)" xlink:href="#URW_Palladio_L_Roman-99"/>
      <use transform="translate(412.5486 0)scale(0.996264)" xlink:href="#URW_Palladio_L_Roman-111"/>
      <use transform="translate(466.94418 0)scale(0.996264)" xlink:href="#URW_Palladio_L_Roman-110"/>
      <use transform="translate(524.926241 0)scale(0.996264)" xlink:href="#URW_Palladio_L_Roman-100"/>
      <use transform="translate(585.797872 0)scale(0.996264)" xlink:href="#URW_Palladio_L_Roman-115"/>
      <use transform="translate(628.039338 0)scale(0.996264)" xlink:href="#URW_Palladio_L_Roman-93"/>
     </g>
    </g>
   </g>
   <g id="matplotlib.axis_4">
    <g id="ytick_6">
     <g id="line2d_41">
      <path clip-path="url(#p2597cb5bb5)" d="M 67.531623 336.0892 
L 568.48221 336.0892 
" style="fill:none;stroke:#000000;stroke-linecap:square;stroke-opacity:0.2;stroke-width:0.5;"/>
     </g>
     <g id="line2d_42">
      <g>
       <use style="fill-opacity:0.2;stroke:#000000;stroke-opacity:0.2;stroke-width:0.8;" x="67.531623" xlink:href="#me5e6d11800" y="336.0892"/>
      </g>
     </g>
     <g id="text_15">
      <!-- $\mathdefault{−1.0}$ -->
      <g transform="translate(23.12516 341.078964)scale(0.14 -0.14)">
       <use transform="scale(1.038107)" xlink:href="#CMSY10-0"/>
       <use transform="translate(81.941696 0)scale(0.996264)" xlink:href="#URW_Palladio_L_Roman-49"/>
       <use transform="translate(131.754897 0)scale(0.996264)" xlink:href="#URW_Palladio_L_Roman-46"/>
       <use transform="translate(156.661497 0)scale(0.996264)" xlink:href="#URW_Palladio_L_Roman-48"/>
      </g>
     </g>
    </g>
    <g id="ytick_7">
     <g id="line2d_43">
      <path clip-path="url(#p2597cb5bb5)" d="M 67.531623 298.576208 
L 568.48221 298.576208 
" style="fill:none;stroke:#000000;stroke-linecap:square;stroke-opacity:0.2;stroke-width:0.5;"/>
     </g>
     <g id="line2d_44">
      <g>
       <use style="fill-opacity:0.2;stroke:#000000;stroke-opacity:0.2;stroke-width:0.8;" x="67.531623" xlink:href="#me5e6d11800" y="298.576208"/>
      </g>
     </g>
     <g id="text_16">
      <!-- $\mathdefault{−0.5}$ -->
      <g transform="translate(23.12516 303.565972)scale(0.14 -0.14)">
       <use transform="scale(1.038107)" xlink:href="#CMSY10-0"/>
       <use transform="translate(81.941696 0)scale(0.996264)" xlink:href="#URW_Palladio_L_Roman-48"/>
       <use transform="translate(131.754897 0)scale(0.996264)" xlink:href="#URW_Palladio_L_Roman-46"/>
       <use transform="translate(156.661497 0)scale(0.996264)" xlink:href="#URW_Palladio_L_Roman-53"/>
      </g>
     </g>
    </g>
    <g id="ytick_8">
     <g id="line2d_45">
      <path clip-path="url(#p2597cb5bb5)" d="M 67.531623 261.063216 
L 568.48221 261.063216 
" style="fill:none;stroke:#000000;stroke-linecap:square;stroke-opacity:0.2;stroke-width:0.5;"/>
     </g>
     <g id="line2d_46">
      <g>
       <use style="fill-opacity:0.2;stroke:#000000;stroke-opacity:0.2;stroke-width:0.8;" x="67.531623" xlink:href="#me5e6d11800" y="261.063216"/>
      </g>
     </g>
     <g id="text_17">
      <!-- $\mathdefault{0.0}$ -->
      <g transform="translate(34.597002 266.052981)scale(0.14 -0.14)">
       <use transform="scale(0.996264)" xlink:href="#URW_Palladio_L_Roman-48"/>
       <use transform="translate(49.8132 0)scale(0.996264)" xlink:href="#URW_Palladio_L_Roman-46"/>
       <use transform="translate(74.719801 0)scale(0.996264)" xlink:href="#URW_Palladio_L_Roman-48"/>
      </g>
     </g>
    </g>
    <g id="ytick_9">
     <g id="line2d_47">
      <path clip-path="url(#p2597cb5bb5)" d="M 67.531623 223.550224 
L 568.48221 223.550224 
" style="fill:none;stroke:#000000;stroke-linecap:square;stroke-opacity:0.2;stroke-width:0.5;"/>
     </g>
     <g id="line2d_48">
      <g>
       <use style="fill-opacity:0.2;stroke:#000000;stroke-opacity:0.2;stroke-width:0.8;" x="67.531623" xlink:href="#me5e6d11800" y="223.550224"/>
      </g>
     </g>
     <g id="text_18">
      <!-- $\mathdefault{0.5}$ -->
      <g transform="translate(34.597002 228.539989)scale(0.14 -0.14)">
       <use transform="scale(0.996264)" xlink:href="#URW_Palladio_L_Roman-48"/>
       <use transform="translate(49.8132 0)scale(0.996264)" xlink:href="#URW_Palladio_L_Roman-46"/>
       <use transform="translate(74.719801 0)scale(0.996264)" xlink:href="#URW_Palladio_L_Roman-53"/>
      </g>
     </g>
    </g>
    <g id="ytick_10">
     <g id="line2d_49">
      <path clip-path="url(#p2597cb5bb5)" d="M 67.531623 186.037233 
L 568.48221 186.037233 
" style="fill:none;stroke:#000000;stroke-linecap:square;stroke-opacity:0.2;stroke-width:0.5;"/>
     </g>
     <g id="line2d_50">
      <g>
       <use style="fill-opacity:0.2;stroke:#000000;stroke-opacity:0.2;stroke-width:0.8;" x="67.531623" xlink:href="#me5e6d11800" y="186.037233"/>
      </g>
     </g>
     <g id="text_19">
      <!-- $\mathdefault{1.0}$ -->
      <g transform="translate(34.597002 191.026997)scale(0.14 -0.14)">
       <use transform="scale(0.996264)" xlink:href="#URW_Palladio_L_Roman-49"/>
       <use transform="translate(49.8132 0)scale(0.996264)" xlink:href="#URW_Palladio_L_Roman-46"/>
       <use transform="translate(74.719801 0)scale(0.996264)" xlink:href="#URW_Palladio_L_Roman-48"/>
      </g>
     </g>
    </g>
    <g id="text_20">
     <!-- Output -->
     <g transform="translate(15.753876 280.460143)rotate(-90)scale(0.12 -0.12)">
      <defs>
       <path d="M 40.203125 71 
C 17.40625 71 2.203125 56.1875 2.203125 34.15625 
C 2.203125 13.109375 16.796875 -2 37 -2 
C 59.40625 -2 76.40625 14.71875 76.40625 36.734375 
C 76.40625 57.78125 62.40625 71 40.203125 71 
z
M 38.5 66.78125 
C 55.59375 66.78125 65.703125 54.578125 65.703125 33.75 
C 65.703125 13.90625 56.5 2.203125 41 2.203125 
C 24.203125 2.203125 12.90625 16.421875 12.90625 37.84375 
C 12.90625 56.359375 22.09375 66.78125 38.5 66.78125 
z
" id="URW_Palladio_L_Roman-79"/>
      </defs>
      <use transform="scale(0.996264)" xlink:href="#URW_Palladio_L_Roman-79"/>
      <use transform="translate(78.306281 0)scale(0.996264)" xlink:href="#URW_Palladio_L_Roman-117"/>
      <use transform="translate(138.380016 0)scale(0.996264)" xlink:href="#URW_Palladio_L_Roman-116"/>
      <use transform="translate(170.857104 0)scale(0.996264)" xlink:href="#URW_Palladio_L_Roman-112"/>
      <use transform="translate(230.731498 0)scale(0.996264)" xlink:href="#URW_Palladio_L_Roman-117"/>
      <use transform="translate(290.805232 0)scale(0.996264)" xlink:href="#URW_Palladio_L_Roman-116"/>
     </g>
    </g>
   </g>
   <g id="line2d_51">
    <path clip-path="url(#p2597cb5bb5)" d="M 67.531623 197.29113 
L 77.550634 197.29113 
L 87.569646 206.371628 
L 97.588658 229.118706 
L 107.60767 256.352296 
L 117.626681 279.819712 
L 127.645693 279.819712 
L 137.664705 279.819712 
L 147.683717 279.819712 
L 157.702728 279.819712 
L 167.72174 279.819712 
L 177.740752 279.819712 
L 187.759764 275.121684 
L 197.778775 247.004749 
L 207.797787 220.862284 
L 217.816799 200.365921 
L 227.835811 197.29113 
L 237.854822 197.29113 
L 247.873834 197.29113 
L 257.892846 213.239854 
L 267.911858 237.878912 
L 277.930869 265.774137 
L 287.949881 279.819712 
L 297.968893 279.819712 
L 307.987905 279.819712 
L 318.006916 279.819712 
L 328.025928 279.819712 
L 338.04494 279.819712 
L 348.063952 279.819712 
L 358.082963 265.774137 
L 368.101975 237.878912 
L 378.120987 213.239854 
L 388.139998 197.29113 
L 398.15901 197.29113 
L 408.178022 197.29113 
L 418.197034 200.365921 
L 428.216045 220.862284 
L 438.235057 247.004749 
L 448.254069 275.121684 
L 458.273081 279.819712 
L 468.292092 279.819712 
L 478.311104 279.819712 
L 488.330116 279.819712 
L 498.349128 279.819712 
L 508.368139 279.819712 
L 518.387151 279.819712 
L 528.406163 256.352296 
L 538.425175 229.118706 
L 548.444186 206.371628 
L 558.463198 197.29113 
" style="fill:none;stroke:#6e3b87;stroke-linecap:square;stroke-width:4;"/>
    <defs>
     <path d="M 0 5 
C 1.326016 5 2.597899 4.473168 3.535534 3.535534 
C 4.473168 2.597899 5 1.326016 5 0 
C 5 -1.326016 4.473168 -2.597899 3.535534 -3.535534 
C 2.597899 -4.473168 1.326016 -5 0 -5 
C -1.326016 -5 -2.597899 -4.473168 -3.535534 -3.535534 
C -4.473168 -2.597899 -5 -1.326016 -5 0 
C -5 1.326016 -4.473168 2.597899 -3.535534 3.535534 
C -2.597899 4.473168 -1.326016 5 0 5 
z
" id="mde8152d9d2"/>
    </defs>
    <g clip-path="url(#p2597cb5bb5)">
     <use style="fill:#6e3b87;" x="67.531623" xlink:href="#mde8152d9d2" y="197.29113"/>
     <use style="fill:#6e3b87;" x="77.550634" xlink:href="#mde8152d9d2" y="197.29113"/>
     <use style="fill:#6e3b87;" x="87.569646" xlink:href="#mde8152d9d2" y="206.371628"/>
     <use style="fill:#6e3b87;" x="97.588658" xlink:href="#mde8152d9d2" y="229.118706"/>
     <use style="fill:#6e3b87;" x="107.60767" xlink:href="#mde8152d9d2" y="256.352296"/>
     <use style="fill:#6e3b87;" x="117.626681" xlink:href="#mde8152d9d2" y="279.819712"/>
     <use style="fill:#6e3b87;" x="127.645693" xlink:href="#mde8152d9d2" y="279.819712"/>
     <use style="fill:#6e3b87;" x="137.664705" xlink:href="#mde8152d9d2" y="279.819712"/>
     <use style="fill:#6e3b87;" x="147.683717" xlink:href="#mde8152d9d2" y="279.819712"/>
     <use style="fill:#6e3b87;" x="157.702728" xlink:href="#mde8152d9d2" y="279.819712"/>
     <use style="fill:#6e3b87;" x="167.72174" xlink:href="#mde8152d9d2" y="279.819712"/>
     <use style="fill:#6e3b87;" x="177.740752" xlink:href="#mde8152d9d2" y="279.819712"/>
     <use style="fill:#6e3b87;" x="187.759764" xlink:href="#mde8152d9d2" y="275.121684"/>
     <use style="fill:#6e3b87;" x="197.778775" xlink:href="#mde8152d9d2" y="247.004749"/>
     <use style="fill:#6e3b87;" x="207.797787" xlink:href="#mde8152d9d2" y="220.862284"/>
     <use style="fill:#6e3b87;" x="217.816799" xlink:href="#mde8152d9d2" y="200.365921"/>
     <use style="fill:#6e3b87;" x="227.835811" xlink:href="#mde8152d9d2" y="197.29113"/>
     <use style="fill:#6e3b87;" x="237.854822" xlink:href="#mde8152d9d2" y="197.29113"/>
     <use style="fill:#6e3b87;" x="247.873834" xlink:href="#mde8152d9d2" y="197.29113"/>
     <use style="fill:#6e3b87;" x="257.892846" xlink:href="#mde8152d9d2" y="213.239854"/>
     <use style="fill:#6e3b87;" x="267.911858" xlink:href="#mde8152d9d2" y="237.878912"/>
     <use style="fill:#6e3b87;" x="277.930869" xlink:href="#mde8152d9d2" y="265.774137"/>
     <use style="fill:#6e3b87;" x="287.949881" xlink:href="#mde8152d9d2" y="279.819712"/>
     <use style="fill:#6e3b87;" x="297.968893" xlink:href="#mde8152d9d2" y="279.819712"/>
     <use style="fill:#6e3b87;" x="307.987905" xlink:href="#mde8152d9d2" y="279.819712"/>
     <use style="fill:#6e3b87;" x="318.006916" xlink:href="#mde8152d9d2" y="279.819712"/>
     <use style="fill:#6e3b87;" x="328.025928" xlink:href="#mde8152d9d2" y="279.819712"/>
     <use style="fill:#6e3b87;" x="338.04494" xlink:href="#mde8152d9d2" y="279.819712"/>
     <use style="fill:#6e3b87;" x="348.063952" xlink:href="#mde8152d9d2" y="279.819712"/>
     <use style="fill:#6e3b87;" x="358.082963" xlink:href="#mde8152d9d2" y="265.774137"/>
     <use style="fill:#6e3b87;" x="368.101975" xlink:href="#mde8152d9d2" y="237.878912"/>
     <use style="fill:#6e3b87;" x="378.120987" xlink:href="#mde8152d9d2" y="213.239854"/>
     <use style="fill:#6e3b87;" x="388.139998" xlink:href="#mde8152d9d2" y="197.29113"/>
     <use style="fill:#6e3b87;" x="398.15901" xlink:href="#mde8152d9d2" y="197.29113"/>
     <use style="fill:#6e3b87;" x="408.178022" xlink:href="#mde8152d9d2" y="197.29113"/>
     <use style="fill:#6e3b87;" x="418.197034" xlink:href="#mde8152d9d2" y="200.365921"/>
     <use style="fill:#6e3b87;" x="428.216045" xlink:href="#mde8152d9d2" y="220.862284"/>
     <use style="fill:#6e3b87;" x="438.235057" xlink:href="#mde8152d9d2" y="247.004749"/>
     <use style="fill:#6e3b87;" x="448.254069" xlink:href="#mde8152d9d2" y="275.121684"/>
     <use style="fill:#6e3b87;" x="458.273081" xlink:href="#mde8152d9d2" y="279.819712"/>
     <use style="fill:#6e3b87;" x="468.292092" xlink:href="#mde8152d9d2" y="279.819712"/>
     <use style="fill:#6e3b87;" x="478.311104" xlink:href="#mde8152d9d2" y="279.819712"/>
     <use style="fill:#6e3b87;" x="488.330116" xlink:href="#mde8152d9d2" y="279.819712"/>
     <use style="fill:#6e3b87;" x="498.349128" xlink:href="#mde8152d9d2" y="279.819712"/>
     <use style="fill:#6e3b87;" x="508.368139" xlink:href="#mde8152d9d2" y="279.819712"/>
     <use style="fill:#6e3b87;" x="518.387151" xlink:href="#mde8152d9d2" y="279.819712"/>
     <use style="fill:#6e3b87;" x="528.406163" xlink:href="#mde8152d9d2" y="256.352296"/>
     <use style="fill:#6e3b87;" x="538.425175" xlink:href="#mde8152d9d2" y="229.118706"/>
     <use style="fill:#6e3b87;" x="548.444186" xlink:href="#mde8152d9d2" y="206.371628"/>
     <use style="fill:#6e3b87;" x="558.463198" xlink:href="#mde8152d9d2" y="197.29113"/>
    </g>
   </g>
   <g id="legend_2">
    <g id="patch_5">
     <path d="M 317.980261 332.840499 
L 558.68221 332.840499 
Q 561.48221 332.840499 561.48221 330.040499 
L 561.48221 288.036223 
Q 561.48221 285.236223 558.68221 285.236223 
L 317.980261 285.236223 
Q 315.180261 285.236223 315.180261 288.036223 
L 315.180261 330.040499 
Q 315.180261 332.840499 317.980261 332.840499 
z
" style="fill:#ffffff;opacity:0.95;stroke:#cccccc;stroke-linejoin:miter;stroke-width:0.5;"/>
    </g>
    <g id="line2d_52">
     <path d="M 320.780261 296.836341 
L 334.780261 296.836341 
" style="fill:none;stroke:#ffc438;stroke-dasharray:14.8,6.4;stroke-dashoffset:0;stroke-width:4;"/>
    </g>
    <g id="line2d_53"/>
    <g id="text_21">
     <!-- $v_+$ -->
     <g transform="translate(345.980261 301.736341)scale(0.14 -0.14)">
      <defs>
       <path d="M 33.203125 42.203125 
L 34.296875 40.328125 
C 35.203125 40.921875 36.09375 41.21875 37 41.21875 
C 39.703125 41.21875 41.296875 38.921875 41.296875 34.953125 
C 41.296875 20.203125 31.59375 3.984375 22.796875 3.984375 
C 17.90625 3.984375 14.796875 8.140625 14.796875 14.609375 
C 14.796875 25.046875 18.703125 34.09375 28.5 46.203125 
L 27.5 48 
C 25.5 47.25 24.203125 47 21.40625 47 
C 18.59375 47 14.40625 47 11.5 47.359375 
L 10.296875 47.484375 
C 9.703125 47.59375 9.203125 47.59375 9.09375 47.59375 
C 7.90625 47.59375 7 47.390625 5.90625 46.890625 
C 4.5 44.203125 3.40625 40.625 2.09375 35.140625 
L 4.296875 35.140625 
L 6 39.328125 
C 6.703125 41.015625 8.703125 42.109375 11.09375 42.109375 
C 11.59375 42.109375 12.5 42.109375 13.796875 42.109375 
C 14.59375 42.109375 15.296875 42.109375 16.59375 42.109375 
C 18.703125 42.109375 20.296875 42.109375 22.90625 42.3125 
C 11.796875 30.359375 7.59375 22.09375 7.59375 12.140625 
C 7.59375 4.46875 12.203125 -1 18.59375 -1 
C 22.796875 -1 26.59375 0.796875 31.203125 4.859375 
C 35.90625 9.140625 40.703125 15.796875 43.796875 22.65625 
C 46 27.625 47.703125 34.28125 47.703125 38.25 
C 47.703125 43.9375 45.09375 48 41.5 48 
C 40.203125 48 39 47.59375 38.203125 46.8125 
z
" id="URW_Palladio_L_Italic-118"/>
       <path d="M 40.90625 23 
L 68.796875 23 
C 70.203125 23 72.09375 23 72.09375 25 
C 72.09375 27.015625 70.203125 27.015625 68.796875 27.015625 
L 40.90625 27.015625 
L 40.90625 55.1875 
C 40.90625 56.59375 40.90625 58.5 38.90625 58.5 
C 36.90625 58.5 36.90625 56.59375 36.90625 55.1875 
L 36.90625 27.015625 
L 8.90625 27.015625 
C 7.5 27.015625 5.59375 27.015625 5.59375 25 
C 5.59375 23 7.5 23 8.90625 23 
L 36.90625 23 
L 36.90625 -5.171875 
C 36.90625 -6.578125 36.90625 -8.5 38.90625 -8.5 
C 40.90625 -8.5 40.90625 -6.578125 40.90625 -5.171875 
z
" id="CMR10-43"/>
      </defs>
      <use transform="scale(0.996264)" xlink:href="#URW_Palladio_L_Italic-118"/>
      <use transform="translate(52.004933 -14.943915)scale(0.788955)" xlink:href="#CMR10-43"/>
     </g>
    </g>
    <g id="line2d_54">
     <path d="M 320.780261 318.407326 
L 334.780261 318.407326 
" style="fill:none;stroke:#dc2830;stroke-dasharray:14.8,6.4;stroke-dashoffset:0;stroke-width:4;"/>
    </g>
    <g id="line2d_55"/>
    <g id="text_22">
     <!-- $v_-$ -->
     <g transform="translate(345.980261 323.307326)scale(0.14 -0.14)">
      <use transform="scale(0.996264)" xlink:href="#URW_Palladio_L_Italic-118"/>
      <use transform="translate(52.004933 -14.943915)scale(0.788955)" xlink:href="#CMSY10-0"/>
     </g>
    </g>
    <g id="line2d_56">
     <path d="M 389.851819 296.836341 
L 403.851819 296.836341 
" style="fill:none;stroke:#6e3b87;stroke-linecap:square;stroke-width:4;"/>
    </g>
    <g id="line2d_57">
     <g>
      <use style="fill:#6e3b87;" x="396.851819" xlink:href="#mde8152d9d2" y="296.836341"/>
     </g>
    </g>
    <g id="text_23">
     <!-- $y = \mathrm{clip}(x, -0.25, 0.85)$ -->
     <g transform="translate(415.051819 301.736341)scale(0.14 -0.14)">
      <defs>
       <path d="M -0.703125 -17.546875 
C -0.796875 -18.234375 -0.796875 -18.828125 -0.796875 -19.328125 
C -0.796875 -23.5625 2.90625 -27 7.40625 -27 
C 18 -27 29 -14.734375 34.90625 3.5625 
L 49 47.09375 
L 47.90625 48 
C 45 46.90625 42.703125 46.296875 40.5 46.109375 
L 37 32.984375 
C 35.796875 28.3125 32.296875 21.0625 29 16.1875 
C 25.5 11.109375 20.59375 6.75 18.40625 6.75 
C 17.203125 6.75 16.296875 9.046875 16.40625 11.515625 
L 16.5 12.8125 
L 18 32.09375 
C 18.203125 35.1875 18.40625 38.953125 18.40625 41.734375 
C 18.40625 46.203125 17.703125 48 16 48 
C 14.703125 48 13.296875 47.296875 8.5 44.015625 
L 0.296875 38.453125 
L 1.40625 36.671875 
L 6.40625 39.640625 
L 6.796875 39.953125 
C 7.796875 40.546875 8.5 40.84375 8.90625 40.84375 
C 10.296875 40.84375 11.09375 38.953125 11.09375 35.6875 
C 11.09375 35.578125 11.09375 34.984375 11 34.1875 
L 9.296875 10.03125 
L 9.203125 6.046875 
C 9.203125 1.890625 11 -1 13.5 -1 
C 17.203125 -1 25.59375 7.453125 33.09375 18.671875 
L 28.203125 1.8125 
C 23.09375 -15.625 18.09375 -22.8125 11.09375 -22.8125 
C 7.59375 -22.8125 4.90625 -20.171875 4.90625 -16.75 
C 4.90625 -16.25 5 -15.46875 5.09375 -14.59375 
L 4.09375 -14.1875 
z
" id="URW_Palladio_L_Italic-121"/>
       <path d="M 68.703125 32 
C 70.203125 32 72.09375 32 72.09375 34.015625 
C 72.09375 36.015625 70.203125 36.015625 68.796875 36.015625 
L 8.90625 36.015625 
C 7.5 36.015625 5.59375 36.015625 5.59375 34.015625 
C 5.59375 32 7.5 32 9 32 
z
M 68.796875 13 
C 70.203125 13 72.09375 13 72.09375 15.015625 
C 72.09375 17.015625 70.203125 17.015625 68.703125 17.015625 
L 9 17.015625 
C 7.5 17.015625 5.59375 17.015625 5.59375 15.015625 
C 5.59375 13 7.5 13 8.90625 13 
z
" id="CMR10-61"/>
       <path d="M 2.296875 66.5 
L 7.90625 66.5 
C 9.703125 66.5 10.40625 65.390625 10.40625 62.375 
L 10.40625 10.171875 
C 10.40625 3.8125 10.09375 3.109375 6.703125 3.109375 
L 2.09375 3.109375 
L 2.09375 0 
C 12.09375 0 12.09375 0 14.59375 0 
C 17.09375 0 17.09375 0 27.09375 0 
L 27.09375 3.109375 
L 22.5 3.109375 
C 19.09375 3.109375 18.796875 3.8125 18.796875 10.15625 
L 18.796875 72.203125 
L 17.90625 73.015625 
C 13.5 71.3125 10.203125 70.5 2.296875 69.296875 
z
" id="URW_Palladio_L_Roman-108"/>
       <path d="M 33.09375 -24 
C 33.09375 -23.703125 33.09375 -23.5 31.40625 -21.796875 
C 18.90625 -9.125 15.703125 9.875 15.703125 25.25 
C 15.703125 42.734375 19.5 60.234375 31.796875 72.78125 
C 33.09375 73.984375 33.09375 74.1875 33.09375 74.484375 
C 33.09375 75.1875 32.703125 75.5 32.09375 75.5 
C 31.09375 75.5 22.09375 68.671875 16.203125 55.890625 
C 11.09375 44.84375 9.90625 33.6875 9.90625 25.25 
C 9.90625 17.40625 11 5.25 16.5 -6.109375 
C 22.5 -18.46875 31.09375 -25 32.09375 -25 
C 32.703125 -25 33.09375 -24.703125 33.09375 -24 
z
" id="CMR10-40"/>
       <path d="M 20.40625 12.328125 
C 17.703125 11.421875 15.90625 10.828125 10.59375 9.3125 
C 9.90625 1.703125 7.40625 -4.8125 1.59375 -14.421875 
L 3 -15.53125 
L 7.09375 -13.625 
C 15.203125 -3.109375 19 3.203125 21.796875 10.921875 
z
" id="URW_Palladio_L_Roman-44"/>
       <path d="M 28.90625 25.25 
C 28.90625 33.09375 27.796875 45.25 22.296875 56.59375 
C 16.296875 68.96875 7.703125 75.5 6.703125 75.5 
C 6.09375 75.5 5.703125 75.09375 5.703125 74.484375 
C 5.703125 74.1875 5.703125 73.984375 7.59375 72.1875 
C 17.40625 62.234375 23.09375 46.25 23.09375 25.25 
C 23.09375 8.0625 19.40625 -9.640625 7 -22.296875 
C 5.703125 -23.5 5.703125 -23.703125 5.703125 -24 
C 5.703125 -24.609375 6.09375 -25 6.703125 -25 
C 7.703125 -25 16.703125 -18.171875 22.59375 -5.40625 
C 27.703125 5.65625 28.90625 16.796875 28.90625 25.25 
z
" id="CMR10-41"/>
      </defs>
      <use transform="scale(0.996264)" xlink:href="#URW_Palladio_L_Italic-121"/>
      <use transform="translate(79.977748 0)scale(1.038107)" xlink:href="#CMR10-61"/>
      <use transform="translate(189.593377 0)scale(0.996264)" xlink:href="#URW_Palladio_L_Roman-99"/>
      <use transform="translate(233.826945 0)scale(0.996264)" xlink:href="#URW_Palladio_L_Roman-108"/>
      <use transform="translate(262.817307 0)scale(0.996264)" xlink:href="#URW_Palladio_L_Roman-105"/>
      <use transform="translate(291.807668 0)scale(0.996264)" xlink:href="#URW_Palladio_L_Roman-112"/>
      <use transform="translate(352.927362 0)scale(1.038107)" xlink:href="#CMR10-40"/>
      <use transform="translate(397.360743 0)scale(0.996264)" xlink:href="#URW_Palladio_L_Italic-120"/>
      <use transform="translate(449.414579 0)scale(0.996264)" xlink:href="#URW_Palladio_L_Roman-44"/>
      <use transform="translate(492.170839 0)scale(1.038107)" xlink:href="#CMSY10-0"/>
      <use transform="translate(574.112535 0)scale(0.996264)" xlink:href="#URW_Palladio_L_Roman-48"/>
      <use transform="translate(623.925736 0)scale(0.996264)" xlink:href="#URW_Palladio_L_Roman-46"/>
      <use transform="translate(648.832336 0)scale(0.996264)" xlink:href="#URW_Palladio_L_Roman-50"/>
      <use transform="translate(698.645536 0)scale(0.996264)" xlink:href="#URW_Palladio_L_Roman-53"/>
      <use transform="translate(748.458737 0)scale(0.996264)" xlink:href="#URW_Palladio_L_Roman-44"/>
      <use transform="translate(789.969697 0)scale(0.996264)" xlink:href="#URW_Palladio_L_Roman-48"/>
      <use transform="translate(839.782897 0)scale(0.996264)" xlink:href="#URW_Palladio_L_Roman-46"/>
      <use transform="translate(864.689498 0)scale(0.996264)" xlink:href="#URW_Palladio_L_Roman-56"/>
      <use transform="translate(914.502698 0)scale(0.996264)" xlink:href="#URW_Palladio_L_Roman-53"/>
      <use transform="translate(965.561198 0)scale(1.038107)" xlink:href="#CMR10-41"/>
     </g>
    </g>
    <g id="line2d_58">
     <path d="M 389.851819 318.407326 
L 403.851819 318.407326 
" style="fill:none;stroke:#0271ae;stroke-linecap:square;stroke-opacity:0.2;stroke-width:4;"/>
    </g>
    <g id="line2d_59">
     <g>
      <use style="fill:#0271ae;fill-opacity:0.2;" x="396.851819" xlink:href="#mba44e60129" y="318.407326"/>
     </g>
    </g>
    <g id="text_24">
     <!-- $x[n]$ -->
     <g transform="translate(415.051819 323.307326)scale(0.14 -0.14)">
      <use transform="scale(0.996264)" xlink:href="#URW_Palladio_L_Italic-120"/>
      <use transform="translate(53.299136 0)scale(1.038107)" xlink:href="#CMR10-91"/>
      <use transform="translate(84.581835 0)scale(0.996264)" xlink:href="#URW_Palladio_L_Italic-110"/>
      <use transform="translate(142.464796 0)scale(1.038107)" xlink:href="#CMR10-93"/>
     </g>
    </g>
   </g>
  </g>
 </g>
 <defs>
  <clipPath id="p3ddaf556ce">
   <rect height="157.554565" width="500.950587" x="67.531623" y="8.438465"/>
  </clipPath>
  <clipPath id="p2597cb5bb5">
   <rect height="157.554565" width="500.950587" x="67.531623" y="182.285934"/>
  </clipPath>
 </defs>
</svg>
