<?xml version="1.0" encoding="utf-8" standalone="no"?>
<!DOCTYPE svg PUBLIC "-//W3C//DTD SVG 1.1//EN"
  "http://www.w3.org/Graphics/SVG/1.1/DTD/svg11.dtd">
<svg height="392.37836pt" version="1.1" viewBox="0 0 584.39952 392.37836" width="584.39952pt" xmlns="http://www.w3.org/2000/svg" xmlns:xlink="http://www.w3.org/1999/xlink">
 <metadata>
  <rdf:RDF xmlns:cc="http://creativecommons.org/ns#" xmlns:dc="http://purl.org/dc/elements/1.1/" xmlns:rdf="http://www.w3.org/1999/02/22-rdf-syntax-ns#">
   <cc:Work>
    <dc:type rdf:resource="http://purl.org/dc/dcmitype/StillImage"/>
    <dc:date>2020-08-15T16:23:23.695456</dc:date>
    <dc:format>image/svg+xml</dc:format>
    <dc:creator>
     <cc:Agent>
      <dc:title>Matplotlib v3.3.0rc1.post717+g6a40954ae, https://matplotlib.org/</dc:title>
     </cc:Agent>
    </dc:creator>
   </cc:Work>
  </rdf:RDF>
 </metadata>
 <defs>
  <style type="text/css">*{stroke-linecap:butt;stroke-linejoin:round;}</style>
 </defs>
 <g id="figure_1">
  <g id="patch_1">
   <path d="M 0 392.37836 
L 584.39952 392.37836 
L 584.39952 0 
L 0 0 
z
" style="fill:none;"/>
  </g>
  <g id="axes_1">
   <g id="patch_2">
    <path d="M 67.531623 165.993031 
L 568.48221 165.993031 
L 568.48221 8.438465 
L 67.531623 8.438465 
z
" style="fill:none;"/>
   </g>
   <g id="matplotlib.axis_1">
    <g id="xtick_1">
     <g id="line2d_1">
      <path clip-path="url(#pe97648c96a)" d="M 67.531623 165.993031 
L 67.531623 8.438465 
" style="fill:none;stroke:#000000;stroke-linecap:square;stroke-opacity:0.2;stroke-width:0.5;"/>
     </g>
     <g id="line2d_2">
      <defs>
       <path d="M 0 0 
L 0 3.5 
" id="mf68335dba4" style="stroke:#000000;stroke-opacity:0.2;stroke-width:0.8;"/>
      </defs>
      <g>
       <use style="fill-opacity:0.2;stroke:#000000;stroke-opacity:0.2;stroke-width:0.8;" x="67.531623" xlink:href="#mf68335dba4" y="165.993031"/>
      </g>
     </g>
    </g>
    <g id="xtick_2">
     <g id="line2d_3">
      <path clip-path="url(#pe97648c96a)" d="M 167.72174 165.993031 
L 167.72174 8.438465 
" style="fill:none;stroke:#000000;stroke-linecap:square;stroke-opacity:0.2;stroke-width:0.5;"/>
     </g>
     <g id="line2d_4">
      <g>
       <use style="fill-opacity:0.2;stroke:#000000;stroke-opacity:0.2;stroke-width:0.8;" x="167.72174" xlink:href="#mf68335dba4" y="165.993031"/>
      </g>
     </g>
    </g>
    <g id="xtick_3">
     <g id="line2d_5">
      <path clip-path="url(#pe97648c96a)" d="M 267.911858 165.993031 
L 267.911858 8.438465 
" style="fill:none;stroke:#000000;stroke-linecap:square;stroke-opacity:0.2;stroke-width:0.5;"/>
     </g>
     <g id="line2d_6">
      <g>
       <use style="fill-opacity:0.2;stroke:#000000;stroke-opacity:0.2;stroke-width:0.8;" x="267.911858" xlink:href="#mf68335dba4" y="165.993031"/>
      </g>
     </g>
    </g>
    <g id="xtick_4">
     <g id="line2d_7">
      <path clip-path="url(#pe97648c96a)" d="M 368.101975 165.993031 
L 368.101975 8.438465 
" style="fill:none;stroke:#000000;stroke-linecap:square;stroke-opacity:0.2;stroke-width:0.5;"/>
     </g>
     <g id="line2d_8">
      <g>
       <use style="fill-opacity:0.2;stroke:#000000;stroke-opacity:0.2;stroke-width:0.8;" x="368.101975" xlink:href="#mf68335dba4" y="165.993031"/>
      </g>
     </g>
    </g>
    <g id="xtick_5">
     <g id="line2d_9">
      <path clip-path="url(#pe97648c96a)" d="M 468.292092 165.993031 
L 468.292092 8.438465 
" style="fill:none;stroke:#000000;stroke-linecap:square;stroke-opacity:0.2;stroke-width:0.5;"/>
     </g>
     <g id="line2d_10">
      <g>
       <use style="fill-opacity:0.2;stroke:#000000;stroke-opacity:0.2;stroke-width:0.8;" x="468.292092" xlink:href="#mf68335dba4" y="165.993031"/>
      </g>
     </g>
    </g>
    <g id="xtick_6">
     <g id="line2d_11">
      <path clip-path="url(#pe97648c96a)" d="M 568.48221 165.993031 
L 568.48221 8.438465 
" style="fill:none;stroke:#000000;stroke-linecap:square;stroke-opacity:0.2;stroke-width:0.5;"/>
     </g>
     <g id="line2d_12">
      <g>
       <use style="fill-opacity:0.2;stroke:#000000;stroke-opacity:0.2;stroke-width:0.8;" x="568.48221" xlink:href="#mf68335dba4" y="165.993031"/>
      </g>
     </g>
    </g>
   </g>
   <g id="matplotlib.axis_2">
    <g id="ytick_1">
     <g id="line2d_13">
      <path clip-path="url(#pe97648c96a)" d="M 67.531623 162.241731 
L 568.48221 162.241731 
" style="fill:none;stroke:#000000;stroke-linecap:square;stroke-opacity:0.2;stroke-width:0.5;"/>
     </g>
     <g id="line2d_14">
      <defs>
       <path d="M 0 0 
L -3.5 0 
" id="m4c707d85de" style="stroke:#000000;stroke-opacity:0.2;stroke-width:0.8;"/>
      </defs>
      <g>
       <use style="fill-opacity:0.2;stroke:#000000;stroke-opacity:0.2;stroke-width:0.8;" x="67.531623" xlink:href="#m4c707d85de" y="162.241731"/>
      </g>
     </g>
     <g id="text_1">
      <!-- $\mathdefault{−1.0}$ -->
      <g transform="translate(23.12516 167.231496)scale(0.14 -0.14)">
       <defs>
        <path d="M 4218 1472 
C 4326 1472 4442 1472 4442 1600 
C 4442 1728 4326 1728 4218 1728 
L 755 1728 
C 646 1728 531 1728 531 1600 
C 531 1472 646 1472 755 1472 
z
" id="CMSY10-0" transform="scale(0.015625)"/>
        <path d="M 429 3584 
L 493 3584 
L 1318 3956 
C 1325 3962 1331 3962 1338 3962 
C 1376 3962 1389 3905 1389 3751 
L 1389 613 
C 1389 276 1318 205 973 205 
L 614 205 
L 614 0 
C 1600 0 1600 0 1670 0 
C 1754 0 1894 0 2112 0 
C 2189 0 2413 0 2675 0 
L 2675 205 
L 2342 205 
C 1990 205 1926 276 1926 612 
L 1926 4443 
L 1837 4475 
C 1421 4257 966 4065 384 3860 
z
" id="URWPalladioL-Roma-31" transform="scale(0.015625)"/>
        <path d="M 794 744 
C 602 744 429 564 429 372 
C 429 179 602 0 787 0 
C 992 0 1171 173 1171 372 
C 1171 564 992 744 794 744 
z
" id="URWPalladioL-Roma-2e" transform="scale(0.015625)"/>
        <path d="M 1683 4416 
C 691 4416 186 3628 186 2077 
C 186 1326 320 680 544 366 
C 768 51 1126 -128 1523 -128 
C 2490 -128 2976 705 2976 2346 
C 2976 3749 2560 4416 1683 4416 
z
M 1568 4192 
C 2189 4192 2438 3564 2438 2025 
C 2438 661 2195 96 1606 96 
C 986 96 723 744 723 2308 
C 723 3660 960 4192 1568 4192 
z
" id="URWPalladioL-Roma-30" transform="scale(0.015625)"/>
       </defs>
       <use transform="scale(1.038107)" xlink:href="#CMSY10-0"/>
       <use transform="translate(81.941696 0)scale(0.996264)" xlink:href="#URWPalladioL-Roma-31"/>
       <use transform="translate(131.754897 0)scale(0.996264)" xlink:href="#URWPalladioL-Roma-2e"/>
       <use transform="translate(156.661497 0)scale(0.996264)" xlink:href="#URWPalladioL-Roma-30"/>
      </g>
     </g>
    </g>
    <g id="ytick_2">
     <g id="line2d_15">
      <path clip-path="url(#pe97648c96a)" d="M 67.531623 124.72874 
L 568.48221 124.72874 
" style="fill:none;stroke:#000000;stroke-linecap:square;stroke-opacity:0.2;stroke-width:0.5;"/>
     </g>
     <g id="line2d_16">
      <g>
       <use style="fill-opacity:0.2;stroke:#000000;stroke-opacity:0.2;stroke-width:0.8;" x="67.531623" xlink:href="#m4c707d85de" y="124.72874"/>
      </g>
     </g>
     <g id="text_2">
      <!-- $\mathdefault{−0.5}$ -->
      <g transform="translate(23.12516 129.718504)scale(0.14 -0.14)">
       <defs>
        <path d="M 813 3877 
C 1638 3877 1997 3877 2765 3877 
L 2797 3907 
C 2784 4016 2784 4064 2784 4144 
C 2784 4229 2784 4277 2797 4386 
L 2765 4416 
C 2285 4416 1997 4416 1651 4416 
C 1299 4416 1018 4416 538 4416 
L 506 4403 
C 512 4011 518 3729 518 3523 
C 518 2977 499 2360 480 2077 
L 608 2038 
C 909 2341 1082 2432 1395 2432 
C 2010 2432 2394 1993 2394 1296 
C 2394 580 1984 160 1286 160 
C 941 160 621 277 531 444 
L 237 973 
L 83 883 
C 230 516 307 310 397 27 
C 576 -71 832 -128 1107 -128 
C 1536 -128 1990 59 2342 368 
C 2733 716 2938 1154 2938 1630 
C 2938 2359 2419 2874 1690 2874 
C 1382 2874 1152 2791 755 2554 
z
" id="URWPalladioL-Roma-35" transform="scale(0.015625)"/>
       </defs>
       <use transform="scale(1.038107)" xlink:href="#CMSY10-0"/>
       <use transform="translate(81.941696 0)scale(0.996264)" xlink:href="#URWPalladioL-Roma-30"/>
       <use transform="translate(131.754897 0)scale(0.996264)" xlink:href="#URWPalladioL-Roma-2e"/>
       <use transform="translate(156.661497 0)scale(0.996264)" xlink:href="#URWPalladioL-Roma-35"/>
      </g>
     </g>
    </g>
    <g id="ytick_3">
     <g id="line2d_17">
      <path clip-path="url(#pe97648c96a)" d="M 67.531623 87.215748 
L 568.48221 87.215748 
" style="fill:none;stroke:#000000;stroke-linecap:square;stroke-opacity:0.2;stroke-width:0.5;"/>
     </g>
     <g id="line2d_18">
      <g>
       <use style="fill-opacity:0.2;stroke:#000000;stroke-opacity:0.2;stroke-width:0.8;" x="67.531623" xlink:href="#m4c707d85de" y="87.215748"/>
      </g>
     </g>
     <g id="text_3">
      <!-- $\mathdefault{0.0}$ -->
      <g transform="translate(34.597002 92.205513)scale(0.14 -0.14)">
       <use transform="scale(0.996264)" xlink:href="#URWPalladioL-Roma-30"/>
       <use transform="translate(49.8132 0)scale(0.996264)" xlink:href="#URWPalladioL-Roma-2e"/>
       <use transform="translate(74.719801 0)scale(0.996264)" xlink:href="#URWPalladioL-Roma-30"/>
      </g>
     </g>
    </g>
    <g id="ytick_4">
     <g id="line2d_19">
      <path clip-path="url(#pe97648c96a)" d="M 67.531623 49.702756 
L 568.48221 49.702756 
" style="fill:none;stroke:#000000;stroke-linecap:square;stroke-opacity:0.2;stroke-width:0.5;"/>
     </g>
     <g id="line2d_20">
      <g>
       <use style="fill-opacity:0.2;stroke:#000000;stroke-opacity:0.2;stroke-width:0.8;" x="67.531623" xlink:href="#m4c707d85de" y="49.702756"/>
      </g>
     </g>
     <g id="text_4">
      <!-- $\mathdefault{0.5}$ -->
      <g transform="translate(34.597002 54.692521)scale(0.14 -0.14)">
       <use transform="scale(0.996264)" xlink:href="#URWPalladioL-Roma-30"/>
       <use transform="translate(49.8132 0)scale(0.996264)" xlink:href="#URWPalladioL-Roma-2e"/>
       <use transform="translate(74.719801 0)scale(0.996264)" xlink:href="#URWPalladioL-Roma-35"/>
      </g>
     </g>
    </g>
    <g id="ytick_5">
     <g id="line2d_21">
      <path clip-path="url(#pe97648c96a)" d="M 67.531623 12.189765 
L 568.48221 12.189765 
" style="fill:none;stroke:#000000;stroke-linecap:square;stroke-opacity:0.2;stroke-width:0.5;"/>
     </g>
     <g id="line2d_22">
      <g>
       <use style="fill-opacity:0.2;stroke:#000000;stroke-opacity:0.2;stroke-width:0.8;" x="67.531623" xlink:href="#m4c707d85de" y="12.189765"/>
      </g>
     </g>
     <g id="text_5">
      <!-- $\mathdefault{1.0}$ -->
      <g transform="translate(34.597002 17.179529)scale(0.14 -0.14)">
       <use transform="scale(0.996264)" xlink:href="#URWPalladioL-Roma-31"/>
       <use transform="translate(49.8132 0)scale(0.996264)" xlink:href="#URWPalladioL-Roma-2e"/>
       <use transform="translate(74.719801 0)scale(0.996264)" xlink:href="#URWPalladioL-Roma-30"/>
      </g>
     </g>
    </g>
    <g id="text_6">
     <!-- Input -->
     <g transform="translate(15.753876 101.854616)rotate(-90)scale(0.12 -0.12)">
      <defs>
       <path d="M 1382 3663 
C 1382 4172 1414 4224 1709 4224 
L 2016 4224 
L 2016 4423 
C 1549 4423 1408 4423 1075 4423 
C 755 4423 602 4423 141 4423 
L 141 4224 
L 448 4224 
C 742 4224 774 4172 774 3663 
L 774 766 
C 774 256 742 205 448 205 
L 141 205 
L 141 0 
C 518 0 742 0 1075 0 
C 1408 0 1638 0 2016 0 
L 2016 205 
L 1709 205 
C 1414 205 1382 256 1382 766 
z
" id="URWPalladioL-Roma-49" transform="scale(0.015625)"/>
       <path d="M 2624 -7 
C 3014 -7 3021 -7 3130 -7 
C 3219 -7 3219 -7 3661 -7 
L 3661 179 
L 3398 205 
C 3181 205 3162 244 3162 654 
L 3162 1892 
C 3162 2642 2810 3008 2093 3008 
C 1856 3008 1722 2963 1587 2847 
L 1101 2424 
L 1101 2982 
L 1043 3008 
C 717 2873 384 2783 45 2745 
L 45 2565 
L 282 2565 
C 538 2565 563 2520 563 2094 
L 563 643 
C 563 237 544 192 326 192 
L 38 192 
L 38 -7 
C 474 -7 646 -7 832 -7 
C 1018 -7 1190 -7 1626 -7 
L 1626 192 
L 1338 192 
C 1120 192 1101 237 1101 643 
L 1101 2011 
C 1101 2300 1523 2616 1914 2616 
C 2342 2616 2624 2297 2624 1806 
z
" id="URWPalladioL-Roma-6e" transform="scale(0.015625)"/>
       <path d="M 64 2565 
L 301 2565 
C 557 2565 582 2520 582 2095 
L 582 -1142 
C 582 -1548 563 -1593 346 -1593 
L 51 -1593 
L 51 -1792 
C 691 -1792 691 -1792 851 -1792 
C 1011 -1792 1011 -1792 1651 -1792 
L 1651 -1593 
L 1357 -1593 
C 1139 -1593 1120 -1547 1120 -1138 
L 1120 89 
C 1312 -26 1517 -71 1805 -71 
C 1990 -71 2157 -32 2259 32 
L 2989 505 
C 3245 672 3546 1330 3546 1740 
C 3546 2451 2957 3008 2214 3008 
C 1978 3008 1747 2943 1645 2847 
L 1120 2367 
L 1120 2982 
L 1062 3008 
C 736 2873 403 2783 64 2745 
z
M 1120 1964 
C 1120 2053 1152 2124 1235 2233 
C 1421 2469 1683 2591 2003 2591 
C 2605 2591 2989 2169 2989 1504 
C 2989 787 2560 256 1984 256 
C 1632 256 1370 372 1120 633 
z
" id="URWPalladioL-Roma-70" transform="scale(0.015625)"/>
       <path d="M 3219 3009 
L 3162 3035 
C 2835 2900 2502 2810 2163 2772 
L 2163 2592 
L 2400 2592 
C 2656 2592 2682 2547 2682 2121 
L 2682 1070 
C 2682 928 2592 747 2445 599 
C 2266 418 2061 327 1811 327 
C 1587 327 1408 398 1306 521 
C 1216 624 1171 824 1171 1107 
L 1171 3009 
L 1114 3035 
C 787 2900 454 2810 115 2772 
L 115 2592 
L 352 2592 
C 608 2592 634 2547 634 2122 
L 634 1039 
C 634 587 672 387 787 227 
C 928 33 1171 -64 1536 -64 
C 1824 -64 2080 26 2253 186 
L 2682 585 
C 2682 401 2675 298 2656 0 
C 3085 0 3091 0 3187 0 
C 3277 0 3277 0 3718 0 
L 3718 186 
L 3456 212 
C 3238 212 3219 251 3219 664 
z
" id="URWPalladioL-Roma-75" transform="scale(0.015625)"/>
       <path d="M 627 2476 
L 627 619 
C 627 142 838 -64 1331 -64 
C 1478 -64 1632 -32 1670 13 
L 1978 353 
L 1894 463 
C 1734 372 1638 340 1517 340 
C 1267 340 1165 470 1165 788 
L 1165 2489 
L 1984 2489 
L 2042 2816 
L 1165 2816 
L 1165 3056 
C 1165 3321 1184 3547 1235 3951 
L 1158 4021 
C 1005 3925 813 3842 614 3778 
C 634 3585 640 3463 640 3271 
L 640 2822 
L 141 2598 
L 141 2476 
z
" id="URWPalladioL-Roma-74" transform="scale(0.015625)"/>
      </defs>
      <use transform="scale(0.996264)" xlink:href="#URWPalladioL-Roma-49"/>
      <use transform="translate(33.574079 0)scale(0.996264)" xlink:href="#URWPalladioL-Roma-6e"/>
      <use transform="translate(91.55614 0)scale(0.996264)" xlink:href="#URWPalladioL-Roma-70"/>
      <use transform="translate(151.430533 0)scale(0.996264)" xlink:href="#URWPalladioL-Roma-75"/>
      <use transform="translate(211.504268 0)scale(0.996264)" xlink:href="#URWPalladioL-Roma-74"/>
     </g>
    </g>
   </g>
   <g id="line2d_23">
    <path clip-path="url(#pe97648c96a)" d="M 67.531623 12.189765 
L 77.550634 12.189765 
L 77.550634 17.458353 
L 87.569646 17.458353 
L 87.569646 32.52416 
L 97.588658 32.52416 
L 97.588658 55.271238 
L 107.60767 55.271238 
L 107.60767 82.504828 
L 117.626681 82.504828 
L 117.626681 110.400052 
L 127.645693 110.400052 
L 127.645693 135.03911 
L 137.664705 135.03911 
L 137.664705 152.961518 
L 147.683717 152.961518 
L 147.683717 161.650129 
L 157.702728 161.650129 
L 157.702728 159.884652 
L 167.72174 159.884652 
L 167.72174 147.913044 
L 177.740752 147.913044 
L 177.740752 127.41668 
L 187.759764 127.41668 
L 187.759764 101.274215 
L 197.778775 101.274215 
L 197.778775 73.157281 
L 207.797787 73.157281 
L 207.797787 47.014816 
L 217.816799 47.014816 
L 217.816799 26.518452 
L 227.835811 26.518452 
L 227.835811 14.546844 
L 237.854822 14.546844 
L 237.854822 12.781367 
L 247.873834 12.781367 
L 247.873834 21.469978 
L 257.892846 21.469978 
L 257.892846 39.392386 
L 267.911858 39.392386 
L 267.911858 64.031444 
L 277.930869 64.031444 
L 277.930869 91.926668 
L 287.949881 91.926668 
L 287.949881 119.160258 
L 297.968893 119.160258 
L 297.968893 141.907336 
L 307.987905 141.907336 
L 307.987905 156.973143 
L 318.006916 156.973143 
L 318.006916 162.241731 
L 328.025928 162.241731 
L 328.025928 156.973143 
L 338.04494 156.973143 
L 338.04494 141.907336 
L 348.063952 141.907336 
L 348.063952 119.160258 
L 358.082963 119.160258 
L 358.082963 91.926668 
L 368.101975 91.926668 
L 368.101975 64.031444 
L 378.120987 64.031444 
L 378.120987 39.392386 
L 388.139998 39.392386 
L 388.139998 21.469978 
L 398.15901 21.469978 
L 398.15901 12.781367 
L 408.178022 12.781367 
L 408.178022 14.546844 
L 418.197034 14.546844 
L 418.197034 26.518452 
L 428.216045 26.518452 
L 428.216045 47.014816 
L 438.235057 47.014816 
L 438.235057 73.157281 
L 448.254069 73.157281 
L 448.254069 101.274215 
L 458.273081 101.274215 
L 458.273081 127.41668 
L 468.292092 127.41668 
L 468.292092 147.913044 
L 478.311104 147.913044 
L 478.311104 159.884652 
L 488.330116 159.884652 
L 488.330116 161.650129 
L 498.349128 161.650129 
L 498.349128 152.961518 
L 508.368139 152.961518 
L 508.368139 135.03911 
L 518.387151 135.03911 
L 518.387151 110.400052 
L 528.406163 110.400052 
L 528.406163 82.504828 
L 538.425175 82.504828 
L 538.425175 55.271238 
L 548.444186 55.271238 
L 548.444186 32.52416 
L 558.463198 32.52416 
L 558.463198 17.458353 
" style="fill:none;stroke:#0271ae;stroke-linecap:square;stroke-width:3;"/>
    <defs>
     <path d="M 0 2.5 
C 0.663008 2.5 1.29895 2.236584 1.767767 1.767767 
C 2.236584 1.29895 2.5 0.663008 2.5 0 
C 2.5 -0.663008 2.236584 -1.29895 1.767767 -1.767767 
C 1.29895 -2.236584 0.663008 -2.5 0 -2.5 
C -0.663008 -2.5 -1.29895 -2.236584 -1.767767 -1.767767 
C -2.236584 -1.29895 -2.5 -0.663008 -2.5 0 
C -2.5 0.663008 -2.236584 1.29895 -1.767767 1.767767 
C -1.29895 2.236584 -0.663008 2.5 0 2.5 
z
" id="m85d2f2df5e"/>
    </defs>
    <g clip-path="url(#pe97648c96a)">
     <use style="fill:#0271ae;" x="67.531623" xlink:href="#m85d2f2df5e" y="12.189765"/>
     <use style="fill:#0271ae;" x="77.550634" xlink:href="#m85d2f2df5e" y="17.458353"/>
     <use style="fill:#0271ae;" x="87.569646" xlink:href="#m85d2f2df5e" y="32.52416"/>
     <use style="fill:#0271ae;" x="97.588658" xlink:href="#m85d2f2df5e" y="55.271238"/>
     <use style="fill:#0271ae;" x="107.60767" xlink:href="#m85d2f2df5e" y="82.504828"/>
     <use style="fill:#0271ae;" x="117.626681" xlink:href="#m85d2f2df5e" y="110.400052"/>
     <use style="fill:#0271ae;" x="127.645693" xlink:href="#m85d2f2df5e" y="135.03911"/>
     <use style="fill:#0271ae;" x="137.664705" xlink:href="#m85d2f2df5e" y="152.961518"/>
     <use style="fill:#0271ae;" x="147.683717" xlink:href="#m85d2f2df5e" y="161.650129"/>
     <use style="fill:#0271ae;" x="157.702728" xlink:href="#m85d2f2df5e" y="159.884652"/>
     <use style="fill:#0271ae;" x="167.72174" xlink:href="#m85d2f2df5e" y="147.913044"/>
     <use style="fill:#0271ae;" x="177.740752" xlink:href="#m85d2f2df5e" y="127.41668"/>
     <use style="fill:#0271ae;" x="187.759764" xlink:href="#m85d2f2df5e" y="101.274215"/>
     <use style="fill:#0271ae;" x="197.778775" xlink:href="#m85d2f2df5e" y="73.157281"/>
     <use style="fill:#0271ae;" x="207.797787" xlink:href="#m85d2f2df5e" y="47.014816"/>
     <use style="fill:#0271ae;" x="217.816799" xlink:href="#m85d2f2df5e" y="26.518452"/>
     <use style="fill:#0271ae;" x="227.835811" xlink:href="#m85d2f2df5e" y="14.546844"/>
     <use style="fill:#0271ae;" x="237.854822" xlink:href="#m85d2f2df5e" y="12.781367"/>
     <use style="fill:#0271ae;" x="247.873834" xlink:href="#m85d2f2df5e" y="21.469978"/>
     <use style="fill:#0271ae;" x="257.892846" xlink:href="#m85d2f2df5e" y="39.392386"/>
     <use style="fill:#0271ae;" x="267.911858" xlink:href="#m85d2f2df5e" y="64.031444"/>
     <use style="fill:#0271ae;" x="277.930869" xlink:href="#m85d2f2df5e" y="91.926668"/>
     <use style="fill:#0271ae;" x="287.949881" xlink:href="#m85d2f2df5e" y="119.160258"/>
     <use style="fill:#0271ae;" x="297.968893" xlink:href="#m85d2f2df5e" y="141.907336"/>
     <use style="fill:#0271ae;" x="307.987905" xlink:href="#m85d2f2df5e" y="156.973143"/>
     <use style="fill:#0271ae;" x="318.006916" xlink:href="#m85d2f2df5e" y="162.241731"/>
     <use style="fill:#0271ae;" x="328.025928" xlink:href="#m85d2f2df5e" y="156.973143"/>
     <use style="fill:#0271ae;" x="338.04494" xlink:href="#m85d2f2df5e" y="141.907336"/>
     <use style="fill:#0271ae;" x="348.063952" xlink:href="#m85d2f2df5e" y="119.160258"/>
     <use style="fill:#0271ae;" x="358.082963" xlink:href="#m85d2f2df5e" y="91.926668"/>
     <use style="fill:#0271ae;" x="368.101975" xlink:href="#m85d2f2df5e" y="64.031444"/>
     <use style="fill:#0271ae;" x="378.120987" xlink:href="#m85d2f2df5e" y="39.392386"/>
     <use style="fill:#0271ae;" x="388.139998" xlink:href="#m85d2f2df5e" y="21.469978"/>
     <use style="fill:#0271ae;" x="398.15901" xlink:href="#m85d2f2df5e" y="12.781367"/>
     <use style="fill:#0271ae;" x="408.178022" xlink:href="#m85d2f2df5e" y="14.546844"/>
     <use style="fill:#0271ae;" x="418.197034" xlink:href="#m85d2f2df5e" y="26.518452"/>
     <use style="fill:#0271ae;" x="428.216045" xlink:href="#m85d2f2df5e" y="47.014816"/>
     <use style="fill:#0271ae;" x="438.235057" xlink:href="#m85d2f2df5e" y="73.157281"/>
     <use style="fill:#0271ae;" x="448.254069" xlink:href="#m85d2f2df5e" y="101.274215"/>
     <use style="fill:#0271ae;" x="458.273081" xlink:href="#m85d2f2df5e" y="127.41668"/>
     <use style="fill:#0271ae;" x="468.292092" xlink:href="#m85d2f2df5e" y="147.913044"/>
     <use style="fill:#0271ae;" x="478.311104" xlink:href="#m85d2f2df5e" y="159.884652"/>
     <use style="fill:#0271ae;" x="488.330116" xlink:href="#m85d2f2df5e" y="161.650129"/>
     <use style="fill:#0271ae;" x="498.349128" xlink:href="#m85d2f2df5e" y="152.961518"/>
     <use style="fill:#0271ae;" x="508.368139" xlink:href="#m85d2f2df5e" y="135.03911"/>
     <use style="fill:#0271ae;" x="518.387151" xlink:href="#m85d2f2df5e" y="110.400052"/>
     <use style="fill:#0271ae;" x="528.406163" xlink:href="#m85d2f2df5e" y="82.504828"/>
     <use style="fill:#0271ae;" x="538.425175" xlink:href="#m85d2f2df5e" y="55.271238"/>
     <use style="fill:#0271ae;" x="548.444186" xlink:href="#m85d2f2df5e" y="32.52416"/>
     <use style="fill:#0271ae;" x="558.463198" xlink:href="#m85d2f2df5e" y="17.458353"/>
    </g>
   </g>
   <g id="legend_1">
    <g id="patch_3">
     <path d="M 503.90006 41.20945 
L 558.68221 41.20945 
Q 561.48221 41.20945 561.48221 38.40945 
L 561.48221 18.238465 
Q 561.48221 15.438465 558.68221 15.438465 
L 503.90006 15.438465 
Q 501.10006 15.438465 501.10006 18.238465 
L 501.10006 38.40945 
Q 501.10006 41.20945 503.90006 41.20945 
z
" style="fill:#ffffff;opacity:0.95;stroke:#cccccc;stroke-linejoin:miter;stroke-width:0.5;"/>
    </g>
    <g id="line2d_24">
     <path d="M 506.70006 26.776278 
L 520.70006 26.776278 
" style="fill:none;stroke:#0271ae;stroke-linecap:square;stroke-width:3;"/>
    </g>
    <g id="line2d_25">
     <g>
      <use style="fill:#0271ae;" x="513.70006" xlink:href="#m85d2f2df5e" y="26.776278"/>
     </g>
    </g>
    <g id="text_7">
     <!-- $x[n]$ -->
     <g style="fill:#0271ae;" transform="translate(531.90006 31.676278)scale(0.14 -0.14)">
      <defs>
       <path d="M 134 566 
C 134 438 122 357 83 153 
C 70 77 64 58 58 13 
C 154 -39 256 -64 333 -64 
C 544 -64 794 121 992 419 
L 1478 1164 
L 1549 725 
C 1632 184 1779 -64 2010 -64 
C 2150 -64 2355 44 2560 229 
L 2874 509 
L 2816 630 
C 2586 439 2426 344 2323 344 
C 2227 344 2144 408 2080 534 
C 2022 655 1952 890 1920 1075 
L 1805 1716 
L 2029 2028 
C 2330 2441 2502 2587 2701 2587 
C 2803 2587 2880 2536 2912 2441 
L 3002 2466 
L 3098 3008 
C 3021 3053 2963 3072 2906 3072 
C 2650 3072 2394 2842 1997 2257 
L 1760 1907 
L 1722 2212 
C 1645 2842 1472 3072 1094 3072 
C 928 3072 787 3021 730 2938 
L 358 2409 
L 467 2346 
C 659 2562 787 2651 909 2651 
C 1120 2651 1261 2391 1370 1767 
L 1440 1373 
L 1184 977 
C 909 549 691 344 512 344 
C 416 344 346 371 333 403 
L 262 585 
z
" id="URWPalladioL-Ital-78" transform="scale(0.015625)"/>
       <path d="M 1632 -1600 
L 1632 -1343 
L 1011 -1343 
L 1011 4544 
L 1632 4544 
L 1632 4801 
L 755 4801 
L 755 -1600 
z
" id="CMR10-5b" transform="scale(0.015625)"/>
       <path d="M 154 2471 
L 198 2343 
L 403 2477 
C 640 2625 659 2637 704 2637 
C 774 2637 819 2574 819 2478 
C 819 2152 557 919 294 6 
L 339 -64 
C 499 -20 646 18 787 44 
C 909 849 1043 1264 1338 1705 
C 1683 2241 2163 2637 2451 2637 
C 2522 2637 2560 2580 2560 2484 
C 2560 2369 2541 2235 2490 2031 
L 2157 677 
C 2099 440 2074 294 2074 192 
C 2074 31 2144 -64 2266 -64 
C 2432 -64 2662 69 3290 536 
L 3226 651 
L 3059 543 
C 2874 421 2733 351 2669 351 
C 2624 351 2586 408 2586 478 
C 2586 510 2592 581 2598 607 
L 3021 2369 
C 3066 2555 3091 2733 3091 2841 
C 3091 2989 3021 3072 2893 3072 
C 2624 3072 2182 2830 1805 2478 
C 1562 2254 1382 2037 1050 1571 
L 1293 2599 
C 1318 2714 1331 2790 1331 2861 
C 1331 2995 1280 3072 1184 3072 
C 1050 3072 800 2932 333 2599 
z
" id="URWPalladioL-Ital-6e" transform="scale(0.015625)"/>
       <path d="M 1018 4801 
L 141 4801 
L 141 4544 
L 762 4544 
L 762 -1343 
L 141 -1343 
L 141 -1600 
L 1018 -1600 
z
" id="CMR10-5d" transform="scale(0.015625)"/>
      </defs>
      <use transform="scale(0.996264)" xlink:href="#URWPalladioL-Ital-78"/>
      <use transform="translate(53.299136 0)scale(1.038107)" xlink:href="#CMR10-5b"/>
      <use transform="translate(84.581835 0)scale(0.996264)" xlink:href="#URWPalladioL-Ital-6e"/>
      <use transform="translate(142.464796 0)scale(1.038107)" xlink:href="#CMR10-5d"/>
     </g>
    </g>
   </g>
  </g>
  <g id="axes_2">
   <g id="patch_4">
    <path d="M 67.531623 339.840499 
L 568.48221 339.840499 
L 568.48221 182.285934 
L 67.531623 182.285934 
z
" style="fill:none;"/>
   </g>
   <g id="line2d_26">
    <path clip-path="url(#p4dea4b66f4)" d="M 67.531623 197.29113 
L 568.48221 197.29113 
" style="fill:none;stroke:#ffc438;stroke-dasharray:11.1,4.8;stroke-dashoffset:0;stroke-width:3;"/>
   </g>
   <g id="line2d_27">
    <path clip-path="url(#p4dea4b66f4)" d="M 67.531623 279.819712 
L 568.48221 279.819712 
" style="fill:none;stroke:#dc2830;stroke-dasharray:11.1,4.8;stroke-dashoffset:0;stroke-width:3;"/>
   </g>
   <g id="line2d_28">
    <path clip-path="url(#p4dea4b66f4)" d="M 67.531623 186.037233 
L 77.550634 186.037233 
L 77.550634 191.305821 
L 87.569646 191.305821 
L 87.569646 206.371628 
L 97.588658 206.371628 
L 97.588658 229.118706 
L 107.60767 229.118706 
L 107.60767 256.352296 
L 117.626681 256.352296 
L 117.626681 284.24752 
L 127.645693 284.24752 
L 127.645693 308.886578 
L 137.664705 308.886578 
L 137.664705 326.808987 
L 147.683717 326.808987 
L 147.683717 335.497597 
L 157.702728 335.497597 
L 157.702728 333.73212 
L 167.72174 333.73212 
L 167.72174 321.760512 
L 177.740752 321.760512 
L 177.740752 301.264148 
L 187.759764 301.264148 
L 187.759764 275.121684 
L 197.778775 275.121684 
L 197.778775 247.004749 
L 207.797787 247.004749 
L 207.797787 220.862284 
L 217.816799 220.862284 
L 217.816799 200.365921 
L 227.835811 200.365921 
L 227.835811 188.394312 
L 237.854822 188.394312 
L 237.854822 186.628835 
L 247.873834 186.628835 
L 247.873834 195.317446 
L 257.892846 195.317446 
L 257.892846 213.239854 
L 267.911858 213.239854 
L 267.911858 237.878912 
L 277.930869 237.878912 
L 277.930869 265.774137 
L 287.949881 265.774137 
L 287.949881 293.007726 
L 297.968893 293.007726 
L 297.968893 315.754804 
L 307.987905 315.754804 
L 307.987905 330.820611 
L 318.006916 330.820611 
L 318.006916 336.0892 
L 328.025928 336.0892 
L 328.025928 330.820611 
L 338.04494 330.820611 
L 338.04494 315.754804 
L 348.063952 315.754804 
L 348.063952 293.007726 
L 358.082963 293.007726 
L 358.082963 265.774137 
L 368.101975 265.774137 
L 368.101975 237.878912 
L 378.120987 237.878912 
L 378.120987 213.239854 
L 388.139998 213.239854 
L 388.139998 195.317446 
L 398.15901 195.317446 
L 398.15901 186.628835 
L 408.178022 186.628835 
L 408.178022 188.394312 
L 418.197034 188.394312 
L 418.197034 200.365921 
L 428.216045 200.365921 
L 428.216045 220.862284 
L 438.235057 220.862284 
L 438.235057 247.004749 
L 448.254069 247.004749 
L 448.254069 275.121684 
L 458.273081 275.121684 
L 458.273081 301.264148 
L 468.292092 301.264148 
L 468.292092 321.760512 
L 478.311104 321.760512 
L 478.311104 333.73212 
L 488.330116 333.73212 
L 488.330116 335.497597 
L 498.349128 335.497597 
L 498.349128 326.808987 
L 508.368139 326.808987 
L 508.368139 308.886578 
L 518.387151 308.886578 
L 518.387151 284.24752 
L 528.406163 284.24752 
L 528.406163 256.352296 
L 538.425175 256.352296 
L 538.425175 229.118706 
L 548.444186 229.118706 
L 548.444186 206.371628 
L 558.463198 206.371628 
L 558.463198 191.305821 
" style="fill:none;stroke:#0271ae;stroke-linecap:square;stroke-opacity:0.2;stroke-width:3;"/>
    <defs>
     <path d="M 0 2.5 
C 0.663008 2.5 1.29895 2.236584 1.767767 1.767767 
C 2.236584 1.29895 2.5 0.663008 2.5 0 
C 2.5 -0.663008 2.236584 -1.29895 1.767767 -1.767767 
C 1.29895 -2.236584 0.663008 -2.5 0 -2.5 
C -0.663008 -2.5 -1.29895 -2.236584 -1.767767 -1.767767 
C -2.236584 -1.29895 -2.5 -0.663008 -2.5 0 
C -2.5 0.663008 -2.236584 1.29895 -1.767767 1.767767 
C -1.29895 2.236584 -0.663008 2.5 0 2.5 
z
" id="m5551d92722"/>
    </defs>
    <g clip-path="url(#p4dea4b66f4)">
     <use style="fill:#0271ae;fill-opacity:0.2;" x="67.531623" xlink:href="#m5551d92722" y="186.037233"/>
     <use style="fill:#0271ae;fill-opacity:0.2;" x="77.550634" xlink:href="#m5551d92722" y="191.305821"/>
     <use style="fill:#0271ae;fill-opacity:0.2;" x="87.569646" xlink:href="#m5551d92722" y="206.371628"/>
     <use style="fill:#0271ae;fill-opacity:0.2;" x="97.588658" xlink:href="#m5551d92722" y="229.118706"/>
     <use style="fill:#0271ae;fill-opacity:0.2;" x="107.60767" xlink:href="#m5551d92722" y="256.352296"/>
     <use style="fill:#0271ae;fill-opacity:0.2;" x="117.626681" xlink:href="#m5551d92722" y="284.24752"/>
     <use style="fill:#0271ae;fill-opacity:0.2;" x="127.645693" xlink:href="#m5551d92722" y="308.886578"/>
     <use style="fill:#0271ae;fill-opacity:0.2;" x="137.664705" xlink:href="#m5551d92722" y="326.808987"/>
     <use style="fill:#0271ae;fill-opacity:0.2;" x="147.683717" xlink:href="#m5551d92722" y="335.497597"/>
     <use style="fill:#0271ae;fill-opacity:0.2;" x="157.702728" xlink:href="#m5551d92722" y="333.73212"/>
     <use style="fill:#0271ae;fill-opacity:0.2;" x="167.72174" xlink:href="#m5551d92722" y="321.760512"/>
     <use style="fill:#0271ae;fill-opacity:0.2;" x="177.740752" xlink:href="#m5551d92722" y="301.264148"/>
     <use style="fill:#0271ae;fill-opacity:0.2;" x="187.759764" xlink:href="#m5551d92722" y="275.121684"/>
     <use style="fill:#0271ae;fill-opacity:0.2;" x="197.778775" xlink:href="#m5551d92722" y="247.004749"/>
     <use style="fill:#0271ae;fill-opacity:0.2;" x="207.797787" xlink:href="#m5551d92722" y="220.862284"/>
     <use style="fill:#0271ae;fill-opacity:0.2;" x="217.816799" xlink:href="#m5551d92722" y="200.365921"/>
     <use style="fill:#0271ae;fill-opacity:0.2;" x="227.835811" xlink:href="#m5551d92722" y="188.394312"/>
     <use style="fill:#0271ae;fill-opacity:0.2;" x="237.854822" xlink:href="#m5551d92722" y="186.628835"/>
     <use style="fill:#0271ae;fill-opacity:0.2;" x="247.873834" xlink:href="#m5551d92722" y="195.317446"/>
     <use style="fill:#0271ae;fill-opacity:0.2;" x="257.892846" xlink:href="#m5551d92722" y="213.239854"/>
     <use style="fill:#0271ae;fill-opacity:0.2;" x="267.911858" xlink:href="#m5551d92722" y="237.878912"/>
     <use style="fill:#0271ae;fill-opacity:0.2;" x="277.930869" xlink:href="#m5551d92722" y="265.774137"/>
     <use style="fill:#0271ae;fill-opacity:0.2;" x="287.949881" xlink:href="#m5551d92722" y="293.007726"/>
     <use style="fill:#0271ae;fill-opacity:0.2;" x="297.968893" xlink:href="#m5551d92722" y="315.754804"/>
     <use style="fill:#0271ae;fill-opacity:0.2;" x="307.987905" xlink:href="#m5551d92722" y="330.820611"/>
     <use style="fill:#0271ae;fill-opacity:0.2;" x="318.006916" xlink:href="#m5551d92722" y="336.0892"/>
     <use style="fill:#0271ae;fill-opacity:0.2;" x="328.025928" xlink:href="#m5551d92722" y="330.820611"/>
     <use style="fill:#0271ae;fill-opacity:0.2;" x="338.04494" xlink:href="#m5551d92722" y="315.754804"/>
     <use style="fill:#0271ae;fill-opacity:0.2;" x="348.063952" xlink:href="#m5551d92722" y="293.007726"/>
     <use style="fill:#0271ae;fill-opacity:0.2;" x="358.082963" xlink:href="#m5551d92722" y="265.774137"/>
     <use style="fill:#0271ae;fill-opacity:0.2;" x="368.101975" xlink:href="#m5551d92722" y="237.878912"/>
     <use style="fill:#0271ae;fill-opacity:0.2;" x="378.120987" xlink:href="#m5551d92722" y="213.239854"/>
     <use style="fill:#0271ae;fill-opacity:0.2;" x="388.139998" xlink:href="#m5551d92722" y="195.317446"/>
     <use style="fill:#0271ae;fill-opacity:0.2;" x="398.15901" xlink:href="#m5551d92722" y="186.628835"/>
     <use style="fill:#0271ae;fill-opacity:0.2;" x="408.178022" xlink:href="#m5551d92722" y="188.394312"/>
     <use style="fill:#0271ae;fill-opacity:0.2;" x="418.197034" xlink:href="#m5551d92722" y="200.365921"/>
     <use style="fill:#0271ae;fill-opacity:0.2;" x="428.216045" xlink:href="#m5551d92722" y="220.862284"/>
     <use style="fill:#0271ae;fill-opacity:0.2;" x="438.235057" xlink:href="#m5551d92722" y="247.004749"/>
     <use style="fill:#0271ae;fill-opacity:0.2;" x="448.254069" xlink:href="#m5551d92722" y="275.121684"/>
     <use style="fill:#0271ae;fill-opacity:0.2;" x="458.273081" xlink:href="#m5551d92722" y="301.264148"/>
     <use style="fill:#0271ae;fill-opacity:0.2;" x="468.292092" xlink:href="#m5551d92722" y="321.760512"/>
     <use style="fill:#0271ae;fill-opacity:0.2;" x="478.311104" xlink:href="#m5551d92722" y="333.73212"/>
     <use style="fill:#0271ae;fill-opacity:0.2;" x="488.330116" xlink:href="#m5551d92722" y="335.497597"/>
     <use style="fill:#0271ae;fill-opacity:0.2;" x="498.349128" xlink:href="#m5551d92722" y="326.808987"/>
     <use style="fill:#0271ae;fill-opacity:0.2;" x="508.368139" xlink:href="#m5551d92722" y="308.886578"/>
     <use style="fill:#0271ae;fill-opacity:0.2;" x="518.387151" xlink:href="#m5551d92722" y="284.24752"/>
     <use style="fill:#0271ae;fill-opacity:0.2;" x="528.406163" xlink:href="#m5551d92722" y="256.352296"/>
     <use style="fill:#0271ae;fill-opacity:0.2;" x="538.425175" xlink:href="#m5551d92722" y="229.118706"/>
     <use style="fill:#0271ae;fill-opacity:0.2;" x="548.444186" xlink:href="#m5551d92722" y="206.371628"/>
     <use style="fill:#0271ae;fill-opacity:0.2;" x="558.463198" xlink:href="#m5551d92722" y="191.305821"/>
    </g>
   </g>
   <g id="matplotlib.axis_3">
    <g id="xtick_7">
     <g id="line2d_29">
      <path clip-path="url(#p4dea4b66f4)" d="M 67.531623 339.840499 
L 67.531623 182.285934 
" style="fill:none;stroke:#000000;stroke-linecap:square;stroke-opacity:0.2;stroke-width:0.5;"/>
     </g>
     <g id="line2d_30">
      <g>
       <use style="fill-opacity:0.2;stroke:#000000;stroke-opacity:0.2;stroke-width:0.8;" x="67.531623" xlink:href="#mf68335dba4" y="339.840499"/>
      </g>
     </g>
     <g id="text_8">
      <!-- $\mathdefault{0.0}$ -->
      <g transform="translate(58.814313 365.320028)scale(0.14 -0.14)">
       <use transform="scale(0.996264)" xlink:href="#URWPalladioL-Roma-30"/>
       <use transform="translate(49.8132 0)scale(0.996264)" xlink:href="#URWPalladioL-Roma-2e"/>
       <use transform="translate(74.719801 0)scale(0.996264)" xlink:href="#URWPalladioL-Roma-30"/>
      </g>
     </g>
    </g>
    <g id="xtick_8">
     <g id="line2d_31">
      <path clip-path="url(#p4dea4b66f4)" d="M 167.72174 339.840499 
L 167.72174 182.285934 
" style="fill:none;stroke:#000000;stroke-linecap:square;stroke-opacity:0.2;stroke-width:0.5;"/>
     </g>
     <g id="line2d_32">
      <g>
       <use style="fill-opacity:0.2;stroke:#000000;stroke-opacity:0.2;stroke-width:0.8;" x="167.72174" xlink:href="#mf68335dba4" y="339.840499"/>
      </g>
     </g>
     <g id="text_9">
      <!-- $\mathdefault{0.2}$ -->
      <g transform="translate(159.00443 365.320028)scale(0.14 -0.14)">
       <defs>
        <path d="M 102 160 
L 102 0 
C 1299 0 1299 0 1530 0 
C 1760 0 1760 0 2995 0 
C 2982 125 2982 186 2982 269 
C 2982 348 2982 407 2995 539 
C 2259 539 1965 539 781 539 
L 1946 1761 
C 2566 2414 2758 2763 2758 3238 
C 2758 3966 2259 4416 1446 4416 
C 986 4416 672 4288 358 3969 
L 250 3099 
L 435 3099 
L 518 3393 
C 621 3763 851 3923 1280 3923 
C 1830 3923 2182 3577 2182 3035 
C 2182 2555 1914 2083 1190 1316 
z
" id="URWPalladioL-Roma-32" transform="scale(0.015625)"/>
       </defs>
       <use transform="scale(0.996264)" xlink:href="#URWPalladioL-Roma-30"/>
       <use transform="translate(49.8132 0)scale(0.996264)" xlink:href="#URWPalladioL-Roma-2e"/>
       <use transform="translate(74.719801 0)scale(0.996264)" xlink:href="#URWPalladioL-Roma-32"/>
      </g>
     </g>
    </g>
    <g id="xtick_9">
     <g id="line2d_33">
      <path clip-path="url(#p4dea4b66f4)" d="M 267.911858 339.840499 
L 267.911858 182.285934 
" style="fill:none;stroke:#000000;stroke-linecap:square;stroke-opacity:0.2;stroke-width:0.5;"/>
     </g>
     <g id="line2d_34">
      <g>
       <use style="fill-opacity:0.2;stroke:#000000;stroke-opacity:0.2;stroke-width:0.8;" x="267.911858" xlink:href="#mf68335dba4" y="339.840499"/>
      </g>
     </g>
     <g id="text_10">
      <!-- $\mathdefault{0.4}$ -->
      <g transform="translate(259.194547 365.320028)scale(0.14 -0.14)">
       <defs>
        <path d="M 1792 1152 
L 1792 673 
C 1792 289 1722 199 1408 199 
L 1011 199 
L 1011 0 
C 1862 0 1862 0 2016 0 
C 2170 0 2170 0 3021 0 
L 3021 199 
L 2714 199 
C 2400 199 2330 282 2330 669 
L 2330 1152 
C 2707 1152 2842 1152 3021 1133 
L 3021 1588 
C 2720 1563 2598 1563 2502 1563 
L 2483 1563 
L 2330 1563 
L 2330 2457 
C 2330 3600 2342 4152 2374 4416 
L 2298 4448 
L 1824 4275 
L 13 1299 
L 83 1152 
z
M 1792 1563 
L 416 1563 
L 1792 3826 
z
" id="URWPalladioL-Roma-34" transform="scale(0.015625)"/>
       </defs>
       <use transform="scale(0.996264)" xlink:href="#URWPalladioL-Roma-30"/>
       <use transform="translate(49.8132 0)scale(0.996264)" xlink:href="#URWPalladioL-Roma-2e"/>
       <use transform="translate(74.719801 0)scale(0.996264)" xlink:href="#URWPalladioL-Roma-34"/>
      </g>
     </g>
    </g>
    <g id="xtick_10">
     <g id="line2d_35">
      <path clip-path="url(#p4dea4b66f4)" d="M 368.101975 339.840499 
L 368.101975 182.285934 
" style="fill:none;stroke:#000000;stroke-linecap:square;stroke-opacity:0.2;stroke-width:0.5;"/>
     </g>
     <g id="line2d_36">
      <g>
       <use style="fill-opacity:0.2;stroke:#000000;stroke-opacity:0.2;stroke-width:0.8;" x="368.101975" xlink:href="#mf68335dba4" y="339.840499"/>
      </g>
     </g>
     <g id="text_11">
      <!-- $\mathdefault{0.6}$ -->
      <g transform="translate(359.384665 365.320028)scale(0.14 -0.14)">
       <defs>
        <path d="M 2662 4310 
L 2426 4419 
C 1811 4214 1549 4086 1222 3804 
C 563 3246 205 2464 205 1585 
C 205 526 717 -128 1542 -128 
C 2374 -128 2995 532 2995 1405 
C 2995 2143 2554 2624 1875 2624 
C 1555 2624 1363 2540 986 2239 
C 915 2181 909 2175 838 2124 
C 973 3284 1510 3913 2662 4259 
z
M 1632 2239 
C 2118 2239 2445 1816 2445 1181 
C 2445 513 2118 83 1626 83 
C 1082 83 787 551 787 1412 
C 787 1636 813 1758 883 1867 
C 1024 2085 1325 2239 1632 2239 
z
" id="URWPalladioL-Roma-36" transform="scale(0.015625)"/>
       </defs>
       <use transform="scale(0.996264)" xlink:href="#URWPalladioL-Roma-30"/>
       <use transform="translate(49.8132 0)scale(0.996264)" xlink:href="#URWPalladioL-Roma-2e"/>
       <use transform="translate(74.719801 0)scale(0.996264)" xlink:href="#URWPalladioL-Roma-36"/>
      </g>
     </g>
    </g>
    <g id="xtick_11">
     <g id="line2d_37">
      <path clip-path="url(#p4dea4b66f4)" d="M 468.292092 339.840499 
L 468.292092 182.285934 
" style="fill:none;stroke:#000000;stroke-linecap:square;stroke-opacity:0.2;stroke-width:0.5;"/>
     </g>
     <g id="line2d_38">
      <g>
       <use style="fill-opacity:0.2;stroke:#000000;stroke-opacity:0.2;stroke-width:0.8;" x="468.292092" xlink:href="#mf68335dba4" y="339.840499"/>
      </g>
     </g>
     <g id="text_12">
      <!-- $\mathdefault{0.8}$ -->
      <g transform="translate(459.574782 365.320028)scale(0.14 -0.14)">
       <defs>
        <path d="M 1075 2211 
C 813 2090 704 2019 563 1884 
C 320 1641 192 1352 192 1019 
C 192 359 723 -128 1446 -128 
C 2278 -128 2970 526 2970 1320 
C 2970 1833 2733 2109 2003 2442 
C 2586 2840 2790 3109 2790 3493 
C 2790 4044 2336 4416 1658 4416 
C 896 4416 339 3929 339 3257 
C 339 2821 512 2577 1075 2211 
z
M 1818 1891 
C 2221 1711 2464 1397 2464 1052 
C 2464 513 2061 90 1542 90 
C 998 90 646 475 646 1071 
C 646 1538 832 1833 1306 2122 
z
M 1427 2712 
C 1024 2910 819 3167 819 3487 
C 819 3910 1126 4198 1581 4198 
C 2048 4198 2355 3891 2355 3422 
C 2355 3058 2195 2808 1779 2538 
z
" id="URWPalladioL-Roma-38" transform="scale(0.015625)"/>
       </defs>
       <use transform="scale(0.996264)" xlink:href="#URWPalladioL-Roma-30"/>
       <use transform="translate(49.8132 0)scale(0.996264)" xlink:href="#URWPalladioL-Roma-2e"/>
       <use transform="translate(74.719801 0)scale(0.996264)" xlink:href="#URWPalladioL-Roma-38"/>
      </g>
     </g>
    </g>
    <g id="xtick_12">
     <g id="line2d_39">
      <path clip-path="url(#p4dea4b66f4)" d="M 568.48221 339.840499 
L 568.48221 182.285934 
" style="fill:none;stroke:#000000;stroke-linecap:square;stroke-opacity:0.2;stroke-width:0.5;"/>
     </g>
     <g id="line2d_40">
      <g>
       <use style="fill-opacity:0.2;stroke:#000000;stroke-opacity:0.2;stroke-width:0.8;" x="568.48221" xlink:href="#mf68335dba4" y="339.840499"/>
      </g>
     </g>
     <g id="text_13">
      <!-- $\mathdefault{1.0}$ -->
      <g transform="translate(559.7649 365.320028)scale(0.14 -0.14)">
       <use transform="scale(0.996264)" xlink:href="#URWPalladioL-Roma-31"/>
       <use transform="translate(49.8132 0)scale(0.996264)" xlink:href="#URWPalladioL-Roma-2e"/>
       <use transform="translate(74.719801 0)scale(0.996264)" xlink:href="#URWPalladioL-Roma-30"/>
      </g>
     </g>
    </g>
    <g id="text_14">
     <!-- Time [seconds] -->
     <g transform="translate(278.334065 381.807076)scale(0.12 -0.12)">
      <defs>
       <path d="M 1632 4114 
C 1651 3896 1658 3749 1658 3473 
L 1658 763 
C 1658 256 1626 205 1331 205 
L 1024 205 
L 1024 0 
C 1402 0 1626 0 1958 0 
C 2291 0 2522 0 2899 0 
L 2899 205 
L 2592 205 
C 2298 205 2266 256 2266 763 
L 2266 3473 
C 2266 3762 2272 3903 2291 4114 
L 3283 4114 
C 3462 4114 3533 4057 3539 3904 
L 3565 3400 
L 3763 3400 
C 3763 3810 3776 4056 3808 4416 
C 3347 4416 3136 4416 2957 4416 
C 2707 4416 2522 4416 2426 4416 
L 1414 4416 
C 1350 4416 1005 4416 550 4416 
L 115 4416 
C 147 4056 160 3810 160 3400 
L 358 3400 
L 384 3904 
C 390 4057 461 4114 640 4114 
z
" id="URWPalladioL-Roma-54" transform="scale(0.015625)"/>
       <path d="M 1203 2993 
L 1146 3019 
C 819 2884 486 2793 147 2755 
L 147 2576 
L 384 2576 
C 640 2576 666 2531 666 2105 
L 666 651 
C 666 244 646 199 429 199 
L 134 199 
L 134 0 
C 774 0 774 0 934 0 
C 1094 0 1094 0 1734 0 
L 1734 199 
L 1440 199 
C 1222 199 1203 244 1203 651 
z
M 909 4416 
C 717 4416 550 4249 550 4056 
C 550 3870 717 3704 902 3704 
C 1088 3704 1261 3870 1261 4056 
C 1261 4236 1088 4416 909 4416 
z
" id="URWPalladioL-Roma-69" transform="scale(0.015625)"/>
       <path d="M 115 2565 
L 352 2565 
C 608 2565 634 2520 634 2094 
L 634 643 
C 634 237 614 192 397 192 
L 102 192 
L 102 -7 
C 717 -7 736 -7 915 -7 
C 1094 -7 1261 -7 1677 -7 
L 1677 179 
L 1408 205 
C 1190 205 1171 250 1171 654 
L 1171 2014 
C 1171 2302 1594 2616 1978 2616 
C 2323 2616 2560 2287 2560 1798 
L 2560 643 
C 2560 237 2541 192 2323 192 
L 2029 192 
L 2029 -7 
C 2669 -7 2669 -7 2829 -7 
C 2989 -7 2989 -7 3629 -7 
L 3629 192 
L 3334 192 
C 3117 192 3098 237 3098 643 
L 3098 2011 
C 3098 2300 3520 2616 3904 2616 
C 4250 2616 4486 2291 4486 1806 
L 4486 -7 
C 4877 -7 4883 -7 4992 -7 
C 5075 -7 5075 -7 5562 -7 
L 5562 192 
L 5261 192 
C 5043 192 5024 237 5024 643 
L 5024 1970 
C 5024 2608 4653 3008 4064 3008 
C 3840 3008 3654 2950 3539 2847 
L 3053 2412 
C 2848 2834 2586 3008 2144 3008 
C 1907 3008 1728 2950 1613 2847 
L 1171 2437 
L 1171 2982 
L 1114 3008 
C 787 2873 454 2783 115 2745 
z
" id="URWPalladioL-Roma-6d" transform="scale(0.015625)"/>
       <path d="M 2797 447 
L 2714 511 
C 2304 269 2157 212 1882 212 
C 1466 212 1120 398 941 711 
C 819 921 774 1101 762 1472 
L 1696 1472 
C 2138 1472 2413 1472 2854 1544 
C 2861 1634 2867 1693 2867 1771 
C 2867 2520 2394 3008 1677 3008 
C 1440 3008 1165 2924 902 2770 
C 378 2469 166 2071 166 1404 
C 166 1000 262 654 435 410 
C 691 71 1120 -128 1600 -128 
C 1837 -128 2074 -77 2336 37 
C 2509 108 2643 191 2669 230 
z
M 2298 1690 
C 1965 1690 1811 1690 1581 1690 
C 1286 1690 1120 1690 774 1722 
C 774 2027 800 2169 883 2337 
C 1018 2622 1293 2796 1600 2796 
C 1811 2796 1978 2711 2093 2534 
C 2234 2319 2278 2129 2298 1690 
z
" id="URWPalladioL-Roma-65" transform="scale(0.015625)"/>
       <path d="M 563 -1152 
C 1018 -1152 1030 -1152 1184 -1152 
C 1338 -1152 1370 -1152 1805 -1152 
L 1843 -1120 
L 1843 -953 
L 1818 -921 
L 1574 -921 
C 1402 -921 1261 -882 1184 -818 
C 1126 -760 1107 -671 1107 -459 
C 1107 -453 1107 -318 1101 -125 
L 1101 112 
L 1101 3409 
L 1101 3646 
C 1107 3826 1107 3967 1107 3973 
C 1107 4185 1126 4281 1184 4339 
C 1261 4403 1402 4441 1574 4441 
L 1818 4441 
L 1843 4473 
L 1843 4640 
L 1805 4672 
C 1357 4672 1338 4672 1184 4672 
C 1037 4672 1005 4672 563 4672 
L 506 4595 
C 544 4435 557 4223 557 3730 
C 557 3633 557 3556 563 3492 
L 563 3409 
L 563 112 
L 563 28 
C 557 -74 557 -81 557 -190 
L 557 -260 
C 557 -696 544 -876 506 -1075 
z
" id="URWPalladioL-Roma-5b" transform="scale(0.015625)"/>
       <path d="M 262 917 
C 262 475 243 282 192 26 
C 525 -83 774 -128 1069 -128 
C 1907 -128 2502 321 2502 949 
C 2502 1148 2445 1295 2323 1424 
C 2157 1584 1946 1661 1382 1770 
C 858 1873 685 2001 685 2296 
C 685 2616 909 2796 1299 2796 
C 1728 2796 2054 2572 2054 2270 
L 2054 2123 
L 2234 2123 
C 2240 2495 2246 2648 2266 2847 
C 1926 2963 1696 3008 1434 3008 
C 691 3008 237 2655 237 2078 
C 237 1770 378 1552 672 1417 
C 845 1340 1184 1238 1619 1141 
C 1907 1077 2029 943 2029 699 
C 2029 353 1709 109 1254 109 
C 787 109 454 333 454 654 
L 454 917 
z
" id="URWPalladioL-Roma-73" transform="scale(0.015625)"/>
       <path d="M 2554 1994 
C 2554 2289 2586 2552 2643 2783 
C 2387 2937 2163 3008 1901 3008 
C 1594 3008 1235 2886 851 2642 
C 403 2360 166 1911 166 1347 
C 166 481 774 -128 1632 -128 
C 1965 -128 2445 -6 2509 90 
L 2643 295 
L 2579 391 
C 2342 263 2138 205 1907 205 
C 1197 205 730 757 730 1603 
C 730 2289 1050 2674 1626 2674 
C 1907 2674 2214 2546 2330 2386 
L 2374 1994 
z
" id="URWPalladioL-Roma-63" transform="scale(0.015625)"/>
       <path d="M 1786 3008 
C 851 3008 205 2347 205 1392 
C 205 487 774 -128 1600 -128 
C 2586 -128 3290 558 3290 1520 
C 3290 2386 2662 3008 1786 3008 
z
M 1670 2796 
C 2259 2796 2694 2155 2694 1283 
C 2694 545 2368 83 1850 83 
C 1222 83 800 699 800 1610 
C 800 2379 1107 2796 1670 2796 
z
" id="URWPalladioL-Roma-6f" transform="scale(0.015625)"/>
       <path d="M 2637 2802 
C 2278 2956 2099 3008 1875 3008 
C 1702 3008 1549 2969 1389 2887 
L 826 2593 
C 461 2401 224 1935 224 1392 
C 224 881 397 460 710 204 
C 928 19 1229 -64 1645 -64 
C 1773 -64 1920 -38 1952 -13 
L 2662 583 
L 2630 -7 
C 2944 -7 3046 -7 3123 -7 
C 3174 -7 3264 -7 3398 -7 
C 3443 -7 3571 -7 3706 -7 
L 3706 192 
L 3411 192 
C 3194 192 3174 237 3174 643 
L 3174 4607 
L 3117 4659 
C 2835 4550 2624 4498 2118 4421 
L 2118 4242 
L 2477 4242 
C 2592 4242 2637 4171 2637 3978 
z
M 2637 1424 
C 2637 1009 2624 946 2541 799 
C 2362 499 2048 302 1747 302 
C 1184 302 781 844 781 1603 
C 781 2298 1126 2706 1702 2706 
C 1946 2706 2202 2623 2426 2470 
C 2560 2381 2637 2298 2637 2246 
z
" id="URWPalladioL-Roma-64" transform="scale(0.015625)"/>
       <path d="M 1568 4672 
C 1114 4672 1094 4672 947 4672 
C 794 4672 762 4672 326 4672 
L 288 4640 
L 288 4473 
L 314 4441 
L 557 4441 
C 730 4441 864 4403 941 4339 
C 1005 4281 1024 4191 1024 3973 
C 1024 3954 1024 3826 1030 3646 
L 1030 3409 
L 1030 112 
L 1030 -125 
C 1024 -311 1024 -427 1024 -446 
C 1024 -664 1005 -760 941 -818 
C 864 -882 730 -921 557 -921 
L 314 -921 
L 288 -953 
L 288 -1120 
L 326 -1152 
C 774 -1152 787 -1152 947 -1152 
C 1094 -1152 1126 -1152 1568 -1152 
L 1626 -1075 
C 1587 -921 1581 -722 1574 -228 
C 1574 -138 1574 -55 1568 28 
L 1568 112 
L 1568 3409 
L 1568 3492 
C 1574 3563 1574 3646 1574 3736 
C 1574 4230 1587 4441 1626 4595 
z
" id="URWPalladioL-Roma-5d" transform="scale(0.015625)"/>
      </defs>
      <use transform="scale(0.996264)" xlink:href="#URWPalladioL-Roma-54"/>
      <use transform="translate(55.591109 0)scale(0.996264)" xlink:href="#URWPalladioL-Roma-69"/>
      <use transform="translate(84.581471 0)scale(0.996264)" xlink:href="#URWPalladioL-Roma-6d"/>
      <use transform="translate(172.551145 0)scale(0.996264)" xlink:href="#URWPalladioL-Roma-65"/>
      <use transform="translate(245.17804 0)scale(0.996264)" xlink:href="#URWPalladioL-Roma-5b"/>
      <use transform="translate(278.35327 0)scale(0.996264)" xlink:href="#URWPalladioL-Roma-73"/>
      <use transform="translate(320.594736 0)scale(0.996264)" xlink:href="#URWPalladioL-Roma-65"/>
      <use transform="translate(368.315031 0)scale(0.996264)" xlink:href="#URWPalladioL-Roma-63"/>
      <use transform="translate(412.5486 0)scale(0.996264)" xlink:href="#URWPalladioL-Roma-6f"/>
      <use transform="translate(466.94418 0)scale(0.996264)" xlink:href="#URWPalladioL-Roma-6e"/>
      <use transform="translate(524.926241 0)scale(0.996264)" xlink:href="#URWPalladioL-Roma-64"/>
      <use transform="translate(585.797872 0)scale(0.996264)" xlink:href="#URWPalladioL-Roma-73"/>
      <use transform="translate(628.039338 0)scale(0.996264)" xlink:href="#URWPalladioL-Roma-5d"/>
     </g>
    </g>
   </g>
   <g id="matplotlib.axis_4">
    <g id="ytick_6">
     <g id="line2d_41">
      <path clip-path="url(#p4dea4b66f4)" d="M 67.531623 336.0892 
L 568.48221 336.0892 
" style="fill:none;stroke:#000000;stroke-linecap:square;stroke-opacity:0.2;stroke-width:0.5;"/>
     </g>
     <g id="line2d_42">
      <g>
       <use style="fill-opacity:0.2;stroke:#000000;stroke-opacity:0.2;stroke-width:0.8;" x="67.531623" xlink:href="#m4c707d85de" y="336.0892"/>
      </g>
     </g>
     <g id="text_15">
      <!-- $\mathdefault{−1.0}$ -->
      <g transform="translate(23.12516 341.078964)scale(0.14 -0.14)">
       <use transform="scale(1.038107)" xlink:href="#CMSY10-0"/>
       <use transform="translate(81.941696 0)scale(0.996264)" xlink:href="#URWPalladioL-Roma-31"/>
       <use transform="translate(131.754897 0)scale(0.996264)" xlink:href="#URWPalladioL-Roma-2e"/>
       <use transform="translate(156.661497 0)scale(0.996264)" xlink:href="#URWPalladioL-Roma-30"/>
      </g>
     </g>
    </g>
    <g id="ytick_7">
     <g id="line2d_43">
      <path clip-path="url(#p4dea4b66f4)" d="M 67.531623 298.576208 
L 568.48221 298.576208 
" style="fill:none;stroke:#000000;stroke-linecap:square;stroke-opacity:0.2;stroke-width:0.5;"/>
     </g>
     <g id="line2d_44">
      <g>
       <use style="fill-opacity:0.2;stroke:#000000;stroke-opacity:0.2;stroke-width:0.8;" x="67.531623" xlink:href="#m4c707d85de" y="298.576208"/>
      </g>
     </g>
     <g id="text_16">
      <!-- $\mathdefault{−0.5}$ -->
      <g transform="translate(23.12516 303.565972)scale(0.14 -0.14)">
       <use transform="scale(1.038107)" xlink:href="#CMSY10-0"/>
       <use transform="translate(81.941696 0)scale(0.996264)" xlink:href="#URWPalladioL-Roma-30"/>
       <use transform="translate(131.754897 0)scale(0.996264)" xlink:href="#URWPalladioL-Roma-2e"/>
       <use transform="translate(156.661497 0)scale(0.996264)" xlink:href="#URWPalladioL-Roma-35"/>
      </g>
     </g>
    </g>
    <g id="ytick_8">
     <g id="line2d_45">
      <path clip-path="url(#p4dea4b66f4)" d="M 67.531623 261.063216 
L 568.48221 261.063216 
" style="fill:none;stroke:#000000;stroke-linecap:square;stroke-opacity:0.2;stroke-width:0.5;"/>
     </g>
     <g id="line2d_46">
      <g>
       <use style="fill-opacity:0.2;stroke:#000000;stroke-opacity:0.2;stroke-width:0.8;" x="67.531623" xlink:href="#m4c707d85de" y="261.063216"/>
      </g>
     </g>
     <g id="text_17">
      <!-- $\mathdefault{0.0}$ -->
      <g transform="translate(34.597002 266.052981)scale(0.14 -0.14)">
       <use transform="scale(0.996264)" xlink:href="#URWPalladioL-Roma-30"/>
       <use transform="translate(49.8132 0)scale(0.996264)" xlink:href="#URWPalladioL-Roma-2e"/>
       <use transform="translate(74.719801 0)scale(0.996264)" xlink:href="#URWPalladioL-Roma-30"/>
      </g>
     </g>
    </g>
    <g id="ytick_9">
     <g id="line2d_47">
      <path clip-path="url(#p4dea4b66f4)" d="M 67.531623 223.550224 
L 568.48221 223.550224 
" style="fill:none;stroke:#000000;stroke-linecap:square;stroke-opacity:0.2;stroke-width:0.5;"/>
     </g>
     <g id="line2d_48">
      <g>
       <use style="fill-opacity:0.2;stroke:#000000;stroke-opacity:0.2;stroke-width:0.8;" x="67.531623" xlink:href="#m4c707d85de" y="223.550224"/>
      </g>
     </g>
     <g id="text_18">
      <!-- $\mathdefault{0.5}$ -->
      <g transform="translate(34.597002 228.539989)scale(0.14 -0.14)">
       <use transform="scale(0.996264)" xlink:href="#URWPalladioL-Roma-30"/>
       <use transform="translate(49.8132 0)scale(0.996264)" xlink:href="#URWPalladioL-Roma-2e"/>
       <use transform="translate(74.719801 0)scale(0.996264)" xlink:href="#URWPalladioL-Roma-35"/>
      </g>
     </g>
    </g>
    <g id="ytick_10">
     <g id="line2d_49">
      <path clip-path="url(#p4dea4b66f4)" d="M 67.531623 186.037233 
L 568.48221 186.037233 
" style="fill:none;stroke:#000000;stroke-linecap:square;stroke-opacity:0.2;stroke-width:0.5;"/>
     </g>
     <g id="line2d_50">
      <g>
       <use style="fill-opacity:0.2;stroke:#000000;stroke-opacity:0.2;stroke-width:0.8;" x="67.531623" xlink:href="#m4c707d85de" y="186.037233"/>
      </g>
     </g>
     <g id="text_19">
      <!-- $\mathdefault{1.0}$ -->
      <g transform="translate(34.597002 191.026997)scale(0.14 -0.14)">
       <use transform="scale(0.996264)" xlink:href="#URWPalladioL-Roma-31"/>
       <use transform="translate(49.8132 0)scale(0.996264)" xlink:href="#URWPalladioL-Roma-2e"/>
       <use transform="translate(74.719801 0)scale(0.996264)" xlink:href="#URWPalladioL-Roma-30"/>
      </g>
     </g>
    </g>
    <g id="text_20">
     <!-- Output -->
     <g transform="translate(15.753876 280.460143)rotate(-90)scale(0.12 -0.12)">
      <defs>
       <path d="M 2573 4544 
C 1114 4544 141 3596 141 2186 
C 141 839 1075 -128 2368 -128 
C 3802 -128 4890 942 4890 2351 
C 4890 3698 3994 4544 2573 4544 
z
M 2464 4274 
C 3558 4274 4205 3493 4205 2160 
C 4205 890 3616 141 2624 141 
C 1549 141 826 1051 826 2422 
C 826 3607 1414 4274 2464 4274 
z
" id="URWPalladioL-Roma-4f" transform="scale(0.015625)"/>
      </defs>
      <use transform="scale(0.996264)" xlink:href="#URWPalladioL-Roma-4f"/>
      <use transform="translate(78.306281 0)scale(0.996264)" xlink:href="#URWPalladioL-Roma-75"/>
      <use transform="translate(138.380016 0)scale(0.996264)" xlink:href="#URWPalladioL-Roma-74"/>
      <use transform="translate(170.857104 0)scale(0.996264)" xlink:href="#URWPalladioL-Roma-70"/>
      <use transform="translate(230.731498 0)scale(0.996264)" xlink:href="#URWPalladioL-Roma-75"/>
      <use transform="translate(290.805232 0)scale(0.996264)" xlink:href="#URWPalladioL-Roma-74"/>
     </g>
    </g>
   </g>
   <g id="line2d_51">
    <path clip-path="url(#p4dea4b66f4)" d="M 67.531623 197.29113 
L 77.550634 197.29113 
L 77.550634 197.29113 
L 87.569646 197.29113 
L 87.569646 206.371628 
L 97.588658 206.371628 
L 97.588658 229.118706 
L 107.60767 229.118706 
L 107.60767 256.352296 
L 117.626681 256.352296 
L 117.626681 279.819712 
L 127.645693 279.819712 
L 127.645693 279.819712 
L 137.664705 279.819712 
L 137.664705 279.819712 
L 147.683717 279.819712 
L 147.683717 279.819712 
L 157.702728 279.819712 
L 157.702728 279.819712 
L 167.72174 279.819712 
L 167.72174 279.819712 
L 177.740752 279.819712 
L 177.740752 279.819712 
L 187.759764 279.819712 
L 187.759764 275.121684 
L 197.778775 275.121684 
L 197.778775 247.004749 
L 207.797787 247.004749 
L 207.797787 220.862284 
L 217.816799 220.862284 
L 217.816799 200.365921 
L 227.835811 200.365921 
L 227.835811 197.29113 
L 237.854822 197.29113 
L 237.854822 197.29113 
L 247.873834 197.29113 
L 247.873834 197.29113 
L 257.892846 197.29113 
L 257.892846 213.239854 
L 267.911858 213.239854 
L 267.911858 237.878912 
L 277.930869 237.878912 
L 277.930869 265.774137 
L 287.949881 265.774137 
L 287.949881 279.819712 
L 297.968893 279.819712 
L 297.968893 279.819712 
L 307.987905 279.819712 
L 307.987905 279.819712 
L 318.006916 279.819712 
L 318.006916 279.819712 
L 328.025928 279.819712 
L 328.025928 279.819712 
L 338.04494 279.819712 
L 338.04494 279.819712 
L 348.063952 279.819712 
L 348.063952 279.819712 
L 358.082963 279.819712 
L 358.082963 265.774137 
L 368.101975 265.774137 
L 368.101975 237.878912 
L 378.120987 237.878912 
L 378.120987 213.239854 
L 388.139998 213.239854 
L 388.139998 197.29113 
L 398.15901 197.29113 
L 398.15901 197.29113 
L 408.178022 197.29113 
L 408.178022 197.29113 
L 418.197034 197.29113 
L 418.197034 200.365921 
L 428.216045 200.365921 
L 428.216045 220.862284 
L 438.235057 220.862284 
L 438.235057 247.004749 
L 448.254069 247.004749 
L 448.254069 275.121684 
L 458.273081 275.121684 
L 458.273081 279.819712 
L 468.292092 279.819712 
L 468.292092 279.819712 
L 478.311104 279.819712 
L 478.311104 279.819712 
L 488.330116 279.819712 
L 488.330116 279.819712 
L 498.349128 279.819712 
L 498.349128 279.819712 
L 508.368139 279.819712 
L 508.368139 279.819712 
L 518.387151 279.819712 
L 518.387151 279.819712 
L 528.406163 279.819712 
L 528.406163 256.352296 
L 538.425175 256.352296 
L 538.425175 229.118706 
L 548.444186 229.118706 
L 548.444186 206.371628 
L 558.463198 206.371628 
L 558.463198 197.29113 
" style="fill:none;stroke:#6e3b87;stroke-linecap:square;stroke-width:3;"/>
    <defs>
     <path d="M 0 2.5 
C 0.663008 2.5 1.29895 2.236584 1.767767 1.767767 
C 2.236584 1.29895 2.5 0.663008 2.5 0 
C 2.5 -0.663008 2.236584 -1.29895 1.767767 -1.767767 
C 1.29895 -2.236584 0.663008 -2.5 0 -2.5 
C -0.663008 -2.5 -1.29895 -2.236584 -1.767767 -1.767767 
C -2.236584 -1.29895 -2.5 -0.663008 -2.5 0 
C -2.5 0.663008 -2.236584 1.29895 -1.767767 1.767767 
C -1.29895 2.236584 -0.663008 2.5 0 2.5 
z
" id="m7d54584ea4"/>
    </defs>
    <g clip-path="url(#p4dea4b66f4)">
     <use style="fill:#6e3b87;" x="67.531623" xlink:href="#m7d54584ea4" y="197.29113"/>
     <use style="fill:#6e3b87;" x="77.550634" xlink:href="#m7d54584ea4" y="197.29113"/>
     <use style="fill:#6e3b87;" x="87.569646" xlink:href="#m7d54584ea4" y="206.371628"/>
     <use style="fill:#6e3b87;" x="97.588658" xlink:href="#m7d54584ea4" y="229.118706"/>
     <use style="fill:#6e3b87;" x="107.60767" xlink:href="#m7d54584ea4" y="256.352296"/>
     <use style="fill:#6e3b87;" x="117.626681" xlink:href="#m7d54584ea4" y="279.819712"/>
     <use style="fill:#6e3b87;" x="127.645693" xlink:href="#m7d54584ea4" y="279.819712"/>
     <use style="fill:#6e3b87;" x="137.664705" xlink:href="#m7d54584ea4" y="279.819712"/>
     <use style="fill:#6e3b87;" x="147.683717" xlink:href="#m7d54584ea4" y="279.819712"/>
     <use style="fill:#6e3b87;" x="157.702728" xlink:href="#m7d54584ea4" y="279.819712"/>
     <use style="fill:#6e3b87;" x="167.72174" xlink:href="#m7d54584ea4" y="279.819712"/>
     <use style="fill:#6e3b87;" x="177.740752" xlink:href="#m7d54584ea4" y="279.819712"/>
     <use style="fill:#6e3b87;" x="187.759764" xlink:href="#m7d54584ea4" y="275.121684"/>
     <use style="fill:#6e3b87;" x="197.778775" xlink:href="#m7d54584ea4" y="247.004749"/>
     <use style="fill:#6e3b87;" x="207.797787" xlink:href="#m7d54584ea4" y="220.862284"/>
     <use style="fill:#6e3b87;" x="217.816799" xlink:href="#m7d54584ea4" y="200.365921"/>
     <use style="fill:#6e3b87;" x="227.835811" xlink:href="#m7d54584ea4" y="197.29113"/>
     <use style="fill:#6e3b87;" x="237.854822" xlink:href="#m7d54584ea4" y="197.29113"/>
     <use style="fill:#6e3b87;" x="247.873834" xlink:href="#m7d54584ea4" y="197.29113"/>
     <use style="fill:#6e3b87;" x="257.892846" xlink:href="#m7d54584ea4" y="213.239854"/>
     <use style="fill:#6e3b87;" x="267.911858" xlink:href="#m7d54584ea4" y="237.878912"/>
     <use style="fill:#6e3b87;" x="277.930869" xlink:href="#m7d54584ea4" y="265.774137"/>
     <use style="fill:#6e3b87;" x="287.949881" xlink:href="#m7d54584ea4" y="279.819712"/>
     <use style="fill:#6e3b87;" x="297.968893" xlink:href="#m7d54584ea4" y="279.819712"/>
     <use style="fill:#6e3b87;" x="307.987905" xlink:href="#m7d54584ea4" y="279.819712"/>
     <use style="fill:#6e3b87;" x="318.006916" xlink:href="#m7d54584ea4" y="279.819712"/>
     <use style="fill:#6e3b87;" x="328.025928" xlink:href="#m7d54584ea4" y="279.819712"/>
     <use style="fill:#6e3b87;" x="338.04494" xlink:href="#m7d54584ea4" y="279.819712"/>
     <use style="fill:#6e3b87;" x="348.063952" xlink:href="#m7d54584ea4" y="279.819712"/>
     <use style="fill:#6e3b87;" x="358.082963" xlink:href="#m7d54584ea4" y="265.774137"/>
     <use style="fill:#6e3b87;" x="368.101975" xlink:href="#m7d54584ea4" y="237.878912"/>
     <use style="fill:#6e3b87;" x="378.120987" xlink:href="#m7d54584ea4" y="213.239854"/>
     <use style="fill:#6e3b87;" x="388.139998" xlink:href="#m7d54584ea4" y="197.29113"/>
     <use style="fill:#6e3b87;" x="398.15901" xlink:href="#m7d54584ea4" y="197.29113"/>
     <use style="fill:#6e3b87;" x="408.178022" xlink:href="#m7d54584ea4" y="197.29113"/>
     <use style="fill:#6e3b87;" x="418.197034" xlink:href="#m7d54584ea4" y="200.365921"/>
     <use style="fill:#6e3b87;" x="428.216045" xlink:href="#m7d54584ea4" y="220.862284"/>
     <use style="fill:#6e3b87;" x="438.235057" xlink:href="#m7d54584ea4" y="247.004749"/>
     <use style="fill:#6e3b87;" x="448.254069" xlink:href="#m7d54584ea4" y="275.121684"/>
     <use style="fill:#6e3b87;" x="458.273081" xlink:href="#m7d54584ea4" y="279.819712"/>
     <use style="fill:#6e3b87;" x="468.292092" xlink:href="#m7d54584ea4" y="279.819712"/>
     <use style="fill:#6e3b87;" x="478.311104" xlink:href="#m7d54584ea4" y="279.819712"/>
     <use style="fill:#6e3b87;" x="488.330116" xlink:href="#m7d54584ea4" y="279.819712"/>
     <use style="fill:#6e3b87;" x="498.349128" xlink:href="#m7d54584ea4" y="279.819712"/>
     <use style="fill:#6e3b87;" x="508.368139" xlink:href="#m7d54584ea4" y="279.819712"/>
     <use style="fill:#6e3b87;" x="518.387151" xlink:href="#m7d54584ea4" y="279.819712"/>
     <use style="fill:#6e3b87;" x="528.406163" xlink:href="#m7d54584ea4" y="256.352296"/>
     <use style="fill:#6e3b87;" x="538.425175" xlink:href="#m7d54584ea4" y="229.118706"/>
     <use style="fill:#6e3b87;" x="548.444186" xlink:href="#m7d54584ea4" y="206.371628"/>
     <use style="fill:#6e3b87;" x="558.463198" xlink:href="#m7d54584ea4" y="197.29113"/>
    </g>
   </g>
   <g id="legend_2">
    <g id="patch_5">
     <path d="M 317.980261 332.840499 
L 558.68221 332.840499 
Q 561.48221 332.840499 561.48221 330.040499 
L 561.48221 288.036223 
Q 561.48221 285.236223 558.68221 285.236223 
L 317.980261 285.236223 
Q 315.180261 285.236223 315.180261 288.036223 
L 315.180261 330.040499 
Q 315.180261 332.840499 317.980261 332.840499 
z
" style="fill:#ffffff;opacity:0.95;stroke:#cccccc;stroke-linejoin:miter;stroke-width:0.5;"/>
    </g>
    <g id="line2d_52">
     <path d="M 320.780261 296.836341 
L 334.780261 296.836341 
" style="fill:none;stroke:#ffc438;stroke-dasharray:11.1,4.8;stroke-dashoffset:0;stroke-width:3;"/>
    </g>
    <g id="line2d_53"/>
    <g id="text_21">
     <!-- $v_+$ -->
     <g style="fill:#ffc438;" transform="translate(345.980261 301.736341)scale(0.14 -0.14)">
      <defs>
       <path d="M 2125 2701 
L 2195 2581 
C 2253 2619 2310 2638 2368 2638 
C 2541 2638 2643 2491 2643 2237 
C 2643 1293 2022 255 1459 255 
C 1146 255 947 521 947 935 
C 947 1603 1197 2182 1824 2957 
L 1760 3072 
C 1632 3024 1549 3008 1370 3008 
C 1190 3008 922 3008 736 3031 
L 659 3039 
C 621 3046 589 3046 582 3046 
C 506 3046 448 3033 378 3001 
C 288 2829 218 2600 134 2249 
L 275 2249 
L 384 2517 
C 429 2625 557 2695 710 2695 
C 742 2695 800 2695 883 2695 
C 934 2695 979 2695 1062 2695 
C 1197 2695 1299 2695 1466 2708 
C 755 1943 486 1414 486 777 
C 486 286 781 -64 1190 -64 
C 1459 -64 1702 51 1997 311 
C 2298 585 2605 1011 2803 1450 
C 2944 1768 3053 2194 3053 2448 
C 3053 2812 2886 3072 2656 3072 
C 2573 3072 2496 3046 2445 2996 
z
" id="URWPalladioL-Ital-76" transform="scale(0.015625)"/>
       <path d="M 2618 1472 
L 4403 1472 
C 4493 1472 4614 1472 4614 1600 
C 4614 1729 4493 1729 4403 1729 
L 2618 1729 
L 2618 3532 
C 2618 3622 2618 3744 2490 3744 
C 2362 3744 2362 3622 2362 3532 
L 2362 1729 
L 570 1729 
C 480 1729 358 1729 358 1600 
C 358 1472 480 1472 570 1472 
L 2362 1472 
L 2362 -331 
C 2362 -421 2362 -544 2490 -544 
C 2618 -544 2618 -421 2618 -331 
z
" id="CMR10-2b" transform="scale(0.015625)"/>
      </defs>
      <use transform="scale(0.996264)" xlink:href="#URWPalladioL-Ital-76"/>
      <use transform="translate(52.004933 -14.943915)scale(0.788955)" xlink:href="#CMR10-2b"/>
     </g>
    </g>
    <g id="line2d_54">
     <path d="M 320.780261 318.407326 
L 334.780261 318.407326 
" style="fill:none;stroke:#dc2830;stroke-dasharray:11.1,4.8;stroke-dashoffset:0;stroke-width:3;"/>
    </g>
    <g id="line2d_55"/>
    <g id="text_22">
     <!-- $v_-$ -->
     <g style="fill:#dc2830;" transform="translate(345.980261 323.307326)scale(0.14 -0.14)">
      <use transform="scale(0.996264)" xlink:href="#URWPalladioL-Ital-76"/>
      <use transform="translate(52.004933 -14.943915)scale(0.788955)" xlink:href="#CMSY10-0"/>
     </g>
    </g>
    <g id="line2d_56">
     <path d="M 389.851819 296.836341 
L 403.851819 296.836341 
" style="fill:none;stroke:#6e3b87;stroke-linecap:square;stroke-width:3;"/>
    </g>
    <g id="line2d_57">
     <g>
      <use style="fill:#6e3b87;" x="396.851819" xlink:href="#m7d54584ea4" y="296.836341"/>
     </g>
    </g>
    <g id="text_23">
     <!-- $y = \mathrm{clip}(x, -0.25, 0.85)$ -->
     <g style="fill:#6e3b87;" transform="translate(415.051819 301.736341)scale(0.14 -0.14)">
      <defs>
       <path d="M -45 -1123 
C -51 -1167 -51 -1205 -51 -1237 
C -51 -1508 186 -1728 474 -1728 
C 1152 -1728 1856 -943 2234 228 
L 3136 3014 
L 3066 3072 
C 2880 3002 2733 2963 2592 2951 
L 2368 2111 
C 2291 1812 2067 1348 1856 1036 
C 1632 711 1318 432 1178 432 
C 1101 432 1043 579 1050 737 
L 1056 820 
L 1152 2054 
C 1165 2252 1178 2493 1178 2671 
C 1178 2957 1133 3072 1024 3072 
C 941 3072 851 3027 544 2817 
L 19 2461 
L 90 2347 
L 410 2537 
L 435 2557 
C 499 2595 544 2614 570 2614 
C 659 2614 710 2493 710 2284 
C 710 2277 710 2239 704 2188 
L 595 642 
L 589 387 
C 589 121 704 -64 864 -64 
C 1101 -64 1638 477 2118 1195 
L 1805 116 
C 1478 -1000 1158 -1460 710 -1460 
C 486 -1460 314 -1291 314 -1072 
C 314 -1040 320 -990 326 -934 
L 262 -908 
z
" id="URWPalladioL-Ital-79" transform="scale(0.015625)"/>
       <path d="M 4397 2048 
C 4493 2048 4614 2048 4614 2177 
C 4614 2305 4493 2305 4403 2305 
L 570 2305 
C 480 2305 358 2305 358 2177 
C 358 2048 480 2048 576 2048 
z
M 4403 832 
C 4493 832 4614 832 4614 961 
C 4614 1089 4493 1089 4397 1089 
L 576 1089 
C 480 1089 358 1089 358 961 
C 358 832 480 832 570 832 
z
" id="CMR10-3d" transform="scale(0.015625)"/>
       <path d="M 147 4256 
L 506 4256 
C 621 4256 666 4185 666 3992 
L 666 651 
C 666 244 646 199 429 199 
L 134 199 
L 134 0 
C 774 0 774 0 934 0 
C 1094 0 1094 0 1734 0 
L 1734 199 
L 1440 199 
C 1222 199 1203 244 1203 650 
L 1203 4621 
L 1146 4673 
C 864 4564 653 4512 147 4435 
z
" id="URWPalladioL-Roma-6c" transform="scale(0.015625)"/>
       <path d="M 2118 -1536 
C 2118 -1517 2118 -1504 2010 -1395 
C 1210 -584 1005 632 1005 1616 
C 1005 2735 1248 3855 2035 4658 
C 2118 4735 2118 4748 2118 4767 
C 2118 4812 2093 4832 2054 4832 
C 1990 4832 1414 4395 1037 3577 
C 710 2870 634 2156 634 1616 
C 634 1114 704 336 1056 -391 
C 1440 -1182 1990 -1600 2054 -1600 
C 2093 -1600 2118 -1581 2118 -1536 
z
" id="CMR10-28" transform="scale(0.015625)"/>
       <path d="M 1306 789 
C 1133 731 1018 693 678 596 
C 634 109 474 -308 102 -923 
L 192 -994 
L 454 -872 
C 973 -199 1216 205 1395 699 
z
" id="URWPalladioL-Roma-2c" transform="scale(0.015625)"/>
       <path d="M 1850 1616 
C 1850 2118 1779 2896 1427 3622 
C 1043 4414 493 4832 429 4832 
C 390 4832 365 4806 365 4767 
C 365 4748 365 4735 486 4620 
C 1114 3983 1478 2960 1478 1616 
C 1478 516 1242 -617 448 -1427 
C 365 -1504 365 -1517 365 -1536 
C 365 -1575 390 -1600 429 -1600 
C 493 -1600 1069 -1163 1446 -346 
C 1773 362 1850 1075 1850 1616 
z
" id="CMR10-29" transform="scale(0.015625)"/>
      </defs>
      <use transform="scale(0.996264)" xlink:href="#URWPalladioL-Ital-79"/>
      <use transform="translate(79.977748 0)scale(1.038107)" xlink:href="#CMR10-3d"/>
      <use transform="translate(189.593377 0)scale(0.996264)" xlink:href="#URWPalladioL-Roma-63"/>
      <use transform="translate(233.826945 0)scale(0.996264)" xlink:href="#URWPalladioL-Roma-6c"/>
      <use transform="translate(262.817307 0)scale(0.996264)" xlink:href="#URWPalladioL-Roma-69"/>
      <use transform="translate(291.807668 0)scale(0.996264)" xlink:href="#URWPalladioL-Roma-70"/>
      <use transform="translate(352.927362 0)scale(1.038107)" xlink:href="#CMR10-28"/>
      <use transform="translate(397.360743 0)scale(0.996264)" xlink:href="#URWPalladioL-Ital-78"/>
      <use transform="translate(449.414579 0)scale(0.996264)" xlink:href="#URWPalladioL-Roma-2c"/>
      <use transform="translate(492.170839 0)scale(1.038107)" xlink:href="#CMSY10-0"/>
      <use transform="translate(574.112535 0)scale(0.996264)" xlink:href="#URWPalladioL-Roma-30"/>
      <use transform="translate(623.925736 0)scale(0.996264)" xlink:href="#URWPalladioL-Roma-2e"/>
      <use transform="translate(648.832336 0)scale(0.996264)" xlink:href="#URWPalladioL-Roma-32"/>
      <use transform="translate(698.645536 0)scale(0.996264)" xlink:href="#URWPalladioL-Roma-35"/>
      <use transform="translate(748.458737 0)scale(0.996264)" xlink:href="#URWPalladioL-Roma-2c"/>
      <use transform="translate(789.969697 0)scale(0.996264)" xlink:href="#URWPalladioL-Roma-30"/>
      <use transform="translate(839.782897 0)scale(0.996264)" xlink:href="#URWPalladioL-Roma-2e"/>
      <use transform="translate(864.689498 0)scale(0.996264)" xlink:href="#URWPalladioL-Roma-38"/>
      <use transform="translate(914.502698 0)scale(0.996264)" xlink:href="#URWPalladioL-Roma-35"/>
      <use transform="translate(965.561198 0)scale(1.038107)" xlink:href="#CMR10-29"/>
     </g>
    </g>
    <g id="line2d_58">
     <path d="M 389.851819 318.407326 
L 403.851819 318.407326 
" style="fill:none;stroke:#0271ae;stroke-linecap:square;stroke-opacity:0.2;stroke-width:3;"/>
    </g>
    <g id="line2d_59">
     <g>
      <use style="fill:#0271ae;fill-opacity:0.2;" x="396.851819" xlink:href="#m5551d92722" y="318.407326"/>
     </g>
    </g>
    <g id="text_24">
     <!-- $x[n]$ -->
     <g style="fill:#0271ae;" transform="translate(415.051819 323.307326)scale(0.14 -0.14)">
      <use transform="scale(0.996264)" xlink:href="#URWPalladioL-Ital-78"/>
      <use transform="translate(53.299136 0)scale(1.038107)" xlink:href="#CMR10-5b"/>
      <use transform="translate(84.581835 0)scale(0.996264)" xlink:href="#URWPalladioL-Ital-6e"/>
      <use transform="translate(142.464796 0)scale(1.038107)" xlink:href="#CMR10-5d"/>
     </g>
    </g>
   </g>
  </g>
 </g>
 <defs>
  <clipPath id="pe97648c96a">
   <rect height="157.554565" width="500.950587" x="67.531623" y="8.438465"/>
  </clipPath>
  <clipPath id="p4dea4b66f4">
   <rect height="157.554565" width="500.950587" x="67.531623" y="182.285934"/>
  </clipPath>
 </defs>
</svg>
