<?xml version="1.0" encoding="utf-8" standalone="no"?>
<!DOCTYPE svg PUBLIC "-//W3C//DTD SVG 1.1//EN"
  "http://www.w3.org/Graphics/SVG/1.1/DTD/svg11.dtd">
<svg height="392.39952pt" version="1.1" viewBox="0 0 584.39952 392.39952" width="584.39952pt" xmlns="http://www.w3.org/2000/svg" xmlns:xlink="http://www.w3.org/1999/xlink">
 <metadata>
  <rdf:RDF xmlns:cc="http://creativecommons.org/ns#" xmlns:dc="http://purl.org/dc/elements/1.1/" xmlns:rdf="http://www.w3.org/1999/02/22-rdf-syntax-ns#">
   <cc:Work>
    <dc:type rdf:resource="http://purl.org/dc/dcmitype/StillImage"/>
    <dc:date>2020-08-15T16:24:17.036193</dc:date>
    <dc:format>image/svg+xml</dc:format>
    <dc:creator>
     <cc:Agent>
      <dc:title>Matplotlib v3.3.0rc1.post717+g6a40954ae, https://matplotlib.org/</dc:title>
     </cc:Agent>
    </dc:creator>
   </cc:Work>
  </rdf:RDF>
 </metadata>
 <defs>
  <style type="text/css">*{stroke-linecap:butt;stroke-linejoin:round;}</style>
 </defs>
 <g id="figure_1">
  <g id="patch_1">
   <path d="M 0 392.39952 
L 584.39952 392.39952 
L 584.39952 0 
L 0 0 
z
" style="fill:none;"/>
  </g>
  <g id="axes_1">
   <g id="patch_2">
    <path d="M 23.12516 168.610589 
L 568.48221 168.610589 
L 568.48221 7.2 
L 23.12516 7.2 
z
" style="fill:none;"/>
   </g>
   <g id="matplotlib.axis_1">
    <g id="xtick_1">
     <g id="line2d_1">
      <path clip-path="url(#ped5efc0fb8)" d="M 23.12516 168.610589 
L 23.12516 7.2 
" style="fill:none;stroke:#000000;stroke-linecap:square;stroke-opacity:0.2;stroke-width:0.5;"/>
     </g>
     <g id="line2d_2">
      <defs>
       <path d="M 0 0 
L 0 3.5 
" id="mb20b3d0a0f" style="stroke:#000000;stroke-opacity:0.2;stroke-width:0.8;"/>
      </defs>
      <g>
       <use style="fill-opacity:0.2;stroke:#000000;stroke-opacity:0.2;stroke-width:0.8;" x="23.12516" xlink:href="#mb20b3d0a0f" y="168.610589"/>
      </g>
     </g>
    </g>
    <g id="xtick_2">
     <g id="line2d_3">
      <path clip-path="url(#ped5efc0fb8)" d="M 132.19657 168.610589 
L 132.19657 7.2 
" style="fill:none;stroke:#000000;stroke-linecap:square;stroke-opacity:0.2;stroke-width:0.5;"/>
     </g>
     <g id="line2d_4">
      <g>
       <use style="fill-opacity:0.2;stroke:#000000;stroke-opacity:0.2;stroke-width:0.8;" x="132.19657" xlink:href="#mb20b3d0a0f" y="168.610589"/>
      </g>
     </g>
    </g>
    <g id="xtick_3">
     <g id="line2d_5">
      <path clip-path="url(#ped5efc0fb8)" d="M 241.26798 168.610589 
L 241.26798 7.2 
" style="fill:none;stroke:#000000;stroke-linecap:square;stroke-opacity:0.2;stroke-width:0.5;"/>
     </g>
     <g id="line2d_6">
      <g>
       <use style="fill-opacity:0.2;stroke:#000000;stroke-opacity:0.2;stroke-width:0.8;" x="241.26798" xlink:href="#mb20b3d0a0f" y="168.610589"/>
      </g>
     </g>
    </g>
    <g id="xtick_4">
     <g id="line2d_7">
      <path clip-path="url(#ped5efc0fb8)" d="M 350.33939 168.610589 
L 350.33939 7.2 
" style="fill:none;stroke:#000000;stroke-linecap:square;stroke-opacity:0.2;stroke-width:0.5;"/>
     </g>
     <g id="line2d_8">
      <g>
       <use style="fill-opacity:0.2;stroke:#000000;stroke-opacity:0.2;stroke-width:0.8;" x="350.33939" xlink:href="#mb20b3d0a0f" y="168.610589"/>
      </g>
     </g>
    </g>
    <g id="xtick_5">
     <g id="line2d_9">
      <path clip-path="url(#ped5efc0fb8)" d="M 459.4108 168.610589 
L 459.4108 7.2 
" style="fill:none;stroke:#000000;stroke-linecap:square;stroke-opacity:0.2;stroke-width:0.5;"/>
     </g>
     <g id="line2d_10">
      <g>
       <use style="fill-opacity:0.2;stroke:#000000;stroke-opacity:0.2;stroke-width:0.8;" x="459.4108" xlink:href="#mb20b3d0a0f" y="168.610589"/>
      </g>
     </g>
    </g>
    <g id="xtick_6">
     <g id="line2d_11">
      <path clip-path="url(#ped5efc0fb8)" d="M 568.48221 168.610589 
L 568.48221 7.2 
" style="fill:none;stroke:#000000;stroke-linecap:square;stroke-opacity:0.2;stroke-width:0.5;"/>
     </g>
     <g id="line2d_12">
      <g>
       <use style="fill-opacity:0.2;stroke:#000000;stroke-opacity:0.2;stroke-width:0.8;" x="568.48221" xlink:href="#mb20b3d0a0f" y="168.610589"/>
      </g>
     </g>
    </g>
   </g>
   <g id="matplotlib.axis_2">
    <g id="text_1">
     <!-- Input -->
     <g transform="translate(15.753876 102.544163)rotate(-90)scale(0.12 -0.12)">
      <defs>
       <path d="M 1382 3663 
C 1382 4172 1414 4224 1709 4224 
L 2016 4224 
L 2016 4423 
C 1549 4423 1408 4423 1075 4423 
C 755 4423 602 4423 141 4423 
L 141 4224 
L 448 4224 
C 742 4224 774 4172 774 3663 
L 774 766 
C 774 256 742 205 448 205 
L 141 205 
L 141 0 
C 518 0 742 0 1075 0 
C 1408 0 1638 0 2016 0 
L 2016 205 
L 1709 205 
C 1414 205 1382 256 1382 766 
z
" id="URWPalladioL-Roma-49" transform="scale(0.015625)"/>
       <path d="M 2624 -7 
C 3014 -7 3021 -7 3130 -7 
C 3219 -7 3219 -7 3661 -7 
L 3661 179 
L 3398 205 
C 3181 205 3162 244 3162 654 
L 3162 1892 
C 3162 2642 2810 3008 2093 3008 
C 1856 3008 1722 2963 1587 2847 
L 1101 2424 
L 1101 2982 
L 1043 3008 
C 717 2873 384 2783 45 2745 
L 45 2565 
L 282 2565 
C 538 2565 563 2520 563 2094 
L 563 643 
C 563 237 544 192 326 192 
L 38 192 
L 38 -7 
C 474 -7 646 -7 832 -7 
C 1018 -7 1190 -7 1626 -7 
L 1626 192 
L 1338 192 
C 1120 192 1101 237 1101 643 
L 1101 2011 
C 1101 2300 1523 2616 1914 2616 
C 2342 2616 2624 2297 2624 1806 
z
" id="URWPalladioL-Roma-6e" transform="scale(0.015625)"/>
       <path d="M 64 2565 
L 301 2565 
C 557 2565 582 2520 582 2095 
L 582 -1142 
C 582 -1548 563 -1593 346 -1593 
L 51 -1593 
L 51 -1792 
C 691 -1792 691 -1792 851 -1792 
C 1011 -1792 1011 -1792 1651 -1792 
L 1651 -1593 
L 1357 -1593 
C 1139 -1593 1120 -1547 1120 -1138 
L 1120 89 
C 1312 -26 1517 -71 1805 -71 
C 1990 -71 2157 -32 2259 32 
L 2989 505 
C 3245 672 3546 1330 3546 1740 
C 3546 2451 2957 3008 2214 3008 
C 1978 3008 1747 2943 1645 2847 
L 1120 2367 
L 1120 2982 
L 1062 3008 
C 736 2873 403 2783 64 2745 
z
M 1120 1964 
C 1120 2053 1152 2124 1235 2233 
C 1421 2469 1683 2591 2003 2591 
C 2605 2591 2989 2169 2989 1504 
C 2989 787 2560 256 1984 256 
C 1632 256 1370 372 1120 633 
z
" id="URWPalladioL-Roma-70" transform="scale(0.015625)"/>
       <path d="M 3219 3009 
L 3162 3035 
C 2835 2900 2502 2810 2163 2772 
L 2163 2592 
L 2400 2592 
C 2656 2592 2682 2547 2682 2121 
L 2682 1070 
C 2682 928 2592 747 2445 599 
C 2266 418 2061 327 1811 327 
C 1587 327 1408 398 1306 521 
C 1216 624 1171 824 1171 1107 
L 1171 3009 
L 1114 3035 
C 787 2900 454 2810 115 2772 
L 115 2592 
L 352 2592 
C 608 2592 634 2547 634 2122 
L 634 1039 
C 634 587 672 387 787 227 
C 928 33 1171 -64 1536 -64 
C 1824 -64 2080 26 2253 186 
L 2682 585 
C 2682 401 2675 298 2656 0 
C 3085 0 3091 0 3187 0 
C 3277 0 3277 0 3718 0 
L 3718 186 
L 3456 212 
C 3238 212 3219 251 3219 664 
z
" id="URWPalladioL-Roma-75" transform="scale(0.015625)"/>
       <path d="M 627 2476 
L 627 619 
C 627 142 838 -64 1331 -64 
C 1478 -64 1632 -32 1670 13 
L 1978 353 
L 1894 463 
C 1734 372 1638 340 1517 340 
C 1267 340 1165 470 1165 788 
L 1165 2489 
L 1984 2489 
L 2042 2816 
L 1165 2816 
L 1165 3056 
C 1165 3321 1184 3547 1235 3951 
L 1158 4021 
C 1005 3925 813 3842 614 3778 
C 634 3585 640 3463 640 3271 
L 640 2822 
L 141 2598 
L 141 2476 
z
" id="URWPalladioL-Roma-74" transform="scale(0.015625)"/>
      </defs>
      <use transform="scale(0.996264)" xlink:href="#URWPalladioL-Roma-49"/>
      <use transform="translate(33.574079 0)scale(0.996264)" xlink:href="#URWPalladioL-Roma-6e"/>
      <use transform="translate(91.55614 0)scale(0.996264)" xlink:href="#URWPalladioL-Roma-70"/>
      <use transform="translate(151.430533 0)scale(0.996264)" xlink:href="#URWPalladioL-Roma-75"/>
      <use transform="translate(211.504268 0)scale(0.996264)" xlink:href="#URWPalladioL-Roma-74"/>
     </g>
    </g>
   </g>
   <g id="line2d_13">
    <path clip-path="url(#ped5efc0fb8)" d="M 23.12516 164.76748 
L 34.032301 164.76748 
L 34.032301 157.081261 
L 44.939442 157.081261 
L 44.939442 149.395043 
L 55.846583 149.395043 
L 55.846583 141.708824 
L 66.753724 141.708824 
L 66.753724 134.022606 
L 77.660865 134.022606 
L 77.660865 126.336387 
L 88.568006 126.336387 
L 88.568006 118.650169 
L 99.475147 118.650169 
L 99.475147 110.96395 
L 110.382288 110.96395 
L 110.382288 103.277732 
L 121.289429 103.277732 
L 121.289429 95.591513 
L 132.19657 95.591513 
L 132.19657 87.905295 
L 143.103711 87.905295 
L 143.103711 80.219076 
L 154.010852 80.219076 
L 154.010852 72.532858 
L 164.917993 72.532858 
L 164.917993 64.846639 
L 175.825134 64.846639 
L 175.825134 57.16042 
L 186.732275 57.16042 
L 186.732275 49.474202 
L 197.639416 49.474202 
L 197.639416 41.787983 
L 208.546557 41.787983 
L 208.546557 34.101765 
L 219.453698 34.101765 
L 219.453698 26.415546 
L 230.360839 26.415546 
L 230.360839 18.729328 
L 241.26798 18.729328 
L 241.26798 164.76748 
L 252.175121 164.76748 
L 252.175121 157.081261 
L 263.082262 157.081261 
L 263.082262 149.395043 
L 273.989403 149.395043 
L 273.989403 141.708824 
L 284.896544 141.708824 
L 284.896544 134.022606 
L 295.803685 134.022606 
L 295.803685 126.336387 
L 306.710826 126.336387 
L 306.710826 118.650169 
L 317.617967 118.650169 
L 317.617967 110.96395 
L 328.525108 110.96395 
L 328.525108 103.277732 
L 339.432249 103.277732 
L 339.432249 95.591513 
L 350.33939 95.591513 
L 350.33939 87.905295 
L 361.246531 87.905295 
L 361.246531 80.219076 
L 372.153672 80.219076 
L 372.153672 72.532858 
L 383.060813 72.532858 
L 383.060813 64.846639 
L 393.967954 64.846639 
L 393.967954 57.16042 
L 404.875095 57.16042 
L 404.875095 49.474202 
L 415.782236 49.474202 
L 415.782236 41.787983 
L 426.689377 41.787983 
L 426.689377 34.101765 
L 437.596518 34.101765 
L 437.596518 26.415546 
L 448.503659 26.415546 
L 448.503659 18.729328 
L 459.4108 18.729328 
L 459.4108 164.76748 
L 470.317941 164.76748 
L 470.317941 157.081261 
L 481.225082 157.081261 
L 481.225082 149.395043 
L 492.132223 149.395043 
L 492.132223 141.708824 
L 503.039364 141.708824 
L 503.039364 134.022606 
L 513.946505 134.022606 
L 513.946505 126.336387 
L 524.853646 126.336387 
L 524.853646 118.650169 
L 535.760787 118.650169 
L 535.760787 110.96395 
L 546.667928 110.96395 
L 546.667928 103.277732 
L 557.575069 103.277732 
L 557.575069 95.591513 
" style="fill:none;stroke:#0271ae;stroke-linecap:square;stroke-width:3;"/>
    <defs>
     <path d="M 0 2.5 
C 0.663008 2.5 1.29895 2.236584 1.767767 1.767767 
C 2.236584 1.29895 2.5 0.663008 2.5 0 
C 2.5 -0.663008 2.236584 -1.29895 1.767767 -1.767767 
C 1.29895 -2.236584 0.663008 -2.5 0 -2.5 
C -0.663008 -2.5 -1.29895 -2.236584 -1.767767 -1.767767 
C -2.236584 -1.29895 -2.5 -0.663008 -2.5 0 
C -2.5 0.663008 -2.236584 1.29895 -1.767767 1.767767 
C -1.29895 2.236584 -0.663008 2.5 0 2.5 
z
" id="m58735ddbcd"/>
    </defs>
    <g clip-path="url(#ped5efc0fb8)">
     <use style="fill:#0271ae;" x="23.12516" xlink:href="#m58735ddbcd" y="164.76748"/>
     <use style="fill:#0271ae;" x="34.032301" xlink:href="#m58735ddbcd" y="157.081261"/>
     <use style="fill:#0271ae;" x="44.939442" xlink:href="#m58735ddbcd" y="149.395043"/>
     <use style="fill:#0271ae;" x="55.846583" xlink:href="#m58735ddbcd" y="141.708824"/>
     <use style="fill:#0271ae;" x="66.753724" xlink:href="#m58735ddbcd" y="134.022606"/>
     <use style="fill:#0271ae;" x="77.660865" xlink:href="#m58735ddbcd" y="126.336387"/>
     <use style="fill:#0271ae;" x="88.568006" xlink:href="#m58735ddbcd" y="118.650169"/>
     <use style="fill:#0271ae;" x="99.475147" xlink:href="#m58735ddbcd" y="110.96395"/>
     <use style="fill:#0271ae;" x="110.382288" xlink:href="#m58735ddbcd" y="103.277732"/>
     <use style="fill:#0271ae;" x="121.289429" xlink:href="#m58735ddbcd" y="95.591513"/>
     <use style="fill:#0271ae;" x="132.19657" xlink:href="#m58735ddbcd" y="87.905295"/>
     <use style="fill:#0271ae;" x="143.103711" xlink:href="#m58735ddbcd" y="80.219076"/>
     <use style="fill:#0271ae;" x="154.010852" xlink:href="#m58735ddbcd" y="72.532858"/>
     <use style="fill:#0271ae;" x="164.917993" xlink:href="#m58735ddbcd" y="64.846639"/>
     <use style="fill:#0271ae;" x="175.825134" xlink:href="#m58735ddbcd" y="57.16042"/>
     <use style="fill:#0271ae;" x="186.732275" xlink:href="#m58735ddbcd" y="49.474202"/>
     <use style="fill:#0271ae;" x="197.639416" xlink:href="#m58735ddbcd" y="41.787983"/>
     <use style="fill:#0271ae;" x="208.546557" xlink:href="#m58735ddbcd" y="34.101765"/>
     <use style="fill:#0271ae;" x="219.453698" xlink:href="#m58735ddbcd" y="26.415546"/>
     <use style="fill:#0271ae;" x="230.360839" xlink:href="#m58735ddbcd" y="18.729328"/>
     <use style="fill:#0271ae;" x="241.26798" xlink:href="#m58735ddbcd" y="164.76748"/>
     <use style="fill:#0271ae;" x="252.175121" xlink:href="#m58735ddbcd" y="157.081261"/>
     <use style="fill:#0271ae;" x="263.082262" xlink:href="#m58735ddbcd" y="149.395043"/>
     <use style="fill:#0271ae;" x="273.989403" xlink:href="#m58735ddbcd" y="141.708824"/>
     <use style="fill:#0271ae;" x="284.896544" xlink:href="#m58735ddbcd" y="134.022606"/>
     <use style="fill:#0271ae;" x="295.803685" xlink:href="#m58735ddbcd" y="126.336387"/>
     <use style="fill:#0271ae;" x="306.710826" xlink:href="#m58735ddbcd" y="118.650169"/>
     <use style="fill:#0271ae;" x="317.617967" xlink:href="#m58735ddbcd" y="110.96395"/>
     <use style="fill:#0271ae;" x="328.525108" xlink:href="#m58735ddbcd" y="103.277732"/>
     <use style="fill:#0271ae;" x="339.432249" xlink:href="#m58735ddbcd" y="95.591513"/>
     <use style="fill:#0271ae;" x="350.33939" xlink:href="#m58735ddbcd" y="87.905295"/>
     <use style="fill:#0271ae;" x="361.246531" xlink:href="#m58735ddbcd" y="80.219076"/>
     <use style="fill:#0271ae;" x="372.153672" xlink:href="#m58735ddbcd" y="72.532858"/>
     <use style="fill:#0271ae;" x="383.060813" xlink:href="#m58735ddbcd" y="64.846639"/>
     <use style="fill:#0271ae;" x="393.967954" xlink:href="#m58735ddbcd" y="57.16042"/>
     <use style="fill:#0271ae;" x="404.875095" xlink:href="#m58735ddbcd" y="49.474202"/>
     <use style="fill:#0271ae;" x="415.782236" xlink:href="#m58735ddbcd" y="41.787983"/>
     <use style="fill:#0271ae;" x="426.689377" xlink:href="#m58735ddbcd" y="34.101765"/>
     <use style="fill:#0271ae;" x="437.596518" xlink:href="#m58735ddbcd" y="26.415546"/>
     <use style="fill:#0271ae;" x="448.503659" xlink:href="#m58735ddbcd" y="18.729328"/>
     <use style="fill:#0271ae;" x="459.4108" xlink:href="#m58735ddbcd" y="164.76748"/>
     <use style="fill:#0271ae;" x="470.317941" xlink:href="#m58735ddbcd" y="157.081261"/>
     <use style="fill:#0271ae;" x="481.225082" xlink:href="#m58735ddbcd" y="149.395043"/>
     <use style="fill:#0271ae;" x="492.132223" xlink:href="#m58735ddbcd" y="141.708824"/>
     <use style="fill:#0271ae;" x="503.039364" xlink:href="#m58735ddbcd" y="134.022606"/>
     <use style="fill:#0271ae;" x="513.946505" xlink:href="#m58735ddbcd" y="126.336387"/>
     <use style="fill:#0271ae;" x="524.853646" xlink:href="#m58735ddbcd" y="118.650169"/>
     <use style="fill:#0271ae;" x="535.760787" xlink:href="#m58735ddbcd" y="110.96395"/>
     <use style="fill:#0271ae;" x="546.667928" xlink:href="#m58735ddbcd" y="103.277732"/>
     <use style="fill:#0271ae;" x="557.575069" xlink:href="#m58735ddbcd" y="95.591513"/>
    </g>
   </g>
   <g id="line2d_14">
    <path clip-path="url(#ped5efc0fb8)" d="M 23.12516 87.905295 
L 34.032301 87.905295 
L 34.032301 87.905295 
L 44.939442 87.905295 
L 44.939442 87.905295 
L 55.846583 87.905295 
L 55.846583 87.905295 
L 66.753724 87.905295 
L 66.753724 87.905295 
L 77.660865 87.905295 
L 77.660865 164.76748 
L 88.568006 164.76748 
L 88.568006 157.081261 
L 99.475147 157.081261 
L 99.475147 149.395043 
L 110.382288 149.395043 
L 110.382288 141.708824 
L 121.289429 141.708824 
L 121.289429 134.022606 
L 132.19657 134.022606 
L 132.19657 126.336387 
L 143.103711 126.336387 
L 143.103711 118.650169 
L 154.010852 118.650169 
L 154.010852 110.96395 
L 164.917993 110.96395 
L 164.917993 103.277732 
L 175.825134 103.277732 
L 175.825134 95.591513 
L 186.732275 95.591513 
L 186.732275 87.905295 
L 197.639416 87.905295 
L 197.639416 80.219076 
L 208.546557 80.219076 
L 208.546557 72.532858 
L 219.453698 72.532858 
L 219.453698 64.846639 
L 230.360839 64.846639 
L 230.360839 57.16042 
L 241.26798 57.16042 
L 241.26798 49.474202 
L 252.175121 49.474202 
L 252.175121 41.787983 
L 263.082262 41.787983 
L 263.082262 34.101765 
L 273.989403 34.101765 
L 273.989403 26.415546 
L 284.896544 26.415546 
L 284.896544 18.729328 
L 295.803685 18.729328 
L 295.803685 164.76748 
L 306.710826 164.76748 
L 306.710826 157.081261 
L 317.617967 157.081261 
L 317.617967 149.395043 
L 328.525108 149.395043 
L 328.525108 141.708824 
L 339.432249 141.708824 
L 339.432249 134.022606 
L 350.33939 134.022606 
L 350.33939 126.336387 
L 361.246531 126.336387 
L 361.246531 118.650169 
L 372.153672 118.650169 
L 372.153672 110.96395 
L 383.060813 110.96395 
L 383.060813 103.277732 
L 393.967954 103.277732 
L 393.967954 95.591513 
L 404.875095 95.591513 
L 404.875095 87.905295 
L 415.782236 87.905295 
L 415.782236 80.219076 
L 426.689377 80.219076 
L 426.689377 72.532858 
L 437.596518 72.532858 
L 437.596518 64.846639 
L 448.503659 64.846639 
L 448.503659 57.16042 
L 459.4108 57.16042 
L 459.4108 49.474202 
L 470.317941 49.474202 
L 470.317941 41.787983 
L 481.225082 41.787983 
L 481.225082 34.101765 
L 492.132223 34.101765 
L 492.132223 26.415546 
L 503.039364 26.415546 
L 503.039364 18.729328 
L 513.946505 18.729328 
L 513.946505 164.76748 
L 524.853646 164.76748 
L 524.853646 157.081261 
L 535.760787 157.081261 
L 535.760787 149.395043 
L 546.667928 149.395043 
L 546.667928 141.708824 
L 557.575069 141.708824 
L 557.575069 134.022606 
" style="fill:none;stroke:#dc2830;stroke-linecap:square;stroke-width:3;"/>
    <defs>
     <path d="M 0 2.5 
C 0.663008 2.5 1.29895 2.236584 1.767767 1.767767 
C 2.236584 1.29895 2.5 0.663008 2.5 0 
C 2.5 -0.663008 2.236584 -1.29895 1.767767 -1.767767 
C 1.29895 -2.236584 0.663008 -2.5 0 -2.5 
C -0.663008 -2.5 -1.29895 -2.236584 -1.767767 -1.767767 
C -2.236584 -1.29895 -2.5 -0.663008 -2.5 0 
C -2.5 0.663008 -2.236584 1.29895 -1.767767 1.767767 
C -1.29895 2.236584 -0.663008 2.5 0 2.5 
z
" id="mda69f79eaf"/>
    </defs>
    <g clip-path="url(#ped5efc0fb8)">
     <use style="fill:#dc2830;" x="23.12516" xlink:href="#mda69f79eaf" y="87.905295"/>
     <use style="fill:#dc2830;" x="34.032301" xlink:href="#mda69f79eaf" y="87.905295"/>
     <use style="fill:#dc2830;" x="44.939442" xlink:href="#mda69f79eaf" y="87.905295"/>
     <use style="fill:#dc2830;" x="55.846583" xlink:href="#mda69f79eaf" y="87.905295"/>
     <use style="fill:#dc2830;" x="66.753724" xlink:href="#mda69f79eaf" y="87.905295"/>
     <use style="fill:#dc2830;" x="77.660865" xlink:href="#mda69f79eaf" y="164.76748"/>
     <use style="fill:#dc2830;" x="88.568006" xlink:href="#mda69f79eaf" y="157.081261"/>
     <use style="fill:#dc2830;" x="99.475147" xlink:href="#mda69f79eaf" y="149.395043"/>
     <use style="fill:#dc2830;" x="110.382288" xlink:href="#mda69f79eaf" y="141.708824"/>
     <use style="fill:#dc2830;" x="121.289429" xlink:href="#mda69f79eaf" y="134.022606"/>
     <use style="fill:#dc2830;" x="132.19657" xlink:href="#mda69f79eaf" y="126.336387"/>
     <use style="fill:#dc2830;" x="143.103711" xlink:href="#mda69f79eaf" y="118.650169"/>
     <use style="fill:#dc2830;" x="154.010852" xlink:href="#mda69f79eaf" y="110.96395"/>
     <use style="fill:#dc2830;" x="164.917993" xlink:href="#mda69f79eaf" y="103.277732"/>
     <use style="fill:#dc2830;" x="175.825134" xlink:href="#mda69f79eaf" y="95.591513"/>
     <use style="fill:#dc2830;" x="186.732275" xlink:href="#mda69f79eaf" y="87.905295"/>
     <use style="fill:#dc2830;" x="197.639416" xlink:href="#mda69f79eaf" y="80.219076"/>
     <use style="fill:#dc2830;" x="208.546557" xlink:href="#mda69f79eaf" y="72.532858"/>
     <use style="fill:#dc2830;" x="219.453698" xlink:href="#mda69f79eaf" y="64.846639"/>
     <use style="fill:#dc2830;" x="230.360839" xlink:href="#mda69f79eaf" y="57.16042"/>
     <use style="fill:#dc2830;" x="241.26798" xlink:href="#mda69f79eaf" y="49.474202"/>
     <use style="fill:#dc2830;" x="252.175121" xlink:href="#mda69f79eaf" y="41.787983"/>
     <use style="fill:#dc2830;" x="263.082262" xlink:href="#mda69f79eaf" y="34.101765"/>
     <use style="fill:#dc2830;" x="273.989403" xlink:href="#mda69f79eaf" y="26.415546"/>
     <use style="fill:#dc2830;" x="284.896544" xlink:href="#mda69f79eaf" y="18.729328"/>
     <use style="fill:#dc2830;" x="295.803685" xlink:href="#mda69f79eaf" y="164.76748"/>
     <use style="fill:#dc2830;" x="306.710826" xlink:href="#mda69f79eaf" y="157.081261"/>
     <use style="fill:#dc2830;" x="317.617967" xlink:href="#mda69f79eaf" y="149.395043"/>
     <use style="fill:#dc2830;" x="328.525108" xlink:href="#mda69f79eaf" y="141.708824"/>
     <use style="fill:#dc2830;" x="339.432249" xlink:href="#mda69f79eaf" y="134.022606"/>
     <use style="fill:#dc2830;" x="350.33939" xlink:href="#mda69f79eaf" y="126.336387"/>
     <use style="fill:#dc2830;" x="361.246531" xlink:href="#mda69f79eaf" y="118.650169"/>
     <use style="fill:#dc2830;" x="372.153672" xlink:href="#mda69f79eaf" y="110.96395"/>
     <use style="fill:#dc2830;" x="383.060813" xlink:href="#mda69f79eaf" y="103.277732"/>
     <use style="fill:#dc2830;" x="393.967954" xlink:href="#mda69f79eaf" y="95.591513"/>
     <use style="fill:#dc2830;" x="404.875095" xlink:href="#mda69f79eaf" y="87.905295"/>
     <use style="fill:#dc2830;" x="415.782236" xlink:href="#mda69f79eaf" y="80.219076"/>
     <use style="fill:#dc2830;" x="426.689377" xlink:href="#mda69f79eaf" y="72.532858"/>
     <use style="fill:#dc2830;" x="437.596518" xlink:href="#mda69f79eaf" y="64.846639"/>
     <use style="fill:#dc2830;" x="448.503659" xlink:href="#mda69f79eaf" y="57.16042"/>
     <use style="fill:#dc2830;" x="459.4108" xlink:href="#mda69f79eaf" y="49.474202"/>
     <use style="fill:#dc2830;" x="470.317941" xlink:href="#mda69f79eaf" y="41.787983"/>
     <use style="fill:#dc2830;" x="481.225082" xlink:href="#mda69f79eaf" y="34.101765"/>
     <use style="fill:#dc2830;" x="492.132223" xlink:href="#mda69f79eaf" y="26.415546"/>
     <use style="fill:#dc2830;" x="503.039364" xlink:href="#mda69f79eaf" y="18.729328"/>
     <use style="fill:#dc2830;" x="513.946505" xlink:href="#mda69f79eaf" y="164.76748"/>
     <use style="fill:#dc2830;" x="524.853646" xlink:href="#mda69f79eaf" y="157.081261"/>
     <use style="fill:#dc2830;" x="535.760787" xlink:href="#mda69f79eaf" y="149.395043"/>
     <use style="fill:#dc2830;" x="546.667928" xlink:href="#mda69f79eaf" y="141.708824"/>
     <use style="fill:#dc2830;" x="557.575069" xlink:href="#mda69f79eaf" y="134.022606"/>
    </g>
   </g>
   <g id="legend_1">
    <g id="patch_3">
     <path d="M 492.056489 61.54197 
L 558.68221 61.54197 
Q 561.48221 61.54197 561.48221 58.74197 
L 561.48221 17 
Q 561.48221 14.2 558.68221 14.2 
L 492.056489 14.2 
Q 489.256489 14.2 489.256489 17 
L 489.256489 58.74197 
Q 489.256489 61.54197 492.056489 61.54197 
z
" style="fill:#ffffff;opacity:0.95;stroke:#cccccc;stroke-linejoin:miter;stroke-width:0.5;"/>
    </g>
    <g id="line2d_15">
     <path d="M 494.856489 25.537812 
L 508.856489 25.537812 
" style="fill:none;stroke:#0271ae;stroke-linecap:square;stroke-width:3;"/>
    </g>
    <g id="line2d_16">
     <g>
      <use style="fill:#0271ae;" x="501.856489" xlink:href="#m58735ddbcd" y="25.537812"/>
     </g>
    </g>
    <g id="text_2">
     <!-- $x[n]$ -->
     <g style="fill:#0271ae;" transform="translate(520.056489 30.437812)scale(0.14 -0.14)">
      <defs>
       <path d="M 134 566 
C 134 438 122 357 83 153 
C 70 77 64 58 58 13 
C 154 -39 256 -64 333 -64 
C 544 -64 794 121 992 419 
L 1478 1164 
L 1549 725 
C 1632 184 1779 -64 2010 -64 
C 2150 -64 2355 44 2560 229 
L 2874 509 
L 2816 630 
C 2586 439 2426 344 2323 344 
C 2227 344 2144 408 2080 534 
C 2022 655 1952 890 1920 1075 
L 1805 1716 
L 2029 2028 
C 2330 2441 2502 2587 2701 2587 
C 2803 2587 2880 2536 2912 2441 
L 3002 2466 
L 3098 3008 
C 3021 3053 2963 3072 2906 3072 
C 2650 3072 2394 2842 1997 2257 
L 1760 1907 
L 1722 2212 
C 1645 2842 1472 3072 1094 3072 
C 928 3072 787 3021 730 2938 
L 358 2409 
L 467 2346 
C 659 2562 787 2651 909 2651 
C 1120 2651 1261 2391 1370 1767 
L 1440 1373 
L 1184 977 
C 909 549 691 344 512 344 
C 416 344 346 371 333 403 
L 262 585 
z
" id="URWPalladioL-Ital-78" transform="scale(0.015625)"/>
       <path d="M 1632 -1600 
L 1632 -1343 
L 1011 -1343 
L 1011 4544 
L 1632 4544 
L 1632 4801 
L 755 4801 
L 755 -1600 
z
" id="CMR10-5b" transform="scale(0.015625)"/>
       <path d="M 154 2471 
L 198 2343 
L 403 2477 
C 640 2625 659 2637 704 2637 
C 774 2637 819 2574 819 2478 
C 819 2152 557 919 294 6 
L 339 -64 
C 499 -20 646 18 787 44 
C 909 849 1043 1264 1338 1705 
C 1683 2241 2163 2637 2451 2637 
C 2522 2637 2560 2580 2560 2484 
C 2560 2369 2541 2235 2490 2031 
L 2157 677 
C 2099 440 2074 294 2074 192 
C 2074 31 2144 -64 2266 -64 
C 2432 -64 2662 69 3290 536 
L 3226 651 
L 3059 543 
C 2874 421 2733 351 2669 351 
C 2624 351 2586 408 2586 478 
C 2586 510 2592 581 2598 607 
L 3021 2369 
C 3066 2555 3091 2733 3091 2841 
C 3091 2989 3021 3072 2893 3072 
C 2624 3072 2182 2830 1805 2478 
C 1562 2254 1382 2037 1050 1571 
L 1293 2599 
C 1318 2714 1331 2790 1331 2861 
C 1331 2995 1280 3072 1184 3072 
C 1050 3072 800 2932 333 2599 
z
" id="URWPalladioL-Ital-6e" transform="scale(0.015625)"/>
       <path d="M 1018 4801 
L 141 4801 
L 141 4544 
L 762 4544 
L 762 -1343 
L 141 -1343 
L 141 -1600 
L 1018 -1600 
z
" id="CMR10-5d" transform="scale(0.015625)"/>
      </defs>
      <use transform="scale(0.996264)" xlink:href="#URWPalladioL-Ital-78"/>
      <use transform="translate(53.299136 0)scale(1.038107)" xlink:href="#CMR10-5b"/>
      <use transform="translate(84.581835 0)scale(0.996264)" xlink:href="#URWPalladioL-Ital-6e"/>
      <use transform="translate(142.464796 0)scale(1.038107)" xlink:href="#CMR10-5d"/>
     </g>
    </g>
    <g id="line2d_17">
     <path d="M 494.856489 47.108797 
L 508.856489 47.108797 
" style="fill:none;stroke:#dc2830;stroke-linecap:square;stroke-width:3;"/>
    </g>
    <g id="line2d_18">
     <g>
      <use style="fill:#dc2830;" x="501.856489" xlink:href="#mda69f79eaf" y="47.108797"/>
     </g>
    </g>
    <g id="text_3">
     <!-- $\Delta_5*x$ -->
     <g style="fill:#dc2830;" transform="translate(520.056489 52.008797)scale(0.14 -0.14)">
      <defs>
       <path d="M 2042 4365 
L 192 160 
L 205 0 
C 787 0 1216 0 1824 0 
C 2426 0 3194 0 3706 0 
L 4102 217 
L 4102 275 
L 2285 4493 
z
M 2022 3642 
L 3245 749 
C 3302 615 3373 474 3373 397 
C 3373 327 3270 288 3110 275 
L 986 275 
C 774 295 698 339 698 442 
C 698 525 838 858 922 1050 
z
" id="PazoMath-44" transform="scale(0.015625)"/>
       <path d="M 813 3877 
C 1638 3877 1997 3877 2765 3877 
L 2797 3907 
C 2784 4016 2784 4064 2784 4144 
C 2784 4229 2784 4277 2797 4386 
L 2765 4416 
C 2285 4416 1997 4416 1651 4416 
C 1299 4416 1018 4416 538 4416 
L 506 4403 
C 512 4011 518 3729 518 3523 
C 518 2977 499 2360 480 2077 
L 608 2038 
C 909 2341 1082 2432 1395 2432 
C 2010 2432 2394 1993 2394 1296 
C 2394 580 1984 160 1286 160 
C 941 160 621 277 531 444 
L 237 973 
L 83 883 
C 230 516 307 310 397 27 
C 576 -71 832 -128 1107 -128 
C 1536 -128 1990 59 2342 368 
C 2733 716 2938 1154 2938 1630 
C 2938 2359 2419 2874 1690 2874 
C 1382 2874 1152 2791 755 2554 
z
" id="URWPalladioL-Roma-35" transform="scale(0.015625)"/>
       <path d="M 1760 2719 
C 1766 2808 1766 2962 1600 2962 
C 1498 2962 1414 2879 1434 2795 
L 1434 2712 
L 1523 1720 
L 704 2316 
C 646 2348 634 2360 589 2360 
C 499 2360 416 2271 416 2181 
C 416 2079 480 2053 544 2021 
L 1453 1586 
L 570 1158 
C 467 1107 416 1081 416 985 
C 416 889 499 806 589 806 
C 634 806 646 806 806 928 
L 1523 1446 
L 1427 371 
C 1427 236 1542 204 1594 204 
C 1670 204 1766 248 1766 371 
L 1670 1446 
L 2490 851 
C 2547 819 2560 806 2605 806 
C 2694 806 2778 896 2778 985 
C 2778 1081 2720 1113 2643 1152 
C 2259 1343 2246 1343 1741 1580 
L 2624 2008 
C 2726 2060 2778 2085 2778 2181 
C 2778 2277 2694 2360 2605 2360 
C 2560 2360 2547 2360 2387 2239 
L 1670 1720 
z
" id="CMSY10-3" transform="scale(0.015625)"/>
      </defs>
      <use transform="scale(0.996264)" xlink:href="#PazoMath-44"/>
      <use transform="translate(68.59178 -17.441431)scale(0.757155)" xlink:href="#URWPalladioL-Roma-35"/>
      <use transform="translate(127.564723 0)scale(1.038107)" xlink:href="#CMSY10-3"/>
      <use transform="translate(203.02517 0)scale(0.996264)" xlink:href="#URWPalladioL-Ital-78"/>
     </g>
    </g>
   </g>
  </g>
  <g id="axes_2">
   <g id="patch_4">
    <path d="M 23.12516 339.861659 
L 568.48221 339.861659 
L 568.48221 178.451069 
L 23.12516 178.451069 
z
" style="fill:none;"/>
   </g>
   <g id="matplotlib.axis_3">
    <g id="xtick_7">
     <g id="line2d_19">
      <path clip-path="url(#p37835554f9)" d="M 23.12516 339.861659 
L 23.12516 178.451069 
" style="fill:none;stroke:#000000;stroke-linecap:square;stroke-opacity:0.2;stroke-width:0.5;"/>
     </g>
     <g id="line2d_20">
      <g>
       <use style="fill-opacity:0.2;stroke:#000000;stroke-opacity:0.2;stroke-width:0.8;" x="23.12516" xlink:href="#mb20b3d0a0f" y="339.861659"/>
      </g>
     </g>
     <g id="text_4">
      <!-- $\mathdefault{0.0}$ -->
      <g transform="translate(14.40785 365.341188)scale(0.14 -0.14)">
       <defs>
        <path d="M 1683 4416 
C 691 4416 186 3628 186 2077 
C 186 1326 320 680 544 366 
C 768 51 1126 -128 1523 -128 
C 2490 -128 2976 705 2976 2346 
C 2976 3749 2560 4416 1683 4416 
z
M 1568 4192 
C 2189 4192 2438 3564 2438 2025 
C 2438 661 2195 96 1606 96 
C 986 96 723 744 723 2308 
C 723 3660 960 4192 1568 4192 
z
" id="URWPalladioL-Roma-30" transform="scale(0.015625)"/>
        <path d="M 794 744 
C 602 744 429 564 429 372 
C 429 179 602 0 787 0 
C 992 0 1171 173 1171 372 
C 1171 564 992 744 794 744 
z
" id="URWPalladioL-Roma-2e" transform="scale(0.015625)"/>
       </defs>
       <use transform="scale(0.996264)" xlink:href="#URWPalladioL-Roma-30"/>
       <use transform="translate(49.8132 0)scale(0.996264)" xlink:href="#URWPalladioL-Roma-2e"/>
       <use transform="translate(74.719801 0)scale(0.996264)" xlink:href="#URWPalladioL-Roma-30"/>
      </g>
     </g>
    </g>
    <g id="xtick_8">
     <g id="line2d_21">
      <path clip-path="url(#p37835554f9)" d="M 132.19657 339.861659 
L 132.19657 178.451069 
" style="fill:none;stroke:#000000;stroke-linecap:square;stroke-opacity:0.2;stroke-width:0.5;"/>
     </g>
     <g id="line2d_22">
      <g>
       <use style="fill-opacity:0.2;stroke:#000000;stroke-opacity:0.2;stroke-width:0.8;" x="132.19657" xlink:href="#mb20b3d0a0f" y="339.861659"/>
      </g>
     </g>
     <g id="text_5">
      <!-- $\mathdefault{0.2}$ -->
      <g transform="translate(123.47926 365.341188)scale(0.14 -0.14)">
       <defs>
        <path d="M 102 160 
L 102 0 
C 1299 0 1299 0 1530 0 
C 1760 0 1760 0 2995 0 
C 2982 125 2982 186 2982 269 
C 2982 348 2982 407 2995 539 
C 2259 539 1965 539 781 539 
L 1946 1761 
C 2566 2414 2758 2763 2758 3238 
C 2758 3966 2259 4416 1446 4416 
C 986 4416 672 4288 358 3969 
L 250 3099 
L 435 3099 
L 518 3393 
C 621 3763 851 3923 1280 3923 
C 1830 3923 2182 3577 2182 3035 
C 2182 2555 1914 2083 1190 1316 
z
" id="URWPalladioL-Roma-32" transform="scale(0.015625)"/>
       </defs>
       <use transform="scale(0.996264)" xlink:href="#URWPalladioL-Roma-30"/>
       <use transform="translate(49.8132 0)scale(0.996264)" xlink:href="#URWPalladioL-Roma-2e"/>
       <use transform="translate(74.719801 0)scale(0.996264)" xlink:href="#URWPalladioL-Roma-32"/>
      </g>
     </g>
    </g>
    <g id="xtick_9">
     <g id="line2d_23">
      <path clip-path="url(#p37835554f9)" d="M 241.26798 339.861659 
L 241.26798 178.451069 
" style="fill:none;stroke:#000000;stroke-linecap:square;stroke-opacity:0.2;stroke-width:0.5;"/>
     </g>
     <g id="line2d_24">
      <g>
       <use style="fill-opacity:0.2;stroke:#000000;stroke-opacity:0.2;stroke-width:0.8;" x="241.26798" xlink:href="#mb20b3d0a0f" y="339.861659"/>
      </g>
     </g>
     <g id="text_6">
      <!-- $\mathdefault{0.4}$ -->
      <g transform="translate(232.55067 365.341188)scale(0.14 -0.14)">
       <defs>
        <path d="M 1792 1152 
L 1792 673 
C 1792 289 1722 199 1408 199 
L 1011 199 
L 1011 0 
C 1862 0 1862 0 2016 0 
C 2170 0 2170 0 3021 0 
L 3021 199 
L 2714 199 
C 2400 199 2330 282 2330 669 
L 2330 1152 
C 2707 1152 2842 1152 3021 1133 
L 3021 1588 
C 2720 1563 2598 1563 2502 1563 
L 2483 1563 
L 2330 1563 
L 2330 2457 
C 2330 3600 2342 4152 2374 4416 
L 2298 4448 
L 1824 4275 
L 13 1299 
L 83 1152 
z
M 1792 1563 
L 416 1563 
L 1792 3826 
z
" id="URWPalladioL-Roma-34" transform="scale(0.015625)"/>
       </defs>
       <use transform="scale(0.996264)" xlink:href="#URWPalladioL-Roma-30"/>
       <use transform="translate(49.8132 0)scale(0.996264)" xlink:href="#URWPalladioL-Roma-2e"/>
       <use transform="translate(74.719801 0)scale(0.996264)" xlink:href="#URWPalladioL-Roma-34"/>
      </g>
     </g>
    </g>
    <g id="xtick_10">
     <g id="line2d_25">
      <path clip-path="url(#p37835554f9)" d="M 350.33939 339.861659 
L 350.33939 178.451069 
" style="fill:none;stroke:#000000;stroke-linecap:square;stroke-opacity:0.2;stroke-width:0.5;"/>
     </g>
     <g id="line2d_26">
      <g>
       <use style="fill-opacity:0.2;stroke:#000000;stroke-opacity:0.2;stroke-width:0.8;" x="350.33939" xlink:href="#mb20b3d0a0f" y="339.861659"/>
      </g>
     </g>
     <g id="text_7">
      <!-- $\mathdefault{0.6}$ -->
      <g transform="translate(341.62208 365.341188)scale(0.14 -0.14)">
       <defs>
        <path d="M 2662 4310 
L 2426 4419 
C 1811 4214 1549 4086 1222 3804 
C 563 3246 205 2464 205 1585 
C 205 526 717 -128 1542 -128 
C 2374 -128 2995 532 2995 1405 
C 2995 2143 2554 2624 1875 2624 
C 1555 2624 1363 2540 986 2239 
C 915 2181 909 2175 838 2124 
C 973 3284 1510 3913 2662 4259 
z
M 1632 2239 
C 2118 2239 2445 1816 2445 1181 
C 2445 513 2118 83 1626 83 
C 1082 83 787 551 787 1412 
C 787 1636 813 1758 883 1867 
C 1024 2085 1325 2239 1632 2239 
z
" id="URWPalladioL-Roma-36" transform="scale(0.015625)"/>
       </defs>
       <use transform="scale(0.996264)" xlink:href="#URWPalladioL-Roma-30"/>
       <use transform="translate(49.8132 0)scale(0.996264)" xlink:href="#URWPalladioL-Roma-2e"/>
       <use transform="translate(74.719801 0)scale(0.996264)" xlink:href="#URWPalladioL-Roma-36"/>
      </g>
     </g>
    </g>
    <g id="xtick_11">
     <g id="line2d_27">
      <path clip-path="url(#p37835554f9)" d="M 459.4108 339.861659 
L 459.4108 178.451069 
" style="fill:none;stroke:#000000;stroke-linecap:square;stroke-opacity:0.2;stroke-width:0.5;"/>
     </g>
     <g id="line2d_28">
      <g>
       <use style="fill-opacity:0.2;stroke:#000000;stroke-opacity:0.2;stroke-width:0.8;" x="459.4108" xlink:href="#mb20b3d0a0f" y="339.861659"/>
      </g>
     </g>
     <g id="text_8">
      <!-- $\mathdefault{0.8}$ -->
      <g transform="translate(450.69349 365.341188)scale(0.14 -0.14)">
       <defs>
        <path d="M 1075 2211 
C 813 2090 704 2019 563 1884 
C 320 1641 192 1352 192 1019 
C 192 359 723 -128 1446 -128 
C 2278 -128 2970 526 2970 1320 
C 2970 1833 2733 2109 2003 2442 
C 2586 2840 2790 3109 2790 3493 
C 2790 4044 2336 4416 1658 4416 
C 896 4416 339 3929 339 3257 
C 339 2821 512 2577 1075 2211 
z
M 1818 1891 
C 2221 1711 2464 1397 2464 1052 
C 2464 513 2061 90 1542 90 
C 998 90 646 475 646 1071 
C 646 1538 832 1833 1306 2122 
z
M 1427 2712 
C 1024 2910 819 3167 819 3487 
C 819 3910 1126 4198 1581 4198 
C 2048 4198 2355 3891 2355 3422 
C 2355 3058 2195 2808 1779 2538 
z
" id="URWPalladioL-Roma-38" transform="scale(0.015625)"/>
       </defs>
       <use transform="scale(0.996264)" xlink:href="#URWPalladioL-Roma-30"/>
       <use transform="translate(49.8132 0)scale(0.996264)" xlink:href="#URWPalladioL-Roma-2e"/>
       <use transform="translate(74.719801 0)scale(0.996264)" xlink:href="#URWPalladioL-Roma-38"/>
      </g>
     </g>
    </g>
    <g id="xtick_12">
     <g id="line2d_29">
      <path clip-path="url(#p37835554f9)" d="M 568.48221 339.861659 
L 568.48221 178.451069 
" style="fill:none;stroke:#000000;stroke-linecap:square;stroke-opacity:0.2;stroke-width:0.5;"/>
     </g>
     <g id="line2d_30">
      <g>
       <use style="fill-opacity:0.2;stroke:#000000;stroke-opacity:0.2;stroke-width:0.8;" x="568.48221" xlink:href="#mb20b3d0a0f" y="339.861659"/>
      </g>
     </g>
     <g id="text_9">
      <!-- $\mathdefault{1.0}$ -->
      <g transform="translate(559.7649 365.341188)scale(0.14 -0.14)">
       <defs>
        <path d="M 429 3584 
L 493 3584 
L 1318 3956 
C 1325 3962 1331 3962 1338 3962 
C 1376 3962 1389 3905 1389 3751 
L 1389 613 
C 1389 276 1318 205 973 205 
L 614 205 
L 614 0 
C 1600 0 1600 0 1670 0 
C 1754 0 1894 0 2112 0 
C 2189 0 2413 0 2675 0 
L 2675 205 
L 2342 205 
C 1990 205 1926 276 1926 612 
L 1926 4443 
L 1837 4475 
C 1421 4257 966 4065 384 3860 
z
" id="URWPalladioL-Roma-31" transform="scale(0.015625)"/>
       </defs>
       <use transform="scale(0.996264)" xlink:href="#URWPalladioL-Roma-31"/>
       <use transform="translate(49.8132 0)scale(0.996264)" xlink:href="#URWPalladioL-Roma-2e"/>
       <use transform="translate(74.719801 0)scale(0.996264)" xlink:href="#URWPalladioL-Roma-30"/>
      </g>
     </g>
    </g>
    <g id="text_10">
     <!-- Time [seconds] -->
     <g transform="translate(256.130833 381.828236)scale(0.12 -0.12)">
      <defs>
       <path d="M 1632 4114 
C 1651 3896 1658 3749 1658 3473 
L 1658 763 
C 1658 256 1626 205 1331 205 
L 1024 205 
L 1024 0 
C 1402 0 1626 0 1958 0 
C 2291 0 2522 0 2899 0 
L 2899 205 
L 2592 205 
C 2298 205 2266 256 2266 763 
L 2266 3473 
C 2266 3762 2272 3903 2291 4114 
L 3283 4114 
C 3462 4114 3533 4057 3539 3904 
L 3565 3400 
L 3763 3400 
C 3763 3810 3776 4056 3808 4416 
C 3347 4416 3136 4416 2957 4416 
C 2707 4416 2522 4416 2426 4416 
L 1414 4416 
C 1350 4416 1005 4416 550 4416 
L 115 4416 
C 147 4056 160 3810 160 3400 
L 358 3400 
L 384 3904 
C 390 4057 461 4114 640 4114 
z
" id="URWPalladioL-Roma-54" transform="scale(0.015625)"/>
       <path d="M 1203 2993 
L 1146 3019 
C 819 2884 486 2793 147 2755 
L 147 2576 
L 384 2576 
C 640 2576 666 2531 666 2105 
L 666 651 
C 666 244 646 199 429 199 
L 134 199 
L 134 0 
C 774 0 774 0 934 0 
C 1094 0 1094 0 1734 0 
L 1734 199 
L 1440 199 
C 1222 199 1203 244 1203 651 
z
M 909 4416 
C 717 4416 550 4249 550 4056 
C 550 3870 717 3704 902 3704 
C 1088 3704 1261 3870 1261 4056 
C 1261 4236 1088 4416 909 4416 
z
" id="URWPalladioL-Roma-69" transform="scale(0.015625)"/>
       <path d="M 115 2565 
L 352 2565 
C 608 2565 634 2520 634 2094 
L 634 643 
C 634 237 614 192 397 192 
L 102 192 
L 102 -7 
C 717 -7 736 -7 915 -7 
C 1094 -7 1261 -7 1677 -7 
L 1677 179 
L 1408 205 
C 1190 205 1171 250 1171 654 
L 1171 2014 
C 1171 2302 1594 2616 1978 2616 
C 2323 2616 2560 2287 2560 1798 
L 2560 643 
C 2560 237 2541 192 2323 192 
L 2029 192 
L 2029 -7 
C 2669 -7 2669 -7 2829 -7 
C 2989 -7 2989 -7 3629 -7 
L 3629 192 
L 3334 192 
C 3117 192 3098 237 3098 643 
L 3098 2011 
C 3098 2300 3520 2616 3904 2616 
C 4250 2616 4486 2291 4486 1806 
L 4486 -7 
C 4877 -7 4883 -7 4992 -7 
C 5075 -7 5075 -7 5562 -7 
L 5562 192 
L 5261 192 
C 5043 192 5024 237 5024 643 
L 5024 1970 
C 5024 2608 4653 3008 4064 3008 
C 3840 3008 3654 2950 3539 2847 
L 3053 2412 
C 2848 2834 2586 3008 2144 3008 
C 1907 3008 1728 2950 1613 2847 
L 1171 2437 
L 1171 2982 
L 1114 3008 
C 787 2873 454 2783 115 2745 
z
" id="URWPalladioL-Roma-6d" transform="scale(0.015625)"/>
       <path d="M 2797 447 
L 2714 511 
C 2304 269 2157 212 1882 212 
C 1466 212 1120 398 941 711 
C 819 921 774 1101 762 1472 
L 1696 1472 
C 2138 1472 2413 1472 2854 1544 
C 2861 1634 2867 1693 2867 1771 
C 2867 2520 2394 3008 1677 3008 
C 1440 3008 1165 2924 902 2770 
C 378 2469 166 2071 166 1404 
C 166 1000 262 654 435 410 
C 691 71 1120 -128 1600 -128 
C 1837 -128 2074 -77 2336 37 
C 2509 108 2643 191 2669 230 
z
M 2298 1690 
C 1965 1690 1811 1690 1581 1690 
C 1286 1690 1120 1690 774 1722 
C 774 2027 800 2169 883 2337 
C 1018 2622 1293 2796 1600 2796 
C 1811 2796 1978 2711 2093 2534 
C 2234 2319 2278 2129 2298 1690 
z
" id="URWPalladioL-Roma-65" transform="scale(0.015625)"/>
       <path d="M 563 -1152 
C 1018 -1152 1030 -1152 1184 -1152 
C 1338 -1152 1370 -1152 1805 -1152 
L 1843 -1120 
L 1843 -953 
L 1818 -921 
L 1574 -921 
C 1402 -921 1261 -882 1184 -818 
C 1126 -760 1107 -671 1107 -459 
C 1107 -453 1107 -318 1101 -125 
L 1101 112 
L 1101 3409 
L 1101 3646 
C 1107 3826 1107 3967 1107 3973 
C 1107 4185 1126 4281 1184 4339 
C 1261 4403 1402 4441 1574 4441 
L 1818 4441 
L 1843 4473 
L 1843 4640 
L 1805 4672 
C 1357 4672 1338 4672 1184 4672 
C 1037 4672 1005 4672 563 4672 
L 506 4595 
C 544 4435 557 4223 557 3730 
C 557 3633 557 3556 563 3492 
L 563 3409 
L 563 112 
L 563 28 
C 557 -74 557 -81 557 -190 
L 557 -260 
C 557 -696 544 -876 506 -1075 
z
" id="URWPalladioL-Roma-5b" transform="scale(0.015625)"/>
       <path d="M 262 917 
C 262 475 243 282 192 26 
C 525 -83 774 -128 1069 -128 
C 1907 -128 2502 321 2502 949 
C 2502 1148 2445 1295 2323 1424 
C 2157 1584 1946 1661 1382 1770 
C 858 1873 685 2001 685 2296 
C 685 2616 909 2796 1299 2796 
C 1728 2796 2054 2572 2054 2270 
L 2054 2123 
L 2234 2123 
C 2240 2495 2246 2648 2266 2847 
C 1926 2963 1696 3008 1434 3008 
C 691 3008 237 2655 237 2078 
C 237 1770 378 1552 672 1417 
C 845 1340 1184 1238 1619 1141 
C 1907 1077 2029 943 2029 699 
C 2029 353 1709 109 1254 109 
C 787 109 454 333 454 654 
L 454 917 
z
" id="URWPalladioL-Roma-73" transform="scale(0.015625)"/>
       <path d="M 2554 1994 
C 2554 2289 2586 2552 2643 2783 
C 2387 2937 2163 3008 1901 3008 
C 1594 3008 1235 2886 851 2642 
C 403 2360 166 1911 166 1347 
C 166 481 774 -128 1632 -128 
C 1965 -128 2445 -6 2509 90 
L 2643 295 
L 2579 391 
C 2342 263 2138 205 1907 205 
C 1197 205 730 757 730 1603 
C 730 2289 1050 2674 1626 2674 
C 1907 2674 2214 2546 2330 2386 
L 2374 1994 
z
" id="URWPalladioL-Roma-63" transform="scale(0.015625)"/>
       <path d="M 1786 3008 
C 851 3008 205 2347 205 1392 
C 205 487 774 -128 1600 -128 
C 2586 -128 3290 558 3290 1520 
C 3290 2386 2662 3008 1786 3008 
z
M 1670 2796 
C 2259 2796 2694 2155 2694 1283 
C 2694 545 2368 83 1850 83 
C 1222 83 800 699 800 1610 
C 800 2379 1107 2796 1670 2796 
z
" id="URWPalladioL-Roma-6f" transform="scale(0.015625)"/>
       <path d="M 2637 2802 
C 2278 2956 2099 3008 1875 3008 
C 1702 3008 1549 2969 1389 2887 
L 826 2593 
C 461 2401 224 1935 224 1392 
C 224 881 397 460 710 204 
C 928 19 1229 -64 1645 -64 
C 1773 -64 1920 -38 1952 -13 
L 2662 583 
L 2630 -7 
C 2944 -7 3046 -7 3123 -7 
C 3174 -7 3264 -7 3398 -7 
C 3443 -7 3571 -7 3706 -7 
L 3706 192 
L 3411 192 
C 3194 192 3174 237 3174 643 
L 3174 4607 
L 3117 4659 
C 2835 4550 2624 4498 2118 4421 
L 2118 4242 
L 2477 4242 
C 2592 4242 2637 4171 2637 3978 
z
M 2637 1424 
C 2637 1009 2624 946 2541 799 
C 2362 499 2048 302 1747 302 
C 1184 302 781 844 781 1603 
C 781 2298 1126 2706 1702 2706 
C 1946 2706 2202 2623 2426 2470 
C 2560 2381 2637 2298 2637 2246 
z
" id="URWPalladioL-Roma-64" transform="scale(0.015625)"/>
       <path d="M 1568 4672 
C 1114 4672 1094 4672 947 4672 
C 794 4672 762 4672 326 4672 
L 288 4640 
L 288 4473 
L 314 4441 
L 557 4441 
C 730 4441 864 4403 941 4339 
C 1005 4281 1024 4191 1024 3973 
C 1024 3954 1024 3826 1030 3646 
L 1030 3409 
L 1030 112 
L 1030 -125 
C 1024 -311 1024 -427 1024 -446 
C 1024 -664 1005 -760 941 -818 
C 864 -882 730 -921 557 -921 
L 314 -921 
L 288 -953 
L 288 -1120 
L 326 -1152 
C 774 -1152 787 -1152 947 -1152 
C 1094 -1152 1126 -1152 1568 -1152 
L 1626 -1075 
C 1587 -921 1581 -722 1574 -228 
C 1574 -138 1574 -55 1568 28 
L 1568 112 
L 1568 3409 
L 1568 3492 
C 1574 3563 1574 3646 1574 3736 
C 1574 4230 1587 4441 1626 4595 
z
" id="URWPalladioL-Roma-5d" transform="scale(0.015625)"/>
      </defs>
      <use transform="scale(0.996264)" xlink:href="#URWPalladioL-Roma-54"/>
      <use transform="translate(55.591109 0)scale(0.996264)" xlink:href="#URWPalladioL-Roma-69"/>
      <use transform="translate(84.581471 0)scale(0.996264)" xlink:href="#URWPalladioL-Roma-6d"/>
      <use transform="translate(172.551145 0)scale(0.996264)" xlink:href="#URWPalladioL-Roma-65"/>
      <use transform="translate(245.17804 0)scale(0.996264)" xlink:href="#URWPalladioL-Roma-5b"/>
      <use transform="translate(278.35327 0)scale(0.996264)" xlink:href="#URWPalladioL-Roma-73"/>
      <use transform="translate(320.594736 0)scale(0.996264)" xlink:href="#URWPalladioL-Roma-65"/>
      <use transform="translate(368.315031 0)scale(0.996264)" xlink:href="#URWPalladioL-Roma-63"/>
      <use transform="translate(412.5486 0)scale(0.996264)" xlink:href="#URWPalladioL-Roma-6f"/>
      <use transform="translate(466.94418 0)scale(0.996264)" xlink:href="#URWPalladioL-Roma-6e"/>
      <use transform="translate(524.926241 0)scale(0.996264)" xlink:href="#URWPalladioL-Roma-64"/>
      <use transform="translate(585.797872 0)scale(0.996264)" xlink:href="#URWPalladioL-Roma-73"/>
      <use transform="translate(628.039338 0)scale(0.996264)" xlink:href="#URWPalladioL-Roma-5d"/>
     </g>
    </g>
   </g>
   <g id="matplotlib.axis_4">
    <g id="text_11">
     <!-- Output -->
     <g transform="translate(15.753876 278.553291)rotate(-90)scale(0.12 -0.12)">
      <defs>
       <path d="M 2573 4544 
C 1114 4544 141 3596 141 2186 
C 141 839 1075 -128 2368 -128 
C 3802 -128 4890 942 4890 2351 
C 4890 3698 3994 4544 2573 4544 
z
M 2464 4274 
C 3558 4274 4205 3493 4205 2160 
C 4205 890 3616 141 2624 141 
C 1549 141 826 1051 826 2422 
C 826 3607 1414 4274 2464 4274 
z
" id="URWPalladioL-Roma-4f" transform="scale(0.015625)"/>
      </defs>
      <use transform="scale(0.996264)" xlink:href="#URWPalladioL-Roma-4f"/>
      <use transform="translate(78.306281 0)scale(0.996264)" xlink:href="#URWPalladioL-Roma-75"/>
      <use transform="translate(138.380016 0)scale(0.996264)" xlink:href="#URWPalladioL-Roma-74"/>
      <use transform="translate(170.857104 0)scale(0.996264)" xlink:href="#URWPalladioL-Roma-70"/>
      <use transform="translate(230.731498 0)scale(0.996264)" xlink:href="#URWPalladioL-Roma-75"/>
      <use transform="translate(290.805232 0)scale(0.996264)" xlink:href="#URWPalladioL-Roma-74"/>
     </g>
    </g>
   </g>
   <g id="line2d_31">
    <path clip-path="url(#p37835554f9)" d="M 23.12516 259.156364 
L 34.032301 259.156364 
L 34.032301 259.156364 
L 44.939442 259.156364 
L 44.939442 259.156364 
L 55.846583 259.156364 
L 55.846583 259.156364 
L 66.753724 259.156364 
L 66.753724 259.156364 
L 77.660865 259.156364 
L 77.660865 266.842582 
L 88.568006 266.842582 
L 88.568006 274.528801 
L 99.475147 274.528801 
L 99.475147 282.21502 
L 110.382288 282.21502 
L 110.382288 289.901238 
L 121.289429 289.901238 
L 121.289429 297.587457 
L 132.19657 297.587457 
L 132.19657 305.273675 
L 143.103711 305.273675 
L 143.103711 312.959894 
L 154.010852 312.959894 
L 154.010852 320.646112 
L 164.917993 320.646112 
L 164.917993 328.332331 
L 175.825134 328.332331 
L 175.825134 336.018549 
L 186.732275 336.018549 
L 186.732275 189.980397 
L 197.639416 189.980397 
L 197.639416 197.666616 
L 208.546557 197.666616 
L 208.546557 205.352834 
L 219.453698 205.352834 
L 219.453698 213.039053 
L 230.360839 213.039053 
L 230.360839 220.725271 
L 241.26798 220.725271 
L 241.26798 228.41149 
L 252.175121 228.41149 
L 252.175121 236.097708 
L 263.082262 236.097708 
L 263.082262 243.783927 
L 273.989403 243.783927 
L 273.989403 251.470145 
L 284.896544 251.470145 
L 284.896544 259.156364 
L 295.803685 259.156364 
L 295.803685 266.842582 
L 306.710826 266.842582 
L 306.710826 274.528801 
L 317.617967 274.528801 
L 317.617967 282.21502 
L 328.525108 282.21502 
L 328.525108 289.901238 
L 339.432249 289.901238 
L 339.432249 297.587457 
L 350.33939 297.587457 
L 350.33939 305.273675 
L 361.246531 305.273675 
L 361.246531 312.959894 
L 372.153672 312.959894 
L 372.153672 320.646112 
L 383.060813 320.646112 
L 383.060813 328.332331 
L 393.967954 328.332331 
L 393.967954 336.018549 
L 404.875095 336.018549 
L 404.875095 189.980397 
L 415.782236 189.980397 
L 415.782236 197.666616 
L 426.689377 197.666616 
L 426.689377 205.352834 
L 437.596518 205.352834 
L 437.596518 213.039053 
L 448.503659 213.039053 
L 448.503659 220.725271 
L 459.4108 220.725271 
L 459.4108 228.41149 
L 470.317941 228.41149 
L 470.317941 236.097708 
L 481.225082 236.097708 
L 481.225082 243.783927 
L 492.132223 243.783927 
L 492.132223 251.470145 
L 503.039364 251.470145 
L 503.039364 259.156364 
L 513.946505 259.156364 
L 513.946505 266.842582 
L 524.853646 266.842582 
L 524.853646 274.528801 
L 535.760787 274.528801 
L 535.760787 282.21502 
L 546.667928 282.21502 
L 546.667928 289.901238 
L 557.575069 289.901238 
L 557.575069 297.587457 
" style="fill:none;stroke:#6e3b87;stroke-linecap:square;stroke-width:3;"/>
    <defs>
     <path d="M 0 2.5 
C 0.663008 2.5 1.29895 2.236584 1.767767 1.767767 
C 2.236584 1.29895 2.5 0.663008 2.5 0 
C 2.5 -0.663008 2.236584 -1.29895 1.767767 -1.767767 
C 1.29895 -2.236584 0.663008 -2.5 0 -2.5 
C -0.663008 -2.5 -1.29895 -2.236584 -1.767767 -1.767767 
C -2.236584 -1.29895 -2.5 -0.663008 -2.5 0 
C -2.5 0.663008 -2.236584 1.29895 -1.767767 1.767767 
C -1.29895 2.236584 -0.663008 2.5 0 2.5 
z
" id="m672798d6fe"/>
    </defs>
    <g clip-path="url(#p37835554f9)">
     <use style="fill:#6e3b87;" x="23.12516" xlink:href="#m672798d6fe" y="259.156364"/>
     <use style="fill:#6e3b87;" x="34.032301" xlink:href="#m672798d6fe" y="259.156364"/>
     <use style="fill:#6e3b87;" x="44.939442" xlink:href="#m672798d6fe" y="259.156364"/>
     <use style="fill:#6e3b87;" x="55.846583" xlink:href="#m672798d6fe" y="259.156364"/>
     <use style="fill:#6e3b87;" x="66.753724" xlink:href="#m672798d6fe" y="259.156364"/>
     <use style="fill:#6e3b87;" x="77.660865" xlink:href="#m672798d6fe" y="266.842582"/>
     <use style="fill:#6e3b87;" x="88.568006" xlink:href="#m672798d6fe" y="274.528801"/>
     <use style="fill:#6e3b87;" x="99.475147" xlink:href="#m672798d6fe" y="282.21502"/>
     <use style="fill:#6e3b87;" x="110.382288" xlink:href="#m672798d6fe" y="289.901238"/>
     <use style="fill:#6e3b87;" x="121.289429" xlink:href="#m672798d6fe" y="297.587457"/>
     <use style="fill:#6e3b87;" x="132.19657" xlink:href="#m672798d6fe" y="305.273675"/>
     <use style="fill:#6e3b87;" x="143.103711" xlink:href="#m672798d6fe" y="312.959894"/>
     <use style="fill:#6e3b87;" x="154.010852" xlink:href="#m672798d6fe" y="320.646112"/>
     <use style="fill:#6e3b87;" x="164.917993" xlink:href="#m672798d6fe" y="328.332331"/>
     <use style="fill:#6e3b87;" x="175.825134" xlink:href="#m672798d6fe" y="336.018549"/>
     <use style="fill:#6e3b87;" x="186.732275" xlink:href="#m672798d6fe" y="189.980397"/>
     <use style="fill:#6e3b87;" x="197.639416" xlink:href="#m672798d6fe" y="197.666616"/>
     <use style="fill:#6e3b87;" x="208.546557" xlink:href="#m672798d6fe" y="205.352834"/>
     <use style="fill:#6e3b87;" x="219.453698" xlink:href="#m672798d6fe" y="213.039053"/>
     <use style="fill:#6e3b87;" x="230.360839" xlink:href="#m672798d6fe" y="220.725271"/>
     <use style="fill:#6e3b87;" x="241.26798" xlink:href="#m672798d6fe" y="228.41149"/>
     <use style="fill:#6e3b87;" x="252.175121" xlink:href="#m672798d6fe" y="236.097708"/>
     <use style="fill:#6e3b87;" x="263.082262" xlink:href="#m672798d6fe" y="243.783927"/>
     <use style="fill:#6e3b87;" x="273.989403" xlink:href="#m672798d6fe" y="251.470145"/>
     <use style="fill:#6e3b87;" x="284.896544" xlink:href="#m672798d6fe" y="259.156364"/>
     <use style="fill:#6e3b87;" x="295.803685" xlink:href="#m672798d6fe" y="266.842582"/>
     <use style="fill:#6e3b87;" x="306.710826" xlink:href="#m672798d6fe" y="274.528801"/>
     <use style="fill:#6e3b87;" x="317.617967" xlink:href="#m672798d6fe" y="282.21502"/>
     <use style="fill:#6e3b87;" x="328.525108" xlink:href="#m672798d6fe" y="289.901238"/>
     <use style="fill:#6e3b87;" x="339.432249" xlink:href="#m672798d6fe" y="297.587457"/>
     <use style="fill:#6e3b87;" x="350.33939" xlink:href="#m672798d6fe" y="305.273675"/>
     <use style="fill:#6e3b87;" x="361.246531" xlink:href="#m672798d6fe" y="312.959894"/>
     <use style="fill:#6e3b87;" x="372.153672" xlink:href="#m672798d6fe" y="320.646112"/>
     <use style="fill:#6e3b87;" x="383.060813" xlink:href="#m672798d6fe" y="328.332331"/>
     <use style="fill:#6e3b87;" x="393.967954" xlink:href="#m672798d6fe" y="336.018549"/>
     <use style="fill:#6e3b87;" x="404.875095" xlink:href="#m672798d6fe" y="189.980397"/>
     <use style="fill:#6e3b87;" x="415.782236" xlink:href="#m672798d6fe" y="197.666616"/>
     <use style="fill:#6e3b87;" x="426.689377" xlink:href="#m672798d6fe" y="205.352834"/>
     <use style="fill:#6e3b87;" x="437.596518" xlink:href="#m672798d6fe" y="213.039053"/>
     <use style="fill:#6e3b87;" x="448.503659" xlink:href="#m672798d6fe" y="220.725271"/>
     <use style="fill:#6e3b87;" x="459.4108" xlink:href="#m672798d6fe" y="228.41149"/>
     <use style="fill:#6e3b87;" x="470.317941" xlink:href="#m672798d6fe" y="236.097708"/>
     <use style="fill:#6e3b87;" x="481.225082" xlink:href="#m672798d6fe" y="243.783927"/>
     <use style="fill:#6e3b87;" x="492.132223" xlink:href="#m672798d6fe" y="251.470145"/>
     <use style="fill:#6e3b87;" x="503.039364" xlink:href="#m672798d6fe" y="259.156364"/>
     <use style="fill:#6e3b87;" x="513.946505" xlink:href="#m672798d6fe" y="266.842582"/>
     <use style="fill:#6e3b87;" x="524.853646" xlink:href="#m672798d6fe" y="274.528801"/>
     <use style="fill:#6e3b87;" x="535.760787" xlink:href="#m672798d6fe" y="282.21502"/>
     <use style="fill:#6e3b87;" x="546.667928" xlink:href="#m672798d6fe" y="289.901238"/>
     <use style="fill:#6e3b87;" x="557.575069" xlink:href="#m672798d6fe" y="297.587457"/>
    </g>
   </g>
   <g id="line2d_32">
    <path clip-path="url(#p37835554f9)" d="M 23.12516 305.273675 
L 34.032301 305.273675 
L 34.032301 312.959894 
L 44.939442 312.959894 
L 44.939442 320.646112 
L 55.846583 320.646112 
L 55.846583 328.332331 
L 66.753724 328.332331 
L 66.753724 336.018549 
L 77.660865 336.018549 
L 77.660865 189.980397 
L 88.568006 189.980397 
L 88.568006 197.666616 
L 99.475147 197.666616 
L 99.475147 205.352834 
L 110.382288 205.352834 
L 110.382288 213.039053 
L 121.289429 213.039053 
L 121.289429 220.725271 
L 132.19657 220.725271 
L 132.19657 228.41149 
L 143.103711 228.41149 
L 143.103711 236.097708 
L 154.010852 236.097708 
L 154.010852 243.783927 
L 164.917993 243.783927 
L 164.917993 251.470145 
L 175.825134 251.470145 
L 175.825134 259.156364 
L 186.732275 259.156364 
L 186.732275 266.842582 
L 197.639416 266.842582 
L 197.639416 274.528801 
L 208.546557 274.528801 
L 208.546557 282.21502 
L 219.453698 282.21502 
L 219.453698 289.901238 
L 230.360839 289.901238 
L 230.360839 297.587457 
L 241.26798 297.587457 
L 241.26798 305.273675 
L 252.175121 305.273675 
L 252.175121 312.959894 
L 263.082262 312.959894 
L 263.082262 320.646112 
L 273.989403 320.646112 
L 273.989403 328.332331 
L 284.896544 328.332331 
L 284.896544 336.018549 
L 295.803685 336.018549 
L 295.803685 189.980397 
L 306.710826 189.980397 
L 306.710826 197.666616 
L 317.617967 197.666616 
L 317.617967 205.352834 
L 328.525108 205.352834 
L 328.525108 213.039053 
L 339.432249 213.039053 
L 339.432249 220.725271 
L 350.33939 220.725271 
L 350.33939 228.41149 
L 361.246531 228.41149 
L 361.246531 236.097708 
L 372.153672 236.097708 
L 372.153672 243.783927 
L 383.060813 243.783927 
L 383.060813 251.470145 
L 393.967954 251.470145 
L 393.967954 259.156364 
L 404.875095 259.156364 
L 404.875095 266.842582 
L 415.782236 266.842582 
L 415.782236 274.528801 
L 426.689377 274.528801 
L 426.689377 282.21502 
L 437.596518 282.21502 
L 437.596518 289.901238 
L 448.503659 289.901238 
L 448.503659 297.587457 
L 459.4108 297.587457 
L 459.4108 305.273675 
L 470.317941 305.273675 
L 470.317941 312.959894 
L 481.225082 312.959894 
L 481.225082 320.646112 
L 492.132223 320.646112 
L 492.132223 328.332331 
L 503.039364 328.332331 
L 503.039364 336.018549 
L 513.946505 336.018549 
L 513.946505 259.156364 
L 524.853646 259.156364 
L 524.853646 259.156364 
L 535.760787 259.156364 
L 535.760787 259.156364 
L 546.667928 259.156364 
L 546.667928 259.156364 
L 557.575069 259.156364 
L 557.575069 259.156364 
" style="fill:none;stroke:#007d4d;stroke-linecap:square;stroke-width:3;"/>
    <defs>
     <path d="M 0 2.5 
C 0.663008 2.5 1.29895 2.236584 1.767767 1.767767 
C 2.236584 1.29895 2.5 0.663008 2.5 0 
C 2.5 -0.663008 2.236584 -1.29895 1.767767 -1.767767 
C 1.29895 -2.236584 0.663008 -2.5 0 -2.5 
C -0.663008 -2.5 -1.29895 -2.236584 -1.767767 -1.767767 
C -2.236584 -1.29895 -2.5 -0.663008 -2.5 0 
C -2.5 0.663008 -2.236584 1.29895 -1.767767 1.767767 
C -1.29895 2.236584 -0.663008 2.5 0 2.5 
z
" id="m5a3fc81772"/>
    </defs>
    <g clip-path="url(#p37835554f9)">
     <use style="fill:#007d4d;" x="23.12516" xlink:href="#m5a3fc81772" y="305.273675"/>
     <use style="fill:#007d4d;" x="34.032301" xlink:href="#m5a3fc81772" y="312.959894"/>
     <use style="fill:#007d4d;" x="44.939442" xlink:href="#m5a3fc81772" y="320.646112"/>
     <use style="fill:#007d4d;" x="55.846583" xlink:href="#m5a3fc81772" y="328.332331"/>
     <use style="fill:#007d4d;" x="66.753724" xlink:href="#m5a3fc81772" y="336.018549"/>
     <use style="fill:#007d4d;" x="77.660865" xlink:href="#m5a3fc81772" y="189.980397"/>
     <use style="fill:#007d4d;" x="88.568006" xlink:href="#m5a3fc81772" y="197.666616"/>
     <use style="fill:#007d4d;" x="99.475147" xlink:href="#m5a3fc81772" y="205.352834"/>
     <use style="fill:#007d4d;" x="110.382288" xlink:href="#m5a3fc81772" y="213.039053"/>
     <use style="fill:#007d4d;" x="121.289429" xlink:href="#m5a3fc81772" y="220.725271"/>
     <use style="fill:#007d4d;" x="132.19657" xlink:href="#m5a3fc81772" y="228.41149"/>
     <use style="fill:#007d4d;" x="143.103711" xlink:href="#m5a3fc81772" y="236.097708"/>
     <use style="fill:#007d4d;" x="154.010852" xlink:href="#m5a3fc81772" y="243.783927"/>
     <use style="fill:#007d4d;" x="164.917993" xlink:href="#m5a3fc81772" y="251.470145"/>
     <use style="fill:#007d4d;" x="175.825134" xlink:href="#m5a3fc81772" y="259.156364"/>
     <use style="fill:#007d4d;" x="186.732275" xlink:href="#m5a3fc81772" y="266.842582"/>
     <use style="fill:#007d4d;" x="197.639416" xlink:href="#m5a3fc81772" y="274.528801"/>
     <use style="fill:#007d4d;" x="208.546557" xlink:href="#m5a3fc81772" y="282.21502"/>
     <use style="fill:#007d4d;" x="219.453698" xlink:href="#m5a3fc81772" y="289.901238"/>
     <use style="fill:#007d4d;" x="230.360839" xlink:href="#m5a3fc81772" y="297.587457"/>
     <use style="fill:#007d4d;" x="241.26798" xlink:href="#m5a3fc81772" y="305.273675"/>
     <use style="fill:#007d4d;" x="252.175121" xlink:href="#m5a3fc81772" y="312.959894"/>
     <use style="fill:#007d4d;" x="263.082262" xlink:href="#m5a3fc81772" y="320.646112"/>
     <use style="fill:#007d4d;" x="273.989403" xlink:href="#m5a3fc81772" y="328.332331"/>
     <use style="fill:#007d4d;" x="284.896544" xlink:href="#m5a3fc81772" y="336.018549"/>
     <use style="fill:#007d4d;" x="295.803685" xlink:href="#m5a3fc81772" y="189.980397"/>
     <use style="fill:#007d4d;" x="306.710826" xlink:href="#m5a3fc81772" y="197.666616"/>
     <use style="fill:#007d4d;" x="317.617967" xlink:href="#m5a3fc81772" y="205.352834"/>
     <use style="fill:#007d4d;" x="328.525108" xlink:href="#m5a3fc81772" y="213.039053"/>
     <use style="fill:#007d4d;" x="339.432249" xlink:href="#m5a3fc81772" y="220.725271"/>
     <use style="fill:#007d4d;" x="350.33939" xlink:href="#m5a3fc81772" y="228.41149"/>
     <use style="fill:#007d4d;" x="361.246531" xlink:href="#m5a3fc81772" y="236.097708"/>
     <use style="fill:#007d4d;" x="372.153672" xlink:href="#m5a3fc81772" y="243.783927"/>
     <use style="fill:#007d4d;" x="383.060813" xlink:href="#m5a3fc81772" y="251.470145"/>
     <use style="fill:#007d4d;" x="393.967954" xlink:href="#m5a3fc81772" y="259.156364"/>
     <use style="fill:#007d4d;" x="404.875095" xlink:href="#m5a3fc81772" y="266.842582"/>
     <use style="fill:#007d4d;" x="415.782236" xlink:href="#m5a3fc81772" y="274.528801"/>
     <use style="fill:#007d4d;" x="426.689377" xlink:href="#m5a3fc81772" y="282.21502"/>
     <use style="fill:#007d4d;" x="437.596518" xlink:href="#m5a3fc81772" y="289.901238"/>
     <use style="fill:#007d4d;" x="448.503659" xlink:href="#m5a3fc81772" y="297.587457"/>
     <use style="fill:#007d4d;" x="459.4108" xlink:href="#m5a3fc81772" y="305.273675"/>
     <use style="fill:#007d4d;" x="470.317941" xlink:href="#m5a3fc81772" y="312.959894"/>
     <use style="fill:#007d4d;" x="481.225082" xlink:href="#m5a3fc81772" y="320.646112"/>
     <use style="fill:#007d4d;" x="492.132223" xlink:href="#m5a3fc81772" y="328.332331"/>
     <use style="fill:#007d4d;" x="503.039364" xlink:href="#m5a3fc81772" y="336.018549"/>
     <use style="fill:#007d4d;" x="513.946505" xlink:href="#m5a3fc81772" y="259.156364"/>
     <use style="fill:#007d4d;" x="524.853646" xlink:href="#m5a3fc81772" y="259.156364"/>
     <use style="fill:#007d4d;" x="535.760787" xlink:href="#m5a3fc81772" y="259.156364"/>
     <use style="fill:#007d4d;" x="546.667928" xlink:href="#m5a3fc81772" y="259.156364"/>
     <use style="fill:#007d4d;" x="557.575069" xlink:href="#m5a3fc81772" y="259.156364"/>
    </g>
   </g>
   <g id="legend_2">
    <g id="patch_5">
     <path d="M 236.140705 332.861659 
L 558.68221 332.861659 
Q 561.48221 332.861659 561.48221 330.061659 
L 561.48221 309.890674 
Q 561.48221 307.090674 558.68221 307.090674 
L 236.140705 307.090674 
Q 233.340705 307.090674 233.340705 309.890674 
L 233.340705 330.061659 
Q 233.340705 332.861659 236.140705 332.861659 
z
" style="fill:#ffffff;opacity:0.95;stroke:#cccccc;stroke-linejoin:miter;stroke-width:0.5;"/>
    </g>
    <g id="line2d_33">
     <path d="M 238.940705 318.428486 
L 252.940705 318.428486 
" style="fill:none;stroke:#6e3b87;stroke-linecap:square;stroke-width:3;"/>
    </g>
    <g id="line2d_34">
     <g>
      <use style="fill:#6e3b87;" x="245.940705" xlink:href="#m672798d6fe" y="318.428486"/>
     </g>
    </g>
    <g id="text_12">
     <!-- $y = \Delta_5*\mathrm{reverse}(x)$ -->
     <g style="fill:#6e3b87;" transform="translate(264.140705 323.328486)scale(0.14 -0.14)">
      <defs>
       <path d="M -45 -1123 
C -51 -1167 -51 -1205 -51 -1237 
C -51 -1508 186 -1728 474 -1728 
C 1152 -1728 1856 -943 2234 228 
L 3136 3014 
L 3066 3072 
C 2880 3002 2733 2963 2592 2951 
L 2368 2111 
C 2291 1812 2067 1348 1856 1036 
C 1632 711 1318 432 1178 432 
C 1101 432 1043 579 1050 737 
L 1056 820 
L 1152 2054 
C 1165 2252 1178 2493 1178 2671 
C 1178 2957 1133 3072 1024 3072 
C 941 3072 851 3027 544 2817 
L 19 2461 
L 90 2347 
L 410 2537 
L 435 2557 
C 499 2595 544 2614 570 2614 
C 659 2614 710 2493 710 2284 
C 710 2277 710 2239 704 2188 
L 595 642 
L 589 387 
C 589 121 704 -64 864 -64 
C 1101 -64 1638 477 2118 1195 
L 1805 116 
C 1478 -1000 1158 -1460 710 -1460 
C 486 -1460 314 -1291 314 -1072 
C 314 -1040 320 -990 326 -934 
L 262 -908 
z
" id="URWPalladioL-Ital-79" transform="scale(0.015625)"/>
       <path d="M 4397 2048 
C 4493 2048 4614 2048 4614 2177 
C 4614 2305 4493 2305 4403 2305 
L 570 2305 
C 480 2305 358 2305 358 2177 
C 358 2048 480 2048 576 2048 
z
M 4403 832 
C 4493 832 4614 832 4614 961 
C 4614 1089 4493 1089 4397 1089 
L 576 1089 
C 480 1089 358 1089 358 961 
C 358 832 480 832 570 832 
z
" id="CMR10-3d" transform="scale(0.015625)"/>
       <path d="M 147 2565 
L 384 2565 
C 640 2565 666 2520 666 2094 
L 666 643 
C 666 237 646 192 429 192 
L 134 192 
L 134 -7 
C 595 -7 762 -7 922 -7 
C 1050 -7 1050 -7 1837 -7 
L 1837 192 
L 1504 192 
C 1216 192 1203 211 1203 638 
L 1203 1751 
C 1203 2139 1459 2463 1773 2463 
C 1965 2463 2099 2373 2202 2169 
L 2336 2169 
L 2394 2937 
C 2323 2982 2208 3008 2093 3008 
C 1901 3008 1696 2905 1562 2745 
L 1203 2322 
L 1203 2982 
L 1146 3008 
C 819 2873 486 2783 147 2745 
z
" id="URWPalladioL-Roma-72" transform="scale(0.015625)"/>
       <path d="M 3450 2752 
L 3450 2932 
C 3066 2932 2950 2932 2848 2932 
C 2746 2932 2630 2932 2246 2932 
L 2246 2752 
L 2509 2752 
C 2611 2752 2662 2694 2662 2591 
C 2662 2489 2618 2317 2541 2124 
L 2272 1445 
C 2195 1259 2118 1080 1875 549 
L 1114 2393 
C 1075 2482 1056 2566 1056 2636 
C 1056 2707 1114 2752 1216 2752 
L 1530 2752 
L 1530 2932 
C 902 2932 902 2932 781 2932 
C 659 2932 352 2932 38 2932 
L 38 2752 
L 256 2752 
C 352 2739 384 2701 454 2541 
L 1555 -32 
L 1875 -32 
C 1914 77 1978 243 1978 256 
C 2048 447 2131 664 2138 664 
L 2893 2324 
C 3034 2625 3123 2739 3251 2752 
z
" id="URWPalladioL-Roma-76" transform="scale(0.015625)"/>
       <path d="M 2118 -1536 
C 2118 -1517 2118 -1504 2010 -1395 
C 1210 -584 1005 632 1005 1616 
C 1005 2735 1248 3855 2035 4658 
C 2118 4735 2118 4748 2118 4767 
C 2118 4812 2093 4832 2054 4832 
C 1990 4832 1414 4395 1037 3577 
C 710 2870 634 2156 634 1616 
C 634 1114 704 336 1056 -391 
C 1440 -1182 1990 -1600 2054 -1600 
C 2093 -1600 2118 -1581 2118 -1536 
z
" id="CMR10-28" transform="scale(0.015625)"/>
       <path d="M 1850 1616 
C 1850 2118 1779 2896 1427 3622 
C 1043 4414 493 4832 429 4832 
C 390 4832 365 4806 365 4767 
C 365 4748 365 4735 486 4620 
C 1114 3983 1478 2960 1478 1616 
C 1478 516 1242 -617 448 -1427 
C 365 -1504 365 -1517 365 -1536 
C 365 -1575 390 -1600 429 -1600 
C 493 -1600 1069 -1163 1446 -346 
C 1773 362 1850 1075 1850 1616 
z
" id="CMR10-29" transform="scale(0.015625)"/>
      </defs>
      <use transform="scale(0.996264)" xlink:href="#URWPalladioL-Ital-79"/>
      <use transform="translate(79.977748 0)scale(1.038107)" xlink:href="#CMR10-3d"/>
      <use transform="translate(190.838676 0)scale(0.996264)" xlink:href="#PazoMath-44"/>
      <use transform="translate(259.430456 -17.441431)scale(0.757155)" xlink:href="#URWPalladioL-Roma-35"/>
      <use transform="translate(318.403399 0)scale(1.038107)" xlink:href="#CMSY10-3"/>
      <use transform="translate(390.92487 0)scale(0.996264)" xlink:href="#URWPalladioL-Roma-72"/>
      <use transform="translate(428.484188 0)scale(0.996264)" xlink:href="#URWPalladioL-Roma-65"/>
      <use transform="translate(476.204483 0)scale(0.996264)" xlink:href="#URWPalladioL-Roma-76"/>
      <use transform="translate(532.492396 0)scale(0.996264)" xlink:href="#URWPalladioL-Roma-65"/>
      <use transform="translate(580.212691 0)scale(0.996264)" xlink:href="#URWPalladioL-Roma-72"/>
      <use transform="translate(619.564588 0)scale(0.996264)" xlink:href="#URWPalladioL-Roma-73"/>
      <use transform="translate(661.806054 0)scale(0.996264)" xlink:href="#URWPalladioL-Roma-65"/>
      <use transform="translate(710.771649 0)scale(1.038107)" xlink:href="#CMR10-28"/>
      <use transform="translate(755.205029 0)scale(0.996264)" xlink:href="#URWPalladioL-Ital-78"/>
      <use transform="translate(808.504166 0)scale(1.038107)" xlink:href="#CMR10-29"/>
     </g>
    </g>
    <g id="line2d_35">
     <path d="M 411.411458 318.428486 
L 425.411458 318.428486 
" style="fill:none;stroke:#007d4d;stroke-linecap:square;stroke-width:3;"/>
    </g>
    <g id="line2d_36">
     <g>
      <use style="fill:#007d4d;" x="418.411458" xlink:href="#m5a3fc81772" y="318.428486"/>
     </g>
    </g>
    <g id="text_13">
     <!-- $y = \mathrm{reverse}(\Delta_5*x)$ -->
     <g style="fill:#007d4d;" transform="translate(436.611458 323.328486)scale(0.14 -0.14)">
      <use transform="scale(0.996264)" xlink:href="#URWPalladioL-Ital-79"/>
      <use transform="translate(79.977748 0)scale(1.038107)" xlink:href="#CMR10-3d"/>
      <use transform="translate(189.593377 0)scale(0.996264)" xlink:href="#URWPalladioL-Roma-72"/>
      <use transform="translate(227.152694 0)scale(0.996264)" xlink:href="#URWPalladioL-Roma-65"/>
      <use transform="translate(274.872989 0)scale(0.996264)" xlink:href="#URWPalladioL-Roma-76"/>
      <use transform="translate(331.160902 0)scale(0.996264)" xlink:href="#URWPalladioL-Roma-65"/>
      <use transform="translate(378.881197 0)scale(0.996264)" xlink:href="#URWPalladioL-Roma-72"/>
      <use transform="translate(418.233094 0)scale(0.996264)" xlink:href="#URWPalladioL-Roma-73"/>
      <use transform="translate(460.47456 0)scale(0.996264)" xlink:href="#URWPalladioL-Roma-65"/>
      <use transform="translate(509.440155 0)scale(1.038107)" xlink:href="#CMR10-28"/>
      <use transform="translate(552.17986 0)scale(0.996264)" xlink:href="#PazoMath-44"/>
      <use transform="translate(620.771639 -17.441431)scale(0.757155)" xlink:href="#URWPalladioL-Roma-35"/>
      <use transform="translate(679.744583 0)scale(1.038107)" xlink:href="#CMSY10-3"/>
      <use transform="translate(755.205029 0)scale(0.996264)" xlink:href="#URWPalladioL-Ital-78"/>
      <use transform="translate(808.504166 0)scale(1.038107)" xlink:href="#CMR10-29"/>
     </g>
    </g>
   </g>
  </g>
 </g>
 <defs>
  <clipPath id="ped5efc0fb8">
   <rect height="161.410589" width="545.35705" x="23.12516" y="7.2"/>
  </clipPath>
  <clipPath id="p37835554f9">
   <rect height="161.410589" width="545.35705" x="23.12516" y="178.451069"/>
  </clipPath>
 </defs>
</svg>
