<?xml version="1.0" encoding="utf-8" standalone="no"?>
<!DOCTYPE svg PUBLIC "-//W3C//DTD SVG 1.1//EN"
  "http://www.w3.org/Graphics/SVG/1.1/DTD/svg11.dtd">
<svg height="455.402304pt" version="1.1" viewBox="0 0 508.9704 455.402304" width="508.9704pt" xmlns="http://www.w3.org/2000/svg" xmlns:xlink="http://www.w3.org/1999/xlink">
 <metadata>
  <rdf:RDF xmlns:cc="http://creativecommons.org/ns#" xmlns:dc="http://purl.org/dc/elements/1.1/" xmlns:rdf="http://www.w3.org/1999/02/22-rdf-syntax-ns#">
   <cc:Work>
    <dc:type rdf:resource="http://purl.org/dc/dcmitype/StillImage"/>
    <dc:date>2020-09-21T10:39:03.925757</dc:date>
    <dc:format>image/svg+xml</dc:format>
    <dc:creator>
     <cc:Agent>
      <dc:title>Matplotlib v3.3.0rc1.post717+g6a40954ae, https://matplotlib.org/</dc:title>
     </cc:Agent>
    </dc:creator>
   </cc:Work>
  </rdf:RDF>
 </metadata>
 <defs>
  <style type="text/css">*{stroke-linecap:butt;stroke-linejoin:round;}</style>
 </defs>
 <g id="figure_1">
  <g id="patch_1">
   <path d="M 0 455.402304 
L 508.9704 455.402304 
L 508.9704 0 
L 0 0 
z
" style="fill:none;"/>
  </g>
  <g id="axes_1">
   <g id="patch_2">
    <path d="M 29.673848 184.867247 
L 359.621674 184.867247 
L 359.621674 36.612702 
L 29.673848 36.612702 
z
" style="fill:none;"/>
   </g>
   <g id="line2d_1">
    <path clip-path="url(#p22a919ebb3)" d="M 329.07095 77.045759 
L 341.291239 77.045759 
L 341.291239 110.739974 
L 353.511529 110.739974 
L 353.511529 110.739974 
" style="fill:none;stroke:#343837;stroke-linecap:square;stroke-width:3;"/>
    <defs>
     <path d="M 0 2.5 
C 0.663008 2.5 1.29895 2.236584 1.767767 1.767767 
C 2.236584 1.29895 2.5 0.663008 2.5 0 
C 2.5 -0.663008 2.236584 -1.29895 1.767767 -1.767767 
C 1.29895 -2.236584 0.663008 -2.5 0 -2.5 
C -0.663008 -2.5 -1.29895 -2.236584 -1.767767 -1.767767 
C -2.236584 -1.29895 -2.5 -0.663008 -2.5 0 
C -2.5 0.663008 -2.236584 1.29895 -1.767767 1.767767 
C -1.29895 2.236584 -0.663008 2.5 0 2.5 
z
" id="m79cbc76a59"/>
    </defs>
    <g clip-path="url(#p22a919ebb3)">
     <use style="fill:#343837;" x="329.07095" xlink:href="#m79cbc76a59" y="77.045759"/>
     <use style="fill:#343837;" x="341.291239" xlink:href="#m79cbc76a59" y="110.739974"/>
     <use style="fill:#343837;" x="353.511529" xlink:href="#m79cbc76a59" y="110.739974"/>
    </g>
   </g>
   <g id="matplotlib.axis_1">
    <g id="xtick_1">
     <g id="line2d_2">
      <path clip-path="url(#p22a919ebb3)" d="M 35.783993 184.867247 
L 35.783993 36.612702 
" style="fill:none;stroke:#000000;stroke-linecap:square;stroke-opacity:0.2;stroke-width:0.5;"/>
     </g>
     <g id="line2d_3">
      <defs>
       <path d="M 0 0 
L 0 3.5 
" id="mcccfcd1777" style="stroke:#000000;stroke-opacity:0.2;stroke-width:0.8;"/>
      </defs>
      <g>
       <use style="fill-opacity:0.2;stroke:#000000;stroke-opacity:0.2;stroke-width:0.8;" x="35.783993" xlink:href="#mcccfcd1777" y="184.867247"/>
      </g>
     </g>
    </g>
    <g id="xtick_2">
     <g id="line2d_4">
      <path clip-path="url(#p22a919ebb3)" d="M 60.224573 184.867247 
L 60.224573 36.612702 
" style="fill:none;stroke:#000000;stroke-linecap:square;stroke-opacity:0.2;stroke-width:0.5;"/>
     </g>
     <g id="line2d_5">
      <g>
       <use style="fill-opacity:0.2;stroke:#000000;stroke-opacity:0.2;stroke-width:0.8;" x="60.224573" xlink:href="#mcccfcd1777" y="184.867247"/>
      </g>
     </g>
    </g>
    <g id="xtick_3">
     <g id="line2d_6">
      <path clip-path="url(#p22a919ebb3)" d="M 329.07095 184.867247 
L 329.07095 36.612702 
" style="fill:none;stroke:#000000;stroke-linecap:square;stroke-opacity:0.2;stroke-width:0.5;"/>
     </g>
     <g id="line2d_7">
      <g>
       <use style="fill-opacity:0.2;stroke:#000000;stroke-opacity:0.2;stroke-width:0.8;" x="329.07095" xlink:href="#mcccfcd1777" y="184.867247"/>
      </g>
     </g>
    </g>
    <g id="xtick_4">
     <g id="line2d_8">
      <path clip-path="url(#p22a919ebb3)" d="M 353.511529 184.867247 
L 353.511529 36.612702 
" style="fill:none;stroke:#000000;stroke-linecap:square;stroke-opacity:0.2;stroke-width:0.5;"/>
     </g>
     <g id="line2d_9">
      <g>
       <use style="fill-opacity:0.2;stroke:#000000;stroke-opacity:0.2;stroke-width:0.8;" x="353.511529" xlink:href="#mcccfcd1777" y="184.867247"/>
      </g>
     </g>
    </g>
   </g>
   <g id="matplotlib.axis_2">
    <g id="ytick_1">
     <g id="line2d_10">
      <path clip-path="url(#p22a919ebb3)" d="M 29.673848 110.739974 
L 359.621674 110.739974 
" style="fill:none;stroke:#000000;stroke-linecap:square;stroke-opacity:0.2;stroke-width:0.5;"/>
     </g>
     <g id="line2d_11">
      <defs>
       <path d="M 0 0 
L -3.5 0 
" id="mb29af38ef4" style="stroke:#000000;stroke-opacity:0.2;stroke-width:0.8;"/>
      </defs>
      <g>
       <use style="fill-opacity:0.2;stroke:#000000;stroke-opacity:0.2;stroke-width:0.8;" x="29.673848" xlink:href="#mb29af38ef4" y="110.739974"/>
      </g>
     </g>
     <g id="text_1">
      <!-- $\mathdefault{0}$ -->
      <g transform="translate(7.2 115.729739)scale(0.14 -0.14)">
       <defs>
        <path d="M 1683 4416 
C 691 4416 186 3628 186 2077 
C 186 1326 320 680 544 366 
C 768 51 1126 -128 1523 -128 
C 2490 -128 2976 705 2976 2346 
C 2976 3749 2560 4416 1683 4416 
z
M 1568 4192 
C 2189 4192 2438 3564 2438 2025 
C 2438 661 2195 96 1606 96 
C 986 96 723 744 723 2308 
C 723 3660 960 4192 1568 4192 
z
" id="URWPalladioL-Roma-30" transform="scale(0.015625)"/>
       </defs>
       <use transform="scale(0.996264)" xlink:href="#URWPalladioL-Roma-30"/>
      </g>
     </g>
    </g>
   </g>
   <g id="line2d_12">
    <path clip-path="url(#p22a919ebb3)" d="M 35.783993 77.045759 
L 48.004283 77.045759 
L 48.004283 77.045759 
L 60.224573 77.045759 
L 60.224573 77.045759 
L 72.444863 77.045759 
L 72.444863 77.045759 
L 84.665152 77.045759 
L 84.665152 77.045759 
L 96.885442 77.045759 
L 96.885442 144.434189 
L 109.105732 144.434189 
L 109.105732 144.434189 
L 121.326022 144.434189 
L 121.326022 144.434189 
L 133.546312 144.434189 
L 133.546312 144.434189 
L 145.766602 144.434189 
L 145.766602 144.434189 
L 157.986892 144.434189 
L 157.986892 77.045759 
L 170.207181 77.045759 
L 170.207181 77.045759 
L 182.427471 77.045759 
L 182.427471 77.045759 
L 194.647761 77.045759 
L 194.647761 77.045759 
L 206.868051 77.045759 
L 206.868051 77.045759 
L 219.088341 77.045759 
L 219.088341 144.434189 
L 231.308631 144.434189 
L 231.308631 144.434189 
L 243.528921 144.434189 
L 243.528921 144.434189 
L 255.74921 144.434189 
L 255.74921 144.434189 
L 267.9695 144.434189 
L 267.9695 144.434189 
L 280.18979 144.434189 
L 280.18979 77.045759 
L 292.41008 77.045759 
L 292.41008 77.045759 
L 304.63037 77.045759 
L 304.63037 77.045759 
L 316.85066 77.045759 
L 316.85066 77.045759 
L 329.07095 77.045759 
L 329.07095 77.045759 
" style="fill:none;stroke:#0271ae;stroke-linecap:square;stroke-width:3;"/>
    <defs>
     <path d="M 0 2.5 
C 0.663008 2.5 1.29895 2.236584 1.767767 1.767767 
C 2.236584 1.29895 2.5 0.663008 2.5 0 
C 2.5 -0.663008 2.236584 -1.29895 1.767767 -1.767767 
C 1.29895 -2.236584 0.663008 -2.5 0 -2.5 
C -0.663008 -2.5 -1.29895 -2.236584 -1.767767 -1.767767 
C -2.236584 -1.29895 -2.5 -0.663008 -2.5 0 
C -2.5 0.663008 -2.236584 1.29895 -1.767767 1.767767 
C -1.29895 2.236584 -0.663008 2.5 0 2.5 
z
" id="md5cd79659c"/>
    </defs>
    <g clip-path="url(#p22a919ebb3)">
     <use style="fill:#0271ae;" x="35.783993" xlink:href="#md5cd79659c" y="77.045759"/>
     <use style="fill:#0271ae;" x="48.004283" xlink:href="#md5cd79659c" y="77.045759"/>
     <use style="fill:#0271ae;" x="60.224573" xlink:href="#md5cd79659c" y="77.045759"/>
     <use style="fill:#0271ae;" x="72.444863" xlink:href="#md5cd79659c" y="77.045759"/>
     <use style="fill:#0271ae;" x="84.665152" xlink:href="#md5cd79659c" y="77.045759"/>
     <use style="fill:#0271ae;" x="96.885442" xlink:href="#md5cd79659c" y="144.434189"/>
     <use style="fill:#0271ae;" x="109.105732" xlink:href="#md5cd79659c" y="144.434189"/>
     <use style="fill:#0271ae;" x="121.326022" xlink:href="#md5cd79659c" y="144.434189"/>
     <use style="fill:#0271ae;" x="133.546312" xlink:href="#md5cd79659c" y="144.434189"/>
     <use style="fill:#0271ae;" x="145.766602" xlink:href="#md5cd79659c" y="144.434189"/>
     <use style="fill:#0271ae;" x="157.986892" xlink:href="#md5cd79659c" y="77.045759"/>
     <use style="fill:#0271ae;" x="170.207181" xlink:href="#md5cd79659c" y="77.045759"/>
     <use style="fill:#0271ae;" x="182.427471" xlink:href="#md5cd79659c" y="77.045759"/>
     <use style="fill:#0271ae;" x="194.647761" xlink:href="#md5cd79659c" y="77.045759"/>
     <use style="fill:#0271ae;" x="206.868051" xlink:href="#md5cd79659c" y="77.045759"/>
     <use style="fill:#0271ae;" x="219.088341" xlink:href="#md5cd79659c" y="144.434189"/>
     <use style="fill:#0271ae;" x="231.308631" xlink:href="#md5cd79659c" y="144.434189"/>
     <use style="fill:#0271ae;" x="243.528921" xlink:href="#md5cd79659c" y="144.434189"/>
     <use style="fill:#0271ae;" x="255.74921" xlink:href="#md5cd79659c" y="144.434189"/>
     <use style="fill:#0271ae;" x="267.9695" xlink:href="#md5cd79659c" y="144.434189"/>
     <use style="fill:#0271ae;" x="280.18979" xlink:href="#md5cd79659c" y="77.045759"/>
     <use style="fill:#0271ae;" x="292.41008" xlink:href="#md5cd79659c" y="77.045759"/>
     <use style="fill:#0271ae;" x="304.63037" xlink:href="#md5cd79659c" y="77.045759"/>
     <use style="fill:#0271ae;" x="316.85066" xlink:href="#md5cd79659c" y="77.045759"/>
     <use style="fill:#0271ae;" x="329.07095" xlink:href="#md5cd79659c" y="77.045759"/>
    </g>
   </g>
   <g id="line2d_13">
    <path clip-path="url(#p22a919ebb3)" d="M 23.563703 110.739974 
L 11.343413 110.739974 
L 11.343413 110.739974 
" style="fill:none;stroke:#343837;stroke-linecap:square;stroke-width:3;"/>
    <g clip-path="url(#p22a919ebb3)">
     <use style="fill:#343837;" x="23.563703" xlink:href="#m79cbc76a59" y="110.739974"/>
     <use style="fill:#343837;" x="11.343413" xlink:href="#m79cbc76a59" y="110.739974"/>
    </g>
   </g>
   <g id="legend_1">
    <g id="patch_3">
     <path d="M 39.473848 177.867247 
L 213.951847 177.867247 
Q 216.751847 177.867247 216.751847 175.067247 
L 216.751847 154.896262 
Q 216.751847 152.096262 213.951847 152.096262 
L 39.473848 152.096262 
Q 36.673848 152.096262 36.673848 154.896262 
L 36.673848 175.067247 
Q 36.673848 177.867247 39.473848 177.867247 
z
" style="fill:#ffffff;opacity:0.95;stroke:#cccccc;stroke-linejoin:miter;stroke-width:0.5;"/>
    </g>
    <g id="line2d_14">
     <path d="M 42.273848 163.434075 
L 56.273848 163.434075 
" style="fill:none;stroke:#0271ae;stroke-linecap:square;stroke-width:3;"/>
    </g>
    <g id="line2d_15">
     <g>
      <use style="fill:#0271ae;" x="49.273848" xlink:href="#md5cd79659c" y="163.434075"/>
     </g>
    </g>
    <g id="text_2">
     <!-- $x$ -->
     <g transform="translate(67.473848 168.334075)scale(0.14 -0.14)">
      <defs>
       <path d="M 134 566 
C 134 438 122 357 83 153 
C 70 77 64 58 58 13 
C 154 -39 256 -64 333 -64 
C 544 -64 794 121 992 419 
L 1478 1164 
L 1549 725 
C 1632 184 1779 -64 2010 -64 
C 2150 -64 2355 44 2560 229 
L 2874 509 
L 2816 630 
C 2586 439 2426 344 2323 344 
C 2227 344 2144 408 2080 534 
C 2022 655 1952 890 1920 1075 
L 1805 1716 
L 2029 2028 
C 2330 2441 2502 2587 2701 2587 
C 2803 2587 2880 2536 2912 2441 
L 3002 2466 
L 3098 3008 
C 3021 3053 2963 3072 2906 3072 
C 2650 3072 2394 2842 1997 2257 
L 1760 1907 
L 1722 2212 
C 1645 2842 1472 3072 1094 3072 
C 928 3072 787 3021 730 2938 
L 358 2409 
L 467 2346 
C 659 2562 787 2651 909 2651 
C 1120 2651 1261 2391 1370 1767 
L 1440 1373 
L 1184 977 
C 909 549 691 344 512 344 
C 416 344 346 371 333 403 
L 262 585 
z
" id="URWPalladioL-Ital-78" transform="scale(0.015625)"/>
      </defs>
      <use transform="scale(0.996264)" xlink:href="#URWPalladioL-Ital-78"/>
     </g>
    </g>
    <g id="line2d_16">
     <path d="M 102.447696 163.434075 
L 116.447696 163.434075 
" style="fill:none;stroke:#343837;stroke-linecap:square;stroke-width:3;"/>
    </g>
    <g id="line2d_17">
     <g>
      <use style="fill:#343837;" x="109.447696" xlink:href="#m79cbc76a59" y="163.434075"/>
     </g>
    </g>
    <g id="text_3">
     <!-- zero-padding -->
     <g transform="translate(127.647696 168.334075)scale(0.14 -0.14)">
      <defs>
       <path d="M 2912 2764 
L 2912 2944 
C 2464 2944 2272 2944 2029 2944 
L 442 2944 
C 429 2624 422 2549 384 2115 
L 576 2115 
L 653 2547 
C 678 2681 794 2713 1267 2713 
L 2182 2713 
C 2048 2503 1939 2357 1766 2141 
L 678 794 
C 525 609 435 501 102 127 
L 141 0 
C 806 0 845 0 1120 0 
L 2886 0 
C 2886 145 2899 297 2944 602 
L 2982 899 
L 2790 899 
L 2675 397 
C 2650 282 2381 237 1766 237 
L 902 237 
z
" id="URWPalladioL-Roma-7a" transform="scale(0.015625)"/>
       <path d="M 2797 447 
L 2714 511 
C 2304 269 2157 212 1882 212 
C 1466 212 1120 398 941 711 
C 819 921 774 1101 762 1472 
L 1696 1472 
C 2138 1472 2413 1472 2854 1544 
C 2861 1634 2867 1693 2867 1771 
C 2867 2520 2394 3008 1677 3008 
C 1440 3008 1165 2924 902 2770 
C 378 2469 166 2071 166 1404 
C 166 1000 262 654 435 410 
C 691 71 1120 -128 1600 -128 
C 1837 -128 2074 -77 2336 37 
C 2509 108 2643 191 2669 230 
z
M 2298 1690 
C 1965 1690 1811 1690 1581 1690 
C 1286 1690 1120 1690 774 1722 
C 774 2027 800 2169 883 2337 
C 1018 2622 1293 2796 1600 2796 
C 1811 2796 1978 2711 2093 2534 
C 2234 2319 2278 2129 2298 1690 
z
" id="URWPalladioL-Roma-65" transform="scale(0.015625)"/>
       <path d="M 147 2565 
L 384 2565 
C 640 2565 666 2520 666 2094 
L 666 643 
C 666 237 646 192 429 192 
L 134 192 
L 134 -7 
C 595 -7 762 -7 922 -7 
C 1050 -7 1050 -7 1837 -7 
L 1837 192 
L 1504 192 
C 1216 192 1203 211 1203 638 
L 1203 1751 
C 1203 2139 1459 2463 1773 2463 
C 1965 2463 2099 2373 2202 2169 
L 2336 2169 
L 2394 2937 
C 2323 2982 2208 3008 2093 3008 
C 1901 3008 1696 2905 1562 2745 
L 1203 2322 
L 1203 2982 
L 1146 3008 
C 819 2873 486 2783 147 2745 
z
" id="URWPalladioL-Roma-72" transform="scale(0.015625)"/>
       <path d="M 1786 3008 
C 851 3008 205 2347 205 1392 
C 205 487 774 -128 1600 -128 
C 2586 -128 3290 558 3290 1520 
C 3290 2386 2662 3008 1786 3008 
z
M 1670 2796 
C 2259 2796 2694 2155 2694 1283 
C 2694 545 2368 83 1850 83 
C 1222 83 800 699 800 1610 
C 800 2379 1107 2796 1670 2796 
z
" id="URWPalladioL-Roma-6f" transform="scale(0.015625)"/>
       <path d="M 1805 1408 
L 1997 1837 
L 1965 1869 
L 282 1869 
L 109 1440 
L 141 1408 
z
" id="URWPalladioL-Roma-2d" transform="scale(0.015625)"/>
       <path d="M 64 2565 
L 301 2565 
C 557 2565 582 2520 582 2095 
L 582 -1142 
C 582 -1548 563 -1593 346 -1593 
L 51 -1593 
L 51 -1792 
C 691 -1792 691 -1792 851 -1792 
C 1011 -1792 1011 -1792 1651 -1792 
L 1651 -1593 
L 1357 -1593 
C 1139 -1593 1120 -1547 1120 -1138 
L 1120 89 
C 1312 -26 1517 -71 1805 -71 
C 1990 -71 2157 -32 2259 32 
L 2989 505 
C 3245 672 3546 1330 3546 1740 
C 3546 2451 2957 3008 2214 3008 
C 1978 3008 1747 2943 1645 2847 
L 1120 2367 
L 1120 2982 
L 1062 3008 
C 736 2873 403 2783 64 2745 
z
M 1120 1964 
C 1120 2053 1152 2124 1235 2233 
C 1421 2469 1683 2591 2003 2591 
C 2605 2591 2989 2169 2989 1504 
C 2989 787 2560 256 1984 256 
C 1632 256 1370 372 1120 633 
z
" id="URWPalladioL-Roma-70" transform="scale(0.015625)"/>
       <path d="M 2074 538 
L 2042 -1 
C 2458 -1 2458 -1 2541 -1 
C 2573 -1 2733 -1 3014 -1 
L 3014 192 
L 2765 192 
C 2611 192 2586 244 2586 558 
L 2586 1731 
C 2586 2668 2317 3008 1574 3008 
C 1299 3008 1043 2937 800 2791 
L 461 2585 
L 461 2171 
L 627 2126 
L 710 2323 
C 845 2623 909 2668 1203 2668 
C 1805 2668 2054 2431 2074 1852 
L 1440 1736 
C 570 1577 205 1277 205 722 
C 205 224 506 -64 1011 -64 
C 1126 -64 1235 -45 1280 -13 
z
M 2074 806 
C 1888 544 1485 302 1235 302 
C 979 302 755 538 755 812 
C 755 1048 883 1271 1075 1392 
C 1235 1488 1587 1577 2074 1648 
z
" id="URWPalladioL-Roma-61" transform="scale(0.015625)"/>
       <path d="M 2637 2802 
C 2278 2956 2099 3008 1875 3008 
C 1702 3008 1549 2969 1389 2887 
L 826 2593 
C 461 2401 224 1935 224 1392 
C 224 881 397 460 710 204 
C 928 19 1229 -64 1645 -64 
C 1773 -64 1920 -38 1952 -13 
L 2662 583 
L 2630 -7 
C 2944 -7 3046 -7 3123 -7 
C 3174 -7 3264 -7 3398 -7 
C 3443 -7 3571 -7 3706 -7 
L 3706 192 
L 3411 192 
C 3194 192 3174 237 3174 643 
L 3174 4607 
L 3117 4659 
C 2835 4550 2624 4498 2118 4421 
L 2118 4242 
L 2477 4242 
C 2592 4242 2637 4171 2637 3978 
z
M 2637 1424 
C 2637 1009 2624 946 2541 799 
C 2362 499 2048 302 1747 302 
C 1184 302 781 844 781 1603 
C 781 2298 1126 2706 1702 2706 
C 1946 2706 2202 2623 2426 2470 
C 2560 2381 2637 2298 2637 2246 
z
" id="URWPalladioL-Roma-64" transform="scale(0.015625)"/>
       <path d="M 1203 2993 
L 1146 3019 
C 819 2884 486 2793 147 2755 
L 147 2576 
L 384 2576 
C 640 2576 666 2531 666 2105 
L 666 651 
C 666 244 646 199 429 199 
L 134 199 
L 134 0 
C 774 0 774 0 934 0 
C 1094 0 1094 0 1734 0 
L 1734 199 
L 1440 199 
C 1222 199 1203 244 1203 651 
z
M 909 4416 
C 717 4416 550 4249 550 4056 
C 550 3870 717 3704 902 3704 
C 1088 3704 1261 3870 1261 4056 
C 1261 4236 1088 4416 909 4416 
z
" id="URWPalladioL-Roma-69" transform="scale(0.015625)"/>
       <path d="M 2624 -7 
C 3014 -7 3021 -7 3130 -7 
C 3219 -7 3219 -7 3661 -7 
L 3661 179 
L 3398 205 
C 3181 205 3162 244 3162 654 
L 3162 1892 
C 3162 2642 2810 3008 2093 3008 
C 1856 3008 1722 2963 1587 2847 
L 1101 2424 
L 1101 2982 
L 1043 3008 
C 717 2873 384 2783 45 2745 
L 45 2565 
L 282 2565 
C 538 2565 563 2520 563 2094 
L 563 643 
C 563 237 544 192 326 192 
L 38 192 
L 38 -7 
C 474 -7 646 -7 832 -7 
C 1018 -7 1190 -7 1626 -7 
L 1626 192 
L 1338 192 
C 1120 192 1101 237 1101 643 
L 1101 2011 
C 1101 2300 1523 2616 1914 2616 
C 2342 2616 2624 2297 2624 1806 
z
" id="URWPalladioL-Roma-6e" transform="scale(0.015625)"/>
       <path d="M 3322 2432 
L 3482 2695 
L 3456 2759 
L 2547 2759 
C 2310 2937 2080 3008 1766 3008 
C 1485 3008 1158 2920 896 2768 
C 538 2567 352 2258 352 1874 
C 352 1408 646 1087 1120 1036 
L 614 640 
C 550 543 518 459 518 361 
C 518 180 634 76 941 -14 
L 384 -316 
C 294 -367 205 -604 205 -803 
C 205 -1388 774 -1792 1587 -1792 
C 2554 -1792 3315 -1182 3315 -399 
C 3315 63 3008 384 2560 384 
L 1536 384 
C 1203 384 1050 462 1050 639 
C 1050 724 1101 795 1267 939 
C 1306 972 1318 985 1344 1011 
C 1408 1004 1446 998 1498 998 
C 1773 998 2112 1118 2374 1300 
C 2662 1507 2803 1759 2803 2093 
C 2803 2218 2784 2300 2733 2432 
z
M 1536 2790 
C 1971 2790 2266 2438 2266 1905 
C 2266 1499 1997 1216 1606 1216 
C 1178 1216 890 1542 890 2025 
C 890 2507 1126 2790 1536 2790 
z
M 1837 -65 
C 2560 -65 2810 -212 2810 -630 
C 2810 -1182 2304 -1593 1632 -1593 
C 1075 -1593 691 -1266 691 -790 
C 691 -502 858 -238 1114 -129 
C 1216 -78 1395 -65 1837 -65 
z
" id="URWPalladioL-Roma-67" transform="scale(0.015625)"/>
      </defs>
      <use transform="scale(0.996264)" xlink:href="#URWPalladioL-Roma-7a"/>
      <use transform="translate(49.8132 0)scale(0.996264)" xlink:href="#URWPalladioL-Roma-65"/>
      <use transform="translate(97.533496 0)scale(0.996264)" xlink:href="#URWPalladioL-Roma-72"/>
      <use transform="translate(135.092813 0)scale(0.996264)" xlink:href="#URWPalladioL-Roma-6f"/>
      <use transform="translate(189.488393 0)scale(0.996264)" xlink:href="#URWPalladioL-Roma-2d"/>
      <use transform="translate(222.663623 0)scale(0.996264)" xlink:href="#URWPalladioL-Roma-70"/>
      <use transform="translate(282.538017 0)scale(0.996264)" xlink:href="#URWPalladioL-Roma-61"/>
      <use transform="translate(332.351217 0)scale(0.996264)" xlink:href="#URWPalladioL-Roma-64"/>
      <use transform="translate(393.222848 0)scale(0.996264)" xlink:href="#URWPalladioL-Roma-64"/>
      <use transform="translate(454.094478 0)scale(0.996264)" xlink:href="#URWPalladioL-Roma-69"/>
      <use transform="translate(483.08484 0)scale(0.996264)" xlink:href="#URWPalladioL-Roma-6e"/>
      <use transform="translate(541.066901 0)scale(0.996264)" xlink:href="#URWPalladioL-Roma-67"/>
     </g>
    </g>
   </g>
  </g>
  <g id="axes_2">
   <g id="patch_4">
    <path d="M 29.673848 362.772702 
L 359.621674 362.772702 
L 359.621674 214.518156 
L 29.673848 214.518156 
z
" style="fill:none;"/>
   </g>
   <g id="patch_5">
    <path clip-path="url(#pe11fbd5092)" d="M 35.783993 362.772702 
L 35.783993 214.518156 
L 60.224573 214.518156 
L 60.224573 362.772702 
z
" style="fill:#343837;opacity:0.1;stroke:#343837;stroke-linejoin:miter;stroke-width:0.5;"/>
   </g>
   <g id="patch_6">
    <path clip-path="url(#pe11fbd5092)" d="M 329.07095 362.772702 
L 329.07095 214.518156 
L 353.511529 214.518156 
L 353.511529 362.772702 
z
" style="fill:#343837;opacity:0.1;stroke:#343837;stroke-linejoin:miter;stroke-width:0.5;"/>
   </g>
   <g id="patch_7">
    <path clip-path="url(#pe11fbd5092)" d="M 35.783993 266.407247 
L 35.783993 251.581793 
L 353.511529 251.581793 
L 353.511529 266.407247 
z
" style="fill:#ffc438;opacity:0.5;stroke:#ffc438;stroke-linejoin:miter;stroke-width:0.5;"/>
   </g>
   <g id="patch_8">
    <path clip-path="url(#pe11fbd5092)" d="M 60.224573 281.232702 
L 60.224573 266.407247 
L 329.07095 266.407247 
L 329.07095 281.232702 
z
" style="fill:#007d4d;opacity:0.5;stroke:#007d4d;stroke-linejoin:miter;stroke-width:0.5;"/>
   </g>
   <g id="patch_9">
    <path clip-path="url(#pe11fbd5092)" d="M 35.783993 296.058156 
L 35.783993 281.232702 
L 329.07095 281.232702 
L 329.07095 296.058156 
z
" style="fill:#0095b7;opacity:0.5;stroke:#0095b7;stroke-linejoin:miter;stroke-width:0.5;"/>
   </g>
   <g id="patch_10">
    <path clip-path="url(#pe11fbd5092)" d="M 48.004283 310.883611 
L 48.004283 296.058156 
L 341.291239 296.058156 
L 341.291239 310.883611 
z
" style="fill:#fa902d;opacity:0.5;stroke:#fa902d;stroke-linejoin:miter;stroke-width:0.5;"/>
   </g>
   <g id="patch_11">
    <path clip-path="url(#pe11fbd5092)" d="M 60.224573 325.709065 
L 60.224573 310.883611 
L 353.511529 310.883611 
L 353.511529 325.709065 
z
" style="fill:#cb0c7b;opacity:0.5;stroke:#cb0c7b;stroke-linejoin:miter;stroke-width:0.5;"/>
   </g>
   <g id="matplotlib.axis_3">
    <g id="xtick_5">
     <g id="line2d_18">
      <path clip-path="url(#pe11fbd5092)" d="M 35.783993 362.772702 
L 35.783993 214.518156 
" style="fill:none;stroke:#000000;stroke-linecap:square;stroke-opacity:0.2;stroke-width:0.5;"/>
     </g>
     <g id="line2d_19">
      <g>
       <use style="fill-opacity:0.2;stroke:#000000;stroke-opacity:0.2;stroke-width:0.8;" x="35.783993" xlink:href="#mcccfcd1777" y="362.772702"/>
      </g>
     </g>
     <g id="text_4">
      <!-- 0 -->
      <g transform="translate(35.456075 390.26055)rotate(-45)scale(0.14 -0.14)">
       <use transform="scale(0.996264)" xlink:href="#URWPalladioL-Roma-30"/>
      </g>
     </g>
    </g>
    <g id="xtick_6">
     <g id="line2d_20">
      <path clip-path="url(#pe11fbd5092)" d="M 60.224573 362.772702 
L 60.224573 214.518156 
" style="fill:none;stroke:#000000;stroke-linecap:square;stroke-opacity:0.2;stroke-width:0.5;"/>
     </g>
     <g id="line2d_21">
      <g>
       <use style="fill-opacity:0.2;stroke:#000000;stroke-opacity:0.2;stroke-width:0.8;" x="60.224573" xlink:href="#mcccfcd1777" y="362.772702"/>
      </g>
     </g>
     <g id="text_5">
      <!-- $K-1$ -->
      <g transform="translate(50.431782 409.190296)rotate(-45)scale(0.14 -0.14)">
       <defs>
        <path d="M 2374 4239 
L 2394 4416 
L 2240 4416 
L 1664 4416 
C 1562 4416 1446 4416 1171 4416 
L 762 4416 
L 742 4238 
L 1043 4238 
C 1197 4238 1267 4187 1267 4072 
C 1267 3983 1248 3797 1210 3587 
L 742 817 
C 634 229 627 223 371 197 
L 109 178 
L 83 0 
L 352 0 
C 659 0 806 0 928 0 
L 1549 0 
L 1715 0 
L 1734 179 
L 1421 179 
C 1248 192 1190 237 1190 365 
C 1190 405 1197 475 1203 500 
L 1478 2183 
C 2438 1094 2586 910 3258 0 
L 3699 0 
C 3930 0 3968 0 4134 0 
L 4134 179 
L 4006 179 
C 3859 179 3731 256 3597 422 
L 2022 2355 
L 3891 4098 
C 3994 4193 4128 4257 4237 4257 
L 4371 4257 
L 4371 4416 
L 4224 4416 
C 4090 4416 3987 4416 3936 4416 
C 3872 4416 3770 4416 3635 4416 
L 3507 4416 
L 3507 4244 
C 3507 4193 3443 4110 3264 3932 
L 2445 3102 
C 2163 2815 1901 2584 1491 2266 
L 1779 3915 
C 1824 4156 1869 4200 2106 4220 
z
" id="URWPalladioL-Ital-4b" transform="scale(0.015625)"/>
        <path d="M 4218 1472 
C 4326 1472 4442 1472 4442 1600 
C 4442 1728 4326 1728 4218 1728 
L 755 1728 
C 646 1728 531 1728 531 1600 
C 531 1472 646 1472 755 1472 
z
" id="CMSY10-0" transform="scale(0.015625)"/>
        <path d="M 429 3584 
L 493 3584 
L 1318 3956 
C 1325 3962 1331 3962 1338 3962 
C 1376 3962 1389 3905 1389 3751 
L 1389 613 
C 1389 276 1318 205 973 205 
L 614 205 
L 614 0 
C 1600 0 1600 0 1670 0 
C 1754 0 1894 0 2112 0 
C 2189 0 2413 0 2675 0 
L 2675 205 
L 2342 205 
C 1990 205 1926 276 1926 612 
L 1926 4443 
L 1837 4475 
C 1421 4257 966 4065 384 3860 
z
" id="URWPalladioL-Roma-31" transform="scale(0.015625)"/>
       </defs>
       <use transform="scale(0.996264)" xlink:href="#URWPalladioL-Ital-4b"/>
       <use transform="translate(89.906199 0)scale(1.038107)" xlink:href="#CMSY10-0"/>
       <use transform="translate(191.219648 0)scale(0.996264)" xlink:href="#URWPalladioL-Roma-31"/>
      </g>
     </g>
    </g>
    <g id="xtick_7">
     <g id="line2d_22">
      <path clip-path="url(#pe11fbd5092)" d="M 329.07095 362.772702 
L 329.07095 214.518156 
" style="fill:none;stroke:#000000;stroke-linecap:square;stroke-opacity:0.2;stroke-width:0.5;"/>
     </g>
     <g id="line2d_23">
      <g>
       <use style="fill-opacity:0.2;stroke:#000000;stroke-opacity:0.2;stroke-width:0.8;" x="329.07095" xlink:href="#mcccfcd1777" y="362.772702"/>
      </g>
     </g>
     <g id="text_6">
      <!-- $N-1$ -->
      <g transform="translate(318.656764 410.433085)rotate(-45)scale(0.14 -0.14)">
       <defs>
        <path d="M 1517 4402 
L 998 4402 
L 934 4402 
L 845 4402 
C 826 4402 730 4402 582 4402 
L 480 4402 
L 448 4224 
L 672 4224 
C 781 4224 922 4179 992 4122 
C 1088 4045 1184 3924 1184 3873 
C 1184 3867 1184 3848 1178 3828 
C 1178 3822 1178 3809 1171 3797 
C 1165 3746 1158 3701 1152 3682 
L 589 662 
C 512 267 474 216 243 190 
L 45 171 
L 13 -7 
L 723 -7 
C 800 -7 806 -7 1427 -7 
L 1459 165 
L 1190 184 
C 934 204 877 255 877 465 
C 877 516 883 586 896 656 
L 1408 3612 
L 3571 -64 
L 3891 -64 
L 4493 3459 
C 4627 4179 4640 4205 4877 4224 
L 5114 4224 
L 5146 4402 
L 5011 4402 
L 4442 4402 
L 3891 4402 
L 3770 4402 
L 3738 4224 
L 4038 4224 
C 4205 4224 4269 4177 4269 4071 
C 4269 4026 4250 3861 4237 3778 
L 3725 662 
z
" id="URWPalladioL-Ital-4e" transform="scale(0.015625)"/>
       </defs>
       <use transform="scale(0.996264)" xlink:href="#URWPalladioL-Ital-4e"/>
       <use transform="translate(102.460211 0)scale(1.038107)" xlink:href="#CMSY10-0"/>
       <use transform="translate(203.77366 0)scale(0.996264)" xlink:href="#URWPalladioL-Roma-31"/>
      </g>
     </g>
    </g>
    <g id="xtick_8">
     <g id="line2d_24">
      <path clip-path="url(#pe11fbd5092)" d="M 353.511529 362.772702 
L 353.511529 214.518156 
" style="fill:none;stroke:#000000;stroke-linecap:square;stroke-opacity:0.2;stroke-width:0.5;"/>
     </g>
     <g id="line2d_25">
      <g>
       <use style="fill-opacity:0.2;stroke:#000000;stroke-opacity:0.2;stroke-width:0.8;" x="353.511529" xlink:href="#mcccfcd1777" y="362.772702"/>
      </g>
     </g>
     <g id="text_7">
      <!-- $N+K-1$ -->
      <g transform="translate(333.565901 429.495972)rotate(-45)scale(0.14 -0.14)">
       <defs>
        <path d="M 2618 1472 
L 4403 1472 
C 4493 1472 4614 1472 4614 1600 
C 4614 1729 4493 1729 4403 1729 
L 2618 1729 
L 2618 3532 
C 2618 3622 2618 3744 2490 3744 
C 2362 3744 2362 3622 2362 3532 
L 2362 1729 
L 570 1729 
C 480 1729 358 1729 358 1600 
C 358 1472 480 1472 570 1472 
L 2362 1472 
L 2362 -331 
C 2362 -421 2362 -544 2490 -544 
C 2618 -544 2618 -421 2618 -331 
z
" id="CMR10-2b" transform="scale(0.015625)"/>
       </defs>
       <use transform="scale(0.996264)" xlink:href="#URWPalladioL-Ital-4e"/>
       <use transform="translate(102.460211 0)scale(1.038107)" xlink:href="#CMR10-2b"/>
       <use transform="translate(205.118638 0)scale(0.996264)" xlink:href="#URWPalladioL-Ital-4b"/>
       <use transform="translate(295.024837 0)scale(1.038107)" xlink:href="#CMSY10-0"/>
       <use transform="translate(396.338286 0)scale(0.996264)" xlink:href="#URWPalladioL-Roma-31"/>
      </g>
     </g>
    </g>
    <g id="text_8">
     <!-- Sample indices -->
     <g transform="translate(154.8913 444.83102)scale(0.12 -0.12)">
      <defs>
       <path d="M 2861 3371 
C 2861 3711 2886 3928 2950 4274 
C 2438 4480 2150 4544 1798 4544 
C 845 4544 154 3941 154 3102 
C 154 2788 237 2557 422 2384 
C 640 2186 934 2083 1555 2000 
C 2048 1929 2272 1859 2438 1711 
C 2605 1577 2682 1391 2682 1147 
C 2682 571 2202 154 1536 154 
C 1024 154 525 404 493 666 
L 442 1096 
L 237 1096 
C 243 980 243 878 243 840 
C 243 545 230 404 192 116 
C 557 -45 928 -128 1299 -128 
C 2413 -128 3219 545 3219 1474 
C 3219 1775 3136 1987 2957 2153 
C 2733 2364 2464 2448 1747 2544 
C 966 2646 691 2858 691 3352 
C 691 3890 1094 4274 1658 4274 
C 1907 4274 2144 4223 2317 4127 
C 2528 4018 2598 3922 2618 3737 
L 2656 3371 
z
" id="URWPalladioL-Roma-53" transform="scale(0.015625)"/>
       <path d="M 115 2565 
L 352 2565 
C 608 2565 634 2520 634 2094 
L 634 643 
C 634 237 614 192 397 192 
L 102 192 
L 102 -7 
C 717 -7 736 -7 915 -7 
C 1094 -7 1261 -7 1677 -7 
L 1677 179 
L 1408 205 
C 1190 205 1171 250 1171 654 
L 1171 2014 
C 1171 2302 1594 2616 1978 2616 
C 2323 2616 2560 2287 2560 1798 
L 2560 643 
C 2560 237 2541 192 2323 192 
L 2029 192 
L 2029 -7 
C 2669 -7 2669 -7 2829 -7 
C 2989 -7 2989 -7 3629 -7 
L 3629 192 
L 3334 192 
C 3117 192 3098 237 3098 643 
L 3098 2011 
C 3098 2300 3520 2616 3904 2616 
C 4250 2616 4486 2291 4486 1806 
L 4486 -7 
C 4877 -7 4883 -7 4992 -7 
C 5075 -7 5075 -7 5562 -7 
L 5562 192 
L 5261 192 
C 5043 192 5024 237 5024 643 
L 5024 1970 
C 5024 2608 4653 3008 4064 3008 
C 3840 3008 3654 2950 3539 2847 
L 3053 2412 
C 2848 2834 2586 3008 2144 3008 
C 1907 3008 1728 2950 1613 2847 
L 1171 2437 
L 1171 2982 
L 1114 3008 
C 787 2873 454 2783 115 2745 
z
" id="URWPalladioL-Roma-6d" transform="scale(0.015625)"/>
       <path d="M 147 4256 
L 506 4256 
C 621 4256 666 4185 666 3992 
L 666 651 
C 666 244 646 199 429 199 
L 134 199 
L 134 0 
C 774 0 774 0 934 0 
C 1094 0 1094 0 1734 0 
L 1734 199 
L 1440 199 
C 1222 199 1203 244 1203 650 
L 1203 4621 
L 1146 4673 
C 864 4564 653 4512 147 4435 
z
" id="URWPalladioL-Roma-6c" transform="scale(0.015625)"/>
       <path d="M 2554 1994 
C 2554 2289 2586 2552 2643 2783 
C 2387 2937 2163 3008 1901 3008 
C 1594 3008 1235 2886 851 2642 
C 403 2360 166 1911 166 1347 
C 166 481 774 -128 1632 -128 
C 1965 -128 2445 -6 2509 90 
L 2643 295 
L 2579 391 
C 2342 263 2138 205 1907 205 
C 1197 205 730 757 730 1603 
C 730 2289 1050 2674 1626 2674 
C 1907 2674 2214 2546 2330 2386 
L 2374 1994 
z
" id="URWPalladioL-Roma-63" transform="scale(0.015625)"/>
       <path d="M 262 917 
C 262 475 243 282 192 26 
C 525 -83 774 -128 1069 -128 
C 1907 -128 2502 321 2502 949 
C 2502 1148 2445 1295 2323 1424 
C 2157 1584 1946 1661 1382 1770 
C 858 1873 685 2001 685 2296 
C 685 2616 909 2796 1299 2796 
C 1728 2796 2054 2572 2054 2270 
L 2054 2123 
L 2234 2123 
C 2240 2495 2246 2648 2266 2847 
C 1926 2963 1696 3008 1434 3008 
C 691 3008 237 2655 237 2078 
C 237 1770 378 1552 672 1417 
C 845 1340 1184 1238 1619 1141 
C 1907 1077 2029 943 2029 699 
C 2029 353 1709 109 1254 109 
C 787 109 454 333 454 654 
L 454 917 
z
" id="URWPalladioL-Roma-73" transform="scale(0.015625)"/>
      </defs>
      <use transform="scale(0.996264)" xlink:href="#URWPalladioL-Roma-53"/>
      <use transform="translate(52.303815 0)scale(0.996264)" xlink:href="#URWPalladioL-Roma-61"/>
      <use transform="translate(102.117015 0)scale(0.996264)" xlink:href="#URWPalladioL-Roma-6d"/>
      <use transform="translate(190.08669 0)scale(0.996264)" xlink:href="#URWPalladioL-Roma-70"/>
      <use transform="translate(249.961083 0)scale(0.996264)" xlink:href="#URWPalladioL-Roma-6c"/>
      <use transform="translate(278.951445 0)scale(0.996264)" xlink:href="#URWPalladioL-Roma-65"/>
      <use transform="translate(351.57834 0)scale(0.996264)" xlink:href="#URWPalladioL-Roma-69"/>
      <use transform="translate(380.568702 0)scale(0.996264)" xlink:href="#URWPalladioL-Roma-6e"/>
      <use transform="translate(438.550762 0)scale(0.996264)" xlink:href="#URWPalladioL-Roma-64"/>
      <use transform="translate(499.422393 0)scale(0.996264)" xlink:href="#URWPalladioL-Roma-69"/>
      <use transform="translate(528.412755 0)scale(0.996264)" xlink:href="#URWPalladioL-Roma-63"/>
      <use transform="translate(572.646323 0)scale(0.996264)" xlink:href="#URWPalladioL-Roma-65"/>
      <use transform="translate(620.366618 0)scale(0.996264)" xlink:href="#URWPalladioL-Roma-73"/>
     </g>
    </g>
   </g>
   <g id="matplotlib.axis_4">
    <g id="ytick_2">
     <g id="line2d_26">
      <path clip-path="url(#pe11fbd5092)" d="M 29.673848 288.645429 
L 359.621674 288.645429 
" style="fill:none;stroke:#000000;stroke-linecap:square;stroke-opacity:0.2;stroke-width:0.5;"/>
     </g>
     <g id="line2d_27">
      <g>
       <use style="fill-opacity:0.2;stroke:#000000;stroke-opacity:0.2;stroke-width:0.8;" x="29.673848" xlink:href="#mb29af38ef4" y="288.645429"/>
      </g>
     </g>
     <g id="text_9">
      <!-- $\mathdefault{0}$ -->
      <g transform="translate(7.2 293.635194)scale(0.14 -0.14)">
       <use transform="scale(0.996264)" xlink:href="#URWPalladioL-Roma-30"/>
      </g>
     </g>
    </g>
   </g>
   <g id="legend_2">
    <g id="patch_12">
     <path d="M 369.421674 355.144065 
L 498.9704 355.144065 
Q 501.7704 355.144065 501.7704 352.344065 
L 501.7704 224.318156 
Q 501.7704 221.518156 498.9704 221.518156 
L 369.421674 221.518156 
Q 366.621674 221.518156 366.621674 224.318156 
L 366.621674 352.344065 
Q 366.621674 355.144065 369.421674 355.144065 
z
" style="fill:#ffffff;opacity:0.95;stroke:#cccccc;stroke-linejoin:miter;stroke-width:0.5;"/>
    </g>
    <g id="line2d_28">
     <path d="M 372.221674 232.855969 
L 386.221674 232.855969 
" style="fill:none;stroke:#6e3b87;stroke-linecap:square;stroke-width:2;"/>
    </g>
    <g id="line2d_29">
     <defs>
      <path d="M 0 2.5 
C 0.663008 2.5 1.29895 2.236584 1.767767 1.767767 
C 2.236584 1.29895 2.5 0.663008 2.5 0 
C 2.5 -0.663008 2.236584 -1.29895 1.767767 -1.767767 
C 1.29895 -2.236584 0.663008 -2.5 0 -2.5 
C -0.663008 -2.5 -1.29895 -2.236584 -1.767767 -1.767767 
C -2.236584 -1.29895 -2.5 -0.663008 -2.5 0 
C -2.5 0.663008 -2.236584 1.29895 -1.767767 1.767767 
C -1.29895 2.236584 -0.663008 2.5 0 2.5 
z
" id="m4c03ed376f"/>
     </defs>
     <g>
      <use style="fill:#6e3b87;" x="379.221674" xlink:href="#m4c03ed376f" y="232.855969"/>
     </g>
    </g>
    <g id="text_10">
     <!-- $y=x*h$ -->
     <g transform="translate(397.421674 237.755969)scale(0.14 -0.14)">
      <defs>
       <path d="M -45 -1123 
C -51 -1167 -51 -1205 -51 -1237 
C -51 -1508 186 -1728 474 -1728 
C 1152 -1728 1856 -943 2234 228 
L 3136 3014 
L 3066 3072 
C 2880 3002 2733 2963 2592 2951 
L 2368 2111 
C 2291 1812 2067 1348 1856 1036 
C 1632 711 1318 432 1178 432 
C 1101 432 1043 579 1050 737 
L 1056 820 
L 1152 2054 
C 1165 2252 1178 2493 1178 2671 
C 1178 2957 1133 3072 1024 3072 
C 941 3072 851 3027 544 2817 
L 19 2461 
L 90 2347 
L 410 2537 
L 435 2557 
C 499 2595 544 2614 570 2614 
C 659 2614 710 2493 710 2284 
C 710 2277 710 2239 704 2188 
L 595 642 
L 589 387 
C 589 121 704 -64 864 -64 
C 1101 -64 1638 477 2118 1195 
L 1805 116 
C 1478 -1000 1158 -1460 710 -1460 
C 486 -1460 314 -1291 314 -1072 
C 314 -1040 320 -990 326 -934 
L 262 -908 
z
" id="URWPalladioL-Ital-79" transform="scale(0.015625)"/>
       <path d="M 4397 2048 
C 4493 2048 4614 2048 4614 2177 
C 4614 2305 4493 2305 4403 2305 
L 570 2305 
C 480 2305 358 2305 358 2177 
C 358 2048 480 2048 576 2048 
z
M 4403 832 
C 4493 832 4614 832 4614 961 
C 4614 1089 4493 1089 4397 1089 
L 576 1089 
C 480 1089 358 1089 358 961 
C 358 832 480 832 570 832 
z
" id="CMR10-3d" transform="scale(0.015625)"/>
       <path d="M 1760 2719 
C 1766 2808 1766 2962 1600 2962 
C 1498 2962 1414 2879 1434 2795 
L 1434 2712 
L 1523 1720 
L 704 2316 
C 646 2348 634 2360 589 2360 
C 499 2360 416 2271 416 2181 
C 416 2079 480 2053 544 2021 
L 1453 1586 
L 570 1158 
C 467 1107 416 1081 416 985 
C 416 889 499 806 589 806 
C 634 806 646 806 806 928 
L 1523 1446 
L 1427 371 
C 1427 236 1542 204 1594 204 
C 1670 204 1766 248 1766 371 
L 1670 1446 
L 2490 851 
C 2547 819 2560 806 2605 806 
C 2694 806 2778 896 2778 985 
C 2778 1081 2720 1113 2643 1152 
C 2259 1343 2246 1343 1741 1580 
L 2624 2008 
C 2726 2060 2778 2085 2778 2181 
C 2778 2277 2694 2360 2605 2360 
C 2560 2360 2547 2360 2387 2239 
L 1670 1720 
z
" id="CMSY10-3" transform="scale(0.015625)"/>
       <path d="M 1510 4587 
L 1434 4657 
C 1101 4492 870 4434 410 4390 
L 384 4256 
L 691 4256 
C 845 4256 909 4211 909 4103 
C 909 4052 902 3995 896 3950 
L 627 2462 
C 448 1500 198 406 64 6 
L 109 -64 
L 550 38 
C 653 773 762 1162 947 1500 
C 1229 2018 1894 2637 2163 2637 
C 2246 2637 2304 2580 2304 2497 
C 2304 2382 2259 2139 2208 1928 
L 1882 677 
C 1824 446 1798 306 1798 185 
C 1798 31 1869 -64 1990 -64 
C 2157 -64 2387 69 3014 536 
L 2950 651 
L 2784 543 
C 2598 421 2458 351 2394 351 
C 2349 351 2310 408 2310 478 
C 2310 542 2317 594 2355 734 
L 2765 2369 
C 2803 2535 2835 2733 2835 2841 
C 2835 2983 2765 3072 2650 3072 
C 2432 3072 2042 2861 1638 2523 
C 1414 2337 1306 2222 1011 1845 
L 883 1686 
z
" id="URWPalladioL-Ital-68" transform="scale(0.015625)"/>
      </defs>
      <use transform="scale(0.996264)" xlink:href="#URWPalladioL-Ital-79"/>
      <use transform="translate(79.977748 0)scale(1.038107)" xlink:href="#CMR10-3d"/>
      <use transform="translate(192.532352 0)scale(0.996264)" xlink:href="#URWPalladioL-Ital-78"/>
      <use transform="translate(265.203242 0)scale(1.038107)" xlink:href="#CMSY10-3"/>
      <use transform="translate(339.46816 0)scale(0.996264)" xlink:href="#URWPalladioL-Ital-68"/>
     </g>
    </g>
    <g id="patch_13">
     <path d="M 372.221674 259.326954 
L 386.221674 259.326954 
L 386.221674 249.526954 
L 372.221674 249.526954 
z
" style="fill:#ffc438;opacity:0.5;stroke:#ffc438;stroke-linejoin:miter;stroke-width:0.5;"/>
    </g>
    <g id="text_11">
     <!-- Full -->
     <g transform="translate(397.421674 259.326954)scale(0.14 -0.14)">
      <defs>
       <path d="M 1382 2100 
C 1562 2112 1754 2112 2042 2112 
C 2515 2112 2688 2094 2803 2040 
L 2854 1890 
L 2886 1536 
L 3078 1536 
C 3059 2132 3059 2132 3059 2247 
C 3059 2350 3059 2350 3078 2991 
L 2886 2991 
L 2854 2642 
C 2848 2581 2829 2521 2803 2467 
C 2688 2414 2509 2394 2086 2394 
C 1818 2394 1600 2394 1382 2394 
L 1382 4117 
C 1574 4160 1690 4160 2067 4160 
C 2374 4160 2733 4124 2931 4076 
C 3085 4039 3104 4008 3104 3868 
L 3104 3465 
L 3328 3465 
C 3328 3843 3360 4146 3430 4423 
C 3117 4423 2925 4423 2650 4423 
L 1965 4423 
C 1651 4423 1427 4423 1267 4423 
C 1082 4423 1082 4423 141 4423 
L 141 4224 
L 448 4224 
C 742 4224 774 4172 774 3663 
L 774 766 
C 774 256 742 205 448 205 
L 141 205 
L 141 0 
C 518 0 742 0 1075 0 
C 1408 0 1638 0 2016 0 
L 2016 205 
L 1709 205 
C 1414 205 1382 256 1382 766 
z
" id="URWPalladioL-Roma-46" transform="scale(0.015625)"/>
       <path d="M 3219 3009 
L 3162 3035 
C 2835 2900 2502 2810 2163 2772 
L 2163 2592 
L 2400 2592 
C 2656 2592 2682 2547 2682 2121 
L 2682 1070 
C 2682 928 2592 747 2445 599 
C 2266 418 2061 327 1811 327 
C 1587 327 1408 398 1306 521 
C 1216 624 1171 824 1171 1107 
L 1171 3009 
L 1114 3035 
C 787 2900 454 2810 115 2772 
L 115 2592 
L 352 2592 
C 608 2592 634 2547 634 2122 
L 634 1039 
C 634 587 672 387 787 227 
C 928 33 1171 -64 1536 -64 
C 1824 -64 2080 26 2253 186 
L 2682 585 
C 2682 401 2675 298 2656 0 
C 3085 0 3091 0 3187 0 
C 3277 0 3277 0 3718 0 
L 3718 186 
L 3456 212 
C 3238 212 3219 251 3219 664 
z
" id="URWPalladioL-Roma-75" transform="scale(0.015625)"/>
      </defs>
      <use transform="scale(0.996264)" xlink:href="#URWPalladioL-Roma-46"/>
      <use transform="translate(55.391677 0)scale(0.996264)" xlink:href="#URWPalladioL-Roma-75"/>
      <use transform="translate(115.465412 0)scale(0.996264)" xlink:href="#URWPalladioL-Roma-6c"/>
      <use transform="translate(144.455773 0)scale(0.996264)" xlink:href="#URWPalladioL-Roma-6c"/>
     </g>
    </g>
    <g id="patch_14">
     <path d="M 372.221674 280.897938 
L 386.221674 280.897938 
L 386.221674 271.097938 
L 372.221674 271.097938 
z
" style="fill:#007d4d;opacity:0.5;stroke:#007d4d;stroke-linejoin:miter;stroke-width:0.5;"/>
    </g>
    <g id="text_12">
     <!-- Valid -->
     <g transform="translate(397.421674 280.897938)scale(0.14 -0.14)">
      <defs>
       <path d="M 1754 4224 
L 1754 4417 
C 1050 4417 1050 4417 902 4417 
C 755 4417 755 4417 51 4417 
L 51 4237 
L 282 4218 
C 416 4205 480 4147 563 3955 
L 1766 994 
C 1965 507 2042 283 2138 -64 
L 2458 -64 
C 2579 334 2656 545 2867 1058 
L 3981 3756 
C 4128 4103 4198 4199 4326 4218 
L 4518 4237 
L 4518 4417 
L 3827 4417 
C 3712 4417 3565 4417 3379 4417 
C 3347 4417 3238 4417 3136 4417 
L 3136 4224 
L 3469 4224 
C 3610 4224 3693 4159 3693 4062 
C 3693 3998 3674 3908 3635 3812 
L 2464 769 
L 1203 4030 
C 1197 4056 1190 4076 1190 4102 
C 1190 4179 1267 4224 1395 4224 
z
" id="URWPalladioL-Roma-56" transform="scale(0.015625)"/>
      </defs>
      <use transform="scale(0.996264)" xlink:href="#URWPalladioL-Roma-56"/>
      <use transform="translate(62.765104 0)scale(0.996264)" xlink:href="#URWPalladioL-Roma-61"/>
      <use transform="translate(112.578304 0)scale(0.996264)" xlink:href="#URWPalladioL-Roma-6c"/>
      <use transform="translate(141.568666 0)scale(0.996264)" xlink:href="#URWPalladioL-Roma-69"/>
      <use transform="translate(170.559027 0)scale(0.996264)" xlink:href="#URWPalladioL-Roma-64"/>
     </g>
    </g>
    <g id="patch_15">
     <path d="M 372.221674 302.468923 
L 386.221674 302.468923 
L 386.221674 292.668923 
L 372.221674 292.668923 
z
" style="fill:#0095b7;opacity:0.5;stroke:#0095b7;stroke-linejoin:miter;stroke-width:0.5;"/>
    </g>
    <g id="text_13">
     <!-- Same (left) -->
     <g transform="translate(397.421674 302.468923)scale(0.14 -0.14)">
      <defs>
       <path d="M 1926 -1244 
C 1466 -673 1299 -366 1133 212 
C 998 673 934 1161 934 1706 
C 934 2238 998 2693 1120 3110 
C 1286 3642 1459 3944 1926 4489 
L 1805 4656 
C 1139 4059 877 3707 634 3078 
C 467 2648 384 2193 384 1706 
C 384 1020 544 372 851 -205 
C 1075 -635 1280 -885 1805 -1379 
z
" id="URWPalladioL-Roma-28" transform="scale(0.015625)"/>
       <path d="M 2182 4601 
C 2048 4652 1971 4672 1888 4672 
C 1683 4672 1459 4563 1318 4404 
L 947 3985 
C 762 3775 678 3490 678 3070 
L 678 2803 
L 237 2604 
L 237 2476 
L 678 2476 
L 678 651 
C 678 244 659 199 442 199 
L 147 199 
L 147 0 
C 787 0 787 0 947 0 
C 1107 0 1107 0 1747 0 
L 1747 199 
L 1453 199 
C 1235 199 1216 245 1216 653 
L 1216 2489 
L 2010 2489 
L 2054 2816 
L 1216 2816 
L 1216 3350 
C 1216 4073 1299 4248 1664 4248 
C 1837 4248 1952 4204 2106 4071 
L 2182 4109 
z
" id="URWPalladioL-Roma-66" transform="scale(0.015625)"/>
       <path d="M 627 2476 
L 627 619 
C 627 142 838 -64 1331 -64 
C 1478 -64 1632 -32 1670 13 
L 1978 353 
L 1894 463 
C 1734 372 1638 340 1517 340 
C 1267 340 1165 470 1165 788 
L 1165 2489 
L 1984 2489 
L 2042 2816 
L 1165 2816 
L 1165 3056 
C 1165 3321 1184 3547 1235 3951 
L 1158 4021 
C 1005 3925 813 3842 614 3778 
C 634 3585 640 3463 640 3271 
L 640 2822 
L 141 2598 
L 141 2476 
z
" id="URWPalladioL-Roma-74" transform="scale(0.015625)"/>
       <path d="M 326 -1379 
C 768 -962 954 -750 1152 -436 
C 1542 186 1747 930 1747 1699 
C 1747 2193 1664 2648 1498 3078 
C 1254 3700 992 4053 326 4656 
L 205 4489 
C 672 3937 845 3636 1005 3110 
C 1133 2693 1197 2238 1197 1706 
C 1197 1161 1133 673 998 212 
C 832 -366 666 -673 205 -1244 
z
" id="URWPalladioL-Roma-29" transform="scale(0.015625)"/>
      </defs>
      <use transform="scale(0.996264)" xlink:href="#URWPalladioL-Roma-53"/>
      <use transform="translate(52.303815 0)scale(0.996264)" xlink:href="#URWPalladioL-Roma-61"/>
      <use transform="translate(102.117015 0)scale(0.996264)" xlink:href="#URWPalladioL-Roma-6d"/>
      <use transform="translate(190.08669 0)scale(0.996264)" xlink:href="#URWPalladioL-Roma-65"/>
      <use transform="translate(262.713585 0)scale(0.996264)" xlink:href="#URWPalladioL-Roma-28"/>
      <use transform="translate(295.888815 0)scale(0.996264)" xlink:href="#URWPalladioL-Roma-6c"/>
      <use transform="translate(324.879176 0)scale(0.996264)" xlink:href="#URWPalladioL-Roma-65"/>
      <use transform="translate(372.599471 0)scale(0.996264)" xlink:href="#URWPalladioL-Roma-66"/>
      <use transform="translate(405.774701 0)scale(0.996264)" xlink:href="#URWPalladioL-Roma-74"/>
      <use transform="translate(438.251789 0)scale(0.996264)" xlink:href="#URWPalladioL-Roma-29"/>
     </g>
    </g>
    <g id="patch_16">
     <path d="M 372.221674 324.039908 
L 386.221674 324.039908 
L 386.221674 314.239908 
L 372.221674 314.239908 
z
" style="fill:#fa902d;opacity:0.5;stroke:#fa902d;stroke-linejoin:miter;stroke-width:0.5;"/>
    </g>
    <g id="text_14">
     <!-- Same (centered) -->
     <g transform="translate(397.421674 324.039908)scale(0.14 -0.14)">
      <use transform="scale(0.996264)" xlink:href="#URWPalladioL-Roma-53"/>
      <use transform="translate(52.303815 0)scale(0.996264)" xlink:href="#URWPalladioL-Roma-61"/>
      <use transform="translate(102.117015 0)scale(0.996264)" xlink:href="#URWPalladioL-Roma-6d"/>
      <use transform="translate(190.08669 0)scale(0.996264)" xlink:href="#URWPalladioL-Roma-65"/>
      <use transform="translate(262.713585 0)scale(0.996264)" xlink:href="#URWPalladioL-Roma-28"/>
      <use transform="translate(295.888815 0)scale(0.996264)" xlink:href="#URWPalladioL-Roma-63"/>
      <use transform="translate(340.122383 0)scale(0.996264)" xlink:href="#URWPalladioL-Roma-65"/>
      <use transform="translate(387.842679 0)scale(0.996264)" xlink:href="#URWPalladioL-Roma-6e"/>
      <use transform="translate(445.824739 0)scale(0.996264)" xlink:href="#URWPalladioL-Roma-74"/>
      <use transform="translate(478.301827 0)scale(0.996264)" xlink:href="#URWPalladioL-Roma-65"/>
      <use transform="translate(526.022122 0)scale(0.996264)" xlink:href="#URWPalladioL-Roma-72"/>
      <use transform="translate(563.58144 0)scale(0.996264)" xlink:href="#URWPalladioL-Roma-65"/>
      <use transform="translate(611.301735 0)scale(0.996264)" xlink:href="#URWPalladioL-Roma-64"/>
      <use transform="translate(672.173365 0)scale(0.996264)" xlink:href="#URWPalladioL-Roma-29"/>
     </g>
    </g>
    <g id="patch_17">
     <path d="M 372.221674 345.610893 
L 386.221674 345.610893 
L 386.221674 335.810893 
L 372.221674 335.810893 
z
" style="fill:#cb0c7b;opacity:0.5;stroke:#cb0c7b;stroke-linejoin:miter;stroke-width:0.5;"/>
    </g>
    <g id="text_15">
     <!-- Same (right) -->
     <g transform="translate(397.421674 345.610893)scale(0.14 -0.14)">
      <defs>
       <path d="M 45 4248 
L 403 4248 
C 518 4248 563 4177 563 3984 
L 563 643 
C 563 237 544 192 326 192 
L 38 192 
L 38 -7 
C 474 -7 646 -7 832 -7 
C 1018 -7 1190 -7 1626 -7 
L 1626 192 
L 1338 192 
C 1120 192 1101 237 1101 643 
L 1101 2011 
C 1101 2300 1523 2616 1914 2616 
C 2342 2616 2624 2297 2624 1806 
L 2624 -7 
C 3014 -7 3021 -7 3130 -7 
C 3219 -7 3219 -7 3661 -7 
L 3661 179 
L 3398 205 
C 3181 205 3162 244 3162 654 
L 3162 1892 
C 3162 2642 2810 3008 2093 3008 
C 1856 3008 1722 2963 1587 2847 
L 1101 2424 
L 1101 4613 
L 1043 4665 
C 762 4556 550 4504 45 4427 
z
" id="URWPalladioL-Roma-68" transform="scale(0.015625)"/>
      </defs>
      <use transform="scale(0.996264)" xlink:href="#URWPalladioL-Roma-53"/>
      <use transform="translate(52.303815 0)scale(0.996264)" xlink:href="#URWPalladioL-Roma-61"/>
      <use transform="translate(102.117015 0)scale(0.996264)" xlink:href="#URWPalladioL-Roma-6d"/>
      <use transform="translate(190.08669 0)scale(0.996264)" xlink:href="#URWPalladioL-Roma-65"/>
      <use transform="translate(262.713585 0)scale(0.996264)" xlink:href="#URWPalladioL-Roma-28"/>
      <use transform="translate(295.888815 0)scale(0.996264)" xlink:href="#URWPalladioL-Roma-72"/>
      <use transform="translate(335.240711 0)scale(0.996264)" xlink:href="#URWPalladioL-Roma-69"/>
      <use transform="translate(364.231073 0)scale(0.996264)" xlink:href="#URWPalladioL-Roma-67"/>
      <use transform="translate(419.62275 0)scale(0.996264)" xlink:href="#URWPalladioL-Roma-68"/>
      <use transform="translate(477.60481 0)scale(0.996264)" xlink:href="#URWPalladioL-Roma-74"/>
      <use transform="translate(510.081898 0)scale(0.996264)" xlink:href="#URWPalladioL-Roma-29"/>
     </g>
    </g>
   </g>
   <g id="line2d_30">
    <path clip-path="url(#pe11fbd5092)" d="M 35.783993 254.951214 
L 48.004283 254.951214 
L 48.004283 254.951214 
L 60.224573 254.951214 
L 60.224573 288.645429 
L 72.444863 288.645429 
L 72.444863 288.645429 
L 84.665152 288.645429 
L 84.665152 288.645429 
L 96.885442 288.645429 
L 96.885442 356.033859 
L 109.105732 356.033859 
L 109.105732 356.033859 
L 121.326022 356.033859 
L 121.326022 288.645429 
L 133.546312 288.645429 
L 133.546312 288.645429 
L 145.766602 288.645429 
L 145.766602 288.645429 
L 157.986892 288.645429 
L 157.986892 221.256999 
L 170.207181 221.256999 
L 170.207181 221.256999 
L 182.427471 221.256999 
L 182.427471 288.645429 
L 194.647761 288.645429 
L 194.647761 288.645429 
L 206.868051 288.645429 
L 206.868051 288.645429 
L 219.088341 288.645429 
L 219.088341 356.033859 
L 231.308631 356.033859 
L 231.308631 356.033859 
L 243.528921 356.033859 
L 243.528921 288.645429 
L 255.74921 288.645429 
L 255.74921 288.645429 
L 267.9695 288.645429 
L 267.9695 288.645429 
L 280.18979 288.645429 
L 280.18979 221.256999 
L 292.41008 221.256999 
L 292.41008 221.256999 
L 304.63037 221.256999 
L 304.63037 288.645429 
L 316.85066 288.645429 
L 316.85066 288.645429 
L 329.07095 288.645429 
L 329.07095 288.645429 
L 341.291239 288.645429 
L 341.291239 322.339644 
L 353.511529 322.339644 
L 353.511529 322.339644 
" style="fill:none;stroke:#6e3b87;stroke-linecap:square;stroke-width:2;"/>
    <g clip-path="url(#pe11fbd5092)">
     <use style="fill:#6e3b87;" x="35.783993" xlink:href="#m4c03ed376f" y="254.951214"/>
     <use style="fill:#6e3b87;" x="48.004283" xlink:href="#m4c03ed376f" y="254.951214"/>
     <use style="fill:#6e3b87;" x="60.224573" xlink:href="#m4c03ed376f" y="288.645429"/>
     <use style="fill:#6e3b87;" x="72.444863" xlink:href="#m4c03ed376f" y="288.645429"/>
     <use style="fill:#6e3b87;" x="84.665152" xlink:href="#m4c03ed376f" y="288.645429"/>
     <use style="fill:#6e3b87;" x="96.885442" xlink:href="#m4c03ed376f" y="356.033859"/>
     <use style="fill:#6e3b87;" x="109.105732" xlink:href="#m4c03ed376f" y="356.033859"/>
     <use style="fill:#6e3b87;" x="121.326022" xlink:href="#m4c03ed376f" y="288.645429"/>
     <use style="fill:#6e3b87;" x="133.546312" xlink:href="#m4c03ed376f" y="288.645429"/>
     <use style="fill:#6e3b87;" x="145.766602" xlink:href="#m4c03ed376f" y="288.645429"/>
     <use style="fill:#6e3b87;" x="157.986892" xlink:href="#m4c03ed376f" y="221.256999"/>
     <use style="fill:#6e3b87;" x="170.207181" xlink:href="#m4c03ed376f" y="221.256999"/>
     <use style="fill:#6e3b87;" x="182.427471" xlink:href="#m4c03ed376f" y="288.645429"/>
     <use style="fill:#6e3b87;" x="194.647761" xlink:href="#m4c03ed376f" y="288.645429"/>
     <use style="fill:#6e3b87;" x="206.868051" xlink:href="#m4c03ed376f" y="288.645429"/>
     <use style="fill:#6e3b87;" x="219.088341" xlink:href="#m4c03ed376f" y="356.033859"/>
     <use style="fill:#6e3b87;" x="231.308631" xlink:href="#m4c03ed376f" y="356.033859"/>
     <use style="fill:#6e3b87;" x="243.528921" xlink:href="#m4c03ed376f" y="288.645429"/>
     <use style="fill:#6e3b87;" x="255.74921" xlink:href="#m4c03ed376f" y="288.645429"/>
     <use style="fill:#6e3b87;" x="267.9695" xlink:href="#m4c03ed376f" y="288.645429"/>
     <use style="fill:#6e3b87;" x="280.18979" xlink:href="#m4c03ed376f" y="221.256999"/>
     <use style="fill:#6e3b87;" x="292.41008" xlink:href="#m4c03ed376f" y="221.256999"/>
     <use style="fill:#6e3b87;" x="304.63037" xlink:href="#m4c03ed376f" y="288.645429"/>
     <use style="fill:#6e3b87;" x="316.85066" xlink:href="#m4c03ed376f" y="288.645429"/>
     <use style="fill:#6e3b87;" x="329.07095" xlink:href="#m4c03ed376f" y="288.645429"/>
     <use style="fill:#6e3b87;" x="341.291239" xlink:href="#m4c03ed376f" y="322.339644"/>
     <use style="fill:#6e3b87;" x="353.511529" xlink:href="#m4c03ed376f" y="322.339644"/>
    </g>
   </g>
  </g>
  <g id="axes_3">
   <g id="patch_18">
    <path d="M 379.03037 184.867247 
L 476.073848 184.867247 
L 476.073848 36.612702 
L 379.03037 36.612702 
z
" style="fill:none;"/>
   </g>
   <g id="matplotlib.axis_5">
    <g id="xtick_9">
     <g id="line2d_31">
      <path clip-path="url(#p058b9c45bd)" d="M 392.893724 184.867247 
L 392.893724 36.612702 
" style="fill:none;stroke:#000000;stroke-linecap:square;stroke-opacity:0.2;stroke-width:0.5;"/>
     </g>
     <g id="line2d_32">
      <defs>
       <path d="M 0 0 
L 0 -3.5 
" id="m67bca5296d" style="stroke:#000000;stroke-opacity:0.2;stroke-width:0.8;"/>
      </defs>
      <g>
       <use style="fill-opacity:0.2;stroke:#000000;stroke-opacity:0.2;stroke-width:0.8;" x="392.893724" xlink:href="#m67bca5296d" y="36.612702"/>
      </g>
     </g>
     <g id="text_16">
      <!-- $\mathdefault{0}$ -->
      <g transform="translate(389.4068 17.179529)scale(0.14 -0.14)">
       <use transform="scale(0.996264)" xlink:href="#URWPalladioL-Roma-30"/>
      </g>
     </g>
    </g>
    <g id="xtick_10">
     <g id="line2d_33">
      <path clip-path="url(#p058b9c45bd)" d="M 427.552109 184.867247 
L 427.552109 36.612702 
" style="fill:none;stroke:#000000;stroke-linecap:square;stroke-opacity:0.2;stroke-width:0.5;"/>
     </g>
     <g id="line2d_34">
      <g>
       <use style="fill-opacity:0.2;stroke:#000000;stroke-opacity:0.2;stroke-width:0.8;" x="427.552109" xlink:href="#m67bca5296d" y="36.612702"/>
      </g>
     </g>
     <g id="text_17">
      <!-- $\mathdefault{1}$ -->
      <g transform="translate(424.065185 17.179529)scale(0.14 -0.14)">
       <use transform="scale(0.996264)" xlink:href="#URWPalladioL-Roma-31"/>
      </g>
     </g>
    </g>
    <g id="xtick_11">
     <g id="line2d_35">
      <path clip-path="url(#p058b9c45bd)" d="M 462.210494 184.867247 
L 462.210494 36.612702 
" style="fill:none;stroke:#000000;stroke-linecap:square;stroke-opacity:0.2;stroke-width:0.5;"/>
     </g>
     <g id="line2d_36">
      <g>
       <use style="fill-opacity:0.2;stroke:#000000;stroke-opacity:0.2;stroke-width:0.8;" x="462.210494" xlink:href="#m67bca5296d" y="36.612702"/>
      </g>
     </g>
     <g id="text_18">
      <!-- $\mathdefault{2}$ -->
      <g transform="translate(458.72357 17.179529)scale(0.14 -0.14)">
       <defs>
        <path d="M 102 160 
L 102 0 
C 1299 0 1299 0 1530 0 
C 1760 0 1760 0 2995 0 
C 2982 125 2982 186 2982 269 
C 2982 348 2982 407 2995 539 
C 2259 539 1965 539 781 539 
L 1946 1761 
C 2566 2414 2758 2763 2758 3238 
C 2758 3966 2259 4416 1446 4416 
C 986 4416 672 4288 358 3969 
L 250 3099 
L 435 3099 
L 518 3393 
C 621 3763 851 3923 1280 3923 
C 1830 3923 2182 3577 2182 3035 
C 2182 2555 1914 2083 1190 1316 
z
" id="URWPalladioL-Roma-32" transform="scale(0.015625)"/>
       </defs>
       <use transform="scale(0.996264)" xlink:href="#URWPalladioL-Roma-32"/>
      </g>
     </g>
    </g>
   </g>
   <g id="matplotlib.axis_6">
    <g id="ytick_3">
     <g id="line2d_37">
      <path clip-path="url(#p058b9c45bd)" d="M 379.03037 184.867247 
L 476.073848 184.867247 
" style="fill:none;stroke:#000000;stroke-linecap:square;stroke-opacity:0.2;stroke-width:0.5;"/>
     </g>
     <g id="line2d_38">
      <g>
       <use style="fill-opacity:0.2;stroke:#000000;stroke-opacity:0.2;stroke-width:0.8;" x="379.03037" xlink:href="#mb29af38ef4" y="184.867247"/>
      </g>
     </g>
    </g>
    <g id="ytick_4">
     <g id="line2d_39">
      <path clip-path="url(#p058b9c45bd)" d="M 379.03037 160.158156 
L 476.073848 160.158156 
" style="fill:none;stroke:#000000;stroke-linecap:square;stroke-opacity:0.2;stroke-width:0.5;"/>
     </g>
     <g id="line2d_40">
      <g>
       <use style="fill-opacity:0.2;stroke:#000000;stroke-opacity:0.2;stroke-width:0.8;" x="379.03037" xlink:href="#mb29af38ef4" y="160.158156"/>
      </g>
     </g>
    </g>
    <g id="ytick_5">
     <g id="line2d_41">
      <path clip-path="url(#p058b9c45bd)" d="M 379.03037 135.449065 
L 476.073848 135.449065 
" style="fill:none;stroke:#000000;stroke-linecap:square;stroke-opacity:0.2;stroke-width:0.5;"/>
     </g>
     <g id="line2d_42">
      <g>
       <use style="fill-opacity:0.2;stroke:#000000;stroke-opacity:0.2;stroke-width:0.8;" x="379.03037" xlink:href="#mb29af38ef4" y="135.449065"/>
      </g>
     </g>
    </g>
    <g id="ytick_6">
     <g id="line2d_43">
      <path clip-path="url(#p058b9c45bd)" d="M 379.03037 110.739974 
L 476.073848 110.739974 
" style="fill:none;stroke:#000000;stroke-linecap:square;stroke-opacity:0.2;stroke-width:0.5;"/>
     </g>
     <g id="line2d_44">
      <g>
       <use style="fill-opacity:0.2;stroke:#000000;stroke-opacity:0.2;stroke-width:0.8;" x="379.03037" xlink:href="#mb29af38ef4" y="110.739974"/>
      </g>
     </g>
    </g>
    <g id="ytick_7">
     <g id="line2d_45">
      <path clip-path="url(#p058b9c45bd)" d="M 379.03037 86.030883 
L 476.073848 86.030883 
" style="fill:none;stroke:#000000;stroke-linecap:square;stroke-opacity:0.2;stroke-width:0.5;"/>
     </g>
     <g id="line2d_46">
      <g>
       <use style="fill-opacity:0.2;stroke:#000000;stroke-opacity:0.2;stroke-width:0.8;" x="379.03037" xlink:href="#mb29af38ef4" y="86.030883"/>
      </g>
     </g>
    </g>
    <g id="ytick_8">
     <g id="line2d_47">
      <path clip-path="url(#p058b9c45bd)" d="M 379.03037 61.321793 
L 476.073848 61.321793 
" style="fill:none;stroke:#000000;stroke-linecap:square;stroke-opacity:0.2;stroke-width:0.5;"/>
     </g>
     <g id="line2d_48">
      <g>
       <use style="fill-opacity:0.2;stroke:#000000;stroke-opacity:0.2;stroke-width:0.8;" x="379.03037" xlink:href="#mb29af38ef4" y="61.321793"/>
      </g>
     </g>
    </g>
    <g id="ytick_9">
     <g id="line2d_49">
      <path clip-path="url(#p058b9c45bd)" d="M 379.03037 36.612702 
L 476.073848 36.612702 
" style="fill:none;stroke:#000000;stroke-linecap:square;stroke-opacity:0.2;stroke-width:0.5;"/>
     </g>
     <g id="line2d_50">
      <g>
       <use style="fill-opacity:0.2;stroke:#000000;stroke-opacity:0.2;stroke-width:0.8;" x="379.03037" xlink:href="#mb29af38ef4" y="36.612702"/>
      </g>
     </g>
    </g>
   </g>
   <g id="patch_19">
    <path clip-path="url(#p058b9c45bd)" d="M 379.03037 110.739974 
L 406.757078 110.739974 
L 406.757078 86.030883 
L 379.03037 86.030883 
z
" style="fill:#dc2830;stroke:#dc2830;stroke-linejoin:miter;stroke-width:2;"/>
   </g>
   <g id="patch_20">
    <path clip-path="url(#p058b9c45bd)" d="M 413.688755 110.739974 
L 441.415463 110.739974 
L 441.415463 110.739974 
L 413.688755 110.739974 
z
" style="fill:#dc2830;stroke:#dc2830;stroke-linejoin:miter;stroke-width:2;"/>
   </g>
   <g id="patch_21">
    <path clip-path="url(#p058b9c45bd)" d="M 448.34714 110.739974 
L 476.073848 110.739974 
L 476.073848 135.449065 
L 448.34714 135.449065 
z
" style="fill:#dc2830;stroke:#dc2830;stroke-linejoin:miter;stroke-width:2;"/>
   </g>
   <g id="legend_3">
    <g id="patch_22">
     <path d="M 388.83037 177.867247 
L 441.980745 177.867247 
Q 444.780745 177.867247 444.780745 175.067247 
L 444.780745 154.896262 
Q 444.780745 152.096262 441.980745 152.096262 
L 388.83037 152.096262 
Q 386.03037 152.096262 386.03037 154.896262 
L 386.03037 175.067247 
Q 386.03037 177.867247 388.83037 177.867247 
z
" style="fill:#ffffff;opacity:0.95;stroke:#cccccc;stroke-linejoin:miter;stroke-width:0.5;"/>
    </g>
    <g id="patch_23">
     <path d="M 391.63037 168.334075 
L 405.63037 168.334075 
L 405.63037 158.534075 
L 391.63037 158.534075 
z
" style="fill:#dc2830;stroke:#dc2830;stroke-linejoin:miter;stroke-width:2;"/>
    </g>
    <g id="text_19">
     <!-- $h[k]$ -->
     <g transform="translate(416.83037 168.334075)scale(0.14 -0.14)">
      <defs>
       <path d="M 1632 -1600 
L 1632 -1343 
L 1011 -1343 
L 1011 4544 
L 1632 4544 
L 1632 4801 
L 755 4801 
L 755 -1600 
z
" id="CMR10-5b" transform="scale(0.015625)"/>
       <path d="M 1498 4587 
L 1421 4657 
C 1088 4492 858 4434 397 4390 
L 371 4256 
L 678 4256 
C 832 4256 896 4211 896 4103 
C 896 4052 890 3995 883 3950 
L 576 2245 
C 486 1768 384 1329 51 -1 
L 109 -64 
L 538 44 
L 685 836 
C 742 1143 896 1430 1114 1648 
C 1555 370 1760 -64 1920 -64 
C 2003 -64 2157 18 2438 217 
L 2733 421 
L 2682 542 
L 2406 389 
C 2317 338 2272 325 2221 325 
C 2157 325 2112 364 2054 472 
C 1830 881 1690 1226 1440 2012 
L 1530 2101 
C 1920 2492 2214 2651 2534 2651 
C 2586 2651 2656 2638 2765 2613 
L 2874 3015 
C 2758 3053 2643 3072 2566 3072 
C 2144 3072 1613 2580 813 1462 
z
" id="URWPalladioL-Ital-6b" transform="scale(0.015625)"/>
       <path d="M 1018 4801 
L 141 4801 
L 141 4544 
L 762 4544 
L 762 -1343 
L 141 -1343 
L 141 -1600 
L 1018 -1600 
z
" id="CMR10-5d" transform="scale(0.015625)"/>
      </defs>
      <use transform="scale(0.996264)" xlink:href="#URWPalladioL-Ital-68"/>
      <use transform="translate(52.303815 0)scale(1.038107)" xlink:href="#CMR10-5b"/>
      <use transform="translate(83.586514 0)scale(0.996264)" xlink:href="#URWPalladioL-Ital-6b"/>
      <use transform="translate(130.809407 0)scale(1.038107)" xlink:href="#CMR10-5d"/>
     </g>
    </g>
   </g>
  </g>
 </g>
 <defs>
  <clipPath id="p22a919ebb3">
   <rect height="148.254545" width="329.947826" x="29.673848" y="36.612702"/>
  </clipPath>
  <clipPath id="pe11fbd5092">
   <rect height="148.254545" width="329.947826" x="29.673848" y="214.518156"/>
  </clipPath>
  <clipPath id="p058b9c45bd">
   <rect height="148.254545" width="97.043478" x="379.03037" y="36.612702"/>
  </clipPath>
 </defs>
</svg>
