<?xml version="1.0" encoding="utf-8" standalone="no"?>
<!DOCTYPE svg PUBLIC "-//W3C//DTD SVG 1.1//EN"
  "http://www.w3.org/Graphics/SVG/1.1/DTD/svg11.dtd">
<svg height="296.39952pt" version="1.1" viewBox="0 0 584.39952 296.39952" width="584.39952pt" xmlns="http://www.w3.org/2000/svg" xmlns:xlink="http://www.w3.org/1999/xlink">
 <metadata>
  <rdf:RDF xmlns:cc="http://creativecommons.org/ns#" xmlns:dc="http://purl.org/dc/elements/1.1/" xmlns:rdf="http://www.w3.org/1999/02/22-rdf-syntax-ns#">
   <cc:Work>
    <dc:type rdf:resource="http://purl.org/dc/dcmitype/StillImage"/>
    <dc:date>2021-08-20T09:20:00.303061</dc:date>
    <dc:format>image/svg+xml</dc:format>
    <dc:creator>
     <cc:Agent>
      <dc:title>Matplotlib v3.4.2, https://matplotlib.org/</dc:title>
     </cc:Agent>
    </dc:creator>
   </cc:Work>
  </rdf:RDF>
 </metadata>
 <defs>
  <style type="text/css">*{stroke-linecap:butt;stroke-linejoin:round;}</style>
 </defs>
 <g id="figure_1">
  <g id="patch_1">
   <path d="M 0 296.39952 
L 584.39952 296.39952 
L 584.39952 0 
L 0 0 
z
" style="fill:none;"/>
  </g>
  <g id="axes_1">
   <g id="patch_2">
    <path d="M 41.145691 119.437391 
L 568.48221 119.437391 
L 568.48221 7.2 
L 41.145691 7.2 
z
" style="fill:none;"/>
   </g>
   <g id="matplotlib.axis_1">
    <g id="xtick_1">
     <g id="line2d_1">
      <path clip-path="url(#p668be74c79)" d="M 41.145691 119.437391 
L 41.145691 7.2 
" style="fill:none;stroke:#000000;stroke-linejoin:miter;stroke-opacity:0.2;stroke-width:0.5;"/>
     </g>
     <g id="line2d_2">
      <defs>
       <path d="M 0 0 
L 0 3.5 
" id="mc78603068d" style="stroke:#000000;stroke-opacity:0.2;stroke-width:0.8;"/>
      </defs>
      <g>
       <use style="fill-opacity:0.2;stroke:#000000;stroke-opacity:0.2;stroke-width:0.8;" x="41.145691" xlink:href="#mc78603068d" y="119.437391"/>
      </g>
     </g>
    </g>
    <g id="xtick_2">
     <g id="line2d_3">
      <path clip-path="url(#p668be74c79)" d="M 146.612995 119.437391 
L 146.612995 7.2 
" style="fill:none;stroke:#000000;stroke-linejoin:miter;stroke-opacity:0.2;stroke-width:0.5;"/>
     </g>
     <g id="line2d_4">
      <g>
       <use style="fill-opacity:0.2;stroke:#000000;stroke-opacity:0.2;stroke-width:0.8;" x="146.612995" xlink:href="#mc78603068d" y="119.437391"/>
      </g>
     </g>
    </g>
    <g id="xtick_3">
     <g id="line2d_5">
      <path clip-path="url(#p668be74c79)" d="M 252.080298 119.437391 
L 252.080298 7.2 
" style="fill:none;stroke:#000000;stroke-linejoin:miter;stroke-opacity:0.2;stroke-width:0.5;"/>
     </g>
     <g id="line2d_6">
      <g>
       <use style="fill-opacity:0.2;stroke:#000000;stroke-opacity:0.2;stroke-width:0.8;" x="252.080298" xlink:href="#mc78603068d" y="119.437391"/>
      </g>
     </g>
    </g>
    <g id="xtick_4">
     <g id="line2d_7">
      <path clip-path="url(#p668be74c79)" d="M 357.547602 119.437391 
L 357.547602 7.2 
" style="fill:none;stroke:#000000;stroke-linejoin:miter;stroke-opacity:0.2;stroke-width:0.5;"/>
     </g>
     <g id="line2d_8">
      <g>
       <use style="fill-opacity:0.2;stroke:#000000;stroke-opacity:0.2;stroke-width:0.8;" x="357.547602" xlink:href="#mc78603068d" y="119.437391"/>
      </g>
     </g>
    </g>
    <g id="xtick_5">
     <g id="line2d_9">
      <path clip-path="url(#p668be74c79)" d="M 463.014906 119.437391 
L 463.014906 7.2 
" style="fill:none;stroke:#000000;stroke-linejoin:miter;stroke-opacity:0.2;stroke-width:0.5;"/>
     </g>
     <g id="line2d_10">
      <g>
       <use style="fill-opacity:0.2;stroke:#000000;stroke-opacity:0.2;stroke-width:0.8;" x="463.014906" xlink:href="#mc78603068d" y="119.437391"/>
      </g>
     </g>
    </g>
    <g id="xtick_6">
     <g id="line2d_11">
      <path clip-path="url(#p668be74c79)" d="M 568.48221 119.437391 
L 568.48221 7.2 
" style="fill:none;stroke:#000000;stroke-linejoin:miter;stroke-opacity:0.2;stroke-width:0.5;"/>
     </g>
     <g id="line2d_12">
      <g>
       <use style="fill-opacity:0.2;stroke:#000000;stroke-opacity:0.2;stroke-width:0.8;" x="568.48221" xlink:href="#mc78603068d" y="119.437391"/>
      </g>
     </g>
    </g>
   </g>
   <g id="matplotlib.axis_2">
    <g id="ytick_1">
     <g id="line2d_13">
      <path clip-path="url(#p668be74c79)" d="M 41.145691 114.335692 
L 568.48221 114.335692 
" style="fill:none;stroke:#000000;stroke-linejoin:miter;stroke-opacity:0.2;stroke-width:0.5;"/>
     </g>
     <g id="line2d_14">
      <defs>
       <path d="M 0 0 
L -3.5 0 
" id="mff2d6efc09" style="stroke:#000000;stroke-opacity:0.2;stroke-width:0.8;"/>
      </defs>
      <g>
       <use style="fill-opacity:0.2;stroke:#000000;stroke-opacity:0.2;stroke-width:0.8;" x="41.145691" xlink:href="#mff2d6efc09" y="114.335692"/>
      </g>
     </g>
     <g id="text_1">
      <!-- $\mathdefault{−1}$ -->
      <g transform="translate(7.2 119.325456)scale(0.14 -0.14)">
       <defs>
        <path d="M 4218 1472 
C 4326 1472 4442 1472 4442 1600 
C 4442 1728 4326 1728 4218 1728 
L 755 1728 
C 646 1728 531 1728 531 1600 
C 531 1472 646 1472 755 1472 
L 4218 1472 
z
" id="CMSY10-0" transform="scale(0.015625)"/>
        <path d="M 429 3571 
L 493 3571 
L 1318 3942 
C 1325 3949 1331 3949 1338 3949 
C 1376 3949 1389 3891 1389 3737 
L 1389 633 
C 1389 300 1318 230 973 211 
L 614 192 
L 614 0 
C 1600 0 1600 0 1670 0 
C 1754 0 1894 0 2112 -7 
C 2189 6 2413 6 2675 0 
L 2675 192 
L 2342 211 
C 1990 229 1926 299 1926 628 
L 1926 4383 
L 1837 4416 
C 1421 4199 966 4009 384 3807 
L 429 3571 
z
" id="URWPalladioL-Roma-31" transform="scale(0.015625)"/>
       </defs>
       <use transform="scale(1.038107)" xlink:href="#CMSY10-0"/>
       <use transform="translate(81.941696 0)scale(0.996264)" xlink:href="#URWPalladioL-Roma-31"/>
      </g>
     </g>
    </g>
    <g id="ytick_2">
     <g id="line2d_15">
      <path clip-path="url(#p668be74c79)" d="M 41.145691 63.318696 
L 568.48221 63.318696 
" style="fill:none;stroke:#000000;stroke-linejoin:miter;stroke-opacity:0.2;stroke-width:0.5;"/>
     </g>
     <g id="line2d_16">
      <g>
       <use style="fill-opacity:0.2;stroke:#000000;stroke-opacity:0.2;stroke-width:0.8;" x="41.145691" xlink:href="#mff2d6efc09" y="63.318696"/>
      </g>
     </g>
     <g id="text_2">
      <!-- $\mathdefault{0}$ -->
      <g transform="translate(18.671843 68.30846)scale(0.14 -0.14)">
       <defs>
        <path d="M 1683 4416 
C 691 4416 186 3628 186 2076 
C 186 1326 320 679 544 365 
C 768 51 1126 -128 1523 -128 
C 2490 -128 2976 704 2976 2345 
C 2976 3749 2560 4416 1683 4416 
z
M 1568 4191 
C 2189 4191 2438 3563 2438 2025 
C 2438 660 2195 96 1606 96 
C 986 96 723 743 723 2307 
C 723 3660 960 4191 1568 4191 
z
" id="URWPalladioL-Roma-30" transform="scale(0.015625)"/>
       </defs>
       <use transform="scale(0.996264)" xlink:href="#URWPalladioL-Roma-30"/>
      </g>
     </g>
    </g>
    <g id="ytick_3">
     <g id="line2d_17">
      <path clip-path="url(#p668be74c79)" d="M 41.145691 12.3017 
L 568.48221 12.3017 
" style="fill:none;stroke:#000000;stroke-linejoin:miter;stroke-opacity:0.2;stroke-width:0.5;"/>
     </g>
     <g id="line2d_18">
      <g>
       <use style="fill-opacity:0.2;stroke:#000000;stroke-opacity:0.2;stroke-width:0.8;" x="41.145691" xlink:href="#mff2d6efc09" y="12.3017"/>
      </g>
     </g>
     <g id="text_3">
      <!-- $\mathdefault{1}$ -->
      <g transform="translate(18.671843 17.291464)scale(0.14 -0.14)">
       <use transform="scale(0.996264)" xlink:href="#URWPalladioL-Roma-31"/>
      </g>
     </g>
    </g>
   </g>
   <g id="line2d_19">
    <path clip-path="url(#p668be74c79)" d="M 41.145691 12.3017 
L 42.200364 12.40237 
L 43.255037 12.703984 
L 44.30971 13.205351 
L 45.364383 13.904492 
L 46.419056 14.798649 
L 47.473729 15.884292 
L 48.528402 17.157138 
L 50.637748 20.243621 
L 52.747094 24.009425 
L 54.85644 28.395159 
L 56.965786 33.331658 
L 59.075132 38.74107 
L 62.239151 47.553577 
L 66.457844 60.115312 
L 72.785882 79.083815 
L 75.949901 87.896321 
L 78.059247 93.305734 
L 80.168593 98.242233 
L 82.277939 102.627967 
L 84.387285 106.39377 
L 86.496631 109.480254 
L 87.551304 110.753099 
L 88.605977 111.838742 
L 89.66065 112.732899 
L 90.715324 113.432041 
L 91.769997 113.933408 
L 92.82467 114.235021 
L 93.879343 114.335692 
L 94.934016 114.235021 
L 95.988689 113.933408 
L 97.043362 113.432041 
L 98.098035 112.732899 
L 99.152708 111.838742 
L 100.207381 110.753099 
L 101.262054 109.480254 
L 103.3714 106.39377 
L 105.480746 102.627967 
L 107.590092 98.242233 
L 109.699438 93.305734 
L 111.808784 87.896321 
L 114.972803 79.083815 
L 119.191496 66.522079 
L 125.519534 47.553577 
L 128.683553 38.74107 
L 130.792899 33.331658 
L 132.902245 28.395159 
L 135.011591 24.009425 
L 137.120937 20.243621 
L 139.230283 17.157138 
L 140.284956 15.884292 
L 141.339629 14.798649 
L 142.394302 13.904492 
L 143.448975 13.205351 
L 144.503648 12.703984 
L 145.558322 12.40237 
L 146.612995 12.3017 
L 147.667668 12.40237 
L 148.722341 12.703984 
L 149.777014 13.205351 
L 150.831687 13.904492 
L 151.88636 14.798649 
L 152.941033 15.884292 
L 153.995706 17.157138 
L 156.105052 20.243621 
L 158.214398 24.009425 
L 160.323744 28.395159 
L 162.43309 33.331658 
L 164.542436 38.74107 
L 167.706455 47.553577 
L 171.925147 60.115312 
L 178.253186 79.083815 
L 181.417205 87.896321 
L 183.526551 93.305734 
L 185.635897 98.242233 
L 187.745243 102.627967 
L 189.854589 106.39377 
L 191.963935 109.480254 
L 193.018608 110.753099 
L 194.073281 111.838742 
L 195.127954 112.732899 
L 196.182627 113.432041 
L 197.2373 113.933408 
L 198.291973 114.235021 
L 199.346646 114.335692 
L 200.40132 114.235021 
L 201.455993 113.933408 
L 202.510666 113.432041 
L 203.565339 112.732899 
L 204.620012 111.838742 
L 205.674685 110.753099 
L 206.729358 109.480254 
L 208.838704 106.39377 
L 210.94805 102.627967 
L 213.057396 98.242233 
L 215.166742 93.305734 
L 217.276088 87.896321 
L 220.440107 79.083815 
L 224.658799 66.522079 
L 230.986838 47.553577 
L 234.150857 38.74107 
L 236.260203 33.331658 
L 238.369549 28.395159 
L 240.478895 24.009425 
L 242.588241 20.243621 
L 244.697587 17.157138 
L 245.75226 15.884292 
L 246.806933 14.798649 
L 247.861606 13.904492 
L 248.916279 13.205351 
L 249.970952 12.703984 
L 251.025625 12.40237 
L 252.080298 12.3017 
L 253.134971 12.40237 
L 254.189644 12.703984 
L 255.244318 13.205351 
L 256.298991 13.904492 
L 257.353664 14.798649 
L 258.408337 15.884292 
L 259.46301 17.157138 
L 261.572356 20.243621 
L 263.681702 24.009425 
L 265.791048 28.395159 
L 267.900394 33.331658 
L 270.00974 38.74107 
L 273.173759 47.553577 
L 277.392451 60.115312 
L 283.72049 79.083815 
L 286.884509 87.896321 
L 288.993855 93.305734 
L 291.103201 98.242233 
L 293.212547 102.627967 
L 295.321893 106.39377 
L 297.431239 109.480254 
L 298.485912 110.753099 
L 299.540585 111.838742 
L 300.595258 112.732899 
L 301.649931 113.432041 
L 302.704604 113.933408 
L 303.759277 114.235021 
L 304.81395 114.335692 
L 305.868623 114.235021 
L 306.923296 113.933408 
L 307.977969 113.432041 
L 309.032642 112.732899 
L 310.087316 111.838742 
L 311.141989 110.753099 
L 312.196662 109.480254 
L 314.306008 106.39377 
L 316.415354 102.627967 
L 318.5247 98.242233 
L 320.634046 93.305734 
L 322.743392 87.896321 
L 325.907411 79.083815 
L 330.126103 66.522079 
L 336.454141 47.553577 
L 339.618161 38.74107 
L 341.727507 33.331658 
L 343.836853 28.395159 
L 345.946199 24.009425 
L 348.055545 20.243621 
L 350.164891 17.157138 
L 351.219564 15.884292 
L 352.274237 14.798649 
L 353.32891 13.904492 
L 354.383583 13.205351 
L 355.438256 12.703984 
L 356.492929 12.40237 
L 357.547602 12.3017 
L 358.602275 12.40237 
L 359.656948 12.703984 
L 360.711621 13.205351 
L 361.766294 13.904492 
L 362.820967 14.798649 
L 363.87564 15.884292 
L 364.930314 17.157138 
L 367.03966 20.243621 
L 369.149006 24.009425 
L 371.258352 28.395159 
L 373.367698 33.331658 
L 375.477044 38.74107 
L 378.641063 47.553577 
L 382.859755 60.115312 
L 389.187793 79.083815 
L 392.351813 87.896321 
L 394.461159 93.305734 
L 396.570505 98.242233 
L 398.679851 102.627967 
L 400.789197 106.39377 
L 402.898543 109.480254 
L 403.953216 110.753099 
L 405.007889 111.838742 
L 406.062562 112.732899 
L 407.117235 113.432041 
L 408.171908 113.933408 
L 409.226581 114.235021 
L 410.281254 114.335692 
L 411.335927 114.235021 
L 412.3906 113.933408 
L 413.445273 113.432041 
L 414.499946 112.732899 
L 415.554619 111.838742 
L 416.609292 110.753099 
L 417.663965 109.480254 
L 419.773312 106.39377 
L 421.882658 102.627967 
L 423.992004 98.242233 
L 426.10135 93.305734 
L 428.210696 87.896321 
L 431.374715 79.083815 
L 435.593407 66.522079 
L 441.921445 47.553577 
L 445.085464 38.74107 
L 447.19481 33.331658 
L 449.304157 28.395159 
L 451.413503 24.009425 
L 453.522849 20.243621 
L 455.632195 17.157138 
L 456.686868 15.884292 
L 457.741541 14.798649 
L 458.796214 13.904492 
L 459.850887 13.205351 
L 460.90556 12.703984 
L 461.960233 12.40237 
L 463.014906 12.3017 
L 464.069579 12.40237 
L 465.124252 12.703984 
L 466.178925 13.205351 
L 467.233598 13.904492 
L 468.288271 14.798649 
L 469.342944 15.884292 
L 470.397617 17.157138 
L 472.506963 20.243621 
L 474.616309 24.009425 
L 476.725656 28.395159 
L 478.835002 33.331658 
L 480.944348 38.74107 
L 484.108367 47.553577 
L 488.327059 60.115312 
L 494.655097 79.083815 
L 497.819116 87.896321 
L 499.928462 93.305734 
L 502.037808 98.242233 
L 504.147155 102.627967 
L 506.256501 106.39377 
L 508.365847 109.480254 
L 509.42052 110.753099 
L 510.475193 111.838742 
L 511.529866 112.732899 
L 512.584539 113.432041 
L 513.639212 113.933408 
L 514.693885 114.235021 
L 515.748558 114.335692 
L 516.803231 114.235021 
L 517.857904 113.933408 
L 518.912577 113.432041 
L 519.96725 112.732899 
L 521.021923 111.838742 
L 522.076596 110.753099 
L 523.131269 109.480254 
L 525.240615 106.39377 
L 527.349961 102.627967 
L 529.459307 98.242233 
L 531.568654 93.305734 
L 533.678 87.896321 
L 536.842019 79.083815 
L 541.060711 66.522079 
L 547.388749 47.553577 
L 550.552768 38.74107 
L 552.662114 33.331658 
L 554.77146 28.395159 
L 556.880806 24.009425 
L 558.990153 20.243621 
L 561.099499 17.157138 
L 562.154172 15.884292 
L 563.208845 14.798649 
L 564.263518 13.904492 
L 565.318191 13.205351 
L 566.372864 12.703984 
L 567.427537 12.40237 
L 567.427537 12.40237 
" style="fill:none;stroke:#0271ae;stroke-linejoin:miter;stroke-width:3;"/>
   </g>
  </g>
  <g id="axes_2">
   <g id="patch_3">
    <path d="M 41.145691 243.861659 
L 568.48221 243.861659 
L 568.48221 131.624267 
L 41.145691 131.624267 
z
" style="fill:none;"/>
   </g>
   <g id="matplotlib.axis_3">
    <g id="xtick_7">
     <g id="line2d_20">
      <path clip-path="url(#peaafaa6daa)" d="M 41.145691 243.861659 
L 41.145691 131.624267 
" style="fill:none;stroke:#000000;stroke-linejoin:miter;stroke-opacity:0.2;stroke-width:0.5;"/>
     </g>
     <g id="line2d_21">
      <g>
       <use style="fill-opacity:0.2;stroke:#000000;stroke-opacity:0.2;stroke-width:0.8;" x="41.145691" xlink:href="#mc78603068d" y="243.861659"/>
      </g>
     </g>
     <g id="text_4">
      <!-- $\mathdefault{0.0}$ -->
      <g transform="translate(32.428381 269.341188)scale(0.14 -0.14)">
       <defs>
        <path d="M 794 678 
C 602 678 429 499 429 307 
C 429 115 602 -64 787 -64 
C 992 -64 1171 108 1171 307 
C 1171 499 992 678 794 678 
z
" id="URWPalladioL-Roma-2e" transform="scale(0.015625)"/>
       </defs>
       <use transform="scale(0.996264)" xlink:href="#URWPalladioL-Roma-30"/>
       <use transform="translate(49.8132 0)scale(0.996264)" xlink:href="#URWPalladioL-Roma-2e"/>
       <use transform="translate(74.719801 0)scale(0.996264)" xlink:href="#URWPalladioL-Roma-30"/>
      </g>
     </g>
    </g>
    <g id="xtick_8">
     <g id="line2d_22">
      <path clip-path="url(#peaafaa6daa)" d="M 146.612995 243.861659 
L 146.612995 131.624267 
" style="fill:none;stroke:#000000;stroke-linejoin:miter;stroke-opacity:0.2;stroke-width:0.5;"/>
     </g>
     <g id="line2d_23">
      <g>
       <use style="fill-opacity:0.2;stroke:#000000;stroke-opacity:0.2;stroke-width:0.8;" x="146.612995" xlink:href="#mc78603068d" y="243.861659"/>
      </g>
     </g>
     <g id="text_5">
      <!-- $\mathdefault{0.2}$ -->
      <g transform="translate(137.895684 269.341188)scale(0.14 -0.14)">
       <defs>
        <path d="M 102 166 
L 102 0 
C 1299 0 1299 0 1530 0 
C 1760 19 1760 19 2995 0 
C 2982 134 2982 198 2982 287 
C 2982 370 2982 434 2995 574 
C 2259 542 1965 536 781 510 
L 1946 1741 
C 2566 2398 2758 2749 2758 3228 
C 2758 3961 2259 4416 1446 4416 
C 986 4416 672 4287 358 3967 
L 250 3100 
L 435 3100 
L 518 3394 
C 621 3763 851 3923 1280 3923 
C 1830 3923 2182 3578 2182 3036 
C 2182 2558 1914 2086 1190 1320 
L 102 166 
z
" id="URWPalladioL-Roma-32" transform="scale(0.015625)"/>
       </defs>
       <use transform="scale(0.996264)" xlink:href="#URWPalladioL-Roma-30"/>
       <use transform="translate(49.8132 0)scale(0.996264)" xlink:href="#URWPalladioL-Roma-2e"/>
       <use transform="translate(74.719801 0)scale(0.996264)" xlink:href="#URWPalladioL-Roma-32"/>
      </g>
     </g>
    </g>
    <g id="xtick_9">
     <g id="line2d_24">
      <path clip-path="url(#peaafaa6daa)" d="M 252.080298 243.861659 
L 252.080298 131.624267 
" style="fill:none;stroke:#000000;stroke-linejoin:miter;stroke-opacity:0.2;stroke-width:0.5;"/>
     </g>
     <g id="line2d_25">
      <g>
       <use style="fill-opacity:0.2;stroke:#000000;stroke-opacity:0.2;stroke-width:0.8;" x="252.080298" xlink:href="#mc78603068d" y="243.861659"/>
      </g>
     </g>
     <g id="text_6">
      <!-- $\mathdefault{0.4}$ -->
      <g transform="translate(243.362988 269.341188)scale(0.14 -0.14)">
       <defs>
        <path d="M 1792 1152 
L 1792 684 
C 1792 310 1722 223 1408 210 
L 1011 192 
L 1011 0 
C 1862 0 1862 0 2016 0 
C 2170 19 2170 19 3021 0 
L 3021 192 
L 2714 210 
C 2400 229 2330 310 2330 684 
L 2330 1152 
C 2707 1152 2842 1145 3021 1127 
L 3021 1580 
C 2720 1555 2598 1555 2502 1561 
L 2483 1561 
L 2330 1561 
L 2330 2445 
C 2330 3576 2342 4122 2374 4383 
L 2298 4416 
L 1824 4243 
L 13 1299 
L 83 1152 
L 1792 1152 
z
M 1792 1561 
L 416 1561 
L 1792 3798 
L 1792 1561 
z
" id="URWPalladioL-Roma-34" transform="scale(0.015625)"/>
       </defs>
       <use transform="scale(0.996264)" xlink:href="#URWPalladioL-Roma-30"/>
       <use transform="translate(49.8132 0)scale(0.996264)" xlink:href="#URWPalladioL-Roma-2e"/>
       <use transform="translate(74.719801 0)scale(0.996264)" xlink:href="#URWPalladioL-Roma-34"/>
      </g>
     </g>
    </g>
    <g id="xtick_10">
     <g id="line2d_26">
      <path clip-path="url(#peaafaa6daa)" d="M 357.547602 243.861659 
L 357.547602 131.624267 
" style="fill:none;stroke:#000000;stroke-linejoin:miter;stroke-opacity:0.2;stroke-width:0.5;"/>
     </g>
     <g id="line2d_27">
      <g>
       <use style="fill-opacity:0.2;stroke:#000000;stroke-opacity:0.2;stroke-width:0.8;" x="357.547602" xlink:href="#mc78603068d" y="243.861659"/>
      </g>
     </g>
     <g id="text_7">
      <!-- $\mathdefault{0.6}$ -->
      <g transform="translate(348.830292 269.341188)scale(0.14 -0.14)">
       <defs>
        <path d="M 2662 4287 
L 2426 4396 
C 1811 4193 1549 4066 1222 3788 
C 563 3237 205 2463 205 1585 
C 205 526 717 -128 1542 -128 
C 2374 -128 2995 532 2995 1405 
C 2995 2143 2554 2624 1875 2624 
C 1555 2624 1363 2540 986 2239 
C 915 2182 909 2175 838 2124 
C 973 3275 1510 3895 2662 4237 
L 2662 4287 
z
M 1632 2239 
C 2118 2239 2445 1816 2445 1180 
C 2445 513 2118 83 1626 83 
C 1082 83 787 551 787 1411 
C 787 1636 813 1758 883 1867 
C 1024 2085 1325 2239 1632 2239 
z
" id="URWPalladioL-Roma-36" transform="scale(0.015625)"/>
       </defs>
       <use transform="scale(0.996264)" xlink:href="#URWPalladioL-Roma-30"/>
       <use transform="translate(49.8132 0)scale(0.996264)" xlink:href="#URWPalladioL-Roma-2e"/>
       <use transform="translate(74.719801 0)scale(0.996264)" xlink:href="#URWPalladioL-Roma-36"/>
      </g>
     </g>
    </g>
    <g id="xtick_11">
     <g id="line2d_28">
      <path clip-path="url(#peaafaa6daa)" d="M 463.014906 243.861659 
L 463.014906 131.624267 
" style="fill:none;stroke:#000000;stroke-linejoin:miter;stroke-opacity:0.2;stroke-width:0.5;"/>
     </g>
     <g id="line2d_29">
      <g>
       <use style="fill-opacity:0.2;stroke:#000000;stroke-opacity:0.2;stroke-width:0.8;" x="463.014906" xlink:href="#mc78603068d" y="243.861659"/>
      </g>
     </g>
     <g id="text_8">
      <!-- $\mathdefault{0.8}$ -->
      <g transform="translate(454.297596 269.341188)scale(0.14 -0.14)">
       <defs>
        <path d="M 1075 2211 
C 813 2089 704 2019 563 1884 
C 320 1640 192 1352 192 1019 
C 192 358 723 -128 1446 -128 
C 2278 -128 2970 525 2970 1320 
C 2970 1833 2733 2108 2003 2442 
C 2586 2839 2790 3108 2790 3493 
C 2790 4044 2336 4416 1658 4416 
C 896 4416 339 3929 339 3256 
C 339 2820 512 2576 1075 2211 
z
M 1818 1890 
C 2221 1711 2464 1397 2464 1051 
C 2464 512 2061 89 1542 89 
C 998 89 646 474 646 1070 
C 646 1538 832 1833 1306 2121 
L 1818 1890 
z
M 1427 2711 
C 1024 2910 819 3166 819 3486 
C 819 3910 1126 4198 1581 4198 
C 2048 4198 2355 3890 2355 3422 
C 2355 3057 2195 2807 1779 2538 
L 1427 2711 
z
" id="URWPalladioL-Roma-38" transform="scale(0.015625)"/>
       </defs>
       <use transform="scale(0.996264)" xlink:href="#URWPalladioL-Roma-30"/>
       <use transform="translate(49.8132 0)scale(0.996264)" xlink:href="#URWPalladioL-Roma-2e"/>
       <use transform="translate(74.719801 0)scale(0.996264)" xlink:href="#URWPalladioL-Roma-38"/>
      </g>
     </g>
    </g>
    <g id="xtick_12">
     <g id="line2d_30">
      <path clip-path="url(#peaafaa6daa)" d="M 568.48221 243.861659 
L 568.48221 131.624267 
" style="fill:none;stroke:#000000;stroke-linejoin:miter;stroke-opacity:0.2;stroke-width:0.5;"/>
     </g>
     <g id="line2d_31">
      <g>
       <use style="fill-opacity:0.2;stroke:#000000;stroke-opacity:0.2;stroke-width:0.8;" x="568.48221" xlink:href="#mc78603068d" y="243.861659"/>
      </g>
     </g>
     <g id="text_9">
      <!-- $\mathdefault{1.0}$ -->
      <g transform="translate(559.7649 269.341188)scale(0.14 -0.14)">
       <use transform="scale(0.996264)" xlink:href="#URWPalladioL-Roma-31"/>
       <use transform="translate(49.8132 0)scale(0.996264)" xlink:href="#URWPalladioL-Roma-2e"/>
       <use transform="translate(74.719801 0)scale(0.996264)" xlink:href="#URWPalladioL-Roma-30"/>
      </g>
     </g>
    </g>
    <g id="text_10">
     <!-- Time $t$ [seconds] -->
     <g transform="translate(261.506786 285.828236)scale(0.12 -0.12)">
      <defs>
       <path d="M 1632 4096 
C 1651 3880 1658 3734 1658 3462 
L 1658 781 
C 1658 280 1626 230 1331 211 
L 1024 192 
L 1024 0 
C 1402 -7 1626 0 1958 0 
C 2291 19 2522 12 2899 0 
L 2899 192 
L 2592 211 
C 2298 230 2266 280 2266 781 
L 2266 3462 
C 2266 3747 2272 3887 2291 4096 
L 3283 4096 
C 3462 4096 3533 4039 3539 3887 
L 3565 3386 
L 3763 3386 
C 3763 3801 3776 4051 3808 4416 
C 3347 4409 3136 4409 2957 4403 
C 2707 4390 2522 4390 2426 4390 
L 1414 4390 
C 1350 4390 1005 4396 550 4403 
L 115 4416 
C 147 4051 160 3801 160 3385 
L 358 3385 
L 384 3891 
C 390 4038 461 4096 640 4096 
L 1632 4096 
z
" id="URWPalladioL-Roma-54" transform="scale(0.015625)"/>
       <path d="M 1203 2982 
L 1146 3008 
C 819 2873 486 2784 147 2746 
L 147 2568 
L 384 2568 
C 640 2568 666 2523 666 2103 
L 666 669 
C 666 268 646 223 429 211 
L 134 192 
L 134 0 
C 774 0 774 0 934 0 
C 1094 19 1094 19 1734 0 
L 1734 192 
L 1440 211 
C 1222 224 1203 268 1203 671 
L 1203 2982 
z
M 909 4416 
C 717 4416 550 4249 550 4057 
C 550 3871 717 3705 902 3705 
C 1088 3705 1261 3871 1261 4057 
C 1261 4236 1088 4416 909 4416 
z
" id="URWPalladioL-Roma-69" transform="scale(0.015625)"/>
       <path d="M 115 2579 
L 352 2579 
C 608 2579 634 2534 634 2112 
L 634 672 
C 634 268 614 224 397 211 
L 102 192 
L 102 0 
C 717 0 736 0 915 0 
C 1094 19 1261 12 1677 0 
L 1677 192 
L 1408 211 
C 1190 223 1171 268 1171 670 
L 1171 2023 
C 1171 2311 1594 2624 1978 2624 
C 2323 2624 2560 2298 2560 1813 
L 2560 670 
C 2560 268 2541 223 2323 211 
L 2029 192 
L 2029 0 
C 2669 0 2669 0 2829 0 
C 2989 19 2989 19 3629 0 
L 3629 192 
L 3334 211 
C 3117 223 3098 268 3098 670 
L 3098 2023 
C 3098 2311 3520 2624 3904 2624 
C 4250 2624 4486 2298 4486 1813 
L 4486 0 
C 4877 0 4883 0 4992 0 
C 5075 19 5075 19 5562 0 
L 5562 192 
L 5261 211 
C 5043 223 5024 268 5024 670 
L 5024 1985 
C 5024 2617 4653 3014 4064 3014 
C 3840 3014 3654 2956 3539 2854 
L 3053 2419 
C 2848 2841 2586 3014 2144 3014 
C 1907 3014 1728 2956 1613 2854 
L 1171 2445 
L 1171 2988 
L 1114 3008 
C 787 2873 454 2783 115 2745 
L 115 2579 
z
" id="URWPalladioL-Roma-6d" transform="scale(0.015625)"/>
       <path d="M 2797 447 
L 2714 511 
C 2304 268 2157 211 1882 211 
C 1466 211 1120 396 941 710 
C 819 921 774 1100 762 1472 
L 1696 1472 
C 2138 1472 2413 1491 2854 1561 
C 2861 1651 2867 1708 2867 1786 
C 2867 2526 2394 3008 1677 3008 
C 1440 3008 1165 2924 902 2771 
C 378 2468 166 2069 166 1401 
C 166 998 262 652 435 409 
C 691 70 1120 -128 1600 -128 
C 1837 -128 2074 -77 2336 38 
C 2509 108 2643 192 2669 230 
L 2797 447 
z
M 2298 1708 
C 1965 1696 1811 1689 1581 1689 
C 1286 1689 1120 1696 774 1728 
C 774 2030 800 2172 883 2339 
C 1018 2623 1293 2796 1600 2796 
C 1811 2796 1978 2713 2093 2539 
C 2234 2326 2278 2140 2298 1708 
z
" id="URWPalladioL-Roma-65" transform="scale(0.015625)"/>
       <path d="M 800 2489 
L 442 678 
C 435 633 429 620 410 544 
C 371 364 358 268 358 192 
C 358 32 429 -64 550 -64 
C 774 -64 998 64 1498 467 
L 1594 544 
L 1696 627 
L 1632 742 
L 1344 544 
C 1158 416 1030 352 960 352 
C 902 352 870 403 870 480 
C 870 646 960 1164 1146 2092 
L 1229 2489 
L 1914 2489 
L 1984 2809 
C 1741 2784 1523 2771 1280 2771 
C 1382 3373 1453 3686 1568 4032 
L 1498 4128 
C 1370 4051 1197 3974 998 3897 
L 838 2809 
C 557 2675 390 2604 275 2572 
L 262 2489 
L 800 2489 
z
" id="URWPalladioL-Ital-74" transform="scale(0.015625)"/>
       <path d="M 563 -1178 
C 1018 -1166 1030 -1166 1184 -1166 
C 1338 -1166 1370 -1166 1805 -1178 
L 1843 -1140 
L 1843 -974 
L 1818 -942 
L 1574 -942 
C 1402 -942 1261 -903 1184 -839 
C 1126 -782 1107 -692 1107 -481 
C 1107 -474 1107 -340 1101 -148 
L 1101 89 
L 1101 3379 
L 1101 3615 
C 1107 3795 1107 3935 1107 3942 
C 1107 4153 1126 4249 1184 4307 
C 1261 4371 1402 4409 1574 4409 
L 1818 4409 
L 1843 4441 
L 1843 4608 
L 1805 4646 
C 1357 4633 1338 4633 1184 4633 
C 1037 4633 1005 4633 563 4646 
L 506 4563 
C 544 4403 557 4191 557 3699 
C 557 3603 557 3526 563 3462 
L 563 3379 
L 563 89 
L 563 6 
C 557 -97 557 -103 557 -212 
L 557 -282 
C 557 -718 544 -897 506 -1095 
L 563 -1178 
z
" id="URWPalladioL-Roma-5b" transform="scale(0.015625)"/>
       <path d="M 262 917 
C 262 474 243 282 192 25 
C 525 -84 774 -128 1069 -128 
C 1907 -128 2502 320 2502 949 
C 2502 1148 2445 1295 2323 1423 
C 2157 1584 1946 1661 1382 1770 
C 858 1872 685 2001 685 2296 
C 685 2617 909 2796 1299 2796 
C 1728 2796 2054 2572 2054 2270 
L 2054 2123 
L 2234 2123 
C 2240 2495 2246 2649 2266 2847 
C 1926 2963 1696 3008 1434 3008 
C 691 3008 237 2655 237 2078 
C 237 1770 378 1552 672 1417 
C 845 1340 1184 1237 1619 1141 
C 1907 1077 2029 942 2029 698 
C 2029 352 1709 108 1254 108 
C 787 108 454 333 454 654 
L 454 917 
L 262 917 
z
" id="URWPalladioL-Roma-73" transform="scale(0.015625)"/>
       <path d="M 2554 1995 
C 2554 2290 2586 2553 2643 2783 
C 2387 2937 2163 3008 1901 3008 
C 1594 3008 1235 2886 851 2643 
C 403 2360 166 1911 166 1347 
C 166 480 774 -128 1632 -128 
C 1965 -128 2445 -7 2509 89 
L 2643 294 
L 2579 390 
C 2342 262 2138 204 1907 204 
C 1197 204 730 756 730 1603 
C 730 2290 1050 2675 1626 2675 
C 1907 2675 2214 2547 2330 2386 
L 2374 1995 
L 2554 1995 
z
" id="URWPalladioL-Roma-63" transform="scale(0.015625)"/>
       <path d="M 1786 3008 
C 851 3008 205 2347 205 1391 
C 205 487 774 -128 1600 -128 
C 2586 -128 3290 557 3290 1520 
C 3290 2386 2662 3008 1786 3008 
z
M 1670 2796 
C 2259 2796 2694 2155 2694 1282 
C 2694 545 2368 83 1850 83 
C 1222 83 800 699 800 1609 
C 800 2379 1107 2796 1670 2796 
z
" id="URWPalladioL-Roma-6f" transform="scale(0.015625)"/>
       <path d="M 2624 0 
C 3014 0 3021 0 3130 0 
C 3219 19 3219 19 3661 0 
L 3661 192 
L 3398 211 
C 3181 223 3162 262 3162 670 
L 3162 1902 
C 3162 2649 2810 3014 2093 3014 
C 1856 3014 1722 2969 1587 2854 
L 1101 2432 
L 1101 2988 
L 1043 3008 
C 717 2873 384 2784 45 2746 
L 45 2568 
L 282 2568 
C 538 2568 563 2523 563 2103 
L 563 669 
C 563 268 544 223 326 211 
L 38 192 
L 38 0 
C 474 -7 646 0 832 0 
C 1018 19 1190 12 1626 0 
L 1626 192 
L 1338 211 
C 1120 223 1101 268 1101 670 
L 1101 2023 
C 1101 2311 1523 2624 1914 2624 
C 2342 2624 2624 2304 2624 1813 
L 2624 0 
z
" id="URWPalladioL-Roma-6e" transform="scale(0.015625)"/>
       <path d="M 2637 2803 
C 2278 2956 2099 3008 1875 3008 
C 1702 3008 1549 2969 1389 2886 
L 826 2592 
C 461 2400 224 1934 224 1392 
C 224 881 397 460 710 204 
C 928 19 1229 -64 1645 -64 
C 1773 -64 1920 -39 1952 -13 
L 2662 581 
L 2630 0 
C 2944 -7 3046 0 3123 0 
C 3174 0 3264 0 3398 -7 
C 3443 6 3571 6 3706 0 
L 3706 192 
L 3411 211 
C 3194 224 3174 268 3174 672 
L 3174 4614 
L 3117 4665 
C 2835 4557 2624 4505 2118 4429 
L 2118 4249 
L 2477 4249 
C 2592 4249 2637 4179 2637 3987 
L 2637 2803 
z
M 2637 1424 
C 2637 1009 2624 945 2541 798 
C 2362 498 2048 300 1747 300 
C 1184 300 781 843 781 1602 
C 781 2298 1126 2707 1702 2707 
C 1946 2707 2202 2624 2426 2470 
C 2560 2381 2637 2298 2637 2247 
L 2637 1424 
z
" id="URWPalladioL-Roma-64" transform="scale(0.015625)"/>
       <path d="M 1568 4646 
C 1114 4633 1094 4633 947 4633 
C 794 4633 762 4633 326 4646 
L 288 4608 
L 288 4441 
L 314 4409 
L 557 4409 
C 730 4409 864 4371 941 4307 
C 1005 4249 1024 4159 1024 3942 
C 1024 3923 1024 3795 1030 3615 
L 1030 3379 
L 1030 89 
L 1030 -148 
C 1024 -334 1024 -449 1024 -468 
C 1024 -686 1005 -782 941 -839 
C 864 -903 730 -942 557 -942 
L 314 -942 
L 288 -974 
L 288 -1140 
L 326 -1178 
C 774 -1166 787 -1166 947 -1166 
C 1094 -1166 1126 -1166 1568 -1178 
L 1626 -1095 
C 1587 -942 1581 -743 1574 -250 
C 1574 -161 1574 -78 1568 6 
L 1568 89 
L 1568 3379 
L 1568 3462 
C 1574 3532 1574 3615 1574 3705 
C 1574 4198 1587 4409 1626 4563 
L 1568 4646 
z
" id="URWPalladioL-Roma-5d" transform="scale(0.015625)"/>
      </defs>
      <use transform="scale(0.996264)" xlink:href="#URWPalladioL-Roma-54"/>
      <use transform="translate(55.591109 0)scale(0.996264)" xlink:href="#URWPalladioL-Roma-69"/>
      <use transform="translate(84.581471 0)scale(0.996264)" xlink:href="#URWPalladioL-Roma-6d"/>
      <use transform="translate(172.551145 0)scale(0.996264)" xlink:href="#URWPalladioL-Roma-65"/>
      <use transform="translate(246.42334 0)scale(0.996264)" xlink:href="#URWPalladioL-Ital-74"/>
      <use transform="translate(305.749922 0)scale(0.996264)" xlink:href="#URWPalladioL-Roma-5b"/>
      <use transform="translate(338.925152 0)scale(0.996264)" xlink:href="#URWPalladioL-Roma-73"/>
      <use transform="translate(381.166618 0)scale(0.996264)" xlink:href="#URWPalladioL-Roma-65"/>
      <use transform="translate(428.886913 0)scale(0.996264)" xlink:href="#URWPalladioL-Roma-63"/>
      <use transform="translate(473.120482 0)scale(0.996264)" xlink:href="#URWPalladioL-Roma-6f"/>
      <use transform="translate(527.516062 0)scale(0.996264)" xlink:href="#URWPalladioL-Roma-6e"/>
      <use transform="translate(585.498123 0)scale(0.996264)" xlink:href="#URWPalladioL-Roma-64"/>
      <use transform="translate(646.369754 0)scale(0.996264)" xlink:href="#URWPalladioL-Roma-73"/>
      <use transform="translate(688.61122 0)scale(0.996264)" xlink:href="#URWPalladioL-Roma-5d"/>
     </g>
    </g>
   </g>
   <g id="matplotlib.axis_4">
    <g id="ytick_4">
     <g id="line2d_32">
      <path clip-path="url(#peaafaa6daa)" d="M 41.145691 241.18934 
L 568.48221 241.18934 
" style="fill:none;stroke:#000000;stroke-linejoin:miter;stroke-opacity:0.2;stroke-width:0.5;"/>
     </g>
     <g id="line2d_33">
      <g>
       <use style="fill-opacity:0.2;stroke:#000000;stroke-opacity:0.2;stroke-width:0.8;" x="41.145691" xlink:href="#mff2d6efc09" y="241.18934"/>
      </g>
     </g>
     <g id="text_11">
      <!-- $\mathdefault{−1}$ -->
      <g transform="translate(7.2 246.179104)scale(0.14 -0.14)">
       <use transform="scale(1.038107)" xlink:href="#CMSY10-0"/>
       <use transform="translate(81.941696 0)scale(0.996264)" xlink:href="#URWPalladioL-Roma-31"/>
      </g>
     </g>
    </g>
    <g id="ytick_5">
     <g id="line2d_34">
      <path clip-path="url(#peaafaa6daa)" d="M 41.145691 187.742963 
L 568.48221 187.742963 
" style="fill:none;stroke:#000000;stroke-linejoin:miter;stroke-opacity:0.2;stroke-width:0.5;"/>
     </g>
     <g id="line2d_35">
      <g>
       <use style="fill-opacity:0.2;stroke:#000000;stroke-opacity:0.2;stroke-width:0.8;" x="41.145691" xlink:href="#mff2d6efc09" y="187.742963"/>
      </g>
     </g>
     <g id="text_12">
      <!-- $\mathdefault{0}$ -->
      <g transform="translate(18.671843 192.732727)scale(0.14 -0.14)">
       <use transform="scale(0.996264)" xlink:href="#URWPalladioL-Roma-30"/>
      </g>
     </g>
    </g>
    <g id="ytick_6">
     <g id="line2d_36">
      <path clip-path="url(#peaafaa6daa)" d="M 41.145691 134.296586 
L 568.48221 134.296586 
" style="fill:none;stroke:#000000;stroke-linejoin:miter;stroke-opacity:0.2;stroke-width:0.5;"/>
     </g>
     <g id="line2d_37">
      <g>
       <use style="fill-opacity:0.2;stroke:#000000;stroke-opacity:0.2;stroke-width:0.8;" x="41.145691" xlink:href="#mff2d6efc09" y="134.296586"/>
      </g>
     </g>
     <g id="text_13">
      <!-- $\mathdefault{1}$ -->
      <g transform="translate(18.671843 139.286351)scale(0.14 -0.14)">
       <use transform="scale(0.996264)" xlink:href="#URWPalladioL-Roma-31"/>
      </g>
     </g>
    </g>
   </g>
   <g id="line2d_38">
    <path clip-path="url(#peaafaa6daa)" d="M 41.145691 134.296586 
L 42.200364 134.40205 
L 43.255037 134.718027 
L 44.30971 135.243268 
L 45.364383 135.975702 
L 46.419056 136.912438 
L 47.473729 138.049778 
L 48.528402 139.383235 
L 50.637748 142.616694 
L 52.747094 146.561822 
L 54.85644 151.1564 
L 56.965786 156.327971 
L 59.075132 161.994974 
L 62.239151 171.227124 
L 66.457844 184.387037 
L 72.785882 204.258802 
L 75.949901 213.490951 
L 78.059247 219.157955 
L 80.168593 224.329525 
L 82.277939 228.924104 
L 84.387285 232.869231 
L 86.496631 236.10269 
L 87.551304 237.436147 
L 88.605977 238.573488 
L 89.66065 239.510224 
L 90.715324 240.242657 
L 91.769997 240.767899 
L 92.82467 241.083876 
L 93.879343 241.18934 
L 94.934016 241.083876 
L 95.988689 240.767899 
L 97.043362 240.242657 
L 98.098035 239.510224 
L 99.152708 238.573488 
L 100.207381 237.436147 
L 101.262054 236.10269 
L 103.3714 232.869231 
L 105.480746 228.924104 
L 107.590092 224.329525 
L 109.699438 219.157955 
L 111.808784 213.490951 
L 114.972803 204.258802 
L 119.191496 191.098889 
L 125.519534 171.227124 
L 128.683553 161.994974 
L 130.792899 156.327971 
L 132.902245 151.1564 
L 135.011591 146.561822 
L 137.120937 142.616694 
L 139.230283 139.383235 
L 140.284956 138.049778 
L 141.339629 136.912438 
L 142.394302 135.975702 
L 143.448975 135.243268 
L 144.503648 134.718027 
L 145.558322 134.40205 
L 146.612995 134.296586 
L 147.667668 134.40205 
L 148.722341 134.718027 
L 149.777014 135.243268 
L 150.831687 135.975702 
L 151.88636 136.912438 
L 152.941033 138.049778 
L 153.995706 139.383235 
L 156.105052 142.616694 
L 158.214398 146.561822 
L 160.323744 151.1564 
L 162.43309 156.327971 
L 164.542436 161.994974 
L 167.706455 171.227124 
L 171.925147 184.387037 
L 178.253186 204.258802 
L 181.417205 213.490951 
L 183.526551 219.157955 
L 185.635897 224.329525 
L 187.745243 228.924104 
L 189.854589 232.869231 
L 191.963935 236.10269 
L 193.018608 237.436147 
L 194.073281 238.573488 
L 195.127954 239.510224 
L 196.182627 240.242657 
L 197.2373 240.767899 
L 198.291973 241.083876 
L 199.346646 241.18934 
L 200.40132 241.083876 
L 201.455993 240.767899 
L 202.510666 240.242657 
L 203.565339 239.510224 
L 204.620012 238.573488 
L 205.674685 237.436147 
L 206.729358 236.10269 
L 208.838704 232.869231 
L 210.94805 228.924104 
L 213.057396 224.329525 
L 215.166742 219.157955 
L 217.276088 213.490951 
L 220.440107 204.258802 
L 224.658799 191.098889 
L 230.986838 171.227124 
L 234.150857 161.994974 
L 236.260203 156.327971 
L 238.369549 151.1564 
L 240.478895 146.561822 
L 242.588241 142.616694 
L 244.697587 139.383235 
L 245.75226 138.049778 
L 246.806933 136.912438 
L 247.861606 135.975702 
L 248.916279 135.243268 
L 249.970952 134.718027 
L 251.025625 134.40205 
L 252.080298 134.296586 
L 253.134971 134.40205 
L 254.189644 134.718027 
L 255.244318 135.243268 
L 256.298991 135.975702 
L 257.353664 136.912438 
L 258.408337 138.049778 
L 259.46301 139.383235 
L 261.572356 142.616694 
L 263.681702 146.561822 
L 265.791048 151.1564 
L 267.900394 156.327971 
L 270.00974 161.994974 
L 273.173759 171.227124 
L 277.392451 184.387037 
L 283.72049 204.258802 
L 286.884509 213.490951 
L 288.993855 219.157955 
L 291.103201 224.329525 
L 293.212547 228.924104 
L 295.321893 232.869231 
L 297.431239 236.10269 
L 298.485912 237.436147 
L 299.540585 238.573488 
L 300.595258 239.510224 
L 301.649931 240.242657 
L 302.704604 240.767899 
L 303.759277 241.083876 
L 304.81395 241.18934 
L 305.868623 241.083876 
L 306.923296 240.767899 
L 307.977969 240.242657 
L 309.032642 239.510224 
L 310.087316 238.573488 
L 311.141989 237.436147 
L 312.196662 236.10269 
L 314.306008 232.869231 
L 316.415354 228.924104 
L 318.5247 224.329525 
L 320.634046 219.157955 
L 322.743392 213.490951 
L 325.907411 204.258802 
L 330.126103 191.098889 
L 336.454141 171.227124 
L 339.618161 161.994974 
L 341.727507 156.327971 
L 343.836853 151.1564 
L 345.946199 146.561822 
L 348.055545 142.616694 
L 350.164891 139.383235 
L 351.219564 138.049778 
L 352.274237 136.912438 
L 353.32891 135.975702 
L 354.383583 135.243268 
L 355.438256 134.718027 
L 356.492929 134.40205 
L 357.547602 134.296586 
L 358.602275 134.40205 
L 359.656948 134.718027 
L 360.711621 135.243268 
L 361.766294 135.975702 
L 362.820967 136.912438 
L 363.87564 138.049778 
L 364.930314 139.383235 
L 367.03966 142.616694 
L 369.149006 146.561822 
L 371.258352 151.1564 
L 373.367698 156.327971 
L 375.477044 161.994974 
L 378.641063 171.227124 
L 382.859755 184.387037 
L 389.187793 204.258802 
L 392.351813 213.490951 
L 394.461159 219.157955 
L 396.570505 224.329525 
L 398.679851 228.924104 
L 400.789197 232.869231 
L 402.898543 236.10269 
L 403.953216 237.436147 
L 405.007889 238.573488 
L 406.062562 239.510224 
L 407.117235 240.242657 
L 408.171908 240.767899 
L 409.226581 241.083876 
L 410.281254 241.18934 
L 411.335927 241.083876 
L 412.3906 240.767899 
L 413.445273 240.242657 
L 414.499946 239.510224 
L 415.554619 238.573488 
L 416.609292 237.436147 
L 417.663965 236.10269 
L 419.773312 232.869231 
L 421.882658 228.924104 
L 423.992004 224.329525 
L 426.10135 219.157955 
L 428.210696 213.490951 
L 431.374715 204.258802 
L 435.593407 191.098889 
L 441.921445 171.227124 
L 445.085464 161.994974 
L 447.19481 156.327971 
L 449.304157 151.1564 
L 451.413503 146.561822 
L 453.522849 142.616694 
L 455.632195 139.383235 
L 456.686868 138.049778 
L 457.741541 136.912438 
L 458.796214 135.975702 
L 459.850887 135.243268 
L 460.90556 134.718027 
L 461.960233 134.40205 
L 463.014906 134.296586 
L 464.069579 134.40205 
L 465.124252 134.718027 
L 466.178925 135.243268 
L 467.233598 135.975702 
L 468.288271 136.912438 
L 469.342944 138.049778 
L 470.397617 139.383235 
L 472.506963 142.616694 
L 474.616309 146.561822 
L 476.725656 151.1564 
L 478.835002 156.327971 
L 480.944348 161.994974 
L 484.108367 171.227124 
L 488.327059 184.387037 
L 494.655097 204.258802 
L 497.819116 213.490951 
L 499.928462 219.157955 
L 502.037808 224.329525 
L 504.147155 228.924104 
L 506.256501 232.869231 
L 508.365847 236.10269 
L 509.42052 237.436147 
L 510.475193 238.573488 
L 511.529866 239.510224 
L 512.584539 240.242657 
L 513.639212 240.767899 
L 514.693885 241.083876 
L 515.748558 241.18934 
L 516.803231 241.083876 
L 517.857904 240.767899 
L 518.912577 240.242657 
L 519.96725 239.510224 
L 521.021923 238.573488 
L 522.076596 237.436147 
L 523.131269 236.10269 
L 525.240615 232.869231 
L 527.349961 228.924104 
L 529.459307 224.329525 
L 531.568654 219.157955 
L 533.678 213.490951 
L 536.842019 204.258802 
L 541.060711 191.098889 
L 547.388749 171.227124 
L 550.552768 161.994974 
L 552.662114 156.327971 
L 554.77146 151.1564 
L 556.880806 146.561822 
L 558.990153 142.616694 
L 561.099499 139.383235 
L 562.154172 138.049778 
L 563.208845 136.912438 
L 564.263518 135.975702 
L 565.318191 135.243268 
L 566.372864 134.718027 
L 567.427537 134.40205 
L 567.427537 134.40205 
" style="fill:none;stroke:#dc2830;stroke-linejoin:miter;stroke-width:3;"/>
   </g>
  </g>
 </g>
 <defs>
  <clipPath id="p668be74c79">
   <rect height="112.237391" width="527.336519" x="41.145691" y="7.2"/>
  </clipPath>
  <clipPath id="peaafaa6daa">
   <rect height="112.237391" width="527.336519" x="41.145691" y="131.624267"/>
  </clipPath>
 </defs>
</svg>
