<?xml version="1.0" encoding="utf-8" standalone="no"?>
<!DOCTYPE svg PUBLIC "-//W3C//DTD SVG 1.1//EN"
  "http://www.w3.org/Graphics/SVG/1.1/DTD/svg11.dtd">
<svg height="296.39952pt" version="1.1" viewBox="0 0 584.39952 296.39952" width="584.39952pt" xmlns="http://www.w3.org/2000/svg" xmlns:xlink="http://www.w3.org/1999/xlink">
 <metadata>
  <rdf:RDF xmlns:cc="http://creativecommons.org/ns#" xmlns:dc="http://purl.org/dc/elements/1.1/" xmlns:rdf="http://www.w3.org/1999/02/22-rdf-syntax-ns#">
   <cc:Work>
    <dc:type rdf:resource="http://purl.org/dc/dcmitype/StillImage"/>
    <dc:date>2020-08-12T06:53:32.869962</dc:date>
    <dc:format>image/svg+xml</dc:format>
    <dc:creator>
     <cc:Agent>
      <dc:title>Matplotlib v3.3.0rc1.post382+g019a75231, https://matplotlib.org/</dc:title>
     </cc:Agent>
    </dc:creator>
   </cc:Work>
  </rdf:RDF>
 </metadata>
 <defs>
  <style type="text/css">*{stroke-linecap:butt;stroke-linejoin:round;}</style>
 </defs>
 <g id="figure_1">
  <g id="patch_1">
   <path d="M 0 296.39952 
L 584.39952 296.39952 
L 584.39952 0 
L 0 0 
z
" style="fill:none;"/>
  </g>
  <g id="axes_1">
   <g id="patch_2">
    <path d="M 41.145691 117.947521 
L 568.48221 117.947521 
L 568.48221 7.2 
L 41.145691 7.2 
z
" style="fill:none;"/>
   </g>
   <g id="matplotlib.axis_1">
    <g id="xtick_1">
     <g id="line2d_1">
      <path clip-path="url(#pe2be6537df)" d="M 41.145691 117.947521 
L 41.145691 7.2 
" style="fill:none;stroke:#000000;stroke-linecap:square;stroke-opacity:0.2;stroke-width:0.5;"/>
     </g>
     <g id="line2d_2">
      <defs>
       <path d="M 0 0 
L 0 3.5 
" id="m5167a8eefb" style="stroke:#000000;stroke-opacity:0.2;stroke-width:0.8;"/>
      </defs>
      <g>
       <use style="fill-opacity:0.2;stroke:#000000;stroke-opacity:0.2;stroke-width:0.8;" x="41.145691" xlink:href="#m5167a8eefb" y="117.947521"/>
      </g>
     </g>
    </g>
    <g id="xtick_2">
     <g id="line2d_3">
      <path clip-path="url(#pe2be6537df)" d="M 146.612995 117.947521 
L 146.612995 7.2 
" style="fill:none;stroke:#000000;stroke-linecap:square;stroke-opacity:0.2;stroke-width:0.5;"/>
     </g>
     <g id="line2d_4">
      <g>
       <use style="fill-opacity:0.2;stroke:#000000;stroke-opacity:0.2;stroke-width:0.8;" x="146.612995" xlink:href="#m5167a8eefb" y="117.947521"/>
      </g>
     </g>
    </g>
    <g id="xtick_3">
     <g id="line2d_5">
      <path clip-path="url(#pe2be6537df)" d="M 252.080298 117.947521 
L 252.080298 7.2 
" style="fill:none;stroke:#000000;stroke-linecap:square;stroke-opacity:0.2;stroke-width:0.5;"/>
     </g>
     <g id="line2d_6">
      <g>
       <use style="fill-opacity:0.2;stroke:#000000;stroke-opacity:0.2;stroke-width:0.8;" x="252.080298" xlink:href="#m5167a8eefb" y="117.947521"/>
      </g>
     </g>
    </g>
    <g id="xtick_4">
     <g id="line2d_7">
      <path clip-path="url(#pe2be6537df)" d="M 357.547602 117.947521 
L 357.547602 7.2 
" style="fill:none;stroke:#000000;stroke-linecap:square;stroke-opacity:0.2;stroke-width:0.5;"/>
     </g>
     <g id="line2d_8">
      <g>
       <use style="fill-opacity:0.2;stroke:#000000;stroke-opacity:0.2;stroke-width:0.8;" x="357.547602" xlink:href="#m5167a8eefb" y="117.947521"/>
      </g>
     </g>
    </g>
    <g id="xtick_5">
     <g id="line2d_9">
      <path clip-path="url(#pe2be6537df)" d="M 463.014906 117.947521 
L 463.014906 7.2 
" style="fill:none;stroke:#000000;stroke-linecap:square;stroke-opacity:0.2;stroke-width:0.5;"/>
     </g>
     <g id="line2d_10">
      <g>
       <use style="fill-opacity:0.2;stroke:#000000;stroke-opacity:0.2;stroke-width:0.8;" x="463.014906" xlink:href="#m5167a8eefb" y="117.947521"/>
      </g>
     </g>
    </g>
    <g id="xtick_6">
     <g id="line2d_11">
      <path clip-path="url(#pe2be6537df)" d="M 568.48221 117.947521 
L 568.48221 7.2 
" style="fill:none;stroke:#000000;stroke-linecap:square;stroke-opacity:0.2;stroke-width:0.5;"/>
     </g>
     <g id="line2d_12">
      <g>
       <use style="fill-opacity:0.2;stroke:#000000;stroke-opacity:0.2;stroke-width:0.8;" x="568.48221" xlink:href="#m5167a8eefb" y="117.947521"/>
      </g>
     </g>
    </g>
   </g>
   <g id="matplotlib.axis_2">
    <g id="ytick_1">
     <g id="line2d_13">
      <path clip-path="url(#pe2be6537df)" d="M 41.145691 112.913543 
L 568.48221 112.913543 
" style="fill:none;stroke:#000000;stroke-linecap:square;stroke-opacity:0.2;stroke-width:0.5;"/>
     </g>
     <g id="line2d_14">
      <defs>
       <path d="M 0 0 
L -3.5 0 
" id="m1a78908a67" style="stroke:#000000;stroke-opacity:0.2;stroke-width:0.8;"/>
      </defs>
      <g>
       <use style="fill-opacity:0.2;stroke:#000000;stroke-opacity:0.2;stroke-width:0.8;" x="41.145691" xlink:href="#m1a78908a67" y="112.913543"/>
      </g>
     </g>
     <g id="text_1">
      <!-- $\mathdefault{−1}$ -->
      <g transform="translate(7.2 117.903308)scale(0.14 -0.14)">
       <defs>
        <path d="M 65.90625 23 
C 67.59375 23 69.40625 23 69.40625 25 
C 69.40625 27 67.59375 27 65.90625 27 
L 11.796875 27 
C 10.09375 27 8.296875 27 8.296875 25 
C 8.296875 23 10.09375 23 11.796875 23 
z
" id="CMSY10-0"/>
        <path d="M 6.703125 56 
L 7.703125 56 
L 20.59375 61.8125 
C 20.703125 61.90625 20.796875 61.90625 20.90625 61.90625 
C 21.5 61.90625 21.703125 61.015625 21.703125 58.609375 
L 21.703125 9.578125 
C 21.703125 4.3125 20.59375 3.203125 15.203125 3.203125 
L 9.59375 3.203125 
L 9.59375 0 
C 25 0 25 0 26.09375 0 
C 27.40625 0 29.59375 0 33 0 
C 34.203125 0 37.703125 0 41.796875 0 
L 41.796875 3.203125 
L 36.59375 3.203125 
C 31.09375 3.203125 30.09375 4.3125 30.09375 9.5625 
L 30.09375 69.421875 
L 28.703125 69.921875 
C 22.203125 66.515625 15.09375 63.515625 6 60.3125 
z
" id="URW_Palladio_L_Roman-49"/>
       </defs>
       <use transform="scale(1.038107)" xlink:href="#CMSY10-0"/>
       <use transform="translate(81.941696 0)scale(0.996264)" xlink:href="#URW_Palladio_L_Roman-49"/>
      </g>
     </g>
    </g>
    <g id="ytick_2">
     <g id="line2d_15">
      <path clip-path="url(#pe2be6537df)" d="M 41.145691 62.573761 
L 568.48221 62.573761 
" style="fill:none;stroke:#000000;stroke-linecap:square;stroke-opacity:0.2;stroke-width:0.5;"/>
     </g>
     <g id="line2d_16">
      <g>
       <use style="fill-opacity:0.2;stroke:#000000;stroke-opacity:0.2;stroke-width:0.8;" x="41.145691" xlink:href="#m1a78908a67" y="62.573761"/>
      </g>
     </g>
     <g id="text_2">
      <!-- $\mathdefault{0}$ -->
      <g transform="translate(18.671843 67.563525)scale(0.14 -0.14)">
       <defs>
        <path d="M 26.296875 69 
C 10.796875 69 2.90625 56.6875 2.90625 32.453125 
C 2.90625 20.71875 5 10.625 8.5 5.71875 
C 12 0.796875 17.59375 -2 23.796875 -2 
C 38.90625 -2 46.5 11.015625 46.5 36.65625 
C 46.5 58.578125 40 69 26.296875 69 
z
M 24.5 65.5 
C 34.203125 65.5 38.09375 55.6875 38.09375 31.640625 
C 38.09375 10.328125 34.296875 1.5 25.09375 1.5 
C 15.40625 1.5 11.296875 11.625 11.296875 36.0625 
C 11.296875 57.1875 15 65.5 24.5 65.5 
z
" id="URW_Palladio_L_Roman-48"/>
       </defs>
       <use transform="scale(0.996264)" xlink:href="#URW_Palladio_L_Roman-48"/>
      </g>
     </g>
    </g>
    <g id="ytick_3">
     <g id="line2d_17">
      <path clip-path="url(#pe2be6537df)" d="M 41.145691 12.233978 
L 568.48221 12.233978 
" style="fill:none;stroke:#000000;stroke-linecap:square;stroke-opacity:0.2;stroke-width:0.5;"/>
     </g>
     <g id="line2d_18">
      <g>
       <use style="fill-opacity:0.2;stroke:#000000;stroke-opacity:0.2;stroke-width:0.8;" x="41.145691" xlink:href="#m1a78908a67" y="12.233978"/>
      </g>
     </g>
     <g id="text_3">
      <!-- $\mathdefault{1}$ -->
      <g transform="translate(18.671843 17.223743)scale(0.14 -0.14)">
       <use transform="scale(0.996264)" xlink:href="#URW_Palladio_L_Roman-49"/>
      </g>
     </g>
    </g>
   </g>
   <g id="line2d_19">
    <path clip-path="url(#pe2be6537df)" d="M 41.145691 12.233978 
L 42.200364 12.333312 
L 43.255037 12.630922 
L 44.30971 13.125634 
L 45.364383 13.815495 
L 46.419056 14.697783 
L 47.473729 15.769015 
L 48.528402 17.024964 
L 50.637748 20.070477 
L 52.747094 23.786292 
L 54.85644 28.113808 
L 56.965786 32.984779 
L 59.075132 38.322386 
L 62.239151 47.017912 
L 66.457844 59.4129 
L 72.785882 78.129609 
L 75.949901 86.825136 
L 78.059247 92.162742 
L 80.168593 97.033713 
L 82.277939 101.36123 
L 84.387285 105.077045 
L 86.496631 108.122558 
L 87.551304 109.378507 
L 88.605977 110.449739 
L 89.66065 111.332026 
L 90.715324 112.021887 
L 91.769997 112.516599 
L 92.82467 112.814209 
L 93.879343 112.913543 
L 94.934016 112.814209 
L 95.988689 112.516599 
L 97.043362 112.021887 
L 98.098035 111.332026 
L 99.152708 110.449739 
L 100.207381 109.378507 
L 101.262054 108.122558 
L 103.3714 105.077045 
L 105.480746 101.36123 
L 107.590092 97.033713 
L 109.699438 92.162742 
L 111.808784 86.825136 
L 114.972803 78.129609 
L 119.191496 65.734622 
L 125.519534 47.017912 
L 128.683553 38.322386 
L 130.792899 32.984779 
L 132.902245 28.113808 
L 135.011591 23.786292 
L 137.120937 20.070477 
L 139.230283 17.024964 
L 140.284956 15.769015 
L 141.339629 14.697783 
L 142.394302 13.815495 
L 143.448975 13.125634 
L 144.503648 12.630922 
L 145.558322 12.333312 
L 146.612995 12.233978 
L 147.667668 12.333312 
L 148.722341 12.630922 
L 149.777014 13.125634 
L 150.831687 13.815495 
L 151.88636 14.697783 
L 152.941033 15.769015 
L 153.995706 17.024964 
L 156.105052 20.070477 
L 158.214398 23.786292 
L 160.323744 28.113808 
L 162.43309 32.984779 
L 164.542436 38.322386 
L 167.706455 47.017912 
L 171.925147 59.4129 
L 178.253186 78.129609 
L 181.417205 86.825136 
L 183.526551 92.162742 
L 185.635897 97.033713 
L 187.745243 101.36123 
L 189.854589 105.077045 
L 191.963935 108.122558 
L 193.018608 109.378507 
L 194.073281 110.449739 
L 195.127954 111.332026 
L 196.182627 112.021887 
L 197.2373 112.516599 
L 198.291973 112.814209 
L 199.346646 112.913543 
L 200.40132 112.814209 
L 201.455993 112.516599 
L 202.510666 112.021887 
L 203.565339 111.332026 
L 204.620012 110.449739 
L 205.674685 109.378507 
L 206.729358 108.122558 
L 208.838704 105.077045 
L 210.94805 101.36123 
L 213.057396 97.033713 
L 215.166742 92.162742 
L 217.276088 86.825136 
L 220.440107 78.129609 
L 224.658799 65.734622 
L 230.986838 47.017912 
L 234.150857 38.322386 
L 236.260203 32.984779 
L 238.369549 28.113808 
L 240.478895 23.786292 
L 242.588241 20.070477 
L 244.697587 17.024964 
L 245.75226 15.769015 
L 246.806933 14.697783 
L 247.861606 13.815495 
L 248.916279 13.125634 
L 249.970952 12.630922 
L 251.025625 12.333312 
L 252.080298 12.233978 
L 253.134971 12.333312 
L 254.189644 12.630922 
L 255.244318 13.125634 
L 256.298991 13.815495 
L 257.353664 14.697783 
L 258.408337 15.769015 
L 259.46301 17.024964 
L 261.572356 20.070477 
L 263.681702 23.786292 
L 265.791048 28.113808 
L 267.900394 32.984779 
L 270.00974 38.322386 
L 273.173759 47.017912 
L 277.392451 59.4129 
L 283.72049 78.129609 
L 286.884509 86.825136 
L 288.993855 92.162742 
L 291.103201 97.033713 
L 293.212547 101.36123 
L 295.321893 105.077045 
L 297.431239 108.122558 
L 298.485912 109.378507 
L 299.540585 110.449739 
L 300.595258 111.332026 
L 301.649931 112.021887 
L 302.704604 112.516599 
L 303.759277 112.814209 
L 304.81395 112.913543 
L 305.868623 112.814209 
L 306.923296 112.516599 
L 307.977969 112.021887 
L 309.032642 111.332026 
L 310.087316 110.449739 
L 311.141989 109.378507 
L 312.196662 108.122558 
L 314.306008 105.077045 
L 316.415354 101.36123 
L 318.5247 97.033713 
L 320.634046 92.162742 
L 322.743392 86.825136 
L 325.907411 78.129609 
L 330.126103 65.734622 
L 336.454141 47.017912 
L 339.618161 38.322386 
L 341.727507 32.984779 
L 343.836853 28.113808 
L 345.946199 23.786292 
L 348.055545 20.070477 
L 350.164891 17.024964 
L 351.219564 15.769015 
L 352.274237 14.697783 
L 353.32891 13.815495 
L 354.383583 13.125634 
L 355.438256 12.630922 
L 356.492929 12.333312 
L 357.547602 12.233978 
L 358.602275 12.333312 
L 359.656948 12.630922 
L 360.711621 13.125634 
L 361.766294 13.815495 
L 362.820967 14.697783 
L 363.87564 15.769015 
L 364.930314 17.024964 
L 367.03966 20.070477 
L 369.149006 23.786292 
L 371.258352 28.113808 
L 373.367698 32.984779 
L 375.477044 38.322386 
L 378.641063 47.017912 
L 382.859755 59.4129 
L 389.187793 78.129609 
L 392.351813 86.825136 
L 394.461159 92.162742 
L 396.570505 97.033713 
L 398.679851 101.36123 
L 400.789197 105.077045 
L 402.898543 108.122558 
L 403.953216 109.378507 
L 405.007889 110.449739 
L 406.062562 111.332026 
L 407.117235 112.021887 
L 408.171908 112.516599 
L 409.226581 112.814209 
L 410.281254 112.913543 
L 411.335927 112.814209 
L 412.3906 112.516599 
L 413.445273 112.021887 
L 414.499946 111.332026 
L 415.554619 110.449739 
L 416.609292 109.378507 
L 417.663965 108.122558 
L 419.773312 105.077045 
L 421.882658 101.36123 
L 423.992004 97.033713 
L 426.10135 92.162742 
L 428.210696 86.825136 
L 431.374715 78.129609 
L 435.593407 65.734622 
L 441.921445 47.017912 
L 445.085464 38.322386 
L 447.19481 32.984779 
L 449.304157 28.113808 
L 451.413503 23.786292 
L 453.522849 20.070477 
L 455.632195 17.024964 
L 456.686868 15.769015 
L 457.741541 14.697783 
L 458.796214 13.815495 
L 459.850887 13.125634 
L 460.90556 12.630922 
L 461.960233 12.333312 
L 463.014906 12.233978 
L 464.069579 12.333312 
L 465.124252 12.630922 
L 466.178925 13.125634 
L 467.233598 13.815495 
L 468.288271 14.697783 
L 469.342944 15.769015 
L 470.397617 17.024964 
L 472.506963 20.070477 
L 474.616309 23.786292 
L 476.725656 28.113808 
L 478.835002 32.984779 
L 480.944348 38.322386 
L 484.108367 47.017912 
L 488.327059 59.4129 
L 494.655097 78.129609 
L 497.819116 86.825136 
L 499.928462 92.162742 
L 502.037808 97.033713 
L 504.147155 101.36123 
L 506.256501 105.077045 
L 508.365847 108.122558 
L 509.42052 109.378507 
L 510.475193 110.449739 
L 511.529866 111.332026 
L 512.584539 112.021887 
L 513.639212 112.516599 
L 514.693885 112.814209 
L 515.748558 112.913543 
L 516.803231 112.814209 
L 517.857904 112.516599 
L 518.912577 112.021887 
L 519.96725 111.332026 
L 521.021923 110.449739 
L 522.076596 109.378507 
L 523.131269 108.122558 
L 525.240615 105.077045 
L 527.349961 101.36123 
L 529.459307 97.033713 
L 531.568654 92.162742 
L 533.678 86.825136 
L 536.842019 78.129609 
L 541.060711 65.734622 
L 547.388749 47.017912 
L 550.552768 38.322386 
L 552.662114 32.984779 
L 554.77146 28.113808 
L 556.880806 23.786292 
L 558.990153 20.070477 
L 561.099499 17.024964 
L 562.154172 15.769015 
L 563.208845 14.697783 
L 564.263518 13.815495 
L 565.318191 13.125634 
L 566.372864 12.630922 
L 567.427537 12.333312 
L 567.427537 12.333312 
" style="fill:none;stroke:#0271ae;stroke-linecap:square;stroke-width:3;"/>
   </g>
  </g>
  <g id="axes_2">
   <g id="patch_3">
    <path d="M 41.145691 243.861659 
L 568.48221 243.861659 
L 568.48221 133.114137 
L 41.145691 133.114137 
z
" style="fill:none;"/>
   </g>
   <g id="matplotlib.axis_3">
    <g id="xtick_7">
     <g id="line2d_20">
      <path clip-path="url(#p5d70bc5909)" d="M 41.145691 243.861659 
L 41.145691 133.114137 
" style="fill:none;stroke:#000000;stroke-linecap:square;stroke-opacity:0.2;stroke-width:0.5;"/>
     </g>
     <g id="line2d_21">
      <g>
       <use style="fill-opacity:0.2;stroke:#000000;stroke-opacity:0.2;stroke-width:0.8;" x="41.145691" xlink:href="#m5167a8eefb" y="243.861659"/>
      </g>
     </g>
     <g id="text_4">
      <!-- $\mathdefault{0.0}$ -->
      <g transform="translate(32.428381 269.341188)scale(0.14 -0.14)">
       <defs>
        <path d="M 12.40625 11.625 
C 9.40625 11.625 6.703125 8.8125 6.703125 5.8125 
C 6.703125 2.796875 9.40625 0 12.296875 0 
C 15.5 0 18.296875 2.703125 18.296875 5.8125 
C 18.296875 8.8125 15.5 11.625 12.40625 11.625 
z
" id="URW_Palladio_L_Roman-46"/>
       </defs>
       <use transform="scale(0.996264)" xlink:href="#URW_Palladio_L_Roman-48"/>
       <use transform="translate(49.8132 0)scale(0.996264)" xlink:href="#URW_Palladio_L_Roman-46"/>
       <use transform="translate(74.719801 0)scale(0.996264)" xlink:href="#URW_Palladio_L_Roman-48"/>
      </g>
     </g>
    </g>
    <g id="xtick_8">
     <g id="line2d_22">
      <path clip-path="url(#p5d70bc5909)" d="M 146.612995 243.861659 
L 146.612995 133.114137 
" style="fill:none;stroke:#000000;stroke-linecap:square;stroke-opacity:0.2;stroke-width:0.5;"/>
     </g>
     <g id="line2d_23">
      <g>
       <use style="fill-opacity:0.2;stroke:#000000;stroke-opacity:0.2;stroke-width:0.8;" x="146.612995" xlink:href="#m5167a8eefb" y="243.861659"/>
      </g>
     </g>
     <g id="text_5">
      <!-- $\mathdefault{0.2}$ -->
      <g transform="translate(137.895684 269.341188)scale(0.14 -0.14)">
       <defs>
        <path d="M 1.59375 2.5 
L 1.59375 0 
C 20.296875 0 20.296875 0 23.90625 0 
C 27.5 0 27.5 0 46.796875 0 
C 46.59375 1.953125 46.59375 2.90625 46.59375 4.203125 
C 46.59375 5.4375 46.59375 6.359375 46.796875 8.421875 
C 35.296875 8.421875 30.703125 8.421875 12.203125 8.421875 
L 30.40625 27.515625 
C 40.09375 37.71875 43.09375 43.171875 43.09375 50.59375 
C 43.09375 61.96875 35.296875 69 22.59375 69 
C 15.40625 69 10.5 67 5.59375 62.015625 
L 3.90625 48.421875 
L 6.796875 48.421875 
L 8.09375 53.015625 
C 9.703125 58.796875 13.296875 61.296875 20 61.296875 
C 28.59375 61.296875 34.09375 55.890625 34.09375 47.421875 
C 34.09375 39.921875 29.90625 32.546875 18.59375 20.5625 
z
" id="URW_Palladio_L_Roman-50"/>
       </defs>
       <use transform="scale(0.996264)" xlink:href="#URW_Palladio_L_Roman-48"/>
       <use transform="translate(49.8132 0)scale(0.996264)" xlink:href="#URW_Palladio_L_Roman-46"/>
       <use transform="translate(74.719801 0)scale(0.996264)" xlink:href="#URW_Palladio_L_Roman-50"/>
      </g>
     </g>
    </g>
    <g id="xtick_9">
     <g id="line2d_24">
      <path clip-path="url(#p5d70bc5909)" d="M 252.080298 243.861659 
L 252.080298 133.114137 
" style="fill:none;stroke:#000000;stroke-linecap:square;stroke-opacity:0.2;stroke-width:0.5;"/>
     </g>
     <g id="line2d_25">
      <g>
       <use style="fill-opacity:0.2;stroke:#000000;stroke-opacity:0.2;stroke-width:0.8;" x="252.080298" xlink:href="#m5167a8eefb" y="243.861659"/>
      </g>
     </g>
     <g id="text_6">
      <!-- $\mathdefault{0.4}$ -->
      <g transform="translate(243.362988 269.341188)scale(0.14 -0.14)">
       <defs>
        <path d="M 28 18 
L 28 10.515625 
C 28 4.515625 26.90625 3.109375 22 3.109375 
L 15.796875 3.109375 
L 15.796875 0 
C 29.09375 0 29.09375 0 31.5 0 
C 33.90625 0 33.90625 0 47.203125 0 
L 47.203125 3.109375 
L 42.40625 3.109375 
C 37.5 3.109375 36.40625 4.40625 36.40625 10.453125 
L 36.40625 18 
C 42.296875 18 44.40625 18 47.203125 17.703125 
L 47.203125 24.8125 
C 42.5 24.421875 40.59375 24.421875 39.09375 24.421875 
L 38.796875 24.421875 
L 36.40625 24.421875 
L 36.40625 38.390625 
C 36.40625 56.25 36.59375 64.875 37.09375 69 
L 35.90625 69.5 
L 28.5 66.796875 
L 0.203125 20.296875 
L 1.296875 18 
z
M 28 24.421875 
L 6.5 24.421875 
L 28 59.78125 
z
" id="URW_Palladio_L_Roman-52"/>
       </defs>
       <use transform="scale(0.996264)" xlink:href="#URW_Palladio_L_Roman-48"/>
       <use transform="translate(49.8132 0)scale(0.996264)" xlink:href="#URW_Palladio_L_Roman-46"/>
       <use transform="translate(74.719801 0)scale(0.996264)" xlink:href="#URW_Palladio_L_Roman-52"/>
      </g>
     </g>
    </g>
    <g id="xtick_10">
     <g id="line2d_26">
      <path clip-path="url(#p5d70bc5909)" d="M 357.547602 243.861659 
L 357.547602 133.114137 
" style="fill:none;stroke:#000000;stroke-linecap:square;stroke-opacity:0.2;stroke-width:0.5;"/>
     </g>
     <g id="line2d_27">
      <g>
       <use style="fill-opacity:0.2;stroke:#000000;stroke-opacity:0.2;stroke-width:0.8;" x="357.547602" xlink:href="#m5167a8eefb" y="243.861659"/>
      </g>
     </g>
     <g id="text_7">
      <!-- $\mathdefault{0.6}$ -->
      <g transform="translate(348.830292 269.341188)scale(0.14 -0.14)">
       <defs>
        <path d="M 41.59375 67.34375 
L 37.90625 69.046875 
C 28.296875 65.84375 24.203125 63.84375 19.09375 59.4375 
C 8.796875 50.71875 3.203125 38.5 3.203125 24.765625 
C 3.203125 8.21875 11.203125 -2 24.09375 -2 
C 37.09375 -2 46.796875 8.3125 46.796875 21.953125 
C 46.796875 33.484375 39.90625 41 29.296875 41 
C 24.296875 41 21.296875 39.6875 15.40625 34.984375 
C 14.296875 34.078125 14.203125 33.984375 13.09375 33.1875 
C 15.203125 51.3125 23.59375 61.140625 41.59375 66.546875 
z
M 25.5 34.984375 
C 33.09375 34.984375 38.203125 28.375 38.203125 18.453125 
C 38.203125 8.015625 33.09375 1.296875 25.40625 1.296875 
C 16.90625 1.296875 12.296875 8.609375 12.296875 22.0625 
C 12.296875 25.5625 12.703125 27.46875 13.796875 29.171875 
C 16 32.578125 20.703125 34.984375 25.5 34.984375 
z
" id="URW_Palladio_L_Roman-54"/>
       </defs>
       <use transform="scale(0.996264)" xlink:href="#URW_Palladio_L_Roman-48"/>
       <use transform="translate(49.8132 0)scale(0.996264)" xlink:href="#URW_Palladio_L_Roman-46"/>
       <use transform="translate(74.719801 0)scale(0.996264)" xlink:href="#URW_Palladio_L_Roman-54"/>
      </g>
     </g>
    </g>
    <g id="xtick_11">
     <g id="line2d_28">
      <path clip-path="url(#p5d70bc5909)" d="M 463.014906 243.861659 
L 463.014906 133.114137 
" style="fill:none;stroke:#000000;stroke-linecap:square;stroke-opacity:0.2;stroke-width:0.5;"/>
     </g>
     <g id="line2d_29">
      <g>
       <use style="fill-opacity:0.2;stroke:#000000;stroke-opacity:0.2;stroke-width:0.8;" x="463.014906" xlink:href="#m5167a8eefb" y="243.861659"/>
      </g>
     </g>
     <g id="text_8">
      <!-- $\mathdefault{0.8}$ -->
      <g transform="translate(454.297596 269.341188)scale(0.14 -0.14)">
       <defs>
        <path d="M 16.796875 34.546875 
C 12.703125 32.65625 11 31.546875 8.796875 29.4375 
C 5 25.640625 3 21.125 3 15.921875 
C 3 5.609375 11.296875 -2 22.59375 -2 
C 35.59375 -2 46.40625 8.21875 46.40625 20.625 
C 46.40625 28.640625 42.703125 32.953125 31.296875 38.15625 
C 40.40625 44.375 43.59375 48.578125 43.59375 54.578125 
C 43.59375 63.1875 36.5 69 25.90625 69 
C 14 69 5.296875 61.390625 5.296875 50.890625 
C 5.296875 44.078125 8 40.265625 16.796875 34.546875 
z
M 28.40625 29.546875 
C 34.703125 26.734375 38.5 21.828125 38.5 16.4375 
C 38.5 8.015625 32.203125 1.40625 24.09375 1.40625 
C 15.59375 1.40625 10.09375 7.421875 10.09375 16.734375 
C 10.09375 24.03125 13 28.640625 20.40625 33.15625 
z
M 22.296875 42.375 
C 16 45.46875 12.796875 49.484375 12.796875 54.484375 
C 12.796875 61.09375 17.59375 65.59375 24.703125 65.59375 
C 32 65.59375 36.796875 60.796875 36.796875 53.46875 
C 36.796875 47.78125 34.296875 43.875 27.796875 39.65625 
z
" id="URW_Palladio_L_Roman-56"/>
       </defs>
       <use transform="scale(0.996264)" xlink:href="#URW_Palladio_L_Roman-48"/>
       <use transform="translate(49.8132 0)scale(0.996264)" xlink:href="#URW_Palladio_L_Roman-46"/>
       <use transform="translate(74.719801 0)scale(0.996264)" xlink:href="#URW_Palladio_L_Roman-56"/>
      </g>
     </g>
    </g>
    <g id="xtick_12">
     <g id="line2d_30">
      <path clip-path="url(#p5d70bc5909)" d="M 568.48221 243.861659 
L 568.48221 133.114137 
" style="fill:none;stroke:#000000;stroke-linecap:square;stroke-opacity:0.2;stroke-width:0.5;"/>
     </g>
     <g id="line2d_31">
      <g>
       <use style="fill-opacity:0.2;stroke:#000000;stroke-opacity:0.2;stroke-width:0.8;" x="568.48221" xlink:href="#m5167a8eefb" y="243.861659"/>
      </g>
     </g>
     <g id="text_9">
      <!-- $\mathdefault{1.0}$ -->
      <g transform="translate(559.7649 269.341188)scale(0.14 -0.14)">
       <use transform="scale(0.996264)" xlink:href="#URW_Palladio_L_Roman-49"/>
       <use transform="translate(49.8132 0)scale(0.996264)" xlink:href="#URW_Palladio_L_Roman-46"/>
       <use transform="translate(74.719801 0)scale(0.996264)" xlink:href="#URW_Palladio_L_Roman-48"/>
      </g>
     </g>
    </g>
    <g id="text_10">
     <!-- Time $t$ [seconds] -->
     <g transform="translate(261.506786 285.828236)scale(0.12 -0.12)">
      <defs>
       <path d="M 25.5 64.28125 
C 25.796875 60.875 25.90625 58.578125 25.90625 54.265625 
L 25.90625 11.921875 
C 25.90625 4 25.40625 3.203125 20.796875 3.203125 
L 16 3.203125 
L 16 0 
C 21.90625 0 25.40625 0 30.59375 0 
C 35.796875 0 39.40625 0 45.296875 0 
L 45.296875 3.203125 
L 40.5 3.203125 
C 35.90625 3.203125 35.40625 4 35.40625 11.921875 
L 35.40625 54.265625 
C 35.40625 58.78125 35.5 60.984375 35.796875 64.28125 
L 51.296875 64.28125 
C 54.09375 64.28125 55.203125 63.390625 55.296875 61 
L 55.703125 53.125 
L 58.796875 53.125 
C 58.796875 59.53125 59 63.375 59.5 69 
C 52.296875 69 49 69 46.203125 69 
C 42.296875 69 39.40625 69 37.90625 69 
L 22.09375 69 
C 21.09375 69 15.703125 69 8.59375 69 
L 1.796875 69 
C 2.296875 63.375 2.5 59.53125 2.5 53.125 
L 5.59375 53.125 
L 6 61 
C 6.09375 63.390625 7.203125 64.28125 10 64.28125 
z
" id="URW_Palladio_L_Roman-84"/>
       <path d="M 18.796875 46.765625 
L 17.90625 47.171875 
C 12.796875 45.0625 7.59375 43.640625 2.296875 43.046875 
L 2.296875 40.25 
L 6 40.25 
C 10 40.25 10.40625 39.546875 10.40625 32.890625 
L 10.40625 10.171875 
C 10.40625 3.8125 10.09375 3.109375 6.703125 3.109375 
L 2.09375 3.109375 
L 2.09375 0 
C 12.09375 0 12.09375 0 14.59375 0 
C 17.09375 0 17.09375 0 27.09375 0 
L 27.09375 3.109375 
L 22.5 3.109375 
C 19.09375 3.109375 18.796875 3.8125 18.796875 10.171875 
z
M 14.203125 69 
C 11.203125 69 8.59375 66.390625 8.59375 63.375 
C 8.59375 60.46875 11.203125 57.875 14.09375 57.875 
C 17 57.875 19.703125 60.46875 19.703125 63.375 
C 19.703125 66.1875 17 69 14.203125 69 
z
" id="URW_Palladio_L_Roman-105"/>
       <path d="M 1.796875 40.078125 
L 5.5 40.078125 
C 9.5 40.078125 9.90625 39.375 9.90625 32.71875 
L 9.90625 10.046875 
C 9.90625 3.703125 9.59375 3 6.203125 3 
L 1.59375 3 
L 1.59375 -0.109375 
C 11.203125 -0.109375 11.5 -0.109375 14.296875 -0.109375 
C 17.09375 -0.109375 19.703125 -0.109375 26.203125 -0.109375 
L 26.203125 2.796875 
L 22 3.203125 
C 18.59375 3.203125 18.296875 3.90625 18.296875 10.21875 
L 18.296875 31.46875 
C 18.296875 35.96875 24.90625 40.875 30.90625 40.875 
C 36.296875 40.875 40 35.734375 40 28.09375 
L 40 10.046875 
C 40 3.703125 39.703125 3 36.296875 3 
L 31.703125 3 
L 31.703125 -0.109375 
C 41.703125 -0.109375 41.703125 -0.109375 44.203125 -0.109375 
C 46.703125 -0.109375 46.703125 -0.109375 56.703125 -0.109375 
L 56.703125 3 
L 52.09375 3 
C 48.703125 3 48.40625 3.703125 48.40625 10.046875 
L 48.40625 31.421875 
C 48.40625 35.9375 55 40.875 61 40.875 
C 66.40625 40.875 70.09375 35.796875 70.09375 28.21875 
L 70.09375 -0.109375 
C 76.203125 -0.109375 76.296875 -0.109375 78 -0.109375 
C 79.296875 -0.109375 79.296875 -0.109375 86.90625 -0.109375 
L 86.90625 3 
L 82.203125 3 
C 78.796875 3 78.5 3.703125 78.5 10.046875 
L 78.5 30.78125 
C 78.5 40.75 72.703125 47 63.5 47 
C 60 47 57.09375 46.09375 55.296875 44.484375 
L 47.703125 37.6875 
C 44.5 44.28125 40.40625 47 33.5 47 
C 29.796875 47 27 46.09375 25.203125 44.484375 
L 18.296875 38.078125 
L 18.296875 46.59375 
L 17.40625 47 
C 12.296875 44.890625 7.09375 43.484375 1.796875 42.890625 
z
" id="URW_Palladio_L_Roman-109"/>
       <path d="M 43.703125 6.984375 
L 42.40625 7.984375 
C 36 4.203125 33.703125 3.3125 29.40625 3.3125 
C 22.90625 3.3125 17.5 6.21875 14.703125 11.109375 
C 12.796875 14.390625 12.09375 17.203125 11.90625 23 
L 26.5 23 
C 33.40625 23 37.703125 23 44.59375 24.125 
C 44.703125 25.53125 44.796875 26.453125 44.796875 27.671875 
C 44.796875 39.375 37.40625 47 26.203125 47 
C 22.5 47 18.203125 45.6875 14.09375 43.28125 
C 5.90625 38.578125 2.59375 32.359375 2.59375 21.9375 
C 2.59375 15.625 4.09375 10.21875 6.796875 6.40625 
C 10.796875 1.109375 17.5 -2 25 -2 
C 28.703125 -2 32.40625 -1.203125 36.5 0.578125 
C 39.203125 1.6875 41.296875 2.984375 41.703125 3.59375 
z
M 35.90625 26.40625 
C 30.703125 26.40625 28.296875 26.40625 24.703125 26.40625 
C 20.09375 26.40625 17.5 26.40625 12.09375 26.90625 
C 12.09375 31.671875 12.5 33.890625 13.796875 36.515625 
C 15.90625 40.96875 20.203125 43.6875 25 43.6875 
C 28.296875 43.6875 30.90625 42.359375 32.703125 39.59375 
C 34.90625 36.234375 35.59375 33.265625 35.90625 26.40625 
z
" id="URW_Palladio_L_Roman-101"/>
       <path d="M 12.5 38.515625 
L 6.90625 10.484375 
C 6.796875 9.78125 6.703125 9.609375 6.40625 8.40625 
C 5.796875 5.640625 5.59375 4.140625 5.59375 2.96875 
C 5.59375 0.484375 6.703125 -1 8.59375 -1 
C 12.09375 -1 15.59375 0.96875 23.40625 7.234375 
L 24.90625 8.40625 
L 26.5 9.703125 
L 25.5 11.484375 
L 21 8.40625 
C 18.09375 6.4375 16.09375 5.4375 15 5.4375 
C 14.09375 5.4375 13.59375 6.234375 13.59375 7.40625 
C 13.59375 9.984375 15 18.015625 17.90625 32.375 
L 19.203125 38.515625 
L 29.90625 38.515625 
L 31 43.5 
C 27.203125 43 23.796875 43 20 43 
C 21.59375 52.3125 22.703125 57.171875 24.5 62.515625 
L 23.40625 64.015625 
C 21.40625 62.828125 18.703125 61.625 15.59375 60.4375 
L 13.09375 43.5 
C 8.703125 41.40625 6.09375 40.3125 4.296875 39.8125 
L 4.09375 38.515625 
z
" id="URW_Palladio_L_Italic-116"/>
       <path d="M 8.796875 -18 
C 15.90625 -18 16.09375 -18 18.5 -18 
C 20.90625 -18 21.40625 -18 28.203125 -18 
L 28.796875 -17.5 
L 28.796875 -14.890625 
L 28.40625 -14.390625 
L 24.59375 -14.390625 
C 21.90625 -14.390625 19.703125 -13.78125 18.5 -12.78125 
C 17.59375 -11.875 17.296875 -10.484375 17.296875 -7.171875 
C 17.296875 -7.078125 17.296875 -4.96875 17.203125 -1.953125 
L 17.203125 1.75 
L 17.203125 53.265625 
L 17.203125 56.96875 
C 17.296875 59.78125 17.296875 61.984375 17.296875 62.078125 
C 17.296875 65.390625 17.59375 66.890625 18.5 67.796875 
C 19.703125 68.796875 21.90625 69.390625 24.59375 69.390625 
L 28.40625 69.390625 
L 28.796875 69.890625 
L 28.796875 72.5 
L 28.203125 73 
C 21.203125 73 20.90625 73 18.5 73 
C 16.203125 73 15.703125 73 8.796875 73 
L 7.90625 71.796875 
C 8.5 69.296875 8.703125 65.984375 8.703125 58.28125 
C 8.703125 56.765625 8.703125 55.5625 8.796875 54.5625 
L 8.796875 53.265625 
L 8.796875 1.75 
L 8.796875 0.4375 
C 8.703125 -1.15625 8.703125 -1.265625 8.703125 -2.96875 
L 8.703125 -4.0625 
C 8.703125 -10.875 8.5 -13.6875 7.90625 -16.796875 
z
" id="URW_Palladio_L_Roman-91"/>
       <path d="M 4.09375 14.328125 
C 4.09375 7.421875 3.796875 4.40625 3 0.40625 
C 8.203125 -1.296875 12.09375 -2 16.703125 -2 
C 29.796875 -2 39.09375 5.015625 39.09375 14.828125 
C 39.09375 17.9375 38.203125 20.234375 36.296875 22.25 
C 33.703125 24.75 30.40625 25.953125 21.59375 27.65625 
C 13.40625 29.265625 10.703125 31.265625 10.703125 35.875 
C 10.703125 40.875 14.203125 43.6875 20.296875 43.6875 
C 27 43.6875 32.09375 40.1875 32.09375 35.46875 
L 32.09375 33.171875 
L 34.90625 33.171875 
C 35 38.984375 35.09375 41.375 35.40625 44.484375 
C 30.09375 46.296875 26.5 47 22.40625 47 
C 10.796875 47 3.703125 41.484375 3.703125 32.46875 
C 3.703125 27.65625 5.90625 24.25 10.5 22.140625 
C 13.203125 20.9375 18.5 19.34375 25.296875 17.828125 
C 29.796875 16.828125 31.703125 14.734375 31.703125 10.921875 
C 31.703125 5.515625 26.703125 1.703125 19.59375 1.703125 
C 12.296875 1.703125 7.09375 5.203125 7.09375 10.21875 
L 7.09375 14.328125 
z
" id="URW_Palladio_L_Roman-115"/>
       <path d="M 39.90625 31.15625 
C 39.90625 35.765625 40.40625 39.875 41.296875 43.484375 
C 37.296875 45.890625 33.796875 47 29.703125 47 
C 24.90625 47 19.296875 45.09375 13.296875 41.28125 
C 6.296875 36.875 2.59375 29.859375 2.59375 21.046875 
C 2.59375 7.515625 12.09375 -2 25.5 -2 
C 30.703125 -2 38.203125 -0.09375 39.203125 1.40625 
L 41.296875 4.609375 
L 40.296875 6.109375 
C 36.59375 4.109375 33.40625 3.203125 29.796875 3.203125 
C 18.703125 3.203125 11.40625 11.828125 11.40625 25.046875 
C 11.40625 35.765625 16.40625 41.78125 25.40625 41.78125 
C 29.796875 41.78125 34.59375 39.78125 36.40625 37.28125 
L 37.09375 31.15625 
z
" id="URW_Palladio_L_Roman-99"/>
       <path d="M 27.90625 47 
C 13.296875 47 3.203125 36.671875 3.203125 21.75 
C 3.203125 7.609375 12.09375 -2 25 -2 
C 40.40625 -2 51.40625 8.71875 51.40625 23.75 
C 51.40625 37.28125 41.59375 47 27.90625 47 
z
M 26.09375 43.6875 
C 35.296875 43.6875 42.09375 33.671875 42.09375 20.046875 
C 42.09375 8.515625 37 1.296875 28.90625 1.296875 
C 19.09375 1.296875 12.5 10.921875 12.5 25.15625 
C 12.5 37.171875 17.296875 43.6875 26.09375 43.6875 
z
" id="URW_Palladio_L_Roman-111"/>
       <path d="M 41 -0.109375 
C 47.09375 -0.109375 47.203125 -0.109375 48.90625 -0.109375 
C 50.296875 -0.109375 50.296875 -0.109375 57.203125 -0.109375 
L 57.203125 2.796875 
L 53.09375 3.203125 
C 49.703125 3.203125 49.40625 3.8125 49.40625 10.21875 
L 49.40625 29.5625 
C 49.40625 41.28125 43.90625 47 32.703125 47 
C 29 47 26.90625 46.296875 24.796875 44.484375 
L 17.203125 37.875 
L 17.203125 46.59375 
L 16.296875 47 
C 11.203125 44.890625 6 43.484375 0.703125 42.890625 
L 0.703125 40.078125 
L 4.40625 40.078125 
C 8.40625 40.078125 8.796875 39.375 8.796875 32.71875 
L 8.796875 10.046875 
C 8.796875 3.703125 8.5 3 5.09375 3 
L 0.59375 3 
L 0.59375 -0.109375 
C 7.40625 -0.109375 10.09375 -0.109375 13 -0.109375 
C 15.90625 -0.109375 18.59375 -0.109375 25.40625 -0.109375 
L 25.40625 3 
L 20.90625 3 
C 17.5 3 17.203125 3.703125 17.203125 10.046875 
L 17.203125 31.421875 
C 17.203125 35.9375 23.796875 40.875 29.90625 40.875 
C 36.59375 40.875 41 35.890625 41 28.21875 
z
" id="URW_Palladio_L_Roman-110"/>
       <path d="M 41.203125 43.78125 
C 35.59375 46.1875 32.796875 47 29.296875 47 
C 26.59375 47 24.203125 46.390625 21.703125 45.109375 
L 12.90625 40.515625 
C 7.203125 37.515625 3.5 30.234375 3.5 21.75 
C 3.5 13.765625 6.203125 7.1875 11.09375 3.1875 
C 14.5 0.296875 19.203125 -1 25.703125 -1 
C 27.703125 -1 30 -0.59375 30.5 -0.203125 
L 41.59375 9.109375 
L 41.09375 -0.109375 
C 46 -0.109375 47.59375 -0.109375 48.796875 -0.109375 
C 49.59375 -0.109375 51 -0.109375 53.09375 -0.109375 
C 53.796875 -0.109375 55.796875 -0.109375 57.90625 -0.109375 
L 57.90625 3 
L 53.296875 3 
C 49.90625 3 49.59375 3.703125 49.59375 10.046875 
L 49.59375 71.984375 
L 48.703125 72.796875 
C 44.296875 71.09375 41 70.28125 33.09375 69.078125 
L 33.09375 66.28125 
L 38.703125 66.28125 
C 40.5 66.28125 41.203125 65.171875 41.203125 62.15625 
z
M 41.203125 22.25 
C 41.203125 15.765625 41 14.78125 39.703125 12.484375 
C 36.90625 7.796875 32 4.71875 27.296875 4.71875 
C 18.5 4.71875 12.203125 13.1875 12.203125 25.046875 
C 12.203125 35.90625 17.59375 42.28125 26.59375 42.28125 
C 30.40625 42.28125 34.40625 40.984375 37.90625 38.59375 
C 40 37.203125 41.203125 35.90625 41.203125 35.09375 
z
" id="URW_Palladio_L_Roman-100"/>
       <path d="M 24.5 73 
C 17.40625 73 17.09375 73 14.796875 73 
C 12.40625 73 11.90625 73 5.09375 73 
L 4.5 72.5 
L 4.5 69.890625 
L 4.90625 69.390625 
L 8.703125 69.390625 
C 11.40625 69.390625 13.5 68.796875 14.703125 67.796875 
C 15.703125 66.890625 16 65.484375 16 62.078125 
C 16 61.78125 16 59.78125 16.09375 56.96875 
L 16.09375 53.265625 
L 16.09375 1.75 
L 16.09375 -1.953125 
C 16 -4.859375 16 -6.671875 16 -6.96875 
C 16 -10.375 15.703125 -11.875 14.703125 -12.78125 
C 13.5 -13.78125 11.40625 -14.390625 8.703125 -14.390625 
L 4.90625 -14.390625 
L 4.5 -14.890625 
L 4.5 -17.5 
L 5.09375 -18 
C 12.09375 -18 12.296875 -18 14.796875 -18 
C 17.09375 -18 17.59375 -18 24.5 -18 
L 25.40625 -16.796875 
C 24.796875 -14.390625 24.703125 -11.28125 24.59375 -3.5625 
C 24.59375 -2.15625 24.59375 -0.859375 24.5 0.4375 
L 24.5 1.75 
L 24.5 53.265625 
L 24.5 54.5625 
C 24.59375 55.671875 24.59375 56.96875 24.59375 58.375 
C 24.59375 66.09375 24.796875 69.390625 25.40625 71.796875 
z
" id="URW_Palladio_L_Roman-93"/>
      </defs>
      <use transform="scale(0.996264)" xlink:href="#URW_Palladio_L_Roman-84"/>
      <use transform="translate(55.591109 0)scale(0.996264)" xlink:href="#URW_Palladio_L_Roman-105"/>
      <use transform="translate(84.581471 0)scale(0.996264)" xlink:href="#URW_Palladio_L_Roman-109"/>
      <use transform="translate(172.551145 0)scale(0.996264)" xlink:href="#URW_Palladio_L_Roman-101"/>
      <use transform="translate(246.42334 0)scale(0.996264)" xlink:href="#URW_Palladio_L_Italic-116"/>
      <use transform="translate(305.749922 0)scale(0.996264)" xlink:href="#URW_Palladio_L_Roman-91"/>
      <use transform="translate(338.925152 0)scale(0.996264)" xlink:href="#URW_Palladio_L_Roman-115"/>
      <use transform="translate(381.166618 0)scale(0.996264)" xlink:href="#URW_Palladio_L_Roman-101"/>
      <use transform="translate(428.886913 0)scale(0.996264)" xlink:href="#URW_Palladio_L_Roman-99"/>
      <use transform="translate(473.120482 0)scale(0.996264)" xlink:href="#URW_Palladio_L_Roman-111"/>
      <use transform="translate(527.516062 0)scale(0.996264)" xlink:href="#URW_Palladio_L_Roman-110"/>
      <use transform="translate(585.498123 0)scale(0.996264)" xlink:href="#URW_Palladio_L_Roman-100"/>
      <use transform="translate(646.369754 0)scale(0.996264)" xlink:href="#URW_Palladio_L_Roman-115"/>
      <use transform="translate(688.61122 0)scale(0.996264)" xlink:href="#URW_Palladio_L_Roman-93"/>
     </g>
    </g>
   </g>
   <g id="matplotlib.axis_4">
    <g id="ytick_4">
     <g id="line2d_32">
      <path clip-path="url(#p5d70bc5909)" d="M 41.145691 241.224813 
L 568.48221 241.224813 
" style="fill:none;stroke:#000000;stroke-linecap:square;stroke-opacity:0.2;stroke-width:0.5;"/>
     </g>
     <g id="line2d_33">
      <g>
       <use style="fill-opacity:0.2;stroke:#000000;stroke-opacity:0.2;stroke-width:0.8;" x="41.145691" xlink:href="#m1a78908a67" y="241.224813"/>
      </g>
     </g>
     <g id="text_11">
      <!-- $\mathdefault{−1}$ -->
      <g transform="translate(7.2 246.214577)scale(0.14 -0.14)">
       <use transform="scale(1.038107)" xlink:href="#CMSY10-0"/>
       <use transform="translate(81.941696 0)scale(0.996264)" xlink:href="#URW_Palladio_L_Roman-49"/>
      </g>
     </g>
    </g>
    <g id="ytick_5">
     <g id="line2d_34">
      <path clip-path="url(#p5d70bc5909)" d="M 41.145691 188.487898 
L 568.48221 188.487898 
" style="fill:none;stroke:#000000;stroke-linecap:square;stroke-opacity:0.2;stroke-width:0.5;"/>
     </g>
     <g id="line2d_35">
      <g>
       <use style="fill-opacity:0.2;stroke:#000000;stroke-opacity:0.2;stroke-width:0.8;" x="41.145691" xlink:href="#m1a78908a67" y="188.487898"/>
      </g>
     </g>
     <g id="text_12">
      <!-- $\mathdefault{0}$ -->
      <g transform="translate(18.671843 193.477663)scale(0.14 -0.14)">
       <use transform="scale(0.996264)" xlink:href="#URW_Palladio_L_Roman-48"/>
      </g>
     </g>
    </g>
    <g id="ytick_6">
     <g id="line2d_36">
      <path clip-path="url(#p5d70bc5909)" d="M 41.145691 135.750983 
L 568.48221 135.750983 
" style="fill:none;stroke:#000000;stroke-linecap:square;stroke-opacity:0.2;stroke-width:0.5;"/>
     </g>
     <g id="line2d_37">
      <g>
       <use style="fill-opacity:0.2;stroke:#000000;stroke-opacity:0.2;stroke-width:0.8;" x="41.145691" xlink:href="#m1a78908a67" y="135.750983"/>
      </g>
     </g>
     <g id="text_13">
      <!-- $\mathdefault{1}$ -->
      <g transform="translate(18.671843 140.740748)scale(0.14 -0.14)">
       <use transform="scale(0.996264)" xlink:href="#URW_Palladio_L_Roman-49"/>
      </g>
     </g>
    </g>
   </g>
   <g id="line2d_38">
    <path clip-path="url(#p5d70bc5909)" d="M 41.145691 135.750983 
L 42.200364 135.855047 
L 43.255037 136.166829 
L 44.30971 136.685099 
L 45.364383 137.40781 
L 46.419056 138.332111 
L 47.473729 139.454355 
L 48.528402 140.770111 
L 50.637748 143.960648 
L 52.747094 147.853407 
L 54.85644 152.386995 
L 56.965786 157.489917 
L 59.075132 163.081695 
L 62.239151 172.191295 
L 66.457844 185.17652 
L 72.785882 204.784501 
L 75.949901 213.8941 
L 78.059247 219.485879 
L 80.168593 224.5888 
L 82.277939 229.122389 
L 84.387285 233.015148 
L 86.496631 236.205685 
L 87.551304 237.521441 
L 88.605977 238.643684 
L 89.66065 239.567986 
L 90.715324 240.290697 
L 91.769997 240.808966 
L 92.82467 241.120749 
L 93.879343 241.224813 
L 94.934016 241.120749 
L 95.988689 240.808966 
L 97.043362 240.290697 
L 98.098035 239.567986 
L 99.152708 238.643684 
L 100.207381 237.521441 
L 101.262054 236.205685 
L 103.3714 233.015148 
L 105.480746 229.122389 
L 107.590092 224.5888 
L 109.699438 219.485879 
L 111.808784 213.8941 
L 114.972803 204.784501 
L 119.191496 191.799276 
L 125.519534 172.191295 
L 128.683553 163.081695 
L 130.792899 157.489917 
L 132.902245 152.386995 
L 135.011591 147.853407 
L 137.120937 143.960648 
L 139.230283 140.770111 
L 140.284956 139.454355 
L 141.339629 138.332111 
L 142.394302 137.40781 
L 143.448975 136.685099 
L 144.503648 136.166829 
L 145.558322 135.855047 
L 146.612995 135.750983 
L 147.667668 135.855047 
L 148.722341 136.166829 
L 149.777014 136.685099 
L 150.831687 137.40781 
L 151.88636 138.332111 
L 152.941033 139.454355 
L 153.995706 140.770111 
L 156.105052 143.960648 
L 158.214398 147.853407 
L 160.323744 152.386995 
L 162.43309 157.489917 
L 164.542436 163.081695 
L 167.706455 172.191295 
L 171.925147 185.17652 
L 178.253186 204.784501 
L 181.417205 213.8941 
L 183.526551 219.485879 
L 185.635897 224.5888 
L 187.745243 229.122389 
L 189.854589 233.015148 
L 191.963935 236.205685 
L 193.018608 237.521441 
L 194.073281 238.643684 
L 195.127954 239.567986 
L 196.182627 240.290697 
L 197.2373 240.808966 
L 198.291973 241.120749 
L 199.346646 241.224813 
L 200.40132 241.120749 
L 201.455993 240.808966 
L 202.510666 240.290697 
L 203.565339 239.567986 
L 204.620012 238.643684 
L 205.674685 237.521441 
L 206.729358 236.205685 
L 208.838704 233.015148 
L 210.94805 229.122389 
L 213.057396 224.5888 
L 215.166742 219.485879 
L 217.276088 213.8941 
L 220.440107 204.784501 
L 224.658799 191.799276 
L 230.986838 172.191295 
L 234.150857 163.081695 
L 236.260203 157.489917 
L 238.369549 152.386995 
L 240.478895 147.853407 
L 242.588241 143.960648 
L 244.697587 140.770111 
L 245.75226 139.454355 
L 246.806933 138.332111 
L 247.861606 137.40781 
L 248.916279 136.685099 
L 249.970952 136.166829 
L 251.025625 135.855047 
L 252.080298 135.750983 
L 253.134971 135.855047 
L 254.189644 136.166829 
L 255.244318 136.685099 
L 256.298991 137.40781 
L 257.353664 138.332111 
L 258.408337 139.454355 
L 259.46301 140.770111 
L 261.572356 143.960648 
L 263.681702 147.853407 
L 265.791048 152.386995 
L 267.900394 157.489917 
L 270.00974 163.081695 
L 273.173759 172.191295 
L 277.392451 185.17652 
L 283.72049 204.784501 
L 286.884509 213.8941 
L 288.993855 219.485879 
L 291.103201 224.5888 
L 293.212547 229.122389 
L 295.321893 233.015148 
L 297.431239 236.205685 
L 298.485912 237.521441 
L 299.540585 238.643684 
L 300.595258 239.567986 
L 301.649931 240.290697 
L 302.704604 240.808966 
L 303.759277 241.120749 
L 304.81395 241.224813 
L 305.868623 241.120749 
L 306.923296 240.808966 
L 307.977969 240.290697 
L 309.032642 239.567986 
L 310.087316 238.643684 
L 311.141989 237.521441 
L 312.196662 236.205685 
L 314.306008 233.015148 
L 316.415354 229.122389 
L 318.5247 224.5888 
L 320.634046 219.485879 
L 322.743392 213.8941 
L 325.907411 204.784501 
L 330.126103 191.799276 
L 336.454141 172.191295 
L 339.618161 163.081695 
L 341.727507 157.489917 
L 343.836853 152.386995 
L 345.946199 147.853407 
L 348.055545 143.960648 
L 350.164891 140.770111 
L 351.219564 139.454355 
L 352.274237 138.332111 
L 353.32891 137.40781 
L 354.383583 136.685099 
L 355.438256 136.166829 
L 356.492929 135.855047 
L 357.547602 135.750983 
L 358.602275 135.855047 
L 359.656948 136.166829 
L 360.711621 136.685099 
L 361.766294 137.40781 
L 362.820967 138.332111 
L 363.87564 139.454355 
L 364.930314 140.770111 
L 367.03966 143.960648 
L 369.149006 147.853407 
L 371.258352 152.386995 
L 373.367698 157.489917 
L 375.477044 163.081695 
L 378.641063 172.191295 
L 382.859755 185.17652 
L 389.187793 204.784501 
L 392.351813 213.8941 
L 394.461159 219.485879 
L 396.570505 224.5888 
L 398.679851 229.122389 
L 400.789197 233.015148 
L 402.898543 236.205685 
L 403.953216 237.521441 
L 405.007889 238.643684 
L 406.062562 239.567986 
L 407.117235 240.290697 
L 408.171908 240.808966 
L 409.226581 241.120749 
L 410.281254 241.224813 
L 411.335927 241.120749 
L 412.3906 240.808966 
L 413.445273 240.290697 
L 414.499946 239.567986 
L 415.554619 238.643684 
L 416.609292 237.521441 
L 417.663965 236.205685 
L 419.773312 233.015148 
L 421.882658 229.122389 
L 423.992004 224.5888 
L 426.10135 219.485879 
L 428.210696 213.8941 
L 431.374715 204.784501 
L 435.593407 191.799276 
L 441.921445 172.191295 
L 445.085464 163.081695 
L 447.19481 157.489917 
L 449.304157 152.386995 
L 451.413503 147.853407 
L 453.522849 143.960648 
L 455.632195 140.770111 
L 456.686868 139.454355 
L 457.741541 138.332111 
L 458.796214 137.40781 
L 459.850887 136.685099 
L 460.90556 136.166829 
L 461.960233 135.855047 
L 463.014906 135.750983 
L 464.069579 135.855047 
L 465.124252 136.166829 
L 466.178925 136.685099 
L 467.233598 137.40781 
L 468.288271 138.332111 
L 469.342944 139.454355 
L 470.397617 140.770111 
L 472.506963 143.960648 
L 474.616309 147.853407 
L 476.725656 152.386995 
L 478.835002 157.489917 
L 480.944348 163.081695 
L 484.108367 172.191295 
L 488.327059 185.17652 
L 494.655097 204.784501 
L 497.819116 213.8941 
L 499.928462 219.485879 
L 502.037808 224.5888 
L 504.147155 229.122389 
L 506.256501 233.015148 
L 508.365847 236.205685 
L 509.42052 237.521441 
L 510.475193 238.643684 
L 511.529866 239.567986 
L 512.584539 240.290697 
L 513.639212 240.808966 
L 514.693885 241.120749 
L 515.748558 241.224813 
L 516.803231 241.120749 
L 517.857904 240.808966 
L 518.912577 240.290697 
L 519.96725 239.567986 
L 521.021923 238.643684 
L 522.076596 237.521441 
L 523.131269 236.205685 
L 525.240615 233.015148 
L 527.349961 229.122389 
L 529.459307 224.5888 
L 531.568654 219.485879 
L 533.678 213.8941 
L 536.842019 204.784501 
L 541.060711 191.799276 
L 547.388749 172.191295 
L 550.552768 163.081695 
L 552.662114 157.489917 
L 554.77146 152.386995 
L 556.880806 147.853407 
L 558.990153 143.960648 
L 561.099499 140.770111 
L 562.154172 139.454355 
L 563.208845 138.332111 
L 564.263518 137.40781 
L 565.318191 136.685099 
L 566.372864 136.166829 
L 567.427537 135.855047 
L 567.427537 135.855047 
" style="fill:none;stroke:#dc2830;stroke-linecap:square;stroke-width:3;"/>
   </g>
  </g>
 </g>
 <defs>
  <clipPath id="pe2be6537df">
   <rect height="110.747521" width="527.336519" x="41.145691" y="7.2"/>
  </clipPath>
  <clipPath id="p5d70bc5909">
   <rect height="110.747521" width="527.336519" x="41.145691" y="133.114137"/>
  </clipPath>
 </defs>
</svg>
