<?xml version="1.0" encoding="utf-8" standalone="no"?>
<!DOCTYPE svg PUBLIC "-//W3C//DTD SVG 1.1//EN"
  "http://www.w3.org/Graphics/SVG/1.1/DTD/svg11.dtd">
<svg height="200.39952pt" version="1.1" viewBox="0 0 584.39952 200.39952" width="584.39952pt" xmlns="http://www.w3.org/2000/svg" xmlns:xlink="http://www.w3.org/1999/xlink">
 <metadata>
  <rdf:RDF xmlns:cc="http://creativecommons.org/ns#" xmlns:dc="http://purl.org/dc/elements/1.1/" xmlns:rdf="http://www.w3.org/1999/02/22-rdf-syntax-ns#">
   <cc:Work>
    <dc:type rdf:resource="http://purl.org/dc/dcmitype/StillImage"/>
    <dc:date>2020-08-21T09:51:34.417373</dc:date>
    <dc:format>image/svg+xml</dc:format>
    <dc:creator>
     <cc:Agent>
      <dc:title>Matplotlib v3.3.0rc1.post717+g6a40954ae, https://matplotlib.org/</dc:title>
     </cc:Agent>
    </dc:creator>
   </cc:Work>
  </rdf:RDF>
 </metadata>
 <defs>
  <style type="text/css">*{stroke-linecap:butt;stroke-linejoin:round;}</style>
 </defs>
 <g id="figure_1">
  <g id="patch_1">
   <path d="M 0 200.39952 
L 584.39952 200.39952 
L 584.39952 0 
L 0 0 
z
" style="fill:none;"/>
  </g>
  <g id="axes_1">
   <g id="patch_2">
    <path d="M 40.13462 147.861659 
L 280.998547 147.861659 
L 280.998547 24.016509 
L 40.13462 24.016509 
z
" style="fill:none;"/>
   </g>
   <g id="matplotlib.axis_1">
    <g id="xtick_1">
     <g id="line2d_1">
      <path clip-path="url(#p305df55996)" d="M 40.13462 147.861659 
L 40.13462 24.016509 
" style="fill:none;stroke:#000000;stroke-linecap:square;stroke-opacity:0.2;stroke-width:0.5;"/>
     </g>
     <g id="line2d_2">
      <defs>
       <path d="M 0 0 
L 0 3.5 
" id="md1e5644b8c" style="stroke:#000000;stroke-opacity:0.2;stroke-width:0.8;"/>
      </defs>
      <g>
       <use style="fill-opacity:0.2;stroke:#000000;stroke-opacity:0.2;stroke-width:0.8;" x="40.13462" xlink:href="#md1e5644b8c" y="147.861659"/>
      </g>
     </g>
     <g id="text_1">
      <!-- $\mathdefault{0}$ -->
      <g transform="translate(36.647696 173.341188)scale(0.14 -0.14)">
       <defs>
        <path d="M 1683 4416 
C 691 4416 186 3628 186 2077 
C 186 1326 320 680 544 366 
C 768 51 1126 -128 1523 -128 
C 2490 -128 2976 705 2976 2346 
C 2976 3749 2560 4416 1683 4416 
z
M 1568 4192 
C 2189 4192 2438 3564 2438 2025 
C 2438 661 2195 96 1606 96 
C 986 96 723 744 723 2308 
C 723 3660 960 4192 1568 4192 
z
" id="URWPalladioL-Roma-30" transform="scale(0.015625)"/>
       </defs>
       <use transform="scale(0.996264)" xlink:href="#URWPalladioL-Roma-30"/>
      </g>
     </g>
    </g>
    <g id="xtick_2">
     <g id="line2d_3">
      <path clip-path="url(#p305df55996)" d="M 116.599359 147.861659 
L 116.599359 24.016509 
" style="fill:none;stroke:#000000;stroke-linecap:square;stroke-opacity:0.2;stroke-width:0.5;"/>
     </g>
     <g id="line2d_4">
      <g>
       <use style="fill-opacity:0.2;stroke:#000000;stroke-opacity:0.2;stroke-width:0.8;" x="116.599359" xlink:href="#md1e5644b8c" y="147.861659"/>
      </g>
     </g>
     <g id="text_2">
      <!-- $\mathdefault{20}$ -->
      <g transform="translate(109.625511 173.341188)scale(0.14 -0.14)">
       <defs>
        <path d="M 102 160 
L 102 0 
C 1299 0 1299 0 1530 0 
C 1760 0 1760 0 2995 0 
C 2982 125 2982 186 2982 269 
C 2982 348 2982 407 2995 539 
C 2259 539 1965 539 781 539 
L 1946 1761 
C 2566 2414 2758 2763 2758 3238 
C 2758 3966 2259 4416 1446 4416 
C 986 4416 672 4288 358 3969 
L 250 3099 
L 435 3099 
L 518 3393 
C 621 3763 851 3923 1280 3923 
C 1830 3923 2182 3577 2182 3035 
C 2182 2555 1914 2083 1190 1316 
z
" id="URWPalladioL-Roma-32" transform="scale(0.015625)"/>
       </defs>
       <use transform="scale(0.996264)" xlink:href="#URWPalladioL-Roma-32"/>
       <use transform="translate(49.8132 0)scale(0.996264)" xlink:href="#URWPalladioL-Roma-30"/>
      </g>
     </g>
    </g>
    <g id="xtick_3">
     <g id="line2d_5">
      <path clip-path="url(#p305df55996)" d="M 193.064097 147.861659 
L 193.064097 24.016509 
" style="fill:none;stroke:#000000;stroke-linecap:square;stroke-opacity:0.2;stroke-width:0.5;"/>
     </g>
     <g id="line2d_6">
      <g>
       <use style="fill-opacity:0.2;stroke:#000000;stroke-opacity:0.2;stroke-width:0.8;" x="193.064097" xlink:href="#md1e5644b8c" y="147.861659"/>
      </g>
     </g>
     <g id="text_3">
      <!-- $\mathdefault{40}$ -->
      <g transform="translate(186.090249 173.341188)scale(0.14 -0.14)">
       <defs>
        <path d="M 1792 1152 
L 1792 673 
C 1792 289 1722 199 1408 199 
L 1011 199 
L 1011 0 
C 1862 0 1862 0 2016 0 
C 2170 0 2170 0 3021 0 
L 3021 199 
L 2714 199 
C 2400 199 2330 282 2330 669 
L 2330 1152 
C 2707 1152 2842 1152 3021 1133 
L 3021 1588 
C 2720 1563 2598 1563 2502 1563 
L 2483 1563 
L 2330 1563 
L 2330 2457 
C 2330 3600 2342 4152 2374 4416 
L 2298 4448 
L 1824 4275 
L 13 1299 
L 83 1152 
z
M 1792 1563 
L 416 1563 
L 1792 3826 
z
" id="URWPalladioL-Roma-34" transform="scale(0.015625)"/>
       </defs>
       <use transform="scale(0.996264)" xlink:href="#URWPalladioL-Roma-34"/>
       <use transform="translate(49.8132 0)scale(0.996264)" xlink:href="#URWPalladioL-Roma-30"/>
      </g>
     </g>
    </g>
    <g id="xtick_4">
     <g id="line2d_7">
      <path clip-path="url(#p305df55996)" d="M 269.528836 147.861659 
L 269.528836 24.016509 
" style="fill:none;stroke:#000000;stroke-linecap:square;stroke-opacity:0.2;stroke-width:0.5;"/>
     </g>
     <g id="line2d_8">
      <g>
       <use style="fill-opacity:0.2;stroke:#000000;stroke-opacity:0.2;stroke-width:0.8;" x="269.528836" xlink:href="#md1e5644b8c" y="147.861659"/>
      </g>
     </g>
     <g id="text_4">
      <!-- $\mathdefault{60}$ -->
      <g transform="translate(262.554988 173.341188)scale(0.14 -0.14)">
       <defs>
        <path d="M 2662 4310 
L 2426 4419 
C 1811 4214 1549 4086 1222 3804 
C 563 3246 205 2464 205 1585 
C 205 526 717 -128 1542 -128 
C 2374 -128 2995 532 2995 1405 
C 2995 2143 2554 2624 1875 2624 
C 1555 2624 1363 2540 986 2239 
C 915 2181 909 2175 838 2124 
C 973 3284 1510 3913 2662 4259 
z
M 1632 2239 
C 2118 2239 2445 1816 2445 1181 
C 2445 513 2118 83 1626 83 
C 1082 83 787 551 787 1412 
C 787 1636 813 1758 883 1867 
C 1024 2085 1325 2239 1632 2239 
z
" id="URWPalladioL-Roma-36" transform="scale(0.015625)"/>
       </defs>
       <use transform="scale(0.996264)" xlink:href="#URWPalladioL-Roma-36"/>
       <use transform="translate(49.8132 0)scale(0.996264)" xlink:href="#URWPalladioL-Roma-30"/>
      </g>
     </g>
    </g>
    <g id="text_5">
     <!-- Samples $n$ -->
     <g transform="translate(133.53919 189.828236)scale(0.12 -0.12)">
      <defs>
       <path d="M 2861 3371 
C 2861 3711 2886 3928 2950 4274 
C 2438 4480 2150 4544 1798 4544 
C 845 4544 154 3941 154 3102 
C 154 2788 237 2557 422 2384 
C 640 2186 934 2083 1555 2000 
C 2048 1929 2272 1859 2438 1711 
C 2605 1577 2682 1391 2682 1147 
C 2682 571 2202 154 1536 154 
C 1024 154 525 404 493 666 
L 442 1096 
L 237 1096 
C 243 980 243 878 243 840 
C 243 545 230 404 192 116 
C 557 -45 928 -128 1299 -128 
C 2413 -128 3219 545 3219 1474 
C 3219 1775 3136 1987 2957 2153 
C 2733 2364 2464 2448 1747 2544 
C 966 2646 691 2858 691 3352 
C 691 3890 1094 4274 1658 4274 
C 1907 4274 2144 4223 2317 4127 
C 2528 4018 2598 3922 2618 3737 
L 2656 3371 
z
" id="URWPalladioL-Roma-53" transform="scale(0.015625)"/>
       <path d="M 2074 538 
L 2042 -1 
C 2458 -1 2458 -1 2541 -1 
C 2573 -1 2733 -1 3014 -1 
L 3014 192 
L 2765 192 
C 2611 192 2586 244 2586 558 
L 2586 1731 
C 2586 2668 2317 3008 1574 3008 
C 1299 3008 1043 2937 800 2791 
L 461 2585 
L 461 2171 
L 627 2126 
L 710 2323 
C 845 2623 909 2668 1203 2668 
C 1805 2668 2054 2431 2074 1852 
L 1440 1736 
C 570 1577 205 1277 205 722 
C 205 224 506 -64 1011 -64 
C 1126 -64 1235 -45 1280 -13 
z
M 2074 806 
C 1888 544 1485 302 1235 302 
C 979 302 755 538 755 812 
C 755 1048 883 1271 1075 1392 
C 1235 1488 1587 1577 2074 1648 
z
" id="URWPalladioL-Roma-61" transform="scale(0.015625)"/>
       <path d="M 115 2565 
L 352 2565 
C 608 2565 634 2520 634 2094 
L 634 643 
C 634 237 614 192 397 192 
L 102 192 
L 102 -7 
C 717 -7 736 -7 915 -7 
C 1094 -7 1261 -7 1677 -7 
L 1677 179 
L 1408 205 
C 1190 205 1171 250 1171 654 
L 1171 2014 
C 1171 2302 1594 2616 1978 2616 
C 2323 2616 2560 2287 2560 1798 
L 2560 643 
C 2560 237 2541 192 2323 192 
L 2029 192 
L 2029 -7 
C 2669 -7 2669 -7 2829 -7 
C 2989 -7 2989 -7 3629 -7 
L 3629 192 
L 3334 192 
C 3117 192 3098 237 3098 643 
L 3098 2011 
C 3098 2300 3520 2616 3904 2616 
C 4250 2616 4486 2291 4486 1806 
L 4486 -7 
C 4877 -7 4883 -7 4992 -7 
C 5075 -7 5075 -7 5562 -7 
L 5562 192 
L 5261 192 
C 5043 192 5024 237 5024 643 
L 5024 1970 
C 5024 2608 4653 3008 4064 3008 
C 3840 3008 3654 2950 3539 2847 
L 3053 2412 
C 2848 2834 2586 3008 2144 3008 
C 1907 3008 1728 2950 1613 2847 
L 1171 2437 
L 1171 2982 
L 1114 3008 
C 787 2873 454 2783 115 2745 
z
" id="URWPalladioL-Roma-6d" transform="scale(0.015625)"/>
       <path d="M 64 2565 
L 301 2565 
C 557 2565 582 2520 582 2095 
L 582 -1142 
C 582 -1548 563 -1593 346 -1593 
L 51 -1593 
L 51 -1792 
C 691 -1792 691 -1792 851 -1792 
C 1011 -1792 1011 -1792 1651 -1792 
L 1651 -1593 
L 1357 -1593 
C 1139 -1593 1120 -1547 1120 -1138 
L 1120 89 
C 1312 -26 1517 -71 1805 -71 
C 1990 -71 2157 -32 2259 32 
L 2989 505 
C 3245 672 3546 1330 3546 1740 
C 3546 2451 2957 3008 2214 3008 
C 1978 3008 1747 2943 1645 2847 
L 1120 2367 
L 1120 2982 
L 1062 3008 
C 736 2873 403 2783 64 2745 
z
M 1120 1964 
C 1120 2053 1152 2124 1235 2233 
C 1421 2469 1683 2591 2003 2591 
C 2605 2591 2989 2169 2989 1504 
C 2989 787 2560 256 1984 256 
C 1632 256 1370 372 1120 633 
z
" id="URWPalladioL-Roma-70" transform="scale(0.015625)"/>
       <path d="M 147 4256 
L 506 4256 
C 621 4256 666 4185 666 3992 
L 666 651 
C 666 244 646 199 429 199 
L 134 199 
L 134 0 
C 774 0 774 0 934 0 
C 1094 0 1094 0 1734 0 
L 1734 199 
L 1440 199 
C 1222 199 1203 244 1203 650 
L 1203 4621 
L 1146 4673 
C 864 4564 653 4512 147 4435 
z
" id="URWPalladioL-Roma-6c" transform="scale(0.015625)"/>
       <path d="M 2797 447 
L 2714 511 
C 2304 269 2157 212 1882 212 
C 1466 212 1120 398 941 711 
C 819 921 774 1101 762 1472 
L 1696 1472 
C 2138 1472 2413 1472 2854 1544 
C 2861 1634 2867 1693 2867 1771 
C 2867 2520 2394 3008 1677 3008 
C 1440 3008 1165 2924 902 2770 
C 378 2469 166 2071 166 1404 
C 166 1000 262 654 435 410 
C 691 71 1120 -128 1600 -128 
C 1837 -128 2074 -77 2336 37 
C 2509 108 2643 191 2669 230 
z
M 2298 1690 
C 1965 1690 1811 1690 1581 1690 
C 1286 1690 1120 1690 774 1722 
C 774 2027 800 2169 883 2337 
C 1018 2622 1293 2796 1600 2796 
C 1811 2796 1978 2711 2093 2534 
C 2234 2319 2278 2129 2298 1690 
z
" id="URWPalladioL-Roma-65" transform="scale(0.015625)"/>
       <path d="M 262 917 
C 262 475 243 282 192 26 
C 525 -83 774 -128 1069 -128 
C 1907 -128 2502 321 2502 949 
C 2502 1148 2445 1295 2323 1424 
C 2157 1584 1946 1661 1382 1770 
C 858 1873 685 2001 685 2296 
C 685 2616 909 2796 1299 2796 
C 1728 2796 2054 2572 2054 2270 
L 2054 2123 
L 2234 2123 
C 2240 2495 2246 2648 2266 2847 
C 1926 2963 1696 3008 1434 3008 
C 691 3008 237 2655 237 2078 
C 237 1770 378 1552 672 1417 
C 845 1340 1184 1238 1619 1141 
C 1907 1077 2029 943 2029 699 
C 2029 353 1709 109 1254 109 
C 787 109 454 333 454 654 
L 454 917 
z
" id="URWPalladioL-Roma-73" transform="scale(0.015625)"/>
       <path d="M 154 2471 
L 198 2343 
L 403 2477 
C 640 2625 659 2637 704 2637 
C 774 2637 819 2574 819 2478 
C 819 2152 557 919 294 6 
L 339 -64 
C 499 -20 646 18 787 44 
C 909 849 1043 1264 1338 1705 
C 1683 2241 2163 2637 2451 2637 
C 2522 2637 2560 2580 2560 2484 
C 2560 2369 2541 2235 2490 2031 
L 2157 677 
C 2099 440 2074 294 2074 192 
C 2074 31 2144 -64 2266 -64 
C 2432 -64 2662 69 3290 536 
L 3226 651 
L 3059 543 
C 2874 421 2733 351 2669 351 
C 2624 351 2586 408 2586 478 
C 2586 510 2592 581 2598 607 
L 3021 2369 
C 3066 2555 3091 2733 3091 2841 
C 3091 2989 3021 3072 2893 3072 
C 2624 3072 2182 2830 1805 2478 
C 1562 2254 1382 2037 1050 1571 
L 1293 2599 
C 1318 2714 1331 2790 1331 2861 
C 1331 2995 1280 3072 1184 3072 
C 1050 3072 800 2932 333 2599 
z
" id="URWPalladioL-Ital-6e" transform="scale(0.015625)"/>
      </defs>
      <use transform="scale(0.996264)" xlink:href="#URWPalladioL-Roma-53"/>
      <use transform="translate(52.303815 0)scale(0.996264)" xlink:href="#URWPalladioL-Roma-61"/>
      <use transform="translate(102.117015 0)scale(0.996264)" xlink:href="#URWPalladioL-Roma-6d"/>
      <use transform="translate(190.08669 0)scale(0.996264)" xlink:href="#URWPalladioL-Roma-70"/>
      <use transform="translate(249.961083 0)scale(0.996264)" xlink:href="#URWPalladioL-Roma-6c"/>
      <use transform="translate(278.951445 0)scale(0.996264)" xlink:href="#URWPalladioL-Roma-65"/>
      <use transform="translate(326.67174 0)scale(0.996264)" xlink:href="#URWPalladioL-Roma-73"/>
      <use transform="translate(395.065106 0)scale(0.996264)" xlink:href="#URWPalladioL-Ital-6e"/>
     </g>
    </g>
   </g>
   <g id="matplotlib.axis_2">
    <g id="ytick_1">
     <g id="line2d_9">
      <path clip-path="url(#p305df55996)" d="M 40.13462 142.232334 
L 280.998547 142.232334 
" style="fill:none;stroke:#000000;stroke-linecap:square;stroke-opacity:0.2;stroke-width:0.5;"/>
     </g>
     <g id="line2d_10">
      <defs>
       <path d="M 0 0 
L -3.5 0 
" id="mcd9473adcb" style="stroke:#000000;stroke-opacity:0.2;stroke-width:0.8;"/>
      </defs>
      <g>
       <use style="fill-opacity:0.2;stroke:#000000;stroke-opacity:0.2;stroke-width:0.8;" x="40.13462" xlink:href="#mcd9473adcb" y="142.232334"/>
      </g>
     </g>
     <g id="text_6">
      <!-- $\mathdefault{0.0}$ -->
      <g transform="translate(7.2 147.222098)scale(0.14 -0.14)">
       <defs>
        <path d="M 794 744 
C 602 744 429 564 429 372 
C 429 179 602 0 787 0 
C 992 0 1171 173 1171 372 
C 1171 564 992 744 794 744 
z
" id="URWPalladioL-Roma-2e" transform="scale(0.015625)"/>
       </defs>
       <use transform="scale(0.996264)" xlink:href="#URWPalladioL-Roma-30"/>
       <use transform="translate(49.8132 0)scale(0.996264)" xlink:href="#URWPalladioL-Roma-2e"/>
       <use transform="translate(74.719801 0)scale(0.996264)" xlink:href="#URWPalladioL-Roma-30"/>
      </g>
     </g>
    </g>
    <g id="ytick_2">
     <g id="line2d_11">
      <path clip-path="url(#p305df55996)" d="M 40.13462 85.939084 
L 280.998547 85.939084 
" style="fill:none;stroke:#000000;stroke-linecap:square;stroke-opacity:0.2;stroke-width:0.5;"/>
     </g>
     <g id="line2d_12">
      <g>
       <use style="fill-opacity:0.2;stroke:#000000;stroke-opacity:0.2;stroke-width:0.8;" x="40.13462" xlink:href="#mcd9473adcb" y="85.939084"/>
      </g>
     </g>
     <g id="text_7">
      <!-- $\mathdefault{0.5}$ -->
      <g transform="translate(7.2 90.928848)scale(0.14 -0.14)">
       <defs>
        <path d="M 813 3877 
C 1638 3877 1997 3877 2765 3877 
L 2797 3907 
C 2784 4016 2784 4064 2784 4144 
C 2784 4229 2784 4277 2797 4386 
L 2765 4416 
C 2285 4416 1997 4416 1651 4416 
C 1299 4416 1018 4416 538 4416 
L 506 4403 
C 512 4011 518 3729 518 3523 
C 518 2977 499 2360 480 2077 
L 608 2038 
C 909 2341 1082 2432 1395 2432 
C 2010 2432 2394 1993 2394 1296 
C 2394 580 1984 160 1286 160 
C 941 160 621 277 531 444 
L 237 973 
L 83 883 
C 230 516 307 310 397 27 
C 576 -71 832 -128 1107 -128 
C 1536 -128 1990 59 2342 368 
C 2733 716 2938 1154 2938 1630 
C 2938 2359 2419 2874 1690 2874 
C 1382 2874 1152 2791 755 2554 
z
" id="URWPalladioL-Roma-35" transform="scale(0.015625)"/>
       </defs>
       <use transform="scale(0.996264)" xlink:href="#URWPalladioL-Roma-30"/>
       <use transform="translate(49.8132 0)scale(0.996264)" xlink:href="#URWPalladioL-Roma-2e"/>
       <use transform="translate(74.719801 0)scale(0.996264)" xlink:href="#URWPalladioL-Roma-35"/>
      </g>
     </g>
    </g>
    <g id="ytick_3">
     <g id="line2d_13">
      <path clip-path="url(#p305df55996)" d="M 40.13462 29.645834 
L 280.998547 29.645834 
" style="fill:none;stroke:#000000;stroke-linecap:square;stroke-opacity:0.2;stroke-width:0.5;"/>
     </g>
     <g id="line2d_14">
      <g>
       <use style="fill-opacity:0.2;stroke:#000000;stroke-opacity:0.2;stroke-width:0.8;" x="40.13462" xlink:href="#mcd9473adcb" y="29.645834"/>
      </g>
     </g>
     <g id="text_8">
      <!-- $\mathdefault{1.0}$ -->
      <g transform="translate(7.2 34.635599)scale(0.14 -0.14)">
       <defs>
        <path d="M 429 3584 
L 493 3584 
L 1318 3956 
C 1325 3962 1331 3962 1338 3962 
C 1376 3962 1389 3905 1389 3751 
L 1389 613 
C 1389 276 1318 205 973 205 
L 614 205 
L 614 0 
C 1600 0 1600 0 1670 0 
C 1754 0 1894 0 2112 0 
C 2189 0 2413 0 2675 0 
L 2675 205 
L 2342 205 
C 1990 205 1926 276 1926 612 
L 1926 4443 
L 1837 4475 
C 1421 4257 966 4065 384 3860 
z
" id="URWPalladioL-Roma-31" transform="scale(0.015625)"/>
       </defs>
       <use transform="scale(0.996264)" xlink:href="#URWPalladioL-Roma-31"/>
       <use transform="translate(49.8132 0)scale(0.996264)" xlink:href="#URWPalladioL-Roma-2e"/>
       <use transform="translate(74.719801 0)scale(0.996264)" xlink:href="#URWPalladioL-Roma-30"/>
      </g>
     </g>
    </g>
   </g>
   <g id="line2d_15">
    <path clip-path="url(#p305df55996)" d="M 40.13462 142.232334 
L 43.957857 142.232334 
L 43.957857 29.645834 
L 47.781094 29.645834 
L 47.781094 142.232334 
L 51.604331 142.232334 
L 51.604331 142.232334 
L 55.427568 142.232334 
L 55.427568 142.232334 
L 59.250805 142.232334 
L 59.250805 142.232334 
L 63.074042 142.232334 
L 63.074042 142.232334 
L 66.897279 142.232334 
L 66.897279 142.232334 
L 70.720516 142.232334 
L 70.720516 142.232334 
L 74.543753 142.232334 
L 74.543753 142.232334 
L 78.366989 142.232334 
L 78.366989 142.232334 
L 82.190226 142.232334 
L 82.190226 142.232334 
L 86.013463 142.232334 
L 86.013463 142.232334 
L 89.8367 142.232334 
L 89.8367 142.232334 
L 93.659937 142.232334 
L 93.659937 142.232334 
L 97.483174 142.232334 
L 97.483174 142.232334 
L 101.306411 142.232334 
L 101.306411 142.232334 
L 105.129648 142.232334 
L 105.129648 142.232334 
L 108.952885 142.232334 
L 108.952885 142.232334 
L 112.776122 142.232334 
L 112.776122 142.232334 
L 116.599359 142.232334 
L 116.599359 142.232334 
L 120.422596 142.232334 
L 120.422596 142.232334 
L 124.245833 142.232334 
L 124.245833 142.232334 
L 128.069069 142.232334 
L 128.069069 142.232334 
L 131.892306 142.232334 
L 131.892306 142.232334 
L 135.715543 142.232334 
L 135.715543 142.232334 
L 139.53878 142.232334 
L 139.53878 142.232334 
L 143.362017 142.232334 
L 143.362017 142.232334 
L 147.185254 142.232334 
L 147.185254 142.232334 
L 151.008491 142.232334 
L 151.008491 142.232334 
L 154.831728 142.232334 
L 154.831728 142.232334 
L 158.654965 142.232334 
L 158.654965 142.232334 
L 162.478202 142.232334 
L 162.478202 142.232334 
L 166.301439 142.232334 
L 166.301439 142.232334 
L 170.124676 142.232334 
L 170.124676 142.232334 
L 173.947913 142.232334 
L 173.947913 142.232334 
L 177.77115 142.232334 
L 177.77115 142.232334 
L 181.594386 142.232334 
L 181.594386 142.232334 
L 185.417623 142.232334 
L 185.417623 142.232334 
L 189.24086 142.232334 
L 189.24086 142.232334 
L 193.064097 142.232334 
L 193.064097 142.232334 
L 196.887334 142.232334 
L 196.887334 142.232334 
L 200.710571 142.232334 
L 200.710571 142.232334 
L 204.533808 142.232334 
L 204.533808 142.232334 
L 208.357045 142.232334 
L 208.357045 142.232334 
L 212.180282 142.232334 
L 212.180282 142.232334 
L 216.003519 142.232334 
L 216.003519 142.232334 
L 219.826756 142.232334 
L 219.826756 142.232334 
L 223.649993 142.232334 
L 223.649993 142.232334 
L 227.47323 142.232334 
L 227.47323 142.232334 
L 231.296466 142.232334 
L 231.296466 142.232334 
L 235.119703 142.232334 
L 235.119703 142.232334 
L 238.94294 142.232334 
L 238.94294 142.232334 
L 242.766177 142.232334 
L 242.766177 142.232334 
L 246.589414 142.232334 
L 246.589414 142.232334 
L 250.412651 142.232334 
L 250.412651 142.232334 
L 254.235888 142.232334 
L 254.235888 142.232334 
L 258.059125 142.232334 
L 258.059125 142.232334 
L 261.882362 142.232334 
L 261.882362 142.232334 
L 265.705599 142.232334 
L 265.705599 142.232334 
L 269.528836 142.232334 
L 269.528836 142.232334 
L 273.352073 142.232334 
L 273.352073 142.232334 
L 277.17531 142.232334 
L 277.17531 142.232334 
L 280.998547 142.232334 
L 280.998547 142.232334 
" style="fill:none;stroke:#0271ae;stroke-linecap:square;stroke-width:3;"/>
    <defs>
     <path d="M 0 2.5 
C 0.663008 2.5 1.29895 2.236584 1.767767 1.767767 
C 2.236584 1.29895 2.5 0.663008 2.5 0 
C 2.5 -0.663008 2.236584 -1.29895 1.767767 -1.767767 
C 1.29895 -2.236584 0.663008 -2.5 0 -2.5 
C -0.663008 -2.5 -1.29895 -2.236584 -1.767767 -1.767767 
C -2.236584 -1.29895 -2.5 -0.663008 -2.5 0 
C -2.5 0.663008 -2.236584 1.29895 -1.767767 1.767767 
C -1.29895 2.236584 -0.663008 2.5 0 2.5 
z
" id="mfe7cf320bc"/>
    </defs>
    <g clip-path="url(#p305df55996)">
     <use style="fill:#0271ae;" x="40.13462" xlink:href="#mfe7cf320bc" y="142.232334"/>
     <use style="fill:#0271ae;" x="43.957857" xlink:href="#mfe7cf320bc" y="29.645834"/>
     <use style="fill:#0271ae;" x="47.781094" xlink:href="#mfe7cf320bc" y="142.232334"/>
     <use style="fill:#0271ae;" x="51.604331" xlink:href="#mfe7cf320bc" y="142.232334"/>
     <use style="fill:#0271ae;" x="55.427568" xlink:href="#mfe7cf320bc" y="142.232334"/>
     <use style="fill:#0271ae;" x="59.250805" xlink:href="#mfe7cf320bc" y="142.232334"/>
     <use style="fill:#0271ae;" x="63.074042" xlink:href="#mfe7cf320bc" y="142.232334"/>
     <use style="fill:#0271ae;" x="66.897279" xlink:href="#mfe7cf320bc" y="142.232334"/>
     <use style="fill:#0271ae;" x="70.720516" xlink:href="#mfe7cf320bc" y="142.232334"/>
     <use style="fill:#0271ae;" x="74.543753" xlink:href="#mfe7cf320bc" y="142.232334"/>
     <use style="fill:#0271ae;" x="78.366989" xlink:href="#mfe7cf320bc" y="142.232334"/>
     <use style="fill:#0271ae;" x="82.190226" xlink:href="#mfe7cf320bc" y="142.232334"/>
     <use style="fill:#0271ae;" x="86.013463" xlink:href="#mfe7cf320bc" y="142.232334"/>
     <use style="fill:#0271ae;" x="89.8367" xlink:href="#mfe7cf320bc" y="142.232334"/>
     <use style="fill:#0271ae;" x="93.659937" xlink:href="#mfe7cf320bc" y="142.232334"/>
     <use style="fill:#0271ae;" x="97.483174" xlink:href="#mfe7cf320bc" y="142.232334"/>
     <use style="fill:#0271ae;" x="101.306411" xlink:href="#mfe7cf320bc" y="142.232334"/>
     <use style="fill:#0271ae;" x="105.129648" xlink:href="#mfe7cf320bc" y="142.232334"/>
     <use style="fill:#0271ae;" x="108.952885" xlink:href="#mfe7cf320bc" y="142.232334"/>
     <use style="fill:#0271ae;" x="112.776122" xlink:href="#mfe7cf320bc" y="142.232334"/>
     <use style="fill:#0271ae;" x="116.599359" xlink:href="#mfe7cf320bc" y="142.232334"/>
     <use style="fill:#0271ae;" x="120.422596" xlink:href="#mfe7cf320bc" y="142.232334"/>
     <use style="fill:#0271ae;" x="124.245833" xlink:href="#mfe7cf320bc" y="142.232334"/>
     <use style="fill:#0271ae;" x="128.069069" xlink:href="#mfe7cf320bc" y="142.232334"/>
     <use style="fill:#0271ae;" x="131.892306" xlink:href="#mfe7cf320bc" y="142.232334"/>
     <use style="fill:#0271ae;" x="135.715543" xlink:href="#mfe7cf320bc" y="142.232334"/>
     <use style="fill:#0271ae;" x="139.53878" xlink:href="#mfe7cf320bc" y="142.232334"/>
     <use style="fill:#0271ae;" x="143.362017" xlink:href="#mfe7cf320bc" y="142.232334"/>
     <use style="fill:#0271ae;" x="147.185254" xlink:href="#mfe7cf320bc" y="142.232334"/>
     <use style="fill:#0271ae;" x="151.008491" xlink:href="#mfe7cf320bc" y="142.232334"/>
     <use style="fill:#0271ae;" x="154.831728" xlink:href="#mfe7cf320bc" y="142.232334"/>
     <use style="fill:#0271ae;" x="158.654965" xlink:href="#mfe7cf320bc" y="142.232334"/>
     <use style="fill:#0271ae;" x="162.478202" xlink:href="#mfe7cf320bc" y="142.232334"/>
     <use style="fill:#0271ae;" x="166.301439" xlink:href="#mfe7cf320bc" y="142.232334"/>
     <use style="fill:#0271ae;" x="170.124676" xlink:href="#mfe7cf320bc" y="142.232334"/>
     <use style="fill:#0271ae;" x="173.947913" xlink:href="#mfe7cf320bc" y="142.232334"/>
     <use style="fill:#0271ae;" x="177.77115" xlink:href="#mfe7cf320bc" y="142.232334"/>
     <use style="fill:#0271ae;" x="181.594386" xlink:href="#mfe7cf320bc" y="142.232334"/>
     <use style="fill:#0271ae;" x="185.417623" xlink:href="#mfe7cf320bc" y="142.232334"/>
     <use style="fill:#0271ae;" x="189.24086" xlink:href="#mfe7cf320bc" y="142.232334"/>
     <use style="fill:#0271ae;" x="193.064097" xlink:href="#mfe7cf320bc" y="142.232334"/>
     <use style="fill:#0271ae;" x="196.887334" xlink:href="#mfe7cf320bc" y="142.232334"/>
     <use style="fill:#0271ae;" x="200.710571" xlink:href="#mfe7cf320bc" y="142.232334"/>
     <use style="fill:#0271ae;" x="204.533808" xlink:href="#mfe7cf320bc" y="142.232334"/>
     <use style="fill:#0271ae;" x="208.357045" xlink:href="#mfe7cf320bc" y="142.232334"/>
     <use style="fill:#0271ae;" x="212.180282" xlink:href="#mfe7cf320bc" y="142.232334"/>
     <use style="fill:#0271ae;" x="216.003519" xlink:href="#mfe7cf320bc" y="142.232334"/>
     <use style="fill:#0271ae;" x="219.826756" xlink:href="#mfe7cf320bc" y="142.232334"/>
     <use style="fill:#0271ae;" x="223.649993" xlink:href="#mfe7cf320bc" y="142.232334"/>
     <use style="fill:#0271ae;" x="227.47323" xlink:href="#mfe7cf320bc" y="142.232334"/>
     <use style="fill:#0271ae;" x="231.296466" xlink:href="#mfe7cf320bc" y="142.232334"/>
     <use style="fill:#0271ae;" x="235.119703" xlink:href="#mfe7cf320bc" y="142.232334"/>
     <use style="fill:#0271ae;" x="238.94294" xlink:href="#mfe7cf320bc" y="142.232334"/>
     <use style="fill:#0271ae;" x="242.766177" xlink:href="#mfe7cf320bc" y="142.232334"/>
     <use style="fill:#0271ae;" x="246.589414" xlink:href="#mfe7cf320bc" y="142.232334"/>
     <use style="fill:#0271ae;" x="250.412651" xlink:href="#mfe7cf320bc" y="142.232334"/>
     <use style="fill:#0271ae;" x="254.235888" xlink:href="#mfe7cf320bc" y="142.232334"/>
     <use style="fill:#0271ae;" x="258.059125" xlink:href="#mfe7cf320bc" y="142.232334"/>
     <use style="fill:#0271ae;" x="261.882362" xlink:href="#mfe7cf320bc" y="142.232334"/>
     <use style="fill:#0271ae;" x="265.705599" xlink:href="#mfe7cf320bc" y="142.232334"/>
     <use style="fill:#0271ae;" x="269.528836" xlink:href="#mfe7cf320bc" y="142.232334"/>
     <use style="fill:#0271ae;" x="273.352073" xlink:href="#mfe7cf320bc" y="142.232334"/>
     <use style="fill:#0271ae;" x="277.17531" xlink:href="#mfe7cf320bc" y="142.232334"/>
     <use style="fill:#0271ae;" x="280.998547" xlink:href="#mfe7cf320bc" y="142.232334"/>
    </g>
   </g>
   <g id="line2d_16">
    <path clip-path="url(#p305df55996)" d="M 40.13462 142.232334 
L 43.957857 142.232334 
L 43.957857 142.232334 
L 47.781094 142.232334 
L 47.781094 142.232334 
L 51.604331 142.232334 
L 51.604331 29.645834 
L 55.427568 29.645834 
L 55.427568 142.232334 
L 59.250805 142.232334 
L 59.250805 142.232334 
L 63.074042 142.232334 
L 63.074042 142.232334 
L 66.897279 142.232334 
L 66.897279 142.232334 
L 70.720516 142.232334 
L 70.720516 142.232334 
L 74.543753 142.232334 
L 74.543753 142.232334 
L 78.366989 142.232334 
L 78.366989 142.232334 
L 82.190226 142.232334 
L 82.190226 142.232334 
L 86.013463 142.232334 
L 86.013463 142.232334 
L 89.8367 142.232334 
L 89.8367 142.232334 
L 93.659937 142.232334 
L 93.659937 142.232334 
L 97.483174 142.232334 
L 97.483174 142.232334 
L 101.306411 142.232334 
L 101.306411 142.232334 
L 105.129648 142.232334 
L 105.129648 142.232334 
L 108.952885 142.232334 
L 108.952885 142.232334 
L 112.776122 142.232334 
L 112.776122 142.232334 
L 116.599359 142.232334 
L 116.599359 142.232334 
L 120.422596 142.232334 
L 120.422596 142.232334 
L 124.245833 142.232334 
L 124.245833 142.232334 
L 128.069069 142.232334 
L 128.069069 142.232334 
L 131.892306 142.232334 
L 131.892306 142.232334 
L 135.715543 142.232334 
L 135.715543 142.232334 
L 139.53878 142.232334 
L 139.53878 142.232334 
L 143.362017 142.232334 
L 143.362017 142.232334 
L 147.185254 142.232334 
L 147.185254 142.232334 
L 151.008491 142.232334 
L 151.008491 142.232334 
L 154.831728 142.232334 
L 154.831728 142.232334 
L 158.654965 142.232334 
L 158.654965 142.232334 
L 162.478202 142.232334 
L 162.478202 142.232334 
L 166.301439 142.232334 
L 166.301439 142.232334 
L 170.124676 142.232334 
L 170.124676 142.232334 
L 173.947913 142.232334 
L 173.947913 142.232334 
L 177.77115 142.232334 
L 177.77115 142.232334 
L 181.594386 142.232334 
L 181.594386 142.232334 
L 185.417623 142.232334 
L 185.417623 142.232334 
L 189.24086 142.232334 
L 189.24086 142.232334 
L 193.064097 142.232334 
L 193.064097 142.232334 
L 196.887334 142.232334 
L 196.887334 142.232334 
L 200.710571 142.232334 
L 200.710571 142.232334 
L 204.533808 142.232334 
L 204.533808 142.232334 
L 208.357045 142.232334 
L 208.357045 142.232334 
L 212.180282 142.232334 
L 212.180282 142.232334 
L 216.003519 142.232334 
L 216.003519 142.232334 
L 219.826756 142.232334 
L 219.826756 142.232334 
L 223.649993 142.232334 
L 223.649993 142.232334 
L 227.47323 142.232334 
L 227.47323 142.232334 
L 231.296466 142.232334 
L 231.296466 142.232334 
L 235.119703 142.232334 
L 235.119703 142.232334 
L 238.94294 142.232334 
L 238.94294 142.232334 
L 242.766177 142.232334 
L 242.766177 142.232334 
L 246.589414 142.232334 
L 246.589414 142.232334 
L 250.412651 142.232334 
L 250.412651 142.232334 
L 254.235888 142.232334 
L 254.235888 142.232334 
L 258.059125 142.232334 
L 258.059125 142.232334 
L 261.882362 142.232334 
L 261.882362 142.232334 
L 265.705599 142.232334 
L 265.705599 142.232334 
L 269.528836 142.232334 
L 269.528836 142.232334 
L 273.352073 142.232334 
L 273.352073 142.232334 
L 277.17531 142.232334 
L 277.17531 142.232334 
L 280.998547 142.232334 
L 280.998547 142.232334 
" style="fill:none;stroke:#dc2830;stroke-linecap:square;stroke-width:3;"/>
    <defs>
     <path d="M 0 2.5 
C 0.663008 2.5 1.29895 2.236584 1.767767 1.767767 
C 2.236584 1.29895 2.5 0.663008 2.5 0 
C 2.5 -0.663008 2.236584 -1.29895 1.767767 -1.767767 
C 1.29895 -2.236584 0.663008 -2.5 0 -2.5 
C -0.663008 -2.5 -1.29895 -2.236584 -1.767767 -1.767767 
C -2.236584 -1.29895 -2.5 -0.663008 -2.5 0 
C -2.5 0.663008 -2.236584 1.29895 -1.767767 1.767767 
C -1.29895 2.236584 -0.663008 2.5 0 2.5 
z
" id="m33efa72005"/>
    </defs>
    <g clip-path="url(#p305df55996)">
     <use style="fill:#dc2830;" x="40.13462" xlink:href="#m33efa72005" y="142.232334"/>
     <use style="fill:#dc2830;" x="43.957857" xlink:href="#m33efa72005" y="142.232334"/>
     <use style="fill:#dc2830;" x="47.781094" xlink:href="#m33efa72005" y="142.232334"/>
     <use style="fill:#dc2830;" x="51.604331" xlink:href="#m33efa72005" y="29.645834"/>
     <use style="fill:#dc2830;" x="55.427568" xlink:href="#m33efa72005" y="142.232334"/>
     <use style="fill:#dc2830;" x="59.250805" xlink:href="#m33efa72005" y="142.232334"/>
     <use style="fill:#dc2830;" x="63.074042" xlink:href="#m33efa72005" y="142.232334"/>
     <use style="fill:#dc2830;" x="66.897279" xlink:href="#m33efa72005" y="142.232334"/>
     <use style="fill:#dc2830;" x="70.720516" xlink:href="#m33efa72005" y="142.232334"/>
     <use style="fill:#dc2830;" x="74.543753" xlink:href="#m33efa72005" y="142.232334"/>
     <use style="fill:#dc2830;" x="78.366989" xlink:href="#m33efa72005" y="142.232334"/>
     <use style="fill:#dc2830;" x="82.190226" xlink:href="#m33efa72005" y="142.232334"/>
     <use style="fill:#dc2830;" x="86.013463" xlink:href="#m33efa72005" y="142.232334"/>
     <use style="fill:#dc2830;" x="89.8367" xlink:href="#m33efa72005" y="142.232334"/>
     <use style="fill:#dc2830;" x="93.659937" xlink:href="#m33efa72005" y="142.232334"/>
     <use style="fill:#dc2830;" x="97.483174" xlink:href="#m33efa72005" y="142.232334"/>
     <use style="fill:#dc2830;" x="101.306411" xlink:href="#m33efa72005" y="142.232334"/>
     <use style="fill:#dc2830;" x="105.129648" xlink:href="#m33efa72005" y="142.232334"/>
     <use style="fill:#dc2830;" x="108.952885" xlink:href="#m33efa72005" y="142.232334"/>
     <use style="fill:#dc2830;" x="112.776122" xlink:href="#m33efa72005" y="142.232334"/>
     <use style="fill:#dc2830;" x="116.599359" xlink:href="#m33efa72005" y="142.232334"/>
     <use style="fill:#dc2830;" x="120.422596" xlink:href="#m33efa72005" y="142.232334"/>
     <use style="fill:#dc2830;" x="124.245833" xlink:href="#m33efa72005" y="142.232334"/>
     <use style="fill:#dc2830;" x="128.069069" xlink:href="#m33efa72005" y="142.232334"/>
     <use style="fill:#dc2830;" x="131.892306" xlink:href="#m33efa72005" y="142.232334"/>
     <use style="fill:#dc2830;" x="135.715543" xlink:href="#m33efa72005" y="142.232334"/>
     <use style="fill:#dc2830;" x="139.53878" xlink:href="#m33efa72005" y="142.232334"/>
     <use style="fill:#dc2830;" x="143.362017" xlink:href="#m33efa72005" y="142.232334"/>
     <use style="fill:#dc2830;" x="147.185254" xlink:href="#m33efa72005" y="142.232334"/>
     <use style="fill:#dc2830;" x="151.008491" xlink:href="#m33efa72005" y="142.232334"/>
     <use style="fill:#dc2830;" x="154.831728" xlink:href="#m33efa72005" y="142.232334"/>
     <use style="fill:#dc2830;" x="158.654965" xlink:href="#m33efa72005" y="142.232334"/>
     <use style="fill:#dc2830;" x="162.478202" xlink:href="#m33efa72005" y="142.232334"/>
     <use style="fill:#dc2830;" x="166.301439" xlink:href="#m33efa72005" y="142.232334"/>
     <use style="fill:#dc2830;" x="170.124676" xlink:href="#m33efa72005" y="142.232334"/>
     <use style="fill:#dc2830;" x="173.947913" xlink:href="#m33efa72005" y="142.232334"/>
     <use style="fill:#dc2830;" x="177.77115" xlink:href="#m33efa72005" y="142.232334"/>
     <use style="fill:#dc2830;" x="181.594386" xlink:href="#m33efa72005" y="142.232334"/>
     <use style="fill:#dc2830;" x="185.417623" xlink:href="#m33efa72005" y="142.232334"/>
     <use style="fill:#dc2830;" x="189.24086" xlink:href="#m33efa72005" y="142.232334"/>
     <use style="fill:#dc2830;" x="193.064097" xlink:href="#m33efa72005" y="142.232334"/>
     <use style="fill:#dc2830;" x="196.887334" xlink:href="#m33efa72005" y="142.232334"/>
     <use style="fill:#dc2830;" x="200.710571" xlink:href="#m33efa72005" y="142.232334"/>
     <use style="fill:#dc2830;" x="204.533808" xlink:href="#m33efa72005" y="142.232334"/>
     <use style="fill:#dc2830;" x="208.357045" xlink:href="#m33efa72005" y="142.232334"/>
     <use style="fill:#dc2830;" x="212.180282" xlink:href="#m33efa72005" y="142.232334"/>
     <use style="fill:#dc2830;" x="216.003519" xlink:href="#m33efa72005" y="142.232334"/>
     <use style="fill:#dc2830;" x="219.826756" xlink:href="#m33efa72005" y="142.232334"/>
     <use style="fill:#dc2830;" x="223.649993" xlink:href="#m33efa72005" y="142.232334"/>
     <use style="fill:#dc2830;" x="227.47323" xlink:href="#m33efa72005" y="142.232334"/>
     <use style="fill:#dc2830;" x="231.296466" xlink:href="#m33efa72005" y="142.232334"/>
     <use style="fill:#dc2830;" x="235.119703" xlink:href="#m33efa72005" y="142.232334"/>
     <use style="fill:#dc2830;" x="238.94294" xlink:href="#m33efa72005" y="142.232334"/>
     <use style="fill:#dc2830;" x="242.766177" xlink:href="#m33efa72005" y="142.232334"/>
     <use style="fill:#dc2830;" x="246.589414" xlink:href="#m33efa72005" y="142.232334"/>
     <use style="fill:#dc2830;" x="250.412651" xlink:href="#m33efa72005" y="142.232334"/>
     <use style="fill:#dc2830;" x="254.235888" xlink:href="#m33efa72005" y="142.232334"/>
     <use style="fill:#dc2830;" x="258.059125" xlink:href="#m33efa72005" y="142.232334"/>
     <use style="fill:#dc2830;" x="261.882362" xlink:href="#m33efa72005" y="142.232334"/>
     <use style="fill:#dc2830;" x="265.705599" xlink:href="#m33efa72005" y="142.232334"/>
     <use style="fill:#dc2830;" x="269.528836" xlink:href="#m33efa72005" y="142.232334"/>
     <use style="fill:#dc2830;" x="273.352073" xlink:href="#m33efa72005" y="142.232334"/>
     <use style="fill:#dc2830;" x="277.17531" xlink:href="#m33efa72005" y="142.232334"/>
     <use style="fill:#dc2830;" x="280.998547" xlink:href="#m33efa72005" y="142.232334"/>
    </g>
   </g>
   <g id="line2d_17">
    <path clip-path="url(#p305df55996)" d="M 40.13462 142.232334 
L 43.957857 142.232334 
L 43.957857 142.232334 
L 47.781094 142.232334 
L 47.781094 142.232334 
L 51.604331 142.232334 
L 51.604331 142.232334 
L 55.427568 142.232334 
L 55.427568 142.232334 
L 59.250805 142.232334 
L 59.250805 142.232334 
L 63.074042 142.232334 
L 63.074042 142.232334 
L 66.897279 142.232334 
L 66.897279 29.645834 
L 70.720516 29.645834 
L 70.720516 142.232334 
L 74.543753 142.232334 
L 74.543753 142.232334 
L 78.366989 142.232334 
L 78.366989 142.232334 
L 82.190226 142.232334 
L 82.190226 142.232334 
L 86.013463 142.232334 
L 86.013463 142.232334 
L 89.8367 142.232334 
L 89.8367 142.232334 
L 93.659937 142.232334 
L 93.659937 142.232334 
L 97.483174 142.232334 
L 97.483174 142.232334 
L 101.306411 142.232334 
L 101.306411 142.232334 
L 105.129648 142.232334 
L 105.129648 142.232334 
L 108.952885 142.232334 
L 108.952885 142.232334 
L 112.776122 142.232334 
L 112.776122 142.232334 
L 116.599359 142.232334 
L 116.599359 142.232334 
L 120.422596 142.232334 
L 120.422596 142.232334 
L 124.245833 142.232334 
L 124.245833 142.232334 
L 128.069069 142.232334 
L 128.069069 142.232334 
L 131.892306 142.232334 
L 131.892306 142.232334 
L 135.715543 142.232334 
L 135.715543 142.232334 
L 139.53878 142.232334 
L 139.53878 142.232334 
L 143.362017 142.232334 
L 143.362017 142.232334 
L 147.185254 142.232334 
L 147.185254 142.232334 
L 151.008491 142.232334 
L 151.008491 142.232334 
L 154.831728 142.232334 
L 154.831728 142.232334 
L 158.654965 142.232334 
L 158.654965 142.232334 
L 162.478202 142.232334 
L 162.478202 142.232334 
L 166.301439 142.232334 
L 166.301439 142.232334 
L 170.124676 142.232334 
L 170.124676 142.232334 
L 173.947913 142.232334 
L 173.947913 142.232334 
L 177.77115 142.232334 
L 177.77115 142.232334 
L 181.594386 142.232334 
L 181.594386 142.232334 
L 185.417623 142.232334 
L 185.417623 142.232334 
L 189.24086 142.232334 
L 189.24086 142.232334 
L 193.064097 142.232334 
L 193.064097 142.232334 
L 196.887334 142.232334 
L 196.887334 142.232334 
L 200.710571 142.232334 
L 200.710571 142.232334 
L 204.533808 142.232334 
L 204.533808 142.232334 
L 208.357045 142.232334 
L 208.357045 142.232334 
L 212.180282 142.232334 
L 212.180282 142.232334 
L 216.003519 142.232334 
L 216.003519 142.232334 
L 219.826756 142.232334 
L 219.826756 142.232334 
L 223.649993 142.232334 
L 223.649993 142.232334 
L 227.47323 142.232334 
L 227.47323 142.232334 
L 231.296466 142.232334 
L 231.296466 142.232334 
L 235.119703 142.232334 
L 235.119703 142.232334 
L 238.94294 142.232334 
L 238.94294 142.232334 
L 242.766177 142.232334 
L 242.766177 142.232334 
L 246.589414 142.232334 
L 246.589414 142.232334 
L 250.412651 142.232334 
L 250.412651 142.232334 
L 254.235888 142.232334 
L 254.235888 142.232334 
L 258.059125 142.232334 
L 258.059125 142.232334 
L 261.882362 142.232334 
L 261.882362 142.232334 
L 265.705599 142.232334 
L 265.705599 142.232334 
L 269.528836 142.232334 
L 269.528836 142.232334 
L 273.352073 142.232334 
L 273.352073 142.232334 
L 277.17531 142.232334 
L 277.17531 142.232334 
L 280.998547 142.232334 
L 280.998547 142.232334 
" style="fill:none;stroke:#ffc438;stroke-linecap:square;stroke-width:3;"/>
    <defs>
     <path d="M 0 2.5 
C 0.663008 2.5 1.29895 2.236584 1.767767 1.767767 
C 2.236584 1.29895 2.5 0.663008 2.5 0 
C 2.5 -0.663008 2.236584 -1.29895 1.767767 -1.767767 
C 1.29895 -2.236584 0.663008 -2.5 0 -2.5 
C -0.663008 -2.5 -1.29895 -2.236584 -1.767767 -1.767767 
C -2.236584 -1.29895 -2.5 -0.663008 -2.5 0 
C -2.5 0.663008 -2.236584 1.29895 -1.767767 1.767767 
C -1.29895 2.236584 -0.663008 2.5 0 2.5 
z
" id="m0ead3fc63d"/>
    </defs>
    <g clip-path="url(#p305df55996)">
     <use style="fill:#ffc438;" x="40.13462" xlink:href="#m0ead3fc63d" y="142.232334"/>
     <use style="fill:#ffc438;" x="43.957857" xlink:href="#m0ead3fc63d" y="142.232334"/>
     <use style="fill:#ffc438;" x="47.781094" xlink:href="#m0ead3fc63d" y="142.232334"/>
     <use style="fill:#ffc438;" x="51.604331" xlink:href="#m0ead3fc63d" y="142.232334"/>
     <use style="fill:#ffc438;" x="55.427568" xlink:href="#m0ead3fc63d" y="142.232334"/>
     <use style="fill:#ffc438;" x="59.250805" xlink:href="#m0ead3fc63d" y="142.232334"/>
     <use style="fill:#ffc438;" x="63.074042" xlink:href="#m0ead3fc63d" y="142.232334"/>
     <use style="fill:#ffc438;" x="66.897279" xlink:href="#m0ead3fc63d" y="29.645834"/>
     <use style="fill:#ffc438;" x="70.720516" xlink:href="#m0ead3fc63d" y="142.232334"/>
     <use style="fill:#ffc438;" x="74.543753" xlink:href="#m0ead3fc63d" y="142.232334"/>
     <use style="fill:#ffc438;" x="78.366989" xlink:href="#m0ead3fc63d" y="142.232334"/>
     <use style="fill:#ffc438;" x="82.190226" xlink:href="#m0ead3fc63d" y="142.232334"/>
     <use style="fill:#ffc438;" x="86.013463" xlink:href="#m0ead3fc63d" y="142.232334"/>
     <use style="fill:#ffc438;" x="89.8367" xlink:href="#m0ead3fc63d" y="142.232334"/>
     <use style="fill:#ffc438;" x="93.659937" xlink:href="#m0ead3fc63d" y="142.232334"/>
     <use style="fill:#ffc438;" x="97.483174" xlink:href="#m0ead3fc63d" y="142.232334"/>
     <use style="fill:#ffc438;" x="101.306411" xlink:href="#m0ead3fc63d" y="142.232334"/>
     <use style="fill:#ffc438;" x="105.129648" xlink:href="#m0ead3fc63d" y="142.232334"/>
     <use style="fill:#ffc438;" x="108.952885" xlink:href="#m0ead3fc63d" y="142.232334"/>
     <use style="fill:#ffc438;" x="112.776122" xlink:href="#m0ead3fc63d" y="142.232334"/>
     <use style="fill:#ffc438;" x="116.599359" xlink:href="#m0ead3fc63d" y="142.232334"/>
     <use style="fill:#ffc438;" x="120.422596" xlink:href="#m0ead3fc63d" y="142.232334"/>
     <use style="fill:#ffc438;" x="124.245833" xlink:href="#m0ead3fc63d" y="142.232334"/>
     <use style="fill:#ffc438;" x="128.069069" xlink:href="#m0ead3fc63d" y="142.232334"/>
     <use style="fill:#ffc438;" x="131.892306" xlink:href="#m0ead3fc63d" y="142.232334"/>
     <use style="fill:#ffc438;" x="135.715543" xlink:href="#m0ead3fc63d" y="142.232334"/>
     <use style="fill:#ffc438;" x="139.53878" xlink:href="#m0ead3fc63d" y="142.232334"/>
     <use style="fill:#ffc438;" x="143.362017" xlink:href="#m0ead3fc63d" y="142.232334"/>
     <use style="fill:#ffc438;" x="147.185254" xlink:href="#m0ead3fc63d" y="142.232334"/>
     <use style="fill:#ffc438;" x="151.008491" xlink:href="#m0ead3fc63d" y="142.232334"/>
     <use style="fill:#ffc438;" x="154.831728" xlink:href="#m0ead3fc63d" y="142.232334"/>
     <use style="fill:#ffc438;" x="158.654965" xlink:href="#m0ead3fc63d" y="142.232334"/>
     <use style="fill:#ffc438;" x="162.478202" xlink:href="#m0ead3fc63d" y="142.232334"/>
     <use style="fill:#ffc438;" x="166.301439" xlink:href="#m0ead3fc63d" y="142.232334"/>
     <use style="fill:#ffc438;" x="170.124676" xlink:href="#m0ead3fc63d" y="142.232334"/>
     <use style="fill:#ffc438;" x="173.947913" xlink:href="#m0ead3fc63d" y="142.232334"/>
     <use style="fill:#ffc438;" x="177.77115" xlink:href="#m0ead3fc63d" y="142.232334"/>
     <use style="fill:#ffc438;" x="181.594386" xlink:href="#m0ead3fc63d" y="142.232334"/>
     <use style="fill:#ffc438;" x="185.417623" xlink:href="#m0ead3fc63d" y="142.232334"/>
     <use style="fill:#ffc438;" x="189.24086" xlink:href="#m0ead3fc63d" y="142.232334"/>
     <use style="fill:#ffc438;" x="193.064097" xlink:href="#m0ead3fc63d" y="142.232334"/>
     <use style="fill:#ffc438;" x="196.887334" xlink:href="#m0ead3fc63d" y="142.232334"/>
     <use style="fill:#ffc438;" x="200.710571" xlink:href="#m0ead3fc63d" y="142.232334"/>
     <use style="fill:#ffc438;" x="204.533808" xlink:href="#m0ead3fc63d" y="142.232334"/>
     <use style="fill:#ffc438;" x="208.357045" xlink:href="#m0ead3fc63d" y="142.232334"/>
     <use style="fill:#ffc438;" x="212.180282" xlink:href="#m0ead3fc63d" y="142.232334"/>
     <use style="fill:#ffc438;" x="216.003519" xlink:href="#m0ead3fc63d" y="142.232334"/>
     <use style="fill:#ffc438;" x="219.826756" xlink:href="#m0ead3fc63d" y="142.232334"/>
     <use style="fill:#ffc438;" x="223.649993" xlink:href="#m0ead3fc63d" y="142.232334"/>
     <use style="fill:#ffc438;" x="227.47323" xlink:href="#m0ead3fc63d" y="142.232334"/>
     <use style="fill:#ffc438;" x="231.296466" xlink:href="#m0ead3fc63d" y="142.232334"/>
     <use style="fill:#ffc438;" x="235.119703" xlink:href="#m0ead3fc63d" y="142.232334"/>
     <use style="fill:#ffc438;" x="238.94294" xlink:href="#m0ead3fc63d" y="142.232334"/>
     <use style="fill:#ffc438;" x="242.766177" xlink:href="#m0ead3fc63d" y="142.232334"/>
     <use style="fill:#ffc438;" x="246.589414" xlink:href="#m0ead3fc63d" y="142.232334"/>
     <use style="fill:#ffc438;" x="250.412651" xlink:href="#m0ead3fc63d" y="142.232334"/>
     <use style="fill:#ffc438;" x="254.235888" xlink:href="#m0ead3fc63d" y="142.232334"/>
     <use style="fill:#ffc438;" x="258.059125" xlink:href="#m0ead3fc63d" y="142.232334"/>
     <use style="fill:#ffc438;" x="261.882362" xlink:href="#m0ead3fc63d" y="142.232334"/>
     <use style="fill:#ffc438;" x="265.705599" xlink:href="#m0ead3fc63d" y="142.232334"/>
     <use style="fill:#ffc438;" x="269.528836" xlink:href="#m0ead3fc63d" y="142.232334"/>
     <use style="fill:#ffc438;" x="273.352073" xlink:href="#m0ead3fc63d" y="142.232334"/>
     <use style="fill:#ffc438;" x="277.17531" xlink:href="#m0ead3fc63d" y="142.232334"/>
     <use style="fill:#ffc438;" x="280.998547" xlink:href="#m0ead3fc63d" y="142.232334"/>
    </g>
   </g>
   <g id="text_9">
    <!-- Impulse response -->
    <g transform="translate(106.310647 18.016509)scale(0.14 -0.14)">
     <defs>
      <path d="M 1382 3663 
C 1382 4172 1414 4224 1709 4224 
L 2016 4224 
L 2016 4423 
C 1549 4423 1408 4423 1075 4423 
C 755 4423 602 4423 141 4423 
L 141 4224 
L 448 4224 
C 742 4224 774 4172 774 3663 
L 774 766 
C 774 256 742 205 448 205 
L 141 205 
L 141 0 
C 518 0 742 0 1075 0 
C 1408 0 1638 0 2016 0 
L 2016 205 
L 1709 205 
C 1414 205 1382 256 1382 766 
z
" id="URWPalladioL-Roma-49" transform="scale(0.015625)"/>
      <path d="M 3219 3009 
L 3162 3035 
C 2835 2900 2502 2810 2163 2772 
L 2163 2592 
L 2400 2592 
C 2656 2592 2682 2547 2682 2121 
L 2682 1070 
C 2682 928 2592 747 2445 599 
C 2266 418 2061 327 1811 327 
C 1587 327 1408 398 1306 521 
C 1216 624 1171 824 1171 1107 
L 1171 3009 
L 1114 3035 
C 787 2900 454 2810 115 2772 
L 115 2592 
L 352 2592 
C 608 2592 634 2547 634 2122 
L 634 1039 
C 634 587 672 387 787 227 
C 928 33 1171 -64 1536 -64 
C 1824 -64 2080 26 2253 186 
L 2682 585 
C 2682 401 2675 298 2656 0 
C 3085 0 3091 0 3187 0 
C 3277 0 3277 0 3718 0 
L 3718 186 
L 3456 212 
C 3238 212 3219 251 3219 664 
z
" id="URWPalladioL-Roma-75" transform="scale(0.015625)"/>
      <path d="M 147 2565 
L 384 2565 
C 640 2565 666 2520 666 2094 
L 666 643 
C 666 237 646 192 429 192 
L 134 192 
L 134 -7 
C 595 -7 762 -7 922 -7 
C 1050 -7 1050 -7 1837 -7 
L 1837 192 
L 1504 192 
C 1216 192 1203 211 1203 638 
L 1203 1751 
C 1203 2139 1459 2463 1773 2463 
C 1965 2463 2099 2373 2202 2169 
L 2336 2169 
L 2394 2937 
C 2323 2982 2208 3008 2093 3008 
C 1901 3008 1696 2905 1562 2745 
L 1203 2322 
L 1203 2982 
L 1146 3008 
C 819 2873 486 2783 147 2745 
z
" id="URWPalladioL-Roma-72" transform="scale(0.015625)"/>
      <path d="M 1786 3008 
C 851 3008 205 2347 205 1392 
C 205 487 774 -128 1600 -128 
C 2586 -128 3290 558 3290 1520 
C 3290 2386 2662 3008 1786 3008 
z
M 1670 2796 
C 2259 2796 2694 2155 2694 1283 
C 2694 545 2368 83 1850 83 
C 1222 83 800 699 800 1610 
C 800 2379 1107 2796 1670 2796 
z
" id="URWPalladioL-Roma-6f" transform="scale(0.015625)"/>
      <path d="M 2624 -7 
C 3014 -7 3021 -7 3130 -7 
C 3219 -7 3219 -7 3661 -7 
L 3661 179 
L 3398 205 
C 3181 205 3162 244 3162 654 
L 3162 1892 
C 3162 2642 2810 3008 2093 3008 
C 1856 3008 1722 2963 1587 2847 
L 1101 2424 
L 1101 2982 
L 1043 3008 
C 717 2873 384 2783 45 2745 
L 45 2565 
L 282 2565 
C 538 2565 563 2520 563 2094 
L 563 643 
C 563 237 544 192 326 192 
L 38 192 
L 38 -7 
C 474 -7 646 -7 832 -7 
C 1018 -7 1190 -7 1626 -7 
L 1626 192 
L 1338 192 
C 1120 192 1101 237 1101 643 
L 1101 2011 
C 1101 2300 1523 2616 1914 2616 
C 2342 2616 2624 2297 2624 1806 
z
" id="URWPalladioL-Roma-6e" transform="scale(0.015625)"/>
     </defs>
     <use transform="scale(0.996264)" xlink:href="#URWPalladioL-Roma-49"/>
     <use transform="translate(33.574079 0)scale(0.996264)" xlink:href="#URWPalladioL-Roma-6d"/>
     <use transform="translate(121.543753 0)scale(0.996264)" xlink:href="#URWPalladioL-Roma-70"/>
     <use transform="translate(181.418147 0)scale(0.996264)" xlink:href="#URWPalladioL-Roma-75"/>
     <use transform="translate(241.491882 0)scale(0.996264)" xlink:href="#URWPalladioL-Roma-6c"/>
     <use transform="translate(270.482243 0)scale(0.996264)" xlink:href="#URWPalladioL-Roma-73"/>
     <use transform="translate(312.723709 0)scale(0.996264)" xlink:href="#URWPalladioL-Roma-65"/>
     <use transform="translate(385.350605 0)scale(0.996264)" xlink:href="#URWPalladioL-Roma-72"/>
     <use transform="translate(422.909922 0)scale(0.996264)" xlink:href="#URWPalladioL-Roma-65"/>
     <use transform="translate(470.630217 0)scale(0.996264)" xlink:href="#URWPalladioL-Roma-73"/>
     <use transform="translate(512.871684 0)scale(0.996264)" xlink:href="#URWPalladioL-Roma-70"/>
     <use transform="translate(572.746077 0)scale(0.996264)" xlink:href="#URWPalladioL-Roma-6f"/>
     <use transform="translate(627.141658 0)scale(0.996264)" xlink:href="#URWPalladioL-Roma-6e"/>
     <use transform="translate(685.123718 0)scale(0.996264)" xlink:href="#URWPalladioL-Roma-73"/>
     <use transform="translate(727.365185 0)scale(0.996264)" xlink:href="#URWPalladioL-Roma-65"/>
    </g>
   </g>
   <g id="legend_1">
    <g id="patch_3">
     <path d="M 190.982295 99.929464 
L 271.198547 99.929464 
Q 273.998547 99.929464 273.998547 97.129464 
L 273.998547 33.816509 
Q 273.998547 31.016509 271.198547 31.016509 
L 190.982295 31.016509 
Q 188.182295 31.016509 188.182295 33.816509 
L 188.182295 97.129464 
Q 188.182295 99.929464 190.982295 99.929464 
z
" style="fill:#ffffff;opacity:0.95;stroke:#cccccc;stroke-linejoin:miter;stroke-width:0.5;"/>
    </g>
    <g id="line2d_18">
     <path d="M 193.782295 42.354322 
L 207.782295 42.354322 
" style="fill:none;stroke:#0271ae;stroke-linecap:square;stroke-width:3;"/>
    </g>
    <g id="line2d_19">
     <g>
      <use style="fill:#0271ae;" x="200.782295" xlink:href="#mfe7cf320bc" y="42.354322"/>
     </g>
    </g>
    <g id="text_10">
     <!-- delay=1 -->
     <g style="fill:#0271ae;" transform="translate(218.982295 47.254322)scale(0.14 -0.14)">
      <defs>
       <path d="M 2637 2802 
C 2278 2956 2099 3008 1875 3008 
C 1702 3008 1549 2969 1389 2887 
L 826 2593 
C 461 2401 224 1935 224 1392 
C 224 881 397 460 710 204 
C 928 19 1229 -64 1645 -64 
C 1773 -64 1920 -38 1952 -13 
L 2662 583 
L 2630 -7 
C 2944 -7 3046 -7 3123 -7 
C 3174 -7 3264 -7 3398 -7 
C 3443 -7 3571 -7 3706 -7 
L 3706 192 
L 3411 192 
C 3194 192 3174 237 3174 643 
L 3174 4607 
L 3117 4659 
C 2835 4550 2624 4498 2118 4421 
L 2118 4242 
L 2477 4242 
C 2592 4242 2637 4171 2637 3978 
z
M 2637 1424 
C 2637 1009 2624 946 2541 799 
C 2362 499 2048 302 1747 302 
C 1184 302 781 844 781 1603 
C 781 2298 1126 2706 1702 2706 
C 1946 2706 2202 2623 2426 2470 
C 2560 2381 2637 2298 2637 2246 
z
" id="URWPalladioL-Roma-64" transform="scale(0.015625)"/>
       <path d="M 1901 564 
C 1760 808 1690 956 1574 1270 
L 1165 2347 
C 1126 2456 1101 2552 1101 2618 
C 1101 2710 1171 2764 1318 2764 
L 1562 2764 
L 1562 2944 
C 941 2944 941 2944 819 2944 
C 698 2944 698 2944 77 2944 
L 77 2777 
L 192 2764 
C 352 2745 429 2674 525 2451 
L 1222 775 
C 1402 340 1466 186 1581 -134 
L 1434 -524 
C 1229 -1062 979 -1362 736 -1362 
C 634 -1362 518 -1311 410 -1215 
L 326 -1215 
L 173 -1696 
C 294 -1760 397 -1792 518 -1792 
C 947 -1792 1222 -1562 1466 -1005 
L 2765 1990 
C 3021 2572 3142 2745 3302 2764 
L 3482 2777 
L 3482 2944 
C 2976 2944 2976 2944 2874 2944 
C 2771 2944 2771 2944 2266 2944 
L 2266 2777 
L 2432 2764 
C 2611 2751 2701 2694 2701 2604 
C 2701 2559 2688 2501 2662 2437 
z
" id="URWPalladioL-Roma-79" transform="scale(0.015625)"/>
       <path d="M 3552 2496 
L 326 2496 
L 326 2137 
L 3552 2137 
z
M 3552 1255 
L 326 1255 
L 326 896 
L 3552 896 
z
" id="URWPalladioL-Roma-3d" transform="scale(0.015625)"/>
      </defs>
      <use transform="scale(0.996264)" xlink:href="#URWPalladioL-Roma-64"/>
      <use transform="translate(60.871631 0)scale(0.996264)" xlink:href="#URWPalladioL-Roma-65"/>
      <use transform="translate(108.591926 0)scale(0.996264)" xlink:href="#URWPalladioL-Roma-6c"/>
      <use transform="translate(137.582287 0)scale(0.996264)" xlink:href="#URWPalladioL-Roma-61"/>
      <use transform="translate(187.395488 0)scale(0.996264)" xlink:href="#URWPalladioL-Roma-79"/>
      <use transform="translate(242.787165 0)scale(0.996264)" xlink:href="#URWPalladioL-Roma-3d"/>
      <use transform="translate(303.160177 0)scale(0.996264)" xlink:href="#URWPalladioL-Roma-31"/>
     </g>
    </g>
    <g id="line2d_20">
     <path d="M 193.782295 63.925306 
L 207.782295 63.925306 
" style="fill:none;stroke:#dc2830;stroke-linecap:square;stroke-width:3;"/>
    </g>
    <g id="line2d_21">
     <g>
      <use style="fill:#dc2830;" x="200.782295" xlink:href="#m33efa72005" y="63.925306"/>
     </g>
    </g>
    <g id="text_11">
     <!-- delay=4 -->
     <g style="fill:#dc2830;" transform="translate(218.982295 68.825306)scale(0.14 -0.14)">
      <use transform="scale(0.996264)" xlink:href="#URWPalladioL-Roma-64"/>
      <use transform="translate(60.871631 0)scale(0.996264)" xlink:href="#URWPalladioL-Roma-65"/>
      <use transform="translate(108.591926 0)scale(0.996264)" xlink:href="#URWPalladioL-Roma-6c"/>
      <use transform="translate(137.582287 0)scale(0.996264)" xlink:href="#URWPalladioL-Roma-61"/>
      <use transform="translate(187.395488 0)scale(0.996264)" xlink:href="#URWPalladioL-Roma-79"/>
      <use transform="translate(242.787165 0)scale(0.996264)" xlink:href="#URWPalladioL-Roma-3d"/>
      <use transform="translate(303.160177 0)scale(0.996264)" xlink:href="#URWPalladioL-Roma-34"/>
     </g>
    </g>
    <g id="line2d_22">
     <path d="M 193.782295 85.496291 
L 207.782295 85.496291 
" style="fill:none;stroke:#ffc438;stroke-linecap:square;stroke-width:3;"/>
    </g>
    <g id="line2d_23">
     <g>
      <use style="fill:#ffc438;" x="200.782295" xlink:href="#m0ead3fc63d" y="85.496291"/>
     </g>
    </g>
    <g id="text_12">
     <!-- delay=7 -->
     <g style="fill:#ffc438;" transform="translate(218.982295 90.396291)scale(0.14 -0.14)">
      <defs>
       <path d="M 358 32 
L 416 -51 
C 666 -32 666 -32 710 -32 
C 755 -32 755 -32 1005 -51 
C 1274 649 1587 1317 2010 2087 
L 3181 4199 
L 3181 4372 
C 2490 4372 2266 4372 1747 4372 
C 1280 4372 966 4372 346 4372 
L 282 4359 
C 301 3750 301 3750 301 3685 
C 301 3614 301 3614 282 3031 
L 474 3031 
L 518 3390 
C 570 3789 614 3840 909 3840 
L 2618 3840 
C 2362 3313 2163 2941 1920 2549 
z
" id="URWPalladioL-Roma-37" transform="scale(0.015625)"/>
      </defs>
      <use transform="scale(0.996264)" xlink:href="#URWPalladioL-Roma-64"/>
      <use transform="translate(60.871631 0)scale(0.996264)" xlink:href="#URWPalladioL-Roma-65"/>
      <use transform="translate(108.591926 0)scale(0.996264)" xlink:href="#URWPalladioL-Roma-6c"/>
      <use transform="translate(137.582287 0)scale(0.996264)" xlink:href="#URWPalladioL-Roma-61"/>
      <use transform="translate(187.395488 0)scale(0.996264)" xlink:href="#URWPalladioL-Roma-79"/>
      <use transform="translate(242.787165 0)scale(0.996264)" xlink:href="#URWPalladioL-Roma-3d"/>
      <use transform="translate(303.160177 0)scale(0.996264)" xlink:href="#URWPalladioL-Roma-37"/>
     </g>
    </g>
   </g>
  </g>
  <g id="axes_2">
   <g id="patch_4">
    <path d="M 329.361746 147.861659 
L 570.225672 147.861659 
L 570.225672 24.016509 
L 329.361746 24.016509 
z
" style="fill:none;"/>
   </g>
   <g id="patch_5">
    <path clip-path="url(#p474c4e703e)" d="M 451.705327 147.861659 
L 451.705327 24.016509 
L 570.225672 24.016509 
L 570.225672 147.861659 
z
" style="fill:#343837;opacity:0.1;stroke:#343837;stroke-linejoin:miter;stroke-width:0.5;"/>
   </g>
   <g id="matplotlib.axis_3">
    <g id="xtick_5">
     <g id="line2d_24">
      <path clip-path="url(#p474c4e703e)" d="M 329.361746 147.861659 
L 329.361746 24.016509 
" style="fill:none;stroke:#000000;stroke-linecap:square;stroke-opacity:0.2;stroke-width:0.5;"/>
     </g>
     <g id="line2d_25">
      <g>
       <use style="fill-opacity:0.2;stroke:#000000;stroke-opacity:0.2;stroke-width:0.8;" x="329.361746" xlink:href="#md1e5644b8c" y="147.861659"/>
      </g>
     </g>
     <g id="text_13">
      <!-- $\mathdefault{0}$ -->
      <g transform="translate(325.874822 173.341188)scale(0.14 -0.14)">
       <use transform="scale(0.996264)" xlink:href="#URWPalladioL-Roma-30"/>
      </g>
     </g>
    </g>
    <g id="xtick_6">
     <g id="line2d_26">
      <path clip-path="url(#p474c4e703e)" d="M 451.705327 147.861659 
L 451.705327 24.016509 
" style="fill:none;stroke:#000000;stroke-linecap:square;stroke-opacity:0.2;stroke-width:0.5;"/>
     </g>
     <g id="line2d_27">
      <g>
       <use style="fill-opacity:0.2;stroke:#000000;stroke-opacity:0.2;stroke-width:0.8;" x="451.705327" xlink:href="#md1e5644b8c" y="147.861659"/>
      </g>
     </g>
     <g id="text_14">
      <!-- $\mathdefault{32}$ -->
      <g transform="translate(444.731479 173.341188)scale(0.14 -0.14)">
       <defs>
        <path d="M 275 3197 
L 474 3197 
L 589 3554 
C 659 3770 1062 3987 1395 3987 
C 1811 3987 2150 3649 2150 3248 
C 2150 2770 1773 2368 1318 2368 
C 1267 2368 1197 2368 1114 2381 
L 1018 2381 
L 941 2047 
L 986 2008 
C 1229 2118 1350 2150 1523 2150 
C 2054 2150 2362 1809 2362 1222 
C 2362 566 1971 135 1376 135 
C 1082 135 819 231 627 411 
C 474 553 390 701 269 1049 
L 96 985 
C 230 593 282 361 320 39 
C 659 -77 941 -128 1178 -128 
C 1690 -128 2278 161 2630 593 
C 2848 857 2957 1140 2957 1442 
C 2957 1751 2829 2022 2598 2182 
C 2438 2298 2291 2350 1971 2407 
C 2483 2803 2675 3096 2675 3472 
C 2675 4040 2202 4416 1491 4416 
C 1056 4416 768 4295 461 3989 
z
" id="URWPalladioL-Roma-33" transform="scale(0.015625)"/>
       </defs>
       <use transform="scale(0.996264)" xlink:href="#URWPalladioL-Roma-33"/>
       <use transform="translate(49.8132 0)scale(0.996264)" xlink:href="#URWPalladioL-Roma-32"/>
      </g>
     </g>
    </g>
    <g id="xtick_7">
     <g id="line2d_28">
      <path clip-path="url(#p474c4e703e)" d="M 570.225672 147.861659 
L 570.225672 24.016509 
" style="fill:none;stroke:#000000;stroke-linecap:square;stroke-opacity:0.2;stroke-width:0.5;"/>
     </g>
     <g id="line2d_29">
      <g>
       <use style="fill-opacity:0.2;stroke:#000000;stroke-opacity:0.2;stroke-width:0.8;" x="570.225672" xlink:href="#md1e5644b8c" y="147.861659"/>
      </g>
     </g>
     <g id="text_15">
      <!-- $\mathdefault{63}$ -->
      <g transform="translate(563.251824 173.341188)scale(0.14 -0.14)">
       <use transform="scale(0.996264)" xlink:href="#URWPalladioL-Roma-36"/>
       <use transform="translate(49.8132 0)scale(0.996264)" xlink:href="#URWPalladioL-Roma-33"/>
      </g>
     </g>
    </g>
    <g id="text_16">
     <!-- Frequency index $m$ -->
     <g transform="translate(399.549705 189.828236)scale(0.12 -0.12)">
      <defs>
       <path d="M 1382 2100 
C 1562 2112 1754 2112 2042 2112 
C 2515 2112 2688 2094 2803 2040 
L 2854 1890 
L 2886 1536 
L 3078 1536 
C 3059 2132 3059 2132 3059 2247 
C 3059 2350 3059 2350 3078 2991 
L 2886 2991 
L 2854 2642 
C 2848 2581 2829 2521 2803 2467 
C 2688 2414 2509 2394 2086 2394 
C 1818 2394 1600 2394 1382 2394 
L 1382 4117 
C 1574 4160 1690 4160 2067 4160 
C 2374 4160 2733 4124 2931 4076 
C 3085 4039 3104 4008 3104 3868 
L 3104 3465 
L 3328 3465 
C 3328 3843 3360 4146 3430 4423 
C 3117 4423 2925 4423 2650 4423 
L 1965 4423 
C 1651 4423 1427 4423 1267 4423 
C 1082 4423 1082 4423 141 4423 
L 141 4224 
L 448 4224 
C 742 4224 774 4172 774 3663 
L 774 766 
C 774 256 742 205 448 205 
L 141 205 
L 141 0 
C 518 0 742 0 1075 0 
C 1408 0 1638 0 2016 0 
L 2016 205 
L 1709 205 
C 1414 205 1382 256 1382 766 
z
" id="URWPalladioL-Roma-46" transform="scale(0.015625)"/>
       <path d="M 2515 436 
L 2515 -1138 
C 2515 -1547 2490 -1593 2278 -1593 
L 1907 -1593 
L 1907 -1792 
C 2650 -1792 2650 -1792 2797 -1792 
C 2950 -1792 3130 -1792 3584 -1792 
L 3584 -1593 
L 3290 -1593 
C 3072 -1593 3053 -1548 3053 -1143 
L 3053 2036 
C 3053 2435 3091 2680 3200 2924 
L 3078 2995 
L 2765 2796 
C 2438 2943 2163 3008 1888 3008 
C 1702 3008 1478 2956 1382 2899 
L 845 2554 
C 435 2292 224 1871 224 1315 
C 224 479 730 -64 1523 -64 
C 1658 -64 1766 -38 1850 13 
z
M 2515 781 
C 2515 691 2362 525 2189 429 
C 2035 346 1888 302 1734 302 
C 1171 302 781 824 781 1596 
C 781 2298 1139 2706 1754 2706 
C 2067 2706 2291 2630 2515 2445 
z
" id="URWPalladioL-Roma-71" transform="scale(0.015625)"/>
       <path d="M 2554 1994 
C 2554 2289 2586 2552 2643 2783 
C 2387 2937 2163 3008 1901 3008 
C 1594 3008 1235 2886 851 2642 
C 403 2360 166 1911 166 1347 
C 166 481 774 -128 1632 -128 
C 1965 -128 2445 -6 2509 90 
L 2643 295 
L 2579 391 
C 2342 263 2138 205 1907 205 
C 1197 205 730 757 730 1603 
C 730 2289 1050 2674 1626 2674 
C 1907 2674 2214 2546 2330 2386 
L 2374 1994 
z
" id="URWPalladioL-Roma-63" transform="scale(0.015625)"/>
       <path d="M 1203 2993 
L 1146 3019 
C 819 2884 486 2793 147 2755 
L 147 2576 
L 384 2576 
C 640 2576 666 2531 666 2105 
L 666 651 
C 666 244 646 199 429 199 
L 134 199 
L 134 0 
C 774 0 774 0 934 0 
C 1094 0 1094 0 1734 0 
L 1734 199 
L 1440 199 
C 1222 199 1203 244 1203 651 
z
M 909 4416 
C 717 4416 550 4249 550 4056 
C 550 3870 717 3704 902 3704 
C 1088 3704 1261 3870 1261 4056 
C 1261 4236 1088 4416 909 4416 
z
" id="URWPalladioL-Roma-69" transform="scale(0.015625)"/>
       <path d="M 1843 1630 
L 2752 2694 
C 2790 2739 2861 2765 2970 2765 
L 3059 2765 
L 3059 2944 
L 2534 2944 
L 1741 1822 
L 1254 2566 
C 1158 2707 1088 2791 870 3009 
L 128 2880 
L 160 2708 
L 294 2694 
C 410 2694 550 2605 614 2515 
L 1382 1398 
L 429 269 
C 384 212 301 173 237 173 
L 128 173 
L 128 0 
L 678 0 
C 723 71 736 96 813 212 
C 915 391 1018 551 1062 603 
L 1536 1231 
L 2221 208 
L 2227 196 
C 2285 107 2336 44 2387 0 
C 2720 0 2720 0 2778 0 
C 2842 0 2842 0 3174 0 
L 3174 173 
L 3014 192 
C 2938 199 2861 250 2790 346 
z
" id="URWPalladioL-Roma-78" transform="scale(0.015625)"/>
       <path d="M 4672 650 
L 4506 542 
C 4320 421 4179 351 4115 351 
C 4070 351 4032 408 4032 478 
C 4032 542 4045 600 4077 734 
L 4557 2631 
C 4582 2739 4602 2841 4602 2893 
C 4602 3002 4538 3072 4435 3072 
C 4250 3072 4006 2957 3616 2682 
C 3213 2394 2989 2171 2675 1730 
L 2867 2606 
C 2893 2733 2912 2829 2912 2874 
C 2912 2995 2848 3072 2746 3072 
C 2554 3072 2259 2932 1907 2663 
C 1626 2445 1498 2311 1082 1749 
L 1293 2599 
C 1318 2701 1331 2797 1331 2873 
C 1331 2995 1274 3072 1184 3072 
C 1050 3072 806 2938 333 2598 
L 154 2471 
L 198 2343 
L 403 2477 
C 640 2625 659 2637 704 2637 
C 774 2637 819 2574 819 2478 
C 819 2152 557 919 294 6 
L 314 -64 
L 749 31 
L 890 683 
C 1043 1392 1216 1769 1568 2152 
C 1837 2446 2125 2637 2304 2637 
C 2349 2637 2374 2586 2374 2504 
C 2374 2280 2234 1552 1971 434 
L 1869 6 
L 1901 -64 
L 2342 31 
L 2477 715 
C 2579 1232 2797 1711 3078 2025 
C 3430 2414 3750 2637 3955 2637 
C 4006 2637 4038 2580 4038 2478 
C 4038 2324 4019 2235 3878 1679 
C 3776 1277 3667 894 3603 677 
C 3546 497 3520 332 3520 192 
C 3520 31 3590 -64 3712 -64 
C 3878 -64 4109 69 4736 536 
z
" id="URWPalladioL-Ital-6d" transform="scale(0.015625)"/>
      </defs>
      <use transform="scale(0.996264)" xlink:href="#URWPalladioL-Roma-46"/>
      <use transform="translate(55.391677 0)scale(0.996264)" xlink:href="#URWPalladioL-Roma-72"/>
      <use transform="translate(92.950994 0)scale(0.996264)" xlink:href="#URWPalladioL-Roma-65"/>
      <use transform="translate(140.671289 0)scale(0.996264)" xlink:href="#URWPalladioL-Roma-71"/>
      <use transform="translate(196.461922 0)scale(0.996264)" xlink:href="#URWPalladioL-Roma-75"/>
      <use transform="translate(256.535657 0)scale(0.996264)" xlink:href="#URWPalladioL-Roma-65"/>
      <use transform="translate(304.255952 0)scale(0.996264)" xlink:href="#URWPalladioL-Roma-6e"/>
      <use transform="translate(362.238012 0)scale(0.996264)" xlink:href="#URWPalladioL-Roma-63"/>
      <use transform="translate(406.471581 0)scale(0.996264)" xlink:href="#URWPalladioL-Roma-79"/>
      <use transform="translate(486.769858 0)scale(0.996264)" xlink:href="#URWPalladioL-Roma-69"/>
      <use transform="translate(515.76022 0)scale(0.996264)" xlink:href="#URWPalladioL-Roma-6e"/>
      <use transform="translate(573.742281 0)scale(0.996264)" xlink:href="#URWPalladioL-Roma-64"/>
      <use transform="translate(634.613911 0)scale(0.996264)" xlink:href="#URWPalladioL-Roma-65"/>
      <use transform="translate(682.334206 0)scale(0.996264)" xlink:href="#URWPalladioL-Roma-78"/>
      <use transform="translate(759.892453 0)scale(0.996264)" xlink:href="#URWPalladioL-Ital-6d"/>
     </g>
    </g>
   </g>
   <g id="matplotlib.axis_4">
    <g id="ytick_4">
     <g id="line2d_30">
      <path clip-path="url(#p474c4e703e)" d="M 329.361746 144.019421 
L 570.225672 144.019421 
" style="fill:none;stroke:#000000;stroke-linecap:square;stroke-opacity:0.2;stroke-width:0.5;"/>
     </g>
     <g id="line2d_31">
      <g>
       <use style="fill-opacity:0.2;stroke:#000000;stroke-opacity:0.2;stroke-width:0.8;" x="329.361746" xlink:href="#mcd9473adcb" y="144.019421"/>
      </g>
     </g>
     <g id="text_17">
      <!-- $-\pi$ -->
      <g transform="translate(292.759027 149.009186)scale(0.14 -0.14)">
       <defs>
        <path d="M 4218 1472 
C 4326 1472 4442 1472 4442 1600 
C 4442 1728 4326 1728 4218 1728 
L 755 1728 
C 646 1728 531 1728 531 1600 
C 531 1472 646 1472 755 1472 
z
" id="CMSY10-0" transform="scale(0.015625)"/>
        <path d="M 614 2277 
L 672 2322 
C 806 2701 1062 2720 1427 2720 
C 1504 2720 1619 2720 1754 2720 
C 1216 1254 973 810 454 -6 
L 512 -64 
L 986 101 
C 1216 599 1606 1567 1958 2688 
L 3149 2688 
C 3040 2286 2669 1115 2669 701 
C 2669 21 2912 -64 3110 -64 
C 3437 -64 3622 20 4026 360 
L 3974 482 
L 3821 372 
C 3840 385 3654 238 3546 238 
C 3245 238 3155 425 3155 823 
C 3155 984 3168 1157 3206 1344 
C 3315 1878 3424 2405 3482 2669 
C 3629 2669 3776 2669 3923 2688 
C 4038 2688 4179 2754 4282 2793 
C 4352 2930 4378 2943 4499 3099 
L 4454 3176 
C 4282 3118 3994 3054 3782 3054 
C 3706 3067 3546 3067 3386 3067 
C 2701 3067 1645 3067 1363 3067 
C 883 3067 710 2864 525 2328 
z
" id="PazoMath-Italic-70" transform="scale(0.015625)"/>
       </defs>
       <use transform="scale(1.038107)" xlink:href="#CMSY10-0"/>
       <use transform="translate(83.186996 0)scale(0.996264)" xlink:href="#PazoMath-Italic-70"/>
      </g>
     </g>
    </g>
    <g id="ytick_5">
     <g id="line2d_32">
      <path clip-path="url(#p474c4e703e)" d="M 329.361746 86.832627 
L 570.225672 86.832627 
" style="fill:none;stroke:#000000;stroke-linecap:square;stroke-opacity:0.2;stroke-width:0.5;"/>
     </g>
     <g id="line2d_33">
      <g>
       <use style="fill-opacity:0.2;stroke:#000000;stroke-opacity:0.2;stroke-width:0.8;" x="329.361746" xlink:href="#mcd9473adcb" y="86.832627"/>
      </g>
     </g>
     <g id="text_18">
      <!-- 0 -->
      <g transform="translate(306.887898 91.822392)scale(0.14 -0.14)">
       <use transform="scale(0.996264)" xlink:href="#URWPalladioL-Roma-30"/>
      </g>
     </g>
    </g>
    <g id="ytick_6">
     <g id="line2d_34">
      <path clip-path="url(#p474c4e703e)" d="M 329.361746 29.645834 
L 570.225672 29.645834 
" style="fill:none;stroke:#000000;stroke-linecap:square;stroke-opacity:0.2;stroke-width:0.5;"/>
     </g>
     <g id="line2d_35">
      <g>
       <use style="fill-opacity:0.2;stroke:#000000;stroke-opacity:0.2;stroke-width:0.8;" x="329.361746" xlink:href="#mcd9473adcb" y="29.645834"/>
      </g>
     </g>
     <g id="text_19">
      <!-- $\pi$ -->
      <g transform="translate(304.405203 34.635599)scale(0.14 -0.14)">
       <use transform="scale(0.996264)" xlink:href="#PazoMath-Italic-70"/>
      </g>
     </g>
    </g>
   </g>
   <g id="line2d_36">
    <g clip-path="url(#p474c4e703e)">
     <use style="fill:#0271ae;" x="329.361746" xlink:href="#mfe7cf320bc" y="86.832627"/>
     <use style="fill:#0271ae;" x="333.184983" xlink:href="#mfe7cf320bc" y="88.619715"/>
     <use style="fill:#0271ae;" x="337.008219" xlink:href="#mfe7cf320bc" y="90.406802"/>
     <use style="fill:#0271ae;" x="340.831456" xlink:href="#mfe7cf320bc" y="92.193889"/>
     <use style="fill:#0271ae;" x="344.654693" xlink:href="#mfe7cf320bc" y="93.980977"/>
     <use style="fill:#0271ae;" x="348.47793" xlink:href="#mfe7cf320bc" y="95.768064"/>
     <use style="fill:#0271ae;" x="352.301167" xlink:href="#mfe7cf320bc" y="97.555151"/>
     <use style="fill:#0271ae;" x="356.124404" xlink:href="#mfe7cf320bc" y="99.342239"/>
     <use style="fill:#0271ae;" x="359.947641" xlink:href="#mfe7cf320bc" y="101.129326"/>
     <use style="fill:#0271ae;" x="363.770878" xlink:href="#mfe7cf320bc" y="102.916413"/>
     <use style="fill:#0271ae;" x="367.594115" xlink:href="#mfe7cf320bc" y="104.7035"/>
     <use style="fill:#0271ae;" x="371.417352" xlink:href="#mfe7cf320bc" y="106.490588"/>
     <use style="fill:#0271ae;" x="375.240589" xlink:href="#mfe7cf320bc" y="108.277675"/>
     <use style="fill:#0271ae;" x="379.063826" xlink:href="#mfe7cf320bc" y="110.064762"/>
     <use style="fill:#0271ae;" x="382.887063" xlink:href="#mfe7cf320bc" y="111.85185"/>
     <use style="fill:#0271ae;" x="386.710299" xlink:href="#mfe7cf320bc" y="113.638937"/>
     <use style="fill:#0271ae;" x="390.533536" xlink:href="#mfe7cf320bc" y="115.426024"/>
     <use style="fill:#0271ae;" x="394.356773" xlink:href="#mfe7cf320bc" y="117.213111"/>
     <use style="fill:#0271ae;" x="398.18001" xlink:href="#mfe7cf320bc" y="119.000199"/>
     <use style="fill:#0271ae;" x="402.003247" xlink:href="#mfe7cf320bc" y="120.787286"/>
     <use style="fill:#0271ae;" x="405.826484" xlink:href="#mfe7cf320bc" y="122.574373"/>
     <use style="fill:#0271ae;" x="409.649721" xlink:href="#mfe7cf320bc" y="124.361461"/>
     <use style="fill:#0271ae;" x="413.472958" xlink:href="#mfe7cf320bc" y="126.148548"/>
     <use style="fill:#0271ae;" x="417.296195" xlink:href="#mfe7cf320bc" y="127.935635"/>
     <use style="fill:#0271ae;" x="421.119432" xlink:href="#mfe7cf320bc" y="129.722723"/>
     <use style="fill:#0271ae;" x="424.942669" xlink:href="#mfe7cf320bc" y="131.50981"/>
     <use style="fill:#0271ae;" x="428.765906" xlink:href="#mfe7cf320bc" y="133.296897"/>
     <use style="fill:#0271ae;" x="432.589143" xlink:href="#mfe7cf320bc" y="135.083984"/>
     <use style="fill:#0271ae;" x="436.41238" xlink:href="#mfe7cf320bc" y="136.871072"/>
     <use style="fill:#0271ae;" x="440.235616" xlink:href="#mfe7cf320bc" y="138.658159"/>
     <use style="fill:#0271ae;" x="444.058853" xlink:href="#mfe7cf320bc" y="140.445246"/>
     <use style="fill:#0271ae;" x="447.88209" xlink:href="#mfe7cf320bc" y="142.232334"/>
     <use style="fill:#0271ae;" x="451.705327" xlink:href="#mfe7cf320bc" y="29.645834"/>
     <use style="fill:#0271ae;" x="455.528564" xlink:href="#mfe7cf320bc" y="31.432921"/>
     <use style="fill:#0271ae;" x="459.351801" xlink:href="#mfe7cf320bc" y="33.220009"/>
     <use style="fill:#0271ae;" x="463.175038" xlink:href="#mfe7cf320bc" y="35.007096"/>
     <use style="fill:#0271ae;" x="466.998275" xlink:href="#mfe7cf320bc" y="36.794183"/>
     <use style="fill:#0271ae;" x="470.821512" xlink:href="#mfe7cf320bc" y="38.58127"/>
     <use style="fill:#0271ae;" x="474.644749" xlink:href="#mfe7cf320bc" y="40.368358"/>
     <use style="fill:#0271ae;" x="478.467986" xlink:href="#mfe7cf320bc" y="42.155445"/>
     <use style="fill:#0271ae;" x="482.291223" xlink:href="#mfe7cf320bc" y="43.942532"/>
     <use style="fill:#0271ae;" x="486.11446" xlink:href="#mfe7cf320bc" y="45.72962"/>
     <use style="fill:#0271ae;" x="489.937696" xlink:href="#mfe7cf320bc" y="47.516707"/>
     <use style="fill:#0271ae;" x="493.760933" xlink:href="#mfe7cf320bc" y="49.303794"/>
     <use style="fill:#0271ae;" x="497.58417" xlink:href="#mfe7cf320bc" y="51.090882"/>
     <use style="fill:#0271ae;" x="501.407407" xlink:href="#mfe7cf320bc" y="52.877969"/>
     <use style="fill:#0271ae;" x="505.230644" xlink:href="#mfe7cf320bc" y="54.665056"/>
     <use style="fill:#0271ae;" x="509.053881" xlink:href="#mfe7cf320bc" y="56.452143"/>
     <use style="fill:#0271ae;" x="512.877118" xlink:href="#mfe7cf320bc" y="58.239231"/>
     <use style="fill:#0271ae;" x="516.700355" xlink:href="#mfe7cf320bc" y="60.026318"/>
     <use style="fill:#0271ae;" x="520.523592" xlink:href="#mfe7cf320bc" y="61.813405"/>
     <use style="fill:#0271ae;" x="524.346829" xlink:href="#mfe7cf320bc" y="63.600493"/>
     <use style="fill:#0271ae;" x="528.170066" xlink:href="#mfe7cf320bc" y="65.38758"/>
     <use style="fill:#0271ae;" x="531.993303" xlink:href="#mfe7cf320bc" y="67.174667"/>
     <use style="fill:#0271ae;" x="535.81654" xlink:href="#mfe7cf320bc" y="68.961754"/>
     <use style="fill:#0271ae;" x="539.639777" xlink:href="#mfe7cf320bc" y="70.748842"/>
     <use style="fill:#0271ae;" x="543.463013" xlink:href="#mfe7cf320bc" y="72.535929"/>
     <use style="fill:#0271ae;" x="547.28625" xlink:href="#mfe7cf320bc" y="74.323016"/>
     <use style="fill:#0271ae;" x="551.109487" xlink:href="#mfe7cf320bc" y="76.110104"/>
     <use style="fill:#0271ae;" x="554.932724" xlink:href="#mfe7cf320bc" y="77.897191"/>
     <use style="fill:#0271ae;" x="558.755961" xlink:href="#mfe7cf320bc" y="79.684278"/>
     <use style="fill:#0271ae;" x="562.579198" xlink:href="#mfe7cf320bc" y="81.471366"/>
     <use style="fill:#0271ae;" x="566.402435" xlink:href="#mfe7cf320bc" y="83.258453"/>
     <use style="fill:#0271ae;" x="570.225672" xlink:href="#mfe7cf320bc" y="85.04554"/>
    </g>
   </g>
   <g id="line2d_37">
    <g clip-path="url(#p474c4e703e)">
     <use style="fill:#dc2830;" x="329.361746" xlink:href="#m33efa72005" y="86.832627"/>
     <use style="fill:#dc2830;" x="333.184983" xlink:href="#m33efa72005" y="92.193889"/>
     <use style="fill:#dc2830;" x="337.008219" xlink:href="#m33efa72005" y="97.555151"/>
     <use style="fill:#dc2830;" x="340.831456" xlink:href="#m33efa72005" y="102.916413"/>
     <use style="fill:#dc2830;" x="344.654693" xlink:href="#m33efa72005" y="108.277675"/>
     <use style="fill:#dc2830;" x="348.47793" xlink:href="#m33efa72005" y="113.638937"/>
     <use style="fill:#dc2830;" x="352.301167" xlink:href="#m33efa72005" y="119.000199"/>
     <use style="fill:#dc2830;" x="356.124404" xlink:href="#m33efa72005" y="124.361461"/>
     <use style="fill:#dc2830;" x="359.947641" xlink:href="#m33efa72005" y="129.722723"/>
     <use style="fill:#dc2830;" x="363.770878" xlink:href="#m33efa72005" y="135.083984"/>
     <use style="fill:#dc2830;" x="367.594115" xlink:href="#m33efa72005" y="140.445246"/>
     <use style="fill:#dc2830;" x="371.417352" xlink:href="#m33efa72005" y="31.432921"/>
     <use style="fill:#dc2830;" x="375.240589" xlink:href="#m33efa72005" y="36.794183"/>
     <use style="fill:#dc2830;" x="379.063826" xlink:href="#m33efa72005" y="42.155445"/>
     <use style="fill:#dc2830;" x="382.887063" xlink:href="#m33efa72005" y="47.516707"/>
     <use style="fill:#dc2830;" x="386.710299" xlink:href="#m33efa72005" y="52.877969"/>
     <use style="fill:#dc2830;" x="390.533536" xlink:href="#m33efa72005" y="58.239231"/>
     <use style="fill:#dc2830;" x="394.356773" xlink:href="#m33efa72005" y="63.600493"/>
     <use style="fill:#dc2830;" x="398.18001" xlink:href="#m33efa72005" y="68.961754"/>
     <use style="fill:#dc2830;" x="402.003247" xlink:href="#m33efa72005" y="74.323016"/>
     <use style="fill:#dc2830;" x="405.826484" xlink:href="#m33efa72005" y="79.684278"/>
     <use style="fill:#dc2830;" x="409.649721" xlink:href="#m33efa72005" y="85.04554"/>
     <use style="fill:#dc2830;" x="413.472958" xlink:href="#m33efa72005" y="90.406802"/>
     <use style="fill:#dc2830;" x="417.296195" xlink:href="#m33efa72005" y="95.768064"/>
     <use style="fill:#dc2830;" x="421.119432" xlink:href="#m33efa72005" y="101.129326"/>
     <use style="fill:#dc2830;" x="424.942669" xlink:href="#m33efa72005" y="106.490588"/>
     <use style="fill:#dc2830;" x="428.765906" xlink:href="#m33efa72005" y="111.85185"/>
     <use style="fill:#dc2830;" x="432.589143" xlink:href="#m33efa72005" y="117.213111"/>
     <use style="fill:#dc2830;" x="436.41238" xlink:href="#m33efa72005" y="122.574373"/>
     <use style="fill:#dc2830;" x="440.235616" xlink:href="#m33efa72005" y="127.935635"/>
     <use style="fill:#dc2830;" x="444.058853" xlink:href="#m33efa72005" y="133.296897"/>
     <use style="fill:#dc2830;" x="447.88209" xlink:href="#m33efa72005" y="138.658159"/>
     <use style="fill:#dc2830;" x="451.705327" xlink:href="#m33efa72005" y="29.645834"/>
     <use style="fill:#dc2830;" x="455.528564" xlink:href="#m33efa72005" y="35.007096"/>
     <use style="fill:#dc2830;" x="459.351801" xlink:href="#m33efa72005" y="40.368358"/>
     <use style="fill:#dc2830;" x="463.175038" xlink:href="#m33efa72005" y="45.72962"/>
     <use style="fill:#dc2830;" x="466.998275" xlink:href="#m33efa72005" y="51.090882"/>
     <use style="fill:#dc2830;" x="470.821512" xlink:href="#m33efa72005" y="56.452143"/>
     <use style="fill:#dc2830;" x="474.644749" xlink:href="#m33efa72005" y="61.813405"/>
     <use style="fill:#dc2830;" x="478.467986" xlink:href="#m33efa72005" y="67.174667"/>
     <use style="fill:#dc2830;" x="482.291223" xlink:href="#m33efa72005" y="72.535929"/>
     <use style="fill:#dc2830;" x="486.11446" xlink:href="#m33efa72005" y="77.897191"/>
     <use style="fill:#dc2830;" x="489.937696" xlink:href="#m33efa72005" y="83.258453"/>
     <use style="fill:#dc2830;" x="493.760933" xlink:href="#m33efa72005" y="88.619715"/>
     <use style="fill:#dc2830;" x="497.58417" xlink:href="#m33efa72005" y="93.980977"/>
     <use style="fill:#dc2830;" x="501.407407" xlink:href="#m33efa72005" y="99.342239"/>
     <use style="fill:#dc2830;" x="505.230644" xlink:href="#m33efa72005" y="104.7035"/>
     <use style="fill:#dc2830;" x="509.053881" xlink:href="#m33efa72005" y="110.064762"/>
     <use style="fill:#dc2830;" x="512.877118" xlink:href="#m33efa72005" y="115.426024"/>
     <use style="fill:#dc2830;" x="516.700355" xlink:href="#m33efa72005" y="120.787286"/>
     <use style="fill:#dc2830;" x="520.523592" xlink:href="#m33efa72005" y="126.148548"/>
     <use style="fill:#dc2830;" x="524.346829" xlink:href="#m33efa72005" y="131.50981"/>
     <use style="fill:#dc2830;" x="528.170066" xlink:href="#m33efa72005" y="136.871072"/>
     <use style="fill:#dc2830;" x="531.993303" xlink:href="#m33efa72005" y="142.232334"/>
     <use style="fill:#dc2830;" x="535.81654" xlink:href="#m33efa72005" y="33.220009"/>
     <use style="fill:#dc2830;" x="539.639777" xlink:href="#m33efa72005" y="38.58127"/>
     <use style="fill:#dc2830;" x="543.463013" xlink:href="#m33efa72005" y="43.942532"/>
     <use style="fill:#dc2830;" x="547.28625" xlink:href="#m33efa72005" y="49.303794"/>
     <use style="fill:#dc2830;" x="551.109487" xlink:href="#m33efa72005" y="54.665056"/>
     <use style="fill:#dc2830;" x="554.932724" xlink:href="#m33efa72005" y="60.026318"/>
     <use style="fill:#dc2830;" x="558.755961" xlink:href="#m33efa72005" y="65.38758"/>
     <use style="fill:#dc2830;" x="562.579198" xlink:href="#m33efa72005" y="70.748842"/>
     <use style="fill:#dc2830;" x="566.402435" xlink:href="#m33efa72005" y="76.110104"/>
     <use style="fill:#dc2830;" x="570.225672" xlink:href="#m33efa72005" y="81.471366"/>
    </g>
   </g>
   <g id="line2d_38">
    <g clip-path="url(#p474c4e703e)">
     <use style="fill:#ffc438;" x="329.361746" xlink:href="#m0ead3fc63d" y="86.832627"/>
     <use style="fill:#ffc438;" x="333.184983" xlink:href="#m0ead3fc63d" y="99.342239"/>
     <use style="fill:#ffc438;" x="337.008219" xlink:href="#m0ead3fc63d" y="111.85185"/>
     <use style="fill:#ffc438;" x="340.831456" xlink:href="#m0ead3fc63d" y="124.361461"/>
     <use style="fill:#ffc438;" x="344.654693" xlink:href="#m0ead3fc63d" y="136.871072"/>
     <use style="fill:#ffc438;" x="348.47793" xlink:href="#m0ead3fc63d" y="35.007096"/>
     <use style="fill:#ffc438;" x="352.301167" xlink:href="#m0ead3fc63d" y="47.516707"/>
     <use style="fill:#ffc438;" x="356.124404" xlink:href="#m0ead3fc63d" y="60.026318"/>
     <use style="fill:#ffc438;" x="359.947641" xlink:href="#m0ead3fc63d" y="72.535929"/>
     <use style="fill:#ffc438;" x="363.770878" xlink:href="#m0ead3fc63d" y="85.04554"/>
     <use style="fill:#ffc438;" x="367.594115" xlink:href="#m0ead3fc63d" y="97.555151"/>
     <use style="fill:#ffc438;" x="371.417352" xlink:href="#m0ead3fc63d" y="110.064762"/>
     <use style="fill:#ffc438;" x="375.240589" xlink:href="#m0ead3fc63d" y="122.574373"/>
     <use style="fill:#ffc438;" x="379.063826" xlink:href="#m0ead3fc63d" y="135.083984"/>
     <use style="fill:#ffc438;" x="382.887063" xlink:href="#m0ead3fc63d" y="33.220009"/>
     <use style="fill:#ffc438;" x="386.710299" xlink:href="#m0ead3fc63d" y="45.72962"/>
     <use style="fill:#ffc438;" x="390.533536" xlink:href="#m0ead3fc63d" y="58.239231"/>
     <use style="fill:#ffc438;" x="394.356773" xlink:href="#m0ead3fc63d" y="70.748842"/>
     <use style="fill:#ffc438;" x="398.18001" xlink:href="#m0ead3fc63d" y="83.258453"/>
     <use style="fill:#ffc438;" x="402.003247" xlink:href="#m0ead3fc63d" y="95.768064"/>
     <use style="fill:#ffc438;" x="405.826484" xlink:href="#m0ead3fc63d" y="108.277675"/>
     <use style="fill:#ffc438;" x="409.649721" xlink:href="#m0ead3fc63d" y="120.787286"/>
     <use style="fill:#ffc438;" x="413.472958" xlink:href="#m0ead3fc63d" y="133.296897"/>
     <use style="fill:#ffc438;" x="417.296195" xlink:href="#m0ead3fc63d" y="31.432921"/>
     <use style="fill:#ffc438;" x="421.119432" xlink:href="#m0ead3fc63d" y="43.942532"/>
     <use style="fill:#ffc438;" x="424.942669" xlink:href="#m0ead3fc63d" y="56.452143"/>
     <use style="fill:#ffc438;" x="428.765906" xlink:href="#m0ead3fc63d" y="68.961754"/>
     <use style="fill:#ffc438;" x="432.589143" xlink:href="#m0ead3fc63d" y="81.471366"/>
     <use style="fill:#ffc438;" x="436.41238" xlink:href="#m0ead3fc63d" y="93.980977"/>
     <use style="fill:#ffc438;" x="440.235616" xlink:href="#m0ead3fc63d" y="106.490588"/>
     <use style="fill:#ffc438;" x="444.058853" xlink:href="#m0ead3fc63d" y="119.000199"/>
     <use style="fill:#ffc438;" x="447.88209" xlink:href="#m0ead3fc63d" y="131.50981"/>
     <use style="fill:#ffc438;" x="451.705327" xlink:href="#m0ead3fc63d" y="29.645834"/>
     <use style="fill:#ffc438;" x="455.528564" xlink:href="#m0ead3fc63d" y="42.155445"/>
     <use style="fill:#ffc438;" x="459.351801" xlink:href="#m0ead3fc63d" y="54.665056"/>
     <use style="fill:#ffc438;" x="463.175038" xlink:href="#m0ead3fc63d" y="67.174667"/>
     <use style="fill:#ffc438;" x="466.998275" xlink:href="#m0ead3fc63d" y="79.684278"/>
     <use style="fill:#ffc438;" x="470.821512" xlink:href="#m0ead3fc63d" y="92.193889"/>
     <use style="fill:#ffc438;" x="474.644749" xlink:href="#m0ead3fc63d" y="104.7035"/>
     <use style="fill:#ffc438;" x="478.467986" xlink:href="#m0ead3fc63d" y="117.213111"/>
     <use style="fill:#ffc438;" x="482.291223" xlink:href="#m0ead3fc63d" y="129.722723"/>
     <use style="fill:#ffc438;" x="486.11446" xlink:href="#m0ead3fc63d" y="142.232334"/>
     <use style="fill:#ffc438;" x="489.937696" xlink:href="#m0ead3fc63d" y="40.368358"/>
     <use style="fill:#ffc438;" x="493.760933" xlink:href="#m0ead3fc63d" y="52.877969"/>
     <use style="fill:#ffc438;" x="497.58417" xlink:href="#m0ead3fc63d" y="65.38758"/>
     <use style="fill:#ffc438;" x="501.407407" xlink:href="#m0ead3fc63d" y="77.897191"/>
     <use style="fill:#ffc438;" x="505.230644" xlink:href="#m0ead3fc63d" y="90.406802"/>
     <use style="fill:#ffc438;" x="509.053881" xlink:href="#m0ead3fc63d" y="102.916413"/>
     <use style="fill:#ffc438;" x="512.877118" xlink:href="#m0ead3fc63d" y="115.426024"/>
     <use style="fill:#ffc438;" x="516.700355" xlink:href="#m0ead3fc63d" y="127.935635"/>
     <use style="fill:#ffc438;" x="520.523592" xlink:href="#m0ead3fc63d" y="140.445246"/>
     <use style="fill:#ffc438;" x="524.346829" xlink:href="#m0ead3fc63d" y="38.58127"/>
     <use style="fill:#ffc438;" x="528.170066" xlink:href="#m0ead3fc63d" y="51.090882"/>
     <use style="fill:#ffc438;" x="531.993303" xlink:href="#m0ead3fc63d" y="63.600493"/>
     <use style="fill:#ffc438;" x="535.81654" xlink:href="#m0ead3fc63d" y="76.110104"/>
     <use style="fill:#ffc438;" x="539.639777" xlink:href="#m0ead3fc63d" y="88.619715"/>
     <use style="fill:#ffc438;" x="543.463013" xlink:href="#m0ead3fc63d" y="101.129326"/>
     <use style="fill:#ffc438;" x="547.28625" xlink:href="#m0ead3fc63d" y="113.638937"/>
     <use style="fill:#ffc438;" x="551.109487" xlink:href="#m0ead3fc63d" y="126.148548"/>
     <use style="fill:#ffc438;" x="554.932724" xlink:href="#m0ead3fc63d" y="138.658159"/>
     <use style="fill:#ffc438;" x="558.755961" xlink:href="#m0ead3fc63d" y="36.794183"/>
     <use style="fill:#ffc438;" x="562.579198" xlink:href="#m0ead3fc63d" y="49.303794"/>
     <use style="fill:#ffc438;" x="566.402435" xlink:href="#m0ead3fc63d" y="61.813405"/>
     <use style="fill:#ffc438;" x="570.225672" xlink:href="#m0ead3fc63d" y="74.323016"/>
    </g>
   </g>
   <g id="text_20">
    <!-- Phase $\phi[m]$ -->
    <g transform="translate(415.817756 18.016509)scale(0.14 -0.14)">
     <defs>
      <path d="M 1382 4116 
C 1606 4166 1792 4192 2010 4192 
C 2701 4192 3072 3875 3072 3273 
C 3072 2703 2682 2304 2125 2304 
C 1990 2304 1894 2317 1728 2367 
L 1792 2137 
C 1946 2105 2035 2099 2163 2099 
C 3040 2099 3712 2692 3712 3459 
C 3712 4071 3213 4448 2400 4448 
C 2368 4448 2304 4448 2221 4423 
C 1984 4423 1498 4423 1312 4423 
C 1171 4423 1171 4423 147 4423 
L 147 4224 
L 435 4224 
C 723 4224 774 4140 774 3663 
L 774 766 
C 774 256 742 205 448 205 
L 141 205 
L 141 0 
C 518 0 742 0 1075 0 
C 1408 0 1638 0 2016 0 
L 2016 205 
L 1709 205 
C 1414 205 1382 256 1382 764 
z
" id="URWPalladioL-Roma-50" transform="scale(0.015625)"/>
      <path d="M 45 4248 
L 403 4248 
C 518 4248 563 4177 563 3984 
L 563 643 
C 563 237 544 192 326 192 
L 38 192 
L 38 -7 
C 474 -7 646 -7 832 -7 
C 1018 -7 1190 -7 1626 -7 
L 1626 192 
L 1338 192 
C 1120 192 1101 237 1101 643 
L 1101 2011 
C 1101 2300 1523 2616 1914 2616 
C 2342 2616 2624 2297 2624 1806 
L 2624 -7 
C 3014 -7 3021 -7 3130 -7 
C 3219 -7 3219 -7 3661 -7 
L 3661 179 
L 3398 205 
C 3181 205 3162 244 3162 654 
L 3162 1892 
C 3162 2642 2810 3008 2093 3008 
C 1856 3008 1722 2963 1587 2847 
L 1101 2424 
L 1101 4613 
L 1043 4665 
C 762 4556 550 4504 45 4427 
z
" id="URWPalladioL-Roma-68" transform="scale(0.015625)"/>
      <path d="M 2509 4158 
C 2381 4080 2208 4003 2010 3926 
L 1882 3033 
C 1683 2982 1491 2911 1293 2814 
C 531 2442 109 1786 109 984 
C 109 296 512 -64 1261 -64 
C 1299 -64 1338 -64 1376 -57 
C 1306 -436 1197 -970 1082 -1490 
L 1030 -1728 
L 1075 -1767 
C 1210 -1722 1338 -1690 1542 -1657 
L 1805 1 
C 2112 71 2413 193 2662 360 
C 3232 740 3635 1471 3635 2133 
C 3635 2737 3187 3104 2458 3104 
C 2419 3104 2381 3104 2342 3097 
C 2419 3515 2483 3778 2579 4061 
z
M 3149 2037 
C 3149 1414 2790 733 2342 393 
C 2208 296 2035 226 1837 193 
C 1850 277 1869 354 1875 386 
L 1990 1067 
C 2042 1363 2086 1613 2240 2512 
L 2298 2853 
C 2842 2808 3149 2525 3149 2037 
z
M 595 977 
C 595 1697 1043 2481 1536 2751 
C 1613 2790 1722 2822 1850 2841 
L 1414 187 
C 832 251 595 515 595 977 
z
" id="PazoMath-Italic-66" transform="scale(0.015625)"/>
      <path d="M 1632 -1600 
L 1632 -1343 
L 1011 -1343 
L 1011 4544 
L 1632 4544 
L 1632 4801 
L 755 4801 
L 755 -1600 
z
" id="CMR10-5b" transform="scale(0.015625)"/>
      <path d="M 1018 4801 
L 141 4801 
L 141 4544 
L 762 4544 
L 762 -1343 
L 141 -1343 
L 141 -1600 
L 1018 -1600 
z
" id="CMR10-5d" transform="scale(0.015625)"/>
     </defs>
     <use transform="scale(0.996264)" xlink:href="#URWPalladioL-Roma-50"/>
     <use transform="translate(60.173595 0)scale(0.996264)" xlink:href="#URWPalladioL-Roma-68"/>
     <use transform="translate(118.155656 0)scale(0.996264)" xlink:href="#URWPalladioL-Roma-61"/>
     <use transform="translate(167.968856 0)scale(0.996264)" xlink:href="#URWPalladioL-Roma-73"/>
     <use transform="translate(210.210323 0)scale(0.996264)" xlink:href="#URWPalladioL-Roma-65"/>
     <use transform="translate(284.082518 0)scale(0.996264)" xlink:href="#PazoMath-Italic-66"/>
     <use transform="translate(345.252103 0)scale(1.038107)" xlink:href="#CMR10-5b"/>
     <use transform="translate(376.534802 0)scale(0.996264)" xlink:href="#URWPalladioL-Ital-6d"/>
     <use transform="translate(456.534836 0)scale(1.038107)" xlink:href="#CMR10-5d"/>
    </g>
   </g>
  </g>
 </g>
 <defs>
  <clipPath id="p305df55996">
   <rect height="123.84515" width="240.863926" x="40.13462" y="24.016509"/>
  </clipPath>
  <clipPath id="p474c4e703e">
   <rect height="123.84515" width="240.863926" x="329.361746" y="24.016509"/>
  </clipPath>
 </defs>
</svg>
