<?xml version="1.0" encoding="utf-8" standalone="no"?>
<!DOCTYPE svg PUBLIC "-//W3C//DTD SVG 1.1//EN"
  "http://www.w3.org/Graphics/SVG/1.1/DTD/svg11.dtd">
<svg height="392.39952pt" version="1.1" viewBox="0 0 584.39952 392.39952" width="584.39952pt" xmlns="http://www.w3.org/2000/svg" xmlns:xlink="http://www.w3.org/1999/xlink">
 <metadata>
  <rdf:RDF xmlns:cc="http://creativecommons.org/ns#" xmlns:dc="http://purl.org/dc/elements/1.1/" xmlns:rdf="http://www.w3.org/1999/02/22-rdf-syntax-ns#">
   <cc:Work>
    <dc:type rdf:resource="http://purl.org/dc/dcmitype/StillImage"/>
    <dc:date>2020-08-21T10:01:48.788399</dc:date>
    <dc:format>image/svg+xml</dc:format>
    <dc:creator>
     <cc:Agent>
      <dc:title>Matplotlib v3.3.0rc1.post717+g6a40954ae, https://matplotlib.org/</dc:title>
     </cc:Agent>
    </dc:creator>
   </cc:Work>
  </rdf:RDF>
 </metadata>
 <defs>
  <style type="text/css">*{stroke-linecap:butt;stroke-linejoin:round;}</style>
 </defs>
 <g id="figure_1">
  <g id="patch_1">
   <path d="M 0 392.39952 
L 584.39952 392.39952 
L 584.39952 0 
L 0 0 
z
" style="fill:none;"/>
  </g>
  <g id="axes_1">
   <g id="patch_2">
    <path d="M 38.62516 171.98887 
L 170.362238 171.98887 
L 170.362238 24.315726 
L 38.62516 24.315726 
z
" style="fill:none;"/>
   </g>
   <g id="matplotlib.axis_1"/>
   <g id="matplotlib.axis_2">
    <g id="ytick_1">
     <g id="line2d_1">
      <path clip-path="url(#pb05729ecd7)" d="M 38.62516 147.574037 
L 170.362238 147.574037 
" style="fill:none;stroke:#000000;stroke-linecap:square;stroke-opacity:0.2;stroke-width:0.5;"/>
     </g>
     <g id="line2d_2">
      <defs>
       <path d="M 0 0 
L -3.5 0 
" id="m9e5aca952c" style="stroke:#000000;stroke-opacity:0.2;stroke-width:0.8;"/>
      </defs>
      <g>
       <use style="fill-opacity:0.2;stroke:#000000;stroke-opacity:0.2;stroke-width:0.8;" x="38.62516" xlink:href="#m9e5aca952c" y="147.574037"/>
      </g>
     </g>
    </g>
    <g id="text_1">
     <!-- Low-pass -->
     <g transform="translate(15.753876 123.694348)rotate(-90)scale(0.12 -0.12)">
      <defs>
       <path d="M 1382 3665 
C 1382 4172 1414 4224 1709 4224 
L 2016 4224 
L 2016 4423 
C 1549 4423 1408 4423 1075 4423 
C 755 4423 602 4423 141 4423 
L 141 4224 
L 448 4224 
C 742 4224 774 4172 774 3665 
L 774 622 
C 774 436 717 295 614 244 
L 416 141 
L 416 0 
C 838 0 883 0 1050 0 
C 1107 0 1210 0 1350 0 
C 1664 0 2362 0 2541 0 
C 2746 0 2746 0 3616 0 
C 3661 279 3686 485 3750 1113 
L 3546 1113 
L 3469 793 
C 3462 774 3456 729 3450 723 
C 3411 538 3366 410 3328 379 
C 3245 308 2688 263 1926 263 
C 1696 263 1549 276 1382 314 
z
" id="URWPalladioL-Roma-4c" transform="scale(0.015625)"/>
       <path d="M 1786 3008 
C 851 3008 205 2347 205 1392 
C 205 487 774 -128 1600 -128 
C 2586 -128 3290 558 3290 1520 
C 3290 2386 2662 3008 1786 3008 
z
M 1670 2796 
C 2259 2796 2694 2155 2694 1283 
C 2694 545 2368 83 1850 83 
C 1222 83 800 699 800 1610 
C 800 2379 1107 2796 1670 2796 
z
" id="URWPalladioL-Roma-6f" transform="scale(0.015625)"/>
       <path d="M 2643 3008 
C 2118 1788 2022 1571 1626 677 
L 1088 2444 
C 1069 2502 1062 2553 1062 2604 
C 1062 2700 1146 2752 1306 2752 
L 1562 2752 
L 1562 2932 
C 928 2932 928 2932 800 2932 
C 672 2932 672 2932 38 2932 
L 38 2765 
L 218 2752 
C 397 2739 480 2612 640 2114 
L 1293 -32 
L 1594 -32 
L 2221 1437 
C 2253 1514 2323 1667 2426 1884 
L 2554 2152 
L 3424 -32 
L 3718 -32 
C 3763 102 3814 249 3866 389 
C 3994 767 4134 1162 4160 1201 
L 4595 2196 
C 4787 2625 4864 2733 5005 2752 
L 5171 2765 
L 5171 2932 
C 4646 2932 4646 2932 4544 2932 
C 4442 2932 4442 2932 3917 2932 
L 3917 2752 
L 4134 2752 
C 4294 2752 4384 2675 4384 2559 
C 4384 2489 4371 2412 4339 2329 
L 4019 1433 
C 3968 1292 3917 1163 3712 638 
L 2976 2490 
C 2886 2707 2842 2835 2790 3008 
z
" id="URWPalladioL-Roma-77" transform="scale(0.015625)"/>
       <path d="M 1805 1408 
L 1997 1837 
L 1965 1869 
L 282 1869 
L 109 1440 
L 141 1408 
z
" id="URWPalladioL-Roma-2d" transform="scale(0.015625)"/>
       <path d="M 64 2565 
L 301 2565 
C 557 2565 582 2520 582 2095 
L 582 -1142 
C 582 -1548 563 -1593 346 -1593 
L 51 -1593 
L 51 -1792 
C 691 -1792 691 -1792 851 -1792 
C 1011 -1792 1011 -1792 1651 -1792 
L 1651 -1593 
L 1357 -1593 
C 1139 -1593 1120 -1547 1120 -1138 
L 1120 89 
C 1312 -26 1517 -71 1805 -71 
C 1990 -71 2157 -32 2259 32 
L 2989 505 
C 3245 672 3546 1330 3546 1740 
C 3546 2451 2957 3008 2214 3008 
C 1978 3008 1747 2943 1645 2847 
L 1120 2367 
L 1120 2982 
L 1062 3008 
C 736 2873 403 2783 64 2745 
z
M 1120 1964 
C 1120 2053 1152 2124 1235 2233 
C 1421 2469 1683 2591 2003 2591 
C 2605 2591 2989 2169 2989 1504 
C 2989 787 2560 256 1984 256 
C 1632 256 1370 372 1120 633 
z
" id="URWPalladioL-Roma-70" transform="scale(0.015625)"/>
       <path d="M 2074 538 
L 2042 -1 
C 2458 -1 2458 -1 2541 -1 
C 2573 -1 2733 -1 3014 -1 
L 3014 192 
L 2765 192 
C 2611 192 2586 244 2586 558 
L 2586 1731 
C 2586 2668 2317 3008 1574 3008 
C 1299 3008 1043 2937 800 2791 
L 461 2585 
L 461 2171 
L 627 2126 
L 710 2323 
C 845 2623 909 2668 1203 2668 
C 1805 2668 2054 2431 2074 1852 
L 1440 1736 
C 570 1577 205 1277 205 722 
C 205 224 506 -64 1011 -64 
C 1126 -64 1235 -45 1280 -13 
z
M 2074 806 
C 1888 544 1485 302 1235 302 
C 979 302 755 538 755 812 
C 755 1048 883 1271 1075 1392 
C 1235 1488 1587 1577 2074 1648 
z
" id="URWPalladioL-Roma-61" transform="scale(0.015625)"/>
       <path d="M 262 917 
C 262 475 243 282 192 26 
C 525 -83 774 -128 1069 -128 
C 1907 -128 2502 321 2502 949 
C 2502 1148 2445 1295 2323 1424 
C 2157 1584 1946 1661 1382 1770 
C 858 1873 685 2001 685 2296 
C 685 2616 909 2796 1299 2796 
C 1728 2796 2054 2572 2054 2270 
L 2054 2123 
L 2234 2123 
C 2240 2495 2246 2648 2266 2847 
C 1926 2963 1696 3008 1434 3008 
C 691 3008 237 2655 237 2078 
C 237 1770 378 1552 672 1417 
C 845 1340 1184 1238 1619 1141 
C 1907 1077 2029 943 2029 699 
C 2029 353 1709 109 1254 109 
C 787 109 454 333 454 654 
L 454 917 
z
" id="URWPalladioL-Roma-73" transform="scale(0.015625)"/>
      </defs>
      <use transform="scale(0.996264)" xlink:href="#URWPalladioL-Roma-4c"/>
      <use transform="translate(60.871631 0)scale(0.996264)" xlink:href="#URWPalladioL-Roma-6f"/>
      <use transform="translate(115.267211 0)scale(0.996264)" xlink:href="#URWPalladioL-Roma-77"/>
      <use transform="translate(198.355304 0)scale(0.996264)" xlink:href="#URWPalladioL-Roma-2d"/>
      <use transform="translate(231.530534 0)scale(0.996264)" xlink:href="#URWPalladioL-Roma-70"/>
      <use transform="translate(291.404927 0)scale(0.996264)" xlink:href="#URWPalladioL-Roma-61"/>
      <use transform="translate(341.218128 0)scale(0.996264)" xlink:href="#URWPalladioL-Roma-73"/>
      <use transform="translate(383.459594 0)scale(0.996264)" xlink:href="#URWPalladioL-Roma-73"/>
     </g>
    </g>
   </g>
   <g id="line2d_3">
    <path clip-path="url(#pb05729ecd7)" d="M 38.62516 147.574037 
L 43.330055 147.574037 
L 43.330055 147.704598 
L 48.034951 147.704598 
L 48.034951 147.990484 
L 52.739847 147.990484 
L 52.739847 147.545145 
L 57.444742 147.545145 
L 57.444742 145.602075 
L 62.149638 145.602075 
L 62.149638 143.341169 
L 66.854534 143.341169 
L 66.854534 144.079447 
L 71.559429 144.079447 
L 71.559429 150.444406 
L 76.264325 150.444406 
L 76.264325 160.274563 
L 80.969221 160.274563 
L 80.969221 165.276455 
L 85.674116 165.276455 
L 85.674116 155.16223 
L 90.379012 155.16223 
L 90.379012 125.48675 
L 95.083908 125.48675 
L 95.083908 83.406464 
L 99.788803 83.406464 
L 99.788803 46.002728 
L 104.493699 46.002728 
L 104.493699 31.028141 
L 109.198594 31.028141 
L 109.198594 46.002728 
L 113.90349 46.002728 
L 113.90349 83.406464 
L 118.608386 83.406464 
L 118.608386 125.48675 
L 123.313281 125.48675 
L 123.313281 155.16223 
L 128.018177 155.16223 
L 128.018177 165.276455 
L 132.723073 165.276455 
L 132.723073 160.274563 
L 137.427968 160.274563 
L 137.427968 150.444406 
L 142.132864 150.444406 
L 142.132864 144.079447 
L 146.83776 144.079447 
L 146.83776 143.341169 
L 151.542655 143.341169 
L 151.542655 145.602075 
L 156.247551 145.602075 
L 156.247551 147.545145 
L 160.952447 147.545145 
L 160.952447 147.990484 
L 165.657342 147.990484 
L 165.657342 147.704598 
L 170.362238 147.704598 
L 170.362238 147.574037 
" style="fill:none;stroke:#0271ae;stroke-linecap:square;stroke-width:3;"/>
   </g>
   <g id="text_2">
    <!-- Impulse response $h$ -->
    <g transform="translate(44.885336 18.315726)scale(0.14 -0.14)">
     <defs>
      <path d="M 1382 3663 
C 1382 4172 1414 4224 1709 4224 
L 2016 4224 
L 2016 4423 
C 1549 4423 1408 4423 1075 4423 
C 755 4423 602 4423 141 4423 
L 141 4224 
L 448 4224 
C 742 4224 774 4172 774 3663 
L 774 766 
C 774 256 742 205 448 205 
L 141 205 
L 141 0 
C 518 0 742 0 1075 0 
C 1408 0 1638 0 2016 0 
L 2016 205 
L 1709 205 
C 1414 205 1382 256 1382 766 
z
" id="URWPalladioL-Roma-49" transform="scale(0.015625)"/>
      <path d="M 115 2565 
L 352 2565 
C 608 2565 634 2520 634 2094 
L 634 643 
C 634 237 614 192 397 192 
L 102 192 
L 102 -7 
C 717 -7 736 -7 915 -7 
C 1094 -7 1261 -7 1677 -7 
L 1677 179 
L 1408 205 
C 1190 205 1171 250 1171 654 
L 1171 2014 
C 1171 2302 1594 2616 1978 2616 
C 2323 2616 2560 2287 2560 1798 
L 2560 643 
C 2560 237 2541 192 2323 192 
L 2029 192 
L 2029 -7 
C 2669 -7 2669 -7 2829 -7 
C 2989 -7 2989 -7 3629 -7 
L 3629 192 
L 3334 192 
C 3117 192 3098 237 3098 643 
L 3098 2011 
C 3098 2300 3520 2616 3904 2616 
C 4250 2616 4486 2291 4486 1806 
L 4486 -7 
C 4877 -7 4883 -7 4992 -7 
C 5075 -7 5075 -7 5562 -7 
L 5562 192 
L 5261 192 
C 5043 192 5024 237 5024 643 
L 5024 1970 
C 5024 2608 4653 3008 4064 3008 
C 3840 3008 3654 2950 3539 2847 
L 3053 2412 
C 2848 2834 2586 3008 2144 3008 
C 1907 3008 1728 2950 1613 2847 
L 1171 2437 
L 1171 2982 
L 1114 3008 
C 787 2873 454 2783 115 2745 
z
" id="URWPalladioL-Roma-6d" transform="scale(0.015625)"/>
      <path d="M 3219 3009 
L 3162 3035 
C 2835 2900 2502 2810 2163 2772 
L 2163 2592 
L 2400 2592 
C 2656 2592 2682 2547 2682 2121 
L 2682 1070 
C 2682 928 2592 747 2445 599 
C 2266 418 2061 327 1811 327 
C 1587 327 1408 398 1306 521 
C 1216 624 1171 824 1171 1107 
L 1171 3009 
L 1114 3035 
C 787 2900 454 2810 115 2772 
L 115 2592 
L 352 2592 
C 608 2592 634 2547 634 2122 
L 634 1039 
C 634 587 672 387 787 227 
C 928 33 1171 -64 1536 -64 
C 1824 -64 2080 26 2253 186 
L 2682 585 
C 2682 401 2675 298 2656 0 
C 3085 0 3091 0 3187 0 
C 3277 0 3277 0 3718 0 
L 3718 186 
L 3456 212 
C 3238 212 3219 251 3219 664 
z
" id="URWPalladioL-Roma-75" transform="scale(0.015625)"/>
      <path d="M 147 4256 
L 506 4256 
C 621 4256 666 4185 666 3992 
L 666 651 
C 666 244 646 199 429 199 
L 134 199 
L 134 0 
C 774 0 774 0 934 0 
C 1094 0 1094 0 1734 0 
L 1734 199 
L 1440 199 
C 1222 199 1203 244 1203 650 
L 1203 4621 
L 1146 4673 
C 864 4564 653 4512 147 4435 
z
" id="URWPalladioL-Roma-6c" transform="scale(0.015625)"/>
      <path d="M 2797 447 
L 2714 511 
C 2304 269 2157 212 1882 212 
C 1466 212 1120 398 941 711 
C 819 921 774 1101 762 1472 
L 1696 1472 
C 2138 1472 2413 1472 2854 1544 
C 2861 1634 2867 1693 2867 1771 
C 2867 2520 2394 3008 1677 3008 
C 1440 3008 1165 2924 902 2770 
C 378 2469 166 2071 166 1404 
C 166 1000 262 654 435 410 
C 691 71 1120 -128 1600 -128 
C 1837 -128 2074 -77 2336 37 
C 2509 108 2643 191 2669 230 
z
M 2298 1690 
C 1965 1690 1811 1690 1581 1690 
C 1286 1690 1120 1690 774 1722 
C 774 2027 800 2169 883 2337 
C 1018 2622 1293 2796 1600 2796 
C 1811 2796 1978 2711 2093 2534 
C 2234 2319 2278 2129 2298 1690 
z
" id="URWPalladioL-Roma-65" transform="scale(0.015625)"/>
      <path d="M 147 2565 
L 384 2565 
C 640 2565 666 2520 666 2094 
L 666 643 
C 666 237 646 192 429 192 
L 134 192 
L 134 -7 
C 595 -7 762 -7 922 -7 
C 1050 -7 1050 -7 1837 -7 
L 1837 192 
L 1504 192 
C 1216 192 1203 211 1203 638 
L 1203 1751 
C 1203 2139 1459 2463 1773 2463 
C 1965 2463 2099 2373 2202 2169 
L 2336 2169 
L 2394 2937 
C 2323 2982 2208 3008 2093 3008 
C 1901 3008 1696 2905 1562 2745 
L 1203 2322 
L 1203 2982 
L 1146 3008 
C 819 2873 486 2783 147 2745 
z
" id="URWPalladioL-Roma-72" transform="scale(0.015625)"/>
      <path d="M 2624 -7 
C 3014 -7 3021 -7 3130 -7 
C 3219 -7 3219 -7 3661 -7 
L 3661 179 
L 3398 205 
C 3181 205 3162 244 3162 654 
L 3162 1892 
C 3162 2642 2810 3008 2093 3008 
C 1856 3008 1722 2963 1587 2847 
L 1101 2424 
L 1101 2982 
L 1043 3008 
C 717 2873 384 2783 45 2745 
L 45 2565 
L 282 2565 
C 538 2565 563 2520 563 2094 
L 563 643 
C 563 237 544 192 326 192 
L 38 192 
L 38 -7 
C 474 -7 646 -7 832 -7 
C 1018 -7 1190 -7 1626 -7 
L 1626 192 
L 1338 192 
C 1120 192 1101 237 1101 643 
L 1101 2011 
C 1101 2300 1523 2616 1914 2616 
C 2342 2616 2624 2297 2624 1806 
z
" id="URWPalladioL-Roma-6e" transform="scale(0.015625)"/>
      <path d="M 1510 4587 
L 1434 4657 
C 1101 4492 870 4434 410 4390 
L 384 4256 
L 691 4256 
C 845 4256 909 4211 909 4103 
C 909 4052 902 3995 896 3950 
L 627 2462 
C 448 1500 198 406 64 6 
L 109 -64 
L 550 38 
C 653 773 762 1162 947 1500 
C 1229 2018 1894 2637 2163 2637 
C 2246 2637 2304 2580 2304 2497 
C 2304 2382 2259 2139 2208 1928 
L 1882 677 
C 1824 446 1798 306 1798 185 
C 1798 31 1869 -64 1990 -64 
C 2157 -64 2387 69 3014 536 
L 2950 651 
L 2784 543 
C 2598 421 2458 351 2394 351 
C 2349 351 2310 408 2310 478 
C 2310 542 2317 594 2355 734 
L 2765 2369 
C 2803 2535 2835 2733 2835 2841 
C 2835 2983 2765 3072 2650 3072 
C 2432 3072 2042 2861 1638 2523 
C 1414 2337 1306 2222 1011 1845 
L 883 1686 
z
" id="URWPalladioL-Ital-68" transform="scale(0.015625)"/>
     </defs>
     <use transform="scale(0.996264)" xlink:href="#URWPalladioL-Roma-49"/>
     <use transform="translate(33.574079 0)scale(0.996264)" xlink:href="#URWPalladioL-Roma-6d"/>
     <use transform="translate(121.543753 0)scale(0.996264)" xlink:href="#URWPalladioL-Roma-70"/>
     <use transform="translate(181.418147 0)scale(0.996264)" xlink:href="#URWPalladioL-Roma-75"/>
     <use transform="translate(241.491882 0)scale(0.996264)" xlink:href="#URWPalladioL-Roma-6c"/>
     <use transform="translate(270.482243 0)scale(0.996264)" xlink:href="#URWPalladioL-Roma-73"/>
     <use transform="translate(312.723709 0)scale(0.996264)" xlink:href="#URWPalladioL-Roma-65"/>
     <use transform="translate(385.350605 0)scale(0.996264)" xlink:href="#URWPalladioL-Roma-72"/>
     <use transform="translate(422.909922 0)scale(0.996264)" xlink:href="#URWPalladioL-Roma-65"/>
     <use transform="translate(470.630217 0)scale(0.996264)" xlink:href="#URWPalladioL-Roma-73"/>
     <use transform="translate(512.871684 0)scale(0.996264)" xlink:href="#URWPalladioL-Roma-70"/>
     <use transform="translate(572.746077 0)scale(0.996264)" xlink:href="#URWPalladioL-Roma-6f"/>
     <use transform="translate(627.141658 0)scale(0.996264)" xlink:href="#URWPalladioL-Roma-6e"/>
     <use transform="translate(685.123718 0)scale(0.996264)" xlink:href="#URWPalladioL-Roma-73"/>
     <use transform="translate(727.365185 0)scale(0.996264)" xlink:href="#URWPalladioL-Roma-65"/>
     <use transform="translate(801.735527 0)scale(0.996264)" xlink:href="#URWPalladioL-Ital-68"/>
    </g>
   </g>
  </g>
  <g id="axes_2">
   <g id="patch_3">
    <path d="M 228.096105 171.98887 
L 359.833183 171.98887 
L 359.833183 24.315726 
L 228.096105 24.315726 
z
" style="fill:none;"/>
   </g>
   <g id="matplotlib.axis_3">
    <g id="xtick_1">
     <g id="line2d_4">
      <path clip-path="url(#p6d3de7bae5)" d="M 228.096105 171.98887 
L 228.096105 24.315726 
" style="fill:none;stroke:#000000;stroke-linecap:square;stroke-opacity:0.2;stroke-width:0.5;"/>
     </g>
     <g id="line2d_5">
      <defs>
       <path d="M 0 0 
L 0 3.5 
" id="m7e51550fac" style="stroke:#000000;stroke-opacity:0.2;stroke-width:0.8;"/>
      </defs>
      <g>
       <use style="fill-opacity:0.2;stroke:#000000;stroke-opacity:0.2;stroke-width:0.8;" x="228.096105" xlink:href="#m7e51550fac" y="171.98887"/>
      </g>
     </g>
    </g>
    <g id="xtick_2">
     <g id="line2d_6">
      <path clip-path="url(#p6d3de7bae5)" d="M 263.942929 171.98887 
L 263.942929 24.315726 
" style="fill:none;stroke:#000000;stroke-linecap:square;stroke-opacity:0.2;stroke-width:0.5;"/>
     </g>
     <g id="line2d_7">
      <g>
       <use style="fill-opacity:0.2;stroke:#000000;stroke-opacity:0.2;stroke-width:0.8;" x="263.942929" xlink:href="#m7e51550fac" y="171.98887"/>
      </g>
     </g>
    </g>
    <g id="xtick_3">
     <g id="line2d_8">
      <path clip-path="url(#p6d3de7bae5)" d="M 359.833183 171.98887 
L 359.833183 24.315726 
" style="fill:none;stroke:#000000;stroke-linecap:square;stroke-opacity:0.2;stroke-width:0.5;"/>
     </g>
     <g id="line2d_9">
      <g>
       <use style="fill-opacity:0.2;stroke:#000000;stroke-opacity:0.2;stroke-width:0.8;" x="359.833183" xlink:href="#m7e51550fac" y="171.98887"/>
      </g>
     </g>
    </g>
   </g>
   <g id="matplotlib.axis_4">
    <g id="ytick_2">
     <g id="line2d_10">
      <path clip-path="url(#p6d3de7bae5)" d="M 228.096105 30.175048 
L 359.833183 30.175048 
" style="fill:none;stroke:#000000;stroke-linecap:square;stroke-opacity:0.2;stroke-width:0.5;"/>
     </g>
     <g id="line2d_11">
      <g>
       <use style="fill-opacity:0.2;stroke:#000000;stroke-opacity:0.2;stroke-width:0.8;" x="228.096105" xlink:href="#m9e5aca952c" y="30.175048"/>
      </g>
     </g>
     <g id="text_3">
      <!-- $\mathdefault{0}$ -->
      <g transform="translate(205.622257 35.164813)scale(0.14 -0.14)">
       <defs>
        <path d="M 1683 4416 
C 691 4416 186 3628 186 2077 
C 186 1326 320 680 544 366 
C 768 51 1126 -128 1523 -128 
C 2490 -128 2976 705 2976 2346 
C 2976 3749 2560 4416 1683 4416 
z
M 1568 4192 
C 2189 4192 2438 3564 2438 2025 
C 2438 661 2195 96 1606 96 
C 986 96 723 744 723 2308 
C 723 3660 960 4192 1568 4192 
z
" id="URWPalladioL-Roma-30" transform="scale(0.015625)"/>
       </defs>
       <use transform="scale(0.996264)" xlink:href="#URWPalladioL-Roma-30"/>
      </g>
     </g>
    </g>
    <g id="ytick_3">
     <g id="line2d_12">
      <path clip-path="url(#p6d3de7bae5)" d="M 228.096105 53.810685 
L 359.833183 53.810685 
" style="fill:none;stroke:#000000;stroke-linecap:square;stroke-opacity:0.2;stroke-width:0.5;"/>
     </g>
     <g id="line2d_13">
      <g>
       <use style="fill-opacity:0.2;stroke:#000000;stroke-opacity:0.2;stroke-width:0.8;" x="228.096105" xlink:href="#m9e5aca952c" y="53.810685"/>
      </g>
     </g>
     <g id="text_4">
      <!-- $\mathdefault{−20}$ -->
      <g transform="translate(187.176566 58.80045)scale(0.14 -0.14)">
       <defs>
        <path d="M 4218 1472 
C 4326 1472 4442 1472 4442 1600 
C 4442 1728 4326 1728 4218 1728 
L 755 1728 
C 646 1728 531 1728 531 1600 
C 531 1472 646 1472 755 1472 
z
" id="CMSY10-0" transform="scale(0.015625)"/>
        <path d="M 102 160 
L 102 0 
C 1299 0 1299 0 1530 0 
C 1760 0 1760 0 2995 0 
C 2982 125 2982 186 2982 269 
C 2982 348 2982 407 2995 539 
C 2259 539 1965 539 781 539 
L 1946 1761 
C 2566 2414 2758 2763 2758 3238 
C 2758 3966 2259 4416 1446 4416 
C 986 4416 672 4288 358 3969 
L 250 3099 
L 435 3099 
L 518 3393 
C 621 3763 851 3923 1280 3923 
C 1830 3923 2182 3577 2182 3035 
C 2182 2555 1914 2083 1190 1316 
z
" id="URWPalladioL-Roma-32" transform="scale(0.015625)"/>
       </defs>
       <use transform="scale(1.038107)" xlink:href="#CMSY10-0"/>
       <use transform="translate(81.941696 0)scale(0.996264)" xlink:href="#URWPalladioL-Roma-32"/>
       <use transform="translate(131.754897 0)scale(0.996264)" xlink:href="#URWPalladioL-Roma-30"/>
      </g>
     </g>
    </g>
    <g id="ytick_4">
     <g id="line2d_14">
      <path clip-path="url(#p6d3de7bae5)" d="M 228.096105 77.446322 
L 359.833183 77.446322 
" style="fill:none;stroke:#000000;stroke-linecap:square;stroke-opacity:0.2;stroke-width:0.5;"/>
     </g>
     <g id="line2d_15">
      <g>
       <use style="fill-opacity:0.2;stroke:#000000;stroke-opacity:0.2;stroke-width:0.8;" x="228.096105" xlink:href="#m9e5aca952c" y="77.446322"/>
      </g>
     </g>
     <g id="text_5">
      <!-- $\mathdefault{−40}$ -->
      <g transform="translate(187.176566 82.436087)scale(0.14 -0.14)">
       <defs>
        <path d="M 1792 1152 
L 1792 673 
C 1792 289 1722 199 1408 199 
L 1011 199 
L 1011 0 
C 1862 0 1862 0 2016 0 
C 2170 0 2170 0 3021 0 
L 3021 199 
L 2714 199 
C 2400 199 2330 282 2330 669 
L 2330 1152 
C 2707 1152 2842 1152 3021 1133 
L 3021 1588 
C 2720 1563 2598 1563 2502 1563 
L 2483 1563 
L 2330 1563 
L 2330 2457 
C 2330 3600 2342 4152 2374 4416 
L 2298 4448 
L 1824 4275 
L 13 1299 
L 83 1152 
z
M 1792 1563 
L 416 1563 
L 1792 3826 
z
" id="URWPalladioL-Roma-34" transform="scale(0.015625)"/>
       </defs>
       <use transform="scale(1.038107)" xlink:href="#CMSY10-0"/>
       <use transform="translate(81.941696 0)scale(0.996264)" xlink:href="#URWPalladioL-Roma-34"/>
       <use transform="translate(131.754897 0)scale(0.996264)" xlink:href="#URWPalladioL-Roma-30"/>
      </g>
     </g>
    </g>
    <g id="ytick_5">
     <g id="line2d_16">
      <path clip-path="url(#p6d3de7bae5)" d="M 228.096105 124.717596 
L 359.833183 124.717596 
" style="fill:none;stroke:#000000;stroke-linecap:square;stroke-opacity:0.2;stroke-width:0.5;"/>
     </g>
     <g id="line2d_17">
      <g>
       <use style="fill-opacity:0.2;stroke:#000000;stroke-opacity:0.2;stroke-width:0.8;" x="228.096105" xlink:href="#m9e5aca952c" y="124.717596"/>
      </g>
     </g>
     <g id="text_6">
      <!-- $\mathdefault{−80}$ -->
      <g transform="translate(187.176566 129.707361)scale(0.14 -0.14)">
       <defs>
        <path d="M 1075 2211 
C 813 2090 704 2019 563 1884 
C 320 1641 192 1352 192 1019 
C 192 359 723 -128 1446 -128 
C 2278 -128 2970 526 2970 1320 
C 2970 1833 2733 2109 2003 2442 
C 2586 2840 2790 3109 2790 3493 
C 2790 4044 2336 4416 1658 4416 
C 896 4416 339 3929 339 3257 
C 339 2821 512 2577 1075 2211 
z
M 1818 1891 
C 2221 1711 2464 1397 2464 1052 
C 2464 513 2061 90 1542 90 
C 998 90 646 475 646 1071 
C 646 1538 832 1833 1306 2122 
z
M 1427 2712 
C 1024 2910 819 3167 819 3487 
C 819 3910 1126 4198 1581 4198 
C 2048 4198 2355 3891 2355 3422 
C 2355 3058 2195 2808 1779 2538 
z
" id="URWPalladioL-Roma-38" transform="scale(0.015625)"/>
       </defs>
       <use transform="scale(1.038107)" xlink:href="#CMSY10-0"/>
       <use transform="translate(81.941696 0)scale(0.996264)" xlink:href="#URWPalladioL-Roma-38"/>
       <use transform="translate(131.754897 0)scale(0.996264)" xlink:href="#URWPalladioL-Roma-30"/>
      </g>
     </g>
    </g>
    <g id="ytick_6">
     <g id="line2d_18">
      <path clip-path="url(#p6d3de7bae5)" d="M 228.096105 171.98887 
L 359.833183 171.98887 
" style="fill:none;stroke:#000000;stroke-linecap:square;stroke-opacity:0.2;stroke-width:0.5;"/>
     </g>
     <g id="line2d_19">
      <g>
       <use style="fill-opacity:0.2;stroke:#000000;stroke-opacity:0.2;stroke-width:0.8;" x="228.096105" xlink:href="#m9e5aca952c" y="171.98887"/>
      </g>
     </g>
     <g id="text_7">
      <!-- $\mathdefault{−120}$ -->
      <g transform="translate(180.202718 176.978635)scale(0.14 -0.14)">
       <defs>
        <path d="M 429 3584 
L 493 3584 
L 1318 3956 
C 1325 3962 1331 3962 1338 3962 
C 1376 3962 1389 3905 1389 3751 
L 1389 613 
C 1389 276 1318 205 973 205 
L 614 205 
L 614 0 
C 1600 0 1600 0 1670 0 
C 1754 0 1894 0 2112 0 
C 2189 0 2413 0 2675 0 
L 2675 205 
L 2342 205 
C 1990 205 1926 276 1926 612 
L 1926 4443 
L 1837 4475 
C 1421 4257 966 4065 384 3860 
z
" id="URWPalladioL-Roma-31" transform="scale(0.015625)"/>
       </defs>
       <use transform="scale(1.038107)" xlink:href="#CMSY10-0"/>
       <use transform="translate(81.941696 0)scale(0.996264)" xlink:href="#URWPalladioL-Roma-31"/>
       <use transform="translate(131.754897 0)scale(0.996264)" xlink:href="#URWPalladioL-Roma-32"/>
       <use transform="translate(181.568097 0)scale(0.996264)" xlink:href="#URWPalladioL-Roma-30"/>
      </g>
     </g>
    </g>
   </g>
   <g id="line2d_20">
    <defs>
     <path d="M 0 2.5 
C 0.663008 2.5 1.29895 2.236584 1.767767 1.767767 
C 2.236584 1.29895 2.5 0.663008 2.5 0 
C 2.5 -0.663008 2.236584 -1.29895 1.767767 -1.767767 
C 1.29895 -2.236584 0.663008 -2.5 0 -2.5 
C -0.663008 -2.5 -1.29895 -2.236584 -1.767767 -1.767767 
C -2.236584 -1.29895 -2.5 -0.663008 -2.5 0 
C -2.5 0.663008 -2.236584 1.29895 -1.767767 1.767767 
C -1.29895 2.236584 -0.663008 2.5 0 2.5 
z
" id="m1dc925dc0a"/>
    </defs>
    <g clip-path="url(#p6d3de7bae5)">
     <use style="fill:#0271ae;" x="228.096105" xlink:href="#m1dc925dc0a" y="30.175038"/>
     <use style="fill:#0271ae;" x="237.18142" xlink:href="#m1dc925dc0a" y="30.206954"/>
     <use style="fill:#0271ae;" x="246.266736" xlink:href="#m1dc925dc0a" y="30.128521"/>
     <use style="fill:#0271ae;" x="255.352052" xlink:href="#m1dc925dc0a" y="31.449474"/>
     <use style="fill:#0271ae;" x="264.437368" xlink:href="#m1dc925dc0a" y="37.855591"/>
     <use style="fill:#0271ae;" x="273.522683" xlink:href="#m1dc925dc0a" y="55.144213"/>
     <use style="fill:#0271ae;" x="282.607999" xlink:href="#m1dc925dc0a" y="82.152679"/>
     <use style="fill:#0271ae;" x="291.693315" xlink:href="#m1dc925dc0a" y="94.91045"/>
     <use style="fill:#0271ae;" x="300.778631" xlink:href="#m1dc925dc0a" y="104.003509"/>
     <use style="fill:#0271ae;" x="309.863946" xlink:href="#m1dc925dc0a" y="111.225001"/>
     <use style="fill:#0271ae;" x="318.949262" xlink:href="#m1dc925dc0a" y="117.370428"/>
     <use style="fill:#0271ae;" x="328.034578" xlink:href="#m1dc925dc0a" y="122.956641"/>
     <use style="fill:#0271ae;" x="337.119893" xlink:href="#m1dc925dc0a" y="128.514731"/>
     <use style="fill:#0271ae;" x="346.205209" xlink:href="#m1dc925dc0a" y="135.021643"/>
     <use style="fill:#0271ae;" x="355.290525" xlink:href="#m1dc925dc0a" y="146.384424"/>
    </g>
   </g>
   <g id="text_8">
    <!-- $|H[m]|$ [dB] -->
    <g transform="translate(258.729352 18.315726)scale(0.14 -0.14)">
     <defs>
      <path d="M 1018 4570 
C 1018 4685 1018 4800 890 4800 
C 762 4800 762 4685 762 4570 
L 762 -1370 
C 762 -1485 762 -1600 890 -1600 
C 1018 -1600 1018 -1485 1018 -1370 
z
" id="CMSY10-6a" transform="scale(0.015625)"/>
      <path d="M 1414 2457 
L 1683 3912 
C 1728 4161 1773 4199 2010 4219 
L 2278 4238 
L 2298 4416 
L 2144 4416 
L 1568 4416 
C 1466 4416 1350 4416 1075 4416 
L 666 4416 
L 646 4238 
L 947 4238 
C 1101 4238 1171 4187 1171 4072 
C 1171 3983 1146 3784 1114 3587 
L 640 817 
C 531 229 525 223 269 197 
L 6 178 
L -19 0 
L 250 0 
C 557 0 704 0 826 0 
L 1446 0 
L 1613 0 
L 1632 179 
L 1318 179 
C 1146 192 1088 237 1088 372 
C 1088 429 1094 474 1114 596 
L 1382 2176 
L 1773 2176 
C 2170 2176 2438 2176 2560 2176 
C 2682 2176 2944 2176 3347 2176 
L 3738 2176 
L 3482 800 
C 3424 486 3379 308 3347 269 
C 3322 218 3251 192 3110 179 
L 2790 179 
L 2765 0 
L 3123 0 
C 3405 0 3597 0 3667 0 
C 3770 0 3968 0 4243 0 
L 4512 0 
L 4531 179 
L 4160 179 
C 3994 179 3930 230 3930 365 
C 3930 422 3936 479 3955 588 
L 4544 3912 
C 4589 4160 4627 4192 4870 4218 
L 5101 4237 
L 5120 4416 
L 5018 4416 
L 4435 4416 
C 4339 4416 4205 4416 3923 4416 
L 3520 4416 
L 3501 4238 
L 3808 4238 
C 3962 4238 4032 4186 4032 4070 
C 4032 3980 4006 3773 3974 3580 
L 3782 2457 
z
" id="URWPalladioL-Ital-48" transform="scale(0.015625)"/>
      <path d="M 1632 -1600 
L 1632 -1343 
L 1011 -1343 
L 1011 4544 
L 1632 4544 
L 1632 4801 
L 755 4801 
L 755 -1600 
z
" id="CMR10-5b" transform="scale(0.015625)"/>
      <path d="M 4672 650 
L 4506 542 
C 4320 421 4179 351 4115 351 
C 4070 351 4032 408 4032 478 
C 4032 542 4045 600 4077 734 
L 4557 2631 
C 4582 2739 4602 2841 4602 2893 
C 4602 3002 4538 3072 4435 3072 
C 4250 3072 4006 2957 3616 2682 
C 3213 2394 2989 2171 2675 1730 
L 2867 2606 
C 2893 2733 2912 2829 2912 2874 
C 2912 2995 2848 3072 2746 3072 
C 2554 3072 2259 2932 1907 2663 
C 1626 2445 1498 2311 1082 1749 
L 1293 2599 
C 1318 2701 1331 2797 1331 2873 
C 1331 2995 1274 3072 1184 3072 
C 1050 3072 806 2938 333 2598 
L 154 2471 
L 198 2343 
L 403 2477 
C 640 2625 659 2637 704 2637 
C 774 2637 819 2574 819 2478 
C 819 2152 557 919 294 6 
L 314 -64 
L 749 31 
L 890 683 
C 1043 1392 1216 1769 1568 2152 
C 1837 2446 2125 2637 2304 2637 
C 2349 2637 2374 2586 2374 2504 
C 2374 2280 2234 1552 1971 434 
L 1869 6 
L 1901 -64 
L 2342 31 
L 2477 715 
C 2579 1232 2797 1711 3078 2025 
C 3430 2414 3750 2637 3955 2637 
C 4006 2637 4038 2580 4038 2478 
C 4038 2324 4019 2235 3878 1679 
C 3776 1277 3667 894 3603 677 
C 3546 497 3520 332 3520 192 
C 3520 31 3590 -64 3712 -64 
C 3878 -64 4109 69 4736 536 
z
" id="URWPalladioL-Ital-6d" transform="scale(0.015625)"/>
      <path d="M 1018 4801 
L 141 4801 
L 141 4544 
L 762 4544 
L 762 -1343 
L 141 -1343 
L 141 -1600 
L 1018 -1600 
z
" id="CMR10-5d" transform="scale(0.015625)"/>
      <path d="M 563 -1152 
C 1018 -1152 1030 -1152 1184 -1152 
C 1338 -1152 1370 -1152 1805 -1152 
L 1843 -1120 
L 1843 -953 
L 1818 -921 
L 1574 -921 
C 1402 -921 1261 -882 1184 -818 
C 1126 -760 1107 -671 1107 -459 
C 1107 -453 1107 -318 1101 -125 
L 1101 112 
L 1101 3409 
L 1101 3646 
C 1107 3826 1107 3967 1107 3973 
C 1107 4185 1126 4281 1184 4339 
C 1261 4403 1402 4441 1574 4441 
L 1818 4441 
L 1843 4473 
L 1843 4640 
L 1805 4672 
C 1357 4672 1338 4672 1184 4672 
C 1037 4672 1005 4672 563 4672 
L 506 4595 
C 544 4435 557 4223 557 3730 
C 557 3633 557 3556 563 3492 
L 563 3409 
L 563 112 
L 563 28 
C 557 -74 557 -81 557 -190 
L 557 -260 
C 557 -696 544 -876 506 -1075 
z
" id="URWPalladioL-Roma-5b" transform="scale(0.015625)"/>
      <path d="M 2637 2802 
C 2278 2956 2099 3008 1875 3008 
C 1702 3008 1549 2969 1389 2887 
L 826 2593 
C 461 2401 224 1935 224 1392 
C 224 881 397 460 710 204 
C 928 19 1229 -64 1645 -64 
C 1773 -64 1920 -38 1952 -13 
L 2662 583 
L 2630 -7 
C 2944 -7 3046 -7 3123 -7 
C 3174 -7 3264 -7 3398 -7 
C 3443 -7 3571 -7 3706 -7 
L 3706 192 
L 3411 192 
C 3194 192 3174 237 3174 643 
L 3174 4607 
L 3117 4659 
C 2835 4550 2624 4498 2118 4421 
L 2118 4242 
L 2477 4242 
C 2592 4242 2637 4171 2637 3978 
z
M 2637 1424 
C 2637 1009 2624 946 2541 799 
C 2362 499 2048 302 1747 302 
C 1184 302 781 844 781 1603 
C 781 2298 1126 2706 1702 2706 
C 1946 2706 2202 2623 2426 2470 
C 2560 2381 2637 2298 2637 2246 
z
" id="URWPalladioL-Roma-64" transform="scale(0.015625)"/>
      <path d="M 2163 4416 
C 1274 4416 1274 4416 1178 4416 
C 1056 4416 1056 4416 166 4416 
L 166 4236 
L 397 4217 
C 698 4191 723 4146 723 3643 
L 723 619 
C 723 384 672 243 582 205 
L 416 141 
L 416 0 
C 858 0 992 0 1114 0 
C 1184 0 1254 0 1331 0 
C 1843 0 1843 0 1907 0 
C 2374 0 2797 114 3085 324 
C 3462 590 3686 1022 3686 1467 
C 3686 1791 3558 2051 3315 2223 
C 3072 2401 2854 2458 2362 2496 
C 2675 2559 2822 2617 3002 2738 
C 3309 2947 3469 3221 3469 3552 
C 3469 4111 3066 4416 2323 4416 
z
M 1331 2323 
C 1581 2323 1638 2323 1760 2323 
C 2624 2323 3027 2013 3027 1335 
C 3027 662 2586 263 1824 263 
C 1638 263 1491 276 1331 314 
z
M 1331 4121 
C 1498 4159 1645 4172 1850 4172 
C 2534 4172 2835 3942 2835 3414 
C 2835 2859 2451 2560 1722 2560 
C 1613 2560 1530 2560 1331 2560 
z
" id="URWPalladioL-Roma-42" transform="scale(0.015625)"/>
      <path d="M 1568 4672 
C 1114 4672 1094 4672 947 4672 
C 794 4672 762 4672 326 4672 
L 288 4640 
L 288 4473 
L 314 4441 
L 557 4441 
C 730 4441 864 4403 941 4339 
C 1005 4281 1024 4191 1024 3973 
C 1024 3954 1024 3826 1030 3646 
L 1030 3409 
L 1030 112 
L 1030 -125 
C 1024 -311 1024 -427 1024 -446 
C 1024 -664 1005 -760 941 -818 
C 864 -882 730 -921 557 -921 
L 314 -921 
L 288 -953 
L 288 -1120 
L 326 -1152 
C 774 -1152 787 -1152 947 -1152 
C 1094 -1152 1126 -1152 1568 -1152 
L 1626 -1075 
C 1587 -921 1581 -722 1574 -228 
C 1574 -138 1574 -55 1568 28 
L 1568 112 
L 1568 3409 
L 1568 3492 
C 1574 3563 1574 3646 1574 3736 
C 1574 4230 1587 4441 1626 4595 
z
" id="URWPalladioL-Roma-5d" transform="scale(0.015625)"/>
     </defs>
     <use transform="scale(1.038107)" xlink:href="#CMSY10-6a"/>
     <use transform="translate(35.068521 0)scale(0.996264)" xlink:href="#URWPalladioL-Ital-48"/>
     <use transform="translate(117.758403 0)scale(1.038107)" xlink:href="#CMR10-5b"/>
     <use transform="translate(149.041102 0)scale(0.996264)" xlink:href="#URWPalladioL-Ital-6d"/>
     <use transform="translate(229.041135 0)scale(1.038107)" xlink:href="#CMR10-5d"/>
     <use transform="translate(260.323834 0)scale(1.038107)" xlink:href="#CMSY10-6a"/>
     <use transform="translate(315.267834 0)scale(0.996264)" xlink:href="#URWPalladioL-Roma-5b"/>
     <use transform="translate(348.443064 0)scale(0.996264)" xlink:href="#URWPalladioL-Roma-64"/>
     <use transform="translate(409.314695 0)scale(0.996264)" xlink:href="#URWPalladioL-Roma-42"/>
     <use transform="translate(470.186325 0)scale(0.996264)" xlink:href="#URWPalladioL-Roma-5d"/>
    </g>
   </g>
   <g id="patch_4">
    <path clip-path="url(#p6d3de7bae5)" d="M 263.942929 171.98887 
L 263.942929 24.315726 
L 359.833183 24.315726 
L 359.833183 171.98887 
z
" style="fill:#dc2830;opacity:0.1;stroke:#dc2830;stroke-linejoin:miter;stroke-width:0.5;"/>
   </g>
  </g>
  <g id="axes_3">
   <g id="patch_5">
    <path d="M 428.027822 171.98887 
L 559.7649 171.98887 
L 559.7649 24.315726 
L 428.027822 24.315726 
z
" style="fill:none;"/>
   </g>
   <g id="line2d_21">
    <path clip-path="url(#p4eaddb5b69)" d="M 428.027822 31.028141 
L 475.725729 171.98887 
" style="fill:none;stroke:#343837;stroke-linecap:square;stroke-width:2;"/>
   </g>
   <g id="matplotlib.axis_5">
    <g id="xtick_4">
     <g id="line2d_22">
      <path clip-path="url(#p4eaddb5b69)" d="M 428.027822 171.98887 
L 428.027822 24.315726 
" style="fill:none;stroke:#000000;stroke-linecap:square;stroke-opacity:0.2;stroke-width:0.5;"/>
     </g>
     <g id="line2d_23">
      <g>
       <use style="fill-opacity:0.2;stroke:#000000;stroke-opacity:0.2;stroke-width:0.8;" x="428.027822" xlink:href="#m7e51550fac" y="171.98887"/>
      </g>
     </g>
    </g>
    <g id="xtick_5">
     <g id="line2d_24">
      <path clip-path="url(#p4eaddb5b69)" d="M 463.874646 171.98887 
L 463.874646 24.315726 
" style="fill:none;stroke:#000000;stroke-linecap:square;stroke-opacity:0.2;stroke-width:0.5;"/>
     </g>
     <g id="line2d_25">
      <g>
       <use style="fill-opacity:0.2;stroke:#000000;stroke-opacity:0.2;stroke-width:0.8;" x="463.874646" xlink:href="#m7e51550fac" y="171.98887"/>
      </g>
     </g>
    </g>
    <g id="xtick_6">
     <g id="line2d_26">
      <path clip-path="url(#p4eaddb5b69)" d="M 559.7649 171.98887 
L 559.7649 24.315726 
" style="fill:none;stroke:#000000;stroke-linecap:square;stroke-opacity:0.2;stroke-width:0.5;"/>
     </g>
     <g id="line2d_27">
      <g>
       <use style="fill-opacity:0.2;stroke:#000000;stroke-opacity:0.2;stroke-width:0.8;" x="559.7649" xlink:href="#m7e51550fac" y="171.98887"/>
      </g>
     </g>
    </g>
   </g>
   <g id="matplotlib.axis_6">
    <g id="ytick_7">
     <g id="line2d_28">
      <path clip-path="url(#p4eaddb5b69)" d="M 428.027822 163.804327 
L 559.7649 163.804327 
" style="fill:none;stroke:#000000;stroke-linecap:square;stroke-opacity:0.2;stroke-width:0.5;"/>
     </g>
     <g id="line2d_29">
      <g>
       <use style="fill-opacity:0.2;stroke:#000000;stroke-opacity:0.2;stroke-width:0.8;" x="428.027822" xlink:href="#m9e5aca952c" y="163.804327"/>
      </g>
     </g>
     <g id="text_9">
      <!-- $\mathdefault{−15}$ -->
      <g transform="translate(387.108283 168.794091)scale(0.14 -0.14)">
       <defs>
        <path d="M 813 3877 
C 1638 3877 1997 3877 2765 3877 
L 2797 3907 
C 2784 4016 2784 4064 2784 4144 
C 2784 4229 2784 4277 2797 4386 
L 2765 4416 
C 2285 4416 1997 4416 1651 4416 
C 1299 4416 1018 4416 538 4416 
L 506 4403 
C 512 4011 518 3729 518 3523 
C 518 2977 499 2360 480 2077 
L 608 2038 
C 909 2341 1082 2432 1395 2432 
C 2010 2432 2394 1993 2394 1296 
C 2394 580 1984 160 1286 160 
C 941 160 621 277 531 444 
L 237 973 
L 83 883 
C 230 516 307 310 397 27 
C 576 -71 832 -128 1107 -128 
C 1536 -128 1990 59 2342 368 
C 2733 716 2938 1154 2938 1630 
C 2938 2359 2419 2874 1690 2874 
C 1382 2874 1152 2791 755 2554 
z
" id="URWPalladioL-Roma-35" transform="scale(0.015625)"/>
       </defs>
       <use transform="scale(1.038107)" xlink:href="#CMSY10-0"/>
       <use transform="translate(81.941696 0)scale(0.996264)" xlink:href="#URWPalladioL-Roma-31"/>
       <use transform="translate(131.754897 0)scale(0.996264)" xlink:href="#URWPalladioL-Roma-35"/>
      </g>
     </g>
    </g>
    <g id="ytick_8">
     <g id="line2d_30">
      <path clip-path="url(#p4eaddb5b69)" d="M 428.027822 119.545598 
L 559.7649 119.545598 
" style="fill:none;stroke:#000000;stroke-linecap:square;stroke-opacity:0.2;stroke-width:0.5;"/>
     </g>
     <g id="line2d_31">
      <g>
       <use style="fill-opacity:0.2;stroke:#000000;stroke-opacity:0.2;stroke-width:0.8;" x="428.027822" xlink:href="#m9e5aca952c" y="119.545598"/>
      </g>
     </g>
     <g id="text_10">
      <!-- $\mathdefault{−10}$ -->
      <g transform="translate(387.108283 124.535363)scale(0.14 -0.14)">
       <use transform="scale(1.038107)" xlink:href="#CMSY10-0"/>
       <use transform="translate(81.941696 0)scale(0.996264)" xlink:href="#URWPalladioL-Roma-31"/>
       <use transform="translate(131.754897 0)scale(0.996264)" xlink:href="#URWPalladioL-Roma-30"/>
      </g>
     </g>
    </g>
    <g id="ytick_9">
     <g id="line2d_32">
      <path clip-path="url(#p4eaddb5b69)" d="M 428.027822 75.28687 
L 559.7649 75.28687 
" style="fill:none;stroke:#000000;stroke-linecap:square;stroke-opacity:0.2;stroke-width:0.5;"/>
     </g>
     <g id="line2d_33">
      <g>
       <use style="fill-opacity:0.2;stroke:#000000;stroke-opacity:0.2;stroke-width:0.8;" x="428.027822" xlink:href="#m9e5aca952c" y="75.28687"/>
      </g>
     </g>
     <g id="text_11">
      <!-- $\mathdefault{−5}$ -->
      <g transform="translate(394.082131 80.276634)scale(0.14 -0.14)">
       <use transform="scale(1.038107)" xlink:href="#CMSY10-0"/>
       <use transform="translate(81.941696 0)scale(0.996264)" xlink:href="#URWPalladioL-Roma-35"/>
      </g>
     </g>
    </g>
    <g id="ytick_10">
     <g id="line2d_34">
      <path clip-path="url(#p4eaddb5b69)" d="M 428.027822 31.028141 
L 559.7649 31.028141 
" style="fill:none;stroke:#000000;stroke-linecap:square;stroke-opacity:0.2;stroke-width:0.5;"/>
     </g>
     <g id="line2d_35">
      <g>
       <use style="fill-opacity:0.2;stroke:#000000;stroke-opacity:0.2;stroke-width:0.8;" x="428.027822" xlink:href="#m9e5aca952c" y="31.028141"/>
      </g>
     </g>
     <g id="text_12">
      <!-- $\mathdefault{0}$ -->
      <g transform="translate(405.553974 36.017906)scale(0.14 -0.14)">
       <use transform="scale(0.996264)" xlink:href="#URWPalladioL-Roma-30"/>
      </g>
     </g>
    </g>
   </g>
   <g id="line2d_36">
    <g clip-path="url(#p4eaddb5b69)">
     <use style="fill:#0271ae;" x="428.027822" xlink:href="#m1dc925dc0a" y="31.028141"/>
     <use style="fill:#0271ae;" x="437.113137" xlink:href="#m1dc925dc0a" y="57.877804"/>
     <use style="fill:#0271ae;" x="446.198453" xlink:href="#m1dc925dc0a" y="84.727467"/>
     <use style="fill:#0271ae;" x="455.283769" xlink:href="#m1dc925dc0a" y="111.577129"/>
     <use style="fill:#0271ae;" x="464.369085" xlink:href="#m1dc925dc0a" y="138.426792"/>
     <use style="fill:#0271ae;" x="473.4544" xlink:href="#m1dc925dc0a" y="165.276455"/>
     <use style="fill:#0271ae;" x="482.539716" xlink:href="#m1dc925dc0a" y="164.317538"/>
     <use style="fill:#0271ae;" x="491.625032" xlink:href="#m1dc925dc0a" y="163.358622"/>
     <use style="fill:#0271ae;" x="500.710348" xlink:href="#m1dc925dc0a" y="162.399705"/>
     <use style="fill:#0271ae;" x="509.795663" xlink:href="#m1dc925dc0a" y="161.440789"/>
     <use style="fill:#0271ae;" x="518.880979" xlink:href="#m1dc925dc0a" y="160.481872"/>
     <use style="fill:#0271ae;" x="527.966295" xlink:href="#m1dc925dc0a" y="159.522956"/>
     <use style="fill:#0271ae;" x="537.051611" xlink:href="#m1dc925dc0a" y="158.564039"/>
     <use style="fill:#0271ae;" x="546.136926" xlink:href="#m1dc925dc0a" y="157.605123"/>
     <use style="fill:#0271ae;" x="555.222242" xlink:href="#m1dc925dc0a" y="156.646206"/>
    </g>
   </g>
   <g id="text_13">
    <!-- $\phi'[m]$ -->
    <g transform="translate(477.90347 18.315726)scale(0.14 -0.14)">
     <defs>
      <path d="M 2509 4158 
C 2381 4080 2208 4003 2010 3926 
L 1882 3033 
C 1683 2982 1491 2911 1293 2814 
C 531 2442 109 1786 109 984 
C 109 296 512 -64 1261 -64 
C 1299 -64 1338 -64 1376 -57 
C 1306 -436 1197 -970 1082 -1490 
L 1030 -1728 
L 1075 -1767 
C 1210 -1722 1338 -1690 1542 -1657 
L 1805 1 
C 2112 71 2413 193 2662 360 
C 3232 740 3635 1471 3635 2133 
C 3635 2737 3187 3104 2458 3104 
C 2419 3104 2381 3104 2342 3097 
C 2419 3515 2483 3778 2579 4061 
z
M 3149 2037 
C 3149 1414 2790 733 2342 393 
C 2208 296 2035 226 1837 193 
C 1850 277 1869 354 1875 386 
L 1990 1067 
C 2042 1363 2086 1613 2240 2512 
L 2298 2853 
C 2842 2808 3149 2525 3149 2037 
z
M 595 977 
C 595 1697 1043 2481 1536 2751 
C 1613 2790 1722 2822 1850 2841 
L 1414 187 
C 832 251 595 515 595 977 
z
" id="PazoMath-Italic-66" transform="scale(0.015625)"/>
      <path d="M 1619 3040 
C 1651 3117 1677 3174 1677 3238 
C 1677 3424 1510 3578 1312 3578 
C 1133 3578 1018 3456 973 3290 
L 211 493 
C 211 480 186 410 186 403 
C 186 333 352 288 403 288 
C 442 288 448 307 486 390 
z
" id="CMSY10-30" transform="scale(0.015625)"/>
     </defs>
     <use transform="scale(0.996264)" xlink:href="#PazoMath-Italic-66"/>
     <use transform="translate(60.870703 36.164371)scale(0.788955)" xlink:href="#CMSY10-30"/>
     <use transform="translate(85.290968 0)scale(1.038107)" xlink:href="#CMR10-5b"/>
     <use transform="translate(116.573667 0)scale(0.996264)" xlink:href="#URWPalladioL-Ital-6d"/>
     <use transform="translate(196.573701 0)scale(1.038107)" xlink:href="#CMR10-5d"/>
    </g>
   </g>
   <g id="patch_6">
    <path clip-path="url(#p4eaddb5b69)" d="M 463.874646 171.98887 
L 463.874646 24.315726 
L 559.7649 24.315726 
L 559.7649 171.98887 
z
" style="fill:#dc2830;opacity:0.1;stroke:#dc2830;stroke-linejoin:miter;stroke-width:0.5;"/>
   </g>
  </g>
  <g id="axes_4">
   <g id="patch_7">
    <path d="M 38.62516 339.861659 
L 170.362238 339.861659 
L 170.362238 192.188514 
L 38.62516 192.188514 
z
" style="fill:none;"/>
   </g>
   <g id="matplotlib.axis_7">
    <g id="text_14">
     <!-- Time -->
     <g transform="translate(91.277421 352.415534)scale(0.12 -0.12)">
      <defs>
       <path d="M 1632 4114 
C 1651 3896 1658 3749 1658 3473 
L 1658 763 
C 1658 256 1626 205 1331 205 
L 1024 205 
L 1024 0 
C 1402 0 1626 0 1958 0 
C 2291 0 2522 0 2899 0 
L 2899 205 
L 2592 205 
C 2298 205 2266 256 2266 763 
L 2266 3473 
C 2266 3762 2272 3903 2291 4114 
L 3283 4114 
C 3462 4114 3533 4057 3539 3904 
L 3565 3400 
L 3763 3400 
C 3763 3810 3776 4056 3808 4416 
C 3347 4416 3136 4416 2957 4416 
C 2707 4416 2522 4416 2426 4416 
L 1414 4416 
C 1350 4416 1005 4416 550 4416 
L 115 4416 
C 147 4056 160 3810 160 3400 
L 358 3400 
L 384 3904 
C 390 4057 461 4114 640 4114 
z
" id="URWPalladioL-Roma-54" transform="scale(0.015625)"/>
       <path d="M 1203 2993 
L 1146 3019 
C 819 2884 486 2793 147 2755 
L 147 2576 
L 384 2576 
C 640 2576 666 2531 666 2105 
L 666 651 
C 666 244 646 199 429 199 
L 134 199 
L 134 0 
C 774 0 774 0 934 0 
C 1094 0 1094 0 1734 0 
L 1734 199 
L 1440 199 
C 1222 199 1203 244 1203 651 
z
M 909 4416 
C 717 4416 550 4249 550 4056 
C 550 3870 717 3704 902 3704 
C 1088 3704 1261 3870 1261 4056 
C 1261 4236 1088 4416 909 4416 
z
" id="URWPalladioL-Roma-69" transform="scale(0.015625)"/>
      </defs>
      <use transform="scale(0.996264)" xlink:href="#URWPalladioL-Roma-54"/>
      <use transform="translate(55.591109 0)scale(0.996264)" xlink:href="#URWPalladioL-Roma-69"/>
      <use transform="translate(84.581471 0)scale(0.996264)" xlink:href="#URWPalladioL-Roma-6d"/>
      <use transform="translate(172.551145 0)scale(0.996264)" xlink:href="#URWPalladioL-Roma-65"/>
     </g>
    </g>
   </g>
   <g id="matplotlib.axis_8">
    <g id="ytick_11">
     <g id="line2d_37">
      <path clip-path="url(#p9d53e4e7a9)" d="M 38.62516 300.15932 
L 170.362238 300.15932 
" style="fill:none;stroke:#000000;stroke-linecap:square;stroke-opacity:0.2;stroke-width:0.5;"/>
     </g>
     <g id="line2d_38">
      <g>
       <use style="fill-opacity:0.2;stroke:#000000;stroke-opacity:0.2;stroke-width:0.8;" x="38.62516" xlink:href="#m9e5aca952c" y="300.15932"/>
      </g>
     </g>
    </g>
    <g id="text_15">
     <!-- High-pass -->
     <g transform="translate(15.753876 293.18098)rotate(-90)scale(0.12 -0.12)">
      <defs>
       <path d="M 3942 773 
C 3942 257 3910 205 3616 205 
L 3309 205 
L 3309 0 
C 3686 0 3910 0 4243 0 
C 4576 0 4806 0 5184 0 
L 5184 205 
L 4877 205 
C 4582 205 4550 256 4550 766 
L 4550 3663 
C 4550 4172 4582 4224 4877 4224 
L 5184 4224 
L 5184 4423 
C 4717 4423 4576 4423 4243 4423 
C 3923 4423 3770 4423 3309 4423 
L 3309 4224 
L 3616 4224 
C 3910 4224 3942 4172 3942 3668 
L 3942 2529 
C 3808 2529 3674 2529 3411 2529 
L 1914 2529 
C 1651 2529 1510 2529 1382 2529 
L 1382 3668 
C 1382 4172 1414 4224 1709 4224 
L 2016 4224 
L 2016 4423 
C 1549 4423 1408 4423 1075 4423 
C 755 4423 602 4423 141 4423 
L 141 4224 
L 448 4224 
C 742 4224 774 4172 774 3663 
L 774 766 
C 774 256 742 205 448 205 
L 141 205 
L 141 0 
C 518 0 742 0 1075 0 
C 1408 0 1638 0 2016 0 
L 2016 205 
L 1709 205 
C 1414 205 1382 257 1382 773 
L 1382 2227 
C 1555 2240 1658 2240 1914 2240 
L 3411 2240 
C 3667 2240 3770 2240 3942 2227 
z
" id="URWPalladioL-Roma-48" transform="scale(0.015625)"/>
       <path d="M 3322 2432 
L 3482 2695 
L 3456 2759 
L 2547 2759 
C 2310 2937 2080 3008 1766 3008 
C 1485 3008 1158 2920 896 2768 
C 538 2567 352 2258 352 1874 
C 352 1408 646 1087 1120 1036 
L 614 640 
C 550 543 518 459 518 361 
C 518 180 634 76 941 -14 
L 384 -316 
C 294 -367 205 -604 205 -803 
C 205 -1388 774 -1792 1587 -1792 
C 2554 -1792 3315 -1182 3315 -399 
C 3315 63 3008 384 2560 384 
L 1536 384 
C 1203 384 1050 462 1050 639 
C 1050 724 1101 795 1267 939 
C 1306 972 1318 985 1344 1011 
C 1408 1004 1446 998 1498 998 
C 1773 998 2112 1118 2374 1300 
C 2662 1507 2803 1759 2803 2093 
C 2803 2218 2784 2300 2733 2432 
z
M 1536 2790 
C 1971 2790 2266 2438 2266 1905 
C 2266 1499 1997 1216 1606 1216 
C 1178 1216 890 1542 890 2025 
C 890 2507 1126 2790 1536 2790 
z
M 1837 -65 
C 2560 -65 2810 -212 2810 -630 
C 2810 -1182 2304 -1593 1632 -1593 
C 1075 -1593 691 -1266 691 -790 
C 691 -502 858 -238 1114 -129 
C 1216 -78 1395 -65 1837 -65 
z
" id="URWPalladioL-Roma-67" transform="scale(0.015625)"/>
       <path d="M 45 4248 
L 403 4248 
C 518 4248 563 4177 563 3984 
L 563 643 
C 563 237 544 192 326 192 
L 38 192 
L 38 -7 
C 474 -7 646 -7 832 -7 
C 1018 -7 1190 -7 1626 -7 
L 1626 192 
L 1338 192 
C 1120 192 1101 237 1101 643 
L 1101 2011 
C 1101 2300 1523 2616 1914 2616 
C 2342 2616 2624 2297 2624 1806 
L 2624 -7 
C 3014 -7 3021 -7 3130 -7 
C 3219 -7 3219 -7 3661 -7 
L 3661 179 
L 3398 205 
C 3181 205 3162 244 3162 654 
L 3162 1892 
C 3162 2642 2810 3008 2093 3008 
C 1856 3008 1722 2963 1587 2847 
L 1101 2424 
L 1101 4613 
L 1043 4665 
C 762 4556 550 4504 45 4427 
z
" id="URWPalladioL-Roma-68" transform="scale(0.015625)"/>
      </defs>
      <use transform="scale(0.996264)" xlink:href="#URWPalladioL-Roma-48"/>
      <use transform="translate(82.888661 0)scale(0.996264)" xlink:href="#URWPalladioL-Roma-69"/>
      <use transform="translate(111.879022 0)scale(0.996264)" xlink:href="#URWPalladioL-Roma-67"/>
      <use transform="translate(167.270699 0)scale(0.996264)" xlink:href="#URWPalladioL-Roma-68"/>
      <use transform="translate(225.25276 0)scale(0.996264)" xlink:href="#URWPalladioL-Roma-2d"/>
      <use transform="translate(258.42799 0)scale(0.996264)" xlink:href="#URWPalladioL-Roma-70"/>
      <use transform="translate(318.302384 0)scale(0.996264)" xlink:href="#URWPalladioL-Roma-61"/>
      <use transform="translate(368.115584 0)scale(0.996264)" xlink:href="#URWPalladioL-Roma-73"/>
      <use transform="translate(410.35705 0)scale(0.996264)" xlink:href="#URWPalladioL-Roma-73"/>
     </g>
    </g>
   </g>
   <g id="line2d_39">
    <path clip-path="url(#p9d53e4e7a9)" d="M 38.62516 300.15932 
L 43.330055 300.15932 
L 43.330055 300.116914 
L 48.034951 300.116914 
L 48.034951 300.02406 
L 52.739847 300.02406 
L 52.739847 300.168704 
L 57.444742 300.168704 
L 57.444742 300.799805 
L 62.149638 300.799805 
L 62.149638 301.534137 
L 66.854534 301.534137 
L 66.854534 301.294348 
L 71.559429 301.294348 
L 71.559429 299.227036 
L 76.264325 299.227036 
L 76.264325 296.034244 
L 80.969221 296.034244 
L 80.969221 294.409651 
L 85.674116 294.409651 
L 85.674116 297.694708 
L 90.379012 297.694708 
L 90.379012 307.333175 
L 95.083908 307.333175 
L 95.083908 321.000671 
L 99.788803 321.000671 
L 99.788803 333.149243 
L 104.493699 333.149243 
L 104.493699 198.90093 
L 109.198594 198.90093 
L 109.198594 333.149243 
L 113.90349 333.149243 
L 113.90349 321.000671 
L 118.608386 321.000671 
L 118.608386 307.333175 
L 123.313281 307.333175 
L 123.313281 297.694708 
L 128.018177 297.694708 
L 128.018177 294.409651 
L 132.723073 294.409651 
L 132.723073 296.034244 
L 137.427968 296.034244 
L 137.427968 299.227036 
L 142.132864 299.227036 
L 142.132864 301.294348 
L 146.83776 301.294348 
L 146.83776 301.534137 
L 151.542655 301.534137 
L 151.542655 300.799805 
L 156.247551 300.799805 
L 156.247551 300.168704 
L 160.952447 300.168704 
L 160.952447 300.02406 
L 165.657342 300.02406 
L 165.657342 300.116914 
L 170.362238 300.116914 
L 170.362238 300.15932 
" style="fill:none;stroke:#dc2830;stroke-linecap:square;stroke-width:3;"/>
   </g>
  </g>
  <g id="axes_5">
   <g id="patch_8">
    <path d="M 228.096105 339.861659 
L 359.833183 339.861659 
L 359.833183 192.188514 
L 228.096105 192.188514 
z
" style="fill:none;"/>
   </g>
   <g id="matplotlib.axis_9">
    <g id="xtick_7">
     <g id="line2d_40">
      <path clip-path="url(#p2f749fce3b)" d="M 228.096105 339.861659 
L 228.096105 192.188514 
" style="fill:none;stroke:#000000;stroke-linecap:square;stroke-opacity:0.2;stroke-width:0.5;"/>
     </g>
     <g id="line2d_41">
      <g>
       <use style="fill-opacity:0.2;stroke:#000000;stroke-opacity:0.2;stroke-width:0.8;" x="228.096105" xlink:href="#m7e51550fac" y="339.861659"/>
      </g>
     </g>
     <g id="text_16">
      <!-- $\mathdefault{0}$ -->
      <g transform="translate(224.609181 365.341188)scale(0.14 -0.14)">
       <use transform="scale(0.996264)" xlink:href="#URWPalladioL-Roma-30"/>
      </g>
     </g>
    </g>
    <g id="xtick_8">
     <g id="line2d_42">
      <path clip-path="url(#p2f749fce3b)" d="M 263.942929 339.861659 
L 263.942929 192.188514 
" style="fill:none;stroke:#000000;stroke-linecap:square;stroke-opacity:0.2;stroke-width:0.5;"/>
     </g>
     <g id="line2d_43">
      <g>
       <use style="fill-opacity:0.2;stroke:#000000;stroke-opacity:0.2;stroke-width:0.8;" x="263.942929" xlink:href="#m7e51550fac" y="339.861659"/>
      </g>
     </g>
     <g id="text_17">
      <!-- $\mathdefault{3000}$ -->
      <g transform="translate(249.995233 365.341188)scale(0.14 -0.14)">
       <defs>
        <path d="M 275 3197 
L 474 3197 
L 589 3554 
C 659 3770 1062 3987 1395 3987 
C 1811 3987 2150 3649 2150 3248 
C 2150 2770 1773 2368 1318 2368 
C 1267 2368 1197 2368 1114 2381 
L 1018 2381 
L 941 2047 
L 986 2008 
C 1229 2118 1350 2150 1523 2150 
C 2054 2150 2362 1809 2362 1222 
C 2362 566 1971 135 1376 135 
C 1082 135 819 231 627 411 
C 474 553 390 701 269 1049 
L 96 985 
C 230 593 282 361 320 39 
C 659 -77 941 -128 1178 -128 
C 1690 -128 2278 161 2630 593 
C 2848 857 2957 1140 2957 1442 
C 2957 1751 2829 2022 2598 2182 
C 2438 2298 2291 2350 1971 2407 
C 2483 2803 2675 3096 2675 3472 
C 2675 4040 2202 4416 1491 4416 
C 1056 4416 768 4295 461 3989 
z
" id="URWPalladioL-Roma-33" transform="scale(0.015625)"/>
       </defs>
       <use transform="scale(0.996264)" xlink:href="#URWPalladioL-Roma-33"/>
       <use transform="translate(49.8132 0)scale(0.996264)" xlink:href="#URWPalladioL-Roma-30"/>
       <use transform="translate(99.626401 0)scale(0.996264)" xlink:href="#URWPalladioL-Roma-30"/>
       <use transform="translate(149.439601 0)scale(0.996264)" xlink:href="#URWPalladioL-Roma-30"/>
      </g>
     </g>
    </g>
    <g id="xtick_9">
     <g id="line2d_44">
      <path clip-path="url(#p2f749fce3b)" d="M 359.833183 339.861659 
L 359.833183 192.188514 
" style="fill:none;stroke:#000000;stroke-linecap:square;stroke-opacity:0.2;stroke-width:0.5;"/>
     </g>
     <g id="line2d_45">
      <g>
       <use style="fill-opacity:0.2;stroke:#000000;stroke-opacity:0.2;stroke-width:0.8;" x="359.833183" xlink:href="#m7e51550fac" y="339.861659"/>
      </g>
     </g>
     <g id="text_18">
      <!-- $\mathdefault{11025}$ -->
      <g transform="translate(342.398563 365.341188)scale(0.14 -0.14)">
       <use transform="scale(0.996264)" xlink:href="#URWPalladioL-Roma-31"/>
       <use transform="translate(49.8132 0)scale(0.996264)" xlink:href="#URWPalladioL-Roma-31"/>
       <use transform="translate(99.626401 0)scale(0.996264)" xlink:href="#URWPalladioL-Roma-30"/>
       <use transform="translate(149.439601 0)scale(0.996264)" xlink:href="#URWPalladioL-Roma-32"/>
       <use transform="translate(199.252802 0)scale(0.996264)" xlink:href="#URWPalladioL-Roma-35"/>
      </g>
     </g>
    </g>
    <g id="text_19">
     <!-- Frequency [Hz] -->
     <g transform="translate(252.815349 381.828236)scale(0.12 -0.12)">
      <defs>
       <path d="M 1382 2100 
C 1562 2112 1754 2112 2042 2112 
C 2515 2112 2688 2094 2803 2040 
L 2854 1890 
L 2886 1536 
L 3078 1536 
C 3059 2132 3059 2132 3059 2247 
C 3059 2350 3059 2350 3078 2991 
L 2886 2991 
L 2854 2642 
C 2848 2581 2829 2521 2803 2467 
C 2688 2414 2509 2394 2086 2394 
C 1818 2394 1600 2394 1382 2394 
L 1382 4117 
C 1574 4160 1690 4160 2067 4160 
C 2374 4160 2733 4124 2931 4076 
C 3085 4039 3104 4008 3104 3868 
L 3104 3465 
L 3328 3465 
C 3328 3843 3360 4146 3430 4423 
C 3117 4423 2925 4423 2650 4423 
L 1965 4423 
C 1651 4423 1427 4423 1267 4423 
C 1082 4423 1082 4423 141 4423 
L 141 4224 
L 448 4224 
C 742 4224 774 4172 774 3663 
L 774 766 
C 774 256 742 205 448 205 
L 141 205 
L 141 0 
C 518 0 742 0 1075 0 
C 1408 0 1638 0 2016 0 
L 2016 205 
L 1709 205 
C 1414 205 1382 256 1382 766 
z
" id="URWPalladioL-Roma-46" transform="scale(0.015625)"/>
       <path d="M 2515 436 
L 2515 -1138 
C 2515 -1547 2490 -1593 2278 -1593 
L 1907 -1593 
L 1907 -1792 
C 2650 -1792 2650 -1792 2797 -1792 
C 2950 -1792 3130 -1792 3584 -1792 
L 3584 -1593 
L 3290 -1593 
C 3072 -1593 3053 -1548 3053 -1143 
L 3053 2036 
C 3053 2435 3091 2680 3200 2924 
L 3078 2995 
L 2765 2796 
C 2438 2943 2163 3008 1888 3008 
C 1702 3008 1478 2956 1382 2899 
L 845 2554 
C 435 2292 224 1871 224 1315 
C 224 479 730 -64 1523 -64 
C 1658 -64 1766 -38 1850 13 
z
M 2515 781 
C 2515 691 2362 525 2189 429 
C 2035 346 1888 302 1734 302 
C 1171 302 781 824 781 1596 
C 781 2298 1139 2706 1754 2706 
C 2067 2706 2291 2630 2515 2445 
z
" id="URWPalladioL-Roma-71" transform="scale(0.015625)"/>
       <path d="M 2554 1994 
C 2554 2289 2586 2552 2643 2783 
C 2387 2937 2163 3008 1901 3008 
C 1594 3008 1235 2886 851 2642 
C 403 2360 166 1911 166 1347 
C 166 481 774 -128 1632 -128 
C 1965 -128 2445 -6 2509 90 
L 2643 295 
L 2579 391 
C 2342 263 2138 205 1907 205 
C 1197 205 730 757 730 1603 
C 730 2289 1050 2674 1626 2674 
C 1907 2674 2214 2546 2330 2386 
L 2374 1994 
z
" id="URWPalladioL-Roma-63" transform="scale(0.015625)"/>
       <path d="M 1901 564 
C 1760 808 1690 956 1574 1270 
L 1165 2347 
C 1126 2456 1101 2552 1101 2618 
C 1101 2710 1171 2764 1318 2764 
L 1562 2764 
L 1562 2944 
C 941 2944 941 2944 819 2944 
C 698 2944 698 2944 77 2944 
L 77 2777 
L 192 2764 
C 352 2745 429 2674 525 2451 
L 1222 775 
C 1402 340 1466 186 1581 -134 
L 1434 -524 
C 1229 -1062 979 -1362 736 -1362 
C 634 -1362 518 -1311 410 -1215 
L 326 -1215 
L 173 -1696 
C 294 -1760 397 -1792 518 -1792 
C 947 -1792 1222 -1562 1466 -1005 
L 2765 1990 
C 3021 2572 3142 2745 3302 2764 
L 3482 2777 
L 3482 2944 
C 2976 2944 2976 2944 2874 2944 
C 2771 2944 2771 2944 2266 2944 
L 2266 2777 
L 2432 2764 
C 2611 2751 2701 2694 2701 2604 
C 2701 2559 2688 2501 2662 2437 
z
" id="URWPalladioL-Roma-79" transform="scale(0.015625)"/>
       <path d="M 2912 2764 
L 2912 2944 
C 2464 2944 2272 2944 2029 2944 
L 442 2944 
C 429 2624 422 2549 384 2115 
L 576 2115 
L 653 2547 
C 678 2681 794 2713 1267 2713 
L 2182 2713 
C 2048 2503 1939 2357 1766 2141 
L 678 794 
C 525 609 435 501 102 127 
L 141 0 
C 806 0 845 0 1120 0 
L 2886 0 
C 2886 145 2899 297 2944 602 
L 2982 899 
L 2790 899 
L 2675 397 
C 2650 282 2381 237 1766 237 
L 902 237 
z
" id="URWPalladioL-Roma-7a" transform="scale(0.015625)"/>
      </defs>
      <use transform="scale(0.996264)" xlink:href="#URWPalladioL-Roma-46"/>
      <use transform="translate(55.391677 0)scale(0.996264)" xlink:href="#URWPalladioL-Roma-72"/>
      <use transform="translate(92.950994 0)scale(0.996264)" xlink:href="#URWPalladioL-Roma-65"/>
      <use transform="translate(140.671289 0)scale(0.996264)" xlink:href="#URWPalladioL-Roma-71"/>
      <use transform="translate(196.461922 0)scale(0.996264)" xlink:href="#URWPalladioL-Roma-75"/>
      <use transform="translate(256.535657 0)scale(0.996264)" xlink:href="#URWPalladioL-Roma-65"/>
      <use transform="translate(304.255952 0)scale(0.996264)" xlink:href="#URWPalladioL-Roma-6e"/>
      <use transform="translate(362.238012 0)scale(0.996264)" xlink:href="#URWPalladioL-Roma-63"/>
      <use transform="translate(406.471581 0)scale(0.996264)" xlink:href="#URWPalladioL-Roma-79"/>
      <use transform="translate(486.769858 0)scale(0.996264)" xlink:href="#URWPalladioL-Roma-5b"/>
      <use transform="translate(519.945088 0)scale(0.996264)" xlink:href="#URWPalladioL-Roma-48"/>
      <use transform="translate(602.833749 0)scale(0.996264)" xlink:href="#URWPalladioL-Roma-7a"/>
      <use transform="translate(652.64695 0)scale(0.996264)" xlink:href="#URWPalladioL-Roma-5d"/>
     </g>
    </g>
   </g>
   <g id="matplotlib.axis_10">
    <g id="ytick_12">
     <g id="line2d_46">
      <path clip-path="url(#p2f749fce3b)" d="M 228.096105 195.74661 
L 359.833183 195.74661 
" style="fill:none;stroke:#000000;stroke-linecap:square;stroke-opacity:0.2;stroke-width:0.5;"/>
     </g>
     <g id="line2d_47">
      <g>
       <use style="fill-opacity:0.2;stroke:#000000;stroke-opacity:0.2;stroke-width:0.8;" x="228.096105" xlink:href="#m9e5aca952c" y="195.74661"/>
      </g>
     </g>
     <g id="text_20">
      <!-- $\mathdefault{0}$ -->
      <g transform="translate(205.622257 200.736375)scale(0.14 -0.14)">
       <use transform="scale(0.996264)" xlink:href="#URWPalladioL-Roma-30"/>
      </g>
     </g>
    </g>
    <g id="ytick_13">
     <g id="line2d_48">
      <path clip-path="url(#p2f749fce3b)" d="M 228.096105 219.765785 
L 359.833183 219.765785 
" style="fill:none;stroke:#000000;stroke-linecap:square;stroke-opacity:0.2;stroke-width:0.5;"/>
     </g>
     <g id="line2d_49">
      <g>
       <use style="fill-opacity:0.2;stroke:#000000;stroke-opacity:0.2;stroke-width:0.8;" x="228.096105" xlink:href="#m9e5aca952c" y="219.765785"/>
      </g>
     </g>
     <g id="text_21">
      <!-- $\mathdefault{−20}$ -->
      <g transform="translate(187.176566 224.755549)scale(0.14 -0.14)">
       <use transform="scale(1.038107)" xlink:href="#CMSY10-0"/>
       <use transform="translate(81.941696 0)scale(0.996264)" xlink:href="#URWPalladioL-Roma-32"/>
       <use transform="translate(131.754897 0)scale(0.996264)" xlink:href="#URWPalladioL-Roma-30"/>
      </g>
     </g>
    </g>
    <g id="ytick_14">
     <g id="line2d_50">
      <path clip-path="url(#p2f749fce3b)" d="M 228.096105 243.784959 
L 359.833183 243.784959 
" style="fill:none;stroke:#000000;stroke-linecap:square;stroke-opacity:0.2;stroke-width:0.5;"/>
     </g>
     <g id="line2d_51">
      <g>
       <use style="fill-opacity:0.2;stroke:#000000;stroke-opacity:0.2;stroke-width:0.8;" x="228.096105" xlink:href="#m9e5aca952c" y="243.784959"/>
      </g>
     </g>
     <g id="text_22">
      <!-- $\mathdefault{−40}$ -->
      <g transform="translate(187.176566 248.774724)scale(0.14 -0.14)">
       <use transform="scale(1.038107)" xlink:href="#CMSY10-0"/>
       <use transform="translate(81.941696 0)scale(0.996264)" xlink:href="#URWPalladioL-Roma-34"/>
       <use transform="translate(131.754897 0)scale(0.996264)" xlink:href="#URWPalladioL-Roma-30"/>
      </g>
     </g>
    </g>
    <g id="ytick_15">
     <g id="line2d_52">
      <path clip-path="url(#p2f749fce3b)" d="M 228.096105 291.823309 
L 359.833183 291.823309 
" style="fill:none;stroke:#000000;stroke-linecap:square;stroke-opacity:0.2;stroke-width:0.5;"/>
     </g>
     <g id="line2d_53">
      <g>
       <use style="fill-opacity:0.2;stroke:#000000;stroke-opacity:0.2;stroke-width:0.8;" x="228.096105" xlink:href="#m9e5aca952c" y="291.823309"/>
      </g>
     </g>
     <g id="text_23">
      <!-- $\mathdefault{−80}$ -->
      <g transform="translate(187.176566 296.813074)scale(0.14 -0.14)">
       <use transform="scale(1.038107)" xlink:href="#CMSY10-0"/>
       <use transform="translate(81.941696 0)scale(0.996264)" xlink:href="#URWPalladioL-Roma-38"/>
       <use transform="translate(131.754897 0)scale(0.996264)" xlink:href="#URWPalladioL-Roma-30"/>
      </g>
     </g>
    </g>
    <g id="ytick_16">
     <g id="line2d_54">
      <path clip-path="url(#p2f749fce3b)" d="M 228.096105 339.861659 
L 359.833183 339.861659 
" style="fill:none;stroke:#000000;stroke-linecap:square;stroke-opacity:0.2;stroke-width:0.5;"/>
     </g>
     <g id="line2d_55">
      <g>
       <use style="fill-opacity:0.2;stroke:#000000;stroke-opacity:0.2;stroke-width:0.8;" x="228.096105" xlink:href="#m9e5aca952c" y="339.861659"/>
      </g>
     </g>
     <g id="text_24">
      <!-- $\mathdefault{−120}$ -->
      <g transform="translate(180.202718 344.851423)scale(0.14 -0.14)">
       <use transform="scale(1.038107)" xlink:href="#CMSY10-0"/>
       <use transform="translate(81.941696 0)scale(0.996264)" xlink:href="#URWPalladioL-Roma-31"/>
       <use transform="translate(131.754897 0)scale(0.996264)" xlink:href="#URWPalladioL-Roma-32"/>
       <use transform="translate(181.568097 0)scale(0.996264)" xlink:href="#URWPalladioL-Roma-30"/>
      </g>
     </g>
    </g>
   </g>
   <g id="line2d_56">
    <defs>
     <path d="M 0 2.5 
C 0.663008 2.5 1.29895 2.236584 1.767767 1.767767 
C 2.236584 1.29895 2.5 0.663008 2.5 0 
C 2.5 -0.663008 2.236584 -1.29895 1.767767 -1.767767 
C 1.29895 -2.236584 0.663008 -2.5 0 -2.5 
C -0.663008 -2.5 -1.29895 -2.236584 -1.767767 -1.767767 
C -2.236584 -1.29895 -2.5 -0.663008 -2.5 0 
C -2.5 0.663008 -2.236584 1.29895 -1.767767 1.767767 
C -1.29895 2.236584 -0.663008 2.5 0 2.5 
z
" id="m5daa856625"/>
    </defs>
    <g clip-path="url(#p2f749fce3b)">
     <use style="fill:#dc2830;" x="228.096105" xlink:href="#m5daa856625" y="265.541659"/>
     <use style="fill:#dc2830;" x="237.18142" xlink:href="#m5daa856625" y="261.286641"/>
     <use style="fill:#dc2830;" x="246.266736" xlink:href="#m5daa856625" y="249.486146"/>
     <use style="fill:#dc2830;" x="255.352052" xlink:href="#m5daa856625" y="218.248693"/>
     <use style="fill:#dc2830;" x="264.437368" xlink:href="#m5daa856625" y="202.444765"/>
     <use style="fill:#dc2830;" x="273.522683" xlink:href="#m5daa856625" y="196.70737"/>
     <use style="fill:#dc2830;" x="282.607999" xlink:href="#m5daa856625" y="195.681521"/>
     <use style="fill:#dc2830;" x="291.693315" xlink:href="#m5daa856625" y="195.766396"/>
     <use style="fill:#dc2830;" x="300.778631" xlink:href="#m5daa856625" y="195.739491"/>
     <use style="fill:#dc2830;" x="309.863946" xlink:href="#m5daa856625" y="195.751213"/>
     <use style="fill:#dc2830;" x="318.949262" xlink:href="#m5daa856625" y="195.745209"/>
     <use style="fill:#dc2830;" x="328.034578" xlink:href="#m5daa856625" y="195.748565"/>
     <use style="fill:#dc2830;" x="337.119893" xlink:href="#m5daa856625" y="195.746624"/>
     <use style="fill:#dc2830;" x="346.205209" xlink:href="#m5daa856625" y="195.747707"/>
     <use style="fill:#dc2830;" x="355.290525" xlink:href="#m5daa856625" y="195.747219"/>
    </g>
   </g>
   <g id="patch_9">
    <path clip-path="url(#p2f749fce3b)" d="M 228.096105 339.861659 
L 228.096105 192.188514 
L 263.942929 192.188514 
L 263.942929 339.861659 
z
" style="fill:#dc2830;opacity:0.1;stroke:#dc2830;stroke-linejoin:miter;stroke-width:0.5;"/>
   </g>
  </g>
  <g id="axes_6">
   <g id="patch_10">
    <path d="M 428.027822 339.861659 
L 559.7649 339.861659 
L 559.7649 192.188514 
L 428.027822 192.188514 
z
" style="fill:none;"/>
   </g>
   <g id="line2d_57">
    <path clip-path="url(#p30777c562f)" d="M 450.286845 192.188514 
L 559.7649 339.251439 
" style="fill:none;stroke:#343837;stroke-linecap:square;stroke-width:2;"/>
   </g>
   <g id="matplotlib.axis_11">
    <g id="xtick_10">
     <g id="line2d_58">
      <path clip-path="url(#p30777c562f)" d="M 428.027822 339.861659 
L 428.027822 192.188514 
" style="fill:none;stroke:#000000;stroke-linecap:square;stroke-opacity:0.2;stroke-width:0.5;"/>
     </g>
     <g id="line2d_59">
      <g>
       <use style="fill-opacity:0.2;stroke:#000000;stroke-opacity:0.2;stroke-width:0.8;" x="428.027822" xlink:href="#m7e51550fac" y="339.861659"/>
      </g>
     </g>
     <g id="text_25">
      <!-- $\mathdefault{0}$ -->
      <g transform="translate(424.540898 365.341188)scale(0.14 -0.14)">
       <use transform="scale(0.996264)" xlink:href="#URWPalladioL-Roma-30"/>
      </g>
     </g>
    </g>
    <g id="xtick_11">
     <g id="line2d_60">
      <path clip-path="url(#p30777c562f)" d="M 463.874646 339.861659 
L 463.874646 192.188514 
" style="fill:none;stroke:#000000;stroke-linecap:square;stroke-opacity:0.2;stroke-width:0.5;"/>
     </g>
     <g id="line2d_61">
      <g>
       <use style="fill-opacity:0.2;stroke:#000000;stroke-opacity:0.2;stroke-width:0.8;" x="463.874646" xlink:href="#m7e51550fac" y="339.861659"/>
      </g>
     </g>
     <g id="text_26">
      <!-- $\mathdefault{3000}$ -->
      <g transform="translate(449.92695 365.341188)scale(0.14 -0.14)">
       <use transform="scale(0.996264)" xlink:href="#URWPalladioL-Roma-33"/>
       <use transform="translate(49.8132 0)scale(0.996264)" xlink:href="#URWPalladioL-Roma-30"/>
       <use transform="translate(99.626401 0)scale(0.996264)" xlink:href="#URWPalladioL-Roma-30"/>
       <use transform="translate(149.439601 0)scale(0.996264)" xlink:href="#URWPalladioL-Roma-30"/>
      </g>
     </g>
    </g>
    <g id="xtick_12">
     <g id="line2d_62">
      <path clip-path="url(#p30777c562f)" d="M 559.7649 339.861659 
L 559.7649 192.188514 
" style="fill:none;stroke:#000000;stroke-linecap:square;stroke-opacity:0.2;stroke-width:0.5;"/>
     </g>
     <g id="line2d_63">
      <g>
       <use style="fill-opacity:0.2;stroke:#000000;stroke-opacity:0.2;stroke-width:0.8;" x="559.7649" xlink:href="#m7e51550fac" y="339.861659"/>
      </g>
     </g>
     <g id="text_27">
      <!-- $\mathdefault{11025}$ -->
      <g transform="translate(542.33028 365.341188)scale(0.14 -0.14)">
       <use transform="scale(0.996264)" xlink:href="#URWPalladioL-Roma-31"/>
       <use transform="translate(49.8132 0)scale(0.996264)" xlink:href="#URWPalladioL-Roma-31"/>
       <use transform="translate(99.626401 0)scale(0.996264)" xlink:href="#URWPalladioL-Roma-30"/>
       <use transform="translate(149.439601 0)scale(0.996264)" xlink:href="#URWPalladioL-Roma-32"/>
       <use transform="translate(199.252802 0)scale(0.996264)" xlink:href="#URWPalladioL-Roma-35"/>
      </g>
     </g>
    </g>
    <g id="text_28">
     <!-- Frequency [Hz] -->
     <g transform="translate(452.747067 381.828236)scale(0.12 -0.12)">
      <use transform="scale(0.996264)" xlink:href="#URWPalladioL-Roma-46"/>
      <use transform="translate(55.391677 0)scale(0.996264)" xlink:href="#URWPalladioL-Roma-72"/>
      <use transform="translate(92.950994 0)scale(0.996264)" xlink:href="#URWPalladioL-Roma-65"/>
      <use transform="translate(140.671289 0)scale(0.996264)" xlink:href="#URWPalladioL-Roma-71"/>
      <use transform="translate(196.461922 0)scale(0.996264)" xlink:href="#URWPalladioL-Roma-75"/>
      <use transform="translate(256.535657 0)scale(0.996264)" xlink:href="#URWPalladioL-Roma-65"/>
      <use transform="translate(304.255952 0)scale(0.996264)" xlink:href="#URWPalladioL-Roma-6e"/>
      <use transform="translate(362.238012 0)scale(0.996264)" xlink:href="#URWPalladioL-Roma-63"/>
      <use transform="translate(406.471581 0)scale(0.996264)" xlink:href="#URWPalladioL-Roma-79"/>
      <use transform="translate(486.769858 0)scale(0.996264)" xlink:href="#URWPalladioL-Roma-5b"/>
      <use transform="translate(519.945088 0)scale(0.996264)" xlink:href="#URWPalladioL-Roma-48"/>
      <use transform="translate(602.833749 0)scale(0.996264)" xlink:href="#URWPalladioL-Roma-7a"/>
      <use transform="translate(652.64695 0)scale(0.996264)" xlink:href="#URWPalladioL-Roma-5d"/>
     </g>
    </g>
   </g>
   <g id="matplotlib.axis_12">
    <g id="ytick_17">
     <g id="line2d_64">
      <path clip-path="url(#p30777c562f)" d="M 428.027822 333.554429 
L 559.7649 333.554429 
" style="fill:none;stroke:#000000;stroke-linecap:square;stroke-opacity:0.2;stroke-width:0.5;"/>
     </g>
     <g id="line2d_65">
      <g>
       <use style="fill-opacity:0.2;stroke:#000000;stroke-opacity:0.2;stroke-width:0.8;" x="428.027822" xlink:href="#m9e5aca952c" y="333.554429"/>
      </g>
     </g>
     <g id="text_29">
      <!-- $\mathdefault{−30}$ -->
      <g transform="translate(387.108283 338.544194)scale(0.14 -0.14)">
       <use transform="scale(1.038107)" xlink:href="#CMSY10-0"/>
       <use transform="translate(81.941696 0)scale(0.996264)" xlink:href="#URWPalladioL-Roma-33"/>
       <use transform="translate(131.754897 0)scale(0.996264)" xlink:href="#URWPalladioL-Roma-30"/>
      </g>
     </g>
    </g>
    <g id="ytick_18">
     <g id="line2d_66">
      <path clip-path="url(#p30777c562f)" d="M 428.027822 293.319222 
L 559.7649 293.319222 
" style="fill:none;stroke:#000000;stroke-linecap:square;stroke-opacity:0.2;stroke-width:0.5;"/>
     </g>
     <g id="line2d_67">
      <g>
       <use style="fill-opacity:0.2;stroke:#000000;stroke-opacity:0.2;stroke-width:0.8;" x="428.027822" xlink:href="#m9e5aca952c" y="293.319222"/>
      </g>
     </g>
     <g id="text_30">
      <!-- $\mathdefault{−20}$ -->
      <g transform="translate(387.108283 298.308986)scale(0.14 -0.14)">
       <use transform="scale(1.038107)" xlink:href="#CMSY10-0"/>
       <use transform="translate(81.941696 0)scale(0.996264)" xlink:href="#URWPalladioL-Roma-32"/>
       <use transform="translate(131.754897 0)scale(0.996264)" xlink:href="#URWPalladioL-Roma-30"/>
      </g>
     </g>
    </g>
    <g id="ytick_19">
     <g id="line2d_68">
      <path clip-path="url(#p30777c562f)" d="M 428.027822 253.084014 
L 559.7649 253.084014 
" style="fill:none;stroke:#000000;stroke-linecap:square;stroke-opacity:0.2;stroke-width:0.5;"/>
     </g>
     <g id="line2d_69">
      <g>
       <use style="fill-opacity:0.2;stroke:#000000;stroke-opacity:0.2;stroke-width:0.8;" x="428.027822" xlink:href="#m9e5aca952c" y="253.084014"/>
      </g>
     </g>
     <g id="text_31">
      <!-- $\mathdefault{−10}$ -->
      <g transform="translate(387.108283 258.073779)scale(0.14 -0.14)">
       <use transform="scale(1.038107)" xlink:href="#CMSY10-0"/>
       <use transform="translate(81.941696 0)scale(0.996264)" xlink:href="#URWPalladioL-Roma-31"/>
       <use transform="translate(131.754897 0)scale(0.996264)" xlink:href="#URWPalladioL-Roma-30"/>
      </g>
     </g>
    </g>
    <g id="ytick_20">
     <g id="line2d_70">
      <path clip-path="url(#p30777c562f)" d="M 428.027822 212.848806 
L 559.7649 212.848806 
" style="fill:none;stroke:#000000;stroke-linecap:square;stroke-opacity:0.2;stroke-width:0.5;"/>
     </g>
     <g id="line2d_71">
      <g>
       <use style="fill-opacity:0.2;stroke:#000000;stroke-opacity:0.2;stroke-width:0.8;" x="428.027822" xlink:href="#m9e5aca952c" y="212.848806"/>
      </g>
     </g>
     <g id="text_32">
      <!-- $\mathdefault{0}$ -->
      <g transform="translate(405.553974 217.838571)scale(0.14 -0.14)">
       <use transform="scale(0.996264)" xlink:href="#URWPalladioL-Roma-30"/>
      </g>
     </g>
    </g>
   </g>
   <g id="line2d_72">
    <g clip-path="url(#p30777c562f)">
     <use style="fill:#dc2830;" x="428.027822" xlink:href="#m5daa856625" y="200.208543"/>
     <use style="fill:#dc2830;" x="437.113137" xlink:href="#m5daa856625" y="199.772672"/>
     <use style="fill:#dc2830;" x="446.198453" xlink:href="#m5daa856625" y="199.336801"/>
     <use style="fill:#dc2830;" x="455.283769" xlink:href="#m5daa856625" y="198.90093"/>
     <use style="fill:#dc2830;" x="464.369085" xlink:href="#m5daa856625" y="211.105322"/>
     <use style="fill:#dc2830;" x="473.4544" xlink:href="#m5daa856625" y="223.309714"/>
     <use style="fill:#dc2830;" x="482.539716" xlink:href="#m5daa856625" y="235.514106"/>
     <use style="fill:#dc2830;" x="491.625032" xlink:href="#m5daa856625" y="247.718498"/>
     <use style="fill:#dc2830;" x="500.710348" xlink:href="#m5daa856625" y="259.92289"/>
     <use style="fill:#dc2830;" x="509.795663" xlink:href="#m5daa856625" y="272.127282"/>
     <use style="fill:#dc2830;" x="518.880979" xlink:href="#m5daa856625" y="284.331674"/>
     <use style="fill:#dc2830;" x="527.966295" xlink:href="#m5daa856625" y="296.536067"/>
     <use style="fill:#dc2830;" x="537.051611" xlink:href="#m5daa856625" y="308.740459"/>
     <use style="fill:#dc2830;" x="546.136926" xlink:href="#m5daa856625" y="320.944851"/>
     <use style="fill:#dc2830;" x="555.222242" xlink:href="#m5daa856625" y="333.149243"/>
    </g>
   </g>
   <g id="patch_11">
    <path clip-path="url(#p30777c562f)" d="M 428.027822 339.861659 
L 428.027822 192.188514 
L 463.874646 192.188514 
L 463.874646 339.861659 
z
" style="fill:#dc2830;opacity:0.1;stroke:#dc2830;stroke-linejoin:miter;stroke-width:0.5;"/>
   </g>
  </g>
 </g>
 <defs>
  <clipPath id="pb05729ecd7">
   <rect height="147.673145" width="131.737078" x="38.62516" y="24.315726"/>
  </clipPath>
  <clipPath id="p6d3de7bae5">
   <rect height="147.673145" width="131.737078" x="228.096105" y="24.315726"/>
  </clipPath>
  <clipPath id="p4eaddb5b69">
   <rect height="147.673145" width="131.737078" x="428.027822" y="24.315726"/>
  </clipPath>
  <clipPath id="p9d53e4e7a9">
   <rect height="147.673145" width="131.737078" x="38.62516" y="192.188514"/>
  </clipPath>
  <clipPath id="p2f749fce3b">
   <rect height="147.673145" width="131.737078" x="228.096105" y="192.188514"/>
  </clipPath>
  <clipPath id="p30777c562f">
   <rect height="147.673145" width="131.737078" x="428.027822" y="192.188514"/>
  </clipPath>
 </defs>
</svg>
