<?xml version="1.0" encoding="utf-8" standalone="no"?>
<!DOCTYPE svg PUBLIC "-//W3C//DTD SVG 1.1//EN"
  "http://www.w3.org/Graphics/SVG/1.1/DTD/svg11.dtd">
<svg height="200.39952pt" version="1.1" viewBox="0 0 584.39952 200.39952" width="584.39952pt" xmlns="http://www.w3.org/2000/svg" xmlns:xlink="http://www.w3.org/1999/xlink">
 <metadata>
  <rdf:RDF xmlns:cc="http://creativecommons.org/ns#" xmlns:dc="http://purl.org/dc/elements/1.1/" xmlns:rdf="http://www.w3.org/1999/02/22-rdf-syntax-ns#">
   <cc:Work>
    <dc:type rdf:resource="http://purl.org/dc/dcmitype/StillImage"/>
    <dc:date>2021-08-20T09:52:39.563571</dc:date>
    <dc:format>image/svg+xml</dc:format>
    <dc:creator>
     <cc:Agent>
      <dc:title>Matplotlib v3.4.2, https://matplotlib.org/</dc:title>
     </cc:Agent>
    </dc:creator>
   </cc:Work>
  </rdf:RDF>
 </metadata>
 <defs>
  <style type="text/css">*{stroke-linecap:butt;stroke-linejoin:round;}</style>
 </defs>
 <g id="figure_1">
  <g id="patch_1">
   <path d="M 0 200.39952 
L 584.39952 200.39952 
L 584.39952 0 
L 0 0 
z
" style="fill:none;"/>
  </g>
  <g id="axes_1">
   <g id="patch_2">
    <path d="M 43.802719 147.861659 
L 280.067262 147.861659 
L 280.067262 24.399335 
L 43.802719 24.399335 
z
" style="fill:none;"/>
   </g>
   <g id="patch_3">
    <path clip-path="url(#p9e62c64890)" d="M 163.810106 147.861659 
L 163.810106 24.399335 
L 280.067262 24.399335 
L 280.067262 147.861659 
z
" style="fill:#343837;opacity:0.1;stroke:#343837;stroke-linejoin:miter;stroke-width:0.5;"/>
   </g>
   <g id="matplotlib.axis_1">
    <g id="xtick_1">
     <g id="line2d_1">
      <path clip-path="url(#p9e62c64890)" d="M 43.802719 147.861659 
L 43.802719 24.399335 
" style="fill:none;stroke:#000000;stroke-linejoin:miter;stroke-opacity:0.2;stroke-width:0.5;"/>
     </g>
     <g id="line2d_2">
      <defs>
       <path d="M 0 0 
L 0 3.5 
" id="maa553c4a9c" style="stroke:#000000;stroke-opacity:0.2;stroke-width:0.8;"/>
      </defs>
      <g>
       <use style="fill-opacity:0.2;stroke:#000000;stroke-opacity:0.2;stroke-width:0.8;" x="43.802719" xlink:href="#maa553c4a9c" y="147.861659"/>
      </g>
     </g>
     <g id="text_1">
      <!-- $\mathdefault{0}$ -->
      <g transform="translate(40.315795 173.341188)scale(0.14 -0.14)">
       <defs>
        <path d="M 1683 4416 
C 691 4416 186 3628 186 2076 
C 186 1326 320 679 544 365 
C 768 51 1126 -128 1523 -128 
C 2490 -128 2976 704 2976 2345 
C 2976 3749 2560 4416 1683 4416 
z
M 1568 4191 
C 2189 4191 2438 3563 2438 2025 
C 2438 660 2195 96 1606 96 
C 986 96 723 743 723 2307 
C 723 3660 960 4191 1568 4191 
z
" id="URWPalladioL-Roma-30" transform="scale(0.015625)"/>
       </defs>
       <use transform="scale(0.996264)" xlink:href="#URWPalladioL-Roma-30"/>
      </g>
     </g>
    </g>
    <g id="xtick_2">
     <g id="line2d_3">
      <path clip-path="url(#p9e62c64890)" d="M 163.810106 147.861659 
L 163.810106 24.399335 
" style="fill:none;stroke:#000000;stroke-linejoin:miter;stroke-opacity:0.2;stroke-width:0.5;"/>
     </g>
     <g id="line2d_4">
      <g>
       <use style="fill-opacity:0.2;stroke:#000000;stroke-opacity:0.2;stroke-width:0.8;" x="163.810106" xlink:href="#maa553c4a9c" y="147.861659"/>
      </g>
     </g>
     <g id="text_2">
      <!-- $\mathdefault{32}$ -->
      <g transform="translate(156.836258 173.341188)scale(0.14 -0.14)">
       <defs>
        <path d="M 275 3196 
L 474 3196 
L 589 3553 
C 659 3770 1062 3987 1395 3987 
C 1811 3987 2150 3649 2150 3247 
C 2150 2769 1773 2368 1318 2368 
C 1267 2368 1197 2374 1114 2380 
L 1018 2387 
L 941 2047 
L 986 2008 
C 1229 2118 1350 2150 1523 2150 
C 2054 2150 2362 1808 2362 1222 
C 2362 565 1971 134 1376 134 
C 1082 134 819 231 627 411 
C 474 553 390 701 269 1048 
L 96 984 
C 230 591 282 359 320 38 
C 659 -77 941 -128 1178 -128 
C 1690 -128 2278 160 2630 591 
C 2848 855 2957 1139 2957 1441 
C 2957 1750 2829 2021 2598 2182 
C 2438 2297 2291 2348 1971 2406 
C 2483 2801 2675 3094 2675 3470 
C 2675 4038 2202 4416 1491 4416 
C 1056 4416 768 4294 461 3987 
L 275 3196 
z
" id="URWPalladioL-Roma-33" transform="scale(0.015625)"/>
        <path d="M 102 166 
L 102 0 
C 1299 0 1299 0 1530 0 
C 1760 19 1760 19 2995 0 
C 2982 134 2982 198 2982 287 
C 2982 370 2982 434 2995 574 
C 2259 542 1965 536 781 510 
L 1946 1741 
C 2566 2398 2758 2749 2758 3228 
C 2758 3961 2259 4416 1446 4416 
C 986 4416 672 4287 358 3967 
L 250 3100 
L 435 3100 
L 518 3394 
C 621 3763 851 3923 1280 3923 
C 1830 3923 2182 3578 2182 3036 
C 2182 2558 1914 2086 1190 1320 
L 102 166 
z
" id="URWPalladioL-Roma-32" transform="scale(0.015625)"/>
       </defs>
       <use transform="scale(0.996264)" xlink:href="#URWPalladioL-Roma-33"/>
       <use transform="translate(49.8132 0)scale(0.996264)" xlink:href="#URWPalladioL-Roma-32"/>
      </g>
     </g>
    </g>
    <g id="xtick_3">
     <g id="line2d_5">
      <path clip-path="url(#p9e62c64890)" d="M 280.067262 147.861659 
L 280.067262 24.399335 
" style="fill:none;stroke:#000000;stroke-linejoin:miter;stroke-opacity:0.2;stroke-width:0.5;"/>
     </g>
     <g id="line2d_6">
      <g>
       <use style="fill-opacity:0.2;stroke:#000000;stroke-opacity:0.2;stroke-width:0.8;" x="280.067262" xlink:href="#maa553c4a9c" y="147.861659"/>
      </g>
     </g>
     <g id="text_3">
      <!-- $\mathdefault{63}$ -->
      <g transform="translate(273.093414 173.341188)scale(0.14 -0.14)">
       <defs>
        <path d="M 2662 4287 
L 2426 4396 
C 1811 4193 1549 4066 1222 3788 
C 563 3237 205 2463 205 1585 
C 205 526 717 -128 1542 -128 
C 2374 -128 2995 532 2995 1405 
C 2995 2143 2554 2624 1875 2624 
C 1555 2624 1363 2540 986 2239 
C 915 2182 909 2175 838 2124 
C 973 3275 1510 3895 2662 4237 
L 2662 4287 
z
M 1632 2239 
C 2118 2239 2445 1816 2445 1180 
C 2445 513 2118 83 1626 83 
C 1082 83 787 551 787 1411 
C 787 1636 813 1758 883 1867 
C 1024 2085 1325 2239 1632 2239 
z
" id="URWPalladioL-Roma-36" transform="scale(0.015625)"/>
       </defs>
       <use transform="scale(0.996264)" xlink:href="#URWPalladioL-Roma-36"/>
       <use transform="translate(49.8132 0)scale(0.996264)" xlink:href="#URWPalladioL-Roma-33"/>
      </g>
     </g>
    </g>
    <g id="text_4">
     <!-- Frequency index $m$ -->
     <g transform="translate(111.690987 189.828236)scale(0.12 -0.12)">
      <defs>
       <path d="M 1382 2092 
C 1562 2105 1754 2112 2042 2112 
C 2515 2112 2688 2092 2803 2035 
L 2854 1875 
L 2886 1497 
L 3078 1497 
C 3059 2092 3059 2092 3059 2208 
C 3059 2310 3059 2310 3078 2946 
L 2886 2946 
L 2854 2615 
C 2848 2558 2829 2501 2803 2450 
C 2688 2399 2509 2380 2086 2380 
C 1818 2380 1600 2387 1382 2399 
L 1382 4096 
C 1574 4140 1690 4147 2067 4147 
C 2374 4147 2733 4108 2931 4058 
C 3085 4020 3104 3988 3104 3842 
L 3104 3429 
L 3328 3429 
C 3328 3810 3360 4115 3430 4396 
C 3117 4409 2925 4416 2650 4416 
L 1965 4409 
C 1651 4396 1427 4396 1267 4396 
C 1082 4396 1082 4396 141 4416 
L 141 4223 
L 448 4204 
C 742 4185 774 4135 774 3633 
L 774 782 
C 774 280 742 230 448 211 
L 141 192 
L 141 0 
C 518 -7 742 0 1075 0 
C 1408 19 1638 12 2016 0 
L 2016 192 
L 1709 211 
C 1414 230 1382 281 1382 787 
L 1382 2092 
z
" id="URWPalladioL-Roma-46" transform="scale(0.015625)"/>
       <path d="M 147 2579 
L 384 2579 
C 640 2579 666 2534 666 2112 
L 666 672 
C 666 268 646 224 429 211 
L 134 192 
L 134 0 
C 595 -7 762 0 922 0 
C 1050 19 1050 19 1837 0 
L 1837 192 
L 1504 211 
C 1216 230 1203 249 1203 669 
L 1203 1763 
C 1203 2145 1459 2463 1773 2463 
C 1965 2463 2099 2374 2202 2171 
L 2336 2171 
L 2394 2937 
C 2323 2982 2208 3008 2093 3008 
C 1901 3008 1696 2905 1562 2745 
L 1203 2324 
L 1203 2982 
L 1146 3008 
C 819 2873 486 2783 147 2745 
L 147 2579 
z
" id="URWPalladioL-Roma-72" transform="scale(0.015625)"/>
       <path d="M 2797 447 
L 2714 511 
C 2304 268 2157 211 1882 211 
C 1466 211 1120 396 941 710 
C 819 921 774 1100 762 1472 
L 1696 1472 
C 2138 1472 2413 1491 2854 1561 
C 2861 1651 2867 1708 2867 1786 
C 2867 2526 2394 3008 1677 3008 
C 1440 3008 1165 2924 902 2771 
C 378 2468 166 2069 166 1401 
C 166 998 262 652 435 409 
C 691 70 1120 -128 1600 -128 
C 1837 -128 2074 -77 2336 38 
C 2509 108 2643 192 2669 230 
L 2797 447 
z
M 2298 1708 
C 1965 1696 1811 1689 1581 1689 
C 1286 1689 1120 1696 774 1728 
C 774 2030 800 2172 883 2339 
C 1018 2623 1293 2796 1600 2796 
C 1811 2796 1978 2713 2093 2539 
C 2234 2326 2278 2140 2298 1708 
z
" id="URWPalladioL-Roma-65" transform="scale(0.015625)"/>
       <path d="M 2515 434 
L 2515 -1118 
C 2515 -1523 2490 -1568 2278 -1581 
L 1907 -1600 
L 1907 -1792 
C 2650 -1773 2650 -1773 2797 -1773 
C 2950 -1773 3130 -1780 3584 -1792 
L 3584 -1600 
L 3290 -1581 
C 3072 -1568 3053 -1523 3053 -1118 
L 3053 2043 
C 3053 2439 3091 2681 3200 2924 
L 3078 2995 
L 2765 2796 
C 2438 2943 2163 3008 1888 3008 
C 1702 3008 1478 2956 1382 2899 
L 845 2553 
C 435 2292 224 1870 224 1315 
C 224 479 730 -64 1523 -64 
C 1658 -64 1766 -39 1850 12 
L 2515 434 
z
M 2515 779 
C 2515 690 2362 524 2189 428 
C 2035 345 1888 300 1734 300 
C 1171 300 781 824 781 1596 
C 781 2298 1139 2707 1754 2707 
C 2067 2707 2291 2630 2515 2445 
L 2515 779 
z
" id="URWPalladioL-Roma-71" transform="scale(0.015625)"/>
       <path d="M 3219 2982 
L 3162 3008 
C 2835 2873 2502 2784 2163 2745 
L 2163 2567 
L 2400 2567 
C 2656 2567 2682 2522 2682 2101 
L 2682 1060 
C 2682 920 2592 741 2445 594 
C 2266 415 2061 326 1811 326 
C 1587 326 1408 396 1306 517 
C 1216 620 1171 817 1171 1098 
L 1171 2982 
L 1114 3008 
C 787 2873 454 2784 115 2745 
L 115 2567 
L 352 2567 
C 608 2567 634 2522 634 2101 
L 634 1028 
C 634 581 672 383 787 224 
C 928 32 1171 -64 1536 -64 
C 1824 -58 2080 32 2253 192 
L 2682 588 
C 2682 403 2675 300 2656 0 
C 3085 0 3091 0 3187 0 
C 3277 19 3277 19 3718 0 
L 3718 192 
L 3456 211 
C 3238 224 3219 262 3219 672 
L 3219 2982 
z
" id="URWPalladioL-Roma-75" transform="scale(0.015625)"/>
       <path d="M 2624 0 
C 3014 0 3021 0 3130 0 
C 3219 19 3219 19 3661 0 
L 3661 192 
L 3398 211 
C 3181 223 3162 262 3162 670 
L 3162 1902 
C 3162 2649 2810 3014 2093 3014 
C 1856 3014 1722 2969 1587 2854 
L 1101 2432 
L 1101 2988 
L 1043 3008 
C 717 2873 384 2784 45 2746 
L 45 2568 
L 282 2568 
C 538 2568 563 2523 563 2103 
L 563 669 
C 563 268 544 223 326 211 
L 38 192 
L 38 0 
C 474 -7 646 0 832 0 
C 1018 19 1190 12 1626 0 
L 1626 192 
L 1338 211 
C 1120 223 1101 268 1101 670 
L 1101 2023 
C 1101 2311 1523 2624 1914 2624 
C 2342 2624 2624 2304 2624 1813 
L 2624 0 
z
" id="URWPalladioL-Roma-6e" transform="scale(0.015625)"/>
       <path d="M 2554 1995 
C 2554 2290 2586 2553 2643 2783 
C 2387 2937 2163 3008 1901 3008 
C 1594 3008 1235 2886 851 2643 
C 403 2360 166 1911 166 1347 
C 166 480 774 -128 1632 -128 
C 1965 -128 2445 -7 2509 89 
L 2643 294 
L 2579 390 
C 2342 262 2138 204 1907 204 
C 1197 204 730 756 730 1603 
C 730 2290 1050 2675 1626 2675 
C 1907 2675 2214 2547 2330 2386 
L 2374 1995 
L 2554 1995 
z
" id="URWPalladioL-Roma-63" transform="scale(0.015625)"/>
       <path d="M 1901 569 
C 1760 812 1690 960 1574 1273 
L 1165 2349 
C 1126 2457 1101 2553 1101 2617 
C 1101 2707 1171 2758 1318 2765 
L 1562 2777 
L 1562 2957 
C 941 2937 941 2937 819 2937 
C 698 2937 698 2937 77 2957 
L 77 2777 
L 192 2765 
C 352 2745 429 2675 525 2451 
L 1222 774 
C 1402 339 1466 185 1581 -135 
L 1434 -525 
C 1229 -1063 979 -1364 736 -1364 
C 634 -1364 518 -1312 410 -1216 
L 326 -1216 
L 173 -1696 
C 294 -1760 397 -1792 518 -1792 
C 947 -1792 1222 -1562 1466 -1005 
L 2765 1990 
C 3021 2573 3142 2745 3302 2765 
L 3482 2777 
L 3482 2957 
C 2976 2937 2976 2937 2874 2937 
C 2771 2937 2771 2937 2266 2957 
L 2266 2777 
L 2432 2765 
C 2611 2752 2701 2694 2701 2605 
C 2701 2560 2688 2502 2662 2438 
L 1901 569 
z
" id="URWPalladioL-Roma-79" transform="scale(0.015625)"/>
       <path d="M 1203 2982 
L 1146 3008 
C 819 2873 486 2784 147 2746 
L 147 2568 
L 384 2568 
C 640 2568 666 2523 666 2103 
L 666 669 
C 666 268 646 223 429 211 
L 134 192 
L 134 0 
C 774 0 774 0 934 0 
C 1094 19 1094 19 1734 0 
L 1734 192 
L 1440 211 
C 1222 224 1203 268 1203 671 
L 1203 2982 
z
M 909 4416 
C 717 4416 550 4249 550 4057 
C 550 3871 717 3705 902 3705 
C 1088 3705 1261 3871 1261 4057 
C 1261 4236 1088 4416 909 4416 
z
" id="URWPalladioL-Roma-69" transform="scale(0.015625)"/>
       <path d="M 2637 2803 
C 2278 2956 2099 3008 1875 3008 
C 1702 3008 1549 2969 1389 2886 
L 826 2592 
C 461 2400 224 1934 224 1392 
C 224 881 397 460 710 204 
C 928 19 1229 -64 1645 -64 
C 1773 -64 1920 -39 1952 -13 
L 2662 581 
L 2630 0 
C 2944 -7 3046 0 3123 0 
C 3174 0 3264 0 3398 -7 
C 3443 6 3571 6 3706 0 
L 3706 192 
L 3411 211 
C 3194 224 3174 268 3174 672 
L 3174 4614 
L 3117 4665 
C 2835 4557 2624 4505 2118 4429 
L 2118 4249 
L 2477 4249 
C 2592 4249 2637 4179 2637 3987 
L 2637 2803 
z
M 2637 1424 
C 2637 1009 2624 945 2541 798 
C 2362 498 2048 300 1747 300 
C 1184 300 781 843 781 1602 
C 781 2298 1126 2707 1702 2707 
C 1946 2707 2202 2624 2426 2470 
C 2560 2381 2637 2298 2637 2247 
L 2637 1424 
z
" id="URWPalladioL-Roma-64" transform="scale(0.015625)"/>
       <path d="M 1843 1631 
L 2752 2694 
C 2790 2739 2861 2764 2970 2764 
L 3059 2764 
L 3059 2944 
L 2534 2944 
L 1741 1823 
L 1254 2566 
C 1158 2706 1088 2790 870 3008 
L 128 2879 
L 160 2713 
L 294 2700 
C 410 2693 550 2604 614 2514 
L 1382 1398 
L 429 269 
C 384 211 301 172 237 172 
L 128 172 
L 128 0 
L 678 0 
C 723 70 736 96 813 211 
C 915 390 1018 551 1062 602 
L 1536 1231 
L 2221 192 
L 2227 179 
C 2285 108 2336 44 2387 0 
C 2720 0 2720 0 2778 0 
C 2842 19 2842 19 3174 0 
L 3174 172 
L 3014 192 
C 2938 198 2861 249 2790 345 
L 1843 1631 
z
" id="URWPalladioL-Roma-78" transform="scale(0.015625)"/>
       <path d="M 4672 651 
L 4506 542 
C 4320 421 4179 351 4115 351 
C 4070 351 4032 408 4032 479 
C 4032 542 4045 600 4077 734 
L 4557 2631 
C 4582 2739 4602 2841 4602 2892 
C 4602 3001 4538 3072 4435 3072 
C 4250 3072 4006 2956 3616 2682 
C 3213 2394 2989 2171 2675 1730 
L 2867 2605 
C 2893 2733 2912 2829 2912 2873 
C 2912 2995 2848 3072 2746 3072 
C 2554 3072 2259 2931 1907 2663 
C 1626 2445 1498 2311 1082 1749 
L 1293 2599 
C 1318 2701 1331 2797 1331 2873 
C 1331 2995 1274 3072 1184 3072 
C 1050 3072 806 2937 333 2599 
L 154 2471 
L 198 2343 
L 403 2477 
C 640 2624 659 2637 704 2637 
C 774 2637 819 2573 819 2477 
C 819 2152 557 919 294 6 
L 314 -64 
L 749 32 
L 890 683 
C 1043 1392 1216 1769 1568 2152 
C 1837 2445 2125 2637 2304 2637 
C 2349 2637 2374 2586 2374 2503 
C 2374 2279 2234 1551 1971 434 
L 1869 6 
L 1901 -64 
L 2342 32 
L 2477 715 
C 2579 1232 2797 1711 3078 2024 
C 3430 2413 3750 2637 3955 2637 
C 4006 2637 4038 2579 4038 2477 
C 4038 2324 4019 2235 3878 1679 
C 3776 1277 3667 894 3603 677 
C 3546 498 3520 332 3520 191 
C 3520 32 3590 -64 3712 -64 
C 3878 -64 4109 70 4736 536 
L 4672 651 
z
" id="URWPalladioL-Ital-6d" transform="scale(0.015625)"/>
      </defs>
      <use transform="scale(0.996264)" xlink:href="#URWPalladioL-Roma-46"/>
      <use transform="translate(55.391677 0)scale(0.996264)" xlink:href="#URWPalladioL-Roma-72"/>
      <use transform="translate(92.950994 0)scale(0.996264)" xlink:href="#URWPalladioL-Roma-65"/>
      <use transform="translate(140.671289 0)scale(0.996264)" xlink:href="#URWPalladioL-Roma-71"/>
      <use transform="translate(196.461922 0)scale(0.996264)" xlink:href="#URWPalladioL-Roma-75"/>
      <use transform="translate(256.535657 0)scale(0.996264)" xlink:href="#URWPalladioL-Roma-65"/>
      <use transform="translate(304.255952 0)scale(0.996264)" xlink:href="#URWPalladioL-Roma-6e"/>
      <use transform="translate(362.238012 0)scale(0.996264)" xlink:href="#URWPalladioL-Roma-63"/>
      <use transform="translate(406.471581 0)scale(0.996264)" xlink:href="#URWPalladioL-Roma-79"/>
      <use transform="translate(486.769858 0)scale(0.996264)" xlink:href="#URWPalladioL-Roma-69"/>
      <use transform="translate(515.76022 0)scale(0.996264)" xlink:href="#URWPalladioL-Roma-6e"/>
      <use transform="translate(573.742281 0)scale(0.996264)" xlink:href="#URWPalladioL-Roma-64"/>
      <use transform="translate(634.613911 0)scale(0.996264)" xlink:href="#URWPalladioL-Roma-65"/>
      <use transform="translate(682.334206 0)scale(0.996264)" xlink:href="#URWPalladioL-Roma-78"/>
      <use transform="translate(759.892453 0)scale(0.996264)" xlink:href="#URWPalladioL-Ital-6d"/>
     </g>
    </g>
   </g>
   <g id="matplotlib.axis_2">
    <g id="ytick_1">
     <g id="line2d_7">
      <path clip-path="url(#p9e62c64890)" d="M 43.802719 144.031298 
L 280.067262 144.031298 
" style="fill:none;stroke:#000000;stroke-linejoin:miter;stroke-opacity:0.2;stroke-width:0.5;"/>
     </g>
     <g id="line2d_8">
      <defs>
       <path d="M 0 0 
L -3.5 0 
" id="mae4318548c" style="stroke:#000000;stroke-opacity:0.2;stroke-width:0.8;"/>
      </defs>
      <g>
       <use style="fill-opacity:0.2;stroke:#000000;stroke-opacity:0.2;stroke-width:0.8;" x="43.802719" xlink:href="#mae4318548c" y="144.031298"/>
      </g>
     </g>
     <g id="text_5">
      <!-- $-\pi$ -->
      <g transform="translate(7.2 149.021063)scale(0.14 -0.14)">
       <defs>
        <path d="M 4218 1472 
C 4326 1472 4442 1472 4442 1600 
C 4442 1728 4326 1728 4218 1728 
L 755 1728 
C 646 1728 531 1728 531 1600 
C 531 1472 646 1472 755 1472 
L 4218 1472 
z
" id="CMSY10-0" transform="scale(0.015625)"/>
        <path d="M 614 2255 
L 672 2299 
C 806 2681 1062 2700 1427 2700 
C 1504 2700 1619 2694 1754 2694 
C 1216 1242 973 803 454 -7 
L 512 -64 
L 986 102 
C 1216 599 1606 1567 1958 2688 
L 3149 2624 
C 3040 2232 2669 1089 2669 685 
C 2669 19 2912 -64 3110 -64 
C 3437 -64 3622 19 4026 356 
L 3974 476 
L 3821 369 
C 3840 382 3654 236 3546 236 
C 3245 236 3155 419 3155 811 
C 3155 969 3168 1139 3206 1323 
C 3315 1847 3424 2365 3482 2624 
C 3629 2624 3776 2630 3923 2649 
C 4038 2649 4179 2713 4282 2752 
C 4352 2905 4378 2918 4499 3072 
L 4454 3136 
C 4282 3075 3994 3008 3782 3008 
C 3706 3001 3546 2995 3386 2995 
C 2701 3020 1645 3072 1363 3072 
C 883 3072 710 2860 525 2306 
L 614 2255 
z
" id="PazoMath-Italic-70" transform="scale(0.015625)"/>
       </defs>
       <use transform="scale(1.038107)" xlink:href="#CMSY10-0"/>
       <use transform="translate(83.186996 0)scale(0.996264)" xlink:href="#PazoMath-Italic-70"/>
      </g>
     </g>
    </g>
    <g id="ytick_2">
     <g id="line2d_9">
      <path clip-path="url(#p9e62c64890)" d="M 43.802719 87.021279 
L 280.067262 87.021279 
" style="fill:none;stroke:#000000;stroke-linejoin:miter;stroke-opacity:0.2;stroke-width:0.5;"/>
     </g>
     <g id="line2d_10">
      <g>
       <use style="fill-opacity:0.2;stroke:#000000;stroke-opacity:0.2;stroke-width:0.8;" x="43.802719" xlink:href="#mae4318548c" y="87.021279"/>
      </g>
     </g>
     <g id="text_6">
      <!-- 0 -->
      <g transform="translate(21.328871 92.011043)scale(0.14 -0.14)">
       <use transform="scale(0.996264)" xlink:href="#URWPalladioL-Roma-30"/>
      </g>
     </g>
    </g>
    <g id="ytick_3">
     <g id="line2d_11">
      <path clip-path="url(#p9e62c64890)" d="M 43.802719 30.011259 
L 280.067262 30.011259 
" style="fill:none;stroke:#000000;stroke-linejoin:miter;stroke-opacity:0.2;stroke-width:0.5;"/>
     </g>
     <g id="line2d_12">
      <g>
       <use style="fill-opacity:0.2;stroke:#000000;stroke-opacity:0.2;stroke-width:0.8;" x="43.802719" xlink:href="#mae4318548c" y="30.011259"/>
      </g>
     </g>
     <g id="text_7">
      <!-- $\pi$ -->
      <g transform="translate(18.846177 35.001024)scale(0.14 -0.14)">
       <use transform="scale(0.996264)" xlink:href="#PazoMath-Italic-70"/>
      </g>
     </g>
    </g>
   </g>
   <g id="line2d_13">
    <defs>
     <path d="M -2.5 2.5 
L 2.5 2.5 
L 2.5 -2.5 
L -2.5 -2.5 
z
" id="md41bb3bb65"/>
    </defs>
    <g clip-path="url(#p9e62c64890)">
     <use style="fill:#0271ae;" x="43.802719" xlink:href="#md41bb3bb65" y="87.021279"/>
     <use style="fill:#0271ae;" x="47.55295" xlink:href="#md41bb3bb65" y="88.802842"/>
     <use style="fill:#0271ae;" x="51.303181" xlink:href="#md41bb3bb65" y="90.584405"/>
     <use style="fill:#0271ae;" x="55.053412" xlink:href="#md41bb3bb65" y="92.365968"/>
     <use style="fill:#0271ae;" x="58.803642" xlink:href="#md41bb3bb65" y="94.147531"/>
     <use style="fill:#0271ae;" x="62.553873" xlink:href="#md41bb3bb65" y="95.929094"/>
     <use style="fill:#0271ae;" x="66.304104" xlink:href="#md41bb3bb65" y="97.710657"/>
     <use style="fill:#0271ae;" x="70.054335" xlink:href="#md41bb3bb65" y="99.49222"/>
     <use style="fill:#0271ae;" x="73.804566" xlink:href="#md41bb3bb65" y="101.273783"/>
     <use style="fill:#0271ae;" x="77.554797" xlink:href="#md41bb3bb65" y="103.055347"/>
     <use style="fill:#0271ae;" x="81.305027" xlink:href="#md41bb3bb65" y="104.83691"/>
     <use style="fill:#0271ae;" x="85.055258" xlink:href="#md41bb3bb65" y="106.618473"/>
     <use style="fill:#0271ae;" x="88.805489" xlink:href="#md41bb3bb65" y="108.400036"/>
     <use style="fill:#0271ae;" x="92.55572" xlink:href="#md41bb3bb65" y="110.181599"/>
     <use style="fill:#0271ae;" x="96.305951" xlink:href="#md41bb3bb65" y="111.963162"/>
     <use style="fill:#0271ae;" x="100.056182" xlink:href="#md41bb3bb65" y="113.744725"/>
     <use style="fill:#0271ae;" x="103.806413" xlink:href="#md41bb3bb65" y="115.526288"/>
     <use style="fill:#0271ae;" x="107.556643" xlink:href="#md41bb3bb65" y="117.307851"/>
     <use style="fill:#0271ae;" x="111.306874" xlink:href="#md41bb3bb65" y="119.089414"/>
     <use style="fill:#0271ae;" x="115.057105" xlink:href="#md41bb3bb65" y="120.870978"/>
     <use style="fill:#0271ae;" x="118.807336" xlink:href="#md41bb3bb65" y="122.652541"/>
     <use style="fill:#0271ae;" x="122.557567" xlink:href="#md41bb3bb65" y="124.434104"/>
     <use style="fill:#0271ae;" x="126.307798" xlink:href="#md41bb3bb65" y="126.215667"/>
     <use style="fill:#0271ae;" x="130.058028" xlink:href="#md41bb3bb65" y="127.99723"/>
     <use style="fill:#0271ae;" x="133.808259" xlink:href="#md41bb3bb65" y="129.778793"/>
     <use style="fill:#0271ae;" x="137.55849" xlink:href="#md41bb3bb65" y="131.560356"/>
     <use style="fill:#0271ae;" x="141.308721" xlink:href="#md41bb3bb65" y="133.341919"/>
     <use style="fill:#0271ae;" x="145.058952" xlink:href="#md41bb3bb65" y="135.123482"/>
     <use style="fill:#0271ae;" x="148.809183" xlink:href="#md41bb3bb65" y="136.905045"/>
     <use style="fill:#0271ae;" x="152.559413" xlink:href="#md41bb3bb65" y="138.686609"/>
     <use style="fill:#0271ae;" x="156.309644" xlink:href="#md41bb3bb65" y="140.468172"/>
     <use style="fill:#0271ae;" x="160.059875" xlink:href="#md41bb3bb65" y="142.249735"/>
     <use style="fill:#0271ae;" x="163.810106" xlink:href="#md41bb3bb65" y="30.011259"/>
     <use style="fill:#0271ae;" x="167.560337" xlink:href="#md41bb3bb65" y="31.792822"/>
     <use style="fill:#0271ae;" x="171.310568" xlink:href="#md41bb3bb65" y="33.574385"/>
     <use style="fill:#0271ae;" x="175.060799" xlink:href="#md41bb3bb65" y="35.355949"/>
     <use style="fill:#0271ae;" x="178.811029" xlink:href="#md41bb3bb65" y="37.137512"/>
     <use style="fill:#0271ae;" x="182.56126" xlink:href="#md41bb3bb65" y="38.919075"/>
     <use style="fill:#0271ae;" x="186.311491" xlink:href="#md41bb3bb65" y="40.700638"/>
     <use style="fill:#0271ae;" x="190.061722" xlink:href="#md41bb3bb65" y="42.482201"/>
     <use style="fill:#0271ae;" x="193.811953" xlink:href="#md41bb3bb65" y="44.263764"/>
     <use style="fill:#0271ae;" x="197.562184" xlink:href="#md41bb3bb65" y="46.045327"/>
     <use style="fill:#0271ae;" x="201.312414" xlink:href="#md41bb3bb65" y="47.82689"/>
     <use style="fill:#0271ae;" x="205.062645" xlink:href="#md41bb3bb65" y="49.608453"/>
     <use style="fill:#0271ae;" x="208.812876" xlink:href="#md41bb3bb65" y="51.390017"/>
     <use style="fill:#0271ae;" x="212.563107" xlink:href="#md41bb3bb65" y="53.17158"/>
     <use style="fill:#0271ae;" x="216.313338" xlink:href="#md41bb3bb65" y="54.953143"/>
     <use style="fill:#0271ae;" x="220.063569" xlink:href="#md41bb3bb65" y="56.734706"/>
     <use style="fill:#0271ae;" x="223.813799" xlink:href="#md41bb3bb65" y="58.516269"/>
     <use style="fill:#0271ae;" x="227.56403" xlink:href="#md41bb3bb65" y="60.297832"/>
     <use style="fill:#0271ae;" x="231.314261" xlink:href="#md41bb3bb65" y="62.079395"/>
     <use style="fill:#0271ae;" x="235.064492" xlink:href="#md41bb3bb65" y="63.860958"/>
     <use style="fill:#0271ae;" x="238.814723" xlink:href="#md41bb3bb65" y="65.642521"/>
     <use style="fill:#0271ae;" x="242.564954" xlink:href="#md41bb3bb65" y="67.424084"/>
     <use style="fill:#0271ae;" x="246.315184" xlink:href="#md41bb3bb65" y="69.205648"/>
     <use style="fill:#0271ae;" x="250.065415" xlink:href="#md41bb3bb65" y="70.987211"/>
     <use style="fill:#0271ae;" x="253.815646" xlink:href="#md41bb3bb65" y="72.768774"/>
     <use style="fill:#0271ae;" x="257.565877" xlink:href="#md41bb3bb65" y="74.550337"/>
     <use style="fill:#0271ae;" x="261.316108" xlink:href="#md41bb3bb65" y="76.3319"/>
     <use style="fill:#0271ae;" x="265.066339" xlink:href="#md41bb3bb65" y="78.113463"/>
     <use style="fill:#0271ae;" x="268.81657" xlink:href="#md41bb3bb65" y="79.895026"/>
     <use style="fill:#0271ae;" x="272.5668" xlink:href="#md41bb3bb65" y="81.676589"/>
     <use style="fill:#0271ae;" x="276.317031" xlink:href="#md41bb3bb65" y="83.458152"/>
     <use style="fill:#0271ae;" x="280.067262" xlink:href="#md41bb3bb65" y="85.239715"/>
    </g>
   </g>
   <g id="line2d_14">
    <defs>
     <path d="M -2.5 2.5 
L 2.5 2.5 
L 2.5 -2.5 
L -2.5 -2.5 
z
" id="mb80aa36d60"/>
    </defs>
    <g clip-path="url(#p9e62c64890)">
     <use style="fill:#dc2830;" x="43.802719" xlink:href="#mb80aa36d60" y="87.021279"/>
     <use style="fill:#dc2830;" x="47.55295" xlink:href="#mb80aa36d60" y="92.365968"/>
     <use style="fill:#dc2830;" x="51.303181" xlink:href="#mb80aa36d60" y="97.710657"/>
     <use style="fill:#dc2830;" x="55.053412" xlink:href="#mb80aa36d60" y="103.055347"/>
     <use style="fill:#dc2830;" x="58.803642" xlink:href="#mb80aa36d60" y="108.400036"/>
     <use style="fill:#dc2830;" x="62.553873" xlink:href="#mb80aa36d60" y="113.744725"/>
     <use style="fill:#dc2830;" x="66.304104" xlink:href="#mb80aa36d60" y="119.089414"/>
     <use style="fill:#dc2830;" x="70.054335" xlink:href="#mb80aa36d60" y="124.434104"/>
     <use style="fill:#dc2830;" x="73.804566" xlink:href="#mb80aa36d60" y="129.778793"/>
     <use style="fill:#dc2830;" x="77.554797" xlink:href="#mb80aa36d60" y="135.123482"/>
     <use style="fill:#dc2830;" x="81.305027" xlink:href="#mb80aa36d60" y="140.468172"/>
     <use style="fill:#dc2830;" x="85.055258" xlink:href="#mb80aa36d60" y="31.792822"/>
     <use style="fill:#dc2830;" x="88.805489" xlink:href="#mb80aa36d60" y="37.137512"/>
     <use style="fill:#dc2830;" x="92.55572" xlink:href="#mb80aa36d60" y="42.482201"/>
     <use style="fill:#dc2830;" x="96.305951" xlink:href="#mb80aa36d60" y="47.82689"/>
     <use style="fill:#dc2830;" x="100.056182" xlink:href="#mb80aa36d60" y="53.17158"/>
     <use style="fill:#dc2830;" x="103.806413" xlink:href="#mb80aa36d60" y="58.516269"/>
     <use style="fill:#dc2830;" x="107.556643" xlink:href="#mb80aa36d60" y="63.860958"/>
     <use style="fill:#dc2830;" x="111.306874" xlink:href="#mb80aa36d60" y="69.205648"/>
     <use style="fill:#dc2830;" x="115.057105" xlink:href="#mb80aa36d60" y="74.550337"/>
     <use style="fill:#dc2830;" x="118.807336" xlink:href="#mb80aa36d60" y="79.895026"/>
     <use style="fill:#dc2830;" x="122.557567" xlink:href="#mb80aa36d60" y="85.239715"/>
     <use style="fill:#dc2830;" x="126.307798" xlink:href="#mb80aa36d60" y="90.584405"/>
     <use style="fill:#dc2830;" x="130.058028" xlink:href="#mb80aa36d60" y="95.929094"/>
     <use style="fill:#dc2830;" x="133.808259" xlink:href="#mb80aa36d60" y="101.273783"/>
     <use style="fill:#dc2830;" x="137.55849" xlink:href="#mb80aa36d60" y="106.618473"/>
     <use style="fill:#dc2830;" x="141.308721" xlink:href="#mb80aa36d60" y="111.963162"/>
     <use style="fill:#dc2830;" x="145.058952" xlink:href="#mb80aa36d60" y="117.307851"/>
     <use style="fill:#dc2830;" x="148.809183" xlink:href="#mb80aa36d60" y="122.652541"/>
     <use style="fill:#dc2830;" x="152.559413" xlink:href="#mb80aa36d60" y="127.99723"/>
     <use style="fill:#dc2830;" x="156.309644" xlink:href="#mb80aa36d60" y="133.341919"/>
     <use style="fill:#dc2830;" x="160.059875" xlink:href="#mb80aa36d60" y="138.686609"/>
     <use style="fill:#dc2830;" x="163.810106" xlink:href="#mb80aa36d60" y="30.011259"/>
     <use style="fill:#dc2830;" x="167.560337" xlink:href="#mb80aa36d60" y="35.355949"/>
     <use style="fill:#dc2830;" x="171.310568" xlink:href="#mb80aa36d60" y="40.700638"/>
     <use style="fill:#dc2830;" x="175.060799" xlink:href="#mb80aa36d60" y="46.045327"/>
     <use style="fill:#dc2830;" x="178.811029" xlink:href="#mb80aa36d60" y="51.390017"/>
     <use style="fill:#dc2830;" x="182.56126" xlink:href="#mb80aa36d60" y="56.734706"/>
     <use style="fill:#dc2830;" x="186.311491" xlink:href="#mb80aa36d60" y="62.079395"/>
     <use style="fill:#dc2830;" x="190.061722" xlink:href="#mb80aa36d60" y="67.424084"/>
     <use style="fill:#dc2830;" x="193.811953" xlink:href="#mb80aa36d60" y="72.768774"/>
     <use style="fill:#dc2830;" x="197.562184" xlink:href="#mb80aa36d60" y="78.113463"/>
     <use style="fill:#dc2830;" x="201.312414" xlink:href="#mb80aa36d60" y="83.458152"/>
     <use style="fill:#dc2830;" x="205.062645" xlink:href="#mb80aa36d60" y="88.802842"/>
     <use style="fill:#dc2830;" x="208.812876" xlink:href="#mb80aa36d60" y="94.147531"/>
     <use style="fill:#dc2830;" x="212.563107" xlink:href="#mb80aa36d60" y="99.49222"/>
     <use style="fill:#dc2830;" x="216.313338" xlink:href="#mb80aa36d60" y="104.83691"/>
     <use style="fill:#dc2830;" x="220.063569" xlink:href="#mb80aa36d60" y="110.181599"/>
     <use style="fill:#dc2830;" x="223.813799" xlink:href="#mb80aa36d60" y="115.526288"/>
     <use style="fill:#dc2830;" x="227.56403" xlink:href="#mb80aa36d60" y="120.870978"/>
     <use style="fill:#dc2830;" x="231.314261" xlink:href="#mb80aa36d60" y="126.215667"/>
     <use style="fill:#dc2830;" x="235.064492" xlink:href="#mb80aa36d60" y="131.560356"/>
     <use style="fill:#dc2830;" x="238.814723" xlink:href="#mb80aa36d60" y="136.905045"/>
     <use style="fill:#dc2830;" x="242.564954" xlink:href="#mb80aa36d60" y="142.249735"/>
     <use style="fill:#dc2830;" x="246.315184" xlink:href="#mb80aa36d60" y="33.574385"/>
     <use style="fill:#dc2830;" x="250.065415" xlink:href="#mb80aa36d60" y="38.919075"/>
     <use style="fill:#dc2830;" x="253.815646" xlink:href="#mb80aa36d60" y="44.263764"/>
     <use style="fill:#dc2830;" x="257.565877" xlink:href="#mb80aa36d60" y="49.608453"/>
     <use style="fill:#dc2830;" x="261.316108" xlink:href="#mb80aa36d60" y="54.953143"/>
     <use style="fill:#dc2830;" x="265.066339" xlink:href="#mb80aa36d60" y="60.297832"/>
     <use style="fill:#dc2830;" x="268.81657" xlink:href="#mb80aa36d60" y="65.642521"/>
     <use style="fill:#dc2830;" x="272.5668" xlink:href="#mb80aa36d60" y="70.987211"/>
     <use style="fill:#dc2830;" x="276.317031" xlink:href="#mb80aa36d60" y="76.3319"/>
     <use style="fill:#dc2830;" x="280.067262" xlink:href="#mb80aa36d60" y="81.676589"/>
    </g>
   </g>
   <g id="line2d_15">
    <defs>
     <path d="M -2.5 2.5 
L 2.5 2.5 
L 2.5 -2.5 
L -2.5 -2.5 
z
" id="mf55d1d6e43"/>
    </defs>
    <g clip-path="url(#p9e62c64890)">
     <use style="fill:#007d4d;" x="43.802719" xlink:href="#mf55d1d6e43" y="87.021279"/>
     <use style="fill:#007d4d;" x="47.55295" xlink:href="#mf55d1d6e43" y="99.49222"/>
     <use style="fill:#007d4d;" x="51.303181" xlink:href="#mf55d1d6e43" y="111.963162"/>
     <use style="fill:#007d4d;" x="55.053412" xlink:href="#mf55d1d6e43" y="124.434104"/>
     <use style="fill:#007d4d;" x="58.803642" xlink:href="#mf55d1d6e43" y="136.905045"/>
     <use style="fill:#007d4d;" x="62.553873" xlink:href="#mf55d1d6e43" y="35.355949"/>
     <use style="fill:#007d4d;" x="66.304104" xlink:href="#mf55d1d6e43" y="47.82689"/>
     <use style="fill:#007d4d;" x="70.054335" xlink:href="#mf55d1d6e43" y="60.297832"/>
     <use style="fill:#007d4d;" x="73.804566" xlink:href="#mf55d1d6e43" y="72.768774"/>
     <use style="fill:#007d4d;" x="77.554797" xlink:href="#mf55d1d6e43" y="85.239715"/>
     <use style="fill:#007d4d;" x="81.305027" xlink:href="#mf55d1d6e43" y="97.710657"/>
     <use style="fill:#007d4d;" x="85.055258" xlink:href="#mf55d1d6e43" y="110.181599"/>
     <use style="fill:#007d4d;" x="88.805489" xlink:href="#mf55d1d6e43" y="122.652541"/>
     <use style="fill:#007d4d;" x="92.55572" xlink:href="#mf55d1d6e43" y="135.123482"/>
     <use style="fill:#007d4d;" x="96.305951" xlink:href="#mf55d1d6e43" y="33.574385"/>
     <use style="fill:#007d4d;" x="100.056182" xlink:href="#mf55d1d6e43" y="46.045327"/>
     <use style="fill:#007d4d;" x="103.806413" xlink:href="#mf55d1d6e43" y="58.516269"/>
     <use style="fill:#007d4d;" x="107.556643" xlink:href="#mf55d1d6e43" y="70.987211"/>
     <use style="fill:#007d4d;" x="111.306874" xlink:href="#mf55d1d6e43" y="83.458152"/>
     <use style="fill:#007d4d;" x="115.057105" xlink:href="#mf55d1d6e43" y="95.929094"/>
     <use style="fill:#007d4d;" x="118.807336" xlink:href="#mf55d1d6e43" y="108.400036"/>
     <use style="fill:#007d4d;" x="122.557567" xlink:href="#mf55d1d6e43" y="120.870978"/>
     <use style="fill:#007d4d;" x="126.307798" xlink:href="#mf55d1d6e43" y="133.341919"/>
     <use style="fill:#007d4d;" x="130.058028" xlink:href="#mf55d1d6e43" y="31.792822"/>
     <use style="fill:#007d4d;" x="133.808259" xlink:href="#mf55d1d6e43" y="44.263764"/>
     <use style="fill:#007d4d;" x="137.55849" xlink:href="#mf55d1d6e43" y="56.734706"/>
     <use style="fill:#007d4d;" x="141.308721" xlink:href="#mf55d1d6e43" y="69.205648"/>
     <use style="fill:#007d4d;" x="145.058952" xlink:href="#mf55d1d6e43" y="81.676589"/>
     <use style="fill:#007d4d;" x="148.809183" xlink:href="#mf55d1d6e43" y="94.147531"/>
     <use style="fill:#007d4d;" x="152.559413" xlink:href="#mf55d1d6e43" y="106.618473"/>
     <use style="fill:#007d4d;" x="156.309644" xlink:href="#mf55d1d6e43" y="119.089414"/>
     <use style="fill:#007d4d;" x="160.059875" xlink:href="#mf55d1d6e43" y="131.560356"/>
     <use style="fill:#007d4d;" x="163.810106" xlink:href="#mf55d1d6e43" y="30.011259"/>
     <use style="fill:#007d4d;" x="167.560337" xlink:href="#mf55d1d6e43" y="42.482201"/>
     <use style="fill:#007d4d;" x="171.310568" xlink:href="#mf55d1d6e43" y="54.953143"/>
     <use style="fill:#007d4d;" x="175.060799" xlink:href="#mf55d1d6e43" y="67.424084"/>
     <use style="fill:#007d4d;" x="178.811029" xlink:href="#mf55d1d6e43" y="79.895026"/>
     <use style="fill:#007d4d;" x="182.56126" xlink:href="#mf55d1d6e43" y="92.365968"/>
     <use style="fill:#007d4d;" x="186.311491" xlink:href="#mf55d1d6e43" y="104.83691"/>
     <use style="fill:#007d4d;" x="190.061722" xlink:href="#mf55d1d6e43" y="117.307851"/>
     <use style="fill:#007d4d;" x="193.811953" xlink:href="#mf55d1d6e43" y="129.778793"/>
     <use style="fill:#007d4d;" x="197.562184" xlink:href="#mf55d1d6e43" y="142.249735"/>
     <use style="fill:#007d4d;" x="201.312414" xlink:href="#mf55d1d6e43" y="40.700638"/>
     <use style="fill:#007d4d;" x="205.062645" xlink:href="#mf55d1d6e43" y="53.17158"/>
     <use style="fill:#007d4d;" x="208.812876" xlink:href="#mf55d1d6e43" y="65.642521"/>
     <use style="fill:#007d4d;" x="212.563107" xlink:href="#mf55d1d6e43" y="78.113463"/>
     <use style="fill:#007d4d;" x="216.313338" xlink:href="#mf55d1d6e43" y="90.584405"/>
     <use style="fill:#007d4d;" x="220.063569" xlink:href="#mf55d1d6e43" y="103.055347"/>
     <use style="fill:#007d4d;" x="223.813799" xlink:href="#mf55d1d6e43" y="115.526288"/>
     <use style="fill:#007d4d;" x="227.56403" xlink:href="#mf55d1d6e43" y="127.99723"/>
     <use style="fill:#007d4d;" x="231.314261" xlink:href="#mf55d1d6e43" y="140.468172"/>
     <use style="fill:#007d4d;" x="235.064492" xlink:href="#mf55d1d6e43" y="38.919075"/>
     <use style="fill:#007d4d;" x="238.814723" xlink:href="#mf55d1d6e43" y="51.390017"/>
     <use style="fill:#007d4d;" x="242.564954" xlink:href="#mf55d1d6e43" y="63.860958"/>
     <use style="fill:#007d4d;" x="246.315184" xlink:href="#mf55d1d6e43" y="76.3319"/>
     <use style="fill:#007d4d;" x="250.065415" xlink:href="#mf55d1d6e43" y="88.802842"/>
     <use style="fill:#007d4d;" x="253.815646" xlink:href="#mf55d1d6e43" y="101.273783"/>
     <use style="fill:#007d4d;" x="257.565877" xlink:href="#mf55d1d6e43" y="113.744725"/>
     <use style="fill:#007d4d;" x="261.316108" xlink:href="#mf55d1d6e43" y="126.215667"/>
     <use style="fill:#007d4d;" x="265.066339" xlink:href="#mf55d1d6e43" y="138.686609"/>
     <use style="fill:#007d4d;" x="268.81657" xlink:href="#mf55d1d6e43" y="37.137512"/>
     <use style="fill:#007d4d;" x="272.5668" xlink:href="#mf55d1d6e43" y="49.608453"/>
     <use style="fill:#007d4d;" x="276.317031" xlink:href="#mf55d1d6e43" y="62.079395"/>
     <use style="fill:#007d4d;" x="280.067262" xlink:href="#mf55d1d6e43" y="74.550337"/>
    </g>
   </g>
   <g id="text_8">
    <!-- Phase $\phi[m]$ -->
    <g transform="translate(127.959037 18.399335)scale(0.14 -0.14)">
     <defs>
      <path d="M 1382 4097 
C 1606 4147 1792 4172 2010 4172 
C 2701 4172 3072 3859 3072 3263 
C 3072 2699 2682 2304 2125 2304 
C 1990 2304 1894 2316 1728 2366 
L 1792 2137 
C 1946 2105 2035 2099 2163 2099 
C 3040 2099 3712 2686 3712 3439 
C 3712 4041 3213 4416 2400 4416 
C 2368 4416 2304 4416 2221 4409 
C 1984 4403 1498 4396 1312 4396 
C 1171 4396 1171 4396 147 4416 
L 147 4223 
L 435 4204 
C 723 4185 774 4103 774 3633 
L 774 782 
C 774 280 742 230 448 211 
L 141 192 
L 141 0 
C 518 -7 742 0 1075 0 
C 1408 19 1638 12 2016 0 
L 2016 192 
L 1709 211 
C 1414 230 1382 281 1382 787 
L 1382 4097 
z
" id="URWPalladioL-Roma-50" transform="scale(0.015625)"/>
      <path d="M 45 4249 
L 403 4249 
C 518 4249 563 4179 563 3987 
L 563 672 
C 563 268 544 224 326 211 
L 38 192 
L 38 0 
C 474 -7 646 0 832 0 
C 1018 19 1190 12 1626 0 
L 1626 192 
L 1338 211 
C 1120 223 1101 268 1101 670 
L 1101 2023 
C 1101 2311 1523 2624 1914 2624 
C 2342 2624 2624 2304 2624 1813 
L 2624 0 
C 3014 0 3021 0 3130 0 
C 3219 19 3219 19 3661 0 
L 3661 192 
L 3398 211 
C 3181 223 3162 262 3162 670 
L 3162 1902 
C 3162 2649 2810 3014 2093 3014 
C 1856 3014 1722 2969 1587 2854 
L 1101 2432 
L 1101 4608 
L 1043 4659 
C 762 4550 550 4499 45 4422 
L 45 4249 
z
" id="URWPalladioL-Roma-68" transform="scale(0.015625)"/>
      <path d="M 2074 544 
L 2042 0 
C 2458 0 2458 0 2541 0 
C 2573 19 2733 12 3014 0 
L 3014 192 
L 2765 204 
C 2611 211 2586 262 2586 576 
L 2586 1751 
C 2586 2688 2317 3027 1574 3027 
C 1299 3027 1043 2956 800 2809 
L 461 2604 
L 461 2187 
L 627 2142 
L 710 2341 
C 845 2642 909 2688 1203 2688 
C 1805 2688 2054 2450 2074 1866 
L 1440 1751 
C 570 1590 205 1289 205 730 
C 205 224 506 -64 1011 -64 
C 1126 -64 1235 -45 1280 -13 
L 2074 544 
z
M 2074 806 
C 1888 544 1485 300 1235 300 
C 979 300 755 537 755 812 
C 755 1049 883 1273 1075 1395 
C 1235 1491 1587 1580 2074 1651 
L 2074 806 
z
" id="URWPalladioL-Roma-61" transform="scale(0.015625)"/>
      <path d="M 262 917 
C 262 474 243 282 192 25 
C 525 -84 774 -128 1069 -128 
C 1907 -128 2502 320 2502 949 
C 2502 1148 2445 1295 2323 1423 
C 2157 1584 1946 1661 1382 1770 
C 858 1872 685 2001 685 2296 
C 685 2617 909 2796 1299 2796 
C 1728 2796 2054 2572 2054 2270 
L 2054 2123 
L 2234 2123 
C 2240 2495 2246 2649 2266 2847 
C 1926 2963 1696 3008 1434 3008 
C 691 3008 237 2655 237 2078 
C 237 1770 378 1552 672 1417 
C 845 1340 1184 1237 1619 1141 
C 1907 1077 2029 942 2029 698 
C 2029 352 1709 108 1254 108 
C 787 108 454 333 454 654 
L 454 917 
L 262 917 
z
" id="URWPalladioL-Roma-73" transform="scale(0.015625)"/>
      <path d="M 2509 4121 
C 2381 4044 2208 3968 2010 3891 
L 1882 3001 
C 1683 2950 1491 2879 1293 2784 
C 531 2415 109 1767 109 973 
C 109 293 512 -64 1261 -64 
C 1299 -64 1338 -64 1376 -58 
C 1306 -436 1197 -967 1082 -1485 
L 1030 -1722 
L 1075 -1761 
C 1210 -1716 1338 -1684 1542 -1652 
L 1805 0 
C 2112 70 2413 191 2662 357 
C 3232 731 3635 1456 3635 2110 
C 3635 2707 3187 3072 2458 3072 
C 2419 3072 2381 3072 2342 3065 
C 2419 3481 2483 3744 2579 4025 
L 2509 4121 
z
M 3149 2015 
C 3149 1399 2790 725 2342 388 
C 2208 293 2035 223 1837 191 
C 1850 274 1869 350 1875 382 
L 1990 1056 
C 2042 1348 2086 1596 2240 2485 
L 2298 2822 
C 2842 2777 3149 2498 3149 2015 
z
M 595 967 
C 595 1678 1043 2453 1536 2720 
C 1613 2758 1722 2790 1850 2809 
L 1414 185 
C 832 249 595 509 595 967 
z
" id="PazoMath-Italic-66" transform="scale(0.015625)"/>
      <path d="M 1632 -1601 
L 1632 -1344 
L 1011 -1344 
L 1011 4544 
L 1632 4544 
L 1632 4800 
L 755 4800 
L 755 -1601 
L 1632 -1601 
z
" id="CMR10-5b" transform="scale(0.015625)"/>
      <path d="M 1018 4800 
L 141 4800 
L 141 4544 
L 762 4544 
L 762 -1344 
L 141 -1344 
L 141 -1601 
L 1018 -1601 
L 1018 4800 
z
" id="CMR10-5d" transform="scale(0.015625)"/>
     </defs>
     <use transform="scale(0.996264)" xlink:href="#URWPalladioL-Roma-50"/>
     <use transform="translate(60.173595 0)scale(0.996264)" xlink:href="#URWPalladioL-Roma-68"/>
     <use transform="translate(118.155656 0)scale(0.996264)" xlink:href="#URWPalladioL-Roma-61"/>
     <use transform="translate(167.968856 0)scale(0.996264)" xlink:href="#URWPalladioL-Roma-73"/>
     <use transform="translate(210.210323 0)scale(0.996264)" xlink:href="#URWPalladioL-Roma-65"/>
     <use transform="translate(284.082518 0)scale(0.996264)" xlink:href="#PazoMath-Italic-66"/>
     <use transform="translate(345.252103 0)scale(1.038107)" xlink:href="#CMR10-5b"/>
     <use transform="translate(376.534802 0)scale(0.996264)" xlink:href="#URWPalladioL-Ital-6d"/>
     <use transform="translate(456.534836 0)scale(1.038107)" xlink:href="#CMR10-5d"/>
    </g>
   </g>
  </g>
  <g id="axes_2">
   <g id="patch_4">
    <path d="M 333.961129 147.861659 
L 570.225672 147.861659 
L 570.225672 24.399335 
L 333.961129 24.399335 
z
" style="fill:none;"/>
   </g>
   <g id="patch_5">
    <path clip-path="url(#pefbedd5ce2)" d="M 453.968516 147.861659 
L 453.968516 24.399335 
L 570.225672 24.399335 
L 570.225672 147.861659 
z
" style="fill:#343837;opacity:0.1;stroke:#343837;stroke-linejoin:miter;stroke-width:0.5;"/>
   </g>
   <g id="matplotlib.axis_3">
    <g id="xtick_4">
     <g id="line2d_16">
      <path clip-path="url(#pefbedd5ce2)" d="M 333.961129 147.861659 
L 333.961129 24.399335 
" style="fill:none;stroke:#000000;stroke-linejoin:miter;stroke-opacity:0.2;stroke-width:0.5;"/>
     </g>
     <g id="line2d_17">
      <g>
       <use style="fill-opacity:0.2;stroke:#000000;stroke-opacity:0.2;stroke-width:0.8;" x="333.961129" xlink:href="#maa553c4a9c" y="147.861659"/>
      </g>
     </g>
     <g id="text_9">
      <!-- $\mathdefault{0}$ -->
      <g transform="translate(330.474205 173.341188)scale(0.14 -0.14)">
       <use transform="scale(0.996264)" xlink:href="#URWPalladioL-Roma-30"/>
      </g>
     </g>
    </g>
    <g id="xtick_5">
     <g id="line2d_18">
      <path clip-path="url(#pefbedd5ce2)" d="M 453.968516 147.861659 
L 453.968516 24.399335 
" style="fill:none;stroke:#000000;stroke-linejoin:miter;stroke-opacity:0.2;stroke-width:0.5;"/>
     </g>
     <g id="line2d_19">
      <g>
       <use style="fill-opacity:0.2;stroke:#000000;stroke-opacity:0.2;stroke-width:0.8;" x="453.968516" xlink:href="#maa553c4a9c" y="147.861659"/>
      </g>
     </g>
     <g id="text_10">
      <!-- $\mathdefault{32}$ -->
      <g transform="translate(446.994668 173.341188)scale(0.14 -0.14)">
       <use transform="scale(0.996264)" xlink:href="#URWPalladioL-Roma-33"/>
       <use transform="translate(49.8132 0)scale(0.996264)" xlink:href="#URWPalladioL-Roma-32"/>
      </g>
     </g>
    </g>
    <g id="xtick_6">
     <g id="line2d_20">
      <path clip-path="url(#pefbedd5ce2)" d="M 570.225672 147.861659 
L 570.225672 24.399335 
" style="fill:none;stroke:#000000;stroke-linejoin:miter;stroke-opacity:0.2;stroke-width:0.5;"/>
     </g>
     <g id="line2d_21">
      <g>
       <use style="fill-opacity:0.2;stroke:#000000;stroke-opacity:0.2;stroke-width:0.8;" x="570.225672" xlink:href="#maa553c4a9c" y="147.861659"/>
      </g>
     </g>
     <g id="text_11">
      <!-- $\mathdefault{63}$ -->
      <g transform="translate(563.251824 173.341188)scale(0.14 -0.14)">
       <use transform="scale(0.996264)" xlink:href="#URWPalladioL-Roma-36"/>
       <use transform="translate(49.8132 0)scale(0.996264)" xlink:href="#URWPalladioL-Roma-33"/>
      </g>
     </g>
    </g>
    <g id="text_12">
     <!-- Frequency index $m$ -->
     <g transform="translate(401.849397 189.828236)scale(0.12 -0.12)">
      <use transform="scale(0.996264)" xlink:href="#URWPalladioL-Roma-46"/>
      <use transform="translate(55.391677 0)scale(0.996264)" xlink:href="#URWPalladioL-Roma-72"/>
      <use transform="translate(92.950994 0)scale(0.996264)" xlink:href="#URWPalladioL-Roma-65"/>
      <use transform="translate(140.671289 0)scale(0.996264)" xlink:href="#URWPalladioL-Roma-71"/>
      <use transform="translate(196.461922 0)scale(0.996264)" xlink:href="#URWPalladioL-Roma-75"/>
      <use transform="translate(256.535657 0)scale(0.996264)" xlink:href="#URWPalladioL-Roma-65"/>
      <use transform="translate(304.255952 0)scale(0.996264)" xlink:href="#URWPalladioL-Roma-6e"/>
      <use transform="translate(362.238012 0)scale(0.996264)" xlink:href="#URWPalladioL-Roma-63"/>
      <use transform="translate(406.471581 0)scale(0.996264)" xlink:href="#URWPalladioL-Roma-79"/>
      <use transform="translate(486.769858 0)scale(0.996264)" xlink:href="#URWPalladioL-Roma-69"/>
      <use transform="translate(515.76022 0)scale(0.996264)" xlink:href="#URWPalladioL-Roma-6e"/>
      <use transform="translate(573.742281 0)scale(0.996264)" xlink:href="#URWPalladioL-Roma-64"/>
      <use transform="translate(634.613911 0)scale(0.996264)" xlink:href="#URWPalladioL-Roma-65"/>
      <use transform="translate(682.334206 0)scale(0.996264)" xlink:href="#URWPalladioL-Roma-78"/>
      <use transform="translate(759.892453 0)scale(0.996264)" xlink:href="#URWPalladioL-Ital-6d"/>
     </g>
    </g>
   </g>
   <g id="matplotlib.axis_4">
    <g id="ytick_4">
     <g id="line2d_22">
      <path clip-path="url(#pefbedd5ce2)" d="M 333.961129 133.707561 
L 570.225672 133.707561 
" style="fill:none;stroke:#000000;stroke-linejoin:miter;stroke-opacity:0.2;stroke-width:0.5;"/>
     </g>
     <g id="line2d_23">
      <g>
       <use style="fill-opacity:0.2;stroke:#000000;stroke-opacity:0.2;stroke-width:0.8;" x="333.961129" xlink:href="#mae4318548c" y="133.707561"/>
      </g>
     </g>
     <g id="text_13">
      <!-- $\mathdefault{−40}$ -->
      <g transform="translate(293.04159 138.697325)scale(0.14 -0.14)">
       <defs>
        <path d="M 1792 1152 
L 1792 684 
C 1792 310 1722 223 1408 210 
L 1011 192 
L 1011 0 
C 1862 0 1862 0 2016 0 
C 2170 19 2170 19 3021 0 
L 3021 192 
L 2714 210 
C 2400 229 2330 310 2330 684 
L 2330 1152 
C 2707 1152 2842 1145 3021 1127 
L 3021 1580 
C 2720 1555 2598 1555 2502 1561 
L 2483 1561 
L 2330 1561 
L 2330 2445 
C 2330 3576 2342 4122 2374 4383 
L 2298 4416 
L 1824 4243 
L 13 1299 
L 83 1152 
L 1792 1152 
z
M 1792 1561 
L 416 1561 
L 1792 3798 
L 1792 1561 
z
" id="URWPalladioL-Roma-34" transform="scale(0.015625)"/>
       </defs>
       <use transform="scale(1.038107)" xlink:href="#CMSY10-0"/>
       <use transform="translate(81.941696 0)scale(0.996264)" xlink:href="#URWPalladioL-Roma-34"/>
       <use transform="translate(131.754897 0)scale(0.996264)" xlink:href="#URWPalladioL-Roma-30"/>
      </g>
     </g>
    </g>
    <g id="ytick_5">
     <g id="line2d_24">
      <path clip-path="url(#pefbedd5ce2)" d="M 333.961129 81.85941 
L 570.225672 81.85941 
" style="fill:none;stroke:#000000;stroke-linejoin:miter;stroke-opacity:0.2;stroke-width:0.5;"/>
     </g>
     <g id="line2d_25">
      <g>
       <use style="fill-opacity:0.2;stroke:#000000;stroke-opacity:0.2;stroke-width:0.8;" x="333.961129" xlink:href="#mae4318548c" y="81.85941"/>
      </g>
     </g>
     <g id="text_14">
      <!-- $\mathdefault{−20}$ -->
      <g transform="translate(293.04159 86.849175)scale(0.14 -0.14)">
       <use transform="scale(1.038107)" xlink:href="#CMSY10-0"/>
       <use transform="translate(81.941696 0)scale(0.996264)" xlink:href="#URWPalladioL-Roma-32"/>
       <use transform="translate(131.754897 0)scale(0.996264)" xlink:href="#URWPalladioL-Roma-30"/>
      </g>
     </g>
    </g>
    <g id="ytick_6">
     <g id="line2d_26">
      <path clip-path="url(#pefbedd5ce2)" d="M 333.961129 30.011259 
L 570.225672 30.011259 
" style="fill:none;stroke:#000000;stroke-linejoin:miter;stroke-opacity:0.2;stroke-width:0.5;"/>
     </g>
     <g id="line2d_27">
      <g>
       <use style="fill-opacity:0.2;stroke:#000000;stroke-opacity:0.2;stroke-width:0.8;" x="333.961129" xlink:href="#mae4318548c" y="30.011259"/>
      </g>
     </g>
     <g id="text_15">
      <!-- $\mathdefault{0}$ -->
      <g transform="translate(311.487281 35.001024)scale(0.14 -0.14)">
       <use transform="scale(0.996264)" xlink:href="#URWPalladioL-Roma-30"/>
      </g>
     </g>
    </g>
   </g>
   <g id="line2d_28">
    <g clip-path="url(#pefbedd5ce2)">
     <use style="fill:#0271ae;" x="333.961129" xlink:href="#md41bb3bb65" y="30.011259"/>
     <use style="fill:#0271ae;" x="337.71136" xlink:href="#md41bb3bb65" y="30.265768"/>
     <use style="fill:#0271ae;" x="341.461591" xlink:href="#md41bb3bb65" y="30.520277"/>
     <use style="fill:#0271ae;" x="345.211821" xlink:href="#md41bb3bb65" y="30.774786"/>
     <use style="fill:#0271ae;" x="348.962052" xlink:href="#md41bb3bb65" y="31.029295"/>
     <use style="fill:#0271ae;" x="352.712283" xlink:href="#md41bb3bb65" y="31.283804"/>
     <use style="fill:#0271ae;" x="356.462514" xlink:href="#md41bb3bb65" y="31.538313"/>
     <use style="fill:#0271ae;" x="360.212745" xlink:href="#md41bb3bb65" y="31.792822"/>
     <use style="fill:#0271ae;" x="363.962976" xlink:href="#md41bb3bb65" y="32.047331"/>
     <use style="fill:#0271ae;" x="367.713206" xlink:href="#md41bb3bb65" y="32.30184"/>
     <use style="fill:#0271ae;" x="371.463437" xlink:href="#md41bb3bb65" y="32.556349"/>
     <use style="fill:#0271ae;" x="375.213668" xlink:href="#md41bb3bb65" y="32.810858"/>
     <use style="fill:#0271ae;" x="378.963899" xlink:href="#md41bb3bb65" y="33.065367"/>
     <use style="fill:#0271ae;" x="382.71413" xlink:href="#md41bb3bb65" y="33.319876"/>
     <use style="fill:#0271ae;" x="386.464361" xlink:href="#md41bb3bb65" y="33.574385"/>
     <use style="fill:#0271ae;" x="390.214592" xlink:href="#md41bb3bb65" y="33.828894"/>
     <use style="fill:#0271ae;" x="393.964822" xlink:href="#md41bb3bb65" y="34.083404"/>
     <use style="fill:#0271ae;" x="397.715053" xlink:href="#md41bb3bb65" y="34.337913"/>
     <use style="fill:#0271ae;" x="401.465284" xlink:href="#md41bb3bb65" y="34.592422"/>
     <use style="fill:#0271ae;" x="405.215515" xlink:href="#md41bb3bb65" y="34.846931"/>
     <use style="fill:#0271ae;" x="408.965746" xlink:href="#md41bb3bb65" y="35.10144"/>
     <use style="fill:#0271ae;" x="412.715977" xlink:href="#md41bb3bb65" y="35.355949"/>
     <use style="fill:#0271ae;" x="416.466207" xlink:href="#md41bb3bb65" y="35.610458"/>
     <use style="fill:#0271ae;" x="420.216438" xlink:href="#md41bb3bb65" y="35.864967"/>
     <use style="fill:#0271ae;" x="423.966669" xlink:href="#md41bb3bb65" y="36.119476"/>
     <use style="fill:#0271ae;" x="427.7169" xlink:href="#md41bb3bb65" y="36.373985"/>
     <use style="fill:#0271ae;" x="431.467131" xlink:href="#md41bb3bb65" y="36.628494"/>
     <use style="fill:#0271ae;" x="435.217362" xlink:href="#md41bb3bb65" y="36.883003"/>
     <use style="fill:#0271ae;" x="438.967592" xlink:href="#md41bb3bb65" y="37.137512"/>
     <use style="fill:#0271ae;" x="442.717823" xlink:href="#md41bb3bb65" y="37.392021"/>
     <use style="fill:#0271ae;" x="446.468054" xlink:href="#md41bb3bb65" y="37.64653"/>
     <use style="fill:#0271ae;" x="450.218285" xlink:href="#md41bb3bb65" y="37.901039"/>
     <use style="fill:#0271ae;" x="453.968516" xlink:href="#md41bb3bb65" y="38.155548"/>
     <use style="fill:#0271ae;" x="457.718747" xlink:href="#md41bb3bb65" y="38.410057"/>
     <use style="fill:#0271ae;" x="461.468978" xlink:href="#md41bb3bb65" y="38.664566"/>
     <use style="fill:#0271ae;" x="465.219208" xlink:href="#md41bb3bb65" y="38.919075"/>
     <use style="fill:#0271ae;" x="468.969439" xlink:href="#md41bb3bb65" y="39.173584"/>
     <use style="fill:#0271ae;" x="472.71967" xlink:href="#md41bb3bb65" y="39.428093"/>
     <use style="fill:#0271ae;" x="476.469901" xlink:href="#md41bb3bb65" y="39.682602"/>
     <use style="fill:#0271ae;" x="480.220132" xlink:href="#md41bb3bb65" y="39.937111"/>
     <use style="fill:#0271ae;" x="483.970363" xlink:href="#md41bb3bb65" y="40.19162"/>
     <use style="fill:#0271ae;" x="487.720593" xlink:href="#md41bb3bb65" y="40.446129"/>
     <use style="fill:#0271ae;" x="491.470824" xlink:href="#md41bb3bb65" y="40.700638"/>
     <use style="fill:#0271ae;" x="495.221055" xlink:href="#md41bb3bb65" y="40.955147"/>
     <use style="fill:#0271ae;" x="498.971286" xlink:href="#md41bb3bb65" y="41.209656"/>
     <use style="fill:#0271ae;" x="502.721517" xlink:href="#md41bb3bb65" y="41.464165"/>
     <use style="fill:#0271ae;" x="506.471748" xlink:href="#md41bb3bb65" y="41.718674"/>
     <use style="fill:#0271ae;" x="510.221978" xlink:href="#md41bb3bb65" y="41.973183"/>
     <use style="fill:#0271ae;" x="513.972209" xlink:href="#md41bb3bb65" y="42.227692"/>
     <use style="fill:#0271ae;" x="517.72244" xlink:href="#md41bb3bb65" y="42.482201"/>
     <use style="fill:#0271ae;" x="521.472671" xlink:href="#md41bb3bb65" y="42.73671"/>
     <use style="fill:#0271ae;" x="525.222902" xlink:href="#md41bb3bb65" y="42.991219"/>
     <use style="fill:#0271ae;" x="528.973133" xlink:href="#md41bb3bb65" y="43.245728"/>
     <use style="fill:#0271ae;" x="532.723364" xlink:href="#md41bb3bb65" y="43.500237"/>
     <use style="fill:#0271ae;" x="536.473594" xlink:href="#md41bb3bb65" y="43.754746"/>
     <use style="fill:#0271ae;" x="540.223825" xlink:href="#md41bb3bb65" y="44.009255"/>
     <use style="fill:#0271ae;" x="543.974056" xlink:href="#md41bb3bb65" y="44.263764"/>
     <use style="fill:#0271ae;" x="547.724287" xlink:href="#md41bb3bb65" y="44.518273"/>
     <use style="fill:#0271ae;" x="551.474518" xlink:href="#md41bb3bb65" y="44.772782"/>
     <use style="fill:#0271ae;" x="555.224749" xlink:href="#md41bb3bb65" y="45.027291"/>
     <use style="fill:#0271ae;" x="558.974979" xlink:href="#md41bb3bb65" y="45.2818"/>
     <use style="fill:#0271ae;" x="562.72521" xlink:href="#md41bb3bb65" y="45.536309"/>
     <use style="fill:#0271ae;" x="566.475441" xlink:href="#md41bb3bb65" y="45.790818"/>
     <use style="fill:#0271ae;" x="570.225672" xlink:href="#md41bb3bb65" y="46.045327"/>
    </g>
   </g>
   <g id="line2d_29">
    <g clip-path="url(#pefbedd5ce2)">
     <use style="fill:#dc2830;" x="333.961129" xlink:href="#mb80aa36d60" y="30.011259"/>
     <use style="fill:#dc2830;" x="337.71136" xlink:href="#mb80aa36d60" y="30.774786"/>
     <use style="fill:#dc2830;" x="341.461591" xlink:href="#mb80aa36d60" y="31.538313"/>
     <use style="fill:#dc2830;" x="345.211821" xlink:href="#mb80aa36d60" y="32.30184"/>
     <use style="fill:#dc2830;" x="348.962052" xlink:href="#mb80aa36d60" y="33.065367"/>
     <use style="fill:#dc2830;" x="352.712283" xlink:href="#mb80aa36d60" y="33.828894"/>
     <use style="fill:#dc2830;" x="356.462514" xlink:href="#mb80aa36d60" y="34.592422"/>
     <use style="fill:#dc2830;" x="360.212745" xlink:href="#mb80aa36d60" y="35.355949"/>
     <use style="fill:#dc2830;" x="363.962976" xlink:href="#mb80aa36d60" y="36.119476"/>
     <use style="fill:#dc2830;" x="367.713206" xlink:href="#mb80aa36d60" y="36.883003"/>
     <use style="fill:#dc2830;" x="371.463437" xlink:href="#mb80aa36d60" y="37.64653"/>
     <use style="fill:#dc2830;" x="375.213668" xlink:href="#mb80aa36d60" y="38.410057"/>
     <use style="fill:#dc2830;" x="378.963899" xlink:href="#mb80aa36d60" y="39.173584"/>
     <use style="fill:#dc2830;" x="382.71413" xlink:href="#mb80aa36d60" y="39.937111"/>
     <use style="fill:#dc2830;" x="386.464361" xlink:href="#mb80aa36d60" y="40.700638"/>
     <use style="fill:#dc2830;" x="390.214592" xlink:href="#mb80aa36d60" y="41.464165"/>
     <use style="fill:#dc2830;" x="393.964822" xlink:href="#mb80aa36d60" y="42.227692"/>
     <use style="fill:#dc2830;" x="397.715053" xlink:href="#mb80aa36d60" y="42.991219"/>
     <use style="fill:#dc2830;" x="401.465284" xlink:href="#mb80aa36d60" y="43.754746"/>
     <use style="fill:#dc2830;" x="405.215515" xlink:href="#mb80aa36d60" y="44.518273"/>
     <use style="fill:#dc2830;" x="408.965746" xlink:href="#mb80aa36d60" y="45.2818"/>
     <use style="fill:#dc2830;" x="412.715977" xlink:href="#mb80aa36d60" y="46.045327"/>
     <use style="fill:#dc2830;" x="416.466207" xlink:href="#mb80aa36d60" y="46.808854"/>
     <use style="fill:#dc2830;" x="420.216438" xlink:href="#mb80aa36d60" y="47.572381"/>
     <use style="fill:#dc2830;" x="423.966669" xlink:href="#mb80aa36d60" y="48.335908"/>
     <use style="fill:#dc2830;" x="427.7169" xlink:href="#mb80aa36d60" y="49.099435"/>
     <use style="fill:#dc2830;" x="431.467131" xlink:href="#mb80aa36d60" y="49.862962"/>
     <use style="fill:#dc2830;" x="435.217362" xlink:href="#mb80aa36d60" y="50.626489"/>
     <use style="fill:#dc2830;" x="438.967592" xlink:href="#mb80aa36d60" y="51.390017"/>
     <use style="fill:#dc2830;" x="442.717823" xlink:href="#mb80aa36d60" y="52.153544"/>
     <use style="fill:#dc2830;" x="446.468054" xlink:href="#mb80aa36d60" y="52.917071"/>
     <use style="fill:#dc2830;" x="450.218285" xlink:href="#mb80aa36d60" y="53.680598"/>
     <use style="fill:#dc2830;" x="453.968516" xlink:href="#mb80aa36d60" y="54.444125"/>
     <use style="fill:#dc2830;" x="457.718747" xlink:href="#mb80aa36d60" y="55.207652"/>
     <use style="fill:#dc2830;" x="461.468978" xlink:href="#mb80aa36d60" y="55.971179"/>
     <use style="fill:#dc2830;" x="465.219208" xlink:href="#mb80aa36d60" y="56.734706"/>
     <use style="fill:#dc2830;" x="468.969439" xlink:href="#mb80aa36d60" y="57.498233"/>
     <use style="fill:#dc2830;" x="472.71967" xlink:href="#mb80aa36d60" y="58.26176"/>
     <use style="fill:#dc2830;" x="476.469901" xlink:href="#mb80aa36d60" y="59.025287"/>
     <use style="fill:#dc2830;" x="480.220132" xlink:href="#mb80aa36d60" y="59.788814"/>
     <use style="fill:#dc2830;" x="483.970363" xlink:href="#mb80aa36d60" y="60.552341"/>
     <use style="fill:#dc2830;" x="487.720593" xlink:href="#mb80aa36d60" y="61.315868"/>
     <use style="fill:#dc2830;" x="491.470824" xlink:href="#mb80aa36d60" y="62.079395"/>
     <use style="fill:#dc2830;" x="495.221055" xlink:href="#mb80aa36d60" y="62.842922"/>
     <use style="fill:#dc2830;" x="498.971286" xlink:href="#mb80aa36d60" y="63.606449"/>
     <use style="fill:#dc2830;" x="502.721517" xlink:href="#mb80aa36d60" y="64.369976"/>
     <use style="fill:#dc2830;" x="506.471748" xlink:href="#mb80aa36d60" y="65.133503"/>
     <use style="fill:#dc2830;" x="510.221978" xlink:href="#mb80aa36d60" y="65.89703"/>
     <use style="fill:#dc2830;" x="513.972209" xlink:href="#mb80aa36d60" y="66.660557"/>
     <use style="fill:#dc2830;" x="517.72244" xlink:href="#mb80aa36d60" y="67.424084"/>
     <use style="fill:#dc2830;" x="521.472671" xlink:href="#mb80aa36d60" y="68.187611"/>
     <use style="fill:#dc2830;" x="525.222902" xlink:href="#mb80aa36d60" y="68.951139"/>
     <use style="fill:#dc2830;" x="528.973133" xlink:href="#mb80aa36d60" y="69.714666"/>
     <use style="fill:#dc2830;" x="532.723364" xlink:href="#mb80aa36d60" y="70.478193"/>
     <use style="fill:#dc2830;" x="536.473594" xlink:href="#mb80aa36d60" y="71.24172"/>
     <use style="fill:#dc2830;" x="540.223825" xlink:href="#mb80aa36d60" y="72.005247"/>
     <use style="fill:#dc2830;" x="543.974056" xlink:href="#mb80aa36d60" y="72.768774"/>
     <use style="fill:#dc2830;" x="547.724287" xlink:href="#mb80aa36d60" y="73.532301"/>
     <use style="fill:#dc2830;" x="551.474518" xlink:href="#mb80aa36d60" y="74.295828"/>
     <use style="fill:#dc2830;" x="555.224749" xlink:href="#mb80aa36d60" y="75.059355"/>
     <use style="fill:#dc2830;" x="558.974979" xlink:href="#mb80aa36d60" y="75.822882"/>
     <use style="fill:#dc2830;" x="562.72521" xlink:href="#mb80aa36d60" y="76.586409"/>
     <use style="fill:#dc2830;" x="566.475441" xlink:href="#mb80aa36d60" y="77.349936"/>
     <use style="fill:#dc2830;" x="570.225672" xlink:href="#mb80aa36d60" y="78.113463"/>
    </g>
   </g>
   <g id="line2d_30">
    <g clip-path="url(#pefbedd5ce2)">
     <use style="fill:#007d4d;" x="333.961129" xlink:href="#mf55d1d6e43" y="30.011259"/>
     <use style="fill:#007d4d;" x="337.71136" xlink:href="#mf55d1d6e43" y="31.792822"/>
     <use style="fill:#007d4d;" x="341.461591" xlink:href="#mf55d1d6e43" y="33.574385"/>
     <use style="fill:#007d4d;" x="345.211821" xlink:href="#mf55d1d6e43" y="35.355949"/>
     <use style="fill:#007d4d;" x="348.962052" xlink:href="#mf55d1d6e43" y="37.137512"/>
     <use style="fill:#007d4d;" x="352.712283" xlink:href="#mf55d1d6e43" y="38.919075"/>
     <use style="fill:#007d4d;" x="356.462514" xlink:href="#mf55d1d6e43" y="40.700638"/>
     <use style="fill:#007d4d;" x="360.212745" xlink:href="#mf55d1d6e43" y="42.482201"/>
     <use style="fill:#007d4d;" x="363.962976" xlink:href="#mf55d1d6e43" y="44.263764"/>
     <use style="fill:#007d4d;" x="367.713206" xlink:href="#mf55d1d6e43" y="46.045327"/>
     <use style="fill:#007d4d;" x="371.463437" xlink:href="#mf55d1d6e43" y="47.82689"/>
     <use style="fill:#007d4d;" x="375.213668" xlink:href="#mf55d1d6e43" y="49.608453"/>
     <use style="fill:#007d4d;" x="378.963899" xlink:href="#mf55d1d6e43" y="51.390017"/>
     <use style="fill:#007d4d;" x="382.71413" xlink:href="#mf55d1d6e43" y="53.17158"/>
     <use style="fill:#007d4d;" x="386.464361" xlink:href="#mf55d1d6e43" y="54.953143"/>
     <use style="fill:#007d4d;" x="390.214592" xlink:href="#mf55d1d6e43" y="56.734706"/>
     <use style="fill:#007d4d;" x="393.964822" xlink:href="#mf55d1d6e43" y="58.516269"/>
     <use style="fill:#007d4d;" x="397.715053" xlink:href="#mf55d1d6e43" y="60.297832"/>
     <use style="fill:#007d4d;" x="401.465284" xlink:href="#mf55d1d6e43" y="62.079395"/>
     <use style="fill:#007d4d;" x="405.215515" xlink:href="#mf55d1d6e43" y="63.860958"/>
     <use style="fill:#007d4d;" x="408.965746" xlink:href="#mf55d1d6e43" y="65.642521"/>
     <use style="fill:#007d4d;" x="412.715977" xlink:href="#mf55d1d6e43" y="67.424084"/>
     <use style="fill:#007d4d;" x="416.466207" xlink:href="#mf55d1d6e43" y="69.205648"/>
     <use style="fill:#007d4d;" x="420.216438" xlink:href="#mf55d1d6e43" y="70.987211"/>
     <use style="fill:#007d4d;" x="423.966669" xlink:href="#mf55d1d6e43" y="72.768774"/>
     <use style="fill:#007d4d;" x="427.7169" xlink:href="#mf55d1d6e43" y="74.550337"/>
     <use style="fill:#007d4d;" x="431.467131" xlink:href="#mf55d1d6e43" y="76.3319"/>
     <use style="fill:#007d4d;" x="435.217362" xlink:href="#mf55d1d6e43" y="78.113463"/>
     <use style="fill:#007d4d;" x="438.967592" xlink:href="#mf55d1d6e43" y="79.895026"/>
     <use style="fill:#007d4d;" x="442.717823" xlink:href="#mf55d1d6e43" y="81.676589"/>
     <use style="fill:#007d4d;" x="446.468054" xlink:href="#mf55d1d6e43" y="83.458152"/>
     <use style="fill:#007d4d;" x="450.218285" xlink:href="#mf55d1d6e43" y="85.239715"/>
     <use style="fill:#007d4d;" x="453.968516" xlink:href="#mf55d1d6e43" y="87.021279"/>
     <use style="fill:#007d4d;" x="457.718747" xlink:href="#mf55d1d6e43" y="88.802842"/>
     <use style="fill:#007d4d;" x="461.468978" xlink:href="#mf55d1d6e43" y="90.584405"/>
     <use style="fill:#007d4d;" x="465.219208" xlink:href="#mf55d1d6e43" y="92.365968"/>
     <use style="fill:#007d4d;" x="468.969439" xlink:href="#mf55d1d6e43" y="94.147531"/>
     <use style="fill:#007d4d;" x="472.71967" xlink:href="#mf55d1d6e43" y="95.929094"/>
     <use style="fill:#007d4d;" x="476.469901" xlink:href="#mf55d1d6e43" y="97.710657"/>
     <use style="fill:#007d4d;" x="480.220132" xlink:href="#mf55d1d6e43" y="99.49222"/>
     <use style="fill:#007d4d;" x="483.970363" xlink:href="#mf55d1d6e43" y="101.273783"/>
     <use style="fill:#007d4d;" x="487.720593" xlink:href="#mf55d1d6e43" y="103.055347"/>
     <use style="fill:#007d4d;" x="491.470824" xlink:href="#mf55d1d6e43" y="104.83691"/>
     <use style="fill:#007d4d;" x="495.221055" xlink:href="#mf55d1d6e43" y="106.618473"/>
     <use style="fill:#007d4d;" x="498.971286" xlink:href="#mf55d1d6e43" y="108.400036"/>
     <use style="fill:#007d4d;" x="502.721517" xlink:href="#mf55d1d6e43" y="110.181599"/>
     <use style="fill:#007d4d;" x="506.471748" xlink:href="#mf55d1d6e43" y="111.963162"/>
     <use style="fill:#007d4d;" x="510.221978" xlink:href="#mf55d1d6e43" y="113.744725"/>
     <use style="fill:#007d4d;" x="513.972209" xlink:href="#mf55d1d6e43" y="115.526288"/>
     <use style="fill:#007d4d;" x="517.72244" xlink:href="#mf55d1d6e43" y="117.307851"/>
     <use style="fill:#007d4d;" x="521.472671" xlink:href="#mf55d1d6e43" y="119.089414"/>
     <use style="fill:#007d4d;" x="525.222902" xlink:href="#mf55d1d6e43" y="120.870978"/>
     <use style="fill:#007d4d;" x="528.973133" xlink:href="#mf55d1d6e43" y="122.652541"/>
     <use style="fill:#007d4d;" x="532.723364" xlink:href="#mf55d1d6e43" y="124.434104"/>
     <use style="fill:#007d4d;" x="536.473594" xlink:href="#mf55d1d6e43" y="126.215667"/>
     <use style="fill:#007d4d;" x="540.223825" xlink:href="#mf55d1d6e43" y="127.99723"/>
     <use style="fill:#007d4d;" x="543.974056" xlink:href="#mf55d1d6e43" y="129.778793"/>
     <use style="fill:#007d4d;" x="547.724287" xlink:href="#mf55d1d6e43" y="131.560356"/>
     <use style="fill:#007d4d;" x="551.474518" xlink:href="#mf55d1d6e43" y="133.341919"/>
     <use style="fill:#007d4d;" x="555.224749" xlink:href="#mf55d1d6e43" y="135.123482"/>
     <use style="fill:#007d4d;" x="558.974979" xlink:href="#mf55d1d6e43" y="136.905045"/>
     <use style="fill:#007d4d;" x="562.72521" xlink:href="#mf55d1d6e43" y="138.686609"/>
     <use style="fill:#007d4d;" x="566.475441" xlink:href="#mf55d1d6e43" y="140.468172"/>
     <use style="fill:#007d4d;" x="570.225672" xlink:href="#mf55d1d6e43" y="142.249735"/>
    </g>
   </g>
   <g id="text_16">
    <!-- Unwrapped phase $\phi'[m]$ -->
    <g transform="translate(376.966344 18.399335)scale(0.14 -0.14)">
     <defs>
      <path d="M 4250 3630 
C 4250 4128 4282 4185 4576 4204 
L 4858 4223 
L 4858 4416 
C 4186 4396 4186 4396 4090 4396 
C 3981 4396 3981 4396 3347 4416 
L 3347 4223 
L 3629 4204 
C 3923 4185 3955 4128 3955 3630 
L 3955 1589 
C 3955 689 3520 268 2592 268 
C 1702 268 1318 619 1318 1436 
L 1318 3630 
C 1318 4134 1350 4185 1645 4204 
L 1952 4223 
L 1952 4416 
C 1485 4396 1344 4396 1011 4396 
C 691 4396 538 4403 77 4416 
L 77 4223 
L 384 4204 
C 678 4185 710 4134 710 3630 
L 710 1365 
C 710 868 826 517 1069 268 
C 1325 6 1779 -128 2419 -128 
C 3078 -128 3520 6 3808 300 
C 4109 600 4250 1078 4250 1787 
L 4250 3630 
z
" id="URWPalladioL-Roma-55" transform="scale(0.015625)"/>
      <path d="M 2643 3008 
C 2118 1775 2022 1556 1626 651 
L 1088 2434 
C 1069 2492 1062 2544 1062 2595 
C 1062 2692 1146 2744 1306 2750 
L 1562 2763 
L 1562 2943 
C 928 2924 928 2924 800 2924 
C 672 2924 672 2924 38 2943 
L 38 2763 
L 218 2750 
C 397 2738 480 2608 640 2105 
L 1293 -64 
L 1594 -64 
L 2221 1420 
C 2253 1497 2323 1652 2426 1872 
L 2554 2143 
L 3424 -64 
L 3718 -64 
C 3763 70 3814 219 3866 361 
C 3994 742 4134 1142 4160 1181 
L 4595 2189 
C 4787 2621 4864 2731 5005 2750 
L 5171 2763 
L 5171 2943 
C 4646 2924 4646 2924 4544 2924 
C 4442 2924 4442 2924 3917 2943 
L 3917 2763 
L 4134 2750 
C 4294 2744 4384 2666 4384 2550 
C 4384 2479 4371 2402 4339 2318 
L 4019 1413 
C 3968 1271 3917 1142 3712 613 
L 2976 2486 
C 2886 2705 2842 2834 2790 3008 
L 2643 3008 
z
" id="URWPalladioL-Roma-77" transform="scale(0.015625)"/>
      <path d="M 64 2566 
L 301 2566 
C 557 2566 582 2521 582 2100 
L 582 -1118 
C 582 -1523 563 -1568 346 -1581 
L 51 -1600 
L 51 -1792 
C 691 -1773 691 -1773 851 -1773 
C 1011 -1773 1011 -1773 1651 -1792 
L 1651 -1600 
L 1357 -1581 
C 1139 -1568 1120 -1523 1120 -1118 
L 1120 96 
C 1312 -20 1517 -64 1805 -64 
C 1990 -64 2157 -26 2259 38 
L 2989 511 
C 3245 677 3546 1334 3546 1743 
C 3546 2451 2957 3008 2214 3008 
C 1978 3008 1747 2943 1645 2847 
L 1120 2368 
L 1120 2982 
L 1062 3008 
C 736 2873 403 2783 64 2745 
L 64 2566 
z
M 1120 1966 
C 1120 2055 1152 2126 1235 2234 
C 1421 2470 1683 2591 2003 2591 
C 2605 2591 2989 2170 2989 1507 
C 2989 792 2560 262 1984 262 
C 1632 262 1370 377 1120 639 
L 1120 1966 
z
" id="URWPalladioL-Roma-70" transform="scale(0.015625)"/>
      <path d="M 1619 3048 
C 1651 3125 1677 3182 1677 3246 
C 1677 3430 1510 3584 1312 3584 
C 1133 3584 1018 3462 973 3297 
L 211 517 
C 211 505 186 435 186 428 
C 186 358 352 313 403 313 
C 442 313 448 332 486 415 
L 1619 3048 
z
" id="CMSY10-30" transform="scale(0.015625)"/>
     </defs>
     <use transform="scale(0.996264)" xlink:href="#URWPalladioL-Roma-55"/>
     <use transform="translate(77.50837 0)scale(0.996264)" xlink:href="#URWPalladioL-Roma-6e"/>
     <use transform="translate(135.490431 0)scale(0.996264)" xlink:href="#URWPalladioL-Roma-77"/>
     <use transform="translate(218.578524 0)scale(0.996264)" xlink:href="#URWPalladioL-Roma-72"/>
     <use transform="translate(257.93042 0)scale(0.996264)" xlink:href="#URWPalladioL-Roma-61"/>
     <use transform="translate(307.743621 0)scale(0.996264)" xlink:href="#URWPalladioL-Roma-70"/>
     <use transform="translate(367.618014 0)scale(0.996264)" xlink:href="#URWPalladioL-Roma-70"/>
     <use transform="translate(427.492408 0)scale(0.996264)" xlink:href="#URWPalladioL-Roma-65"/>
     <use transform="translate(475.212703 0)scale(0.996264)" xlink:href="#URWPalladioL-Roma-64"/>
     <use transform="translate(560.990934 0)scale(0.996264)" xlink:href="#URWPalladioL-Roma-70"/>
     <use transform="translate(620.865328 0)scale(0.996264)" xlink:href="#URWPalladioL-Roma-68"/>
     <use transform="translate(678.847389 0)scale(0.996264)" xlink:href="#URWPalladioL-Roma-61"/>
     <use transform="translate(728.660589 0)scale(0.996264)" xlink:href="#URWPalladioL-Roma-73"/>
     <use transform="translate(770.902056 0)scale(0.996264)" xlink:href="#URWPalladioL-Roma-65"/>
     <use transform="translate(844.77425 0)scale(0.996264)" xlink:href="#PazoMath-Italic-66"/>
     <use transform="translate(905.644954 36.164371)scale(0.788955)" xlink:href="#CMSY10-30"/>
     <use transform="translate(930.065219 0)scale(1.038107)" xlink:href="#CMR10-5b"/>
     <use transform="translate(961.347918 0)scale(0.996264)" xlink:href="#URWPalladioL-Ital-6d"/>
     <use transform="translate(1041.347951 0)scale(1.038107)" xlink:href="#CMR10-5d"/>
    </g>
   </g>
   <g id="legend_1">
    <g id="patch_6">
     <path d="M 343.761129 140.861659 
L 423.97738 140.861659 
Q 426.77738 140.861659 426.77738 138.061659 
L 426.77738 76.723554 
Q 426.77738 73.923554 423.97738 73.923554 
L 343.761129 73.923554 
Q 340.961129 73.923554 340.961129 76.723554 
L 340.961129 138.061659 
Q 340.961129 140.861659 343.761129 140.861659 
z
" style="fill:#ffffff;opacity:0.95;stroke:#cccccc;stroke-linejoin:miter;stroke-width:0.5;"/>
    </g>
    <g id="line2d_31"/>
    <g id="line2d_32">
     <g>
      <use style="fill:#0271ae;" x="353.561129" xlink:href="#md41bb3bb65" y="84.603083"/>
     </g>
    </g>
    <g id="text_17">
     <!-- delay=1 -->
     <g style="fill:#0271ae;" transform="translate(371.761129 89.503083)scale(0.14 -0.14)">
      <defs>
       <path d="M 147 4249 
L 506 4249 
C 621 4249 666 4179 666 3987 
L 666 672 
C 666 268 646 224 429 211 
L 134 192 
L 134 0 
C 774 0 774 0 934 0 
C 1094 19 1094 19 1734 0 
L 1734 192 
L 1440 211 
C 1222 224 1203 268 1203 672 
L 1203 4614 
L 1146 4665 
C 864 4557 653 4505 147 4429 
L 147 4249 
z
" id="URWPalladioL-Roma-6c" transform="scale(0.015625)"/>
       <path d="M 3552 2470 
L 326 2470 
L 326 2112 
L 3552 2112 
L 3552 2470 
z
M 3552 1216 
L 326 1216 
L 326 857 
L 3552 857 
L 3552 1216 
z
" id="URWPalladioL-Roma-3d" transform="scale(0.015625)"/>
       <path d="M 429 3571 
L 493 3571 
L 1318 3942 
C 1325 3949 1331 3949 1338 3949 
C 1376 3949 1389 3891 1389 3737 
L 1389 633 
C 1389 300 1318 230 973 211 
L 614 192 
L 614 0 
C 1600 0 1600 0 1670 0 
C 1754 0 1894 0 2112 -7 
C 2189 6 2413 6 2675 0 
L 2675 192 
L 2342 211 
C 1990 229 1926 299 1926 628 
L 1926 4383 
L 1837 4416 
C 1421 4199 966 4009 384 3807 
L 429 3571 
z
" id="URWPalladioL-Roma-31" transform="scale(0.015625)"/>
      </defs>
      <use transform="scale(0.996264)" xlink:href="#URWPalladioL-Roma-64"/>
      <use transform="translate(60.871631 0)scale(0.996264)" xlink:href="#URWPalladioL-Roma-65"/>
      <use transform="translate(108.591926 0)scale(0.996264)" xlink:href="#URWPalladioL-Roma-6c"/>
      <use transform="translate(137.582287 0)scale(0.996264)" xlink:href="#URWPalladioL-Roma-61"/>
      <use transform="translate(187.395488 0)scale(0.996264)" xlink:href="#URWPalladioL-Roma-79"/>
      <use transform="translate(242.787165 0)scale(0.996264)" xlink:href="#URWPalladioL-Roma-3d"/>
      <use transform="translate(303.160177 0)scale(0.996264)" xlink:href="#URWPalladioL-Roma-31"/>
     </g>
    </g>
    <g id="line2d_33"/>
    <g id="line2d_34">
     <g>
      <use style="fill:#dc2830;" x="353.561129" xlink:href="#mb80aa36d60" y="105.515785"/>
     </g>
    </g>
    <g id="text_18">
     <!-- delay=4 -->
     <g style="fill:#dc2830;" transform="translate(371.761129 110.415785)scale(0.14 -0.14)">
      <use transform="scale(0.996264)" xlink:href="#URWPalladioL-Roma-64"/>
      <use transform="translate(60.871631 0)scale(0.996264)" xlink:href="#URWPalladioL-Roma-65"/>
      <use transform="translate(108.591926 0)scale(0.996264)" xlink:href="#URWPalladioL-Roma-6c"/>
      <use transform="translate(137.582287 0)scale(0.996264)" xlink:href="#URWPalladioL-Roma-61"/>
      <use transform="translate(187.395488 0)scale(0.996264)" xlink:href="#URWPalladioL-Roma-79"/>
      <use transform="translate(242.787165 0)scale(0.996264)" xlink:href="#URWPalladioL-Roma-3d"/>
      <use transform="translate(303.160177 0)scale(0.996264)" xlink:href="#URWPalladioL-Roma-34"/>
     </g>
    </g>
    <g id="line2d_35"/>
    <g id="line2d_36">
     <g>
      <use style="fill:#007d4d;" x="353.561129" xlink:href="#mf55d1d6e43" y="126.428486"/>
     </g>
    </g>
    <g id="text_19">
     <!-- delay=7 -->
     <g style="fill:#007d4d;" transform="translate(371.761129 131.328486)scale(0.14 -0.14)">
      <defs>
       <path d="M 358 83 
L 416 0 
C 666 0 666 0 710 0 
C 755 19 755 19 1005 0 
C 1274 700 1587 1369 2010 2141 
L 3181 4255 
L 3181 4448 
C 2490 4422 2266 4416 1747 4416 
C 1280 4416 966 4422 346 4448 
L 282 4416 
C 301 3807 301 3807 301 3743 
C 301 3672 301 3672 282 3087 
L 474 3087 
L 518 3447 
C 570 3846 614 3897 909 3897 
L 2618 3897 
C 2362 3370 2163 2996 1920 2604 
L 358 83 
z
" id="URWPalladioL-Roma-37" transform="scale(0.015625)"/>
      </defs>
      <use transform="scale(0.996264)" xlink:href="#URWPalladioL-Roma-64"/>
      <use transform="translate(60.871631 0)scale(0.996264)" xlink:href="#URWPalladioL-Roma-65"/>
      <use transform="translate(108.591926 0)scale(0.996264)" xlink:href="#URWPalladioL-Roma-6c"/>
      <use transform="translate(137.582287 0)scale(0.996264)" xlink:href="#URWPalladioL-Roma-61"/>
      <use transform="translate(187.395488 0)scale(0.996264)" xlink:href="#URWPalladioL-Roma-79"/>
      <use transform="translate(242.787165 0)scale(0.996264)" xlink:href="#URWPalladioL-Roma-3d"/>
      <use transform="translate(303.160177 0)scale(0.996264)" xlink:href="#URWPalladioL-Roma-37"/>
     </g>
    </g>
   </g>
  </g>
 </g>
 <defs>
  <clipPath id="p9e62c64890">
   <rect height="123.462323" width="236.264543" x="43.802719" y="24.399335"/>
  </clipPath>
  <clipPath id="pefbedd5ce2">
   <rect height="123.462323" width="236.264543" x="333.961129" y="24.399335"/>
  </clipPath>
 </defs>
</svg>
