<?xml version="1.0" encoding="utf-8" standalone="no"?>
<!DOCTYPE svg PUBLIC "-//W3C//DTD SVG 1.1//EN"
  "http://www.w3.org/Graphics/SVG/1.1/DTD/svg11.dtd">
<svg height="200.39952pt" version="1.1" viewBox="0 0 584.39952 200.39952" width="584.39952pt" xmlns="http://www.w3.org/2000/svg" xmlns:xlink="http://www.w3.org/1999/xlink">
 <metadata>
  <rdf:RDF xmlns:cc="http://creativecommons.org/ns#" xmlns:dc="http://purl.org/dc/elements/1.1/" xmlns:rdf="http://www.w3.org/1999/02/22-rdf-syntax-ns#">
   <cc:Work>
    <dc:type rdf:resource="http://purl.org/dc/dcmitype/StillImage"/>
    <dc:date>2020-11-25T09:33:44.150552</dc:date>
    <dc:format>image/svg+xml</dc:format>
    <dc:creator>
     <cc:Agent>
      <dc:title>Matplotlib v3.3.0rc1.post717+g6a40954ae, https://matplotlib.org/</dc:title>
     </cc:Agent>
    </dc:creator>
   </cc:Work>
  </rdf:RDF>
 </metadata>
 <defs>
  <style type="text/css">*{stroke-linecap:butt;stroke-linejoin:round;}</style>
 </defs>
 <g id="figure_1">
  <g id="patch_1">
   <path d="M 0 200.39952 
L 584.39952 200.39952 
L 584.39952 0 
L 0 0 
z
" style="fill:none;"/>
  </g>
  <g id="axes_1">
   <g id="patch_2">
    <path d="M 66.520552 147.861659 
L 564.995286 147.861659 
L 564.995286 12.189765 
L 66.520552 12.189765 
z
" style="fill:none;"/>
   </g>
   <g id="matplotlib.axis_1">
    <g id="xtick_1">
     <g id="line2d_1">
      <path clip-path="url(#pf096c1a7c6)" d="M 66.520552 147.861659 
L 66.520552 12.189765 
" style="fill:none;stroke:#000000;stroke-linecap:square;stroke-opacity:0.2;stroke-width:0.5;"/>
     </g>
     <g id="line2d_2">
      <defs>
       <path d="M 0 0 
L 0 3.5 
" id="me5161ce489" style="stroke:#000000;stroke-opacity:0.2;stroke-width:0.8;"/>
      </defs>
      <g>
       <use style="fill-opacity:0.2;stroke:#000000;stroke-opacity:0.2;stroke-width:0.8;" x="66.520552" xlink:href="#me5161ce489" y="147.861659"/>
      </g>
     </g>
     <g id="text_1">
      <!-- $\mathdefault{1.00}$ -->
      <g transform="translate(54.316318 173.341188)scale(0.14 -0.14)">
       <defs>
        <path d="M 429 3584 
L 493 3584 
L 1318 3956 
C 1325 3962 1331 3962 1338 3962 
C 1376 3962 1389 3905 1389 3751 
L 1389 613 
C 1389 276 1318 205 973 205 
L 614 205 
L 614 0 
C 1600 0 1600 0 1670 0 
C 1754 0 1894 0 2112 0 
C 2189 0 2413 0 2675 0 
L 2675 205 
L 2342 205 
C 1990 205 1926 276 1926 612 
L 1926 4443 
L 1837 4475 
C 1421 4257 966 4065 384 3860 
z
" id="URWPalladioL-Roma-31" transform="scale(0.015625)"/>
        <path d="M 794 744 
C 602 744 429 564 429 372 
C 429 179 602 0 787 0 
C 992 0 1171 173 1171 372 
C 1171 564 992 744 794 744 
z
" id="URWPalladioL-Roma-2e" transform="scale(0.015625)"/>
        <path d="M 1683 4416 
C 691 4416 186 3628 186 2077 
C 186 1326 320 680 544 366 
C 768 51 1126 -128 1523 -128 
C 2490 -128 2976 705 2976 2346 
C 2976 3749 2560 4416 1683 4416 
z
M 1568 4192 
C 2189 4192 2438 3564 2438 2025 
C 2438 661 2195 96 1606 96 
C 986 96 723 744 723 2308 
C 723 3660 960 4192 1568 4192 
z
" id="URWPalladioL-Roma-30" transform="scale(0.015625)"/>
       </defs>
       <use transform="scale(0.996264)" xlink:href="#URWPalladioL-Roma-31"/>
       <use transform="translate(49.8132 0)scale(0.996264)" xlink:href="#URWPalladioL-Roma-2e"/>
       <use transform="translate(74.719801 0)scale(0.996264)" xlink:href="#URWPalladioL-Roma-30"/>
       <use transform="translate(124.533001 0)scale(0.996264)" xlink:href="#URWPalladioL-Roma-30"/>
      </g>
     </g>
    </g>
    <g id="xtick_2">
     <g id="line2d_3">
      <path clip-path="url(#pf096c1a7c6)" d="M 128.829894 147.861659 
L 128.829894 12.189765 
" style="fill:none;stroke:#000000;stroke-linecap:square;stroke-opacity:0.2;stroke-width:0.5;"/>
     </g>
     <g id="line2d_4">
      <g>
       <use style="fill-opacity:0.2;stroke:#000000;stroke-opacity:0.2;stroke-width:0.8;" x="128.829894" xlink:href="#me5161ce489" y="147.861659"/>
      </g>
     </g>
     <g id="text_2">
      <!-- $\mathdefault{1.25}$ -->
      <g transform="translate(116.62566 173.341188)scale(0.14 -0.14)">
       <defs>
        <path d="M 102 160 
L 102 0 
C 1299 0 1299 0 1530 0 
C 1760 0 1760 0 2995 0 
C 2982 125 2982 186 2982 269 
C 2982 348 2982 407 2995 539 
C 2259 539 1965 539 781 539 
L 1946 1761 
C 2566 2414 2758 2763 2758 3238 
C 2758 3966 2259 4416 1446 4416 
C 986 4416 672 4288 358 3969 
L 250 3099 
L 435 3099 
L 518 3393 
C 621 3763 851 3923 1280 3923 
C 1830 3923 2182 3577 2182 3035 
C 2182 2555 1914 2083 1190 1316 
z
" id="URWPalladioL-Roma-32" transform="scale(0.015625)"/>
        <path d="M 813 3877 
C 1638 3877 1997 3877 2765 3877 
L 2797 3907 
C 2784 4016 2784 4064 2784 4144 
C 2784 4229 2784 4277 2797 4386 
L 2765 4416 
C 2285 4416 1997 4416 1651 4416 
C 1299 4416 1018 4416 538 4416 
L 506 4403 
C 512 4011 518 3729 518 3523 
C 518 2977 499 2360 480 2077 
L 608 2038 
C 909 2341 1082 2432 1395 2432 
C 2010 2432 2394 1993 2394 1296 
C 2394 580 1984 160 1286 160 
C 941 160 621 277 531 444 
L 237 973 
L 83 883 
C 230 516 307 310 397 27 
C 576 -71 832 -128 1107 -128 
C 1536 -128 1990 59 2342 368 
C 2733 716 2938 1154 2938 1630 
C 2938 2359 2419 2874 1690 2874 
C 1382 2874 1152 2791 755 2554 
z
" id="URWPalladioL-Roma-35" transform="scale(0.015625)"/>
       </defs>
       <use transform="scale(0.996264)" xlink:href="#URWPalladioL-Roma-31"/>
       <use transform="translate(49.8132 0)scale(0.996264)" xlink:href="#URWPalladioL-Roma-2e"/>
       <use transform="translate(74.719801 0)scale(0.996264)" xlink:href="#URWPalladioL-Roma-32"/>
       <use transform="translate(124.533001 0)scale(0.996264)" xlink:href="#URWPalladioL-Roma-35"/>
      </g>
     </g>
    </g>
    <g id="xtick_3">
     <g id="line2d_5">
      <path clip-path="url(#pf096c1a7c6)" d="M 191.139236 147.861659 
L 191.139236 12.189765 
" style="fill:none;stroke:#000000;stroke-linecap:square;stroke-opacity:0.2;stroke-width:0.5;"/>
     </g>
     <g id="line2d_6">
      <g>
       <use style="fill-opacity:0.2;stroke:#000000;stroke-opacity:0.2;stroke-width:0.8;" x="191.139236" xlink:href="#me5161ce489" y="147.861659"/>
      </g>
     </g>
     <g id="text_3">
      <!-- $\mathdefault{1.50}$ -->
      <g transform="translate(178.935001 173.341188)scale(0.14 -0.14)">
       <use transform="scale(0.996264)" xlink:href="#URWPalladioL-Roma-31"/>
       <use transform="translate(49.8132 0)scale(0.996264)" xlink:href="#URWPalladioL-Roma-2e"/>
       <use transform="translate(74.719801 0)scale(0.996264)" xlink:href="#URWPalladioL-Roma-35"/>
       <use transform="translate(124.533001 0)scale(0.996264)" xlink:href="#URWPalladioL-Roma-30"/>
      </g>
     </g>
    </g>
    <g id="xtick_4">
     <g id="line2d_7">
      <path clip-path="url(#pf096c1a7c6)" d="M 253.448577 147.861659 
L 253.448577 12.189765 
" style="fill:none;stroke:#000000;stroke-linecap:square;stroke-opacity:0.2;stroke-width:0.5;"/>
     </g>
     <g id="line2d_8">
      <g>
       <use style="fill-opacity:0.2;stroke:#000000;stroke-opacity:0.2;stroke-width:0.8;" x="253.448577" xlink:href="#me5161ce489" y="147.861659"/>
      </g>
     </g>
     <g id="text_4">
      <!-- $\mathdefault{1.75}$ -->
      <g transform="translate(241.244343 173.341188)scale(0.14 -0.14)">
       <defs>
        <path d="M 358 32 
L 416 -51 
C 666 -32 666 -32 710 -32 
C 755 -32 755 -32 1005 -51 
C 1274 649 1587 1317 2010 2087 
L 3181 4199 
L 3181 4372 
C 2490 4372 2266 4372 1747 4372 
C 1280 4372 966 4372 346 4372 
L 282 4359 
C 301 3750 301 3750 301 3685 
C 301 3614 301 3614 282 3031 
L 474 3031 
L 518 3390 
C 570 3789 614 3840 909 3840 
L 2618 3840 
C 2362 3313 2163 2941 1920 2549 
z
" id="URWPalladioL-Roma-37" transform="scale(0.015625)"/>
       </defs>
       <use transform="scale(0.996264)" xlink:href="#URWPalladioL-Roma-31"/>
       <use transform="translate(49.8132 0)scale(0.996264)" xlink:href="#URWPalladioL-Roma-2e"/>
       <use transform="translate(74.719801 0)scale(0.996264)" xlink:href="#URWPalladioL-Roma-37"/>
       <use transform="translate(124.533001 0)scale(0.996264)" xlink:href="#URWPalladioL-Roma-35"/>
      </g>
     </g>
    </g>
    <g id="xtick_5">
     <g id="line2d_9">
      <path clip-path="url(#pf096c1a7c6)" d="M 315.757919 147.861659 
L 315.757919 12.189765 
" style="fill:none;stroke:#000000;stroke-linecap:square;stroke-opacity:0.2;stroke-width:0.5;"/>
     </g>
     <g id="line2d_10">
      <g>
       <use style="fill-opacity:0.2;stroke:#000000;stroke-opacity:0.2;stroke-width:0.8;" x="315.757919" xlink:href="#me5161ce489" y="147.861659"/>
      </g>
     </g>
     <g id="text_5">
      <!-- $\mathdefault{2.00}$ -->
      <g transform="translate(303.553685 173.341188)scale(0.14 -0.14)">
       <use transform="scale(0.996264)" xlink:href="#URWPalladioL-Roma-32"/>
       <use transform="translate(49.8132 0)scale(0.996264)" xlink:href="#URWPalladioL-Roma-2e"/>
       <use transform="translate(74.719801 0)scale(0.996264)" xlink:href="#URWPalladioL-Roma-30"/>
       <use transform="translate(124.533001 0)scale(0.996264)" xlink:href="#URWPalladioL-Roma-30"/>
      </g>
     </g>
    </g>
    <g id="xtick_6">
     <g id="line2d_11">
      <path clip-path="url(#pf096c1a7c6)" d="M 378.067261 147.861659 
L 378.067261 12.189765 
" style="fill:none;stroke:#000000;stroke-linecap:square;stroke-opacity:0.2;stroke-width:0.5;"/>
     </g>
     <g id="line2d_12">
      <g>
       <use style="fill-opacity:0.2;stroke:#000000;stroke-opacity:0.2;stroke-width:0.8;" x="378.067261" xlink:href="#me5161ce489" y="147.861659"/>
      </g>
     </g>
     <g id="text_6">
      <!-- $\mathdefault{2.25}$ -->
      <g transform="translate(365.863027 173.341188)scale(0.14 -0.14)">
       <use transform="scale(0.996264)" xlink:href="#URWPalladioL-Roma-32"/>
       <use transform="translate(49.8132 0)scale(0.996264)" xlink:href="#URWPalladioL-Roma-2e"/>
       <use transform="translate(74.719801 0)scale(0.996264)" xlink:href="#URWPalladioL-Roma-32"/>
       <use transform="translate(124.533001 0)scale(0.996264)" xlink:href="#URWPalladioL-Roma-35"/>
      </g>
     </g>
    </g>
    <g id="xtick_7">
     <g id="line2d_13">
      <path clip-path="url(#pf096c1a7c6)" d="M 440.376602 147.861659 
L 440.376602 12.189765 
" style="fill:none;stroke:#000000;stroke-linecap:square;stroke-opacity:0.2;stroke-width:0.5;"/>
     </g>
     <g id="line2d_14">
      <g>
       <use style="fill-opacity:0.2;stroke:#000000;stroke-opacity:0.2;stroke-width:0.8;" x="440.376602" xlink:href="#me5161ce489" y="147.861659"/>
      </g>
     </g>
     <g id="text_7">
      <!-- $\mathdefault{2.50}$ -->
      <g transform="translate(428.172368 173.341188)scale(0.14 -0.14)">
       <use transform="scale(0.996264)" xlink:href="#URWPalladioL-Roma-32"/>
       <use transform="translate(49.8132 0)scale(0.996264)" xlink:href="#URWPalladioL-Roma-2e"/>
       <use transform="translate(74.719801 0)scale(0.996264)" xlink:href="#URWPalladioL-Roma-35"/>
       <use transform="translate(124.533001 0)scale(0.996264)" xlink:href="#URWPalladioL-Roma-30"/>
      </g>
     </g>
    </g>
    <g id="xtick_8">
     <g id="line2d_15">
      <path clip-path="url(#pf096c1a7c6)" d="M 502.685944 147.861659 
L 502.685944 12.189765 
" style="fill:none;stroke:#000000;stroke-linecap:square;stroke-opacity:0.2;stroke-width:0.5;"/>
     </g>
     <g id="line2d_16">
      <g>
       <use style="fill-opacity:0.2;stroke:#000000;stroke-opacity:0.2;stroke-width:0.8;" x="502.685944" xlink:href="#me5161ce489" y="147.861659"/>
      </g>
     </g>
     <g id="text_8">
      <!-- $\mathdefault{2.75}$ -->
      <g transform="translate(490.48171 173.341188)scale(0.14 -0.14)">
       <use transform="scale(0.996264)" xlink:href="#URWPalladioL-Roma-32"/>
       <use transform="translate(49.8132 0)scale(0.996264)" xlink:href="#URWPalladioL-Roma-2e"/>
       <use transform="translate(74.719801 0)scale(0.996264)" xlink:href="#URWPalladioL-Roma-37"/>
       <use transform="translate(124.533001 0)scale(0.996264)" xlink:href="#URWPalladioL-Roma-35"/>
      </g>
     </g>
    </g>
    <g id="xtick_9">
     <g id="line2d_17">
      <path clip-path="url(#pf096c1a7c6)" d="M 564.995286 147.861659 
L 564.995286 12.189765 
" style="fill:none;stroke:#000000;stroke-linecap:square;stroke-opacity:0.2;stroke-width:0.5;"/>
     </g>
     <g id="line2d_18">
      <g>
       <use style="fill-opacity:0.2;stroke:#000000;stroke-opacity:0.2;stroke-width:0.8;" x="564.995286" xlink:href="#me5161ce489" y="147.861659"/>
      </g>
     </g>
     <g id="text_9">
      <!-- $\mathdefault{3.00}$ -->
      <g transform="translate(552.791052 173.341188)scale(0.14 -0.14)">
       <defs>
        <path d="M 275 3197 
L 474 3197 
L 589 3554 
C 659 3770 1062 3987 1395 3987 
C 1811 3987 2150 3649 2150 3248 
C 2150 2770 1773 2368 1318 2368 
C 1267 2368 1197 2368 1114 2381 
L 1018 2381 
L 941 2047 
L 986 2008 
C 1229 2118 1350 2150 1523 2150 
C 2054 2150 2362 1809 2362 1222 
C 2362 566 1971 135 1376 135 
C 1082 135 819 231 627 411 
C 474 553 390 701 269 1049 
L 96 985 
C 230 593 282 361 320 39 
C 659 -77 941 -128 1178 -128 
C 1690 -128 2278 161 2630 593 
C 2848 857 2957 1140 2957 1442 
C 2957 1751 2829 2022 2598 2182 
C 2438 2298 2291 2350 1971 2407 
C 2483 2803 2675 3096 2675 3472 
C 2675 4040 2202 4416 1491 4416 
C 1056 4416 768 4295 461 3989 
z
" id="URWPalladioL-Roma-33" transform="scale(0.015625)"/>
       </defs>
       <use transform="scale(0.996264)" xlink:href="#URWPalladioL-Roma-33"/>
       <use transform="translate(49.8132 0)scale(0.996264)" xlink:href="#URWPalladioL-Roma-2e"/>
       <use transform="translate(74.719801 0)scale(0.996264)" xlink:href="#URWPalladioL-Roma-30"/>
       <use transform="translate(124.533001 0)scale(0.996264)" xlink:href="#URWPalladioL-Roma-30"/>
      </g>
     </g>
    </g>
    <g id="text_10">
     <!-- $x$ -->
     <g transform="translate(312.769127 189.828236)scale(0.12 -0.12)">
      <defs>
       <path d="M 134 566 
C 134 438 122 357 83 153 
C 70 77 64 58 58 13 
C 154 -39 256 -64 333 -64 
C 544 -64 794 121 992 419 
L 1478 1164 
L 1549 725 
C 1632 184 1779 -64 2010 -64 
C 2150 -64 2355 44 2560 229 
L 2874 509 
L 2816 630 
C 2586 439 2426 344 2323 344 
C 2227 344 2144 408 2080 534 
C 2022 655 1952 890 1920 1075 
L 1805 1716 
L 2029 2028 
C 2330 2441 2502 2587 2701 2587 
C 2803 2587 2880 2536 2912 2441 
L 3002 2466 
L 3098 3008 
C 3021 3053 2963 3072 2906 3072 
C 2650 3072 2394 2842 1997 2257 
L 1760 1907 
L 1722 2212 
C 1645 2842 1472 3072 1094 3072 
C 928 3072 787 3021 730 2938 
L 358 2409 
L 467 2346 
C 659 2562 787 2651 909 2651 
C 1120 2651 1261 2391 1370 1767 
L 1440 1373 
L 1184 977 
C 909 549 691 344 512 344 
C 416 344 346 371 333 403 
L 262 585 
z
" id="URWPalladioL-Ital-78" transform="scale(0.015625)"/>
      </defs>
      <use transform="scale(0.996264)" xlink:href="#URWPalladioL-Ital-78"/>
     </g>
    </g>
   </g>
   <g id="matplotlib.axis_2">
    <g id="ytick_1">
     <g id="line2d_19">
      <path clip-path="url(#pf096c1a7c6)" d="M 66.520552 147.186674 
L 564.995286 147.186674 
" style="fill:none;stroke:#000000;stroke-linecap:square;stroke-opacity:0.2;stroke-width:0.5;"/>
     </g>
     <g id="line2d_20">
      <defs>
       <path d="M 0 0 
L -3.5 0 
" id="mcdbea36028" style="stroke:#000000;stroke-opacity:0.2;stroke-width:0.8;"/>
      </defs>
      <g>
       <use style="fill-opacity:0.2;stroke:#000000;stroke-opacity:0.2;stroke-width:0.8;" x="66.520552" xlink:href="#mcdbea36028" y="147.186674"/>
      </g>
     </g>
     <g id="text_11">
      <!-- $\mathdefault{0}$ -->
      <g transform="translate(44.046704 152.176439)scale(0.14 -0.14)">
       <use transform="scale(0.996264)" xlink:href="#URWPalladioL-Roma-30"/>
      </g>
     </g>
    </g>
    <g id="ytick_2">
     <g id="line2d_21">
      <path clip-path="url(#pf096c1a7c6)" d="M 66.520552 79.688219 
L 564.995286 79.688219 
" style="fill:none;stroke:#000000;stroke-linecap:square;stroke-opacity:0.2;stroke-width:0.5;"/>
     </g>
     <g id="line2d_22">
      <g>
       <use style="fill-opacity:0.2;stroke:#000000;stroke-opacity:0.2;stroke-width:0.8;" x="66.520552" xlink:href="#mcdbea36028" y="79.688219"/>
      </g>
     </g>
     <g id="text_12">
      <!-- $\mathdefault{500}$ -->
      <g transform="translate(30.099008 84.677984)scale(0.14 -0.14)">
       <use transform="scale(0.996264)" xlink:href="#URWPalladioL-Roma-35"/>
       <use transform="translate(49.8132 0)scale(0.996264)" xlink:href="#URWPalladioL-Roma-30"/>
       <use transform="translate(99.626401 0)scale(0.996264)" xlink:href="#URWPalladioL-Roma-30"/>
      </g>
     </g>
    </g>
    <g id="ytick_3">
     <g id="line2d_23">
      <path clip-path="url(#pf096c1a7c6)" d="M 66.520552 12.189765 
L 564.995286 12.189765 
" style="fill:none;stroke:#000000;stroke-linecap:square;stroke-opacity:0.2;stroke-width:0.5;"/>
     </g>
     <g id="line2d_24">
      <g>
       <use style="fill-opacity:0.2;stroke:#000000;stroke-opacity:0.2;stroke-width:0.8;" x="66.520552" xlink:href="#mcdbea36028" y="12.189765"/>
      </g>
     </g>
     <g id="text_13">
      <!-- $\mathdefault{1000}$ -->
      <g transform="translate(23.12516 17.179529)scale(0.14 -0.14)">
       <use transform="scale(0.996264)" xlink:href="#URWPalladioL-Roma-31"/>
       <use transform="translate(49.8132 0)scale(0.996264)" xlink:href="#URWPalladioL-Roma-30"/>
       <use transform="translate(99.626401 0)scale(0.996264)" xlink:href="#URWPalladioL-Roma-30"/>
       <use transform="translate(149.439601 0)scale(0.996264)" xlink:href="#URWPalladioL-Roma-30"/>
      </g>
     </g>
    </g>
    <g id="text_14">
     <!-- $y$ -->
     <g transform="translate(15.753876 83.014504)rotate(-90)scale(0.12 -0.12)">
      <defs>
       <path d="M -45 -1123 
C -51 -1167 -51 -1205 -51 -1237 
C -51 -1508 186 -1728 474 -1728 
C 1152 -1728 1856 -943 2234 228 
L 3136 3014 
L 3066 3072 
C 2880 3002 2733 2963 2592 2951 
L 2368 2111 
C 2291 1812 2067 1348 1856 1036 
C 1632 711 1318 432 1178 432 
C 1101 432 1043 579 1050 737 
L 1056 820 
L 1152 2054 
C 1165 2252 1178 2493 1178 2671 
C 1178 2957 1133 3072 1024 3072 
C 941 3072 851 3027 544 2817 
L 19 2461 
L 90 2347 
L 410 2537 
L 435 2557 
C 499 2595 544 2614 570 2614 
C 659 2614 710 2493 710 2284 
C 710 2277 710 2239 704 2188 
L 595 642 
L 589 387 
C 589 121 704 -64 864 -64 
C 1101 -64 1638 477 2118 1195 
L 1805 116 
C 1478 -1000 1158 -1460 710 -1460 
C 486 -1460 314 -1291 314 -1072 
C 314 -1040 320 -990 326 -934 
L 262 -908 
z
" id="URWPalladioL-Ital-79" transform="scale(0.015625)"/>
      </defs>
      <use transform="scale(0.996264)" xlink:href="#URWPalladioL-Ital-79"/>
     </g>
    </g>
   </g>
   <g id="line2d_25">
    <path clip-path="url(#pf096c1a7c6)" d="M 66.520552 147.051677 
L 160.421604 146.839135 
L 201.378446 146.54568 
L 224.354235 146.182931 
L 239.338446 145.750715 
L 250.326867 145.227909 
L 258.318446 144.644945 
L 264.31213 144.018198 
L 269.306867 143.300171 
L 273.302656 142.534167 
L 277.298446 141.517191 
L 280.295288 140.51848 
L 283.29213 139.230611 
L 285.290024 138.152983 
L 287.287919 136.840609 
L 289.285814 135.220008 
L 291.283709 133.186522 
L 293.281603 130.586987 
L 294.280551 129.00692 
L 295.279498 127.190026 
L 296.278445 125.0865 
L 297.277393 122.632718 
L 298.27634 119.746376 
L 299.275288 116.319488 
L 300.274235 112.208146 
L 301.273182 107.217155 
L 302.27213 101.076433 
L 303.271077 93.403689 
L 304.270024 83.64345 
L 305.268972 70.963623 
L 306.267919 54.072088 
L 307.266866 30.873991 
L 308.229264 -1 
M 323.286574 -1 
L 324.248972 30.873991 
L 325.247919 54.072088 
L 326.246866 70.963623 
L 327.245814 83.64345 
L 328.244761 93.403689 
L 329.243708 101.076433 
L 330.242656 107.217155 
L 331.241603 112.208146 
L 332.24055 116.319488 
L 333.239498 119.746376 
L 334.238445 122.632718 
L 335.237393 125.0865 
L 336.23634 127.190026 
L 337.235287 129.00692 
L 339.233182 131.969668 
L 341.231077 134.263043 
L 343.228971 136.074487 
L 345.226866 137.530148 
L 347.224761 138.717446 
L 349.222656 139.698511 
L 352.219498 140.878855 
L 355.21634 141.80062 
L 359.212129 142.745616 
L 363.207919 143.462091 
L 368.202656 144.137752 
L 374.19634 144.731099 
L 382.187919 145.286376 
L 392.177392 145.750715 
L 406.162655 146.160626 
L 426.141603 146.498433 
L 456.110023 146.760966 
L 507.056339 146.95752 
L 564.995286 147.051677 
L 564.995286 147.051677 
" style="fill:none;stroke:#0271ae;stroke-linecap:square;stroke-width:3;"/>
   </g>
   <g id="line2d_26">
    <path clip-path="url(#pf096c1a7c6)" d="M 315.757919 147.861659 
L 315.757919 12.189765 
" style="fill:none;stroke:#6e3b87;stroke-dasharray:11.1,4.8;stroke-dashoffset:0;stroke-width:3;"/>
   </g>
   <g id="legend_1">
    <g id="patch_3">
     <path d="M 433.067158 46.306335 
L 555.195286 46.306335 
Q 557.995286 46.306335 557.995286 43.506335 
L 557.995286 21.989765 
Q 557.995286 19.189765 555.195286 19.189765 
L 433.067158 19.189765 
Q 430.267158 19.189765 430.267158 21.989765 
L 430.267158 43.506335 
Q 430.267158 46.306335 433.067158 46.306335 
z
" style="fill:#ffffff;opacity:0.95;stroke:#cccccc;stroke-linejoin:miter;stroke-width:0.5;"/>
    </g>
    <g id="line2d_27">
     <path d="M 435.867158 31.873162 
L 449.867158 31.873162 
" style="fill:none;stroke:#0271ae;stroke-linecap:square;stroke-width:3;"/>
    </g>
    <g id="line2d_28"/>
    <g id="text_15">
     <!-- $y = 1/(x-2)^2$ -->
     <g transform="translate(461.067158 36.773162)scale(0.14 -0.14)">
      <defs>
       <path d="M 4397 2048 
C 4493 2048 4614 2048 4614 2177 
C 4614 2305 4493 2305 4403 2305 
L 570 2305 
C 480 2305 358 2305 358 2177 
C 358 2048 480 2048 576 2048 
z
M 4403 832 
C 4493 832 4614 832 4614 961 
C 4614 1089 4493 1089 4397 1089 
L 576 1089 
C 480 1089 358 1089 358 961 
C 358 832 480 832 570 832 
z
" id="CMR10-3d" transform="scale(0.015625)"/>
       <path d="M 3322 4640 
L 2938 4640 
L 557 -768 
L 941 -768 
z
" id="URWPalladioL-Roma-2f" transform="scale(0.015625)"/>
       <path d="M 2118 -1536 
C 2118 -1517 2118 -1504 2010 -1395 
C 1210 -584 1005 632 1005 1616 
C 1005 2735 1248 3855 2035 4658 
C 2118 4735 2118 4748 2118 4767 
C 2118 4812 2093 4832 2054 4832 
C 1990 4832 1414 4395 1037 3577 
C 710 2870 634 2156 634 1616 
C 634 1114 704 336 1056 -391 
C 1440 -1182 1990 -1600 2054 -1600 
C 2093 -1600 2118 -1581 2118 -1536 
z
" id="CMR10-28" transform="scale(0.015625)"/>
       <path d="M 4218 1472 
C 4326 1472 4442 1472 4442 1600 
C 4442 1728 4326 1728 4218 1728 
L 755 1728 
C 646 1728 531 1728 531 1600 
C 531 1472 646 1472 755 1472 
z
" id="CMSY10-0" transform="scale(0.015625)"/>
       <path d="M 1850 1616 
C 1850 2118 1779 2896 1427 3622 
C 1043 4414 493 4832 429 4832 
C 390 4832 365 4806 365 4767 
C 365 4748 365 4735 486 4620 
C 1114 3983 1478 2960 1478 1616 
C 1478 516 1242 -617 448 -1427 
C 365 -1504 365 -1517 365 -1536 
C 365 -1575 390 -1600 429 -1600 
C 493 -1600 1069 -1163 1446 -346 
C 1773 362 1850 1075 1850 1616 
z
" id="CMR10-29" transform="scale(0.015625)"/>
      </defs>
      <use transform="scale(0.996264)" xlink:href="#URWPalladioL-Ital-79"/>
      <use transform="translate(79.977748 0)scale(1.038107)" xlink:href="#CMR10-3d"/>
      <use transform="translate(189.593377 0)scale(0.996264)" xlink:href="#URWPalladioL-Roma-31"/>
      <use transform="translate(240.651877 0)scale(0.996264)" xlink:href="#URWPalladioL-Roma-2f"/>
      <use transform="translate(303.516081 0)scale(1.038107)" xlink:href="#CMR10-28"/>
      <use transform="translate(347.949462 0)scale(0.996264)" xlink:href="#URWPalladioL-Ital-78"/>
      <use transform="translate(420.620351 0)scale(1.038107)" xlink:href="#CMSY10-0"/>
      <use transform="translate(521.9338 0)scale(0.996264)" xlink:href="#URWPalladioL-Roma-32"/>
      <use transform="translate(572.992301 0)scale(1.038107)" xlink:href="#CMR10-29"/>
      <use transform="translate(614.486706 36.164371)scale(0.757155)" xlink:href="#URWPalladioL-Roma-32"/>
     </g>
    </g>
   </g>
  </g>
 </g>
 <defs>
  <clipPath id="pf096c1a7c6">
   <rect height="135.671894" width="498.474734" x="66.520552" y="12.189765"/>
  </clipPath>
 </defs>
</svg>
