<?xml version="1.0" encoding="utf-8" standalone="no"?>
<!DOCTYPE svg PUBLIC "-//W3C//DTD SVG 1.1//EN"
  "http://www.w3.org/Graphics/SVG/1.1/DTD/svg11.dtd">
<svg height="296.39952pt" version="1.1" viewBox="0 0 584.396654 296.39952" width="584.396654pt" xmlns="http://www.w3.org/2000/svg" xmlns:xlink="http://www.w3.org/1999/xlink">
 <metadata>
  <rdf:RDF xmlns:cc="http://creativecommons.org/ns#" xmlns:dc="http://purl.org/dc/elements/1.1/" xmlns:rdf="http://www.w3.org/1999/02/22-rdf-syntax-ns#">
   <cc:Work>
    <dc:type rdf:resource="http://purl.org/dc/dcmitype/StillImage"/>
    <dc:date>2020-11-24T16:46:45.329866</dc:date>
    <dc:format>image/svg+xml</dc:format>
    <dc:creator>
     <cc:Agent>
      <dc:title>Matplotlib v3.3.0rc1.post717+g6a40954ae, https://matplotlib.org/</dc:title>
     </cc:Agent>
    </dc:creator>
   </cc:Work>
  </rdf:RDF>
 </metadata>
 <defs>
  <style type="text/css">*{stroke-linecap:butt;stroke-linejoin:round;}</style>
 </defs>
 <g id="figure_1">
  <g id="patch_1">
   <path d="M 0 296.39952 
L 584.396654 296.39952 
L 584.396654 0 
L 0 0 
z
" style="fill:none;"/>
  </g>
  <g id="axes_1">
   <g id="patch_2">
    <path d="M 67.531623 239.851894 
L 280.194223 239.851894 
L 280.194223 27.189294 
L 67.531623 27.189294 
z
" style="fill:none;"/>
   </g>
   <g id="patch_3">
    <path clip-path="url(#p6f77b2baab)" d="M 173.862923 199.977657 
C 191.487542 199.977657 208.392675 192.975321 220.855163 180.512834 
C 233.31765 168.050346 240.319986 151.145213 240.319986 133.520594 
C 240.319986 115.895975 233.31765 98.990842 220.855163 86.528354 
C 208.392675 74.065867 191.487542 67.063531 173.862923 67.063531 
C 156.238304 67.063531 139.333171 74.065867 126.870683 86.528354 
C 114.408196 98.990842 107.40586 115.895975 107.40586 133.520594 
C 107.40586 151.145213 114.408196 168.050346 126.870683 180.512834 
C 139.333171 192.975321 156.238304 199.977657 173.862923 199.977657 
z
" style="fill:none;stroke:#000000;stroke-linejoin:miter;stroke-width:3;"/>
   </g>
   <g id="matplotlib.axis_1">
    <g id="xtick_1">
     <g id="line2d_1">
      <path clip-path="url(#p6f77b2baab)" d="M 107.40586 239.851894 
L 107.40586 27.189294 
" style="fill:none;stroke:#000000;stroke-linecap:square;stroke-opacity:0.2;stroke-width:0.5;"/>
     </g>
     <g id="line2d_2">
      <defs>
       <path d="M 0 0 
L 0 3.5 
" id="m581ecff082" style="stroke:#000000;stroke-opacity:0.2;stroke-width:0.8;"/>
      </defs>
      <g>
       <use style="fill-opacity:0.2;stroke:#000000;stroke-opacity:0.2;stroke-width:0.8;" x="107.40586" xlink:href="#m581ecff082" y="239.851894"/>
      </g>
     </g>
     <g id="text_1">
      <!-- $\mathdefault{−1}$ -->
      <g transform="translate(98.183015 265.331423)scale(0.14 -0.14)">
       <defs>
        <path d="M 4218 1472 
C 4326 1472 4442 1472 4442 1600 
C 4442 1728 4326 1728 4218 1728 
L 755 1728 
C 646 1728 531 1728 531 1600 
C 531 1472 646 1472 755 1472 
z
" id="CMSY10-0" transform="scale(0.015625)"/>
        <path d="M 429 3584 
L 493 3584 
L 1318 3956 
C 1325 3962 1331 3962 1338 3962 
C 1376 3962 1389 3905 1389 3751 
L 1389 613 
C 1389 276 1318 205 973 205 
L 614 205 
L 614 0 
C 1600 0 1600 0 1670 0 
C 1754 0 1894 0 2112 0 
C 2189 0 2413 0 2675 0 
L 2675 205 
L 2342 205 
C 1990 205 1926 276 1926 612 
L 1926 4443 
L 1837 4475 
C 1421 4257 966 4065 384 3860 
z
" id="URWPalladioL-Roma-31" transform="scale(0.015625)"/>
       </defs>
       <use transform="scale(1.038107)" xlink:href="#CMSY10-0"/>
       <use transform="translate(81.941696 0)scale(0.996264)" xlink:href="#URWPalladioL-Roma-31"/>
      </g>
     </g>
    </g>
    <g id="xtick_2">
     <g id="line2d_3">
      <path clip-path="url(#p6f77b2baab)" d="M 173.862923 239.851894 
L 173.862923 27.189294 
" style="fill:none;stroke:#000000;stroke-linecap:square;stroke-opacity:0.2;stroke-width:0.5;"/>
     </g>
     <g id="line2d_4">
      <g>
       <use style="fill-opacity:0.2;stroke:#000000;stroke-opacity:0.2;stroke-width:0.8;" x="173.862923" xlink:href="#m581ecff082" y="239.851894"/>
      </g>
     </g>
     <g id="text_2">
      <!-- $\mathdefault{0}$ -->
      <g transform="translate(170.375999 265.331423)scale(0.14 -0.14)">
       <defs>
        <path d="M 1683 4416 
C 691 4416 186 3628 186 2077 
C 186 1326 320 680 544 366 
C 768 51 1126 -128 1523 -128 
C 2490 -128 2976 705 2976 2346 
C 2976 3749 2560 4416 1683 4416 
z
M 1568 4192 
C 2189 4192 2438 3564 2438 2025 
C 2438 661 2195 96 1606 96 
C 986 96 723 744 723 2308 
C 723 3660 960 4192 1568 4192 
z
" id="URWPalladioL-Roma-30" transform="scale(0.015625)"/>
       </defs>
       <use transform="scale(0.996264)" xlink:href="#URWPalladioL-Roma-30"/>
      </g>
     </g>
    </g>
    <g id="xtick_3">
     <g id="line2d_5">
      <path clip-path="url(#p6f77b2baab)" d="M 240.319986 239.851894 
L 240.319986 27.189294 
" style="fill:none;stroke:#000000;stroke-linecap:square;stroke-opacity:0.2;stroke-width:0.5;"/>
     </g>
     <g id="line2d_6">
      <g>
       <use style="fill-opacity:0.2;stroke:#000000;stroke-opacity:0.2;stroke-width:0.8;" x="240.319986" xlink:href="#m581ecff082" y="239.851894"/>
      </g>
     </g>
     <g id="text_3">
      <!-- $\mathdefault{1}$ -->
      <g transform="translate(236.833062 265.331423)scale(0.14 -0.14)">
       <use transform="scale(0.996264)" xlink:href="#URWPalladioL-Roma-31"/>
      </g>
     </g>
    </g>
    <g id="text_4">
     <!-- Real -->
     <g transform="translate(162.278519 281.818472)scale(0.12 -0.12)">
      <defs>
       <path d="M 1382 4147 
C 1600 4198 1792 4224 2010 4224 
C 2675 4224 3046 3915 3046 3367 
C 3046 2775 2579 2401 1837 2401 
C 1792 2401 1734 2401 1651 2407 
L 1613 2330 
C 1683 2246 1702 2221 1779 2137 
C 1869 2035 1888 2009 1946 1932 
L 3123 346 
C 3162 295 3200 243 3238 199 
C 3283 141 3322 83 3386 0 
C 3686 0 3750 0 3821 0 
C 3878 0 3878 0 4282 0 
L 4282 186 
C 4077 205 3974 244 3891 354 
L 2438 2259 
C 2797 2349 2963 2419 3174 2566 
C 3507 2803 3686 3123 3686 3495 
C 3686 4109 3238 4455 2445 4455 
L 2342 4455 
C 1510 4455 1510 4455 1293 4455 
C 1082 4455 1082 4455 186 4455 
L 186 4275 
L 448 4243 
C 742 4243 774 4184 774 3679 
L 774 769 
C 774 257 742 205 448 205 
L 141 205 
L 141 0 
C 518 0 742 0 1075 0 
C 1408 0 1638 0 2016 0 
L 2016 205 
L 1709 205 
C 1414 205 1382 256 1382 768 
z
" id="URWPalladioL-Roma-52" transform="scale(0.015625)"/>
       <path d="M 2797 447 
L 2714 511 
C 2304 269 2157 212 1882 212 
C 1466 212 1120 398 941 711 
C 819 921 774 1101 762 1472 
L 1696 1472 
C 2138 1472 2413 1472 2854 1544 
C 2861 1634 2867 1693 2867 1771 
C 2867 2520 2394 3008 1677 3008 
C 1440 3008 1165 2924 902 2770 
C 378 2469 166 2071 166 1404 
C 166 1000 262 654 435 410 
C 691 71 1120 -128 1600 -128 
C 1837 -128 2074 -77 2336 37 
C 2509 108 2643 191 2669 230 
z
M 2298 1690 
C 1965 1690 1811 1690 1581 1690 
C 1286 1690 1120 1690 774 1722 
C 774 2027 800 2169 883 2337 
C 1018 2622 1293 2796 1600 2796 
C 1811 2796 1978 2711 2093 2534 
C 2234 2319 2278 2129 2298 1690 
z
" id="URWPalladioL-Roma-65" transform="scale(0.015625)"/>
       <path d="M 2074 538 
L 2042 -1 
C 2458 -1 2458 -1 2541 -1 
C 2573 -1 2733 -1 3014 -1 
L 3014 192 
L 2765 192 
C 2611 192 2586 244 2586 558 
L 2586 1731 
C 2586 2668 2317 3008 1574 3008 
C 1299 3008 1043 2937 800 2791 
L 461 2585 
L 461 2171 
L 627 2126 
L 710 2323 
C 845 2623 909 2668 1203 2668 
C 1805 2668 2054 2431 2074 1852 
L 1440 1736 
C 570 1577 205 1277 205 722 
C 205 224 506 -64 1011 -64 
C 1126 -64 1235 -45 1280 -13 
z
M 2074 806 
C 1888 544 1485 302 1235 302 
C 979 302 755 538 755 812 
C 755 1048 883 1271 1075 1392 
C 1235 1488 1587 1577 2074 1648 
z
" id="URWPalladioL-Roma-61" transform="scale(0.015625)"/>
       <path d="M 147 4256 
L 506 4256 
C 621 4256 666 4185 666 3992 
L 666 651 
C 666 244 646 199 429 199 
L 134 199 
L 134 0 
C 774 0 774 0 934 0 
C 1094 0 1094 0 1734 0 
L 1734 199 
L 1440 199 
C 1222 199 1203 244 1203 650 
L 1203 4621 
L 1146 4673 
C 864 4564 653 4512 147 4435 
z
" id="URWPalladioL-Roma-6c" transform="scale(0.015625)"/>
      </defs>
      <use transform="scale(0.996264)" xlink:href="#URWPalladioL-Roma-52"/>
      <use transform="translate(66.549694 0)scale(0.996264)" xlink:href="#URWPalladioL-Roma-65"/>
      <use transform="translate(114.269989 0)scale(0.996264)" xlink:href="#URWPalladioL-Roma-61"/>
      <use transform="translate(164.08319 0)scale(0.996264)" xlink:href="#URWPalladioL-Roma-6c"/>
     </g>
    </g>
   </g>
   <g id="matplotlib.axis_2">
    <g id="ytick_1">
     <g id="line2d_7">
      <path clip-path="url(#p6f77b2baab)" d="M 67.531623 233.206188 
L 280.194223 233.206188 
" style="fill:none;stroke:#000000;stroke-linecap:square;stroke-opacity:0.2;stroke-width:0.5;"/>
     </g>
     <g id="line2d_8">
      <defs>
       <path d="M 0 0 
L -3.5 0 
" id="mf0b668979f" style="stroke:#000000;stroke-opacity:0.2;stroke-width:0.8;"/>
      </defs>
      <g>
       <use style="fill-opacity:0.2;stroke:#000000;stroke-opacity:0.2;stroke-width:0.8;" x="67.531623" xlink:href="#mf0b668979f" y="233.206188"/>
      </g>
     </g>
     <g id="text_5">
      <!-- $\mathdefault{−1.5}$ -->
      <g transform="translate(23.12516 238.195953)scale(0.14 -0.14)">
       <defs>
        <path d="M 794 744 
C 602 744 429 564 429 372 
C 429 179 602 0 787 0 
C 992 0 1171 173 1171 372 
C 1171 564 992 744 794 744 
z
" id="URWPalladioL-Roma-2e" transform="scale(0.015625)"/>
        <path d="M 813 3877 
C 1638 3877 1997 3877 2765 3877 
L 2797 3907 
C 2784 4016 2784 4064 2784 4144 
C 2784 4229 2784 4277 2797 4386 
L 2765 4416 
C 2285 4416 1997 4416 1651 4416 
C 1299 4416 1018 4416 538 4416 
L 506 4403 
C 512 4011 518 3729 518 3523 
C 518 2977 499 2360 480 2077 
L 608 2038 
C 909 2341 1082 2432 1395 2432 
C 2010 2432 2394 1993 2394 1296 
C 2394 580 1984 160 1286 160 
C 941 160 621 277 531 444 
L 237 973 
L 83 883 
C 230 516 307 310 397 27 
C 576 -71 832 -128 1107 -128 
C 1536 -128 1990 59 2342 368 
C 2733 716 2938 1154 2938 1630 
C 2938 2359 2419 2874 1690 2874 
C 1382 2874 1152 2791 755 2554 
z
" id="URWPalladioL-Roma-35" transform="scale(0.015625)"/>
       </defs>
       <use transform="scale(1.038107)" xlink:href="#CMSY10-0"/>
       <use transform="translate(81.941696 0)scale(0.996264)" xlink:href="#URWPalladioL-Roma-31"/>
       <use transform="translate(131.754897 0)scale(0.996264)" xlink:href="#URWPalladioL-Roma-2e"/>
       <use transform="translate(156.661497 0)scale(0.996264)" xlink:href="#URWPalladioL-Roma-35"/>
      </g>
     </g>
    </g>
    <g id="ytick_2">
     <g id="line2d_9">
      <path clip-path="url(#p6f77b2baab)" d="M 67.531623 199.977657 
L 280.194223 199.977657 
" style="fill:none;stroke:#000000;stroke-linecap:square;stroke-opacity:0.2;stroke-width:0.5;"/>
     </g>
     <g id="line2d_10">
      <g>
       <use style="fill-opacity:0.2;stroke:#000000;stroke-opacity:0.2;stroke-width:0.8;" x="67.531623" xlink:href="#mf0b668979f" y="199.977657"/>
      </g>
     </g>
     <g id="text_6">
      <!-- $\mathdefault{−1.0}$ -->
      <g transform="translate(23.12516 204.967421)scale(0.14 -0.14)">
       <use transform="scale(1.038107)" xlink:href="#CMSY10-0"/>
       <use transform="translate(81.941696 0)scale(0.996264)" xlink:href="#URWPalladioL-Roma-31"/>
       <use transform="translate(131.754897 0)scale(0.996264)" xlink:href="#URWPalladioL-Roma-2e"/>
       <use transform="translate(156.661497 0)scale(0.996264)" xlink:href="#URWPalladioL-Roma-30"/>
      </g>
     </g>
    </g>
    <g id="ytick_3">
     <g id="line2d_11">
      <path clip-path="url(#p6f77b2baab)" d="M 67.531623 166.749125 
L 280.194223 166.749125 
" style="fill:none;stroke:#000000;stroke-linecap:square;stroke-opacity:0.2;stroke-width:0.5;"/>
     </g>
     <g id="line2d_12">
      <g>
       <use style="fill-opacity:0.2;stroke:#000000;stroke-opacity:0.2;stroke-width:0.8;" x="67.531623" xlink:href="#mf0b668979f" y="166.749125"/>
      </g>
     </g>
     <g id="text_7">
      <!-- $\mathdefault{−0.5}$ -->
      <g transform="translate(23.12516 171.73889)scale(0.14 -0.14)">
       <use transform="scale(1.038107)" xlink:href="#CMSY10-0"/>
       <use transform="translate(81.941696 0)scale(0.996264)" xlink:href="#URWPalladioL-Roma-30"/>
       <use transform="translate(131.754897 0)scale(0.996264)" xlink:href="#URWPalladioL-Roma-2e"/>
       <use transform="translate(156.661497 0)scale(0.996264)" xlink:href="#URWPalladioL-Roma-35"/>
      </g>
     </g>
    </g>
    <g id="ytick_4">
     <g id="line2d_13">
      <path clip-path="url(#p6f77b2baab)" d="M 67.531623 133.520594 
L 280.194223 133.520594 
" style="fill:none;stroke:#000000;stroke-linecap:square;stroke-opacity:0.2;stroke-width:0.5;"/>
     </g>
     <g id="line2d_14">
      <g>
       <use style="fill-opacity:0.2;stroke:#000000;stroke-opacity:0.2;stroke-width:0.8;" x="67.531623" xlink:href="#mf0b668979f" y="133.520594"/>
      </g>
     </g>
     <g id="text_8">
      <!-- $\mathdefault{0.0}$ -->
      <g transform="translate(34.597002 138.510359)scale(0.14 -0.14)">
       <use transform="scale(0.996264)" xlink:href="#URWPalladioL-Roma-30"/>
       <use transform="translate(49.8132 0)scale(0.996264)" xlink:href="#URWPalladioL-Roma-2e"/>
       <use transform="translate(74.719801 0)scale(0.996264)" xlink:href="#URWPalladioL-Roma-30"/>
      </g>
     </g>
    </g>
    <g id="ytick_5">
     <g id="line2d_15">
      <path clip-path="url(#p6f77b2baab)" d="M 67.531623 100.292063 
L 280.194223 100.292063 
" style="fill:none;stroke:#000000;stroke-linecap:square;stroke-opacity:0.2;stroke-width:0.5;"/>
     </g>
     <g id="line2d_16">
      <g>
       <use style="fill-opacity:0.2;stroke:#000000;stroke-opacity:0.2;stroke-width:0.8;" x="67.531623" xlink:href="#mf0b668979f" y="100.292063"/>
      </g>
     </g>
     <g id="text_9">
      <!-- $\mathdefault{0.5}$ -->
      <g transform="translate(34.597002 105.281827)scale(0.14 -0.14)">
       <use transform="scale(0.996264)" xlink:href="#URWPalladioL-Roma-30"/>
       <use transform="translate(49.8132 0)scale(0.996264)" xlink:href="#URWPalladioL-Roma-2e"/>
       <use transform="translate(74.719801 0)scale(0.996264)" xlink:href="#URWPalladioL-Roma-35"/>
      </g>
     </g>
    </g>
    <g id="ytick_6">
     <g id="line2d_17">
      <path clip-path="url(#p6f77b2baab)" d="M 67.531623 67.063531 
L 280.194223 67.063531 
" style="fill:none;stroke:#000000;stroke-linecap:square;stroke-opacity:0.2;stroke-width:0.5;"/>
     </g>
     <g id="line2d_18">
      <g>
       <use style="fill-opacity:0.2;stroke:#000000;stroke-opacity:0.2;stroke-width:0.8;" x="67.531623" xlink:href="#mf0b668979f" y="67.063531"/>
      </g>
     </g>
     <g id="text_10">
      <!-- $\mathdefault{1.0}$ -->
      <g transform="translate(34.597002 72.053296)scale(0.14 -0.14)">
       <use transform="scale(0.996264)" xlink:href="#URWPalladioL-Roma-31"/>
       <use transform="translate(49.8132 0)scale(0.996264)" xlink:href="#URWPalladioL-Roma-2e"/>
       <use transform="translate(74.719801 0)scale(0.996264)" xlink:href="#URWPalladioL-Roma-30"/>
      </g>
     </g>
    </g>
    <g id="ytick_7">
     <g id="line2d_19">
      <path clip-path="url(#p6f77b2baab)" d="M 67.531623 33.835 
L 280.194223 33.835 
" style="fill:none;stroke:#000000;stroke-linecap:square;stroke-opacity:0.2;stroke-width:0.5;"/>
     </g>
     <g id="line2d_20">
      <g>
       <use style="fill-opacity:0.2;stroke:#000000;stroke-opacity:0.2;stroke-width:0.8;" x="67.531623" xlink:href="#mf0b668979f" y="33.835"/>
      </g>
     </g>
     <g id="text_11">
      <!-- $\mathdefault{1.5}$ -->
      <g transform="translate(34.597002 38.824765)scale(0.14 -0.14)">
       <use transform="scale(0.996264)" xlink:href="#URWPalladioL-Roma-31"/>
       <use transform="translate(49.8132 0)scale(0.996264)" xlink:href="#URWPalladioL-Roma-2e"/>
       <use transform="translate(74.719801 0)scale(0.996264)" xlink:href="#URWPalladioL-Roma-35"/>
      </g>
     </g>
    </g>
    <g id="text_12">
     <!-- Imaginary -->
     <g transform="translate(15.753876 161.017243)rotate(-90)scale(0.12 -0.12)">
      <defs>
       <path d="M 1382 3663 
C 1382 4172 1414 4224 1709 4224 
L 2016 4224 
L 2016 4423 
C 1549 4423 1408 4423 1075 4423 
C 755 4423 602 4423 141 4423 
L 141 4224 
L 448 4224 
C 742 4224 774 4172 774 3663 
L 774 766 
C 774 256 742 205 448 205 
L 141 205 
L 141 0 
C 518 0 742 0 1075 0 
C 1408 0 1638 0 2016 0 
L 2016 205 
L 1709 205 
C 1414 205 1382 256 1382 766 
z
" id="URWPalladioL-Roma-49" transform="scale(0.015625)"/>
       <path d="M 115 2565 
L 352 2565 
C 608 2565 634 2520 634 2094 
L 634 643 
C 634 237 614 192 397 192 
L 102 192 
L 102 -7 
C 717 -7 736 -7 915 -7 
C 1094 -7 1261 -7 1677 -7 
L 1677 179 
L 1408 205 
C 1190 205 1171 250 1171 654 
L 1171 2014 
C 1171 2302 1594 2616 1978 2616 
C 2323 2616 2560 2287 2560 1798 
L 2560 643 
C 2560 237 2541 192 2323 192 
L 2029 192 
L 2029 -7 
C 2669 -7 2669 -7 2829 -7 
C 2989 -7 2989 -7 3629 -7 
L 3629 192 
L 3334 192 
C 3117 192 3098 237 3098 643 
L 3098 2011 
C 3098 2300 3520 2616 3904 2616 
C 4250 2616 4486 2291 4486 1806 
L 4486 -7 
C 4877 -7 4883 -7 4992 -7 
C 5075 -7 5075 -7 5562 -7 
L 5562 192 
L 5261 192 
C 5043 192 5024 237 5024 643 
L 5024 1970 
C 5024 2608 4653 3008 4064 3008 
C 3840 3008 3654 2950 3539 2847 
L 3053 2412 
C 2848 2834 2586 3008 2144 3008 
C 1907 3008 1728 2950 1613 2847 
L 1171 2437 
L 1171 2982 
L 1114 3008 
C 787 2873 454 2783 115 2745 
z
" id="URWPalladioL-Roma-6d" transform="scale(0.015625)"/>
       <path d="M 3322 2432 
L 3482 2695 
L 3456 2759 
L 2547 2759 
C 2310 2937 2080 3008 1766 3008 
C 1485 3008 1158 2920 896 2768 
C 538 2567 352 2258 352 1874 
C 352 1408 646 1087 1120 1036 
L 614 640 
C 550 543 518 459 518 361 
C 518 180 634 76 941 -14 
L 384 -316 
C 294 -367 205 -604 205 -803 
C 205 -1388 774 -1792 1587 -1792 
C 2554 -1792 3315 -1182 3315 -399 
C 3315 63 3008 384 2560 384 
L 1536 384 
C 1203 384 1050 462 1050 639 
C 1050 724 1101 795 1267 939 
C 1306 972 1318 985 1344 1011 
C 1408 1004 1446 998 1498 998 
C 1773 998 2112 1118 2374 1300 
C 2662 1507 2803 1759 2803 2093 
C 2803 2218 2784 2300 2733 2432 
z
M 1536 2790 
C 1971 2790 2266 2438 2266 1905 
C 2266 1499 1997 1216 1606 1216 
C 1178 1216 890 1542 890 2025 
C 890 2507 1126 2790 1536 2790 
z
M 1837 -65 
C 2560 -65 2810 -212 2810 -630 
C 2810 -1182 2304 -1593 1632 -1593 
C 1075 -1593 691 -1266 691 -790 
C 691 -502 858 -238 1114 -129 
C 1216 -78 1395 -65 1837 -65 
z
" id="URWPalladioL-Roma-67" transform="scale(0.015625)"/>
       <path d="M 1203 2993 
L 1146 3019 
C 819 2884 486 2793 147 2755 
L 147 2576 
L 384 2576 
C 640 2576 666 2531 666 2105 
L 666 651 
C 666 244 646 199 429 199 
L 134 199 
L 134 0 
C 774 0 774 0 934 0 
C 1094 0 1094 0 1734 0 
L 1734 199 
L 1440 199 
C 1222 199 1203 244 1203 651 
z
M 909 4416 
C 717 4416 550 4249 550 4056 
C 550 3870 717 3704 902 3704 
C 1088 3704 1261 3870 1261 4056 
C 1261 4236 1088 4416 909 4416 
z
" id="URWPalladioL-Roma-69" transform="scale(0.015625)"/>
       <path d="M 2624 -7 
C 3014 -7 3021 -7 3130 -7 
C 3219 -7 3219 -7 3661 -7 
L 3661 179 
L 3398 205 
C 3181 205 3162 244 3162 654 
L 3162 1892 
C 3162 2642 2810 3008 2093 3008 
C 1856 3008 1722 2963 1587 2847 
L 1101 2424 
L 1101 2982 
L 1043 3008 
C 717 2873 384 2783 45 2745 
L 45 2565 
L 282 2565 
C 538 2565 563 2520 563 2094 
L 563 643 
C 563 237 544 192 326 192 
L 38 192 
L 38 -7 
C 474 -7 646 -7 832 -7 
C 1018 -7 1190 -7 1626 -7 
L 1626 192 
L 1338 192 
C 1120 192 1101 237 1101 643 
L 1101 2011 
C 1101 2300 1523 2616 1914 2616 
C 2342 2616 2624 2297 2624 1806 
z
" id="URWPalladioL-Roma-6e" transform="scale(0.015625)"/>
       <path d="M 147 2565 
L 384 2565 
C 640 2565 666 2520 666 2094 
L 666 643 
C 666 237 646 192 429 192 
L 134 192 
L 134 -7 
C 595 -7 762 -7 922 -7 
C 1050 -7 1050 -7 1837 -7 
L 1837 192 
L 1504 192 
C 1216 192 1203 211 1203 638 
L 1203 1751 
C 1203 2139 1459 2463 1773 2463 
C 1965 2463 2099 2373 2202 2169 
L 2336 2169 
L 2394 2937 
C 2323 2982 2208 3008 2093 3008 
C 1901 3008 1696 2905 1562 2745 
L 1203 2322 
L 1203 2982 
L 1146 3008 
C 819 2873 486 2783 147 2745 
z
" id="URWPalladioL-Roma-72" transform="scale(0.015625)"/>
       <path d="M 1901 564 
C 1760 808 1690 956 1574 1270 
L 1165 2347 
C 1126 2456 1101 2552 1101 2618 
C 1101 2710 1171 2764 1318 2764 
L 1562 2764 
L 1562 2944 
C 941 2944 941 2944 819 2944 
C 698 2944 698 2944 77 2944 
L 77 2777 
L 192 2764 
C 352 2745 429 2674 525 2451 
L 1222 775 
C 1402 340 1466 186 1581 -134 
L 1434 -524 
C 1229 -1062 979 -1362 736 -1362 
C 634 -1362 518 -1311 410 -1215 
L 326 -1215 
L 173 -1696 
C 294 -1760 397 -1792 518 -1792 
C 947 -1792 1222 -1562 1466 -1005 
L 2765 1990 
C 3021 2572 3142 2745 3302 2764 
L 3482 2777 
L 3482 2944 
C 2976 2944 2976 2944 2874 2944 
C 2771 2944 2771 2944 2266 2944 
L 2266 2777 
L 2432 2764 
C 2611 2751 2701 2694 2701 2604 
C 2701 2559 2688 2501 2662 2437 
z
" id="URWPalladioL-Roma-79" transform="scale(0.015625)"/>
      </defs>
      <use transform="scale(0.996264)" xlink:href="#URWPalladioL-Roma-49"/>
      <use transform="translate(33.574079 0)scale(0.996264)" xlink:href="#URWPalladioL-Roma-6d"/>
      <use transform="translate(121.543753 0)scale(0.996264)" xlink:href="#URWPalladioL-Roma-61"/>
      <use transform="translate(171.356954 0)scale(0.996264)" xlink:href="#URWPalladioL-Roma-67"/>
      <use transform="translate(226.748631 0)scale(0.996264)" xlink:href="#URWPalladioL-Roma-69"/>
      <use transform="translate(255.738992 0)scale(0.996264)" xlink:href="#URWPalladioL-Roma-6e"/>
      <use transform="translate(313.721053 0)scale(0.996264)" xlink:href="#URWPalladioL-Roma-61"/>
      <use transform="translate(363.534253 0)scale(0.996264)" xlink:href="#URWPalladioL-Roma-72"/>
      <use transform="translate(402.88615 0)scale(0.996264)" xlink:href="#URWPalladioL-Roma-79"/>
     </g>
    </g>
   </g>
   <g id="PathCollection_1">
    <defs>
     <path d="M 0 5 
C 1.326016 5 2.597899 4.473168 3.535534 3.535534 
C 4.473168 2.597899 5 1.326016 5 -0 
C 5 -1.326016 4.473168 -2.597899 3.535534 -3.535534 
C 2.597899 -4.473168 1.326016 -5 0 -5 
C -1.326016 -5 -2.597899 -4.473168 -3.535534 -3.535534 
C -4.473168 -2.597899 -5 -1.326016 -5 0 
C -5 1.326016 -4.473168 2.597899 -3.535534 3.535534 
C -2.597899 4.473168 -1.326016 5 0 5 
z
" id="C0_0_a0e620050c"/>
    </defs>
    <g clip-path="url(#p6f77b2baab)">
     <use style="fill:none;stroke:#007d4d;stroke-width:3;" x="199.210973" xlink:href="#C0_0_a0e620050c" y="194.953627"/>
    </g>
    <g clip-path="url(#p6f77b2baab)">
     <use style="fill:none;stroke:#007d4d;stroke-width:3;" x="191.579636" xlink:href="#C0_0_a0e620050c" y="197.572598"/>
    </g>
    <g clip-path="url(#p6f77b2baab)">
     <use style="fill:none;stroke:#007d4d;stroke-width:3;" x="172.207701" xlink:href="#C0_0_a0e620050c" y="199.95704"/>
    </g>
    <g clip-path="url(#p6f77b2baab)">
     <use style="fill:none;stroke:#007d4d;stroke-width:3;" x="135.610282" xlink:href="#C0_0_a0e620050c" y="187.864652"/>
    </g>
    <g clip-path="url(#p6f77b2baab)">
     <use style="fill:none;stroke:#007d4d;stroke-width:3;" x="135.610282" xlink:href="#C0_0_a0e620050c" y="79.176536"/>
    </g>
    <g clip-path="url(#p6f77b2baab)">
     <use style="fill:none;stroke:#007d4d;stroke-width:3;" x="172.207701" xlink:href="#C0_0_a0e620050c" y="67.084147"/>
    </g>
    <g clip-path="url(#p6f77b2baab)">
     <use style="fill:none;stroke:#007d4d;stroke-width:3;" x="191.579636" xlink:href="#C0_0_a0e620050c" y="69.46859"/>
    </g>
    <g clip-path="url(#p6f77b2baab)">
     <use style="fill:none;stroke:#007d4d;stroke-width:3;" x="199.210973" xlink:href="#C0_0_a0e620050c" y="72.087561"/>
    </g>
    <g clip-path="url(#p6f77b2baab)">
     <use style="fill:none;stroke:#007d4d;stroke-width:3;" x="107.40586" xlink:href="#C0_0_a0e620050c" y="133.520594"/>
    </g>
   </g>
   <g id="line2d_21">
    <path clip-path="url(#p6f77b2baab)" d="M 173.862923 133.520594 
L 220.855163 86.528354 
" style="fill:none;stroke:#dc2830;stroke-linecap:square;stroke-width:3;"/>
   </g>
   <g id="text_13">
    <!-- Zeros plot -->
    <g transform="translate(142.432189 21.189294)scale(0.14 -0.14)">
     <defs>
      <path d="M 4077 4245 
L 4051 4430 
L 3053 4430 
L 2733 4430 
L 1568 4430 
L 512 4430 
C 525 4195 531 4082 531 3917 
C 531 3752 525 3639 512 3405 
L 730 3405 
L 768 3859 
C 787 4109 960 4160 1741 4160 
L 3200 4160 
C 3104 4000 3040 3905 2912 3745 
C 2829 3629 2739 3520 2650 3406 
L 717 922 
C 627 801 506 660 96 173 
L 96 0 
L 2093 0 
L 2272 0 
L 4045 0 
C 4045 547 4051 770 4083 1120 
L 3866 1120 
L 3827 756 
C 3782 334 3693 295 2714 295 
L 966 295 
z
" id="URWPalladioL-Roma-5a" transform="scale(0.015625)"/>
      <path d="M 1786 3008 
C 851 3008 205 2347 205 1392 
C 205 487 774 -128 1600 -128 
C 2586 -128 3290 558 3290 1520 
C 3290 2386 2662 3008 1786 3008 
z
M 1670 2796 
C 2259 2796 2694 2155 2694 1283 
C 2694 545 2368 83 1850 83 
C 1222 83 800 699 800 1610 
C 800 2379 1107 2796 1670 2796 
z
" id="URWPalladioL-Roma-6f" transform="scale(0.015625)"/>
      <path d="M 262 917 
C 262 475 243 282 192 26 
C 525 -83 774 -128 1069 -128 
C 1907 -128 2502 321 2502 949 
C 2502 1148 2445 1295 2323 1424 
C 2157 1584 1946 1661 1382 1770 
C 858 1873 685 2001 685 2296 
C 685 2616 909 2796 1299 2796 
C 1728 2796 2054 2572 2054 2270 
L 2054 2123 
L 2234 2123 
C 2240 2495 2246 2648 2266 2847 
C 1926 2963 1696 3008 1434 3008 
C 691 3008 237 2655 237 2078 
C 237 1770 378 1552 672 1417 
C 845 1340 1184 1238 1619 1141 
C 1907 1077 2029 943 2029 699 
C 2029 353 1709 109 1254 109 
C 787 109 454 333 454 654 
L 454 917 
z
" id="URWPalladioL-Roma-73" transform="scale(0.015625)"/>
      <path d="M 64 2565 
L 301 2565 
C 557 2565 582 2520 582 2095 
L 582 -1142 
C 582 -1548 563 -1593 346 -1593 
L 51 -1593 
L 51 -1792 
C 691 -1792 691 -1792 851 -1792 
C 1011 -1792 1011 -1792 1651 -1792 
L 1651 -1593 
L 1357 -1593 
C 1139 -1593 1120 -1547 1120 -1138 
L 1120 89 
C 1312 -26 1517 -71 1805 -71 
C 1990 -71 2157 -32 2259 32 
L 2989 505 
C 3245 672 3546 1330 3546 1740 
C 3546 2451 2957 3008 2214 3008 
C 1978 3008 1747 2943 1645 2847 
L 1120 2367 
L 1120 2982 
L 1062 3008 
C 736 2873 403 2783 64 2745 
z
M 1120 1964 
C 1120 2053 1152 2124 1235 2233 
C 1421 2469 1683 2591 2003 2591 
C 2605 2591 2989 2169 2989 1504 
C 2989 787 2560 256 1984 256 
C 1632 256 1370 372 1120 633 
z
" id="URWPalladioL-Roma-70" transform="scale(0.015625)"/>
      <path d="M 627 2476 
L 627 619 
C 627 142 838 -64 1331 -64 
C 1478 -64 1632 -32 1670 13 
L 1978 353 
L 1894 463 
C 1734 372 1638 340 1517 340 
C 1267 340 1165 470 1165 788 
L 1165 2489 
L 1984 2489 
L 2042 2816 
L 1165 2816 
L 1165 3056 
C 1165 3321 1184 3547 1235 3951 
L 1158 4021 
C 1005 3925 813 3842 614 3778 
C 634 3585 640 3463 640 3271 
L 640 2822 
L 141 2598 
L 141 2476 
z
" id="URWPalladioL-Roma-74" transform="scale(0.015625)"/>
     </defs>
     <use transform="scale(0.996264)" xlink:href="#URWPalladioL-Roma-5a"/>
     <use transform="translate(66.450031 0)scale(0.996264)" xlink:href="#URWPalladioL-Roma-65"/>
     <use transform="translate(114.170326 0)scale(0.996264)" xlink:href="#URWPalladioL-Roma-72"/>
     <use transform="translate(151.729644 0)scale(0.996264)" xlink:href="#URWPalladioL-Roma-6f"/>
     <use transform="translate(206.125224 0)scale(0.996264)" xlink:href="#URWPalladioL-Roma-73"/>
     <use transform="translate(273.27329 0)scale(0.996264)" xlink:href="#URWPalladioL-Roma-70"/>
     <use transform="translate(333.147684 0)scale(0.996264)" xlink:href="#URWPalladioL-Roma-6c"/>
     <use transform="translate(362.138046 0)scale(0.996264)" xlink:href="#URWPalladioL-Roma-6f"/>
     <use transform="translate(416.533626 0)scale(0.996264)" xlink:href="#URWPalladioL-Roma-74"/>
    </g>
   </g>
   <g id="legend_1">
    <g id="patch_4">
     <path d="M 92.540106 232.851894 
L 270.394223 232.851894 
Q 273.194223 232.851894 273.194223 230.051894 
L 273.194223 209.880909 
Q 273.194223 207.080909 270.394223 207.080909 
L 92.540106 207.080909 
Q 89.740106 207.080909 89.740106 209.880909 
L 89.740106 230.051894 
Q 89.740106 232.851894 92.540106 232.851894 
z
" style="fill:#ffffff;opacity:0.95;stroke:#cccccc;stroke-linejoin:miter;stroke-width:0.5;"/>
    </g>
    <g id="line2d_22">
     <path d="M 95.340106 218.418722 
L 109.340106 218.418722 
" style="fill:none;stroke:#dc2830;stroke-linecap:square;stroke-width:3;"/>
    </g>
    <g id="line2d_23"/>
    <g id="text_14">
     <!-- $\theta = 2\pi / 8$ -->
     <g transform="translate(120.540106 223.318722)scale(0.14 -0.14)">
      <defs>
       <path d="M 2029 4544 
C 1754 4544 1472 4410 1178 4123 
C 608 3581 186 2616 186 1443 
C 186 428 390 -64 928 -64 
C 1267 -64 1664 172 1965 556 
C 2400 1111 2797 2164 2797 3128 
C 2797 4015 2554 4544 2029 4544 
z
M 1478 2112 
C 1914 2112 2093 2093 2202 2042 
C 2061 1398 1824 825 1619 492 
C 1491 295 1318 181 1126 181 
C 742 181 672 671 672 1430 
C 672 1627 685 1831 717 2036 
C 851 2093 1024 2112 1478 2112 
z
M 1869 4300 
C 2272 4300 2310 3777 2310 2987 
C 2310 2808 2298 2624 2272 2445 
C 2144 2401 1946 2382 1523 2382 
C 1088 2382 902 2401 787 2446 
C 954 3198 1248 3886 1478 4153 
C 1568 4249 1715 4300 1869 4300 
z
" id="PazoMath-Italic-71" transform="scale(0.015625)"/>
       <path d="M 4397 2048 
C 4493 2048 4614 2048 4614 2177 
C 4614 2305 4493 2305 4403 2305 
L 570 2305 
C 480 2305 358 2305 358 2177 
C 358 2048 480 2048 576 2048 
z
M 4403 832 
C 4493 832 4614 832 4614 961 
C 4614 1089 4493 1089 4397 1089 
L 576 1089 
C 480 1089 358 1089 358 961 
C 358 832 480 832 570 832 
z
" id="CMR10-3d" transform="scale(0.015625)"/>
       <path d="M 102 160 
L 102 0 
C 1299 0 1299 0 1530 0 
C 1760 0 1760 0 2995 0 
C 2982 125 2982 186 2982 269 
C 2982 348 2982 407 2995 539 
C 2259 539 1965 539 781 539 
L 1946 1761 
C 2566 2414 2758 2763 2758 3238 
C 2758 3966 2259 4416 1446 4416 
C 986 4416 672 4288 358 3969 
L 250 3099 
L 435 3099 
L 518 3393 
C 621 3763 851 3923 1280 3923 
C 1830 3923 2182 3577 2182 3035 
C 2182 2555 1914 2083 1190 1316 
z
" id="URWPalladioL-Roma-32" transform="scale(0.015625)"/>
       <path d="M 614 2277 
L 672 2322 
C 806 2701 1062 2720 1427 2720 
C 1504 2720 1619 2720 1754 2720 
C 1216 1254 973 810 454 -6 
L 512 -64 
L 986 101 
C 1216 599 1606 1567 1958 2688 
L 3149 2688 
C 3040 2286 2669 1115 2669 701 
C 2669 21 2912 -64 3110 -64 
C 3437 -64 3622 20 4026 360 
L 3974 482 
L 3821 372 
C 3840 385 3654 238 3546 238 
C 3245 238 3155 425 3155 823 
C 3155 984 3168 1157 3206 1344 
C 3315 1878 3424 2405 3482 2669 
C 3629 2669 3776 2669 3923 2688 
C 4038 2688 4179 2754 4282 2793 
C 4352 2930 4378 2943 4499 3099 
L 4454 3176 
C 4282 3118 3994 3054 3782 3054 
C 3706 3067 3546 3067 3386 3067 
C 2701 3067 1645 3067 1363 3067 
C 883 3067 710 2864 525 2328 
z
" id="PazoMath-Italic-70" transform="scale(0.015625)"/>
       <path d="M 3322 4640 
L 2938 4640 
L 557 -768 
L 941 -768 
z
" id="URWPalladioL-Roma-2f" transform="scale(0.015625)"/>
       <path d="M 1075 2211 
C 813 2090 704 2019 563 1884 
C 320 1641 192 1352 192 1019 
C 192 359 723 -128 1446 -128 
C 2278 -128 2970 526 2970 1320 
C 2970 1833 2733 2109 2003 2442 
C 2586 2840 2790 3109 2790 3493 
C 2790 4044 2336 4416 1658 4416 
C 896 4416 339 3929 339 3257 
C 339 2821 512 2577 1075 2211 
z
M 1818 1891 
C 2221 1711 2464 1397 2464 1052 
C 2464 513 2061 90 1542 90 
C 998 90 646 475 646 1071 
C 646 1538 832 1833 1306 2122 
z
M 1427 2712 
C 1024 2910 819 3167 819 3487 
C 819 3910 1126 4198 1581 4198 
C 2048 4198 2355 3891 2355 3422 
C 2355 3058 2195 2808 1779 2538 
z
" id="URWPalladioL-Roma-38" transform="scale(0.015625)"/>
      </defs>
      <use transform="scale(0.996264)" xlink:href="#PazoMath-Italic-71"/>
      <use transform="translate(77.387455 0)scale(1.038107)" xlink:href="#CMR10-3d"/>
      <use transform="translate(187.003084 0)scale(0.996264)" xlink:href="#URWPalladioL-Roma-32"/>
      <use transform="translate(238.061584 0)scale(0.996264)" xlink:href="#PazoMath-Italic-70"/>
      <use transform="translate(310.588513 0)scale(0.996264)" xlink:href="#URWPalladioL-Roma-2f"/>
      <use transform="translate(372.207417 0)scale(0.996264)" xlink:href="#URWPalladioL-Roma-38"/>
     </g>
    </g>
    <g id="PathCollection_2">
     <path d="M 214.622913 224.643722 
C 215.948928 224.643722 217.220812 224.11689 218.158447 223.179256 
C 219.096081 222.241621 219.622913 220.969737 219.622913 219.643722 
C 219.622913 218.317706 219.096081 217.045822 218.158447 216.108188 
C 217.220812 215.170553 215.948928 214.643722 214.622913 214.643722 
C 213.296897 214.643722 212.025013 215.170553 211.087379 216.108188 
C 210.149744 217.045822 209.622913 218.317706 209.622913 219.643722 
C 209.622913 220.969737 210.149744 222.241621 211.087379 223.179256 
C 212.025013 224.11689 213.296897 224.643722 214.622913 224.643722 
z
" style="fill:none;stroke:#007d4d;stroke-width:3;"/>
    </g>
    <g id="text_15">
     <!-- Zeros -->
     <g transform="translate(232.822913 223.318722)scale(0.14 -0.14)">
      <use transform="scale(0.996264)" xlink:href="#URWPalladioL-Roma-5a"/>
      <use transform="translate(66.450031 0)scale(0.996264)" xlink:href="#URWPalladioL-Roma-65"/>
      <use transform="translate(114.170326 0)scale(0.996264)" xlink:href="#URWPalladioL-Roma-72"/>
      <use transform="translate(151.729644 0)scale(0.996264)" xlink:href="#URWPalladioL-Roma-6f"/>
      <use transform="translate(206.125224 0)scale(0.996264)" xlink:href="#URWPalladioL-Roma-73"/>
     </g>
    </g>
   </g>
  </g>
  <g id="axes_2">
   <g id="patch_5">
    <path d="M 355.77325 243.861659 
L 568.43585 243.861659 
L 568.43585 23.179529 
L 355.77325 23.179529 
z
" style="fill:none;"/>
   </g>
   <g id="matplotlib.axis_3">
    <g id="xtick_4">
     <g id="line2d_24">
      <path clip-path="url(#p3409bfde55)" d="M 355.77325 243.861659 
L 355.77325 23.179529 
" style="fill:none;stroke:#000000;stroke-linecap:square;stroke-opacity:0.2;stroke-width:0.5;"/>
     </g>
     <g id="line2d_25">
      <g>
       <use style="fill-opacity:0.2;stroke:#000000;stroke-opacity:0.2;stroke-width:0.8;" x="355.77325" xlink:href="#m581ecff082" y="243.861659"/>
      </g>
     </g>
     <g id="text_16">
      <!-- $\mathdefault{0}$ -->
      <g transform="translate(352.286326 269.341188)scale(0.14 -0.14)">
       <use transform="scale(0.996264)" xlink:href="#URWPalladioL-Roma-30"/>
      </g>
     </g>
    </g>
    <g id="xtick_5">
     <g id="line2d_26">
      <path clip-path="url(#p3409bfde55)" d="M 407.642177 243.861659 
L 407.642177 23.179529 
" style="fill:none;stroke:#000000;stroke-linecap:square;stroke-opacity:0.2;stroke-width:0.5;"/>
     </g>
     <g id="line2d_27">
      <g>
       <use style="fill-opacity:0.2;stroke:#000000;stroke-opacity:0.2;stroke-width:0.8;" x="407.642177" xlink:href="#m581ecff082" y="243.861659"/>
      </g>
     </g>
     <g id="text_17">
      <!-- $\mathdefault{1000}$ -->
      <g transform="translate(393.694481 269.341188)scale(0.14 -0.14)">
       <use transform="scale(0.996264)" xlink:href="#URWPalladioL-Roma-31"/>
       <use transform="translate(49.8132 0)scale(0.996264)" xlink:href="#URWPalladioL-Roma-30"/>
       <use transform="translate(99.626401 0)scale(0.996264)" xlink:href="#URWPalladioL-Roma-30"/>
       <use transform="translate(149.439601 0)scale(0.996264)" xlink:href="#URWPalladioL-Roma-30"/>
      </g>
     </g>
    </g>
    <g id="xtick_6">
     <g id="line2d_28">
      <path clip-path="url(#p3409bfde55)" d="M 459.511104 243.861659 
L 459.511104 23.179529 
" style="fill:none;stroke:#000000;stroke-linecap:square;stroke-opacity:0.2;stroke-width:0.5;"/>
     </g>
     <g id="line2d_29">
      <g>
       <use style="fill-opacity:0.2;stroke:#000000;stroke-opacity:0.2;stroke-width:0.8;" x="459.511104" xlink:href="#m581ecff082" y="243.861659"/>
      </g>
     </g>
     <g id="text_18">
      <!-- $\mathdefault{2000}$ -->
      <g transform="translate(445.563408 269.341188)scale(0.14 -0.14)">
       <use transform="scale(0.996264)" xlink:href="#URWPalladioL-Roma-32"/>
       <use transform="translate(49.8132 0)scale(0.996264)" xlink:href="#URWPalladioL-Roma-30"/>
       <use transform="translate(99.626401 0)scale(0.996264)" xlink:href="#URWPalladioL-Roma-30"/>
       <use transform="translate(149.439601 0)scale(0.996264)" xlink:href="#URWPalladioL-Roma-30"/>
      </g>
     </g>
    </g>
    <g id="xtick_7">
     <g id="line2d_30">
      <path clip-path="url(#p3409bfde55)" d="M 511.380031 243.861659 
L 511.380031 23.179529 
" style="fill:none;stroke:#000000;stroke-linecap:square;stroke-opacity:0.2;stroke-width:0.5;"/>
     </g>
     <g id="line2d_31">
      <g>
       <use style="fill-opacity:0.2;stroke:#000000;stroke-opacity:0.2;stroke-width:0.8;" x="511.380031" xlink:href="#m581ecff082" y="243.861659"/>
      </g>
     </g>
     <g id="text_19">
      <!-- $\mathdefault{3000}$ -->
      <g transform="translate(497.432335 269.341188)scale(0.14 -0.14)">
       <defs>
        <path d="M 275 3197 
L 474 3197 
L 589 3554 
C 659 3770 1062 3987 1395 3987 
C 1811 3987 2150 3649 2150 3248 
C 2150 2770 1773 2368 1318 2368 
C 1267 2368 1197 2368 1114 2381 
L 1018 2381 
L 941 2047 
L 986 2008 
C 1229 2118 1350 2150 1523 2150 
C 2054 2150 2362 1809 2362 1222 
C 2362 566 1971 135 1376 135 
C 1082 135 819 231 627 411 
C 474 553 390 701 269 1049 
L 96 985 
C 230 593 282 361 320 39 
C 659 -77 941 -128 1178 -128 
C 1690 -128 2278 161 2630 593 
C 2848 857 2957 1140 2957 1442 
C 2957 1751 2829 2022 2598 2182 
C 2438 2298 2291 2350 1971 2407 
C 2483 2803 2675 3096 2675 3472 
C 2675 4040 2202 4416 1491 4416 
C 1056 4416 768 4295 461 3989 
z
" id="URWPalladioL-Roma-33" transform="scale(0.015625)"/>
       </defs>
       <use transform="scale(0.996264)" xlink:href="#URWPalladioL-Roma-33"/>
       <use transform="translate(49.8132 0)scale(0.996264)" xlink:href="#URWPalladioL-Roma-30"/>
       <use transform="translate(99.626401 0)scale(0.996264)" xlink:href="#URWPalladioL-Roma-30"/>
       <use transform="translate(149.439601 0)scale(0.996264)" xlink:href="#URWPalladioL-Roma-30"/>
      </g>
     </g>
    </g>
    <g id="xtick_8">
     <g id="line2d_32">
      <path clip-path="url(#p3409bfde55)" d="M 563.248958 243.861659 
L 563.248958 23.179529 
" style="fill:none;stroke:#000000;stroke-linecap:square;stroke-opacity:0.2;stroke-width:0.5;"/>
     </g>
     <g id="line2d_33">
      <g>
       <use style="fill-opacity:0.2;stroke:#000000;stroke-opacity:0.2;stroke-width:0.8;" x="563.248958" xlink:href="#m581ecff082" y="243.861659"/>
      </g>
     </g>
     <g id="text_20">
      <!-- $\mathdefault{4000}$ -->
      <g transform="translate(549.301262 269.341188)scale(0.14 -0.14)">
       <defs>
        <path d="M 1792 1152 
L 1792 673 
C 1792 289 1722 199 1408 199 
L 1011 199 
L 1011 0 
C 1862 0 1862 0 2016 0 
C 2170 0 2170 0 3021 0 
L 3021 199 
L 2714 199 
C 2400 199 2330 282 2330 669 
L 2330 1152 
C 2707 1152 2842 1152 3021 1133 
L 3021 1588 
C 2720 1563 2598 1563 2502 1563 
L 2483 1563 
L 2330 1563 
L 2330 2457 
C 2330 3600 2342 4152 2374 4416 
L 2298 4448 
L 1824 4275 
L 13 1299 
L 83 1152 
z
M 1792 1563 
L 416 1563 
L 1792 3826 
z
" id="URWPalladioL-Roma-34" transform="scale(0.015625)"/>
       </defs>
       <use transform="scale(0.996264)" xlink:href="#URWPalladioL-Roma-34"/>
       <use transform="translate(49.8132 0)scale(0.996264)" xlink:href="#URWPalladioL-Roma-30"/>
       <use transform="translate(99.626401 0)scale(0.996264)" xlink:href="#URWPalladioL-Roma-30"/>
       <use transform="translate(149.439601 0)scale(0.996264)" xlink:href="#URWPalladioL-Roma-30"/>
      </g>
     </g>
    </g>
    <g id="text_21">
     <!-- Frequency [Hz] -->
     <g transform="translate(420.955256 285.828236)scale(0.12 -0.12)">
      <defs>
       <path d="M 1382 2100 
C 1562 2112 1754 2112 2042 2112 
C 2515 2112 2688 2094 2803 2040 
L 2854 1890 
L 2886 1536 
L 3078 1536 
C 3059 2132 3059 2132 3059 2247 
C 3059 2350 3059 2350 3078 2991 
L 2886 2991 
L 2854 2642 
C 2848 2581 2829 2521 2803 2467 
C 2688 2414 2509 2394 2086 2394 
C 1818 2394 1600 2394 1382 2394 
L 1382 4117 
C 1574 4160 1690 4160 2067 4160 
C 2374 4160 2733 4124 2931 4076 
C 3085 4039 3104 4008 3104 3868 
L 3104 3465 
L 3328 3465 
C 3328 3843 3360 4146 3430 4423 
C 3117 4423 2925 4423 2650 4423 
L 1965 4423 
C 1651 4423 1427 4423 1267 4423 
C 1082 4423 1082 4423 141 4423 
L 141 4224 
L 448 4224 
C 742 4224 774 4172 774 3663 
L 774 766 
C 774 256 742 205 448 205 
L 141 205 
L 141 0 
C 518 0 742 0 1075 0 
C 1408 0 1638 0 2016 0 
L 2016 205 
L 1709 205 
C 1414 205 1382 256 1382 766 
z
" id="URWPalladioL-Roma-46" transform="scale(0.015625)"/>
       <path d="M 2515 436 
L 2515 -1138 
C 2515 -1547 2490 -1593 2278 -1593 
L 1907 -1593 
L 1907 -1792 
C 2650 -1792 2650 -1792 2797 -1792 
C 2950 -1792 3130 -1792 3584 -1792 
L 3584 -1593 
L 3290 -1593 
C 3072 -1593 3053 -1548 3053 -1143 
L 3053 2036 
C 3053 2435 3091 2680 3200 2924 
L 3078 2995 
L 2765 2796 
C 2438 2943 2163 3008 1888 3008 
C 1702 3008 1478 2956 1382 2899 
L 845 2554 
C 435 2292 224 1871 224 1315 
C 224 479 730 -64 1523 -64 
C 1658 -64 1766 -38 1850 13 
z
M 2515 781 
C 2515 691 2362 525 2189 429 
C 2035 346 1888 302 1734 302 
C 1171 302 781 824 781 1596 
C 781 2298 1139 2706 1754 2706 
C 2067 2706 2291 2630 2515 2445 
z
" id="URWPalladioL-Roma-71" transform="scale(0.015625)"/>
       <path d="M 3219 3009 
L 3162 3035 
C 2835 2900 2502 2810 2163 2772 
L 2163 2592 
L 2400 2592 
C 2656 2592 2682 2547 2682 2121 
L 2682 1070 
C 2682 928 2592 747 2445 599 
C 2266 418 2061 327 1811 327 
C 1587 327 1408 398 1306 521 
C 1216 624 1171 824 1171 1107 
L 1171 3009 
L 1114 3035 
C 787 2900 454 2810 115 2772 
L 115 2592 
L 352 2592 
C 608 2592 634 2547 634 2122 
L 634 1039 
C 634 587 672 387 787 227 
C 928 33 1171 -64 1536 -64 
C 1824 -64 2080 26 2253 186 
L 2682 585 
C 2682 401 2675 298 2656 0 
C 3085 0 3091 0 3187 0 
C 3277 0 3277 0 3718 0 
L 3718 186 
L 3456 212 
C 3238 212 3219 251 3219 664 
z
" id="URWPalladioL-Roma-75" transform="scale(0.015625)"/>
       <path d="M 2554 1994 
C 2554 2289 2586 2552 2643 2783 
C 2387 2937 2163 3008 1901 3008 
C 1594 3008 1235 2886 851 2642 
C 403 2360 166 1911 166 1347 
C 166 481 774 -128 1632 -128 
C 1965 -128 2445 -6 2509 90 
L 2643 295 
L 2579 391 
C 2342 263 2138 205 1907 205 
C 1197 205 730 757 730 1603 
C 730 2289 1050 2674 1626 2674 
C 1907 2674 2214 2546 2330 2386 
L 2374 1994 
z
" id="URWPalladioL-Roma-63" transform="scale(0.015625)"/>
       <path d="M 563 -1152 
C 1018 -1152 1030 -1152 1184 -1152 
C 1338 -1152 1370 -1152 1805 -1152 
L 1843 -1120 
L 1843 -953 
L 1818 -921 
L 1574 -921 
C 1402 -921 1261 -882 1184 -818 
C 1126 -760 1107 -671 1107 -459 
C 1107 -453 1107 -318 1101 -125 
L 1101 112 
L 1101 3409 
L 1101 3646 
C 1107 3826 1107 3967 1107 3973 
C 1107 4185 1126 4281 1184 4339 
C 1261 4403 1402 4441 1574 4441 
L 1818 4441 
L 1843 4473 
L 1843 4640 
L 1805 4672 
C 1357 4672 1338 4672 1184 4672 
C 1037 4672 1005 4672 563 4672 
L 506 4595 
C 544 4435 557 4223 557 3730 
C 557 3633 557 3556 563 3492 
L 563 3409 
L 563 112 
L 563 28 
C 557 -74 557 -81 557 -190 
L 557 -260 
C 557 -696 544 -876 506 -1075 
z
" id="URWPalladioL-Roma-5b" transform="scale(0.015625)"/>
       <path d="M 3942 773 
C 3942 257 3910 205 3616 205 
L 3309 205 
L 3309 0 
C 3686 0 3910 0 4243 0 
C 4576 0 4806 0 5184 0 
L 5184 205 
L 4877 205 
C 4582 205 4550 256 4550 766 
L 4550 3663 
C 4550 4172 4582 4224 4877 4224 
L 5184 4224 
L 5184 4423 
C 4717 4423 4576 4423 4243 4423 
C 3923 4423 3770 4423 3309 4423 
L 3309 4224 
L 3616 4224 
C 3910 4224 3942 4172 3942 3668 
L 3942 2529 
C 3808 2529 3674 2529 3411 2529 
L 1914 2529 
C 1651 2529 1510 2529 1382 2529 
L 1382 3668 
C 1382 4172 1414 4224 1709 4224 
L 2016 4224 
L 2016 4423 
C 1549 4423 1408 4423 1075 4423 
C 755 4423 602 4423 141 4423 
L 141 4224 
L 448 4224 
C 742 4224 774 4172 774 3663 
L 774 766 
C 774 256 742 205 448 205 
L 141 205 
L 141 0 
C 518 0 742 0 1075 0 
C 1408 0 1638 0 2016 0 
L 2016 205 
L 1709 205 
C 1414 205 1382 257 1382 773 
L 1382 2227 
C 1555 2240 1658 2240 1914 2240 
L 3411 2240 
C 3667 2240 3770 2240 3942 2227 
z
" id="URWPalladioL-Roma-48" transform="scale(0.015625)"/>
       <path d="M 2912 2764 
L 2912 2944 
C 2464 2944 2272 2944 2029 2944 
L 442 2944 
C 429 2624 422 2549 384 2115 
L 576 2115 
L 653 2547 
C 678 2681 794 2713 1267 2713 
L 2182 2713 
C 2048 2503 1939 2357 1766 2141 
L 678 794 
C 525 609 435 501 102 127 
L 141 0 
C 806 0 845 0 1120 0 
L 2886 0 
C 2886 145 2899 297 2944 602 
L 2982 899 
L 2790 899 
L 2675 397 
C 2650 282 2381 237 1766 237 
L 902 237 
z
" id="URWPalladioL-Roma-7a" transform="scale(0.015625)"/>
       <path d="M 1568 4672 
C 1114 4672 1094 4672 947 4672 
C 794 4672 762 4672 326 4672 
L 288 4640 
L 288 4473 
L 314 4441 
L 557 4441 
C 730 4441 864 4403 941 4339 
C 1005 4281 1024 4191 1024 3973 
C 1024 3954 1024 3826 1030 3646 
L 1030 3409 
L 1030 112 
L 1030 -125 
C 1024 -311 1024 -427 1024 -446 
C 1024 -664 1005 -760 941 -818 
C 864 -882 730 -921 557 -921 
L 314 -921 
L 288 -953 
L 288 -1120 
L 326 -1152 
C 774 -1152 787 -1152 947 -1152 
C 1094 -1152 1126 -1152 1568 -1152 
L 1626 -1075 
C 1587 -921 1581 -722 1574 -228 
C 1574 -138 1574 -55 1568 28 
L 1568 112 
L 1568 3409 
L 1568 3492 
C 1574 3563 1574 3646 1574 3736 
C 1574 4230 1587 4441 1626 4595 
z
" id="URWPalladioL-Roma-5d" transform="scale(0.015625)"/>
      </defs>
      <use transform="scale(0.996264)" xlink:href="#URWPalladioL-Roma-46"/>
      <use transform="translate(55.391677 0)scale(0.996264)" xlink:href="#URWPalladioL-Roma-72"/>
      <use transform="translate(92.950994 0)scale(0.996264)" xlink:href="#URWPalladioL-Roma-65"/>
      <use transform="translate(140.671289 0)scale(0.996264)" xlink:href="#URWPalladioL-Roma-71"/>
      <use transform="translate(196.461922 0)scale(0.996264)" xlink:href="#URWPalladioL-Roma-75"/>
      <use transform="translate(256.535657 0)scale(0.996264)" xlink:href="#URWPalladioL-Roma-65"/>
      <use transform="translate(304.255952 0)scale(0.996264)" xlink:href="#URWPalladioL-Roma-6e"/>
      <use transform="translate(362.238012 0)scale(0.996264)" xlink:href="#URWPalladioL-Roma-63"/>
      <use transform="translate(406.471581 0)scale(0.996264)" xlink:href="#URWPalladioL-Roma-79"/>
      <use transform="translate(486.769858 0)scale(0.996264)" xlink:href="#URWPalladioL-Roma-5b"/>
      <use transform="translate(519.945088 0)scale(0.996264)" xlink:href="#URWPalladioL-Roma-48"/>
      <use transform="translate(602.833749 0)scale(0.996264)" xlink:href="#URWPalladioL-Roma-7a"/>
      <use transform="translate(652.64695 0)scale(0.996264)" xlink:href="#URWPalladioL-Roma-5d"/>
     </g>
    </g>
   </g>
   <g id="matplotlib.axis_4">
    <g id="ytick_8">
     <g id="line2d_34">
      <path clip-path="url(#p3409bfde55)" d="M 355.77325 238.607322 
L 568.43585 238.607322 
" style="fill:none;stroke:#000000;stroke-linecap:square;stroke-opacity:0.2;stroke-width:0.5;"/>
     </g>
     <g id="line2d_35">
      <g>
       <use style="fill-opacity:0.2;stroke:#000000;stroke-opacity:0.2;stroke-width:0.8;" x="355.77325" xlink:href="#mf0b668979f" y="238.607322"/>
      </g>
     </g>
     <g id="text_22">
      <!-- $\mathdefault{−120}$ -->
      <g transform="translate(307.879863 243.597087)scale(0.14 -0.14)">
       <use transform="scale(1.038107)" xlink:href="#CMSY10-0"/>
       <use transform="translate(81.941696 0)scale(0.996264)" xlink:href="#URWPalladioL-Roma-31"/>
       <use transform="translate(131.754897 0)scale(0.996264)" xlink:href="#URWPalladioL-Roma-32"/>
       <use transform="translate(181.568097 0)scale(0.996264)" xlink:href="#URWPalladioL-Roma-30"/>
      </g>
     </g>
    </g>
    <g id="ytick_9">
     <g id="line2d_36">
      <path clip-path="url(#p3409bfde55)" d="M 355.77325 203.578413 
L 568.43585 203.578413 
" style="fill:none;stroke:#000000;stroke-linecap:square;stroke-opacity:0.2;stroke-width:0.5;"/>
     </g>
     <g id="line2d_37">
      <g>
       <use style="fill-opacity:0.2;stroke:#000000;stroke-opacity:0.2;stroke-width:0.8;" x="355.77325" xlink:href="#mf0b668979f" y="203.578413"/>
      </g>
     </g>
     <g id="text_23">
      <!-- $\mathdefault{−100}$ -->
      <g transform="translate(307.879863 208.568177)scale(0.14 -0.14)">
       <use transform="scale(1.038107)" xlink:href="#CMSY10-0"/>
       <use transform="translate(81.941696 0)scale(0.996264)" xlink:href="#URWPalladioL-Roma-31"/>
       <use transform="translate(131.754897 0)scale(0.996264)" xlink:href="#URWPalladioL-Roma-30"/>
       <use transform="translate(181.568097 0)scale(0.996264)" xlink:href="#URWPalladioL-Roma-30"/>
      </g>
     </g>
    </g>
    <g id="ytick_10">
     <g id="line2d_38">
      <path clip-path="url(#p3409bfde55)" d="M 355.77325 168.549503 
L 568.43585 168.549503 
" style="fill:none;stroke:#000000;stroke-linecap:square;stroke-opacity:0.2;stroke-width:0.5;"/>
     </g>
     <g id="line2d_39">
      <g>
       <use style="fill-opacity:0.2;stroke:#000000;stroke-opacity:0.2;stroke-width:0.8;" x="355.77325" xlink:href="#mf0b668979f" y="168.549503"/>
      </g>
     </g>
     <g id="text_24">
      <!-- $\mathdefault{−80}$ -->
      <g transform="translate(314.853711 173.539268)scale(0.14 -0.14)">
       <use transform="scale(1.038107)" xlink:href="#CMSY10-0"/>
       <use transform="translate(81.941696 0)scale(0.996264)" xlink:href="#URWPalladioL-Roma-38"/>
       <use transform="translate(131.754897 0)scale(0.996264)" xlink:href="#URWPalladioL-Roma-30"/>
      </g>
     </g>
    </g>
    <g id="ytick_11">
     <g id="line2d_40">
      <path clip-path="url(#p3409bfde55)" d="M 355.77325 133.520594 
L 568.43585 133.520594 
" style="fill:none;stroke:#000000;stroke-linecap:square;stroke-opacity:0.2;stroke-width:0.5;"/>
     </g>
     <g id="line2d_41">
      <g>
       <use style="fill-opacity:0.2;stroke:#000000;stroke-opacity:0.2;stroke-width:0.8;" x="355.77325" xlink:href="#mf0b668979f" y="133.520594"/>
      </g>
     </g>
     <g id="text_25">
      <!-- $\mathdefault{−60}$ -->
      <g transform="translate(314.853711 138.510359)scale(0.14 -0.14)">
       <defs>
        <path d="M 2662 4310 
L 2426 4419 
C 1811 4214 1549 4086 1222 3804 
C 563 3246 205 2464 205 1585 
C 205 526 717 -128 1542 -128 
C 2374 -128 2995 532 2995 1405 
C 2995 2143 2554 2624 1875 2624 
C 1555 2624 1363 2540 986 2239 
C 915 2181 909 2175 838 2124 
C 973 3284 1510 3913 2662 4259 
z
M 1632 2239 
C 2118 2239 2445 1816 2445 1181 
C 2445 513 2118 83 1626 83 
C 1082 83 787 551 787 1412 
C 787 1636 813 1758 883 1867 
C 1024 2085 1325 2239 1632 2239 
z
" id="URWPalladioL-Roma-36" transform="scale(0.015625)"/>
       </defs>
       <use transform="scale(1.038107)" xlink:href="#CMSY10-0"/>
       <use transform="translate(81.941696 0)scale(0.996264)" xlink:href="#URWPalladioL-Roma-36"/>
       <use transform="translate(131.754897 0)scale(0.996264)" xlink:href="#URWPalladioL-Roma-30"/>
      </g>
     </g>
    </g>
    <g id="ytick_12">
     <g id="line2d_42">
      <path clip-path="url(#p3409bfde55)" d="M 355.77325 98.491685 
L 568.43585 98.491685 
" style="fill:none;stroke:#000000;stroke-linecap:square;stroke-opacity:0.2;stroke-width:0.5;"/>
     </g>
     <g id="line2d_43">
      <g>
       <use style="fill-opacity:0.2;stroke:#000000;stroke-opacity:0.2;stroke-width:0.8;" x="355.77325" xlink:href="#mf0b668979f" y="98.491685"/>
      </g>
     </g>
     <g id="text_26">
      <!-- $\mathdefault{−40}$ -->
      <g transform="translate(314.853711 103.481449)scale(0.14 -0.14)">
       <use transform="scale(1.038107)" xlink:href="#CMSY10-0"/>
       <use transform="translate(81.941696 0)scale(0.996264)" xlink:href="#URWPalladioL-Roma-34"/>
       <use transform="translate(131.754897 0)scale(0.996264)" xlink:href="#URWPalladioL-Roma-30"/>
      </g>
     </g>
    </g>
    <g id="ytick_13">
     <g id="line2d_44">
      <path clip-path="url(#p3409bfde55)" d="M 355.77325 63.462775 
L 568.43585 63.462775 
" style="fill:none;stroke:#000000;stroke-linecap:square;stroke-opacity:0.2;stroke-width:0.5;"/>
     </g>
     <g id="line2d_45">
      <g>
       <use style="fill-opacity:0.2;stroke:#000000;stroke-opacity:0.2;stroke-width:0.8;" x="355.77325" xlink:href="#mf0b668979f" y="63.462775"/>
      </g>
     </g>
     <g id="text_27">
      <!-- $\mathdefault{−20}$ -->
      <g transform="translate(314.853711 68.45254)scale(0.14 -0.14)">
       <use transform="scale(1.038107)" xlink:href="#CMSY10-0"/>
       <use transform="translate(81.941696 0)scale(0.996264)" xlink:href="#URWPalladioL-Roma-32"/>
       <use transform="translate(131.754897 0)scale(0.996264)" xlink:href="#URWPalladioL-Roma-30"/>
      </g>
     </g>
    </g>
    <g id="ytick_14">
     <g id="line2d_46">
      <path clip-path="url(#p3409bfde55)" d="M 355.77325 28.433866 
L 568.43585 28.433866 
" style="fill:none;stroke:#000000;stroke-linecap:square;stroke-opacity:0.2;stroke-width:0.5;"/>
     </g>
     <g id="line2d_47">
      <g>
       <use style="fill-opacity:0.2;stroke:#000000;stroke-opacity:0.2;stroke-width:0.8;" x="355.77325" xlink:href="#mf0b668979f" y="28.433866"/>
      </g>
     </g>
     <g id="text_28">
      <!-- $\mathdefault{0}$ -->
      <g transform="translate(333.299402 33.42363)scale(0.14 -0.14)">
       <use transform="scale(0.996264)" xlink:href="#URWPalladioL-Roma-30"/>
      </g>
     </g>
    </g>
    <g id="text_29">
     <!-- Gain [dB] -->
     <g transform="translate(300.508579 159.068565)rotate(-90)scale(0.12 -0.12)">
      <defs>
       <path d="M 4102 3307 
L 4301 3307 
C 4301 3633 4339 3934 4429 4280 
C 3718 4486 3392 4544 2880 4544 
C 1229 4544 141 3608 141 2186 
C 141 1538 358 961 762 571 
C 1203 128 1894 -128 2637 -128 
C 3091 -128 3533 -45 4403 199 
L 4403 1274 
C 4403 1473 4410 1486 4474 1511 
L 4659 1576 
L 4634 1730 
C 4064 1730 4045 1730 3846 1730 
C 3661 1730 3622 1730 3066 1730 
L 3066 1544 
L 3597 1500 
C 3757 1487 3814 1429 3814 1275 
L 3814 628 
C 3814 475 3802 398 3776 353 
C 3706 231 3322 141 2899 141 
C 1632 141 826 987 826 2319 
C 826 3556 1517 4274 2714 4274 
C 3046 4274 3328 4236 3571 4159 
C 3942 4037 4102 3890 4102 3647 
z
" id="URWPalladioL-Roma-47" transform="scale(0.015625)"/>
       <path d="M 2637 2802 
C 2278 2956 2099 3008 1875 3008 
C 1702 3008 1549 2969 1389 2887 
L 826 2593 
C 461 2401 224 1935 224 1392 
C 224 881 397 460 710 204 
C 928 19 1229 -64 1645 -64 
C 1773 -64 1920 -38 1952 -13 
L 2662 583 
L 2630 -7 
C 2944 -7 3046 -7 3123 -7 
C 3174 -7 3264 -7 3398 -7 
C 3443 -7 3571 -7 3706 -7 
L 3706 192 
L 3411 192 
C 3194 192 3174 237 3174 643 
L 3174 4607 
L 3117 4659 
C 2835 4550 2624 4498 2118 4421 
L 2118 4242 
L 2477 4242 
C 2592 4242 2637 4171 2637 3978 
z
M 2637 1424 
C 2637 1009 2624 946 2541 799 
C 2362 499 2048 302 1747 302 
C 1184 302 781 844 781 1603 
C 781 2298 1126 2706 1702 2706 
C 1946 2706 2202 2623 2426 2470 
C 2560 2381 2637 2298 2637 2246 
z
" id="URWPalladioL-Roma-64" transform="scale(0.015625)"/>
       <path d="M 2163 4416 
C 1274 4416 1274 4416 1178 4416 
C 1056 4416 1056 4416 166 4416 
L 166 4236 
L 397 4217 
C 698 4191 723 4146 723 3643 
L 723 619 
C 723 384 672 243 582 205 
L 416 141 
L 416 0 
C 858 0 992 0 1114 0 
C 1184 0 1254 0 1331 0 
C 1843 0 1843 0 1907 0 
C 2374 0 2797 114 3085 324 
C 3462 590 3686 1022 3686 1467 
C 3686 1791 3558 2051 3315 2223 
C 3072 2401 2854 2458 2362 2496 
C 2675 2559 2822 2617 3002 2738 
C 3309 2947 3469 3221 3469 3552 
C 3469 4111 3066 4416 2323 4416 
z
M 1331 2323 
C 1581 2323 1638 2323 1760 2323 
C 2624 2323 3027 2013 3027 1335 
C 3027 662 2586 263 1824 263 
C 1638 263 1491 276 1331 314 
z
M 1331 4121 
C 1498 4159 1645 4172 1850 4172 
C 2534 4172 2835 3942 2835 3414 
C 2835 2859 2451 2560 1722 2560 
C 1613 2560 1530 2560 1331 2560 
z
" id="URWPalladioL-Roma-42" transform="scale(0.015625)"/>
      </defs>
      <use transform="scale(0.996264)" xlink:href="#URWPalladioL-Roma-47"/>
      <use transform="translate(76.013746 0)scale(0.996264)" xlink:href="#URWPalladioL-Roma-61"/>
      <use transform="translate(125.826947 0)scale(0.996264)" xlink:href="#URWPalladioL-Roma-69"/>
      <use transform="translate(154.817308 0)scale(0.996264)" xlink:href="#URWPalladioL-Roma-6e"/>
      <use transform="translate(237.705969 0)scale(0.996264)" xlink:href="#URWPalladioL-Roma-5b"/>
      <use transform="translate(270.881199 0)scale(0.996264)" xlink:href="#URWPalladioL-Roma-64"/>
      <use transform="translate(331.752829 0)scale(0.996264)" xlink:href="#URWPalladioL-Roma-42"/>
      <use transform="translate(392.62446 0)scale(0.996264)" xlink:href="#URWPalladioL-Roma-5d"/>
     </g>
    </g>
   </g>
   <g id="patch_6">
    <path clip-path="url(#p3409bfde55)" d="M 407.642177 243.861659 
L 407.642177 23.179529 
L 563.248958 23.179529 
L 563.248958 243.861659 
z
" style="fill:#ff0000;opacity:0.1;stroke:#ff0000;stroke-linejoin:miter;stroke-width:0.5;"/>
   </g>
   <g id="LineCollection_1">
    <path clip-path="url(#p3409bfde55)" d="M 277.879568 273.636232 
L 277.879568 10.919411 
" style="fill:none;stroke:#007d4d;stroke-dasharray:3,4.95;stroke-dashoffset:0;stroke-width:3;"/>
    <path clip-path="url(#p3409bfde55)" d="M 269.85685 273.636232 
L 269.85685 10.919411 
" style="fill:none;stroke:#007d4d;stroke-dasharray:3,4.95;stroke-dashoffset:0;stroke-width:3;"/>
    <path clip-path="url(#p3409bfde55)" d="M 250.390352 273.636232 
L 250.390352 10.919411 
" style="fill:none;stroke:#007d4d;stroke-dasharray:3,4.95;stroke-dashoffset:0;stroke-width:3;"/>
    <path clip-path="url(#p3409bfde55)" d="M 211.529666 273.636232 
L 211.529666 10.919411 
" style="fill:none;stroke:#007d4d;stroke-dasharray:3,4.95;stroke-dashoffset:0;stroke-width:3;"/>
    <path clip-path="url(#p3409bfde55)" d="M 500.016834 273.636232 
L 500.016834 10.919411 
" style="fill:none;stroke:#007d4d;stroke-dasharray:3,4.95;stroke-dashoffset:0;stroke-width:3;"/>
    <path clip-path="url(#p3409bfde55)" d="M 461.156147 273.636232 
L 461.156147 10.919411 
" style="fill:none;stroke:#007d4d;stroke-dasharray:3,4.95;stroke-dashoffset:0;stroke-width:3;"/>
    <path clip-path="url(#p3409bfde55)" d="M 441.68965 273.636232 
L 441.68965 10.919411 
" style="fill:none;stroke:#007d4d;stroke-dasharray:3,4.95;stroke-dashoffset:0;stroke-width:3;"/>
    <path clip-path="url(#p3409bfde55)" d="M 433.666932 273.636232 
L 433.666932 10.919411 
" style="fill:none;stroke:#007d4d;stroke-dasharray:3,4.95;stroke-dashoffset:0;stroke-width:3;"/>
    <path clip-path="url(#p3409bfde55)" d="M 563.248958 273.636232 
L 563.248958 10.919411 
" style="fill:none;stroke:#007d4d;stroke-dasharray:3,4.95;stroke-dashoffset:0;stroke-width:3;"/>
   </g>
   <g id="line2d_48">
    <path clip-path="url(#p3409bfde55)" d="M 355.77325 28.43385 
L 397.106301 28.538934 
L 399.132431 28.735957 
L 400.753335 29.115281 
L 401.969013 29.656549 
L 402.779465 30.209619 
L 403.589917 30.969422 
L 404.400369 31.980756 
L 405.210821 33.278562 
L 406.426499 35.792087 
L 407.642177 38.942508 
L 409.263081 43.914976 
L 411.289211 50.907407 
L 414.531019 62.96611 
L 418.583279 78.940596 
L 421.825087 92.640424 
L 424.256442 103.806465 
L 426.282572 114.05611 
L 427.903476 123.234439 
L 429.52438 133.857592 
L 430.740058 143.502071 
L 431.55051 151.430687 
L 432.360962 161.840656 
L 432.766188 169.031695 
L 433.171414 179.594526 
L 433.57664 205.630405 
L 433.981866 189.560738 
L 434.387092 179.037519 
L 434.792318 174.127268 
L 435.197544 171.335525 
L 435.60277 169.691601 
L 436.007996 168.788977 
L 436.413222 168.422503 
L 436.818448 168.478421 
L 437.223674 168.891927 
L 437.6289 169.628541 
L 438.034126 170.675777 
L 438.844578 173.749677 
L 439.65503 178.460988 
L 440.060256 181.728286 
L 440.465482 185.983192 
L 440.870708 191.943017 
L 441.275934 201.776209 
L 441.68116 235.732978 
L 442.086386 202.727865 
L 442.491612 193.020214 
L 442.896838 187.350238 
L 443.70729 180.446524 
L 444.517742 176.231281 
L 445.328194 173.396428 
L 446.138646 171.425901 
L 446.949098 170.062375 
L 447.75955 169.15959 
L 448.570002 168.627624 
L 449.380454 168.408771 
L 450.190906 168.465663 
L 451.001358 168.775049 
L 451.81181 169.324523 
L 452.622262 170.111058 
L 453.432714 171.140869 
L 454.243166 172.430594 
L 455.053618 174.010181 
L 455.86407 175.928557 
L 456.674522 178.264521 
L 457.484974 181.148868 
L 458.295426 184.814193 
L 459.105878 189.72701 
L 459.91633 197.048482 
L 460.321556 202.642508 
L 460.726782 211.51172 
L 461.132008 234.897018 
L 461.537234 213.131569 
L 461.94246 203.740668 
L 462.347686 198.04471 
L 463.158138 190.806966 
L 463.96859 186.08514 
L 464.779042 182.634076 
L 465.589494 179.958753 
L 466.805172 176.888246 
L 468.02085 174.582394 
L 469.236528 172.811882 
L 470.452206 171.443112 
L 471.667884 170.391528 
L 472.883562 169.600459 
L 474.099239 169.030399 
L 475.314917 168.653099 
L 476.935821 168.4154 
L 478.556725 168.451403 
L 480.177629 168.740888 
L 481.798533 169.273997 
L 483.419437 170.050156 
L 485.040341 171.078293 
L 486.661245 172.378454 
L 488.282149 173.985357 
L 489.903053 175.955245 
L 491.523957 178.379223 
L 492.739635 180.583901 
L 493.955313 183.234414 
L 495.170991 186.50865 
L 495.981443 189.189658 
L 496.791895 192.461045 
L 497.602347 196.640588 
L 498.412799 202.41368 
L 498.818025 206.393613 
L 499.223251 211.7826 
L 499.628477 220.169475 
L 500.033703 237.125392 
L 500.438929 219.314262 
L 500.844155 211.362278 
L 501.654607 202.357206 
L 502.465059 196.798889 
L 503.275511 192.790021 
L 504.085963 189.669014 
L 505.301641 186.015231 
L 506.517319 183.160415 
L 507.732997 180.842202 
L 508.948675 178.911844 
L 510.569579 176.78614 
L 512.190483 175.04943 
L 513.811387 173.61416 
L 515.837517 172.156649 
L 517.863647 171.002654 
L 519.889777 170.100258 
L 521.915907 169.413383 
L 524.347262 168.83816 
L 526.778618 168.506303 
L 529.209974 168.398132 
L 531.64133 168.502278 
L 534.072686 168.814383 
L 536.504042 169.336683 
L 538.935398 170.07837 
L 541.366754 171.056834 
L 543.79811 172.300148 
L 545.82424 173.569154 
L 547.85037 175.088646 
L 549.8765 176.91256 
L 551.497404 178.644384 
L 553.118308 180.685144 
L 554.739212 183.130322 
L 555.95489 185.319395 
L 557.170568 187.926276 
L 558.386246 191.12466 
L 559.196698 193.731955 
L 560.00715 196.902405 
L 560.817602 200.935291 
L 561.628054 206.463562 
L 562.03328 210.234441 
L 562.438506 215.264916 
L 562.843732 222.83818 
L 562.843732 222.83818 
" style="fill:none;stroke:#0271ae;stroke-linecap:square;stroke-width:3;"/>
   </g>
   <g id="line2d_49">
    <path clip-path="url(#p3409bfde55)" d="M 407.642177 243.861659 
L 407.642177 23.179529 
" style="fill:none;stroke:#ff0000;stroke-linecap:square;stroke-width:3;"/>
   </g>
   <g id="text_30">
    <!-- Frequency response -->
    <g transform="translate(400.74929 17.179529)scale(0.14 -0.14)">
     <use transform="scale(0.996264)" xlink:href="#URWPalladioL-Roma-46"/>
     <use transform="translate(55.391677 0)scale(0.996264)" xlink:href="#URWPalladioL-Roma-72"/>
     <use transform="translate(92.950994 0)scale(0.996264)" xlink:href="#URWPalladioL-Roma-65"/>
     <use transform="translate(140.671289 0)scale(0.996264)" xlink:href="#URWPalladioL-Roma-71"/>
     <use transform="translate(196.461922 0)scale(0.996264)" xlink:href="#URWPalladioL-Roma-75"/>
     <use transform="translate(256.535657 0)scale(0.996264)" xlink:href="#URWPalladioL-Roma-65"/>
     <use transform="translate(304.255952 0)scale(0.996264)" xlink:href="#URWPalladioL-Roma-6e"/>
     <use transform="translate(362.238012 0)scale(0.996264)" xlink:href="#URWPalladioL-Roma-63"/>
     <use transform="translate(406.471581 0)scale(0.996264)" xlink:href="#URWPalladioL-Roma-79"/>
     <use transform="translate(486.769858 0)scale(0.996264)" xlink:href="#URWPalladioL-Roma-72"/>
     <use transform="translate(524.329176 0)scale(0.996264)" xlink:href="#URWPalladioL-Roma-65"/>
     <use transform="translate(572.049471 0)scale(0.996264)" xlink:href="#URWPalladioL-Roma-73"/>
     <use transform="translate(614.290937 0)scale(0.996264)" xlink:href="#URWPalladioL-Roma-70"/>
     <use transform="translate(674.165331 0)scale(0.996264)" xlink:href="#URWPalladioL-Roma-6f"/>
     <use transform="translate(728.560911 0)scale(0.996264)" xlink:href="#URWPalladioL-Roma-6e"/>
     <use transform="translate(786.542972 0)scale(0.996264)" xlink:href="#URWPalladioL-Roma-73"/>
     <use transform="translate(828.784438 0)scale(0.996264)" xlink:href="#URWPalladioL-Roma-65"/>
    </g>
   </g>
   <g id="legend_2">
    <g id="patch_7">
     <path d="M 493.06454 77.521499 
L 558.63585 77.521499 
Q 561.43585 77.521499 561.43585 74.721499 
L 561.43585 32.979529 
Q 561.43585 30.179529 558.63585 30.179529 
L 493.06454 30.179529 
Q 490.26454 30.179529 490.26454 32.979529 
L 490.26454 74.721499 
Q 490.26454 77.521499 493.06454 77.521499 
z
" style="fill:#ffffff;opacity:0.95;stroke:#cccccc;stroke-linejoin:miter;stroke-width:0.5;"/>
    </g>
    <g id="line2d_50">
     <path d="M 495.86454 41.517342 
L 509.86454 41.517342 
" style="fill:none;stroke:#ff0000;stroke-linecap:square;stroke-width:3;"/>
    </g>
    <g id="line2d_51"/>
    <g id="text_31">
     <!-- $f_c$ -->
     <g transform="translate(521.06454 46.417342)scale(0.14 -0.14)">
      <defs>
       <path d="M 1830 2472 
C 1856 2593 1901 2740 1939 2829 
L 1914 2873 
L 1869 2861 
C 1715 2822 1645 2816 1331 2816 
L 1229 2816 
L 1363 3530 
C 1466 4078 1645 4320 1939 4320 
C 2131 4320 2304 4224 2400 4071 
L 2464 4096 
C 2496 4198 2560 4397 2611 4525 
L 2643 4621 
C 2541 4666 2342 4704 2195 4704 
C 2125 4704 2022 4685 1971 4660 
C 1818 4590 1293 4201 1146 4047 
C 1005 3907 928 3716 858 3352 
L 762 2848 
C 499 2720 371 2669 211 2612 
L 179 2472 
L 698 2472 
L 640 2115 
C 448 872 211 -313 70 -753 
C -45 -1129 -237 -1326 -467 -1326 
C -614 -1326 -685 -1282 -800 -1141 
L -890 -1166 
C -915 -1313 -1005 -1620 -1037 -1677 
C -979 -1709 -883 -1728 -813 -1728 
C -550 -1728 -205 -1530 45 -1231 
C 435 -772 576 -326 1043 1911 
C 1062 1988 1114 2230 1165 2472 
z
" id="URWPalladioL-Ital-66" transform="scale(0.015625)"/>
       <path d="M 2189 2105 
L 2336 2105 
C 2387 2518 2432 2753 2490 2919 
C 2336 3014 2112 3072 1875 3072 
C 1587 3072 1114 2842 755 2518 
C 403 2207 160 1539 160 871 
C 160 260 429 -64 941 -64 
C 1286 -64 1594 63 1946 350 
L 2266 611 
L 2214 738 
L 2118 674 
C 1658 369 1414 261 1190 261 
C 832 261 646 515 646 1017 
C 646 1705 870 2365 1184 2607 
C 1318 2709 1472 2760 1670 2760 
C 1958 2760 2189 2638 2189 2486 
z
" id="URWPalladioL-Ital-63" transform="scale(0.015625)"/>
      </defs>
      <use transform="scale(0.996264)" xlink:href="#URWPalladioL-Ital-66"/>
      <use transform="translate(32.37858 -14.943915)scale(0.757155)" xlink:href="#URWPalladioL-Ital-63"/>
     </g>
    </g>
    <g id="line2d_52">
     <path d="M 495.86454 63.088327 
L 509.86454 63.088327 
" style="fill:none;stroke:#007d4d;stroke-dasharray:3,4.95;stroke-dashoffset:0;stroke-width:3;"/>
    </g>
    <g id="text_32">
     <!-- Zeros -->
     <g transform="translate(521.06454 67.988327)scale(0.14 -0.14)">
      <use transform="scale(0.996264)" xlink:href="#URWPalladioL-Roma-5a"/>
      <use transform="translate(66.450031 0)scale(0.996264)" xlink:href="#URWPalladioL-Roma-65"/>
      <use transform="translate(114.170326 0)scale(0.996264)" xlink:href="#URWPalladioL-Roma-72"/>
      <use transform="translate(151.729644 0)scale(0.996264)" xlink:href="#URWPalladioL-Roma-6f"/>
      <use transform="translate(206.125224 0)scale(0.996264)" xlink:href="#URWPalladioL-Roma-73"/>
     </g>
    </g>
   </g>
  </g>
 </g>
 <defs>
  <clipPath id="p6f77b2baab">
   <rect height="212.662601" width="212.662601" x="67.531623" y="27.189294"/>
  </clipPath>
  <clipPath id="p3409bfde55">
   <rect height="220.682129" width="212.662601" x="355.77325" y="23.179529"/>
  </clipPath>
 </defs>
</svg>
