<?xml version="1.0" encoding="utf-8" standalone="no"?>
<!DOCTYPE svg PUBLIC "-//W3C//DTD SVG 1.1//EN"
  "http://www.w3.org/Graphics/SVG/1.1/DTD/svg11.dtd">
<svg height="440.392306pt" version="1.1" viewBox="0 0 584.39952 440.392306" width="584.39952pt" xmlns="http://www.w3.org/2000/svg" xmlns:xlink="http://www.w3.org/1999/xlink">
 <metadata>
  <rdf:RDF xmlns:cc="http://creativecommons.org/ns#" xmlns:dc="http://purl.org/dc/elements/1.1/" xmlns:rdf="http://www.w3.org/1999/02/22-rdf-syntax-ns#">
   <cc:Work>
    <dc:type rdf:resource="http://purl.org/dc/dcmitype/StillImage"/>
    <dc:date>2021-08-20T09:31:08.054934</dc:date>
    <dc:format>image/svg+xml</dc:format>
    <dc:creator>
     <cc:Agent>
      <dc:title>Matplotlib v3.4.2, https://matplotlib.org/</dc:title>
     </cc:Agent>
    </dc:creator>
   </cc:Work>
  </rdf:RDF>
 </metadata>
 <defs>
  <style type="text/css">*{stroke-linecap:butt;stroke-linejoin:round;}</style>
 </defs>
 <g id="figure_1">
  <g id="patch_1">
   <path d="M 0 440.392306 
L 584.39952 440.392306 
L 584.39952 0 
L 0 0 
z
" style="fill:none;"/>
  </g>
  <g id="axes_1">
   <g id="patch_2">
    <path d="M 57.330847 191.163074 
L 570.225672 191.163074 
L 570.225672 9.980218 
L 57.330847 9.980218 
z
" style="fill:none;"/>
   </g>
   <g id="line2d_1">
    <path clip-path="url(#p26945ad2ac)" d="M 57.330847 78.476175 
L 58.358692 78.653144 
L 59.386537 79.004642 
L 60.414383 79.526453 
L 61.442228 80.213028 
L 62.470073 81.057538 
L 64.525764 83.187062 
L 66.581455 85.837532 
L 68.637145 88.916064 
L 71.720681 94.104175 
L 79.943444 108.503722 
L 81.999135 111.608575 
L 84.054825 114.311747 
L 86.110516 116.53336 
L 88.166207 118.210173 
L 89.194052 118.829512 
L 90.221898 119.297342 
L 91.249743 119.611119 
L 92.277588 119.769556 
L 93.305434 119.772621 
L 94.333279 119.621532 
L 95.361124 119.318734 
L 96.38897 118.867869 
L 97.416815 118.273741 
L 99.472506 116.680402 
L 101.528196 114.598302 
L 103.583887 112.101671 
L 105.639578 109.276792 
L 108.723114 104.634367 
L 114.890186 95.159892 
L 116.945876 92.315107 
L 119.001567 89.779123 
L 121.057258 87.627963 
L 123.112948 85.924157 
L 125.168639 84.714963 
L 126.196484 84.306114 
L 127.22433 84.031099 
L 128.252175 83.891055 
L 129.28002 83.886029 
L 130.307866 84.014982 
L 131.335711 84.275807 
L 132.363557 84.665357 
L 134.419247 85.813044 
L 136.474938 87.413497 
L 138.530629 89.408428 
L 140.586319 91.727886 
L 143.669855 95.640454 
L 151.892618 106.517397 
L 153.948309 108.866453 
L 156.003999 110.913379 
L 158.05969 112.597654 
L 160.115381 113.871295 
L 162.171071 114.700189 
L 163.198917 114.941212 
L 164.226762 115.064963 
L 165.254607 115.071383 
L 166.282453 114.961361 
L 168.338143 114.400146 
L 170.393834 113.406515 
L 172.449525 112.019064 
L 174.505216 110.288345 
L 176.560906 108.275058 
L 179.644442 104.877348 
L 187.867205 95.424031 
L 189.922896 93.3808 
L 191.978586 91.599597 
L 194.034277 90.1331 
L 196.089968 89.023105 
L 198.145658 88.299363 
L 200.201349 87.978823 
L 202.25704 88.065299 
L 204.31273 88.54955 
L 206.368421 89.40979 
L 208.424112 90.612577 
L 210.479802 92.114071 
L 212.535493 93.861594 
L 215.619029 96.812188 
L 223.841792 105.028189 
L 225.897483 106.805405 
L 227.953173 108.355374 
L 230.008864 109.632243 
L 232.064555 110.599608 
L 234.120245 111.231522 
L 236.175936 111.513156 
L 238.231627 111.441098 
L 240.287317 111.023277 
L 242.343008 110.278534 
L 244.398699 109.235841 
L 246.454389 107.933221 
L 249.537925 105.593638 
L 253.649307 102.037445 
L 258.788534 97.545848 
L 261.87207 95.167632 
L 263.92776 93.818885 
L 265.983451 92.707129 
L 268.039142 91.864076 
L 270.094832 91.312353 
L 272.150523 91.064932 
L 274.206214 91.124866 
L 276.261904 91.48535 
L 278.317595 92.130093 
L 280.373286 93.033992 
L 282.428976 94.164075 
L 285.512512 96.195021 
L 289.623894 99.283963 
L 294.76312 103.187935 
L 297.846656 105.256318 
L 299.902347 106.429962 
L 301.958038 107.397948 
L 304.013729 108.132657 
L 306.069419 108.614354 
L 308.12511 108.831691 
L 310.180801 108.781941 
L 312.236491 108.470944 
L 314.292182 107.912783 
L 316.347873 107.129208 
L 318.403563 106.148816 
L 321.487099 104.385798 
L 325.598481 101.70272 
L 330.737707 98.309504 
L 333.821243 96.510596 
L 335.876934 95.489327 
L 337.932625 94.646523 
L 339.988315 94.006241 
L 342.044006 93.585693 
L 344.099697 93.394804 
L 346.155388 93.436009 
L 348.211078 93.704299 
L 350.266769 94.187496 
L 352.32246 94.866758 
L 355.405996 96.197606 
L 358.489532 97.808604 
L 369.79583 104.09206 
L 372.879366 105.368438 
L 374.935057 106.016592 
L 376.990748 106.480648 
L 379.046438 106.748725 
L 381.102129 106.815387 
L 383.15782 106.681712 
L 385.21351 106.355157 
L 387.269201 105.849214 
L 390.352737 104.796855 
L 393.436273 103.468333 
L 398.5755 100.920291 
L 403.714727 98.404693 
L 406.798263 97.117806 
L 409.881799 96.107729 
L 411.937489 95.62147 
L 413.99318 95.30094 
L 416.048871 95.153733 
L 418.104561 95.181787 
L 420.160252 95.381417 
L 422.215943 95.743521 
L 425.299479 96.559125 
L 428.383015 97.641361 
L 432.494396 99.353077 
L 439.689314 102.447493 
L 442.77285 103.566921 
L 445.856386 104.44621 
L 448.939922 105.028391 
L 450.995612 105.23345 
L 453.051303 105.286459 
L 455.106994 105.188146 
L 458.19053 104.77034 
L 461.274066 104.06317 
L 464.357602 103.123927 
L 469.496828 101.244198 
L 475.663901 98.947825 
L 478.747437 97.974069 
L 481.830973 97.208637 
L 484.914509 96.701139 
L 487.998045 96.481618 
L 491.081581 96.558871 
L 494.165117 96.920335 
L 497.248653 97.533484 
L 501.360034 98.654641 
L 507.527106 100.667642 
L 512.666333 102.276411 
L 515.749869 103.068957 
L 518.833405 103.664635 
L 521.916941 104.025664 
L 525.000477 104.13189 
L 528.084013 103.981801 
L 531.167549 103.59219 
L 534.251085 102.996528 
L 538.362466 101.965197 
L 550.69661 98.618102 
L 553.780146 98.038074 
L 556.863682 97.652445 
L 559.947219 97.48408 
L 563.030755 97.539814 
L 566.114291 97.810345 
L 569.197827 98.271278 
L 570.225672 98.461094 
L 570.225672 98.461094 
" style="fill:none;stroke:#0271ae;stroke-linejoin:miter;stroke-width:3;"/>
   </g>
   <g id="line2d_2">
    <path clip-path="url(#p26945ad2ac)" d="M 57.330847 78.476175 
L 62.470073 78.183284 
L 67.6093 78.113429 
L 72.748527 78.275581 
L 77.887753 78.676621 
L 83.02698 79.321189 
L 88.166207 80.211551 
L 93.305434 81.347492 
L 98.44466 82.726221 
L 103.583887 84.34231 
L 108.723114 86.18765 
L 113.86234 88.251437 
L 120.029412 90.99716 
L 126.196484 94.009586 
L 132.363557 97.255125 
L 139.558474 101.284454 
L 148.809082 106.741432 
L 175.533061 122.735098 
L 182.727978 126.675996 
L 188.89505 129.792754 
L 194.034277 132.161574 
L 199.173504 134.287962 
L 204.31273 136.140749 
L 208.424112 137.406118 
L 212.535493 138.463338 
L 216.646875 139.299234 
L 220.758256 139.901717 
L 224.869637 140.259895 
L 228.981019 140.364187 
L 233.0924 140.206418 
L 237.203781 139.77992 
L 241.315163 139.079619 
L 245.426544 138.102113 
L 249.537925 136.845752 
L 253.649307 135.310691 
L 257.760688 133.498948 
L 261.87207 131.414444 
L 265.983451 129.063033 
L 270.094832 126.45252 
L 274.206214 123.592665 
L 278.317595 120.495179 
L 283.456822 116.310109 
L 288.596048 111.805975 
L 293.735275 107.018032 
L 299.902347 100.953809 
L 307.097265 93.536195 
L 317.375718 82.556084 
L 331.765553 67.183072 
L 338.96047 59.850794 
L 344.099697 54.883529 
L 349.238924 50.209929 
L 353.350305 46.72263 
L 357.461686 43.491393 
L 361.573068 40.545289 
L 365.684449 37.912347 
L 368.767985 36.159309 
L 371.851521 34.608271 
L 374.935057 33.269471 
L 378.018593 32.152583 
L 381.102129 31.266662 
L 384.185665 30.620103 
L 387.269201 30.220589 
L 390.352737 30.075051 
L 393.436273 30.189624 
L 396.519809 30.569604 
L 399.603345 31.219416 
L 402.686881 32.142572 
L 405.770417 33.341641 
L 408.853953 34.818217 
L 411.937489 36.572896 
L 415.021025 38.605244 
L 418.104561 40.913783 
L 421.188097 43.49597 
L 424.271633 46.348183 
L 427.355169 49.465715 
L 430.438706 52.84276 
L 434.550087 57.737089 
L 438.661468 63.060996 
L 442.77285 68.791664 
L 446.884231 74.902891 
L 450.995612 81.36517 
L 456.134839 89.886549 
L 461.274066 98.834464 
L 467.441138 110.02512 
L 475.663901 125.471829 
L 495.192962 162.409712 
L 501.360034 173.469582 
L 506.499261 182.229704 
L 510.610642 188.861862 
L 514.722023 195.101123 
L 518.833405 200.89434 
L 521.916941 204.91535 
L 525.000477 208.635136 
L 528.084013 212.033176 
L 531.167549 215.089693 
L 534.251085 217.785754 
L 537.334621 220.103353 
L 539.390312 221.429729 
L 541.446002 222.575563 
L 543.501693 223.536319 
L 545.557384 224.307702 
L 547.613074 224.885666 
L 549.668765 225.266428 
L 551.724456 225.446473 
L 553.780146 225.422569 
L 555.835837 225.191774 
L 557.891528 224.751443 
L 559.947219 224.099243 
L 562.002909 223.233153 
L 564.0586 222.151478 
L 566.114291 220.852857 
L 568.169981 219.336265 
L 570.225672 217.601024 
L 570.225672 217.601024 
" style="fill:none;stroke:#dc2830;stroke-linejoin:miter;stroke-width:3;"/>
   </g>
   <g id="line2d_3">
    <path clip-path="url(#p26945ad2ac)" d="M 57.330847 78.476175 
L 60.414383 78.634068 
L 63.497919 79.105488 
L 66.581455 79.8837 
L 69.664991 80.95758 
L 72.748527 82.311781 
L 75.832063 83.926949 
L 78.915599 85.78 
L 83.02698 88.574558 
L 87.138362 91.673652 
L 92.277588 95.855352 
L 109.750959 110.435091 
L 113.86234 113.450008 
L 117.973722 116.138018 
L 121.057258 117.898085 
L 124.140794 119.410525 
L 127.22433 120.653724 
L 130.307866 121.609912 
L 133.391402 122.265425 
L 136.474938 122.610894 
L 139.558474 122.641382 
L 142.64201 122.356453 
L 145.725546 121.760179 
L 148.809082 120.861083 
L 151.892618 119.672012 
L 154.976154 118.209963 
L 158.05969 116.49583 
L 161.143226 114.554111 
L 165.254607 111.659513 
L 169.365989 108.48346 
L 175.533061 103.369462 
L 187.867205 92.963737 
L 191.978586 89.765722 
L 196.089968 86.842006 
L 199.173504 84.87419 
L 202.25704 83.130719 
L 205.340576 81.636511 
L 208.424112 80.41292 
L 211.507648 79.477435 
L 214.591184 78.843425 
L 217.67472 78.519951 
L 220.758256 78.511636 
L 223.841792 78.818598 
L 226.925328 79.436452 
L 230.008864 80.356367 
L 233.0924 81.565195 
L 236.175936 83.04566 
L 239.259472 84.776603 
L 242.343008 86.733286 
L 246.454389 89.6446 
L 250.565771 92.833287 
L 256.732843 97.95791 
L 269.066987 108.35342 
L 273.178368 111.53897 
L 277.28975 114.446123 
L 280.373286 116.399078 
L 283.456822 118.125831 
L 286.540358 119.601701 
L 289.623894 120.805598 
L 292.70743 121.720314 
L 295.790966 122.332777 
L 298.874502 122.634233 
L 301.958038 122.620375 
L 305.041574 122.2914 
L 308.12511 121.652009 
L 311.208646 120.711342 
L 314.292182 119.482842 
L 317.375718 117.984065 
L 320.459254 116.236434 
L 323.54279 114.264924 
L 327.654171 111.337099 
L 331.765553 108.136003 
L 337.932625 103.001116 
L 350.266769 92.616554 
L 354.37815 89.443694 
L 358.489532 86.553308 
L 361.573068 84.615351 
L 364.656604 82.905439 
L 367.74014 81.44801 
L 370.823676 80.263892 
L 373.907212 79.37001 
L 376.990748 78.779138 
L 380.074284 78.49972 
L 383.15782 78.535751 
L 386.241356 78.886715 
L 389.324892 79.547597 
L 392.408428 80.508951 
L 395.491964 81.757037 
L 398.5755 83.274019 
L 401.659036 85.038216 
L 404.742572 87.024414 
L 408.853953 89.968543 
L 412.965335 93.181822 
L 419.132407 98.326611 
L 430.438706 107.874006 
L 435.577932 111.859441 
L 439.689314 114.732856 
L 442.77285 116.655678 
L 445.856386 118.348629 
L 448.939922 119.787514 
L 452.023458 120.951769 
L 455.106994 121.824755 
L 458.19053 122.393995 
L 461.274066 122.651353 
L 464.357602 122.593153 
L 467.441138 122.220224 
L 470.524674 121.537898 
L 473.60821 120.555925 
L 476.691746 119.28834 
L 479.775282 117.75326 
L 482.858818 115.972623 
L 485.942354 113.971877 
L 490.053735 111.011651 
L 494.165117 107.786414 
L 500.332189 102.632085 
L 511.638487 93.094489 
L 515.749869 89.887273 
L 519.86125 86.951271 
L 522.944786 84.972399 
L 526.028322 83.21647 
L 529.111858 81.708577 
L 532.195394 80.470273 
L 535.27893 79.519254 
L 538.362466 78.869112 
L 541.446002 78.52914 
L 544.529538 78.504195 
L 547.613074 78.794634 
L 550.69661 79.396307 
L 553.780146 80.300614 
L 556.863682 81.494632 
L 559.947219 82.961295 
L 563.030755 84.679642 
L 566.114291 86.625115 
L 570.225672 89.523911 
L 570.225672 89.523911 
" style="fill:none;stroke:#f2aa00;stroke-linejoin:miter;stroke-width:3;"/>
   </g>
   <g id="matplotlib.axis_1">
    <g id="xtick_1">
     <g id="line2d_4">
      <path clip-path="url(#p26945ad2ac)" d="M 57.330847 191.163074 
L 57.330847 9.980218 
" style="fill:none;stroke:#000000;stroke-linejoin:miter;stroke-opacity:0.2;stroke-width:0.5;"/>
     </g>
     <g id="line2d_5">
      <defs>
       <path d="M 0 0 
L 0 3.5 
" id="m599f319fb5" style="stroke:#000000;stroke-opacity:0.2;stroke-width:0.8;"/>
      </defs>
      <g>
       <use style="fill-opacity:0.2;stroke:#000000;stroke-opacity:0.2;stroke-width:0.8;" x="57.330847" xlink:href="#m599f319fb5" y="191.163074"/>
      </g>
     </g>
    </g>
    <g id="xtick_2">
     <g id="line2d_6">
      <path clip-path="url(#p26945ad2ac)" d="M 84.325311 191.163074 
L 84.325311 9.980218 
" style="fill:none;stroke:#000000;stroke-linejoin:miter;stroke-opacity:0.2;stroke-width:0.5;"/>
     </g>
     <g id="line2d_7">
      <g>
       <use style="fill-opacity:0.2;stroke:#000000;stroke-opacity:0.2;stroke-width:0.8;" x="84.325311" xlink:href="#m599f319fb5" y="191.163074"/>
      </g>
     </g>
    </g>
    <g id="xtick_3">
     <g id="line2d_8">
      <path clip-path="url(#p26945ad2ac)" d="M 138.31424 191.163074 
L 138.31424 9.980218 
" style="fill:none;stroke:#000000;stroke-linejoin:miter;stroke-opacity:0.2;stroke-width:0.5;"/>
     </g>
     <g id="line2d_9">
      <g>
       <use style="fill-opacity:0.2;stroke:#000000;stroke-opacity:0.2;stroke-width:0.8;" x="138.31424" xlink:href="#m599f319fb5" y="191.163074"/>
      </g>
     </g>
    </g>
    <g id="xtick_4">
     <g id="line2d_10">
      <path clip-path="url(#p26945ad2ac)" d="M 192.303169 191.163074 
L 192.303169 9.980218 
" style="fill:none;stroke:#000000;stroke-linejoin:miter;stroke-opacity:0.2;stroke-width:0.5;"/>
     </g>
     <g id="line2d_11">
      <g>
       <use style="fill-opacity:0.2;stroke:#000000;stroke-opacity:0.2;stroke-width:0.8;" x="192.303169" xlink:href="#m599f319fb5" y="191.163074"/>
      </g>
     </g>
    </g>
    <g id="xtick_5">
     <g id="line2d_12">
      <path clip-path="url(#p26945ad2ac)" d="M 246.292098 191.163074 
L 246.292098 9.980218 
" style="fill:none;stroke:#000000;stroke-linejoin:miter;stroke-opacity:0.2;stroke-width:0.5;"/>
     </g>
     <g id="line2d_13">
      <g>
       <use style="fill-opacity:0.2;stroke:#000000;stroke-opacity:0.2;stroke-width:0.8;" x="246.292098" xlink:href="#m599f319fb5" y="191.163074"/>
      </g>
     </g>
    </g>
    <g id="xtick_6">
     <g id="line2d_14">
      <path clip-path="url(#p26945ad2ac)" d="M 300.281027 191.163074 
L 300.281027 9.980218 
" style="fill:none;stroke:#000000;stroke-linejoin:miter;stroke-opacity:0.2;stroke-width:0.5;"/>
     </g>
     <g id="line2d_15">
      <g>
       <use style="fill-opacity:0.2;stroke:#000000;stroke-opacity:0.2;stroke-width:0.8;" x="300.281027" xlink:href="#m599f319fb5" y="191.163074"/>
      </g>
     </g>
    </g>
    <g id="xtick_7">
     <g id="line2d_16">
      <path clip-path="url(#p26945ad2ac)" d="M 354.269956 191.163074 
L 354.269956 9.980218 
" style="fill:none;stroke:#000000;stroke-linejoin:miter;stroke-opacity:0.2;stroke-width:0.5;"/>
     </g>
     <g id="line2d_17">
      <g>
       <use style="fill-opacity:0.2;stroke:#000000;stroke-opacity:0.2;stroke-width:0.8;" x="354.269956" xlink:href="#m599f319fb5" y="191.163074"/>
      </g>
     </g>
    </g>
    <g id="xtick_8">
     <g id="line2d_18">
      <path clip-path="url(#p26945ad2ac)" d="M 408.258885 191.163074 
L 408.258885 9.980218 
" style="fill:none;stroke:#000000;stroke-linejoin:miter;stroke-opacity:0.2;stroke-width:0.5;"/>
     </g>
     <g id="line2d_19">
      <g>
       <use style="fill-opacity:0.2;stroke:#000000;stroke-opacity:0.2;stroke-width:0.8;" x="408.258885" xlink:href="#m599f319fb5" y="191.163074"/>
      </g>
     </g>
    </g>
    <g id="xtick_9">
     <g id="line2d_20">
      <path clip-path="url(#p26945ad2ac)" d="M 462.247814 191.163074 
L 462.247814 9.980218 
" style="fill:none;stroke:#000000;stroke-linejoin:miter;stroke-opacity:0.2;stroke-width:0.5;"/>
     </g>
     <g id="line2d_21">
      <g>
       <use style="fill-opacity:0.2;stroke:#000000;stroke-opacity:0.2;stroke-width:0.8;" x="462.247814" xlink:href="#m599f319fb5" y="191.163074"/>
      </g>
     </g>
    </g>
    <g id="xtick_10">
     <g id="line2d_22">
      <path clip-path="url(#p26945ad2ac)" d="M 516.236743 191.163074 
L 516.236743 9.980218 
" style="fill:none;stroke:#000000;stroke-linejoin:miter;stroke-opacity:0.2;stroke-width:0.5;"/>
     </g>
     <g id="line2d_23">
      <g>
       <use style="fill-opacity:0.2;stroke:#000000;stroke-opacity:0.2;stroke-width:0.8;" x="516.236743" xlink:href="#m599f319fb5" y="191.163074"/>
      </g>
     </g>
    </g>
    <g id="xtick_11">
     <g id="line2d_24">
      <path clip-path="url(#p26945ad2ac)" d="M 570.225672 191.163074 
L 570.225672 9.980218 
" style="fill:none;stroke:#000000;stroke-linejoin:miter;stroke-opacity:0.2;stroke-width:0.5;"/>
     </g>
     <g id="line2d_25">
      <g>
       <use style="fill-opacity:0.2;stroke:#000000;stroke-opacity:0.2;stroke-width:0.8;" x="570.225672" xlink:href="#m599f319fb5" y="191.163074"/>
      </g>
     </g>
    </g>
   </g>
   <g id="matplotlib.axis_2">
    <g id="ytick_1">
     <g id="line2d_26">
      <path clip-path="url(#p26945ad2ac)" d="M 57.330847 188.953527 
L 570.225672 188.953527 
" style="fill:none;stroke:#000000;stroke-linejoin:miter;stroke-opacity:0.2;stroke-width:0.5;"/>
     </g>
     <g id="line2d_27">
      <defs>
       <path d="M 0 0 
L -3.5 0 
" id="mc7ee2295ec" style="stroke:#000000;stroke-opacity:0.2;stroke-width:0.8;"/>
      </defs>
      <g>
       <use style="fill-opacity:0.2;stroke:#000000;stroke-opacity:0.2;stroke-width:0.8;" x="57.330847" xlink:href="#mc7ee2295ec" y="188.953527"/>
      </g>
     </g>
     <g id="text_1">
      <!-- $\mathdefault{−4}$ -->
      <g transform="translate(23.385156 193.943291)scale(0.14 -0.14)">
       <defs>
        <path d="M 4218 1472 
C 4326 1472 4442 1472 4442 1600 
C 4442 1728 4326 1728 4218 1728 
L 755 1728 
C 646 1728 531 1728 531 1600 
C 531 1472 646 1472 755 1472 
L 4218 1472 
z
" id="CMSY10-0" transform="scale(0.015625)"/>
        <path d="M 1792 1152 
L 1792 684 
C 1792 310 1722 223 1408 210 
L 1011 192 
L 1011 0 
C 1862 0 1862 0 2016 0 
C 2170 19 2170 19 3021 0 
L 3021 192 
L 2714 210 
C 2400 229 2330 310 2330 684 
L 2330 1152 
C 2707 1152 2842 1145 3021 1127 
L 3021 1580 
C 2720 1555 2598 1555 2502 1561 
L 2483 1561 
L 2330 1561 
L 2330 2445 
C 2330 3576 2342 4122 2374 4383 
L 2298 4416 
L 1824 4243 
L 13 1299 
L 83 1152 
L 1792 1152 
z
M 1792 1561 
L 416 1561 
L 1792 3798 
L 1792 1561 
z
" id="URWPalladioL-Roma-34" transform="scale(0.015625)"/>
       </defs>
       <use transform="scale(1.038107)" xlink:href="#CMSY10-0"/>
       <use transform="translate(81.941696 0)scale(0.996264)" xlink:href="#URWPalladioL-Roma-34"/>
      </g>
     </g>
    </g>
    <g id="ytick_2">
     <g id="line2d_28">
      <path clip-path="url(#p26945ad2ac)" d="M 57.330847 144.762586 
L 570.225672 144.762586 
" style="fill:none;stroke:#000000;stroke-linejoin:miter;stroke-opacity:0.2;stroke-width:0.5;"/>
     </g>
     <g id="line2d_29">
      <g>
       <use style="fill-opacity:0.2;stroke:#000000;stroke-opacity:0.2;stroke-width:0.8;" x="57.330847" xlink:href="#mc7ee2295ec" y="144.762586"/>
      </g>
     </g>
     <g id="text_2">
      <!-- $\mathdefault{−2}$ -->
      <g transform="translate(23.385156 149.752351)scale(0.14 -0.14)">
       <defs>
        <path d="M 102 166 
L 102 0 
C 1299 0 1299 0 1530 0 
C 1760 19 1760 19 2995 0 
C 2982 134 2982 198 2982 287 
C 2982 370 2982 434 2995 574 
C 2259 542 1965 536 781 510 
L 1946 1741 
C 2566 2398 2758 2749 2758 3228 
C 2758 3961 2259 4416 1446 4416 
C 986 4416 672 4287 358 3967 
L 250 3100 
L 435 3100 
L 518 3394 
C 621 3763 851 3923 1280 3923 
C 1830 3923 2182 3578 2182 3036 
C 2182 2558 1914 2086 1190 1320 
L 102 166 
z
" id="URWPalladioL-Roma-32" transform="scale(0.015625)"/>
       </defs>
       <use transform="scale(1.038107)" xlink:href="#CMSY10-0"/>
       <use transform="translate(81.941696 0)scale(0.996264)" xlink:href="#URWPalladioL-Roma-32"/>
      </g>
     </g>
    </g>
    <g id="ytick_3">
     <g id="line2d_30">
      <path clip-path="url(#p26945ad2ac)" d="M 57.330847 100.571646 
L 570.225672 100.571646 
" style="fill:none;stroke:#000000;stroke-linejoin:miter;stroke-opacity:0.2;stroke-width:0.5;"/>
     </g>
     <g id="line2d_31">
      <g>
       <use style="fill-opacity:0.2;stroke:#000000;stroke-opacity:0.2;stroke-width:0.8;" x="57.330847" xlink:href="#mc7ee2295ec" y="100.571646"/>
      </g>
     </g>
     <g id="text_3">
      <!-- $\mathdefault{0}$ -->
      <g transform="translate(34.856999 105.56141)scale(0.14 -0.14)">
       <defs>
        <path d="M 1683 4416 
C 691 4416 186 3628 186 2076 
C 186 1326 320 679 544 365 
C 768 51 1126 -128 1523 -128 
C 2490 -128 2976 704 2976 2345 
C 2976 3749 2560 4416 1683 4416 
z
M 1568 4191 
C 2189 4191 2438 3563 2438 2025 
C 2438 660 2195 96 1606 96 
C 986 96 723 743 723 2307 
C 723 3660 960 4191 1568 4191 
z
" id="URWPalladioL-Roma-30" transform="scale(0.015625)"/>
       </defs>
       <use transform="scale(0.996264)" xlink:href="#URWPalladioL-Roma-30"/>
      </g>
     </g>
    </g>
    <g id="ytick_4">
     <g id="line2d_32">
      <path clip-path="url(#p26945ad2ac)" d="M 57.330847 56.380705 
L 570.225672 56.380705 
" style="fill:none;stroke:#000000;stroke-linejoin:miter;stroke-opacity:0.2;stroke-width:0.5;"/>
     </g>
     <g id="line2d_33">
      <g>
       <use style="fill-opacity:0.2;stroke:#000000;stroke-opacity:0.2;stroke-width:0.8;" x="57.330847" xlink:href="#mc7ee2295ec" y="56.380705"/>
      </g>
     </g>
     <g id="text_4">
      <!-- $\mathdefault{2}$ -->
      <g transform="translate(34.856999 61.37047)scale(0.14 -0.14)">
       <use transform="scale(0.996264)" xlink:href="#URWPalladioL-Roma-32"/>
      </g>
     </g>
    </g>
    <g id="ytick_5">
     <g id="line2d_34">
      <path clip-path="url(#p26945ad2ac)" d="M 57.330847 12.189765 
L 570.225672 12.189765 
" style="fill:none;stroke:#000000;stroke-linejoin:miter;stroke-opacity:0.2;stroke-width:0.5;"/>
     </g>
     <g id="line2d_35">
      <g>
       <use style="fill-opacity:0.2;stroke:#000000;stroke-opacity:0.2;stroke-width:0.8;" x="57.330847" xlink:href="#mc7ee2295ec" y="12.189765"/>
      </g>
     </g>
     <g id="text_5">
      <!-- $\mathdefault{4}$ -->
      <g transform="translate(34.856999 17.179529)scale(0.14 -0.14)">
       <use transform="scale(0.996264)" xlink:href="#URWPalladioL-Roma-34"/>
      </g>
     </g>
    </g>
    <g id="text_6">
     <!-- $z^n$ (real part) -->
     <g transform="translate(16.013872 133.859992)rotate(-90)scale(0.12 -0.12)">
      <defs>
       <path d="M -7 108 
L 51 -64 
C 237 83 410 140 634 140 
C 794 140 973 108 1306 32 
C 1690 -32 1888 -64 2061 -64 
C 2138 -64 2195 -52 2381 0 
C 2451 396 2502 612 2573 910 
L 2432 910 
L 2291 529 
C 2253 415 2176 371 2042 371 
C 1965 371 1862 383 1728 415 
L 1613 441 
C 1402 485 1184 517 1062 517 
C 858 517 685 479 454 383 
L 2624 2809 
L 2662 3014 
L 2605 3072 
L 2458 2924 
C 2394 2860 2330 2835 2240 2835 
C 2022 2835 1690 2886 1382 2969 
L 1267 3001 
C 1088 3046 960 3072 870 3072 
C 762 3072 634 3052 480 3007 
L 275 2230 
L 410 2230 
L 602 2598 
C 710 2623 768 2630 851 2630 
C 941 2630 1011 2623 1139 2598 
C 1357 2554 1523 2535 1658 2535 
C 1888 2535 2042 2573 2253 2681 
L -7 108 
z
" id="URWPalladioL-Ital-7a" transform="scale(0.015625)"/>
       <path d="M 154 2471 
L 198 2343 
L 403 2477 
C 640 2624 659 2637 704 2637 
C 774 2637 819 2573 819 2477 
C 819 2152 557 919 294 6 
L 339 -64 
C 499 -20 646 19 787 44 
C 909 849 1043 1264 1338 1705 
C 1683 2241 2163 2637 2451 2637 
C 2522 2637 2560 2579 2560 2484 
C 2560 2369 2541 2235 2490 2030 
L 2157 677 
C 2099 440 2074 293 2074 191 
C 2074 32 2144 -64 2266 -64 
C 2432 -64 2662 70 3290 536 
L 3226 651 
L 3059 542 
C 2874 421 2733 351 2669 351 
C 2624 351 2586 408 2586 479 
C 2586 511 2592 581 2598 606 
L 3021 2369 
C 3066 2554 3091 2733 3091 2841 
C 3091 2988 3021 3072 2893 3072 
C 2624 3072 2182 2829 1805 2477 
C 1562 2254 1382 2037 1050 1571 
L 1293 2599 
C 1318 2714 1331 2790 1331 2860 
C 1331 2995 1280 3072 1184 3072 
C 1050 3072 800 2931 333 2599 
L 154 2471 
z
" id="URWPalladioL-Ital-6e" transform="scale(0.015625)"/>
       <path d="M 1926 -1242 
C 1466 -673 1299 -365 1133 211 
C 998 672 934 1158 934 1702 
C 934 2233 998 2688 1120 3104 
C 1286 3635 1459 3936 1926 4480 
L 1805 4646 
C 1139 4051 877 3699 634 3072 
C 467 2643 384 2188 384 1702 
C 384 1017 544 371 851 -205 
C 1075 -634 1280 -884 1805 -1377 
L 1926 -1242 
z
" id="URWPalladioL-Roma-28" transform="scale(0.015625)"/>
       <path d="M 147 2579 
L 384 2579 
C 640 2579 666 2534 666 2112 
L 666 672 
C 666 268 646 224 429 211 
L 134 192 
L 134 0 
C 595 -7 762 0 922 0 
C 1050 19 1050 19 1837 0 
L 1837 192 
L 1504 211 
C 1216 230 1203 249 1203 669 
L 1203 1763 
C 1203 2145 1459 2463 1773 2463 
C 1965 2463 2099 2374 2202 2171 
L 2336 2171 
L 2394 2937 
C 2323 2982 2208 3008 2093 3008 
C 1901 3008 1696 2905 1562 2745 
L 1203 2324 
L 1203 2982 
L 1146 3008 
C 819 2873 486 2783 147 2745 
L 147 2579 
z
" id="URWPalladioL-Roma-72" transform="scale(0.015625)"/>
       <path d="M 2797 447 
L 2714 511 
C 2304 268 2157 211 1882 211 
C 1466 211 1120 396 941 710 
C 819 921 774 1100 762 1472 
L 1696 1472 
C 2138 1472 2413 1491 2854 1561 
C 2861 1651 2867 1708 2867 1786 
C 2867 2526 2394 3008 1677 3008 
C 1440 3008 1165 2924 902 2771 
C 378 2468 166 2069 166 1401 
C 166 998 262 652 435 409 
C 691 70 1120 -128 1600 -128 
C 1837 -128 2074 -77 2336 38 
C 2509 108 2643 192 2669 230 
L 2797 447 
z
M 2298 1708 
C 1965 1696 1811 1689 1581 1689 
C 1286 1689 1120 1696 774 1728 
C 774 2030 800 2172 883 2339 
C 1018 2623 1293 2796 1600 2796 
C 1811 2796 1978 2713 2093 2539 
C 2234 2326 2278 2140 2298 1708 
z
" id="URWPalladioL-Roma-65" transform="scale(0.015625)"/>
       <path d="M 2074 544 
L 2042 0 
C 2458 0 2458 0 2541 0 
C 2573 19 2733 12 3014 0 
L 3014 192 
L 2765 204 
C 2611 211 2586 262 2586 576 
L 2586 1751 
C 2586 2688 2317 3027 1574 3027 
C 1299 3027 1043 2956 800 2809 
L 461 2604 
L 461 2187 
L 627 2142 
L 710 2341 
C 845 2642 909 2688 1203 2688 
C 1805 2688 2054 2450 2074 1866 
L 1440 1751 
C 570 1590 205 1289 205 730 
C 205 224 506 -64 1011 -64 
C 1126 -64 1235 -45 1280 -13 
L 2074 544 
z
M 2074 806 
C 1888 544 1485 300 1235 300 
C 979 300 755 537 755 812 
C 755 1049 883 1273 1075 1395 
C 1235 1491 1587 1580 2074 1651 
L 2074 806 
z
" id="URWPalladioL-Roma-61" transform="scale(0.015625)"/>
       <path d="M 147 4249 
L 506 4249 
C 621 4249 666 4179 666 3987 
L 666 672 
C 666 268 646 224 429 211 
L 134 192 
L 134 0 
C 774 0 774 0 934 0 
C 1094 19 1094 19 1734 0 
L 1734 192 
L 1440 211 
C 1222 224 1203 268 1203 672 
L 1203 4614 
L 1146 4665 
C 864 4557 653 4505 147 4429 
L 147 4249 
z
" id="URWPalladioL-Roma-6c" transform="scale(0.015625)"/>
       <path d="M 64 2566 
L 301 2566 
C 557 2566 582 2521 582 2100 
L 582 -1118 
C 582 -1523 563 -1568 346 -1581 
L 51 -1600 
L 51 -1792 
C 691 -1773 691 -1773 851 -1773 
C 1011 -1773 1011 -1773 1651 -1792 
L 1651 -1600 
L 1357 -1581 
C 1139 -1568 1120 -1523 1120 -1118 
L 1120 96 
C 1312 -20 1517 -64 1805 -64 
C 1990 -64 2157 -26 2259 38 
L 2989 511 
C 3245 677 3546 1334 3546 1743 
C 3546 2451 2957 3008 2214 3008 
C 1978 3008 1747 2943 1645 2847 
L 1120 2368 
L 1120 2982 
L 1062 3008 
C 736 2873 403 2783 64 2745 
L 64 2566 
z
M 1120 1966 
C 1120 2055 1152 2126 1235 2234 
C 1421 2470 1683 2591 2003 2591 
C 2605 2591 2989 2170 2989 1507 
C 2989 792 2560 262 1984 262 
C 1632 262 1370 377 1120 639 
L 1120 1966 
z
" id="URWPalladioL-Roma-70" transform="scale(0.015625)"/>
       <path d="M 627 2457 
L 627 614 
C 627 140 838 -64 1331 -64 
C 1478 -64 1632 -32 1670 12 
L 1978 352 
L 1894 460 
C 1734 371 1638 339 1517 339 
C 1267 339 1165 467 1165 780 
L 1165 2457 
L 1984 2457 
L 2042 2803 
L 1165 2764 
L 1165 3008 
C 1165 3277 1184 3507 1235 3917 
L 1158 3987 
C 1005 3891 813 3808 614 3744 
C 634 3552 640 3430 640 3238 
L 640 2790 
L 141 2566 
L 141 2432 
L 627 2457 
z
" id="URWPalladioL-Roma-74" transform="scale(0.015625)"/>
       <path d="M 326 -1377 
C 768 -961 954 -749 1152 -436 
C 1542 185 1747 928 1747 1696 
C 1747 2188 1664 2643 1498 3072 
C 1254 3693 992 4045 326 4646 
L 205 4480 
C 672 3929 845 3629 1005 3104 
C 1133 2688 1197 2233 1197 1702 
C 1197 1158 1133 672 998 211 
C 832 -365 666 -673 205 -1242 
L 326 -1377 
z
" id="URWPalladioL-Roma-29" transform="scale(0.015625)"/>
      </defs>
      <use transform="scale(0.996264)" xlink:href="#URWPalladioL-Ital-7a"/>
      <use transform="translate(46.425879 36.164371)scale(0.757155)" xlink:href="#URWPalladioL-Ital-6e"/>
      <use transform="translate(114.874929 0)scale(0.996264)" xlink:href="#URWPalladioL-Roma-28"/>
      <use transform="translate(148.050159 0)scale(0.996264)" xlink:href="#URWPalladioL-Roma-72"/>
      <use transform="translate(185.609476 0)scale(0.996264)" xlink:href="#URWPalladioL-Roma-65"/>
      <use transform="translate(233.329771 0)scale(0.996264)" xlink:href="#URWPalladioL-Roma-61"/>
      <use transform="translate(283.142972 0)scale(0.996264)" xlink:href="#URWPalladioL-Roma-6c"/>
      <use transform="translate(337.039933 0)scale(0.996264)" xlink:href="#URWPalladioL-Roma-70"/>
      <use transform="translate(396.914327 0)scale(0.996264)" xlink:href="#URWPalladioL-Roma-61"/>
      <use transform="translate(446.727528 0)scale(0.996264)" xlink:href="#URWPalladioL-Roma-72"/>
      <use transform="translate(486.079424 0)scale(0.996264)" xlink:href="#URWPalladioL-Roma-74"/>
      <use transform="translate(518.556512 0)scale(0.996264)" xlink:href="#URWPalladioL-Roma-29"/>
     </g>
    </g>
   </g>
   <g id="line2d_36">
    <path clip-path="url(#p26945ad2ac)" d="M 57.330847 78.476175 
L 84.325311 114.633117 
L 111.319776 100.571646 
L 138.31424 89.181854 
L 165.308705 115.068484 
L 192.303169 91.345914 
L 219.297634 100.571646 
L 246.292098 108.044488 
L 273.286563 91.06027 
L 300.281027 106.624648 
L 327.275492 100.571646 
L 354.269956 95.668714 
L 381.26442 106.812059 
L 408.258885 96.600271 
L 435.253349 100.571646 
L 462.247814 103.788459 
L 489.242278 96.47731 
L 516.236743 103.177265 
L 543.231207 100.571646 
L 570.225672 98.461094 
" style="fill:none;"/>
    <defs>
     <path d="M 0 1.25 
C 0.331504 1.25 0.649475 1.118292 0.883883 0.883883 
C 1.118292 0.649475 1.25 0.331504 1.25 0 
C 1.25 -0.331504 1.118292 -0.649475 0.883883 -0.883883 
C 0.649475 -1.118292 0.331504 -1.25 0 -1.25 
C -0.331504 -1.25 -0.649475 -1.118292 -0.883883 -0.883883 
C -1.118292 -0.649475 -1.25 -0.331504 -1.25 0 
C -1.25 0.331504 -1.118292 0.649475 -0.883883 0.883883 
C -0.649475 1.118292 -0.331504 1.25 0 1.25 
z
" id="ma986b3276f"/>
    </defs>
    <g clip-path="url(#p26945ad2ac)">
     <use style="fill:#0271ae;" x="57.330847" xlink:href="#ma986b3276f" y="78.476175"/>
     <use style="fill:#0271ae;" x="84.325311" xlink:href="#ma986b3276f" y="114.633117"/>
     <use style="fill:#0271ae;" x="111.319776" xlink:href="#ma986b3276f" y="100.571646"/>
     <use style="fill:#0271ae;" x="138.31424" xlink:href="#ma986b3276f" y="89.181854"/>
     <use style="fill:#0271ae;" x="165.308705" xlink:href="#ma986b3276f" y="115.068484"/>
     <use style="fill:#0271ae;" x="192.303169" xlink:href="#ma986b3276f" y="91.345914"/>
     <use style="fill:#0271ae;" x="219.297634" xlink:href="#ma986b3276f" y="100.571646"/>
     <use style="fill:#0271ae;" x="246.292098" xlink:href="#ma986b3276f" y="108.044488"/>
     <use style="fill:#0271ae;" x="273.286563" xlink:href="#ma986b3276f" y="91.06027"/>
     <use style="fill:#0271ae;" x="300.281027" xlink:href="#ma986b3276f" y="106.624648"/>
     <use style="fill:#0271ae;" x="327.275492" xlink:href="#ma986b3276f" y="100.571646"/>
     <use style="fill:#0271ae;" x="354.269956" xlink:href="#ma986b3276f" y="95.668714"/>
     <use style="fill:#0271ae;" x="381.26442" xlink:href="#ma986b3276f" y="106.812059"/>
     <use style="fill:#0271ae;" x="408.258885" xlink:href="#ma986b3276f" y="96.600271"/>
     <use style="fill:#0271ae;" x="435.253349" xlink:href="#ma986b3276f" y="100.571646"/>
     <use style="fill:#0271ae;" x="462.247814" xlink:href="#ma986b3276f" y="103.788459"/>
     <use style="fill:#0271ae;" x="489.242278" xlink:href="#ma986b3276f" y="96.47731"/>
     <use style="fill:#0271ae;" x="516.236743" xlink:href="#ma986b3276f" y="103.177265"/>
     <use style="fill:#0271ae;" x="543.231207" xlink:href="#ma986b3276f" y="100.571646"/>
     <use style="fill:#0271ae;" x="570.225672" xlink:href="#ma986b3276f" y="98.461094"/>
    </g>
   </g>
   <g id="line2d_37">
    <path clip-path="url(#p26945ad2ac)" d="M 57.330847 78.476175 
L 84.325311 79.522883 
L 111.319776 87.203886 
L 138.31424 100.571646 
L 165.308705 116.746635 
L 192.303169 131.389139 
L 219.297634 139.715119 
L 246.292098 137.860812 
L 273.286563 124.253447 
L 300.281027 100.571646 
L 327.275492 71.916666 
L 354.269956 45.976577 
L 381.26442 31.226595 
L 408.258885 34.511612 
L 435.253349 58.61789 
L 462.247814 100.571646 
L 489.242278 151.33569 
L 516.236743 197.29014 
L 543.231207 223.420633 
L 570.225672 217.601024 
" style="fill:none;"/>
    <defs>
     <path d="M 0 1.25 
C 0.331504 1.25 0.649475 1.118292 0.883883 0.883883 
C 1.118292 0.649475 1.25 0.331504 1.25 0 
C 1.25 -0.331504 1.118292 -0.649475 0.883883 -0.883883 
C 0.649475 -1.118292 0.331504 -1.25 0 -1.25 
C -0.331504 -1.25 -0.649475 -1.118292 -0.883883 -0.883883 
C -1.118292 -0.649475 -1.25 -0.331504 -1.25 0 
C -1.25 0.331504 -1.118292 0.649475 -0.883883 0.883883 
C -0.649475 1.118292 -0.331504 1.25 0 1.25 
z
" id="m7593f1001a"/>
    </defs>
    <g clip-path="url(#p26945ad2ac)">
     <use style="fill:#dc2830;" x="57.330847" xlink:href="#m7593f1001a" y="78.476175"/>
     <use style="fill:#dc2830;" x="84.325311" xlink:href="#m7593f1001a" y="79.522883"/>
     <use style="fill:#dc2830;" x="111.319776" xlink:href="#m7593f1001a" y="87.203886"/>
     <use style="fill:#dc2830;" x="138.31424" xlink:href="#m7593f1001a" y="100.571646"/>
     <use style="fill:#dc2830;" x="165.308705" xlink:href="#m7593f1001a" y="116.746635"/>
     <use style="fill:#dc2830;" x="192.303169" xlink:href="#m7593f1001a" y="131.389139"/>
     <use style="fill:#dc2830;" x="219.297634" xlink:href="#m7593f1001a" y="139.715119"/>
     <use style="fill:#dc2830;" x="246.292098" xlink:href="#m7593f1001a" y="137.860812"/>
     <use style="fill:#dc2830;" x="273.286563" xlink:href="#m7593f1001a" y="124.253447"/>
     <use style="fill:#dc2830;" x="300.281027" xlink:href="#m7593f1001a" y="100.571646"/>
     <use style="fill:#dc2830;" x="327.275492" xlink:href="#m7593f1001a" y="71.916666"/>
     <use style="fill:#dc2830;" x="354.269956" xlink:href="#m7593f1001a" y="45.976577"/>
     <use style="fill:#dc2830;" x="381.26442" xlink:href="#m7593f1001a" y="31.226595"/>
     <use style="fill:#dc2830;" x="408.258885" xlink:href="#m7593f1001a" y="34.511612"/>
     <use style="fill:#dc2830;" x="435.253349" xlink:href="#m7593f1001a" y="58.61789"/>
     <use style="fill:#dc2830;" x="462.247814" xlink:href="#m7593f1001a" y="100.571646"/>
     <use style="fill:#dc2830;" x="489.242278" xlink:href="#m7593f1001a" y="151.33569"/>
     <use style="fill:#dc2830;" x="516.236743" xlink:href="#m7593f1001a" y="197.29014"/>
     <use style="fill:#dc2830;" x="543.231207" xlink:href="#m7593f1001a" y="223.420633"/>
     <use style="fill:#dc2830;" x="570.225672" xlink:href="#m7593f1001a" y="217.601024"/>
    </g>
   </g>
   <g id="line2d_38">
    <path clip-path="url(#p26945ad2ac)" d="M 57.330847 78.476175 
L 84.325311 89.523911 
L 111.319776 111.619381 
L 138.31424 122.667116 
L 165.308705 111.619381 
L 192.303169 89.523911 
L 219.297634 78.476175 
L 246.292098 89.523911 
L 273.286563 111.619381 
L 300.281027 122.667116 
L 327.275492 111.619381 
L 354.269956 89.523911 
L 381.26442 78.476175 
L 408.258885 89.523911 
L 435.253349 111.619381 
L 462.247814 122.667116 
L 489.242278 111.619381 
L 516.236743 89.523911 
L 543.231207 78.476175 
L 570.225672 89.523911 
" style="fill:none;"/>
    <defs>
     <path d="M 0 1.25 
C 0.331504 1.25 0.649475 1.118292 0.883883 0.883883 
C 1.118292 0.649475 1.25 0.331504 1.25 0 
C 1.25 -0.331504 1.118292 -0.649475 0.883883 -0.883883 
C 0.649475 -1.118292 0.331504 -1.25 0 -1.25 
C -0.331504 -1.25 -0.649475 -1.118292 -0.883883 -0.883883 
C -1.118292 -0.649475 -1.25 -0.331504 -1.25 0 
C -1.25 0.331504 -1.118292 0.649475 -0.883883 0.883883 
C -0.649475 1.118292 -0.331504 1.25 0 1.25 
z
" id="mfac40cfa7a"/>
    </defs>
    <g clip-path="url(#p26945ad2ac)">
     <use style="fill:#f2aa00;" x="57.330847" xlink:href="#mfac40cfa7a" y="78.476175"/>
     <use style="fill:#f2aa00;" x="84.325311" xlink:href="#mfac40cfa7a" y="89.523911"/>
     <use style="fill:#f2aa00;" x="111.319776" xlink:href="#mfac40cfa7a" y="111.619381"/>
     <use style="fill:#f2aa00;" x="138.31424" xlink:href="#mfac40cfa7a" y="122.667116"/>
     <use style="fill:#f2aa00;" x="165.308705" xlink:href="#mfac40cfa7a" y="111.619381"/>
     <use style="fill:#f2aa00;" x="192.303169" xlink:href="#mfac40cfa7a" y="89.523911"/>
     <use style="fill:#f2aa00;" x="219.297634" xlink:href="#mfac40cfa7a" y="78.476175"/>
     <use style="fill:#f2aa00;" x="246.292098" xlink:href="#mfac40cfa7a" y="89.523911"/>
     <use style="fill:#f2aa00;" x="273.286563" xlink:href="#mfac40cfa7a" y="111.619381"/>
     <use style="fill:#f2aa00;" x="300.281027" xlink:href="#mfac40cfa7a" y="122.667116"/>
     <use style="fill:#f2aa00;" x="327.275492" xlink:href="#mfac40cfa7a" y="111.619381"/>
     <use style="fill:#f2aa00;" x="354.269956" xlink:href="#mfac40cfa7a" y="89.523911"/>
     <use style="fill:#f2aa00;" x="381.26442" xlink:href="#mfac40cfa7a" y="78.476175"/>
     <use style="fill:#f2aa00;" x="408.258885" xlink:href="#mfac40cfa7a" y="89.523911"/>
     <use style="fill:#f2aa00;" x="435.253349" xlink:href="#mfac40cfa7a" y="111.619381"/>
     <use style="fill:#f2aa00;" x="462.247814" xlink:href="#mfac40cfa7a" y="122.667116"/>
     <use style="fill:#f2aa00;" x="489.242278" xlink:href="#mfac40cfa7a" y="111.619381"/>
     <use style="fill:#f2aa00;" x="516.236743" xlink:href="#mfac40cfa7a" y="89.523911"/>
     <use style="fill:#f2aa00;" x="543.231207" xlink:href="#mfac40cfa7a" y="78.476175"/>
     <use style="fill:#f2aa00;" x="570.225672" xlink:href="#mfac40cfa7a" y="89.523911"/>
    </g>
   </g>
   <g id="legend_1">
    <g id="patch_3">
     <path d="M 416.153564 83.918323 
L 560.425672 83.918323 
Q 563.225672 83.918323 563.225672 81.118323 
L 563.225672 19.780218 
Q 563.225672 16.980218 560.425672 16.980218 
L 416.153564 16.980218 
Q 413.353564 16.980218 413.353564 19.780218 
L 413.353564 81.118323 
Q 413.353564 83.918323 416.153564 83.918323 
z
" style="fill:#ffffff;opacity:0.95;stroke:#cccccc;stroke-linejoin:miter;stroke-width:0.5;"/>
    </g>
    <g id="line2d_39">
     <path d="M 418.953564 27.659747 
L 432.953564 27.659747 
" style="fill:none;"/>
    </g>
    <g id="line2d_40">
     <g>
      <use style="fill:#0271ae;" x="425.953564" xlink:href="#ma986b3276f" y="27.659747"/>
     </g>
    </g>
    <g id="text_7">
     <!-- $r=0.9$, $\theta=3\pi/4$ -->
     <g style="fill:#0271ae;" transform="translate(444.153564 32.559747)scale(0.14 -0.14)">
      <defs>
       <path d="M 2355 2323 
C 2374 2566 2406 2771 2458 3033 
C 2387 3065 2362 3072 2330 3072 
C 2131 3072 1933 2918 1702 2591 
L 1530 2342 
C 1280 1984 1203 1850 1101 1627 
L 1152 1889 
C 1178 2035 1229 2291 1267 2431 
L 1306 2598 
C 1331 2707 1344 2790 1344 2867 
C 1344 2995 1293 3072 1197 3072 
C 1062 3072 819 2937 346 2598 
L 166 2470 
L 211 2342 
L 416 2476 
C 595 2591 666 2623 723 2623 
C 787 2623 832 2566 832 2483 
C 832 2112 557 797 301 -20 
L 365 -64 
C 461 -32 563 -13 710 19 
L 794 32 
L 960 797 
C 1075 1327 1222 1665 1504 2029 
C 1722 2310 1894 2444 2035 2444 
C 2131 2444 2195 2412 2266 2323 
L 2355 2323 
z
" id="URWPalladioL-Ital-72" transform="scale(0.015625)"/>
       <path d="M 4397 2111 
C 4493 2111 4614 2111 4614 2239 
C 4614 2368 4493 2368 4403 2368 
L 570 2368 
C 480 2368 358 2368 358 2239 
C 358 2111 480 2111 576 2111 
L 4397 2111 
z
M 4403 832 
C 4493 832 4614 832 4614 960 
C 4614 1088 4493 1088 4397 1088 
L 576 1088 
C 480 1088 358 1088 358 960 
C 358 832 480 832 570 832 
L 4403 832 
z
" id="CMR10-3d" transform="scale(0.015625)"/>
       <path d="M 794 678 
C 602 678 429 499 429 307 
C 429 115 602 -64 787 -64 
C 992 -64 1171 108 1171 307 
C 1171 499 992 678 794 678 
z
" id="URWPalladioL-Roma-2e" transform="scale(0.015625)"/>
       <path d="M 614 -128 
C 1325 103 1632 252 1978 550 
C 2598 1087 2925 1830 2925 2684 
C 2925 3759 2406 4416 1562 4416 
C 742 4416 128 3778 128 2925 
C 128 2194 608 1657 1274 1657 
C 1491 1657 1741 1727 1856 1823 
L 2304 2194 
C 2253 1113 1555 317 397 32 
L 397 -20 
L 614 -128 
z
M 1536 4204 
C 1824 4204 2035 4083 2176 3829 
C 2291 3625 2368 3314 2368 3027 
C 2368 2442 2029 2048 1536 2048 
C 1024 2048 678 2499 678 3161 
C 678 3803 1011 4204 1536 4204 
z
" id="URWPalladioL-Roma-39" transform="scale(0.015625)"/>
       <path d="M 1306 787 
C 1133 729 1018 691 678 595 
C 634 108 474 -308 102 -922 
L 192 -993 
L 454 -871 
C 973 -199 1216 204 1395 697 
L 1306 787 
z
" id="URWPalladioL-Roma-2c" transform="scale(0.015625)"/>
       <path d="M 2029 4544 
C 1754 4544 1472 4409 1178 4122 
C 608 3580 186 2616 186 1442 
C 186 427 390 -64 928 -64 
C 1267 -64 1664 172 1965 555 
C 2400 1110 2797 2163 2797 3127 
C 2797 4013 2554 4544 2029 4544 
z
M 1478 2112 
C 1914 2112 2093 2092 2202 2041 
C 2061 1397 1824 823 1619 491 
C 1491 294 1318 179 1126 179 
C 742 179 672 670 672 1429 
C 672 1627 685 1831 717 2035 
C 851 2092 1024 2112 1478 2112 
z
M 1869 4300 
C 2272 4300 2310 3777 2310 2986 
C 2310 2808 2298 2623 2272 2444 
C 2144 2399 1946 2380 1523 2380 
C 1088 2380 902 2399 787 2444 
C 954 3197 1248 3886 1478 4154 
C 1568 4249 1715 4300 1869 4300 
z
" id="PazoMath-Italic-71" transform="scale(0.015625)"/>
       <path d="M 275 3196 
L 474 3196 
L 589 3553 
C 659 3770 1062 3987 1395 3987 
C 1811 3987 2150 3649 2150 3247 
C 2150 2769 1773 2368 1318 2368 
C 1267 2368 1197 2374 1114 2380 
L 1018 2387 
L 941 2047 
L 986 2008 
C 1229 2118 1350 2150 1523 2150 
C 2054 2150 2362 1808 2362 1222 
C 2362 565 1971 134 1376 134 
C 1082 134 819 231 627 411 
C 474 553 390 701 269 1048 
L 96 984 
C 230 591 282 359 320 38 
C 659 -77 941 -128 1178 -128 
C 1690 -128 2278 160 2630 591 
C 2848 855 2957 1139 2957 1441 
C 2957 1750 2829 2021 2598 2182 
C 2438 2297 2291 2348 1971 2406 
C 2483 2801 2675 3094 2675 3470 
C 2675 4038 2202 4416 1491 4416 
C 1056 4416 768 4294 461 3987 
L 275 3196 
z
" id="URWPalladioL-Roma-33" transform="scale(0.015625)"/>
       <path d="M 614 2255 
L 672 2299 
C 806 2681 1062 2700 1427 2700 
C 1504 2700 1619 2694 1754 2694 
C 1216 1242 973 803 454 -7 
L 512 -64 
L 986 102 
C 1216 599 1606 1567 1958 2688 
L 3149 2624 
C 3040 2232 2669 1089 2669 685 
C 2669 19 2912 -64 3110 -64 
C 3437 -64 3622 19 4026 356 
L 3974 476 
L 3821 369 
C 3840 382 3654 236 3546 236 
C 3245 236 3155 419 3155 811 
C 3155 969 3168 1139 3206 1323 
C 3315 1847 3424 2365 3482 2624 
C 3629 2624 3776 2630 3923 2649 
C 4038 2649 4179 2713 4282 2752 
C 4352 2905 4378 2918 4499 3072 
L 4454 3136 
C 4282 3075 3994 3008 3782 3008 
C 3706 3001 3546 2995 3386 2995 
C 2701 3020 1645 3072 1363 3072 
C 883 3072 710 2860 525 2306 
L 614 2255 
z
" id="PazoMath-Italic-70" transform="scale(0.015625)"/>
       <path d="M 3322 4646 
L 2938 4646 
L 557 -762 
L 941 -762 
L 3322 4646 
z
" id="URWPalladioL-Roma-2f" transform="scale(0.015625)"/>
      </defs>
      <use transform="scale(0.996264)" xlink:href="#URWPalladioL-Ital-72"/>
      <use transform="translate(69.914533 0)scale(1.038107)" xlink:href="#CMR10-3d"/>
      <use transform="translate(179.530162 0)scale(0.996264)" xlink:href="#URWPalladioL-Roma-30"/>
      <use transform="translate(229.343362 0)scale(0.996264)" xlink:href="#URWPalladioL-Roma-2e"/>
      <use transform="translate(254.249962 0)scale(0.996264)" xlink:href="#URWPalladioL-Roma-39"/>
      <use transform="translate(304.063163 0)scale(0.996264)" xlink:href="#URWPalladioL-Roma-2c"/>
      <use transform="translate(355.121663 0)scale(0.996264)" xlink:href="#PazoMath-Italic-71"/>
      <use transform="translate(432.509118 0)scale(1.038107)" xlink:href="#CMR10-3d"/>
      <use transform="translate(542.124747 0)scale(0.996264)" xlink:href="#URWPalladioL-Roma-33"/>
      <use transform="translate(593.183247 0)scale(0.996264)" xlink:href="#PazoMath-Italic-70"/>
      <use transform="translate(665.710176 0)scale(0.996264)" xlink:href="#URWPalladioL-Roma-2f"/>
      <use transform="translate(727.32908 0)scale(0.996264)" xlink:href="#URWPalladioL-Roma-34"/>
     </g>
    </g>
    <g id="line2d_41">
     <path d="M 418.953564 48.572449 
L 432.953564 48.572449 
" style="fill:none;"/>
    </g>
    <g id="line2d_42">
     <g>
      <use style="fill:#dc2830;" x="425.953564" xlink:href="#m7593f1001a" y="48.572449"/>
     </g>
    </g>
    <g id="text_8">
     <!-- $r=1.1$, $\theta=-\pi/6$ -->
     <g style="fill:#dc2830;" transform="translate(444.153564 53.472449)scale(0.14 -0.14)">
      <defs>
       <path d="M 429 3571 
L 493 3571 
L 1318 3942 
C 1325 3949 1331 3949 1338 3949 
C 1376 3949 1389 3891 1389 3737 
L 1389 633 
C 1389 300 1318 230 973 211 
L 614 192 
L 614 0 
C 1600 0 1600 0 1670 0 
C 1754 0 1894 0 2112 -7 
C 2189 6 2413 6 2675 0 
L 2675 192 
L 2342 211 
C 1990 229 1926 299 1926 628 
L 1926 4383 
L 1837 4416 
C 1421 4199 966 4009 384 3807 
L 429 3571 
z
" id="URWPalladioL-Roma-31" transform="scale(0.015625)"/>
       <path d="M 2662 4287 
L 2426 4396 
C 1811 4193 1549 4066 1222 3788 
C 563 3237 205 2463 205 1585 
C 205 526 717 -128 1542 -128 
C 2374 -128 2995 532 2995 1405 
C 2995 2143 2554 2624 1875 2624 
C 1555 2624 1363 2540 986 2239 
C 915 2182 909 2175 838 2124 
C 973 3275 1510 3895 2662 4237 
L 2662 4287 
z
M 1632 2239 
C 2118 2239 2445 1816 2445 1180 
C 2445 513 2118 83 1626 83 
C 1082 83 787 551 787 1411 
C 787 1636 813 1758 883 1867 
C 1024 2085 1325 2239 1632 2239 
z
" id="URWPalladioL-Roma-36" transform="scale(0.015625)"/>
      </defs>
      <use transform="scale(0.996264)" xlink:href="#URWPalladioL-Ital-72"/>
      <use transform="translate(69.914533 0)scale(1.038107)" xlink:href="#CMR10-3d"/>
      <use transform="translate(179.530162 0)scale(0.996264)" xlink:href="#URWPalladioL-Roma-31"/>
      <use transform="translate(229.343362 0)scale(0.996264)" xlink:href="#URWPalladioL-Roma-2e"/>
      <use transform="translate(254.249962 0)scale(0.996264)" xlink:href="#URWPalladioL-Roma-31"/>
      <use transform="translate(304.063163 0)scale(0.996264)" xlink:href="#URWPalladioL-Roma-2c"/>
      <use transform="translate(355.121663 0)scale(0.996264)" xlink:href="#PazoMath-Italic-71"/>
      <use transform="translate(432.509118 0)scale(1.038107)" xlink:href="#CMR10-3d"/>
      <use transform="translate(543.370047 0)scale(1.038107)" xlink:href="#CMSY10-0"/>
      <use transform="translate(626.557043 0)scale(0.996264)" xlink:href="#PazoMath-Italic-70"/>
      <use transform="translate(699.083971 0)scale(0.996264)" xlink:href="#URWPalladioL-Roma-2f"/>
      <use transform="translate(760.702876 0)scale(0.996264)" xlink:href="#URWPalladioL-Roma-36"/>
     </g>
    </g>
    <g id="line2d_43">
     <path d="M 418.953564 69.48515 
L 432.953564 69.48515 
" style="fill:none;"/>
    </g>
    <g id="line2d_44">
     <g>
      <use style="fill:#f2aa00;" x="425.953564" xlink:href="#mfac40cfa7a" y="69.48515"/>
     </g>
    </g>
    <g id="text_9">
     <!-- $r=1$, $\theta=\pi/3$ -->
     <g style="fill:#f2aa00;" transform="translate(444.153564 74.38515)scale(0.14 -0.14)">
      <use transform="scale(0.996264)" xlink:href="#URWPalladioL-Ital-72"/>
      <use transform="translate(69.914533 0)scale(1.038107)" xlink:href="#CMR10-3d"/>
      <use transform="translate(179.530162 0)scale(0.996264)" xlink:href="#URWPalladioL-Roma-31"/>
      <use transform="translate(229.343362 0)scale(0.996264)" xlink:href="#URWPalladioL-Roma-2c"/>
      <use transform="translate(280.401862 0)scale(0.996264)" xlink:href="#PazoMath-Italic-71"/>
      <use transform="translate(357.789317 0)scale(1.038107)" xlink:href="#CMR10-3d"/>
      <use transform="translate(468.650246 0)scale(0.996264)" xlink:href="#PazoMath-Italic-70"/>
      <use transform="translate(541.177174 0)scale(0.996264)" xlink:href="#URWPalladioL-Roma-2f"/>
      <use transform="translate(602.796079 0)scale(0.996264)" xlink:href="#URWPalladioL-Roma-33"/>
     </g>
    </g>
   </g>
  </g>
  <g id="axes_2">
   <g id="patch_4">
    <path d="M 57.330847 387.854445 
L 570.225672 387.854445 
L 570.225672 206.671589 
L 57.330847 206.671589 
z
" style="fill:none;"/>
   </g>
   <g id="line2d_45">
    <path clip-path="url(#p5c8aaa5e39)" d="M 57.330847 297.263017 
L 60.414383 291.457968 
L 62.470073 287.870922 
L 64.525764 284.640736 
L 66.581455 281.864824 
L 68.637145 279.624549 
L 69.664991 278.725724 
L 70.692836 277.982885 
L 71.720681 277.400747 
L 72.748527 276.982699 
L 73.776372 276.730786 
L 74.804217 276.645702 
L 75.832063 276.726796 
L 76.859908 276.97209 
L 77.887753 277.378303 
L 78.915599 277.940888 
L 79.943444 278.654079 
L 81.999135 280.503469 
L 84.054825 282.858316 
L 86.110516 285.635417 
L 89.194052 290.381672 
L 98.44466 305.398061 
L 100.500351 308.208007 
L 102.556042 310.623902 
L 104.611732 312.574913 
L 106.667423 314.006172 
L 107.695268 314.514494 
L 108.723114 314.880272 
L 109.750959 315.101711 
L 110.778804 315.178186 
L 111.80665 315.110242 
L 112.834495 314.899578 
L 113.86234 314.549025 
L 114.890186 314.062516 
L 116.945876 312.702607 
L 119.001567 310.871576 
L 121.057258 308.635363 
L 123.112948 306.071788 
L 126.196484 301.804803 
L 133.391402 291.544603 
L 135.447093 288.956309 
L 137.502783 286.674335 
L 139.558474 284.766635 
L 141.614165 283.288138 
L 143.669855 282.279199 
L 144.697701 281.959169 
L 145.725546 281.764544 
L 146.753391 281.695883 
L 147.781237 281.752731 
L 148.809082 281.933628 
L 149.836927 282.236131 
L 151.892618 283.191435 
L 153.948309 284.580639 
L 156.003999 286.3525 
L 158.05969 288.444374 
L 161.143226 292.023098 
L 170.393834 303.365935 
L 172.449525 305.492283 
L 174.505216 307.322136 
L 176.560906 308.801814 
L 178.616597 309.889665 
L 180.672288 310.557207 
L 182.727978 310.789825 
L 184.783669 310.587019 
L 186.83936 309.962192 
L 188.89505 308.942006 
L 190.950741 307.565313 
L 193.006432 305.881728 
L 195.062122 303.949868 
L 198.145658 300.731458 
L 205.340576 292.981289 
L 207.396266 291.023431 
L 209.451957 289.295883 
L 211.507648 287.850114 
L 213.563338 286.727782 
L 215.619029 285.959558 
L 217.67472 285.564325 
L 219.730411 285.548759 
L 221.786101 285.907312 
L 223.841792 286.622586 
L 225.897483 287.666074 
L 227.953173 288.999246 
L 230.008864 290.574943 
L 233.0924 293.273303 
L 242.343008 301.841186 
L 244.398699 303.450217 
L 246.454389 304.836164 
L 248.51008 305.958343 
L 250.565771 306.785139 
L 252.621461 307.294865 
L 254.677152 307.476301 
L 256.732843 307.328881 
L 258.788534 306.862547 
L 260.844224 306.097257 
L 262.899915 305.062196 
L 264.955606 303.794694 
L 268.039142 301.555695 
L 272.150523 298.20879 
L 277.28975 294.05729 
L 280.373286 291.898187 
L 282.428976 290.692017 
L 284.484667 289.714768 
L 286.540358 288.993985 
L 288.596048 288.548591 
L 290.651739 288.388416 
L 292.70743 288.514032 
L 294.76312 288.916882 
L 296.818811 289.579693 
L 298.874502 290.477174 
L 300.930193 291.576946 
L 304.013729 293.520767 
L 309.152955 297.171915 
L 313.264337 300.036761 
L 316.347873 301.914747 
L 318.403563 302.964455 
L 320.459254 303.815486 
L 322.514945 304.443841 
L 324.570635 304.83301 
L 326.626326 304.97438 
L 328.682017 304.867385 
L 330.737707 304.519391 
L 332.793398 303.945343 
L 334.849089 303.16716 
L 337.932625 301.680015 
L 341.016161 299.913377 
L 351.294614 293.742884 
L 354.37815 292.316092 
L 356.433841 291.574983 
L 358.489532 291.02721 
L 360.545222 290.68718 
L 362.600913 290.562436 
L 364.656604 290.653534 
L 366.712294 290.95413 
L 368.767985 291.451295 
L 370.823676 292.126032 
L 373.907212 293.416538 
L 378.018593 295.496362 
L 386.241356 299.838918 
L 389.324892 301.175103 
L 392.408428 302.200638 
L 394.464119 302.678157 
L 396.519809 302.975244 
L 398.5755 303.085291 
L 400.631191 303.007762 
L 402.686881 302.748118 
L 404.742572 302.317545 
L 407.826108 301.388503 
L 410.909644 300.187474 
L 415.021025 298.323842 
L 422.215943 295.032151 
L 425.299479 293.869719 
L 428.383015 292.976822 
L 430.438706 292.560553 
L 432.494396 292.300994 
L 434.550087 292.203935 
L 436.605778 292.269886 
L 438.661468 292.494148 
L 441.745004 293.104935 
L 444.82854 293.997602 
L 448.939922 295.502685 
L 459.218375 299.554237 
L 462.301911 300.494301 
L 465.385447 301.181669 
L 468.468983 301.573351 
L 471.552519 301.648458 
L 474.636055 301.409166 
L 477.719591 300.88001 
L 480.803127 300.105604 
L 484.914509 298.798842 
L 495.192962 295.277407 
L 498.276498 294.459407 
L 501.360034 293.860715 
L 504.44357 293.518792 
L 507.527106 293.451906 
L 510.610642 293.658282 
L 513.694178 294.116711 
L 516.777714 294.788519 
L 520.889096 295.92309 
L 532.195394 299.239522 
L 535.27893 299.892448 
L 538.362466 300.342409 
L 541.446002 300.562156 
L 544.529538 300.5415 
L 547.613074 300.287631 
L 550.69661 299.824193 
L 554.807992 298.947692 
L 560.975064 297.331199 
L 567.142136 295.771819 
L 570.225672 295.152465 
L 570.225672 295.152465 
" style="fill:none;stroke:#0271ae;stroke-linejoin:miter;stroke-width:3;"/>
   </g>
   <g id="line2d_46">
    <path clip-path="url(#p5c8aaa5e39)" d="M 57.330847 297.263017 
L 67.6093 301.800707 
L 95.361124 314.258968 
L 102.556042 317.195152 
L 108.723114 319.5094 
L 114.890186 321.590936 
L 120.029412 323.117584 
L 125.168639 324.430587 
L 130.307866 325.508333 
L 135.447093 326.33087 
L 140.586319 326.880174 
L 144.697701 327.11217 
L 148.809082 327.152117 
L 152.920463 326.994095 
L 157.031845 326.633322 
L 161.143226 326.066231 
L 165.254607 325.290523 
L 169.365989 324.305219 
L 173.47737 323.110712 
L 177.588752 321.708797 
L 181.700133 320.102706 
L 185.811514 318.297124 
L 190.950741 315.769128 
L 196.089968 312.954398 
L 201.229194 309.871739 
L 206.368421 306.543448 
L 212.535493 302.261665 
L 218.702565 297.713863 
L 226.925328 291.335305 
L 239.259472 281.403616 
L 251.593616 271.54315 
L 258.788534 266.066762 
L 264.955606 261.652465 
L 270.094832 258.231025 
L 275.234059 255.090851 
L 279.34544 252.810307 
L 283.456822 250.758766 
L 287.568203 248.956643 
L 291.679584 247.423293 
L 295.790966 246.176849 
L 298.874502 245.440435 
L 301.958038 244.881375 
L 305.041574 244.505661 
L 308.12511 244.318731 
L 311.208646 244.32544 
L 314.292182 244.530026 
L 317.375718 244.93608 
L 320.459254 245.54652 
L 323.54279 246.363566 
L 326.626326 247.388714 
L 329.709862 248.622715 
L 332.793398 250.065558 
L 335.876934 251.716452 
L 338.96047 253.573809 
L 342.044006 255.635237 
L 346.155388 258.69559 
L 350.266769 262.103064 
L 354.37815 265.845182 
L 358.489532 269.906868 
L 362.600913 274.270474 
L 366.712294 278.915818 
L 371.851521 285.083957 
L 376.990748 291.607269 
L 383.15782 299.826245 
L 390.352737 309.820627 
L 402.686881 327.454699 
L 412.965335 342.003468 
L 419.132407 350.388117 
L 424.271633 357.053918 
L 429.41086 363.341515 
L 433.522242 368.045703 
L 437.633623 372.416851 
L 441.745004 376.416022 
L 444.82854 379.148612 
L 447.912076 381.635501 
L 450.995612 383.861992 
L 454.079148 385.814037 
L 457.162684 387.478302 
L 460.24622 388.842237 
L 463.329756 389.894136 
L 466.413292 390.623201 
L 469.496828 391.019603 
L 471.552519 391.094666 
L 473.60821 391.0156 
L 475.663901 390.780283 
L 477.719591 390.386818 
L 479.775282 389.833544 
L 481.830973 389.11904 
L 483.886663 388.24213 
L 486.970199 386.620303 
L 490.053735 384.629014 
L 493.137271 382.267567 
L 496.220807 379.536634 
L 499.304343 376.438282 
L 502.387879 372.975996 
L 505.471415 369.154696 
L 508.554951 364.980754 
L 511.638487 360.461995 
L 514.722023 355.607708 
L 518.833405 348.632175 
L 522.944786 341.10889 
L 527.056168 333.071845 
L 531.167549 324.559456 
L 536.306776 313.315986 
L 541.446002 301.489308 
L 547.613074 286.671681 
L 554.807992 268.767328 
L 570.225672 229.696074 
L 570.225672 229.696074 
" style="fill:none;stroke:#dc2830;stroke-linejoin:miter;stroke-width:3;"/>
   </g>
   <g id="line2d_47">
    <path clip-path="url(#p5c8aaa5e39)" d="M 57.330847 297.263017 
L 65.553609 290.333791 
L 70.692836 286.315826 
L 74.804217 283.406591 
L 77.887753 281.45177 
L 80.971289 279.722922 
L 84.054825 278.244753 
L 87.138362 277.03839 
L 90.221898 276.121074 
L 93.305434 275.505916 
L 96.38897 275.201706 
L 99.472506 275.212793 
L 102.556042 275.539017 
L 105.639578 276.175718 
L 108.723114 277.113795 
L 111.80665 278.339841 
L 114.890186 279.836334 
L 117.973722 281.581886 
L 121.057258 283.551551 
L 125.168639 286.477322 
L 129.28002 289.67688 
L 135.447093 294.810503 
L 147.781237 305.196474 
L 151.892618 308.370933 
L 156.003999 311.263426 
L 159.087535 313.203265 
L 162.171071 314.915288 
L 165.254607 316.375029 
L 168.338143 317.561623 
L 171.421679 318.458113 
L 174.505216 319.051687 
L 177.588752 319.33386 
L 180.672288 319.3006 
L 183.755824 318.952384 
L 186.83936 318.294186 
L 189.922896 317.335414 
L 193.006432 316.089771 
L 196.089968 314.575059 
L 199.173504 312.812927 
L 202.25704 310.828557 
L 206.368421 307.886455 
L 210.479802 304.674686 
L 216.646875 299.531114 
L 227.953173 289.982542 
L 233.0924 285.995159 
L 237.203781 283.119611 
L 240.287317 281.19489 
L 243.370853 279.499813 
L 246.454389 278.058604 
L 249.537925 276.891861 
L 252.621461 276.01626 
L 255.704997 275.444314 
L 258.788534 275.184197 
L 261.87207 275.239627 
L 264.955606 275.609811 
L 268.039142 276.289459 
L 271.122678 277.268858 
L 274.206214 278.534011 
L 277.28975 280.066835 
L 280.373286 281.845424 
L 283.456822 283.844358 
L 287.568203 286.802584 
L 291.679584 290.026338 
L 297.846656 295.179495 
L 309.152955 304.718352 
L 313.264337 307.92709 
L 317.375718 310.865129 
L 320.459254 312.845835 
L 323.54279 314.603834 
L 326.626326 316.114001 
L 329.709862 317.354753 
L 332.793398 318.308357 
L 335.876934 318.961185 
L 338.96047 319.303906 
L 342.044006 319.331623 
L 345.127542 319.043938 
L 348.211078 318.444965 
L 351.294614 317.543262 
L 354.37815 316.351718 
L 357.461686 314.887361 
L 360.545222 313.171119 
L 363.628758 311.227522 
L 367.74014 308.330824 
L 371.851521 305.15318 
L 378.018593 300.037834 
L 390.352737 289.633346 
L 394.464119 286.436877 
L 398.5755 283.51522 
L 401.659036 281.549253 
L 404.742572 279.807865 
L 407.826108 278.315944 
L 410.909644 277.09481 
L 413.99318 276.161918 
L 417.076716 275.530598 
L 420.160252 275.209875 
L 423.243788 275.204332 
L 426.327324 275.514047 
L 429.41086 276.134596 
L 432.494396 277.057108 
L 435.577932 278.2684 
L 438.661468 279.751159 
L 441.745004 281.484195 
L 444.82854 283.44274 
L 448.939922 286.356128 
L 453.051303 289.546379 
L 459.218375 294.672304 
L 471.552519 305.066486 
L 475.663901 308.250462 
L 479.775282 311.15553 
L 482.858818 313.106618 
L 485.942354 314.831272 
L 489.02589 316.304843 
L 492.109426 317.506272 
L 495.192962 318.418388 
L 498.276498 319.028154 
L 501.360034 319.326857 
L 504.44357 319.310226 
L 507.527106 318.978501 
L 510.610642 318.336422 
L 513.694178 317.393165 
L 516.777714 316.162212 
L 519.86125 314.661154 
L 522.944786 312.911445 
L 526.028322 310.938092 
L 530.139704 308.008218 
L 534.251085 304.805587 
L 540.418157 299.669442 
L 551.724456 290.114025 
L 556.863682 286.115042 
L 560.975064 283.226765 
L 564.0586 281.290693 
L 567.142136 279.582895 
L 570.225672 278.127778 
L 570.225672 278.127778 
" style="fill:none;stroke:#f2aa00;stroke-linejoin:miter;stroke-width:3;"/>
   </g>
   <g id="matplotlib.axis_3">
    <g id="xtick_12">
     <g id="line2d_48">
      <path clip-path="url(#p5c8aaa5e39)" d="M 57.330847 387.854445 
L 57.330847 206.671589 
" style="fill:none;stroke:#000000;stroke-linejoin:miter;stroke-opacity:0.2;stroke-width:0.5;"/>
     </g>
     <g id="line2d_49">
      <g>
       <use style="fill-opacity:0.2;stroke:#000000;stroke-opacity:0.2;stroke-width:0.8;" x="57.330847" xlink:href="#m599f319fb5" y="387.854445"/>
      </g>
     </g>
     <g id="text_10">
      <!-- $\mathdefault{0}$ -->
      <g transform="translate(53.843923 413.333974)scale(0.14 -0.14)">
       <use transform="scale(0.996264)" xlink:href="#URWPalladioL-Roma-30"/>
      </g>
     </g>
    </g>
    <g id="xtick_13">
     <g id="line2d_50">
      <path clip-path="url(#p5c8aaa5e39)" d="M 84.325311 387.854445 
L 84.325311 206.671589 
" style="fill:none;stroke:#000000;stroke-linejoin:miter;stroke-opacity:0.2;stroke-width:0.5;"/>
     </g>
     <g id="line2d_51">
      <g>
       <use style="fill-opacity:0.2;stroke:#000000;stroke-opacity:0.2;stroke-width:0.8;" x="84.325311" xlink:href="#m599f319fb5" y="387.854445"/>
      </g>
     </g>
     <g id="text_11">
      <!-- $\mathdefault{1}$ -->
      <g transform="translate(80.838387 413.333974)scale(0.14 -0.14)">
       <use transform="scale(0.996264)" xlink:href="#URWPalladioL-Roma-31"/>
      </g>
     </g>
    </g>
    <g id="xtick_14">
     <g id="line2d_52">
      <path clip-path="url(#p5c8aaa5e39)" d="M 138.31424 387.854445 
L 138.31424 206.671589 
" style="fill:none;stroke:#000000;stroke-linejoin:miter;stroke-opacity:0.2;stroke-width:0.5;"/>
     </g>
     <g id="line2d_53">
      <g>
       <use style="fill-opacity:0.2;stroke:#000000;stroke-opacity:0.2;stroke-width:0.8;" x="138.31424" xlink:href="#m599f319fb5" y="387.854445"/>
      </g>
     </g>
     <g id="text_12">
      <!-- $\mathdefault{3}$ -->
      <g transform="translate(134.827316 413.333974)scale(0.14 -0.14)">
       <use transform="scale(0.996264)" xlink:href="#URWPalladioL-Roma-33"/>
      </g>
     </g>
    </g>
    <g id="xtick_15">
     <g id="line2d_54">
      <path clip-path="url(#p5c8aaa5e39)" d="M 192.303169 387.854445 
L 192.303169 206.671589 
" style="fill:none;stroke:#000000;stroke-linejoin:miter;stroke-opacity:0.2;stroke-width:0.5;"/>
     </g>
     <g id="line2d_55">
      <g>
       <use style="fill-opacity:0.2;stroke:#000000;stroke-opacity:0.2;stroke-width:0.8;" x="192.303169" xlink:href="#m599f319fb5" y="387.854445"/>
      </g>
     </g>
     <g id="text_13">
      <!-- $\mathdefault{5}$ -->
      <g transform="translate(188.816245 413.333974)scale(0.14 -0.14)">
       <defs>
        <path d="M 813 3891 
C 1638 3865 1997 3859 2765 3859 
L 2797 3891 
C 2784 4006 2784 4057 2784 4140 
C 2784 4230 2784 4281 2797 4396 
L 2765 4428 
C 2285 4403 1997 4396 1651 4396 
C 1299 4396 1018 4403 538 4428 
L 506 4396 
C 512 4006 518 3724 518 3520 
C 518 2976 499 2360 480 2076 
L 608 2038 
C 909 2341 1082 2432 1395 2432 
C 2010 2432 2394 1992 2394 1295 
C 2394 579 1984 160 1286 160 
C 941 160 621 276 531 443 
L 237 973 
L 83 882 
C 230 514 307 308 397 25 
C 576 -71 832 -128 1107 -128 
C 1536 -128 1990 57 2342 366 
C 2733 715 2938 1153 2938 1631 
C 2938 2360 2419 2873 1690 2873 
C 1382 2873 1152 2790 755 2553 
L 813 3891 
z
" id="URWPalladioL-Roma-35" transform="scale(0.015625)"/>
       </defs>
       <use transform="scale(0.996264)" xlink:href="#URWPalladioL-Roma-35"/>
      </g>
     </g>
    </g>
    <g id="xtick_16">
     <g id="line2d_56">
      <path clip-path="url(#p5c8aaa5e39)" d="M 246.292098 387.854445 
L 246.292098 206.671589 
" style="fill:none;stroke:#000000;stroke-linejoin:miter;stroke-opacity:0.2;stroke-width:0.5;"/>
     </g>
     <g id="line2d_57">
      <g>
       <use style="fill-opacity:0.2;stroke:#000000;stroke-opacity:0.2;stroke-width:0.8;" x="246.292098" xlink:href="#m599f319fb5" y="387.854445"/>
      </g>
     </g>
     <g id="text_14">
      <!-- $\mathdefault{7}$ -->
      <g transform="translate(242.805174 413.333974)scale(0.14 -0.14)">
       <defs>
        <path d="M 358 83 
L 416 0 
C 666 0 666 0 710 0 
C 755 19 755 19 1005 0 
C 1274 700 1587 1369 2010 2141 
L 3181 4255 
L 3181 4448 
C 2490 4422 2266 4416 1747 4416 
C 1280 4416 966 4422 346 4448 
L 282 4416 
C 301 3807 301 3807 301 3743 
C 301 3672 301 3672 282 3087 
L 474 3087 
L 518 3447 
C 570 3846 614 3897 909 3897 
L 2618 3897 
C 2362 3370 2163 2996 1920 2604 
L 358 83 
z
" id="URWPalladioL-Roma-37" transform="scale(0.015625)"/>
       </defs>
       <use transform="scale(0.996264)" xlink:href="#URWPalladioL-Roma-37"/>
      </g>
     </g>
    </g>
    <g id="xtick_17">
     <g id="line2d_58">
      <path clip-path="url(#p5c8aaa5e39)" d="M 300.281027 387.854445 
L 300.281027 206.671589 
" style="fill:none;stroke:#000000;stroke-linejoin:miter;stroke-opacity:0.2;stroke-width:0.5;"/>
     </g>
     <g id="line2d_59">
      <g>
       <use style="fill-opacity:0.2;stroke:#000000;stroke-opacity:0.2;stroke-width:0.8;" x="300.281027" xlink:href="#m599f319fb5" y="387.854445"/>
      </g>
     </g>
     <g id="text_15">
      <!-- $\mathdefault{9}$ -->
      <g transform="translate(296.794103 413.333974)scale(0.14 -0.14)">
       <use transform="scale(0.996264)" xlink:href="#URWPalladioL-Roma-39"/>
      </g>
     </g>
    </g>
    <g id="xtick_18">
     <g id="line2d_60">
      <path clip-path="url(#p5c8aaa5e39)" d="M 354.269956 387.854445 
L 354.269956 206.671589 
" style="fill:none;stroke:#000000;stroke-linejoin:miter;stroke-opacity:0.2;stroke-width:0.5;"/>
     </g>
     <g id="line2d_61">
      <g>
       <use style="fill-opacity:0.2;stroke:#000000;stroke-opacity:0.2;stroke-width:0.8;" x="354.269956" xlink:href="#m599f319fb5" y="387.854445"/>
      </g>
     </g>
     <g id="text_16">
      <!-- $\mathdefault{11}$ -->
      <g transform="translate(347.296108 413.333974)scale(0.14 -0.14)">
       <use transform="scale(0.996264)" xlink:href="#URWPalladioL-Roma-31"/>
       <use transform="translate(49.8132 0)scale(0.996264)" xlink:href="#URWPalladioL-Roma-31"/>
      </g>
     </g>
    </g>
    <g id="xtick_19">
     <g id="line2d_62">
      <path clip-path="url(#p5c8aaa5e39)" d="M 408.258885 387.854445 
L 408.258885 206.671589 
" style="fill:none;stroke:#000000;stroke-linejoin:miter;stroke-opacity:0.2;stroke-width:0.5;"/>
     </g>
     <g id="line2d_63">
      <g>
       <use style="fill-opacity:0.2;stroke:#000000;stroke-opacity:0.2;stroke-width:0.8;" x="408.258885" xlink:href="#m599f319fb5" y="387.854445"/>
      </g>
     </g>
     <g id="text_17">
      <!-- $\mathdefault{13}$ -->
      <g transform="translate(401.285037 413.333974)scale(0.14 -0.14)">
       <use transform="scale(0.996264)" xlink:href="#URWPalladioL-Roma-31"/>
       <use transform="translate(49.8132 0)scale(0.996264)" xlink:href="#URWPalladioL-Roma-33"/>
      </g>
     </g>
    </g>
    <g id="xtick_20">
     <g id="line2d_64">
      <path clip-path="url(#p5c8aaa5e39)" d="M 462.247814 387.854445 
L 462.247814 206.671589 
" style="fill:none;stroke:#000000;stroke-linejoin:miter;stroke-opacity:0.2;stroke-width:0.5;"/>
     </g>
     <g id="line2d_65">
      <g>
       <use style="fill-opacity:0.2;stroke:#000000;stroke-opacity:0.2;stroke-width:0.8;" x="462.247814" xlink:href="#m599f319fb5" y="387.854445"/>
      </g>
     </g>
     <g id="text_18">
      <!-- $\mathdefault{15}$ -->
      <g transform="translate(455.273966 413.333974)scale(0.14 -0.14)">
       <use transform="scale(0.996264)" xlink:href="#URWPalladioL-Roma-31"/>
       <use transform="translate(49.8132 0)scale(0.996264)" xlink:href="#URWPalladioL-Roma-35"/>
      </g>
     </g>
    </g>
    <g id="xtick_21">
     <g id="line2d_66">
      <path clip-path="url(#p5c8aaa5e39)" d="M 516.236743 387.854445 
L 516.236743 206.671589 
" style="fill:none;stroke:#000000;stroke-linejoin:miter;stroke-opacity:0.2;stroke-width:0.5;"/>
     </g>
     <g id="line2d_67">
      <g>
       <use style="fill-opacity:0.2;stroke:#000000;stroke-opacity:0.2;stroke-width:0.8;" x="516.236743" xlink:href="#m599f319fb5" y="387.854445"/>
      </g>
     </g>
     <g id="text_19">
      <!-- $\mathdefault{17}$ -->
      <g transform="translate(509.262895 413.333974)scale(0.14 -0.14)">
       <use transform="scale(0.996264)" xlink:href="#URWPalladioL-Roma-31"/>
       <use transform="translate(49.8132 0)scale(0.996264)" xlink:href="#URWPalladioL-Roma-37"/>
      </g>
     </g>
    </g>
    <g id="xtick_22">
     <g id="line2d_68">
      <path clip-path="url(#p5c8aaa5e39)" d="M 570.225672 387.854445 
L 570.225672 206.671589 
" style="fill:none;stroke:#000000;stroke-linejoin:miter;stroke-opacity:0.2;stroke-width:0.5;"/>
     </g>
     <g id="line2d_69">
      <g>
       <use style="fill-opacity:0.2;stroke:#000000;stroke-opacity:0.2;stroke-width:0.8;" x="570.225672" xlink:href="#m599f319fb5" y="387.854445"/>
      </g>
     </g>
     <g id="text_20">
      <!-- $\mathdefault{19}$ -->
      <g transform="translate(563.251824 413.333974)scale(0.14 -0.14)">
       <use transform="scale(0.996264)" xlink:href="#URWPalladioL-Roma-31"/>
       <use transform="translate(49.8132 0)scale(0.996264)" xlink:href="#URWPalladioL-Roma-39"/>
      </g>
     </g>
    </g>
    <g id="text_21">
     <!-- $n~\rightarrow$ -->
     <g transform="translate(300.921815 429.821022)scale(0.12 -0.12)">
      <defs>
       <path d="M 5338 1472 
C 4986 1203 4813 940 4762 857 
C 4474 415 4422 12 4422 6 
C 4422 -71 4499 -71 4550 -71 
C 4659 -71 4666 -58 4691 57 
C 4838 684 5216 1222 5939 1516 
C 6016 1542 6035 1555 6035 1600 
C 6035 1644 5997 1664 5984 1670 
C 5702 1779 4928 2099 4685 3174 
C 4666 3251 4659 3270 4550 3270 
C 4499 3270 4422 3270 4422 3193 
C 4422 3180 4480 2777 4749 2348 
C 4877 2156 5062 1932 5338 1728 
L 582 1728 
C 467 1728 352 1728 352 1600 
C 352 1472 467 1472 582 1472 
L 5338 1472 
z
" id="CMSY10-21" transform="scale(0.015625)"/>
      </defs>
      <use transform="scale(0.996264)" xlink:href="#URWPalladioL-Ital-6e"/>
      <use transform="translate(110.463493 0)scale(1.038107)" xlink:href="#CMSY10-21"/>
     </g>
    </g>
   </g>
   <g id="matplotlib.axis_4">
    <g id="ytick_6">
     <g id="line2d_70">
      <path clip-path="url(#p5c8aaa5e39)" d="M 57.330847 385.644898 
L 570.225672 385.644898 
" style="fill:none;stroke:#000000;stroke-linejoin:miter;stroke-opacity:0.2;stroke-width:0.5;"/>
     </g>
     <g id="line2d_71">
      <g>
       <use style="fill-opacity:0.2;stroke:#000000;stroke-opacity:0.2;stroke-width:0.8;" x="57.330847" xlink:href="#mc7ee2295ec" y="385.644898"/>
      </g>
     </g>
     <g id="text_22">
      <!-- $\mathdefault{−4}$ -->
      <g transform="translate(23.385156 390.634662)scale(0.14 -0.14)">
       <use transform="scale(1.038107)" xlink:href="#CMSY10-0"/>
       <use transform="translate(81.941696 0)scale(0.996264)" xlink:href="#URWPalladioL-Roma-34"/>
      </g>
     </g>
    </g>
    <g id="ytick_7">
     <g id="line2d_72">
      <path clip-path="url(#p5c8aaa5e39)" d="M 57.330847 341.453957 
L 570.225672 341.453957 
" style="fill:none;stroke:#000000;stroke-linejoin:miter;stroke-opacity:0.2;stroke-width:0.5;"/>
     </g>
     <g id="line2d_73">
      <g>
       <use style="fill-opacity:0.2;stroke:#000000;stroke-opacity:0.2;stroke-width:0.8;" x="57.330847" xlink:href="#mc7ee2295ec" y="341.453957"/>
      </g>
     </g>
     <g id="text_23">
      <!-- $\mathdefault{−2}$ -->
      <g transform="translate(23.385156 346.443722)scale(0.14 -0.14)">
       <use transform="scale(1.038107)" xlink:href="#CMSY10-0"/>
       <use transform="translate(81.941696 0)scale(0.996264)" xlink:href="#URWPalladioL-Roma-32"/>
      </g>
     </g>
    </g>
    <g id="ytick_8">
     <g id="line2d_74">
      <path clip-path="url(#p5c8aaa5e39)" d="M 57.330847 297.263017 
L 570.225672 297.263017 
" style="fill:none;stroke:#000000;stroke-linejoin:miter;stroke-opacity:0.2;stroke-width:0.5;"/>
     </g>
     <g id="line2d_75">
      <g>
       <use style="fill-opacity:0.2;stroke:#000000;stroke-opacity:0.2;stroke-width:0.8;" x="57.330847" xlink:href="#mc7ee2295ec" y="297.263017"/>
      </g>
     </g>
     <g id="text_24">
      <!-- $\mathdefault{0}$ -->
      <g transform="translate(34.856999 302.252781)scale(0.14 -0.14)">
       <use transform="scale(0.996264)" xlink:href="#URWPalladioL-Roma-30"/>
      </g>
     </g>
    </g>
    <g id="ytick_9">
     <g id="line2d_76">
      <path clip-path="url(#p5c8aaa5e39)" d="M 57.330847 253.072076 
L 570.225672 253.072076 
" style="fill:none;stroke:#000000;stroke-linejoin:miter;stroke-opacity:0.2;stroke-width:0.5;"/>
     </g>
     <g id="line2d_77">
      <g>
       <use style="fill-opacity:0.2;stroke:#000000;stroke-opacity:0.2;stroke-width:0.8;" x="57.330847" xlink:href="#mc7ee2295ec" y="253.072076"/>
      </g>
     </g>
     <g id="text_25">
      <!-- $\mathdefault{2}$ -->
      <g transform="translate(34.856999 258.061841)scale(0.14 -0.14)">
       <use transform="scale(0.996264)" xlink:href="#URWPalladioL-Roma-32"/>
      </g>
     </g>
    </g>
    <g id="ytick_10">
     <g id="line2d_78">
      <path clip-path="url(#p5c8aaa5e39)" d="M 57.330847 208.881136 
L 570.225672 208.881136 
" style="fill:none;stroke:#000000;stroke-linejoin:miter;stroke-opacity:0.2;stroke-width:0.5;"/>
     </g>
     <g id="line2d_79">
      <g>
       <use style="fill-opacity:0.2;stroke:#000000;stroke-opacity:0.2;stroke-width:0.8;" x="57.330847" xlink:href="#mc7ee2295ec" y="208.881136"/>
      </g>
     </g>
     <g id="text_26">
      <!-- $\mathdefault{4}$ -->
      <g transform="translate(34.856999 213.8709)scale(0.14 -0.14)">
       <use transform="scale(0.996264)" xlink:href="#URWPalladioL-Roma-34"/>
      </g>
     </g>
    </g>
    <g id="text_27">
     <!-- $z^n$ (imaginary part) -->
     <g transform="translate(16.013872 347.928011)rotate(-90)scale(0.12 -0.12)">
      <defs>
       <path d="M 1203 2982 
L 1146 3008 
C 819 2873 486 2784 147 2746 
L 147 2568 
L 384 2568 
C 640 2568 666 2523 666 2103 
L 666 669 
C 666 268 646 223 429 211 
L 134 192 
L 134 0 
C 774 0 774 0 934 0 
C 1094 19 1094 19 1734 0 
L 1734 192 
L 1440 211 
C 1222 224 1203 268 1203 671 
L 1203 2982 
z
M 909 4416 
C 717 4416 550 4249 550 4057 
C 550 3871 717 3705 902 3705 
C 1088 3705 1261 3871 1261 4057 
C 1261 4236 1088 4416 909 4416 
z
" id="URWPalladioL-Roma-69" transform="scale(0.015625)"/>
       <path d="M 115 2579 
L 352 2579 
C 608 2579 634 2534 634 2112 
L 634 672 
C 634 268 614 224 397 211 
L 102 192 
L 102 0 
C 717 0 736 0 915 0 
C 1094 19 1261 12 1677 0 
L 1677 192 
L 1408 211 
C 1190 223 1171 268 1171 670 
L 1171 2023 
C 1171 2311 1594 2624 1978 2624 
C 2323 2624 2560 2298 2560 1813 
L 2560 670 
C 2560 268 2541 223 2323 211 
L 2029 192 
L 2029 0 
C 2669 0 2669 0 2829 0 
C 2989 19 2989 19 3629 0 
L 3629 192 
L 3334 211 
C 3117 223 3098 268 3098 670 
L 3098 2023 
C 3098 2311 3520 2624 3904 2624 
C 4250 2624 4486 2298 4486 1813 
L 4486 0 
C 4877 0 4883 0 4992 0 
C 5075 19 5075 19 5562 0 
L 5562 192 
L 5261 211 
C 5043 223 5024 268 5024 670 
L 5024 1985 
C 5024 2617 4653 3014 4064 3014 
C 3840 3014 3654 2956 3539 2854 
L 3053 2419 
C 2848 2841 2586 3014 2144 3014 
C 1907 3014 1728 2956 1613 2854 
L 1171 2445 
L 1171 2988 
L 1114 3008 
C 787 2873 454 2783 115 2745 
L 115 2579 
z
" id="URWPalladioL-Roma-6d" transform="scale(0.015625)"/>
       <path d="M 3322 2452 
L 3482 2713 
L 3456 2790 
L 2547 2764 
C 2310 2956 2080 3033 1766 3033 
C 1485 3033 1158 2944 896 2790 
C 538 2586 352 2274 352 1885 
C 352 1413 646 1087 1120 1036 
L 614 638 
C 550 540 518 455 518 358 
C 518 179 634 76 941 -13 
L 384 -315 
C 294 -367 205 -604 205 -804 
C 205 -1388 774 -1792 1587 -1792 
C 2554 -1792 3315 -1183 3315 -399 
C 3315 64 3008 384 2560 384 
L 1536 384 
C 1203 384 1050 462 1050 638 
C 1050 723 1101 795 1267 939 
C 1306 972 1318 985 1344 1011 
C 1408 1004 1446 998 1498 998 
C 1773 998 2112 1119 2374 1305 
C 2662 1515 2803 1770 2803 2108 
C 2803 2235 2784 2318 2733 2452 
L 3322 2452 
z
M 1536 2816 
C 1971 2816 2266 2458 2266 1917 
C 2266 1502 1997 1216 1606 1216 
C 1178 1216 890 1547 890 2038 
C 890 2529 1126 2816 1536 2816 
z
M 1837 -64 
C 2560 -64 2810 -212 2810 -630 
C 2810 -1183 2304 -1594 1632 -1594 
C 1075 -1594 691 -1266 691 -791 
C 691 -502 858 -238 1114 -129 
C 1216 -77 1395 -64 1837 -64 
z
" id="URWPalladioL-Roma-67" transform="scale(0.015625)"/>
       <path d="M 2624 0 
C 3014 0 3021 0 3130 0 
C 3219 19 3219 19 3661 0 
L 3661 192 
L 3398 211 
C 3181 223 3162 262 3162 670 
L 3162 1902 
C 3162 2649 2810 3014 2093 3014 
C 1856 3014 1722 2969 1587 2854 
L 1101 2432 
L 1101 2988 
L 1043 3008 
C 717 2873 384 2784 45 2746 
L 45 2568 
L 282 2568 
C 538 2568 563 2523 563 2103 
L 563 669 
C 563 268 544 223 326 211 
L 38 192 
L 38 0 
C 474 -7 646 0 832 0 
C 1018 19 1190 12 1626 0 
L 1626 192 
L 1338 211 
C 1120 223 1101 268 1101 670 
L 1101 2023 
C 1101 2311 1523 2624 1914 2624 
C 2342 2624 2624 2304 2624 1813 
L 2624 0 
z
" id="URWPalladioL-Roma-6e" transform="scale(0.015625)"/>
       <path d="M 1901 569 
C 1760 812 1690 960 1574 1273 
L 1165 2349 
C 1126 2457 1101 2553 1101 2617 
C 1101 2707 1171 2758 1318 2765 
L 1562 2777 
L 1562 2957 
C 941 2937 941 2937 819 2937 
C 698 2937 698 2937 77 2957 
L 77 2777 
L 192 2765 
C 352 2745 429 2675 525 2451 
L 1222 774 
C 1402 339 1466 185 1581 -135 
L 1434 -525 
C 1229 -1063 979 -1364 736 -1364 
C 634 -1364 518 -1312 410 -1216 
L 326 -1216 
L 173 -1696 
C 294 -1760 397 -1792 518 -1792 
C 947 -1792 1222 -1562 1466 -1005 
L 2765 1990 
C 3021 2573 3142 2745 3302 2765 
L 3482 2777 
L 3482 2957 
C 2976 2937 2976 2937 2874 2937 
C 2771 2937 2771 2937 2266 2957 
L 2266 2777 
L 2432 2765 
C 2611 2752 2701 2694 2701 2605 
C 2701 2560 2688 2502 2662 2438 
L 1901 569 
z
" id="URWPalladioL-Roma-79" transform="scale(0.015625)"/>
      </defs>
      <use transform="scale(0.996264)" xlink:href="#URWPalladioL-Ital-7a"/>
      <use transform="translate(46.425879 36.164371)scale(0.757155)" xlink:href="#URWPalladioL-Ital-6e"/>
      <use transform="translate(114.874929 0)scale(0.996264)" xlink:href="#URWPalladioL-Roma-28"/>
      <use transform="translate(148.050159 0)scale(0.996264)" xlink:href="#URWPalladioL-Roma-69"/>
      <use transform="translate(177.04052 0)scale(0.996264)" xlink:href="#URWPalladioL-Roma-6d"/>
      <use transform="translate(265.010194 0)scale(0.996264)" xlink:href="#URWPalladioL-Roma-61"/>
      <use transform="translate(314.823395 0)scale(0.996264)" xlink:href="#URWPalladioL-Roma-67"/>
      <use transform="translate(370.215072 0)scale(0.996264)" xlink:href="#URWPalladioL-Roma-69"/>
      <use transform="translate(399.205433 0)scale(0.996264)" xlink:href="#URWPalladioL-Roma-6e"/>
      <use transform="translate(457.187494 0)scale(0.996264)" xlink:href="#URWPalladioL-Roma-61"/>
      <use transform="translate(507.000694 0)scale(0.996264)" xlink:href="#URWPalladioL-Roma-72"/>
      <use transform="translate(546.352591 0)scale(0.996264)" xlink:href="#URWPalladioL-Roma-79"/>
      <use transform="translate(626.650868 0)scale(0.996264)" xlink:href="#URWPalladioL-Roma-70"/>
      <use transform="translate(686.525262 0)scale(0.996264)" xlink:href="#URWPalladioL-Roma-61"/>
      <use transform="translate(736.338462 0)scale(0.996264)" xlink:href="#URWPalladioL-Roma-72"/>
      <use transform="translate(775.690359 0)scale(0.996264)" xlink:href="#URWPalladioL-Roma-74"/>
      <use transform="translate(808.167446 0)scale(0.996264)" xlink:href="#URWPalladioL-Roma-29"/>
     </g>
    </g>
   </g>
   <g id="line2d_80">
    <path clip-path="url(#p5c8aaa5e39)" d="M 57.330847 297.263017 
L 84.325311 283.201546 
L 111.319776 315.160348 
L 138.31424 285.873225 
L 165.308705 297.263017 
L 192.303169 306.488748 
L 219.297634 285.520578 
L 246.292098 304.735859 
L 273.286563 297.263017 
L 300.281027 291.210015 
L 327.275492 304.967231 
L 354.269956 292.360085 
L 381.26442 297.263017 
L 408.258885 301.234392 
L 435.253349 292.208282 
L 462.247814 300.47983 
L 489.242278 297.263017 
L 516.236743 294.657398 
L 543.231207 300.579428 
L 570.225672 295.152465 
" style="fill:none;"/>
    <g clip-path="url(#p5c8aaa5e39)">
     <use style="fill:#0271ae;" x="57.330847" xlink:href="#ma986b3276f" y="297.263017"/>
     <use style="fill:#0271ae;" x="84.325311" xlink:href="#ma986b3276f" y="283.201546"/>
     <use style="fill:#0271ae;" x="111.319776" xlink:href="#ma986b3276f" y="315.160348"/>
     <use style="fill:#0271ae;" x="138.31424" xlink:href="#ma986b3276f" y="285.873225"/>
     <use style="fill:#0271ae;" x="165.308705" xlink:href="#ma986b3276f" y="297.263017"/>
     <use style="fill:#0271ae;" x="192.303169" xlink:href="#ma986b3276f" y="306.488748"/>
     <use style="fill:#0271ae;" x="219.297634" xlink:href="#ma986b3276f" y="285.520578"/>
     <use style="fill:#0271ae;" x="246.292098" xlink:href="#ma986b3276f" y="304.735859"/>
     <use style="fill:#0271ae;" x="273.286563" xlink:href="#ma986b3276f" y="297.263017"/>
     <use style="fill:#0271ae;" x="300.281027" xlink:href="#ma986b3276f" y="291.210015"/>
     <use style="fill:#0271ae;" x="327.275492" xlink:href="#ma986b3276f" y="304.967231"/>
     <use style="fill:#0271ae;" x="354.269956" xlink:href="#ma986b3276f" y="292.360085"/>
     <use style="fill:#0271ae;" x="381.26442" xlink:href="#ma986b3276f" y="297.263017"/>
     <use style="fill:#0271ae;" x="408.258885" xlink:href="#ma986b3276f" y="301.234392"/>
     <use style="fill:#0271ae;" x="435.253349" xlink:href="#ma986b3276f" y="292.208282"/>
     <use style="fill:#0271ae;" x="462.247814" xlink:href="#ma986b3276f" y="300.47983"/>
     <use style="fill:#0271ae;" x="489.242278" xlink:href="#ma986b3276f" y="297.263017"/>
     <use style="fill:#0271ae;" x="516.236743" xlink:href="#ma986b3276f" y="294.657398"/>
     <use style="fill:#0271ae;" x="543.231207" xlink:href="#ma986b3276f" y="300.579428"/>
     <use style="fill:#0271ae;" x="570.225672" xlink:href="#ma986b3276f" y="295.152465"/>
    </g>
   </g>
   <g id="line2d_81">
    <path clip-path="url(#p5c8aaa5e39)" d="M 57.330847 297.263017 
L 84.325311 309.415525 
L 111.319776 320.416655 
L 138.31424 326.672088 
L 165.308705 325.27892 
L 192.303169 315.055505 
L 219.297634 297.263017 
L 246.292098 275.734106 
L 273.286563 256.244934 
L 300.281027 245.163054 
L 327.275492 247.631136 
L 354.269956 265.742539 
L 381.26442 297.263017 
L 408.258885 335.402795 
L 435.253349 369.929053 
L 462.247814 389.561279 
L 489.242278 385.188921 
L 516.236743 353.103466 
L 543.231207 297.263017 
L 570.225672 229.696074 
" style="fill:none;"/>
    <g clip-path="url(#p5c8aaa5e39)">
     <use style="fill:#dc2830;" x="57.330847" xlink:href="#m7593f1001a" y="297.263017"/>
     <use style="fill:#dc2830;" x="84.325311" xlink:href="#m7593f1001a" y="309.415525"/>
     <use style="fill:#dc2830;" x="111.319776" xlink:href="#m7593f1001a" y="320.416655"/>
     <use style="fill:#dc2830;" x="138.31424" xlink:href="#m7593f1001a" y="326.672088"/>
     <use style="fill:#dc2830;" x="165.308705" xlink:href="#m7593f1001a" y="325.27892"/>
     <use style="fill:#dc2830;" x="192.303169" xlink:href="#m7593f1001a" y="315.055505"/>
     <use style="fill:#dc2830;" x="219.297634" xlink:href="#m7593f1001a" y="297.263017"/>
     <use style="fill:#dc2830;" x="246.292098" xlink:href="#m7593f1001a" y="275.734106"/>
     <use style="fill:#dc2830;" x="273.286563" xlink:href="#m7593f1001a" y="256.244934"/>
     <use style="fill:#dc2830;" x="300.281027" xlink:href="#m7593f1001a" y="245.163054"/>
     <use style="fill:#dc2830;" x="327.275492" xlink:href="#m7593f1001a" y="247.631136"/>
     <use style="fill:#dc2830;" x="354.269956" xlink:href="#m7593f1001a" y="265.742539"/>
     <use style="fill:#dc2830;" x="381.26442" xlink:href="#m7593f1001a" y="297.263017"/>
     <use style="fill:#dc2830;" x="408.258885" xlink:href="#m7593f1001a" y="335.402795"/>
     <use style="fill:#dc2830;" x="435.253349" xlink:href="#m7593f1001a" y="369.929053"/>
     <use style="fill:#dc2830;" x="462.247814" xlink:href="#m7593f1001a" y="389.561279"/>
     <use style="fill:#dc2830;" x="489.242278" xlink:href="#m7593f1001a" y="385.188921"/>
     <use style="fill:#dc2830;" x="516.236743" xlink:href="#m7593f1001a" y="353.103466"/>
     <use style="fill:#dc2830;" x="543.231207" xlink:href="#m7593f1001a" y="297.263017"/>
     <use style="fill:#dc2830;" x="570.225672" xlink:href="#m7593f1001a" y="229.696074"/>
    </g>
   </g>
   <g id="line2d_82">
    <path clip-path="url(#p5c8aaa5e39)" d="M 57.330847 297.263017 
L 84.325311 278.127778 
L 111.319776 278.127778 
L 138.31424 297.263017 
L 165.308705 316.398255 
L 192.303169 316.398255 
L 219.297634 297.263017 
L 246.292098 278.127778 
L 273.286563 278.127778 
L 300.281027 297.263017 
L 327.275492 316.398255 
L 354.269956 316.398255 
L 381.26442 297.263017 
L 408.258885 278.127778 
L 435.253349 278.127778 
L 462.247814 297.263017 
L 489.242278 316.398255 
L 516.236743 316.398255 
L 543.231207 297.263017 
L 570.225672 278.127778 
" style="fill:none;"/>
    <defs>
     <path d="M 0 1.75 
C 0.464105 1.75 0.909265 1.565609 1.237437 1.237437 
C 1.565609 0.909265 1.75 0.464105 1.75 0 
C 1.75 -0.464105 1.565609 -0.909265 1.237437 -1.237437 
C 0.909265 -1.565609 0.464105 -1.75 0 -1.75 
C -0.464105 -1.75 -0.909265 -1.565609 -1.237437 -1.237437 
C -1.565609 -0.909265 -1.75 -0.464105 -1.75 0 
C -1.75 0.464105 -1.565609 0.909265 -1.237437 1.237437 
C -0.909265 1.565609 -0.464105 1.75 0 1.75 
z
" id="m0b85fe3ccd"/>
    </defs>
    <g clip-path="url(#p5c8aaa5e39)">
     <use style="fill:#f2aa00;" x="57.330847" xlink:href="#m0b85fe3ccd" y="297.263017"/>
     <use style="fill:#f2aa00;" x="84.325311" xlink:href="#m0b85fe3ccd" y="278.127778"/>
     <use style="fill:#f2aa00;" x="111.319776" xlink:href="#m0b85fe3ccd" y="278.127778"/>
     <use style="fill:#f2aa00;" x="138.31424" xlink:href="#m0b85fe3ccd" y="297.263017"/>
     <use style="fill:#f2aa00;" x="165.308705" xlink:href="#m0b85fe3ccd" y="316.398255"/>
     <use style="fill:#f2aa00;" x="192.303169" xlink:href="#m0b85fe3ccd" y="316.398255"/>
     <use style="fill:#f2aa00;" x="219.297634" xlink:href="#m0b85fe3ccd" y="297.263017"/>
     <use style="fill:#f2aa00;" x="246.292098" xlink:href="#m0b85fe3ccd" y="278.127778"/>
     <use style="fill:#f2aa00;" x="273.286563" xlink:href="#m0b85fe3ccd" y="278.127778"/>
     <use style="fill:#f2aa00;" x="300.281027" xlink:href="#m0b85fe3ccd" y="297.263017"/>
     <use style="fill:#f2aa00;" x="327.275492" xlink:href="#m0b85fe3ccd" y="316.398255"/>
     <use style="fill:#f2aa00;" x="354.269956" xlink:href="#m0b85fe3ccd" y="316.398255"/>
     <use style="fill:#f2aa00;" x="381.26442" xlink:href="#m0b85fe3ccd" y="297.263017"/>
     <use style="fill:#f2aa00;" x="408.258885" xlink:href="#m0b85fe3ccd" y="278.127778"/>
     <use style="fill:#f2aa00;" x="435.253349" xlink:href="#m0b85fe3ccd" y="278.127778"/>
     <use style="fill:#f2aa00;" x="462.247814" xlink:href="#m0b85fe3ccd" y="297.263017"/>
     <use style="fill:#f2aa00;" x="489.242278" xlink:href="#m0b85fe3ccd" y="316.398255"/>
     <use style="fill:#f2aa00;" x="516.236743" xlink:href="#m0b85fe3ccd" y="316.398255"/>
     <use style="fill:#f2aa00;" x="543.231207" xlink:href="#m0b85fe3ccd" y="297.263017"/>
     <use style="fill:#f2aa00;" x="570.225672" xlink:href="#m0b85fe3ccd" y="278.127778"/>
    </g>
   </g>
  </g>
 </g>
 <defs>
  <clipPath id="p26945ad2ac">
   <rect height="181.182856" width="512.894825" x="57.330847" y="9.980218"/>
  </clipPath>
  <clipPath id="p5c8aaa5e39">
   <rect height="181.182856" width="512.894825" x="57.330847" y="206.671589"/>
  </clipPath>
 </defs>
</svg>
