<?xml version="1.0" encoding="utf-8" standalone="no"?>
<!DOCTYPE svg PUBLIC "-//W3C//DTD SVG 1.1//EN"
  "http://www.w3.org/Graphics/SVG/1.1/DTD/svg11.dtd">
<svg height="296.39952pt" version="1.1" viewBox="0 0 408.685956 296.39952" width="408.685956pt" xmlns="http://www.w3.org/2000/svg" xmlns:xlink="http://www.w3.org/1999/xlink">
 <metadata>
  <rdf:RDF xmlns:cc="http://creativecommons.org/ns#" xmlns:dc="http://purl.org/dc/elements/1.1/" xmlns:rdf="http://www.w3.org/1999/02/22-rdf-syntax-ns#">
   <cc:Work>
    <dc:type rdf:resource="http://purl.org/dc/dcmitype/StillImage"/>
    <dc:date>2020-08-12T06:37:07.125637</dc:date>
    <dc:format>image/svg+xml</dc:format>
    <dc:creator>
     <cc:Agent>
      <dc:title>Matplotlib v3.3.0rc1.post382+g019a75231, https://matplotlib.org/</dc:title>
     </cc:Agent>
    </dc:creator>
   </cc:Work>
  </rdf:RDF>
 </metadata>
 <defs>
  <style type="text/css">*{stroke-linecap:butt;stroke-linejoin:round;}</style>
 </defs>
 <g id="figure_1">
  <g id="patch_1">
   <path d="M 0 296.39952 
L 408.685956 296.39952 
L 408.685956 0 
L 0 0 
z
" style="fill:none;"/>
  </g>
  <g id="axes_1">
   <g id="patch_2">
    <path d="M 7.2 289.19952 
L 289.19952 289.19952 
L 289.19952 7.2 
L 7.2 7.2 
z
" style="fill:none;"/>
   </g>
   <g id="matplotlib.axis_1"/>
   <g id="matplotlib.axis_2"/>
   <g id="legend_1">
    <g id="patch_3">
     <path d="M 298.99952 147.825909 
L 398.685956 147.825909 
Q 401.485956 147.825909 401.485956 145.025909 
L 401.485956 17 
Q 401.485956 14.2 398.685956 14.2 
L 298.99952 14.2 
Q 296.19952 14.2 296.19952 17 
L 296.19952 145.025909 
Q 296.19952 147.825909 298.99952 147.825909 
z
" style="fill:#ffffff;opacity:0.95;stroke:#cccccc;stroke-linejoin:miter;stroke-width:0.5;"/>
    </g>
    <g id="patch_4">
     <path d="M 301.79952 30.437812 
L 315.79952 30.437812 
L 315.79952 20.637812 
L 301.79952 20.637812 
z
" style="fill:#0271ae;"/>
    </g>
    <g id="text_1">
     <!-- $\theta=\pi$ -->
     <g transform="translate(326.99952 30.437812)scale(0.14 -0.14)">
      <defs>
       <path d="M 31.703125 71 
C 27.40625 71 23 68.90625 18.40625 64.421875 
C 9.5 55.953125 2.90625 40.875 2.90625 22.546875 
C 2.90625 6.6875 6.09375 -1 14.5 -1 
C 19.796875 -1 26 2.6875 30.703125 8.6875 
C 37.5 17.359375 43.703125 33.8125 43.703125 48.875 
C 43.703125 62.734375 39.90625 71 31.703125 71 
z
M 23.09375 33 
C 29.90625 33 32.703125 32.703125 34.40625 31.90625 
C 32.203125 21.84375 28.5 12.890625 25.296875 7.6875 
C 23.296875 4.609375 20.59375 2.828125 17.59375 2.828125 
C 11.59375 2.828125 10.5 10.484375 10.5 22.34375 
C 10.5 25.421875 10.703125 28.609375 11.203125 31.8125 
C 13.296875 32.703125 16 33 23.09375 33 
z
M 29.203125 67.1875 
C 35.5 67.1875 36.09375 59.015625 36.09375 46.671875 
C 36.09375 43.875 35.90625 41 35.5 38.203125 
C 33.5 37.515625 30.40625 37.21875 23.796875 37.21875 
C 17 37.21875 14.09375 37.515625 12.296875 38.21875 
C 14.90625 49.96875 19.5 60.71875 23.09375 64.890625 
C 24.5 66.390625 26.796875 67.1875 29.203125 67.1875 
z
" id="Pazo_Math_Italic-113"/>
       <path d="M 68.703125 32 
C 70.203125 32 72.09375 32 72.09375 34.015625 
C 72.09375 36.015625 70.203125 36.015625 68.796875 36.015625 
L 8.90625 36.015625 
C 7.5 36.015625 5.59375 36.015625 5.59375 34.015625 
C 5.59375 32 7.5 32 9 32 
z
M 68.796875 13 
C 70.203125 13 72.09375 13 72.09375 15.015625 
C 72.09375 17.015625 70.203125 17.015625 68.703125 17.015625 
L 9 17.015625 
C 7.5 17.015625 5.59375 17.015625 5.59375 15.015625 
C 5.59375 13 7.5 13 8.90625 13 
z
" id="CMR10-61"/>
       <path d="M 9.59375 35.578125 
L 10.5 36.28125 
C 12.59375 42.203125 16.59375 42.5 22.296875 42.5 
C 23.5 42.5 25.296875 42.5 27.40625 42.5 
C 19 19.59375 15.203125 12.65625 7.09375 -0.09375 
L 8 -1 
L 15.40625 1.578125 
C 19 9.359375 25.09375 24.484375 30.59375 42 
L 49.203125 42 
C 47.5 35.71875 41.703125 17.421875 41.703125 10.953125 
C 41.703125 0.328125 45.5 -1 48.59375 -1 
C 53.703125 -1 56.59375 0.3125 62.90625 5.625 
L 62.09375 7.53125 
L 59.703125 5.8125 
C 60 6.015625 57.09375 3.71875 55.40625 3.71875 
C 50.703125 3.71875 49.296875 6.640625 49.296875 12.859375 
C 49.296875 15.375 49.5 18.078125 50.09375 21 
C 51.796875 29.34375 53.5 37.578125 54.40625 41.703125 
C 56.703125 41.703125 59 41.703125 61.296875 42 
C 63.09375 42 65.296875 43.03125 66.90625 43.640625 
C 68 45.78125 68.40625 45.984375 70.296875 48.421875 
L 69.59375 49.625 
C 66.90625 48.71875 62.40625 47.71875 59.09375 47.71875 
C 57.90625 47.921875 55.40625 47.921875 52.90625 47.921875 
C 42.203125 47.921875 25.703125 47.921875 21.296875 47.921875 
C 13.796875 47.921875 11.09375 44.75 8.203125 36.375 
z
" id="Pazo_Math_Italic-112"/>
      </defs>
      <use transform="scale(0.996264)" xlink:href="#Pazo_Math_Italic-113"/>
      <use transform="translate(77.387455 0)scale(1.038107)" xlink:href="#CMR10-61"/>
      <use transform="translate(188.248384 0)scale(0.996264)" xlink:href="#Pazo_Math_Italic-112"/>
     </g>
    </g>
    <g id="patch_5">
     <path d="M 301.79952 52.008797 
L 315.79952 52.008797 
L 315.79952 42.208797 
L 301.79952 42.208797 
z
" style="fill:#dc2830;"/>
    </g>
    <g id="text_2">
     <!-- $\theta=3\cdot\pi/4$ -->
     <g transform="translate(326.99952 52.008797)scale(0.14 -0.14)">
      <defs>
       <path d="M 4.296875 49.953125 
L 7.40625 49.953125 
L 9.203125 55.53125 
C 10.296875 58.90625 16.59375 62.296875 21.796875 62.296875 
C 28.296875 62.296875 33.59375 57.015625 33.59375 50.75 
C 33.59375 43.28125 27.703125 37 20.59375 37 
C 19.796875 37 18.703125 37 17.40625 37.203125 
L 15.90625 37.203125 
L 14.703125 31.984375 
L 15.40625 31.375 
C 19.203125 33.09375 21.09375 33.59375 23.796875 33.59375 
C 32.09375 33.59375 36.90625 28.265625 36.90625 19.09375 
C 36.90625 8.84375 30.796875 2.109375 21.5 2.109375 
C 16.90625 2.109375 12.796875 3.609375 9.796875 6.421875 
C 7.40625 8.640625 6.09375 10.953125 4.203125 16.390625 
L 1.5 15.390625 
C 3.59375 9.265625 4.40625 5.640625 5 0.609375 
C 10.296875 -1.203125 14.703125 -2 18.40625 -2 
C 26.40625 -2 35.59375 2.515625 41.09375 9.265625 
C 44.5 13.390625 46.203125 17.8125 46.203125 22.53125 
C 46.203125 27.359375 44.203125 31.59375 40.59375 34.09375 
C 38.09375 35.90625 35.796875 36.71875 30.796875 37.609375 
C 38.796875 43.796875 41.796875 48.375 41.796875 54.25 
C 41.796875 63.125 34.40625 69 23.296875 69 
C 16.5 69 12 67.109375 7.203125 62.328125 
z
" id="URW_Palladio_L_Roman-51"/>
       <path d="M 19.203125 25.296875 
C 19.203125 28.203125 16.796875 30.59375 13.90625 30.59375 
C 11 30.59375 8.59375 28.203125 8.59375 25.296875 
C 8.59375 22.390625 11 20 13.90625 20 
C 16.796875 20 19.203125 22.390625 19.203125 25.296875 
z
" id="CMSY10-1"/>
       <path d="M 51.90625 72.5 
L 45.90625 72.5 
L 8.703125 -12 
L 14.703125 -12 
z
" id="URW_Palladio_L_Roman-47"/>
       <path d="M 28 18 
L 28 10.515625 
C 28 4.515625 26.90625 3.109375 22 3.109375 
L 15.796875 3.109375 
L 15.796875 0 
C 29.09375 0 29.09375 0 31.5 0 
C 33.90625 0 33.90625 0 47.203125 0 
L 47.203125 3.109375 
L 42.40625 3.109375 
C 37.5 3.109375 36.40625 4.40625 36.40625 10.453125 
L 36.40625 18 
C 42.296875 18 44.40625 18 47.203125 17.703125 
L 47.203125 24.8125 
C 42.5 24.421875 40.59375 24.421875 39.09375 24.421875 
L 38.796875 24.421875 
L 36.40625 24.421875 
L 36.40625 38.390625 
C 36.40625 56.25 36.59375 64.875 37.09375 69 
L 35.90625 69.5 
L 28.5 66.796875 
L 0.203125 20.296875 
L 1.296875 18 
z
M 28 24.421875 
L 6.5 24.421875 
L 28 59.78125 
z
" id="URW_Palladio_L_Roman-52"/>
      </defs>
      <use transform="scale(0.996264)" xlink:href="#Pazo_Math_Italic-113"/>
      <use transform="translate(77.387455 0)scale(1.038107)" xlink:href="#CMR10-61"/>
      <use transform="translate(187.003084 0)scale(0.996264)" xlink:href="#URW_Palladio_L_Roman-51"/>
      <use transform="translate(257.433337 0)scale(1.038107)" xlink:href="#CMSY10-1"/>
      <use transform="translate(308.087789 0)scale(0.996264)" xlink:href="#Pazo_Math_Italic-112"/>
      <use transform="translate(380.614718 0)scale(0.996264)" xlink:href="#URW_Palladio_L_Roman-47"/>
      <use transform="translate(442.233622 0)scale(0.996264)" xlink:href="#URW_Palladio_L_Roman-52"/>
     </g>
    </g>
    <g id="patch_6">
     <path d="M 301.79952 73.579782 
L 315.79952 73.579782 
L 315.79952 63.779782 
L 301.79952 63.779782 
z
" style="fill:#ffc438;"/>
    </g>
    <g id="text_3">
     <!-- $\theta=\pi/2$ -->
     <g transform="translate(326.99952 73.579782)scale(0.14 -0.14)">
      <defs>
       <path d="M 1.59375 2.5 
L 1.59375 0 
C 20.296875 0 20.296875 0 23.90625 0 
C 27.5 0 27.5 0 46.796875 0 
C 46.59375 1.953125 46.59375 2.90625 46.59375 4.203125 
C 46.59375 5.4375 46.59375 6.359375 46.796875 8.421875 
C 35.296875 8.421875 30.703125 8.421875 12.203125 8.421875 
L 30.40625 27.515625 
C 40.09375 37.71875 43.09375 43.171875 43.09375 50.59375 
C 43.09375 61.96875 35.296875 69 22.59375 69 
C 15.40625 69 10.5 67 5.59375 62.015625 
L 3.90625 48.421875 
L 6.796875 48.421875 
L 8.09375 53.015625 
C 9.703125 58.796875 13.296875 61.296875 20 61.296875 
C 28.59375 61.296875 34.09375 55.890625 34.09375 47.421875 
C 34.09375 39.921875 29.90625 32.546875 18.59375 20.5625 
z
" id="URW_Palladio_L_Roman-50"/>
      </defs>
      <use transform="scale(0.996264)" xlink:href="#Pazo_Math_Italic-113"/>
      <use transform="translate(77.387455 0)scale(1.038107)" xlink:href="#CMR10-61"/>
      <use transform="translate(188.248384 0)scale(0.996264)" xlink:href="#Pazo_Math_Italic-112"/>
      <use transform="translate(260.775312 0)scale(0.996264)" xlink:href="#URW_Palladio_L_Roman-47"/>
      <use transform="translate(322.394217 0)scale(0.996264)" xlink:href="#URW_Palladio_L_Roman-50"/>
     </g>
    </g>
    <g id="patch_7">
     <path d="M 301.79952 95.150767 
L 315.79952 95.150767 
L 315.79952 85.350767 
L 301.79952 85.350767 
z
" style="fill:#343837;"/>
    </g>
    <g id="text_4">
     <!-- $\theta=\pi/4$ -->
     <g transform="translate(326.99952 95.150767)scale(0.14 -0.14)">
      <use transform="scale(0.996264)" xlink:href="#Pazo_Math_Italic-113"/>
      <use transform="translate(77.387455 0)scale(1.038107)" xlink:href="#CMR10-61"/>
      <use transform="translate(188.248384 0)scale(0.996264)" xlink:href="#Pazo_Math_Italic-112"/>
      <use transform="translate(260.775312 0)scale(0.996264)" xlink:href="#URW_Palladio_L_Roman-47"/>
      <use transform="translate(322.394217 0)scale(0.996264)" xlink:href="#URW_Palladio_L_Roman-52"/>
     </g>
    </g>
    <g id="patch_8">
     <path d="M 301.79952 116.721752 
L 315.79952 116.721752 
L 315.79952 106.921752 
L 301.79952 106.921752 
z
" style="fill:#6e3b87;"/>
    </g>
    <g id="text_5">
     <!-- $\theta=-\pi/4$ -->
     <g transform="translate(326.99952 116.721752)scale(0.14 -0.14)">
      <defs>
       <path d="M 65.90625 23 
C 67.59375 23 69.40625 23 69.40625 25 
C 69.40625 27 67.59375 27 65.90625 27 
L 11.796875 27 
C 10.09375 27 8.296875 27 8.296875 25 
C 8.296875 23 10.09375 23 11.796875 23 
z
" id="CMSY10-0"/>
      </defs>
      <use transform="scale(0.996264)" xlink:href="#Pazo_Math_Italic-113"/>
      <use transform="translate(77.387455 0)scale(1.038107)" xlink:href="#CMR10-61"/>
      <use transform="translate(188.248384 0)scale(1.038107)" xlink:href="#CMSY10-0"/>
      <use transform="translate(271.43538 0)scale(0.996264)" xlink:href="#Pazo_Math_Italic-112"/>
      <use transform="translate(343.962308 0)scale(0.996264)" xlink:href="#URW_Palladio_L_Roman-47"/>
      <use transform="translate(405.581213 0)scale(0.996264)" xlink:href="#URW_Palladio_L_Roman-52"/>
     </g>
    </g>
    <g id="patch_9">
     <path d="M 301.79952 138.292737 
L 315.79952 138.292737 
L 315.79952 128.492737 
L 301.79952 128.492737 
z
" style="fill:#007d4d;"/>
    </g>
    <g id="text_6">
     <!-- $\theta=\pi/6$ -->
     <g transform="translate(326.99952 138.292737)scale(0.14 -0.14)">
      <defs>
       <path d="M 41.59375 67.34375 
L 37.90625 69.046875 
C 28.296875 65.84375 24.203125 63.84375 19.09375 59.4375 
C 8.796875 50.71875 3.203125 38.5 3.203125 24.765625 
C 3.203125 8.21875 11.203125 -2 24.09375 -2 
C 37.09375 -2 46.796875 8.3125 46.796875 21.953125 
C 46.796875 33.484375 39.90625 41 29.296875 41 
C 24.296875 41 21.296875 39.6875 15.40625 34.984375 
C 14.296875 34.078125 14.203125 33.984375 13.09375 33.1875 
C 15.203125 51.3125 23.59375 61.140625 41.59375 66.546875 
z
M 25.5 34.984375 
C 33.09375 34.984375 38.203125 28.375 38.203125 18.453125 
C 38.203125 8.015625 33.09375 1.296875 25.40625 1.296875 
C 16.90625 1.296875 12.296875 8.609375 12.296875 22.0625 
C 12.296875 25.5625 12.703125 27.46875 13.796875 29.171875 
C 16 32.578125 20.703125 34.984375 25.5 34.984375 
z
" id="URW_Palladio_L_Roman-54"/>
      </defs>
      <use transform="scale(0.996264)" xlink:href="#Pazo_Math_Italic-113"/>
      <use transform="translate(77.387455 0)scale(1.038107)" xlink:href="#CMR10-61"/>
      <use transform="translate(188.248384 0)scale(0.996264)" xlink:href="#Pazo_Math_Italic-112"/>
      <use transform="translate(260.775312 0)scale(0.996264)" xlink:href="#URW_Palladio_L_Roman-47"/>
      <use transform="translate(322.394217 0)scale(0.996264)" xlink:href="#URW_Palladio_L_Roman-54"/>
     </g>
    </g>
   </g>
   <g id="patch_10">
    <path clip-path="url(#pc684d3dd27)" d="M 269.582162 148.19976 
C 269.582162 116.019492 256.784965 85.124326 234.03008 62.36944 
C 211.275194 39.614555 180.380028 26.817358 148.19976 26.817358 
C 116.019492 26.817358 85.124326 39.614555 62.36944 62.36944 
C 39.614555 85.124326 26.817358 116.019492 26.817358 148.19976 
L 148.19976 148.19976 
L 269.582162 148.19976 
z
" style="fill:#0271ae;"/>
   </g>
   <g id="patch_11">
    <path clip-path="url(#pc684d3dd27)" d="M 265.495213 148.19976 
C 265.495213 125.003688 258.614412 102.320727 245.727364 83.033898 
C 232.840317 63.747069 214.517163 48.709645 193.086786 39.832892 
C 171.65641 30.95614 148.066919 28.632778 125.316552 33.158107 
C 102.566186 37.683436 81.66145 48.85725 65.25935 65.25935 
L 148.19976 148.19976 
L 265.495213 148.19976 
z
" style="fill:#dc2830;"/>
   </g>
   <g id="patch_12">
    <path clip-path="url(#pc684d3dd27)" d="M 261.408263 148.19976 
C 261.408263 118.186513 249.47283 89.37183 228.25026 68.14926 
C 207.02769 46.92669 178.213007 34.991257 148.19976 34.991257 
L 148.19976 148.19976 
L 261.408263 148.19976 
z
" style="fill:#ffc438;"/>
   </g>
   <g id="patch_13">
    <path clip-path="url(#pc684d3dd27)" d="M 257.321313 148.19976 
C 257.321313 133.870049 254.498673 119.679676 249.01493 106.440749 
C 243.531187 93.201823 235.492986 81.171806 225.36035 71.03917 
L 148.19976 148.19976 
L 257.321313 148.19976 
z
" style="fill:#343837;"/>
   </g>
   <g id="patch_14">
    <path clip-path="url(#pc684d3dd27)" d="M 222.470441 222.470441 
C 232.223577 212.717304 239.960721 201.13785 245.239081 188.394763 
C 250.51744 175.651676 253.234364 161.992778 253.234364 148.19976 
L 148.19976 148.19976 
L 222.470441 222.470441 
z
" style="fill:#6e3b87;"/>
   </g>
   <g id="patch_15">
    <path clip-path="url(#pc684d3dd27)" d="M 249.147414 148.19976 
C 249.147414 139.377856 247.990983 130.59389 245.707706 122.072585 
C 243.424429 113.551279 240.033945 105.365926 235.622993 97.725933 
L 148.19976 148.19976 
L 249.147414 148.19976 
z
" style="fill:#007d4d;"/>
   </g>
   <g id="patch_16">
    <path clip-path="url(#pc684d3dd27)" d="M 148.19976 270.808247 
C 180.715911 270.808247 211.904662 257.889443 234.897053 234.897053 
C 257.889443 211.904662 270.808247 180.715911 270.808247 148.19976 
C 270.808247 115.683609 257.889443 84.494858 234.897053 61.502467 
C 211.904662 38.510077 180.715911 25.591273 148.19976 25.591273 
C 115.683609 25.591273 84.494858 38.510077 61.502467 61.502467 
C 38.510077 84.494858 25.591273 115.683609 25.591273 148.19976 
C 25.591273 180.715911 38.510077 211.904662 61.502467 234.897053 
C 84.494858 257.889443 115.683609 270.808247 148.19976 270.808247 
z
" style="fill:none;stroke:#000000;stroke-linejoin:miter;stroke-width:5;"/>
   </g>
  </g>
 </g>
 <defs>
  <clipPath id="pc684d3dd27">
   <rect height="281.99952" width="281.99952" x="7.2" y="7.2"/>
  </clipPath>
 </defs>
</svg>
