<?xml version="1.0" encoding="utf-8" standalone="no"?>
<!DOCTYPE svg PUBLIC "-//W3C//DTD SVG 1.1//EN"
  "http://www.w3.org/Graphics/SVG/1.1/DTD/svg11.dtd">
<svg height="200.39952pt" version="1.1" viewBox="0 0 584.39952 200.39952" width="584.39952pt" xmlns="http://www.w3.org/2000/svg" xmlns:xlink="http://www.w3.org/1999/xlink">
 <metadata>
  <rdf:RDF xmlns:cc="http://creativecommons.org/ns#" xmlns:dc="http://purl.org/dc/elements/1.1/" xmlns:rdf="http://www.w3.org/1999/02/22-rdf-syntax-ns#">
   <cc:Work>
    <dc:type rdf:resource="http://purl.org/dc/dcmitype/StillImage"/>
    <dc:date>2021-08-20T10:05:55.347016</dc:date>
    <dc:format>image/svg+xml</dc:format>
    <dc:creator>
     <cc:Agent>
      <dc:title>Matplotlib v3.4.2, https://matplotlib.org/</dc:title>
     </cc:Agent>
    </dc:creator>
   </cc:Work>
  </rdf:RDF>
 </metadata>
 <defs>
  <style type="text/css">*{stroke-linecap:butt;stroke-linejoin:round;}</style>
 </defs>
 <g id="figure_1">
  <g id="patch_1">
   <path d="M 0 200.39952 
L 584.39952 200.39952 
L 584.39952 0 
L 0 0 
z
" style="fill:none;"/>
  </g>
  <g id="axes_1">
   <g id="patch_2">
    <path d="M 67.531623 147.861659 
L 577.19952 147.861659 
L 577.19952 7.2 
L 67.531623 7.2 
z
" style="fill:none;"/>
   </g>
   <g id="matplotlib.axis_1">
    <g id="xtick_1">
     <g id="line2d_1">
      <path clip-path="url(#peaf215872f)" d="M 67.531623 147.861659 
L 67.531623 7.2 
" style="fill:none;stroke:#000000;stroke-linejoin:miter;stroke-opacity:0.2;stroke-width:0.5;"/>
     </g>
     <g id="line2d_2">
      <defs>
       <path d="M 0 0 
L 0 3.5 
" id="m9a4888f5af" style="stroke:#000000;stroke-opacity:0.2;stroke-width:0.8;"/>
      </defs>
      <g>
       <use style="fill-opacity:0.2;stroke:#000000;stroke-opacity:0.2;stroke-width:0.8;" x="67.531623" xlink:href="#m9a4888f5af" y="147.861659"/>
      </g>
     </g>
     <g id="text_1">
      <!-- $\mathdefault{0}$ -->
      <g transform="translate(64.044699 173.341188)scale(0.14 -0.14)">
       <defs>
        <path d="M 1683 4416 
C 691 4416 186 3628 186 2076 
C 186 1326 320 679 544 365 
C 768 51 1126 -128 1523 -128 
C 2490 -128 2976 704 2976 2345 
C 2976 3749 2560 4416 1683 4416 
z
M 1568 4191 
C 2189 4191 2438 3563 2438 2025 
C 2438 660 2195 96 1606 96 
C 986 96 723 743 723 2307 
C 723 3660 960 4191 1568 4191 
z
" id="URWPalladioL-Roma-30" transform="scale(0.015625)"/>
       </defs>
       <use transform="scale(0.996264)" xlink:href="#URWPalladioL-Roma-30"/>
      </g>
     </g>
    </g>
    <g id="xtick_2">
     <g id="line2d_3">
      <path clip-path="url(#peaf215872f)" d="M 169.505992 147.861659 
L 169.505992 7.2 
" style="fill:none;stroke:#000000;stroke-linejoin:miter;stroke-opacity:0.2;stroke-width:0.5;"/>
     </g>
     <g id="line2d_4">
      <g>
       <use style="fill-opacity:0.2;stroke:#000000;stroke-opacity:0.2;stroke-width:0.8;" x="169.505992" xlink:href="#m9a4888f5af" y="147.861659"/>
      </g>
     </g>
     <g id="text_2">
      <!-- $\mathdefault{1}$ -->
      <g transform="translate(166.019068 173.341188)scale(0.14 -0.14)">
       <defs>
        <path d="M 429 3571 
L 493 3571 
L 1318 3942 
C 1325 3949 1331 3949 1338 3949 
C 1376 3949 1389 3891 1389 3737 
L 1389 633 
C 1389 300 1318 230 973 211 
L 614 192 
L 614 0 
C 1600 0 1600 0 1670 0 
C 1754 0 1894 0 2112 -7 
C 2189 6 2413 6 2675 0 
L 2675 192 
L 2342 211 
C 1990 229 1926 299 1926 628 
L 1926 4383 
L 1837 4416 
C 1421 4199 966 4009 384 3807 
L 429 3571 
z
" id="URWPalladioL-Roma-31" transform="scale(0.015625)"/>
       </defs>
       <use transform="scale(0.996264)" xlink:href="#URWPalladioL-Roma-31"/>
      </g>
     </g>
    </g>
    <g id="xtick_3">
     <g id="line2d_5">
      <path clip-path="url(#peaf215872f)" d="M 271.480361 147.861659 
L 271.480361 7.2 
" style="fill:none;stroke:#000000;stroke-linejoin:miter;stroke-opacity:0.2;stroke-width:0.5;"/>
     </g>
     <g id="line2d_6">
      <g>
       <use style="fill-opacity:0.2;stroke:#000000;stroke-opacity:0.2;stroke-width:0.8;" x="271.480361" xlink:href="#m9a4888f5af" y="147.861659"/>
      </g>
     </g>
     <g id="text_3">
      <!-- $\mathdefault{2}$ -->
      <g transform="translate(267.993437 173.341188)scale(0.14 -0.14)">
       <defs>
        <path d="M 102 166 
L 102 0 
C 1299 0 1299 0 1530 0 
C 1760 19 1760 19 2995 0 
C 2982 134 2982 198 2982 287 
C 2982 370 2982 434 2995 574 
C 2259 542 1965 536 781 510 
L 1946 1741 
C 2566 2398 2758 2749 2758 3228 
C 2758 3961 2259 4416 1446 4416 
C 986 4416 672 4287 358 3967 
L 250 3100 
L 435 3100 
L 518 3394 
C 621 3763 851 3923 1280 3923 
C 1830 3923 2182 3578 2182 3036 
C 2182 2558 1914 2086 1190 1320 
L 102 166 
z
" id="URWPalladioL-Roma-32" transform="scale(0.015625)"/>
       </defs>
       <use transform="scale(0.996264)" xlink:href="#URWPalladioL-Roma-32"/>
      </g>
     </g>
    </g>
    <g id="xtick_4">
     <g id="line2d_7">
      <path clip-path="url(#peaf215872f)" d="M 373.45473 147.861659 
L 373.45473 7.2 
" style="fill:none;stroke:#000000;stroke-linejoin:miter;stroke-opacity:0.2;stroke-width:0.5;"/>
     </g>
     <g id="line2d_8">
      <g>
       <use style="fill-opacity:0.2;stroke:#000000;stroke-opacity:0.2;stroke-width:0.8;" x="373.45473" xlink:href="#m9a4888f5af" y="147.861659"/>
      </g>
     </g>
     <g id="text_4">
      <!-- $\mathdefault{3}$ -->
      <g transform="translate(369.967806 173.341188)scale(0.14 -0.14)">
       <defs>
        <path d="M 275 3196 
L 474 3196 
L 589 3553 
C 659 3770 1062 3987 1395 3987 
C 1811 3987 2150 3649 2150 3247 
C 2150 2769 1773 2368 1318 2368 
C 1267 2368 1197 2374 1114 2380 
L 1018 2387 
L 941 2047 
L 986 2008 
C 1229 2118 1350 2150 1523 2150 
C 2054 2150 2362 1808 2362 1222 
C 2362 565 1971 134 1376 134 
C 1082 134 819 231 627 411 
C 474 553 390 701 269 1048 
L 96 984 
C 230 591 282 359 320 38 
C 659 -77 941 -128 1178 -128 
C 1690 -128 2278 160 2630 591 
C 2848 855 2957 1139 2957 1441 
C 2957 1750 2829 2021 2598 2182 
C 2438 2297 2291 2348 1971 2406 
C 2483 2801 2675 3094 2675 3470 
C 2675 4038 2202 4416 1491 4416 
C 1056 4416 768 4294 461 3987 
L 275 3196 
z
" id="URWPalladioL-Roma-33" transform="scale(0.015625)"/>
       </defs>
       <use transform="scale(0.996264)" xlink:href="#URWPalladioL-Roma-33"/>
      </g>
     </g>
    </g>
    <g id="xtick_5">
     <g id="line2d_9">
      <path clip-path="url(#peaf215872f)" d="M 475.4291 147.861659 
L 475.4291 7.2 
" style="fill:none;stroke:#000000;stroke-linejoin:miter;stroke-opacity:0.2;stroke-width:0.5;"/>
     </g>
     <g id="line2d_10">
      <g>
       <use style="fill-opacity:0.2;stroke:#000000;stroke-opacity:0.2;stroke-width:0.8;" x="475.4291" xlink:href="#m9a4888f5af" y="147.861659"/>
      </g>
     </g>
     <g id="text_5">
      <!-- $\mathdefault{4}$ -->
      <g transform="translate(471.942175 173.341188)scale(0.14 -0.14)">
       <defs>
        <path d="M 1792 1152 
L 1792 684 
C 1792 310 1722 223 1408 210 
L 1011 192 
L 1011 0 
C 1862 0 1862 0 2016 0 
C 2170 19 2170 19 3021 0 
L 3021 192 
L 2714 210 
C 2400 229 2330 310 2330 684 
L 2330 1152 
C 2707 1152 2842 1145 3021 1127 
L 3021 1580 
C 2720 1555 2598 1555 2502 1561 
L 2483 1561 
L 2330 1561 
L 2330 2445 
C 2330 3576 2342 4122 2374 4383 
L 2298 4416 
L 1824 4243 
L 13 1299 
L 83 1152 
L 1792 1152 
z
M 1792 1561 
L 416 1561 
L 1792 3798 
L 1792 1561 
z
" id="URWPalladioL-Roma-34" transform="scale(0.015625)"/>
       </defs>
       <use transform="scale(0.996264)" xlink:href="#URWPalladioL-Roma-34"/>
      </g>
     </g>
    </g>
    <g id="text_6">
     <!-- Time [seconds] -->
     <g transform="translate(282.69272 189.828236)scale(0.12 -0.12)">
      <defs>
       <path d="M 1632 4096 
C 1651 3880 1658 3734 1658 3462 
L 1658 781 
C 1658 280 1626 230 1331 211 
L 1024 192 
L 1024 0 
C 1402 -7 1626 0 1958 0 
C 2291 19 2522 12 2899 0 
L 2899 192 
L 2592 211 
C 2298 230 2266 280 2266 781 
L 2266 3462 
C 2266 3747 2272 3887 2291 4096 
L 3283 4096 
C 3462 4096 3533 4039 3539 3887 
L 3565 3386 
L 3763 3386 
C 3763 3801 3776 4051 3808 4416 
C 3347 4409 3136 4409 2957 4403 
C 2707 4390 2522 4390 2426 4390 
L 1414 4390 
C 1350 4390 1005 4396 550 4403 
L 115 4416 
C 147 4051 160 3801 160 3385 
L 358 3385 
L 384 3891 
C 390 4038 461 4096 640 4096 
L 1632 4096 
z
" id="URWPalladioL-Roma-54" transform="scale(0.015625)"/>
       <path d="M 1203 2982 
L 1146 3008 
C 819 2873 486 2784 147 2746 
L 147 2568 
L 384 2568 
C 640 2568 666 2523 666 2103 
L 666 669 
C 666 268 646 223 429 211 
L 134 192 
L 134 0 
C 774 0 774 0 934 0 
C 1094 19 1094 19 1734 0 
L 1734 192 
L 1440 211 
C 1222 224 1203 268 1203 671 
L 1203 2982 
z
M 909 4416 
C 717 4416 550 4249 550 4057 
C 550 3871 717 3705 902 3705 
C 1088 3705 1261 3871 1261 4057 
C 1261 4236 1088 4416 909 4416 
z
" id="URWPalladioL-Roma-69" transform="scale(0.015625)"/>
       <path d="M 115 2579 
L 352 2579 
C 608 2579 634 2534 634 2112 
L 634 672 
C 634 268 614 224 397 211 
L 102 192 
L 102 0 
C 717 0 736 0 915 0 
C 1094 19 1261 12 1677 0 
L 1677 192 
L 1408 211 
C 1190 223 1171 268 1171 670 
L 1171 2023 
C 1171 2311 1594 2624 1978 2624 
C 2323 2624 2560 2298 2560 1813 
L 2560 670 
C 2560 268 2541 223 2323 211 
L 2029 192 
L 2029 0 
C 2669 0 2669 0 2829 0 
C 2989 19 2989 19 3629 0 
L 3629 192 
L 3334 211 
C 3117 223 3098 268 3098 670 
L 3098 2023 
C 3098 2311 3520 2624 3904 2624 
C 4250 2624 4486 2298 4486 1813 
L 4486 0 
C 4877 0 4883 0 4992 0 
C 5075 19 5075 19 5562 0 
L 5562 192 
L 5261 211 
C 5043 223 5024 268 5024 670 
L 5024 1985 
C 5024 2617 4653 3014 4064 3014 
C 3840 3014 3654 2956 3539 2854 
L 3053 2419 
C 2848 2841 2586 3014 2144 3014 
C 1907 3014 1728 2956 1613 2854 
L 1171 2445 
L 1171 2988 
L 1114 3008 
C 787 2873 454 2783 115 2745 
L 115 2579 
z
" id="URWPalladioL-Roma-6d" transform="scale(0.015625)"/>
       <path d="M 2797 447 
L 2714 511 
C 2304 268 2157 211 1882 211 
C 1466 211 1120 396 941 710 
C 819 921 774 1100 762 1472 
L 1696 1472 
C 2138 1472 2413 1491 2854 1561 
C 2861 1651 2867 1708 2867 1786 
C 2867 2526 2394 3008 1677 3008 
C 1440 3008 1165 2924 902 2771 
C 378 2468 166 2069 166 1401 
C 166 998 262 652 435 409 
C 691 70 1120 -128 1600 -128 
C 1837 -128 2074 -77 2336 38 
C 2509 108 2643 192 2669 230 
L 2797 447 
z
M 2298 1708 
C 1965 1696 1811 1689 1581 1689 
C 1286 1689 1120 1696 774 1728 
C 774 2030 800 2172 883 2339 
C 1018 2623 1293 2796 1600 2796 
C 1811 2796 1978 2713 2093 2539 
C 2234 2326 2278 2140 2298 1708 
z
" id="URWPalladioL-Roma-65" transform="scale(0.015625)"/>
       <path d="M 563 -1178 
C 1018 -1166 1030 -1166 1184 -1166 
C 1338 -1166 1370 -1166 1805 -1178 
L 1843 -1140 
L 1843 -974 
L 1818 -942 
L 1574 -942 
C 1402 -942 1261 -903 1184 -839 
C 1126 -782 1107 -692 1107 -481 
C 1107 -474 1107 -340 1101 -148 
L 1101 89 
L 1101 3379 
L 1101 3615 
C 1107 3795 1107 3935 1107 3942 
C 1107 4153 1126 4249 1184 4307 
C 1261 4371 1402 4409 1574 4409 
L 1818 4409 
L 1843 4441 
L 1843 4608 
L 1805 4646 
C 1357 4633 1338 4633 1184 4633 
C 1037 4633 1005 4633 563 4646 
L 506 4563 
C 544 4403 557 4191 557 3699 
C 557 3603 557 3526 563 3462 
L 563 3379 
L 563 89 
L 563 6 
C 557 -97 557 -103 557 -212 
L 557 -282 
C 557 -718 544 -897 506 -1095 
L 563 -1178 
z
" id="URWPalladioL-Roma-5b" transform="scale(0.015625)"/>
       <path d="M 262 917 
C 262 474 243 282 192 25 
C 525 -84 774 -128 1069 -128 
C 1907 -128 2502 320 2502 949 
C 2502 1148 2445 1295 2323 1423 
C 2157 1584 1946 1661 1382 1770 
C 858 1872 685 2001 685 2296 
C 685 2617 909 2796 1299 2796 
C 1728 2796 2054 2572 2054 2270 
L 2054 2123 
L 2234 2123 
C 2240 2495 2246 2649 2266 2847 
C 1926 2963 1696 3008 1434 3008 
C 691 3008 237 2655 237 2078 
C 237 1770 378 1552 672 1417 
C 845 1340 1184 1237 1619 1141 
C 1907 1077 2029 942 2029 698 
C 2029 352 1709 108 1254 108 
C 787 108 454 333 454 654 
L 454 917 
L 262 917 
z
" id="URWPalladioL-Roma-73" transform="scale(0.015625)"/>
       <path d="M 2554 1995 
C 2554 2290 2586 2553 2643 2783 
C 2387 2937 2163 3008 1901 3008 
C 1594 3008 1235 2886 851 2643 
C 403 2360 166 1911 166 1347 
C 166 480 774 -128 1632 -128 
C 1965 -128 2445 -7 2509 89 
L 2643 294 
L 2579 390 
C 2342 262 2138 204 1907 204 
C 1197 204 730 756 730 1603 
C 730 2290 1050 2675 1626 2675 
C 1907 2675 2214 2547 2330 2386 
L 2374 1995 
L 2554 1995 
z
" id="URWPalladioL-Roma-63" transform="scale(0.015625)"/>
       <path d="M 1786 3008 
C 851 3008 205 2347 205 1391 
C 205 487 774 -128 1600 -128 
C 2586 -128 3290 557 3290 1520 
C 3290 2386 2662 3008 1786 3008 
z
M 1670 2796 
C 2259 2796 2694 2155 2694 1282 
C 2694 545 2368 83 1850 83 
C 1222 83 800 699 800 1609 
C 800 2379 1107 2796 1670 2796 
z
" id="URWPalladioL-Roma-6f" transform="scale(0.015625)"/>
       <path d="M 2624 0 
C 3014 0 3021 0 3130 0 
C 3219 19 3219 19 3661 0 
L 3661 192 
L 3398 211 
C 3181 223 3162 262 3162 670 
L 3162 1902 
C 3162 2649 2810 3014 2093 3014 
C 1856 3014 1722 2969 1587 2854 
L 1101 2432 
L 1101 2988 
L 1043 3008 
C 717 2873 384 2784 45 2746 
L 45 2568 
L 282 2568 
C 538 2568 563 2523 563 2103 
L 563 669 
C 563 268 544 223 326 211 
L 38 192 
L 38 0 
C 474 -7 646 0 832 0 
C 1018 19 1190 12 1626 0 
L 1626 192 
L 1338 211 
C 1120 223 1101 268 1101 670 
L 1101 2023 
C 1101 2311 1523 2624 1914 2624 
C 2342 2624 2624 2304 2624 1813 
L 2624 0 
z
" id="URWPalladioL-Roma-6e" transform="scale(0.015625)"/>
       <path d="M 2637 2803 
C 2278 2956 2099 3008 1875 3008 
C 1702 3008 1549 2969 1389 2886 
L 826 2592 
C 461 2400 224 1934 224 1392 
C 224 881 397 460 710 204 
C 928 19 1229 -64 1645 -64 
C 1773 -64 1920 -39 1952 -13 
L 2662 581 
L 2630 0 
C 2944 -7 3046 0 3123 0 
C 3174 0 3264 0 3398 -7 
C 3443 6 3571 6 3706 0 
L 3706 192 
L 3411 211 
C 3194 224 3174 268 3174 672 
L 3174 4614 
L 3117 4665 
C 2835 4557 2624 4505 2118 4429 
L 2118 4249 
L 2477 4249 
C 2592 4249 2637 4179 2637 3987 
L 2637 2803 
z
M 2637 1424 
C 2637 1009 2624 945 2541 798 
C 2362 498 2048 300 1747 300 
C 1184 300 781 843 781 1602 
C 781 2298 1126 2707 1702 2707 
C 1946 2707 2202 2624 2426 2470 
C 2560 2381 2637 2298 2637 2247 
L 2637 1424 
z
" id="URWPalladioL-Roma-64" transform="scale(0.015625)"/>
       <path d="M 1568 4646 
C 1114 4633 1094 4633 947 4633 
C 794 4633 762 4633 326 4646 
L 288 4608 
L 288 4441 
L 314 4409 
L 557 4409 
C 730 4409 864 4371 941 4307 
C 1005 4249 1024 4159 1024 3942 
C 1024 3923 1024 3795 1030 3615 
L 1030 3379 
L 1030 89 
L 1030 -148 
C 1024 -334 1024 -449 1024 -468 
C 1024 -686 1005 -782 941 -839 
C 864 -903 730 -942 557 -942 
L 314 -942 
L 288 -974 
L 288 -1140 
L 326 -1178 
C 774 -1166 787 -1166 947 -1166 
C 1094 -1166 1126 -1166 1568 -1178 
L 1626 -1095 
C 1587 -942 1581 -743 1574 -250 
C 1574 -161 1574 -78 1568 6 
L 1568 89 
L 1568 3379 
L 1568 3462 
C 1574 3532 1574 3615 1574 3705 
C 1574 4198 1587 4409 1626 4563 
L 1568 4646 
z
" id="URWPalladioL-Roma-5d" transform="scale(0.015625)"/>
      </defs>
      <use transform="scale(0.996264)" xlink:href="#URWPalladioL-Roma-54"/>
      <use transform="translate(55.591109 0)scale(0.996264)" xlink:href="#URWPalladioL-Roma-69"/>
      <use transform="translate(84.581471 0)scale(0.996264)" xlink:href="#URWPalladioL-Roma-6d"/>
      <use transform="translate(172.551145 0)scale(0.996264)" xlink:href="#URWPalladioL-Roma-65"/>
      <use transform="translate(245.17804 0)scale(0.996264)" xlink:href="#URWPalladioL-Roma-5b"/>
      <use transform="translate(278.35327 0)scale(0.996264)" xlink:href="#URWPalladioL-Roma-73"/>
      <use transform="translate(320.594736 0)scale(0.996264)" xlink:href="#URWPalladioL-Roma-65"/>
      <use transform="translate(368.315031 0)scale(0.996264)" xlink:href="#URWPalladioL-Roma-63"/>
      <use transform="translate(412.5486 0)scale(0.996264)" xlink:href="#URWPalladioL-Roma-6f"/>
      <use transform="translate(466.94418 0)scale(0.996264)" xlink:href="#URWPalladioL-Roma-6e"/>
      <use transform="translate(524.926241 0)scale(0.996264)" xlink:href="#URWPalladioL-Roma-64"/>
      <use transform="translate(585.797872 0)scale(0.996264)" xlink:href="#URWPalladioL-Roma-73"/>
      <use transform="translate(628.039338 0)scale(0.996264)" xlink:href="#URWPalladioL-Roma-5d"/>
     </g>
    </g>
   </g>
   <g id="matplotlib.axis_2">
    <g id="ytick_1">
     <g id="line2d_11">
      <path clip-path="url(#peaf215872f)" d="M 67.531623 142.874248 
L 577.19952 142.874248 
" style="fill:none;stroke:#000000;stroke-linejoin:miter;stroke-opacity:0.2;stroke-width:0.5;"/>
     </g>
     <g id="line2d_12">
      <defs>
       <path d="M 0 0 
L -3.5 0 
" id="mc42887e74e" style="stroke:#000000;stroke-opacity:0.2;stroke-width:0.8;"/>
      </defs>
      <g>
       <use style="fill-opacity:0.2;stroke:#000000;stroke-opacity:0.2;stroke-width:0.8;" x="67.531623" xlink:href="#mc42887e74e" y="142.874248"/>
      </g>
     </g>
     <g id="text_7">
      <!-- $\mathdefault{−1.0}$ -->
      <g transform="translate(23.12516 147.864013)scale(0.14 -0.14)">
       <defs>
        <path d="M 4218 1472 
C 4326 1472 4442 1472 4442 1600 
C 4442 1728 4326 1728 4218 1728 
L 755 1728 
C 646 1728 531 1728 531 1600 
C 531 1472 646 1472 755 1472 
L 4218 1472 
z
" id="CMSY10-0" transform="scale(0.015625)"/>
        <path d="M 794 678 
C 602 678 429 499 429 307 
C 429 115 602 -64 787 -64 
C 992 -64 1171 108 1171 307 
C 1171 499 992 678 794 678 
z
" id="URWPalladioL-Roma-2e" transform="scale(0.015625)"/>
       </defs>
       <use transform="scale(1.038107)" xlink:href="#CMSY10-0"/>
       <use transform="translate(81.941696 0)scale(0.996264)" xlink:href="#URWPalladioL-Roma-31"/>
       <use transform="translate(131.754897 0)scale(0.996264)" xlink:href="#URWPalladioL-Roma-2e"/>
       <use transform="translate(156.661497 0)scale(0.996264)" xlink:href="#URWPalladioL-Roma-30"/>
      </g>
     </g>
    </g>
    <g id="ytick_2">
     <g id="line2d_13">
      <path clip-path="url(#peaf215872f)" d="M 67.531623 110.554114 
L 577.19952 110.554114 
" style="fill:none;stroke:#000000;stroke-linejoin:miter;stroke-opacity:0.2;stroke-width:0.5;"/>
     </g>
     <g id="line2d_14">
      <g>
       <use style="fill-opacity:0.2;stroke:#000000;stroke-opacity:0.2;stroke-width:0.8;" x="67.531623" xlink:href="#mc42887e74e" y="110.554114"/>
      </g>
     </g>
     <g id="text_8">
      <!-- $\mathdefault{−0.5}$ -->
      <g transform="translate(23.12516 115.543879)scale(0.14 -0.14)">
       <defs>
        <path d="M 813 3891 
C 1638 3865 1997 3859 2765 3859 
L 2797 3891 
C 2784 4006 2784 4057 2784 4140 
C 2784 4230 2784 4281 2797 4396 
L 2765 4428 
C 2285 4403 1997 4396 1651 4396 
C 1299 4396 1018 4403 538 4428 
L 506 4396 
C 512 4006 518 3724 518 3520 
C 518 2976 499 2360 480 2076 
L 608 2038 
C 909 2341 1082 2432 1395 2432 
C 2010 2432 2394 1992 2394 1295 
C 2394 579 1984 160 1286 160 
C 941 160 621 276 531 443 
L 237 973 
L 83 882 
C 230 514 307 308 397 25 
C 576 -71 832 -128 1107 -128 
C 1536 -128 1990 57 2342 366 
C 2733 715 2938 1153 2938 1631 
C 2938 2360 2419 2873 1690 2873 
C 1382 2873 1152 2790 755 2553 
L 813 3891 
z
" id="URWPalladioL-Roma-35" transform="scale(0.015625)"/>
       </defs>
       <use transform="scale(1.038107)" xlink:href="#CMSY10-0"/>
       <use transform="translate(81.941696 0)scale(0.996264)" xlink:href="#URWPalladioL-Roma-30"/>
       <use transform="translate(131.754897 0)scale(0.996264)" xlink:href="#URWPalladioL-Roma-2e"/>
       <use transform="translate(156.661497 0)scale(0.996264)" xlink:href="#URWPalladioL-Roma-35"/>
      </g>
     </g>
    </g>
    <g id="ytick_3">
     <g id="line2d_15">
      <path clip-path="url(#peaf215872f)" d="M 67.531623 78.23398 
L 577.19952 78.23398 
" style="fill:none;stroke:#000000;stroke-linejoin:miter;stroke-opacity:0.2;stroke-width:0.5;"/>
     </g>
     <g id="line2d_16">
      <g>
       <use style="fill-opacity:0.2;stroke:#000000;stroke-opacity:0.2;stroke-width:0.8;" x="67.531623" xlink:href="#mc42887e74e" y="78.23398"/>
      </g>
     </g>
     <g id="text_9">
      <!-- $\mathdefault{0.0}$ -->
      <g transform="translate(34.597002 83.223745)scale(0.14 -0.14)">
       <use transform="scale(0.996264)" xlink:href="#URWPalladioL-Roma-30"/>
       <use transform="translate(49.8132 0)scale(0.996264)" xlink:href="#URWPalladioL-Roma-2e"/>
       <use transform="translate(74.719801 0)scale(0.996264)" xlink:href="#URWPalladioL-Roma-30"/>
      </g>
     </g>
    </g>
    <g id="ytick_4">
     <g id="line2d_17">
      <path clip-path="url(#peaf215872f)" d="M 67.531623 45.913846 
L 577.19952 45.913846 
" style="fill:none;stroke:#000000;stroke-linejoin:miter;stroke-opacity:0.2;stroke-width:0.5;"/>
     </g>
     <g id="line2d_18">
      <g>
       <use style="fill-opacity:0.2;stroke:#000000;stroke-opacity:0.2;stroke-width:0.8;" x="67.531623" xlink:href="#mc42887e74e" y="45.913846"/>
      </g>
     </g>
     <g id="text_10">
      <!-- $\mathdefault{0.5}$ -->
      <g transform="translate(34.597002 50.90361)scale(0.14 -0.14)">
       <use transform="scale(0.996264)" xlink:href="#URWPalladioL-Roma-30"/>
       <use transform="translate(49.8132 0)scale(0.996264)" xlink:href="#URWPalladioL-Roma-2e"/>
       <use transform="translate(74.719801 0)scale(0.996264)" xlink:href="#URWPalladioL-Roma-35"/>
      </g>
     </g>
    </g>
    <g id="ytick_5">
     <g id="line2d_19">
      <path clip-path="url(#peaf215872f)" d="M 67.531623 13.593712 
L 577.19952 13.593712 
" style="fill:none;stroke:#000000;stroke-linejoin:miter;stroke-opacity:0.2;stroke-width:0.5;"/>
     </g>
     <g id="line2d_20">
      <g>
       <use style="fill-opacity:0.2;stroke:#000000;stroke-opacity:0.2;stroke-width:0.8;" x="67.531623" xlink:href="#mc42887e74e" y="13.593712"/>
      </g>
     </g>
     <g id="text_11">
      <!-- $\mathdefault{1.0}$ -->
      <g transform="translate(34.597002 18.583476)scale(0.14 -0.14)">
       <use transform="scale(0.996264)" xlink:href="#URWPalladioL-Roma-31"/>
       <use transform="translate(49.8132 0)scale(0.996264)" xlink:href="#URWPalladioL-Roma-2e"/>
       <use transform="translate(74.719801 0)scale(0.996264)" xlink:href="#URWPalladioL-Roma-30"/>
      </g>
     </g>
    </g>
    <g id="text_12">
     <!-- Voltage -->
     <g transform="translate(15.753876 97.310393)rotate(-90)scale(0.12 -0.12)">
      <defs>
       <path d="M 1754 4224 
L 1754 4416 
C 1050 4396 1050 4396 902 4396 
C 755 4396 755 4396 51 4416 
L 51 4224 
L 282 4205 
C 416 4192 480 4134 563 3943 
L 1766 990 
C 1965 504 2042 281 2138 -64 
L 2458 -64 
C 2579 332 2656 543 2867 1054 
L 3981 3745 
C 4128 4090 4198 4185 4326 4205 
L 4518 4224 
L 4518 4416 
L 3827 4396 
C 3712 4396 3565 4403 3379 4409 
C 3347 4409 3238 4409 3136 4416 
L 3136 4224 
L 3469 4205 
C 3610 4198 3693 4134 3693 4038 
C 3693 3975 3674 3885 3635 3789 
L 2464 766 
L 1203 4007 
C 1197 4032 1190 4051 1190 4077 
C 1190 4154 1267 4198 1395 4205 
L 1754 4224 
z
" id="URWPalladioL-Roma-56" transform="scale(0.015625)"/>
       <path d="M 147 4249 
L 506 4249 
C 621 4249 666 4179 666 3987 
L 666 672 
C 666 268 646 224 429 211 
L 134 192 
L 134 0 
C 774 0 774 0 934 0 
C 1094 19 1094 19 1734 0 
L 1734 192 
L 1440 211 
C 1222 224 1203 268 1203 672 
L 1203 4614 
L 1146 4665 
C 864 4557 653 4505 147 4429 
L 147 4249 
z
" id="URWPalladioL-Roma-6c" transform="scale(0.015625)"/>
       <path d="M 627 2457 
L 627 614 
C 627 140 838 -64 1331 -64 
C 1478 -64 1632 -32 1670 12 
L 1978 352 
L 1894 460 
C 1734 371 1638 339 1517 339 
C 1267 339 1165 467 1165 780 
L 1165 2457 
L 1984 2457 
L 2042 2803 
L 1165 2764 
L 1165 3008 
C 1165 3277 1184 3507 1235 3917 
L 1158 3987 
C 1005 3891 813 3808 614 3744 
C 634 3552 640 3430 640 3238 
L 640 2790 
L 141 2566 
L 141 2432 
L 627 2457 
z
" id="URWPalladioL-Roma-74" transform="scale(0.015625)"/>
       <path d="M 2074 544 
L 2042 0 
C 2458 0 2458 0 2541 0 
C 2573 19 2733 12 3014 0 
L 3014 192 
L 2765 204 
C 2611 211 2586 262 2586 576 
L 2586 1751 
C 2586 2688 2317 3027 1574 3027 
C 1299 3027 1043 2956 800 2809 
L 461 2604 
L 461 2187 
L 627 2142 
L 710 2341 
C 845 2642 909 2688 1203 2688 
C 1805 2688 2054 2450 2074 1866 
L 1440 1751 
C 570 1590 205 1289 205 730 
C 205 224 506 -64 1011 -64 
C 1126 -64 1235 -45 1280 -13 
L 2074 544 
z
M 2074 806 
C 1888 544 1485 300 1235 300 
C 979 300 755 537 755 812 
C 755 1049 883 1273 1075 1395 
C 1235 1491 1587 1580 2074 1651 
L 2074 806 
z
" id="URWPalladioL-Roma-61" transform="scale(0.015625)"/>
       <path d="M 3322 2452 
L 3482 2713 
L 3456 2790 
L 2547 2764 
C 2310 2956 2080 3033 1766 3033 
C 1485 3033 1158 2944 896 2790 
C 538 2586 352 2274 352 1885 
C 352 1413 646 1087 1120 1036 
L 614 638 
C 550 540 518 455 518 358 
C 518 179 634 76 941 -13 
L 384 -315 
C 294 -367 205 -604 205 -804 
C 205 -1388 774 -1792 1587 -1792 
C 2554 -1792 3315 -1183 3315 -399 
C 3315 64 3008 384 2560 384 
L 1536 384 
C 1203 384 1050 462 1050 638 
C 1050 723 1101 795 1267 939 
C 1306 972 1318 985 1344 1011 
C 1408 1004 1446 998 1498 998 
C 1773 998 2112 1119 2374 1305 
C 2662 1515 2803 1770 2803 2108 
C 2803 2235 2784 2318 2733 2452 
L 3322 2452 
z
M 1536 2816 
C 1971 2816 2266 2458 2266 1917 
C 2266 1502 1997 1216 1606 1216 
C 1178 1216 890 1547 890 2038 
C 890 2529 1126 2816 1536 2816 
z
M 1837 -64 
C 2560 -64 2810 -212 2810 -630 
C 2810 -1183 2304 -1594 1632 -1594 
C 1075 -1594 691 -1266 691 -791 
C 691 -502 858 -238 1114 -129 
C 1216 -77 1395 -64 1837 -64 
z
" id="URWPalladioL-Roma-67" transform="scale(0.015625)"/>
      </defs>
      <use transform="scale(0.996264)" xlink:href="#URWPalladioL-Roma-56"/>
      <use transform="translate(60.871539 0)scale(0.996264)" xlink:href="#URWPalladioL-Roma-6f"/>
      <use transform="translate(115.26712 0)scale(0.996264)" xlink:href="#URWPalladioL-Roma-6c"/>
      <use transform="translate(144.257481 0)scale(0.996264)" xlink:href="#URWPalladioL-Roma-74"/>
      <use transform="translate(176.734569 0)scale(0.996264)" xlink:href="#URWPalladioL-Roma-61"/>
      <use transform="translate(226.547769 0)scale(0.996264)" xlink:href="#URWPalladioL-Roma-67"/>
      <use transform="translate(281.939446 0)scale(0.996264)" xlink:href="#URWPalladioL-Roma-65"/>
     </g>
    </g>
   </g>
   <g id="line2d_21">
    <path clip-path="url(#peaf215872f)" d="M 67.531623 13.593712 
L 67.93952 13.778175 
L 68.347418 14.330495 
L 68.755315 15.247464 
L 69.367161 17.294412 
L 69.979007 20.122622 
L 70.794802 25.043646 
L 71.814546 32.877743 
L 73.038239 44.364681 
L 74.669828 62.220753 
L 79.156701 113.191259 
L 80.380393 124.212516 
L 81.400137 131.583315 
L 82.215932 136.102914 
L 83.031727 139.288748 
L 83.643573 140.760602 
L 84.05147 141.294665 
L 84.459368 141.467947 
L 84.867265 141.2802 
L 85.275163 140.733275 
L 85.68306 139.831106 
L 86.294907 137.825418 
L 86.906753 135.063032 
L 87.722548 130.270547 
L 88.742291 122.665617 
L 89.965984 111.554758 
L 91.597574 94.358793 
L 95.880497 47.646018 
L 97.10419 36.89057 
L 98.123933 29.611248 
L 98.939728 25.071244 
L 99.755523 21.777028 
L 100.36737 20.16445 
L 100.775267 19.507939 
L 101.183164 19.189287 
L 101.591062 19.208864 
L 101.998959 19.56507 
L 102.406857 20.254351 
L 103.018703 21.900285 
L 103.630549 24.256482 
L 104.446344 28.440323 
L 105.466088 35.189354 
L 106.68978 45.162555 
L 108.32137 60.729805 
L 112.808243 105.253757 
L 114.031935 114.914604 
L 115.051679 121.414555 
L 115.867474 125.443906 
L 116.683269 128.34548 
L 117.295115 129.749471 
L 117.703012 130.310607 
L 118.11091 130.570259 
L 118.518807 130.529055 
L 118.926705 130.189383 
L 119.334602 129.555363 
L 119.946448 128.065611 
L 120.558295 125.953598 
L 121.37409 122.23024 
L 122.393833 116.264712 
L 123.617526 107.509319 
L 125.249116 93.94986 
L 129.532039 57.306361 
L 130.755732 48.916392 
L 131.775475 43.237667 
L 132.59127 39.684028 
L 133.407065 37.081362 
L 134.018911 35.778985 
L 134.630758 35.04341 
L 135.038655 34.868558 
L 135.446553 34.944388 
L 135.85445 35.267746 
L 136.262347 35.834036 
L 136.874194 37.12549 
L 137.48604 38.923891 
L 138.301835 42.053817 
L 139.321579 47.010141 
L 140.545271 54.202036 
L 142.38081 66.637981 
L 145.847938 90.482435 
L 147.275579 98.577117 
L 148.295323 103.26787 
L 149.315067 106.888467 
L 150.130862 108.950532 
L 150.742708 109.991809 
L 151.354554 110.595326 
L 151.762452 110.755414 
L 152.170349 110.72408 
L 152.578247 110.504657 
L 153.190093 109.83286 
L 153.801939 108.767526 
L 154.617734 106.777762 
L 155.433529 104.202457 
L 156.453273 100.286228 
L 157.880914 93.831984 
L 163.183581 68.567351 
L 164.407273 64.247236 
L 165.427017 61.439593 
L 166.242812 59.761941 
L 167.058607 58.609258 
L 167.670453 58.091438 
L 168.282299 57.86668 
L 168.894146 57.92666 
L 169.505992 58.259039 
L 170.117838 58.847773 
L 170.933633 59.997579 
L 171.953377 61.943907 
L 173.177069 64.864419 
L 175.012608 69.956981 
L 177.86789 77.893583 
L 179.295531 81.17399 
L 180.315275 83.054533 
L 181.335019 84.491037 
L 182.150814 85.303824 
L 182.966609 85.81657 
L 183.782404 86.039069 
L 184.598198 85.99048 
L 185.413993 85.698334 
L 186.433737 85.044044 
L 187.65743 83.941751 
L 190.104814 81.297867 
L 191.736404 79.708107 
L 192.960097 78.831967 
L 193.97984 78.386185 
L 194.795635 78.240103 
L 195.61143 78.288983 
L 196.427225 78.530596 
L 197.446969 79.08601 
L 198.670661 80.068885 
L 200.302251 81.73986 
L 202.953585 84.527791 
L 204.177277 85.471523 
L 204.993072 85.872836 
L 205.808867 86.047123 
L 206.624662 85.963112 
L 207.440457 85.597319 
L 208.256252 84.935161 
L 209.072047 83.971807 
L 210.091791 82.353414 
L 211.111534 80.307617 
L 212.335227 77.373486 
L 214.170766 72.312707 
L 217.229997 63.832585 
L 218.453689 61.104037 
L 219.473433 59.373232 
L 220.289228 58.427692 
L 220.901074 58.007905 
L 221.51292 57.855565 
L 222.124766 57.984282 
L 222.736613 58.403748 
L 223.348459 59.119471 
L 224.164254 60.535881 
L 224.980049 62.470465 
L 225.999792 65.578601 
L 227.223485 70.210652 
L 228.651126 76.598665 
L 231.30246 89.821037 
L 233.341947 99.424334 
L 234.565639 104.202457 
L 235.585383 107.333063 
L 236.401178 109.164955 
L 237.013024 110.101585 
L 237.62487 110.637627 
L 238.032768 110.763493 
L 238.440665 110.699462 
L 238.848563 110.442769 
L 239.460409 109.693301 
L 240.072255 108.50662 
L 240.88805 106.255083 
L 241.703845 103.26787 
L 242.723589 98.577117 
L 243.947281 91.732524 
L 245.578871 81.076155 
L 250.269692 49.274138 
L 251.493385 42.95763 
L 252.513128 38.923891 
L 253.328923 36.637266 
L 253.94077 35.520867 
L 254.348667 35.07538 
L 254.756565 34.875301 
L 255.164462 34.924509 
L 255.572359 35.225425 
L 255.980257 35.778985 
L 256.592103 37.081362 
L 257.203949 38.942197 
L 258.019744 42.263242 
L 259.039488 47.677648 
L 260.059232 54.339225 
L 261.486873 65.341972 
L 263.730309 84.907663 
L 266.177694 105.912074 
L 267.605335 116.264712 
L 268.625079 122.23024 
L 269.440874 125.953598 
L 270.256669 128.632813 
L 270.868515 129.908842 
L 271.276412 130.39631 
L 271.68431 130.587156 
L 272.092207 130.478121 
L 272.500105 130.067695 
L 272.908002 129.356135 
L 273.519848 127.729114 
L 274.131695 125.443906 
L 274.94749 121.414555 
L 275.967233 114.914604 
L 277.190926 105.253757 
L 278.618567 92.019048 
L 284.125183 38.308698 
L 285.144927 30.949075 
L 286.16467 25.193834 
L 286.980465 21.900285 
L 287.592311 20.254351 
L 288.000209 19.56507 
L 288.408106 19.208864 
L 288.816004 19.189287 
L 289.223901 19.507939 
L 289.631799 20.16445 
L 290.243645 21.777028 
L 290.855491 24.127821 
L 291.671286 28.364166 
L 292.487081 33.777643 
L 293.506825 42.020512 
L 294.730517 53.696616 
L 296.566056 73.61077 
L 299.829236 109.529723 
L 301.256877 122.665617 
L 302.276621 130.270547 
L 303.092416 135.063032 
L 303.90821 138.579679 
L 304.520057 140.32627 
L 304.927954 141.051438 
L 305.335852 141.419135 
L 305.743749 141.426468 
L 306.151647 141.072633 
L 306.559544 140.358928 
L 307.17139 138.621609 
L 307.783237 136.102914 
L 308.599031 131.583315 
L 309.414826 125.829399 
L 310.43457 117.099522 
L 311.862211 102.573653 
L 313.901699 79.041731 
L 316.553032 48.605486 
L 317.980673 34.646998 
L 319.000417 26.46776 
L 320.020161 20.122622 
L 320.835956 16.523755 
L 321.447802 14.743682 
L 321.855699 14.008504 
L 322.263597 13.639844 
L 322.671494 13.639844 
L 323.079392 14.008504 
L 323.487289 14.743682 
L 324.099136 16.523755 
L 324.710982 19.095152 
L 325.526777 23.695175 
L 326.54652 31.172768 
L 327.770213 42.314216 
L 329.197854 57.559411 
L 334.70447 118.969652 
L 335.928162 128.853266 
L 336.743957 134.00433 
L 337.559752 137.867567 
L 338.171599 139.868104 
L 338.783445 141.072633 
L 339.191342 141.426468 
L 339.59924 141.419135 
L 340.007137 141.051438 
L 340.415035 140.32627 
L 341.026881 138.579679 
L 341.638727 136.065728 
L 342.454522 131.582388 
L 343.474266 124.318587 
L 344.697958 113.535055 
L 346.329548 96.61067 
L 351.020369 45.720006 
L 352.244061 35.301923 
L 353.263805 28.364166 
L 354.0796 24.127821 
L 354.691446 21.777028 
L 355.303293 20.16445 
L 355.71119 19.507939 
L 356.119088 19.189287 
L 356.526985 19.208864 
L 356.934882 19.56507 
L 357.34278 20.254351 
L 357.954626 21.900285 
L 358.566472 24.256482 
L 359.382267 28.440323 
L 360.402011 35.189354 
L 361.625703 45.162555 
L 363.257293 60.729805 
L 367.744166 105.253757 
L 368.967858 114.914604 
L 369.987602 121.414555 
L 370.803397 125.443906 
L 371.619192 128.34548 
L 372.231038 129.749471 
L 372.638935 130.310607 
L 373.046833 130.570259 
L 373.45473 130.529055 
L 373.862628 130.189383 
L 374.270525 129.555363 
L 374.882371 128.065611 
L 375.494218 125.953598 
L 376.310013 122.23024 
L 377.329756 116.264712 
L 378.553449 107.509319 
L 380.185039 93.94986 
L 384.467962 57.306361 
L 385.691655 48.916392 
L 386.711398 43.237667 
L 387.527193 39.684028 
L 388.342988 37.081362 
L 388.954834 35.778985 
L 389.566681 35.04341 
L 389.974578 34.868558 
L 390.382476 34.944388 
L 390.790373 35.267746 
L 391.198271 35.834036 
L 391.810117 37.12549 
L 392.421963 38.923891 
L 393.237758 42.053817 
L 394.257502 47.010141 
L 395.481194 54.202036 
L 397.316733 66.637981 
L 400.783861 90.482435 
L 402.211502 98.577117 
L 403.231246 103.26787 
L 404.25099 106.888467 
L 405.066785 108.950532 
L 405.678631 109.991809 
L 406.290477 110.595326 
L 406.698375 110.755414 
L 407.106272 110.72408 
L 407.51417 110.504657 
L 408.126016 109.83286 
L 408.737862 108.767526 
L 409.553657 106.777762 
L 410.369452 104.202457 
L 411.389196 100.286228 
L 412.816837 93.831984 
L 418.119504 68.567351 
L 419.343196 64.247236 
L 420.36294 61.439593 
L 421.178735 59.761941 
L 421.99453 58.609258 
L 422.606376 58.091438 
L 423.218222 57.86668 
L 423.830069 57.92666 
L 424.441915 58.259039 
L 425.053761 58.847773 
L 425.869556 59.997579 
L 426.8893 61.943907 
L 428.112992 64.864419 
L 429.948531 69.956981 
L 432.803813 77.893583 
L 434.231454 81.17399 
L 435.251198 83.054533 
L 436.270942 84.491037 
L 437.086737 85.303824 
L 437.902532 85.81657 
L 438.718327 86.039069 
L 439.534122 85.99048 
L 440.349917 85.698334 
L 441.36966 85.044044 
L 442.593353 83.941751 
L 445.040737 81.297867 
L 446.672327 79.708107 
L 447.89602 78.831967 
L 448.915764 78.386185 
L 449.731558 78.240103 
L 450.547353 78.288983 
L 451.363148 78.530596 
L 452.382892 79.08601 
L 453.606585 80.068885 
L 455.238174 81.73986 
L 457.889508 84.527791 
L 459.1132 85.471523 
L 459.928995 85.872836 
L 460.74479 86.047123 
L 461.560585 85.963112 
L 462.37638 85.597319 
L 463.192175 84.935161 
L 464.00797 83.971807 
L 465.027714 82.353414 
L 466.047458 80.307617 
L 467.27115 77.373486 
L 469.106689 72.312707 
L 472.16592 63.832585 
L 473.389612 61.104037 
L 474.409356 59.373232 
L 475.225151 58.427692 
L 475.836997 58.007905 
L 476.448843 57.855565 
L 477.060689 57.984282 
L 477.672536 58.403748 
L 478.284382 59.119471 
L 479.100177 60.535881 
L 479.915972 62.470465 
L 480.935715 65.578601 
L 482.159408 70.210652 
L 483.587049 76.598665 
L 486.238383 89.821037 
L 488.27787 99.424334 
L 489.501562 104.202457 
L 490.521306 107.333063 
L 491.337101 109.164955 
L 491.948947 110.101585 
L 492.560794 110.637627 
L 492.968691 110.763493 
L 493.376588 110.699462 
L 493.784486 110.442769 
L 494.396332 109.693301 
L 495.008178 108.50662 
L 495.823973 106.255083 
L 496.639768 103.26787 
L 497.659512 98.577117 
L 498.883204 91.732524 
L 500.514794 81.076155 
L 505.205615 49.274138 
L 506.429308 42.95763 
L 507.449051 38.923891 
L 508.264846 36.637266 
L 508.876693 35.520867 
L 509.28459 35.07538 
L 509.692488 34.875301 
L 510.100385 34.924509 
L 510.508283 35.225425 
L 510.91618 35.778985 
L 511.528026 37.081362 
L 512.139872 38.942197 
L 512.955667 42.263242 
L 513.975411 47.677648 
L 514.995155 54.339225 
L 516.422796 65.341972 
L 518.666232 84.907663 
L 521.113617 105.912074 
L 522.541258 116.264712 
L 523.561002 122.23024 
L 524.376797 125.953598 
L 525.192592 128.632813 
L 525.804438 129.908842 
L 526.212335 130.39631 
L 526.620233 130.587156 
L 527.02813 130.478121 
L 527.436028 130.067695 
L 527.843925 129.356135 
L 528.455772 127.729114 
L 529.067618 125.443906 
L 529.883413 121.414555 
L 530.903156 114.914604 
L 532.126849 105.253757 
L 533.55449 92.019048 
L 539.061106 38.308698 
L 540.08085 30.949075 
L 541.100593 25.193834 
L 541.916388 21.900285 
L 542.528234 20.254351 
L 542.936132 19.56507 
L 543.344029 19.208864 
L 543.751927 19.189287 
L 544.159824 19.507939 
L 544.567722 20.16445 
L 545.179568 21.777028 
L 545.791414 24.127821 
L 546.607209 28.364166 
L 547.423004 33.777643 
L 548.442748 42.020512 
L 549.66644 53.696616 
L 551.501979 73.61077 
L 554.765159 109.529723 
L 556.1928 122.665617 
L 557.212544 130.270547 
L 558.028339 135.063032 
L 558.844134 138.579679 
L 559.45598 140.32627 
L 559.863877 141.051438 
L 560.271775 141.419135 
L 560.679672 141.426468 
L 561.08757 141.072633 
L 561.495467 140.358928 
L 562.107313 138.621609 
L 562.71916 136.102914 
L 563.534955 131.583315 
L 564.350749 125.829399 
L 565.370493 117.099522 
L 566.798134 102.573653 
L 568.837622 79.041731 
L 571.488955 48.605486 
L 572.916596 34.646998 
L 573.93634 26.46776 
L 574.956084 20.122622 
L 575.771879 16.523755 
L 576.383725 14.743682 
L 576.791623 14.008504 
L 577.19952 13.639844 
L 577.19952 13.639844 
" style="fill:none;stroke:#0271ae;stroke-linejoin:miter;stroke-width:3;"/>
   </g>
  </g>
 </g>
 <defs>
  <clipPath id="peaf215872f">
   <rect height="140.661659" width="509.667897" x="67.531623" y="7.2"/>
  </clipPath>
 </defs>
</svg>
