<?xml version="1.0" encoding="utf-8" standalone="no"?>
<!DOCTYPE svg PUBLIC "-//W3C//DTD SVG 1.1//EN"
  "http://www.w3.org/Graphics/SVG/1.1/DTD/svg11.dtd">
<svg height="200.39952pt" version="1.1" viewBox="0 0 584.39952 200.39952" width="584.39952pt" xmlns="http://www.w3.org/2000/svg" xmlns:xlink="http://www.w3.org/1999/xlink">
 <metadata>
  <rdf:RDF xmlns:cc="http://creativecommons.org/ns#" xmlns:dc="http://purl.org/dc/elements/1.1/" xmlns:rdf="http://www.w3.org/1999/02/22-rdf-syntax-ns#">
   <cc:Work>
    <dc:type rdf:resource="http://purl.org/dc/dcmitype/StillImage"/>
    <dc:date>2020-08-15T14:13:35.491569</dc:date>
    <dc:format>image/svg+xml</dc:format>
    <dc:creator>
     <cc:Agent>
      <dc:title>Matplotlib v3.3.0rc1.post717+g6a40954ae, https://matplotlib.org/</dc:title>
     </cc:Agent>
    </dc:creator>
   </cc:Work>
  </rdf:RDF>
 </metadata>
 <defs>
  <style type="text/css">*{stroke-linecap:butt;stroke-linejoin:round;}</style>
 </defs>
 <g id="figure_1">
  <g id="patch_1">
   <path d="M 0 200.39952 
L 584.39952 200.39952 
L 584.39952 0 
L 0 0 
z
" style="fill:none;"/>
  </g>
  <g id="axes_1">
   <g id="patch_2">
    <path d="M 67.531623 147.861659 
L 577.19952 147.861659 
L 577.19952 7.2 
L 67.531623 7.2 
z
" style="fill:none;"/>
   </g>
   <g id="matplotlib.axis_1">
    <g id="xtick_1">
     <g id="line2d_1">
      <path clip-path="url(#pf1da01f7a2)" d="M 67.531623 147.861659 
L 67.531623 7.2 
" style="fill:none;stroke:#000000;stroke-linecap:square;stroke-opacity:0.2;stroke-width:0.5;"/>
     </g>
     <g id="line2d_2">
      <defs>
       <path d="M 0 0 
L 0 3.5 
" id="m32d4a73004" style="stroke:#000000;stroke-opacity:0.2;stroke-width:0.8;"/>
      </defs>
      <g>
       <use style="fill-opacity:0.2;stroke:#000000;stroke-opacity:0.2;stroke-width:0.8;" x="67.531623" xlink:href="#m32d4a73004" y="147.861659"/>
      </g>
     </g>
     <g id="text_1">
      <!-- $\mathdefault{0}$ -->
      <g transform="translate(64.044699 173.341188)scale(0.14 -0.14)">
       <defs>
        <path d="M 1683 4416 
C 691 4416 186 3628 186 2077 
C 186 1326 320 680 544 366 
C 768 51 1126 -128 1523 -128 
C 2490 -128 2976 705 2976 2346 
C 2976 3749 2560 4416 1683 4416 
z
M 1568 4192 
C 2189 4192 2438 3564 2438 2025 
C 2438 661 2195 96 1606 96 
C 986 96 723 744 723 2308 
C 723 3660 960 4192 1568 4192 
z
" id="URWPalladioL-Roma-30" transform="scale(0.015625)"/>
       </defs>
       <use transform="scale(0.996264)" xlink:href="#URWPalladioL-Roma-30"/>
      </g>
     </g>
    </g>
    <g id="xtick_2">
     <g id="line2d_3">
      <path clip-path="url(#pf1da01f7a2)" d="M 169.505992 147.861659 
L 169.505992 7.2 
" style="fill:none;stroke:#000000;stroke-linecap:square;stroke-opacity:0.2;stroke-width:0.5;"/>
     </g>
     <g id="line2d_4">
      <g>
       <use style="fill-opacity:0.2;stroke:#000000;stroke-opacity:0.2;stroke-width:0.8;" x="169.505992" xlink:href="#m32d4a73004" y="147.861659"/>
      </g>
     </g>
     <g id="text_2">
      <!-- $\mathdefault{1}$ -->
      <g transform="translate(166.019068 173.341188)scale(0.14 -0.14)">
       <defs>
        <path d="M 429 3584 
L 493 3584 
L 1318 3956 
C 1325 3962 1331 3962 1338 3962 
C 1376 3962 1389 3905 1389 3751 
L 1389 613 
C 1389 276 1318 205 973 205 
L 614 205 
L 614 0 
C 1600 0 1600 0 1670 0 
C 1754 0 1894 0 2112 0 
C 2189 0 2413 0 2675 0 
L 2675 205 
L 2342 205 
C 1990 205 1926 276 1926 612 
L 1926 4443 
L 1837 4475 
C 1421 4257 966 4065 384 3860 
z
" id="URWPalladioL-Roma-31" transform="scale(0.015625)"/>
       </defs>
       <use transform="scale(0.996264)" xlink:href="#URWPalladioL-Roma-31"/>
      </g>
     </g>
    </g>
    <g id="xtick_3">
     <g id="line2d_5">
      <path clip-path="url(#pf1da01f7a2)" d="M 271.480361 147.861659 
L 271.480361 7.2 
" style="fill:none;stroke:#000000;stroke-linecap:square;stroke-opacity:0.2;stroke-width:0.5;"/>
     </g>
     <g id="line2d_6">
      <g>
       <use style="fill-opacity:0.2;stroke:#000000;stroke-opacity:0.2;stroke-width:0.8;" x="271.480361" xlink:href="#m32d4a73004" y="147.861659"/>
      </g>
     </g>
     <g id="text_3">
      <!-- $\mathdefault{2}$ -->
      <g transform="translate(267.993437 173.341188)scale(0.14 -0.14)">
       <defs>
        <path d="M 102 160 
L 102 0 
C 1299 0 1299 0 1530 0 
C 1760 0 1760 0 2995 0 
C 2982 125 2982 186 2982 269 
C 2982 348 2982 407 2995 539 
C 2259 539 1965 539 781 539 
L 1946 1761 
C 2566 2414 2758 2763 2758 3238 
C 2758 3966 2259 4416 1446 4416 
C 986 4416 672 4288 358 3969 
L 250 3099 
L 435 3099 
L 518 3393 
C 621 3763 851 3923 1280 3923 
C 1830 3923 2182 3577 2182 3035 
C 2182 2555 1914 2083 1190 1316 
z
" id="URWPalladioL-Roma-32" transform="scale(0.015625)"/>
       </defs>
       <use transform="scale(0.996264)" xlink:href="#URWPalladioL-Roma-32"/>
      </g>
     </g>
    </g>
    <g id="xtick_4">
     <g id="line2d_7">
      <path clip-path="url(#pf1da01f7a2)" d="M 373.45473 147.861659 
L 373.45473 7.2 
" style="fill:none;stroke:#000000;stroke-linecap:square;stroke-opacity:0.2;stroke-width:0.5;"/>
     </g>
     <g id="line2d_8">
      <g>
       <use style="fill-opacity:0.2;stroke:#000000;stroke-opacity:0.2;stroke-width:0.8;" x="373.45473" xlink:href="#m32d4a73004" y="147.861659"/>
      </g>
     </g>
     <g id="text_4">
      <!-- $\mathdefault{3}$ -->
      <g transform="translate(369.967806 173.341188)scale(0.14 -0.14)">
       <defs>
        <path d="M 275 3197 
L 474 3197 
L 589 3554 
C 659 3770 1062 3987 1395 3987 
C 1811 3987 2150 3649 2150 3248 
C 2150 2770 1773 2368 1318 2368 
C 1267 2368 1197 2368 1114 2381 
L 1018 2381 
L 941 2047 
L 986 2008 
C 1229 2118 1350 2150 1523 2150 
C 2054 2150 2362 1809 2362 1222 
C 2362 566 1971 135 1376 135 
C 1082 135 819 231 627 411 
C 474 553 390 701 269 1049 
L 96 985 
C 230 593 282 361 320 39 
C 659 -77 941 -128 1178 -128 
C 1690 -128 2278 161 2630 593 
C 2848 857 2957 1140 2957 1442 
C 2957 1751 2829 2022 2598 2182 
C 2438 2298 2291 2350 1971 2407 
C 2483 2803 2675 3096 2675 3472 
C 2675 4040 2202 4416 1491 4416 
C 1056 4416 768 4295 461 3989 
z
" id="URWPalladioL-Roma-33" transform="scale(0.015625)"/>
       </defs>
       <use transform="scale(0.996264)" xlink:href="#URWPalladioL-Roma-33"/>
      </g>
     </g>
    </g>
    <g id="xtick_5">
     <g id="line2d_9">
      <path clip-path="url(#pf1da01f7a2)" d="M 475.4291 147.861659 
L 475.4291 7.2 
" style="fill:none;stroke:#000000;stroke-linecap:square;stroke-opacity:0.2;stroke-width:0.5;"/>
     </g>
     <g id="line2d_10">
      <g>
       <use style="fill-opacity:0.2;stroke:#000000;stroke-opacity:0.2;stroke-width:0.8;" x="475.4291" xlink:href="#m32d4a73004" y="147.861659"/>
      </g>
     </g>
     <g id="text_5">
      <!-- $\mathdefault{4}$ -->
      <g transform="translate(471.942175 173.341188)scale(0.14 -0.14)">
       <defs>
        <path d="M 1792 1152 
L 1792 673 
C 1792 289 1722 199 1408 199 
L 1011 199 
L 1011 0 
C 1862 0 1862 0 2016 0 
C 2170 0 2170 0 3021 0 
L 3021 199 
L 2714 199 
C 2400 199 2330 282 2330 669 
L 2330 1152 
C 2707 1152 2842 1152 3021 1133 
L 3021 1588 
C 2720 1563 2598 1563 2502 1563 
L 2483 1563 
L 2330 1563 
L 2330 2457 
C 2330 3600 2342 4152 2374 4416 
L 2298 4448 
L 1824 4275 
L 13 1299 
L 83 1152 
z
M 1792 1563 
L 416 1563 
L 1792 3826 
z
" id="URWPalladioL-Roma-34" transform="scale(0.015625)"/>
       </defs>
       <use transform="scale(0.996264)" xlink:href="#URWPalladioL-Roma-34"/>
      </g>
     </g>
    </g>
    <g id="text_6">
     <!-- Time [seconds] -->
     <g transform="translate(282.69272 189.828236)scale(0.12 -0.12)">
      <defs>
       <path d="M 1632 4114 
C 1651 3896 1658 3749 1658 3473 
L 1658 763 
C 1658 256 1626 205 1331 205 
L 1024 205 
L 1024 0 
C 1402 0 1626 0 1958 0 
C 2291 0 2522 0 2899 0 
L 2899 205 
L 2592 205 
C 2298 205 2266 256 2266 763 
L 2266 3473 
C 2266 3762 2272 3903 2291 4114 
L 3283 4114 
C 3462 4114 3533 4057 3539 3904 
L 3565 3400 
L 3763 3400 
C 3763 3810 3776 4056 3808 4416 
C 3347 4416 3136 4416 2957 4416 
C 2707 4416 2522 4416 2426 4416 
L 1414 4416 
C 1350 4416 1005 4416 550 4416 
L 115 4416 
C 147 4056 160 3810 160 3400 
L 358 3400 
L 384 3904 
C 390 4057 461 4114 640 4114 
z
" id="URWPalladioL-Roma-54" transform="scale(0.015625)"/>
       <path d="M 1203 2993 
L 1146 3019 
C 819 2884 486 2793 147 2755 
L 147 2576 
L 384 2576 
C 640 2576 666 2531 666 2105 
L 666 651 
C 666 244 646 199 429 199 
L 134 199 
L 134 0 
C 774 0 774 0 934 0 
C 1094 0 1094 0 1734 0 
L 1734 199 
L 1440 199 
C 1222 199 1203 244 1203 651 
z
M 909 4416 
C 717 4416 550 4249 550 4056 
C 550 3870 717 3704 902 3704 
C 1088 3704 1261 3870 1261 4056 
C 1261 4236 1088 4416 909 4416 
z
" id="URWPalladioL-Roma-69" transform="scale(0.015625)"/>
       <path d="M 115 2565 
L 352 2565 
C 608 2565 634 2520 634 2094 
L 634 643 
C 634 237 614 192 397 192 
L 102 192 
L 102 -7 
C 717 -7 736 -7 915 -7 
C 1094 -7 1261 -7 1677 -7 
L 1677 179 
L 1408 205 
C 1190 205 1171 250 1171 654 
L 1171 2014 
C 1171 2302 1594 2616 1978 2616 
C 2323 2616 2560 2287 2560 1798 
L 2560 643 
C 2560 237 2541 192 2323 192 
L 2029 192 
L 2029 -7 
C 2669 -7 2669 -7 2829 -7 
C 2989 -7 2989 -7 3629 -7 
L 3629 192 
L 3334 192 
C 3117 192 3098 237 3098 643 
L 3098 2011 
C 3098 2300 3520 2616 3904 2616 
C 4250 2616 4486 2291 4486 1806 
L 4486 -7 
C 4877 -7 4883 -7 4992 -7 
C 5075 -7 5075 -7 5562 -7 
L 5562 192 
L 5261 192 
C 5043 192 5024 237 5024 643 
L 5024 1970 
C 5024 2608 4653 3008 4064 3008 
C 3840 3008 3654 2950 3539 2847 
L 3053 2412 
C 2848 2834 2586 3008 2144 3008 
C 1907 3008 1728 2950 1613 2847 
L 1171 2437 
L 1171 2982 
L 1114 3008 
C 787 2873 454 2783 115 2745 
z
" id="URWPalladioL-Roma-6d" transform="scale(0.015625)"/>
       <path d="M 2797 447 
L 2714 511 
C 2304 269 2157 212 1882 212 
C 1466 212 1120 398 941 711 
C 819 921 774 1101 762 1472 
L 1696 1472 
C 2138 1472 2413 1472 2854 1544 
C 2861 1634 2867 1693 2867 1771 
C 2867 2520 2394 3008 1677 3008 
C 1440 3008 1165 2924 902 2770 
C 378 2469 166 2071 166 1404 
C 166 1000 262 654 435 410 
C 691 71 1120 -128 1600 -128 
C 1837 -128 2074 -77 2336 37 
C 2509 108 2643 191 2669 230 
z
M 2298 1690 
C 1965 1690 1811 1690 1581 1690 
C 1286 1690 1120 1690 774 1722 
C 774 2027 800 2169 883 2337 
C 1018 2622 1293 2796 1600 2796 
C 1811 2796 1978 2711 2093 2534 
C 2234 2319 2278 2129 2298 1690 
z
" id="URWPalladioL-Roma-65" transform="scale(0.015625)"/>
       <path d="M 563 -1152 
C 1018 -1152 1030 -1152 1184 -1152 
C 1338 -1152 1370 -1152 1805 -1152 
L 1843 -1120 
L 1843 -953 
L 1818 -921 
L 1574 -921 
C 1402 -921 1261 -882 1184 -818 
C 1126 -760 1107 -671 1107 -459 
C 1107 -453 1107 -318 1101 -125 
L 1101 112 
L 1101 3409 
L 1101 3646 
C 1107 3826 1107 3967 1107 3973 
C 1107 4185 1126 4281 1184 4339 
C 1261 4403 1402 4441 1574 4441 
L 1818 4441 
L 1843 4473 
L 1843 4640 
L 1805 4672 
C 1357 4672 1338 4672 1184 4672 
C 1037 4672 1005 4672 563 4672 
L 506 4595 
C 544 4435 557 4223 557 3730 
C 557 3633 557 3556 563 3492 
L 563 3409 
L 563 112 
L 563 28 
C 557 -74 557 -81 557 -190 
L 557 -260 
C 557 -696 544 -876 506 -1075 
z
" id="URWPalladioL-Roma-5b" transform="scale(0.015625)"/>
       <path d="M 262 917 
C 262 475 243 282 192 26 
C 525 -83 774 -128 1069 -128 
C 1907 -128 2502 321 2502 949 
C 2502 1148 2445 1295 2323 1424 
C 2157 1584 1946 1661 1382 1770 
C 858 1873 685 2001 685 2296 
C 685 2616 909 2796 1299 2796 
C 1728 2796 2054 2572 2054 2270 
L 2054 2123 
L 2234 2123 
C 2240 2495 2246 2648 2266 2847 
C 1926 2963 1696 3008 1434 3008 
C 691 3008 237 2655 237 2078 
C 237 1770 378 1552 672 1417 
C 845 1340 1184 1238 1619 1141 
C 1907 1077 2029 943 2029 699 
C 2029 353 1709 109 1254 109 
C 787 109 454 333 454 654 
L 454 917 
z
" id="URWPalladioL-Roma-73" transform="scale(0.015625)"/>
       <path d="M 2554 1994 
C 2554 2289 2586 2552 2643 2783 
C 2387 2937 2163 3008 1901 3008 
C 1594 3008 1235 2886 851 2642 
C 403 2360 166 1911 166 1347 
C 166 481 774 -128 1632 -128 
C 1965 -128 2445 -6 2509 90 
L 2643 295 
L 2579 391 
C 2342 263 2138 205 1907 205 
C 1197 205 730 757 730 1603 
C 730 2289 1050 2674 1626 2674 
C 1907 2674 2214 2546 2330 2386 
L 2374 1994 
z
" id="URWPalladioL-Roma-63" transform="scale(0.015625)"/>
       <path d="M 1786 3008 
C 851 3008 205 2347 205 1392 
C 205 487 774 -128 1600 -128 
C 2586 -128 3290 558 3290 1520 
C 3290 2386 2662 3008 1786 3008 
z
M 1670 2796 
C 2259 2796 2694 2155 2694 1283 
C 2694 545 2368 83 1850 83 
C 1222 83 800 699 800 1610 
C 800 2379 1107 2796 1670 2796 
z
" id="URWPalladioL-Roma-6f" transform="scale(0.015625)"/>
       <path d="M 2624 -7 
C 3014 -7 3021 -7 3130 -7 
C 3219 -7 3219 -7 3661 -7 
L 3661 179 
L 3398 205 
C 3181 205 3162 244 3162 654 
L 3162 1892 
C 3162 2642 2810 3008 2093 3008 
C 1856 3008 1722 2963 1587 2847 
L 1101 2424 
L 1101 2982 
L 1043 3008 
C 717 2873 384 2783 45 2745 
L 45 2565 
L 282 2565 
C 538 2565 563 2520 563 2094 
L 563 643 
C 563 237 544 192 326 192 
L 38 192 
L 38 -7 
C 474 -7 646 -7 832 -7 
C 1018 -7 1190 -7 1626 -7 
L 1626 192 
L 1338 192 
C 1120 192 1101 237 1101 643 
L 1101 2011 
C 1101 2300 1523 2616 1914 2616 
C 2342 2616 2624 2297 2624 1806 
z
" id="URWPalladioL-Roma-6e" transform="scale(0.015625)"/>
       <path d="M 2637 2802 
C 2278 2956 2099 3008 1875 3008 
C 1702 3008 1549 2969 1389 2887 
L 826 2593 
C 461 2401 224 1935 224 1392 
C 224 881 397 460 710 204 
C 928 19 1229 -64 1645 -64 
C 1773 -64 1920 -38 1952 -13 
L 2662 583 
L 2630 -7 
C 2944 -7 3046 -7 3123 -7 
C 3174 -7 3264 -7 3398 -7 
C 3443 -7 3571 -7 3706 -7 
L 3706 192 
L 3411 192 
C 3194 192 3174 237 3174 643 
L 3174 4607 
L 3117 4659 
C 2835 4550 2624 4498 2118 4421 
L 2118 4242 
L 2477 4242 
C 2592 4242 2637 4171 2637 3978 
z
M 2637 1424 
C 2637 1009 2624 946 2541 799 
C 2362 499 2048 302 1747 302 
C 1184 302 781 844 781 1603 
C 781 2298 1126 2706 1702 2706 
C 1946 2706 2202 2623 2426 2470 
C 2560 2381 2637 2298 2637 2246 
z
" id="URWPalladioL-Roma-64" transform="scale(0.015625)"/>
       <path d="M 1568 4672 
C 1114 4672 1094 4672 947 4672 
C 794 4672 762 4672 326 4672 
L 288 4640 
L 288 4473 
L 314 4441 
L 557 4441 
C 730 4441 864 4403 941 4339 
C 1005 4281 1024 4191 1024 3973 
C 1024 3954 1024 3826 1030 3646 
L 1030 3409 
L 1030 112 
L 1030 -125 
C 1024 -311 1024 -427 1024 -446 
C 1024 -664 1005 -760 941 -818 
C 864 -882 730 -921 557 -921 
L 314 -921 
L 288 -953 
L 288 -1120 
L 326 -1152 
C 774 -1152 787 -1152 947 -1152 
C 1094 -1152 1126 -1152 1568 -1152 
L 1626 -1075 
C 1587 -921 1581 -722 1574 -228 
C 1574 -138 1574 -55 1568 28 
L 1568 112 
L 1568 3409 
L 1568 3492 
C 1574 3563 1574 3646 1574 3736 
C 1574 4230 1587 4441 1626 4595 
z
" id="URWPalladioL-Roma-5d" transform="scale(0.015625)"/>
      </defs>
      <use transform="scale(0.996264)" xlink:href="#URWPalladioL-Roma-54"/>
      <use transform="translate(55.591109 0)scale(0.996264)" xlink:href="#URWPalladioL-Roma-69"/>
      <use transform="translate(84.581471 0)scale(0.996264)" xlink:href="#URWPalladioL-Roma-6d"/>
      <use transform="translate(172.551145 0)scale(0.996264)" xlink:href="#URWPalladioL-Roma-65"/>
      <use transform="translate(245.17804 0)scale(0.996264)" xlink:href="#URWPalladioL-Roma-5b"/>
      <use transform="translate(278.35327 0)scale(0.996264)" xlink:href="#URWPalladioL-Roma-73"/>
      <use transform="translate(320.594736 0)scale(0.996264)" xlink:href="#URWPalladioL-Roma-65"/>
      <use transform="translate(368.315031 0)scale(0.996264)" xlink:href="#URWPalladioL-Roma-63"/>
      <use transform="translate(412.5486 0)scale(0.996264)" xlink:href="#URWPalladioL-Roma-6f"/>
      <use transform="translate(466.94418 0)scale(0.996264)" xlink:href="#URWPalladioL-Roma-6e"/>
      <use transform="translate(524.926241 0)scale(0.996264)" xlink:href="#URWPalladioL-Roma-64"/>
      <use transform="translate(585.797872 0)scale(0.996264)" xlink:href="#URWPalladioL-Roma-73"/>
      <use transform="translate(628.039338 0)scale(0.996264)" xlink:href="#URWPalladioL-Roma-5d"/>
     </g>
    </g>
   </g>
   <g id="matplotlib.axis_2">
    <g id="ytick_1">
     <g id="line2d_11">
      <path clip-path="url(#pf1da01f7a2)" d="M 67.531623 142.874248 
L 577.19952 142.874248 
" style="fill:none;stroke:#000000;stroke-linecap:square;stroke-opacity:0.2;stroke-width:0.5;"/>
     </g>
     <g id="line2d_12">
      <defs>
       <path d="M 0 0 
L -3.5 0 
" id="m8281936c7c" style="stroke:#000000;stroke-opacity:0.2;stroke-width:0.8;"/>
      </defs>
      <g>
       <use style="fill-opacity:0.2;stroke:#000000;stroke-opacity:0.2;stroke-width:0.8;" x="67.531623" xlink:href="#m8281936c7c" y="142.874248"/>
      </g>
     </g>
     <g id="text_7">
      <!-- $\mathdefault{−1.0}$ -->
      <g transform="translate(23.12516 147.864013)scale(0.14 -0.14)">
       <defs>
        <path d="M 4218 1472 
C 4326 1472 4442 1472 4442 1600 
C 4442 1728 4326 1728 4218 1728 
L 755 1728 
C 646 1728 531 1728 531 1600 
C 531 1472 646 1472 755 1472 
z
" id="CMSY10-0" transform="scale(0.015625)"/>
        <path d="M 794 744 
C 602 744 429 564 429 372 
C 429 179 602 0 787 0 
C 992 0 1171 173 1171 372 
C 1171 564 992 744 794 744 
z
" id="URWPalladioL-Roma-2e" transform="scale(0.015625)"/>
       </defs>
       <use transform="scale(1.038107)" xlink:href="#CMSY10-0"/>
       <use transform="translate(81.941696 0)scale(0.996264)" xlink:href="#URWPalladioL-Roma-31"/>
       <use transform="translate(131.754897 0)scale(0.996264)" xlink:href="#URWPalladioL-Roma-2e"/>
       <use transform="translate(156.661497 0)scale(0.996264)" xlink:href="#URWPalladioL-Roma-30"/>
      </g>
     </g>
    </g>
    <g id="ytick_2">
     <g id="line2d_13">
      <path clip-path="url(#pf1da01f7a2)" d="M 67.531623 110.554114 
L 577.19952 110.554114 
" style="fill:none;stroke:#000000;stroke-linecap:square;stroke-opacity:0.2;stroke-width:0.5;"/>
     </g>
     <g id="line2d_14">
      <g>
       <use style="fill-opacity:0.2;stroke:#000000;stroke-opacity:0.2;stroke-width:0.8;" x="67.531623" xlink:href="#m8281936c7c" y="110.554114"/>
      </g>
     </g>
     <g id="text_8">
      <!-- $\mathdefault{−0.5}$ -->
      <g transform="translate(23.12516 115.543879)scale(0.14 -0.14)">
       <defs>
        <path d="M 813 3877 
C 1638 3877 1997 3877 2765 3877 
L 2797 3907 
C 2784 4016 2784 4064 2784 4144 
C 2784 4229 2784 4277 2797 4386 
L 2765 4416 
C 2285 4416 1997 4416 1651 4416 
C 1299 4416 1018 4416 538 4416 
L 506 4403 
C 512 4011 518 3729 518 3523 
C 518 2977 499 2360 480 2077 
L 608 2038 
C 909 2341 1082 2432 1395 2432 
C 2010 2432 2394 1993 2394 1296 
C 2394 580 1984 160 1286 160 
C 941 160 621 277 531 444 
L 237 973 
L 83 883 
C 230 516 307 310 397 27 
C 576 -71 832 -128 1107 -128 
C 1536 -128 1990 59 2342 368 
C 2733 716 2938 1154 2938 1630 
C 2938 2359 2419 2874 1690 2874 
C 1382 2874 1152 2791 755 2554 
z
" id="URWPalladioL-Roma-35" transform="scale(0.015625)"/>
       </defs>
       <use transform="scale(1.038107)" xlink:href="#CMSY10-0"/>
       <use transform="translate(81.941696 0)scale(0.996264)" xlink:href="#URWPalladioL-Roma-30"/>
       <use transform="translate(131.754897 0)scale(0.996264)" xlink:href="#URWPalladioL-Roma-2e"/>
       <use transform="translate(156.661497 0)scale(0.996264)" xlink:href="#URWPalladioL-Roma-35"/>
      </g>
     </g>
    </g>
    <g id="ytick_3">
     <g id="line2d_15">
      <path clip-path="url(#pf1da01f7a2)" d="M 67.531623 78.23398 
L 577.19952 78.23398 
" style="fill:none;stroke:#000000;stroke-linecap:square;stroke-opacity:0.2;stroke-width:0.5;"/>
     </g>
     <g id="line2d_16">
      <g>
       <use style="fill-opacity:0.2;stroke:#000000;stroke-opacity:0.2;stroke-width:0.8;" x="67.531623" xlink:href="#m8281936c7c" y="78.23398"/>
      </g>
     </g>
     <g id="text_9">
      <!-- $\mathdefault{0.0}$ -->
      <g transform="translate(34.597002 83.223745)scale(0.14 -0.14)">
       <use transform="scale(0.996264)" xlink:href="#URWPalladioL-Roma-30"/>
       <use transform="translate(49.8132 0)scale(0.996264)" xlink:href="#URWPalladioL-Roma-2e"/>
       <use transform="translate(74.719801 0)scale(0.996264)" xlink:href="#URWPalladioL-Roma-30"/>
      </g>
     </g>
    </g>
    <g id="ytick_4">
     <g id="line2d_17">
      <path clip-path="url(#pf1da01f7a2)" d="M 67.531623 45.913846 
L 577.19952 45.913846 
" style="fill:none;stroke:#000000;stroke-linecap:square;stroke-opacity:0.2;stroke-width:0.5;"/>
     </g>
     <g id="line2d_18">
      <g>
       <use style="fill-opacity:0.2;stroke:#000000;stroke-opacity:0.2;stroke-width:0.8;" x="67.531623" xlink:href="#m8281936c7c" y="45.913846"/>
      </g>
     </g>
     <g id="text_10">
      <!-- $\mathdefault{0.5}$ -->
      <g transform="translate(34.597002 50.90361)scale(0.14 -0.14)">
       <use transform="scale(0.996264)" xlink:href="#URWPalladioL-Roma-30"/>
       <use transform="translate(49.8132 0)scale(0.996264)" xlink:href="#URWPalladioL-Roma-2e"/>
       <use transform="translate(74.719801 0)scale(0.996264)" xlink:href="#URWPalladioL-Roma-35"/>
      </g>
     </g>
    </g>
    <g id="ytick_5">
     <g id="line2d_19">
      <path clip-path="url(#pf1da01f7a2)" d="M 67.531623 13.593712 
L 577.19952 13.593712 
" style="fill:none;stroke:#000000;stroke-linecap:square;stroke-opacity:0.2;stroke-width:0.5;"/>
     </g>
     <g id="line2d_20">
      <g>
       <use style="fill-opacity:0.2;stroke:#000000;stroke-opacity:0.2;stroke-width:0.8;" x="67.531623" xlink:href="#m8281936c7c" y="13.593712"/>
      </g>
     </g>
     <g id="text_11">
      <!-- $\mathdefault{1.0}$ -->
      <g transform="translate(34.597002 18.583476)scale(0.14 -0.14)">
       <use transform="scale(0.996264)" xlink:href="#URWPalladioL-Roma-31"/>
       <use transform="translate(49.8132 0)scale(0.996264)" xlink:href="#URWPalladioL-Roma-2e"/>
       <use transform="translate(74.719801 0)scale(0.996264)" xlink:href="#URWPalladioL-Roma-30"/>
      </g>
     </g>
    </g>
    <g id="text_12">
     <!-- Voltage -->
     <g transform="translate(15.753876 97.310393)rotate(-90)scale(0.12 -0.12)">
      <defs>
       <path d="M 1754 4224 
L 1754 4417 
C 1050 4417 1050 4417 902 4417 
C 755 4417 755 4417 51 4417 
L 51 4237 
L 282 4218 
C 416 4205 480 4147 563 3955 
L 1766 994 
C 1965 507 2042 283 2138 -64 
L 2458 -64 
C 2579 334 2656 545 2867 1058 
L 3981 3756 
C 4128 4103 4198 4199 4326 4218 
L 4518 4237 
L 4518 4417 
L 3827 4417 
C 3712 4417 3565 4417 3379 4417 
C 3347 4417 3238 4417 3136 4417 
L 3136 4224 
L 3469 4224 
C 3610 4224 3693 4159 3693 4062 
C 3693 3998 3674 3908 3635 3812 
L 2464 769 
L 1203 4030 
C 1197 4056 1190 4076 1190 4102 
C 1190 4179 1267 4224 1395 4224 
z
" id="URWPalladioL-Roma-56" transform="scale(0.015625)"/>
       <path d="M 147 4256 
L 506 4256 
C 621 4256 666 4185 666 3992 
L 666 651 
C 666 244 646 199 429 199 
L 134 199 
L 134 0 
C 774 0 774 0 934 0 
C 1094 0 1094 0 1734 0 
L 1734 199 
L 1440 199 
C 1222 199 1203 244 1203 650 
L 1203 4621 
L 1146 4673 
C 864 4564 653 4512 147 4435 
z
" id="URWPalladioL-Roma-6c" transform="scale(0.015625)"/>
       <path d="M 627 2476 
L 627 619 
C 627 142 838 -64 1331 -64 
C 1478 -64 1632 -32 1670 13 
L 1978 353 
L 1894 463 
C 1734 372 1638 340 1517 340 
C 1267 340 1165 470 1165 788 
L 1165 2489 
L 1984 2489 
L 2042 2816 
L 1165 2816 
L 1165 3056 
C 1165 3321 1184 3547 1235 3951 
L 1158 4021 
C 1005 3925 813 3842 614 3778 
C 634 3585 640 3463 640 3271 
L 640 2822 
L 141 2598 
L 141 2476 
z
" id="URWPalladioL-Roma-74" transform="scale(0.015625)"/>
       <path d="M 2074 538 
L 2042 -1 
C 2458 -1 2458 -1 2541 -1 
C 2573 -1 2733 -1 3014 -1 
L 3014 192 
L 2765 192 
C 2611 192 2586 244 2586 558 
L 2586 1731 
C 2586 2668 2317 3008 1574 3008 
C 1299 3008 1043 2937 800 2791 
L 461 2585 
L 461 2171 
L 627 2126 
L 710 2323 
C 845 2623 909 2668 1203 2668 
C 1805 2668 2054 2431 2074 1852 
L 1440 1736 
C 570 1577 205 1277 205 722 
C 205 224 506 -64 1011 -64 
C 1126 -64 1235 -45 1280 -13 
z
M 2074 806 
C 1888 544 1485 302 1235 302 
C 979 302 755 538 755 812 
C 755 1048 883 1271 1075 1392 
C 1235 1488 1587 1577 2074 1648 
z
" id="URWPalladioL-Roma-61" transform="scale(0.015625)"/>
       <path d="M 3322 2432 
L 3482 2695 
L 3456 2759 
L 2547 2759 
C 2310 2937 2080 3008 1766 3008 
C 1485 3008 1158 2920 896 2768 
C 538 2567 352 2258 352 1874 
C 352 1408 646 1087 1120 1036 
L 614 640 
C 550 543 518 459 518 361 
C 518 180 634 76 941 -14 
L 384 -316 
C 294 -367 205 -604 205 -803 
C 205 -1388 774 -1792 1587 -1792 
C 2554 -1792 3315 -1182 3315 -399 
C 3315 63 3008 384 2560 384 
L 1536 384 
C 1203 384 1050 462 1050 639 
C 1050 724 1101 795 1267 939 
C 1306 972 1318 985 1344 1011 
C 1408 1004 1446 998 1498 998 
C 1773 998 2112 1118 2374 1300 
C 2662 1507 2803 1759 2803 2093 
C 2803 2218 2784 2300 2733 2432 
z
M 1536 2790 
C 1971 2790 2266 2438 2266 1905 
C 2266 1499 1997 1216 1606 1216 
C 1178 1216 890 1542 890 2025 
C 890 2507 1126 2790 1536 2790 
z
M 1837 -65 
C 2560 -65 2810 -212 2810 -630 
C 2810 -1182 2304 -1593 1632 -1593 
C 1075 -1593 691 -1266 691 -790 
C 691 -502 858 -238 1114 -129 
C 1216 -78 1395 -65 1837 -65 
z
" id="URWPalladioL-Roma-67" transform="scale(0.015625)"/>
      </defs>
      <use transform="scale(0.996264)" xlink:href="#URWPalladioL-Roma-56"/>
      <use transform="translate(60.871539 0)scale(0.996264)" xlink:href="#URWPalladioL-Roma-6f"/>
      <use transform="translate(115.26712 0)scale(0.996264)" xlink:href="#URWPalladioL-Roma-6c"/>
      <use transform="translate(144.257481 0)scale(0.996264)" xlink:href="#URWPalladioL-Roma-74"/>
      <use transform="translate(176.734569 0)scale(0.996264)" xlink:href="#URWPalladioL-Roma-61"/>
      <use transform="translate(226.547769 0)scale(0.996264)" xlink:href="#URWPalladioL-Roma-67"/>
      <use transform="translate(281.939446 0)scale(0.996264)" xlink:href="#URWPalladioL-Roma-65"/>
     </g>
    </g>
   </g>
   <g id="line2d_21">
    <path clip-path="url(#pf1da01f7a2)" d="M 67.531623 13.593712 
L 67.93952 13.778175 
L 68.347418 14.330495 
L 68.755315 15.247464 
L 69.367161 17.294412 
L 69.979007 20.122622 
L 70.794802 25.043646 
L 71.814546 32.877743 
L 73.038239 44.364681 
L 74.669828 62.220753 
L 79.156701 113.191259 
L 80.380393 124.212516 
L 81.400137 131.583315 
L 82.215932 136.102914 
L 83.031727 139.288748 
L 83.643573 140.760602 
L 84.05147 141.294665 
L 84.459368 141.467947 
L 84.867265 141.2802 
L 85.275163 140.733275 
L 85.68306 139.831106 
L 86.294907 137.825418 
L 86.906753 135.063032 
L 87.722548 130.270547 
L 88.742291 122.665617 
L 89.965984 111.554758 
L 91.597574 94.358793 
L 95.880497 47.646018 
L 97.10419 36.89057 
L 98.123933 29.611248 
L 98.939728 25.071244 
L 99.755523 21.777028 
L 100.36737 20.16445 
L 100.775267 19.507939 
L 101.183164 19.189287 
L 101.591062 19.208864 
L 101.998959 19.56507 
L 102.406857 20.254351 
L 103.018703 21.900285 
L 103.630549 24.256482 
L 104.446344 28.440323 
L 105.466088 35.189354 
L 106.68978 45.162555 
L 108.32137 60.729805 
L 112.808243 105.253757 
L 114.031935 114.914604 
L 115.051679 121.414555 
L 115.867474 125.443906 
L 116.683269 128.34548 
L 117.295115 129.749471 
L 117.703012 130.310607 
L 118.11091 130.570259 
L 118.518807 130.529055 
L 118.926705 130.189383 
L 119.334602 129.555363 
L 119.946448 128.065611 
L 120.558295 125.953598 
L 121.37409 122.23024 
L 122.393833 116.264712 
L 123.617526 107.509319 
L 125.249116 93.94986 
L 129.532039 57.306361 
L 130.755732 48.916392 
L 131.775475 43.237667 
L 132.59127 39.684028 
L 133.407065 37.081362 
L 134.018911 35.778985 
L 134.630758 35.04341 
L 135.038655 34.868558 
L 135.446553 34.944388 
L 135.85445 35.267746 
L 136.262347 35.834036 
L 136.874194 37.12549 
L 137.48604 38.923891 
L 138.301835 42.053817 
L 139.321579 47.010141 
L 140.545271 54.202036 
L 142.38081 66.637981 
L 145.847938 90.482435 
L 147.275579 98.577117 
L 148.295323 103.26787 
L 149.315067 106.888467 
L 150.130862 108.950532 
L 150.742708 109.991809 
L 151.354554 110.595326 
L 151.762452 110.755414 
L 152.170349 110.72408 
L 152.578247 110.504657 
L 153.190093 109.83286 
L 153.801939 108.767526 
L 154.617734 106.777762 
L 155.433529 104.202457 
L 156.453273 100.286228 
L 157.880914 93.831984 
L 163.183581 68.567351 
L 164.407273 64.247236 
L 165.427017 61.439593 
L 166.242812 59.761941 
L 167.058607 58.609258 
L 167.670453 58.091438 
L 168.282299 57.86668 
L 168.894146 57.92666 
L 169.505992 58.259039 
L 170.117838 58.847773 
L 170.933633 59.997579 
L 171.953377 61.943907 
L 173.177069 64.864419 
L 175.012608 69.956981 
L 177.86789 77.893583 
L 179.295531 81.17399 
L 180.315275 83.054533 
L 181.335019 84.491037 
L 182.150814 85.303824 
L 182.966609 85.81657 
L 183.782404 86.039069 
L 184.598198 85.99048 
L 185.413993 85.698334 
L 186.433737 85.044044 
L 187.65743 83.941751 
L 190.104814 81.297867 
L 191.736404 79.708107 
L 192.960097 78.831967 
L 193.97984 78.386185 
L 194.795635 78.240103 
L 195.61143 78.288983 
L 196.427225 78.530596 
L 197.446969 79.08601 
L 198.670661 80.068885 
L 200.302251 81.73986 
L 202.953585 84.527791 
L 204.177277 85.471523 
L 204.993072 85.872836 
L 205.808867 86.047123 
L 206.624662 85.963112 
L 207.440457 85.597319 
L 208.256252 84.935161 
L 209.072047 83.971807 
L 210.091791 82.353414 
L 211.111534 80.307617 
L 212.335227 77.373486 
L 214.170766 72.312707 
L 217.229997 63.832585 
L 218.453689 61.104037 
L 219.473433 59.373232 
L 220.289228 58.427692 
L 220.901074 58.007905 
L 221.51292 57.855565 
L 222.124766 57.984282 
L 222.736613 58.403748 
L 223.348459 59.119471 
L 224.164254 60.535881 
L 224.980049 62.470465 
L 225.999792 65.578601 
L 227.223485 70.210652 
L 228.651126 76.598665 
L 231.30246 89.821037 
L 233.341947 99.424334 
L 234.565639 104.202457 
L 235.585383 107.333063 
L 236.401178 109.164955 
L 237.013024 110.101585 
L 237.62487 110.637627 
L 238.032768 110.763493 
L 238.440665 110.699462 
L 238.848563 110.442769 
L 239.460409 109.693301 
L 240.072255 108.50662 
L 240.88805 106.255083 
L 241.703845 103.26787 
L 242.723589 98.577117 
L 243.947281 91.732524 
L 245.578871 81.076155 
L 250.269692 49.274138 
L 251.493385 42.95763 
L 252.513128 38.923891 
L 253.328923 36.637266 
L 253.94077 35.520867 
L 254.348667 35.07538 
L 254.756565 34.875301 
L 255.164462 34.924509 
L 255.572359 35.225425 
L 255.980257 35.778985 
L 256.592103 37.081362 
L 257.203949 38.942197 
L 258.019744 42.263242 
L 259.039488 47.677648 
L 260.059232 54.339225 
L 261.486873 65.341972 
L 263.730309 84.907663 
L 266.177694 105.912074 
L 267.605335 116.264712 
L 268.625079 122.23024 
L 269.440874 125.953598 
L 270.256669 128.632813 
L 270.868515 129.908842 
L 271.276412 130.39631 
L 271.68431 130.587156 
L 272.092207 130.478121 
L 272.500105 130.067695 
L 272.908002 129.356135 
L 273.519848 127.729114 
L 274.131695 125.443906 
L 274.94749 121.414555 
L 275.967233 114.914604 
L 277.190926 105.253757 
L 278.618567 92.019048 
L 284.125183 38.308698 
L 285.144927 30.949075 
L 286.16467 25.193834 
L 286.980465 21.900285 
L 287.592311 20.254351 
L 288.000209 19.56507 
L 288.408106 19.208864 
L 288.816004 19.189287 
L 289.223901 19.507939 
L 289.631799 20.16445 
L 290.243645 21.777028 
L 290.855491 24.127821 
L 291.671286 28.364166 
L 292.487081 33.777643 
L 293.506825 42.020512 
L 294.730517 53.696616 
L 296.566056 73.61077 
L 299.829236 109.529723 
L 301.256877 122.665617 
L 302.276621 130.270547 
L 303.092416 135.063032 
L 303.90821 138.579679 
L 304.520057 140.32627 
L 304.927954 141.051438 
L 305.335852 141.419135 
L 305.743749 141.426468 
L 306.151647 141.072633 
L 306.559544 140.358928 
L 307.17139 138.621609 
L 307.783237 136.102914 
L 308.599031 131.583315 
L 309.414826 125.829399 
L 310.43457 117.099522 
L 311.862211 102.573653 
L 313.901699 79.041731 
L 316.553032 48.605486 
L 317.980673 34.646998 
L 319.000417 26.46776 
L 320.020161 20.122622 
L 320.835956 16.523755 
L 321.447802 14.743682 
L 321.855699 14.008504 
L 322.263597 13.639844 
L 322.671494 13.639844 
L 323.079392 14.008504 
L 323.487289 14.743682 
L 324.099136 16.523755 
L 324.710982 19.095152 
L 325.526777 23.695175 
L 326.54652 31.172768 
L 327.770213 42.314216 
L 329.197854 57.559411 
L 334.70447 118.969652 
L 335.928162 128.853266 
L 336.743957 134.00433 
L 337.559752 137.867567 
L 338.171599 139.868104 
L 338.783445 141.072633 
L 339.191342 141.426468 
L 339.59924 141.419135 
L 340.007137 141.051438 
L 340.415035 140.32627 
L 341.026881 138.579679 
L 341.638727 136.065728 
L 342.454522 131.582388 
L 343.474266 124.318587 
L 344.697958 113.535055 
L 346.329548 96.61067 
L 351.020369 45.720006 
L 352.244061 35.301923 
L 353.263805 28.364166 
L 354.0796 24.127821 
L 354.691446 21.777028 
L 355.303293 20.16445 
L 355.71119 19.507939 
L 356.119088 19.189287 
L 356.526985 19.208864 
L 356.934882 19.56507 
L 357.34278 20.254351 
L 357.954626 21.900285 
L 358.566472 24.256482 
L 359.382267 28.440323 
L 360.402011 35.189354 
L 361.625703 45.162555 
L 363.257293 60.729805 
L 367.744166 105.253757 
L 368.967858 114.914604 
L 369.987602 121.414555 
L 370.803397 125.443906 
L 371.619192 128.34548 
L 372.231038 129.749471 
L 372.638935 130.310607 
L 373.046833 130.570259 
L 373.45473 130.529055 
L 373.862628 130.189383 
L 374.270525 129.555363 
L 374.882371 128.065611 
L 375.494218 125.953598 
L 376.310013 122.23024 
L 377.329756 116.264712 
L 378.553449 107.509319 
L 380.185039 93.94986 
L 384.467962 57.306361 
L 385.691655 48.916392 
L 386.711398 43.237667 
L 387.527193 39.684028 
L 388.342988 37.081362 
L 388.954834 35.778985 
L 389.566681 35.04341 
L 389.974578 34.868558 
L 390.382476 34.944388 
L 390.790373 35.267746 
L 391.198271 35.834036 
L 391.810117 37.12549 
L 392.421963 38.923891 
L 393.237758 42.053817 
L 394.257502 47.010141 
L 395.481194 54.202036 
L 397.316733 66.637981 
L 400.783861 90.482435 
L 402.211502 98.577117 
L 403.231246 103.26787 
L 404.25099 106.888467 
L 405.066785 108.950532 
L 405.678631 109.991809 
L 406.290477 110.595326 
L 406.698375 110.755414 
L 407.106272 110.72408 
L 407.51417 110.504657 
L 408.126016 109.83286 
L 408.737862 108.767526 
L 409.553657 106.777762 
L 410.369452 104.202457 
L 411.389196 100.286228 
L 412.816837 93.831984 
L 418.119504 68.567351 
L 419.343196 64.247236 
L 420.36294 61.439593 
L 421.178735 59.761941 
L 421.99453 58.609258 
L 422.606376 58.091438 
L 423.218222 57.86668 
L 423.830069 57.92666 
L 424.441915 58.259039 
L 425.053761 58.847773 
L 425.869556 59.997579 
L 426.8893 61.943907 
L 428.112992 64.864419 
L 429.948531 69.956981 
L 432.803813 77.893583 
L 434.231454 81.17399 
L 435.251198 83.054533 
L 436.270942 84.491037 
L 437.086737 85.303824 
L 437.902532 85.81657 
L 438.718327 86.039069 
L 439.534122 85.99048 
L 440.349917 85.698334 
L 441.36966 85.044044 
L 442.593353 83.941751 
L 445.040737 81.297867 
L 446.672327 79.708107 
L 447.89602 78.831967 
L 448.915764 78.386185 
L 449.731558 78.240103 
L 450.547353 78.288983 
L 451.363148 78.530596 
L 452.382892 79.08601 
L 453.606585 80.068885 
L 455.238174 81.73986 
L 457.889508 84.527791 
L 459.1132 85.471523 
L 459.928995 85.872836 
L 460.74479 86.047123 
L 461.560585 85.963112 
L 462.37638 85.597319 
L 463.192175 84.935161 
L 464.00797 83.971807 
L 465.027714 82.353414 
L 466.047458 80.307617 
L 467.27115 77.373486 
L 469.106689 72.312707 
L 472.16592 63.832585 
L 473.389612 61.104037 
L 474.409356 59.373232 
L 475.225151 58.427692 
L 475.836997 58.007905 
L 476.448843 57.855565 
L 477.060689 57.984282 
L 477.672536 58.403748 
L 478.284382 59.119471 
L 479.100177 60.535881 
L 479.915972 62.470465 
L 480.935715 65.578601 
L 482.159408 70.210652 
L 483.587049 76.598665 
L 486.238383 89.821037 
L 488.27787 99.424334 
L 489.501562 104.202457 
L 490.521306 107.333063 
L 491.337101 109.164955 
L 491.948947 110.101585 
L 492.560794 110.637627 
L 492.968691 110.763493 
L 493.376588 110.699462 
L 493.784486 110.442769 
L 494.396332 109.693301 
L 495.008178 108.50662 
L 495.823973 106.255083 
L 496.639768 103.26787 
L 497.659512 98.577117 
L 498.883204 91.732524 
L 500.514794 81.076155 
L 505.205615 49.274138 
L 506.429308 42.95763 
L 507.449051 38.923891 
L 508.264846 36.637266 
L 508.876693 35.520867 
L 509.28459 35.07538 
L 509.692488 34.875301 
L 510.100385 34.924509 
L 510.508283 35.225425 
L 510.91618 35.778985 
L 511.528026 37.081362 
L 512.139872 38.942197 
L 512.955667 42.263242 
L 513.975411 47.677648 
L 514.995155 54.339225 
L 516.422796 65.341972 
L 518.666232 84.907663 
L 521.113617 105.912074 
L 522.541258 116.264712 
L 523.561002 122.23024 
L 524.376797 125.953598 
L 525.192592 128.632813 
L 525.804438 129.908842 
L 526.212335 130.39631 
L 526.620233 130.587156 
L 527.02813 130.478121 
L 527.436028 130.067695 
L 527.843925 129.356135 
L 528.455772 127.729114 
L 529.067618 125.443906 
L 529.883413 121.414555 
L 530.903156 114.914604 
L 532.126849 105.253757 
L 533.55449 92.019048 
L 539.061106 38.308698 
L 540.08085 30.949075 
L 541.100593 25.193834 
L 541.916388 21.900285 
L 542.528234 20.254351 
L 542.936132 19.56507 
L 543.344029 19.208864 
L 543.751927 19.189287 
L 544.159824 19.507939 
L 544.567722 20.16445 
L 545.179568 21.777028 
L 545.791414 24.127821 
L 546.607209 28.364166 
L 547.423004 33.777643 
L 548.442748 42.020512 
L 549.66644 53.696616 
L 551.501979 73.61077 
L 554.765159 109.529723 
L 556.1928 122.665617 
L 557.212544 130.270547 
L 558.028339 135.063032 
L 558.844134 138.579679 
L 559.45598 140.32627 
L 559.863877 141.051438 
L 560.271775 141.419135 
L 560.679672 141.426468 
L 561.08757 141.072633 
L 561.495467 140.358928 
L 562.107313 138.621609 
L 562.71916 136.102914 
L 563.534955 131.583315 
L 564.350749 125.829399 
L 565.370493 117.099522 
L 566.798134 102.573653 
L 568.837622 79.041731 
L 571.488955 48.605486 
L 572.916596 34.646998 
L 573.93634 26.46776 
L 574.956084 20.122622 
L 575.771879 16.523755 
L 576.383725 14.743682 
L 576.791623 14.008504 
L 577.19952 13.639844 
L 577.19952 13.639844 
" style="fill:none;stroke:#0271ae;stroke-linecap:square;stroke-width:3;"/>
   </g>
  </g>
 </g>
 <defs>
  <clipPath id="pf1da01f7a2">
   <rect height="140.661659" width="509.667897" x="67.531623" y="7.2"/>
  </clipPath>
 </defs>
</svg>
