<?xml version="1.0" encoding="utf-8" standalone="no"?>
<!DOCTYPE svg PUBLIC "-//W3C//DTD SVG 1.1//EN"
  "http://www.w3.org/Graphics/SVG/1.1/DTD/svg11.dtd">
<svg height="200.39952pt" version="1.1" viewBox="0 0 584.39952 200.39952" width="584.39952pt" xmlns="http://www.w3.org/2000/svg" xmlns:xlink="http://www.w3.org/1999/xlink">
 <metadata>
  <rdf:RDF xmlns:cc="http://creativecommons.org/ns#" xmlns:dc="http://purl.org/dc/elements/1.1/" xmlns:rdf="http://www.w3.org/1999/02/22-rdf-syntax-ns#">
   <cc:Work>
    <dc:type rdf:resource="http://purl.org/dc/dcmitype/StillImage"/>
    <dc:date>2020-07-15T06:50:10.838038</dc:date>
    <dc:format>image/svg+xml</dc:format>
    <dc:creator>
     <cc:Agent>
      <dc:title>Matplotlib v3.3.0rc1.post282+g187e87b5f, https://matplotlib.org/</dc:title>
     </cc:Agent>
    </dc:creator>
   </cc:Work>
  </rdf:RDF>
 </metadata>
 <defs>
  <style type="text/css">*{stroke-linecap:butt;stroke-linejoin:round;}</style>
 </defs>
 <g id="figure_1">
  <g id="patch_1">
   <path d="M 0 200.39952 
L 584.39952 200.39952 
L 584.39952 0 
L 0 0 
z
" style="fill:none;"/>
  </g>
  <g id="axes_1">
   <g id="patch_2">
    <path d="M 67.531623 147.861659 
L 577.19952 147.861659 
L 577.19952 7.2 
L 67.531623 7.2 
z
" style="fill:none;"/>
   </g>
   <g id="matplotlib.axis_1">
    <g id="xtick_1">
     <g id="line2d_1">
      <path clip-path="url(#p1bbe808448)" d="M 67.531623 147.861659 
L 67.531623 7.2 
" style="fill:none;stroke:#000000;stroke-linecap:square;stroke-opacity:0.2;stroke-width:0.5;"/>
     </g>
     <g id="line2d_2">
      <defs>
       <path d="M 0 0 
L 0 3.5 
" id="m44f811f0d3" style="stroke:#000000;stroke-opacity:0.2;stroke-width:0.8;"/>
      </defs>
      <g>
       <use style="fill-opacity:0.2;stroke:#000000;stroke-opacity:0.2;stroke-width:0.8;" x="67.531623" xlink:href="#m44f811f0d3" y="147.861659"/>
      </g>
     </g>
     <g id="text_1">
      <!-- $\mathdefault{0}$ -->
      <g transform="translate(64.044699 173.341188)scale(0.14 -0.14)">
       <defs>
        <path d="M 26.296875 69 
C 10.796875 69 2.90625 56.6875 2.90625 32.453125 
C 2.90625 20.71875 5 10.625 8.5 5.71875 
C 12 0.796875 17.59375 -2 23.796875 -2 
C 38.90625 -2 46.5 11.015625 46.5 36.65625 
C 46.5 58.578125 40 69 26.296875 69 
z
M 24.5 65.5 
C 34.203125 65.5 38.09375 55.6875 38.09375 31.640625 
C 38.09375 10.328125 34.296875 1.5 25.09375 1.5 
C 15.40625 1.5 11.296875 11.625 11.296875 36.0625 
C 11.296875 57.1875 15 65.5 24.5 65.5 
z
" id="URW_Palladio_L_Roman-48"/>
       </defs>
       <use transform="scale(0.996264)" xlink:href="#URW_Palladio_L_Roman-48"/>
      </g>
     </g>
    </g>
    <g id="xtick_2">
     <g id="line2d_3">
      <path clip-path="url(#p1bbe808448)" d="M 169.505992 147.861659 
L 169.505992 7.2 
" style="fill:none;stroke:#000000;stroke-linecap:square;stroke-opacity:0.2;stroke-width:0.5;"/>
     </g>
     <g id="line2d_4">
      <g>
       <use style="fill-opacity:0.2;stroke:#000000;stroke-opacity:0.2;stroke-width:0.8;" x="169.505992" xlink:href="#m44f811f0d3" y="147.861659"/>
      </g>
     </g>
     <g id="text_2">
      <!-- $\mathdefault{1}$ -->
      <g transform="translate(166.019068 173.341188)scale(0.14 -0.14)">
       <defs>
        <path d="M 6.703125 56 
L 7.703125 56 
L 20.59375 61.8125 
C 20.703125 61.90625 20.796875 61.90625 20.90625 61.90625 
C 21.5 61.90625 21.703125 61.015625 21.703125 58.609375 
L 21.703125 9.578125 
C 21.703125 4.3125 20.59375 3.203125 15.203125 3.203125 
L 9.59375 3.203125 
L 9.59375 0 
C 25 0 25 0 26.09375 0 
C 27.40625 0 29.59375 0 33 0 
C 34.203125 0 37.703125 0 41.796875 0 
L 41.796875 3.203125 
L 36.59375 3.203125 
C 31.09375 3.203125 30.09375 4.3125 30.09375 9.5625 
L 30.09375 69.421875 
L 28.703125 69.921875 
C 22.203125 66.515625 15.09375 63.515625 6 60.3125 
z
" id="URW_Palladio_L_Roman-49"/>
       </defs>
       <use transform="scale(0.996264)" xlink:href="#URW_Palladio_L_Roman-49"/>
      </g>
     </g>
    </g>
    <g id="xtick_3">
     <g id="line2d_5">
      <path clip-path="url(#p1bbe808448)" d="M 271.480361 147.861659 
L 271.480361 7.2 
" style="fill:none;stroke:#000000;stroke-linecap:square;stroke-opacity:0.2;stroke-width:0.5;"/>
     </g>
     <g id="line2d_6">
      <g>
       <use style="fill-opacity:0.2;stroke:#000000;stroke-opacity:0.2;stroke-width:0.8;" x="271.480361" xlink:href="#m44f811f0d3" y="147.861659"/>
      </g>
     </g>
     <g id="text_3">
      <!-- $\mathdefault{2}$ -->
      <g transform="translate(267.993437 173.341188)scale(0.14 -0.14)">
       <defs>
        <path d="M 1.59375 2.5 
L 1.59375 0 
C 20.296875 0 20.296875 0 23.90625 0 
C 27.5 0 27.5 0 46.796875 0 
C 46.59375 1.953125 46.59375 2.90625 46.59375 4.203125 
C 46.59375 5.4375 46.59375 6.359375 46.796875 8.421875 
C 35.296875 8.421875 30.703125 8.421875 12.203125 8.421875 
L 30.40625 27.515625 
C 40.09375 37.71875 43.09375 43.171875 43.09375 50.59375 
C 43.09375 61.96875 35.296875 69 22.59375 69 
C 15.40625 69 10.5 67 5.59375 62.015625 
L 3.90625 48.421875 
L 6.796875 48.421875 
L 8.09375 53.015625 
C 9.703125 58.796875 13.296875 61.296875 20 61.296875 
C 28.59375 61.296875 34.09375 55.890625 34.09375 47.421875 
C 34.09375 39.921875 29.90625 32.546875 18.59375 20.5625 
z
" id="URW_Palladio_L_Roman-50"/>
       </defs>
       <use transform="scale(0.996264)" xlink:href="#URW_Palladio_L_Roman-50"/>
      </g>
     </g>
    </g>
    <g id="xtick_4">
     <g id="line2d_7">
      <path clip-path="url(#p1bbe808448)" d="M 373.45473 147.861659 
L 373.45473 7.2 
" style="fill:none;stroke:#000000;stroke-linecap:square;stroke-opacity:0.2;stroke-width:0.5;"/>
     </g>
     <g id="line2d_8">
      <g>
       <use style="fill-opacity:0.2;stroke:#000000;stroke-opacity:0.2;stroke-width:0.8;" x="373.45473" xlink:href="#m44f811f0d3" y="147.861659"/>
      </g>
     </g>
     <g id="text_4">
      <!-- $\mathdefault{3}$ -->
      <g transform="translate(369.967806 173.341188)scale(0.14 -0.14)">
       <defs>
        <path d="M 4.296875 49.953125 
L 7.40625 49.953125 
L 9.203125 55.53125 
C 10.296875 58.90625 16.59375 62.296875 21.796875 62.296875 
C 28.296875 62.296875 33.59375 57.015625 33.59375 50.75 
C 33.59375 43.28125 27.703125 37 20.59375 37 
C 19.796875 37 18.703125 37 17.40625 37.203125 
L 15.90625 37.203125 
L 14.703125 31.984375 
L 15.40625 31.375 
C 19.203125 33.09375 21.09375 33.59375 23.796875 33.59375 
C 32.09375 33.59375 36.90625 28.265625 36.90625 19.09375 
C 36.90625 8.84375 30.796875 2.109375 21.5 2.109375 
C 16.90625 2.109375 12.796875 3.609375 9.796875 6.421875 
C 7.40625 8.640625 6.09375 10.953125 4.203125 16.390625 
L 1.5 15.390625 
C 3.59375 9.265625 4.40625 5.640625 5 0.609375 
C 10.296875 -1.203125 14.703125 -2 18.40625 -2 
C 26.40625 -2 35.59375 2.515625 41.09375 9.265625 
C 44.5 13.390625 46.203125 17.8125 46.203125 22.53125 
C 46.203125 27.359375 44.203125 31.59375 40.59375 34.09375 
C 38.09375 35.90625 35.796875 36.71875 30.796875 37.609375 
C 38.796875 43.796875 41.796875 48.375 41.796875 54.25 
C 41.796875 63.125 34.40625 69 23.296875 69 
C 16.5 69 12 67.109375 7.203125 62.328125 
z
" id="URW_Palladio_L_Roman-51"/>
       </defs>
       <use transform="scale(0.996264)" xlink:href="#URW_Palladio_L_Roman-51"/>
      </g>
     </g>
    </g>
    <g id="xtick_5">
     <g id="line2d_9">
      <path clip-path="url(#p1bbe808448)" d="M 475.4291 147.861659 
L 475.4291 7.2 
" style="fill:none;stroke:#000000;stroke-linecap:square;stroke-opacity:0.2;stroke-width:0.5;"/>
     </g>
     <g id="line2d_10">
      <g>
       <use style="fill-opacity:0.2;stroke:#000000;stroke-opacity:0.2;stroke-width:0.8;" x="475.4291" xlink:href="#m44f811f0d3" y="147.861659"/>
      </g>
     </g>
     <g id="text_5">
      <!-- $\mathdefault{4}$ -->
      <g transform="translate(471.942175 173.341188)scale(0.14 -0.14)">
       <defs>
        <path d="M 28 18 
L 28 10.515625 
C 28 4.515625 26.90625 3.109375 22 3.109375 
L 15.796875 3.109375 
L 15.796875 0 
C 29.09375 0 29.09375 0 31.5 0 
C 33.90625 0 33.90625 0 47.203125 0 
L 47.203125 3.109375 
L 42.40625 3.109375 
C 37.5 3.109375 36.40625 4.40625 36.40625 10.453125 
L 36.40625 18 
C 42.296875 18 44.40625 18 47.203125 17.703125 
L 47.203125 24.8125 
C 42.5 24.421875 40.59375 24.421875 39.09375 24.421875 
L 38.796875 24.421875 
L 36.40625 24.421875 
L 36.40625 38.390625 
C 36.40625 56.25 36.59375 64.875 37.09375 69 
L 35.90625 69.5 
L 28.5 66.796875 
L 0.203125 20.296875 
L 1.296875 18 
z
M 28 24.421875 
L 6.5 24.421875 
L 28 59.78125 
z
" id="URW_Palladio_L_Roman-52"/>
       </defs>
       <use transform="scale(0.996264)" xlink:href="#URW_Palladio_L_Roman-52"/>
      </g>
     </g>
    </g>
    <g id="text_6">
     <!-- Time [seconds] -->
     <g transform="translate(282.69272 189.828236)scale(0.12 -0.12)">
      <defs>
       <path d="M 25.5 64.28125 
C 25.796875 60.875 25.90625 58.578125 25.90625 54.265625 
L 25.90625 11.921875 
C 25.90625 4 25.40625 3.203125 20.796875 3.203125 
L 16 3.203125 
L 16 0 
C 21.90625 0 25.40625 0 30.59375 0 
C 35.796875 0 39.40625 0 45.296875 0 
L 45.296875 3.203125 
L 40.5 3.203125 
C 35.90625 3.203125 35.40625 4 35.40625 11.921875 
L 35.40625 54.265625 
C 35.40625 58.78125 35.5 60.984375 35.796875 64.28125 
L 51.296875 64.28125 
C 54.09375 64.28125 55.203125 63.390625 55.296875 61 
L 55.703125 53.125 
L 58.796875 53.125 
C 58.796875 59.53125 59 63.375 59.5 69 
C 52.296875 69 49 69 46.203125 69 
C 42.296875 69 39.40625 69 37.90625 69 
L 22.09375 69 
C 21.09375 69 15.703125 69 8.59375 69 
L 1.796875 69 
C 2.296875 63.375 2.5 59.53125 2.5 53.125 
L 5.59375 53.125 
L 6 61 
C 6.09375 63.390625 7.203125 64.28125 10 64.28125 
z
" id="URW_Palladio_L_Roman-84"/>
       <path d="M 18.796875 46.765625 
L 17.90625 47.171875 
C 12.796875 45.0625 7.59375 43.640625 2.296875 43.046875 
L 2.296875 40.25 
L 6 40.25 
C 10 40.25 10.40625 39.546875 10.40625 32.890625 
L 10.40625 10.171875 
C 10.40625 3.8125 10.09375 3.109375 6.703125 3.109375 
L 2.09375 3.109375 
L 2.09375 0 
C 12.09375 0 12.09375 0 14.59375 0 
C 17.09375 0 17.09375 0 27.09375 0 
L 27.09375 3.109375 
L 22.5 3.109375 
C 19.09375 3.109375 18.796875 3.8125 18.796875 10.171875 
z
M 14.203125 69 
C 11.203125 69 8.59375 66.390625 8.59375 63.375 
C 8.59375 60.46875 11.203125 57.875 14.09375 57.875 
C 17 57.875 19.703125 60.46875 19.703125 63.375 
C 19.703125 66.1875 17 69 14.203125 69 
z
" id="URW_Palladio_L_Roman-105"/>
       <path d="M 1.796875 40.078125 
L 5.5 40.078125 
C 9.5 40.078125 9.90625 39.375 9.90625 32.71875 
L 9.90625 10.046875 
C 9.90625 3.703125 9.59375 3 6.203125 3 
L 1.59375 3 
L 1.59375 -0.109375 
C 11.203125 -0.109375 11.5 -0.109375 14.296875 -0.109375 
C 17.09375 -0.109375 19.703125 -0.109375 26.203125 -0.109375 
L 26.203125 2.796875 
L 22 3.203125 
C 18.59375 3.203125 18.296875 3.90625 18.296875 10.21875 
L 18.296875 31.46875 
C 18.296875 35.96875 24.90625 40.875 30.90625 40.875 
C 36.296875 40.875 40 35.734375 40 28.09375 
L 40 10.046875 
C 40 3.703125 39.703125 3 36.296875 3 
L 31.703125 3 
L 31.703125 -0.109375 
C 41.703125 -0.109375 41.703125 -0.109375 44.203125 -0.109375 
C 46.703125 -0.109375 46.703125 -0.109375 56.703125 -0.109375 
L 56.703125 3 
L 52.09375 3 
C 48.703125 3 48.40625 3.703125 48.40625 10.046875 
L 48.40625 31.421875 
C 48.40625 35.9375 55 40.875 61 40.875 
C 66.40625 40.875 70.09375 35.796875 70.09375 28.21875 
L 70.09375 -0.109375 
C 76.203125 -0.109375 76.296875 -0.109375 78 -0.109375 
C 79.296875 -0.109375 79.296875 -0.109375 86.90625 -0.109375 
L 86.90625 3 
L 82.203125 3 
C 78.796875 3 78.5 3.703125 78.5 10.046875 
L 78.5 30.78125 
C 78.5 40.75 72.703125 47 63.5 47 
C 60 47 57.09375 46.09375 55.296875 44.484375 
L 47.703125 37.6875 
C 44.5 44.28125 40.40625 47 33.5 47 
C 29.796875 47 27 46.09375 25.203125 44.484375 
L 18.296875 38.078125 
L 18.296875 46.59375 
L 17.40625 47 
C 12.296875 44.890625 7.09375 43.484375 1.796875 42.890625 
z
" id="URW_Palladio_L_Roman-109"/>
       <path d="M 43.703125 6.984375 
L 42.40625 7.984375 
C 36 4.203125 33.703125 3.3125 29.40625 3.3125 
C 22.90625 3.3125 17.5 6.21875 14.703125 11.109375 
C 12.796875 14.390625 12.09375 17.203125 11.90625 23 
L 26.5 23 
C 33.40625 23 37.703125 23 44.59375 24.125 
C 44.703125 25.53125 44.796875 26.453125 44.796875 27.671875 
C 44.796875 39.375 37.40625 47 26.203125 47 
C 22.5 47 18.203125 45.6875 14.09375 43.28125 
C 5.90625 38.578125 2.59375 32.359375 2.59375 21.9375 
C 2.59375 15.625 4.09375 10.21875 6.796875 6.40625 
C 10.796875 1.109375 17.5 -2 25 -2 
C 28.703125 -2 32.40625 -1.203125 36.5 0.578125 
C 39.203125 1.6875 41.296875 2.984375 41.703125 3.59375 
z
M 35.90625 26.40625 
C 30.703125 26.40625 28.296875 26.40625 24.703125 26.40625 
C 20.09375 26.40625 17.5 26.40625 12.09375 26.90625 
C 12.09375 31.671875 12.5 33.890625 13.796875 36.515625 
C 15.90625 40.96875 20.203125 43.6875 25 43.6875 
C 28.296875 43.6875 30.90625 42.359375 32.703125 39.59375 
C 34.90625 36.234375 35.59375 33.265625 35.90625 26.40625 
z
" id="URW_Palladio_L_Roman-101"/>
       <path d="M 8.796875 -18 
C 15.90625 -18 16.09375 -18 18.5 -18 
C 20.90625 -18 21.40625 -18 28.203125 -18 
L 28.796875 -17.5 
L 28.796875 -14.890625 
L 28.40625 -14.390625 
L 24.59375 -14.390625 
C 21.90625 -14.390625 19.703125 -13.78125 18.5 -12.78125 
C 17.59375 -11.875 17.296875 -10.484375 17.296875 -7.171875 
C 17.296875 -7.078125 17.296875 -4.96875 17.203125 -1.953125 
L 17.203125 1.75 
L 17.203125 53.265625 
L 17.203125 56.96875 
C 17.296875 59.78125 17.296875 61.984375 17.296875 62.078125 
C 17.296875 65.390625 17.59375 66.890625 18.5 67.796875 
C 19.703125 68.796875 21.90625 69.390625 24.59375 69.390625 
L 28.40625 69.390625 
L 28.796875 69.890625 
L 28.796875 72.5 
L 28.203125 73 
C 21.203125 73 20.90625 73 18.5 73 
C 16.203125 73 15.703125 73 8.796875 73 
L 7.90625 71.796875 
C 8.5 69.296875 8.703125 65.984375 8.703125 58.28125 
C 8.703125 56.765625 8.703125 55.5625 8.796875 54.5625 
L 8.796875 53.265625 
L 8.796875 1.75 
L 8.796875 0.4375 
C 8.703125 -1.15625 8.703125 -1.265625 8.703125 -2.96875 
L 8.703125 -4.0625 
C 8.703125 -10.875 8.5 -13.6875 7.90625 -16.796875 
z
" id="URW_Palladio_L_Roman-91"/>
       <path d="M 4.09375 14.328125 
C 4.09375 7.421875 3.796875 4.40625 3 0.40625 
C 8.203125 -1.296875 12.09375 -2 16.703125 -2 
C 29.796875 -2 39.09375 5.015625 39.09375 14.828125 
C 39.09375 17.9375 38.203125 20.234375 36.296875 22.25 
C 33.703125 24.75 30.40625 25.953125 21.59375 27.65625 
C 13.40625 29.265625 10.703125 31.265625 10.703125 35.875 
C 10.703125 40.875 14.203125 43.6875 20.296875 43.6875 
C 27 43.6875 32.09375 40.1875 32.09375 35.46875 
L 32.09375 33.171875 
L 34.90625 33.171875 
C 35 38.984375 35.09375 41.375 35.40625 44.484375 
C 30.09375 46.296875 26.5 47 22.40625 47 
C 10.796875 47 3.703125 41.484375 3.703125 32.46875 
C 3.703125 27.65625 5.90625 24.25 10.5 22.140625 
C 13.203125 20.9375 18.5 19.34375 25.296875 17.828125 
C 29.796875 16.828125 31.703125 14.734375 31.703125 10.921875 
C 31.703125 5.515625 26.703125 1.703125 19.59375 1.703125 
C 12.296875 1.703125 7.09375 5.203125 7.09375 10.21875 
L 7.09375 14.328125 
z
" id="URW_Palladio_L_Roman-115"/>
       <path d="M 39.90625 31.15625 
C 39.90625 35.765625 40.40625 39.875 41.296875 43.484375 
C 37.296875 45.890625 33.796875 47 29.703125 47 
C 24.90625 47 19.296875 45.09375 13.296875 41.28125 
C 6.296875 36.875 2.59375 29.859375 2.59375 21.046875 
C 2.59375 7.515625 12.09375 -2 25.5 -2 
C 30.703125 -2 38.203125 -0.09375 39.203125 1.40625 
L 41.296875 4.609375 
L 40.296875 6.109375 
C 36.59375 4.109375 33.40625 3.203125 29.796875 3.203125 
C 18.703125 3.203125 11.40625 11.828125 11.40625 25.046875 
C 11.40625 35.765625 16.40625 41.78125 25.40625 41.78125 
C 29.796875 41.78125 34.59375 39.78125 36.40625 37.28125 
L 37.09375 31.15625 
z
" id="URW_Palladio_L_Roman-99"/>
       <path d="M 27.90625 47 
C 13.296875 47 3.203125 36.671875 3.203125 21.75 
C 3.203125 7.609375 12.09375 -2 25 -2 
C 40.40625 -2 51.40625 8.71875 51.40625 23.75 
C 51.40625 37.28125 41.59375 47 27.90625 47 
z
M 26.09375 43.6875 
C 35.296875 43.6875 42.09375 33.671875 42.09375 20.046875 
C 42.09375 8.515625 37 1.296875 28.90625 1.296875 
C 19.09375 1.296875 12.5 10.921875 12.5 25.15625 
C 12.5 37.171875 17.296875 43.6875 26.09375 43.6875 
z
" id="URW_Palladio_L_Roman-111"/>
       <path d="M 41 -0.109375 
C 47.09375 -0.109375 47.203125 -0.109375 48.90625 -0.109375 
C 50.296875 -0.109375 50.296875 -0.109375 57.203125 -0.109375 
L 57.203125 2.796875 
L 53.09375 3.203125 
C 49.703125 3.203125 49.40625 3.8125 49.40625 10.21875 
L 49.40625 29.5625 
C 49.40625 41.28125 43.90625 47 32.703125 47 
C 29 47 26.90625 46.296875 24.796875 44.484375 
L 17.203125 37.875 
L 17.203125 46.59375 
L 16.296875 47 
C 11.203125 44.890625 6 43.484375 0.703125 42.890625 
L 0.703125 40.078125 
L 4.40625 40.078125 
C 8.40625 40.078125 8.796875 39.375 8.796875 32.71875 
L 8.796875 10.046875 
C 8.796875 3.703125 8.5 3 5.09375 3 
L 0.59375 3 
L 0.59375 -0.109375 
C 7.40625 -0.109375 10.09375 -0.109375 13 -0.109375 
C 15.90625 -0.109375 18.59375 -0.109375 25.40625 -0.109375 
L 25.40625 3 
L 20.90625 3 
C 17.5 3 17.203125 3.703125 17.203125 10.046875 
L 17.203125 31.421875 
C 17.203125 35.9375 23.796875 40.875 29.90625 40.875 
C 36.59375 40.875 41 35.890625 41 28.21875 
z
" id="URW_Palladio_L_Roman-110"/>
       <path d="M 41.203125 43.78125 
C 35.59375 46.1875 32.796875 47 29.296875 47 
C 26.59375 47 24.203125 46.390625 21.703125 45.109375 
L 12.90625 40.515625 
C 7.203125 37.515625 3.5 30.234375 3.5 21.75 
C 3.5 13.765625 6.203125 7.1875 11.09375 3.1875 
C 14.5 0.296875 19.203125 -1 25.703125 -1 
C 27.703125 -1 30 -0.59375 30.5 -0.203125 
L 41.59375 9.109375 
L 41.09375 -0.109375 
C 46 -0.109375 47.59375 -0.109375 48.796875 -0.109375 
C 49.59375 -0.109375 51 -0.109375 53.09375 -0.109375 
C 53.796875 -0.109375 55.796875 -0.109375 57.90625 -0.109375 
L 57.90625 3 
L 53.296875 3 
C 49.90625 3 49.59375 3.703125 49.59375 10.046875 
L 49.59375 71.984375 
L 48.703125 72.796875 
C 44.296875 71.09375 41 70.28125 33.09375 69.078125 
L 33.09375 66.28125 
L 38.703125 66.28125 
C 40.5 66.28125 41.203125 65.171875 41.203125 62.15625 
z
M 41.203125 22.25 
C 41.203125 15.765625 41 14.78125 39.703125 12.484375 
C 36.90625 7.796875 32 4.71875 27.296875 4.71875 
C 18.5 4.71875 12.203125 13.1875 12.203125 25.046875 
C 12.203125 35.90625 17.59375 42.28125 26.59375 42.28125 
C 30.40625 42.28125 34.40625 40.984375 37.90625 38.59375 
C 40 37.203125 41.203125 35.90625 41.203125 35.09375 
z
" id="URW_Palladio_L_Roman-100"/>
       <path d="M 24.5 73 
C 17.40625 73 17.09375 73 14.796875 73 
C 12.40625 73 11.90625 73 5.09375 73 
L 4.5 72.5 
L 4.5 69.890625 
L 4.90625 69.390625 
L 8.703125 69.390625 
C 11.40625 69.390625 13.5 68.796875 14.703125 67.796875 
C 15.703125 66.890625 16 65.484375 16 62.078125 
C 16 61.78125 16 59.78125 16.09375 56.96875 
L 16.09375 53.265625 
L 16.09375 1.75 
L 16.09375 -1.953125 
C 16 -4.859375 16 -6.671875 16 -6.96875 
C 16 -10.375 15.703125 -11.875 14.703125 -12.78125 
C 13.5 -13.78125 11.40625 -14.390625 8.703125 -14.390625 
L 4.90625 -14.390625 
L 4.5 -14.890625 
L 4.5 -17.5 
L 5.09375 -18 
C 12.09375 -18 12.296875 -18 14.796875 -18 
C 17.09375 -18 17.59375 -18 24.5 -18 
L 25.40625 -16.796875 
C 24.796875 -14.390625 24.703125 -11.28125 24.59375 -3.5625 
C 24.59375 -2.15625 24.59375 -0.859375 24.5 0.4375 
L 24.5 1.75 
L 24.5 53.265625 
L 24.5 54.5625 
C 24.59375 55.671875 24.59375 56.96875 24.59375 58.375 
C 24.59375 66.09375 24.796875 69.390625 25.40625 71.796875 
z
" id="URW_Palladio_L_Roman-93"/>
      </defs>
      <use transform="scale(0.996264)" xlink:href="#URW_Palladio_L_Roman-84"/>
      <use transform="translate(55.591109 0)scale(0.996264)" xlink:href="#URW_Palladio_L_Roman-105"/>
      <use transform="translate(84.581471 0)scale(0.996264)" xlink:href="#URW_Palladio_L_Roman-109"/>
      <use transform="translate(172.551145 0)scale(0.996264)" xlink:href="#URW_Palladio_L_Roman-101"/>
      <use transform="translate(245.17804 0)scale(0.996264)" xlink:href="#URW_Palladio_L_Roman-91"/>
      <use transform="translate(278.35327 0)scale(0.996264)" xlink:href="#URW_Palladio_L_Roman-115"/>
      <use transform="translate(320.594736 0)scale(0.996264)" xlink:href="#URW_Palladio_L_Roman-101"/>
      <use transform="translate(368.315031 0)scale(0.996264)" xlink:href="#URW_Palladio_L_Roman-99"/>
      <use transform="translate(412.5486 0)scale(0.996264)" xlink:href="#URW_Palladio_L_Roman-111"/>
      <use transform="translate(466.94418 0)scale(0.996264)" xlink:href="#URW_Palladio_L_Roman-110"/>
      <use transform="translate(524.926241 0)scale(0.996264)" xlink:href="#URW_Palladio_L_Roman-100"/>
      <use transform="translate(585.797872 0)scale(0.996264)" xlink:href="#URW_Palladio_L_Roman-115"/>
      <use transform="translate(628.039338 0)scale(0.996264)" xlink:href="#URW_Palladio_L_Roman-93"/>
     </g>
    </g>
   </g>
   <g id="matplotlib.axis_2">
    <g id="ytick_1">
     <g id="line2d_11">
      <path clip-path="url(#p1bbe808448)" d="M 67.531623 142.874248 
L 577.19952 142.874248 
" style="fill:none;stroke:#000000;stroke-linecap:square;stroke-opacity:0.2;stroke-width:0.5;"/>
     </g>
     <g id="line2d_12">
      <defs>
       <path d="M 0 0 
L -3.5 0 
" id="maad94e2e12" style="stroke:#000000;stroke-opacity:0.2;stroke-width:0.8;"/>
      </defs>
      <g>
       <use style="fill-opacity:0.2;stroke:#000000;stroke-opacity:0.2;stroke-width:0.8;" x="67.531623" xlink:href="#maad94e2e12" y="142.874248"/>
      </g>
     </g>
     <g id="text_7">
      <!-- $\mathdefault{−1.0}$ -->
      <g transform="translate(23.12516 147.864013)scale(0.14 -0.14)">
       <defs>
        <path d="M 65.90625 23 
C 67.59375 23 69.40625 23 69.40625 25 
C 69.40625 27 67.59375 27 65.90625 27 
L 11.796875 27 
C 10.09375 27 8.296875 27 8.296875 25 
C 8.296875 23 10.09375 23 11.796875 23 
z
" id="CMSY10-0"/>
        <path d="M 12.40625 11.625 
C 9.40625 11.625 6.703125 8.8125 6.703125 5.8125 
C 6.703125 2.796875 9.40625 0 12.296875 0 
C 15.5 0 18.296875 2.703125 18.296875 5.8125 
C 18.296875 8.8125 15.5 11.625 12.40625 11.625 
z
" id="URW_Palladio_L_Roman-46"/>
       </defs>
       <use transform="scale(1.038107)" xlink:href="#CMSY10-0"/>
       <use transform="translate(81.941696 0)scale(0.996264)" xlink:href="#URW_Palladio_L_Roman-49"/>
       <use transform="translate(131.754897 0)scale(0.996264)" xlink:href="#URW_Palladio_L_Roman-46"/>
       <use transform="translate(156.661497 0)scale(0.996264)" xlink:href="#URW_Palladio_L_Roman-48"/>
      </g>
     </g>
    </g>
    <g id="ytick_2">
     <g id="line2d_13">
      <path clip-path="url(#p1bbe808448)" d="M 67.531623 110.554114 
L 577.19952 110.554114 
" style="fill:none;stroke:#000000;stroke-linecap:square;stroke-opacity:0.2;stroke-width:0.5;"/>
     </g>
     <g id="line2d_14">
      <g>
       <use style="fill-opacity:0.2;stroke:#000000;stroke-opacity:0.2;stroke-width:0.8;" x="67.531623" xlink:href="#maad94e2e12" y="110.554114"/>
      </g>
     </g>
     <g id="text_8">
      <!-- $\mathdefault{−0.5}$ -->
      <g transform="translate(23.12516 115.543879)scale(0.14 -0.14)">
       <defs>
        <path d="M 12.703125 60.578125 
C 25.59375 60.578125 31.203125 60.578125 43.203125 60.578125 
L 43.703125 61.046875 
C 43.5 62.75 43.5 63.5 43.5 64.75 
C 43.5 66.078125 43.5 66.828125 43.703125 68.53125 
L 43.203125 69 
C 35.703125 69 31.203125 69 25.796875 69 
C 20.296875 69 15.90625 69 8.40625 69 
L 7.90625 68.796875 
C 8 62.671875 8.09375 58.265625 8.09375 55.046875 
C 8.09375 46.515625 7.796875 36.875 7.5 32.453125 
L 9.5 31.84375 
C 14.203125 36.578125 16.90625 38 21.796875 38 
C 31.40625 38 37.40625 31.140625 37.40625 20.25 
C 37.40625 9.0625 31 2.5 20.09375 2.5 
C 14.703125 2.5 9.703125 4.328125 8.296875 6.9375 
L 3.703125 15.203125 
L 1.296875 13.796875 
C 3.59375 8.0625 4.796875 4.84375 6.203125 0.421875 
C 9 -1.109375 13 -2 17.296875 -2 
C 24 -2 31.09375 0.921875 36.59375 5.75 
C 42.703125 11.1875 45.90625 18.03125 45.90625 25.46875 
C 45.90625 36.859375 37.796875 44.90625 26.40625 44.90625 
C 21.59375 44.90625 18 43.609375 11.796875 39.90625 
z
" id="URW_Palladio_L_Roman-53"/>
       </defs>
       <use transform="scale(1.038107)" xlink:href="#CMSY10-0"/>
       <use transform="translate(81.941696 0)scale(0.996264)" xlink:href="#URW_Palladio_L_Roman-48"/>
       <use transform="translate(131.754897 0)scale(0.996264)" xlink:href="#URW_Palladio_L_Roman-46"/>
       <use transform="translate(156.661497 0)scale(0.996264)" xlink:href="#URW_Palladio_L_Roman-53"/>
      </g>
     </g>
    </g>
    <g id="ytick_3">
     <g id="line2d_15">
      <path clip-path="url(#p1bbe808448)" d="M 67.531623 78.23398 
L 577.19952 78.23398 
" style="fill:none;stroke:#000000;stroke-linecap:square;stroke-opacity:0.2;stroke-width:0.5;"/>
     </g>
     <g id="line2d_16">
      <g>
       <use style="fill-opacity:0.2;stroke:#000000;stroke-opacity:0.2;stroke-width:0.8;" x="67.531623" xlink:href="#maad94e2e12" y="78.23398"/>
      </g>
     </g>
     <g id="text_9">
      <!-- $\mathdefault{0.0}$ -->
      <g transform="translate(34.597002 83.223745)scale(0.14 -0.14)">
       <use transform="scale(0.996264)" xlink:href="#URW_Palladio_L_Roman-48"/>
       <use transform="translate(49.8132 0)scale(0.996264)" xlink:href="#URW_Palladio_L_Roman-46"/>
       <use transform="translate(74.719801 0)scale(0.996264)" xlink:href="#URW_Palladio_L_Roman-48"/>
      </g>
     </g>
    </g>
    <g id="ytick_4">
     <g id="line2d_17">
      <path clip-path="url(#p1bbe808448)" d="M 67.531623 45.913846 
L 577.19952 45.913846 
" style="fill:none;stroke:#000000;stroke-linecap:square;stroke-opacity:0.2;stroke-width:0.5;"/>
     </g>
     <g id="line2d_18">
      <g>
       <use style="fill-opacity:0.2;stroke:#000000;stroke-opacity:0.2;stroke-width:0.8;" x="67.531623" xlink:href="#maad94e2e12" y="45.913846"/>
      </g>
     </g>
     <g id="text_10">
      <!-- $\mathdefault{0.5}$ -->
      <g transform="translate(34.597002 50.90361)scale(0.14 -0.14)">
       <use transform="scale(0.996264)" xlink:href="#URW_Palladio_L_Roman-48"/>
       <use transform="translate(49.8132 0)scale(0.996264)" xlink:href="#URW_Palladio_L_Roman-46"/>
       <use transform="translate(74.719801 0)scale(0.996264)" xlink:href="#URW_Palladio_L_Roman-53"/>
      </g>
     </g>
    </g>
    <g id="ytick_5">
     <g id="line2d_19">
      <path clip-path="url(#p1bbe808448)" d="M 67.531623 13.593712 
L 577.19952 13.593712 
" style="fill:none;stroke:#000000;stroke-linecap:square;stroke-opacity:0.2;stroke-width:0.5;"/>
     </g>
     <g id="line2d_20">
      <g>
       <use style="fill-opacity:0.2;stroke:#000000;stroke-opacity:0.2;stroke-width:0.8;" x="67.531623" xlink:href="#maad94e2e12" y="13.593712"/>
      </g>
     </g>
     <g id="text_11">
      <!-- $\mathdefault{1.0}$ -->
      <g transform="translate(34.597002 18.583476)scale(0.14 -0.14)">
       <use transform="scale(0.996264)" xlink:href="#URW_Palladio_L_Roman-49"/>
       <use transform="translate(49.8132 0)scale(0.996264)" xlink:href="#URW_Palladio_L_Roman-46"/>
       <use transform="translate(74.719801 0)scale(0.996264)" xlink:href="#URW_Palladio_L_Roman-48"/>
      </g>
     </g>
    </g>
    <g id="text_12">
     <!-- Voltage -->
     <g transform="translate(15.753876 97.310393)rotate(-90)scale(0.12 -0.12)">
      <defs>
       <path d="M 27.40625 66 
L 27.40625 69.015625 
C 16.40625 69.015625 16.40625 69.015625 14.09375 69.015625 
C 11.796875 69.015625 11.796875 69.015625 0.796875 69.015625 
L 0.796875 66.203125 
L 4.40625 65.90625 
C 6.5 65.703125 7.5 64.796875 8.796875 61.796875 
L 27.59375 15.53125 
C 30.703125 7.921875 31.90625 4.421875 33.40625 -1 
L 38.40625 -1 
C 40.296875 5.21875 41.5 8.515625 44.796875 16.53125 
L 62.203125 58.6875 
C 64.5 64.109375 65.59375 65.609375 67.59375 65.90625 
L 70.59375 66.203125 
L 70.59375 69.015625 
L 59.796875 69.015625 
C 58 69.015625 55.703125 69.015625 52.796875 69.015625 
C 52.296875 69.015625 50.59375 69.015625 49 69.015625 
L 49 66 
L 54.203125 66 
C 56.40625 66 57.703125 64.984375 57.703125 63.46875 
C 57.703125 62.46875 57.40625 61.0625 56.796875 59.5625 
L 38.5 12.015625 
L 18.796875 62.96875 
C 18.703125 63.375 18.59375 63.6875 18.59375 64.09375 
C 18.59375 65.296875 19.796875 66 21.796875 66 
z
" id="URW_Palladio_L_Roman-86"/>
       <path d="M 2.296875 66.5 
L 7.90625 66.5 
C 9.703125 66.5 10.40625 65.390625 10.40625 62.375 
L 10.40625 10.171875 
C 10.40625 3.8125 10.09375 3.109375 6.703125 3.109375 
L 2.09375 3.109375 
L 2.09375 0 
C 12.09375 0 12.09375 0 14.59375 0 
C 17.09375 0 17.09375 0 27.09375 0 
L 27.09375 3.109375 
L 22.5 3.109375 
C 19.09375 3.109375 18.796875 3.8125 18.796875 10.15625 
L 18.796875 72.203125 
L 17.90625 73.015625 
C 13.5 71.3125 10.203125 70.5 2.296875 69.296875 
z
" id="URW_Palladio_L_Roman-108"/>
       <path d="M 9.796875 38.6875 
L 9.796875 9.671875 
C 9.796875 2.21875 13.09375 -1 20.796875 -1 
C 23.09375 -1 25.5 -0.5 26.09375 0.203125 
L 30.90625 5.515625 
L 29.59375 7.234375 
C 27.09375 5.8125 25.59375 5.3125 23.703125 5.3125 
C 19.796875 5.3125 18.203125 7.34375 18.203125 12.3125 
L 18.203125 38.890625 
L 31 38.890625 
L 31.90625 44 
L 18.203125 44 
L 18.203125 47.75 
C 18.203125 51.890625 18.5 55.421875 19.296875 61.734375 
L 18.09375 62.828125 
C 15.703125 61.328125 12.703125 60.03125 9.59375 59.03125 
C 9.90625 56.015625 10 54.109375 10 51.109375 
L 10 44.09375 
L 2.203125 40.59375 
L 2.203125 38.6875 
z
" id="URW_Palladio_L_Roman-116"/>
       <path d="M 32.40625 8.40625 
L 31.90625 -0.015625 
C 38.40625 -0.015625 38.40625 -0.015625 39.703125 -0.015625 
C 40.203125 -0.015625 42.703125 -0.015625 47.09375 -0.015625 
L 47.09375 3 
L 43.203125 3 
C 40.796875 3 40.40625 3.8125 40.40625 8.71875 
L 40.40625 27.046875 
C 40.40625 41.6875 36.203125 47 24.59375 47 
C 20.296875 47 16.296875 45.890625 12.5 43.609375 
L 7.203125 40.390625 
L 7.203125 33.921875 
L 9.796875 33.21875 
L 11.09375 36.296875 
C 13.203125 40.984375 14.203125 41.6875 18.796875 41.6875 
C 28.203125 41.6875 32.09375 37.984375 32.40625 28.9375 
L 22.5 27.125 
C 8.90625 24.640625 3.203125 19.953125 3.203125 11.28125 
C 3.203125 3.5 7.90625 -1 15.796875 -1 
C 17.59375 -1 19.296875 -0.703125 20 -0.203125 
z
M 32.40625 12.59375 
C 29.5 8.5 23.203125 4.71875 19.296875 4.71875 
C 15.296875 4.71875 11.796875 8.40625 11.796875 12.6875 
C 11.796875 16.375 13.796875 19.859375 16.796875 21.75 
C 19.296875 23.25 24.796875 24.640625 32.40625 25.75 
z
" id="URW_Palladio_L_Roman-97"/>
       <path d="M 51.90625 38 
L 54.40625 42.109375 
L 54 43.109375 
L 39.796875 43.109375 
C 36.09375 45.890625 32.5 47 27.59375 47 
C 23.203125 47 18.09375 45.625 14 43.25 
C 8.40625 40.109375 5.5 35.28125 5.5 29.28125 
C 5.5 22 10.09375 16.984375 17.5 16.1875 
L 9.59375 10 
C 8.59375 8.484375 8.09375 7.171875 8.09375 5.640625 
C 8.09375 2.8125 9.90625 1.1875 14.703125 -0.21875 
L 6 -4.9375 
C 4.59375 -5.734375 3.203125 -9.4375 3.203125 -12.546875 
C 3.203125 -21.6875 12.09375 -28 24.796875 -28 
C 39.90625 -28 51.796875 -18.46875 51.796875 -6.234375 
C 51.796875 0.984375 47 6 40 6 
L 24 6 
C 18.796875 6 16.40625 7.21875 16.40625 9.984375 
C 16.40625 11.3125 17.203125 12.421875 19.796875 14.671875 
C 20.40625 15.1875 20.59375 15.390625 21 15.796875 
C 22 15.6875 22.59375 15.59375 23.40625 15.59375 
C 27.703125 15.59375 33 17.46875 37.09375 20.3125 
C 41.59375 23.546875 43.796875 27.484375 43.796875 32.703125 
C 43.796875 34.65625 43.5 35.9375 42.703125 38 
z
M 24 43.59375 
C 30.796875 43.59375 35.40625 38.09375 35.40625 29.765625 
C 35.40625 23.421875 31.203125 19 25.09375 19 
C 18.40625 19 13.90625 24.09375 13.90625 31.640625 
C 13.90625 39.171875 17.59375 43.59375 24 43.59375 
z
M 28.703125 -1.015625 
C 40 -1.015625 43.90625 -3.3125 43.90625 -9.84375 
C 43.90625 -18.46875 36 -24.890625 25.5 -24.890625 
C 16.796875 -24.890625 10.796875 -19.78125 10.796875 -12.34375 
C 10.796875 -7.84375 13.40625 -3.71875 17.40625 -2.015625 
C 19 -1.21875 21.796875 -1.015625 28.703125 -1.015625 
z
" id="URW_Palladio_L_Roman-103"/>
      </defs>
      <use transform="scale(0.996264)" xlink:href="#URW_Palladio_L_Roman-86"/>
      <use transform="translate(60.871539 0)scale(0.996264)" xlink:href="#URW_Palladio_L_Roman-111"/>
      <use transform="translate(115.26712 0)scale(0.996264)" xlink:href="#URW_Palladio_L_Roman-108"/>
      <use transform="translate(144.257481 0)scale(0.996264)" xlink:href="#URW_Palladio_L_Roman-116"/>
      <use transform="translate(176.734569 0)scale(0.996264)" xlink:href="#URW_Palladio_L_Roman-97"/>
      <use transform="translate(226.547769 0)scale(0.996264)" xlink:href="#URW_Palladio_L_Roman-103"/>
      <use transform="translate(281.939446 0)scale(0.996264)" xlink:href="#URW_Palladio_L_Roman-101"/>
     </g>
    </g>
   </g>
   <g id="line2d_21">
    <path clip-path="url(#p1bbe808448)" d="M 67.531623 13.593712 
L 67.93952 13.778175 
L 68.347418 14.330495 
L 68.755315 15.247464 
L 69.367161 17.294412 
L 69.979007 20.122622 
L 70.794802 25.043646 
L 71.814546 32.877743 
L 73.038239 44.364681 
L 74.669828 62.220753 
L 79.156701 113.191259 
L 80.380393 124.212516 
L 81.400137 131.583315 
L 82.215932 136.102914 
L 83.031727 139.288748 
L 83.643573 140.760602 
L 84.05147 141.294665 
L 84.459368 141.467947 
L 84.867265 141.2802 
L 85.275163 140.733275 
L 85.68306 139.831106 
L 86.294907 137.825418 
L 86.906753 135.063032 
L 87.722548 130.270547 
L 88.742291 122.665617 
L 89.965984 111.554758 
L 91.597574 94.358793 
L 95.880497 47.646018 
L 97.10419 36.89057 
L 98.123933 29.611248 
L 98.939728 25.071244 
L 99.755523 21.777028 
L 100.36737 20.16445 
L 100.775267 19.507939 
L 101.183164 19.189287 
L 101.591062 19.208864 
L 101.998959 19.56507 
L 102.406857 20.254351 
L 103.018703 21.900285 
L 103.630549 24.256482 
L 104.446344 28.440323 
L 105.466088 35.189354 
L 106.68978 45.162555 
L 108.32137 60.729805 
L 112.808243 105.253757 
L 114.031935 114.914604 
L 115.051679 121.414555 
L 115.867474 125.443906 
L 116.683269 128.34548 
L 117.295115 129.749471 
L 117.703012 130.310607 
L 118.11091 130.570259 
L 118.518807 130.529055 
L 118.926705 130.189383 
L 119.334602 129.555363 
L 119.946448 128.065611 
L 120.558295 125.953598 
L 121.37409 122.23024 
L 122.393833 116.264712 
L 123.617526 107.509319 
L 125.249116 93.94986 
L 129.532039 57.306361 
L 130.755732 48.916392 
L 131.775475 43.237667 
L 132.59127 39.684028 
L 133.407065 37.081362 
L 134.018911 35.778985 
L 134.630758 35.04341 
L 135.038655 34.868558 
L 135.446553 34.944388 
L 135.85445 35.267746 
L 136.262347 35.834036 
L 136.874194 37.12549 
L 137.48604 38.923891 
L 138.301835 42.053817 
L 139.321579 47.010141 
L 140.545271 54.202036 
L 142.38081 66.637981 
L 145.847938 90.482435 
L 147.275579 98.577117 
L 148.295323 103.26787 
L 149.315067 106.888467 
L 150.130862 108.950532 
L 150.742708 109.991809 
L 151.354554 110.595326 
L 151.762452 110.755414 
L 152.170349 110.72408 
L 152.578247 110.504657 
L 153.190093 109.83286 
L 153.801939 108.767526 
L 154.617734 106.777762 
L 155.433529 104.202457 
L 156.453273 100.286228 
L 157.880914 93.831984 
L 163.183581 68.567351 
L 164.407273 64.247236 
L 165.427017 61.439593 
L 166.242812 59.761941 
L 167.058607 58.609258 
L 167.670453 58.091438 
L 168.282299 57.86668 
L 168.894146 57.92666 
L 169.505992 58.259039 
L 170.117838 58.847773 
L 170.933633 59.997579 
L 171.953377 61.943907 
L 173.177069 64.864419 
L 175.012608 69.956981 
L 177.86789 77.893583 
L 179.295531 81.17399 
L 180.315275 83.054533 
L 181.335019 84.491037 
L 182.150814 85.303824 
L 182.966609 85.81657 
L 183.782404 86.039069 
L 184.598198 85.99048 
L 185.413993 85.698334 
L 186.433737 85.044044 
L 187.65743 83.941751 
L 190.104814 81.297867 
L 191.736404 79.708107 
L 192.960097 78.831967 
L 193.97984 78.386185 
L 194.795635 78.240103 
L 195.61143 78.288983 
L 196.427225 78.530596 
L 197.446969 79.08601 
L 198.670661 80.068885 
L 200.302251 81.73986 
L 202.953585 84.527791 
L 204.177277 85.471523 
L 204.993072 85.872836 
L 205.808867 86.047123 
L 206.624662 85.963112 
L 207.440457 85.597319 
L 208.256252 84.935161 
L 209.072047 83.971807 
L 210.091791 82.353414 
L 211.111534 80.307617 
L 212.335227 77.373486 
L 214.170766 72.312707 
L 217.229997 63.832585 
L 218.453689 61.104037 
L 219.473433 59.373232 
L 220.289228 58.427692 
L 220.901074 58.007905 
L 221.51292 57.855565 
L 222.124766 57.984282 
L 222.736613 58.403748 
L 223.348459 59.119471 
L 224.164254 60.535881 
L 224.980049 62.470465 
L 225.999792 65.578601 
L 227.223485 70.210652 
L 228.651126 76.598665 
L 231.30246 89.821037 
L 233.341947 99.424334 
L 234.565639 104.202457 
L 235.585383 107.333063 
L 236.401178 109.164955 
L 237.013024 110.101585 
L 237.62487 110.637627 
L 238.032768 110.763493 
L 238.440665 110.699462 
L 238.848563 110.442769 
L 239.460409 109.693301 
L 240.072255 108.50662 
L 240.88805 106.255083 
L 241.703845 103.26787 
L 242.723589 98.577117 
L 243.947281 91.732524 
L 245.578871 81.076155 
L 250.269692 49.274138 
L 251.493385 42.95763 
L 252.513128 38.923891 
L 253.328923 36.637266 
L 253.94077 35.520867 
L 254.348667 35.07538 
L 254.756565 34.875301 
L 255.164462 34.924509 
L 255.572359 35.225425 
L 255.980257 35.778985 
L 256.592103 37.081362 
L 257.203949 38.942197 
L 258.019744 42.263242 
L 259.039488 47.677648 
L 260.059232 54.339225 
L 261.486873 65.341972 
L 263.730309 84.907663 
L 266.177694 105.912074 
L 267.605335 116.264712 
L 268.625079 122.23024 
L 269.440874 125.953598 
L 270.256669 128.632813 
L 270.868515 129.908842 
L 271.276412 130.39631 
L 271.68431 130.587156 
L 272.092207 130.478121 
L 272.500105 130.067695 
L 272.908002 129.356135 
L 273.519848 127.729114 
L 274.131695 125.443906 
L 274.94749 121.414555 
L 275.967233 114.914604 
L 277.190926 105.253757 
L 278.618567 92.019048 
L 284.125183 38.308698 
L 285.144927 30.949075 
L 286.16467 25.193834 
L 286.980465 21.900285 
L 287.592311 20.254351 
L 288.000209 19.56507 
L 288.408106 19.208864 
L 288.816004 19.189287 
L 289.223901 19.507939 
L 289.631799 20.16445 
L 290.243645 21.777028 
L 290.855491 24.127821 
L 291.671286 28.364166 
L 292.487081 33.777643 
L 293.506825 42.020512 
L 294.730517 53.696616 
L 296.566056 73.61077 
L 299.829236 109.529723 
L 301.256877 122.665617 
L 302.276621 130.270547 
L 303.092416 135.063032 
L 303.90821 138.579679 
L 304.520057 140.32627 
L 304.927954 141.051438 
L 305.335852 141.419135 
L 305.743749 141.426468 
L 306.151647 141.072633 
L 306.559544 140.358928 
L 307.17139 138.621609 
L 307.783237 136.102914 
L 308.599031 131.583315 
L 309.414826 125.829399 
L 310.43457 117.099522 
L 311.862211 102.573653 
L 313.901699 79.041731 
L 316.553032 48.605486 
L 317.980673 34.646998 
L 319.000417 26.46776 
L 320.020161 20.122622 
L 320.835956 16.523755 
L 321.447802 14.743682 
L 321.855699 14.008504 
L 322.263597 13.639844 
L 322.671494 13.639844 
L 323.079392 14.008504 
L 323.487289 14.743682 
L 324.099136 16.523755 
L 324.710982 19.095152 
L 325.526777 23.695175 
L 326.54652 31.172768 
L 327.770213 42.314216 
L 329.197854 57.559411 
L 334.70447 118.969652 
L 335.928162 128.853266 
L 336.743957 134.00433 
L 337.559752 137.867567 
L 338.171599 139.868104 
L 338.783445 141.072633 
L 339.191342 141.426468 
L 339.59924 141.419135 
L 340.007137 141.051438 
L 340.415035 140.32627 
L 341.026881 138.579679 
L 341.638727 136.065728 
L 342.454522 131.582388 
L 343.474266 124.318587 
L 344.697958 113.535055 
L 346.329548 96.61067 
L 351.020369 45.720006 
L 352.244061 35.301923 
L 353.263805 28.364166 
L 354.0796 24.127821 
L 354.691446 21.777028 
L 355.303293 20.16445 
L 355.71119 19.507939 
L 356.119088 19.189287 
L 356.526985 19.208864 
L 356.934882 19.56507 
L 357.34278 20.254351 
L 357.954626 21.900285 
L 358.566472 24.256482 
L 359.382267 28.440323 
L 360.402011 35.189354 
L 361.625703 45.162555 
L 363.257293 60.729805 
L 367.744166 105.253757 
L 368.967858 114.914604 
L 369.987602 121.414555 
L 370.803397 125.443906 
L 371.619192 128.34548 
L 372.231038 129.749471 
L 372.638935 130.310607 
L 373.046833 130.570259 
L 373.45473 130.529055 
L 373.862628 130.189383 
L 374.270525 129.555363 
L 374.882371 128.065611 
L 375.494218 125.953598 
L 376.310013 122.23024 
L 377.329756 116.264712 
L 378.553449 107.509319 
L 380.185039 93.94986 
L 384.467962 57.306361 
L 385.691655 48.916392 
L 386.711398 43.237667 
L 387.527193 39.684028 
L 388.342988 37.081362 
L 388.954834 35.778985 
L 389.566681 35.04341 
L 389.974578 34.868558 
L 390.382476 34.944388 
L 390.790373 35.267746 
L 391.198271 35.834036 
L 391.810117 37.12549 
L 392.421963 38.923891 
L 393.237758 42.053817 
L 394.257502 47.010141 
L 395.481194 54.202036 
L 397.316733 66.637981 
L 400.783861 90.482435 
L 402.211502 98.577117 
L 403.231246 103.26787 
L 404.25099 106.888467 
L 405.066785 108.950532 
L 405.678631 109.991809 
L 406.290477 110.595326 
L 406.698375 110.755414 
L 407.106272 110.72408 
L 407.51417 110.504657 
L 408.126016 109.83286 
L 408.737862 108.767526 
L 409.553657 106.777762 
L 410.369452 104.202457 
L 411.389196 100.286228 
L 412.816837 93.831984 
L 418.119504 68.567351 
L 419.343196 64.247236 
L 420.36294 61.439593 
L 421.178735 59.761941 
L 421.99453 58.609258 
L 422.606376 58.091438 
L 423.218222 57.86668 
L 423.830069 57.92666 
L 424.441915 58.259039 
L 425.053761 58.847773 
L 425.869556 59.997579 
L 426.8893 61.943907 
L 428.112992 64.864419 
L 429.948531 69.956981 
L 432.803813 77.893583 
L 434.231454 81.17399 
L 435.251198 83.054533 
L 436.270942 84.491037 
L 437.086737 85.303824 
L 437.902532 85.81657 
L 438.718327 86.039069 
L 439.534122 85.99048 
L 440.349917 85.698334 
L 441.36966 85.044044 
L 442.593353 83.941751 
L 445.040737 81.297867 
L 446.672327 79.708107 
L 447.89602 78.831967 
L 448.915764 78.386185 
L 449.731558 78.240103 
L 450.547353 78.288983 
L 451.363148 78.530596 
L 452.382892 79.08601 
L 453.606585 80.068885 
L 455.238174 81.73986 
L 457.889508 84.527791 
L 459.1132 85.471523 
L 459.928995 85.872836 
L 460.74479 86.047123 
L 461.560585 85.963112 
L 462.37638 85.597319 
L 463.192175 84.935161 
L 464.00797 83.971807 
L 465.027714 82.353414 
L 466.047458 80.307617 
L 467.27115 77.373486 
L 469.106689 72.312707 
L 472.16592 63.832585 
L 473.389612 61.104037 
L 474.409356 59.373232 
L 475.225151 58.427692 
L 475.836997 58.007905 
L 476.448843 57.855565 
L 477.060689 57.984282 
L 477.672536 58.403748 
L 478.284382 59.119471 
L 479.100177 60.535881 
L 479.915972 62.470465 
L 480.935715 65.578601 
L 482.159408 70.210652 
L 483.587049 76.598665 
L 486.238383 89.821037 
L 488.27787 99.424334 
L 489.501562 104.202457 
L 490.521306 107.333063 
L 491.337101 109.164955 
L 491.948947 110.101585 
L 492.560794 110.637627 
L 492.968691 110.763493 
L 493.376588 110.699462 
L 493.784486 110.442769 
L 494.396332 109.693301 
L 495.008178 108.50662 
L 495.823973 106.255083 
L 496.639768 103.26787 
L 497.659512 98.577117 
L 498.883204 91.732524 
L 500.514794 81.076155 
L 505.205615 49.274138 
L 506.429308 42.95763 
L 507.449051 38.923891 
L 508.264846 36.637266 
L 508.876693 35.520867 
L 509.28459 35.07538 
L 509.692488 34.875301 
L 510.100385 34.924509 
L 510.508283 35.225425 
L 510.91618 35.778985 
L 511.528026 37.081362 
L 512.139872 38.942197 
L 512.955667 42.263242 
L 513.975411 47.677648 
L 514.995155 54.339225 
L 516.422796 65.341972 
L 518.666232 84.907663 
L 521.113617 105.912074 
L 522.541258 116.264712 
L 523.561002 122.23024 
L 524.376797 125.953598 
L 525.192592 128.632813 
L 525.804438 129.908842 
L 526.212335 130.39631 
L 526.620233 130.587156 
L 527.02813 130.478121 
L 527.436028 130.067695 
L 527.843925 129.356135 
L 528.455772 127.729114 
L 529.067618 125.443906 
L 529.883413 121.414555 
L 530.903156 114.914604 
L 532.126849 105.253757 
L 533.55449 92.019048 
L 539.061106 38.308698 
L 540.08085 30.949075 
L 541.100593 25.193834 
L 541.916388 21.900285 
L 542.528234 20.254351 
L 542.936132 19.56507 
L 543.344029 19.208864 
L 543.751927 19.189287 
L 544.159824 19.507939 
L 544.567722 20.16445 
L 545.179568 21.777028 
L 545.791414 24.127821 
L 546.607209 28.364166 
L 547.423004 33.777643 
L 548.442748 42.020512 
L 549.66644 53.696616 
L 551.501979 73.61077 
L 554.765159 109.529723 
L 556.1928 122.665617 
L 557.212544 130.270547 
L 558.028339 135.063032 
L 558.844134 138.579679 
L 559.45598 140.32627 
L 559.863877 141.051438 
L 560.271775 141.419135 
L 560.679672 141.426468 
L 561.08757 141.072633 
L 561.495467 140.358928 
L 562.107313 138.621609 
L 562.71916 136.102914 
L 563.534955 131.583315 
L 564.350749 125.829399 
L 565.370493 117.099522 
L 566.798134 102.573653 
L 568.837622 79.041731 
L 571.488955 48.605486 
L 572.916596 34.646998 
L 573.93634 26.46776 
L 574.956084 20.122622 
L 575.771879 16.523755 
L 576.383725 14.743682 
L 576.791623 14.008504 
L 577.19952 13.639844 
L 577.19952 13.639844 
" style="fill:none;stroke:#0271ae;stroke-linecap:square;stroke-width:4;"/>
   </g>
  </g>
 </g>
 <defs>
  <clipPath id="p1bbe808448">
   <rect height="140.661659" width="509.667897" x="67.531623" y="7.2"/>
  </clipPath>
 </defs>
</svg>
