<?xml version="1.0" encoding="utf-8" standalone="no"?>
<!DOCTYPE svg PUBLIC "-//W3C//DTD SVG 1.1//EN"
  "http://www.w3.org/Graphics/SVG/1.1/DTD/svg11.dtd">
<svg height="392.39952pt" version="1.1" viewBox="0 0 392.39952 392.39952" width="392.39952pt" xmlns="http://www.w3.org/2000/svg" xmlns:xlink="http://www.w3.org/1999/xlink">
 <metadata>
  <rdf:RDF xmlns:cc="http://creativecommons.org/ns#" xmlns:dc="http://purl.org/dc/elements/1.1/" xmlns:rdf="http://www.w3.org/1999/02/22-rdf-syntax-ns#">
   <cc:Work>
    <dc:type rdf:resource="http://purl.org/dc/dcmitype/StillImage"/>
    <dc:date>2020-08-12T06:52:02.014161</dc:date>
    <dc:format>image/svg+xml</dc:format>
    <dc:creator>
     <cc:Agent>
      <dc:title>Matplotlib v3.3.0rc1.post382+g019a75231, https://matplotlib.org/</dc:title>
     </cc:Agent>
    </dc:creator>
   </cc:Work>
  </rdf:RDF>
 </metadata>
 <defs>
  <style type="text/css">*{stroke-linecap:butt;stroke-linejoin:round;}</style>
 </defs>
 <g id="figure_1">
  <g id="patch_1">
   <path d="M 0 392.39952 
L 392.39952 392.39952 
L 392.39952 0 
L 0 0 
z
" style="fill:none;"/>
  </g>
  <g id="axes_1">
   <g id="patch_2">
    <path clip-path="url(#pd5173fcfe4)" d="M 196.19976 347.399568 
C 236.298418 347.399568 274.760137 331.468202 303.11417 303.11417 
C 331.468202 274.760137 347.399568 236.298418 347.399568 196.19976 
C 347.399568 156.101102 331.468202 117.639383 303.11417 89.28535 
C 274.760137 60.931318 236.298418 44.999952 196.19976 44.999952 
C 156.101102 44.999952 117.639383 60.931318 89.28535 89.28535 
C 60.931318 117.639383 44.999952 156.101102 44.999952 196.19976 
C 44.999952 236.298418 60.931318 274.760137 89.28535 303.11417 
C 117.639383 331.468202 156.101102 347.399568 196.19976 347.399568 
z
" style="fill:none;opacity:0.25;stroke:#000000;stroke-linejoin:miter;stroke-width:3;"/>
   </g>
   <g id="PathCollection_1">
    <path clip-path="url(#pd5173fcfe4)" d="M 342.399568 196.19976 
L 352.399568 196.19976 
M 347.399568 201.19976 
L 347.399568 191.19976 
" style="fill:none;stroke:#0271ae;stroke-width:3;"/>
    <path clip-path="url(#pd5173fcfe4)" d="M 298.11417 89.28535 
L 308.11417 89.28535 
M 303.11417 94.28535 
L 303.11417 84.28535 
" style="fill:none;stroke:#0271ae;stroke-width:3;"/>
    <path clip-path="url(#pd5173fcfe4)" d="M 191.19976 44.999952 
L 201.19976 44.999952 
M 196.19976 49.999952 
L 196.19976 39.999952 
" style="fill:none;stroke:#0271ae;stroke-width:3;"/>
    <path clip-path="url(#pd5173fcfe4)" d="M 84.28535 89.28535 
L 94.28535 89.28535 
M 89.28535 94.28535 
L 89.28535 84.28535 
" style="fill:none;stroke:#0271ae;stroke-width:3;"/>
   </g>
   <g id="PathCollection_2">
    <path clip-path="url(#pd5173fcfe4)" d="M 49.999952 196.19976 
L 39.999952 196.19976 
" style="fill:none;stroke:#dc2830;stroke-width:3;"/>
    <path clip-path="url(#pd5173fcfe4)" d="M 94.28535 303.11417 
L 84.28535 303.11417 
" style="fill:none;stroke:#dc2830;stroke-width:3;"/>
    <path clip-path="url(#pd5173fcfe4)" d="M 201.19976 347.399568 
L 191.19976 347.399568 
" style="fill:none;stroke:#dc2830;stroke-width:3;"/>
    <path clip-path="url(#pd5173fcfe4)" d="M 308.11417 303.11417 
L 298.11417 303.11417 
" style="fill:none;stroke:#dc2830;stroke-width:3;"/>
   </g>
   <g id="text_1">
    <!-- 000 -->
    <g transform="translate(354.959558 192.419765)scale(0.14 -0.14)">
     <defs>
      <path d="M 26.296875 69 
C 10.796875 69 2.90625 56.6875 2.90625 32.453125 
C 2.90625 20.71875 5 10.625 8.5 5.71875 
C 12 0.796875 17.59375 -2 23.796875 -2 
C 38.90625 -2 46.5 11.015625 46.5 36.65625 
C 46.5 58.578125 40 69 26.296875 69 
z
M 24.5 65.5 
C 34.203125 65.5 38.09375 55.6875 38.09375 31.640625 
C 38.09375 10.328125 34.296875 1.5 25.09375 1.5 
C 15.40625 1.5 11.296875 11.625 11.296875 36.0625 
C 11.296875 57.1875 15 65.5 24.5 65.5 
z
" id="URW_Palladio_L_Roman-48"/>
     </defs>
     <use transform="scale(0.996264)" xlink:href="#URW_Palladio_L_Roman-48"/>
     <use transform="translate(49.8132 0)scale(0.996264)" xlink:href="#URW_Palladio_L_Roman-48"/>
     <use transform="translate(99.626401 0)scale(0.996264)" xlink:href="#URW_Palladio_L_Roman-48"/>
    </g>
   </g>
   <g id="text_2">
    <!-- (0) -->
    <g style="fill:#0271ae;" transform="translate(362.519549 211.319741)scale(0.12 -0.12)">
     <defs>
      <path d="M 30.09375 -19.4375 
C 22.90625 -10.515625 20.296875 -5.71875 17.703125 3.3125 
C 15.59375 10.515625 14.59375 18.140625 14.59375 26.65625 
C 14.59375 34.96875 15.59375 42.078125 17.5 48.59375 
C 20.09375 56.90625 22.796875 61.625 30.09375 70.140625 
L 28.203125 72.75 
C 17.796875 63.421875 13.703125 57.921875 9.90625 48.09375 
C 7.296875 41.375 6 34.265625 6 26.65625 
C 6 15.9375 8.5 5.8125 13.296875 -3.203125 
C 16.796875 -9.921875 20 -13.828125 28.203125 -21.546875 
z
" id="URW_Palladio_L_Roman-40"/>
      <path d="M 5.09375 -21.546875 
C 12 -15.03125 14.90625 -11.71875 18 -6.8125 
C 24.09375 2.90625 27.296875 14.53125 27.296875 26.546875 
C 27.296875 34.265625 26 41.375 23.40625 48.09375 
C 19.59375 57.8125 15.5 63.328125 5.09375 72.75 
L 3.203125 70.140625 
C 10.5 61.515625 13.203125 56.8125 15.703125 48.59375 
C 17.703125 42.078125 18.703125 34.96875 18.703125 26.65625 
C 18.703125 18.140625 17.703125 10.515625 15.59375 3.3125 
C 13 -5.71875 10.40625 -10.515625 3.203125 -19.4375 
z
" id="URW_Palladio_L_Roman-41"/>
     </defs>
     <use transform="scale(0.996264)" xlink:href="#URW_Palladio_L_Roman-40"/>
     <use transform="translate(33.17523 0)scale(0.996264)" xlink:href="#URW_Palladio_L_Roman-48"/>
     <use transform="translate(82.98843 0)scale(0.996264)" xlink:href="#URW_Palladio_L_Roman-41"/>
    </g>
   </g>
   <g id="text_3">
    <!-- 001 -->
    <g transform="translate(310.67416 85.505355)scale(0.14 -0.14)">
     <defs>
      <path d="M 6.703125 56 
L 7.703125 56 
L 20.59375 61.8125 
C 20.703125 61.90625 20.796875 61.90625 20.90625 61.90625 
C 21.5 61.90625 21.703125 61.015625 21.703125 58.609375 
L 21.703125 9.578125 
C 21.703125 4.3125 20.59375 3.203125 15.203125 3.203125 
L 9.59375 3.203125 
L 9.59375 0 
C 25 0 25 0 26.09375 0 
C 27.40625 0 29.59375 0 33 0 
C 34.203125 0 37.703125 0 41.796875 0 
L 41.796875 3.203125 
L 36.59375 3.203125 
C 31.09375 3.203125 30.09375 4.3125 30.09375 9.5625 
L 30.09375 69.421875 
L 28.703125 69.921875 
C 22.203125 66.515625 15.09375 63.515625 6 60.3125 
z
" id="URW_Palladio_L_Roman-49"/>
     </defs>
     <use transform="scale(0.996264)" xlink:href="#URW_Palladio_L_Roman-48"/>
     <use transform="translate(49.8132 0)scale(0.996264)" xlink:href="#URW_Palladio_L_Roman-48"/>
     <use transform="translate(99.626401 0)scale(0.996264)" xlink:href="#URW_Palladio_L_Roman-49"/>
    </g>
   </g>
   <g id="text_4">
    <!-- (1) -->
    <g style="fill:#0271ae;" transform="translate(318.23415 104.405331)scale(0.12 -0.12)">
     <use transform="scale(0.996264)" xlink:href="#URW_Palladio_L_Roman-40"/>
     <use transform="translate(33.17523 0)scale(0.996264)" xlink:href="#URW_Palladio_L_Roman-49"/>
     <use transform="translate(82.98843 0)scale(0.996264)" xlink:href="#URW_Palladio_L_Roman-41"/>
    </g>
   </g>
   <g id="text_5">
    <!-- 010 -->
    <g transform="translate(203.75975 41.219957)scale(0.14 -0.14)">
     <use transform="scale(0.996264)" xlink:href="#URW_Palladio_L_Roman-48"/>
     <use transform="translate(49.8132 0)scale(0.996264)" xlink:href="#URW_Palladio_L_Roman-49"/>
     <use transform="translate(99.626401 0)scale(0.996264)" xlink:href="#URW_Palladio_L_Roman-48"/>
    </g>
   </g>
   <g id="text_6">
    <!-- (2) -->
    <g style="fill:#0271ae;" transform="translate(211.319741 60.119933)scale(0.12 -0.12)">
     <defs>
      <path d="M 1.59375 2.5 
L 1.59375 0 
C 20.296875 0 20.296875 0 23.90625 0 
C 27.5 0 27.5 0 46.796875 0 
C 46.59375 1.953125 46.59375 2.90625 46.59375 4.203125 
C 46.59375 5.4375 46.59375 6.359375 46.796875 8.421875 
C 35.296875 8.421875 30.703125 8.421875 12.203125 8.421875 
L 30.40625 27.515625 
C 40.09375 37.71875 43.09375 43.171875 43.09375 50.59375 
C 43.09375 61.96875 35.296875 69 22.59375 69 
C 15.40625 69 10.5 67 5.59375 62.015625 
L 3.90625 48.421875 
L 6.796875 48.421875 
L 8.09375 53.015625 
C 9.703125 58.796875 13.296875 61.296875 20 61.296875 
C 28.59375 61.296875 34.09375 55.890625 34.09375 47.421875 
C 34.09375 39.921875 29.90625 32.546875 18.59375 20.5625 
z
" id="URW_Palladio_L_Roman-50"/>
     </defs>
     <use transform="scale(0.996264)" xlink:href="#URW_Palladio_L_Roman-40"/>
     <use transform="translate(33.17523 0)scale(0.996264)" xlink:href="#URW_Palladio_L_Roman-50"/>
     <use transform="translate(82.98843 0)scale(0.996264)" xlink:href="#URW_Palladio_L_Roman-41"/>
    </g>
   </g>
   <g id="text_7">
    <!-- 011 -->
    <g transform="translate(96.845341 85.505355)scale(0.14 -0.14)">
     <use transform="scale(0.996264)" xlink:href="#URW_Palladio_L_Roman-48"/>
     <use transform="translate(49.8132 0)scale(0.996264)" xlink:href="#URW_Palladio_L_Roman-49"/>
     <use transform="translate(99.626401 0)scale(0.996264)" xlink:href="#URW_Palladio_L_Roman-49"/>
    </g>
   </g>
   <g id="text_8">
    <!-- (3) -->
    <g style="fill:#0271ae;" transform="translate(104.405331 104.405331)scale(0.12 -0.12)">
     <defs>
      <path d="M 4.296875 49.953125 
L 7.40625 49.953125 
L 9.203125 55.53125 
C 10.296875 58.90625 16.59375 62.296875 21.796875 62.296875 
C 28.296875 62.296875 33.59375 57.015625 33.59375 50.75 
C 33.59375 43.28125 27.703125 37 20.59375 37 
C 19.796875 37 18.703125 37 17.40625 37.203125 
L 15.90625 37.203125 
L 14.703125 31.984375 
L 15.40625 31.375 
C 19.203125 33.09375 21.09375 33.59375 23.796875 33.59375 
C 32.09375 33.59375 36.90625 28.265625 36.90625 19.09375 
C 36.90625 8.84375 30.796875 2.109375 21.5 2.109375 
C 16.90625 2.109375 12.796875 3.609375 9.796875 6.421875 
C 7.40625 8.640625 6.09375 10.953125 4.203125 16.390625 
L 1.5 15.390625 
C 3.59375 9.265625 4.40625 5.640625 5 0.609375 
C 10.296875 -1.203125 14.703125 -2 18.40625 -2 
C 26.40625 -2 35.59375 2.515625 41.09375 9.265625 
C 44.5 13.390625 46.203125 17.8125 46.203125 22.53125 
C 46.203125 27.359375 44.203125 31.59375 40.59375 34.09375 
C 38.09375 35.90625 35.796875 36.71875 30.796875 37.609375 
C 38.796875 43.796875 41.796875 48.375 41.796875 54.25 
C 41.796875 63.125 34.40625 69 23.296875 69 
C 16.5 69 12 67.109375 7.203125 62.328125 
z
" id="URW_Palladio_L_Roman-51"/>
     </defs>
     <use transform="scale(0.996264)" xlink:href="#URW_Palladio_L_Roman-40"/>
     <use transform="translate(33.17523 0)scale(0.996264)" xlink:href="#URW_Palladio_L_Roman-51"/>
     <use transform="translate(82.98843 0)scale(0.996264)" xlink:href="#URW_Palladio_L_Roman-41"/>
    </g>
   </g>
   <g id="text_9">
    <!-- 100 -->
    <g transform="translate(52.559942 192.419765)scale(0.14 -0.14)">
     <use transform="scale(0.996264)" xlink:href="#URW_Palladio_L_Roman-49"/>
     <use transform="translate(49.8132 0)scale(0.996264)" xlink:href="#URW_Palladio_L_Roman-48"/>
     <use transform="translate(99.626401 0)scale(0.996264)" xlink:href="#URW_Palladio_L_Roman-48"/>
    </g>
   </g>
   <g id="text_10">
    <!-- (-4) -->
    <g style="fill:#dc2830;" transform="translate(60.119933 211.319741)scale(0.12 -0.12)">
     <defs>
      <path d="M 28.203125 22 
L 31.203125 28.703125 
L 30.703125 29.203125 
L 4.40625 29.203125 
L 1.703125 22.5 
L 2.203125 22 
z
" id="URW_Palladio_L_Roman-45"/>
      <path d="M 28 18 
L 28 10.515625 
C 28 4.515625 26.90625 3.109375 22 3.109375 
L 15.796875 3.109375 
L 15.796875 0 
C 29.09375 0 29.09375 0 31.5 0 
C 33.90625 0 33.90625 0 47.203125 0 
L 47.203125 3.109375 
L 42.40625 3.109375 
C 37.5 3.109375 36.40625 4.40625 36.40625 10.453125 
L 36.40625 18 
C 42.296875 18 44.40625 18 47.203125 17.703125 
L 47.203125 24.8125 
C 42.5 24.421875 40.59375 24.421875 39.09375 24.421875 
L 38.796875 24.421875 
L 36.40625 24.421875 
L 36.40625 38.390625 
C 36.40625 56.25 36.59375 64.875 37.09375 69 
L 35.90625 69.5 
L 28.5 66.796875 
L 0.203125 20.296875 
L 1.296875 18 
z
M 28 24.421875 
L 6.5 24.421875 
L 28 59.78125 
z
" id="URW_Palladio_L_Roman-52"/>
     </defs>
     <use transform="scale(0.996264)" xlink:href="#URW_Palladio_L_Roman-40"/>
     <use transform="translate(33.17523 0)scale(0.996264)" xlink:href="#URW_Palladio_L_Roman-45"/>
     <use transform="translate(66.350459 0)scale(0.996264)" xlink:href="#URW_Palladio_L_Roman-52"/>
     <use transform="translate(116.16366 0)scale(0.996264)" xlink:href="#URW_Palladio_L_Roman-41"/>
    </g>
   </g>
   <g id="text_11">
    <!-- 101 -->
    <g transform="translate(96.845341 299.334174)scale(0.14 -0.14)">
     <use transform="scale(0.996264)" xlink:href="#URW_Palladio_L_Roman-49"/>
     <use transform="translate(49.8132 0)scale(0.996264)" xlink:href="#URW_Palladio_L_Roman-48"/>
     <use transform="translate(99.626401 0)scale(0.996264)" xlink:href="#URW_Palladio_L_Roman-49"/>
    </g>
   </g>
   <g id="text_12">
    <!-- (-3) -->
    <g style="fill:#dc2830;" transform="translate(104.405331 318.23415)scale(0.12 -0.12)">
     <use transform="scale(0.996264)" xlink:href="#URW_Palladio_L_Roman-40"/>
     <use transform="translate(33.17523 0)scale(0.996264)" xlink:href="#URW_Palladio_L_Roman-45"/>
     <use transform="translate(66.350459 0)scale(0.996264)" xlink:href="#URW_Palladio_L_Roman-51"/>
     <use transform="translate(116.16366 0)scale(0.996264)" xlink:href="#URW_Palladio_L_Roman-41"/>
    </g>
   </g>
   <g id="text_13">
    <!-- 110 -->
    <g transform="translate(203.75975 343.619573)scale(0.14 -0.14)">
     <use transform="scale(0.996264)" xlink:href="#URW_Palladio_L_Roman-49"/>
     <use transform="translate(49.8132 0)scale(0.996264)" xlink:href="#URW_Palladio_L_Roman-49"/>
     <use transform="translate(99.626401 0)scale(0.996264)" xlink:href="#URW_Palladio_L_Roman-48"/>
    </g>
   </g>
   <g id="text_14">
    <!-- (-2) -->
    <g style="fill:#dc2830;" transform="translate(211.319741 362.519549)scale(0.12 -0.12)">
     <use transform="scale(0.996264)" xlink:href="#URW_Palladio_L_Roman-40"/>
     <use transform="translate(33.17523 0)scale(0.996264)" xlink:href="#URW_Palladio_L_Roman-45"/>
     <use transform="translate(66.350459 0)scale(0.996264)" xlink:href="#URW_Palladio_L_Roman-50"/>
     <use transform="translate(116.16366 0)scale(0.996264)" xlink:href="#URW_Palladio_L_Roman-41"/>
    </g>
   </g>
   <g id="text_15">
    <!-- 111 -->
    <g transform="translate(310.67416 299.334174)scale(0.14 -0.14)">
     <use transform="scale(0.996264)" xlink:href="#URW_Palladio_L_Roman-49"/>
     <use transform="translate(49.8132 0)scale(0.996264)" xlink:href="#URW_Palladio_L_Roman-49"/>
     <use transform="translate(99.626401 0)scale(0.996264)" xlink:href="#URW_Palladio_L_Roman-49"/>
    </g>
   </g>
   <g id="text_16">
    <!-- (-1) -->
    <g style="fill:#dc2830;" transform="translate(318.23415 318.23415)scale(0.12 -0.12)">
     <use transform="scale(0.996264)" xlink:href="#URW_Palladio_L_Roman-40"/>
     <use transform="translate(33.17523 0)scale(0.996264)" xlink:href="#URW_Palladio_L_Roman-45"/>
     <use transform="translate(66.350459 0)scale(0.996264)" xlink:href="#URW_Palladio_L_Roman-49"/>
     <use transform="translate(116.16366 0)scale(0.996264)" xlink:href="#URW_Palladio_L_Roman-41"/>
    </g>
   </g>
   <g id="legend_1">
    <g id="patch_3">
     <path d="M 152.716496 219.870745 
L 239.683024 219.870745 
Q 242.483024 219.870745 242.483024 217.070745 
L 242.483024 175.328775 
Q 242.483024 172.528775 239.683024 172.528775 
L 152.716496 172.528775 
Q 149.916496 172.528775 149.916496 175.328775 
L 149.916496 217.070745 
Q 149.916496 219.870745 152.716496 219.870745 
z
" style="fill:#ffffff;opacity:0.95;stroke:#cccccc;stroke-linejoin:miter;stroke-width:0.5;"/>
    </g>
    <g id="PathCollection_3">
     <path d="M 157.516496 185.091588 
L 167.516496 185.091588 
M 162.516496 190.091588 
L 162.516496 180.091588 
" style="fill:none;stroke:#0271ae;stroke-width:3;"/>
    </g>
    <g id="text_17">
     <!-- Positive -->
     <g transform="translate(180.716496 188.766588)scale(0.14 -0.14)">
      <defs>
       <path d="M 21.59375 64.3125 
C 25.09375 65.09375 28 65.5 31.40625 65.5 
C 42.203125 65.5 48 60.546875 48 51.140625 
C 48 42.234375 41.90625 36 33.203125 36 
C 31.09375 36 29.59375 36.203125 27 36.984375 
L 28 33.390625 
C 30.40625 32.890625 31.796875 32.796875 33.796875 32.796875 
C 47.5 32.796875 58 42.0625 58 54.046875 
C 58 63.609375 50.203125 69.5 37.5 69.5 
C 37 69.5 36 69.5 34.703125 69.109375 
C 31 69.109375 23.40625 69.109375 20.5 69.109375 
C 18.296875 69.109375 18.296875 69.109375 2.296875 69.109375 
L 2.296875 66 
L 6.796875 66 
C 11.296875 66 12.09375 64.6875 12.09375 57.234375 
L 12.09375 11.96875 
C 12.09375 4 11.59375 3.203125 7 3.203125 
L 2.203125 3.203125 
L 2.203125 0 
C 8.09375 0 11.59375 0 16.796875 0 
C 22 0 25.59375 0 31.5 0 
L 31.5 3.203125 
L 26.703125 3.203125 
C 22.09375 3.203125 21.59375 4 21.59375 11.9375 
z
" id="URW_Palladio_L_Roman-80"/>
       <path d="M 27.90625 47 
C 13.296875 47 3.203125 36.671875 3.203125 21.75 
C 3.203125 7.609375 12.09375 -2 25 -2 
C 40.40625 -2 51.40625 8.71875 51.40625 23.75 
C 51.40625 37.28125 41.59375 47 27.90625 47 
z
M 26.09375 43.6875 
C 35.296875 43.6875 42.09375 33.671875 42.09375 20.046875 
C 42.09375 8.515625 37 1.296875 28.90625 1.296875 
C 19.09375 1.296875 12.5 10.921875 12.5 25.15625 
C 12.5 37.171875 17.296875 43.6875 26.09375 43.6875 
z
" id="URW_Palladio_L_Roman-111"/>
       <path d="M 4.09375 14.328125 
C 4.09375 7.421875 3.796875 4.40625 3 0.40625 
C 8.203125 -1.296875 12.09375 -2 16.703125 -2 
C 29.796875 -2 39.09375 5.015625 39.09375 14.828125 
C 39.09375 17.9375 38.203125 20.234375 36.296875 22.25 
C 33.703125 24.75 30.40625 25.953125 21.59375 27.65625 
C 13.40625 29.265625 10.703125 31.265625 10.703125 35.875 
C 10.703125 40.875 14.203125 43.6875 20.296875 43.6875 
C 27 43.6875 32.09375 40.1875 32.09375 35.46875 
L 32.09375 33.171875 
L 34.90625 33.171875 
C 35 38.984375 35.09375 41.375 35.40625 44.484375 
C 30.09375 46.296875 26.5 47 22.40625 47 
C 10.796875 47 3.703125 41.484375 3.703125 32.46875 
C 3.703125 27.65625 5.90625 24.25 10.5 22.140625 
C 13.203125 20.9375 18.5 19.34375 25.296875 17.828125 
C 29.796875 16.828125 31.703125 14.734375 31.703125 10.921875 
C 31.703125 5.515625 26.703125 1.703125 19.59375 1.703125 
C 12.296875 1.703125 7.09375 5.203125 7.09375 10.21875 
L 7.09375 14.328125 
z
" id="URW_Palladio_L_Roman-115"/>
       <path d="M 18.796875 46.765625 
L 17.90625 47.171875 
C 12.796875 45.0625 7.59375 43.640625 2.296875 43.046875 
L 2.296875 40.25 
L 6 40.25 
C 10 40.25 10.40625 39.546875 10.40625 32.890625 
L 10.40625 10.171875 
C 10.40625 3.8125 10.09375 3.109375 6.703125 3.109375 
L 2.09375 3.109375 
L 2.09375 0 
C 12.09375 0 12.09375 0 14.59375 0 
C 17.09375 0 17.09375 0 27.09375 0 
L 27.09375 3.109375 
L 22.5 3.109375 
C 19.09375 3.109375 18.796875 3.8125 18.796875 10.171875 
z
M 14.203125 69 
C 11.203125 69 8.59375 66.390625 8.59375 63.375 
C 8.59375 60.46875 11.203125 57.875 14.09375 57.875 
C 17 57.875 19.703125 60.46875 19.703125 63.375 
C 19.703125 66.1875 17 69 14.203125 69 
z
" id="URW_Palladio_L_Roman-105"/>
       <path d="M 9.796875 38.6875 
L 9.796875 9.671875 
C 9.796875 2.21875 13.09375 -1 20.796875 -1 
C 23.09375 -1 25.5 -0.5 26.09375 0.203125 
L 30.90625 5.515625 
L 29.59375 7.234375 
C 27.09375 5.8125 25.59375 5.3125 23.703125 5.3125 
C 19.796875 5.3125 18.203125 7.34375 18.203125 12.3125 
L 18.203125 38.890625 
L 31 38.890625 
L 31.90625 44 
L 18.203125 44 
L 18.203125 47.75 
C 18.203125 51.890625 18.5 55.421875 19.296875 61.734375 
L 18.09375 62.828125 
C 15.703125 61.328125 12.703125 60.03125 9.59375 59.03125 
C 9.90625 56.015625 10 54.109375 10 51.109375 
L 10 44.09375 
L 2.203125 40.59375 
L 2.203125 38.6875 
z
" id="URW_Palladio_L_Roman-116"/>
       <path d="M 53.90625 43 
L 53.90625 45.8125 
C 47.90625 45.8125 46.09375 45.8125 44.5 45.8125 
C 42.90625 45.8125 41.09375 45.8125 35.09375 45.8125 
L 35.09375 43 
L 39.203125 43 
C 40.796875 43 41.59375 42.09375 41.59375 40.484375 
C 41.59375 38.890625 40.90625 36.203125 39.703125 33.1875 
L 35.5 22.578125 
C 34.296875 19.671875 33.09375 16.875 29.296875 8.578125 
L 17.40625 37.390625 
C 16.796875 38.78125 16.5 40.09375 16.5 41.1875 
C 16.5 42.296875 17.40625 43 19 43 
L 23.90625 43 
L 23.90625 45.8125 
C 14.09375 45.8125 14.09375 45.8125 12.203125 45.8125 
C 10.296875 45.8125 5.5 45.8125 0.59375 45.8125 
L 0.59375 43 
L 4 43 
C 5.5 42.796875 6 42.203125 7.09375 39.703125 
L 24.296875 -0.5 
L 29.296875 -0.5 
C 29.90625 1.203125 30.90625 3.796875 30.90625 4 
C 32 6.984375 33.296875 10.375 33.40625 10.375 
L 45.203125 36.3125 
C 47.40625 41.015625 48.796875 42.796875 50.796875 43 
z
" id="URW_Palladio_L_Roman-118"/>
       <path d="M 43.703125 6.984375 
L 42.40625 7.984375 
C 36 4.203125 33.703125 3.3125 29.40625 3.3125 
C 22.90625 3.3125 17.5 6.21875 14.703125 11.109375 
C 12.796875 14.390625 12.09375 17.203125 11.90625 23 
L 26.5 23 
C 33.40625 23 37.703125 23 44.59375 24.125 
C 44.703125 25.53125 44.796875 26.453125 44.796875 27.671875 
C 44.796875 39.375 37.40625 47 26.203125 47 
C 22.5 47 18.203125 45.6875 14.09375 43.28125 
C 5.90625 38.578125 2.59375 32.359375 2.59375 21.9375 
C 2.59375 15.625 4.09375 10.21875 6.796875 6.40625 
C 10.796875 1.109375 17.5 -2 25 -2 
C 28.703125 -2 32.40625 -1.203125 36.5 0.578125 
C 39.203125 1.6875 41.296875 2.984375 41.703125 3.59375 
z
M 35.90625 26.40625 
C 30.703125 26.40625 28.296875 26.40625 24.703125 26.40625 
C 20.09375 26.40625 17.5 26.40625 12.09375 26.90625 
C 12.09375 31.671875 12.5 33.890625 13.796875 36.515625 
C 15.90625 40.96875 20.203125 43.6875 25 43.6875 
C 28.296875 43.6875 30.90625 42.359375 32.703125 39.59375 
C 34.90625 36.234375 35.59375 33.265625 35.90625 26.40625 
z
" id="URW_Palladio_L_Roman-101"/>
      </defs>
      <use transform="scale(0.996264)" xlink:href="#URW_Palladio_L_Roman-80"/>
      <use transform="translate(60.173595 0)scale(0.996264)" xlink:href="#URW_Palladio_L_Roman-111"/>
      <use transform="translate(114.569175 0)scale(0.996264)" xlink:href="#URW_Palladio_L_Roman-115"/>
      <use transform="translate(156.810642 0)scale(0.996264)" xlink:href="#URW_Palladio_L_Roman-105"/>
      <use transform="translate(185.801003 0)scale(0.996264)" xlink:href="#URW_Palladio_L_Roman-116"/>
      <use transform="translate(218.278091 0)scale(0.996264)" xlink:href="#URW_Palladio_L_Roman-105"/>
      <use transform="translate(247.268453 0)scale(0.996264)" xlink:href="#URW_Palladio_L_Roman-118"/>
      <use transform="translate(303.556366 0)scale(0.996264)" xlink:href="#URW_Palladio_L_Roman-101"/>
     </g>
    </g>
    <g id="PathCollection_4">
     <path d="M 167.516496 206.662572 
L 157.516496 206.662572 
" style="fill:none;stroke:#dc2830;stroke-width:3;"/>
    </g>
    <g id="text_18">
     <!-- Negative -->
     <g transform="translate(180.716496 210.337572)scale(0.14 -0.14)">
      <defs>
       <path d="M 13.703125 69.109375 
C 8.09375 69.109375 7.203125 69.109375 1.703125 69.109375 
L 1.703125 66 
L 6.09375 66 
C 10.703125 66 11.203125 65.09375 11.203125 57.234375 
L 11.203125 11.96875 
C 11.203125 4.09375 10.703125 3.203125 6.09375 3.203125 
L 1.703125 3.203125 
L 1.703125 0 
C 11.59375 0 11.59375 0 13.296875 0 
C 14.796875 0 14.796875 0 25.296875 0 
L 25.296875 3.203125 
L 20.90625 3.203125 
C 16.296875 3.203125 15.796875 4.09375 15.796875 11.9375 
L 15.796875 58.40625 
L 63.09375 -0.203125 
L 72.09375 -1.796875 
C 72.09375 -1.40625 72.09375 -1.296875 72 -0.59375 
C 71.90625 0.5 71.796875 1.3125 71.796875 1.90625 
L 71.796875 57.265625 
C 71.796875 65.09375 72.296875 66 76.90625 66 
L 81.296875 66 
L 81.296875 69.109375 
C 70.796875 69.109375 70.796875 69.109375 69.296875 69.109375 
C 67.59375 69.109375 67.59375 69.109375 57.703125 69.109375 
L 57.703125 66 
L 62.09375 66 
C 66.703125 66 67.203125 65.09375 67.203125 57.265625 
L 67.203125 9.984375 
L 19.09375 69.109375 
z
" id="URW_Palladio_L_Roman-78"/>
       <path d="M 51.90625 38 
L 54.40625 42.109375 
L 54 43.109375 
L 39.796875 43.109375 
C 36.09375 45.890625 32.5 47 27.59375 47 
C 23.203125 47 18.09375 45.625 14 43.25 
C 8.40625 40.109375 5.5 35.28125 5.5 29.28125 
C 5.5 22 10.09375 16.984375 17.5 16.1875 
L 9.59375 10 
C 8.59375 8.484375 8.09375 7.171875 8.09375 5.640625 
C 8.09375 2.8125 9.90625 1.1875 14.703125 -0.21875 
L 6 -4.9375 
C 4.59375 -5.734375 3.203125 -9.4375 3.203125 -12.546875 
C 3.203125 -21.6875 12.09375 -28 24.796875 -28 
C 39.90625 -28 51.796875 -18.46875 51.796875 -6.234375 
C 51.796875 0.984375 47 6 40 6 
L 24 6 
C 18.796875 6 16.40625 7.21875 16.40625 9.984375 
C 16.40625 11.3125 17.203125 12.421875 19.796875 14.671875 
C 20.40625 15.1875 20.59375 15.390625 21 15.796875 
C 22 15.6875 22.59375 15.59375 23.40625 15.59375 
C 27.703125 15.59375 33 17.46875 37.09375 20.3125 
C 41.59375 23.546875 43.796875 27.484375 43.796875 32.703125 
C 43.796875 34.65625 43.5 35.9375 42.703125 38 
z
M 24 43.59375 
C 30.796875 43.59375 35.40625 38.09375 35.40625 29.765625 
C 35.40625 23.421875 31.203125 19 25.09375 19 
C 18.40625 19 13.90625 24.09375 13.90625 31.640625 
C 13.90625 39.171875 17.59375 43.59375 24 43.59375 
z
M 28.703125 -1.015625 
C 40 -1.015625 43.90625 -3.3125 43.90625 -9.84375 
C 43.90625 -18.46875 36 -24.890625 25.5 -24.890625 
C 16.796875 -24.890625 10.796875 -19.78125 10.796875 -12.34375 
C 10.796875 -7.84375 13.40625 -3.71875 17.40625 -2.015625 
C 19 -1.21875 21.796875 -1.015625 28.703125 -1.015625 
z
" id="URW_Palladio_L_Roman-103"/>
       <path d="M 32.40625 8.40625 
L 31.90625 -0.015625 
C 38.40625 -0.015625 38.40625 -0.015625 39.703125 -0.015625 
C 40.203125 -0.015625 42.703125 -0.015625 47.09375 -0.015625 
L 47.09375 3 
L 43.203125 3 
C 40.796875 3 40.40625 3.8125 40.40625 8.71875 
L 40.40625 27.046875 
C 40.40625 41.6875 36.203125 47 24.59375 47 
C 20.296875 47 16.296875 45.890625 12.5 43.609375 
L 7.203125 40.390625 
L 7.203125 33.921875 
L 9.796875 33.21875 
L 11.09375 36.296875 
C 13.203125 40.984375 14.203125 41.6875 18.796875 41.6875 
C 28.203125 41.6875 32.09375 37.984375 32.40625 28.9375 
L 22.5 27.125 
C 8.90625 24.640625 3.203125 19.953125 3.203125 11.28125 
C 3.203125 3.5 7.90625 -1 15.796875 -1 
C 17.59375 -1 19.296875 -0.703125 20 -0.203125 
z
M 32.40625 12.59375 
C 29.5 8.5 23.203125 4.71875 19.296875 4.71875 
C 15.296875 4.71875 11.796875 8.40625 11.796875 12.6875 
C 11.796875 16.375 13.796875 19.859375 16.796875 21.75 
C 19.296875 23.25 24.796875 24.640625 32.40625 25.75 
z
" id="URW_Palladio_L_Roman-97"/>
      </defs>
      <use transform="scale(0.996264)" xlink:href="#URW_Palladio_L_Roman-78"/>
      <use transform="translate(82.788907 0)scale(0.996264)" xlink:href="#URW_Palladio_L_Roman-101"/>
      <use transform="translate(130.509202 0)scale(0.996264)" xlink:href="#URW_Palladio_L_Roman-103"/>
      <use transform="translate(185.900879 0)scale(0.996264)" xlink:href="#URW_Palladio_L_Roman-97"/>
      <use transform="translate(235.714079 0)scale(0.996264)" xlink:href="#URW_Palladio_L_Roman-116"/>
      <use transform="translate(268.191167 0)scale(0.996264)" xlink:href="#URW_Palladio_L_Roman-105"/>
      <use transform="translate(297.181529 0)scale(0.996264)" xlink:href="#URW_Palladio_L_Roman-118"/>
      <use transform="translate(353.469442 0)scale(0.996264)" xlink:href="#URW_Palladio_L_Roman-101"/>
     </g>
    </g>
   </g>
  </g>
 </g>
 <defs>
  <clipPath id="pd5173fcfe4">
   <rect height="377.99952" width="377.99952" x="7.2" y="7.2"/>
  </clipPath>
 </defs>
</svg>
