<?xml version="1.0" encoding="utf-8" standalone="no"?>
<!DOCTYPE svg PUBLIC "-//W3C//DTD SVG 1.1//EN"
  "http://www.w3.org/Graphics/SVG/1.1/DTD/svg11.dtd">
<svg height="200.39952pt" version="1.1" viewBox="0 0 584.39952 200.39952" width="584.39952pt" xmlns="http://www.w3.org/2000/svg" xmlns:xlink="http://www.w3.org/1999/xlink">
 <metadata>
  <rdf:RDF xmlns:cc="http://creativecommons.org/ns#" xmlns:dc="http://purl.org/dc/elements/1.1/" xmlns:rdf="http://www.w3.org/1999/02/22-rdf-syntax-ns#">
   <cc:Work>
    <dc:type rdf:resource="http://purl.org/dc/dcmitype/StillImage"/>
    <dc:date>2020-08-15T14:55:57.666360</dc:date>
    <dc:format>image/svg+xml</dc:format>
    <dc:creator>
     <cc:Agent>
      <dc:title>Matplotlib v3.3.0rc1.post717+g6a40954ae, https://matplotlib.org/</dc:title>
     </cc:Agent>
    </dc:creator>
   </cc:Work>
  </rdf:RDF>
 </metadata>
 <defs>
  <style type="text/css">*{stroke-linecap:butt;stroke-linejoin:round;}</style>
 </defs>
 <g id="figure_1">
  <g id="patch_1">
   <path d="M 0 200.39952 
L 584.39952 200.39952 
L 584.39952 0 
L 0 0 
z
" style="fill:none;"/>
  </g>
  <g id="axes_1">
   <g id="patch_2">
    <path d="M 51.606463 147.861659 
L 577.19952 147.861659 
L 577.19952 12.189765 
L 51.606463 12.189765 
z
" style="fill:none;"/>
   </g>
   <g id="LineCollection_1">
    <path clip-path="url(#pb049b35475)" d="M 51.606463 201.39952 
L 51.606463 -1 
" style="fill:none;stroke:#dc2830;stroke-dasharray:2,3.3;stroke-dashoffset:0;stroke-opacity:0.5;stroke-width:2;"/>
    <path clip-path="url(#pb049b35475)" d="M 72.634391 201.39952 
L 72.634391 -1 
" style="fill:none;stroke:#dc2830;stroke-dasharray:2,3.3;stroke-dashoffset:0;stroke-opacity:0.5;stroke-width:2;"/>
    <path clip-path="url(#pb049b35475)" d="M 93.662319 201.39952 
L 93.662319 -1 
" style="fill:none;stroke:#dc2830;stroke-dasharray:2,3.3;stroke-dashoffset:0;stroke-opacity:0.5;stroke-width:2;"/>
    <path clip-path="url(#pb049b35475)" d="M 114.690246 201.39952 
L 114.690246 -1 
" style="fill:none;stroke:#dc2830;stroke-dasharray:2,3.3;stroke-dashoffset:0;stroke-opacity:0.5;stroke-width:2;"/>
    <path clip-path="url(#pb049b35475)" d="M 135.718174 201.39952 
L 135.718174 -1 
" style="fill:none;stroke:#dc2830;stroke-dasharray:2,3.3;stroke-dashoffset:0;stroke-opacity:0.5;stroke-width:2;"/>
    <path clip-path="url(#pb049b35475)" d="M 156.746102 201.39952 
L 156.746102 -1 
" style="fill:none;stroke:#dc2830;stroke-dasharray:2,3.3;stroke-dashoffset:0;stroke-opacity:0.5;stroke-width:2;"/>
    <path clip-path="url(#pb049b35475)" d="M 177.77403 201.39952 
L 177.77403 -1 
" style="fill:none;stroke:#dc2830;stroke-dasharray:2,3.3;stroke-dashoffset:0;stroke-opacity:0.5;stroke-width:2;"/>
    <path clip-path="url(#pb049b35475)" d="M 198.801958 201.39952 
L 198.801958 -1 
" style="fill:none;stroke:#dc2830;stroke-dasharray:2,3.3;stroke-dashoffset:0;stroke-opacity:0.5;stroke-width:2;"/>
    <path clip-path="url(#pb049b35475)" d="M 219.829886 201.39952 
L 219.829886 -1 
" style="fill:none;stroke:#dc2830;stroke-dasharray:2,3.3;stroke-dashoffset:0;stroke-opacity:0.5;stroke-width:2;"/>
    <path clip-path="url(#pb049b35475)" d="M 240.857814 201.39952 
L 240.857814 -1 
" style="fill:none;stroke:#dc2830;stroke-dasharray:2,3.3;stroke-dashoffset:0;stroke-opacity:0.5;stroke-width:2;"/>
    <path clip-path="url(#pb049b35475)" d="M 261.885742 201.39952 
L 261.885742 -1 
" style="fill:none;stroke:#dc2830;stroke-dasharray:2,3.3;stroke-dashoffset:0;stroke-opacity:0.5;stroke-width:2;"/>
    <path clip-path="url(#pb049b35475)" d="M 282.913669 201.39952 
L 282.913669 -1 
" style="fill:none;stroke:#dc2830;stroke-dasharray:2,3.3;stroke-dashoffset:0;stroke-opacity:0.5;stroke-width:2;"/>
    <path clip-path="url(#pb049b35475)" d="M 303.941597 201.39952 
L 303.941597 -1 
" style="fill:none;stroke:#dc2830;stroke-dasharray:2,3.3;stroke-dashoffset:0;stroke-opacity:0.5;stroke-width:2;"/>
    <path clip-path="url(#pb049b35475)" d="M 324.969525 201.39952 
L 324.969525 -1 
" style="fill:none;stroke:#dc2830;stroke-dasharray:2,3.3;stroke-dashoffset:0;stroke-opacity:0.5;stroke-width:2;"/>
    <path clip-path="url(#pb049b35475)" d="M 345.997453 201.39952 
L 345.997453 -1 
" style="fill:none;stroke:#dc2830;stroke-dasharray:2,3.3;stroke-dashoffset:0;stroke-opacity:0.5;stroke-width:2;"/>
    <path clip-path="url(#pb049b35475)" d="M 367.025381 201.39952 
L 367.025381 -1 
" style="fill:none;stroke:#dc2830;stroke-dasharray:2,3.3;stroke-dashoffset:0;stroke-opacity:0.5;stroke-width:2;"/>
    <path clip-path="url(#pb049b35475)" d="M 388.053309 201.39952 
L 388.053309 -1 
" style="fill:none;stroke:#dc2830;stroke-dasharray:2,3.3;stroke-dashoffset:0;stroke-opacity:0.5;stroke-width:2;"/>
    <path clip-path="url(#pb049b35475)" d="M 409.081237 201.39952 
L 409.081237 -1 
" style="fill:none;stroke:#dc2830;stroke-dasharray:2,3.3;stroke-dashoffset:0;stroke-opacity:0.5;stroke-width:2;"/>
    <path clip-path="url(#pb049b35475)" d="M 430.109165 201.39952 
L 430.109165 -1 
" style="fill:none;stroke:#dc2830;stroke-dasharray:2,3.3;stroke-dashoffset:0;stroke-opacity:0.5;stroke-width:2;"/>
    <path clip-path="url(#pb049b35475)" d="M 451.137092 201.39952 
L 451.137092 -1 
" style="fill:none;stroke:#dc2830;stroke-dasharray:2,3.3;stroke-dashoffset:0;stroke-opacity:0.5;stroke-width:2;"/>
    <path clip-path="url(#pb049b35475)" d="M 472.16502 201.39952 
L 472.16502 -1 
" style="fill:none;stroke:#dc2830;stroke-dasharray:2,3.3;stroke-dashoffset:0;stroke-opacity:0.5;stroke-width:2;"/>
    <path clip-path="url(#pb049b35475)" d="M 493.192948 201.39952 
L 493.192948 -1 
" style="fill:none;stroke:#dc2830;stroke-dasharray:2,3.3;stroke-dashoffset:0;stroke-opacity:0.5;stroke-width:2;"/>
    <path clip-path="url(#pb049b35475)" d="M 514.220876 201.39952 
L 514.220876 -1 
" style="fill:none;stroke:#dc2830;stroke-dasharray:2,3.3;stroke-dashoffset:0;stroke-opacity:0.5;stroke-width:2;"/>
    <path clip-path="url(#pb049b35475)" d="M 535.248804 201.39952 
L 535.248804 -1 
" style="fill:none;stroke:#dc2830;stroke-dasharray:2,3.3;stroke-dashoffset:0;stroke-opacity:0.5;stroke-width:2;"/>
    <path clip-path="url(#pb049b35475)" d="M 556.276732 201.39952 
L 556.276732 -1 
" style="fill:none;stroke:#dc2830;stroke-dasharray:2,3.3;stroke-dashoffset:0;stroke-opacity:0.5;stroke-width:2;"/>
   </g>
   <g id="matplotlib.axis_1">
    <g id="xtick_1">
     <g id="line2d_1">
      <path clip-path="url(#pb049b35475)" d="M 51.606463 147.861659 
L 51.606463 12.189765 
" style="fill:none;stroke:#000000;stroke-linecap:square;stroke-opacity:0.2;stroke-width:0.5;"/>
     </g>
     <g id="line2d_2">
      <defs>
       <path d="M 0 0 
L 0 3.5 
" id="maa82645509" style="stroke:#000000;stroke-opacity:0.2;stroke-width:0.8;"/>
      </defs>
      <g>
       <use style="fill-opacity:0.2;stroke:#000000;stroke-opacity:0.2;stroke-width:0.8;" x="51.606463" xlink:href="#maa82645509" y="147.861659"/>
      </g>
     </g>
     <g id="text_1">
      <!-- $\mathdefault{0}$ -->
      <g transform="translate(48.119539 173.341188)scale(0.14 -0.14)">
       <defs>
        <path d="M 1683 4416 
C 691 4416 186 3628 186 2077 
C 186 1326 320 680 544 366 
C 768 51 1126 -128 1523 -128 
C 2490 -128 2976 705 2976 2346 
C 2976 3749 2560 4416 1683 4416 
z
M 1568 4192 
C 2189 4192 2438 3564 2438 2025 
C 2438 661 2195 96 1606 96 
C 986 96 723 744 723 2308 
C 723 3660 960 4192 1568 4192 
z
" id="URWPalladioL-Roma-30" transform="scale(0.015625)"/>
       </defs>
       <use transform="scale(0.996264)" xlink:href="#URWPalladioL-Roma-30"/>
      </g>
     </g>
    </g>
    <g id="xtick_2">
     <g id="line2d_3">
      <path clip-path="url(#pb049b35475)" d="M 156.746102 147.861659 
L 156.746102 12.189765 
" style="fill:none;stroke:#000000;stroke-linecap:square;stroke-opacity:0.2;stroke-width:0.5;"/>
     </g>
     <g id="line2d_4">
      <g>
       <use style="fill-opacity:0.2;stroke:#000000;stroke-opacity:0.2;stroke-width:0.8;" x="156.746102" xlink:href="#maa82645509" y="147.861659"/>
      </g>
     </g>
     <g id="text_2">
      <!-- $\mathdefault{1}$ -->
      <g transform="translate(153.259178 173.341188)scale(0.14 -0.14)">
       <defs>
        <path d="M 429 3584 
L 493 3584 
L 1318 3956 
C 1325 3962 1331 3962 1338 3962 
C 1376 3962 1389 3905 1389 3751 
L 1389 613 
C 1389 276 1318 205 973 205 
L 614 205 
L 614 0 
C 1600 0 1600 0 1670 0 
C 1754 0 1894 0 2112 0 
C 2189 0 2413 0 2675 0 
L 2675 205 
L 2342 205 
C 1990 205 1926 276 1926 612 
L 1926 4443 
L 1837 4475 
C 1421 4257 966 4065 384 3860 
z
" id="URWPalladioL-Roma-31" transform="scale(0.015625)"/>
       </defs>
       <use transform="scale(0.996264)" xlink:href="#URWPalladioL-Roma-31"/>
      </g>
     </g>
    </g>
    <g id="xtick_3">
     <g id="line2d_5">
      <path clip-path="url(#pb049b35475)" d="M 261.885742 147.861659 
L 261.885742 12.189765 
" style="fill:none;stroke:#000000;stroke-linecap:square;stroke-opacity:0.2;stroke-width:0.5;"/>
     </g>
     <g id="line2d_6">
      <g>
       <use style="fill-opacity:0.2;stroke:#000000;stroke-opacity:0.2;stroke-width:0.8;" x="261.885742" xlink:href="#maa82645509" y="147.861659"/>
      </g>
     </g>
     <g id="text_3">
      <!-- $\mathdefault{2}$ -->
      <g transform="translate(258.398818 173.341188)scale(0.14 -0.14)">
       <defs>
        <path d="M 102 160 
L 102 0 
C 1299 0 1299 0 1530 0 
C 1760 0 1760 0 2995 0 
C 2982 125 2982 186 2982 269 
C 2982 348 2982 407 2995 539 
C 2259 539 1965 539 781 539 
L 1946 1761 
C 2566 2414 2758 2763 2758 3238 
C 2758 3966 2259 4416 1446 4416 
C 986 4416 672 4288 358 3969 
L 250 3099 
L 435 3099 
L 518 3393 
C 621 3763 851 3923 1280 3923 
C 1830 3923 2182 3577 2182 3035 
C 2182 2555 1914 2083 1190 1316 
z
" id="URWPalladioL-Roma-32" transform="scale(0.015625)"/>
       </defs>
       <use transform="scale(0.996264)" xlink:href="#URWPalladioL-Roma-32"/>
      </g>
     </g>
    </g>
    <g id="xtick_4">
     <g id="line2d_7">
      <path clip-path="url(#pb049b35475)" d="M 367.025381 147.861659 
L 367.025381 12.189765 
" style="fill:none;stroke:#000000;stroke-linecap:square;stroke-opacity:0.2;stroke-width:0.5;"/>
     </g>
     <g id="line2d_8">
      <g>
       <use style="fill-opacity:0.2;stroke:#000000;stroke-opacity:0.2;stroke-width:0.8;" x="367.025381" xlink:href="#maa82645509" y="147.861659"/>
      </g>
     </g>
     <g id="text_4">
      <!-- $\mathdefault{3}$ -->
      <g transform="translate(363.538457 173.341188)scale(0.14 -0.14)">
       <defs>
        <path d="M 275 3197 
L 474 3197 
L 589 3554 
C 659 3770 1062 3987 1395 3987 
C 1811 3987 2150 3649 2150 3248 
C 2150 2770 1773 2368 1318 2368 
C 1267 2368 1197 2368 1114 2381 
L 1018 2381 
L 941 2047 
L 986 2008 
C 1229 2118 1350 2150 1523 2150 
C 2054 2150 2362 1809 2362 1222 
C 2362 566 1971 135 1376 135 
C 1082 135 819 231 627 411 
C 474 553 390 701 269 1049 
L 96 985 
C 230 593 282 361 320 39 
C 659 -77 941 -128 1178 -128 
C 1690 -128 2278 161 2630 593 
C 2848 857 2957 1140 2957 1442 
C 2957 1751 2829 2022 2598 2182 
C 2438 2298 2291 2350 1971 2407 
C 2483 2803 2675 3096 2675 3472 
C 2675 4040 2202 4416 1491 4416 
C 1056 4416 768 4295 461 3989 
z
" id="URWPalladioL-Roma-33" transform="scale(0.015625)"/>
       </defs>
       <use transform="scale(0.996264)" xlink:href="#URWPalladioL-Roma-33"/>
      </g>
     </g>
    </g>
    <g id="xtick_5">
     <g id="line2d_9">
      <path clip-path="url(#pb049b35475)" d="M 472.16502 147.861659 
L 472.16502 12.189765 
" style="fill:none;stroke:#000000;stroke-linecap:square;stroke-opacity:0.2;stroke-width:0.5;"/>
     </g>
     <g id="line2d_10">
      <g>
       <use style="fill-opacity:0.2;stroke:#000000;stroke-opacity:0.2;stroke-width:0.8;" x="472.16502" xlink:href="#maa82645509" y="147.861659"/>
      </g>
     </g>
     <g id="text_5">
      <!-- $\mathdefault{4}$ -->
      <g transform="translate(468.678096 173.341188)scale(0.14 -0.14)">
       <defs>
        <path d="M 1792 1152 
L 1792 673 
C 1792 289 1722 199 1408 199 
L 1011 199 
L 1011 0 
C 1862 0 1862 0 2016 0 
C 2170 0 2170 0 3021 0 
L 3021 199 
L 2714 199 
C 2400 199 2330 282 2330 669 
L 2330 1152 
C 2707 1152 2842 1152 3021 1133 
L 3021 1588 
C 2720 1563 2598 1563 2502 1563 
L 2483 1563 
L 2330 1563 
L 2330 2457 
C 2330 3600 2342 4152 2374 4416 
L 2298 4448 
L 1824 4275 
L 13 1299 
L 83 1152 
z
M 1792 1563 
L 416 1563 
L 1792 3826 
z
" id="URWPalladioL-Roma-34" transform="scale(0.015625)"/>
       </defs>
       <use transform="scale(0.996264)" xlink:href="#URWPalladioL-Roma-34"/>
      </g>
     </g>
    </g>
    <g id="text_6">
     <!-- Time [seconds] -->
     <g transform="translate(274.73014 189.828236)scale(0.12 -0.12)">
      <defs>
       <path d="M 1632 4114 
C 1651 3896 1658 3749 1658 3473 
L 1658 763 
C 1658 256 1626 205 1331 205 
L 1024 205 
L 1024 0 
C 1402 0 1626 0 1958 0 
C 2291 0 2522 0 2899 0 
L 2899 205 
L 2592 205 
C 2298 205 2266 256 2266 763 
L 2266 3473 
C 2266 3762 2272 3903 2291 4114 
L 3283 4114 
C 3462 4114 3533 4057 3539 3904 
L 3565 3400 
L 3763 3400 
C 3763 3810 3776 4056 3808 4416 
C 3347 4416 3136 4416 2957 4416 
C 2707 4416 2522 4416 2426 4416 
L 1414 4416 
C 1350 4416 1005 4416 550 4416 
L 115 4416 
C 147 4056 160 3810 160 3400 
L 358 3400 
L 384 3904 
C 390 4057 461 4114 640 4114 
z
" id="URWPalladioL-Roma-54" transform="scale(0.015625)"/>
       <path d="M 1203 2993 
L 1146 3019 
C 819 2884 486 2793 147 2755 
L 147 2576 
L 384 2576 
C 640 2576 666 2531 666 2105 
L 666 651 
C 666 244 646 199 429 199 
L 134 199 
L 134 0 
C 774 0 774 0 934 0 
C 1094 0 1094 0 1734 0 
L 1734 199 
L 1440 199 
C 1222 199 1203 244 1203 651 
z
M 909 4416 
C 717 4416 550 4249 550 4056 
C 550 3870 717 3704 902 3704 
C 1088 3704 1261 3870 1261 4056 
C 1261 4236 1088 4416 909 4416 
z
" id="URWPalladioL-Roma-69" transform="scale(0.015625)"/>
       <path d="M 115 2565 
L 352 2565 
C 608 2565 634 2520 634 2094 
L 634 643 
C 634 237 614 192 397 192 
L 102 192 
L 102 -7 
C 717 -7 736 -7 915 -7 
C 1094 -7 1261 -7 1677 -7 
L 1677 179 
L 1408 205 
C 1190 205 1171 250 1171 654 
L 1171 2014 
C 1171 2302 1594 2616 1978 2616 
C 2323 2616 2560 2287 2560 1798 
L 2560 643 
C 2560 237 2541 192 2323 192 
L 2029 192 
L 2029 -7 
C 2669 -7 2669 -7 2829 -7 
C 2989 -7 2989 -7 3629 -7 
L 3629 192 
L 3334 192 
C 3117 192 3098 237 3098 643 
L 3098 2011 
C 3098 2300 3520 2616 3904 2616 
C 4250 2616 4486 2291 4486 1806 
L 4486 -7 
C 4877 -7 4883 -7 4992 -7 
C 5075 -7 5075 -7 5562 -7 
L 5562 192 
L 5261 192 
C 5043 192 5024 237 5024 643 
L 5024 1970 
C 5024 2608 4653 3008 4064 3008 
C 3840 3008 3654 2950 3539 2847 
L 3053 2412 
C 2848 2834 2586 3008 2144 3008 
C 1907 3008 1728 2950 1613 2847 
L 1171 2437 
L 1171 2982 
L 1114 3008 
C 787 2873 454 2783 115 2745 
z
" id="URWPalladioL-Roma-6d" transform="scale(0.015625)"/>
       <path d="M 2797 447 
L 2714 511 
C 2304 269 2157 212 1882 212 
C 1466 212 1120 398 941 711 
C 819 921 774 1101 762 1472 
L 1696 1472 
C 2138 1472 2413 1472 2854 1544 
C 2861 1634 2867 1693 2867 1771 
C 2867 2520 2394 3008 1677 3008 
C 1440 3008 1165 2924 902 2770 
C 378 2469 166 2071 166 1404 
C 166 1000 262 654 435 410 
C 691 71 1120 -128 1600 -128 
C 1837 -128 2074 -77 2336 37 
C 2509 108 2643 191 2669 230 
z
M 2298 1690 
C 1965 1690 1811 1690 1581 1690 
C 1286 1690 1120 1690 774 1722 
C 774 2027 800 2169 883 2337 
C 1018 2622 1293 2796 1600 2796 
C 1811 2796 1978 2711 2093 2534 
C 2234 2319 2278 2129 2298 1690 
z
" id="URWPalladioL-Roma-65" transform="scale(0.015625)"/>
       <path d="M 563 -1152 
C 1018 -1152 1030 -1152 1184 -1152 
C 1338 -1152 1370 -1152 1805 -1152 
L 1843 -1120 
L 1843 -953 
L 1818 -921 
L 1574 -921 
C 1402 -921 1261 -882 1184 -818 
C 1126 -760 1107 -671 1107 -459 
C 1107 -453 1107 -318 1101 -125 
L 1101 112 
L 1101 3409 
L 1101 3646 
C 1107 3826 1107 3967 1107 3973 
C 1107 4185 1126 4281 1184 4339 
C 1261 4403 1402 4441 1574 4441 
L 1818 4441 
L 1843 4473 
L 1843 4640 
L 1805 4672 
C 1357 4672 1338 4672 1184 4672 
C 1037 4672 1005 4672 563 4672 
L 506 4595 
C 544 4435 557 4223 557 3730 
C 557 3633 557 3556 563 3492 
L 563 3409 
L 563 112 
L 563 28 
C 557 -74 557 -81 557 -190 
L 557 -260 
C 557 -696 544 -876 506 -1075 
z
" id="URWPalladioL-Roma-5b" transform="scale(0.015625)"/>
       <path d="M 262 917 
C 262 475 243 282 192 26 
C 525 -83 774 -128 1069 -128 
C 1907 -128 2502 321 2502 949 
C 2502 1148 2445 1295 2323 1424 
C 2157 1584 1946 1661 1382 1770 
C 858 1873 685 2001 685 2296 
C 685 2616 909 2796 1299 2796 
C 1728 2796 2054 2572 2054 2270 
L 2054 2123 
L 2234 2123 
C 2240 2495 2246 2648 2266 2847 
C 1926 2963 1696 3008 1434 3008 
C 691 3008 237 2655 237 2078 
C 237 1770 378 1552 672 1417 
C 845 1340 1184 1238 1619 1141 
C 1907 1077 2029 943 2029 699 
C 2029 353 1709 109 1254 109 
C 787 109 454 333 454 654 
L 454 917 
z
" id="URWPalladioL-Roma-73" transform="scale(0.015625)"/>
       <path d="M 2554 1994 
C 2554 2289 2586 2552 2643 2783 
C 2387 2937 2163 3008 1901 3008 
C 1594 3008 1235 2886 851 2642 
C 403 2360 166 1911 166 1347 
C 166 481 774 -128 1632 -128 
C 1965 -128 2445 -6 2509 90 
L 2643 295 
L 2579 391 
C 2342 263 2138 205 1907 205 
C 1197 205 730 757 730 1603 
C 730 2289 1050 2674 1626 2674 
C 1907 2674 2214 2546 2330 2386 
L 2374 1994 
z
" id="URWPalladioL-Roma-63" transform="scale(0.015625)"/>
       <path d="M 1786 3008 
C 851 3008 205 2347 205 1392 
C 205 487 774 -128 1600 -128 
C 2586 -128 3290 558 3290 1520 
C 3290 2386 2662 3008 1786 3008 
z
M 1670 2796 
C 2259 2796 2694 2155 2694 1283 
C 2694 545 2368 83 1850 83 
C 1222 83 800 699 800 1610 
C 800 2379 1107 2796 1670 2796 
z
" id="URWPalladioL-Roma-6f" transform="scale(0.015625)"/>
       <path d="M 2624 -7 
C 3014 -7 3021 -7 3130 -7 
C 3219 -7 3219 -7 3661 -7 
L 3661 179 
L 3398 205 
C 3181 205 3162 244 3162 654 
L 3162 1892 
C 3162 2642 2810 3008 2093 3008 
C 1856 3008 1722 2963 1587 2847 
L 1101 2424 
L 1101 2982 
L 1043 3008 
C 717 2873 384 2783 45 2745 
L 45 2565 
L 282 2565 
C 538 2565 563 2520 563 2094 
L 563 643 
C 563 237 544 192 326 192 
L 38 192 
L 38 -7 
C 474 -7 646 -7 832 -7 
C 1018 -7 1190 -7 1626 -7 
L 1626 192 
L 1338 192 
C 1120 192 1101 237 1101 643 
L 1101 2011 
C 1101 2300 1523 2616 1914 2616 
C 2342 2616 2624 2297 2624 1806 
z
" id="URWPalladioL-Roma-6e" transform="scale(0.015625)"/>
       <path d="M 2637 2802 
C 2278 2956 2099 3008 1875 3008 
C 1702 3008 1549 2969 1389 2887 
L 826 2593 
C 461 2401 224 1935 224 1392 
C 224 881 397 460 710 204 
C 928 19 1229 -64 1645 -64 
C 1773 -64 1920 -38 1952 -13 
L 2662 583 
L 2630 -7 
C 2944 -7 3046 -7 3123 -7 
C 3174 -7 3264 -7 3398 -7 
C 3443 -7 3571 -7 3706 -7 
L 3706 192 
L 3411 192 
C 3194 192 3174 237 3174 643 
L 3174 4607 
L 3117 4659 
C 2835 4550 2624 4498 2118 4421 
L 2118 4242 
L 2477 4242 
C 2592 4242 2637 4171 2637 3978 
z
M 2637 1424 
C 2637 1009 2624 946 2541 799 
C 2362 499 2048 302 1747 302 
C 1184 302 781 844 781 1603 
C 781 2298 1126 2706 1702 2706 
C 1946 2706 2202 2623 2426 2470 
C 2560 2381 2637 2298 2637 2246 
z
" id="URWPalladioL-Roma-64" transform="scale(0.015625)"/>
       <path d="M 1568 4672 
C 1114 4672 1094 4672 947 4672 
C 794 4672 762 4672 326 4672 
L 288 4640 
L 288 4473 
L 314 4441 
L 557 4441 
C 730 4441 864 4403 941 4339 
C 1005 4281 1024 4191 1024 3973 
C 1024 3954 1024 3826 1030 3646 
L 1030 3409 
L 1030 112 
L 1030 -125 
C 1024 -311 1024 -427 1024 -446 
C 1024 -664 1005 -760 941 -818 
C 864 -882 730 -921 557 -921 
L 314 -921 
L 288 -953 
L 288 -1120 
L 326 -1152 
C 774 -1152 787 -1152 947 -1152 
C 1094 -1152 1126 -1152 1568 -1152 
L 1626 -1075 
C 1587 -921 1581 -722 1574 -228 
C 1574 -138 1574 -55 1568 28 
L 1568 112 
L 1568 3409 
L 1568 3492 
C 1574 3563 1574 3646 1574 3736 
C 1574 4230 1587 4441 1626 4595 
z
" id="URWPalladioL-Roma-5d" transform="scale(0.015625)"/>
      </defs>
      <use transform="scale(0.996264)" xlink:href="#URWPalladioL-Roma-54"/>
      <use transform="translate(55.591109 0)scale(0.996264)" xlink:href="#URWPalladioL-Roma-69"/>
      <use transform="translate(84.581471 0)scale(0.996264)" xlink:href="#URWPalladioL-Roma-6d"/>
      <use transform="translate(172.551145 0)scale(0.996264)" xlink:href="#URWPalladioL-Roma-65"/>
      <use transform="translate(245.17804 0)scale(0.996264)" xlink:href="#URWPalladioL-Roma-5b"/>
      <use transform="translate(278.35327 0)scale(0.996264)" xlink:href="#URWPalladioL-Roma-73"/>
      <use transform="translate(320.594736 0)scale(0.996264)" xlink:href="#URWPalladioL-Roma-65"/>
      <use transform="translate(368.315031 0)scale(0.996264)" xlink:href="#URWPalladioL-Roma-63"/>
      <use transform="translate(412.5486 0)scale(0.996264)" xlink:href="#URWPalladioL-Roma-6f"/>
      <use transform="translate(466.94418 0)scale(0.996264)" xlink:href="#URWPalladioL-Roma-6e"/>
      <use transform="translate(524.926241 0)scale(0.996264)" xlink:href="#URWPalladioL-Roma-64"/>
      <use transform="translate(585.797872 0)scale(0.996264)" xlink:href="#URWPalladioL-Roma-73"/>
      <use transform="translate(628.039338 0)scale(0.996264)" xlink:href="#URWPalladioL-Roma-5d"/>
     </g>
    </g>
   </g>
   <g id="matplotlib.axis_2">
    <g id="ytick_1">
     <g id="line2d_11">
      <path clip-path="url(#pb049b35475)" d="M 51.606463 147.861659 
L 577.19952 147.861659 
" style="fill:none;stroke:#000000;stroke-linecap:square;stroke-opacity:0.2;stroke-width:0.5;"/>
     </g>
     <g id="line2d_12">
      <defs>
       <path d="M 0 0 
L -3.5 0 
" id="m9a4f432113" style="stroke:#000000;stroke-opacity:0.2;stroke-width:0.8;"/>
      </defs>
      <g>
       <use style="fill-opacity:0.2;stroke:#000000;stroke-opacity:0.2;stroke-width:0.8;" x="51.606463" xlink:href="#m9a4f432113" y="147.861659"/>
      </g>
     </g>
     <g id="text_7">
      <!-- $\mathdefault{−1.0}$ -->
      <g transform="translate(7.2 152.851423)scale(0.14 -0.14)">
       <defs>
        <path d="M 4218 1472 
C 4326 1472 4442 1472 4442 1600 
C 4442 1728 4326 1728 4218 1728 
L 755 1728 
C 646 1728 531 1728 531 1600 
C 531 1472 646 1472 755 1472 
z
" id="CMSY10-0" transform="scale(0.015625)"/>
        <path d="M 794 744 
C 602 744 429 564 429 372 
C 429 179 602 0 787 0 
C 992 0 1171 173 1171 372 
C 1171 564 992 744 794 744 
z
" id="URWPalladioL-Roma-2e" transform="scale(0.015625)"/>
       </defs>
       <use transform="scale(1.038107)" xlink:href="#CMSY10-0"/>
       <use transform="translate(81.941696 0)scale(0.996264)" xlink:href="#URWPalladioL-Roma-31"/>
       <use transform="translate(131.754897 0)scale(0.996264)" xlink:href="#URWPalladioL-Roma-2e"/>
       <use transform="translate(156.661497 0)scale(0.996264)" xlink:href="#URWPalladioL-Roma-30"/>
      </g>
     </g>
    </g>
    <g id="ytick_2">
     <g id="line2d_13">
      <path clip-path="url(#pb049b35475)" d="M 51.606463 113.943685 
L 577.19952 113.943685 
" style="fill:none;stroke:#000000;stroke-linecap:square;stroke-opacity:0.2;stroke-width:0.5;"/>
     </g>
     <g id="line2d_14">
      <g>
       <use style="fill-opacity:0.2;stroke:#000000;stroke-opacity:0.2;stroke-width:0.8;" x="51.606463" xlink:href="#m9a4f432113" y="113.943685"/>
      </g>
     </g>
     <g id="text_8">
      <!-- $\mathdefault{−0.5}$ -->
      <g transform="translate(7.2 118.93345)scale(0.14 -0.14)">
       <defs>
        <path d="M 813 3877 
C 1638 3877 1997 3877 2765 3877 
L 2797 3907 
C 2784 4016 2784 4064 2784 4144 
C 2784 4229 2784 4277 2797 4386 
L 2765 4416 
C 2285 4416 1997 4416 1651 4416 
C 1299 4416 1018 4416 538 4416 
L 506 4403 
C 512 4011 518 3729 518 3523 
C 518 2977 499 2360 480 2077 
L 608 2038 
C 909 2341 1082 2432 1395 2432 
C 2010 2432 2394 1993 2394 1296 
C 2394 580 1984 160 1286 160 
C 941 160 621 277 531 444 
L 237 973 
L 83 883 
C 230 516 307 310 397 27 
C 576 -71 832 -128 1107 -128 
C 1536 -128 1990 59 2342 368 
C 2733 716 2938 1154 2938 1630 
C 2938 2359 2419 2874 1690 2874 
C 1382 2874 1152 2791 755 2554 
z
" id="URWPalladioL-Roma-35" transform="scale(0.015625)"/>
       </defs>
       <use transform="scale(1.038107)" xlink:href="#CMSY10-0"/>
       <use transform="translate(81.941696 0)scale(0.996264)" xlink:href="#URWPalladioL-Roma-30"/>
       <use transform="translate(131.754897 0)scale(0.996264)" xlink:href="#URWPalladioL-Roma-2e"/>
       <use transform="translate(156.661497 0)scale(0.996264)" xlink:href="#URWPalladioL-Roma-35"/>
      </g>
     </g>
    </g>
    <g id="ytick_3">
     <g id="line2d_15">
      <path clip-path="url(#pb049b35475)" d="M 51.606463 80.025712 
L 577.19952 80.025712 
" style="fill:none;stroke:#000000;stroke-linecap:square;stroke-opacity:0.2;stroke-width:0.5;"/>
     </g>
     <g id="line2d_16">
      <g>
       <use style="fill-opacity:0.2;stroke:#000000;stroke-opacity:0.2;stroke-width:0.8;" x="51.606463" xlink:href="#m9a4f432113" y="80.025712"/>
      </g>
     </g>
     <g id="text_9">
      <!-- $\mathdefault{0.0}$ -->
      <g transform="translate(18.671843 85.015476)scale(0.14 -0.14)">
       <use transform="scale(0.996264)" xlink:href="#URWPalladioL-Roma-30"/>
       <use transform="translate(49.8132 0)scale(0.996264)" xlink:href="#URWPalladioL-Roma-2e"/>
       <use transform="translate(74.719801 0)scale(0.996264)" xlink:href="#URWPalladioL-Roma-30"/>
      </g>
     </g>
    </g>
    <g id="ytick_4">
     <g id="line2d_17">
      <path clip-path="url(#pb049b35475)" d="M 51.606463 46.107738 
L 577.19952 46.107738 
" style="fill:none;stroke:#000000;stroke-linecap:square;stroke-opacity:0.2;stroke-width:0.5;"/>
     </g>
     <g id="line2d_18">
      <g>
       <use style="fill-opacity:0.2;stroke:#000000;stroke-opacity:0.2;stroke-width:0.8;" x="51.606463" xlink:href="#m9a4f432113" y="46.107738"/>
      </g>
     </g>
     <g id="text_10">
      <!-- $\mathdefault{0.5}$ -->
      <g transform="translate(18.671843 51.097503)scale(0.14 -0.14)">
       <use transform="scale(0.996264)" xlink:href="#URWPalladioL-Roma-30"/>
       <use transform="translate(49.8132 0)scale(0.996264)" xlink:href="#URWPalladioL-Roma-2e"/>
       <use transform="translate(74.719801 0)scale(0.996264)" xlink:href="#URWPalladioL-Roma-35"/>
      </g>
     </g>
    </g>
    <g id="ytick_5">
     <g id="line2d_19">
      <path clip-path="url(#pb049b35475)" d="M 51.606463 12.189765 
L 577.19952 12.189765 
" style="fill:none;stroke:#000000;stroke-linecap:square;stroke-opacity:0.2;stroke-width:0.5;"/>
     </g>
     <g id="line2d_20">
      <g>
       <use style="fill-opacity:0.2;stroke:#000000;stroke-opacity:0.2;stroke-width:0.8;" x="51.606463" xlink:href="#m9a4f432113" y="12.189765"/>
      </g>
     </g>
     <g id="text_11">
      <!-- $\mathdefault{1.0}$ -->
      <g transform="translate(18.671843 17.179529)scale(0.14 -0.14)">
       <use transform="scale(0.996264)" xlink:href="#URWPalladioL-Roma-31"/>
       <use transform="translate(49.8132 0)scale(0.996264)" xlink:href="#URWPalladioL-Roma-2e"/>
       <use transform="translate(74.719801 0)scale(0.996264)" xlink:href="#URWPalladioL-Roma-30"/>
      </g>
     </g>
    </g>
   </g>
   <g id="line2d_21">
    <path clip-path="url(#pb049b35475)" d="M 51.606463 32.540549 
L 52.237301 32.637299 
L 52.973278 32.993945 
L 53.709256 33.610429 
L 54.550373 34.62697 
L 55.496629 36.155895 
L 56.548026 38.310049 
L 57.704562 41.19373 
L 59.071377 45.222468 
L 60.753611 50.951505 
L 62.856404 58.974172 
L 69.585341 85.303144 
L 71.267575 90.66386 
L 72.634391 94.324977 
L 73.790927 96.858184 
L 74.842323 98.668908 
L 75.78858 99.873643 
L 76.629697 100.59386 
L 77.365674 100.947504 
L 78.101652 101.040387 
L 78.73249 100.912069 
L 79.468467 100.521055 
L 80.204445 99.873398 
L 81.045562 98.825866 
L 81.991819 97.268958 
L 83.043215 95.093565 
L 84.304891 91.912921 
L 85.671706 87.847325 
L 87.35394 82.119702 
L 89.667012 73.354577 
L 95.134274 52.288191 
L 96.921647 46.453438 
L 98.393602 42.390857 
L 99.655278 39.549378 
L 100.706674 37.685331 
L 101.652931 36.427074 
L 102.494048 35.656818 
L 103.230026 35.258856 
L 103.966003 35.122355 
L 104.596841 35.214714 
L 105.332819 35.566458 
L 106.068796 36.178822 
L 106.909913 37.192332 
L 107.85617 38.720967 
L 108.907566 40.87999 
L 110.064102 43.777009 
L 111.430918 47.834627 
L 113.008012 53.238621 
L 115.005665 60.912762 
L 122.680859 91.346089 
L 124.257954 96.274937 
L 125.624769 99.837569 
L 126.781305 102.266132 
L 127.832701 103.968195 
L 128.778958 105.066755 
L 129.620075 105.687901 
L 130.356053 105.952627 
L 131.09203 105.955711 
L 131.828008 105.69787 
L 132.563985 105.181844 
L 133.405102 104.282127 
L 134.351359 102.887181 
L 135.402755 100.885045 
L 136.559291 98.172385 
L 137.926107 94.350857 
L 139.503201 89.246851 
L 141.605994 81.601061 
L 148.440071 56.042423 
L 150.017165 51.282841 
L 151.383981 47.82792 
L 152.540517 45.467657 
L 153.591913 43.813742 
L 154.53817 42.750423 
L 155.379287 42.156611 
L 156.115264 41.914443 
L 156.746102 41.915246 
L 157.48208 42.160049 
L 158.218057 42.666434 
L 159.059174 43.561468 
L 159.900291 44.786387 
L 160.846548 46.544839 
L 162.003084 49.211472 
L 163.26476 52.716378 
L 164.736715 57.492666 
L 166.524089 64.091743 
L 169.04744 74.364666 
L 173.673584 93.33759 
L 175.566098 100.106855 
L 177.143192 104.932258 
L 178.404868 108.139945 
L 179.561404 110.506381 
L 180.6128 112.144755 
L 181.453917 113.087184 
L 182.295035 113.693203 
L 183.031012 113.943685 
L 183.66185 113.949614 
L 184.397827 113.713727 
L 185.133805 113.219034 
L 185.974922 112.342936 
L 186.921179 110.973588 
L 187.972575 108.99868 
L 189.129111 106.314492 
L 190.495926 102.524607 
L 192.073021 97.4544 
L 194.070674 90.245727 
L 201.11503 64.047274 
L 202.692125 59.352156 
L 204.05894 55.959517 
L 205.215476 53.655523 
L 206.266872 52.054757 
L 207.107989 51.132488 
L 207.949107 50.540476 
L 208.685084 50.299189 
L 209.315922 50.30023 
L 210.051899 50.544709 
L 210.787877 51.050121 
L 211.628994 51.943248 
L 212.470111 53.165413 
L 213.416368 54.919755 
L 214.572904 57.57991 
L 215.83458 61.075925 
L 217.306534 65.839439 
L 219.093908 72.419531 
L 221.61726 82.659185 
L 226.243404 101.551548 
L 228.135917 108.280604 
L 229.607872 112.777009 
L 230.869548 116.005098 
L 232.026084 118.39316 
L 233.07748 120.052768 
L 233.918597 121.012719 
L 234.759715 121.636283 
L 235.495692 121.901802 
L 236.12653 121.920156 
L 236.862507 121.697972 
L 237.598485 121.215853 
L 238.439602 120.352382 
L 239.280719 119.165091 
L 240.226976 117.458708 
L 241.383512 114.873523 
L 242.645188 111.484867 
L 244.117142 106.88719 
L 246.009656 100.186413 
L 248.953566 88.790882 
L 252.318034 75.96539 
L 254.210548 69.605364 
L 255.682503 65.365987 
L 256.944179 62.339809 
L 258.100715 60.123926 
L 259.046971 58.740634 
L 259.888088 57.852506 
L 260.624066 57.347237 
L 261.360043 57.100432 
L 262.096021 57.114544 
L 262.831998 57.390003 
L 263.567976 57.92521 
L 264.409093 58.850208 
L 265.35535 60.27984 
L 266.406746 62.330912 
L 267.563282 65.113401 
L 268.930097 69.043771 
L 270.507192 74.315113 
L 272.504845 81.847886 
L 276.079593 96.44166 
L 278.918363 107.595632 
L 280.705737 113.794008 
L 282.177692 118.178423 
L 283.439368 121.309189 
L 284.595904 123.606978 
L 285.54216 125.048729 
L 286.383278 125.983329 
L 287.224395 126.581917 
L 287.960372 126.82556 
L 288.59121 126.82492 
L 289.327187 126.580038 
L 290.063165 126.074375 
L 290.904282 125.182599 
L 291.745399 123.965123 
L 292.691656 122.222042 
L 293.848192 119.58732 
L 295.109868 116.137761 
L 296.581823 111.458652 
L 298.474336 104.634722 
L 301.313106 93.425866 
L 304.887854 79.44951 
L 306.780368 72.916092 
L 308.357462 68.256069 
L 309.619138 65.162986 
L 310.775674 62.889881 
L 311.721931 61.462005 
L 312.563048 60.535454 
L 313.404165 59.94131 
L 314.140142 59.698931 
L 314.77098 59.698931 
L 315.506958 59.94131 
L 316.242935 60.442851 
L 317.084052 61.328297 
L 317.925169 62.538111 
L 318.871426 64.271477 
L 320.027962 66.893511 
L 321.289638 70.329216 
L 322.761593 74.993512 
L 324.654106 81.802645 
L 327.492877 93.002308 
L 331.172764 107.377765 
L 333.065277 113.878443 
L 334.537232 118.218931 
L 335.798908 121.325979 
L 336.955444 123.611277 
L 337.901701 125.047998 
L 338.742818 125.981068 
L 339.583935 126.580038 
L 340.319913 126.82492 
L 340.95075 126.82556 
L 341.686728 126.581917 
L 342.422705 126.076676 
L 343.263822 125.183655 
L 344.10494 123.962299 
L 345.051196 122.210712 
L 346.207732 119.558118 
L 347.469408 116.077666 
L 348.941363 111.344753 
L 350.728737 104.823763 
L 353.357228 94.282355 
L 357.562813 77.390089 
L 359.455327 70.720897 
L 361.032421 65.961693 
L 362.294097 62.797074 
L 363.450633 60.463448 
L 364.50203 58.850208 
L 365.343147 57.92521 
L 366.184264 57.33469 
L 366.920241 57.096515 
L 367.551079 57.100432 
L 368.287057 57.347237 
L 369.023034 57.852506 
L 369.864151 58.740634 
L 370.810408 60.123926 
L 371.861804 62.115494 
L 373.01834 64.820257 
L 374.385156 68.638653 
L 375.96225 73.748954 
L 377.959903 81.021744 
L 385.214539 108.264017 
L 386.791633 112.964261 
L 388.158448 116.349193 
L 389.314984 118.638937 
L 390.366381 120.221443 
L 391.207498 121.125995 
L 391.943475 121.64493 
L 392.679453 121.904445 
L 393.310291 121.918279 
L 393.941129 121.738931 
L 394.677106 121.286329 
L 395.413084 120.574335 
L 396.254201 119.449196 
L 397.200457 117.798821 
L 398.251854 115.510638 
L 399.513529 112.180309 
L 400.985484 107.581064 
L 402.667719 101.551548 
L 404.980791 92.333221 
L 410.763471 68.842053 
L 412.550845 62.698675 
L 414.0228 58.398337 
L 415.284475 55.362275 
L 416.335872 53.340804 
L 417.282129 51.943248 
L 418.123246 51.050121 
L 418.859223 50.544709 
L 419.595201 50.30023 
L 420.226038 50.299189 
L 420.962016 50.540476 
L 421.697993 51.040244 
L 422.53911 51.921744 
L 423.485367 53.296659 
L 424.536764 55.277121 
L 425.6933 57.966647 
L 427.060115 61.761799 
L 428.63721 66.836679 
L 430.740002 74.445829 
L 437.574079 99.902963 
L 439.151174 104.642988 
L 440.517989 108.082145 
L 441.674525 110.429933 
L 442.725921 112.073196 
L 443.672178 113.127489 
L 444.513295 113.713727 
L 445.249273 113.949614 
L 445.88011 113.943685 
L 446.616088 113.693203 
L 447.352065 113.181464 
L 448.193183 112.28071 
L 449.0343 111.050496 
L 449.980556 109.286596 
L 451.137092 106.614038 
L 452.398768 103.103589 
L 453.870723 98.32205 
L 455.658097 91.71836 
L 458.181448 81.44222 
L 462.807592 62.473424 
L 464.700106 55.709586 
L 466.2772 50.890359 
L 467.538876 47.688697 
L 468.695412 45.328626 
L 469.746809 43.696738 
L 470.587926 42.759976 
L 471.429043 42.160049 
L 472.16502 41.915246 
L 472.795858 41.914443 
L 473.531836 42.156611 
L 474.267813 42.657908 
L 475.10893 43.541949 
L 476.055187 44.920737 
L 477.106583 46.906757 
L 478.263119 49.603924 
L 479.629935 53.410167 
L 481.207029 58.500613 
L 483.204682 65.737009 
L 490.354178 92.389435 
L 491.931272 97.063456 
L 493.298088 100.430232 
L 494.454624 102.70793 
L 495.50602 104.282127 
L 496.347137 105.181844 
L 497.083115 105.69787 
L 497.819092 105.955711 
L 498.55507 105.952627 
L 499.291047 105.687901 
L 500.027025 105.162845 
L 500.868142 104.248371 
L 501.814399 102.828708 
L 502.865795 100.785718 
L 504.022331 98.007622 
L 505.389146 94.075158 
L 506.966241 88.789951 
L 508.963894 81.219562 
L 512.328363 67.368509 
L 515.377412 55.182145 
L 517.269926 48.513824 
L 518.741881 44.06581 
L 520.003556 40.87999 
L 521.160092 38.531308 
L 522.211489 36.908018 
L 523.052606 35.977474 
L 523.788583 35.439233 
L 524.524561 35.16244 
L 525.155399 35.134545 
L 525.786236 35.299762 
L 526.522214 35.734828 
L 527.258191 36.427074 
L 528.099308 37.525508 
L 529.045565 39.138634 
L 530.096962 41.373901 
L 531.358637 44.620866 
L 532.830592 49.089928 
L 534.617966 55.304974 
L 537.141317 65.01217 
L 541.662322 82.497158 
L 543.449696 88.510682 
L 544.921651 92.762916 
L 546.183326 95.793567 
L 547.339862 98.009262 
L 548.286119 99.390044 
L 549.127236 100.274649 
L 549.863214 100.776176 
L 550.599191 101.018918 
L 551.230029 101.019313 
L 551.966007 100.77724 
L 552.701984 100.275564 
L 553.543101 99.389062 
L 554.384218 98.176833 
L 555.330475 96.438629 
L 556.487011 93.806867 
L 557.748687 90.354753 
L 559.220642 85.662293 
L 561.008016 79.20111 
L 563.636507 68.768884 
L 567.736952 52.492354 
L 569.629466 45.895804 
L 571.206561 41.19373 
L 572.468236 38.073929 
L 573.624772 35.781743 
L 574.571029 34.342108 
L 575.412146 33.408016 
L 576.253263 32.809073 
L 576.989241 32.564745 
L 577.19952 32.543237 
L 577.19952 32.543237 
" style="fill:none;stroke:#0271ae;stroke-linecap:square;stroke-width:3;"/>
   </g>
   <g id="line2d_22">
    <defs>
     <path d="M 0 5 
C 1.326016 5 2.597899 4.473168 3.535534 3.535534 
C 4.473168 2.597899 5 1.326016 5 0 
C 5 -1.326016 4.473168 -2.597899 3.535534 -3.535534 
C 2.597899 -4.473168 1.326016 -5 0 -5 
C -1.326016 -5 -2.597899 -4.473168 -3.535534 -3.535534 
C -4.473168 -2.597899 -5 -1.326016 -5 0 
C -5 1.326016 -4.473168 2.597899 -3.535534 3.535534 
C -2.597899 4.473168 -1.326016 5 0 5 
z
" id="m2c1f027889"/>
    </defs>
    <g clip-path="url(#pb049b35475)">
     <use style="fill:#dc2830;" x="51.606463" xlink:href="#m2c1f027889" y="32.540549"/>
     <use style="fill:#dc2830;" x="72.634391" xlink:href="#m2c1f027889" y="94.324977"/>
     <use style="fill:#dc2830;" x="93.662319" xlink:href="#m2c1f027889" y="57.655463"/>
     <use style="fill:#dc2830;" x="114.690246" xlink:href="#m2c1f027889" y="59.654426"/>
     <use style="fill:#dc2830;" x="135.718174" xlink:href="#m2c1f027889" y="100.196265"/>
     <use style="fill:#dc2830;" x="156.746102" xlink:href="#m2c1f027889" y="41.915246"/>
     <use style="fill:#dc2830;" x="177.77403" xlink:href="#m2c1f027889" y="106.614038"/>
     <use style="fill:#dc2830;" x="198.801958" xlink:href="#m2c1f027889" y="72.086719"/>
     <use style="fill:#dc2830;" x="219.829886" xlink:href="#m2c1f027889" y="75.32111"/>
     <use style="fill:#dc2830;" x="240.857814" xlink:href="#m2c1f027889" y="116.113981"/>
     <use style="fill:#dc2830;" x="261.885742" xlink:href="#m2c1f027889" y="57.083825"/>
     <use style="fill:#dc2830;" x="282.913669" xlink:href="#m2c1f027889" y="120.080382"/>
     <use style="fill:#dc2830;" x="303.941597" xlink:href="#m2c1f027889" y="83.004689"/>
     <use style="fill:#dc2830;" x="324.969525" xlink:href="#m2c1f027889" y="83.004689"/>
     <use style="fill:#dc2830;" x="345.997453" xlink:href="#m2c1f027889" y="120.080382"/>
     <use style="fill:#dc2830;" x="367.025381" xlink:href="#m2c1f027889" y="57.083825"/>
     <use style="fill:#dc2830;" x="388.053309" xlink:href="#m2c1f027889" y="116.113981"/>
     <use style="fill:#dc2830;" x="409.081237" xlink:href="#m2c1f027889" y="75.32111"/>
     <use style="fill:#dc2830;" x="430.109165" xlink:href="#m2c1f027889" y="72.086719"/>
     <use style="fill:#dc2830;" x="451.137092" xlink:href="#m2c1f027889" y="106.614038"/>
     <use style="fill:#dc2830;" x="472.16502" xlink:href="#m2c1f027889" y="41.915246"/>
     <use style="fill:#dc2830;" x="493.192948" xlink:href="#m2c1f027889" y="100.196265"/>
     <use style="fill:#dc2830;" x="514.220876" xlink:href="#m2c1f027889" y="59.654426"/>
     <use style="fill:#dc2830;" x="535.248804" xlink:href="#m2c1f027889" y="57.655463"/>
     <use style="fill:#dc2830;" x="556.276732" xlink:href="#m2c1f027889" y="94.324977"/>
    </g>
   </g>
   <g id="legend_1">
    <g id="patch_3">
     <path d="M 299.390098 44.960749 
L 567.39952 44.960749 
Q 570.19952 44.960749 570.19952 42.160749 
L 570.19952 21.989765 
Q 570.19952 19.189765 567.39952 19.189765 
L 299.390098 19.189765 
Q 296.590098 19.189765 296.590098 21.989765 
L 296.590098 42.160749 
Q 296.590098 44.960749 299.390098 44.960749 
z
" style="fill:#ffffff;opacity:0.95;stroke:#cccccc;stroke-linejoin:miter;stroke-width:0.5;"/>
    </g>
    <g id="line2d_23">
     <path d="M 302.190098 30.527577 
L 316.190098 30.527577 
" style="fill:none;stroke:#0271ae;stroke-linecap:square;stroke-width:3;"/>
    </g>
    <g id="line2d_24"/>
    <g id="text_12">
     <!-- $x(t)$ -->
     <g transform="translate(327.390098 35.427577)scale(0.14 -0.14)">
      <defs>
       <path d="M 134 566 
C 134 438 122 357 83 153 
C 70 77 64 58 58 13 
C 154 -39 256 -64 333 -64 
C 544 -64 794 121 992 419 
L 1478 1164 
L 1549 725 
C 1632 184 1779 -64 2010 -64 
C 2150 -64 2355 44 2560 229 
L 2874 509 
L 2816 630 
C 2586 439 2426 344 2323 344 
C 2227 344 2144 408 2080 534 
C 2022 655 1952 890 1920 1075 
L 1805 1716 
L 2029 2028 
C 2330 2441 2502 2587 2701 2587 
C 2803 2587 2880 2536 2912 2441 
L 3002 2466 
L 3098 3008 
C 3021 3053 2963 3072 2906 3072 
C 2650 3072 2394 2842 1997 2257 
L 1760 1907 
L 1722 2212 
C 1645 2842 1472 3072 1094 3072 
C 928 3072 787 3021 730 2938 
L 358 2409 
L 467 2346 
C 659 2562 787 2651 909 2651 
C 1120 2651 1261 2391 1370 1767 
L 1440 1373 
L 1184 977 
C 909 549 691 344 512 344 
C 416 344 346 371 333 403 
L 262 585 
z
" id="URWPalladioL-Ital-78" transform="scale(0.015625)"/>
       <path d="M 2118 -1536 
C 2118 -1517 2118 -1504 2010 -1395 
C 1210 -584 1005 632 1005 1616 
C 1005 2735 1248 3855 2035 4658 
C 2118 4735 2118 4748 2118 4767 
C 2118 4812 2093 4832 2054 4832 
C 1990 4832 1414 4395 1037 3577 
C 710 2870 634 2156 634 1616 
C 634 1114 704 336 1056 -391 
C 1440 -1182 1990 -1600 2054 -1600 
C 2093 -1600 2118 -1581 2118 -1536 
z
" id="CMR10-28" transform="scale(0.015625)"/>
       <path d="M 800 2465 
L 442 671 
C 435 626 429 615 410 538 
C 371 361 358 265 358 190 
C 358 31 429 -64 550 -64 
C 774 -64 998 62 1498 463 
L 1594 538 
L 1696 621 
L 1632 735 
L 1344 538 
C 1158 412 1030 348 960 348 
C 902 348 870 399 870 474 
C 870 639 960 1153 1146 2072 
L 1229 2465 
L 1914 2465 
L 1984 2784 
C 1741 2752 1523 2752 1280 2752 
C 1382 3348 1453 3659 1568 4001 
L 1498 4097 
C 1370 4021 1197 3944 998 3868 
L 838 2784 
C 557 2650 390 2580 275 2548 
L 262 2465 
z
" id="URWPalladioL-Ital-74" transform="scale(0.015625)"/>
       <path d="M 1850 1616 
C 1850 2118 1779 2896 1427 3622 
C 1043 4414 493 4832 429 4832 
C 390 4832 365 4806 365 4767 
C 365 4748 365 4735 486 4620 
C 1114 3983 1478 2960 1478 1616 
C 1478 516 1242 -617 448 -1427 
C 365 -1504 365 -1517 365 -1536 
C 365 -1575 390 -1600 429 -1600 
C 493 -1600 1069 -1163 1446 -346 
C 1773 362 1850 1075 1850 1616 
z
" id="CMR10-29" transform="scale(0.015625)"/>
      </defs>
      <use transform="scale(0.996264)" xlink:href="#URWPalladioL-Ital-78"/>
      <use transform="translate(53.299136 0)scale(1.038107)" xlink:href="#CMR10-28"/>
      <use transform="translate(96.038841 0)scale(0.996264)" xlink:href="#URWPalladioL-Ital-74"/>
      <use transform="translate(131.704123 0)scale(1.038107)" xlink:href="#CMR10-29"/>
     </g>
    </g>
    <g id="line2d_25"/>
    <g id="line2d_26">
     <g>
      <use style="fill:#dc2830;" x="386.480591" xlink:href="#m2c1f027889" y="30.527577"/>
     </g>
    </g>
    <g id="text_13">
     <!-- $x[n]$ -->
     <g transform="translate(404.680591 35.427577)scale(0.14 -0.14)">
      <defs>
       <path d="M 1632 -1600 
L 1632 -1343 
L 1011 -1343 
L 1011 4544 
L 1632 4544 
L 1632 4801 
L 755 4801 
L 755 -1600 
z
" id="CMR10-5b" transform="scale(0.015625)"/>
       <path d="M 154 2471 
L 198 2343 
L 403 2477 
C 640 2625 659 2637 704 2637 
C 774 2637 819 2574 819 2478 
C 819 2152 557 919 294 6 
L 339 -64 
C 499 -20 646 18 787 44 
C 909 849 1043 1264 1338 1705 
C 1683 2241 2163 2637 2451 2637 
C 2522 2637 2560 2580 2560 2484 
C 2560 2369 2541 2235 2490 2031 
L 2157 677 
C 2099 440 2074 294 2074 192 
C 2074 31 2144 -64 2266 -64 
C 2432 -64 2662 69 3290 536 
L 3226 651 
L 3059 543 
C 2874 421 2733 351 2669 351 
C 2624 351 2586 408 2586 478 
C 2586 510 2592 581 2598 607 
L 3021 2369 
C 3066 2555 3091 2733 3091 2841 
C 3091 2989 3021 3072 2893 3072 
C 2624 3072 2182 2830 1805 2478 
C 1562 2254 1382 2037 1050 1571 
L 1293 2599 
C 1318 2714 1331 2790 1331 2861 
C 1331 2995 1280 3072 1184 3072 
C 1050 3072 800 2932 333 2599 
z
" id="URWPalladioL-Ital-6e" transform="scale(0.015625)"/>
       <path d="M 1018 4801 
L 141 4801 
L 141 4544 
L 762 4544 
L 762 -1343 
L 141 -1343 
L 141 -1600 
L 1018 -1600 
z
" id="CMR10-5d" transform="scale(0.015625)"/>
      </defs>
      <use transform="scale(0.996264)" xlink:href="#URWPalladioL-Ital-78"/>
      <use transform="translate(53.299136 0)scale(1.038107)" xlink:href="#CMR10-5b"/>
      <use transform="translate(84.581835 0)scale(0.996264)" xlink:href="#URWPalladioL-Ital-6e"/>
      <use transform="translate(142.464796 0)scale(1.038107)" xlink:href="#CMR10-5d"/>
     </g>
    </g>
    <g id="line2d_27">
     <path d="M 456.66274 30.527577 
L 470.66274 30.527577 
" style="fill:none;stroke:#dc2830;stroke-dasharray:2,3.3;stroke-dashoffset:0;stroke-opacity:0.5;stroke-width:2;"/>
    </g>
    <g id="text_14">
     <!-- Sample times -->
     <g transform="translate(481.86274 35.427577)scale(0.14 -0.14)">
      <defs>
       <path d="M 2861 3371 
C 2861 3711 2886 3928 2950 4274 
C 2438 4480 2150 4544 1798 4544 
C 845 4544 154 3941 154 3102 
C 154 2788 237 2557 422 2384 
C 640 2186 934 2083 1555 2000 
C 2048 1929 2272 1859 2438 1711 
C 2605 1577 2682 1391 2682 1147 
C 2682 571 2202 154 1536 154 
C 1024 154 525 404 493 666 
L 442 1096 
L 237 1096 
C 243 980 243 878 243 840 
C 243 545 230 404 192 116 
C 557 -45 928 -128 1299 -128 
C 2413 -128 3219 545 3219 1474 
C 3219 1775 3136 1987 2957 2153 
C 2733 2364 2464 2448 1747 2544 
C 966 2646 691 2858 691 3352 
C 691 3890 1094 4274 1658 4274 
C 1907 4274 2144 4223 2317 4127 
C 2528 4018 2598 3922 2618 3737 
L 2656 3371 
z
" id="URWPalladioL-Roma-53" transform="scale(0.015625)"/>
       <path d="M 2074 538 
L 2042 -1 
C 2458 -1 2458 -1 2541 -1 
C 2573 -1 2733 -1 3014 -1 
L 3014 192 
L 2765 192 
C 2611 192 2586 244 2586 558 
L 2586 1731 
C 2586 2668 2317 3008 1574 3008 
C 1299 3008 1043 2937 800 2791 
L 461 2585 
L 461 2171 
L 627 2126 
L 710 2323 
C 845 2623 909 2668 1203 2668 
C 1805 2668 2054 2431 2074 1852 
L 1440 1736 
C 570 1577 205 1277 205 722 
C 205 224 506 -64 1011 -64 
C 1126 -64 1235 -45 1280 -13 
z
M 2074 806 
C 1888 544 1485 302 1235 302 
C 979 302 755 538 755 812 
C 755 1048 883 1271 1075 1392 
C 1235 1488 1587 1577 2074 1648 
z
" id="URWPalladioL-Roma-61" transform="scale(0.015625)"/>
       <path d="M 64 2565 
L 301 2565 
C 557 2565 582 2520 582 2095 
L 582 -1142 
C 582 -1548 563 -1593 346 -1593 
L 51 -1593 
L 51 -1792 
C 691 -1792 691 -1792 851 -1792 
C 1011 -1792 1011 -1792 1651 -1792 
L 1651 -1593 
L 1357 -1593 
C 1139 -1593 1120 -1547 1120 -1138 
L 1120 89 
C 1312 -26 1517 -71 1805 -71 
C 1990 -71 2157 -32 2259 32 
L 2989 505 
C 3245 672 3546 1330 3546 1740 
C 3546 2451 2957 3008 2214 3008 
C 1978 3008 1747 2943 1645 2847 
L 1120 2367 
L 1120 2982 
L 1062 3008 
C 736 2873 403 2783 64 2745 
z
M 1120 1964 
C 1120 2053 1152 2124 1235 2233 
C 1421 2469 1683 2591 2003 2591 
C 2605 2591 2989 2169 2989 1504 
C 2989 787 2560 256 1984 256 
C 1632 256 1370 372 1120 633 
z
" id="URWPalladioL-Roma-70" transform="scale(0.015625)"/>
       <path d="M 147 4256 
L 506 4256 
C 621 4256 666 4185 666 3992 
L 666 651 
C 666 244 646 199 429 199 
L 134 199 
L 134 0 
C 774 0 774 0 934 0 
C 1094 0 1094 0 1734 0 
L 1734 199 
L 1440 199 
C 1222 199 1203 244 1203 650 
L 1203 4621 
L 1146 4673 
C 864 4564 653 4512 147 4435 
z
" id="URWPalladioL-Roma-6c" transform="scale(0.015625)"/>
       <path d="M 627 2476 
L 627 619 
C 627 142 838 -64 1331 -64 
C 1478 -64 1632 -32 1670 13 
L 1978 353 
L 1894 463 
C 1734 372 1638 340 1517 340 
C 1267 340 1165 470 1165 788 
L 1165 2489 
L 1984 2489 
L 2042 2816 
L 1165 2816 
L 1165 3056 
C 1165 3321 1184 3547 1235 3951 
L 1158 4021 
C 1005 3925 813 3842 614 3778 
C 634 3585 640 3463 640 3271 
L 640 2822 
L 141 2598 
L 141 2476 
z
" id="URWPalladioL-Roma-74" transform="scale(0.015625)"/>
      </defs>
      <use transform="scale(0.996264)" xlink:href="#URWPalladioL-Roma-53"/>
      <use transform="translate(52.303815 0)scale(0.996264)" xlink:href="#URWPalladioL-Roma-61"/>
      <use transform="translate(102.117015 0)scale(0.996264)" xlink:href="#URWPalladioL-Roma-6d"/>
      <use transform="translate(190.08669 0)scale(0.996264)" xlink:href="#URWPalladioL-Roma-70"/>
      <use transform="translate(249.961083 0)scale(0.996264)" xlink:href="#URWPalladioL-Roma-6c"/>
      <use transform="translate(278.951445 0)scale(0.996264)" xlink:href="#URWPalladioL-Roma-65"/>
      <use transform="translate(351.57834 0)scale(0.996264)" xlink:href="#URWPalladioL-Roma-74"/>
      <use transform="translate(384.055428 0)scale(0.996264)" xlink:href="#URWPalladioL-Roma-69"/>
      <use transform="translate(413.04579 0)scale(0.996264)" xlink:href="#URWPalladioL-Roma-6d"/>
      <use transform="translate(501.015464 0)scale(0.996264)" xlink:href="#URWPalladioL-Roma-65"/>
      <use transform="translate(548.735759 0)scale(0.996264)" xlink:href="#URWPalladioL-Roma-73"/>
     </g>
    </g>
   </g>
  </g>
 </g>
 <defs>
  <clipPath id="pb049b35475">
   <rect height="135.671894" width="525.593057" x="51.606463" y="12.189765"/>
  </clipPath>
 </defs>
</svg>
