<?xml version="1.0" encoding="utf-8" standalone="no"?>
<!DOCTYPE svg PUBLIC "-//W3C//DTD SVG 1.1//EN"
  "http://www.w3.org/Graphics/SVG/1.1/DTD/svg11.dtd">
<svg height="584.53308pt" version="1.1" viewBox="0 0 585.2324 584.53308" width="585.2324pt" xmlns="http://www.w3.org/2000/svg" xmlns:xlink="http://www.w3.org/1999/xlink">
 <metadata>
  <rdf:RDF xmlns:cc="http://creativecommons.org/ns#" xmlns:dc="http://purl.org/dc/elements/1.1/" xmlns:rdf="http://www.w3.org/1999/02/22-rdf-syntax-ns#">
   <cc:Work>
    <dc:type rdf:resource="http://purl.org/dc/dcmitype/StillImage"/>
    <dc:date>2021-06-02T05:54:29.280626</dc:date>
    <dc:format>image/svg+xml</dc:format>
    <dc:creator>
     <cc:Agent>
      <dc:title>Matplotlib v3.4.2, https://matplotlib.org/</dc:title>
     </cc:Agent>
    </dc:creator>
   </cc:Work>
  </rdf:RDF>
 </metadata>
 <defs>
  <style type="text/css">*{stroke-linecap:butt;stroke-linejoin:round;}</style>
 </defs>
 <g id="figure_1">
  <g id="patch_1">
   <path d="M 0 584.53308 
L 585.2324 584.53308 
L 585.2324 0 
L 0 0 
z
" style="fill:none;"/>
  </g>
  <g id="axes_1">
   <g id="patch_2">
    <path d="M 41.145691 175.567075 
L 438.799104 175.567075 
L 438.799104 65.488557 
L 41.145691 65.488557 
z
" style="fill:none;"/>
   </g>
   <g id="matplotlib.axis_1">
    <g id="xtick_1">
     <g id="line2d_1">
      <path clip-path="url(#p6bce9e0b91)" d="M 41.145691 175.567075 
L 41.145691 65.488557 
" style="fill:none;stroke:#000000;stroke-linejoin:miter;stroke-opacity:0.2;stroke-width:0.5;"/>
     </g>
     <g id="line2d_2">
      <defs>
       <path d="M 0 0 
L 0 3.5 
" id="m1148520d4f" style="stroke:#000000;stroke-opacity:0.2;stroke-width:0.8;"/>
      </defs>
      <g>
       <use style="fill-opacity:0.2;stroke:#000000;stroke-opacity:0.2;stroke-width:0.8;" x="41.145691" xlink:href="#m1148520d4f" y="175.567075"/>
      </g>
     </g>
    </g>
    <g id="xtick_2">
     <g id="line2d_3">
      <path clip-path="url(#p6bce9e0b91)" d="M 122.299449 175.567075 
L 122.299449 65.488557 
" style="fill:none;stroke:#000000;stroke-linejoin:miter;stroke-opacity:0.2;stroke-width:0.5;"/>
     </g>
     <g id="line2d_4">
      <g>
       <use style="fill-opacity:0.2;stroke:#000000;stroke-opacity:0.2;stroke-width:0.8;" x="122.299449" xlink:href="#m1148520d4f" y="175.567075"/>
      </g>
     </g>
    </g>
    <g id="xtick_3">
     <g id="line2d_5">
      <path clip-path="url(#p6bce9e0b91)" d="M 203.453206 175.567075 
L 203.453206 65.488557 
" style="fill:none;stroke:#000000;stroke-linejoin:miter;stroke-opacity:0.2;stroke-width:0.5;"/>
     </g>
     <g id="line2d_6">
      <g>
       <use style="fill-opacity:0.2;stroke:#000000;stroke-opacity:0.2;stroke-width:0.8;" x="203.453206" xlink:href="#m1148520d4f" y="175.567075"/>
      </g>
     </g>
    </g>
    <g id="xtick_4">
     <g id="line2d_7">
      <path clip-path="url(#p6bce9e0b91)" d="M 284.606964 175.567075 
L 284.606964 65.488557 
" style="fill:none;stroke:#000000;stroke-linejoin:miter;stroke-opacity:0.2;stroke-width:0.5;"/>
     </g>
     <g id="line2d_8">
      <g>
       <use style="fill-opacity:0.2;stroke:#000000;stroke-opacity:0.2;stroke-width:0.8;" x="284.606964" xlink:href="#m1148520d4f" y="175.567075"/>
      </g>
     </g>
    </g>
    <g id="xtick_5">
     <g id="line2d_9">
      <path clip-path="url(#p6bce9e0b91)" d="M 365.760722 175.567075 
L 365.760722 65.488557 
" style="fill:none;stroke:#000000;stroke-linejoin:miter;stroke-opacity:0.2;stroke-width:0.5;"/>
     </g>
     <g id="line2d_10">
      <g>
       <use style="fill-opacity:0.2;stroke:#000000;stroke-opacity:0.2;stroke-width:0.8;" x="365.760722" xlink:href="#m1148520d4f" y="175.567075"/>
      </g>
     </g>
    </g>
   </g>
   <g id="matplotlib.axis_2">
    <g id="ytick_1">
     <g id="line2d_11">
      <path clip-path="url(#p6bce9e0b91)" d="M 41.145691 170.563506 
L 438.799104 170.563506 
" style="fill:none;stroke:#000000;stroke-linejoin:miter;stroke-opacity:0.2;stroke-width:0.5;"/>
     </g>
     <g id="line2d_12">
      <defs>
       <path d="M 0 0 
L -3.5 0 
" id="mb23604c888" style="stroke:#000000;stroke-opacity:0.2;stroke-width:0.8;"/>
      </defs>
      <g>
       <use style="fill-opacity:0.2;stroke:#000000;stroke-opacity:0.2;stroke-width:0.8;" x="41.145691" xlink:href="#mb23604c888" y="170.563506"/>
      </g>
     </g>
     <g id="text_1">
      <!-- $\mathdefault{−1}$ -->
      <g transform="translate(7.2 175.55327)scale(0.14 -0.14)">
       <defs>
        <path d="M 4218 1472 
C 4326 1472 4442 1472 4442 1600 
C 4442 1728 4326 1728 4218 1728 
L 755 1728 
C 646 1728 531 1728 531 1600 
C 531 1472 646 1472 755 1472 
L 4218 1472 
z
" id="CMSY10-0" transform="scale(0.015625)"/>
        <path d="M 429 3571 
L 493 3571 
L 1318 3942 
C 1325 3949 1331 3949 1338 3949 
C 1376 3949 1389 3891 1389 3737 
L 1389 633 
C 1389 300 1318 230 973 211 
L 614 192 
L 614 0 
C 1600 0 1600 0 1670 0 
C 1754 0 1894 0 2112 -7 
C 2189 6 2413 6 2675 0 
L 2675 192 
L 2342 211 
C 1990 229 1926 299 1926 628 
L 1926 4383 
L 1837 4416 
C 1421 4199 966 4009 384 3807 
L 429 3571 
z
" id="URWPalladioL-Roma-31" transform="scale(0.015625)"/>
       </defs>
       <use transform="scale(1.038107)" xlink:href="#CMSY10-0"/>
       <use transform="translate(81.941696 0)scale(0.996264)" xlink:href="#URWPalladioL-Roma-31"/>
      </g>
     </g>
    </g>
    <g id="ytick_2">
     <g id="line2d_13">
      <path clip-path="url(#p6bce9e0b91)" d="M 41.145691 120.527816 
L 438.799104 120.527816 
" style="fill:none;stroke:#000000;stroke-linejoin:miter;stroke-opacity:0.2;stroke-width:0.5;"/>
     </g>
     <g id="line2d_14">
      <g>
       <use style="fill-opacity:0.2;stroke:#000000;stroke-opacity:0.2;stroke-width:0.8;" x="41.145691" xlink:href="#mb23604c888" y="120.527816"/>
      </g>
     </g>
     <g id="text_2">
      <!-- $\mathdefault{0}$ -->
      <g transform="translate(18.671843 125.517581)scale(0.14 -0.14)">
       <defs>
        <path d="M 1683 4416 
C 691 4416 186 3628 186 2076 
C 186 1326 320 679 544 365 
C 768 51 1126 -128 1523 -128 
C 2490 -128 2976 704 2976 2345 
C 2976 3749 2560 4416 1683 4416 
z
M 1568 4191 
C 2189 4191 2438 3563 2438 2025 
C 2438 660 2195 96 1606 96 
C 986 96 723 743 723 2307 
C 723 3660 960 4191 1568 4191 
z
" id="URWPalladioL-Roma-30" transform="scale(0.015625)"/>
       </defs>
       <use transform="scale(0.996264)" xlink:href="#URWPalladioL-Roma-30"/>
      </g>
     </g>
    </g>
    <g id="ytick_3">
     <g id="line2d_15">
      <path clip-path="url(#p6bce9e0b91)" d="M 41.145691 70.492126 
L 438.799104 70.492126 
" style="fill:none;stroke:#000000;stroke-linejoin:miter;stroke-opacity:0.2;stroke-width:0.5;"/>
     </g>
     <g id="line2d_16">
      <g>
       <use style="fill-opacity:0.2;stroke:#000000;stroke-opacity:0.2;stroke-width:0.8;" x="41.145691" xlink:href="#mb23604c888" y="70.492126"/>
      </g>
     </g>
     <g id="text_3">
      <!-- $\mathdefault{1}$ -->
      <g transform="translate(18.671843 75.481891)scale(0.14 -0.14)">
       <use transform="scale(0.996264)" xlink:href="#URWPalladioL-Roma-31"/>
      </g>
     </g>
    </g>
   </g>
   <g id="line2d_17">
    <path clip-path="url(#p6bce9e0b91)" d="M 41.145691 70.492126 
L 49.261067 70.492126 
L 49.261067 72.06409 
L 57.376442 72.06409 
L 57.376442 76.681207 
L 65.491818 76.681207 
L 65.491818 84.053368 
L 73.607194 84.053368 
L 73.607194 93.717353 
L 81.72257 93.717353 
L 81.72257 105.065938 
L 89.837945 105.065938 
L 89.837945 117.386049 
L 97.953321 117.386049 
L 97.953321 129.903569 
L 106.068697 129.903569 
L 106.068697 141.831977 
L 114.184073 141.831977 
L 114.184073 152.421765 
L 122.299449 152.421765 
L 122.299449 161.007539 
L 130.414824 161.007539 
L 130.414824 167.049824 
L 138.5302 167.049824 
L 138.5302 170.168959 
L 146.645576 170.168959 
L 146.645576 170.168959 
L 154.760952 170.168959 
L 154.760952 167.049824 
L 162.876328 167.049824 
L 162.876328 161.007539 
L 170.991703 161.007539 
L 170.991703 152.421765 
L 179.107079 152.421765 
L 179.107079 141.831977 
L 187.222455 141.831977 
L 187.222455 129.903569 
L 195.337831 129.903569 
L 195.337831 117.386049 
L 203.453206 117.386049 
L 203.453206 105.065938 
L 211.568582 105.065938 
L 211.568582 93.717353 
L 219.683958 93.717353 
L 219.683958 84.053368 
L 227.799334 84.053368 
L 227.799334 76.681207 
L 235.91471 76.681207 
L 235.91471 72.06409 
L 244.030085 72.06409 
L 244.030085 70.492126 
L 252.145461 70.492126 
L 252.145461 72.06409 
L 260.260837 72.06409 
L 260.260837 76.681207 
L 268.376213 76.681207 
L 268.376213 84.053368 
L 276.491589 84.053368 
L 276.491589 93.717353 
L 284.606964 93.717353 
L 284.606964 105.065938 
L 292.72234 105.065938 
L 292.72234 117.386049 
L 300.837716 117.386049 
L 300.837716 129.903569 
L 308.953092 129.903569 
L 308.953092 141.831977 
L 317.068467 141.831977 
L 317.068467 152.421765 
L 325.183843 152.421765 
L 325.183843 161.007539 
L 333.299219 161.007539 
L 333.299219 167.049824 
L 341.414595 167.049824 
L 341.414595 170.168959 
L 349.529971 170.168959 
L 349.529971 170.168959 
L 357.645346 170.168959 
L 357.645346 167.049824 
L 365.760722 167.049824 
L 365.760722 161.007539 
L 373.876098 161.007539 
L 373.876098 152.421765 
L 381.991474 152.421765 
L 381.991474 141.831977 
L 390.10685 141.831977 
L 390.10685 129.903569 
L 398.222225 129.903569 
L 398.222225 117.386049 
L 406.337601 117.386049 
L 406.337601 105.065938 
L 414.452977 105.065938 
L 414.452977 93.717353 
L 422.568353 93.717353 
L 422.568353 84.053368 
L 430.683728 84.053368 
L 430.683728 76.681207 
L 438.799104 76.681207 
L 438.799104 72.06409 
" style="fill:none;stroke:#0271ae;stroke-linejoin:miter;stroke-width:3;"/>
    <defs>
     <path d="M -2.5 2.5 
L 2.5 2.5 
L 2.5 -2.5 
L -2.5 -2.5 
z
" id="m40d7e813f7"/>
    </defs>
    <g clip-path="url(#p6bce9e0b91)">
     <use style="fill:#0271ae;" x="41.145691" xlink:href="#m40d7e813f7" y="70.492126"/>
     <use style="fill:#0271ae;" x="49.261067" xlink:href="#m40d7e813f7" y="72.06409"/>
     <use style="fill:#0271ae;" x="57.376442" xlink:href="#m40d7e813f7" y="76.681207"/>
     <use style="fill:#0271ae;" x="65.491818" xlink:href="#m40d7e813f7" y="84.053368"/>
     <use style="fill:#0271ae;" x="73.607194" xlink:href="#m40d7e813f7" y="93.717353"/>
     <use style="fill:#0271ae;" x="81.72257" xlink:href="#m40d7e813f7" y="105.065938"/>
     <use style="fill:#0271ae;" x="89.837945" xlink:href="#m40d7e813f7" y="117.386049"/>
     <use style="fill:#0271ae;" x="97.953321" xlink:href="#m40d7e813f7" y="129.903569"/>
     <use style="fill:#0271ae;" x="106.068697" xlink:href="#m40d7e813f7" y="141.831977"/>
     <use style="fill:#0271ae;" x="114.184073" xlink:href="#m40d7e813f7" y="152.421765"/>
     <use style="fill:#0271ae;" x="122.299449" xlink:href="#m40d7e813f7" y="161.007539"/>
     <use style="fill:#0271ae;" x="130.414824" xlink:href="#m40d7e813f7" y="167.049824"/>
     <use style="fill:#0271ae;" x="138.5302" xlink:href="#m40d7e813f7" y="170.168959"/>
     <use style="fill:#0271ae;" x="146.645576" xlink:href="#m40d7e813f7" y="170.168959"/>
     <use style="fill:#0271ae;" x="154.760952" xlink:href="#m40d7e813f7" y="167.049824"/>
     <use style="fill:#0271ae;" x="162.876328" xlink:href="#m40d7e813f7" y="161.007539"/>
     <use style="fill:#0271ae;" x="170.991703" xlink:href="#m40d7e813f7" y="152.421765"/>
     <use style="fill:#0271ae;" x="179.107079" xlink:href="#m40d7e813f7" y="141.831977"/>
     <use style="fill:#0271ae;" x="187.222455" xlink:href="#m40d7e813f7" y="129.903569"/>
     <use style="fill:#0271ae;" x="195.337831" xlink:href="#m40d7e813f7" y="117.386049"/>
     <use style="fill:#0271ae;" x="203.453206" xlink:href="#m40d7e813f7" y="105.065938"/>
     <use style="fill:#0271ae;" x="211.568582" xlink:href="#m40d7e813f7" y="93.717353"/>
     <use style="fill:#0271ae;" x="219.683958" xlink:href="#m40d7e813f7" y="84.053368"/>
     <use style="fill:#0271ae;" x="227.799334" xlink:href="#m40d7e813f7" y="76.681207"/>
     <use style="fill:#0271ae;" x="235.91471" xlink:href="#m40d7e813f7" y="72.06409"/>
     <use style="fill:#0271ae;" x="244.030085" xlink:href="#m40d7e813f7" y="70.492126"/>
     <use style="fill:#0271ae;" x="252.145461" xlink:href="#m40d7e813f7" y="72.06409"/>
     <use style="fill:#0271ae;" x="260.260837" xlink:href="#m40d7e813f7" y="76.681207"/>
     <use style="fill:#0271ae;" x="268.376213" xlink:href="#m40d7e813f7" y="84.053368"/>
     <use style="fill:#0271ae;" x="276.491589" xlink:href="#m40d7e813f7" y="93.717353"/>
     <use style="fill:#0271ae;" x="284.606964" xlink:href="#m40d7e813f7" y="105.065938"/>
     <use style="fill:#0271ae;" x="292.72234" xlink:href="#m40d7e813f7" y="117.386049"/>
     <use style="fill:#0271ae;" x="300.837716" xlink:href="#m40d7e813f7" y="129.903569"/>
     <use style="fill:#0271ae;" x="308.953092" xlink:href="#m40d7e813f7" y="141.831977"/>
     <use style="fill:#0271ae;" x="317.068467" xlink:href="#m40d7e813f7" y="152.421765"/>
     <use style="fill:#0271ae;" x="325.183843" xlink:href="#m40d7e813f7" y="161.007539"/>
     <use style="fill:#0271ae;" x="333.299219" xlink:href="#m40d7e813f7" y="167.049824"/>
     <use style="fill:#0271ae;" x="341.414595" xlink:href="#m40d7e813f7" y="170.168959"/>
     <use style="fill:#0271ae;" x="349.529971" xlink:href="#m40d7e813f7" y="170.168959"/>
     <use style="fill:#0271ae;" x="357.645346" xlink:href="#m40d7e813f7" y="167.049824"/>
     <use style="fill:#0271ae;" x="365.760722" xlink:href="#m40d7e813f7" y="161.007539"/>
     <use style="fill:#0271ae;" x="373.876098" xlink:href="#m40d7e813f7" y="152.421765"/>
     <use style="fill:#0271ae;" x="381.991474" xlink:href="#m40d7e813f7" y="141.831977"/>
     <use style="fill:#0271ae;" x="390.10685" xlink:href="#m40d7e813f7" y="129.903569"/>
     <use style="fill:#0271ae;" x="398.222225" xlink:href="#m40d7e813f7" y="117.386049"/>
     <use style="fill:#0271ae;" x="406.337601" xlink:href="#m40d7e813f7" y="105.065938"/>
     <use style="fill:#0271ae;" x="414.452977" xlink:href="#m40d7e813f7" y="93.717353"/>
     <use style="fill:#0271ae;" x="422.568353" xlink:href="#m40d7e813f7" y="84.053368"/>
     <use style="fill:#0271ae;" x="430.683728" xlink:href="#m40d7e813f7" y="76.681207"/>
     <use style="fill:#0271ae;" x="438.799104" xlink:href="#m40d7e813f7" y="72.06409"/>
    </g>
   </g>
   <g id="line2d_18">
    <path clip-path="url(#p6bce9e0b91)" d="M 41.145691 77.195638 
L 49.261067 77.195638 
L 49.261067 84.778683 
L 57.376442 84.778683 
L 57.376442 94.607977 
L 65.491818 94.607977 
L 65.491818 106.065911 
L 73.607194 106.065911 
L 73.607194 118.432539 
L 81.72257 118.432539 
L 81.72257 130.930821 
L 89.837945 130.930821 
L 89.837945 142.775444 
L 97.953321 142.775444 
L 97.953321 153.222167 
L 106.068697 153.222167 
L 106.068697 161.614583 
L 114.184073 161.614583 
L 114.184073 167.425367 
L 122.299449 167.425367 
L 122.299449 170.289405 
L 130.414824 170.289405 
L 130.414824 170.02674 
L 138.5302 170.02674 
L 138.5302 166.653875 
L 146.645576 166.653875 
L 146.645576 160.38274 
L 154.760952 160.38274 
L 154.760952 151.607374 
L 162.876328 151.607374 
L 162.876328 140.879165 
L 170.991703 140.879165 
L 170.991703 128.872205 
L 179.107079 128.872205 
L 179.107079 116.340938 
L 187.222455 116.340938 
L 187.222455 104.072747 
L 195.337831 104.072747 
L 195.337831 92.838488 
L 203.453206 92.838488 
L 203.453206 83.344052 
L 211.568582 83.344052 
L 211.568582 76.186009 
L 219.683958 76.186009 
L 219.683958 71.814124 
L 227.799334 71.814124 
L 227.799334 70.5031 
L 235.91471 70.5031 
L 235.91471 72.335313 
L 244.030085 72.335313 
L 244.030085 77.195638 
L 252.145461 77.195638 
L 252.145461 84.778683 
L 260.260837 84.778683 
L 260.260837 94.607977 
L 268.376213 94.607977 
L 268.376213 106.065911 
L 276.491589 106.065911 
L 276.491589 118.432539 
L 284.606964 118.432539 
L 284.606964 130.930821 
L 292.72234 130.930821 
L 292.72234 142.775444 
L 300.837716 142.775444 
L 300.837716 153.222167 
L 308.953092 153.222167 
L 308.953092 161.614583 
L 317.068467 161.614583 
L 317.068467 167.425367 
L 325.183843 167.425367 
L 325.183843 170.289405 
L 333.299219 170.289405 
L 333.299219 170.02674 
L 341.414595 170.02674 
L 341.414595 166.653875 
L 349.529971 166.653875 
L 349.529971 160.38274 
L 357.645346 160.38274 
L 357.645346 151.607374 
L 365.760722 151.607374 
L 365.760722 140.879165 
L 373.876098 140.879165 
L 373.876098 128.872205 
L 381.991474 128.872205 
L 381.991474 116.340938 
L 390.10685 116.340938 
L 390.10685 104.072747 
L 398.222225 104.072747 
L 398.222225 92.838488 
L 406.337601 92.838488 
L 406.337601 83.344052 
L 414.452977 83.344052 
L 414.452977 76.186009 
L 422.568353 76.186009 
L 422.568353 71.814124 
L 430.683728 71.814124 
L 430.683728 70.5031 
L 438.799104 70.5031 
L 438.799104 72.335313 
" style="fill:none;stroke:#dc2830;stroke-linejoin:miter;stroke-width:3;"/>
    <defs>
     <path d="M -2.5 2.5 
L 2.5 2.5 
L 2.5 -2.5 
L -2.5 -2.5 
z
" id="m1a679f7882"/>
    </defs>
    <g clip-path="url(#p6bce9e0b91)">
     <use style="fill:#dc2830;" x="41.145691" xlink:href="#m1a679f7882" y="77.195638"/>
     <use style="fill:#dc2830;" x="49.261067" xlink:href="#m1a679f7882" y="84.778683"/>
     <use style="fill:#dc2830;" x="57.376442" xlink:href="#m1a679f7882" y="94.607977"/>
     <use style="fill:#dc2830;" x="65.491818" xlink:href="#m1a679f7882" y="106.065911"/>
     <use style="fill:#dc2830;" x="73.607194" xlink:href="#m1a679f7882" y="118.432539"/>
     <use style="fill:#dc2830;" x="81.72257" xlink:href="#m1a679f7882" y="130.930821"/>
     <use style="fill:#dc2830;" x="89.837945" xlink:href="#m1a679f7882" y="142.775444"/>
     <use style="fill:#dc2830;" x="97.953321" xlink:href="#m1a679f7882" y="153.222167"/>
     <use style="fill:#dc2830;" x="106.068697" xlink:href="#m1a679f7882" y="161.614583"/>
     <use style="fill:#dc2830;" x="114.184073" xlink:href="#m1a679f7882" y="167.425367"/>
     <use style="fill:#dc2830;" x="122.299449" xlink:href="#m1a679f7882" y="170.289405"/>
     <use style="fill:#dc2830;" x="130.414824" xlink:href="#m1a679f7882" y="170.02674"/>
     <use style="fill:#dc2830;" x="138.5302" xlink:href="#m1a679f7882" y="166.653875"/>
     <use style="fill:#dc2830;" x="146.645576" xlink:href="#m1a679f7882" y="160.38274"/>
     <use style="fill:#dc2830;" x="154.760952" xlink:href="#m1a679f7882" y="151.607374"/>
     <use style="fill:#dc2830;" x="162.876328" xlink:href="#m1a679f7882" y="140.879165"/>
     <use style="fill:#dc2830;" x="170.991703" xlink:href="#m1a679f7882" y="128.872205"/>
     <use style="fill:#dc2830;" x="179.107079" xlink:href="#m1a679f7882" y="116.340938"/>
     <use style="fill:#dc2830;" x="187.222455" xlink:href="#m1a679f7882" y="104.072747"/>
     <use style="fill:#dc2830;" x="195.337831" xlink:href="#m1a679f7882" y="92.838488"/>
     <use style="fill:#dc2830;" x="203.453206" xlink:href="#m1a679f7882" y="83.344052"/>
     <use style="fill:#dc2830;" x="211.568582" xlink:href="#m1a679f7882" y="76.186009"/>
     <use style="fill:#dc2830;" x="219.683958" xlink:href="#m1a679f7882" y="71.814124"/>
     <use style="fill:#dc2830;" x="227.799334" xlink:href="#m1a679f7882" y="70.5031"/>
     <use style="fill:#dc2830;" x="235.91471" xlink:href="#m1a679f7882" y="72.335313"/>
     <use style="fill:#dc2830;" x="244.030085" xlink:href="#m1a679f7882" y="77.195638"/>
     <use style="fill:#dc2830;" x="252.145461" xlink:href="#m1a679f7882" y="84.778683"/>
     <use style="fill:#dc2830;" x="260.260837" xlink:href="#m1a679f7882" y="94.607977"/>
     <use style="fill:#dc2830;" x="268.376213" xlink:href="#m1a679f7882" y="106.065911"/>
     <use style="fill:#dc2830;" x="276.491589" xlink:href="#m1a679f7882" y="118.432539"/>
     <use style="fill:#dc2830;" x="284.606964" xlink:href="#m1a679f7882" y="130.930821"/>
     <use style="fill:#dc2830;" x="292.72234" xlink:href="#m1a679f7882" y="142.775444"/>
     <use style="fill:#dc2830;" x="300.837716" xlink:href="#m1a679f7882" y="153.222167"/>
     <use style="fill:#dc2830;" x="308.953092" xlink:href="#m1a679f7882" y="161.614583"/>
     <use style="fill:#dc2830;" x="317.068467" xlink:href="#m1a679f7882" y="167.425367"/>
     <use style="fill:#dc2830;" x="325.183843" xlink:href="#m1a679f7882" y="170.289405"/>
     <use style="fill:#dc2830;" x="333.299219" xlink:href="#m1a679f7882" y="170.02674"/>
     <use style="fill:#dc2830;" x="341.414595" xlink:href="#m1a679f7882" y="166.653875"/>
     <use style="fill:#dc2830;" x="349.529971" xlink:href="#m1a679f7882" y="160.38274"/>
     <use style="fill:#dc2830;" x="357.645346" xlink:href="#m1a679f7882" y="151.607374"/>
     <use style="fill:#dc2830;" x="365.760722" xlink:href="#m1a679f7882" y="140.879165"/>
     <use style="fill:#dc2830;" x="373.876098" xlink:href="#m1a679f7882" y="128.872205"/>
     <use style="fill:#dc2830;" x="381.991474" xlink:href="#m1a679f7882" y="116.340938"/>
     <use style="fill:#dc2830;" x="390.10685" xlink:href="#m1a679f7882" y="104.072747"/>
     <use style="fill:#dc2830;" x="398.222225" xlink:href="#m1a679f7882" y="92.838488"/>
     <use style="fill:#dc2830;" x="406.337601" xlink:href="#m1a679f7882" y="83.344052"/>
     <use style="fill:#dc2830;" x="414.452977" xlink:href="#m1a679f7882" y="76.186009"/>
     <use style="fill:#dc2830;" x="422.568353" xlink:href="#m1a679f7882" y="71.814124"/>
     <use style="fill:#dc2830;" x="430.683728" xlink:href="#m1a679f7882" y="70.5031"/>
     <use style="fill:#dc2830;" x="438.799104" xlink:href="#m1a679f7882" y="72.335313"/>
    </g>
   </g>
   <g id="text_4">
    <!-- $S=21.7$ -->
    <g style="fill:#6e3b87;" transform="translate(487.491359 120.527816)scale(0.2 -0.2)">
     <defs>
      <path d="M 2886 3454 
L 3078 3454 
C 3104 3803 3149 4049 3238 4326 
C 2950 4479 2694 4544 2394 4544 
C 1926 4544 1440 4345 1101 3997 
C 826 3732 691 3403 691 3028 
C 691 2479 934 2175 1472 2046 
L 2080 1897 
C 2426 1813 2598 1587 2598 1219 
C 2598 605 2144 179 1485 179 
C 1139 179 896 256 614 457 
L 614 1096 
L 422 1096 
C 384 741 339 450 269 115 
C 582 -45 922 -128 1261 -128 
C 2253 -128 3104 625 3104 1497 
C 3104 2007 2829 2279 2182 2421 
L 1766 2511 
C 1344 2602 1152 2841 1152 3267 
C 1152 3829 1581 4236 2170 4236 
C 2483 4236 2694 4152 2886 3945 
L 2886 3454 
z
" id="URWPalladioL-Ital-53" transform="scale(0.015625)"/>
      <path d="M 4397 2111 
C 4493 2111 4614 2111 4614 2239 
C 4614 2368 4493 2368 4403 2368 
L 570 2368 
C 480 2368 358 2368 358 2239 
C 358 2111 480 2111 576 2111 
L 4397 2111 
z
M 4403 832 
C 4493 832 4614 832 4614 960 
C 4614 1088 4493 1088 4397 1088 
L 576 1088 
C 480 1088 358 1088 358 960 
C 358 832 480 832 570 832 
L 4403 832 
z
" id="CMR10-3d" transform="scale(0.015625)"/>
      <path d="M 102 166 
L 102 0 
C 1299 0 1299 0 1530 0 
C 1760 19 1760 19 2995 0 
C 2982 134 2982 198 2982 287 
C 2982 370 2982 434 2995 574 
C 2259 542 1965 536 781 510 
L 1946 1741 
C 2566 2398 2758 2749 2758 3228 
C 2758 3961 2259 4416 1446 4416 
C 986 4416 672 4287 358 3967 
L 250 3100 
L 435 3100 
L 518 3394 
C 621 3763 851 3923 1280 3923 
C 1830 3923 2182 3578 2182 3036 
C 2182 2558 1914 2086 1190 1320 
L 102 166 
z
" id="URWPalladioL-Roma-32" transform="scale(0.015625)"/>
      <path d="M 794 678 
C 602 678 429 499 429 307 
C 429 115 602 -64 787 -64 
C 992 -64 1171 108 1171 307 
C 1171 499 992 678 794 678 
z
" id="URWPalladioL-Roma-2e" transform="scale(0.015625)"/>
      <path d="M 358 83 
L 416 0 
C 666 0 666 0 710 0 
C 755 19 755 19 1005 0 
C 1274 700 1587 1369 2010 2141 
L 3181 4255 
L 3181 4448 
C 2490 4422 2266 4416 1747 4416 
C 1280 4416 966 4422 346 4448 
L 282 4416 
C 301 3807 301 3807 301 3743 
C 301 3672 301 3672 282 3087 
L 474 3087 
L 518 3447 
C 570 3846 614 3897 909 3897 
L 2618 3897 
C 2362 3370 2163 2996 1920 2604 
L 358 83 
z
" id="URWPalladioL-Roma-37" transform="scale(0.015625)"/>
     </defs>
     <use transform="scale(0.996264)" xlink:href="#URWPalladioL-Ital-53"/>
     <use transform="translate(85.556893 0)scale(1.038107)" xlink:href="#CMR10-3d"/>
     <use transform="translate(195.172522 0)scale(0.996264)" xlink:href="#URWPalladioL-Roma-32"/>
     <use transform="translate(244.985722 0)scale(0.996264)" xlink:href="#URWPalladioL-Roma-31"/>
     <use transform="translate(294.798923 0)scale(0.996264)" xlink:href="#URWPalladioL-Roma-2e"/>
     <use transform="translate(319.705523 0)scale(0.996264)" xlink:href="#URWPalladioL-Roma-37"/>
    </g>
   </g>
   <g id="legend_1">
    <g id="patch_3">
     <path d="M 43.945691 54.480706 
L 264.569937 54.480706 
Q 267.369937 54.480706 267.369937 51.680706 
L 267.369937 10 
Q 267.369937 7.2 264.569937 7.2 
L 43.945691 7.2 
Q 41.145691 7.2 41.145691 10 
L 41.145691 51.680706 
Q 41.145691 54.480706 43.945691 54.480706 
z
" style="fill:#ffffff;opacity:0.95;stroke:#cccccc;stroke-linejoin:miter;stroke-width:0.5;"/>
    </g>
    <g id="line2d_19">
     <path d="M 46.745691 18.50718 
L 60.745691 18.50718 
" style="fill:none;stroke:#0271ae;stroke-linejoin:miter;stroke-width:3;"/>
    </g>
    <g id="line2d_20">
     <g>
      <use style="fill:#0271ae;" x="53.745691" xlink:href="#m40d7e813f7" y="18.50718"/>
     </g>
    </g>
    <g id="text_5">
     <!-- $x[n] = \cos(2\pi \cdot 2 \cdot n / f_s)$ -->
     <g transform="translate(71.945691 23.40718)scale(0.14 -0.14)">
      <defs>
       <path d="M 134 567 
C 134 440 122 358 83 153 
C 70 76 64 57 58 12 
C 154 -39 256 -64 333 -64 
C 544 -64 794 121 992 421 
L 1478 1164 
L 1549 726 
C 1632 185 1779 -64 2010 -64 
C 2150 -64 2355 44 2560 230 
L 2874 510 
L 2816 631 
C 2586 440 2426 345 2323 345 
C 2227 345 2144 409 2080 536 
C 2022 656 1952 891 1920 1075 
L 1805 1716 
L 2029 2027 
C 2330 2439 2502 2585 2701 2585 
C 2803 2585 2880 2534 2912 2439 
L 3002 2465 
L 3098 3007 
C 3021 3052 2963 3072 2906 3072 
C 2650 3072 2394 2841 1997 2255 
L 1760 1906 
L 1722 2211 
C 1645 2841 1472 3072 1094 3072 
C 928 3072 787 3020 730 2937 
L 358 2408 
L 467 2344 
C 659 2560 787 2649 909 2649 
C 1120 2649 1261 2389 1370 1767 
L 1440 1373 
L 1184 980 
C 909 555 691 352 512 352 
C 416 352 346 377 333 409 
L 262 586 
L 134 567 
z
" id="URWPalladioL-Ital-78" transform="scale(0.015625)"/>
       <path d="M 1632 -1601 
L 1632 -1344 
L 1011 -1344 
L 1011 4544 
L 1632 4544 
L 1632 4800 
L 755 4800 
L 755 -1601 
L 1632 -1601 
z
" id="CMR10-5b" transform="scale(0.015625)"/>
       <path d="M 154 2471 
L 198 2343 
L 403 2477 
C 640 2624 659 2637 704 2637 
C 774 2637 819 2573 819 2477 
C 819 2152 557 919 294 6 
L 339 -64 
C 499 -20 646 19 787 44 
C 909 849 1043 1264 1338 1705 
C 1683 2241 2163 2637 2451 2637 
C 2522 2637 2560 2579 2560 2484 
C 2560 2369 2541 2235 2490 2030 
L 2157 677 
C 2099 440 2074 293 2074 191 
C 2074 32 2144 -64 2266 -64 
C 2432 -64 2662 70 3290 536 
L 3226 651 
L 3059 542 
C 2874 421 2733 351 2669 351 
C 2624 351 2586 408 2586 479 
C 2586 511 2592 581 2598 606 
L 3021 2369 
C 3066 2554 3091 2733 3091 2841 
C 3091 2988 3021 3072 2893 3072 
C 2624 3072 2182 2829 1805 2477 
C 1562 2254 1382 2037 1050 1571 
L 1293 2599 
C 1318 2714 1331 2790 1331 2860 
C 1331 2995 1280 3072 1184 3072 
C 1050 3072 800 2931 333 2599 
L 154 2471 
z
" id="URWPalladioL-Ital-6e" transform="scale(0.015625)"/>
       <path d="M 1018 4800 
L 141 4800 
L 141 4544 
L 762 4544 
L 762 -1344 
L 141 -1344 
L 141 -1601 
L 1018 -1601 
L 1018 4800 
z
" id="CMR10-5d" transform="scale(0.015625)"/>
       <path d="M 2554 1995 
C 2554 2290 2586 2553 2643 2783 
C 2387 2937 2163 3008 1901 3008 
C 1594 3008 1235 2886 851 2643 
C 403 2360 166 1911 166 1347 
C 166 480 774 -128 1632 -128 
C 1965 -128 2445 -7 2509 89 
L 2643 294 
L 2579 390 
C 2342 262 2138 204 1907 204 
C 1197 204 730 756 730 1603 
C 730 2290 1050 2675 1626 2675 
C 1907 2675 2214 2547 2330 2386 
L 2374 1995 
L 2554 1995 
z
" id="URWPalladioL-Roma-63" transform="scale(0.015625)"/>
       <path d="M 1786 3008 
C 851 3008 205 2347 205 1391 
C 205 487 774 -128 1600 -128 
C 2586 -128 3290 557 3290 1520 
C 3290 2386 2662 3008 1786 3008 
z
M 1670 2796 
C 2259 2796 2694 2155 2694 1282 
C 2694 545 2368 83 1850 83 
C 1222 83 800 699 800 1609 
C 800 2379 1107 2796 1670 2796 
z
" id="URWPalladioL-Roma-6f" transform="scale(0.015625)"/>
       <path d="M 262 917 
C 262 474 243 282 192 25 
C 525 -84 774 -128 1069 -128 
C 1907 -128 2502 320 2502 949 
C 2502 1148 2445 1295 2323 1423 
C 2157 1584 1946 1661 1382 1770 
C 858 1872 685 2001 685 2296 
C 685 2617 909 2796 1299 2796 
C 1728 2796 2054 2572 2054 2270 
L 2054 2123 
L 2234 2123 
C 2240 2495 2246 2649 2266 2847 
C 1926 2963 1696 3008 1434 3008 
C 691 3008 237 2655 237 2078 
C 237 1770 378 1552 672 1417 
C 845 1340 1184 1237 1619 1141 
C 1907 1077 2029 942 2029 698 
C 2029 352 1709 108 1254 108 
C 787 108 454 333 454 654 
L 454 917 
L 262 917 
z
" id="URWPalladioL-Roma-73" transform="scale(0.015625)"/>
       <path d="M 2118 -1536 
C 2118 -1517 2118 -1504 2010 -1396 
C 1210 -589 1005 620 1005 1600 
C 1005 2713 1248 3827 2035 4627 
C 2118 4704 2118 4716 2118 4736 
C 2118 4780 2093 4800 2054 4800 
C 1990 4800 1414 4365 1037 3552 
C 710 2848 634 2137 634 1600 
C 634 1100 704 326 1056 -397 
C 1440 -1184 1990 -1600 2054 -1600 
C 2093 -1600 2118 -1581 2118 -1536 
z
" id="CMR10-28" transform="scale(0.015625)"/>
       <path d="M 614 2255 
L 672 2299 
C 806 2681 1062 2700 1427 2700 
C 1504 2700 1619 2694 1754 2694 
C 1216 1242 973 803 454 -7 
L 512 -64 
L 986 102 
C 1216 599 1606 1567 1958 2688 
L 3149 2624 
C 3040 2232 2669 1089 2669 685 
C 2669 19 2912 -64 3110 -64 
C 3437 -64 3622 19 4026 356 
L 3974 476 
L 3821 369 
C 3840 382 3654 236 3546 236 
C 3245 236 3155 419 3155 811 
C 3155 969 3168 1139 3206 1323 
C 3315 1847 3424 2365 3482 2624 
C 3629 2624 3776 2630 3923 2649 
C 4038 2649 4179 2713 4282 2752 
C 4352 2905 4378 2918 4499 3072 
L 4454 3136 
C 4282 3075 3994 3008 3782 3008 
C 3706 3001 3546 2995 3386 2995 
C 2701 3020 1645 3072 1363 3072 
C 883 3072 710 2860 525 2306 
L 614 2255 
z
" id="PazoMath-Italic-70" transform="scale(0.015625)"/>
       <path d="M 1229 1619 
C 1229 1804 1075 1958 890 1958 
C 704 1958 550 1804 550 1619 
C 550 1433 704 1280 890 1280 
C 1075 1280 1229 1433 1229 1619 
z
" id="CMSY10-1" transform="scale(0.015625)"/>
       <path d="M 3322 4646 
L 2938 4646 
L 557 -762 
L 941 -762 
L 3322 4646 
z
" id="URWPalladioL-Roma-2f" transform="scale(0.015625)"/>
       <path d="M 1830 2470 
C 1856 2591 1901 2739 1939 2828 
L 1914 2873 
L 1869 2860 
C 1715 2822 1645 2816 1331 2816 
L 1229 2816 
L 1363 3532 
C 1466 4083 1645 4326 1939 4326 
C 2131 4326 2304 4230 2400 4076 
L 2464 4102 
C 2496 4204 2560 4403 2611 4531 
L 2643 4627 
C 2541 4672 2342 4710 2195 4710 
C 2125 4710 2022 4691 1971 4665 
C 1818 4595 1293 4204 1146 4051 
C 1005 3910 928 3718 858 3353 
L 762 2848 
C 499 2719 371 2668 211 2611 
L 179 2470 
L 698 2470 
L 640 2112 
C 448 864 211 -327 70 -768 
C -45 -1146 -237 -1344 -467 -1344 
C -615 -1344 -685 -1300 -800 -1159 
L -890 -1184 
C -915 -1332 -1005 -1639 -1037 -1697 
C -979 -1729 -883 -1748 -813 -1748 
C -551 -1748 -205 -1549 45 -1248 
C 435 -788 576 -340 1043 1907 
C 1062 1984 1114 2227 1165 2470 
L 1830 2470 
z
" id="URWPalladioL-Ital-66" transform="scale(0.015625)"/>
       <path d="M 198 948 
C 166 624 128 401 58 108 
C 301 -7 518 -64 742 -64 
C 1056 -64 1350 51 1677 306 
C 2003 560 2138 795 2138 1113 
C 2138 1456 1933 1640 1459 1729 
L 1184 1780 
C 800 1850 678 1958 678 2218 
C 678 2555 966 2815 1331 2815 
C 1594 2815 1837 2701 1939 2530 
L 1939 2180 
L 2086 2180 
C 2112 2403 2138 2574 2208 2899 
C 1958 3020 1779 3072 1568 3072 
C 1235 3072 845 2879 538 2574 
C 371 2403 301 2244 301 2015 
C 301 1659 499 1456 922 1373 
L 1325 1297 
C 1606 1246 1709 1132 1709 884 
C 1709 471 1414 192 960 192 
C 736 192 538 261 358 414 
L 358 948 
L 198 948 
z
" id="URWPalladioL-Ital-73" transform="scale(0.015625)"/>
       <path d="M 1850 1600 
C 1850 2099 1779 2873 1427 3597 
C 1043 4384 493 4800 429 4800 
C 390 4800 365 4774 365 4736 
C 365 4716 365 4704 486 4589 
C 1114 3955 1478 2937 1478 1600 
C 1478 505 1242 -621 448 -1428 
C 365 -1504 365 -1517 365 -1536 
C 365 -1575 390 -1600 429 -1600 
C 493 -1600 1069 -1165 1446 -352 
C 1773 352 1850 1062 1850 1600 
z
" id="CMR10-29" transform="scale(0.015625)"/>
      </defs>
      <use transform="scale(0.996264)" xlink:href="#URWPalladioL-Ital-78"/>
      <use transform="translate(53.299136 0)scale(1.038107)" xlink:href="#CMR10-5b"/>
      <use transform="translate(84.581835 0)scale(0.996264)" xlink:href="#URWPalladioL-Ital-6e"/>
      <use transform="translate(142.464796 0)scale(1.038107)" xlink:href="#CMR10-5d"/>
      <use transform="translate(201.421427 0)scale(1.038107)" xlink:href="#CMR10-3d"/>
      <use transform="translate(311.037056 0)scale(0.996264)" xlink:href="#URWPalladioL-Roma-63"/>
      <use transform="translate(355.270625 0)scale(0.996264)" xlink:href="#URWPalladioL-Roma-6f"/>
      <use transform="translate(409.666205 0)scale(0.996264)" xlink:href="#URWPalladioL-Roma-73"/>
      <use transform="translate(453.152971 0)scale(1.038107)" xlink:href="#CMR10-28"/>
      <use transform="translate(494.647376 0)scale(0.996264)" xlink:href="#URWPalladioL-Roma-32"/>
      <use transform="translate(545.705877 0)scale(0.996264)" xlink:href="#PazoMath-Italic-70"/>
      <use transform="translate(637.604558 0)scale(1.038107)" xlink:href="#CMSY10-1"/>
      <use transform="translate(687.01371 0)scale(0.996264)" xlink:href="#URWPalladioL-Roma-32"/>
      <use transform="translate(757.443963 0)scale(1.038107)" xlink:href="#CMSY10-1"/>
      <use transform="translate(808.098415 0)scale(0.996264)" xlink:href="#URWPalladioL-Ital-6e"/>
      <use transform="translate(865.981375 0)scale(0.996264)" xlink:href="#URWPalladioL-Roma-2f"/>
      <use transform="translate(941.797027 0)scale(0.996264)" xlink:href="#URWPalladioL-Ital-66"/>
      <use transform="translate(974.175607 -14.943915)scale(0.757155)" xlink:href="#URWPalladioL-Ital-73"/>
      <use transform="translate(1006.318803 0)scale(1.038107)" xlink:href="#CMR10-29"/>
     </g>
    </g>
    <g id="line2d_21">
     <path d="M 46.745691 40.047533 
L 60.745691 40.047533 
" style="fill:none;stroke:#dc2830;stroke-linejoin:miter;stroke-width:3;"/>
    </g>
    <g id="line2d_22">
     <g>
      <use style="fill:#dc2830;" x="53.745691" xlink:href="#m1a679f7882" y="40.047533"/>
     </g>
    </g>
    <g id="text_6">
     <!-- $y[n] = \cos(2\pi \cdot 2 \cdot n / f_s + \pi / 6)$ -->
     <g transform="translate(71.945691 44.947533)scale(0.14 -0.14)">
      <defs>
       <path d="M -45 -1132 
C -51 -1176 -51 -1214 -51 -1245 
C -51 -1517 186 -1741 474 -1741 
C 1152 -1741 1856 -955 2234 216 
L 3136 3014 
L 3066 3072 
C 2880 3001 2733 2963 2592 2950 
L 2368 2111 
C 2291 1812 2067 1348 1856 1036 
C 1632 712 1318 432 1178 432 
C 1101 432 1043 578 1050 737 
L 1056 820 
L 1152 2053 
C 1165 2250 1178 2492 1178 2670 
C 1178 2956 1133 3072 1024 3072 
C 941 3072 851 3027 544 2816 
L 19 2460 
L 90 2346 
L 410 2537 
L 435 2556 
C 499 2594 544 2613 570 2613 
C 659 2613 710 2492 710 2282 
C 710 2276 710 2238 704 2187 
L 595 642 
L 589 388 
C 589 121 704 -64 864 -64 
C 1101 -64 1638 477 2118 1195 
L 1805 108 
C 1478 -1012 1158 -1472 710 -1472 
C 486 -1472 314 -1302 314 -1081 
C 314 -1049 320 -999 326 -942 
L 262 -917 
L -45 -1132 
z
" id="URWPalladioL-Ital-79" transform="scale(0.015625)"/>
       <path d="M 2618 1472 
L 4403 1472 
C 4493 1472 4614 1472 4614 1600 
C 4614 1728 4493 1728 4403 1728 
L 2618 1728 
L 2618 3501 
C 2618 3590 2618 3712 2490 3712 
C 2362 3712 2362 3590 2362 3501 
L 2362 1728 
L 570 1728 
C 480 1728 358 1728 358 1600 
C 358 1472 480 1472 570 1472 
L 2362 1472 
L 2362 -308 
C 2362 -397 2362 -519 2490 -519 
C 2618 -519 2618 -397 2618 -308 
L 2618 1472 
z
" id="CMR10-2b" transform="scale(0.015625)"/>
       <path d="M 2662 4287 
L 2426 4396 
C 1811 4193 1549 4066 1222 3788 
C 563 3237 205 2463 205 1585 
C 205 526 717 -128 1542 -128 
C 2374 -128 2995 532 2995 1405 
C 2995 2143 2554 2624 1875 2624 
C 1555 2624 1363 2540 986 2239 
C 915 2182 909 2175 838 2124 
C 973 3275 1510 3895 2662 4237 
L 2662 4287 
z
M 1632 2239 
C 2118 2239 2445 1816 2445 1180 
C 2445 513 2118 83 1626 83 
C 1082 83 787 551 787 1411 
C 787 1636 813 1758 883 1867 
C 1024 2085 1325 2239 1632 2239 
z
" id="URWPalladioL-Roma-36" transform="scale(0.015625)"/>
      </defs>
      <use transform="scale(0.996264)" xlink:href="#URWPalladioL-Ital-79"/>
      <use transform="translate(52.303815 0)scale(1.038107)" xlink:href="#CMR10-5b"/>
      <use transform="translate(83.586514 0)scale(0.996264)" xlink:href="#URWPalladioL-Ital-6e"/>
      <use transform="translate(141.469474 0)scale(1.038107)" xlink:href="#CMR10-5d"/>
      <use transform="translate(200.426106 0)scale(1.038107)" xlink:href="#CMR10-3d"/>
      <use transform="translate(310.041735 0)scale(0.996264)" xlink:href="#URWPalladioL-Roma-63"/>
      <use transform="translate(354.275304 0)scale(0.996264)" xlink:href="#URWPalladioL-Roma-6f"/>
      <use transform="translate(408.670884 0)scale(0.996264)" xlink:href="#URWPalladioL-Roma-73"/>
      <use transform="translate(452.15765 0)scale(1.038107)" xlink:href="#CMR10-28"/>
      <use transform="translate(493.652055 0)scale(0.996264)" xlink:href="#URWPalladioL-Roma-32"/>
      <use transform="translate(544.710555 0)scale(0.996264)" xlink:href="#PazoMath-Italic-70"/>
      <use transform="translate(636.609236 0)scale(1.038107)" xlink:href="#CMSY10-1"/>
      <use transform="translate(686.018389 0)scale(0.996264)" xlink:href="#URWPalladioL-Roma-32"/>
      <use transform="translate(756.448642 0)scale(1.038107)" xlink:href="#CMSY10-1"/>
      <use transform="translate(807.103094 0)scale(0.996264)" xlink:href="#URWPalladioL-Ital-6e"/>
      <use transform="translate(864.986054 0)scale(0.996264)" xlink:href="#URWPalladioL-Roma-2f"/>
      <use transform="translate(940.801706 0)scale(0.996264)" xlink:href="#URWPalladioL-Ital-66"/>
      <use transform="translate(973.180286 -14.943915)scale(0.757155)" xlink:href="#URWPalladioL-Ital-73"/>
      <use transform="translate(1024.695235 0)scale(1.038107)" xlink:href="#CMR10-2b"/>
      <use transform="translate(1127.253983 0)scale(0.996264)" xlink:href="#PazoMath-Italic-70"/>
      <use transform="translate(1199.780912 0)scale(0.996264)" xlink:href="#URWPalladioL-Roma-2f"/>
      <use transform="translate(1261.399817 0)scale(0.996264)" xlink:href="#URWPalladioL-Roma-36"/>
      <use transform="translate(1312.458317 0)scale(1.038107)" xlink:href="#CMR10-29"/>
     </g>
    </g>
   </g>
  </g>
  <g id="axes_2">
   <g id="patch_4">
    <path d="M 41.145691 353.781147 
L 438.799104 353.781147 
L 438.799104 243.702629 
L 41.145691 243.702629 
z
" style="fill:none;"/>
   </g>
   <g id="matplotlib.axis_3">
    <g id="xtick_6">
     <g id="line2d_23">
      <path clip-path="url(#p3ac1c5951f)" d="M 41.145691 353.781147 
L 41.145691 243.702629 
" style="fill:none;stroke:#000000;stroke-linejoin:miter;stroke-opacity:0.2;stroke-width:0.5;"/>
     </g>
     <g id="line2d_24">
      <g>
       <use style="fill-opacity:0.2;stroke:#000000;stroke-opacity:0.2;stroke-width:0.8;" x="41.145691" xlink:href="#m1148520d4f" y="353.781147"/>
      </g>
     </g>
    </g>
    <g id="xtick_7">
     <g id="line2d_25">
      <path clip-path="url(#p3ac1c5951f)" d="M 122.299449 353.781147 
L 122.299449 243.702629 
" style="fill:none;stroke:#000000;stroke-linejoin:miter;stroke-opacity:0.2;stroke-width:0.5;"/>
     </g>
     <g id="line2d_26">
      <g>
       <use style="fill-opacity:0.2;stroke:#000000;stroke-opacity:0.2;stroke-width:0.8;" x="122.299449" xlink:href="#m1148520d4f" y="353.781147"/>
      </g>
     </g>
    </g>
    <g id="xtick_8">
     <g id="line2d_27">
      <path clip-path="url(#p3ac1c5951f)" d="M 203.453206 353.781147 
L 203.453206 243.702629 
" style="fill:none;stroke:#000000;stroke-linejoin:miter;stroke-opacity:0.2;stroke-width:0.5;"/>
     </g>
     <g id="line2d_28">
      <g>
       <use style="fill-opacity:0.2;stroke:#000000;stroke-opacity:0.2;stroke-width:0.8;" x="203.453206" xlink:href="#m1148520d4f" y="353.781147"/>
      </g>
     </g>
    </g>
    <g id="xtick_9">
     <g id="line2d_29">
      <path clip-path="url(#p3ac1c5951f)" d="M 284.606964 353.781147 
L 284.606964 243.702629 
" style="fill:none;stroke:#000000;stroke-linejoin:miter;stroke-opacity:0.2;stroke-width:0.5;"/>
     </g>
     <g id="line2d_30">
      <g>
       <use style="fill-opacity:0.2;stroke:#000000;stroke-opacity:0.2;stroke-width:0.8;" x="284.606964" xlink:href="#m1148520d4f" y="353.781147"/>
      </g>
     </g>
    </g>
    <g id="xtick_10">
     <g id="line2d_31">
      <path clip-path="url(#p3ac1c5951f)" d="M 365.760722 353.781147 
L 365.760722 243.702629 
" style="fill:none;stroke:#000000;stroke-linejoin:miter;stroke-opacity:0.2;stroke-width:0.5;"/>
     </g>
     <g id="line2d_32">
      <g>
       <use style="fill-opacity:0.2;stroke:#000000;stroke-opacity:0.2;stroke-width:0.8;" x="365.760722" xlink:href="#m1148520d4f" y="353.781147"/>
      </g>
     </g>
    </g>
   </g>
   <g id="matplotlib.axis_4">
    <g id="ytick_4">
     <g id="line2d_33">
      <path clip-path="url(#p3ac1c5951f)" d="M 41.145691 348.777578 
L 438.799104 348.777578 
" style="fill:none;stroke:#000000;stroke-linejoin:miter;stroke-opacity:0.2;stroke-width:0.5;"/>
     </g>
     <g id="line2d_34">
      <g>
       <use style="fill-opacity:0.2;stroke:#000000;stroke-opacity:0.2;stroke-width:0.8;" x="41.145691" xlink:href="#mb23604c888" y="348.777578"/>
      </g>
     </g>
     <g id="text_7">
      <!-- $\mathdefault{−1}$ -->
      <g transform="translate(7.2 353.767342)scale(0.14 -0.14)">
       <use transform="scale(1.038107)" xlink:href="#CMSY10-0"/>
       <use transform="translate(81.941696 0)scale(0.996264)" xlink:href="#URWPalladioL-Roma-31"/>
      </g>
     </g>
    </g>
    <g id="ytick_5">
     <g id="line2d_35">
      <path clip-path="url(#p3ac1c5951f)" d="M 41.145691 298.741888 
L 438.799104 298.741888 
" style="fill:none;stroke:#000000;stroke-linejoin:miter;stroke-opacity:0.2;stroke-width:0.5;"/>
     </g>
     <g id="line2d_36">
      <g>
       <use style="fill-opacity:0.2;stroke:#000000;stroke-opacity:0.2;stroke-width:0.8;" x="41.145691" xlink:href="#mb23604c888" y="298.741888"/>
      </g>
     </g>
     <g id="text_8">
      <!-- $\mathdefault{0}$ -->
      <g transform="translate(18.671843 303.731653)scale(0.14 -0.14)">
       <use transform="scale(0.996264)" xlink:href="#URWPalladioL-Roma-30"/>
      </g>
     </g>
    </g>
    <g id="ytick_6">
     <g id="line2d_37">
      <path clip-path="url(#p3ac1c5951f)" d="M 41.145691 248.706198 
L 438.799104 248.706198 
" style="fill:none;stroke:#000000;stroke-linejoin:miter;stroke-opacity:0.2;stroke-width:0.5;"/>
     </g>
     <g id="line2d_38">
      <g>
       <use style="fill-opacity:0.2;stroke:#000000;stroke-opacity:0.2;stroke-width:0.8;" x="41.145691" xlink:href="#mb23604c888" y="248.706198"/>
      </g>
     </g>
     <g id="text_9">
      <!-- $\mathdefault{1}$ -->
      <g transform="translate(18.671843 253.695963)scale(0.14 -0.14)">
       <use transform="scale(0.996264)" xlink:href="#URWPalladioL-Roma-31"/>
      </g>
     </g>
    </g>
   </g>
   <g id="line2d_39">
    <path clip-path="url(#p3ac1c5951f)" d="M 41.145691 248.706198 
L 49.261067 248.706198 
L 49.261067 250.278161 
L 57.376442 250.278161 
L 57.376442 254.895279 
L 65.491818 254.895279 
L 65.491818 262.26744 
L 73.607194 262.26744 
L 73.607194 271.931425 
L 81.72257 271.931425 
L 81.72257 283.28001 
L 89.837945 283.28001 
L 89.837945 295.600121 
L 97.953321 295.600121 
L 97.953321 308.117641 
L 106.068697 308.117641 
L 106.068697 320.046049 
L 114.184073 320.046049 
L 114.184073 330.635837 
L 122.299449 330.635837 
L 122.299449 339.221611 
L 130.414824 339.221611 
L 130.414824 345.263896 
L 138.5302 345.263896 
L 138.5302 348.383031 
L 146.645576 348.383031 
L 146.645576 348.383031 
L 154.760952 348.383031 
L 154.760952 345.263896 
L 162.876328 345.263896 
L 162.876328 339.221611 
L 170.991703 339.221611 
L 170.991703 330.635837 
L 179.107079 330.635837 
L 179.107079 320.046049 
L 187.222455 320.046049 
L 187.222455 308.117641 
L 195.337831 308.117641 
L 195.337831 295.600121 
L 203.453206 295.600121 
L 203.453206 283.28001 
L 211.568582 283.28001 
L 211.568582 271.931425 
L 219.683958 271.931425 
L 219.683958 262.26744 
L 227.799334 262.26744 
L 227.799334 254.895279 
L 235.91471 254.895279 
L 235.91471 250.278161 
L 244.030085 250.278161 
L 244.030085 248.706198 
L 252.145461 248.706198 
L 252.145461 250.278161 
L 260.260837 250.278161 
L 260.260837 254.895279 
L 268.376213 254.895279 
L 268.376213 262.26744 
L 276.491589 262.26744 
L 276.491589 271.931425 
L 284.606964 271.931425 
L 284.606964 283.28001 
L 292.72234 283.28001 
L 292.72234 295.600121 
L 300.837716 295.600121 
L 300.837716 308.117641 
L 308.953092 308.117641 
L 308.953092 320.046049 
L 317.068467 320.046049 
L 317.068467 330.635837 
L 325.183843 330.635837 
L 325.183843 339.221611 
L 333.299219 339.221611 
L 333.299219 345.263896 
L 341.414595 345.263896 
L 341.414595 348.383031 
L 349.529971 348.383031 
L 349.529971 348.383031 
L 357.645346 348.383031 
L 357.645346 345.263896 
L 365.760722 345.263896 
L 365.760722 339.221611 
L 373.876098 339.221611 
L 373.876098 330.635837 
L 381.991474 330.635837 
L 381.991474 320.046049 
L 390.10685 320.046049 
L 390.10685 308.117641 
L 398.222225 308.117641 
L 398.222225 295.600121 
L 406.337601 295.600121 
L 406.337601 283.28001 
L 414.452977 283.28001 
L 414.452977 271.931425 
L 422.568353 271.931425 
L 422.568353 262.26744 
L 430.683728 262.26744 
L 430.683728 254.895279 
L 438.799104 254.895279 
L 438.799104 250.278161 
" style="fill:none;stroke:#0271ae;stroke-linejoin:miter;stroke-width:3;"/>
    <g clip-path="url(#p3ac1c5951f)">
     <use style="fill:#0271ae;" x="41.145691" xlink:href="#m40d7e813f7" y="248.706198"/>
     <use style="fill:#0271ae;" x="49.261067" xlink:href="#m40d7e813f7" y="250.278161"/>
     <use style="fill:#0271ae;" x="57.376442" xlink:href="#m40d7e813f7" y="254.895279"/>
     <use style="fill:#0271ae;" x="65.491818" xlink:href="#m40d7e813f7" y="262.26744"/>
     <use style="fill:#0271ae;" x="73.607194" xlink:href="#m40d7e813f7" y="271.931425"/>
     <use style="fill:#0271ae;" x="81.72257" xlink:href="#m40d7e813f7" y="283.28001"/>
     <use style="fill:#0271ae;" x="89.837945" xlink:href="#m40d7e813f7" y="295.600121"/>
     <use style="fill:#0271ae;" x="97.953321" xlink:href="#m40d7e813f7" y="308.117641"/>
     <use style="fill:#0271ae;" x="106.068697" xlink:href="#m40d7e813f7" y="320.046049"/>
     <use style="fill:#0271ae;" x="114.184073" xlink:href="#m40d7e813f7" y="330.635837"/>
     <use style="fill:#0271ae;" x="122.299449" xlink:href="#m40d7e813f7" y="339.221611"/>
     <use style="fill:#0271ae;" x="130.414824" xlink:href="#m40d7e813f7" y="345.263896"/>
     <use style="fill:#0271ae;" x="138.5302" xlink:href="#m40d7e813f7" y="348.383031"/>
     <use style="fill:#0271ae;" x="146.645576" xlink:href="#m40d7e813f7" y="348.383031"/>
     <use style="fill:#0271ae;" x="154.760952" xlink:href="#m40d7e813f7" y="345.263896"/>
     <use style="fill:#0271ae;" x="162.876328" xlink:href="#m40d7e813f7" y="339.221611"/>
     <use style="fill:#0271ae;" x="170.991703" xlink:href="#m40d7e813f7" y="330.635837"/>
     <use style="fill:#0271ae;" x="179.107079" xlink:href="#m40d7e813f7" y="320.046049"/>
     <use style="fill:#0271ae;" x="187.222455" xlink:href="#m40d7e813f7" y="308.117641"/>
     <use style="fill:#0271ae;" x="195.337831" xlink:href="#m40d7e813f7" y="295.600121"/>
     <use style="fill:#0271ae;" x="203.453206" xlink:href="#m40d7e813f7" y="283.28001"/>
     <use style="fill:#0271ae;" x="211.568582" xlink:href="#m40d7e813f7" y="271.931425"/>
     <use style="fill:#0271ae;" x="219.683958" xlink:href="#m40d7e813f7" y="262.26744"/>
     <use style="fill:#0271ae;" x="227.799334" xlink:href="#m40d7e813f7" y="254.895279"/>
     <use style="fill:#0271ae;" x="235.91471" xlink:href="#m40d7e813f7" y="250.278161"/>
     <use style="fill:#0271ae;" x="244.030085" xlink:href="#m40d7e813f7" y="248.706198"/>
     <use style="fill:#0271ae;" x="252.145461" xlink:href="#m40d7e813f7" y="250.278161"/>
     <use style="fill:#0271ae;" x="260.260837" xlink:href="#m40d7e813f7" y="254.895279"/>
     <use style="fill:#0271ae;" x="268.376213" xlink:href="#m40d7e813f7" y="262.26744"/>
     <use style="fill:#0271ae;" x="276.491589" xlink:href="#m40d7e813f7" y="271.931425"/>
     <use style="fill:#0271ae;" x="284.606964" xlink:href="#m40d7e813f7" y="283.28001"/>
     <use style="fill:#0271ae;" x="292.72234" xlink:href="#m40d7e813f7" y="295.600121"/>
     <use style="fill:#0271ae;" x="300.837716" xlink:href="#m40d7e813f7" y="308.117641"/>
     <use style="fill:#0271ae;" x="308.953092" xlink:href="#m40d7e813f7" y="320.046049"/>
     <use style="fill:#0271ae;" x="317.068467" xlink:href="#m40d7e813f7" y="330.635837"/>
     <use style="fill:#0271ae;" x="325.183843" xlink:href="#m40d7e813f7" y="339.221611"/>
     <use style="fill:#0271ae;" x="333.299219" xlink:href="#m40d7e813f7" y="345.263896"/>
     <use style="fill:#0271ae;" x="341.414595" xlink:href="#m40d7e813f7" y="348.383031"/>
     <use style="fill:#0271ae;" x="349.529971" xlink:href="#m40d7e813f7" y="348.383031"/>
     <use style="fill:#0271ae;" x="357.645346" xlink:href="#m40d7e813f7" y="345.263896"/>
     <use style="fill:#0271ae;" x="365.760722" xlink:href="#m40d7e813f7" y="339.221611"/>
     <use style="fill:#0271ae;" x="373.876098" xlink:href="#m40d7e813f7" y="330.635837"/>
     <use style="fill:#0271ae;" x="381.991474" xlink:href="#m40d7e813f7" y="320.046049"/>
     <use style="fill:#0271ae;" x="390.10685" xlink:href="#m40d7e813f7" y="308.117641"/>
     <use style="fill:#0271ae;" x="398.222225" xlink:href="#m40d7e813f7" y="295.600121"/>
     <use style="fill:#0271ae;" x="406.337601" xlink:href="#m40d7e813f7" y="283.28001"/>
     <use style="fill:#0271ae;" x="414.452977" xlink:href="#m40d7e813f7" y="271.931425"/>
     <use style="fill:#0271ae;" x="422.568353" xlink:href="#m40d7e813f7" y="262.26744"/>
     <use style="fill:#0271ae;" x="430.683728" xlink:href="#m40d7e813f7" y="254.895279"/>
     <use style="fill:#0271ae;" x="438.799104" xlink:href="#m40d7e813f7" y="250.278161"/>
    </g>
   </g>
   <g id="line2d_40">
    <path clip-path="url(#p3ac1c5951f)" d="M 41.145691 348.777578 
L 49.261067 348.777578 
L 49.261067 347.205615 
L 57.376442 347.205615 
L 57.376442 342.588497 
L 65.491818 342.588497 
L 65.491818 335.216336 
L 73.607194 335.216336 
L 73.607194 325.552351 
L 81.72257 325.552351 
L 81.72257 314.203766 
L 89.837945 314.203766 
L 89.837945 301.883655 
L 97.953321 301.883655 
L 97.953321 289.366135 
L 106.068697 289.366135 
L 106.068697 277.437727 
L 114.184073 277.437727 
L 114.184073 266.847939 
L 122.299449 266.847939 
L 122.299449 258.262165 
L 130.414824 258.262165 
L 130.414824 252.21988 
L 138.5302 252.21988 
L 138.5302 249.100745 
L 146.645576 249.100745 
L 146.645576 249.100745 
L 154.760952 249.100745 
L 154.760952 252.21988 
L 162.876328 252.21988 
L 162.876328 258.262165 
L 170.991703 258.262165 
L 170.991703 266.847939 
L 179.107079 266.847939 
L 179.107079 277.437727 
L 187.222455 277.437727 
L 187.222455 289.366135 
L 195.337831 289.366135 
L 195.337831 301.883655 
L 203.453206 301.883655 
L 203.453206 314.203766 
L 211.568582 314.203766 
L 211.568582 325.552351 
L 219.683958 325.552351 
L 219.683958 335.216336 
L 227.799334 335.216336 
L 227.799334 342.588497 
L 235.91471 342.588497 
L 235.91471 347.205615 
L 244.030085 347.205615 
L 244.030085 348.777578 
L 252.145461 348.777578 
L 252.145461 347.205615 
L 260.260837 347.205615 
L 260.260837 342.588497 
L 268.376213 342.588497 
L 268.376213 335.216336 
L 276.491589 335.216336 
L 276.491589 325.552351 
L 284.606964 325.552351 
L 284.606964 314.203766 
L 292.72234 314.203766 
L 292.72234 301.883655 
L 300.837716 301.883655 
L 300.837716 289.366135 
L 308.953092 289.366135 
L 308.953092 277.437727 
L 317.068467 277.437727 
L 317.068467 266.847939 
L 325.183843 266.847939 
L 325.183843 258.262165 
L 333.299219 258.262165 
L 333.299219 252.21988 
L 341.414595 252.21988 
L 341.414595 249.100745 
L 349.529971 249.100745 
L 349.529971 249.100745 
L 357.645346 249.100745 
L 357.645346 252.21988 
L 365.760722 252.21988 
L 365.760722 258.262165 
L 373.876098 258.262165 
L 373.876098 266.847939 
L 381.991474 266.847939 
L 381.991474 277.437727 
L 390.10685 277.437727 
L 390.10685 289.366135 
L 398.222225 289.366135 
L 398.222225 301.883655 
L 406.337601 301.883655 
L 406.337601 314.203766 
L 414.452977 314.203766 
L 414.452977 325.552351 
L 422.568353 325.552351 
L 422.568353 335.216336 
L 430.683728 335.216336 
L 430.683728 342.588497 
L 438.799104 342.588497 
L 438.799104 347.205615 
" style="fill:none;stroke:#dc2830;stroke-linejoin:miter;stroke-width:3;"/>
    <g clip-path="url(#p3ac1c5951f)">
     <use style="fill:#dc2830;" x="41.145691" xlink:href="#m1a679f7882" y="348.777578"/>
     <use style="fill:#dc2830;" x="49.261067" xlink:href="#m1a679f7882" y="347.205615"/>
     <use style="fill:#dc2830;" x="57.376442" xlink:href="#m1a679f7882" y="342.588497"/>
     <use style="fill:#dc2830;" x="65.491818" xlink:href="#m1a679f7882" y="335.216336"/>
     <use style="fill:#dc2830;" x="73.607194" xlink:href="#m1a679f7882" y="325.552351"/>
     <use style="fill:#dc2830;" x="81.72257" xlink:href="#m1a679f7882" y="314.203766"/>
     <use style="fill:#dc2830;" x="89.837945" xlink:href="#m1a679f7882" y="301.883655"/>
     <use style="fill:#dc2830;" x="97.953321" xlink:href="#m1a679f7882" y="289.366135"/>
     <use style="fill:#dc2830;" x="106.068697" xlink:href="#m1a679f7882" y="277.437727"/>
     <use style="fill:#dc2830;" x="114.184073" xlink:href="#m1a679f7882" y="266.847939"/>
     <use style="fill:#dc2830;" x="122.299449" xlink:href="#m1a679f7882" y="258.262165"/>
     <use style="fill:#dc2830;" x="130.414824" xlink:href="#m1a679f7882" y="252.21988"/>
     <use style="fill:#dc2830;" x="138.5302" xlink:href="#m1a679f7882" y="249.100745"/>
     <use style="fill:#dc2830;" x="146.645576" xlink:href="#m1a679f7882" y="249.100745"/>
     <use style="fill:#dc2830;" x="154.760952" xlink:href="#m1a679f7882" y="252.21988"/>
     <use style="fill:#dc2830;" x="162.876328" xlink:href="#m1a679f7882" y="258.262165"/>
     <use style="fill:#dc2830;" x="170.991703" xlink:href="#m1a679f7882" y="266.847939"/>
     <use style="fill:#dc2830;" x="179.107079" xlink:href="#m1a679f7882" y="277.437727"/>
     <use style="fill:#dc2830;" x="187.222455" xlink:href="#m1a679f7882" y="289.366135"/>
     <use style="fill:#dc2830;" x="195.337831" xlink:href="#m1a679f7882" y="301.883655"/>
     <use style="fill:#dc2830;" x="203.453206" xlink:href="#m1a679f7882" y="314.203766"/>
     <use style="fill:#dc2830;" x="211.568582" xlink:href="#m1a679f7882" y="325.552351"/>
     <use style="fill:#dc2830;" x="219.683958" xlink:href="#m1a679f7882" y="335.216336"/>
     <use style="fill:#dc2830;" x="227.799334" xlink:href="#m1a679f7882" y="342.588497"/>
     <use style="fill:#dc2830;" x="235.91471" xlink:href="#m1a679f7882" y="347.205615"/>
     <use style="fill:#dc2830;" x="244.030085" xlink:href="#m1a679f7882" y="348.777578"/>
     <use style="fill:#dc2830;" x="252.145461" xlink:href="#m1a679f7882" y="347.205615"/>
     <use style="fill:#dc2830;" x="260.260837" xlink:href="#m1a679f7882" y="342.588497"/>
     <use style="fill:#dc2830;" x="268.376213" xlink:href="#m1a679f7882" y="335.216336"/>
     <use style="fill:#dc2830;" x="276.491589" xlink:href="#m1a679f7882" y="325.552351"/>
     <use style="fill:#dc2830;" x="284.606964" xlink:href="#m1a679f7882" y="314.203766"/>
     <use style="fill:#dc2830;" x="292.72234" xlink:href="#m1a679f7882" y="301.883655"/>
     <use style="fill:#dc2830;" x="300.837716" xlink:href="#m1a679f7882" y="289.366135"/>
     <use style="fill:#dc2830;" x="308.953092" xlink:href="#m1a679f7882" y="277.437727"/>
     <use style="fill:#dc2830;" x="317.068467" xlink:href="#m1a679f7882" y="266.847939"/>
     <use style="fill:#dc2830;" x="325.183843" xlink:href="#m1a679f7882" y="258.262165"/>
     <use style="fill:#dc2830;" x="333.299219" xlink:href="#m1a679f7882" y="252.21988"/>
     <use style="fill:#dc2830;" x="341.414595" xlink:href="#m1a679f7882" y="249.100745"/>
     <use style="fill:#dc2830;" x="349.529971" xlink:href="#m1a679f7882" y="249.100745"/>
     <use style="fill:#dc2830;" x="357.645346" xlink:href="#m1a679f7882" y="252.21988"/>
     <use style="fill:#dc2830;" x="365.760722" xlink:href="#m1a679f7882" y="258.262165"/>
     <use style="fill:#dc2830;" x="373.876098" xlink:href="#m1a679f7882" y="266.847939"/>
     <use style="fill:#dc2830;" x="381.991474" xlink:href="#m1a679f7882" y="277.437727"/>
     <use style="fill:#dc2830;" x="390.10685" xlink:href="#m1a679f7882" y="289.366135"/>
     <use style="fill:#dc2830;" x="398.222225" xlink:href="#m1a679f7882" y="301.883655"/>
     <use style="fill:#dc2830;" x="406.337601" xlink:href="#m1a679f7882" y="314.203766"/>
     <use style="fill:#dc2830;" x="414.452977" xlink:href="#m1a679f7882" y="325.552351"/>
     <use style="fill:#dc2830;" x="422.568353" xlink:href="#m1a679f7882" y="335.216336"/>
     <use style="fill:#dc2830;" x="430.683728" xlink:href="#m1a679f7882" y="342.588497"/>
     <use style="fill:#dc2830;" x="438.799104" xlink:href="#m1a679f7882" y="347.205615"/>
    </g>
   </g>
   <g id="text_10">
    <!-- $S=-25.0$ -->
    <g style="fill:#6e3b87;" transform="translate(487.491359 298.741888)scale(0.2 -0.2)">
     <defs>
      <path d="M 813 3891 
C 1638 3865 1997 3859 2765 3859 
L 2797 3891 
C 2784 4006 2784 4057 2784 4140 
C 2784 4230 2784 4281 2797 4396 
L 2765 4428 
C 2285 4403 1997 4396 1651 4396 
C 1299 4396 1018 4403 538 4428 
L 506 4396 
C 512 4006 518 3724 518 3520 
C 518 2976 499 2360 480 2076 
L 608 2038 
C 909 2341 1082 2432 1395 2432 
C 2010 2432 2394 1992 2394 1295 
C 2394 579 1984 160 1286 160 
C 941 160 621 276 531 443 
L 237 973 
L 83 882 
C 230 514 307 308 397 25 
C 576 -71 832 -128 1107 -128 
C 1536 -128 1990 57 2342 366 
C 2733 715 2938 1153 2938 1631 
C 2938 2360 2419 2873 1690 2873 
C 1382 2873 1152 2790 755 2553 
L 813 3891 
z
" id="URWPalladioL-Roma-35" transform="scale(0.015625)"/>
     </defs>
     <use transform="scale(0.996264)" xlink:href="#URWPalladioL-Ital-53"/>
     <use transform="translate(85.556893 0)scale(1.038107)" xlink:href="#CMR10-3d"/>
     <use transform="translate(196.417822 0)scale(1.038107)" xlink:href="#CMSY10-0"/>
     <use transform="translate(278.359518 0)scale(0.996264)" xlink:href="#URWPalladioL-Roma-32"/>
     <use transform="translate(328.172718 0)scale(0.996264)" xlink:href="#URWPalladioL-Roma-35"/>
     <use transform="translate(377.985919 0)scale(0.996264)" xlink:href="#URWPalladioL-Roma-2e"/>
     <use transform="translate(402.892519 0)scale(0.996264)" xlink:href="#URWPalladioL-Roma-30"/>
    </g>
   </g>
   <g id="legend_2">
    <g id="patch_5">
     <path d="M 43.945691 232.694778 
L 248.795108 232.694778 
Q 251.595108 232.694778 251.595108 229.894778 
L 251.595108 188.214072 
Q 251.595108 185.414072 248.795108 185.414072 
L 43.945691 185.414072 
Q 41.145691 185.414072 41.145691 188.214072 
L 41.145691 229.894778 
Q 41.145691 232.694778 43.945691 232.694778 
z
" style="fill:#ffffff;opacity:0.95;stroke:#cccccc;stroke-linejoin:miter;stroke-width:0.5;"/>
    </g>
    <g id="line2d_41">
     <path d="M 46.745691 196.721252 
L 60.745691 196.721252 
" style="fill:none;stroke:#0271ae;stroke-linejoin:miter;stroke-width:3;"/>
    </g>
    <g id="line2d_42">
     <g>
      <use style="fill:#0271ae;" x="53.745691" xlink:href="#m40d7e813f7" y="196.721252"/>
     </g>
    </g>
    <g id="text_11">
     <!-- $x[n] = \cos(2\pi \cdot 2 \cdot n / f_s)$ -->
     <g transform="translate(71.945691 201.621252)scale(0.14 -0.14)">
      <use transform="scale(0.996264)" xlink:href="#URWPalladioL-Ital-78"/>
      <use transform="translate(53.299136 0)scale(1.038107)" xlink:href="#CMR10-5b"/>
      <use transform="translate(84.581835 0)scale(0.996264)" xlink:href="#URWPalladioL-Ital-6e"/>
      <use transform="translate(142.464796 0)scale(1.038107)" xlink:href="#CMR10-5d"/>
      <use transform="translate(201.421427 0)scale(1.038107)" xlink:href="#CMR10-3d"/>
      <use transform="translate(311.037056 0)scale(0.996264)" xlink:href="#URWPalladioL-Roma-63"/>
      <use transform="translate(355.270625 0)scale(0.996264)" xlink:href="#URWPalladioL-Roma-6f"/>
      <use transform="translate(409.666205 0)scale(0.996264)" xlink:href="#URWPalladioL-Roma-73"/>
      <use transform="translate(453.152971 0)scale(1.038107)" xlink:href="#CMR10-28"/>
      <use transform="translate(494.647376 0)scale(0.996264)" xlink:href="#URWPalladioL-Roma-32"/>
      <use transform="translate(545.705877 0)scale(0.996264)" xlink:href="#PazoMath-Italic-70"/>
      <use transform="translate(637.604558 0)scale(1.038107)" xlink:href="#CMSY10-1"/>
      <use transform="translate(687.01371 0)scale(0.996264)" xlink:href="#URWPalladioL-Roma-32"/>
      <use transform="translate(757.443963 0)scale(1.038107)" xlink:href="#CMSY10-1"/>
      <use transform="translate(808.098415 0)scale(0.996264)" xlink:href="#URWPalladioL-Ital-6e"/>
      <use transform="translate(865.981375 0)scale(0.996264)" xlink:href="#URWPalladioL-Roma-2f"/>
      <use transform="translate(941.797027 0)scale(0.996264)" xlink:href="#URWPalladioL-Ital-66"/>
      <use transform="translate(974.175607 -14.943915)scale(0.757155)" xlink:href="#URWPalladioL-Ital-73"/>
      <use transform="translate(1006.318803 0)scale(1.038107)" xlink:href="#CMR10-29"/>
     </g>
    </g>
    <g id="line2d_43">
     <path d="M 46.745691 218.261605 
L 60.745691 218.261605 
" style="fill:none;stroke:#dc2830;stroke-linejoin:miter;stroke-width:3;"/>
    </g>
    <g id="line2d_44">
     <g>
      <use style="fill:#dc2830;" x="53.745691" xlink:href="#m1a679f7882" y="218.261605"/>
     </g>
    </g>
    <g id="text_12">
     <!-- $y[n] = \cos(2\pi \cdot 2 \cdot n / f_s + \pi)$ -->
     <g transform="translate(71.945691 223.161605)scale(0.14 -0.14)">
      <use transform="scale(0.996264)" xlink:href="#URWPalladioL-Ital-79"/>
      <use transform="translate(52.303815 0)scale(1.038107)" xlink:href="#CMR10-5b"/>
      <use transform="translate(83.586514 0)scale(0.996264)" xlink:href="#URWPalladioL-Ital-6e"/>
      <use transform="translate(141.469474 0)scale(1.038107)" xlink:href="#CMR10-5d"/>
      <use transform="translate(200.426106 0)scale(1.038107)" xlink:href="#CMR10-3d"/>
      <use transform="translate(310.041735 0)scale(0.996264)" xlink:href="#URWPalladioL-Roma-63"/>
      <use transform="translate(354.275304 0)scale(0.996264)" xlink:href="#URWPalladioL-Roma-6f"/>
      <use transform="translate(408.670884 0)scale(0.996264)" xlink:href="#URWPalladioL-Roma-73"/>
      <use transform="translate(452.15765 0)scale(1.038107)" xlink:href="#CMR10-28"/>
      <use transform="translate(493.652055 0)scale(0.996264)" xlink:href="#URWPalladioL-Roma-32"/>
      <use transform="translate(544.710555 0)scale(0.996264)" xlink:href="#PazoMath-Italic-70"/>
      <use transform="translate(636.609236 0)scale(1.038107)" xlink:href="#CMSY10-1"/>
      <use transform="translate(686.018389 0)scale(0.996264)" xlink:href="#URWPalladioL-Roma-32"/>
      <use transform="translate(756.448642 0)scale(1.038107)" xlink:href="#CMSY10-1"/>
      <use transform="translate(807.103094 0)scale(0.996264)" xlink:href="#URWPalladioL-Ital-6e"/>
      <use transform="translate(864.986054 0)scale(0.996264)" xlink:href="#URWPalladioL-Roma-2f"/>
      <use transform="translate(940.801706 0)scale(0.996264)" xlink:href="#URWPalladioL-Ital-66"/>
      <use transform="translate(973.180286 -14.943915)scale(0.757155)" xlink:href="#URWPalladioL-Ital-73"/>
      <use transform="translate(1024.695235 0)scale(1.038107)" xlink:href="#CMR10-2b"/>
      <use transform="translate(1127.253983 0)scale(0.996264)" xlink:href="#PazoMath-Italic-70"/>
      <use transform="translate(1199.780912 0)scale(1.038107)" xlink:href="#CMR10-29"/>
     </g>
    </g>
   </g>
  </g>
  <g id="axes_3">
   <g id="patch_6">
    <path d="M 41.145691 531.995219 
L 438.799104 531.995219 
L 438.799104 421.916701 
L 41.145691 421.916701 
z
" style="fill:none;"/>
   </g>
   <g id="matplotlib.axis_5">
    <g id="xtick_11">
     <g id="line2d_45">
      <path clip-path="url(#peb115bd3f4)" d="M 41.145691 531.995219 
L 41.145691 421.916701 
" style="fill:none;stroke:#000000;stroke-linejoin:miter;stroke-opacity:0.2;stroke-width:0.5;"/>
     </g>
     <g id="line2d_46">
      <g>
       <use style="fill-opacity:0.2;stroke:#000000;stroke-opacity:0.2;stroke-width:0.8;" x="41.145691" xlink:href="#m1148520d4f" y="531.995219"/>
      </g>
     </g>
     <g id="text_13">
      <!-- $\mathdefault{0.0}$ -->
      <g transform="translate(32.428381 557.474748)scale(0.14 -0.14)">
       <use transform="scale(0.996264)" xlink:href="#URWPalladioL-Roma-30"/>
       <use transform="translate(49.8132 0)scale(0.996264)" xlink:href="#URWPalladioL-Roma-2e"/>
       <use transform="translate(74.719801 0)scale(0.996264)" xlink:href="#URWPalladioL-Roma-30"/>
      </g>
     </g>
    </g>
    <g id="xtick_12">
     <g id="line2d_47">
      <path clip-path="url(#peb115bd3f4)" d="M 122.299449 531.995219 
L 122.299449 421.916701 
" style="fill:none;stroke:#000000;stroke-linejoin:miter;stroke-opacity:0.2;stroke-width:0.5;"/>
     </g>
     <g id="line2d_48">
      <g>
       <use style="fill-opacity:0.2;stroke:#000000;stroke-opacity:0.2;stroke-width:0.8;" x="122.299449" xlink:href="#m1148520d4f" y="531.995219"/>
      </g>
     </g>
     <g id="text_14">
      <!-- $\mathdefault{0.2}$ -->
      <g transform="translate(113.582138 557.474748)scale(0.14 -0.14)">
       <use transform="scale(0.996264)" xlink:href="#URWPalladioL-Roma-30"/>
       <use transform="translate(49.8132 0)scale(0.996264)" xlink:href="#URWPalladioL-Roma-2e"/>
       <use transform="translate(74.719801 0)scale(0.996264)" xlink:href="#URWPalladioL-Roma-32"/>
      </g>
     </g>
    </g>
    <g id="xtick_13">
     <g id="line2d_49">
      <path clip-path="url(#peb115bd3f4)" d="M 203.453206 531.995219 
L 203.453206 421.916701 
" style="fill:none;stroke:#000000;stroke-linejoin:miter;stroke-opacity:0.2;stroke-width:0.5;"/>
     </g>
     <g id="line2d_50">
      <g>
       <use style="fill-opacity:0.2;stroke:#000000;stroke-opacity:0.2;stroke-width:0.8;" x="203.453206" xlink:href="#m1148520d4f" y="531.995219"/>
      </g>
     </g>
     <g id="text_15">
      <!-- $\mathdefault{0.4}$ -->
      <g transform="translate(194.735896 557.474748)scale(0.14 -0.14)">
       <defs>
        <path d="M 1792 1152 
L 1792 684 
C 1792 310 1722 223 1408 210 
L 1011 192 
L 1011 0 
C 1862 0 1862 0 2016 0 
C 2170 19 2170 19 3021 0 
L 3021 192 
L 2714 210 
C 2400 229 2330 310 2330 684 
L 2330 1152 
C 2707 1152 2842 1145 3021 1127 
L 3021 1580 
C 2720 1555 2598 1555 2502 1561 
L 2483 1561 
L 2330 1561 
L 2330 2445 
C 2330 3576 2342 4122 2374 4383 
L 2298 4416 
L 1824 4243 
L 13 1299 
L 83 1152 
L 1792 1152 
z
M 1792 1561 
L 416 1561 
L 1792 3798 
L 1792 1561 
z
" id="URWPalladioL-Roma-34" transform="scale(0.015625)"/>
       </defs>
       <use transform="scale(0.996264)" xlink:href="#URWPalladioL-Roma-30"/>
       <use transform="translate(49.8132 0)scale(0.996264)" xlink:href="#URWPalladioL-Roma-2e"/>
       <use transform="translate(74.719801 0)scale(0.996264)" xlink:href="#URWPalladioL-Roma-34"/>
      </g>
     </g>
    </g>
    <g id="xtick_14">
     <g id="line2d_51">
      <path clip-path="url(#peb115bd3f4)" d="M 284.606964 531.995219 
L 284.606964 421.916701 
" style="fill:none;stroke:#000000;stroke-linejoin:miter;stroke-opacity:0.2;stroke-width:0.5;"/>
     </g>
     <g id="line2d_52">
      <g>
       <use style="fill-opacity:0.2;stroke:#000000;stroke-opacity:0.2;stroke-width:0.8;" x="284.606964" xlink:href="#m1148520d4f" y="531.995219"/>
      </g>
     </g>
     <g id="text_16">
      <!-- $\mathdefault{0.6}$ -->
      <g transform="translate(275.889654 557.474748)scale(0.14 -0.14)">
       <use transform="scale(0.996264)" xlink:href="#URWPalladioL-Roma-30"/>
       <use transform="translate(49.8132 0)scale(0.996264)" xlink:href="#URWPalladioL-Roma-2e"/>
       <use transform="translate(74.719801 0)scale(0.996264)" xlink:href="#URWPalladioL-Roma-36"/>
      </g>
     </g>
    </g>
    <g id="xtick_15">
     <g id="line2d_53">
      <path clip-path="url(#peb115bd3f4)" d="M 365.760722 531.995219 
L 365.760722 421.916701 
" style="fill:none;stroke:#000000;stroke-linejoin:miter;stroke-opacity:0.2;stroke-width:0.5;"/>
     </g>
     <g id="line2d_54">
      <g>
       <use style="fill-opacity:0.2;stroke:#000000;stroke-opacity:0.2;stroke-width:0.8;" x="365.760722" xlink:href="#m1148520d4f" y="531.995219"/>
      </g>
     </g>
     <g id="text_17">
      <!-- $\mathdefault{0.8}$ -->
      <g transform="translate(357.043412 557.474748)scale(0.14 -0.14)">
       <defs>
        <path d="M 1075 2211 
C 813 2089 704 2019 563 1884 
C 320 1640 192 1352 192 1019 
C 192 358 723 -128 1446 -128 
C 2278 -128 2970 525 2970 1320 
C 2970 1833 2733 2108 2003 2442 
C 2586 2839 2790 3108 2790 3493 
C 2790 4044 2336 4416 1658 4416 
C 896 4416 339 3929 339 3256 
C 339 2820 512 2576 1075 2211 
z
M 1818 1890 
C 2221 1711 2464 1397 2464 1051 
C 2464 512 2061 89 1542 89 
C 998 89 646 474 646 1070 
C 646 1538 832 1833 1306 2121 
L 1818 1890 
z
M 1427 2711 
C 1024 2910 819 3166 819 3486 
C 819 3910 1126 4198 1581 4198 
C 2048 4198 2355 3890 2355 3422 
C 2355 3057 2195 2807 1779 2538 
L 1427 2711 
z
" id="URWPalladioL-Roma-38" transform="scale(0.015625)"/>
       </defs>
       <use transform="scale(0.996264)" xlink:href="#URWPalladioL-Roma-30"/>
       <use transform="translate(49.8132 0)scale(0.996264)" xlink:href="#URWPalladioL-Roma-2e"/>
       <use transform="translate(74.719801 0)scale(0.996264)" xlink:href="#URWPalladioL-Roma-38"/>
      </g>
     </g>
    </g>
    <g id="text_18">
     <!-- Time [sec] -->
     <g transform="translate(213.228981 573.961796)scale(0.12 -0.12)">
      <defs>
       <path d="M 1632 4096 
C 1651 3880 1658 3734 1658 3462 
L 1658 781 
C 1658 280 1626 230 1331 211 
L 1024 192 
L 1024 0 
C 1402 -7 1626 0 1958 0 
C 2291 19 2522 12 2899 0 
L 2899 192 
L 2592 211 
C 2298 230 2266 280 2266 781 
L 2266 3462 
C 2266 3747 2272 3887 2291 4096 
L 3283 4096 
C 3462 4096 3533 4039 3539 3887 
L 3565 3386 
L 3763 3386 
C 3763 3801 3776 4051 3808 4416 
C 3347 4409 3136 4409 2957 4403 
C 2707 4390 2522 4390 2426 4390 
L 1414 4390 
C 1350 4390 1005 4396 550 4403 
L 115 4416 
C 147 4051 160 3801 160 3385 
L 358 3385 
L 384 3891 
C 390 4038 461 4096 640 4096 
L 1632 4096 
z
" id="URWPalladioL-Roma-54" transform="scale(0.015625)"/>
       <path d="M 1203 2982 
L 1146 3008 
C 819 2873 486 2784 147 2746 
L 147 2568 
L 384 2568 
C 640 2568 666 2523 666 2103 
L 666 669 
C 666 268 646 223 429 211 
L 134 192 
L 134 0 
C 774 0 774 0 934 0 
C 1094 19 1094 19 1734 0 
L 1734 192 
L 1440 211 
C 1222 224 1203 268 1203 671 
L 1203 2982 
z
M 909 4416 
C 717 4416 550 4249 550 4057 
C 550 3871 717 3705 902 3705 
C 1088 3705 1261 3871 1261 4057 
C 1261 4236 1088 4416 909 4416 
z
" id="URWPalladioL-Roma-69" transform="scale(0.015625)"/>
       <path d="M 115 2579 
L 352 2579 
C 608 2579 634 2534 634 2112 
L 634 672 
C 634 268 614 224 397 211 
L 102 192 
L 102 0 
C 717 0 736 0 915 0 
C 1094 19 1261 12 1677 0 
L 1677 192 
L 1408 211 
C 1190 223 1171 268 1171 670 
L 1171 2023 
C 1171 2311 1594 2624 1978 2624 
C 2323 2624 2560 2298 2560 1813 
L 2560 670 
C 2560 268 2541 223 2323 211 
L 2029 192 
L 2029 0 
C 2669 0 2669 0 2829 0 
C 2989 19 2989 19 3629 0 
L 3629 192 
L 3334 211 
C 3117 223 3098 268 3098 670 
L 3098 2023 
C 3098 2311 3520 2624 3904 2624 
C 4250 2624 4486 2298 4486 1813 
L 4486 0 
C 4877 0 4883 0 4992 0 
C 5075 19 5075 19 5562 0 
L 5562 192 
L 5261 211 
C 5043 223 5024 268 5024 670 
L 5024 1985 
C 5024 2617 4653 3014 4064 3014 
C 3840 3014 3654 2956 3539 2854 
L 3053 2419 
C 2848 2841 2586 3014 2144 3014 
C 1907 3014 1728 2956 1613 2854 
L 1171 2445 
L 1171 2988 
L 1114 3008 
C 787 2873 454 2783 115 2745 
L 115 2579 
z
" id="URWPalladioL-Roma-6d" transform="scale(0.015625)"/>
       <path d="M 2797 447 
L 2714 511 
C 2304 268 2157 211 1882 211 
C 1466 211 1120 396 941 710 
C 819 921 774 1100 762 1472 
L 1696 1472 
C 2138 1472 2413 1491 2854 1561 
C 2861 1651 2867 1708 2867 1786 
C 2867 2526 2394 3008 1677 3008 
C 1440 3008 1165 2924 902 2771 
C 378 2468 166 2069 166 1401 
C 166 998 262 652 435 409 
C 691 70 1120 -128 1600 -128 
C 1837 -128 2074 -77 2336 38 
C 2509 108 2643 192 2669 230 
L 2797 447 
z
M 2298 1708 
C 1965 1696 1811 1689 1581 1689 
C 1286 1689 1120 1696 774 1728 
C 774 2030 800 2172 883 2339 
C 1018 2623 1293 2796 1600 2796 
C 1811 2796 1978 2713 2093 2539 
C 2234 2326 2278 2140 2298 1708 
z
" id="URWPalladioL-Roma-65" transform="scale(0.015625)"/>
       <path d="M 563 -1178 
C 1018 -1166 1030 -1166 1184 -1166 
C 1338 -1166 1370 -1166 1805 -1178 
L 1843 -1140 
L 1843 -974 
L 1818 -942 
L 1574 -942 
C 1402 -942 1261 -903 1184 -839 
C 1126 -782 1107 -692 1107 -481 
C 1107 -474 1107 -340 1101 -148 
L 1101 89 
L 1101 3379 
L 1101 3615 
C 1107 3795 1107 3935 1107 3942 
C 1107 4153 1126 4249 1184 4307 
C 1261 4371 1402 4409 1574 4409 
L 1818 4409 
L 1843 4441 
L 1843 4608 
L 1805 4646 
C 1357 4633 1338 4633 1184 4633 
C 1037 4633 1005 4633 563 4646 
L 506 4563 
C 544 4403 557 4191 557 3699 
C 557 3603 557 3526 563 3462 
L 563 3379 
L 563 89 
L 563 6 
C 557 -97 557 -103 557 -212 
L 557 -282 
C 557 -718 544 -897 506 -1095 
L 563 -1178 
z
" id="URWPalladioL-Roma-5b" transform="scale(0.015625)"/>
       <path d="M 1568 4646 
C 1114 4633 1094 4633 947 4633 
C 794 4633 762 4633 326 4646 
L 288 4608 
L 288 4441 
L 314 4409 
L 557 4409 
C 730 4409 864 4371 941 4307 
C 1005 4249 1024 4159 1024 3942 
C 1024 3923 1024 3795 1030 3615 
L 1030 3379 
L 1030 89 
L 1030 -148 
C 1024 -334 1024 -449 1024 -468 
C 1024 -686 1005 -782 941 -839 
C 864 -903 730 -942 557 -942 
L 314 -942 
L 288 -974 
L 288 -1140 
L 326 -1178 
C 774 -1166 787 -1166 947 -1166 
C 1094 -1166 1126 -1166 1568 -1178 
L 1626 -1095 
C 1587 -942 1581 -743 1574 -250 
C 1574 -161 1574 -78 1568 6 
L 1568 89 
L 1568 3379 
L 1568 3462 
C 1574 3532 1574 3615 1574 3705 
C 1574 4198 1587 4409 1626 4563 
L 1568 4646 
z
" id="URWPalladioL-Roma-5d" transform="scale(0.015625)"/>
      </defs>
      <use transform="scale(0.996264)" xlink:href="#URWPalladioL-Roma-54"/>
      <use transform="translate(55.591109 0)scale(0.996264)" xlink:href="#URWPalladioL-Roma-69"/>
      <use transform="translate(84.581471 0)scale(0.996264)" xlink:href="#URWPalladioL-Roma-6d"/>
      <use transform="translate(172.551145 0)scale(0.996264)" xlink:href="#URWPalladioL-Roma-65"/>
      <use transform="translate(245.17804 0)scale(0.996264)" xlink:href="#URWPalladioL-Roma-5b"/>
      <use transform="translate(278.35327 0)scale(0.996264)" xlink:href="#URWPalladioL-Roma-73"/>
      <use transform="translate(320.594736 0)scale(0.996264)" xlink:href="#URWPalladioL-Roma-65"/>
      <use transform="translate(368.315031 0)scale(0.996264)" xlink:href="#URWPalladioL-Roma-63"/>
      <use transform="translate(412.5486 0)scale(0.996264)" xlink:href="#URWPalladioL-Roma-5d"/>
     </g>
    </g>
   </g>
   <g id="matplotlib.axis_6">
    <g id="ytick_7">
     <g id="line2d_55">
      <path clip-path="url(#peb115bd3f4)" d="M 41.145691 526.99165 
L 438.799104 526.99165 
" style="fill:none;stroke:#000000;stroke-linejoin:miter;stroke-opacity:0.2;stroke-width:0.5;"/>
     </g>
     <g id="line2d_56">
      <g>
       <use style="fill-opacity:0.2;stroke:#000000;stroke-opacity:0.2;stroke-width:0.8;" x="41.145691" xlink:href="#mb23604c888" y="526.99165"/>
      </g>
     </g>
     <g id="text_19">
      <!-- $\mathdefault{−1}$ -->
      <g transform="translate(7.2 531.981414)scale(0.14 -0.14)">
       <use transform="scale(1.038107)" xlink:href="#CMSY10-0"/>
       <use transform="translate(81.941696 0)scale(0.996264)" xlink:href="#URWPalladioL-Roma-31"/>
      </g>
     </g>
    </g>
    <g id="ytick_8">
     <g id="line2d_57">
      <path clip-path="url(#peb115bd3f4)" d="M 41.145691 476.95596 
L 438.799104 476.95596 
" style="fill:none;stroke:#000000;stroke-linejoin:miter;stroke-opacity:0.2;stroke-width:0.5;"/>
     </g>
     <g id="line2d_58">
      <g>
       <use style="fill-opacity:0.2;stroke:#000000;stroke-opacity:0.2;stroke-width:0.8;" x="41.145691" xlink:href="#mb23604c888" y="476.95596"/>
      </g>
     </g>
     <g id="text_20">
      <!-- $\mathdefault{0}$ -->
      <g transform="translate(18.671843 481.945725)scale(0.14 -0.14)">
       <use transform="scale(0.996264)" xlink:href="#URWPalladioL-Roma-30"/>
      </g>
     </g>
    </g>
    <g id="ytick_9">
     <g id="line2d_59">
      <path clip-path="url(#peb115bd3f4)" d="M 41.145691 426.92027 
L 438.799104 426.92027 
" style="fill:none;stroke:#000000;stroke-linejoin:miter;stroke-opacity:0.2;stroke-width:0.5;"/>
     </g>
     <g id="line2d_60">
      <g>
       <use style="fill-opacity:0.2;stroke:#000000;stroke-opacity:0.2;stroke-width:0.8;" x="41.145691" xlink:href="#mb23604c888" y="426.92027"/>
      </g>
     </g>
     <g id="text_21">
      <!-- $\mathdefault{1}$ -->
      <g transform="translate(18.671843 431.910035)scale(0.14 -0.14)">
       <use transform="scale(0.996264)" xlink:href="#URWPalladioL-Roma-31"/>
      </g>
     </g>
    </g>
   </g>
   <g id="line2d_61">
    <path clip-path="url(#peb115bd3f4)" d="M 41.145691 426.92027 
L 49.261067 426.92027 
L 49.261067 428.492233 
L 57.376442 428.492233 
L 57.376442 433.109351 
L 65.491818 433.109351 
L 65.491818 440.481512 
L 73.607194 440.481512 
L 73.607194 450.145497 
L 81.72257 450.145497 
L 81.72257 461.494081 
L 89.837945 461.494081 
L 89.837945 473.814193 
L 97.953321 473.814193 
L 97.953321 486.331713 
L 106.068697 486.331713 
L 106.068697 498.26012 
L 114.184073 498.26012 
L 114.184073 508.849909 
L 122.299449 508.849909 
L 122.299449 517.435683 
L 130.414824 517.435683 
L 130.414824 523.477968 
L 138.5302 523.477968 
L 138.5302 526.597103 
L 146.645576 526.597103 
L 146.645576 526.597103 
L 154.760952 526.597103 
L 154.760952 523.477968 
L 162.876328 523.477968 
L 162.876328 517.435683 
L 170.991703 517.435683 
L 170.991703 508.849909 
L 179.107079 508.849909 
L 179.107079 498.26012 
L 187.222455 498.26012 
L 187.222455 486.331713 
L 195.337831 486.331713 
L 195.337831 473.814193 
L 203.453206 473.814193 
L 203.453206 461.494081 
L 211.568582 461.494081 
L 211.568582 450.145497 
L 219.683958 450.145497 
L 219.683958 440.481512 
L 227.799334 440.481512 
L 227.799334 433.109351 
L 235.91471 433.109351 
L 235.91471 428.492233 
L 244.030085 428.492233 
L 244.030085 426.92027 
L 252.145461 426.92027 
L 252.145461 428.492233 
L 260.260837 428.492233 
L 260.260837 433.109351 
L 268.376213 433.109351 
L 268.376213 440.481512 
L 276.491589 440.481512 
L 276.491589 450.145497 
L 284.606964 450.145497 
L 284.606964 461.494081 
L 292.72234 461.494081 
L 292.72234 473.814193 
L 300.837716 473.814193 
L 300.837716 486.331713 
L 308.953092 486.331713 
L 308.953092 498.26012 
L 317.068467 498.26012 
L 317.068467 508.849909 
L 325.183843 508.849909 
L 325.183843 517.435683 
L 333.299219 517.435683 
L 333.299219 523.477968 
L 341.414595 523.477968 
L 341.414595 526.597103 
L 349.529971 526.597103 
L 349.529971 526.597103 
L 357.645346 526.597103 
L 357.645346 523.477968 
L 365.760722 523.477968 
L 365.760722 517.435683 
L 373.876098 517.435683 
L 373.876098 508.849909 
L 381.991474 508.849909 
L 381.991474 498.26012 
L 390.10685 498.26012 
L 390.10685 486.331713 
L 398.222225 486.331713 
L 398.222225 473.814193 
L 406.337601 473.814193 
L 406.337601 461.494081 
L 414.452977 461.494081 
L 414.452977 450.145497 
L 422.568353 450.145497 
L 422.568353 440.481512 
L 430.683728 440.481512 
L 430.683728 433.109351 
L 438.799104 433.109351 
L 438.799104 428.492233 
" style="fill:none;stroke:#0271ae;stroke-linejoin:miter;stroke-width:3;"/>
    <g clip-path="url(#peb115bd3f4)">
     <use style="fill:#0271ae;" x="41.145691" xlink:href="#m40d7e813f7" y="426.92027"/>
     <use style="fill:#0271ae;" x="49.261067" xlink:href="#m40d7e813f7" y="428.492233"/>
     <use style="fill:#0271ae;" x="57.376442" xlink:href="#m40d7e813f7" y="433.109351"/>
     <use style="fill:#0271ae;" x="65.491818" xlink:href="#m40d7e813f7" y="440.481512"/>
     <use style="fill:#0271ae;" x="73.607194" xlink:href="#m40d7e813f7" y="450.145497"/>
     <use style="fill:#0271ae;" x="81.72257" xlink:href="#m40d7e813f7" y="461.494081"/>
     <use style="fill:#0271ae;" x="89.837945" xlink:href="#m40d7e813f7" y="473.814193"/>
     <use style="fill:#0271ae;" x="97.953321" xlink:href="#m40d7e813f7" y="486.331713"/>
     <use style="fill:#0271ae;" x="106.068697" xlink:href="#m40d7e813f7" y="498.26012"/>
     <use style="fill:#0271ae;" x="114.184073" xlink:href="#m40d7e813f7" y="508.849909"/>
     <use style="fill:#0271ae;" x="122.299449" xlink:href="#m40d7e813f7" y="517.435683"/>
     <use style="fill:#0271ae;" x="130.414824" xlink:href="#m40d7e813f7" y="523.477968"/>
     <use style="fill:#0271ae;" x="138.5302" xlink:href="#m40d7e813f7" y="526.597103"/>
     <use style="fill:#0271ae;" x="146.645576" xlink:href="#m40d7e813f7" y="526.597103"/>
     <use style="fill:#0271ae;" x="154.760952" xlink:href="#m40d7e813f7" y="523.477968"/>
     <use style="fill:#0271ae;" x="162.876328" xlink:href="#m40d7e813f7" y="517.435683"/>
     <use style="fill:#0271ae;" x="170.991703" xlink:href="#m40d7e813f7" y="508.849909"/>
     <use style="fill:#0271ae;" x="179.107079" xlink:href="#m40d7e813f7" y="498.26012"/>
     <use style="fill:#0271ae;" x="187.222455" xlink:href="#m40d7e813f7" y="486.331713"/>
     <use style="fill:#0271ae;" x="195.337831" xlink:href="#m40d7e813f7" y="473.814193"/>
     <use style="fill:#0271ae;" x="203.453206" xlink:href="#m40d7e813f7" y="461.494081"/>
     <use style="fill:#0271ae;" x="211.568582" xlink:href="#m40d7e813f7" y="450.145497"/>
     <use style="fill:#0271ae;" x="219.683958" xlink:href="#m40d7e813f7" y="440.481512"/>
     <use style="fill:#0271ae;" x="227.799334" xlink:href="#m40d7e813f7" y="433.109351"/>
     <use style="fill:#0271ae;" x="235.91471" xlink:href="#m40d7e813f7" y="428.492233"/>
     <use style="fill:#0271ae;" x="244.030085" xlink:href="#m40d7e813f7" y="426.92027"/>
     <use style="fill:#0271ae;" x="252.145461" xlink:href="#m40d7e813f7" y="428.492233"/>
     <use style="fill:#0271ae;" x="260.260837" xlink:href="#m40d7e813f7" y="433.109351"/>
     <use style="fill:#0271ae;" x="268.376213" xlink:href="#m40d7e813f7" y="440.481512"/>
     <use style="fill:#0271ae;" x="276.491589" xlink:href="#m40d7e813f7" y="450.145497"/>
     <use style="fill:#0271ae;" x="284.606964" xlink:href="#m40d7e813f7" y="461.494081"/>
     <use style="fill:#0271ae;" x="292.72234" xlink:href="#m40d7e813f7" y="473.814193"/>
     <use style="fill:#0271ae;" x="300.837716" xlink:href="#m40d7e813f7" y="486.331713"/>
     <use style="fill:#0271ae;" x="308.953092" xlink:href="#m40d7e813f7" y="498.26012"/>
     <use style="fill:#0271ae;" x="317.068467" xlink:href="#m40d7e813f7" y="508.849909"/>
     <use style="fill:#0271ae;" x="325.183843" xlink:href="#m40d7e813f7" y="517.435683"/>
     <use style="fill:#0271ae;" x="333.299219" xlink:href="#m40d7e813f7" y="523.477968"/>
     <use style="fill:#0271ae;" x="341.414595" xlink:href="#m40d7e813f7" y="526.597103"/>
     <use style="fill:#0271ae;" x="349.529971" xlink:href="#m40d7e813f7" y="526.597103"/>
     <use style="fill:#0271ae;" x="357.645346" xlink:href="#m40d7e813f7" y="523.477968"/>
     <use style="fill:#0271ae;" x="365.760722" xlink:href="#m40d7e813f7" y="517.435683"/>
     <use style="fill:#0271ae;" x="373.876098" xlink:href="#m40d7e813f7" y="508.849909"/>
     <use style="fill:#0271ae;" x="381.991474" xlink:href="#m40d7e813f7" y="498.26012"/>
     <use style="fill:#0271ae;" x="390.10685" xlink:href="#m40d7e813f7" y="486.331713"/>
     <use style="fill:#0271ae;" x="398.222225" xlink:href="#m40d7e813f7" y="473.814193"/>
     <use style="fill:#0271ae;" x="406.337601" xlink:href="#m40d7e813f7" y="461.494081"/>
     <use style="fill:#0271ae;" x="414.452977" xlink:href="#m40d7e813f7" y="450.145497"/>
     <use style="fill:#0271ae;" x="422.568353" xlink:href="#m40d7e813f7" y="440.481512"/>
     <use style="fill:#0271ae;" x="430.683728" xlink:href="#m40d7e813f7" y="433.109351"/>
     <use style="fill:#0271ae;" x="438.799104" xlink:href="#m40d7e813f7" y="428.492233"/>
    </g>
   </g>
   <g id="line2d_62">
    <path clip-path="url(#peb115bd3f4)" d="M 41.145691 426.92027 
L 49.261067 426.92027 
L 49.261067 430.433952 
L 57.376442 430.433952 
L 57.376442 440.481512 
L 65.491818 440.481512 
L 65.491818 455.651799 
L 73.607194 455.651799 
L 73.607194 473.814193 
L 81.72257 473.814193 
L 81.72257 492.417838 
L 89.837945 492.417838 
L 89.837945 508.849909 
L 97.953321 508.849909 
L 97.953321 520.802569 
L 106.068697 520.802569 
L 106.068697 526.597103 
L 114.184073 526.597103 
L 114.184073 525.419686 
L 122.299449 525.419686 
L 122.299449 517.435683 
L 130.414824 517.435683 
L 130.414824 503.766423 
L 138.5302 503.766423 
L 138.5302 486.331713 
L 146.645576 486.331713 
L 146.645576 467.580207 
L 154.760952 467.580207 
L 154.760952 450.145497 
L 162.876328 450.145497 
L 162.876328 436.476237 
L 170.991703 436.476237 
L 170.991703 428.492233 
L 179.107079 428.492233 
L 179.107079 427.314817 
L 187.222455 427.314817 
L 187.222455 433.109351 
L 195.337831 433.109351 
L 195.337831 445.062011 
L 203.453206 445.062011 
L 203.453206 461.494081 
L 211.568582 461.494081 
L 211.568582 480.097727 
L 219.683958 480.097727 
L 219.683958 498.26012 
L 227.799334 498.26012 
L 227.799334 513.430408 
L 235.91471 513.430408 
L 235.91471 523.477968 
L 244.030085 523.477968 
L 244.030085 526.99165 
L 252.145461 526.99165 
L 252.145461 523.477968 
L 260.260837 523.477968 
L 260.260837 513.430408 
L 268.376213 513.430408 
L 268.376213 498.26012 
L 276.491589 498.26012 
L 276.491589 480.097727 
L 284.606964 480.097727 
L 284.606964 461.494081 
L 292.72234 461.494081 
L 292.72234 445.062011 
L 300.837716 445.062011 
L 300.837716 433.109351 
L 308.953092 433.109351 
L 308.953092 427.314817 
L 317.068467 427.314817 
L 317.068467 428.492233 
L 325.183843 428.492233 
L 325.183843 436.476237 
L 333.299219 436.476237 
L 333.299219 450.145497 
L 341.414595 450.145497 
L 341.414595 467.580207 
L 349.529971 467.580207 
L 349.529971 486.331713 
L 357.645346 486.331713 
L 357.645346 503.766423 
L 365.760722 503.766423 
L 365.760722 517.435683 
L 373.876098 517.435683 
L 373.876098 525.419686 
L 381.991474 525.419686 
L 381.991474 526.597103 
L 390.10685 526.597103 
L 390.10685 520.802569 
L 398.222225 520.802569 
L 398.222225 508.849909 
L 406.337601 508.849909 
L 406.337601 492.417838 
L 414.452977 492.417838 
L 414.452977 473.814193 
L 422.568353 473.814193 
L 422.568353 455.651799 
L 430.683728 455.651799 
L 430.683728 440.481512 
L 438.799104 440.481512 
L 438.799104 430.433952 
" style="fill:none;stroke:#dc2830;stroke-linejoin:miter;stroke-width:3;"/>
    <g clip-path="url(#peb115bd3f4)">
     <use style="fill:#dc2830;" x="41.145691" xlink:href="#m1a679f7882" y="426.92027"/>
     <use style="fill:#dc2830;" x="49.261067" xlink:href="#m1a679f7882" y="430.433952"/>
     <use style="fill:#dc2830;" x="57.376442" xlink:href="#m1a679f7882" y="440.481512"/>
     <use style="fill:#dc2830;" x="65.491818" xlink:href="#m1a679f7882" y="455.651799"/>
     <use style="fill:#dc2830;" x="73.607194" xlink:href="#m1a679f7882" y="473.814193"/>
     <use style="fill:#dc2830;" x="81.72257" xlink:href="#m1a679f7882" y="492.417838"/>
     <use style="fill:#dc2830;" x="89.837945" xlink:href="#m1a679f7882" y="508.849909"/>
     <use style="fill:#dc2830;" x="97.953321" xlink:href="#m1a679f7882" y="520.802569"/>
     <use style="fill:#dc2830;" x="106.068697" xlink:href="#m1a679f7882" y="526.597103"/>
     <use style="fill:#dc2830;" x="114.184073" xlink:href="#m1a679f7882" y="525.419686"/>
     <use style="fill:#dc2830;" x="122.299449" xlink:href="#m1a679f7882" y="517.435683"/>
     <use style="fill:#dc2830;" x="130.414824" xlink:href="#m1a679f7882" y="503.766423"/>
     <use style="fill:#dc2830;" x="138.5302" xlink:href="#m1a679f7882" y="486.331713"/>
     <use style="fill:#dc2830;" x="146.645576" xlink:href="#m1a679f7882" y="467.580207"/>
     <use style="fill:#dc2830;" x="154.760952" xlink:href="#m1a679f7882" y="450.145497"/>
     <use style="fill:#dc2830;" x="162.876328" xlink:href="#m1a679f7882" y="436.476237"/>
     <use style="fill:#dc2830;" x="170.991703" xlink:href="#m1a679f7882" y="428.492233"/>
     <use style="fill:#dc2830;" x="179.107079" xlink:href="#m1a679f7882" y="427.314817"/>
     <use style="fill:#dc2830;" x="187.222455" xlink:href="#m1a679f7882" y="433.109351"/>
     <use style="fill:#dc2830;" x="195.337831" xlink:href="#m1a679f7882" y="445.062011"/>
     <use style="fill:#dc2830;" x="203.453206" xlink:href="#m1a679f7882" y="461.494081"/>
     <use style="fill:#dc2830;" x="211.568582" xlink:href="#m1a679f7882" y="480.097727"/>
     <use style="fill:#dc2830;" x="219.683958" xlink:href="#m1a679f7882" y="498.26012"/>
     <use style="fill:#dc2830;" x="227.799334" xlink:href="#m1a679f7882" y="513.430408"/>
     <use style="fill:#dc2830;" x="235.91471" xlink:href="#m1a679f7882" y="523.477968"/>
     <use style="fill:#dc2830;" x="244.030085" xlink:href="#m1a679f7882" y="526.99165"/>
     <use style="fill:#dc2830;" x="252.145461" xlink:href="#m1a679f7882" y="523.477968"/>
     <use style="fill:#dc2830;" x="260.260837" xlink:href="#m1a679f7882" y="513.430408"/>
     <use style="fill:#dc2830;" x="268.376213" xlink:href="#m1a679f7882" y="498.26012"/>
     <use style="fill:#dc2830;" x="276.491589" xlink:href="#m1a679f7882" y="480.097727"/>
     <use style="fill:#dc2830;" x="284.606964" xlink:href="#m1a679f7882" y="461.494081"/>
     <use style="fill:#dc2830;" x="292.72234" xlink:href="#m1a679f7882" y="445.062011"/>
     <use style="fill:#dc2830;" x="300.837716" xlink:href="#m1a679f7882" y="433.109351"/>
     <use style="fill:#dc2830;" x="308.953092" xlink:href="#m1a679f7882" y="427.314817"/>
     <use style="fill:#dc2830;" x="317.068467" xlink:href="#m1a679f7882" y="428.492233"/>
     <use style="fill:#dc2830;" x="325.183843" xlink:href="#m1a679f7882" y="436.476237"/>
     <use style="fill:#dc2830;" x="333.299219" xlink:href="#m1a679f7882" y="450.145497"/>
     <use style="fill:#dc2830;" x="341.414595" xlink:href="#m1a679f7882" y="467.580207"/>
     <use style="fill:#dc2830;" x="349.529971" xlink:href="#m1a679f7882" y="486.331713"/>
     <use style="fill:#dc2830;" x="357.645346" xlink:href="#m1a679f7882" y="503.766423"/>
     <use style="fill:#dc2830;" x="365.760722" xlink:href="#m1a679f7882" y="517.435683"/>
     <use style="fill:#dc2830;" x="373.876098" xlink:href="#m1a679f7882" y="525.419686"/>
     <use style="fill:#dc2830;" x="381.991474" xlink:href="#m1a679f7882" y="526.597103"/>
     <use style="fill:#dc2830;" x="390.10685" xlink:href="#m1a679f7882" y="520.802569"/>
     <use style="fill:#dc2830;" x="398.222225" xlink:href="#m1a679f7882" y="508.849909"/>
     <use style="fill:#dc2830;" x="406.337601" xlink:href="#m1a679f7882" y="492.417838"/>
     <use style="fill:#dc2830;" x="414.452977" xlink:href="#m1a679f7882" y="473.814193"/>
     <use style="fill:#dc2830;" x="422.568353" xlink:href="#m1a679f7882" y="455.651799"/>
     <use style="fill:#dc2830;" x="430.683728" xlink:href="#m1a679f7882" y="440.481512"/>
     <use style="fill:#dc2830;" x="438.799104" xlink:href="#m1a679f7882" y="430.433952"/>
    </g>
   </g>
   <g id="text_22">
    <!-- $S=-0.0$ -->
    <g style="fill:#6e3b87;" transform="translate(487.491359 476.95596)scale(0.2 -0.2)">
     <use transform="scale(0.996264)" xlink:href="#URWPalladioL-Ital-53"/>
     <use transform="translate(85.556893 0)scale(1.038107)" xlink:href="#CMR10-3d"/>
     <use transform="translate(196.417822 0)scale(1.038107)" xlink:href="#CMSY10-0"/>
     <use transform="translate(278.359518 0)scale(0.996264)" xlink:href="#URWPalladioL-Roma-30"/>
     <use transform="translate(328.172718 0)scale(0.996264)" xlink:href="#URWPalladioL-Roma-2e"/>
     <use transform="translate(353.079319 0)scale(0.996264)" xlink:href="#URWPalladioL-Roma-30"/>
    </g>
   </g>
   <g id="legend_3">
    <g id="patch_7">
     <path d="M 43.945691 410.908849 
L 221.710457 410.908849 
Q 224.510457 410.908849 224.510457 408.108849 
L 224.510457 366.428144 
Q 224.510457 363.628144 221.710457 363.628144 
L 43.945691 363.628144 
Q 41.145691 363.628144 41.145691 366.428144 
L 41.145691 408.108849 
Q 41.145691 410.908849 43.945691 410.908849 
z
" style="fill:#ffffff;opacity:0.95;stroke:#cccccc;stroke-linejoin:miter;stroke-width:0.5;"/>
    </g>
    <g id="line2d_63">
     <path d="M 46.745691 374.935324 
L 60.745691 374.935324 
" style="fill:none;stroke:#0271ae;stroke-linejoin:miter;stroke-width:3;"/>
    </g>
    <g id="line2d_64">
     <g>
      <use style="fill:#0271ae;" x="53.745691" xlink:href="#m40d7e813f7" y="374.935324"/>
     </g>
    </g>
    <g id="text_23">
     <!-- $x[n] = \cos(2\pi \cdot 2 \cdot n / f_s)$ -->
     <g transform="translate(71.945691 379.835324)scale(0.14 -0.14)">
      <use transform="scale(0.996264)" xlink:href="#URWPalladioL-Ital-78"/>
      <use transform="translate(53.299136 0)scale(1.038107)" xlink:href="#CMR10-5b"/>
      <use transform="translate(84.581835 0)scale(0.996264)" xlink:href="#URWPalladioL-Ital-6e"/>
      <use transform="translate(142.464796 0)scale(1.038107)" xlink:href="#CMR10-5d"/>
      <use transform="translate(201.421427 0)scale(1.038107)" xlink:href="#CMR10-3d"/>
      <use transform="translate(311.037056 0)scale(0.996264)" xlink:href="#URWPalladioL-Roma-63"/>
      <use transform="translate(355.270625 0)scale(0.996264)" xlink:href="#URWPalladioL-Roma-6f"/>
      <use transform="translate(409.666205 0)scale(0.996264)" xlink:href="#URWPalladioL-Roma-73"/>
      <use transform="translate(453.152971 0)scale(1.038107)" xlink:href="#CMR10-28"/>
      <use transform="translate(494.647376 0)scale(0.996264)" xlink:href="#URWPalladioL-Roma-32"/>
      <use transform="translate(545.705877 0)scale(0.996264)" xlink:href="#PazoMath-Italic-70"/>
      <use transform="translate(637.604558 0)scale(1.038107)" xlink:href="#CMSY10-1"/>
      <use transform="translate(687.01371 0)scale(0.996264)" xlink:href="#URWPalladioL-Roma-32"/>
      <use transform="translate(757.443963 0)scale(1.038107)" xlink:href="#CMSY10-1"/>
      <use transform="translate(808.098415 0)scale(0.996264)" xlink:href="#URWPalladioL-Ital-6e"/>
      <use transform="translate(865.981375 0)scale(0.996264)" xlink:href="#URWPalladioL-Roma-2f"/>
      <use transform="translate(941.797027 0)scale(0.996264)" xlink:href="#URWPalladioL-Ital-66"/>
      <use transform="translate(974.175607 -14.943915)scale(0.757155)" xlink:href="#URWPalladioL-Ital-73"/>
      <use transform="translate(1006.318803 0)scale(1.038107)" xlink:href="#CMR10-29"/>
     </g>
    </g>
    <g id="line2d_65">
     <path d="M 46.745691 396.475677 
L 60.745691 396.475677 
" style="fill:none;stroke:#dc2830;stroke-linejoin:miter;stroke-width:3;"/>
    </g>
    <g id="line2d_66">
     <g>
      <use style="fill:#dc2830;" x="53.745691" xlink:href="#m1a679f7882" y="396.475677"/>
     </g>
    </g>
    <g id="text_24">
     <!-- $y[n] = \cos(2\pi \cdot 3 \cdot n / f_s)$ -->
     <g transform="translate(71.945691 401.375677)scale(0.14 -0.14)">
      <defs>
       <path d="M 275 3196 
L 474 3196 
L 589 3553 
C 659 3770 1062 3987 1395 3987 
C 1811 3987 2150 3649 2150 3247 
C 2150 2769 1773 2368 1318 2368 
C 1267 2368 1197 2374 1114 2380 
L 1018 2387 
L 941 2047 
L 986 2008 
C 1229 2118 1350 2150 1523 2150 
C 2054 2150 2362 1808 2362 1222 
C 2362 565 1971 134 1376 134 
C 1082 134 819 231 627 411 
C 474 553 390 701 269 1048 
L 96 984 
C 230 591 282 359 320 38 
C 659 -77 941 -128 1178 -128 
C 1690 -128 2278 160 2630 591 
C 2848 855 2957 1139 2957 1441 
C 2957 1750 2829 2021 2598 2182 
C 2438 2297 2291 2348 1971 2406 
C 2483 2801 2675 3094 2675 3470 
C 2675 4038 2202 4416 1491 4416 
C 1056 4416 768 4294 461 3987 
L 275 3196 
z
" id="URWPalladioL-Roma-33" transform="scale(0.015625)"/>
      </defs>
      <use transform="scale(0.996264)" xlink:href="#URWPalladioL-Ital-79"/>
      <use transform="translate(52.303815 0)scale(1.038107)" xlink:href="#CMR10-5b"/>
      <use transform="translate(83.586514 0)scale(0.996264)" xlink:href="#URWPalladioL-Ital-6e"/>
      <use transform="translate(141.469474 0)scale(1.038107)" xlink:href="#CMR10-5d"/>
      <use transform="translate(200.426106 0)scale(1.038107)" xlink:href="#CMR10-3d"/>
      <use transform="translate(310.041735 0)scale(0.996264)" xlink:href="#URWPalladioL-Roma-63"/>
      <use transform="translate(354.275304 0)scale(0.996264)" xlink:href="#URWPalladioL-Roma-6f"/>
      <use transform="translate(408.670884 0)scale(0.996264)" xlink:href="#URWPalladioL-Roma-73"/>
      <use transform="translate(452.15765 0)scale(1.038107)" xlink:href="#CMR10-28"/>
      <use transform="translate(493.652055 0)scale(0.996264)" xlink:href="#URWPalladioL-Roma-32"/>
      <use transform="translate(544.710555 0)scale(0.996264)" xlink:href="#PazoMath-Italic-70"/>
      <use transform="translate(636.609236 0)scale(1.038107)" xlink:href="#CMSY10-1"/>
      <use transform="translate(686.018389 0)scale(0.996264)" xlink:href="#URWPalladioL-Roma-33"/>
      <use transform="translate(756.448642 0)scale(1.038107)" xlink:href="#CMSY10-1"/>
      <use transform="translate(807.103094 0)scale(0.996264)" xlink:href="#URWPalladioL-Ital-6e"/>
      <use transform="translate(864.986054 0)scale(0.996264)" xlink:href="#URWPalladioL-Roma-2f"/>
      <use transform="translate(940.801706 0)scale(0.996264)" xlink:href="#URWPalladioL-Ital-66"/>
      <use transform="translate(973.180286 -14.943915)scale(0.757155)" xlink:href="#URWPalladioL-Ital-73"/>
      <use transform="translate(1005.323482 0)scale(1.038107)" xlink:href="#CMR10-29"/>
     </g>
    </g>
   </g>
  </g>
 </g>
 <defs>
  <clipPath id="p6bce9e0b91">
   <rect height="110.078517" width="397.653414" x="41.145691" y="65.488557"/>
  </clipPath>
  <clipPath id="p3ac1c5951f">
   <rect height="110.078517" width="397.653414" x="41.145691" y="243.702629"/>
  </clipPath>
  <clipPath id="peb115bd3f4">
   <rect height="110.078517" width="397.653414" x="41.145691" y="421.916701"/>
  </clipPath>
 </defs>
</svg>
