<?xml version="1.0" encoding="utf-8" standalone="no"?>
<!DOCTYPE svg PUBLIC "-//W3C//DTD SVG 1.1//EN"
  "http://www.w3.org/Graphics/SVG/1.1/DTD/svg11.dtd">
<svg height="392.39952pt" version="1.1" viewBox="0 0 584.39952 392.39952" width="584.39952pt" xmlns="http://www.w3.org/2000/svg" xmlns:xlink="http://www.w3.org/1999/xlink">
 <metadata>
  <rdf:RDF xmlns:cc="http://creativecommons.org/ns#" xmlns:dc="http://purl.org/dc/elements/1.1/" xmlns:rdf="http://www.w3.org/1999/02/22-rdf-syntax-ns#">
   <cc:Work>
    <dc:type rdf:resource="http://purl.org/dc/dcmitype/StillImage"/>
    <dc:date>2020-11-24T13:56:30.031397</dc:date>
    <dc:format>image/svg+xml</dc:format>
    <dc:creator>
     <cc:Agent>
      <dc:title>Matplotlib v3.3.0rc1.post717+g6a40954ae, https://matplotlib.org/</dc:title>
     </cc:Agent>
    </dc:creator>
   </cc:Work>
  </rdf:RDF>
 </metadata>
 <defs>
  <style type="text/css">*{stroke-linecap:butt;stroke-linejoin:round;}</style>
 </defs>
 <g id="figure_1">
  <g id="patch_1">
   <path d="M 0 392.39952 
L 584.39952 392.39952 
L 584.39952 0 
L 0 0 
z
" style="fill:none;"/>
  </g>
  <g id="axes_1">
   <g id="patch_2">
    <path d="M 83.955172 166.768028 
L 563.251824 166.768028 
L 563.251824 23.179529 
L 83.955172 23.179529 
z
" style="fill:none;"/>
   </g>
   <g id="patch_3">
    <path clip-path="url(#p8bb0ae25f9)" d="M 203.779335 166.768028 
L 203.779335 23.179529 
L 5368.200756 23.179529 
L 5368.200756 166.768028 
z
" style="fill:#dc2830;opacity:0.1;stroke:#dc2830;stroke-linejoin:miter;stroke-width:0.5;"/>
   </g>
   <g id="matplotlib.axis_1">
    <g id="xtick_1">
     <g id="line2d_1">
      <path clip-path="url(#p8bb0ae25f9)" d="M 83.955172 166.768028 
L 83.955172 23.179529 
" style="fill:none;stroke:#000000;stroke-linecap:square;stroke-opacity:0.2;stroke-width:0.5;"/>
     </g>
     <g id="line2d_2">
      <defs>
       <path d="M 0 0 
L 0 3.5 
" id="m1366bfc1af" style="stroke:#000000;stroke-opacity:0.2;stroke-width:0.8;"/>
      </defs>
      <g>
       <use style="fill-opacity:0.2;stroke:#000000;stroke-opacity:0.2;stroke-width:0.8;" x="83.955172" xlink:href="#m1366bfc1af" y="166.768028"/>
      </g>
     </g>
    </g>
    <g id="xtick_2">
     <g id="line2d_3">
      <path clip-path="url(#p8bb0ae25f9)" d="M 143.867254 166.768028 
L 143.867254 23.179529 
" style="fill:none;stroke:#000000;stroke-linecap:square;stroke-opacity:0.2;stroke-width:0.5;"/>
     </g>
     <g id="line2d_4">
      <g>
       <use style="fill-opacity:0.2;stroke:#000000;stroke-opacity:0.2;stroke-width:0.8;" x="143.867254" xlink:href="#m1366bfc1af" y="166.768028"/>
      </g>
     </g>
    </g>
    <g id="xtick_3">
     <g id="line2d_5">
      <path clip-path="url(#p8bb0ae25f9)" d="M 203.779335 166.768028 
L 203.779335 23.179529 
" style="fill:none;stroke:#000000;stroke-linecap:square;stroke-opacity:0.2;stroke-width:0.5;"/>
     </g>
     <g id="line2d_6">
      <g>
       <use style="fill-opacity:0.2;stroke:#000000;stroke-opacity:0.2;stroke-width:0.8;" x="203.779335" xlink:href="#m1366bfc1af" y="166.768028"/>
      </g>
     </g>
    </g>
    <g id="xtick_4">
     <g id="line2d_7">
      <path clip-path="url(#p8bb0ae25f9)" d="M 263.691417 166.768028 
L 263.691417 23.179529 
" style="fill:none;stroke:#000000;stroke-linecap:square;stroke-opacity:0.2;stroke-width:0.5;"/>
     </g>
     <g id="line2d_8">
      <g>
       <use style="fill-opacity:0.2;stroke:#000000;stroke-opacity:0.2;stroke-width:0.8;" x="263.691417" xlink:href="#m1366bfc1af" y="166.768028"/>
      </g>
     </g>
    </g>
    <g id="xtick_5">
     <g id="line2d_9">
      <path clip-path="url(#p8bb0ae25f9)" d="M 323.603498 166.768028 
L 323.603498 23.179529 
" style="fill:none;stroke:#000000;stroke-linecap:square;stroke-opacity:0.2;stroke-width:0.5;"/>
     </g>
     <g id="line2d_10">
      <g>
       <use style="fill-opacity:0.2;stroke:#000000;stroke-opacity:0.2;stroke-width:0.8;" x="323.603498" xlink:href="#m1366bfc1af" y="166.768028"/>
      </g>
     </g>
    </g>
    <g id="xtick_6">
     <g id="line2d_11">
      <path clip-path="url(#p8bb0ae25f9)" d="M 383.51558 166.768028 
L 383.51558 23.179529 
" style="fill:none;stroke:#000000;stroke-linecap:square;stroke-opacity:0.2;stroke-width:0.5;"/>
     </g>
     <g id="line2d_12">
      <g>
       <use style="fill-opacity:0.2;stroke:#000000;stroke-opacity:0.2;stroke-width:0.8;" x="383.51558" xlink:href="#m1366bfc1af" y="166.768028"/>
      </g>
     </g>
    </g>
    <g id="xtick_7">
     <g id="line2d_13">
      <path clip-path="url(#p8bb0ae25f9)" d="M 443.427661 166.768028 
L 443.427661 23.179529 
" style="fill:none;stroke:#000000;stroke-linecap:square;stroke-opacity:0.2;stroke-width:0.5;"/>
     </g>
     <g id="line2d_14">
      <g>
       <use style="fill-opacity:0.2;stroke:#000000;stroke-opacity:0.2;stroke-width:0.8;" x="443.427661" xlink:href="#m1366bfc1af" y="166.768028"/>
      </g>
     </g>
    </g>
    <g id="xtick_8">
     <g id="line2d_15">
      <path clip-path="url(#p8bb0ae25f9)" d="M 503.339742 166.768028 
L 503.339742 23.179529 
" style="fill:none;stroke:#000000;stroke-linecap:square;stroke-opacity:0.2;stroke-width:0.5;"/>
     </g>
     <g id="line2d_16">
      <g>
       <use style="fill-opacity:0.2;stroke:#000000;stroke-opacity:0.2;stroke-width:0.8;" x="503.339742" xlink:href="#m1366bfc1af" y="166.768028"/>
      </g>
     </g>
    </g>
    <g id="xtick_9">
     <g id="line2d_17">
      <path clip-path="url(#p8bb0ae25f9)" d="M 563.251824 166.768028 
L 563.251824 23.179529 
" style="fill:none;stroke:#000000;stroke-linecap:square;stroke-opacity:0.2;stroke-width:0.5;"/>
     </g>
     <g id="line2d_18">
      <g>
       <use style="fill-opacity:0.2;stroke:#000000;stroke-opacity:0.2;stroke-width:0.8;" x="563.251824" xlink:href="#m1366bfc1af" y="166.768028"/>
      </g>
     </g>
    </g>
   </g>
   <g id="matplotlib.axis_2">
    <g id="ytick_1">
     <g id="line2d_19">
      <path clip-path="url(#p8bb0ae25f9)" d="M 83.955172 33.767786 
L 563.251824 33.767786 
" style="fill:none;stroke:#000000;stroke-linecap:square;stroke-opacity:0.2;stroke-width:0.5;"/>
     </g>
     <g id="line2d_20">
      <defs>
       <path d="M 0 0 
L -3.5 0 
" id="m94b135939c" style="stroke:#000000;stroke-opacity:0.2;stroke-width:0.8;"/>
      </defs>
      <g>
       <use style="fill-opacity:0.2;stroke:#000000;stroke-opacity:0.2;stroke-width:0.8;" x="83.955172" xlink:href="#m94b135939c" y="33.767786"/>
      </g>
     </g>
     <g id="text_1">
      <!-- $\mathdefault{0}$ -->
      <g transform="translate(61.481324 38.75755)scale(0.14 -0.14)">
       <defs>
        <path d="M 1683 4416 
C 691 4416 186 3628 186 2077 
C 186 1326 320 680 544 366 
C 768 51 1126 -128 1523 -128 
C 2490 -128 2976 705 2976 2346 
C 2976 3749 2560 4416 1683 4416 
z
M 1568 4192 
C 2189 4192 2438 3564 2438 2025 
C 2438 661 2195 96 1606 96 
C 986 96 723 744 723 2308 
C 723 3660 960 4192 1568 4192 
z
" id="URWPalladioL-Roma-30" transform="scale(0.015625)"/>
       </defs>
       <use transform="scale(0.996264)" xlink:href="#URWPalladioL-Roma-30"/>
      </g>
     </g>
    </g>
    <g id="ytick_2">
     <g id="line2d_21">
      <path clip-path="url(#p8bb0ae25f9)" d="M 83.955172 76.352683 
L 563.251824 76.352683 
" style="fill:none;stroke:#000000;stroke-linecap:square;stroke-opacity:0.2;stroke-width:0.5;"/>
     </g>
     <g id="line2d_22">
      <g>
       <use style="fill-opacity:0.2;stroke:#000000;stroke-opacity:0.2;stroke-width:0.8;" x="83.955172" xlink:href="#m94b135939c" y="76.352683"/>
      </g>
     </g>
     <g id="text_2">
      <!-- $\mathdefault{−40}$ -->
      <g transform="translate(43.035633 81.342447)scale(0.14 -0.14)">
       <defs>
        <path d="M 4218 1472 
C 4326 1472 4442 1472 4442 1600 
C 4442 1728 4326 1728 4218 1728 
L 755 1728 
C 646 1728 531 1728 531 1600 
C 531 1472 646 1472 755 1472 
z
" id="CMSY10-0" transform="scale(0.015625)"/>
        <path d="M 1792 1152 
L 1792 673 
C 1792 289 1722 199 1408 199 
L 1011 199 
L 1011 0 
C 1862 0 1862 0 2016 0 
C 2170 0 2170 0 3021 0 
L 3021 199 
L 2714 199 
C 2400 199 2330 282 2330 669 
L 2330 1152 
C 2707 1152 2842 1152 3021 1133 
L 3021 1588 
C 2720 1563 2598 1563 2502 1563 
L 2483 1563 
L 2330 1563 
L 2330 2457 
C 2330 3600 2342 4152 2374 4416 
L 2298 4448 
L 1824 4275 
L 13 1299 
L 83 1152 
z
M 1792 1563 
L 416 1563 
L 1792 3826 
z
" id="URWPalladioL-Roma-34" transform="scale(0.015625)"/>
       </defs>
       <use transform="scale(1.038107)" xlink:href="#CMSY10-0"/>
       <use transform="translate(81.941696 0)scale(0.996264)" xlink:href="#URWPalladioL-Roma-34"/>
       <use transform="translate(131.754897 0)scale(0.996264)" xlink:href="#URWPalladioL-Roma-30"/>
      </g>
     </g>
    </g>
    <g id="ytick_3">
     <g id="line2d_23">
      <path clip-path="url(#p8bb0ae25f9)" d="M 83.955172 118.93758 
L 563.251824 118.93758 
" style="fill:none;stroke:#000000;stroke-linecap:square;stroke-opacity:0.2;stroke-width:0.5;"/>
     </g>
     <g id="line2d_24">
      <g>
       <use style="fill-opacity:0.2;stroke:#000000;stroke-opacity:0.2;stroke-width:0.8;" x="83.955172" xlink:href="#m94b135939c" y="118.93758"/>
      </g>
     </g>
     <g id="text_3">
      <!-- $\mathdefault{−80}$ -->
      <g transform="translate(43.035633 123.927344)scale(0.14 -0.14)">
       <defs>
        <path d="M 1075 2211 
C 813 2090 704 2019 563 1884 
C 320 1641 192 1352 192 1019 
C 192 359 723 -128 1446 -128 
C 2278 -128 2970 526 2970 1320 
C 2970 1833 2733 2109 2003 2442 
C 2586 2840 2790 3109 2790 3493 
C 2790 4044 2336 4416 1658 4416 
C 896 4416 339 3929 339 3257 
C 339 2821 512 2577 1075 2211 
z
M 1818 1891 
C 2221 1711 2464 1397 2464 1052 
C 2464 513 2061 90 1542 90 
C 998 90 646 475 646 1071 
C 646 1538 832 1833 1306 2122 
z
M 1427 2712 
C 1024 2910 819 3167 819 3487 
C 819 3910 1126 4198 1581 4198 
C 2048 4198 2355 3891 2355 3422 
C 2355 3058 2195 2808 1779 2538 
z
" id="URWPalladioL-Roma-38" transform="scale(0.015625)"/>
       </defs>
       <use transform="scale(1.038107)" xlink:href="#CMSY10-0"/>
       <use transform="translate(81.941696 0)scale(0.996264)" xlink:href="#URWPalladioL-Roma-38"/>
       <use transform="translate(131.754897 0)scale(0.996264)" xlink:href="#URWPalladioL-Roma-30"/>
      </g>
     </g>
    </g>
    <g id="ytick_4">
     <g id="line2d_25">
      <path clip-path="url(#p8bb0ae25f9)" d="M 83.955172 161.522477 
L 563.251824 161.522477 
" style="fill:none;stroke:#000000;stroke-linecap:square;stroke-opacity:0.2;stroke-width:0.5;"/>
     </g>
     <g id="line2d_26">
      <g>
       <use style="fill-opacity:0.2;stroke:#000000;stroke-opacity:0.2;stroke-width:0.8;" x="83.955172" xlink:href="#m94b135939c" y="161.522477"/>
      </g>
     </g>
     <g id="text_4">
      <!-- $\mathdefault{−120}$ -->
      <g transform="translate(36.061785 166.512241)scale(0.14 -0.14)">
       <defs>
        <path d="M 429 3584 
L 493 3584 
L 1318 3956 
C 1325 3962 1331 3962 1338 3962 
C 1376 3962 1389 3905 1389 3751 
L 1389 613 
C 1389 276 1318 205 973 205 
L 614 205 
L 614 0 
C 1600 0 1600 0 1670 0 
C 1754 0 1894 0 2112 0 
C 2189 0 2413 0 2675 0 
L 2675 205 
L 2342 205 
C 1990 205 1926 276 1926 612 
L 1926 4443 
L 1837 4475 
C 1421 4257 966 4065 384 3860 
z
" id="URWPalladioL-Roma-31" transform="scale(0.015625)"/>
        <path d="M 102 160 
L 102 0 
C 1299 0 1299 0 1530 0 
C 1760 0 1760 0 2995 0 
C 2982 125 2982 186 2982 269 
C 2982 348 2982 407 2995 539 
C 2259 539 1965 539 781 539 
L 1946 1761 
C 2566 2414 2758 2763 2758 3238 
C 2758 3966 2259 4416 1446 4416 
C 986 4416 672 4288 358 3969 
L 250 3099 
L 435 3099 
L 518 3393 
C 621 3763 851 3923 1280 3923 
C 1830 3923 2182 3577 2182 3035 
C 2182 2555 1914 2083 1190 1316 
z
" id="URWPalladioL-Roma-32" transform="scale(0.015625)"/>
       </defs>
       <use transform="scale(1.038107)" xlink:href="#CMSY10-0"/>
       <use transform="translate(81.941696 0)scale(0.996264)" xlink:href="#URWPalladioL-Roma-31"/>
       <use transform="translate(131.754897 0)scale(0.996264)" xlink:href="#URWPalladioL-Roma-32"/>
       <use transform="translate(181.568097 0)scale(0.996264)" xlink:href="#URWPalladioL-Roma-30"/>
      </g>
     </g>
    </g>
    <g id="text_5">
     <!-- $|H|$ [dB] -->
     <g transform="translate(28.690501 116.621527)rotate(-90)scale(0.12 -0.12)">
      <defs>
       <path d="M 1018 4570 
C 1018 4685 1018 4800 890 4800 
C 762 4800 762 4685 762 4570 
L 762 -1370 
C 762 -1485 762 -1600 890 -1600 
C 1018 -1600 1018 -1485 1018 -1370 
z
" id="CMSY10-6a" transform="scale(0.015625)"/>
       <path d="M 1414 2457 
L 1683 3912 
C 1728 4161 1773 4199 2010 4219 
L 2278 4238 
L 2298 4416 
L 2144 4416 
L 1568 4416 
C 1466 4416 1350 4416 1075 4416 
L 666 4416 
L 646 4238 
L 947 4238 
C 1101 4238 1171 4187 1171 4072 
C 1171 3983 1146 3784 1114 3587 
L 640 817 
C 531 229 525 223 269 197 
L 6 178 
L -19 0 
L 250 0 
C 557 0 704 0 826 0 
L 1446 0 
L 1613 0 
L 1632 179 
L 1318 179 
C 1146 192 1088 237 1088 372 
C 1088 429 1094 474 1114 596 
L 1382 2176 
L 1773 2176 
C 2170 2176 2438 2176 2560 2176 
C 2682 2176 2944 2176 3347 2176 
L 3738 2176 
L 3482 800 
C 3424 486 3379 308 3347 269 
C 3322 218 3251 192 3110 179 
L 2790 179 
L 2765 0 
L 3123 0 
C 3405 0 3597 0 3667 0 
C 3770 0 3968 0 4243 0 
L 4512 0 
L 4531 179 
L 4160 179 
C 3994 179 3930 230 3930 365 
C 3930 422 3936 479 3955 588 
L 4544 3912 
C 4589 4160 4627 4192 4870 4218 
L 5101 4237 
L 5120 4416 
L 5018 4416 
L 4435 4416 
C 4339 4416 4205 4416 3923 4416 
L 3520 4416 
L 3501 4238 
L 3808 4238 
C 3962 4238 4032 4186 4032 4070 
C 4032 3980 4006 3773 3974 3580 
L 3782 2457 
z
" id="URWPalladioL-Ital-48" transform="scale(0.015625)"/>
       <path d="M 563 -1152 
C 1018 -1152 1030 -1152 1184 -1152 
C 1338 -1152 1370 -1152 1805 -1152 
L 1843 -1120 
L 1843 -953 
L 1818 -921 
L 1574 -921 
C 1402 -921 1261 -882 1184 -818 
C 1126 -760 1107 -671 1107 -459 
C 1107 -453 1107 -318 1101 -125 
L 1101 112 
L 1101 3409 
L 1101 3646 
C 1107 3826 1107 3967 1107 3973 
C 1107 4185 1126 4281 1184 4339 
C 1261 4403 1402 4441 1574 4441 
L 1818 4441 
L 1843 4473 
L 1843 4640 
L 1805 4672 
C 1357 4672 1338 4672 1184 4672 
C 1037 4672 1005 4672 563 4672 
L 506 4595 
C 544 4435 557 4223 557 3730 
C 557 3633 557 3556 563 3492 
L 563 3409 
L 563 112 
L 563 28 
C 557 -74 557 -81 557 -190 
L 557 -260 
C 557 -696 544 -876 506 -1075 
z
" id="URWPalladioL-Roma-5b" transform="scale(0.015625)"/>
       <path d="M 2637 2802 
C 2278 2956 2099 3008 1875 3008 
C 1702 3008 1549 2969 1389 2887 
L 826 2593 
C 461 2401 224 1935 224 1392 
C 224 881 397 460 710 204 
C 928 19 1229 -64 1645 -64 
C 1773 -64 1920 -38 1952 -13 
L 2662 583 
L 2630 -7 
C 2944 -7 3046 -7 3123 -7 
C 3174 -7 3264 -7 3398 -7 
C 3443 -7 3571 -7 3706 -7 
L 3706 192 
L 3411 192 
C 3194 192 3174 237 3174 643 
L 3174 4607 
L 3117 4659 
C 2835 4550 2624 4498 2118 4421 
L 2118 4242 
L 2477 4242 
C 2592 4242 2637 4171 2637 3978 
z
M 2637 1424 
C 2637 1009 2624 946 2541 799 
C 2362 499 2048 302 1747 302 
C 1184 302 781 844 781 1603 
C 781 2298 1126 2706 1702 2706 
C 1946 2706 2202 2623 2426 2470 
C 2560 2381 2637 2298 2637 2246 
z
" id="URWPalladioL-Roma-64" transform="scale(0.015625)"/>
       <path d="M 2163 4416 
C 1274 4416 1274 4416 1178 4416 
C 1056 4416 1056 4416 166 4416 
L 166 4236 
L 397 4217 
C 698 4191 723 4146 723 3643 
L 723 619 
C 723 384 672 243 582 205 
L 416 141 
L 416 0 
C 858 0 992 0 1114 0 
C 1184 0 1254 0 1331 0 
C 1843 0 1843 0 1907 0 
C 2374 0 2797 114 3085 324 
C 3462 590 3686 1022 3686 1467 
C 3686 1791 3558 2051 3315 2223 
C 3072 2401 2854 2458 2362 2496 
C 2675 2559 2822 2617 3002 2738 
C 3309 2947 3469 3221 3469 3552 
C 3469 4111 3066 4416 2323 4416 
z
M 1331 2323 
C 1581 2323 1638 2323 1760 2323 
C 2624 2323 3027 2013 3027 1335 
C 3027 662 2586 263 1824 263 
C 1638 263 1491 276 1331 314 
z
M 1331 4121 
C 1498 4159 1645 4172 1850 4172 
C 2534 4172 2835 3942 2835 3414 
C 2835 2859 2451 2560 1722 2560 
C 1613 2560 1530 2560 1331 2560 
z
" id="URWPalladioL-Roma-42" transform="scale(0.015625)"/>
       <path d="M 1568 4672 
C 1114 4672 1094 4672 947 4672 
C 794 4672 762 4672 326 4672 
L 288 4640 
L 288 4473 
L 314 4441 
L 557 4441 
C 730 4441 864 4403 941 4339 
C 1005 4281 1024 4191 1024 3973 
C 1024 3954 1024 3826 1030 3646 
L 1030 3409 
L 1030 112 
L 1030 -125 
C 1024 -311 1024 -427 1024 -446 
C 1024 -664 1005 -760 941 -818 
C 864 -882 730 -921 557 -921 
L 314 -921 
L 288 -953 
L 288 -1120 
L 326 -1152 
C 774 -1152 787 -1152 947 -1152 
C 1094 -1152 1126 -1152 1568 -1152 
L 1626 -1075 
C 1587 -921 1581 -722 1574 -228 
C 1574 -138 1574 -55 1568 28 
L 1568 112 
L 1568 3409 
L 1568 3492 
C 1574 3563 1574 3646 1574 3736 
C 1574 4230 1587 4441 1626 4595 
z
" id="URWPalladioL-Roma-5d" transform="scale(0.015625)"/>
      </defs>
      <use transform="scale(1.038107)" xlink:href="#CMSY10-6a"/>
      <use transform="translate(35.068521 0)scale(0.996264)" xlink:href="#URWPalladioL-Ital-48"/>
      <use transform="translate(117.758403 0)scale(1.038107)" xlink:href="#CMSY10-6a"/>
      <use transform="translate(172.702403 0)scale(0.996264)" xlink:href="#URWPalladioL-Roma-5b"/>
      <use transform="translate(205.877632 0)scale(0.996264)" xlink:href="#URWPalladioL-Roma-64"/>
      <use transform="translate(266.749263 0)scale(0.996264)" xlink:href="#URWPalladioL-Roma-42"/>
      <use transform="translate(327.620894 0)scale(0.996264)" xlink:href="#URWPalladioL-Roma-5d"/>
     </g>
    </g>
   </g>
   <g id="line2d_27">
    <path clip-path="url(#p8bb0ae25f9)" d="M 83.955172 34.358404 
L 85.245271 35.63575 
L 86.53537 35.446998 
L 87.825469 35.852944 
L 89.115568 37.490692 
L 90.405667 31.075676 
L 91.695766 35.660939 
L 92.985865 31.535339 
L 94.275964 34.470923 
L 95.566063 33.362917 
L 96.856162 38.526166 
L 98.146261 36.890023 
L 99.43636 33.216161 
L 100.72646 34.180297 
L 102.016559 36.20078 
L 103.306658 35.419577 
L 104.596757 35.469983 
L 105.886856 32.331801 
L 107.176955 32.81707 
L 108.467054 34.593685 
L 109.757153 33.779135 
L 112.337351 33.531052 
L 113.62745 33.75024 
L 114.917549 34.444677 
L 116.207648 34.454278 
L 118.787846 35.60139 
L 120.077945 35.871317 
L 121.368044 34.789133 
L 122.658143 38.402051 
L 123.948242 34.776865 
L 125.238341 37.338689 
L 126.52844 37.967655 
L 127.818539 37.233621 
L 129.108638 39.795892 
L 131.688836 39.398336 
L 132.978935 34.425047 
L 134.269034 35.658123 
L 135.559133 42.499024 
L 136.849232 39.159631 
L 138.139331 39.475258 
L 139.42943 35.429353 
L 140.719529 38.900866 
L 142.009628 38.231084 
L 143.299727 40.913473 
L 144.589826 40.782635 
L 145.879925 39.186607 
L 147.170024 36.165591 
L 148.460123 38.644015 
L 149.750222 42.098369 
L 151.040321 40.047279 
L 152.33042 41.180526 
L 153.620519 35.361361 
L 154.910618 42.366842 
L 156.200717 40.259138 
L 157.490816 34.311933 
L 158.780915 35.25617 
L 160.071014 40.726902 
L 161.361113 37.818936 
L 162.651212 41.390164 
L 163.941311 36.313035 
L 165.23141 36.084439 
L 166.52151 39.264294 
L 167.811609 37.440782 
L 169.101708 40.192382 
L 170.391807 40.654996 
L 171.681906 36.519615 
L 172.972005 35.103223 
L 174.262104 34.601306 
L 175.552203 40.986325 
L 176.842302 45.539237 
L 178.132401 41.22218 
L 179.4225 42.307125 
L 180.712599 40.877894 
L 182.002698 33.223248 
L 183.292797 48.59414 
L 184.582896 45.909422 
L 185.872995 46.1658 
L 187.163094 44.081799 
L 188.453193 52.188847 
L 189.743292 48.488031 
L 191.033391 57.335186 
L 192.32349 43.965438 
L 193.613589 55.250529 
L 194.903688 47.73158 
L 196.193787 59.448823 
L 197.483886 29.706279 
L 198.773985 52.131602 
L 200.064084 65.121309 
L 201.354183 61.432237 
L 202.644282 69.604509 
L 203.934381 68.813129 
L 205.22448 63.881056 
L 206.514579 68.220356 
L 207.804678 82.158933 
L 209.094777 85.446536 
L 210.384876 90.340943 
L 211.674975 98.019926 
L 214.255173 125.251875 
L 215.545272 122.512068 
L 216.835371 127.443383 
L 218.12547 138.63747 
L 219.415569 136.544811 
L 220.705668 125.794606 
L 221.995767 120.104167 
L 223.285866 120.075588 
L 224.575965 118.123799 
L 225.866064 119.032153 
L 227.156163 119.268526 
L 228.446262 120.065853 
L 231.02646 124.401983 
L 232.316559 126.920348 
L 233.606659 131.763808 
L 234.896758 139.404653 
L 236.186857 142.077601 
L 237.476956 133.255481 
L 238.767055 128.967298 
L 240.057154 126.14132 
L 241.347253 124.236719 
L 242.637352 122.895151 
L 243.927451 121.802077 
L 245.21755 120.92575 
L 247.797748 119.836321 
L 250.377946 119.206351 
L 252.958144 118.900865 
L 255.538342 118.895686 
L 258.11854 119.108481 
L 260.698738 119.498873 
L 263.278936 120.071743 
L 265.859134 120.815631 
L 268.439332 121.719769 
L 271.01953 122.812279 
L 273.599728 124.132674 
L 276.179926 125.69179 
L 278.760124 127.595798 
L 280.050223 128.707529 
L 281.340322 129.96972 
L 282.630421 131.430034 
L 283.92052 133.134873 
L 285.210619 135.209657 
L 286.500718 137.827416 
L 287.790817 141.440799 
L 289.080916 147.320696 
L 290.371015 158.466153 
L 291.661114 145.989695 
L 292.951213 140.936886 
L 294.241312 137.764005 
L 295.531411 135.452301 
L 296.82151 133.640827 
L 298.111609 132.168445 
L 299.401709 130.925033 
L 301.981907 128.929763 
L 304.562105 127.373195 
L 307.142303 126.118569 
L 309.722501 125.079052 
L 313.592798 123.816632 
L 317.463095 122.815995 
L 322.623491 121.774283 
L 327.783887 120.978808 
L 334.234382 120.236531 
L 341.974976 119.61708 
L 351.005669 119.165377 
L 361.326461 118.906821 
L 372.937353 118.854305 
L 385.838343 119.012897 
L 401.319531 119.426333 
L 419.380917 120.140808 
L 438.732403 121.125096 
L 459.373987 122.388751 
L 480.015571 123.864228 
L 499.367057 125.455231 
L 517.428443 127.156126 
L 532.909631 128.824587 
L 547.10072 130.580001 
L 558.711611 132.232981 
L 563.872008 133.048836 
L 563.872008 133.048836 
" style="fill:none;stroke:#0271ae;stroke-linecap:square;stroke-width:3;"/>
   </g>
   <g id="line2d_28">
    <path clip-path="url(#p8bb0ae25f9)" d="M 203.779335 166.768028 
L 203.779335 23.179529 
" style="fill:none;stroke:#dc2830;stroke-linecap:square;stroke-width:3;"/>
   </g>
   <g id="text_6">
    <!-- Frequency response -->
    <g transform="translate(262.248238 17.179529)scale(0.14 -0.14)">
     <defs>
      <path d="M 1382 2100 
C 1562 2112 1754 2112 2042 2112 
C 2515 2112 2688 2094 2803 2040 
L 2854 1890 
L 2886 1536 
L 3078 1536 
C 3059 2132 3059 2132 3059 2247 
C 3059 2350 3059 2350 3078 2991 
L 2886 2991 
L 2854 2642 
C 2848 2581 2829 2521 2803 2467 
C 2688 2414 2509 2394 2086 2394 
C 1818 2394 1600 2394 1382 2394 
L 1382 4117 
C 1574 4160 1690 4160 2067 4160 
C 2374 4160 2733 4124 2931 4076 
C 3085 4039 3104 4008 3104 3868 
L 3104 3465 
L 3328 3465 
C 3328 3843 3360 4146 3430 4423 
C 3117 4423 2925 4423 2650 4423 
L 1965 4423 
C 1651 4423 1427 4423 1267 4423 
C 1082 4423 1082 4423 141 4423 
L 141 4224 
L 448 4224 
C 742 4224 774 4172 774 3663 
L 774 766 
C 774 256 742 205 448 205 
L 141 205 
L 141 0 
C 518 0 742 0 1075 0 
C 1408 0 1638 0 2016 0 
L 2016 205 
L 1709 205 
C 1414 205 1382 256 1382 766 
z
" id="URWPalladioL-Roma-46" transform="scale(0.015625)"/>
      <path d="M 147 2565 
L 384 2565 
C 640 2565 666 2520 666 2094 
L 666 643 
C 666 237 646 192 429 192 
L 134 192 
L 134 -7 
C 595 -7 762 -7 922 -7 
C 1050 -7 1050 -7 1837 -7 
L 1837 192 
L 1504 192 
C 1216 192 1203 211 1203 638 
L 1203 1751 
C 1203 2139 1459 2463 1773 2463 
C 1965 2463 2099 2373 2202 2169 
L 2336 2169 
L 2394 2937 
C 2323 2982 2208 3008 2093 3008 
C 1901 3008 1696 2905 1562 2745 
L 1203 2322 
L 1203 2982 
L 1146 3008 
C 819 2873 486 2783 147 2745 
z
" id="URWPalladioL-Roma-72" transform="scale(0.015625)"/>
      <path d="M 2797 447 
L 2714 511 
C 2304 269 2157 212 1882 212 
C 1466 212 1120 398 941 711 
C 819 921 774 1101 762 1472 
L 1696 1472 
C 2138 1472 2413 1472 2854 1544 
C 2861 1634 2867 1693 2867 1771 
C 2867 2520 2394 3008 1677 3008 
C 1440 3008 1165 2924 902 2770 
C 378 2469 166 2071 166 1404 
C 166 1000 262 654 435 410 
C 691 71 1120 -128 1600 -128 
C 1837 -128 2074 -77 2336 37 
C 2509 108 2643 191 2669 230 
z
M 2298 1690 
C 1965 1690 1811 1690 1581 1690 
C 1286 1690 1120 1690 774 1722 
C 774 2027 800 2169 883 2337 
C 1018 2622 1293 2796 1600 2796 
C 1811 2796 1978 2711 2093 2534 
C 2234 2319 2278 2129 2298 1690 
z
" id="URWPalladioL-Roma-65" transform="scale(0.015625)"/>
      <path d="M 2515 436 
L 2515 -1138 
C 2515 -1547 2490 -1593 2278 -1593 
L 1907 -1593 
L 1907 -1792 
C 2650 -1792 2650 -1792 2797 -1792 
C 2950 -1792 3130 -1792 3584 -1792 
L 3584 -1593 
L 3290 -1593 
C 3072 -1593 3053 -1548 3053 -1143 
L 3053 2036 
C 3053 2435 3091 2680 3200 2924 
L 3078 2995 
L 2765 2796 
C 2438 2943 2163 3008 1888 3008 
C 1702 3008 1478 2956 1382 2899 
L 845 2554 
C 435 2292 224 1871 224 1315 
C 224 479 730 -64 1523 -64 
C 1658 -64 1766 -38 1850 13 
z
M 2515 781 
C 2515 691 2362 525 2189 429 
C 2035 346 1888 302 1734 302 
C 1171 302 781 824 781 1596 
C 781 2298 1139 2706 1754 2706 
C 2067 2706 2291 2630 2515 2445 
z
" id="URWPalladioL-Roma-71" transform="scale(0.015625)"/>
      <path d="M 3219 3009 
L 3162 3035 
C 2835 2900 2502 2810 2163 2772 
L 2163 2592 
L 2400 2592 
C 2656 2592 2682 2547 2682 2121 
L 2682 1070 
C 2682 928 2592 747 2445 599 
C 2266 418 2061 327 1811 327 
C 1587 327 1408 398 1306 521 
C 1216 624 1171 824 1171 1107 
L 1171 3009 
L 1114 3035 
C 787 2900 454 2810 115 2772 
L 115 2592 
L 352 2592 
C 608 2592 634 2547 634 2122 
L 634 1039 
C 634 587 672 387 787 227 
C 928 33 1171 -64 1536 -64 
C 1824 -64 2080 26 2253 186 
L 2682 585 
C 2682 401 2675 298 2656 0 
C 3085 0 3091 0 3187 0 
C 3277 0 3277 0 3718 0 
L 3718 186 
L 3456 212 
C 3238 212 3219 251 3219 664 
z
" id="URWPalladioL-Roma-75" transform="scale(0.015625)"/>
      <path d="M 2624 -7 
C 3014 -7 3021 -7 3130 -7 
C 3219 -7 3219 -7 3661 -7 
L 3661 179 
L 3398 205 
C 3181 205 3162 244 3162 654 
L 3162 1892 
C 3162 2642 2810 3008 2093 3008 
C 1856 3008 1722 2963 1587 2847 
L 1101 2424 
L 1101 2982 
L 1043 3008 
C 717 2873 384 2783 45 2745 
L 45 2565 
L 282 2565 
C 538 2565 563 2520 563 2094 
L 563 643 
C 563 237 544 192 326 192 
L 38 192 
L 38 -7 
C 474 -7 646 -7 832 -7 
C 1018 -7 1190 -7 1626 -7 
L 1626 192 
L 1338 192 
C 1120 192 1101 237 1101 643 
L 1101 2011 
C 1101 2300 1523 2616 1914 2616 
C 2342 2616 2624 2297 2624 1806 
z
" id="URWPalladioL-Roma-6e" transform="scale(0.015625)"/>
      <path d="M 2554 1994 
C 2554 2289 2586 2552 2643 2783 
C 2387 2937 2163 3008 1901 3008 
C 1594 3008 1235 2886 851 2642 
C 403 2360 166 1911 166 1347 
C 166 481 774 -128 1632 -128 
C 1965 -128 2445 -6 2509 90 
L 2643 295 
L 2579 391 
C 2342 263 2138 205 1907 205 
C 1197 205 730 757 730 1603 
C 730 2289 1050 2674 1626 2674 
C 1907 2674 2214 2546 2330 2386 
L 2374 1994 
z
" id="URWPalladioL-Roma-63" transform="scale(0.015625)"/>
      <path d="M 1901 564 
C 1760 808 1690 956 1574 1270 
L 1165 2347 
C 1126 2456 1101 2552 1101 2618 
C 1101 2710 1171 2764 1318 2764 
L 1562 2764 
L 1562 2944 
C 941 2944 941 2944 819 2944 
C 698 2944 698 2944 77 2944 
L 77 2777 
L 192 2764 
C 352 2745 429 2674 525 2451 
L 1222 775 
C 1402 340 1466 186 1581 -134 
L 1434 -524 
C 1229 -1062 979 -1362 736 -1362 
C 634 -1362 518 -1311 410 -1215 
L 326 -1215 
L 173 -1696 
C 294 -1760 397 -1792 518 -1792 
C 947 -1792 1222 -1562 1466 -1005 
L 2765 1990 
C 3021 2572 3142 2745 3302 2764 
L 3482 2777 
L 3482 2944 
C 2976 2944 2976 2944 2874 2944 
C 2771 2944 2771 2944 2266 2944 
L 2266 2777 
L 2432 2764 
C 2611 2751 2701 2694 2701 2604 
C 2701 2559 2688 2501 2662 2437 
z
" id="URWPalladioL-Roma-79" transform="scale(0.015625)"/>
      <path d="M 262 917 
C 262 475 243 282 192 26 
C 525 -83 774 -128 1069 -128 
C 1907 -128 2502 321 2502 949 
C 2502 1148 2445 1295 2323 1424 
C 2157 1584 1946 1661 1382 1770 
C 858 1873 685 2001 685 2296 
C 685 2616 909 2796 1299 2796 
C 1728 2796 2054 2572 2054 2270 
L 2054 2123 
L 2234 2123 
C 2240 2495 2246 2648 2266 2847 
C 1926 2963 1696 3008 1434 3008 
C 691 3008 237 2655 237 2078 
C 237 1770 378 1552 672 1417 
C 845 1340 1184 1238 1619 1141 
C 1907 1077 2029 943 2029 699 
C 2029 353 1709 109 1254 109 
C 787 109 454 333 454 654 
L 454 917 
z
" id="URWPalladioL-Roma-73" transform="scale(0.015625)"/>
      <path d="M 64 2565 
L 301 2565 
C 557 2565 582 2520 582 2095 
L 582 -1142 
C 582 -1548 563 -1593 346 -1593 
L 51 -1593 
L 51 -1792 
C 691 -1792 691 -1792 851 -1792 
C 1011 -1792 1011 -1792 1651 -1792 
L 1651 -1593 
L 1357 -1593 
C 1139 -1593 1120 -1547 1120 -1138 
L 1120 89 
C 1312 -26 1517 -71 1805 -71 
C 1990 -71 2157 -32 2259 32 
L 2989 505 
C 3245 672 3546 1330 3546 1740 
C 3546 2451 2957 3008 2214 3008 
C 1978 3008 1747 2943 1645 2847 
L 1120 2367 
L 1120 2982 
L 1062 3008 
C 736 2873 403 2783 64 2745 
z
M 1120 1964 
C 1120 2053 1152 2124 1235 2233 
C 1421 2469 1683 2591 2003 2591 
C 2605 2591 2989 2169 2989 1504 
C 2989 787 2560 256 1984 256 
C 1632 256 1370 372 1120 633 
z
" id="URWPalladioL-Roma-70" transform="scale(0.015625)"/>
      <path d="M 1786 3008 
C 851 3008 205 2347 205 1392 
C 205 487 774 -128 1600 -128 
C 2586 -128 3290 558 3290 1520 
C 3290 2386 2662 3008 1786 3008 
z
M 1670 2796 
C 2259 2796 2694 2155 2694 1283 
C 2694 545 2368 83 1850 83 
C 1222 83 800 699 800 1610 
C 800 2379 1107 2796 1670 2796 
z
" id="URWPalladioL-Roma-6f" transform="scale(0.015625)"/>
     </defs>
     <use transform="scale(0.996264)" xlink:href="#URWPalladioL-Roma-46"/>
     <use transform="translate(55.391677 0)scale(0.996264)" xlink:href="#URWPalladioL-Roma-72"/>
     <use transform="translate(92.950994 0)scale(0.996264)" xlink:href="#URWPalladioL-Roma-65"/>
     <use transform="translate(140.671289 0)scale(0.996264)" xlink:href="#URWPalladioL-Roma-71"/>
     <use transform="translate(196.461922 0)scale(0.996264)" xlink:href="#URWPalladioL-Roma-75"/>
     <use transform="translate(256.535657 0)scale(0.996264)" xlink:href="#URWPalladioL-Roma-65"/>
     <use transform="translate(304.255952 0)scale(0.996264)" xlink:href="#URWPalladioL-Roma-6e"/>
     <use transform="translate(362.238012 0)scale(0.996264)" xlink:href="#URWPalladioL-Roma-63"/>
     <use transform="translate(406.471581 0)scale(0.996264)" xlink:href="#URWPalladioL-Roma-79"/>
     <use transform="translate(486.769858 0)scale(0.996264)" xlink:href="#URWPalladioL-Roma-72"/>
     <use transform="translate(524.329176 0)scale(0.996264)" xlink:href="#URWPalladioL-Roma-65"/>
     <use transform="translate(572.049471 0)scale(0.996264)" xlink:href="#URWPalladioL-Roma-73"/>
     <use transform="translate(614.290937 0)scale(0.996264)" xlink:href="#URWPalladioL-Roma-70"/>
     <use transform="translate(674.165331 0)scale(0.996264)" xlink:href="#URWPalladioL-Roma-6f"/>
     <use transform="translate(728.560911 0)scale(0.996264)" xlink:href="#URWPalladioL-Roma-6e"/>
     <use transform="translate(786.542972 0)scale(0.996264)" xlink:href="#URWPalladioL-Roma-73"/>
     <use transform="translate(828.784438 0)scale(0.996264)" xlink:href="#URWPalladioL-Roma-65"/>
    </g>
   </g>
   <g id="legend_1">
    <g id="patch_4">
     <path d="M 446.052596 77.521499 
L 553.451824 77.521499 
Q 556.251824 77.521499 556.251824 74.721499 
L 556.251824 32.979529 
Q 556.251824 30.179529 553.451824 30.179529 
L 446.052596 30.179529 
Q 443.252596 30.179529 443.252596 32.979529 
L 443.252596 74.721499 
Q 443.252596 77.521499 446.052596 77.521499 
z
" style="fill:#ffffff;opacity:0.95;stroke:#cccccc;stroke-linejoin:miter;stroke-width:0.5;"/>
    </g>
    <g id="line2d_29">
     <path d="M 448.852596 41.517342 
L 462.852596 41.517342 
" style="fill:none;stroke:#0271ae;stroke-linecap:square;stroke-width:3;"/>
    </g>
    <g id="line2d_30"/>
    <g id="text_7">
     <!-- Elliptic filter -->
     <g transform="translate(474.052596 46.417342)scale(0.14 -0.14)">
      <defs>
       <path d="M 141 4224 
L 448 4224 
C 742 4224 774 4172 774 3665 
L 774 784 
C 774 276 749 231 448 205 
L 218 186 
L 218 0 
C 640 0 826 0 1005 0 
C 1037 0 1216 0 1459 0 
C 2349 0 2349 0 2490 0 
C 2688 0 2688 0 3558 0 
C 3558 382 3597 736 3661 1079 
L 3437 1079 
C 3424 972 3411 878 3405 852 
C 3366 564 3283 356 3194 323 
C 3059 276 2592 276 2016 276 
C 1683 276 1568 286 1382 315 
L 1382 2100 
C 1562 2112 1754 2112 2042 2112 
C 2515 2112 2688 2094 2803 2040 
L 2854 1890 
L 2886 1536 
L 3078 1536 
C 3059 2132 3059 2132 3059 2247 
C 3059 2350 3059 2350 3078 2991 
L 2886 2991 
L 2854 2642 
C 2848 2581 2829 2521 2803 2467 
C 2688 2414 2509 2394 2086 2394 
C 1818 2394 1600 2394 1382 2394 
L 1382 4117 
C 1581 4160 1690 4160 2131 4160 
C 2496 4160 2854 4130 3059 4076 
C 3213 4039 3232 4008 3232 3868 
L 3232 3465 
L 3456 3465 
C 3456 3843 3488 4146 3558 4423 
C 3245 4423 3046 4423 2765 4423 
C 2605 4423 2394 4423 2131 4423 
C 1728 4423 1453 4423 1280 4423 
C 1062 4423 774 4423 141 4423 
z
" id="URWPalladioL-Roma-45" transform="scale(0.015625)"/>
       <path d="M 147 4256 
L 506 4256 
C 621 4256 666 4185 666 3992 
L 666 651 
C 666 244 646 199 429 199 
L 134 199 
L 134 0 
C 774 0 774 0 934 0 
C 1094 0 1094 0 1734 0 
L 1734 199 
L 1440 199 
C 1222 199 1203 244 1203 650 
L 1203 4621 
L 1146 4673 
C 864 4564 653 4512 147 4435 
z
" id="URWPalladioL-Roma-6c" transform="scale(0.015625)"/>
       <path d="M 1203 2993 
L 1146 3019 
C 819 2884 486 2793 147 2755 
L 147 2576 
L 384 2576 
C 640 2576 666 2531 666 2105 
L 666 651 
C 666 244 646 199 429 199 
L 134 199 
L 134 0 
C 774 0 774 0 934 0 
C 1094 0 1094 0 1734 0 
L 1734 199 
L 1440 199 
C 1222 199 1203 244 1203 651 
z
M 909 4416 
C 717 4416 550 4249 550 4056 
C 550 3870 717 3704 902 3704 
C 1088 3704 1261 3870 1261 4056 
C 1261 4236 1088 4416 909 4416 
z
" id="URWPalladioL-Roma-69" transform="scale(0.015625)"/>
       <path d="M 627 2476 
L 627 619 
C 627 142 838 -64 1331 -64 
C 1478 -64 1632 -32 1670 13 
L 1978 353 
L 1894 463 
C 1734 372 1638 340 1517 340 
C 1267 340 1165 470 1165 788 
L 1165 2489 
L 1984 2489 
L 2042 2816 
L 1165 2816 
L 1165 3056 
C 1165 3321 1184 3547 1235 3951 
L 1158 4021 
C 1005 3925 813 3842 614 3778 
C 634 3585 640 3463 640 3271 
L 640 2822 
L 141 2598 
L 141 2476 
z
" id="URWPalladioL-Roma-74" transform="scale(0.015625)"/>
       <path d="M 2182 4603 
C 2048 4653 1971 4672 1888 4672 
C 1683 4672 1459 4563 1318 4404 
L 947 3985 
C 762 3775 678 3490 678 3070 
L 678 2803 
L 237 2604 
L 237 2476 
L 678 2476 
L 678 651 
C 678 244 659 199 442 199 
L 147 199 
L 147 0 
C 787 0 787 0 954 0 
C 1107 0 1286 0 1786 0 
L 1786 199 
L 1453 199 
C 1235 199 1216 245 1216 653 
L 1216 2489 
L 1946 2489 
L 1990 2816 
L 1216 2816 
L 1216 3350 
C 1216 4073 1299 4248 1664 4248 
C 1837 4248 1952 4204 2106 4071 
L 2182 4109 
z
M 3226 2981 
L 3168 3026 
C 2886 2886 2547 2797 2170 2752 
L 2170 2572 
L 2406 2572 
C 2662 2572 2688 2527 2688 2099 
L 2688 653 
C 2688 244 2669 199 2451 199 
L 2157 199 
L 2157 0 
C 2797 0 2797 0 2957 0 
C 3117 0 3117 0 3757 0 
L 3757 199 
L 3462 199 
C 3245 199 3226 244 3226 652 
z
M 2989 4416 
C 2797 4416 2630 4249 2630 4056 
C 2630 3870 2797 3704 2982 3704 
C 3168 3704 3341 3870 3341 4056 
C 3341 4236 3168 4416 2989 4416 
z
" id="URWPalladioL-Roma-2" transform="scale(0.015625)"/>
      </defs>
      <use transform="scale(0.996264)" xlink:href="#URWPalladioL-Roma-45"/>
      <use transform="translate(60.871631 0)scale(0.996264)" xlink:href="#URWPalladioL-Roma-6c"/>
      <use transform="translate(89.861992 0)scale(0.996264)" xlink:href="#URWPalladioL-Roma-6c"/>
      <use transform="translate(118.852354 0)scale(0.996264)" xlink:href="#URWPalladioL-Roma-69"/>
      <use transform="translate(147.842715 0)scale(0.996264)" xlink:href="#URWPalladioL-Roma-70"/>
      <use transform="translate(207.717109 0)scale(0.996264)" xlink:href="#URWPalladioL-Roma-74"/>
      <use transform="translate(240.194197 0)scale(0.996264)" xlink:href="#URWPalladioL-Roma-69"/>
      <use transform="translate(269.184558 0)scale(0.996264)" xlink:href="#URWPalladioL-Roma-63"/>
      <use transform="translate(338.324727 0)scale(0.996264)" xlink:href="#URWPalladioL-Roma-2"/>
      <use transform="translate(398.597985 0)scale(0.996264)" xlink:href="#URWPalladioL-Roma-6c"/>
      <use transform="translate(427.588347 0)scale(0.996264)" xlink:href="#URWPalladioL-Roma-74"/>
      <use transform="translate(460.065435 0)scale(0.996264)" xlink:href="#URWPalladioL-Roma-65"/>
      <use transform="translate(507.78573 0)scale(0.996264)" xlink:href="#URWPalladioL-Roma-72"/>
     </g>
    </g>
    <g id="line2d_31">
     <path d="M 448.852596 63.088327 
L 462.852596 63.088327 
" style="fill:none;stroke:#dc2830;stroke-linecap:square;stroke-width:3;"/>
    </g>
    <g id="line2d_32"/>
    <g id="text_8">
     <!-- $f_c = 500$ -->
     <g transform="translate(474.052596 67.988327)scale(0.14 -0.14)">
      <defs>
       <path d="M 1830 2472 
C 1856 2593 1901 2740 1939 2829 
L 1914 2873 
L 1869 2861 
C 1715 2822 1645 2816 1331 2816 
L 1229 2816 
L 1363 3530 
C 1466 4078 1645 4320 1939 4320 
C 2131 4320 2304 4224 2400 4071 
L 2464 4096 
C 2496 4198 2560 4397 2611 4525 
L 2643 4621 
C 2541 4666 2342 4704 2195 4704 
C 2125 4704 2022 4685 1971 4660 
C 1818 4590 1293 4201 1146 4047 
C 1005 3907 928 3716 858 3352 
L 762 2848 
C 499 2720 371 2669 211 2612 
L 179 2472 
L 698 2472 
L 640 2115 
C 448 872 211 -313 70 -753 
C -45 -1129 -237 -1326 -467 -1326 
C -614 -1326 -685 -1282 -800 -1141 
L -890 -1166 
C -915 -1313 -1005 -1620 -1037 -1677 
C -979 -1709 -883 -1728 -813 -1728 
C -550 -1728 -205 -1530 45 -1231 
C 435 -772 576 -326 1043 1911 
C 1062 1988 1114 2230 1165 2472 
z
" id="URWPalladioL-Ital-66" transform="scale(0.015625)"/>
       <path d="M 2189 2105 
L 2336 2105 
C 2387 2518 2432 2753 2490 2919 
C 2336 3014 2112 3072 1875 3072 
C 1587 3072 1114 2842 755 2518 
C 403 2207 160 1539 160 871 
C 160 260 429 -64 941 -64 
C 1286 -64 1594 63 1946 350 
L 2266 611 
L 2214 738 
L 2118 674 
C 1658 369 1414 261 1190 261 
C 832 261 646 515 646 1017 
C 646 1705 870 2365 1184 2607 
C 1318 2709 1472 2760 1670 2760 
C 1958 2760 2189 2638 2189 2486 
z
" id="URWPalladioL-Ital-63" transform="scale(0.015625)"/>
       <path d="M 4397 2048 
C 4493 2048 4614 2048 4614 2177 
C 4614 2305 4493 2305 4403 2305 
L 570 2305 
C 480 2305 358 2305 358 2177 
C 358 2048 480 2048 576 2048 
z
M 4403 832 
C 4493 832 4614 832 4614 961 
C 4614 1089 4493 1089 4397 1089 
L 576 1089 
C 480 1089 358 1089 358 961 
C 358 832 480 832 570 832 
z
" id="CMR10-3d" transform="scale(0.015625)"/>
       <path d="M 813 3877 
C 1638 3877 1997 3877 2765 3877 
L 2797 3907 
C 2784 4016 2784 4064 2784 4144 
C 2784 4229 2784 4277 2797 4386 
L 2765 4416 
C 2285 4416 1997 4416 1651 4416 
C 1299 4416 1018 4416 538 4416 
L 506 4403 
C 512 4011 518 3729 518 3523 
C 518 2977 499 2360 480 2077 
L 608 2038 
C 909 2341 1082 2432 1395 2432 
C 2010 2432 2394 1993 2394 1296 
C 2394 580 1984 160 1286 160 
C 941 160 621 277 531 444 
L 237 973 
L 83 883 
C 230 516 307 310 397 27 
C 576 -71 832 -128 1107 -128 
C 1536 -128 1990 59 2342 368 
C 2733 716 2938 1154 2938 1630 
C 2938 2359 2419 2874 1690 2874 
C 1382 2874 1152 2791 755 2554 
z
" id="URWPalladioL-Roma-35" transform="scale(0.015625)"/>
      </defs>
      <use transform="scale(0.996264)" xlink:href="#URWPalladioL-Ital-66"/>
      <use transform="translate(32.37858 -14.943915)scale(0.757155)" xlink:href="#URWPalladioL-Ital-63"/>
      <use transform="translate(93.557834 0)scale(1.038107)" xlink:href="#CMR10-3d"/>
      <use transform="translate(203.173463 0)scale(0.996264)" xlink:href="#URWPalladioL-Roma-35"/>
      <use transform="translate(252.986664 0)scale(0.996264)" xlink:href="#URWPalladioL-Roma-30"/>
      <use transform="translate(302.799864 0)scale(0.996264)" xlink:href="#URWPalladioL-Roma-30"/>
     </g>
    </g>
   </g>
  </g>
  <g id="axes_2">
   <g id="patch_5">
    <path d="M 83.955172 339.861659 
L 563.251824 339.861659 
L 563.251824 196.27316 
L 83.955172 196.27316 
z
" style="fill:none;"/>
   </g>
   <g id="patch_6">
    <path clip-path="url(#pf04dc29731)" d="M 203.779335 339.861659 
L 203.779335 196.27316 
L 5368.200756 196.27316 
L 5368.200756 339.861659 
z
" style="fill:#dc2830;opacity:0.1;stroke:#dc2830;stroke-linejoin:miter;stroke-width:0.5;"/>
   </g>
   <g id="matplotlib.axis_3">
    <g id="xtick_10">
     <g id="line2d_33">
      <path clip-path="url(#pf04dc29731)" d="M 83.955172 339.861659 
L 83.955172 196.27316 
" style="fill:none;stroke:#000000;stroke-linecap:square;stroke-opacity:0.2;stroke-width:0.5;"/>
     </g>
     <g id="line2d_34">
      <g>
       <use style="fill-opacity:0.2;stroke:#000000;stroke-opacity:0.2;stroke-width:0.8;" x="83.955172" xlink:href="#m1366bfc1af" y="339.861659"/>
      </g>
     </g>
     <g id="text_9">
      <!-- $\mathdefault{0}$ -->
      <g transform="translate(80.468248 365.341188)scale(0.14 -0.14)">
       <use transform="scale(0.996264)" xlink:href="#URWPalladioL-Roma-30"/>
      </g>
     </g>
    </g>
    <g id="xtick_11">
     <g id="line2d_35">
      <path clip-path="url(#pf04dc29731)" d="M 143.867254 339.861659 
L 143.867254 196.27316 
" style="fill:none;stroke:#000000;stroke-linecap:square;stroke-opacity:0.2;stroke-width:0.5;"/>
     </g>
     <g id="line2d_36">
      <g>
       <use style="fill-opacity:0.2;stroke:#000000;stroke-opacity:0.2;stroke-width:0.8;" x="143.867254" xlink:href="#m1366bfc1af" y="339.861659"/>
      </g>
     </g>
     <g id="text_10">
      <!-- $\mathdefault{250}$ -->
      <g transform="translate(133.406482 365.341188)scale(0.14 -0.14)">
       <use transform="scale(0.996264)" xlink:href="#URWPalladioL-Roma-32"/>
       <use transform="translate(49.8132 0)scale(0.996264)" xlink:href="#URWPalladioL-Roma-35"/>
       <use transform="translate(99.626401 0)scale(0.996264)" xlink:href="#URWPalladioL-Roma-30"/>
      </g>
     </g>
    </g>
    <g id="xtick_12">
     <g id="line2d_37">
      <path clip-path="url(#pf04dc29731)" d="M 203.779335 339.861659 
L 203.779335 196.27316 
" style="fill:none;stroke:#000000;stroke-linecap:square;stroke-opacity:0.2;stroke-width:0.5;"/>
     </g>
     <g id="line2d_38">
      <g>
       <use style="fill-opacity:0.2;stroke:#000000;stroke-opacity:0.2;stroke-width:0.8;" x="203.779335" xlink:href="#m1366bfc1af" y="339.861659"/>
      </g>
     </g>
     <g id="text_11">
      <!-- $\mathdefault{500}$ -->
      <g transform="translate(193.318563 365.341188)scale(0.14 -0.14)">
       <use transform="scale(0.996264)" xlink:href="#URWPalladioL-Roma-35"/>
       <use transform="translate(49.8132 0)scale(0.996264)" xlink:href="#URWPalladioL-Roma-30"/>
       <use transform="translate(99.626401 0)scale(0.996264)" xlink:href="#URWPalladioL-Roma-30"/>
      </g>
     </g>
    </g>
    <g id="xtick_13">
     <g id="line2d_39">
      <path clip-path="url(#pf04dc29731)" d="M 263.691417 339.861659 
L 263.691417 196.27316 
" style="fill:none;stroke:#000000;stroke-linecap:square;stroke-opacity:0.2;stroke-width:0.5;"/>
     </g>
     <g id="line2d_40">
      <g>
       <use style="fill-opacity:0.2;stroke:#000000;stroke-opacity:0.2;stroke-width:0.8;" x="263.691417" xlink:href="#m1366bfc1af" y="339.861659"/>
      </g>
     </g>
     <g id="text_12">
      <!-- $\mathdefault{750}$ -->
      <g transform="translate(253.230645 365.341188)scale(0.14 -0.14)">
       <defs>
        <path d="M 358 32 
L 416 -51 
C 666 -32 666 -32 710 -32 
C 755 -32 755 -32 1005 -51 
C 1274 649 1587 1317 2010 2087 
L 3181 4199 
L 3181 4372 
C 2490 4372 2266 4372 1747 4372 
C 1280 4372 966 4372 346 4372 
L 282 4359 
C 301 3750 301 3750 301 3685 
C 301 3614 301 3614 282 3031 
L 474 3031 
L 518 3390 
C 570 3789 614 3840 909 3840 
L 2618 3840 
C 2362 3313 2163 2941 1920 2549 
z
" id="URWPalladioL-Roma-37" transform="scale(0.015625)"/>
       </defs>
       <use transform="scale(0.996264)" xlink:href="#URWPalladioL-Roma-37"/>
       <use transform="translate(49.8132 0)scale(0.996264)" xlink:href="#URWPalladioL-Roma-35"/>
       <use transform="translate(99.626401 0)scale(0.996264)" xlink:href="#URWPalladioL-Roma-30"/>
      </g>
     </g>
    </g>
    <g id="xtick_14">
     <g id="line2d_41">
      <path clip-path="url(#pf04dc29731)" d="M 323.603498 339.861659 
L 323.603498 196.27316 
" style="fill:none;stroke:#000000;stroke-linecap:square;stroke-opacity:0.2;stroke-width:0.5;"/>
     </g>
     <g id="line2d_42">
      <g>
       <use style="fill-opacity:0.2;stroke:#000000;stroke-opacity:0.2;stroke-width:0.8;" x="323.603498" xlink:href="#m1366bfc1af" y="339.861659"/>
      </g>
     </g>
     <g id="text_13">
      <!-- $\mathdefault{1000}$ -->
      <g transform="translate(309.655802 365.341188)scale(0.14 -0.14)">
       <use transform="scale(0.996264)" xlink:href="#URWPalladioL-Roma-31"/>
       <use transform="translate(49.8132 0)scale(0.996264)" xlink:href="#URWPalladioL-Roma-30"/>
       <use transform="translate(99.626401 0)scale(0.996264)" xlink:href="#URWPalladioL-Roma-30"/>
       <use transform="translate(149.439601 0)scale(0.996264)" xlink:href="#URWPalladioL-Roma-30"/>
      </g>
     </g>
    </g>
    <g id="xtick_15">
     <g id="line2d_43">
      <path clip-path="url(#pf04dc29731)" d="M 383.51558 339.861659 
L 383.51558 196.27316 
" style="fill:none;stroke:#000000;stroke-linecap:square;stroke-opacity:0.2;stroke-width:0.5;"/>
     </g>
     <g id="line2d_44">
      <g>
       <use style="fill-opacity:0.2;stroke:#000000;stroke-opacity:0.2;stroke-width:0.8;" x="383.51558" xlink:href="#m1366bfc1af" y="339.861659"/>
      </g>
     </g>
     <g id="text_14">
      <!-- $\mathdefault{1250}$ -->
      <g transform="translate(369.567883 365.341188)scale(0.14 -0.14)">
       <use transform="scale(0.996264)" xlink:href="#URWPalladioL-Roma-31"/>
       <use transform="translate(49.8132 0)scale(0.996264)" xlink:href="#URWPalladioL-Roma-32"/>
       <use transform="translate(99.626401 0)scale(0.996264)" xlink:href="#URWPalladioL-Roma-35"/>
       <use transform="translate(149.439601 0)scale(0.996264)" xlink:href="#URWPalladioL-Roma-30"/>
      </g>
     </g>
    </g>
    <g id="xtick_16">
     <g id="line2d_45">
      <path clip-path="url(#pf04dc29731)" d="M 443.427661 339.861659 
L 443.427661 196.27316 
" style="fill:none;stroke:#000000;stroke-linecap:square;stroke-opacity:0.2;stroke-width:0.5;"/>
     </g>
     <g id="line2d_46">
      <g>
       <use style="fill-opacity:0.2;stroke:#000000;stroke-opacity:0.2;stroke-width:0.8;" x="443.427661" xlink:href="#m1366bfc1af" y="339.861659"/>
      </g>
     </g>
     <g id="text_15">
      <!-- $\mathdefault{1500}$ -->
      <g transform="translate(429.479965 365.341188)scale(0.14 -0.14)">
       <use transform="scale(0.996264)" xlink:href="#URWPalladioL-Roma-31"/>
       <use transform="translate(49.8132 0)scale(0.996264)" xlink:href="#URWPalladioL-Roma-35"/>
       <use transform="translate(99.626401 0)scale(0.996264)" xlink:href="#URWPalladioL-Roma-30"/>
       <use transform="translate(149.439601 0)scale(0.996264)" xlink:href="#URWPalladioL-Roma-30"/>
      </g>
     </g>
    </g>
    <g id="xtick_17">
     <g id="line2d_47">
      <path clip-path="url(#pf04dc29731)" d="M 503.339742 339.861659 
L 503.339742 196.27316 
" style="fill:none;stroke:#000000;stroke-linecap:square;stroke-opacity:0.2;stroke-width:0.5;"/>
     </g>
     <g id="line2d_48">
      <g>
       <use style="fill-opacity:0.2;stroke:#000000;stroke-opacity:0.2;stroke-width:0.8;" x="503.339742" xlink:href="#m1366bfc1af" y="339.861659"/>
      </g>
     </g>
     <g id="text_16">
      <!-- $\mathdefault{1750}$ -->
      <g transform="translate(489.392046 365.341188)scale(0.14 -0.14)">
       <use transform="scale(0.996264)" xlink:href="#URWPalladioL-Roma-31"/>
       <use transform="translate(49.8132 0)scale(0.996264)" xlink:href="#URWPalladioL-Roma-37"/>
       <use transform="translate(99.626401 0)scale(0.996264)" xlink:href="#URWPalladioL-Roma-35"/>
       <use transform="translate(149.439601 0)scale(0.996264)" xlink:href="#URWPalladioL-Roma-30"/>
      </g>
     </g>
    </g>
    <g id="xtick_18">
     <g id="line2d_49">
      <path clip-path="url(#pf04dc29731)" d="M 563.251824 339.861659 
L 563.251824 196.27316 
" style="fill:none;stroke:#000000;stroke-linecap:square;stroke-opacity:0.2;stroke-width:0.5;"/>
     </g>
     <g id="line2d_50">
      <g>
       <use style="fill-opacity:0.2;stroke:#000000;stroke-opacity:0.2;stroke-width:0.8;" x="563.251824" xlink:href="#m1366bfc1af" y="339.861659"/>
      </g>
     </g>
     <g id="text_17">
      <!-- $\mathdefault{2000}$ -->
      <g transform="translate(549.304128 365.341188)scale(0.14 -0.14)">
       <use transform="scale(0.996264)" xlink:href="#URWPalladioL-Roma-32"/>
       <use transform="translate(49.8132 0)scale(0.996264)" xlink:href="#URWPalladioL-Roma-30"/>
       <use transform="translate(99.626401 0)scale(0.996264)" xlink:href="#URWPalladioL-Roma-30"/>
       <use transform="translate(149.439601 0)scale(0.996264)" xlink:href="#URWPalladioL-Roma-30"/>
      </g>
     </g>
    </g>
    <g id="text_18">
     <!-- Frequency [Hz] -->
     <g transform="translate(282.454204 381.828236)scale(0.12 -0.12)">
      <defs>
       <path d="M 3942 773 
C 3942 257 3910 205 3616 205 
L 3309 205 
L 3309 0 
C 3686 0 3910 0 4243 0 
C 4576 0 4806 0 5184 0 
L 5184 205 
L 4877 205 
C 4582 205 4550 256 4550 766 
L 4550 3663 
C 4550 4172 4582 4224 4877 4224 
L 5184 4224 
L 5184 4423 
C 4717 4423 4576 4423 4243 4423 
C 3923 4423 3770 4423 3309 4423 
L 3309 4224 
L 3616 4224 
C 3910 4224 3942 4172 3942 3668 
L 3942 2529 
C 3808 2529 3674 2529 3411 2529 
L 1914 2529 
C 1651 2529 1510 2529 1382 2529 
L 1382 3668 
C 1382 4172 1414 4224 1709 4224 
L 2016 4224 
L 2016 4423 
C 1549 4423 1408 4423 1075 4423 
C 755 4423 602 4423 141 4423 
L 141 4224 
L 448 4224 
C 742 4224 774 4172 774 3663 
L 774 766 
C 774 256 742 205 448 205 
L 141 205 
L 141 0 
C 518 0 742 0 1075 0 
C 1408 0 1638 0 2016 0 
L 2016 205 
L 1709 205 
C 1414 205 1382 257 1382 773 
L 1382 2227 
C 1555 2240 1658 2240 1914 2240 
L 3411 2240 
C 3667 2240 3770 2240 3942 2227 
z
" id="URWPalladioL-Roma-48" transform="scale(0.015625)"/>
       <path d="M 2912 2764 
L 2912 2944 
C 2464 2944 2272 2944 2029 2944 
L 442 2944 
C 429 2624 422 2549 384 2115 
L 576 2115 
L 653 2547 
C 678 2681 794 2713 1267 2713 
L 2182 2713 
C 2048 2503 1939 2357 1766 2141 
L 678 794 
C 525 609 435 501 102 127 
L 141 0 
C 806 0 845 0 1120 0 
L 2886 0 
C 2886 145 2899 297 2944 602 
L 2982 899 
L 2790 899 
L 2675 397 
C 2650 282 2381 237 1766 237 
L 902 237 
z
" id="URWPalladioL-Roma-7a" transform="scale(0.015625)"/>
      </defs>
      <use transform="scale(0.996264)" xlink:href="#URWPalladioL-Roma-46"/>
      <use transform="translate(55.391677 0)scale(0.996264)" xlink:href="#URWPalladioL-Roma-72"/>
      <use transform="translate(92.950994 0)scale(0.996264)" xlink:href="#URWPalladioL-Roma-65"/>
      <use transform="translate(140.671289 0)scale(0.996264)" xlink:href="#URWPalladioL-Roma-71"/>
      <use transform="translate(196.461922 0)scale(0.996264)" xlink:href="#URWPalladioL-Roma-75"/>
      <use transform="translate(256.535657 0)scale(0.996264)" xlink:href="#URWPalladioL-Roma-65"/>
      <use transform="translate(304.255952 0)scale(0.996264)" xlink:href="#URWPalladioL-Roma-6e"/>
      <use transform="translate(362.238012 0)scale(0.996264)" xlink:href="#URWPalladioL-Roma-63"/>
      <use transform="translate(406.471581 0)scale(0.996264)" xlink:href="#URWPalladioL-Roma-79"/>
      <use transform="translate(486.769858 0)scale(0.996264)" xlink:href="#URWPalladioL-Roma-5b"/>
      <use transform="translate(519.945088 0)scale(0.996264)" xlink:href="#URWPalladioL-Roma-48"/>
      <use transform="translate(602.833749 0)scale(0.996264)" xlink:href="#URWPalladioL-Roma-7a"/>
      <use transform="translate(652.64695 0)scale(0.996264)" xlink:href="#URWPalladioL-Roma-5d"/>
     </g>
    </g>
   </g>
   <g id="matplotlib.axis_4">
    <g id="ytick_5">
     <g id="line2d_51">
      <path clip-path="url(#pf04dc29731)" d="M 83.955172 326.808159 
L 563.251824 326.808159 
" style="fill:none;stroke:#000000;stroke-linecap:square;stroke-opacity:0.2;stroke-width:0.5;"/>
     </g>
     <g id="line2d_52">
      <g>
       <use style="fill-opacity:0.2;stroke:#000000;stroke-opacity:0.2;stroke-width:0.8;" x="83.955172" xlink:href="#m94b135939c" y="326.808159"/>
      </g>
     </g>
     <g id="text_19">
      <!-- $\mathdefault{0.00000}$ -->
      <g transform="translate(23.12516 331.797923)scale(0.14 -0.14)">
       <defs>
        <path d="M 794 744 
C 602 744 429 564 429 372 
C 429 179 602 0 787 0 
C 992 0 1171 173 1171 372 
C 1171 564 992 744 794 744 
z
" id="URWPalladioL-Roma-2e" transform="scale(0.015625)"/>
       </defs>
       <use transform="scale(0.996264)" xlink:href="#URWPalladioL-Roma-30"/>
       <use transform="translate(49.8132 0)scale(0.996264)" xlink:href="#URWPalladioL-Roma-2e"/>
       <use transform="translate(74.719801 0)scale(0.996264)" xlink:href="#URWPalladioL-Roma-30"/>
       <use transform="translate(124.533001 0)scale(0.996264)" xlink:href="#URWPalladioL-Roma-30"/>
       <use transform="translate(174.346202 0)scale(0.996264)" xlink:href="#URWPalladioL-Roma-30"/>
       <use transform="translate(224.159402 0)scale(0.996264)" xlink:href="#URWPalladioL-Roma-30"/>
       <use transform="translate(273.972603 0)scale(0.996264)" xlink:href="#URWPalladioL-Roma-30"/>
      </g>
     </g>
    </g>
    <g id="ytick_6">
     <g id="line2d_53">
      <path clip-path="url(#pf04dc29731)" d="M 83.955172 294.174409 
L 563.251824 294.174409 
" style="fill:none;stroke:#000000;stroke-linecap:square;stroke-opacity:0.2;stroke-width:0.5;"/>
     </g>
     <g id="line2d_54">
      <g>
       <use style="fill-opacity:0.2;stroke:#000000;stroke-opacity:0.2;stroke-width:0.8;" x="83.955172" xlink:href="#m94b135939c" y="294.174409"/>
      </g>
     </g>
     <g id="text_20">
      <!-- $\mathdefault{0.00025}$ -->
      <g transform="translate(23.12516 299.164174)scale(0.14 -0.14)">
       <use transform="scale(0.996264)" xlink:href="#URWPalladioL-Roma-30"/>
       <use transform="translate(49.8132 0)scale(0.996264)" xlink:href="#URWPalladioL-Roma-2e"/>
       <use transform="translate(74.719801 0)scale(0.996264)" xlink:href="#URWPalladioL-Roma-30"/>
       <use transform="translate(124.533001 0)scale(0.996264)" xlink:href="#URWPalladioL-Roma-30"/>
       <use transform="translate(174.346202 0)scale(0.996264)" xlink:href="#URWPalladioL-Roma-30"/>
       <use transform="translate(224.159402 0)scale(0.996264)" xlink:href="#URWPalladioL-Roma-32"/>
       <use transform="translate(273.972603 0)scale(0.996264)" xlink:href="#URWPalladioL-Roma-35"/>
      </g>
     </g>
    </g>
    <g id="ytick_7">
     <g id="line2d_55">
      <path clip-path="url(#pf04dc29731)" d="M 83.955172 261.540659 
L 563.251824 261.540659 
" style="fill:none;stroke:#000000;stroke-linecap:square;stroke-opacity:0.2;stroke-width:0.5;"/>
     </g>
     <g id="line2d_56">
      <g>
       <use style="fill-opacity:0.2;stroke:#000000;stroke-opacity:0.2;stroke-width:0.8;" x="83.955172" xlink:href="#m94b135939c" y="261.540659"/>
      </g>
     </g>
     <g id="text_21">
      <!-- $\mathdefault{0.00050}$ -->
      <g transform="translate(23.12516 266.530424)scale(0.14 -0.14)">
       <use transform="scale(0.996264)" xlink:href="#URWPalladioL-Roma-30"/>
       <use transform="translate(49.8132 0)scale(0.996264)" xlink:href="#URWPalladioL-Roma-2e"/>
       <use transform="translate(74.719801 0)scale(0.996264)" xlink:href="#URWPalladioL-Roma-30"/>
       <use transform="translate(124.533001 0)scale(0.996264)" xlink:href="#URWPalladioL-Roma-30"/>
       <use transform="translate(174.346202 0)scale(0.996264)" xlink:href="#URWPalladioL-Roma-30"/>
       <use transform="translate(224.159402 0)scale(0.996264)" xlink:href="#URWPalladioL-Roma-35"/>
       <use transform="translate(273.972603 0)scale(0.996264)" xlink:href="#URWPalladioL-Roma-30"/>
      </g>
     </g>
    </g>
    <g id="ytick_8">
     <g id="line2d_57">
      <path clip-path="url(#pf04dc29731)" d="M 83.955172 228.90691 
L 563.251824 228.90691 
" style="fill:none;stroke:#000000;stroke-linecap:square;stroke-opacity:0.2;stroke-width:0.5;"/>
     </g>
     <g id="line2d_58">
      <g>
       <use style="fill-opacity:0.2;stroke:#000000;stroke-opacity:0.2;stroke-width:0.8;" x="83.955172" xlink:href="#m94b135939c" y="228.90691"/>
      </g>
     </g>
     <g id="text_22">
      <!-- $\mathdefault{0.00075}$ -->
      <g transform="translate(23.12516 233.896674)scale(0.14 -0.14)">
       <use transform="scale(0.996264)" xlink:href="#URWPalladioL-Roma-30"/>
       <use transform="translate(49.8132 0)scale(0.996264)" xlink:href="#URWPalladioL-Roma-2e"/>
       <use transform="translate(74.719801 0)scale(0.996264)" xlink:href="#URWPalladioL-Roma-30"/>
       <use transform="translate(124.533001 0)scale(0.996264)" xlink:href="#URWPalladioL-Roma-30"/>
       <use transform="translate(174.346202 0)scale(0.996264)" xlink:href="#URWPalladioL-Roma-30"/>
       <use transform="translate(224.159402 0)scale(0.996264)" xlink:href="#URWPalladioL-Roma-37"/>
       <use transform="translate(273.972603 0)scale(0.996264)" xlink:href="#URWPalladioL-Roma-35"/>
      </g>
     </g>
    </g>
    <g id="ytick_9">
     <g id="line2d_59">
      <path clip-path="url(#pf04dc29731)" d="M 83.955172 196.27316 
L 563.251824 196.27316 
" style="fill:none;stroke:#000000;stroke-linecap:square;stroke-opacity:0.2;stroke-width:0.5;"/>
     </g>
     <g id="line2d_60">
      <g>
       <use style="fill-opacity:0.2;stroke:#000000;stroke-opacity:0.2;stroke-width:0.8;" x="83.955172" xlink:href="#m94b135939c" y="196.27316"/>
      </g>
     </g>
     <g id="text_23">
      <!-- $\mathdefault{0.00100}$ -->
      <g transform="translate(23.12516 201.262925)scale(0.14 -0.14)">
       <use transform="scale(0.996264)" xlink:href="#URWPalladioL-Roma-30"/>
       <use transform="translate(49.8132 0)scale(0.996264)" xlink:href="#URWPalladioL-Roma-2e"/>
       <use transform="translate(74.719801 0)scale(0.996264)" xlink:href="#URWPalladioL-Roma-30"/>
       <use transform="translate(124.533001 0)scale(0.996264)" xlink:href="#URWPalladioL-Roma-30"/>
       <use transform="translate(174.346202 0)scale(0.996264)" xlink:href="#URWPalladioL-Roma-31"/>
       <use transform="translate(224.159402 0)scale(0.996264)" xlink:href="#URWPalladioL-Roma-30"/>
       <use transform="translate(273.972603 0)scale(0.996264)" xlink:href="#URWPalladioL-Roma-30"/>
      </g>
     </g>
    </g>
    <g id="text_24">
     <!-- Group delay [seconds] -->
     <g transform="translate(15.753876 327.860588)rotate(-90)scale(0.12 -0.12)">
      <defs>
       <path d="M 4102 3307 
L 4301 3307 
C 4301 3633 4339 3934 4429 4280 
C 3718 4486 3392 4544 2880 4544 
C 1229 4544 141 3608 141 2186 
C 141 1538 358 961 762 571 
C 1203 128 1894 -128 2637 -128 
C 3091 -128 3533 -45 4403 199 
L 4403 1274 
C 4403 1473 4410 1486 4474 1511 
L 4659 1576 
L 4634 1730 
C 4064 1730 4045 1730 3846 1730 
C 3661 1730 3622 1730 3066 1730 
L 3066 1544 
L 3597 1500 
C 3757 1487 3814 1429 3814 1275 
L 3814 628 
C 3814 475 3802 398 3776 353 
C 3706 231 3322 141 2899 141 
C 1632 141 826 987 826 2319 
C 826 3556 1517 4274 2714 4274 
C 3046 4274 3328 4236 3571 4159 
C 3942 4037 4102 3890 4102 3647 
z
" id="URWPalladioL-Roma-47" transform="scale(0.015625)"/>
       <path d="M 2074 538 
L 2042 -1 
C 2458 -1 2458 -1 2541 -1 
C 2573 -1 2733 -1 3014 -1 
L 3014 192 
L 2765 192 
C 2611 192 2586 244 2586 558 
L 2586 1731 
C 2586 2668 2317 3008 1574 3008 
C 1299 3008 1043 2937 800 2791 
L 461 2585 
L 461 2171 
L 627 2126 
L 710 2323 
C 845 2623 909 2668 1203 2668 
C 1805 2668 2054 2431 2074 1852 
L 1440 1736 
C 570 1577 205 1277 205 722 
C 205 224 506 -64 1011 -64 
C 1126 -64 1235 -45 1280 -13 
z
M 2074 806 
C 1888 544 1485 302 1235 302 
C 979 302 755 538 755 812 
C 755 1048 883 1271 1075 1392 
C 1235 1488 1587 1577 2074 1648 
z
" id="URWPalladioL-Roma-61" transform="scale(0.015625)"/>
      </defs>
      <use transform="scale(0.996264)" xlink:href="#URWPalladioL-Roma-47"/>
      <use transform="translate(76.013746 0)scale(0.996264)" xlink:href="#URWPalladioL-Roma-72"/>
      <use transform="translate(113.573063 0)scale(0.996264)" xlink:href="#URWPalladioL-Roma-6f"/>
      <use transform="translate(167.968644 0)scale(0.996264)" xlink:href="#URWPalladioL-Roma-75"/>
      <use transform="translate(228.042378 0)scale(0.996264)" xlink:href="#URWPalladioL-Roma-70"/>
      <use transform="translate(312.823372 0)scale(0.996264)" xlink:href="#URWPalladioL-Roma-64"/>
      <use transform="translate(373.695003 0)scale(0.996264)" xlink:href="#URWPalladioL-Roma-65"/>
      <use transform="translate(421.415298 0)scale(0.996264)" xlink:href="#URWPalladioL-Roma-6c"/>
      <use transform="translate(450.40566 0)scale(0.996264)" xlink:href="#URWPalladioL-Roma-61"/>
      <use transform="translate(500.21886 0)scale(0.996264)" xlink:href="#URWPalladioL-Roma-79"/>
      <use transform="translate(580.517137 0)scale(0.996264)" xlink:href="#URWPalladioL-Roma-5b"/>
      <use transform="translate(613.692367 0)scale(0.996264)" xlink:href="#URWPalladioL-Roma-73"/>
      <use transform="translate(655.933833 0)scale(0.996264)" xlink:href="#URWPalladioL-Roma-65"/>
      <use transform="translate(703.654128 0)scale(0.996264)" xlink:href="#URWPalladioL-Roma-63"/>
      <use transform="translate(747.887697 0)scale(0.996264)" xlink:href="#URWPalladioL-Roma-6f"/>
      <use transform="translate(802.283277 0)scale(0.996264)" xlink:href="#URWPalladioL-Roma-6e"/>
      <use transform="translate(860.265338 0)scale(0.996264)" xlink:href="#URWPalladioL-Roma-64"/>
      <use transform="translate(921.136969 0)scale(0.996264)" xlink:href="#URWPalladioL-Roma-73"/>
      <use transform="translate(963.378435 0)scale(0.996264)" xlink:href="#URWPalladioL-Roma-5d"/>
     </g>
    </g>
   </g>
   <g id="line2d_61">
    <path clip-path="url(#pf04dc29731)" d="M 83.955172 312.14244 
L 85.245271 314.155416 
L 86.53537 277.643527 
L 87.825469 291.160299 
L 89.115568 287.169079 
L 90.405667 312.00218 
L 91.695766 297.136819 
L 92.985865 293.569221 
L 94.275964 326.808159 
L 95.566063 282.131361 
L 96.856162 324.497074 
L 98.146261 322.66799 
L 99.43636 309.496114 
L 100.72646 302.094836 
L 102.016559 306.249578 
L 103.306658 306.024326 
L 104.596757 256.823062 
L 105.886856 313.328616 
L 107.176955 301.138191 
L 108.467054 311.956467 
L 109.757153 277.874237 
L 111.047252 310.721991 
L 112.337351 307.85172 
L 113.62745 335.842372 
L 114.917549 281.604151 
L 116.207648 307.182262 
L 117.497747 325.876373 
L 118.787846 285.450866 
L 120.077945 300.722763 
L 121.368044 300.536739 
L 122.658143 314.564157 
L 123.948242 286.642599 
L 125.238341 302.551219 
L 126.52844 327.163426 
L 127.818539 273.813233 
L 129.108638 313.130884 
L 130.398737 314.606922 
L 131.688836 306.325946 
L 132.978935 301.185063 
L 134.269034 322.595016 
L 135.559133 291.805599 
L 136.849232 307.107814 
L 138.139331 312.618316 
L 139.42943 305.133657 
L 140.719529 322.266683 
L 142.009628 325.162864 
L 143.299727 311.450278 
L 144.589826 310.865585 
L 145.879925 308.248166 
L 147.170024 321.868798 
L 148.460123 317.520494 
L 149.750222 326.698826 
L 151.040321 284.009203 
L 152.33042 323.37434 
L 153.620519 311.685016 
L 154.910618 291.151157 
L 156.200717 310.421827 
L 157.490816 286.39407 
L 158.780915 307.654537 
L 160.071014 315.664289 
L 161.361113 293.445815 
L 162.651212 315.37406 
L 163.941311 305.719324 
L 165.23141 313.853229 
L 166.52151 309.838771 
L 167.811609 316.683392 
L 169.101708 320.506129 
L 170.391807 306.323244 
L 171.681906 323.797139 
L 172.972005 321.776216 
L 174.262104 313.228655 
L 175.552203 330.21969 
L 176.842302 322.674198 
L 178.132401 306.995345 
L 179.4225 304.342767 
L 180.712599 310.030831 
L 182.002698 304.723129 
L 183.292797 302.612687 
L 184.582896 259.386947 
L 185.872995 300.3378 
L 187.163094 296.849138 
L 188.453193 293.958815 
L 189.743292 324.404487 
L 191.033391 322.9959 
L 192.32349 323.664739 
L 193.613589 297.18005 
L 194.903688 326.477066 
L 196.193787 311.736693 
L 197.483886 315.023439 
L 198.773985 324.211713 
L 200.064084 294.466118 
L 201.354183 316.398292 
L 202.644282 308.381224 
L 203.934381 311.628339 
L 206.514579 287.52125 
L 207.804678 307.409553 
L 209.094777 318.484974 
L 210.384876 312.302618 
L 211.674975 310.368153 
L 212.965074 321.608441 
L 214.255173 316.998411 
L 215.545272 332.00698 
L 216.835371 301.493027 
L 218.12547 323.227772 
L 219.415569 322.269819 
L 220.705668 314.185275 
L 221.995767 311.479339 
L 223.285866 320.334518 
L 224.575965 303.15965 
L 225.866064 318.792073 
L 227.156163 299.322496 
L 228.446262 302.248278 
L 229.736361 335.182608 
L 231.02646 319.074926 
L 232.316559 310.814098 
L 233.606659 252.792929 
L 234.896758 298.240444 
L 236.186857 307.594826 
L 237.476956 314.952158 
L 238.767055 320.145222 
L 240.057154 317.421853 
L 241.347253 275.022112 
L 242.637352 316.762702 
L 243.927451 311.904369 
L 245.21755 324.970115 
L 246.507649 254.640289 
L 247.797748 315.459158 
L 249.087847 319.874465 
L 250.377946 309.692415 
L 251.668045 319.3365 
L 252.958144 283.879537 
L 254.248243 308.384926 
L 255.538342 311.460832 
L 256.828441 300.97924 
L 258.11854 324.588535 
L 259.408639 306.52386 
L 260.698738 318.082568 
L 261.988837 304.938215 
L 263.278936 322.744606 
L 264.569035 310.682745 
L 265.859134 330.057078 
L 267.149233 293.124697 
L 268.439332 323.33837 
L 269.729431 329.817629 
L 271.01953 310.768497 
L 272.309629 288.201642 
L 273.599728 326.092486 
L 274.889827 296.445404 
L 276.179926 301.867714 
L 277.470025 298.169148 
L 278.760124 307.533227 
L 280.050223 323.947132 
L 281.340322 300.149706 
L 282.630421 317.020224 
L 283.92052 310.877347 
L 285.210619 330.766897 
L 286.500718 329.917417 
L 287.790817 302.006161 
L 289.080916 319.222622 
L 290.371015 307.342443 
L 291.661114 301.017143 
L 292.951213 314.807439 
L 294.241312 300.02516 
L 295.531411 309.625089 
L 296.82151 311.342779 
L 298.111609 322.893889 
L 299.401709 289.492054 
L 300.691808 281.038235 
L 301.981907 317.371551 
L 303.272006 308.866279 
L 304.562105 315.110517 
L 305.852204 317.106795 
L 307.142303 300.834161 
L 308.432402 332.951337 
L 309.722501 312.362295 
L 311.0126 308.686021 
L 312.302699 322.12136 
L 313.592798 312.759329 
L 314.882897 326.9559 
L 316.172996 288.587695 
L 317.463095 318.088094 
L 318.753194 315.075765 
L 320.043293 308.282187 
L 321.333392 306.513533 
L 322.623491 304.981901 
L 323.91359 298.020447 
L 325.203689 317.620415 
L 326.493788 324.71335 
L 327.783887 310.318222 
L 329.073986 314.075111 
L 330.364085 324.446173 
L 331.654184 285.962918 
L 332.944283 307.771126 
L 334.234382 318.165089 
L 335.524481 305.847438 
L 336.81458 322.221573 
L 338.104679 320.82448 
L 339.394778 314.066928 
L 340.684877 327.997575 
L 341.974976 310.494007 
L 343.265075 298.388498 
L 344.555174 304.675584 
L 345.845273 297.451624 
L 347.135372 291.590344 
L 348.425471 329.414931 
L 349.71557 271.974811 
L 351.005669 285.623585 
L 352.295768 318.998613 
L 353.585867 314.050203 
L 354.875966 318.94861 
L 357.456164 318.981335 
L 358.746263 310.311064 
L 360.036362 304.708868 
L 361.326461 316.221198 
L 362.61656 290.625627 
L 363.906659 294.34628 
L 365.196759 286.397043 
L 366.486858 309.245705 
L 367.776957 310.524138 
L 369.067056 315.495869 
L 370.357155 323.241685 
L 371.647254 306.535065 
L 372.937353 318.800679 
L 374.227452 319.241796 
L 375.517551 324.414437 
L 376.80765 299.552786 
L 378.097749 301.561452 
L 379.387848 322.016168 
L 380.677947 311.671512 
L 381.968046 228.755738 
L 383.258145 310.758179 
L 384.548244 286.918963 
L 385.838343 326.430246 
L 387.128442 301.246211 
L 388.418541 314.900627 
L 389.70864 320.79281 
L 390.998739 325.145328 
L 392.288838 302.541825 
L 393.578937 314.884089 
L 394.869036 317.714383 
L 396.159135 323.274765 
L 397.449234 298.127349 
L 398.739333 317.140787 
L 400.029432 309.739712 
L 401.319531 233.544702 
L 402.60963 286.069435 
L 403.899729 290.374404 
L 405.189828 314.393692 
L 406.479927 298.044704 
L 407.770026 314.520219 
L 409.060125 327.290995 
L 410.350224 330.466346 
L 411.640323 300.617057 
L 412.930422 307.41368 
L 414.220521 329.378936 
L 415.51062 305.127607 
L 416.800719 322.054185 
L 418.090818 324.545075 
L 419.380917 311.202909 
L 420.671016 284.632541 
L 421.961115 275.760973 
L 423.251214 317.11587 
L 424.541313 320.182618 
L 425.831412 317.162193 
L 427.121511 285.797303 
L 428.41161 329.898712 
L 429.701709 310.444592 
L 430.991809 321.455865 
L 432.281908 313.400729 
L 434.862106 320.981648 
L 436.152205 320.713916 
L 437.442304 316.168137 
L 438.732403 321.724122 
L 440.022502 324.485105 
L 441.312601 300.47402 
L 442.6027 321.948883 
L 443.892799 310.961169 
L 445.182898 244.40679 
L 446.472997 316.240825 
L 447.763096 314.39074 
L 449.053195 289.397566 
L 450.343294 325.629217 
L 451.633393 323.625442 
L 452.923492 314.705703 
L 454.213591 315.146144 
L 455.50369 326.499042 
L 456.793789 309.071956 
L 458.083888 331.2063 
L 459.373987 296.302759 
L 460.664086 327.138681 
L 461.954185 315.746333 
L 463.244284 285.816317 
L 464.534383 318.830569 
L 465.824482 322.547809 
L 467.114581 316.001005 
L 468.40468 315.646335 
L 469.694779 276.072648 
L 470.984878 305.760887 
L 472.274977 298.016479 
L 473.565076 323.740754 
L 474.855175 302.752472 
L 476.145274 323.726469 
L 477.435373 289.904992 
L 478.725472 321.931911 
L 480.015571 299.661943 
L 481.30567 325.703988 
L 482.595769 330.216576 
L 483.885868 309.012991 
L 485.175967 315.549153 
L 486.466066 317.452515 
L 487.756165 328.676376 
L 489.046264 332.254734 
L 490.336363 300.312036 
L 491.626462 327.078001 
L 492.916561 287.777773 
L 494.20666 326.808159 
L 495.496759 321.809278 
L 496.786859 315.680284 
L 498.076958 322.080599 
L 499.367057 310.200929 
L 500.657156 316.529611 
L 501.947255 329.669143 
L 503.237354 296.254572 
L 504.527453 308.150096 
L 505.817552 317.185451 
L 507.107651 298.728039 
L 508.39775 322.920191 
L 509.687849 301.801881 
L 510.977948 320.374685 
L 512.268047 319.696332 
L 513.558146 271.572276 
L 514.848245 303.992211 
L 516.138344 295.681885 
L 517.428443 320.538158 
L 518.718542 286.117907 
L 520.008641 320.751368 
L 521.29874 322.303287 
L 522.588839 316.519615 
L 523.878938 268.608245 
L 525.169037 313.825109 
L 526.459136 328.257799 
L 527.749235 306.193397 
L 529.039334 317.832626 
L 530.329433 316.172044 
L 531.619532 327.525868 
L 532.909631 310.776028 
L 534.19973 324.4675 
L 535.489829 320.584456 
L 536.779928 302.241235 
L 538.070027 315.572948 
L 539.360126 298.515416 
L 540.650225 315.853429 
L 541.940324 313.250679 
L 543.230423 307.255477 
L 544.520522 300.578507 
L 545.810621 311.934198 
L 547.10072 298.058624 
L 548.390819 298.544974 
L 549.680918 324.59478 
L 550.971017 301.414685 
L 552.261116 318.385674 
L 553.551215 306.933117 
L 554.841314 311.616921 
L 556.131413 302.896607 
L 557.421512 311.606492 
L 558.711611 326.808159 
L 560.00171 313.053707 
L 561.291809 266.530545 
L 562.581908 295.478052 
L 563.872008 304.384936 
L 563.872008 304.384936 
" style="fill:none;stroke:#0271ae;stroke-linecap:square;stroke-width:3;"/>
   </g>
   <g id="line2d_62">
    <path clip-path="url(#pf04dc29731)" d="M 203.779335 339.861659 
L 203.779335 196.27316 
" style="fill:none;stroke:#dc2830;stroke-linecap:square;stroke-width:3;"/>
   </g>
   <g id="text_25">
    <!-- Phase response -->
    <g transform="translate(276.523494 190.27316)scale(0.14 -0.14)">
     <defs>
      <path d="M 1382 4116 
C 1606 4166 1792 4192 2010 4192 
C 2701 4192 3072 3875 3072 3273 
C 3072 2703 2682 2304 2125 2304 
C 1990 2304 1894 2317 1728 2367 
L 1792 2137 
C 1946 2105 2035 2099 2163 2099 
C 3040 2099 3712 2692 3712 3459 
C 3712 4071 3213 4448 2400 4448 
C 2368 4448 2304 4448 2221 4423 
C 1984 4423 1498 4423 1312 4423 
C 1171 4423 1171 4423 147 4423 
L 147 4224 
L 435 4224 
C 723 4224 774 4140 774 3663 
L 774 766 
C 774 256 742 205 448 205 
L 141 205 
L 141 0 
C 518 0 742 0 1075 0 
C 1408 0 1638 0 2016 0 
L 2016 205 
L 1709 205 
C 1414 205 1382 256 1382 764 
z
" id="URWPalladioL-Roma-50" transform="scale(0.015625)"/>
      <path d="M 45 4248 
L 403 4248 
C 518 4248 563 4177 563 3984 
L 563 643 
C 563 237 544 192 326 192 
L 38 192 
L 38 -7 
C 474 -7 646 -7 832 -7 
C 1018 -7 1190 -7 1626 -7 
L 1626 192 
L 1338 192 
C 1120 192 1101 237 1101 643 
L 1101 2011 
C 1101 2300 1523 2616 1914 2616 
C 2342 2616 2624 2297 2624 1806 
L 2624 -7 
C 3014 -7 3021 -7 3130 -7 
C 3219 -7 3219 -7 3661 -7 
L 3661 179 
L 3398 205 
C 3181 205 3162 244 3162 654 
L 3162 1892 
C 3162 2642 2810 3008 2093 3008 
C 1856 3008 1722 2963 1587 2847 
L 1101 2424 
L 1101 4613 
L 1043 4665 
C 762 4556 550 4504 45 4427 
z
" id="URWPalladioL-Roma-68" transform="scale(0.015625)"/>
     </defs>
     <use transform="scale(0.996264)" xlink:href="#URWPalladioL-Roma-50"/>
     <use transform="translate(60.173595 0)scale(0.996264)" xlink:href="#URWPalladioL-Roma-68"/>
     <use transform="translate(118.155656 0)scale(0.996264)" xlink:href="#URWPalladioL-Roma-61"/>
     <use transform="translate(167.968856 0)scale(0.996264)" xlink:href="#URWPalladioL-Roma-73"/>
     <use transform="translate(210.210323 0)scale(0.996264)" xlink:href="#URWPalladioL-Roma-65"/>
     <use transform="translate(282.837218 0)scale(0.996264)" xlink:href="#URWPalladioL-Roma-72"/>
     <use transform="translate(320.396535 0)scale(0.996264)" xlink:href="#URWPalladioL-Roma-65"/>
     <use transform="translate(368.116831 0)scale(0.996264)" xlink:href="#URWPalladioL-Roma-73"/>
     <use transform="translate(410.358297 0)scale(0.996264)" xlink:href="#URWPalladioL-Roma-70"/>
     <use transform="translate(470.232691 0)scale(0.996264)" xlink:href="#URWPalladioL-Roma-6f"/>
     <use transform="translate(524.628271 0)scale(0.996264)" xlink:href="#URWPalladioL-Roma-6e"/>
     <use transform="translate(582.610331 0)scale(0.996264)" xlink:href="#URWPalladioL-Roma-73"/>
     <use transform="translate(624.851798 0)scale(0.996264)" xlink:href="#URWPalladioL-Roma-65"/>
    </g>
   </g>
  </g>
 </g>
 <defs>
  <clipPath id="p8bb0ae25f9">
   <rect height="143.588498" width="479.296652" x="83.955172" y="23.179529"/>
  </clipPath>
  <clipPath id="pf04dc29731">
   <rect height="143.588498" width="479.296652" x="83.955172" y="196.27316"/>
  </clipPath>
 </defs>
</svg>
