<?xml version="1.0" encoding="utf-8" standalone="no"?>
<!DOCTYPE svg PUBLIC "-//W3C//DTD SVG 1.1//EN"
  "http://www.w3.org/Graphics/SVG/1.1/DTD/svg11.dtd">
<svg height="392.39952pt" version="1.1" viewBox="0 0 584.39952 392.39952" width="584.39952pt" xmlns="http://www.w3.org/2000/svg" xmlns:xlink="http://www.w3.org/1999/xlink">
 <metadata>
  <rdf:RDF xmlns:cc="http://creativecommons.org/ns#" xmlns:dc="http://purl.org/dc/elements/1.1/" xmlns:rdf="http://www.w3.org/1999/02/22-rdf-syntax-ns#">
   <cc:Work>
    <dc:type rdf:resource="http://purl.org/dc/dcmitype/StillImage"/>
    <dc:date>2020-08-12T06:39:04.997954</dc:date>
    <dc:format>image/svg+xml</dc:format>
    <dc:creator>
     <cc:Agent>
      <dc:title>Matplotlib v3.3.0rc1.post382+g019a75231, https://matplotlib.org/</dc:title>
     </cc:Agent>
    </dc:creator>
   </cc:Work>
  </rdf:RDF>
 </metadata>
 <defs>
  <style type="text/css">*{stroke-linecap:butt;stroke-linejoin:round;}</style>
 </defs>
 <g id="figure_1">
  <g id="patch_1">
   <path d="M 0 392.39952 
L 584.39952 392.39952 
L 584.39952 0 
L 0 0 
z
" style="fill:none;"/>
  </g>
  <g id="axes_1">
   <g id="patch_2">
    <path d="M 41.145691 119.262967 
L 577.19952 119.262967 
L 577.19952 23.179529 
L 41.145691 23.179529 
z
" style="fill:none;"/>
   </g>
   <g id="matplotlib.axis_1">
    <g id="xtick_1">
     <g id="line2d_1">
      <path clip-path="url(#pb5fa6bee76)" d="M 41.145691 119.262967 
L 41.145691 23.179529 
" style="fill:none;stroke:#000000;stroke-linecap:square;stroke-opacity:0.2;stroke-width:0.5;"/>
     </g>
     <g id="line2d_2">
      <defs>
       <path d="M 0 0 
L 0 3.5 
" id="m24e6e6532c" style="stroke:#000000;stroke-opacity:0.2;stroke-width:0.8;"/>
      </defs>
      <g>
       <use style="fill-opacity:0.2;stroke:#000000;stroke-opacity:0.2;stroke-width:0.8;" x="41.145691" xlink:href="#m24e6e6532c" y="119.262967"/>
      </g>
     </g>
    </g>
    <g id="xtick_2">
     <g id="line2d_3">
      <path clip-path="url(#pb5fa6bee76)" d="M 126.914303 119.262967 
L 126.914303 23.179529 
" style="fill:none;stroke:#000000;stroke-linecap:square;stroke-opacity:0.2;stroke-width:0.5;"/>
     </g>
     <g id="line2d_4">
      <g>
       <use style="fill-opacity:0.2;stroke:#000000;stroke-opacity:0.2;stroke-width:0.8;" x="126.914303" xlink:href="#m24e6e6532c" y="119.262967"/>
      </g>
     </g>
    </g>
    <g id="xtick_3">
     <g id="line2d_5">
      <path clip-path="url(#pb5fa6bee76)" d="M 212.682916 119.262967 
L 212.682916 23.179529 
" style="fill:none;stroke:#000000;stroke-linecap:square;stroke-opacity:0.2;stroke-width:0.5;"/>
     </g>
     <g id="line2d_6">
      <g>
       <use style="fill-opacity:0.2;stroke:#000000;stroke-opacity:0.2;stroke-width:0.8;" x="212.682916" xlink:href="#m24e6e6532c" y="119.262967"/>
      </g>
     </g>
    </g>
    <g id="xtick_4">
     <g id="line2d_7">
      <path clip-path="url(#pb5fa6bee76)" d="M 298.451529 119.262967 
L 298.451529 23.179529 
" style="fill:none;stroke:#000000;stroke-linecap:square;stroke-opacity:0.2;stroke-width:0.5;"/>
     </g>
     <g id="line2d_8">
      <g>
       <use style="fill-opacity:0.2;stroke:#000000;stroke-opacity:0.2;stroke-width:0.8;" x="298.451529" xlink:href="#m24e6e6532c" y="119.262967"/>
      </g>
     </g>
    </g>
    <g id="xtick_5">
     <g id="line2d_9">
      <path clip-path="url(#pb5fa6bee76)" d="M 384.220141 119.262967 
L 384.220141 23.179529 
" style="fill:none;stroke:#000000;stroke-linecap:square;stroke-opacity:0.2;stroke-width:0.5;"/>
     </g>
     <g id="line2d_10">
      <g>
       <use style="fill-opacity:0.2;stroke:#000000;stroke-opacity:0.2;stroke-width:0.8;" x="384.220141" xlink:href="#m24e6e6532c" y="119.262967"/>
      </g>
     </g>
    </g>
    <g id="xtick_6">
     <g id="line2d_11">
      <path clip-path="url(#pb5fa6bee76)" d="M 469.988754 119.262967 
L 469.988754 23.179529 
" style="fill:none;stroke:#000000;stroke-linecap:square;stroke-opacity:0.2;stroke-width:0.5;"/>
     </g>
     <g id="line2d_12">
      <g>
       <use style="fill-opacity:0.2;stroke:#000000;stroke-opacity:0.2;stroke-width:0.8;" x="469.988754" xlink:href="#m24e6e6532c" y="119.262967"/>
      </g>
     </g>
    </g>
    <g id="xtick_7">
     <g id="line2d_13">
      <path clip-path="url(#pb5fa6bee76)" d="M 555.757367 119.262967 
L 555.757367 23.179529 
" style="fill:none;stroke:#000000;stroke-linecap:square;stroke-opacity:0.2;stroke-width:0.5;"/>
     </g>
     <g id="line2d_14">
      <g>
       <use style="fill-opacity:0.2;stroke:#000000;stroke-opacity:0.2;stroke-width:0.8;" x="555.757367" xlink:href="#m24e6e6532c" y="119.262967"/>
      </g>
     </g>
    </g>
   </g>
   <g id="matplotlib.axis_2">
    <g id="ytick_1">
     <g id="line2d_15">
      <path clip-path="url(#pb5fa6bee76)" d="M 41.145691 117.078994 
L 577.19952 117.078994 
" style="fill:none;stroke:#000000;stroke-linecap:square;stroke-opacity:0.2;stroke-width:0.5;"/>
     </g>
     <g id="line2d_16">
      <defs>
       <path d="M 0 0 
L -3.5 0 
" id="m2edc37877e" style="stroke:#000000;stroke-opacity:0.2;stroke-width:0.8;"/>
      </defs>
      <g>
       <use style="fill-opacity:0.2;stroke:#000000;stroke-opacity:0.2;stroke-width:0.8;" x="41.145691" xlink:href="#m2edc37877e" y="117.078994"/>
      </g>
     </g>
     <g id="text_1">
      <!-- $\mathdefault{−1}$ -->
      <g transform="translate(7.2 122.068759)scale(0.14 -0.14)">
       <defs>
        <path d="M 65.90625 23 
C 67.59375 23 69.40625 23 69.40625 25 
C 69.40625 27 67.59375 27 65.90625 27 
L 11.796875 27 
C 10.09375 27 8.296875 27 8.296875 25 
C 8.296875 23 10.09375 23 11.796875 23 
z
" id="CMSY10-0"/>
        <path d="M 6.703125 56 
L 7.703125 56 
L 20.59375 61.8125 
C 20.703125 61.90625 20.796875 61.90625 20.90625 61.90625 
C 21.5 61.90625 21.703125 61.015625 21.703125 58.609375 
L 21.703125 9.578125 
C 21.703125 4.3125 20.59375 3.203125 15.203125 3.203125 
L 9.59375 3.203125 
L 9.59375 0 
C 25 0 25 0 26.09375 0 
C 27.40625 0 29.59375 0 33 0 
C 34.203125 0 37.703125 0 41.796875 0 
L 41.796875 3.203125 
L 36.59375 3.203125 
C 31.09375 3.203125 30.09375 4.3125 30.09375 9.5625 
L 30.09375 69.421875 
L 28.703125 69.921875 
C 22.203125 66.515625 15.09375 63.515625 6 60.3125 
z
" id="URW_Palladio_L_Roman-49"/>
       </defs>
       <use transform="scale(1.038107)" xlink:href="#CMSY10-0"/>
       <use transform="translate(81.941696 0)scale(0.996264)" xlink:href="#URW_Palladio_L_Roman-49"/>
      </g>
     </g>
    </g>
    <g id="ytick_2">
     <g id="line2d_17">
      <path clip-path="url(#pb5fa6bee76)" d="M 41.145691 76.162609 
L 577.19952 76.162609 
" style="fill:none;stroke:#000000;stroke-linecap:square;stroke-opacity:0.2;stroke-width:0.5;"/>
     </g>
     <g id="line2d_18">
      <g>
       <use style="fill-opacity:0.2;stroke:#000000;stroke-opacity:0.2;stroke-width:0.8;" x="41.145691" xlink:href="#m2edc37877e" y="76.162609"/>
      </g>
     </g>
     <g id="text_2">
      <!-- $\mathdefault{0}$ -->
      <g transform="translate(18.671843 81.152374)scale(0.14 -0.14)">
       <defs>
        <path d="M 26.296875 69 
C 10.796875 69 2.90625 56.6875 2.90625 32.453125 
C 2.90625 20.71875 5 10.625 8.5 5.71875 
C 12 0.796875 17.59375 -2 23.796875 -2 
C 38.90625 -2 46.5 11.015625 46.5 36.65625 
C 46.5 58.578125 40 69 26.296875 69 
z
M 24.5 65.5 
C 34.203125 65.5 38.09375 55.6875 38.09375 31.640625 
C 38.09375 10.328125 34.296875 1.5 25.09375 1.5 
C 15.40625 1.5 11.296875 11.625 11.296875 36.0625 
C 11.296875 57.1875 15 65.5 24.5 65.5 
z
" id="URW_Palladio_L_Roman-48"/>
       </defs>
       <use transform="scale(0.996264)" xlink:href="#URW_Palladio_L_Roman-48"/>
      </g>
     </g>
    </g>
    <g id="ytick_3">
     <g id="line2d_19">
      <path clip-path="url(#pb5fa6bee76)" d="M 41.145691 35.246225 
L 577.19952 35.246225 
" style="fill:none;stroke:#000000;stroke-linecap:square;stroke-opacity:0.2;stroke-width:0.5;"/>
     </g>
     <g id="line2d_20">
      <g>
       <use style="fill-opacity:0.2;stroke:#000000;stroke-opacity:0.2;stroke-width:0.8;" x="41.145691" xlink:href="#m2edc37877e" y="35.246225"/>
      </g>
     </g>
     <g id="text_3">
      <!-- $\mathdefault{1}$ -->
      <g transform="translate(18.671843 40.235989)scale(0.14 -0.14)">
       <use transform="scale(0.996264)" xlink:href="#URW_Palladio_L_Roman-49"/>
      </g>
     </g>
    </g>
   </g>
   <g id="line2d_21">
    <path clip-path="url(#pb5fa6bee76)" d="M 41.145691 86.51286 
L 42.003377 54.075021 
L 42.861063 65.58384 
L 43.718749 82.158848 
L 44.576435 82.987013 
L 45.434121 76.419582 
L 46.291807 64.571444 
L 47.149494 94.722246 
L 48.00718 82.042822 
L 48.864866 49.444343 
L 49.722552 85.256705 
L 50.580238 76.022478 
L 51.437924 71.545742 
L 52.29561 65.664303 
L 53.153296 68.335432 
L 54.010983 83.73332 
L 54.868669 68.214608 
L 55.726355 72.45284 
L 56.584041 92.716461 
L 57.441727 82.473551 
L 58.299413 56.272272 
L 59.157099 58.274977 
L 60.014786 77.549027 
L 60.872472 71.132172 
L 61.730158 75.316693 
L 62.587844 65.16809 
L 63.44553 98.598856 
L 64.303216 76.146472 
L 65.160902 76.580533 
L 66.018588 93.259172 
L 66.876275 86.606633 
L 68.591647 90.880222 
L 69.449333 57.137821 
L 70.307019 68.736722 
L 71.164705 66.053321 
L 72.022391 65.207924 
L 72.880077 56.422032 
L 73.737764 82.128354 
L 74.59545 79.398584 
L 75.453136 61.831071 
L 76.310822 90.82957 
L 77.168508 92.223079 
L 78.026194 89.864581 
L 78.88388 66.375488 
L 79.741566 96.762935 
L 80.599253 86.869804 
L 81.456939 61.244889 
L 82.314625 71.081851 
L 83.172311 88.607003 
L 84.029997 98.812284 
L 84.887683 59.443666 
L 85.745369 89.338231 
L 86.603055 103.903589 
L 87.460742 89.035929 
L 88.318428 62.098564 
L 89.176114 92.396238 
L 90.0338 66.044687 
L 90.891486 73.205231 
L 91.749172 54.909188 
L 92.606858 79.062017 
L 93.464544 85.633011 
L 94.322231 57.649299 
L 95.179917 65.361455 
L 96.037603 96.990972 
L 96.895289 53.995984 
L 97.752975 111.102434 
L 98.610661 77.551171 
L 99.468347 80.724537 
L 100.326033 69.925487 
L 101.18372 82.385764 
L 102.041406 66.499178 
L 102.899092 80.436045 
L 103.756778 73.049964 
L 104.614464 90.404117 
L 106.329836 72.799583 
L 107.187522 93.610085 
L 108.045209 59.595481 
L 108.902895 76.99171 
L 109.760581 85.763117 
L 110.618267 80.927874 
L 111.475953 85.972912 
L 112.333639 88.878914 
L 113.191325 79.899199 
L 114.049012 74.930077 
L 114.906698 82.017933 
L 115.764384 67.067989 
L 116.62207 95.367252 
L 117.479756 79.346781 
L 118.337442 74.644449 
L 119.195128 68.00547 
L 120.052814 75.158712 
L 120.910501 84.320716 
L 121.768187 95.035023 
L 122.625873 66.485498 
L 123.483559 85.243663 
L 124.341245 66.622644 
L 125.198931 53.636628 
L 126.056617 74.016316 
L 126.914303 81.897729 
L 127.77199 62.294308 
L 128.629676 57.124863 
L 129.487362 79.693979 
L 130.345048 76.020058 
L 131.202734 97.625427 
L 132.06042 70.181595 
L 132.918106 94.979026 
L 133.775792 77.116854 
L 134.633479 72.438737 
L 135.491165 88.330603 
L 136.348851 74.18353 
L 137.206537 82.840522 
L 138.064223 79.288622 
L 138.921909 92.478737 
L 139.779595 87.908916 
L 140.637281 80.158439 
L 141.494968 67.522206 
L 142.352654 78.353873 
L 143.21034 77.824044 
L 144.068026 91.317385 
L 144.925712 75.38578 
L 145.783398 82.867155 
L 146.641084 74.89659 
L 147.49877 72.760728 
L 148.356457 89.510339 
L 149.214143 52.629092 
L 150.071829 70.060466 
L 150.929515 82.0184 
L 151.787201 61.198362 
L 152.644887 72.568047 
L 153.502573 86.77221 
L 154.360259 91.348663 
L 155.217946 77.95408 
L 156.075632 66.818469 
L 156.933318 48.894327 
L 157.791004 70.23483 
L 158.64869 75.179874 
L 159.506376 72.064892 
L 160.364062 102.226599 
L 161.221748 51.294338 
L 162.079435 47.550529 
L 162.937121 61.978407 
L 163.794807 27.546958 
L 164.652493 76.49953 
L 165.510179 69.91632 
L 166.367865 94.050833 
L 167.225551 72.271926 
L 168.083237 84.747462 
L 168.940924 74.144187 
L 169.79861 74.923613 
L 170.656296 68.020023 
L 171.513982 78.933872 
L 172.371668 68.707308 
L 173.229354 80.91756 
L 174.08704 80.588755 
L 174.944727 66.68246 
L 175.802413 83.442506 
L 176.660099 72.67929 
L 177.517785 77.720725 
L 178.375471 78.987177 
L 179.233157 47.365125 
L 180.090843 51.559138 
L 180.948529 69.444028 
L 181.806216 58.203132 
L 182.663902 69.536374 
L 183.521588 76.557623 
L 184.379274 71.482553 
L 185.23696 72.251707 
L 186.094646 99.048908 
L 186.952332 79.315521 
L 187.810018 67.833267 
L 188.667705 71.682421 
L 189.525391 87.461555 
L 190.383077 73.243198 
L 191.240763 57.092597 
L 192.956135 98.479019 
L 193.813821 56.393466 
L 194.671507 96.438524 
L 195.529194 70.175945 
L 196.38688 78.453453 
L 197.244566 63.477949 
L 198.102252 71.261056 
L 198.959938 65.514809 
L 199.817624 76.351764 
L 200.67531 93.022022 
L 201.532996 101.684682 
L 202.390683 85.796928 
L 203.248369 88.689885 
L 204.106055 69.426103 
L 204.963741 95.521295 
L 205.821427 66.205595 
L 206.679113 94.374882 
L 207.536799 95.946869 
L 208.394485 100.283773 
L 209.252172 96.469202 
L 210.109858 72.840093 
L 210.967544 79.627023 
L 211.82523 89.184645 
L 213.540602 77.934048 
L 214.398288 81.465866 
L 215.255974 79.000269 
L 216.113661 74.353361 
L 216.971347 83.376799 
L 217.829033 85.256705 
L 218.686719 70.429884 
L 219.544405 83.156994 
L 220.402091 101.681785 
L 221.259777 92.046204 
L 222.117463 75.093025 
L 222.97515 97.029384 
L 224.690522 72.13122 
L 225.548208 99.600872 
L 226.405894 56.440233 
L 227.26358 50.027996 
L 228.121266 93.632479 
L 228.978952 69.413923 
L 229.836639 65.183651 
L 230.694325 67.598899 
L 231.552011 78.781507 
L 232.409697 52.858234 
L 233.267383 54.367247 
L 234.125069 84.880744 
L 234.982755 88.914575 
L 235.840442 69.326984 
L 236.698128 99.270495 
L 237.555814 77.872356 
L 238.4135 74.064415 
L 239.271186 99.884071 
L 240.128872 73.333207 
L 240.986558 93.404327 
L 241.844244 82.425956 
L 242.701931 78.258437 
L 243.559617 78.619754 
L 244.417303 57.64741 
L 245.274989 87.184642 
L 246.132675 75.176904 
L 246.990361 70.201668 
L 247.848047 60.039927 
L 248.705733 82.731345 
L 249.56342 54.368677 
L 250.421106 87.665844 
L 251.278792 109.243343 
L 252.136478 85.028349 
L 252.994164 78.671225 
L 253.85185 65.627025 
L 255.567222 99.238091 
L 256.424909 88.135951 
L 257.282595 97.437603 
L 258.140281 60.506481 
L 258.997967 65.113039 
L 259.855653 53.0147 
L 260.713339 86.881414 
L 261.571025 80.841609 
L 262.428711 89.373498 
L 263.286398 96.381944 
L 264.144084 58.436612 
L 265.00177 54.569713 
L 265.859456 64.143468 
L 266.717142 67.535356 
L 267.574828 69.429406 
L 268.432514 60.670936 
L 269.2902 71.874748 
L 270.147887 66.187708 
L 271.005573 67.744482 
L 271.863259 62.913839 
L 272.720945 69.464266 
L 273.578631 87.166244 
L 274.436317 92.794256 
L 275.294003 77.554441 
L 276.151689 79.492123 
L 277.009376 49.35258 
L 277.867062 103.306234 
L 278.724748 85.477623 
L 279.582434 100.996684 
L 280.44012 84.139292 
L 281.297806 89.167861 
L 282.155492 43.852136 
L 283.013178 75.943145 
L 283.870865 63.762937 
L 284.728551 105.955316 
L 285.586237 89.428144 
L 286.443923 92.71703 
L 287.301609 82.076344 
L 288.159295 67.693725 
L 289.016981 81.340079 
L 289.874668 55.754211 
L 290.732354 87.424198 
L 291.59004 68.605382 
L 292.447726 74.917199 
L 293.305412 88.704264 
L 294.163098 74.064364 
L 295.020784 80.568102 
L 295.87847 84.420803 
L 296.736157 99.388568 
L 297.593843 88.164565 
L 298.451529 71.212873 
L 299.309215 91.350129 
L 300.166901 92.8925 
L 301.024587 107.476538 
L 301.882273 59.588751 
L 302.739959 75.970231 
L 303.597646 97.764848 
L 304.455332 77.914625 
L 305.313018 66.062233 
L 306.170704 79.691379 
L 307.02839 78.823322 
L 307.886076 78.589665 
L 308.743762 62.514093 
L 309.601448 86.270267 
L 310.459135 63.828159 
L 311.316821 97.000899 
L 312.174507 71.481715 
L 313.032193 84.73718 
L 313.889879 63.319169 
L 314.747565 83.512608 
L 315.605251 51.190261 
L 316.462937 91.219594 
L 317.320624 65.594597 
L 318.17831 75.419953 
L 319.035996 61.953183 
L 319.893682 79.784804 
L 320.751368 58.65741 
L 321.609054 80.041049 
L 322.46674 71.946978 
L 323.324426 58.721036 
L 324.182113 35.01581 
L 325.039799 88.42489 
L 325.897485 76.950082 
L 326.755171 96.325398 
L 327.612857 68.271622 
L 328.470543 64.630423 
L 329.328229 68.080695 
L 330.185915 99.05046 
L 331.043602 94.899999 
L 331.901288 76.87761 
L 332.758974 89.957385 
L 333.61666 85.613659 
L 334.474346 76.546191 
L 335.332032 72.665316 
L 336.189718 80.326142 
L 337.047404 90.232785 
L 337.905091 60.988686 
L 338.762777 66.638098 
L 339.620463 75.357805 
L 340.478149 64.36846 
L 341.335835 60.917566 
L 342.193521 88.491164 
L 343.051207 49.569726 
L 343.908893 85.123642 
L 344.76658 77.298311 
L 345.624266 79.745477 
L 346.481952 97.279381 
L 347.339638 50.179694 
L 348.197324 101.659031 
L 349.05501 74.006231 
L 349.912696 39.091542 
L 351.628069 99.660618 
L 352.485755 34.18267 
L 353.343441 73.628565 
L 354.201127 91.216616 
L 355.058813 64.187713 
L 355.916499 73.927828 
L 356.774185 101.886067 
L 357.631872 70.530234 
L 358.489558 71.339297 
L 359.347244 57.018341 
L 360.20493 59.876998 
L 361.062616 79.705442 
L 361.920302 92.68193 
L 362.777988 72.15357 
L 363.635674 75.80165 
L 364.493361 61.177978 
L 365.351047 61.137527 
L 366.208733 62.003248 
L 367.066419 72.594818 
L 367.924105 79.640981 
L 368.781791 58.076082 
L 369.639477 61.650908 
L 371.35485 85.65914 
L 372.212536 56.287739 
L 373.070222 96.681807 
L 373.927908 59.97685 
L 374.785594 78.626206 
L 375.64328 75.157777 
L 376.500966 76.827507 
L 377.358652 91.68097 
L 378.216339 80.151801 
L 379.074025 65.782605 
L 379.931711 78.94943 
L 380.789397 61.846145 
L 381.647083 72.465812 
L 382.504769 86.784688 
L 383.362455 89.921693 
L 384.220141 56.426212 
L 385.077828 76.481273 
L 385.935514 82.963422 
L 386.7932 82.94016 
L 387.650886 88.617266 
L 388.508572 86.316263 
L 389.366258 76.135396 
L 390.223944 75.185729 
L 391.08163 75.894296 
L 391.939317 68.063137 
L 392.797003 73.074461 
L 393.654689 82.486864 
L 394.512375 68.03375 
L 395.370061 98.851497 
L 396.227747 104.46599 
L 397.085433 82.517154 
L 397.943119 68.210435 
L 398.800806 60.070277 
L 400.516178 90.933785 
L 401.373864 53.747322 
L 402.23155 87.59603 
L 403.089236 68.631118 
L 403.946922 43.498109 
L 404.804609 83.433666 
L 405.662295 87.556995 
L 406.519981 54.384385 
L 408.235353 102.410655 
L 409.093039 84.252826 
L 409.950725 84.509773 
L 410.808411 85.966521 
L 411.666098 83.158239 
L 412.523784 61.851806 
L 413.38147 69.183724 
L 414.239156 78.537958 
L 415.096842 66.46329 
L 415.954528 65.839335 
L 416.812214 53.328023 
L 417.6699 80.643049 
L 418.527587 60.660987 
L 419.385273 80.346361 
L 420.242959 95.722134 
L 421.100645 87.761344 
L 421.958331 62.267487 
L 422.816017 88.226629 
L 423.673703 89.409599 
L 424.531389 80.675678 
L 425.389076 79.497844 
L 426.246762 72.21719 
L 427.104448 69.177106 
L 427.962134 72.276752 
L 429.677506 67.601044 
L 430.535192 76.986758 
L 431.392878 84.071343 
L 432.250565 92.644246 
L 433.108251 70.717012 
L 433.965937 76.568414 
L 434.823623 52.338001 
L 435.681309 61.919611 
L 436.538995 79.225067 
L 437.396681 65.337738 
L 438.254367 84.792734 
L 439.112054 62.43561 
L 439.96974 63.266426 
L 440.827426 88.663856 
L 441.685112 78.582953 
L 442.542798 86.841928 
L 443.400484 89.007362 
L 444.25817 78.116177 
L 445.115856 72.722526 
L 445.973543 80.390318 
L 446.831229 78.379446 
L 447.688915 87.631515 
L 448.546601 69.277981 
L 449.404287 70.140691 
L 450.261973 93.613873 
L 451.119659 76.193644 
L 451.977345 83.766811 
L 452.835032 64.397409 
L 453.692718 68.401363 
L 454.550404 55.506775 
L 455.40809 85.575992 
L 457.123462 70.196402 
L 457.981148 57.644544 
L 458.838834 91.635923 
L 459.696521 91.72186 
L 460.554207 58.56935 
L 461.411893 87.49024 
L 462.269579 68.609702 
L 463.127265 80.070619 
L 463.984951 67.836097 
L 464.842637 79.453366 
L 465.700324 75.246113 
L 466.55801 56.235028 
L 467.415696 99.501783 
L 468.273382 75.130197 
L 469.131068 95.213423 
L 469.988754 80.793987 
L 470.84644 85.777816 
L 471.704126 97.789622 
L 472.561813 76.259455 
L 473.419499 64.645829 
L 474.277185 86.119261 
L 475.992557 51.095453 
L 476.850243 48.05293 
L 477.707929 82.751413 
L 478.565615 65.976782 
L 479.423302 70.744481 
L 480.280988 61.257898 
L 481.138674 92.789461 
L 481.99636 76.349755 
L 482.854046 55.687223 
L 483.711732 69.580581 
L 484.569418 61.154184 
L 485.427104 86.405467 
L 486.284791 84.57929 
L 487.142477 58.555644 
L 488.000163 77.793217 
L 488.857849 83.89244 
L 489.715535 111.559301 
L 490.573221 68.189333 
L 491.430907 98.686156 
L 492.288593 72.5561 
L 493.14628 90.487683 
L 494.003966 81.573258 
L 494.861652 85.09416 
L 495.719338 76.779608 
L 496.577024 65.638953 
L 497.43471 84.241497 
L 498.292396 90.191829 
L 499.150082 80.022278 
L 500.007769 71.411448 
L 500.865455 89.458163 
L 501.723141 75.380979 
L 502.580827 65.433237 
L 503.438513 82.192478 
L 504.296199 72.749026 
L 505.153885 90.225394 
L 506.011571 80.558544 
L 506.869258 59.671066 
L 507.726944 77.756945 
L 508.58463 56.770298 
L 509.442316 48.693487 
L 510.300002 78.245596 
L 511.157688 102.668159 
L 512.015374 63.115095 
L 512.87306 64.370662 
L 513.730747 76.07909 
L 514.588433 56.424914 
L 515.446119 98.497339 
L 516.303805 79.855703 
L 517.161491 67.234602 
L 518.019177 79.129447 
L 518.876863 97.399337 
L 519.73455 79.308663 
L 520.592236 68.213744 
L 521.449922 76.554192 
L 522.307608 82.601673 
L 523.165294 94.059853 
L 524.02298 87.371249 
L 524.880666 88.354944 
L 525.738352 88.219952 
L 526.596039 85.657317 
L 527.453725 85.454383 
L 528.311411 88.952737 
L 529.169097 81.622541 
L 530.026783 66.221046 
L 530.884469 92.944371 
L 531.742155 77.112312 
L 532.599841 82.211257 
L 533.457528 102.005276 
L 534.315214 75.2984 
L 535.1729 57.158811 
L 536.030586 63.405107 
L 536.888272 81.315571 
L 537.745958 59.945626 
L 538.603644 85.24833 
L 539.46133 90.167793 
L 540.319017 77.124711 
L 541.176703 70.161674 
L 542.034389 52.488438 
L 542.892075 81.833649 
L 543.749761 69.619441 
L 544.607447 45.239189 
L 545.465133 57.894449 
L 546.322819 67.543561 
L 547.180506 74.841056 
L 548.038192 45.52885 
L 548.895878 74.750782 
L 549.753564 71.762584 
L 550.61125 78.803633 
L 551.468936 79.171648 
L 552.326622 80.033858 
L 553.184308 108.323127 
L 554.041995 66.873673 
L 554.899681 82.901736 
L 555.757367 56.692432 
L 556.615053 79.456304 
L 557.472739 84.674299 
L 558.330425 64.57916 
L 559.188111 54.793293 
L 560.045797 68.755623 
L 560.903484 71.921221 
L 561.76117 79.750497 
L 562.618856 77.805942 
L 563.476542 80.240961 
L 564.334228 78.643948 
L 565.191914 114.895538 
L 566.0496 82.192478 
L 566.907286 89.394145 
L 567.764973 92.030251 
L 568.622659 80.156088 
L 569.480345 77.191857 
L 570.338031 86.49024 
L 571.195717 85.735602 
L 572.911089 52.206662 
L 573.768775 74.466538 
L 574.626462 71.972695 
L 575.484148 64.332853 
L 576.341834 64.222151 
L 576.341834 64.222151 
" style="fill:none;stroke:#0271ae;stroke-linecap:square;stroke-width:3;"/>
   </g>
   <g id="text_4">
    <!-- Some aperiodic signals -->
    <g transform="translate(238.326036 17.179529)scale(0.14 -0.14)">
     <defs>
      <path d="M 44.703125 52.671875 
C 44.703125 57.984375 45.09375 61.375 46.09375 66.78125 
C 38.09375 70 33.59375 71 28.09375 71 
C 13.203125 71 2.40625 61.578125 2.40625 48.46875 
C 2.40625 43.5625 3.703125 39.953125 6.59375 37.25 
C 10 34.15625 14.59375 32.546875 24.296875 31.25 
C 32 30.140625 35.5 29.046875 38.09375 26.734375 
C 40.703125 24.640625 41.90625 21.734375 41.90625 17.921875 
C 41.90625 8.921875 34.40625 2.40625 24 2.40625 
C 16 2.40625 8.203125 6.3125 7.703125 10.40625 
L 6.90625 17.125 
L 3.703125 17.125 
C 3.796875 15.3125 3.796875 13.71875 3.796875 13.125 
C 3.796875 8.515625 3.59375 6.3125 3 1.8125 
C 8.703125 -0.703125 14.5 -2 20.296875 -2 
C 37.703125 -2 50.296875 8.515625 50.296875 23.03125 
C 50.296875 27.734375 49 31.046875 46.203125 33.640625 
C 42.703125 36.9375 38.5 38.25 27.296875 39.75 
C 15.09375 41.34375 10.796875 44.65625 10.796875 52.375 
C 10.796875 60.78125 17.09375 66.78125 25.90625 66.78125 
C 29.796875 66.78125 33.5 65.984375 36.203125 64.484375 
C 39.5 62.78125 40.59375 61.28125 40.90625 58.390625 
L 41.5 52.671875 
z
" id="URW_Palladio_L_Roman-83"/>
      <path d="M 27.90625 47 
C 13.296875 47 3.203125 36.671875 3.203125 21.75 
C 3.203125 7.609375 12.09375 -2 25 -2 
C 40.40625 -2 51.40625 8.71875 51.40625 23.75 
C 51.40625 37.28125 41.59375 47 27.90625 47 
z
M 26.09375 43.6875 
C 35.296875 43.6875 42.09375 33.671875 42.09375 20.046875 
C 42.09375 8.515625 37 1.296875 28.90625 1.296875 
C 19.09375 1.296875 12.5 10.921875 12.5 25.15625 
C 12.5 37.171875 17.296875 43.6875 26.09375 43.6875 
z
" id="URW_Palladio_L_Roman-111"/>
      <path d="M 1.796875 40.078125 
L 5.5 40.078125 
C 9.5 40.078125 9.90625 39.375 9.90625 32.71875 
L 9.90625 10.046875 
C 9.90625 3.703125 9.59375 3 6.203125 3 
L 1.59375 3 
L 1.59375 -0.109375 
C 11.203125 -0.109375 11.5 -0.109375 14.296875 -0.109375 
C 17.09375 -0.109375 19.703125 -0.109375 26.203125 -0.109375 
L 26.203125 2.796875 
L 22 3.203125 
C 18.59375 3.203125 18.296875 3.90625 18.296875 10.21875 
L 18.296875 31.46875 
C 18.296875 35.96875 24.90625 40.875 30.90625 40.875 
C 36.296875 40.875 40 35.734375 40 28.09375 
L 40 10.046875 
C 40 3.703125 39.703125 3 36.296875 3 
L 31.703125 3 
L 31.703125 -0.109375 
C 41.703125 -0.109375 41.703125 -0.109375 44.203125 -0.109375 
C 46.703125 -0.109375 46.703125 -0.109375 56.703125 -0.109375 
L 56.703125 3 
L 52.09375 3 
C 48.703125 3 48.40625 3.703125 48.40625 10.046875 
L 48.40625 31.421875 
C 48.40625 35.9375 55 40.875 61 40.875 
C 66.40625 40.875 70.09375 35.796875 70.09375 28.21875 
L 70.09375 -0.109375 
C 76.203125 -0.109375 76.296875 -0.109375 78 -0.109375 
C 79.296875 -0.109375 79.296875 -0.109375 86.90625 -0.109375 
L 86.90625 3 
L 82.203125 3 
C 78.796875 3 78.5 3.703125 78.5 10.046875 
L 78.5 30.78125 
C 78.5 40.75 72.703125 47 63.5 47 
C 60 47 57.09375 46.09375 55.296875 44.484375 
L 47.703125 37.6875 
C 44.5 44.28125 40.40625 47 33.5 47 
C 29.796875 47 27 46.09375 25.203125 44.484375 
L 18.296875 38.078125 
L 18.296875 46.59375 
L 17.40625 47 
C 12.296875 44.890625 7.09375 43.484375 1.796875 42.890625 
z
" id="URW_Palladio_L_Roman-109"/>
      <path d="M 43.703125 6.984375 
L 42.40625 7.984375 
C 36 4.203125 33.703125 3.3125 29.40625 3.3125 
C 22.90625 3.3125 17.5 6.21875 14.703125 11.109375 
C 12.796875 14.390625 12.09375 17.203125 11.90625 23 
L 26.5 23 
C 33.40625 23 37.703125 23 44.59375 24.125 
C 44.703125 25.53125 44.796875 26.453125 44.796875 27.671875 
C 44.796875 39.375 37.40625 47 26.203125 47 
C 22.5 47 18.203125 45.6875 14.09375 43.28125 
C 5.90625 38.578125 2.59375 32.359375 2.59375 21.9375 
C 2.59375 15.625 4.09375 10.21875 6.796875 6.40625 
C 10.796875 1.109375 17.5 -2 25 -2 
C 28.703125 -2 32.40625 -1.203125 36.5 0.578125 
C 39.203125 1.6875 41.296875 2.984375 41.703125 3.59375 
z
M 35.90625 26.40625 
C 30.703125 26.40625 28.296875 26.40625 24.703125 26.40625 
C 20.09375 26.40625 17.5 26.40625 12.09375 26.90625 
C 12.09375 31.671875 12.5 33.890625 13.796875 36.515625 
C 15.90625 40.96875 20.203125 43.6875 25 43.6875 
C 28.296875 43.6875 30.90625 42.359375 32.703125 39.59375 
C 34.90625 36.234375 35.59375 33.265625 35.90625 26.40625 
z
" id="URW_Palladio_L_Roman-101"/>
      <path d="M 32.40625 8.40625 
L 31.90625 -0.015625 
C 38.40625 -0.015625 38.40625 -0.015625 39.703125 -0.015625 
C 40.203125 -0.015625 42.703125 -0.015625 47.09375 -0.015625 
L 47.09375 3 
L 43.203125 3 
C 40.796875 3 40.40625 3.8125 40.40625 8.71875 
L 40.40625 27.046875 
C 40.40625 41.6875 36.203125 47 24.59375 47 
C 20.296875 47 16.296875 45.890625 12.5 43.609375 
L 7.203125 40.390625 
L 7.203125 33.921875 
L 9.796875 33.21875 
L 11.09375 36.296875 
C 13.203125 40.984375 14.203125 41.6875 18.796875 41.6875 
C 28.203125 41.6875 32.09375 37.984375 32.40625 28.9375 
L 22.5 27.125 
C 8.90625 24.640625 3.203125 19.953125 3.203125 11.28125 
C 3.203125 3.5 7.90625 -1 15.796875 -1 
C 17.59375 -1 19.296875 -0.703125 20 -0.203125 
z
M 32.40625 12.59375 
C 29.5 8.5 23.203125 4.71875 19.296875 4.71875 
C 15.296875 4.71875 11.796875 8.40625 11.796875 12.6875 
C 11.796875 16.375 13.796875 19.859375 16.796875 21.75 
C 19.296875 23.25 24.796875 24.640625 32.40625 25.75 
z
" id="URW_Palladio_L_Roman-97"/>
      <path d="M 1 40.078125 
L 4.703125 40.078125 
C 8.703125 40.078125 9.09375 39.375 9.09375 32.734375 
L 9.09375 -17.84375 
C 9.09375 -24.1875 8.796875 -24.890625 5.40625 -24.890625 
L 0.796875 -24.890625 
L 0.796875 -28 
C 10.796875 -28 10.796875 -28 13.296875 -28 
C 15.796875 -28 15.796875 -28 25.796875 -28 
L 25.796875 -24.890625 
L 21.203125 -24.890625 
C 17.796875 -24.890625 17.5 -24.171875 17.5 -17.78125 
L 17.5 1.390625 
C 20.5 -0.40625 23.703125 -1.109375 28.203125 -1.109375 
C 31.09375 -1.109375 33.703125 -0.5 35.296875 0.5 
L 46.703125 7.890625 
C 50.703125 10.5 55.40625 20.78125 55.40625 27.1875 
C 55.40625 38.296875 46.203125 47 34.59375 47 
C 30.90625 47 27.296875 45.984375 25.703125 44.484375 
L 17.5 36.984375 
L 17.5 46.59375 
L 16.59375 47 
C 11.5 44.890625 6.296875 43.484375 1 42.890625 
z
M 17.5 30.6875 
C 17.5 32.078125 18 33.1875 19.296875 34.890625 
C 22.203125 38.578125 26.296875 40.484375 31.296875 40.484375 
C 40.703125 40.484375 46.703125 33.890625 46.703125 23.5 
C 46.703125 12.296875 40 4 31 4 
C 25.5 4 21.40625 5.8125 17.5 9.890625 
z
" id="URW_Palladio_L_Roman-112"/>
      <path d="M 2.296875 40.078125 
L 6 40.078125 
C 10 40.078125 10.40625 39.375 10.40625 32.71875 
L 10.40625 10.046875 
C 10.40625 3.703125 10.09375 3 6.703125 3 
L 2.09375 3 
L 2.09375 -0.109375 
C 9.296875 -0.109375 11.90625 -0.109375 14.40625 -0.109375 
C 16.40625 -0.109375 16.40625 -0.109375 28.703125 -0.109375 
L 28.703125 3 
L 23.5 3 
C 19 3 18.796875 3.296875 18.796875 9.96875 
L 18.796875 27.359375 
C 18.796875 33.421875 22.796875 38.484375 27.703125 38.484375 
C 30.703125 38.484375 32.796875 37.078125 34.40625 33.890625 
L 36.5 33.890625 
L 37.40625 45.890625 
C 36.296875 46.59375 34.5 47 32.703125 47 
C 29.703125 47 26.5 45.390625 24.40625 42.890625 
L 18.796875 36.28125 
L 18.796875 46.59375 
L 17.90625 47 
C 12.796875 44.890625 7.59375 43.484375 2.296875 42.890625 
z
" id="URW_Palladio_L_Roman-114"/>
      <path d="M 18.796875 46.765625 
L 17.90625 47.171875 
C 12.796875 45.0625 7.59375 43.640625 2.296875 43.046875 
L 2.296875 40.25 
L 6 40.25 
C 10 40.25 10.40625 39.546875 10.40625 32.890625 
L 10.40625 10.171875 
C 10.40625 3.8125 10.09375 3.109375 6.703125 3.109375 
L 2.09375 3.109375 
L 2.09375 0 
C 12.09375 0 12.09375 0 14.59375 0 
C 17.09375 0 17.09375 0 27.09375 0 
L 27.09375 3.109375 
L 22.5 3.109375 
C 19.09375 3.109375 18.796875 3.8125 18.796875 10.171875 
z
M 14.203125 69 
C 11.203125 69 8.59375 66.390625 8.59375 63.375 
C 8.59375 60.46875 11.203125 57.875 14.09375 57.875 
C 17 57.875 19.703125 60.46875 19.703125 63.375 
C 19.703125 66.1875 17 69 14.203125 69 
z
" id="URW_Palladio_L_Roman-105"/>
      <path d="M 41.203125 43.78125 
C 35.59375 46.1875 32.796875 47 29.296875 47 
C 26.59375 47 24.203125 46.390625 21.703125 45.109375 
L 12.90625 40.515625 
C 7.203125 37.515625 3.5 30.234375 3.5 21.75 
C 3.5 13.765625 6.203125 7.1875 11.09375 3.1875 
C 14.5 0.296875 19.203125 -1 25.703125 -1 
C 27.703125 -1 30 -0.59375 30.5 -0.203125 
L 41.59375 9.109375 
L 41.09375 -0.109375 
C 46 -0.109375 47.59375 -0.109375 48.796875 -0.109375 
C 49.59375 -0.109375 51 -0.109375 53.09375 -0.109375 
C 53.796875 -0.109375 55.796875 -0.109375 57.90625 -0.109375 
L 57.90625 3 
L 53.296875 3 
C 49.90625 3 49.59375 3.703125 49.59375 10.046875 
L 49.59375 71.984375 
L 48.703125 72.796875 
C 44.296875 71.09375 41 70.28125 33.09375 69.078125 
L 33.09375 66.28125 
L 38.703125 66.28125 
C 40.5 66.28125 41.203125 65.171875 41.203125 62.15625 
z
M 41.203125 22.25 
C 41.203125 15.765625 41 14.78125 39.703125 12.484375 
C 36.90625 7.796875 32 4.71875 27.296875 4.71875 
C 18.5 4.71875 12.203125 13.1875 12.203125 25.046875 
C 12.203125 35.90625 17.59375 42.28125 26.59375 42.28125 
C 30.40625 42.28125 34.40625 40.984375 37.90625 38.59375 
C 40 37.203125 41.203125 35.90625 41.203125 35.09375 
z
" id="URW_Palladio_L_Roman-100"/>
      <path d="M 39.90625 31.15625 
C 39.90625 35.765625 40.40625 39.875 41.296875 43.484375 
C 37.296875 45.890625 33.796875 47 29.703125 47 
C 24.90625 47 19.296875 45.09375 13.296875 41.28125 
C 6.296875 36.875 2.59375 29.859375 2.59375 21.046875 
C 2.59375 7.515625 12.09375 -2 25.5 -2 
C 30.703125 -2 38.203125 -0.09375 39.203125 1.40625 
L 41.296875 4.609375 
L 40.296875 6.109375 
C 36.59375 4.109375 33.40625 3.203125 29.796875 3.203125 
C 18.703125 3.203125 11.40625 11.828125 11.40625 25.046875 
C 11.40625 35.765625 16.40625 41.78125 25.40625 41.78125 
C 29.796875 41.78125 34.59375 39.78125 36.40625 37.28125 
L 37.09375 31.15625 
z
" id="URW_Palladio_L_Roman-99"/>
      <path d="M 4.09375 14.328125 
C 4.09375 7.421875 3.796875 4.40625 3 0.40625 
C 8.203125 -1.296875 12.09375 -2 16.703125 -2 
C 29.796875 -2 39.09375 5.015625 39.09375 14.828125 
C 39.09375 17.9375 38.203125 20.234375 36.296875 22.25 
C 33.703125 24.75 30.40625 25.953125 21.59375 27.65625 
C 13.40625 29.265625 10.703125 31.265625 10.703125 35.875 
C 10.703125 40.875 14.203125 43.6875 20.296875 43.6875 
C 27 43.6875 32.09375 40.1875 32.09375 35.46875 
L 32.09375 33.171875 
L 34.90625 33.171875 
C 35 38.984375 35.09375 41.375 35.40625 44.484375 
C 30.09375 46.296875 26.5 47 22.40625 47 
C 10.796875 47 3.703125 41.484375 3.703125 32.46875 
C 3.703125 27.65625 5.90625 24.25 10.5 22.140625 
C 13.203125 20.9375 18.5 19.34375 25.296875 17.828125 
C 29.796875 16.828125 31.703125 14.734375 31.703125 10.921875 
C 31.703125 5.515625 26.703125 1.703125 19.59375 1.703125 
C 12.296875 1.703125 7.09375 5.203125 7.09375 10.21875 
L 7.09375 14.328125 
z
" id="URW_Palladio_L_Roman-115"/>
      <path d="M 51.90625 38 
L 54.40625 42.109375 
L 54 43.109375 
L 39.796875 43.109375 
C 36.09375 45.890625 32.5 47 27.59375 47 
C 23.203125 47 18.09375 45.625 14 43.25 
C 8.40625 40.109375 5.5 35.28125 5.5 29.28125 
C 5.5 22 10.09375 16.984375 17.5 16.1875 
L 9.59375 10 
C 8.59375 8.484375 8.09375 7.171875 8.09375 5.640625 
C 8.09375 2.8125 9.90625 1.1875 14.703125 -0.21875 
L 6 -4.9375 
C 4.59375 -5.734375 3.203125 -9.4375 3.203125 -12.546875 
C 3.203125 -21.6875 12.09375 -28 24.796875 -28 
C 39.90625 -28 51.796875 -18.46875 51.796875 -6.234375 
C 51.796875 0.984375 47 6 40 6 
L 24 6 
C 18.796875 6 16.40625 7.21875 16.40625 9.984375 
C 16.40625 11.3125 17.203125 12.421875 19.796875 14.671875 
C 20.40625 15.1875 20.59375 15.390625 21 15.796875 
C 22 15.6875 22.59375 15.59375 23.40625 15.59375 
C 27.703125 15.59375 33 17.46875 37.09375 20.3125 
C 41.59375 23.546875 43.796875 27.484375 43.796875 32.703125 
C 43.796875 34.65625 43.5 35.9375 42.703125 38 
z
M 24 43.59375 
C 30.796875 43.59375 35.40625 38.09375 35.40625 29.765625 
C 35.40625 23.421875 31.203125 19 25.09375 19 
C 18.40625 19 13.90625 24.09375 13.90625 31.640625 
C 13.90625 39.171875 17.59375 43.59375 24 43.59375 
z
M 28.703125 -1.015625 
C 40 -1.015625 43.90625 -3.3125 43.90625 -9.84375 
C 43.90625 -18.46875 36 -24.890625 25.5 -24.890625 
C 16.796875 -24.890625 10.796875 -19.78125 10.796875 -12.34375 
C 10.796875 -7.84375 13.40625 -3.71875 17.40625 -2.015625 
C 19 -1.21875 21.796875 -1.015625 28.703125 -1.015625 
z
" id="URW_Palladio_L_Roman-103"/>
      <path d="M 41 -0.109375 
C 47.09375 -0.109375 47.203125 -0.109375 48.90625 -0.109375 
C 50.296875 -0.109375 50.296875 -0.109375 57.203125 -0.109375 
L 57.203125 2.796875 
L 53.09375 3.203125 
C 49.703125 3.203125 49.40625 3.8125 49.40625 10.21875 
L 49.40625 29.5625 
C 49.40625 41.28125 43.90625 47 32.703125 47 
C 29 47 26.90625 46.296875 24.796875 44.484375 
L 17.203125 37.875 
L 17.203125 46.59375 
L 16.296875 47 
C 11.203125 44.890625 6 43.484375 0.703125 42.890625 
L 0.703125 40.078125 
L 4.40625 40.078125 
C 8.40625 40.078125 8.796875 39.375 8.796875 32.71875 
L 8.796875 10.046875 
C 8.796875 3.703125 8.5 3 5.09375 3 
L 0.59375 3 
L 0.59375 -0.109375 
C 7.40625 -0.109375 10.09375 -0.109375 13 -0.109375 
C 15.90625 -0.109375 18.59375 -0.109375 25.40625 -0.109375 
L 25.40625 3 
L 20.90625 3 
C 17.5 3 17.203125 3.703125 17.203125 10.046875 
L 17.203125 31.421875 
C 17.203125 35.9375 23.796875 40.875 29.90625 40.875 
C 36.59375 40.875 41 35.890625 41 28.21875 
z
" id="URW_Palladio_L_Roman-110"/>
      <path d="M 2.296875 66.5 
L 7.90625 66.5 
C 9.703125 66.5 10.40625 65.390625 10.40625 62.375 
L 10.40625 10.171875 
C 10.40625 3.8125 10.09375 3.109375 6.703125 3.109375 
L 2.09375 3.109375 
L 2.09375 0 
C 12.09375 0 12.09375 0 14.59375 0 
C 17.09375 0 17.09375 0 27.09375 0 
L 27.09375 3.109375 
L 22.5 3.109375 
C 19.09375 3.109375 18.796875 3.8125 18.796875 10.15625 
L 18.796875 72.203125 
L 17.90625 73.015625 
C 13.5 71.3125 10.203125 70.5 2.296875 69.296875 
z
" id="URW_Palladio_L_Roman-108"/>
     </defs>
     <use transform="scale(0.996264)" xlink:href="#URW_Palladio_L_Roman-83"/>
     <use transform="translate(52.303815 0)scale(0.996264)" xlink:href="#URW_Palladio_L_Roman-111"/>
     <use transform="translate(106.699395 0)scale(0.996264)" xlink:href="#URW_Palladio_L_Roman-109"/>
     <use transform="translate(194.669069 0)scale(0.996264)" xlink:href="#URW_Palladio_L_Roman-101"/>
     <use transform="translate(267.295965 0)scale(0.996264)" xlink:href="#URW_Palladio_L_Roman-97"/>
     <use transform="translate(317.109165 0)scale(0.996264)" xlink:href="#URW_Palladio_L_Roman-112"/>
     <use transform="translate(376.983559 0)scale(0.996264)" xlink:href="#URW_Palladio_L_Roman-101"/>
     <use transform="translate(424.703854 0)scale(0.996264)" xlink:href="#URW_Palladio_L_Roman-114"/>
     <use transform="translate(464.05575 0)scale(0.996264)" xlink:href="#URW_Palladio_L_Roman-105"/>
     <use transform="translate(493.046112 0)scale(0.996264)" xlink:href="#URW_Palladio_L_Roman-111"/>
     <use transform="translate(547.441692 0)scale(0.996264)" xlink:href="#URW_Palladio_L_Roman-100"/>
     <use transform="translate(608.313323 0)scale(0.996264)" xlink:href="#URW_Palladio_L_Roman-105"/>
     <use transform="translate(637.303684 0)scale(0.996264)" xlink:href="#URW_Palladio_L_Roman-99"/>
     <use transform="translate(706.443853 0)scale(0.996264)" xlink:href="#URW_Palladio_L_Roman-115"/>
     <use transform="translate(748.685319 0)scale(0.996264)" xlink:href="#URW_Palladio_L_Roman-105"/>
     <use transform="translate(777.675681 0)scale(0.996264)" xlink:href="#URW_Palladio_L_Roman-103"/>
     <use transform="translate(833.067358 0)scale(0.996264)" xlink:href="#URW_Palladio_L_Roman-110"/>
     <use transform="translate(891.049419 0)scale(0.996264)" xlink:href="#URW_Palladio_L_Roman-97"/>
     <use transform="translate(940.862619 0)scale(0.996264)" xlink:href="#URW_Palladio_L_Roman-108"/>
     <use transform="translate(969.852981 0)scale(0.996264)" xlink:href="#URW_Palladio_L_Roman-115"/>
    </g>
   </g>
   <g id="legend_1">
    <g id="patch_3">
     <path d="M 50.945691 55.950514 
L 170.480182 55.950514 
Q 173.280182 55.950514 173.280182 53.150514 
L 173.280182 32.979529 
Q 173.280182 30.179529 170.480182 30.179529 
L 50.945691 30.179529 
Q 48.145691 30.179529 48.145691 32.979529 
L 48.145691 53.150514 
Q 48.145691 55.950514 50.945691 55.950514 
z
" style="fill:#ffffff;opacity:0.95;stroke:#cccccc;stroke-linejoin:miter;stroke-width:0.5;"/>
    </g>
    <g id="line2d_22">
     <path d="M 53.745691 41.517342 
L 67.745691 41.517342 
" style="fill:none;stroke:#0271ae;stroke-linecap:square;stroke-width:3;"/>
    </g>
    <g id="line2d_23"/>
    <g id="text_5">
     <!-- Random noise -->
     <g transform="translate(78.945691 46.417342)scale(0.14 -0.14)">
      <defs>
       <path d="M 21.59375 64.796875 
C 25 65.59375 28 66 31.40625 66 
C 41.796875 66 47.59375 61.171875 47.59375 52.609375 
C 47.59375 43.359375 40.296875 37.515625 28.703125 37.515625 
C 28 37.515625 27.09375 37.515625 25.796875 37.609375 
L 25.203125 36.40625 
C 26.296875 35.09375 26.59375 34.703125 27.796875 33.390625 
C 29.203125 31.796875 29.5 31.390625 30.40625 30.1875 
L 48.796875 5.40625 
C 49.40625 4.609375 50 3.796875 50.59375 3.109375 
C 51.296875 2.203125 51.90625 1.296875 52.90625 0 
C 57.59375 0 58.59375 0 59.703125 0 
C 60.59375 0 60.59375 0 66.90625 0 
L 66.90625 2.90625 
C 63.703125 3.203125 62.09375 3.8125 60.796875 5.53125 
L 38.09375 35.296875 
C 43.703125 36.703125 46.296875 37.796875 49.59375 40.09375 
C 54.796875 43.796875 57.59375 48.796875 57.59375 54.609375 
C 57.59375 64.203125 50.59375 69.609375 38.203125 69.609375 
L 36.59375 69.609375 
C 23.59375 69.609375 23.59375 69.609375 20.203125 69.609375 
C 16.90625 69.609375 16.90625 69.609375 2.90625 69.609375 
L 2.90625 66.796875 
L 7 66.296875 
C 11.59375 66.296875 12.09375 65.375 12.09375 57.484375 
L 12.09375 12.015625 
C 12.09375 4.015625 11.59375 3.203125 7 3.203125 
L 2.203125 3.203125 
L 2.203125 0 
C 8.09375 0 11.59375 0 16.796875 0 
C 22 0 25.59375 0 31.5 0 
L 31.5 3.203125 
L 26.703125 3.203125 
C 22.09375 3.203125 21.59375 4 21.59375 12 
z
" id="URW_Palladio_L_Roman-82"/>
      </defs>
      <use transform="scale(0.996264)" xlink:href="#URW_Palladio_L_Roman-82"/>
      <use transform="translate(66.549694 0)scale(0.996264)" xlink:href="#URW_Palladio_L_Roman-97"/>
      <use transform="translate(116.362895 0)scale(0.996264)" xlink:href="#URW_Palladio_L_Roman-110"/>
      <use transform="translate(174.344955 0)scale(0.996264)" xlink:href="#URW_Palladio_L_Roman-100"/>
      <use transform="translate(235.216586 0)scale(0.996264)" xlink:href="#URW_Palladio_L_Roman-111"/>
      <use transform="translate(289.612166 0)scale(0.996264)" xlink:href="#URW_Palladio_L_Roman-109"/>
      <use transform="translate(402.488441 0)scale(0.996264)" xlink:href="#URW_Palladio_L_Roman-110"/>
      <use transform="translate(460.470501 0)scale(0.996264)" xlink:href="#URW_Palladio_L_Roman-111"/>
      <use transform="translate(514.866081 0)scale(0.996264)" xlink:href="#URW_Palladio_L_Roman-105"/>
      <use transform="translate(543.856443 0)scale(0.996264)" xlink:href="#URW_Palladio_L_Roman-115"/>
      <use transform="translate(586.097909 0)scale(0.996264)" xlink:href="#URW_Palladio_L_Roman-101"/>
     </g>
    </g>
   </g>
  </g>
  <g id="axes_2">
   <g id="patch_4">
    <path d="M 41.145691 230.651311 
L 577.19952 230.651311 
L 577.19952 134.567873 
L 41.145691 134.567873 
z
" style="fill:none;"/>
   </g>
   <g id="matplotlib.axis_3">
    <g id="xtick_8">
     <g id="line2d_24">
      <path clip-path="url(#pec11066d41)" d="M 41.145691 230.651311 
L 41.145691 134.567873 
" style="fill:none;stroke:#000000;stroke-linecap:square;stroke-opacity:0.2;stroke-width:0.5;"/>
     </g>
     <g id="line2d_25">
      <g>
       <use style="fill-opacity:0.2;stroke:#000000;stroke-opacity:0.2;stroke-width:0.8;" x="41.145691" xlink:href="#m24e6e6532c" y="230.651311"/>
      </g>
     </g>
    </g>
    <g id="xtick_9">
     <g id="line2d_26">
      <path clip-path="url(#pec11066d41)" d="M 126.914303 230.651311 
L 126.914303 134.567873 
" style="fill:none;stroke:#000000;stroke-linecap:square;stroke-opacity:0.2;stroke-width:0.5;"/>
     </g>
     <g id="line2d_27">
      <g>
       <use style="fill-opacity:0.2;stroke:#000000;stroke-opacity:0.2;stroke-width:0.8;" x="126.914303" xlink:href="#m24e6e6532c" y="230.651311"/>
      </g>
     </g>
    </g>
    <g id="xtick_10">
     <g id="line2d_28">
      <path clip-path="url(#pec11066d41)" d="M 212.682916 230.651311 
L 212.682916 134.567873 
" style="fill:none;stroke:#000000;stroke-linecap:square;stroke-opacity:0.2;stroke-width:0.5;"/>
     </g>
     <g id="line2d_29">
      <g>
       <use style="fill-opacity:0.2;stroke:#000000;stroke-opacity:0.2;stroke-width:0.8;" x="212.682916" xlink:href="#m24e6e6532c" y="230.651311"/>
      </g>
     </g>
    </g>
    <g id="xtick_11">
     <g id="line2d_30">
      <path clip-path="url(#pec11066d41)" d="M 298.451529 230.651311 
L 298.451529 134.567873 
" style="fill:none;stroke:#000000;stroke-linecap:square;stroke-opacity:0.2;stroke-width:0.5;"/>
     </g>
     <g id="line2d_31">
      <g>
       <use style="fill-opacity:0.2;stroke:#000000;stroke-opacity:0.2;stroke-width:0.8;" x="298.451529" xlink:href="#m24e6e6532c" y="230.651311"/>
      </g>
     </g>
    </g>
    <g id="xtick_12">
     <g id="line2d_32">
      <path clip-path="url(#pec11066d41)" d="M 384.220141 230.651311 
L 384.220141 134.567873 
" style="fill:none;stroke:#000000;stroke-linecap:square;stroke-opacity:0.2;stroke-width:0.5;"/>
     </g>
     <g id="line2d_33">
      <g>
       <use style="fill-opacity:0.2;stroke:#000000;stroke-opacity:0.2;stroke-width:0.8;" x="384.220141" xlink:href="#m24e6e6532c" y="230.651311"/>
      </g>
     </g>
    </g>
    <g id="xtick_13">
     <g id="line2d_34">
      <path clip-path="url(#pec11066d41)" d="M 469.988754 230.651311 
L 469.988754 134.567873 
" style="fill:none;stroke:#000000;stroke-linecap:square;stroke-opacity:0.2;stroke-width:0.5;"/>
     </g>
     <g id="line2d_35">
      <g>
       <use style="fill-opacity:0.2;stroke:#000000;stroke-opacity:0.2;stroke-width:0.8;" x="469.988754" xlink:href="#m24e6e6532c" y="230.651311"/>
      </g>
     </g>
    </g>
    <g id="xtick_14">
     <g id="line2d_36">
      <path clip-path="url(#pec11066d41)" d="M 555.757367 230.651311 
L 555.757367 134.567873 
" style="fill:none;stroke:#000000;stroke-linecap:square;stroke-opacity:0.2;stroke-width:0.5;"/>
     </g>
     <g id="line2d_37">
      <g>
       <use style="fill-opacity:0.2;stroke:#000000;stroke-opacity:0.2;stroke-width:0.8;" x="555.757367" xlink:href="#m24e6e6532c" y="230.651311"/>
      </g>
     </g>
    </g>
   </g>
   <g id="matplotlib.axis_4">
    <g id="ytick_4">
     <g id="line2d_38">
      <path clip-path="url(#pec11066d41)" d="M 41.145691 226.283882 
L 577.19952 226.283882 
" style="fill:none;stroke:#000000;stroke-linecap:square;stroke-opacity:0.2;stroke-width:0.5;"/>
     </g>
     <g id="line2d_39">
      <g>
       <use style="fill-opacity:0.2;stroke:#000000;stroke-opacity:0.2;stroke-width:0.8;" x="41.145691" xlink:href="#m2edc37877e" y="226.283882"/>
      </g>
     </g>
     <g id="text_6">
      <!-- $\mathdefault{0.0}$ -->
      <g transform="translate(8.211071 231.273646)scale(0.14 -0.14)">
       <defs>
        <path d="M 12.40625 11.625 
C 9.40625 11.625 6.703125 8.8125 6.703125 5.8125 
C 6.703125 2.796875 9.40625 0 12.296875 0 
C 15.5 0 18.296875 2.703125 18.296875 5.8125 
C 18.296875 8.8125 15.5 11.625 12.40625 11.625 
z
" id="URW_Palladio_L_Roman-46"/>
       </defs>
       <use transform="scale(0.996264)" xlink:href="#URW_Palladio_L_Roman-48"/>
       <use transform="translate(49.8132 0)scale(0.996264)" xlink:href="#URW_Palladio_L_Roman-46"/>
       <use transform="translate(74.719801 0)scale(0.996264)" xlink:href="#URW_Palladio_L_Roman-48"/>
      </g>
     </g>
    </g>
    <g id="ytick_5">
     <g id="line2d_40">
      <path clip-path="url(#pec11066d41)" d="M 41.145691 191.288457 
L 577.19952 191.288457 
" style="fill:none;stroke:#000000;stroke-linecap:square;stroke-opacity:0.2;stroke-width:0.5;"/>
     </g>
     <g id="line2d_41">
      <g>
       <use style="fill-opacity:0.2;stroke:#000000;stroke-opacity:0.2;stroke-width:0.8;" x="41.145691" xlink:href="#m2edc37877e" y="191.288457"/>
      </g>
     </g>
     <g id="text_7">
      <!-- $\mathdefault{0.5}$ -->
      <g transform="translate(8.211071 196.278222)scale(0.14 -0.14)">
       <defs>
        <path d="M 12.703125 60.578125 
C 25.59375 60.578125 31.203125 60.578125 43.203125 60.578125 
L 43.703125 61.046875 
C 43.5 62.75 43.5 63.5 43.5 64.75 
C 43.5 66.078125 43.5 66.828125 43.703125 68.53125 
L 43.203125 69 
C 35.703125 69 31.203125 69 25.796875 69 
C 20.296875 69 15.90625 69 8.40625 69 
L 7.90625 68.796875 
C 8 62.671875 8.09375 58.265625 8.09375 55.046875 
C 8.09375 46.515625 7.796875 36.875 7.5 32.453125 
L 9.5 31.84375 
C 14.203125 36.578125 16.90625 38 21.796875 38 
C 31.40625 38 37.40625 31.140625 37.40625 20.25 
C 37.40625 9.0625 31 2.5 20.09375 2.5 
C 14.703125 2.5 9.703125 4.328125 8.296875 6.9375 
L 3.703125 15.203125 
L 1.296875 13.796875 
C 3.59375 8.0625 4.796875 4.84375 6.203125 0.421875 
C 9 -1.109375 13 -2 17.296875 -2 
C 24 -2 31.09375 0.921875 36.59375 5.75 
C 42.703125 11.1875 45.90625 18.03125 45.90625 25.46875 
C 45.90625 36.859375 37.796875 44.90625 26.40625 44.90625 
C 21.59375 44.90625 18 43.609375 11.796875 39.90625 
z
" id="URW_Palladio_L_Roman-53"/>
       </defs>
       <use transform="scale(0.996264)" xlink:href="#URW_Palladio_L_Roman-48"/>
       <use transform="translate(49.8132 0)scale(0.996264)" xlink:href="#URW_Palladio_L_Roman-46"/>
       <use transform="translate(74.719801 0)scale(0.996264)" xlink:href="#URW_Palladio_L_Roman-53"/>
      </g>
     </g>
    </g>
    <g id="ytick_6">
     <g id="line2d_42">
      <path clip-path="url(#pec11066d41)" d="M 41.145691 156.293033 
L 577.19952 156.293033 
" style="fill:none;stroke:#000000;stroke-linecap:square;stroke-opacity:0.2;stroke-width:0.5;"/>
     </g>
     <g id="line2d_43">
      <g>
       <use style="fill-opacity:0.2;stroke:#000000;stroke-opacity:0.2;stroke-width:0.8;" x="41.145691" xlink:href="#m2edc37877e" y="156.293033"/>
      </g>
     </g>
     <g id="text_8">
      <!-- $\mathdefault{1.0}$ -->
      <g transform="translate(8.211071 161.282797)scale(0.14 -0.14)">
       <use transform="scale(0.996264)" xlink:href="#URW_Palladio_L_Roman-49"/>
       <use transform="translate(49.8132 0)scale(0.996264)" xlink:href="#URW_Palladio_L_Roman-46"/>
       <use transform="translate(74.719801 0)scale(0.996264)" xlink:href="#URW_Palladio_L_Roman-48"/>
      </g>
     </g>
    </g>
   </g>
   <g id="line2d_44">
    <path clip-path="url(#pec11066d41)" d="M 41.145691 226.283882 
L 576.341834 138.935302 
L 576.341834 138.935302 
" style="fill:none;stroke:#0271ae;stroke-linecap:square;stroke-width:3;"/>
   </g>
   <g id="legend_2">
    <g id="patch_5">
     <path d="M 50.945691 167.338858 
L 130.207164 167.338858 
Q 133.007164 167.338858 133.007164 164.538858 
L 133.007164 144.367873 
Q 133.007164 141.567873 130.207164 141.567873 
L 50.945691 141.567873 
Q 48.145691 141.567873 48.145691 144.367873 
L 48.145691 164.538858 
Q 48.145691 167.338858 50.945691 167.338858 
z
" style="fill:#ffffff;opacity:0.95;stroke:#cccccc;stroke-linejoin:miter;stroke-width:0.5;"/>
    </g>
    <g id="line2d_45">
     <path d="M 53.745691 152.905686 
L 67.745691 152.905686 
" style="fill:none;stroke:#0271ae;stroke-linecap:square;stroke-width:3;"/>
    </g>
    <g id="line2d_46"/>
    <g id="text_9">
     <!-- $x(t)=t$ -->
     <g transform="translate(78.945691 157.805686)scale(0.14 -0.14)">
      <defs>
       <path d="M 2.09375 8.84375 
C 2.09375 6.84375 1.90625 5.578125 1.296875 2.390625 
C 1.09375 1.203125 1 0.90625 0.90625 0.203125 
C 2.40625 -0.609375 4 -1 5.203125 -1 
C 8.5 -1 12.40625 1.890625 15.5 6.546875 
L 23.09375 18.1875 
L 24.203125 11.328125 
C 25.5 2.875 27.796875 -1 31.40625 -1 
C 33.59375 -1 36.796875 0.6875 40 3.578125 
L 44.90625 7.953125 
L 44 9.84375 
C 40.40625 6.859375 37.90625 5.375 36.296875 5.375 
C 34.796875 5.375 33.5 6.375 32.5 8.34375 
C 31.59375 10.234375 30.5 13.90625 30 16.796875 
L 28.203125 26.8125 
L 31.703125 31.6875 
C 36.40625 38.140625 39.09375 40.421875 42.203125 40.421875 
C 43.796875 40.421875 45 39.625 45.5 38.140625 
L 46.90625 38.53125 
L 48.40625 47 
C 47.203125 47.703125 46.296875 48 45.40625 48 
C 41.40625 48 37.40625 44.40625 31.203125 35.265625 
L 27.5 29.796875 
L 26.90625 34.5625 
C 25.703125 44.40625 23 48 17.09375 48 
C 14.5 48 12.296875 47.203125 11.40625 45.90625 
L 5.59375 37.640625 
L 7.296875 36.65625 
C 10.296875 40.03125 12.296875 41.421875 14.203125 41.421875 
C 17.5 41.421875 19.703125 37.359375 21.40625 27.609375 
L 22.5 21.453125 
L 18.5 15.265625 
C 14.203125 8.578125 10.796875 5.375 8 5.375 
C 6.5 5.375 5.40625 5.796875 5.203125 6.296875 
L 4.09375 9.140625 
z
" id="URW_Palladio_L_Italic-120"/>
       <path d="M 33.09375 -24 
C 33.09375 -23.703125 33.09375 -23.5 31.40625 -21.796875 
C 18.90625 -9.125 15.703125 9.875 15.703125 25.25 
C 15.703125 42.734375 19.5 60.234375 31.796875 72.78125 
C 33.09375 73.984375 33.09375 74.1875 33.09375 74.484375 
C 33.09375 75.1875 32.703125 75.5 32.09375 75.5 
C 31.09375 75.5 22.09375 68.671875 16.203125 55.890625 
C 11.09375 44.84375 9.90625 33.6875 9.90625 25.25 
C 9.90625 17.40625 11 5.25 16.5 -6.109375 
C 22.5 -18.46875 31.09375 -25 32.09375 -25 
C 32.703125 -25 33.09375 -24.703125 33.09375 -24 
z
" id="CMR10-40"/>
       <path d="M 12.5 38.515625 
L 6.90625 10.484375 
C 6.796875 9.78125 6.703125 9.609375 6.40625 8.40625 
C 5.796875 5.640625 5.59375 4.140625 5.59375 2.96875 
C 5.59375 0.484375 6.703125 -1 8.59375 -1 
C 12.09375 -1 15.59375 0.96875 23.40625 7.234375 
L 24.90625 8.40625 
L 26.5 9.703125 
L 25.5 11.484375 
L 21 8.40625 
C 18.09375 6.4375 16.09375 5.4375 15 5.4375 
C 14.09375 5.4375 13.59375 6.234375 13.59375 7.40625 
C 13.59375 9.984375 15 18.015625 17.90625 32.375 
L 19.203125 38.515625 
L 29.90625 38.515625 
L 31 43.5 
C 27.203125 43 23.796875 43 20 43 
C 21.59375 52.3125 22.703125 57.171875 24.5 62.515625 
L 23.40625 64.015625 
C 21.40625 62.828125 18.703125 61.625 15.59375 60.4375 
L 13.09375 43.5 
C 8.703125 41.40625 6.09375 40.3125 4.296875 39.8125 
L 4.09375 38.515625 
z
" id="URW_Palladio_L_Italic-116"/>
       <path d="M 28.90625 25.25 
C 28.90625 33.09375 27.796875 45.25 22.296875 56.59375 
C 16.296875 68.96875 7.703125 75.5 6.703125 75.5 
C 6.09375 75.5 5.703125 75.09375 5.703125 74.484375 
C 5.703125 74.1875 5.703125 73.984375 7.59375 72.1875 
C 17.40625 62.234375 23.09375 46.25 23.09375 25.25 
C 23.09375 8.0625 19.40625 -9.640625 7 -22.296875 
C 5.703125 -23.5 5.703125 -23.703125 5.703125 -24 
C 5.703125 -24.609375 6.09375 -25 6.703125 -25 
C 7.703125 -25 16.703125 -18.171875 22.59375 -5.40625 
C 27.703125 5.65625 28.90625 16.796875 28.90625 25.25 
z
" id="CMR10-41"/>
       <path d="M 68.703125 32 
C 70.203125 32 72.09375 32 72.09375 34.015625 
C 72.09375 36.015625 70.203125 36.015625 68.796875 36.015625 
L 8.90625 36.015625 
C 7.5 36.015625 5.59375 36.015625 5.59375 34.015625 
C 5.59375 32 7.5 32 9 32 
z
M 68.796875 13 
C 70.203125 13 72.09375 13 72.09375 15.015625 
C 72.09375 17.015625 70.203125 17.015625 68.703125 17.015625 
L 9 17.015625 
C 7.5 17.015625 5.59375 17.015625 5.59375 15.015625 
C 5.59375 13 7.5 13 8.90625 13 
z
" id="CMR10-61"/>
      </defs>
      <use transform="scale(0.996264)" xlink:href="#URW_Palladio_L_Italic-120"/>
      <use transform="translate(53.299136 0)scale(1.038107)" xlink:href="#CMR10-40"/>
      <use transform="translate(96.038841 0)scale(0.996264)" xlink:href="#URW_Palladio_L_Italic-116"/>
      <use transform="translate(131.704123 0)scale(1.038107)" xlink:href="#CMR10-41"/>
      <use transform="translate(202.11776 0)scale(1.038107)" xlink:href="#CMR10-61"/>
      <use transform="translate(312.978689 0)scale(0.996264)" xlink:href="#URW_Palladio_L_Italic-116"/>
     </g>
    </g>
   </g>
  </g>
  <g id="axes_3">
   <g id="patch_6">
    <path d="M 41.145691 339.861659 
L 577.19952 339.861659 
L 577.19952 243.778221 
L 41.145691 243.778221 
z
" style="fill:none;"/>
   </g>
   <g id="matplotlib.axis_5">
    <g id="xtick_15">
     <g id="line2d_47">
      <path clip-path="url(#pea7253c611)" d="M 41.145691 339.861659 
L 41.145691 243.778221 
" style="fill:none;stroke:#000000;stroke-linecap:square;stroke-opacity:0.2;stroke-width:0.5;"/>
     </g>
     <g id="line2d_48">
      <g>
       <use style="fill-opacity:0.2;stroke:#000000;stroke-opacity:0.2;stroke-width:0.8;" x="41.145691" xlink:href="#m24e6e6532c" y="339.861659"/>
      </g>
     </g>
     <g id="text_10">
      <!-- $\mathdefault{0.0}$ -->
      <g transform="translate(32.428381 365.341188)scale(0.14 -0.14)">
       <use transform="scale(0.996264)" xlink:href="#URW_Palladio_L_Roman-48"/>
       <use transform="translate(49.8132 0)scale(0.996264)" xlink:href="#URW_Palladio_L_Roman-46"/>
       <use transform="translate(74.719801 0)scale(0.996264)" xlink:href="#URW_Palladio_L_Roman-48"/>
      </g>
     </g>
    </g>
    <g id="xtick_16">
     <g id="line2d_49">
      <path clip-path="url(#pea7253c611)" d="M 126.914303 339.861659 
L 126.914303 243.778221 
" style="fill:none;stroke:#000000;stroke-linecap:square;stroke-opacity:0.2;stroke-width:0.5;"/>
     </g>
     <g id="line2d_50">
      <g>
       <use style="fill-opacity:0.2;stroke:#000000;stroke-opacity:0.2;stroke-width:0.8;" x="126.914303" xlink:href="#m24e6e6532c" y="339.861659"/>
      </g>
     </g>
     <g id="text_11">
      <!-- $\mathdefault{0.2}$ -->
      <g transform="translate(118.196993 365.341188)scale(0.14 -0.14)">
       <defs>
        <path d="M 1.59375 2.5 
L 1.59375 0 
C 20.296875 0 20.296875 0 23.90625 0 
C 27.5 0 27.5 0 46.796875 0 
C 46.59375 1.953125 46.59375 2.90625 46.59375 4.203125 
C 46.59375 5.4375 46.59375 6.359375 46.796875 8.421875 
C 35.296875 8.421875 30.703125 8.421875 12.203125 8.421875 
L 30.40625 27.515625 
C 40.09375 37.71875 43.09375 43.171875 43.09375 50.59375 
C 43.09375 61.96875 35.296875 69 22.59375 69 
C 15.40625 69 10.5 67 5.59375 62.015625 
L 3.90625 48.421875 
L 6.796875 48.421875 
L 8.09375 53.015625 
C 9.703125 58.796875 13.296875 61.296875 20 61.296875 
C 28.59375 61.296875 34.09375 55.890625 34.09375 47.421875 
C 34.09375 39.921875 29.90625 32.546875 18.59375 20.5625 
z
" id="URW_Palladio_L_Roman-50"/>
       </defs>
       <use transform="scale(0.996264)" xlink:href="#URW_Palladio_L_Roman-48"/>
       <use transform="translate(49.8132 0)scale(0.996264)" xlink:href="#URW_Palladio_L_Roman-46"/>
       <use transform="translate(74.719801 0)scale(0.996264)" xlink:href="#URW_Palladio_L_Roman-50"/>
      </g>
     </g>
    </g>
    <g id="xtick_17">
     <g id="line2d_51">
      <path clip-path="url(#pea7253c611)" d="M 212.682916 339.861659 
L 212.682916 243.778221 
" style="fill:none;stroke:#000000;stroke-linecap:square;stroke-opacity:0.2;stroke-width:0.5;"/>
     </g>
     <g id="line2d_52">
      <g>
       <use style="fill-opacity:0.2;stroke:#000000;stroke-opacity:0.2;stroke-width:0.8;" x="212.682916" xlink:href="#m24e6e6532c" y="339.861659"/>
      </g>
     </g>
     <g id="text_12">
      <!-- $\mathdefault{0.4}$ -->
      <g transform="translate(203.965606 365.341188)scale(0.14 -0.14)">
       <defs>
        <path d="M 28 18 
L 28 10.515625 
C 28 4.515625 26.90625 3.109375 22 3.109375 
L 15.796875 3.109375 
L 15.796875 0 
C 29.09375 0 29.09375 0 31.5 0 
C 33.90625 0 33.90625 0 47.203125 0 
L 47.203125 3.109375 
L 42.40625 3.109375 
C 37.5 3.109375 36.40625 4.40625 36.40625 10.453125 
L 36.40625 18 
C 42.296875 18 44.40625 18 47.203125 17.703125 
L 47.203125 24.8125 
C 42.5 24.421875 40.59375 24.421875 39.09375 24.421875 
L 38.796875 24.421875 
L 36.40625 24.421875 
L 36.40625 38.390625 
C 36.40625 56.25 36.59375 64.875 37.09375 69 
L 35.90625 69.5 
L 28.5 66.796875 
L 0.203125 20.296875 
L 1.296875 18 
z
M 28 24.421875 
L 6.5 24.421875 
L 28 59.78125 
z
" id="URW_Palladio_L_Roman-52"/>
       </defs>
       <use transform="scale(0.996264)" xlink:href="#URW_Palladio_L_Roman-48"/>
       <use transform="translate(49.8132 0)scale(0.996264)" xlink:href="#URW_Palladio_L_Roman-46"/>
       <use transform="translate(74.719801 0)scale(0.996264)" xlink:href="#URW_Palladio_L_Roman-52"/>
      </g>
     </g>
    </g>
    <g id="xtick_18">
     <g id="line2d_53">
      <path clip-path="url(#pea7253c611)" d="M 298.451529 339.861659 
L 298.451529 243.778221 
" style="fill:none;stroke:#000000;stroke-linecap:square;stroke-opacity:0.2;stroke-width:0.5;"/>
     </g>
     <g id="line2d_54">
      <g>
       <use style="fill-opacity:0.2;stroke:#000000;stroke-opacity:0.2;stroke-width:0.8;" x="298.451529" xlink:href="#m24e6e6532c" y="339.861659"/>
      </g>
     </g>
     <g id="text_13">
      <!-- $\mathdefault{0.6}$ -->
      <g transform="translate(289.734219 365.341188)scale(0.14 -0.14)">
       <defs>
        <path d="M 41.59375 67.34375 
L 37.90625 69.046875 
C 28.296875 65.84375 24.203125 63.84375 19.09375 59.4375 
C 8.796875 50.71875 3.203125 38.5 3.203125 24.765625 
C 3.203125 8.21875 11.203125 -2 24.09375 -2 
C 37.09375 -2 46.796875 8.3125 46.796875 21.953125 
C 46.796875 33.484375 39.90625 41 29.296875 41 
C 24.296875 41 21.296875 39.6875 15.40625 34.984375 
C 14.296875 34.078125 14.203125 33.984375 13.09375 33.1875 
C 15.203125 51.3125 23.59375 61.140625 41.59375 66.546875 
z
M 25.5 34.984375 
C 33.09375 34.984375 38.203125 28.375 38.203125 18.453125 
C 38.203125 8.015625 33.09375 1.296875 25.40625 1.296875 
C 16.90625 1.296875 12.296875 8.609375 12.296875 22.0625 
C 12.296875 25.5625 12.703125 27.46875 13.796875 29.171875 
C 16 32.578125 20.703125 34.984375 25.5 34.984375 
z
" id="URW_Palladio_L_Roman-54"/>
       </defs>
       <use transform="scale(0.996264)" xlink:href="#URW_Palladio_L_Roman-48"/>
       <use transform="translate(49.8132 0)scale(0.996264)" xlink:href="#URW_Palladio_L_Roman-46"/>
       <use transform="translate(74.719801 0)scale(0.996264)" xlink:href="#URW_Palladio_L_Roman-54"/>
      </g>
     </g>
    </g>
    <g id="xtick_19">
     <g id="line2d_55">
      <path clip-path="url(#pea7253c611)" d="M 384.220141 339.861659 
L 384.220141 243.778221 
" style="fill:none;stroke:#000000;stroke-linecap:square;stroke-opacity:0.2;stroke-width:0.5;"/>
     </g>
     <g id="line2d_56">
      <g>
       <use style="fill-opacity:0.2;stroke:#000000;stroke-opacity:0.2;stroke-width:0.8;" x="384.220141" xlink:href="#m24e6e6532c" y="339.861659"/>
      </g>
     </g>
     <g id="text_14">
      <!-- $\mathdefault{0.8}$ -->
      <g transform="translate(375.502831 365.341188)scale(0.14 -0.14)">
       <defs>
        <path d="M 16.796875 34.546875 
C 12.703125 32.65625 11 31.546875 8.796875 29.4375 
C 5 25.640625 3 21.125 3 15.921875 
C 3 5.609375 11.296875 -2 22.59375 -2 
C 35.59375 -2 46.40625 8.21875 46.40625 20.625 
C 46.40625 28.640625 42.703125 32.953125 31.296875 38.15625 
C 40.40625 44.375 43.59375 48.578125 43.59375 54.578125 
C 43.59375 63.1875 36.5 69 25.90625 69 
C 14 69 5.296875 61.390625 5.296875 50.890625 
C 5.296875 44.078125 8 40.265625 16.796875 34.546875 
z
M 28.40625 29.546875 
C 34.703125 26.734375 38.5 21.828125 38.5 16.4375 
C 38.5 8.015625 32.203125 1.40625 24.09375 1.40625 
C 15.59375 1.40625 10.09375 7.421875 10.09375 16.734375 
C 10.09375 24.03125 13 28.640625 20.40625 33.15625 
z
M 22.296875 42.375 
C 16 45.46875 12.796875 49.484375 12.796875 54.484375 
C 12.796875 61.09375 17.59375 65.59375 24.703125 65.59375 
C 32 65.59375 36.796875 60.796875 36.796875 53.46875 
C 36.796875 47.78125 34.296875 43.875 27.796875 39.65625 
z
" id="URW_Palladio_L_Roman-56"/>
       </defs>
       <use transform="scale(0.996264)" xlink:href="#URW_Palladio_L_Roman-48"/>
       <use transform="translate(49.8132 0)scale(0.996264)" xlink:href="#URW_Palladio_L_Roman-46"/>
       <use transform="translate(74.719801 0)scale(0.996264)" xlink:href="#URW_Palladio_L_Roman-56"/>
      </g>
     </g>
    </g>
    <g id="xtick_20">
     <g id="line2d_57">
      <path clip-path="url(#pea7253c611)" d="M 469.988754 339.861659 
L 469.988754 243.778221 
" style="fill:none;stroke:#000000;stroke-linecap:square;stroke-opacity:0.2;stroke-width:0.5;"/>
     </g>
     <g id="line2d_58">
      <g>
       <use style="fill-opacity:0.2;stroke:#000000;stroke-opacity:0.2;stroke-width:0.8;" x="469.988754" xlink:href="#m24e6e6532c" y="339.861659"/>
      </g>
     </g>
     <g id="text_15">
      <!-- $\mathdefault{1.0}$ -->
      <g transform="translate(461.271444 365.341188)scale(0.14 -0.14)">
       <use transform="scale(0.996264)" xlink:href="#URW_Palladio_L_Roman-49"/>
       <use transform="translate(49.8132 0)scale(0.996264)" xlink:href="#URW_Palladio_L_Roman-46"/>
       <use transform="translate(74.719801 0)scale(0.996264)" xlink:href="#URW_Palladio_L_Roman-48"/>
      </g>
     </g>
    </g>
    <g id="xtick_21">
     <g id="line2d_59">
      <path clip-path="url(#pea7253c611)" d="M 555.757367 339.861659 
L 555.757367 243.778221 
" style="fill:none;stroke:#000000;stroke-linecap:square;stroke-opacity:0.2;stroke-width:0.5;"/>
     </g>
     <g id="line2d_60">
      <g>
       <use style="fill-opacity:0.2;stroke:#000000;stroke-opacity:0.2;stroke-width:0.8;" x="555.757367" xlink:href="#m24e6e6532c" y="339.861659"/>
      </g>
     </g>
     <g id="text_16">
      <!-- $\mathdefault{1.2}$ -->
      <g transform="translate(547.040057 365.341188)scale(0.14 -0.14)">
       <use transform="scale(0.996264)" xlink:href="#URW_Palladio_L_Roman-49"/>
       <use transform="translate(49.8132 0)scale(0.996264)" xlink:href="#URW_Palladio_L_Roman-46"/>
       <use transform="translate(74.719801 0)scale(0.996264)" xlink:href="#URW_Palladio_L_Roman-50"/>
      </g>
     </g>
    </g>
    <g id="text_17">
     <!-- Time $t$ [seconds] -->
     <g transform="translate(265.865441 381.828236)scale(0.12 -0.12)">
      <defs>
       <path d="M 25.5 64.28125 
C 25.796875 60.875 25.90625 58.578125 25.90625 54.265625 
L 25.90625 11.921875 
C 25.90625 4 25.40625 3.203125 20.796875 3.203125 
L 16 3.203125 
L 16 0 
C 21.90625 0 25.40625 0 30.59375 0 
C 35.796875 0 39.40625 0 45.296875 0 
L 45.296875 3.203125 
L 40.5 3.203125 
C 35.90625 3.203125 35.40625 4 35.40625 11.921875 
L 35.40625 54.265625 
C 35.40625 58.78125 35.5 60.984375 35.796875 64.28125 
L 51.296875 64.28125 
C 54.09375 64.28125 55.203125 63.390625 55.296875 61 
L 55.703125 53.125 
L 58.796875 53.125 
C 58.796875 59.53125 59 63.375 59.5 69 
C 52.296875 69 49 69 46.203125 69 
C 42.296875 69 39.40625 69 37.90625 69 
L 22.09375 69 
C 21.09375 69 15.703125 69 8.59375 69 
L 1.796875 69 
C 2.296875 63.375 2.5 59.53125 2.5 53.125 
L 5.59375 53.125 
L 6 61 
C 6.09375 63.390625 7.203125 64.28125 10 64.28125 
z
" id="URW_Palladio_L_Roman-84"/>
       <path d="M 8.796875 -18 
C 15.90625 -18 16.09375 -18 18.5 -18 
C 20.90625 -18 21.40625 -18 28.203125 -18 
L 28.796875 -17.5 
L 28.796875 -14.890625 
L 28.40625 -14.390625 
L 24.59375 -14.390625 
C 21.90625 -14.390625 19.703125 -13.78125 18.5 -12.78125 
C 17.59375 -11.875 17.296875 -10.484375 17.296875 -7.171875 
C 17.296875 -7.078125 17.296875 -4.96875 17.203125 -1.953125 
L 17.203125 1.75 
L 17.203125 53.265625 
L 17.203125 56.96875 
C 17.296875 59.78125 17.296875 61.984375 17.296875 62.078125 
C 17.296875 65.390625 17.59375 66.890625 18.5 67.796875 
C 19.703125 68.796875 21.90625 69.390625 24.59375 69.390625 
L 28.40625 69.390625 
L 28.796875 69.890625 
L 28.796875 72.5 
L 28.203125 73 
C 21.203125 73 20.90625 73 18.5 73 
C 16.203125 73 15.703125 73 8.796875 73 
L 7.90625 71.796875 
C 8.5 69.296875 8.703125 65.984375 8.703125 58.28125 
C 8.703125 56.765625 8.703125 55.5625 8.796875 54.5625 
L 8.796875 53.265625 
L 8.796875 1.75 
L 8.796875 0.4375 
C 8.703125 -1.15625 8.703125 -1.265625 8.703125 -2.96875 
L 8.703125 -4.0625 
C 8.703125 -10.875 8.5 -13.6875 7.90625 -16.796875 
z
" id="URW_Palladio_L_Roman-91"/>
       <path d="M 24.5 73 
C 17.40625 73 17.09375 73 14.796875 73 
C 12.40625 73 11.90625 73 5.09375 73 
L 4.5 72.5 
L 4.5 69.890625 
L 4.90625 69.390625 
L 8.703125 69.390625 
C 11.40625 69.390625 13.5 68.796875 14.703125 67.796875 
C 15.703125 66.890625 16 65.484375 16 62.078125 
C 16 61.78125 16 59.78125 16.09375 56.96875 
L 16.09375 53.265625 
L 16.09375 1.75 
L 16.09375 -1.953125 
C 16 -4.859375 16 -6.671875 16 -6.96875 
C 16 -10.375 15.703125 -11.875 14.703125 -12.78125 
C 13.5 -13.78125 11.40625 -14.390625 8.703125 -14.390625 
L 4.90625 -14.390625 
L 4.5 -14.890625 
L 4.5 -17.5 
L 5.09375 -18 
C 12.09375 -18 12.296875 -18 14.796875 -18 
C 17.09375 -18 17.59375 -18 24.5 -18 
L 25.40625 -16.796875 
C 24.796875 -14.390625 24.703125 -11.28125 24.59375 -3.5625 
C 24.59375 -2.15625 24.59375 -0.859375 24.5 0.4375 
L 24.5 1.75 
L 24.5 53.265625 
L 24.5 54.5625 
C 24.59375 55.671875 24.59375 56.96875 24.59375 58.375 
C 24.59375 66.09375 24.796875 69.390625 25.40625 71.796875 
z
" id="URW_Palladio_L_Roman-93"/>
      </defs>
      <use transform="scale(0.996264)" xlink:href="#URW_Palladio_L_Roman-84"/>
      <use transform="translate(55.591109 0)scale(0.996264)" xlink:href="#URW_Palladio_L_Roman-105"/>
      <use transform="translate(84.581471 0)scale(0.996264)" xlink:href="#URW_Palladio_L_Roman-109"/>
      <use transform="translate(172.551145 0)scale(0.996264)" xlink:href="#URW_Palladio_L_Roman-101"/>
      <use transform="translate(246.42334 0)scale(0.996264)" xlink:href="#URW_Palladio_L_Italic-116"/>
      <use transform="translate(305.749922 0)scale(0.996264)" xlink:href="#URW_Palladio_L_Roman-91"/>
      <use transform="translate(338.925152 0)scale(0.996264)" xlink:href="#URW_Palladio_L_Roman-115"/>
      <use transform="translate(381.166618 0)scale(0.996264)" xlink:href="#URW_Palladio_L_Roman-101"/>
      <use transform="translate(428.886913 0)scale(0.996264)" xlink:href="#URW_Palladio_L_Roman-99"/>
      <use transform="translate(473.120482 0)scale(0.996264)" xlink:href="#URW_Palladio_L_Roman-111"/>
      <use transform="translate(527.516062 0)scale(0.996264)" xlink:href="#URW_Palladio_L_Roman-110"/>
      <use transform="translate(585.498123 0)scale(0.996264)" xlink:href="#URW_Palladio_L_Roman-100"/>
      <use transform="translate(646.369754 0)scale(0.996264)" xlink:href="#URW_Palladio_L_Roman-115"/>
      <use transform="translate(688.61122 0)scale(0.996264)" xlink:href="#URW_Palladio_L_Roman-93"/>
     </g>
    </g>
   </g>
   <g id="matplotlib.axis_6">
    <g id="ytick_7">
     <g id="line2d_61">
      <path clip-path="url(#pea7253c611)" d="M 41.145691 335.49423 
L 577.19952 335.49423 
" style="fill:none;stroke:#000000;stroke-linecap:square;stroke-opacity:0.2;stroke-width:0.5;"/>
     </g>
     <g id="line2d_62">
      <g>
       <use style="fill-opacity:0.2;stroke:#000000;stroke-opacity:0.2;stroke-width:0.8;" x="41.145691" xlink:href="#m2edc37877e" y="335.49423"/>
      </g>
     </g>
     <g id="text_18">
      <!-- $\mathdefault{0.0}$ -->
      <g transform="translate(8.211071 340.483994)scale(0.14 -0.14)">
       <use transform="scale(0.996264)" xlink:href="#URW_Palladio_L_Roman-48"/>
       <use transform="translate(49.8132 0)scale(0.996264)" xlink:href="#URW_Palladio_L_Roman-46"/>
       <use transform="translate(74.719801 0)scale(0.996264)" xlink:href="#URW_Palladio_L_Roman-48"/>
      </g>
     </g>
    </g>
    <g id="ytick_8">
     <g id="line2d_63">
      <path clip-path="url(#pea7253c611)" d="M 41.145691 280.901367 
L 577.19952 280.901367 
" style="fill:none;stroke:#000000;stroke-linecap:square;stroke-opacity:0.2;stroke-width:0.5;"/>
     </g>
     <g id="line2d_64">
      <g>
       <use style="fill-opacity:0.2;stroke:#000000;stroke-opacity:0.2;stroke-width:0.8;" x="41.145691" xlink:href="#m2edc37877e" y="280.901367"/>
      </g>
     </g>
     <g id="text_19">
      <!-- $\mathdefault{0.5}$ -->
      <g transform="translate(8.211071 285.891132)scale(0.14 -0.14)">
       <use transform="scale(0.996264)" xlink:href="#URW_Palladio_L_Roman-48"/>
       <use transform="translate(49.8132 0)scale(0.996264)" xlink:href="#URW_Palladio_L_Roman-46"/>
       <use transform="translate(74.719801 0)scale(0.996264)" xlink:href="#URW_Palladio_L_Roman-53"/>
      </g>
     </g>
    </g>
   </g>
   <g id="line2d_65">
    <path clip-path="url(#pea7253c611)" d="M 41.145691 335.49423 
L 112.333639 335.49423 
L 113.191325 313.657085 
L 254.709536 313.657085 
L 255.567222 291.81994 
L 397.943119 291.81994 
L 398.800806 269.982795 
L 541.176703 269.982795 
L 542.034389 248.14565 
L 576.341834 248.14565 
L 576.341834 248.14565 
" style="fill:none;stroke:#0271ae;stroke-linecap:square;stroke-width:3;"/>
   </g>
   <g id="legend_3">
    <g id="patch_7">
     <path d="M 50.945691 276.549206 
L 135.666975 276.549206 
Q 138.466975 276.549206 138.466975 273.749206 
L 138.466975 253.578221 
Q 138.466975 250.778221 135.666975 250.778221 
L 50.945691 250.778221 
Q 48.145691 250.778221 48.145691 253.578221 
L 48.145691 273.749206 
Q 48.145691 276.549206 50.945691 276.549206 
z
" style="fill:#ffffff;opacity:0.95;stroke:#cccccc;stroke-linejoin:miter;stroke-width:0.5;"/>
    </g>
    <g id="line2d_66">
     <path d="M 53.745691 262.116034 
L 67.745691 262.116034 
" style="fill:none;stroke:#0271ae;stroke-linecap:square;stroke-width:3;"/>
    </g>
    <g id="line2d_67"/>
    <g id="text_20">
     <!-- Staircase -->
     <g transform="translate(78.945691 267.016034)scale(0.14 -0.14)">
      <defs>
       <path d="M 9.796875 38.6875 
L 9.796875 9.671875 
C 9.796875 2.21875 13.09375 -1 20.796875 -1 
C 23.09375 -1 25.5 -0.5 26.09375 0.203125 
L 30.90625 5.515625 
L 29.59375 7.234375 
C 27.09375 5.8125 25.59375 5.3125 23.703125 5.3125 
C 19.796875 5.3125 18.203125 7.34375 18.203125 12.3125 
L 18.203125 38.890625 
L 31 38.890625 
L 31.90625 44 
L 18.203125 44 
L 18.203125 47.75 
C 18.203125 51.890625 18.5 55.421875 19.296875 61.734375 
L 18.09375 62.828125 
C 15.703125 61.328125 12.703125 60.03125 9.59375 59.03125 
C 9.90625 56.015625 10 54.109375 10 51.109375 
L 10 44.09375 
L 2.203125 40.59375 
L 2.203125 38.6875 
z
" id="URW_Palladio_L_Roman-116"/>
      </defs>
      <use transform="scale(0.996264)" xlink:href="#URW_Palladio_L_Roman-83"/>
      <use transform="translate(52.303815 0)scale(0.996264)" xlink:href="#URW_Palladio_L_Roman-116"/>
      <use transform="translate(84.780903 0)scale(0.996264)" xlink:href="#URW_Palladio_L_Roman-97"/>
      <use transform="translate(134.594103 0)scale(0.996264)" xlink:href="#URW_Palladio_L_Roman-105"/>
      <use transform="translate(163.584465 0)scale(0.996264)" xlink:href="#URW_Palladio_L_Roman-114"/>
      <use transform="translate(201.143782 0)scale(0.996264)" xlink:href="#URW_Palladio_L_Roman-99"/>
      <use transform="translate(245.377351 0)scale(0.996264)" xlink:href="#URW_Palladio_L_Roman-97"/>
      <use transform="translate(295.190551 0)scale(0.996264)" xlink:href="#URW_Palladio_L_Roman-115"/>
      <use transform="translate(337.432018 0)scale(0.996264)" xlink:href="#URW_Palladio_L_Roman-101"/>
     </g>
    </g>
   </g>
  </g>
 </g>
 <defs>
  <clipPath id="pb5fa6bee76">
   <rect height="96.083437" width="536.053829" x="41.145691" y="23.179529"/>
  </clipPath>
  <clipPath id="pec11066d41">
   <rect height="96.083437" width="536.053829" x="41.145691" y="134.567873"/>
  </clipPath>
  <clipPath id="pea7253c611">
   <rect height="96.083437" width="536.053829" x="41.145691" y="243.778221"/>
  </clipPath>
 </defs>
</svg>
