<?xml version="1.0" encoding="utf-8" standalone="no"?>
<!DOCTYPE svg PUBLIC "-//W3C//DTD SVG 1.1//EN"
  "http://www.w3.org/Graphics/SVG/1.1/DTD/svg11.dtd">
<svg height="200.39952pt" version="1.1" viewBox="0 0 584.39952 200.39952" width="584.39952pt" xmlns="http://www.w3.org/2000/svg" xmlns:xlink="http://www.w3.org/1999/xlink">
 <metadata>
  <rdf:RDF xmlns:cc="http://creativecommons.org/ns#" xmlns:dc="http://purl.org/dc/elements/1.1/" xmlns:rdf="http://www.w3.org/1999/02/22-rdf-syntax-ns#">
   <cc:Work>
    <dc:type rdf:resource="http://purl.org/dc/dcmitype/StillImage"/>
    <dc:date>2021-08-20T10:09:15.474032</dc:date>
    <dc:format>image/svg+xml</dc:format>
    <dc:creator>
     <cc:Agent>
      <dc:title>Matplotlib v3.4.2, https://matplotlib.org/</dc:title>
     </cc:Agent>
    </dc:creator>
   </cc:Work>
  </rdf:RDF>
 </metadata>
 <defs>
  <style type="text/css">*{stroke-linecap:butt;stroke-linejoin:round;}</style>
 </defs>
 <g id="figure_1">
  <g id="patch_1">
   <path d="M 0 200.39952 
L 584.39952 200.39952 
L 584.39952 0 
L 0 0 
z
" style="fill:none;"/>
  </g>
  <g id="axes_1">
   <g id="patch_2">
    <path d="M 41.145691 147.861659 
L 577.19952 147.861659 
L 577.19952 7.2 
L 41.145691 7.2 
z
" style="fill:none;"/>
   </g>
   <g id="matplotlib.axis_1">
    <g id="xtick_1">
     <g id="line2d_1">
      <path clip-path="url(#p7fd8d815d2)" d="M 41.145691 147.861659 
L 41.145691 7.2 
" style="fill:none;stroke:#000000;stroke-linejoin:miter;stroke-opacity:0.2;stroke-width:0.5;"/>
     </g>
     <g id="line2d_2">
      <defs>
       <path d="M 0 0 
L 0 3.5 
" id="m6bc2f93a1f" style="stroke:#000000;stroke-opacity:0.2;stroke-width:0.8;"/>
      </defs>
      <g>
       <use style="fill-opacity:0.2;stroke:#000000;stroke-opacity:0.2;stroke-width:0.8;" x="41.145691" xlink:href="#m6bc2f93a1f" y="147.861659"/>
      </g>
     </g>
     <g id="text_1">
      <!-- $\mathdefault{0.0}$ -->
      <g transform="translate(32.428381 173.341188)scale(0.14 -0.14)">
       <defs>
        <path d="M 1683 4416 
C 691 4416 186 3628 186 2076 
C 186 1326 320 679 544 365 
C 768 51 1126 -128 1523 -128 
C 2490 -128 2976 704 2976 2345 
C 2976 3749 2560 4416 1683 4416 
z
M 1568 4191 
C 2189 4191 2438 3563 2438 2025 
C 2438 660 2195 96 1606 96 
C 986 96 723 743 723 2307 
C 723 3660 960 4191 1568 4191 
z
" id="URWPalladioL-Roma-30" transform="scale(0.015625)"/>
        <path d="M 794 678 
C 602 678 429 499 429 307 
C 429 115 602 -64 787 -64 
C 992 -64 1171 108 1171 307 
C 1171 499 992 678 794 678 
z
" id="URWPalladioL-Roma-2e" transform="scale(0.015625)"/>
       </defs>
       <use transform="scale(0.996264)" xlink:href="#URWPalladioL-Roma-30"/>
       <use transform="translate(49.8132 0)scale(0.996264)" xlink:href="#URWPalladioL-Roma-2e"/>
       <use transform="translate(74.719801 0)scale(0.996264)" xlink:href="#URWPalladioL-Roma-30"/>
      </g>
     </g>
    </g>
    <g id="xtick_2">
     <g id="line2d_3">
      <path clip-path="url(#p7fd8d815d2)" d="M 148.463775 147.861659 
L 148.463775 7.2 
" style="fill:none;stroke:#000000;stroke-linejoin:miter;stroke-opacity:0.2;stroke-width:0.5;"/>
     </g>
     <g id="line2d_4">
      <g>
       <use style="fill-opacity:0.2;stroke:#000000;stroke-opacity:0.2;stroke-width:0.8;" x="148.463775" xlink:href="#m6bc2f93a1f" y="147.861659"/>
      </g>
     </g>
     <g id="text_2">
      <!-- $\mathdefault{0.2}$ -->
      <g transform="translate(139.746465 173.341188)scale(0.14 -0.14)">
       <defs>
        <path d="M 102 166 
L 102 0 
C 1299 0 1299 0 1530 0 
C 1760 19 1760 19 2995 0 
C 2982 134 2982 198 2982 287 
C 2982 370 2982 434 2995 574 
C 2259 542 1965 536 781 510 
L 1946 1741 
C 2566 2398 2758 2749 2758 3228 
C 2758 3961 2259 4416 1446 4416 
C 986 4416 672 4287 358 3967 
L 250 3100 
L 435 3100 
L 518 3394 
C 621 3763 851 3923 1280 3923 
C 1830 3923 2182 3578 2182 3036 
C 2182 2558 1914 2086 1190 1320 
L 102 166 
z
" id="URWPalladioL-Roma-32" transform="scale(0.015625)"/>
       </defs>
       <use transform="scale(0.996264)" xlink:href="#URWPalladioL-Roma-30"/>
       <use transform="translate(49.8132 0)scale(0.996264)" xlink:href="#URWPalladioL-Roma-2e"/>
       <use transform="translate(74.719801 0)scale(0.996264)" xlink:href="#URWPalladioL-Roma-32"/>
      </g>
     </g>
    </g>
    <g id="xtick_3">
     <g id="line2d_5">
      <path clip-path="url(#p7fd8d815d2)" d="M 255.781859 147.861659 
L 255.781859 7.2 
" style="fill:none;stroke:#000000;stroke-linejoin:miter;stroke-opacity:0.2;stroke-width:0.5;"/>
     </g>
     <g id="line2d_6">
      <g>
       <use style="fill-opacity:0.2;stroke:#000000;stroke-opacity:0.2;stroke-width:0.8;" x="255.781859" xlink:href="#m6bc2f93a1f" y="147.861659"/>
      </g>
     </g>
     <g id="text_3">
      <!-- $\mathdefault{0.4}$ -->
      <g transform="translate(247.064549 173.341188)scale(0.14 -0.14)">
       <defs>
        <path d="M 1792 1152 
L 1792 684 
C 1792 310 1722 223 1408 210 
L 1011 192 
L 1011 0 
C 1862 0 1862 0 2016 0 
C 2170 19 2170 19 3021 0 
L 3021 192 
L 2714 210 
C 2400 229 2330 310 2330 684 
L 2330 1152 
C 2707 1152 2842 1145 3021 1127 
L 3021 1580 
C 2720 1555 2598 1555 2502 1561 
L 2483 1561 
L 2330 1561 
L 2330 2445 
C 2330 3576 2342 4122 2374 4383 
L 2298 4416 
L 1824 4243 
L 13 1299 
L 83 1152 
L 1792 1152 
z
M 1792 1561 
L 416 1561 
L 1792 3798 
L 1792 1561 
z
" id="URWPalladioL-Roma-34" transform="scale(0.015625)"/>
       </defs>
       <use transform="scale(0.996264)" xlink:href="#URWPalladioL-Roma-30"/>
       <use transform="translate(49.8132 0)scale(0.996264)" xlink:href="#URWPalladioL-Roma-2e"/>
       <use transform="translate(74.719801 0)scale(0.996264)" xlink:href="#URWPalladioL-Roma-34"/>
      </g>
     </g>
    </g>
    <g id="xtick_4">
     <g id="line2d_7">
      <path clip-path="url(#p7fd8d815d2)" d="M 363.099943 147.861659 
L 363.099943 7.2 
" style="fill:none;stroke:#000000;stroke-linejoin:miter;stroke-opacity:0.2;stroke-width:0.5;"/>
     </g>
     <g id="line2d_8">
      <g>
       <use style="fill-opacity:0.2;stroke:#000000;stroke-opacity:0.2;stroke-width:0.8;" x="363.099943" xlink:href="#m6bc2f93a1f" y="147.861659"/>
      </g>
     </g>
     <g id="text_4">
      <!-- $\mathdefault{0.6}$ -->
      <g transform="translate(354.382632 173.341188)scale(0.14 -0.14)">
       <defs>
        <path d="M 2662 4287 
L 2426 4396 
C 1811 4193 1549 4066 1222 3788 
C 563 3237 205 2463 205 1585 
C 205 526 717 -128 1542 -128 
C 2374 -128 2995 532 2995 1405 
C 2995 2143 2554 2624 1875 2624 
C 1555 2624 1363 2540 986 2239 
C 915 2182 909 2175 838 2124 
C 973 3275 1510 3895 2662 4237 
L 2662 4287 
z
M 1632 2239 
C 2118 2239 2445 1816 2445 1180 
C 2445 513 2118 83 1626 83 
C 1082 83 787 551 787 1411 
C 787 1636 813 1758 883 1867 
C 1024 2085 1325 2239 1632 2239 
z
" id="URWPalladioL-Roma-36" transform="scale(0.015625)"/>
       </defs>
       <use transform="scale(0.996264)" xlink:href="#URWPalladioL-Roma-30"/>
       <use transform="translate(49.8132 0)scale(0.996264)" xlink:href="#URWPalladioL-Roma-2e"/>
       <use transform="translate(74.719801 0)scale(0.996264)" xlink:href="#URWPalladioL-Roma-36"/>
      </g>
     </g>
    </g>
    <g id="xtick_5">
     <g id="line2d_9">
      <path clip-path="url(#p7fd8d815d2)" d="M 470.418026 147.861659 
L 470.418026 7.2 
" style="fill:none;stroke:#000000;stroke-linejoin:miter;stroke-opacity:0.2;stroke-width:0.5;"/>
     </g>
     <g id="line2d_10">
      <g>
       <use style="fill-opacity:0.2;stroke:#000000;stroke-opacity:0.2;stroke-width:0.8;" x="470.418026" xlink:href="#m6bc2f93a1f" y="147.861659"/>
      </g>
     </g>
     <g id="text_5">
      <!-- $\mathdefault{0.8}$ -->
      <g transform="translate(461.700716 173.341188)scale(0.14 -0.14)">
       <defs>
        <path d="M 1075 2211 
C 813 2089 704 2019 563 1884 
C 320 1640 192 1352 192 1019 
C 192 358 723 -128 1446 -128 
C 2278 -128 2970 525 2970 1320 
C 2970 1833 2733 2108 2003 2442 
C 2586 2839 2790 3108 2790 3493 
C 2790 4044 2336 4416 1658 4416 
C 896 4416 339 3929 339 3256 
C 339 2820 512 2576 1075 2211 
z
M 1818 1890 
C 2221 1711 2464 1397 2464 1051 
C 2464 512 2061 89 1542 89 
C 998 89 646 474 646 1070 
C 646 1538 832 1833 1306 2121 
L 1818 1890 
z
M 1427 2711 
C 1024 2910 819 3166 819 3486 
C 819 3910 1126 4198 1581 4198 
C 2048 4198 2355 3890 2355 3422 
C 2355 3057 2195 2807 1779 2538 
L 1427 2711 
z
" id="URWPalladioL-Roma-38" transform="scale(0.015625)"/>
       </defs>
       <use transform="scale(0.996264)" xlink:href="#URWPalladioL-Roma-30"/>
       <use transform="translate(49.8132 0)scale(0.996264)" xlink:href="#URWPalladioL-Roma-2e"/>
       <use transform="translate(74.719801 0)scale(0.996264)" xlink:href="#URWPalladioL-Roma-38"/>
      </g>
     </g>
    </g>
    <g id="text_6">
     <!-- Time $t$ [seconds] -->
     <g transform="translate(265.865441 189.828236)scale(0.12 -0.12)">
      <defs>
       <path d="M 1632 4096 
C 1651 3880 1658 3734 1658 3462 
L 1658 781 
C 1658 280 1626 230 1331 211 
L 1024 192 
L 1024 0 
C 1402 -7 1626 0 1958 0 
C 2291 19 2522 12 2899 0 
L 2899 192 
L 2592 211 
C 2298 230 2266 280 2266 781 
L 2266 3462 
C 2266 3747 2272 3887 2291 4096 
L 3283 4096 
C 3462 4096 3533 4039 3539 3887 
L 3565 3386 
L 3763 3386 
C 3763 3801 3776 4051 3808 4416 
C 3347 4409 3136 4409 2957 4403 
C 2707 4390 2522 4390 2426 4390 
L 1414 4390 
C 1350 4390 1005 4396 550 4403 
L 115 4416 
C 147 4051 160 3801 160 3385 
L 358 3385 
L 384 3891 
C 390 4038 461 4096 640 4096 
L 1632 4096 
z
" id="URWPalladioL-Roma-54" transform="scale(0.015625)"/>
       <path d="M 1203 2982 
L 1146 3008 
C 819 2873 486 2784 147 2746 
L 147 2568 
L 384 2568 
C 640 2568 666 2523 666 2103 
L 666 669 
C 666 268 646 223 429 211 
L 134 192 
L 134 0 
C 774 0 774 0 934 0 
C 1094 19 1094 19 1734 0 
L 1734 192 
L 1440 211 
C 1222 224 1203 268 1203 671 
L 1203 2982 
z
M 909 4416 
C 717 4416 550 4249 550 4057 
C 550 3871 717 3705 902 3705 
C 1088 3705 1261 3871 1261 4057 
C 1261 4236 1088 4416 909 4416 
z
" id="URWPalladioL-Roma-69" transform="scale(0.015625)"/>
       <path d="M 115 2579 
L 352 2579 
C 608 2579 634 2534 634 2112 
L 634 672 
C 634 268 614 224 397 211 
L 102 192 
L 102 0 
C 717 0 736 0 915 0 
C 1094 19 1261 12 1677 0 
L 1677 192 
L 1408 211 
C 1190 223 1171 268 1171 670 
L 1171 2023 
C 1171 2311 1594 2624 1978 2624 
C 2323 2624 2560 2298 2560 1813 
L 2560 670 
C 2560 268 2541 223 2323 211 
L 2029 192 
L 2029 0 
C 2669 0 2669 0 2829 0 
C 2989 19 2989 19 3629 0 
L 3629 192 
L 3334 211 
C 3117 223 3098 268 3098 670 
L 3098 2023 
C 3098 2311 3520 2624 3904 2624 
C 4250 2624 4486 2298 4486 1813 
L 4486 0 
C 4877 0 4883 0 4992 0 
C 5075 19 5075 19 5562 0 
L 5562 192 
L 5261 211 
C 5043 223 5024 268 5024 670 
L 5024 1985 
C 5024 2617 4653 3014 4064 3014 
C 3840 3014 3654 2956 3539 2854 
L 3053 2419 
C 2848 2841 2586 3014 2144 3014 
C 1907 3014 1728 2956 1613 2854 
L 1171 2445 
L 1171 2988 
L 1114 3008 
C 787 2873 454 2783 115 2745 
L 115 2579 
z
" id="URWPalladioL-Roma-6d" transform="scale(0.015625)"/>
       <path d="M 2797 447 
L 2714 511 
C 2304 268 2157 211 1882 211 
C 1466 211 1120 396 941 710 
C 819 921 774 1100 762 1472 
L 1696 1472 
C 2138 1472 2413 1491 2854 1561 
C 2861 1651 2867 1708 2867 1786 
C 2867 2526 2394 3008 1677 3008 
C 1440 3008 1165 2924 902 2771 
C 378 2468 166 2069 166 1401 
C 166 998 262 652 435 409 
C 691 70 1120 -128 1600 -128 
C 1837 -128 2074 -77 2336 38 
C 2509 108 2643 192 2669 230 
L 2797 447 
z
M 2298 1708 
C 1965 1696 1811 1689 1581 1689 
C 1286 1689 1120 1696 774 1728 
C 774 2030 800 2172 883 2339 
C 1018 2623 1293 2796 1600 2796 
C 1811 2796 1978 2713 2093 2539 
C 2234 2326 2278 2140 2298 1708 
z
" id="URWPalladioL-Roma-65" transform="scale(0.015625)"/>
       <path d="M 800 2489 
L 442 678 
C 435 633 429 620 410 544 
C 371 364 358 268 358 192 
C 358 32 429 -64 550 -64 
C 774 -64 998 64 1498 467 
L 1594 544 
L 1696 627 
L 1632 742 
L 1344 544 
C 1158 416 1030 352 960 352 
C 902 352 870 403 870 480 
C 870 646 960 1164 1146 2092 
L 1229 2489 
L 1914 2489 
L 1984 2809 
C 1741 2784 1523 2771 1280 2771 
C 1382 3373 1453 3686 1568 4032 
L 1498 4128 
C 1370 4051 1197 3974 998 3897 
L 838 2809 
C 557 2675 390 2604 275 2572 
L 262 2489 
L 800 2489 
z
" id="URWPalladioL-Ital-74" transform="scale(0.015625)"/>
       <path d="M 563 -1178 
C 1018 -1166 1030 -1166 1184 -1166 
C 1338 -1166 1370 -1166 1805 -1178 
L 1843 -1140 
L 1843 -974 
L 1818 -942 
L 1574 -942 
C 1402 -942 1261 -903 1184 -839 
C 1126 -782 1107 -692 1107 -481 
C 1107 -474 1107 -340 1101 -148 
L 1101 89 
L 1101 3379 
L 1101 3615 
C 1107 3795 1107 3935 1107 3942 
C 1107 4153 1126 4249 1184 4307 
C 1261 4371 1402 4409 1574 4409 
L 1818 4409 
L 1843 4441 
L 1843 4608 
L 1805 4646 
C 1357 4633 1338 4633 1184 4633 
C 1037 4633 1005 4633 563 4646 
L 506 4563 
C 544 4403 557 4191 557 3699 
C 557 3603 557 3526 563 3462 
L 563 3379 
L 563 89 
L 563 6 
C 557 -97 557 -103 557 -212 
L 557 -282 
C 557 -718 544 -897 506 -1095 
L 563 -1178 
z
" id="URWPalladioL-Roma-5b" transform="scale(0.015625)"/>
       <path d="M 262 917 
C 262 474 243 282 192 25 
C 525 -84 774 -128 1069 -128 
C 1907 -128 2502 320 2502 949 
C 2502 1148 2445 1295 2323 1423 
C 2157 1584 1946 1661 1382 1770 
C 858 1872 685 2001 685 2296 
C 685 2617 909 2796 1299 2796 
C 1728 2796 2054 2572 2054 2270 
L 2054 2123 
L 2234 2123 
C 2240 2495 2246 2649 2266 2847 
C 1926 2963 1696 3008 1434 3008 
C 691 3008 237 2655 237 2078 
C 237 1770 378 1552 672 1417 
C 845 1340 1184 1237 1619 1141 
C 1907 1077 2029 942 2029 698 
C 2029 352 1709 108 1254 108 
C 787 108 454 333 454 654 
L 454 917 
L 262 917 
z
" id="URWPalladioL-Roma-73" transform="scale(0.015625)"/>
       <path d="M 2554 1995 
C 2554 2290 2586 2553 2643 2783 
C 2387 2937 2163 3008 1901 3008 
C 1594 3008 1235 2886 851 2643 
C 403 2360 166 1911 166 1347 
C 166 480 774 -128 1632 -128 
C 1965 -128 2445 -7 2509 89 
L 2643 294 
L 2579 390 
C 2342 262 2138 204 1907 204 
C 1197 204 730 756 730 1603 
C 730 2290 1050 2675 1626 2675 
C 1907 2675 2214 2547 2330 2386 
L 2374 1995 
L 2554 1995 
z
" id="URWPalladioL-Roma-63" transform="scale(0.015625)"/>
       <path d="M 1786 3008 
C 851 3008 205 2347 205 1391 
C 205 487 774 -128 1600 -128 
C 2586 -128 3290 557 3290 1520 
C 3290 2386 2662 3008 1786 3008 
z
M 1670 2796 
C 2259 2796 2694 2155 2694 1282 
C 2694 545 2368 83 1850 83 
C 1222 83 800 699 800 1609 
C 800 2379 1107 2796 1670 2796 
z
" id="URWPalladioL-Roma-6f" transform="scale(0.015625)"/>
       <path d="M 2624 0 
C 3014 0 3021 0 3130 0 
C 3219 19 3219 19 3661 0 
L 3661 192 
L 3398 211 
C 3181 223 3162 262 3162 670 
L 3162 1902 
C 3162 2649 2810 3014 2093 3014 
C 1856 3014 1722 2969 1587 2854 
L 1101 2432 
L 1101 2988 
L 1043 3008 
C 717 2873 384 2784 45 2746 
L 45 2568 
L 282 2568 
C 538 2568 563 2523 563 2103 
L 563 669 
C 563 268 544 223 326 211 
L 38 192 
L 38 0 
C 474 -7 646 0 832 0 
C 1018 19 1190 12 1626 0 
L 1626 192 
L 1338 211 
C 1120 223 1101 268 1101 670 
L 1101 2023 
C 1101 2311 1523 2624 1914 2624 
C 2342 2624 2624 2304 2624 1813 
L 2624 0 
z
" id="URWPalladioL-Roma-6e" transform="scale(0.015625)"/>
       <path d="M 2637 2803 
C 2278 2956 2099 3008 1875 3008 
C 1702 3008 1549 2969 1389 2886 
L 826 2592 
C 461 2400 224 1934 224 1392 
C 224 881 397 460 710 204 
C 928 19 1229 -64 1645 -64 
C 1773 -64 1920 -39 1952 -13 
L 2662 581 
L 2630 0 
C 2944 -7 3046 0 3123 0 
C 3174 0 3264 0 3398 -7 
C 3443 6 3571 6 3706 0 
L 3706 192 
L 3411 211 
C 3194 224 3174 268 3174 672 
L 3174 4614 
L 3117 4665 
C 2835 4557 2624 4505 2118 4429 
L 2118 4249 
L 2477 4249 
C 2592 4249 2637 4179 2637 3987 
L 2637 2803 
z
M 2637 1424 
C 2637 1009 2624 945 2541 798 
C 2362 498 2048 300 1747 300 
C 1184 300 781 843 781 1602 
C 781 2298 1126 2707 1702 2707 
C 1946 2707 2202 2624 2426 2470 
C 2560 2381 2637 2298 2637 2247 
L 2637 1424 
z
" id="URWPalladioL-Roma-64" transform="scale(0.015625)"/>
       <path d="M 1568 4646 
C 1114 4633 1094 4633 947 4633 
C 794 4633 762 4633 326 4646 
L 288 4608 
L 288 4441 
L 314 4409 
L 557 4409 
C 730 4409 864 4371 941 4307 
C 1005 4249 1024 4159 1024 3942 
C 1024 3923 1024 3795 1030 3615 
L 1030 3379 
L 1030 89 
L 1030 -148 
C 1024 -334 1024 -449 1024 -468 
C 1024 -686 1005 -782 941 -839 
C 864 -903 730 -942 557 -942 
L 314 -942 
L 288 -974 
L 288 -1140 
L 326 -1178 
C 774 -1166 787 -1166 947 -1166 
C 1094 -1166 1126 -1166 1568 -1178 
L 1626 -1095 
C 1587 -942 1581 -743 1574 -250 
C 1574 -161 1574 -78 1568 6 
L 1568 89 
L 1568 3379 
L 1568 3462 
C 1574 3532 1574 3615 1574 3705 
C 1574 4198 1587 4409 1626 4563 
L 1568 4646 
z
" id="URWPalladioL-Roma-5d" transform="scale(0.015625)"/>
      </defs>
      <use transform="scale(0.996264)" xlink:href="#URWPalladioL-Roma-54"/>
      <use transform="translate(55.591109 0)scale(0.996264)" xlink:href="#URWPalladioL-Roma-69"/>
      <use transform="translate(84.581471 0)scale(0.996264)" xlink:href="#URWPalladioL-Roma-6d"/>
      <use transform="translate(172.551145 0)scale(0.996264)" xlink:href="#URWPalladioL-Roma-65"/>
      <use transform="translate(246.42334 0)scale(0.996264)" xlink:href="#URWPalladioL-Ital-74"/>
      <use transform="translate(305.749922 0)scale(0.996264)" xlink:href="#URWPalladioL-Roma-5b"/>
      <use transform="translate(338.925152 0)scale(0.996264)" xlink:href="#URWPalladioL-Roma-73"/>
      <use transform="translate(381.166618 0)scale(0.996264)" xlink:href="#URWPalladioL-Roma-65"/>
      <use transform="translate(428.886913 0)scale(0.996264)" xlink:href="#URWPalladioL-Roma-63"/>
      <use transform="translate(473.120482 0)scale(0.996264)" xlink:href="#URWPalladioL-Roma-6f"/>
      <use transform="translate(527.516062 0)scale(0.996264)" xlink:href="#URWPalladioL-Roma-6e"/>
      <use transform="translate(585.498123 0)scale(0.996264)" xlink:href="#URWPalladioL-Roma-64"/>
      <use transform="translate(646.369754 0)scale(0.996264)" xlink:href="#URWPalladioL-Roma-73"/>
      <use transform="translate(688.61122 0)scale(0.996264)" xlink:href="#URWPalladioL-Roma-5d"/>
     </g>
    </g>
   </g>
   <g id="matplotlib.axis_2">
    <g id="ytick_1">
     <g id="line2d_11">
      <path clip-path="url(#p7fd8d815d2)" d="M 41.145691 141.467947 
L 577.19952 141.467947 
" style="fill:none;stroke:#000000;stroke-linejoin:miter;stroke-opacity:0.2;stroke-width:0.5;"/>
     </g>
     <g id="line2d_12">
      <defs>
       <path d="M 0 0 
L -3.5 0 
" id="m6d32b0b87f" style="stroke:#000000;stroke-opacity:0.2;stroke-width:0.8;"/>
      </defs>
      <g>
       <use style="fill-opacity:0.2;stroke:#000000;stroke-opacity:0.2;stroke-width:0.8;" x="41.145691" xlink:href="#m6d32b0b87f" y="141.467947"/>
      </g>
     </g>
     <g id="text_7">
      <!-- $\mathdefault{−2}$ -->
      <g transform="translate(7.2 146.457711)scale(0.14 -0.14)">
       <defs>
        <path d="M 4218 1472 
C 4326 1472 4442 1472 4442 1600 
C 4442 1728 4326 1728 4218 1728 
L 755 1728 
C 646 1728 531 1728 531 1600 
C 531 1472 646 1472 755 1472 
L 4218 1472 
z
" id="CMSY10-0" transform="scale(0.015625)"/>
       </defs>
       <use transform="scale(1.038107)" xlink:href="#CMSY10-0"/>
       <use transform="translate(81.941696 0)scale(0.996264)" xlink:href="#URWPalladioL-Roma-32"/>
      </g>
     </g>
    </g>
    <g id="ytick_2">
     <g id="line2d_13">
      <path clip-path="url(#p7fd8d815d2)" d="M 41.145691 109.499388 
L 577.19952 109.499388 
" style="fill:none;stroke:#000000;stroke-linejoin:miter;stroke-opacity:0.2;stroke-width:0.5;"/>
     </g>
     <g id="line2d_14">
      <g>
       <use style="fill-opacity:0.2;stroke:#000000;stroke-opacity:0.2;stroke-width:0.8;" x="41.145691" xlink:href="#m6d32b0b87f" y="109.499388"/>
      </g>
     </g>
     <g id="text_8">
      <!-- $\mathdefault{−1}$ -->
      <g transform="translate(7.2 114.489153)scale(0.14 -0.14)">
       <defs>
        <path d="M 429 3571 
L 493 3571 
L 1318 3942 
C 1325 3949 1331 3949 1338 3949 
C 1376 3949 1389 3891 1389 3737 
L 1389 633 
C 1389 300 1318 230 973 211 
L 614 192 
L 614 0 
C 1600 0 1600 0 1670 0 
C 1754 0 1894 0 2112 -7 
C 2189 6 2413 6 2675 0 
L 2675 192 
L 2342 211 
C 1990 229 1926 299 1926 628 
L 1926 4383 
L 1837 4416 
C 1421 4199 966 4009 384 3807 
L 429 3571 
z
" id="URWPalladioL-Roma-31" transform="scale(0.015625)"/>
       </defs>
       <use transform="scale(1.038107)" xlink:href="#CMSY10-0"/>
       <use transform="translate(81.941696 0)scale(0.996264)" xlink:href="#URWPalladioL-Roma-31"/>
      </g>
     </g>
    </g>
    <g id="ytick_3">
     <g id="line2d_15">
      <path clip-path="url(#p7fd8d815d2)" d="M 41.145691 77.530829 
L 577.19952 77.530829 
" style="fill:none;stroke:#000000;stroke-linejoin:miter;stroke-opacity:0.2;stroke-width:0.5;"/>
     </g>
     <g id="line2d_16">
      <g>
       <use style="fill-opacity:0.2;stroke:#000000;stroke-opacity:0.2;stroke-width:0.8;" x="41.145691" xlink:href="#m6d32b0b87f" y="77.530829"/>
      </g>
     </g>
     <g id="text_9">
      <!-- $\mathdefault{0}$ -->
      <g transform="translate(18.671843 82.520594)scale(0.14 -0.14)">
       <use transform="scale(0.996264)" xlink:href="#URWPalladioL-Roma-30"/>
      </g>
     </g>
    </g>
    <g id="ytick_4">
     <g id="line2d_17">
      <path clip-path="url(#p7fd8d815d2)" d="M 41.145691 45.562271 
L 577.19952 45.562271 
" style="fill:none;stroke:#000000;stroke-linejoin:miter;stroke-opacity:0.2;stroke-width:0.5;"/>
     </g>
     <g id="line2d_18">
      <g>
       <use style="fill-opacity:0.2;stroke:#000000;stroke-opacity:0.2;stroke-width:0.8;" x="41.145691" xlink:href="#m6d32b0b87f" y="45.562271"/>
      </g>
     </g>
     <g id="text_10">
      <!-- $\mathdefault{1}$ -->
      <g transform="translate(18.671843 50.552035)scale(0.14 -0.14)">
       <use transform="scale(0.996264)" xlink:href="#URWPalladioL-Roma-31"/>
      </g>
     </g>
    </g>
    <g id="ytick_5">
     <g id="line2d_19">
      <path clip-path="url(#p7fd8d815d2)" d="M 41.145691 13.593712 
L 577.19952 13.593712 
" style="fill:none;stroke:#000000;stroke-linejoin:miter;stroke-opacity:0.2;stroke-width:0.5;"/>
     </g>
     <g id="line2d_20">
      <g>
       <use style="fill-opacity:0.2;stroke:#000000;stroke-opacity:0.2;stroke-width:0.8;" x="41.145691" xlink:href="#m6d32b0b87f" y="13.593712"/>
      </g>
     </g>
     <g id="text_11">
      <!-- $\mathdefault{2}$ -->
      <g transform="translate(18.671843 18.583476)scale(0.14 -0.14)">
       <use transform="scale(0.996264)" xlink:href="#URWPalladioL-Roma-32"/>
      </g>
     </g>
    </g>
   </g>
   <g id="line2d_21">
    <path clip-path="url(#p7fd8d815d2)" d="M 41.145691 13.593712 
L 42.755462 13.695912 
L 44.365233 14.002186 
L 45.975004 14.511555 
L 47.584776 15.22239 
L 49.194547 16.132419 
L 51.340909 17.650529 
L 53.48727 19.508891 
L 55.633632 21.696945 
L 57.779994 24.202258 
L 59.926355 27.010595 
L 62.609308 30.922676 
L 65.29226 35.248455 
L 68.511802 40.931169 
L 71.731345 47.081531 
L 75.487478 54.742881 
L 80.316791 65.155834 
L 90.512009 87.929381 
L 95.877914 99.566304 
L 100.170637 108.332771 
L 103.390179 114.459163 
L 106.609722 120.113708 
L 109.292674 124.413063 
L 111.975626 128.296287 
L 114.658578 131.728913 
L 116.80494 134.129968 
L 118.951302 136.209415 
L 121.097663 137.955438 
L 123.244025 139.358117 
L 124.853796 140.179937 
L 126.463567 140.801474 
L 128.073339 141.220741 
L 129.68311 141.436398 
L 131.292881 141.447755 
L 132.902652 141.254776 
L 134.512424 140.858078 
L 136.122195 140.258929 
L 137.731966 139.459245 
L 139.341738 138.461581 
L 141.488099 136.828999 
L 143.634461 134.859473 
L 145.780823 132.564193 
L 147.927184 129.956204 
L 150.610136 126.279206 
L 153.293088 122.169514 
L 155.976041 117.663606 
L 159.195583 111.79005 
L 162.951716 104.3899 
L 167.244439 95.368716 
L 173.146934 82.347008 
L 183.878742 58.538847 
L 188.171466 49.582907 
L 191.927599 42.260182 
L 195.147141 36.467046 
L 197.830093 32.037289 
L 200.513045 28.011336 
L 203.195997 24.424922 
L 205.342359 21.893788 
L 207.488721 19.678796 
L 209.635083 17.79253 
L 211.781444 16.245709 
L 213.391215 15.313715 
L 215.000987 14.580624 
L 216.610758 14.048778 
L 218.220529 13.719877 
L 219.8303 13.594974 
L 221.440072 13.674467 
L 223.049843 13.958103 
L 224.659614 14.444974 
L 226.269386 15.133525 
L 227.879157 16.021553 
L 230.025518 17.510892 
L 232.17188 19.341277 
L 234.318242 21.502306 
L 236.464603 23.981701 
L 238.610965 26.765372 
L 241.293917 30.648596 
L 243.976869 34.94795 
L 247.196412 40.602495 
L 250.415954 46.728888 
L 254.172087 54.367987 
L 259.001401 64.761949 
L 267.586848 83.947668 
L 274.025933 98.051039 
L 278.318656 106.915041 
L 282.074789 114.130489 
L 285.294332 119.813204 
L 287.977284 124.138982 
L 290.660236 128.051063 
L 293.343188 131.514723 
L 295.48955 133.941987 
L 297.635911 136.048712 
L 299.782273 137.822926 
L 301.928635 139.254549 
L 303.538406 140.098472 
L 305.148177 140.742372 
L 306.757948 141.184192 
L 308.36772 141.422518 
L 309.977491 141.456589 
L 311.587262 141.286295 
L 313.197034 140.912182 
L 314.806805 140.335445 
L 316.416576 139.557927 
L 318.026347 138.582116 
L 320.172709 136.978058 
L 322.319071 135.036209 
L 324.465432 132.767602 
L 326.611794 130.18513 
L 328.758156 127.303465 
L 331.441108 123.305744 
L 334.12406 118.901722 
L 337.343602 113.135851 
L 340.563145 106.915041 
L 344.319278 99.188755 
L 349.148592 88.721299 
L 365.782895 52.138338 
L 369.539028 44.639048 
L 372.75857 38.661518 
L 375.978113 33.180636 
L 378.661065 29.043354 
L 381.344017 25.336451 
L 383.490378 22.703047 
L 385.63674 20.381185 
L 387.783102 18.384059 
L 389.929464 16.723017 
L 392.075825 15.407497 
L 393.685596 14.652178 
L 395.295368 14.097875 
L 396.905139 13.746361 
L 398.51491 13.59876 
L 400.124681 13.655543 
L 401.734453 13.916529 
L 403.344224 14.380884 
L 404.953995 15.047122 
L 406.563767 15.913115 
L 408.710128 17.373625 
L 410.85649 19.17596 
L 413.002852 21.309879 
L 415.149213 23.763257 
L 417.295575 26.522152 
L 419.978527 30.376366 
L 422.661479 34.649127 
L 425.881022 40.27528 
L 429.100564 46.377461 
L 432.856697 53.994006 
L 437.686011 64.368567 
L 445.734867 82.347008 
L 452.173952 96.522812 
L 456.466676 105.478751 
L 460.222809 112.801476 
L 463.442351 118.594613 
L 466.125303 123.02437 
L 468.808255 127.050322 
L 471.491207 130.636737 
L 473.637569 133.16787 
L 475.783931 135.382863 
L 477.930292 137.269129 
L 480.076654 138.81595 
L 481.686425 139.747943 
L 483.296197 140.481035 
L 484.905968 141.012881 
L 486.515739 141.341782 
L 488.12551 141.466685 
L 489.735282 141.387191 
L 491.345053 141.103556 
L 492.954824 140.616684 
L 494.564595 139.928134 
L 496.174367 139.040106 
L 498.320728 137.550766 
L 500.46709 135.720382 
L 502.613452 133.559352 
L 504.759813 131.079958 
L 506.906175 128.296287 
L 509.589127 124.413063 
L 512.272079 120.113708 
L 515.491622 114.459163 
L 518.711164 108.332771 
L 522.467297 100.693672 
L 527.296611 90.29971 
L 535.882058 71.113991 
L 542.321143 57.01062 
L 546.613866 48.146618 
L 550.369999 40.931169 
L 553.589542 35.248455 
L 556.272494 30.922676 
L 558.955446 27.010595 
L 561.638398 23.546935 
L 563.78476 21.119671 
L 565.931121 19.012947 
L 568.077483 17.238733 
L 570.223845 15.80711 
L 571.833616 14.963187 
L 573.443387 14.319286 
L 575.053158 13.877467 
L 576.66293 13.639141 
L 577.19952 13.60507 
L 577.19952 13.60507 
" style="fill:none;stroke:#0271ae;stroke-linejoin:miter;stroke-width:3;"/>
   </g>
   <g id="line2d_22">
    <path clip-path="url(#p7fd8d815d2)" d="M 41.145691 141.467947 
L 42.755462 141.365747 
L 44.365233 141.059472 
L 45.975004 140.550104 
L 47.584776 139.839268 
L 49.194547 138.92924 
L 51.340909 137.411129 
L 53.48727 135.552768 
L 55.633632 133.364713 
L 57.779994 130.8594 
L 59.926355 128.051063 
L 62.609308 124.138982 
L 65.29226 119.813204 
L 68.511802 114.130489 
L 71.731345 107.980127 
L 75.487478 100.318777 
L 80.316791 89.905824 
L 90.512009 67.132278 
L 95.877914 55.495354 
L 100.170637 46.728888 
L 103.390179 40.602495 
L 106.609722 34.94795 
L 109.292674 30.648596 
L 111.975626 26.765372 
L 114.658578 23.332745 
L 116.80494 20.931691 
L 118.951302 18.852244 
L 121.097663 17.10622 
L 123.244025 15.703542 
L 124.853796 14.881722 
L 126.463567 14.260185 
L 128.073339 13.840918 
L 129.68311 13.625261 
L 131.292881 13.613904 
L 132.902652 13.806883 
L 134.512424 14.203581 
L 136.122195 14.80273 
L 137.731966 15.602414 
L 139.341738 16.600077 
L 141.488099 18.23266 
L 143.634461 20.202186 
L 145.780823 22.497465 
L 147.927184 25.105455 
L 150.610136 28.782453 
L 153.293088 32.892145 
L 155.976041 37.398053 
L 159.195583 43.271609 
L 162.951716 50.671759 
L 167.244439 59.692942 
L 173.146934 72.71465 
L 183.878742 96.522812 
L 188.171466 105.478751 
L 191.927599 112.801476 
L 195.147141 118.594613 
L 197.830093 123.02437 
L 200.513045 127.050322 
L 203.195997 130.636737 
L 205.342359 133.16787 
L 207.488721 135.382863 
L 209.635083 137.269129 
L 211.781444 138.81595 
L 213.391215 139.747943 
L 215.000987 140.481035 
L 216.610758 141.012881 
L 218.220529 141.341782 
L 219.8303 141.466685 
L 221.440072 141.387191 
L 223.049843 141.103556 
L 224.659614 140.616684 
L 226.269386 139.928134 
L 227.879157 139.040106 
L 230.025518 137.550766 
L 232.17188 135.720382 
L 234.318242 133.559352 
L 236.464603 131.079958 
L 238.610965 128.296287 
L 241.293917 124.413063 
L 243.976869 120.113708 
L 247.196412 114.459163 
L 250.415954 108.332771 
L 254.172087 100.693672 
L 259.001401 90.29971 
L 267.586848 71.113991 
L 274.025933 57.01062 
L 278.318656 48.146618 
L 282.074789 40.931169 
L 285.294332 35.248455 
L 287.977284 30.922676 
L 290.660236 27.010595 
L 293.343188 23.546935 
L 295.48955 21.119671 
L 297.635911 19.012947 
L 299.782273 17.238733 
L 301.928635 15.80711 
L 303.538406 14.963187 
L 305.148177 14.319286 
L 306.757948 13.877467 
L 308.36772 13.639141 
L 309.977491 13.60507 
L 311.587262 13.775363 
L 313.197034 14.149477 
L 314.806805 14.726214 
L 316.416576 15.503731 
L 318.026347 16.479543 
L 320.172709 18.083601 
L 322.319071 20.02545 
L 324.465432 22.294056 
L 326.611794 24.876529 
L 328.758156 27.758194 
L 331.441108 31.755914 
L 334.12406 36.159936 
L 337.343602 41.925808 
L 340.563145 48.146618 
L 344.319278 55.872903 
L 349.148592 66.340359 
L 365.782895 102.923321 
L 369.539028 110.42261 
L 372.75857 116.40014 
L 375.978113 121.881022 
L 378.661065 126.018304 
L 381.344017 129.725208 
L 383.490378 132.358612 
L 385.63674 134.680473 
L 387.783102 136.677599 
L 389.929464 138.338642 
L 392.075825 139.654162 
L 393.685596 140.409481 
L 395.295368 140.963784 
L 396.905139 141.315297 
L 398.51491 141.462899 
L 400.124681 141.406115 
L 401.734453 141.145129 
L 403.344224 140.680775 
L 404.953995 140.014536 
L 406.563767 139.148543 
L 408.710128 137.688034 
L 410.85649 135.885699 
L 413.002852 133.75178 
L 415.149213 131.298402 
L 417.295575 128.539506 
L 419.978527 124.685292 
L 422.661479 120.412532 
L 425.881022 114.786379 
L 429.100564 108.684198 
L 432.856697 101.067652 
L 437.686011 90.693091 
L 445.734867 72.71465 
L 452.173952 58.538847 
L 456.466676 49.582907 
L 460.222809 42.260182 
L 463.442351 36.467046 
L 466.125303 32.037289 
L 468.808255 28.011336 
L 471.491207 24.424922 
L 473.637569 21.893788 
L 475.783931 19.678796 
L 477.930292 17.79253 
L 480.076654 16.245709 
L 481.686425 15.313715 
L 483.296197 14.580624 
L 484.905968 14.048778 
L 486.515739 13.719877 
L 488.12551 13.594974 
L 489.735282 13.674467 
L 491.345053 13.958103 
L 492.954824 14.444974 
L 494.564595 15.133525 
L 496.174367 16.021553 
L 498.320728 17.510892 
L 500.46709 19.341277 
L 502.613452 21.502306 
L 504.759813 23.981701 
L 506.906175 26.765372 
L 509.589127 30.648596 
L 512.272079 34.94795 
L 515.491622 40.602495 
L 518.711164 46.728888 
L 522.467297 54.367987 
L 527.296611 64.761949 
L 535.882058 83.947668 
L 542.321143 98.051039 
L 546.613866 106.915041 
L 550.369999 114.130489 
L 553.589542 119.813204 
L 556.272494 124.138982 
L 558.955446 128.051063 
L 561.638398 131.514723 
L 563.78476 133.941987 
L 565.931121 136.048712 
L 568.077483 137.822926 
L 570.223845 139.254549 
L 571.833616 140.098472 
L 573.443387 140.742372 
L 575.053158 141.184192 
L 576.66293 141.422518 
L 577.19952 141.456589 
L 577.19952 141.456589 
" style="fill:none;stroke:#dc2830;stroke-dasharray:11.1,4.8;stroke-dashoffset:0;stroke-linejoin:miter;stroke-width:3;"/>
   </g>
   <g id="legend_1">
    <g id="patch_3">
     <path d="M 295.708464 39.933482 
L 567.39952 39.933482 
Q 570.19952 39.933482 570.19952 37.133482 
L 570.19952 17 
Q 570.19952 14.2 567.39952 14.2 
L 295.708464 14.2 
Q 292.908464 14.2 292.908464 17 
L 292.908464 37.133482 
Q 292.908464 39.933482 295.708464 39.933482 
z
" style="fill:#ffffff;opacity:0.95;stroke:#cccccc;stroke-linejoin:miter;stroke-width:0.5;"/>
    </g>
    <g id="line2d_23">
     <path d="M 298.508464 25.500309 
L 312.508464 25.500309 
" style="fill:none;stroke:#0271ae;stroke-linejoin:miter;stroke-width:3;"/>
    </g>
    <g id="line2d_24"/>
    <g id="text_12">
     <!-- $\cos(2\pi \cdot 3 \cdot t)$ -->
     <g transform="translate(323.708464 30.400309)scale(0.14 -0.14)">
      <defs>
       <path d="M 2118 -1536 
C 2118 -1517 2118 -1504 2010 -1396 
C 1210 -589 1005 620 1005 1600 
C 1005 2713 1248 3827 2035 4627 
C 2118 4704 2118 4716 2118 4736 
C 2118 4780 2093 4800 2054 4800 
C 1990 4800 1414 4365 1037 3552 
C 710 2848 634 2137 634 1600 
C 634 1100 704 326 1056 -397 
C 1440 -1184 1990 -1600 2054 -1600 
C 2093 -1600 2118 -1581 2118 -1536 
z
" id="CMR10-28" transform="scale(0.015625)"/>
       <path d="M 614 2255 
L 672 2299 
C 806 2681 1062 2700 1427 2700 
C 1504 2700 1619 2694 1754 2694 
C 1216 1242 973 803 454 -7 
L 512 -64 
L 986 102 
C 1216 599 1606 1567 1958 2688 
L 3149 2624 
C 3040 2232 2669 1089 2669 685 
C 2669 19 2912 -64 3110 -64 
C 3437 -64 3622 19 4026 356 
L 3974 476 
L 3821 369 
C 3840 382 3654 236 3546 236 
C 3245 236 3155 419 3155 811 
C 3155 969 3168 1139 3206 1323 
C 3315 1847 3424 2365 3482 2624 
C 3629 2624 3776 2630 3923 2649 
C 4038 2649 4179 2713 4282 2752 
C 4352 2905 4378 2918 4499 3072 
L 4454 3136 
C 4282 3075 3994 3008 3782 3008 
C 3706 3001 3546 2995 3386 2995 
C 2701 3020 1645 3072 1363 3072 
C 883 3072 710 2860 525 2306 
L 614 2255 
z
" id="PazoMath-Italic-70" transform="scale(0.015625)"/>
       <path d="M 1229 1619 
C 1229 1804 1075 1958 890 1958 
C 704 1958 550 1804 550 1619 
C 550 1433 704 1280 890 1280 
C 1075 1280 1229 1433 1229 1619 
z
" id="CMSY10-1" transform="scale(0.015625)"/>
       <path d="M 275 3196 
L 474 3196 
L 589 3553 
C 659 3770 1062 3987 1395 3987 
C 1811 3987 2150 3649 2150 3247 
C 2150 2769 1773 2368 1318 2368 
C 1267 2368 1197 2374 1114 2380 
L 1018 2387 
L 941 2047 
L 986 2008 
C 1229 2118 1350 2150 1523 2150 
C 2054 2150 2362 1808 2362 1222 
C 2362 565 1971 134 1376 134 
C 1082 134 819 231 627 411 
C 474 553 390 701 269 1048 
L 96 984 
C 230 591 282 359 320 38 
C 659 -77 941 -128 1178 -128 
C 1690 -128 2278 160 2630 591 
C 2848 855 2957 1139 2957 1441 
C 2957 1750 2829 2021 2598 2182 
C 2438 2297 2291 2348 1971 2406 
C 2483 2801 2675 3094 2675 3470 
C 2675 4038 2202 4416 1491 4416 
C 1056 4416 768 4294 461 3987 
L 275 3196 
z
" id="URWPalladioL-Roma-33" transform="scale(0.015625)"/>
       <path d="M 1850 1600 
C 1850 2099 1779 2873 1427 3597 
C 1043 4384 493 4800 429 4800 
C 390 4800 365 4774 365 4736 
C 365 4716 365 4704 486 4589 
C 1114 3955 1478 2937 1478 1600 
C 1478 505 1242 -621 448 -1428 
C 365 -1504 365 -1517 365 -1536 
C 365 -1575 390 -1600 429 -1600 
C 493 -1600 1069 -1165 1446 -352 
C 1773 352 1850 1062 1850 1600 
z
" id="CMR10-29" transform="scale(0.015625)"/>
      </defs>
      <use transform="scale(0.996264)" xlink:href="#URWPalladioL-Roma-63"/>
      <use transform="translate(44.233569 0)scale(0.996264)" xlink:href="#URWPalladioL-Roma-6f"/>
      <use transform="translate(98.629149 0)scale(0.996264)" xlink:href="#URWPalladioL-Roma-73"/>
      <use transform="translate(142.115915 0)scale(1.038107)" xlink:href="#CMR10-28"/>
      <use transform="translate(183.61032 0)scale(0.996264)" xlink:href="#URWPalladioL-Roma-32"/>
      <use transform="translate(234.66882 0)scale(0.996264)" xlink:href="#PazoMath-Italic-70"/>
      <use transform="translate(326.567501 0)scale(1.038107)" xlink:href="#CMSY10-1"/>
      <use transform="translate(375.976654 0)scale(0.996264)" xlink:href="#URWPalladioL-Roma-33"/>
      <use transform="translate(446.406907 0)scale(1.038107)" xlink:href="#CMSY10-1"/>
      <use transform="translate(497.061359 0)scale(0.996264)" xlink:href="#URWPalladioL-Ital-74"/>
      <use transform="translate(532.72664 0)scale(1.038107)" xlink:href="#CMR10-29"/>
     </g>
    </g>
    <g id="line2d_25">
     <path d="M 431.941997 25.500309 
L 445.941997 25.500309 
" style="fill:none;stroke:#dc2830;stroke-dasharray:11.1,4.8;stroke-dashoffset:0;stroke-linejoin:miter;stroke-width:3;"/>
    </g>
    <g id="line2d_26"/>
    <g id="text_13">
     <!-- $\cos(2\pi \cdot 3 \cdot t - \pi)$ -->
     <g transform="translate(457.141997 30.400309)scale(0.14 -0.14)">
      <use transform="scale(0.996264)" xlink:href="#URWPalladioL-Roma-63"/>
      <use transform="translate(44.233569 0)scale(0.996264)" xlink:href="#URWPalladioL-Roma-6f"/>
      <use transform="translate(98.629149 0)scale(0.996264)" xlink:href="#URWPalladioL-Roma-73"/>
      <use transform="translate(142.115915 0)scale(1.038107)" xlink:href="#CMR10-28"/>
      <use transform="translate(183.61032 0)scale(0.996264)" xlink:href="#URWPalladioL-Roma-32"/>
      <use transform="translate(234.66882 0)scale(0.996264)" xlink:href="#PazoMath-Italic-70"/>
      <use transform="translate(326.567501 0)scale(1.038107)" xlink:href="#CMSY10-1"/>
      <use transform="translate(375.976654 0)scale(0.996264)" xlink:href="#URWPalladioL-Roma-33"/>
      <use transform="translate(446.406907 0)scale(1.038107)" xlink:href="#CMSY10-1"/>
      <use transform="translate(497.061359 0)scale(0.996264)" xlink:href="#URWPalladioL-Ital-74"/>
      <use transform="translate(552.098393 0)scale(1.038107)" xlink:href="#CMSY10-0"/>
      <use transform="translate(654.657142 0)scale(0.996264)" xlink:href="#PazoMath-Italic-70"/>
      <use transform="translate(727.18407 0)scale(1.038107)" xlink:href="#CMR10-29"/>
     </g>
    </g>
   </g>
  </g>
 </g>
 <defs>
  <clipPath id="p7fd8d815d2">
   <rect height="140.661659" width="536.053829" x="41.145691" y="7.2"/>
  </clipPath>
 </defs>
</svg>
