<?xml version="1.0" encoding="utf-8" standalone="no"?>
<!DOCTYPE svg PUBLIC "-//W3C//DTD SVG 1.1//EN"
  "http://www.w3.org/Graphics/SVG/1.1/DTD/svg11.dtd">
<svg height="200.39952pt" version="1.1" viewBox="0 0 386.39904 200.39952" width="386.39904pt" xmlns="http://www.w3.org/2000/svg" xmlns:xlink="http://www.w3.org/1999/xlink">
 <metadata>
  <rdf:RDF xmlns:cc="http://creativecommons.org/ns#" xmlns:dc="http://purl.org/dc/elements/1.1/" xmlns:rdf="http://www.w3.org/1999/02/22-rdf-syntax-ns#">
   <cc:Work>
    <dc:type rdf:resource="http://purl.org/dc/dcmitype/StillImage"/>
    <dc:date>2020-08-12T06:42:47.439142</dc:date>
    <dc:format>image/svg+xml</dc:format>
    <dc:creator>
     <cc:Agent>
      <dc:title>Matplotlib v3.3.0rc1.post382+g019a75231, https://matplotlib.org/</dc:title>
     </cc:Agent>
    </dc:creator>
   </cc:Work>
  </rdf:RDF>
 </metadata>
 <defs>
  <style type="text/css">*{stroke-linecap:butt;stroke-linejoin:round;}</style>
 </defs>
 <g id="figure_1">
  <g id="patch_1">
   <path d="M 0 200.39952 
L 386.39904 200.39952 
L 386.39904 0 
L 0 0 
z
" style="fill:none;"/>
  </g>
  <g id="axes_1">
   <g id="patch_2">
    <path d="M 7.2 193.19952 
L 379.19904 193.19952 
L 379.19904 7.2 
L 7.2 7.2 
z
" style="fill:none;"/>
   </g>
   <g id="matplotlib.axis_1"/>
   <g id="matplotlib.axis_2"/>
   <g id="patch_3">
    <path clip-path="url(#p6c9205fc9e)" d="M 91.745236 184.744996 
C 91.745236 178.83421 90.970413 172.948844 89.440589 167.239462 
C 87.910765 161.530081 85.639098 156.045793 82.683705 150.926902 
L 24.109047 184.744996 
L 91.745236 184.744996 
z
" style="fill:#6e3b87;"/>
   </g>
   <g id="patch_4">
    <path clip-path="url(#p6c9205fc9e)" d="M 273.051344 41.018095 
C 277.503249 48.72902 283.90784 55.133612 291.618766 59.585517 
C 299.329692 64.037422 308.078527 66.381665 316.982337 66.381665 
L 316.982337 15.654524 
L 273.051344 41.018095 
z
" style="fill:#007d4d;"/>
   </g>
   <g id="patch_5">
    <path clip-path="url(#p6c9205fc9e)" d="M 316.982337 184.744996 
L 300.07329 184.744996 
L 300.07329 167.835949 
L 316.982337 167.835949 
z
" style="fill:#ffffff;stroke:#000000;stroke-linejoin:miter;stroke-width:2;"/>
   </g>
   <g id="line2d_1">
    <path clip-path="url(#p6c9205fc9e)" d="M 24.109047 184.744996 
L 316.982337 15.654524 
" style="fill:none;stroke:#0271ae;stroke-linecap:square;stroke-width:4;"/>
   </g>
   <g id="line2d_2">
    <path clip-path="url(#p6c9205fc9e)" d="M 24.109047 184.744996 
L 316.982337 184.744996 
" style="fill:none;stroke:#dc2830;stroke-linecap:square;stroke-width:4;"/>
   </g>
   <g id="line2d_3">
    <path clip-path="url(#p6c9205fc9e)" d="M 316.982337 184.744996 
L 316.982337 15.654524 
" style="fill:none;stroke:#ffc438;stroke-linecap:square;stroke-width:4;"/>
   </g>
   <g id="text_1">
    <!-- $\theta$ -->
    <g style="fill:#6e3b87;" transform="translate(98.508855 167.835949)scale(0.14 -0.14)">
     <defs>
      <path d="M 31.703125 71 
C 27.40625 71 23 68.90625 18.40625 64.421875 
C 9.5 55.953125 2.90625 40.875 2.90625 22.546875 
C 2.90625 6.6875 6.09375 -1 14.5 -1 
C 19.796875 -1 26 2.6875 30.703125 8.6875 
C 37.5 17.359375 43.703125 33.8125 43.703125 48.875 
C 43.703125 62.734375 39.90625 71 31.703125 71 
z
M 23.09375 33 
C 29.90625 33 32.703125 32.703125 34.40625 31.90625 
C 32.203125 21.84375 28.5 12.890625 25.296875 7.6875 
C 23.296875 4.609375 20.59375 2.828125 17.59375 2.828125 
C 11.59375 2.828125 10.5 10.484375 10.5 22.34375 
C 10.5 25.421875 10.703125 28.609375 11.203125 31.8125 
C 13.296875 32.703125 16 33 23.09375 33 
z
M 29.203125 67.1875 
C 35.5 67.1875 36.09375 59.015625 36.09375 46.671875 
C 36.09375 43.875 35.90625 41 35.5 38.203125 
C 33.5 37.515625 30.40625 37.21875 23.796875 37.21875 
C 17 37.21875 14.09375 37.515625 12.296875 38.21875 
C 14.90625 49.96875 19.5 60.71875 23.09375 64.890625 
C 24.5 66.390625 26.796875 67.1875 29.203125 67.1875 
z
" id="Pazo_Math_Italic-113"/>
     </defs>
     <use transform="scale(0.996264)" xlink:href="#Pazo_Math_Italic-113"/>
    </g>
   </g>
   <g id="text_2">
    <!-- $\frac{\pi}{2} - \theta$ -->
    <g style="fill:#007d4d;" transform="translate(266.255195 83.290713)scale(0.14 -0.14)">
     <defs>
      <path d="M 9.59375 35.578125 
L 10.5 36.28125 
C 12.59375 42.203125 16.59375 42.5 22.296875 42.5 
C 23.5 42.5 25.296875 42.5 27.40625 42.5 
C 19 19.59375 15.203125 12.65625 7.09375 -0.09375 
L 8 -1 
L 15.40625 1.578125 
C 19 9.359375 25.09375 24.484375 30.59375 42 
L 49.203125 42 
C 47.5 35.71875 41.703125 17.421875 41.703125 10.953125 
C 41.703125 0.328125 45.5 -1 48.59375 -1 
C 53.703125 -1 56.59375 0.3125 62.90625 5.625 
L 62.09375 7.53125 
L 59.703125 5.8125 
C 60 6.015625 57.09375 3.71875 55.40625 3.71875 
C 50.703125 3.71875 49.296875 6.640625 49.296875 12.859375 
C 49.296875 15.375 49.5 18.078125 50.09375 21 
C 51.796875 29.34375 53.5 37.578125 54.40625 41.703125 
C 56.703125 41.703125 59 41.703125 61.296875 42 
C 63.09375 42 65.296875 43.03125 66.90625 43.640625 
C 68 45.78125 68.40625 45.984375 70.296875 48.421875 
L 69.59375 49.625 
C 66.90625 48.71875 62.40625 47.71875 59.09375 47.71875 
C 57.90625 47.921875 55.40625 47.921875 52.90625 47.921875 
C 42.203125 47.921875 25.703125 47.921875 21.296875 47.921875 
C 13.796875 47.921875 11.09375 44.75 8.203125 36.375 
z
" id="Pazo_Math_Italic-112"/>
      <path d="M 1.59375 2.5 
L 1.59375 0 
C 20.296875 0 20.296875 0 23.90625 0 
C 27.5 0 27.5 0 46.796875 0 
C 46.59375 1.953125 46.59375 2.90625 46.59375 4.203125 
C 46.59375 5.4375 46.59375 6.359375 46.796875 8.421875 
C 35.296875 8.421875 30.703125 8.421875 12.203125 8.421875 
L 30.40625 27.515625 
C 40.09375 37.71875 43.09375 43.171875 43.09375 50.59375 
C 43.09375 61.96875 35.296875 69 22.59375 69 
C 15.40625 69 10.5 67 5.59375 62.015625 
L 3.90625 48.421875 
L 6.796875 48.421875 
L 8.09375 53.015625 
C 9.703125 58.796875 13.296875 61.296875 20 61.296875 
C 28.59375 61.296875 34.09375 55.890625 34.09375 47.421875 
C 34.09375 39.921875 29.90625 32.546875 18.59375 20.5625 
z
" id="URW_Palladio_L_Roman-50"/>
      <path d="M 65.90625 23 
C 67.59375 23 69.40625 23 69.40625 25 
C 69.40625 27 67.59375 27 65.90625 27 
L 11.796875 27 
C 10.09375 27 8.296875 27 8.296875 25 
C 8.296875 23 10.09375 23 11.796875 23 
z
" id="CMSY10-0"/>
     </defs>
     <use transform="translate(0.946417 39.252796)scale(0.757155)" xlink:href="#Pazo_Math_Italic-112"/>
     <use transform="translate(8.631162 -34.371108)scale(0.757155)" xlink:href="#URW_Palladio_L_Roman-50"/>
     <use transform="translate(76.932633 0)scale(1.038107)" xlink:href="#CMSY10-0"/>
     <use transform="translate(179.491382 0)scale(0.996264)" xlink:href="#Pazo_Math_Italic-113"/>
     <path d="M 0 22.914087 
L 55.120067 22.914087 
L 55.120067 26.899128 
L 0 26.899128 
L 0 22.914087 
z
"/>
    </g>
   </g>
   <g id="text_3">
    <!-- $\frac{\pi}{2}$ -->
    <g transform="translate(283.164243 167.835949)scale(0.14 -0.14)">
     <use transform="translate(0.946417 39.252796)scale(0.757155)" xlink:href="#Pazo_Math_Italic-112"/>
     <use transform="translate(8.631162 -34.371108)scale(0.757155)" xlink:href="#URW_Palladio_L_Roman-50"/>
     <path d="M 0 22.914087 
L 55.120067 22.914087 
L 55.120067 26.899128 
L 0 26.899128 
L 0 22.914087 
z
"/>
    </g>
   </g>
  </g>
 </g>
 <defs>
  <clipPath id="p6c9205fc9e">
   <rect height="185.99952" width="371.99904" x="7.2" y="7.2"/>
  </clipPath>
 </defs>
</svg>
