<?xml version="1.0" encoding="utf-8" standalone="no"?>
<!DOCTYPE svg PUBLIC "-//W3C//DTD SVG 1.1//EN"
  "http://www.w3.org/Graphics/SVG/1.1/DTD/svg11.dtd">
<svg height="200.39952pt" version="1.1" viewBox="0 0 386.39904 200.39952" width="386.39904pt" xmlns="http://www.w3.org/2000/svg" xmlns:xlink="http://www.w3.org/1999/xlink">
 <metadata>
  <rdf:RDF xmlns:cc="http://creativecommons.org/ns#" xmlns:dc="http://purl.org/dc/elements/1.1/" xmlns:rdf="http://www.w3.org/1999/02/22-rdf-syntax-ns#">
   <cc:Work>
    <dc:type rdf:resource="http://purl.org/dc/dcmitype/StillImage"/>
    <dc:date>2021-08-20T10:09:15.900597</dc:date>
    <dc:format>image/svg+xml</dc:format>
    <dc:creator>
     <cc:Agent>
      <dc:title>Matplotlib v3.4.2, https://matplotlib.org/</dc:title>
     </cc:Agent>
    </dc:creator>
   </cc:Work>
  </rdf:RDF>
 </metadata>
 <defs>
  <style type="text/css">*{stroke-linecap:butt;stroke-linejoin:round;}</style>
 </defs>
 <g id="figure_1">
  <g id="patch_1">
   <path d="M 0 200.39952 
L 386.39904 200.39952 
L 386.39904 0 
L 0 0 
z
" style="fill:none;"/>
  </g>
  <g id="axes_1">
   <g id="patch_2">
    <path d="M 7.2 193.19952 
L 379.19904 193.19952 
L 379.19904 7.2 
L 7.2 7.2 
z
" style="fill:none;"/>
   </g>
   <g id="matplotlib.axis_1"/>
   <g id="matplotlib.axis_2"/>
   <g id="patch_3">
    <path clip-path="url(#p984aa069d6)" d="M 91.745236 184.744996 
C 91.745236 178.83421 90.970413 172.948844 89.440589 167.239462 
C 87.910765 161.530081 85.639098 156.045793 82.683705 150.926902 
L 24.109047 184.744996 
L 91.745236 184.744996 
z
" style="fill:#6e3b87;"/>
   </g>
   <g id="patch_4">
    <path clip-path="url(#p984aa069d6)" d="M 273.051344 41.018095 
C 277.503249 48.72902 283.90784 55.133612 291.618766 59.585517 
C 299.329692 64.037422 308.078527 66.381665 316.982337 66.381665 
L 316.982337 15.654524 
L 273.051344 41.018095 
z
" style="fill:#007d4d;"/>
   </g>
   <g id="patch_5">
    <path clip-path="url(#p984aa069d6)" d="M 316.982337 184.744996 
L 300.07329 184.744996 
L 300.07329 167.835949 
L 316.982337 167.835949 
z
" style="fill:#ffffff;stroke:#000000;stroke-linejoin:miter;stroke-width:2;"/>
   </g>
   <g id="line2d_1">
    <path clip-path="url(#p984aa069d6)" d="M 24.109047 184.744996 
L 316.982337 15.654524 
" style="fill:none;stroke:#0271ae;stroke-linejoin:miter;stroke-width:4;"/>
   </g>
   <g id="line2d_2">
    <path clip-path="url(#p984aa069d6)" d="M 24.109047 184.744996 
L 316.982337 184.744996 
" style="fill:none;stroke:#dc2830;stroke-linejoin:miter;stroke-width:4;"/>
   </g>
   <g id="line2d_3">
    <path clip-path="url(#p984aa069d6)" d="M 316.982337 184.744996 
L 316.982337 15.654524 
" style="fill:none;stroke:#f2aa00;stroke-linejoin:miter;stroke-width:4;"/>
   </g>
   <g id="text_1">
    <!-- $\theta$ -->
    <g style="fill:#6e3b87;" transform="translate(98.508855 167.835949)scale(0.14 -0.14)">
     <defs>
      <path d="M 2029 4544 
C 1754 4544 1472 4409 1178 4122 
C 608 3580 186 2616 186 1442 
C 186 427 390 -64 928 -64 
C 1267 -64 1664 172 1965 555 
C 2400 1110 2797 2163 2797 3127 
C 2797 4013 2554 4544 2029 4544 
z
M 1478 2112 
C 1914 2112 2093 2092 2202 2041 
C 2061 1397 1824 823 1619 491 
C 1491 294 1318 179 1126 179 
C 742 179 672 670 672 1429 
C 672 1627 685 1831 717 2035 
C 851 2092 1024 2112 1478 2112 
z
M 1869 4300 
C 2272 4300 2310 3777 2310 2986 
C 2310 2808 2298 2623 2272 2444 
C 2144 2399 1946 2380 1523 2380 
C 1088 2380 902 2399 787 2444 
C 954 3197 1248 3886 1478 4154 
C 1568 4249 1715 4300 1869 4300 
z
" id="PazoMath-Italic-71" transform="scale(0.015625)"/>
     </defs>
     <use transform="scale(0.996264)" xlink:href="#PazoMath-Italic-71"/>
    </g>
   </g>
   <g id="text_2">
    <!-- $\frac{\pi}{2} - \theta$ -->
    <g style="fill:#007d4d;" transform="translate(266.255195 83.290713)scale(0.14 -0.14)">
     <defs>
      <path d="M 614 2255 
L 672 2299 
C 806 2681 1062 2700 1427 2700 
C 1504 2700 1619 2694 1754 2694 
C 1216 1242 973 803 454 -7 
L 512 -64 
L 986 102 
C 1216 599 1606 1567 1958 2688 
L 3149 2624 
C 3040 2232 2669 1089 2669 685 
C 2669 19 2912 -64 3110 -64 
C 3437 -64 3622 19 4026 356 
L 3974 476 
L 3821 369 
C 3840 382 3654 236 3546 236 
C 3245 236 3155 419 3155 811 
C 3155 969 3168 1139 3206 1323 
C 3315 1847 3424 2365 3482 2624 
C 3629 2624 3776 2630 3923 2649 
C 4038 2649 4179 2713 4282 2752 
C 4352 2905 4378 2918 4499 3072 
L 4454 3136 
C 4282 3075 3994 3008 3782 3008 
C 3706 3001 3546 2995 3386 2995 
C 2701 3020 1645 3072 1363 3072 
C 883 3072 710 2860 525 2306 
L 614 2255 
z
" id="PazoMath-Italic-70" transform="scale(0.015625)"/>
      <path d="M 102 166 
L 102 0 
C 1299 0 1299 0 1530 0 
C 1760 19 1760 19 2995 0 
C 2982 134 2982 198 2982 287 
C 2982 370 2982 434 2995 574 
C 2259 542 1965 536 781 510 
L 1946 1741 
C 2566 2398 2758 2749 2758 3228 
C 2758 3961 2259 4416 1446 4416 
C 986 4416 672 4287 358 3967 
L 250 3100 
L 435 3100 
L 518 3394 
C 621 3763 851 3923 1280 3923 
C 1830 3923 2182 3578 2182 3036 
C 2182 2558 1914 2086 1190 1320 
L 102 166 
z
" id="URWPalladioL-Roma-32" transform="scale(0.015625)"/>
      <path d="M 4218 1472 
C 4326 1472 4442 1472 4442 1600 
C 4442 1728 4326 1728 4218 1728 
L 755 1728 
C 646 1728 531 1728 531 1600 
C 531 1472 646 1472 755 1472 
L 4218 1472 
z
" id="CMSY10-0" transform="scale(0.015625)"/>
     </defs>
     <use transform="translate(0.946417 39.252796)scale(0.757155)" xlink:href="#PazoMath-Italic-70"/>
     <use transform="translate(8.631162 -34.371108)scale(0.757155)" xlink:href="#URWPalladioL-Roma-32"/>
     <use transform="translate(76.932633 0)scale(1.038107)" xlink:href="#CMSY10-0"/>
     <use transform="translate(179.491382 0)scale(0.996264)" xlink:href="#PazoMath-Italic-71"/>
     <path d="M 0 22.914087 
L 55.120067 22.914087 
L 55.120067 26.899128 
L 0 26.899128 
L 0 22.914087 
z
"/>
    </g>
   </g>
   <g id="text_3">
    <!-- $\frac{\pi}{2}$ -->
    <g transform="translate(283.164243 167.835949)scale(0.14 -0.14)">
     <use transform="translate(0.946417 39.252796)scale(0.757155)" xlink:href="#PazoMath-Italic-70"/>
     <use transform="translate(8.631162 -34.371108)scale(0.757155)" xlink:href="#URWPalladioL-Roma-32"/>
     <path d="M 0 22.914087 
L 55.120067 22.914087 
L 55.120067 26.899128 
L 0 26.899128 
L 0 22.914087 
z
"/>
    </g>
   </g>
  </g>
 </g>
 <defs>
  <clipPath id="p984aa069d6">
   <rect height="185.99952" width="371.99904" x="7.2" y="7.2"/>
  </clipPath>
 </defs>
</svg>
