<?xml version="1.0" encoding="utf-8" standalone="no"?>
<!DOCTYPE svg PUBLIC "-//W3C//DTD SVG 1.1//EN"
  "http://www.w3.org/Graphics/SVG/1.1/DTD/svg11.dtd">
<svg height="440.39952pt" version="1.1" viewBox="0 0 440.39952 440.39952" width="440.39952pt" xmlns="http://www.w3.org/2000/svg" xmlns:xlink="http://www.w3.org/1999/xlink">
 <metadata>
  <rdf:RDF xmlns:cc="http://creativecommons.org/ns#" xmlns:dc="http://purl.org/dc/elements/1.1/" xmlns:rdf="http://www.w3.org/1999/02/22-rdf-syntax-ns#">
   <cc:Work>
    <dc:type rdf:resource="http://purl.org/dc/dcmitype/StillImage"/>
    <dc:date>2020-07-15T06:58:35.887453</dc:date>
    <dc:format>image/svg+xml</dc:format>
    <dc:creator>
     <cc:Agent>
      <dc:title>Matplotlib v3.3.0rc1.post282+g187e87b5f, https://matplotlib.org/</dc:title>
     </cc:Agent>
    </dc:creator>
   </cc:Work>
  </rdf:RDF>
 </metadata>
 <defs>
  <style type="text/css">*{stroke-linecap:butt;stroke-linejoin:round;}</style>
 </defs>
 <g id="figure_1">
  <g id="patch_1">
   <path d="M 0 440.39952 
L 440.39952 440.39952 
L 440.39952 0 
L 0 0 
z
" style="fill:none;"/>
  </g>
  <g id="axes_1">
   <g id="patch_2">
    <path d="M 7.2 433.19952 
L 433.19952 433.19952 
L 433.19952 7.2 
L 7.2 7.2 
z
" style="fill:none;"/>
   </g>
   <g id="matplotlib.axis_1"/>
   <g id="matplotlib.axis_2"/>
   <g id="patch_3">
    <path clip-path="url(#pdf78f880ca)" d="M 220.19976 390.599568 
C 265.390317 390.599568 308.73607 372.645169 340.69062 340.69062 
C 372.645169 308.73607 390.599568 265.390317 390.599568 220.19976 
C 390.599568 175.009203 372.645169 131.66345 340.69062 99.7089 
C 308.73607 67.754351 265.390317 49.799952 220.19976 49.799952 
C 175.009203 49.799952 131.66345 67.754351 99.7089 99.7089 
C 67.754351 131.66345 49.799952 175.009203 49.799952 220.19976 
C 49.799952 265.390317 67.754351 308.73607 99.7089 340.69062 
C 131.66345 372.645169 175.009203 390.599568 220.19976 390.599568 
z
" style="fill:none;stroke:#000000;stroke-linejoin:miter;stroke-width:5;"/>
   </g>
   <g id="patch_4">
    <path clip-path="url(#pdf78f880ca)" d="M 254.279722 220.19976 
C 254.279722 214.217923 252.704791 208.340202 249.713873 203.159779 
C 246.722954 197.979356 242.420164 193.676566 237.239741 190.685647 
L 220.19976 220.19976 
L 254.279722 220.19976 
z
" style="fill:#6e3b87;"/>
   </g>
   <g id="patch_5">
    <path clip-path="url(#pdf78f880ca)" d="M 237.239741 249.713873 
C 242.420164 246.722954 246.722954 242.420164 249.713873 237.239741 
C 252.704791 232.059318 254.279722 226.181597 254.279722 220.19976 
L 220.19976 220.19976 
L 237.239741 249.713873 
z
" style="fill:#cb0c7b;"/>
   </g>
   <g id="patch_6">
    <path clip-path="url(#pdf78f880ca)" d="M 305.399664 220.19976 
L 292.619678 220.19976 
L 292.619678 207.419774 
L 305.399664 207.419774 
z
" style="fill:#ffffff;stroke:#000000;stroke-linejoin:miter;stroke-width:3;"/>
   </g>
   <g id="line2d_1">
    <path clip-path="url(#pdf78f880ca)" d="M 305.399664 220.19976 
L 305.399664 72.629197 
" style="fill:none;stroke:#ffc438;stroke-linecap:square;stroke-width:4;"/>
   </g>
   <g id="line2d_2">
    <path clip-path="url(#pdf78f880ca)" d="M 220.19976 220.19976 
L 305.399664 220.19976 
" style="fill:none;stroke:#dc2830;stroke-linecap:square;stroke-width:2;"/>
   </g>
   <g id="line2d_3">
    <path clip-path="url(#pdf78f880ca)" d="M 220.19976 220.19976 
L 305.399664 220.19976 
" style="fill:none;stroke:#dc2830;stroke-dasharray:14.8,6.4;stroke-dashoffset:0;stroke-width:4;"/>
   </g>
   <g id="line2d_4">
    <path clip-path="url(#pdf78f880ca)" d="M 220.19976 220.19976 
L 305.399664 72.629197 
" style="fill:none;stroke:#0271ae;stroke-linecap:square;stroke-width:4;"/>
    <defs>
     <path d="M 0 6.25 
C 1.657519 6.25 3.247374 5.591461 4.419417 4.419417 
C 5.591461 3.247374 6.25 1.657519 6.25 0 
C 6.25 -1.657519 5.591461 -3.247374 4.419417 -4.419417 
C 3.247374 -5.591461 1.657519 -6.25 0 -6.25 
C -1.657519 -6.25 -3.247374 -5.591461 -4.419417 -4.419417 
C -5.591461 -3.247374 -6.25 -1.657519 -6.25 0 
C -6.25 1.657519 -5.591461 3.247374 -4.419417 4.419417 
C -3.247374 5.591461 -1.657519 6.25 0 6.25 
z
" id="mf0ce132ffe"/>
    </defs>
    <g clip-path="url(#pdf78f880ca)">
     <use style="fill:#0271ae;" x="220.19976" xlink:href="#mf0ce132ffe" y="220.19976"/>
     <use style="fill:#0271ae;" x="305.399664" xlink:href="#mf0ce132ffe" y="72.629197"/>
    </g>
   </g>
   <g id="line2d_5">
    <path clip-path="url(#pdf78f880ca)" d="M 305.399664 220.19976 
L 305.399664 367.770323 
" style="fill:none;stroke:#ffc438;stroke-dasharray:14.8,6.4;stroke-dashoffset:0;stroke-width:4;"/>
   </g>
   <g id="line2d_6">
    <path clip-path="url(#pdf78f880ca)" d="M 220.19976 220.19976 
L 305.399664 367.770323 
" style="fill:none;stroke:#0271ae;stroke-dasharray:14.8,6.4;stroke-dashoffset:0;stroke-width:4;"/>
    <g clip-path="url(#pdf78f880ca)">
     <use style="fill:#0271ae;" x="220.19976" xlink:href="#mf0ce132ffe" y="220.19976"/>
     <use style="fill:#0271ae;" x="305.399664" xlink:href="#mf0ce132ffe" y="367.770323"/>
    </g>
   </g>
   <g id="text_1">
    <!-- $\theta$ -->
    <g style="fill:#6e3b87;" transform="translate(254.279722 203.159779)scale(0.14 -0.14)">
     <defs>
      <path d="M 31.703125 71 
C 27.40625 71 23 68.90625 18.40625 64.421875 
C 9.5 55.953125 2.90625 40.875 2.90625 22.546875 
C 2.90625 6.6875 6.09375 -1 14.5 -1 
C 19.796875 -1 26 2.6875 30.703125 8.6875 
C 37.5 17.359375 43.703125 33.8125 43.703125 48.875 
C 43.703125 62.734375 39.90625 71 31.703125 71 
z
M 23.09375 33 
C 29.90625 33 32.703125 32.703125 34.40625 31.90625 
C 32.203125 21.84375 28.5 12.890625 25.296875 7.6875 
C 23.296875 4.609375 20.59375 2.828125 17.59375 2.828125 
C 11.59375 2.828125 10.5 10.484375 10.5 22.34375 
C 10.5 25.421875 10.703125 28.609375 11.203125 31.8125 
C 13.296875 32.703125 16 33 23.09375 33 
z
M 29.203125 67.1875 
C 35.5 67.1875 36.09375 59.015625 36.09375 46.671875 
C 36.09375 43.875 35.90625 41 35.5 38.203125 
C 33.5 37.515625 30.40625 37.21875 23.796875 37.21875 
C 17 37.21875 14.09375 37.515625 12.296875 38.21875 
C 14.90625 49.96875 19.5 60.71875 23.09375 64.890625 
C 24.5 66.390625 26.796875 67.1875 29.203125 67.1875 
z
" id="Pazo_Math_Italic-113"/>
     </defs>
     <use transform="scale(0.996264)" xlink:href="#Pazo_Math_Italic-113"/>
    </g>
   </g>
   <g id="text_2">
    <!-- $-\theta$ -->
    <g style="fill:#cb0c7b;" transform="translate(254.279722 254.279722)scale(0.14 -0.14)">
     <defs>
      <path d="M 65.90625 23 
C 67.59375 23 69.40625 23 69.40625 25 
C 69.40625 27 67.59375 27 65.90625 27 
L 11.796875 27 
C 10.09375 27 8.296875 27 8.296875 25 
C 8.296875 23 10.09375 23 11.796875 23 
z
" id="CMSY10-0"/>
     </defs>
     <use transform="scale(1.038107)" xlink:href="#CMSY10-0"/>
     <use transform="translate(83.186996 0)scale(0.996264)" xlink:href="#Pazo_Math_Italic-113"/>
    </g>
   </g>
  </g>
 </g>
 <defs>
  <clipPath id="pdf78f880ca">
   <rect height="425.99952" width="425.99952" x="7.2" y="7.2"/>
  </clipPath>
 </defs>
</svg>
