<?xml version="1.0" encoding="utf-8" standalone="no"?>
<!DOCTYPE svg PUBLIC "-//W3C//DTD SVG 1.1//EN"
  "http://www.w3.org/Graphics/SVG/1.1/DTD/svg11.dtd">
<svg height="392.39952pt" version="1.1" viewBox="0 0 396.932509 392.39952" width="396.932509pt" xmlns="http://www.w3.org/2000/svg" xmlns:xlink="http://www.w3.org/1999/xlink">
 <metadata>
  <rdf:RDF xmlns:cc="http://creativecommons.org/ns#" xmlns:dc="http://purl.org/dc/elements/1.1/" xmlns:rdf="http://www.w3.org/1999/02/22-rdf-syntax-ns#">
   <cc:Work>
    <dc:type rdf:resource="http://purl.org/dc/dcmitype/StillImage"/>
    <dc:date>2020-08-12T06:39:29.094399</dc:date>
    <dc:format>image/svg+xml</dc:format>
    <dc:creator>
     <cc:Agent>
      <dc:title>Matplotlib v3.3.0rc1.post382+g019a75231, https://matplotlib.org/</dc:title>
     </cc:Agent>
    </dc:creator>
   </cc:Work>
  </rdf:RDF>
 </metadata>
 <defs>
  <style type="text/css">*{stroke-linecap:butt;stroke-linejoin:round;}</style>
 </defs>
 <g id="figure_1">
  <g id="patch_1">
   <path d="M 0 392.39952 
L 396.932509 392.39952 
L 396.932509 0 
L 0 0 
z
" style="fill:none;"/>
  </g>
  <g id="axes_1">
   <g id="patch_2">
    <path d="M 57.070851 339.861659 
L 389.732509 339.861659 
L 389.732509 7.2 
L 57.070851 7.2 
z
" style="fill:none;"/>
   </g>
   <g id="matplotlib.axis_1">
    <g id="xtick_1">
     <g id="line2d_1">
      <path clip-path="url(#p46e565f041)" d="M 90.337016 339.861659 
L 90.337016 7.2 
" style="fill:none;stroke:#000000;stroke-linecap:square;stroke-opacity:0.2;stroke-width:0.5;"/>
     </g>
     <g id="line2d_2">
      <defs>
       <path d="M 0 0 
L 0 3.5 
" id="m98318b2fa5" style="stroke:#000000;stroke-opacity:0.2;stroke-width:0.8;"/>
      </defs>
      <g>
       <use style="fill-opacity:0.2;stroke:#000000;stroke-opacity:0.2;stroke-width:0.8;" x="90.337016" xlink:href="#m98318b2fa5" y="339.861659"/>
      </g>
     </g>
     <g id="text_1">
      <!-- $\mathdefault{−1}$ -->
      <g transform="translate(81.114171 365.341188)scale(0.14 -0.14)">
       <defs>
        <path d="M 65.90625 23 
C 67.59375 23 69.40625 23 69.40625 25 
C 69.40625 27 67.59375 27 65.90625 27 
L 11.796875 27 
C 10.09375 27 8.296875 27 8.296875 25 
C 8.296875 23 10.09375 23 11.796875 23 
z
" id="CMSY10-0"/>
        <path d="M 6.703125 56 
L 7.703125 56 
L 20.59375 61.8125 
C 20.703125 61.90625 20.796875 61.90625 20.90625 61.90625 
C 21.5 61.90625 21.703125 61.015625 21.703125 58.609375 
L 21.703125 9.578125 
C 21.703125 4.3125 20.59375 3.203125 15.203125 3.203125 
L 9.59375 3.203125 
L 9.59375 0 
C 25 0 25 0 26.09375 0 
C 27.40625 0 29.59375 0 33 0 
C 34.203125 0 37.703125 0 41.796875 0 
L 41.796875 3.203125 
L 36.59375 3.203125 
C 31.09375 3.203125 30.09375 4.3125 30.09375 9.5625 
L 30.09375 69.421875 
L 28.703125 69.921875 
C 22.203125 66.515625 15.09375 63.515625 6 60.3125 
z
" id="URW_Palladio_L_Roman-49"/>
       </defs>
       <use transform="scale(1.038107)" xlink:href="#CMSY10-0"/>
       <use transform="translate(81.941696 0)scale(0.996264)" xlink:href="#URW_Palladio_L_Roman-49"/>
      </g>
     </g>
    </g>
    <g id="xtick_2">
     <g id="line2d_3">
      <path clip-path="url(#p46e565f041)" d="M 223.40168 339.861659 
L 223.40168 7.2 
" style="fill:none;stroke:#000000;stroke-linecap:square;stroke-opacity:0.2;stroke-width:0.5;"/>
     </g>
     <g id="line2d_4">
      <g>
       <use style="fill-opacity:0.2;stroke:#000000;stroke-opacity:0.2;stroke-width:0.8;" x="223.40168" xlink:href="#m98318b2fa5" y="339.861659"/>
      </g>
     </g>
     <g id="text_2">
      <!-- $\mathdefault{0}$ -->
      <g transform="translate(219.914756 365.341188)scale(0.14 -0.14)">
       <defs>
        <path d="M 26.296875 69 
C 10.796875 69 2.90625 56.6875 2.90625 32.453125 
C 2.90625 20.71875 5 10.625 8.5 5.71875 
C 12 0.796875 17.59375 -2 23.796875 -2 
C 38.90625 -2 46.5 11.015625 46.5 36.65625 
C 46.5 58.578125 40 69 26.296875 69 
z
M 24.5 65.5 
C 34.203125 65.5 38.09375 55.6875 38.09375 31.640625 
C 38.09375 10.328125 34.296875 1.5 25.09375 1.5 
C 15.40625 1.5 11.296875 11.625 11.296875 36.0625 
C 11.296875 57.1875 15 65.5 24.5 65.5 
z
" id="URW_Palladio_L_Roman-48"/>
       </defs>
       <use transform="scale(0.996264)" xlink:href="#URW_Palladio_L_Roman-48"/>
      </g>
     </g>
    </g>
    <g id="xtick_3">
     <g id="line2d_5">
      <path clip-path="url(#p46e565f041)" d="M 356.466343 339.861659 
L 356.466343 7.2 
" style="fill:none;stroke:#000000;stroke-linecap:square;stroke-opacity:0.2;stroke-width:0.5;"/>
     </g>
     <g id="line2d_6">
      <g>
       <use style="fill-opacity:0.2;stroke:#000000;stroke-opacity:0.2;stroke-width:0.8;" x="356.466343" xlink:href="#m98318b2fa5" y="339.861659"/>
      </g>
     </g>
     <g id="text_3">
      <!-- $\mathdefault{1}$ -->
      <g transform="translate(352.979419 365.341188)scale(0.14 -0.14)">
       <use transform="scale(0.996264)" xlink:href="#URW_Palladio_L_Roman-49"/>
      </g>
     </g>
    </g>
    <g id="text_4">
     <!-- $x$ -->
     <g transform="translate(220.412888 381.828236)scale(0.12 -0.12)">
      <defs>
       <path d="M 2.09375 8.84375 
C 2.09375 6.84375 1.90625 5.578125 1.296875 2.390625 
C 1.09375 1.203125 1 0.90625 0.90625 0.203125 
C 2.40625 -0.609375 4 -1 5.203125 -1 
C 8.5 -1 12.40625 1.890625 15.5 6.546875 
L 23.09375 18.1875 
L 24.203125 11.328125 
C 25.5 2.875 27.796875 -1 31.40625 -1 
C 33.59375 -1 36.796875 0.6875 40 3.578125 
L 44.90625 7.953125 
L 44 9.84375 
C 40.40625 6.859375 37.90625 5.375 36.296875 5.375 
C 34.796875 5.375 33.5 6.375 32.5 8.34375 
C 31.59375 10.234375 30.5 13.90625 30 16.796875 
L 28.203125 26.8125 
L 31.703125 31.6875 
C 36.40625 38.140625 39.09375 40.421875 42.203125 40.421875 
C 43.796875 40.421875 45 39.625 45.5 38.140625 
L 46.90625 38.53125 
L 48.40625 47 
C 47.203125 47.703125 46.296875 48 45.40625 48 
C 41.40625 48 37.40625 44.40625 31.203125 35.265625 
L 27.5 29.796875 
L 26.90625 34.5625 
C 25.703125 44.40625 23 48 17.09375 48 
C 14.5 48 12.296875 47.203125 11.40625 45.90625 
L 5.59375 37.640625 
L 7.296875 36.65625 
C 10.296875 40.03125 12.296875 41.421875 14.203125 41.421875 
C 17.5 41.421875 19.703125 37.359375 21.40625 27.609375 
L 22.5 21.453125 
L 18.5 15.265625 
C 14.203125 8.578125 10.796875 5.375 8 5.375 
C 6.5 5.375 5.40625 5.796875 5.203125 6.296875 
L 4.09375 9.140625 
z
" id="URW_Palladio_L_Italic-120"/>
      </defs>
      <use transform="scale(0.996264)" xlink:href="#URW_Palladio_L_Italic-120"/>
     </g>
    </g>
   </g>
   <g id="matplotlib.axis_2">
    <g id="ytick_1">
     <g id="line2d_7">
      <path clip-path="url(#p46e565f041)" d="M 57.070851 306.595493 
L 389.732509 306.595493 
" style="fill:none;stroke:#000000;stroke-linecap:square;stroke-opacity:0.2;stroke-width:0.5;"/>
     </g>
     <g id="line2d_8">
      <defs>
       <path d="M 0 0 
L -3.5 0 
" id="m6a629fa955" style="stroke:#000000;stroke-opacity:0.2;stroke-width:0.8;"/>
      </defs>
      <g>
       <use style="fill-opacity:0.2;stroke:#000000;stroke-opacity:0.2;stroke-width:0.8;" x="57.070851" xlink:href="#m6a629fa955" y="306.595493"/>
      </g>
     </g>
     <g id="text_5">
      <!-- $\mathdefault{−1}$ -->
      <g transform="translate(23.12516 311.585257)scale(0.14 -0.14)">
       <use transform="scale(1.038107)" xlink:href="#CMSY10-0"/>
       <use transform="translate(81.941696 0)scale(0.996264)" xlink:href="#URW_Palladio_L_Roman-49"/>
      </g>
     </g>
    </g>
    <g id="ytick_2">
     <g id="line2d_9">
      <path clip-path="url(#p46e565f041)" d="M 57.070851 173.530829 
L 389.732509 173.530829 
" style="fill:none;stroke:#000000;stroke-linecap:square;stroke-opacity:0.2;stroke-width:0.5;"/>
     </g>
     <g id="line2d_10">
      <g>
       <use style="fill-opacity:0.2;stroke:#000000;stroke-opacity:0.2;stroke-width:0.8;" x="57.070851" xlink:href="#m6a629fa955" y="173.530829"/>
      </g>
     </g>
     <g id="text_6">
      <!-- $\mathdefault{0}$ -->
      <g transform="translate(34.597002 178.520594)scale(0.14 -0.14)">
       <use transform="scale(0.996264)" xlink:href="#URW_Palladio_L_Roman-48"/>
      </g>
     </g>
    </g>
    <g id="ytick_3">
     <g id="line2d_11">
      <path clip-path="url(#p46e565f041)" d="M 57.070851 40.466166 
L 389.732509 40.466166 
" style="fill:none;stroke:#000000;stroke-linecap:square;stroke-opacity:0.2;stroke-width:0.5;"/>
     </g>
     <g id="line2d_12">
      <g>
       <use style="fill-opacity:0.2;stroke:#000000;stroke-opacity:0.2;stroke-width:0.8;" x="57.070851" xlink:href="#m6a629fa955" y="40.466166"/>
      </g>
     </g>
     <g id="text_7">
      <!-- $\mathdefault{1}$ -->
      <g transform="translate(34.597002 45.45593)scale(0.14 -0.14)">
       <use transform="scale(0.996264)" xlink:href="#URW_Palladio_L_Roman-49"/>
      </g>
     </g>
    </g>
    <g id="text_8">
     <!-- $y$ -->
     <g transform="translate(15.753876 176.519621)rotate(-90)scale(0.12 -0.12)">
      <defs>
       <path d="M -0.703125 -17.546875 
C -0.796875 -18.234375 -0.796875 -18.828125 -0.796875 -19.328125 
C -0.796875 -23.5625 2.90625 -27 7.40625 -27 
C 18 -27 29 -14.734375 34.90625 3.5625 
L 49 47.09375 
L 47.90625 48 
C 45 46.90625 42.703125 46.296875 40.5 46.109375 
L 37 32.984375 
C 35.796875 28.3125 32.296875 21.0625 29 16.1875 
C 25.5 11.109375 20.59375 6.75 18.40625 6.75 
C 17.203125 6.75 16.296875 9.046875 16.40625 11.515625 
L 16.5 12.8125 
L 18 32.09375 
C 18.203125 35.1875 18.40625 38.953125 18.40625 41.734375 
C 18.40625 46.203125 17.703125 48 16 48 
C 14.703125 48 13.296875 47.296875 8.5 44.015625 
L 0.296875 38.453125 
L 1.40625 36.671875 
L 6.40625 39.640625 
L 6.796875 39.953125 
C 7.796875 40.546875 8.5 40.84375 8.90625 40.84375 
C 10.296875 40.84375 11.09375 38.953125 11.09375 35.6875 
C 11.09375 35.578125 11.09375 34.984375 11 34.1875 
L 9.296875 10.03125 
L 9.203125 6.046875 
C 9.203125 1.890625 11 -1 13.5 -1 
C 17.203125 -1 25.59375 7.453125 33.09375 18.671875 
L 28.203125 1.8125 
C 23.09375 -15.625 18.09375 -22.8125 11.09375 -22.8125 
C 7.59375 -22.8125 4.90625 -20.171875 4.90625 -16.75 
C 4.90625 -16.25 5 -15.46875 5.09375 -14.59375 
L 4.09375 -14.1875 
z
" id="URW_Palladio_L_Italic-121"/>
      </defs>
      <use transform="scale(0.996264)" xlink:href="#URW_Palladio_L_Italic-121"/>
     </g>
    </g>
   </g>
   <g id="patch_3">
    <path clip-path="url(#p46e565f041)" d="M 289.934012 173.530829 
L 279.954162 173.530829 
L 279.954162 163.55098 
L 289.934012 163.55098 
z
" style="fill:#ffffff;stroke:#000000;stroke-linejoin:miter;stroke-width:3;"/>
   </g>
   <g id="patch_4">
    <path clip-path="url(#p46e565f041)" d="M 223.40168 306.595493 
C 258.690841 306.595493 292.5394 292.57496 317.492606 267.621755 
C 342.445811 242.66855 356.466343 208.819991 356.466343 173.530829 
C 356.466343 138.241668 342.445811 104.393109 317.492606 79.439903 
C 292.5394 54.486698 258.690841 40.466166 223.40168 40.466166 
C 188.112519 40.466166 154.263959 54.486698 129.310754 79.439903 
C 104.357549 104.393109 90.337016 138.241668 90.337016 173.530829 
C 90.337016 208.819991 104.357549 242.66855 129.310754 267.621755 
C 154.263959 292.57496 188.112519 306.595493 223.40168 306.595493 
z
" style="fill:none;stroke:#000000;stroke-linejoin:miter;stroke-width:5;"/>
   </g>
   <g id="patch_5">
    <path clip-path="url(#p46e565f041)" d="M 250.014612 173.530829 
C 250.014612 168.859632 248.784754 164.269739 246.449156 160.224363 
C 244.113557 156.178987 240.753522 152.818952 236.708146 150.483354 
L 223.40168 173.530829 
L 250.014612 173.530829 
z
" style="fill:#343837;"/>
   </g>
   <g id="line2d_13">
    <path clip-path="url(#p46e565f041)" d="M 289.934012 173.530829 
L 289.934012 58.29345 
" style="fill:none;stroke:#ffc438;stroke-linecap:square;stroke-width:4;"/>
   </g>
   <g id="line2d_14">
    <path clip-path="url(#p46e565f041)" d="M 223.40168 173.530829 
L 289.934012 173.530829 
" style="fill:none;stroke:#dc2830;stroke-linecap:square;stroke-width:4;"/>
   </g>
   <g id="line2d_15">
    <path clip-path="url(#p46e565f041)" d="M 223.40168 173.530829 
L 289.934012 58.29345 
" style="fill:none;stroke:#0271ae;stroke-linecap:square;stroke-width:4;"/>
    <defs>
     <path d="M 0 6.25 
C 1.657519 6.25 3.247374 5.591461 4.419417 4.419417 
C 5.591461 3.247374 6.25 1.657519 6.25 0 
C 6.25 -1.657519 5.591461 -3.247374 4.419417 -4.419417 
C 3.247374 -5.591461 1.657519 -6.25 0 -6.25 
C -1.657519 -6.25 -3.247374 -5.591461 -4.419417 -4.419417 
C -5.591461 -3.247374 -6.25 -1.657519 -6.25 0 
C -6.25 1.657519 -5.591461 3.247374 -4.419417 4.419417 
C -3.247374 5.591461 -1.657519 6.25 0 6.25 
z
" id="m24c396a7b5"/>
    </defs>
    <g clip-path="url(#p46e565f041)">
     <use style="fill:#0271ae;" x="223.40168" xlink:href="#m24c396a7b5" y="173.530829"/>
     <use style="fill:#0271ae;" x="289.934012" xlink:href="#m24c396a7b5" y="58.29345"/>
    </g>
   </g>
   <g id="text_9">
    <!-- $\sin(\theta)$ -->
    <g style="fill:#ffc438;" transform="translate(293.925951 145.58725)scale(0.14 -0.14)">
     <defs>
      <path d="M 4.09375 14.328125 
C 4.09375 7.421875 3.796875 4.40625 3 0.40625 
C 8.203125 -1.296875 12.09375 -2 16.703125 -2 
C 29.796875 -2 39.09375 5.015625 39.09375 14.828125 
C 39.09375 17.9375 38.203125 20.234375 36.296875 22.25 
C 33.703125 24.75 30.40625 25.953125 21.59375 27.65625 
C 13.40625 29.265625 10.703125 31.265625 10.703125 35.875 
C 10.703125 40.875 14.203125 43.6875 20.296875 43.6875 
C 27 43.6875 32.09375 40.1875 32.09375 35.46875 
L 32.09375 33.171875 
L 34.90625 33.171875 
C 35 38.984375 35.09375 41.375 35.40625 44.484375 
C 30.09375 46.296875 26.5 47 22.40625 47 
C 10.796875 47 3.703125 41.484375 3.703125 32.46875 
C 3.703125 27.65625 5.90625 24.25 10.5 22.140625 
C 13.203125 20.9375 18.5 19.34375 25.296875 17.828125 
C 29.796875 16.828125 31.703125 14.734375 31.703125 10.921875 
C 31.703125 5.515625 26.703125 1.703125 19.59375 1.703125 
C 12.296875 1.703125 7.09375 5.203125 7.09375 10.21875 
L 7.09375 14.328125 
z
" id="URW_Palladio_L_Roman-115"/>
      <path d="M 18.796875 46.765625 
L 17.90625 47.171875 
C 12.796875 45.0625 7.59375 43.640625 2.296875 43.046875 
L 2.296875 40.25 
L 6 40.25 
C 10 40.25 10.40625 39.546875 10.40625 32.890625 
L 10.40625 10.171875 
C 10.40625 3.8125 10.09375 3.109375 6.703125 3.109375 
L 2.09375 3.109375 
L 2.09375 0 
C 12.09375 0 12.09375 0 14.59375 0 
C 17.09375 0 17.09375 0 27.09375 0 
L 27.09375 3.109375 
L 22.5 3.109375 
C 19.09375 3.109375 18.796875 3.8125 18.796875 10.171875 
z
M 14.203125 69 
C 11.203125 69 8.59375 66.390625 8.59375 63.375 
C 8.59375 60.46875 11.203125 57.875 14.09375 57.875 
C 17 57.875 19.703125 60.46875 19.703125 63.375 
C 19.703125 66.1875 17 69 14.203125 69 
z
" id="URW_Palladio_L_Roman-105"/>
      <path d="M 41 -0.109375 
C 47.09375 -0.109375 47.203125 -0.109375 48.90625 -0.109375 
C 50.296875 -0.109375 50.296875 -0.109375 57.203125 -0.109375 
L 57.203125 2.796875 
L 53.09375 3.203125 
C 49.703125 3.203125 49.40625 3.8125 49.40625 10.21875 
L 49.40625 29.5625 
C 49.40625 41.28125 43.90625 47 32.703125 47 
C 29 47 26.90625 46.296875 24.796875 44.484375 
L 17.203125 37.875 
L 17.203125 46.59375 
L 16.296875 47 
C 11.203125 44.890625 6 43.484375 0.703125 42.890625 
L 0.703125 40.078125 
L 4.40625 40.078125 
C 8.40625 40.078125 8.796875 39.375 8.796875 32.71875 
L 8.796875 10.046875 
C 8.796875 3.703125 8.5 3 5.09375 3 
L 0.59375 3 
L 0.59375 -0.109375 
C 7.40625 -0.109375 10.09375 -0.109375 13 -0.109375 
C 15.90625 -0.109375 18.59375 -0.109375 25.40625 -0.109375 
L 25.40625 3 
L 20.90625 3 
C 17.5 3 17.203125 3.703125 17.203125 10.046875 
L 17.203125 31.421875 
C 17.203125 35.9375 23.796875 40.875 29.90625 40.875 
C 36.59375 40.875 41 35.890625 41 28.21875 
z
" id="URW_Palladio_L_Roman-110"/>
      <path d="M 33.09375 -24 
C 33.09375 -23.703125 33.09375 -23.5 31.40625 -21.796875 
C 18.90625 -9.125 15.703125 9.875 15.703125 25.25 
C 15.703125 42.734375 19.5 60.234375 31.796875 72.78125 
C 33.09375 73.984375 33.09375 74.1875 33.09375 74.484375 
C 33.09375 75.1875 32.703125 75.5 32.09375 75.5 
C 31.09375 75.5 22.09375 68.671875 16.203125 55.890625 
C 11.09375 44.84375 9.90625 33.6875 9.90625 25.25 
C 9.90625 17.40625 11 5.25 16.5 -6.109375 
C 22.5 -18.46875 31.09375 -25 32.09375 -25 
C 32.703125 -25 33.09375 -24.703125 33.09375 -24 
z
" id="CMR10-40"/>
      <path d="M 31.703125 71 
C 27.40625 71 23 68.90625 18.40625 64.421875 
C 9.5 55.953125 2.90625 40.875 2.90625 22.546875 
C 2.90625 6.6875 6.09375 -1 14.5 -1 
C 19.796875 -1 26 2.6875 30.703125 8.6875 
C 37.5 17.359375 43.703125 33.8125 43.703125 48.875 
C 43.703125 62.734375 39.90625 71 31.703125 71 
z
M 23.09375 33 
C 29.90625 33 32.703125 32.703125 34.40625 31.90625 
C 32.203125 21.84375 28.5 12.890625 25.296875 7.6875 
C 23.296875 4.609375 20.59375 2.828125 17.59375 2.828125 
C 11.59375 2.828125 10.5 10.484375 10.5 22.34375 
C 10.5 25.421875 10.703125 28.609375 11.203125 31.8125 
C 13.296875 32.703125 16 33 23.09375 33 
z
M 29.203125 67.1875 
C 35.5 67.1875 36.09375 59.015625 36.09375 46.671875 
C 36.09375 43.875 35.90625 41 35.5 38.203125 
C 33.5 37.515625 30.40625 37.21875 23.796875 37.21875 
C 17 37.21875 14.09375 37.515625 12.296875 38.21875 
C 14.90625 49.96875 19.5 60.71875 23.09375 64.890625 
C 24.5 66.390625 26.796875 67.1875 29.203125 67.1875 
z
" id="Pazo_Math_Italic-113"/>
      <path d="M 28.90625 25.25 
C 28.90625 33.09375 27.796875 45.25 22.296875 56.59375 
C 16.296875 68.96875 7.703125 75.5 6.703125 75.5 
C 6.09375 75.5 5.703125 75.09375 5.703125 74.484375 
C 5.703125 74.1875 5.703125 73.984375 7.59375 72.1875 
C 17.40625 62.234375 23.09375 46.25 23.09375 25.25 
C 23.09375 8.0625 19.40625 -9.640625 7 -22.296875 
C 5.703125 -23.5 5.703125 -23.703125 5.703125 -24 
C 5.703125 -24.609375 6.09375 -25 6.703125 -25 
C 7.703125 -25 16.703125 -18.171875 22.59375 -5.40625 
C 27.703125 5.65625 28.90625 16.796875 28.90625 25.25 
z
" id="CMR10-41"/>
     </defs>
     <use transform="scale(0.996264)" xlink:href="#URW_Palladio_L_Roman-115"/>
     <use transform="translate(42.241466 0)scale(0.996264)" xlink:href="#URW_Palladio_L_Roman-105"/>
     <use transform="translate(71.231828 0)scale(0.996264)" xlink:href="#URW_Palladio_L_Roman-110"/>
     <use transform="translate(130.459188 0)scale(1.038107)" xlink:href="#CMR10-40"/>
     <use transform="translate(173.198893 0)scale(0.996264)" xlink:href="#Pazo_Math_Italic-113"/>
     <use transform="translate(222.912415 0)scale(1.038107)" xlink:href="#CMR10-41"/>
    </g>
   </g>
   <g id="text_10">
    <!-- $\cos(\theta)$ -->
    <g style="fill:#dc2830;" transform="translate(230.054913 193.490529)scale(0.14 -0.14)">
     <defs>
      <path d="M 39.90625 31.15625 
C 39.90625 35.765625 40.40625 39.875 41.296875 43.484375 
C 37.296875 45.890625 33.796875 47 29.703125 47 
C 24.90625 47 19.296875 45.09375 13.296875 41.28125 
C 6.296875 36.875 2.59375 29.859375 2.59375 21.046875 
C 2.59375 7.515625 12.09375 -2 25.5 -2 
C 30.703125 -2 38.203125 -0.09375 39.203125 1.40625 
L 41.296875 4.609375 
L 40.296875 6.109375 
C 36.59375 4.109375 33.40625 3.203125 29.796875 3.203125 
C 18.703125 3.203125 11.40625 11.828125 11.40625 25.046875 
C 11.40625 35.765625 16.40625 41.78125 25.40625 41.78125 
C 29.796875 41.78125 34.59375 39.78125 36.40625 37.28125 
L 37.09375 31.15625 
z
" id="URW_Palladio_L_Roman-99"/>
      <path d="M 27.90625 47 
C 13.296875 47 3.203125 36.671875 3.203125 21.75 
C 3.203125 7.609375 12.09375 -2 25 -2 
C 40.40625 -2 51.40625 8.71875 51.40625 23.75 
C 51.40625 37.28125 41.59375 47 27.90625 47 
z
M 26.09375 43.6875 
C 35.296875 43.6875 42.09375 33.671875 42.09375 20.046875 
C 42.09375 8.515625 37 1.296875 28.90625 1.296875 
C 19.09375 1.296875 12.5 10.921875 12.5 25.15625 
C 12.5 37.171875 17.296875 43.6875 26.09375 43.6875 
z
" id="URW_Palladio_L_Roman-111"/>
     </defs>
     <use transform="scale(0.996264)" xlink:href="#URW_Palladio_L_Roman-99"/>
     <use transform="translate(44.233569 0)scale(0.996264)" xlink:href="#URW_Palladio_L_Roman-111"/>
     <use transform="translate(98.629149 0)scale(0.996264)" xlink:href="#URW_Palladio_L_Roman-115"/>
     <use transform="translate(142.115915 0)scale(1.038107)" xlink:href="#CMR10-40"/>
     <use transform="translate(184.85562 0)scale(0.996264)" xlink:href="#Pazo_Math_Italic-113"/>
     <use transform="translate(234.569142 0)scale(1.038107)" xlink:href="#CMR10-41"/>
    </g>
   </g>
   <g id="text_11">
    <!-- $\theta$ -->
    <g style="fill:#343837;" transform="translate(250.014612 160.224363)scale(0.14 -0.14)">
     <use transform="scale(0.996264)" xlink:href="#Pazo_Math_Italic-113"/>
    </g>
   </g>
  </g>
 </g>
 <defs>
  <clipPath id="p46e565f041">
   <rect height="332.661659" width="332.661659" x="57.070851" y="7.2"/>
  </clipPath>
 </defs>
</svg>
