<?xml version="1.0" encoding="utf-8" standalone="no"?>
<!DOCTYPE svg PUBLIC "-//W3C//DTD SVG 1.1//EN"
  "http://www.w3.org/Graphics/SVG/1.1/DTD/svg11.dtd">
<svg height="392.39952pt" version="1.1" viewBox="0 0 584.39952 392.39952" width="584.39952pt" xmlns="http://www.w3.org/2000/svg" xmlns:xlink="http://www.w3.org/1999/xlink">
 <metadata>
  <rdf:RDF xmlns:cc="http://creativecommons.org/ns#" xmlns:dc="http://purl.org/dc/elements/1.1/" xmlns:rdf="http://www.w3.org/1999/02/22-rdf-syntax-ns#">
   <cc:Work>
    <dc:type rdf:resource="http://purl.org/dc/dcmitype/StillImage"/>
    <dc:date>2021-08-20T10:06:12.015077</dc:date>
    <dc:format>image/svg+xml</dc:format>
    <dc:creator>
     <cc:Agent>
      <dc:title>Matplotlib v3.4.2, https://matplotlib.org/</dc:title>
     </cc:Agent>
    </dc:creator>
   </cc:Work>
  </rdf:RDF>
 </metadata>
 <defs>
  <style type="text/css">*{stroke-linecap:butt;stroke-linejoin:round;}</style>
 </defs>
 <g id="figure_1">
  <g id="patch_1">
   <path d="M 0 392.39952 
L 584.39952 392.39952 
L 584.39952 0 
L 0 0 
z
" style="fill:none;"/>
  </g>
  <g id="axes_1">
   <g id="patch_2">
    <path d="M 41.145691 121.504356 
L 577.19952 121.504356 
L 577.19952 23.179529 
L 41.145691 23.179529 
z
" style="fill:none;"/>
   </g>
   <g id="matplotlib.axis_1">
    <g id="xtick_1">
     <g id="line2d_1">
      <path clip-path="url(#pb1391d5291)" d="M 41.145691 121.504356 
L 41.145691 23.179529 
" style="fill:none;stroke:#000000;stroke-linejoin:miter;stroke-opacity:0.2;stroke-width:0.5;"/>
     </g>
     <g id="line2d_2">
      <defs>
       <path d="M 0 0 
L 0 3.5 
" id="m8e4c3c6c2e" style="stroke:#000000;stroke-opacity:0.2;stroke-width:0.8;"/>
      </defs>
      <g>
       <use style="fill-opacity:0.2;stroke:#000000;stroke-opacity:0.2;stroke-width:0.8;" x="41.145691" xlink:href="#m8e4c3c6c2e" y="121.504356"/>
      </g>
     </g>
    </g>
    <g id="xtick_2">
     <g id="line2d_3">
      <path clip-path="url(#pb1391d5291)" d="M 126.914303 121.504356 
L 126.914303 23.179529 
" style="fill:none;stroke:#000000;stroke-linejoin:miter;stroke-opacity:0.2;stroke-width:0.5;"/>
     </g>
     <g id="line2d_4">
      <g>
       <use style="fill-opacity:0.2;stroke:#000000;stroke-opacity:0.2;stroke-width:0.8;" x="126.914303" xlink:href="#m8e4c3c6c2e" y="121.504356"/>
      </g>
     </g>
    </g>
    <g id="xtick_3">
     <g id="line2d_5">
      <path clip-path="url(#pb1391d5291)" d="M 212.682916 121.504356 
L 212.682916 23.179529 
" style="fill:none;stroke:#000000;stroke-linejoin:miter;stroke-opacity:0.2;stroke-width:0.5;"/>
     </g>
     <g id="line2d_6">
      <g>
       <use style="fill-opacity:0.2;stroke:#000000;stroke-opacity:0.2;stroke-width:0.8;" x="212.682916" xlink:href="#m8e4c3c6c2e" y="121.504356"/>
      </g>
     </g>
    </g>
    <g id="xtick_4">
     <g id="line2d_7">
      <path clip-path="url(#pb1391d5291)" d="M 298.451529 121.504356 
L 298.451529 23.179529 
" style="fill:none;stroke:#000000;stroke-linejoin:miter;stroke-opacity:0.2;stroke-width:0.5;"/>
     </g>
     <g id="line2d_8">
      <g>
       <use style="fill-opacity:0.2;stroke:#000000;stroke-opacity:0.2;stroke-width:0.8;" x="298.451529" xlink:href="#m8e4c3c6c2e" y="121.504356"/>
      </g>
     </g>
    </g>
    <g id="xtick_5">
     <g id="line2d_9">
      <path clip-path="url(#pb1391d5291)" d="M 384.220141 121.504356 
L 384.220141 23.179529 
" style="fill:none;stroke:#000000;stroke-linejoin:miter;stroke-opacity:0.2;stroke-width:0.5;"/>
     </g>
     <g id="line2d_10">
      <g>
       <use style="fill-opacity:0.2;stroke:#000000;stroke-opacity:0.2;stroke-width:0.8;" x="384.220141" xlink:href="#m8e4c3c6c2e" y="121.504356"/>
      </g>
     </g>
    </g>
    <g id="xtick_6">
     <g id="line2d_11">
      <path clip-path="url(#pb1391d5291)" d="M 469.988754 121.504356 
L 469.988754 23.179529 
" style="fill:none;stroke:#000000;stroke-linejoin:miter;stroke-opacity:0.2;stroke-width:0.5;"/>
     </g>
     <g id="line2d_12">
      <g>
       <use style="fill-opacity:0.2;stroke:#000000;stroke-opacity:0.2;stroke-width:0.8;" x="469.988754" xlink:href="#m8e4c3c6c2e" y="121.504356"/>
      </g>
     </g>
    </g>
    <g id="xtick_7">
     <g id="line2d_13">
      <path clip-path="url(#pb1391d5291)" d="M 555.757367 121.504356 
L 555.757367 23.179529 
" style="fill:none;stroke:#000000;stroke-linejoin:miter;stroke-opacity:0.2;stroke-width:0.5;"/>
     </g>
     <g id="line2d_14">
      <g>
       <use style="fill-opacity:0.2;stroke:#000000;stroke-opacity:0.2;stroke-width:0.8;" x="555.757367" xlink:href="#m8e4c3c6c2e" y="121.504356"/>
      </g>
     </g>
    </g>
   </g>
   <g id="matplotlib.axis_2">
    <g id="ytick_1">
     <g id="line2d_15">
      <path clip-path="url(#pb1391d5291)" d="M 41.145691 117.805258 
L 577.19952 117.805258 
" style="fill:none;stroke:#000000;stroke-linejoin:miter;stroke-opacity:0.2;stroke-width:0.5;"/>
     </g>
     <g id="line2d_16">
      <defs>
       <path d="M 0 0 
L -3.5 0 
" id="mf4fc4eac4c" style="stroke:#000000;stroke-opacity:0.2;stroke-width:0.8;"/>
      </defs>
      <g>
       <use style="fill-opacity:0.2;stroke:#000000;stroke-opacity:0.2;stroke-width:0.8;" x="41.145691" xlink:href="#mf4fc4eac4c" y="117.805258"/>
      </g>
     </g>
     <g id="text_1">
      <!-- $\mathdefault{−1}$ -->
      <g transform="translate(7.2 122.795023)scale(0.14 -0.14)">
       <defs>
        <path d="M 4218 1472 
C 4326 1472 4442 1472 4442 1600 
C 4442 1728 4326 1728 4218 1728 
L 755 1728 
C 646 1728 531 1728 531 1600 
C 531 1472 646 1472 755 1472 
L 4218 1472 
z
" id="CMSY10-0" transform="scale(0.015625)"/>
        <path d="M 429 3571 
L 493 3571 
L 1318 3942 
C 1325 3949 1331 3949 1338 3949 
C 1376 3949 1389 3891 1389 3737 
L 1389 633 
C 1389 300 1318 230 973 211 
L 614 192 
L 614 0 
C 1600 0 1600 0 1670 0 
C 1754 0 1894 0 2112 -7 
C 2189 6 2413 6 2675 0 
L 2675 192 
L 2342 211 
C 1990 229 1926 299 1926 628 
L 1926 4383 
L 1837 4416 
C 1421 4199 966 4009 384 3807 
L 429 3571 
z
" id="URWPalladioL-Roma-31" transform="scale(0.015625)"/>
       </defs>
       <use transform="scale(1.038107)" xlink:href="#CMSY10-0"/>
       <use transform="translate(81.941696 0)scale(0.996264)" xlink:href="#URWPalladioL-Roma-31"/>
      </g>
     </g>
    </g>
    <g id="ytick_2">
     <g id="line2d_17">
      <path clip-path="url(#pb1391d5291)" d="M 41.145691 73.118591 
L 577.19952 73.118591 
" style="fill:none;stroke:#000000;stroke-linejoin:miter;stroke-opacity:0.2;stroke-width:0.5;"/>
     </g>
     <g id="line2d_18">
      <g>
       <use style="fill-opacity:0.2;stroke:#000000;stroke-opacity:0.2;stroke-width:0.8;" x="41.145691" xlink:href="#mf4fc4eac4c" y="73.118591"/>
      </g>
     </g>
     <g id="text_2">
      <!-- $\mathdefault{0}$ -->
      <g transform="translate(18.671843 78.108356)scale(0.14 -0.14)">
       <defs>
        <path d="M 1683 4416 
C 691 4416 186 3628 186 2076 
C 186 1326 320 679 544 365 
C 768 51 1126 -128 1523 -128 
C 2490 -128 2976 704 2976 2345 
C 2976 3749 2560 4416 1683 4416 
z
M 1568 4191 
C 2189 4191 2438 3563 2438 2025 
C 2438 660 2195 96 1606 96 
C 986 96 723 743 723 2307 
C 723 3660 960 4191 1568 4191 
z
" id="URWPalladioL-Roma-30" transform="scale(0.015625)"/>
       </defs>
       <use transform="scale(0.996264)" xlink:href="#URWPalladioL-Roma-30"/>
      </g>
     </g>
    </g>
    <g id="ytick_3">
     <g id="line2d_19">
      <path clip-path="url(#pb1391d5291)" d="M 41.145691 28.431924 
L 577.19952 28.431924 
" style="fill:none;stroke:#000000;stroke-linejoin:miter;stroke-opacity:0.2;stroke-width:0.5;"/>
     </g>
     <g id="line2d_20">
      <g>
       <use style="fill-opacity:0.2;stroke:#000000;stroke-opacity:0.2;stroke-width:0.8;" x="41.145691" xlink:href="#mf4fc4eac4c" y="28.431924"/>
      </g>
     </g>
     <g id="text_3">
      <!-- $\mathdefault{1}$ -->
      <g transform="translate(18.671843 33.421689)scale(0.14 -0.14)">
       <use transform="scale(0.996264)" xlink:href="#URWPalladioL-Roma-31"/>
      </g>
     </g>
    </g>
   </g>
   <g id="line2d_21">
    <path clip-path="url(#pb1391d5291)" d="M 41.145691 68.725045 
L 42.003377 56.52697 
L 42.861063 72.986543 
L 43.718749 67.243339 
L 44.576435 65.731543 
L 45.434121 84.090793 
L 46.291807 88.744853 
L 47.149494 66.990508 
L 48.00718 70.356066 
L 48.864866 75.146794 
L 49.722552 83.842071 
L 50.580238 66.031484 
L 51.437924 66.848101 
L 52.29561 77.181305 
L 53.153296 52.106643 
L 54.010983 51.080291 
L 54.868669 97.616017 
L 55.726355 66.925277 
L 56.584041 81.239914 
L 57.441727 98.579439 
L 58.299413 81.748644 
L 59.157099 87.894359 
L 60.014786 76.7959 
L 60.872472 54.897253 
L 61.730158 87.513998 
L 62.587844 31.757858 
L 63.44553 101.846168 
L 64.303216 79.78342 
L 65.160902 75.393392 
L 66.018588 76.531802 
L 66.876275 92.626154 
L 67.733961 57.208665 
L 68.591647 73.978943 
L 69.449333 58.528113 
L 70.307019 76.673501 
L 71.164705 87.401373 
L 72.022391 69.964817 
L 72.880077 84.003618 
L 73.737764 63.421 
L 74.59545 60.730415 
L 75.453136 66.210773 
L 76.310822 75.115033 
L 77.168508 40.30722 
L 78.026194 66.430917 
L 78.88388 117.035046 
L 79.741566 70.979958 
L 80.599253 92.462211 
L 81.456939 41.264581 
L 82.314625 95.687435 
L 83.172311 80.634539 
L 84.029997 91.055709 
L 84.887683 64.307225 
L 86.603055 67.101121 
L 87.460742 70.721023 
L 88.318428 96.544862 
L 89.176114 53.402446 
L 90.0338 85.055538 
L 90.891486 54.293725 
L 91.749172 77.917018 
L 92.606858 96.590667 
L 93.464544 58.729166 
L 94.322231 66.024744 
L 95.179917 77.897508 
L 96.037603 67.699567 
L 96.895289 82.259701 
L 97.752975 79.55152 
L 98.610661 50.773382 
L 100.326033 85.71016 
L 101.18372 89.326831 
L 102.041406 58.806772 
L 103.756778 87.191694 
L 104.614464 77.931981 
L 105.47215 87.315883 
L 106.329836 50.410222 
L 107.187522 59.540768 
L 108.045209 78.102064 
L 108.902895 48.973773 
L 109.760581 66.864914 
L 110.618267 69.241408 
L 111.475953 67.113127 
L 112.333639 73.50615 
L 113.191325 89.626894 
L 114.049012 48.327083 
L 114.906698 86.535847 
L 115.764384 60.429048 
L 116.62207 64.952451 
L 117.479756 97.382317 
L 118.337442 69.789377 
L 119.195128 69.915756 
L 120.052814 77.22504 
L 120.910501 79.855868 
L 121.768187 52.244748 
L 122.625873 74.769697 
L 123.483559 70.790414 
L 124.341245 86.655767 
L 125.198931 68.806541 
L 126.056617 73.984983 
L 126.914303 73.548759 
L 127.77199 83.010254 
L 128.629676 74.414129 
L 129.487362 58.543116 
L 130.345048 58.103399 
L 131.202734 101.314147 
L 132.06042 71.038015 
L 132.918106 103.389064 
L 133.775792 77.798066 
L 134.633479 69.828556 
L 135.491165 75.487803 
L 136.348851 95.941366 
L 137.206537 68.461617 
L 138.064223 64.972193 
L 138.921909 64.276978 
L 139.779595 70.721873 
L 140.637281 86.56707 
L 141.494968 74.770176 
L 142.352654 73.869025 
L 143.21034 65.089207 
L 144.068026 106.158457 
L 144.925712 74.029826 
L 145.783398 85.183943 
L 146.641084 64.533586 
L 147.49877 76.545572 
L 148.356457 60.618923 
L 149.214143 53.435758 
L 150.071829 94.064777 
L 150.929515 84.420759 
L 151.787201 79.71852 
L 152.644887 93.027309 
L 153.502573 57.022349 
L 154.360259 91.750882 
L 155.217946 73.194849 
L 156.075632 71.408178 
L 156.933318 88.07253 
L 157.791004 53.376161 
L 158.64869 92.516523 
L 159.506376 98.827914 
L 160.364062 54.798746 
L 161.221748 70.580561 
L 162.079435 45.240432 
L 162.937121 76.537922 
L 163.794807 76.073486 
L 164.652493 60.833555 
L 165.510179 104.838204 
L 166.367865 76.724846 
L 167.225551 79.835821 
L 168.083237 73.718601 
L 168.940924 78.408209 
L 169.79861 72.933112 
L 170.656296 93.244547 
L 171.513982 72.083492 
L 172.371668 57.284095 
L 173.229354 70.510447 
L 174.08704 51.974243 
L 174.944727 66.013933 
L 175.802413 82.431283 
L 176.660099 45.721385 
L 178.375471 66.732854 
L 179.233157 106.47872 
L 180.090843 59.601476 
L 180.948529 57.76498 
L 181.806216 82.515228 
L 182.663902 53.613228 
L 183.521588 76.993574 
L 184.379274 79.14977 
L 185.23696 76.006496 
L 186.094646 90.867592 
L 186.952332 45.682831 
L 187.810018 81.142216 
L 188.667705 61.63093 
L 189.525391 66.703379 
L 190.383077 62.419047 
L 191.240763 95.086931 
L 192.098449 63.249758 
L 192.956135 85.372244 
L 193.813821 93.924321 
L 194.671507 91.034314 
L 195.529194 62.242249 
L 196.38688 72.879337 
L 197.244566 69.756649 
L 198.102252 102.321442 
L 198.959938 107.679679 
L 199.817624 90.931527 
L 200.67531 61.794558 
L 201.532996 66.789951 
L 202.390683 62.882102 
L 203.248369 60.103663 
L 204.106055 76.919138 
L 204.963741 55.551632 
L 205.821427 73.376181 
L 206.679113 42.504733 
L 207.536799 68.458945 
L 208.394485 73.988598 
L 209.252172 67.333721 
L 210.109858 82.913514 
L 210.967544 95.969859 
L 211.82523 58.549889 
L 212.682916 60.516247 
L 213.540602 79.116553 
L 214.398288 64.302768 
L 215.255974 92.833403 
L 216.113661 70.148359 
L 216.971347 59.996893 
L 217.829033 59.547294 
L 218.686719 95.659958 
L 219.544405 66.031929 
L 220.402091 96.729466 
L 221.259777 80.47164 
L 222.117463 85.36432 
L 222.97515 92.545352 
L 223.832836 56.208258 
L 224.690522 66.974486 
L 225.548208 57.13419 
L 226.405894 81.179283 
L 227.26358 88.831221 
L 228.121266 70.436575 
L 228.978952 54.534968 
L 229.836639 69.619118 
L 230.694325 90.116154 
L 231.552011 51.275507 
L 232.409697 43.450326 
L 233.267383 65.235642 
L 234.125069 74.688425 
L 234.982755 60.208979 
L 235.840442 69.438603 
L 236.698128 66.725894 
L 237.555814 96.142346 
L 238.4135 68.404059 
L 239.271186 73.921603 
L 240.128872 89.025197 
L 240.986558 71.222956 
L 241.844244 73.076316 
L 242.701931 82.344225 
L 243.559617 76.971799 
L 244.417303 53.747355 
L 245.274989 101.949276 
L 246.132675 98.005974 
L 246.990361 63.367246 
L 247.848047 87.225805 
L 248.705733 74.229074 
L 249.56342 78.426545 
L 250.421106 72.829411 
L 251.278792 60.393016 
L 252.136478 53.306395 
L 252.994164 70.338395 
L 253.85185 84.488197 
L 254.709536 76.319567 
L 255.567222 70.83691 
L 256.424909 67.081306 
L 257.282595 80.045553 
L 258.140281 76.323975 
L 258.997967 77.950137 
L 259.855653 50.373197 
L 260.713339 65.099926 
L 261.571025 58.214602 
L 262.428711 58.697409 
L 263.286398 76.459326 
L 264.144084 79.129132 
L 265.00177 59.624872 
L 265.859456 68.381399 
L 266.717142 85.903107 
L 267.574828 60.055808 
L 268.432514 63.094925 
L 269.2902 63.879384 
L 270.147887 77.587956 
L 271.005573 71.023853 
L 271.863259 70.577074 
L 272.720945 72.138346 
L 273.578631 74.10325 
L 274.436317 47.177823 
L 275.294003 61.831302 
L 276.151689 80.631501 
L 277.867062 69.69562 
L 278.724748 73.262543 
L 279.582434 57.543136 
L 280.44012 61.558788 
L 281.297806 50.751115 
L 282.155492 94.686713 
L 283.013178 92.886711 
L 283.870865 82.952973 
L 284.728551 62.634571 
L 285.586237 80.453174 
L 286.443923 90.521505 
L 287.301609 80.833241 
L 288.159295 48.571862 
L 289.016981 106.377671 
L 289.874668 53.938256 
L 290.732354 98.816863 
L 291.59004 71.045151 
L 292.447726 92.48186 
L 293.305412 82.106145 
L 294.163098 55.422892 
L 295.020784 89.142337 
L 295.87847 53.215049 
L 296.736157 60.677384 
L 297.593843 81.395021 
L 299.309215 56.810115 
L 300.166901 96.514567 
L 301.882273 31.801989 
L 302.739959 79.647462 
L 303.597646 64.347652 
L 304.455332 70.928028 
L 305.313018 56.81812 
L 307.02839 91.052479 
L 307.886076 89.821384 
L 308.743762 80.494518 
L 309.601448 93.673247 
L 310.459135 100.495035 
L 311.316821 89.717783 
L 312.174507 74.384598 
L 313.032193 80.466669 
L 313.889879 67.099333 
L 314.747565 78.884415 
L 315.605251 73.226656 
L 316.462937 63.836167 
L 317.320624 82.182521 
L 318.17831 69.217585 
L 319.035996 87.071358 
L 319.893682 42.03866 
L 320.751368 59.723071 
L 321.609054 99.28284 
L 322.46674 64.075289 
L 323.324426 69.757827 
L 324.182113 76.968882 
L 325.039799 85.5655 
L 325.897485 64.132175 
L 326.755171 80.644878 
L 328.470543 65.663625 
L 329.328229 65.647735 
L 330.185915 87.209698 
L 331.043602 78.094292 
L 331.901288 75.670689 
L 332.758974 86.955491 
L 333.61666 50.016026 
L 334.474346 95.785854 
L 335.332032 93.280207 
L 336.189718 37.950726 
L 337.047404 66.823863 
L 337.905091 101.789827 
L 338.762777 61.090153 
L 339.620463 80.897926 
L 340.478149 75.859662 
L 341.335835 65.192125 
L 342.193521 36.395295 
L 343.051207 64.981624 
L 343.908893 75.988538 
L 344.76658 72.76297 
L 345.624266 55.183074 
L 346.481952 80.631068 
L 347.339638 58.484835 
L 348.197324 64.409121 
L 349.05501 74.840905 
L 349.912696 72.91356 
L 350.770383 67.399565 
L 351.628069 66.26058 
L 352.485755 61.549091 
L 353.343441 64.901312 
L 354.201127 98.685794 
L 355.058813 80.674132 
L 355.916499 86.422708 
L 356.774185 84.506513 
L 357.631872 62.676032 
L 358.489558 87.024568 
L 359.347244 80.751127 
L 360.20493 66.722595 
L 361.062616 82.848061 
L 361.920302 75.673712 
L 362.777988 64.151229 
L 363.635674 88.455607 
L 364.493361 75.577178 
L 365.351047 81.934406 
L 366.208733 71.914976 
L 367.066419 83.774131 
L 367.924105 66.894495 
L 368.781791 59.752787 
L 369.639477 54.564842 
L 370.497163 82.565218 
L 371.35485 73.192315 
L 372.212536 74.254592 
L 373.070222 70.133923 
L 373.927908 70.766534 
L 374.785594 27.64884 
L 375.64328 65.744001 
L 376.500966 112.015344 
L 377.358652 64.311951 
L 378.216339 70.865614 
L 379.074025 81.053095 
L 379.931711 61.529275 
L 380.789397 65.268344 
L 381.647083 86.27404 
L 382.504769 81.923797 
L 383.362455 41.414581 
L 384.220141 69.416058 
L 385.077828 61.46377 
L 386.7932 90.333917 
L 387.650886 94.50304 
L 388.508572 91.935794 
L 389.366258 93.225132 
L 390.223944 50.774566 
L 391.08163 82.43875 
L 391.939317 86.176554 
L 392.797003 75.03808 
L 393.654689 69.398122 
L 394.512375 85.911004 
L 395.370061 58.587152 
L 396.227747 56.925688 
L 397.085433 82.364113 
L 397.943119 78.082378 
L 398.800806 78.852198 
L 399.658492 53.222317 
L 400.516178 69.541067 
L 401.373864 94.031109 
L 402.23155 55.980118 
L 403.946922 87.18667 
L 404.804609 114.310756 
L 405.662295 73.359226 
L 406.519981 47.67411 
L 407.377667 47.846332 
L 408.235353 47.08183 
L 409.093039 71.82204 
L 409.950725 73.973307 
L 410.808411 59.078896 
L 411.666098 69.056285 
L 412.523784 88.698149 
L 413.38147 56.724227 
L 414.239156 70.898719 
L 415.096842 71.883917 
L 415.954528 91.621383 
L 416.812214 75.154137 
L 417.6699 70.062803 
L 418.527587 79.602756 
L 419.385273 56.60566 
L 420.242959 37.274732 
L 421.100645 83.208108 
L 421.958331 95.678848 
L 423.673703 58.801516 
L 424.531389 76.84587 
L 425.389076 66.079583 
L 426.246762 63.904423 
L 427.104448 86.213059 
L 427.962134 65.903638 
L 428.81982 68.782893 
L 429.677506 40.196564 
L 430.535192 79.488445 
L 431.392878 58.114376 
L 432.250565 91.987998 
L 433.108251 76.089373 
L 433.965937 97.052956 
L 434.823623 82.246695 
L 435.681309 107.575755 
L 436.538995 79.772994 
L 437.396681 69.922853 
L 438.254367 31.062102 
L 439.112054 78.314621 
L 439.96974 85.435309 
L 440.827426 53.603913 
L 441.685112 41.058191 
L 442.542798 89.406837 
L 443.400484 97.356313 
L 444.25817 70.442922 
L 445.115856 85.300533 
L 445.973543 65.355104 
L 446.831229 70.412846 
L 447.688915 61.204231 
L 448.546601 76.066696 
L 449.404287 55.044926 
L 450.261973 76.438956 
L 451.119659 49.127592 
L 451.977345 73.866966 
L 452.835032 65.437946 
L 454.550404 89.552422 
L 455.40809 86.708217 
L 456.265776 91.979067 
L 457.123462 91.267386 
L 458.838834 69.376185 
L 459.696521 89.228837 
L 460.554207 86.282328 
L 461.411893 61.977455 
L 462.269579 71.366907 
L 463.984951 109.065159 
L 464.842637 51.910372 
L 465.700324 58.491312 
L 466.55801 77.85815 
L 467.415696 68.518001 
L 468.273382 66.081752 
L 469.131068 43.932732 
L 469.988754 74.622973 
L 470.84644 82.497465 
L 471.704126 104.974958 
L 472.561813 75.977454 
L 473.419499 64.36616 
L 474.277185 66.097354 
L 475.134871 75.356798 
L 475.992557 92.170629 
L 476.850243 94.409269 
L 477.707929 92.943329 
L 478.565615 80.666771 
L 479.423302 40.884202 
L 480.280988 71.256927 
L 481.138674 75.909836 
L 481.99636 87.15485 
L 482.854046 90.68234 
L 483.711732 90.981721 
L 484.569418 85.261607 
L 485.427104 82.665225 
L 486.284791 52.381602 
L 487.142477 90.485251 
L 488.000163 49.587601 
L 488.857849 79.912688 
L 489.715535 75.36237 
L 490.573221 64.111221 
L 491.430907 73.134908 
L 492.288593 76.637446 
L 493.14628 38.829686 
L 494.003966 71.465384 
L 494.861652 74.12443 
L 495.719338 75.005438 
L 496.577024 103.321156 
L 497.43471 58.457637 
L 498.292396 87.641656 
L 499.150082 87.725945 
L 500.007769 50.953271 
L 500.865455 50.413304 
L 501.723141 74.004599 
L 502.580827 55.543984 
L 503.438513 88.82876 
L 504.296199 56.76496 
L 505.153885 83.764558 
L 506.011571 51.158333 
L 506.869258 88.880939 
L 508.58463 54.532139 
L 509.442316 52.023533 
L 510.300002 78.825234 
L 511.157688 56.937801 
L 512.015374 75.408615 
L 512.87306 60.929272 
L 513.730747 64.844 
L 514.588433 89.177945 
L 515.446119 59.530427 
L 516.303805 84.025429 
L 517.161491 55.224116 
L 518.019177 65.164176 
L 518.876863 58.46525 
L 519.73455 82.409234 
L 520.592236 87.459344 
L 521.449922 70.158018 
L 522.307608 75.945885 
L 523.165294 79.939954 
L 524.880666 93.806571 
L 525.738352 75.511481 
L 526.596039 86.423623 
L 527.453725 108.23988 
L 528.311411 61.3707 
L 529.169097 84.193869 
L 530.026783 68.658247 
L 530.884469 64.617053 
L 531.742155 65.763055 
L 532.599841 94.647218 
L 533.457528 77.647008 
L 534.315214 90.683384 
L 535.1729 67.488151 
L 536.030586 102.187525 
L 536.888272 96.142774 
L 537.745958 79.221617 
L 538.603644 85.648541 
L 539.46133 61.214557 
L 540.319017 82.64283 
L 541.176703 69.043781 
L 542.034389 59.766215 
L 542.892075 74.328868 
L 543.749761 78.724705 
L 544.607447 63.27151 
L 545.465133 59.032635 
L 546.322819 85.851016 
L 547.180506 67.179419 
L 548.038192 53.199938 
L 548.895878 60.165829 
L 549.753564 99.0368 
L 550.61125 64.633959 
L 551.468936 65.462135 
L 552.326622 41.417053 
L 553.184308 79.568146 
L 554.899681 59.656752 
L 555.757367 88.978253 
L 556.615053 45.540684 
L 557.472739 87.628232 
L 558.330425 50.173363 
L 559.188111 84.127407 
L 560.045797 101.257077 
L 560.903484 81.935373 
L 561.76117 91.03837 
L 562.618856 54.596036 
L 563.476542 57.926804 
L 564.334228 59.166191 
L 565.191914 90.628052 
L 566.0496 61.384769 
L 566.907286 75.551292 
L 567.764973 66.794648 
L 568.622659 77.556553 
L 569.480345 53.373606 
L 570.338031 80.652092 
L 571.195717 70.680471 
L 572.053403 54.625301 
L 572.911089 78.452451 
L 573.768775 65.994041 
L 574.626462 66.842825 
L 575.484148 88.051085 
L 576.341834 83.071193 
L 576.341834 83.071193 
" style="fill:none;stroke:#0271ae;stroke-linejoin:miter;stroke-width:3;"/>
   </g>
   <g id="text_4">
    <!-- Some aperiodic signals -->
    <g transform="translate(238.326036 17.179529)scale(0.14 -0.14)">
     <defs>
      <path d="M 2861 3371 
C 2861 3711 2886 3929 2950 4275 
C 2438 4479 2150 4544 1798 4544 
C 845 4544 154 3942 154 3102 
C 154 2788 237 2557 422 2384 
C 640 2185 934 2083 1555 1999 
C 2048 1929 2272 1858 2438 1711 
C 2605 1576 2682 1390 2682 1147 
C 2682 570 2202 153 1536 153 
C 1024 153 525 403 493 666 
L 442 1095 
L 237 1095 
C 243 980 243 877 243 839 
C 243 544 230 403 192 115 
C 557 -45 928 -128 1299 -128 
C 2413 -128 3219 544 3219 1474 
C 3219 1775 3136 1986 2957 2153 
C 2733 2365 2464 2448 1747 2544 
C 966 2647 691 2858 691 3352 
C 691 3890 1094 4275 1658 4275 
C 1907 4275 2144 4224 2317 4127 
C 2528 4018 2598 3922 2618 3736 
L 2656 3371 
L 2861 3371 
z
" id="URWPalladioL-Roma-53" transform="scale(0.015625)"/>
      <path d="M 1786 3008 
C 851 3008 205 2347 205 1391 
C 205 487 774 -128 1600 -128 
C 2586 -128 3290 557 3290 1520 
C 3290 2386 2662 3008 1786 3008 
z
M 1670 2796 
C 2259 2796 2694 2155 2694 1282 
C 2694 545 2368 83 1850 83 
C 1222 83 800 699 800 1609 
C 800 2379 1107 2796 1670 2796 
z
" id="URWPalladioL-Roma-6f" transform="scale(0.015625)"/>
      <path d="M 115 2579 
L 352 2579 
C 608 2579 634 2534 634 2112 
L 634 672 
C 634 268 614 224 397 211 
L 102 192 
L 102 0 
C 717 0 736 0 915 0 
C 1094 19 1261 12 1677 0 
L 1677 192 
L 1408 211 
C 1190 223 1171 268 1171 670 
L 1171 2023 
C 1171 2311 1594 2624 1978 2624 
C 2323 2624 2560 2298 2560 1813 
L 2560 670 
C 2560 268 2541 223 2323 211 
L 2029 192 
L 2029 0 
C 2669 0 2669 0 2829 0 
C 2989 19 2989 19 3629 0 
L 3629 192 
L 3334 211 
C 3117 223 3098 268 3098 670 
L 3098 2023 
C 3098 2311 3520 2624 3904 2624 
C 4250 2624 4486 2298 4486 1813 
L 4486 0 
C 4877 0 4883 0 4992 0 
C 5075 19 5075 19 5562 0 
L 5562 192 
L 5261 211 
C 5043 223 5024 268 5024 670 
L 5024 1985 
C 5024 2617 4653 3014 4064 3014 
C 3840 3014 3654 2956 3539 2854 
L 3053 2419 
C 2848 2841 2586 3014 2144 3014 
C 1907 3014 1728 2956 1613 2854 
L 1171 2445 
L 1171 2988 
L 1114 3008 
C 787 2873 454 2783 115 2745 
L 115 2579 
z
" id="URWPalladioL-Roma-6d" transform="scale(0.015625)"/>
      <path d="M 2797 447 
L 2714 511 
C 2304 268 2157 211 1882 211 
C 1466 211 1120 396 941 710 
C 819 921 774 1100 762 1472 
L 1696 1472 
C 2138 1472 2413 1491 2854 1561 
C 2861 1651 2867 1708 2867 1786 
C 2867 2526 2394 3008 1677 3008 
C 1440 3008 1165 2924 902 2771 
C 378 2468 166 2069 166 1401 
C 166 998 262 652 435 409 
C 691 70 1120 -128 1600 -128 
C 1837 -128 2074 -77 2336 38 
C 2509 108 2643 192 2669 230 
L 2797 447 
z
M 2298 1708 
C 1965 1696 1811 1689 1581 1689 
C 1286 1689 1120 1696 774 1728 
C 774 2030 800 2172 883 2339 
C 1018 2623 1293 2796 1600 2796 
C 1811 2796 1978 2713 2093 2539 
C 2234 2326 2278 2140 2298 1708 
z
" id="URWPalladioL-Roma-65" transform="scale(0.015625)"/>
      <path d="M 2074 544 
L 2042 0 
C 2458 0 2458 0 2541 0 
C 2573 19 2733 12 3014 0 
L 3014 192 
L 2765 204 
C 2611 211 2586 262 2586 576 
L 2586 1751 
C 2586 2688 2317 3027 1574 3027 
C 1299 3027 1043 2956 800 2809 
L 461 2604 
L 461 2187 
L 627 2142 
L 710 2341 
C 845 2642 909 2688 1203 2688 
C 1805 2688 2054 2450 2074 1866 
L 1440 1751 
C 570 1590 205 1289 205 730 
C 205 224 506 -64 1011 -64 
C 1126 -64 1235 -45 1280 -13 
L 2074 544 
z
M 2074 806 
C 1888 544 1485 300 1235 300 
C 979 300 755 537 755 812 
C 755 1049 883 1273 1075 1395 
C 1235 1491 1587 1580 2074 1651 
L 2074 806 
z
" id="URWPalladioL-Roma-61" transform="scale(0.015625)"/>
      <path d="M 64 2566 
L 301 2566 
C 557 2566 582 2521 582 2100 
L 582 -1118 
C 582 -1523 563 -1568 346 -1581 
L 51 -1600 
L 51 -1792 
C 691 -1773 691 -1773 851 -1773 
C 1011 -1773 1011 -1773 1651 -1792 
L 1651 -1600 
L 1357 -1581 
C 1139 -1568 1120 -1523 1120 -1118 
L 1120 96 
C 1312 -20 1517 -64 1805 -64 
C 1990 -64 2157 -26 2259 38 
L 2989 511 
C 3245 677 3546 1334 3546 1743 
C 3546 2451 2957 3008 2214 3008 
C 1978 3008 1747 2943 1645 2847 
L 1120 2368 
L 1120 2982 
L 1062 3008 
C 736 2873 403 2783 64 2745 
L 64 2566 
z
M 1120 1966 
C 1120 2055 1152 2126 1235 2234 
C 1421 2470 1683 2591 2003 2591 
C 2605 2591 2989 2170 2989 1507 
C 2989 792 2560 262 1984 262 
C 1632 262 1370 377 1120 639 
L 1120 1966 
z
" id="URWPalladioL-Roma-70" transform="scale(0.015625)"/>
      <path d="M 147 2579 
L 384 2579 
C 640 2579 666 2534 666 2112 
L 666 672 
C 666 268 646 224 429 211 
L 134 192 
L 134 0 
C 595 -7 762 0 922 0 
C 1050 19 1050 19 1837 0 
L 1837 192 
L 1504 211 
C 1216 230 1203 249 1203 669 
L 1203 1763 
C 1203 2145 1459 2463 1773 2463 
C 1965 2463 2099 2374 2202 2171 
L 2336 2171 
L 2394 2937 
C 2323 2982 2208 3008 2093 3008 
C 1901 3008 1696 2905 1562 2745 
L 1203 2324 
L 1203 2982 
L 1146 3008 
C 819 2873 486 2783 147 2745 
L 147 2579 
z
" id="URWPalladioL-Roma-72" transform="scale(0.015625)"/>
      <path d="M 1203 2982 
L 1146 3008 
C 819 2873 486 2784 147 2746 
L 147 2568 
L 384 2568 
C 640 2568 666 2523 666 2103 
L 666 669 
C 666 268 646 223 429 211 
L 134 192 
L 134 0 
C 774 0 774 0 934 0 
C 1094 19 1094 19 1734 0 
L 1734 192 
L 1440 211 
C 1222 224 1203 268 1203 671 
L 1203 2982 
z
M 909 4416 
C 717 4416 550 4249 550 4057 
C 550 3871 717 3705 902 3705 
C 1088 3705 1261 3871 1261 4057 
C 1261 4236 1088 4416 909 4416 
z
" id="URWPalladioL-Roma-69" transform="scale(0.015625)"/>
      <path d="M 2637 2803 
C 2278 2956 2099 3008 1875 3008 
C 1702 3008 1549 2969 1389 2886 
L 826 2592 
C 461 2400 224 1934 224 1392 
C 224 881 397 460 710 204 
C 928 19 1229 -64 1645 -64 
C 1773 -64 1920 -39 1952 -13 
L 2662 581 
L 2630 0 
C 2944 -7 3046 0 3123 0 
C 3174 0 3264 0 3398 -7 
C 3443 6 3571 6 3706 0 
L 3706 192 
L 3411 211 
C 3194 224 3174 268 3174 672 
L 3174 4614 
L 3117 4665 
C 2835 4557 2624 4505 2118 4429 
L 2118 4249 
L 2477 4249 
C 2592 4249 2637 4179 2637 3987 
L 2637 2803 
z
M 2637 1424 
C 2637 1009 2624 945 2541 798 
C 2362 498 2048 300 1747 300 
C 1184 300 781 843 781 1602 
C 781 2298 1126 2707 1702 2707 
C 1946 2707 2202 2624 2426 2470 
C 2560 2381 2637 2298 2637 2247 
L 2637 1424 
z
" id="URWPalladioL-Roma-64" transform="scale(0.015625)"/>
      <path d="M 2554 1995 
C 2554 2290 2586 2553 2643 2783 
C 2387 2937 2163 3008 1901 3008 
C 1594 3008 1235 2886 851 2643 
C 403 2360 166 1911 166 1347 
C 166 480 774 -128 1632 -128 
C 1965 -128 2445 -7 2509 89 
L 2643 294 
L 2579 390 
C 2342 262 2138 204 1907 204 
C 1197 204 730 756 730 1603 
C 730 2290 1050 2675 1626 2675 
C 1907 2675 2214 2547 2330 2386 
L 2374 1995 
L 2554 1995 
z
" id="URWPalladioL-Roma-63" transform="scale(0.015625)"/>
      <path d="M 262 917 
C 262 474 243 282 192 25 
C 525 -84 774 -128 1069 -128 
C 1907 -128 2502 320 2502 949 
C 2502 1148 2445 1295 2323 1423 
C 2157 1584 1946 1661 1382 1770 
C 858 1872 685 2001 685 2296 
C 685 2617 909 2796 1299 2796 
C 1728 2796 2054 2572 2054 2270 
L 2054 2123 
L 2234 2123 
C 2240 2495 2246 2649 2266 2847 
C 1926 2963 1696 3008 1434 3008 
C 691 3008 237 2655 237 2078 
C 237 1770 378 1552 672 1417 
C 845 1340 1184 1237 1619 1141 
C 1907 1077 2029 942 2029 698 
C 2029 352 1709 108 1254 108 
C 787 108 454 333 454 654 
L 454 917 
L 262 917 
z
" id="URWPalladioL-Roma-73" transform="scale(0.015625)"/>
      <path d="M 3322 2452 
L 3482 2713 
L 3456 2790 
L 2547 2764 
C 2310 2956 2080 3033 1766 3033 
C 1485 3033 1158 2944 896 2790 
C 538 2586 352 2274 352 1885 
C 352 1413 646 1087 1120 1036 
L 614 638 
C 550 540 518 455 518 358 
C 518 179 634 76 941 -13 
L 384 -315 
C 294 -367 205 -604 205 -804 
C 205 -1388 774 -1792 1587 -1792 
C 2554 -1792 3315 -1183 3315 -399 
C 3315 64 3008 384 2560 384 
L 1536 384 
C 1203 384 1050 462 1050 638 
C 1050 723 1101 795 1267 939 
C 1306 972 1318 985 1344 1011 
C 1408 1004 1446 998 1498 998 
C 1773 998 2112 1119 2374 1305 
C 2662 1515 2803 1770 2803 2108 
C 2803 2235 2784 2318 2733 2452 
L 3322 2452 
z
M 1536 2816 
C 1971 2816 2266 2458 2266 1917 
C 2266 1502 1997 1216 1606 1216 
C 1178 1216 890 1547 890 2038 
C 890 2529 1126 2816 1536 2816 
z
M 1837 -64 
C 2560 -64 2810 -212 2810 -630 
C 2810 -1183 2304 -1594 1632 -1594 
C 1075 -1594 691 -1266 691 -791 
C 691 -502 858 -238 1114 -129 
C 1216 -77 1395 -64 1837 -64 
z
" id="URWPalladioL-Roma-67" transform="scale(0.015625)"/>
      <path d="M 2624 0 
C 3014 0 3021 0 3130 0 
C 3219 19 3219 19 3661 0 
L 3661 192 
L 3398 211 
C 3181 223 3162 262 3162 670 
L 3162 1902 
C 3162 2649 2810 3014 2093 3014 
C 1856 3014 1722 2969 1587 2854 
L 1101 2432 
L 1101 2988 
L 1043 3008 
C 717 2873 384 2784 45 2746 
L 45 2568 
L 282 2568 
C 538 2568 563 2523 563 2103 
L 563 669 
C 563 268 544 223 326 211 
L 38 192 
L 38 0 
C 474 -7 646 0 832 0 
C 1018 19 1190 12 1626 0 
L 1626 192 
L 1338 211 
C 1120 223 1101 268 1101 670 
L 1101 2023 
C 1101 2311 1523 2624 1914 2624 
C 2342 2624 2624 2304 2624 1813 
L 2624 0 
z
" id="URWPalladioL-Roma-6e" transform="scale(0.015625)"/>
      <path d="M 147 4249 
L 506 4249 
C 621 4249 666 4179 666 3987 
L 666 672 
C 666 268 646 224 429 211 
L 134 192 
L 134 0 
C 774 0 774 0 934 0 
C 1094 19 1094 19 1734 0 
L 1734 192 
L 1440 211 
C 1222 224 1203 268 1203 672 
L 1203 4614 
L 1146 4665 
C 864 4557 653 4505 147 4429 
L 147 4249 
z
" id="URWPalladioL-Roma-6c" transform="scale(0.015625)"/>
     </defs>
     <use transform="scale(0.996264)" xlink:href="#URWPalladioL-Roma-53"/>
     <use transform="translate(52.303815 0)scale(0.996264)" xlink:href="#URWPalladioL-Roma-6f"/>
     <use transform="translate(106.699395 0)scale(0.996264)" xlink:href="#URWPalladioL-Roma-6d"/>
     <use transform="translate(194.669069 0)scale(0.996264)" xlink:href="#URWPalladioL-Roma-65"/>
     <use transform="translate(267.295965 0)scale(0.996264)" xlink:href="#URWPalladioL-Roma-61"/>
     <use transform="translate(317.109165 0)scale(0.996264)" xlink:href="#URWPalladioL-Roma-70"/>
     <use transform="translate(376.983559 0)scale(0.996264)" xlink:href="#URWPalladioL-Roma-65"/>
     <use transform="translate(424.703854 0)scale(0.996264)" xlink:href="#URWPalladioL-Roma-72"/>
     <use transform="translate(464.05575 0)scale(0.996264)" xlink:href="#URWPalladioL-Roma-69"/>
     <use transform="translate(493.046112 0)scale(0.996264)" xlink:href="#URWPalladioL-Roma-6f"/>
     <use transform="translate(547.441692 0)scale(0.996264)" xlink:href="#URWPalladioL-Roma-64"/>
     <use transform="translate(608.313323 0)scale(0.996264)" xlink:href="#URWPalladioL-Roma-69"/>
     <use transform="translate(637.303684 0)scale(0.996264)" xlink:href="#URWPalladioL-Roma-63"/>
     <use transform="translate(706.443853 0)scale(0.996264)" xlink:href="#URWPalladioL-Roma-73"/>
     <use transform="translate(748.685319 0)scale(0.996264)" xlink:href="#URWPalladioL-Roma-69"/>
     <use transform="translate(777.675681 0)scale(0.996264)" xlink:href="#URWPalladioL-Roma-67"/>
     <use transform="translate(833.067358 0)scale(0.996264)" xlink:href="#URWPalladioL-Roma-6e"/>
     <use transform="translate(891.049419 0)scale(0.996264)" xlink:href="#URWPalladioL-Roma-61"/>
     <use transform="translate(940.862619 0)scale(0.996264)" xlink:href="#URWPalladioL-Roma-6c"/>
     <use transform="translate(969.852981 0)scale(0.996264)" xlink:href="#URWPalladioL-Roma-73"/>
    </g>
   </g>
   <g id="legend_1">
    <g id="patch_3">
     <path d="M 50.945691 55.292231 
L 170.480182 55.292231 
Q 173.280182 55.292231 173.280182 52.492231 
L 173.280182 32.979529 
Q 173.280182 30.179529 170.480182 30.179529 
L 50.945691 30.179529 
Q 48.145691 30.179529 48.145691 32.979529 
L 48.145691 52.492231 
Q 48.145691 55.292231 50.945691 55.292231 
z
" style="fill:#ffffff;opacity:0.95;stroke:#cccccc;stroke-linejoin:miter;stroke-width:0.5;"/>
    </g>
    <g id="line2d_22">
     <path d="M 53.745691 40.859059 
L 67.745691 40.859059 
" style="fill:none;stroke:#0271ae;stroke-linejoin:miter;stroke-width:3;"/>
    </g>
    <g id="line2d_23"/>
    <g id="text_5">
     <!-- Random noise -->
     <g transform="translate(78.945691 45.759059)scale(0.14 -0.14)">
      <defs>
       <path d="M 1382 4096 
C 1600 4147 1792 4172 2010 4172 
C 2675 4172 3046 3867 3046 3328 
C 3046 2744 2579 2375 1837 2375 
C 1792 2375 1734 2375 1651 2382 
L 1613 2306 
C 1683 2223 1702 2198 1779 2115 
C 1869 2014 1888 1988 1946 1912 
L 3123 344 
C 3162 293 3200 242 3238 198 
C 3283 140 3322 83 3386 0 
C 3686 0 3750 0 3821 0 
C 3878 19 3878 19 4282 0 
L 4282 192 
C 4077 211 3974 249 3891 357 
L 2438 2236 
C 2797 2325 2963 2394 3174 2541 
C 3507 2775 3686 3093 3686 3461 
C 3686 4071 3238 4416 2445 4416 
L 2342 4416 
C 1510 4396 1510 4396 1293 4396 
C 1082 4396 1082 4396 186 4416 
L 186 4223 
L 448 4204 
C 742 4185 774 4128 774 3633 
L 774 782 
C 774 280 742 230 448 211 
L 141 192 
L 141 0 
C 518 -7 742 0 1075 0 
C 1408 19 1638 12 2016 0 
L 2016 192 
L 1709 211 
C 1414 230 1382 281 1382 787 
L 1382 4096 
z
" id="URWPalladioL-Roma-52" transform="scale(0.015625)"/>
      </defs>
      <use transform="scale(0.996264)" xlink:href="#URWPalladioL-Roma-52"/>
      <use transform="translate(66.549694 0)scale(0.996264)" xlink:href="#URWPalladioL-Roma-61"/>
      <use transform="translate(116.362895 0)scale(0.996264)" xlink:href="#URWPalladioL-Roma-6e"/>
      <use transform="translate(174.344955 0)scale(0.996264)" xlink:href="#URWPalladioL-Roma-64"/>
      <use transform="translate(235.216586 0)scale(0.996264)" xlink:href="#URWPalladioL-Roma-6f"/>
      <use transform="translate(289.612166 0)scale(0.996264)" xlink:href="#URWPalladioL-Roma-6d"/>
      <use transform="translate(402.488441 0)scale(0.996264)" xlink:href="#URWPalladioL-Roma-6e"/>
      <use transform="translate(460.470501 0)scale(0.996264)" xlink:href="#URWPalladioL-Roma-6f"/>
      <use transform="translate(514.866081 0)scale(0.996264)" xlink:href="#URWPalladioL-Roma-69"/>
      <use transform="translate(543.856443 0)scale(0.996264)" xlink:href="#URWPalladioL-Roma-73"/>
      <use transform="translate(586.097909 0)scale(0.996264)" xlink:href="#URWPalladioL-Roma-65"/>
     </g>
    </g>
   </g>
  </g>
  <g id="axes_2">
   <g id="patch_4">
    <path d="M 41.145691 231.066736 
L 577.19952 231.066736 
L 577.19952 132.741909 
L 41.145691 132.741909 
z
" style="fill:none;"/>
   </g>
   <g id="matplotlib.axis_3">
    <g id="xtick_8">
     <g id="line2d_24">
      <path clip-path="url(#pb3ef62e2cf)" d="M 41.145691 231.066736 
L 41.145691 132.741909 
" style="fill:none;stroke:#000000;stroke-linejoin:miter;stroke-opacity:0.2;stroke-width:0.5;"/>
     </g>
     <g id="line2d_25">
      <g>
       <use style="fill-opacity:0.2;stroke:#000000;stroke-opacity:0.2;stroke-width:0.8;" x="41.145691" xlink:href="#m8e4c3c6c2e" y="231.066736"/>
      </g>
     </g>
    </g>
    <g id="xtick_9">
     <g id="line2d_26">
      <path clip-path="url(#pb3ef62e2cf)" d="M 126.914303 231.066736 
L 126.914303 132.741909 
" style="fill:none;stroke:#000000;stroke-linejoin:miter;stroke-opacity:0.2;stroke-width:0.5;"/>
     </g>
     <g id="line2d_27">
      <g>
       <use style="fill-opacity:0.2;stroke:#000000;stroke-opacity:0.2;stroke-width:0.8;" x="126.914303" xlink:href="#m8e4c3c6c2e" y="231.066736"/>
      </g>
     </g>
    </g>
    <g id="xtick_10">
     <g id="line2d_28">
      <path clip-path="url(#pb3ef62e2cf)" d="M 212.682916 231.066736 
L 212.682916 132.741909 
" style="fill:none;stroke:#000000;stroke-linejoin:miter;stroke-opacity:0.2;stroke-width:0.5;"/>
     </g>
     <g id="line2d_29">
      <g>
       <use style="fill-opacity:0.2;stroke:#000000;stroke-opacity:0.2;stroke-width:0.8;" x="212.682916" xlink:href="#m8e4c3c6c2e" y="231.066736"/>
      </g>
     </g>
    </g>
    <g id="xtick_11">
     <g id="line2d_30">
      <path clip-path="url(#pb3ef62e2cf)" d="M 298.451529 231.066736 
L 298.451529 132.741909 
" style="fill:none;stroke:#000000;stroke-linejoin:miter;stroke-opacity:0.2;stroke-width:0.5;"/>
     </g>
     <g id="line2d_31">
      <g>
       <use style="fill-opacity:0.2;stroke:#000000;stroke-opacity:0.2;stroke-width:0.8;" x="298.451529" xlink:href="#m8e4c3c6c2e" y="231.066736"/>
      </g>
     </g>
    </g>
    <g id="xtick_12">
     <g id="line2d_32">
      <path clip-path="url(#pb3ef62e2cf)" d="M 384.220141 231.066736 
L 384.220141 132.741909 
" style="fill:none;stroke:#000000;stroke-linejoin:miter;stroke-opacity:0.2;stroke-width:0.5;"/>
     </g>
     <g id="line2d_33">
      <g>
       <use style="fill-opacity:0.2;stroke:#000000;stroke-opacity:0.2;stroke-width:0.8;" x="384.220141" xlink:href="#m8e4c3c6c2e" y="231.066736"/>
      </g>
     </g>
    </g>
    <g id="xtick_13">
     <g id="line2d_34">
      <path clip-path="url(#pb3ef62e2cf)" d="M 469.988754 231.066736 
L 469.988754 132.741909 
" style="fill:none;stroke:#000000;stroke-linejoin:miter;stroke-opacity:0.2;stroke-width:0.5;"/>
     </g>
     <g id="line2d_35">
      <g>
       <use style="fill-opacity:0.2;stroke:#000000;stroke-opacity:0.2;stroke-width:0.8;" x="469.988754" xlink:href="#m8e4c3c6c2e" y="231.066736"/>
      </g>
     </g>
    </g>
    <g id="xtick_14">
     <g id="line2d_36">
      <path clip-path="url(#pb3ef62e2cf)" d="M 555.757367 231.066736 
L 555.757367 132.741909 
" style="fill:none;stroke:#000000;stroke-linejoin:miter;stroke-opacity:0.2;stroke-width:0.5;"/>
     </g>
     <g id="line2d_37">
      <g>
       <use style="fill-opacity:0.2;stroke:#000000;stroke-opacity:0.2;stroke-width:0.8;" x="555.757367" xlink:href="#m8e4c3c6c2e" y="231.066736"/>
      </g>
     </g>
    </g>
   </g>
   <g id="matplotlib.axis_4">
    <g id="ytick_4">
     <g id="line2d_38">
      <path clip-path="url(#pb3ef62e2cf)" d="M 41.145691 226.597425 
L 577.19952 226.597425 
" style="fill:none;stroke:#000000;stroke-linejoin:miter;stroke-opacity:0.2;stroke-width:0.5;"/>
     </g>
     <g id="line2d_39">
      <g>
       <use style="fill-opacity:0.2;stroke:#000000;stroke-opacity:0.2;stroke-width:0.8;" x="41.145691" xlink:href="#mf4fc4eac4c" y="226.597425"/>
      </g>
     </g>
     <g id="text_6">
      <!-- $\mathdefault{0.0}$ -->
      <g transform="translate(8.211071 231.58719)scale(0.14 -0.14)">
       <defs>
        <path d="M 794 678 
C 602 678 429 499 429 307 
C 429 115 602 -64 787 -64 
C 992 -64 1171 108 1171 307 
C 1171 499 992 678 794 678 
z
" id="URWPalladioL-Roma-2e" transform="scale(0.015625)"/>
       </defs>
       <use transform="scale(0.996264)" xlink:href="#URWPalladioL-Roma-30"/>
       <use transform="translate(49.8132 0)scale(0.996264)" xlink:href="#URWPalladioL-Roma-2e"/>
       <use transform="translate(74.719801 0)scale(0.996264)" xlink:href="#URWPalladioL-Roma-30"/>
      </g>
     </g>
    </g>
    <g id="ytick_5">
     <g id="line2d_40">
      <path clip-path="url(#pb3ef62e2cf)" d="M 41.145691 190.785644 
L 577.19952 190.785644 
" style="fill:none;stroke:#000000;stroke-linejoin:miter;stroke-opacity:0.2;stroke-width:0.5;"/>
     </g>
     <g id="line2d_41">
      <g>
       <use style="fill-opacity:0.2;stroke:#000000;stroke-opacity:0.2;stroke-width:0.8;" x="41.145691" xlink:href="#mf4fc4eac4c" y="190.785644"/>
      </g>
     </g>
     <g id="text_7">
      <!-- $\mathdefault{0.5}$ -->
      <g transform="translate(8.211071 195.775409)scale(0.14 -0.14)">
       <defs>
        <path d="M 813 3891 
C 1638 3865 1997 3859 2765 3859 
L 2797 3891 
C 2784 4006 2784 4057 2784 4140 
C 2784 4230 2784 4281 2797 4396 
L 2765 4428 
C 2285 4403 1997 4396 1651 4396 
C 1299 4396 1018 4403 538 4428 
L 506 4396 
C 512 4006 518 3724 518 3520 
C 518 2976 499 2360 480 2076 
L 608 2038 
C 909 2341 1082 2432 1395 2432 
C 2010 2432 2394 1992 2394 1295 
C 2394 579 1984 160 1286 160 
C 941 160 621 276 531 443 
L 237 973 
L 83 882 
C 230 514 307 308 397 25 
C 576 -71 832 -128 1107 -128 
C 1536 -128 1990 57 2342 366 
C 2733 715 2938 1153 2938 1631 
C 2938 2360 2419 2873 1690 2873 
C 1382 2873 1152 2790 755 2553 
L 813 3891 
z
" id="URWPalladioL-Roma-35" transform="scale(0.015625)"/>
       </defs>
       <use transform="scale(0.996264)" xlink:href="#URWPalladioL-Roma-30"/>
       <use transform="translate(49.8132 0)scale(0.996264)" xlink:href="#URWPalladioL-Roma-2e"/>
       <use transform="translate(74.719801 0)scale(0.996264)" xlink:href="#URWPalladioL-Roma-35"/>
      </g>
     </g>
    </g>
    <g id="ytick_6">
     <g id="line2d_42">
      <path clip-path="url(#pb3ef62e2cf)" d="M 41.145691 154.973863 
L 577.19952 154.973863 
" style="fill:none;stroke:#000000;stroke-linejoin:miter;stroke-opacity:0.2;stroke-width:0.5;"/>
     </g>
     <g id="line2d_43">
      <g>
       <use style="fill-opacity:0.2;stroke:#000000;stroke-opacity:0.2;stroke-width:0.8;" x="41.145691" xlink:href="#mf4fc4eac4c" y="154.973863"/>
      </g>
     </g>
     <g id="text_8">
      <!-- $\mathdefault{1.0}$ -->
      <g transform="translate(8.211071 159.963627)scale(0.14 -0.14)">
       <use transform="scale(0.996264)" xlink:href="#URWPalladioL-Roma-31"/>
       <use transform="translate(49.8132 0)scale(0.996264)" xlink:href="#URWPalladioL-Roma-2e"/>
       <use transform="translate(74.719801 0)scale(0.996264)" xlink:href="#URWPalladioL-Roma-30"/>
      </g>
     </g>
    </g>
   </g>
   <g id="line2d_44">
    <path clip-path="url(#pb3ef62e2cf)" d="M 41.145691 226.597425 
L 576.341834 137.211219 
L 576.341834 137.211219 
" style="fill:none;stroke:#0271ae;stroke-linejoin:miter;stroke-width:3;"/>
   </g>
   <g id="legend_2">
    <g id="patch_5">
     <path d="M 50.945691 165.47539 
L 130.207164 165.47539 
Q 133.007164 165.47539 133.007164 162.67539 
L 133.007164 142.541909 
Q 133.007164 139.741909 130.207164 139.741909 
L 50.945691 139.741909 
Q 48.145691 139.741909 48.145691 142.541909 
L 48.145691 162.67539 
Q 48.145691 165.47539 50.945691 165.47539 
z
" style="fill:#ffffff;opacity:0.95;stroke:#cccccc;stroke-linejoin:miter;stroke-width:0.5;"/>
    </g>
    <g id="line2d_45">
     <path d="M 53.745691 151.042218 
L 67.745691 151.042218 
" style="fill:none;stroke:#0271ae;stroke-linejoin:miter;stroke-width:3;"/>
    </g>
    <g id="line2d_46"/>
    <g id="text_9">
     <!-- $x(t)=t$ -->
     <g transform="translate(78.945691 155.942218)scale(0.14 -0.14)">
      <defs>
       <path d="M 134 567 
C 134 440 122 358 83 153 
C 70 76 64 57 58 12 
C 154 -39 256 -64 333 -64 
C 544 -64 794 121 992 421 
L 1478 1164 
L 1549 726 
C 1632 185 1779 -64 2010 -64 
C 2150 -64 2355 44 2560 230 
L 2874 510 
L 2816 631 
C 2586 440 2426 345 2323 345 
C 2227 345 2144 409 2080 536 
C 2022 656 1952 891 1920 1075 
L 1805 1716 
L 2029 2027 
C 2330 2439 2502 2585 2701 2585 
C 2803 2585 2880 2534 2912 2439 
L 3002 2465 
L 3098 3007 
C 3021 3052 2963 3072 2906 3072 
C 2650 3072 2394 2841 1997 2255 
L 1760 1906 
L 1722 2211 
C 1645 2841 1472 3072 1094 3072 
C 928 3072 787 3020 730 2937 
L 358 2408 
L 467 2344 
C 659 2560 787 2649 909 2649 
C 1120 2649 1261 2389 1370 1767 
L 1440 1373 
L 1184 980 
C 909 555 691 352 512 352 
C 416 352 346 377 333 409 
L 262 586 
L 134 567 
z
" id="URWPalladioL-Ital-78" transform="scale(0.015625)"/>
       <path d="M 2118 -1536 
C 2118 -1517 2118 -1504 2010 -1396 
C 1210 -589 1005 620 1005 1600 
C 1005 2713 1248 3827 2035 4627 
C 2118 4704 2118 4716 2118 4736 
C 2118 4780 2093 4800 2054 4800 
C 1990 4800 1414 4365 1037 3552 
C 710 2848 634 2137 634 1600 
C 634 1100 704 326 1056 -397 
C 1440 -1184 1990 -1600 2054 -1600 
C 2093 -1600 2118 -1581 2118 -1536 
z
" id="CMR10-28" transform="scale(0.015625)"/>
       <path d="M 800 2489 
L 442 678 
C 435 633 429 620 410 544 
C 371 364 358 268 358 192 
C 358 32 429 -64 550 -64 
C 774 -64 998 64 1498 467 
L 1594 544 
L 1696 627 
L 1632 742 
L 1344 544 
C 1158 416 1030 352 960 352 
C 902 352 870 403 870 480 
C 870 646 960 1164 1146 2092 
L 1229 2489 
L 1914 2489 
L 1984 2809 
C 1741 2784 1523 2771 1280 2771 
C 1382 3373 1453 3686 1568 4032 
L 1498 4128 
C 1370 4051 1197 3974 998 3897 
L 838 2809 
C 557 2675 390 2604 275 2572 
L 262 2489 
L 800 2489 
z
" id="URWPalladioL-Ital-74" transform="scale(0.015625)"/>
       <path d="M 1850 1600 
C 1850 2099 1779 2873 1427 3597 
C 1043 4384 493 4800 429 4800 
C 390 4800 365 4774 365 4736 
C 365 4716 365 4704 486 4589 
C 1114 3955 1478 2937 1478 1600 
C 1478 505 1242 -621 448 -1428 
C 365 -1504 365 -1517 365 -1536 
C 365 -1575 390 -1600 429 -1600 
C 493 -1600 1069 -1165 1446 -352 
C 1773 352 1850 1062 1850 1600 
z
" id="CMR10-29" transform="scale(0.015625)"/>
       <path d="M 4397 2111 
C 4493 2111 4614 2111 4614 2239 
C 4614 2368 4493 2368 4403 2368 
L 570 2368 
C 480 2368 358 2368 358 2239 
C 358 2111 480 2111 576 2111 
L 4397 2111 
z
M 4403 832 
C 4493 832 4614 832 4614 960 
C 4614 1088 4493 1088 4397 1088 
L 576 1088 
C 480 1088 358 1088 358 960 
C 358 832 480 832 570 832 
L 4403 832 
z
" id="CMR10-3d" transform="scale(0.015625)"/>
      </defs>
      <use transform="scale(0.996264)" xlink:href="#URWPalladioL-Ital-78"/>
      <use transform="translate(53.299136 0)scale(1.038107)" xlink:href="#CMR10-28"/>
      <use transform="translate(96.038841 0)scale(0.996264)" xlink:href="#URWPalladioL-Ital-74"/>
      <use transform="translate(131.704123 0)scale(1.038107)" xlink:href="#CMR10-29"/>
      <use transform="translate(202.11776 0)scale(1.038107)" xlink:href="#CMR10-3d"/>
      <use transform="translate(312.978689 0)scale(0.996264)" xlink:href="#URWPalladioL-Ital-74"/>
     </g>
    </g>
   </g>
  </g>
  <g id="axes_3">
   <g id="patch_6">
    <path d="M 41.145691 339.861659 
L 577.19952 339.861659 
L 577.19952 241.536831 
L 41.145691 241.536831 
z
" style="fill:none;"/>
   </g>
   <g id="matplotlib.axis_5">
    <g id="xtick_15">
     <g id="line2d_47">
      <path clip-path="url(#pb239f15a0e)" d="M 41.145691 339.861659 
L 41.145691 241.536831 
" style="fill:none;stroke:#000000;stroke-linejoin:miter;stroke-opacity:0.2;stroke-width:0.5;"/>
     </g>
     <g id="line2d_48">
      <g>
       <use style="fill-opacity:0.2;stroke:#000000;stroke-opacity:0.2;stroke-width:0.8;" x="41.145691" xlink:href="#m8e4c3c6c2e" y="339.861659"/>
      </g>
     </g>
     <g id="text_10">
      <!-- $\mathdefault{0.0}$ -->
      <g transform="translate(32.428381 365.341188)scale(0.14 -0.14)">
       <use transform="scale(0.996264)" xlink:href="#URWPalladioL-Roma-30"/>
       <use transform="translate(49.8132 0)scale(0.996264)" xlink:href="#URWPalladioL-Roma-2e"/>
       <use transform="translate(74.719801 0)scale(0.996264)" xlink:href="#URWPalladioL-Roma-30"/>
      </g>
     </g>
    </g>
    <g id="xtick_16">
     <g id="line2d_49">
      <path clip-path="url(#pb239f15a0e)" d="M 126.914303 339.861659 
L 126.914303 241.536831 
" style="fill:none;stroke:#000000;stroke-linejoin:miter;stroke-opacity:0.2;stroke-width:0.5;"/>
     </g>
     <g id="line2d_50">
      <g>
       <use style="fill-opacity:0.2;stroke:#000000;stroke-opacity:0.2;stroke-width:0.8;" x="126.914303" xlink:href="#m8e4c3c6c2e" y="339.861659"/>
      </g>
     </g>
     <g id="text_11">
      <!-- $\mathdefault{0.2}$ -->
      <g transform="translate(118.196993 365.341188)scale(0.14 -0.14)">
       <defs>
        <path d="M 102 166 
L 102 0 
C 1299 0 1299 0 1530 0 
C 1760 19 1760 19 2995 0 
C 2982 134 2982 198 2982 287 
C 2982 370 2982 434 2995 574 
C 2259 542 1965 536 781 510 
L 1946 1741 
C 2566 2398 2758 2749 2758 3228 
C 2758 3961 2259 4416 1446 4416 
C 986 4416 672 4287 358 3967 
L 250 3100 
L 435 3100 
L 518 3394 
C 621 3763 851 3923 1280 3923 
C 1830 3923 2182 3578 2182 3036 
C 2182 2558 1914 2086 1190 1320 
L 102 166 
z
" id="URWPalladioL-Roma-32" transform="scale(0.015625)"/>
       </defs>
       <use transform="scale(0.996264)" xlink:href="#URWPalladioL-Roma-30"/>
       <use transform="translate(49.8132 0)scale(0.996264)" xlink:href="#URWPalladioL-Roma-2e"/>
       <use transform="translate(74.719801 0)scale(0.996264)" xlink:href="#URWPalladioL-Roma-32"/>
      </g>
     </g>
    </g>
    <g id="xtick_17">
     <g id="line2d_51">
      <path clip-path="url(#pb239f15a0e)" d="M 212.682916 339.861659 
L 212.682916 241.536831 
" style="fill:none;stroke:#000000;stroke-linejoin:miter;stroke-opacity:0.2;stroke-width:0.5;"/>
     </g>
     <g id="line2d_52">
      <g>
       <use style="fill-opacity:0.2;stroke:#000000;stroke-opacity:0.2;stroke-width:0.8;" x="212.682916" xlink:href="#m8e4c3c6c2e" y="339.861659"/>
      </g>
     </g>
     <g id="text_12">
      <!-- $\mathdefault{0.4}$ -->
      <g transform="translate(203.965606 365.341188)scale(0.14 -0.14)">
       <defs>
        <path d="M 1792 1152 
L 1792 684 
C 1792 310 1722 223 1408 210 
L 1011 192 
L 1011 0 
C 1862 0 1862 0 2016 0 
C 2170 19 2170 19 3021 0 
L 3021 192 
L 2714 210 
C 2400 229 2330 310 2330 684 
L 2330 1152 
C 2707 1152 2842 1145 3021 1127 
L 3021 1580 
C 2720 1555 2598 1555 2502 1561 
L 2483 1561 
L 2330 1561 
L 2330 2445 
C 2330 3576 2342 4122 2374 4383 
L 2298 4416 
L 1824 4243 
L 13 1299 
L 83 1152 
L 1792 1152 
z
M 1792 1561 
L 416 1561 
L 1792 3798 
L 1792 1561 
z
" id="URWPalladioL-Roma-34" transform="scale(0.015625)"/>
       </defs>
       <use transform="scale(0.996264)" xlink:href="#URWPalladioL-Roma-30"/>
       <use transform="translate(49.8132 0)scale(0.996264)" xlink:href="#URWPalladioL-Roma-2e"/>
       <use transform="translate(74.719801 0)scale(0.996264)" xlink:href="#URWPalladioL-Roma-34"/>
      </g>
     </g>
    </g>
    <g id="xtick_18">
     <g id="line2d_53">
      <path clip-path="url(#pb239f15a0e)" d="M 298.451529 339.861659 
L 298.451529 241.536831 
" style="fill:none;stroke:#000000;stroke-linejoin:miter;stroke-opacity:0.2;stroke-width:0.5;"/>
     </g>
     <g id="line2d_54">
      <g>
       <use style="fill-opacity:0.2;stroke:#000000;stroke-opacity:0.2;stroke-width:0.8;" x="298.451529" xlink:href="#m8e4c3c6c2e" y="339.861659"/>
      </g>
     </g>
     <g id="text_13">
      <!-- $\mathdefault{0.6}$ -->
      <g transform="translate(289.734219 365.341188)scale(0.14 -0.14)">
       <defs>
        <path d="M 2662 4287 
L 2426 4396 
C 1811 4193 1549 4066 1222 3788 
C 563 3237 205 2463 205 1585 
C 205 526 717 -128 1542 -128 
C 2374 -128 2995 532 2995 1405 
C 2995 2143 2554 2624 1875 2624 
C 1555 2624 1363 2540 986 2239 
C 915 2182 909 2175 838 2124 
C 973 3275 1510 3895 2662 4237 
L 2662 4287 
z
M 1632 2239 
C 2118 2239 2445 1816 2445 1180 
C 2445 513 2118 83 1626 83 
C 1082 83 787 551 787 1411 
C 787 1636 813 1758 883 1867 
C 1024 2085 1325 2239 1632 2239 
z
" id="URWPalladioL-Roma-36" transform="scale(0.015625)"/>
       </defs>
       <use transform="scale(0.996264)" xlink:href="#URWPalladioL-Roma-30"/>
       <use transform="translate(49.8132 0)scale(0.996264)" xlink:href="#URWPalladioL-Roma-2e"/>
       <use transform="translate(74.719801 0)scale(0.996264)" xlink:href="#URWPalladioL-Roma-36"/>
      </g>
     </g>
    </g>
    <g id="xtick_19">
     <g id="line2d_55">
      <path clip-path="url(#pb239f15a0e)" d="M 384.220141 339.861659 
L 384.220141 241.536831 
" style="fill:none;stroke:#000000;stroke-linejoin:miter;stroke-opacity:0.2;stroke-width:0.5;"/>
     </g>
     <g id="line2d_56">
      <g>
       <use style="fill-opacity:0.2;stroke:#000000;stroke-opacity:0.2;stroke-width:0.8;" x="384.220141" xlink:href="#m8e4c3c6c2e" y="339.861659"/>
      </g>
     </g>
     <g id="text_14">
      <!-- $\mathdefault{0.8}$ -->
      <g transform="translate(375.502831 365.341188)scale(0.14 -0.14)">
       <defs>
        <path d="M 1075 2211 
C 813 2089 704 2019 563 1884 
C 320 1640 192 1352 192 1019 
C 192 358 723 -128 1446 -128 
C 2278 -128 2970 525 2970 1320 
C 2970 1833 2733 2108 2003 2442 
C 2586 2839 2790 3108 2790 3493 
C 2790 4044 2336 4416 1658 4416 
C 896 4416 339 3929 339 3256 
C 339 2820 512 2576 1075 2211 
z
M 1818 1890 
C 2221 1711 2464 1397 2464 1051 
C 2464 512 2061 89 1542 89 
C 998 89 646 474 646 1070 
C 646 1538 832 1833 1306 2121 
L 1818 1890 
z
M 1427 2711 
C 1024 2910 819 3166 819 3486 
C 819 3910 1126 4198 1581 4198 
C 2048 4198 2355 3890 2355 3422 
C 2355 3057 2195 2807 1779 2538 
L 1427 2711 
z
" id="URWPalladioL-Roma-38" transform="scale(0.015625)"/>
       </defs>
       <use transform="scale(0.996264)" xlink:href="#URWPalladioL-Roma-30"/>
       <use transform="translate(49.8132 0)scale(0.996264)" xlink:href="#URWPalladioL-Roma-2e"/>
       <use transform="translate(74.719801 0)scale(0.996264)" xlink:href="#URWPalladioL-Roma-38"/>
      </g>
     </g>
    </g>
    <g id="xtick_20">
     <g id="line2d_57">
      <path clip-path="url(#pb239f15a0e)" d="M 469.988754 339.861659 
L 469.988754 241.536831 
" style="fill:none;stroke:#000000;stroke-linejoin:miter;stroke-opacity:0.2;stroke-width:0.5;"/>
     </g>
     <g id="line2d_58">
      <g>
       <use style="fill-opacity:0.2;stroke:#000000;stroke-opacity:0.2;stroke-width:0.8;" x="469.988754" xlink:href="#m8e4c3c6c2e" y="339.861659"/>
      </g>
     </g>
     <g id="text_15">
      <!-- $\mathdefault{1.0}$ -->
      <g transform="translate(461.271444 365.341188)scale(0.14 -0.14)">
       <use transform="scale(0.996264)" xlink:href="#URWPalladioL-Roma-31"/>
       <use transform="translate(49.8132 0)scale(0.996264)" xlink:href="#URWPalladioL-Roma-2e"/>
       <use transform="translate(74.719801 0)scale(0.996264)" xlink:href="#URWPalladioL-Roma-30"/>
      </g>
     </g>
    </g>
    <g id="xtick_21">
     <g id="line2d_59">
      <path clip-path="url(#pb239f15a0e)" d="M 555.757367 339.861659 
L 555.757367 241.536831 
" style="fill:none;stroke:#000000;stroke-linejoin:miter;stroke-opacity:0.2;stroke-width:0.5;"/>
     </g>
     <g id="line2d_60">
      <g>
       <use style="fill-opacity:0.2;stroke:#000000;stroke-opacity:0.2;stroke-width:0.8;" x="555.757367" xlink:href="#m8e4c3c6c2e" y="339.861659"/>
      </g>
     </g>
     <g id="text_16">
      <!-- $\mathdefault{1.2}$ -->
      <g transform="translate(547.040057 365.341188)scale(0.14 -0.14)">
       <use transform="scale(0.996264)" xlink:href="#URWPalladioL-Roma-31"/>
       <use transform="translate(49.8132 0)scale(0.996264)" xlink:href="#URWPalladioL-Roma-2e"/>
       <use transform="translate(74.719801 0)scale(0.996264)" xlink:href="#URWPalladioL-Roma-32"/>
      </g>
     </g>
    </g>
    <g id="text_17">
     <!-- Time $t$ [seconds] -->
     <g transform="translate(265.865441 381.828236)scale(0.12 -0.12)">
      <defs>
       <path d="M 1632 4096 
C 1651 3880 1658 3734 1658 3462 
L 1658 781 
C 1658 280 1626 230 1331 211 
L 1024 192 
L 1024 0 
C 1402 -7 1626 0 1958 0 
C 2291 19 2522 12 2899 0 
L 2899 192 
L 2592 211 
C 2298 230 2266 280 2266 781 
L 2266 3462 
C 2266 3747 2272 3887 2291 4096 
L 3283 4096 
C 3462 4096 3533 4039 3539 3887 
L 3565 3386 
L 3763 3386 
C 3763 3801 3776 4051 3808 4416 
C 3347 4409 3136 4409 2957 4403 
C 2707 4390 2522 4390 2426 4390 
L 1414 4390 
C 1350 4390 1005 4396 550 4403 
L 115 4416 
C 147 4051 160 3801 160 3385 
L 358 3385 
L 384 3891 
C 390 4038 461 4096 640 4096 
L 1632 4096 
z
" id="URWPalladioL-Roma-54" transform="scale(0.015625)"/>
       <path d="M 563 -1178 
C 1018 -1166 1030 -1166 1184 -1166 
C 1338 -1166 1370 -1166 1805 -1178 
L 1843 -1140 
L 1843 -974 
L 1818 -942 
L 1574 -942 
C 1402 -942 1261 -903 1184 -839 
C 1126 -782 1107 -692 1107 -481 
C 1107 -474 1107 -340 1101 -148 
L 1101 89 
L 1101 3379 
L 1101 3615 
C 1107 3795 1107 3935 1107 3942 
C 1107 4153 1126 4249 1184 4307 
C 1261 4371 1402 4409 1574 4409 
L 1818 4409 
L 1843 4441 
L 1843 4608 
L 1805 4646 
C 1357 4633 1338 4633 1184 4633 
C 1037 4633 1005 4633 563 4646 
L 506 4563 
C 544 4403 557 4191 557 3699 
C 557 3603 557 3526 563 3462 
L 563 3379 
L 563 89 
L 563 6 
C 557 -97 557 -103 557 -212 
L 557 -282 
C 557 -718 544 -897 506 -1095 
L 563 -1178 
z
" id="URWPalladioL-Roma-5b" transform="scale(0.015625)"/>
       <path d="M 1568 4646 
C 1114 4633 1094 4633 947 4633 
C 794 4633 762 4633 326 4646 
L 288 4608 
L 288 4441 
L 314 4409 
L 557 4409 
C 730 4409 864 4371 941 4307 
C 1005 4249 1024 4159 1024 3942 
C 1024 3923 1024 3795 1030 3615 
L 1030 3379 
L 1030 89 
L 1030 -148 
C 1024 -334 1024 -449 1024 -468 
C 1024 -686 1005 -782 941 -839 
C 864 -903 730 -942 557 -942 
L 314 -942 
L 288 -974 
L 288 -1140 
L 326 -1178 
C 774 -1166 787 -1166 947 -1166 
C 1094 -1166 1126 -1166 1568 -1178 
L 1626 -1095 
C 1587 -942 1581 -743 1574 -250 
C 1574 -161 1574 -78 1568 6 
L 1568 89 
L 1568 3379 
L 1568 3462 
C 1574 3532 1574 3615 1574 3705 
C 1574 4198 1587 4409 1626 4563 
L 1568 4646 
z
" id="URWPalladioL-Roma-5d" transform="scale(0.015625)"/>
      </defs>
      <use transform="scale(0.996264)" xlink:href="#URWPalladioL-Roma-54"/>
      <use transform="translate(55.591109 0)scale(0.996264)" xlink:href="#URWPalladioL-Roma-69"/>
      <use transform="translate(84.581471 0)scale(0.996264)" xlink:href="#URWPalladioL-Roma-6d"/>
      <use transform="translate(172.551145 0)scale(0.996264)" xlink:href="#URWPalladioL-Roma-65"/>
      <use transform="translate(246.42334 0)scale(0.996264)" xlink:href="#URWPalladioL-Ital-74"/>
      <use transform="translate(305.749922 0)scale(0.996264)" xlink:href="#URWPalladioL-Roma-5b"/>
      <use transform="translate(338.925152 0)scale(0.996264)" xlink:href="#URWPalladioL-Roma-73"/>
      <use transform="translate(381.166618 0)scale(0.996264)" xlink:href="#URWPalladioL-Roma-65"/>
      <use transform="translate(428.886913 0)scale(0.996264)" xlink:href="#URWPalladioL-Roma-63"/>
      <use transform="translate(473.120482 0)scale(0.996264)" xlink:href="#URWPalladioL-Roma-6f"/>
      <use transform="translate(527.516062 0)scale(0.996264)" xlink:href="#URWPalladioL-Roma-6e"/>
      <use transform="translate(585.498123 0)scale(0.996264)" xlink:href="#URWPalladioL-Roma-64"/>
      <use transform="translate(646.369754 0)scale(0.996264)" xlink:href="#URWPalladioL-Roma-73"/>
      <use transform="translate(688.61122 0)scale(0.996264)" xlink:href="#URWPalladioL-Roma-5d"/>
     </g>
    </g>
   </g>
   <g id="matplotlib.axis_6">
    <g id="ytick_7">
     <g id="line2d_61">
      <path clip-path="url(#pb239f15a0e)" d="M 41.145691 335.392348 
L 577.19952 335.392348 
" style="fill:none;stroke:#000000;stroke-linejoin:miter;stroke-opacity:0.2;stroke-width:0.5;"/>
     </g>
     <g id="line2d_62">
      <g>
       <use style="fill-opacity:0.2;stroke:#000000;stroke-opacity:0.2;stroke-width:0.8;" x="41.145691" xlink:href="#mf4fc4eac4c" y="335.392348"/>
      </g>
     </g>
     <g id="text_18">
      <!-- $\mathdefault{0.0}$ -->
      <g transform="translate(8.211071 340.382113)scale(0.14 -0.14)">
       <use transform="scale(0.996264)" xlink:href="#URWPalladioL-Roma-30"/>
       <use transform="translate(49.8132 0)scale(0.996264)" xlink:href="#URWPalladioL-Roma-2e"/>
       <use transform="translate(74.719801 0)scale(0.996264)" xlink:href="#URWPalladioL-Roma-30"/>
      </g>
     </g>
    </g>
    <g id="ytick_8">
     <g id="line2d_63">
      <path clip-path="url(#pb239f15a0e)" d="M 41.145691 279.525969 
L 577.19952 279.525969 
" style="fill:none;stroke:#000000;stroke-linejoin:miter;stroke-opacity:0.2;stroke-width:0.5;"/>
     </g>
     <g id="line2d_64">
      <g>
       <use style="fill-opacity:0.2;stroke:#000000;stroke-opacity:0.2;stroke-width:0.8;" x="41.145691" xlink:href="#mf4fc4eac4c" y="279.525969"/>
      </g>
     </g>
     <g id="text_19">
      <!-- $\mathdefault{0.5}$ -->
      <g transform="translate(8.211071 284.515734)scale(0.14 -0.14)">
       <use transform="scale(0.996264)" xlink:href="#URWPalladioL-Roma-30"/>
       <use transform="translate(49.8132 0)scale(0.996264)" xlink:href="#URWPalladioL-Roma-2e"/>
       <use transform="translate(74.719801 0)scale(0.996264)" xlink:href="#URWPalladioL-Roma-35"/>
      </g>
     </g>
    </g>
   </g>
   <g id="line2d_65">
    <path clip-path="url(#pb239f15a0e)" d="M 41.145691 335.392348 
L 112.333639 335.392348 
L 113.191325 313.045797 
L 254.709536 313.045797 
L 255.567222 290.699245 
L 397.943119 290.699245 
L 398.800806 268.352693 
L 541.176703 268.352693 
L 542.034389 246.006142 
L 576.341834 246.006142 
L 576.341834 246.006142 
" style="fill:none;stroke:#0271ae;stroke-linejoin:miter;stroke-width:3;"/>
   </g>
   <g id="legend_3">
    <g id="patch_7">
     <path d="M 50.945691 273.649533 
L 135.666975 273.649533 
Q 138.466975 273.649533 138.466975 270.849533 
L 138.466975 251.336831 
Q 138.466975 248.536831 135.666975 248.536831 
L 50.945691 248.536831 
Q 48.145691 248.536831 48.145691 251.336831 
L 48.145691 270.849533 
Q 48.145691 273.649533 50.945691 273.649533 
z
" style="fill:#ffffff;opacity:0.95;stroke:#cccccc;stroke-linejoin:miter;stroke-width:0.5;"/>
    </g>
    <g id="line2d_66">
     <path d="M 53.745691 259.216361 
L 67.745691 259.216361 
" style="fill:none;stroke:#0271ae;stroke-linejoin:miter;stroke-width:3;"/>
    </g>
    <g id="line2d_67"/>
    <g id="text_20">
     <!-- Staircase -->
     <g transform="translate(78.945691 264.116361)scale(0.14 -0.14)">
      <defs>
       <path d="M 627 2457 
L 627 614 
C 627 140 838 -64 1331 -64 
C 1478 -64 1632 -32 1670 12 
L 1978 352 
L 1894 460 
C 1734 371 1638 339 1517 339 
C 1267 339 1165 467 1165 780 
L 1165 2457 
L 1984 2457 
L 2042 2803 
L 1165 2764 
L 1165 3008 
C 1165 3277 1184 3507 1235 3917 
L 1158 3987 
C 1005 3891 813 3808 614 3744 
C 634 3552 640 3430 640 3238 
L 640 2790 
L 141 2566 
L 141 2432 
L 627 2457 
z
" id="URWPalladioL-Roma-74" transform="scale(0.015625)"/>
      </defs>
      <use transform="scale(0.996264)" xlink:href="#URWPalladioL-Roma-53"/>
      <use transform="translate(52.303815 0)scale(0.996264)" xlink:href="#URWPalladioL-Roma-74"/>
      <use transform="translate(84.780903 0)scale(0.996264)" xlink:href="#URWPalladioL-Roma-61"/>
      <use transform="translate(134.594103 0)scale(0.996264)" xlink:href="#URWPalladioL-Roma-69"/>
      <use transform="translate(163.584465 0)scale(0.996264)" xlink:href="#URWPalladioL-Roma-72"/>
      <use transform="translate(201.143782 0)scale(0.996264)" xlink:href="#URWPalladioL-Roma-63"/>
      <use transform="translate(245.377351 0)scale(0.996264)" xlink:href="#URWPalladioL-Roma-61"/>
      <use transform="translate(295.190551 0)scale(0.996264)" xlink:href="#URWPalladioL-Roma-73"/>
      <use transform="translate(337.432018 0)scale(0.996264)" xlink:href="#URWPalladioL-Roma-65"/>
     </g>
    </g>
   </g>
  </g>
 </g>
 <defs>
  <clipPath id="pb1391d5291">
   <rect height="98.324827" width="536.053829" x="41.145691" y="23.179529"/>
  </clipPath>
  <clipPath id="pb3ef62e2cf">
   <rect height="98.324827" width="536.053829" x="41.145691" y="132.741909"/>
  </clipPath>
  <clipPath id="pb239f15a0e">
   <rect height="98.324827" width="536.053829" x="41.145691" y="241.536831"/>
  </clipPath>
 </defs>
</svg>
