<?xml version="1.0" encoding="utf-8" standalone="no"?>
<!DOCTYPE svg PUBLIC "-//W3C//DTD SVG 1.1//EN"
  "http://www.w3.org/Graphics/SVG/1.1/DTD/svg11.dtd">
<svg height="296.39952pt" version="1.1" viewBox="0 0 296.39952 296.39952" width="296.39952pt" xmlns="http://www.w3.org/2000/svg" xmlns:xlink="http://www.w3.org/1999/xlink">
 <metadata>
  <rdf:RDF xmlns:cc="http://creativecommons.org/ns#" xmlns:dc="http://purl.org/dc/elements/1.1/" xmlns:rdf="http://www.w3.org/1999/02/22-rdf-syntax-ns#">
   <cc:Work>
    <dc:type rdf:resource="http://purl.org/dc/dcmitype/StillImage"/>
    <dc:date>2021-08-14T16:12:30.849381</dc:date>
    <dc:format>image/svg+xml</dc:format>
    <dc:creator>
     <cc:Agent>
      <dc:title>Matplotlib v3.4.2, https://matplotlib.org/</dc:title>
     </cc:Agent>
    </dc:creator>
   </cc:Work>
  </rdf:RDF>
 </metadata>
 <defs>
  <style type="text/css">*{stroke-linecap:butt;stroke-linejoin:round;}</style>
 </defs>
 <g id="figure_1">
  <g id="patch_1">
   <path d="M 0 296.39952 
L 296.39952 296.39952 
L 296.39952 0 
L 0 0 
z
" style="fill:none;"/>
  </g>
  <g id="axes_1">
   <g id="patch_2">
    <path d="M 7.2 289.19952 
L 289.19952 289.19952 
L 289.19952 7.2 
L 7.2 7.2 
z
" style="fill:none;"/>
   </g>
   <g id="patch_3">
    <path clip-path="url(#pde920e12de)" d="M 7.2 289.19952 
L 7.2 148.19976 
L 289.19952 148.19976 
L 289.19952 289.19952 
z
" style="opacity:0.05;stroke:#000000;stroke-linejoin:miter;stroke-width:0.5;"/>
   </g>
   <g id="matplotlib.axis_1">
    <g id="xtick_1">
     <g id="line2d_1">
      <path clip-path="url(#pde920e12de)" d="M 7.2 289.19952 
L 7.2 7.2 
" style="fill:none;stroke:#000000;stroke-linejoin:miter;stroke-opacity:0.2;stroke-width:0.5;"/>
     </g>
     <g id="line2d_2">
      <defs>
       <path d="M 0 0 
L 0 3.5 
" id="mbd7721482b" style="stroke:#000000;stroke-opacity:0.2;stroke-width:0.8;"/>
      </defs>
      <g>
       <use style="fill-opacity:0.2;stroke:#000000;stroke-opacity:0.2;stroke-width:0.8;" x="7.2" xlink:href="#mbd7721482b" y="289.19952"/>
      </g>
     </g>
    </g>
    <g id="xtick_2">
     <g id="line2d_3">
      <path clip-path="url(#pde920e12de)" d="M 54.19992 289.19952 
L 54.19992 7.2 
" style="fill:none;stroke:#000000;stroke-linejoin:miter;stroke-opacity:0.2;stroke-width:0.5;"/>
     </g>
     <g id="line2d_4">
      <g>
       <use style="fill-opacity:0.2;stroke:#000000;stroke-opacity:0.2;stroke-width:0.8;" x="54.19992" xlink:href="#mbd7721482b" y="289.19952"/>
      </g>
     </g>
    </g>
    <g id="xtick_3">
     <g id="line2d_5">
      <path clip-path="url(#pde920e12de)" d="M 101.19984 289.19952 
L 101.19984 7.2 
" style="fill:none;stroke:#000000;stroke-linejoin:miter;stroke-opacity:0.2;stroke-width:0.5;"/>
     </g>
     <g id="line2d_6">
      <g>
       <use style="fill-opacity:0.2;stroke:#000000;stroke-opacity:0.2;stroke-width:0.8;" x="101.19984" xlink:href="#mbd7721482b" y="289.19952"/>
      </g>
     </g>
    </g>
    <g id="xtick_4">
     <g id="line2d_7">
      <path clip-path="url(#pde920e12de)" d="M 148.19976 289.19952 
L 148.19976 7.2 
" style="fill:none;stroke:#000000;stroke-linejoin:miter;stroke-opacity:0.2;stroke-width:0.5;"/>
     </g>
     <g id="line2d_8">
      <g>
       <use style="fill-opacity:0.2;stroke:#000000;stroke-opacity:0.2;stroke-width:0.8;" x="148.19976" xlink:href="#mbd7721482b" y="289.19952"/>
      </g>
     </g>
    </g>
    <g id="xtick_5">
     <g id="line2d_9">
      <path clip-path="url(#pde920e12de)" d="M 195.19968 289.19952 
L 195.19968 7.2 
" style="fill:none;stroke:#000000;stroke-linejoin:miter;stroke-opacity:0.2;stroke-width:0.5;"/>
     </g>
     <g id="line2d_10">
      <g>
       <use style="fill-opacity:0.2;stroke:#000000;stroke-opacity:0.2;stroke-width:0.8;" x="195.19968" xlink:href="#mbd7721482b" y="289.19952"/>
      </g>
     </g>
    </g>
    <g id="xtick_6">
     <g id="line2d_11">
      <path clip-path="url(#pde920e12de)" d="M 242.1996 289.19952 
L 242.1996 7.2 
" style="fill:none;stroke:#000000;stroke-linejoin:miter;stroke-opacity:0.2;stroke-width:0.5;"/>
     </g>
     <g id="line2d_12">
      <g>
       <use style="fill-opacity:0.2;stroke:#000000;stroke-opacity:0.2;stroke-width:0.8;" x="242.1996" xlink:href="#mbd7721482b" y="289.19952"/>
      </g>
     </g>
    </g>
    <g id="xtick_7">
     <g id="line2d_13">
      <path clip-path="url(#pde920e12de)" d="M 289.19952 289.19952 
L 289.19952 7.2 
" style="fill:none;stroke:#000000;stroke-linejoin:miter;stroke-opacity:0.2;stroke-width:0.5;"/>
     </g>
     <g id="line2d_14">
      <g>
       <use style="fill-opacity:0.2;stroke:#000000;stroke-opacity:0.2;stroke-width:0.8;" x="289.19952" xlink:href="#mbd7721482b" y="289.19952"/>
      </g>
     </g>
    </g>
   </g>
   <g id="matplotlib.axis_2">
    <g id="ytick_1">
     <g id="line2d_15">
      <path clip-path="url(#pde920e12de)" d="M 7.2 289.19952 
L 289.19952 289.19952 
" style="fill:none;stroke:#000000;stroke-linejoin:miter;stroke-opacity:0.2;stroke-width:0.5;"/>
     </g>
     <g id="line2d_16">
      <defs>
       <path d="M 0 0 
L -3.5 0 
" id="m0343fa1315" style="stroke:#000000;stroke-opacity:0.2;stroke-width:0.8;"/>
      </defs>
      <g>
       <use style="fill-opacity:0.2;stroke:#000000;stroke-opacity:0.2;stroke-width:0.8;" x="7.2" xlink:href="#m0343fa1315" y="289.19952"/>
      </g>
     </g>
    </g>
    <g id="ytick_2">
     <g id="line2d_17">
      <path clip-path="url(#pde920e12de)" d="M 7.2 242.1996 
L 289.19952 242.1996 
" style="fill:none;stroke:#000000;stroke-linejoin:miter;stroke-opacity:0.2;stroke-width:0.5;"/>
     </g>
     <g id="line2d_18">
      <g>
       <use style="fill-opacity:0.2;stroke:#000000;stroke-opacity:0.2;stroke-width:0.8;" x="7.2" xlink:href="#m0343fa1315" y="242.1996"/>
      </g>
     </g>
    </g>
    <g id="ytick_3">
     <g id="line2d_19">
      <path clip-path="url(#pde920e12de)" d="M 7.2 195.19968 
L 289.19952 195.19968 
" style="fill:none;stroke:#000000;stroke-linejoin:miter;stroke-opacity:0.2;stroke-width:0.5;"/>
     </g>
     <g id="line2d_20">
      <g>
       <use style="fill-opacity:0.2;stroke:#000000;stroke-opacity:0.2;stroke-width:0.8;" x="7.2" xlink:href="#m0343fa1315" y="195.19968"/>
      </g>
     </g>
    </g>
    <g id="ytick_4">
     <g id="line2d_21">
      <path clip-path="url(#pde920e12de)" d="M 7.2 148.19976 
L 289.19952 148.19976 
" style="fill:none;stroke:#000000;stroke-linejoin:miter;stroke-opacity:0.2;stroke-width:0.5;"/>
     </g>
     <g id="line2d_22">
      <g>
       <use style="fill-opacity:0.2;stroke:#000000;stroke-opacity:0.2;stroke-width:0.8;" x="7.2" xlink:href="#m0343fa1315" y="148.19976"/>
      </g>
     </g>
    </g>
    <g id="ytick_5">
     <g id="line2d_23">
      <path clip-path="url(#pde920e12de)" d="M 7.2 101.19984 
L 289.19952 101.19984 
" style="fill:none;stroke:#000000;stroke-linejoin:miter;stroke-opacity:0.2;stroke-width:0.5;"/>
     </g>
     <g id="line2d_24">
      <g>
       <use style="fill-opacity:0.2;stroke:#000000;stroke-opacity:0.2;stroke-width:0.8;" x="7.2" xlink:href="#m0343fa1315" y="101.19984"/>
      </g>
     </g>
    </g>
    <g id="ytick_6">
     <g id="line2d_25">
      <path clip-path="url(#pde920e12de)" d="M 7.2 54.19992 
L 289.19952 54.19992 
" style="fill:none;stroke:#000000;stroke-linejoin:miter;stroke-opacity:0.2;stroke-width:0.5;"/>
     </g>
     <g id="line2d_26">
      <g>
       <use style="fill-opacity:0.2;stroke:#000000;stroke-opacity:0.2;stroke-width:0.8;" x="7.2" xlink:href="#m0343fa1315" y="54.19992"/>
      </g>
     </g>
    </g>
    <g id="ytick_7">
     <g id="line2d_27">
      <path clip-path="url(#pde920e12de)" d="M 7.2 7.2 
L 289.19952 7.2 
" style="fill:none;stroke:#000000;stroke-linejoin:miter;stroke-opacity:0.2;stroke-width:0.5;"/>
     </g>
     <g id="line2d_28">
      <g>
       <use style="fill-opacity:0.2;stroke:#000000;stroke-opacity:0.2;stroke-width:0.8;" x="7.2" xlink:href="#m0343fa1315" y="7.2"/>
      </g>
     </g>
    </g>
   </g>
   <g id="patch_4">
    <path clip-path="url(#pde920e12de)" d="M 242.1996 148.19976 
C 242.1996 135.855814 239.768112 123.631898 235.044288 112.227579 
C 230.320465 100.82326 223.396172 90.460324 214.667684 81.731836 
C 205.939196 73.003348 195.57626 66.079055 184.171941 61.355232 
C 172.767622 56.631408 160.543706 54.19992 148.19976 54.19992 
C 135.855814 54.19992 123.631898 56.631408 112.227579 61.355232 
C 100.82326 66.079055 90.460324 73.003348 81.731836 81.731836 
C 73.003348 90.460324 66.079055 100.82326 61.355232 112.227579 
C 56.631408 123.631898 54.19992 135.855814 54.19992 148.19976 
C 54.19992 160.543706 56.631408 172.767622 61.355232 184.171941 
C 66.079055 195.57626 73.003348 205.939196 81.731836 214.667684 
C 90.460324 223.396172 100.82326 230.320465 112.227579 235.044288 
C 123.631898 239.768112 135.855814 242.1996 148.19976 242.1996 
C 160.543706 242.1996 172.767622 239.768112 184.171941 235.044288 
C 195.57626 230.320465 205.939196 223.396172 214.667684 214.667684 
C 223.396172 205.939196 230.320465 195.57626 235.044288 184.171941 
C 239.768112 172.767622 242.1996 160.543706 242.1996 148.19976 
M 148.19976 148.19976 
M 242.1996 148.19976 
z
" style="fill:none;stroke:#343837;stroke-linejoin:miter;stroke-width:3;"/>
   </g>
   <g id="patch_5">
    <path clip-path="url(#pde920e12de)" d="M 171.69972 148.19976 
C 171.69972 144.074963 170.613721 140.021959 168.551322 136.44978 
C 166.488924 132.877601 163.521919 129.910596 159.94974 127.848198 
C 156.377561 125.785799 152.324557 124.6998 148.19976 124.6998 
C 144.074963 124.6998 140.021959 125.785799 136.44978 127.848198 
L 148.19976 148.19976 
L 171.69972 148.19976 
z
" style="fill:#6e3b87;opacity:0.5;"/>
   </g>
   <g id="line2d_29">
    <path clip-path="url(#pde920e12de)" d="M 148.19976 148.19976 
L 101.19984 66.793511 
" style="fill:none;stroke:#6e3b87;stroke-linejoin:miter;stroke-width:3;"/>
   </g>
   <g id="patch_6">
    <path clip-path="url(#pde920e12de)" d="M 251.48982 146.200449 
Q 250.555566 51.016491 160.189218 45.269429 
L 159.878219 50.15955 
Q 155.30583 47.36181 150.199272 44.809697 
Q 155.348319 42.358205 160.512911 40.179712 
L 160.201912 45.069833 
Q 250.753732 50.82869 251.68981 146.198486 
L 251.48982 146.200449 
z
" style="fill:#0271ae;stroke:#0271ae;stroke-linecap:round;stroke-width:3;"/>
   </g>
   <g id="text_1">
    <!-- $\theta = 2\pi \cdot f / f_s$ -->
    <g style="fill:#6e3b87;" transform="translate(129.399792 106.666652)scale(0.14 -0.14)">
     <defs>
      <path d="M 2029 4544 
C 1754 4544 1472 4409 1178 4122 
C 608 3580 186 2616 186 1442 
C 186 427 390 -64 928 -64 
C 1267 -64 1664 172 1965 555 
C 2400 1110 2797 2163 2797 3127 
C 2797 4013 2554 4544 2029 4544 
z
M 1478 2112 
C 1914 2112 2093 2092 2202 2041 
C 2061 1397 1824 823 1619 491 
C 1491 294 1318 179 1126 179 
C 742 179 672 670 672 1429 
C 672 1627 685 1831 717 2035 
C 851 2092 1024 2112 1478 2112 
z
M 1869 4300 
C 2272 4300 2310 3777 2310 2986 
C 2310 2808 2298 2623 2272 2444 
C 2144 2399 1946 2380 1523 2380 
C 1088 2380 902 2399 787 2444 
C 954 3197 1248 3886 1478 4154 
C 1568 4249 1715 4300 1869 4300 
z
" id="PazoMath-Italic-71" transform="scale(0.015625)"/>
      <path d="M 4397 2111 
C 4493 2111 4614 2111 4614 2239 
C 4614 2368 4493 2368 4403 2368 
L 570 2368 
C 480 2368 358 2368 358 2239 
C 358 2111 480 2111 576 2111 
L 4397 2111 
z
M 4403 832 
C 4493 832 4614 832 4614 960 
C 4614 1088 4493 1088 4397 1088 
L 576 1088 
C 480 1088 358 1088 358 960 
C 358 832 480 832 570 832 
L 4403 832 
z
" id="CMR10-3d" transform="scale(0.015625)"/>
      <path d="M 102 166 
L 102 0 
C 1299 0 1299 0 1530 0 
C 1760 19 1760 19 2995 0 
C 2982 134 2982 198 2982 287 
C 2982 370 2982 434 2995 574 
C 2259 542 1965 536 781 510 
L 1946 1741 
C 2566 2398 2758 2749 2758 3228 
C 2758 3961 2259 4416 1446 4416 
C 986 4416 672 4287 358 3967 
L 250 3100 
L 435 3100 
L 518 3394 
C 621 3763 851 3923 1280 3923 
C 1830 3923 2182 3578 2182 3036 
C 2182 2558 1914 2086 1190 1320 
L 102 166 
z
" id="URWPalladioL-Roma-32" transform="scale(0.015625)"/>
      <path d="M 614 2255 
L 672 2299 
C 806 2681 1062 2700 1427 2700 
C 1504 2700 1619 2694 1754 2694 
C 1216 1242 973 803 454 -7 
L 512 -64 
L 986 102 
C 1216 599 1606 1567 1958 2688 
L 3149 2624 
C 3040 2232 2669 1089 2669 685 
C 2669 19 2912 -64 3110 -64 
C 3437 -64 3622 19 4026 356 
L 3974 476 
L 3821 369 
C 3840 382 3654 236 3546 236 
C 3245 236 3155 419 3155 811 
C 3155 969 3168 1139 3206 1323 
C 3315 1847 3424 2365 3482 2624 
C 3629 2624 3776 2630 3923 2649 
C 4038 2649 4179 2713 4282 2752 
C 4352 2905 4378 2918 4499 3072 
L 4454 3136 
C 4282 3075 3994 3008 3782 3008 
C 3706 3001 3546 2995 3386 2995 
C 2701 3020 1645 3072 1363 3072 
C 883 3072 710 2860 525 2306 
L 614 2255 
z
" id="PazoMath-Italic-70" transform="scale(0.015625)"/>
      <path d="M 1229 1619 
C 1229 1804 1075 1958 890 1958 
C 704 1958 550 1804 550 1619 
C 550 1433 704 1280 890 1280 
C 1075 1280 1229 1433 1229 1619 
z
" id="CMSY10-1" transform="scale(0.015625)"/>
      <path d="M 1830 2470 
C 1856 2591 1901 2739 1939 2828 
L 1914 2873 
L 1869 2860 
C 1715 2822 1645 2816 1331 2816 
L 1229 2816 
L 1363 3532 
C 1466 4083 1645 4326 1939 4326 
C 2131 4326 2304 4230 2400 4076 
L 2464 4102 
C 2496 4204 2560 4403 2611 4531 
L 2643 4627 
C 2541 4672 2342 4710 2195 4710 
C 2125 4710 2022 4691 1971 4665 
C 1818 4595 1293 4204 1146 4051 
C 1005 3910 928 3718 858 3353 
L 762 2848 
C 499 2719 371 2668 211 2611 
L 179 2470 
L 698 2470 
L 640 2112 
C 448 864 211 -327 70 -768 
C -45 -1146 -237 -1344 -467 -1344 
C -615 -1344 -685 -1300 -800 -1159 
L -890 -1184 
C -915 -1332 -1005 -1639 -1037 -1697 
C -979 -1729 -883 -1748 -813 -1748 
C -551 -1748 -205 -1549 45 -1248 
C 435 -788 576 -340 1043 1907 
C 1062 1984 1114 2227 1165 2470 
L 1830 2470 
z
" id="URWPalladioL-Ital-66" transform="scale(0.015625)"/>
      <path d="M 3322 4646 
L 2938 4646 
L 557 -762 
L 941 -762 
L 3322 4646 
z
" id="URWPalladioL-Roma-2f" transform="scale(0.015625)"/>
      <path d="M 198 948 
C 166 624 128 401 58 108 
C 301 -7 518 -64 742 -64 
C 1056 -64 1350 51 1677 306 
C 2003 560 2138 795 2138 1113 
C 2138 1456 1933 1640 1459 1729 
L 1184 1780 
C 800 1850 678 1958 678 2218 
C 678 2555 966 2815 1331 2815 
C 1594 2815 1837 2701 1939 2530 
L 1939 2180 
L 2086 2180 
C 2112 2403 2138 2574 2208 2899 
C 1958 3020 1779 3072 1568 3072 
C 1235 3072 845 2879 538 2574 
C 371 2403 301 2244 301 2015 
C 301 1659 499 1456 922 1373 
L 1325 1297 
C 1606 1246 1709 1132 1709 884 
C 1709 471 1414 192 960 192 
C 736 192 538 261 358 414 
L 358 948 
L 198 948 
z
" id="URWPalladioL-Ital-73" transform="scale(0.015625)"/>
     </defs>
     <use transform="scale(0.996264)" xlink:href="#PazoMath-Italic-71"/>
     <use transform="translate(77.387455 0)scale(1.038107)" xlink:href="#CMR10-3d"/>
     <use transform="translate(187.003084 0)scale(0.996264)" xlink:href="#URWPalladioL-Roma-32"/>
     <use transform="translate(238.061584 0)scale(0.996264)" xlink:href="#PazoMath-Italic-70"/>
     <use transform="translate(329.960266 0)scale(1.038107)" xlink:href="#CMSY10-1"/>
     <use transform="translate(393.566165 0)scale(0.996264)" xlink:href="#URWPalladioL-Ital-66"/>
     <use transform="translate(437.202486 0)scale(0.996264)" xlink:href="#URWPalladioL-Roma-2f"/>
     <use transform="translate(513.018138 0)scale(0.996264)" xlink:href="#URWPalladioL-Ital-66"/>
     <use transform="translate(545.396718 -14.943915)scale(0.757155)" xlink:href="#URWPalladioL-Ital-73"/>
    </g>
   </g>
   <g id="text_2">
    <!-- Increasing frequency -->
    <g style="fill:#0271ae;" transform="translate(136.893915 31.279505)scale(0.14 -0.14)">
     <defs>
      <path d="M 1382 3633 
C 1382 4135 1414 4185 1709 4204 
L 2016 4223 
L 2016 4416 
C 1549 4396 1408 4396 1075 4396 
C 755 4396 602 4403 141 4416 
L 141 4223 
L 448 4204 
C 742 4185 774 4135 774 3633 
L 774 782 
C 774 280 742 230 448 211 
L 141 192 
L 141 0 
C 518 -7 742 0 1075 0 
C 1408 19 1638 12 2016 0 
L 2016 192 
L 1709 211 
C 1414 230 1382 281 1382 787 
L 1382 3633 
z
" id="URWPalladioL-Roma-49" transform="scale(0.015625)"/>
      <path d="M 2624 0 
C 3014 0 3021 0 3130 0 
C 3219 19 3219 19 3661 0 
L 3661 192 
L 3398 211 
C 3181 223 3162 262 3162 670 
L 3162 1902 
C 3162 2649 2810 3014 2093 3014 
C 1856 3014 1722 2969 1587 2854 
L 1101 2432 
L 1101 2988 
L 1043 3008 
C 717 2873 384 2784 45 2746 
L 45 2568 
L 282 2568 
C 538 2568 563 2523 563 2103 
L 563 669 
C 563 268 544 223 326 211 
L 38 192 
L 38 0 
C 474 -7 646 0 832 0 
C 1018 19 1190 12 1626 0 
L 1626 192 
L 1338 211 
C 1120 223 1101 268 1101 670 
L 1101 2023 
C 1101 2311 1523 2624 1914 2624 
C 2342 2624 2624 2304 2624 1813 
L 2624 0 
z
" id="URWPalladioL-Roma-6e" transform="scale(0.015625)"/>
      <path d="M 2554 1995 
C 2554 2290 2586 2553 2643 2783 
C 2387 2937 2163 3008 1901 3008 
C 1594 3008 1235 2886 851 2643 
C 403 2360 166 1911 166 1347 
C 166 480 774 -128 1632 -128 
C 1965 -128 2445 -7 2509 89 
L 2643 294 
L 2579 390 
C 2342 262 2138 204 1907 204 
C 1197 204 730 756 730 1603 
C 730 2290 1050 2675 1626 2675 
C 1907 2675 2214 2547 2330 2386 
L 2374 1995 
L 2554 1995 
z
" id="URWPalladioL-Roma-63" transform="scale(0.015625)"/>
      <path d="M 147 2579 
L 384 2579 
C 640 2579 666 2534 666 2112 
L 666 672 
C 666 268 646 224 429 211 
L 134 192 
L 134 0 
C 595 -7 762 0 922 0 
C 1050 19 1050 19 1837 0 
L 1837 192 
L 1504 211 
C 1216 230 1203 249 1203 669 
L 1203 1763 
C 1203 2145 1459 2463 1773 2463 
C 1965 2463 2099 2374 2202 2171 
L 2336 2171 
L 2394 2937 
C 2323 2982 2208 3008 2093 3008 
C 1901 3008 1696 2905 1562 2745 
L 1203 2324 
L 1203 2982 
L 1146 3008 
C 819 2873 486 2783 147 2745 
L 147 2579 
z
" id="URWPalladioL-Roma-72" transform="scale(0.015625)"/>
      <path d="M 2797 447 
L 2714 511 
C 2304 268 2157 211 1882 211 
C 1466 211 1120 396 941 710 
C 819 921 774 1100 762 1472 
L 1696 1472 
C 2138 1472 2413 1491 2854 1561 
C 2861 1651 2867 1708 2867 1786 
C 2867 2526 2394 3008 1677 3008 
C 1440 3008 1165 2924 902 2771 
C 378 2468 166 2069 166 1401 
C 166 998 262 652 435 409 
C 691 70 1120 -128 1600 -128 
C 1837 -128 2074 -77 2336 38 
C 2509 108 2643 192 2669 230 
L 2797 447 
z
M 2298 1708 
C 1965 1696 1811 1689 1581 1689 
C 1286 1689 1120 1696 774 1728 
C 774 2030 800 2172 883 2339 
C 1018 2623 1293 2796 1600 2796 
C 1811 2796 1978 2713 2093 2539 
C 2234 2326 2278 2140 2298 1708 
z
" id="URWPalladioL-Roma-65" transform="scale(0.015625)"/>
      <path d="M 2074 544 
L 2042 0 
C 2458 0 2458 0 2541 0 
C 2573 19 2733 12 3014 0 
L 3014 192 
L 2765 204 
C 2611 211 2586 262 2586 576 
L 2586 1751 
C 2586 2688 2317 3027 1574 3027 
C 1299 3027 1043 2956 800 2809 
L 461 2604 
L 461 2187 
L 627 2142 
L 710 2341 
C 845 2642 909 2688 1203 2688 
C 1805 2688 2054 2450 2074 1866 
L 1440 1751 
C 570 1590 205 1289 205 730 
C 205 224 506 -64 1011 -64 
C 1126 -64 1235 -45 1280 -13 
L 2074 544 
z
M 2074 806 
C 1888 544 1485 300 1235 300 
C 979 300 755 537 755 812 
C 755 1049 883 1273 1075 1395 
C 1235 1491 1587 1580 2074 1651 
L 2074 806 
z
" id="URWPalladioL-Roma-61" transform="scale(0.015625)"/>
      <path d="M 262 917 
C 262 474 243 282 192 25 
C 525 -84 774 -128 1069 -128 
C 1907 -128 2502 320 2502 949 
C 2502 1148 2445 1295 2323 1423 
C 2157 1584 1946 1661 1382 1770 
C 858 1872 685 2001 685 2296 
C 685 2617 909 2796 1299 2796 
C 1728 2796 2054 2572 2054 2270 
L 2054 2123 
L 2234 2123 
C 2240 2495 2246 2649 2266 2847 
C 1926 2963 1696 3008 1434 3008 
C 691 3008 237 2655 237 2078 
C 237 1770 378 1552 672 1417 
C 845 1340 1184 1237 1619 1141 
C 1907 1077 2029 942 2029 698 
C 2029 352 1709 108 1254 108 
C 787 108 454 333 454 654 
L 454 917 
L 262 917 
z
" id="URWPalladioL-Roma-73" transform="scale(0.015625)"/>
      <path d="M 1203 2982 
L 1146 3008 
C 819 2873 486 2784 147 2746 
L 147 2568 
L 384 2568 
C 640 2568 666 2523 666 2103 
L 666 669 
C 666 268 646 223 429 211 
L 134 192 
L 134 0 
C 774 0 774 0 934 0 
C 1094 19 1094 19 1734 0 
L 1734 192 
L 1440 211 
C 1222 224 1203 268 1203 671 
L 1203 2982 
z
M 909 4416 
C 717 4416 550 4249 550 4057 
C 550 3871 717 3705 902 3705 
C 1088 3705 1261 3871 1261 4057 
C 1261 4236 1088 4416 909 4416 
z
" id="URWPalladioL-Roma-69" transform="scale(0.015625)"/>
      <path d="M 3322 2452 
L 3482 2713 
L 3456 2790 
L 2547 2764 
C 2310 2956 2080 3033 1766 3033 
C 1485 3033 1158 2944 896 2790 
C 538 2586 352 2274 352 1885 
C 352 1413 646 1087 1120 1036 
L 614 638 
C 550 540 518 455 518 358 
C 518 179 634 76 941 -13 
L 384 -315 
C 294 -367 205 -604 205 -804 
C 205 -1388 774 -1792 1587 -1792 
C 2554 -1792 3315 -1183 3315 -399 
C 3315 64 3008 384 2560 384 
L 1536 384 
C 1203 384 1050 462 1050 638 
C 1050 723 1101 795 1267 939 
C 1306 972 1318 985 1344 1011 
C 1408 1004 1446 998 1498 998 
C 1773 998 2112 1119 2374 1305 
C 2662 1515 2803 1770 2803 2108 
C 2803 2235 2784 2318 2733 2452 
L 3322 2452 
z
M 1536 2816 
C 1971 2816 2266 2458 2266 1917 
C 2266 1502 1997 1216 1606 1216 
C 1178 1216 890 1547 890 2038 
C 890 2529 1126 2816 1536 2816 
z
M 1837 -64 
C 2560 -64 2810 -212 2810 -630 
C 2810 -1183 2304 -1594 1632 -1594 
C 1075 -1594 691 -1266 691 -791 
C 691 -502 858 -238 1114 -129 
C 1216 -77 1395 -64 1837 -64 
z
" id="URWPalladioL-Roma-67" transform="scale(0.015625)"/>
      <path d="M 2182 4601 
C 2048 4652 1971 4672 1888 4672 
C 1683 4672 1459 4563 1318 4403 
L 947 3981 
C 762 3770 678 3482 678 3060 
L 678 2792 
L 237 2594 
L 237 2453 
L 678 2479 
L 678 671 
C 678 268 659 223 442 211 
L 147 192 
L 147 0 
C 787 0 787 0 947 0 
C 1107 19 1107 19 1747 0 
L 1747 192 
L 1453 211 
C 1235 223 1216 268 1216 671 
L 1216 2479 
L 2010 2479 
L 2054 2818 
L 1216 2792 
L 1216 3335 
C 1216 4070 1299 4249 1664 4249 
C 1837 4249 1952 4204 2106 4070 
L 2182 4108 
L 2182 4601 
z
" id="URWPalladioL-Roma-66" transform="scale(0.015625)"/>
      <path d="M 2515 434 
L 2515 -1118 
C 2515 -1523 2490 -1568 2278 -1581 
L 1907 -1600 
L 1907 -1792 
C 2650 -1773 2650 -1773 2797 -1773 
C 2950 -1773 3130 -1780 3584 -1792 
L 3584 -1600 
L 3290 -1581 
C 3072 -1568 3053 -1523 3053 -1118 
L 3053 2043 
C 3053 2439 3091 2681 3200 2924 
L 3078 2995 
L 2765 2796 
C 2438 2943 2163 3008 1888 3008 
C 1702 3008 1478 2956 1382 2899 
L 845 2553 
C 435 2292 224 1870 224 1315 
C 224 479 730 -64 1523 -64 
C 1658 -64 1766 -39 1850 12 
L 2515 434 
z
M 2515 779 
C 2515 690 2362 524 2189 428 
C 2035 345 1888 300 1734 300 
C 1171 300 781 824 781 1596 
C 781 2298 1139 2707 1754 2707 
C 2067 2707 2291 2630 2515 2445 
L 2515 779 
z
" id="URWPalladioL-Roma-71" transform="scale(0.015625)"/>
      <path d="M 3219 2982 
L 3162 3008 
C 2835 2873 2502 2784 2163 2745 
L 2163 2567 
L 2400 2567 
C 2656 2567 2682 2522 2682 2101 
L 2682 1060 
C 2682 920 2592 741 2445 594 
C 2266 415 2061 326 1811 326 
C 1587 326 1408 396 1306 517 
C 1216 620 1171 817 1171 1098 
L 1171 2982 
L 1114 3008 
C 787 2873 454 2784 115 2745 
L 115 2567 
L 352 2567 
C 608 2567 634 2522 634 2101 
L 634 1028 
C 634 581 672 383 787 224 
C 928 32 1171 -64 1536 -64 
C 1824 -58 2080 32 2253 192 
L 2682 588 
C 2682 403 2675 300 2656 0 
C 3085 0 3091 0 3187 0 
C 3277 19 3277 19 3718 0 
L 3718 192 
L 3456 211 
C 3238 224 3219 262 3219 672 
L 3219 2982 
z
" id="URWPalladioL-Roma-75" transform="scale(0.015625)"/>
      <path d="M 1901 569 
C 1760 812 1690 960 1574 1273 
L 1165 2349 
C 1126 2457 1101 2553 1101 2617 
C 1101 2707 1171 2758 1318 2765 
L 1562 2777 
L 1562 2957 
C 941 2937 941 2937 819 2937 
C 698 2937 698 2937 77 2957 
L 77 2777 
L 192 2765 
C 352 2745 429 2675 525 2451 
L 1222 774 
C 1402 339 1466 185 1581 -135 
L 1434 -525 
C 1229 -1063 979 -1364 736 -1364 
C 634 -1364 518 -1312 410 -1216 
L 326 -1216 
L 173 -1696 
C 294 -1760 397 -1792 518 -1792 
C 947 -1792 1222 -1562 1466 -1005 
L 2765 1990 
C 3021 2573 3142 2745 3302 2765 
L 3482 2777 
L 3482 2957 
C 2976 2937 2976 2937 2874 2937 
C 2771 2937 2771 2937 2266 2957 
L 2266 2777 
L 2432 2765 
C 2611 2752 2701 2694 2701 2605 
C 2701 2560 2688 2502 2662 2438 
L 1901 569 
z
" id="URWPalladioL-Roma-79" transform="scale(0.015625)"/>
     </defs>
     <use transform="scale(0.996264)" xlink:href="#URWPalladioL-Roma-49"/>
     <use transform="translate(33.574079 0)scale(0.996264)" xlink:href="#URWPalladioL-Roma-6e"/>
     <use transform="translate(91.55614 0)scale(0.996264)" xlink:href="#URWPalladioL-Roma-63"/>
     <use transform="translate(135.789708 0)scale(0.996264)" xlink:href="#URWPalladioL-Roma-72"/>
     <use transform="translate(173.349026 0)scale(0.996264)" xlink:href="#URWPalladioL-Roma-65"/>
     <use transform="translate(221.069321 0)scale(0.996264)" xlink:href="#URWPalladioL-Roma-61"/>
     <use transform="translate(270.882521 0)scale(0.996264)" xlink:href="#URWPalladioL-Roma-73"/>
     <use transform="translate(313.123988 0)scale(0.996264)" xlink:href="#URWPalladioL-Roma-69"/>
     <use transform="translate(342.114349 0)scale(0.996264)" xlink:href="#URWPalladioL-Roma-6e"/>
     <use transform="translate(400.09641 0)scale(0.996264)" xlink:href="#URWPalladioL-Roma-67"/>
     <use transform="translate(480.394687 0)scale(0.996264)" xlink:href="#URWPalladioL-Roma-66"/>
     <use transform="translate(513.569917 0)scale(0.996264)" xlink:href="#URWPalladioL-Roma-72"/>
     <use transform="translate(551.129234 0)scale(0.996264)" xlink:href="#URWPalladioL-Roma-65"/>
     <use transform="translate(598.849529 0)scale(0.996264)" xlink:href="#URWPalladioL-Roma-71"/>
     <use transform="translate(654.640162 0)scale(0.996264)" xlink:href="#URWPalladioL-Roma-75"/>
     <use transform="translate(714.713896 0)scale(0.996264)" xlink:href="#URWPalladioL-Roma-65"/>
     <use transform="translate(762.434191 0)scale(0.996264)" xlink:href="#URWPalladioL-Roma-6e"/>
     <use transform="translate(820.416252 0)scale(0.996264)" xlink:href="#URWPalladioL-Roma-63"/>
     <use transform="translate(864.649821 0)scale(0.996264)" xlink:href="#URWPalladioL-Roma-79"/>
    </g>
   </g>
   <g id="text_3">
    <!-- $f=0$ -->
    <g style="fill:#dc2830;" transform="translate(251.599584 162.879281)scale(0.14 -0.14)">
     <defs>
      <path d="M 1683 4416 
C 691 4416 186 3628 186 2076 
C 186 1326 320 679 544 365 
C 768 51 1126 -128 1523 -128 
C 2490 -128 2976 704 2976 2345 
C 2976 3749 2560 4416 1683 4416 
z
M 1568 4191 
C 2189 4191 2438 3563 2438 2025 
C 2438 660 2195 96 1606 96 
C 986 96 723 743 723 2307 
C 723 3660 960 4191 1568 4191 
z
" id="URWPalladioL-Roma-30" transform="scale(0.015625)"/>
     </defs>
     <use transform="scale(0.996264)" xlink:href="#URWPalladioL-Ital-66"/>
     <use transform="translate(71.310254 0)scale(1.038107)" xlink:href="#CMR10-3d"/>
     <use transform="translate(180.925883 0)scale(0.996264)" xlink:href="#URWPalladioL-Roma-30"/>
    </g>
   </g>
   <g id="text_4">
    <!-- $f=f_s/2$ -->
    <g style="fill:#dc2830;" transform="translate(63.599904 162.879281)scale(0.14 -0.14)">
     <use transform="scale(0.996264)" xlink:href="#URWPalladioL-Ital-66"/>
     <use transform="translate(71.310254 0)scale(1.038107)" xlink:href="#CMR10-3d"/>
     <use transform="translate(195.12263 0)scale(0.996264)" xlink:href="#URWPalladioL-Ital-66"/>
     <use transform="translate(227.50121 -14.943915)scale(0.757155)" xlink:href="#URWPalladioL-Ital-73"/>
     <use transform="translate(259.644406 0)scale(0.996264)" xlink:href="#URWPalladioL-Roma-2f"/>
     <use transform="translate(321.263311 0)scale(0.996264)" xlink:href="#URWPalladioL-Roma-32"/>
    </g>
   </g>
   <g id="text_5">
    <!-- $f$ -->
    <g style="fill:#6e3b87;" transform="translate(92.622527 58.160346)scale(0.14 -0.14)">
     <use transform="scale(0.996264)" xlink:href="#URWPalladioL-Ital-66"/>
    </g>
   </g>
   <g id="text_6">
    <!-- Negative frequency range -->
    <g style="fill:#343837;" transform="translate(68.336216 271.166372)scale(0.14 -0.14)">
     <defs>
      <path d="M 877 4396 
C 518 4403 461 4403 109 4416 
L 109 4223 
L 390 4204 
C 685 4185 717 4128 717 3633 
L 717 782 
C 717 287 685 230 390 211 
L 109 192 
L 109 0 
C 742 0 742 0 851 0 
C 947 19 947 19 1619 0 
L 1619 192 
L 1338 211 
C 1043 230 1011 287 1011 782 
L 1011 3722 
L 4038 -7 
L 4614 -109 
C 4614 -84 4614 -77 4608 -33 
C 4602 38 4595 89 4595 128 
L 4595 3633 
C 4595 4128 4627 4185 4922 4204 
L 5203 4223 
L 5203 4416 
C 4531 4396 4531 4396 4435 4396 
C 4326 4396 4326 4396 3693 4416 
L 3693 4223 
L 3974 4204 
C 4269 4185 4301 4128 4301 3633 
L 4301 642 
L 1222 4416 
L 877 4396 
z
" id="URWPalladioL-Roma-4e" transform="scale(0.015625)"/>
      <path d="M 627 2457 
L 627 614 
C 627 140 838 -64 1331 -64 
C 1478 -64 1632 -32 1670 12 
L 1978 352 
L 1894 460 
C 1734 371 1638 339 1517 339 
C 1267 339 1165 467 1165 780 
L 1165 2457 
L 1984 2457 
L 2042 2803 
L 1165 2764 
L 1165 3008 
C 1165 3277 1184 3507 1235 3917 
L 1158 3987 
C 1005 3891 813 3808 614 3744 
C 634 3552 640 3430 640 3238 
L 640 2790 
L 141 2566 
L 141 2432 
L 627 2457 
z
" id="URWPalladioL-Roma-74" transform="scale(0.015625)"/>
      <path d="M 3450 2739 
L 3450 2918 
C 3066 2905 2950 2899 2848 2899 
C 2746 2899 2630 2905 2246 2918 
L 2246 2739 
L 2509 2726 
C 2611 2720 2662 2662 2662 2560 
C 2662 2457 2618 2284 2541 2092 
L 2272 1414 
C 2195 1228 2118 1049 1875 518 
L 1114 2361 
C 1075 2451 1056 2534 1056 2604 
C 1056 2675 1114 2720 1216 2726 
L 1530 2739 
L 1530 2918 
C 902 2899 902 2899 781 2899 
C 659 2899 352 2905 38 2918 
L 38 2739 
L 256 2726 
C 352 2713 384 2675 454 2515 
L 1555 -64 
L 1875 -64 
C 1914 44 1978 211 1978 224 
C 2048 416 2131 633 2138 633 
L 2893 2297 
C 3034 2598 3123 2713 3251 2726 
L 3450 2739 
z
" id="URWPalladioL-Roma-76" transform="scale(0.015625)"/>
     </defs>
     <use transform="scale(0.996264)" xlink:href="#URWPalladioL-Roma-4e"/>
     <use transform="translate(82.788907 0)scale(0.996264)" xlink:href="#URWPalladioL-Roma-65"/>
     <use transform="translate(130.509202 0)scale(0.996264)" xlink:href="#URWPalladioL-Roma-67"/>
     <use transform="translate(185.900879 0)scale(0.996264)" xlink:href="#URWPalladioL-Roma-61"/>
     <use transform="translate(235.714079 0)scale(0.996264)" xlink:href="#URWPalladioL-Roma-74"/>
     <use transform="translate(268.191167 0)scale(0.996264)" xlink:href="#URWPalladioL-Roma-69"/>
     <use transform="translate(297.181529 0)scale(0.996264)" xlink:href="#URWPalladioL-Roma-76"/>
     <use transform="translate(353.469442 0)scale(0.996264)" xlink:href="#URWPalladioL-Roma-65"/>
     <use transform="translate(426.096337 0)scale(0.996264)" xlink:href="#URWPalladioL-Roma-66"/>
     <use transform="translate(459.271567 0)scale(0.996264)" xlink:href="#URWPalladioL-Roma-72"/>
     <use transform="translate(496.830884 0)scale(0.996264)" xlink:href="#URWPalladioL-Roma-65"/>
     <use transform="translate(544.55118 0)scale(0.996264)" xlink:href="#URWPalladioL-Roma-71"/>
     <use transform="translate(600.341812 0)scale(0.996264)" xlink:href="#URWPalladioL-Roma-75"/>
     <use transform="translate(660.415547 0)scale(0.996264)" xlink:href="#URWPalladioL-Roma-65"/>
     <use transform="translate(708.135842 0)scale(0.996264)" xlink:href="#URWPalladioL-Roma-6e"/>
     <use transform="translate(766.117903 0)scale(0.996264)" xlink:href="#URWPalladioL-Roma-63"/>
     <use transform="translate(810.351471 0)scale(0.996264)" xlink:href="#URWPalladioL-Roma-79"/>
     <use transform="translate(890.649749 0)scale(0.996264)" xlink:href="#URWPalladioL-Roma-72"/>
     <use transform="translate(930.001645 0)scale(0.996264)" xlink:href="#URWPalladioL-Roma-61"/>
     <use transform="translate(979.814845 0)scale(0.996264)" xlink:href="#URWPalladioL-Roma-6e"/>
     <use transform="translate(1037.796906 0)scale(0.996264)" xlink:href="#URWPalladioL-Roma-67"/>
     <use transform="translate(1093.188583 0)scale(0.996264)" xlink:href="#URWPalladioL-Roma-65"/>
    </g>
   </g>
   <g id="PathCollection_1">
    <defs>
     <path d="M 0 5 
C 1.326016 5 2.597899 4.473168 3.535534 3.535534 
C 4.473168 2.597899 5 1.326016 5 0 
C 5 -1.326016 4.473168 -2.597899 3.535534 -3.535534 
C 2.597899 -4.473168 1.326016 -5 0 -5 
C -1.326016 -5 -2.597899 -4.473168 -3.535534 -3.535534 
C -4.473168 -2.597899 -5 -1.326016 -5 0 
C -5 1.326016 -4.473168 2.597899 -3.535534 3.535534 
C -2.597899 4.473168 -1.326016 5 0 5 
z
" id="mda0091c30f" style="stroke:#dc2830;stroke-width:0.5;"/>
    </defs>
    <g clip-path="url(#pde920e12de)">
     <use style="fill:#dc2830;stroke:#dc2830;stroke-width:0.5;" x="242.1996" xlink:href="#mda0091c30f" y="148.19976"/>
     <use style="fill:#dc2830;stroke:#dc2830;stroke-width:0.5;" x="54.19992" xlink:href="#mda0091c30f" y="148.19976"/>
    </g>
   </g>
   <g id="PathCollection_2">
    <defs>
     <path d="M 0 5 
C 1.326016 5 2.597899 4.473168 3.535534 3.535534 
C 4.473168 2.597899 5 1.326016 5 0 
C 5 -1.326016 4.473168 -2.597899 3.535534 -3.535534 
C 2.597899 -4.473168 1.326016 -5 0 -5 
C -1.326016 -5 -2.597899 -4.473168 -3.535534 -3.535534 
C -4.473168 -2.597899 -5 -1.326016 -5 0 
C -5 1.326016 -4.473168 2.597899 -3.535534 3.535534 
C -2.597899 4.473168 -1.326016 5 0 5 
z
" id="ma6015d9f81" style="stroke:#6e3b87;stroke-width:0.5;"/>
    </defs>
    <g clip-path="url(#pde920e12de)">
     <use style="fill:#6e3b87;stroke:#6e3b87;stroke-width:0.5;" x="101.19984" xlink:href="#ma6015d9f81" y="66.793511"/>
    </g>
   </g>
  </g>
 </g>
 <defs>
  <clipPath id="pde920e12de">
   <rect height="281.99952" width="281.99952" x="7.2" y="7.2"/>
  </clipPath>
 </defs>
</svg>
