<?xml version="1.0" encoding="utf-8" standalone="no"?>
<!DOCTYPE svg PUBLIC "-//W3C//DTD SVG 1.1//EN"
  "http://www.w3.org/Graphics/SVG/1.1/DTD/svg11.dtd">
<svg height="238.510962pt" version="1.1" viewBox="0 0 247.343351 238.510962" width="247.343351pt" xmlns="http://www.w3.org/2000/svg" xmlns:xlink="http://www.w3.org/1999/xlink">
 <metadata>
  <rdf:RDF xmlns:cc="http://creativecommons.org/ns#" xmlns:dc="http://purl.org/dc/elements/1.1/" xmlns:rdf="http://www.w3.org/1999/02/22-rdf-syntax-ns#">
   <cc:Work>
    <dc:type rdf:resource="http://purl.org/dc/dcmitype/StillImage"/>
    <dc:date>2021-08-19T14:25:22.679807</dc:date>
    <dc:format>image/svg+xml</dc:format>
    <dc:creator>
     <cc:Agent>
      <dc:title>Matplotlib v3.4.2, https://matplotlib.org/</dc:title>
     </cc:Agent>
    </dc:creator>
   </cc:Work>
  </rdf:RDF>
 </metadata>
 <defs>
  <style type="text/css">*{stroke-linecap:butt;stroke-linejoin:round;}</style>
 </defs>
 <g id="figure_1">
  <g id="patch_1">
   <path d="M 0 238.510962 
L 247.343351 238.510962 
L 247.343351 0 
L 0 0 
z
" style="fill:none;"/>
  </g>
  <g id="axes_1">
   <g id="patch_2">
    <path d="M 7.2 229.846123 
L 229.846123 229.846123 
L 229.846123 7.2 
L 7.2 7.2 
z
" style="fill:none;"/>
   </g>
   <g id="matplotlib.axis_1">
    <g id="xtick_1">
     <g id="line2d_1">
      <path clip-path="url(#p5cd2f0c794)" d="M 29.464612 229.846123 
L 29.464612 7.2 
" style="fill:none;stroke:#000000;stroke-linejoin:miter;stroke-opacity:0.2;stroke-width:0.5;"/>
     </g>
     <g id="line2d_2">
      <defs>
       <path d="M 0 0 
L 0 3.5 
" id="mc0a886b4d3" style="stroke:#000000;stroke-opacity:0.2;stroke-width:0.8;"/>
      </defs>
      <g>
       <use style="fill-opacity:0.2;stroke:#000000;stroke-opacity:0.2;stroke-width:0.8;" x="29.464612" xlink:href="#mc0a886b4d3" y="229.846123"/>
      </g>
     </g>
    </g>
    <g id="xtick_2">
     <g id="line2d_3">
      <path clip-path="url(#p5cd2f0c794)" d="M 73.993837 229.846123 
L 73.993837 7.2 
" style="fill:none;stroke:#000000;stroke-linejoin:miter;stroke-opacity:0.2;stroke-width:0.5;"/>
     </g>
     <g id="line2d_4">
      <g>
       <use style="fill-opacity:0.2;stroke:#000000;stroke-opacity:0.2;stroke-width:0.8;" x="73.993837" xlink:href="#mc0a886b4d3" y="229.846123"/>
      </g>
     </g>
    </g>
    <g id="xtick_3">
     <g id="line2d_5">
      <path clip-path="url(#p5cd2f0c794)" d="M 118.523062 229.846123 
L 118.523062 7.2 
" style="fill:none;stroke:#000000;stroke-linejoin:miter;stroke-opacity:0.2;stroke-width:0.5;"/>
     </g>
     <g id="line2d_6">
      <g>
       <use style="fill-opacity:0.2;stroke:#000000;stroke-opacity:0.2;stroke-width:0.8;" x="118.523062" xlink:href="#mc0a886b4d3" y="229.846123"/>
      </g>
     </g>
    </g>
    <g id="xtick_4">
     <g id="line2d_7">
      <path clip-path="url(#p5cd2f0c794)" d="M 163.052286 229.846123 
L 163.052286 7.2 
" style="fill:none;stroke:#000000;stroke-linejoin:miter;stroke-opacity:0.2;stroke-width:0.5;"/>
     </g>
     <g id="line2d_8">
      <g>
       <use style="fill-opacity:0.2;stroke:#000000;stroke-opacity:0.2;stroke-width:0.8;" x="163.052286" xlink:href="#mc0a886b4d3" y="229.846123"/>
      </g>
     </g>
    </g>
    <g id="xtick_5">
     <g id="line2d_9">
      <path clip-path="url(#p5cd2f0c794)" d="M 207.581511 229.846123 
L 207.581511 7.2 
" style="fill:none;stroke:#000000;stroke-linejoin:miter;stroke-opacity:0.2;stroke-width:0.5;"/>
     </g>
     <g id="line2d_10">
      <g>
       <use style="fill-opacity:0.2;stroke:#000000;stroke-opacity:0.2;stroke-width:0.8;" x="207.581511" xlink:href="#mc0a886b4d3" y="229.846123"/>
      </g>
     </g>
    </g>
   </g>
   <g id="matplotlib.axis_2">
    <g id="ytick_1">
     <g id="line2d_11">
      <path clip-path="url(#p5cd2f0c794)" d="M 7.2 207.581511 
L 229.846123 207.581511 
" style="fill:none;stroke:#000000;stroke-linejoin:miter;stroke-opacity:0.2;stroke-width:0.5;"/>
     </g>
     <g id="line2d_12">
      <defs>
       <path d="M 0 0 
L -3.5 0 
" id="m23f60c4ca5" style="stroke:#000000;stroke-opacity:0.2;stroke-width:0.8;"/>
      </defs>
      <g>
       <use style="fill-opacity:0.2;stroke:#000000;stroke-opacity:0.2;stroke-width:0.8;" x="7.2" xlink:href="#m23f60c4ca5" y="207.581511"/>
      </g>
     </g>
    </g>
    <g id="ytick_2">
     <g id="line2d_13">
      <path clip-path="url(#p5cd2f0c794)" d="M 7.2 163.052286 
L 229.846123 163.052286 
" style="fill:none;stroke:#000000;stroke-linejoin:miter;stroke-opacity:0.2;stroke-width:0.5;"/>
     </g>
     <g id="line2d_14">
      <g>
       <use style="fill-opacity:0.2;stroke:#000000;stroke-opacity:0.2;stroke-width:0.8;" x="7.2" xlink:href="#m23f60c4ca5" y="163.052286"/>
      </g>
     </g>
    </g>
    <g id="ytick_3">
     <g id="line2d_15">
      <path clip-path="url(#p5cd2f0c794)" d="M 7.2 118.523062 
L 229.846123 118.523062 
" style="fill:none;stroke:#000000;stroke-linejoin:miter;stroke-opacity:0.2;stroke-width:0.5;"/>
     </g>
     <g id="line2d_16">
      <g>
       <use style="fill-opacity:0.2;stroke:#000000;stroke-opacity:0.2;stroke-width:0.8;" x="7.2" xlink:href="#m23f60c4ca5" y="118.523062"/>
      </g>
     </g>
    </g>
    <g id="ytick_4">
     <g id="line2d_17">
      <path clip-path="url(#p5cd2f0c794)" d="M 7.2 73.993837 
L 229.846123 73.993837 
" style="fill:none;stroke:#000000;stroke-linejoin:miter;stroke-opacity:0.2;stroke-width:0.5;"/>
     </g>
     <g id="line2d_18">
      <g>
       <use style="fill-opacity:0.2;stroke:#000000;stroke-opacity:0.2;stroke-width:0.8;" x="7.2" xlink:href="#m23f60c4ca5" y="73.993837"/>
      </g>
     </g>
    </g>
    <g id="ytick_5">
     <g id="line2d_19">
      <path clip-path="url(#p5cd2f0c794)" d="M 7.2 29.464612 
L 229.846123 29.464612 
" style="fill:none;stroke:#000000;stroke-linejoin:miter;stroke-opacity:0.2;stroke-width:0.5;"/>
     </g>
     <g id="line2d_20">
      <g>
       <use style="fill-opacity:0.2;stroke:#000000;stroke-opacity:0.2;stroke-width:0.8;" x="7.2" xlink:href="#m23f60c4ca5" y="29.464612"/>
      </g>
     </g>
    </g>
   </g>
   <g id="patch_3">
    <path clip-path="url(#p5cd2f0c794)" d="M 118.523062 207.581511 
C 142.141638 207.581511 164.796039 198.197751 181.496895 181.496895 
C 198.197751 164.796039 207.581511 142.141638 207.581511 118.523062 
C 207.581511 94.904485 198.197751 72.250084 181.496895 55.549228 
C 164.796039 38.848372 142.141638 29.464612 118.523062 29.464612 
C 94.904485 29.464612 72.250084 38.848372 55.549228 55.549228 
C 38.848372 72.250084 29.464612 94.904485 29.464612 118.523062 
C 29.464612 142.141638 38.848372 164.796039 55.549228 181.496895 
C 72.250084 198.197751 94.904485 207.581511 118.523062 207.581511 
z
" style="fill:none;stroke:#000000;stroke-linejoin:miter;stroke-width:5;"/>
   </g>
   <g id="patch_4">
    <path clip-path="url(#p5cd2f0c794)" d="M 140.787674 118.523062 
C 140.787674 115.599299 140.211757 112.703967 139.092881 110.002763 
C 137.974006 107.301559 136.333932 104.847015 134.26652 102.779603 
L 118.523062 118.523062 
L 140.787674 118.523062 
z
" style="fill:#6e3b87;"/>
   </g>
   <g id="line2d_21">
    <path clip-path="url(#p5cd2f0c794)" d="M 118.523062 118.523062 
L 181.496895 55.549228 
" style="fill:none;stroke:#0271ae;stroke-linejoin:miter;stroke-width:3;"/>
   </g>
   <g id="patch_5">
    <path clip-path="url(#p5cd2f0c794)" d="M 209.042997 119.893034 
Q 234.012602 146.719625 191.741177 175.241674 
L 194.481857 179.30353 
Q 189.012764 179.974872 183.222351 180.489245 
Q 186.479828 175.658186 188.888633 171.014028 
L 191.629313 175.075884 
Q 233.706835 146.684668 208.896599 120.029297 
L 209.042997 119.893034 
z
" style="fill:#ffc438;stroke:#ffc438;stroke-linecap:round;stroke-width:3;"/>
   </g>
   <g id="patch_6">
    <path clip-path="url(#p5cd2f0c794)" d="M 179.704742 180.614637 
Q 149.139149 164.268862 125.095586 197.54737 
L 129.067399 200.416987 
Q 124.388093 202.615702 119.535698 205.856496 
Q 120.074773 200.066032 120.961657 194.560627 
L 124.933471 197.430243 
Q 149.07937 164.010092 179.799058 180.438272 
L 179.704742 180.614637 
z
" style="fill:#ffc438;stroke:#ffc438;stroke-linecap:round;stroke-width:3;"/>
   </g>
   <g id="text_1">
    <!-- $\theta = 2 \pi \cdot \frac{1}{8}$ -->
    <g style="fill:#6e3b87;" transform="translate(140.787674 109.617217)scale(0.14 -0.14)">
     <defs>
      <path d="M 2029 4544 
C 1754 4544 1472 4409 1178 4122 
C 608 3580 186 2616 186 1442 
C 186 427 390 -64 928 -64 
C 1267 -64 1664 172 1965 555 
C 2400 1110 2797 2163 2797 3127 
C 2797 4013 2554 4544 2029 4544 
z
M 1478 2112 
C 1914 2112 2093 2092 2202 2041 
C 2061 1397 1824 823 1619 491 
C 1491 294 1318 179 1126 179 
C 742 179 672 670 672 1429 
C 672 1627 685 1831 717 2035 
C 851 2092 1024 2112 1478 2112 
z
M 1869 4300 
C 2272 4300 2310 3777 2310 2986 
C 2310 2808 2298 2623 2272 2444 
C 2144 2399 1946 2380 1523 2380 
C 1088 2380 902 2399 787 2444 
C 954 3197 1248 3886 1478 4154 
C 1568 4249 1715 4300 1869 4300 
z
" id="PazoMath-Italic-71" transform="scale(0.015625)"/>
      <path d="M 4397 2111 
C 4493 2111 4614 2111 4614 2239 
C 4614 2368 4493 2368 4403 2368 
L 570 2368 
C 480 2368 358 2368 358 2239 
C 358 2111 480 2111 576 2111 
L 4397 2111 
z
M 4403 832 
C 4493 832 4614 832 4614 960 
C 4614 1088 4493 1088 4397 1088 
L 576 1088 
C 480 1088 358 1088 358 960 
C 358 832 480 832 570 832 
L 4403 832 
z
" id="CMR10-3d" transform="scale(0.015625)"/>
      <path d="M 102 166 
L 102 0 
C 1299 0 1299 0 1530 0 
C 1760 19 1760 19 2995 0 
C 2982 134 2982 198 2982 287 
C 2982 370 2982 434 2995 574 
C 2259 542 1965 536 781 510 
L 1946 1741 
C 2566 2398 2758 2749 2758 3228 
C 2758 3961 2259 4416 1446 4416 
C 986 4416 672 4287 358 3967 
L 250 3100 
L 435 3100 
L 518 3394 
C 621 3763 851 3923 1280 3923 
C 1830 3923 2182 3578 2182 3036 
C 2182 2558 1914 2086 1190 1320 
L 102 166 
z
" id="URWPalladioL-Roma-32" transform="scale(0.015625)"/>
      <path d="M 614 2255 
L 672 2299 
C 806 2681 1062 2700 1427 2700 
C 1504 2700 1619 2694 1754 2694 
C 1216 1242 973 803 454 -7 
L 512 -64 
L 986 102 
C 1216 599 1606 1567 1958 2688 
L 3149 2624 
C 3040 2232 2669 1089 2669 685 
C 2669 19 2912 -64 3110 -64 
C 3437 -64 3622 19 4026 356 
L 3974 476 
L 3821 369 
C 3840 382 3654 236 3546 236 
C 3245 236 3155 419 3155 811 
C 3155 969 3168 1139 3206 1323 
C 3315 1847 3424 2365 3482 2624 
C 3629 2624 3776 2630 3923 2649 
C 4038 2649 4179 2713 4282 2752 
C 4352 2905 4378 2918 4499 3072 
L 4454 3136 
C 4282 3075 3994 3008 3782 3008 
C 3706 3001 3546 2995 3386 2995 
C 2701 3020 1645 3072 1363 3072 
C 883 3072 710 2860 525 2306 
L 614 2255 
z
" id="PazoMath-Italic-70" transform="scale(0.015625)"/>
      <path d="M 1229 1619 
C 1229 1804 1075 1958 890 1958 
C 704 1958 550 1804 550 1619 
C 550 1433 704 1280 890 1280 
C 1075 1280 1229 1433 1229 1619 
z
" id="CMSY10-1" transform="scale(0.015625)"/>
      <path d="M 429 3571 
L 493 3571 
L 1318 3942 
C 1325 3949 1331 3949 1338 3949 
C 1376 3949 1389 3891 1389 3737 
L 1389 633 
C 1389 300 1318 230 973 211 
L 614 192 
L 614 0 
C 1600 0 1600 0 1670 0 
C 1754 0 1894 0 2112 -7 
C 2189 6 2413 6 2675 0 
L 2675 192 
L 2342 211 
C 1990 229 1926 299 1926 628 
L 1926 4383 
L 1837 4416 
C 1421 4199 966 4009 384 3807 
L 429 3571 
z
" id="URWPalladioL-Roma-31" transform="scale(0.015625)"/>
      <path d="M 1075 2211 
C 813 2089 704 2019 563 1884 
C 320 1640 192 1352 192 1019 
C 192 358 723 -128 1446 -128 
C 2278 -128 2970 525 2970 1320 
C 2970 1833 2733 2108 2003 2442 
C 2586 2839 2790 3108 2790 3493 
C 2790 4044 2336 4416 1658 4416 
C 896 4416 339 3929 339 3256 
C 339 2820 512 2576 1075 2211 
z
M 1818 1890 
C 2221 1711 2464 1397 2464 1051 
C 2464 512 2061 89 1542 89 
C 998 89 646 474 646 1070 
C 646 1538 832 1833 1306 2121 
L 1818 1890 
z
M 1427 2711 
C 1024 2910 819 3166 819 3486 
C 819 3910 1126 4198 1581 4198 
C 2048 4198 2355 3890 2355 3422 
C 2355 3057 2195 2807 1779 2538 
L 1427 2711 
z
" id="URWPalladioL-Roma-38" transform="scale(0.015625)"/>
     </defs>
     <use transform="scale(0.996264)" xlink:href="#PazoMath-Italic-71"/>
     <use transform="translate(77.387455 0)scale(1.038107)" xlink:href="#CMR10-3d"/>
     <use transform="translate(187.003084 0)scale(0.996264)" xlink:href="#URWPalladioL-Roma-32"/>
     <use transform="translate(238.061584 0)scale(0.996264)" xlink:href="#PazoMath-Italic-70"/>
     <use transform="translate(329.960266 0)scale(1.038107)" xlink:href="#CMSY10-1"/>
     <use transform="translate(380.564932 39.252796)scale(0.757155)" xlink:href="#URWPalladioL-Roma-31"/>
     <use transform="translate(380.564932 -34.371108)scale(0.757155)" xlink:href="#URWPalladioL-Roma-38"/>
     <path d="M 380.564932 22.914087 
L 418.42269 22.914087 
L 418.42269 26.899128 
L 380.564932 26.899128 
L 380.564932 22.914087 
z
"/>
    </g>
   </g>
   <g id="text_2">
    <!-- $z_{1/8}$ -->
    <g style="fill:#0271ae;" transform="translate(185.949817 51.096306)scale(0.14 -0.14)">
     <defs>
      <path d="M -7 108 
L 51 -64 
C 237 83 410 140 634 140 
C 794 140 973 108 1306 32 
C 1690 -32 1888 -64 2061 -64 
C 2138 -64 2195 -52 2381 0 
C 2451 396 2502 612 2573 910 
L 2432 910 
L 2291 529 
C 2253 415 2176 371 2042 371 
C 1965 371 1862 383 1728 415 
L 1613 441 
C 1402 485 1184 517 1062 517 
C 858 517 685 479 454 383 
L 2624 2809 
L 2662 3014 
L 2605 3072 
L 2458 2924 
C 2394 2860 2330 2835 2240 2835 
C 2022 2835 1690 2886 1382 2969 
L 1267 3001 
C 1088 3046 960 3072 870 3072 
C 762 3072 634 3052 480 3007 
L 275 2230 
L 410 2230 
L 602 2598 
C 710 2623 768 2630 851 2630 
C 941 2630 1011 2623 1139 2598 
C 1357 2554 1523 2535 1658 2535 
C 1888 2535 2042 2573 2253 2681 
L -7 108 
z
" id="URWPalladioL-Ital-7a" transform="scale(0.015625)"/>
      <path d="M 3322 4646 
L 2938 4646 
L 557 -762 
L 941 -762 
L 3322 4646 
z
" id="URWPalladioL-Roma-2f" transform="scale(0.015625)"/>
     </defs>
     <use transform="scale(0.996264)" xlink:href="#URWPalladioL-Ital-7a"/>
     <use transform="translate(45.479461 -20.887203)scale(0.757155)" xlink:href="#URWPalladioL-Roma-31"/>
     <use transform="translate(84.283637 -20.887203)scale(0.757155)" xlink:href="#URWPalladioL-Roma-2f"/>
     <use transform="translate(131.11367 -20.887203)scale(0.757155)" xlink:href="#URWPalladioL-Roma-38"/>
    </g>
   </g>
   <g id="text_3">
    <!-- $z_{1/8}^{0}$ -->
    <g style="fill:#dc2830;" transform="translate(216.487356 121.893553)scale(0.14 -0.14)">
     <defs>
      <path d="M 1683 4416 
C 691 4416 186 3628 186 2076 
C 186 1326 320 679 544 365 
C 768 51 1126 -128 1523 -128 
C 2490 -128 2976 704 2976 2345 
C 2976 3749 2560 4416 1683 4416 
z
M 1568 4191 
C 2189 4191 2438 3563 2438 2025 
C 2438 660 2195 96 1606 96 
C 986 96 723 743 723 2307 
C 723 3660 960 4191 1568 4191 
z
" id="URWPalladioL-Roma-30" transform="scale(0.015625)"/>
     </defs>
     <use transform="scale(0.996264)" xlink:href="#URWPalladioL-Ital-7a"/>
     <use transform="translate(45.479461 36.164371)scale(0.757155)" xlink:href="#URWPalladioL-Roma-30"/>
     <use transform="translate(45.479461 -36.14578)scale(0.757155)" xlink:href="#URWPalladioL-Roma-31"/>
     <use transform="translate(84.283637 -36.14578)scale(0.757155)" xlink:href="#URWPalladioL-Roma-2f"/>
     <use transform="translate(131.11367 -36.14578)scale(0.757155)" xlink:href="#URWPalladioL-Roma-38"/>
    </g>
   </g>
   <g id="text_4">
    <!-- $z_{1/8}^{-1}$ -->
    <g style="fill:#dc2830;" transform="translate(185.949817 198.872761)scale(0.14 -0.14)">
     <defs>
      <path d="M 4218 1472 
C 4326 1472 4442 1472 4442 1600 
C 4442 1728 4326 1728 4218 1728 
L 755 1728 
C 646 1728 531 1728 531 1600 
C 531 1472 646 1472 755 1472 
L 4218 1472 
z
" id="CMSY10-0" transform="scale(0.015625)"/>
     </defs>
     <use transform="scale(0.996264)" xlink:href="#URWPalladioL-Ital-7a"/>
     <use transform="translate(46.425879 40.783068)scale(0.788955)" xlink:href="#CMSY10-0"/>
     <use transform="translate(108.70112 40.783068)scale(0.757155)" xlink:href="#URWPalladioL-Roma-31"/>
     <use transform="translate(45.479461 -36.827367)scale(0.757155)" xlink:href="#URWPalladioL-Roma-31"/>
     <use transform="translate(84.283637 -36.827367)scale(0.757155)" xlink:href="#URWPalladioL-Roma-2f"/>
     <use transform="translate(131.11367 -36.827367)scale(0.757155)" xlink:href="#URWPalladioL-Roma-38"/>
    </g>
   </g>
   <g id="text_5">
    <!-- $z_{1/8}^{-2}$ -->
    <g style="fill:#dc2830;" transform="translate(122.975984 224.957377)scale(0.14 -0.14)">
     <use transform="scale(0.996264)" xlink:href="#URWPalladioL-Ital-7a"/>
     <use transform="translate(46.425879 40.783068)scale(0.788955)" xlink:href="#CMSY10-0"/>
     <use transform="translate(108.70112 40.783068)scale(0.757155)" xlink:href="#URWPalladioL-Roma-32"/>
     <use transform="translate(45.479461 -36.827367)scale(0.757155)" xlink:href="#URWPalladioL-Roma-31"/>
     <use transform="translate(84.283637 -36.827367)scale(0.757155)" xlink:href="#URWPalladioL-Roma-2f"/>
     <use transform="translate(131.11367 -36.827367)scale(0.757155)" xlink:href="#URWPalladioL-Roma-38"/>
    </g>
   </g>
   <g id="PathCollection_1">
    <defs>
     <path d="M 0 5 
C 1.326016 5 2.597899 4.473168 3.535534 3.535534 
C 4.473168 2.597899 5 1.326016 5 0 
C 5 -1.326016 4.473168 -2.597899 3.535534 -3.535534 
C 2.597899 -4.473168 1.326016 -5 0 -5 
C -1.326016 -5 -2.597899 -4.473168 -3.535534 -3.535534 
C -4.473168 -2.597899 -5 -1.326016 -5 0 
C -5 1.326016 -4.473168 2.597899 -3.535534 3.535534 
C -2.597899 4.473168 -1.326016 5 0 5 
z
" id="m730ca4842e" style="stroke:#0271ae;stroke-width:0.5;"/>
    </defs>
    <g clip-path="url(#p5cd2f0c794)">
     <use style="fill:#0271ae;stroke:#0271ae;stroke-width:0.5;" x="181.496895" xlink:href="#m730ca4842e" y="55.549228"/>
    </g>
   </g>
   <g id="PathCollection_2">
    <defs>
     <path d="M 0 5 
C 1.326016 5 2.597899 4.473168 3.535534 3.535534 
C 4.473168 2.597899 5 1.326016 5 0 
C 5 -1.326016 4.473168 -2.597899 3.535534 -3.535534 
C 2.597899 -4.473168 1.326016 -5 0 -5 
C -1.326016 -5 -2.597899 -4.473168 -3.535534 -3.535534 
C -4.473168 -2.597899 -5 -1.326016 -5 0 
C -5 1.326016 -4.473168 2.597899 -3.535534 3.535534 
C -2.597899 4.473168 -1.326016 5 0 5 
z
" id="mfc651c9c82" style="stroke:#dc2830;stroke-width:0.5;"/>
    </defs>
    <g clip-path="url(#p5cd2f0c794)">
     <use style="fill:#dc2830;stroke:#dc2830;stroke-width:0.5;" x="207.581511" xlink:href="#mfc651c9c82" y="118.523062"/>
     <use style="fill:#dc2830;stroke:#dc2830;stroke-width:0.5;" x="181.496895" xlink:href="#mfc651c9c82" y="181.496895"/>
     <use style="fill:#dc2830;stroke:#dc2830;stroke-width:0.5;" x="118.523062" xlink:href="#mfc651c9c82" y="207.581511"/>
    </g>
   </g>
   <g id="patch_7">
    <path clip-path="url(#p5cd2f0c794)" d="M 183.454872 55.98869 
Q 229.136601 69.109104 213.039337 107.82933 
L 217.563913 109.710344 
Q 213.331322 113.355982 208.566304 116.782039 
Q 208.958501 110.895353 208.330085 105.87154 
L 212.85466 107.752554 
Q 228.86583 69.23942 183.399662 56.180919 
L 183.454872 55.98869 
z
" style="fill:#ffc438;stroke:#ffc438;stroke-linecap:round;stroke-width:3;"/>
   </g>
  </g>
 </g>
 <defs>
  <clipPath id="p5cd2f0c794">
   <rect height="222.646123" width="222.646123" x="7.2" y="7.2"/>
  </clipPath>
 </defs>
</svg>
